<svg width="200" height="200" viewBox="0 0 200 200" fill="none" xmlns="http://www.w3.org/2000/svg">
<path d="M103.37 46.8951C116.695 42.7661 129.985 38.52 143.291 34.332C139.102 47.1776 134.892 60.0102 130.684 72.8431C132.601 71.9006 134.576 71.0588 136.625 70.4393C153.694 65.0972 170.727 59.6279 187.817 54.3493C184.72 63.9483 181.543 73.5207 178.451 83.1241C168.206 86.359 157.961 89.5833 147.722 92.8236C144.323 103.264 140.924 113.71 137.53 124.157C147.611 121.409 157.686 118.635 167.777 115.919C164.659 125.359 161.636 134.836 158.496 144.27C145.736 147.775 132.961 151.216 120.201 154.711C115.574 156.098 110.396 157.3 105.774 155.267C101.543 153.535 98.8802 149.072 98.7743 144.582C98.3984 138.642 100.95 133.12 102.655 127.566C93.8503 130.827 85.1039 134.232 76.2874 137.472C77.2722 134.242 78.3734 131.055 79.4536 127.862C77.1558 131.356 75.0644 134.983 72.8195 138.515C72.433 139.229 71.5806 139.409 70.9029 139.732C63.8983 142.464 56.9573 145.339 49.9641 148.098C49.8159 141.707 49.6623 135.322 49.3817 128.937C46.8614 136.445 44.4579 143.995 41.9428 151.508C32.201 155.664 22.4273 159.752 12.707 163.95C23.3966 131.074 34.2336 98.2469 44.919 65.3621C57.4775 61.3859 70.0405 57.4362 82.6055 53.4759C82.8543 62.0688 83.1032 70.6672 83.3785 79.2599C90.1291 68.528 96.6775 57.6636 103.37 46.8951ZM106.923 49.7481C106.124 49.9017 105.525 50.4205 105.171 51.13C96.8159 64.795 88.334 78.3803 80.0324 92.073C79.5983 80.9174 79.2912 69.751 79.0212 58.5859C68.6386 61.8156 58.272 65.0823 47.9203 68.3965C38.2684 98.0082 28.5159 127.585 18.8964 157.201C25.5728 154.336 32.2862 151.562 38.9413 148.639C43.4628 134.757 48.0319 120.886 52.5694 107.009C52.9135 118.863 53.2047 130.722 53.66 142.577C58.3138 140.697 62.9679 138.823 67.6374 136.986C68.6858 136.546 69.9565 136.261 70.4964 135.133C77.9934 122.918 85.5064 110.709 93.0303 98.5055C89.414 109.375 85.8456 120.261 82.3353 131.162C91.1029 127.9 99.8442 124.565 108.612 121.293C107.246 125.735 105.742 130.135 104.328 134.561C103.142 138.087 102.041 141.846 102.671 145.595C103.047 148.078 104.492 150.46 106.796 151.588C109.861 153.171 113.488 152.615 116.686 151.763C129.641 148.221 142.596 144.684 155.558 141.179C157.671 134.582 159.894 128.027 161.986 121.425C151.91 124.11 141.856 126.873 131.801 129.637C136.142 116.327 140.547 103.037 144.947 89.7492C155.102 86.5194 165.273 83.3429 175.433 80.1184C177.635 73.4685 179.79 66.7975 181.961 60.1316C167.062 64.7802 152.185 69.5082 137.303 74.1938C131.764 75.8615 126.867 79.3242 123.182 83.745C127.882 69.2091 132.663 54.6961 137.423 40.1789C127.236 43.3077 117.093 46.586 106.92 49.7449L106.923 49.7481Z" fill="#FDB813"/>
<path d="M106.92 49.7508C117.091 46.5901 127.235 43.3128 137.422 40.1836C132.663 54.7012 127.882 69.2138 123.18 83.7476C126.865 79.3266 131.763 75.8641 137.301 74.1964C152.184 69.5108 167.062 64.7826 181.959 60.1342C179.789 66.8001 177.634 73.4711 175.431 80.121C165.271 83.3453 155.1 86.5221 144.945 89.7518C140.545 103.041 136.14 116.329 131.799 129.64C141.853 126.876 151.907 124.112 161.984 121.428C159.892 128.03 157.669 134.585 155.556 141.182C142.595 144.687 129.639 148.223 116.684 151.765C113.486 152.618 109.859 153.174 106.794 151.591C104.491 150.463 103.045 148.08 102.669 145.597C102.039 141.849 103.14 138.09 104.326 134.563C105.74 130.137 107.244 125.738 108.61 121.296C99.8421 124.568 91.1009 127.903 82.3335 131.165C85.8437 120.263 89.4122 109.378 93.0284 98.5081C85.5048 110.712 77.992 122.922 70.4946 135.135C69.9545 136.263 68.6839 136.549 67.6356 136.989C62.9658 138.826 58.312 140.7 53.6582 142.58C53.2029 130.725 52.9117 118.866 52.5675 107.011C48.0302 120.888 43.461 134.76 38.9395 148.642C32.2842 151.564 25.5708 154.339 18.8945 157.203C28.5147 127.585 38.2672 98.0108 47.9185 68.3991C58.2693 65.0847 68.6359 61.818 79.0193 58.5885C79.2893 69.7547 79.5964 80.9209 80.0306 92.0756C88.3324 78.384 96.8142 64.7983 105.169 51.1326C105.523 50.4231 106.12 49.9044 106.92 49.7508ZM107.276 52.0537C97.465 67.9146 87.7868 83.8607 77.8969 99.6655C77.5957 86.9947 77.1991 74.3197 76.7754 61.6509C67.7535 64.4887 58.7317 67.3213 49.7203 70.1857C40.6772 97.8389 31.6184 125.486 22.5862 153.145C27.4361 151.165 32.2276 149.032 37.0772 147.046C42.8536 129.405 48.6405 111.763 54.4008 94.1176C54.9197 109.17 55.3221 124.228 55.7668 139.285C59.5313 137.797 63.285 136.293 67.0335 134.779C67.7271 134.477 68.5266 134.218 68.8654 133.466C79.5922 116.042 90.2985 98.5959 101.036 81.1774C96.0167 96.5951 90.9604 112.002 85.9041 127.408C93.7189 124.448 101.571 121.568 109.375 118.577C117.549 93.5965 125.74 68.6224 133.888 43.6337C125.019 46.461 116.13 49.1931 107.277 52.0572M137.879 76.3917C131.452 78.3771 125.946 82.9198 122.541 88.6908C120.275 92.2804 119.121 96.3996 117.824 100.402C113.832 112.669 109.834 124.936 105.853 137.204C105.006 140.052 104.291 143.129 105.075 146.077C105.583 148.095 107.293 149.725 109.342 150.112C112.069 150.604 114.822 149.985 117.432 149.222C129.556 145.903 141.685 142.61 153.81 139.301C155.34 134.419 157.008 129.574 158.538 124.688C148.462 127.43 138.382 130.178 128.311 132.926C133.119 118.329 137.783 103.68 142.628 89.0919C142.898 87.9271 144.142 87.6306 145.116 87.3023C154.63 84.332 164.134 81.309 173.644 78.3229C175.275 73.4254 176.842 68.5122 178.462 63.6094C164.924 67.8292 151.406 72.1296 137.879 76.3917Z" fill="white"/>
<path d="M130.361 47.0977C123.129 49.4485 115.85 51.6548 108.622 54.0162C114.674 53.4974 120.668 52.3114 126.571 50.8976C119.297 73.2412 111.951 95.5615 104.66 117.898C105.597 117.56 106.539 117.233 107.486 116.899C115.191 93.6615 122.747 70.3717 130.361 47.0977ZM74.6718 64.721C66.8994 67.0823 59.174 69.5919 51.4177 72.0062C58.4488 71.1379 65.3266 69.2866 72.2842 67.9628C72.729 81.1409 73.0467 94.3272 73.3908 107.511C74.2221 105.764 76.0083 104.266 75.7013 102.17C75.3359 89.6905 74.9312 77.2053 74.6718 64.721ZM174.935 67.1029C162.943 70.7825 151.02 74.6815 139.029 78.3665C140.199 78.2448 141.369 78.0784 142.518 77.8084C152.079 75.5953 161.666 73.4555 171.133 70.8347C170.445 73.016 169.746 75.193 169.021 77.3638C169.963 77.0726 170.912 76.7865 171.86 76.5006C172.882 73.3662 173.903 70.2318 174.935 67.1029ZM100.117 73.7066C87.7759 93.6925 75.4942 113.722 63.279 133.782C64.6609 133.115 66.5837 133.008 67.3938 131.521C77.1411 115.669 86.8963 99.8245 96.6392 83.9674C98.164 80.6954 98.9736 77.1322 100.117 73.7066ZM140.34 88.5203C138.609 89.0868 137.159 90.3661 136.65 92.145C132.023 106.276 127.491 120.437 122.81 134.551C123.721 134.329 124.636 134.106 125.552 133.889C130.582 118.8 135.48 103.663 140.34 88.5203ZM51.2765 88.6112C50.5141 90.4589 49.9212 92.3743 49.3229 94.2803C43.6471 111.721 37.9571 129.155 32.3027 146.6C33.2928 146.161 34.2864 145.721 35.2818 145.293C40.3169 129.864 45.3483 114.431 50.4363 99.0237C51.7123 95.6934 50.8159 92.0686 51.2765 88.6112ZM155.081 127.98C145.831 130.479 136.588 133.02 127.339 135.535C135.371 134.502 143.323 132.913 151.324 131.679C150.652 133.855 149.9 136.015 149.195 138.186C150.101 137.948 151.011 137.715 151.921 137.482C153.091 134.353 154.033 131.151 155.081 127.98Z" fill="#6280A7" stroke="#6280A7" stroke-width="2.08587"/>
<path d="M154.423 23.332C135.813 29.1558 117.219 35.0317 98.624 40.9138C95.6697 45.6947 92.7216 50.4806 89.778 55.2668C89.7886 51.4389 89.5759 47.6104 89.4859 43.7825C72.7498 49.0444 56.0287 54.3512 39.2876 59.5915C26.5225 98.618 13.7308 137.633 0.992188 176.664C31.1082 163.805 61.1444 150.7 91.8419 139.274C91.2383 144.055 91.5193 149.142 93.8701 153.452C96.6761 158.958 102.449 162.648 108.538 163.321C113.965 164.088 119.285 162.444 124.442 160.994C137.668 157.399 150.876 153.759 164.113 150.201C169.01 135.312 173.84 120.4 178.732 105.507C168.635 108.218 158.555 110.985 148.468 113.733C150.067 108.682 151.787 103.676 153.349 98.6143C163.578 95.2894 173.861 92.1181 184.121 88.8726C189.056 73.6614 194.03 58.4642 199.006 43.2633C180.009 49.2302 161.03 55.2449 142.033 61.2123C146.173 48.5902 150.336 35.9759 154.423 23.332ZM143.29 34.3327C139.102 47.1771 134.892 60.0109 130.682 72.8458C132.599 71.9034 134.575 71.0607 136.624 70.4411C153.694 65.099 170.724 59.6307 187.816 54.352C184.719 63.9509 181.543 73.5222 178.451 83.1255C168.206 86.3604 157.963 89.5849 147.723 92.8251C144.324 103.266 140.924 113.713 137.531 124.159C147.611 121.411 157.686 118.636 167.778 115.92C164.659 125.36 161.636 134.837 158.497 144.271C145.737 147.776 132.962 151.219 120.201 154.714C115.574 156.101 110.396 157.302 105.774 155.269C101.544 153.538 98.88 149.072 98.7742 144.583C98.3983 138.642 100.95 133.123 102.655 127.569C93.8504 130.831 85.105 134.233 76.2892 137.473C77.274 134.244 78.3731 131.057 79.4532 127.864C77.1554 131.359 75.0651 134.987 72.8202 138.518C72.4337 139.233 71.5801 139.412 70.9024 139.735C63.8978 142.467 56.9593 145.342 49.9644 148.101C49.8162 141.71 49.6609 135.324 49.3803 128.939C46.8602 136.447 44.4575 143.996 41.9425 151.509C32.2006 155.665 22.4251 159.755 12.7038 163.953C23.3934 131.074 34.2333 98.2452 44.9183 65.3612C57.4769 61.3849 70.0398 57.4379 82.6039 53.4778C82.8528 62.0708 83.1009 70.6674 83.3762 79.2606C90.1267 68.5286 96.6769 57.6663 103.369 46.8966C116.695 42.7669 129.984 38.5206 143.29 34.3327ZM133.885 43.6298C125.017 46.4572 116.127 49.1896 107.275 52.054C97.4643 67.911 87.7875 83.8581 77.8967 99.6621C77.5949 86.9923 77.1975 74.3162 76.7739 61.6458C67.7521 64.4836 58.7303 67.3161 49.7201 70.1803C40.677 97.8339 31.6166 125.483 22.5848 153.141C27.4345 151.161 32.2243 149.026 37.074 147.04C42.8503 129.399 48.6391 111.761 54.3999 94.1141C54.9188 109.166 55.3214 124.225 55.7661 139.283C59.5305 137.795 63.2845 136.29 67.033 134.776C67.7265 134.474 68.5243 134.213 68.8632 133.461C79.5899 116.037 90.298 98.5919 101.034 81.1729C96.0153 96.5905 90.9589 111.998 85.9027 127.405C93.7175 124.446 101.567 121.567 109.371 118.575C117.546 93.5966 125.737 68.6185 133.885 43.6298ZM130.361 47.0988C122.748 70.3728 115.19 93.6635 107.486 116.901C106.538 117.234 105.597 117.562 104.659 117.9C111.95 95.5635 119.295 73.2415 126.571 50.8996C120.668 52.3132 114.674 53.4993 108.622 54.0182C115.849 51.6569 123.129 49.4497 130.361 47.0988ZM178.459 63.6065C164.921 67.8261 151.407 72.1235 137.879 76.3856C131.452 78.371 125.944 82.9134 122.54 88.6843C120.274 92.274 119.119 96.3931 117.822 100.396C113.83 112.663 109.832 124.931 105.85 137.198C105.003 140.046 104.288 143.124 105.072 146.073C105.58 148.09 107.293 149.72 109.342 150.106C112.069 150.599 114.822 149.98 117.432 149.217C129.557 145.898 141.685 142.603 153.81 139.294C155.34 134.412 157.008 129.568 158.538 124.681C148.463 127.424 138.381 130.173 128.311 132.92C133.118 118.324 137.784 103.672 142.628 89.0857C142.898 87.9209 144.143 87.6259 145.117 87.2976C154.631 84.3273 164.136 81.3046 173.645 78.3184C175.275 73.4211 176.839 68.5092 178.459 63.6065ZM74.6716 64.7228C74.931 77.2073 75.335 89.6915 75.7003 102.171C76.0074 104.267 74.2211 105.765 73.3899 107.512C73.0457 94.3288 72.728 81.1429 72.2833 67.964C65.3263 69.2876 58.4485 71.1391 51.4168 72.0074C59.1732 69.5931 66.8994 67.0842 74.6716 64.7228ZM174.935 67.1047C173.903 70.2337 172.881 73.3681 171.859 76.5023C170.911 76.7882 169.962 77.0743 169.019 77.3655C169.745 75.1948 170.444 73.0178 171.132 70.8364C161.665 73.4572 152.078 75.597 142.516 77.8101C141.367 78.0802 140.198 78.2465 139.028 78.3683C151.02 74.6833 162.944 70.7844 174.935 67.1047ZM100.117 73.7084C98.9736 77.1339 98.1633 80.6972 96.6384 83.9694C86.8965 99.8264 77.1409 115.67 67.393 131.523C66.583 133.01 64.66 133.117 63.2782 133.784C75.4926 113.724 87.7757 93.6943 100.117 73.7084ZM140.34 88.5221C135.48 103.664 130.582 118.803 125.552 133.892C124.636 134.109 123.721 134.332 122.81 134.554C127.49 120.439 132.023 106.279 136.65 92.1482C137.159 90.3693 138.609 89.0885 140.34 88.5221ZM51.2763 88.613C50.8157 92.0704 51.7118 95.6962 50.4359 99.0265C45.3479 114.434 40.3164 129.867 35.2813 145.295C34.286 145.724 33.2924 146.164 32.3023 146.603C37.9568 129.158 43.6471 111.722 49.3225 94.2832C49.9208 92.3771 50.5139 90.4607 51.2763 88.613ZM155.081 127.982C154.032 131.153 153.09 134.354 151.92 137.483C151.009 137.716 150.099 137.949 149.194 138.188C149.898 136.017 150.65 133.857 151.323 131.681C143.323 132.915 135.37 134.504 127.338 135.536C136.587 133.022 145.831 130.481 155.081 127.982Z" fill="#003768"/>
</svg>
