<svg width="200" height="200" viewBox="0 0 200 200" fill="none" xmlns="http://www.w3.org/2000/svg">
<path d="M177.938 33.6491C171.909 30.8576 170.776 29.6743 170.776 26.187C170.776 18.8998 164.347 14.0001 158.36 14.0001C146.673 14.0001 138.852 18.9998 133.686 22.3122C132.724 22.9371 131.674 23.6038 130.803 24.0996C128.545 23.0621 125.424 22.1247 121.562 22.1247C111.916 22.1247 106.396 25.5037 102.742 27.7369C101.8 28.3119 100.379 29.1868 99.996 29.1868C99.6294 29.1868 98.2045 28.3119 97.267 27.7369C93.6088 25.5037 88.0966 22.1247 78.4388 22.1247C74.5723 22.1247 71.4558 23.0621 69.1976 24.0996C68.3184 23.6038 67.2768 22.9371 66.3102 22.3122C61.1396 18.9998 53.3358 14.0001 41.6447 14.0001C35.6492 14.0001 29.2328 18.8998 29.2328 26.187C29.2328 29.6743 28.0912 30.8576 22.0624 33.6491C18.0042 35.524 11.2129 38.6739 11.2129 46.4068C11.2129 51.8941 13.5669 55.5522 15.446 58.4896C17.8876 62.281 20.6583 66.5933 20.6583 79.3594V82.9384L23.229 85.4216C23.3831 85.5632 23.7039 85.8632 24.1789 86.234C22.4165 91.6046 19.1125 103.783 22.004 112.67L22.3457 113.737L22.9623 114.674C25.5914 118.695 28.1287 126.515 29.9828 132.236C31.6577 137.402 32.6327 140.323 33.9118 142.348C32.0535 149.477 33.6326 155.631 38.8532 161.651C52.8484 177.813 65.0061 186 74.9806 186C78.1679 186 81.1303 185.025 83.5718 183.2C85.2634 183.942 86.8925 184.317 88.4424 184.317C90.9048 184.317 92.9672 183.592 94.463 182.85C96.2046 183.354 98.0628 183.608 99.996 183.608C101.938 183.608 103.796 183.354 105.546 182.85C107.029 183.592 109.096 184.317 111.558 184.317C113.12 184.317 114.749 183.942 116.424 183.2C118.866 185.025 121.845 186 125.02 186C134.978 186 147.127 177.813 161.151 161.651C166.368 155.631 167.947 149.477 166.089 142.348C167.376 140.323 168.343 137.402 170.022 132.253C171.859 126.528 174.405 118.703 177.042 114.683L177.655 113.737L178.005 112.67C180.892 103.783 177.588 91.6088 175.805 86.234C176.288 85.8632 176.621 85.5632 176.759 85.4299L179.338 82.9384V79.3594C179.338 66.5933 182.121 62.281 184.554 58.4896C186.442 55.5522 188.788 51.8941 188.788 46.4068C188.788 38.6739 181.992 35.524 177.938 33.6491Z" fill="#7B7979"/>
<path d="M177.009 35.6403C171.15 32.9238 168.571 31.2072 168.571 26.1824C168.571 20.2036 163.28 16.1954 158.355 16.1954C147.314 16.1954 140.119 20.7952 134.873 24.1617C133.44 25.0825 131.965 26.0283 130.836 26.5574C128.769 25.47 125.636 24.32 121.557 24.32C112.533 24.32 107.533 27.3782 103.883 29.6114C101.825 30.8655 100.9 31.3822 99.9956 31.3822C99.0957 31.3822 98.1707 30.8655 96.1125 29.6114C92.4627 27.3782 87.4713 24.32 78.4384 24.32C74.3636 24.32 71.2304 25.47 69.1638 26.5574C68.0389 26.0283 66.5598 25.0825 65.1223 24.1617C59.8768 20.7952 52.6896 16.1954 41.6443 16.1954C36.7112 16.1954 31.424 20.2036 31.424 26.1824C31.424 31.2072 28.8491 32.9238 22.9827 35.6403C18.9413 37.5111 13.4082 40.0776 13.4082 46.4023C13.4082 51.2437 15.4706 54.4602 17.2955 57.2893C19.7704 61.1516 22.8536 65.9472 22.8536 79.3548V81.9964L24.7576 83.838C24.9868 84.0546 25.6951 84.6963 26.7909 85.3921C25.5826 88.8085 21.0578 102.687 24.0868 111.995L24.341 112.774L24.7993 113.474C27.5825 117.732 30.174 125.723 32.0656 131.556C33.9447 137.344 34.8946 140.144 36.3071 141.931L36.2113 142.264C34.2905 148.906 35.6613 154.618 40.511 160.218C49.8439 170.984 63.3849 183.816 74.9802 183.816C78.855 183.816 81.534 182.221 83.2589 180.6C85.1047 181.604 86.8421 182.108 88.4379 182.108C90.9461 182.108 92.971 181.221 94.2292 180.462C96.0167 181.1 97.9541 181.408 99.9956 181.408C102.05 181.408 103.983 181.1 105.766 180.462C107.024 181.221 109.045 182.108 111.558 182.108C113.153 182.108 114.895 181.604 116.749 180.6C118.457 182.221 121.145 183.816 125.015 183.816C136.598 183.816 150.156 170.984 159.489 160.218C164.347 154.61 165.705 148.906 163.784 142.264L163.688 141.931C165.113 140.148 166.047 137.344 167.926 131.573C169.805 125.732 172.405 117.74 175.192 113.474L175.659 112.774L175.909 111.987C178.938 102.695 174.421 88.8169 173.2 85.3921C174.309 84.6963 175.013 84.0546 175.234 83.838L177.154 82.0047V79.3548C177.154 65.9388 180.229 61.1516 182.704 57.2893C184.529 54.4602 186.596 51.2437 186.596 46.4023C186.596 40.0693 181.054 37.5111 177.009 35.6403Z" fill="white"/>
<path d="M176.4 36.9709C170.622 34.3002 167.109 32.2337 167.109 26.1881C167.109 21.0884 162.593 17.6635 158.36 17.6635C147.748 17.6635 140.756 22.13 135.665 25.4007C133.823 26.5798 132.057 27.7047 130.74 28.1922C128.861 27.0797 125.745 25.7881 121.561 25.7881C112.945 25.7881 108.154 28.7213 104.65 30.8587C102.521 32.167 101.346 32.8503 99.9958 32.8503C98.6626 32.8503 97.4835 32.167 95.3544 30.8587C91.8504 28.7213 87.0631 25.7881 78.4386 25.7881C74.2638 25.7881 71.1514 27.0797 69.2598 28.1922C67.9349 27.7047 66.1767 26.5798 64.3392 25.4007C59.2478 22.13 52.2648 17.6635 41.6445 17.6635C37.4239 17.6635 32.895 21.0884 32.895 26.1881C32.895 32.2337 29.3868 34.3002 23.6037 36.9709C19.7164 38.7709 14.875 41.0166 14.875 46.408C14.875 50.8203 16.7332 53.7118 18.529 56.5075C21.1122 60.5239 24.3204 65.5237 24.3204 79.3605V81.3812L25.7786 82.7812C25.9703 82.9645 26.9786 83.9061 28.591 84.7394L28.3952 85.2894C27.766 86.9685 22.358 101.951 25.4828 111.542L25.6786 112.142L26.0286 112.671C28.9243 117.092 31.545 125.187 33.4658 131.104C35.5657 137.566 36.4281 140.074 37.9447 141.562L37.6197 142.678C35.8323 148.878 37.0656 153.994 41.6279 159.261C50.7524 169.789 63.9393 182.355 74.9804 182.355C78.726 182.355 81.3509 180.647 83.0092 178.76C85.3132 180.206 87.1173 180.647 88.4422 180.647C91.0171 180.647 93.0087 179.572 94.0545 178.839C95.7502 179.539 97.7126 179.947 99.9958 179.947C102.296 179.947 104.254 179.539 105.946 178.839C106.987 179.572 108.987 180.647 111.558 180.647C112.895 180.647 114.699 180.206 116.995 178.76C118.657 180.647 121.282 182.355 125.02 182.355C136.036 182.355 149.252 169.789 158.376 159.261C162.947 153.994 164.176 148.87 162.38 142.678L162.064 141.57C163.576 140.074 164.447 137.583 166.538 131.12C168.442 125.204 171.08 117.1 173.976 112.671L174.326 112.142L174.513 111.542C177.638 101.951 172.226 86.9643 171.609 85.2894L171.405 84.7436C173.021 83.9061 174.042 82.9728 174.221 82.7895L175.684 81.3812V79.3605C175.684 65.5237 178.892 60.5239 181.471 56.5075C183.275 53.7118 185.133 50.8203 185.133 46.408C185.133 41.0166 180.292 38.7709 176.4 36.9709Z" fill="#13294B"/>
<path d="M41.6465 22.4219C39.8632 22.4219 37.65 23.8518 37.65 26.1917C37.65 41.6909 19.6309 40.311 19.6309 46.4107C19.6309 54.6036 29.0837 55.2403 29.0837 79.3657C29.0837 79.3657 31.1403 81.359 34.0435 81.359C39.7399 81.359 46.7829 75.136 46.7829 57.1802C46.7829 52.2337 38.6399 50.2238 38.6399 42.5509C38.6399 34.9413 47.5528 32.7014 47.5528 32.7014C47.5528 32.7014 44.7463 41.8443 59.5189 49.8539L59.2456 50.4005C59.2456 50.4005 53.0326 48.7273 49.4094 52.7504C49.4094 52.7504 54.0225 81.299 32.8469 86.9554C32.8469 86.9554 27.3105 101.781 30.0137 110.068C35.5601 118.547 39.4799 136.776 41.3665 138.263L47.2728 116.187C47.2728 116.187 49.1627 111.418 59.8956 104.828L63.4487 95.3683C65.7753 90.4019 74.2982 97.3982 82.4645 89.8319C82.4645 89.8319 81.8711 84.4622 95.5771 83.8455L93.6039 81.9823C91.3474 81.9823 83.3311 80.9457 83.3311 80.9457C83.3311 80.9457 82.5611 91.3185 72.045 91.3185C65.1953 91.3185 60.9888 85.6554 60.9888 80.0757C60.9888 73.0361 66.2886 70.1862 66.2886 70.1862C66.2886 70.1862 63.5787 68.4096 59.7256 67.8363C59.7256 67.8363 54.0525 69.7629 49.4094 80.9457L48.8528 80.6724C50.3194 71.0728 52.3593 62.9732 56.6224 61.6566C56.6224 61.6566 62.7388 61.8266 69.8417 62.9732C71.2683 63.1865 71.5217 65.5564 71.5217 65.5564C71.5217 65.5564 77.538 74.1993 94.1205 78.2325C97.1437 79.0458 97.757 83.9555 97.757 83.9555H102.243C102.243 83.9555 102.847 79.0458 105.883 78.2325C122.466 74.1993 128.472 65.5564 128.472 65.5564C128.472 65.5564 128.729 63.1865 130.172 62.9732C137.268 61.8266 143.381 61.6566 143.381 61.6566C147.651 62.9732 149.664 71.0728 151.148 80.6724L150.601 80.9457C145.948 69.7629 140.268 67.8363 140.268 67.8363C136.418 68.4096 133.709 70.1862 133.709 70.1862C133.709 70.1862 139.005 73.0361 139.005 80.0757C139.005 85.6554 134.809 91.3185 127.952 91.3185C117.443 91.3185 116.663 80.9457 116.663 80.9457C116.663 80.9457 108.653 81.9823 106.39 81.9823L104.417 83.8455C118.126 84.4622 117.536 89.8319 117.536 89.8319C125.702 97.3982 134.222 90.4019 136.558 95.3683L140.098 104.828C150.841 111.418 152.731 116.187 152.731 116.187L158.627 138.263C160.524 136.776 164.444 118.547 169.993 110.068C172.69 101.781 167.15 86.9554 167.15 86.9554C145.975 81.299 150.601 52.7504 150.601 52.7504C146.965 48.7273 140.758 50.4005 140.758 50.4005L140.485 49.8539C155.244 41.8443 152.458 32.7014 152.458 32.7014C152.458 32.7014 161.361 34.9413 161.361 42.5509C161.361 50.2238 153.218 52.2337 153.218 57.1802C153.218 75.136 160.261 81.359 165.944 81.359C168.85 81.359 170.913 79.3657 170.913 79.3657C170.913 55.2403 180.373 54.6036 180.373 46.4107C180.373 40.311 162.344 41.6909 162.344 26.1917C162.344 23.8518 160.147 22.4219 158.354 22.4219C143.001 22.4219 136.422 33.1947 129.625 33.1947C129.625 33.1947 126.776 30.5448 121.559 30.5448C109.03 30.5448 106.55 37.6111 99.9969 37.6111C93.4572 37.6111 90.9774 30.5448 78.4346 30.5448C73.2182 30.5448 70.3817 33.1947 70.3817 33.1947C63.5887 33.1947 57.0057 22.4219 41.6465 22.4219ZM70.8783 54.7236C77.5747 58.5668 81.4345 56.1636 84.0944 56.1636C86.8842 56.1636 88.0608 67.0164 89.4008 67.0164C89.4008 67.0164 93.1873 66.4864 97.4637 67.5363C97.7537 67.5963 97.4037 68.0663 97.1071 68.103C92.384 68.7196 87.9275 71.1095 87.9275 71.1095C84.311 72.1894 85.481 65.3998 82.0311 60.46C79.8846 58.5901 73.0316 59.5701 70.8783 54.7236ZM129.119 54.7236C126.969 59.5701 120.123 58.5901 117.973 60.46C114.523 65.3998 115.693 72.1894 112.08 71.1095C112.08 71.1095 107.62 68.7196 102.893 68.103C102.6 68.0663 102.253 67.5963 102.537 67.5363C106.817 66.4864 110.596 67.0164 110.596 67.0164C111.933 67.0164 113.12 56.1636 115.903 56.1636C118.563 56.1636 122.426 58.5668 129.119 54.7236ZM69.5751 72.7327C69.0551 72.6994 68.6985 72.8027 68.6985 72.8027C68.6985 72.8027 64.102 74.6293 64.102 79.7224C64.102 83.5122 66.9552 88.0187 71.925 88.0187C78.5313 88.0187 80.0512 82.5423 80.0512 80.1257L79.5113 79.5791C79.5113 83.2422 77.3447 85.3788 75.1215 86.2854C74.9482 86.3554 74.7148 86.0721 74.8615 85.9454C75.4648 85.5054 75.8714 84.7788 75.8714 83.9689C75.8714 82.6056 74.7615 81.4956 73.4049 81.4956C72.0316 81.4956 70.9317 82.6056 70.9317 83.9689C70.9317 85.1721 71.7916 86.1721 72.9282 86.3954C73.1082 86.4321 73.0782 86.8054 72.9282 86.8054C72.8149 86.8154 72.6983 86.8254 72.5783 86.8254C69.8884 86.8254 65.8053 84.9621 65.8053 80.269C65.8053 74.6626 71.4317 73.4927 71.4317 73.4927C70.7784 72.9361 70.0984 72.7661 69.5751 72.7327ZM130.425 72.7327C129.902 72.7661 129.215 72.9427 128.559 73.4994C128.559 73.4994 134.195 74.6626 134.195 80.269C134.195 84.9621 130.115 86.8254 127.412 86.8254C127.309 86.8254 127.192 86.8154 127.066 86.8054C126.929 86.8054 126.889 86.4321 127.066 86.3887C128.209 86.1688 129.065 85.1721 129.065 83.9689C129.065 82.6056 127.962 81.4956 126.606 81.4956C125.246 81.4956 124.126 82.6056 124.126 83.9689C124.126 84.7855 124.532 85.5121 125.139 85.9521C125.282 86.0754 125.059 86.3554 124.879 86.2854C122.659 85.3721 120.479 83.2422 120.479 79.5791L119.939 80.1257C119.939 82.5489 121.479 88.0187 128.089 88.0187C133.059 88.0187 135.902 83.5122 135.902 79.7224C135.902 74.6293 131.312 72.8027 131.312 72.8027C131.312 72.8027 130.949 72.6994 130.425 72.7327ZM82.0245 93.5117C75.3981 97.7415 69.3484 97.4515 69.3484 97.4515C65.7353 106.924 59.7322 117.391 59.7322 117.391C59.7322 117.391 61.2022 125.687 65.9353 132.593L65.4086 133.023C65.4086 133.023 53.7492 121.544 55.5791 112.911C55.5791 112.911 50.5593 115.371 49.3894 119.097L42.1931 143.996C40.9198 148.392 41.5731 151.939 45.2229 156.145C48.8628 160.355 64.0254 177.591 74.9781 177.591C79.1879 177.591 80.5012 173.878 80.5012 173.878C80.5012 173.878 65.6553 158.975 65.6553 152.292C65.6553 144.173 68.8651 140.099 68.8651 137.716C68.8651 136.023 67.1919 134.64 67.1919 131.883C67.1919 129.107 67.8885 123.787 75.0848 119.254C74.4248 111.328 84.2577 103.041 87.6875 105.164C87.6875 105.164 86.5443 108.868 88.9308 112.247C93.1539 112.247 102.393 106.494 98.0304 99.5781C95.5805 98.8715 94.5272 95.6816 93.4339 93.8884C93.4339 93.8884 90.914 95.7583 88.3642 95.7583C88.3642 95.7583 89.3741 97.9582 91.2874 97.9582C93.1939 97.9582 94.8205 99.5548 89.0341 99.5548C81.9345 99.5548 81.8745 96.4416 82.0245 93.5117ZM117.973 93.5117C118.109 96.4416 118.073 99.5548 110.973 99.5548C105.177 99.5548 106.803 97.9582 108.703 97.9582C110.626 97.9582 111.643 95.7583 111.643 95.7583C109.086 95.7583 106.56 93.8884 106.56 93.8884C105.473 95.6783 104.417 98.8715 101.97 99.5781C97.617 106.494 106.843 112.241 111.073 112.241C113.463 108.868 112.326 105.164 112.326 105.164C115.743 103.045 125.579 111.328 124.912 119.254C132.125 123.787 132.809 129.107 132.809 131.883C132.809 134.64 131.129 136.02 131.129 137.716C131.129 140.099 134.339 144.173 134.339 152.292C134.339 158.972 119.509 173.878 119.509 173.878C119.509 173.878 120.819 177.591 125.016 177.591C135.968 177.591 151.134 160.355 154.781 156.152C158.434 151.942 159.084 148.389 157.801 143.996L150.621 119.097C149.448 115.367 144.415 112.911 144.415 112.911C146.245 121.544 134.585 133.023 134.585 133.023L134.072 132.586C138.802 125.687 140.268 117.391 140.268 117.391C140.268 117.391 134.272 106.924 130.659 97.4515C130.659 97.4515 124.596 97.7415 117.973 93.5117ZM84.921 108.608C84.921 108.608 78.618 111.824 78.618 117.911C78.618 122.674 80.3312 124.794 83.3511 124.794C85.6943 124.794 88.1175 122.7 88.1175 120.527C88.1175 116.704 83.7744 115.371 84.921 108.608ZM115.09 108.608C116.209 115.371 111.886 116.704 111.886 120.527C111.886 122.7 114.306 124.794 116.643 124.794C119.683 124.794 121.383 122.67 121.383 117.911C121.383 111.824 115.09 108.608 115.09 108.608ZM97.2437 117.937C96.6538 117.937 95.5505 121.224 95.0238 121.224C94.0839 120.757 92.7406 118.73 92.1973 118.73C91.6073 118.73 90.0508 123.394 90.0508 123.394C90.0508 123.394 93.7739 122.58 99.9969 122.58C106.23 122.58 109.953 123.394 109.953 123.394C109.953 123.394 108.397 118.73 107.797 118.73C107.263 118.73 105.92 120.757 104.97 121.224C104.45 121.224 103.34 117.937 102.75 117.937C102.163 117.937 100.814 120.69 99.9969 120.69C99.1836 120.69 97.827 117.937 97.2437 117.937ZM76.1048 122.937C76.1048 122.937 71.7583 126.817 71.7583 130.243C71.7583 133.67 75.0382 136.843 80.6045 136.843C87.3276 136.843 91.1007 129.153 99.9969 129.153C108.91 129.153 112.686 136.843 119.399 136.843C124.966 136.843 128.239 133.67 128.239 130.243C128.239 126.817 123.876 122.937 123.876 122.937C123.876 122.937 122.829 127.513 117.093 127.513C111.836 127.513 106.76 123.887 99.9969 123.887C93.2473 123.887 88.1575 127.513 82.9078 127.513C77.1747 127.513 76.1048 122.937 76.1048 122.937ZM99.9903 130.613C92.624 130.613 85.571 143.729 73.7682 140.613C73.7682 140.613 70.2717 146.586 70.2717 152.369C70.2717 159.762 83.6177 175.898 88.4408 175.898C90.3007 175.898 91.6373 174.711 91.6373 174.711C91.6373 174.711 87.0509 168.138 86.3909 164.602L86.8876 164.322C89.6308 167.531 91.754 175.201 99.9903 175.201C108.247 175.201 110.366 167.531 113.123 164.322L113.59 164.602C112.94 168.138 108.363 174.711 108.363 174.711C108.363 174.711 109.7 175.898 111.56 175.898C116.383 175.898 129.722 159.762 129.722 152.369C129.722 146.586 126.239 140.613 126.239 140.613C114.423 143.729 107.37 130.613 99.9903 130.613Z" fill="white"/>
<path d="M23.9531 50.4062C24.2198 51.0162 24.5731 51.6829 24.9931 52.3528C27.8763 56.8026 31.7561 62.869 31.9994 77.8482C32.5327 78.1449 33.256 78.4215 34.056 78.4215C36.6225 78.4215 40.439 76.195 42.4722 68.9953C42.6389 67.9687 42.7722 66.9954 42.8655 66.0788C41.6489 71.4619 38.8724 73.4385 36.8358 73.6551C36.1525 73.7351 35.5159 73.5618 35.0392 73.3685C34.1993 66.6688 32.716 62.1857 31.0861 58.9225C28.5962 54.8994 26.1597 52.3195 23.9531 50.4062ZM176.049 50.4062C173.826 52.3195 171.406 54.8994 168.906 58.9225C167.293 62.1857 165.809 66.6688 164.956 73.3685C164.476 73.5618 163.84 73.7351 163.156 73.6551C161.123 73.4385 158.343 71.4619 157.13 66.0788C157.227 66.9954 157.357 67.9687 157.527 68.9953C159.56 76.195 163.383 78.4215 165.943 78.4215C166.739 78.4215 167.466 78.1449 167.989 77.8482C168.249 62.869 172.123 56.8026 175.006 52.3528C175.436 51.6829 175.786 51.0162 176.049 50.4062ZM35.1559 89.3377C33.6193 93.9408 31.1694 103.374 32.7194 108.823C35.2192 112.777 37.3158 118.3 39.099 123.556C39.709 125.339 40.2757 127.092 40.8123 128.742C40.8323 128.802 40.849 128.862 40.8723 128.912L44.4655 115.423L44.5188 115.26L44.5821 115.11C44.7188 114.743 45.6721 112.58 49.0286 109.363C41.3256 113.383 41.5689 116.493 40.8056 117.86C39.519 114.53 37.0391 109.167 36.0392 107.39C34.6726 105.007 35.1559 89.3377 35.1559 89.3377ZM164.876 89.3377C164.876 89.3377 165.363 105.007 163.996 107.39C162.98 109.167 160.523 114.53 159.233 117.86C158.473 116.493 158.707 113.383 150.99 109.363C154.353 112.58 155.293 114.743 155.457 115.11L155.51 115.26L155.56 115.423L159.16 128.912C159.176 128.862 159.196 128.802 159.213 128.742C159.753 127.092 160.326 125.339 160.93 123.556C162.71 118.3 164.803 112.777 167.313 108.823C168.866 103.374 166.406 93.9408 164.876 89.3377ZM49.7385 125.783L44.3021 144.615C43.1788 148.498 43.8721 151.238 46.882 154.704C55.0483 164.131 62.6212 170.664 68.6376 173.617C64.1578 169.35 59.1881 163.827 53.8917 157.168C50.1418 152.445 48.8352 148.471 49.0819 142.505L49.7385 125.783ZM150.247 125.783L150.92 142.505C151.16 148.471 149.86 152.445 146.107 157.168C140.804 163.827 135.838 169.35 131.361 173.617C137.371 170.664 144.957 164.131 153.12 154.704C156.13 151.238 156.827 148.498 155.697 144.615L150.247 125.783ZM72.974 153.691C72.974 156.841 75.4106 161.594 78.5738 166.001C82.3303 170.584 85.8901 173.417 87.4967 173.74C86.1967 172.274 84.8635 170.764 82.6536 167.974C81.447 166.454 79.917 164.317 79.2937 163.461C78.6771 162.601 74.0973 155.984 72.974 153.691ZM127.015 153.691C125.898 155.984 121.322 162.601 120.705 163.461C120.082 164.317 118.562 166.454 117.339 167.974C115.129 170.764 113.805 172.274 112.502 173.74C114.115 173.417 117.662 170.584 121.422 166.001C124.578 161.594 127.015 156.841 127.015 153.691ZM92.3198 167.271C94.333 170.344 96.2796 172.277 100.003 172.277C103.723 172.277 105.662 170.344 107.679 167.271C107.679 167.271 105.152 169.25 100.076 169.25C94.9963 169.25 92.3198 167.271 92.3198 167.271Z" fill="#C8C7C7"/>
</svg>
