<svg width="200" height="200" viewBox="0 0 200 200" fill="none" xmlns="http://www.w3.org/2000/svg">
<path d="M100.001 6.26515L6.25977 99.998L100.001 193.738L193.741 99.998L100.009 6.26515H100.008H100.001Z" fill="#BF0C26"/>
<path d="M171.291 54.9626L172.667 51.0709L168.544 50.8733C161.776 50.5499 154.667 49.2234 146.812 46.8182C144.793 46.1996 142.845 45.4401 140.784 44.6364C138.37 43.6969 135.876 42.7239 133.186 41.9619C131.893 41.5968 130.639 41.26 129.418 40.9473C125.497 39.8085 120.999 38.7855 115.744 38.1111C110.086 37.2315 106.702 37.1006 106.456 37.0923C104.782 37.0498 103.172 37.0289 101.646 37.0289C94.7837 37.0289 88.7444 37.4508 83.1811 38.3187C77.1068 39.2666 70.9541 40.914 64.3712 43.3559C63.4308 43.7043 62.4937 44.0645 61.5575 44.4255C58.2527 45.6969 55.1313 46.8991 51.8691 47.5877C48.1249 48.3772 44.1765 48.965 40.0922 49.3593C29.7343 50.1555 24.8047 48.3647 24.8047 48.3647L27.3216 53.7746C27.3433 53.8255 27.3975 53.9505 27.4792 54.1298C29.0841 58.0215 31.5793 61.9965 35.1117 66.2684C35.732 67.0187 36.3648 67.7332 37.0042 68.4302C39.9622 71.7 43.5963 74.8947 47.9148 77.2633C47.3446 78.4013 46.8393 79.5534 46.3608 80.6722C45.4054 82.9041 44.485 85.3226 43.5604 87.9955C40.7292 95.9398 38.2056 105.245 38.0088 112.349C37.8312 118.747 37.9855 124.125 37.9855 124.125L42.7984 118.183C42.7059 123.372 43.3845 129.656 46.3716 136.633C47.2829 138.821 49.348 142.383 50.1191 143.462C53.4306 148.164 58.2894 152.425 65.4158 154.697L70.1371 156.203L69.3809 151.304C69.0483 149.104 68.6589 142.127 71.1592 139.104C71.7728 138.363 72.5281 137.922 73.4977 137.745C73.8262 139.168 74.3231 140.814 75.1618 142.555C75.2026 142.644 75.2493 142.732 75.2927 142.819C75.3644 142.963 75.4352 143.107 75.5111 143.253C76.5941 145.318 78.1689 147.489 80.5175 149.558L80.575 149.609L80.635 149.658C81.7255 150.53 85.6206 153.482 90.4685 155.205L94.9538 156.646L94.4552 153.775C95.6766 154.43 97.0656 155.06 98.6429 155.633L103.675 157.463L103.067 154.141C104.281 154.516 105.409 154.784 106.222 154.928L110.555 155.576L109.578 150.622C109.591 150.609 109.604 150.598 109.618 150.586C109.92 150.405 110.364 150.192 110.692 150.034C111.193 149.794 111.711 149.547 112.226 149.235C115.743 147.106 118.675 143.963 120.708 140.14C121.217 139.182 121.662 138.187 122.032 137.181C122.236 136.62 122.385 136.075 122.517 135.592C122.638 135.149 122.752 134.728 122.884 134.392C123.021 134.048 123.298 133.64 123.633 133.619C123.661 133.617 123.689 133.617 123.717 133.617C123.809 133.617 123.901 133.625 123.995 133.645C124.117 133.676 124.23 133.716 124.345 133.752C125.676 134.288 127.149 136.348 127.852 138.292C129.993 144.028 128.119 151.228 125.091 155.636L125.116 155.659C122.513 159.362 119.5 161.414 119.5 161.414C119.5 161.414 122.421 162.033 129.456 158.94C134.999 156.504 144.621 150.11 148.821 145.661C151.549 142.769 153.8 139.895 155.24 136.847C156.949 133.231 158.089 129.043 158.827 123.667C159.084 121.798 159.23 119.883 159.266 117.936C159.662 118.142 159.979 118.305 160.151 118.395L165.134 120.969L164.617 115.384C163.539 103.746 160.057 93.6396 157.312 87.1859C156.192 84.0979 154.904 81.0658 153.469 78.132C164.675 73.3199 170.997 55.7905 171.291 54.9626Z" fill="white"/>
<path d="M100.743 40.124C95.0476 40.1587 89.3451 40.4982 83.7293 41.3746C77.4873 42.3483 71.4299 44.0624 65.5147 46.256C61.2415 47.8407 57.0543 49.6689 52.5783 50.6133C46.9358 51.8038 41.1266 52.5148 35.3701 52.8343C34.2329 52.8976 31.1669 53.1831 30.2559 52.6455C30.2559 52.6455 30.2639 52.6622 30.2672 52.6715C30.2652 52.6695 30.2592 52.6695 30.2559 52.6675C31.9413 56.8867 34.6745 60.8538 37.5531 64.3353C41.5595 69.1801 46.4776 73.4386 52.2668 75.9931C51.0376 77.8272 50.1232 79.8815 49.2589 81.9024C48.059 84.7036 47.0079 87.5715 46.0415 90.4595C44.0566 96.4021 42.2971 102.538 41.4701 108.761C41.1747 110.988 41.1106 113.223 41.132 115.464V115.484L41.1606 115.444L46.569 112.549C44.8889 117.905 45.1771 145.023 66.4237 151.793C66.4237 151.793 63.8359 135.012 74.2525 134.619C74.8528 134.632 75.4597 134.666 76.1267 134.779C76.6469 137.814 77.5139 142.782 82.6222 147.278C82.8423 147.451 86.7306 150.613 91.5728 152.333C91.5394 152.313 90.8058 146.811 90.8058 146.811C91.5261 148.165 94.2406 150.766 99.7697 152.773L99.0294 148.745C99.5429 149.585 103.298 151.306 106.833 151.926C106.833 151.926 106.086 150.593 106.759 149.279C107.44 147.958 109.387 147.438 110.715 146.631C113.823 144.75 116.37 141.922 118.078 138.721C118.518 137.894 118.905 137.033 119.225 136.146C119.565 135.212 119.738 134.212 120.105 133.285C120.679 131.831 121.906 130.677 123.513 130.577C127.042 130.357 129.77 134.379 130.817 137.273C133.231 143.749 131.284 151.646 127.469 157.195C134.151 153.114 141.135 149.065 146.737 143.503C149.071 141.182 151.126 138.547 152.54 135.559C154.347 131.731 155.287 127.449 155.861 123.274C156.341 119.792 156.401 116.304 156.108 112.809C156.668 113.123 161.637 115.691 161.637 115.691C160.73 105.893 157.909 96.2553 154.534 88.3318C152.953 83.9699 151.106 79.9148 149.091 76.2199C161.11 74.7859 168.473 53.9614 168.473 53.9614C160.776 53.5933 153.34 52.0266 145.99 49.7756C141.408 48.3723 137.186 46.2861 132.424 44.9388C116.884 40.5402 106.426 40.1827 106.426 40.1827C104.538 40.1347 102.638 40.1127 100.743 40.124ZM100.783 43.6249C103.051 43.6442 104.358 43.7416 104.358 43.7416C112.242 44.1278 120.072 45.7618 127.689 47.78C130.777 48.6004 133.851 49.5035 136.893 50.5039C139.934 51.5057 142.909 52.7102 145.95 53.7047C151.392 55.4801 157.148 56.69 162.837 57.2502C161.704 59.4572 158.122 71.179 143.309 73.1785L144.823 76.0331C156.388 97.8227 156.655 110.728 156.655 110.728C155.021 110.115 153.347 109.541 151.652 109.008C152.319 115.617 152.226 122.273 150.279 128.683C146.95 139.661 137.086 146.277 136.539 146.644C136.666 141.002 136.166 135.446 132.804 130.73C131.19 128.456 129.283 126.815 126.575 126.022C125.321 125.655 123.967 125.428 122.653 125.481C122.473 125.528 117.171 125.121 115.55 130.584C115.523 130.644 115.503 130.697 115.483 130.757C114.816 134.245 113.396 137.5 111.101 140.221C111.081 140.235 111.068 140.255 111.048 140.268C108.88 142.716 106.813 143.556 106.813 143.556C100.35 147.131 98.3091 141.875 98.3091 141.875L95.8213 146.111C93.7204 146.237 89.7853 142.576 89.7853 142.576L88.1313 146.584C85.2166 145.577 82.9623 143.223 81.6684 140.468C81.0021 139.274 80.5953 137.927 80.2018 136.626C79.7949 135.279 79.5148 134.145 79.5882 132.725L79.5948 132.731C80.2685 126.995 79.7216 118.038 78.8212 116.017C78.5677 115.297 77.9141 113.59 76.9003 112.342C75.9733 111.055 73.779 109.254 73.6456 109.141C75.6465 109.795 77.7607 110.915 79.0546 112.623C79.995 113.863 80.5419 115.497 81.0288 116.964C81.4817 118.312 81.7885 119.706 81.9819 121.12C82.1953 122.714 82.2754 124.321 82.2954 125.928C82.322 127.923 82.1153 129.823 82.2754 131.938C82.4955 134.826 83.7627 138.741 87.0975 139.281C92.1597 137.573 101.204 139.154 101.204 139.154C105.859 136.806 111.922 134.025 114.643 113.089C114.483 111.342 113.102 109.981 111.475 109.494C114.876 109.141 117.871 107.213 120.325 104.926L120.419 104.859C120.719 104.606 120.999 104.332 121.259 104.045C122.68 102.478 123.787 100.731 124.447 99.5568C124.674 99.1499 125.221 97.9894 125.281 97.816C125.334 97.6359 125.381 97.4692 125.434 97.2958C125.854 95.8351 126.028 94.5546 126.088 93.8009C126.095 93.7742 126.095 93.7476 126.095 93.7209C126.108 93.5075 126.121 93.334 126.128 93.2273C126.161 92.3003 126.101 91.6466 126.081 91.3732C126.068 91.1931 126.041 91.0264 126.021 90.853C125.988 90.5662 125.948 90.286 125.901 90.0259C125.888 89.9392 125.868 89.8592 125.848 89.7792C125.588 88.5253 125.168 87.5048 124.641 86.4177C118.705 87.3181 112.835 88.8121 107.093 90.5395C110.835 92.0668 115.663 95.2616 115.663 99.7969C115.79 103.525 112.088 104.792 109.034 105.233L96.3882 101.364C102.918 96.6622 104.832 90.5795 104.832 90.5795L82.4554 91.1064C82.7489 95.8551 85.977 99.5101 88.6782 101.764L77.6073 106.073C75.8932 106.146 73.799 105.413 72.425 104.379C71.3319 103.559 70.5856 102.378 70.3581 101.024C69.6858 98.4563 71.3266 95.3549 73.2321 93.7009C74.7861 92.3403 76.9003 91.6666 78.9412 91.5866L62.3946 87.5582C62.3826 87.5915 62.372 87.6249 62.36 87.6582C62.0071 88.5653 61.729 89.5057 61.5209 90.4661C61.3068 91.4599 61.1714 92.4737 61.1221 93.4874C61.0707 94.5746 61.1101 95.6551 61.2601 96.7222C61.3802 97.5692 61.5736 98.4029 61.8297 99.21C61.8331 99.2166 61.8351 99.23 61.8371 99.2366C62.1692 100.277 62.6121 101.278 63.183 102.211C63.2283 102.285 63.2797 102.358 63.3264 102.431C63.327 102.431 63.3284 102.438 63.3304 102.438C63.8773 103.292 64.5209 104.092 65.2879 104.806L65.9709 105.206C70.5149 108.04 73.3454 111.462 74.1658 112.789C78.2609 120.179 74.606 128.516 75.0128 130.384C71.5173 129.49 64.9444 129.963 60.5932 144.063C47.0726 132.705 49.8398 111.255 50.3934 108.194C47.955 109.174 46.0708 109.988 45.3198 110.315C49.0261 87.8983 56.43 75.4395 56.43 75.4395C57.0903 74.1256 58.2968 73.1252 59.8342 73.512C61.3622 73.8922 62.548 75.2328 63.3224 76.5333C64.2214 78.0473 65.2019 79.3946 66.5324 80.5751C68.8555 82.636 71.662 83.6965 74.7727 83.4897C76.3734 83.383 81.6618 83.3964 80.5286 87.1647C80.5286 87.1647 94.8809 75.8397 78.7011 70.3566L66.7119 66.6383C64.3241 65.7546 61.9424 64.7148 59.8208 63.2909C58.4976 62.4031 57.1443 61.2966 56.46 59.8193C54.4285 55.4347 60.7626 52.1686 63.7872 50.712C67.9437 49.0446 72.1903 47.4092 76.5402 46.3187C83.5826 44.552 90.9658 43.7976 98.209 43.6582V43.6376C99.1694 43.6196 100.03 43.6182 100.783 43.6249ZM90.7591 52.2507L86.9641 64.9309L71.7521 64.2286C87.7311 67.6354 89.6186 73.7855 89.6186 73.7855L90.7591 52.2507ZM94.294 52.8669L95.6079 74.3924C95.6079 74.3924 96.2815 68.0429 115.79 63.4943L98.3557 64.8762L94.294 52.8669ZM130.51 63.0487L106.94 70.3566C91.4127 76.0198 105.112 87.1647 105.112 87.1647C104.872 85.2171 104.198 83.1096 111.141 83.5097C123.747 84.2434 122.833 71.2697 122.833 71.2697L130.51 63.0487ZM70.2447 73.4853C70.911 73.4787 71.8721 73.4987 73.052 73.5854C72.8586 74.0789 72.7452 74.6125 72.7452 75.1727C72.7452 77.6271 74.7394 79.6214 77.2005 79.6214C79.6482 79.6214 81.6351 77.6472 81.6484 75.2128C82.2153 75.3795 82.7756 75.5662 83.3558 75.773C83.3558 75.773 80.4285 81.2087 74.9862 80.6218C69.5418 80.0349 68.8741 75.106 69.2063 73.5187C69.2063 73.5187 69.5778 73.492 70.2447 73.4853ZM116.15 73.6721C117.431 73.6454 118.191 73.6988 118.191 73.6988C118.525 75.2861 117.851 80.215 112.415 80.7952C106.973 81.3888 104.038 75.9531 104.038 75.9531C105.325 75.4862 106.573 75.1261 107.767 74.8259C107.72 75.0727 107.693 75.3195 107.693 75.5729C107.693 78.034 109.687 80.0149 112.142 80.0149C114.603 80.0149 116.597 78.034 116.597 75.5729C116.597 74.8859 116.43 74.2523 116.15 73.6721ZM92.5665 106.4C97.0152 107.62 101.43 108.948 105.832 110.308C104.552 112.836 104.165 116.004 103.878 118.799C101.644 116.758 101.177 113.189 101.117 111.142L86.4439 111.249C85.6035 114.35 85.4434 118.692 85.4434 118.692C81.9285 114.577 82.8356 110.508 82.8356 110.508L92.5665 106.4ZM101.537 126.622C101.537 126.622 100.97 131.871 103.211 135.459C98.0023 132.971 91.3193 132.958 86.1104 135.459C86.077 135.446 84.7898 131.237 86.4372 126.995L89.4118 131.618C89.4118 131.618 95.6812 131.871 98.5358 131.377C98.5358 131.377 99.0561 128.87 101.537 126.622Z" fill="black"/>
<path d="M162.838 57.25C154.341 60.4221 145.937 62.5163 136.773 62.2369C139.374 65.4896 141.169 69.5921 143.309 73.1783C158.123 71.1788 161.704 59.457 162.838 57.25ZM113.156 73.8786L110.769 74.2455L111.996 78.1405L113.156 73.8786ZM75.9272 74.0454L77.1611 78.3139L78.3149 74.4055L75.9272 74.0454ZM149.099 86.164L124.641 86.4175C125.168 87.5046 125.588 88.5251 125.848 89.7789C125.868 89.859 125.888 89.939 125.902 90.019C125.949 90.2858 125.989 90.566 126.022 90.8527C126.035 90.9461 126.055 91.0328 126.062 91.1262C126.075 91.2062 126.075 91.2863 126.082 91.373C126.082 91.373 126.082 91.3796 126.089 91.3863L149.099 86.164ZM52.1435 86.9777L61.5229 90.4659C61.731 89.5055 62.0091 88.5651 62.3619 87.658C62.374 87.6247 62.3846 87.5913 62.3966 87.558L52.1435 86.9777ZM126.129 93.2271C126.122 93.3338 126.109 93.5072 126.095 93.7207C126.095 93.7473 126.095 93.774 126.089 93.8007C126.029 94.5544 125.855 95.8349 125.435 97.2956C125.382 97.4823 125.335 97.6557 125.282 97.8158L152.207 94.4276L126.129 93.2271ZM99.3635 93.3872C99.3635 93.3872 89.6593 93.7273 86.3511 93.7407C86.3511 93.7407 86.8514 95.7416 87.7651 96.4619C87.7651 96.4619 87.7451 95.9817 88.3987 95.5548C89.059 95.1413 90.2395 95.8883 90.2529 97.2222C90.2595 97.6824 90.0127 98.8096 90.0127 98.8096L92.5005 100.917L94.8882 98.3294C94.8882 98.3294 93.8544 97.5757 93.7944 97.0555C93.7344 96.5352 94.1479 95.7215 94.8215 95.3747C95.882 94.8212 97.0625 95.8416 97.0625 95.8416L99.3635 93.3872ZM61.1227 93.4872L50.0359 93.7807L61.2508 96.7353C61.2548 96.7287 61.2568 96.7287 61.2608 96.722C61.1107 95.6548 61.0714 94.5744 61.1227 93.4872ZM61.8304 99.2097L47.6055 102.124L63.327 102.431C63.2803 102.358 63.229 102.284 63.1836 102.211C62.6127 101.277 62.1699 100.277 61.8377 99.2364C61.8357 99.2298 61.8337 99.2164 61.8304 99.2097ZM124.448 99.5566C123.788 100.73 122.68 102.478 121.26 104.045L154.348 102.238L124.448 99.5566Z" fill="#BF0C26"/>
</svg>
