<svg width="200" height="200" viewBox="0 0 200 200" fill="none" xmlns="http://www.w3.org/2000/svg">
<g clip-path="url(#clip0_154_2414)">
<path d="M199.989 96.3506C199.654 71.038 195.789 57.4412 186.203 47.8604C177.073 38.7289 165.418 36.894 149.571 36.894H0L69.6101 130.721H90.7368V163.105H149.571C165.419 163.105 177.075 161.271 186.203 152.139C195.873 142.468 199.742 128.634 199.999 102.707L199.989 96.3506ZM137.656 77.0091H144.349C147.076 77.0091 148.739 77.0896 149.753 77.1856C150.147 80.2312 150.365 86.6927 150.399 96.4569L150.403 102.701C150.392 106.801 150.363 118.172 149.761 122.816C148.749 122.912 147.083 122.994 144.349 122.994H137.656V77.0091Z" fill="white"/>
<path d="M15.3262 44.6098L33.6433 69.3006H72.7949L89.699 44.6098H15.3262ZM97.4693 44.6098L80.5679 69.3033H109.04L97.5074 75.6696V96.4561H129.952V69.3028H144.357C151.475 69.3028 154.165 69.7761 155.749 71.3606C157.392 73.0016 158.048 77.334 158.118 96.4561H192.283C191.968 71.3249 188.03 60.575 180.759 53.3151C174.12 46.6663 165.573 44.6094 149.591 44.6094H97.4818L97.4693 44.6098ZM90.7412 75.6564L38.3717 75.6832L53.786 96.4574H90.7412V75.6564ZM58.4777 102.723L74.9003 124.926L89.8482 102.723H58.4777ZM97.1629 102.723L81.7665 124.926H109.038L97.5136 130.737L97.5055 155.399H149.577C165.558 155.399 174.109 153.341 180.756 146.691C188.097 139.35 192.038 128.455 192.293 102.724H158.12C158.071 122.69 157.416 126.981 155.749 128.65C154.164 130.232 151.472 130.71 144.353 130.71H129.952V102.724H97.164L97.1629 102.723Z" fill="#D70036"/>
</g>
<defs>
<clipPath id="clip0_154_2414">
<rect width="200" height="200" fill="white"/>
</clipPath>
</defs>
</svg>
