<svg width="200" height="200" viewBox="0 0 200 200" fill="none" xmlns="http://www.w3.org/2000/svg">
<path d="M141.149 132.554C138.748 139.118 134.03 145.428 128.183 150.228L140.459 116.296C140.571 116.442 140.682 116.588 140.787 116.738C143.35 120.402 143.48 126.166 141.149 132.555M172.044 101.228C165.97 92.956 156.839 87.6677 145.824 85.8804C152.135 81.3166 152.675 75.5993 152.714 74.4278C159.162 71.0434 157.38 65.8819 157.014 65.0013C157.547 63.3836 157.811 61.7036 157.804 60.007C157.785 54.9922 155.408 50.3519 151.275 47.2551C150.335 35.6559 140.437 31.5556 137.212 30.5244C135.402 27.6422 132.457 25.7524 131.776 25.3425C130.654 18.0871 128.193 14.4094 124.466 14.4094C121.593 14.4094 118.672 16.6239 116.683 18.5396C114.887 18.0177 112.949 17.7521 110.909 17.7521C110.489 17.7521 110.096 17.7639 109.735 17.782C106.687 15.2719 103.737 13.9995 100.964 13.9995C97.2294 13.9995 94.6049 16.2565 93.0321 18.2054C87.4694 18.2684 84.8268 20.9836 83.3202 23.0302C82.7313 23.8296 81.8523 24.8143 80.7076 25.9598C35.3835 34.9345 27.1435 75.4897 25.9523 83.5327L25.9775 83.5887C25.8537 83.7613 13.7018 101.085 26.8873 138.581C26.1446 139.531 22.6254 144.712 27.5858 152.099C27.4407 152.891 26.5562 157.249 24.0129 159.303C22.3802 160.622 21.4341 162.982 21.6013 165.315C21.7763 167.746 23.0913 169.834 25.3066 171.21C25.3492 172.208 25.9641 176.428 33.4867 177.184C33.8848 177.689 35.5073 179.445 38.8539 179.445C40.5292 179.445 42.3913 178.996 44.3827 178.111C44.5373 178.138 44.8432 178.179 45.2539 178.179C47.6292 178.179 53.3772 176.862 55.8882 164.771C56.9525 165.306 58.459 165.857 60.18 165.857C61.2822 165.857 62.3496 165.629 63.3595 165.18C63.6749 165.305 64.4664 165.568 65.6222 165.568C68.1079 165.568 71.9882 164.379 76.3463 158.721C83.1365 149.904 88.3161 145.069 92.824 141.271L86.506 158.742H80.5767L69.8155 186.004H111.189C140.603 186.004 168.251 165.926 176.932 138.259C181.235 124.531 179.502 111.378 172.044 101.228Z" fill="#003B73"/>
<path d="M105.674 93.4972C93.1634 90.7537 84.1603 95.9877 84.1603 95.9877C91.1279 85.8067 101.113 89.1667 110.863 89.1667C120.617 89.1667 125.361 82.2259 125.361 82.2259C126.475 83.0711 134.925 86.3704 141.531 82.2149C148.133 78.0602 147.465 72.749 147.465 72.749C142.601 69.1477 137.237 70.6582 137.237 70.6582C141.608 65.4211 148.206 69.3787 150.47 69.1169C152.735 68.8552 155.422 64.1833 146.02 64.1833C136.617 64.1833 131.379 67.9785 123.967 75.9899C116.554 83.999 108.368 84.7976 102.391 84.7976C96.4131 84.7976 92.9072 82.4096 92.9072 82.4096C81.4869 85.9178 77.4552 94.0806 77.4552 94.0806C77.7761 84.5153 86.6562 80.1967 89.7466 78.9802C88.963 76.7184 89.492 74.7277 89.492 74.7277C92.3451 79.7457 98.2137 79.9278 98.2137 79.9278C94.1639 68.9908 101.275 66.2481 101.275 66.2481C97.8873 75.8212 103.915 79.8829 107.87 79.8829C111.828 79.8829 117.36 77.9979 123.801 71.1178C130.24 64.237 134.369 62.9787 134.369 62.9787C135.708 59.5493 133.935 55.11 133.935 55.11C140.821 55.9362 141.609 60.9849 141.609 60.9849C145.531 60.3054 150.19 61.4942 150.19 61.4942C150.978 59.3428 150.143 56.183 150.143 56.183C151.381 56.4305 152.956 57.5918 152.956 57.5918C152.9 55.1329 150.873 52.6401 150.873 52.6401C150.115 53.631 148.07 54.3965 148.07 54.3965C141.091 53.6389 138.3 50.3254 138.3 50.3254C141.423 48.55 146.553 49.1263 146.553 49.1263C142.425 46.8526 133.153 46.6556 125.103 53.4852C117.052 60.3164 117.898 68.2923 117.898 68.2923C113.858 61.0598 118.01 55.1959 118.01 55.1959C106.747 51.1169 101.898 59.718 101.898 59.718C102.662 51.3235 109.787 50.107 112.99 49.9848C112.368 48.1401 112.557 46.3733 112.872 45.1395C108.906 43.8616 105.922 44.0981 105.922 44.0981C109.124 40.1381 114.844 41.0053 122.214 44.5758C129.585 48.144 133.236 45.3768 133.499 43.0559C133.763 40.7334 130.245 38.2066 130.245 38.2066C130.245 38.2066 135.936 38.0198 139.127 43.0606C139.698 44.2234 140.927 45.0717 142.207 45.0717C143.785 45.0717 144.835 43.793 144.552 42.2139C144.462 41.7077 144.244 41.2316 143.941 40.8216C140.34 35.7004 134.08 34.8994 134.08 34.8994C126.919 24.8856 115.686 30.7361 115.686 30.7361C116.624 27.4691 120.309 26.4521 120.309 26.4521C116.211 21.7565 108.788 22.9123 108.788 22.9123C100.343 16.6511 99.2244 19.4072 98.0276 20.5732C96.8325 21.74 96.2577 22.7641 92.5012 23.2016C88.7407 23.6399 88.2858 25.1836 87.7189 25.9223C87.1513 26.6626 86.6633 27.469 85.2348 28.6484C83.8071 29.8278 82.4054 31.1389 82.4054 31.1389C79.7675 33.6806 75.1366 37.475 85.8624 36.8372C96.5865 36.201 101.717 24.9297 101.924 24.493C102.132 24.057 102.435 24.1619 102.435 24.1619C102.738 24.1619 102.823 24.5647 102.823 24.5647C102.237 36.8317 90.1921 42.1232 82.1665 42.1232C74.1449 42.1232 73.0545 36.9823 73.0545 36.9823C62.7774 55.9914 75.6672 66.8401 75.6672 66.8401C64.4416 60.4323 64.3927 50.9522 65.1015 46.5192C61.2487 51.4922 58.9908 59.0038 58.9908 59.0038C58.2103 43.3681 70.6666 33.8785 70.6666 33.8785C70.6666 33.8785 54.0974 38.4802 41.4922 57.6501C28.887 76.8201 32.3204 93.7968 32.3204 93.7968C30.3045 91.7573 29.3001 88.0851 29.3001 88.0851C20.4964 108.803 32.6357 139.261 32.6357 139.261C26.8909 144.917 32.9211 150.066 32.9211 150.066C32.9881 159.048 26.8672 163.753 26.8672 163.753C27.3734 169.505 33.2853 166.564 33.659 166.364C34.0311 166.163 34.2148 166.036 34.5727 166.29C34.9314 166.547 34.598 167.033 34.598 167.033C33.2774 169.303 30.69 170.486 30.69 170.486C35.1845 173.867 39.1855 169.072 39.1855 169.072C39.1855 169.072 39.5804 168.546 39.9565 168.757C40.331 168.969 40.1946 169.37 40.1946 169.37C39.9652 171.265 38.2891 173.733 38.2891 173.733C43.5562 174.419 45.5397 169.385 45.5957 169.259C45.6548 169.136 45.7494 168.609 46.2398 168.609C46.7333 168.609 46.757 169.244 46.757 169.244C46.9619 170.168 46.6529 171.986 46.6529 171.986C49.0369 169.84 50.4678 166.044 51.3247 162.004C44.8396 160.806 45.5933 154.652 45.5933 154.652C45.5933 154.652 42.1261 151.218 45.721 145.27C48.135 141.275 51.1222 140.895 52.5097 140.966C52.3055 137.924 51.685 133.871 50.005 129.884C46.671 121.968 46.7585 117.916 46.7585 117.916C47.2883 116.819 48.9801 115.739 48.9801 115.739C42.6164 111.175 44.1782 104.058 44.1782 104.058C44.3217 106.587 48.7752 114.213 56.837 113.085C64.8949 111.959 68.9251 114.154 68.9251 114.154C68.0358 114.154 66.5647 113.494 59.322 116.108C55.9044 117.341 53.6386 117.538 52.1872 117.407C54.6115 120.437 60.1434 124.204 66.4614 122.34C74.6667 119.92 74.7795 126.715 81.9315 124.288C84.2943 123.486 86.2289 122.205 87.7725 120.852L80.0205 115.562C80.0205 115.562 89.2279 102.489 105.676 93.4956" fill="white"/>
<path d="M100.659 19.2033C99.201 19.2683 98.6239 20.2333 98.0302 20.811C96.8364 21.9775 96.2617 23.001 92.5036 23.4392C88.7442 23.8767 88.289 25.4211 87.7225 26.1602C87.1543 26.9005 86.6671 27.7064 85.2392 28.8848C83.8112 30.0656 82.4099 31.3759 82.4099 31.3759C79.7722 33.9178 75.1402 37.7108 85.8659 37.0746C96.5905 36.4384 101.722 25.1663 101.927 24.7293C102.135 24.293 102.438 24.3982 102.438 24.3982C104.222 21.7144 107.508 22.6114 108.575 22.9939C104.456 19.9719 102.117 19.1376 100.658 19.2027L100.659 19.2033ZM124.089 19.2222C123.22 19.1885 122.085 19.7189 120.606 21.1935C120.606 21.1935 122.213 22.5416 123.579 24.1889C123.579 24.1889 124.817 24.0683 126.921 24.5017C126.921 24.5017 126.698 19.3233 124.089 19.2222ZM70.6689 34.117C70.6689 34.117 54.0996 38.7195 41.4954 57.8899C28.8906 77.0596 32.3247 94.0357 32.3247 94.0357C30.309 91.9958 29.3039 88.3234 29.3039 88.3234C20.5004 109.041 32.6399 139.499 32.6399 139.499C26.895 145.154 32.9254 150.305 32.9254 150.305C32.9923 159.287 26.8731 163.992 26.8731 163.992C27.3781 169.744 33.2909 166.802 33.6628 166.602C34.0347 166.401 34.2203 166.276 34.5763 166.53C34.937 166.786 34.6029 167.272 34.6029 167.272C33.2826 169.542 30.6934 170.725 30.6934 170.725C35.1877 174.106 39.1894 169.31 39.1894 169.31C39.1894 169.31 39.585 168.784 39.9599 168.996C40.3347 169.208 40.1975 169.608 40.1975 169.608C39.9699 171.503 38.2925 173.972 38.2925 173.972C43.5601 174.659 45.5427 169.624 45.5988 169.498C45.658 169.374 45.7526 168.847 46.2433 168.847C46.7365 168.847 46.7607 169.483 46.7607 169.483C46.9659 170.408 46.656 172.226 46.656 172.226C49.0401 170.079 50.471 166.284 51.3283 162.242C44.8444 161.044 45.5965 154.892 45.5965 154.892C45.5965 154.892 42.1292 151.457 45.7254 145.508C48.1396 141.512 51.1255 141.133 52.5126 141.204C52.3086 138.162 51.6884 134.109 50.008 130.121C46.6744 122.206 46.7631 118.154 46.7631 118.154C47.2917 117.056 48.9833 115.977 48.9833 115.977C42.6188 111.413 44.1816 104.297 44.1816 104.297C44.3252 106.824 48.7781 114.451 56.8402 113.324C59.2147 112.993 61.2316 112.953 62.9084 113.057C60.8609 108.724 63.4962 104.513 64.6675 102.563C66.1823 100.043 69.2777 98.6577 67.1225 84.489C64.9673 70.3226 75.6699 67.0747 75.6699 67.0747C64.4446 60.6677 64.3961 51.1877 65.1044 46.7555C61.2523 51.7282 58.9942 59.2403 58.9942 59.2403C58.2149 43.6046 70.6689 34.1158 70.6689 34.1158V34.117ZM140.081 47.944C135.649 47.9316 130.139 49.4547 125.109 53.7243C117.058 60.5541 117.904 68.5299 117.904 68.5299C113.865 61.298 118.017 55.4337 118.017 55.4337C106.752 51.3545 101.905 59.9552 101.905 59.9552C102.671 51.5608 109.794 50.344 112.996 50.2234C112.909 49.9644 112.839 49.709 112.783 49.4553C111.705 49.2537 110.57 49.1609 109.388 49.2147C102.449 49.5316 96.5053 54.4002 95.5611 60.3182C91.619 62.1003 88.7904 65.4718 88.4108 69.5019C88.2304 71.41 88.6189 73.2429 89.4567 74.8837L89.4892 75.0002C89.4916 74.9907 89.4999 74.9659 89.4999 74.9659C92.3528 79.9835 98.2224 80.1656 98.2224 80.1656C94.1721 69.2293 101.283 66.487 101.283 66.487C97.8954 76.0598 103.923 80.1212 107.878 80.1212C111.835 80.1212 117.368 78.2351 123.809 71.3556C130.248 64.4743 134.377 63.2155 134.377 63.2155C135.715 59.7861 133.943 55.348 133.943 55.348C140.827 56.1734 141.616 61.2241 141.616 61.2241C145.537 60.5429 150.196 61.7326 150.196 61.7326C150.985 59.5815 150.151 56.4211 150.151 56.4211C151.389 56.6683 152.962 57.8301 152.962 57.8301C152.907 55.371 150.88 52.877 150.88 52.877C150.123 53.8686 148.078 54.6331 148.078 54.6331C141.097 53.8757 138.306 50.5634 138.306 50.5634C141.429 48.7895 146.562 49.3637 146.562 49.3637C145.014 48.5116 142.741 47.9511 140.082 47.9434L140.081 47.944ZM139.834 70.5834C138.271 70.607 137.244 70.8961 137.244 70.8961C139.162 71.8191 140.503 73.2926 140.503 74.8104C140.503 78.1393 136.114 80.8367 130.701 80.8367C128.489 80.8367 126.458 80.3832 124.817 79.6257C122.906 82.3764 117.786 88.1194 106.485 87.1243C92.2582 85.8714 85.1907 89.5083 84.1672 96.2246C91.1348 86.0458 101.121 89.4048 110.873 89.4048C120.626 89.4048 125.368 82.4627 125.368 82.4627C126.484 83.3094 134.934 86.6087 141.539 82.4526C148.142 78.2971 147.474 72.9869 147.474 72.9869C144.738 70.9618 141.843 70.5532 139.834 70.5834ZM104.352 93.477C96.0412 95.644 71.4193 103.97 79.4523 125.041C80.1843 124.999 80.9991 124.845 81.9392 124.527C84.302 123.725 86.236 122.444 87.7781 121.091L80.0276 115.801C80.0276 115.801 89.2273 102.741 105.661 93.7478C105.223 93.6544 104.782 93.5532 104.351 93.477H104.352ZM90.6215 123.031C83.6853 130.131 74.1468 129.821 73.9824 129.823C72.3978 133.117 70.8327 136.839 66.1829 138.336L65.8542 138.446C65.2333 145.423 65.785 156.455 76.817 150.311C76.8537 150.291 76.888 150.275 76.9252 150.253C81.5892 144.638 86.7339 140.525 91.9673 136.292C92.843 135.583 94.6056 134.335 95.684 133.605L97.75 127.895L90.6215 123.031Z" fill="#AFB1B1"/>
<path d="M39.4316 78.6026C39.4316 78.6026 38.6937 90.4203 42.7057 99.4258C42.7057 99.4258 32.4932 90.7206 39.4316 78.6026Z" fill="#003B73"/>
<path d="M117.237 45.875C116.978 46.4184 116.829 47.0292 116.829 47.6719C116.829 49.9926 118.713 51.8776 121.033 51.8776C122.52 51.8776 123.822 51.1007 124.57 49.9382C124.041 49.6107 123.528 49.3014 123.013 48.9993C122.62 49.5474 121.981 49.9075 121.254 49.9075C120.058 49.9075 119.084 48.9372 119.084 47.7405C119.084 47.4395 119.146 47.1551 119.257 46.895C118.571 46.536 117.891 46.1919 117.237 45.875ZM136.37 58.4544C136.37 58.4544 137.429 60.2229 137.157 62.5537C137.807 62.3775 138.545 62.2072 139.359 62.0535C138.774 59.4406 136.37 58.4544 136.37 58.4544ZM152.714 59.9284C152.714 59.9284 152.665 61.1748 152.108 62.8417C152.637 63.0196 153.285 63.2733 153.946 63.6127C154.057 61.1547 152.714 59.9284 152.714 59.9284ZM137.416 89.9126C106.546 89.9126 87.0757 114.782 87.0757 114.782L103.518 125.881L89.9269 163.46H83.8959L76.7769 181.5H111.374C138.827 181.5 164.625 162.779 172.716 136.983C176.571 124.694 175.079 113.004 168.515 104.065C161.814 94.9385 150.769 89.9132 137.418 89.9132L137.416 89.9126ZM137.415 94.1952C161.846 94.1952 175.817 112.781 168.629 135.704C161.436 158.634 137.865 177.217 111.373 177.217H83.0734L86.812 167.742H92.9347L111.614 116.085C117.819 112.482 124.533 110.367 130.941 110.367C131.757 110.367 132.549 110.413 133.327 110.48L112.764 167.325C128.048 164.866 143.861 151.654 149.686 135.712C156.145 118.03 147.852 103.695 131.159 103.695C120.427 103.695 108.837 109.621 100.207 118.559L93.5065 113.986C105.014 102.111 121.472 94.1952 137.416 94.1952H137.415ZM138.343 109.204L138.99 109.49C141.361 110.542 143.298 112.127 144.75 114.201C148.189 119.119 148.521 126.424 145.664 134.243C141.689 145.12 132.019 155.363 121.034 160.335L119.613 160.979L138.343 109.204ZM50.9015 132.551C49.7077 137.151 47.3793 142.553 42.8862 144.286C34.5781 147.495 32.6423 139.498 32.6423 139.498C26.8975 145.151 32.9279 150.301 32.9279 150.301C32.9947 159.283 26.875 163.988 26.875 163.988C27.3811 169.741 33.2933 166.8 33.6646 166.6C34.0371 166.399 34.2222 166.272 34.5787 166.526C34.9388 166.783 34.6047 167.269 34.6047 167.269C33.285 169.539 30.6958 170.722 30.6958 170.722C35.1901 174.103 39.1913 169.307 39.1913 169.307C39.1913 169.307 39.5874 168.782 39.9617 168.993C40.3366 169.205 40.2012 169.605 40.2012 169.605C39.9724 171.5 38.2949 173.968 38.2949 173.968C43.562 174.654 45.5445 169.621 45.6013 169.495C45.6604 169.372 45.755 168.844 46.2452 168.844C46.7383 168.844 46.762 169.479 46.762 169.479C46.9671 170.404 46.6597 172.222 46.6597 172.222C49.0425 170.075 50.4734 166.281 51.3302 162.24C44.8468 161.042 45.5989 154.888 45.5989 154.888C45.5989 154.888 42.1311 151.454 45.7278 145.506C48.1391 141.516 51.1167 141.132 52.5098 141.2C52.3454 138.777 51.9167 135.715 50.9015 132.551ZM65.8543 138.443C61.072 140.012 60.3714 140.849 59.2533 142.209C58.8825 142.657 58.4456 143.186 57.8088 143.812C54.578 146.705 52.7244 147.312 51.7204 147.289C50.9417 147.274 50.6744 146.881 50.6721 146.876C50.6697 146.881 48.4802 149.923 49.0981 152.499C49.0981 152.499 49.1123 152.499 49.1342 152.493H49.1365C49.3222 153.579 50.0873 154.492 51.2113 155.007C51.1865 155.261 51.1889 155.508 51.2196 155.749C51.4401 157.427 53.0236 158.719 55.2119 158.812C55.5483 158.829 55.8859 158.812 56.2147 158.771C56.8284 159.913 58.163 160.714 59.8635 160.791C61.0614 160.843 62.2238 160.525 63.1888 159.967H63.19C63.7801 160.269 64.4813 160.458 65.2624 160.49C66.8707 160.56 68.4305 159.967 69.5078 159C69.5154 159.002 69.5202 159.008 69.5279 159.011C71.2254 157.35 73.1772 155.133 75.398 152.172C75.8793 151.531 76.3494 150.917 76.8183 150.308C74.4041 151.652 72.4937 152.173 70.9854 152.096C65.6012 151.821 65.3688 143.895 65.8543 138.443Z" fill="white"/>
</svg>
