<svg width="200" height="200" viewBox="0 0 200 200" fill="none" xmlns="http://www.w3.org/2000/svg">
<g clip-path="url(#clip0_154_2420)">
<path d="M193.977 117.717L199.297 103.317H167.001L166.513 104.637L165.393 103.317H132.033L131.001 106.117L128.625 103.317H86.2249C86.8409 102.981 87.3289 102.669 87.7049 102.405C87.7129 102.397 87.8169 102.317 87.8169 102.317C87.8249 102.309 90.2889 100.485 90.2889 100.485L91.6969 99.4452L90.3689 99.0852C91.0009 98.5892 91.5449 98.1092 91.9769 97.6532C92.0569 97.5652 92.1369 97.4852 92.2089 97.3972L93.4809 95.9412L94.2249 95.0932L93.2009 94.6132L92.8169 94.4372C94.1049 93.0212 95.0729 91.4612 95.6729 90.3812L96.5689 88.7492L97.0889 87.7972C97.0889 87.7972 96.6889 87.6932 96.3849 87.6052C97.2969 86.4692 97.8649 85.4212 98.1929 84.6852L98.8649 83.1812L99.2569 82.3012C99.2569 82.3012 99.1049 82.2532 98.9209 82.1972C99.4169 81.4292 99.8889 80.4772 100.313 79.3412L101.929 75.0612L102.857 72.5892L100.657 74.0612L96.8329 76.6132C96.0009 77.1652 95.6569 77.2692 95.6009 77.2852C95.3849 77.2932 93.4409 77.3812 93.4409 77.3812L93.2729 77.3892L93.1209 77.4612L93.0169 77.5092L93.0889 76.6372L92.0249 76.8052L90.1689 77.0932C89.2009 77.2452 88.0569 77.5652 86.7689 78.0452C86.0649 77.8052 84.6889 77.4292 83.1529 77.4452L83.5769 76.6692L82.0489 76.7572L79.4089 76.9092C78.0729 76.9812 76.2329 77.1652 74.5049 77.5812L74.4889 77.2692L74.4489 76.3012L73.4969 76.4692L71.8409 76.7572C71.1129 76.8852 70.0969 77.1412 68.9609 77.6532L68.9929 77.0692L67.7769 77.5092L65.6569 78.2852C65.3529 78.3972 62.8249 79.3332 60.2569 80.7012C60.0649 80.4372 59.8409 80.1252 59.8409 80.1252L59.4649 79.5972L58.8569 79.8212L57.7929 80.2132C57.6009 80.2852 56.6969 80.6212 55.6489 81.1172C53.6569 79.4052 51.0569 77.8052 47.8969 76.3652C48.4409 75.8452 48.7449 75.3892 48.7689 75.3652L49.3609 74.5012L48.3929 74.1012C47.0329 73.5412 46.5529 72.8052 46.3849 72.3812C47.4809 71.2372 47.7609 69.5572 47.7929 69.3492L47.9209 68.4692L47.0409 68.3812C43.3209 67.9972 42.2329 67.0212 41.9209 66.4772C41.6569 66.0212 41.7849 65.6292 41.8249 65.5252C44.9609 60.3012 42.1289 54.7012 41.2249 53.1732C41.5129 52.3972 41.4969 51.8132 41.1609 51.4372L40.7609 50.9492L40.1929 51.2212C37.3449 52.5652 33.2889 57.5892 32.1449 59.0452C31.6329 59.0372 30.9529 59.1412 29.9929 59.2852C28.5849 59.5012 26.6489 59.7892 24.5529 59.7892C22.4489 59.7892 20.5129 59.5012 19.1049 59.2852C18.1449 59.1412 17.4649 59.0372 16.9529 59.0452C15.8089 57.5892 11.7609 52.5652 8.91288 51.2212L8.34488 50.9492L7.92087 51.4132C7.58488 51.7812 7.56888 52.3732 7.85688 53.1492C6.96088 54.6852 4.12087 60.2852 7.26487 65.5092C7.29688 65.5892 7.43288 65.9892 7.16888 66.4532C6.84888 66.9972 5.76888 67.9732 2.04888 68.3572L1.16887 68.4452L1.29688 69.3252C1.32888 69.5332 1.60088 71.2132 2.70488 72.3572C2.53688 72.7812 2.04888 73.5172 0.696875 74.0772L-0.271125 74.4772L0.312875 75.3412C0.360875 75.4132 1.44088 76.9732 3.21688 77.7172C3.17688 78.3092 2.88088 79.2692 1.43288 79.6532L-0.00712496 80.0452L1.06488 81.0852C1.11288 81.1332 1.32888 81.3252 1.74487 81.5812C0.528875 83.9972 -0.223125 86.5012 -0.487125 89.0372L-0.615125 90.2452L-0.703125 90.9572L-0.023125 91.1572L0.944875 91.4372C0.896875 93.4612 0.856875 95.7892 0.912875 96.6452C0.968875 97.4932 1.41687 98.6052 3.14488 102.621C4.34487 105.413 6.56887 110.581 6.65688 111.893C6.69688 112.477 6.66488 112.789 6.63287 113.133C6.59288 113.573 6.56888 113.925 6.60088 114.333C6.68088 115.573 7.21688 117.085 8.87288 120.797C9.74487 122.749 9.95288 124.533 10.0489 125.869C10.0889 126.501 10.1049 127.125 10.1209 127.669C10.1369 128.181 10.1529 128.709 10.1849 129.229C10.3609 131.965 11.1449 134.925 15.4729 136.213C16.8089 137.101 18.8329 137.653 20.7449 136.733C21.2009 136.853 21.7609 136.957 22.3529 136.957C22.3689 137.101 22.3849 137.293 22.3849 137.533C22.3849 138.053 22.3129 138.925 21.9689 140.077L21.9529 140.141L21.9449 140.173L21.9369 140.205L21.9209 140.269C21.8809 140.453 21.7609 141.101 21.7609 141.933C21.7609 143.693 22.2889 145.109 23.2889 146.053C23.9849 146.709 25.2249 147.413 27.2089 147.165C27.9689 147.525 29.4569 147.997 31.1769 147.405C32.0489 147.709 33.4729 147.941 35.0649 147.093C35.7929 147.085 36.7609 146.933 37.6249 146.325C38.1849 145.925 38.9049 145.181 39.1529 143.901C39.2089 143.677 39.3529 143.117 39.4409 142.365C39.4889 141.941 39.5129 141.517 39.5129 141.109C39.5129 140.837 39.5049 140.565 39.4809 140.301C39.2889 137.917 38.1769 136.061 36.3449 135.005H42.0889L45.3049 126.309L47.7129 132.933L52.3449 128.717L50.1289 135.005L139.105 134.973L139.593 133.653L140.713 134.973H155.937L163.921 129.949L162.065 134.973H180.857L185.489 122.453H183.681L185.433 117.709H193.977V117.717ZM81.0329 113.605L77.4569 118.221L82.3529 104.989C83.1689 104.709 83.8969 104.429 84.5369 104.149L81.0329 113.605ZM102.841 118.661L102.737 115.837H103.889L102.841 118.661ZM168.489 122.453H166.713L167.681 119.829L165.897 117.733H170.233L168.489 122.453Z" fill="white"/>
<path d="M167.592 104.167L166.808 106.295L165.008 104.167H151.456H150.424H149.584H148.256H132.648L131.296 107.783L128.232 104.175H107.296L103.296 114.999H105.104C104.392 116.927 102.744 121.375 102.152 122.975C102.072 120.943 101.92 116.903 101.848 114.999H101.872L105.872 104.175H85.4322C85.4322 104.175 82.0002 113.471 81.7922 114.031C81.5202 114.383 75.9842 121.519 74.7522 123.119C75.6962 120.575 80.2802 108.159 81.7042 104.319C84.4722 103.415 86.2082 102.439 87.2322 101.719L87.3362 101.647L89.8002 99.8151C89.8002 99.8151 89.1202 99.6311 88.4402 99.4471C88.6402 99.3111 88.8402 99.1831 89.0242 99.0471C90.0082 98.3511 90.8002 97.6951 91.3762 97.0791C91.4482 96.9991 91.5202 96.9271 91.5842 96.8471L92.8562 95.3911C92.8562 95.3911 91.7922 94.8871 91.3922 94.7031C91.6082 94.5031 91.8162 94.2951 92.0162 94.0791C93.3202 92.7031 94.3042 91.1431 94.9442 89.9751L95.8402 88.3511C95.8402 88.3511 95.3442 88.2151 94.8562 88.0871C94.9042 88.0391 94.9602 87.9831 95.0082 87.9351C96.2882 86.5751 97.0322 85.2631 97.4402 84.3511L98.1122 82.8471C98.1122 82.8471 97.8002 82.7511 97.5282 82.6711C98.2562 81.8951 98.9362 80.6871 99.5442 79.0711L101.152 74.7911L97.3282 77.3431C96.2722 78.0471 95.8322 78.1431 95.6962 78.1591C95.6642 78.1591 93.5042 78.2551 93.5042 78.2551L93.2402 78.3751C92.8162 78.5671 92.4402 78.7191 92.0882 78.8471C92.1362 78.3031 92.1842 77.6631 92.1842 77.6631L90.3282 77.9511C89.3362 78.1031 88.1522 78.4471 86.8082 78.9671C86.1602 78.7271 83.8642 77.9671 81.6562 78.4871C81.8802 78.0791 82.1282 77.6231 82.1282 77.6231L79.4882 77.7751C77.8642 77.8631 75.6162 78.1031 73.7362 78.7031C73.7202 78.3111 73.6802 77.3191 73.6802 77.3191L72.0242 77.6071C71.0322 77.7831 69.5922 78.1831 68.0562 79.1111C68.0802 78.7511 68.1042 78.3271 68.1042 78.3271L65.9842 79.0951C65.8322 79.1511 62.8162 80.2551 60.0162 81.8391C59.9682 81.7351 59.9122 81.6391 59.8482 81.5511L59.1922 80.6391L58.1282 81.0311C57.9202 81.1031 56.7682 81.5431 55.5602 82.1511C52.9202 79.7351 49.3602 77.8871 46.3122 76.5991C47.4402 75.8951 48.1122 74.9111 48.1122 74.9111C45.5362 73.8471 45.4882 72.1111 45.4882 72.1111C46.7122 71.1831 46.9922 69.2551 46.9922 69.2551C39.4402 68.4791 41.1042 65.1671 41.1042 65.1671C44.5202 59.5591 40.3122 53.2791 40.3122 53.2791C40.7842 52.2791 40.5682 52.0391 40.5682 52.0391C37.4482 53.5111 32.5362 60.0071 32.5362 60.0071C31.8082 59.6951 28.5442 60.6951 24.5682 60.6951C20.5922 60.6951 17.3282 59.6951 16.6002 60.0071C16.6002 60.0071 11.6882 53.5191 8.56823 52.0391C8.56823 52.0391 8.35223 52.2791 8.82423 53.2791C8.82423 53.2791 4.62423 59.5591 8.03223 65.1671C8.03223 65.1671 9.69623 68.4791 2.14423 69.2551C2.14423 69.2551 2.42423 71.1831 3.64823 72.1111C3.64823 72.1111 3.59223 73.8471 1.02423 74.9111C1.02423 74.9111 2.20023 76.6311 4.04023 77.1511C4.04023 77.1511 4.52023 79.7511 1.66423 80.5271C1.66423 80.5271 2.02423 80.8791 2.90423 81.2711C1.71223 83.4311 0.688234 86.1031 0.368234 89.1751L0.240234 90.3831L1.41623 90.7271C1.51223 90.7511 1.65623 90.7911 1.83223 90.8311C1.76023 92.6951 1.69623 95.6311 1.76023 96.5911C1.80823 97.3191 2.36023 98.6551 3.92023 102.287C5.30423 105.511 7.40023 110.375 7.49623 111.839C7.53623 112.487 7.50423 112.855 7.47223 113.215C7.44023 113.591 7.41623 113.911 7.44023 114.279C7.51223 115.343 7.96823 116.719 9.64023 120.455C10.5042 122.391 10.7762 124.175 10.8882 125.823C10.9282 126.455 10.9442 127.071 10.9602 127.655C10.9762 128.167 10.9922 128.679 11.0242 129.183C11.2002 131.831 11.8962 134.327 15.8322 135.447C16.8722 136.175 18.8162 136.895 20.6562 135.831C21.2722 136.031 22.1122 136.215 22.9522 136.079C23.0082 136.199 23.0562 136.319 23.1202 136.447C23.1442 136.551 23.2402 136.919 23.2402 137.551C23.2402 138.207 23.1442 139.143 22.7842 140.343L22.7682 140.399L22.7602 140.463C22.7282 140.599 22.6162 141.191 22.6162 141.951C22.6162 143.039 22.8482 144.479 23.8722 145.447C24.4882 146.023 25.5682 146.591 27.3522 146.303C28.2642 146.791 29.6642 147.143 31.1842 146.511C32.1122 146.919 33.4482 147.087 34.8482 146.255C35.4642 146.279 36.3602 146.191 37.1282 145.639C37.5762 145.319 38.1362 144.727 38.3202 143.703C38.3682 143.527 38.5042 142.999 38.5842 142.271C38.6242 141.919 38.6562 141.527 38.6562 141.111C38.6562 140.871 38.6482 140.631 38.6242 140.375C38.4322 138.015 37.2722 136.295 35.3442 135.455C35.0562 134.991 34.6082 134.247 34.5842 134.207C34.5762 134.191 34.5682 134.175 34.5602 134.159H41.4962C41.4962 134.159 45.0882 124.447 45.3122 123.839C46.2642 126.447 48.0802 131.447 48.0802 131.447C48.0802 131.447 52.2962 127.615 54.2722 125.815C53.5762 127.759 51.3202 134.151 51.3202 134.151H73.3442L73.3522 134.119H138.504L139.288 131.991L141.096 134.119H155.688L163.256 129.359L166.712 119.991C166.712 119.991 165.096 118.087 164.064 116.871H171.448C170.704 118.887 169.448 122.295 169.072 123.295H167.264L163.264 134.111H180.24L184.24 123.295H182.432C183.144 121.367 183.912 119.295 184.808 116.855H193.368L198.056 104.159H167.592V104.167Z" fill="black"/>
<path d="M19.3121 80.6363C19.1921 82.5483 20.0801 86.3883 20.0801 86.3883C21.2401 89.1963 21.4961 92.4043 21.4961 92.4043C20.0721 92.4043 19.9201 90.9163 19.3521 89.4123C19.0321 87.9403 18.5361 82.6043 11.5681 81.6283C11.5681 81.6283 16.7281 83.8603 17.0641 86.3083C16.4881 85.8443 15.8801 85.5083 15.0321 85.0843C12.1761 83.6523 6.32012 83.8363 6.32012 83.8363C6.84812 81.8043 8.00013 80.9723 8.00013 80.9723C6.26413 80.9723 4.46413 80.1723 4.46413 80.1723C6.12013 78.9563 5.24813 75.7083 5.24813 75.7083C4.12813 76.0123 3.32812 75.1963 3.32812 75.1963C5.00812 74.2603 5.17612 71.3803 5.17612 71.3803C4.40813 71.1003 4.11213 70.3563 4.11213 70.3563C9.36013 69.6283 9.76013 66.0763 9.76013 66.0763C9.76013 66.0763 9.92013 65.1083 9.47213 64.6523C6.68813 61.8043 9.01612 55.8203 9.01612 55.8203C8.67212 60.6763 9.99213 62.5563 10.4241 63.3563C10.4561 63.4123 10.4801 63.4603 10.5121 63.5163C10.5201 63.5243 10.5281 63.5403 10.5361 63.5483C10.5601 63.5883 10.5841 63.6203 10.6081 63.6603C10.6161 63.6683 10.6241 63.6843 10.6321 63.6923C10.6561 63.7243 10.6801 63.7643 10.7041 63.7963C10.7121 63.8043 10.7201 63.8123 10.7281 63.8283C10.7521 63.8603 10.7761 63.8923 10.8001 63.9243C10.8081 63.9323 10.8081 63.9403 10.8161 63.9483C10.8401 63.9803 10.8641 64.0123 10.8881 64.0443C10.8961 64.0523 10.8961 64.0523 10.9041 64.0603C10.9281 64.0923 10.9521 64.1243 10.9761 64.1563V64.1643C11.1761 64.4123 11.3601 64.5963 11.4961 64.7723C11.4961 64.7803 11.5041 64.7803 11.5041 64.7803C11.5201 64.8043 11.5361 64.8203 11.5521 64.8443C11.5521 64.8523 11.5601 64.8523 11.5601 64.8603C11.5681 64.8763 11.5841 64.8923 11.5921 64.9163C11.8321 65.3403 11.7521 65.8283 10.9521 67.1643C9.16812 70.1403 9.28012 71.3723 9.28012 71.3723C9.65612 74.0923 14.0961 76.0043 14.0961 76.0043C12.6481 76.0043 11.1601 77.0603 11.1601 77.0603C14.4001 81.6763 19.3121 80.6363 19.3121 80.6363ZM27.7361 91.3083C27.6401 91.9803 27.6001 92.4043 27.6001 92.4043C29.0241 92.4043 29.1761 90.9163 29.7441 89.4123C30.0641 87.9403 30.5601 82.5963 37.5361 81.6283C37.5361 81.6283 32.3761 83.8603 32.0401 86.3083C32.6161 85.8443 33.2241 85.5083 34.0721 85.0843C36.9281 83.6523 42.7841 83.8363 42.7841 83.8363C42.2561 81.8043 41.1041 80.9723 41.1041 80.9723C42.8401 80.9723 44.6401 80.1723 44.6401 80.1723C42.9841 78.9563 43.8561 75.7083 43.8561 75.7083C44.9761 76.0123 45.7761 75.1963 45.7761 75.1963C44.0961 74.2603 43.9281 71.3803 43.9281 71.3803C44.6961 71.1003 44.9921 70.3563 44.9921 70.3563C39.7441 69.6283 39.3441 66.0763 39.3441 66.0763C39.3441 66.0763 39.1841 65.1083 39.6321 64.6523C42.4161 61.8043 40.0881 55.8203 40.0881 55.8203C40.4001 60.2203 39.3521 62.1803 38.8241 63.1003C38.7681 63.1963 38.7201 63.2843 38.6801 63.3563C38.6481 63.4123 38.6241 63.4603 38.5921 63.5083C38.5761 63.5323 38.5681 63.5483 38.5521 63.5643C38.5361 63.5963 38.5201 63.6203 38.5041 63.6523C38.4881 63.6763 38.4801 63.6923 38.4641 63.7163C38.4481 63.7403 38.4321 63.7643 38.4161 63.7883C38.4001 63.8123 38.3921 63.8283 38.3761 63.8443C38.3601 63.8683 38.3441 63.8923 38.3281 63.9163C38.3201 63.9323 38.3041 63.9483 38.2881 63.9643C38.2721 63.9883 38.2561 64.0123 38.2401 64.0283C38.2321 64.0443 38.2161 64.0523 38.2081 64.0683C38.1921 64.0923 38.1681 64.1083 38.1521 64.1323C38.1441 64.1403 38.1361 64.1563 38.1281 64.1643C38.1041 64.1883 38.0881 64.2123 38.0641 64.2363C38.0561 64.2443 38.0561 64.2443 38.0481 64.2523C37.9041 64.4123 37.7761 64.5563 37.6801 64.6843C37.6641 64.7083 37.6401 64.7323 37.6241 64.7563C37.6081 64.7803 37.5921 64.8043 37.5761 64.8283C37.5601 64.8523 37.5441 64.8763 37.5361 64.9003C37.2961 65.3243 37.3761 65.8123 38.1761 67.1483C39.9681 70.1243 39.8481 71.3563 39.8481 71.3563C39.4721 74.0763 35.0321 75.9883 35.0321 75.9883C36.4801 75.9883 37.9681 77.0443 37.9681 77.0443C34.6961 81.6763 29.7841 80.6363 29.7841 80.6363C29.9041 82.5483 29.0161 86.3883 29.0161 86.3883C28.2881 88.1323 27.9201 90.0363 27.7441 91.2203L27.7361 91.3083ZM40.2721 88.2923C40.0401 87.3243 39.5761 86.3003 39.0001 85.2923C38.8161 85.3083 38.6321 85.3323 38.4481 85.3563C36.5601 85.5963 34.6321 86.1083 33.2961 87.1403C32.6241 87.6523 32.1121 88.2203 31.7121 88.7643C31.7041 88.8123 31.7041 88.8363 31.7041 88.8363C31.7041 88.8363 31.6641 88.8683 31.5921 88.9323C30.5601 90.4443 30.4001 91.8123 30.4001 91.8123C30.4001 91.8123 30.3921 91.8763 30.3601 91.9803C30.1681 92.7883 29.0721 96.2603 24.5441 96.2603C19.4241 96.2603 18.6961 91.8123 18.6961 91.8123C18.6961 91.8123 18.5361 90.4363 17.4961 88.9323C17.4241 88.8763 17.3841 88.8363 17.3841 88.8363C17.3841 88.8363 17.3841 88.8123 17.3761 88.7643C16.9761 88.2123 16.4641 87.6523 15.7921 87.1403C13.9921 85.7563 11.1281 85.3003 8.72813 85.1883C8.30413 86.4763 8.01612 87.8603 8.01612 89.2443L9.61612 88.2443C9.61612 88.2443 7.74412 95.2523 9.39213 99.2843L10.6081 97.8363C10.6081 97.8363 12.8721 103.684 17.1281 106.74C17.1281 106.74 21.0481 106.356 22.6401 106.036C22.6401 106.036 21.8721 107.444 20.2561 108.396C20.2561 108.396 24.3601 109.156 30.9041 102.668C30.9041 102.668 31.0001 104.444 30.3841 105.06C30.3841 105.06 36.8721 101.908 38.5681 94.7403C38.5681 94.7403 39.2561 96.2683 39.2561 97.1803C39.2641 97.1963 41.2801 92.5403 40.2721 88.2923ZM88.8961 94.8923C88.9201 94.8683 89.7921 93.8923 90.3681 92.6763C90.6561 92.0683 90.8721 91.4043 90.8721 90.7563C90.8721 90.7563 89.2401 91.3643 88.4961 91.2363C88.4961 91.2363 88.5041 91.2283 88.5121 91.2203C88.6881 91.0283 90.1201 89.4283 90.1201 87.8363C90.1201 87.8363 87.3041 89.1483 85.9361 89.3883C85.9361 89.3883 85.9441 89.3723 85.9601 89.3483C86.2401 88.9563 88.5201 85.7723 89.5761 85.0363H89.5681C89.4481 85.0443 87.8641 85.1963 86.5121 84.9003C86.1921 84.8283 85.8801 84.7323 85.6081 84.5963C85.6081 84.5963 86.5921 83.6603 87.6081 83.1963C87.6721 83.1643 87.7441 83.1323 87.8081 83.1083C87.8081 83.1083 87.7681 83.0923 87.6881 83.0683C87.6481 83.0603 87.6001 83.0443 87.5441 83.0283C87.0641 82.9003 85.9041 82.7083 83.8241 82.9723C83.8241 82.9723 85.6481 81.6923 85.7761 80.9403C85.7761 80.9403 85.7681 80.9403 85.7681 80.9323C83.5761 79.1723 79.4961 79.9483 79.0881 80.3163C78.6801 80.6843 78.7921 80.6123 78.7921 80.6123L74.8081 84.1643C78.1601 84.2923 82.0561 83.8443 82.0561 83.8443C81.5521 84.1963 80.2161 85.5963 80.2161 85.5963C81.5921 85.8283 83.5441 86.7643 83.5441 86.7643C80.1441 87.8203 77.7121 89.3803 77.7121 89.3803C78.7521 89.9883 84.5601 89.6283 84.5601 89.6283C83.0161 89.9003 80.0721 92.5243 80.0721 92.5243C80.1601 92.5403 80.2801 92.5563 80.4081 92.5723H88.7041L88.1681 93.9563L86.7521 97.5963L86.1441 99.1563L86.7921 98.7483C87.3041 98.4283 87.7521 98.1323 88.1441 97.8523C89.3441 97.0043 90.0401 96.3483 90.4481 95.8843C90.2401 95.7883 90.0881 95.6923 90.0161 95.6443L88.8961 94.8923Z" fill="white"/>
<path d="M26.5539 91.8855C26.5539 91.8855 27.0579 93.8855 25.7939 95.1415C25.7939 95.1415 24.3299 95.5575 23.4019 95.1735C23.4099 95.1735 24.0019 95.1735 24.6739 94.8695C25.1859 94.6375 25.7379 94.2295 26.1139 93.5175C25.7459 93.5895 25.1779 93.6135 25.1139 93.2535C25.0259 92.7735 26.2419 92.8535 26.3779 92.8615C26.4659 92.5655 26.5219 92.2455 26.5539 91.8855ZM18.8659 78.3175C18.7299 79.0535 18.0899 79.6055 17.3059 79.6055C16.4339 79.6055 15.7219 78.9015 15.7219 78.0375C15.7219 77.4615 16.0339 76.9655 16.4979 76.6935C14.8979 76.4375 13.0099 76.8935 12.1699 77.2295C14.9299 80.7575 19.1379 79.9975 19.1379 79.9975C19.1619 79.4775 19.1139 79.0295 19.0019 78.6455C18.9699 78.5255 18.9219 78.4135 18.8659 78.3175ZM32.8179 76.6535C32.7699 76.6615 32.7219 76.6615 32.6819 76.6695C32.6579 76.6695 32.6339 76.6775 32.6099 76.6775C33.0739 76.9495 33.3779 77.4535 33.3779 78.0215C33.3779 78.8855 32.6659 79.5895 31.7939 79.5895C31.0019 79.5895 30.3459 79.0135 30.2259 78.2615C30.0259 78.7095 29.9219 79.2775 29.9619 79.9655C29.9619 79.9655 34.1619 80.7335 36.9219 77.1975C36.1299 76.9015 34.3699 76.4695 32.8179 76.6535Z" fill="#1C1C1C"/>
<path d="M23.2168 92.8523C23.4648 92.8363 24.5288 92.7963 24.4408 93.2523C24.3528 93.7243 23.4328 93.5483 23.1928 93.4443L23.1848 93.4363C23.1768 93.7083 23.1848 94.0283 23.2008 94.4123C23.2008 94.4123 23.1288 94.2763 23.0328 94.0523C23.0248 94.0363 23.0168 94.0203 23.0088 94.0043C22.9848 93.9403 22.9528 93.8683 22.9208 93.7963C22.8088 93.5163 22.6888 93.1643 22.5928 92.7563C22.5848 92.7003 22.5688 92.6443 22.5608 92.5883C22.5528 92.5323 22.5368 92.4763 22.5288 92.4123C22.4728 92.1003 22.4488 91.7643 22.4568 91.4283C22.4568 91.3643 22.4648 91.3003 22.4648 91.2363C22.4648 91.2203 22.4648 91.2043 22.4728 91.1963C22.4808 91.0923 22.4968 90.9883 22.5128 90.8843C22.5128 90.8843 22.5448 90.9243 22.6168 90.9803C22.8568 91.1643 23.5288 91.5483 24.9608 91.5483H25.0728C25.4968 91.5483 25.9768 91.5083 26.5288 91.4283C26.5288 91.4283 24.8328 92.4043 23.3448 92.1483C23.3448 92.1563 23.2648 92.3323 23.2168 92.8523ZM10.1048 81.7723C10.1048 81.7723 10.5368 80.9723 11.2008 80.4443C10.3048 80.6843 8.4648 81.3643 8.2168 82.8443C8.2168 82.8443 10.8808 82.7563 13.3528 83.8043C13.3528 83.8123 11.2808 82.0763 10.1048 81.7723ZM41.9128 71.1723C41.9128 71.7083 42.1688 73.5883 42.1688 73.5883C41.7528 73.5883 41.2408 73.2363 41.2408 73.2363C40.6968 75.0203 40.9528 78.8363 40.9528 78.8363C40.2808 79.5083 37.0248 80.0203 37.0248 80.0203C38.1688 80.2123 38.9928 81.7643 38.9928 81.7643C37.8168 82.0683 35.7528 83.7963 35.7528 83.7963C38.2248 82.7483 40.8888 82.8363 40.8888 82.8363C40.6808 81.6203 39.1528 80.4523 39.1528 80.4523C41.4328 80.2283 42.5368 79.4203 42.5368 79.4203C41.7928 78.2123 42.3928 74.3803 42.3928 74.3803C42.6808 74.6683 43.7288 74.3883 43.7288 74.3883C42.8248 73.8523 42.5368 71.1403 42.5368 71.1403C42.6968 70.9803 42.7448 70.8683 42.7448 70.8683C42.1048 70.8683 40.6888 69.9483 40.6888 69.9483C40.6968 70.2523 41.9128 71.1723 41.9128 71.1723ZM10.1608 64.0443C10.7928 64.3803 11.2408 64.6683 11.5688 64.9003C11.5608 64.8843 11.5448 64.8603 11.5368 64.8443C11.5288 64.8363 11.5288 64.8363 11.5288 64.8283C11.5128 64.8043 11.4968 64.7883 11.4808 64.7643C11.4808 64.7643 11.4808 64.7563 11.4728 64.7563C11.3368 64.5803 11.1608 64.3963 10.9608 64.1483H10.9528C10.9288 64.1163 10.9048 64.0843 10.8808 64.0523C10.8728 64.0443 10.8728 64.0443 10.8648 64.0363C10.8408 64.0043 10.8168 63.9803 10.7928 63.9483C10.7848 63.9403 10.7848 63.9323 10.7768 63.9243C10.7528 63.8923 10.7288 63.8603 10.7048 63.8283C10.6968 63.8203 10.6888 63.8123 10.6808 63.8043C10.6568 63.7723 10.6328 63.7323 10.6088 63.7003C10.6008 63.6923 10.5928 63.6763 10.5848 63.6683C10.5608 63.6283 10.5368 63.5963 10.5128 63.5563C10.5048 63.5483 10.4968 63.5323 10.4888 63.5243C10.4568 63.4763 10.4328 63.4203 10.4008 63.3643C9.9688 62.5643 8.6488 60.6843 8.9928 55.8283C9.0088 55.8363 7.3368 62.5243 10.1608 64.0443ZM38.9368 64.0443C41.7608 62.5243 40.0968 55.8603 40.0888 55.8203C40.4008 60.2203 39.3528 62.1803 38.8248 63.1003C38.7688 63.1963 38.7208 63.2843 38.6808 63.3563C38.6488 63.4123 38.6248 63.4603 38.5928 63.5083C38.5768 63.5323 38.5688 63.5483 38.5528 63.5643C38.5368 63.5963 38.5128 63.6203 38.4968 63.6523C38.4808 63.6763 38.4728 63.6923 38.4568 63.7163C38.4408 63.7403 38.4248 63.7643 38.4088 63.7883C38.3928 63.8123 38.3848 63.8283 38.3688 63.8443C38.3528 63.8683 38.3368 63.8923 38.3208 63.9163C38.3128 63.9323 38.2968 63.9483 38.2808 63.9643C38.2648 63.9883 38.2488 64.0123 38.2328 64.0283C38.2248 64.0443 38.2088 64.0523 38.2008 64.0683C38.1848 64.0923 38.1688 64.1163 38.1448 64.1403C38.1368 64.1483 38.1288 64.1643 38.1208 64.1723C38.0968 64.1963 38.0808 64.2203 38.0648 64.2443C38.0568 64.2523 38.0568 64.2523 38.0488 64.2603C37.9048 64.4203 37.7768 64.5643 37.6808 64.6923C37.6648 64.7163 37.6408 64.7403 37.6248 64.7643C37.6088 64.7883 37.5928 64.8123 37.5768 64.8363C37.5608 64.8603 37.5448 64.8843 37.5368 64.9083C37.8568 64.6683 38.3048 64.3883 38.9368 64.0443ZM9.7208 97.7723C9.7208 97.7723 10.5688 96.7003 10.8568 96.4203C10.8568 96.4203 12.5608 101.076 14.6168 103.26C14.6168 103.26 11.3128 96.9003 11.3128 93.8123L10.1448 95.7963C10.1448 95.7963 9.6968 93.6603 10.2088 89.0123C10.2088 89.0043 8.9768 94.2123 9.7208 97.7723ZM32.3208 97.8523C32.3208 97.8523 32.1368 98.5243 29.8648 100.772C29.8648 100.772 26.5768 103.836 25.5128 104.204C25.5128 104.204 26.3368 102.86 26.3368 102.292C26.3368 102.292 21.9368 104.588 17.4008 105.868C17.4008 105.868 23.2168 105.108 24.0968 104.884C24.0968 104.884 23.0408 106.852 22.6568 107.244C22.6568 107.244 26.7928 106.132 31.6168 100.876C31.6168 100.876 31.7768 102.9 31.6968 103.316C31.6968 103.316 37.1048 100.052 38.4168 92.3403C38.4168 92.3403 39.2488 93.8603 39.3128 94.3323C39.3128 94.3323 40.6888 90.4923 38.4648 85.3643C36.5768 85.6043 34.6488 86.1163 33.3128 87.1483C32.6408 87.6603 32.1288 88.2283 31.7288 88.7723C31.7208 88.8203 31.7208 88.8443 31.7208 88.8443C31.7208 88.8443 31.6808 88.8763 31.6088 88.9403C30.5768 90.4523 30.4168 91.8203 30.4168 91.8203C30.4168 91.8203 30.4088 91.8843 30.3768 91.9883C30.3768 91.9963 30.3848 91.9963 30.3848 92.0043C33.9928 94.3803 32.3208 97.8523 32.3208 97.8523ZM87.8248 95.5083C89.1848 93.7723 89.3048 92.3003 89.3048 92.3003C89.1208 92.7563 88.6728 93.3643 88.1768 93.9403L86.7608 97.5803C88.1608 96.8123 89.1608 95.9323 89.1608 95.9323C88.7688 95.9483 87.8248 95.5083 87.8248 95.5083ZM18.2088 77.5003C18.2408 77.6043 18.2648 77.7243 18.2648 77.8363C18.2648 78.4523 17.7608 78.9483 17.1368 78.9483C16.6248 78.9483 16.1928 78.6043 16.0568 78.1403C16.1288 78.7643 16.6568 79.2443 17.2968 79.2443C17.9848 79.2443 18.5448 78.6923 18.5448 78.0043C18.5448 77.9323 18.5368 77.8683 18.5288 77.8043C18.4248 77.7003 18.3208 77.5963 18.2088 77.5003ZM13.4248 77.5243C13.4248 77.5243 13.5688 77.3483 15.4648 76.9403C15.4648 76.9403 13.9928 76.9163 12.7128 77.3803C12.7128 77.3803 13.8648 78.8523 15.3768 79.2203C15.3768 79.2203 13.5448 78.1083 13.4248 77.5243ZM35.6728 77.5243C35.5608 78.1083 33.7208 79.2203 33.7208 79.2203C35.2328 78.8523 36.3848 77.3803 36.3848 77.3803C35.1048 76.9163 33.6328 76.9403 33.6328 76.9403C35.5288 77.3483 35.6728 77.5243 35.6728 77.5243ZM32.7448 77.8363C32.7448 78.4523 32.2408 78.9483 31.6168 78.9483C31.1048 78.9483 30.6728 78.6043 30.5368 78.1403C30.6088 78.7643 31.1368 79.2443 31.7768 79.2443C32.4648 79.2443 33.0248 78.6923 33.0248 78.0043C33.0248 77.4123 32.6088 76.9243 32.0488 76.7963H32.0408C32.4568 76.9803 32.7448 77.3723 32.7448 77.8363Z" fill="#ABABAB"/>
<path d="M16.5605 77.2211C16.5605 77.0211 16.6965 76.8531 16.8725 76.7891C17.0405 76.8451 17.2325 76.9171 17.4325 77.0131C17.4645 77.0771 17.4885 77.1491 17.4885 77.2211C17.4885 77.4771 17.2805 77.6771 17.0245 77.6771C16.7685 77.6771 16.5605 77.4691 16.5605 77.2211ZM31.4485 77.0451C31.3925 77.1251 31.3605 77.2131 31.3605 77.3171C31.3605 77.5731 31.5685 77.7731 31.8245 77.7731C32.0805 77.7731 32.2805 77.5651 32.2805 77.3171C32.2805 77.0851 32.1045 76.8931 31.8805 76.8611C31.7205 76.9171 31.5765 76.9811 31.4485 77.0451Z" fill="white"/>
<path d="M89.4818 81.079L86.8258 81.167L90.0258 79.943L90.0658 81.727L93.7698 80.071C93.7698 80.071 95.7058 80.543 97.2338 79.543C97.2338 79.543 96.1218 80.703 93.6978 80.815L89.1298 83.399L89.4818 81.079ZM15.2978 127.487C15.2978 127.487 14.4098 129.807 14.9298 131.815C15.1218 132.543 15.5458 133.239 16.1538 133.743C16.7938 134.271 17.6338 134.591 18.6018 134.495C18.6018 134.503 15.4658 132.767 15.2978 127.487ZM18.5058 127.111C17.5698 129.335 19.1058 133.503 20.8418 134.335C20.8498 134.335 20.8498 134.335 20.8498 134.343C20.9618 134.391 21.0738 134.431 21.1858 134.455C23.0578 134.847 23.2658 133.015 23.2658 133.015C20.1858 134.207 18.5058 127.111 18.5058 127.111ZM24.1298 128.631C23.3778 130.143 21.5298 125.583 21.5298 125.583C21.1618 126.919 21.4658 128.151 21.8978 129.087C22.4018 130.167 23.0738 130.855 23.0738 130.855C24.2338 131.119 24.1298 128.631 24.1298 128.631ZM13.2338 126.607C13.2738 125.895 13.3218 124.367 13.1458 123.159C12.9298 118.367 16.2498 118.863 16.2498 118.863C14.6018 118.295 13.6338 118.919 13.0738 119.863C13.0258 119.775 12.9778 119.671 12.9378 119.543C12.8498 119.271 12.7858 118.887 12.8178 118.367C12.8178 118.367 12.3698 119.007 12.5058 120.295C12.5298 120.487 12.5618 120.703 12.6098 120.927C12.2498 122.127 12.2738 123.351 12.2738 123.351C12.5138 124.575 12.4418 125.599 12.3938 126.279C12.3698 126.535 12.3538 126.735 12.3538 126.887C12.3538 126.887 12.3298 128.047 12.4898 128.983C12.5618 129.367 12.6578 129.719 12.8018 129.919C12.8018 129.919 13.1058 127.495 15.8338 123.615C15.8338 123.607 14.2978 124.591 13.2338 126.607ZM27.4258 143.935C27.4258 143.935 24.2578 143.319 26.4898 138.119C25.4578 138.359 22.4178 143.527 25.6898 144.815L25.8098 144.839C26.1138 144.895 26.9938 144.951 27.4258 143.935ZM30.8178 140.711C30.7138 139.703 29.7778 138.311 29.1378 137.799C29.1458 137.807 29.3378 138.023 29.4738 138.727C29.7138 139.927 29.5618 141.583 29.2978 143.079V143.087C29.1058 144.183 28.8818 145.063 28.8258 145.303C28.8098 145.303 31.3538 145.759 30.8178 140.711ZM32.2498 145.319C32.5858 145.383 34.2658 145.479 34.0498 141.223C33.9698 139.735 33.1138 138.631 32.2738 137.959C32.2738 137.959 32.3378 138.023 32.4338 138.207V138.215C32.4578 138.255 32.4738 138.295 32.4978 138.335C32.4978 138.343 32.4978 138.343 32.5058 138.343C32.5458 138.431 32.5858 138.527 32.6178 138.623C32.8578 139.311 32.9138 140.183 32.8818 141.079C32.8818 141.679 32.7938 142.359 32.6658 143.103C32.4898 144.207 32.2578 145.087 32.2018 145.303C32.2098 145.303 32.2178 145.311 32.2258 145.311C32.2258 145.311 32.2418 145.311 32.2498 145.319ZM36.6258 140.983C36.3618 139.135 35.7778 138.711 35.3538 138.207C35.9378 138.991 36.0178 140.263 35.9858 141.263C35.9778 141.327 35.9778 141.391 35.9778 141.455C35.9618 141.775 35.9378 142.095 35.9058 142.415C35.8658 142.775 35.8178 143.127 35.7618 143.487C35.6898 143.903 35.6178 144.343 35.5218 144.727V144.735C35.5218 144.735 37.0738 144.111 36.6258 140.983ZM24.7058 137.871C24.7058 137.935 24.6978 137.991 24.6978 138.063C25.0018 137.559 25.6898 136.247 26.1138 134.159H25.4178C25.3218 135.311 25.1218 136.631 24.7058 137.855V137.871Z" fill="#737373"/>
<path d="M25.9454 126.404C25.7854 125.916 25.5614 125.396 25.2734 124.852H27.2574C27.8174 123.332 33.1694 108.764 35.1534 103.38C36.0734 102.508 36.9614 101.476 37.7694 100.236H37.9614C37.1454 102.452 29.1614 124.188 28.3374 126.404H25.9454ZM156.721 115.348H152.153L152.657 113.988L153.537 113.436H157.425L156.721 115.348ZM153.401 124.316L152.537 124.852H148.641L149.305 123.06H153.865L153.401 124.316ZM139.129 123.076L141.009 117.98L145.337 123.076H139.129ZM129.017 123.3C128.753 124.02 128.545 124.572 128.441 124.852H128.297H126.641H126.489C127.137 123.108 128.209 120.188 128.209 120.188C128.209 120.188 127.385 119.22 127.249 119.06C127.921 118.636 129.049 117.932 129.049 117.932L130.713 113.436H132.681C131.945 115.396 130.033 120.572 129.017 123.3ZM120.361 114.316C120.177 114.436 119.729 114.716 119.481 114.868H116.825C116.961 114.5 117.113 114.084 117.353 113.428H120.697C120.593 113.708 120.497 113.948 120.361 114.316ZM168.673 105.716L167.345 109.324L164.281 105.716H150.857L146.273 108.604L147.337 105.716H133.705L132.441 109.132L131.825 110.804L131.721 110.684L127.505 105.724H108.369L105.521 113.444H107.329C106.385 115.988 103.585 123.58 103.105 124.868H102.953H100.665C100.649 124.492 100.297 115.3 100.233 113.444H100.785L103.641 105.724H86.5054L83.6574 113.444H84.2014C84.1614 113.5 79.0414 120.1 76.5774 123.284C75.9694 124.076 75.5214 124.652 75.3534 124.868H75.0974H73.4414H72.4094C73.6654 121.476 80.3134 103.492 80.9454 101.772H83.6334L86.4494 94.1562H71.6494C71.6494 94.1562 58.2014 106.38 55.4014 108.924C54.2254 105.676 50.0734 94.1562 50.0734 94.1562H41.7214C41.6174 94.6923 41.4894 95.2123 41.3454 95.7083H48.9854C48.9854 95.7083 53.8574 109.204 54.7294 111.628C57.4014 109.204 72.2414 95.7083 72.2414 95.7083H84.2094L82.5374 100.22H79.8494C79.0334 102.436 70.9854 124.204 70.1614 126.42H72.8494L71.1454 131.028H55.7534L57.3774 126.412H60.0654C60.7054 124.676 64.1534 115.564 65.8014 111.092C61.1614 115.308 49.4174 125.988 49.4174 125.988C49.4174 125.988 45.5294 115.284 43.9934 111.076C42.3454 115.54 38.9614 124.684 38.3214 126.412H41.0094L39.3054 131.02H25.9374C25.7854 131.388 25.6094 131.7 25.4494 131.94C25.4574 132.044 25.4734 132.156 25.4814 132.26C25.4894 132.364 25.4894 132.468 25.4974 132.572H40.3934L43.2494 124.86H40.5614C41.5854 122.1 43.9854 115.604 43.9934 115.58C45.5534 119.86 48.7614 128.684 48.7614 128.684C48.7614 128.684 57.3134 120.9 62.1054 116.548C61.2334 118.868 59.4574 123.612 58.9934 124.844H56.2814L53.5614 132.564H83.8654C83.8654 132.564 86.1454 126.404 86.3374 125.868H89.2734C89.2654 125.884 86.8014 132.564 86.8014 132.564H112.089L114.937 124.852H113.129C113.529 123.772 113.713 123.276 113.969 122.588H117.305C116.705 124.212 113.617 132.572 113.617 132.572H137.425L138.753 128.964L141.817 132.572H155.241L161.985 128.332L164.945 120.316L160.849 115.492L160.713 115.332H173.681C173.681 115.332 170.713 123.38 170.169 124.86H168.361L165.505 132.572H179.177L182.033 124.86H180.225C181.017 122.716 182.737 118.06 183.753 115.316H192.313L195.857 105.724H168.673V105.716Z" fill="white"/>
<path d="M11.129 72.3315C10.081 71.1395 10.713 70.8515 12.313 67.4115C15.225 61.1395 17.249 61.2595 17.249 61.2595C19.705 61.6595 23.025 61.8035 24.545 61.9235C26.065 61.8035 29.385 61.6595 31.841 61.2595C31.841 61.2595 33.865 61.1395 36.777 67.4115C38.369 70.8515 39.001 71.1315 37.953 72.3315C36.889 73.5475 34.897 74.8035 31.809 75.7555C28.233 76.8515 28.393 79.9555 28.393 81.5155C28.393 81.5155 28.009 85.4115 27.257 87.5955C26.513 89.7875 26.201 90.3635 24.529 90.3235C22.857 90.3635 22.553 89.7795 21.801 87.5955C21.057 85.4115 20.665 81.5155 20.665 81.5155C20.665 79.9555 20.817 76.8515 17.249 75.7555C14.193 74.8035 12.193 73.5475 11.129 72.3315ZM11.329 60.9315C11.225 62.2275 11.953 63.0595 13.017 63.2755C13.017 63.2755 14.121 61.3155 15.337 60.6595C15.337 60.6595 11.081 55.2835 9.53697 54.3555C9.53697 54.3635 11.617 57.1635 11.329 60.9315ZM36.089 63.2755C37.153 63.0595 37.873 62.2275 37.777 60.9315C37.489 57.1555 39.569 54.3635 39.569 54.3635C38.025 55.2915 33.769 60.6675 33.769 60.6675C34.985 61.3155 36.089 63.2755 36.089 63.2755ZM75.769 89.4115L77.161 88.5155C77.233 88.4675 78.577 87.6115 80.649 86.7315C80.441 86.6755 80.233 86.6195 80.049 86.5875L78.145 86.2675C78.145 86.2675 78.993 85.3875 79.281 85.0915C77.945 85.1715 76.313 85.2275 74.777 85.1715L71.529 85.0515L74.265 83.2995C74.793 82.9635 77.313 81.0515 78.601 79.2675C77.065 79.3955 75.201 79.6675 73.705 80.2195L72.657 80.6115L72.353 79.5475C72.313 79.4035 72.281 79.2195 72.273 79.0195C71.225 79.2035 69.713 79.6595 68.137 80.7715L66.385 82.0035C66.385 82.0035 66.441 81.0515 66.481 80.4435C66.481 80.4435 61.913 82.1075 58.913 84.2195C58.913 84.2195 58.969 82.8515 58.625 82.3715C58.625 82.3715 57.689 82.7155 56.641 83.2195C56.745 83.3315 56.849 83.4435 56.945 83.5635L57.313 83.9875C57.497 83.9075 57.689 83.8355 57.897 83.7635C57.897 83.7635 57.905 84.1715 57.905 84.6835L58.689 85.6115L59.001 85.9795H58.169C57.937 86.1475 57.817 86.2435 57.817 86.2435C57.825 86.1635 57.841 86.0755 57.849 85.9795H57.089C57.265 86.4275 57.449 86.9315 57.617 87.5075C57.625 87.5395 57.633 87.5715 57.641 87.5955C58.249 89.7075 58.553 92.1235 58.553 94.8115C58.553 96.3955 58.449 98.0755 58.233 99.8355L57.969 102.147C58.257 102.411 58.705 102.811 59.265 103.259C59.561 102.987 59.873 102.707 60.185 102.427C59.513 101.619 59.081 100.763 58.817 100.051C59.593 100.779 60.345 101.315 60.977 101.707C61.321 101.387 61.673 101.067 62.033 100.747C61.577 99.3955 61.393 98.2435 61.393 98.2435C61.393 98.2435 61.897 99.1875 62.657 100.171C66.729 96.4675 71.041 92.5555 71.041 92.5555H78.497L79.393 91.7555C79.577 91.5955 80.025 91.2035 80.609 90.7475C79.129 90.7235 77.785 90.5875 77.193 90.2435L75.769 89.4115ZM21.441 118.595C20.025 116.643 20.169 114.635 19.833 113.763C19.497 112.883 17.857 110.771 17.393 110.371C16.473 109.035 13.569 108.403 13.569 108.403C14.929 108.051 16.001 108.139 16.809 108.387C16.801 108.355 16.785 108.315 16.777 108.283C15.641 107.515 12.641 105.491 10.249 100.563C9.86497 101.019 8.94497 102.115 8.94497 102.115L8.01697 99.8435C7.43297 98.4195 7.24097 96.7075 7.24097 95.0355C7.24097 93.7155 7.36097 92.4115 7.52097 91.2915C7.03297 91.5955 6.52897 91.9075 6.52897 91.9075V89.2595C6.52897 87.8515 6.78497 86.4675 7.17697 85.1715C6.40097 85.1795 5.73697 85.2115 5.25697 85.2435C4.74497 85.2835 4.44097 85.3155 4.44097 85.3155C4.44097 83.9795 5.45697 82.0195 5.45697 82.0195C5.30497 81.9875 5.16097 81.9635 5.02497 81.9315C4.75297 81.8675 4.50497 81.8035 4.27297 81.7395C3.12097 83.7875 2.10497 86.3475 1.79297 89.2835C1.79297 89.2835 2.92897 89.6195 3.31297 89.1795C3.31297 89.1795 3.12897 95.1475 3.21697 96.4915C3.29697 97.6835 7.61697 106.523 8.70497 110.499C9.71297 109.451 10.841 109.331 10.841 109.331C8.68097 110.883 8.90497 114.267 8.90497 114.267C8.98497 115.099 9.40897 116.363 10.969 119.859C11.337 120.675 11.601 121.467 11.801 122.235C11.801 122.227 11.793 122.211 11.793 122.195C11.753 122.059 11.761 121.411 11.977 120.659C11.889 119.795 11.905 118.003 13.441 117.067C13.441 117.067 13.089 117.763 13.393 118.539C13.833 118.235 14.401 118.019 15.113 117.979C15.649 117.939 16.865 118.099 18.513 119.363C18.401 118.995 18.145 118.299 17.745 117.827C17.745 117.827 19.617 118.347 20.409 121.163C20.545 121.315 20.681 121.475 20.825 121.643C21.665 121.771 22.241 122.043 22.625 122.299C22.553 121.243 22.273 119.739 21.441 118.595ZM23.993 118.571C23.329 117.515 23.089 116.491 23.089 115.579C23.089 114.355 23.529 113.339 23.969 112.715C24.569 111.507 25.089 110.059 25.553 108.539C22.945 109.731 20.529 109.851 18.801 109.691C19.585 110.571 20.873 112.307 21.225 113.235C21.377 113.635 21.449 114.067 21.529 114.571C21.681 115.491 21.857 116.643 22.649 117.731C23.705 119.187 24.041 121.011 24.137 122.251C24.257 121.483 24.353 120.699 24.353 120.251C24.345 119.579 24.249 118.979 23.993 118.571ZM28.361 107.875C28.361 107.875 29.113 106.667 29.113 106.251C28.529 106.747 27.953 107.171 27.377 107.547C27.033 108.819 26.641 110.091 26.209 111.259C28.425 110.395 31.449 106.715 31.449 106.715C28.713 111.707 25.369 113.251 25.369 113.251C25.337 113.323 25.297 113.395 25.265 113.459C25.265 113.459 23.745 115.363 25.265 117.787C26.017 118.979 25.801 121.443 25.489 123.267H26.177C26.729 121.763 30.953 110.267 32.777 105.299C31.241 106.355 29.721 107.131 28.361 107.875ZM54.633 84.4995H55.817C53.169 81.3955 48.641 79.0915 45.049 77.6355C45.073 78.4355 45.417 79.9235 47.457 80.4755C47.457 80.4755 46.665 81.2435 44.553 81.8035C44.265 81.8755 43.961 81.9555 43.625 82.0115C43.625 82.0115 44.641 83.9635 44.641 85.3075C44.641 85.3075 43.625 85.1875 42.161 85.1635C41.697 85.1555 41.185 85.1555 40.641 85.1795C41.121 86.1075 41.505 87.0435 41.713 87.9555C42.073 89.5395 42.113 91.0995 41.961 92.5555H43.153C43.513 90.8195 43.617 89.1955 43.553 87.7075C44.945 89.5075 44.681 92.2995 44.657 92.5395V92.5555H51.185C51.185 92.5555 53.217 98.1795 54.745 102.419C55.465 100.451 56.001 98.8755 56.001 98.8755L56.777 99.6435C58.105 88.5235 54.633 84.4995 54.633 84.4995ZM25.937 131.019C26.057 130.739 26.161 130.419 26.233 130.067H38.649C38.881 129.435 39.249 128.451 39.649 127.363H38.625C38.369 128.059 38.145 128.667 37.977 129.107H26.361C26.369 128.875 26.369 128.635 26.353 128.379C26.313 127.779 26.193 127.123 25.953 126.411H28.353C29.169 124.195 37.153 102.459 37.969 100.243H37.777C38.113 99.7395 38.425 99.2035 38.729 98.6275C39.129 99.5715 39.001 101.003 39.001 101.003C39.057 100.883 40.457 98.7555 41.337 95.6995H48.977C48.977 95.6995 53.849 109.195 54.721 111.619C57.385 109.195 72.233 95.6995 72.233 95.6995H84.201L82.529 100.211H79.841C79.025 102.427 70.977 124.195 70.153 126.411H72.841L71.737 129.403L71.137 131.027H55.753L57.377 126.411H60.065C60.705 124.675 64.153 115.563 65.809 111.091C61.169 115.307 49.425 125.987 49.425 125.987C49.425 125.987 45.529 115.283 44.001 111.075C42.353 115.539 38.977 124.683 38.329 126.411H41.017L39.313 131.019H25.937ZM87.409 120.139H92.345C92.297 118.899 92.065 116.363 91.993 114.539C90.585 116.355 88.369 118.899 87.409 120.139ZM98.625 111.883C98.705 113.891 99.145 125.459 99.177 126.411H100.729L99.025 131.019H89.025L90.729 126.411H91.969C91.937 125.515 91.913 124.843 91.897 124.331H84.897C84.497 124.843 83.985 125.515 83.289 126.411H84.489L82.785 131.019H72.817L74.521 126.411H76.113C76.849 125.459 85.817 113.891 87.369 111.883H85.881L87.585 107.275H101.409L99.705 111.883H98.625ZM136.337 131.019L138.041 126.411H136.241C136.793 124.923 141.057 113.371 141.609 111.883H143.417L145.121 107.275H134.793L133.089 111.883H134.897C134.345 113.371 130.073 124.915 129.529 126.411H127.721L126.017 131.019H136.337ZM121.633 115.347C121.833 114.803 122.321 113.491 122.521 112.955C122.257 112.651 121.809 112.123 121.609 111.883H116.273C115.865 112.979 115.001 115.331 114.593 116.427H119.929C120.313 116.179 121.153 115.651 121.633 115.347ZM127.777 116.899C127.777 116.899 125.953 118.043 124.913 118.699C125.473 119.355 126.449 120.499 126.449 120.499C126.449 120.499 124.753 125.091 124.265 126.403H126.073L124.369 131.011H115.849C115.849 131.011 118.865 122.843 119.153 122.075C118.889 121.771 118.441 121.259 118.241 121.027H112.897C112.465 122.195 111.345 125.235 110.913 126.395H112.721L111.017 131.003H100.697L102.401 126.395H104.209C104.761 124.907 109.025 113.355 109.577 111.867H107.769L109.473 107.259H126.809L129.969 110.987L127.777 116.899ZM167.521 113.339L167.361 113.771H172.593C172.593 113.771 173.177 112.163 173.289 111.875H176.617C176.065 113.363 171.801 124.907 171.249 126.403H169.441L167.737 131.011H178.097L179.801 126.403H177.993C178.545 124.915 182.809 113.363 183.361 111.875H186.721C186.617 112.163 186.025 113.755 186.025 113.755H191.225L193.617 107.267H169.753L168.497 110.675L167.521 113.339ZM144.481 113.435L142.881 117.763L146.041 121.491H154.777C154.985 121.731 155.433 122.259 155.689 122.563C155.481 123.131 154.873 124.763 154.665 125.331C154.177 125.635 153.353 126.147 152.969 126.379H147.705C147.497 126.139 147.057 125.635 146.785 125.331C146.961 124.867 147.057 124.603 147.057 124.603H140.345L140.249 124.851H140.257L139.361 127.275L142.513 130.987H154.769L160.689 127.267L163.153 120.595L159.993 116.875H151.217C151.009 116.635 150.569 116.131 150.297 115.827C150.513 115.243 151.153 113.507 151.369 112.931C151.857 112.627 152.689 112.099 153.073 111.859H158.329C158.537 112.099 158.977 112.627 159.241 112.931C159.065 113.411 158.937 113.747 158.937 113.747H165.689L166.721 110.971L163.553 107.243H151.297L145.393 110.955L144.481 113.427V113.435Z" fill="#C8102E"/>
<path d="M17.8647 74.5191C13.4247 73.1991 12.0007 71.2391 12.0007 71.2391C15.2647 63.7991 16.9767 62.8551 16.9767 62.8551C16.9767 62.8551 15.3767 65.6231 14.8727 67.4871C14.3687 69.3511 16.8407 71.0391 16.8407 71.0391C15.8967 71.0391 13.7207 70.2551 13.7207 70.2551C13.7207 71.5111 17.5287 72.5991 17.5287 72.5991C23.0967 74.8631 22.8407 77.7511 22.8407 78.3671C22.8407 78.9751 23.8247 78.2231 23.8247 78.2231C23.4247 79.4231 23.0647 79.6791 23.0647 79.6791C22.5207 82.3671 23.7447 88.7271 23.7447 88.7271C22.9367 87.8791 22.0567 82.6231 22.0567 81.4471C22.0567 80.2711 22.3047 75.8471 17.8647 74.5191ZM36.2727 61.9351C36.2727 61.9351 36.8007 61.8551 37.0807 57.8711C35.7607 59.6231 35.2007 60.5511 35.2007 60.5511C35.2007 60.5511 36.0727 61.2071 36.2727 61.9351ZM64.2327 83.5831C64.2327 83.5831 63.3687 85.0391 63.9287 87.5111C63.9287 87.5111 64.2647 85.6311 66.7367 84.2391C66.7367 84.2391 69.5527 82.2951 70.4967 81.9111C70.4967 81.9111 69.4567 84.0551 69.4167 85.7831C69.4167 85.7831 70.6647 82.8711 76.3367 80.5911C75.8807 80.5111 71.9607 81.9591 71.9607 81.9591C72.0007 81.7431 71.7927 80.3191 71.7927 80.3191C69.6487 80.7271 65.1607 84.4391 65.2247 84.0631C65.2887 83.6871 65.3527 81.9831 65.3527 81.9831C62.4647 83.1191 59.9527 84.7271 58.6807 85.6071L58.9927 85.9751H58.1607C57.9287 86.1431 57.8087 86.2391 57.8087 86.2391C57.8167 86.1591 57.8327 86.0711 57.8407 85.9751H57.0887C57.2647 86.4231 57.4487 86.9271 57.6167 87.5031C57.6247 87.5351 57.6327 87.5671 57.6407 87.5911C58.0967 87.2231 58.6807 86.7991 59.4567 86.3271C62.5927 84.3831 64.2327 83.5831 64.2327 83.5831ZM57.8887 83.7591C57.6807 83.8311 57.4887 83.9031 57.3047 83.9831L57.8967 84.6791C57.8967 84.1671 57.8887 83.7591 57.8887 83.7591ZM4.12867 87.1591C4.12867 87.1591 3.79267 95.8231 3.96867 96.4391C3.96867 96.4391 6.87267 103.319 7.92067 106.087L5.08067 96.2791C5.08067 96.2791 4.75267 90.3031 5.28067 85.2391C4.76867 85.2791 4.46467 85.3111 4.46467 85.3111C4.46467 83.9751 5.48067 82.0151 5.48067 82.0151C5.32867 81.9911 5.18467 81.9591 5.04867 81.9271C4.13667 83.5511 3.09667 85.8871 2.64067 88.6631C2.63267 88.6711 3.65667 87.7031 4.12867 87.1591ZM16.6327 110.919C12.6967 108.391 9.81667 112.231 9.81667 112.231C14.2487 109.767 16.0727 111.495 17.2807 113.991C18.4887 116.487 20.6327 118.119 20.6327 118.119C20.6327 118.119 18.7847 115.671 18.4407 114.175C17.8647 111.703 16.6327 110.919 16.6327 110.919ZM25.9607 117.551C25.9607 117.551 26.4247 118.423 26.4247 118.911C26.4247 118.911 26.8647 117.423 26.3127 116.143C25.7687 114.871 27.1767 113.359 28.3687 112.183C28.3687 112.183 26.5607 113.431 25.9607 113.783C25.9607 113.775 24.4967 115.415 25.9607 117.551ZM50.9927 83.1511L49.1127 83.2231C54.9767 88.0231 55.7927 96.8311 55.7927 96.8311C56.5527 89.1831 52.1287 84.1431 52.1287 84.1431L53.6007 84.0951C52.0567 82.5591 49.1767 81.0311 49.1767 81.0311L50.9927 83.1511Z" fill="#D9586D"/>
<path d="M70.4731 127.365H71.4971C71.0971 128.453 70.7291 129.437 70.4971 130.069H57.0971C57.2171 129.741 57.3291 129.421 57.4331 129.109H69.8251C69.9851 128.669 70.2091 128.061 70.4731 127.365ZM78.5291 98.2925L68.1371 126.405H69.1611L79.2011 99.2525H81.8891C82.1211 98.6285 82.4571 97.7085 82.8491 96.6445H81.8251C81.5851 97.3005 81.3691 97.8685 81.2171 98.2925H78.5291ZM66.9531 106.957C66.9531 106.957 51.9531 120.821 49.4011 123.141C49.5931 123.661 49.7371 124.069 49.8331 124.317C51.6731 122.645 65.8491 109.685 65.8491 109.685L66.9531 106.957ZM47.3531 96.6445C48.6651 100.277 53.1211 112.845 53.1211 112.845C53.1211 112.845 53.7371 112.245 53.8891 112.101C52.5771 108.461 48.6571 97.6125 48.3131 96.6525H47.3531M43.8491 108.741C43.5291 107.877 43.3371 107.341 43.3371 107.341L36.2891 126.405H37.3131L43.8491 108.741ZM92.1771 111.269L92.2411 112.661L86.1931 120.149H84.9851L92.1771 111.269ZM96.6411 109.989L97.2651 126.421H98.2171L97.6251 110.933H99.0331C99.2651 110.301 99.6331 109.317 100.033 108.229H99.0091C98.7531 108.933 98.5211 109.549 98.3611 109.989H96.6411ZM87.2491 110.925C87.3691 110.597 87.4891 110.285 87.6011 109.981H88.6411L87.9131 110.925H87.2491ZM82.1131 130.069H74.1851C74.3051 129.741 74.4251 129.429 74.5371 129.125H81.4491C81.6091 128.685 81.8411 128.069 82.1051 127.365H83.1291C82.7131 128.445 82.3451 129.429 82.1131 130.069ZM84.4251 123.373L82.0651 126.421H80.8571L83.9451 122.429H92.1451L92.1771 123.373H84.4251ZM98.3611 130.069H90.3931C90.5131 129.741 90.6331 129.429 90.7451 129.125H97.6891C97.8491 128.685 98.0811 128.069 98.3371 127.365H99.3611C98.9611 128.445 98.5931 129.429 98.3611 130.069ZM134.457 110.925C134.585 110.589 134.697 110.261 134.817 109.957H135.609L135.249 110.925H134.457ZM134.217 126.397H135.233L140.953 110.933H142.753C142.985 110.301 143.353 109.317 143.753 108.229H142.745C142.489 108.925 142.265 109.525 142.105 109.965H140.297L134.217 126.397ZM127.745 129.093C127.633 129.405 127.513 129.725 127.385 130.061H135.673C135.905 129.429 136.273 128.445 136.673 127.357H135.657C135.401 128.053 135.177 128.653 135.017 129.093H127.745ZM125.353 120.701C125.113 121.349 123.873 124.709 123.249 126.397H122.209C122.209 126.397 124.193 121.021 124.633 119.845C124.929 120.197 125.209 120.525 125.353 120.701ZM126.201 115.645C125.753 115.925 122.937 117.685 122.937 117.685C122.937 117.685 123.145 117.933 123.561 118.421C124.073 118.101 126.593 116.517 126.993 116.261C127.177 115.765 128.569 112.005 128.873 111.189C128.713 111.005 128.449 110.693 128.145 110.341C127.777 111.341 126.377 115.173 126.201 115.645ZM112.545 116.413H113.585L115.609 110.933H122.049L121.369 109.965H114.929L112.545 116.413ZM109.889 110.925L110.249 109.957H109.481C109.369 110.269 109.249 110.589 109.121 110.925H109.889ZM110.305 127.365C110.049 128.053 109.825 128.661 109.665 129.101H102.409C102.297 129.413 102.177 129.733 102.049 130.069H110.337C110.569 129.437 110.937 128.453 111.337 127.365H110.305ZM118.665 120.085L117.985 119.117H111.545L108.849 126.397H109.889L112.225 120.085H118.665ZM123.697 130.069C123.929 129.437 124.297 128.453 124.697 127.365H123.657C123.401 128.053 123.177 128.661 123.017 129.101H117.569C117.433 129.477 117.305 129.813 117.209 130.069H123.697ZM178.425 127.365C178.025 128.453 177.657 129.437 177.425 130.069H169.097C169.217 129.733 169.337 129.413 169.457 129.109H176.753C176.913 128.669 177.137 128.061 177.393 127.373H178.425V127.365ZM187.753 111.845C187.601 112.261 187.441 112.685 187.401 112.805H190.569C190.865 112.013 191.721 109.677 192.257 108.221H191.233C190.729 109.589 190.137 111.205 189.897 111.837H187.753V111.845ZM182.025 109.965L175.953 126.397H176.977L182.697 110.925H187.065C187.241 110.445 187.417 109.957 187.417 109.957H182.025V109.965ZM171.953 109.965C171.953 109.965 171.465 111.293 171.257 111.861H169.081C168.953 112.205 168.833 112.533 168.729 112.821H171.929C172.137 112.261 172.625 110.925 172.625 110.925H176.961L177.321 109.957H171.953V109.965ZM161.377 119.981C161.673 120.325 161.929 120.629 162.089 120.813C161.777 121.661 160.121 126.149 159.929 126.661C159.449 126.965 154.929 129.813 154.521 130.061H142.977L142.169 129.109H153.857C154.265 128.853 158.785 126.005 159.265 125.701C159.441 125.213 160.977 121.053 161.377 119.981ZM160.345 112.765C160.345 112.765 160.329 112.813 160.321 112.821H165.033C165.241 112.253 165.457 111.685 165.641 111.189C165.481 111.005 165.225 110.701 164.929 110.357C164.753 110.829 164.561 111.349 164.369 111.869H160.513L160.345 112.765ZM154.561 119.605C154.561 119.605 146.505 119.629 145.713 119.629L146.489 120.557H155.225L154.561 119.605ZM148.561 115.093L149.281 115.917L149.425 115.517L150.609 112.325L152.825 110.933H158.937L158.129 109.981H152.433H152.161L149.945 111.373L148.761 114.565L148.561 115.093Z" fill="black"/>
</g>
<defs>
<clipPath id="clip0_154_2420">
<rect width="200" height="200" fill="white"/>
</clipPath>
</defs>
</svg>
