<svg width="200" height="200" viewBox="0 0 200 200" fill="none" xmlns="http://www.w3.org/2000/svg">
<g clip-path="url(#clip0_154_2446)">
<path d="M186.508 81.1934C190.719 77.9085 194.882 76.201 200 72.9117C194.806 69.4427 172.85 55.4016 168.715 52.5254C168.721 52.5139 177.199 33.8678 179.617 30.5962C175.227 30.4485 170.296 31.4995 170.296 31.4995C170.296 31.4995 170.953 27.2263 172.131 24.1281C158.7 27.9102 149.364 21.697 135.847 17.5397C122.683 13.4869 101.262 13.9054 99.5373 1.9698L99.4161 1.86807C97.7591 14.1336 76.9932 13.5364 63.7598 17.6114C50.2415 21.7668 40.7088 27.3891 27.279 23.607C28.2867 25.9117 29.9526 31.1934 29.9526 31.1934C29.9526 31.1934 25.0655 31.0403 20.7791 31.6525C23.0926 35.9708 31.4778 52.5838 31.4831 52.5953C27.3471 55.4723 5.1941 69.5126 0 72.9815C5.11802 76.2718 9.08415 77.9784 13.2954 81.2642C7.43418 86.4804 7.22803 96.3776 6.38402 101.645C5.5409 106.911 6.89185 124.737 6.89185 124.737C6.89185 124.737 14.319 121.537 17.0226 119.987C24.6709 125.515 33.5878 123.655 39.9913 124.868C44.4007 125.704 60.2856 129.065 69.6723 138.826C78.6229 148.135 97.5768 193.662 99.3612 197.873L99.493 198.039C101.261 193.831 120.983 148.065 129.934 138.756C139.32 128.994 155.161 124.571 159.616 124.009C167.995 122.951 175.556 124.858 182.585 119.719C185.287 121.27 192.714 124.469 192.714 124.469C192.714 124.469 194.065 106.841 193.221 101.573C192.378 96.3059 192.369 86.4096 186.508 81.1934Z" fill="#005EB8"/>
<path d="M99.4015 8.86182C97.8647 20.1622 78.5835 17.2196 66.1879 21.0371C53.5269 24.9298 46.6288 31.4881 34.0501 27.9458C35.7142 28.9198 41.2905 39.6027 42.5141 40.3158C37.9649 39.2665 32.1763 37.6191 28.8852 37.3272C31.7852 40.3962 37.6137 53.7934 37.619 53.8049C33.7449 56.4988 12.9959 69.6499 8.13086 72.8994C12.9242 75.98 16.4542 77.5795 20.3982 80.6565C14.9095 85.541 13.2392 94.8109 12.4491 99.7449C11.6591 104.678 12.3704 116.204 12.3704 116.204C12.3704 116.204 19.8797 113.207 22.4127 111.755C24.9367 118.944 37.9286 118.329 43.926 119.466C48.0567 120.248 62.9339 125.426 71.7252 134.57C80.5174 143.714 99.4422 189.613 99.4422 189.613L99.5041 189.547C99.5041 189.547 119.376 143.648 128.168 134.504C136.96 125.361 151.837 120.182 155.969 119.4C161.965 118.264 174.958 118.878 177.481 111.688C180.014 113.141 187.523 116.138 187.523 116.138C187.523 116.138 188.235 104.612 187.444 99.6786C186.654 94.7446 184.983 85.4755 179.496 80.5902C183.44 77.5132 186.969 75.9145 191.762 72.8322C186.898 69.5844 166.149 56.4324 162.275 53.7385C162.281 53.7279 168.109 40.3299 171.01 37.2608C167.718 37.5528 161.93 39.201 157.38 40.2503C158.603 39.5372 164.18 28.8535 165.845 27.8794C153.265 31.4227 146.367 24.8643 133.706 20.9716C121.374 17.1736 101.138 19.9242 99.5138 8.9494" fill="black"/>
<path d="M148.555 91.1188C144.798 89.2096 129.116 90.4101 126.41 89.0804C120.714 86.129 123.44 72.5621 118.64 65.6631C114.223 59.3039 103.451 58.8412 99.4676 52.5739C95.4873 58.8412 84.7169 59.3039 80.3013 65.6631C75.5035 72.5621 78.2276 86.129 72.5345 89.0804C69.822 90.4101 54.1388 89.2096 50.3832 91.1188C46.1826 93.2598 43.7223 95.9439 46.4419 98.8422C50.1196 102.766 72.9804 101.725 81.3488 116.58C87.0268 126.655 99.4561 173 99.4561 173C99.4561 173 110.854 128.536 117.591 116.58C125.96 101.725 148.816 102.766 152.5 98.8422C155.221 95.9439 152.761 93.2598 148.555 91.1188Z" fill="#FFCF00"/>
<path d="M103.686 65.8702C103.337 65.8511 103.04 65.9219 102.822 66.1038C101.611 67.1152 102.015 70.7616 101.856 72.1226C101.582 74.4108 102.449 76.4768 102.449 78.8499L103.448 69.976C105.901 65.2913 107.521 74.4526 109.795 71.969C111.12 70.5139 106.126 66.0019 103.686 65.8702ZM94.7284 66.0924C92.2873 66.2241 87.2898 70.7354 88.6197 72.1842C90.8944 74.6741 92.5131 65.5149 94.9662 70.1968L95.9641 79.0728C95.9641 76.699 96.8283 74.6309 96.5629 72.3448C96.4001 70.9789 96.805 67.3332 95.5926 66.326C95.3739 66.1441 95.0766 66.074 94.7284 66.0924ZM52.9413 94.9508C50.5384 94.9579 48.5064 95.1426 47.839 95.6402C45.6825 97.2482 56.0463 98.0508 57.4604 98.2242C62.6752 98.8641 65.3392 99.2109 70.1088 100.859C75.1587 102.603 78.0393 107.977 80.3339 110.441L78.4052 97.9985C78.4052 97.9985 66.0923 96.3494 63.4615 95.7534C61.9851 95.4172 56.9465 94.9381 52.9413 94.9508ZM145.544 95.2629C141.539 95.2509 136.498 95.7287 135.024 96.0634C132.391 96.6601 120.081 98.3085 120.081 98.3085L118.151 110.751C120.448 108.284 123.328 102.917 128.38 101.171C133.151 99.5202 135.813 99.1776 141.027 98.5378C142.44 98.3608 152.806 97.5582 150.646 95.9516C149.979 95.4548 147.948 95.2707 145.545 95.2629H145.544Z" fill="black"/>
<path d="M99.3677 16.7266C99.3677 16.7266 95.1848 24.2678 70.3883 27.6346C59.0372 29.1761 53.569 37.1901 42.7508 33.9521C44.1819 34.8418 48.9785 44.6103 50.0302 45.2615C46.5515 47.7825 40.0521 43.5671 37.2218 43.2996C39.7145 46.108 45.8162 57.5844 45.8204 57.5929C45.3703 56.6926 20.1866 72.6987 19.0117 72.2471C23.0884 73.8141 27.3371 74.4737 31.2065 76.3967C26.6733 84.1503 22.1386 91.8734 23.0368 101.483C26.2592 100.277 30.2397 98.1973 33.9809 98.5144C28.6359 110.938 34.8501 112.054 44.7517 113.898C54.7057 115.752 67.7894 120.859 79.7457 133.871C75.1742 102.572 31.566 113.122 38.248 91.6703C40.4315 84.6578 60.3565 79.2207 64.8593 81.4933C64.8175 81.47 57.9175 77.9722 53.9816 74.4723C45.6697 67.084 52.5767 59.1209 45.9974 51.332C52.9087 58.813 65.2974 60.2109 74.5096 68.1541C80.0019 54.2034 94.7432 54.5523 99.4003 40.6065C104.053 54.6217 118.802 54.134 124.293 68.089C133.505 60.1472 145.424 58.985 152.331 51.5061C145.753 59.2929 152.66 67.2567 144.348 74.6464C140.41 78.1435 133.511 81.6413 133.469 81.6632C137.973 79.3941 159.057 84.1602 160.666 91.3051C166.242 116.057 123.948 101.519 118.823 134.062C125.592 123.543 143.624 115.926 153.577 114.074C163.479 112.225 169.693 111.113 164.348 98.6828C168.092 98.3728 172.071 100.447 175.294 101.653C176.193 92.0426 171.659 84.3258 167.126 76.5716C170.993 74.6486 175.244 73.984 179.322 72.4205C178.146 72.8707 152.962 56.8674 152.509 57.7634C152.517 57.7578 158.617 46.2821 161.109 43.4723C158.281 43.7391 151.78 47.9531 148.301 45.4306C149.352 44.7837 154.146 35.018 155.58 34.1213C144.76 37.3636 140.378 29.3375 127.944 27.5695C103.567 24.1036 99.3663 16.7266 99.3663 16.7266H99.3677ZM56.0518 61.0404C55.8063 64.0003 55.7426 68.4167 59.1986 70.0934C62.845 71.8642 68.0739 71.2124 69.8879 68.2447C69.2693 68.1478 68.5389 68.1782 67.9996 68.2964C65.8615 70.0311 60.9687 70.007 59.435 67.767C58.5453 66.4739 59.4732 65.0329 59.0988 63.7886C58.7583 62.6513 57.2536 61.8656 56.0518 61.0404ZM67.9996 68.2964C68.0378 68.2652 68.081 68.2383 68.1171 68.2065L67.6677 68.3806C67.7625 68.3466 67.8828 68.3219 67.9996 68.2964ZM142.562 61.0404C141.368 61.8656 139.867 62.6513 139.519 63.7886C139.148 65.0329 140.074 66.4739 139.187 67.767C137.65 70.007 132.754 70.0311 130.615 68.295C130.075 68.1775 129.349 68.1478 128.729 68.2447C130.545 71.2124 135.771 71.8642 139.423 70.0934C142.873 68.4167 142.817 64.0003 142.562 61.0404ZM130.615 68.295C130.734 68.3204 130.855 68.3459 130.952 68.3806L130.499 68.2065C130.534 68.2376 130.577 68.2645 130.615 68.295ZM99.3252 72.8027L96.9726 139.169L96.342 148.114L99.4619 161.877L102.664 147.969C102.664 147.969 102.417 142.445 102.274 139.169L99.3252 72.8027Z" fill="white"/>
</g>
<defs>
<clipPath id="clip0_154_2446">
<rect width="200" height="200" fill="white"/>
</clipPath>
</defs>
</svg>
