<svg width="200" height="200" viewBox="0 0 200 200" fill="none" xmlns="http://www.w3.org/2000/svg">
<path d="M185.074 95.039V68.0816L164.167 49.1515H138.518L138.525 28.3556L117.145 11.918H12.8379V40.5672L22.9191 40.5602L23.0026 122.442H12.8379V150.743H64.9565L64.8799 122.442H54.7152V110.544H68.0616V166.283L90.612 185.971H163.227L185.067 166.234V139.631H153.682L153.703 157.385H100.491V110.544H114.464L138.518 87.2971V77.2716H153.682V95.032H185.074V95.039ZM104.829 81.1147H100.429V77.2785H104.829V81.1147ZM104.829 49.2142H90.5424L68.0546 72.6696V81.1077H54.6525L54.6386 40.5672L104.829 40.5533V49.2142Z" fill="#9D2235"/>
<path d="M115.098 17.9425L132.51 31.3307L132.504 51.6671V55.176H161.856L179.059 70.7573V89.019H159.719V74.7675V71.2586H156.21H136.019H132.51V84.7512L112.042 104.531H97.9852H94.4763V163.409H159.739V159.901L159.725 145.656H179.059V163.57L160.916 179.958H92.868L74.0842 163.556V108.047V104.538H70.5753H52.2091H48.7002V128.473H58.8719L58.9137 144.73H18.8605V128.473H29.0322L29.0252 124.965L28.9347 38.0492V34.5403H25.4258H18.8605V17.9425H115.098ZM48.6306 87.1392H74.0842V83.6303V75.1017L93.1187 55.2387H110.851V51.7298V38.0561V34.5472H107.342L52.1326 34.5611H48.6236V38.0701L48.6306 83.6303V87.1392ZM94.4136 87.1392H110.851V83.6303V74.7675V71.2586H107.342H97.9226H94.4136V87.1392ZM116.289 14.4336H15.3516V38.0631L25.4258 38.0561L25.5163 124.965H15.3516V148.246H62.4365L62.3808 124.965H52.2161V108.047H70.5822V165.15L91.5592 183.467H162.274L182.575 165.129V142.147H156.217L156.23 159.901H97.9852V108.04H113.455L136.012 86.2411V74.7675H156.203V92.5279H182.561V69.2048L163.2 51.6741H136.005L136.012 29.6041L116.289 14.4336ZM52.1395 83.6303L52.1326 38.0701L107.342 38.0561V51.7298H91.6218L70.5753 73.6884V83.6303H52.1395ZM97.9226 74.7675H107.342V83.6303H97.9226V74.7675Z" fill="#B2B4B2"/>
<path d="M180.772 90.7385V69.9982L162.51 53.4632H134.216L134.223 30.4881L115.683 16.2227H17.1406V36.2667L27.2148 36.2597L27.3054 126.747H17.1406V146.443H60.6331L60.5844 126.747H50.4127V106.243H72.3643V164.328L92.2343 181.671H161.584L180.779 164.321V143.936H158.013L158.027 161.69H96.2027V106.243H112.738L134.23 85.4751V72.978H158.006V90.7385H180.772ZM72.3643 74.4053V85.4194H50.35L50.3361 36.2736L109.131 36.2597V53.5188H92.3805L72.3643 74.4053ZM109.131 85.4194H96.1261V72.978H109.131V85.4194Z" fill="white"/>
<path d="M157.998 70.3436H160.63V88.104H178.139V71.1581L161.5 56.0851H131.59C131.59 47.9812 131.597 39.8772 131.597 31.7733L114.784 18.8516H19.7715V33.6322C23.1272 33.6322 26.483 33.6252 29.8457 33.6252C29.8596 44.4374 29.8666 55.2496 29.8805 66.0618C29.8944 83.0843 29.9153 100.107 29.9292 117.136C29.9362 121.216 29.9362 125.303 29.9432 129.383H19.7715V143.815H57.9936L57.9519 129.383H47.7732V103.616H74.9882V163.135L93.2081 179.043H160.553L178.125 163.163V146.565H160.623C160.63 152.483 160.636 158.401 160.636 164.319H93.5423V103.616H111.644L131.563 84.3653V70.3436H157.998ZM111.762 72.9752V88.0552H93.4936V70.3436H111.762V72.9752ZM111.762 36.2569V56.1478H93.5006L74.9952 75.4607V88.0483H47.7175C47.7175 72.3278 47.7106 56.6073 47.7106 40.8867V33.6461C66.2647 33.6461 84.8188 33.6391 103.373 33.6322H111.769V36.2569H111.762Z" fill="#0060A9"/>
</svg>
