<svg width="200" height="200" viewBox="0 0 200 200" fill="none" xmlns="http://www.w3.org/2000/svg">
<g clip-path="url(#clip0_154_2422)">
<path d="M46.5067 4.06641L58.9561 14.6625C60.8026 17.3528 61.1638 17.9696 57.1403 25.6506C54.9236 29.8851 52.2503 34.9958 51.4941 40.7867L44.9398 48.4353C35.2965 59.6901 33.7575 69.3969 32.528 77.1886C31.7161 82.2986 31.0764 86.3377 28.374 90.2099L28.1158 90.5888L27.9044 91.0059C23.8734 99.0057 16.9614 102.177 11.4129 104.724C6.84466 106.822 2.12884 108.982 1.26494 114.196L0 121.828H7.73575H11.4605C10.5293 122.69 10.2911 123.365 10.0801 124.618L9.77544 126.894H13.0154H84.3338L68.2599 165.001C65.0681 173.076 59.193 175.122 53.5103 177.096C48.4996 178.843 42.8187 180.822 42.0185 187.456L41.5273 191.554H45.65C45.65 191.554 53.7022 191.58 53.7341 191.572C52.381 192.611 51.469 193.965 51.2343 195.931H138.058C139.984 195.685 165.998 196.061 173.529 176.834C173.529 176.834 198.801 115.543 198.801 115.527C199.597 114.42 201.391 105.447 198.048 97.7419C197.997 92.7751 197.058 87.8277 193.627 83.1031C188.831 76.7551 181.774 74.5895 171.713 74.9757L135.535 74.9445C135.535 74.9445 135.286 65.536 129.702 58.9693C143.301 59.6976 150.398 53.5106 153.55 49.455C158.203 43.4733 159.608 35.5527 157.288 28.8907C157.897 24.4651 157.36 19.9629 155.609 15.9316C152.632 9.09201 146.672 4.79104 139.244 4.11822L46.502 4.07531L46.5067 4.06641Z" fill="#003B70"/>
<path d="M57.8808 7.76562L57.8835 7.76833L60.1902 9.82692L61.955 11.3684C62.5847 12.204 63.0644 12.9901 63.4225 13.7621C63.4347 13.786 63.4482 13.8068 63.4604 13.8307C64.3833 15.8406 64.4387 17.7415 63.813 19.9941C63.7901 20.0765 63.7685 20.163 63.7455 20.2468C63.7293 20.3103 63.7036 20.3792 63.6847 20.44C63.1077 22.4211 62.0482 24.6805 60.5199 27.4236C57.9605 32.3181 55.0525 37.8558 55.0957 44.0638V44.2827L55.1335 44.5043C56.7808 54.2946 68.0156 64.6903 75.4506 71.5631C77.4357 73.4009 79.1491 74.99 80.1005 76.044C83.6274 80.2156 81.4423 85.0127 80.3437 86.8843C78.3492 90.2666 75.6587 91.672 74.9466 91.5288L74.6763 91.4788H74.4047C70.9899 91.4788 67.7508 89.6694 65.9589 86.76C63.4955 82.752 63.9009 77.0616 67.0968 70.7334L68.5359 67.905L65.5238 66.8916C61.9739 65.701 54.289 59.9728 52.6025 52.1298L51.4404 46.7137L47.8405 50.9149C38.8975 61.3539 37.5164 70.0834 36.2989 77.7913C35.4476 83.156 34.7124 87.7978 31.5085 92.3869L31.3977 92.5477L31.3112 92.722C26.6789 101.911 18.771 105.546 12.9968 108.188C8.8381 110.099 5.5594 111.6 5.02603 114.815L4.49023 118.006H7.73137H96.9156C113.618 118.054 126.111 106.545 130.32 87.2194C133.496 73.2292 128.903 60.1579 117.385 50.4298C117.385 50.4298 117.281 50.3555 117.119 50.2325L117.1 50.2136C115.831 49.3934 114.734 48.4745 113.791 47.5029C113.695 47.415 113.619 47.3272 113.548 47.2515C116.23 47.6853 120.014 48.3055 120.014 48.3055C136.928 51.0514 145.36 43.8705 148.874 39.3423C153.833 32.9586 155.103 24.371 152.103 17.455C149.698 11.9344 144.847 8.30696 138.847 7.76562H57.8808ZM116.52 31.8069C118.367 31.7393 120.517 32.0569 122.894 32.765C124.741 33.4366 125.653 35.6298 125.43 37.2541C125.064 39.9648 120.809 42.4337 119.344 43.0864L112.559 46.1092C109.613 42.3364 108.886 38.0459 110.192 35.2636C111.211 33.0947 113.442 31.9191 116.52 31.8069ZM135.591 78.4719V78.4746C135.591 78.4746 135.564 80.8232 135.469 83.9029L135.456 84.5637L172.239 84.5772C179.036 84.3177 183.684 85.9745 186.373 89.5433C188.59 92.5756 189.184 96.5796 189.184 99.7552C189.184 102.008 188.887 103.823 188.63 104.606C188.617 104.633 188.563 104.731 188.563 104.731C188.563 104.731 163.171 166.318 163.131 166.426C159.55 175.575 149.455 180.832 133.942 181.615C133.942 181.615 133.575 181.642 133.217 181.669H61.2564C66.4535 180.115 73.9493 175.102 76.5722 168.48L76.5222 168.602L94.2082 126.89H89.1584C81.868 144.17 72.4493 166.251 72.4493 166.251C65.6644 183.426 47.6621 177.872 46.4757 187.723H133.298C135.213 187.466 161.239 187.845 168.766 168.616C168.766 168.616 194.035 107.332 194.035 107.32C194.954 106.029 197.238 94.1715 191.292 85.9785C187.292 80.6935 180.793 78.1909 172.009 78.5301L135.591 78.4719ZM142.537 104.778V104.781C140.118 104.846 136.496 105.975 134.456 111.54C123.26 139.049 116.285 157.71 114.728 158.656C110.398 163.697 104.68 166.129 94.5744 166.845C95.0082 166.886 126.316 168.359 133.496 151.386L150.469 112.191C150.469 112.191 153.861 104.702 145.023 105.083C145.023 105.083 143.996 104.739 142.537 104.778ZM142.537 110.145C143.55 110.116 144.483 110.725 145.307 110.486C145.293 110.486 129.075 147.995 129.075 147.995C127.909 151.657 124.48 154.589 122.216 155.805C127.302 142.657 137.483 118.94 139.212 113.664C140.402 110.851 141.51 110.177 142.537 110.145Z" fill="#0074C8" stroke="#0074C8" stroke-width="0.471216"/>
<path d="M69.0697 13.368C71.1034 18.6971 68.1083 24.7776 65.3822 29.9716C63.054 34.4252 60.6456 39.0264 60.5941 43.7699C62.0627 51.6897 72.7615 61.5857 79.1815 67.5248C81.3505 69.5346 83.0651 71.1256 84.2431 72.4311C88.3024 77.2307 88.6145 83.6774 85.0764 89.6753C82.7363 93.643 78.3887 97.5286 74.2376 96.9633C68.9881 96.9036 64.0305 94.1114 61.2844 89.638C59.4219 86.6133 57.1129 80.3121 61.017 70.852C56.85 68.5755 51.8473 64.1356 49.0217 58.3528C43.7485 65.8986 42.7122 72.37 41.7212 78.6496C40.8536 84.1338 39.9526 89.8077 36.1122 95.383C31.0143 105.345 22.7625 109.711 16.7168 112.52H96.9269C111.067 112.56 121.278 102.909 124.948 86.0548C127.65 74.1435 123.728 63.0108 113.898 54.6759C105.791 49.3271 101.977 39.8168 105.217 32.9237C108.492 25.9511 117.034 24.876 125.582 27.837C129.932 29.4488 131.356 34.5638 130.874 38.0102C130.58 40.1275 129.503 41.9167 128.182 43.3893C135.25 43.1545 140.931 40.6168 144.549 35.9646C148.238 31.2207 149.248 24.6635 147.067 19.6407C145.475 15.9643 142.397 13.7379 138.41 13.3796L138.417 13.3672C137.681 13.411 69.0757 13.3672 69.0757 13.3672L69.0697 13.368ZM135.472 83.9027C135.329 88.5231 134.765 94.2447 134.203 96.7001C129.997 116.023 118.627 126.38 101.923 126.337L94.2063 126.891L76.5527 168.517C73.9143 175.125 66.4391 180.122 61.249 181.662H133.22C133.578 181.635 133.941 181.613 133.941 181.613C149.451 180.833 159.545 175.575 163.131 166.421C163.167 166.318 188.564 104.721 188.564 104.721C188.564 104.721 188.619 104.631 188.639 104.603C188.89 103.819 189.192 102.005 189.192 99.7529C189.192 96.573 188.587 92.575 186.382 89.5423C183.683 85.9765 179.034 84.3215 172.242 84.58L135.452 84.5612L135.471 83.9021L135.472 83.9027ZM142.536 104.772H142.543C143.996 104.733 145.024 105.077 145.024 105.077C153.871 104.699 150.478 112.191 150.478 112.191L133.493 151.385C126.314 168.371 95.0009 166.886 94.5644 166.851C104.669 166.126 110.384 163.683 114.718 158.648C116.274 157.713 123.25 139.046 134.449 111.537C136.491 105.971 140.104 104.838 142.526 104.772L142.536 104.772Z" fill="white"/>
</g>
<defs>
<clipPath id="clip0_154_2422">
<rect width="200" height="200" fill="white"/>
</clipPath>
</defs>
</svg>
