<svg width="200" height="200" viewBox="0 0 200 200" fill="none" xmlns="http://www.w3.org/2000/svg">
<path d="M180.303 20.95C157.694 34.335 121.711 32.4522 99.8292 7.50499C77.9465 32.4522 41.9637 34.335 19.3548 20.95C11.3326 82.2368 24.305 170.333 99.8292 192.559C175.352 170.333 188.324 82.2368 180.303 20.95Z" fill="#412784"/>
<path d="M60.8321 35.9562C48.793 37.5408 36.4672 36.1061 25.6326 32.0681C25.0344 38.9498 24.7109 45.844 24.7109 52.6775C24.7109 76.5277 28.3122 99.6374 35.2404 118.892C47.4911 152.939 69.2311 176.21 99.829 185.906C130.425 176.21 152.166 152.939 164.417 118.892C171.344 99.6374 174.945 76.5277 174.945 52.6775C174.945 45.844 174.623 38.9498 174.024 32.0681C163.189 36.1061 150.863 37.5408 138.824 35.9562C124.092 34.0168 110.514 27.7246 99.829 18.0376C89.1434 27.7246 75.5656 34.0168 60.8321 35.9562Z" fill="white"/>
<path d="M61.6373 42.0839C51.4157 43.4287 41.0595 42.7906 31.255 40.2784C31.0222 44.4915 30.8906 48.6445 30.8906 52.6773C30.8906 76.1464 34.4054 98.3192 41.0545 116.799C52.3485 148.186 72.1305 169.964 99.8279 179.363C127.524 169.964 147.306 148.186 158.6 116.799C165.249 98.3192 168.764 76.1464 168.764 52.6773C168.764 48.6445 168.632 44.4909 168.4 40.2784C158.596 42.7906 148.238 43.4287 138.017 42.0839C123.875 40.2223 110.786 34.7164 99.8279 26.1002C88.8688 34.7164 75.7791 40.2223 61.6373 42.0839Z" fill="#412784"/>
<path d="M45.1074 52.1845V76.4112H57.1252L57.1252 65.9191H92.9872V107.695L106.341 107.695V65.9191L142.204 65.9191V76.4112H154.221V52.1845L45.1074 52.1845Z" fill="white"/>
<path d="M90.8722 80.8495H70.6684L63.3242 88.1941V113.851L71.5748 122.101H124.08V135.979H108.057V148.188H128.659L136.003 140.844V116.331L129.469 109.797H76.7725V94.7747H90.8883L90.8722 80.8495Z" fill="white"/>
<path d="M108.367 80.8251V94.7028H123.747V100.211H136.48V88.2647L129.112 80.8045L108.367 80.8251Z" fill="white"/>
<path d="M90.842 135.835H76.9643V130.112H63.373V140.342L71.2772 148.246H90.842V135.835Z" fill="white"/>
<path d="M106.293 155.721V123.96H92.9874V155.721H87.5508V164.734H111.729V155.721H106.293Z" fill="white"/>
</svg>
