<svg width="200" height="200" viewBox="0 0 200 200" fill="none" xmlns="http://www.w3.org/2000/svg">
<path d="M179.986 7.92578H180.051C173.867 32.4728 167.7 57.0252 161.537 81.5793C156.275 80.0823 151.116 78.2426 146.05 76.1851C145.705 71.2934 145.339 66.4034 144.984 61.5117C144.823 59.3691 144.182 57.2278 142.923 55.4682C141.522 53.4779 139.526 51.9729 137.4 50.8277C131.059 48.0002 124.711 45.1877 118.364 42.3686C120.81 45.007 123.356 47.5514 125.809 50.1847C127.608 52.1469 129.453 54.0941 130.916 56.3289C127.292 55.6137 123.833 54.1087 120.786 52.0249C118.612 50.5597 116.747 48.7032 114.706 47.0677C109.851 43.0733 104.73 39.3233 99.065 36.5545C97.8313 35.9685 96.5839 35.3725 95.2379 35.0944C92.5294 34.4954 89.6431 34.9522 87.1805 36.198C83.9914 37.7713 81.5053 40.5821 80.0825 43.8182C76.1937 51.1843 72.2861 58.542 68.3872 65.903C61.8164 64.3158 55.0682 63.3598 48.2999 63.38C49.4433 58.9572 50.5817 54.5357 51.7185 50.113C52.1404 48.5023 52.5217 46.8819 53.0574 45.3048C54.8052 39.968 57.6026 34.979 61.2288 30.6934C65.2652 25.9154 70.336 22.0166 75.9894 19.3413C81.5204 16.7113 87.6092 15.2667 93.7333 15.1241C105.224 15.1224 116.715 15.1241 128.208 15.1241C135.353 15.1094 142.508 15.2348 149.643 14.7495C156.855 14.2638 164.075 13.3514 171.06 11.4312C174.131 10.5457 177.208 9.53943 179.986 7.92578ZM36.7887 71.5531C47.0377 69.3417 57.7334 70.3408 67.8012 72.9843C80.4843 76.3491 92.3755 82.1901 103.526 89.0255C106.495 90.83 109.373 92.7754 112.299 94.6454C117.979 98.2884 123.741 101.802 129.619 105.118C139.185 110.491 149.049 115.423 159.431 119.022C167.1 121.64 175.136 123.544 183.285 123.398V123.468C180.925 124.754 178.426 125.777 175.866 126.594C168.364 128.961 160.354 129.286 152.571 128.467C150.629 136.188 148.717 143.917 146.73 151.626C144.198 160.605 138.698 168.705 131.296 174.381C125.839 178.591 119.382 181.498 112.607 182.765C109.033 183.464 105.382 183.583 101.75 183.538C86.5211 183.536 71.2919 183.542 56.0628 183.536C50.1883 183.628 44.3104 183.957 38.4796 184.707C33.4256 185.364 28.3917 186.305 23.5247 187.846C21.1812 188.616 18.8356 189.463 16.7148 190.744C17.1666 188.602 17.7694 186.496 18.2832 184.37C24.4958 159.624 30.715 134.881 36.9343 110.138C50.4194 114.015 63.2929 119.8 75.5389 126.609C73.3762 135.19 71.2383 143.777 69.0688 152.357C77.2331 152.36 85.3961 152.355 93.5588 152.36C96.1921 152.438 98.8309 151.618 100.999 150.13C103.55 148.381 105.442 145.684 106.176 142.674C108.365 133.956 110.566 125.241 112.744 116.523C106.908 113.872 101.183 110.984 95.5478 107.931C83.6818 101.621 71.672 95.556 59.3404 90.2025C51.8741 86.9882 44.292 83.995 36.4742 81.745C31.0984 80.2383 25.5738 78.9942 19.9623 79.0261C24.9043 75.2896 30.7519 72.8538 36.7887 71.5531ZM140.094 185.547C141.948 185.547 143.805 185.545 145.66 185.549C145.66 186.021 145.659 186.495 145.66 186.97C145.032 186.97 144.406 186.97 143.78 186.968C143.774 188.671 143.779 190.374 143.777 192.076H141.977V186.972C141.349 186.968 140.722 186.968 140.094 186.97C140.092 186.495 140.092 186.021 140.094 185.547ZM146.623 185.547C147.594 185.549 148.563 185.54 149.534 185.552C149.954 186.592 150.381 187.628 150.813 188.664C151.262 187.625 151.7 186.583 152.152 185.547C153.085 185.547 154.019 185.545 154.953 185.549C154.951 187.724 154.951 189.9 154.951 192.076H153.152C153.138 190.358 153.179 188.639 153.13 186.922C152.452 188.078 152.003 189.356 151.427 190.566C151.002 190.568 150.578 190.568 150.155 190.571C149.567 189.319 149.068 188.023 148.426 186.799C148.228 188.545 148.392 190.318 148.339 192.076H146.623V185.547Z" fill="#0C5741"/>
<path d="M80.707 70.3984C88.0278 70.7281 95.216 72.4492 102.179 74.6605C115.428 78.9746 127.926 85.3864 139.583 92.9786C140.321 93.5109 141.173 93.9261 141.841 94.5323C141.91 97.6861 142.059 100.838 142.103 103.992C132.955 99.6282 124.143 94.5872 115.567 89.1951C113.139 87.6767 110.757 86.0894 108.346 84.5446C99.6073 78.9713 90.3881 74.1182 80.707 70.3984Z" fill="#4C8D40"/>
</svg>
