<svg width="200" height="200" viewBox="0 0 200 200" fill="none" xmlns="http://www.w3.org/2000/svg">
<path d="M86.424 16.8008C83.4647 16.8008 80.7917 18.6352 79.716 21.3768C78.7749 21.5692 74.6415 22.7732 73.502 28.9088L73.3981 29.4612L74.7946 28.8981C74.3726 30.6653 73.5359 36.0161 76.5105 42.7666C76.0759 44.1384 75.9674 45.7771 75.9867 46.9206C75.2072 47.5909 74.2208 48.7351 74.2208 48.7351L75.1041 53.1094L73.9193 54.9684L76.4985 63.7617L77.5255 64.5565L78.082 66.9287C78.082 66.9287 77.3818 66.4854 76.7901 66.4754C74.6248 66.4408 72.4297 70.9096 72.4297 70.9096L81.5737 76.5619L89.2974 78.5587L93.5639 79.5159L93.52 114.829L85.3377 127.164L141.168 130.946L144.107 131.414C144.107 131.414 146.246 121.925 143.943 113.27C149.246 103.988 142.153 92.4266 140.52 88.3524C138.266 82.7101 135.658 77.581 133.404 74.0007C131.268 70.6028 129.499 68.4189 129.499 68.4189C129.499 68.4189 124.62 67.0864 122.682 66.6478C122.672 66.5493 122.076 64.2663 119.398 63.4722C117.864 63.0182 116.789 63.1753 115.862 63.4562C114.205 63.1161 112.907 63.1108 111.956 63.407C111.635 63.5055 111.138 63.6199 110.842 63.783C110.314 63.6739 108.71 63.1314 107.956 63.1314C107.95 63.1314 106.634 63.176 105.052 63.827C105.052 63.827 104.843 63.5754 104.725 63.176C104.607 62.776 104.602 62.4165 104.602 62.4165C105.627 57.8791 106.14 52.6901 106.14 52.6901L104.67 52.0192L104.557 46.259L104.483 46.1406C104.458 46.1013 104.779 45.7805 104.271 45.2227C104.069 44.2223 103.867 43.4582 103.359 42.0378C102.101 38.536 99.0192 34.3095 93.9939 32.7752L93.2524 32.125C94.6901 28.968 94.7746 24.3035 94.7746 24.0998L94.784 23.2618L93.7742 24.4253C93.7097 23.1034 93.2557 21.653 92.7625 20.7851C91.3182 18.2558 89.0085 16.8014 86.416 16.8014L86.424 16.8008Z" fill="white"/>
<path d="M86.4233 17.418C83.6617 17.418 81.1757 19.1638 80.2339 21.7537L80.1693 21.9367L79.977 21.956C79.7939 21.9807 75.568 22.5471 74.2215 28.465L75.761 27.8493L75.5474 28.481C75.5281 28.5449 73.6098 34.3596 77.0676 42.2509C78.2358 39.4201 80.1048 37.0972 82.6301 35.3466C82.6254 35.3267 82.0683 32.3434 83.3309 30.7353C83.6365 30.3553 84.0405 30.143 84.4744 30.143C85.3624 30.143 86.2057 30.971 86.9851 32.609L87.1721 32.2642L87.8624 32.0067C87.1675 28.8158 86.014 27.1291 84.5097 27.1291C82.907 27.1291 81.2642 28.7865 81.2496 28.8011L80.4848 29.6344L81.1258 28.5449C81.2043 28.4217 82.8171 25.5916 85.0415 25.5916C85.4708 25.5916 85.8855 25.6994 86.2802 25.9111C88.3716 27.0452 89.3972 30.1483 89.7227 31.3217L89.9544 31.2372L92.7259 31.8056C93.7223 29.5619 94.0285 26.4589 94.117 24.9652L93.0221 26.2219L93.1353 25.2408C93.283 23.9089 92.7898 22.0892 92.2227 21.0921C90.9015 18.7598 88.7909 17.4186 86.4233 17.4186V17.418ZM98.7403 126.71C84.0125 126.631 66.9278 127.242 49.5456 129.35C40.0548 130.566 30.4907 132.17 21.0938 134.117V148.815C22.0562 148.62 23.0227 148.421 23.9838 148.232C26.372 159.109 28.7655 170.007 31.1676 180.933C31.2888 181.5 31.4133 182.063 31.543 182.635C46.1537 179.311 69.7207 177.088 96.5525 176.904C97.5609 176.895 98.5639 176.892 99.5703 176.892H100.693C101.937 176.892 103.173 176.898 104.4 176.904C105.022 176.911 105.637 176.922 106.255 176.928C107.052 176.937 107.853 176.943 108.643 176.955C117.985 177.107 126.865 177.508 135.05 178.112V163.584C134.212 163.514 133.378 163.445 132.542 163.378V162.067C135.792 162.326 139.037 162.626 142.274 162.967C143.294 162.227 144.315 161.486 145.338 160.751V172.977C147.022 174.575 148.703 176.194 150.388 177.817C151.093 178.491 151.796 179.158 152.5 179.838C159.785 180.774 166.084 181.897 171.123 183.169C171.179 183.178 171.242 183.189 171.298 183.202C171.964 182.771 172.626 182.36 173.29 181.936C175.164 180.736 177.039 179.538 178.907 178.367V140.53C176.376 137.887 173.842 135.27 171.304 132.675C165.2 131.542 159.078 130.565 152.935 129.736C151.734 130.581 150.536 131.44 149.335 132.298L147.735 133.409L143.341 129.127C143.341 129.127 132.042 127.745 114.785 127.067V141.267C115.615 141.293 116.441 141.322 117.27 141.354V162.476C113.26 162.322 106.433 162.181 102.421 162.154V141.034C103.246 141.038 104.073 141.043 104.902 141.058V126.783C102.901 126.746 100.844 126.721 98.7403 126.71ZM86.4486 128.276H103.069V139.212C102.24 139.205 101.416 139.201 100.585 139.198V163.972C104.538 163.979 110.096 164.08 114.831 164.225V175.353C110.052 175.22 105.167 175.147 100.22 175.147C95.5514 175.147 90.9468 175.211 86.428 175.33V164.209C87.4677 164.189 88.4035 164.223 88.9293 164.209V139.364C88.1026 139.39 87.2746 139.415 86.4486 139.444V128.277V128.276ZM116.623 128.454C124.962 128.76 133.296 129.345 141.612 130.21C143.621 132.085 145.631 133.978 147.639 135.887C149.626 134.457 151.611 133.047 153.597 131.649C159.299 132.429 164.982 133.34 170.651 134.381C172.806 136.575 174.952 138.786 177.098 141.019V177.137C174.954 178.491 172.805 179.862 170.653 181.251C167.713 180.542 164.22 179.838 160.066 179.164C157.886 178.812 155.597 178.484 153.234 178.174C151.209 176.212 149.186 174.265 147.162 172.335V157.063C145.315 158.387 143.463 159.723 141.612 161.074C137.981 160.7 134.349 160.374 130.714 160.103V165.059C131.55 165.124 132.385 165.19 133.221 165.26V176.226C130.263 176.024 127.233 175.849 124.146 175.705C121.678 175.585 119.173 175.485 116.635 175.405V164.286C117.502 164.316 118.336 164.347 119.1 164.38V139.607C118.274 139.571 117.448 139.533 116.623 139.505V128.454ZM84.6142 128.508V141.341C85.4409 141.305 86.2702 141.273 87.0936 141.243V162.384H83.4141C81.5225 153.612 76.2736 128.931 76.2736 128.931L84.6129 128.513L84.6142 128.508ZM74.2688 129.128C74.2688 129.128 79.959 155.236 81.8906 164.209C82.4464 164.183 83.5107 164.227 84.6249 164.209V175.381C78.8927 175.551 73.3149 175.817 67.9682 176.176V165.086C68.0514 165.079 69.8365 164.951 70.0868 164.932C70.0688 164.836 69.9397 164.211 69.8984 163.998C68.0241 164.137 66.1111 164.295 64.1043 164.478L63.9133 165.429C64.0904 165.409 66.0512 165.243 66.0512 165.243H66.0785V176.315C60.2432 176.732 54.6927 177.255 49.5296 177.884V168.379C48.8574 171.633 48.1831 174.886 47.5122 178.139C45.0355 178.459 42.6446 178.805 40.3703 179.169C37.632 179.613 35.1952 180.07 33.0021 180.535C30.4807 169.038 27.9601 157.567 25.4461 146.122C24.5935 146.287 23.7475 146.454 22.8989 146.624V135.578C28.3555 134.466 33.8294 133.488 39.3226 132.629V143.681C38.6071 143.791 37.8902 143.907 37.174 144.024C37.2965 144.597 37.419 145.168 37.5455 145.744C38.1299 148.349 38.7096 150.955 39.2907 153.563C39.6075 155.018 39.9203 156.475 40.2391 157.926C40.5586 156.377 40.8795 154.828 41.1989 153.277C41.7727 150.489 42.3438 147.698 42.9189 144.91C43.0413 144.304 43.1665 143.692 43.2876 143.084C42.5927 143.183 41.8912 143.288 41.195 143.395V132.343C61.3321 129.184 74.2661 129.124 74.2661 129.124L74.2688 129.128ZM130.714 140.29V149.055C132.666 149.197 134.614 149.358 136.565 149.535V140.769C134.614 140.592 132.666 140.435 130.714 140.29ZM57.3112 141.29L55.1653 141.589L49.9237 166.947L52.0203 166.647L57.3112 141.29ZM132.544 142.256C133.277 142.31 134.007 142.375 134.737 142.439V147.548C134.007 147.487 133.277 147.426 132.544 147.371V142.256ZM158.713 143.437V168.21C161.008 168.552 163.3 168.92 165.591 169.311V144.536C163.3 144.15 161.008 143.781 158.713 143.437ZM41.0545 145.246C40.7869 146.559 40.516 147.874 40.2445 149.187C39.9702 147.958 39.696 146.725 39.4218 145.495C39.9682 145.411 40.512 145.326 41.0545 145.246ZM160.537 145.542C161.62 145.708 162.699 145.883 163.779 146.061V167.185C162.699 167.002 161.62 166.832 160.537 166.661V145.542ZM66.9664 149.744L65.994 154.516L68.0414 154.372L66.9664 149.744Z" fill="#FFCC00"/>
<path d="M90.2076 32.0117L87.6337 32.8956L87.1498 33.6524C81.7944 36.028 77.9053 40.206 76.9914 44.5583C76.7265 45.5541 76.6073 46.6097 76.6266 47.7772C75.8525 48.4395 75.4246 48.8781 75.4059 48.8974L75.2195 49.0884L76.1128 53.1446L75.0691 54.9624L75.121 55.1601C75.8312 57.8145 76.4502 59.9358 76.9488 61.639C77.1032 62.1682 77.249 62.6627 77.3828 63.1287L77.436 63.3137L78.4058 63.9127C78.5283 64.6502 79.2291 68.5759 79.2291 68.5759C78.4204 68.0515 77.7648 67.3253 77.1824 67.3073C77.1664 67.3066 77.1511 67.3073 77.1345 67.3073C75.589 67.3073 74.1406 69.4352 73.3179 70.9135C70.2388 68.9354 68.2826 67.1675 68.0137 66.9173L66.9754 65.9302L65.9304 66.9199C65.5976 67.2281 62.5391 70.0163 57.804 72.5929C56.8396 73.1207 55.9264 73.572 55.0178 73.9826C53.9402 74.4712 52.81 74.9278 51.5627 75.3791C45.7307 77.4771 40.6069 78.1939 40.5556 78.2012L39.275 78.3417V114.71L40.2408 116.366C41.0901 117.798 41.9674 119.19 42.8553 120.509L42.9331 120.631C45.4777 124.4 48.266 127.85 51.2625 130.949C48.4064 131.293 45.2694 131.676 42.4499 132.089L41.146 132.28V143.48L42.8972 143.219C42.9904 143.205 43.0836 143.191 43.1768 143.177C43.0729 143.691 42.9691 144.204 42.8659 144.718L42.5864 146.071C42.1065 148.4 41.6252 150.731 41.1447 153.065L40.2008 157.632C40.2002 157.638 40.2002 157.644 40.1989 157.649C39.9233 156.385 39.6484 155.12 39.3728 153.856L39.3562 153.781C38.7731 151.165 38.1907 148.557 37.6063 145.948C37.4739 145.333 37.3414 144.717 37.2083 144.097C37.5085 144.049 37.8067 144.001 38.1055 143.953L39.3915 143.748V132.548L37.6243 132.831C33.0962 133.556 28.5342 134.372 24.0653 135.256L22.8359 135.499V146.718L24.6584 146.355C24.9259 146.302 25.1948 146.25 25.4631 146.198C27.8679 157.163 30.2787 168.147 32.6962 179.157L33.017 180.618L34.4853 180.326C36.2505 179.973 38.1841 179.625 40.3959 179.262C42.378 178.943 44.4414 178.64 46.5254 178.362L47.5997 178.22L47.8193 177.159C48.4523 174.09 48.8896 171.991 49.4794 169.135V177.984L51.1813 177.788C55.1829 177.325 59.4175 176.917 63.7678 176.579C63.9589 176.563 64.1353 176.545 64.311 176.527C64.4574 176.511 64.6038 176.497 64.7516 176.484L66.1401 176.358V165.194L64.4814 165.338C64.3243 165.352 64.1672 165.366 64.0108 165.38C64.0674 165.1 64.1233 164.821 64.1785 164.547C66.1281 164.372 68.0097 164.217 69.8761 164.08C69.9087 164.236 69.9413 164.395 69.9739 164.553C69.9972 164.668 70.0219 164.781 70.0451 164.896C69.8075 164.914 69.5686 164.931 69.3303 164.949L67.9199 165.056V176.219L69.5579 176.099C74.086 175.766 78.6614 175.51 83.1562 175.341L84.6238 175.285V164.161H81.9415C80.8765 159.249 79.7669 154.137 78.664 149.065C77.7748 144.972 76.8915 140.905 76.0409 136.971C76.3205 136.752 76.594 136.541 76.8875 136.304C80.0512 133.72 82.8081 130.963 85.1896 128.241L86.4023 128.359V139.517L87.9765 139.468C88.2793 139.458 88.5822 139.449 88.8857 139.441V164.181H86.4023V175.343L87.9778 175.292C91.9595 175.164 96.0083 175.098 100.012 175.098C104.397 175.098 108.854 175.177 113.259 175.331L114.838 175.386V164.228L113.367 164.174C110.558 164.075 107.618 164.005 104.627 163.967C103.305 163.951 101.966 163.94 100.638 163.938V139.276C100.954 139.277 101.272 139.277 101.589 139.279L103.12 139.284V129.992L115.692 131.219L116.577 131.306V139.57L118.034 139.634L118.859 139.67L119.055 139.68V164.34C118.758 164.327 118.459 164.316 118.162 164.304L116.577 164.242V175.402L118.04 175.46C121.234 175.59 124.608 175.78 128.659 176.058C129.673 176.117 130.66 176.181 131.646 176.247L133.273 176.354V165.219L131.863 165.111C131.498 165.083 131.132 165.055 130.766 165.028V160.186C134.223 160.445 137.632 160.748 140.922 161.087L141.506 161.149L141.98 160.802C143.23 159.887 144.695 158.845 146.112 157.837C146.46 157.588 146.775 157.363 147.109 157.125V172.495L147.581 172.945C149.32 174.607 151.088 176.32 152.738 177.923L153.099 178.275L153.601 178.341C155.849 178.639 158.019 178.955 160.051 179.283C163.707 179.879 166.994 180.515 169.818 181.171L170.449 181.317L170.994 180.966C172.66 179.887 174.449 178.739 176.461 177.456L177.167 177.007V140.824L176.741 140.382C175.116 138.695 173.359 136.89 171.215 134.706L170.875 134.361L170.399 134.274C165.056 133.3 159.653 132.435 154.339 131.704L153.747 131.623L153.255 131.967C151.563 133.153 149.764 134.428 147.757 135.864C147.361 135.488 146.966 135.112 146.543 134.71C145.348 133.573 144.177 132.468 143.052 131.413L143.331 130.251C144.723 123.568 143.25 114.682 142.905 113.339C146.589 104.648 144.288 99.4533 138.774 87.0085L138.509 86.4108C132.758 73.4608 128.665 69.4073 128.492 69.2409L128.413 69.165L128.311 69.1291C126.653 68.5473 124.041 67.9323 122.121 67.501C122.109 67.4005 122.092 67.3006 122.067 67.2061C121.778 66.0254 120.663 64.8499 119.082 64.3241C117.99 63.9573 116.756 63.9839 115.837 64.2642C114.197 63.9247 112.89 63.8988 111.949 64.189C111.631 64.2895 111.332 64.4179 111.04 64.579C110.518 64.4732 110.035 64.356 109.566 64.2435C108.618 64.0139 108.598 63.9174 107.846 63.9174H107.835C106.636 63.9214 105.604 64.3886 104.607 64.8399L104.544 64.8685C104.087 64.3088 103.801 63.4535 103.785 62.8458L103.761 62.7313C104.018 61.7362 104.209 60.8569 104.473 59.4359C105.151 55.7078 105.291 53.5393 105.297 53.4495L105.318 53.1233L104.63 52.7732C104.378 52.6434 104.153 52.5263 103.907 52.4131V46.6324L103.832 46.5125C103.81 46.4766 104.102 46.1591 103.6 45.6053C103.399 44.6156 103.201 43.8568 102.698 42.4504C101.451 38.9866 98.3479 34.768 93.3679 33.2464L92.7688 32.5828L90.2063 32.0383L90.2076 32.0117ZM89.6957 33.3636C90.9431 34.4239 92.6344 37.9642 93.1329 41.456C93.1376 41.4952 93.1422 41.5345 93.1522 41.5744C92.8267 41.5498 92.5112 41.5398 92.2004 41.5305C92.1911 41.5006 92.1804 41.4759 92.1758 41.442C91.4702 38.0188 89.6012 34.941 88.3785 33.7822L89.6957 33.3636ZM90.5337 33.4275L91.8649 33.6691C92.9745 35.188 94.144 38.2797 94.4548 41.7422C94.2232 41.7122 94.0009 41.6683 93.7646 41.6383C93.7499 41.5451 93.7399 41.4566 93.7253 41.3628C93.1928 38.0088 91.7671 34.734 90.5337 33.4275ZM92.3928 42.4823C92.6836 42.4923 92.9745 42.5069 93.276 42.5316C93.3299 42.5409 93.3892 42.5422 93.4437 42.5475C93.5915 42.5569 93.7399 42.5768 93.883 42.5915C94.1047 42.6208 94.317 42.6454 94.534 42.68C94.6079 43.6218 94.6418 44.5337 94.6618 45.3724C94.6618 45.574 94.6724 45.7677 94.6771 45.9648C94.6771 46.4633 94.6472 47.256 94.5979 47.6953C94.4994 48.5932 94.3556 49.0818 94.104 49.2641C94.104 49.2688 94.1 49.2681 94.0947 49.2681C94.0654 49.2928 94.0255 49.3081 93.9909 49.3227C93.9316 49.3374 93.8777 49.3527 93.8085 49.3527C93.7646 49.3527 93.73 49.3327 93.6953 49.3227C93.4344 49.2442 93.3 48.928 93.2068 48.4648C93.1522 48.1639 93.1083 47.8145 93.0637 47.4297C93.0291 46.9465 92.9445 46.3302 92.886 45.7724C92.866 45.5807 92.8467 45.373 92.8221 45.1707C92.7236 44.332 92.5805 43.4241 92.3928 42.4823ZM90.6276 42.5223C90.8299 42.7938 91.18 43.3456 91.5348 44.2934C89.1772 44.4458 82.3162 45.3391 76.6007 50.5567C76.5221 49.7926 76.9321 48.9287 77.7655 48.1293C79.112 47.045 80.8718 45.7671 82.9878 44.7014C85.163 43.6012 87.7275 42.7293 90.6283 42.5229L90.6276 42.5223ZM95.6975 42.911C96.2053 43.0348 96.6746 43.1785 97.1185 43.331C98.4258 43.7802 99.4754 44.352 100.388 44.973C101.227 45.58 102.178 46.4966 102.434 46.9505C102.444 46.9605 102.449 46.9658 102.459 46.9805L102.499 48.5093C101.587 47.449 99.52 45.6486 95.609 44.7367C95.6635 43.9174 95.6875 43.2857 95.6975 42.911ZM91.9781 45.7531C92.1951 46.9319 92.4274 48.0654 92.6104 49.782C92.3049 49.8113 91.9987 49.8406 91.6979 49.8698C90.9777 48.721 89.1579 47.1535 85.75 48.2438C81.2273 49.6835 78.9396 51.7548 78.9396 51.7548L79.1712 52.9043C78.6873 53.102 77.8686 53.4361 77.4886 53.6039C76.8623 51.4287 78.067 50.3484 78.8018 49.782C81.2133 48.2378 84.5373 46.4966 89.5773 45.9102C90.4059 45.7917 91.204 45.7531 91.9788 45.7531H91.9781ZM95.4911 46.1132C98.8105 46.8134 101.32 48.3556 102.544 49.4904L102.652 52.1156C102.499 52.061 102.346 52.0018 102.192 51.9425C102.109 50.6699 102.144 50.4682 100.974 49.5996C99.4162 48.4361 97.5518 47.6614 95.7614 50.0629C95.4652 49.999 95.1896 49.9437 94.9533 49.8951C95.2096 48.514 95.3727 47.2227 95.4911 46.1132ZM93.7739 50.9854C99.8302 51.9325 103.55 53.9207 103.584 53.9353C103.347 57.3479 102.912 59.9511 102.316 61.8993C98.3406 66.3282 93.6108 68.0195 93.6108 68.0195C93.1276 67.9656 92.6444 67.9017 92.1704 67.8231C84.9187 66.6337 80.0811 62.919 78.5815 61.8833L76.9095 55.1421C86.4083 51.1724 93.7759 50.9847 93.7759 50.9847L93.7739 50.9854ZM92.7336 52.5196L90.78 52.8444L91.0216 66.1072L92.8128 66.5951L92.7336 52.5203V52.5196ZM94.8448 52.682L94.6864 66.2696L96.393 65.0516L96.5554 53.0068L94.8448 52.682ZM88.7439 53.0867L86.8742 53.5753L87.5259 65.2932L89.3157 65.7025L88.7439 53.0867ZM98.1835 53.496L97.695 64.4006L99.3237 63.1772C99.3237 63.1772 99.7317 54.961 99.974 54.1477L98.1835 53.496ZM84.8428 54.0625L82.8853 54.7141L83.7819 63.4242L85.6515 64.2382L84.8428 54.0625ZM101.439 54.5517L100.95 61.7122C100.95 61.7122 101.518 62.2008 102.495 54.8818L101.439 54.5517ZM80.9364 55.2859L79.2258 55.9375L80.1224 61.0606L81.9089 62.284L80.9364 55.2859ZM102.231 63.4721C102.266 64.5178 102.487 65.5388 102.61 66.0373C102.043 66.3528 101.719 66.5538 100.988 67.0717C100.653 67.3186 100.185 67.6834 99.6572 68.0974C99.5047 68.2358 99.3756 68.339 99.2917 68.3836C99.5926 67.1256 100.19 65.6866 100.421 65.1827C101.023 64.6802 101.659 64.1231 102.231 63.4721ZM80.3041 64.7394C80.3041 64.7394 81.4829 65.4889 82.3215 65.8683C83.8458 68.6199 85.5464 70.0123 87.1645 70.6233C85.4079 71.4374 83.6774 71.0773 82.1139 70.3571L80.3041 64.7394ZM117.445 65.1727C117.847 65.1834 118.285 65.2606 118.729 65.4103C119.912 65.805 120.741 66.5791 120.859 67.2893C120.884 67.4424 120.889 67.5948 120.835 67.7373C120.568 68.546 119.183 68.8129 117.752 68.3343C117.54 68.2604 117.353 68.1766 117.155 68.0781C116.076 67.5449 115.419 66.687 115.656 66.0021C115.676 65.9229 115.715 65.8496 115.769 65.7851C115.809 65.7358 115.844 65.6866 115.893 65.642C116.211 65.3218 116.776 65.1547 117.445 65.1727ZM113.037 65.5901C113.775 65.5581 114.486 65.6679 114.758 65.7158C114.708 65.7897 114.67 65.8683 114.631 65.9475C114.088 67.1509 115.011 68.7736 116.727 69.7853C116.924 69.8985 117.121 70.007 117.334 70.1008C118.187 70.4856 119.05 70.6633 119.819 70.648C120.954 70.6233 121.881 70.1887 122.246 69.39C122.291 69.2915 122.32 69.1883 122.349 69.0898C123.325 69.5284 124.119 70.4949 124.667 71.4074C124.992 72.0437 124.87 72.5909 124.584 72.9609C124.441 73.158 124.253 73.307 124.065 73.4002C123.887 73.4794 123.7 73.5387 123.504 73.5926C122.467 73.8735 121.102 73.8588 119.607 73.538C118.729 73.351 117.807 73.0588 116.87 72.6647C116.756 72.6148 116.638 72.5669 116.52 72.5123C115.193 71.9153 114.034 71.1758 113.107 70.3871C112.786 70.1201 112.505 69.8439 112.243 69.5677C111.721 69.0053 111.311 68.4382 111.05 67.8857C110.504 66.0919 111.807 65.6433 113.037 65.5901ZM66.9701 67.7746L67.0919 67.8864C67.5538 68.321 71.8043 72.2308 78.3798 75.2014C84.4421 77.9443 90.7594 79.151 93.2101 79.5418L93.2454 79.5591L93.296 114.108L89.0295 121.085C85.8679 125.585 81.59 130.702 76.0462 135.237C75.9324 135.328 75.8306 135.404 75.7201 135.492L75.5337 134.633L73.6401 136.017C73.6048 136.042 70.3473 138.411 66.7764 140.417C63.1289 138.445 60.2189 136.869 60.2189 136.869L59.4414 136.448C59.2085 136.27 58.9609 136.086 58.7339 135.912L57.8633 135.219L57.8347 135.196V134.934L57.3468 134.481L53.8031 131.187L53.2846 130.705L52.9545 130.745C49.7336 127.51 46.7417 123.871 44.0287 119.854L43.9595 119.751C43.0476 118.393 42.1857 117.021 41.3963 115.677L40.6342 114.288V79.5364L40.75 79.5291C40.8239 79.5171 48.3179 78.4795 55.5596 75.204C62.4273 72.101 66.8156 67.9223 66.8609 67.8784L66.9701 67.7746ZM110.585 69.8386C110.797 70.1601 111.053 70.4802 111.334 70.7957C110.978 70.9342 110.614 71.0919 110.259 71.3043C105.785 73.9766 102.18 76.6504 98.1063 75.3784C93.7606 74.0272 89.4914 75.6247 87.3655 76.6757C85.9397 76.3102 84.3217 75.8363 82.6397 75.2493C95.3148 71.0873 99.5413 75.6932 103.846 72.907C105.839 71.6144 108.02 70.411 110.584 69.8386H110.585ZM112.986 72.3C113.445 72.6501 113.939 72.9816 114.456 73.2724C112.218 74.0565 110.2 75.3485 108.592 76.7149C107.961 77.2421 107.359 77.7699 106.781 78.2931C100.236 79.1058 96.2386 81.239 94.6339 82.111V78.4022C95.4359 77.6068 96.61 76.8041 98.304 77.1928C102.812 78.2338 105.278 77.4737 109.722 73.9766C110.999 72.9809 112.078 72.4824 112.986 72.3ZM125.465 73.5686C132.453 78.5993 136.151 87.8904 137.78 98.9581C139.255 109.029 138.15 116.714 137.005 121.295C136.749 119.293 136.289 117.587 135.757 116.167C140.314 101.41 133.43 89.1684 131.635 86.3469C131.743 83.6685 131.096 80.7052 128.828 77.9383C127.531 76.3602 126.194 75.1867 124.848 74.3334C125.212 74.1264 125.425 73.8695 125.465 73.5686ZM122.965 76.9679C124.467 76.9146 125.936 77.3672 127.289 78.5201C131.067 81.7356 130.574 86.46 129.237 89.804C129.129 89.3208 129.016 88.8575 128.912 88.4482C129.189 87.511 129.449 85.7738 129.109 84.0971C128.255 79.9052 125.375 79.0765 123.368 79.0519C122.638 79.0465 122.001 79.1464 121.573 79.2402C119.338 79.625 116.271 81.3795 113.362 84.5265C113.362 84.5265 118.081 81.6564 123.956 81.9226C124.69 83.136 125.128 84.1271 125.622 85.2766C119.131 84.7488 109.963 89.8386 107.201 91.7569C107.107 91.3722 107.049 90.9974 106.999 90.6327C108.439 88.7737 110.342 86.3569 112.266 83.9946C115.08 80.5382 119.127 77.1043 122.965 76.9679ZM103.916 81.0147C99.7736 85.1328 97.3768 88.4076 97.3768 88.4076L97.9878 100.436C96.9002 101.289 95.5604 101.199 94.6339 100.763V87.0531C97.3369 83.7044 101.171 81.918 103.916 81.0141L103.916 81.0147ZM124.513 87.085C125.162 87.0744 125.787 87.1163 126.381 87.2201L126.397 87.2301C126.624 87.2794 126.879 87.6049 126.978 87.9104C127.081 88.2259 127.107 88.8675 126.964 88.996C120.522 88.2758 110.753 92.6055 108.025 94.0552C108.001 94.0113 107.98 93.9667 107.955 93.9174C107.906 93.8189 107.866 93.7144 107.817 93.6106C109.833 92.1809 118.241 87.1862 124.513 87.085ZM102.786 87.4265C103.437 87.4265 103.965 87.9543 103.965 88.6006C103.965 89.2462 103.437 89.7747 102.786 89.7747C102.14 89.7747 101.613 89.2469 101.613 88.6006C101.613 87.9543 102.14 87.4265 102.786 87.4265ZM131.151 89.6263C132.724 94.016 131.362 98.1334 130.351 100.264C129.567 98.789 128.858 97.5856 128.384 96.7968C129.701 96.4414 130.514 96.1965 130.514 96.1965C130.351 95.1408 130.144 94.0506 129.927 92.9903C130.356 92.0731 130.81 90.9289 131.151 89.6263ZM98.067 90.3072C98.7127 91.4907 99.95 92.9011 102.268 93.5467L102.96 99.8899C102.584 100.25 102.077 100.734 101.322 100.838C100.794 100.906 99.9407 100.669 99.4967 100.522L98.067 90.3072ZM125.12 90.7978C125.948 90.7798 126.736 90.8304 127.461 90.9628C127.772 92.3779 127.851 93.2572 127.851 93.2572C127.851 93.2572 124.527 93.3949 120.103 94.3714C117.115 95.027 113.336 96.4274 110.624 96.3436C109.726 96.3136 109.242 95.8949 109.065 95.628C111.542 94.3294 119.324 90.9196 125.12 90.7978H125.12ZM105.169 93.0102C105.509 94.5045 106.047 96.2743 106.9 97.4924C107.157 97.8625 107.531 98.1587 107.965 98.4049C107.851 98.6519 107.69 98.9174 107.447 99.2083C107.142 99.5191 106.584 99.9398 105.716 100.024C105.178 100.078 104.714 100.004 104.344 99.8952L103.078 93.7304C103.512 93.8143 103.985 93.8735 104.498 93.8928C104.498 93.8928 104.74 93.5727 105.169 93.0102ZM133.686 96.8228C134.317 96.912 134.814 98.7018 135.15 101.385C135.776 106.307 134.513 110.75 133.912 112.51C133.108 111.288 132.477 110.691 132.477 110.691L133.705 107.55C133.37 106.666 133.011 105.798 132.64 104.96C133.015 103.781 133.163 102.347 133.281 101.366C133.592 98.8349 133.208 96.7536 133.686 96.8228ZM108.438 101.182C108.434 101.32 108.424 101.463 108.413 101.596C108.384 102.716 108.468 103.736 108.621 104.638C108.113 104.703 105.41 105.018 102.678 105.29C100.177 105.541 96.1727 105.784 95.0232 105.858C95.0285 105.823 95.0285 105.783 95.0285 105.749C94.9939 104.664 95.2702 104.126 95.8619 103.446C96.5967 102.592 98.895 102.513 98.895 102.513C101.514 104.062 103.689 101.888 103.689 101.888C104.563 102.154 105.312 102.223 105.944 102.179C106.999 102.1 107.797 101.66 108.251 101.325C108.291 101.296 108.34 101.261 108.38 101.226C108.399 101.211 108.414 101.196 108.438 101.182ZM108.952 106.059C108.981 106.168 109.01 106.277 109.045 106.381C109.44 107.693 109.953 108.659 110.313 109.246C110.317 109.271 110.327 109.296 110.332 109.32C110.145 109.246 109.815 109.211 109.386 109.186C108.266 109.132 106.491 109.246 104.967 109.443C103.019 109.685 101.179 109.843 99.6645 109.946L99.6745 109.927C95.8965 110.252 95.2848 108.269 95.0924 107.14C96.3251 107.08 100.355 106.868 102.628 106.656C105.765 106.366 108.754 106.079 108.952 106.059ZM114.346 111.665C116.289 111.618 118.457 112.298 120.306 113.947C126.17 119.186 126.856 126.22 126.856 126.22C126.856 126.22 126.947 126.734 126.985 127.087V127.12C126.838 127.111 126.694 127.096 126.546 127.087L122.932 126.877C122.231 126.839 121.526 126.811 120.825 126.778C120.582 125.075 119.099 116.812 112.495 111.945C113.073 111.776 113.697 111.68 114.345 111.665H114.346ZM107.151 112.396C108.773 112.456 110.138 113.182 111.185 114.004C114.684 117.098 117.034 121.866 117.224 126.61L115.071 126.524L115.056 126.515C114.956 126.51 114.846 126.501 114.746 126.491C111.914 126.277 108.233 125.932 104.967 125.389C102.736 125.017 100.695 124.556 99.2511 123.969C95.7101 122.542 92.9306 120.819 92.1338 118.945C92.7129 118.04 93.2574 117.165 93.7313 116.358L94.6339 114.772V114.741C95.8912 113.689 97.6171 113.316 100.309 112.984C102.112 112.77 103.733 112.646 106.442 112.413C106.683 112.392 106.92 112.387 107.151 112.395V112.396ZM118.817 114.152C118.545 114.204 118.307 114.338 118.145 114.558C117.725 115.116 117.936 116.041 118.641 116.57C119.347 117.099 120.324 117.047 120.743 116.484C120.906 116.27 120.934 116.002 120.901 115.716C120.872 115.797 120.719 115.907 120.638 115.95C120.252 116.145 119.748 116.145 119.219 115.73C118.651 115.277 118.608 114.81 118.665 114.443C118.679 114.357 118.745 114.2 118.817 114.152ZM132.09 115.641C132.362 115.639 132.642 115.643 132.929 115.653C134.064 115.697 136.058 121.442 134.704 124.779C134.375 125.599 133.755 126.724 133.183 127.568L132.715 127.53C131.862 127.464 131.008 127.407 130.159 127.345C130.145 127.307 130.14 127.268 130.13 127.225C130.031 126.786 129.921 126.324 129.921 126.324C128.462 120.655 125.673 117.108 125.673 117.108C125.673 117.108 128.008 115.671 132.09 115.641ZM123.084 120.972C122.83 120.98 122.588 121.05 122.374 121.193C121.645 121.684 121.507 122.867 122.117 123.768C122.737 124.67 123.92 124.998 124.644 124.503C124.93 124.312 125.073 124.002 125.154 123.654C125.082 123.74 124.859 123.81 124.744 123.83C124.21 123.901 123.61 123.706 123.157 123C122.666 122.247 122.813 121.68 123.037 121.27C123.09 121.169 123.238 121.012 123.343 120.984C123.255 120.973 123.169 120.97 123.084 120.972ZM57.81 136.906L57.8939 136.972C57.9838 137.042 58.061 137.097 58.1475 137.164L57.9931 137.903L57.7814 138.922C57.7867 138.549 57.7887 138.189 57.7967 137.815C57.8034 137.51 57.804 137.213 57.81 136.906ZM130.753 140.357C132.674 140.5 134.599 140.659 136.503 140.832V149.473C134.61 149.303 132.686 149.144 130.753 148.999V140.357ZM57.2642 141.391L57.199 141.704C55.4924 149.889 53.7286 158.341 52.0106 166.637C51.606 166.686 51.2019 166.737 50.7992 166.788L49.9293 166.897C51.7531 158.069 53.5901 149.174 55.1583 141.626C55.5736 141.579 55.9896 141.532 56.4063 141.485L57.2642 141.391ZM158.762 143.523C161.03 143.866 163.292 144.229 165.515 144.606V169.226C163.206 168.838 160.944 168.476 158.762 168.149V143.523ZM67.002 150.063L67.9884 154.33L66.0815 154.478L67.002 150.063Z" fill="#613318"/>
<path d="M66.9713 67.1088L66.8595 67.214C66.8162 67.2592 62.362 71.4998 55.3912 74.6501C48.0409 77.9741 40.4331 79.0271 40.3592 79.0377L40.2387 79.0484V114.325L41.0148 115.733C41.8149 117.097 42.6908 118.489 43.6146 119.867L43.6859 119.975C46.7523 124.512 50.1642 128.585 53.8623 132.133C51.0088 132.492 45.2054 133.226 42.6668 133.599V141.712C43.4729 141.591 44.2862 141.473 45.0976 141.361C44.852 142.578 44.6017 143.798 44.3568 145.019C43.783 147.8 43.208 150.585 42.6342 153.374C41.8342 157.25 41.0334 161.123 40.2334 165.007C39.4426 161.369 38.6512 157.739 37.8605 154.108C37.2794 151.5 36.6977 148.893 36.1133 146.284C35.8664 145.14 35.6214 143.998 35.3751 142.852C36.2058 142.713 37.0345 142.58 37.8605 142.448V134.339C33.3477 135.062 28.8469 135.866 24.3574 136.753V144.861C25.1129 144.711 25.8677 144.564 26.6298 144.417C29.1411 155.866 31.6571 167.335 34.1817 178.831C36.0155 178.465 37.9903 178.111 40.1449 177.759C42.1237 177.439 44.1877 177.136 46.3217 176.852C48.845 164.619 51.3676 152.413 53.8982 140.232C54.6796 140.143 55.4644 140.054 56.2485 139.967C56.2485 139.008 56.2491 136.383 56.2498 134.304C56.6538 134.656 57.0565 135.012 57.4665 135.351L57.7308 135.573L58.6133 136.272C59.1179 136.662 59.631 137.056 60.1888 137.467L60.3679 137.603C61.1346 138.157 61.7417 138.58 62.3207 138.969C63.4569 139.732 64.5838 140.434 65.6667 141.071L66.9407 141.844L69.5618 140.288C70.2414 139.87 70.929 139.424 71.6106 138.969C72.2788 138.521 72.9238 138.063 73.5621 137.603C74.3855 137.005 75.2428 136.347 76.1839 135.586C84.253 128.989 89.7389 121.144 92.9205 115.726L93.6953 114.409V79.0956L93.6067 79.055C91.124 78.6523 84.7116 77.4283 78.5581 74.6441C71.8841 71.6276 67.567 67.6606 67.0971 67.2186L66.9753 67.1055L66.9713 67.1088ZM87.9245 129.721V137.924C88.7512 137.898 89.5785 137.874 90.4079 137.852V165.687H87.9245V173.748C96.3816 173.474 104.851 173.489 113.31 173.786V165.679C110.409 165.576 107.507 165.509 104.604 165.473C102.773 165.45 100.939 165.44 99.1099 165.444V137.729C99.934 137.729 100.761 137.729 101.591 137.733V129.72H87.9252L87.9245 129.721ZM118.099 129.98V138.092C118.924 138.129 119.751 138.163 120.578 138.201V165.92C119.751 165.877 118.924 165.842 118.099 165.81V173.918C121.657 174.063 125.206 174.274 128.759 174.517C129.762 174.576 130.754 174.64 131.744 174.705V166.613C130.909 166.549 130.073 166.487 129.238 166.43V158.525C133.187 158.805 137.135 159.144 141.076 159.552C142.945 158.183 145.317 156.513 147.183 155.176V137.408C145.317 135.639 142.945 133.365 141.076 131.628C133.434 130.844 125.768 130.295 118.099 129.981V129.98ZM154.127 133.196C152.295 134.48 150.465 135.78 148.629 137.092V171.823C150.355 173.471 152.075 175.135 153.797 176.808C156.042 177.104 158.211 177.421 160.291 177.757C164.073 178.374 167.34 179.01 170.16 179.666C171.988 178.481 173.819 177.308 175.638 176.149V141.419C173.807 139.518 171.963 137.629 170.122 135.754C164.808 134.786 159.475 133.932 154.127 133.196ZM74.6943 137.865C74.6943 137.865 70.9217 140.618 66.9387 142.771C62.9557 140.618 59.4959 138.211 59.4959 138.211C57.4372 148.085 55.3452 158.111 53.2938 168.02C52.5284 168.107 51.7636 168.201 51.0028 168.297V176.272C55.0178 175.807 59.2417 175.4 63.6466 175.058C63.9694 175.03 64.2889 174.994 64.6131 174.964V166.857C63.7764 166.931 62.9431 167.006 62.1064 167.086C62.3547 165.876 62.6589 164.337 62.9071 163.129C65.6707 162.873 68.3311 162.654 71.0961 162.461C71.3443 163.626 71.6432 165.128 71.8941 166.296C71.0774 166.351 70.2607 166.408 69.444 166.47V174.577C73.9921 174.242 78.5428 173.987 83.0969 173.815V165.686H80.7087C78.7139 156.433 76.6898 147.086 74.695 137.864L74.6943 137.865ZM129.24 138.714C132.178 138.918 135.112 139.16 138.041 139.439V151.142C135.112 150.865 132.178 150.623 129.24 150.414V138.714ZM157.248 141.748C160.522 142.229 163.789 142.751 167.052 143.316V171.031C163.789 170.468 160.522 169.939 157.248 169.462V141.748ZM66.9394 142.956L69.8893 155.709L64.1871 156.154L66.9394 142.956Z" fill="white"/>
<path d="M87.2794 112.875C84.0925 118.302 78.4775 126.156 70.3092 132.173L87.2794 89.9661V112.875ZM61.1958 91.9908L58.7404 85.7488C53.0182 85.3448 47.7959 84.5367 43.4082 83.4225V113.791L43.8748 114.589C44.5783 115.789 45.3977 117.102 46.3162 118.473C46.3242 118.479 46.3282 118.482 46.3322 118.49C49.3906 123.036 53.6618 128.312 59.2615 132.949C59.3507 133.02 59.4346 133.094 59.5251 133.17C59.5877 133.222 59.6516 133.272 59.7135 133.319C59.9158 133.479 60.1142 133.638 60.3225 133.799C60.8097 134.179 61.2983 134.552 61.8075 134.931C61.8248 134.94 61.8407 134.952 61.8534 134.963C61.8933 134.988 61.9239 135.017 61.9572 135.043C62.5536 135.471 63.1573 135.901 63.7796 136.315C64.822 137.016 65.9089 137.698 67.0331 138.356L67.0318 138.348C67.0371 138.351 67.0371 138.356 67.0418 138.356C68.1706 137.698 69.2562 137.016 70.2986 136.315C70.9242 135.901 71.5233 135.471 72.1183 135.043C72.959 134.432 73.7657 133.805 74.5518 133.17C81.9985 127.081 87.131 119.823 90.2027 114.589L90.6687 113.789V83.4219C86.9187 84.3763 82.5623 85.1052 77.8046 85.5485C77.959 86.9309 77.9909 88.346 77.9104 89.7504C77.8778 90.2104 77.8358 90.663 77.7859 91.1216C77.2867 95.5798 75.6527 100.146 72.7553 105.186C71.9439 106.591 71.0414 108.027 70.0343 109.512L69.4918 110.298L69.386 110.447L69.1923 110.725C68.7797 111.305 68.3923 111.872 68.0262 112.407C65.1441 116.639 63.3423 119.903 62.5157 122.395C62.316 123 62.2255 123.317 62.095 123.954C61.9865 124.48 61.9193 124.816 61.8507 125.334C61.7922 125.736 61.7216 126.408 61.6903 126.86C62.105 127.913 62.4937 128.905 62.8445 129.803C63.1899 130.682 63.5001 131.471 63.7723 132.17C63.7697 132.17 63.7697 132.169 63.767 132.169C63.1573 131.721 62.5736 131.266 61.9992 130.805C54.9098 125.095 49.9218 118.145 46.9545 113.137C46.902 113.049 46.8467 112.96 46.7975 112.874C46.7928 112.868 46.7875 112.86 46.7868 112.854V89.9454L54.0412 107.961C54.0412 107.961 54.4945 104.294 57.2607 98.7587C58.9154 95.452 61.1958 91.9908 61.1958 91.9908Z" fill="#613318"/>
<path d="M67.8508 72.4697C68.0485 72.9256 68.2255 73.3762 68.3766 73.8255C68.6801 74.7234 68.8945 75.6107 69.0209 76.4786C69.5254 79.8705 68.7933 83.0448 67.53 86.006C67.4974 86.0779 67.4681 86.1492 67.4428 86.2204C66.1295 89.2382 61.252 96.9386 61.0264 97.3333C60.8154 97.7 60.607 98.0701 60.3967 98.4482C60.1404 98.9274 59.8815 99.4166 59.6273 99.9152C58.9617 101.235 58.3453 102.616 57.8128 104.082C56.895 106.627 56.218 109.373 56.2207 112.093C56.2207 115.409 56.881 118.797 58.3879 121.764C58.7021 122.375 59.0535 122.98 59.4476 123.553C59.5401 122.988 59.6925 122.369 59.9201 121.668C60.7282 119.235 62.4341 115.906 65.7708 110.998C66.1488 110.446 66.5429 109.871 66.9715 109.272C67.0694 109.138 67.1632 108.995 67.2591 108.858L67.7955 108.084C71.9196 102.019 74.8589 95.871 75.2323 89.6036C75.3082 88.3303 75.2789 87.0524 75.1358 85.7771C75.1312 85.7232 75.1205 85.6746 75.1205 85.6213C75.0759 85.2825 75.0207 84.9431 74.9648 84.6003C74.9162 84.3161 74.8622 84.0319 74.8003 83.7503C74.795 83.6944 74.7824 83.6458 74.7697 83.5999C74.7411 83.4668 74.7178 83.3357 74.6805 83.1972C74.6652 83.1133 74.6506 83.0321 74.6233 82.9456C74.3777 81.9133 74.0302 80.8789 73.6023 79.8372C71.692 75.2239 67.8774 71.6523 67.1166 70.9688L67.8508 72.4697Z" fill="#FFCC00"/>
</svg>
