<svg width="200" height="200" viewBox="0 0 200 200" fill="none" xmlns="http://www.w3.org/2000/svg">
<path d="M3.70551 56.1484H72.9063V83.5285H48.7943V77.7875H34.3093V91.2125H54.4027V111.703H34.3535V122.744H40.2711V143.853H3.61719V122.744H9.8881V77.6992H3.61719L3.70551 56.1484ZM79.0006 56.1484H115.655V77.6109H109.649V122.655H115.655V143.765H79.0006V122.655H85.0949V77.6109H79.0006V56.1484ZM121.484 56.1484H155.488V77.6109H151.779V121.772L152.662 122.655H165.204L166.087 121.772V77.6109H162.377V56.1484H196.381V77.6109H190.287V127.513L174.566 143.853H143.476L127.755 127.513V77.6109H121.484V56.1484Z" fill="#081E3F" stroke="#B6862C" stroke-width="3.3"/>
</svg>
