<svg width="200" height="200" viewBox="0 0 200 200" fill="none" xmlns="http://www.w3.org/2000/svg">
<path d="M136.737 49.9234C136.737 49.9234 135.032 58.3009 134.28 61.9932C133.757 59.1904 132.528 56.7965 130.593 54.8622C125.459 49.7288 117.543 49.4688 105.05 49.4688C89.0496 49.4688 79.6738 50.6473 74.4279 59.7274L76.4181 49.8468H40.2266L31.2396 93.2446H5.43679C5.43679 93.2446 1.01073 114.927 1.00842 114.94C0.174563 119.058 0 122.079 0 123.888C0 128.935 2.1135 132.107 3.88688 133.881C8.8989 138.893 17.1663 139.281 28.2986 139.281C46.7279 139.281 56.0333 137.838 60.7527 125.048C61.0284 128.612 62.337 131.591 64.6629 133.916C69.7382 138.992 77.7032 139.358 90.2184 139.358C102.72 139.358 110.743 139.012 116.66 134.238C119.834 131.707 121.502 128.65 122.552 125.532C122.933 129.699 124.782 132.405 126.364 133.987C131.373 138.997 139.345 139.358 151.88 139.358C163.266 139.358 171.5 139.356 177.795 134.724C183.817 130.382 185.049 124.2 186.24 118.22L200 49.9247H136.736L136.737 49.9234Z" fill="black"/>
<path d="M105.042 57.0586C84.7019 57.0591 80.7759 58.6039 78.0809 72.2203L76.3643 80.8443C76.1206 82.0255 75.8751 83.2956 75.8751 84.6565C75.8751 88.8333 78.2054 92.0122 82.7398 94.0988L95.7311 99.9123C98.7943 101.273 99.0416 102.09 99.0416 103.452C99.0416 103.906 98.9188 104.448 98.7961 105.085L96.5814 116.072C96.0922 118.432 95.3539 119.702 92.9026 119.702C90.8195 119.702 89.9639 119.067 89.9639 117.523C89.9639 116.888 93.0271 101.638 93.0271 101.638H72.1892L69.1277 116.527C68.3913 120.067 68.265 122.426 68.265 123.607C68.265 131.142 75.1297 131.779 90.2058 131.779C101.237 131.779 107.982 131.504 111.905 128.325C115.336 125.603 115.825 121.702 116.928 116.527L119.746 102.726C119.99 101.636 120.239 100.547 120.239 99.3661C120.239 95.3725 117.665 92.1954 112.517 90.0163L100.627 84.8397C97.9298 83.6585 97.1933 82.7513 97.1933 81.4794C97.1933 80.6611 97.3178 80.026 97.4406 79.6631L98.789 72.6721C99.2782 70.4022 100.137 69.0414 102.589 69.0414C104.674 69.0414 105.529 69.6764 105.529 71.2205C105.529 71.2205 105.531 71.6724 105.285 72.6721L103.201 83.2067H123.672L125.878 72.2203C126.367 69.68 126.979 67.3159 126.979 65.2269C126.979 57.5124 119.874 57.0588 105.049 57.0586H105.042ZM46.4362 57.4339L34.6688 115.995C34.1779 118.265 33.6905 119.626 30.8709 119.626C28.7878 119.626 27.9286 119.081 27.9286 117.537C27.9286 116.812 28.0532 116.267 28.1741 115.995L31.2356 100.832H11.6269L8.44017 116.45C7.70531 120.081 7.58203 122.621 7.58203 123.892C7.58203 130.883 14.2009 131.699 28.2972 131.699C49.5016 131.699 52.5613 129.886 55.2581 116.45L67.1518 57.4339H46.4362ZM142.93 57.5138L130.916 116.527C130.181 120.157 130.058 122.698 130.058 123.968C130.058 131.231 137.044 131.779 151.873 131.779C162.539 131.779 169.157 131.686 173.325 128.6C177.001 125.967 177.734 122.064 178.837 116.527L190.72 57.5138L170.014 57.5135L158.256 116.071C157.766 118.339 157.275 119.702 154.456 119.702C152.371 119.702 151.638 119.156 151.638 117.613C151.638 117.16 151.636 116.615 151.759 116.071L163.526 57.5135L142.934 57.5131L142.93 57.5138Z" fill="#CB2027"/>
<path d="M105.045 60.8366C84.9616 60.8366 83.9156 62.209 81.7899 72.9535C81.7899 72.9535 80.0739 81.5788 80.0683 81.6099C79.8515 82.6528 79.6566 83.6706 79.6566 84.6536C79.6566 85.9022 79.9326 87.5889 81.8438 89.1599C81.7115 88.6284 81.6735 88.1245 81.6735 87.6798C81.6735 86.6969 81.8696 85.679 82.0852 84.6361C82.092 84.6049 83.8068 75.9796 83.8068 75.9796C85.9347 65.2351 86.9789 63.8627 107.062 63.8627C112.901 63.8627 119.938 63.8683 123.199 65.1291C123.18 63.54 122.723 63.0745 122.548 62.8998C120.485 60.8363 111.925 60.8366 105.045 60.8366ZM49.5297 61.2137C47.1184 73.2176 38.3725 116.744 38.3636 116.79C37.9355 118.77 36.9352 123.405 30.8659 123.405C29.5984 123.405 27.8311 123.267 26.3614 122.196C26.6594 123.363 27.234 124.173 27.7477 124.685C29.3131 126.251 31.4286 126.431 32.8828 126.431C38.951 126.431 39.9536 121.795 40.3805 119.816C40.3904 119.769 49.1374 76.2438 51.5492 64.2416H61.9166L62.5264 61.2154H49.5307L49.5297 61.2137ZM146.017 61.2901C143.564 73.3386 134.619 117.275 134.621 117.272C133.941 120.635 133.839 122.908 133.839 123.965C133.839 125.393 134.242 125.797 134.395 125.949C134.718 126.271 135.228 126.538 135.86 126.767C135.872 125.635 136.002 123.453 136.64 120.298C136.639 120.301 145.581 76.3647 148.034 64.3163H158.291L158.899 61.2901L146.017 61.2901ZM173.113 61.2901C170.701 73.2932 161.956 116.818 161.946 116.864C161.519 118.843 160.516 123.48 154.448 123.48C153.214 123.48 151.495 123.344 150.062 122.309C150.301 123.281 150.76 124.115 151.443 124.798C152.975 126.329 155.044 126.506 156.467 126.506C162.535 126.506 163.536 121.871 163.963 119.891C163.973 119.844 172.718 76.3185 175.131 64.3163H185.499L186.109 61.29L173.113 61.2901ZM109.105 69.5383C109.231 70.0331 109.315 70.5871 109.315 71.2164C109.315 71.5466 109.271 72.2709 108.988 73.4539L107.809 79.4178H110.425L111.007 76.4802C111.288 75.2972 111.334 74.5718 111.334 74.2427C111.334 72.118 110.454 70.7925 109.714 70.0543C109.52 69.8597 109.314 69.6929 109.105 69.5383ZM95.6919 86.2883C96.5947 89.3313 99.6818 90.6925 101.129 91.3262C101.136 91.3295 113.026 96.5049 113.026 96.5049C114.519 97.1375 115.593 97.7976 116.38 98.4435C116.142 97.2082 115.152 95.2319 111.007 93.4786C111.007 93.4786 99.117 88.3035 99.1107 88.2999C98.2747 87.9341 96.8871 87.3233 95.6919 86.2883ZM102.547 101.388C102.721 102.002 102.818 102.682 102.818 103.447C102.818 104.204 102.684 104.883 102.554 105.54C102.554 105.54 100.291 116.811 100.287 116.835C99.9454 118.479 98.9058 123.482 92.9054 123.482C92.1716 123.482 90.1069 123.473 88.4112 122.224C88.7148 123.397 89.2974 124.215 89.8167 124.735C91.5889 126.508 94.0992 126.508 94.924 126.508C100.924 126.508 101.964 121.505 102.305 119.862C102.31 119.837 104.572 108.567 104.572 108.567C104.701 107.91 104.836 107.23 104.836 106.473C104.836 104.148 103.984 102.59 102.547 101.388ZM14.7106 104.611C13.7845 109.15 12.1401 117.197 12.1411 117.193C11.4596 120.556 11.3594 122.832 11.3594 123.888C11.3594 125.284 11.7485 125.676 11.9153 125.842C12.241 126.167 12.7549 126.437 13.3798 126.669C13.3953 125.531 13.5249 123.354 14.1598 120.219C14.1586 120.223 15.8012 112.176 16.7274 107.637H25.9954L26.6086 104.611L14.7106 104.611ZM75.2747 105.414C74.3786 109.766 72.8333 117.287 72.8323 117.291C72.1541 120.554 72.0522 122.645 72.0522 123.602C72.0522 125.239 72.517 125.704 72.6915 125.878C73.0073 126.193 73.4878 126.454 74.0726 126.682C74.0726 126.663 74.0708 126.649 74.0708 126.629C74.0708 125.672 74.1709 123.58 74.8491 120.317C74.8491 120.313 76.3972 112.793 77.2933 108.441H87.7789L88.3974 105.413L75.2747 105.414Z" fill="white" stroke="white" stroke-width="0.1"/>
</svg>
