<svg width="200" height="200" viewBox="0 0 200 200" fill="none" xmlns="http://www.w3.org/2000/svg">
<g clip-path="url(#clip0_107_20214)">
<path fill-rule="evenodd" clip-rule="evenodd" d="M160.404 141.204V139.347H161.078L162.288 141.201H162.96L161.744 139.347C162.461 139.325 163.01 139.029 163.008 138.235C163.008 137.357 162.31 137.156 161.588 137.156L159.855 137.16L159.857 141.204L160.404 141.204ZM161.473 137.734C161.907 137.734 162.454 137.806 162.454 138.223C162.456 138.868 161.578 138.773 161.078 138.773H160.404L160.402 137.734H161.473Z" fill="#004F9E"/>
<path fill-rule="evenodd" clip-rule="evenodd" d="M161.213 142.868C163.259 142.866 164.888 141.251 164.888 139.206C164.885 137.15 163.249 135.541 161.203 135.543C159.161 135.546 157.544 137.157 157.547 139.211C157.547 141.261 159.171 142.875 161.213 142.868ZM161.205 136.105C162.886 136.1 164.323 137.46 164.323 139.206C164.325 140.943 162.895 142.3 161.21 142.301C159.546 142.301 158.102 140.951 158.099 139.211C158.097 137.47 159.539 136.105 161.205 136.105Z" fill="#004F9E"/>
<path fill-rule="evenodd" clip-rule="evenodd" d="M146.658 128.294C146.11 129.8 144.939 130.827 143.594 130.827C141.723 130.827 140.199 128.811 140.199 126.312C140.199 123.83 141.723 121.791 143.594 121.791H145.052C145.052 121.791 146.535 119.216 145.09 115.781C145.09 115.781 147.127 114.335 145.879 111.25V99.7346H113.213V96.8533C115.3 91.5182 118.333 84.899 118.333 74.6828C118.333 67.6627 116.14 62.543 116.14 62.543H98.4376V103.169H105.977V122.319H69.4503V103.169H76.9711V62.543H59.2757V83.9695C59.2757 83.9695 55.9601 87.386 62.0243 96.0547C68.0319 104.659 60.6791 119.133 60.6791 119.133C61.4938 122.205 63.8932 124.531 63.8932 124.531C63.1134 129.436 59.5467 135.274 59.5467 135.274C60.6807 138.002 61.9644 139.035 61.9644 139.035C61.9644 139.035 71.1979 131.349 77.4383 131.349C77.4383 131.349 83.7037 135.861 88.5873 138.532C97.0209 143.156 104.755 145.911 104.755 145.911C106.032 142.967 106.078 140.777 106.078 140.777C105.445 139.256 103.677 137.634 103.677 137.634L104.71 135.793C104.71 135.793 108.798 137.693 112.681 142.672L115.152 142.24C115.907 143.68 116.318 145.688 116.273 146.763C116.273 146.763 123.162 145.476 130.599 152.94L134.021 152.912V149.432C134.021 149.432 136.813 147.161 141.585 146.231C148.865 149.247 153.867 154.921 153.867 154.921C161.597 154.555 164.866 148.181 164.866 148.181C157.039 143.567 151.976 138.719 151.976 138.719C151.976 138.719 152.314 137.778 155.408 136.651C156.678 136.187 157.427 135.622 157.427 135.622C157.427 135.622 159.42 126.887 157.368 123.446H154.153C153.296 124.503 153.07 125.928 153.07 125.928H149.525C148.083 125.928 147.082 127.07 146.658 128.294Z" fill="#004F9E"/>
<path fill-rule="evenodd" clip-rule="evenodd" d="M12.2192 73.8691H14.577V67.293H3.10547V73.8691H5.47993V90.0533H3.10547V96.6261H27.5035V86.7827H21.3097V90.055H12.2192V73.8691Z" fill="#004F9E"/>
<path fill-rule="evenodd" clip-rule="evenodd" d="M47.5323 67.2734H34.1435V73.8595H36.6227L31.5446 90.0388H29.1602V96.6182H38.5133V90.0388L39.0587 88.3239H46.9137L47.381 90.0437V96.6182H56.7242V90.0305H54.3364L47.5323 67.2734ZM41.1821 81.549L43.0611 75.5926H43.1059L44.8768 81.549H41.1821Z" fill="#004F9E"/>
<path fill-rule="evenodd" clip-rule="evenodd" d="M44.8744 81.5496L43.1035 75.5898H43.0586L41.1797 81.5496H44.8744Z" fill="white"/>
<path fill-rule="evenodd" clip-rule="evenodd" d="M161.209 142.304C162.893 142.301 164.323 140.942 164.321 139.207C164.321 137.461 162.885 136.102 161.204 136.105C159.538 136.105 158.096 137.472 158.098 139.214C158.101 140.952 159.544 142.304 161.209 142.304ZM161.588 137.156C162.309 137.156 163.008 137.356 163.008 138.235C163.01 139.027 162.461 139.325 161.744 139.346L162.96 141.2H162.288L161.077 139.346H160.404V141.204H159.857L159.855 137.161L161.588 137.156Z" fill="white"/>
<path fill-rule="evenodd" clip-rule="evenodd" d="M161.076 138.773C161.578 138.773 162.454 138.868 162.453 138.223C162.453 137.806 161.907 137.734 161.473 137.734H160.402V138.773H161.076Z" fill="white"/>
<path fill-rule="evenodd" clip-rule="evenodd" d="M200 76.9916V64.1691H184.691V75.5352H182.017V64.1691L148.987 64.1675L147.236 65.4466V64.1674H135.728V41.9141H40.582V64.1475H31.0376V76.9799H32.3828L30.2877 83.6571H18.2025V86.9294H15.3242V76.9899H17.6837V64.1674H0V76.9899H2.37446V86.9261H0V99.7486L41.6179 99.7403V91.4477H44.2734V99.7403H60.4722C61.0226 101.167 61.2787 102.787 61.2787 104.534C61.287 107.66 60.4589 111.033 59.6026 113.572C59.1669 114.844 58.7413 115.893 58.4154 116.615C58.136 117.238 57.3811 118.783 57.3811 118.783C57.3811 118.783 57.8267 121.54 60.5321 125.425C60.0948 127.054 59.3465 128.906 58.6265 130.392C57.6239 132.463 56.0575 134.997 56.0575 134.997L56.6844 136.468C58.6797 140.435 61.9953 143.049 61.9953 143.049C61.9953 143.049 64.0472 141.344 64.295 141.159C65.1447 140.484 67.4609 138.716 70.1064 137.174C72.3063 135.88 74.8287 134.818 76.5447 134.543C78.4835 135.903 83.121 139.093 87.1001 141.273C95.7848 146.04 106.445 149.814 106.445 149.814C106.445 149.814 108.297 145.899 108.906 143.018C109.701 143.757 111.39 146.088 111.39 146.088L113.078 145.786C113.281 146.886 113.04 150.575 113.04 150.575C113.04 150.575 116.167 149.761 117.542 149.809C119.247 149.877 123.487 150.243 128.409 155.161L129.325 156.085L137.12 156.026V151.135C138.045 150.616 139.455 149.953 141.274 149.491C144.154 150.812 146.666 152.584 148.482 154.105C150.186 155.537 152.511 158.088 152.511 158.088L154.001 158.022C158.721 157.805 162.243 155.762 164.352 153.716C167.069 151.106 168.979 146.979 168.979 146.979C168.979 146.979 166.716 145.617 164.066 143.919C165.642 142.953 166.704 141.215 166.704 139.225C166.704 136.19 164.257 133.726 161.239 133.726C161.126 133.726 161.018 133.737 160.906 133.744C161.172 132.056 161.412 130.041 161.412 128.233C161.412 124.345 159.135 120.317 159.135 120.317H152.687C152.687 120.317 151.277 121.902 150.888 122.81H149.523C148.956 122.805 148.42 122.892 147.905 123.046C148.222 122.401 148.816 120.915 148.824 118.826C148.827 118.083 148.75 117.268 148.558 116.413C149.009 115.588 149.395 114.48 149.39 113.163C149.39 112.371 149.253 111.527 148.976 110.689V99.7519H182.017V88.3659H184.691V99.7519H200V86.9278H197.641V76.9916H200ZM144.132 67.2923V77.1374H137.936V73.8667H128.834V78.66H137.94V85.2643H128.834V90.0526H137.936V86.782H144.132V96.6254H119.736V90.0526H122.097V73.8667H119.736V67.2923H144.132ZM43.6897 45.0422H132.622V64.1475H119.752L119.75 59.4371H95.3525V106.27H102.882V119.213H72.5474V106.27H80.0715V59.4371H55.6468V64.1442H43.6897V45.0422ZM56.1689 67.2691V83.0524C56.0293 83.3208 55.8962 83.6323 55.7699 83.9769L50.7765 67.2691H56.1689ZM27.5025 96.6254H3.10609V90.0526H5.47888V73.8667H3.10609V67.2923H14.5777V73.8667H12.2198V90.0543H21.3086V86.782H27.5025V96.6254ZM56.7243 96.6155H47.3794V90.0427L46.9122 88.3229H39.0589L38.5135 90.0377V96.6155H29.1586V90.0377H31.5431L36.6212 73.8568H34.1437V67.2724H47.5324L54.3365 90.0294H56.7243V96.6155ZM161.204 135.544C163.247 135.542 164.885 137.149 164.887 139.207C164.887 141.251 163.259 142.867 161.212 142.869C159.17 142.874 157.546 141.261 157.546 139.212C157.543 137.157 159.162 135.547 161.204 135.544ZM149.526 125.927H153.071C153.071 125.927 153.297 124.502 154.155 123.443H157.369C159.423 126.886 157.428 135.62 157.428 135.62C157.428 135.62 156.679 136.188 155.411 136.65C152.315 137.779 151.977 138.718 151.977 138.718C151.977 138.718 157.04 143.566 164.867 148.18C164.867 148.18 161.598 154.554 153.868 154.919C153.868 154.919 148.868 149.244 141.588 146.23C136.816 147.16 134.022 149.431 134.022 149.431V152.911L130.6 152.939C123.163 145.475 116.274 146.762 116.274 146.762C116.319 145.687 115.91 143.679 115.153 142.239L112.682 142.671C108.801 137.692 104.711 135.792 104.711 135.792L103.678 137.633C103.678 137.633 105.446 139.253 106.079 140.776C106.079 140.776 106.033 142.966 104.756 145.911C104.756 145.911 97.022 143.155 88.5883 138.533C83.7047 135.86 77.4393 131.348 77.4393 131.348C71.1989 131.348 61.9671 139.035 61.9671 139.035C61.9671 139.035 60.6818 138.001 59.5494 135.273C59.5494 135.273 63.1161 129.435 63.8943 124.529C63.8943 124.529 61.4965 122.204 60.6801 119.134C60.6801 119.134 68.0329 104.658 62.0253 96.0538C55.9628 87.3834 59.2767 83.9686 59.2767 83.9686V62.5404H76.9737V103.168H69.4513V122.317H105.978V103.168H98.4403V62.5404H116.141C116.141 62.5404 118.336 67.6617 118.336 74.6802C118.336 84.8965 115.301 91.5189 113.214 96.8524V99.732H145.88V111.249C147.128 114.334 145.093 115.78 145.093 115.78C146.536 119.213 145.053 121.79 145.053 121.79H143.595C141.726 121.79 140.199 123.831 140.199 126.313C140.199 128.81 141.726 130.826 143.595 130.826C144.94 130.826 146.111 129.797 146.659 128.293C147.083 127.069 148.086 125.927 149.526 125.927ZM168.139 96.6337H149.997L145.785 93.59V70.3674L149.997 67.2923H168.139V77.1374H161.955V73.8667H153.986L152.524 74.9155V88.9889L153.996 90.0476H161.955V86.782H168.139V96.6337ZM169.059 83.6571H158.849V86.9245H155.63V76.9916H158.849V77.1374V80.2605H169.059V83.6571ZM196.897 73.8667H194.536V90.0526H196.897V96.6287H187.797V85.2411L178.911 85.2427V96.6287H169.805V90.0526H172.165V73.8684L169.805 73.8667V67.2923H178.911V78.66H187.797V67.2923H196.897V73.8667Z" fill="white"/>
<path fill-rule="evenodd" clip-rule="evenodd" d="M80.0732 106.271H72.5491V119.214H102.883V106.271H95.3542V59.4378H119.752L119.754 64.1483H132.624V45.043H43.6914V64.145H55.6502L55.6485 59.4378H80.0732V106.271Z" fill="#E31B23"/>
<path fill-rule="evenodd" clip-rule="evenodd" d="M152.523 88.988V74.9145L153.986 73.8658H161.956V77.1347H168.14V67.293H149.995L145.785 70.3665V93.5891L149.995 96.6344H168.14V86.781H161.956V90.0467H153.994L152.523 88.988Z" fill="#E31B23"/>
<path fill-rule="evenodd" clip-rule="evenodd" d="M122.099 90.0566H119.738V96.6278H144.135V86.7843H137.939V90.0566H128.837V85.265H137.942V78.664H128.837V73.8691L137.939 73.8674V77.1414H144.135V67.293H119.738V73.8691H122.099V90.0566Z" fill="#E31B23"/>
<path fill-rule="evenodd" clip-rule="evenodd" d="M178.912 67.293H169.805V73.8658L172.166 73.8674V90.0517H169.805V96.6278H178.912V85.2434L187.798 85.2418V96.6278H196.896V90.0517H194.537V73.8658H196.896V67.293H187.798V78.6591H178.912V67.293Z" fill="#E31B23"/>
</g>
<defs>
<clipPath id="clip0_107_20214">
<rect width="200" height="200" fill="white"/>
</clipPath>
</defs>
</svg>
