<svg width="200" height="200" viewBox="0 0 200 200" fill="none" xmlns="http://www.w3.org/2000/svg">
<path d="M181.14 64.4227C178.681 58.5206 174.448 54.1606 171.315 51.534C166.708 47.4871 159.776 45.8032 156.21 45.1014C156.135 44.9218 156.057 44.7564 155.969 44.5944C155.528 43.7642 155.032 42.9365 154.497 42.1323C153.451 40.5626 152.27 39.1591 150.983 37.9578C145.236 32.6048 137.517 28.9155 128.04 26.989C125.658 26.5063 123.124 26.1109 120.51 25.8196C118.349 25.5779 115.789 25.3118 113.192 25.1523C111.406 25.044 109.594 24.9794 107.81 24.9601C88.7774 24.7552 70.0026 29.4812 46.9333 40.2856C40.1372 43.4687 33.3865 46.7727 26.3705 49.4539C24.9837 49.9836 23.5886 50.4864 22.1834 50.964L17.4205 72.566L27.3518 73.5666C29.2145 73.9427 30.0732 74.5454 30.294 74.8568C30.2974 74.8619 30.3024 74.8661 30.3066 74.8694C30.5492 75.2304 30.4602 76.173 30.2923 76.9495L30.1396 77.6622L29.3287 81.4783L26.9799 92.5151L25.8609 97.775L25.0954 101.377L16.7305 140.695H67.376C67.1309 145.182 67.6438 149.382 68.9038 153.198C69.1505 154.003 69.4326 154.78 69.7717 155.588C73.2806 163.867 80.6382 170.106 89.9601 172.7C95.3837 174.216 101.129 175.051 106.127 175.051C120.345 175.051 130.447 171.399 137.912 163.558C143.586 157.595 147.476 149.503 149.798 138.817L161.016 87.0563C162.341 86.5451 163.502 85.9902 164.471 85.4656C165.466 84.9275 166.862 84.0696 168.121 83.1042C168.133 83.1135 168.145 83.1227 168.157 83.1311C168.393 83.3049 168.611 83.4736 168.808 83.6381C170.073 84.6958 171.006 86.1405 171.65 87.4131C173.073 89.8214 174.574 93.3655 175.409 98.3584C175.409 98.3584 182.159 88.2021 183.136 78.1029C183.138 78.0794 183.142 78.0576 183.144 78.0349C183.172 77.726 183.195 77.4171 183.213 77.1099C183.485 72.6743 182.798 68.4041 181.139 64.421" fill="white"/>
<path d="M106.576 28.5C86.134 28.5168 67.4509 34.5943 48.4435 43.497C40.6898 47.128 34.0294 50.2172 27.1024 52.8751H72.9872L69.8839 67.4638C70.4749 67.4128 71.0706 67.3638 71.6622 67.3221C76.1877 67.0038 80.6871 66.9951 84.2873 67.6263C87.692 68.224 90.2976 69.5732 92.1242 71.2507C95.2335 74.6319 95.0186 85.515 82.5674 80.6772C81.0544 80.0902 79.5146 79.5597 77.9741 79.0809C74.5142 78.0038 71.0658 77.1905 67.9452 76.5767L66.3361 84.1451H124.284C126.775 82.5192 128.817 80.9989 130.382 79.7102C133.947 81.52 136.07 82.3137 138.964 83.3029C139.931 83.634 140.898 83.9087 141.872 84.1451C143.463 84.5272 145.068 84.8025 146.714 85.0396C151.266 85.8394 155.315 85.2417 158.619 84.1424C164.066 82.3312 167.464 79.1568 167.699 78.6323C169.042 79.3878 170.197 80.1601 171.09 80.9102C174.864 84.0645 176.248 89.4053 176.248 89.4053C180.472 80.518 180.686 72.5602 177.866 65.7836C175.542 60.2125 171.453 56.2759 169.002 54.2243C164.046 49.8411 155.221 48.5396 153.71 48.2401C153.556 48.0682 153.281 47.3449 153.14 46.9917C153.025 46.6841 152.925 46.4216 152.837 46.2611C152.448 45.5237 152.011 44.7951 151.541 44.0953C150.648 42.7516 149.648 41.5596 148.56 40.5516C143.309 35.652 136.164 32.2566 127.339 30.4636C125.056 29.9996 122.625 29.6235 120.12 29.3428C118.012 29.1084 115.521 28.8465 112.982 28.6934C110.827 28.5618 108.691 28.498 106.576 28.5ZM25.0582 56.8997L23.9971 61.6402L22.562 68.0333L22.3418 69.0117L27.9411 69.5765C29.8476 69.9358 32.3881 70.7524 33.6452 72.6173C33.7896 72.8315 34.0663 73.2445 34.2617 73.9315C34.441 74.5594 34.5512 75.4176 34.4283 76.5687C34.3886 76.9427 34.3255 77.3443 34.2302 77.7808L33.5519 80.968L31.0141 92.9014L29.8181 98.5222L29.0532 102.115L21.7031 136.665H71.8166L71.6286 138.291C71.5964 138.566 71.5648 138.834 71.5346 139.117C71.0578 143.804 71.4627 148.129 72.74 151.97C72.9563 152.682 73.2014 153.353 73.4767 154.011C76.5074 161.156 82.9079 166.549 91.041 168.818C96.1313 170.242 101.49 171.021 106.131 171.021C119.171 171.021 128.345 167.764 135 160.78C140.144 155.367 143.703 147.9 145.865 137.961L156.616 88.3556L156.657 88.1696H143.804H124.584H117.479H114.371L113.968 89.964L112.987 94.3452L111.651 100.295L115.485 100.617C116.687 100.718 120.756 101.215 122.663 103.519C123.053 103.989 124.228 105.412 123.597 108.736L118.379 133.167C117.096 138.821 115.895 140.95 114.364 142.555C112.994 143.992 110.919 144.784 108.521 144.784C101.698 144.784 100.705 140.93 100.55 138.029C100.476 136.699 100.644 134.953 101.027 133.005L109.032 96.0375L109.945 91.8067L110.731 88.1696H67.3596L64.6378 100.302L68.477 100.617C68.7725 100.638 69.2393 100.685 69.806 100.785C71.5326 101.067 74.1751 101.766 75.623 103.478C75.7264 103.606 75.8184 103.733 75.9091 103.861C76.7136 105.043 76.9553 106.547 76.6377 108.461L76.0951 111.147H56.4731L57.8599 104.627L58.6154 101.088L60.5118 92.1694L62.1907 84.28L63.9911 75.8145L65.6727 67.903L68.0143 56.8997H53.7755H47.424H42.3834H25.0582ZM111.357 104.311L104.964 133.858C104.555 135.954 104.541 137.236 104.575 137.814C104.662 139.526 104.729 140.762 108.53 140.762C109.793 140.762 110.854 140.406 111.445 139.781C112.277 138.908 113.258 137.538 114.453 132.28L119.65 107.944C119.724 107.561 119.885 106.473 119.576 106.091C119.026 105.426 117.085 104.781 115.158 104.627L111.357 104.311ZM66.5954 104.499C65.0548 104.559 63.5197 104.606 61.9798 104.627L61.45 107.125H72.7461C72.7655 106.715 72.734 106.299 72.552 106.084C71.9845 105.412 70.0955 104.788 68.1513 104.627L66.5954 104.499Z" fill="#0A254E"/>
<path d="M125.8 35.9258C134.134 39.3943 136.491 43.3316 136.142 46.9284C136.921 47.2897 137.747 47.6235 138.667 47.9196C139.11 48.0197 139.533 48.0781 139.909 48.0888C142.313 48.1587 142.77 46.4926 142.857 45.7727C143.348 41.7152 136.632 39.1875 136.384 39.0962C135.732 38.8625 135.034 38.614 134.275 38.3393C131.179 37.2091 128.312 36.4456 125.8 35.9258ZM104.929 41.734C100.403 41.8388 96.9243 43.2161 96.8974 43.2282C103.505 41.9153 108.824 42.971 112.262 45.1193C115.244 46.9855 116.808 49.6737 116.56 52.3572C116.023 58.0902 107.582 58.7315 107.454 58.7369C109.664 59.029 111.611 59.0471 113.276 58.8457C118.453 58.2198 121.005 55.4859 120.898 52.2806C120.891 52.0651 120.871 51.8495 120.844 51.6333C120.831 51.5392 120.811 51.4446 120.79 51.3526C120.784 51.2928 120.777 51.235 120.764 51.178C120.502 49.9564 119.87 48.6966 118.877 47.4818C118.185 46.6376 117.312 45.815 116.265 45.042C112.598 42.3424 108.448 41.6527 104.929 41.734ZM107.454 58.7369C107.447 58.7362 107.447 58.7355 107.441 58.7355L107.447 58.7369H107.454ZM149.68 52.795C148.472 52.7863 147.229 52.8387 145.846 52.8971C145.517 52.9112 145.181 52.926 144.839 52.9408C146.524 52.885 163.42 53.0361 168.449 65.3671C171.31 72.37 163.802 68.6946 153.185 67.3656C153.407 67.3945 153.628 67.4361 153.85 67.4757V67.471C153.877 67.4764 153.904 67.4838 153.931 67.4892C154.025 67.5039 154.112 67.516 154.206 67.5321C156.832 68.0069 158.739 68.5542 160.31 69.1627C162.855 70.0122 165.004 70.9745 166.804 71.9489C168.154 72.6769 169.302 73.4109 170.276 74.1106C173.54 76.4671 174.802 78.4313 174.802 78.4313C174.802 78.4313 174.97 73.7916 173.432 68.9451C173.164 67.7961 172.613 66.5006 171.794 65.0877C171.545 64.6425 171.283 64.204 170.988 63.7809V63.7836C170.773 63.4471 170.538 63.1087 170.289 62.7635C164.924 55.2328 158.94 54.4141 155.905 53.611C153.595 52.9965 151.688 52.8098 149.68 52.795ZM76.698 67.1111C75.0547 67.1259 73.3611 67.2017 71.6641 67.3213C71.7467 67.336 86.1963 67.1567 84.8062 74.8869C84.2489 77.9579 81.5506 79.2681 77.9746 79.0794C79.5151 79.5582 81.0556 80.0887 82.5693 80.6757C95.0205 85.5135 95.2354 74.6297 92.1261 71.2498C90.2995 69.5723 87.6939 68.2232 84.2891 67.6255C82.0381 67.2313 79.4372 67.0869 76.698 67.1111ZM158.396 74.7117C158.464 75.3859 158.215 76.1407 157.866 76.7014C156.435 78.9948 153.393 79.7046 150.929 79.8886C150.029 79.9551 149.049 79.9182 147.995 79.7469C148.881 79.9356 149.955 80.1304 151.144 80.2848C153.541 80.5991 155.509 80.36 158.262 79.9618C159.968 79.7167 161.935 79.0237 163.42 78.2648C163.99 77.9781 164.528 77.6456 165.038 77.2662C164.662 77.0889 164.293 76.9251 163.943 76.7733C163.379 76.5282 162.862 76.3173 162.419 76.1427V76.1333C161.143 75.6256 159.793 75.1448 158.396 74.7117Z" fill="#C6C7C9"/>
<path d="M29.6962 62.6875L29.4102 63.9675C30.1556 64.1213 30.9473 64.3281 31.7532 64.6007C33.1205 65.0641 34.5274 65.7229 35.8006 66.6577C36.7925 67.3883 37.7038 68.2788 38.4485 69.3815C39.1241 70.3848 39.6116 71.4767 39.9125 72.6512C40.1475 73.5619 40.2657 74.5222 40.2731 75.5322C40.2798 76.6281 40.1536 77.7805 39.893 78.9859L39.566 80.5164L36.8435 93.3181L35.5461 99.4157L34.7906 102.968L29.3712 128.439L28.8555 130.877H91.3194L98.0349 99.8455L98.8877 95.8834L99.3041 93.9561H96.3426H72.9385H71.9956L71.7069 95.2454C73.7175 95.6551 76.0572 96.4475 78.0617 97.9115C78.7742 98.4353 79.4458 99.033 80.0461 99.7448C80.0737 99.7717 80.1005 99.812 80.1274 99.8455C80.9514 100.839 81.5679 101.968 81.9742 103.197C82.5994 105.084 82.7276 107.212 82.3294 109.508L82.3193 109.576L80.8379 116.936H76.585H49.3289H45.0767L45.5944 114.498L47.7783 104.231L48.5244 100.719L50.0858 93.3853L50.1328 93.1636L52.6987 81.0939L52.7484 80.8683L54.0432 74.7767L55.1593 69.5299L56.6152 62.6875H53.655H36.8435H30.676H29.6962ZM119.01 93.9561L118.721 95.2454C120.743 95.6618 123.1 96.4542 125.114 97.9383C125.84 98.4689 126.525 99.0934 127.129 99.8321C129.305 102.451 130.043 105.93 129.278 109.884L124.033 134.43C122.65 140.527 121.172 143.804 118.56 146.544C116.089 149.142 112.53 150.573 108.535 150.573C107.749 150.573 107.003 150.519 106.271 150.432C105.627 150.519 104.962 150.573 104.277 150.573C99.1396 150.573 95.211 148.78 92.8808 145.563C92.2428 144.677 91.7324 143.683 91.3429 142.595C91.3496 142.608 91.3496 142.628 91.3563 142.642C91.3563 142.642 90.8124 142.528 89.8118 142.494L86.9846 142.38C86.8838 142.38 86.7025 142.38 86.4742 142.373C86.3063 142.373 86.1116 142.367 85.8765 142.367C85.4803 142.367 85.0572 142.4 84.614 142.454C82.3193 142.749 79.617 143.763 78.5842 145.127C77.141 147.02 78.1107 150.089 78.8139 151.748C79.527 153.434 80.4941 154.992 81.672 156.402C84.3521 159.598 88.1396 162.003 92.5987 163.245C96.534 164.346 100.624 165.018 104.31 165.186C114.364 164.823 121.475 162.13 126.558 156.791C130.957 152.164 134.032 145.61 135.967 136.733L145.234 93.9561H142.266H119.97H119.01Z" fill="#990000"/>
<path d="M103.513 34.0377C101.619 34.0511 97.1063 34.1868 91.2975 35.0584C90.4983 35.1786 89.6723 35.3123 88.8262 35.4627C88.43 35.5319 88.0337 35.6031 87.6308 35.6803C86.4287 35.91 85.1864 36.1698 83.9172 36.4673C81.7957 36.9623 79.5984 37.5566 77.3635 38.2704C74.682 39.128 71.9482 40.1568 69.2392 41.3931C68.6348 41.6678 68.0337 41.9532 67.434 42.2494C65.9365 42.9894 64.4497 43.7953 62.9877 44.673L62.9985 44.6851C64.0541 44.3896 79.7361 39.9137 92.9159 39.627C88.665 41.0245 83.3403 43.8194 78.481 49.8399C102.835 41.1285 109.698 50.8472 111.343 54.0041C111.343 54.0041 99.9873 45.8952 90.1357 51.5892C89.6857 51.8511 88.2755 52.9209 87.9599 53.4716C84.7432 58.48 88.8463 64.1324 94.7694 65.6971C100.686 67.2598 115.997 64.951 115.997 64.951C119.045 64.5669 122.033 63.8685 124.78 62.9612C126.526 62.3837 128.178 61.7222 129.682 61.0016C130.455 60.6276 131.193 60.2361 131.885 59.8331C132.06 59.7311 132.234 59.629 132.402 59.5262C132.604 59.4013 132.798 59.2778 132.993 59.1522C133.833 58.6069 134.591 58.0421 135.243 57.4693C135.525 57.2175 135.793 56.9623 136.042 56.7057C136.405 56.323 136.727 55.9388 136.996 55.5534C136.593 55.6031 136.143 55.6447 135.659 55.6722L135.458 55.687C135.243 55.7025 135.028 55.7192 134.786 55.7132C134.115 55.6931 133.45 55.6313 132.792 55.5426C132.315 55.4761 131.845 55.3915 131.381 55.2895C129.864 56.3747 128.487 57.3887 126.99 58.2577C126.963 58.2745 126.929 58.2919 126.902 58.3074C125.311 59.2167 123.571 59.9574 121.335 60.4402C102.371 64.5373 94.4806 53.4534 94.4806 53.4534C98.671 56.7736 103.365 58.4195 107.448 58.7378C107.556 58.7352 116.024 58.0985 116.561 52.3582C116.809 49.676 115.245 46.9871 112.263 45.1216C108.825 42.9733 103.506 41.9176 96.8982 43.2305C95.4006 43.5864 94.2388 43.9672 93.6277 44.1854C93.48 44.2345 93.3725 44.2761 93.2852 44.307C93.1912 44.3446 93.1375 44.3647 93.1375 44.3647C96.3341 41.7779 101.485 38.9427 109.08 38.9346C109.255 38.9346 109.429 38.9393 109.611 38.9447C110.128 38.9299 110.638 38.9292 111.135 38.9581C123.679 39.6619 128.319 42.4313 132.409 44.8778C133.631 45.6051 134.806 46.3095 136.143 46.9307C136.492 43.3339 134.128 39.396 125.801 35.9281C119.851 34.6985 115.937 34.5588 115.883 34.5615H115.863L115.836 34.5601C111.968 34.1666 108.18 33.9987 104.487 34.0417C104.487 34.0417 104.144 34.0337 103.513 34.0377ZM129.756 45.8851C129.669 45.8891 129.555 45.9556 129.434 46.0376C129.34 46.0953 129.239 46.1732 129.152 46.2666C129.125 46.2907 129.105 46.3089 129.091 46.3243C129.071 46.3465 129.051 46.3753 129.031 46.4009C129.011 46.421 128.997 46.4418 128.984 46.4606C128.803 46.6923 128.662 46.971 128.574 47.2665C128.561 47.2933 128.554 47.3182 128.548 47.3451C128.541 47.3766 128.527 47.4082 128.521 47.4404C128.514 47.4525 128.514 47.4639 128.514 47.476C128.487 47.5875 128.467 47.7037 128.447 47.8225V47.8501C128.433 47.9622 128.42 48.0744 128.42 48.1912V48.1999C128.413 48.8117 128.568 49.3792 128.83 49.8909L128.85 49.958C129.199 50.6356 129.79 51.3273 130.71 51.9646C130.817 52.0338 130.911 52.1016 131.012 52.1654C131.449 52.4408 131.852 52.6214 132.228 52.7268C133.168 52.9921 133.906 52.7671 134.45 52.3091C132.174 52.2111 130.394 49.3127 132.04 47.3095C131.247 46.8944 130.455 46.417 129.823 45.9032C129.803 45.8891 129.783 45.8838 129.756 45.8851ZM144.839 52.9431C144.738 52.9464 144.685 52.9498 144.685 52.9498C143.677 54.2942 139.903 58.3658 134.182 61.8605C131.576 63.4454 128.574 64.9121 125.243 65.953C122.92 66.6755 120.435 67.194 117.816 67.3954C117.192 67.5069 116.588 67.6056 115.997 67.7037C114.432 67.9636 113.009 68.2026 111.78 68.5169C108.368 69.3899 106.434 70.8492 107.2 75.0007C107.992 79.3127 111.135 79.9789 114.734 79.2207C116.99 78.7459 119.428 77.7151 121.584 76.6641C121.939 76.513 122.322 76.325 122.705 76.1202C124.095 75.3748 125.586 74.3567 126.66 73.7006C132.812 69.9265 142.267 65.8502 152.911 67.3316C152.978 67.3404 153.159 67.3659 153.186 67.3692C163.796 68.6969 171.311 72.3736 168.45 65.3694C163.42 53.0391 146.525 52.8887 144.839 52.9431ZM153.085 55.2424C156.604 55.18 154.22 56.7481 154.22 56.7481C154.22 56.7481 149.372 60.0984 149.271 58.5868C149.164 57.0724 149.56 55.3042 153.085 55.2424ZM56.6127 62.6886L55.1568 69.531L54.0407 74.7777L52.746 80.8694L52.6963 81.095L50.1303 93.1647L50.0833 93.3863L48.5219 100.72L47.7759 104.232L45.592 114.499L45.0742 116.937H49.3265L49.8415 114.499L51.9777 104.467L52.7252 100.941L54.396 93.0975L54.6982 91.6806L56.3743 83.7993L56.8303 81.6551L58.2406 75.0296L59.5729 68.7661L60.8663 62.6886H57.9061H56.6127ZM146.182 72.8202C144.027 72.8209 141.884 72.9881 139.762 73.303C139.01 73.4145 138.265 73.5515 137.526 73.71C136.505 73.9981 135.229 74.491 133.873 75.3291C135.182 75.6649 136.881 76.2599 138.876 76.9529C139.93 77.3229 141.052 77.7131 142.2 78.0965C143.335 78.4739 144.503 78.8466 145.685 79.1918C146.108 79.3093 146.921 79.5236 147.995 79.7492C149.05 79.9204 150.03 79.9574 150.929 79.8909C153.394 79.7069 156.436 78.9971 157.867 76.7037C158.216 76.1437 158.464 75.3882 158.397 74.714C157.927 74.5682 157.457 74.4272 156.98 74.2929C153.401 73.2822 149.774 72.8195 146.182 72.8202ZM99.3023 93.9571L98.8859 95.8845L98.0331 99.8466L91.3176 130.878C91.3176 130.878 91.1699 131.624 91.0221 132.812C91.002 132.973 90.9886 133.155 90.9684 133.329C90.9886 133.148 91.002 132.98 91.0221 132.812C91.1497 131.765 91.284 131.033 91.3109 130.878L91.1094 131.812C90.6192 134.283 90.4177 136.465 90.5185 138.305C90.5991 139.83 90.8744 141.219 91.3176 142.488C91.3243 142.522 91.331 142.556 91.3378 142.596C91.7273 143.684 92.2376 144.678 92.8756 145.564C95.2059 148.781 99.1344 150.574 104.272 150.574C104.95 150.574 105.622 150.52 106.266 150.433C102.237 149.976 99.1008 148.291 97.1265 145.564C95.7364 143.644 94.9238 141.206 94.7761 138.339C94.6753 136.499 94.8701 134.31 95.3603 131.845L102.593 98.4229L103.473 94.3601L103.56 93.9571H100.598H99.3023ZM145.242 94.0243L135.975 136.64C134.041 145.477 130.972 152.011 126.566 156.618C121.483 161.936 114.372 164.623 104.319 164.985C104.937 165.012 105.548 165.026 106.145 165.026C117.494 165.026 125.338 162.353 130.824 156.618C135.223 152.011 138.298 145.477 140.226 136.64L149.493 94.0243H146.525H145.242ZM90.8274 134.907C90.7737 135.693 90.7468 136.553 90.7602 137.453C90.7468 136.546 90.7804 135.693 90.8274 134.907Z" fill="white"/>
</svg>
