<svg width="200" height="200" viewBox="0 0 200 200" fill="none" xmlns="http://www.w3.org/2000/svg">
<path d="M110.057 129.156L114.22 111.511H121.02L116.2 129.156H110.057ZM126.469 67.0474L135.504 35.0625H91.4927L75.1764 54.5407L71.1034 35.0625H26.5749L16.9113 73.0881H22.578L15.6335 99.5454H8.37783L0 135.001H51.0632L57.3695 108.311H63.9077L57.5997 135.001H108.065L100.141 164.936H153.901L163.374 129.154H156.485L161.481 110.869H188.643L200 67.0462H126.468L126.469 67.0474Z" fill="black"/>
<path d="M114.96 71.5776L115.813 68.5602H121.329L129.515 39.5898H93.5956L72.6482 64.6071L67.4179 39.5898H30.0895L22.7292 68.5602H28.4387L19.1211 104.077H11.9513L5.71484 130.474H47.4751L53.7116 104.077H48.0639L51.0068 92.8653L55.2195 103.807H69.6297L79.3807 93.8351L76.4679 104.076H69.5551L63.3153 130.474H105.082L110.625 106.983H126.941L119.647 133.685H113.09L106.019 160.411H150.411L157.489 133.685H150.553L158.021 106.344H185.135L194.143 71.5785L114.96 71.5776Z" fill="white"/>
<path d="M33.4924 43.9424L28.3412 64.213H34.0976L22.4954 108.427H15.4145L11.2305 126.127H44.0535L48.2351 108.427H42.4464L48.1037 86.8709H53.3814L58.2277 99.4528H67.8284L81.7053 85.261L86.3631 85.2635L79.7758 108.426H73.0172L68.8332 126.126H101.661L105.838 108.426H100.049L112.544 64.212H118.06L123.787 43.9414H95.6497L70.2439 74.2781L63.9048 43.9427H33.4957L33.4924 43.9424ZM114.203 75.9286L107.449 102.635H124.183L126.13 93.8773H135.054L122.99 138.031H116.457L111.688 156.059H147.083L151.854 138.031H144.873L156.983 93.7033H166.659L164.734 101.992H181.788L188.542 75.9284L114.203 75.9286Z" fill="#0066CC"/>
</svg>
