<svg width="200" height="200" viewBox="0 0 200 200" fill="none" xmlns="http://www.w3.org/2000/svg">
<path d="M100.03 24.75C84.9181 24.75 69.8059 24.75 54.6936 24.7544C52.4517 24.7544 50.2349 25.0121 48.0533 25.5262C41.2702 27.1246 35.4922 30.4834 30.7097 35.533C27.18 39.2633 24.6325 43.5743 23.4572 48.6075C22.5867 52.3378 21.8601 56.1008 21.0525 59.8468C20.4692 62.5489 20.2907 65.2735 20.7659 68.0013C21.9255 74.6348 25.6445 79.3456 31.6802 82.2406C35.0824 83.8735 38.7222 84.4555 42.472 84.4511C46.8698 84.4467 51.2663 84.4467 55.6641 84.4511C56.0355 84.4511 56.4082 84.4712 56.7778 84.5102C59.6093 84.8125 61.6388 86.9922 61.5068 89.8218C61.4421 91.1995 60.9996 92.5609 60.7771 93.9349C60.114 98.0329 55.9387 100.88 52.3103 100.858C46.7736 100.825 41.2388 100.85 35.7046 100.85H34.9793V91.1379H14.3995C12.1771 101.597 9.96088 112.025 7.74219 122.467H61.6885C61.6709 122.354 61.6677 122.283 61.6464 122.213C60.2831 117.876 60.9009 113.76 63.0807 109.84C64.8563 106.649 67.4332 104.198 70.3621 102.086C70.5199 101.973 70.677 101.854 70.843 101.731C68.5338 99.6708 67.5124 97.9348 67.063 95.2089C66.6783 92.8721 67.0787 90.6075 67.8606 88.4039C69.3678 84.155 72.2163 80.9502 75.8303 78.3801C79.8541 75.5185 84.3393 73.6876 89.1953 72.4865C88.1544 70.7499 86.8955 69.2678 85.3983 67.9976C81.4393 64.628 76.7813 63.019 71.6575 62.8675C66.7802 62.7248 61.8915 62.8323 57.0104 62.8172C56.4724 62.8172 55.9299 62.7808 55.3982 62.7029C52.7138 62.3163 50.7748 60.1925 50.9395 57.5056C51.045 55.7778 51.4517 54.0455 51.9093 52.3668C52.8257 49.0123 56.451 46.3995 60.0474 46.3889C64.3503 46.3757 68.6525 46.3826 72.9573 46.3845C73.1019 46.3845 73.2458 46.3989 73.5356 46.414V56.0964C73.7342 56.1178 73.7933 56.126 73.8473 56.126C80.4638 56.1278 87.0765 56.1235 93.693 56.1385C94.0858 56.1385 94.1342 55.9575 94.1989 55.6533C96.1172 46.6114 98.0461 37.57 99.9707 28.5299C100.232 27.2968 100.483 26.0611 100.755 24.75H100.03ZM124.027 67.2886C119.473 67.315 115.018 68.0133 110.666 69.335C107.05 70.4343 103.621 71.9447 100.607 74.2753C98.0304 76.2689 96.0279 78.6825 95.1317 81.8861C94.0688 85.683 95.6389 88.3724 99.4685 89.3448C101.177 89.7791 102.902 89.7533 104.628 89.5308C107.199 89.1977 109.478 88.2555 111.189 86.2147C112.478 84.6742 113.097 82.8402 113.534 80.9112C113.916 79.2117 114.234 77.4707 114.863 75.8573C116.103 72.6713 118.533 70.4865 121.419 68.7819C122.337 68.2402 123.319 67.8008 124.325 67.2886H124.027ZM140.345 76.2538C139.263 76.3532 138.176 76.4154 137.101 76.5618C136.017 76.7089 134.93 76.8937 133.865 77.1445C129.942 78.0665 126.223 79.4813 122.963 81.9156C120.644 83.6478 118.841 85.7766 118.057 88.6364C117.238 91.6213 118.474 93.7834 121.462 94.5848C122.931 94.9776 124.412 94.9041 125.892 94.6778C129.337 94.1505 131.583 92.0971 132.367 88.7037C132.609 87.6559 132.688 86.5705 132.878 85.5101C133.602 81.458 135.749 78.4763 139.531 76.7391C139.812 76.6096 140.094 76.487 140.375 76.3594C140.366 76.3249 140.358 76.2909 140.345 76.2538H140.345ZM91.7735 76.7139C90.7471 76.9408 89.8055 77.1218 88.8791 77.3594C84.9804 78.3594 81.2645 79.7906 77.9861 82.1815C75.0377 84.331 72.8699 87.0356 72.0962 90.6992C71.3081 94.4427 73.0943 97.7488 76.6782 98.7532C80.389 99.794 83.8277 98.9537 86.7742 96.5125C88.7955 94.8387 89.38 92.5854 88.6302 90.0531C88.326 89.023 87.92 88.0205 87.5334 87.0161C86.9288 85.441 86.9231 83.8703 87.6686 82.3625C88.1758 81.3342 88.7578 80.3254 89.4322 79.4009C90.1035 78.4782 90.9287 77.6731 91.7735 76.7139ZM150.444 80.954C149.183 86.8941 147.924 92.8186 146.656 98.7871C149.358 99.2277 152.008 99.6608 154.689 100.099C153.438 105.985 152.199 111.817 150.955 117.666H150.284C144.601 117.666 138.919 117.659 133.236 117.674C132.904 117.674 132.534 117.78 132.244 117.945C129.67 119.415 126.925 120.267 123.946 120.176C122.603 120.137 121.263 119.905 119.934 119.763C119.338 120.832 118.752 121.998 118.056 123.095C117.359 124.193 116.619 125.274 115.783 126.268C111.461 131.403 106.05 134.421 99.2284 134.609C98.911 134.617 98.8268 134.748 98.7683 135.022C97.317 141.882 95.8576 148.741 94.4145 155.601C94.341 155.954 94.1927 156.1 93.8533 156.15C91.3134 156.526 88.7811 156.922 86.2387 157.285C85.8452 157.341 85.6711 157.484 85.5888 157.875C84.5995 162.589 83.5938 167.298 82.5932 172.008C82.3707 173.056 82.1602 174.107 81.9352 175.194C82.147 175.211 82.2884 175.231 82.433 175.231C96.0374 175.233 109.641 175.238 123.242 175.245C123.594 175.245 123.757 175.163 123.837 174.776C124.634 170.955 125.459 167.137 126.271 163.317C126.688 161.358 127.098 159.399 127.524 157.381C124.833 156.941 122.18 156.506 119.517 156.07C119.543 155.875 119.554 155.748 119.581 155.622C120.758 150.095 121.948 144.564 123.103 139.03C123.2 138.556 123.398 138.502 123.804 138.502C131.182 138.513 138.561 138.511 145.94 138.511H146.522C143.919 150.76 141.328 162.959 138.73 175.202H172.232C173.491 169.268 174.746 163.365 176.016 157.386C173.309 156.941 170.651 156.503 167.988 156.065C169.169 150.496 170.325 145.02 171.489 139.544C173.26 131.215 175.038 122.887 176.81 114.556C177.795 109.918 178.776 105.28 179.75 100.638C179.83 100.256 179.969 100.072 180.408 100.01C182.95 99.6488 185.483 99.2334 188.023 98.8619C188.386 98.8078 188.502 98.6677 188.576 98.322C189.448 94.175 190.342 90.028 191.225 85.881C191.573 84.2481 191.911 82.6145 192.259 80.9533L150.444 80.954ZM108.859 93.96C106.352 93.999 103.994 94.6225 101.726 95.6225C99.2611 96.7111 96.8312 97.8789 94.3385 98.8965C90.8546 100.318 87.1519 100.894 83.4618 101.529C79.0188 102.294 74.8938 103.9 71.3627 106.781C68.4489 109.16 66.2912 112.011 65.9455 115.932C65.6495 119.271 66.7934 121.773 70.0504 123.125C70.8021 123.438 71.5928 123.693 72.3879 123.863C76.2929 124.699 80.2262 124.582 84.1671 124.154C85.2186 124.04 86.277 123.897 87.331 123.922C88.979 123.963 90.2487 124.877 91.3222 126.032C94.6006 129.563 98.6986 130.314 103.189 129.416C106.678 128.718 109.522 126.781 111.888 124.171C114.934 120.812 116.664 116.911 116.407 112.295C116.288 110.183 116.6 108.151 117.196 106.136C117.449 105.28 117.645 104.405 117.833 103.532C118.554 100.193 117.134 96.965 114.196 95.2171C112.546 94.2341 110.747 93.8689 108.859 93.96ZM141.096 97.2258C139.13 97.498 137.144 97.6702 135.202 98.0611C131.186 98.8663 127.421 100.326 124.144 102.854C121.893 104.588 120.179 106.719 119.503 109.552C118.864 112.227 120.122 114.359 122.781 115.041C124.764 115.549 126.733 115.364 128.658 114.729C131.043 113.941 132.6 112.322 133.269 109.903C133.507 109.048 133.694 108.158 133.759 107.275C133.938 104.797 134.723 102.59 136.421 100.744C137.747 99.3006 139.334 98.2221 141.133 97.449C141.122 97.3729 141.108 97.2988 141.095 97.2252L141.096 97.2258Z" fill="#F56423"/>
</svg>
