<svg width="200" height="200" viewBox="0 0 200 200" fill="none" xmlns="http://www.w3.org/2000/svg">
<g clip-path="url(#clip0_107_20208)">
<path d="M112.144 26.6602L109.304 26.7155L92.0466 27.0598C92.0466 27.0598 90.836 30.939 90.3278 32.5553C87.8731 32.5504 78.8312 32.5376 78.8312 32.5376C78.8312 32.5376 78.1107 34.5242 77.9499 34.96C77.3336 34.9889 76.7084 35.0203 76.7084 35.0203C39.5348 35.8484 14.7597 56.8839 13.7227 57.7819L8.35499 62.4174C8.35499 62.4174 63.4682 57.4281 69.7273 56.8621C69.4919 57.8797 68.5887 61.8346 68.5887 61.8346C68.5887 61.8346 80.3375 61.6236 84.1778 61.5502C82.9788 66.928 59.1956 173.345 59.1956 173.345L84.5754 165.381C84.5754 165.381 104.561 64.6431 105.25 61.1617C107.871 61.1141 116.918 60.9456 116.918 60.9456C116.918 60.9456 118.049 56.9161 118.524 55.2166C121.888 55.2912 197.827 56.9418 197.827 56.9418L183.301 49.3743L183.237 49.3435C175.003 45.6163 153.518 35.9299 124.335 34.4606C124.573 33.6064 124.904 32.4175 124.904 32.4175C124.904 32.4175 114.525 32.448 110.984 32.4576C111.285 30.954 112.144 26.6602 112.144 26.6602ZM197.66 60.4154C197.557 60.4154 186.801 60.3768 178.271 60.656C178.284 60.656 156.889 61.2092 156.889 61.2092L155.023 61.2594L151.228 82.764C151.228 82.764 155.795 82.6817 157.532 82.6483C156.683 87.5204 148.655 133.153 148.655 133.153L168.931 127.522C168.931 127.522 172.507 109.711 172.984 107.349C190.764 102.42 199.435 81.0491 199.937 62.7543L200.001 60.4218L197.66 60.4154ZM152.669 61.9104L149.826 62.03L106.922 63.8543L102.456 87.0251C102.456 87.0251 106.955 86.6108 108.435 86.4719C107.465 91.2707 102.656 115.083 102.118 117.754C100.385 117.974 96.0864 118.521 96.0864 118.521L90.3394 148.289L146.571 133.847L150.585 111.572C150.585 111.572 130.386 114.146 125.624 114.754C125.997 112.769 126.216 111.593 126.457 110.327C128.829 109.939 138.337 108.392 138.337 108.392L142.479 85.5726C142.479 85.5726 134.168 86.5838 130.823 86.9878C131.003 86.0216 131.055 85.7823 131.196 85.0322C134.04 84.8431 148.719 83.8345 148.719 83.8345L152.669 61.9104ZM79.055 65.0817L76.0844 65.1872L52.776 66.0029L40.5769 118.242C37.852 130.058 34.7064 136.267 31.2262 136.701C31.0075 136.731 30.3501 136.806 29.8998 134.07C29.4843 131.549 31.0989 124.931 31.7061 122.441L45.3256 66.2473L6.17583 67.7024L0 90.971C0 90.971 8.37338 90.5824 11.7299 90.428C10.4078 95.4417 3.3395 122.292 3.3395 122.292C2.08022 127.352 0.831755 133.372 0.831755 139.246C0.831755 142.145 1.13538 145.004 1.88956 147.699C3.59424 153.787 9.70368 167.62 29.5285 164.648C45.429 162.281 57.4119 157.546 66.8359 118.071C66.8423 118.053 79.055 65.0817 79.055 65.0817Z" fill="#B1B3B3"/>
<path d="M181.269 80.8277C180.144 80.9355 178.855 81.04 177.533 81.1252C177.265 82.6884 176.924 84.6666 176.414 87.6289C178.08 86.3472 179.973 84.2532 181.269 80.8277Z" fill="white"/>
<path d="M109.356 28.9922L103.574 33.4247L96.2187 33.5729L94.4845 39.1061L82.9132 39.083L82.0615 41.4309L79.2993 41.5609C42.3238 42.7123 15.2137 59.5005 15.2137 59.5005L73.0711 54.263L78.539 48.2471L77.4428 53.7149L71.4629 59.5005L87.0366 59.2111L94.1976 52.5969L70.0979 163.176L62.2834 169.982L82.6045 163.6L103.372 58.91L115.182 58.6939L116.809 52.8941L188.114 54.447C188.114 54.447 161.933 42.5309 123.851 40.8597L124.379 38.9723L103.028 39.3545L108.202 34.739L109.356 28.9922ZM197.519 65.4144C193.698 65.426 187.343 65.4698 181.862 65.6537L160.724 66.2082L158.254 80.3513L160.261 80.3127L164.918 76.9831L156.903 123.776L151.525 129.981L166.976 125.692L171.016 105.537C187.265 101.988 196.245 83.3811 197.519 65.4144ZM149.389 67.2671L113.24 68.8225L111.315 78.9386L105.27 84.4695L111.28 83.9189L117.188 79.8534L108.509 122.576L102.56 123.343L99.6963 138.358L93.2609 145.181L144.59 131.993L147.189 117.583L119.379 121.199L122.807 117.407L124.507 108.323L136.382 106.394L139.071 91.5481L124.188 93.0534L128.007 89.6234L129.281 82.8742L146.79 81.6751L149.389 67.2671ZM76.1666 67.4575L72.0573 70.5207L59.655 70.9556C59.655 70.9556 53.3303 98.1623 48.0155 121.493C43.869 139.709 33.3527 138.458 33.3206 138.454C32.6451 138.766 32.0353 138.888 31.5091 138.959C29.3503 139.226 28.1744 137.61 27.6546 134.431C27.1361 131.294 28.9116 124.284 29.6037 121.43L42.3997 68.636L37.6228 71.797L13.5025 72.6564L10.8664 82.7301L3.00391 88.5427L14.7261 87.9972L21.5859 84.1672L11.2006 125.613C9.70979 131.673 7.52948 141.762 9.76331 149.82C10.9888 154.234 13.3739 158.763 17.4921 161.812C20.7059 162.79 24.5566 163.085 29.1946 162.391C43.0585 160.319 55.1803 157.077 64.6198 117.535L76.1666 67.4575ZM189.259 73.5236C186.275 92.1194 177.706 95.512 168.765 96.4447L173.396 91.7282L175.583 78.9605L176.6 78.9065C180.421 78.6878 184.409 78.2195 184.409 78.2195L189.259 73.5236Z" fill="#041E42"/>
<path d="M109.354 28.9923L93.7344 29.3013L92.0001 34.8321L80.4263 34.8119L79.5746 37.159L76.8188 37.2871C46.0522 37.1166 15.2123 59.4981 15.2123 59.4981C15.2123 59.4981 42.3225 42.7099 79.298 41.5584L82.0602 41.4285L82.9119 39.0831L94.4831 39.1037L96.2174 33.5705L103.573 33.4223L109.354 28.9923ZM121.896 34.6989L108.2 34.7366L103.027 39.3521L124.377 38.97L123.85 40.8574C161.932 42.5286 188.113 54.4447 188.113 54.4447L182.298 51.4161C172.906 47.1641 151.112 37.4995 121.368 36.5861L121.896 34.6989ZM78.5376 48.245L73.0698 54.2584L72.1049 56.6706L71.4307 58.3599L71.4616 59.4985L77.4415 53.7129L78.5376 48.245ZM94.1962 52.5949L87.0353 59.209L62.2821 169.98L70.094 163.174L94.1962 52.5949ZM197.659 62.6891C197.659 62.6891 186.929 62.6454 178.348 62.9284L156.94 63.4829L153.955 80.4268L158.252 80.3496L160.722 66.2066L181.86 65.6521C187.341 65.4681 193.697 65.423 197.518 65.4128V65.3433C197.582 64.4556 197.634 63.5704 197.659 62.6891ZM149.928 64.305L108.822 66.0483L105.268 84.4653L111.314 78.9395L113.241 68.8208L149.388 67.2654L149.928 64.305ZM76.1652 67.4584L54.6001 68.2097C54.6001 68.2097 48.1866 95.4177 42.8024 118.747C42.6171 119.55 42.4293 120.302 42.2453 121.043C42.2003 121.223 42.1553 121.398 42.1115 121.575C41.9314 122.271 41.7539 122.942 41.5737 123.582C41.5351 123.723 41.4978 123.85 41.4605 123.982C41.3036 124.525 41.1492 125.051 40.9935 125.559C40.951 125.694 40.9047 125.839 40.8623 125.981C40.686 126.538 40.5098 127.077 40.3348 127.589C40.2833 127.735 40.2357 127.875 40.1843 128.019C40.0273 128.472 39.8665 128.914 39.707 129.331C39.6799 129.397 39.6516 129.474 39.6259 129.54C39.4484 130.001 39.2695 130.435 39.0907 130.849C39.0431 130.966 38.9942 131.078 38.9427 131.193C38.7691 131.597 38.5928 131.978 38.4178 132.347C38.387 132.402 38.3574 132.461 38.3278 132.522C38.1682 132.847 38.01 133.15 37.853 133.444C37.8144 133.519 37.7758 133.592 37.7372 133.663C37.5597 133.978 37.386 134.278 37.2123 134.557C37.1802 134.611 37.1429 134.663 37.1081 134.718C36.9409 134.98 36.7723 135.23 36.6115 135.462C36.5961 135.48 36.5793 135.504 36.5665 135.53C36.3864 135.775 36.2088 136.004 36.0351 136.223C36.0056 136.249 35.9798 136.284 35.9528 136.318C35.59 136.743 35.2362 137.113 34.8901 137.412C34.8785 137.42 34.8682 137.433 34.8567 137.443C34.3176 137.906 33.8043 138.232 33.3192 138.455C33.3527 138.458 43.8689 139.707 48.0168 121.491C53.3302 98.1632 59.6536 70.9565 59.6536 70.9565L72.056 70.5191L76.1652 67.4584ZM42.401 68.6343L7.94717 69.9105L3 88.5436L10.8625 82.7284L13.5012 72.6548L37.6215 71.7953L42.401 68.6343ZM189.261 73.5245L184.41 78.2178C181.683 88.5655 175.405 90.1737 173.398 91.7266L168.766 96.4405C177.707 95.5103 186.276 92.1203 189.261 73.5245ZM164.919 76.9814L160.262 80.3136L151.526 129.98L156.904 123.775L164.919 76.9814ZM117.189 79.8517L111.282 83.9172L104.032 119.803L98.0134 120.571L93.2622 145.179L99.6975 138.356L102.561 123.341L108.51 122.574L117.189 79.8517ZM21.5872 84.1655L14.7273 87.9981L5.54557 122.861C4.04031 128.923 1.83027 139.016 4.08816 147.074C4.22158 147.553 4.37455 148.026 4.53537 148.503C4.58362 148.649 4.63225 148.786 4.68371 148.928C4.81558 149.3 4.96032 149.668 5.10827 150.041C5.15973 150.16 5.20669 150.288 5.25661 150.406C5.44959 150.858 5.65969 151.308 5.88483 151.76C5.95559 151.9 6.03446 152.045 6.10843 152.18C6.27723 152.504 6.45452 152.825 6.64107 153.143C6.73601 153.303 6.83045 153.464 6.93015 153.628C7.17936 154.026 7.44091 154.425 7.71907 154.811C7.81723 154.953 7.92273 155.081 8.02565 155.21C8.2508 155.519 8.48392 155.802 8.72669 156.098C8.86821 156.265 9.01514 156.419 9.16142 156.587C9.39145 156.844 9.63062 157.088 9.87507 157.32C10.0166 157.462 10.1527 157.616 10.3022 157.745C10.6592 158.079 11.0372 158.388 11.4279 158.697C11.61 158.838 11.8017 158.98 11.9908 159.108C12.2584 159.301 12.5299 159.494 12.8103 159.674C13.011 159.803 13.2117 159.932 13.4202 160.06C13.8666 160.318 14.3272 160.562 14.8071 160.794C15 160.884 15.2072 160.974 15.4027 161.051C15.754 161.205 16.1116 161.347 16.4757 161.476C16.7176 161.566 16.9595 161.643 17.2078 161.733C17.3184 161.772 17.42 161.81 17.532 161.836C17.5191 161.836 17.5062 161.823 17.4934 161.81C13.3751 158.761 10.9915 154.232 9.76455 149.818C7.53239 141.759 9.71013 131.67 11.1993 125.612L21.5872 84.1655ZM139.677 88.2066L128.008 89.6244L124.19 93.0517L139.072 91.549L139.677 88.2066ZM147.795 114.217L122.808 117.405L119.38 121.198L147.191 117.581L147.795 114.217Z" fill="#FF8200"/>
</g>
<defs>
<clipPath id="clip0_107_20208">
<rect width="200" height="200" fill="white"/>
</clipPath>
</defs>
</svg>
