<svg width="200" height="200" viewBox="0 0 200 200" fill="none" xmlns="http://www.w3.org/2000/svg">
<g clip-path="url(#clip0_107_20226)">
<path d="M80.6184 127.623C84.0938 125.718 87.2595 123.161 89.5909 121.006C90.7702 119.916 93.0283 117.922 94.482 116.294C72.3415 110.694 54.1955 110.928 45.2827 114.047L54.046 122.653L73.7383 130.674C76.0371 129.881 78.3413 128.87 80.6184 127.623ZM17.762 154.271C17.762 153.951 17.7864 153.638 17.8381 153.334C15.7919 152.326 14.1045 150.53 13.2377 148.07L12.9687 147.989C12.254 147.761 11.0557 147.421 10.1182 146.744C8.03404 145.242 6.49338 142.755 6.49338 140.038C6.49338 139.946 6.60206 139.321 6.58576 139.223C4.56138 137.633 3.1158 135.66 2.68919 132.97C2.62941 132.593 2.70549 131.522 2.68919 131.158C1.05609 130.068 0.49899 127.913 0.151176 125.721C-0.392283 122.305 0.512593 119.83 3.14022 117.745C3.35488 117.574 4.0179 117.248 4.22985 117.109C4.18366 116.9 2.86847 112.308 2.86847 112.308C2.86847 112.308 3.94728 112.145 5.49886 111.86C4.38749 74.4806 30.3893 48.2479 61.5892 37.0064C96.5744 24.3982 130.513 25.2785 154.738 29.2322C166.914 31.2212 178.039 34.5228 186.12 37.327C194.207 40.134 200 42.7915 200 42.7915L195.739 46.718C195.728 46.7288 195.275 47.1501 194.563 47.8756C193.832 48.6201 192.84 49.6744 191.777 50.9298C189.615 53.4868 187.337 56.6688 186.302 59.6116C184.294 65.3179 183.264 69.228 182.517 73.0839C181.743 77.0647 181.256 80.9858 180.319 86.6486C179.433 92.0098 177.582 99.0775 177.582 99.0775L175.775 99.5096C175.471 100.817 175.074 102.49 174.688 104.034C173.979 106.868 171.789 112.892 171.789 112.892L169.985 113.558C169.61 114.563 169.088 115.933 168.498 117.436C167.384 120.272 164.186 125.862 164.186 125.862L161.999 126.318C161.113 127.96 159.689 130.508 158.382 132.435C156.858 134.69 155.157 136.794 153.833 138.334C152.507 139.88 151.562 140.864 151.553 140.87L149.282 143.234L146.583 141.372C146.494 141.31 126.804 127.74 113.636 122.563C109.079 120.772 104.185 118.987 99.6476 117.656C99.7943 121.414 99.4466 127.723 98.7184 132.492C97.5635 140.038 94.5663 148.223 94.5663 148.223L91.8327 149.32C91.6425 149.853 91.4605 150.372 91.3056 150.818C90.6915 152.606 87.8872 159.005 87.8872 159.005L85.8329 159.839C85.5992 160.325 85.3167 160.888 85.0286 161.453C84.3819 162.719 83.6944 164.021 83.4906 164.434C82.0532 167.379 79.3603 171.83 79.3603 171.83L77.8332 172.222C77.6267 172.273 50.0706 179.24 27.5769 158.309C26.5361 159.358 25.0933 160.007 23.5009 160.007C20.3298 160.007 17.762 157.44 17.762 154.271Z" fill="white"/>
<path d="M81.8934 131.589C79.3609 132.977 76.6735 134.075 73.9209 134.89L51.8945 125.918L38.6613 112.921C49.9054 104.223 84.733 107.035 115.053 118.953C128.712 124.323 148.782 138.178 148.782 138.178C148.782 138.178 152.328 134.488 155.198 130.252C157.179 127.328 159.442 122.893 159.442 122.893L161.709 122.42C161.709 122.42 163.877 118.646 164.915 116.005C166.094 113.005 166.991 110.532 166.991 110.532L168.784 109.872C168.784 109.872 170.282 105.769 170.955 103.079C171.738 99.9457 172.559 96.2855 172.559 96.2855L174.162 95.9078C174.162 95.9078 175.678 91.1009 176.521 86.0005C178.409 74.5824 178.493 70.1859 182.67 58.3113C185.172 51.1974 193.134 43.8607 193.134 43.8607C193.134 43.8607 130.647 16.1416 62.8643 40.6081C32.4903 51.5751 8.07811 76.8161 9.37697 112.239C9.40958 113.19 9.47213 114.125 9.55908 115.046C8.16782 115.375 7.44772 115.472 7.44772 115.472C7.44772 115.472 7.50748 116.282 8.19496 117.774C8.56723 118.581 8.81455 118.877 9.12704 119.266L8.14064 119.363C8.14064 119.363 7.64606 119.399 7.11618 119.567C6.70044 119.698 6.12171 119.94 5.54293 120.393C4.18428 121.464 3.45059 123.219 3.79569 125.38C4.10546 127.339 4.95869 128.768 6.14886 129.654C6.30918 129.771 6.46408 129.874 6.61896 129.966C6.45864 130.621 6.42327 131.355 6.5537 132.165C6.86347 134.124 7.71678 135.553 8.90695 136.439C9.44226 136.838 9.97209 137.069 10.4123 137.205C10.2628 137.817 10.214 138.499 10.2982 139.246C10.5319 141.273 11.4802 142.691 12.6622 143.545C13.2084 143.936 13.7383 144.164 14.1486 144.295C14.4094 144.379 14.6839 144.433 14.8958 144.463C15.105 144.493 15.3687 144.512 15.3687 144.512L16.5045 144.422C16.4909 144.838 16.5235 145.27 16.605 145.721C17.0262 148.012 18.3848 149.417 19.9473 150.031C20.6348 150.303 21.2625 150.384 21.7081 150.403C22.2896 150.43 22.6646 150.357 22.6646 150.357L25.102 150.023C46.873 176.136 76.8828 168.465 76.8828 168.465C76.8828 168.465 78.6626 165.528 80.0321 162.721C80.4451 161.876 82.3473 158.321 82.9043 156.849L84.9912 156.001C84.9912 156.001 87.0753 151.254 87.6677 149.539C87.9856 148.618 88.4258 147.387 88.7954 146.365L91.4529 145.297C91.4529 145.297 94.1783 136.73 94.9419 131.678C95.8495 125.697 96.0315 119.7 96.0315 119.7C96.0315 119.7 89.6024 127.36 81.8934 131.589Z" fill="black"/>
<path d="M123.744 34.3889C104.81 34.1998 83.4147 36.6692 62.0742 44.4016C36.8729 53.536 11.2608 79.6025 13.002 112.171C13.0346 112.79 13.0825 113.427 13.1477 114.086C13.4911 113.982 13.8498 113.871 14.2259 113.751C18.6453 112.332 21.5626 109.645 21.5626 109.645L34.6382 111.89C48.2377 97.6605 92.9187 103.528 124.257 118.225C137.73 124.542 148.03 131.027 148.03 131.027C148.03 131.027 149.634 129.229 151.334 126.492C152.356 124.849 152.943 124.081 153.758 122.09C149.951 121.275 147.256 120.981 140.528 118.74C128.024 114.571 122.496 108.317 122.496 108.317C122.496 108.317 128.839 112.121 142.523 115.658C149.595 117.484 155.123 118.184 157.745 118.375C158.64 116.871 160.266 111.858 160.645 111.123C158.849 111.182 156.21 111.038 151.223 110.308C144.428 109.31 138.445 106.328 138.171 106.143C138.376 106.278 144.969 107.321 153.94 107.23C158.701 107.184 160.784 107.036 163.727 106.593C166.181 100.46 166.449 97.804 166.449 97.804C166.449 97.804 163.825 98.4431 162.458 98.7127C158.29 99.5279 153.575 99.2561 153.575 99.2561C153.575 99.2561 166.444 94.9041 169.799 92.0042C173.242 82.7611 172.616 80.4872 175.238 66.4486C176.507 59.6532 181.216 48.7775 186.152 45.395C180 42.3995 155.297 34.7041 123.744 34.3889ZM22.3082 121.394C22.3082 121.394 21.8539 122.312 20.4105 122.901C18.967 123.49 19.0779 123.386 19.0779 123.386C19.0779 123.386 19.68 124.379 19.6344 125.373C19.604 125.988 19.3822 126.457 19.154 126.777C20.3952 127.34 21.543 128.322 22.0452 130.012C22.0952 130.138 22.1408 130.268 22.1843 130.407C22.6778 132.018 22.3147 133.135 21.9169 133.792C22.9017 134.222 24.0168 135.018 24.6864 136.27C24.9059 136.596 25.0929 136.981 25.2298 137.433C25.5168 138.407 25.469 139.157 25.3494 139.663C26.9515 140.081 28.2145 141.063 28.958 143.037C29.0014 143.152 29.0384 143.261 29.071 143.374C29.3101 144.15 29.3514 144.876 29.2667 145.535C29.2406 146.711 28.7819 147.811 27.7471 148.561L27.6754 148.635C32.3209 154.022 38.6033 158.034 38.6033 158.034C51.1224 167.438 70.6391 165.086 73.3803 164.173C74.2933 162.739 75.8585 159.604 76.9041 158.039C72.8803 159.061 68.6131 159.804 61.1786 159.345C53.6701 158.884 49.6877 155.622 49.6877 155.622C49.6877 155.622 54.7853 157.582 65.0284 157.061C71.5804 156.728 76.3802 155.691 80.2953 154.387C81.0778 153.082 83.2973 147.857 83.2973 147.857C83.2973 147.857 72.726 151.922 60.0003 151.38C49.8594 150.952 44.0792 145.576 44.0792 145.576C44.0792 145.576 54.0614 149.687 64.2415 148.774C77.2562 147.604 83.1669 144.989 87.3428 143.028C89.9058 138.1 91.6818 128.705 91.6818 128.705C91.6818 128.705 82.906 140.552 63.198 140.813C58.9482 140.87 54.1049 140.572 49.5094 139.218C48.0312 138.687 46.6617 138.166 45.3943 137.659L45.3052 137.62C44.2922 137.218 43.3531 136.818 42.4749 136.422C40.2902 136.616 38.4185 136.096 36.2968 135.401C30.0166 133.348 26.482 127.153 25.7842 122.577L22.306 121.392L22.3082 121.394Z" fill="#B01E24"/>
<path d="M142.624 98.0063C140.545 99.6502 138.964 101.104 136.888 102.634C135.72 103.737 134.434 104.183 133.076 104.052C132.437 103.971 131.997 103.881 131.154 103.549C107.927 94.3976 90.1369 89.7674 66.9094 92.0309C64.5481 90.2783 62.627 88.6017 60.2358 86.9496C58.9423 80.3004 57.1272 70.2301 57.1245 70.2247C56.0783 69.6051 55.0213 69.3496 55.0213 69.3496C53.7441 65.1895 52.6083 61.3744 51.3203 57.1735C82.004 50.5732 117.557 48.0706 151.396 57.4344C150.17 62.7548 149.094 67.5426 147.801 72.7462C147.113 73.4147 146.556 73.9881 145.915 74.6348V87.4876C145.915 88.974 145.926 90.2239 145.765 91.7428C145.562 93.4113 145.249 95.0145 144.227 96.4872C143.678 97.2454 143.208 97.6204 142.624 98.0063Z" fill="black"/>
<path fill-rule="evenodd" clip-rule="evenodd" d="M99.3989 54.3838C97.8141 54.3968 96.2338 54.4338 94.5316 54.5099C94.799 57.0294 94.9881 59.3315 95.2534 61.864C95.8599 61.8596 96.3794 61.8357 96.9902 61.8509V76.2439C96.4055 76.1982 95.2534 76.1287 95.2534 76.1287C94.6295 78.8416 94.0773 81.3154 93.4491 84.0349C96.8794 84.361 100.862 85.0697 104.273 85.6349V75.3352C106.742 78.5873 109.342 83.4675 111.685 86.9174C114.324 87.5 118.037 88.5282 120.681 89.2108C120.011 85.7696 119.418 82.6545 118.759 79.2503C118.048 79.146 116.966 78.9394 116.274 78.8003C114.014 75.3374 112.738 73.207 110.448 69.8376C112.627 66.7051 114.337 64.9595 116.283 62.54C116.97 62.5792 118.244 62.7226 118.244 62.7226C118.62 60.0336 118.95 57.5793 119.326 54.8925C116.616 54.6838 113.453 54.5099 110.785 54.4425C108.351 58.5206 106.62 60.8575 104.192 64.6247C104.192 60.7118 104.277 58.5467 104.277 54.3882C102.566 54.3751 100.981 54.3686 99.3989 54.3838ZM93.9882 54.5186C89.8492 54.7773 85.8863 55.0512 81.7604 55.4533C81.7604 57.8598 82.4495 59.9097 82.4495 62.2727C83.3103 62.1879 83.3668 62.2053 84.2581 62.1314C83.7581 66.8986 83.1277 70.3245 82.5603 74.3853C81.5778 68.2029 80.8234 62.9161 79.7996 55.6533C76.6453 56.0164 74.1911 56.3381 71.0499 56.7576C70.0412 63.9291 69.1825 68.9137 68.1369 74.8635C67.5283 71.0354 67.1196 68.0659 66.4566 63.89C67.2522 63.8139 67.5826 63.7596 68.4 63.7074C68.4 61.527 68.6978 59.3488 68.6978 57.1054C63.0371 57.7837 55.3504 59.3336 55.3483 59.3336C56.1917 62.0814 56.9243 64.5856 57.7656 67.3203C57.7656 67.3203 58.959 67.1094 59.5938 67.0355C60.985 74.1787 61.398 77.2482 62.6719 83.8023C66.4653 83.3654 69.3978 83.248 73.215 83.0763C73.952 78.9003 74.5193 75.3809 75.2867 70.5376C76.041 75.3048 76.504 78.8612 77.3149 83.0197C81.1256 82.9828 84.0929 83.1849 87.9384 83.4154C89.1101 76.7591 90.3231 70.6854 91.4078 61.8596C92.06 61.8553 92.9947 61.8314 92.9947 61.8314C93.3512 59.3119 93.6382 57.0185 93.9882 54.5186ZM119.735 54.9229C119.974 57.6641 120.216 60.164 120.457 62.9096C120.457 62.9096 121.687 63.1944 122.35 63.2704C122.35 69.7159 122.342 75.17 122.342 81.6915C122.342 84.7262 122.331 86.3088 124.061 88.5108C124.881 89.4391 125.596 89.9782 126.483 90.4586C127.363 90.9216 128.067 91.1629 128.933 91.4694C131.339 92.3194 133.895 92.9585 136.319 93.8172C138.276 94.5476 140.36 95.4063 142.169 93.2324C142.78 92.352 142.973 91.3673 143.158 90.0521C143.317 88.763 143.278 87.6261 143.278 86.3696V69.9528C143.278 69.9528 145.215 70.5767 145.906 70.768C146.649 66.929 147.319 63.4161 148.071 59.5336C148.069 59.5336 138.611 57.512 134.935 56.8337V85.6892C133.654 85.3588 132.635 85.0023 131.343 84.6458C131.343 74.6266 131.348 66.1225 131.348 56.2381C127.624 55.6838 123.418 55.2729 119.735 54.9229ZM22.0408 112.706C22.0408 112.706 19.9843 114.36 16.9583 115.671C13.7454 117.064 11.9237 117.042 11.9237 117.042C11.9237 117.042 13.3563 119.275 17.3366 118.655C20.9386 118.097 22.432 116.108 22.432 116.108L31.8187 118.408C32.5665 122.636 34.3055 125.557 38.6576 128.666C41.264 130.527 44.5617 131.088 48.4159 131.151L55.5265 136.768C55.5265 136.768 57.4721 137.263 61.1437 137.174C66.6696 137.035 68.3478 136.585 68.3478 136.585L50.1571 128.79L35.9859 115.488L22.0429 112.708L22.0408 112.706ZM12.0759 121.988C11.1955 122.025 8.31733 122.105 8.31733 122.105C8.31733 122.105 6.3674 122.312 6.74347 124.675C7.1652 127.329 9.17599 127.342 9.17599 127.342C9.17599 127.342 11.2955 127.199 13.1106 127.142C14.7562 127.09 15.7649 125.703 15.8127 124.823C15.9605 121.992 12.4367 121.971 12.0759 121.988ZM15.5866 128.988C15.0932 129.118 11.4607 129.249 11.4607 129.249C11.4607 129.249 9.31077 129.322 9.50207 131.705C9.71945 134.409 11.5672 134.416 11.5672 134.416C11.5672 134.416 15.141 134.309 16.8018 134.159C18.5083 134.005 19.3474 132.705 19.3235 131.825C19.2495 129.077 15.9366 128.894 15.5866 128.988ZM18.5083 136.177C17.9952 136.198 15.2258 136.461 15.2258 136.461C15.2258 136.461 12.9932 136.544 13.265 138.92C13.5411 141.346 15.3453 141.531 15.3453 141.531C15.3453 141.531 18.0344 141.307 19.7995 141.229C21.4429 141.155 22.2581 139.876 22.3038 138.996C22.456 136.161 19.1278 136.153 18.5083 136.177ZM23.5059 142.644C22.1321 142.572 20.8777 143.139 20.8777 143.139C20.8777 143.139 19.1582 143.348 19.543 145.446C20.0104 147.996 22.1886 147.674 22.1886 147.674L24.7907 147.313C24.7907 147.313 26.908 146.317 26.1623 144.328C25.7058 143.111 25.0733 142.724 23.5059 142.644Z" fill="white"/>
</g>
<defs>
<clipPath id="clip0_107_20226">
<rect width="200" height="200" fill="white"/>
</clipPath>
</defs>
</svg>
