<svg width="200" height="200" viewBox="0 0 200 200" fill="none" xmlns="http://www.w3.org/2000/svg">
<g clip-path="url(#clip0_107_20206)">
<path d="M84.9616 44.9531C63.4961 44.9531 41.6975 48.9035 20.2319 56.614C17.9474 57.4707 15.6628 58.3274 13.4734 59.1841C12.2835 59.6125 11.0936 60.0885 9.85615 60.5644L0.00390625 64.5148L10.3797 66.847C10.4273 66.847 14.2349 67.7513 19.8036 70.2739C26.8001 73.4628 36.3668 79.1742 44.8387 88.7885C43.0301 88.6933 40.8883 88.4553 38.9845 88.0745C38.5562 87.9793 38.1278 87.8842 37.6994 87.789L31.2741 85.9803L33.749 92.1677C33.7966 92.2629 34.1774 93.2624 35.0817 94.8331C37.2235 98.6407 41.5547 104.828 49.4079 110.682L40.6028 109.35L47.3613 116.394C47.5041 116.537 47.6945 116.775 47.98 117.06C48.2656 117.393 48.5988 117.774 49.0271 118.202C53.9295 123.581 61.0212 129.863 70.4927 134.67L61.2116 133.909L75.6805 141.477C76.6325 142 77.632 142.476 78.7266 143L78.8218 143.047C86.2467 147.569 103.143 155.041 133.128 155.041C138.792 155.041 144.741 154.756 150.834 154.232L151.262 154.185L151.69 154.137L152.024 154.089L152.88 153.994H153.261L153.785 153.804C153.975 153.756 154.213 153.661 154.403 153.566C159.21 151.614 165.493 144.856 173.489 132.862C184.103 117.06 194.717 96.6893 197.763 90.7875C198.429 89.5024 198.81 88.7885 198.81 88.7885L200 86.4087L197.953 84.7429C189.767 78.0795 180.962 72.1777 171.728 67.1326C166.445 64.2768 160.971 61.6115 155.403 59.2793C140.648 53.0919 124.704 48.7608 107.998 46.381C100.287 45.4291 92.6245 44.9531 84.9616 44.9531Z" fill="#DC4405"/>
<path d="M84.9618 48.2383C65.5904 48.2383 44.2201 51.4272 21.3268 59.7088C19.1374 60.5179 16.948 61.3746 14.711 62.2313C13.5211 62.7073 12.2836 63.1356 11.0938 63.6116C11.0938 63.6116 15.187 64.5159 21.1364 67.2288C29.6559 71.1317 41.9831 78.6517 51.7878 92.264C51.1691 92.264 50.4551 92.3116 49.7412 92.3116C48.6465 92.3116 47.409 92.264 46.2191 92.2164C43.9346 92.1212 40.936 91.8832 38.3183 91.3597C37.7948 91.2645 37.3188 91.1217 36.8428 90.9789C36.8428 90.9789 37.176 91.8356 37.9851 93.2635C40.4125 97.5947 47.171 107.257 61.5448 114.253C61.5448 114.253 60.9261 114.396 59.8314 114.491C59.2127 114.539 58.4987 114.634 57.5944 114.634C57.2137 114.634 56.7853 114.634 56.3569 114.634C56.2142 114.634 56.0714 114.634 55.9286 114.634C54.1676 114.634 52.121 114.491 49.7412 114.11C50.0268 114.396 50.5979 115.062 51.4546 116.014C56.119 121.107 69.0173 134.053 90.0069 137.813C90.1021 137.813 90.1497 137.86 90.2448 137.86C90.2448 137.86 87.5319 138.432 83.5815 138.622C82.7248 138.669 81.8205 138.669 80.9162 138.669C80.0118 138.669 79.0599 138.669 78.108 138.574C77.8225 138.574 77.4893 138.527 77.2037 138.527C78.1556 139.05 79.1551 139.526 80.1546 140.002C80.2498 140.05 80.345 140.097 80.3926 140.145C86.7704 144.048 103.143 151.758 133.081 151.758C138.459 151.758 144.218 151.52 150.501 150.949C150.786 150.901 151.024 150.901 151.31 150.854C151.738 150.806 152.214 150.759 152.642 150.711C152.785 150.664 152.928 150.616 153.071 150.568C157.783 148.665 164.208 140.716 170.681 131.102C181.104 115.586 191.528 95.6909 194.717 89.3607C195.383 88.0756 195.716 87.3617 195.716 87.3617C187.339 80.5555 178.725 74.8441 169.967 70.0846C165.208 67.5144 159.877 64.8967 153.975 62.3741C138.269 55.7584 122.419 51.8555 107.427 49.7137C100.287 48.7618 92.815 48.2383 84.9618 48.2383Z" fill="black" stroke="black" stroke-width="1.58686" stroke-miterlimit="4.1142"/>
<path d="M80.7704 55.3323C82.3886 57.1409 83.2453 59.7586 83.3881 60.1394C82.6266 60.0442 66.8249 58.1404 52.9271 60.4726C52.9271 60.4726 51.3088 60.7106 49.1194 61.2341H49.0719C48.4531 61.3769 47.7868 61.5197 47.1204 61.7101C44.3599 62.3288 40.0763 63.4235 36.8398 65.1369C36.8398 65.1369 44.3123 66.422 57.2107 80.415H62.351C60.8279 77.4641 57.9246 70.7532 59.1621 64.423C60.0188 64.5658 60.6375 64.7086 60.8755 64.7562C66.2538 65.946 77.2007 69.8489 81.3891 82.5092C81.3891 82.5092 82.7694 79.4631 82.7694 75.0368C97.5239 68.9445 112.516 65.0893 118.276 72.657C107.091 68.5638 100.522 75.1319 102.902 82.0333C104.806 73.9897 115.087 71.9907 122.321 80.3674C128.556 87.6019 139.122 86.65 139.122 86.65C139.122 86.65 137.885 85.0318 137.456 83.3184C137.456 83.3184 142.882 85.9361 149.308 85.1746C149.308 85.1746 149.165 79.6059 163.919 84.7938C163.919 84.7938 160.207 88.1255 146.738 89.5533C146.738 89.5533 148.165 90.8384 150.545 91.5524C150.545 91.5524 135.791 95.6456 125.462 92.3615C125.462 92.3615 127.985 90.3625 128.461 88.5538C128.461 88.5538 119.846 92.885 113.135 88.5063C107.091 84.6034 103.521 85.8409 103.521 85.8409C103.521 85.8409 108.471 87.8875 109.185 92.2663C109.185 92.2663 83.7689 96.5023 68.6811 87.5067C68.6811 87.5067 73.2503 97.9301 87.1958 100.738C94.8586 99.6912 106.091 96.9782 123.321 102.119C118.085 102.261 115.753 105.688 114.42 107.211C106.234 107.973 88.1001 108.354 65.9206 106.592C65.9206 106.592 123.225 118.491 144.691 103.975C136.885 114.017 117.942 114.493 111.327 114.589C110.946 115.874 110.898 119.586 111.136 119.919C107.186 121.204 91.2414 121.918 81.2463 122.013C81.2463 122.013 128.318 126.63 146.642 113.97C144.691 117.349 136.743 126.345 112.421 125.916C116.705 136.578 128.175 139.1 141.788 125.25C168.298 101.69 178.388 111.019 180.959 99.5484C182.434 93.0278 170.297 92.1711 171.059 85.7457C171.059 85.7457 179.864 88.6966 186.432 86.0313C186.432 86.0313 159.969 66.7552 120.655 56.9505C122.654 58.8543 123.892 62.2336 123.892 62.2336C123.892 62.2336 105.044 55.2847 80.7704 55.3323ZM146.119 131.866C134.458 140.671 120.179 139.481 120.179 139.481C126.414 142.575 138.123 142.717 138.123 142.717C145.262 139.386 146.119 131.866 146.119 131.866Z" fill="#DC4405"/>
<path d="M111.234 78.418C111.138 78.418 111.043 78.418 110.948 78.4656C109.425 78.7035 108.378 80.0838 108.616 81.6069C108.854 83.1299 110.234 84.177 111.757 83.939C113.28 83.7011 114.327 82.3208 114.089 80.7977C113.899 79.4651 112.804 78.5132 111.471 78.418C111.424 78.418 111.329 78.418 111.234 78.418ZM116.469 81.8924C116.374 81.8924 116.326 81.8924 116.231 81.8924C115.612 81.9876 115.184 82.5588 115.279 83.1775C115.374 83.7962 115.945 84.2246 116.564 84.1294C117.183 84.0342 117.611 83.4631 117.516 82.8443C117.468 82.3208 116.993 81.94 116.469 81.8924ZM175.011 114.733L171.822 115.447L168.491 120.064L167.967 116.113C161.685 115.447 157.211 119.302 157.211 119.302L155.212 125.061C155.212 125.061 153.784 128.821 152.879 131.915C150.071 141.149 146.406 143.433 144.979 144.004H148.12C149.5 143.481 152.166 142.243 153.736 139.911C153.736 139.911 153.403 141.291 152.784 142.386H154.307C154.831 142.101 155.307 141.815 155.735 141.529C160.733 137.96 175.011 114.733 175.011 114.733Z" fill="white"/>
<path d="M162.254 91.2188C162.254 91.2188 158.256 91.4091 154.734 94.6456C154.734 94.6456 156.876 95.6927 160.541 94.836C157.59 93.7413 159.827 92.1231 162.254 91.2188ZM174.582 96.835C174.582 96.835 170.726 97.0254 167.3 100.167C167.3 100.167 169.394 101.166 172.916 100.357C170.06 99.31 172.249 97.7393 174.582 96.835ZM164.444 100.833C164.444 100.833 159.494 101.547 155.591 105.973C155.591 105.973 158.447 106.973 162.921 105.545C159.018 104.545 161.588 102.261 164.444 100.833Z" fill="black" stroke="black" stroke-width="1.58686" stroke-miterlimit="4.1142"/>
</g>
<defs>
<clipPath id="clip0_107_20206">
<rect width="200" height="200" fill="white"/>
</clipPath>
</defs>
</svg>
