<svg width="200" height="200" viewBox="0 0 200 200" fill="none" xmlns="http://www.w3.org/2000/svg">
<path d="M175.936 121.037C173.383 137.632 159.469 149.925 143.475 156.065C129.584 161.186 114.877 163.738 100.073 163.596C85.2206 163.723 70.4666 161.171 56.5188 156.065C40.5113 149.925 26.6484 137.657 24.0571 121.037C22.9322 114.081 22.3644 107.047 22.3594 100C22.3968 92.9468 22.9643 85.9062 24.0571 78.9378C26.6102 62.3432 40.5113 50.0759 56.5188 43.9232C70.4489 38.8342 85.1794 36.2876 100.009 36.4045C114.834 36.2568 129.561 38.8044 143.475 43.9232C159.469 50.0759 173.332 62.3177 175.936 78.9378C177.042 85.9047 177.609 92.9463 177.634 100C177.61 107.046 177.043 114.079 175.936 121.037ZM139.058 81.9376C138.662 74.8275 137.909 67.2578 133.952 61.5135C126.101 50.2929 112.851 45.6847 100.009 45.7869C87.1678 45.889 73.8793 50.2929 66.0798 61.6028C62.1099 67.3216 61.3312 74.8913 60.9738 82.027C60.693 87.2607 60.4887 93.6305 60.476 100.09C60.4632 106.549 60.6292 112.919 60.8972 118.127C61.3057 125.262 62.1737 132.794 66.1054 138.551C73.8793 149.682 87.104 154.099 100.009 154.201C112.915 154.303 126.101 149.682 133.939 138.449C137.909 132.704 138.726 125.173 139.045 118.025C139.339 112.816 139.249 106.536 139.262 100.153C139.275 93.7709 139.262 87.2224 139.007 81.9887" fill="#007030"/>
</svg>
