<svg width="200" height="200" viewBox="0 0 200 200" fill="none" xmlns="http://www.w3.org/2000/svg">
<path d="M137.256 35.3143V66.2213H150.997C149.193 72.9331 144.611 89.979 140.343 105.857C134.87 83.8278 122.819 35.3126 122.819 35.3126L93.6818 35.3143C93.6818 35.3143 80.6493 83.8345 74.7367 105.831C70.7947 89.8939 66.5732 72.8387 64.9354 66.2213H79.4211V35.3143H6.77734V66.2213H21.8313C23.4724 72.7918 46.3249 164.209 46.3249 164.209L87.5491 164.211C87.5491 164.211 95.3245 134.656 100.052 116.683C104.55 134.665 111.942 164.209 111.942 164.209L153.16 164.211C153.16 164.211 177.233 72.7055 178.936 66.223H193.918V35.316L137.256 35.3143ZM189.243 61.5487H175.336C175.336 61.5487 149.863 158.382 149.56 159.537H115.582C115.291 158.369 100.169 97.8786 100.169 97.8786C100.169 97.8786 84.2489 158.388 83.9496 159.537H49.9708C49.6773 158.361 25.4721 61.5487 25.4721 61.5487H11.4491V39.9844H74.7485V61.5487H58.9679L74.5512 124.525C74.5512 124.525 96.9551 41.1359 97.2645 39.9827H119.165C119.46 41.158 140.164 124.517 140.164 124.517L157.082 61.5436H141.926V39.9793H189.242L189.243 61.5487Z" fill="#E8D3A2"/>
<path d="M141.924 39.985V61.5492H157.081L140.162 124.516C140.162 124.516 119.457 41.1575 119.162 39.9824H97.2615C96.9541 41.1298 74.5482 124.516 74.5482 124.516L58.9649 61.5433H74.7472V39.979H11.4453V61.5433H25.4716C25.4716 61.5433 49.6736 158.351 49.9686 159.531H83.9483C84.2464 158.382 100.164 97.8732 100.164 97.8732C100.164 97.8732 115.292 158.364 115.579 159.531H149.558C149.861 158.373 175.331 61.5433 175.331 61.5433H189.244V39.979L141.924 39.985Z" fill="#33006F"/>
</svg>
