<svg width="200" height="200" viewBox="0 0 200 200" fill="none" xmlns="http://www.w3.org/2000/svg">
<path d="M57.6972 10.0002L39.8594 27.838L39.8596 65.2946L57.6934 83.1345H85.6371L70.6403 98.1323V103.727H67.8013V87.7534H39.8596L39.8598 112.161L57.6976 130.001H70.6405V172.161L88.4763 190H142.305L160.145 172.161V147.751H132.199V163.731H98.5782V130.001H111.521L129.359 112.161V106.565H132.199V122.541H160.145V98.1363L142.305 80.2945H129.359V74.7045L111.523 56.8647L67.8015 56.8627V36.2709H101.42V52.2438H129.359V27.84L111.521 10.0002H57.6972Z" fill="#FFC72C"/>
<path d="M58.8731 12.8362L42.6953 29.0111L42.6956 64.1187L58.8694 80.2945H104.254V106.563H98.578V127.159H110.342L126.52 110.979V75.8786L110.346 59.7028L64.9594 59.7008V33.428H104.254V49.4039H126.52V29.0131L110.346 12.8362H58.8731ZM89.6498 83.1325L73.475 99.3054V99.3074V170.979L89.6478 187.158H141.123L157.303 170.979V150.589H135.032V166.569H95.7378V103.725H101.418V83.1345L89.6498 83.1325ZM129.356 83.1325V103.725H135.034V119.699H157.303V99.3094L141.123 83.1325H129.356ZM42.6953 90.5914V110.979L58.8691 127.159H70.639V106.563H64.9591V90.5914H42.6953Z" fill="#9D2235"/>
</svg>
