<svg width="200" height="200" viewBox="0 0 200 200" fill="none" xmlns="http://www.w3.org/2000/svg">
<g clip-path="url(#clip0_107_20135)">
<path d="M146.501 42.9732C139.196 43.1973 133.792 48.1352 130.484 53.0533C125.29 61.0531 114.203 89.5346 108.589 118.313C105.424 121.196 101.017 123.14 98.2206 124.599C83.374 132.351 79.9685 115.531 89.8698 99.7232C93.6045 93.7594 101.372 94.0579 100.86 100.025C97.8278 95.9133 92.1167 97.8181 91.4268 103.877C91.0772 111.322 107.18 112.876 107.625 98.6212C108.282 77.4299 68.3698 84.0269 67.7125 118.001C67.7125 118.001 65.074 125.095 58.7053 126.328C54.112 127.22 54.0886 118.836 56.9374 106.948C59.3046 96.0633 59.2519 97.8554 61.5609 88.0856C63.2779 80.8386 71.2588 52.2346 71.6573 49.8448C72.0467 47.4594 70.6269 45.1501 67.7048 44.4694C65.3378 43.9175 62.312 43.6833 59.0282 45.2839C55.4586 47.0255 54.309 50.7462 53.882 52.9449C49.4241 70.8459 47.5797 75.5716 44.4151 89.3772C42.7626 96.4421 36.6921 126.772 26.8464 125.67C21.7043 125.098 21.314 119.655 23.694 109.03C27.5298 94.1095 31.5656 82.167 34.335 70.0123C38.5112 54.1255 29.2027 38.6502 9.90064 46.8377C-1.64745 51.7349 -2.64517 70.1878 4.5821 70.0988C8.67251 70.0498 7.97068 64.9759 8.27122 61.7292C9.08989 57.0808 11.6478 55.0057 14.7632 55.1991C19.3965 56.4072 19.6992 59.6361 18.2703 68.5042C15.2318 78.8407 11.0212 92.5426 7.0684 110.255C0.479118 140.118 19.7122 141.259 28.4941 137.5C33.5812 135.323 35.7845 133.26 39.2306 126.428C43.1403 144.562 59.8447 140.627 69.7974 127.684C71.5115 133.675 77.1104 137.635 81.8664 138.301C94.2236 140.699 105.3 131.363 108.945 127.904C111.616 146.109 135.639 138.485 142.937 127.995C150.551 145.424 164.895 138.487 168.89 127.856C168.792 138.787 177.074 141.434 185.602 136.835C190.581 134.336 191.57 133.508 197.862 127.516C202.213 123.116 200.147 114.211 189.602 123.401C186.167 126.397 178.87 129.467 183.258 118.251C184.187 115.476 191.929 96.4551 192.404 94.7405C197.2 81.6877 179.541 84.462 177.14 94.1943C165.684 73.0307 140.185 97.2766 140.475 118.318C140.475 118.318 131.69 127.903 125.895 126.18C120.1 124.46 125.761 107.552 125.761 107.552C140.034 92.6165 149.174 75.9084 152.869 67.8523C158.918 54.8484 160.363 43.2775 147.993 43.0007C147.49 42.9715 146.989 42.9656 146.504 42.9806L146.501 42.9732ZM149.941 53.7432C151.428 53.9855 151.789 56.5893 150.017 61.1168C144.268 75.7895 136.743 83.5223 131.433 91.3285C131.525 90.7428 136.214 72.2346 144.9 57.6754C146.943 54.7926 148.783 53.5536 149.941 53.742V53.7432ZM169.363 95.3144C172.276 95.4233 173.734 99.2861 172.679 103.996C172.339 105.514 166.134 120.525 166.134 120.525C163.485 125.419 160.774 126.63 158.229 126.121C154.531 124.974 155.143 119.606 156.284 114.344C158.817 102.404 164.824 97.2149 166.005 96.565C167.26 95.6604 168.393 95.2781 169.363 95.3144Z" fill="#2D68C4" stroke="#F2A900" stroke-width="3.0306"/>
</g>
<defs>
<clipPath id="clip0_107_20135">
<rect width="200" height="200" fill="white"/>
</clipPath>
</defs>
</svg>
