<svg width="200" height="200" viewBox="0 0 200 200" fill="none" xmlns="http://www.w3.org/2000/svg">
<path fill-rule="evenodd" clip-rule="evenodd" d="M118.409 182.13C118.409 182.13 126.897 178.514 131.532 164.486C135.626 173.037 134.556 181.822 134.556 181.822C130.804 182.671 118.409 182.13 118.409 182.13ZM163.947 101.927C163.947 101.927 169.125 130.11 150.817 131.073C133.144 131.999 124.813 105.413 124.813 105.413C124.813 105.413 129.079 157.369 153.841 153.947C181.759 150.097 163.947 101.927 163.947 101.927ZM29.3996 175.424C29.4101 175.419 29.4258 175.419 29.4383 175.419C50.0928 170.717 65.9033 146.601 70.5568 136.92L73.5057 130.787L75.2794 137.357C75.3777 137.717 77.2958 144.947 77.2958 154.508C77.2958 155.559 77.2665 156.651 77.2142 157.754C84.3404 158.02 89.4229 156.579 92.5905 153.291C97.1184 148.589 98.4913 139.694 96.7877 126.106C95.9715 119.603 93.5626 109.252 91.4352 100.122C90.348 95.4505 89.3225 91.0346 88.6988 87.9131C84.714 67.9377 89.6553 55.5469 94.5034 48.6708C95.2659 47.5951 96.0909 46.5651 96.974 45.5859C82.685 50.3974 70.7012 57.8784 58.3324 70.2273L67.0345 80.3296L70.5872 76.9998C73.9431 89.5319 71.5321 101.079 71.5321 101.079C66.9623 94.0985 61.5491 88.4436 61.5491 88.4436L63.9266 84.4755L56.0847 75.3663L55.169 74.3523C45.5324 87.5908 42.4088 98.4318 42.4088 98.4318L49.2515 104.68L53.2436 108.289L54.5705 104.456C61.9206 118.22 55.2078 131.089 55.2078 131.089C53.9991 126.391 49.1552 119.458 49.1552 119.458L51.0691 113.154L40.8947 103.936C30.3111 137.008 16.1602 147.73 16.1602 147.73C16.1602 147.73 31.4695 144.968 39.9874 142.101C39.9874 142.1 39.7509 159.527 29.3996 175.424Z" fill="#913140"/>
<path fill-rule="evenodd" clip-rule="evenodd" d="M183.83 56.1227L159.384 57.1545C159.406 60.0332 159.022 62.9475 158.08 65.6997C160.365 75.6763 158.792 81.0968 158.792 81.0968C154.7 71.5848 151.575 68.9405 151.575 68.9405C129.133 58.9585 116.535 81.5186 117.877 96.0629C118.977 108.028 123.311 123.888 126.699 148.773C129.548 169.721 118.953 178.777 106.743 180.857C106.477 180.899 106.216 180.952 105.946 180.988C105.881 180.992 105.819 181.003 105.755 181.009C103.663 181.271 101.553 181.372 99.4454 181.312C99.3732 181.305 99.2947 181.305 99.2214 181.3C98.9818 181.295 98.7348 181.274 98.4942 181.263C97.5532 181.206 96.6146 181.114 95.6803 180.988C86.1975 179.682 64.934 175.822 42.9883 175.287C55.8992 167.749 65.9993 154.698 71.6343 145.449C71.965 148.009 72.2361 151.14 72.2361 154.578C72.2361 156.305 72.168 158.101 72.0069 159.942L71.7882 162.464L74.308 162.682C84.4102 163.562 91.5867 161.638 96.2422 156.804C101.977 150.844 103.748 140.893 101.813 125.479C100.965 118.711 98.5235 108.23 96.3699 98.9751C95.2921 94.3457 94.276 89.9716 93.667 86.9286C90.0359 68.7113 94.3691 57.6547 98.6448 51.5875C102.001 46.8283 106.622 43.3531 111.687 41.684C111.777 41.6683 111.869 41.6474 111.959 41.6317L120.291 16.0234H122.907L117.302 40.6334C118.606 40.4095 119.926 40.1971 121.269 39.993L128.459 17.298H131.062L126.355 39.2814C133.79 38.3166 141.889 37.5747 150.846 36.9092C152.307 37.5067 153.867 39.1768 155.251 41.5281L178.769 34.2764L179.638 36.8098L157.165 45.5443C157.343 46.0068 157.509 46.4851 157.67 46.9696L182.253 43.9108L182.66 46.5594L158.798 51.3206C158.882 51.7601 158.959 52.208 159.027 52.6611L183.845 53.4459L183.83 56.1227ZM113.026 67.1082C117.958 63.6486 126.336 60.9928 134.194 61.5945C136.195 61.7504 137.881 61.2251 135.734 60.0887C129.845 56.9808 116.13 58.0345 111.277 61.3507C103.513 66.653 104.817 76.0876 105.011 76.3272C106.556 73.6128 109.188 69.8006 113.026 67.1082Z" fill="#913140"/>
</svg>
