<svg width="200" height="200" viewBox="0 0 200 200" fill="none" xmlns="http://www.w3.org/2000/svg">
<g clip-path="url(#clip0_154_2374)">
<path d="M197.763 82.277C197.763 82.277 199.271 82.0284 199.319 80.9937C199.432 78.5794 197.05 75.9565 197.05 75.9565C197.05 75.9565 197.451 75.7961 197.531 75.3951C197.619 74.8817 197.178 74.24 196.32 73.9754C196.32 73.9754 195.421 71.3525 187.128 69.636C184.97 69.3954 177.928 68.7537 177.928 68.7537C176.171 65.9624 171.776 64.3582 169.466 64.1016C165.551 63.6604 164.067 66.2351 162.495 67.4784C162.495 67.4784 159.07 64.8796 155.958 68.08C156.143 68.7537 156.135 71.93 159.536 70.4381C160.001 70.2376 159.391 71.0397 159.391 71.0397C158.918 72.1466 139.652 91.6294 129.04 87.6751C120.466 84.4828 123.971 78.4751 113.311 78.034C112.629 78.3067 103.878 75.5074 99.2341 70.5985C97.2369 68.8419 96.0338 66.8367 94.5178 65.7218C92.1196 63.8048 86.0397 62.1204 81.3234 61.6391C75.4039 61.0777 71.0887 66.9169 65.3296 71.8739C64.0463 72.9968 47.2504 84.8277 46.697 85.3089C43.657 84.1058 39.7348 82.5096 38.0584 82.1888C33.6629 81.3065 27.4307 82.7984 24.3827 82.7503C23.6608 82.7422 16.3136 83.9855 12.7283 79.3253C12.4716 79.8948 12.3834 80.6327 12.3834 81.4669C8.57342 79.9429 6.01474 76.5822 3.82503 72.684C2.79032 75.4833 3.6245 79.5258 4.29024 80.9776L2.22084 79.6301C2.30907 83.0791 6.14308 85.9987 10.8754 87.2981L8.26061 88.1403C8.26061 88.1403 11.2685 89.0226 12.7042 88.8622C16.9714 88.3248 15.704 84.5951 34.3768 85.6218C37.7697 86.3356 40.577 87.4185 43.0154 88.7419C37.6012 91.1963 35.8687 108.794 26.6205 117.056C22.6101 120.633 22.3374 121.588 16.2254 125.614C16.2815 128.79 7.37028 148.394 5.68588 151.835C0.424145 154.53 3.6245 155.901 0.111328 162.414C3.39189 167.724 2.11656 165.398 3.42398 170.965L9.12687 171.943L13.2175 170.291C13.378 168.486 11.3406 165.984 9.9049 163.914C8.7178 159.439 10.5947 155.797 10.7471 155.107C11.8781 149.974 18.5194 138.087 21.9844 132.801L40.2241 118.965C55.0468 115.628 59.4663 111.69 64.0623 112.805C58.4637 119.358 63.8778 129.777 65.8991 131.678C71.7945 137.237 65.1852 138.384 68.3776 141.038C69.4524 141.929 79.9919 146.22 80.7619 146.661L73.5751 152.958C70.3507 153.968 69.4845 154.554 67.7519 156.92C67.4953 157.273 63.6212 158.019 63.3083 160.048C63.0276 161.861 65.5462 163.136 65.6585 164.54C66.0194 168.967 67.2306 170.155 67.768 169.77C72.3399 166.537 72.1153 175.978 75.813 168.478L73.7356 165.759C73.1901 164.323 73.142 162.334 73.896 159.439C73.896 159.439 85.2135 151.113 86.4809 150.046C88.9754 151.394 90.9325 152.396 90.9325 152.396C91.2694 153.92 91.9672 154.947 93.066 155.22C93.5072 157.554 95.0873 160.425 96.3065 159.816C110.215 152.837 108.362 155.741 109.709 152.011C106.381 149.204 101.648 150.992 98.5684 150.76C97.2369 150.656 96.0819 149.38 95.0953 148.402C94.2531 147.568 91.2212 146.87 91.0608 145.971L92.2158 144.881C94.6381 145.282 101.031 140.934 100.397 136.779C109.734 124.251 109.581 122.799 115.757 119.992C119.696 121.716 140.646 129.376 140.646 129.376C145.547 134.574 152.221 138.448 159.905 143.212C159.889 144.881 160.771 146.036 162.271 146.613C162.271 146.613 163.851 150.752 165.968 150.567C167.404 150.407 169.674 148.923 172.594 147.84C173.949 147.343 181.016 145.675 180.863 143.148C180.51 142.346 179.291 141.865 177.639 141.552C169.634 141.103 166.658 142.354 166.329 141.993C160.217 135.295 157.554 132.6 148.603 126.007C147.063 122.999 144.825 120.417 141.424 120.778C140.374 120.024 139.403 118.075 127.404 113.607C141.24 105.77 145.643 102.089 145.643 102.089C145.643 102.089 161.388 85.718 163.321 86.488C166.049 87.5789 176.5 85.8624 180.358 84.9721C180.358 84.9721 184.914 87.5067 188.636 87.2741C190.24 87.1778 191.772 85.4533 193.488 84.8838C195.108 84.3545 199.44 86.464 199.44 84.7154C199.432 83.1994 197.9 82.4695 197.763 82.277ZM98.9775 121.636C99.8758 123.007 94.7504 130.884 87.8845 139.009C87.5797 139.37 85.0291 139.37 83.6976 141.335C72.1474 136.17 76.0456 132.993 71.5378 116.831C79.5427 121.074 92.665 122.462 98.9775 121.612V121.636Z" fill="#F58025"/>
<path d="M197.691 82.276L197.282 82.0273L195.902 83.4711L197.162 83.7358C197.162 83.7358 197.45 83.4791 197.611 83.1583C197.771 82.7653 197.691 82.284 197.691 82.276Z" fill="white"/>
<path d="M186.775 80.2309C184.914 79.9261 182.845 80.3593 182.556 81.5544C182.163 83.1826 183.759 84.6023 185.941 84.7467C189.718 85.0034 190.336 83.1425 192.815 83.0944C192.807 83.0944 188.563 80.5197 186.775 80.2309Z" fill="white"/>
<path d="M168.424 69.2578C167.574 70.108 168.4 72.3619 169.723 72.4903C171.344 72.6427 172.803 71.4957 173.862 70.5011C172.13 71.1508 169.82 70.2364 168.424 69.2578Z" fill="white"/>
<path d="M6.75195 79.8008C6.75195 79.8008 7.47384 81.9584 8.58875 83.0011C9.71168 84.0439 12.1902 84.2845 12.1902 84.2845C12.1902 84.2845 10.2731 83.4824 9.23042 82.6081C8.11551 81.5654 6.75195 79.8008 6.75195 79.8008Z" fill="#231F20"/>
<path d="M23.3156 123.234C23.3156 123.234 21.559 124.67 20.5965 125.232C19.5538 125.873 18.7597 125.953 18.118 126.595C17.2357 127.317 17.3961 128.432 16.7544 130.517C16.2732 132.114 16.193 132.916 16.2732 132.916C17.2357 133.156 18.0298 129.234 18.7517 128.119C19.3131 127.237 20.2676 126.603 21.3906 125.881C22.5135 125.071 23.7166 123.876 23.3156 123.234Z" fill="#231F20"/>
<path d="M8.03618 165.706C7.98003 165.578 7.92389 165.401 7.86774 165.217L7.87576 165.225C7.87576 165.225 8.67785 164.743 9.15911 164.904C9.64037 165.064 9.881 165.305 9.881 165.305C9.881 165.305 9.39974 164.583 8.59765 164.503C8.14847 164.431 7.86774 164.423 7.68326 164.439C7.55492 163.805 7.47471 163.227 7.47471 163.227C7.47471 163.227 7.55492 160.188 7.15388 160.188C6.75283 160.188 6.67262 161.23 6.75283 162.746C6.75283 163.211 6.79293 163.717 6.8571 164.214C6.817 164.206 6.79293 164.19 6.75283 164.182C4.91603 163.781 3.71289 164.743 3.71289 164.743C3.71289 164.743 4.27436 164.423 5.14864 164.423C6.08709 164.423 6.72877 164.808 6.99346 165.016C7.12981 165.65 7.32231 166.203 7.5469 166.5C7.78753 166.821 8.10837 167.302 8.349 167.783C8.50941 168.184 8.91046 169.067 8.91046 170.101C8.91046 170.021 9.2313 169.059 9.2313 168.585C9.2313 167.864 8.99067 167.462 8.99067 167.462C8.75806 166.829 8.1966 166.107 8.03618 165.706Z" fill="#231F20"/>
<path d="M199.52 84.1561C199.48 84.0759 199.456 84.0037 199.456 83.9636C199.432 83.8673 199.336 83.7149 199.207 83.5545V83.5465C198.927 83.1855 198.509 82.7765 198.485 82.7524L198.469 82.7684C198.469 82.7684 198.509 82.8246 198.558 82.9048C198.55 82.8968 198.542 82.8888 198.525 82.8807C198.381 82.7283 197.996 82.3433 197.747 82.4235C197.595 82.4717 197.563 82.5759 197.555 82.6963C197.547 82.5759 197.515 82.4476 197.475 82.3032C197.587 82.3353 197.956 82.4316 198.317 82.4316C198.533 82.4316 198.742 82.3915 198.878 82.2872C199.616 81.83 199.809 80.9317 199.448 79.6323C199.135 78.3008 197.13 76.1913 197.05 76.1111V76.0228H197.042C193.994 74.6593 192.229 74.0176 189.839 73.8652L189.831 73.8973C190.288 74.0417 190.745 74.17 191.226 74.3144C192.895 74.8036 194.78 75.3571 197.026 76.2955L197.05 76.3036V76.1592C197.282 76.4319 199.087 78.5575 198.943 80.0413C198.927 80.1697 198.91 80.29 198.902 80.4103C198.87 80.7873 198.846 81.0921 198.542 81.3969C198.309 81.6295 197.755 81.7899 197.747 81.7899H197.739L197.419 82.2711L197.411 82.2872L197.395 82.2952C197.451 82.4797 197.483 82.6401 197.491 82.7765C197.298 82.8487 197.098 82.9208 196.889 82.985C196.841 82.985 196.785 82.977 196.737 82.9609C197.146 82.592 197.443 82.215 197.531 82.0466C197.547 81.9824 197.587 81.9022 197.635 81.8059C197.82 81.437 198.124 80.8113 197.932 79.4799C197.796 78.1163 196.953 76.7447 196.713 76.3758V76.3517C196.705 76.3517 196.697 76.3437 196.689 76.3437C196.665 76.3036 196.641 76.2795 196.641 76.2715L196.616 76.2875C196.616 76.2875 196.624 76.3116 196.633 76.3276C195.59 76.071 194.651 75.8544 193.817 75.6539C191.563 75.1245 190.071 74.7716 189.438 74.4267C189.013 74.1138 188.844 73.801 188.948 73.5444C189.117 73.1433 189.887 72.9508 190.785 73.0952C193.946 73.5684 197.146 76.103 197.178 76.1351L197.194 76.1111C197.186 76.1111 197.066 76.0148 196.881 75.8624C196.873 75.7662 196.817 74.932 196.536 74.1138C196.745 74.2743 197.346 74.7635 197.411 75.0924C197.563 75.4052 197.178 75.9506 197.17 75.9587L197.162 75.9747L197.499 76.0629H197.507L197.515 76.0549C197.515 76.0469 197.916 75.4854 197.836 75.0042C197.763 74.4828 196.713 74.1138 196.512 74.0497C196.384 73.6968 196.223 73.3519 195.999 73.0791C195.494 72.4856 194.21 71.3867 193.432 71.0739C193.28 71.0097 193.119 70.9376 192.935 70.8573C192.181 70.5205 191.138 70.0633 188.956 69.5499C185.852 68.804 180.238 68.7318 177.92 68.7398C177.872 68.6516 177.158 67.4244 176.003 66.3496C175.938 66.3014 175.874 66.2533 175.81 66.2052C175.193 65.74 174.495 65.2106 173.925 65.0662C173.757 65.0101 173.62 64.978 173.476 64.9459C173.556 64.7855 173.572 64.5529 173.5 64.2641C173.372 63.7267 172.947 62.9968 172.329 62.668L172.305 62.692C172.866 63.3578 172.674 64.0395 172.481 64.4807C172.321 63.8871 172.016 63.0209 171.367 62.2669C170.885 61.7054 170.564 61.4648 170.244 61.2242L170.22 61.2483C170.404 61.4809 170.452 61.6573 170.508 61.8578C170.548 62.0022 170.597 62.1626 170.693 62.3632C170.853 62.6038 170.749 62.8043 170.629 63.0048C170.548 63.1572 170.46 63.3096 170.484 63.4781C170.436 63.3818 170.38 63.2776 170.332 63.1813C169.963 62.4354 169.586 61.6573 168.311 61.0557C168.094 61.0156 167.902 60.9755 167.717 60.9354C166.851 60.759 166.281 60.6387 165.431 60.5745L165.423 60.6066C166.009 60.7991 167.42 61.3124 167.893 61.8819C167.934 61.9942 168.11 62.2348 168.295 62.4995C168.447 62.7161 168.672 63.0289 168.696 63.1252C167.749 62.1145 166.065 61.8418 164.388 61.7054L164.38 61.7375C165.182 62.0263 165.928 62.4193 166.378 62.7722C166.562 62.9567 166.554 63.0931 166.538 63.2615C166.538 63.2856 166.538 63.3177 166.53 63.3417C166.345 63.0289 165.968 62.9086 165.182 62.9086C164.693 62.9086 164.14 62.9086 163.418 62.9888V63.0209C165.014 63.2214 165.214 63.7428 165.335 64.0636C165.351 64.1037 165.367 64.1438 165.383 64.1759C165.198 64.1037 165.062 64.0075 164.934 63.9032C164.749 63.7588 164.573 63.6305 164.292 63.6305C163.851 63.6866 163.53 63.7748 163.161 63.8791C162.993 63.9272 162.816 63.9754 162.616 64.0235V64.0556C163.089 64.0556 163.49 64.0556 163.883 64.216C164.156 64.3764 164.236 64.5769 164.316 64.7694C164.34 64.8336 164.364 64.8898 164.396 64.9459C164.38 64.9299 164.356 64.9218 164.34 64.9058C164.132 64.7534 163.899 64.585 163.49 64.585C163.386 64.601 163.289 64.609 163.201 64.6251C162.808 64.6732 162.519 64.7133 162.126 64.9058L162.134 64.9379C162.199 64.9379 162.255 64.9299 162.311 64.9299C163.137 64.9299 163.297 65.2748 163.418 65.5635C163.49 65.7239 163.554 65.8683 163.731 65.8924C163.747 65.8924 163.835 65.8523 164.059 65.756C163.915 65.8844 163.779 66.0047 163.642 66.125C163.65 66.0688 163.626 66.0368 163.57 66.0207C163.506 66.0207 163.442 65.9646 163.362 65.9004C163.241 65.7961 163.089 65.6758 162.856 65.6277C162.471 65.5475 161.942 65.764 161.565 65.9485L161.573 65.9806C161.878 65.9004 162.351 65.9726 162.6 66.2132C162.752 66.3656 162.808 66.5902 162.768 66.9271C162.672 67.0153 162.592 67.0955 162.519 67.1597C162.263 66.8549 161.95 66.5661 161.549 66.3496C160.37 65.6999 158.814 65.7801 156.913 66.5982C156.592 66.7586 155.365 67.8334 155.309 67.8816L155.301 67.8896V67.8976C155.301 67.9056 155.477 68.6676 155.678 69.3815C155.325 69.6702 155.012 69.951 154.988 69.967V69.975C154.988 69.9911 155.309 71.0338 155.549 71.8199C155.71 72.2289 156.119 72.7824 156.752 73.1032C156.889 73.1594 157.057 73.1834 157.226 73.1995C145.074 83.2657 137.831 87.7254 131.887 87.6532C128.767 87.6532 125.888 86.1372 124.211 83.8914C122.615 81.814 121.332 80.29 119.415 79.1751C117.498 77.8917 114.298 77.8917 113.977 77.8917C112.06 77.7313 111.097 77.5709 107.656 75.8945C104.592 74.3304 102.082 72.9508 100.173 71.4108C100.157 70.9135 100.141 70.6007 100.141 70.5365C100.06 70.0552 99.5791 69.4136 99.0978 68.7799C98.6166 68.1382 98.4562 67.1838 97.5017 67.1838C97.237 67.1838 96.876 67.4645 96.6515 67.649C96.483 67.4645 96.3146 67.272 96.1381 67.1035C96.0579 66.4619 95.8975 65.5876 95.4162 65.1063C95.4162 65.1063 95.6569 65.9886 95.4964 66.5501L95.4162 66.4699C95.2558 65.9084 94.8548 64.3925 94.2933 63.6706C94.2933 63.6706 94.3735 64.6331 94.0527 65.2667C94.0527 65.2667 93.8922 63.3497 92.3763 61.7456C92.3763 61.7456 92.7773 63.5021 92.0555 63.823C92.0555 63.823 91.6544 60.5424 90.0582 59.0265C90.0582 59.0265 91.0207 61.8258 89.7374 62.4674C89.7374 62.4674 89.4968 61.1841 88.9353 60.1494C88.9353 60.1494 89.2561 62.1466 88.5343 62.307C88.5343 62.307 88.6145 58.6254 85.8152 57.5105C85.8152 57.5105 87.3311 59.989 86.0558 61.5932C86.0558 61.5932 85.8954 57.6709 83.2565 55.7539C83.2565 55.7539 85.0933 60.2296 83.6575 61.4327C83.6575 61.4327 83.4971 57.2699 80.6176 56.2352C80.6176 56.2352 82.9356 59.4355 80.377 61.5129C80.377 61.5129 80.8582 59.6761 79.0936 58.3928C79.0936 58.3928 80.0561 60.6306 77.9707 61.914C77.9707 61.914 79.5668 58.7938 75.5724 57.1175C75.5724 57.1175 77.4894 58.4008 75.8932 61.9942C75.8932 61.9942 75.7328 60.6306 73.2544 59.6761C73.2544 59.6761 75.0109 62.5557 73.9762 63.7588C73.9762 63.7588 72.6929 62.0824 71.4176 62.1626C71.4176 62.1626 72.6207 62.9647 72.2999 64.8015C72.1394 64.6411 71.979 64.5609 71.7384 64.4807C71.2571 64.4005 70.3748 64.2401 70.062 64.4807C70.4631 64.4005 71.185 64.8817 71.4978 65.1224C71.6582 65.2828 71.7384 65.6036 71.7384 65.9245C71.6582 66.0047 71.578 66.0849 71.4978 66.0849C71.4176 66.0849 71.2571 65.8443 70.9363 65.764C70.6155 65.6838 70.1342 65.8443 69.8936 66.0047C70.1342 65.9245 70.5353 66.0047 70.6957 66.1651C70.7759 66.2453 70.8561 66.4057 70.8561 66.6463C67.7359 69.4457 63.4207 73.4481 57.5814 77.8436C54.9425 79.52 50.7797 82.1589 47.2665 84.9662C45.9029 84.3245 38.9488 81.2044 33.5106 81.6856C24.7918 82.4075 18.9526 84.0037 13.9956 80.2499C13.1935 79.6082 12.8727 78.9665 12.7123 78.6537C12.7123 78.6537 11.9102 79.4558 12.0706 80.4905C9.19108 80.2499 5.26884 74.3304 4.7956 73.0551C4.71539 72.1728 4.7956 71.2183 4.95602 70.2558C4.95602 70.2558 2.79839 72.4936 2.79839 76.2554C2.79839 77.9318 3.27964 79.2152 3.68069 80.0975C3.27964 79.6162 2.8786 79.135 2.47755 78.6617C1.83587 77.6992 0.881381 75.9426 0.720962 75.2207C0.720962 75.2207 0.239705 81.3006 5.19665 85.0624C6.87303 86.3458 8.47721 86.9794 9.75254 87.2201C6.6324 87.5409 4.55497 86.7388 4.55497 86.7388C4.55497 86.7388 7.83554 89.3777 12.1508 89.2173C14.0678 89.1371 15.8324 88.0944 17.4286 87.4607C20.6289 86.3378 26.9494 85.3031 33.9036 86.418C38.4595 87.1399 41.4994 88.6558 42.6224 89.2173C41.9005 90.0194 41.339 90.8135 41.0262 91.5353C37.7456 98.7301 34.8661 107.136 33.5106 109.213C32.7887 110.336 29.9092 112.975 28.0724 114.732C23.6769 118.975 19.8349 123.13 17.9981 123.691C15.8404 124.413 15.7602 124.894 15.1988 126.892C15.1988 126.892 14.4769 130.012 13.4422 132.891C12.3995 135.691 5.04425 151.684 4.96404 151.925C3.84111 152.326 2.40536 153.048 1.84389 154.163C1.28243 155.286 1.68347 157.283 1.44285 158.246C1.20222 159.288 0.88138 159.922 0.239705 160.644C-0.321761 161.205 -0.963437 162.561 0.96159 164.726C1.44285 165.288 1.76368 165.93 2.00431 166.643C2.16473 167.285 2.40536 168.641 2.80641 171.119C2.96683 172.162 3.12724 172.635 7.20188 172.555C8.40503 172.555 8.71784 172.154 8.71784 172.154V172.074C8.95847 172.154 9.35952 172.314 9.51994 172.314C11.1161 172.555 12.8807 172.314 13.1213 171.913C13.4422 171.432 13.5224 170.076 13.2015 168.953C12.8807 167.67 10.8835 165.031 10.4022 164.237C10.0814 163.596 10.0814 162.24 9.76057 160.315C9.60015 159.112 10.0814 157.756 10.4022 156.473C10.7231 155.19 11.2043 153.994 11.6856 152.711C12.1668 151.909 12.6481 150.954 12.9689 149.992C13.5304 148.476 20.0113 135.594 22.8909 132.795C24.8881 130.798 40.9701 119.44 40.9701 119.44C40.9701 119.44 42.0128 120.002 43.2079 119.761C48.1648 118.478 52.0871 117.523 55.2072 116.561C55.9291 116.721 57.4451 117.443 58.8086 120.162C59.4503 121.919 61.1267 126.242 62.8913 128.801C65.1291 132.081 67.2066 135.121 67.0542 136.958C66.974 138.795 66.4927 140.158 67.2146 141.353C67.9365 142.557 71.6101 143.431 75.9333 145.115C76.9841 145.516 78.4198 146.19 79.992 146.976L73.7757 152.639C72.8934 152.88 70.3347 153.682 69.3802 154.476C68.8188 154.957 68.3375 155.759 67.8643 156.633C66.3483 157.435 64.7441 157.756 63.7816 158.55C62.3459 159.673 62.6587 161.029 63.2202 161.59C64.1025 162.553 64.9767 163.989 65.2976 164.871C65.6184 165.753 65.6184 167.269 65.7788 167.991C65.9393 168.472 66.5007 169.587 66.8216 170.068C67.0622 170.469 67.5434 170.871 68.1049 171.111C68.8268 171.432 71.0646 171.993 71.3855 171.993C71.8667 172.074 72.0272 171.913 72.0272 171.833C72.0272 171.753 72.1074 171.512 72.1074 171.191C72.5886 171.432 72.9897 172.314 73.4709 172.555C73.872 172.715 75.789 173.116 75.789 173.116C77.0723 173.517 78.2674 170.157 75.7088 167.277C74.1928 165.521 74.273 164.558 74.3452 163.435C74.4254 162.392 74.4254 160.475 75.3879 159.192C75.6286 159.032 75.9494 158.871 76.2702 158.631C77.1525 158.069 84.989 151.668 86.4248 150.874C86.537 150.81 86.6814 150.706 86.8338 150.594C88.5022 151.516 89.8898 152.302 90.5796 152.719C90.6598 153.361 90.9004 153.922 91.2213 154.476C91.5421 154.957 92.1036 155.278 92.657 155.438C92.657 156 92.657 156.874 92.7372 157.596C92.8977 158.558 93.8602 160.636 95.5365 160.716C96.8199 160.716 97.1327 160.395 100.253 158.719C102.009 157.756 102.812 157.203 104.015 156.641C104.897 156.24 105.932 155.839 107.616 155.358C108.338 155.198 109.373 154.797 110.335 154.556C110.977 154.395 110.977 153.834 110.977 153.834C110.977 153.834 110.897 153.112 109.934 152.631C109.854 152.551 109.774 152.551 109.694 152.47C109.934 152.31 110.175 152.069 110.175 151.909C110.175 151.588 108.017 149.591 105.218 149.992C102.338 150.473 98.5765 150.634 97.9428 150.393C97.4616 150.233 97.1407 150.072 96.9001 149.992C96.4188 149.751 95.8574 148.869 95.1435 148.235C94.5018 147.674 92.9859 147.112 92.5848 146.952C92.3763 146.792 92.1196 146.599 91.7507 146.326C92.3201 145.805 92.7854 145.372 93.0661 145.115C93.3869 145.195 93.7078 145.195 93.9484 145.195C96.1862 145.195 100.269 140.72 100.59 139.597C100.911 138.474 100.75 137.92 100.75 137.92C103.549 133.204 108.988 126.001 110.672 124.004C110.832 123.844 110.993 123.603 111.153 123.362C111.875 123.042 113.872 122.24 115.469 121.365C116.03 121.766 116.904 122.248 118.348 122.649C121.067 123.451 129.465 125.849 133.227 127.124C135.866 128.007 138.505 129.041 140.582 129.924C140.582 129.924 140.662 130.004 140.743 130.084C141.946 131.127 148.338 136.565 150.183 137.6C151.779 138.482 154.659 140.319 158.26 142.557C159.062 143.038 159.062 143.118 159.696 143.599C159.696 144 159.856 144.482 160.017 144.883C160.418 145.925 161.14 146.399 161.934 146.719C161.934 146.719 162.736 148.396 163.057 148.957C164.493 152.158 166.979 152.158 170.099 150.16C171.936 148.957 173.54 148.564 174.816 148.163C175.858 147.842 178.497 147.12 180.414 146.719C181.377 146.479 182.572 146.158 182.973 145.597C182.893 144.955 182.091 144.233 181.296 143.599C181.216 143.519 181.136 143.519 181.056 143.439C180.735 142.476 179.692 141.923 179.059 141.682C177.302 140.96 174.503 141.442 174.503 141.442C174.102 141.281 172.666 140.96 171.142 141.121C168.022 141.442 168.824 141.843 166.979 141.602C166.257 141.522 164.1 139.364 163.779 138.963C162.415 137.527 159.696 134.72 157.859 132.964C155.621 130.966 149.862 126.242 148.178 124.886C147.857 124.165 147.376 123.37 146.421 122.408C145.467 121.445 144.424 120.812 143.542 120.571C142.82 120.411 141.946 120.491 141.946 120.491C141.946 120.491 140.43 119.047 138.264 117.852C136.981 117.13 134.984 116.095 134.021 115.614C132.657 114.892 132.104 114.652 131.302 114.178C130.877 113.93 130.58 113.673 130.38 113.433C132.016 112.486 133.636 111.516 135.224 110.529C137.783 108.941 140.309 107.288 142.7 105.468C145.764 103.134 148.403 100.35 151.049 97.5751C154.306 94.1582 157.763 90.7332 161.846 88.3109C164.076 90.1557 168.11 89.2173 170.661 88.7521C172.048 88.4954 173.444 88.2066 174.791 87.7896C176.251 87.3404 177.711 87.2121 179.227 87.18C180.96 87.7735 182.588 88.5836 184.296 89.2413C186.029 89.9151 187.809 90.5969 189.654 89.867C190.633 89.482 191.218 88.72 192.053 88.1264C192.847 87.565 193.921 87.2441 194.892 87.3243C195.871 87.3965 198.75 88.8884 199.279 87.3163C199.52 86.7549 199.119 86.2736 199.119 86.1132C199.103 86.025 199.047 85.9207 198.967 85.8084C199.632 85.3833 199.841 84.8378 199.52 84.1561ZM197.499 82.8567C197.499 83.2417 197.338 83.4663 197.17 83.6909C196.873 83.6187 196.576 83.5465 196.384 83.4984C196.448 83.3299 196.56 83.2016 196.681 83.1214C196.985 83.0492 197.25 82.961 197.499 82.8567ZM39.3899 86.6827C37.874 86.2014 36.1094 85.7202 34.1121 85.3993C27.7114 84.3566 19.5541 85.5597 17.1559 86.5223C15.6399 87.1639 14.7576 88.0382 12.7604 88.2788C11.7979 88.359 10.9236 88.359 10.5226 88.2788C10.1215 88.1986 9.80067 88.1184 9.80067 88.1184C11.7177 88.1184 12.9208 87.3965 12.9208 87.3965C11.7979 87.3163 9.15899 86.9153 5.79822 84.5972C3.39996 82.9208 2.9187 80.9156 2.9187 80.675C2.9187 80.675 4.04163 82.1909 5.39717 82.1909C5.39717 82.1909 3.15933 78.9906 3.88121 73.6326C3.88121 73.793 3.801 74.8357 4.28226 76.1111C4.84373 77.3142 6.11906 78.75 6.11906 78.75C6.11906 78.75 5.15654 76.9132 4.91592 75.0683C5.39717 76.1913 7.79543 80.9878 12.1909 81.8701C12.592 82.6722 12.8326 83.6267 15.0704 84.5892C15.0704 84.5892 14.1881 83.9475 13.7069 83.2256C12.5037 81.3888 12.7444 80.2659 12.7444 80.2659C18.2628 85.3031 25.5458 82.9048 33.3822 82.5038C36.4222 82.3433 40.1038 83.3861 42.8229 84.3406C43.625 84.902 44.5795 85.8565 44.1062 86.5784C43.4726 87.557 40.5931 87.0035 39.3899 86.6827ZM70.0219 140.992C68.3455 140.19 68.4258 139.629 68.506 136.749C68.5862 133.87 67.2226 131.552 64.8243 127.71C63.0678 124.91 60.5813 118.189 60.6615 118.109C60.9823 117.708 61.7844 117.307 62.3379 116.986C64.1747 116.023 66.0997 115.943 67.8563 116.585C69.8535 117.387 70.6556 119.464 71.217 121.542C71.6983 123.218 73.6955 129.859 72.1796 129.619C70.816 129.378 69.7011 128.576 69.7011 128.576C69.7011 128.576 70.824 129.94 71.8587 130.413C72.5806 130.734 73.4549 131.456 73.7757 131.849C74.1768 132.25 75.5323 136.806 75.7729 137.126C76.8959 138.723 79.2139 139.926 82.2539 141.289C82.4544 141.353 82.6549 141.482 82.8474 141.61C82.7832 141.69 82.7191 141.762 82.6469 141.851C81.5961 143.23 80.8983 144.49 80.4572 145.564C77.1525 143.808 71.6662 141.738 70.0219 140.992ZM94.4216 149.39C94.4216 149.39 94.181 148.588 93.6997 147.947C94.1008 148.107 94.6623 148.348 95.1355 148.829C95.9376 149.711 95.9376 149.711 96.4188 150.112C96.7397 150.353 97.5418 150.914 98.2556 150.995C99.2182 151.155 102.571 150.834 102.571 150.834C102.571 150.834 99.6112 151.797 98.1754 151.396C97.2931 151.155 97.0525 150.995 96.6595 151.075C96.1782 151.155 96.9001 151.716 98.023 151.957C99.146 152.198 99.3064 152.198 101.624 151.716C103.862 151.235 105.226 150.594 107.383 151.075C108.025 151.235 108.747 151.636 109.22 152.037C108.98 151.957 108.659 151.877 108.258 151.797C107.696 151.716 107.536 152.599 107.536 153.16C107.536 153.561 107.616 153.962 107.536 154.203C107.456 154.363 107.055 154.524 106.894 154.604C104.416 155.246 101.777 156.2 100.493 157.082C99.2101 157.885 98.015 158.839 96.8119 158.839C94.9751 158.919 94.4136 157.796 94.4136 157.243C94.4136 156.2 96.0098 155.807 96.0098 155.807C96.1301 155.751 96.2424 155.735 96.2985 155.727C95.8092 155.775 92.8736 155.069 92.1677 154.363C91.4459 153.642 91.125 149.086 91.125 149.086C91.125 149.086 90.8042 150.128 90.8042 151.404L90.724 151.323C89.8657 150.858 88.8711 150.313 87.8364 149.751C88.807 148.941 90.0181 147.858 91.0609 146.912L94.4216 149.39ZM137.213 118.518C138.89 119.32 139.932 120.274 140.494 120.836C140.654 120.916 141.136 121.397 141.296 121.397C141.537 121.397 143.133 121.076 143.855 121.478C144.657 121.959 145.371 122.52 146.333 123.555C146.814 124.036 147.456 125.071 147.697 125.632C148.098 126.595 147.857 127.229 148.258 127.549L148.338 127.63C148.338 127.309 148.419 126.988 148.419 126.667C150.255 128.031 155.541 131.624 157.699 133.709C160.097 136.028 163.538 139.549 164.26 140.271C164.581 140.752 165.624 142.188 166.819 142.268C167.781 142.348 168.816 142.027 170.5 141.787C171.784 141.706 173.219 141.626 174.021 141.947C173.46 142.508 173.3 143.311 173.3 143.311C173.3 143.311 173.701 142.829 174.021 142.508C174.262 142.348 174.503 142.188 174.663 142.107C175.225 141.947 176.5 141.626 178.024 141.867C178.184 141.867 178.265 141.947 178.425 141.947C179.307 142.107 180.422 142.589 180.663 143.07C180.021 142.909 179.299 142.669 179.067 142.829C178.585 143.15 178.666 143.551 178.666 144.113C178.666 144.594 178.826 144.995 178.746 145.155C178.585 145.877 176.749 145.877 176.749 145.877C175.465 145.877 172.666 146.278 170.829 147.321C169.393 148.123 168.27 149.639 166.273 149.559C164.276 149.479 164.035 148.837 163.715 148.275C163.474 147.874 163.073 147.153 162.912 146.912C163.554 146.912 163.955 146.752 163.955 146.752C163.474 146.752 161.076 146.03 160.354 144.353C159.712 142.918 160.434 139.797 160.434 139.797C160.434 139.797 160.113 140.198 159.712 140.84L154.274 136.364C154.274 136.364 152.598 137.086 151.314 136.846C148.194 136.284 144.039 132.29 141.713 129.883C142.355 129.964 143.951 129.803 143.951 129.803C143.951 129.803 132.754 127.164 125.952 121.325C123.233 119.007 126.353 117.082 128.992 116.689C130.412 116.432 134.093 116.914 137.213 118.518ZM198.477 84.9822C198.429 84.9903 198.381 84.9983 198.333 84.9983C197.956 85.0384 197.571 84.9181 197.194 84.902C196.344 84.7977 195.59 84.4288 194.716 84.501C193.753 84.501 192.927 84.7015 192.085 85.1587C192.085 85.1587 192.085 85.1667 192.077 85.1667C190.986 85.8164 190.176 86.5543 188.9 86.8591C187.761 87.1318 186.598 86.9474 185.483 86.6345C184.312 86.3057 183.197 85.8565 182.083 85.3833C181.056 84.9501 179.684 84.5972 179.131 83.5224C178.866 83.1936 178.826 82.3834 178.97 81.9984C179.099 81.6375 179.444 81.453 179.773 81.2525L179.756 81.2284C178.938 81.6375 178.08 82.1268 178.08 83.1615C177.446 83.1855 176.765 83.2978 175.93 83.4422C175.898 83.4502 175.866 83.4502 175.834 83.4583C174.904 83.5946 173.973 83.739 173.059 83.9395C172.666 84.0277 172.169 84.2684 171.768 84.2684L171.776 84.3004C173.981 84.3004 176.179 83.763 178.385 84.2122C178.417 84.2684 178.441 84.3165 178.489 84.3726C178.609 84.5491 178.794 84.6774 178.994 84.7897C178 84.7657 177.005 84.7737 176.019 84.886C175.08 84.9902 174.19 85.3191 173.268 85.5116C171.158 85.9528 169.145 86.3538 166.971 86.1372C164.276 85.8726 160.723 84.4368 159.961 81.4851H159.937C159.84 83.2898 160.779 85.287 162.263 86.2977C160.346 87.2121 158.621 88.5034 157.113 89.9953C152.437 93.7491 148.619 98.4815 144.039 102.356C142.243 103.88 140.245 105.171 138.272 106.446C135.393 108.307 132.449 110.08 129.441 111.724C127.869 112.582 126.273 113.4 124.653 114.154C123.842 114.403 123 114.451 122.519 113.874C121.637 112.831 123.08 108.756 123.08 108.756C123.08 108.756 120.442 115.077 117.883 117.395C115.003 119.954 112.445 120.836 111.963 120.916C112.284 120.194 112.766 119.32 113.247 118.197C109.806 122.673 102.29 132.915 99.9721 136.83C99.5711 136.028 98.769 135.546 98.769 135.546C99.4107 136.188 99.8919 137.383 99.6513 138.666C99.3304 140.343 94.7746 144.345 93.411 144.345C92.0474 144.425 90.2908 143.784 90.2908 143.784C90.6919 144.105 91.1731 144.345 91.7266 144.586C91.1972 145.115 88.7508 147.505 86.7937 149.134C86.4328 149.439 86.0798 149.711 85.767 149.944C85.7269 149.968 85.6868 150 85.6547 150.032C83.4169 151.708 72.9335 159.874 72.9335 159.874C72.9335 159.874 73.4148 159.794 74.3693 159.393C74.2089 159.794 73.9682 160.435 73.888 160.836C73.7276 161.478 73.7276 162.673 73.6474 163.475C73.6474 164.277 73.487 165.152 74.2891 166.114C75.0109 167.077 75.6526 167.79 76.1259 168.593C76.2863 168.913 76.4467 169.475 76.5269 169.956C76.2863 169.314 75.8852 168.673 75.4842 168.593C75.1633 168.512 74.4415 168.593 73.8078 169.796C73.5672 170.197 73.5672 170.678 73.1661 170.838C72.7651 170.999 72.364 170.518 72.0432 170.197C72.0432 169.635 71.955 168.601 71.4897 167.951C72.4362 166.988 70.8481 165.152 70.8481 164.197C70.7679 163.074 71.8106 160.997 71.8106 160.997C71.8106 160.997 70.3748 161.959 69.9738 162.914C69.4925 164.117 69.8134 164.751 70.455 165.472C71.0727 166.242 71.4657 167.815 71.4897 167.935C71.2972 167.67 71.0406 167.462 70.6957 167.397C69.8134 167.237 68.4578 169.234 67.7359 169.395C67.4151 169.475 66.9339 168.593 66.6932 168.111C66.2922 167.309 66.3724 166.034 66.212 165.312C65.9713 164.43 65.089 162.513 64.295 161.871C63.4929 161.149 63.0918 160.275 64.2148 159.072C65.0971 158.189 66.5328 158.189 67.4953 157.315C67.0141 158.278 66.6932 159.152 66.6932 159.152C66.6932 159.152 68.9311 155.711 69.9738 154.909C71.0165 154.107 74.6099 153.072 74.6099 153.072L79.7273 148.596C79.8075 150.754 82.2057 149.559 82.2057 149.559C82.2057 149.559 80.3689 149.88 80.6096 148.195C80.6497 147.899 80.7058 147.602 80.77 147.305C80.8743 146.848 81.0186 146.407 81.1871 145.965C81.7886 144.369 82.7592 142.893 83.9703 141.795C86.2082 139.717 86.6894 139.958 87.7322 139.717C87.7322 139.717 91.5742 135.715 95.0874 130.758C95.9697 129.555 99.2502 123.483 99.8037 122.52C99.9641 122.841 100.205 123.082 100.445 123.322C100.445 123.322 99.563 121.486 99.8839 119.801C100.526 116.12 102.523 112.045 102.683 109.647C102.844 107.73 104.279 103.968 104.279 103.968C104.279 103.968 102.042 108.211 101.32 109.727C99.4026 113.489 97.9589 114.523 95.8814 114.924C93.804 115.325 87.9648 115.967 80.2005 114.042C80.2005 114.042 86.1199 116.681 95.721 116.12C97.8787 116.039 100.197 115.157 100.197 115.157C100.197 115.157 99.2342 117.716 99.0738 119.633C98.9936 120.194 99.0738 120.756 99.3144 121.309C98.9134 122.191 96.7557 126.507 94.5179 129.948C92.28 133.389 88.5984 137.704 87.8765 138.586C86.9782 138.723 85.2537 139.164 83.5131 140.912C81.2432 139.589 79.2059 138.554 77.5536 136.982C76.5109 136.019 75.0751 131.784 74.7543 130.18C74.5938 129.458 74.7543 127.301 74.4334 124.742C74.1126 122.344 73.7918 120.579 73.5511 119.224C73.7115 119.304 74.6741 119.785 74.9949 120.026C75.0751 120.026 82.5907 123.146 98.2717 123.146C98.4321 123.146 99.0738 120.507 98.9134 120.347C94.9911 120.507 86.7536 119.785 83.3126 118.983C78.0348 117.78 69.9577 115.382 69.9577 108.347C69.9577 99.5483 66.7574 95.9469 66.7574 95.9469C66.7574 95.9469 67.8001 99.3076 67.8001 102.588C66.9018 110.754 63.3084 112.999 56.3462 115.237C49.1514 117.555 43.8656 118.839 42.6705 118.919C41.708 118.999 39.1493 118.277 38.3552 117.242C38.6761 117.724 39.3177 118.606 39.791 118.919C39.791 118.919 24.2705 130.196 22.2732 132.033C20.0354 134.111 12.8326 147.393 12.0385 150.273C11.2364 153.152 8.83816 157.074 8.83816 157.074C8.83816 157.074 9.56004 156.272 10.5145 154.997C10.3541 155.478 10.1135 156.12 9.87286 156.994C9.55202 158.197 8.99055 159.553 9.15097 160.917C9.3916 162.593 9.47181 164.277 9.87286 164.919C10.5145 165.962 12.993 168.52 12.9128 170.117C12.9128 170.117 12.2711 169.154 11.477 169.234C10.7552 169.234 10.3541 169.796 9.88088 170.67C9.47983 171.392 9.39962 171.873 9.07878 171.793C8.99858 171.793 8.83816 171.713 8.67774 171.713C8.67774 170.911 8.51732 169.715 7.4746 169.395C6.43187 169.074 5.47738 170.197 4.83571 170.758C4.59508 170.999 4.19403 171.159 3.79298 170.919C3.15131 169.322 3.31173 166.122 1.87598 164.598C0.440229 163.082 0.360019 162.039 1.15409 161.077C1.47493 160.676 1.71556 160.114 1.95619 159.32C2.27702 160.042 2.59786 160.756 2.59786 160.756C2.35723 160.114 2.27702 158.518 2.27702 157.796C2.35723 156.914 2.43744 155.639 3.07912 154.676C4.28226 153 6.03885 152.037 6.43989 151.797H6.5201C6.76073 151.235 12.6 138.041 14.3566 133.958C16.1934 129.795 16.1934 125.801 17.958 125.32C21.4792 124.277 24.7597 119.962 29.476 115.085C30.599 113.882 31.6337 112.927 32.4358 112.045C39.6306 105.163 39.8712 102.845 39.8712 102.845C39.8712 102.845 37.7136 105.163 35.7083 107.24C37.5451 103.398 38.9889 98.3612 40.2642 95.241C42.5823 89.8028 44.5073 88.1184 47.3868 85.8806L52.9854 81.8781C54.5816 80.9156 56.3462 79.8007 57.5413 78.9184C63.0597 74.7555 67.1424 70.9215 69.6209 68.6035C72.0993 66.2854 73.2223 65.1625 75.5403 63.7267C76.9761 63.0851 78.8209 62.684 80.9785 62.7642C84.4195 62.9246 88.1733 63.6465 90.6598 64.4406C91.0609 64.601 91.3817 64.7614 91.7025 64.8416C94.3254 66.0368 95.2959 67.2319 96.9562 69.1328C96.8279 70.2076 96.3306 73.6727 95.2237 74.0417C90.6678 75.5576 71.9469 73.4 70.5112 72.3653C70.2144 72.1567 70.0781 70.9616 70.0941 69.8146L67.0141 77.2901C67.0301 78.5414 66.9659 79.8969 66.7494 81.3327C66.2601 84.5491 64.319 87.9179 63.2603 89.883C62.7229 89.8349 62.1855 90.0033 61.7844 90.3964C61.1588 91.1263 61.3112 92.2733 62.1373 93.0112C62.5223 93.3481 62.9956 93.5165 63.4608 93.5165C63.934 93.5165 64.3912 93.3401 64.7361 92.9952C64.9527 92.7786 65.0971 92.4979 65.1452 92.1931C71.0085 93.4122 85.39 95.9549 91.2373 96.8532C91.0929 97.2783 91.133 97.7355 91.3255 98.1446C90.339 99.0349 89.2 99.6766 88.1813 99.9653C87.0584 100.286 83.465 100.928 83.465 100.928L85.9435 102.291C86.8258 102.291 87.2268 102.131 87.2268 102.131C86.7456 102.452 86.1841 102.532 86.1841 102.532L87.4675 103.896C88.831 103.575 89.2241 103.254 89.2241 103.254C89.2241 103.254 88.9032 103.655 87.4675 104.297L87.3873 105.973C87.3873 105.973 90.5876 105.732 92.1838 102.853C92.8575 101.513 93.1543 99.9814 93.2586 99.3317C93.4671 99.3317 93.6757 99.2916 93.8682 99.2274C94.2773 99.083 94.5981 98.7943 94.7665 98.4253C94.9671 98.0564 95.0072 97.6232 94.8708 97.2142C94.7906 96.9655 94.6462 96.7409 94.4617 96.5404C96.3627 94.1903 99.3706 86.6185 99.8679 82.9369C100.381 79.4237 100.325 74.8357 100.253 72.3412C102.202 73.8893 104.416 75.1646 107.071 76.464C111.153 78.5414 112.188 78.4612 112.99 78.6216C114.506 78.8622 116.11 78.5414 118.669 79.6643C121.308 80.8675 122.03 83.9074 125.07 86.4661C127.548 88.5435 130.588 89.0248 131.952 89.0248C136.034 88.9446 139.708 87.1078 145.708 83.4262C153.544 78.6296 161.228 70.8654 161.228 70.8654L160.667 70.3841C160.25 70.737 159.856 71.0659 159.447 71.4108C160.081 70.8413 160.546 70.4563 160.731 70.3039C161.14 70.2076 161.172 70.2638 161.188 70.328C161.196 70.352 161.204 70.3761 161.22 70.3921L161.236 70.4082V70.3841C161.236 70.0472 161.212 69.8708 161.1 69.7986C160.947 69.6943 160.602 69.8226 159.937 70.1355C159.504 70.352 158.677 70.5525 158.06 70.5525C157.964 70.5525 157.867 70.5445 157.779 70.5365C157.081 70.4723 156.945 70.0633 156.833 69.7264C156.809 69.6462 156.776 69.566 156.744 69.5018C156.72 69.4457 156.688 69.3735 156.656 69.2933C156.488 68.8922 156.207 68.2185 156.343 68.1543C156.391 68.1062 156.44 68.058 156.48 68.0099C156.64 67.8415 156.76 67.7051 157.137 67.5126C158.742 66.8148 160.153 66.7105 161.348 67.1918C162.904 67.8174 163.514 69.2532 163.522 69.2692L163.546 69.2612C163.546 69.2451 163.394 68.3468 162.808 67.4885L163.129 67.6008H163.137L163.145 67.5928C163.153 67.5768 164.196 66.149 165.383 65.4352C166.779 64.6491 168.286 64.5128 169.851 65.0341C171.118 65.5074 173.981 67.1757 174.005 67.1918L174.021 67.1757C174.013 67.1677 173.548 66.5661 172.53 65.6919C172.658 65.7079 172.802 65.732 172.971 65.756C173.837 65.8282 174.8 66.1811 175.602 66.7105C176.925 67.5206 177.775 68.6035 177.896 68.7559C177.278 68.7559 176.909 68.7639 176.893 68.7639V68.7879C176.957 68.796 183.695 69.5098 184.168 69.59C186.013 69.7585 188.676 70.2397 189.446 70.5445C189.686 70.6408 190.063 70.7771 190.488 70.9376C191.507 71.3145 192.774 71.7798 193.28 72.0605C194.002 72.4615 195.06 73.5203 195.518 73.9775C196.272 74.5951 196.737 75.5737 196.849 75.8303C196.215 75.3411 194.916 74.3705 194.098 73.9534C193.192 73.4561 191.764 72.9107 190.97 72.7503C190.713 72.7262 190.464 72.6781 190.216 72.63C189.686 72.5257 189.189 72.4294 188.812 72.5899C188.491 72.654 187.938 73.1032 187.858 73.6567C187.537 73.5684 186.791 73.3759 186.061 73.3759C185.965 73.3759 185.868 73.3759 185.78 73.3839C183.254 73.3839 181.168 72.9107 181.144 72.9027L181.136 72.9267C181.16 72.9348 183.719 73.6486 185.62 73.8893C186.703 73.9935 187.633 74.2903 188.122 74.4668C188.355 74.7475 188.764 75.0443 189.478 75.325C190.817 75.8464 192.935 76.1993 195.774 76.3677H196.673C196.777 76.6565 197.146 77.603 197.282 77.8757C197.282 77.9318 197.314 78.0762 197.362 78.2847C197.459 78.6858 197.603 79.2874 197.603 79.7125C197.603 80.3381 197.403 80.9317 197.282 81.2284C197.106 81.5894 196.456 82.4316 195.614 82.7444C194.86 83.0171 194.226 82.8807 193.552 82.7364C193.44 82.7123 193.328 82.6882 193.216 82.6642C192.486 82.5198 190.93 81.6215 190.264 81.2364C190.2 81.2044 190.152 81.1723 190.103 81.1402C189.999 81.076 189.871 81.0038 189.743 80.9236C189.197 80.5948 188.443 80.1456 187.866 80.0173C187.665 79.9772 187.481 79.921 187.304 79.8729C186.815 79.7365 186.35 79.6162 185.708 79.6162C185.596 79.6082 185.475 79.6082 185.371 79.6082C184.056 79.6082 183.141 80.0253 182.5 80.8996C182.091 81.4771 181.986 81.9664 182.163 82.4155H182.018L182.026 82.4316C182.026 82.4476 182.443 83.6427 184.032 84.3566C185.05 84.7496 185.981 84.91 186.598 84.9983C186.727 85.0063 186.855 85.0143 186.983 85.0143C187.809 85.0143 188.62 84.8058 189.317 84.5972C189.606 84.501 189.919 84.3566 190.256 84.1962C190.745 83.9716 191.242 83.731 191.716 83.6347C192.51 83.5224 193.135 83.5304 193.649 83.5705C194.066 83.6668 194.547 83.747 194.988 83.747C195.125 83.747 195.261 83.731 195.389 83.7149C195.71 83.755 196.039 83.8031 196.352 83.8673C197.066 83.9475 198.181 83.9475 198.197 83.9475V83.9235C198.189 83.9235 197.755 83.8032 197.29 83.6909C197.354 83.6106 197.411 83.5224 197.459 83.4262C197.435 83.6427 197.491 83.8031 197.884 83.7069C197.884 83.4181 197.812 83.0492 198.036 82.8246C198.189 82.7283 198.405 82.7925 198.542 82.8807C198.59 82.9289 198.63 82.977 198.678 83.0251C198.814 83.2497 198.991 83.5705 199.079 83.8673C199.199 84.3004 199.015 84.9822 198.477 84.9822ZM196.328 83.4903C196.304 83.4823 196.264 83.4743 196.24 83.4743C196.207 83.4663 196.151 83.4583 196.087 83.4583C196.151 83.4181 196.207 83.378 196.264 83.3379C196.272 83.354 196.296 83.354 196.296 83.378C196.32 83.4101 196.328 83.4502 196.328 83.4903ZM191.347 82.9529C191.258 82.8567 191.194 82.7203 191.291 82.5278C191.563 82.6722 191.812 82.8086 192.02 82.9208C192.109 82.969 192.189 83.0171 192.261 83.0572C191.972 83.0251 191.676 82.993 191.347 82.9529ZM191.732 83.0732C191.668 83.0893 191.595 83.1053 191.523 83.1214C191.515 83.1053 191.499 83.0893 191.467 83.0652C191.459 83.0572 191.443 83.0412 191.435 83.0331C191.539 83.0572 191.635 83.0652 191.732 83.0732ZM188.588 84.2844C187.97 84.4769 187.192 84.5812 186.205 84.5892C186.205 84.1079 186.35 83.346 186.582 82.592C186.614 82.5439 186.646 82.4957 186.687 82.4556C186.727 82.4235 186.767 82.3995 186.815 82.3834C186.887 82.3915 186.951 82.4075 187.023 82.4155H187.031C187.449 82.4797 187.842 82.5439 188.219 82.6C188.227 82.608 188.235 82.608 188.243 82.616C188.355 82.6882 188.539 82.8005 188.596 82.969C188.523 83.4101 188.515 83.8433 188.515 84.2764H188.588V84.2844ZM182.973 82.9208C182.877 82.6321 182.788 82.1829 182.917 81.7337L183.735 81.8781C183.831 81.9262 184.072 82.0546 184.12 82.3674C184.12 82.4155 184.12 82.4717 184.168 82.4877C184.016 83.0412 183.911 83.5705 183.879 83.9636L183.959 83.9716C183.992 83.5705 184.104 83.0091 184.272 82.4235C184.288 82.4075 184.304 82.3915 184.32 82.3594C184.409 82.2471 184.529 82.0947 184.673 82.0385C185.139 82.1187 185.588 82.1909 186.013 82.2631C186.029 82.2792 186.053 82.2872 186.085 82.3113C186.213 82.3915 186.43 82.5278 186.454 82.7364C186.245 83.4502 186.125 84.1481 186.117 84.6052H186.077C185.363 84.6052 184.561 84.3646 184.088 84.124C183.598 83.7951 183.286 83.5625 183.053 83.2497C182.989 83.1695 182.941 83.0813 182.901 82.985C182.949 82.9609 182.981 82.9449 182.973 82.9208ZM186.743 81.8861C186.743 81.8621 186.735 81.838 186.735 81.8059L186.743 81.7658L186.711 81.7979C186.687 81.822 186.654 81.8541 186.63 81.8781C186.494 82.0225 186.342 82.1829 186.085 82.1909C185.708 82.1268 185.315 82.0626 184.914 81.9984C184.906 81.9583 184.858 81.9423 184.802 81.9262C184.778 81.9262 184.754 81.9262 184.729 81.9343C184.689 81.9182 184.641 81.8861 184.601 81.8541C184.553 81.8059 184.529 81.7498 184.521 81.6776C184.705 81.2044 184.922 80.7632 185.179 80.4103C185.684 80.4103 186.189 80.4825 186.622 80.5466C186.831 80.5787 187.031 80.6108 187.2 80.6188C187.248 80.6269 187.312 80.6349 187.376 80.6509C187.144 80.9798 186.927 81.4129 186.743 81.8861ZM187.465 80.675C187.874 80.7953 188.547 81.1001 189.269 81.4691C189.101 81.6856 188.965 81.9102 188.86 82.1268C188.836 82.1508 188.82 82.1749 188.796 82.199C188.66 82.3433 188.507 82.5118 188.243 82.5118C188.203 82.5118 188.186 82.5118 188.17 82.5198C187.785 82.4637 187.384 82.3995 186.959 82.3273C186.895 82.2631 186.815 82.1669 186.767 82.0385C186.959 81.5172 187.2 81.0359 187.465 80.675ZM184.489 81.5493L184.457 81.5332C184.272 81.7738 184.2 81.7739 184.008 81.7658C183.959 81.7658 183.911 81.7578 183.847 81.7578C183.735 81.7578 183.703 81.7578 183.687 81.7739C183.446 81.7337 183.197 81.6856 182.949 81.6455C183.045 81.3648 183.222 81.0921 183.534 80.8434C183.967 80.5065 184.521 80.4023 185.09 80.3942C184.858 80.7311 184.657 81.1322 184.489 81.5493ZM188.668 83.0572C188.7 82.969 188.756 82.8487 188.844 82.7684C188.884 82.7283 188.94 82.7203 188.989 82.7123C189.654 82.8086 190.272 82.8968 190.825 82.9609C190.793 82.969 190.761 82.977 190.721 82.977C190.617 82.977 190.609 82.977 190.609 82.993C190.609 83.0091 190.617 83.0091 190.649 83.0251C190.721 83.0572 190.89 83.1294 190.93 83.3139C190.649 83.4262 190.36 83.5545 190.079 83.6828C189.678 83.8673 189.269 84.0518 188.876 84.1801C188.788 84.2122 188.692 84.2363 188.604 84.2684C188.604 83.8753 188.604 83.4663 188.668 83.0572ZM189.165 82.6642C189.077 82.584 188.916 82.4235 188.9 82.223C189.005 81.9824 189.149 81.7418 189.333 81.5011C189.983 81.83 190.673 82.199 191.267 82.5118C191.218 82.5599 191.178 82.616 191.138 82.6802C191.082 82.7604 191.026 82.8406 190.954 82.9048C190.416 82.8406 189.815 82.7604 189.165 82.6642Z" fill="#231F20"/>
<path d="M99.3795 70.2876C99.2993 69.8865 99.0587 69.5657 98.6576 68.924C98.1764 68.2021 98.0962 67.6407 97.5347 67.4883C97.3743 67.4883 97.0535 67.6487 96.893 67.7289C96.9732 67.7289 97.2941 67.6487 97.4545 67.8091C98.0962 68.4508 96.893 74.4505 95.7781 74.8515C91.142 76.3675 71.1458 74.6109 69.8624 73.2553C69.5897 72.9586 69.4534 72.2928 69.3972 71.4907L67.9053 75.421C68.1059 77.3781 68.1781 79.632 67.8652 81.8939C67.1433 86.6102 64.4242 89.7304 64.8253 90.2116C65.1461 90.6127 92.8184 95.5696 93.1392 95.329C94.7354 94.2863 97.6149 87.9738 98.4972 83.3296C99.2191 79.1588 99.4597 70.841 99.3795 70.2876Z" fill="white"/>
<path d="M93.4591 96.5929C92.8175 96.2721 92.0234 96.5127 91.7828 97.0742C91.6223 97.4592 91.7186 97.9084 91.9993 98.2613C91.5421 98.6222 90.2427 99.6088 88.823 100.194C87.6199 100.676 84.6602 101.157 84.6602 101.157L85.9435 101.799C87.2269 101.799 89.0637 100.996 89.0637 100.996C88.6626 102.28 86.906 102.753 86.906 102.753L87.4675 103.314C89.3845 102.833 91.1491 100.996 91.1491 100.996C91.1491 100.996 90.9887 103.395 87.8685 104.678V105.32C88.1092 105.159 90.0262 104.758 91.3095 102.921C92.3763 101.349 92.6891 99.2158 92.7372 98.7666C93.3228 98.935 93.9725 98.6944 94.189 98.1971C94.5019 97.6356 94.181 96.9138 93.4591 96.5929Z" fill="white"/>
<path d="M91.1735 81.8425L90.9569 81.6259H90.6521C90.227 81.6259 89.9222 81.5858 89.5051 81.5377L88.9998 81.4735C88.719 81.4334 88.4143 81.3933 88.1095 81.3532C87.8127 81.3131 87.5159 81.273 87.2352 81.2329L87.0106 81.2008L86.8101 81.3051C86.5133 81.4494 86.3047 81.7382 86.2566 82.0671C86.2005 82.3959 86.3047 82.7168 86.5454 82.9494L86.6898 83.0937L87.155 83.206C87.3635 83.2943 87.4197 83.3424 87.4116 83.3103L87.4437 83.3825C87.4838 83.4868 87.5881 83.9841 87.2993 86.1818L87.0587 88.179C86.6817 91.1067 85.4064 91.3473 84.3396 91.227C83.738 91.1628 83.2969 90.9462 83.0001 90.5612C82.5349 89.9597 82.3825 88.925 82.583 87.5614L83.0643 83.8557C83.1285 83.19 83.1846 82.8932 83.2327 82.7569C83.2889 82.7569 83.3611 82.7488 83.4653 82.7488H84.1712L84.3877 82.5323C84.6123 82.3077 84.7326 81.9066 84.6765 81.5537C84.6284 81.2569 84.4519 81.0163 84.1952 80.888L84.0749 80.8318L81.789 80.5752C81.412 80.5351 81.027 80.4709 80.666 80.4067C80.3372 80.3506 80.0243 80.2944 79.7196 80.2623L79.503 80.2383L79.3025 80.3345C78.7971 80.5912 78.6207 81.2249 78.8934 81.7863L79.0298 82.059L79.6153 82.2515C79.6794 82.2676 79.7436 82.2916 79.7998 82.3157C79.8078 82.4601 79.7998 82.7729 79.7035 83.4467L79.142 87.5534C78.9495 89.4543 79.2062 90.7618 79.9361 91.6762C80.7142 92.6467 81.9173 93.2081 83.6017 93.3846C83.9065 93.4247 84.1952 93.4488 84.492 93.4488C85.6711 93.4488 86.7299 93.0959 87.5319 92.4221C88.5105 91.604 89.096 90.2725 89.3046 88.3555L89.5773 86.1738C89.6816 85.3075 89.866 83.8557 90.0345 83.591C90.0505 83.583 90.1227 83.559 90.2671 83.559H90.9729L91.1895 83.3424C91.5424 82.9814 91.5424 82.2114 91.1735 81.8425Z" fill="#231F20"/>
<path d="M80.4252 83.5587C80.6659 81.8021 80.5054 81.8021 79.7836 81.5615L79.5429 81.4813C79.4627 81.3208 79.4627 81.0802 79.6231 81C80.2648 81.0802 80.9867 81.2406 81.7006 81.3208C82.4224 81.401 83.1363 81.4813 83.8582 81.5615C84.0186 81.6417 83.9384 81.9625 83.8582 82.0427H83.4571C82.6551 82.0427 82.4946 82.1229 82.3342 83.7993L81.853 87.4809C81.5321 89.7188 82.0134 91.724 84.2512 91.9566C86.4089 92.1972 87.4516 90.7535 87.7724 88.275L88.013 86.2778C88.1735 85.0746 88.3339 83.5587 88.0932 83.0774C88.013 82.8368 87.7724 82.6764 87.3714 82.516L87.0505 82.4357C86.8901 82.2753 86.9703 82.0347 87.1307 81.9545C87.6922 82.0347 88.3339 82.1149 88.8873 82.1951C89.6092 82.2753 90.0103 82.3555 90.6439 82.3555C90.7241 82.4358 90.7241 82.7566 90.6439 82.8368H90.2429C89.922 82.8368 89.6012 82.917 89.4408 83.1576C89.1199 83.6389 88.9595 85.0746 88.7991 86.358L88.5585 88.275C88.398 89.7107 87.997 91.0743 87.0425 91.8764C86.08 92.6785 84.8047 92.8389 83.6817 92.6785C82.1658 92.5181 81.123 92.0368 80.4814 91.2427C79.8397 90.4407 79.6793 89.2455 79.8397 87.6413L80.4252 83.5587Z" fill="#F58025"/>
<path d="M85.4709 76.1905H84.8694C84.8533 76.1825 84.8293 76.1745 84.8052 76.1665C84.5245 76.0221 84.1314 76.0301 83.6021 76.5434C82.5353 75.8857 81.5647 75.5408 80.6102 75.4767C78.8697 75.2039 77.2735 75.6852 76.0062 76.8643C74.6988 78.0754 73.9529 79.5192 73.7844 81.1234C73.5117 82.8319 73.8807 84.3879 74.8673 85.7354C75.7656 87.0028 77.3056 87.845 79.2066 88.1177C79.4552 88.1498 79.7039 88.1658 79.9445 88.1658C81.0514 88.1658 82.0941 87.845 83.0566 87.2033C83.7865 86.714 84.6929 85.9841 84.8774 85.2542L84.9015 85.0777C84.9015 84.4842 84.4844 84.027 83.9309 84.027C83.5539 84.027 83.3213 84.2596 83.0807 84.5002C82.1182 85.5349 81.1958 85.9921 80.3616 85.8798C79.5274 85.7515 78.9339 85.3103 78.4927 84.4922C77.9633 83.5136 77.8109 82.3827 78.0195 80.979C78.0837 80.209 78.2601 79.5754 78.5489 78.9818C78.9178 78.3883 79.2627 77.9952 79.5755 77.7867C79.9686 77.5621 80.3616 77.4899 80.8429 77.5541C81.5888 77.6904 82.0941 78.0113 82.431 78.5727C82.9283 79.3989 83.185 79.9443 83.3213 80.5058C83.5459 81.1796 83.955 81.3239 84.2518 81.3239C84.8614 81.3239 85.3025 80.8828 85.3025 80.2732V80.0005L85.4629 77.3937V76.1905H85.4709Z" fill="#231F20"/>
<path d="M83.7051 77.4811C83.8655 77.3207 83.9457 77.2405 84.1061 77.08C84.2666 76.9196 84.427 76.7592 84.5072 76.8394C84.5874 76.8394 84.6676 76.9196 84.7478 76.9196V77.4009L84.5874 79.9596V80.2804C84.5874 80.521 84.427 80.6012 84.2666 80.6012C84.1864 80.6012 84.1062 80.521 84.0259 80.2804C83.8655 79.6387 83.5447 78.997 83.0634 78.203C82.5822 77.4089 81.8603 76.9998 80.986 76.8394C80.3443 76.7592 79.7829 76.8394 79.2294 77.1602C78.7482 77.4811 78.3471 77.9623 77.9461 78.596C77.6252 79.2377 77.3846 79.9596 77.3044 80.914C77.0638 82.5102 77.3044 83.7936 77.8659 84.8363C78.4273 85.879 79.2294 86.4325 80.2641 86.5929C81.387 86.7533 82.502 86.1918 83.6249 84.9967C83.7853 84.8363 83.8655 84.7561 83.9457 84.7561C84.1062 84.7561 84.1864 84.9165 84.1864 85.0769C84.1061 85.3978 83.6249 85.9592 82.6704 86.5929C81.7079 87.2345 80.593 87.5554 79.3096 87.395C77.6332 87.1543 76.2697 86.4325 75.4676 85.3175C74.5853 84.1144 74.2645 82.7589 74.5051 81.2349C74.6655 79.7189 75.3874 78.4356 76.5023 77.3928C77.6172 76.3501 78.9808 75.9571 80.5047 76.1897C81.6197 76.2779 82.6624 76.7592 83.7051 77.4811Z" fill="#F58025"/>
<path d="M140.173 122.43C140.173 122.43 139.772 122.991 139.772 124.026C139.772 125.069 140.013 125.149 140.013 125.149C140.013 125.149 139.371 125.069 139.371 123.865C139.451 122.911 140.173 122.43 140.173 122.43Z" fill="#231F20"/>
<path d="M156.961 68.1921L156.969 68.2162C156.993 68.2081 157.017 68.2081 157.041 68.2081V68.2162C157.362 68.537 157.683 68.7616 158.204 68.8017C158.26 68.8097 158.316 68.8097 158.381 68.8097C158.894 68.8097 159.576 68.6493 160.498 68.3285C160.739 68.4006 160.947 68.4728 161.132 68.553C162.03 68.9381 162.471 69.4193 162.479 69.4193L162.495 69.4033C161.124 67.1333 157.731 67.8873 156.961 68.1921Z" fill="#231F20"/>
<path d="M175.304 69.3332C175.304 69.3251 175.296 69.3171 175.28 69.3171H175.272C175.12 69.3813 174.983 69.4535 174.839 69.5337C174.478 69.7262 174.101 69.9267 173.355 70.039C172.329 70.1994 171.518 70.2796 170.564 69.8786C170.075 69.6781 169.706 69.3813 169.377 69.1246C169.056 68.876 168.759 68.6353 168.406 68.515C168.358 68.499 168.31 68.4829 168.262 68.4669C167.805 68.2985 167.107 68.0338 164.797 68.7557L164.805 68.7797C166.89 68.4108 167.091 68.5872 168.085 69.4615C168.11 69.4856 168.142 69.5096 168.166 69.5337C167.973 70.1112 167.725 71.2502 168.47 72.0603C168.631 72.2608 169.224 72.8704 170.46 72.8704C170.54 72.8704 170.628 72.8704 170.716 72.8624C171.061 72.8624 171.968 72.3891 172.722 71.9801C173.676 71.4266 174.871 69.9909 174.887 69.9748L174.871 69.9588C174.863 69.9668 173.668 70.5203 173.355 70.6005L173.299 70.6085C173.973 70.3759 174.43 70.1272 174.711 69.9428C175.152 69.638 175.312 69.3813 175.304 69.3332ZM170.484 72.349C170.42 72.3571 170.347 72.3651 170.283 72.3651C169.746 72.3651 169.208 72.1164 168.896 71.8758C168.053 71.3705 168.126 70.2155 168.246 69.5898C168.27 69.6139 168.294 69.6299 168.326 69.654C168.831 70.0871 169.762 70.7368 170.412 70.8972C170.42 71.178 170.436 71.5389 170.492 71.6432C170.588 71.8918 170.805 72.0603 171.037 72.1646C170.853 72.2608 170.684 72.333 170.484 72.349ZM172.505 70.9694C172.28 70.9213 171.992 70.8732 171.767 70.9133C171.735 70.9213 171.703 70.9213 171.663 70.9213C171.615 70.9213 171.551 70.9133 171.486 70.9053C171.727 70.8972 171.96 70.8812 172.12 70.8732C172.272 70.8652 172.385 70.8571 172.409 70.8571C172.457 70.8491 172.497 70.8331 172.545 70.8251C172.537 70.8652 172.521 70.9133 172.505 70.9694Z" fill="#231F20"/>
<path d="M173.684 72.7656C172.641 74.5222 171.045 75.0837 169.682 75.1639C168.086 75.0837 167.283 73.9607 167.123 73.0063C167.524 73.5677 168.086 74.6826 170.083 74.6826C171.366 74.6826 172.641 73.9607 173.684 72.7656Z" fill="#231F20"/>
<path d="M120.658 102.755C120.658 102.755 117.939 95.7128 112.1 94.7584C112.1 94.7584 116.102 93.0018 121.861 96.1219C121.861 96.1219 116.664 94.6862 116.343 95.4C116.174 95.7209 119.776 96.1139 120.658 102.755Z" fill="#231F20"/>
<path d="M134.493 104.2C134.653 105.163 138.889 102.684 140.974 101.241C143.934 99.1632 152.011 92.2812 152.011 92.2812C147.615 94.1983 141.295 99.083 139.37 100.358C137.052 101.874 134.252 103.238 134.493 104.2Z" fill="#231F20"/>
<path d="M100.983 124.437L100.341 123.715C100.341 123.715 96.6593 131.471 92.1836 136.436C92.1836 136.436 93.3065 135.794 94.5819 134.359C95.6246 133.236 96.7395 131.479 97.6218 130.043" fill="#231F20"/>
<path d="M69.5479 136.032C69.5479 134.749 68.9062 132.992 68.9062 132.992C70.8233 133.473 70.5826 136.754 71.3847 137.869C72.1868 139.072 78.0261 140.748 78.0261 142.665C78.0261 142.665 76.1893 141.703 74.184 140.909C72.267 140.107 70.0212 139.626 69.7083 138.831C69.3875 137.949 69.5479 137.147 69.5479 136.032Z" fill="#231F20"/>
<path d="M157.691 142.346H157.61L152.814 139.386H152.734C151.218 139.627 149.694 140.822 148.258 142.988C136.579 159.944 123.626 168.583 109.701 168.583C98.3436 168.583 88.5019 163.947 80.4248 154.827L80.2644 154.666L78.4276 156.102L78.604 156.278C77.1843 157.393 76.0534 158.3 75.7887 158.5C75.4678 158.741 75.147 158.901 74.9064 159.062C73.9439 160.345 73.9439 162.262 73.8636 163.305C73.7834 164.428 73.7032 165.382 75.2272 167.147C77.7859 170.107 76.5908 173.467 75.3074 173.066C75.3074 173.066 73.3904 172.665 72.9894 172.505C72.5081 172.264 72.1071 171.382 71.6258 171.141C71.6258 171.462 71.5456 171.703 71.5456 171.783C71.5456 171.863 71.3852 172.024 70.9039 171.943C70.5831 171.943 68.3452 171.382 67.6234 171.061C67.0619 170.82 66.5806 170.419 66.34 170.018C66.0192 169.537 65.4577 168.422 65.2973 167.941C65.1369 167.219 65.1369 165.703 64.816 164.821C64.4952 163.938 63.6129 162.503 62.7386 161.54C62.1771 160.979 61.8563 159.623 63.3001 158.5C64.2626 157.698 65.8587 157.458 67.3827 156.583C67.864 155.701 68.3452 154.907 68.8987 154.426C69.8612 153.624 72.4199 152.829 73.2942 152.589L74.6497 151.378L74.7379 151.466L76.4945 149.87L76.4143 149.709C68.4174 138.111 64.3348 122.591 64.3348 103.557C64.3348 91.9585 65.9309 81.804 69.0511 73.4863C72.1712 65.2488 76.4865 58.6877 82.0049 53.9713C87.4431 49.3352 94.3251 46.9289 102.402 46.9289C113.279 46.9289 122.479 51.3244 129.673 60.0432C136.395 68.2005 141.352 75.8765 144.231 82.7585L144.312 82.9991L146.309 81.7158L146.229 81.5554C146.213 81.5153 146.189 81.4752 146.172 81.4351L148.868 79.5582L151.555 77.4968L151.587 77.954L153.824 76.1974L151.827 46.3595C151.426 41.2421 150.945 39.9587 150.624 39.3171C149.982 38.2744 148.707 37.7209 146.862 37.7209C145.186 37.7209 143.341 39.1567 141.183 42.357C139.9 44.1938 138.545 45.9584 137.181 47.6348C123.056 40.1272 108.979 36.2852 95.3838 36.2852C75.548 36.2852 58.8324 43.7206 45.8706 58.439C32.8285 73.1655 26.2754 90.7554 26.2754 110.671C26.2754 130.668 32.8365 147.865 45.7101 161.54C58.664 175.296 76.4223 182.258 98.6564 182.258C115.452 182.258 129.689 177.061 140.887 166.818C152.244 156.423 157.843 148.899 157.843 143.862L157.691 142.346Z" fill="#231F20"/>
<path d="M78.7401 156.182C87.2985 165.863 97.6936 170.74 109.693 170.74C124.331 170.74 137.927 161.781 150.006 144.183C151.209 142.426 152.404 141.464 153.367 141.464C155.043 141.464 155.685 142.185 155.685 143.862C155.685 148.177 150.247 155.38 139.451 165.222C128.654 175.143 114.899 180.1 98.6561 180.1C77.0638 180.1 59.7866 173.379 47.2258 160.024C34.7452 146.749 28.4328 130.106 28.4328 110.671C28.4328 91.2364 34.8335 74.1999 47.4665 59.8825C60.0273 45.6453 76.1814 38.4505 95.4558 38.4505C109.051 38.4505 123.048 42.3728 137.125 49.9686L137.846 50.3697L138.328 49.728C139.763 47.8912 141.368 45.8058 142.964 43.5679C145.282 40.2071 146.485 39.8863 146.886 39.8863C147.608 39.8863 148.482 39.9665 148.803 40.4478C148.883 40.6082 149.365 41.6509 149.685 46.5276C149.685 46.5276 151.282 70.7669 151.763 77.5607L153.6 76.1249C153.038 67.9676 151.602 46.4474 151.602 46.4474C151.201 41.4103 150.8 40.0467 150.399 39.4853C149.838 38.3623 148.643 37.8891 146.878 37.8891C145.202 37.8891 143.437 39.3248 141.36 42.445C139.924 44.4422 138.56 46.2068 137.277 47.8832C123.136 40.3676 109.059 36.4453 95.4558 36.4453C75.62 36.4453 58.9845 43.8807 46.0227 58.5992C32.9887 73.2374 26.4355 90.7551 26.4355 110.671C26.4355 130.667 32.9967 147.704 45.7901 161.46C58.6637 175.216 76.4221 182.178 98.6642 182.178C115.46 182.178 129.617 176.98 140.814 166.738C152.172 156.342 157.69 148.899 157.69 143.942C157.69 143.461 157.61 142.979 157.53 142.578L152.814 139.619C151.378 139.859 149.934 141.054 148.418 143.14C136.659 160.176 123.706 168.815 109.709 168.815C98.2711 168.815 88.4294 164.179 80.2721 154.979L78.7401 156.182ZM76.2617 149.869C68.2648 138.271 64.1019 122.751 64.1019 103.637C64.1019 91.9583 65.6981 81.884 68.8182 73.486C71.9384 65.2485 76.3338 58.6874 81.8523 53.8909C87.3707 49.1746 94.2526 46.8485 102.33 46.8485C113.286 46.8485 122.567 51.3242 129.761 60.0429C136.563 68.2804 141.44 75.9565 144.4 82.7582L146.076 81.6353C143.036 74.6731 138.079 66.9971 131.277 58.7596C123.681 49.4793 113.92 44.8432 102.322 44.8432C93.7634 44.8432 86.4081 47.4019 80.5689 52.3589C74.7297 57.3158 70.1738 64.1978 66.9734 72.7561C63.773 81.3145 62.0967 91.6294 62.0967 103.549C62.0967 123.224 66.3397 139.226 74.7377 151.137L76.2617 149.869Z" fill="#F58025"/>
</g>
<defs>
<clipPath id="clip0_154_2374">
<rect width="200" height="200" fill="white"/>
</clipPath>
</defs>
</svg>
