<svg width="200" height="200" viewBox="0 0 200 200" fill="none" xmlns="http://www.w3.org/2000/svg">
<g clip-path="url(#clip0_154_2377)">
<path d="M60.5131 77.5568C58.8901 76.2655 57.0635 75.1818 55.0464 74.3905C53.1593 73.5004 50.6875 72.955 48.125 72.951C46.0625 72.952 43.9375 73.3098 42.0484 74.2181C41.2238 74.5598 40.4637 74.9772 39.7691 75.451C39.749 75.4288 39.7278 75.4066 39.7087 75.3865C38.997 74.6506 38.0272 74.2393 37.0212 74.2393C36.7127 74.2393 36.3992 74.2776 36.0897 74.3593C34.1401 74.8542 33.0111 75.8129 31.9325 76.7534L31.3559 77.2484C31.1684 77.4097 30.9929 77.5891 30.8296 77.7957C29.8014 79.1143 29.0736 80.2806 28.5696 81.3845C28.4566 81.4097 28.3427 81.4419 28.2278 81.4812C26.8095 81.9591 25.6462 82.9278 24.875 84.203C24.2137 85.2897 23.8175 86.583 23.6774 88.0236C21.7823 88.6304 20.1058 89.6042 18.8841 90.9379C18.25 91.6344 17.9123 92.5337 17.9123 93.448C17.9123 93.8351 17.9718 94.2242 18.0958 94.6022C16.9415 96.0951 16.4002 97.6506 16.4032 99.1153C16.4032 99.1476 16.4032 99.1788 16.4042 99.2121C15.246 99.6949 13.8478 100.244 12.1119 100.923C8.08871 102.496 6.3629 105.589 6.24899 107.966C6.24496 108.056 6.24395 108.147 6.24395 108.235C6.24395 108.365 6.24899 108.493 6.25907 108.619C5.36391 109.062 4.80444 109.249 4.51815 109.327C4.25303 109.269 3.98286 109.24 3.7127 109.24C2.75806 109.238 1.78629 109.609 1.06149 110.353C0.355848 111.074 0 112.022 0 112.956C0 113.913 0.371976 114.879 1.10585 115.605C1.12198 115.622 1.12803 115.626 1.13105 115.63L1.14617 115.645L1.19658 115.691C1.46674 115.953 2.39415 116.831 3.72581 117.741C5.08871 118.665 6.87097 119.639 8.88408 119.968C9.55444 120.076 10.3034 120.125 11.0746 120.145C11.2581 120.533 11.494 120.909 11.7873 121.258C12.7681 122.426 14.0887 123.301 15.6825 123.887C17.2782 124.477 19.1542 124.796 21.3327 124.89C23.2117 124.969 25.1059 125.003 26.4748 125.021C26.8498 125.396 27.3075 125.768 27.8619 126.114C28.9849 126.812 30.3236 127.049 31.8196 127.051C33.7228 127.049 35.9446 126.665 38.5726 126.102C41.6764 125.431 44.1552 124.57 46.0242 123.463C47.5897 124.002 49.6885 124.696 51.7722 125.293C54.1089 125.955 56.378 126.504 58.0373 126.572C58.3044 126.581 58.5655 126.586 58.8216 126.586C61.3337 126.586 63.3367 126.132 64.8599 125.43C65.8044 124.99 66.5686 124.458 67.1462 123.864H156.083L160.652 120.179L164.054 107.435H192.318L200 77.5579H60.5141L60.5131 77.5568Z" fill="white"/>
<path d="M64.2018 79.4917L64.2129 79.5099L60.8742 79.4958C60.5929 79.2397 60.3036 78.9907 60.0073 78.7478C58.4054 77.4383 56.595 76.3466 54.5869 75.5633C51.5234 74.0966 46.3127 73.5401 42.5133 75.3859C41.35 75.8657 40.3318 76.5048 39.4488 77.2518C39.3288 76.903 39.1423 76.5744 38.8782 76.3012C38.2331 75.6329 37.2804 75.3536 36.3812 75.5885C34.6544 76.0381 33.7835 76.7891 32.6827 77.7407L32.103 78.2377C31.973 78.3496 31.8399 78.4847 31.7361 78.6197C30.5526 80.1349 29.8208 81.395 29.3691 82.5583C29.1111 82.5653 28.85 82.6006 28.597 82.6863C26.2734 83.4756 24.8843 85.7589 24.7764 88.9504C24.7744 88.9746 24.7744 88.9978 24.7734 89.02C22.7169 89.5482 20.9276 90.5199 19.7341 91.8284C19.2945 92.3103 19.0627 92.9323 19.0627 93.5643C19.0627 93.8375 19.105 94.1107 19.1937 94.3768C19.2603 94.5744 19.35 94.7357 19.4367 94.902C18.098 96.4111 17.5536 97.895 17.5536 99.2306C17.5536 99.5139 17.5859 99.7881 17.6312 100.057C16.3056 100.629 14.6726 101.273 12.5294 102.111C8.8893 103.535 7.49011 106.247 7.39838 108.138C7.39536 108.208 7.39434 108.279 7.39434 108.351C7.39434 108.711 7.44676 109.05 7.53446 109.372C7.37015 109.458 7.20483 109.545 7.04152 109.629C5.55362 110.39 4.77842 110.579 4.49313 110.627C3.59797 110.346 2.58386 110.556 1.88427 111.273C1.39435 111.773 1.15039 112.423 1.15039 113.071C1.15039 113.736 1.40543 114.399 1.91451 114.902C1.91854 114.907 1.93064 114.917 1.93669 114.924L1.98608 114.969C2.41652 115.39 5.56269 118.384 9.06673 118.948C9.86007 119.075 10.8621 119.119 11.8732 119.117C12.0244 119.655 12.2804 120.173 12.6665 120.633C14.3419 122.623 17.1907 123.677 21.3802 123.855C23.479 123.943 25.605 123.977 26.979 123.99C27.3439 124.413 27.8187 124.846 28.471 125.254C30.4135 126.469 33.6827 126.093 38.3288 125.092C41.6282 124.382 44.1534 123.447 45.8812 122.31C49.0587 123.419 55.1897 125.433 58.0778 125.537C61.595 125.664 64.0244 124.881 65.4952 123.864C66.2079 123.372 66.6978 122.825 66.971 122.299C66.9941 122.257 67.0103 122.212 67.0304 122.169H155.638L159.146 119.413L162.764 105.702L190.73 105.559L197.479 79.4927H64.2028L64.2018 79.4917Z" fill="#00539F"/>
<path d="M49.1693 75.1187C47.2387 75.026 45.2258 75.3026 43.529 76.1163C40.9322 77.1429 39.1435 79.0994 38.0282 81.1977C38.0258 81.0776 38.0145 80.9542 38.0145 80.8381C38.0145 79.4332 38.225 78.1953 38.3548 77.7727C38.3863 77.6711 38.4 77.5671 38.4 77.4631C38.4 77.1937 38.2992 76.9292 38.1072 76.7292C37.8403 76.4526 37.4451 76.3397 37.0742 76.4373C35.6879 76.7985 35.0104 77.3824 33.9838 78.2695L33.3911 78.7784C33.3379 78.8244 33.2838 78.8792 33.2403 78.9356C31.5895 81.0477 30.908 82.5768 30.6604 84.0203C30.6137 83.9356 30.5733 83.8502 30.504 83.7776C30.2201 83.4776 29.7863 83.3703 29.3951 83.5034C27.6725 84.0897 26.6798 85.8292 26.5975 88.4034C26.5959 88.4356 26.5951 88.4663 26.5951 88.4977C26.5951 88.8663 26.725 89.2316 26.8645 89.5897C24.4983 89.9074 22.4201 90.855 21.1637 92.234C20.983 92.4324 20.8879 92.6873 20.8879 92.9477C20.8879 93.0598 20.9056 93.1735 20.9419 93.2832C21.1185 93.8155 21.4564 94.1316 21.854 94.3308C19.95 95.9744 19.3709 97.4356 19.3709 98.5945C19.3709 99.2647 19.5693 99.8203 19.8032 100.267C18.2508 100.998 16.2613 101.784 13.3919 102.905C10.6161 103.99 9.29674 106.041 9.22174 107.595C9.21932 107.64 9.21851 107.683 9.21851 107.728C9.21851 108.438 9.50883 109.01 9.99754 109.316C9.35077 109.675 8.69028 110.029 8.04351 110.361C5.37093 111.727 4.53383 111.533 4.52577 111.531L4.51528 111.529C4.01206 111.442 3.63222 111.424 3.28787 111.847C3.11125 112.065 3.01367 112.316 3.01367 112.562C3.01367 112.795 3.10158 113.023 3.28948 113.21C3.29028 113.211 3.29754 113.218 3.29916 113.22C3.48303 113.4 6.50803 116.338 9.6169 116.837C10.6911 117.011 12.2483 117.008 13.6193 116.957C13.5709 117.141 13.5451 117.325 13.5451 117.51C13.5451 118.049 13.7467 118.58 14.1371 119.044C15.5225 120.69 18.0153 121.567 21.7564 121.726C24.2427 121.832 26.8395 121.858 28.0613 121.865C28.3193 122.312 28.7685 122.845 29.5846 123.355C30.8701 124.159 33.4024 124.055 38.3217 122.996C42.5758 122.078 44.7879 120.932 45.9483 120.003C48.4032 120.874 55.4854 123.303 58.4419 123.407C62.6451 123.56 65.2742 122.258 65.9395 120.984C66.1992 120.485 66.1717 119.943 65.8669 119.537C65.7145 119.335 65.2661 118.893 64.3733 119.061C64.1056 119.048 63.5613 118.649 62.9435 118.062C64.5048 118.25 65.9854 118.43 66.0871 118.442C66.2701 118.5 70.7717 119.936 70.7717 119.936C70.779 119.949 70.7814 119.945 70.8112 119.949C70.8153 119.949 72.808 120.753 73.7879 119.442C74.1854 118.911 74.6733 118.334 74.5153 116.371C74.5169 116.381 74.3233 115.314 74.3266 115.325L73.9782 114.248C72.7298 110.757 70 108.919 66.8701 107.04C66.2467 106.665 65.6588 106.305 65.0935 105.945C65.3701 105.31 65.5992 104.575 65.5992 103.769C65.5992 103.412 65.5556 103.044 65.4524 102.668C65.4225 102.554 65.375 102.448 65.3088 102.353C65.2935 102.329 65.2911 102.322 65.279 102.302C65.7161 101.894 66.3742 101.156 66.7282 99.5002C66.7314 99.4856 66.7363 99.4719 66.7395 99.4574C67.0798 98.2203 67.25 96.8929 67.25 95.5179C67.25 88.1832 62.5177 79.5179 54.3056 76.3397H54.304C52.9451 75.6752 51.0992 75.2123 49.1693 75.1187ZM86.2451 81.2679L88.1161 84.3445L83.2048 103.227L83.1645 103.395H94.1725L94.85 100.859L95.8983 96.9534H91.9387L91.1645 99.8542H88.6483L90.1887 94.1292H95.2451L96.2774 90.284H91.2129L92.6483 84.9195H95.0838L94.3177 87.7671H98.3096L100.044 81.2679H86.2451ZM100.826 81.2679L102.673 84.9195L98.608 100.099L97.7209 103.395H108.56L110.068 97.7687L110.285 96.9534H106.358L105.914 98.6115L105.584 99.8542H103.205L103.398 99.1236L108.181 81.2679H100.826ZM127.35 81.2679L129.221 84.9195L128.6 94.0026L127.955 103.395H133.374L137.955 92.1018L139.076 89.3437L138.745 91.9413L137.277 103.395H142.479L148.592 89.9405L152.535 81.2679H148.108L143.882 90.8969L142.245 94.6284L142.681 91.1413L143.898 81.2679H138.721L133.914 92.9227L133.197 94.655L133.398 93.0276L134.858 81.2679H127.35ZM180.979 81.2679L182.108 83.1284L182.85 84.3445L177.898 103.395H188.906L190.632 96.9534H186.681L185.898 99.8542H183.382L184.914 94.1292H189.979L191.011 90.284H185.947L187.382 84.9195H189.818L189.06 87.7671H193.035L194.777 81.2679H191.261H180.979ZM70.7371 81.2695L72.6145 84.8929L67.6572 103.397H76.8121L80.5645 100.656L85.0242 84.5856L82.7419 81.2695H70.7371ZM117.387 81.2695L118.339 84.9211L112.823 97.2082L110.04 103.395H114.355L117.161 96.9534H120.403L119.782 103.395H124.29L124.943 94.7461L125.952 81.2695H117.387ZM153.653 81.2695L154.621 84.9211L152.742 89.0961L146.314 103.395H150.637L153.435 96.9534H156.669L156.048 103.395H160.564L161.782 87.2598L162.234 81.2695H153.653ZM165.5 81.2695L167.411 84.6719L167 86.1985L162.395 103.397H166.984L169.452 94.1558H171.419L172.21 95.1244L169.992 103.397H174.589L177.121 93.9365L175.71 92.305L177.992 90.7002L179.782 84.5856L179.177 83.7235L177.452 81.2695H165.5ZM77.1451 84.9211H79.4588L80.0491 85.6356L76.4314 99.1365L75.4661 99.8276H73.1508L77.1451 84.9211ZM171.927 84.9211H174.169L174.758 85.6106L173.766 89.3187L172.468 90.2574H170.5L171.855 85.2123L171.927 84.9211ZM121.234 87.7405L120.548 94.1292H118.476L121.234 87.7405ZM157.516 87.7405L157.468 88.1356L156.823 94.1292H154.75L157.331 88.1639L157.516 87.7405Z" fill="#FFD200"/>
<path d="M53.8802 77.3232C51.4861 76.1317 47.0465 75.5833 43.9387 77.0954C40.0818 78.6055 38.2764 82.3524 37.7734 85.0339C36.3953 82.3464 37.107 78.2022 37.3328 77.4704C35.977 77.8242 35.5022 78.3837 34.0667 79.5964C31.3661 83.0551 31.478 84.6448 31.6705 87.4532C31.0728 87.1266 29.4659 85.174 29.727 84.5157C28.1756 85.044 27.6947 86.8776 27.6474 88.4653C27.606 88.9835 28.3701 90.1095 28.1423 90.545C25.4558 90.6458 23.1484 91.6276 21.9377 92.9563C22.2552 93.9099 23.9367 93.4452 24.8631 93.6448C24.0365 94.0551 23.2804 94.5097 22.6222 95.0641C20.7522 96.6458 19.6423 98.5823 21.0778 100.326C21.2542 100.468 21.5768 100.415 21.8238 100.404C21.8187 100.415 21.8137 100.424 21.8097 100.435C20.0173 101.441 17.8137 102.32 13.7683 103.902C9.48104 105.577 9.78244 109.463 11.2562 108.272C12.73 107.08 16.3036 106.807 16.3036 106.807C16.3036 106.807 12.231 109.411 8.51631 111.312C4.80059 113.213 4.02539 112.464 4.02539 112.464C4.02539 112.464 6.93567 115.342 9.7774 115.8C11.3711 116.055 14.3812 115.906 16.348 115.729C14.971 116.233 14.0667 117.33 14.9397 118.37C16.1121 119.763 18.3943 120.531 21.7915 120.675C25.1887 120.819 28.7703 120.815 28.7703 120.815C28.7703 120.815 28.7935 121.623 30.1373 122.463C31.482 123.305 35.4548 122.536 38.0889 121.968C42.846 120.943 44.8157 119.657 45.605 118.906L40.5929 117.478C35.6131 116.725 31.7855 114.826 29.232 112.235C28.7895 111.837 28.5143 110.976 27.7966 110.727C27.228 110.783 25.9195 111.172 25.347 111.016C24.9649 110.331 27.8611 109.647 26.1242 108.935C24.6554 109.39 22.8197 109.325 21.4437 108.845C20.8802 107.893 23.3853 107.472 23.8177 107.365C25.3913 106.92 27.7048 106.868 29.2724 106.515C29.4951 106.257 28.3812 105.607 28.1191 105.478C26.8953 105.211 29.3248 105.276 29.6111 105.247C30.4054 105.145 29.9961 105.091 30.2996 104.389C30.0153 104.11 31.7512 104.673 31.8732 104.617C32.1927 104.765 32.6574 105.006 33.1242 104.94C33.225 104.431 32.609 104.325 32.354 103.797C33.8066 104.23 35.2099 104.559 36.3842 105.233C36.2623 104.375 35.3369 102.611 35.0083 101.732C33.983 98.5904 32.976 95.2416 37.6927 93.6982C41.4407 92.5037 44.9609 95.8887 46.9548 97.4321C46.9457 97.4331 46.9387 97.4351 46.9286 97.4371C47.0798 97.4976 47.1907 97.549 47.2441 97.5752C47.728 97.8182 50.6776 100.864 51.983 102.072C53.2875 103.281 56.0919 105.843 57.5425 106.279C58.9931 106.713 60.5405 106.858 61.3137 106.424C62.0879 105.989 62.2814 105.747 62.2814 105.747C62.2814 105.747 62.474 104.344 62.5224 103.958C62.5707 103.571 62.6191 102.846 62.6191 102.846C62.6191 102.846 63.5375 102.314 63.731 102.411C63.9246 102.508 64.1181 105.215 63.103 106.182C63.103 106.182 64.0213 106.568 66.8742 108.407C68.0375 109.155 69.2058 109.915 70.231 110.804C68.3419 109.031 65.9498 107.854 63.7199 106.332C64.348 105.214 64.728 104.087 64.4195 102.951C63.3308 101.338 65.0425 102.369 65.6927 99.2426C67.6988 92.1186 63.2865 80.9401 53.8802 77.3232Z" fill="white"/>
<path d="M47.5881 77.2467C45.2075 77.4612 43.4567 78.4604 42.151 79.5515C39.4809 81.9281 39.0809 84.4781 38.3575 86.9749C37.422 87.1967 37.2897 86.662 37.1091 86.3459C36.5292 84.2402 35.1534 82.2475 36.1131 79.2773C33.7736 81.312 32.701 84.5362 32.7897 86.866C32.6405 87.4765 33.5768 88.3805 32.3567 88.6313C31.2107 88.3168 29.397 87.3233 29.2236 86.1741C27.7301 87.7983 29.2163 89.4281 29.2083 90.741C27.0163 91.037 24.5002 91.583 23.1551 92.8039C24.2712 92.8491 25.4155 92.6459 26.4438 92.9225C26.5067 93.7628 24.9623 93.9571 24.2196 94.4749C22.3389 95.7152 20.276 98.8184 22.4002 99.7612C22.4268 99.6442 23.7123 96.2192 26.2704 95.3039C26.4801 95.0176 26.0712 96.1378 26.2801 96.4612C24.9575 97.6765 24.118 98.8862 23.5913 100.194C23.0292 100.894 22.0655 101.733 20.4462 102.351C17.1051 103.626 15.4978 104.216 14.2792 104.564C13.0599 104.912 12.6873 105.281 11.9357 105.847C11.1841 106.414 10.926 107.533 10.926 107.533C10.926 107.533 12.5059 106.211 15.9333 106.065C17.3123 106.005 18.8865 106.668 18.8865 106.668C18.8865 106.668 17.4462 107.252 15.7897 108.397C14.0405 109.608 13.8413 109.802 12.9752 110.356C12.0712 110.934 10.5833 111.633 9.97763 111.934C9.37199 112.235 6.63086 113.081 6.63086 113.081C6.63086 113.081 7.33892 114.039 9.51957 114.394C10.7857 114.6 12.7236 114.602 13.7986 114.647C14.8768 114.693 17.8897 114.767 18.351 114.733C18.8099 114.697 18.1405 115.624 17.168 116.35C16.1123 117.14 16.2551 118.525 18.2655 119.007C20.276 119.49 21.5639 119.707 23.8623 119.531C26.1599 119.355 29.0792 119.385 29.0792 119.385C29.0792 119.385 28.8067 121.05 30.6631 121.545C32.5204 122.04 36.0325 121.458 38.6252 120.877C40.9147 120.364 43.1905 118.891 43.6946 118.552C43.8107 118.557 43.8784 118.543 43.7986 118.48L41.4857 118.31L38.9405 117.979C34.0059 117.021 29.7083 114.789 27.1147 112.175C26.5486 111.593 25.1163 112.147 24.1978 111.914C24.0405 111.765 23.9413 111.622 23.9381 111.502C23.9188 110.865 24.8139 109.908 24.8139 109.908C24.8139 109.908 23.7857 109.985 22.3551 109.84C20.8172 109.685 20.4905 109.091 20.6252 108.445C20.7341 107.926 21.0623 107.71 21.8809 107.171C21.8671 107.138 21.8559 107.1 21.8905 107.166C23.6034 106.33 25.3857 106.37 26.8897 105.788C26.7268 105.759 26.597 105.695 26.4341 105.668C26.3002 105.39 26.5252 105.04 26.8784 104.846C27.522 104.532 28.401 104.502 29.1139 104.539C28.9083 104.216 28.4292 103.947 28.7905 103.568C29.501 103.393 30.1607 103.625 30.8292 103.671C30.5317 103.365 30.368 103.033 30.7704 102.737C32.072 102.653 33.3809 103.298 34.2921 103.844C33.3946 101.284 31.8873 98.562 32.5204 96.0854C33.1196 94.5588 33.5825 92.5096 38.2776 91.7531C40.6268 91.5765 43.4147 92.52 45.7623 94.3321C49.3454 97.408 52.0301 100.572 55.1704 103.861C56.2922 104.639 57.1857 105.554 58.951 106.014C59.6325 106.089 60.4123 106.263 61.0284 105.893C61.8873 105.107 61.6244 104.156 61.9059 103.306C62.2438 102.26 60.368 103.102 59.6865 102.418C58.8728 102.281 57.9333 99.9418 57.8623 101.634C57.0583 101.921 57.2913 101.173 56.8792 101.043C56.7389 101.164 56.3784 101.238 56.2067 101.091C54.972 98.1426 52.4696 95.7571 50.401 93.3459C50.218 93.17 49.572 92.9684 49.8526 92.7281C55.5857 94.2975 57.1881 98.2055 60.4204 101.171C60.8567 101.66 61.7647 101.993 62.7542 101.577C63.547 100.957 64.3139 100.189 64.4309 99.4039C64.9284 93.9967 64.272 87.6386 59.3728 82.8813C57.7115 80.2612 53.3284 77.1983 47.5881 77.2467ZM39.0938 93.4483C38.6349 93.4668 38.1696 93.5442 37.701 93.6942C32.9857 95.2362 33.9921 98.5854 35.0188 101.729C35.347 102.606 36.2728 104.37 36.3938 105.228C35.2204 104.555 33.8163 104.226 32.3631 103.792C32.6188 104.318 33.2341 104.426 33.1333 104.934C32.668 105 32.2018 104.76 31.8825 104.613C31.7607 104.668 30.0244 104.106 30.3075 104.385C30.0042 105.086 30.4147 105.14 29.6196 105.243C29.3341 105.27 26.9059 105.206 28.1292 105.472C28.3905 105.603 29.5034 106.252 29.2825 106.509C27.7147 106.861 25.4002 106.915 23.8276 107.36C23.3954 107.467 20.8889 107.888 21.4526 108.84C22.8284 109.32 24.6639 109.385 26.1333 108.93C27.8704 109.641 24.9736 110.327 25.3567 111.01C25.9301 111.168 27.2381 110.777 27.8059 110.722C28.5228 110.972 28.7986 111.831 29.2397 112.23C31.7946 114.821 35.6236 116.721 40.6026 117.473L45.6147 118.902L45.7542 118.941C45.7542 118.941 54.6518 121.843 57.1663 122.373C59.6792 122.906 60.7921 122.471 61.855 122.277C62.9188 122.085 64.5139 121.31 64.9486 120.729C65.3841 120.15 65.143 120.343 65.0462 120.102C64.9615 119.893 64.6567 120.048 64.3631 120.122C64.3155 120.135 64.2696 120.144 64.2244 120.151C63.8946 120.193 63.1591 119.666 63.1591 119.666C63.1212 119.639 63.0413 119.566 62.9325 119.46C62.2301 118.772 60.3131 116.68 60.3131 116.68C60.3131 116.68 61.1776 116.911 61.8067 116.911C62.4341 116.911 65.2881 117.394 65.8688 117.394C66.4478 117.394 66.4962 117.588 67.8986 118.119C69.301 118.652 71.8631 119.231 71.8631 119.231C71.8631 119.231 73.9913 119.666 73.3139 115.895C72.9131 113.66 71.7292 112.091 70.2413 110.8C69.2163 109.91 68.0462 109.15 66.8833 108.401C64.0292 106.564 63.1123 106.177 63.1123 106.177C64.1284 105.21 63.9341 102.502 63.7405 102.406C63.5478 102.31 62.6284 102.842 62.6284 102.842C62.6284 102.842 62.5809 103.565 62.5325 103.952C62.4841 104.339 62.2913 105.742 62.2913 105.742C62.2913 105.742 62.0962 105.984 61.3228 106.419C60.5494 106.854 59.0026 106.709 57.5518 106.272C56.101 105.838 53.2978 103.276 51.9921 102.068C50.6873 100.858 47.7365 97.8128 47.2542 97.57C47.2002 97.5426 47.0881 97.4934 46.9373 97.4313C46.9462 97.4305 46.9534 97.4289 46.9623 97.4273C45.218 96.0781 42.3059 93.316 39.0938 93.4483ZM46.4236 97.7942C46.776 97.7717 47.1155 97.8507 47.3438 98.0902C49.5615 100.196 51.7147 102.376 54.022 104.463C51.6454 104.575 52.4962 107.258 53.3607 108.421C53.9607 109.37 55.1454 109.02 55.8776 108.991C56.3405 109.812 54.6599 110.369 53.5841 110.711C51.8051 109.917 49.2688 109.401 47.9688 108.265C44.8099 105.652 43.451 101.63 44.9986 98.4773C45.2115 98.1483 45.8365 97.8305 46.4236 97.7942ZM63.1817 103.441C63.4857 103.42 63.4833 103.75 63.4163 103.861C63.2615 104.235 63.3002 104.622 63.2333 105.039C62.722 104.611 62.7454 103.929 63.0317 103.472C63.0881 103.453 63.1381 103.443 63.1817 103.441ZM54.5688 105.383C54.8107 105.422 54.8502 105.735 54.8002 105.859C54.6865 106.34 54.8115 106.802 54.8147 107.318C54.1067 106.885 54.001 106.053 54.2551 105.454C54.3849 105.389 54.4881 105.37 54.5688 105.383ZM61.9212 106.504C67.0317 109.145 72.7018 113.321 71.6744 117.952C62.4155 114.574 54.4422 116.687 47.6607 113.755C47.3849 113.597 47.3728 113.264 47.2067 113.023C48.4292 112.682 49.826 112.793 51.1631 112.58C51.6559 112.265 50.8462 112.339 50.6575 112.256C47.9163 112.239 45.0309 112.131 42.2655 112.881C42.0615 113.073 42.2091 113.378 42.426 113.517C43.7268 113.737 44.418 113.018 45.7736 113.044C46.9655 115.862 49.7688 117.014 52.7559 118.658C55.2776 119.757 59.0881 121.108 62.2083 121.289C61.5155 122.01 59.9994 121.652 58.9236 121.69C53.4446 120.739 47.8196 119.089 42.7615 117.168C41.8107 116.844 41.0978 116.198 40.2131 116.013C39.9236 116.134 40.226 116.346 40.0131 116.419C35.4736 114.85 31.0905 112.104 31.3091 109.711C31.2809 108.954 31.972 108.38 32.6422 108.12C37.7075 106.686 41.6986 107.935 46.6002 109.124C49.122 110.356 54.6905 111.889 57.5083 113.081C58.1051 112.469 53.3575 111.596 54.9575 111.206C58.1051 110.463 57.5405 108.223 57.6704 106.856C58.8607 107.16 60.3252 107.41 61.4454 106.753C61.5986 106.66 61.6688 106.494 61.9212 106.504ZM60.6913 108.28C60.0905 108.264 59.0599 108.833 59.1913 109.1C60.2639 109.367 62.176 109.377 63.2462 109.738C62.7849 109.101 61.9607 108.629 60.918 108.323C60.8542 108.295 60.7768 108.281 60.6913 108.28ZM49.8107 115.416C51.3317 115.714 53.3301 116.309 55.793 116.478C56.8067 117.337 57.6034 118.364 58.0438 119.372C54.8809 118.281 52.0381 117.034 49.8107 115.416Z" fill="#00539F"/>
<path d="M43.5615 76.1016C43.5349 76.112 43.5107 76.1241 43.4857 76.1362C43.5003 76.1282 43.5148 76.1258 43.5285 76.1193C43.5406 76.1145 43.5503 76.1064 43.5615 76.1016ZM46.4244 97.7943C45.8374 97.8306 45.2115 98.1483 44.9994 98.4774C43.4519 101.63 44.8107 105.652 47.9712 108.265C49.2712 109.401 51.8059 109.917 53.5849 110.711C54.6599 110.369 56.3414 109.812 55.8785 108.989C55.1462 109.019 53.9615 109.37 53.3615 108.421C52.497 107.258 51.6462 104.575 54.0228 104.463C51.7156 102.376 49.5623 100.196 47.3446 98.0903C47.1164 97.8508 46.7777 97.7717 46.4244 97.7943ZM63.1825 103.441C63.139 103.444 63.0873 103.453 63.0309 103.473C62.7454 103.929 62.722 104.611 63.2341 105.039C63.3011 104.622 63.2624 104.235 63.4188 103.861C63.4849 103.75 63.4865 103.42 63.1825 103.441ZM54.5696 105.385C54.489 105.372 54.3849 105.387 54.2543 105.452C54.0003 106.052 54.1075 106.885 54.8156 107.32C54.8124 106.802 54.6882 106.339 54.8011 105.859C54.8519 105.735 54.8124 105.423 54.5696 105.385ZM77.7648 105.78L78.9865 108.163L75.7559 120.223H81.714L84.1817 118.437L85.3269 114.16L84.3511 113.002L85.9317 111.883L87.093 107.568L85.5849 105.78H77.7648ZM88.0607 105.78L89.2624 107.446L86.0285 120.223H93.1091L94.2301 116.018H91.6656L91.1575 117.911H89.6091L92.8591 105.78H88.0607ZM96.722 105.78L97.9398 108.163L95.1898 118.437L96.6736 120.223H100.682L103.133 118.437L106.545 105.78H103.561L100.432 117.462L99.8027 117.911H98.7946L98.4075 117.462L101.537 105.78H96.722ZM108.762 105.78L108.133 108.163L104.899 120.222H112.085L113.214 116.018H110.633L110.125 117.911H108.48L109.48 114.177H112.787L113.456 111.666H110.158L111.093 108.163H112.682L112.182 110.025H114.787L115.916 105.78H108.762ZM121.198 105.78L122.408 108.144L119.166 120.223H122.133L123.746 114.177H125.666L124.045 120.223H127.004L130.875 105.78H127.916L126.343 111.647H124.424L125.996 105.78H121.198ZM133.367 105.78L132.746 108.163L129.512 120.222H136.698L137.819 116.018H135.238L134.73 117.913H133.093L134.093 114.175H137.391L138.069 111.668H134.762L135.706 108.163H137.287L136.795 110.025H139.391L140.528 105.78H133.367ZM142.674 105.78L142.141 108.144L138.899 120.223H141.593L143.561 112.876L144.537 120.223H146.956L150.827 105.78H148.117L146.182 113.003L145.174 105.78H142.674ZM154.48 105.78L152.222 108.146L151.02 112.641L152.335 114.194H155.246L155.488 114.484L154.69 117.462L154.069 117.911H152.996L152.617 117.462L153.004 116.018H150.037L149.391 118.437L150.899 120.223H154.924L157.391 118.437L158.787 113.236L157.488 111.666H154.561L154.319 111.357L155.045 108.652L155.682 108.163H156.658L157.045 108.614L156.666 110.025H159.625L160.287 107.566L158.778 105.78H154.48ZM21.8672 107.13C21.8672 107.135 21.8736 107.154 21.8801 107.171C21.8833 107.169 21.8882 107.168 21.8906 107.164C21.8736 107.131 21.8672 107.124 21.8672 107.13ZM81.9462 108.163H83.4623L83.8494 108.614L83.1478 111.215L82.3494 111.648H81.0107L81.9462 108.163ZM80.3333 114.175H81.672L82.1882 114.826L81.4704 117.478L80.8494 117.913H79.3365L80.3333 114.175ZM62.9317 119.461C63.0406 119.567 63.1204 119.64 63.1599 119.666C63.1599 119.666 63.8938 120.192 64.2236 120.149C64.268 120.144 64.3156 120.133 64.3624 120.121C63.9398 120.118 63.4365 119.848 62.9317 119.461Z" fill="white"/>
</g>
<defs>
<clipPath id="clip0_154_2377">
<rect width="200" height="200" fill="white"/>
</clipPath>
</defs>
</svg>
