<svg width="200" height="200" viewBox="0 0 200 200" fill="none" xmlns="http://www.w3.org/2000/svg">
<g clip-path="url(#clip0_154_2368)">
<path d="M107.466 177.354C107.316 177.291 92.2667 170.986 73.1891 164.768C56.7502 159.408 30.2289 155.797 22.3313 154.801L17.6633 154.296L28.3518 140.192C27.6639 138.973 24.804 139.366 19.8803 141.317C13.2535 143.943 2.43899 145.412 0 144.474V144.35C0 144.35 14.2603 137.671 22.7086 127.22C27.2572 121.593 23.819 119.905 23.4746 119.687C23.2698 119.556 22.4948 119.395 22.0267 119.395C21.9696 119.395 21.9134 119.398 21.8579 119.401C21.4662 119.479 21.0776 119.55 20.6913 119.621L20.6815 119.622C11.0666 121.598 3.78414 120.536 2.87712 119.942L6.81581 118.16C12.0359 115.722 17.2912 113.038 21.7296 110.184L17.0242 104.504H29.4644C37.197 97.9655 39.1506 93.1003 39.1206 91.9127C39.0651 91.9059 39.0433 91.6853 38.6997 91.6546C36.3177 91.4415 27.0382 96.2115 23.8182 97.868L25.7275 94.8738C37.0094 80.5512 58.3924 65.8033 71.3638 59.2703C65.0814 59.3018 59.1111 62.3027 49.0146 69.3038L50.1399 67.1477C50.5773 66.1476 59.4495 51.6322 83.3225 48.1249C93.9847 46.56 98.7306 44.4998 102.197 42.9964C103.825 42.2889 105.245 41.6737 106.837 41.3204C108.354 40.3728 109.823 39.4606 110.983 38.7508C126.268 29.4008 149.922 22.3501 166.005 22.3501C171.865 22.3501 176.591 23.2466 180.051 25.0172L184.214 27.1456L179.59 27.8365C179.402 27.865 160.572 30.7339 145.693 37.7058C145.621 37.741 143.762 38.6848 143.665 38.7328C139.75 40.6872 135.854 42.7788 132.091 44.947L131.857 45.082C131.356 45.3716 130.858 45.6634 130.362 45.956L129.854 46.2546L128.497 47.0716C115.534 56.1088 103.252 67.4553 105.114 70.82C105.37 71.2829 106.391 71.6325 107.702 71.664C109.766 71.7136 111.969 70.8358 113.901 69.9535C116.076 68.961 118.171 67.6818 120.221 66.5227C118.288 65.9833 116.349 65.1776 114.81 63.9074L112.25 61.7708L115.685 61.2494C115.867 61.2261 116.61 61.1234 119.408 60.677C119.426 60.6717 119.727 60.629 119.727 60.629L123.844 59.8877C124.443 59.7302 126.845 59.088 129.938 58.1427C135.533 56.2326 139.826 54.4606 143.275 53.0374C148.005 51.0846 151.129 49.7949 153.797 49.7949C154.378 49.7949 154.923 49.8542 155.451 49.975C155.695 49.8767 156.073 49.7162 156.466 49.5473C157.304 49.1888 158.514 48.6703 160.211 47.9884C164.412 46.3019 168.484 45.4466 172.317 45.4466C172.692 45.4466 173.069 45.4601 173.445 45.4714C181.268 45.7047 184.363 48.8931 184.363 48.8931C184.363 48.8931 175.256 50.0793 171.097 51.8633L171.021 51.8963C167.795 53.282 165.01 54.4786 161.745 56.6753C160.347 57.616 159.221 58.4691 158.324 59.2133C158.506 59.1795 158.684 59.148 158.854 59.1172C159.939 58.9289 161.339 58.8434 163.016 58.8329C170.906 58.7856 175.243 60.8765 175.408 60.896C175.408 60.896 160.984 65.0793 158.57 66.0351L157.844 66.3202C155.021 67.4328 151.865 68.6736 148.032 70.6407L148.038 70.6482L146.426 71.514C143.612 72.9807 138.094 76.2269 136.466 77.2652C136.355 77.3313 129.88 81.1454 123.971 85.6198L123.987 85.6438C123.977 85.652 122.94 86.4675 121.579 87.7039L121.306 87.403L121.561 87.7219L121.014 87.0857L121.55 87.7294L121.32 87.9417C119.489 89.7505 117.566 93.825 118.243 95.1056C118.65 95.8776 120.09 96.3015 122.3 96.3015C131.343 96.3007 148.75 89.4204 150.928 88.5464C152.672 87.7114 154.388 86.8591 156.03 86.0121L157.872 85.0623L157.876 85.0878C160.702 83.5986 163.504 82.0442 166.227 80.4552C166.355 80.3794 168.223 79.3036 168.223 79.3036C182.186 70.6842 194.889 56.5065 195.015 56.3647L198.127 52.8724L197.628 57.523C196.334 69.5612 181.749 84.6745 168.433 94.8866C167.571 96.432 166.517 97.6159 165.201 99.0931C163.985 100.458 162.537 102.083 160.814 104.504H200L190.077 118.333L190.021 144.999L194.493 152.326L193.321 153.041L193.321 153.049L194.498 152.332L195.772 154.421L191.501 154.858C184.578 155.8 150.766 160.552 136.257 165.217C120 170.443 108.934 177.182 108.822 177.249L108.169 177.652L107.457 177.353" fill="white"/>
<path d="M166.003 23.6875C149.539 23.7877 126.497 31.0637 112.108 39.866C107.963 42.4036 99.8447 47.5363 99.7361 47.6089C99.637 47.6876 99.5374 47.768 99.4348 47.852C85.8701 59.1414 62.1185 83.8365 67.2278 93.41C70.3038 99.2035 81.9305 96.6564 91.7146 92.8554C97.0208 90.6738 99.3225 89.639 100.298 89.1745C99.0591 89.8539 95.9927 91.7031 89.8571 96.2957C86.1774 99.2275 82.7185 102.572 80.4366 105.84H20.5583L30.0112 117.25L30.01 140.818L20.4629 153.138L22.7658 153.139C29.6529 154.006 57.1556 157.687 73.9985 163.179C93.3645 169.491 108.393 175.81 108.393 175.81C108.393 175.81 119.507 168.977 136.153 163.627C151.664 158.641 186.89 153.85 191.797 153.195L193.711 153.196L193.562 152.952L193.607 152.946H193.557L188.865 145.257L188.924 117.687L197.422 105.843H148.261C168.547 96.133 194.828 72.5987 196.484 57.2046C196.484 57.2046 183.671 71.5886 169.331 80.4413C169.275 80.4743 167.531 81.4754 167.332 81.593C147.191 93.3458 120.604 104.546 115.901 96.2777C115.314 95.2459 115.079 93.5702 115.245 91.7199C120.691 84.8334 136.009 75.8427 136.009 75.8427C137.713 74.7569 143.223 71.516 146.081 70.0263C146.075 70.0203 146.072 70.0137 146.066 70.0089C151.062 67.3075 154.898 65.8515 158.368 64.4818C160.881 63.4873 170.977 60.6455 170.977 60.6455C170.977 60.6455 163.441 59.7464 159.463 60.4378C157.367 60.8063 154.206 61.5043 154.206 61.5043C154.206 61.5043 155.646 59.049 161.258 55.2733C164.666 52.9806 167.593 51.7292 170.855 50.3278C175.308 48.4168 180.234 48.0381 180.234 48.0381C180.234 48.0381 178.806 47.0412 173.728 46.8119C169.331 46.6168 165.009 47.6606 161.12 49.2222C157.363 50.7329 156.012 51.4333 155.808 51.3721C151.553 50.0961 145.913 54.2367 130.726 59.4199C127.127 60.5188 124.446 61.2156 124.446 61.2156C125.417 61.7066 128.084 62.3278 129.956 62.3866C130.049 62.5006 130.138 62.6165 130.23 62.7317C124.537 65.4817 106.045 78.3622 102.894 72.2224C98.5537 63.758 122.484 47.6425 143.349 37.23C143.556 37.128 145.349 36.2127 145.404 36.1881C160.667 29.0375 179.717 26.1945 179.717 26.1945C176.254 24.4239 171.498 23.6605 166.009 23.6941L166.003 23.6875Z" fill="#73000A"/>
<path d="M133.001 42.6953C117.342 50.3122 90.7268 67.361 95.2461 75.4334C98.7818 81.7341 115.931 70.647 115.931 70.647C115.931 70.647 102.988 77.2124 100.256 72.6912C97.2832 67.7745 112.642 54.2464 133.024 42.7151L133.001 42.6953ZM99.9912 47.4211C69.2601 67.5296 51.7402 90.1313 51.4521 105.841H79.004C87.2553 97.4433 102.678 88.0834 106.772 85.7391L106.75 85.7145C100.513 88.8931 67.7272 104.499 63.2102 96.1433C58.0073 86.5218 84.0984 58.1908 99.9912 47.4211ZM151.639 56.4365C149.294 57.8679 145.334 57.6428 144.764 57.5954C143.408 58.0918 142.133 58.5203 140.927 58.776C140.927 58.776 147.095 59.8095 150.073 58.2544L151.639 56.4365ZM120.178 61.9629C120.115 61.9737 120.058 61.9791 119.989 61.9936C116.23 62.5925 116.108 62.5847 116.108 62.5847C118.358 64.4411 122.18 65.3162 124.619 65.6673C125.609 65.1715 126.624 64.5767 127.723 64.0366C127.971 63.9207 127.951 63.9465 127.955 63.9219C127.876 63.9129 127.792 63.9057 127.708 63.8937C125.072 63.6386 121.913 63.1027 120.182 61.9689L120.179 61.9629H120.178ZM123.404 84.2981C123.404 84.2981 105.661 94.4598 108.998 100.87C113.277 109.071 142.114 96.1385 157.066 87.2096L157.06 87.1802C136.251 97.9156 116.521 103.361 114.033 98.1761C111.748 93.4149 123.404 84.2975 123.404 84.2975V84.2981ZM47.0762 153.004C47.0762 153.004 69.5098 155.51 82.5949 159.62C95.6783 163.731 108.199 169.476 108.199 169.476C108.199 169.476 117.771 163.905 129.745 159.62C141.718 155.336 164.702 153.039 164.702 153.039L47.0762 153.004V153.004Z" fill="black"/>
<path d="M108.502 42.4555C103.343 43.1715 100.887 47.0193 83.9447 49.4506C63.4545 52.3909 52.4201 65.9574 52.4201 65.9574C66.2987 54.9231 73.4781 58.9377 82.6177 55.6565C68.5326 61.5161 46.6446 73.1104 27.3818 95.0278C27.3818 95.0278 39.2522 88.0525 40.8336 90.9058C41.8167 92.6727 38.9251 98.7712 30.4145 105.846H46.2929C49.6833 87.9517 71.3925 60.9369 106.363 43.5551C104.125 44.7296 101.554 46.3951 98.807 48.3889C99.1167 48.1278 99.4474 47.8386 99.7469 47.5907C99.2655 47.9214 98.8016 48.2551 98.3238 48.5774C82.344 59.9784 57.4269 86.7393 62.5722 96.0283C65.731 101.736 80.4078 97.0744 91.9199 92.3324C82.1363 96.1334 70.2996 99.2015 67.2236 93.4073C62.2649 84.1177 84.435 60.6458 98.1552 48.9405C101.879 46.4599 105.407 44.2501 108.501 42.4531L108.502 42.4555ZM128.186 45.5291L124.869 47.5589C108.672 57.7506 97.7116 68.3282 100.144 72.7239C101.696 75.5225 108.055 74.3174 113.163 71.8548C111.174 72.8139 105.493 73.8294 104.14 71.3813C100.417 64.6538 128.186 45.5291 128.186 45.5291ZM124.437 61.2022L120.178 61.9686C121.965 63.133 125.275 63.6731 127.951 63.9216C129.225 63.2776 130.54 62.6072 131.868 61.9296C129.134 61.9446 125.681 61.8264 124.437 61.2022ZM120.96 86.3852C116.535 89.9299 112.449 95.4192 113.945 98.2508C116.288 102.692 131.142 99.3149 148.541 91.3433L152.054 89.6796C152.054 89.6796 120.843 102.439 117.255 95.6418C115.949 93.1697 119.21 87.7884 120.961 86.3846L120.96 86.3852ZM167.756 93.4433C163.609 97.1207 158.239 101.458 152.28 105.84H158.327C163.04 98.5269 166.004 97.0054 167.756 93.4433ZM93.1383 94.5825C88.2072 97.9585 82.8956 101.957 79.0382 105.84H80.6887C83.5744 101.957 88.4316 97.9483 93.1383 94.5825ZM123.23 108.554C112.441 108.554 100.975 115.794 100.975 129.21V129.863C100.975 143.28 112.441 150.52 123.23 150.52C134.019 150.52 145.487 143.28 145.487 129.863V129.21C145.487 115.794 134.019 108.554 123.23 108.554ZM29.7249 109.096L28.009 109.118L34.0702 116.467V142.607L28.009 149.958L29.7249 149.976H65.4975V136.532L65.4867 134.406L58.0577 141.694H47.1217C46.8889 141.694 46.7766 141.648 46.761 141.638C46.7454 141.617 46.6998 141.504 46.6998 141.271V133.299H51.964L58.2353 137.908L58.2551 136.397V121.95L58.2503 120.478L51.9676 125.015H46.6998V117.381H58.1753L64.6272 124.416V121.998V109.097H29.7243L29.7249 109.096ZM143.131 109.096L141.383 109.118L147.476 116.467V142.607L141.384 149.943L143.131 149.976H160.65L162.453 150.004L156.303 142.607V122.55L177.318 149.976H185.205V116.467L191.335 109.119L189.551 109.097H172.251L170.579 109.119L176.596 116.467V128.26L161.938 109.096H143.131ZM65.4705 109.142L71.5875 116.513V142.652L65.5407 150.028L67.2428 150.023H101.04V136.578L101.026 134.5L93.5992 141.739H84.2178V116.514L90.3438 109.142L88.5643 109.143H67.2422L65.4699 109.142L65.4705 109.142ZM24.2938 110.343C19.8291 113.338 14.368 116.38 7.78465 119.238C7.78465 119.238 13.7348 119.227 20.787 117.949L20.7846 117.952C20.7846 117.952 20.7924 117.95 20.7996 117.947C21.2161 117.844 21.1525 117.867 21.5672 117.786C24.5915 117.41 29.8449 120.405 23.9115 127.967C21.9741 130.436 21.2863 131.218 17.2855 134.469C10.9554 139.619 3 143.856 3 143.856C3 143.856 14.3458 142.293 21.2227 139.417C26.3567 137.27 28.8498 138.01 30.0376 139.323V117.225L24.2926 110.353L24.2938 110.343ZM123.23 116.837C128.402 116.837 131.878 121.768 131.878 129.105V129.972C131.878 137.308 128.402 142.239 123.23 142.239C118.059 142.239 114.586 137.308 114.586 129.972V129.105C114.586 121.768 118.059 116.837 123.23 116.837ZM70.0217 152.944C70.0217 152.944 84.0011 154.681 92.253 157.275C100.507 159.87 108.502 163.885 108.502 163.885C108.502 163.885 114.443 159.979 121.997 157.275C129.549 154.571 144.047 152.944 144.047 152.944H70.0235H70.0217Z" fill="#B59757"/>
<path d="M154.408 53.1836C154.408 53.1836 148.254 56.487 144.752 57.5919C144.752 57.5919 149.096 58.0121 151.621 56.4468L154.408 53.1836ZM123.227 109.979C112.683 109.979 102.397 116.986 102.397 129.21V129.863C102.397 142.086 112.683 149.094 123.227 149.094C133.823 149.094 144.059 142.086 144.059 129.863V129.21C144.059 116.986 133.823 109.979 123.227 109.979ZM31.1445 110.523V110.686L35.4898 115.955V143.118L31.1445 148.387V148.552H64.0663V137.957H63.903L58.6328 143.119H47.1166C45.921 143.119 45.2692 142.466 45.2692 141.272V131.874H52.4234L56.6618 134.973H56.8245V123.376H56.6618L52.4234 126.441H45.2692V115.956H58.7961L63.0352 120.573H63.1966V110.523L31.1445 110.523ZM144.551 110.523V110.686L148.897 115.955V143.118L144.551 148.387V148.552H159.22V148.387L154.873 143.118V118.346L178.016 148.552H183.775V115.956L188.12 110.687V110.523H173.671V110.687L178.016 115.956V132.471L161.229 110.523H144.55L144.551 110.523ZM68.6667 110.569V110.732L73.012 116.002V143.165L68.6667 148.434V148.599H99.6132V138.004H99.45L94.1786 143.166H82.7907V116.002L87.1373 110.733V110.569H68.6667ZM123.228 115.41C129.331 115.41 133.3 121.008 133.3 129.104V129.971C133.3 138.012 129.33 143.662 123.228 143.662C117.126 143.662 113.158 138.011 113.158 129.971V129.104C113.158 121.008 117.126 115.41 123.228 115.41Z" fill="white"/>
</g>
<defs>
<clipPath id="clip0_154_2368">
<rect width="200" height="200" fill="white"/>
</clipPath>
</defs>
</svg>
