<svg width="200" height="200" viewBox="0 0 200 200" fill="none" xmlns="http://www.w3.org/2000/svg">
<path d="M156.871 194.299C143.511 189.689 132.339 186.408 120.073 184.611C114.214 188.674 107.651 192.58 100.464 196.174L98.3544 197.268L96.245 196.174C89.0574 192.58 82.4949 188.674 76.6355 184.611C64.4478 186.408 53.354 189.689 40.0726 194.299L38.4319 194.846L42.182 179.142L39.2913 178.049L39.1351 178.127C33.7444 181.017 27.8068 183.596 22.338 186.252L20.9318 186.955V136.329L9.36914 118.126H26.9474C21.7911 100.626 22.5724 87.9696 22.6505 87.8134V84.2977H72.8854V80.4695C69.8385 79.7664 66.9479 78.282 64.6041 75.5476L67.8854 73.2038C67.8854 73.2038 64.7603 72.1882 62.5728 69.7663L62.0259 69.0632L22.4161 68.9851L22.8849 65.1569C22.8849 64.9225 24.2912 52.9693 33.1975 39.8441C42.182 26.5627 58.9009 12.1095 89.2918 7.18755L96.1669 6.64067C95.3856 7.50005 94.6825 8.75006 94.0575 9.92195C92.6512 12.5001 92.4169 13.4376 92.5731 15.1564C92.8075 17.8127 94.9169 19.5314 97.7294 19.5314C100.62 19.5314 102.729 17.6564 102.886 15.1564C103.042 13.3595 102.651 11.9532 101.558 9.92195C101.011 8.82819 100.308 7.57817 99.4482 6.64067L106.245 7.26567C139.136 12.6564 156.246 30.0784 164.605 44.0629L187.262 7.03129L189.84 2.73438C189.84 2.73438 191.715 16.0158 189.683 27.8128C185.23 53.2818 177.574 67.1882 168.511 84.2196H173.511L173.59 87.7352C173.59 87.8134 174.527 100.47 169.449 118.048H187.027L175.543 136.095V186.877L174.136 186.174C168.433 183.439 162.808 180.549 156.949 178.205L156.793 178.127L154.683 178.986L158.433 194.846L156.871 194.299ZM127.183 69.2976C129.214 70.3913 134.292 71.3288 134.292 71.3288C134.292 71.3288 131.089 73.8288 127.261 75.0007C123.12 76.2508 120.073 75.8601 119.448 76.0945V77.8914H123.511V84.3758H139.995L149.214 69.3757L127.183 69.2976Z" fill="white"/>
<path d="M142.415 87.8133L155.619 65.7818H119.212L117.103 67.5787C117.103 67.5787 120.54 71.1725 127.181 71.485C127.181 71.485 122.103 73.8288 114.915 72.4225V78.7507L105.384 84.2976H89.5242L82.4929 76.2507C82.4929 76.2507 75.3834 79.8445 69.8365 75.3132C69.8365 75.3132 72.024 74.3756 73.1959 71.5631C73.1959 71.5631 67.9615 71.0944 65.3833 67.735L68.899 65.7818H27.0236C27.0236 65.7818 32.1017 20.0782 90.0711 10.7031C88.9773 11.9531 88.3523 13.5157 88.3523 15.2344C88.3523 19.6095 92.5711 23.1251 97.7274 23.1251C102.884 23.1251 107.102 19.6095 107.102 15.2344C107.102 13.5938 106.477 12.0313 105.462 10.7813C142.337 16.8751 157.65 37.7346 163.978 51.8754L187.26 13.125C187.26 13.125 187.103 21.9532 186.4 26.9533C183.197 48.9066 174.291 65.7037 165.306 82.7351C164.369 84.532 163.431 86.2508 162.572 87.8914H169.134C169.134 87.8914 170.306 102.345 163.822 121.72H180.619L172.025 135.001V181.095L166.478 178.361C163.509 176.877 160.384 175.549 157.181 174.299L156.556 174.377L150.619 176.72L153.587 189.221L147.494 187.111C138.822 184.142 129.056 181.799 118.353 180.549C112.415 184.689 105.774 188.752 98.3524 192.424C90.9305 188.674 84.2898 184.689 78.3522 180.549C67.7271 181.877 58.0395 184.142 49.4457 187.111L43.3518 189.221L46.3206 176.799L39.7581 174.377L39.3674 174.299C36.0861 175.549 33.0392 176.955 29.9923 178.361L24.4454 181.095V135.158L15.7734 121.642H32.5705C25.9298 102.345 27.0236 87.8133 27.0236 87.8133H76.8678V81.1726H83.3522L87.4148 90.3914L77.4928 98.204H89.4461L84.2898 109.454L97.5711 101.954L111.556 109.454L106.399 98.204H118.509L108.587 90.3914L112.649 81.1726H119.134V87.8133H142.415Z" fill="#0060A9"/>
<path d="M83.3536 81.1719H86.7911L89.5255 84.2969H105.385L110.698 81.1719H112.729L108.588 90.3907L118.51 98.2033H106.557L111.713 109.453L97.7287 101.953L84.3692 109.453L89.5255 98.2033H77.5723L87.4942 90.3907L83.3536 81.1719Z" fill="white"/>
<path d="M97.6505 86.1719L90.1504 97.5001L97.6505 95.547L105.932 97.5001L97.6505 86.1719Z" fill="#0060A9"/>
<path d="M97.8067 106.797C101.244 106.797 104.213 109.141 104.213 112.266C104.213 115.391 101.244 117.734 97.8067 117.734C94.3692 117.734 91.4004 115.391 91.4004 112.266C91.4004 109.219 94.3692 106.797 97.8067 106.797Z" fill="white"/>
<path d="M126.715 101.095L134.996 105.001L184.528 22.4219C184.528 22.4219 184.528 23.4375 183.981 27.1094C180.387 48.594 172.184 64.6098 163.2 81.5631C155.387 96.3289 148.903 108.048 147.106 110.782L155.153 114.688L151.637 121.329L122.887 107.657L126.715 101.095Z" fill="white"/>
<path d="M73.9785 62.7346L78.1192 44.2188L98.7444 36.5625L109.291 39.9219L111.245 45.547L99.2131 42.0313L81.6348 47.7345L76.0879 61.3284L73.9785 62.7346Z" fill="white"/>
<path d="M76.3218 67.8907C76.4 66.25 77.4937 64.9219 78.5875 64.2969C78.3531 65.0781 77.5719 66.3281 78.1969 67.9688C78.8219 69.7657 80.3844 70.3126 81.9469 69.8438C83.6657 69.3751 84.525 67.5782 84.0563 65.8594C83.8219 64.9219 83.275 64.2969 82.5719 63.75C84.7594 64.2188 85.9313 65.5469 86.1657 67.6563C86.4782 70.3907 84.0563 72.5782 81.3219 72.7345C78.5094 72.8907 76.1656 70.6251 76.3218 67.8907Z" fill="white"/>
<path d="M139.291 107.11L172.729 50.5469C169.369 60.3907 163.823 70.6252 159.135 79.6097C151.401 94.2192 144.916 105.782 143.197 108.516L142.963 108.907L139.291 107.11Z" fill="#0060A9"/>
<path d="M84.3691 19.7657C84.3691 18.9844 84.4473 18.125 84.6035 17.3438C85.7754 23.2813 91.2442 27.7345 97.8068 27.7345C104.369 27.7345 109.838 23.2813 111.01 17.3438C111.166 18.125 111.244 18.9063 111.244 19.7657C111.244 26.797 105.229 32.5002 97.8068 32.5002C90.3848 32.5002 84.3691 26.797 84.3691 19.7657Z" fill="white"/>
<path d="M52.6524 65.7816C52.4962 62.8909 52.3399 47.1876 63.8244 34.7656C63.8244 34.7656 47.2617 45.7032 46.168 65.7816H52.6524Z" fill="white"/>
<path d="M143.276 65.7816C143.432 62.8909 143.588 47.1876 132.104 34.7656C132.104 34.7656 148.666 45.7032 149.76 65.7816H143.276Z" fill="white"/>
<path d="M64.3693 121.641C62.2599 117.188 60.2287 112.657 60.2287 112.657L56.2443 116.719C50.9317 109.141 46.5567 92.7344 45.3066 87.7344H65.0725C67.1037 94.3751 70.0725 102.344 73.2757 106.953L77.2601 102.891C77.2601 102.891 81.2445 112.11 86.1664 121.641H64.3693Z" fill="white"/>
<path d="M54.4473 87.8125L56.0098 104.531L47.8066 87.8125H54.4473Z" fill="#0060A9"/>
<path d="M62.8067 87.8125L64.213 103.516L56.4785 87.8125H62.8067Z" fill="#0060A9"/>
<path d="M115.465 121.641L125.777 112.188L144.059 121.016V121.641H115.465Z" fill="white"/>
<path d="M89.9199 48.2813L99.3732 45.3125L108.904 47.8907L89.2168 52.0313L92.7325 49.0625L89.9199 48.2813Z" fill="white"/>
<path d="M111.246 50.2344L112.027 52.9688L107.965 53.0469L109.293 58.1251C112.027 58.3595 113.121 56.3282 113.121 56.3282L114.684 62.0314L113.277 65.1564C113.277 65.1564 110.856 63.3595 108.668 62.8126L109.293 60.7814L106.246 60.1563L103.199 61.4064L105.465 52.5781L103.199 51.7969C105.621 51.3281 109.527 50.5469 111.246 50.2344Z" fill="white"/>
<path d="M104.839 65.4688C104.839 65.4688 101.089 70.0782 93.6666 69.6094C93.6666 69.6094 95.5416 71.7188 93.5104 73.5157C91.401 75.3126 95.776 76.4064 95.776 76.4064C95.776 76.4064 97.8073 72.9688 102.26 73.3595C106.714 73.672 105.932 76.8751 105.932 76.8751H108.198L110.698 71.1719C110.698 71.0938 106.089 69.5313 104.839 65.4688Z" fill="white"/>
<path d="M90.1524 54.375C90.1524 54.375 89.918 59.8438 95.1524 59.7657C100.778 59.6875 100.465 54.4531 100.465 54.4531L102.106 54.8438L99.0587 62.1094C99.0587 62.1094 94.6056 62.6563 91.6368 66.0157L89.2149 63.3595L90.7774 61.2501L87.3399 61.4063L86.168 59.6875L88.5118 57.7344L84.918 57.1875L86.6367 55.1563L90.1524 54.375Z" fill="white"/>
<path d="M177.029 123.594L170.076 134.531V178.126L167.263 176.797C164.06 175.235 160.779 173.829 157.341 172.5L155.935 172.657L148.201 175.704L150.779 186.407L148.044 185.469C134.06 180.626 117.497 177.657 98.5125 177.657H98.2C79.2155 177.657 62.6528 180.704 48.6683 185.469L45.9339 186.407L48.512 175.704L40.1526 172.579L39.0588 172.422C35.6213 173.751 32.2619 175.235 29.0587 176.719L26.2462 178.047V134.609L19.2148 123.516H177.029V123.594Z" fill="white"/>
<path d="M28.2774 175.001V134.141L22.8086 125.547H173.513L168.123 133.984V175.001C149.06 165.704 124.841 160.078 98.2 160.078C71.5591 160.078 47.3401 165.704 28.2774 175.001Z" fill="#0060A9"/>
<path d="M154.528 171.016L146.403 174.688L148.747 183.516C134.528 178.594 117.809 175.547 98.5904 175.547H98.4342H98.2779C79.1371 175.547 62.3401 178.594 48.1212 183.516L50.4649 174.688L41.8711 171.094C58.2775 165.156 77.4965 161.719 98.2779 161.719C118.903 161.719 138.122 165.156 154.528 171.016Z" fill="#0060A9"/>
<path fill-rule="evenodd" clip-rule="evenodd" d="M63.506 170.705C62.8028 167.736 59.9122 168.596 57.7246 169.064C56.5528 169.299 55.459 169.611 54.2871 169.924C54.209 169.924 53.8965 170.002 53.8965 170.158C53.9746 170.393 54.3652 170.08 54.4434 170.471L56.084 177.658C56.1621 178.049 55.6934 177.971 55.6934 178.205C55.7715 178.361 56.8653 178.049 57.0996 178.049C57.8809 177.893 58.7403 177.658 59.5215 177.424C59.5997 177.424 59.9122 177.346 59.9122 177.189C59.834 176.955 59.4434 177.268 59.3653 176.877L58.8965 174.924C60.6153 174.533 62.6466 174.377 63.3497 172.424C63.5841 171.877 63.5841 171.252 63.506 170.705ZM60.3809 171.408C60.5372 172.033 59.6778 172.268 59.209 172.424C58.9747 172.502 58.6622 172.502 58.4278 172.58L58.1153 171.33L58.8965 171.174C59.3653 171.018 60.1465 170.705 60.3809 171.408Z" fill="white"/>
<path d="M67.5703 167.343C67.5703 167.577 68.0391 167.343 68.1172 167.733L69.2891 174.999C69.3672 175.39 68.8203 175.312 68.8984 175.546C68.8984 175.702 70.0703 175.468 70.3047 175.468C71.1641 175.312 71.9454 175.155 72.8047 175.077C72.8829 175.077 73.1954 175.077 73.1954 174.921C73.1954 174.687 72.7266 174.921 72.6485 174.53L71.4766 167.265C71.3985 166.874 71.9454 166.952 71.8672 166.718C71.8672 166.562 70.6953 166.796 70.461 166.796C69.6016 166.952 68.8203 167.108 67.9609 167.187C67.8828 167.187 67.5703 167.187 67.5703 167.343Z" fill="white"/>
<path fill-rule="evenodd" clip-rule="evenodd" d="M88.2696 173.203C88.2696 173.124 87.7228 172.968 87.6446 172.812L85.6915 170.39C86.7853 169.843 87.4884 168.906 87.3321 167.656C87.3321 167.265 87.1759 166.796 86.9415 166.484C85.9259 165.156 84.9884 165.156 83.4258 165.312L77.8789 165.781C77.8008 165.781 77.6445 165.781 77.6445 165.937C77.6445 166.171 78.1133 165.937 78.1914 166.327L78.8164 173.671C78.8164 174.062 78.3477 173.906 78.3477 174.14C78.3477 174.296 79.5196 174.218 79.7539 174.14C80.6133 174.062 81.3946 173.984 82.254 173.906C82.3321 173.906 82.6446 173.906 82.6446 173.749C82.6446 173.515 82.1758 173.749 82.0977 173.359L81.9414 171.484L82.8008 171.406C82.9571 171.64 84.129 173.124 84.129 173.281C84.129 173.515 83.7383 173.437 83.7383 173.593C83.7383 173.749 84.9884 173.593 85.1446 173.593C86.004 173.515 86.9415 173.359 87.8009 173.359C87.9571 173.359 88.2696 173.359 88.2696 173.203ZM81.7852 169.374L81.629 167.734L82.3321 167.656C82.879 167.577 83.8165 167.577 83.8946 168.281C83.9727 169.062 83.1133 169.218 82.4883 169.296C82.254 169.374 82.0196 169.374 81.7852 169.374Z" fill="white"/>
<path fill-rule="evenodd" clip-rule="evenodd" d="M98.504 169.531H96.8633L97.6446 166.875L98.504 169.531ZM100.301 164.766C100.301 164.688 100.145 164.688 100.145 164.688H95.5352C95.4571 164.688 95.1446 164.688 95.1446 164.766C95.1446 165 95.4571 164.922 95.4571 165.078C95.4571 165.469 92.8789 171.484 92.4883 172.5C92.4102 172.656 92.4102 172.813 92.2539 172.891C92.1758 172.891 91.9414 172.891 91.9414 173.047C91.9414 173.203 93.1914 173.203 93.4258 173.203C94.2852 173.203 95.1446 173.125 96.0039 173.203C96.0821 173.203 96.3164 173.203 96.3164 173.047C96.3164 172.891 95.9258 172.891 95.9258 172.656C95.9258 172.5 96.0821 172.109 96.1602 171.875H99.2071C99.2852 172.031 99.4415 172.5 99.4415 172.578C99.4415 172.891 99.0509 172.813 99.0509 172.969C99.0509 173.203 100.223 173.125 100.457 173.125H103.035C103.113 173.125 103.348 173.125 103.348 172.969C103.348 172.813 102.957 172.813 102.879 172.656C102.645 172.266 99.9102 165.078 99.9102 165C99.9884 164.922 100.301 165 100.301 164.766Z" fill="white"/>
<path d="M115.379 165C115.145 165 115.301 165.391 114.91 165.391L107.176 164.844C106.785 164.844 107.02 164.453 106.785 164.375C106.629 164.375 106.707 164.609 106.629 164.687C106.551 165.391 106.473 166.094 106.473 166.797C106.473 166.953 106.317 167.891 106.551 167.969C106.785 167.969 106.629 167.578 107.02 167.578L109.207 167.734L108.817 172.891C108.817 173.281 108.348 173.047 108.348 173.281C108.348 173.438 109.52 173.516 109.754 173.516C110.614 173.594 111.473 173.594 112.254 173.672C112.332 173.672 112.645 173.75 112.645 173.594C112.645 173.359 112.176 173.516 112.176 173.125L112.567 167.969C113.035 167.969 113.504 168.047 113.973 168.047C114.207 168.047 114.52 168.047 114.754 168.125C115.067 168.203 114.91 168.516 115.145 168.594C115.301 168.594 115.301 168.359 115.301 168.281C115.379 167.578 115.379 166.875 115.457 166.172C115.457 166.016 115.535 165.078 115.379 165Z" fill="white"/>
<path d="M123.191 172.656L123.348 171.641C123.973 171.719 124.676 171.797 125.301 171.875C125.613 171.953 126.004 171.953 126.316 172.031C126.785 172.109 126.473 172.5 126.707 172.578C126.863 172.578 126.863 172.188 126.863 172.109L127.098 170.547C127.098 170.391 127.254 169.609 127.098 169.609C126.863 169.609 127.02 170.078 126.551 170L123.66 169.609L123.816 168.594C124.598 168.672 125.301 168.75 126.082 168.906C126.473 168.984 126.863 168.984 127.254 169.063C127.723 169.219 127.488 169.531 127.723 169.609C127.879 169.609 127.879 169.219 127.879 169.141L128.113 167.5C128.113 167.344 128.348 166.484 128.113 166.484C127.879 166.484 128.035 166.953 127.567 166.875L120.77 165.938C120.691 165.938 120.379 165.859 120.379 166.016C120.379 166.25 120.848 166.094 120.77 166.563L119.754 173.828C119.676 174.219 119.207 173.984 119.207 174.219C119.207 174.297 119.285 174.375 119.363 174.375C119.832 174.453 120.379 174.531 120.848 174.609C122.176 174.766 123.582 174.922 124.91 175.078C125.379 175.156 125.926 175.234 126.395 175.313C126.863 175.391 126.551 175.859 126.863 175.859C127.02 175.859 127.02 175.469 127.02 175.391L127.254 173.75C127.254 173.594 127.488 172.813 127.254 172.734C127.02 172.734 127.176 173.203 126.707 173.125L123.191 172.656Z" fill="white"/>
<path d="M139.91 173.05C140.223 172.894 142.098 171.253 142.098 171.019L142.02 170.94C141.942 170.94 141.863 171.019 141.785 171.019C141.629 171.019 140.535 170.159 140.301 170.003C139.598 169.534 138.816 169.222 137.957 168.987C136.16 168.519 133.504 168.675 132.957 170.784C132.41 172.972 134.52 173.675 136.082 174.3C136.316 174.378 137.02 174.612 136.941 175.003C136.863 175.315 136.473 175.315 136.16 175.237C135.613 175.081 133.27 174.144 133.426 173.519C133.426 173.44 133.504 173.362 133.504 173.284L133.426 173.206C133.27 173.206 131.473 174.925 131.16 175.237C131.082 175.315 131.082 175.315 131.004 175.394L131.082 175.472C131.238 175.472 131.316 175.394 131.395 175.394H131.473C132.176 176.019 132.723 176.565 133.66 176.956C134.363 177.269 135.145 177.581 135.926 177.737C137.879 178.206 140.066 177.972 140.613 175.628C141.082 173.753 138.895 172.815 137.488 172.269C137.254 172.19 136.473 171.878 136.473 171.565C136.551 171.253 136.941 171.253 137.176 171.331C137.879 171.487 139.051 172.112 139.598 172.581V172.659C139.832 172.894 139.754 172.972 139.91 173.05Z" fill="white"/>
<path fill-rule="evenodd" clip-rule="evenodd" d="M142.49 177.109L142.959 177.266V179.063L143.506 179.219V177.422L143.975 177.578V177.188L142.49 176.719V177.109Z" fill="white"/>
<path d="M144.133 179.375L144.523 179.531V177.813V177.891L144.914 179.609L145.227 179.688L145.617 178.203V179.844L146.164 180V177.813L145.383 177.578L145.148 178.75L144.914 177.422L144.133 177.188V179.375Z" fill="white"/>
<path d="M48.0353 164.297C46.4728 164.766 43.0353 165.938 41.5509 166.407V148.438H38.1134V167.657C35.9258 168.438 33.0352 169.688 31.6289 170.235V132.578L29.2852 128.906H38.1134V143.047H41.5509V128.906H48.0353V164.297Z" fill="white"/>
<path fill-rule="evenodd" clip-rule="evenodd" d="M139.209 133.047C138.975 132.422 138.428 132.109 137.803 132.109C137.256 132.109 136.709 132.344 136.397 132.813C136.24 133.125 136.084 133.516 136.084 133.984C136.006 134.453 136.006 135.078 136.006 135.859V154.141C136.006 155.782 136.084 156.953 136.24 157.5C136.475 158.125 137.022 158.516 137.725 158.516C138.428 158.594 139.053 158.203 139.287 157.5C139.443 156.953 139.522 155.782 139.522 154.063V135.859C139.443 134.531 139.365 133.516 139.209 133.047ZM145.772 156.875C145.615 157.969 145.225 158.985 144.6 159.844C143.975 160.703 143.037 161.407 141.865 161.797C140.693 162.266 139.365 162.422 137.725 162.344C136.24 162.266 134.912 161.953 133.662 161.407C132.49 160.86 131.553 160.078 130.85 159.063C130.146 158.047 129.756 157.032 129.6 155.86C129.443 154.688 129.365 152.578 129.365 149.61V140.469C129.365 137.578 129.443 135.469 129.6 134.297C129.756 133.125 130.146 132.109 130.772 131.172C131.475 130.234 132.334 129.531 133.506 128.984C134.678 128.516 136.006 128.203 137.647 128.203C139.131 128.203 140.459 128.437 141.631 128.906C142.803 129.375 143.74 130.078 144.444 131.016C145.147 131.953 145.537 132.969 145.694 134.063C145.85 135.234 145.928 137.344 145.928 140.313V150.469C145.928 153.594 145.85 155.625 145.772 156.875Z" fill="white"/>
<path d="M58.9727 134.375C58.9727 134.375 57.0196 144.531 56.7852 147.188L56.7071 147.813H60.5353L60.4571 147.188C60.1446 143.75 58.9727 134.375 58.9727 134.375ZM67.801 159.61C66.0822 159.844 62.8009 160.547 61.3947 160.782L60.7696 151.797H56.9415L56.3165 161.953C54.5196 162.344 51.3164 163.203 49.7539 163.594L53.1914 131.875L51.1602 128.75H63.5822L67.801 159.61Z" fill="white"/>
<path d="M92.176 157.266L86.6291 157.5V137.891L82.9572 157.813L79.129 158.125L73.3477 139.844L75.3009 158.594L69.7539 159.375V132.031L67.7227 128.906H78.5821C78.8165 130.547 79.129 132.5 79.4415 134.688L81.0822 146.328L82.8791 132.266L80.7697 128.906H92.2542V157.266H92.176Z" fill="white"/>
<path d="M101.783 142.969H102.955C103.736 142.969 104.44 142.813 104.83 142.266C105.221 141.719 105.377 140.86 105.377 139.766V135.703C105.377 134.688 105.221 133.828 104.752 133.359C104.283 132.891 103.424 132.734 102.408 132.734H101.861V142.969H101.783ZM102.408 128.906C104.44 128.906 106.002 129.063 107.018 129.375C108.111 129.688 108.815 130.078 109.283 130.625C109.752 131.172 110.143 131.797 110.299 132.578C110.455 133.359 110.612 136.328 110.612 138.203V140.781C110.612 142.656 110.455 143.906 110.065 144.61C109.752 145.313 109.127 145.86 108.19 146.328C107.252 146.719 106.002 146.953 104.361 146.953H101.783V153.36L104.674 157.344L98.2676 157.266H95.2988V132.031L93.3457 128.906H102.408Z" fill="white"/>
<path d="M112.334 136.797V128.984V128.906H127.881V136.328L123.35 134.453V155.782L125.693 159.219L114.521 158.047L116.865 155.235V134.453L112.334 136.797Z" fill="white"/>
<path d="M146.709 163.828L148.818 160.625V132.109L146.943 128.906H154.209L159.522 150.703V128.906H166.865L164.756 131.953V170.235L159.131 167.969L154.053 153.281V166.094L146.709 163.828Z" fill="white"/>
</svg>
