<svg width="200" height="200" viewBox="0 0 200 200" fill="none" xmlns="http://www.w3.org/2000/svg">
<g clip-path="url(#clip0_154_2373)">
<path d="M97.2811 34.3242L97.2455 39.2154H97.9983C99.6828 39.2154 100.563 39.5881 101.133 40.5461C101.414 41.0235 101.392 41.4161 101.356 42.0673C101.342 42.3018 101.329 42.5499 101.33 42.7896C101.235 45.3818 101.162 47.6233 101.092 49.7339C100.938 54.4157 100.805 58.461 100.53 64.2243C100.496 64.9781 100.239 65.5717 99.7812 66.0198C99.9508 66.3538 100.908 67.5735 101.804 68.6884H101.223C99.0975 68.6884 98.3469 66.8783 97.3628 63.8935L97.256 63.5721C96.6844 61.8436 96.2195 60.4313 95.7715 59.0662C95.159 57.1995 94.5738 55.4218 93.7844 53.0547C93.15 51.1472 92.2234 48.1185 91.3262 45.1881C89.9097 40.5586 88.5707 36.1867 87.9803 34.8027L87.7855 34.3462H76.8975L75.971 36.6693C73.5924 42.6441 72.022 46.59 69.2497 52.995C68.3703 55.0365 67.7171 56.6823 67.0847 58.2747C66.4566 59.8555 65.8064 61.4919 64.9375 63.5114L64.8621 63.6873C64.1418 65.3592 63.5461 66.6385 62.7787 67.4907C62.7567 68.1357 62.6322 73.3074 62.6698 73.6802L77.7644 73.7084L77.7173 72.9149C77.6691 72.092 77.6869 71.5026 77.7068 70.821C77.7194 70.4179 77.7319 69.9939 77.7319 69.4883V68.8465L77.0975 68.7481C76.6944 68.6863 76.3228 68.6696 75.9668 68.6539C75.3387 68.6246 74.8435 68.6026 74.2865 68.3021C73.6144 67.943 73.315 67.4175 73.315 66.5967C73.315 65.6974 73.5756 65.0954 73.9054 64.3353C74.074 63.9469 74.2645 63.5072 74.4331 62.99L74.7178 62.1022C74.9942 61.2312 75.2057 60.5685 75.5742 59.7184H86.301C87.0359 62.3682 87.416 63.7825 88.1373 67.0217C88.2043 67.3211 88.1352 67.4771 88.0661 67.5818C87.6191 68.2592 85.8529 68.589 84.6835 68.8067L84.4186 68.858L84.4877 69.6024L84.3464 69.6045L83.8083 69.617V69.6212C83.8114 69.7469 83.8135 71.1278 83.8146 72.0648C83.8166 73.1713 83.8187 73.676 84.5652 73.676H101.976L101.969 72.9211C101.963 72.0333 101.965 71.4219 101.967 70.7247L101.969 68.8968C102.762 69.8798 103.464 70.7289 103.464 70.7289C103.463 71.0838 103.462 71.4157 103.462 71.7737H113.472V66.8029L112.278 66.805C111.158 66.8207 110.593 66.8207 109.87 66.1936C109.232 65.6366 109.211 64.9802 109.221 63.771V63.3868C109.315 60.8501 109.389 58.6505 109.452 56.5818C109.609 51.901 109.745 47.8588 110.027 42.0987C110.101 40.2205 111.985 39.4238 113.702 39.4646L114.466 39.4866L114.487 34.3263L97.2832 34.3242H97.2811ZM116.466 34.3567L116.456 39.4112H117.209C119.115 39.4112 120.664 41.0214 120.664 42.9812L120.549 47.2715C120.455 50.5055 120.381 53.2233 120.245 57.1461L120.235 57.2686C120.13 60.4073 120.057 62.3011 119.827 65.5131C119.785 66.1266 119.638 67.9954 116.079 68.4979L115.43 68.5879V73.6351H131.416L131.594 73.5325C132.034 73.276 132.034 73.276 131.992 69.4778L131.981 68.7931L131.144 68.7251C130.38 68.6685 129.437 68.5984 128.725 68.0215C127.595 67.1128 127.605 66.7694 127.616 65.7487L128.453 44.1998H128.663L142.869 73.6393H152.124L152.156 72.919C152.334 68.099 152.449 64.4097 152.553 60.9349C152.71 55.9254 152.857 51.1943 153.182 44.1182C153.255 42.3667 154.532 40.4822 157.139 40.4822H157.149L157.746 40.4843L157.882 39.898C157.893 39.8562 158.123 35.0539 157.652 34.5933L157.432 34.3808H141.414L141.467 35.1743C141.519 36.0202 141.498 36.6222 141.487 37.3195C141.477 37.7047 141.467 38.112 141.467 38.5936V39.2374L142.105 39.3337C142.283 39.362 142.461 39.385 142.639 39.4091C143.602 39.5368 144.304 39.629 144.942 40.2697C145.539 40.8633 145.56 41.5082 145.56 42.6671C145.508 44.5118 145.476 46.0864 145.445 47.572C145.382 50.4992 145.34 53.0254 145.141 56.6184C145.141 56.6959 145.131 56.7703 145.12 56.8393L134.442 34.3567H116.466ZM3.9228 34.3713L3.90186 40.3011H4.6525C6.72018 40.3011 8.85904 41.5333 8.85904 43.5947V49.983C8.85904 56.5787 8.57532 60.9695 8.21623 66.5297C8.0885 68.5136 7.9524 70.6263 7.8184 73.0195C7.6823 75.5887 5.29845 76.8345 3.11248 77.1434L2.32415 77.18L2.4749 77.9537C2.49375 78.2573 2.49165 81.4012 2.46443 81.9153L2.20898 82.803H22.7978L23.248 82.7612L23.4437 82.3769C23.6353 82.0011 23.7651 78.0207 23.4155 77.4847L23.1663 77.113L22.847 77.1319C22.402 77.023 21.999 76.9644 21.6409 76.9131C20.9489 76.8136 20.4035 76.7372 19.79 76.3425C18.4269 75.4673 18.1777 74.1565 18.1767 71.9171L19.1911 46.5292C19.2571 46.5272 19.322 46.5251 19.3869 46.5209C19.4968 46.5156 19.6015 46.5104 19.7062 46.5073L28.5768 82.803H39.224L50.9464 47.0527C51.072 47.0642 51.1987 47.0736 51.3327 47.0789C51.2291 49.8784 51.1432 52.3564 51.0605 54.6984C50.8532 60.6617 50.6742 65.8125 50.3203 73.1546C50.1937 75.7405 47.4539 77.135 44.9412 77.135H44.1927V77.8836C44.1927 78.4751 44.1759 78.9692 44.1613 79.4403C44.1362 80.2611 44.1121 81.0348 44.1759 82.0995L44.2189 82.803H66.8387L66.7916 82.0116C66.7319 80.9835 66.7549 80.2506 66.7811 79.4026H66.779C66.7937 78.9043 66.8094 78.3787 66.8094 77.7527V77.0963L66.1592 77.0125C65.7583 76.9602 65.3814 76.9309 65.0223 76.9047C63.9921 76.8293 63.2488 76.7759 62.5055 76.1415C61.3319 75.1385 61.3329 73.9199 61.334 72.0763V71.9789C61.4544 68.6361 61.5496 65.7424 61.6407 63.0204C61.8417 56.9241 62.0155 51.6581 62.3767 44.1496C62.5086 41.1952 66.0723 40.3786 67.5988 40.164L68.2447 40.0718V34.3713H44.9182L34.985 64.9153L27.5361 34.3713H3.9228ZM198.461 34.3713L159.735 34.3808L159.714 40.2268L160.876 40.3702C162.52 40.5649 163.473 40.7272 164.091 41.7773C164.635 42.6944 164.635 43.4356 164.635 44.6343C164.52 47.8191 164.426 50.5913 164.331 53.1992C164.132 59.2515 163.954 64.4798 163.598 71.915L163.578 72.4657C163.525 73.8717 163.494 74.8873 162.562 75.6944C161.515 76.6 160.594 76.8544 158.94 77.0848L158.416 77.158L158.312 77.6794C158.301 77.7035 158.259 82.0042 158.301 82.1916L158.437 82.7716H197.414L198.084 64.5332L191.824 64.5353L191.771 65.2283C191.614 67.4018 190.609 73.3943 187.856 75.0642C186.243 76.0734 183.794 76.2849 182.035 76.2849H177.512C176.402 76.2849 175.397 75.8085 174.466 74.8265C174.12 74.4727 174.141 74.1094 174.277 73.2321C174.34 72.8499 174.413 72.4155 174.413 71.9726L174.78 60.0293L176.737 60.0251H176.748C177.543 60.0251 178.161 60.2607 178.653 60.7465C179.637 61.7358 180.119 63.7731 180.119 66.9788V67.7294H186.118L187.091 45.7315H181.543V46.48C181.543 49.1235 181.051 53.5572 177.763 53.5656L175.083 53.574C175.115 52.5773 175.146 51.6843 175.167 50.8332C175.23 48.7184 175.282 46.8915 175.439 44.315C175.565 42.3332 177.24 40.8382 179.355 40.8382H183.595C186.735 40.8382 188.473 40.8465 190.452 42.3154C192.064 43.5131 192.399 46.9334 192.169 49.7339L192.159 50.6227H198.032L198.461 34.3713ZM82.0023 42.5855L84.7746 53.7352H77.3812L82.0023 42.5855Z" fill="white"/>
<path d="M95.6144 32.7344L95.6364 40.7234H97.8737C99.3635 40.7234 99.5551 41.0449 99.7205 41.3223C99.7582 41.3872 99.7686 41.4521 99.7383 41.9976C99.7226 42.2582 99.7089 42.5325 99.71 42.7482C99.6168 45.333 99.5446 47.5703 99.4744 49.6757C99.3237 54.2675 99.1897 58.2552 98.9248 63.8416C98.8766 63.7003 98.8337 63.5757 98.7835 63.4228L98.6777 63.1014C98.1061 61.3751 97.6413 59.9638 97.1932 58.5986C96.5787 56.7309 95.9955 54.9522 95.2051 52.583C94.5769 50.6922 93.6504 47.6719 92.7553 44.7499C91.3262 40.0817 89.9768 35.672 89.3559 34.2147L88.7738 32.8485H75.8831L74.5807 36.117C72.2073 42.0782 70.6401 46.0156 67.8762 52.4019C66.9884 54.4633 66.3309 56.1185 65.6944 57.7202C65.0694 59.2927 64.4235 60.9175 63.5639 62.9161L63.4875 63.092C63.2645 63.6092 63.0666 64.0437 62.8782 64.4457C62.8939 63.9903 62.9107 63.5317 62.9253 63.0868C63.1274 56.9905 63.3012 51.7256 63.6613 44.2149C63.744 42.3828 66.4409 41.8049 67.5977 41.6437L69.5303 41.3715V32.8736H43.6232L34.9819 59.4435L28.4993 32.8736H2.22262L2.18912 41.7944H4.44314C5.74656 41.7944 7.15467 42.4844 7.15467 43.5941V49.9824C7.15467 56.532 6.86991 60.9039 6.51186 66.438C6.38414 68.424 6.24908 70.5388 6.11403 72.9404C6.00096 75.0856 3.24546 75.5818 2.69478 75.6593L0.345485 75.9911L0.774723 78.1478C0.786239 78.7676 0.783098 80.9661 0.766348 81.6728L0 84.2985H22.5518L23.9808 84.2105L24.5692 83.0558C24.9492 82.3114 25.167 77.75 24.4593 76.6654L23.7379 75.5671L22.7664 75.6226C22.3413 75.5305 21.9624 75.4761 21.6441 75.431C20.9929 75.3379 20.7176 75.2908 20.3899 75.0814C19.7512 74.6699 19.4665 74.1119 19.4644 71.9752L20.126 55.3846L27.1928 84.2985H40.0982L42.4852 77.0171V77.8819C42.4852 78.4556 42.4705 78.9372 42.4559 79.3936C42.4297 80.249 42.4046 81.0562 42.4726 82.1889L42.5993 84.2985H68.2144L68.0751 81.923C68.0196 80.9598 68.0416 80.2595 68.0647 79.446C68.0804 78.9341 68.0961 78.3938 68.0961 77.751V75.7818L66.1425 75.5263C65.7122 75.4698 65.306 75.4384 64.9197 75.4101C64.1408 75.3536 63.789 75.3138 63.5221 75.1766L79.3505 75.206L79.2112 72.8252C79.1662 72.0673 79.183 71.5103 79.2029 70.8644C79.2144 70.4477 79.2269 70.009 79.2269 69.4866V67.5603L77.3236 67.2682C76.8305 67.1918 76.3898 67.1729 76.0359 67.1572C75.4538 67.131 75.2382 67.1143 74.9911 66.9813C74.8414 66.9018 74.811 66.8829 74.811 66.5929C74.811 66.0276 74.9534 65.6748 75.2769 64.9283C75.458 64.5106 75.6653 64.0374 75.8559 63.4542L76.1438 62.5528C76.2997 62.0618 76.4348 61.642 76.5897 61.2138H85.1609C85.6697 63.0658 86.0204 64.4279 86.5596 66.8222C85.9786 67.042 84.9568 67.2326 84.4071 67.3352L84.1391 67.3865L84.3454 69.6028L84.4867 69.6007L84.4176 68.8564L84.6825 68.8051C85.8519 68.5873 87.618 68.2575 88.0651 67.5802C88.1342 67.4755 88.2054 67.3195 88.1384 67.0201C87.417 63.7809 87.0349 62.3665 86.3 59.7178H75.5732C75.2047 60.5679 74.9932 61.2306 74.7168 62.1016L74.432 62.9884C74.2635 63.5055 74.0729 63.9452 73.9044 64.3337C73.5746 65.0937 73.3139 65.6957 73.3139 66.595C73.3139 67.4158 73.6133 67.9414 74.2855 68.3004C74.8424 68.5999 75.3397 68.6229 75.9679 68.6522C76.3238 68.6679 76.6934 68.6847 77.0965 68.7464L77.7309 68.8448V69.4866C77.7309 69.9923 77.7194 70.4163 77.7058 70.8193C77.6859 71.5009 77.6681 72.0903 77.7162 72.9132L77.7634 73.7068L62.6688 73.6785C62.6311 73.3058 62.6207 72.8211 62.6196 72.1814V72.0725V72.0296C62.651 71.147 62.6814 70.3001 62.7096 69.4741C62.7337 68.7956 62.7557 68.134 62.7777 67.4891C63.5451 66.6369 64.1408 65.3575 64.8611 63.6856L64.9364 63.5097C65.8054 61.4913 66.4555 59.8549 67.0837 58.2741C67.716 56.6817 68.3693 55.0359 69.2487 52.9944C72.021 46.5894 73.5935 42.6435 75.9721 36.6687L76.8965 34.3456H87.7845L87.9792 34.802C88.5697 36.1861 89.9087 40.558 91.3262 45.1875C92.2234 48.1179 93.1521 51.1466 93.7865 53.0541C94.5759 55.4212 95.159 57.1989 95.7715 59.0655C96.2196 60.4307 96.6844 61.843 97.256 63.5704L97.3628 63.8919C98.3469 66.8766 99.0975 68.6868 101.223 68.6868H101.971L101.969 70.723C101.968 71.4203 101.965 72.0317 101.971 72.9195L101.978 73.6743H84.5642C83.8167 73.6743 83.8177 73.1697 83.8156 72.0631C83.8146 71.1261 83.8125 69.7452 83.8093 69.6196L82.3133 69.6395C82.3154 69.8007 82.3175 71.1481 82.3196 72.0652C82.3206 72.9142 82.3237 75.1704 84.5642 75.1704H103.484L103.471 73.2838H114.11V75.0175H133.604L133.677 67.2965L131.427 67.1206C130.809 67.0756 130.181 67.0295 129.835 66.7447C129.416 66.4108 129.301 66.2453 129.291 66.2453C129.28 66.1543 129.28 65.8716 129.28 65.6622L129.783 50.0254L142.105 75.0217H153.736L153.82 72.8619C153.956 69.2395 154.061 66.2537 154.155 63.5202C154.386 57.2743 154.564 52.3412 154.93 44.0726C154.961 43.5229 155.202 41.7274 157.317 41.7274L160.699 41.8562C162.258 42.0415 162.573 42.142 162.803 42.5378C163.127 43.078 163.138 43.4517 163.138 44.5782C163.023 47.7651 162.928 50.5383 162.845 53.1473C162.635 59.1943 162.457 64.4164 162.101 71.8422L162.08 72.4065C162.028 73.823 161.976 74.2197 161.588 74.559C160.824 75.2185 160.206 75.3965 158.73 75.6006L157.149 75.8195L156.846 77.3836C156.804 77.5731 156.741 82.0518 156.846 82.526L157.254 84.266H198.859L199.634 63.0355L190.431 63.0397L190.274 65.1168C190.065 68.0429 188.944 72.6536 187.154 73.7392L187.06 73.7926C186.034 74.4333 184.254 74.7861 182.035 74.7861H177.512C177.104 74.7861 176.476 74.6961 175.69 73.9402C175.701 73.801 175.732 73.6146 175.764 73.4639C175.827 73.0482 175.9 72.53 175.9 72.016L176.224 61.5206L176.737 61.5185C177.208 61.4944 177.449 61.663 177.596 61.8053C177.973 62.1906 178.632 63.3726 178.632 66.9771V69.2228H187.552L188.651 44.2348H180.046V46.4773C180.046 47.787 179.889 52.0627 177.763 52.0679L176.633 52.0721C176.643 51.6607 176.654 51.2639 176.664 50.8755C176.727 48.7732 176.779 46.9568 176.936 44.4023C177.01 43.2225 178.046 42.3326 179.355 42.3326H183.553C186.83 42.3326 188.044 42.3901 189.562 43.5145C190.442 44.1689 190.913 46.7317 190.672 49.6076L190.661 52.1171H199.487L200 32.8736L140.001 32.7731L140.137 35.1496C140.189 35.9338 140.179 36.4803 140.158 37.1712C140.147 37.568 140.137 37.9868 140.137 38.482V40.4104L142.042 40.7004C142.241 40.7308 142.43 40.7559 142.618 40.781C143.55 40.9046 143.791 40.9611 144.052 41.2176C144.199 41.361 144.241 41.5463 144.241 42.5105C144.189 44.3468 144.147 45.9151 144.115 47.3955C144.094 48.5429 144.073 49.6296 144.042 50.7425L135.363 32.7857H115.136V32.7899L95.6144 32.7344ZM97.2811 34.3236L114.477 34.3278L114.466 39.486L113.702 39.4661C111.985 39.4253 110.101 40.2199 110.017 42.0981C109.745 47.8582 109.609 51.9004 109.452 56.5812C109.389 58.6499 109.316 60.8495 109.221 63.3862V63.7704C109.211 64.9796 109.232 65.6381 109.87 66.1951C110.593 66.8222 111.158 66.8211 112.278 66.8065L113.472 66.8023V71.7752V71.7731H103.464C103.464 71.415 103.464 71.0832 103.466 70.7283V67.1928H101.223C101.068 67.1928 100.93 67.1624 100.796 67.1174C100.425 66.9928 100.113 66.6735 99.7812 66.0192C100.239 65.5711 100.495 64.9775 100.53 64.2237C100.805 58.4604 100.938 54.4151 101.092 49.7333C101.162 47.6227 101.235 45.3791 101.33 42.7869C101.329 42.5472 101.341 42.3012 101.356 42.0666C101.392 41.4155 101.414 41.0229 101.133 40.5455C100.563 39.5875 99.6828 39.2148 97.9983 39.2148H97.2455L97.2811 34.3236ZM116.466 34.3561H134.442L145.12 56.8387C145.131 56.7696 145.141 56.6974 145.141 56.6199C145.34 53.0269 145.382 50.4986 145.445 47.5714C145.476 46.0858 145.508 44.5112 145.56 42.6665C145.56 41.5076 145.539 40.8627 144.942 40.2691C144.304 39.6284 143.602 39.5362 142.639 39.4085C142.461 39.3855 142.283 39.3614 142.105 39.3331L141.467 39.2368V38.593C141.467 38.1114 141.477 37.7041 141.487 37.3189C141.498 36.6216 141.519 36.0196 141.467 35.1737L141.414 34.3801H157.432L157.652 34.5958C158.123 35.0554 157.893 39.8555 157.882 39.8974L157.746 40.4847L157.149 40.4827H157.139C154.532 40.4827 153.255 42.3661 153.182 44.1176C152.857 51.1937 152.71 55.9248 152.553 60.9343C152.449 64.409 152.334 68.0984 152.156 72.9184L152.124 73.6387H142.869L128.663 44.1992H128.453L127.616 65.748C127.605 66.7688 127.595 67.1122 128.725 68.0209C129.437 68.5978 130.38 68.67 131.144 68.7265L131.992 68.7925V69.4772C132.034 73.2754 132.034 73.2754 131.594 73.5319L131.416 73.6345H115.43V68.5873L116.079 68.4973C119.638 67.9948 119.785 66.1281 119.827 65.5146C120.057 62.3026 120.13 60.4066 120.235 57.268L120.245 57.1455C120.381 53.2227 120.455 50.5048 120.549 47.2709L120.664 42.9806C120.664 41.0208 119.115 39.4106 117.209 39.4106H116.456L116.466 34.3561ZM3.92282 34.3707H27.5341L34.985 64.9147L44.9161 34.3707L68.2426 34.3697V40.0712L67.5988 40.1612C66.0724 40.3748 62.5065 41.1935 62.3746 44.149H62.3767C62.0155 51.6565 61.8417 56.9225 61.6407 63.0187C61.5497 65.7407 61.4544 68.6344 61.334 71.9772V72.0746C61.3329 73.9182 61.3319 75.1369 62.5055 76.1398C63.2488 76.7742 63.9921 76.8276 65.0223 76.903C65.3814 76.9292 65.7583 76.9585 66.1593 77.0108L66.8094 77.0946V77.751C66.8094 78.3771 66.7937 78.9026 66.779 79.401C66.7539 80.249 66.7319 80.9829 66.7916 82.011L66.8366 82.8024H44.2168L44.176 82.0989C44.1121 81.0342 44.1362 80.2595 44.1613 79.4387C44.176 78.9675 44.1906 78.4734 44.1906 77.8819V77.1333H44.9392C47.4518 77.1333 50.1916 75.7388 50.3183 73.1529C50.6721 65.8109 50.8511 60.66 51.0584 54.6967C51.1411 52.3548 51.227 49.8767 51.3306 47.0772C51.1966 47.072 51.07 47.0626 50.9443 47.051L39.224 82.8024H28.5768L19.7062 46.5056C19.6015 46.5077 19.4968 46.514 19.3869 46.5192C19.322 46.5224 19.2571 46.5255 19.1911 46.5276L18.1767 71.9134C18.1777 74.1527 18.4269 75.4656 19.79 76.3408C20.4035 76.7355 20.9489 76.8119 21.6409 76.9114C21.999 76.9627 22.401 77.0213 22.8449 77.1302L23.1642 77.1114L23.4134 77.483C23.7631 78.019 23.6353 81.9984 23.4437 82.3742L23.248 82.7605L22.7957 82.8024H2.20691L2.46446 81.9146C2.49168 81.4006 2.49272 78.2556 2.47283 77.952L2.32208 77.1784L3.1125 77.1417C5.29848 76.8329 7.68023 75.587 7.81633 73.0179C7.95033 70.6246 8.08643 68.5119 8.21416 66.528C8.57325 60.9678 8.85697 56.577 8.85697 49.9814V43.5941C8.85697 41.5327 6.71811 40.2994 4.65043 40.2994H3.89979L3.92282 34.3707ZM198.461 34.3707L198.032 50.6211H192.159L192.169 49.7301C192.399 46.9296 192.064 43.5124 190.452 42.3148C188.473 40.8459 186.735 40.8376 183.595 40.8376H183.553H179.355C177.24 40.8376 175.565 42.3305 175.439 44.3113C175.282 46.8877 175.23 48.7167 175.167 50.8315C175.146 51.6826 175.115 52.5736 175.083 53.5702L177.763 53.564C181.051 53.5556 181.543 49.1198 181.543 46.4763V45.7277H187.091L186.118 67.7257H180.119V66.9771C180.119 63.7715 179.637 61.7341 178.653 60.7448C178.161 60.259 177.543 60.0235 176.748 60.0235H176.737L174.769 60.0277L174.413 71.971C174.413 72.4138 174.34 72.8483 174.277 73.2304C174.141 74.1077 174.12 74.471 174.466 74.8249C175.397 75.8069 176.392 76.2832 177.502 76.2832H182.035C183.794 76.2832 186.243 76.0718 187.856 75.0625C190.609 73.3927 191.614 67.398 191.771 65.2246L191.824 64.5315H198.084L197.414 82.771H158.437L158.301 82.191C158.259 82.0036 158.301 77.7018 158.312 77.6777L158.416 77.1564L158.94 77.0831C160.594 76.8528 161.515 76.5984 162.562 75.6928C163.494 74.8856 163.525 73.868 163.578 72.462L163.598 71.9134C163.954 64.4781 164.132 59.2498 164.331 53.1975C164.426 50.5896 164.52 47.8163 164.635 44.6306C164.635 43.4329 164.635 42.6938 164.091 41.7767C163.473 40.7255 162.52 40.5643 160.876 40.3696L159.714 40.2241L159.735 34.378L198.461 34.3707ZM114.247 40.9936H118.141C118.843 41.3045 119.335 42.0237 119.335 42.8257L119.219 47.1181C119.136 50.3478 119.062 53.0614 118.916 56.978V57.1455C118.801 60.2496 118.727 62.1236 118.497 65.2937C118.466 65.7072 118.413 66.5699 116.037 66.9049L114.843 67.0724V65.3199H112.603L112.142 65.324C111.012 65.3356 110.98 65.2989 110.729 65.0833C110.614 64.9838 110.582 64.7943 110.593 63.7987V63.4532C110.687 60.906 110.76 58.697 110.823 56.6199C110.98 51.9527 111.116 47.9221 111.388 42.1755C111.42 41.4689 112.896 40.9936 114.247 40.9936ZM82.0013 42.5849L77.3802 53.7346H84.7735L82.0013 42.5849ZM81.6453 47.3526L82.8598 52.2375H79.6195L81.6453 47.3526ZM49.3017 56.2336C49.1153 61.5478 48.9374 66.4066 48.616 73.0797C48.5343 74.7422 46.5546 75.6383 44.7308 75.6383H42.9375L49.3017 56.2336Z" fill="black"/>
<path d="M98.7652 35.8203L98.7505 37.7425C100.068 37.8377 101.508 38.2523 102.419 39.7829C102.933 40.654 102.89 41.4161 102.848 42.1532C102.837 42.3615 102.824 42.5803 102.824 42.8159C102.73 45.4342 102.658 47.6757 102.589 49.7842C102.434 54.4723 102.3 58.5207 102.024 64.2945C101.97 65.4629 101.536 66.4156 100.793 67.1202C100.927 67.1652 101.067 67.1935 101.222 67.1935H103.466L103.464 70.2798H111.974V68.3063V68.3042C110.906 68.3179 109.933 68.2341 108.886 67.3222C107.703 66.2858 107.713 64.9991 107.724 63.7564V63.3575C107.818 60.7968 107.891 58.5982 107.954 56.5305C108.111 51.8445 108.247 47.7971 108.53 42.0286C108.635 39.5526 110.739 38.1926 112.969 37.9927L112.979 35.8224L98.7652 35.8203ZM77.9115 35.8433L77.3609 37.2232C74.9781 43.2095 73.4025 47.1637 70.6218 53.5876C69.7518 55.6082 69.1027 57.2435 68.4746 58.8264C67.8422 60.4167 67.189 62.0635 66.3116 64.104L66.2352 64.2778C65.3537 66.3235 64.4492 68.4152 62.7081 69.4757C62.6799 70.3018 62.6495 71.1487 62.6181 72.0313V72.0742H62.6202V72.1831L76.1935 72.2093C76.1841 71.6921 76.1977 71.244 76.2124 70.7781C76.2176 70.5813 76.2239 70.3772 76.2281 70.1625C76.1171 70.1563 76.0082 70.1542 75.9015 70.1489C75.1812 70.1154 74.4347 70.0819 73.5783 69.6213C72.4267 69.0057 71.8174 67.9598 71.8174 66.5967C71.8174 65.3865 72.1639 64.5856 72.5314 63.7407C72.6905 63.3722 72.8622 62.9827 73.0119 62.5231L73.2925 61.65C73.6171 60.6251 73.8736 59.8168 74.4106 58.6568L74.6106 58.2213H87.4375L87.5914 58.7689C88.4352 61.8123 88.8205 63.2015 89.5994 66.6951C89.7386 67.3212 89.6392 67.9148 89.3125 68.4089C88.5724 69.5302 86.8146 69.927 85.2965 70.2159C85.3091 70.6671 85.3102 71.2649 85.3112 72.0606V72.1789H100.47C100.47 71.6523 100.471 71.2074 100.472 70.7216V70.1301C97.7026 69.7008 96.7698 66.8773 95.9385 64.3615L95.8349 64.0454C95.2612 62.3148 94.7974 60.8983 94.3482 59.5321C93.7358 57.6686 93.1537 55.893 92.3643 53.5269C91.7246 51.6027 90.8358 48.6996 89.8957 45.6258C88.6781 41.6517 87.4228 37.5561 86.7811 35.8433H77.9115ZM117.952 35.8538V37.9717C120.329 38.3434 122.161 40.4571 122.161 43.0022L122.046 47.3103C121.951 50.5484 121.878 53.2715 121.742 57.1985L121.732 57.322C121.627 60.4774 121.554 62.3818 121.323 65.621C121.198 67.2071 120.329 69.1858 116.937 69.8704V72.1381H130.473C130.484 71.5539 130.484 70.7446 130.494 70.173C129.678 70.0892 128.662 69.8903 127.783 69.1878C126.171 67.8855 126.097 67.0218 126.118 65.7215L126.129 65.3069L127.008 42.7059L129.604 42.7038L143.801 72.1423H150.689C150.846 67.675 150.962 64.1846 151.056 60.8878C151.213 55.8731 151.359 51.1378 151.684 44.0512C151.789 41.7124 153.443 39.3516 156.416 39.0249C156.416 38.224 156.416 36.7479 156.406 35.8779H142.995C143.005 36.4139 142.995 36.8756 142.974 37.3561C142.974 37.5446 142.974 37.7372 142.963 37.9435C143.989 38.0806 145.036 38.2544 145.999 39.2134C147.057 40.2718 147.057 41.4988 147.057 42.6871C147.004 44.5496 146.973 46.121 146.941 47.6024C146.879 50.5432 146.826 53.0799 146.638 56.6855C146.606 57.5838 146.188 58.2936 145.361 58.8432L144.638 59.3216L133.489 35.8538H117.952ZM5.40897 35.8674L5.39641 38.847C7.94357 39.1338 10.3484 40.8644 10.3484 43.5948V49.9831C10.3484 56.6269 10.0636 61.0396 9.7024 66.625C9.57468 68.6058 9.43858 70.7153 9.30457 73.1012C9.16324 75.7835 7.08928 77.8564 3.95898 78.5117C3.96945 79.2823 3.98097 80.4695 3.96736 81.306H22.1063C22.143 80.548 22.143 79.2017 22.1063 78.5034C21.8708 78.4594 21.6457 78.4269 21.4238 78.3955C20.6564 78.2856 19.8617 78.1725 18.974 77.602C16.8518 76.2389 16.6749 74.0309 16.6749 71.8868L17.7491 44.9798L18.5154 45.0301C18.8232 45.0521 19.0671 45.0385 19.3048 45.027C19.6126 45.0102 19.9319 44.9924 20.3601 45.0322L20.8919 45.0814L29.7457 81.306H38.1327L49.8697 45.5054L50.4267 45.519C50.657 45.5242 50.858 45.5431 51.0433 45.5598C51.3857 45.5912 51.6097 45.6122 51.9395 45.5379L52.888 45.3232L52.8513 46.2937C52.7341 49.4408 52.6378 52.1795 52.5488 54.7518C52.3404 60.7193 52.1625 65.8733 51.8086 73.2258C51.6484 76.4682 48.6542 78.3327 45.6747 78.5997C45.6694 78.9138 45.66 79.2048 45.6517 79.4875C45.6328 80.101 45.6161 80.6496 45.6339 81.306H65.2574C65.2396 80.5888 65.2584 79.9869 65.2773 79.3587C65.2867 79.0624 65.294 78.7588 65.3003 78.428C65.1663 78.4175 65.0365 78.406 64.9077 78.3976C63.7435 78.3128 62.6443 78.2322 61.5272 77.2785C59.8291 75.8253 59.8301 74.0058 59.8301 72.0763V71.9517C59.9516 68.5848 60.0468 65.6901 60.1369 62.9691C60.3389 56.8677 60.5138 51.5974 60.875 44.0795C60.9964 41.3701 63.1217 39.4615 66.7398 38.7852V35.8674H45.9971L35.5687 67.9389H34.1763L26.3537 35.8674H5.40897ZM196.922 35.8674L161.221 35.8758L161.211 38.9045C162.792 39.0919 164.394 39.3348 165.378 41.0162C166.132 42.2851 166.132 43.333 166.132 44.6605C166.016 47.8714 165.912 50.6437 165.828 53.2505C165.619 59.308 165.441 64.5395 165.095 71.9852L165.074 72.5181C165.011 74.0969 164.959 75.5898 163.546 76.8231C162.289 77.9045 161.117 78.2532 159.787 78.4709C159.787 79.2226 159.777 80.4821 159.777 81.2756H195.969L196.524 66.0303H193.195C192.954 68.1294 191.991 74.3115 188.693 76.3038C187.112 77.2952 184.882 77.782 182.034 77.782H177.512C175.994 77.782 174.601 77.1371 173.376 75.8641C172.497 74.9407 172.664 73.9084 172.8 72.9986C172.863 72.6542 172.916 72.2983 172.916 71.9496L173.324 58.5385L176.726 58.5281H176.747C177.941 58.5281 178.935 58.9186 179.71 59.687C181.239 61.2197 181.563 64.0045 181.616 66.2303H184.683L185.521 47.2286H183.029C182.861 52.2109 180.966 55.0533 177.763 55.0617L173.533 55.0722L173.565 54.2954C173.607 52.9794 173.648 51.8518 173.68 50.7882C173.732 48.6598 173.785 46.8235 173.952 44.2229C174.12 41.4412 176.444 39.3422 179.354 39.3422H183.552C186.829 39.3422 188.965 39.3505 191.341 41.1125C193.645 42.8221 193.812 46.8633 193.708 49.1267H196.576L196.922 35.8674ZM81.0492 41.5051H83.0792L86.4858 55.0376H75.3539L81.0492 41.5051Z" fill="#77B5E6"/>
<path d="M100.549 62.1094C98.7701 62.2214 97.3766 62.5794 96.0292 62.9249C94.4515 63.3301 92.9607 63.7122 90.9338 63.7122H89.4933C84.757 63.7122 81.9701 65.3862 78.1122 67.7041C77.8347 67.8706 77.5531 68.0402 77.2642 68.2129C76.6287 68.5877 76.1125 68.9091 75.6111 69.219C74.8845 69.6692 74.1977 70.0943 73.2576 70.6177C72.9833 70.7716 72.7572 70.9454 72.5404 71.1129C72.1102 71.4437 71.7385 71.7275 71.1355 71.7275C68.8783 71.7275 67.6346 71.7296 65.457 71.4092C63.7107 71.1506 62.4397 70.3319 61.2106 69.5425C59.7523 68.6055 58.3766 67.7198 56.3069 67.7198C54.8516 67.7198 53.8707 68.1041 52.7327 68.548C52.1956 68.7573 51.6407 68.973 50.9906 69.1656C47.2845 70.2607 44.6975 71.5893 42.4435 75.1362C41.9703 75.8796 41.3735 76.3276 40.7956 76.7621C40.1853 77.2196 39.555 77.6939 39.0755 78.5063C38.8463 78.902 38.795 79.2883 38.7447 79.6621C38.6945 80.0337 38.6453 80.3845 38.4338 80.7488L38.2432 81.0712C37.323 82.6333 36.6582 83.7639 36.6582 85.684C36.6582 86.6943 37.0079 87.3884 37.3785 88.1244C37.6727 88.7086 37.9773 89.3137 38.1019 90.1072C38.282 91.2034 38.3123 92.109 38.3417 92.9821C38.371 93.8615 38.4013 94.7702 38.5824 95.8779C38.6463 96.2673 38.6086 96.616 38.572 96.951C38.5186 97.4525 38.4683 97.9257 38.752 98.4701C39.0148 98.982 39.4954 99.0836 39.9633 99.1799C40.3329 99.2574 40.7161 99.3348 41.0144 99.6154C41.6489 100.216 41.9316 100.951 42.2038 101.66C42.5555 102.577 42.8884 103.444 43.9218 103.961C46.5045 105.252 48.3743 106.03 50.5383 106.931C51.4219 107.3 52.3348 107.679 53.3849 108.13C54.0078 108.395 54.6077 108.549 55.1887 108.696C56.3644 108.995 57.381 109.252 58.1578 110.344C58.9461 111.45 59.0142 112.456 59.0938 113.62C59.143 114.338 59.1922 115.079 59.4215 115.911L58.1411 124.971C58.161 125.193 58.2196 125.338 58.2939 125.525L58.3536 125.672L58.4478 125.591C58.6289 125.433 58.7964 125.282 58.9545 125.136C59.5565 124.583 60.0391 124.141 60.8547 123.883L60.0653 131.943C60.0831 132.177 60.1313 132.32 60.1941 132.503L60.2736 132.743L60.3762 132.641C60.7835 132.233 61.1447 131.913 61.4923 131.604C61.8231 131.311 62.1654 131.008 62.5497 130.628C62.6229 130.721 62.692 130.788 62.7925 130.862C63.0721 133.681 63.7746 135.467 64.6592 137.726C64.9366 138.427 65.2214 139.16 65.5208 139.976C65.9176 141.076 66.2338 142.018 66.5384 142.939C67.1697 144.824 67.7152 146.457 68.7307 148.645L68.7946 148.781L68.8825 148.666C69.2311 148.184 69.4552 147.745 69.6719 147.315C69.9451 146.771 70.2037 146.258 70.6958 145.734C71.0894 146.97 71.2318 148.006 71.3689 149.022C71.5124 150.079 71.6589 151.178 72.0924 152.487C72.8786 154.853 74.0606 156.225 75.4299 157.795C76.0633 158.528 76.7198 159.282 77.3961 160.203L77.4861 160.329L77.55 160.192C77.7834 159.679 77.9101 159.24 78.0347 158.811C78.1394 158.455 78.2472 158.078 78.421 157.669L81.2959 165.814L81.3922 165.647C81.5534 165.375 81.6654 165.134 81.7743 164.893C81.9523 164.506 82.1062 164.16 82.4307 163.815C86.4708 168.892 88.4045 172.117 91.0113 178.147C91.339 178.901 91.651 179.561 91.9525 180.189C92.7 181.759 93.3459 183.11 93.7333 185.183L93.7501 185.266L93.838 185.256C94.4159 185.13 94.865 184.9 95.2974 184.68C95.8491 184.397 96.3705 184.125 97.1075 184.125C97.4876 184.125 97.7179 184.387 97.9618 184.659C98.2215 184.952 98.4884 185.256 98.9491 185.256C99.7322 185.256 100.227 184.9 100.753 184.523C101.012 184.335 101.28 184.146 101.598 183.979L104.479 185.256L107.683 183.979C107.892 184.115 108.049 184.303 108.206 184.471C108.499 184.785 108.771 185.088 109.295 185.088C109.923 185.088 110.363 184.795 110.781 184.512C111.2 184.23 111.598 183.968 112.174 183.968C112.865 183.968 113.284 184.272 113.786 184.628C113.985 184.774 114.205 184.931 114.456 185.078L114.54 185.13L114.582 185.036C115.534 182.984 116.204 181.309 116.864 179.686C117.534 178.001 118.235 176.263 119.23 174.137C122.329 167.542 124.758 163.605 125.721 163.605C126.056 163.605 126.276 163.794 126.506 163.993C126.757 164.192 127.009 164.412 127.407 164.412C127.543 164.412 127.658 164.37 127.742 164.286C127.92 164.097 127.899 163.752 127.878 163.396C127.867 163.166 127.857 162.925 127.899 162.736C128.014 162.129 128.077 161.595 128.15 161.072C128.338 159.711 128.474 158.622 129.249 157.272C129.385 157.481 129.5 157.669 129.605 157.847C129.804 158.193 130.003 158.507 130.296 158.926L130.38 159.03L130.725 158.455C131.647 156.926 132.243 155.931 133.175 154.267C133.332 153.984 133.447 153.712 133.562 153.45C133.835 152.843 134.065 152.32 134.683 151.932L134.735 151.995C135.07 152.403 135.311 152.697 135.771 153.011L135.887 153.084L137.645 144.761C138.054 145.075 138.274 145.452 138.514 145.85C138.724 146.195 138.933 146.562 139.289 146.907L139.404 147.022L141.802 136.281L143.707 138.186L143.822 137.935C143.948 137.652 144.053 137.422 144.084 137.076C144.314 134.975 144.377 133.485 144.44 131.759C144.471 130.91 144.503 130.034 144.566 129.007C144.974 129.128 145.298 129.283 145.613 129.433C146.042 129.636 146.45 129.828 147.026 129.94L147.151 129.962L146.188 122.081C146.743 122.077 147.162 122.263 147.612 122.463C148.01 122.644 148.418 122.831 148.963 122.887L149.078 122.897L147.466 110.966C149.507 108.933 151.444 107.922 153.496 106.852C154.815 106.167 156.166 105.459 157.673 104.435C158.605 103.807 159.097 103.189 159.662 102.472C159.934 102.126 160.217 101.768 160.584 101.376L160.688 101.256C162.698 99.0658 163.913 97.7445 164.928 94.9325C165.19 94.185 165.452 93.5234 165.703 92.8837C166.499 90.86 167.116 89.2603 167.336 86.733C167.451 85.2527 167.462 84.1995 167.472 82.9808C167.472 82.337 167.472 81.668 167.493 80.8734C167.493 79.325 166.959 78.2843 166.383 77.1809C166.038 76.5224 165.693 75.8419 165.41 74.996C165.274 74.5835 165.19 74.194 165.106 73.8161C164.918 72.9011 164.75 72.1096 163.934 71.427C162.813 70.4879 161.819 70.1183 160.657 69.6912C160.112 69.4933 159.558 69.2892 158.95 69.0107C158.354 68.7416 157.903 68.3752 157.474 68.0203C156.783 67.4602 156.134 66.9315 155.066 66.9189C150.805 66.8247 148.397 67.0174 144.398 67.3398L143.655 67.4016C142.126 67.5157 140.985 68.1124 139.875 68.6893C138.828 69.241 137.729 69.8105 136.295 69.9655C135.06 70.089 134.358 70.1246 133.175 70.1246C132.023 70.1246 131.332 69.5582 130.537 68.9018C130.108 68.5563 129.678 68.1972 129.134 67.8915C128.883 67.7533 128.631 67.6214 128.391 67.4916C126.894 66.7085 125.491 65.9694 125.491 64.2828V64.1666L125.376 64.1969C124.318 64.4807 123.533 64.2702 122.622 64.0273C122.203 63.9132 121.764 63.7949 121.251 63.7122C117.817 63.1458 115.786 62.9113 112.101 62.9113H110.174C110.017 62.9113 109.912 62.8422 109.787 62.7637C109.672 62.6894 109.546 62.6109 109.379 62.5899C107.138 62.2863 105.547 62.2528 103.704 62.2141C102.741 62.1921 101.742 62.1711 100.558 62.1094H100.553H100.549Z" fill="#4C443F"/>
<path d="M101.135 63.168C99.1593 63.168 97.7826 63.4349 96.1892 63.7438C95.5307 63.8715 94.8512 64.0034 94.066 64.1311C92.6506 64.3625 91.4885 64.4693 90.3651 64.5719C88.8597 64.7111 87.4358 64.842 85.565 65.2555C85.029 65.3696 84.5223 65.4 84.0313 65.4293C83.0105 65.4911 82.0463 65.5476 81.1931 66.4009C80.8319 66.7621 80.657 67.1683 80.4906 67.5619C80.2906 68.0309 80.1011 68.4759 79.6049 68.7931C78.493 69.4935 77.6063 69.951 76.6683 70.4347C76.0453 70.7561 75.3994 71.0879 74.6383 71.5161C74.2321 71.7433 73.8855 71.9778 73.5505 72.205C72.7412 72.7536 72.044 73.2268 70.9206 73.2687C70.0988 73.2279 69.4026 73.208 68.7305 73.1891C67.4365 73.1514 66.3184 73.119 64.7511 72.9473C62.6803 72.7232 61.447 71.9475 59.885 70.9665C59.5092 70.7309 59.1218 70.4881 58.6947 70.2347C58.4633 70.0996 58.2968 69.9018 58.1346 69.7112C57.8812 69.4108 57.6184 69.0998 57.1285 69.0998C56.0575 69.0998 55.3005 69.3972 54.5007 69.7133C54.0474 69.8913 53.5794 70.0766 53.0162 70.2263C52.3221 70.4095 51.7023 70.5079 51.1024 70.6043C49.9728 70.7854 48.9059 70.9571 47.7041 71.6784C46.4656 72.4154 45.7715 73.2645 45.0355 74.1628C44.6324 74.6548 44.2147 75.1636 43.6776 75.6996C41.2665 78.1107 40.3536 80.0098 39.3266 83.1087C39.1989 83.4982 39.0565 83.8311 38.9183 84.1525C38.6189 84.8435 38.3613 85.4402 38.3613 86.3416C38.3613 86.8274 38.6963 87.0692 39.0198 87.3006C39.2722 87.4817 39.5318 87.6691 39.6501 87.9801C40.4143 89.897 40.3463 91.4925 40.273 93.1822C40.2196 94.4406 40.1641 95.743 40.4478 97.261L40.4615 97.3322H40.5347C41.8905 97.3322 42.437 98.5529 43.018 99.8459C43.5949 101.133 44.1948 102.463 45.6657 102.463C47.6235 102.463 48.8651 103.224 50.3036 104.105C50.9809 104.52 51.6834 104.952 52.522 105.342C53.0978 105.608 53.6003 105.836 54.0756 106.052C55.1383 106.534 56.0554 106.948 57.3284 107.585C57.5734 107.705 57.8142 107.807 58.0466 107.904C58.8161 108.225 59.4799 108.503 59.8526 109.307C60.9351 111.593 61.1256 113.184 61.1256 115.681C61.1256 116.775 60.9634 117.636 60.8074 118.47C60.6493 119.311 60.486 120.182 60.486 121.293V121.381H60.5739C61.6334 121.381 62.7295 122.097 62.7295 123.295C62.7295 124.28 62.6081 125.058 62.4898 125.809C62.3715 126.565 62.249 127.346 62.249 128.345V128.435H62.339C64.4538 128.435 64.7752 130.427 65.1479 132.734C65.3049 133.704 65.4672 134.707 65.7823 135.59C66.2179 136.812 66.6471 137.806 67.0617 138.759C67.7202 140.277 68.3431 141.701 68.8247 143.753L68.8467 143.857L68.943 143.816C69.1723 143.732 69.3544 143.627 69.5324 143.522C69.8371 143.344 70.1009 143.187 70.5134 143.187C72.111 143.187 72.4355 144.957 72.7486 146.663C72.7768 146.82 72.8041 146.967 72.8323 147.124C73.3642 149.856 73.8122 151.699 75.57 154.212C75.6852 154.379 75.771 154.578 75.8527 154.777C76.0369 155.227 76.2264 155.688 76.7667 155.688C77.0975 155.688 77.3247 155.52 77.5435 155.353C77.7476 155.196 77.9403 155.049 78.2104 155.049C80.455 155.049 80.9093 157.447 81.349 159.76C81.4422 160.252 81.5375 160.755 81.6495 161.236L81.6663 161.299H81.7374C83.3864 161.299 84.0553 162.493 84.8311 163.875C85.4488 164.963 86.0895 166.105 87.3071 166.743L87.4359 166.806V166.021L87.4296 165.979C85.3169 161.446 84.493 158.012 83.5413 154.034C83.1309 152.327 82.7079 150.558 82.1447 148.527C81.6725 146.799 81.2192 145.438 80.7806 144.109C80.3419 142.79 79.8886 141.429 79.4185 139.712C79.3295 139.366 79.2793 139.063 79.2301 138.769C79.1264 138.131 79.0374 137.576 78.6051 136.948C77.9162 135.948 76.9708 135.475 76.0568 135.016C75.0267 134.499 74.053 134.011 73.4887 132.816V132.275C74.1389 132.212 74.6843 132.134 75.213 132.059C76.1804 131.922 77.0169 131.801 78.2104 131.801H78.3004V119.208C78.3004 117.439 79.1484 116.384 80.1325 115.163C80.4728 114.74 80.8245 114.304 81.169 113.808C83.2021 110.877 84.8018 109.553 87.7227 107.417L87.7772 107.376L87.7531 107.311C87.3961 106.392 86.7637 105.171 85.4237 105.171C84.6929 105.171 84.1506 105.421 83.6251 105.66C83.0932 105.904 82.5886 106.134 81.8966 106.134C80.8005 106.134 80.0425 105.893 79.1652 105.614C78.6825 105.462 78.1842 105.301 77.5885 105.173C77.0839 105.066 76.5887 105.077 76.1102 105.089C75.2329 105.108 74.477 105.127 73.9546 104.405C73.7452 104.115 73.7704 103.824 73.8018 103.487C73.8206 103.284 73.8395 103.074 73.8101 102.843C73.7076 102.07 73.5872 101.483 73.4605 100.861C73.3642 100.391 73.2637 99.9035 73.1673 99.314C73.1098 98.9351 73.1286 98.5885 73.1453 98.2525C73.1747 97.6767 73.2019 97.1333 72.8344 96.5554C72.6334 96.2403 72.3403 96.1984 72.0272 96.1544C71.8587 96.1314 71.6818 96.1073 71.509 96.0382C71.2002 95.9157 70.9447 95.7555 70.6976 95.6006C70.2632 95.3284 69.8549 95.0709 69.234 95.0709C68.6739 95.0709 68.5378 95.5828 68.408 96.079C68.3494 96.302 68.2908 96.5324 68.1924 96.7208C68.0238 97.0454 67.828 97.3186 67.6406 97.5803C67.2596 98.1122 66.9005 98.6137 66.9005 99.4083C66.9005 99.6051 66.8973 99.7998 66.8963 99.9904C66.8806 101.705 66.8659 103.185 68.2112 104.364C68.7242 104.818 69.3492 105.096 69.9533 105.364C70.9814 105.822 71.8691 106.215 71.8691 107.344C71.8691 107.681 71.7948 107.927 71.7163 108.187C71.6566 108.38 71.5959 108.578 71.5624 108.824C67.4291 107.308 65.1542 103.771 65.1542 98.8482C65.1542 98.1739 65.4934 97.7751 65.886 97.3144C66.1352 97.0234 66.3916 96.7219 66.5874 96.323C66.8104 95.8707 66.9842 95.4572 67.1517 95.0593C67.5579 94.0951 67.9086 93.2607 68.765 92.3865C71.664 94.1066 73.9337 94.8562 76.5604 95.7231C77.9549 96.1837 79.3965 96.6601 81.0622 97.327C81.6265 97.5521 82.1447 97.7102 82.6451 97.864C83.7109 98.1917 84.6437 98.4859 85.5692 99.3015C85.5776 99.3046 85.5838 99.3078 85.5922 99.3099C85.5901 99.313 85.5891 99.3151 85.588 99.3161C85.6477 99.3695 85.7074 99.4187 85.7681 99.4774C85.6247 99.5789 85.4896 99.6648 85.3567 99.7517C85.0447 99.9548 84.7505 100.147 84.4385 100.459L84.3076 100.59L85.2855 100.702L85.3096 100.687C85.8382 100.374 86.5543 99.983 87.0768 99.6962C87.9059 99.2418 87.9059 99.2418 87.9164 99.1853L87.929 99.1277L87.8839 99.0952C86.5627 98.13 85.564 97.1951 84.5997 96.2895C83.1456 94.9243 81.771 93.6345 79.5326 92.5153C78.6239 92.061 77.8628 92.0243 77.0567 91.9877C76.6232 91.9678 76.173 91.9468 75.6601 91.8652C74.7293 91.7123 73.9065 91.5919 73.1108 91.4768C70.8505 91.148 69.0351 90.8842 66.577 90.1126L68.4133 90.0959C68.3682 90.0435 68.3243 89.9891 68.2866 89.9221L62.6437 84.1975L62.6636 84.1441C62.6719 84.1232 62.6782 84.1054 62.6866 84.0844L62.6028 83.9986C62.7986 83.5045 62.9818 83.0773 63.1588 82.6795C63.2456 82.3811 63.3263 82.088 63.4037 81.8001C63.7283 80.6045 64.0235 79.545 64.77 78.4321C64.8883 78.0521 65.0631 77.7181 65.4389 77.4375C66.6125 76.5581 67.6239 76.4932 69.1513 76.4932C69.479 76.4932 69.6936 76.6366 69.8611 76.8554C70.104 77.0648 70.2464 77.3998 70.3909 77.7485C70.5134 78.0416 70.638 78.3431 70.8327 78.5912L70.9185 78.7033L70.7835 78.7347C70.2349 78.8603 69.7376 78.8854 69.2581 78.9106C68.4331 78.9524 67.7212 78.9891 66.9664 79.522C66.4953 79.8559 66.399 80.3124 66.287 80.839C66.2262 81.1258 66.1634 81.4221 66.0357 81.7268C65.9059 82.0304 65.7415 82.2733 65.5813 82.5078C65.3123 82.9046 65.0809 83.248 65.0809 83.7777C65.0809 84.0907 65.1688 84.3305 65.3123 84.5346C65.6023 84.8675 66.043 85.0884 66.5037 85.3135C66.8711 85.4926 67.2501 85.6779 67.5736 85.9312C67.6773 86.0139 67.7725 86.1019 67.8636 86.193C68.2049 86.484 68.4687 86.8159 68.72 87.1394C68.8969 87.3666 69.0644 87.5812 69.2477 87.7654C69.5397 88.002 69.8863 88.1695 70.3501 88.1968C72.5298 88.3172 74.2781 88.2135 75.9689 88.1151C77.6565 88.0167 79.4018 87.9151 81.572 88.0355C82.0746 88.0586 82.4253 88.2711 82.7331 88.5726C83.0482 88.8124 83.3005 89.1338 83.5591 89.4667C83.7318 89.6876 83.9109 89.9127 84.1129 90.1252C84.2658 90.2592 84.4165 90.3974 84.5673 90.5377C85.2781 91.1261 86.0236 91.6872 86.747 92.2306C87.9782 93.155 89.2491 94.1098 90.3589 95.2122C97.1283 91.6935 102.611 91.4778 106.018 91.9186C109.347 92.3478 111.399 93.4701 111.807 93.7078L113.754 90.8727C111.608 89.9127 101.151 85.9794 100.47 85.8757L100.345 85.9741V85.7407L100.388 85.7124C100.39 85.7114 100.392 85.7114 100.393 85.7103C101.422 84.9126 104.96 83.9641 108.394 83.048C110.97 82.3591 113.409 81.7037 114.508 81.1855C113.074 81.1468 106.771 81.2274 101.933 81.3939L101.898 81.2222L112.592 77.1297C111.022 76.5393 103.476 74.235 101.726 73.9167L101.293 73.8372L118.099 70.0996C115.859 69.3082 102.41 64.5373 101.01 63.6831L100.691 63.4883L104.803 63.8097C104.489 63.6422 104.238 63.4475 104.091 63.2109L104.07 63.168H101.135ZM154.815 68.4591L146.837 68.8214C146.523 68.8214 146.125 68.7701 145.738 68.7209C145.351 68.6716 144.942 68.6193 144.618 68.6193C143.382 68.6193 142.712 69.1428 142.011 69.6966C141.414 70.1593 140.796 70.6367 139.802 70.8273C139.404 70.9005 139.027 71.0251 138.671 71.1466C138.116 71.3308 137.593 71.5057 137.007 71.5057C136.63 71.5057 136.337 71.4292 136.023 71.3486C135.719 71.268 135.405 71.1853 135.007 71.1853C134.421 71.1853 133.96 71.2251 133.51 71.2649C133.07 71.3036 132.61 71.3444 132.034 71.3444H131.709L131.992 71.5099C133.374 72.3401 134.599 72.8436 135.792 73.3305C137.404 73.9932 138.933 74.6182 140.639 75.9928C141.446 76.6471 141.582 77.4438 141.728 78.3662C141.812 78.8237 141.885 79.2958 142.053 79.7973C142.22 80.3229 142.44 80.749 142.66 81.1604C143.016 81.8597 143.33 82.4649 143.33 83.3767C143.33 84.4917 142.922 85.256 142.492 86.0663C142.22 86.5751 141.948 87.1027 141.728 87.7591L141.686 87.9026L141.833 87.8733C142.262 87.7895 142.629 87.7047 142.995 87.622C143.906 87.4137 144.691 87.2336 145.822 87.2336C145.864 87.2336 145.895 87.2577 145.937 87.2964C145.958 87.3173 145.989 87.3393 146.021 87.3582L143.32 93.088C144.084 92.9582 144.691 92.7289 145.33 92.4881C145.801 92.3143 146.272 92.1353 146.827 91.9919L147.591 91.728C147.664 91.7553 147.717 91.7835 147.79 91.8264L144.461 98.3655L144.398 98.4964H150.198L150.104 98.5571H150.24L145.298 101.996L145.34 102.103C145.623 102.08 146.01 102.044 146.471 102L151.674 101.342C151.768 101.356 151.831 101.392 151.915 101.434C151.915 101.436 151.925 101.436 151.925 101.438C151.014 102.352 150.292 103.108 149.601 103.839C148.889 104.592 148.156 105.369 147.204 106.319C146.994 106.524 146.774 106.703 146.555 106.876C145.968 107.343 145.413 107.785 145.413 108.627C145.413 108.916 145.455 109.146 145.497 109.367C145.539 109.589 145.57 109.799 145.57 110.071V110.272L145.717 110.137C148.355 107.752 150.501 106.46 152.993 104.965C154.323 104.171 155.694 103.351 157.254 102.289C160.981 99.7611 162.227 96.8862 163.703 92.7875C163.954 92.0808 164.206 91.4653 164.446 90.8716C165.075 89.34 165.619 88.0177 165.787 86.0307C165.954 84.1462 165.954 82.9925 165.954 81.2441V80.6516C165.954 79.4152 165.514 78.6195 165.012 77.6982C164.781 77.2878 164.551 76.8638 164.342 76.3686C162.363 71.7632 159.107 69.8777 154.825 68.4633L154.815 68.4591ZM141.467 90.4372C139.928 90.4372 138.797 90.5597 137.582 90.6895C137.436 90.7052 137.279 90.7219 137.122 90.7387C136.724 90.8434 136.337 90.9575 135.928 91.0758C134.976 91.3543 133.981 91.6422 132.819 91.8673C132.013 92.0233 131.311 92.0735 130.631 92.1227C129.521 92.2023 128.474 92.2756 127.186 92.8346C125.773 93.4607 124.946 94.293 124.056 95.1756C123.512 95.7231 122.946 96.2895 122.203 96.8517C121.816 97.1406 121.449 97.3762 121.093 97.6023C120.193 98.176 119.408 98.6733 118.811 99.7684L118.759 99.8595L118.863 99.8951C119.9 100.24 120.518 100.483 121.407 101.009L121.428 101.022H121.952C121.481 100.709 121.01 100.361 120.465 100.005C120.643 99.8951 120.811 99.7977 120.978 99.7045C120.968 99.6941 120.957 99.6847 120.947 99.6742C121.167 99.5527 121.46 99.4093 121.805 99.247C121.92 99.1821 122.046 99.1172 122.172 99.0439C122.182 99.0534 122.182 99.0596 122.193 99.0691C123.501 98.4713 125.459 97.6589 127.752 96.7072C131.866 94.9934 136.944 92.8828 141.309 90.7753C141.404 90.6968 141.508 90.6141 141.613 90.5293C141.603 90.5209 141.592 90.5105 141.582 90.501C141.529 90.4613 141.498 90.4372 141.467 90.4372ZM100.276 95.8885L90.6593 99.1999V99.336L95.1485 103.483L87.2956 103.504C88.0766 105.088 88.957 106.55 90.7399 106.55C91.8821 106.55 92.4841 106.07 93.6263 106.07C95.7306 106.07 97.5544 107.653 97.5544 109.757V111.519C97.5544 111.657 97.5188 111.78 97.4622 111.892C99.7676 114.386 102.057 115.922 102.057 116.936V120.784H99.9738C92.8976 120.784 89.2523 124.773 84.2626 129.763C84.5641 128.1 84.1841 126.957 84.9044 125.434C85.8068 123.53 87.9509 123.449 88.5121 121.424L84.2626 123.99C85.5849 121.986 86.6088 120.904 88.4315 119.341C88.3121 119.341 88.2514 119.182 88.1111 119.182C86.3272 119.182 85.3242 120.002 83.9412 121.105C85.3043 118.54 87.0296 117.637 89.5548 116.134C89.4344 116.134 89.3737 115.975 89.2334 115.975C87.2087 115.975 86.0068 116.376 84.2626 117.418C86.0068 115.675 87.4694 115.092 89.714 114.051C88.8325 113.71 88.4294 112.914 87.4673 112.914C85.9241 112.914 85.0457 113.664 85.0457 113.664C85.4446 113.265 85.9262 112.748 86.4612 112.184C84.9588 112.949 82.7927 115.136 81.8442 116.65C81.2831 117.551 80.4005 117.972 80.4005 119.054V133.004C78.6564 133.144 77.6544 133.004 75.9113 133.004C76.7332 135.068 79.0573 134.765 80.4005 136.529C81.4621 137.911 81.1815 139.178 81.682 140.853C82.7645 144.444 83.4062 146.527 84.4081 150.16C85.3902 153.719 86.0717 155.751 87.1333 159.3C87.6348 161.017 87.4536 162.283 88.4158 163.78C89.6187 165.644 91.6204 166.293 91.6204 168.513C91.6204 168.91 91.5618 169.172 91.4613 169.559C90.5997 168.471 90.4007 167.507 89.2188 166.827V167.466L94.9883 183.18C95.8699 182.719 96.1504 181.746 97.1523 181.746C98.1145 181.746 98.1145 183.347 99.0755 183.347C100.198 183.347 100.52 182.06 101.643 182.06C102.965 182.06 103.366 183.504 104.688 183.504C105.934 183.504 106.332 182.06 107.578 182.06C108.551 182.06 108.834 183.18 109.818 183.18C110.896 183.18 111.221 181.903 112.299 181.903C112.948 181.903 113.168 182.478 113.744 182.698C114.948 180.102 115.189 178.375 116.476 175.81C117.659 173.412 118.612 172.009 119.387 169.706C119.355 169.758 119.324 169.811 119.293 169.863L119.094 170.188L119.335 167.267C119.335 167.246 119.408 166.963 119.523 166.513C118.35 167.853 118.078 169.067 116.791 170.355C116.654 168.858 117.649 167.958 117.272 166.513C116.393 167.633 116.068 168.439 115.189 169.559L115.032 168.272C115.869 166.167 117.251 165.445 118.549 163.623C119.638 162.105 119.293 160.755 119.837 158.975C120.905 155.468 121.617 153.542 122.559 150.003C123.512 146.412 124.129 144.391 125.292 140.863C125.846 139.157 125.752 137.628 126.841 136.215C128.181 134.447 130.243 134.906 131.06 132.842C129.312 132.842 128.317 132.982 126.569 132.842V118.895C126.569 117.492 124.674 115.462 122.727 114.171C122.737 114.192 122.758 114.215 122.768 114.235C121.282 113.854 120.612 113.235 119.062 113.235C118.099 113.235 117.544 113.534 116.654 113.875C118.842 114.877 120.266 115.398 121.952 117.081C120.067 116.34 118.863 115.76 116.822 115.96C119.345 117.462 121.072 118.365 122.433 120.929C120.968 119.767 119.827 118.986 117.942 119.167C119.701 120.689 120.863 121.592 121.952 123.655L117.785 121.25C118.623 123.214 120.643 123.294 121.47 125.258C122.109 126.822 121.774 127.923 122.109 129.587C117.126 124.596 113.472 120.611 106.395 120.611H104.311V116.441C105.369 115.183 107.913 113.183 109.305 111.883C108.625 110.844 109.263 109.324 109.263 109.324C109.263 109.324 109.096 106.317 113.189 106.07C114.32 106.001 114.927 106.55 116.068 106.55C117.858 106.55 118.874 105.147 119.513 103.504H110.865C109.42 101.099 106.97 101.459 104.447 100.297C104.772 100.157 104.971 99.9767 105.327 99.9767C107.651 99.9767 108.918 101.601 111.179 101.099C109.713 99.6365 108.52 99.1758 106.688 98.2137L107.818 98.0525C108.876 98.533 109.556 98.7749 110.697 99.0157V98.533C110.059 97.8913 109.535 97.2317 108.96 96.7208L106.499 95.8885H100.276Z" fill="black"/>
<path d="M103.903 125.008C102.343 125.008 101.31 125.392 100.111 125.834C99.5445 126.042 98.9603 126.258 98.2641 126.456L98.2893 126.63C98.7499 126.63 99.0127 126.733 99.3665 126.938L99.4294 126.975L99.4786 126.919C100.142 126.142 100.928 125.989 102.057 125.989C102.864 125.989 103.442 126.267 103.987 126.919L104.049 126.981L104.112 126.934C104.918 126.361 105.62 126.149 106.709 126.149C107.096 126.149 107.368 126.3 107.661 126.46C107.965 126.622 108.279 126.791 108.708 126.791C108.949 126.791 109.117 126.703 109.284 126.619C109.41 126.554 109.525 126.492 109.682 126.468V126.292C108.698 126.162 107.913 125.903 107.159 125.652C106.154 125.321 105.212 125.008 103.903 125.008ZM104.112 130.848L104.049 131.052C104.008 131.217 103.966 131.386 103.924 131.555C103.539 133.087 103.138 134.671 101.654 134.671C100.703 134.671 100.424 133.82 100.1 132.834C99.9905 132.5 99.8774 132.153 99.7319 131.837L99.6304 131.613L99.5644 131.852C99.3624 132.611 99.0493 133.13 98.7164 133.677C98.5227 133.995 98.3249 134.322 98.1291 134.72C98.0841 134.811 98.0401 134.904 97.9961 134.997C97.7124 135.596 97.4664 136.115 96.8456 136.115C95.9745 136.115 95.8154 135.295 95.628 134.346C95.5348 133.872 95.4385 133.383 95.2438 132.96L95.1276 132.708L95.0742 132.98C95.0113 133.308 94.9559 133.604 94.9046 133.884C94.7255 134.856 94.5852 135.625 94.2754 136.74L94.2691 136.761L94.2733 136.782C94.4272 137.64 94.579 138.362 94.7245 139.053C94.9674 140.205 95.1977 141.294 95.3746 142.791C95.4385 143.304 95.4175 143.712 95.3956 144.131C95.3788 144.466 95.361 144.801 95.383 145.188C91.7073 143.293 89.7673 139.818 88.3519 136.656L88.3498 136.645L88.2702 136.687L88.1885 136.719V136.729C88.5696 137.577 88.0294 138.415 87.3604 138.938C87.1741 138.279 86.8987 137.807 86.6098 137.315C86.3847 136.928 86.1512 136.53 85.9471 136.011L85.7754 136.054C86.0905 138.488 86.5721 140.247 87.0799 142.11C87.3897 143.251 87.7091 144.424 88.0231 145.837C88.2105 146.696 88.2587 147.45 88.3048 148.172C88.3833 149.366 88.4566 150.496 89.1538 151.794C90.4164 154.15 90.9943 155.783 91.7962 158.045C91.9219 158.4 92.0538 158.767 92.193 159.165C92.4349 159.845 92.6955 160.4 92.9479 160.944C93.374 161.855 93.7749 162.714 93.9519 163.949L94.1277 163.96C94.4188 162.442 94.9203 161.594 95.6772 160.316L95.8552 160.023H96.3849C98.0359 164.043 98.3908 166.703 98.5992 171.477L98.6138 171.791L98.7677 171.518C99.109 170.911 99.4189 170.513 99.779 170.053C99.9518 169.833 100.129 169.603 100.323 169.341C101.512 169.833 101.895 170.838 102.376 172.105L102.536 172.523L102.619 172.304C102.759 171.948 102.858 171.55 102.953 171.173C103.222 170.095 103.454 169.163 104.458 169.163C105.274 169.163 105.505 169.875 105.766 170.702C105.902 171.152 106.06 171.613 106.311 172L106.395 172.126L106.468 172C106.573 171.78 106.677 171.581 106.771 171.382C107.201 170.513 107.536 169.822 108.447 169.341C108.604 169.54 108.75 169.718 108.886 169.885C109.315 170.388 109.671 170.817 109.996 171.508L110.163 171.477C110.3 169.32 110.645 167.823 111.043 166.095C111.221 165.289 111.409 164.452 111.598 163.478C111.661 163.143 111.692 162.777 111.713 162.431C111.797 161.353 111.87 160.337 112.791 160.337C113.535 160.337 113.775 160.965 114.037 161.698C114.163 162.033 114.299 162.389 114.487 162.703L114.581 162.86L114.854 162.159C118.916 151.993 121.366 145.858 122.821 134.771L122.653 134.739C122.287 136.098 122.004 137.179 120.863 137.985C120.821 137.839 120.79 137.692 120.758 137.567C120.58 136.897 120.444 136.373 120.088 135.681L119.994 135.492L119.931 135.696C119.387 137.326 118.633 138.3 117.743 139.42C117.366 139.891 116.979 140.372 116.571 140.959L116.518 141.042C115.262 142.854 114.498 143.963 112.76 145.157C112.823 144.728 112.896 144.319 112.959 143.922C113.378 141.336 113.692 139.462 113.692 136.52C113.692 135.082 113.587 134.181 113.042 132.96L112.906 132.669L112.865 133.066C112.707 134.353 112.509 135.953 111.273 135.953C110.75 135.953 110.582 135.489 110.373 134.949C110.31 134.765 110.237 134.577 110.153 134.402C109.933 133.956 109.724 133.6 109.514 133.254C109.232 132.774 108.97 132.318 108.708 131.682L108.614 131.429L108.541 131.692C108.227 132.948 107.829 134.512 106.468 134.512C105.431 134.512 105.159 133.618 104.835 132.581C104.667 132.052 104.5 131.503 104.217 131.028L104.112 130.848Z" fill="#AB0634"/>
<path d="M112.514 141.521L112.45 141.356L104.138 143.753L95.8258 141.356L95.7695 141.525C96.6476 141.865 97.1724 142.341 97.7783 142.894C98.0859 143.172 98.4025 143.46 98.7938 143.757C99.0713 143.965 99.3474 144.115 99.613 144.259C100.122 144.533 100.561 144.772 100.852 145.329C101.142 145.884 101.13 146.368 101.118 146.93C101.11 147.272 101.102 147.627 101.164 148.029C101.354 149.221 101.543 150.162 101.725 151.073C101.907 151.985 102.096 152.927 102.287 154.121C102.331 154.389 102.369 154.651 102.407 154.904C102.637 156.471 102.836 157.824 104.247 158.828L104.333 158.891L104.379 158.792C105.94 155.4 106.292 153.224 106.875 149.619L106.951 149.15C107.046 148.568 107.057 148.065 107.068 147.581C107.085 146.846 107.102 146.151 107.427 145.32C107.605 144.858 107.977 144.69 108.406 144.497C108.66 144.383 108.92 144.265 109.164 144.077C109.589 143.744 109.938 143.433 110.276 143.131C110.956 142.523 111.545 141.999 112.514 141.521Z" fill="black"/>
<path d="M100.691 63.4922L101.01 63.6869C102.41 64.5412 115.859 69.312 118.099 70.1035L101.293 73.8431L101.729 73.9206C103.477 74.2389 111.022 76.5442 112.592 77.1357L101.898 81.226L101.933 81.3977C106.772 81.2302 113.074 81.1506 114.508 81.1894C113.409 81.7076 110.97 82.363 108.394 83.0519C104.96 83.9679 101.422 84.9164 100.393 85.7142C100.392 85.7142 100.391 85.7142 100.388 85.7163L100.346 85.7466V85.978L100.47 85.8796C101.151 85.9832 111.608 89.9165 113.755 90.8766L111.807 93.7116C111.399 93.474 109.347 92.3517 106.018 91.9224C102.611 91.4817 97.1283 91.6973 90.3589 95.2161C89.2492 94.1136 87.9782 93.1599 86.7471 92.2365C86.0236 91.6932 85.2782 91.1299 84.5674 90.5415C84.5276 90.5091 84.4857 90.4787 84.447 90.4452C84.3255 90.3458 84.2177 90.2379 84.113 90.1291C83.9109 89.9165 83.7319 89.6914 83.5592 89.4705C83.3006 89.1376 83.0483 88.8162 82.7331 88.5765C82.4473 88.3587 82.1123 88.2059 81.6695 88.1797C79.4908 88.0593 77.7414 88.1629 76.0485 88.2613C74.3619 88.3598 72.6178 88.4613 70.4486 88.342C69.9219 88.3105 69.5618 88.0855 69.2477 87.7693C69.0645 87.585 68.897 87.3704 68.7201 87.1432C68.4688 86.8197 68.205 86.4879 67.8637 86.1968C67.8323 86.1696 67.804 86.1424 67.7716 86.1172C67.402 85.821 66.9822 85.6147 66.576 85.4158C66.0525 85.1593 65.5804 84.9217 65.3123 84.5406C65.1689 84.3364 65.081 84.0946 65.081 83.7816C65.081 83.2518 65.3123 82.9095 65.5814 82.5137C65.7416 82.2792 65.9059 82.0342 66.0358 81.7306C66.1635 81.426 66.2263 81.1297 66.287 80.8428C66.3991 80.3162 66.4954 79.8598 66.9665 79.5258C67.7213 78.9929 68.4332 78.9563 69.2582 78.9144C69.7377 78.8893 70.235 78.8642 70.7836 78.7385L70.9186 78.7071L70.8328 78.5972C70.638 78.3491 70.5135 78.0455 70.391 77.7523C70.2465 77.4037 70.1041 77.0697 69.8612 76.8593C69.7052 76.7242 69.5084 76.6384 69.2394 76.6384C68.7012 76.6384 68.3264 76.8028 67.9307 76.9755C67.6669 77.0907 67.3947 77.21 67.0576 77.2823C66.8524 77.3252 66.6493 77.3357 66.4524 77.3461C66.0002 77.3692 65.5709 77.3911 65.2422 77.7932C65.0632 78.0109 64.9124 78.2234 64.77 78.436C64.0236 79.5488 63.7283 80.6083 63.4038 81.8039C63.3263 82.0918 63.2457 82.3871 63.1588 82.6854C63.028 83.1335 62.8782 83.5952 62.6867 84.0883C62.6783 84.1092 62.672 84.1291 62.6636 84.1501L62.6416 84.2024L68.2846 89.928C68.3222 89.995 68.3662 90.0495 68.4112 90.1018C68.7944 90.5478 69.4226 90.5091 70.0329 90.4683C70.2203 90.4567 70.413 90.4431 70.6014 90.4431H80.3493L90.4228 99.2383L90.4615 99.2729L90.6594 99.2059L100.274 95.8945H106.499L108.96 96.7268L116.958 99.432L116.99 99.3975C118.152 98.3495 119.115 97.2649 120.036 96.2159C122.329 93.6226 124.318 91.3812 128.16 91.0838C129.521 90.9812 130.62 90.9896 131.678 90.998C132.704 91.0043 133.751 91.0127 135.059 90.9237C135.824 90.8745 136.494 90.8106 137.122 90.7446C137.279 90.7279 137.436 90.7111 137.582 90.6954C138.797 90.5656 139.928 90.4431 141.467 90.4431C141.498 90.4431 141.529 90.4672 141.582 90.507L141.613 90.5353C141.508 90.6201 141.404 90.7007 141.31 90.7792C141.226 90.8431 141.153 90.9069 141.079 90.9666C140.325 91.5717 139.781 92.0083 138.797 92.5904L138.713 92.6396L138.766 92.7191C139.027 93.0814 139.279 93.4195 139.53 93.7483C140.692 95.2705 141.697 96.5865 141.697 98.852C141.697 102.649 140.503 105.291 137.823 107.417C137.603 107.586 137.415 107.766 137.227 107.936C136.693 108.433 136.221 108.863 135.447 108.863C135.143 108.863 134.902 108.555 134.798 108.249C134.714 107.982 134.693 107.604 134.944 107.419C140.2 103.477 139.582 99.0907 139.069 97.3874C138.671 96.0525 137.991 95.0977 137.624 95.0747C136.012 94.9742 134.861 95.4443 134.012 96.553C133.772 96.8848 133.803 97.2272 133.835 97.5884C133.845 97.7842 133.866 97.9873 133.835 98.1977C133.719 99.0635 133.615 99.7461 133.52 100.429C133.416 101.12 133.322 101.811 133.196 102.688C133.164 102.893 133.164 103.091 133.154 103.283C133.144 103.784 133.123 104.216 132.746 104.557C132.118 105.127 131.437 105.114 130.641 105.098C130.202 105.09 129.752 105.081 129.259 105.176C128.61 105.301 128.066 105.473 127.553 105.638C126.747 105.895 125.993 106.138 124.946 106.138C124.255 106.138 123.753 105.906 123.219 105.663C122.695 105.423 122.151 105.174 121.418 105.174C120.109 105.174 119.324 106.707 118.968 107.622L118.937 107.691L119 107.732C122.256 109.719 124.674 112.538 125.826 114.042C127.448 116.171 128.548 118.247 128.548 119.212V131.805H128.935C130.62 131.803 131.741 131.802 133.332 132.408C133.144 132.824 132.086 134.805 128.317 137.098C127.427 137.632 125.166 145.693 122.727 154.624C122.256 156.33 121.847 157.817 121.554 158.853C121.46 159.188 120.047 164.528 119.523 166.517C119.408 166.967 119.335 167.25 119.335 167.271L119.094 170.191L119.293 169.867L119.387 169.71C119.91 168.82 120.434 167.815 120.947 166.831C122.224 164.371 123.543 161.837 124.643 161.628C124.925 161.575 125.585 161.827 125.972 161.973C126.349 162.12 126.401 162.141 126.464 162.078L126.496 162.036L126.485 161.984C126.234 161.366 126.914 156.602 128.401 155.692C128.872 155.409 129.385 155.576 129.919 156.184L129.961 156.225L130.003 156.215C130.076 156.205 130.076 156.205 130.39 155.44C131.06 153.797 132.85 149.452 134.002 149.337C134.17 149.326 134.327 149.421 134.463 149.619L134.505 149.672L134.567 149.661C134.662 149.64 134.672 149.64 135.101 147.128C135.29 146.008 135.478 144.856 135.614 144.238C135.855 143.149 136.944 142.354 138.211 142.354C138.294 142.354 138.294 142.343 138.326 142.029C138.839 136.983 139.949 135.126 140.786 134.452C141.184 134.131 141.624 133.996 142.095 134.051L142.189 134.061V133.965C142.21 133.473 142.22 133.054 142.231 132.658C142.252 131.886 142.262 131.217 142.356 130.282C142.576 128.008 143.288 126.881 144.513 126.836L144.597 126.832V126.748C144.597 125.779 144.471 125.021 144.356 124.289C144.241 123.564 144.115 122.812 144.115 121.857C144.115 120.659 145.298 119.943 146.429 119.943H146.534L145.078 108.798C145.351 107.764 145.989 107.228 146.722 106.61C147.015 106.365 147.319 106.11 147.612 105.808C148.408 105.014 149.025 104.357 149.622 103.72C150.219 103.086 150.837 102.429 151.622 101.639L151.8 101.461L151.548 101.487C149.968 101.656 147.884 101.871 146.471 102.006C146.01 102.05 145.612 102.086 145.34 102.109C145.256 102.115 145.183 102.121 145.12 102.126L145.298 102L150.24 98.561H144.178L147.56 91.8345L147.382 91.869C147.183 91.9057 147.005 91.9496 146.827 91.9957C146.272 92.1391 145.801 92.3182 145.33 92.492C144.691 92.7328 144.084 92.962 143.32 93.0918C143.225 93.1055 143.142 93.1201 143.058 93.1327L145.79 87.3453L145.612 87.3809C145.183 87.4636 144.817 87.5494 144.461 87.6321C143.55 87.8405 142.765 88.0206 141.624 88.0206C141.582 88.0206 141.55 87.9965 141.508 87.9567C141.477 87.9347 141.446 87.9085 141.414 87.8897C141.624 87.2867 141.885 86.7904 142.137 86.3109C142.576 85.4818 142.995 84.6997 142.995 83.5408C142.995 82.3305 142.576 81.5066 142.126 80.6366C141.864 80.1257 141.603 79.596 141.383 78.9448C141.289 78.6516 141.215 78.3616 141.142 78.0821C140.901 77.1399 140.692 76.3254 139.739 75.8469C139.289 75.6229 138.87 75.4177 138.472 75.223C136.871 74.4378 135.614 73.8169 133.814 72.8025C133.52 72.6402 133.164 72.568 132.829 72.4999C132.18 72.3649 131.772 72.2549 131.772 71.7576C131.772 70.9672 131.071 70.716 130.39 70.471C130.076 70.36 129.752 70.2438 129.49 70.0784C128.757 69.6198 128.192 69.2042 127.647 68.8011C127.103 68.396 126.537 67.9751 125.794 67.5124C125.532 67.3511 125.271 67.214 125.009 67.0789C124.171 66.6445 123.449 66.2676 123.271 65.3285L123.261 65.2615L104.803 63.8157L100.691 63.4922ZM159.536 73.0516C158.563 73.0516 158.008 73.5793 157.411 74.1373C157.097 74.4304 156.773 74.732 156.364 74.9885C155.705 75.4051 155.139 75.7715 154.595 76.1149C153.36 76.9075 152.292 77.5921 150.753 78.5155C147.633 80.3728 145.173 81.8385 144.178 85.6116L144.126 85.8241L149.235 82.7304C149.392 83.2393 149.35 83.7166 149.308 84.1783C149.256 84.773 149.193 85.3865 149.601 86.0125L149.664 86.1131L153.129 82.1808C153.14 83.7449 152.02 86.3832 151.999 86.4114L151.873 86.7014L156.804 83.2089L153.925 88.634L157.579 86.2512L151.768 95.8704L152.072 95.6882C152.355 95.5238 152.606 95.372 152.836 95.2307C154.166 94.4235 154.92 93.966 156.584 93.4761L152.878 102.661L153.087 102.559C154.752 101.733 155.537 100.644 156.459 99.3828C156.804 98.9044 157.17 98.4092 157.6 97.8868C158.196 97.1728 158.814 96.6608 159.4 96.1667C160.301 95.4097 161.159 94.6936 161.787 93.3777C162.52 91.8387 162.593 90.5394 162.677 89.1638C162.719 88.4215 162.771 87.6541 162.918 86.781C163.054 85.91 163.253 85.198 163.452 84.5092C163.756 83.4549 164.038 82.4593 164.038 81.0742C164.038 79.6692 163.515 78.7291 162.96 77.7324C162.667 77.2027 162.363 76.6551 162.101 75.9945C162.06 75.8836 162.018 75.7726 161.976 75.6606C161.484 74.3781 160.96 73.0516 159.536 73.0516ZM59.2904 73.1113L59.2486 73.1134C58.4079 73.1343 57.7023 73.1396 57.0186 73.1459C55.7131 73.1574 54.5866 73.1668 52.9942 73.2725C52.8571 73.282 52.722 73.2893 52.5891 73.2977C51.2249 73.3772 50.0482 73.4474 49.24 74.5938C48.7469 75.2879 48.4653 75.9181 48.1931 76.5274C47.9229 77.1336 47.6424 77.7618 47.1545 78.4402C46.4007 79.4787 45.8029 80.2995 45.202 81.1234C44.6199 81.9222 44.0378 82.7252 43.3081 83.7303C43.1197 83.9951 42.904 84.2108 42.6988 84.4191C42.2612 84.863 41.8477 85.2818 41.8477 86.0272C41.8477 87.63 42.0696 88.7461 42.324 90.039C42.4329 90.5876 42.5449 91.155 42.6517 91.8115C42.7574 92.448 42.7187 93.0186 42.68 93.5703C42.6192 94.4528 42.5627 95.2862 43.1469 96.175C43.6306 96.9026 44.3069 97.0911 45.024 97.289C45.47 97.4125 45.9307 97.5413 46.3798 97.8072C48.9081 99.3221 51.0093 100.345 53.0414 101.336C55.0692 102.325 57.1652 103.349 59.6862 104.859L59.7971 104.722L52.8833 97.3382H53.1398L59.3742 100.375L59.4778 100.234L52.4362 92.7233L58.9177 93.6499L58.9648 93.4782C56.469 92.4825 54.7206 91.5089 52.8697 90.4787C51.7547 89.8579 50.5999 89.2161 49.1908 88.5116C48.5501 88.1912 47.9376 87.9839 47.344 87.7829C46.1432 87.3767 45.1046 87.0249 44.2995 85.8796C46.0437 84.3008 46.8383 82.7954 47.7575 81.0585C48.2307 80.1634 48.7218 79.2369 49.3876 78.2193C49.641 77.8256 49.7886 77.4382 49.9309 77.0614C50.1634 76.4479 50.3633 75.9181 50.9632 75.5213C51.361 75.2648 51.7285 75.3046 52.1536 75.3517C52.4216 75.3821 52.6969 75.4135 53.011 75.3748C53.3439 75.3297 53.6475 75.2879 53.9323 75.2481C54.9164 75.1109 55.6911 75.001 56.8323 74.8921L62.2082 75.7328L62.0439 75.5465C61.5549 74.9947 61.0912 74.6419 60.642 74.2996H60.6399C60.217 73.9761 59.7794 73.6432 59.3166 73.1417L59.2904 73.1113ZM113.294 107.307C111.493 107.307 110.928 109.17 110.247 110.834C110.153 111.054 109.808 111.427 109.305 111.887C107.913 113.186 105.369 115.187 104.311 116.445V120.614H106.395C113.472 120.614 117.126 124.6 122.109 129.591C121.774 127.927 122.109 126.826 121.47 125.262C120.643 123.298 118.623 123.218 117.785 121.254L121.952 123.659C120.863 121.595 119.701 120.693 117.942 119.171C119.827 118.99 120.968 119.771 122.434 120.933C121.073 118.369 119.345 117.466 116.822 115.964C118.864 115.764 120.067 116.344 121.952 117.085C120.266 115.402 118.843 114.88 116.654 113.879C117.544 113.538 118.099 113.239 119.062 113.239C120.612 113.239 121.282 113.858 122.769 114.239C122.758 114.218 122.737 114.196 122.727 114.175C121.292 112.096 115.534 107.307 113.294 107.307ZM93.0788 107.481C91.0373 107.481 88.397 110.146 86.4612 112.188C85.9263 112.752 85.4447 113.269 85.0458 113.668C85.0458 113.668 85.9242 112.917 87.4673 112.917C88.4295 112.917 88.8325 113.714 89.714 114.054C87.4694 115.096 86.0069 115.679 84.2627 117.422C86.0069 116.38 87.2087 115.979 89.2335 115.979C89.3738 115.979 89.4345 116.138 89.5549 116.138C87.0297 117.641 85.3044 118.544 83.9413 121.109C85.3243 120.006 86.3272 119.185 88.1112 119.185C88.2515 119.185 88.3122 119.344 88.4316 119.344C86.6089 120.908 85.585 121.99 84.2627 123.994L88.5122 121.428C87.951 123.453 85.8069 123.534 84.9045 125.438C84.1831 126.961 84.5642 128.104 84.2627 129.767C89.2523 124.777 92.8977 120.788 99.9739 120.788H102.057V116.94C102.057 115.926 99.7676 114.391 97.4623 111.898C97.4424 111.876 97.4236 111.854 97.4037 111.832C95.8124 110.098 95.4637 107.481 93.0788 107.481Z" fill="#908C89"/>
<path d="M77.0294 96.293C76.9991 97.254 76.7866 97.7555 77.2545 98.6737C77.9549 100.037 79.3976 100.117 80.9407 100.117C81.4412 100.117 81.7636 99.9363 82.2253 99.796C81.8034 99.4756 81.5438 99.2746 81.102 98.994C81.2831 98.8747 81.3365 98.6873 81.5029 98.5135C81.5155 98.502 82.2871 99.1165 83.0241 99.3154C83.3476 99.4023 83.5727 99.0726 83.7664 98.7595L77.0294 96.293ZM129.311 96.3715L122.37 99.2945C123.071 100.16 123.94 100.65 125.113 100.65C126.002 100.65 126.557 100.529 127.363 100.168C126.945 99.8473 126.683 99.6473 126.243 99.3667C126.243 99.3657 126.631 98.8653 126.641 98.8862C126.672 98.9354 127.342 99.5238 128.159 99.6871C129.175 99.8881 129.258 97.3525 129.311 96.3715Z" fill="#77B5E6"/>
<path d="M74.6895 95.3086C75.2496 96.7513 75.0496 97.7919 75.8118 99.155C76.8545 100.999 78.4961 101.721 80.6213 101.721C82.7623 101.721 84.1652 100.901 85.5858 99.3225C85.5869 99.3194 85.5879 99.3173 85.59 99.3162C85.5816 99.3141 85.5754 99.311 85.567 99.3078L85.5691 99.3057C84.9053 99.0472 84.6185 98.7373 83.9453 98.4797C83.8877 98.5614 83.8291 98.6608 83.7673 98.7603C83.5736 99.0733 83.3486 99.4031 83.0251 99.3162C82.288 99.1173 81.5154 98.5028 81.5039 98.5143C81.3374 98.6881 81.284 98.8755 81.1029 98.9948C81.5447 99.2754 81.8043 99.4764 82.2263 99.7968C81.7646 99.937 81.4421 100.118 80.9417 100.118C79.3985 100.118 77.9559 100.038 77.2555 98.6745C76.7875 97.7563 77 97.2548 77.0304 96.2937C77.0325 96.2267 77.0346 96.1629 77.0346 96.0896C77.0346 96.0666 74.6895 95.3086 74.6895 95.3086ZM131.332 95.4803C131.311 95.5023 129.343 96.0582 129.333 96.0896C129.333 96.1556 129.322 96.255 129.312 96.3723C129.259 97.3532 129.176 99.8889 128.16 99.6879C127.343 99.5246 126.673 98.9362 126.642 98.887C126.632 98.866 126.244 99.3665 126.244 99.3675C126.684 99.6481 126.946 99.8481 127.364 100.168C126.558 100.53 126.003 100.651 125.113 100.651C123.941 100.651 123.072 100.161 122.371 99.2953C122.308 99.223 122.245 99.1529 122.193 99.0754C122.182 99.066 122.182 99.0576 122.172 99.0482C122.046 99.1215 121.92 99.1864 121.805 99.2513C121.512 99.4104 121.25 99.5549 120.978 99.7088C120.811 99.802 120.643 99.8983 120.465 100.009C121.01 100.365 121.481 100.713 121.952 101.026C122.988 101.733 123.962 102.255 125.438 102.255C128.987 102.255 130.83 98.9875 131.332 95.4803ZM103.567 101.271C100.6 101.271 99.0765 102.514 96.1912 103.195C96.9324 103.936 97.214 104.96 98.2766 104.96H108.541C109.598 104.96 109.42 104.139 110.153 103.397C107.651 102.075 106.415 101.271 103.567 101.271ZM106.196 127.084C105.138 127.084 104.196 127.864 104.196 128.926C104.196 130.851 105.421 131.713 106.122 133.496C106.824 131.713 108.038 130.851 108.038 128.926C108.038 127.903 107.222 127.084 106.196 127.084ZM101.816 127.551C100.934 127.551 99.9716 127.952 99.9716 128.832V131.078C101.013 131.88 101.414 132.701 101.735 133.963C102.436 132.179 103.662 131.316 103.662 129.393C103.662 128.37 102.838 127.551 101.816 127.551ZM110.635 127.71C110.069 127.71 109.692 127.87 109.274 128.19V130.756C109.274 132.681 110.875 133.401 111.357 135.245C111.64 133.823 111.954 133 112.634 131.717V128.349C111.838 128.151 111.451 127.71 110.635 127.71ZM97.2213 127.724C96.3995 127.724 95.9587 128.046 95.2175 128.366V130.129C95.2175 132.133 96.0383 133.156 96.5 135.1C97.1805 133.377 98.5834 132.636 98.5834 130.771V127.744C98.062 127.824 97.7626 127.724 97.2213 127.724ZM92.9719 128.688C90.588 128.688 88.4848 130.47 88.4848 132.854C88.4848 137.528 90.8079 140.145 94.0952 143.433L93.1321 136.46C93.2922 134.437 94.2544 133.436 94.2544 131.413V129.327C93.8335 128.987 93.5341 128.688 92.9719 128.688ZM114.718 128.832C114.058 128.832 113.44 129.292 113.44 129.953V131.397C113.44 133.461 114.56 134.543 114.56 136.607C114.56 139.35 114.037 140.857 113.597 143.579C116.602 140.009 119.209 137.664 119.209 133C119.209 130.615 117.104 128.832 114.718 128.832ZM95.964 161.052C94.5203 165.386 93.8806 167.972 93.8806 172.516C93.8806 174.086 94.3957 175.971 95.964 175.971H97.4077C97.8495 175.971 98.1479 175.688 98.3688 175.322L95.964 161.052ZM112.791 161.052L110.394 175.646C110.75 175.782 110.949 175.971 111.357 175.971H113.283C114.215 174.84 114.885 174.003 114.885 172.516C114.885 167.972 114.718 165.188 112.791 161.052ZM104.458 170.192C104.06 171.699 102.857 172.317 102.857 173.877V176.432C103.798 176.411 104.343 176.61 105.264 176.442C106.342 176.264 106.049 174.819 106.07 173.72C106.101 172.223 105.002 171.574 104.458 170.192ZM100.452 170.359C99.9915 171.375 99.0105 171.773 99.0105 172.924C99.0105 174.327 99.0304 175.301 99.8125 176.442H102.215V173.72C102.215 172.233 101.253 171.574 100.452 170.359ZM108.31 170.359C107.745 171.553 106.709 172.055 106.709 173.395V176.432C107.19 176.369 107.483 176.442 107.986 176.442C109.514 176.442 109.755 174.442 109.755 172.924C109.755 171.773 108.928 171.302 108.31 170.359Z" fill="white"/>
</g>
<defs>
<clipPath id="clip0_154_2373">
<rect width="200" height="200" fill="white"/>
</clipPath>
</defs>
</svg>
