<svg width="200" height="200" viewBox="0 0 200 200" fill="none" xmlns="http://www.w3.org/2000/svg">
<g clip-path="url(#clip0_154_2381)">
<path d="M176.439 122.94C175.711 112.355 172.063 105.171 170.287 102.243C175.407 104.851 176.071 105.139 176.071 105.139L176.111 104.627C177.375 84.8503 161.95 75.1299 160.806 74.4338C154.542 62.0973 143.974 54.649 141.302 52.905C144.83 50.9849 148.614 49.0168 149.366 48.6248L149.734 48.4328L149.486 48.0968C138.014 32.6322 120.565 30.9601 113.605 30.9601C112.188 30.9601 111.124 31.0241 110.516 31.0801C111.556 26.7519 112.581 23.6718 112.589 23.6398L112.725 23.2398L112.3 23.1758C108.404 22.6238 104.636 22.3438 101.108 22.3438C87.8115 22.3438 79.5712 26.3359 75.003 29.688C71.4669 32.2801 69.5148 34.9043 68.6748 36.2323C68.0107 32.4242 67.8027 30.7841 67.7947 30.7121L67.7387 30.2561L67.3067 30.4241C54.5222 35.5523 51.9541 46.3607 51.4741 49.5848C50.834 47.6488 50.394 46.1847 50.378 46.1127L50.21 45.5447L49.786 45.9607C46.6579 49.0248 44.6898 52.961 43.9458 57.6652C39.4816 59.4412 33.2253 63.2254 28.5531 71.1937C28.2731 71.6417 27.5211 72.8818 26.6891 74.8019C24.529 79.666 21.4649 89.7225 25.201 102.427C26.2971 106.163 27.9931 109.851 30.1772 113.219L35.3614 120.572L41.2177 103.867H61.2264C61.9465 104.915 61.8425 106.947 57.6903 110.755C57.6903 110.755 52.7461 115.251 52.6901 115.299C51.098 116.708 48.4179 119.348 46.0738 122.94H7.05628L0 151.341H44.8418C44.8418 152.109 44.8578 152.877 44.9058 153.653L44.9378 154.109L45.4338 153.949C46.5539 153.581 49.594 152.581 53.3781 151.341H64.4586C58.9624 156.501 54.3782 160.477 54.3142 160.525L53.8502 160.933L54.4342 161.133C61.4185 163.557 68.7788 164.789 76.3151 164.789C85.6594 164.789 92.7957 162.901 95.8358 161.933C92.5077 167.286 84.9874 176.55 84.9154 176.646L84.4994 177.15L85.1474 177.222C87.7555 177.51 90.3636 177.654 92.8997 177.654C104.204 177.654 114.629 174.894 123.885 169.454C131.925 164.725 136.269 159.629 137.694 157.757C139.382 165.293 140.494 169.91 140.622 170.422L140.734 170.902L141.15 170.646C150.558 164.813 156.078 157.773 159.318 151.341H192.944L200 122.94H176.439Z" fill="#041E42"/>
<path d="M88.6914 92.7705C87.1793 82.6501 75.8429 80.522 67.3705 80.754C68.1385 76.6659 67.9065 72.0177 66.0505 68.2495C63.6104 63.3133 58.4902 61.4332 53.25 61.4652C44.7456 61.8493 37.3213 67.2495 33.1211 74.4578C33.1211 74.4578 23.1607 89.4344 34.1292 109.347C34.5452 106.035 35.2092 102.715 36.3133 99.5628C37.3213 96.6827 39.1214 92.3545 42.6895 92.0585C49.0498 91.6825 55.434 91.5304 61.8023 91.5464C70.7066 91.5785 80.155 91.5704 88.8034 93.9305C88.7874 93.6025 88.7554 93.2105 88.6914 92.7705ZM58.9462 74.1938C58.6342 74.6418 58.0101 75.2258 57.0101 74.8658C55.226 74.1858 53.586 72.8657 52.8099 71.0896C52.8099 71.0896 51.1379 68.0175 53.746 67.3055C54.538 70.0736 56.6581 72.4497 59.1942 73.7537C59.1942 73.7537 59.1142 73.9617 58.9462 74.1938Z" fill="#A2AAAD"/>
<path d="M122.876 90.7405C123.284 91.9965 123.756 93.6686 124.164 95.7087V95.7327C124.476 97.2767 124.748 99.0288 124.932 100.973C124.932 100.981 124.94 100.997 124.94 101.013C125.612 108.077 124.9 115.253 123.052 122.094C117.86 112.709 109.972 103.845 100.595 98.5248C100.603 98.5008 100.603 98.4848 100.603 98.4608C101.691 92.7805 107.06 90.1164 112.34 89.4924C114.868 89.2844 117.5 89.2044 119.372 89.4844C119.116 84.4762 116.692 79.444 113.26 75.8519C116.3 74.7398 119.452 73.5958 122.676 73.1398C120.676 67.4515 115.932 62.6033 110.468 60.1792C111.748 57.6191 113.1 54.979 114.876 52.7149C114.876 52.7149 102.907 46.3387 90.9789 55.139C91.2749 52.3469 91.7149 49.3308 92.339 47.3067C92.339 47.3067 75.6343 45.2426 68.418 62.9874C65.3619 59.4192 60.5537 57.6511 56.0255 56.9151C55.8655 50.6589 58.0496 43.8906 63.7538 40.6265C63.7538 40.6265 65.1219 46.4347 67.05 48.4908C67.05 48.4908 78.2984 27.914 102.635 29.554C102.635 29.554 101.811 32.2981 100.715 38.3304C100.715 38.3304 123.492 33.1222 138.029 46.5627C138.029 46.5627 133.197 49.3308 127.948 52.3069C144.453 59.3232 150.477 71.6117 150.477 71.6117C140.661 71.0917 129.324 74.3558 125.66 75.5079C135.397 80.8921 147.181 90.2604 151.653 105.333C151.661 105.357 141.413 94.1486 122.876 90.7405ZM150.213 90.9405C161.214 104.909 162.262 118.598 162.262 118.598C164.486 120.142 166.462 121.678 168.014 122.934H171.182C168.566 99.7168 150.213 90.9405 150.213 90.9405ZM147.429 77.3479C157.55 84.4042 160.254 90.8845 160.254 90.8845C165.214 92.9646 169.166 95.4927 169.166 95.4927C164.71 77.2999 147.429 77.3479 147.429 77.3479ZM130.989 112.845C130.749 116.253 130.196 119.638 129.316 122.942H135.269C134.277 119.774 132.877 116.413 130.989 112.845ZM110.756 151.343C108.756 158.167 105.339 164.607 100.875 170.144C112.3 167.352 124.788 161.095 131.749 151.343H110.756ZM76.7543 151.343C74.6263 153.327 72.3222 155.335 69.8021 157.359C79.9065 157.175 90.5309 155.511 99.8113 151.343H76.7543ZM114.22 120.726C110.588 115.445 106.044 110.765 100.827 107.037C100.787 110.725 100.107 116.221 97.4272 122.942H115.66C115.188 122.182 114.708 121.438 114.22 120.726ZM131.229 99.2928C134.533 103.021 140.525 111.141 143.029 122.942H155.549C150.901 110.549 137.845 102.629 131.229 99.2928ZM143.877 151.343C144.349 153.831 144.757 156.327 145.093 158.839C147.341 156.263 149.221 153.759 150.789 151.343H143.877ZM70.9941 122.942H89.1868C90.0669 121.014 90.8189 118.982 91.1869 116.894C84.1226 117.542 77.2024 119.478 70.9941 122.942ZM52.6094 122.942H56.6015C57.6816 120.854 58.8816 118.822 60.1617 116.846C57.3456 118.414 54.7295 120.51 52.6094 122.942Z" fill="#1F355E"/>
<path d="M84.5227 99.4116H64.0338C62.4178 99.3636 61.0017 99.3476 59.8337 99.4036C59.7937 99.4116 59.7457 99.4116 59.6977 99.4116H42.017C42.633 96.2275 44.7931 96.0995 44.7931 96.0995C45.6171 95.9395 48.1052 95.9075 49.6813 95.8355C55.9055 95.7315 62.1458 95.7395 68.37 96.0915C71.3701 96.2595 74.3783 96.4915 77.3464 96.9635C79.5705 97.3155 82.4346 97.6595 84.2427 99.1476C84.3467 99.2276 84.4427 99.3236 84.5227 99.4116ZM26.5763 125.765C25.2083 125.765 24.6083 126.373 24.0322 127.413L20.1041 134.893L19.7441 128.149C19.6721 126.677 19.256 125.765 17.384 125.765H9.26365L3.60742 148.51H11.2317L13.5918 138.997L14.1118 146.205C14.2158 147.63 14.6399 148.518 16.3839 148.518H18.104C19.3281 148.518 19.9201 147.902 20.4881 146.902L24.8003 139.333L22.5282 148.51H30.2725L35.9287 125.765H26.5763ZM54.2654 127.117C53.3294 126.181 51.8093 125.765 49.3213 125.765H43.793C41.5369 125.765 39.8089 126.101 38.1528 127.749C37.0408 128.861 35.4167 130.957 34.1366 136.285C32.8326 141.765 33.0886 145.325 34.9207 147.158C35.8567 148.094 37.3848 148.51 39.8649 148.51H45.3931C47.6492 148.51 49.3773 148.174 51.0333 146.525C52.1454 145.413 53.7774 143.317 55.0495 137.989C56.3615 132.509 56.1055 128.949 54.2654 127.117ZM47.0412 136.949C46.3211 139.845 45.7451 141.533 45.3211 141.949C45.2651 141.981 45.0811 142.029 44.3611 142.029H42.337C41.7609 142.029 41.4889 142.005 41.3689 141.981C41.3289 141.677 41.3129 140.621 42.137 137.333C42.857 134.429 43.441 132.749 43.857 132.325C43.913 132.293 44.097 132.253 44.8171 132.253H46.8412C47.4092 132.253 47.6812 132.277 47.8012 132.301C47.8492 132.621 47.8412 133.685 47.0412 136.949ZM80.4665 125.765L74.8103 148.51H70.3781C68.354 148.51 67.37 147.87 66.7299 146.141L63.6898 137.693L61.0257 148.51H53.2494L58.9056 125.765H64.3939C66.3539 125.765 67.386 126.445 67.954 128.117L70.3941 135.229L72.6822 125.765H80.4665ZM108.444 125.765L102.787 148.51H95.0511L97.3232 139.325L93.003 146.894C92.443 147.886 91.843 148.51 90.6189 148.51H88.8988C87.1468 148.51 86.7307 147.63 86.6267 146.197L86.1067 138.989L83.7466 148.502H76.1223L81.7785 125.757H89.8989C91.771 125.757 92.195 126.669 92.267 128.141L92.619 134.885L96.5471 127.405C97.1232 126.357 97.7232 125.757 99.0912 125.757H108.444V125.765ZM126.78 127.117C125.844 126.181 124.324 125.765 121.836 125.765H116.308C114.052 125.765 112.324 126.101 110.668 127.749C109.556 128.861 107.932 130.957 106.652 136.285C105.347 141.765 105.596 145.325 107.436 147.158C108.372 148.094 109.892 148.51 112.38 148.51H117.908C120.164 148.51 121.892 148.174 123.548 146.525C124.66 145.413 126.292 143.317 127.564 137.989C128.876 132.509 128.62 128.949 126.78 127.117ZM119.556 136.949C118.836 139.845 118.252 141.533 117.836 141.949C117.78 141.981 117.596 142.029 116.876 142.029H114.852C114.276 142.029 114.012 142.005 113.884 141.981C113.844 141.677 113.828 140.621 114.652 137.333C115.372 134.429 115.948 132.749 116.372 132.325C116.428 132.293 116.612 132.253 117.332 132.253H119.356C119.924 132.253 120.196 132.277 120.316 132.301C120.364 132.621 120.356 133.685 119.556 136.949ZM152.429 125.765L149.037 139.413C147.797 144.365 146.901 145.549 145.869 146.581C144.253 148.198 142.413 148.51 139.597 148.51H135.005C131.765 148.51 129.996 148.054 128.884 146.942C127.476 145.533 127.316 143.013 128.372 138.781L131.605 125.757H139.741L136.357 139.373C136.037 140.709 135.981 141.253 135.989 141.461C136.205 141.509 136.669 141.533 137.365 141.533H138.813C139.493 141.533 140.085 141.533 140.213 141.405C140.373 141.245 140.573 140.781 141.005 139.029L144.301 125.765H152.429ZM173.95 125.765C173.406 127.933 172.846 130.101 172.31 132.277H166.054C164.71 137.685 163.374 143.101 162.03 148.51H153.893C155.229 143.101 156.574 137.685 157.918 132.277H151.805C152.349 130.109 152.893 127.933 153.445 125.765H173.95ZM196.391 125.765C194.503 133.349 192.623 140.933 190.735 148.51H182.599C183.271 145.781 183.951 143.045 184.623 140.317H179.366C178.694 143.045 178.006 145.773 177.342 148.51H169.206C171.118 140.933 172.974 133.341 174.862 125.765H182.999C182.327 128.421 181.671 131.085 180.999 133.741H186.255C186.919 131.085 187.583 128.421 188.247 125.765H196.391Z" fill="#55565A"/>
<path d="M101.925 68.7072C99.6686 75.9715 93.3484 80.2277 85.6201 80.0837C82.4039 78.2436 79.0118 77.1395 76.1957 76.4835C75.4036 75.6755 74.6916 74.7154 74.2436 73.6754C75.1316 73.1954 76.0277 72.7394 76.9317 72.2993C77.7797 75.3555 80.3478 76.6835 82.6839 76.6915C86.6441 76.7155 90.3002 72.5234 87.9721 67.9472C92.6203 66.5711 97.6605 65.6191 102.509 66.3871C102.357 67.2111 102.157 67.9792 101.925 68.7072ZM14.9052 146.15C14.9932 147.358 15.2412 147.718 16.3853 147.718H18.1054C18.8894 147.718 19.2814 147.414 19.8014 146.51L26.4177 134.902H26.7217L23.5456 147.718H29.6498L34.906 126.558H26.5697C25.6337 126.558 25.2416 126.862 24.7296 127.798L19.7134 137.35H19.4414L18.9534 128.19C18.8974 126.918 18.6174 126.558 17.3853 126.558H9.88902L4.63281 147.718H10.6171L13.7932 134.902H14.0972L14.9052 146.15ZM39.8662 147.718C37.1781 147.718 36.0901 147.206 35.482 146.598C34.09 145.206 33.514 142.31 34.906 136.47C36.1781 131.182 37.7781 129.246 38.7142 128.31C40.1382 126.886 41.5863 126.558 43.7944 126.558H49.3306C52.0187 126.558 53.1068 127.07 53.7148 127.678C55.1068 129.07 55.6749 131.966 54.2908 137.806C53.0187 143.094 51.4187 145.03 50.4826 145.966C49.0586 147.39 47.6105 147.718 45.4024 147.718H39.8662ZM40.7703 142.55C40.9543 142.734 41.2263 142.822 42.3383 142.822H44.3624C45.2984 142.822 45.6345 142.766 45.8745 142.518C46.1145 142.278 46.6585 141.766 47.8105 137.134C48.8986 132.694 48.6266 131.934 48.4186 131.726C48.2346 131.542 47.9625 131.454 46.8425 131.454H44.8184C43.8824 131.454 43.5464 131.518 43.3064 131.758C43.0663 131.998 42.5223 132.51 41.3703 137.142C40.2582 141.582 40.5623 142.342 40.7703 142.55ZM74.1956 147.718H70.3874C68.6994 147.718 68.0033 147.262 67.4833 145.878L63.6432 135.206H63.4912L60.411 147.718H54.2748L59.531 126.558H64.3952C66.0273 126.558 66.7553 127.046 67.2033 128.374L70.4354 137.806H70.5875L73.3076 126.566H79.4438L74.1956 147.718ZM86.6041 134.902H86.3001L83.124 147.718H77.1397L82.3959 126.558H89.8922C91.1323 126.558 91.4043 126.918 91.4603 128.19L91.9483 137.35H92.2203L97.2365 127.798C97.7485 126.862 98.1486 126.558 99.0846 126.558H107.429L102.173 147.718H96.0685L99.2446 134.902H98.9406L92.3243 146.51C91.8123 147.414 91.4203 147.718 90.6283 147.718H88.9082C87.7561 147.718 87.5161 147.358 87.4281 146.15L86.6041 134.902ZM112.381 147.718C109.693 147.718 108.605 147.206 107.997 146.598C106.605 145.206 106.029 142.31 107.421 136.47C108.693 131.182 110.293 129.246 111.229 128.31C112.653 126.886 114.101 126.558 116.309 126.558H121.838C124.526 126.558 125.614 127.07 126.222 127.678C127.614 129.07 128.182 131.966 126.798 137.806C125.526 143.094 123.926 145.03 122.99 145.966C121.573 147.39 120.117 147.718 117.909 147.718H112.381ZM113.285 142.55C113.469 142.734 113.741 142.822 114.861 142.822H116.885C117.821 142.822 118.157 142.766 118.397 142.518C118.637 142.278 119.181 141.766 120.333 137.134C121.421 132.694 121.149 131.934 120.941 131.726C120.757 131.542 120.485 131.454 119.365 131.454H117.341C116.405 131.454 116.069 131.518 115.829 131.758C115.589 131.998 115.045 132.51 113.893 137.142C112.773 141.582 113.077 142.342 113.285 142.55ZM135.574 139.198C135.118 141.07 135.094 141.766 135.366 142.038C135.606 142.278 136.15 142.342 137.358 142.342H138.806C139.838 142.342 140.406 142.342 140.774 141.982C141.078 141.678 141.286 141.198 141.774 139.23L144.918 126.566H151.415L148.271 139.23C147.095 143.918 146.278 145.062 145.31 146.03C143.886 147.454 142.318 147.718 139.598 147.718H135.006C132.046 147.718 130.382 147.326 129.446 146.39C128.334 145.27 128.118 143.094 129.142 138.982L132.222 126.558H138.718L135.574 139.198ZM165.439 131.486L161.423 147.718H154.919L158.935 131.486H152.831L154.071 126.558H172.928L171.688 131.486H165.439ZM190.12 147.718H183.616L185.64 139.526H178.752L176.728 147.718H170.231L175.488 126.558H181.984L179.992 134.542H186.888L188.88 126.558H195.376L190.12 147.718Z" fill="white"/>
</g>
<defs>
<clipPath id="clip0_154_2381">
<rect width="200" height="200" fill="white"/>
</clipPath>
</defs>
</svg>
