<svg width="200" height="200" viewBox="0 0 200 200" fill="none" xmlns="http://www.w3.org/2000/svg">
<g clip-path="url(#clip0_154_2375)">
<path d="M53.8282 46.3398C53.8282 46.3398 53.9509 48.8148 54.967 52.0232H54.9723C57.538 52.6206 58.2501 52.5913 66.459 56.5144C75.7668 60.9683 95.0518 57.4718 95.0518 57.4718L94.9585 57.4265L94.8331 57.3678C89.8112 57.2425 75.4281 56.7251 70.7876 54.8929C64.8802 52.5699 62.1945 49.4335 53.8282 46.3398ZM113.899 46.9292C97.2547 46.8332 84.2345 50.6044 78.3511 52.6846C80.4474 53.3434 82.7357 53.9941 84.9706 54.5862C90.6779 52.5726 103.466 49.2522 113.187 49.0868C136.097 48.6895 154.886 57.2718 153.942 56.7491C153 56.2344 136.809 47.0733 113.899 46.9292ZM128.408 59.9788C128.48 59.9841 128.562 59.9868 128.648 60.0028C130.789 60.2642 135.009 61.1443 135.782 64.0033C136.819 67.8678 138.454 72.1003 143.519 73.8658C143.959 74.0178 144.38 74.1245 144.794 74.2099C146.941 74.6632 148.701 74.2419 150.056 73.4391C150.066 73.4338 150.077 73.4311 150.088 73.4231C150.237 73.3351 150.378 73.2364 150.514 73.1404C150.541 73.1217 150.576 73.0977 150.602 73.0791C150.725 72.9884 150.84 72.8977 150.957 72.8017C150.995 72.7697 151.037 72.7323 151.077 72.6977C151.176 72.607 151.272 72.5217 151.368 72.4336C151.416 72.3883 151.461 72.335 151.509 72.2923C151.592 72.2096 151.672 72.1216 151.749 72.0309C151.803 71.9723 151.851 71.9082 151.904 71.8496C151.968 71.7696 152.032 71.6949 152.093 71.6149C152.149 71.5375 152.205 71.4629 152.259 71.3855C152.307 71.3162 152.352 71.2522 152.395 71.1882C152.453 71.0868 152.512 70.9961 152.565 70.8948C152.597 70.8468 152.624 70.7988 152.656 70.7454C152.736 70.6014 152.816 70.4521 152.88 70.3134C152.861 70.3001 152.845 70.2974 152.827 70.2921C152.389 70.164 151.96 70.0307 151.531 69.884C151.531 69.884 151.269 70.4707 150.602 71.0415C149.669 71.8389 147.901 72.6177 144.826 71.7456C139.558 70.2574 138.484 64.8541 138.081 64.0673C138.057 64.0166 138.025 63.9553 137.993 63.8699C137.972 63.8299 137.95 63.7793 137.924 63.7286C137.913 63.7046 137.902 63.6806 137.892 63.6619C137.86 63.5979 137.82 63.5152 137.782 63.4406C137.777 63.4192 137.766 63.4059 137.753 63.3846C137.708 63.3019 137.657 63.2139 137.601 63.1285C137.59 63.1099 137.58 63.0939 137.569 63.0779C137.51 62.9818 137.444 62.8805 137.366 62.7792C137.356 62.7658 137.342 62.7578 137.332 62.7391C137.246 62.6351 137.161 62.5338 137.065 62.4218C137.054 62.4138 137.044 62.4058 137.033 62.3951C136.929 62.2804 136.817 62.1684 136.683 62.0511C136.681 62.0484 136.681 62.0484 136.673 62.0404C136.267 61.683 135.734 61.3283 135.038 61.0136C135.035 61.0083 135.027 61.0109 135.027 61.0029C134.801 60.9043 134.553 60.8082 134.294 60.7122C134.278 60.7122 134.265 60.7149 134.246 60.7069C133.99 60.6136 133.712 60.5282 133.414 60.4509C133.392 60.4482 133.371 60.4482 133.35 60.4402C133.051 60.3655 132.736 60.2962 132.392 60.2375C132.368 60.2348 132.347 60.2322 132.326 60.2268C131.979 60.1682 131.611 60.1175 131.224 60.0828C131.205 60.0828 131.179 60.0775 131.157 60.0775C130.76 60.0375 130.347 60.0055 129.896 59.9841H129.861C129.405 59.9735 128.915 59.9708 128.408 59.9788ZM53.5562 66.1289C47.2781 69.7853 36.6101 75.7087 22.5098 82.4535C23.1978 82.9842 24.0033 83.6163 24.8914 84.3231C25.0647 84.4671 25.2328 84.6084 25.4168 84.7525C25.5368 84.8511 25.6595 84.9418 25.7875 85.0485C26.1209 85.3152 26.4516 85.5872 26.8036 85.8753C26.8089 85.8833 26.817 85.8886 26.8223 85.8913C35.9567 81.0347 50.3424 73.3378 58.4661 68.4518C57.7673 68.1585 57.0579 67.8358 56.3672 67.4677C55.2684 66.8756 54.3536 66.4436 53.5562 66.1289ZM148.088 68.1451C147.815 69.5986 145.207 70.2174 145.207 70.2174C148.45 71.0361 149.717 68.7852 149.717 68.7852C148.912 68.6092 148.088 68.1451 148.088 68.1451ZM173.741 71.8549C181.051 74.8713 184.836 79.3918 184.836 79.3918C184.836 79.3918 183.27 76.2714 181.323 74.5992C179.374 72.9377 173.741 71.8549 173.741 71.8549ZM134.326 74.7032C125.218 74.6232 107.072 76.3808 92.4408 91.6386C77.6097 107.099 68.0272 124.851 65.7229 128.494C65.7123 128.526 65.7016 128.539 65.691 128.568C65.691 128.568 85.2693 114.26 94.6278 113.311C94.6278 113.311 80.4927 124.093 71.8704 149.55C71.8704 149.55 72.2384 149.051 72.9398 148.227C75.7268 144.589 81.0608 138.05 85.4933 135.022C91.8008 130.715 103.287 125.68 115.412 126.493C127.544 127.299 141.724 131.129 154.384 131.803C167.042 132.478 164.617 131.825 166.522 131.745L166.932 129.379C166.932 129.379 110.568 131.142 110.752 105.659C110.752 105.659 109.992 95.9911 118.94 89.6197C128.568 82.7656 136.329 83.539 143.167 85.0672C143.167 85.0672 141.164 81.144 131.539 82.3655C131.539 82.3655 132.984 81.6347 135.265 81.1307C144.652 78.5224 151.427 84.7658 151.427 84.7658C151.427 84.7658 155.787 88.5662 163.74 93.1881C169.938 96.7832 175.517 93.8896 177.691 92.4227C178.24 91.1826 178.491 89.8064 178.264 88.3182C177.334 82.0588 169.722 78.277 169.722 78.277C169.722 78.277 169.893 78.2903 169.581 78.197C169.351 78.141 169.306 78.1303 169.079 78.0717C169.074 78.0717 169.069 78.0637 169.061 78.0637C165.33 76.8528 161.79 76.0234 157.366 75.8634C157.366 75.8634 158.569 77.0395 159.902 78.9518C161.78 81.6427 162.143 84.8858 162.143 84.8858C162.143 84.8858 151.427 75.6287 137.638 74.8179C136.745 74.7646 135.627 74.7139 134.326 74.7032ZM187.983 81.5441C187.983 81.5441 186.489 81.9601 184.929 83.4536C182.273 85.9873 180.867 89.305 180.867 89.305C180.867 89.305 180.803 90.6145 180.513 91.908C181.422 92.3187 184.679 93.6682 187.119 93.3348C189.367 93.0281 190.847 92.1533 191.493 90.9959C192.415 86.5767 187.983 81.5441 187.983 81.5441ZM157.427 96.6899C157.427 96.6899 157.763 103.771 154.571 108.635C154.571 108.635 161.18 104.021 161.668 100.237C161.668 100.237 158.537 98.4048 157.427 96.6899ZM182.94 98.1327C182.94 98.1327 181.542 103.736 179.47 106.544C179.47 106.544 185.188 102.379 186.529 98.9515C186.529 98.9515 183.862 98.5488 182.94 98.1327ZM154.39 119.354C154.39 119.354 150.704 123.448 145.431 125.76C146.949 125.981 149.197 126.251 152.264 126.475C152.483 126.125 154.243 123.21 154.39 119.354ZM167.615 120.354C165.919 123.304 160.881 125.952 159.067 126.84C160.902 126.902 162.905 126.944 165.09 126.966C167.228 123.93 167.615 120.354 167.615 120.354Z" fill="white"/>
<path d="M107.909 23.2852C107.909 23.2852 107.778 27.6243 108.722 31.8275C109.669 36.0387 109.712 35.7187 109.816 36.1107C99.7346 36.6308 88.9973 38.4416 77.7907 41.5434C75.1877 42.2581 75.9585 42.0047 70.9792 44.2397C62.0554 38.4203 56.4814 37.0015 56.3668 36.8761L38.1032 30.662C38.1032 30.662 42.8718 35.6253 43.3812 41.9114C43.8933 48.1948 44.4533 54.0435 45.4081 55.8837C35.0229 61.0924 26.5072 65.8849 13.7376 72.5444L0 79.7053L6.66213 83.4764C6.84082 83.5804 24.8857 93.8776 33.7134 104.002C41.2583 112.651 49.5526 124.697 52.2836 128.727C51.7209 131.61 50.5287 138.024 49.2779 147.209L47.4857 160.403L56.8895 150.594C58.4683 148.951 61.154 146.22 64.181 143.297C61.2714 151.309 58.407 161.571 57.1909 173.285L57.8576 192.719L65.7759 174.962C65.8372 174.767 72.4487 155.432 94.0913 145.454C112.061 137.184 126.97 139.24 138.947 140.886L143.143 141.449C159.39 143.462 169.882 141.411 170.322 141.318L173.242 140.723L176.44 122.921C176.44 122.921 175.064 122.884 173.696 122.846C173.989 121.444 174.122 120.185 174.122 119.118C174.122 118.339 174.053 117.683 173.962 117.096C174.589 116.763 176.296 115.846 176.296 115.846C185.377 111.016 190.628 104.412 192.359 101.975C192.892 101.652 193.538 101.236 194.098 100.804C197.549 98.1368 199.685 94.035 199.971 89.5518C199.992 89.2211 200 88.8744 200 88.5357C200 84.6152 198.546 80.8734 195.845 77.7957C195.13 75.0034 192.732 69.2267 184.849 65.6476C184.742 65.3222 184.633 64.9835 184.483 64.6235C184.481 64.6128 184.473 64.5915 184.473 64.5915C183.507 62.1618 181.504 57.0786 175.498 54.5582L173.482 53.7208C173.482 53.7208 171.719 54.6649 171.586 54.7423C171.578 54.7449 170.546 55.225 169.596 55.0543C168.764 54.6729 167.833 54.1422 166.799 53.4594C161.902 49.2616 153.845 42.4501 142.854 39.4844C137.601 38.0629 132.427 37.1108 127.077 36.5401C119.257 33.401 117.222 31.5075 117.201 31.4835C116.795 31.0141 107.909 23.2852 107.909 23.2852ZM113.891 34.2598C113.891 34.2598 115.739 36.6201 125.9 40.6419C131.866 41.242 137.08 42.3034 141.66 43.5383C151.416 46.1706 158.539 52.0219 164.108 56.8092C165.692 57.8733 167.017 58.5854 168.13 59.0548C171.058 59.8976 173.73 58.42 173.73 58.42C178.091 60.2416 179.496 63.898 180.387 66.1436C180.99 67.6212 181.086 68.6959 181.086 68.6959C191.154 72.2457 191.767 79.7239 191.767 79.7239C197.573 85.4553 196.266 93.7176 191.34 97.5287C190.511 98.1688 189.209 98.8916 189.209 98.8916C189.209 98.8916 184.339 106.757 174.168 112.181C174.168 112.181 176.224 108.999 178.064 103.983C179.902 98.9583 180 97.1634 180 97.1634C179.035 96.5926 178.899 96.5126 178.885 96.502C178.893 96.5073 178.877 96.502 178.877 96.502C178.856 96.4806 174.13 101.785 164.932 101.071C161.334 107.901 149.082 114.451 149.082 114.451C149.207 114.235 153.402 108.277 154.445 101.983C154.792 97.3474 154.008 93.6376 152.525 92.2241C151.045 90.8026 148.981 88.7677 144.164 89.5945C139.347 90.4186 137.585 94.8671 137.585 94.8671C139.411 96.7366 140.396 99.4943 138.934 103.585C137.523 107.546 135.008 109.733 132.747 112.253C130.493 114.776 131.506 117.977 133.533 120.078C135.555 122.188 140.356 123.655 142.753 123.959C147.508 122.057 154.192 117.883 156.789 113.4C156.789 113.4 157.499 120.406 155.488 125.729C155.488 125.729 159.785 124.151 162.702 122.348C165.623 120.542 169.292 116.363 169.292 116.363C169.292 116.363 170.954 120.057 167.692 126.9L171.25 126.994L169.418 137.2C169.418 137.2 159.398 139.219 143.711 137.272C130.936 135.688 113.59 131.818 92.1844 141.667C68.4135 152.613 61.5754 173.703 61.5754 173.703C64.1144 149.276 74.0275 131.242 75.8544 128.087L75.8598 128.092C76.0465 127.764 76.1398 127.599 76.1398 127.599C69.0563 131.666 53.6438 147.751 53.6438 147.751C55.34 135.291 56.9402 127.874 56.9402 127.874C56.9402 127.874 46.5283 112.136 37.0951 101.311C27.6647 90.4826 8.90507 79.86 8.90507 79.86C24.7656 71.5923 40.0475 63.5753 52.561 57.3293C50.5314 54.1475 49.0992 50.4431 48.5018 46.552C47.7951 41.9034 46.1789 38.0789 46.1789 38.0789C55.324 40.1699 64.0183 45.7252 69.8644 49.0856C73.6942 47.4001 76.8092 46.1999 79.0175 45.5785C93.0805 41.6874 104.965 40.2179 115.062 40.1512C114.523 39.1004 113.462 36.6601 113.891 34.2598ZM116.547 43.5783C104.338 43.3889 91.3976 44.8424 76.6039 50.0217C75.9691 50.2431 75.081 50.6378 73.9822 51.1578C75.2464 51.6619 76.7345 52.174 78.3481 52.6834C84.2368 50.6058 97.249 46.8293 113.894 46.928C136.806 47.072 153 56.2331 153.941 56.7478C154.885 57.2706 136.099 48.6882 113.187 49.0856C103.466 49.2509 90.6776 52.5713 84.9702 54.5849C90.9976 56.1878 96.5716 57.4039 96.5716 57.4039C96.5129 57.4066 95.9342 57.4119 94.9607 57.4199L95.0487 57.4653C95.0487 57.4653 75.7664 60.967 66.456 56.5131C58.2497 52.59 57.5322 52.622 54.9719 52.0219C54.9746 52.0379 54.9746 52.0513 54.9826 52.0646C55.716 54.3716 56.9162 57.0465 58.8524 59.4708C60.4286 61.4444 62.4982 63.25 65.2132 64.5488C65.2132 64.5488 62.7889 65.3542 60.1592 65.1489C60.1592 65.1489 73.3768 72.7178 93.4299 68.1706C93.4299 68.1706 72.7341 75.4541 57.6763 73.0298C57.6763 73.0298 61.5114 71.907 63.7196 70.0961C63.7196 70.0961 61.1967 69.5787 58.4683 68.4506C50.3447 73.3338 35.959 81.0308 26.8246 85.8847C26.8139 85.8847 26.8112 85.882 26.8032 85.874C30.7317 89.0851 35.711 93.3602 39.9355 97.7048C48.0271 106.015 58.9617 120.593 59.9805 121.948C59.9885 121.929 59.9965 121.908 60.0099 121.884C60.0739 121.772 60.1432 121.652 60.2099 121.534C60.2126 121.532 60.2152 121.526 60.2179 121.508C65.9919 102.271 97.0783 73.4165 115 67.8905C115 67.8905 114.99 67.9012 114.971 67.9092C114.891 67.9572 114.627 68.0852 114.214 68.3226C114.142 68.3626 114.072 68.4052 113.984 68.4533C113.859 68.5253 113.718 68.6053 113.563 68.6906C106.495 72.7578 75.273 92.4855 65.6986 128.535L65.7252 128.495C68.0295 124.849 77.6093 107.095 92.4431 91.632C109.165 74.2006 130.477 74.4006 137.641 74.8167C151.429 75.6274 162.142 84.8846 162.142 84.8846C162.142 84.8846 161.779 81.6442 159.902 78.9532C158.568 77.0383 157.366 75.8648 157.366 75.8648C150.447 75.6408 144.823 74.2139 144.796 74.2086C144.788 74.2086 144.785 74.2086 144.783 74.2033C144.372 74.1206 143.956 74.0139 143.521 73.8646C138.457 72.0964 136.827 67.8665 135.792 64.002C135.019 61.143 130.794 60.2603 128.65 60.0016C128.05 59.9856 127.405 60.0016 126.711 60.0496C126.711 60.0496 126.885 59.9296 127.207 59.7722C127.111 59.7775 127.055 59.7775 127.055 59.7775C127.509 59.4708 127.981 59.2335 128.458 59.0228C128.383 59.0495 128.319 59.0708 128.253 59.1028C136.28 54.4916 146.127 62.1698 146.127 62.1698C161.987 69.5761 173.058 66.3623 176.248 65.1169C176.234 65.1302 176.29 65.1862 176.176 64.9675C175.562 63.7807 174.496 62.5272 172.645 61.6791C171.285 62.5405 164.444 65.6769 146.575 56.7745C146.575 56.7745 158.374 60.9057 163.977 60.3669C163.137 59.9456 162.214 59.4442 161.222 58.8308C156.205 55.7504 147.69 45.9412 128.557 44.2423C124.602 43.8876 120.617 43.6423 116.547 43.5783ZM49.6326 65.4156C48.6432 65.5196 47.8057 65.8369 46.6269 65.9863C38.1112 70.7122 28.7821 75.8488 19.9304 80.4894C19.9304 80.4894 22.312 82.3002 22.5094 82.4523C36.6071 75.7075 47.2777 69.7841 53.5558 66.1276C51.7662 65.4182 50.6221 65.3089 49.6326 65.4156ZM153.365 70.4402C155.789 72.4991 158.406 73.0538 162.929 74.806C165.876 75.9528 168.255 77.1556 170.186 78.3531C170.186 78.3638 170.191 78.3744 170.191 78.3851C170.047 78.3424 170.548 78.5025 170.404 78.4678C170.719 78.5478 170.402 78.4625 170.738 78.5878C170.764 78.5985 170.799 78.6065 170.826 78.6145C171.687 78.8652 181.184 81.5695 186.494 79.844C186.494 79.844 185.673 71.8457 174.181 70.8269C174.181 70.8269 163.02 73.0218 153.365 70.4402ZM173.738 71.8537C173.738 71.8537 179.374 72.9365 181.323 74.598C183.27 76.2702 184.833 79.3906 184.833 79.3906C184.833 79.3906 181.048 74.87 173.738 71.8537ZM140.238 80.5C138.689 80.4654 137.019 80.6414 135.259 81.1294C134.995 81.2041 134.734 81.2788 134.467 81.3695C138.47 80.412 145.874 80.1027 152.314 87.8076C152.314 87.8076 164.022 103.361 173.749 96.87C173.938 96.7473 174.128 96.6113 174.314 96.4699C174.365 96.438 174.41 96.3953 174.461 96.3606C174.602 96.2486 174.738 96.1366 174.872 96.0219C174.92 95.9819 174.968 95.9446 175.013 95.9019C175.16 95.7792 175.304 95.6512 175.44 95.5178C175.474 95.4912 175.504 95.4618 175.533 95.4272C176.24 94.7444 176.861 93.9576 177.341 93.0935H177.352C177.467 92.8882 177.565 92.6802 177.659 92.4695C177.667 92.4508 177.672 92.4401 177.685 92.4241C175.512 93.891 169.932 96.782 163.737 93.1896C155.781 88.565 151.429 84.7645 151.429 84.7645C151.429 84.7645 146.954 80.6467 140.238 80.5ZM191.49 91C190.842 92.1548 189.361 93.0322 187.113 93.3336C184.673 93.6669 181.419 92.3148 180.51 91.9067C180.507 91.9227 180.502 91.9414 180.499 91.9547C180.462 92.1201 180.422 92.2881 180.374 92.4428C180.28 92.7762 180.163 93.0962 180.03 93.3762C180.014 93.4056 180.003 93.4349 179.99 93.4643C179.918 93.5923 179.846 93.715 179.766 93.8243C179.766 93.8243 185.58 97.0887 189.02 94.6057C189.209 94.4724 189.385 94.331 189.551 94.1897C189.636 94.1177 189.711 94.0403 189.785 93.9657C189.86 93.891 189.937 93.8243 190.009 93.7523C190.095 93.6643 190.169 93.5736 190.249 93.4909C190.3 93.4269 190.356 93.3602 190.407 93.2989C190.482 93.1976 190.551 93.1042 190.62 93.0002C190.658 92.9469 190.692 92.8962 190.73 92.8402C190.799 92.7308 190.863 92.6268 190.927 92.5175C190.951 92.4695 190.98 92.4215 190.999 92.3761C191.063 92.2588 191.116 92.1334 191.167 92.0107C191.18 91.9814 191.199 91.9441 191.212 91.9067C191.263 91.7734 191.314 91.6427 191.354 91.5067C191.364 91.4854 191.37 91.464 191.375 91.4373C191.418 91.296 191.46 91.1466 191.49 91ZM122.004 92.7922C121.785 92.7868 121.655 92.8028 121.655 92.8028C115.422 96.91 111.891 112.277 122.756 118.499C134.629 125.289 137.651 124.369 137.651 124.369C133.611 123.524 129.055 120.657 128.015 117.947C127.242 115.931 127.807 113.171 129.888 110.984C130.989 109.834 134.184 107.557 135.878 103.978C136.672 102.289 138.038 98.0755 135.43 96.0966C132.288 93.715 129.354 95.7979 129.354 95.7979C132.173 100.393 124.578 107.701 124.578 107.701C129.368 93.8536 123.537 92.8322 122.007 92.7948L122.004 92.7922ZM110.904 126.452C100.497 126.932 91.0083 131.247 85.4903 135.016C81.0604 138.043 75.7238 144.59 72.9368 148.231C72.646 148.602 72.1313 149.194 71.8993 149.492C71.9633 149.434 72.2727 149.124 72.3527 149.05C74.801 146.535 86.5117 135.309 103.772 130.813C114.643 127.972 130.669 131.359 143.287 133.026C159.782 135.213 166.207 133.562 166.207 133.562L166.521 131.741C164.617 131.821 167.041 132.48 154.384 131.805C141.724 131.13 127.541 127.3 115.411 126.495C113.896 126.394 112.392 126.386 110.907 126.455L110.904 126.452Z" fill="#A3A9AC"/>
<path d="M169.52 77.9577C169.013 77.5777 165.889 75.9608 162.926 74.8007C158.405 73.0271 155.785 72.4971 153.364 70.4401C163.019 73.0205 174.177 70.8235 174.177 70.8235C185.668 71.8469 186.495 79.8412 186.495 79.8412C181.181 81.5648 171.683 78.8645 170.823 78.6111C170.816 78.6111 170.513 78.4878 170.21 78.3811L169.52 77.9577ZM169.766 78.2744C171.917 79.4645 177.461 82.9816 178.254 88.3123C178.481 89.8024 178.231 91.1793 177.681 92.4195H177.684C177.671 92.4395 177.664 92.4494 177.657 92.4661C177.564 92.6761 177.461 92.8861 177.347 93.0895L177.341 93.0929C176.861 93.953 176.24 94.7397 175.53 95.4265C175.5 95.4598 175.47 95.4865 175.437 95.5131C175.3 95.6498 175.157 95.7798 175.01 95.8998C174.964 95.9432 174.917 95.9832 174.87 96.0199C174.737 96.1332 174.597 96.2466 174.457 96.3566C174.407 96.3933 174.36 96.4332 174.31 96.4666C174.124 96.6033 173.934 96.7466 173.743 96.87C164.019 103.361 152.308 87.8056 152.308 87.8056C145.867 80.1013 138.469 80.408 134.465 81.3648C134.732 81.2748 134.992 81.1981 135.256 81.1248C132.979 81.6282 131.532 82.3616 131.532 82.3616C141.156 81.1448 143.157 85.0652 143.157 85.0652C136.322 83.535 128.558 82.7649 118.934 89.6191C109.986 95.9865 110.743 105.658 110.743 105.658C110.559 131.134 166.929 129.374 166.929 129.374L166.516 131.734L166.199 133.558C166.199 133.558 159.775 135.205 143.283 133.021C130.665 131.351 114.64 127.967 103.768 130.807C85.953 135.448 74.0415 147.273 72.1446 149.253C72.0113 149.346 71.8679 149.546 71.8679 149.546C80.4856 124.09 94.6207 113.305 94.6207 113.305C85.2662 114.252 65.6872 128.564 65.6872 128.564C65.6972 128.534 65.7105 128.517 65.7205 128.487C65.7138 128.497 65.7039 128.52 65.6939 128.53C75.2683 92.4795 106.492 72.7538 113.556 68.6866C113.71 68.5999 113.85 68.5199 113.976 68.4465C114.063 68.3999 114.136 68.3599 114.21 68.3165C114.62 68.0832 114.883 67.9498 114.966 67.9065C114.983 67.8931 114.993 67.8865 114.993 67.8865C97.0709 73.4138 65.9872 102.271 60.2165 121.506C60.2132 121.523 60.2065 121.526 60.2065 121.53C60.1565 121.703 60.1032 121.88 60.0565 122.05C60.0565 122.05 60.0399 121.99 60.0065 121.88C59.9965 121.9 59.9832 121.923 59.9765 121.94C58.9597 120.586 48.0217 106.011 39.9274 97.7034C35.7036 93.3595 30.7297 89.0824 26.7992 85.872C26.4492 85.582 26.1125 85.3119 25.7791 85.0452C25.6591 84.9452 25.5324 84.8452 25.4124 84.7452C25.229 84.6018 25.059 84.4652 24.8856 84.3218C21.9353 81.9715 19.9317 80.488 19.9317 80.488C28.7794 75.8474 38.1072 70.7102 46.6216 65.9863C48.9819 65.6829 49.9753 64.7061 53.549 66.1263C54.3491 66.4396 55.266 66.8664 56.3628 67.4631C57.0528 67.8298 57.7662 68.1532 58.463 68.4465C61.19 69.57 63.7169 70.0968 63.7169 70.0968C61.5067 71.9037 57.6696 73.0271 57.6696 73.0271C72.728 75.4474 93.4239 68.1699 93.4239 68.1699C73.3715 72.7171 60.1565 65.1462 60.1565 65.1462C62.7902 65.3529 65.2104 64.5428 65.2104 64.5428C62.4968 63.246 60.4266 61.4424 58.853 59.4688C56.9128 57.0419 55.716 54.3649 54.9792 52.0613C54.9726 52.0446 54.9726 52.0346 54.9693 52.0179H54.9626C53.9458 48.8075 53.8224 46.3373 53.8224 46.3373C62.1901 49.431 64.8738 52.568 70.7811 54.8916C75.4217 56.7218 89.8068 57.2352 94.824 57.3619L94.9507 57.4186C95.9242 57.4119 96.5075 57.4019 96.5642 57.3986C96.5642 57.3986 90.9936 56.1851 84.9695 54.5783C82.7359 53.9882 80.4423 53.3414 78.3454 52.6814C76.7318 52.1713 75.245 51.6612 73.9848 51.1578C75.0816 50.6344 75.9717 50.2411 76.6051 50.021C96.3242 43.1135 112.746 42.8302 128.548 44.237C147.684 45.9372 156.195 55.7484 161.212 58.8287C162.209 59.4388 163.126 59.9389 163.966 60.3623C158.362 60.899 146.564 56.7652 146.564 56.7652C164.432 65.6696 171.273 62.5392 172.633 61.6791C174.427 62.4992 175.484 63.7027 176.107 64.8495C176.244 65.1095 176.277 65.1295 176.237 65.1128C176.144 65.1461 176.047 65.1862 175.94 65.2228C172.403 66.5363 161.519 69.3633 146.114 62.1658C146.114 62.1658 136.269 54.4849 128.241 59.0988C128.308 59.0687 128.375 59.0455 128.448 59.0188C127.971 59.2288 127.098 59.7722 127.195 59.7688C126.871 59.9289 126.704 60.0489 126.704 60.0489C127.875 59.9622 128.915 59.9522 129.852 59.9822H129.892C130.338 60.0022 130.755 60.0322 131.152 60.0689C131.175 60.0689 131.198 60.0789 131.218 60.0789C131.608 60.1156 131.972 60.1656 132.319 60.2222C132.342 60.2289 132.362 60.2322 132.385 60.2356C132.729 60.2889 133.045 60.3623 133.345 60.4389L133.405 60.4489C133.705 60.5256 133.985 60.6056 134.242 60.699C134.259 60.7057 134.272 60.7056 134.289 60.709C134.549 60.8023 134.796 60.899 135.022 60.999C135.022 61.0023 135.029 61.0024 135.032 61.009C135.729 61.3224 136.259 61.6791 136.666 62.0391C136.672 62.0424 136.676 62.0458 136.679 62.0491C136.812 62.1625 136.926 62.2725 137.029 62.3858C137.042 62.3958 137.049 62.4058 137.059 62.4125C137.156 62.5258 137.242 62.6326 137.326 62.7326C137.339 62.7526 137.349 62.7659 137.359 62.7759C137.436 62.8792 137.502 62.9759 137.562 63.0726C137.572 63.0892 137.583 63.1026 137.596 63.1226C137.649 63.2093 137.703 63.2993 137.746 63.3793C137.759 63.4026 137.769 63.416 137.776 63.436C137.816 63.5126 137.853 63.5927 137.886 63.6593C137.896 63.676 137.906 63.7026 137.916 63.726C137.946 63.776 137.966 63.8227 137.986 63.866C138.019 63.9494 138.053 64.0127 138.073 64.0627C138.476 64.8494 139.556 70.2534 144.82 71.7436C147.894 72.6137 149.661 71.8303 150.594 71.0335C151.264 70.4635 151.521 69.8834 151.521 69.8834C151.951 70.0301 152.384 70.1601 152.824 70.2868C152.841 70.2934 152.854 70.2934 152.871 70.3068C152.808 70.4468 152.731 70.5935 152.651 70.7402C152.621 70.7935 152.591 70.8402 152.561 70.8902C152.508 70.9902 152.448 71.0836 152.388 71.1802C152.344 71.2436 152.298 71.3136 152.251 71.3836C152.198 71.4603 152.141 71.5336 152.088 71.6103C152.024 71.687 151.961 71.7636 151.898 71.847C151.844 71.9036 151.798 71.9636 151.744 72.0236C151.667 72.1136 151.588 72.2003 151.504 72.2837C151.458 72.327 151.411 72.3804 151.364 72.427C151.267 72.517 151.171 72.6004 151.071 72.6904C151.031 72.7238 150.991 72.7638 150.951 72.7971C150.834 72.8938 150.717 72.9804 150.594 73.0738C150.567 73.0938 150.534 73.1171 150.507 73.1371C150.371 73.2304 150.231 73.3305 150.081 73.4138C150.071 73.4238 150.057 73.4272 150.047 73.4305C148.697 74.2339 146.934 74.654 144.787 74.2039C144.78 74.2039 144.773 74.2039 144.77 74.1973C144.77 74.1973 150.424 75.6407 157.355 75.8608C162.665 76.0308 166.423 77.2643 168.82 77.9711C168.83 77.9711 169.766 78.2744 169.766 78.2744ZM145.2 70.2134C145.2 70.2134 147.81 69.5934 148.084 68.1399C148.084 68.1399 148.904 68.6066 149.714 68.7832C149.714 68.7832 148.444 71.0302 145.2 70.2134ZM191.486 90.9926V90.9993C191.456 91.1459 191.416 91.2927 191.369 91.436C191.362 91.4627 191.359 91.4827 191.352 91.5027C191.312 91.6393 191.262 91.7694 191.212 91.9027C191.196 91.9394 191.179 91.9794 191.166 92.0094C191.116 92.1328 191.059 92.2561 190.996 92.3728C190.972 92.4194 190.949 92.4661 190.922 92.5128C190.862 92.6228 190.799 92.7262 190.729 92.8362C190.692 92.8929 190.652 92.9462 190.616 92.9995C190.546 93.1029 190.479 93.1962 190.402 93.2962C190.349 93.3596 190.292 93.4229 190.245 93.4862C190.165 93.5696 190.092 93.6629 190.009 93.7496C189.935 93.823 189.852 93.8896 189.782 93.963C189.705 94.0396 189.629 94.113 189.549 94.183C189.382 94.3263 189.209 94.4663 189.015 94.5997C185.578 97.0833 179.764 93.8229 179.764 93.8229C179.841 93.7129 179.914 93.5863 179.984 93.4596C179.994 93.4296 180.011 93.4029 180.024 93.3729C180.161 93.0929 180.274 92.7761 180.371 92.4428C180.418 92.2861 180.461 92.1194 180.498 91.9527C180.801 90.6426 180.858 89.2991 180.858 89.2991C180.858 89.2991 182.265 85.982 184.922 83.445C186.482 81.9515 187.979 81.5415 187.979 81.5415C187.979 81.5415 192.409 86.5721 191.486 90.9926ZM179.461 106.541C181.531 103.731 182.938 98.1268 182.938 98.1268C183.861 98.5435 186.522 98.9469 186.522 98.9469C185.185 102.374 179.461 106.541 179.461 106.541ZM154.568 108.631C157.758 103.771 157.422 96.6833 157.422 96.6833C158.532 98.3968 161.662 100.23 161.662 100.23C161.179 104.014 154.568 108.631 154.568 108.631ZM135.872 103.978C134.179 107.558 130.982 109.828 129.878 110.982C127.798 113.165 127.238 115.926 128.011 117.942C129.051 120.653 133.609 123.513 137.649 124.36C137.649 124.36 134.625 125.283 122.751 118.493C111.886 112.269 115.417 96.9033 121.651 92.7961C121.651 92.7961 130.048 91.876 124.574 107.698C124.574 107.698 132.165 100.39 129.348 95.7932C129.348 95.7932 132.282 93.7129 135.422 96.0932C138.033 98.0734 136.669 102.291 135.872 103.978ZM154.381 119.346C154.234 123.203 152.474 126.117 152.258 126.464C149.191 126.243 146.94 125.973 145.423 125.753C150.697 123.44 154.381 119.346 154.381 119.346ZM167.609 120.346C167.609 120.346 167.223 123.923 165.079 126.954C162.896 126.937 160.899 126.894 159.062 126.83C160.879 125.943 165.909 123.297 167.609 120.346ZM37.0938 101.307C46.5282 112.132 56.9395 127.867 56.9395 127.867C56.9395 127.867 55.3359 135.285 53.6424 147.746C53.6424 147.746 69.0509 131.661 76.1384 127.594C76.1384 127.594 76.0418 127.757 75.8551 128.087L75.8517 128.08C74.0248 131.234 64.107 149.273 61.57 173.699C61.57 173.699 68.4108 152.607 92.1837 141.662C113.583 131.811 130.932 135.681 143.703 137.265C159.392 139.212 169.406 137.195 169.406 137.195L171.243 126.987L167.689 126.894C170.95 120.049 169.29 116.356 169.29 116.356C169.29 116.356 165.619 120.533 162.699 122.34C159.782 124.143 155.485 125.723 155.485 125.723C157.495 120.399 156.781 113.392 156.781 113.392C154.184 117.876 147.507 122.053 142.75 123.953C140.353 123.65 135.549 122.18 133.522 120.069C131.495 117.969 130.482 114.769 132.739 112.245C135.002 109.728 137.519 107.545 138.929 103.584C140.389 99.4936 139.406 96.7333 137.576 94.8631C137.576 94.8631 139.343 90.4159 144.157 89.5924C148.977 88.7657 151.041 90.7992 152.521 92.2227C154.004 93.6363 154.785 97.3467 154.441 101.981C153.398 108.275 149.204 114.229 149.077 114.445C149.077 114.445 161.325 107.895 164.926 101.067C174.12 101.784 178.847 96.4799 178.871 96.4999C178.871 96.4999 178.891 96.5066 178.884 96.4999C178.897 96.5099 179.031 96.59 179.994 97.16C179.994 97.16 179.898 98.9536 178.061 103.978C176.22 108.995 174.157 112.172 174.157 112.172C184.328 106.751 189.209 98.8869 189.209 98.8869C189.209 98.8869 190.502 98.1635 191.332 97.5234C196.256 93.7129 197.57 85.4519 191.766 79.7212C191.766 79.7212 191.146 72.2437 181.078 68.6933C181.078 68.6933 180.984 67.6198 180.381 66.143C179.491 63.896 178.081 60.2389 173.723 58.4153C173.723 58.4153 171.05 59.8955 168.126 59.0521C167.013 58.5821 165.686 57.8686 164.102 56.8052C158.532 52.0179 151.411 46.1672 141.653 43.5336C137.076 42.3001 131.862 41.2366 125.898 40.6366C115.737 36.6161 113.883 34.2558 113.883 34.2558C113.456 36.6561 114.516 39.0964 115.056 40.1465C104.959 40.2132 93.0771 41.6833 79.0121 45.5738C76.8052 46.1939 73.6948 47.3974 69.861 49.0809C64.017 45.7205 55.3193 40.1665 46.1749 38.0762C46.1749 38.0762 47.7917 41.9 48.5018 46.5506C49.0985 50.4411 50.5254 54.1415 52.5589 57.3252C40.0441 63.5693 24.7623 71.5903 8.90039 79.8579C8.90039 79.8579 27.6593 90.4792 37.0938 101.307Z" fill="#001D52"/>
</g>
<defs>
<clipPath id="clip0_154_2375">
<rect width="200" height="200" fill="white"/>
</clipPath>
</defs>
</svg>
