<svg width="200" height="200" viewBox="0 0 200 200" fill="none" xmlns="http://www.w3.org/2000/svg">
<path d="M167.513 126.167L159.142 125.216C158.873 124.691 154.524 111.965 149.269 96.4702L152.366 95.8535L143.09 49.8945H133.591C132.633 47.0212 131.839 44.6269 131.256 42.8622V18H73.0295V41.5699L69.9594 49.8945H44.3822L34.4898 95.9323L51.749 99.2188L41.0956 125.275C40.3084 125.452 32.4824 127.19 32.4824 127.19V150.249H69.8282C69.8282 150.249 69.8151 156.251 69.7889 156.769L60.0736 156.914V181.999H127.077V156.92L117.362 156.776C117.335 156.251 117.316 150.236 117.316 150.236H167.519V126.167H167.513Z" fill="#004684"/>
<path d="M156.433 136.064V139.154H113.82V136.064C120.609 135.513 120.596 129.281 120.596 129.281C108.381 111.832 87.711 106.617 70.6748 111.432C70.6486 111.438 70.6289 111.445 70.6092 111.451L67.4014 120.635C64.1608 130.338 63.4523 135.264 70.7338 136.071V139.161H43.5625V136.078C50.234 134.595 52.8317 127.681 55.1736 122L72.997 73.7252C73.2004 73.7186 74.1844 73.6924 75.234 73.6924L77.2151 77.1495V92.5194L75.4636 97.5378C75.4964 97.5312 75.5226 97.5312 75.5488 97.5312C88.0587 95.8847 101.264 98.2791 112.954 105.252L112.96 105.259L109.923 95.8847V73.6924C128.442 72.8461 132.096 85.4806 134.503 91.8962L135.881 91.6207C136.688 94.0086 144.094 115.932 146.18 122.111C148.036 127.294 149.886 135.317 156.433 136.064ZM102.622 57.2859H124.375C123.502 54.6554 117.336 35.7365 117.336 35.2576C117.336 33.1584 118.326 32.4171 120.176 32.1679V29.0781H84.1096V32.1679C88.5572 32.8042 86.6483 37.3109 84.7262 41.9225L79.0584 57.2859H81.2822L86.7532 42.4998L89.1345 44.8811L84.5491 57.2859H89.515L93.6215 45.5108L97.4328 57.2859H99.6239H99.6304L95.2418 43.7462L96.79 39.2723L102.622 57.2859ZM106.23 154.859V120.288C103.186 118.274 95.9109 114.003 85.3756 113.446V157.24L82.9944 154.859V113.393C82.299 113.393 81.6037 113.413 80.9083 113.452V154.859C80.9083 161.648 80.4688 167.683 71.1537 167.828V170.911H115.991V167.828C109.339 167.729 106.23 165.446 106.23 154.859ZM133.624 58.9981C131.774 61.5958 125.352 60.9792 122.636 60.9792H63.5179C60.9267 60.9792 55.2458 61.7205 53.7632 58.9981L47.715 87.16L50.3061 87.652C53.2712 76.4082 61.9173 70.2353 73.5218 69.986H80.9083V93.3722C81.6037 93.346 82.3056 93.3263 82.9944 93.3263C83.7225 93.2804 84.5032 93.2804 85.3822 93.3722C94.3956 93.7002 101.165 95.7732 106.236 97.8068V69.9926H113.623C125.726 70.7338 132.64 76.664 136.845 87.6585L139.318 87.1665L133.624 58.9981Z" fill="#FDB927"/>
<path d="M117.047 31.1706C116.286 31.7413 115.742 32.5679 115.473 33.5519H89.4559C92.6178 35.9791 91.2402 39.8494 89.1345 44.8875L84.5425 57.2858H81.2888L86.7532 42.4997C89.4494 36.0512 89.7511 33.2239 87.0747 31.1641H117.047V31.1706ZM96.7899 39.2787L95.2418 43.7526L99.6238 57.2924H102.622L96.7899 39.2787ZM82.9944 69.999V93.3393L85.3756 93.3852V69.999H82.9944ZM109.93 79.8389V89.1147L116.66 109.897C105.082 102.228 92.0012 97.4524 75.7522 99.6106L74.7616 102.445C90.7023 99.6303 108.421 105.672 121.849 116.634L109.93 79.8389ZM75.2274 73.6922L56.8201 123.482C54.78 128.435 52.3003 134.431 46.9277 137.081H52.6611C55.823 134.037 57.6467 129.649 59.2014 125.864L77.215 77.1559V73.6922H75.2274ZM82.9944 113.4V154.865C82.9944 161.799 81.8661 166.758 77.0773 168.838H82.6467C84.7787 166.234 85.3756 162.258 85.3756 157.253V113.459L82.9944 113.4ZM123.2 137.068C125.339 134.234 125.096 131.052 125.096 131.052C125.096 131.052 121.711 126.546 120.025 124.781L120.183 125.267C120.235 125.332 122.715 128.665 122.715 128.665C122.715 128.665 123.148 134.201 117.959 137.068H123.2ZM126.336 65.4792C128.219 65.5317 130.587 65.5841 132.752 65.2037L132.181 62.3763C129.623 63.2422 126.375 63.1635 123.955 63.0979C123.443 63.0848 62.6651 63.0914 62.1534 63.111C60.0804 63.1898 57.3515 63.2882 55.1342 62.5403L51.4803 79.57C52.8973 77.2609 53.7829 76.2572 55.4229 74.7156L57.4499 65.2693C59.3654 65.6366 61.4646 65.571 63.1374 65.5054C63.6425 65.4726 125.824 65.4661 126.336 65.4792Z" fill="white"/>
</svg>
