<svg width="200" height="200" viewBox="0 0 200 200" fill="none" xmlns="http://www.w3.org/2000/svg">
<path d="M30.0039 13V40.0688H42.8706V145.993H30.2127V171.561H75.9238V193H128.183V168.551H115.493V106.707L139.607 171.911H169.997V146.524H158.781L141.494 98.8987L168.126 79.4648V39.4701L143.756 13H30.0039ZM70.7196 39.5961H131.346L141.167 50.7452V67.4175L132 77.0222H117.01V72.2632H129.514V45.8522H75.8883V72.4445H87.0768V77.0222H70.7196V39.5961ZM71.2633 104.363H87.3644V168.74H79.6704V146.371H71.2633V104.363Z" fill="#002147"/>
<path d="M133.066 79.5805L143.675 68.4631V49.8287L132.471 37.1118H68.1848V79.5805H89.5846V69.964H78.3923V48.4105H126.979V69.7789H114.475V79.5805H133.066ZM78.4277 190.52V171.294H89.8722V101.883H68.7284V148.929H77.1394V169.076H32.7206V148.551H45.3785V37.5845H32.5078V15.5582H142.635L165.595 40.4918V78.2214L138.467 98.0177L157.003 149.083H167.463V169.427H141.351L116.149 101.299H112.958V171.109H125.652V190.52H78.4277Z" fill="white"/>
<path d="M161.563 39.5969L146.025 53.8708L145.877 69.2731L133.935 81.9649H116.018L92.3113 104.918V173.609H80.7383V187.798H122.923V173.426H110.232V98.5742H117.698L142.892 166.704H164.734V151.399H155.033L135.24 96.8912L162.868 76.7331V41.2704L161.563 39.5969ZM66.1871 130.28L48.254 145.953V145.988L47.9105 146.284L47.8443 150.864H43.0159L42.6409 151.251L42.4928 151.239L40.4631 152.317L40.7467 153.215L35.5433 158.614V158.645L35.3164 158.755V166.297H35.5433V166.351H74.7785V151.245H66.3762L66.1871 130.28Z" fill="#68ABE8"/>
<path d="M35.127 18.0578V34.8563H48.0961L47.9101 146.284L66.1867 130.279V99.3395H92.5189V104.918L115.756 82.2637H111.836V67.0538H124.53V50.9014H80.8577V67.3311H92.0525V82.2637H65.5469V34.5758H133.585L146.186 48.8528V53.8703L161.402 39.8958L141.521 18.0547L35.127 18.0578ZM35.3098 151.144L35.2184 159.354L42.6847 151.144H35.3098Z" fill="#002147"/>
<path fill-rule="evenodd" clip-rule="evenodd" d="M32.5078 15.5657V37.5895H45.3792V148.557H32.719V169.087H77.1387V148.938H68.73V101.89H89.8746V171.299H78.4308V190.525H125.649V171.117H112.957V101.307H116.15L141.351 169.43H167.466V149.093H157.005L138.464 98.0261L165.594 78.2272V40.4985L142.634 15.5625H32.511L32.5078 15.5657ZM35.0323 18.0838H141.531L163.075 41.4787V76.9477L135.448 97.1026L155.24 151.611H164.947V166.912H143.1L117.906 98.7888H110.439V173.635H123.131V188.01H80.9459V173.821H92.3896V99.3687H66.2118V151.456H74.6205V166.562H35.2435V151.075H47.8974V35.0651H35.0323V18.0807V18.0838ZM65.6697 34.5986V82.107H92.1091V67.4485H80.9112V50.9337H124.461V67.2594H111.958V82.107H134.143L146.195 69.4813V48.8852L133.607 34.5986H65.6697ZM68.1879 37.1168H132.469L143.67 49.8338V68.4728L133.065 79.5888H114.477V69.7839H126.979V48.4187H78.393V69.9699H89.5815V79.5888H68.1848V37.1136L68.1879 37.1168Z" stroke="#002147" stroke-width="0.810468"/>
</svg>
