<svg width="200" height="200" viewBox="0 0 200 200" fill="none" xmlns="http://www.w3.org/2000/svg">
<g clip-path="url(#clip0_154_2384)">
<path d="M171.749 115.857C170.841 114.289 169.586 112.27 169.586 112.27L167.379 110.206L166.177 107.235C166.177 107.235 165.207 105.497 163.627 104.721C162.047 103.947 159.734 102.671 159.734 102.671C159.734 102.671 158.427 101.048 157.118 98.8637C155.81 96.6788 154.396 95.8461 154.396 95.8461L152.707 95.2953L149.429 93.4065L148.969 92.0614L145.388 90.7001L146.499 89.5904L142.302 87.9472L139.154 88.0816C139.154 88.0816 139.709 86.9518 137.793 86.2919C135.872 85.6309 133.515 85.8725 133.515 85.8725C133.515 85.8725 132.887 84.5839 130.299 84.7153C127.712 84.8467 123.112 86.2292 123.112 86.2292L121.305 85.3419L113.831 88.0352C113.831 88.0352 113.921 87.1701 116.054 86.2565C118.183 85.3419 120.103 82.3687 121.166 81.631C122.23 80.8922 122.61 78.6952 122.61 78.6952C122.61 78.6952 124.461 78.0635 125.626 75.9736C126.791 73.8847 128.276 72.4779 128.276 72.4779L126.831 71.8039L128.506 70.104C128.506 70.104 129.115 68.5811 129.444 67.3421C129.77 66.1031 131.002 65.3057 131.002 65.3057L132.56 62.7064C132.56 62.7064 131.986 61.0238 131.317 61.8151C130.646 62.6094 130.78 61.2188 130.78 61.2188L132.416 58.4336L133.832 56.4771L135.387 52.9218L133.387 54.0334C133.387 54.0334 133.999 52.0668 133.824 50.9996C133.649 49.9304 133.814 49.3109 133.973 48.1305C134.133 46.9461 133.277 45.5474 133.277 45.5474L134.051 43.4049L133.986 42.1114L133.137 41.2736L132.036 36.9512L132.463 33.7972L132.218 30.8765L131.977 28.5137L132.247 27.1059L131.668 24.8614L130.928 23.7972L131.016 23.0564C131.016 23.0564 130.943 21.8094 129.165 21.5871C129.884 20.6088 128.984 19.199 128.984 19.199L126.273 13.578L125.562 15.2354L125.538 17.3678L126.064 20.0085L126.018 21.5264C126.018 21.5264 125.186 22.9393 125.646 24.2864C126.105 25.6325 127.58 29.0029 127.58 29.0029C127.579 29.0029 126.856 30.1893 126.934 32.6077C127.005 35.0251 127.772 38.7815 127.772 38.7815L127.914 42.4924L128.546 45.5879C128.546 45.5879 127.192 45.4858 127.546 47.6192C127.9 49.7556 127.832 51.8101 127.832 51.8101C127.832 51.8101 126.217 53.235 125.772 54.1375C125.331 55.041 124.974 57.7059 124.974 57.7059C124.974 57.7059 123.077 58.0506 123.487 60.3537C123.896 62.6579 123.114 63.1117 123.114 63.1117L120.938 65.5462C120.938 65.5462 120.828 67.4593 120.498 68.7003C120.168 69.9393 118.276 72.9226 118.276 72.9226C118.276 72.9226 116.873 73.2127 116.485 74.2849C116.102 75.3561 116.105 75.918 116.105 75.918C116.105 75.918 115.199 74.9115 114.535 76.2677C113.866 77.6209 113.316 79.3147 113.316 79.3147C113.316 79.3147 112.022 79.3793 111.302 80.5648C110.575 81.7512 108.72 82.0342 108.72 82.0342L110.497 79.1449L110.163 76.9297L109.756 75.1874L111.298 71.5835C111.298 71.5835 111.071 70.2303 111.011 69.4987C110.948 68.768 112.497 67.145 112.497 67.145C112.497 67.145 112.051 65.3856 111.811 63.5887C111.574 61.7898 111.45 60.3285 111.45 60.3285C111.45 60.3285 111.672 56.2083 111.386 55.3654C111.099 54.5246 110.859 56.3963 110.859 56.3963L110.227 54.5438L109.649 52.2983L108.115 50.0031L108.72 47.9183L107.638 46.4064L106.547 43.2099C106.547 43.2099 107.151 41.124 106.244 40.1174C105.333 39.1129 104.602 38.6107 104.602 38.6107C104.602 38.6107 104.535 37.3181 104.073 35.4091C103.607 33.499 103.319 32.6592 102.472 31.8204C101.623 30.9837 100.493 30.4288 100.493 30.4288L98.6055 25.9983L98.5923 24.824C98.5923 24.824 98.5853 24.2955 97.1158 23.2929C95.6444 22.2924 94.8036 21.4718 94.8036 21.4718C94.8036 21.4718 94.9632 20.2885 93.9425 18.9464C92.9208 17.6023 91.6273 17.6689 91.6273 17.6689L90.8158 15.8569C90.8158 15.8569 90.6136 13.574 89.3858 13.3648C88.7188 14.4754 87.8496 11.86 87.8496 11.86L85.8719 10.4684C85.8719 10.4684 86.4287 9.90147 85.2382 8.617C84.0498 7.33151 82.0164 6.33401 82.0164 6.33401C82.0164 6.33401 80.1499 4.71609 79.5829 4.15823C79.017 3.59937 77.7972 2.90707 77.7972 2.90707C77.7972 2.90707 75.5597 2.84242 75.9023 3.85303C76.2469 4.86263 76.2095 4.18246 77.112 4.62511C78.0145 5.06876 79.8699 8.20767 79.8699 8.20767L82.6652 10.434L82.8461 11.5457C82.8461 11.5457 82.8744 12.9505 83.497 13.6781C84.1225 14.4047 84.4712 15.9772 85.0371 16.5351C85.6051 17.095 86.5581 17.1444 86.5581 17.1444C86.5581 17.1444 87.5636 18.8049 88.36 20.0358C89.1574 21.2677 89.6111 22.052 90.6328 23.394C91.6566 24.7371 92.1871 25.3708 92.1871 25.3708L93.1533 26.5441C93.1533 26.5441 92.7632 27.0534 93.4453 27.9488C94.1255 28.8421 94.7531 30.1327 94.7531 30.1327C94.7531 30.1327 95.1563 31.31 96.0598 31.7537C96.9622 32.1974 96.9127 33.1534 96.9127 33.1534C96.9127 33.1534 97.1987 33.9962 98.1103 35.5637C99.0229 37.1321 99.9961 39.4312 99.9961 39.4312C99.9961 39.4312 98.2598 38.4631 98.7187 39.8102C99.1805 41.1553 101.388 43.9173 101.388 43.9173L101.86 45.3372C101.86 45.3372 101.573 47.3493 101.974 48.5287C102.374 49.707 103.451 50.654 103.451 50.654L104.033 53.4625C104.033 53.4625 103.306 54.088 103.427 54.9865C103.544 55.8859 104.227 56.9561 104.227 56.9561V59.3239C104.227 59.3239 103.635 60.5528 103.921 61.3957C104.207 62.2365 104.353 62.2587 104.702 63.8302C105.051 65.4027 104.298 66.9044 104.298 66.9044C104.298 66.9044 103.121 67.3057 103.071 68.2637C103.023 69.2188 103.203 70.8499 103.203 70.8499C103.203 70.8499 103.099 72.2 102.995 72.9883C102.886 73.7755 103.338 73.9969 102.669 74.7892C101.998 75.5815 102.004 76.1444 102.406 77.3218C102.807 78.5011 102.241 79.5299 102.241 79.5299C102.241 79.5299 101.713 78.6315 100.864 77.2874C99.9556 75.8473 97.4503 74.9165 97.4503 74.9165L98.4407 73.4138L99.1633 71.5886L99.1421 69.4158L99.3038 68.2334L98.7894 67.2814L97.5605 63.4249C97.5605 63.4249 95.9567 62.5276 95.3392 62.092C93.4494 60.759 93.7839 62.9813 93.7839 62.9813L94.8935 64.092C94.8935 64.092 95.4878 65.1278 95.3857 66.478C95.2826 67.8281 94.9228 67.4654 95.608 68.9216C96.2932 70.3799 93.9991 73.6149 93.9991 73.6149C93.9991 73.6149 93.1967 72.4597 91.2877 72.9246C89.3777 73.3895 89.4858 75.0105 89.4858 75.0105L88.0386 73.7705L85.8294 72.2556C85.8294 72.2556 85.6718 70.3153 85.2746 69.6998C84.8775 69.0844 84.9533 67.9131 84.9533 67.9131L85.1756 64.8014L83.6637 64.9399C83.6637 64.9389 82.4419 66.7054 82.1084 67.3835C81.7769 68.0606 81.9255 68.5285 82.0437 69.4269C82.164 70.3254 82.739 72.009 82.739 72.009L82.2378 72.7437C82.2378 72.7437 82.6966 74.0889 83.6617 75.2642C84.6248 76.4385 85.9416 77.4774 85.9416 77.4774L86.3853 78.8114C86.3853 78.8114 85.601 80.2262 84.9411 82.1443C84.2792 84.0614 85.1786 86.0331 84.2741 85.5895C83.3707 85.1468 81.8669 83.7694 81.8669 83.7694L80.6673 81.3601C80.6673 81.3601 80.9967 80.1211 79.9215 79.1722C78.8462 78.2242 77.9437 77.7796 77.9437 77.7796C77.9437 77.7796 78.0488 76.9923 77.0908 76.3809C76.1287 75.7684 74.9473 75.6088 74.9473 75.6088C74.9473 75.6088 75.4425 74.3111 74.5946 73.4734C73.7447 72.6356 73.1231 72.4709 73.1231 72.4709L71.7528 69.5573C71.7528 69.5573 70.8978 67.6685 70.1004 66.4355C69.3011 65.2046 69.5153 63.5553 69.5153 63.5553L68.5401 60.6923C68.5401 60.6923 69.1464 59.1704 68.5138 57.3199C67.8812 55.4685 66.245 54.5236 66.245 54.5236C66.245 54.5236 67.1313 52.7177 66.7311 51.5383C66.3289 50.3609 65.1333 48.5125 65.1333 48.5125L64.8261 44.8592L65.1192 42.9694C65.1192 42.9694 65.5214 41.7728 65.1192 40.5944C64.717 39.4161 64.2137 38.1134 64.2137 38.1134L64.2561 36.0336L64.527 34.6259L63.4527 33.6769L63.3284 32.2156C63.3284 32.2156 63.9439 31.8174 63.5912 29.682C63.2395 27.5466 61.765 25.9842 61.765 25.9842L61.575 23.2303L62.2935 21.4799C62.2935 21.4799 61.3678 19.4396 62.0328 18.0853C62.6978 16.7311 62.2208 16.5482 62.2693 15.5912C62.3198 14.6341 62.9888 12.5068 62.9888 12.5068C62.9888 12.5068 64.5421 8.62608 61.5598 11.0859L60.6129 13.9257L59.861 16.1329L59.5174 18.4815L59.0899 21.6345L57.7711 24.9513L58.718 27.3263L58.9303 30.7098L58.7979 33.2605L59.5599 34.7542L58.6028 37.0856L57.6064 36.4752L59.1597 41.6566L59.1758 43.9062L59.6407 46.0022L60.1804 48.3235L60.4229 50.4964L60.0662 53.1239L60.4957 56.2548L61.5598 60.5074L60.052 60.0324L62.052 63.144L62.9888 66.4346L63.8478 67.8716L64.6088 69.3643L65.3648 70.1091L65.6053 72.2819L66.4471 74.7497L68.6371 76.7598L69.4698 77.729L69.6335 79.6775L70.3935 81.1722L71.3839 83.3389L72.3632 84.0079L72.823 85.354L74.0377 87.4449L76.446 88.6274L78.2742 91.5894L75.8295 91.8107L73.6072 91.5894L70.0509 90.2565L69.6184 91.5662L67.0141 90.1362L65.1384 90.7335C65.1384 90.7335 64.3784 89.2388 63.096 88.4222C61.8155 87.6087 60.9161 87.9149 60.9161 87.9149L60.4755 88.8174L56.0197 84.5759L54.9222 85.8745C54.9222 85.8745 53.9126 83.541 53.0859 83.3217C52.2593 83.1024 48.9495 81.4753 48.9495 81.4753C48.9495 81.4753 49.0142 80.2009 47.7277 78.6365C46.4422 77.0691 44.7 74.9094 44.7 74.9094L43.558 72.29C43.558 72.29 42.3473 70.9499 41.2205 70.5831C40.0906 70.2172 40.3837 68.864 40.3008 67.8908C40.22 66.9156 38.4949 62.6983 38.4949 62.6983L37.7218 64.0091L36.8153 62.8156L37.0346 61.9889L35.9724 60.3467L34.8385 59.2299L34.1493 57.2098L33.0103 55.3442L31.4136 52.1305L30.2726 50.7914C30.2726 50.7914 30.8002 50.3366 30.4939 49.4372C30.1877 48.5408 29.4823 46.4994 27.9048 46.2852C26.3303 46.0719 27.262 48.7864 27.262 48.7864L27.4318 50.554L28.4192 52.9016L28.8083 54.7742L30.7931 59.8596L30.4313 61.7373C30.4313 61.7373 31.2701 63.4553 32.1726 63.8989C33.075 64.3416 33.6056 65.1632 33.6056 65.1632L34.4383 66.1324L34.1533 68.2344C34.1533 68.2344 34.69 69.8049 35.1437 70.4021C35.5995 70.9984 36.1291 71.82 36.1291 71.82L37.4145 73.3855L38.4716 74.2778L39.4671 77.1954L40.8314 78.9842L42.9476 81.5198C42.9476 81.5198 44.0764 81.8866 44.0815 82.6365C44.0855 83.3864 42.4948 83.1438 42.4948 83.1438C42.4948 83.1438 44.3998 85.0337 45.7561 86.0746C47.1133 87.1155 48.9354 90.2504 48.9354 90.2504L49.7641 90.4687L50.901 92.3352L52.5584 93.5237L57.377 95.8886L58.5745 95.7299C58.5745 95.7299 58.5523 97.1962 59.9035 97.4853C61.2546 97.7753 63.6983 97.9663 63.6983 97.9663L65.8296 98.6768C65.8296 98.6768 66.7493 99.9431 67.7245 99.8612C68.6997 99.7783 71.2839 99.3872 71.2839 99.3872L76.4965 99.367L69.3819 102.94L68.9079 104.596L66.0661 106.735C66.0661 106.735 64.2147 108.588 63.9974 109.413C63.7791 110.241 62.8868 111.297 62.8868 111.297L61.1728 112.884L59.5306 113.947L57.9702 115.983L55.1587 118.819C53.6064 119.147 55.0041 120.504 54.3361 121.483C53.6681 122.462 51.3578 124.505 50.3887 125.336C49.4195 126.168 49.5741 126.617 49.8035 127.29L50.0329 127.962L49.0698 129.545L49.5286 130.891L49.6105 131.867C49.6105 131.867 48.8727 133.373 48.4291 134.276C47.9854 135.176 46.7212 136.612 46.7212 136.612C46.7212 136.612 46.4311 137.963 46.7373 138.861C47.0425 139.759 47.6469 140.054 47.6469 140.054L46.4564 141.712C46.4564 141.712 46.0138 142.614 46.6221 143.661C47.2285 144.707 47.4589 145.381 47.4589 145.381C47.4589 145.381 46.8778 148.085 46.2806 148.538C45.6853 148.993 46.4402 149.737 46.1502 151.09C45.8601 152.441 45.3619 156.12 45.3619 156.12C45.3619 156.12 45.0709 157.471 45.3781 158.368C45.6843 159.266 47.2113 163.006 47.7095 159.327C48.2068 155.649 47.6004 154.603 47.6004 154.603L48.6342 152.497L49.2386 150.35C49.2386 150.35 50.7909 150.004 51.2345 149.103C51.6782 148.198 50.4584 145.359 51.3447 143.553C52.232 141.746 53.1961 140.163 53.1961 140.163L54.1511 137.833L53.8358 135.434C53.8358 135.434 54.8019 133.854 55.6923 132.797C56.5857 131.741 57.2456 130.011 57.2456 130.011C57.2456 130.011 58.5998 130.302 58.7403 129.251C58.8828 128.198 59.2274 124.072 59.2274 124.072C59.2274 124.072 60.3502 125.903 60.9403 124.701C61.5315 123.495 62.3532 120.75 63.3284 120.667C64.3026 120.586 65.8731 120.049 66.6836 118.019C67.4951 115.989 67.6416 115.687 68.4683 115.907C69.295 116.125 70.1025 114.335 71.3839 112.256C73.0423 109.569 74.9412 109.811 74.9412 109.811L80.7178 106.034C80.7178 106.034 79.016 108.674 78.0518 110.256C77.0877 111.837 75.8659 111.897 75.1625 114.478C77.6446 113.675 73.4324 117.97 73.4374 118.719C73.4445 119.47 71.8235 123.529 71.8235 123.529C71.8235 123.529 71.0777 124.286 71.4627 125.409C71.8458 126.532 71.9266 127.505 71.9266 127.505L70.0873 132.395C70.0873 132.395 69.868 133.22 69.8741 133.97C69.8801 134.718 70.1853 135.617 70.1853 135.617L69.676 137.796C69.676 137.796 68.8614 139.077 69.0191 140.274C69.1778 141.474 69.8629 142.743 69.8629 142.743C69.8629 142.743 69.7255 144.544 69.8074 145.521C69.8912 146.494 70.4168 147.703 70.4168 147.703L69.771 151.683L69.4203 155.059C69.4203 155.059 68.917 156.252 70.0509 157.37C71.1828 158.484 71.2465 158.947 71.2465 158.947L71.3839 161.592C72.4956 162.925 73.3566 164.782 72.2025 165.749L73.3536 169.116L74.7149 170.906L74.4955 174.703L75.8295 173.147L76.6411 178.014L77.6304 180.183L79.3666 181.597L79.1544 183.172L80.2145 184.813L81.1938 185.483C81.1938 185.483 81.5778 186.604 81.8851 187.502C82.1903 188.401 82.8744 189.669 82.8744 189.669L83.6395 191.915L84.2499 192.958L85.6051 194.001L85.9881 195.122C85.9881 195.122 86.5995 196.916 87.1321 197.739C87.6637 198.559 88.5348 199.256 88.5348 199.256L91.7859 202.906C91.7859 202.906 95.4574 202.656 93.4928 200.57C91.5272 198.485 89.5697 197.148 89.5697 197.148L89.8911 195.544L89.509 194.422L88.8249 193.151L87.5374 191.586L87.7577 190.758L86.454 186.944L85.6223 185.977L83.9427 181.788L83.2635 181.266L81.6435 175.056C81.6435 175.056 82.8482 175.646 82.1589 173.626C81.4687 171.608 80.7855 170.338 80.7855 170.338C80.7855 170.338 79.111 166.898 79.1777 165.623C79.2433 164.348 80.0528 162.317 79.4394 160.523C78.827 158.727 78.0609 156.482 78.0609 156.482C78.0609 156.482 79.7618 158.198 79.8295 156.925C79.8952 155.648 77.7931 150.56 77.7931 150.56L78.4551 148.831C78.4551 148.831 80.2469 147.467 78.9584 145.902C78.4227 145.251 78.1762 145.027 78.068 144.981L78.1964 144.033L78.2378 141.951L78.6714 139.924L79.5091 139.074L79.7234 137.497L80.5076 137.043L80.3237 134.851L80.7188 132.036L81.6072 128.701L82.4965 126.479L82.7168 123.696C82.7168 123.696 83.6738 123.746 83.7759 122.397C83.88 121.045 84.6905 118.065 84.6905 118.065L86.078 115.766C85.8294 116.48 87.1058 117.597 87.4504 118.61C87.7941 119.617 88.4307 120.525 88.4307 120.525L88.7804 122.191C88.7804 122.191 90.4085 124.085 91.027 124.25C91.6475 124.414 91.8193 125.703 92.4964 126.034C93.1735 126.37 94.0426 127.485 94.0426 127.485L96.0173 127.426C96.0173 127.426 96.1376 128.325 97.2644 128.88C98.3942 129.433 99.4574 128.694 99.4574 128.694C99.4574 128.694 100.031 130.344 100.985 130.393C101.941 130.442 103.83 131.591 103.83 131.591L106.425 131.754L110.72 130.479C112.29 130.047 113.609 127.812 113.609 127.812L113.831 126.496L115.831 125.145L116.288 123.143L116.959 121.575L118.053 119.59L118.785 116.92C118.785 116.92 119.394 113.827 119.387 112.701C119.377 111.577 118.617 110.496 118.72 109.146C118.825 107.793 118.154 105.962 119.165 106.18C120.18 106.397 121.095 106.294 121.836 107.358C122.574 108.421 123.155 107.825 123.666 108.779C124.182 109.73 125.584 109.44 125.584 109.44L127.292 112.238C127.292 112.238 128.368 113.188 128.989 113.35C129.607 113.516 130.124 115.03 130.124 115.03C130.124 115.03 131.249 115.022 131.638 114.514C132.031 114.005 132.821 114.674 132.821 114.674C132.821 114.674 132.997 115.741 133.791 116.41C134.583 117.08 135.991 117.351 135.991 117.351C135.991 117.351 136.622 119.203 136.965 119.649C137.302 120.098 137.759 120.881 138.605 121.156C139.451 121.43 139.9 121.089 139.9 121.089C139.9 121.089 140.36 123 140.988 123.726C141.611 124.454 142.745 125.57 142.745 125.57C142.745 125.57 143.146 126.747 143.763 126.912L144.386 127.075L145.753 129.429C145.753 129.429 146.599 129.702 146.828 130.376C147.058 131.049 148.655 134.075 149.114 135.423C149.575 136.768 149.534 138.85 149.534 138.85C149.534 138.85 150.841 141.034 150.961 141.934C151.078 142.833 150.133 144.47 150.133 144.47C150.133 144.47 150.878 146.095 151.165 146.937C151.452 147.78 151.634 149.409 151.634 149.409C151.634 149.409 150.458 150.373 150.635 151.44C150.811 152.509 151.33 154.023 151.33 154.023C151.33 154.023 150.893 156.051 151.289 156.667C151.69 157.284 153.158 158.285 153.158 158.285C153.158 158.285 152.279 160.653 152.677 161.831C153.081 163.009 153.546 164.919 153.546 164.919L154.297 167.669L153.804 169.528L153.474 170.768L154.176 174.475L153.507 175.268L153.08 178.419L153.604 181.06L152.951 184.102C152.951 184.102 152.739 185.68 153.976 186.008C155.217 186.336 155.547 185.096 155.705 183.914C155.866 182.733 156.409 179.915 156.409 179.915L157.285 176.421L156.766 174.908L157.217 167.424L156.755 165.515L157.307 164.386L156.501 161.469L158.055 161.592L156.639 156.91L155.943 154.329C155.943 154.329 157.684 153.921 157.448 152.686L156.584 149.599L156.117 147.127L155.655 145.78L155.931 144.935L155.808 143.474L156.138 142.234L155.904 140.998L156.282 138.803L154.973 136.618L154.049 133.362L153.312 132.861L153.643 131.622L153.121 129.544L152.054 128.034L153.388 127.368C152.499 126.478 152.054 123.811 151.05 122.922C149.352 121.419 148.275 120.3 148.275 120.3C148.275 120.3 147.935 119.85 147.646 119.009C147.358 118.168 147.694 118.055 146.73 116.879C145.763 115.705 145.262 115.877 145.262 115.877L145.083 114.811C145.083 114.811 145.243 113.628 144.113 112.511C142.979 111.393 142.017 110.783 142.017 110.783L141.214 108.427L137.707 105.864C137.707 105.864 138.878 104.337 136.902 103.507C134.929 102.679 132.844 102.075 132.844 102.075L131.432 101.241C131.432 101.241 132.153 100.054 130.067 99.4519C127.982 98.8476 127.421 98.8516 127.421 98.8516L126.289 97.7349C126.289 97.7349 126.448 98.4625 124.643 97.5752C122.835 96.6889 121.165 96.2564 121.165 96.2564C119.387 96.033 116.383 95.2276 118.55 95.0124C118.55 95.0124 120.068 93.2802 122.712 93.3176C125.355 93.356 126.361 92.4464 126.361 92.4464L128.555 92.2645L130.129 92.4757C130.129 92.4757 131.543 93.3105 132.388 93.5854C133.232 93.8602 134.848 94.6374 135.523 94.406C136.193 94.1766 137.402 94.505 137.402 94.505C137.402 94.505 139.485 95.1093 140.389 95.554C141.291 95.9977 142.022 95.936 142.754 95.8723L143.484 95.8107L146.476 97.4196L148.128 100.052L149.362 99.8178L151.242 103.123L153.44 103.5L154.963 104.108C154.963 104.108 155.249 104.95 156.382 106.066C157.515 107.184 158.867 107.287 158.867 107.287L160.119 109.302C160.119 109.301 160.635 110.818 161.478 110.53L162.319 110.242L164.916 111.798C164.916 111.798 165.04 113.26 166.115 114.21C167.19 115.157 167.581 114.648 167.581 114.648C167.581 114.648 168.443 117.172 168.782 117.62C169.125 118.068 170.822 121.491 171.834 121.147C172.842 120.801 172.66 117.424 171.749 115.857Z" fill="#C32032"/>
</g>
<defs>
<clipPath id="clip0_154_2384">
<rect width="200" height="200" fill="white"/>
</clipPath>
</defs>
</svg>
