<svg width="200" height="200" viewBox="0 0 200 200" fill="none" xmlns="http://www.w3.org/2000/svg">
<g clip-path="url(#clip0_154_2379)">
<path d="M198.314 126.644C196.647 124.962 193.014 122.472 191.034 120.713C189.054 118.954 185.679 115.205 185.615 115.142C185.226 114.719 184.206 113.119 183.482 111.785C183.482 111.785 183.056 111.01 182.948 110.807C182.948 110.79 183.343 108.094 183.343 108.094C183.343 108.094 181.661 105.998 181.649 105.984C181.968 105.834 185.449 104.209 185.449 104.209L184.657 99.9018C184.48 98.9401 183.998 96.4693 183.258 93.4794H183.357C183.001 92.2092 182.619 90.9098 182.224 89.6356C181.474 87.0781 180.578 84.4571 179.546 82.2454C179.458 82.0529 179.374 81.8876 179.289 81.7111C179.22 81.572 179.157 81.4319 179.088 81.3009C179.648 77.4148 179.968 73.8119 179.968 70.6143C179.968 57.4187 175.749 49.7645 171.941 44.8461C170.658 43.092 169.325 41.5638 168.022 40.2543L159.421 30.5829L158.287 43.7039C157.792 49.5809 156.324 54.5548 154.96 57.7211C151.027 55.5961 144.6 54.9661 138.899 54.8965C134.826 54.5417 131.28 54.4721 129.328 54.4661C129.328 54.4661 128.022 54.4631 126.705 54.46C120.578 38.2886 102.985 28.0204 102.985 28.0204C102.985 28.0204 105.688 43.3854 99.936 59.0074C73.2776 60.2262 60.3007 66.3361 60.3007 66.3361C60.3007 66.3361 66.2755 71.3169 69.1465 72.7454C30.9145 79.692 6.98592 108.099 6.98592 108.099L19.0878 107.553C4.58067 119.765 0 132.74 0 132.74C0 132.74 8.03734 127.845 11.2702 127.048C2.2611 139.052 1.72582 150.556 1.72582 150.556C1.72582 150.556 38.5456 124.341 77.4772 128.539L71.7151 146.605L86.2525 140.752C84.825 143.451 74.8129 166.526 74.8129 166.526C97.692 149.749 128.706 147.408 136.845 155.636L138.879 157.745C144.739 163.889 152.765 172.305 163.496 171.967C173.396 171.66 181.874 162.981 183.744 154.905C186.035 152.134 188.543 148.929 190.124 146.399C197.63 143.076 199.886 134.968 199.958 130.728L200 128.336L198.312 126.642" fill="#990000"/>
<path d="M189.281 126.461L187.456 129.611L187.613 125.223C186.324 124.248 183.562 121.402 183.562 121.402L181.861 124.146L181.6 119.139C180.372 117.927 178.504 114.491 178.504 114.491L176.132 118.234L177.379 109.709L172.722 103.889L179.081 100.925C179.081 100.925 176.554 87.208 173.23 82.4509C177.389 57.8046 168.588 49.4719 163.934 44.1805C163.354 51.0092 161.439 57.8197 159.169 62.0466C159.132 62.1151 159.096 62.1786 159.06 62.2432C161.222 63.9206 164.071 67.1878 165.783 73.3571C165.783 73.3571 162.105 66.465 151.074 62.7018C151.028 62.6887 150.983 62.6766 150.938 62.6625C143.79 60.5536 133.326 60.1988 130.217 60.1383C130 60.1333 129.477 60.1242 128.904 60.1131C132.958 62.9055 140.379 68.4116 142.647 72.7402C142.647 72.7402 135.858 69.586 126.18 67.7523C125.541 67.6837 125.187 67.6585 125.187 67.6585C119.411 47.1594 109.472 41.6644 109.472 41.6644C109.472 41.6644 107.89 59.0637 105.672 66.217C105.672 66.217 87.3356 64.3359 73.7468 68.4659L86.4313 76.3994C86.4313 76.3994 51.5249 78.1686 25.0056 102.553L34.678 103.184C34.678 103.184 23.5237 110.614 16.6961 119.424L26.8312 116.926C26.8312 116.926 17.0771 127.744 12.7031 136.765C12.7031 136.765 49.5219 115.411 86.8487 123.242C84.7801 126.79 83.016 130.872 82.0533 135.406C82.0533 135.406 89.4888 131.143 96.5796 128.183C94.7025 133.107 89.6904 146.296 86.6844 154.595C86.9837 154.738 123.557 134.141 140.876 151.646C146.244 157.072 153.957 166.59 163.321 166.298C171.073 166.056 178.01 158.331 178.512 152.323C178.512 152.323 185.263 144.288 186.168 141.841C194.132 139.859 194.293 130.629 194.293 130.629C194.293 130.629 190.843 127.156 189.281 126.459" fill="#002244"/>
<path d="M150.933 99.2852C150.296 100.085 149.884 101.453 150.102 102.694C150.368 104.131 151.788 105.528 153.554 105.289C154.497 105.16 154.965 104.989 155.409 104.36L154.457 100.676L150.933 99.2852ZM139.626 119.078C133.747 120.054 130.021 123.941 130.021 123.941L138.957 121.78L140.255 127.143L148.054 125.909L148.747 132.893L154.788 132.151L154.264 139.231L160.03 139.699L159.57 144.57C162.014 142.256 162.747 137.352 162.747 137.352L156.239 136.336L156.433 129.393L150.199 130.304L150.215 122.441L141.489 124.667L139.626 119.078Z" fill="#990000"/>
<path d="M151.425 83.9102L154.748 93.9546L134.006 87.4239L141.546 97.3247C142.409 110.248 154.732 107.748 154.732 107.748C145.135 106.172 147.191 98.4627 147.191 98.4627L143.143 93.8142L156.159 98.4054L158.361 103.941L166.643 105.725L160.885 100.338L159.264 94.0473L151.425 83.9102ZM90.1589 88.4118C77.6273 88.5618 62.5458 90.9586 47.2764 98.6022C61.8361 94.8965 78.9169 96.4054 78.9169 96.4054C51.5329 103.576 26.5352 124.756 26.5352 124.756C65.4128 111.135 90.0863 117.466 90.0863 117.466C96.0299 108.095 103.441 105.928 103.441 105.928C103.441 105.928 102.441 105.505 100.683 105.043L93.4089 102.704C93.4089 102.704 104.361 95.4175 121.32 92.7683C121.32 92.7683 108.465 88.1916 90.1589 88.4118ZM136.393 102.117C136.393 102.117 113.248 103.23 101.167 120.297C107.828 118.224 110.232 118.41 110.764 118.514L102.232 129.893L115.385 126.692L95.4815 146.95C95.4815 146.95 117.522 133.095 132.49 139.99C136.546 141.861 142.603 144.152 147.74 152.692C153.216 161.789 166.966 165.539 171.579 156.587C171.579 156.587 164.159 155.789 161.474 153.644C159.708 152.232 152.135 145.418 148.377 140.248C144.611 135.063 138.135 131.272 134.667 129.829C131.183 128.385 123.732 128.49 123.732 128.49C123.732 128.49 124.183 116.805 144.498 115.603C148.748 115.353 155.216 117.934 159.917 126.531C164.595 135.119 168.788 138.74 172.603 139.579C175.958 140.313 180.692 141.006 184.329 139.627C184.522 138.16 184.579 136.152 183.651 135.466C183.651 135.466 182.434 135.152 180.458 135.119C180.458 135.119 181.329 137.176 181.821 138.474C181.821 138.474 177.474 137.789 176.53 135.474C176.03 134.248 177.232 130.514 177.232 130.514L183.893 130.458L173.845 127.41C173.845 127.41 172.772 126.297 171.756 124.756L178.538 125.41C178.538 125.41 170.482 122.426 169.595 122.289C169.595 122.289 167.506 120.2 166.603 118.514C166.603 118.514 172.756 119.91 173.966 119.74C173.966 119.74 166.192 116.466 164.756 115.716L162.111 111.151L169.748 112.909C168.417 110.958 164.256 108.958 161.522 109.305C158.78 109.651 155.675 112.482 154.941 115.756C150.554 112.248 143.425 108.329 137.256 109.313C131.159 110.289 121.449 112.692 121.449 112.692C121.449 112.692 125.32 106.577 136.393 102.117Z" fill="#BEBEBE"/>
<path d="M113.305 54.6211C113.426 57.8509 110.248 75.3188 104.837 83.6995L109.821 80.7825L112.313 84.4366L116.668 80.5535L120.869 86.2543C120.869 86.2543 121.668 69.5002 113.305 54.6211ZM121.321 92.7673C121.321 92.7673 72.228 96.1157 46.373 116.336C46.373 116.336 68.8393 105.858 86.8692 113.546C86.8692 113.546 81.9337 110.296 75.87 107.401C86.587 102.346 96.3048 103.875 100.797 105.079L93.4096 102.703C93.4096 102.703 104.361 95.4165 121.321 92.7673ZM100.797 105.079L103.442 105.929C103.442 105.929 102.466 105.526 100.797 105.079ZM143.37 118.659C142.829 118.667 142.249 118.699 141.636 118.771L142.982 122.642L150.192 120.417C149.281 119.925 147.176 118.61 143.37 118.659ZM152.031 121.449L151.918 127.78L157.063 127.755C157.063 127.755 153.7 122.457 152.055 121.707L152.031 121.449ZM137.224 123.804L129.184 125.973L130.49 125.949C133.966 125.997 138.716 128.175 138.716 128.175L137.224 123.804ZM146.555 128.4L140.482 129.191C143.023 130.159 146.434 133.909 146.434 133.909L146.555 128.4ZM158.103 129.707L157.708 134.997L162.079 135.667C162.079 135.667 159.587 132.546 158.103 129.707ZM152.378 134.941L147.708 135.328C148.071 136.239 151.821 140.683 151.821 140.683L152.378 134.941ZM165.281 139.288C163.829 144.401 158.982 148.449 158.982 148.449C164.047 149.062 169.104 144.272 170.208 142.062C170.208 142.062 166.958 141.473 165.281 139.288ZM152.732 141.739L153.063 142.062C153.491 142.513 156.732 145.941 157.297 146.505C157.41 145.739 157.926 142.562 157.926 142.562L152.732 141.739ZM183.305 142.094C183.305 142.094 180.733 143.054 178.676 142.53C178.676 142.53 179.176 145.675 177.95 148.417C180.983 146.409 183.305 142.094 183.305 142.094ZM173.031 142.409C173.031 142.409 173.216 145.852 172.442 147.901C175.507 146.562 177.12 142.554 177.12 142.554C177.12 142.554 174.192 142.667 173.031 142.409ZM170.821 147.489C170.821 147.489 166.7 150.183 161.37 150.699C161.37 150.699 164.079 153.094 167.345 152.941C169.031 151.328 170.821 147.489 170.821 147.489ZM176.273 147.53C174.491 150.497 169.281 153.643 169.281 153.643C169.974 153.893 173.144 154.304 173.144 154.304C173.144 154.304 176.386 150.893 176.273 147.53Z" fill="white"/>
</g>
<defs>
<clipPath id="clip0_154_2379">
<rect width="200" height="200" fill="white"/>
</clipPath>
</defs>
</svg>
