<svg width="200" height="200" viewBox="0 0 200 200" fill="none" xmlns="http://www.w3.org/2000/svg">
<path d="M167.735 48.1204L167.495 47.1054L166.563 46.6354C166.107 46.4062 158.975 42.9281 141.611 40.3943C143.193 37.5827 144.245 34.1342 144.796 29.9538C145.04 28.0959 144.649 26.5676 143.634 25.409C142.488 24.1014 140.648 23.437 138.163 23.4349C130.731 23.4275 126.32 23.0125 120.989 22.2478C116.893 19.8185 112.381 18.5859 107.566 18.5859C104.186 18.5859 101.562 19.2197 100.36 19.5735C97.8664 18.9609 95.2554 18.6504 92.5854 18.6504C84.9353 18.6504 78.8843 21.1662 77.1268 21.9795C76.9399 21.9827 76.7498 21.9827 76.5618 21.9827C71.0938 21.9827 65.3861 21.6415 61.6915 21.0965C61.4212 21.0532 61.1634 21.0099 60.9174 20.9698C59.7756 20.7797 58.7902 20.6149 57.6949 20.6149C57.1805 20.6149 56.6788 20.6508 56.1592 20.7269C55.3765 20.8409 53.9264 21.3373 53.0033 23.3705C51.476 26.7366 51.9069 33.791 54.9614 38.5629C55.3448 39.2124 55.8719 39.9454 56.4581 40.6859C40.4936 43.1869 33.8744 46.4147 33.4382 46.6354L32.5045 47.1054L32.2648 48.1204C26.6743 71.7666 27.8689 95.2955 35.7154 116.166C43.1109 135.829 56.1666 152.782 73.4756 165.194C83.5982 172.824 92.0541 177.422 98.9933 180.913L99.9872 181.414L100.987 180.924C110.365 176.322 118.003 171.618 126.525 165.194C143.834 152.782 156.889 135.829 164.284 116.166C172.132 95.2955 173.325 71.7666 167.735 48.1204Z" fill="white"/>
<path d="M140.392 113.865C143.035 116.664 145.598 120.28 147.074 125.042C147.168 125.343 147.4 126.257 147.578 127.189C148.923 123.571 150.063 119.888 151.01 116.157C149.075 113.48 145.916 110.8 143.888 108.96C139.182 104.688 135.221 100.721 134.969 94.2383C134.939 93.4789 134.825 92.127 134.79 91.7003C135.772 90.6642 136.422 89.8763 137.079 88.9003C138.02 90.0358 138.985 90.9187 139.579 91.5144C142.933 94.8721 143.972 98.2435 146.287 102.308C147.497 104.431 149.895 107.582 152.354 110.217C152.712 108.403 153.029 106.58 153.304 104.751C150.135 101.77 146.152 96.6317 144.65 93.7261C147.623 96.3825 151.04 99.2616 153.848 100.691C154.464 95.4519 154.755 90.1688 154.755 84.8868C154.755 73.6171 153.817 60.0587 150.647 44.2844C147.054 43.5408 142.741 42.7994 137.638 42.1477C139.685 39.8547 141.714 36.1939 142.575 29.6624C142.948 26.8117 141.219 25.6805 138.161 25.6773C130.67 25.6699 126.17 25.2675 120.218 24.4025C110.246 18.2512 100.427 21.9056 100.427 21.9056C88.4042 18.6684 77.6447 24.2187 77.6447 24.2187C72.0331 24.2662 65.6611 23.9483 61.3381 23.3104C59.3651 22.9946 58.1325 22.7062 56.4827 22.9449C53.7134 23.3516 53.5116 32.1846 56.8725 37.3927C57.596 38.639 59.2088 40.5993 60.8913 42.3251C56.3761 42.9314 52.5104 43.6084 49.2414 44.2844C46.0707 60.0587 45.1328 73.6171 45.1328 84.8868C45.1328 104.435 49.1073 123.997 58.818 141.243C58.066 133.679 58.2804 126.198 59.044 120.457C59.8171 114.64 61.0751 109.781 62.2358 106.024C62.2358 106.024 60.9135 108.101 59.8182 110.076C61.4057 104.232 64.4095 98.7335 66.598 94.8795C67.8717 96.882 69.6155 99.0483 71.7617 100.816C68.2784 107.602 64.7633 118.875 64.9165 126.426C65.5079 124.054 66.2959 122.318 66.2959 122.318C65.3178 133.129 68.6744 148.155 73.9121 157.246C76.4966 161.836 79.4213 165.841 83.3609 169.419C84.3621 170.074 85.3497 170.704 86.3246 171.309C82.0079 158.865 83.7327 152.073 90.7173 135.176C85.6201 140.272 81.6678 142.417 79.2586 150.628C79.3822 148.608 79.7529 146.713 80.1648 145.725C77.3691 142.388 75.4436 138.393 74.436 132.63C73.8065 133.67 73.2214 134.773 72.7228 136.238C72.7947 133.834 73.158 132.671 74.1117 130.454C74.0832 130.223 74.0505 129.999 74.0241 129.76C73.4231 130.765 72.8517 131.719 72.6331 132.542C70.264 125.581 69.1698 114.653 71.4406 106.624C72.0247 118.541 75.4531 125.883 81.2474 132.078C81.7438 131.302 82.3005 130.616 83.0092 129.924C82.4631 130.825 82.0734 131.649 81.7555 132.446C81.2939 133.441 81.0489 134.266 80.5524 136.016C81.6667 134.189 82.2624 133.21 82.9384 132.221C88.6609 124.24 96.7662 121.606 102.189 116.184C102.189 116.184 99.093 117.404 96.5433 119.336C100.416 115.632 104.642 114.496 108.11 109.27C108.407 108.826 108.765 108.295 109.143 107.686C109.193 108.383 109.072 109.324 108.828 110.087C110.29 108.869 111.385 107.475 111.809 106.589C111.746 107.462 111.235 109.79 110.886 110.861C112.344 109.59 113.185 108.003 113.813 106.776C114.2 107.07 114.563 107.797 114.729 108.424C116.017 107.863 117.208 106.937 118.034 105.585C118.375 105.847 118.838 106.505 118.96 106.804C119.985 106.076 120.878 104.853 121.167 103.549C121.334 103.803 121.52 104.109 121.606 104.391C122.669 104.119 123.95 102.914 124.432 102.351C125.726 100.845 126.339 98.6501 126.517 97.897C128.124 97.1756 129.707 96.1934 131.173 95.0791C130.911 95.7065 130.717 96.4501 130.635 97.3309C130.62 97.4883 130.61 97.6393 130.598 97.7903C130.077 104.652 132.526 106.812 137.112 110.753C138.169 111.661 139.288 112.693 140.392 113.865Z" fill="black"/>
<path d="M111.934 147.572C125.029 133.772 127.919 122.047 122.891 108.797C123.005 119.621 99.2724 135.632 95.6116 141.56C96.8791 140.612 101.205 137.915 102.105 137.315C98.8172 139.946 97.0333 141.628 94.754 145.01C96.9921 142.79 99.0633 141.659 100.84 140.443C91.9878 148.192 89.379 160.969 92.0206 174.677C94.6695 176.169 97.2487 177.523 99.7995 178.811C98.7971 165.922 104.885 155.001 111.934 147.572Z" fill="black"/>
<path d="M42.5825 91.5322C41.502 73.5018 43.42 58.5703 45.8609 45.0352C44.6421 45.3214 43.5246 45.6065 42.5159 45.8801C34.0346 84.0163 39.5955 118.519 57.403 144.198C48.5605 129.132 43.5003 111.376 42.5825 91.5322Z" fill="#FFD200"/>
<path d="M57.4012 144.197C57.3907 144.179 57.4118 144.215 57.4012 144.197C39.5948 118.518 34.0339 84.0151 42.5151 45.8789C36.8867 47.4093 34.4447 48.6366 34.4447 48.6366C24.0444 92.6284 38.1266 131.132 65.3618 155.773C62.4234 152.101 59.7914 148.274 57.4012 144.197Z" fill="black"/>
<path d="M157.418 91.5322C158.499 73.5018 156.581 58.5703 154.14 45.0352C155.359 45.3214 156.476 45.6065 157.485 45.8801C165.966 84.0163 160.405 118.519 142.598 144.198C151.44 129.132 156.5 111.376 157.418 91.5322Z" fill="#FFD200"/>
<path d="M142.597 144.197C142.587 144.215 142.608 144.179 142.597 144.197C160.404 118.518 165.965 84.0151 157.483 45.8789C163.112 47.4093 165.554 48.6366 165.554 48.6366C175.954 92.6284 161.872 131.132 134.637 155.773C137.575 152.101 140.207 148.274 142.597 144.197Z" fill="black"/>
<path d="M58.7551 82.3734C59.2082 85.3688 60.0616 88.1783 61.3576 90.56C62.3863 88.3494 64.2378 86.6141 65.5824 85.6994C65.6468 85.9307 65.6922 86.0849 65.764 86.3088C64.5832 87.5139 63.6252 88.9198 62.7465 90.503C63.8946 89.1426 65.0036 88.2828 66.1474 87.402C67.8933 91.8845 71.1042 94.7288 74.6087 96.6511C75.4399 92.3809 76.9439 88.6895 78.7997 86.8802C78.8852 87.027 79.0003 87.2425 79.0859 87.3809C77.7392 89.5218 77.3368 90.6403 76.7823 92.8498C77.9103 90.9328 78.7997 89.7277 79.8611 88.5543C80.8466 89.9337 81.7982 90.8864 82.677 91.7641C85.8297 88.6113 92.45 88.474 96.041 88.1234C91.8448 84.7573 76.2384 87.7188 69.9519 78.7633C70.3311 78.0356 70.8243 77.3818 71.5932 76.5622C70.011 77.5128 67.2829 79.9579 65.6278 81.933C66.0006 80.8969 66.3988 80.0709 66.8562 79.358C64.2833 74.4266 64.7015 68.1633 65.2212 63.4738C65.951 62.9351 66.7273 62.4429 67.5881 62.0321C65.2782 62.5707 63.5788 63.3692 61.421 64.8796C60.6098 58.7262 63.1785 52.0426 65.2729 47.4819C64.3171 47.6572 63.62 47.9931 62.774 48.5328C63.8323 43.4514 65.7081 39.139 69.4048 35.0938C64.8948 39.0144 61.459 44.0757 59.6149 50.3907C60.6309 49.8826 61.0523 49.7221 61.8424 49.5077C61.7674 49.6418 61.6322 49.8509 61.554 49.9851C60.088 50.7888 59.2114 51.4352 57.8922 52.9139C59.1998 52.069 59.9602 51.6697 60.8158 51.3275C57.5268 57.2126 54.5398 63.4675 55.9657 72.6543C56.8624 71.541 58.2767 70.4553 59.0023 70.1099C58.9695 70.2799 58.9463 70.4542 58.9178 70.6253C57.3704 72.0755 56.2921 73.7992 55.5918 75.3856C56.4811 74.2037 57.4042 73.2468 58.6484 72.4715C58.2513 75.7849 58.2724 79.1837 58.7551 82.3734Z" fill="white"/>
<path d="M125.737 74.4199C125.566 75.3641 125.539 76.4119 125.579 77.1692C127.426 77.6582 129.569 74.8181 130.5 70.5753C131.336 71.2882 132.124 72.0297 133.01 73.0616C132.331 71.3801 131.749 70.4771 130.726 69.3237C130.756 69.1199 130.872 68.8368 130.897 68.6287C130.897 68.6287 131.674 69.179 132.247 69.9965C132.698 68.6889 133.049 65.74 133.267 61.6758C132.564 63.0383 131.328 64.0702 130.09 64.688C129.038 70.2437 127.182 73.4302 125.737 74.4199Z" fill="#FFD200"/>
<path d="M133.598 49.575C133.598 48.3033 133.511 47.376 133.191 46.2838C133.491 46.3747 133.947 46.5923 134.186 46.7137C133.981 44.0627 134.177 42.6727 133.132 40.2656C133.099 41.6366 133.043 43.4057 132.185 44.1714C131.48 44.8041 130.756 45.2931 130.018 45.6248C131.277 46.493 132.695 47.8597 133.598 49.575Z" fill="#FFD200"/>
<path d="M69.9643 72.6603C70.767 71.9621 71.5993 71.5449 72.5393 71.2365C72.5868 71.3326 72.6386 71.4256 72.6893 71.5207C71.1272 72.5557 70.1713 73.4281 68.8574 75.1888C70.5421 73.9499 71.9278 73.2338 73.3473 72.5916C76.2529 76.7805 82.4834 80.1223 89.4163 81.0074C88.4752 79.0313 84.9169 76.5503 83.6389 74.5921C81.2181 70.8891 82.6408 66.5132 84.7352 63.8706C79.7088 66.0992 78.3938 67.655 77.7422 71.0813C71.6849 65.1507 70.9371 50.2287 71.9985 41.9883C68.6324 48.1016 65.9434 52.5165 65.9434 61.1382C66.9193 60.7179 67.9945 60.3081 69.17 60.1549C68.5342 63.428 68.6842 68.69 69.9643 72.6603Z" fill="#FFD200"/>
<path d="M86.9403 37.8006C88.9313 39.4673 89.8977 40.683 93.9662 41.5332C94.6622 41.679 95.6244 41.6769 96.4155 41.6156C94.7932 42.8091 92.5804 43.2971 90.2779 43.5706C87.272 43.9329 82.5983 41.6114 79.2121 40.9523C77.95 39.63 77.7187 38.2685 78.3091 37.3739C78.5541 37.0011 78.8847 36.1181 79.6959 35.384C79.8617 35.3819 80.0339 35.3809 80.2007 35.3957C81.2781 35.4907 82.3564 35.6217 83.4126 35.8678C84.6346 36.154 85.9908 37.0254 86.9403 37.8006Z" fill="white"/>
<path d="M90.1804 50.6087C93.3342 50.7946 96.0296 51.611 98.3744 52.1814C98.742 52.268 99.1021 52.3683 99.4707 52.4687C103.635 53.6284 107.57 54.9032 111.019 56.1886C112.294 57.0357 106.158 55.4831 99.5056 53.6717C99.6334 54.26 99.9397 54.8229 100.506 55.3236C101.125 55.8728 101.568 56.3914 101.897 56.8846C100.095 56.3787 98.2434 55.9457 96.4204 55.6573C94.1253 55.2961 91.8809 55.1609 89.834 55.3901C92.4512 55.5665 95.7307 55.9805 99.1169 56.8308C99.1877 56.8456 99.2574 56.8614 99.326 56.8741C99.4021 56.891 99.4781 56.9068 99.5531 56.9216C103.818 57.7877 107.878 58.789 111.464 59.8388C112.655 60.5 108.286 59.8452 102.734 58.8048C103.179 60.5507 102.936 61.8562 106.003 62.7983C109.778 63.958 115.676 63.3422 118.025 62.322C119.587 61.6439 121.223 60.1905 121.514 59.5526C121.619 59.3223 121.709 59.1195 121.789 58.9284C119.656 58.2397 120.391 55.708 117.97 54.2072C116.234 53.133 116.22 52.0916 115.311 50.37C114.977 49.7342 114.48 49.0043 113.809 48.1467C111.304 45.1809 110.28 44.7426 107.835 44.9813C106.208 45.1376 103.627 45.7238 101.663 48.1921C101.061 47.9471 100.456 47.7147 99.8489 47.4898C96.6465 46.3174 93.3754 45.4692 90.1582 45.4111C93.4958 45.8632 95.735 46.5582 99.8689 48.0347C104.179 49.4712 108.201 51.0048 111.688 52.5225C112.837 53.3918 107.08 51.7029 100.656 49.6011C100.205 50.3087 99.7813 51.1273 99.5711 51.9596C98.6606 51.6923 97.7513 51.4515 96.8429 51.2498C94.5848 50.745 92.3467 50.4746 90.1804 50.6087Z" fill="white"/>
<path d="M102.918 36.9088C102.734 36.8127 102.55 36.7007 102.368 36.5814C102.344 36.7504 102.3 36.932 102.224 37.1412C100.33 37.2679 97.8266 34.6105 96.6469 33.5396C94.8809 31.9341 93.0061 31.5285 90.3942 31.2803C89.1679 31.3669 88.9672 30.954 90.4617 30.5716C92.2003 30.3192 93.6853 30.4111 95.0024 30.7406C94.0803 29.9495 93.1044 29.2429 91.9161 28.8247C91.0173 28.5067 90.0277 28.1233 89.0718 28.0695C88.493 28.041 87.7473 28.2152 87.1083 28.4138C85.9961 28.7592 84.6653 29.3676 83.832 29.8418C83.8616 31.0511 83.4148 32.2594 83.5796 33.4804C83.6651 34.1236 83.5246 34.5323 84.0718 34.8862C84.396 35.0953 84.7224 35.4396 85.0403 35.6097C85.3741 35.7924 86.1229 35.6847 86.6753 35.6562C88.0135 35.4175 89.0718 34.9506 90.2019 34.8778C93.1963 34.6813 96.0818 35.1091 98.0241 36.5106C99.9316 37.984 102.293 39.4405 102.884 39.7584C103.096 39.8736 103.39 40.1334 103.736 40.1123C103.956 39.9792 104.173 39.8524 104.391 39.7289C104.406 39.6053 104.41 39.4912 104.41 39.3972C104.41 38.8121 104.093 37.5172 102.918 36.9088Z" fill="white"/>
<path d="M129.305 34.5129C129.174 33.8486 128.929 32.7564 128.663 32.3255C128.108 31.4288 127.635 30.7835 127.042 30.1825C125.964 29.4896 124.587 28.9985 122.686 28.4693C121.801 28.2233 119.99 28.0479 119.659 28.1166C119.106 28.2233 118.842 28.5982 118.657 28.9689C118.377 29.5266 119.557 30.9039 120.41 32.2093C121.091 31.2725 121.993 30.8394 123.682 30.6948C124.909 30.7349 124.921 31.1056 123.998 31.2588C123.442 31.338 122.478 31.9633 121.805 33.5909C121.356 34.6787 121.35 36.3803 119.603 36.8534C119.446 36.6728 119.329 36.4933 119.246 36.318C119.013 36.6971 118.584 37.4111 118.934 38.1198L119.368 38.4969C119.529 38.5782 119.69 38.6669 119.857 38.7631C119.719 37.4586 121.522 36.3423 122.226 35.6536C123.758 34.158 125.888 34.6861 126.866 35.0357C127.579 35.2924 128.154 35.9409 128.802 36.2366C129.388 36.3644 129.404 35.6789 129.494 35.4096C129.589 35.1234 129.361 34.8013 129.305 34.5129Z" fill="white"/>
<path d="M103.141 92.9241C103.087 93.8113 103.474 94.8432 104.047 95.8339C104.614 96.8098 105.435 97.6315 106.36 97.94C106.548 98.6624 106.612 99.3247 106.548 100.081C107.835 100.389 108.754 100.081 109.887 99.5137C110.171 100.081 110.234 100.837 110.14 101.844C111.211 101.751 111.903 101.561 112.736 100.952C112.785 101.435 112.755 102.159 112.596 102.758C113.132 101.969 113.383 101.402 113.512 100.693C113.62 100.651 113.727 100.606 113.836 100.555C113.95 101.402 113.983 102.128 113.762 103.514C114.581 102.033 114.864 101.182 115.021 99.7968C115.12 99.7271 115.154 99.7587 115.254 99.6848C115.458 100.422 115.622 101.116 115.59 102.173C117.827 101.733 118.959 100.584 119.773 98.711C120.126 99.0543 120.609 99.6394 120.911 100.207C122.8 99.3067 123.541 97.0549 123.872 95.5773C124.051 94.7767 124.224 93.3339 124.05 92.7773C124.244 92.8575 124.428 92.9515 124.606 93.0508C125.363 91.476 124.975 89.2738 125.918 87.9473C126.672 86.8837 126.1 85.8285 125.759 84.6055C125.443 91.0578 123.026 88.2356 122.435 87.9261C120.302 86.8119 112.757 86.9027 109.715 87.7234C108.453 88.0634 107.511 88.2557 106.803 88.9401C104.625 91.0419 103.892 90.2118 103.5 88.3243C103.442 87.5649 103.349 86.9164 103.196 86.2785C103.181 86.1528 103.165 86.0261 103.151 85.8983C103.161 85.9827 103.158 86.0577 103.159 86.1348C103.193 87.7941 101.373 87.8311 101.271 89.3668C101.256 89.5791 101.273 89.8199 101.334 90.0987C101.506 90.742 103.214 91.9819 103.141 92.9241Z" fill="white"/>
<path d="M95.8079 37.9186C95.2196 37.8183 94.7855 37.4792 94.8383 37.1719C94.8933 36.8592 95.414 36.6934 96.0023 36.7959C96.5948 36.8983 97.0289 37.2321 96.975 37.5426C96.9212 37.85 96.3994 38.0221 95.8079 37.9186Z" fill="white"/>
<path d="M125.567 36.5768C125.646 36.8472 125.29 37.1925 124.769 37.3457C124.251 37.4967 123.768 37.4017 123.687 37.1292C123.607 36.8556 123.961 36.5102 124.478 36.3582C125 36.2039 125.486 36.3022 125.567 36.5768Z" fill="white"/>
<path d="M130.391 42.5056C130.596 41.8148 131.108 41.0523 131.167 40.4016C131.228 39.7425 130.936 38.6293 130.632 37.495C130.626 37.4939 130.62 37.4929 130.614 37.4918C129.086 37.139 128.71 37.5763 128.132 38.2882C127.027 39.6486 126.826 39.995 125.571 40.6298C124.665 41.0882 123.824 41.0702 122.977 40.8917C124.046 41.7842 125.345 42.3989 126.603 42.5256C127.939 42.663 129.28 43.1298 130.391 42.5056Z" fill="white"/>
<path d="M131.232 35.5851C131.235 36.3455 131.956 37.1884 131.68 37.5454C131.435 37.632 131.028 37.5845 130.632 37.4936C130.935 38.6269 131.226 39.7412 131.167 40.4003C131.108 41.0499 130.596 41.8135 130.391 42.5032C130.408 42.4947 130.427 42.4873 130.443 42.4768C130.61 42.3785 130.767 42.255 130.91 42.1029C132.289 40.6189 132.863 39.8563 132.689 38.2045C132.566 37.7651 133.72 38.309 134.521 39.7117C133.786 38.1538 133.026 36.7469 132.313 35.6273C132.055 35.2313 131.838 34.8922 131.63 34.5711C131.359 34.3113 131.23 35.0168 131.232 35.5851Z" fill="#FFD200"/>
<path d="M126.243 36.5827C126.218 36.5003 126.189 36.4221 126.158 36.344C126.046 36.3366 125.934 36.3313 125.826 36.3281C126.072 37.4319 125.389 38.5609 124.249 38.8968C123.059 39.2475 121.823 38.6053 121.487 37.4625C121.48 37.4435 121.477 37.4234 121.473 37.4033L121.472 37.4044C121.224 37.6494 121.004 37.8998 120.873 38.1543C120.875 38.1575 120.875 38.1596 120.876 38.1617C121.311 39.6446 122.864 40.4885 124.347 40.0533C125.829 39.6171 126.677 38.0635 126.243 36.5827Z" fill="#7E5300"/>
<path d="M97.9183 37.3255C97.6416 38.7883 96.1904 39.7526 94.6599 39.4854C93.12 39.2182 92.0712 37.7976 92.3278 36.3126C92.3416 36.2461 92.3574 36.1806 92.3743 36.1172C92.0152 36.132 91.6857 36.1605 91.3973 36.1922C91.334 36.376 91.278 36.5671 91.2442 36.7667C90.9094 38.6901 92.2022 40.5215 94.1255 40.8553C96.0541 41.1912 97.8835 39.8973 98.2183 37.975C98.2436 37.8346 98.2552 37.6951 98.2626 37.5578C98.1475 37.4744 98.0324 37.3962 97.9183 37.3255Z" fill="#7E5300"/>
<path d="M108.204 85.2289C106.846 86.0327 107.215 84.8719 106.899 84.0819C106.356 82.7247 105.284 81.5227 105.065 78.4967C104.899 77.1902 104.825 75.0186 106.175 74.612C108.271 73.9804 111.384 76.0326 113.163 76.0326C114.94 76.0326 116.688 74.1937 118.439 74.5191C119.634 74.7398 120.1 76.2512 120.484 77.7109C120.903 79.3079 120.751 80.4739 120.914 81.5502C121.022 82.2737 121.105 82.4796 121.335 82.8134C121.317 82.8387 120.893 83.388 120.876 83.4133C120.854 83.3901 120.834 83.3721 120.873 83.4196C120.704 83.2538 120.479 83.1619 120.241 83.1619C119.996 83.1619 119.755 83.2612 119.564 83.4376C119.424 83.5665 119.3 83.7397 119.195 83.9309C119.082 83.8727 118.954 83.8432 118.821 83.8432C118.607 83.8432 118.392 83.9277 118.222 84.0819C118.219 84.084 118.218 84.0851 118.218 84.0851C118.078 83.9805 117.906 83.9234 117.724 83.9234C117.524 83.9234 117.328 83.9942 117.168 84.1241C117.019 83.9942 116.829 83.9234 116.628 83.9234C116.446 83.9234 116.268 83.9815 116.118 84.0882C116.113 84.084 116.109 84.0808 116.106 84.0755C115.951 83.9245 115.748 83.8432 115.529 83.8432C115.384 83.8432 115.241 83.8801 115.11 83.953C114.999 83.7766 114.854 83.5981 114.673 83.4196C114.505 83.2538 114.282 83.1619 114.043 83.1619C113.799 83.1619 113.559 83.2612 113.365 83.4376C113.295 83.5041 113.225 83.5812 113.164 83.6689C112.704 82.2261 112.45 81.1668 112.203 80.1338C112.116 79.7779 112.032 79.4283 111.939 79.0649C111.724 78.2094 111.42 77.4162 110.668 77.4162C109.785 77.4162 109.457 78.4882 109.263 79.1125C108.77 80.7601 108.321 83.5411 108.204 85.2289Z" fill="#D71920"/>
<path d="M109.414 65.199C109.414 64.597 110.998 64.2231 111.709 64.2231C112.423 64.2231 113.87 64.6984 113.798 65.3849C113.103 68.4732 113 70.198 112.744 72.2048C112.496 74.1418 111.825 74.0415 111.118 72.1773C110.491 70.5286 109.851 68.6179 109.414 65.199ZM114.952 64.4386C114.946 64.2558 115.478 64.053 115.833 64.053C116.19 64.052 116.749 64.24 116.756 64.4618C116.749 64.8737 116.578 65.4662 115.997 66.0387C115.89 66.1454 115.736 66.1317 115.59 65.9996C115.223 65.6606 114.949 64.7966 114.952 64.4386ZM117.024 64.2791C117.022 64.165 117.351 64.0393 117.571 64.0393C117.79 64.0393 118.139 64.1555 118.142 64.2928C118.138 64.5474 118.033 64.9138 117.672 65.2698C117.605 65.3353 117.509 65.3279 117.42 65.2455C117.194 65.0364 117.023 64.4998 117.024 64.2791ZM118.309 64.1861C118.304 64.071 118.634 63.9464 118.853 63.9453C119.073 63.9453 119.422 64.0625 119.427 64.1988C119.419 64.4533 119.314 64.8209 118.956 65.1758C118.887 65.2402 118.793 65.2349 118.704 65.1504C118.476 64.9413 118.307 64.4069 118.309 64.1861ZM119.592 64.1861C119.587 64.071 119.917 63.9464 120.138 63.9453C120.358 63.9453 120.705 64.0625 120.71 64.1988C120.705 64.4533 120.599 64.8209 120.24 65.1758C120.171 65.2402 120.077 65.2349 119.989 65.1504C119.76 64.9413 119.591 64.4069 119.592 64.1861ZM128.688 65.3332C128.048 67.9346 127.209 69.841 126.202 71.5341C124.903 73.7162 124.535 73.355 124.653 72.021C124.811 70.2339 125.119 68.4151 124.764 65.3405C124.764 64.7987 125.967 64.2727 126.728 64.2727C127.49 64.2727 128.773 64.7237 128.688 65.3332ZM112.844 84.8369C112.976 85.4041 111.881 85.7009 111.346 85.7009C110.81 85.7009 109.586 85.4854 109.52 84.9901C109.465 82.1711 109.808 80.5963 110.089 79.2359C110.414 77.6959 110.881 77.6146 111.287 79.2127C111.704 80.8677 111.974 82.2904 112.844 84.8369ZM121.257 84.838C122.762 82.2556 123.252 80.7294 123.845 79.2306C124.286 78.111 124.715 77.8079 124.846 79.6415C124.947 81.0631 124.997 82.6643 124.45 84.8507C124.272 85.3608 123.253 85.6597 122.683 85.6597C122.108 85.6597 121.04 85.2953 121.257 84.838ZM123.082 64.053C123.44 64.052 123.999 64.24 124.005 64.4618C123.997 64.8737 123.827 65.4662 123.245 66.0387C123.137 66.1454 122.983 66.1317 122.838 65.9996C122.471 65.6606 122.198 64.7966 122.203 64.4386C122.195 64.2558 122.726 64.053 123.082 64.053ZM120.876 64.2791C120.872 64.165 121.201 64.0393 121.421 64.0393C121.642 64.0393 121.989 64.1555 121.994 64.2928C121.987 64.5474 121.881 64.9138 121.521 65.2698C121.456 65.3353 121.36 65.3279 121.269 65.2455C121.043 65.0364 120.873 64.4998 120.876 64.2791ZM119.313 85.3449C119.309 85.4643 119.012 85.5636 118.823 85.5636C118.635 85.5636 118.353 85.4569 118.356 85.3587C118.355 85.1707 118.501 84.7133 118.694 84.5327C118.769 84.4609 118.853 84.4556 118.909 84.5116C119.219 84.8158 119.309 85.1284 119.313 85.3449ZM118.215 85.4284C118.211 85.5456 117.915 85.6439 117.725 85.6439C117.537 85.6439 117.257 85.5361 117.259 85.439C117.257 85.2488 117.402 84.7936 117.596 84.6119C117.674 84.5423 117.756 84.5359 117.813 84.5919C118.121 84.8961 118.211 85.2087 118.215 85.4284ZM116.716 84.5919C117.024 84.8961 117.114 85.2087 117.118 85.4284C117.114 85.5456 116.817 85.6439 116.629 85.6439C116.44 85.6439 116.157 85.5361 116.162 85.439C116.161 85.2488 116.305 84.7936 116.5 84.6119C116.576 84.5423 116.657 84.5359 116.716 84.5919ZM116.021 85.3449C116.016 85.4643 115.719 85.5636 115.53 85.5636C115.343 85.5636 115.062 85.4569 115.067 85.3587C115.064 85.1707 115.208 84.7133 115.404 84.5327C115.48 84.4609 115.56 84.4556 115.618 84.5116C115.926 84.8158 116.015 85.1284 116.021 85.3449ZM114.836 85.2024C114.83 85.3925 114.351 85.553 114.047 85.553C113.742 85.553 113.287 85.3788 113.292 85.2214C113.29 84.9193 113.524 84.1779 113.837 83.8874C113.961 83.7733 114.093 83.7617 114.186 83.8536C114.682 84.3437 114.828 84.8507 114.836 85.2024ZM120.036 83.8874C120.16 83.7733 120.291 83.7617 120.384 83.8536C120.88 84.3437 121.026 84.8507 121.033 85.2024C121.026 85.3925 120.546 85.553 120.244 85.553C119.94 85.553 119.485 85.3788 119.489 85.2214C119.487 84.9193 119.722 84.1779 120.036 83.8874Z" fill="white"/>
<path d="M147.577 127.188C147.4 126.255 147.168 125.343 147.074 125.041C145.598 120.28 143.034 116.663 140.392 113.864C139.287 112.692 138.168 111.66 137.112 110.752C132.525 106.811 130.075 104.653 130.598 97.7894C130.609 97.6383 130.62 97.4873 130.635 97.3299C130.716 96.449 130.91 95.7055 131.172 95.0781C129.706 96.1924 128.123 97.1747 126.516 97.8971C126.352 98.6048 125.753 100.813 124.432 102.35C125.891 107.272 129.549 112.459 131.465 114.808C130.449 112.778 130.159 111.542 129.36 109.291C132.32 113.14 135.804 118.573 136.122 124.212C134.247 122.232 132.295 120.567 130.919 119.888C133.521 125.758 133.243 129.523 131.642 135.157C128.442 146.426 122.875 148.187 115.917 160.26C117.536 158.496 118.959 157.14 120.596 156.113C117.272 159.81 114.175 165.803 114.221 171.412C130.67 159.292 141.338 143.954 147.577 127.188Z" fill="#FFD200"/>
<path d="M146.289 102.306C143.973 98.2416 142.933 94.8702 139.581 91.5125C138.985 90.9168 138.022 90.0339 137.08 88.8984C136.423 89.8754 135.773 90.6623 134.791 91.6995C134.827 92.1251 134.94 93.4771 134.971 94.2365C135.222 100.719 139.183 104.687 143.889 108.958C145.917 110.799 149.077 113.478 151.011 116.155C151.513 114.188 151.958 112.206 152.353 110.213C149.896 107.581 147.498 104.429 146.289 102.306Z" fill="#FFD200"/>
<path d="M144.65 93.7266C146.151 96.6322 150.134 101.768 153.304 104.75C153.508 103.399 153.69 102.047 153.85 100.691C151.039 99.2611 147.625 96.3829 144.65 93.7266Z" fill="#FFD200"/>
<path d="M69.4848 98.6464C68.3536 97.4159 67.384 96.1168 66.5971 94.8789C64.4097 98.7319 61.4059 104.229 59.8195 110.072C60.9148 108.097 62.2361 106.021 62.2361 106.021C61.0764 109.78 59.8174 114.636 59.0453 120.454C58.2806 126.194 58.0673 133.674 58.8182 141.24C61.0806 145.256 63.6556 149.15 66.5644 152.887C60.5715 134.698 60.2071 115.139 69.4848 98.6464Z" fill="#FFD200"/>
<path d="M101.679 105.841C100.971 104.983 100.352 104.07 99.8478 103.221C98.2455 102.491 96.902 101.763 95.9219 101.004C94.1263 101.956 92.2643 103.248 89.9913 105.037C91.4774 103.228 93.1399 101.687 95.0252 100.355C94.1285 99.6496 93.3944 98.8881 92.8082 98.1033C90.9799 98.9673 89.3492 99.6253 87.4036 101.172C88.838 99.0803 89.9375 98.435 92.1259 96.97C92.0636 96.8591 91.8703 96.612 91.8154 96.5C88.783 97.59 86.3115 98.9145 84.6618 100.382C83.7608 99.4816 82.6856 98.0304 81.7287 96.5507C81.133 97.8636 80.5468 99.3264 80.0757 100.874C79.7378 102.126 79.4832 103.182 79.3998 103.659C79.3924 103.682 79.385 103.706 79.3765 103.728C79.3396 103.936 79.3036 104.144 79.2709 104.352C78.333 104.216 76.6494 103.701 75.2679 103.097C74.7641 107.303 75.3249 112.724 77.3222 118.155C77.1057 116.246 77.0877 115.22 77.2419 113.764C78.1957 117.869 79.2635 120.424 81.3041 122.566C84.3343 118.048 90.2522 113.263 96.0708 111.028C93.8507 111.395 92.1882 111.858 89.8889 112.692C92.8526 110.695 95.172 109.659 97.973 108.17C99.4665 107.374 100.733 106.571 101.679 105.841Z" fill="#FFD200"/>
<path d="M138.535 86.2681C141.325 82.056 141.071 74.4577 140.267 68.5915C140.854 68.9031 141.425 69.3097 142.038 69.8611C141.436 68.6781 140.931 68.0518 140.057 67.2491C140.028 67.0558 139.997 66.759 139.956 66.5541C140.475 66.9217 140.865 67.2269 141.221 67.6156C141.646 62.5121 141.489 58.5027 139.869 53.9315C139.869 53.9315 140.391 53.8512 140.864 54.0403C140.752 53.7118 140.584 53.2302 140.377 52.6546C139.647 53.0506 138.885 53.3886 138.034 53.7118C138.2 54.5779 138.344 55.4704 138.455 56.3618C137.01 56.3639 135.432 56.7304 133.814 57.2849C133.819 57.2237 133.828 57.1624 133.831 57.1011C133.859 56.3396 133.85 55.6816 133.812 55.0933C130.726 56.0629 128.002 56.7536 128.697 56.1178C129.953 55.5063 131.317 54.9285 132.738 54.4026C132.835 54.3677 132.927 54.3286 133.024 54.2948C133.248 54.2145 133.473 54.1385 133.698 54.0625C136.119 53.227 138.673 52.5648 141.143 52.2131C140.828 52.1497 140.503 52.118 140.177 52.1011C139.835 51.1653 139.42 50.0531 138.99 48.9399C138.45 49.2652 137.822 49.6074 137.125 49.9686C137.337 50.6795 137.546 51.4706 137.737 52.3113C136.418 52.5838 135.034 53.077 133.632 53.6907C133.489 52.9756 133.277 52.3725 133.006 51.8011C130.718 52.6936 129.055 53.2122 129.579 52.6619C133.089 50.6045 136.007 49.0772 140.209 47.9819C140.309 47.9576 140.4 47.9354 140.479 47.9133C139.953 47.8583 139.104 47.9154 138.625 47.9988C138.481 47.6365 138.34 47.2785 138.2 46.9331C138.148 46.8043 137.846 46.0586 137.793 45.9276L138.2 45.9815C136.343 40.8368 133.525 35.6033 129.594 31.6172C130.95 33.4846 131.364 34.1658 132.313 35.6276C134.221 38.6282 136.48 43.6737 137.644 48.2259C135.922 48.7202 134.272 49.6856 132.479 50.822C132.351 50.6066 132.216 50.3858 132.071 50.1567C131.757 49.656 130.632 48.6811 129.755 48.2101C130.06 48.8554 130.179 49.788 129.854 50.8654C129.275 52.794 128.362 53.8776 127.277 55.1947C126.351 56.3185 125.228 58.9009 123.154 59.0889C123.14 59.3023 123.135 59.4987 123.135 59.6149C123.135 60.8739 124.55 62.568 125.324 62.9388C126.825 63.6538 127.096 63.7066 128.868 63.3074C130.644 62.9007 131.623 61.7231 132.221 60.9784C132.697 60.3891 133.115 59.7004 133.407 58.9696C130.245 59.7797 127.37 60.3395 128.108 59.7195C129.47 59.1354 130.951 58.5988 132.491 58.1383C132.516 58.1299 132.54 58.1236 132.565 58.1161C135.114 57.3578 137.82 56.8096 140.403 56.6195C139.845 56.9501 139.231 57.2121 138.574 57.4465C138.738 59.2051 138.746 60.8929 138.524 62.2723C139.133 62.8205 139.641 63.5006 140.198 64.4977C139.769 64.1376 139.341 63.8101 138.915 63.5101C137.425 62.4202 136.356 61.8921 134.679 61.6016C135.624 62.0452 136.448 62.6219 137.206 63.244C137.104 67.7244 136.497 74.1239 135.041 77.3411C134.523 76.6144 134.042 76.1212 133.254 75.5561C133.238 75.6184 133.124 75.8318 133.107 75.8941C134.212 77.1964 134.793 78.1258 135.454 79.9393C134.409 78.731 133.553 77.8248 132.744 77.0791C131.185 81.5109 129.124 82.4309 127.384 82.5587C127.384 82.5587 129.044 85.9903 127.549 89.3184C127.429 89.5835 127.37 89.9363 127.335 90.3207C127.777 91.2185 127.655 91.7571 127.984 92.8302C130.75 91.6748 133.989 88.3161 135.883 85.6396C136.717 86.4022 137.52 87.2218 138.598 88.4259C137.964 86.7919 137.41 85.8847 136.468 84.7736C136.571 84.613 136.647 84.5665 136.747 84.4028C137.492 84.9499 137.931 85.3566 138.535 86.2681Z" fill="white"/>
<path d="M139.737 29.9037C137.06 30.2237 134.102 29.9333 131.738 28.6447C133.734 28.707 135.209 28.35 138.84 27.2548C137.73 27.3456 126.73 27.6688 120.31 26.0243C117.5 24.7695 108.397 21.1436 102.917 24.1485C93.9432 21.207 82.6334 24.2562 79.3285 26.7615C73.3135 26.7615 66.9636 26.3274 63.3746 25.1592C66.2961 27.2072 68.6039 27.5484 70.3572 27.9275C65.9476 28.1071 62.7853 27.4607 58.043 26.4246C59.622 27.9666 60.7606 28.6046 63.1138 29.3091C61.7206 29.4337 60.2874 29.3608 58.7622 29.0873C60.5736 30.5807 65.1638 33.0596 69.0676 31.3349C70.1956 30.8384 73.7877 28.9162 76.8296 28.5761C75.1513 29.4781 72.4759 31.902 70.9571 33.6448C70.9043 33.7303 70.8515 33.8169 70.8008 33.9056C72.2013 32.9118 73.8278 32.1291 75.4555 31.827C73.0177 33.6384 71.9563 35.5142 71.857 37.502C72.7093 36.5894 73.3642 35.6473 74.3327 35.3452C74.5619 35.2734 74.751 35.5206 74.9411 35.9431C75.2917 36.4405 75.5421 37.6055 76.0152 38.6754C76.5296 39.7475 77.2436 40.6938 78.3695 40.8163C78.6399 40.8449 78.9219 40.8934 79.2113 40.9484C77.9502 39.6271 77.7178 38.2646 78.3082 37.37C78.5554 36.9971 78.8839 36.1152 79.695 35.3801C79.1881 35.3854 78.7085 35.397 78.3885 34.9513C78.1224 34.5858 77.9555 34.1137 77.8319 33.6807C77.7073 33.2487 77.2721 32.4713 77.3904 32.0636C78.4424 32.0742 79.4637 32.3805 80.4988 32.0827C82.1 31.6242 81.686 29.9977 83.6061 28.6458C83.7582 29.0461 83.8205 29.4443 83.8311 29.8425C84.6655 29.3682 85.9953 28.7599 87.1095 28.4144C87.7475 28.2159 88.4932 28.0406 89.072 28.0701C90.0278 28.124 91.0164 28.5074 91.9163 28.8253C93.1035 29.2436 94.0805 29.9502 95.0025 30.7413C97.7539 31.4288 99.7607 33.1705 101.751 35.1002C102.205 35.5734 102.456 35.9621 102.368 36.582C102.55 36.7014 102.734 36.8134 102.917 36.9095C104.093 37.5178 104.409 38.8117 104.409 39.3979C104.409 39.4919 104.405 39.6059 104.39 39.7295C107.401 38.0174 109.921 36.9918 112.989 38.3617C110.132 38.1452 107.34 39.6176 105.017 41.6032C103.467 42.9277 100.26 45.8481 97.8469 45.9643C97.6103 44.9144 97.9905 44.3736 98.7626 43.6406C99.766 42.8559 100.786 42.0849 101.808 41.374C101.251 41.2547 100.639 41.2663 99.9751 41.3286C99.1122 42.5179 97.8363 43.1875 97.023 43.5794C94.1988 44.8616 92.7602 45.452 87.4158 45.0401C84.018 44.7781 81.5254 45.3147 79.732 45.3147C77.9333 45.3147 77.0345 44.907 76.0047 44.0124C74.9791 43.1146 74.5133 41.7965 74 40.2597C73.8944 44.8457 75.1608 56.2178 79.8429 58.8087C80.5875 58.2827 82.0134 57.894 83.2671 57.9099C81.4304 58.7929 79.4679 60.5546 78.379 62.7103C82.626 59.0115 85.8421 58.0788 91.1347 58.0609C88.9389 61.8305 88.4583 65.0667 88.547 68.2691C88.6009 70.2685 88.866 71.8063 89.2906 73.0568C90.126 75.7142 91.5361 78.4265 93.2894 80.4227C92.8669 79.4521 92.4951 78.4762 92.1835 77.5172H92.1846C93.4362 78.849 94.9223 80.2421 96.4981 82.3947C98.4996 85.1439 99.8463 85.5506 101.269 89.3645C101.371 87.8288 103.191 87.7918 103.158 86.1325C102.886 85.0721 102.439 84.0201 101.682 82.5066C100.246 79.638 95.3088 69.7192 95.1029 63.6556C95.0321 61.5559 96.3904 60.3602 96.8509 59.4403C97.1593 58.8224 97.1667 58.2394 97.0473 57.6501C94.5156 57.0385 91.647 56.1745 89.8356 55.3877C91.8815 55.1585 94.1259 55.2937 96.4199 55.6549C96.1665 54.8353 95.9954 53.9322 96.233 52.8613C96.2446 52.8158 96.2583 52.7715 96.27 52.725C94.0583 52.0469 92.1064 51.3836 90.181 50.6063C92.3462 50.4721 94.5864 50.7425 96.8435 51.2463C97.2596 50.4531 97.8342 49.662 98.5176 48.8836C94.711 47.5623 91.8867 46.2991 90.1588 45.4087C93.376 45.4668 96.647 46.3149 99.8484 47.4873C100.567 46.7934 101.429 46.0614 102.333 45.3675C103.162 44.7127 104.06 43.8022 104.908 43.2012C107.501 41.4089 111.02 39.1148 114.052 41.0382C113.555 41.0624 113.027 41.1005 112.487 41.1744C110.698 41.3645 111.761 43.9839 113.784 46.0688C114.879 47.1989 115.942 48.8096 117.209 50.6253C118.051 51.824 118.133 52.1948 119.06 52.4757C120.638 52.9563 122.341 53.7231 121.974 54.6916C121.706 55.394 120.557 55.0983 120.792 55.9506C121.292 57.7694 122.602 58.1243 123.703 57.9151C123.885 57.8613 124.066 57.8106 124.236 57.7641C124.409 57.6997 124.571 57.6215 124.717 57.5381C125.244 57.1874 125.474 56.6361 126.043 55.7373C126.271 55.1806 125.87 55.2134 125.87 54.7381C125.87 54.4075 126.48 53.646 127.304 52.9489C128.323 52.086 128.961 50.3654 128.961 49.624C128.961 48.6903 128.985 48.0682 128.581 47.4049C127.006 45.1753 122.85 42.6446 122.339 42.257C120.924 41.1818 119.581 41.0308 118.066 40.9273C118.85 40.2122 119.501 40.2671 120.11 40.4699C119.651 40.0179 119.414 39.7676 119.052 39.5162C117.771 38.6332 116.318 38.3237 114.501 38.2118C116.509 37.2844 117.65 37.3436 119.368 38.4938L118.933 38.1167C118.583 37.408 119.013 36.694 119.245 36.3148C118.988 35.7793 119.033 35.2703 119.177 34.8224C119.597 33.6775 119.954 32.8315 120.408 32.2073C119.556 30.9007 118.376 29.5245 118.657 28.9658C118.841 28.5951 119.106 28.2201 119.658 28.1145C119.99 28.0448 121.8 28.2201 122.685 28.4662C124.587 28.9954 125.964 29.4865 127.041 30.1794C126.918 30.0547 126.786 29.9312 126.649 29.8086C125.592 28.9616 124.317 28.1103 122.72 27.2347C124.661 28.1008 126.988 29.1602 128.314 29.8287C130.881 31.1215 132.887 33.1241 137.357 32.8611C136.2 32.6181 134.356 31.7563 132.588 30.4888C133.388 30.5163 135.671 31.1902 139.737 29.9037ZM90.8591 48.4833C89.2579 49.6567 86.8054 50.6316 84.4363 50.1838C84.1237 51.1692 84.2568 52.9014 85.0003 54.9092C80.9994 53.121 78.5829 50.113 78.3262 47.8517C80.8959 46.6181 86.3364 48.4337 90.8591 48.4833ZM124.288 49.8606C125.323 49.9155 126.881 49.8754 127.804 49.4149C127.855 50.095 125.351 51.2188 124.815 51.2537C124.225 51.2886 123.576 50.8323 123.014 50.6939C122.28 50.5175 121.516 50.3443 121.055 50.2683C120.684 50.2091 120.174 50.0327 120.118 49.5152C121.523 49.587 122.884 49.7856 124.288 49.8606ZM93.2894 24.9174C97.3378 24.1295 102.855 24.7019 104.862 26.244C106.439 25.1328 109.195 24.4146 113.873 25.1899C109.987 25.455 108.912 25.6863 108.011 26.3749C109.163 26.1162 110.41 26.0496 112.591 26.564C110.023 26.7457 106.824 27.4765 106.833 28.932C105.112 27.6772 101.422 26.6031 98.0898 26.6031C99.7744 26.1003 101.041 26.1225 102.042 26.3749C99.9656 25.4064 98.1605 25.0029 93.2894 24.9174ZM110.484 33.5676C108.587 31.5894 106.215 30.2776 101.598 29.5097C104.111 29.0661 107.598 29.6312 109.268 30.6568C111.062 29.2446 112.923 28.8993 115.1 29.2087C112.995 29.8329 110.055 31.5524 110.484 33.5676Z" fill="#FFD200"/>
</svg>
