<svg width="200" height="200" viewBox="0 0 200 200" fill="none" xmlns="http://www.w3.org/2000/svg">
<g clip-path="url(#clip0_154_2383)">
<path d="M140.51 106.326C138.227 107.334 136.195 105.44 136.195 105.44C134.831 106.554 132.933 107.486 130.263 107.486C130.263 107.486 124.326 102.843 119.138 103.764C119.111 102.379 119.195 101.558 116.945 101.491C115.479 101.45 112.828 101.799 110.661 102.468C115.369 96.7294 125.734 94.5565 126.196 94.962C132.787 98.1143 139.146 104.117 142.323 101.136C142.323 101.136 143.506 105.005 140.51 106.326ZM163.246 113.676C163.246 113.676 144.97 92.737 114.574 89.3831C111.538 90.7513 105.49 93.2528 104.729 96.6483C103.254 103.221 110.775 110.94 110.775 110.94C97.7794 106.118 97.1057 97.9541 97.3843 96.3031C97.8646 93.4357 100.695 90.6411 106.818 88.7551C104.993 88.4869 103.493 88.1896 102.237 87.8922C98.424 89.3623 95.8643 92.604 95.8643 92.604C95.9807 91.0133 96.6274 88.7613 98.6984 86.892C97.4134 86.472 96.617 86.1663 95.9558 86.1331C94.4586 86.0665 92.1381 87.233 85.7379 89.1834C88.8839 91.2794 93.916 92.9533 93.916 92.9533C91.35 94.0595 82.5939 92.9533 77.5639 91.0694C74.4491 91.4229 73.3138 91.4998 69.4898 91.294C74.5385 94.2467 80.9948 96.5194 84.4715 96.6795C88.1915 96.8542 94.1509 94.9245 95.1926 94.4629C92.0383 101.643 83.9497 105.425 83.9497 105.425C83.9497 105.425 76.4328 102.556 73.3782 100.173C73.3782 100.173 71.5317 101.194 69.3256 103.884C73.3179 103.381 79.8554 105.032 81.2756 105.862C81.2756 105.862 70.7166 105.113 66.1337 108.84C65.695 109.713 65.2688 110.661 64.8633 111.697C71.197 108.912 83.6585 105.662 98.6818 108.875C100.751 109.043 102.851 109.366 104.966 109.896C104.966 109.896 85.06 108.226 76.6303 117.346C76.6303 117.346 89.017 110.767 99.603 113.273C99.603 113.273 92.4043 119.45 89.2291 129.074C89.227 129.076 89.2249 129.08 89.2249 129.08C89.2769 129.103 89.3767 129.132 89.5202 129.178C94.4857 118.053 104.909 113.695 107.149 112.48C107.149 112.48 98.4842 121.871 97.9686 127.117C97.9686 127.117 101.88 124.345 106.328 123.715C108.419 123.195 109.881 123.16 109.881 123.16C104.963 126.67 103.175 130.562 103.175 130.562C103.175 130.562 106.935 126.901 116.622 123.699L117.39 123.046C122.497 118.003 130.003 115.036 130.003 115.036C124.832 115.531 109.584 121.667 109.584 121.667C109.584 121.667 118.226 115.41 129.032 113.025C129.032 113.025 117.779 113.377 110.43 115.261C110.43 115.261 119.469 111.318 131.394 111.586C137.304 111.719 145.251 114.909 145.251 114.909L147.208 115.157L145.511 110.447C145.511 110.447 149.459 113.508 150.534 113.558C151.603 113.603 163.246 113.676 163.246 113.676Z" fill="#FFCC00"/>
<path d="M191.433 39.3064L11.7278 51.3437L9.10156 60.5864L23.763 58.8835L14.9757 89.6079C11.8359 101.81 19.3381 106.058 23.8108 107.673C21.8105 102.92 21.7939 96.8918 24.4783 87.9111L33.1492 57.7232L191.383 39.4686L191.433 39.3085V39.3064ZM189.597 43.6481L181.854 44.5339L176.655 62.8508L173.216 45.5257L165.466 46.4136L155.612 81.1533L163.354 80.2675L168.554 61.9526C175.094 82.4342 171.17 90.2067 171.17 90.2067C175.281 88.0837 178.146 83.6132 179.739 78.3878L189.597 43.6481ZM160.358 47.0124L145.037 48.7633C138.227 49.543 136.397 52.4437 135.262 56.3986L127.414 84.4179L142.737 82.665C149.501 81.852 151.379 78.9866 152.468 75.0379L160.358 47.0124ZM131.964 50.2583L116.608 52.0341C109.786 52.8242 107.956 55.7332 106.827 59.6965L102.97 73.6718L118.249 71.9251L116.227 79.1799L108.792 80.0284L101.87 77.5831L100.3 83.1681C102.479 83.7088 104.951 84.3679 106.596 84.5156C109.975 84.8171 113.169 85.2225 116.203 85.7153C121.484 84.6403 123.114 81.9247 124.098 78.3545L128.03 64.323L112.703 66.1071L114.728 58.7857L122.177 57.9228L129.119 60.364L131.964 50.2583ZM103.679 53.4917L95.7542 54.4066L87.8173 82.4258L80.6706 83.243L88.5742 55.228L80.629 56.1242L72.6984 84.1558L65.5475 84.973L73.4366 56.9455L65.5059 57.8542L55.7496 92.5897L63.229 91.7413C60.214 88.5537 58.8853 86.1375 58.8853 86.1375C75.5825 89.4915 90.3895 83.2846 95.4797 82.5028C95.5899 82.1805 95.696 81.854 95.7916 81.5151L103.679 53.4896V53.4917ZM150.585 54.6479L144.621 75.9341L137.187 76.7825L143.153 55.4962L150.585 54.6458V54.6479ZM60.3159 58.4468L44.9932 60.1976C38.1854 60.9773 36.3535 63.8759 35.2182 67.8329L27.3728 95.8522L37.6198 94.6815C36.7257 92.3423 36.7007 90.5914 36.7007 90.5914C36.7007 90.5914 38.4162 92.0532 42.2422 94.1555L42.6934 94.1014C49.4596 93.2884 51.3352 90.4251 52.4269 86.4744L60.3159 58.4468ZM50.5409 66.0822L44.5815 87.3685L37.1457 88.2189L43.1114 66.9305L50.5409 66.0822ZM69.4921 91.3005C69.4921 91.3005 77.6805 98.6052 84.1099 99.2831C86.9357 99.5804 94.0512 95.4447 95.1949 94.4695C94.1531 94.9311 88.1937 96.8607 84.4737 96.6881C80.9971 96.5259 74.5407 94.2532 69.4921 91.3026V91.3005ZM126.196 94.9685C130.063 98.3807 133.451 102.754 137.401 103.621C140.93 104.396 142.323 101.14 142.323 101.14C139.146 104.124 132.787 98.1208 126.196 94.9685ZM126.021 98.7612C124.634 98.809 123.181 100.348 123.141 101.959C124.984 101.814 126.017 102.506 126.88 103.203C126.624 102.718 126.472 102.167 126.46 101.577C126.456 101.346 126.479 101.121 126.516 100.899C126.68 101.385 127.136 101.737 127.674 101.737C128.205 101.737 128.652 101.404 128.824 100.934C128.096 100.387 127.479 99.8965 127.017 99.4744C126.676 99.1646 126.427 98.9171 126.298 98.7737C126.206 98.7633 126.115 98.7571 126.021 98.7612ZM118.862 100.547C116.24 100.541 110.661 102.475 110.661 102.475C112.828 101.805 115.479 101.456 116.945 101.498C119.195 101.564 119.112 102.386 119.139 103.77C119.139 103.77 121.567 100.556 118.862 100.547ZM70.9289 103.797C70.3653 103.797 69.8247 103.829 69.3257 103.891C68.2902 105.151 67.1735 106.79 66.1339 108.846C70.7168 105.12 81.2757 105.87 81.2757 105.87C80.0343 105.143 74.8734 103.787 70.9289 103.797ZM96.0204 108.796C92.3607 108.8 85.4927 109.233 79.0113 111.963C75.9089 113.298 72.8752 115.174 70.2884 117.808C70.2884 117.808 69.8538 118.224 69.2716 118.9C69.0637 119.139 68.8412 119.407 68.6063 119.702C68.0282 120.44 67.2006 121.661 66.4666 122.726C67.4563 123.033 68.4732 123.335 69.517 123.628L70.6918 123.884C80.7725 116.238 92.3732 115.03 92.3732 115.03C92.3732 115.03 85.9293 119.388 82.5254 127.298C84.8772 127.797 87.102 128.4 89.223 129.088L89.2313 129.08C92.4064 119.457 99.6031 113.277 99.6031 113.277C89.0192 110.772 76.6325 117.351 76.6325 117.351C85.0622 108.231 104.968 109.9 104.968 109.9C102.853 109.37 100.753 109.048 98.684 108.881C98.684 108.881 97.6839 108.794 96.0225 108.796H96.0204ZM141.304 114.66C128.756 114.718 118.178 122.721 117.392 123.052L116.625 123.705C116.625 123.705 109.671 130.656 111.489 142.055C115.957 146.162 119.604 150.674 122.771 155.141C122.771 155.141 127.29 151.529 132.014 153.529C132.014 153.529 132.014 149.556 134.399 147.572C134.399 147.572 128.217 143.386 123.345 146.765C106.644 127.011 134.077 117.107 147.443 118.249L157.078 124.56C157.078 124.56 160.11 123.017 160.258 118.769L147.21 115.165L145.253 114.916C143.922 114.735 142.604 114.656 141.306 114.662L141.304 114.66ZM116.625 123.705C106.935 126.907 103.177 130.569 103.177 130.569C103.177 130.569 104.966 126.676 109.883 123.167C109.883 123.167 108.42 123.202 106.328 123.724C106.328 123.724 101.163 127.502 98.9065 133.145C100.967 134.233 102.897 135.408 104.71 136.653C107.338 129.598 113.514 124.716 116.625 123.705ZM150.83 124.711C150.618 125.847 150.331 127.548 149.979 128.77C149.979 128.77 153.022 128.379 154.038 127.167L150.83 124.711ZM136.709 141.571C136.709 141.571 134.937 142.696 133.442 143.288C133.442 143.288 135.971 143.97 136.545 144.388C136.545 144.388 137.233 142.706 136.709 141.571Z" fill="white"/>
<path d="M109.57 121.671C109.57 121.671 118.212 115.414 129.018 113.029C129.018 113.029 117.765 113.38 110.417 115.264C110.417 115.264 119.455 111.322 131.38 111.59C137.29 111.723 145.237 114.911 145.237 114.911C131.035 112.977 118.243 122.685 117.376 123.047C122.483 118.007 129.989 115.038 129.989 115.038C124.818 115.535 109.57 121.671 109.57 121.671ZM126.282 98.7687C126.411 98.9122 126.662 99.1597 127.001 99.4695C127.463 99.8916 128.083 100.382 128.81 100.931C128.638 101.399 128.189 101.734 127.658 101.734C127.122 101.734 126.664 101.38 126.5 100.896C126.463 101.116 126.44 101.341 126.446 101.574C126.457 102.162 126.61 102.713 126.866 103.2C126.001 102.501 124.97 101.811 123.125 101.954C123.169 100.237 124.818 98.6003 126.282 98.7687ZM130.247 107.49C132.917 107.49 134.816 106.558 136.18 105.441C136.18 105.441 138.213 107.336 140.494 106.327C143.491 105.007 142.31 101.137 142.31 101.137C142.31 101.137 140.916 104.393 137.386 103.618C133.435 102.751 130.048 98.3758 126.18 94.9635C125.72 94.5581 115.353 96.731 110.647 102.47C110.647 102.47 116.226 100.536 118.846 100.542C121.551 100.553 119.123 103.765 119.123 103.765C124.311 102.844 130.247 107.49 130.247 107.49ZM36.687 90.5989C36.687 90.6031 36.687 90.6094 36.687 90.6135V90.5989ZM44.5656 87.3635L37.1299 88.214L43.0955 66.9256L50.5271 66.0772L44.5656 87.3635ZM36.7015 90.863C36.6973 90.8027 36.6952 90.7549 36.6911 90.7133C36.6932 90.7549 36.6973 90.8027 36.7015 90.863ZM36.6891 90.6447C36.6891 90.6551 36.689 90.6655 36.6911 90.678C36.689 90.6634 36.6891 90.6551 36.6891 90.6447ZM36.7015 90.8651C36.7036 90.8942 36.7077 90.9275 36.7098 90.9629C36.7057 90.9275 36.7036 90.8942 36.7015 90.8651ZM143.137 55.4933L150.569 54.6429L144.607 75.9291L137.174 76.7796L143.137 55.4933ZM33.1333 57.7182L24.4625 87.9062C21.778 96.8869 21.7946 102.915 23.795 107.668C19.3244 106.053 11.82 101.805 14.9598 89.6009L23.7472 58.8785L9.08776 60.5815L11.7119 51.3388L191.417 39.3015L191.368 39.4616L33.1333 57.7182ZM179.723 78.3828C178.133 83.6082 175.267 88.0788 171.156 90.1997C171.156 90.1997 175.078 82.4292 168.538 61.9455L163.34 80.2625L155.597 81.1483L165.453 46.4108L173.2 45.5229L176.64 62.848L181.838 44.531L189.581 43.6452L179.723 78.3849V78.3828ZM142.719 82.6621L127.396 84.415L135.244 56.3937C136.379 52.4367 138.211 49.5381 145.021 48.7583L160.34 47.0054L152.453 75.0309C151.363 78.9816 149.483 81.847 142.719 82.66M116.187 85.7083C113.153 85.2155 109.959 84.8101 106.582 84.5086C104.935 84.3609 102.463 83.7017 100.284 83.1611L101.854 77.5781L108.778 80.0234L116.212 79.1729L118.233 71.9181L102.954 73.6648L106.811 59.6894C107.94 55.7241 109.77 52.8193 116.594 52.0271L131.948 50.2513L129.104 60.3569L122.163 57.9158L114.712 58.7787L112.687 66.1001L128.014 64.3181L124.082 78.3474C123.098 81.9177 121.468 84.6333 116.187 85.7083ZM95.7758 81.5102C95.6781 81.8491 95.5741 82.1735 95.4639 82.4958C90.3757 83.2797 75.5666 89.4865 58.8715 86.1325C58.8715 86.1325 60.1981 88.5488 63.2153 91.7364L55.7359 92.5827L65.4901 57.8472L73.4228 56.9385L65.5337 84.9639L72.6826 84.1488L80.6153 56.1171L88.5583 55.221L80.6569 83.236L87.8036 82.4188L95.7404 54.3975L103.663 53.4826L95.7758 81.5081V81.5102ZM63.0406 102.291C57.4909 100.74 52.9308 99.0848 49.2483 97.5232L67.2264 95.4667C67.6402 95.8056 68.0685 96.1466 68.5156 96.4876C68.5156 96.4876 65.5026 99.039 63.0406 102.291ZM149.966 128.763C150.315 127.541 150.604 125.842 150.814 124.707L154.025 127.16C153.008 128.372 149.966 128.763 149.966 128.763ZM125.777 136.22C125.65 137.382 125.248 139.291 127.945 141.632C126.03 141.626 124.485 141.185 123.882 140.293C121.508 136.8 121.597 133.712 123.132 131.107C126.272 133.259 125.928 134.877 125.775 136.22M136.693 141.566C137.217 142.699 136.529 144.383 136.529 144.383C135.957 143.965 133.429 143.281 133.429 143.281C134.924 142.691 136.693 141.566 136.693 141.566ZM8.46398 47.4213L3.33008 65.3702L18.0373 63.7213L10.404 90.5823V90.5927C10.0089 91.9672 9.84676 93.3458 9.84676 94.7909C9.84676 104.612 17.9791 112.251 29.0599 112.282C29.5465 112.282 29.3593 112.264 29.8376 112.235C26.1093 105.743 25.6706 100.189 25.6706 100.189L39.8018 98.6024C37.7037 95.8618 37.0176 93.0984 36.793 91.6366C36.9053 92.3727 37.134 93.4414 37.606 94.6724L27.3569 95.8431L35.2023 67.8259C36.3377 63.8689 38.1716 60.9682 44.9794 60.1906L60.3 58.4377L52.411 86.4631C51.3194 90.416 49.4437 93.2793 42.6796 94.0923L42.2263 94.1464C38.4003 92.0441 36.6849 90.5803 36.6849 90.5803C36.6849 90.5803 39.9225 98.4214 60.5766 106.706C60.0401 107.731 59.5099 108.843 58.9963 110.047C54.8501 108.729 46.8612 105.876 37.7204 100.012C37.7204 100.012 43.9314 110.744 68.869 119.348C68.869 119.348 69.0478 119.132 69.2537 118.891C69.838 118.217 70.2705 117.799 70.2705 117.799C72.8593 115.164 75.893 113.289 78.9954 111.954C88.4211 107.984 98.6661 108.872 98.6661 108.872C83.6428 105.66 71.1813 108.912 64.8476 111.694C65.251 110.658 65.6772 109.71 66.1159 108.837C67.1556 106.78 68.2743 105.144 69.3098 103.882C71.514 101.191 73.3625 100.17 73.3625 100.17C76.4171 102.553 83.9339 105.423 83.9339 105.423C83.9339 105.423 92.0205 101.64 95.1769 94.4603C94.0333 95.4376 86.9178 99.5714 84.0919 99.274C77.6626 98.5982 69.472 91.2914 69.472 91.2914C73.298 91.4972 74.4334 91.4203 77.5461 91.0668C82.5782 92.9507 91.3322 94.0569 93.8982 92.9507C93.8982 92.9507 88.8682 91.2768 85.7222 89.1809C92.1203 87.2304 94.4408 86.0639 95.938 86.1325C96.5992 86.1637 97.3977 86.4694 98.6827 86.8894C96.6096 88.7587 95.965 91.0107 95.8486 92.6014C95.8486 92.6014 98.4082 89.3597 102.222 87.8896C103.476 88.1869 104.977 88.4843 106.8 88.7525C100.679 90.6385 97.8489 93.4331 97.3685 96.3005C97.0899 97.9536 97.7616 106.115 110.758 110.937C110.758 110.937 103.239 103.219 104.711 96.6457C105.474 93.2522 111.523 90.7487 114.559 89.3825C144.954 92.7365 163.23 113.676 163.23 113.676C163.23 113.676 151.588 113.603 150.519 113.555C149.444 113.505 145.493 110.444 145.493 110.444L147.192 115.156L160.238 118.76C160.09 123.008 157.058 124.553 157.058 124.553L147.423 118.242C134.057 117.1 106.624 127.002 123.327 146.758C128.197 143.377 134.381 147.565 134.381 147.565C131.996 149.549 131.996 153.522 131.996 153.522C127.272 151.522 122.753 155.134 122.753 155.134C119.586 150.667 115.937 146.155 111.471 142.046C109.651 130.649 116.607 123.698 116.607 123.698C113.498 124.707 107.322 129.591 104.694 136.644C102.879 135.399 100.951 134.226 98.8886 133.138C101.145 127.495 106.312 123.715 106.312 123.715C101.864 124.343 97.9508 127.116 97.9508 127.116C98.4686 121.87 107.133 112.48 107.133 112.48C104.894 113.692 94.47 118.053 89.5024 129.177C89.3589 129.131 89.2612 129.102 89.2092 129.081C89.2092 129.081 89.2092 129.077 89.2133 129.073L89.203 129.081C87.0821 128.393 84.8571 127.79 82.5054 127.291C85.9093 119.381 92.3532 115.023 92.3532 115.023C92.3532 115.023 80.7546 116.231 70.6739 123.877L69.5012 123.621C68.4719 123.332 67.4717 123.037 66.4965 122.733V122.735C66.4799 122.731 66.4653 122.725 66.4487 122.721C48.7451 117.217 39.5315 109.662 39.5315 109.662C39.5315 109.662 45.5762 120.793 66.1555 127.936C73.5871 130.504 81.4179 132.831 89.5606 135.594C112.492 143.369 120.959 162.875 120.959 162.875C124.934 156.914 130.867 156.556 135.899 158.596C135.899 158.596 133.88 150.653 141.158 146.96C141.158 146.96 139.939 146.165 138.827 145.66C139.945 141.422 137.718 138.343 137.718 138.343C136.275 139.541 134.404 140.42 132.499 140.965C129.511 139.258 128.829 137.474 129.12 135.679C129.557 133.024 129.079 130.803 125.359 128.431C131.574 122.804 144.632 120.492 148.302 122.91C148.302 122.91 148.352 125.992 146.77 131.394C146.77 131.394 162.398 131.801 163.28 118.776L171.023 114.36C160.209 104.327 148.537 94.1338 128.567 88.4406L168.104 83.9138C168.104 83.9138 167.809 91.8382 163.342 96.6873C163.342 96.6873 178.777 96.4232 183.666 79.5701L196.668 34.7685L8.45776 47.4192L8.46398 47.4213Z" fill="black"/>
<path d="M200 32.1133L6.60609 45.1114L0 68.2067L14.5139 66.5786C14.5596 66.5744 14.6033 66.591 14.6324 66.6264C14.6615 66.6617 14.6698 66.7075 14.6573 66.7491L8.0741 89.9296C7.71229 91.3768 7.51687 92.8678 7.49607 94.3524C7.41498 99.688 9.37997 104.664 13.0271 108.365C17.1983 112.599 23.191 114.865 29.9031 114.72C31.471 114.686 32.3775 114.516 33.9267 114.214C30.3252 108.947 29.0152 103.87 28.6971 102.424C28.6888 102.389 28.6971 102.35 28.72 102.318C28.7408 102.287 28.7761 102.266 28.8135 102.264L33.1635 101.799C33.228 101.792 33.2904 101.83 33.307 101.894C33.7686 103.526 34.3529 105.128 35.0391 106.654C36.6589 110.706 40.2354 116.664 48.0953 122.06C52.2353 124.967 58.0159 127.732 62.7298 129.233C67.4437 130.733 69.5105 131.396 71.7292 132.084C92.9219 138.647 109.679 143.837 120.492 167.891C121.105 166.393 124.17 159.902 131.022 159.902C133.546 159.902 136.32 160.777 139.283 162.511C138.726 161.22 137.181 156.997 138.786 153.14C139.921 150.414 142.373 148.409 146.08 147.182C145.671 146.752 144.292 145.448 141.419 144.084C141.371 144.061 141.34 144.007 141.344 143.955C141.464 141.978 141.215 138.181 138.21 134.814C137.761 135.255 135.875 137.006 133.161 138.175C133.124 138.191 133.082 138.189 133.049 138.171C131.442 137.337 131.538 135.598 131.629 133.914C131.639 133.721 131.652 133.529 131.658 133.336C131.77 130.67 129.502 128.664 129.479 128.643C129.448 128.616 129.431 128.574 129.431 128.531C129.435 128.489 129.458 128.452 129.496 128.429C129.56 128.389 135.917 124.466 143.758 124.466C144.386 124.466 145.014 124.49 145.627 124.538C145.696 124.542 145.75 124.601 145.75 124.671C145.75 124.713 145.777 128.772 142.785 133.432C144.111 133.611 145.496 133.706 146.912 133.714H147.079C157.247 133.714 164.718 128.325 165.67 120.307C165.676 120.263 165.701 120.226 165.737 120.205L175.141 114.838C164.086 103.647 152.215 95.2444 139.861 89.8589C139.805 89.834 139.774 89.7778 139.782 89.7154C139.79 89.6572 139.836 89.6115 139.899 89.6032L165.123 86.7212C165.163 86.717 165.204 86.7316 165.235 86.7586C165.262 86.7856 165.277 86.8251 165.273 86.8646C165.269 86.9312 164.714 93.3855 158.877 98.7564C159.596 98.8458 160.648 98.9373 161.948 98.9373C168.708 98.9373 180.822 96.5087 186.029 80.2523L200 32.1113V32.1133ZM196.688 34.7791L183.688 79.5807C178.797 96.4359 163.362 96.6979 163.362 96.6979C167.83 91.8489 168.124 83.9244 168.124 83.9244L128.585 88.4512C148.557 94.1444 160.228 104.337 171.041 114.372L163.3 118.789C162.418 131.814 146.789 131.406 146.789 131.406C148.372 126.004 148.322 122.923 148.322 122.923C144.65 120.504 131.594 122.817 125.378 128.441C129.098 130.816 129.577 133.037 129.14 135.692C128.849 137.486 129.531 139.268 132.517 140.976C134.424 140.433 136.295 139.551 137.738 138.356C137.738 138.356 139.965 141.433 138.844 145.673C139.959 146.178 141.177 146.972 141.177 146.972C133.9 150.663 135.919 158.606 135.919 158.606C130.887 156.569 124.954 156.924 120.976 162.886C120.976 162.886 112.509 143.377 89.5784 135.602C81.4356 132.841 73.6048 130.514 66.1711 127.944C45.5918 120.804 39.5471 109.671 39.5471 109.671C39.5471 109.671 48.7607 117.227 66.4643 122.731C67.1983 121.665 68.028 120.444 68.606 119.706C68.7204 119.562 68.8327 119.425 68.9408 119.294C68.9075 119.332 68.8846 119.359 68.8846 119.359C43.9449 110.756 37.736 100.025 37.736 100.025C46.8748 105.887 54.8657 108.741 59.0119 110.06C59.5255 108.854 60.0558 107.743 60.5922 106.718C39.9381 98.4342 36.7005 90.5929 36.7005 90.5929C36.7005 90.5929 36.7067 90.8051 36.7441 91.1544C36.7441 91.1585 36.7442 91.1627 36.7462 91.1689H36.7441C36.7504 91.2209 36.7566 91.277 36.765 91.3352C36.767 91.3477 36.7671 91.3581 36.7691 91.3706C36.7712 91.3727 36.7691 91.3727 36.7712 91.3748C36.7712 91.3872 36.7754 91.4018 36.7754 91.4122C36.7774 91.433 36.7816 91.4538 36.7837 91.4725C36.792 91.5266 36.7982 91.5806 36.8065 91.6409C36.8148 91.6908 36.8252 91.7469 36.8335 91.801C37.0789 93.294 37.7859 95.9618 39.8175 98.615L25.6862 100.202C25.6862 100.202 26.1249 105.756 29.8532 112.247C29.3749 112.276 29.5621 112.295 29.0755 112.295C17.9947 112.264 9.86237 104.624 9.86237 94.8036C9.86237 93.3584 10.0246 91.9819 10.4196 90.6054V90.595L18.0529 63.7319L3.34569 65.3808L8.47959 47.4298L196.69 34.7791H196.688ZM36.7234 91.171V91.1585C36.7234 91.1523 36.7213 91.146 36.7213 91.1419C36.7213 91.1502 36.7234 91.1627 36.7255 91.171H36.7234ZM67.2191 95.4794L49.241 97.5359C52.9256 99.0975 57.4856 100.753 63.0333 102.304C65.4974 99.0517 68.5104 96.5004 68.5104 96.5004C68.0633 96.1593 67.6329 95.8183 67.2191 95.4794ZM69.2506 118.907C69.1238 119.053 69.0136 119.184 68.9429 119.269C69.0489 119.142 69.1508 119.02 69.2506 118.907ZM66.4518 122.735C66.4664 122.74 66.4788 122.744 66.4934 122.75C66.4788 122.746 66.4643 122.74 66.4518 122.735ZM123.126 131.119C121.59 133.725 121.503 136.813 123.875 140.306C124.48 141.198 126.025 141.637 127.938 141.645C125.243 139.304 125.645 137.395 125.769 136.233C125.923 134.889 126.266 133.272 123.126 131.119Z" fill="#C0C0C0"/>
</g>
<defs>
<clipPath id="clip0_154_2383">
<rect width="200" height="200" fill="white"/>
</clipPath>
</defs>
</svg>
