<svg width="200" height="200" viewBox="0 0 200 200" fill="none" xmlns="http://www.w3.org/2000/svg">
<g clip-path="url(#clip0_154_2372)">
<path d="M153.34 84.6037C153.34 71.326 146.852 60.4205 145.832 58.7891C143.684 54.3824 129.298 17.5992 127.709 11.2924C127.572 9.8779 127.36 8.66273 127.062 7.58684C125.515 1.99281 121.409 0 118.082 0C114.862 0 110.838 1.80984 109.2 6.88972C108.558 8.87979 108.271 11.3683 108.271 14.959V65.0794H91.7262V14.959C91.7262 11.3683 91.4404 8.87981 90.7981 6.8904C89.1592 1.80986 85.1354 0 81.9163 0C78.5889 0 74.4826 1.99269 72.9354 7.58684C72.6383 8.66273 72.4258 9.87724 72.2885 11.2924C70.6998 17.5987 56.3126 54.3829 54.1658 58.7891C53.146 60.4208 46.6582 71.326 46.6582 84.6037C46.6582 88.6678 48.5355 94.7424 50.5196 98.9044C49.6391 101.33 48.9209 104.456 49.3071 107.675C49.7236 111.148 51.3513 113.926 52.5408 115.954C52.9593 116.668 53.5262 117.635 53.6517 118.047V131.713C53.6517 132.877 54.2022 134.8 55.2913 137.443C52.8094 141.472 47.9058 151.574 50.7625 164.991C52.8272 174.929 61.0418 181.665 62.6506 182.902C63.6308 183.664 64.6295 184.391 65.3543 184.906C66.3173 187.784 68.99 194.245 74.4395 197.73C75.9274 198.783 78.4409 200 82.1108 200C84.3326 200 87.7392 199.175 91.2224 196.958C91.6607 197.071 92.1095 197.148 92.5616 197.185C95.1841 197.407 97.695 197.182 99.9992 196.523C102.303 197.182 104.814 197.406 107.437 197.186C107.889 197.148 108.337 197.071 108.776 196.958C112.259 199.175 115.665 200 117.887 200C121.558 200 124.071 198.783 125.56 197.73C131.008 194.245 133.68 187.785 134.643 184.906C135.366 184.392 136.36 183.67 137.331 182.915C138.956 181.666 147.171 174.929 149.232 165.009C152.091 151.577 147.188 141.474 144.707 137.443C145.796 134.8 146.347 132.877 146.347 131.713V118.047C146.472 117.635 147.039 116.668 147.458 115.954C148.646 113.926 150.275 111.148 150.691 107.676C151.077 104.456 150.359 101.33 149.479 98.9046C151.463 94.7422 153.34 88.6675 153.34 84.6037Z" fill="white"/>
<path d="M81.9233 3.69165C80.9676 3.69165 77.7517 4.04405 76.4995 8.57205C76.2415 9.5034 76.0601 10.6094 75.9466 11.8979C74.5129 18.1593 59.3492 56.7663 57.3917 60.6069C57.1046 61.0491 50.3555 71.5813 50.3555 84.6074C50.3555 88.2423 52.3901 94.7901 54.5789 98.721C53.7861 100.51 52.5779 103.897 52.9793 107.238C53.5615 112.095 57.3485 115.496 57.3485 117.924V131.716C57.3485 133.076 59.4866 137.835 59.4866 137.835C59.4866 137.835 51.0355 148.521 54.3833 164.243C56.2216 173.091 64.038 179.312 64.9232 179.992C66.6736 181.354 68.5198 182.616 68.5198 182.616C68.5198 182.616 70.7308 191.037 76.5097 194.673C77.5347 195.416 79.3455 196.312 82.1178 196.312C84.0682 196.312 87.5231 195.31 90.7712 192.77C91.3864 193.183 92.106 193.447 92.8789 193.512C93.4446 193.56 93.987 193.581 94.5057 193.581C96.7942 193.581 98.6269 193.155 100.006 192.647C101.385 193.155 103.215 193.581 105.504 193.581C106.023 193.581 106.567 193.56 107.132 193.512C107.905 193.447 108.625 193.183 109.24 192.77C112.488 195.31 115.943 196.312 117.894 196.312C120.666 196.312 122.476 195.416 123.5 194.673C129.279 191.038 131.491 182.616 131.491 182.616C131.491 182.616 133.337 181.354 135.088 179.992C135.973 179.312 143.79 173.091 145.628 164.243C148.975 148.521 140.525 137.835 140.525 137.835C140.525 137.835 142.661 133.076 142.661 131.716V117.924C142.661 115.496 146.449 112.095 147.032 107.238C147.433 103.897 146.225 100.51 145.432 98.721C147.622 94.7897 149.656 88.2419 149.656 84.6074C149.656 71.5824 142.907 61.05 142.619 60.6069C140.662 56.7672 125.499 18.1598 124.066 11.8979C123.951 10.6094 123.769 9.5034 123.511 8.57205C122.258 4.04396 119.043 3.69165 118.087 3.69165C117.156 3.69165 114.015 4.00418 112.718 8.024C112.207 9.61009 111.968 11.8149 111.968 14.9608V68.5705H88.0429V14.9608C88.0429 11.8149 87.8034 9.61009 87.2912 8.024C85.9949 4.00426 82.8547 3.69165 81.9233 3.69165ZM75.7558 109.376C76.5605 109.376 77.2112 110.028 77.2112 110.833C77.2112 111.637 76.5605 112.288 75.7558 112.288C74.9512 112.288 74.2973 111.638 74.2973 110.833C74.2973 110.028 74.9512 109.376 75.7558 109.376ZM124.255 109.376C125.059 109.376 125.713 110.028 125.713 110.833C125.713 111.637 125.059 112.288 124.255 112.288C123.45 112.288 122.798 111.638 122.798 110.833C122.798 110.028 123.45 109.376 124.255 109.376ZM73.1758 113.04C73.7514 113.711 74.5821 114.154 75.5174 114.22C75.6435 114.693 76.0179 116.01 77.577 117.146C74.0205 116.825 73.3052 114.334 73.1758 113.04ZM126.836 113.04C126.706 114.334 125.991 116.825 122.435 117.146C123.994 116.01 124.368 114.693 124.494 114.22C125.429 114.154 126.26 113.711 126.836 113.04Z" fill="#46166B"/>
<path d="M60.2159 148.613C59.8272 149.632 58.7109 151.477 58.7109 155.848C58.7109 161.093 61.8684 165.61 61.8684 165.61C61.8684 165.61 59.8758 164.445 58.759 163.328C60.3128 170.807 67.6464 176.441 67.6464 176.441C67.6464 176.441 67.2582 172.507 67.8404 167.65C66.8694 166.582 60.2159 160.608 60.2159 148.613ZM139.799 148.613C139.799 160.609 133.145 166.582 132.174 167.65C132.757 172.507 132.368 176.441 132.368 176.441C132.368 176.441 139.7 170.807 141.254 163.328C140.137 164.445 138.147 165.61 138.147 165.61C138.147 165.61 141.304 161.093 141.304 155.847C141.304 151.476 140.188 149.632 139.799 148.613Z" fill="#EEB211"/>
<path d="M81.9227 8.15419C81.1458 8.15419 80.2718 10.0008 80.2718 15.4405C80.2718 47.8836 66.9635 58.5681 66.9635 66.8236C66.9635 69.1549 67.2542 70.4171 67.643 71.8739C68.0311 73.3313 64.7292 76.1489 64.7292 79.4519C64.7292 82.7542 66.4778 85.4735 66.4778 85.4735C66.4778 85.4735 63.9518 86.153 62.0092 82.1702C60.8434 84.2105 59.9704 87.7078 59.9704 87.7078C59.9704 87.7078 58.124 83.5316 58.124 79.6458C58.124 72.6524 61.1356 63.0342 61.1356 63.0342C61.1356 63.0342 54.8223 72.7478 54.8223 84.598C54.8223 87.8039 57.2505 95.1873 59.2908 97.81C69.6835 81.0058 82.2136 75.0798 82.2136 75.0798V82.754C82.2136 82.754 85.419 80.1314 91.7325 79.0628C82.116 84.1143 74.8309 93.6338 74.8309 93.6338C74.8309 93.6338 74.637 87.9025 76.5795 83.5315C67.6436 88.7764 60.7469 107.33 60.7469 107.33C60.7469 107.33 64.0489 105.095 67.546 105.095C64.3407 107.135 63.3691 111.895 63.3691 114.712C63.3691 127.437 70.0719 132.002 71.9167 140.452C76.9675 134.43 83.377 132.486 83.377 132.486C83.377 132.486 81.1438 135.401 80.561 137.441C81.5326 136.858 82.5209 136.387 85.3196 135.888C88.0397 135.402 90.2738 136.178 90.2738 136.178C90.2738 136.178 82.6985 140.258 81.9217 149.291C81.6306 151.72 81.7747 157.255 82.6974 161.141C79.9298 157.596 79.5897 151.622 79.5897 151.622C79.5897 151.622 77.7449 154.828 77.7449 159.49C77.7449 160.851 78.7154 166.873 82.7952 169.884C79.0071 168.427 77.1615 165.61 77.1615 165.61C77.1615 165.61 76.5788 167.941 76.6759 170.758C77.2099 171.826 80.561 174.741 80.561 174.741C80.561 174.741 78.1327 174.158 76.482 173.381C76.1902 175.324 76.3842 178.238 76.3842 178.238C76.3842 178.238 78.2293 179.501 81.7262 179.793C79.1038 180.861 76.7736 180.568 76.7736 180.568C76.7736 180.568 77.2588 185.425 82.3096 185.425C84.3493 185.425 86.8754 184.843 88.2351 184.066C84.7387 189.99 78.9101 190.865 78.9101 190.865C78.9101 190.865 79.7849 191.836 82.1156 191.836C84.447 191.836 94.1591 188.243 94.1591 174.741C94.1591 173.443 94.3382 170.33 93.3818 169.203C92.1191 167.843 91.4392 165.805 91.4392 165.805C91.4392 165.805 86.5828 163.473 86.5828 156.091C86.5828 147.251 95.3244 145.503 95.3244 145.503C95.3244 145.503 96.5887 146.766 99.5028 146.766H100.504C103.419 146.766 104.683 145.503 104.683 145.503C104.683 145.503 113.423 147.251 113.423 156.091C113.423 163.473 108.568 165.805 108.568 165.805C108.568 165.805 107.888 167.843 106.625 169.203C105.669 170.33 105.847 173.443 105.847 174.741C105.847 188.243 115.561 191.836 117.891 191.836C120.222 191.836 121.097 190.865 121.097 190.865C121.097 190.865 115.268 189.99 111.772 184.066C113.131 184.843 115.657 185.425 117.697 185.425C122.748 185.425 123.233 180.568 123.233 180.568C123.233 180.568 120.903 180.861 118.28 179.793C121.777 179.501 123.621 178.238 123.621 178.238C123.621 178.238 123.817 175.324 123.525 173.381C121.874 174.158 119.446 174.741 119.446 174.741C119.446 174.741 122.796 171.826 123.331 170.758C123.428 167.941 122.845 165.61 122.845 165.61C122.845 165.61 121 168.428 117.212 169.884C121.291 166.873 122.262 160.851 122.262 159.49C122.262 154.828 120.417 151.622 120.417 151.622C120.417 151.622 120.076 157.596 117.308 161.141C118.231 157.256 118.376 151.72 118.085 149.291C117.308 140.258 109.731 136.178 109.731 136.178C109.731 136.178 111.966 135.402 114.686 135.888C117.485 136.387 118.474 136.858 119.446 137.441C118.863 135.401 116.628 132.486 116.628 132.486C116.628 132.486 123.039 134.43 128.089 140.452C129.935 132.002 136.637 127.436 136.637 114.712C136.637 111.895 135.666 107.135 132.46 105.095C135.957 105.095 139.259 107.33 139.259 107.33C139.259 107.33 132.363 88.7769 123.427 83.5315C125.369 87.9025 125.175 93.6338 125.175 93.6338C125.175 93.6338 117.89 84.1144 108.274 79.0628C114.587 80.1315 117.793 82.754 117.793 82.754V75.0798C117.793 75.0798 130.323 81.0058 140.715 97.81C142.755 95.1875 145.184 87.8042 145.184 84.598C145.184 72.7481 138.871 63.0342 138.871 63.0342C138.871 63.0342 141.882 72.652 141.882 79.6458C141.882 83.5316 140.036 87.7078 140.036 87.7078C140.036 87.7078 139.163 84.2104 137.997 82.1702C136.054 86.1531 133.528 85.4735 133.528 85.4735C133.528 85.4735 135.277 82.7542 135.277 79.4519C135.277 76.1489 131.974 73.3313 132.363 71.8739C132.752 70.4171 133.043 69.1549 133.043 66.8236C133.043 58.5674 119.734 47.8825 119.734 15.4405C119.734 10.0008 118.86 8.15419 118.084 8.15419C117.306 8.15419 116.433 9.18291 116.433 14.9532V70.4482L113.713 73.1681H101.708L100.002 93.9343L98.3514 73.1681H86.2904L83.5705 70.4482V14.9532C83.5705 9.18292 82.6965 8.15419 81.9196 8.15419H81.9227ZM78.5232 52.7393V69.8356C78.5232 69.8356 72.6954 66.6619 72.6954 64.104C72.6954 61.5457 77.6485 56.5594 78.5232 52.7393ZM121.486 52.7393C122.36 56.5597 127.313 61.5462 127.313 64.1044C127.313 66.6621 121.486 69.8359 121.486 69.8359V52.7393ZM82.6985 99.656C86.1956 99.656 88.721 106.941 90.5666 106.941C92.4121 106.941 94.16 105.679 94.16 105.679C94.16 105.679 93.3828 109.612 89.3036 111.409C90.3716 111.847 91.587 112.041 93.0926 112.138C87.847 117.578 84.7388 125.495 84.7388 125.495C84.7388 125.495 83.477 120.153 84.3509 115.976C77.1635 129.283 71.6269 132.779 71.6269 132.779C71.6269 132.779 71.1415 128.408 68.8108 123.454C66.4795 118.5 66.2849 116.071 66.2849 114.809C66.2849 111.215 72.5982 104.804 72.5982 104.804C72.5982 104.804 71.4816 101.55 70.2677 99.8499C77.0182 102.57 80.5629 107.184 85.0313 109.467C84.6425 108.738 82.2624 104.463 78.3285 100.821C79.3489 100.287 80.4649 99.656 82.6985 99.656ZM117.309 99.656C119.543 99.656 120.66 100.287 121.68 100.821C117.747 104.463 115.367 108.738 114.979 109.467C119.447 107.184 122.992 102.57 129.742 99.8499C128.528 101.55 127.412 104.804 127.412 104.804C127.412 104.804 133.725 111.215 133.725 114.809C133.725 116.071 133.531 118.5 131.199 123.454C128.868 128.408 128.383 132.779 128.383 132.779C128.383 132.779 122.846 129.283 115.659 115.976C116.533 120.153 115.271 125.495 115.271 125.495C115.271 125.495 112.162 117.579 106.917 112.138C108.423 112.041 109.638 111.847 110.706 111.409C106.627 109.612 105.848 105.679 105.848 105.679C105.848 105.679 107.598 106.941 109.443 106.941C111.289 106.941 113.813 99.656 117.309 99.656ZM65.0693 145.456C65.0693 145.456 64.2924 148.418 65.1174 152.546C65.9432 156.674 68.9545 159.249 68.9545 159.249C68.9545 159.249 69.1015 156.869 69.8296 153.032C67.8389 148.758 65.0693 145.456 65.0693 145.456ZM134.939 145.456C134.939 145.456 132.17 148.758 130.179 153.032C130.907 156.869 131.054 159.249 131.054 159.249C131.054 159.249 134.064 156.674 134.89 152.546C135.715 148.418 134.939 145.456 134.939 145.456ZM104.78 148.45C101.607 149.745 99.9875 149.357 99.9875 149.357C99.9875 149.357 102.707 150.977 104.78 152.79C103.355 153.113 102.449 153.502 100.571 153.825C98.693 154.149 95.1969 153.824 95.1969 154.667C95.1969 155.508 97.8517 155.592 99.7296 155.592C101.607 155.592 103.615 154.797 106.593 154.797C109.572 154.797 110.608 156.481 110.608 156.481C110.608 156.481 110.219 149.745 104.78 148.45ZM100.004 184.246C100.004 184.246 96.6867 186.851 93.2543 189.053C97.1316 189.38 99.389 188.1 100.004 187.689C100.618 188.1 102.877 189.38 106.755 189.053C103.323 186.851 100.004 184.246 100.004 184.246Z" fill="#A2AAAD"/>
</g>
<defs>
<clipPath id="clip0_154_2372">
<rect width="200" height="200" fill="white"/>
</clipPath>
</defs>
</svg>
