<svg width="200" height="200" viewBox="0 0 200 200" fill="none" xmlns="http://www.w3.org/2000/svg">
<path d="M188.332 30.8427L111.607 30.8739L111.616 48.2186L114.128 49.1358C115.363 49.5836 116.237 50.6858 116.64 51.5657C116.799 51.9116 116.875 52.3116 116.878 52.7832C116.878 53.4865 116.698 54.3186 116.348 55.2545C116.348 55.2545 116.505 55.1434 116.538 55.1216C116.027 56.122 115.357 57.8796 114.13 61.1416L100.027 98.6141C96.791 90.0355 83.6733 55.2694 83.6733 55.2694C83.3211 54.3324 83.1415 53.4992 83.1415 52.7907C83.1415 52.3243 83.2227 51.9181 83.3762 51.5815C83.7824 50.6985 84.654 49.5953 85.8829 49.1496L88.3947 48.2344L88.3856 30.8788L9.47656 30.91L9.4857 48.0786L11.5945 49.1423C11.7607 49.2316 16.3523 51.756 19.0606 59.6977C21.0198 65.4538 49.9975 142.303 58.8327 165.726C58.8327 165.719 59.0478 166.299 59.0478 166.299C61.4765 172.735 60.7681 173.068 59.3584 173.74C59.3493 173.745 57.18 174.785 57.18 174.785L57.1892 191.586L142.929 191.553L142.919 174.827L140.842 173.761C140.21 173.44 139.604 173.128 139.604 171.811C139.604 170.766 139.985 169.089 141.044 166.272L142.348 162.811C166.296 99.1711 179.647 63.499 180.959 59.6481C183.662 51.6938 188.401 49.0891 188.448 49.0626L190.501 48.0259L190.523 45.6781V30.8475H188.335L188.332 30.8427Z" fill="#002664"/>
<path d="M153.289 38.2974L99.9234 172.559L47.5547 38.2974H40.3379L96.7721 184.039L102.789 183.897L160.564 38.3011H153.289L153.289 38.2974Z" fill="#3DB7E4"/>
<path d="M180.483 42.2516C177.687 44.6637 173.928 49.0081 171.476 56.2289C170.199 59.9635 155.482 99.2862 132.095 161.417L131.668 162.551L131.234 163.701C129.702 167.679 127.968 172.194 130.336 176.564C130.97 177.734 131.83 178.716 132.887 179.534V181.136L67.8189 181.161V179.558C68.8722 178.741 69.7334 177.759 70.3619 176.586C72.7304 172.208 70.9967 167.705 69.4654 163.729L69.024 162.574L68.6167 161.497C45.1754 99.3563 30.4197 60.0222 29.143 56.2899C26.682 49.067 22.9236 44.7271 20.1188 42.3171V41.1609L78.3633 41.1391V42.1966C76.2181 43.8141 74.981 45.6767 74.2901 47.1852C73.1931 49.5723 72.3059 53.5293 74.3074 58.8383L94.2363 111.672L99.9353 127.875L106.431 111.669L126.328 58.8182C128.32 53.5098 127.436 49.5495 126.328 47.1696C125.635 45.6571 124.403 43.7955 122.254 42.1801V41.1257L180.49 41.106V42.259L180.483 42.2516ZM186.725 34.6661L115.456 34.69V45.5447C119.429 47.2795 121.935 51.2915 119.938 56.5974C112.093 77.4653 100.048 109.444 100.048 109.444C100.048 109.444 87.9833 77.4744 80.1181 56.6147C78.1174 51.3073 80.1181 47.1882 84.5976 45.5565L84.5885 34.7001L13.3164 34.7271V45.7222C13.3164 45.7222 19.3468 48.6528 22.6891 58.4677C24.8384 64.7754 60.2018 158.491 62.641 164.952C64.6438 170.261 66.0711 174.784 61.0152 177.187V187.762L139.118 187.732V177.161C134.457 174.783 135.489 170.236 137.487 164.925C139.921 158.459 175.214 64.7186 177.36 58.4129C180.695 48.5977 186.72 45.6611 186.72 45.6611L186.711 34.6686L186.725 34.6661Z" fill="white"/>
</svg>
