<svg width="200" height="200" viewBox="0 0 200 200" fill="none" xmlns="http://www.w3.org/2000/svg">
<g clip-path="url(#clip0_154_2371)">
<path d="M95.9853 79.9007L95.9548 79.8492C95.9846 79.8938 95.9999 79.9217 96.0095 79.9401L95.9853 79.9007ZM181.049 153.751L169.522 85.8652L142.351 134.111L128.219 108.321C130.521 107.896 132.697 106.821 134.56 105.156C137.658 102.385 139.519 98.2377 139.507 94.0611C139.476 82.537 125.988 78.8556 125.988 78.8556C125.988 78.8556 126.217 86.4623 122.306 87.916C121.526 88.2067 120.537 88.6259 119.56 88.9363C121.658 85.722 122.803 81.8137 122.782 77.7187C122.762 73.6252 120.839 67.0139 115.49 61.8527C110.737 57.2663 104.359 54.9705 97.031 55.1875C95.8129 55.2257 94.5965 55.3458 93.3944 55.5462L94.8346 46.877C98.1628 32.5473 113.783 25.3974 113.783 25.3974L79.9654 25.4171C76.7517 25.4171 73.9248 27.8662 73.505 31.0022L71.397 45.8004L56.2375 21.0781L41.1392 45.8182L38.9796 30.9869C38.5527 27.8578 35.7296 25.4164 32.523 25.4164L0 25.3973C0 25.3973 14.7345 33.848 17.5466 46.2519L29.2569 114.138L56.2445 65.8912L73.2645 96.9514C68.4135 102.628 65.689 109.898 65.689 117.403C65.689 134.766 79.8146 148.892 97.1789 148.892C99.6935 148.892 102.19 148.59 104.614 147.999L103.762 153.125C100.998 165.295 84.3575 174.605 84.3575 174.605L118.632 174.585C121.844 174.585 124.67 172.139 125.092 169.005L127.201 154.201L142.36 178.925L157.458 154.185L159.618 169.012C160.044 172.143 162.867 174.585 166.075 174.585L200 174.67C200 174.67 185.602 168.295 181.052 153.75" fill="#F0B323"/>
<path d="M176.372 154.73L167.077 98.8839L142.44 143.875H142.258L119.104 101.625C120.208 102.402 122.124 103.377 125.089 103.709C130.373 104.301 134.734 99.382 134.734 94.0638C134.734 90.0747 132.379 86.1034 128.839 85.1768C130.188 100.794 86.8301 89.3148 87.5107 115.91C88.2066 130.006 108.267 129.95 106.819 117.405C94.9268 117.469 98.5299 104.108 107.541 105.942L107.694 106.06C110.698 108.85 112.441 112.992 112.441 117.406C112.441 125.825 105.592 132.673 97.1745 132.673C88.7552 132.673 81.9424 125.955 81.9069 117.406C81.87 108.857 85.7656 101.661 97.1366 95.5351C94.4718 94.0174 87.7044 90.2038 87.5189 81.053H87.5297C87.5297 75.7352 91.8693 71.4079 97.1748 71.4079C101.032 71.4079 104.237 74.5039 104.237 78.2984C104.237 82.0928 101.149 85.2473 97.3548 85.1805C93.526 85.1131 91.9236 82.4115 91.9071 82.3835C91.9243 87.9215 96.9433 91.9801 101.977 92.4269C111.738 93.2939 118.051 86.336 118.008 77.7432C117.98 72.0474 112.577 59.4821 97.1764 59.9571C93.6485 60.0665 90.3228 60.9844 87.3967 62.5296L90.1498 45.9499C92.8354 34.1871 100.328 30.1775 100.328 30.1775L79.962 30.1877C79.0492 30.1877 78.3196 30.9173 78.2285 31.6469L74.2133 59.8402H74.0314L56.2445 29.2188L38.5391 59.8402H38.3565L34.2504 31.6469C34.1601 30.9173 33.3382 30.1877 32.5177 30.1877L12.1953 30.1775C12.1953 30.1775 19.4051 34.0299 22.217 45.2733L31.512 101.12L56.1481 56.1288H56.3306L79.1288 97.73C73.8045 102.617 70.4563 109.624 70.4563 117.403C70.4563 132.136 82.4416 144.121 97.1745 144.121C102.109 144.121 106.732 142.772 110.703 140.43L108.441 154.052C105.755 165.815 98.2624 169.825 98.2624 169.825L118.628 169.815C119.54 169.815 120.271 169.085 120.361 168.355L124.376 140.162H124.559L142.345 170.783L160.05 140.162H160.233L164.339 168.355C164.43 169.085 165.252 169.815 166.072 169.815L186.394 169.825C186.394 169.825 179.185 165.972 176.373 154.728" fill="#115740"/>
</g>
<defs>
<clipPath id="clip0_154_2371">
<rect width="200" height="200" fill="white"/>
</clipPath>
</defs>
</svg>
