<svg width="200" height="200" viewBox="0 0 200 200" fill="none" xmlns="http://www.w3.org/2000/svg">
<path d="M104.292 104.793C101.882 122.82 101.748 140.848 102.016 158.742C92.3775 142.588 87.4243 124.605 88.6292 105.551L85.6841 105.685C85.1038 105.73 84.7023 105.373 84.613 104.882L78.9904 105.15C78.4103 105.194 78.0086 104.748 78.1427 104.213L82.8282 90.2898C82.9173 89.7989 83.4527 89.3974 83.9883 89.3974L86.9334 89.7096C87.1565 89.2188 87.692 88.8619 88.2723 88.8619L91.1727 88.9958C95.8581 69.9418 106.345 51.9582 120.981 35.8043C115.18 53.6983 109.78 71.726 106.612 89.7544L110.718 91.4499L149.986 89.5313C150.566 89.4865 151.102 89.1296 151.191 88.5495C153.645 74.3143 156.814 58.4286 159.803 44.3278C159.937 43.6137 159.803 42.9889 159.357 42.4089C155.653 37.902 151.994 33.3502 148.335 28.7094C147.889 28.1294 147.219 27.817 146.416 27.817C123.926 26.7015 101.346 25.6305 78.809 24.5595C78.0504 24.5149 77.2919 24.7826 76.6225 25.3181C70.9106 29.7359 65.2432 34.243 59.621 38.7947C58.9072 39.3748 58.5055 40.0441 58.3272 40.8027C50.2947 80.0271 44.2257 119.697 40.1656 159.635C40.0763 160.438 40.2994 161.108 40.8349 161.643C45.0742 166.15 49.3136 170.657 53.5529 175.075C53.9992 175.566 55.5163 175.432 55.5163 175.432H120.711C120.711 175.432 122.362 175.075 122.898 174.54C127.985 169.72 135.839 161.777 141.015 157.092C141.639 156.512 141.996 154.504 142.086 153.746C143.201 143.75 144.451 133.754 145.834 123.803C146.012 122.598 146.191 121.393 146.325 120.144C146.994 115.503 147.797 110.461 148.556 105.775C148.735 104.793 147.931 103.945 146.949 103.901L108.886 103.232L104.292 104.793Z" fill="#005035"/>
<path fill-rule="evenodd" clip-rule="evenodd" d="M99.3356 104.13C99.5873 102.248 100.884 100.67 102.683 100.059L107.276 98.4976C107.822 98.312 108.396 98.2223 108.973 98.2324L147.037 98.9018C147.083 98.9026 147.129 98.904 147.176 98.9061C150.63 99.0629 154.254 102.175 153.486 106.609C152.734 111.251 151.944 116.21 151.286 120.77C151.142 122.087 150.956 123.345 150.785 124.497L150.783 124.514C149.407 134.413 148.164 144.356 147.054 154.3L147.051 154.33C146.984 154.895 146.834 155.829 146.582 156.774C146.455 157.247 146.274 157.836 146.016 158.429C145.803 158.918 145.331 159.907 144.416 160.757C144.408 160.764 144.4 160.771 144.392 160.778C144.385 160.785 144.377 160.792 144.369 160.799C141.272 163.603 137.336 167.46 133.528 171.192C130.986 173.682 128.502 176.117 126.363 178.144C125.64 178.844 124.86 179.24 124.467 179.426C123.978 179.657 123.506 179.826 123.151 179.941C122.784 180.061 122.454 180.151 122.22 180.212C122.1 180.242 121.999 180.267 121.922 180.285C121.884 180.293 121.852 180.301 121.826 180.307L121.792 180.314L121.779 180.317L121.773 180.318L121.771 180.319L121.769 180.319C121.769 180.319 121.768 180.319 120.711 175.432C120.711 175.432 122.362 175.075 122.897 174.54C124.903 172.64 127.338 170.254 129.87 167.774C133.761 163.964 137.879 159.93 141.014 157.092C141.639 156.512 141.996 154.504 142.085 153.746C143.201 143.75 144.45 133.755 145.833 123.803C146.012 122.599 146.191 121.393 146.324 120.144C146.994 115.503 147.797 110.461 148.555 105.775C148.734 104.793 147.931 103.946 146.949 103.901L108.885 103.232L104.292 104.793C102.365 119.208 101.893 133.623 101.918 147.969C101.924 151.565 101.962 155.156 102.016 158.742C100.136 155.591 98.4336 152.371 96.921 149.086C91.3625 137.016 88.359 124.083 88.4526 110.565C88.4641 108.902 88.5225 107.231 88.6287 105.551L85.6836 105.685C85.2918 105.715 84.9816 105.563 84.7939 105.309C84.7035 105.187 84.6416 105.042 84.6125 104.882L78.9899 105.15C78.4099 105.195 78.0082 104.748 78.1423 104.213L82.8278 90.29C82.9168 89.799 83.4523 89.3976 83.9878 89.3976L86.9329 89.7097C87.156 89.219 87.6915 88.8621 88.2718 88.8621L91.1722 88.9959C94.8962 73.8517 102.285 59.3837 112.509 45.9732C115.149 42.5109 117.977 39.1192 120.981 35.8045C119.632 39.9641 118.305 44.1309 117.023 48.3033C112.79 62.0799 109.043 75.917 106.612 89.7545L110.717 91.4501L149.986 89.5314C150.566 89.4867 151.101 89.1298 151.191 88.5497C153.645 74.3145 156.813 58.4288 159.803 44.3279C159.937 43.6139 159.803 42.9891 159.357 42.409C155.653 37.9022 151.994 33.3504 148.334 28.7096C147.888 28.1296 147.219 27.8172 146.416 27.8172C124.842 26.7471 103.187 25.7181 81.5654 24.6907L78.8086 24.5596C78.0499 24.515 77.2914 24.7828 76.6221 25.3183C70.9101 29.7361 65.2427 34.2432 59.6205 38.7949C58.9067 39.3749 58.505 40.0442 58.3267 40.8029C50.2943 80.0273 44.2253 119.697 40.1651 159.636C40.0759 160.439 40.299 161.108 40.8345 161.644C45.0737 166.15 49.3131 170.657 53.5525 175.075C53.9987 175.566 55.5159 175.432 55.5159 175.432H120.711L121.768 180.319C121.421 180.395 121.066 180.432 120.711 180.432H55.6778C55.6074 180.436 55.5258 180.44 55.4351 180.443C55.179 180.451 54.8061 180.455 54.3813 180.428C53.9838 180.402 53.3791 180.34 52.7189 180.159C52.1857 180.012 50.9626 179.617 49.9219 178.513C45.6831 174.096 41.4473 169.593 37.2314 165.111C35.5989 163.437 34.9605 161.269 35.1926 159.112C39.2697 119.013 45.3635 79.1825 53.4284 39.7998C53.438 39.7526 53.4483 39.7057 53.4593 39.6589C53.8985 37.7902 54.9223 36.1699 56.4674 34.9144L56.4743 34.9088C62.1102 30.346 67.7985 25.822 73.537 21.3834C75.0015 20.2248 76.9196 19.4496 79.0671 19.5663L81.8043 19.6964C103.393 20.7222 125.022 21.75 146.57 22.8187C148.697 22.8601 150.82 23.7606 152.274 25.6307C155.91 30.2411 159.543 34.761 163.219 39.2345C163.253 39.2755 163.286 39.3171 163.319 39.3592C164.682 41.1304 165.098 43.2167 164.717 45.2489C164.713 45.2734 164.708 45.298 164.703 45.3225C164.7 45.3367 164.697 45.3509 164.694 45.365C161.714 59.4197 158.562 75.2253 156.123 89.3679C155.545 92.9292 152.431 94.3577 150.37 94.5166C150.323 94.5202 150.277 94.5232 150.23 94.5255L110.961 96.4441C110.225 96.4801 109.49 96.3529 108.808 96.0715L104.703 94.3759C102.535 93.4807 101.281 91.199 101.687 88.8891C103.287 79.7851 105.441 70.7023 107.913 61.6751C102.467 70.86 98.4336 80.4056 96.0275 90.1899C95.4573 92.5087 93.3271 94.1007 90.9417 93.9906L89.6152 93.9294C88.7407 94.4851 87.6966 94.7679 86.6192 94.6999L84.873 99.8887C85.7195 99.9322 86.519 100.189 87.2118 100.611L88.4018 100.557C89.8207 100.492 91.2001 101.034 92.1955 102.047C93.1909 103.061 93.7084 104.449 93.6187 105.867C92.9748 116.051 94.1938 125.928 97.0458 135.377C97.2927 125.025 97.9375 114.59 99.3356 104.13Z" fill="white"/>
</svg>
