<svg width="200" height="200" viewBox="0 0 200 200" fill="none" xmlns="http://www.w3.org/2000/svg">
<path d="M184.129 119.109C185.403 101.96 177.864 91.3952 177.864 91.3952C173.564 84.0686 159.972 71.8043 159.972 71.8043C158.167 70.3707 153.229 65.1143 153.229 65.1143C148.026 59.3808 142.823 49.9307 142.823 49.9307C140.911 46.0546 132.417 33.3651 132.417 33.3651C125.218 23.8272 116.739 19.1015 116.739 19.1015C101.519 10.0581 87.5721 10.3583 87.5721 10.3583C87.8905 17.5436 85.802 22.8874 85.802 22.8874C83.4661 28.6926 78.9715 28.6216 78.9715 28.6216C75.4671 29.0819 72.8122 26.2857 72.8122 26.2857C68.6001 22.0026 67.4528 14.3234 67.4528 14.3234C53.2243 17.5621 48.021 27.5435 48.021 27.5435C44.1989 33.8347 43.6469 43.3197 43.6469 43.3197C43.1691 50.1151 42.8331 63.3091 42.8331 63.3091C42.3459 69.68 40.4615 72.2991 40.4615 72.2991C39.2935 74.812 35.9316 78.2097 35.9316 78.2097C35.6836 78.5281 31.5424 83.024 31.5424 83.024C28.9579 85.7843 27.6129 87.6255 27.6129 87.6255C23.3656 94.2086 23.2595 100.58 23.2595 100.58C23.1534 109.075 26.2672 112.699 26.2672 112.699C24.1254 112.666 22.0589 113.372 20.3139 114.61C19.313 115.32 18.498 116.218 17.8431 117.259C17.3338 118.067 16.9407 118.956 16.748 119.894C16.6676 120.285 16.6343 120.68 16.6048 121.077C16.5728 121.508 16.5426 122.088 16.7304 122.489C17.2735 123.648 18.0509 124.755 18.957 125.656C19.3721 126.069 19.8305 126.443 20.3397 126.733C19.4035 127.438 18.5532 128.337 17.9329 129.329C17.4669 130.075 17.1185 130.937 17.1536 131.83C17.1379 132.273 17.1096 132.702 17.1601 133.146C17.2423 133.88 17.4772 134.692 18.0994 135.15C18.2557 135.266 18.4422 135.337 18.6168 135.421C18.9747 135.595 19.3326 135.772 19.6874 135.953C20.073 136.149 20.4573 136.349 20.8315 136.565C20.8968 136.602 21.0626 136.662 21.0896 136.734C21.116 136.805 21.1448 136.874 21.175 136.943C21.4914 137.677 21.9316 138.369 22.4829 138.948C23.1705 139.672 24.0684 140.096 24.9538 140.527C25.8316 140.955 26.7289 141.341 27.6369 141.699C28.2353 141.934 28.8388 142.156 29.4459 142.367C29.7699 142.48 30.0625 142.471 30.4054 142.417C30.7872 142.357 31.2255 142.235 31.5313 141.989C31.741 141.821 31.9583 141.662 32.1774 141.507C32.6075 141.204 33.0508 140.92 33.5036 140.654L33.6467 140.522C33.1846 142.022 32.9277 143.591 32.9905 145.162C33.0596 146.902 33.5368 148.605 34.3782 150.129C34.5547 150.448 34.7343 150.836 34.9873 151.1C35.2021 151.324 35.425 151.541 35.6517 151.752C36.5 152.543 36.7656 152.842 38.4673 153.824C38.2795 152.936 38.1791 152.024 38.1263 151.118C38.0296 149.46 38.0943 147.685 38.7524 146.136C39.2849 144.882 40.3008 143.917 41.4324 143.196C44.1299 141.476 47.4598 140.876 50.6026 140.702C52.8719 140.577 55.1732 140.657 57.4331 140.88C58.8497 141.021 60.2757 141.22 61.6452 141.615C62.1186 141.751 62.6592 141.918 63.1509 142.164L63.8215 142.611C63.9063 143.299 63.6426 143.448 63.5804 143.809C63.522 144.142 63.4008 144.434 63.2313 144.722C62.9694 145.167 62.7302 145.626 62.5004 146.088C62.1512 146.792 61.8235 147.505 61.5139 148.226C61.1742 149.019 61.1667 149.825 61.4492 150.639C61.7368 151.469 62.2191 152.258 62.6794 153C63.2049 153.846 63.7958 154.653 64.4539 155.402C64.6134 155.583 64.7772 155.765 64.9462 155.944L64.8024 156.081C58.0195 158.197 51.5077 160.177 47.4979 161.062C47.4979 161.062 36.6323 164.275 31.8661 159.765C31.8661 159.765 31.242 158.555 29.7494 159.176C29.7494 159.176 26.8384 159.924 23.673 164.704C23.673 164.704 21.3371 164.68 19.4841 165.864C19.4841 165.864 14.2768 169.561 16.1129 176.73C16.1129 176.73 17.7115 179.508 22.0241 180.049C22.0241 180.049 21.6737 186.487 24.3493 187.861C24.3493 187.861 25.803 189.065 29.2308 188.124C29.2308 188.124 30.4966 188.917 31.2752 188.925C31.2752 188.925 34.6013 189.101 36.4455 188.696C36.4455 188.696 39.2805 188.443 40.7958 185.698C40.7958 185.698 43.4727 180.275 43.7628 179.641C43.7628 179.641 45.5655 176.474 48.8364 175.093C48.8364 175.093 59.1371 170.073 83.6626 161.589L84.3948 161.37C84.5794 161.532 84.8845 161.815 85.0277 161.935C85.5671 162.389 86.1315 162.751 86.8035 162.982C87.3988 163.185 88.0361 163.311 88.6653 163.327C90.0234 163.361 91.3829 163.353 92.7411 163.378C93.1286 163.386 94.6124 163.444 94.9628 163.406C95.4833 163.349 95.9876 163.168 96.4534 162.934C96.6412 162.84 96.839 162.666 97.0399 162.61C97.5146 162.478 97.9686 162.164 98.3893 161.918C99.0279 161.543 99.6552 161.15 100.279 160.752C101.605 159.907 102.912 159.045 104.258 158.234L104.274 158.255C135.019 168.832 148.793 175.614 148.793 175.614C152.05 177.029 153.819 180.215 153.819 180.215C154.102 180.852 156.721 186.303 156.721 186.303C158.208 189.064 161.04 189.346 161.04 189.346C162.88 189.772 166.207 189.63 166.207 189.63C166.986 189.63 168.26 188.851 168.26 188.851C171.679 189.828 173.145 188.639 173.145 188.639C175.835 187.294 175.552 180.852 175.552 180.852C179.87 180.356 181.498 177.595 181.498 177.595C183.409 170.446 178.242 166.694 178.242 166.694C176.401 165.49 174.065 165.49 174.065 165.49C170.95 160.677 168.048 159.898 168.048 159.898C166.561 159.261 165.924 160.464 165.924 160.464C161.111 164.924 150.28 161.597 150.28 161.597C142.002 159.676 119.596 152.056 116.743 151.081L116.734 151.069C117.309 150.745 117.883 150.421 118.458 150.098C118.829 149.889 119.2 149.681 119.571 149.473C119.823 149.331 120.07 149.17 120.308 148.993L120.307 148.989L132.724 145.067C151.094 139.652 154.492 139.333 154.492 139.333C160.544 137.953 166.278 142.731 166.278 142.731C167.127 143.262 168.083 143.156 168.083 143.156C172.436 141.67 174.56 140.289 174.56 140.289C176.047 139.227 176.684 137.422 176.684 137.422C177.534 136.891 179.551 135.935 179.551 135.935C180.931 135.086 180.613 132.538 180.613 132.538C180.719 129.883 177.427 127.441 177.427 127.441C179.657 126.166 181.038 123.193 181.038 123.193C181.462 122.025 181.144 121.601 181.144 121.601C181.079 121.224 180.985 120.854 180.871 120.495L184.13 119.108L184.129 119.109Z" fill="white" stroke="#FFD615" stroke-width="4.03924" stroke-miterlimit="10"/>
<path d="M95.9285 19.7109C95.9285 19.7109 95.2219 27.7814 89.1344 34.0116C89.1344 34.0116 81.9112 40.3818 72.5673 36.6998C72.5673 36.6998 65.3463 34.153 62.2319 25.7999C62.2319 25.7999 56.2851 28.3475 53.9495 35.143C53.9495 35.143 51.8259 42.1513 51.8259 48.5221L51.6131 60.8398C51.6131 60.8398 52.2506 69.971 46.7292 78.6789C46.7292 78.6789 37.5973 88.8752 36.7478 89.9352C36.7478 89.9352 31.2264 97.3697 32.2879 102.89C32.2879 102.89 31.8632 110.531 42.0572 117.332C42.0572 117.332 52.676 111.812 58.8349 112.872C58.8349 112.872 58.8341 110.038 59.3995 109.051C59.3995 109.051 59.967 107.351 63.2227 103.671C63.2227 103.671 61.5238 99.703 62.9408 93.4757C62.9408 93.4757 60.5316 91.3484 59.9662 88.2348C59.9662 88.2348 59.5423 86.1149 60.1083 85.1212C60.1083 85.1212 61.9485 80.7319 65.4884 78.4669C65.4884 78.4669 66.6197 77.5468 68.602 78.2542C68.602 78.2542 72.1419 74.9278 72.9913 73.795C72.9913 73.795 76.1064 70.537 79.3629 70.3965C79.3629 70.3965 92.9547 68.9817 95.7887 68.6983C95.7887 68.6983 99.0422 67.9894 103.576 68.8389C103.576 68.8389 123.679 72.8027 127.639 93.4757C127.639 93.4757 128.773 99.8429 128.206 103.95C128.206 103.95 135.427 103.81 138.541 111.311C138.541 111.311 140.101 115.279 139.247 119.806C139.247 119.806 137.974 123.913 134.293 126.747C134.293 126.747 131.886 128.16 126.793 128.02C126.793 128.02 121.979 126.32 119.851 123.633C119.851 123.633 119.432 132.481 122.545 137.575C122.545 137.575 148.875 128.02 153.976 124.053C153.976 124.053 158.224 120.093 158.93 117.965C158.93 117.965 161.477 114.285 165.864 115.558C165.864 115.558 170.965 112.592 175.352 114.572C175.352 114.572 175.639 101.543 165.724 90.3621C165.724 90.3621 160.064 83.4208 151.709 76.4846C151.709 76.4846 141.095 65.8666 132.453 48.9476C132.453 48.9476 123.112 26.5065 95.9285 19.7109ZM128.096 110.191L128.751 114.755C128.979 116.83 127.823 117.986 127.823 117.986C126.903 120.062 124.364 121.446 124.364 121.446C125.284 122.138 127.131 123.065 127.131 123.065C129.906 123.985 134.058 120.29 134.058 120.29C134.522 119.37 134.286 115.675 134.286 115.675C133.594 111.523 128.096 110.191 128.096 110.191Z" fill="#582C83"/>
<path d="M88.5701 10.9258C88.5701 23.0315 83.6825 27.278 83.6825 27.278C79.4352 31.1012 73.7011 27.9154 73.7011 27.9154C68.6044 25.3663 66.6921 15.173 66.6921 15.173C50.3399 19.8457 46.7301 31.7394 46.7301 31.7394C44.1818 38.7469 44.181 54.0377 44.181 54.0377C43.9691 69.3284 42.4836 69.7524 42.4836 69.7524C41.8462 73.7877 31.4394 84.4035 31.4394 84.4035C23.7936 92.898 24.4318 99.6994 24.4318 99.6994C23.1576 106.28 27.4049 113.074 27.4049 113.074C28.467 113.288 31.2266 114.774 31.2266 114.774C32.2881 114.348 34.8379 114.561 34.8379 114.561C27.8296 104.793 29.9525 99.9129 29.9525 99.9129C30.5899 92.2649 36.5375 86.3173 36.5375 86.3173C46.5174 77.8229 47.7916 70.8139 47.7916 70.8139C49.0657 65.7172 49.2777 53.825 49.2777 53.825C48.8537 40.0211 51.8268 33.2241 51.8268 33.2241C56.4987 23.0307 63.295 22.3948 63.295 22.3948C64.7812 28.1289 71.3648 33.0128 71.3648 33.0128C79.4352 38.7469 87.0802 31.9506 87.0802 31.9506C92.1769 27.9154 94.2968 17.0854 94.2968 17.0854C115.113 18.9962 129.769 39.8091 129.769 39.8091C131.889 42.7814 140.81 57.8587 140.81 57.8587C148.031 69.9637 156.953 77.1854 156.953 77.1854C169.481 88.4446 172.455 95.6583 172.455 95.6583C176.915 101.186 177.975 116.261 177.975 116.261L179.882 119.662L183.069 118.175C184.342 104.366 177.762 92.4784 177.762 92.4784C174.788 86.5308 160.559 73.5757 160.559 73.5757C153.765 68.479 145.69 56.1613 145.69 56.1613C145.271 55.5239 134.649 37.8968 134.649 37.8968C116.814 11.3505 88.5701 10.9258 88.5701 10.9258ZM100.289 69.5875C99.0961 69.5846 98.338 69.6854 98.338 69.6854C97.0645 69.8268 79.3653 71.3129 79.3653 71.3129C75.4007 71.5956 72.8531 74.9242 72.8531 74.9242C71.8616 75.915 70.1627 78.6046 70.1627 78.6046C73.1365 80.0201 73.8432 80.8703 73.8432 80.8703C85.4527 75.4895 100.885 78.4618 100.885 78.4618C105.699 76.905 108.952 78.1806 108.952 78.1806C114.333 79.5954 118.301 86.5308 118.301 86.5308C118.867 88.371 119.574 88.6581 119.574 88.6581C123.821 92.9053 126.228 95.8791 126.228 95.8791C126.508 77.3305 108.386 71.3843 108.386 71.3843C105.471 69.8805 102.269 69.592 100.289 69.5875ZM127.701 104.44C126.663 104.462 125.941 104.587 125.941 104.587C123.181 106.287 125.735 109.467 125.735 109.467C131.683 108.834 133.803 113.295 133.803 113.295C135.716 116.055 134.443 120.516 134.443 120.516C131.042 123.696 128.069 123.482 128.069 123.482C125.735 123.276 123.608 121.362 123.608 121.362L121.701 122.209L121.274 124.55C121.907 126.037 127.009 127.73 127.009 127.73C128.915 127.943 134.016 126.243 134.016 126.243C139.537 123.063 138.896 117.329 138.896 117.329C139.75 110.108 133.803 106.074 133.803 106.074C132.08 104.609 129.438 104.396 127.701 104.44ZM59.2613 113.501C59.2613 113.501 51.6155 113.295 46.5189 115.628C46.5189 115.628 36.8555 120.192 29.6352 120.406C29.6352 120.406 28.785 122.003 35.5813 125.293C35.5813 125.293 41.3243 127.428 43.9698 127.73C43.9698 127.73 48.3318 124.594 49.0863 124.299C49.0863 124.299 42.9496 123.556 40.6677 121.988C40.6677 121.988 48.6763 123.858 53.0575 123.166C53.0575 123.166 53.4778 123.291 56.9985 122.879C56.9985 122.879 43.0143 127.31 37.0675 135.488C37.0675 135.488 31.5461 142.812 36.2181 149.923C36.2181 149.923 35.7933 144.402 41.6334 141.325C41.6334 141.325 46.3069 137.394 63.1905 139.411C63.1905 139.411 61.2789 129.54 63.9332 121.679C63.9332 121.679 64.6767 120.619 63.1905 119.029C63.1905 119.029 60.2167 116.261 59.2613 113.501Z" fill="#FFD615"/>
<path d="M117.349 38.1523L115.051 38.414L107.117 39.3183L105.409 39.5124L95.1127 40.6855L93.4048 40.8811L94.1653 41.6704C92.9684 41.1178 91.8201 40.8581 90.4561 40.8581C89.842 40.8581 89.1575 40.9036 88.2364 41.0091C85.4327 41.328 82.6868 42.889 80.506 45.4026C78.4156 47.812 77.0625 50.9081 76.7925 53.8963C76.5137 56.9864 77.4452 59.9526 79.3472 62.0338C80.9666 63.8064 83.1421 64.7826 85.4717 64.7826C85.7919 64.7826 86.1173 64.7635 86.4407 64.7266C89.0968 64.4245 90.9869 63.9445 93.3674 62.2768L93.6909 62.0496L93.7268 61.6572L94.2817 55.5054L94.5017 53.0627L92.8182 54.8455L88.8847 59.0104L88.8773 59.0176L88.8714 59.0234C88.084 59.8924 87.3945 60.2899 86.4878 60.3934C86.3672 60.4066 86.2514 60.4136 86.1427 60.4136C85.4947 60.4136 85.1968 60.1691 85.0285 59.9851C83.993 58.8517 84.2901 55.5507 84.4879 53.3661C84.8528 49.3197 85.4108 45.6615 88.1899 45.3457C88.3136 45.3312 88.4303 45.3241 88.5364 45.3241C89.0827 45.3241 89.4186 45.5008 89.9755 46.0803L93.229 49.4603L94.52 50.8016L94.6868 48.9485L95.2417 42.7967V42.7909L96.6593 44.2646L95.5451 56.6095C95.3944 58.2754 95.8408 59.7316 96.8361 60.8204C98.085 62.1874 100.148 62.941 102.643 62.941C103.119 62.941 103.606 62.9122 104.095 62.8562C107.606 62.4562 111.635 59.3682 112.023 55.0772L113.145 42.6374L115.768 39.8396L117.349 38.1533L117.349 38.1523ZM106.53 40.6783L106.601 40.7502L108.664 42.8966L107.55 55.2408C107.412 56.7736 106.148 58.1517 104.732 58.3131C104.633 58.3244 104.536 58.3303 104.44 58.3303C103.869 58.3303 103.367 58.1264 103.027 57.7553C102.663 57.3572 102.503 56.8031 102.561 56.1552L103.684 43.7153L106.308 40.9176L106.53 40.6783ZM81.3681 42.2526L78.9441 42.5286L61.6807 44.4947L59.9727 44.6902L61.1645 45.928L63.2276 48.0731L61.8747 63.0591L59.2524 65.8568L57.671 67.5432L59.9684 67.2815L78.3676 65.1853L80.2639 64.9697L78.8349 63.7045C78.8173 63.6894 77.0108 62.0654 76.1939 59.8645L75.7166 58.5792L74.7778 59.5798L72.9692 61.5063L68.9495 61.9649L69.4584 56.3264L71.4352 56.1007L73.4408 58.2198L74.7361 59.587L74.9043 57.7122L75.6304 49.6668L75.6548 49.4109L76.0933 49.8681L76.6036 48.705C77.9148 45.7154 79.6288 43.9898 79.6458 43.9722L81.3739 42.2513L81.3681 42.2526ZM73.7282 47.4167L74.7029 48.4303L74.1595 49.0096L71.5875 51.7541L69.8465 51.9525L70.2203 47.8149L73.7282 47.4167ZM99.1806 67.952C98.3795 67.9395 97.9054 67.9664 97.9054 67.9664C97.9054 67.9664 97.4822 67.9667 93.5709 68.3905C89.6589 68.815 79.8568 69.6629 79.8568 69.6629C75.0965 70.2751 72.1279 73.7631 72.1279 73.7631C70.8086 75.2243 68.6876 77.0625 68.6876 77.0625C68.2631 77.5335 67.9328 77.5326 67.9328 77.5326C65.8123 77.3914 64.9165 78.2874 64.9165 78.2874C60.1098 81.633 59.5453 85.5922 59.5453 85.5922C58.7912 89.7867 62.0426 93.3668 62.0426 93.3668C62.3723 93.7441 62.3258 94.0267 62.3258 94.0267C61.2891 100.011 62.4667 103.451 62.4667 103.451C61.4771 104.582 59.5914 107.033 59.5914 107.033C58.7902 108.023 58.6972 108.966 58.6972 108.966C58.5531 110.28 58.5386 111.286 58.5764 112.067C57.9048 112.019 53.0751 111.777 46.6481 114.465C46.6481 114.465 44.7478 115.291 42.0476 116.243C40.2508 115.461 37.3809 112.303 37.3809 112.303C37.3809 112.303 36.1288 113.427 35.397 114.225C34.5543 114.125 32.7474 113.967 31.7137 114.285C31.7137 114.285 25.661 110.144 19.6087 115.135C19.6087 115.135 16.7813 117.541 16.6356 120.868C16.6356 120.868 16.5165 121.735 16.742 122.461C16.742 122.461 18.1215 125.434 20.3519 126.708C20.3519 126.708 17.0593 129.15 17.1661 131.805C17.1661 131.805 16.8477 134.354 18.2286 135.203C18.2286 135.203 20.2463 136.159 21.0952 136.69C21.0952 136.69 21.7324 138.494 23.2187 139.556C23.2187 139.556 25.3434 140.937 29.6969 142.423C29.6969 142.423 30.6516 142.53 31.5012 141.999C31.5012 141.999 32.3276 141.33 33.6375 140.57C32.6276 143.896 32.6221 147.569 34.9602 151.033C34.9602 151.033 36.2128 152.793 38.4796 153.798C38.4796 153.798 37.0873 147.548 39.5161 144.796C39.5161 144.796 42.2847 140.554 52.6089 140.536C52.6089 140.536 60.3408 140.414 63.3411 142.139C63.4597 142.663 63.551 143.039 63.551 143.039C63.7865 143.652 63.3627 144.5 63.3627 144.5C62.4673 145.961 61.4779 148.317 61.4779 148.317C60.865 149.636 61.6662 151.097 61.6662 151.097C62.7707 153.409 64.0716 154.999 65.039 155.987C58.1763 158.128 51.5634 160.142 47.5098 161.037C47.5098 161.037 36.6444 164.249 31.8782 159.739C31.8782 159.739 31.2552 158.529 29.762 159.151C29.762 159.151 26.8511 159.9 23.6864 164.68C23.6864 164.68 21.3501 164.655 19.497 165.839C19.497 165.839 14.2888 169.536 16.1243 176.705C16.1243 176.705 17.7248 179.483 22.0374 180.025C22.0374 180.025 21.6851 186.464 24.3607 187.837C24.3607 187.837 25.8145 189.04 29.243 188.1C29.243 188.1 30.5087 188.891 31.2873 188.901C31.2873 188.901 34.6144 189.078 36.4586 188.672C36.4586 188.672 39.2932 188.419 40.809 185.674C40.809 185.674 43.4855 180.251 43.775 179.618C43.775 179.618 45.5776 176.45 48.8485 175.069C48.8485 175.069 59.3687 169.952 84.3559 161.333C84.6596 161.59 85.1811 162.031 85.1811 162.031C86.5952 163.303 88.7164 163.303 88.7164 163.303C89.4705 163.303 93.3348 163.351 94.5604 163.398C95.7855 163.445 97.0117 162.596 97.0117 162.596C97.7187 162.454 101.77 159.768 101.77 159.768C102.17 159.481 103.122 158.899 104.256 158.222C135.009 168.801 148.804 175.59 148.804 175.59C152.061 177.005 153.83 180.19 153.83 180.19C154.113 180.827 156.733 186.279 156.733 186.279C158.219 189.04 161.052 189.322 161.052 189.322C162.891 189.747 166.219 189.605 166.219 189.605C166.998 189.605 168.272 188.828 168.272 188.828C171.689 189.804 173.155 188.615 173.155 188.615C175.845 187.271 175.564 180.827 175.564 180.827C179.882 180.332 181.51 177.572 181.51 177.572C183.421 170.422 178.253 166.67 178.253 166.67C176.413 165.466 174.077 165.467 174.077 165.467C170.963 160.653 168.059 159.874 168.059 159.874C166.573 159.237 165.935 160.439 165.935 160.439C161.122 164.899 150.292 161.572 150.292 161.572C141.603 159.556 117.613 151.351 116.744 151.054C117.55 150.601 119.584 149.448 119.584 149.448C119.835 149.297 120.065 149.139 120.279 148.978L132.736 145.043C151.105 139.628 154.503 139.308 154.503 139.308C160.556 137.928 166.291 142.707 166.291 142.707C167.14 143.238 168.095 143.133 168.095 143.133C172.449 141.646 174.572 140.264 174.572 140.264C176.058 139.203 176.697 137.398 176.697 137.398C177.546 136.866 179.563 135.911 179.563 135.911C180.943 135.062 180.624 132.514 180.624 132.514C180.73 129.859 177.44 127.417 177.44 127.417C179.67 126.143 181.05 123.169 181.05 123.169C181.475 122.001 181.156 121.576 181.156 121.576C180.626 118.497 178.182 115.843 178.182 115.843C172.129 110.852 166.077 114.993 166.077 114.993C164.697 114.568 161.936 114.993 161.936 114.993C159.813 115.311 157.689 119.24 157.689 119.24C156.628 121.151 153.903 123.346 153.903 123.346C144.039 129.669 126.177 135.585 122.58 136.732C122.578 136.728 122.554 136.676 122.554 136.676C121.847 135.262 121.234 132.954 121.234 132.954C120.383 129.422 120.273 126.906 120.408 125.201C121.599 126.271 123.453 127.673 125.759 128.477C125.759 128.477 125.758 128.666 127.36 128.666C127.36 128.666 131.319 128.383 133.393 127.817C133.393 127.817 134.335 127.535 135.089 126.876C135.089 126.876 138.86 123.104 139.237 121.597C139.237 121.597 139.613 120.749 139.707 119.712C139.707 119.712 140.085 115.848 139.802 114.151C139.802 114.151 139.708 113.397 139.425 112.266C139.425 112.266 137.323 103.945 128.741 103.34C128.859 101.255 130.232 90.9725 122.79 80.314C118.677 74.4253 111.242 70.8884 111.242 70.8884C106.93 68.3792 101.584 67.9897 99.1806 67.952ZM100.592 70.2221C103.51 70.2132 105.964 70.9352 105.964 70.9352C126.464 77.6741 125.993 94.7344 125.993 94.7344C125.996 94.7418 125.997 94.7433 125.999 94.7502C125.916 94.6492 125.839 94.5532 125.663 94.3563C123.589 91.3404 120.009 89.0795 119.16 87.4771C118.218 84.6495 116.285 82.622 116.285 82.622C113.74 79.6532 111.053 78.4758 111.053 78.4758C108.32 76.3076 101.394 77.4392 101.394 77.4392C100.074 77.7218 96.8692 77.2969 96.8692 77.2969C89.8 76.9202 85.4164 77.4392 85.4164 77.4392C77.5307 78.1777 73.7928 80.1881 73.7928 80.1881C72.4101 79.1828 71.044 78.5707 71.044 78.5707C72.2534 76.8583 73.3989 75.2712 73.3989 75.2712C76.8393 71.3599 83.484 71.5017 83.484 71.5017C91.6369 70.8417 99.3202 70.2753 99.3202 70.2753C99.7502 70.24 100.176 70.2234 100.592 70.2221ZM106.017 79.1825C106.724 79.1354 109.269 79.6526 109.269 79.6526C110.259 79.8881 111.013 80.4548 111.013 80.4548C113.275 81.9625 115.255 84.6485 115.255 84.6485C115.773 85.0724 116.009 86.0632 116.009 86.0632C116.48 87.5709 116.668 88.513 116.668 88.513C116.682 88.5859 116.75 88.709 116.863 88.871C116.863 88.871 118.552 90.3524 119.543 91.4343C120.899 92.9131 123.124 95.0161 125.009 98.7391C125.889 100.477 125.952 102.132 125.952 102.132C125.952 102.525 125.903 103.048 125.862 103.446C125.613 103.553 123.866 104.331 123.691 105.384C123.691 105.384 122.653 106.893 123.973 108.872C123.973 108.872 125.48 111.321 127.177 113.018C127.177 113.018 127.271 115.28 126.894 116.034C126.894 116.034 124.725 118.869 120.547 120.774C119.542 120.722 117.693 120.26 114.516 118.264C114.516 118.264 115.144 113.867 113.007 110.725C113.007 110.725 113.008 113.992 112.882 114.746C112.757 115.5 112.882 115.627 112.379 116.254C112.379 116.254 110.368 118.893 105.844 120.527C105.844 120.527 104.839 120.903 105.217 121.909C105.217 121.909 106.723 124.424 106.723 126.183C106.723 126.183 106.724 128.067 104.965 127.816C104.965 127.816 86.6166 124.548 74.929 126.118C74.929 126.118 73.9243 126.12 73.6725 126.811C73.6725 126.811 73.61 127.188 73.9874 127.251C73.9874 127.251 77.3802 127.313 77.9453 127.313C77.9453 127.313 77.6002 130.109 77.192 131.272C77.192 131.272 77.1925 131.649 76.7837 131.681C76.7837 131.681 73.7048 131.523 72.4477 131.586C72.4477 131.586 72.0079 131.681 71.9144 131.336C71.9144 131.336 71.2224 129.827 71.1596 126.558C71.1596 126.558 70.3437 126.812 69.9663 127.063C69.9663 127.063 69.8403 127.156 69.8412 127.376C69.8412 127.376 69.2752 132.026 69.7147 137.555C69.7147 137.555 69.7772 138.435 70.343 138.435C70.343 138.435 79.0148 138.372 90.6546 140.351C90.6546 140.351 97.7226 141.577 99.7018 141.718C99.7018 141.718 100.818 141.922 101.117 141.859C101.117 141.859 101.918 141.907 103.144 141.451C103.144 141.451 106.975 140.006 108.043 139.755C108.043 139.755 110.369 138.938 110.494 137.367C110.494 137.367 111.185 132.78 111.123 126.496C111.123 126.496 110.997 126.119 111.374 125.805C111.374 125.805 113.851 123.659 117.98 123.744C117.754 127.744 118.013 131.454 118.035 131.633C118.412 134.743 118.788 135.638 118.788 135.638C119.731 137.429 120.58 139.739 120.58 139.739C121.004 140.822 120.863 141.482 120.863 141.482C120.25 144.075 119.071 145.959 119.071 145.959C118.412 147.279 115.631 149.069 115.631 149.069C113.133 150.719 105.593 154.442 105.593 154.442C104.604 154.818 102.86 155.856 102.86 155.856C103.661 152.84 103.756 150.765 103.756 150.765C100.315 157.269 95.3673 160.286 95.3673 160.286C94.519 160.899 93.4351 160.663 93.4351 160.663C88.2987 160.097 87.6384 159.626 87.6384 159.626C86.8372 159.391 86.5084 159.155 86.5084 159.155C85.4717 158.637 81.1818 155.433 81.1818 155.433C80.2864 154.82 79.392 154.396 79.392 154.396C78.7998 153.786 73.5953 154.678 73.5953 154.678C72.9353 154.961 68.7403 155.244 68.7403 155.244C67.6093 155.291 66.9504 154.396 66.9504 154.396C64.4054 151.804 63.5101 149.495 63.5101 149.495C62.9914 148.458 63.6984 147.091 63.6984 147.091C64.3583 145.725 66.6672 143.274 66.6672 143.274C66.3846 142.944 66.1971 142.472 66.1971 142.472C62.6154 132.764 65.254 123.009 65.254 123.009C65.5366 121.69 67.1862 119.475 67.1862 119.475C67.4217 119.145 66.7147 118.768 66.7147 118.768C63.651 116.789 61.0589 114.198 61.0589 114.198C60.5879 113.443 60.6822 112.878 60.6822 112.878C60.4932 111.794 60.5887 109.955 60.5887 109.955C60.5417 109.578 60.7771 109.249 60.7771 109.249C61.437 108.024 63.1334 106.515 63.1334 106.515C63.8876 105.95 64.4533 106.657 64.4533 106.657C68.8361 109.344 71.3325 110.002 71.3325 110.002C72.6053 110.521 73.3122 109.862 73.3122 109.862C78.5899 106.327 79.9571 102.745 79.9571 102.745C81.8892 100.436 82.8785 93.6978 82.8785 93.6978C83.4442 91.0586 85.7538 88.9851 85.7538 88.9851C96.8282 80.6909 103.473 79.4646 103.473 79.4646C104.274 79.1349 106.017 79.1825 106.017 79.1825ZM67.6606 79.2602C68.7653 79.3246 69.7784 79.7792 69.7784 79.7792C71.286 80.2815 74.8677 82.4101 74.8677 82.4101L75.8094 81.9155C79.9091 79.9363 85.3771 79.5592 85.3771 79.5592C87.8272 79.3231 90.0423 79.2759 90.0423 79.2759C91.8326 79.2759 95.5084 79.7001 95.5084 79.7001C92.4925 80.831 83.491 86.9574 83.491 86.9574C82.1717 87.758 81.3704 89.2663 81.3704 89.2663C81.1835 89.6859 80.571 91.1507 80.571 91.1507C79.5808 93.2241 76.9423 93.1764 76.9423 93.1764C76.565 93.2706 76.3299 93.0815 76.3299 93.0815C75.0132 92.2684 71.9933 88.7011 70.9818 87.4358C68.6013 84.4576 67.6579 85.1643 67.6579 85.1643C66.6212 85.4475 65.3964 87.1914 65.3964 87.1914C64.3126 88.5578 63.2284 91.1034 63.2284 91.1034C62.9408 90.7882 62.0238 89.7045 61.3594 88.448C60.4947 86.8148 61.1553 85.8243 61.1553 85.8243C63.1351 81.5833 65.773 79.7458 65.773 79.7458C66.3033 79.3217 66.9994 79.2198 67.6621 79.2585L67.6606 79.2602ZM106.442 86.1092C105.453 86.1092 104.322 86.91 104.322 86.91C102.578 87.8054 98.2891 91.246 98.2891 91.246C96.1215 93.1311 95.3203 93.7447 95.3203 93.7447C92.7283 94.4982 90.0426 93.8841 90.0426 93.8841C89.8072 93.7906 89.8069 93.7447 89.8069 93.7447L88.8177 91.7176C87.8752 92.3304 86.7906 93.6023 86.7906 93.6023C86.4609 93.9797 86.4139 94.6389 86.4139 94.6389C86.2255 95.4872 86.0836 97.1835 86.1307 97.3719C86.1922 97.618 88.1578 99.1172 88.1578 99.1172C89.2887 100.107 90.9842 101.755 90.9842 101.755C93.6234 104.253 96.0276 106.656 96.0276 106.656C96.405 106.327 98.1482 105.337 98.1482 105.337C98.8553 104.96 100.033 105.101 100.033 105.101C102.719 105.242 107.29 105.196 107.29 105.196C109.223 105.054 110.025 103.545 110.025 103.545C111.956 99.7281 111.862 95.7714 111.862 95.7714C112.569 95.3457 114.232 95.5744 114.124 95.3459C110.165 87.0045 106.442 86.1092 106.442 86.1092ZM126.565 105.101C126.754 105.077 126.895 105.101 126.895 105.101C136.602 104.913 138.111 113.302 138.111 113.302C139.43 118.297 137.545 121.69 137.545 121.69C136.225 124.424 133.022 126.215 133.022 126.215C128.026 127.534 125.858 126.78 125.858 126.78C122.653 125.366 122.371 124.612 122.371 124.612C121.995 123.952 122.277 123.197 122.277 123.197C122.182 122.82 122.56 122.538 122.56 122.538C122.842 122.35 123.501 122.349 123.501 122.349C125.669 124.517 128.969 124.233 128.969 124.233C132.927 123.479 134.53 121.219 134.53 121.219C135.472 120.558 135.472 118.296 135.472 118.296C135.472 113.395 133.493 111.605 133.493 111.605C131.326 108.401 126.801 108.589 126.801 108.589C126.047 108.589 126.046 108.212 126.046 108.212C125.575 107.646 125.481 107.081 125.481 107.081C125.199 106.232 125.953 105.384 125.953 105.384C126.141 105.196 126.377 105.125 126.565 105.101ZM81.3475 105.596C81.1706 105.56 80.8993 105.667 80.5222 106.232C80.5222 106.232 79.6741 107.694 79.109 109.013C79.109 109.013 78.4957 110.662 76.6578 112.358C76.6578 112.358 75.0559 114.009 74.8204 114.904C74.8204 114.904 74.4432 115.941 75.1496 116.93C75.1496 116.93 76.092 118.297 77.1294 118.438C77.1294 118.438 77.9308 118.533 78.4966 117.778C78.4966 117.778 80.1463 116.129 80.712 116.27C80.712 116.27 81.135 116.27 81.6537 116.835C81.6537 116.835 83.8217 119.71 86.1306 119.475C86.1306 119.475 87.1196 119.57 87.9679 118.722C87.9679 118.722 89.0998 117.683 89.43 117.448C89.43 117.448 90.5608 116.835 89.8067 115.987C89.8067 115.987 86.6016 112.407 85.1875 106.28C85.1875 106.28 85.0474 105.76 84.7648 105.949C84.7648 105.949 84.151 106.185 83.491 106.656C83.491 106.656 82.7851 107.174 82.3135 106.797C82.3135 106.797 82.0119 106.742 81.8894 106.373C81.654 105.666 81.6077 105.808 81.6077 105.808C81.6077 105.808 81.5243 105.631 81.3475 105.596ZM128.874 111.51C132.172 112.547 132.927 114.339 133.116 114.621C133.377 115.014 133.493 115.658 133.493 115.658C133.681 117.072 133.493 119.051 133.493 119.051C133.399 120.465 132.172 121.124 132.172 121.124C127.742 123.763 125.858 121.595 125.858 121.595C128.402 119.616 129.157 117.448 129.157 117.448C130.099 115.186 128.874 111.51 128.874 111.51ZM56.6996 114.012C57.4659 114.003 58.2273 114.052 58.9337 114.184C58.9339 114.185 58.9381 114.197 58.9381 114.197C59.6451 116.082 63.1807 119.946 63.1807 119.946C63.7929 120.512 63.0858 122.822 63.0858 122.822C61.5751 128.517 62.1082 134.858 62.7379 138.896C59.3797 138.491 49.8571 137.544 44.8818 139.322C44.8818 139.322 36.3248 141.751 35.8618 148.377C35.8618 148.377 32.0763 142.237 38.8623 133.818C38.8623 133.818 44.6081 126.142 58.9376 122.692C58.9376 122.692 57.8186 122.389 55.536 122.788C55.536 122.788 48.5743 123.728 38.8791 121.148C38.8791 121.148 41.6588 123.664 48.0383 124.458C48.0383 124.458 45.0586 126.336 43.7626 127.157C43.7626 127.157 34.7154 125.774 30.1906 120.999C30.1906 120.999 34.3369 120.622 41.6258 118.235C41.6258 118.235 48.1614 115.595 50.5493 114.967C50.5493 114.967 53.6586 114.048 56.6983 114.012L56.6996 114.012ZM26.2469 114.455C27.0807 114.445 27.9582 114.61 28.8534 115.028C28.8534 115.028 30.3078 115.912 30.6619 116.266C30.6619 116.266 32.3615 115.487 34.374 115.983C34.374 115.983 35.971 116.055 37.3644 117.649C37.3644 117.649 29.6531 119.947 26.5476 119.239C26.5476 119.239 31.0415 124.815 36.9146 127.704C38.2745 128.384 39.6939 128.912 41.1256 129.168C41.1256 129.168 37.494 132.089 34.1673 137.993C34.0272 138.242 34.1143 138.091 33.8481 138.212C33.0689 138.565 31.771 138.96 30.3387 139.875C30.3387 139.875 29.702 140.405 28.9586 140.193C28.9586 140.193 25.1368 139.343 24.3939 137.857C24.3939 137.857 23.862 137.539 23.862 136.796C23.862 136.796 23.5434 134.885 24.6053 131.699C24.6053 131.699 22.9065 132.124 21.7386 134.353C21.7386 134.353 19.7205 134.778 19.296 132.76C19.296 132.76 18.7652 130.955 20.0393 129.681C20.0393 129.681 22.4822 128.194 23.4379 126.284C23.4379 126.284 19.5083 123.735 19.0832 121.718C19.0832 121.718 18.3416 120.337 19.8279 117.788C19.8279 117.788 22.6336 114.494 26.2469 114.455ZM171.749 115.044C175.311 114.992 177.974 118.496 177.974 118.496C179.461 121.044 178.718 122.425 178.718 122.425C178.293 124.442 174.364 126.991 174.364 126.991C175.32 128.902 177.762 130.39 177.762 130.39C179.036 131.664 178.505 133.469 178.505 133.469C178.08 135.487 176.062 135.061 176.062 135.061C174.894 132.831 173.196 132.407 173.196 132.407C174.258 135.592 173.939 137.503 173.939 137.503C173.939 138.246 173.408 138.566 173.408 138.566C172.665 140.052 168.842 140.902 168.842 140.902C168.099 141.114 167.462 140.583 167.462 140.583C159.816 135.698 156.313 136.866 156.313 136.866C151.641 136.654 139.323 141.007 139.323 141.007C137.913 141.536 126.604 144.854 122.663 146.037L122.811 145.679C122.944 145.493 123.175 144.55 123.373 143.654C123.374 143.651 123.374 143.651 123.375 143.649C123.603 142.688 123.736 141.907 123.736 141.907C123.79 141.528 123.783 141.135 123.753 140.739C123.683 139.321 123.289 138.406 123.289 138.406C143.234 131.478 152.915 125.929 152.915 125.929C158.754 122.106 159.074 120.302 159.074 120.302C162.047 116.16 163.427 116.692 163.427 116.692C166.188 115.736 169.692 119.452 169.692 119.452C169.268 117.328 168.736 116.585 168.736 116.585C168.418 116.055 169.162 115.735 169.162 115.735C170.058 115.258 170.927 115.056 171.749 115.044ZM169.347 124.051C169.331 124.069 169.32 124.155 169.315 124.351C169.315 124.351 168.29 127.999 166.942 129.136C166.942 129.136 166.183 130.125 164.288 130.089C164.288 130.089 166.039 131.399 166.851 130.883C166.851 130.883 167.432 130.607 167.757 130.335C167.757 130.335 168.288 129.931 168.497 129.748C168.497 129.748 168.718 129.564 168.868 129.331C168.868 129.331 169.057 129.126 169.233 128.595C169.233 128.595 169.778 127.846 169.472 124.548C169.472 124.548 169.394 123.996 169.347 124.051ZM29.4461 125.158C29.4461 125.158 28.4088 127.084 29.0393 127.81C29.0393 127.81 29.3985 128.343 29.715 128.625C29.715 128.625 30.1928 129.091 30.4051 129.271C30.4051 129.271 30.6197 129.463 30.8709 129.577C30.8709 129.577 31.1023 129.733 31.653 129.829C31.653 129.829 32.4752 130.258 35.6914 129.469C35.6914 129.469 36.643 129.187 35.8624 129.285C35.8624 129.285 32.104 128.808 30.7803 127.642C30.7803 127.642 29.6898 127.038 29.4461 125.158ZM80.7353 127.28C84.2352 127.322 86.1107 127.659 86.1107 127.659C86.1107 129.544 85.4824 131.617 85.4824 131.617C85.3568 131.994 84.9174 131.932 84.9174 131.932C83.4725 131.869 79.7016 131.68 79.7016 131.68C79.4183 131.618 79.3867 131.179 79.3867 131.179C79.1355 129.545 79.1366 127.281 79.1366 127.281C79.7021 127.273 80.2352 127.274 80.7353 127.28ZM87.2077 127.764C91.7259 127.987 94.3328 128.569 94.3328 128.569C94.2135 130.45 93.4558 132.48 93.4558 132.48C93.3064 132.848 92.8721 132.757 92.8721 132.757C91.4342 132.603 87.4938 132.189 87.4938 132.189C87.21 132.152 87.212 131.668 87.212 131.668C87.0649 130.022 87.2077 127.764 87.2077 127.764ZM95.5991 128.664C100.312 129.293 102.188 130.203 102.188 130.203C101.883 131.868 101.121 133.36 101.121 133.36C100.972 133.728 100.538 133.637 100.538 133.637C99.0989 133.483 95.7242 133.069 95.7242 133.069C95.3518 132.983 95.4424 132.547 95.4424 132.547C95.4097 130.769 95.5991 128.664 95.5991 128.664ZM74.0214 133.102C75.6825 133.102 77.7852 133.314 77.7852 133.314C77.9736 133.376 77.9434 133.69 77.9434 133.69C78.1004 134.507 77.8801 136.738 77.8801 136.738C77.8173 137.053 77.6285 137.021 77.6285 137.021C76.3092 136.77 72.1625 136.456 72.1625 136.456C71.8479 136.52 71.9425 136.11 71.9425 136.11C71.7849 134.821 72.1927 133.502 72.1927 133.502C72.2555 133.125 72.6024 133.189 72.6024 133.189C72.9638 133.126 73.4677 133.102 74.0214 133.102ZM80.0165 133.377C80.0165 133.377 83.565 133.409 84.4761 133.629C84.4761 133.629 84.7915 133.628 84.8542 134.068C84.8542 134.068 85.2587 135.947 85.4566 138.33C83.8789 138.079 81.743 137.743 78.9468 137.273C78.9468 137.273 79.3239 134.697 79.5751 133.817C79.5751 133.817 79.6077 133.377 80.0165 133.377ZM87.6188 134.005C87.6188 134.005 91.5773 134.193 92.3315 134.445C92.3315 134.445 92.5826 134.382 92.7082 134.822C92.7082 134.822 93.0105 136.356 93.1999 139.499C91.6268 139.304 89.8537 139.057 87.6504 138.686C87.6504 138.686 86.575 138.511 86.3838 138.481C86.4176 138.296 86.8782 135.779 87.2421 134.445C87.2421 134.445 87.3048 134.131 87.6188 134.005ZM95.6627 135.01C95.6627 135.01 99.4315 135.514 100.374 135.828C100.374 135.828 100.689 135.89 100.752 136.267C100.752 136.267 101.223 138.576 101.349 139.833C101.349 139.833 99.9575 140.272 94.2509 139.631C94.3019 139.382 94.8042 136.942 95.2228 135.388C95.2228 135.388 95.286 135.073 95.6627 135.01ZM108.864 142.355C108.743 142.343 108.528 142.393 108.166 142.551C108.166 142.551 104.899 143.933 103.957 144.374C103.957 144.374 102.95 145.191 100.374 144.75C100.374 144.75 94.7202 143.745 91.7039 143.431C91.7039 143.431 90.7609 143.494 91.6406 143.87C91.6406 143.87 98.8042 146.384 99.9982 146.887C99.9982 146.887 102.197 147.83 103.768 147.202C103.768 147.202 106.658 145.19 108.732 142.991C108.732 142.991 109.226 142.39 108.864 142.355ZM116.879 153.355L145.763 162.42C152.771 164.403 157.019 164.899 157.019 164.899C163.248 165.464 166.93 162.563 166.93 162.563C167.567 161.926 168.133 162.42 168.133 162.42C171.815 164.474 172.806 168.013 172.806 168.013C173.939 167.942 175.92 168.296 175.92 168.296C178.256 168.437 179.389 171.411 179.389 171.411C180.735 174.738 179.317 177.004 179.317 177.004C178.326 178.986 173.372 179.127 173.372 179.127C172.947 180.897 173.3 181.888 173.3 181.888C173.513 185.498 172.38 186.347 172.38 186.347C171.602 187.409 169.761 186.702 169.761 186.702C169.902 184.72 168.911 183.021 168.911 183.021C168.628 185.852 166.858 187.127 166.858 187.127C166.292 187.905 165.16 187.693 165.16 187.693C162.329 187.551 159.425 186.56 159.425 186.56C158.859 186.206 157.161 182.313 157.161 182.313C156.099 178.915 154.188 176.295 154.188 176.295C153.055 174.597 147.392 172.189 147.392 172.189C142.917 170.056 123.055 162.928 112.769 159.272C112.607 155.191 115.746 153.743 116.879 153.355ZM66.8582 157.452C68.1473 158.008 70.2453 157.788 70.2453 157.788C70.2453 157.788 71.55 157.744 72.7713 157.705C74.03 157.919 77.1408 158.703 78.4961 161.401C67.8397 165.095 53.9755 169.982 50.3032 171.685C50.3032 171.685 44.6145 174.033 43.4642 175.719C43.4642 175.719 41.5254 178.318 40.4278 181.704C40.4278 181.704 38.6876 185.579 38.1175 185.927C38.1175 185.927 35.2057 186.887 32.3725 186.999C32.3725 186.999 31.2372 187.2 30.6789 186.415C30.6789 186.415 28.9242 185.122 28.6705 182.288C28.6705 182.288 27.6615 183.976 27.7821 185.96C27.7821 185.96 25.9343 186.649 25.167 185.579C25.167 185.579 24.0438 184.716 24.2943 181.109C24.2943 181.109 24.6583 180.122 24.2526 178.347C24.2526 178.347 19.2981 178.153 18.328 176.16C18.328 176.16 16.9364 173.882 18.3165 170.569C18.3165 170.569 19.4801 167.608 21.8173 167.491C21.8173 167.491 23.8035 167.158 24.9356 167.24C24.9356 167.24 25.9647 163.711 29.6669 161.698C29.6669 161.698 30.2376 161.208 30.8674 161.851C30.8674 161.851 34.5182 164.794 40.7531 164.293C40.7531 164.293 45.0061 163.842 52.0343 161.933L66.8582 157.452ZM26.5728 171.627C26.4735 171.607 26.8632 172.287 26.8632 172.287C29.3705 176.207 30.6429 176.504 30.6429 176.504C30.7817 176.586 31.297 176.737 31.297 176.737C32.1573 176.972 32.3221 176.991 32.3221 176.991C33.598 177.198 34.1667 177.198 34.1667 177.198C34.6018 177.223 35.2391 177.047 35.2391 177.047C36.5854 176.92 37.3942 173.955 37.3942 173.955C35.3233 175.632 33.6304 175.19 33.6304 175.19C31.1532 175.093 26.8675 171.934 26.8675 171.934C26.6929 171.719 26.6059 171.634 26.5728 171.627ZM171.126 172.382C171.092 172.389 171.004 172.473 170.827 172.686C170.827 172.686 166.509 175.801 164.031 175.871C164.031 175.871 162.331 176.297 160.278 174.598C160.278 174.598 161.057 177.57 162.402 177.712C162.402 177.712 163.283 177.916 163.878 177.901C163.878 177.901 164.817 177.923 165.207 177.904C165.207 177.904 165.61 177.896 165.979 177.772C165.979 177.772 166.366 177.71 167.024 177.28C167.024 177.28 168.278 176.934 170.827 173.041C170.827 173.041 171.225 172.362 171.126 172.382Z" fill="black"/>
<path d="M27.7039 113.514C27.7039 113.514 22.9454 107.413 24.4688 98.2726C24.4688 98.2726 24.659 92.5692 29.9882 85.9036C29.9882 85.9036 38.4783 76.8345 39.2408 75.6913C39.2408 75.6913 43.576 71.1671 43.7644 61.9301C43.7644 61.9301 44.1418 44.2116 44.8959 40.0637C44.8959 40.0637 45.564 27.3331 55.8287 20.2703C55.8287 20.2703 60.4558 16.7866 66.7623 15.181C66.7623 15.181 67.6916 20.7852 70.7214 24.9802C70.7214 24.9802 73.9752 30.4952 79.8778 29.3461C79.8778 29.3461 85.3997 28.7816 87.308 21.0212C87.308 21.0212 88.7817 16.3959 88.474 11.1962C88.474 11.1962 114.478 10.3963 132.559 34.9378C132.559 34.9378 138.23 43.1391 144.003 53.5857C144.003 53.5857 149.252 63.2128 158.133 71.2463C158.133 71.2463 169.064 81.0712 173.671 86.9175C173.671 86.9175 175.906 89.6101 177.552 92.371L177.663 92.5657C180.308 96.985 184.026 105.617 183.346 118.526L179.576 120.055" stroke="black" stroke-width="2.30837" stroke-miterlimit="10"/>
<path d="M176.611 115.699C176.391 105.019 173.256 99.1593 173.256 99.1593C169 88.8467 154.916 77.2837 154.916 77.2837C144.821 68.182 137.385 54.9131 137.385 54.9131C134.573 49.6825 127.856 39.3577 127.856 39.3577C113.619 20.0253 94.9177 18.3056 94.9177 18.3056C93.4282 27.9971 88.8249 32.3962 88.8249 32.3962C81.2088 39.0604 73.2189 35.4429 73.2189 35.4429C65.6299 32.2373 62.5438 24.0215 62.5438 24.0215C50.7443 28.778 50.9357 45.5346 50.9357 45.5346C50.9357 45.5346 50.1188 53.9055 50.363 60.0061C50.9345 74.2871 43.1275 81.3315 43.1275 81.3315C41.223 83.4262 37.2243 87.6151 37.2243 87.6151C30.52 95.4478 30.9652 100.372 30.9652 100.372C30.2368 108.615 36.4978 114.278 36.4978 114.278" stroke="black" stroke-width="5.77011" stroke-miterlimit="10"/>
<path d="M115.16 39.2578L107.225 40.1617L109.551 42.5857L108.403 55.3163C108.234 57.2478 106.636 58.9518 104.833 59.1565C104.708 59.1719 104.575 59.1793 104.45 59.1793C102.779 59.1793 101.557 57.9066 101.727 56.0782L102.875 43.3475L105.694 40.3362L95.2124 41.5294L97.5458 43.9533L96.3975 56.6854C96.0589 60.4328 99.1136 62.0905 102.654 62.0905C103.096 62.0905 103.552 62.064 104.009 62.0118C107.365 61.629 110.854 58.6839 111.185 54.9998L112.334 42.2699L115.16 39.2578ZM90.4646 41.7075C89.8168 41.7075 89.1249 41.7649 88.3373 41.854C82.9145 42.4723 78.1727 48.1446 77.6471 53.9737C77.151 59.47 80.7468 63.9322 85.4798 63.9322C85.7669 63.9322 86.0576 63.916 86.3528 63.8822C88.7937 63.6039 90.5971 63.1865 92.8863 61.5804L93.4457 55.4297L89.5077 59.5937C88.617 60.5801 87.7411 61.1056 86.5913 61.2367C86.4375 61.2543 86.291 61.2624 86.1511 61.2624C82.9617 61.2624 83.3312 56.8179 83.6499 53.2891C83.9819 49.6057 84.4721 44.9132 88.1018 44.4995C88.2563 44.4818 88.4035 44.4737 88.5434 44.4737C89.4194 44.4737 89.9567 44.8285 90.5971 45.4903L93.8506 48.8711L94.4027 42.7196C93.0115 41.9637 91.8411 41.7075 90.4646 41.7075ZM79.0493 43.3725L61.78 45.3386L64.1119 47.7626L62.6986 63.428L59.875 66.4386L78.2742 64.3422C78.2742 64.3422 76.3067 62.6014 75.4006 60.1612L73.3793 62.3165L68.0125 62.9274L68.6779 55.5607L71.7628 55.2103L74.0616 57.6372L74.7881 49.5903L72.0028 52.5633L68.9164 52.9144L69.4456 47.05L74.0572 46.5237L75.8275 48.3654C77.2187 45.1936 79.0493 43.3725 79.0493 43.3725Z" fill="#FFD615"/>
</svg>
