<svg width="200" height="200" viewBox="0 0 200 200" fill="none" xmlns="http://www.w3.org/2000/svg">
<path d="M194.279 37.3606C185.695 40.8994 174.612 42.9322 163.853 42.9322H111.645L108.874 39.898H83.342L80.5712 42.9322H40.5832C19.7421 42.9322 12.401 39.7549 5.60206 37.3003C2.26658 36.2462 0.881193 38.7911 1.15225 40.8391C1.23507 41.4113 1.988 45.0329 4.95454 48.5115C3.93056 49.2644 4.05856 51.2145 4.55549 52.0276C5.05995 52.9537 7.2585 56.5076 11.5126 58.8567C11.1737 59.1729 11.1587 60.5809 11.9869 61.6501C13.4476 63.6905 16.4141 66.9055 20.9844 68.2759C20.8564 70.2485 22.3773 73.9228 25.3062 73.7873L24.0262 77.4917L19.3656 79.6301L9.37424 97.4895L15.9774 110.553C17.0466 109.988 18.7557 109.13 21.0973 108.091C19.8098 110.854 19.1322 113.738 19.1322 116.704C19.1322 137.003 50.7628 153.176 91.8501 155.081C95.3889 159.29 99.9893 162.949 99.9893 162.949C99.9893 162.949 104.59 159.29 108.128 155.081C149.216 153.176 180.846 137.011 180.846 116.704C180.846 114.069 180.312 111.509 179.295 109.032C180.643 109.672 181.682 110.199 182.397 110.583L189.58 96.3677L180.779 79.7129L176.058 77.5369L174.695 73.7572C177.805 73.9831 179.145 70.0603 179.017 68.2834C183.587 66.9131 186.546 63.698 188.014 61.6576C188.639 60.8444 189.023 59.2558 188.443 58.8868C192.743 56.5377 194.889 52.9236 195.446 52.0352C196.289 50.695 195.611 48.7901 195.047 48.5115C198.013 45.0254 198.759 41.4038 198.849 40.8316C199.21 37.4961 196.372 36.5399 194.279 37.3606Z" fill="#CCCCCC"/>
<path d="M196.078 40.3797C196.214 39.5439 195.401 39.958 195.401 39.958C187.563 43.2032 176.231 45.7556 163.846 45.7556H110.403L107.639 42.7213H84.5997L81.8289 45.7556H40.591C19.9908 45.7556 12.3937 42.6912 4.6461 39.958C4.6461 39.958 3.83294 39.5439 3.96093 40.3797C4.10399 41.2154 5.41409 47.2163 11.9194 50.3936C11.9194 50.3936 9.38203 50.7927 7.22865 50.371C7.22865 50.371 6.83712 50.2656 7.05547 50.6722C7.41688 51.3273 10.6168 57.0345 17.8224 58.0208C17.8224 58.0208 16.8963 59.3083 14.3062 59.5568C14.3062 59.5568 14.0728 59.6848 14.2384 59.9107C14.6299 60.4453 18.0106 65.5125 24.2599 66.0696C24.2599 66.0696 22.8896 69.3449 25.0957 71.0089C25.0957 71.0089 25.8034 70.5646 26.6241 70.5646C28.3182 70.5646 28.9205 72.0629 28.273 73.9452L26.338 79.5696L21.4138 81.836L12.6046 97.5646L17.2878 106.818C17.2878 106.818 22.1291 104.145 31.4052 100.968C26.2025 105.696 23.266 111.05 23.266 116.704C23.266 135.121 54.2792 150.217 93.7252 151.685C97.0607 155.563 100.012 158.168 100.012 158.168C100.012 158.168 102.964 155.563 106.292 151.685C145.738 150.217 176.751 135.128 176.751 116.704C176.751 111.404 174.176 106.374 169.568 101.864C177.18 104.627 181.148 106.818 181.148 106.818L186.418 96.3976L178.746 81.8887L173.822 79.6224L171.781 73.9528C170.946 71.6187 172.158 70.5721 173.43 70.5721C174.349 70.5721 174.959 71.0164 174.959 71.0164C177.165 69.3524 175.787 66.0772 175.787 66.0772C182.036 65.52 185.424 60.4452 185.808 59.9182C185.974 59.6998 185.733 59.5643 185.733 59.5643C183.151 59.3158 182.225 58.0284 182.225 58.0284C189.423 57.042 192.63 51.3423 192.984 50.6798C193.202 50.2807 192.811 50.3786 192.811 50.3786C190.665 50.8077 188.12 50.4012 188.12 50.4012C194.625 47.2238 195.943 41.2154 196.078 40.3797Z" fill="#003366"/>
<path d="M15.1038 46.7846C15.0496 46.7966 15.0014 46.8388 15.0195 46.9653C15.0556 47.2303 20.3864 52.7418 30.0299 54.338C30.0299 54.338 24.7654 54.6331 20.2117 53.838C20.2117 53.838 19.9105 53.7477 20.0129 54.0247C20.1274 54.3319 23.4945 57.7894 32.2586 59.4579C32.2586 59.4579 30.7166 60.4277 26.0604 60.4698C26.0604 60.4698 25.7292 60.4698 25.9159 60.7047C26.1267 60.9758 29.7167 62.9695 34.6619 62.5961L34.2644 64.4694H31.1021L34.1319 71.4867L30.0781 82.1602L24.9943 83.9371L20.543 93.0988C20.543 93.0988 28.2229 89.2859 43.4682 85.7381C42.6671 83.3709 42.4502 80.558 43.4682 77.7691C43.4682 77.7691 45.6005 80.6965 51.9853 83.9612C52.3046 83.901 52.6178 83.8408 52.9491 83.7805L55.5873 76.5042L47.8593 77.6125L49.841 72.1975L63.8635 71.5831L69.4352 63.8972L52.672 64.5115L54.6477 57.3316H65.1827L64.4056 60.3494H77.4705L78.9944 50.7119H39.0831C39.0831 50.7119 24.5907 50.5432 15.2243 46.8026C15.2183 46.7966 15.158 46.7725 15.1038 46.7846ZM185.543 47.0978C185.489 47.0857 185.429 47.1038 185.429 47.1038C177.152 50.4167 165.292 50.7058 162.232 50.7058H141.301L143.451 57.3256H146.373L153.679 78.1185L142.138 75.5405L136.753 57.3316H139.632L137.596 50.7119H116.478L118.135 57.3316H121.701L126.062 75.1851C127.308 80.2508 132.332 81.4073 144.572 84.2323L146.541 84.6901C154.089 81.1423 156.534 77.7691 156.534 77.7691C157.733 81.0218 157.227 84.3226 156.088 86.8886L163.497 88.5993C172.508 90.6713 172.779 87.1717 171.171 83.5095L164.106 67.5172C163.521 66.18 164.31 65.4151 165.557 65.4151C166.786 65.4151 167.527 66.162 167.822 66.9269L167.997 66.9691C169.358 64.7163 165.979 62.9093 165.979 62.9093C170.924 63.2828 174.514 61.289 174.737 61.018C174.912 60.7891 174.586 60.783 174.586 60.783C169.936 60.7349 168.388 59.7711 168.388 59.7711C177.152 58.0966 180.519 54.6452 180.64 54.338C180.736 54.0609 180.441 54.1512 180.441 54.1512C175.887 54.9524 170.623 54.6512 170.623 54.6512C180.254 53.061 185.603 47.5435 185.639 47.2845C185.651 47.152 185.609 47.1098 185.543 47.0978ZM86.855 47.2002L69.1762 75.0164L64.4056 75.6308L62.2011 82.3951C65.4658 81.853 72.5132 80.8351 81.2833 80.5399L85.4636 73.0889H104.449L108.557 80.8471C116.514 81.2627 124.483 81.8952 126.995 82.106L124.489 75.0224L119.863 74.6851L104.305 47.2002H86.855ZM95.6432 53.3682L101.582 64.4694H89.1258L95.6432 53.3682ZM176.616 87.2199C174.912 87.2199 173.538 88.5993 173.538 90.3099C173.538 92.0206 174.912 93.3999 176.616 93.3999C178.321 93.3999 179.712 92.0206 179.712 90.3099C179.712 88.6053 178.327 87.2199 176.616 87.2199ZM176.616 87.8825C177.953 87.8825 179.05 88.9667 179.05 90.3099C179.05 91.6531 177.959 92.7374 176.616 92.7374C175.279 92.7374 174.189 91.6531 174.189 90.3099C174.195 88.9667 175.279 87.8825 176.616 87.8825ZM175.351 88.5451V92.0748H176.014V90.6412H176.49L177.158 92.0748H177.893L177.188 90.581C177.598 90.4364 177.893 90.0389 177.893 89.5931C177.893 89.0149 177.423 88.5451 176.839 88.5451H175.351ZM176.014 89.2137H176.845C177.062 89.2137 177.231 89.3823 177.231 89.5992C177.231 89.81 177.062 89.9847 176.845 89.9847H176.014V89.2137ZM47.1726 100.104C40.7877 104.881 37.0833 110.585 37.0833 116.711C37.0833 131.938 59.9905 144.551 89.9691 146.888C88.2042 144.394 86.6201 141.672 85.584 138.919L78.7715 141.256L81.47 136.118C63.1528 140.027 39.2518 128.884 40.8781 115.512L45.4198 117.548C45.4198 117.548 42.5466 109.537 48.7869 101.369C48.2267 100.953 47.6906 100.526 47.1726 100.104ZM152.848 100.104C152.33 100.526 151.794 100.953 151.227 101.375C157.462 109.543 154.595 117.554 154.595 117.554L159.13 115.518C160.757 128.896 136.862 140.033 118.544 136.118L121.231 141.256L114.418 138.919C113.388 141.66 111.798 144.388 110.039 146.888C140.018 144.551 162.919 131.938 162.919 116.705C162.925 110.585 159.227 104.881 152.848 100.104ZM71.965 114.331C71.1639 115.018 70.6821 115.922 70.6821 116.915C70.6821 119.066 72.9589 120.807 75.7779 120.807C77.7656 120.807 79.4883 119.939 80.3256 118.668L71.965 114.331ZM128.037 114.331L119.689 118.668C120.526 119.939 122.243 120.807 124.236 120.807C127.049 120.807 129.332 119.066 129.332 116.915C129.332 115.928 128.844 115.024 128.037 114.331Z" fill="white"/>
<path d="M57.1481 106.461C55.6061 108.605 54.7207 111.063 54.7207 113.689C54.7207 121.977 63.533 128.699 74.3932 128.699C80.4649 128.699 85.892 126.591 89.5 123.302L85.4402 121.279C82.9766 124.116 78.7482 125.983 73.9535 125.983C66.3459 125.983 60.1779 121.279 60.1779 115.472C60.1779 113.219 61.1055 111.135 62.6897 109.424L57.1481 106.461ZM142.862 106.461L137.32 109.418C138.898 111.123 139.832 113.213 139.832 115.466C139.832 121.273 133.67 125.977 126.05 125.977C121.256 125.977 117.033 124.11 114.564 121.279L110.504 123.296C114.118 126.591 119.539 128.693 125.617 128.693C136.477 128.693 145.289 121.971 145.289 113.683C145.295 111.069 144.41 108.605 142.862 106.461ZM100.005 121.351V148.848C96.5113 143.728 94.1742 138.385 94.1742 133.759C94.1742 130.434 95.2524 127.501 96.8125 125.013C94.2043 127.645 91.7949 131.404 91.7949 136.187C91.7949 141.999 95.8367 148.125 99.9989 152.769C104.348 148.113 108.612 142.005 108.612 136.187C108.618 128.266 100.005 121.351 100.005 121.351Z" fill="#CCCCCC"/>
<path d="M151.13 86.1289C151.13 86.1289 145.221 92.4354 131.59 96.5193C124.802 98.5492 101.37 106.47 101.732 119.469C105.4 114.752 114.923 108.548 130.536 103.235C153.497 95.4231 151.13 86.1289 151.13 86.1289ZM48.8821 86.1349C48.8821 86.1349 46.5089 95.4291 69.4702 103.235C85.089 108.548 94.6121 114.746 98.2803 119.469C98.6418 106.476 75.2046 98.5492 68.4222 96.5254C54.7851 92.4354 48.8821 86.1349 48.8821 86.1349Z" fill="#CC0000"/>
</svg>
