<svg width="200" height="200" viewBox="0 0 200 200" fill="none" xmlns="http://www.w3.org/2000/svg">
<g clip-path="url(#clip0_107_20207)">
<path d="M15.2874 35.0922V71.7034H22.9532V119.417H15.2874V155.764H67.3626V137.524L75.9536 151.006L83.4874 138.317V155.764H136.752V120.607H129.086V103.689C129.086 103.689 132.919 102.631 134.505 99.5914C134.505 99.5914 138.867 96.0228 138.338 92.9829C138.338 92.9829 140.585 90.4716 139.66 87.5639C139.66 87.5639 141.907 87.0352 140.189 82.6736C140.189 82.6736 140.717 77.7833 136.356 76.065C136.356 76.065 141.246 79.3693 150.234 77.3867C150.234 77.3867 154.859 84.2596 160.543 86.3743C160.543 86.3743 166.226 91.529 167.68 91.7933C167.68 91.7933 166.094 98.9305 174.289 101.045C174.289 101.045 177.593 102.631 181.426 98.534C181.426 98.534 189.62 100.781 188.563 90.3395C188.563 90.3395 190.81 86.7709 188.299 83.4666C188.299 83.4666 189.885 78.0476 184.994 74.2147C184.994 74.2147 180.368 69.06 174.289 65.4914C174.289 65.4914 173.231 59.8081 170.72 56.5038C170.72 56.5038 166.094 51.8778 164.772 50.8205C164.772 50.8205 166.623 47.5162 163.715 42.0972C163.715 42.0972 165.962 36.9426 162.129 31.7879C162.129 31.7879 164.64 26.6332 162.129 22.2716C162.129 22.2716 158.825 20.6856 152.348 20.0247C152.348 20.0247 144.418 16.1918 139.263 16.7205C139.263 16.7205 129.747 8.52588 111.64 9.05456C111.64 9.05456 100.141 6.27898 87.849 13.6805C87.849 13.6805 73.9711 19.3639 53.749 37.2069L50.9734 34.4313L46.6118 34.167C46.6118 34.167 42.7788 27.0298 32.9982 20.8177C32.9982 20.8177 26.1253 17.2491 31.4122 15.9274C31.4122 15.9274 37.3598 15.3987 39.8711 17.5135C39.8711 17.5135 44.7614 22.1394 49.3874 20.0247C49.3874 20.0247 55.7315 18.4387 53.749 9.97975C53.749 9.97975 50.1804 2.31386 38.4172 0.992154C38.4172 0.992154 29.1653 -2.84079 18.7238 4.56076C18.7238 4.56076 11.8509 7.072 10.7936 16.3239C10.7936 16.3239 8.54666 22.9325 16.7412 31.3914L20.0455 35.2243L15.2874 35.0922Z" fill="white"/>
<path d="M31.9412 3.50391C25.9936 3.63608 20.5746 6.01515 16.7416 10.7733C13.8339 14.2097 13.7017 20.0252 15.4199 23.8582C16.6095 26.8981 18.9885 29.145 21.4998 31.2597C22.6893 32.3171 24.011 33.3745 25.0684 34.564C25.9936 35.6214 27.0509 36.8109 27.7118 38.2648H18.4598V68.664H25.8614V123.25H18.4598V152.724H63.9265V123.25H56.2606V109.373L75.8219 143.869L87.585 123.383V152.724H133.316V123.25H125.65V106.2V101.31L125.782 101.046C126.311 101.178 126.708 101.178 127.104 101.046C127.501 100.914 128.029 100.914 128.426 100.781C129.88 100.517 130.54 99.4597 131.069 98.5345C131.201 98.2702 131.334 98.0058 131.466 97.8737C131.598 97.6093 131.73 97.4772 131.862 97.2128C132.259 96.8163 132.655 96.552 133.184 96.4198L133.316 96.2876C133.448 96.0233 133.58 95.759 133.713 95.4946C133.845 95.2303 133.977 94.9659 134.109 94.7016C134.373 94.1729 134.506 93.5121 134.241 92.9834L134.109 92.719L133.184 93.3799C132.787 93.5121 132.391 93.6442 131.994 93.7764C131.73 93.7764 131.598 93.7764 131.334 93.7764C132.127 93.512 132.92 93.1155 133.58 92.5869C134.638 91.5295 135.827 90.34 135.695 88.6217V88.3574H135.431C135.034 88.4896 134.506 88.4896 133.977 88.4896C133.713 88.4896 133.448 88.4896 133.184 88.4896L133.316 88.3574C133.448 88.2252 133.713 88.0931 133.845 88.0931C135.563 87.1679 136.092 85.3175 136.224 83.7314V83.4671H135.959C135.563 83.4671 135.166 83.5993 134.77 83.8636C134.638 83.9958 134.506 83.9958 134.241 84.1279C134.109 84.2601 133.977 84.2601 133.713 84.2601C133.316 84.3923 132.787 84.3923 132.523 84.1279C134.109 83.5993 135.695 82.6741 136.488 80.9559L136.62 80.8237L136.488 80.6915C135.563 79.8985 134.373 79.502 133.184 79.2376C131.994 78.9733 130.805 78.8411 129.615 78.709C128.558 77.3873 126.575 77.3873 125.121 77.6516C125.121 74.083 124.857 71.5717 125.254 68.1353L127.897 68.0031C129.483 67.7388 130.673 68.3997 131.862 69.3248C132.391 69.8535 133.052 70.3822 133.58 70.7787C134.109 71.3074 134.77 71.7039 135.431 72.1004C140.057 74.876 146.137 75.8012 151.291 73.6865C153.935 77.7838 157.768 82.0132 162.261 83.9958C162.79 84.6566 163.451 85.1853 164.112 85.8462C164.773 86.3748 165.434 86.9035 166.094 87.4322C167.416 88.3574 168.738 89.4148 169.663 90.6043C168.87 93.2477 170.324 95.3624 172.174 96.9485C173.76 97.7415 175.875 98.2702 177.725 97.4772L177.858 97.345C178.254 96.0233 179.047 96.0233 179.972 96.2876C180.237 96.2876 180.501 96.4198 180.765 96.552C181.03 96.552 181.294 96.6842 181.558 96.6842C182.087 96.6842 182.616 96.552 183.144 96.1555C184.73 95.4946 185.259 93.7764 185.259 92.1903C185.259 91.7938 185.127 91.5295 184.995 91.2652C184.863 91.0008 184.598 90.7365 184.466 90.4721C184.202 90.0756 184.07 89.6791 184.995 89.1504C185.523 87.6965 185.259 85.8462 184.334 84.5245C184.863 83.0706 184.863 81.2202 184.863 79.7663C184.863 78.3124 183.805 77.6516 183.012 76.9907C182.748 76.8586 182.616 76.7264 182.351 76.5942C182.087 76.4621 181.955 76.3299 181.823 76.0655C181.558 75.669 181.294 75.4047 181.162 74.7438C180.501 73.6865 179.708 73.0256 178.783 72.4969C178.386 72.2326 177.858 71.9683 177.461 71.7039C177.065 71.4396 176.536 71.3074 176.007 71.0431C174.157 70.1179 172.439 69.3248 171.249 67.2101C169.927 64.4345 168.738 61.5268 167.152 58.8834C165.566 56.24 163.715 53.7287 161.072 51.614C161.997 48.7062 161.997 45.1376 159.618 42.7586C160.147 40.1152 160.279 37.0752 159.354 34.4318C157.635 33.1101 157.768 31.9206 158.428 30.3345C158.693 29.5415 159.089 28.7485 159.354 27.9555C159.618 27.1624 159.75 26.2372 159.486 25.312C159.221 24.519 158.561 23.3295 157.371 23.1973C153.274 23.726 149.837 22.6686 146.401 21.4791C144.683 20.8182 142.965 20.1574 141.114 19.6287C139.396 19.1 137.546 18.7035 135.563 18.5713L129.219 15.2671C115.473 9.45158 96.4405 11.0376 83.7521 19.6287C78.0688 22.5365 72.7819 26.2372 67.4951 30.2024C62.3405 34.1675 57.318 38.2648 52.1633 42.0977L49.7843 38.2648H45.4226L42.6471 34.4318C40.268 31.1276 37.3602 28.8807 34.3203 26.6338C32.8664 25.5764 31.2804 24.519 29.8265 23.4617C28.3726 22.4043 26.9188 21.2148 25.5971 20.0252C25.0684 19.1 25.4649 17.6462 25.8614 16.5888C27.7118 13.4167 31.4126 12.7558 34.7168 12.7558C36.8316 12.4915 38.4176 13.4167 40.1358 14.4741C40.9288 15.0027 41.854 15.6636 42.6471 16.0601C43.5723 16.4566 44.4974 16.8531 45.5548 16.9853C47.5374 16.9853 49.5199 16.1923 50.3129 14.2097C50.8416 12.2272 50.0486 10.5089 48.7269 9.18724C45.0261 6.01515 40.6645 4.56127 36.0385 3.76825C34.7168 3.50391 33.3951 3.50391 31.9412 3.50391ZM22.2928 42.0977H47.6695L75.954 92.1903L76.4827 92.719L76.6149 92.4547C80.0513 86.3748 83.2234 80.295 86.5277 74.2152L87.3207 76.3299C84.0164 83.3349 79.9192 89.9435 76.0862 96.8163L46.3478 44.609H24.4075V62.5841H31.5447V128.537H24.4075V146.512H58.5075V128.537H50.4451V88.7539L60.8866 106.333L75.8219 131.445L90.2285 106.465L95.1188 98.138L101.463 86.7714V128.537H93.5327V146.512H127.368V128.537H119.835V96.8163L121.949 99.0632V126.687H129.483V148.759H91.5502V126.819H98.9517V106.068V95.6268L92.7397 106.465L75.8219 136.071L58.2432 106.2L52.5598 96.552V126.819H60.3579V148.892H22.2928V126.819H29.5622V64.5667H22.2928V42.0977ZM95.5153 109.637V123.25H87.7172L95.5153 109.637Z" fill="#0D3182"/>
<path d="M33.7921 5.22266C32.8669 5.88351 32.3382 6.54436 31.6774 7.33739C31.1487 8.13041 30.4878 9.0556 29.827 9.84863H29.5626C29.0339 9.71646 29.0339 9.9808 29.0339 10.3773C29.0339 10.6416 29.0339 10.906 29.0339 11.1703C29.0339 11.3025 29.0339 11.4347 29.0339 11.5668H29.1661L29.4305 11.4347C29.5626 11.4347 29.5626 11.3025 29.6948 11.3025C29.9591 11.1703 30.2235 11.1703 30.62 11.1703C30.8843 11.1703 31.2808 11.1703 31.6774 11.0382C32.3382 11.0382 32.8669 10.906 33.2634 10.5095C33.3956 9.31994 34.3208 8.52692 35.1138 7.7339C35.3781 7.60173 35.5103 7.33739 35.6425 7.20521C35.7746 7.07304 36.039 6.8087 36.1712 6.67653C36.4355 6.28002 36.5677 6.01568 36.6998 5.61917C35.7746 5.487 34.7173 5.35483 33.7921 5.22266ZM39.0789 6.14785L38.8146 6.41219C38.6824 6.8087 38.5502 7.33739 38.4181 7.86607C38.4181 8.26258 38.4181 8.65909 38.5502 8.92343C39.4754 7.86607 40.7971 7.46956 41.9867 7.33739C42.6475 7.46956 43.1762 8.13041 43.044 8.92343C42.9119 9.0556 42.7797 9.31994 42.6475 9.45211C42.5153 9.71646 42.3832 9.84863 42.251 10.113C41.9867 10.3773 41.458 10.6416 40.9293 10.3773C40.7971 10.5095 40.665 10.5095 40.5328 10.6416C40.4006 10.7738 40.1363 10.906 40.0041 11.0382C39.7398 11.3025 39.4754 11.5668 39.4754 11.8312C39.8719 11.9634 40.4006 12.2277 40.7971 12.492C41.3258 12.7564 41.7223 13.0207 42.251 13.2851C43.1762 13.8137 44.1014 14.3424 45.1588 14.4746C45.5553 14.2103 45.6874 13.8137 45.6874 13.2851C44.8944 12.492 45.1588 11.699 45.4231 11.0382C45.5553 10.6416 45.8196 10.3773 45.9518 9.9808C46.084 9.71646 46.2161 9.45211 46.2161 9.18777C43.9692 7.99824 41.7223 6.67653 39.0789 6.14785ZM27.4479 6.41219C24.8045 6.67653 22.2932 7.86607 20.4429 9.71646C21.3681 9.9808 22.2933 10.5095 23.0863 11.0382C23.8793 11.699 24.6723 12.3599 25.4653 13.0207C25.5975 12.7564 25.5975 12.492 25.7297 12.2277C25.7297 11.8312 25.8619 11.4347 25.8619 11.0382C25.8619 10.3773 25.994 9.45211 26.3905 8.79126L26.5227 8.52692L26.9192 8.92343L27.4479 6.41219ZM17.2708 15.532L16.4777 16.1928C15.6847 18.1754 15.8169 20.8188 16.7421 22.537C17.0064 22.2727 17.2708 22.0083 17.5351 21.6118C17.7995 21.2153 18.0638 20.6866 18.3281 20.1579C18.8568 19.2327 19.5177 18.3075 20.8394 18.1754H20.9715V18.3075C21.1037 18.5719 20.9715 18.7041 20.9715 18.9684C20.9715 19.1006 20.9715 19.1006 20.8394 19.2327V19.4971C20.7072 19.6292 20.7072 19.7614 20.7072 19.8936C21.8967 19.1006 22.8219 17.6467 22.9541 16.1928C21.1037 15.9285 19.1212 16.1928 17.5351 16.5893H17.2708V16.325C17.1386 16.0606 17.2708 15.7963 17.2708 15.532ZM97.8948 16.1928C93.1367 17.6467 87.3212 21.0831 86.7925 26.6343C85.9995 28.8812 85.6029 31.3924 85.4708 33.9037C85.2064 36.4149 85.2064 38.9262 85.0743 41.4374C85.0743 41.5696 84.9421 41.7017 84.9421 41.8339C84.9421 41.9661 84.8099 42.0982 84.8099 42.2304C84.6777 42.4948 84.4134 42.7591 83.8847 42.6269L83.7526 42.4948C80.977 38.1331 79.6553 33.1106 79.2588 27.6917C78.5979 28.3525 78.0692 29.1455 77.5405 29.8064C77.2762 30.2029 77.0119 30.7316 76.6153 31.1281C76.351 31.5246 75.9545 31.9211 75.558 32.3176L75.4258 32.4498L75.2936 32.3176C74.8971 31.7889 74.765 31.1281 74.6328 30.4672C74.6328 30.2029 74.5006 29.8064 74.5006 29.542C74.5006 29.2777 74.3685 29.0134 74.2363 28.749C73.9719 28.6168 73.8398 28.749 73.7076 28.8812C73.5754 29.0134 73.4433 29.1455 73.4433 29.1455C73.3111 29.2777 73.1789 29.4099 73.0467 29.4099C68.9495 37.7366 70.4033 49.3676 72.3859 58.2231L71.8572 59.2804C71.4607 59.6769 71.1964 59.5448 70.932 59.2804V59.1483L70.7998 59.0161C70.6677 58.8839 70.6677 58.8839 70.6677 58.8839L70.5355 58.7517C69.0816 54.7866 67.2312 51.0858 64.5878 47.7816L64.3235 47.6494C64.1913 47.6494 64.0591 47.5172 64.0591 47.5172C63.927 47.5172 63.7948 47.5172 63.6626 47.6494C63.5305 47.9138 63.3983 48.0459 63.2661 48.3103C63.134 48.5746 63.134 48.8389 63.0018 49.1033C62.8696 49.632 62.6053 50.1607 62.0766 50.425L61.8122 50.5572L61.6801 50.2928C61.4157 49.632 61.0192 48.9711 60.7549 48.3103C60.4905 47.6494 60.094 46.9886 59.6975 46.3277C58.9045 45.1382 57.9793 43.9486 56.6576 43.1556C55.7324 42.8913 54.8072 43.1556 53.882 43.6843C58.3758 47.6494 61.1514 52.4076 63.1339 57.5622C63.2661 56.9014 63.3983 56.2405 63.5305 55.4475C63.7948 54.3901 64.1913 53.3327 64.72 52.4076C65.513 52.1432 66.1739 52.6719 66.7026 53.2006C69.2138 57.9587 70.4033 63.1134 71.1964 68.5324H73.5754C73.8398 66.9463 73.8398 65.2281 73.8398 63.5099C73.8398 63.3777 73.9719 63.1134 74.1041 62.9812C74.2363 62.849 74.5006 62.7169 74.765 62.849L74.8971 62.9812C75.8223 64.6994 76.4832 66.682 77.144 68.5324L77.2762 68.9289C77.8049 70.5149 78.4657 71.9688 79.1266 73.2905C78.7301 71.7045 78.3336 70.1184 77.9371 68.5324C76.7475 64.0386 75.2936 59.8091 73.3111 55.7118C73.1789 55.4475 73.1789 55.051 73.1789 54.6545C73.1789 54.2579 73.5754 53.8614 74.1041 54.1258C76.0867 56.5048 77.8049 58.4874 79.9196 60.2056C79.9196 59.5448 80.0518 58.7517 80.4483 58.2231C81.2413 57.9587 81.6378 58.3552 82.0343 58.7517C83.4882 62.1882 85.4708 65.4924 87.8498 68.5324C89.1716 70.2506 90.7576 71.8366 92.608 73.2905L93.401 70.6471C93.5332 70.1184 93.6654 69.7219 93.7975 69.3254C93.9297 69.061 93.9297 68.9289 94.0619 68.6645H93.5332C93.2688 69.061 93.1367 69.5897 93.0045 69.9862L92.8723 70.3828L92.608 69.9862C92.3437 69.4576 92.0793 69.061 91.815 68.5324C87.5855 60.9986 83.8847 53.2006 82.563 44.3451L82.9595 43.2878L83.2239 43.4199C83.6204 43.5521 84.0169 43.8165 84.2812 43.9486C84.6777 44.213 84.9421 44.3451 85.3386 44.6095C85.9995 45.006 86.5281 45.4025 87.189 45.6669C87.4533 44.6095 87.5855 43.2878 87.8498 42.0982C88.1142 40.7765 88.6429 39.587 89.8324 38.794L90.2289 38.5296V38.9262C90.2289 43.0234 90.4933 47.2529 91.5506 51.0858C91.9471 52.4076 92.4758 53.7293 93.0045 54.9188C93.5332 56.1083 94.0619 57.2979 94.9871 58.2231C94.7227 56.1083 94.7227 54.1258 94.7227 52.011C94.7227 51.8789 94.8549 51.7467 94.8549 51.7467C94.8549 51.6145 94.8549 51.4824 94.9871 51.3502C95.1192 51.0858 95.2514 50.8215 95.6479 50.8215H95.7801C96.3088 51.3502 96.7053 52.1432 97.1018 52.8041C97.3661 53.3327 97.6305 53.8614 97.8948 54.3901C98.5557 53.0684 99.3487 51.8789 100.406 50.8215C100.803 50.6893 100.935 50.6893 101.067 50.8215L101.331 50.9537H101.463H101.596V51.0858C101.992 53.0684 102.256 55.1831 102.785 57.0335C103.314 59.0161 103.975 60.8665 104.9 62.4525C106.618 64.1707 107.808 66.1533 108.733 68.268C109.526 70.3828 110.054 72.6297 110.187 75.0087V75.1409C110.054 75.4052 109.922 75.6696 109.79 75.9339C109.658 76.1982 109.526 76.5948 109.394 76.8591C109.129 77.52 108.733 78.0486 107.94 78.1808H107.675V77.9165C107.411 75.1409 106.75 72.6297 105.296 70.3828C105.164 70.5149 105.032 70.6471 105.032 70.7793C105.032 70.9114 104.9 71.0436 104.9 71.1758L104.768 71.5723C104.636 72.101 104.371 72.7618 103.578 73.0262H103.446L103.314 72.894C102.653 71.9688 102.256 71.0436 101.86 69.9862C101.728 69.4576 101.463 68.7967 101.331 68.268H98.4235C98.1591 70.3828 98.027 72.4975 98.027 74.7444L98.5557 75.4052C100.935 75.0087 103.049 74.2157 105.032 72.6296L105.164 72.4975L105.825 72.894V73.0262C105.296 76.1983 103.975 79.106 102.389 81.8816C104.371 82.4103 106.618 82.2781 108.336 81.3529H108.468C109.261 82.0138 109.394 82.9389 109.261 83.732C109.129 84.3928 108.997 85.1859 108.865 85.7145C111.244 85.5824 113.623 85.0537 115.606 83.9963H115.87C116.663 84.525 116.267 85.318 115.87 85.7145C115.738 85.8467 115.606 85.9789 115.473 86.111L115.209 86.3754C116.002 85.9789 117.72 85.318 117.72 85.318C118.381 85.318 119.042 85.1859 119.703 85.1859C120.364 85.1859 121.025 85.318 121.553 85.5824L121.686 85.7145C121.818 86.2432 121.421 86.6397 121.157 86.9041C121.025 87.0362 120.76 87.1684 120.628 87.3006C120.496 87.4328 120.364 87.5649 120.232 87.5649C119.042 88.7545 118.646 90.737 119.174 92.3231C119.967 93.9091 121.686 95.2308 123.404 95.363C124.99 95.7595 125.254 95.0986 125.518 94.0413C125.651 93.7769 125.651 93.5126 125.783 93.2483C125.915 92.9839 126.047 92.7196 126.179 92.4552C126.444 91.9266 126.972 91.6622 127.633 91.53C127.633 90.0762 128.162 88.8866 129.219 87.9614C128.823 87.3006 128.691 86.7719 128.823 86.2432C128.823 85.9789 128.955 85.7145 129.087 85.318C129.219 85.0537 129.351 84.7893 129.484 84.525C130.012 83.4676 130.409 82.6746 129.087 81.8816C128.823 81.4851 128.823 81.2207 128.823 80.9564C128.823 80.6921 128.823 80.4277 128.955 80.1634C129.087 79.7669 129.087 79.3704 128.823 78.9738C125.518 78.5773 122.346 80.1634 119.439 81.7494H119.306C118.513 81.3529 118.513 80.6921 118.513 79.899C118.513 79.5025 118.513 79.2382 118.513 78.8417C118.513 78.5773 118.513 78.313 118.513 78.1808C117.456 78.0486 116.663 78.5773 115.738 79.106C115.209 79.3703 114.813 79.7669 114.284 80.1634C113.755 80.5599 113.359 80.8242 112.83 81.0886C112.698 81.2207 112.434 81.3529 112.301 81.4851C112.037 81.6172 111.773 81.7494 111.508 81.8816C110.98 82.0138 110.451 81.8816 110.187 81.0886V80.9564C112.169 77.3878 112.037 72.3653 110.319 68.6645C110.187 68.4002 109.922 68.268 109.79 68.0037C103.578 60.0734 100.67 48.9711 105.825 39.7192L106.089 39.4548C106.089 39.4548 106.222 39.3227 106.354 39.3227C106.618 39.1905 106.882 39.1905 107.015 39.4548V39.587C107.015 41.8339 107.015 44.3451 107.411 46.7242C107.808 48.9711 108.468 51.0858 109.922 52.8041C110.054 52.5397 110.187 52.2754 110.187 52.011C110.319 51.6145 110.583 51.218 111.112 51.0858L110.98 50.2928C110.848 50.425 110.583 50.2928 110.451 50.1606L110.319 50.0285L110.187 49.8963C110.054 49.7641 110.054 49.7641 110.054 49.7641L109.922 49.632C106.486 44.3451 107.147 36.2827 110.319 30.8637C108.865 32.0533 107.808 33.9037 107.147 35.6219C107.015 35.8862 106.882 36.1506 106.882 36.4149C106.75 36.6793 106.75 36.9436 106.618 37.2079C106.486 37.7366 106.222 38.3975 105.825 38.9262C105.429 39.0583 105.164 39.0583 105.032 38.9262C104.9 38.9262 104.9 38.794 104.9 38.794C102.521 41.0409 102.124 44.0808 101.596 47.2529C101.463 47.3851 101.463 47.6494 101.463 47.9137C101.463 48.1781 101.463 48.3103 101.463 48.5746C101.463 48.9711 101.331 49.4998 100.67 49.632H100.538V49.4998C98.5557 42.4948 100.142 34.5645 105.429 29.4099C105.825 28.749 106.354 28.3525 106.882 27.956C107.411 27.5595 108.072 27.2951 108.601 26.8986C109.658 26.2378 110.451 25.4448 110.187 23.9909C110.848 21.6118 113.227 20.0258 115.473 19.7614C115.077 18.9684 115.473 18.1754 115.87 17.5145C116.134 17.118 116.399 16.8537 116.663 16.5893C116.795 16.4572 116.927 16.325 116.927 16.1928C108.204 18.5719 101.331 26.7665 98.1591 34.3002C98.027 34.4324 98.027 34.5645 97.8948 34.8289C97.8948 34.961 97.8948 35.2254 97.8948 35.4897C97.8948 35.8862 97.7626 36.4149 97.1018 36.5471H96.8374V36.2827C95.2514 30.2029 97.1018 24.123 100.01 19.2327L96.8374 20.0258L95.9123 19.4971V19.3649C96.0444 18.5719 96.4409 18.0432 96.9696 17.5145C97.234 17.2502 97.3661 16.9858 97.6305 16.7215C97.7626 16.4572 97.8948 16.325 97.8948 16.1928ZM73.5754 68.5324H71.0642C71.3285 70.9114 71.5929 73.4227 71.725 75.9339C72.6502 73.5548 73.1789 71.1758 73.5754 68.5324ZM124.329 18.0432C121.553 18.0432 118.778 18.5719 116.531 20.0258C118.381 20.2901 120.232 21.3475 121.818 22.537C124.99 21.3475 128.691 20.4223 132.127 19.7614C129.88 18.7041 127.105 18.0432 124.329 18.0432ZM24.0115 21.6118C22.4254 22.1405 20.9715 23.5944 20.0464 25.0482C19.3855 25.9734 19.3855 27.163 20.3107 27.8238C21.1037 27.2951 21.7646 26.6343 22.5576 26.1056C23.3506 25.5769 24.2758 25.0482 25.3332 25.0482C26.1262 24.9161 26.3905 24.123 26.3905 23.33C26.2584 23.0657 26.1262 22.9335 25.8619 22.6692C25.7297 22.4048 25.4653 22.2727 25.201 22.0083C24.9367 21.744 24.5401 21.6118 24.0115 21.6118ZM137.149 22.0083C135.563 22.0083 133.977 22.2727 132.391 22.537C132.788 22.537 133.184 22.537 133.713 22.537L133.845 22.6692L134.11 22.9335C134.242 23.0657 134.374 23.1979 134.242 23.5944C132.656 24.123 130.937 24.6517 129.351 25.1804C127.765 25.7091 126.311 26.5021 124.858 27.4273C124.725 27.5595 124.593 27.8238 124.329 27.956C124.197 28.2203 124.065 28.3525 123.932 28.6168C123.8 28.8812 123.668 29.1455 123.8 29.4099C125.518 27.956 127.633 27.0308 129.616 26.2378C130.277 25.9734 131.07 25.7091 131.863 25.4448C132.656 25.3126 133.449 25.1804 134.242 25.4448L134.506 25.5769L134.11 26.2378C132.656 27.2951 131.07 28.0882 129.616 29.0134C128.162 29.9386 126.708 30.9959 125.651 32.582L125.518 32.8463C125.518 32.9785 125.386 32.9785 125.386 33.1106C125.386 33.2428 125.386 33.375 125.386 33.375C126.444 33.2428 127.237 32.7141 128.03 31.9211C128.426 31.5246 128.823 31.1281 129.219 30.8637C129.616 30.4672 130.144 30.2029 130.541 29.9386C131.07 29.6742 131.73 29.4099 132.259 29.1455C132.788 28.8812 133.449 28.749 134.11 29.0134L134.374 29.1455V29.4099C134.11 30.0707 133.845 30.5994 133.449 31.1281C133.052 31.6568 132.656 32.1855 132.391 32.7141C131.995 33.2428 131.73 33.7715 131.598 34.3002C132.92 32.7141 134.374 32.4498 136.092 32.8463C135.96 32.7141 135.96 32.582 135.828 32.4498C135.696 32.3176 135.696 32.1855 135.696 31.9211C135.696 31.5246 135.828 31.1281 136.224 30.9959C137.546 30.9959 138.736 31.2603 139.793 31.5246C140.85 31.7889 141.908 32.3176 142.965 32.7141C143.89 33.5072 144.815 34.0358 145.873 34.4324C146.401 34.6967 146.93 34.8289 147.459 35.0932C147.987 35.3575 148.516 35.6219 148.913 35.8862L149.045 36.0184C149.177 36.8114 148.648 37.0758 148.252 37.3401C147.987 37.4723 147.855 37.4723 147.591 37.6044L147.327 37.7366L147.591 37.8688C147.855 38.001 147.987 38.1331 148.252 38.1331C148.648 38.3975 149.177 38.6618 149.441 39.0583L149.574 39.1905L149.441 39.3227C148.648 39.9835 147.855 40.1157 147.194 40.1157C146.798 40.1157 146.401 40.1157 146.005 39.9835C145.741 39.9835 145.344 39.9835 145.08 39.9835C145.212 40.2479 145.344 40.2479 145.476 40.38L145.741 40.5122C145.873 40.5122 145.873 40.6444 146.005 40.7765C146.137 40.9087 146.269 41.173 146.269 41.4374L146.137 41.5696C144.551 43.0234 142.568 43.6843 140.586 44.213H140.322C140.057 43.9486 139.925 43.6843 140.057 43.4199C140.057 43.2878 140.189 43.1556 140.189 43.0234C140.189 42.8913 140.322 42.7591 140.454 42.7591C140.718 42.3626 140.85 42.0982 140.586 41.8339C139.529 42.0982 138.736 41.7017 137.942 41.3052C137.81 41.173 137.546 41.173 137.414 41.0409C137.282 40.9087 137.017 40.9087 136.885 40.9087C136.621 40.7765 136.224 40.7765 135.96 40.9087C136.224 41.4374 136.621 41.8339 137.149 42.2304C137.414 42.4948 137.678 42.7591 137.942 43.0234C138.207 43.2878 138.339 43.6843 138.471 43.9486V44.213H138.207C137.414 44.4773 136.489 44.3451 135.563 44.0808C135.035 43.9486 134.506 43.8165 133.977 43.6843L136.224 45.9312C136.092 46.7242 135.563 46.9886 135.035 47.1207C134.77 47.1207 134.506 47.2529 134.242 47.2529C133.977 47.2529 133.713 47.3851 133.581 47.5172H133.449C131.995 47.2529 130.673 46.9886 129.616 45.6669C128.691 45.006 128.426 44.0808 128.426 43.1556C128.426 42.3626 128.426 41.5696 128.426 40.7765C128.162 41.0409 127.898 41.4374 127.633 41.8339L127.765 41.9661L127.898 42.0982H127.765C126.84 43.4199 126.311 45.2703 127.104 46.7242C127.501 47.6494 128.294 48.5746 129.351 48.8389C132.523 49.3676 135.431 47.6494 138.207 46.0634C139.793 45.4025 141.115 45.799 142.304 46.3277C142.965 46.592 143.494 46.9886 144.022 47.2529C144.551 47.6494 145.212 47.9138 145.741 48.0459C146.005 48.1781 146.137 48.3103 146.269 48.5746C146.269 48.7068 146.269 48.7068 146.269 48.8389C147.062 48.8389 147.987 48.7068 148.516 48.9711C149.441 48.1781 150.763 48.1781 151.953 48.1781C152.613 48.1781 153.142 48.1781 153.803 48.1781C154.332 48.1781 154.86 48.0459 155.389 47.7816C156.182 47.5172 156.314 47.1207 156.182 46.4599C156.05 46.0634 155.918 45.799 155.918 45.4025C155.786 45.006 155.653 44.7417 155.786 44.3451V44.0808H156.05C156.182 44.0808 156.314 44.213 156.446 44.213C157.504 43.0234 158.297 40.7765 158.165 39.3227C158.032 39.587 157.9 39.8513 157.636 40.1157L157.239 40.5122L157.107 40.2479C156.975 40.1157 156.975 39.9835 156.975 39.8513C156.975 39.9835 156.843 39.9835 156.843 40.1157C156.579 40.2479 156.314 40.38 156.05 40.5122C155.786 40.6444 155.653 40.6444 155.521 40.7765C155.257 40.9087 154.992 41.0409 154.992 41.5696V41.8339L154.728 41.7017C153.803 41.3052 153.671 40.6444 153.539 39.8513C153.539 39.4548 153.406 39.1905 153.406 38.794C153.406 38.3975 153.274 38.1331 153.142 37.8688C152.085 36.8114 151.16 35.4897 150.631 34.168H150.102L150.631 34.4324C150.763 34.4324 150.895 34.5645 151.027 34.5645C150.631 34.168 150.367 33.9037 150.102 33.5072H149.97L149.838 33.375C149.706 33.1106 149.441 32.9785 149.177 32.7141L148.78 32.3176C148.648 32.1855 148.516 32.0533 148.384 31.9211C147.987 31.5246 147.591 30.9959 147.855 30.2029L147.987 30.0707C150.234 29.4099 152.878 30.0707 154.86 30.9959C155.125 31.3924 155.257 31.6568 155.521 31.9211C155.786 32.1855 155.918 32.4498 156.182 32.8463L156.314 32.9785L156.446 32.7141C156.446 32.4498 156.446 32.1855 156.314 31.9211L156.05 32.1855L155.918 31.7889C155.786 31.3924 155.653 30.9959 155.521 30.7316C155.257 30.3351 155.125 30.0707 154.86 29.6742C154.332 29.0134 153.935 28.2203 153.803 27.2951V27.0308C153.406 26.3699 153.142 25.8413 152.878 25.4448H152.613L152.481 25.3126C151.82 24.5196 151.027 24.2552 150.102 24.123C149.706 24.123 149.177 24.123 148.78 24.123C148.252 24.123 147.855 24.2552 147.327 24.2552C145.476 24.3874 143.494 24.3874 142.304 22.2727C140.454 22.0083 138.868 22.0083 137.149 22.0083ZM29.827 26.2378C29.0339 26.2378 28.6374 26.8986 28.2409 27.6917C28.1088 27.956 27.9766 28.3525 27.7122 28.6168C27.5801 28.8812 27.3157 29.2777 27.0514 29.542C26.6549 30.0707 25.994 30.4672 25.201 30.4672C25.0688 31.1281 25.4653 31.6568 25.7297 32.3176C25.8619 32.3176 26.1262 32.3176 26.2584 32.3176C26.5227 32.3176 26.6549 32.1855 26.787 32.0533C28.6374 30.8637 30.8843 29.0134 31.6774 27.0308L31.2808 26.6343C30.8843 26.3699 30.4878 26.2378 30.2235 26.2378C30.0913 26.1056 29.9591 26.1056 29.827 26.2378ZM34.1886 32.1855C33.9243 32.1855 33.5277 32.1855 33.2634 32.1855C31.8095 32.3176 30.3557 32.7141 29.2983 33.375C28.9018 34.0358 29.2983 34.961 29.9591 35.3575C31.413 35.8862 32.9991 35.6219 34.7173 35.3575C35.5103 35.2254 36.4355 35.0932 37.2285 34.961C38.0215 34.8289 38.8146 34.8289 39.6076 34.8289C38.2859 33.1106 36.3033 32.3176 34.1886 32.1855ZM156.446 33.1106C156.711 33.5072 156.843 34.0358 156.579 34.6967C157.239 35.0932 157.636 35.4897 157.768 35.7541L158.561 36.0184C158.165 34.6967 157.504 33.7715 156.446 33.1106ZM158.693 56.7692C158.561 56.7692 158.429 56.7692 158.429 56.9014C158.297 59.1483 157.107 61.1308 155.786 62.4525L155.653 62.5847L155.521 62.4525C155.125 62.1882 154.86 61.7917 154.728 61.3951C154.728 61.263 154.596 60.9986 154.596 60.8665L154.464 60.6021L153.539 61.263C153.01 60.9986 152.878 60.7343 152.878 60.47C152.878 60.3378 152.878 60.2056 152.746 60.0734C152.481 60.47 152.217 60.7343 151.953 61.1308C151.688 61.5273 151.556 61.9238 151.556 62.4525C151.82 62.9812 151.953 62.9812 152.481 62.4525L152.878 62.056C153.01 61.9238 153.142 61.7917 153.274 61.6595C153.539 61.3951 153.935 61.263 154.332 61.263L154.464 61.3951C155.257 62.7169 155.125 64.8316 154.728 66.2855C155.125 66.4176 155.257 66.682 155.257 67.0785C155.257 67.2107 155.257 67.475 155.257 67.6072C155.257 67.7393 155.257 67.8715 155.257 68.0037C155.521 68.1358 155.918 68.268 156.182 68.4002C156.843 68.6645 157.504 68.7967 158.165 69.061C159.222 69.4576 160.279 69.9862 161.205 70.7793V71.0436C161.205 71.1758 161.072 71.3079 161.072 71.3079C165.17 69.9862 167.681 71.0436 168.738 75.8017C169.796 80.8242 171.646 82.2781 173.496 82.8068V82.6746C173.496 82.1459 173.761 81.7494 174.025 81.2207C174.422 80.4277 174.289 79.106 173.629 78.4452C173.232 77.52 173.364 76.5948 174.025 75.9339C174.554 75.2731 175.347 75.1409 176.14 75.0087C176.801 74.8765 177.594 75.0087 178.255 75.0087C178.122 74.8765 178.122 74.8765 177.99 74.8765C177.858 74.8765 177.858 74.8765 177.726 74.7444C175.215 74.3479 172.968 75.5374 171.382 77.6521L171.249 77.7843L171.117 77.6521C169.928 77.1235 169.531 76.1983 169.399 75.1409C169.399 74.6122 169.399 74.0835 169.399 73.5548C169.399 73.0262 169.531 72.4975 169.531 71.9688C169.267 71.3079 168.738 70.9114 167.945 70.6471C167.152 70.3827 166.227 70.2506 165.566 69.9862C165.434 69.8541 165.17 69.8541 165.037 69.8541C164.773 69.8541 164.641 69.7219 164.377 69.5897C163.98 69.4576 163.584 69.061 163.716 68.4002L163.848 68.268C164.641 67.6072 165.434 67.3428 166.227 67.0785C166.624 66.9463 167.152 66.8141 167.549 66.682C167.945 66.5498 168.21 66.4176 168.474 66.1533L168.342 66.0211C167.284 65.8889 166.095 65.7568 164.905 65.7568C163.716 65.7568 162.526 65.7568 161.469 66.0211H161.337C161.205 65.8889 161.204 65.7568 161.072 65.7568L160.808 65.889C160.676 65.7568 160.544 65.6246 160.411 65.3603C160.411 64.6994 160.808 64.3029 161.205 63.9064C161.469 63.7742 161.601 63.6421 161.865 63.5099C161.998 63.3777 162.13 63.3777 162.262 63.2455L161.469 62.1882L161.733 62.056C162.526 61.6595 163.319 61.5273 164.112 61.6595C164.773 61.6595 165.302 61.7917 165.963 61.9238C165.566 61.3951 164.905 61.1308 164.244 60.9986C163.848 60.9986 163.319 60.8665 162.923 60.8665C162.526 60.8665 161.998 60.8665 161.733 60.8665C161.469 60.8665 161.204 60.9986 160.94 61.1308C160.676 61.263 160.411 61.5273 160.147 61.6595C159.618 62.056 158.958 62.3203 158.297 61.9238L158.165 61.7917V61.6595C158.429 60.9986 158.825 60.3378 159.09 59.5448C159.354 58.8839 159.486 58.0909 159.354 57.2979C159.222 57.0335 158.958 56.7692 158.693 56.7692ZM100.01 61.6595C99.0843 63.9064 98.5557 66.1533 98.1591 68.6645H101.067C100.935 68.268 100.803 67.7393 100.67 67.3428C100.538 66.2855 100.406 65.0959 100.274 64.0386C100.274 63.1134 100.274 62.3203 100.01 61.6595ZM95.1192 66.1533C94.4584 66.9463 94.0619 67.7393 93.5332 68.6645H94.0619C94.194 68.4002 94.194 68.268 94.3262 68.0037C94.7227 67.3428 94.9871 66.682 95.1192 66.1533ZM110.715 90.3405C111.376 90.737 112.169 91.1335 112.83 91.53C113.887 92.0587 114.813 92.4552 116.002 92.5874L114.152 90.737C113.227 90.8692 112.434 90.737 111.641 90.6048C111.244 90.4727 110.98 90.4727 110.715 90.3405Z" fill="#F8992E"/>
<path d="M73.5754 68.5324H71.1964C70.4033 63.1134 69.2138 57.9587 66.7026 53.2006C66.1739 52.6719 65.513 52.1432 64.72 52.4076C64.1913 53.3327 63.7948 54.3901 63.5305 55.4475C63.3983 56.2405 63.2661 56.9014 63.134 57.5622C61.1514 52.4076 58.3758 47.6494 53.882 43.6843C54.8072 43.1556 55.7324 42.8913 56.6576 43.1556C57.9793 43.9486 58.9045 45.1382 59.6975 46.3277C60.094 46.9886 60.4905 47.6494 60.7549 48.3103C61.0192 48.9711 61.4157 49.632 61.6801 50.2928L61.8122 50.5572L62.0766 50.425C62.6053 50.1607 62.8696 49.632 63.0018 49.1033C63.134 48.8389 63.134 48.5746 63.2661 48.3103C63.3983 48.0459 63.5305 47.9138 63.6626 47.6494C63.7948 47.5172 63.927 47.5172 64.0591 47.5172C64.0591 47.5172 64.1913 47.6494 64.3235 47.6494L64.5878 47.7816C67.2312 51.0858 69.0816 54.7866 70.5355 58.7517L70.6677 58.8839C70.6677 58.8839 70.6677 58.8839 70.7998 59.0161L70.932 59.1483V59.2804C71.1964 59.5448 71.4607 59.6769 71.8572 59.2804L72.3859 58.2231C70.4033 49.3676 68.9495 37.7366 73.0467 29.4099C73.1789 29.4099 73.3111 29.2777 73.4433 29.1455C73.4433 29.1455 73.5754 29.0134 73.7076 28.8812C73.8398 28.749 73.9719 28.6168 74.2363 28.749C74.3684 29.0134 74.5006 29.2777 74.5006 29.542C74.5006 29.8064 74.6328 30.2029 74.6328 30.4672C74.765 31.1281 74.8971 31.7889 75.2936 32.3176L75.4258 32.4498L75.558 32.3176C75.9545 31.9211 76.351 31.5246 76.6153 31.1281C77.0119 30.7316 77.2762 30.2029 77.5405 29.8064C78.0692 29.1455 78.5979 28.3525 79.2588 27.6917C79.6553 33.1106 80.977 38.1331 83.7526 42.4948L83.8847 42.6269C84.4134 42.7591 84.6778 42.4948 84.8099 42.2304C84.8099 42.0982 84.9421 41.9661 84.9421 41.8339C84.9421 41.7017 85.0743 41.5696 85.0743 41.4374C85.2064 38.9262 85.2064 36.4149 85.4708 33.9037C85.6029 31.3924 85.9995 28.8812 86.7925 26.6343C87.3212 21.0831 93.1367 17.6467 97.8948 16.1928C97.8948 16.325 97.7626 16.4572 97.6305 16.7215C97.3661 16.9858 97.234 17.2502 96.9696 17.5145C96.4409 18.0432 96.0444 18.5719 95.9123 19.3649V19.4971L96.8374 20.0258L100.01 19.2327C97.1018 24.123 95.2514 30.2029 96.8374 36.2827V36.5471H97.1018C97.7626 36.4149 97.8948 35.8862 97.8948 35.4897C97.8948 35.2254 97.8948 34.961 97.8948 34.8289C98.027 34.5645 98.027 34.4324 98.1591 34.3002C101.331 26.7665 108.204 18.5719 116.927 16.1928C116.927 16.325 116.795 16.4572 116.663 16.5893C116.399 16.8537 116.134 17.118 115.87 17.5145C115.473 18.1754 115.077 18.9684 115.473 19.7614C113.227 20.0258 110.848 21.6118 110.187 23.9909C110.451 25.4448 109.658 26.2378 108.601 26.8986C108.072 27.2951 107.411 27.5595 106.882 27.956C106.354 28.3525 105.825 28.749 105.429 29.4099C100.142 34.5645 98.5557 42.4948 100.538 49.4998V49.632H100.67C101.331 49.4998 101.463 48.9711 101.463 48.5746C101.463 48.3103 101.463 48.1781 101.463 47.9137C101.463 47.6494 101.463 47.3851 101.596 47.2529C102.124 44.0808 102.521 41.0409 104.9 38.794C104.9 38.794 104.9 38.9262 105.032 38.9262C105.164 39.0583 105.429 39.0583 105.825 38.9262C106.222 38.3975 106.486 37.7366 106.618 37.2079C106.75 36.9436 106.75 36.6793 106.882 36.4149C106.882 36.1506 107.015 35.8862 107.147 35.6219C107.808 33.9037 108.865 32.0533 110.319 30.8637C107.147 36.2827 106.486 44.3451 109.922 49.632L110.054 49.7641C110.054 49.7641 110.054 49.7641 110.187 49.8963L110.319 50.0285L110.451 50.1607C110.583 50.2928 110.848 50.425 110.98 50.2928L111.112 51.0858C110.583 51.218 110.319 51.6145 110.187 52.011C110.187 52.2754 110.055 52.5397 109.922 52.8041C108.468 51.0858 107.808 48.9711 107.411 46.7242C107.015 44.3451 107.015 41.8339 107.015 39.587V39.4548C106.882 39.1905 106.618 39.1905 106.354 39.3227C106.222 39.3227 106.089 39.4548 106.089 39.4548L105.825 39.7192C100.67 48.9711 103.578 60.0734 109.79 68.0037C109.922 68.268 110.187 68.4002 110.319 68.6645C112.037 72.3653 112.169 77.3878 110.187 80.9564V81.0886C110.451 81.8816 110.98 82.0138 111.508 81.8816C111.773 81.7494 112.037 81.6172 112.301 81.4851C112.434 81.3529 112.698 81.2207 112.83 81.0886C113.359 80.8242 113.755 80.5599 114.284 80.1634C114.813 79.7669 115.209 79.3703 115.738 79.106C116.663 78.5773 117.456 78.0486 118.513 78.1808C118.513 78.313 118.513 78.5773 118.513 78.8417C118.513 79.2382 118.513 79.5025 118.513 79.899C118.513 80.6921 118.513 81.3529 119.306 81.7494H119.439C122.346 80.1634 125.518 78.5773 128.823 78.9738C129.087 79.3704 129.087 79.7669 128.955 80.1634C128.823 80.4277 128.823 80.6921 128.823 80.9564C128.823 81.2207 128.823 81.4851 129.087 81.8816C130.409 82.6746 130.012 83.4676 129.484 84.525C129.351 84.7893 129.219 85.0537 129.087 85.318C128.955 85.7145 128.823 85.9789 128.823 86.2432C128.691 86.7719 128.823 87.3006 129.219 87.9614C128.162 88.8866 127.633 90.0762 127.633 91.53C126.972 91.6622 126.444 91.9266 126.179 92.4552C126.047 92.7196 125.915 92.9839 125.783 93.2483C125.651 93.5126 125.651 93.7769 125.518 94.0413C125.254 95.0986 124.99 95.7595 123.404 95.363C121.686 95.2308 119.967 93.9091 119.174 92.3231C118.646 90.737 119.042 88.7545 120.232 87.5649C120.364 87.5649 120.496 87.4328 120.628 87.3006C120.76 87.1684 121.025 87.0362 121.157 86.9041C121.421 86.6397 121.818 86.2432 121.686 85.7145L121.553 85.5824C121.025 85.318 120.364 85.1859 119.703 85.1859C119.042 85.1859 118.381 85.318 117.72 85.318C117.72 85.318 116.002 85.9789 115.209 86.3754L115.473 86.111C115.606 85.9789 115.738 85.8467 115.87 85.7145C116.267 85.318 116.663 84.525 115.87 83.9963H115.606C113.623 85.0537 111.244 85.5824 108.865 85.7145C108.997 85.1859 109.129 84.3928 109.261 83.732C109.394 82.939 109.261 82.0138 108.468 81.3529H108.336C106.618 82.2781 104.371 82.4103 102.389 81.8816C103.975 79.106 105.296 76.1983 105.825 73.0262V72.894L105.164 72.4975L105.032 72.6296C103.049 74.2157 100.935 75.0087 98.5557 75.4052L98.027 74.7444C98.027 72.4975 98.1591 70.3827 98.4235 68.268H101.331C101.463 68.7967 101.728 69.4576 101.86 69.9862C102.256 71.0436 102.653 71.9688 103.314 72.894L103.446 73.0262H103.578C104.371 72.7618 104.636 72.101 104.768 71.5723L104.9 71.1758C104.9 71.0436 105.032 70.9114 105.032 70.7793C105.032 70.6471 105.164 70.5149 105.296 70.3828C106.75 72.6297 107.411 75.1409 107.675 77.9165V78.1808H107.94C108.733 78.0486 109.129 77.52 109.394 76.8591C109.526 76.5948 109.658 76.1983 109.79 75.9339C109.922 75.6696 110.054 75.4052 110.187 75.1409V75.0087C110.054 72.6297 109.526 70.3827 108.733 68.268C107.808 66.1533 106.618 64.1707 104.9 62.4525C103.975 60.8665 103.314 59.0161 102.785 57.0335C102.256 55.1831 101.992 53.0684 101.596 51.0858V50.9537H101.463H101.331L101.067 50.8215C100.935 50.6893 100.803 50.6893 100.406 50.8215C99.3487 51.8789 98.5557 53.0684 97.8948 54.3901C97.6305 53.8614 97.3661 53.3327 97.1018 52.8041C96.7053 52.1432 96.3088 51.3502 95.7801 50.8215H95.6479C95.2514 50.8215 95.1192 51.0858 94.9871 51.3502C94.8549 51.4824 94.8549 51.6145 94.8549 51.7467C94.8549 51.7467 94.7227 51.8789 94.7227 52.011C94.7227 54.1258 94.7227 56.1083 94.9871 58.2231C94.0619 57.2979 93.5332 56.1083 93.0045 54.9188C92.4758 53.7293 91.9471 52.4076 91.5506 51.0858C90.4933 47.2529 90.2289 43.0234 90.2289 38.9262V38.5296L89.8324 38.794C88.6429 39.587 88.1142 40.7765 87.8498 42.0982C87.5855 43.2878 87.4533 44.6095 87.189 45.6669C86.5281 45.4025 85.9995 45.006 85.3386 44.6095C84.9421 44.3451 84.6778 44.213 84.2812 43.9486C84.0169 43.8165 83.6204 43.5521 83.2239 43.42L82.9595 43.2878L82.563 44.3451C83.8847 53.2006 87.5855 60.9986 91.815 68.5324C92.0793 69.061 92.3436 69.4576 92.608 69.9862L92.8723 70.3828L93.0045 69.9862C93.1367 69.5897 93.2688 69.061 93.5332 68.6645M73.5754 68.5324C73.8398 66.9463 73.8398 65.2281 73.8398 63.5099C73.8398 63.3777 73.9719 63.1134 74.1041 62.9812C74.2363 62.849 74.5006 62.7169 74.765 62.849L74.8971 62.9812C75.8223 64.6994 76.4832 66.682 77.144 68.5324M73.5754 68.5324H71.0642C71.3285 70.9114 71.5929 73.4227 71.725 75.9339C72.6502 73.5548 73.1789 71.1758 73.5754 68.5324ZM77.144 68.5324H77.5405M77.144 68.5324L77.2762 68.9289C77.8049 70.5149 78.4657 71.9688 79.1266 73.2905C78.7301 71.7045 78.3336 70.1184 77.9371 68.5324C76.7475 64.0386 75.2936 59.8091 73.3111 55.7118C73.1789 55.4475 73.1789 55.051 73.1789 54.6545C73.1789 54.2579 73.5754 53.8614 74.1041 54.1258C76.0867 56.5048 77.8049 58.4874 79.9196 60.2056C79.9196 59.5448 80.0518 58.7517 80.4483 58.2231C81.2413 57.9587 81.6378 58.3552 82.0343 58.7517C83.4882 62.1882 85.4708 65.4924 87.8498 68.5324M87.8498 68.5324H90.3611M87.8498 68.5324C89.1716 70.2506 90.7576 71.8366 92.608 73.2905L93.401 70.6471C93.5332 70.1184 93.6654 69.7219 93.7975 69.3254C93.9297 69.061 93.9297 68.9289 94.0619 68.6645M94.0619 68.6645H93.5332M94.0619 68.6645C94.194 68.4002 94.194 68.268 94.3262 68.0037C94.7227 67.3428 94.9871 66.682 95.1192 66.1533C94.4584 66.9463 94.0619 67.7393 93.5332 68.6645M33.7921 5.22266C32.8669 5.88351 32.3382 6.54436 31.6774 7.33739C31.1487 8.13041 30.4878 9.0556 29.827 9.84863H29.5626C29.0339 9.71646 29.0339 9.9808 29.0339 10.3773C29.0339 10.6416 29.0339 10.906 29.0339 11.1703C29.0339 11.3025 29.0339 11.4347 29.0339 11.5668H29.1661L29.4305 11.4347C29.5626 11.4347 29.5626 11.3025 29.6948 11.3025C29.9591 11.1703 30.2235 11.1703 30.62 11.1703C30.8843 11.1703 31.2808 11.1703 31.6774 11.0382C32.3382 11.0382 32.8669 10.906 33.2634 10.5095C33.3956 9.31994 34.3208 8.52692 35.1138 7.7339C35.3781 7.60173 35.5103 7.33739 35.6425 7.20521C35.7746 7.07304 36.039 6.8087 36.1712 6.67653C36.4355 6.28002 36.5677 6.01568 36.6998 5.61917C35.7746 5.487 34.7173 5.35483 33.7921 5.22266ZM39.0789 6.14785L38.8146 6.41219C38.6824 6.8087 38.5502 7.33739 38.4181 7.86607C38.4181 8.26258 38.4181 8.65909 38.5502 8.92343C39.4754 7.86607 40.7971 7.46956 41.9867 7.33739C42.6475 7.46956 43.1762 8.13041 43.044 8.92343C42.9119 9.0556 42.7797 9.31994 42.6475 9.45211C42.5153 9.71646 42.3832 9.84863 42.251 10.113C41.9867 10.3773 41.458 10.6416 40.9293 10.3773C40.7971 10.5095 40.665 10.5095 40.5328 10.6416C40.4006 10.7738 40.1363 10.906 40.0041 11.0382C39.7398 11.3025 39.4754 11.5668 39.4754 11.8312C39.8719 11.9634 40.4006 12.2277 40.7971 12.492C41.3258 12.7564 41.7223 13.0207 42.251 13.2851C43.1762 13.8137 44.1014 14.3424 45.1588 14.4746C45.5553 14.2103 45.6874 13.8137 45.6874 13.2851C44.8944 12.492 45.1588 11.699 45.4231 11.0382C45.5553 10.6416 45.8196 10.3773 45.9518 9.9808C46.084 9.71646 46.2161 9.45211 46.2161 9.18777C43.9692 7.99824 41.7223 6.67653 39.0789 6.14785ZM27.4479 6.41219C24.8045 6.67653 22.2932 7.86607 20.4429 9.71646C21.3681 9.9808 22.2933 10.5095 23.0863 11.0382C23.8793 11.699 24.6723 12.3599 25.4653 13.0207C25.5975 12.7564 25.5975 12.492 25.7297 12.2277C25.7297 11.8312 25.8619 11.4347 25.8619 11.0382C25.8619 10.3773 25.994 9.45211 26.3905 8.79126L26.5227 8.52692L26.9192 8.92343L27.4479 6.41219ZM17.2708 15.532L16.4777 16.1928C15.6847 18.1754 15.8169 20.8188 16.7421 22.537C17.0064 22.2727 17.2708 22.0083 17.5351 21.6118C17.7995 21.2153 18.0638 20.6866 18.3281 20.1579C18.8568 19.2327 19.5177 18.3075 20.8394 18.1754H20.9715V18.3075C21.1037 18.5719 20.9715 18.7041 20.9715 18.9684C20.9715 19.1006 20.9715 19.1006 20.8394 19.2327V19.4971C20.7072 19.6292 20.7072 19.7614 20.7072 19.8936C21.8967 19.1006 22.8219 17.6467 22.9541 16.1928C21.1037 15.9285 19.1212 16.1928 17.5351 16.5893H17.2708V16.325C17.1386 16.0606 17.2708 15.7963 17.2708 15.532ZM124.329 18.0432C121.553 18.0432 118.778 18.5719 116.531 20.0258C118.381 20.2901 120.232 21.3475 121.818 22.537C124.99 21.3475 128.691 20.4223 132.127 19.7614C129.88 18.7041 127.105 18.0432 124.329 18.0432ZM24.0115 21.6118C22.4254 22.1405 20.9715 23.5944 20.0464 25.0482C19.3855 25.9734 19.3855 27.163 20.3107 27.8238C21.1037 27.2951 21.7646 26.6343 22.5576 26.1056C23.3506 25.5769 24.2758 25.0482 25.3332 25.0482C26.1262 24.9161 26.3905 24.123 26.3905 23.33C26.2584 23.0657 26.1262 22.9335 25.8619 22.6692C25.7297 22.4048 25.4653 22.2727 25.201 22.0083C24.9367 21.744 24.5401 21.6118 24.0115 21.6118ZM137.149 22.0083C135.563 22.0083 133.977 22.2727 132.391 22.537C132.788 22.537 133.184 22.537 133.713 22.537L133.845 22.6692L134.11 22.9335C134.242 23.0657 134.374 23.1979 134.242 23.5944C132.656 24.123 130.937 24.6517 129.351 25.1804C127.765 25.7091 126.311 26.5021 124.858 27.4273C124.725 27.5595 124.593 27.8238 124.329 27.956C124.197 28.2203 124.065 28.3525 123.932 28.6168C123.8 28.8812 123.668 29.1455 123.8 29.4099C125.518 27.956 127.633 27.0308 129.616 26.2378C130.277 25.9734 131.07 25.7091 131.863 25.4448C132.656 25.3126 133.449 25.1804 134.242 25.4448L134.506 25.5769L134.11 26.2378C132.656 27.2951 131.07 28.0882 129.616 29.0134C128.162 29.9386 126.708 30.9959 125.651 32.582L125.518 32.8463C125.518 32.9785 125.386 32.9785 125.386 33.1106C125.386 33.2428 125.386 33.375 125.386 33.375C126.444 33.2428 127.237 32.7141 128.03 31.9211C128.426 31.5246 128.823 31.1281 129.219 30.8637C129.616 30.4672 130.144 30.2029 130.541 29.9386C131.07 29.6742 131.73 29.4099 132.259 29.1455C132.788 28.8812 133.449 28.749 134.11 29.0134L134.374 29.1455V29.4099C134.11 30.0707 133.845 30.5994 133.449 31.1281C133.052 31.6568 132.656 32.1855 132.391 32.7141C131.995 33.2428 131.73 33.7715 131.598 34.3002C132.92 32.7141 134.374 32.4498 136.092 32.8463C135.96 32.7141 135.96 32.582 135.828 32.4498C135.696 32.3176 135.696 32.1855 135.696 31.9211C135.696 31.5246 135.828 31.1281 136.224 30.9959C137.546 30.9959 138.736 31.2603 139.793 31.5246C140.85 31.7889 141.908 32.3176 142.965 32.7141C143.89 33.5072 144.815 34.0358 145.873 34.4324C146.401 34.6967 146.93 34.8289 147.459 35.0932C147.987 35.3575 148.516 35.6219 148.913 35.8862L149.045 36.0184C149.177 36.8114 148.648 37.0758 148.252 37.3401C147.987 37.4723 147.855 37.4723 147.591 37.6044L147.327 37.7366L147.591 37.8688C147.855 38.001 147.987 38.1331 148.252 38.1331C148.648 38.3975 149.177 38.6618 149.441 39.0583L149.573 39.1905L149.441 39.3227C148.648 39.9835 147.855 40.1157 147.194 40.1157C146.798 40.1157 146.401 40.1157 146.005 39.9835C145.741 39.9835 145.344 39.9835 145.08 39.9835C145.212 40.2479 145.344 40.2479 145.476 40.38L145.741 40.5122C145.873 40.5122 145.873 40.6444 146.005 40.7765C146.137 40.9087 146.269 41.1731 146.269 41.4374L146.137 41.5696C144.551 43.0234 142.568 43.6843 140.586 44.213H140.322C140.057 43.9486 139.925 43.6843 140.057 43.42C140.057 43.2878 140.189 43.1556 140.189 43.0234C140.189 42.8913 140.322 42.7591 140.454 42.7591C140.718 42.3626 140.85 42.0982 140.586 41.8339C139.529 42.0982 138.736 41.7017 137.942 41.3052C137.81 41.1731 137.546 41.1731 137.414 41.0409C137.282 40.9087 137.017 40.9087 136.885 40.9087C136.621 40.7765 136.224 40.7765 135.96 40.9087C136.224 41.4374 136.621 41.8339 137.149 42.2304C137.414 42.4948 137.678 42.7591 137.942 43.0234C138.207 43.2878 138.339 43.6843 138.471 43.9486V44.213H138.207C137.414 44.4773 136.489 44.3451 135.563 44.0808C135.035 43.9486 134.506 43.8165 133.977 43.6843L136.224 45.9312C136.092 46.7242 135.563 46.9886 135.035 47.1207C134.77 47.1207 134.506 47.2529 134.242 47.2529C133.977 47.2529 133.713 47.3851 133.581 47.5172H133.449C131.995 47.2529 130.673 46.9886 129.616 45.6669C128.691 45.006 128.426 44.0808 128.426 43.1556C128.426 42.3626 128.426 41.5696 128.426 40.7765C128.162 41.0409 127.898 41.4374 127.633 41.8339L127.765 41.9661L127.898 42.0982H127.765C126.84 43.42 126.311 45.2703 127.105 46.7242C127.501 47.6494 128.294 48.5746 129.351 48.8389C132.523 49.3676 135.431 47.6494 138.207 46.0634C139.793 45.4025 141.115 45.799 142.304 46.3277C142.965 46.592 143.494 46.9886 144.022 47.2529C144.551 47.6494 145.212 47.9138 145.741 48.0459C146.005 48.1781 146.137 48.3103 146.269 48.5746C146.269 48.7068 146.269 48.7068 146.269 48.8389C147.062 48.8389 147.987 48.7068 148.516 48.9711C149.441 48.1781 150.763 48.1781 151.953 48.1781C152.613 48.1781 153.142 48.1781 153.803 48.1781C154.332 48.1781 154.86 48.0459 155.389 47.7816C156.182 47.5172 156.314 47.1207 156.182 46.4599C156.05 46.0634 155.918 45.799 155.918 45.4025C155.786 45.006 155.653 44.7417 155.786 44.3451V44.0808H156.05C156.182 44.0808 156.314 44.213 156.446 44.213C157.504 43.0234 158.297 40.7765 158.165 39.3227C158.032 39.587 157.9 39.8513 157.636 40.1157L157.239 40.5122L157.107 40.2479C156.975 40.1157 156.975 39.9835 156.975 39.8513C156.975 39.9835 156.843 39.9835 156.843 40.1157C156.579 40.2479 156.314 40.38 156.05 40.5122C155.786 40.6444 155.653 40.6444 155.521 40.7765C155.257 40.9087 154.992 41.0409 154.992 41.5696V41.8339L154.728 41.7017C153.803 41.3052 153.671 40.6444 153.539 39.8513C153.539 39.4548 153.406 39.1905 153.406 38.794C153.406 38.3975 153.274 38.1331 153.142 37.8688C152.085 36.8114 151.16 35.4897 150.631 34.168H150.102L150.631 34.4324C150.763 34.4324 150.895 34.5645 151.027 34.5645C150.631 34.168 150.367 33.9037 150.102 33.5072H149.97L149.838 33.375C149.706 33.1106 149.441 32.9785 149.177 32.7141L148.78 32.3176C148.648 32.1855 148.516 32.0533 148.384 31.9211C147.987 31.5246 147.591 30.9959 147.855 30.2029L147.987 30.0707C150.234 29.4099 152.878 30.0707 154.86 30.9959C155.125 31.3924 155.257 31.6568 155.521 31.9211C155.786 32.1855 155.918 32.4498 156.182 32.8463L156.314 32.9785L156.446 32.7141C156.446 32.4498 156.446 32.1855 156.314 31.9211L156.05 32.1855L155.918 31.7889C155.786 31.3924 155.653 30.9959 155.521 30.7316C155.257 30.3351 155.125 30.0707 154.86 29.6742C154.332 29.0134 153.935 28.2203 153.803 27.2951V27.0308C153.406 26.3699 153.142 25.8413 152.878 25.4448H152.613L152.481 25.3126C151.82 24.5196 151.027 24.2552 150.102 24.123C149.706 24.123 149.177 24.123 148.78 24.123C148.252 24.123 147.855 24.2552 147.327 24.2552C145.476 24.3874 143.494 24.3874 142.304 22.2727C140.454 22.0083 138.868 22.0083 137.149 22.0083ZM29.827 26.2378C29.0339 26.2378 28.6374 26.8986 28.2409 27.6917C28.1088 27.956 27.9766 28.3525 27.7122 28.6168C27.5801 28.8812 27.3157 29.2777 27.0514 29.542C26.6549 30.0707 25.994 30.4672 25.201 30.4672C25.0688 31.1281 25.4653 31.6568 25.7297 32.3176C25.8619 32.3176 26.1262 32.3176 26.2584 32.3176C26.5227 32.3176 26.6549 32.1855 26.787 32.0533C28.6374 30.8637 30.8843 29.0134 31.6774 27.0308L31.2808 26.6343C30.8843 26.3699 30.4878 26.2378 30.2235 26.2378C30.0913 26.1056 29.9591 26.1056 29.827 26.2378ZM34.1886 32.1855C33.9243 32.1855 33.5277 32.1855 33.2634 32.1855C31.8095 32.3176 30.3557 32.7141 29.2983 33.375C28.9018 34.0358 29.2983 34.961 29.9591 35.3575C31.413 35.8862 32.9991 35.6219 34.7173 35.3575C35.5103 35.2254 36.4355 35.0932 37.2285 34.961C38.0215 34.8289 38.8146 34.8289 39.6076 34.8289C38.2859 33.1106 36.3033 32.3176 34.1886 32.1855ZM156.446 33.1106C156.711 33.5072 156.843 34.0358 156.579 34.6967C157.239 35.0932 157.636 35.4897 157.768 35.7541L158.561 36.0184C158.165 34.6967 157.504 33.7715 156.446 33.1106ZM158.693 56.7692C158.561 56.7692 158.429 56.7692 158.429 56.9014C158.297 59.1483 157.107 61.1308 155.786 62.4525L155.653 62.5847L155.521 62.4525C155.125 62.1882 154.86 61.7917 154.728 61.3951C154.728 61.263 154.596 60.9986 154.596 60.8665L154.464 60.6021L153.539 61.263C153.01 60.9986 152.878 60.7343 152.878 60.47C152.878 60.3378 152.878 60.2056 152.746 60.0734C152.481 60.47 152.217 60.7343 151.953 61.1308C151.688 61.5273 151.556 61.9238 151.556 62.4525C151.82 62.9812 151.953 62.9812 152.481 62.4525L152.878 62.056C153.01 61.9238 153.142 61.7917 153.274 61.6595C153.539 61.3951 153.935 61.263 154.332 61.263L154.464 61.3951C155.257 62.7169 155.125 64.8316 154.728 66.2855C155.125 66.4176 155.257 66.682 155.257 67.0785C155.257 67.2107 155.257 67.475 155.257 67.6072C155.257 67.7393 155.257 67.8715 155.257 68.0037C155.521 68.1358 155.918 68.268 156.182 68.4002C156.843 68.6645 157.504 68.7967 158.165 69.061C159.222 69.4576 160.279 69.9862 161.205 70.7793V71.0436C161.205 71.1758 161.072 71.3079 161.072 71.3079C165.17 69.9862 167.681 71.0436 168.738 75.8017C169.796 80.8242 171.646 82.2781 173.496 82.8068V82.6746C173.496 82.1459 173.761 81.7494 174.025 81.2207C174.422 80.4277 174.289 79.106 173.629 78.4452C173.232 77.52 173.364 76.5948 174.025 75.9339C174.554 75.2731 175.347 75.1409 176.14 75.0087C176.801 74.8766 177.594 75.0087 178.255 75.0087C178.122 74.8766 178.122 74.8765 177.99 74.8765C177.858 74.8765 177.858 74.8765 177.726 74.7444C175.215 74.3479 172.968 75.5374 171.382 77.6521L171.249 77.7843L171.117 77.6521C169.928 77.1235 169.531 76.1983 169.399 75.1409C169.399 74.6122 169.399 74.0835 169.399 73.5548C169.399 73.0262 169.531 72.4975 169.531 71.9688C169.267 71.3079 168.738 70.9114 167.945 70.6471C167.152 70.3827 166.227 70.2506 165.566 69.9862C165.434 69.8541 165.17 69.8541 165.037 69.8541C164.773 69.8541 164.641 69.7219 164.377 69.5897C163.98 69.4576 163.584 69.061 163.716 68.4002L163.848 68.268C164.641 67.6072 165.434 67.3428 166.227 67.0785C166.623 66.9463 167.152 66.8141 167.549 66.682C167.945 66.5498 168.21 66.4176 168.474 66.1533L168.342 66.0211C167.284 65.8889 166.095 65.7568 164.905 65.7568C163.716 65.7568 162.526 65.7568 161.469 66.0211H161.337C161.205 65.8889 161.205 65.7568 161.072 65.7568L160.808 65.8889C160.676 65.7568 160.544 65.6246 160.411 65.3603C160.411 64.6994 160.808 64.3029 161.205 63.9064C161.469 63.7742 161.601 63.6421 161.865 63.5099C161.998 63.3777 162.13 63.3777 162.262 63.2455L161.469 62.1882L161.733 62.056C162.526 61.6595 163.319 61.5273 164.112 61.6595C164.773 61.6595 165.302 61.7917 165.963 61.9238C165.566 61.3952 164.905 61.1308 164.244 60.9986C163.848 60.9986 163.319 60.8665 162.923 60.8665C162.526 60.8665 161.998 60.8665 161.733 60.8665C161.469 60.8665 161.205 60.9986 160.94 61.1308C160.676 61.263 160.411 61.5273 160.147 61.6595C159.618 62.056 158.958 62.3203 158.297 61.9238L158.165 61.7917V61.6595C158.429 60.9986 158.825 60.3378 159.09 59.5448C159.354 58.8839 159.486 58.0909 159.354 57.2979C159.222 57.0335 158.958 56.7692 158.693 56.7692ZM100.01 61.6595C99.0843 63.9064 98.5557 66.1533 98.1591 68.6645H101.067C100.935 68.268 100.803 67.7393 100.67 67.3428C100.538 66.2855 100.406 65.0959 100.274 64.0386C100.274 63.1134 100.274 62.3203 100.01 61.6595ZM110.715 90.3405C111.376 90.737 112.169 91.1335 112.83 91.53C113.887 92.0587 114.813 92.4552 116.002 92.5874L114.152 90.737C113.227 90.8692 112.434 90.737 111.641 90.6048C111.244 90.4727 110.98 90.4727 110.715 90.3405Z" stroke="#F8992E" stroke-width="1.63796" stroke-miterlimit="8.867"/>
<path d="M95.3839 19.6289L95.1195 19.8932C87.9823 27.427 89.9649 41.0405 93.93 49.2351L94.0622 49.6316L94.3265 49.2351C94.5909 48.7064 94.723 48.0456 94.8552 47.3847C94.8552 46.7239 94.8552 46.063 94.8552 45.4022C93.93 40.3797 93.4013 36.0181 94.723 30.8634C94.8552 30.3347 94.9874 29.9382 95.2517 29.4095C95.516 28.8808 95.6482 28.4843 95.9126 27.9557C96.3091 27.0305 96.7056 25.9731 96.7056 24.7836V24.9157H96.5734C95.7804 24.5192 95.516 23.8584 95.6482 22.801C95.6482 22.2723 95.6482 21.8758 95.7804 21.3471C95.7804 20.8184 95.7804 20.4219 95.6482 20.0254L95.3839 19.6289ZM139.793 24.9157C137.811 24.9157 135.96 25.9731 134.506 27.427V27.5591C134.506 27.8235 134.506 28.22 134.903 28.3522H135.167C137.546 27.2948 141.247 27.1626 143.626 27.9557H143.758L143.89 27.8235C144.023 27.5591 143.89 27.2948 143.89 27.1626L143.758 27.0305V26.8983L142.172 25.1801C141.247 24.9157 140.454 24.9157 139.793 24.9157ZM145.08 25.1801L144.816 26.3696C145.212 26.8983 145.609 27.5591 146.137 28.22C146.666 28.8808 147.195 29.4095 147.856 29.6739L147.988 29.806L148.12 29.6739C148.649 28.7487 149.442 28.6165 150.499 28.7487C151.028 28.8808 151.556 29.013 151.953 29.013C152.482 29.1452 153.01 29.2774 153.407 29.1452H153.803L153.671 28.8808C152.878 27.427 151.556 26.6339 149.97 26.1053C149.177 25.8409 148.516 25.7088 147.723 25.5766C146.93 25.4444 146.137 25.3122 145.477 25.1801H145.08ZM137.282 28.4843C137.018 28.6165 136.753 28.6165 136.621 28.7487C136.357 28.8808 136.225 28.8808 135.96 29.013C135.564 29.1452 135.167 29.4095 135.035 30.0704V30.2026H135.167C135.828 30.3347 136.489 30.4669 137.282 30.4669C138.075 30.4669 138.736 30.4669 139.529 30.5991C140.983 30.7312 142.437 30.9956 143.362 32.1851C143.494 32.1851 143.758 32.3173 144.023 32.4495C144.287 32.5816 144.551 32.5816 144.684 32.5816C145.212 32.7138 145.741 32.5816 146.137 32.1851V31.9208C145.609 29.9382 144.155 29.1452 142.437 28.8808C140.851 28.4843 138.868 28.6165 137.282 28.4843ZM73.4436 30.8634L73.3114 30.9956C72.9149 31.2599 72.6505 31.9208 72.5184 32.4495C72.3862 32.9781 72.3862 33.639 72.254 34.1677C71.461 41.7014 71.9897 49.896 77.0122 55.7115H77.1443C78.7304 55.1828 79.7877 55.9758 80.9773 57.1654L81.7703 57.9584C82.0346 58.2227 82.299 58.4871 82.6955 58.7514C83.3564 59.2801 84.0172 59.5444 84.8102 59.6766H85.2067L85.0746 59.2801C82.299 52.9359 79.2591 46.7239 77.4087 39.9832C77.1443 39.1902 77.0122 38.3971 76.88 37.7363C76.7478 36.9433 76.6157 36.1502 76.087 35.3572H75.9548C74.8974 35.3572 74.6331 34.8285 74.5009 34.1677C74.3688 33.7712 74.3688 33.3746 74.3688 32.9781C74.3688 32.5816 74.2366 32.0529 74.1044 31.6564L73.4436 30.8634ZM141.379 45.0057L142.04 45.6665C143.362 46.856 146.005 48.3099 148.252 48.1778L148.384 48.0456C148.649 47.3847 148.516 46.5917 148.252 46.063L148.12 45.9309H147.988C146.005 46.3274 144.023 45.9309 142.172 45.27L141.379 45.0057Z" fill="#0D3182"/>
<path d="M115.34 22.5352C114.811 22.5352 114.15 22.6673 113.754 23.0638C113.357 23.4604 113.093 23.989 113.093 24.5177C112.961 25.1786 113.093 25.7073 112.961 26.3681C112.961 28.7472 114.943 31.1262 116.926 32.1836V31.9193C117.058 31.3906 117.058 30.8619 116.926 30.3332C116.794 29.8045 116.662 29.2759 116.529 28.7472C116.265 27.6898 116.133 26.6324 116.794 25.5751C117.322 25.0464 117.851 25.1786 118.248 25.4429C118.38 25.5751 118.644 25.7072 118.776 25.8394C118.908 25.9716 119.173 26.1038 119.305 26.1038C119.569 26.2359 119.701 26.2359 119.834 25.9716C119.966 25.8394 119.966 25.7072 120.098 25.5751C120.098 25.4429 120.23 25.4429 120.23 25.3107C119.437 24.2534 118.38 23.3282 117.322 22.9317C116.529 22.6673 116.001 22.5352 115.34 22.5352ZM156.048 24.7821C154.991 24.9142 153.934 25.1786 152.876 25.3107C153.141 25.8394 153.537 26.3681 153.801 26.8968L154.066 27.029C154.727 27.2933 155.255 26.8968 155.784 26.5003C156.048 26.2359 156.313 26.1038 156.709 25.8394C156.974 25.5751 157.37 25.4429 157.767 25.4429H157.899L158.295 26.3681C158.031 27.4255 157.899 28.3507 157.634 29.2759C157.37 30.201 156.974 31.1262 156.313 31.7871C156.445 32.0514 156.445 32.4479 156.445 32.7123C156.841 31.5228 157.37 30.4654 157.767 29.408C158.163 28.3507 158.56 27.1611 158.56 25.8394C158.031 24.9142 157.106 24.7821 156.048 24.7821ZM120.362 30.5976C119.834 32.1836 119.834 33.9018 120.23 35.4879C120.23 37.0739 119.305 38.2635 118.115 39.1886C117.455 39.5852 116.662 39.1886 116.133 38.9243L116.001 38.7921C115.736 37.0739 115.34 35.3557 114.15 34.1662C111.11 38.66 110.317 44.6076 111.507 50.291V50.4231C111.375 50.5553 111.243 50.6875 111.11 50.8197L111.243 51.6127L111.903 51.877C112.432 56.1065 114.018 59.9394 117.322 62.9793H117.455C118.115 61.922 118.644 60.6003 118.908 59.4107C119.305 58.089 119.569 56.7673 119.966 55.3135L120.098 55.0491L120.362 55.1813C121.948 56.3708 123.138 58.2212 124.195 59.8073V59.5429C124.195 59.2786 124.327 59.0142 124.327 58.8821C124.46 58.3534 124.592 57.9569 124.988 57.5604L125.12 57.4282L125.253 57.5604C126.046 58.089 126.574 58.7499 127.103 59.4107C127.632 60.0716 128.028 60.8646 128.293 61.5255C132.919 63.3759 137.677 67.341 140.32 71.8348C143.228 73.4208 147.589 73.4208 150.762 72.2313C152.215 71.4383 153.008 69.9844 153.273 68.5305C148.911 67.0766 143.889 67.2088 139.395 68.5305H139.263L139.131 68.3983C138.073 66.6801 137.016 64.9619 135.826 63.2437C134.637 61.5255 133.183 59.9394 131.465 58.4855C130.936 57.1638 131.597 56.1065 132.258 55.1813C132.522 54.7848 132.919 54.2561 133.183 53.7274C133.447 53.3309 133.579 52.8022 133.579 52.2735C133.447 52.0092 133.315 52.0092 133.051 52.1414C132.919 52.1414 132.654 52.2735 132.522 52.2735C132.39 52.2735 132.125 52.2735 131.993 52.2735C131.2 52.4057 130.672 52.9344 130.143 53.4631C129.879 53.7274 129.614 54.1239 129.35 54.5204C129.086 54.9169 128.821 55.3135 128.689 55.5778C128.028 56.2386 127.5 55.9743 127.103 55.5778C126.839 55.4456 126.706 55.1813 126.574 55.0491L126.31 54.7848C125.913 54.9169 125.781 55.3135 125.649 55.71C125.517 55.9743 125.517 56.1065 125.385 56.3708C125.253 56.6352 125.12 56.8995 125.12 57.0317L124.988 57.296L124.856 57.0317C122.345 54.5204 121.288 50.6875 121.684 46.9867C122.081 45.0042 123.534 43.2859 125.253 42.0964C125.517 42.0964 125.649 41.9642 125.913 41.9642C126.178 41.8321 126.31 41.8321 126.574 41.6999C126.971 41.5677 127.367 41.5677 127.764 41.9642C128.028 41.5677 128.293 41.1712 128.557 40.9069C128.557 40.7747 128.557 40.6425 128.557 40.3782C128.16 39.9817 127.632 39.7173 126.971 39.5852C126.442 39.3208 125.781 39.1886 125.12 38.9243C123.931 38.5278 122.609 37.9991 121.684 36.8096C120.098 34.9592 120.098 32.5801 120.362 30.5976ZM134.637 32.4479C133.447 32.4479 132.258 32.8445 131.332 34.034C131.068 34.6948 130.936 35.2235 131.068 36.0166C131.068 36.2809 131.2 36.2809 131.465 36.4131C131.597 36.4131 131.729 36.4131 131.861 36.5452C131.993 36.5452 132.125 36.6774 132.258 36.6774C135.562 35.8844 139.659 35.4879 142.831 36.9417C142.699 36.6774 142.567 36.5452 142.435 36.2809C142.303 36.1487 142.17 35.8844 141.906 35.7522L141.377 35.2235C140.981 34.827 140.584 34.5627 140.056 34.4305C139.527 34.2983 139.131 34.1662 138.602 34.034C137.544 33.7697 136.487 33.5053 135.694 32.5801C135.562 32.5801 135.165 32.4479 134.637 32.4479ZM152.48 32.7123C152.348 32.7123 152.083 32.7123 151.951 32.7123H152.083C152.215 32.7123 152.215 32.7123 152.348 32.7123H152.612C153.008 32.8445 153.537 32.9766 153.537 33.6375V33.7697H153.405C152.744 34.034 152.215 33.9018 151.687 33.7697C151.422 33.6375 151.158 33.6375 150.894 33.5053C150.629 33.3731 150.497 33.3731 150.233 33.3731C150.497 33.6375 150.762 34.034 151.158 34.4305C151.29 34.4305 151.555 34.5627 151.819 34.5627C152.215 34.6948 152.612 34.6948 153.008 34.827C153.669 34.9592 154.462 35.3557 154.727 36.1487C154.991 36.1487 155.123 36.1487 155.255 36.1487C155.388 36.1487 155.52 36.0166 155.52 36.0166C155.652 36.0166 155.784 35.8844 155.784 35.8844C156.181 35.62 156.709 35.3557 157.37 35.7522L157.502 35.8844C157.767 36.6774 158.163 37.3383 158.295 38.1313C158.427 38.66 158.427 39.1886 158.295 39.7173C158.295 41.1712 157.502 43.4181 156.577 44.6076C157.502 45.0042 158.031 45.9293 158.295 46.7224C158.956 48.3084 158.692 49.7623 158.163 51.084C157.899 51.7448 157.502 52.4057 157.106 52.9344C156.709 53.4631 156.313 53.9917 155.916 54.6526C155.916 54.9169 156.181 54.9169 156.445 55.0491C156.577 55.0491 156.709 55.0491 156.974 55.0491H157.37C159.353 53.1987 160.542 50.8197 160.807 48.1762C160.939 47.5154 160.807 46.9867 160.542 46.458C160.41 46.1937 160.278 45.9293 160.013 45.665C159.881 45.4007 159.617 45.1363 159.485 44.872C158.692 43.9468 158.031 42.7573 158.824 41.3034C159.22 39.453 159.22 37.6026 158.692 35.8844L157.899 35.62C157.767 35.3557 157.37 35.0914 156.709 34.5627C156.709 34.5627 156.709 34.6948 156.577 34.6948L156.445 34.827L156.313 34.6948C155.916 34.5627 155.52 34.2983 155.255 34.034C154.991 33.7697 154.594 33.5053 154.198 33.241C153.537 32.9766 153.141 32.7123 152.48 32.7123ZM113.754 37.4704L114.018 37.8669C114.811 39.0565 116.133 40.5104 117.587 40.7747C118.38 41.039 119.041 40.7747 119.569 40.3782C119.834 40.246 120.098 39.9817 120.494 39.8495C120.759 39.7173 121.155 39.453 121.42 39.3208H121.552L121.684 39.453C121.948 40.1138 121.684 40.7747 121.42 41.3034C121.287 41.5677 121.155 41.8321 121.023 42.0964C120.891 42.3607 120.759 42.6251 120.759 42.8894C120.098 45.7972 119.834 49.3658 120.362 52.4057V52.5379H120.23C117.455 53.7274 116.662 56.6352 116.529 59.5429V59.8073H115.869V59.6751C112.961 53.3309 111.375 45.0042 113.754 37.8669V37.4704ZM138.205 38.1313L138.073 39.3208C138.205 39.5852 138.47 39.9817 138.866 39.8495C139.791 40.1138 139.791 38.9243 139.791 38.7921L138.866 39.8495C138.205 39.5852 138.205 38.7921 138.47 38.1313H138.205ZM137.016 38.5278L136.619 38.9243C136.751 39.0565 136.751 39.0565 136.884 39.1886C137.016 39.1886 137.016 39.3208 137.148 39.3208C137.016 39.0565 137.28 38.66 137.016 38.5278ZM156.577 38.66C156.445 38.7921 156.445 38.7921 156.445 39.0565C156.445 39.1886 156.445 39.3208 156.445 39.453C156.445 39.5852 156.445 39.5852 156.313 39.7173C156.445 39.8495 156.577 39.8495 156.577 39.9817C156.709 39.9817 156.709 40.1138 156.709 40.1138V39.453C156.709 39.1886 156.709 39.0565 156.709 38.9243C156.709 38.7921 156.709 38.66 156.577 38.66ZM155.52 38.7921L155.255 39.453H155.52V38.7921ZM154.594 38.9243C154.594 39.1886 154.462 39.5852 154.859 39.5852L154.594 38.9243ZM141.377 39.1886C141.245 39.453 140.849 39.8495 141.245 39.9817L141.377 39.8495C141.377 39.7173 141.377 39.5852 141.377 39.453C141.377 39.3208 141.51 39.1886 141.377 39.1886ZM139.791 48.3084C139.659 48.3084 139.395 48.3084 139.263 48.4406C140.188 48.7049 141.113 48.8371 141.906 49.1014C142.831 49.3658 143.756 49.6301 144.55 50.291C144.814 50.9518 144.55 51.2162 144.153 51.4805H144.021C143.096 51.3483 142.17 51.084 141.245 50.9518C140.452 50.8197 139.659 50.5553 138.866 50.5553C139.791 50.8197 140.717 51.084 141.642 51.2162C142.699 51.4805 143.757 51.7448 144.682 52.1414L144.814 52.2735V52.4057C144.814 52.8022 144.55 53.1987 144.153 53.4631H144.021C143.096 53.3309 142.17 53.0666 141.245 52.9344C140.32 52.8022 139.527 52.67 138.734 52.67V52.8022C139.131 52.9344 139.527 52.9344 140.056 52.9344C140.584 52.9344 141.113 52.9344 141.51 53.0666C142.567 53.1987 143.492 53.3309 144.417 53.8596C145.078 54.3883 144.682 54.9169 144.285 55.1813L139.659 55.0491C139.527 55.1813 139.395 55.1813 139.395 55.3135C140.188 55.5778 141.113 55.5778 142.17 55.5778C142.699 55.5778 143.228 55.5778 143.756 55.5778C144.285 55.5778 144.814 55.5778 145.21 55.71L145.871 56.1065L144.946 57.296C145.078 57.9569 145.21 58.6177 145.475 59.2786C145.739 59.8073 146.003 60.3359 146.4 60.7324C146.664 59.5429 146.929 58.3534 147.854 57.4282L147.986 57.296C148.515 57.296 148.779 57.6925 148.911 58.089C148.911 58.2212 149.043 58.4855 149.043 58.6177L149.572 57.296H149.704C150.233 57.4282 150.233 57.8247 150.365 58.2212C150.365 58.3534 150.365 58.4855 150.497 58.7499L151.158 57.4282H151.29C151.819 57.5604 151.951 57.9569 152.083 58.3534C152.083 58.4855 152.083 58.6177 152.083 58.8821L152.876 57.6925H153.008C153.273 57.8247 153.405 57.9569 153.537 58.089C153.669 58.2212 153.669 58.4855 153.669 58.6177C153.669 58.7499 153.669 59.0142 153.801 59.1464L154.859 57.4282C152.48 56.8995 149.836 56.7673 147.589 56.8995L147.061 56.6352C146.929 55.8421 147.325 55.4456 147.589 55.1813C148.647 54.9169 149.969 54.7848 151.026 54.5204C151.819 54.3883 152.48 54.1239 152.876 53.5952C152.744 53.5952 152.612 53.7274 152.48 53.7274C152.083 53.8596 151.687 53.8596 151.158 53.8596H150.894L151.026 53.5952C151.422 52.67 151.026 52.1414 150.365 51.7448C150.497 52.0092 150.629 52.1414 150.629 52.4057V52.5379L150.497 52.67C150.365 52.67 150.233 52.8022 150.233 52.8022C150.101 52.9344 149.969 52.9344 149.836 53.0666C149.572 53.1987 149.175 53.1987 148.911 52.9344C148.118 52.1414 147.854 51.2162 147.986 50.0266V49.7623L148.25 49.8945C148.382 50.0266 148.647 50.1588 148.779 50.291C148.779 50.1588 148.647 49.8945 148.647 49.6301L148.779 49.4979C148.25 49.2336 147.325 49.3658 146.532 49.3658C146.532 49.6301 146.4 49.7623 146.136 49.8945C145.475 50.1588 144.682 49.7623 144.153 49.4979C143.36 49.3658 142.435 49.1014 141.642 48.8371C140.981 48.4406 140.32 48.3084 139.791 48.3084ZM154.991 57.4282C155.123 57.9569 155.255 58.6177 155.388 59.1464C155.52 59.5429 155.652 60.0716 155.784 60.3359C156.181 59.5429 156.445 58.7499 156.709 57.8247C156.181 57.8247 155.652 57.5604 154.991 57.4282ZM138.998 59.5429C138.866 59.5429 138.602 59.6751 138.47 59.8073C138.47 60.6003 138.866 60.9968 139.527 61.2611C139.791 61.3933 140.188 61.5255 140.584 61.6576C140.849 61.7898 141.113 61.922 141.377 62.0541L142.831 60.0716L143.624 60.7324C143.624 60.6003 143.492 60.6003 143.492 60.4681C143.36 60.3359 143.228 60.2038 143.096 60.0716C142.963 59.9394 142.963 59.8073 142.831 59.8073L141.51 60.3359C141.113 60.4681 140.849 60.3359 140.584 60.2038C140.32 60.0716 140.056 59.9394 139.791 59.8073C139.395 59.6751 139.131 59.6751 138.998 59.5429ZM142.831 62.1863C142.17 63.1115 142.17 64.1689 142.17 65.4906C143.36 65.3584 144.55 65.2262 145.871 65.2262C145.739 65.0941 145.607 64.9619 145.475 64.8297C145.475 64.6976 145.343 64.5654 145.343 64.5654L145.21 64.3011C145.078 64.0367 145.078 63.7724 144.814 63.508L144.682 63.7724C144.682 63.9045 144.55 64.1689 144.55 64.3011C144.417 64.6976 144.285 65.0941 143.756 65.3584L143.624 65.2262V64.9619C143.492 64.4332 143.36 63.9045 143.228 63.3759C143.096 62.9793 142.963 62.5828 142.831 62.1863ZM153.405 63.3759C153.273 63.508 153.141 63.6402 153.141 63.7724C153.008 64.0367 152.876 64.1689 152.744 64.4332C152.48 64.8297 152.083 65.3584 151.555 65.6228H151.422C151.158 65.3584 151.158 65.2262 151.026 65.0941C151.026 64.9619 150.894 64.8297 150.894 64.6976C150.894 64.5654 150.762 64.4332 150.762 64.3011C150.497 64.6976 150.233 64.9619 150.101 65.3584L149.836 65.4906C149.308 65.4906 149.175 65.0941 149.175 64.8297C149.175 64.6976 149.175 64.5654 149.175 64.4332L148.25 65.4906C149.969 65.6228 151.687 65.8871 153.273 66.4158C153.405 66.0193 153.537 65.4906 153.537 64.9619C153.537 64.1689 153.537 63.6402 153.405 63.3759ZM147.061 63.7724L146.268 65.0941C146.664 65.0941 147.061 65.0941 147.589 65.0941C147.589 64.9619 147.457 64.8297 147.457 64.6976C147.457 64.5654 147.325 64.4332 147.325 64.1689C147.193 64.1689 147.193 63.9045 147.061 63.7724ZM121.684 68.927C121.288 69.0592 121.023 69.3235 120.759 69.5879C119.173 70.7774 119.305 73.0243 119.701 74.7425C120.362 75.5355 120.759 77.2538 122.081 76.9894V68.927C121.948 68.927 121.816 68.927 121.684 68.927ZM163.846 71.0418C163.053 71.0418 162.128 71.1739 161.071 71.5704C160.806 72.0991 160.278 72.2313 159.749 72.3635C159.485 72.4956 159.088 72.4956 158.824 72.4956C159.617 72.6278 160.542 72.6278 161.467 72.8921C162.525 73.1565 163.582 73.6852 163.979 74.7425C163.846 75.9321 162.789 75.7999 162.26 75.4034C161.071 75.139 159.881 75.139 159.353 76.1964C159.088 76.9894 159.22 77.9146 159.881 78.4433C160.542 79.2363 161.467 79.5007 162.393 79.6328C162.921 79.6328 163.318 79.6328 163.846 79.6328C164.375 79.6328 164.904 79.5007 165.3 79.5007L165.432 79.6328C165.961 80.2937 166.093 81.0867 166.093 81.8797C166.093 82.2762 166.093 82.6728 166.093 83.0693C166.093 83.4658 166.093 83.8623 166.225 84.2588C166.49 85.0518 167.151 85.7127 167.812 86.3735C168.472 87.0344 169.265 87.5631 169.926 88.2239C171.38 89.4135 172.57 90.7352 172.173 92.9821C172.702 93.5107 173.495 93.7751 174.288 93.6429C173.759 92.7177 173.231 91.7925 172.834 90.7352C172.438 89.6778 172.173 88.4883 172.173 87.1666C172.305 86.5057 172.702 85.977 173.098 85.5805C173.495 85.184 174.024 84.7875 174.42 84.391C174.552 83.9945 174.42 83.9945 174.288 83.8623C174.288 83.8623 174.156 83.8623 174.156 83.7301L173.891 83.598C173.759 83.4658 173.627 83.4658 173.495 83.3336C171.512 82.8049 169.794 81.3511 168.737 76.3286C167.944 72.4956 166.226 71.0418 163.846 71.0418ZM177.328 76.8573C177.063 76.8573 176.799 76.8573 176.535 76.8573L176.138 76.9894C176.006 76.9894 175.874 77.1216 175.874 77.1216C175.742 77.2538 175.61 77.3859 175.61 77.5181C176.006 78.3111 176.138 79.1042 176.006 79.8972C176.006 80.558 175.874 81.2189 175.742 81.7476C176.535 81.4832 177.196 81.2189 177.857 80.6902C178.121 80.2937 178.517 79.765 178.782 79.3685C179.046 78.972 179.178 78.4433 179.178 77.9146C178.914 77.2538 178.121 76.9894 177.328 76.8573ZM181.293 77.5181C181.161 78.3111 181.557 78.5755 182.218 78.972C182.615 79.1042 183.011 79.3685 183.275 79.5007C183.408 79.6328 183.672 79.765 183.804 79.765L183.672 78.972C183.011 78.3111 182.086 77.3859 181.293 77.5181ZM130.672 80.4259C130.539 80.4259 130.539 80.558 130.539 80.6902C130.539 80.8224 130.539 80.9545 130.539 80.9545C130.539 81.0867 130.539 81.0867 130.539 81.2189C130.539 81.3511 130.672 81.3511 130.672 81.4832L130.804 81.8797C130.936 82.1441 130.936 82.4084 131.068 82.6728C131.332 83.0693 131.597 83.3336 132.125 82.9371C133.315 82.5406 134.505 82.1441 134.901 81.3511C134.24 81.0867 133.579 80.9545 132.919 80.8224C132.125 80.6902 131.465 80.558 130.672 80.4259ZM181.954 80.558C181.557 80.558 181.425 80.8224 181.293 81.0867C181.161 81.3511 181.293 81.8797 181.293 82.1441C181.029 83.3336 179.971 84.1266 179.046 84.5231C179.046 84.5231 179.178 84.5231 179.178 84.6553C180.236 85.184 181.954 85.0518 182.879 84.2588C183.672 83.598 183.936 82.6728 183.672 81.7476C183.408 81.0867 182.747 80.558 181.954 80.558ZM179.707 81.0867L178.914 82.2762C178.914 82.4084 179.046 82.4084 179.178 82.4084C179.31 82.1441 179.575 81.8797 179.575 81.6154C179.707 81.4832 179.707 81.2189 179.707 81.0867ZM135.43 85.4483C133.976 85.8449 132.39 85.8449 130.936 85.4483C130.539 85.8449 130.275 86.3735 130.407 87.0344C130.539 87.1666 130.672 87.4309 130.804 87.5631C130.936 87.6952 131.2 87.8274 131.465 87.6952C133.051 87.2987 134.901 86.9022 135.43 85.4483ZM182.747 86.2414C182.615 86.2414 182.482 86.3735 182.482 86.5057C182.35 86.77 182.218 87.0344 182.086 87.2987C181.954 87.5631 181.822 87.8274 181.425 87.9596C181.293 88.0918 181.161 88.2239 181.029 88.2239L180.5 88.4883C180.236 88.6204 180.103 88.7526 179.971 88.8848C180.764 89.2813 181.822 89.5456 182.747 89.2813C183.54 89.0169 184.333 88.2239 184.201 87.2987L183.54 86.3735C183.143 86.3735 182.879 86.2414 182.747 86.2414ZM130.275 89.81C130.011 89.81 129.879 89.81 129.614 90.0743C129.614 90.4708 129.482 90.8673 129.35 91.2638C129.35 91.6604 129.35 91.9247 129.482 92.189C129.879 92.189 130.407 92.189 130.804 92.189C131.332 92.189 131.729 92.189 131.993 91.9247C132.654 91.5282 133.315 90.9995 133.712 90.3387C133.447 90.4708 133.183 90.4708 132.919 90.4708C132.522 90.603 132.125 90.4708 131.861 90.4708C131.465 90.3386 131.2 90.2065 130.936 90.0743C130.804 89.81 130.539 89.81 130.275 89.81ZM183.143 91.6604C182.482 91.6604 181.822 92.0569 181.557 92.8499C181.293 93.1142 181.161 93.1142 180.896 93.2464C180.632 93.2464 180.5 93.3786 180.236 93.3786C179.839 93.5107 179.707 93.5107 179.707 93.7751C180.5 94.9646 181.822 94.9646 183.143 94.7003C183.804 94.3038 184.597 93.6429 184.465 92.8499C184.333 92.0569 183.672 91.6604 183.143 91.6604ZM176.931 94.1716C176.667 94.1716 176.27 94.3038 175.874 94.4359C175.345 94.5681 174.817 94.8325 174.288 94.9646C173.891 95.0968 173.627 95.0968 173.231 94.9646C174.024 96.022 175.477 96.5507 177.063 96.5507C177.196 96.4185 177.328 96.2863 177.46 96.2863L177.724 96.1542C177.857 96.1542 177.857 96.022 177.989 96.022C178.121 95.8898 178.253 95.7576 178.121 95.229C177.857 94.4359 177.46 94.1716 176.931 94.1716ZM128.293 94.5681C127.764 94.8324 127.5 95.3611 127.367 95.8898C127.764 96.1542 128.293 96.2863 128.953 96.4185C129.614 96.4185 130.275 96.4185 130.804 96.4185C131.465 96.1542 132.258 95.7576 132.522 95.229C131.068 95.7576 129.482 95.0968 128.293 94.5681ZM126.178 97.2115C125.913 97.2115 125.517 97.4759 125.253 98.0045L125.12 98.4011C125.12 98.5332 124.988 98.6654 124.988 98.9297C124.988 99.1941 124.988 99.3262 125.253 99.4584C126.706 99.5906 128.425 99.4584 129.482 98.4011C129.086 98.4011 128.821 98.4011 128.557 98.2689C128.293 98.1367 128.16 98.0045 127.896 98.0045C127.632 97.8724 127.5 97.7402 127.235 97.608C126.839 97.3437 126.574 97.2115 126.178 97.2115Z" fill="white"/>
</g>
<defs>
<clipPath id="clip0_107_20207">
<rect width="200" height="200" fill="white"/>
</clipPath>
</defs>
</svg>
