<svg width="200" height="200" viewBox="0 0 200 200" fill="none" xmlns="http://www.w3.org/2000/svg">
<g clip-path="url(#clip0_107_20180)">
<path d="M164.714 0.00460815L160.947 10.9851H148.956L158.788 18.2442L155.204 29.8671L164.899 22.884L174.638 29.7753L170.963 18.2442L180.151 10.9851H168.482L164.714 0.00460815ZM41.7734 41.3065V59.5H50.5949V121.8H41.7734V140.82H82.0188V121.8H73.4736V77.9719L110.688 140.82H138.529V59.5034H146.799V41.3098H106.828V59.5034H115.924V98.0962L82.0174 41.3092L41.7734 41.3065Z" fill="#B5A67C" stroke="#10234E" stroke-width="2.96558"/>
<path d="M34.6342 149.605V156.318H36.9943V173.771H34.6113V180.508H48.8057V173.771H46.4332V166.67L54.3915 180.508H64.1936V156.318H66.5775V149.605H52.4058V156.318H54.7897V163.443L46.7823 149.605H34.6342ZM75.384 149.605L68.1277 173.771H65.7959V180.508H79.9676V173.771H77.8069L78.1457 172.625H85.0851L85.4298 173.771H83.3202V180.508H97.4912V173.771H95.1008L87.8557 149.605H75.384ZM91.6755 149.605V156.318H94.554L102.672 180.508H111.973L120.057 156.318H122.934V149.605H108.775V156.318H110.315L109.985 157.306C109.644 158.325 109.264 159.46 108.855 160.705C108.273 162.407 107.766 163.911 107.302 165.319C107.089 164.682 106.884 164.065 106.685 163.466C106.356 162.476 106.044 161.536 105.743 160.65L105.573 160.145C105.105 158.758 104.676 157.485 104.291 156.318H105.835V149.605L91.6755 149.605ZM124.359 149.605V156.318H127.722L134.424 169.063V173.771H132.123V180.508H146.295V173.771H144.017V169.09L150.905 156.317H153.824V149.604H139.971V156.317H141.015L139.245 159.872L137.437 156.317H138.541V149.604L124.359 149.605ZM81.6283 161.096L83.0603 165.912H80.1823L81.6283 161.096Z" fill="#10234E"/>
<path d="M35.8841 150.857V155.071H38.2437V175.024H35.8613V179.262H47.5564V175.024H45.1843V161.995L55.1158 179.262H62.9448V155.071H65.3287V150.857H53.656V155.071H56.0399V168.1L46.0627 150.857H35.8841ZM76.3123 150.857L69.0539 175.024H67.043V179.262H78.7157V175.024H76.1319L77.2103 171.379H86.0114L87.1076 175.024H84.5674V179.262H96.2394V175.024H94.169L86.9235 150.857H76.3123ZM92.9225 150.857V155.071H95.4497L103.569 179.262H111.072L119.156 155.071H121.683V150.857H110.022V155.071H112.044L111.169 157.706C110.828 158.723 110.449 159.855 110.039 161.107C109.201 163.55 108.523 165.577 107.904 167.499L107.325 169.293L106.718 167.509C106.281 166.223 105.878 165.008 105.497 163.863C105.17 162.875 104.858 161.939 104.557 161.053L104.387 160.547C103.807 158.825 103.285 157.278 102.833 155.889L102.566 155.071H104.584V150.857L92.9225 150.857ZM125.606 150.857V155.071H128.474L135.672 168.758V175.024H133.371V179.261H145.043V175.024H142.766V168.778L150.156 155.071H152.572V150.857H141.218V155.071H143.031L139.254 162.656L135.398 155.071H137.29V150.857H125.606ZM81.6328 156.735L84.733 167.165H78.4999L81.6328 156.735Z" fill="#B5A67C"/>
</g>
<defs>
<clipPath id="clip0_107_20180">
<rect width="200" height="200" fill="white"/>
</clipPath>
</defs>
</svg>
