<svg width="200" height="200" viewBox="0 0 200 200" fill="none" xmlns="http://www.w3.org/2000/svg">
<path d="M44.7381 22.3086C44.7381 22.3086 41.4953 23.7678 40.4144 26.0377C39.2795 28.2536 33.3885 41.3866 33.3885 41.3866L33.3345 41.4407C32.9562 42.4675 32.5778 43.8727 32.5778 45.44C32.5778 47.5478 33.2804 49.9798 35.3882 52.3578C34.4694 54.3035 31.2267 60.897 31.2267 60.897L31.1727 60.9511C30.6322 62.2482 30.416 63.4912 30.416 64.6262C30.416 68.9498 33.7668 72.0304 36.1989 73.7598C34.9018 76.5702 32.4157 81.8666 32.4157 81.8666C31.9293 82.8935 31.7131 83.8663 31.7131 84.7851C31.7131 89.2709 36.7934 92.2434 38.9552 93.4864L39.5497 93.8107C40.7387 94.5133 69.3287 111.592 96.5136 127.751C85.5964 127.751 69.1125 127.751 69.1125 127.751C64.951 127.751 65.0591 127.697 63.2756 127.211C60.8436 126.562 56.7902 125.049 56.7902 125.049C56.7902 125.049 56.9523 128.4 59.7086 130.994C62.465 133.588 64.7889 135.75 64.7889 135.75L65.1132 136.074C65.8158 136.777 67.0588 138.02 68.7342 138.939C69.0585 139.749 69.7611 140.398 70.2475 140.884L72.085 142.722L74.8414 145.424L75.2737 145.802C76.0844 146.505 77.1113 147.37 78.4624 147.964L78.03 148.451L83.0563 153.369C86.0828 156.287 89.1093 157.476 96.3514 155.477C98.5673 154.828 107.917 151.91 111.052 150.937C112.457 151.531 116.781 153.423 117.753 153.855C124.077 162.394 131.319 167.961 134.832 170.393C134.724 170.934 134.616 171.474 134.616 172.014C134.616 173.636 134.832 174.5 135.588 175.419C136.345 176.338 138.237 177.689 138.237 177.689L140.615 175.041C142.29 173.366 144.182 172.231 145.911 172.231C145.911 172.285 145.911 172.393 145.911 172.447C145.911 172.555 145.911 172.663 145.911 172.717C145.911 174.663 147.424 175.311 147.749 175.473L149.694 176.23L150.991 174.555C154.775 169.745 153.748 166.502 152.288 164.61C150.235 161.962 146.884 162.124 144.56 162.611C143.695 161.097 143.155 160.016 142.182 158.287C143.425 157.584 144.398 157.044 145.587 156.341C147.37 156.666 148.938 156.99 149.856 157.152L150.613 158.449L151.964 158.611C154.612 158.989 157.044 158.827 157.909 159.476C158.828 160.178 155.909 164.124 155.909 164.124C156.396 164.016 165.205 163.367 167.908 160.773C168.286 160.449 169.529 159.206 169.583 157.152C169.583 157.098 169.583 156.99 169.583 156.936C169.583 155.855 169.205 154.233 167.637 152.666L167.583 152.612C167.583 152.612 166.394 151.477 165.367 150.558C165.476 149.964 165.53 149.369 165.53 148.721C165.53 146.397 164.719 143.587 162.125 141.154L151.153 130.994L146.56 126.778C146.289 126.508 146.073 126.292 145.803 126.076C149.154 104.35 134.453 87.8116 128.833 81.4883L127.914 80.4615C127.914 80.4615 126.833 81.3802 125.752 82.3531C126.833 81.4343 127.914 80.4615 127.914 80.4615C126.833 79.2184 89.0013 36.7387 87.3799 34.9012C85.9747 33.3339 85.7045 32.1449 85.7045 31.4963C85.164 28.794 85.3262 24.2542 85.3262 24.2542C85.3262 24.2542 82.4077 25.173 80.6242 28.5238C79.9757 30.0371 75.9223 39.1708 75.9223 39.1708V39.3869C75.598 40.3057 75.4359 41.1704 75.4359 41.9271C75.4359 44.7915 77.2194 46.7912 78.4084 48.1423L78.7326 48.5206C78.7867 48.5747 78.8407 48.6287 78.9488 48.7368C78.1381 50.5203 75.2197 57.1679 75.2197 57.1679L75.1656 57.33C74.9494 58.0326 74.8414 58.7352 74.8414 59.3838C74.8414 59.5459 74.8414 59.654 74.8414 59.7621C63.0054 48.6828 47.4403 34.1445 47.4403 34.1445C45.873 32.307 45.4406 31.0099 45.1704 29.4426C44.9002 27.8753 44.7381 22.3086 44.7381 22.3086ZM167.962 160.935L167.908 160.989L168.016 160.881C167.962 160.935 167.962 160.935 167.962 160.935ZM158.504 160.124C158.558 160.124 158.612 160.178 158.612 160.178C158.612 160.178 158.504 160.178 158.504 160.124Z" fill="black"/>
<path d="M42.9546 27.1719L36.0368 42.4667C34.1992 47.2768 37.0637 50.3033 39.0633 51.9247C41.063 53.546 106.782 106.727 106.782 106.727L106.836 108.943L41.4413 58.7884C38.1986 56.3564 38.5769 52.357 38.5769 52.357L33.875 62.0852C31.6051 67.5979 37.2258 71.1108 39.6038 72.6781C41.9818 74.2995 107.107 119.644 107.107 119.644L107.701 122.346C107.701 122.346 44.576 80.3526 42.252 78.8933C39.4416 77.1639 39.6578 73.2186 39.6578 73.2186L35.0099 83.1629C33.0643 87.2163 38.5769 90.0267 41.009 91.4859C42.4141 92.3507 77.7599 113.428 106.836 130.723H69.0585C63.4919 130.723 61.6543 129.047 61.6543 129.047L66.7346 133.803C67.5993 134.614 69.8692 137.479 73.22 137.479C75.598 137.479 87.1638 137.479 87.1638 137.479L89.9201 138.668L77.7599 139.64C75.3278 139.748 74.6793 140.019 71.4365 138.235C71.3825 138.235 76.8411 143.532 76.8411 143.532C78.3544 144.829 79.5434 146.072 82.1375 145.856C84.7317 145.639 99.9725 143.099 99.9725 143.099L102.405 144.18L86.4071 147.693C82.732 148.504 80.1379 146.612 80.1379 146.612C80.1379 146.612 83.1644 149.585 85.1641 151.53C87.2178 153.53 89.1094 154.773 95.7029 152.936C98.2971 152.179 111.322 148.071 111.322 148.071L119.699 151.747C128.13 163.42 138.615 169.582 138.615 169.582C136.615 171.96 138.291 174.716 138.291 174.716C140.02 171.203 143.911 169.257 146.884 169.69C149.424 170.068 148.776 173.203 148.83 173.095C150.397 171.095 151.694 168.663 150.127 166.663C148.181 164.177 143.263 166.339 143.263 166.339L138.453 157.529L144.992 153.8C148.559 131.047 130.346 115.536 130.346 115.536L45.4407 36.1975C41.3873 32.1981 42.9546 27.1719 42.9546 27.1719ZM83.1644 30.0363L78.5705 40.3049C77.5437 43.1153 79.4353 44.9528 80.8404 46.5742C82.2456 48.1955 123.644 91.4319 123.644 91.4319L123.374 93.8099L84.1913 54.735C81.0566 51.4923 81.9214 49.0603 82.0294 48.736L77.8139 58.1939C76.8411 61.1124 79.8676 63.058 81.9214 65.0577C84.1372 67.1655 127.752 107.97 131.319 111.213C138.939 118.184 142.668 127.372 142.668 127.372C147.046 104.835 129.968 87.4325 125.698 82.5144C124.617 81.2713 85.2181 37.0081 85.2181 37.0081C81.8673 33.225 83.1104 30.2525 83.1644 30.0363ZM142.777 127.372C143.587 129.966 148.181 138.235 145.749 153.638L151.694 154.773L152.397 155.962C152.397 155.962 159.152 156.881 160.233 157.854C160.233 157.854 162.557 159.475 160.071 161.691C160.071 161.691 163.908 160.934 166.07 158.827C166.07 158.827 168.016 157.151 165.746 154.773L162.287 151.584C161.152 151.206 159.152 152.017 159.152 152.017C158.666 149.152 155.477 145.261 155.477 145.261C155.477 145.261 161.855 151.206 162.233 151.584C162.287 151.422 164.287 147.153 160.287 143.424C154.234 137.803 142.722 127.318 142.777 127.372Z" fill="#00853E"/>
</svg>
