<svg width="200" height="200" viewBox="0 0 200 200" fill="none" xmlns="http://www.w3.org/2000/svg">
<path d="M54.2041 157.221C54.2097 157.217 54.217 157.213 54.2256 157.207C54.2323 157.203 54.2473 157.192 54.2676 157.179C54.2648 157.18 54.2623 157.182 54.2598 157.184C53.3237 157.814 52.0474 157.748 51.1797 156.956C50.1722 156.036 50.089 154.478 50.9922 153.455C51.0106 153.434 51.0313 153.416 51.0498 153.396L51.0479 153.394C51.0814 153.358 51.1162 153.328 51.1465 153.299C51.1641 153.282 51.1801 153.265 51.1973 153.249C51.2524 153.199 51.2942 153.165 51.3125 153.15C51.317 153.147 51.3219 153.144 51.3262 153.141C51.4433 153.047 51.528 152.992 51.5371 152.986C51.6015 152.944 51.6638 152.908 51.7129 152.88C51.7779 152.836 51.8741 152.77 51.9912 152.677C52.2596 152.464 52.6393 152.118 53.0254 151.616C53.7757 150.641 54.625 148.986 54.625 146.344V113.973C54.0019 113.97 53.3737 113.967 52.8848 113.967C52.3284 113.966 52.0833 113.968 52.1084 113.967L51.8721 113.969C46.968 113.778 46.1251 115.184 45.9912 115.447C45.8598 115.706 45.8186 116.013 45.8369 116.319C45.8456 116.465 45.8661 116.584 45.8818 116.656C45.8895 116.691 45.8955 116.712 45.8965 116.716C45.8969 116.717 45.8959 116.715 45.8936 116.707C45.8924 116.703 45.8907 116.698 45.8887 116.691C45.8877 116.688 45.887 116.684 45.8857 116.681C45.8851 116.679 45.8845 116.677 45.8838 116.675C45.8834 116.674 45.882 116.672 45.8818 116.672C46.1772 117.557 45.9553 118.533 45.3057 119.203C44.6552 119.874 43.6848 120.126 42.79 119.856L43.5107 117.463C42.7902 119.857 42.788 119.856 42.7861 119.855C42.7853 119.855 42.7833 119.855 42.7822 119.854C42.78 119.854 42.7777 119.853 42.7754 119.853C42.7702 119.851 42.7643 119.849 42.7588 119.848C42.7477 119.844 42.7358 119.84 42.7236 119.836C42.6994 119.828 42.6731 119.819 42.6445 119.809C42.5869 119.788 42.5205 119.762 42.4463 119.731C42.2977 119.67 42.1177 119.586 41.9121 119.473C41.4998 119.246 40.9909 118.906 40.4268 118.405C39.2943 117.399 37.9813 115.78 36.7686 113.193C35.3981 110.271 34.8008 106.532 34.7471 103.053C34.6935 99.5803 35.177 96.0084 36.2539 93.3994L36.3975 93.0635C37.9039 89.6429 40.2211 87.74 42.8555 86.791C45.3891 85.8784 48.0913 85.9111 50.0312 85.9111C50.8758 85.9111 52.6401 85.8742 54.209 85.8262C54.3759 85.8211 54.5397 85.8158 54.6992 85.8105C54.624 71.2131 54.625 71.7092 54.625 69.1689C54.625 63.9049 57.9796 60.2955 60.9062 58.1436C62.4013 57.0443 63.8965 56.238 65.04 55.6953C65.6152 55.4224 66.1092 55.212 66.4805 55.0625C66.6663 54.9876 66.821 54.9282 66.9385 54.8838C66.9969 54.8617 67.0456 54.8436 67.082 54.8301C67.0929 54.826 67.102 54.8231 67.1094 54.8203L75.2119 51.4932C74.4368 51.5913 73.6298 51.6679 72.79 51.7158C65.2032 52.1493 58.4728 49.1897 54.7344 47.7773C54.6562 47.7478 54.5802 47.715 54.5068 47.6787C54.5146 47.6825 54.5198 47.6847 54.5215 47.6855C54.5396 47.6944 54.5545 47.7018 54.5615 47.7051C54.5762 47.7119 54.5877 47.7169 54.5918 47.7188L54.5977 47.7217C54.578 47.7134 54.5376 47.6964 54.4775 47.6729C54.3577 47.6258 54.1658 47.5534 53.9141 47.4678C53.4086 47.2959 52.6734 47.074 51.7959 46.8906C50.002 46.5158 47.8063 46.3418 45.7861 46.8945H45.7852C44.5471 47.2327 42.8402 48.5276 41.1602 50.1846C39.4934 51.8285 38.5216 53.1091 38.0869 53.5811C37.3892 54.3385 36.2982 54.5912 35.3389 54.2168C34.3796 53.8423 33.7481 52.9175 33.748 51.8877V50.4834C33.748 50.449 33.7486 50.4142 33.75 50.3799V50.376C33.7501 50.3737 33.7508 50.3703 33.751 50.3662C33.7513 50.3578 33.7513 50.3456 33.752 50.3301C33.7533 50.2991 33.7552 50.2543 33.7578 50.1973C33.7631 50.083 33.7709 49.9191 33.7812 49.7188C33.802 49.3185 33.8333 48.7677 33.875 48.1689C33.9518 47.0667 34.0797 45.5634 34.2842 44.624L34.2832 44.623C36.5243 33.7172 41.5052 28.0619 46.5498 25.251C51.4854 22.5009 56.1091 22.6998 57.1484 22.71C58.9549 22.7269 63.2092 23.2372 66.0908 24.1123H66.0918C66.7191 24.3031 68.1944 24.8723 69.8145 25.4531C71.5421 26.0726 73.6988 26.807 76.0195 27.458C80.8137 28.803 85.7714 29.6284 89.0957 28.8135C89.1338 28.8041 89.1725 28.7956 89.2109 28.7881C91.0799 28.422 93.2874 27.0064 95.2002 25.4238C96.1121 24.6694 96.8786 23.9434 97.4092 23.4141C97.6736 23.1503 97.8765 22.9379 98.0059 22.7998C98.0707 22.7305 98.1153 22.6812 98.1387 22.6553C98.1518 22.6407 98.1533 22.6396 98.1465 22.6475C98.1443 22.65 98.1378 22.6567 98.1299 22.666C98.1289 22.6672 98.1089 22.6918 98.082 22.7256C98.1346 22.6596 98.1898 22.5957 98.249 22.5352C98.2574 22.5266 98.2787 22.5054 98.3057 22.4795C98.3199 22.4659 98.356 22.4318 98.3779 22.4121C98.4161 22.379 98.5344 22.2844 98.6172 22.2246C98.8917 22.0599 101.005 21.9758 102.312 23.2432C102.463 23.8982 102.395 24.6352 102.308 25.1035C102.388 25.1326 102.389 25.1317 102.389 25.1318L102.388 25.1328C102.387 25.1336 102.387 25.1346 102.387 25.1357C102.386 25.1382 102.384 25.1414 102.383 25.1455C102.38 25.154 102.376 25.1664 102.37 25.1816C102.359 25.2124 102.342 25.2567 102.321 25.3135C102.279 25.4269 102.218 25.5911 102.139 25.7998C101.98 26.2175 101.747 26.8151 101.451 27.543C100.86 28.9964 100.008 30.9839 98.9697 33.1133C97.9346 35.2363 96.6951 37.5401 95.3213 39.6094C94.4515 40.9195 93.4818 42.2046 92.4277 43.3047L109.821 31.7764C109.834 31.7679 109.847 31.7592 109.859 31.751L127.5 20.5244C128.08 20.1496 128.809 20.0161 129.521 20.2119H129.521C129.657 20.2492 129.786 20.2995 129.911 20.3574L129.912 20.3555C149.587 29.5083 149.085 53.0552 148.993 52.4502V52.4531C149.434 55.3823 149.179 60.1722 148.097 65.3779C147.005 70.6281 145.018 76.5584 141.805 81.7344C140.748 83.4361 136.292 89.3501 129.303 95.2891C129.476 95.4235 129.648 95.5566 129.812 95.6904C131.427 97.0051 132.973 98.5576 133.491 99.1152V99.1162C136.428 102.279 138.757 106.567 140.552 110.666C142.361 114.798 143.704 118.919 144.604 121.86C144.699 122.174 146.195 127.965 147.682 133.644C148.436 136.525 149.199 139.419 149.801 141.656C150.102 142.776 150.36 143.724 150.557 144.42C150.785 145.229 150.869 145.477 150.842 145.414V145.415C151.816 147.681 152.36 148.849 152.947 149.636C153.41 150.256 153.93 150.677 155.099 151.136C156.671 151.751 158.011 151.606 162.578 149.18C163.577 148.649 164.808 148.855 165.579 149.682C166.351 150.508 166.471 151.75 165.873 152.71L165.872 152.711C165.871 152.712 165.871 152.714 165.869 152.717C165.866 152.722 165.861 152.729 165.855 152.738C165.844 152.757 165.827 152.786 165.804 152.822C165.758 152.896 165.689 153.006 165.603 153.146C165.429 153.426 165.177 153.829 164.871 154.324C164.258 155.315 163.424 156.668 162.535 158.121C160.74 161.055 158.777 164.311 157.943 165.849L154.106 172.971C153.453 174.187 152.862 175.291 152.434 176.09C152.219 176.489 152.046 176.813 151.926 177.036C151.866 177.148 151.82 177.235 151.788 177.294C151.772 177.323 151.76 177.345 151.752 177.36L151.741 177.382L151.74 177.383C151.371 178.071 150.702 178.549 149.931 178.672L149.546 176.263C149.93 178.672 149.929 178.672 149.928 178.672H149.925C149.923 178.672 149.921 178.673 149.919 178.673C149.915 178.673 149.91 178.675 149.905 178.676C149.895 178.677 149.883 178.679 149.869 178.681C149.842 178.685 149.807 178.689 149.766 178.694C149.683 178.705 149.572 178.717 149.436 178.729C149.162 178.754 148.784 178.778 148.314 178.784C147.376 178.796 146.067 178.734 144.499 178.453C141.351 177.89 137.181 176.449 132.894 173.003V173.002C129.954 170.638 127.875 167.165 126.401 163.972C125.671 162.39 125.061 160.812 124.556 159.38C124.261 159.729 123.956 160.095 123.648 160.47C122.714 161.607 121.783 162.774 121.085 163.66C120.736 164.102 120.446 164.474 120.244 164.733C120.143 164.863 120.064 164.965 120.011 165.034C119.987 165.065 119.968 165.089 119.954 165.106L109.993 178.843C109.24 179.881 107.823 180.181 106.714 179.536H106.712C106.711 179.535 106.709 179.534 106.706 179.532C106.7 179.529 106.691 179.524 106.679 179.517C106.655 179.503 106.619 179.482 106.571 179.454C106.475 179.399 106.332 179.317 106.148 179.212C105.781 179.002 105.247 178.699 104.588 178.33C103.268 177.592 101.449 176.591 99.4492 175.542C95.3587 173.397 90.8043 171.206 88.1426 170.481L88.0742 170.462C79.3242 167.81 70.4291 168.745 65.2539 170.086H65.2529C61.4289 171.076 56.8132 173.266 53.0469 175.29C51.1877 176.289 49.579 177.224 48.4365 177.908C47.866 178.25 47.4129 178.528 47.1045 178.72C46.9503 178.816 46.8322 178.89 46.7539 178.939C46.7148 178.964 46.6859 178.983 46.667 178.995C46.6577 179.001 46.6507 179.005 46.6465 179.008L46.6416 179.011C45.7006 179.614 44.473 179.52 43.6357 178.779C42.7985 178.039 42.5546 176.832 43.0381 175.824H43.0391V175.822C43.0395 175.821 43.0404 175.821 43.041 175.819C43.0422 175.817 43.0439 175.814 43.0459 175.81C43.05 175.801 43.0553 175.788 43.0625 175.773C43.077 175.744 43.0976 175.701 43.124 175.647C43.1769 175.54 43.2537 175.387 43.3496 175.198C43.5411 174.821 43.8132 174.298 44.1387 173.708C44.7528 172.595 45.6225 171.128 46.5332 169.973C52.3393 161.332 63.9072 149.529 77.6914 144.722C77.6106 144.637 77.533 144.548 77.4629 144.45C76.6571 143.33 76.9121 141.768 78.0322 140.962C80.5135 139.176 81.5936 137.417 82.1025 136.082C82.6291 134.7 82.6078 133.675 82.6719 132.829V132.828C82.6672 132.892 82.6741 132.454 82.6816 131.367C82.6885 130.375 82.6966 128.975 82.7061 127.305C82.7249 123.964 82.7476 119.541 82.7695 115.13C82.7915 110.719 82.8125 106.318 82.8281 103.021C82.836 101.372 82.8432 99.9989 82.8477 99.0381C82.8499 98.5577 82.8513 98.1801 82.8525 97.9229C82.8531 97.7942 82.8532 97.6954 82.8535 97.6289C82.8537 97.5957 82.8544 97.5706 82.8545 97.5537V62.4229C82.8545 62.2216 82.9372 60.2928 83.2832 57.959C83.6192 55.6927 84.2606 52.6091 85.5674 50.3857V50.3848C86.4727 48.8461 87.3715 47.6148 88.4463 46.501C86.9477 47.5343 84.8969 48.7732 82.1895 49.791C82.3023 49.8642 82.4112 49.9458 82.5127 50.0381C83.2268 50.6876 83.5031 51.6906 83.2227 52.6143C82.9701 53.4456 81.5263 56.3325 80.709 60.9824C80.708 60.9882 80.7061 60.9942 80.7051 61C80.6123 61.5068 80.5102 63.1198 80.4307 64.7002C80.3912 65.484 80.3666 66.0538 80.3438 66.5146C80.3373 66.6449 80.3261 66.8179 80.3154 66.9521V127.742C80.3173 127.741 81.4861 137.065 72.9414 144.524L72.5264 144.879C67.1876 149.339 62.6217 152.387 59.3447 154.359C57.7059 155.346 56.394 156.061 55.4775 156.545C55.0387 156.777 54.6471 156.978 54.4365 157.088C54.3762 157.12 54.331 157.145 54.2969 157.163C54.2683 157.181 54.2435 157.197 54.2227 157.21C54.2159 157.214 54.2094 157.217 54.2041 157.221ZM54.2041 157.221C54.2002 157.223 54.1972 157.225 54.1953 157.227C54.19 157.23 54.1862 157.232 54.1855 157.232C54.1855 157.232 54.1866 157.231 54.1943 157.227C54.1971 157.225 54.2005 157.223 54.2041 157.221ZM98.0176 22.8096C98.0308 22.7916 98.0527 22.7623 98.0645 22.7471C98.031 22.7901 98.0013 22.8358 97.9707 22.8809C97.9908 22.8507 98.0074 22.8238 98.0176 22.8096ZM97.8906 23.002C97.8938 22.9968 97.8979 22.9919 97.9014 22.9863C97.8963 22.9947 97.8917 23.0033 97.8867 23.0117C97.8883 23.0085 97.8891 23.0047 97.8906 23.002ZM118.539 39.5605L118.54 39.5596L118.539 39.5605ZM109.73 98.1426C109.678 95.2831 109.647 90.2729 109.63 85.4678C109.619 82.3715 109.612 79.3901 109.609 77.1826C109.608 76.0789 109.608 75.1682 109.607 74.5342C109.607 74.2174 109.606 73.9695 109.606 73.8008V73.543L109.782 47.1719C110.488 45.4807 112.335 43.6651 114.474 42.0967C115.545 41.3109 116.574 40.6697 117.337 40.2246C117.388 40.1947 117.439 40.1667 117.487 40.1387C121.185 42.2236 123.423 46.6545 124.73 51.7031C126.113 57.0397 126.244 62.1917 126.388 64.0635C126.524 66.4279 126.562 67.2903 126.534 67.9277C126.506 68.5596 126.424 68.9024 126.196 70.4961C126.19 70.5389 126.185 70.5819 126.181 70.625C125.146 82.0798 120.15 89.7849 115.51 94.167C113.273 96.2791 111.182 97.5593 109.73 98.1426ZM54.0293 47.3691C54.028 47.3675 54.0267 47.3659 54.0254 47.3643C54.0316 47.3694 54.0377 47.3748 54.0439 47.3799C54.0392 47.3763 54.0339 47.3727 54.0293 47.3691ZM54.3887 47.6162C54.3781 47.6101 54.3623 47.6003 54.3428 47.5879C54.393 47.6176 54.4442 47.6464 54.4971 47.6729C54.4729 47.6607 54.4329 47.6412 54.3887 47.6162ZM120.889 149.947C120.34 149.765 119.803 149.582 119.275 149.393C119.25 149.382 119.229 149.371 119.216 149.366C119.116 149.325 118.96 149.262 118.76 149.184C118.355 149.024 117.739 148.787 116.959 148.495C115.399 147.912 113.168 147.107 110.64 146.279C105.668 144.652 99.2442 142.833 94.5371 142.57C92.962 142.483 91.5529 142.464 90.2686 142.497C93.183 141.235 100.368 137.656 105.245 132.467C109.38 128.996 109.624 123.647 109.624 122.4V122.396L109.606 112.338L109.713 108.968C109.881 109.103 110.057 109.251 110.232 109.411C110.878 110.002 111.266 110.506 111.387 110.747C111.427 110.827 111.471 110.904 111.52 110.979C112.478 112.468 113.526 115.041 114.418 117.777C115.299 120.478 115.94 123.058 116.162 124.425L116.196 124.598C116.334 125.183 116.934 128.666 117.527 132.204C117.818 133.937 118.099 135.636 118.31 136.919C118.535 138.297 118.649 139.019 118.646 138.979V138.985C118.679 139.339 119.185 143.283 119.754 145.65L120.066 146.917C120.371 148.12 120.648 149.128 120.876 149.902C120.88 149.917 120.884 149.933 120.889 149.947ZM119.014 149.309C119.038 149.315 119.055 149.318 119.061 149.319C119.093 149.329 119.119 149.337 119.131 149.341C119.155 149.349 119.173 149.356 119.177 149.357C119.123 149.338 119.068 149.324 119.014 149.309ZM54.4443 157.046C54.429 157.058 54.417 157.068 54.4082 157.075C54.399 157.082 54.3894 157.088 54.3809 157.095C54.402 157.079 54.4236 157.063 54.4443 157.046Z" fill="#00205B" stroke="white" stroke-width="5" stroke-linejoin="round"/>
</svg>
