<svg width="200" height="200" viewBox="0 0 200 200" fill="none" xmlns="http://www.w3.org/2000/svg">
<g clip-path="url(#clip0_107_20230)">
<path d="M183.851 51.4952C173.78 40.1912 158.366 34.0255 140.485 34.0255C128.976 34.0255 117.363 36.6973 107.909 41.6299C94.7554 48.4123 85.7123 60.4356 80.4714 69.3759C85.6095 64.5461 93.3168 59.0996 103.901 56.325C107.806 55.2974 111.917 54.6808 115.925 54.6808C134.319 54.6808 146.959 65.471 147.576 65.9848L149.22 67.4235L149.836 67.9373L149.528 68.7594L148.809 70.7119C148.398 71.945 147.267 76.0555 151.583 77.8025C152.2 78.008 152.714 78.1108 153.228 78.1108C155.797 78.1108 158.16 75.2334 159.188 73.5892C161.14 70.6091 164.943 65.0599 171.417 65.0599C172.855 65.0599 174.191 65.3682 175.527 65.882C179.432 67.3207 181.693 70.3008 182.31 75.0279C183.132 80.4744 181.076 84.6876 179.74 86.6401C180.563 86.9484 181.59 87.0512 182.618 87.0512C185.187 87.0512 187.653 86.0236 189.297 84.2766C190.017 83.7628 201.629 71.3284 183.851 51.4952ZM191.764 83.3517C191.558 83.7628 191.25 83.9683 191.044 84.3794C191.25 84.0711 191.455 83.7628 191.764 83.3517ZM140.588 29.7094C159.702 29.7094 176.247 36.389 187.139 48.6178C197.005 59.6135 198.752 69.1704 198.135 75.2334C197.621 80.1661 195.463 84.5849 192.38 87.3595C189.606 89.9286 186.317 90.7507 183.645 91.1617C183.337 91.2645 183.029 91.2645 182.721 91.2645C180.871 91.2645 178.405 90.7507 176.863 89.723C175.322 88.6954 174.294 87.4622 174.294 87.4622C175.527 86.3318 176.247 85.3042 176.863 84.2766C178.507 81.3992 176.452 77.8025 173.164 77.8025H173.061C169.978 77.8025 169.156 79.8578 168.745 81.3992C166.895 89.723 163.504 92.3949 160.729 94.6557C160.113 95.1695 159.496 95.5805 158.982 96.0943C155.591 99.28 151.892 103.802 153.022 110.276C153.639 113.77 155.488 115.517 157.235 116.441C157.749 114.283 158.982 112.434 160.524 110.995C158.982 109.145 159.085 106.679 160.113 105.24C161.654 103.082 163.812 102.979 164.84 102.979C168.231 102.979 170.286 105.446 170.903 106.884L171.725 108.734C175.013 109.762 177.582 112.331 178.816 115.928C182.104 125.382 174.089 131.034 169.259 132.781C169.259 132.781 158.674 136.48 150.761 136.48C149.836 136.48 149.014 136.377 148.192 136.275C150.35 138.227 151.994 140.18 153.33 141.824C153.536 141.516 153.844 141.207 154.152 140.796C156.208 138.433 159.907 136.891 163.607 136.891C166.484 136.891 169.053 137.713 171.211 139.358C173.677 141.105 175.219 143.879 175.733 147.065C176.247 150.456 175.424 154.053 173.369 156.827C170.286 161.041 163.812 163.712 156.927 163.712C154.05 163.712 151.275 163.199 148.809 162.274C148.809 162.274 142.849 160.013 137.608 157.855C132.367 155.697 126.098 154.361 118.083 151.484C106.368 147.27 97.0162 146.448 91.2615 146.448C88.3841 146.448 86.2261 146.654 84.9929 146.859C86.6371 148.503 87.8703 149.737 88.7952 150.662L89.8228 151.689C90.2339 151.586 90.6449 151.586 90.9532 151.586C92.3919 151.586 93.8306 151.997 94.8582 152.82C98.2494 155.389 98.1466 161.041 94.6527 165.665C92.2891 168.645 89.2062 170.392 86.2261 170.392C84.7874 170.392 83.3487 169.981 82.3211 169.159C80.9852 168.131 80.1631 166.59 79.8548 164.843L78.7244 164.329L57.0414 154.258L55.3972 155.286C53.9585 156.211 52.4171 157.341 50.8756 158.574C45.3264 162.788 38.4413 167.823 30.2202 167.823C29.0898 167.823 27.8567 167.72 26.6235 167.515C15.3196 165.459 12.6478 155.902 12.8533 151.073C12.8533 151.073 12.7505 145.215 13.9837 141.516C14.8058 139.152 16.45 137.405 18.5052 136.48C18.5052 136.48 16.7583 135.453 14.6003 134.63C11.4146 133.5 8.43447 133.603 7.20131 132.986C3.81013 131.239 2.26869 129.39 1.65212 126.101C1.03554 122.71 1.75488 118.394 3.70738 113.975C5.24882 110.378 7.61237 106.679 10.0787 103.699C17.1693 95.375 22.9241 91.6755 28.8843 91.6755C29.8092 91.6755 30.6313 91.7783 31.5562 91.9838C33.7142 92.3949 35.3584 93.628 36.386 95.5805C37.0026 96.8137 37.4137 98.2524 37.6192 99.691C37.9275 99.9993 50.1563 112.125 50.1563 112.125L57.1442 100.924C58.2746 96.4026 60.7409 92.1893 64.4403 88.3871L68.6536 84.0711L72.3531 75.9528C76.1553 67.8345 86.9454 47.8985 106.059 37.9305C116.13 32.5868 128.359 29.7094 140.588 29.7094ZM140.588 28.168C128.153 28.168 115.616 31.1481 105.237 36.389C85.6095 46.5626 74.6139 66.9096 70.8117 75.1307L67.2149 82.9407L63.2072 87.0512C59.4049 90.9562 56.8359 95.2722 55.6027 99.9993L49.7452 109.351C46.8678 106.473 40.5993 100.308 39.0579 98.6634C38.8523 97.122 38.4413 95.786 37.7219 94.5529C36.386 92.1893 34.4335 90.6479 31.8644 90.1341C30.8368 89.9286 29.912 89.8258 28.8843 89.8258C22.4103 89.8258 16.2445 93.7308 8.94829 102.466C6.37921 105.549 3.9129 109.454 2.37145 113.153C0.316193 117.983 -0.403147 122.504 0.213431 126.204C0.830009 130.006 2.67974 132.267 6.58474 134.219C7.40684 134.63 8.33171 134.733 9.66763 134.939C11.0035 135.144 12.6478 135.35 14.1892 135.966C14.703 136.172 15.1141 136.377 15.6279 136.48C14.292 137.611 13.2643 139.152 12.6478 140.899C11.4146 144.701 11.4146 150.353 11.4146 150.97C11.2091 156.211 14.0864 166.693 26.418 168.953C27.6512 169.159 28.9871 169.262 30.2202 169.262C38.9551 169.262 46.0457 163.918 51.8005 159.705C53.4447 158.574 54.8834 157.341 56.2193 156.519L57.1442 155.902L78.0051 165.562L78.4161 165.768C78.8272 167.617 79.8548 169.159 81.2935 170.186C82.7322 171.214 84.3764 171.831 86.2261 171.831C89.6173 171.831 93.3167 169.878 95.8858 166.487C99.8936 161.246 99.8936 154.567 95.7831 151.484C94.3444 150.456 92.7002 149.839 90.8504 149.839C90.6449 149.839 90.4394 149.839 90.2339 149.839L89.72 149.326L88.5896 148.195L88.2814 147.887C89.1035 147.784 90.0283 147.784 91.1587 147.784C96.8107 147.784 105.957 148.606 117.466 152.717C121.268 154.053 124.659 155.08 127.64 155.902C131.134 156.93 134.216 157.855 136.888 158.985C142.026 161.143 148.089 163.404 148.089 163.507C150.761 164.535 153.741 165.048 156.722 165.048C164.12 165.048 171.006 162.068 174.397 157.547C176.658 154.464 177.685 150.456 177.069 146.654C176.555 143.057 174.705 139.974 171.93 138.022C169.978 136.583 167.717 135.658 165.354 135.453C167.82 134.836 169.464 134.219 169.67 134.117C170.903 133.706 175.116 131.959 178.199 128.054C181.179 124.354 181.796 119.935 180.152 115.208C178.816 111.406 176.247 108.529 172.753 107.193L172.239 105.96C171.417 104.213 168.95 101.13 164.737 101.13C163.607 101.13 160.729 101.13 158.674 104.007C157.646 105.549 157.133 108.015 158.469 110.378C157.646 111.303 156.927 112.331 156.413 113.564C155.488 112.536 154.872 111.303 154.564 109.659C153.536 103.904 156.722 99.9993 160.01 96.9165C160.421 96.5054 161.038 95.9916 161.654 95.5805C164.532 93.3197 168.334 90.3396 170.286 81.502C170.595 79.9605 171.211 79.1384 173.061 79.1384H173.164C174.089 79.1384 175.013 79.6523 175.527 80.5771C176.041 81.502 176.041 82.5296 175.63 83.4545C175.219 84.2766 174.602 85.2015 173.369 86.3319L172.239 87.3595L173.266 88.4899C173.369 88.5926 174.5 89.9286 176.247 90.9562C178.302 92.2921 181.179 92.7032 182.926 92.7032C183.337 92.7032 183.748 92.7032 184.057 92.6004C188.064 92.0866 191.25 90.7507 193.716 88.3871C197.005 85.3042 199.368 80.3716 199.882 75.2334C200.396 70.1981 199.677 59.819 188.475 47.3847C177.069 35.0531 160.113 28.168 140.588 28.168ZM29.7064 143.776C29.7064 143.776 28.576 143.365 27.5484 143.365C26.9318 143.365 26.418 143.571 26.1097 143.982C25.9042 144.29 25.9042 144.804 26.3152 145.215C26.418 145.318 26.6235 145.523 26.8291 145.626C27.5484 146.037 28.3705 146.243 29.1926 146.243C30.6313 146.243 32.07 145.626 33.0976 144.393C33.5087 143.879 33.9197 143.365 34.228 142.954L28.9871 140.385C29.5009 141.824 29.7064 143.776 29.7064 143.776Z" fill="#3A8DDE"/>
<path d="M33.9198 117.058L36.8999 113.873L28.7816 106.371L25.6988 110.276L27.9595 112.228L20.1496 123.121L23.849 125.69L31.7618 115.414L33.9198 117.058ZM85.9179 164.535C86.1234 165.46 86.5345 166.179 86.74 166.282C86.74 166.282 86.6373 165.357 86.9455 164.535C87.8704 164.227 89.1036 163.404 90.1312 162.069C91.4671 160.322 91.7754 158.78 91.6726 157.958C92.1864 157.239 92.803 156.828 92.803 156.828C91.8782 156.828 90.5422 157.341 89.6174 157.958C88.898 158.369 88.1787 159.088 87.4594 159.911C85.8151 162.171 85.7124 163.918 85.9179 164.535ZM43.374 119.627C43.374 119.627 37.6193 126.924 35.8723 127.746C34.4336 128.465 34.2281 126.615 34.9474 125.793C35.4612 125.177 41.0105 117.675 41.0105 117.675L38.1331 115.209C38.1331 115.209 32.3784 122.196 31.3507 123.738C30.2203 125.279 28.2678 128.876 31.9673 131.548C35.6668 134.22 39.058 131.034 39.469 130.418C39.8801 129.904 46.1486 122.402 46.1486 122.402L43.374 119.627ZM142.643 87.3598C137.916 89.4151 130.517 96.5057 130.517 96.5057C130.723 96.5057 131.031 96.6085 131.956 96.7112C132.881 96.814 133.497 96.7112 133.497 96.7112C133.497 96.7112 134.628 98.1499 137.916 99.1776C141.204 100.205 144.698 99.4858 147.165 98.1499C150.659 96.1974 151.378 92.909 151.995 90.9565C152.611 89.004 153.125 87.8736 153.125 87.8736C154.05 87.9764 154.255 88.2847 156.208 88.7985C157.852 89.2095 158.469 88.4902 158.469 88.4902C153.742 83.9686 147.165 85.4073 142.643 87.3598ZM147.576 93.6283C147.576 93.6283 141.307 90.6482 138.327 96.5057C138.327 96.5057 137.71 96.6085 137.197 96.403C136.683 96.1974 136.375 96.0947 136.272 96.1974C136.272 96.1974 138.224 91.3676 147.987 88.7985C147.987 88.9013 149.323 91.162 147.576 93.6283ZM132.778 107.501C132.778 107.501 131.647 100.205 120.755 97.1223C109.862 94.0394 101.332 96.0947 97.7357 100.513C93.3168 105.96 97.7356 112.023 104.518 111.715C109.759 111.509 113.356 108.323 117.569 107.501C121.988 106.782 125.584 107.09 129.489 109.454C133.497 111.817 134.73 112.742 135.347 114.078C135.964 115.311 136.272 116.442 137.71 116.853C137.813 116.956 138.327 111.92 132.778 107.501ZM102.977 107.81C102.977 107.81 101.23 108.015 100.613 106.679C100.613 106.679 100.716 106.063 101.435 105.652C102.257 105.241 103.593 105.035 103.799 105.035C103.901 104.83 103.49 106.679 102.977 107.81ZM104.107 103.185C103.079 103.596 102.463 103.596 101.538 104.007C101.538 104.007 101.23 101.13 105.34 100.719C105.34 100.616 105.751 102.466 104.107 103.185ZM110.17 107.193C108.526 108.735 106.471 108.837 104.826 108.323C104.826 108.323 105.751 105.343 106.368 104.213C106.368 104.213 109.245 103.288 111.403 103.596C111.3 103.596 111.711 105.652 110.17 107.193ZM108.731 102.055C108.217 102.055 107.19 102.158 106.984 102.158C106.984 102.158 106.368 99.7941 108.937 99.2803C111.198 98.8693 113.047 99.4858 113.047 99.4858C113.047 99.4858 112.739 101.027 112.122 101.849C112.225 101.849 109.142 102.055 108.731 102.055ZM118.288 105.241C117.569 105.652 116.644 106.063 115 106.165C113.356 106.371 112.739 106.576 112.739 106.576C112.739 106.576 112.225 104.624 113.767 103.802C115.411 102.877 117.672 103.185 119.213 104.007C119.213 103.905 119.008 104.83 118.288 105.241ZM119.521 102.055C118.494 102.466 116.644 101.952 116.336 101.952C116.027 101.849 115.103 101.747 114.589 101.747C114.589 101.747 114.486 99.6914 116.541 99.3831C118.597 99.0748 120.344 100.411 120.446 100.616C120.344 100.616 120.549 101.747 119.521 102.055ZM123.324 105.138C123.324 105.138 122.604 105.241 122.399 105.138C122.193 105.138 121.679 105.138 121.268 104.83C121.268 104.83 121.268 104.316 122.193 104.213C123.015 104.007 123.529 104.521 123.324 105.138ZM123.221 102.774C122.399 102.363 121.885 102.055 121.885 102.055C121.885 102.055 122.09 101.233 122.913 101.233C123.735 101.233 124.865 102.158 125.071 103.185C125.071 103.288 124.043 103.288 123.221 102.774ZM123.735 111.715C117.672 110.584 109.759 113.873 109.759 113.873C112.122 114.181 113.561 114.284 116.336 113.975C119.11 113.564 121.679 113.153 126.92 116.442C132.264 119.73 135.039 117.983 135.039 117.983C131.75 114.592 130.003 112.948 123.735 111.715ZM187.14 48.6181C176.247 36.3893 159.702 29.8125 140.588 29.8125C128.359 29.8125 116.13 32.6899 106.059 37.9308C86.8428 47.8988 76.0527 67.8348 72.3532 75.9531L68.6537 84.0714L64.4404 88.3874C60.741 92.1897 58.3774 96.403 57.1443 100.925L50.1564 112.126C50.1564 112.126 37.9276 99.9997 37.6193 99.6914C37.4137 98.2527 37.1055 96.814 36.3861 95.5808C35.3585 93.6283 33.7143 92.3952 31.5563 91.9841C30.6314 91.7786 29.8093 91.6759 28.8844 91.6759C22.9242 91.6759 17.1694 95.3753 10.0788 103.699C7.61246 106.679 5.24892 110.379 3.70747 113.975C1.75497 118.497 1.03563 122.71 1.65221 126.101C2.26879 129.39 3.81023 131.24 7.20141 132.987C8.43457 133.603 11.4147 133.5 14.6004 134.631C16.8611 135.453 18.5053 136.481 18.5053 136.481C16.5528 137.405 14.8059 139.152 13.9838 141.516C12.7506 145.215 12.8534 151.073 12.8534 151.073C12.6479 155.8 15.2169 165.357 26.6236 167.515C27.754 167.721 28.9872 167.823 30.2203 167.823C38.4414 167.823 45.3265 162.685 50.8757 158.575C52.5199 157.341 53.9586 156.211 55.3973 155.286L57.0415 154.259L78.7245 164.329L79.8549 164.843C80.1632 166.59 80.9853 168.132 82.3212 169.159C83.4516 169.981 84.7875 170.392 86.2262 170.392C89.2063 170.392 92.392 168.645 94.6528 165.665C98.1467 161.041 98.2495 155.492 94.8583 152.82C93.7279 151.998 92.392 151.587 90.9533 151.587C90.5422 151.587 90.1312 151.689 89.8229 151.689L88.7953 150.662C87.8704 149.737 86.5345 148.401 84.993 146.86C86.2262 146.654 88.3842 146.449 91.2616 146.449C97.0163 146.449 106.368 147.373 118.083 151.484C126.098 154.361 132.367 155.697 137.608 157.855C142.849 160.013 148.809 162.274 148.809 162.274C151.275 163.199 154.05 163.713 156.927 163.713C163.812 163.713 170.286 161.041 173.369 156.828C175.425 154.053 176.349 150.456 175.733 147.065C175.219 143.879 173.575 141.208 171.211 139.358C169.053 137.714 166.381 136.892 163.607 136.892C159.907 136.892 156.208 138.433 154.153 140.797C153.844 141.105 153.639 141.413 153.33 141.824C151.995 140.18 150.35 138.228 148.192 136.275C156.105 137.303 169.259 132.678 169.259 132.678C173.986 130.931 182.104 125.279 178.816 115.825C177.583 112.126 175.013 109.659 171.725 108.632L170.903 106.782C170.286 105.343 168.231 102.877 164.84 102.877C163.71 102.877 161.552 102.98 160.113 105.138C159.085 106.576 159.085 108.94 160.524 110.893C158.982 112.331 157.749 114.181 157.235 116.339C155.488 115.414 153.639 113.667 153.022 110.173C151.892 103.699 155.591 99.1776 158.982 95.9919C159.496 95.4781 160.113 95.067 160.729 94.5532C163.504 92.3952 166.998 89.6206 168.745 81.2968C169.053 79.7553 169.875 77.7001 173.061 77.7001H173.164C176.452 77.8028 178.405 81.3996 176.863 84.1742C176.247 85.2018 175.527 86.3322 174.294 87.3598C174.294 87.3598 175.322 88.593 176.863 89.6206C178.816 90.8538 181.899 91.3676 183.646 91.162C186.215 90.8538 189.606 90.0316 192.38 87.3598C195.361 84.5852 197.519 80.1664 198.135 75.2338C198.752 69.1707 196.902 59.6138 187.14 48.6181ZM58.2746 116.853C58.6857 117.778 59.0968 118.703 59.5078 119.525C59.405 119.525 59.405 119.525 59.405 119.627C59.0968 119.73 58.8912 119.833 58.7885 119.936C58.5829 120.038 58.3774 120.141 58.0691 120.141C57.8636 119.936 57.7608 119.833 57.6581 119.73C57.3498 119.422 56.9387 119.011 56.6304 118.703C56.6304 118.6 56.6304 118.6 56.6304 118.497C56.7332 118.086 56.9387 117.572 57.3498 117.367C57.3498 117.161 57.6581 116.956 58.2746 116.853ZM56.3221 107.81C56.4249 109.351 56.5277 110.893 56.836 112.434C56.9387 112.948 57.0415 113.359 57.247 113.873C56.5277 114.181 56.0139 114.386 55.8083 114.489C55.1918 114.9 54.5752 115.414 54.1641 116.031C53.5475 115.414 52.931 114.798 52.3144 114.181C53.6503 112.023 54.9862 109.968 56.3221 107.81ZM4.7351 125.588C3.60471 119.422 8.12628 110.687 12.4423 105.652C19.7385 97.1223 25.2877 93.8339 30.9397 94.8615C32.1728 95.1698 33.0977 95.8891 33.6115 96.9168C32.7894 96.6085 31.8645 96.5057 30.8369 96.5057C29.6038 96.5057 28.2678 96.814 26.9319 97.3278C19.7385 99.9997 11.5175 109.454 8.12628 118.805C6.58483 123.121 6.58483 126.718 8.02352 129.493C8.12628 129.698 8.22905 129.904 8.33181 130.006C6.89313 129.595 5.24892 128.362 4.7351 125.588ZM21.28 138.947C24.6711 138.433 25.8015 141.105 25.8015 141.105C22.9242 141.413 22.5131 143.982 23.1297 145.832C23.9518 148.504 27.8568 149.531 27.8568 149.531C24.1573 152.101 20.3551 151.381 17.8888 148.607C15.1142 145.318 17.2722 139.461 21.28 138.947ZM28.8844 140.488L34.1253 143.057C33.817 143.468 33.406 143.982 32.9949 144.496C31.4535 146.346 28.7817 146.86 26.8292 145.729C26.6236 145.524 26.4181 145.421 26.3153 145.318C26.0071 144.907 26.007 144.393 26.1098 144.085C26.6236 142.646 29.7065 143.879 29.7065 143.879C29.7065 143.879 29.3982 141.824 28.8844 140.488ZM27.343 164.535C15.7307 162.377 16.1418 151.278 16.1418 151.278C22.3076 156.93 28.8844 153.745 33.7143 148.504C34.8447 147.373 35.8723 146.038 36.6944 144.804L53.7531 152.717C46.7652 157.341 38.0303 166.59 27.343 164.535ZM93.0086 155.286C94.9611 156.828 94.6528 160.63 92.1864 163.816C89.7201 167.001 86.2262 168.234 84.1709 166.796C82.2184 165.254 82.5267 161.452 84.993 158.266C87.4593 155.081 91.0561 153.847 93.0086 155.286ZM86.5345 152.82C84.993 153.642 83.6571 154.772 82.5267 156.417C81.2936 158.061 80.4715 159.808 80.0604 161.555L13.47 130.726C13.47 130.726 7.81799 128.979 11.0036 119.936C14.1893 110.893 22.1021 102.466 27.9595 100.308C32.9949 98.4582 34.6391 101.233 37.1055 103.494C38.8524 105.035 80.3687 146.654 86.5345 152.82ZM68.8592 120.861C68.7565 120.758 68.7565 120.552 68.7565 120.45C68.6537 120.244 68.6537 120.038 68.5509 119.936C68.4482 119.833 68.4482 119.73 68.4482 119.627C68.3454 119.319 68.3454 119.011 68.2427 118.703C68.3454 118.805 68.4482 118.805 68.4482 118.908C72.6615 122.094 73.3808 126.924 70.2979 131.24C70.0924 131.548 69.8869 131.651 69.4758 131.753C68.8592 131.137 68.2427 130.52 67.6261 129.904C67.7288 129.698 67.7288 129.595 67.8316 129.493C68.2427 128.979 68.6537 128.157 68.962 127.232C68.962 127.129 69.0648 127.026 69.0648 126.924C69.1675 126.41 69.2703 125.896 69.1675 125.382C69.4758 124.149 69.2703 122.71 68.8592 120.861ZM69.0648 115.311C70.6062 114.695 73.0725 114.284 75.3333 116.442C77.5941 118.703 75.4361 122.094 75.025 122.71C74.4084 120.244 72.7642 118.086 70.4007 116.236C70.0924 115.928 69.5786 115.62 69.0648 115.311ZM156.413 142.852C158.777 140.18 164.943 138.639 169.361 141.824C173.369 144.804 173.78 150.867 170.903 154.772C167.409 159.499 157.544 162.069 149.939 159.191C149.939 159.191 158.469 158.266 161.038 155.389C163.607 152.512 162.374 149.429 160.935 148.607C159.702 147.784 158.058 147.373 154.255 148.915C154.358 149.018 154.05 145.524 156.413 142.852ZM162.682 106.474C166.587 104.727 168.026 108.118 168.026 108.118C164.943 108.323 162.99 109.043 162.99 109.043C161.963 107.912 162.682 106.474 162.682 106.474ZM166.279 111.304C169.773 110.79 174.089 111.715 175.938 116.956C179.124 125.999 168.231 129.801 168.231 129.801C168.231 129.801 170.286 126.718 170.184 124.149C169.978 120.141 167.717 120.963 166.073 122.71C164.943 124.046 162.271 124.457 160.935 122.505C160.421 121.683 160.113 120.963 160.01 119.627C159.496 115.414 162.785 111.817 166.279 111.304ZM165.765 80.5774C163.812 89.7234 159.907 90.751 156.824 93.6283C154.153 96.1974 148.398 101.952 150.042 110.584C151.07 116.339 154.666 118.6 157.03 119.525C157.03 119.73 157.03 119.833 157.133 120.038C157.338 121.683 157.749 122.813 158.571 124.046C159.702 125.793 161.552 126.924 163.71 126.924C165.456 126.821 167.101 125.999 167.101 125.999C166.484 127.643 165.457 129.082 163.812 130.212C157.03 134.836 145.212 134.117 138.122 129.493C129.387 123.738 125.071 125.999 125.071 125.999C139.663 130.726 148.09 139.563 152.2 145.01C151.172 148.709 152.097 152.101 152.406 153.231L155.797 151.792C157.338 151.176 157.749 151.073 158.16 150.97C158.469 150.97 159.085 151.073 159.393 151.587C159.702 152.101 159.291 152.923 158.88 153.334C157.647 154.67 152.2 156.519 146.24 155.8C140.177 154.978 131.853 152.717 119.419 148.298C97.5301 140.488 83.3488 143.777 83.3488 143.777C80.7798 142.03 74.4084 135.145 72.7642 133.295C72.9698 133.089 73.1753 132.884 73.3808 132.678C74.614 131.034 75.3333 129.287 75.6416 127.437L77.7996 124.56C80.0604 121.683 80.9853 117.161 77.9024 114.078C76.1554 112.434 74.1002 111.509 71.8394 111.509C71.0173 111.509 69.9896 111.612 68.8592 111.817C71.3255 97.8416 87.7676 101.747 87.7676 101.747C84.3765 98.2527 73.8946 97.2251 68.4482 105.035C63.1045 112.64 66.4957 122.402 66.4957 122.402C66.3929 122.402 66.3929 122.299 66.3929 122.299V122.402C62.7962 120.963 53.0337 104.624 66.9067 90.3399V90.4427L67.0095 90.3399C79.3411 77.5973 99.0716 84.3797 99.0716 84.3797C91.4671 76.0559 76.4637 81.2968 76.4637 81.2968C76.4637 81.2968 85.6096 65.6768 105.443 60.4359C128.051 54.3729 145.212 69.2735 145.212 69.2735C143.979 72.6647 143.773 79.1388 150.453 81.8106C156.722 84.2769 161.243 79.036 163.196 76.0559C165.148 73.0757 168.745 67.8348 174.602 69.9928C179.535 71.8426 178.507 76.5697 178.507 76.5697C177.48 74.6172 167.615 71.9454 165.765 80.5774ZM190.428 85.099C187.037 88.6957 181.385 89.004 178.302 87.0515C178.302 87.0515 182.515 82.3244 181.488 75.131C181.076 72.2536 179.843 68.5542 175.425 66.91C174.191 66.4989 172.958 66.2934 171.725 66.2934C165.765 66.2934 162.271 71.4315 160.421 74.3089C158.88 76.5697 156.413 79.3443 153.433 79.3443C152.817 79.3443 152.097 79.1388 151.275 78.9332C150.35 78.5222 145.623 76.3642 147.884 70.4039L148.603 68.4514L146.959 67.0127C146.445 66.6017 134.011 56.0171 116.13 56.0171C112.225 56.0171 108.217 56.5309 104.312 57.5585C88.1787 61.8746 78.8273 72.3564 75.1278 77.289C78.519 69.7873 89.1036 50.2623 107.498 40.8081C130.62 28.7849 165.765 29.5042 184.776 50.7762C200.91 68.6569 193.819 81.6051 190.428 85.099ZM45.532 134.425L51.9033 126.307L48.6149 123.841L39.9828 135.453L46.0458 139.05L47.7928 136.275L45.532 134.425ZM71.5311 154.464L72.9698 152.82L71.0173 151.381L71.6338 150.765L72.867 151.587L74.3057 149.942L73.0725 149.018L73.6891 148.196L75.9499 149.737L77.3886 147.887L72.9698 144.599L67.3178 151.895L71.5311 154.464ZM60.2271 147.579L62.3852 145.215L62.5907 149.326L64.7487 150.559L70.9145 142.955L68.5509 140.899L66.804 141.927L66.4957 138.844L64.2349 137.097L57.1443 145.935L60.2271 147.579ZM46.6624 139.358L49.6426 141.516L51.8006 140.18L53.8558 141.721L53.4448 143.468L56.5277 145.215L61.4603 134.528L57.5553 131.137L46.6624 139.358ZM56.2194 139.255L54.2669 137.611L57.5553 135.556L56.2194 139.255ZM117.055 90.4427C119.11 91.9841 121.577 93.0118 124.557 92.7035C124.557 92.7035 125.071 92.7035 125.995 93.6283C126.304 93.9366 127.023 94.5532 127.845 94.4505C127.845 94.4505 128.256 83.5576 125.893 75.3365C122.604 63.7243 113.458 63.8271 113.458 63.8271C113.458 63.8271 118.905 66.7044 120.549 71.226C120.549 71.226 114.178 73.0757 112.739 78.8305C111.3 84.0714 114.692 88.6957 117.055 90.4427ZM117.158 78.5222C119.213 74.9255 122.707 76.0559 122.707 76.0559C122.707 76.0559 123.632 78.6249 124.249 84.3797C124.249 84.3797 120.344 83.2493 116.952 85.7156C117.055 85.8184 115.103 82.2217 117.158 78.5222Z" fill="black"/>
<path d="M174.295 69.8899C168.54 67.7318 164.943 72.9728 162.888 75.9529C160.936 78.933 156.414 84.1739 150.145 81.7076C143.466 79.1385 143.671 72.6645 144.905 69.1705C144.905 69.1705 127.743 54.3726 105.135 60.3329C85.1992 65.6766 76.156 81.1938 76.156 81.1938C76.156 81.1938 91.2622 75.9529 98.7639 84.2767C98.7639 84.2767 79.0334 77.4943 66.5991 90.3397L66.4963 90.4425V90.3397C52.7261 104.624 62.4885 120.963 65.9825 122.402C65.9825 122.402 65.9825 122.402 65.9825 122.299C66.0853 122.299 66.0853 122.402 66.0853 122.402C66.0853 122.402 62.7968 112.639 68.0378 105.035C73.4842 97.2248 83.966 98.2525 87.3572 101.746C87.3572 101.746 71.0179 97.8414 68.4488 111.817C69.5792 111.612 70.6068 111.509 71.4289 111.509C73.6897 111.509 75.745 112.434 77.492 114.078C80.5749 117.161 79.65 121.682 77.3892 124.56L75.2312 127.437C74.9229 129.184 74.2035 131.034 72.9704 132.678C72.7649 132.884 72.5593 133.089 72.3538 133.295C73.998 135.144 80.3693 142.03 82.9384 143.776C82.9384 143.776 97.1197 140.591 119.008 148.298C131.545 152.717 139.869 154.978 145.829 155.8C151.687 156.416 157.133 154.669 158.469 153.333C158.88 152.922 159.291 152.1 158.983 151.586C158.675 151.073 158.058 150.97 157.75 150.97C157.442 151.073 156.928 151.073 155.386 151.792L151.995 153.231C151.687 152.1 150.762 148.606 151.79 145.01C147.782 139.563 139.253 130.726 124.66 125.998C124.66 125.998 128.976 123.738 137.711 129.492C144.802 134.117 156.619 134.836 163.402 130.212C165.046 129.081 166.074 127.643 166.69 125.998C166.69 125.998 165.046 126.923 163.299 126.923C161.141 127.026 159.291 125.896 158.161 124.046C157.339 122.813 156.928 121.58 156.722 120.038C156.722 119.833 156.722 119.73 156.62 119.524C154.256 118.6 150.659 116.339 149.632 110.584C148.09 101.849 153.845 96.1972 156.414 93.6281C159.394 90.7508 163.402 89.7231 165.354 80.5772C167.204 71.9451 177.172 74.617 177.891 76.3639C178.2 76.3639 179.227 71.6368 174.295 69.8899ZM112.637 78.8303C114.178 73.0755 120.447 71.2258 120.447 71.2258C118.905 66.7042 113.356 63.8268 113.356 63.8268C113.356 63.8268 122.502 63.7241 125.791 75.3363C128.154 83.5574 127.743 94.4502 127.743 94.4502C126.921 94.553 126.202 93.9364 125.893 93.6281C125.071 92.7033 124.455 92.7033 124.455 92.7033C121.475 93.0116 119.008 91.9839 116.953 90.4425C114.692 88.6955 111.301 84.0712 112.637 78.8303ZM127.024 116.544C121.68 113.256 119.214 113.667 116.439 114.078C113.665 114.489 112.226 114.284 109.862 113.975C109.862 113.975 117.775 110.687 123.838 111.817C130.107 113.05 131.751 114.592 135.142 118.086C135.142 117.983 132.265 119.833 127.024 116.544ZM137.814 116.955C136.375 116.544 136.067 115.414 135.45 114.181C134.834 112.948 133.601 111.92 129.593 109.556C125.585 107.193 122.091 106.885 117.672 107.604C113.356 108.323 109.76 111.509 104.621 111.817C97.839 112.125 93.4202 106.062 97.839 100.616C101.436 96.1972 109.862 94.0392 120.858 97.2248C131.751 100.308 132.881 107.604 132.881 107.604C138.328 111.92 137.814 116.955 137.814 116.955ZM156.208 88.901C154.256 88.3872 154.05 88.0789 153.126 87.9762C153.126 87.9762 152.509 89.0038 151.995 91.059C151.379 93.0115 150.659 96.3 147.165 98.2525C144.699 99.5884 141.205 100.205 137.917 99.2801C134.628 98.2525 133.498 96.8138 133.498 96.8138C133.498 96.8138 132.778 97.0193 131.956 96.8138C131.134 96.6083 130.826 96.6083 130.518 96.6083C130.518 96.6083 137.917 89.5176 142.644 87.4623C147.165 85.5098 153.742 84.0712 158.366 88.5927C158.366 88.5927 157.853 89.3121 156.208 88.901ZM56.3228 107.809C54.9869 109.865 53.7537 112.023 52.4178 114.181C53.0343 114.797 53.6509 115.414 54.2675 116.03C54.6786 115.414 55.1924 114.9 55.9117 114.489C56.1172 114.386 56.5283 114.181 57.3504 113.872C57.2476 113.359 57.0421 112.948 56.9393 112.434C56.5283 110.892 56.3228 109.351 56.3228 107.809ZM33.7149 148.606C28.885 153.847 22.3082 157.033 16.1424 151.381C16.1424 151.381 15.7314 162.479 27.3436 164.637C38.1337 166.59 46.7658 157.444 53.8565 152.922L36.7978 145.01C35.7702 146.14 34.7425 147.373 33.7149 148.606Z" fill="#006548"/>
<path d="M162.681 106.474C162.681 106.474 161.859 107.913 163.092 109.043C163.092 109.043 165.045 108.324 168.128 108.118C168.025 108.118 166.586 104.83 162.681 106.474ZM166.278 111.304C162.887 111.818 159.598 115.414 160.112 119.73C160.318 120.964 160.523 121.683 161.037 122.608C162.27 124.56 164.942 124.149 166.175 122.813C167.819 120.964 170.08 120.244 170.286 124.252C170.389 126.821 168.333 129.904 168.333 129.904C168.333 129.904 179.123 125.999 176.041 117.059C174.088 111.715 169.669 110.79 166.278 111.304ZM169.361 141.927C164.942 138.639 158.776 140.283 156.413 142.955C154.049 145.627 154.255 149.018 154.255 149.018C158.057 147.374 159.701 147.888 160.934 148.71C162.27 149.635 163.503 152.717 161.037 155.492C158.468 158.369 149.939 159.294 149.939 159.294C157.543 162.274 167.408 159.603 170.902 154.875C173.78 150.97 173.471 144.907 169.361 141.927ZM75.0244 122.711C75.4355 122.094 77.5935 118.703 75.3327 116.442C73.0719 114.181 70.6056 114.695 69.0642 115.312C69.4752 115.62 69.9891 115.928 70.5029 116.237C72.8664 118.086 74.4079 120.347 75.0244 122.711ZM105.34 100.617C101.229 101.028 101.537 103.905 101.537 103.905C102.462 103.597 102.976 103.597 104.106 103.083C105.751 102.466 105.34 100.617 105.34 100.617ZM122.912 101.336C122.09 101.336 121.884 102.158 121.884 102.158C121.884 102.158 122.398 102.466 123.22 102.877C124.042 103.288 125.07 103.288 125.07 103.288C124.865 102.261 123.734 101.336 122.912 101.336ZM113.766 103.802C112.122 104.727 112.738 106.577 112.738 106.577C112.738 106.577 113.355 106.371 114.999 106.166C116.643 105.96 117.568 105.652 118.288 105.241C119.007 104.83 119.213 103.905 119.213 103.905C117.671 103.186 115.41 102.877 113.766 103.802ZM124.248 84.4828C123.734 78.728 122.706 76.159 122.706 76.159C122.706 76.159 119.213 74.9258 117.157 78.6253C114.999 82.3247 116.952 85.9215 116.952 85.9215C120.343 83.3524 124.248 84.4828 124.248 84.4828ZM122.193 104.111C121.268 104.213 121.268 104.727 121.268 104.727C121.679 105.035 122.193 105.035 122.398 105.035C122.604 105.035 123.323 105.035 123.323 105.035C123.529 104.522 123.015 104.008 122.193 104.111ZM136.374 96.3005C136.579 96.3005 136.785 96.4033 137.299 96.5061C137.813 96.7116 138.429 96.6088 138.429 96.6088C141.307 90.7513 147.678 93.7314 147.678 93.7314C149.425 91.2651 148.089 89.0043 148.089 89.0043C138.224 91.4707 136.374 96.3005 136.374 96.3005ZM116.438 99.4862C114.383 99.7945 114.485 101.85 114.485 101.85C115.102 101.747 115.924 102.055 116.232 102.055C116.541 102.055 118.39 102.569 119.418 102.158C120.446 101.747 120.343 100.719 120.343 100.719C120.24 100.411 118.493 99.1779 116.438 99.4862ZM106.264 104.213C105.648 105.344 104.723 108.324 104.723 108.324C106.367 108.838 108.422 108.735 110.067 107.193C111.711 105.652 111.197 103.597 111.197 103.597C109.039 103.288 106.264 104.213 106.264 104.213ZM108.936 99.2806C106.264 99.7945 106.984 102.158 106.984 102.158C107.292 102.055 108.217 102.055 108.731 102.055C109.245 102.055 112.225 101.85 112.225 101.85C112.738 101.028 113.15 99.4862 113.15 99.4862C113.15 99.4862 111.197 98.8696 108.936 99.2806ZM100.715 106.577C101.332 108.016 103.079 107.707 103.079 107.707C103.593 106.68 103.901 104.83 103.901 104.83C103.695 104.83 102.359 105.035 101.537 105.446C100.715 105.857 100.715 106.577 100.715 106.577ZM56.6299 118.292C56.6299 118.395 56.6299 118.395 56.6299 118.497C56.9381 118.806 57.2464 119.114 57.6575 119.525C57.863 119.73 57.9658 119.833 58.0685 119.936C58.2741 119.936 58.5823 119.833 58.7879 119.73C58.8906 119.73 59.0962 119.628 59.4045 119.422C59.5072 119.422 59.5072 119.422 59.5072 119.319C59.0962 118.497 58.5824 117.572 58.2741 116.648C57.7603 116.853 57.452 117.059 57.3492 117.059C56.9381 117.47 56.6299 117.881 56.6299 118.292ZM8.12569 118.908C11.4141 109.557 19.6352 100.103 26.9313 97.4309C28.37 96.9171 29.6032 96.6088 30.8363 96.6088C31.864 96.6088 32.7888 96.8143 33.6109 97.0199C33.0971 95.9922 32.1723 95.2729 30.9391 94.9646C25.3899 93.8342 19.7379 97.1226 12.4417 105.755C8.1257 110.79 3.60413 119.422 4.73452 125.691C5.24833 128.465 6.89254 129.699 8.33123 130.212C8.22846 130.007 8.1257 129.904 8.02293 129.699C6.58425 126.718 6.68701 123.122 8.12569 118.908ZM69.2697 127.129C68.9614 128.054 68.4476 128.876 68.1393 129.39C68.0366 129.493 67.9338 129.699 67.9338 129.801C68.5504 130.418 69.167 131.034 69.7835 131.651C70.0918 131.548 70.2973 131.343 70.6056 131.137C73.6885 126.821 72.9692 121.991 68.7559 118.806C68.6531 118.703 68.5504 118.703 68.5504 118.6C68.6531 118.908 68.6531 119.217 68.7559 119.525C68.7559 119.628 68.7559 119.73 68.8587 119.833C68.9614 120.039 68.9614 120.244 69.0642 120.347C69.1669 120.553 69.1669 120.655 69.1669 120.758C69.578 122.711 69.6808 124.149 69.6808 125.177C69.7835 125.691 69.6808 126.205 69.578 126.718C69.2697 126.924 69.2697 127.027 69.2697 127.129ZM86.5339 152.82C80.3681 146.552 38.7491 104.933 37.1049 103.494C34.6386 101.233 32.9944 98.3558 27.959 100.308C22.1015 102.569 14.2915 110.893 11.0031 119.936C7.81741 128.979 13.4694 130.726 13.4694 130.726L79.9571 161.555C80.3681 159.808 81.1902 157.958 82.4234 156.417C83.6565 154.875 85.0952 153.642 86.5339 152.82ZM20.149 123.122L27.959 112.229L25.6982 110.276L28.7811 106.371L36.8993 113.873L33.9192 117.059L31.7612 115.414L23.8484 125.691L20.149 123.122ZM32.0695 131.343C28.2673 128.671 30.3225 125.074 31.4529 123.533C32.5833 121.991 38.2353 115.003 38.2353 115.003L41.0099 117.47C41.0099 117.47 35.3579 124.971 34.9468 125.588C34.3303 126.513 34.433 128.26 35.8717 127.54C37.6187 126.616 43.3734 119.422 43.3734 119.422L46.2508 121.991C46.2508 121.991 39.9822 129.493 39.5712 130.007C39.1601 130.726 35.769 133.912 32.0695 131.343ZM39.8795 135.453L48.5116 123.841L51.8 126.307L45.4287 134.426L47.6895 136.173L45.9425 138.947L39.8795 135.453ZM53.3414 143.469L53.7525 141.722L51.6972 140.18L49.5392 141.516L46.5591 139.358L57.3492 131.24L61.2542 134.631L56.3216 145.318L53.3414 143.469ZM62.5901 149.326L62.3846 145.216L60.2266 147.579L57.2464 145.935L64.3371 137.097L66.5979 138.844L66.9062 141.927L68.6531 140.9L71.0167 142.955L64.8509 150.559L62.5901 149.326ZM75.8465 149.635L73.5858 148.093L72.9692 148.915L74.2023 149.84L72.7636 151.484L71.5305 150.662L70.9139 151.279L72.8664 152.717L71.4277 154.362L67.0089 151.587L72.7636 144.291L77.1825 147.579L75.8465 149.635ZM54.2663 137.714L56.2188 139.358L57.6575 135.659L54.2663 137.714ZM25.8009 141.105C25.8009 141.105 24.7733 138.433 21.2794 138.947C17.2716 139.564 15.1136 145.421 17.9909 148.607C20.4573 151.484 24.1567 152.204 27.959 149.532C27.959 149.532 24.054 148.607 23.2319 145.832C22.5125 143.983 22.9236 141.413 25.8009 141.105ZM93.008 155.286C91.0555 153.745 87.356 155.081 84.9924 158.267C82.5261 161.452 82.2179 165.255 84.1704 166.796C86.1229 168.337 89.8223 167.001 92.1859 163.816C94.6522 160.63 95.0632 156.931 93.008 155.286ZM91.672 158.061C91.7748 158.883 91.4665 160.425 90.1306 162.172C89.103 163.508 87.8698 164.33 86.945 164.638C86.7394 165.46 86.7394 166.385 86.7394 166.385C86.5339 166.179 86.1228 165.563 85.9173 164.638C85.7118 164.124 85.8146 162.274 87.4588 160.219C88.0753 159.294 88.8974 158.678 89.6168 158.267C90.5417 157.547 91.8776 157.136 92.8024 157.136C92.8024 157.033 92.1859 157.342 91.672 158.061ZM140.587 34.0261C158.468 34.0261 173.882 40.1919 183.953 51.4958C201.628 71.3291 190.016 83.7634 189.605 84.2772C187.858 86.0242 185.392 87.0519 182.926 87.0519C181.898 87.0519 180.973 86.8463 180.048 86.6408C181.281 84.6883 183.337 80.5778 182.617 75.0286C182.001 70.3015 179.637 67.3213 175.835 65.8827C174.499 65.3688 173.06 65.0606 171.724 65.0606C165.148 65.0606 161.448 70.507 159.496 73.5899C158.365 75.2341 156.104 78.1115 153.535 78.1115C153.022 78.1115 152.508 78.0087 151.891 77.8032C147.575 76.159 148.706 71.9457 149.117 70.7125L149.836 68.76L150.144 67.9379L149.528 67.4241L147.883 65.9854C147.37 65.5744 134.627 54.6815 116.232 54.6815C112.225 54.6815 108.114 55.1953 104.209 56.3257C93.6246 59.2031 85.9173 64.5467 80.7792 69.3766C86.0201 60.3335 95.0632 48.4129 108.217 41.6306C117.466 36.698 129.078 34.0261 140.587 34.0261ZM140.587 32.793C128.872 32.793 117.055 35.5676 107.498 40.603C89.103 50.1599 78.6211 69.6849 75.1272 77.0838C78.8267 72.1512 88.1781 61.6694 104.312 57.3533C108.114 56.3257 112.122 55.8119 116.13 55.8119C134.01 55.8119 146.445 66.3965 146.959 66.8075L148.603 68.2462L147.883 70.1987C145.725 76.2617 150.35 78.4198 151.275 78.728C151.994 79.0363 152.713 79.1391 153.433 79.1391C156.413 79.1391 158.879 76.4673 160.421 74.1037C162.27 71.3291 165.764 66.0882 171.724 66.0882C172.958 66.0882 174.191 66.2937 175.424 66.7048C179.945 68.349 181.076 72.0484 181.487 74.9258C182.515 82.1192 178.301 86.8463 178.301 86.8463C179.534 87.6684 181.179 87.9767 182.926 87.9767C185.495 87.9767 188.372 87.0518 190.427 84.8938C193.819 81.2971 200.909 68.4517 184.775 50.4682C173.677 38.2394 157.132 32.793 140.587 32.793Z" fill="white"/>
<path d="M180.46 164.535C179.946 165.049 179.227 165.357 178.405 165.357C177.583 165.357 176.863 165.049 176.349 164.535C175.836 164.022 175.527 163.302 175.527 162.48C175.527 161.658 175.836 160.939 176.452 160.322C176.966 159.808 177.685 159.5 178.405 159.5C179.227 159.5 179.946 159.808 180.46 160.322C180.974 160.836 181.282 161.555 181.282 162.377C181.385 163.302 181.077 163.919 180.46 164.535ZM176.76 160.733C176.349 161.144 176.144 161.761 176.144 162.377C176.144 162.994 176.349 163.611 176.863 164.124C177.274 164.535 177.891 164.844 178.507 164.844C179.124 164.844 179.741 164.638 180.152 164.124C180.563 163.611 180.871 163.097 180.871 162.377C180.871 161.761 180.665 161.144 180.152 160.733C179.741 160.219 179.124 160.014 178.507 160.014C177.891 160.014 177.274 160.219 176.76 160.733ZM177.274 164.022V160.836C177.48 160.836 177.788 160.836 178.199 160.836C178.61 160.836 178.816 160.836 178.816 160.836C179.124 160.836 179.227 160.939 179.432 161.041C179.741 161.247 179.843 161.453 179.843 161.864C179.843 162.172 179.741 162.275 179.638 162.48C179.432 162.583 179.33 162.686 179.124 162.686C179.33 162.788 179.432 162.788 179.535 162.891C179.741 163.097 179.843 163.302 179.843 163.611V163.919C179.843 164.022 179.843 164.022 179.843 164.022V164.124L179.946 164.227H179.124C179.124 164.124 179.021 163.919 179.021 163.816C179.021 163.611 179.021 163.508 178.919 163.405C178.816 163.302 178.816 163.199 178.713 163.199C178.61 163.199 178.507 163.097 178.405 163.097H178.199H177.994V164.227L177.274 164.022ZM178.713 161.452C178.61 161.35 178.405 161.35 178.199 161.35H177.994V162.275H178.302C178.507 162.275 178.61 162.172 178.713 162.172C178.816 162.172 178.919 161.966 178.919 161.761C179.021 161.658 178.919 161.555 178.713 161.452Z" fill="#3A8DDE"/>
</g>
<defs>
<clipPath id="clip0_107_20230">
<rect width="200" height="200" fill="white"/>
</clipPath>
</defs>
</svg>
