<svg width="200" height="200" viewBox="0 0 200 200" fill="none" xmlns="http://www.w3.org/2000/svg">
<path d="M41.3526 66.1683C33.2043 66.1724 23.0523 67.3318 16.6884 76.2419C15.8138 77.4659 15.6795 79.0217 16.3384 80.3029C16.9682 81.5252 18.2246 82.2842 19.6162 82.2842C19.8005 82.2842 19.987 82.2718 20.1712 82.2453C24.2175 81.6686 28.1569 81.3753 31.8812 81.3753C35.2446 81.3753 38.391 81.6088 41.2598 82.0677C35.6692 90.0913 28.84 100.947 26.1759 105.18L25.5847 106.119C25.4801 106.285 25.3515 106.491 25.2021 106.732C19.6289 115.713 16.3076 118.516 14.5038 119.286C13.1802 119.85 11.9037 120.125 10.5984 120.125C9.02337 120.125 7.40292 119.728 5.64532 118.914C5.00136 118.615 4.35163 118.462 3.71597 118.462C2.33179 118.462 1.11631 119.171 0.464055 120.357C-0.228896 121.617 -0.140435 123.217 0.693555 124.532C3.89342 129.572 12.0896 133.83 18.5922 133.83C19.4578 133.83 20.288 133.756 21.0597 133.604C25.3458 132.765 28.191 131.148 33.7238 123.782C37.4108 118.876 41.6225 112.45 45.0149 107.166C45.8182 107.666 46.7591 108.061 47.6561 108.327C47.2719 108.892 46.9539 109.357 46.729 109.681C42.1118 116.312 42.153 121.035 42.9987 123.829C43.8426 126.613 45.821 128.741 48.5703 129.821C50.0358 130.397 51.6849 130.688 53.4715 130.688C57.8406 130.688 61.9166 129.003 63.968 127.991C65.7173 129.397 68.5467 130.859 72.7358 130.859C77.28 130.859 82.4774 129.105 88.198 125.643C89.9573 127.852 93.4662 130.756 99.7521 130.756C105.437 130.756 112.173 128.304 119.784 123.468C124.074 128.216 130.813 130.719 139.349 130.719C146.693 130.719 152.925 128.917 155.796 127.925C157.268 129.29 159.046 130.203 160.869 130.522C161.696 130.665 162.558 130.739 163.432 130.739C167.011 130.739 170.3 129.561 172.635 128.428C173.937 129.867 175.754 130.648 177.846 130.648C180.187 130.648 182.848 129.646 185.752 127.668C187.783 126.286 189.402 124.68 190.697 122.76C192.14 120.621 191.654 118.982 191.237 118.196C190.597 116.993 189.357 116.275 187.917 116.275C187.257 116.275 186.569 116.42 185.826 116.719C186.039 116.427 186.275 116.116 186.536 115.785L186.569 115.743C186.578 115.732 186.585 115.72 186.593 115.708L199.106 98.2502C200.093 96.9316 200.278 95.3093 199.586 93.9285C198.86 92.4796 197.281 91.579 195.465 91.579H191.492C190.304 91.579 189.242 91.8099 188.323 92.2688C186.632 91.1352 184.385 90.5391 181.768 90.5391C178.279 90.5391 174.363 91.5784 171.025 93.3917C165.66 96.3036 160.245 102.135 155.367 110.253C154.657 111.434 153.925 112.45 153.179 113.292C153.561 108.188 152.712 102.857 151.842 99.0187L151.829 98.9617C151.81 98.8779 151.796 98.8128 151.787 98.7672C151.738 98.534 151.802 98.4433 151.868 98.3769C152.426 97.8134 152.842 97.5179 153.419 97.1088C153.745 96.8781 154.109 96.6211 154.528 96.2958C156.188 95.0038 156.317 93.1995 155.922 92.0493C154.847 88.9192 150.311 88.6768 148.947 88.6768C145.041 88.6768 140.467 90.8921 134.55 95.6488C122.272 105.521 108.498 115.895 102.026 117.357C101.835 117.401 101.572 117.266 101.899 117C102.05 116.878 102.573 116.491 102.808 116.327C123.716 101.794 136.177 87.6791 136.994 77.6035C137.256 74.3779 136.326 71.6384 134.305 69.6822C132.523 67.9561 130.11 67.0448 127.326 67.0448C122.83 67.0448 115.201 69.4822 104.384 81.0924C95.7918 90.3136 90.6169 98.6279 86.5666 109.734C82.8183 113.552 79.1877 115.577 76.6291 116.51C76.859 116.172 77.0703 115.869 77.2346 115.631C80.2976 111.207 88.4661 99.9144 89.6876 98.264C90.6842 96.9321 90.8685 95.3089 90.1764 93.9281C89.4511 92.4792 87.8722 91.5786 86.0557 91.5786H81.681C78.111 91.5786 76.6254 93.6542 75.828 94.7695L75.5933 95.0937C75.5825 95.1086 75.5713 95.1233 75.5622 95.1391L75.531 95.1871C74.507 96.7538 69.8797 103.065 65.4043 109.168L65.3499 109.241L64.6108 110.248C62.5561 113.051 60.2028 115.004 58.5996 115.827C58.1731 116.046 58.3367 115.738 58.4686 115.551C60.2006 113.102 68.035 102.026 70.7709 98.2204C71.7534 96.8537 71.9248 95.2284 71.2286 93.8715C70.4933 92.4368 68.9522 91.5791 67.1066 91.5791H62.8135C60.3488 91.5791 58.3453 92.2788 56.6856 93.7186C56.4532 93.9202 56.2123 94.1318 55.9633 94.35C54.4638 95.6678 52.715 97.2045 50.4993 98.577C50.5458 98.5024 50.5942 98.4296 50.6407 98.3566C55.2031 91.2738 57.7946 87.3456 59.3022 85.5173C62.8996 86.3555 68.6562 87.1965 74.7837 87.1965C88.8751 87.1965 97.7411 82.9248 100.418 74.8424C101.02 73.0251 100.409 71.7833 99.9913 71.2041C99.3083 70.2581 98.2061 69.7156 96.9689 69.7156C96.4087 69.7156 95.8148 69.8243 95.2016 70.0384C92.0257 71.1479 88.2853 71.6864 83.7677 71.6864C76.0933 71.6864 67.4278 70.0688 59.7826 68.6406C52.9819 67.371 46.5569 66.1704 41.4159 66.168H41.3511L41.3526 66.1683ZM178.907 104.15C177.257 106.403 174.859 109.628 173.219 111.63C171.734 113.441 169.687 114.92 168.078 115.71C167.566 115.96 167.673 115.645 167.743 115.466C168.23 114.219 169.268 112.293 171.481 109.661C173.852 106.842 176.836 105.047 178.907 104.15ZM139.879 108.414C140.148 111.644 139.773 114.174 138.806 115.5C138.093 116.478 136.982 116.974 135.505 116.974C133.997 116.974 132.341 116.399 131.027 115.457C133.285 113.642 136.651 110.949 139.879 108.414Z" fill="#F5002E"/>
<path d="M41.401 67.2425C33.5016 67.2425 23.6524 68.3356 17.5613 76.8646C16.9207 77.7601 16.8182 78.8899 17.2929 79.8119C17.7369 80.6749 18.6276 81.2123 19.6151 81.2123C19.7438 81.2123 19.8777 81.2024 20.0171 81.1825C24.1149 80.5982 28.1064 80.3034 31.8798 80.3034C36.7584 80.3034 40.5109 80.7933 43.1033 81.3069C37.3766 89.3902 29.9785 101.148 27.0834 105.751L26.4921 106.691C26.3875 106.856 26.2607 107.061 26.1122 107.299C21.519 114.7 17.7547 119.065 14.9233 120.274C13.4636 120.896 12.0495 121.199 10.5964 121.199C8.86206 121.199 7.09443 120.771 5.19077 119.888C4.69038 119.656 4.19271 119.537 3.71392 119.537C2.72727 119.537 1.86258 120.037 1.40205 120.875C0.897505 121.792 0.972968 122.974 1.59784 123.958C4.57365 128.645 12.5139 132.759 18.5903 132.76H18.5917C19.3866 132.76 20.1466 132.69 20.8504 132.552C25.8394 131.576 28.4776 128.978 32.8638 123.14C36.6744 118.067 41.0467 111.37 44.7305 105.618C45.811 106.621 47.8785 107.438 49.4386 107.608C48.646 108.778 47.9919 109.741 47.6077 110.292C43.2369 116.572 43.2455 120.95 44.0239 123.518C44.77 125.982 46.5234 127.865 48.9615 128.823C50.3008 129.349 51.8176 129.615 53.4698 129.615C57.5386 129.615 61.5804 128.053 64.1177 126.709C65.5856 128.05 68.3364 129.787 72.7341 129.787C77.3032 129.787 82.5906 127.912 88.4765 124.209C90.4341 127.137 94.1152 129.684 99.7504 129.684C105.425 129.684 112.227 127.119 119.988 122.061C124.03 127.033 130.672 129.648 139.346 129.648C145.735 129.648 151.915 128.206 156.069 126.69C157.465 128.161 159.219 129.147 161.052 129.466C161.817 129.598 162.616 129.666 163.43 129.666C167.227 129.666 170.704 128.25 172.931 127.078C173.906 128.502 175.546 129.576 177.844 129.576C179.965 129.576 182.422 128.637 185.147 126.782C187.064 125.478 188.587 123.966 189.804 122.161C190.934 120.486 190.591 119.274 190.286 118.7C189.836 117.853 188.95 117.348 187.915 117.348C187.28 117.348 186.593 117.527 185.814 117.894C185.321 118.126 184.277 118.442 183.317 118.629C183.785 117.758 184.568 116.545 185.691 115.122L185.72 115.084L198.231 97.6275C198.983 96.6234 199.13 95.4205 198.624 94.4106C198.081 93.326 196.869 92.6524 195.463 92.6524H191.49C190.038 92.6524 189.013 93.0344 188.251 93.5523C186.721 92.2984 184.483 91.6125 181.765 91.6125C178.451 91.6125 174.721 92.6052 171.535 94.3354C166.338 97.1561 161.065 102.852 156.285 110.807C154.62 113.578 153.033 115.136 151.755 116.013C152.775 110.408 151.875 104.036 150.794 99.2579C150.766 99.1384 150.745 99.0462 150.733 98.9856C150.592 98.3126 150.857 97.8744 151.102 97.6255C151.727 96.994 152.201 96.6596 152.798 96.2355C153.112 96.0131 153.466 95.7622 153.864 95.451C155.079 94.5058 155.198 93.2556 154.904 92.4001C154.039 89.879 149.788 89.7511 148.945 89.7511C145.296 89.7511 140.936 91.8914 135.22 96.4868C121.012 107.912 106.958 118.559 100.669 118.523C100.669 118.523 100.654 118.528 100.643 118.528C100.067 118.52 99.7667 118.121 99.9957 117.544C100.24 116.927 101.203 116.137 102.195 115.447C122.838 101.097 135.132 87.273 135.923 77.518C136.158 74.6228 135.339 72.1814 133.557 70.4551C131.979 68.9265 129.824 68.1199 127.325 68.1199C123.042 68.1199 115.722 70.4971 105.167 81.8255C96.6427 90.9737 91.5017 99.2562 87.4952 110.319C82.2689 115.71 76.9715 117.926 74.2297 118.222C74.8728 117.158 75.8399 115.761 76.3536 115.019C79.414 110.598 87.6049 99.2753 88.8258 97.6276C89.5767 96.6234 89.7223 95.4205 89.216 94.4106C88.6733 93.3261 87.4614 92.6524 86.0549 92.6524H81.6801C78.662 92.6524 77.4802 94.3045 76.6985 95.3974C76.6321 95.4912 76.4612 95.7267 76.4612 95.7267L76.4288 95.7747C75.384 97.373 70.7225 103.73 66.2138 109.878L65.476 110.884C62.3591 115.134 59.068 116.758 57.1895 117.251C57.1464 117.261 57.1044 117.266 57.0638 117.266C56.7327 117.266 56.4861 116.913 56.6372 116.587C56.8405 116.144 57.1613 115.57 57.6667 114.851C59.899 111.676 66.9516 101.696 69.9006 97.5952C70.6541 96.5463 70.7901 95.3681 70.274 94.3614C69.7263 93.2918 68.5411 92.6525 67.1063 92.6525H62.8132C60.6183 92.6525 58.8445 93.267 57.3881 94.53C57.1566 94.7308 56.9175 94.9414 56.671 95.1589C54.3773 97.1737 51.5754 99.6273 47.4492 101.357C48.2849 100.045 49.0564 98.8335 49.7377 97.7754C54.8636 89.8189 57.4274 85.9559 58.9178 84.3214C62.3898 85.1944 68.3727 86.1237 74.783 86.1237C88.3685 86.1237 96.8807 82.1064 99.3981 74.5059C99.8288 73.2097 99.4849 72.336 99.1206 71.8323C98.6418 71.1684 97.8561 70.7885 96.9682 70.7885C96.5284 70.7885 96.0545 70.8766 95.5549 71.0517C92.2629 72.2018 88.407 72.7606 83.7672 72.7606H83.7645C75.9945 72.7606 67.2766 71.1319 59.5849 69.6954C52.8267 68.4332 46.4429 67.2422 41.3995 67.2422L41.401 67.2425ZM121.796 82.3588C120.81 83.7505 119.408 85.5322 117.442 87.7437C113.773 91.8713 110.137 95.3623 106.416 98.3265C108.666 95.1673 111.073 92.2154 114.532 88.7183C117.313 85.906 119.837 83.7987 121.796 82.3588ZM180.729 102.441C181.032 102.441 181.229 102.794 181.039 103.057C179.799 104.766 176.253 109.628 174.055 112.311C171.968 114.857 168.664 116.865 166.824 117.397C166.783 117.409 166.741 117.415 166.7 117.415C166.451 117.415 166.236 117.205 166.26 116.942C166.372 115.692 167.235 113.052 170.666 108.972C174.031 104.972 178.7 102.802 180.654 102.447C180.68 102.442 180.704 102.441 180.728 102.441L180.729 102.441ZM140.729 106.389C141.195 109.567 141.343 113.855 139.68 116.134C138.525 117.716 136.775 118.047 135.511 118.047C133.281 118.047 130.918 117.006 129.35 115.435C131.758 113.495 136.548 109.652 140.729 106.389Z" fill="white"/>
<path d="M183.38 103.316C182.951 103.9 178.695 109.879 175.635 113.614C172.535 117.398 166.866 120.376 165.177 119.406C163.584 118.492 163.333 114.508 169.093 107.659C174.633 101.071 180.806 99.7104 183.137 100.7C184.816 101.412 183.809 102.732 183.38 103.316ZM141.331 117.346C137.803 122.181 129.48 120.163 126.501 115.102C126.501 115.102 135.9 107.489 142.08 102.753C142.08 102.753 144.771 112.633 141.331 117.346ZM102.631 100.214C105.874 95.3496 108.706 91.695 113.068 87.2827C119.445 80.8357 125.088 77.4143 125.796 78.0416C126.544 78.7047 125.056 82.2613 118.968 89.11C115.057 93.5107 110.102 98.4441 103.945 102.724C102.328 103.849 100.909 104.475 100.704 104.319C100.398 104.085 101.318 102.184 102.631 100.214ZM196.594 96.4044C197.314 95.4409 196.549 94.7082 195.465 94.7082H191.492C189.47 94.7082 188.847 95.6616 188.116 96.6815C186.404 92.6003 178.47 92.9107 172.516 96.143C167.928 98.6333 162.905 103.779 158.044 111.868C153.348 119.683 148.74 119.185 148.74 119.185C151.785 111.677 148.966 100.54 148.73 99.4125C148.388 97.7794 149.175 96.6674 149.649 96.1886C150.76 95.0658 151.491 94.7082 152.608 93.8393C153.979 92.7721 151.464 91.8062 148.948 91.8062C146.898 91.8062 143.308 92.6211 136.508 98.0898C118.918 112.233 104.216 123.022 98.3843 120.103C95.4425 118.63 98.1835 115.746 101.027 113.77C131.009 92.9289 137.696 77.318 132.134 71.9332C128.464 68.3806 119.636 69.3125 106.669 83.229C98.4532 92.046 93.3613 100.006 89.2784 111.428C82.7443 118.322 75.2417 121.14 72.1704 120.103C70.851 119.657 71.6692 118.193 74.6708 113.858C77.6731 109.522 85.8919 98.1528 87.1856 96.4044C87.9067 95.4409 87.1408 94.7082 86.0578 94.7082H81.6829C79.5162 94.7082 78.9552 95.8035 78.147 96.9014C77.0134 98.6358 71.8767 105.631 67.1317 112.101C62.4646 118.466 57.2814 119.668 55.6591 119.466C54.1571 119.278 53.275 117.545 55.9927 113.678C58.1461 110.615 65.2761 100.523 68.237 96.4044C68.9888 95.3588 68.1922 94.7082 67.1092 94.7082H62.8156C61.468 94.7082 60.0182 94.9695 58.7345 96.084C56.1039 98.3661 52.5015 101.824 46.6777 103.858C46.291 103.993 46.1317 104.499 46.9267 104.846C48.2561 105.424 51.3107 106.136 53.4691 105.318C51.6734 107.969 50.0228 110.421 49.2925 111.47C43.3268 120.038 45.6653 125.331 49.7133 126.921C54.6807 128.872 61.6481 125.99 64.5235 124.108C64.5235 124.108 70.6327 133.942 89.2486 121.26C91.1132 126.283 99.6232 133.571 120.495 119.263C128.01 131.138 147.914 127.916 156.714 124.246C157.873 125.922 159.575 127.133 161.404 127.451C166.384 128.318 171.611 125.674 173.937 124.108C174.225 126.475 176.89 129.931 183.996 125.093C186.274 123.543 187.479 121.953 188.108 121.02C189.025 119.66 188.453 118.923 186.692 119.753C185.356 120.383 181.586 121.301 180.949 120.581C179.8 119.284 183.698 114.347 184.084 113.858L196.594 96.4044ZM57.4623 82.8796C58.0241 82.273 58.8415 82.1941 59.3909 82.3327C68.0702 84.5218 93.1023 86.9906 97.4515 73.8675C97.8731 72.5937 96.8084 72.7895 96.2284 72.992C79.995 78.664 55.177 69.2967 41.3991 69.2967C32.2634 69.2967 24.282 70.9838 19.2257 78.0624C18.8407 78.6009 19.0996 79.249 19.7261 79.1594C33.0866 77.2558 41.7153 78.8358 45.1201 79.6573C45.7101 79.7992 46.4786 80.1286 45.867 80.9718C39.6141 89.5897 30.4792 104.213 28.2237 107.79C26.7922 110.059 20.9618 119.931 15.7263 122.164C12.3181 123.618 8.62949 123.748 4.32677 121.752C3.18242 121.221 2.85297 122.12 3.32598 122.865C6.27441 127.51 15.0267 131.607 20.4547 130.546C24.6944 129.717 26.9067 127.66 31.2236 121.914C36.9561 114.282 44.0048 102.894 48.0129 96.6715C53.6426 87.9325 55.9205 84.5434 57.4623 82.8796Z" fill="#003366"/>
</svg>
