<svg width="200" height="200" viewBox="0 0 200 200" fill="none" xmlns="http://www.w3.org/2000/svg">
<path d="M120.056 178.728C120.396 179.262 121.041 179.529 121.666 179.382C122.333 179.224 122.809 178.635 122.821 177.949C123.184 158.068 114.134 134.282 88.7363 118.229C83.518 114.93 76.4916 110.256 70.4404 105.38C67.414 102.941 64.6598 100.473 62.5049 98.1221C61.1129 96.6033 60.015 95.1791 59.25 93.8818C61.0729 94.0634 63.172 94.4619 65.29 94.9941C68.3835 95.7716 71.3846 96.7992 73.4287 97.7334C76.7675 99.2602 83.672 103.689 87.3057 110.982L87.375 111.106C87.5489 111.386 87.8113 111.602 88.1221 111.719H88.123L88.125 111.72C88.1261 111.72 88.1275 111.72 88.1289 111.721C88.1319 111.722 88.1356 111.723 88.1396 111.725C88.1477 111.728 88.1577 111.732 88.1699 111.736C88.1946 111.745 88.2276 111.757 88.2686 111.771C88.3504 111.798 88.4641 111.835 88.6055 111.876C88.8877 111.959 89.2849 112.062 89.7617 112.15C90.1888 112.23 90.6938 112.299 91.248 112.329C91.1176 112.504 90.9521 112.646 90.7432 112.764C90.2597 113.035 89.965 113.551 89.9775 114.105C89.9901 114.66 90.3081 115.163 90.8037 115.412C91.4075 115.716 92.1035 115.846 92.7354 115.899C93.3878 115.955 94.0838 115.938 94.752 115.878C95.3544 115.824 95.9687 115.729 96.5479 115.608C96.5449 115.64 96.5434 115.671 96.54 115.703C96.4969 116.113 96.4238 116.515 96.3359 116.837C96.2589 117.119 96.1973 117.24 96.1904 117.259L96.2041 117.245L96.0879 117.413C95.8462 117.818 95.8067 118.317 95.9912 118.76C96.2022 119.265 96.6722 119.616 97.2168 119.674C98.357 119.795 99.8479 119.524 101.227 119.118C101.921 118.914 102.637 118.66 103.33 118.368C103.277 119.299 103.054 120.276 102.694 121.085C102.459 121.615 102.55 122.232 102.928 122.672C103.306 123.111 103.903 123.294 104.462 123.141C106.699 122.527 108.808 121.463 110.589 119.762C111.131 119.821 111.782 119.866 112.434 119.87C113.395 119.876 114.682 119.807 115.601 119.391C116.1 119.164 116.723 118.677 117.234 118.273C117.825 117.807 118.467 117.284 119.169 116.762C119.867 116.242 120.572 115.764 121.239 115.409C121.839 115.09 122.324 114.917 122.689 114.86L122.839 114.844L122.965 114.829C123.586 114.732 124.086 114.255 124.206 113.629C124.368 112.781 124.302 111.921 124.184 111.177C124.123 110.798 124.043 110.42 123.961 110.062C124.314 109.757 124.627 109.44 124.909 109.139C125.45 108.56 125.832 108.105 126.328 107.635C126.446 107.523 126.544 107.393 126.62 107.25C130.132 100.635 132.505 92.4715 134.008 85.3955C135.349 79.0804 136.02 73.5189 136.173 70.5518C136.289 70.4893 136.408 70.4232 136.525 70.3555C136.778 70.21 137.048 70.0437 137.28 69.8799C137.396 69.7986 137.522 69.7047 137.639 69.6025C137.707 69.5431 137.832 69.4294 137.953 69.2715L138.071 69.0986L138.131 68.9912C138.185 68.8807 138.226 68.7633 138.252 68.6426C138.528 67.3602 138.635 65.999 138.795 64.7861C138.857 64.3147 138.692 63.841 138.35 63.5107C137.592 62.7786 136.933 61.5795 136.634 60.3457C136.701 58.2421 136.849 55.8651 137.146 53.9355C137.172 53.766 137.168 53.5933 137.136 53.4248C136.691 51.115 136.184 48.7338 135.524 46.4873C135.508 46.4298 135.487 46.3734 135.464 46.3184C135.074 45.41 134.27 44.8441 133.529 44.5342C132.761 44.2127 131.862 44.0763 130.979 44.1631C130.904 44.1705 130.828 44.1834 130.755 44.2021C128.689 44.7292 126.105 45.1715 123.738 46.041C123.703 45.9739 123.666 45.9027 123.627 45.8271C123.308 45.2165 122.893 44.4524 122.311 43.6299C121.13 41.9627 119.313 40.1238 116.26 38.6064C116.048 38.5013 115.814 38.448 115.578 38.4502C109.655 38.506 105.233 41.7367 103.252 43.3428C102.948 42.8934 102.618 42.3443 102.274 41.751C101.925 41.1475 101.531 40.4434 101.2 39.8799C100.872 39.3217 100.513 38.7407 100.18 38.3389C100.004 38.1274 99.7736 37.9683 99.5137 37.8789C97.6639 37.2434 95.8962 36.7022 94.251 37.7139C94.1979 37.7465 94.1463 37.7823 94.0977 37.8213C93.5063 38.2954 92.9676 38.6157 92.3438 38.9785C91.5094 37.725 90.4485 36.3554 89.4141 35.1328C88.0254 33.4916 86.5369 31.9354 85.5879 31.25C84.5941 30.5321 83.29 29.8187 82.0537 29.2441C80.8284 28.6747 79.5563 28.1888 78.6172 27.9775L78.6162 27.9785C77.6965 27.7479 76.898 28.1411 76.4258 28.5439C76.2942 28.6563 76.1685 28.7867 76.0518 28.9307C74.8858 28.8634 73.551 28.9009 72.5273 28.9678C72.0864 28.6902 71.6316 28.3757 71.1221 28.0264C70.4795 27.5858 69.7657 27.1008 68.9834 26.6543C67.3948 25.7477 65.4948 24.9808 63.0713 24.8857C62.4895 24.863 61.9469 25.179 61.6797 25.6963C60.8035 27.3928 60.7787 29.3634 61.0439 31.0986C59.6132 29.4912 56.5707 26.9873 53.2402 24.8643C51.4121 23.6989 49.4399 22.6102 47.5254 21.8232C45.6371 21.0471 43.6783 20.5106 41.918 20.5801C40.6402 20.6305 39.8347 21.5941 39.3955 22.333C38.9141 23.1429 38.5681 24.175 38.3311 25.2383C37.856 27.3696 37.7363 30.0178 38.1377 32.2002C38.5172 34.2681 39.5264 36.8864 40.3906 38.9043C40.4725 39.0954 40.5541 39.2821 40.6338 39.4639C38.0217 38.8376 35.4098 38.6275 33.2842 39.1865C32.7202 39.3351 32.2939 39.7971 32.1904 40.3711C32.087 40.9453 32.3257 41.5273 32.8027 41.8633C32.9562 41.9714 33.1038 42.0908 33.2471 42.2158C31.4775 42.0453 29.4672 41.9865 27.4902 42.0576C24.0906 42.18 20.4292 42.6924 18.1514 43.8994C17.7229 44.1264 17.4311 44.5467 17.3672 45.0273C17.3034 45.5078 17.4752 45.9893 17.8291 46.3203C18.2145 46.6805 18.6419 47.0314 19.0439 47.3516C18.2789 47.4501 17.5028 47.5995 16.752 47.792C14.5365 48.36 12.1648 49.3847 10.6895 50.9053C10.3098 51.2966 10.1719 51.864 10.3301 52.3857C10.4883 52.9073 10.9173 53.3023 11.4502 53.417C12.344 53.6092 13.1784 53.9413 13.8701 54.3652C11.1367 55.8635 9.08728 58.0805 7.26758 60.0068C6.87815 60.4192 6.75452 61.0157 6.94824 61.5488C7.14201 62.082 7.62018 62.4603 8.18359 62.5264C8.66913 62.5833 9.14145 62.6774 9.58398 62.7979C8.96479 63.3401 8.37082 63.9419 7.83008 64.5654C6.64636 65.9304 5.60287 67.5114 5.01367 68.9717C4.81632 69.4608 4.88967 70.0179 5.20801 70.4385C5.52648 70.859 6.04297 71.0818 6.56738 71.0244C7.00838 70.9762 7.43631 70.9602 7.83691 70.9697C6.82975 72.5533 5.94748 74.2392 5.23242 76.0762C5.04326 76.5622 5.12027 77.1119 5.43555 77.5273C5.75079 77.9427 6.25939 78.1646 6.77832 78.1133C7.13066 78.0784 7.42386 78.0882 7.68652 78.125C7.16491 87.5459 10.2832 97.7702 14.5488 104.376C21.8313 115.655 29.5585 124.49 44.7178 133.708C60.8685 143.528 77.0283 149.258 90.3311 155.263C103.742 161.316 114.25 167.638 119.992 178.617L120.056 178.728Z" fill="#1D1818" stroke="white" stroke-width="3" stroke-linejoin="round"/>
<path d="M135.31 115.653C135.828 115.802 136.386 115.661 136.771 115.284C137.511 114.562 137.967 113.605 138.255 112.687C138.548 111.753 138.702 110.744 138.769 109.802C138.788 109.531 138.797 109.262 138.803 108.998C139.614 109.566 140.523 110.119 141.559 110.443C144.601 111.632 148.973 112.213 152.29 112.127L152.941 112.101L153.067 112.088C153.109 112.082 153.15 112.075 153.191 112.065C155.435 111.554 158.31 110.653 161.016 109.774C163.762 108.883 166.318 108.02 168.041 107.536C168.1 107.519 168.159 107.499 168.216 107.476C168.937 107.173 169.921 106.809 170.925 106.521C171.823 106.262 172.661 106.086 173.315 106.037L173.585 106.024L173.712 106.017C176.818 105.695 179.248 105.406 181.857 106.277L181.979 106.312C182.019 106.322 182.061 106.33 182.103 106.337C184.009 106.631 186.802 107.491 188.367 108.384C188.902 108.689 189.571 108.636 190.051 108.25C190.501 107.888 190.701 107.303 190.573 106.746L190.543 106.635L190.542 106.633C190.542 106.632 190.541 106.63 190.541 106.629C190.54 106.626 190.539 106.623 190.537 106.618C190.534 106.609 190.53 106.597 190.525 106.581C190.515 106.549 190.5 106.504 190.481 106.447C190.444 106.334 190.389 106.172 190.317 105.973C190.174 105.573 189.963 105.016 189.689 104.38C189.157 103.141 188.355 101.52 187.311 100.17C187.309 100.168 187.309 100.166 187.308 100.164C187.292 100.141 187.282 100.125 187.258 100.088C187.216 100.024 187.162 99.9401 187.094 99.8428C186.957 99.6468 186.772 99.4005 186.533 99.126C186.054 98.5759 185.361 97.9242 184.391 97.3379C183.142 96.5835 181.493 95.9741 179.344 95.7803C179.357 95.7638 179.371 95.7479 179.384 95.7314C179.885 95.0916 180.347 94.4096 180.713 93.7588C181.02 93.2118 181.303 92.6112 181.454 92.0361L181.51 91.791L181.524 91.7061C181.893 89.0168 181.289 85.9218 179.711 84.0117C179.338 83.5607 178.738 83.3673 178.172 83.5166C177.606 83.666 177.179 84.1308 177.077 84.707C176.446 88.2899 174.574 90.9867 172.367 92.7891C170.128 94.6178 167.633 95.4557 165.865 95.4355C162.378 95.3959 160.11 94.8233 156.705 92.9707C154.772 91.919 153.755 90.5859 152.433 88.9854C151.1 87.3724 149.54 85.6158 146.615 84.3379C146.036 84.085 145.36 84.2213 144.926 84.6797C144.491 85.1382 144.39 85.8201 144.674 86.3848C144.864 86.7641 145.027 87.4254 145.053 88.167C143.904 86.8882 142.446 85.3812 140.968 83.9326C138.596 81.6088 135.988 79.2475 134.287 78.0479L133.959 77.8242C132.371 76.7765 129.42 74.6781 126.109 72.6914C122.805 70.7087 118.959 68.72 115.448 67.8926C114.988 67.7841 114.503 67.8995 114.141 68.2031C113.722 68.5542 113.318 69.1408 113.001 69.6533C112.648 70.2231 112.276 70.9112 111.937 71.6201C111.665 72.1877 111.406 72.7858 111.191 73.3643C109.002 71.3661 108.176 68.7827 107.34 66.2295C107.185 65.7571 106.806 65.3919 106.328 65.2549C105.85 65.1178 105.335 65.2271 104.953 65.5459C103.962 66.3733 102.305 67.4249 100.718 68.2422C100.373 68.42 100.038 68.5814 99.7217 68.7256C99.7292 68.6499 99.7382 68.5745 99.7441 68.499C99.792 67.8947 99.7953 67.2603 99.7354 66.6768C99.6796 66.134 99.5548 65.4707 99.2402 64.9238C99.0015 64.5088 98.5785 64.2327 98.1025 64.1807C97.6265 64.1287 97.1538 64.3073 96.8311 64.6611C95.9495 65.6275 94.8214 66.8506 93.5518 67.8496C93.0194 68.2684 92.4954 68.6201 91.9873 68.8926C91.9964 68.7776 92.0059 68.6617 92.0117 68.5459C92.0431 67.9195 92.0281 67.2436 91.9287 66.6152C91.8359 66.0281 91.6414 65.2903 91.1748 64.708C90.8683 64.3255 90.3943 64.1171 89.9053 64.1494C89.4163 64.1818 88.9742 64.4508 88.7207 64.8701C88.32 65.5332 87.4822 66.3984 86.3779 67.1367C85.8277 67.5046 85.2486 67.8152 84.6719 68.0479C84.5512 67.3244 84.248 66.5532 83.5801 65.8965C83.255 65.5769 82.8023 65.4222 82.3496 65.4766C81.8969 65.531 81.493 65.7881 81.2529 66.1758C80.5243 67.3525 79.4713 68.4595 78.2988 69.2646C77.6851 69.6861 77.0675 70.005 76.4727 70.2158C76.3397 68.5731 75.6739 67.0498 74.3037 65.9219C73.9766 65.6527 73.5509 65.534 73.1318 65.5957C72.7128 65.6574 72.3391 65.8931 72.1035 66.2451C71.3919 67.3087 70.7378 68.251 69.7988 68.9844C69.1237 69.5116 68.2578 69.9612 67.0459 70.1914C66.8451 69.4508 66.5495 68.6773 66.2061 67.9863C65.8906 67.3519 65.5045 66.7153 65.0566 66.1787C64.6284 65.6656 64.0387 65.1158 63.2861 64.8525C62.7434 64.6627 62.1398 64.8004 61.7324 65.2061C61.2037 65.7325 60.7879 66.5134 60.4688 67.2256C60.1292 67.9833 59.8182 68.8518 59.5527 69.6953C59.032 71.3498 58.6294 73.0904 58.5449 73.9072L58.5254 74.1328C58.4452 75.2742 58.6329 76.6385 59.2119 77.7725C59.8613 79.044 61.1349 80.197 63.0723 80.0029H63.0713C64.5683 79.8535 65.867 78.9168 66.7949 78.0029C67.2946 77.5109 67.7461 76.9642 68.1299 76.4199C68.4016 76.7071 68.6905 77.0813 68.9775 77.5527C69.5886 78.5561 70.0358 79.7093 70.2559 80.5C70.3853 80.9652 70.7313 81.3395 71.1846 81.5059C71.638 81.6722 72.1443 81.6101 72.5439 81.3389C73.2193 80.8805 74.1254 80.1116 74.9395 79.1846C75.281 78.7956 75.6251 78.3524 75.9365 77.8721C76.9802 79.2117 77.4681 80.9772 77.4629 82.458C77.461 83.0403 77.7966 83.5709 78.3232 83.8193C78.85 84.0678 79.4727 83.9891 79.9209 83.6172C80.7616 82.9195 81.6371 81.9611 82.3672 80.9639C82.6102 80.6319 82.8459 80.2818 83.0645 79.9238C83.3789 80.3732 83.6832 80.9104 83.9492 81.5195C84.5583 82.9144 84.8602 84.4398 84.7256 85.6807C84.6704 86.1902 84.8792 86.6924 85.2793 87.0127C85.6796 87.3331 86.2159 87.4273 86.7012 87.2617C87.723 86.9131 88.9186 86.2728 89.9736 85.3809C90.2767 85.8486 90.5455 86.3963 90.75 86.9971C91.1395 88.1414 91.2516 89.3187 91.0732 90.25C90.9805 90.7341 91.1318 91.2336 91.4775 91.585C91.8232 91.9361 92.3193 92.0946 92.8047 92.0098C93.3121 91.921 93.8639 91.6606 94.3105 91.417C94.8009 91.1495 95.3355 90.8062 95.8506 90.4297C96.0918 90.2534 96.3339 90.0658 96.5693 89.8711C96.6634 90.3024 96.75 90.7661 96.8223 91.2412C97.0729 92.8886 97.1334 94.4243 97.0059 95.1426C96.9029 95.7235 97.1503 96.311 97.6377 96.6436C98.1252 96.9762 98.7622 96.9916 99.2656 96.6836C100.448 95.9601 101.837 94.6535 103.04 93.3154C103.494 92.8099 103.941 92.2786 104.356 91.7461C104.522 92.4156 104.632 93.0632 104.652 93.5859L104.662 93.708C104.736 94.313 105.17 94.8188 105.768 94.9766C109.4 95.9358 114.065 97.8137 117.019 99.2373C121.044 101.178 128.117 105.203 131.431 108.424V108.425C133.229 110.171 133.753 112.46 134.266 114.566L134.326 114.757C134.495 115.189 134.856 115.523 135.31 115.653Z" fill="#D82342" stroke="white" stroke-width="3" stroke-linejoin="round"/>
<path d="M177.935 83.5986C178.572 83.3088 179.325 83.4977 179.749 84.0547C181.984 86.9903 182.329 90.0703 181.681 92.6553C181.43 93.6522 181.028 94.5782 180.533 95.3975C183.586 95.8324 186.165 97.4968 188.084 99.7891C190.718 102.936 192.167 107.309 192.095 111.564C192.084 112.199 191.675 112.759 191.073 112.961C190.472 113.163 189.807 112.965 189.415 112.466C188.063 110.745 185.282 108.313 181.806 107.086C181.962 107.619 181.812 108.2 181.404 108.59C180.029 109.906 178.214 110.413 176.404 110.577C174.595 110.741 172.591 110.577 170.666 110.374C168.687 110.165 166.797 109.916 165.006 109.843C163.215 109.77 161.716 109.886 160.553 110.315L160.554 110.316C156.406 111.856 150.423 114.192 144.236 111.253C143.54 110.922 143.208 110.115 143.469 109.39C143.73 108.664 144.499 108.255 145.247 108.443C149.251 109.452 152.451 108.256 155.817 106.831C157.712 106.029 159.752 105.095 161.96 104.685C161.359 103.872 160.873 102.924 160.549 101.849C160.355 101.206 160.612 100.511 161.179 100.15C161.745 99.7895 162.482 99.8492 162.983 100.296C164.641 101.774 165.75 102.35 166.843 102.545C167.855 102.725 169.008 102.612 170.803 102.251L171.612 102.081C176.042 101.114 179.948 100.719 183.927 101.94C183.922 101.934 183.918 101.928 183.913 101.922C182.667 100.356 180.414 98.7095 176.222 98.8486C175.883 98.9124 175.47 98.9477 175.038 98.8613C174.516 98.757 174.089 98.3836 173.915 97.8809C173.741 97.3782 173.846 96.8207 174.191 96.416C177.869 92.1071 177.577 87.6532 177.086 85.2656C176.945 84.58 177.297 83.8885 177.935 83.5986ZM95.4805 72.9297C97.1064 72.9319 98.7049 73.0026 99.9717 73.1641L99.9736 73.165C101.971 73.422 106.853 74.0361 109.663 74.5654L110.138 74.6445C111.276 74.8088 112.618 74.8408 113.819 74.7256C114.503 74.66 115.101 74.5503 115.565 74.4102C116.064 74.2596 116.263 74.1166 116.3 74.0811L116.417 73.9775C116.702 73.7521 117.061 73.6366 117.428 73.6562C117.847 73.6787 118.237 73.8758 118.504 74.1992C118.803 74.561 118.941 74.99 119.012 75.2598C119.093 75.572 119.141 75.905 119.167 76.2168C119.18 76.3703 119.188 76.5382 119.189 76.7129C119.372 76.7913 119.577 76.8785 119.8 76.9756C120.815 77.4172 122.233 78.0446 123.839 78.7891C127.037 80.2715 131.04 82.2422 134.119 84.1455L134.122 84.1475C134.483 84.3712 135.19 84.9023 135.967 85.4814C136.786 86.092 137.778 86.8287 138.8 87.5469C139.826 88.2681 140.855 88.9518 141.747 89.46C142.193 89.714 142.582 89.9112 142.904 90.0459C143.247 90.1893 143.424 90.2238 143.471 90.2275C143.926 90.2642 144.341 90.5064 144.596 90.8857C144.851 91.265 144.918 91.7402 144.78 92.1758C144.619 92.6833 144.367 93.1222 144.054 93.501C145.401 94.1805 147.021 94.8778 148.736 95.5C151.442 96.4813 154.263 97.2329 156.491 97.457C157.041 97.5125 157.517 97.8669 157.728 98.3779C157.938 98.8888 157.851 99.4742 157.5 99.9014C156.933 100.592 155.906 101.303 154.763 101.915C153.57 102.554 152.084 103.174 150.461 103.619C147.269 104.495 143.24 104.772 139.9 102.778L139.898 102.777C137.716 101.471 135.664 99.6255 133.732 97.8867C131.753 96.1041 129.889 94.4225 127.947 93.2109H127.946C126.909 92.5629 126.378 92.1095 125.577 91.6738C124.067 94.1447 121.06 96.6075 117.16 96.4092C116.728 96.3872 116.327 96.1793 116.059 95.8398C115.791 95.5004 115.683 95.0618 115.762 94.6367C116.174 92.4128 115.367 90.936 114.213 89.3174C113.72 88.6314 112.736 87.6876 111.5 86.7012C110.294 85.7391 108.951 84.8168 107.817 84.1572C102.786 81.3233 96.783 80.3746 90.7969 79.4531C90.7656 79.4483 90.7341 79.4423 90.7031 79.4355C89.4696 79.1646 86.1174 78.512 85.7734 78.4424C85.611 78.4095 85.4566 78.35 85.3154 78.2676C85.2544 78.2591 85.1511 78.2465 85.0498 78.2275C84.8994 78.1994 84.3507 78.1024 83.9199 77.6602C83.3427 77.0673 83.3627 76.324 83.4971 75.8398C83.6316 75.3552 84.0002 74.97 84.4785 74.8145C84.7518 74.7256 84.9147 74.6597 85.0059 74.6201C85.068 74.5417 85.1519 74.4504 85.2588 74.3594C85.4527 74.1944 85.6562 74.0887 85.832 74.0156C86.136 73.8892 86.5355 73.7884 87.0449 73.6836C87.833 73.4378 89.0208 73.2678 90.2754 73.1514C91.6353 73.0252 93.2213 72.9486 94.7822 72.9326L95.4805 72.9297ZM85.4365 78.2861C85.4651 78.294 85.4712 78.2934 85.4453 78.2881C85.4429 78.2876 85.44 78.2868 85.4365 78.2861ZM76.3486 40.2588H76.3506C77.904 40.3187 79.7736 40.8933 81.7939 41.9893L82.1084 42.1729C82.8337 42.6267 83.492 43.2428 84.0322 43.7607C84.7136 44.414 85.2417 44.9437 85.7666 45.3213C86.2713 45.6843 86.4996 46.3218 86.3408 46.9229C86.182 47.5238 85.6688 47.9648 85.0508 48.0312C82.8758 48.265 80.7932 48.3382 79.0078 48.4512C77.4045 48.5526 76.0297 48.6861 74.8389 48.9658L74.3398 49.0947C73.5195 49.3282 72.8713 49.5487 72.4336 49.708C72.215 49.7876 72.0487 49.8513 71.9404 49.8945C71.8864 49.9161 71.8469 49.9331 71.8223 49.9434C71.8101 49.9484 71.8016 49.9521 71.7969 49.9541C71.7945 49.9551 71.7924 49.9549 71.792 49.9551H71.7939C71.1249 50.2436 70.3449 50.0096 69.9453 49.4004C68.5644 47.2952 69.5562 45.1095 70.5273 43.7725C71.5384 42.3805 72.9458 41.2686 73.7373 40.8115V40.8125C74.503 40.3698 75.4224 40.2241 76.3486 40.2588Z" fill="#CFC580" stroke="white" stroke-width="3" stroke-linejoin="round"/>
<path d="M73.9736 49.5928C74.6013 49.5767 75.6038 49.4574 76.3809 49.3545C76.784 49.3011 77.1526 49.249 77.4199 49.21C77.5536 49.1904 77.6625 49.1735 77.7383 49.1621C77.7759 49.1564 77.8058 49.1525 77.8262 49.1494C77.8361 49.1479 77.8442 49.1463 77.8496 49.1455C77.8523 49.1451 77.855 49.1448 77.8564 49.1445H77.8584V49.1436C78.3073 49.0744 78.7012 48.8062 78.9287 48.4131C79.1562 48.02 79.193 47.5447 79.0293 47.1211C78.5039 45.7614 78.3805 44.3393 78.6738 42.9619C78.8101 42.3212 78.5146 41.666 77.9443 41.3438C77.374 41.0215 76.6602 41.1064 76.1816 41.5537C74.6284 43.0063 73.3102 45.4093 72.5244 47.584C72.3562 48.0499 72.4291 48.5689 72.7188 48.9707C73.0086 49.3725 73.4783 49.6054 73.9736 49.5928Z" fill="#1D1818" stroke="white" stroke-width="3" stroke-linejoin="round"/>
<path d="M108.473 100.966C108.89 100.779 109.374 100.791 109.785 101.007C110.255 101.254 110.559 101.732 110.585 102.262C110.608 102.746 110.756 103.334 110.956 103.826C110.972 103.865 110.99 103.901 111.006 103.937C111.225 103.841 111.482 103.704 111.763 103.526C112.473 103.078 113.193 102.474 113.668 101.982L113.789 101.87C114.084 101.626 114.463 101.502 114.849 101.528C115.29 101.559 115.696 101.783 115.957 102.14C116.221 102.501 116.524 102.973 116.763 103.514C116.921 103.455 117.09 103.384 117.262 103.298C117.571 103.142 117.859 102.959 118.086 102.783C118.199 102.696 118.288 102.616 118.354 102.551C118.386 102.519 118.409 102.492 118.426 102.473C118.44 102.455 118.447 102.446 118.447 102.445L118.575 102.278C118.898 101.912 119.383 101.722 119.877 101.78C120.927 101.905 121.9 102.32 122.666 102.763C123.428 103.204 124.092 103.736 124.515 104.206C125.017 104.765 125.028 105.611 124.54 106.183C123.859 106.981 122.942 107.842 121.917 108.51C120.919 109.16 119.654 109.733 118.319 109.694L118.316 109.693C117.417 109.665 116.527 109.34 115.82 109.015C115.416 108.829 115.025 108.619 114.67 108.419C112.815 109.356 110.81 109.309 109.364 108.655C108.985 108.788 108.601 108.866 108.242 108.907C107.567 108.984 106.872 108.951 106.241 108.864C105.608 108.777 104.993 108.629 104.47 108.447C103.999 108.284 103.424 108.036 103.015 107.665C102.533 107.229 102.387 106.533 102.652 105.94C102.934 105.31 103.455 104.737 103.92 104.291C104.418 103.813 105.004 103.338 105.569 102.913C106.703 102.061 107.855 101.332 108.299 101.058L108.473 100.966ZM67.8535 76.2783C68.3483 76.2353 68.8327 76.4402 69.1465 76.8252C69.7913 77.6164 70.4185 78.7308 70.7012 79.915C70.8218 80.4205 70.8875 80.9899 70.8398 81.5713C71.4536 81.3471 72.1181 80.9915 72.7314 80.54C73.6172 79.888 74.1977 79.1915 74.4053 78.7002C74.6191 78.1941 75.0929 77.8452 75.6396 77.791C76.1862 77.7369 76.7184 77.9863 77.0273 78.4404C77.8151 79.599 78.0015 81.1283 78.0244 82.2988C78.0355 82.8634 78.0072 83.4128 77.9629 83.9053C77.9987 83.9031 78.0338 83.9014 78.0684 83.8975C78.4201 83.8573 78.8006 83.7251 79.3545 83.4785V83.4775C79.4202 83.4483 79.605 83.3279 79.8896 83.0312C80.1542 82.7555 80.4267 82.4107 80.6807 82.0557C80.9318 81.7046 81.1487 81.3669 81.3027 81.1152C81.3791 80.9904 81.4385 80.8883 81.4785 80.8193C81.4984 80.785 81.514 80.7588 81.5234 80.7422C81.528 80.7341 81.5313 80.7281 81.5332 80.7246C81.5338 80.7236 81.5339 80.7222 81.5342 80.7217C81.7747 80.2882 82.2144 80.0017 82.708 79.9561C83.2018 79.9105 83.6871 80.1118 84.0029 80.4941C84.8943 81.573 85.2291 83.2366 85.2939 84.6201C85.3295 85.3784 85.2892 86.1989 85.1494 86.9756C85.5837 86.9641 86.057 86.8878 86.5488 86.7451C87.5968 86.4411 88.4057 85.9453 88.6572 85.7148L88.7822 85.6123C89.0833 85.3904 89.4583 85.2873 89.834 85.3281C90.2635 85.375 90.6525 85.6051 90.9004 85.959C91.3552 86.6081 91.5457 87.4007 91.6309 88.0791C91.7197 88.7876 91.7132 89.5413 91.6582 90.2373C91.6177 90.7503 91.5477 91.2538 91.4619 91.7148C91.842 91.6839 92.2526 91.6158 92.6768 91.5029C93.7363 91.221 94.553 90.7702 94.8691 90.4775C95.2546 90.1207 95.799 89.9913 96.3037 90.1367C96.8084 90.2822 97.2004 90.6813 97.3369 91.1885C97.8351 93.041 97.8116 95.2877 97.0879 97.2646C97.5869 97.1116 98.2107 96.8068 98.9482 96.292C100.224 95.4017 101.521 94.1072 102.552 92.8174C102.903 92.3773 103.473 92.1715 104.024 92.2842C104.576 92.3969 105.018 92.8091 105.169 93.3516C106.242 97.21 105.059 101.568 102.527 104.372C102.459 104.448 102.382 104.517 102.3 104.577C101.11 105.448 99.6507 105.205 98.9014 105.052C98.8838 105.048 98.866 105.044 98.8486 105.04C98.1931 104.882 97.6214 104.666 97.1025 104.349C96.581 104.029 96.1772 103.647 95.8184 103.232C95.4773 102.839 95.141 102.372 94.7959 101.901C94.4381 101.414 94.027 100.859 93.4893 100.204C92.4448 98.9329 90.0532 96.5639 87.0859 94.1035C84.1222 91.646 80.6891 89.1854 77.5811 87.6719C77.5727 87.6678 77.564 87.6634 77.5557 87.6592C76.1016 86.9173 74.2107 86.176 72.6494 85.6104C71.8759 85.3301 71.1964 85.0975 70.7109 84.9355C70.4685 84.8547 70.2748 84.7918 70.1426 84.749C70.0766 84.7277 70.026 84.711 69.9922 84.7002C69.9753 84.6948 69.9623 84.6911 69.9541 84.6885C69.9502 84.6872 69.9472 84.6861 69.9453 84.6855L69.9434 84.6846C69.6761 84.6005 69.4466 84.4461 69.2705 84.2471C68.9726 84.3507 68.6436 84.3618 68.3301 84.2637C66.4108 83.6631 64.3293 83.2314 62.3027 82.8145C61.6009 82.6699 61.0993 82.0486 61.1055 81.332C61.1117 80.6152 61.6246 80.0033 62.3291 79.8711C62.8094 79.7809 63.7583 79.3703 64.749 78.7344C65.7628 78.0837 66.4578 77.4277 66.6748 77.04L66.7744 76.8848C67.0282 76.539 67.4204 76.316 67.8535 76.2783ZM112.57 57.0986C113.549 57.0408 114.559 57.2606 115.397 57.5361C116.248 57.8155 117.039 58.1908 117.612 58.5449C119.759 59.8668 122.889 61.4735 124.404 62.0371C125.996 62.6291 129.955 63.9001 132.717 64.6445C132.961 64.7103 133.185 64.8373 133.367 65.0127C134.014 65.6354 134.309 66.4928 134.452 67.2334C134.602 68.0084 134.627 68.8672 134.574 69.7061C134.47 71.3709 134.047 73.2029 133.43 74.5459C133.211 75.0223 132.758 75.3495 132.237 75.4092C131.716 75.4688 131.202 75.2524 130.881 74.8379C130.053 73.7695 129.383 72.2171 128.987 70.7012C128.879 70.2856 128.788 69.8504 128.718 69.4092C128.642 69.485 128.57 69.5604 128.502 69.6338C128.142 70.0215 127.604 70.1913 127.087 70.0801C126.57 69.9689 126.149 69.5932 125.98 69.0918C125.83 68.6444 125.643 68.1299 125.427 67.6357C125.025 67.9969 124.524 68.3814 124.001 68.5908C123.363 68.8458 122.634 68.6354 122.23 68.0801C121.973 67.7257 121.729 67.3021 121.507 66.8643C121.201 67.1058 120.876 67.3337 120.536 67.5264C119.92 67.8753 119.143 67.7451 118.674 67.2148C118.13 66.6009 117.543 65.6392 117.077 64.667C116.991 64.4874 116.907 64.3003 116.825 64.1094C116.238 64.8659 115.624 65.8049 115.035 66.8066C113.833 68.8503 112.802 71.0303 112.347 72.1846C112.153 72.6764 111.714 73.0301 111.192 73.1152C110.671 73.2003 110.143 73.0042 109.803 72.5996C107.04 69.3108 106.963 64.4054 107.97 60.5742L108.009 60.4492C108.023 60.4085 108.04 60.3684 108.058 60.3291C108.516 59.3304 109.613 57.7745 111.695 57.2344L111.916 57.1836C112.137 57.1389 112.356 57.1118 112.564 57.0986H112.57ZM103.147 55.8896L103.149 55.8906C103.656 55.9097 104.376 55.9865 105 56.3311C105.337 56.5172 105.692 56.8053 105.939 57.2412C106.192 57.6856 106.27 58.1726 106.229 58.6416V58.6455C106.093 60.1415 105.458 62.2633 104.639 64.1445C104.222 65.0999 103.737 66.0416 103.209 66.8496C102.698 67.6314 102.072 68.4035 101.338 68.8975C100.857 69.221 100.233 69.2385 99.7344 68.9424C99.2359 68.6459 98.953 68.0881 99.0078 67.5107C99.1424 66.0937 98.9624 64.5121 98.4531 63.124C96.9946 65.4701 95.0897 67.4796 93.7354 68.4688C93.2859 68.797 92.6914 68.8501 92.1914 68.6055C91.6914 68.3609 91.3683 67.8591 91.3516 67.3027C91.3094 65.9006 91.1471 64.9866 90.8379 64.2568C90.7442 64.0357 90.6304 63.8213 90.4932 63.6055C90.0756 64.2738 89.598 64.9085 89.0879 65.4785C88.0839 66.6003 86.8316 67.6088 85.5127 68.0498C85.011 68.2175 84.4582 68.1082 84.0576 67.7627C83.657 67.4171 83.4682 66.8862 83.5605 66.3652C83.5295 66.5402 83.5898 66.5152 83.4531 66.1621C83.3416 65.8741 83.1542 65.5097 82.9072 65.1162C82.8372 65.0046 82.7646 64.8948 82.6914 64.7881C81.2322 67.6622 79.4864 69.5257 77.6484 70.2119C77.2215 70.3713 76.7447 70.3286 76.3535 70.0947C75.9624 69.8608 75.6993 69.4613 75.6377 69.0098C75.4983 67.9864 74.7038 66.7206 73.1172 65.7051C71.406 68.5577 69.3451 69.9432 68.1504 70.543C67.7009 70.7686 67.1678 70.7538 66.7314 70.5039C66.295 70.2539 66.0132 69.8017 65.9805 69.2998C65.8993 68.0581 64.8646 66.3663 63.2578 65.6504C62.6276 65.3696 62.2701 64.6948 62.3916 64.0156C62.5132 63.3367 63.0822 62.8281 63.7705 62.7832C69.1756 62.4317 77.6698 60.4762 80.708 59.9766C82.0922 59.7483 86.6472 58.8178 91.2051 57.9014C95.6722 57.0032 100.235 56.0988 101.46 55.9727C101.752 55.9424 102.188 55.8982 102.663 55.8877L103.147 55.8896ZM77.6934 42.6904C77.9026 41.9168 78.6833 41.4439 79.4658 41.6172L79.1416 43.082C79.4449 41.7131 79.4651 41.6239 79.4668 41.6182H79.4697C79.4713 41.6185 79.4735 41.6196 79.4756 41.6201C79.48 41.6211 79.4857 41.6225 79.4922 41.624C79.5052 41.627 79.523 41.6307 79.5439 41.6357C79.5858 41.6459 79.6433 41.6601 79.7129 41.6787C79.8517 41.7158 80.0433 41.7709 80.2637 41.8447C80.6859 41.9863 81.2933 42.2237 81.8379 42.5811C82.3275 42.9024 83.1115 43.5469 83.25 44.6084C83.3998 45.7573 82.721 46.6786 81.9268 47.3398C81.3917 47.7852 80.6205 47.8046 80.0645 47.3857C79.5088 46.967 79.314 46.2208 79.5938 45.584L79.5928 45.5859L79.5918 45.5889L79.5859 45.6035C79.5839 45.6084 79.5818 45.6114 79.5811 45.6133C79.5815 45.612 79.5821 45.61 79.583 45.6074C79.5883 45.5919 79.5987 45.5588 79.6084 45.5137C79.6295 45.4157 79.6386 45.3062 79.623 45.209C79.6101 45.1281 79.5798 45.0463 79.4961 44.9541C79.4065 44.8553 79.1884 44.6726 78.6836 44.5107C77.9203 44.266 77.4841 43.4642 77.6934 42.6904Z" fill="white" stroke="white" stroke-width="3" stroke-linejoin="round"/>
<mask id="path-6-outside-1_107_20216" maskUnits="userSpaceOnUse" x="7.98633" y="22.125" width="128" height="141" fill="black">
<rect fill="white" x="7.98633" y="22.125" width="128" height="141"/>
<path d="M42.0743 25.125C43.611 26.6259 45.5242 28.736 45.3326 30.3606C44.93 30.7156 44.0707 30.9808 43.0457 30.9667C44.5416 32.1001 46.3145 34.6068 46.5886 35.5768C46.8641 36.5453 46.0508 36.653 45.0207 37.2583C45.3319 37.5272 50.4091 38.0463 50.958 40.5152C51.8604 40.7744 52.5838 40.9385 53.4922 41.292C53.6073 40.6407 53.4862 39.7747 53.4818 39.0163C52.9782 37.773 49.1524 36.9025 47.9812 36.7681C49.0195 35.9927 50.0088 35.3993 51.2685 35.3852C50.4054 34.41 48.888 33.4199 46.876 32.7425C47.3038 32.2976 49.8276 32.2813 51.339 32.9148C50.6683 31.4398 47.765 28.867 45.3905 26.889C49.7451 28.2747 55.1544 32.8926 57.2043 35.2313C55.6156 37.1148 55.8243 41.052 56.7475 42.4557C56.749 40.0248 57.1352 36.7843 58.282 35.1733C55.8154 31.4404 48.2946 25.8328 42.0743 25.125ZM77.8394 34.464C74.6947 34.3422 69.9606 35.1451 68.5643 35.4972C65.147 37.9184 66.5188 43.425 63.6333 46.1805C65.2495 46.1538 66.0405 47.4053 67.009 47.077C66.9102 45.1377 69.3694 40.9443 71.3191 39.6297C72.7867 38.9449 74.8143 38.8951 76.9979 39.1365C76.9912 38.3009 76.1275 37.2292 76.1275 37.2292C79.3672 37.3785 85.2385 42.0621 86.8873 43.3158C88.5139 44.5517 89.9102 45.2759 89.9102 45.2759C89.2937 44.2167 89.1526 41.765 88.1425 40.8834C86.3451 39.5153 82.4384 35.7757 80.2696 34.9461C79.7594 34.6482 78.8882 34.5049 77.8394 34.464ZM39.4339 42.9051C39.7986 43.8602 40.5056 44.8035 40.5962 45.8485C41.3301 44.6498 41.7987 43.7629 41.7987 43.7629C41.4979 43.5126 40.2464 42.986 39.4339 42.9051ZM95.8966 43.8543C95.243 43.9405 94.426 44.5079 93.9432 45.1392C95.0722 45.4482 96.2531 45.4571 97.4934 45.5848L97.5528 45.4935L95.8966 43.8543ZM114.383 43.8914C112.764 43.8432 110.877 44.34 110.877 44.34C109.496 44.5131 107.743 46.6766 106.473 47.1208C106.503 47.7543 107.869 49.3014 107.981 49.6349C107.899 49.8444 107.728 50.1147 107.557 50.235C105.79 49.5332 102.143 48.7496 100.442 48.5439C97.0478 48.1324 88.6921 48.7541 86.0703 48.8283C81.1163 48.2839 74.4185 49.2532 71.2522 49.9788C68.3645 50.6398 64.7207 52.0896 62.7413 53.0789C63.3355 52.0933 63.5331 51.035 63.5041 50.1615C61.0264 47.8672 53.8346 44.8325 48.4818 45.7802C47.5021 46.3499 46.3449 47.4691 45.721 48.4614C44.728 50.1132 44.0618 51.8148 43.6615 53.711C43.0836 59.2138 47.1731 63.6353 49.7511 65.6354C49.35 65.8122 48.6905 66.142 47.5808 65.8932C47.0416 67.3957 46.8426 69.6387 47.2473 71.5015C46.7104 72.1454 45.5227 72.6728 44.6493 72.9015C44.6493 72.9015 52.9448 83.4816 55.4953 86.6345C59.3783 86.6583 64.2951 87.4441 67.3589 88.1749C70.4233 88.9065 78.444 92.0022 84.5552 95.8436C77.5193 89.0328 67.5579 85.2063 65.3899 84.5876C63.2211 83.9689 59.4793 83.4051 57.8468 83.2432C57.8468 83.2432 53.764 77.6817 53.2486 75.4587C52.7324 73.2365 55.3676 64 56.1162 60.8627L56.1177 60.8582C59.9457 62.2137 65.3773 61.8082 70.5905 60.9659C75.9819 60.0955 99.8999 54.4181 108.055 54.3854C111.62 54.6409 115.014 55.5307 117.918 57.6304C120.666 59.609 127.262 62.3155 132.602 62.7039C132.045 62.1565 131.763 60.9132 131.963 60.1215C132.26 58.9361 132.142 56.9612 132.06 56.4108C131.986 55.8604 131.792 54.9766 131.599 54.6134C131.258 54.7011 130.946 54.8191 130.723 55.1504C131.169 55.9652 131.644 56.725 131.614 57.721C131.584 57.8703 131.443 57.9304 131.332 57.9891C130.277 56.5593 127.611 53.9865 126.363 53.0715C126.928 52.2605 127.834 51.8148 128.569 50.9436C129.557 50.2863 130.656 50.9258 131.696 50.4192C131.882 49.45 130.485 49.6164 130.032 49.649C128.302 49.7701 122.761 52.6987 122.976 54.8281C122.947 55.1296 122.605 55.0977 122.464 55.0962C121.907 54.098 122.026 51.4412 121.268 50.5618C119.508 48.3173 117.852 46.3469 115.831 44.1618C115.43 43.9858 114.918 43.9078 114.383 43.8914ZM28.8434 45.9517C27.3052 45.9443 25.7603 46.107 24.3974 46.3112C25.7596 46.7665 26.4592 48.197 26.8967 49.1299C29.032 48.3574 31.0738 47.2032 33.2552 46.6128C31.9145 46.1367 30.3823 45.9592 28.8434 45.9517ZM113.967 47.1691C116.299 48.4213 119.047 52.0562 119.589 52.6987C119.939 53.1086 120.748 54.3015 120.184 54.9313C119.003 54.4099 118.223 53.3188 117.183 52.3474C116.99 52.0443 116.656 51.5913 116.173 51.5281C115.98 52.1067 117.124 53.1317 116.782 53.5528C115.772 53.0032 115.059 52.2085 113.863 51.6626C112.667 51.1152 111.13 50.671 110.008 50.4007C111.249 49.2933 112.355 47.5501 113.967 47.1691ZM35.0525 49.6825C34.2326 49.7099 33.5812 49.7812 33.5812 49.7812C33.5812 49.7812 29.2504 52.2218 27.2569 53.4005C26.6211 54.6721 26.2126 55.9897 25.9393 57.3986H28.5292C30.3934 55.8538 33.247 54.4255 35.4284 53.2438C35.4284 53.2438 36.9955 51.1635 37.5399 49.8466C36.8626 49.6713 35.8725 49.655 35.0525 49.6825ZM21.2772 51.3016C19.9485 51.3209 18.7728 51.4234 17.4433 51.6277L20.3503 53.5818C21.0789 52.9014 22.0333 51.947 22.6684 51.3105C22.1796 51.2986 21.7199 51.2949 21.2772 51.3016ZM24.2147 54.9922C23.2596 55.8552 20.1884 58.9502 19.2652 60.2039C20.1238 59.941 21.0477 59.5444 21.0477 59.5444L23.6851 57.236C23.6851 57.236 24.0171 55.6517 24.2147 54.9922ZM37.479 55.4445C35.4351 56.3997 32.8511 57.7187 30.943 59.0831C30.7165 60.7179 30.6786 62.1833 30.7091 63.7593C31.6642 64.0765 32.4359 64.8043 33.4364 64.9403L39.6612 61.1241C39.9776 59.9425 40.75 58.6241 41.0694 57.3073C39.9144 56.3113 38.8583 55.9169 37.479 55.4445ZM16.7615 57.6252C15.5345 57.8977 14.4895 58.7608 13.3999 59.3973L15.2626 60.0331L16.7615 57.6252ZM26.9576 59.9194C25.8019 59.912 24.4784 60.2039 24.4784 60.2039C24.4784 60.2039 20.0673 64.6157 18.6257 66.6663L18.5336 70.3005L20.5776 70.074C22.4879 68.1206 24.621 65.9845 27.0304 64.485C27.1663 64.1678 27.2487 61.061 27.4396 59.9432C27.2851 59.9276 27.1232 59.9209 26.9576 59.9194ZM13.5106 64.9217C13.1466 65.3302 11.2579 66.9412 10.9863 67.395L12.1729 67.8406C12.3087 67.294 13.3293 65.4661 13.5106 64.9217ZM28.501 66.4057C27.5243 66.8788 24.2801 69.9017 24.2801 69.9017C24.2801 69.9017 24.0818 70.9571 24.1479 71.7496C25.5338 70.2983 29.0432 67.1996 30.6786 66.4725L28.501 66.4057ZM15.8984 68.6658C14.2629 70.8925 13.7623 73.619 12.9461 76.1628C13.5841 74.0706 15.9675 70.891 15.9675 70.891C15.9675 70.891 16.0685 69.3944 15.8984 68.6658ZM20.1267 73.0003C19.4382 73.001 18.7379 73.0686 18.1437 73.2001C16.7347 75.5174 14.967 78.2231 14.0126 80.7685C13.8767 82.2665 14.3186 84.0855 14.8772 85.4915C16.4956 81.3151 18.2098 77.4218 22.0355 73.2001C21.4904 73.0642 20.8153 72.9988 20.1267 73.0003ZM37.8727 74.0929C36.9918 75.5219 36.235 79.4204 36.0099 80.8784C38.7714 80.8034 43.0153 80.4573 44.4406 80.9282C42.9492 79.468 39.9152 77.2153 37.8727 74.0929ZM42.5697 83.9035C39.7154 83.8783 36.9547 84.3499 35.978 85.2308C36.0188 87.1908 36.0872 89.2496 36.8277 90.9906C40.9602 89.2771 45.3007 87.7753 49.942 89.0996C49.4131 87.8452 48.8605 86.0745 47.4419 84.5036C46.0278 84.1122 44.2824 83.9184 42.5697 83.9035ZM47.9574 91.7586C44.7236 91.74 40.2776 92.5971 37.8043 94.3782C38.3324 98.0717 41.1258 102.803 41.1258 102.803C41.1258 102.803 48.787 99.1561 55.5948 99.0893C53.744 96.8982 52.2243 94.4309 50.6683 92.0661C49.9776 91.867 49.0351 91.7645 47.9574 91.7586ZM58.2062 101.964C52.9114 102.238 47.5637 103.657 43.1542 106.658C44.5401 109.97 47.2644 113.001 49.5981 115.875C54.024 112.228 59.8469 110.98 64.9079 108.782C62.5222 106.776 60.398 104.303 58.2062 101.964ZM93.6305 105.269C94.4401 107.14 96.0147 108.522 97.9903 109.294C101.162 110.186 104.712 111.782 107.282 112.25C109.844 112.726 112.563 113.038 113.87 113.023C115.177 113.015 117.695 112.54 120.049 111.099C118.49 111.263 116.358 110.698 115.014 109.881C113.751 111.069 110.349 111.3 109.369 109.918C106.472 110.653 103.94 109.651 102.476 108.618C100.367 108.722 96.6014 107.764 93.6305 105.269ZM67.3626 111.968C61.4728 112.837 56.9919 115.325 52.3974 119.574C53.7833 122.195 56.9265 124.594 59.2505 126.778C65.6298 122.537 72.783 120.814 80.2318 120.606C77.1197 117.865 70.788 113.981 67.3626 111.968ZM81.6949 123.844C75.7175 123.926 68.4239 126.34 62.2489 129.779C62.2489 129.779 66.1274 134.361 73.0036 136.656C80.5289 132.423 89.553 131.858 94.6926 132.423C92.2268 129.251 87.4659 125.367 84.1756 123.956C83.3809 123.867 82.5491 123.837 81.6949 123.844ZM95.6582 136.278C90.1917 136.218 81.9326 138.001 77.7659 140.006C77.7659 140.006 88.6988 144.589 94.6926 148.117C97.9755 147.864 103.94 147.359 106.509 147.47C106.509 147.47 104.155 140.422 97.8121 136.419C97.1659 136.329 96.438 136.285 95.6582 136.278ZM106.658 152.031C104.615 152.023 101.949 152.343 100.077 152.439C105.566 154.757 110.268 157.698 112.384 159.814C112.154 157.46 110.52 153.791 108.448 152.172C107.958 152.075 107.341 152.038 106.658 152.031Z"/>
</mask>
<path d="M42.0743 25.125C43.611 26.6259 45.5242 28.736 45.3326 30.3606C44.93 30.7156 44.0707 30.9808 43.0457 30.9667C44.5416 32.1001 46.3145 34.6068 46.5886 35.5768C46.8641 36.5453 46.0508 36.653 45.0207 37.2583C45.3319 37.5272 50.4091 38.0463 50.958 40.5152C51.8604 40.7744 52.5838 40.9385 53.4922 41.292C53.6073 40.6407 53.4862 39.7747 53.4818 39.0163C52.9782 37.773 49.1524 36.9025 47.9812 36.7681C49.0195 35.9927 50.0088 35.3993 51.2685 35.3852C50.4054 34.41 48.888 33.4199 46.876 32.7425C47.3038 32.2976 49.8276 32.2813 51.339 32.9148C50.6683 31.4398 47.765 28.867 45.3905 26.889C49.7451 28.2747 55.1544 32.8926 57.2043 35.2313C55.6156 37.1148 55.8243 41.052 56.7475 42.4557C56.749 40.0248 57.1352 36.7843 58.282 35.1733C55.8154 31.4404 48.2946 25.8328 42.0743 25.125ZM77.8394 34.464C74.6947 34.3422 69.9606 35.1451 68.5643 35.4972C65.147 37.9184 66.5188 43.425 63.6333 46.1805C65.2495 46.1538 66.0405 47.4053 67.009 47.077C66.9102 45.1377 69.3694 40.9443 71.3191 39.6297C72.7867 38.9449 74.8143 38.8951 76.9979 39.1365C76.9912 38.3009 76.1275 37.2292 76.1275 37.2292C79.3672 37.3785 85.2385 42.0621 86.8873 43.3158C88.5139 44.5517 89.9102 45.2759 89.9102 45.2759C89.2937 44.2167 89.1526 41.765 88.1425 40.8834C86.3451 39.5153 82.4384 35.7757 80.2696 34.9461C79.7594 34.6482 78.8882 34.5049 77.8394 34.464ZM39.4339 42.9051C39.7986 43.8602 40.5056 44.8035 40.5962 45.8485C41.3301 44.6498 41.7987 43.7629 41.7987 43.7629C41.4979 43.5126 40.2464 42.986 39.4339 42.9051ZM95.8966 43.8543C95.243 43.9405 94.426 44.5079 93.9432 45.1392C95.0722 45.4482 96.2531 45.4571 97.4934 45.5848L97.5528 45.4935L95.8966 43.8543ZM114.383 43.8914C112.764 43.8432 110.877 44.34 110.877 44.34C109.496 44.5131 107.743 46.6766 106.473 47.1208C106.503 47.7543 107.869 49.3014 107.981 49.6349C107.899 49.8444 107.728 50.1147 107.557 50.235C105.79 49.5332 102.143 48.7496 100.442 48.5439C97.0478 48.1324 88.6921 48.7541 86.0703 48.8283C81.1163 48.2839 74.4185 49.2532 71.2522 49.9788C68.3645 50.6398 64.7207 52.0896 62.7413 53.0789C63.3355 52.0933 63.5331 51.035 63.5041 50.1615C61.0264 47.8672 53.8346 44.8325 48.4818 45.7802C47.5021 46.3499 46.3449 47.4691 45.721 48.4614C44.728 50.1132 44.0618 51.8148 43.6615 53.711C43.0836 59.2138 47.1731 63.6353 49.7511 65.6354C49.35 65.8122 48.6905 66.142 47.5808 65.8932C47.0416 67.3957 46.8426 69.6387 47.2473 71.5015C46.7104 72.1454 45.5227 72.6728 44.6493 72.9015C44.6493 72.9015 52.9448 83.4816 55.4953 86.6345C59.3783 86.6583 64.2951 87.4441 67.3589 88.1749C70.4233 88.9065 78.444 92.0022 84.5552 95.8436C77.5193 89.0328 67.5579 85.2063 65.3899 84.5876C63.2211 83.9689 59.4793 83.4051 57.8468 83.2432C57.8468 83.2432 53.764 77.6817 53.2486 75.4587C52.7324 73.2365 55.3676 64 56.1162 60.8627L56.1177 60.8582C59.9457 62.2137 65.3773 61.8082 70.5905 60.9659C75.9819 60.0955 99.8999 54.4181 108.055 54.3854C111.62 54.6409 115.014 55.5307 117.918 57.6304C120.666 59.609 127.262 62.3155 132.602 62.7039C132.045 62.1565 131.763 60.9132 131.963 60.1215C132.26 58.9361 132.142 56.9612 132.06 56.4108C131.986 55.8604 131.792 54.9766 131.599 54.6134C131.258 54.7011 130.946 54.8191 130.723 55.1504C131.169 55.9652 131.644 56.725 131.614 57.721C131.584 57.8703 131.443 57.9304 131.332 57.9891C130.277 56.5593 127.611 53.9865 126.363 53.0715C126.928 52.2605 127.834 51.8148 128.569 50.9436C129.557 50.2863 130.656 50.9258 131.696 50.4192C131.882 49.45 130.485 49.6164 130.032 49.649C128.302 49.7701 122.761 52.6987 122.976 54.8281C122.947 55.1296 122.605 55.0977 122.464 55.0962C121.907 54.098 122.026 51.4412 121.268 50.5618C119.508 48.3173 117.852 46.3469 115.831 44.1618C115.43 43.9858 114.918 43.9078 114.383 43.8914ZM28.8434 45.9517C27.3052 45.9443 25.7603 46.107 24.3974 46.3112C25.7596 46.7665 26.4592 48.197 26.8967 49.1299C29.032 48.3574 31.0738 47.2032 33.2552 46.6128C31.9145 46.1367 30.3823 45.9592 28.8434 45.9517ZM113.967 47.1691C116.299 48.4213 119.047 52.0562 119.589 52.6987C119.939 53.1086 120.748 54.3015 120.184 54.9313C119.003 54.4099 118.223 53.3188 117.183 52.3474C116.99 52.0443 116.656 51.5913 116.173 51.5281C115.98 52.1067 117.124 53.1317 116.782 53.5528C115.772 53.0032 115.059 52.2085 113.863 51.6626C112.667 51.1152 111.13 50.671 110.008 50.4007C111.249 49.2933 112.355 47.5501 113.967 47.1691ZM35.0525 49.6825C34.2326 49.7099 33.5812 49.7812 33.5812 49.7812C33.5812 49.7812 29.2504 52.2218 27.2569 53.4005C26.6211 54.6721 26.2126 55.9897 25.9393 57.3986H28.5292C30.3934 55.8538 33.247 54.4255 35.4284 53.2438C35.4284 53.2438 36.9955 51.1635 37.5399 49.8466C36.8626 49.6713 35.8725 49.655 35.0525 49.6825ZM21.2772 51.3016C19.9485 51.3209 18.7728 51.4234 17.4433 51.6277L20.3503 53.5818C21.0789 52.9014 22.0333 51.947 22.6684 51.3105C22.1796 51.2986 21.7199 51.2949 21.2772 51.3016ZM24.2147 54.9922C23.2596 55.8552 20.1884 58.9502 19.2652 60.2039C20.1238 59.941 21.0477 59.5444 21.0477 59.5444L23.6851 57.236C23.6851 57.236 24.0171 55.6517 24.2147 54.9922ZM37.479 55.4445C35.4351 56.3997 32.8511 57.7187 30.943 59.0831C30.7165 60.7179 30.6786 62.1833 30.7091 63.7593C31.6642 64.0765 32.4359 64.8043 33.4364 64.9403L39.6612 61.1241C39.9776 59.9425 40.75 58.6241 41.0694 57.3073C39.9144 56.3113 38.8583 55.9169 37.479 55.4445ZM16.7615 57.6252C15.5345 57.8977 14.4895 58.7608 13.3999 59.3973L15.2626 60.0331L16.7615 57.6252ZM26.9576 59.9194C25.8019 59.912 24.4784 60.2039 24.4784 60.2039C24.4784 60.2039 20.0673 64.6157 18.6257 66.6663L18.5336 70.3005L20.5776 70.074C22.4879 68.1206 24.621 65.9845 27.0304 64.485C27.1663 64.1678 27.2487 61.061 27.4396 59.9432C27.2851 59.9276 27.1232 59.9209 26.9576 59.9194ZM13.5106 64.9217C13.1466 65.3302 11.2579 66.9412 10.9863 67.395L12.1729 67.8406C12.3087 67.294 13.3293 65.4661 13.5106 64.9217ZM28.501 66.4057C27.5243 66.8788 24.2801 69.9017 24.2801 69.9017C24.2801 69.9017 24.0818 70.9571 24.1479 71.7496C25.5338 70.2983 29.0432 67.1996 30.6786 66.4725L28.501 66.4057ZM15.8984 68.6658C14.2629 70.8925 13.7623 73.619 12.9461 76.1628C13.5841 74.0706 15.9675 70.891 15.9675 70.891C15.9675 70.891 16.0685 69.3944 15.8984 68.6658ZM20.1267 73.0003C19.4382 73.001 18.7379 73.0686 18.1437 73.2001C16.7347 75.5174 14.967 78.2231 14.0126 80.7685C13.8767 82.2665 14.3186 84.0855 14.8772 85.4915C16.4956 81.3151 18.2098 77.4218 22.0355 73.2001C21.4904 73.0642 20.8153 72.9988 20.1267 73.0003ZM37.8727 74.0929C36.9918 75.5219 36.235 79.4204 36.0099 80.8784C38.7714 80.8034 43.0153 80.4573 44.4406 80.9282C42.9492 79.468 39.9152 77.2153 37.8727 74.0929ZM42.5697 83.9035C39.7154 83.8783 36.9547 84.3499 35.978 85.2308C36.0188 87.1908 36.0872 89.2496 36.8277 90.9906C40.9602 89.2771 45.3007 87.7753 49.942 89.0996C49.4131 87.8452 48.8605 86.0745 47.4419 84.5036C46.0278 84.1122 44.2824 83.9184 42.5697 83.9035ZM47.9574 91.7586C44.7236 91.74 40.2776 92.5971 37.8043 94.3782C38.3324 98.0717 41.1258 102.803 41.1258 102.803C41.1258 102.803 48.787 99.1561 55.5948 99.0893C53.744 96.8982 52.2243 94.4309 50.6683 92.0661C49.9776 91.867 49.0351 91.7645 47.9574 91.7586ZM58.2062 101.964C52.9114 102.238 47.5637 103.657 43.1542 106.658C44.5401 109.97 47.2644 113.001 49.5981 115.875C54.024 112.228 59.8469 110.98 64.9079 108.782C62.5222 106.776 60.398 104.303 58.2062 101.964ZM93.6305 105.269C94.4401 107.14 96.0147 108.522 97.9903 109.294C101.162 110.186 104.712 111.782 107.282 112.25C109.844 112.726 112.563 113.038 113.87 113.023C115.177 113.015 117.695 112.54 120.049 111.099C118.49 111.263 116.358 110.698 115.014 109.881C113.751 111.069 110.349 111.3 109.369 109.918C106.472 110.653 103.94 109.651 102.476 108.618C100.367 108.722 96.6014 107.764 93.6305 105.269ZM67.3626 111.968C61.4728 112.837 56.9919 115.325 52.3974 119.574C53.7833 122.195 56.9265 124.594 59.2505 126.778C65.6298 122.537 72.783 120.814 80.2318 120.606C77.1197 117.865 70.788 113.981 67.3626 111.968ZM81.6949 123.844C75.7175 123.926 68.4239 126.34 62.2489 129.779C62.2489 129.779 66.1274 134.361 73.0036 136.656C80.5289 132.423 89.553 131.858 94.6926 132.423C92.2268 129.251 87.4659 125.367 84.1756 123.956C83.3809 123.867 82.5491 123.837 81.6949 123.844ZM95.6582 136.278C90.1917 136.218 81.9326 138.001 77.7659 140.006C77.7659 140.006 88.6988 144.589 94.6926 148.117C97.9755 147.864 103.94 147.359 106.509 147.47C106.509 147.47 104.155 140.422 97.8121 136.419C97.1659 136.329 96.438 136.285 95.6582 136.278ZM106.658 152.031C104.615 152.023 101.949 152.343 100.077 152.439C105.566 154.757 110.268 157.698 112.384 159.814C112.154 157.46 110.52 153.791 108.448 152.172C107.958 152.075 107.341 152.038 106.658 152.031Z" fill="#00704A"/>
<path d="M42.0743 25.125C43.611 26.6259 45.5242 28.736 45.3326 30.3606C44.93 30.7156 44.0707 30.9808 43.0457 30.9667C44.5416 32.1001 46.3145 34.6068 46.5886 35.5768C46.8641 36.5453 46.0508 36.653 45.0207 37.2583C45.3319 37.5272 50.4091 38.0463 50.958 40.5152C51.8604 40.7744 52.5838 40.9385 53.4922 41.292C53.6073 40.6407 53.4862 39.7747 53.4818 39.0163C52.9782 37.773 49.1524 36.9025 47.9812 36.7681C49.0195 35.9927 50.0088 35.3993 51.2685 35.3852C50.4054 34.41 48.888 33.4199 46.876 32.7425C47.3038 32.2976 49.8276 32.2813 51.339 32.9148C50.6683 31.4398 47.765 28.867 45.3905 26.889C49.7451 28.2747 55.1544 32.8926 57.2043 35.2313C55.6156 37.1148 55.8243 41.052 56.7475 42.4557C56.749 40.0248 57.1352 36.7843 58.282 35.1733C55.8154 31.4404 48.2946 25.8328 42.0743 25.125ZM77.8394 34.464C74.6947 34.3422 69.9606 35.1451 68.5643 35.4972C65.147 37.9184 66.5188 43.425 63.6333 46.1805C65.2495 46.1538 66.0405 47.4053 67.009 47.077C66.9102 45.1377 69.3694 40.9443 71.3191 39.6297C72.7867 38.9449 74.8143 38.8951 76.9979 39.1365C76.9912 38.3009 76.1275 37.2292 76.1275 37.2292C79.3672 37.3785 85.2385 42.0621 86.8873 43.3158C88.5139 44.5517 89.9102 45.2759 89.9102 45.2759C89.2937 44.2167 89.1526 41.765 88.1425 40.8834C86.3451 39.5153 82.4384 35.7757 80.2696 34.9461C79.7594 34.6482 78.8882 34.5049 77.8394 34.464ZM39.4339 42.9051C39.7986 43.8602 40.5056 44.8035 40.5962 45.8485C41.3301 44.6498 41.7987 43.7629 41.7987 43.7629C41.4979 43.5126 40.2464 42.986 39.4339 42.9051ZM95.8966 43.8543C95.243 43.9405 94.426 44.5079 93.9432 45.1392C95.0722 45.4482 96.2531 45.4571 97.4934 45.5848L97.5528 45.4935L95.8966 43.8543ZM114.383 43.8914C112.764 43.8432 110.877 44.34 110.877 44.34C109.496 44.5131 107.743 46.6766 106.473 47.1208C106.503 47.7543 107.869 49.3014 107.981 49.6349C107.899 49.8444 107.728 50.1147 107.557 50.235C105.79 49.5332 102.143 48.7496 100.442 48.5439C97.0478 48.1324 88.6921 48.7541 86.0703 48.8283C81.1163 48.2839 74.4185 49.2532 71.2522 49.9788C68.3645 50.6398 64.7207 52.0896 62.7413 53.0789C63.3355 52.0933 63.5331 51.035 63.5041 50.1615C61.0264 47.8672 53.8346 44.8325 48.4818 45.7802C47.5021 46.3499 46.3449 47.4691 45.721 48.4614C44.728 50.1132 44.0618 51.8148 43.6615 53.711C43.0836 59.2138 47.1731 63.6353 49.7511 65.6354C49.35 65.8122 48.6905 66.142 47.5808 65.8932C47.0416 67.3957 46.8426 69.6387 47.2473 71.5015C46.7104 72.1454 45.5227 72.6728 44.6493 72.9015C44.6493 72.9015 52.9448 83.4816 55.4953 86.6345C59.3783 86.6583 64.2951 87.4441 67.3589 88.1749C70.4233 88.9065 78.444 92.0022 84.5552 95.8436C77.5193 89.0328 67.5579 85.2063 65.3899 84.5876C63.2211 83.9689 59.4793 83.4051 57.8468 83.2432C57.8468 83.2432 53.764 77.6817 53.2486 75.4587C52.7324 73.2365 55.3676 64 56.1162 60.8627L56.1177 60.8582C59.9457 62.2137 65.3773 61.8082 70.5905 60.9659C75.9819 60.0955 99.8999 54.4181 108.055 54.3854C111.62 54.6409 115.014 55.5307 117.918 57.6304C120.666 59.609 127.262 62.3155 132.602 62.7039C132.045 62.1565 131.763 60.9132 131.963 60.1215C132.26 58.9361 132.142 56.9612 132.06 56.4108C131.986 55.8604 131.792 54.9766 131.599 54.6134C131.258 54.7011 130.946 54.8191 130.723 55.1504C131.169 55.9652 131.644 56.725 131.614 57.721C131.584 57.8703 131.443 57.9304 131.332 57.9891C130.277 56.5593 127.611 53.9865 126.363 53.0715C126.928 52.2605 127.834 51.8148 128.569 50.9436C129.557 50.2863 130.656 50.9258 131.696 50.4192C131.882 49.45 130.485 49.6164 130.032 49.649C128.302 49.7701 122.761 52.6987 122.976 54.8281C122.947 55.1296 122.605 55.0977 122.464 55.0962C121.907 54.098 122.026 51.4412 121.268 50.5618C119.508 48.3173 117.852 46.3469 115.831 44.1618C115.43 43.9858 114.918 43.9078 114.383 43.8914ZM28.8434 45.9517C27.3052 45.9443 25.7603 46.107 24.3974 46.3112C25.7596 46.7665 26.4592 48.197 26.8967 49.1299C29.032 48.3574 31.0738 47.2032 33.2552 46.6128C31.9145 46.1367 30.3823 45.9592 28.8434 45.9517ZM113.967 47.1691C116.299 48.4213 119.047 52.0562 119.589 52.6987C119.939 53.1086 120.748 54.3015 120.184 54.9313C119.003 54.4099 118.223 53.3188 117.183 52.3474C116.99 52.0443 116.656 51.5913 116.173 51.5281C115.98 52.1067 117.124 53.1317 116.782 53.5528C115.772 53.0032 115.059 52.2085 113.863 51.6626C112.667 51.1152 111.13 50.671 110.008 50.4007C111.249 49.2933 112.355 47.5501 113.967 47.1691ZM35.0525 49.6825C34.2326 49.7099 33.5812 49.7812 33.5812 49.7812C33.5812 49.7812 29.2504 52.2218 27.2569 53.4005C26.6211 54.6721 26.2126 55.9897 25.9393 57.3986H28.5292C30.3934 55.8538 33.247 54.4255 35.4284 53.2438C35.4284 53.2438 36.9955 51.1635 37.5399 49.8466C36.8626 49.6713 35.8725 49.655 35.0525 49.6825ZM21.2772 51.3016C19.9485 51.3209 18.7728 51.4234 17.4433 51.6277L20.3503 53.5818C21.0789 52.9014 22.0333 51.947 22.6684 51.3105C22.1796 51.2986 21.7199 51.2949 21.2772 51.3016ZM24.2147 54.9922C23.2596 55.8552 20.1884 58.9502 19.2652 60.2039C20.1238 59.941 21.0477 59.5444 21.0477 59.5444L23.6851 57.236C23.6851 57.236 24.0171 55.6517 24.2147 54.9922ZM37.479 55.4445C35.4351 56.3997 32.8511 57.7187 30.943 59.0831C30.7165 60.7179 30.6786 62.1833 30.7091 63.7593C31.6642 64.0765 32.4359 64.8043 33.4364 64.9403L39.6612 61.1241C39.9776 59.9425 40.75 58.6241 41.0694 57.3073C39.9144 56.3113 38.8583 55.9169 37.479 55.4445ZM16.7615 57.6252C15.5345 57.8977 14.4895 58.7608 13.3999 59.3973L15.2626 60.0331L16.7615 57.6252ZM26.9576 59.9194C25.8019 59.912 24.4784 60.2039 24.4784 60.2039C24.4784 60.2039 20.0673 64.6157 18.6257 66.6663L18.5336 70.3005L20.5776 70.074C22.4879 68.1206 24.621 65.9845 27.0304 64.485C27.1663 64.1678 27.2487 61.061 27.4396 59.9432C27.2851 59.9276 27.1232 59.9209 26.9576 59.9194ZM13.5106 64.9217C13.1466 65.3302 11.2579 66.9412 10.9863 67.395L12.1729 67.8406C12.3087 67.294 13.3293 65.4661 13.5106 64.9217ZM28.501 66.4057C27.5243 66.8788 24.2801 69.9017 24.2801 69.9017C24.2801 69.9017 24.0818 70.9571 24.1479 71.7496C25.5338 70.2983 29.0432 67.1996 30.6786 66.4725L28.501 66.4057ZM15.8984 68.6658C14.2629 70.8925 13.7623 73.619 12.9461 76.1628C13.5841 74.0706 15.9675 70.891 15.9675 70.891C15.9675 70.891 16.0685 69.3944 15.8984 68.6658ZM20.1267 73.0003C19.4382 73.001 18.7379 73.0686 18.1437 73.2001C16.7347 75.5174 14.967 78.2231 14.0126 80.7685C13.8767 82.2665 14.3186 84.0855 14.8772 85.4915C16.4956 81.3151 18.2098 77.4218 22.0355 73.2001C21.4904 73.0642 20.8153 72.9988 20.1267 73.0003ZM37.8727 74.0929C36.9918 75.5219 36.235 79.4204 36.0099 80.8784C38.7714 80.8034 43.0153 80.4573 44.4406 80.9282C42.9492 79.468 39.9152 77.2153 37.8727 74.0929ZM42.5697 83.9035C39.7154 83.8783 36.9547 84.3499 35.978 85.2308C36.0188 87.1908 36.0872 89.2496 36.8277 90.9906C40.9602 89.2771 45.3007 87.7753 49.942 89.0996C49.4131 87.8452 48.8605 86.0745 47.4419 84.5036C46.0278 84.1122 44.2824 83.9184 42.5697 83.9035ZM47.9574 91.7586C44.7236 91.74 40.2776 92.5971 37.8043 94.3782C38.3324 98.0717 41.1258 102.803 41.1258 102.803C41.1258 102.803 48.787 99.1561 55.5948 99.0893C53.744 96.8982 52.2243 94.4309 50.6683 92.0661C49.9776 91.867 49.0351 91.7645 47.9574 91.7586ZM58.2062 101.964C52.9114 102.238 47.5637 103.657 43.1542 106.658C44.5401 109.97 47.2644 113.001 49.5981 115.875C54.024 112.228 59.8469 110.98 64.9079 108.782C62.5222 106.776 60.398 104.303 58.2062 101.964ZM93.6305 105.269C94.4401 107.14 96.0147 108.522 97.9903 109.294C101.162 110.186 104.712 111.782 107.282 112.25C109.844 112.726 112.563 113.038 113.87 113.023C115.177 113.015 117.695 112.54 120.049 111.099C118.49 111.263 116.358 110.698 115.014 109.881C113.751 111.069 110.349 111.3 109.369 109.918C106.472 110.653 103.94 109.651 102.476 108.618C100.367 108.722 96.6014 107.764 93.6305 105.269ZM67.3626 111.968C61.4728 112.837 56.9919 115.325 52.3974 119.574C53.7833 122.195 56.9265 124.594 59.2505 126.778C65.6298 122.537 72.783 120.814 80.2318 120.606C77.1197 117.865 70.788 113.981 67.3626 111.968ZM81.6949 123.844C75.7175 123.926 68.4239 126.34 62.2489 129.779C62.2489 129.779 66.1274 134.361 73.0036 136.656C80.5289 132.423 89.553 131.858 94.6926 132.423C92.2268 129.251 87.4659 125.367 84.1756 123.956C83.3809 123.867 82.5491 123.837 81.6949 123.844ZM95.6582 136.278C90.1917 136.218 81.9326 138.001 77.7659 140.006C77.7659 140.006 88.6988 144.589 94.6926 148.117C97.9755 147.864 103.94 147.359 106.509 147.47C106.509 147.47 104.155 140.422 97.8121 136.419C97.1659 136.329 96.438 136.285 95.6582 136.278ZM106.658 152.031C104.615 152.023 101.949 152.343 100.077 152.439C105.566 154.757 110.268 157.698 112.384 159.814C112.154 157.46 110.52 153.791 108.448 152.172C107.958 152.075 107.341 152.038 106.658 152.031Z" stroke="white" stroke-width="6" stroke-linejoin="round" mask="url(#path-6-outside-1_107_20216)"/>
<path d="M87.9346 119.496C77.4612 112.875 59.6071 100.66 56.8534 92.2782C61.6881 92.1478 69.7592 94.4074 74.0521 96.3693C77.5684 97.9772 84.8068 102.602 88.6485 110.314C88.6485 110.314 90.8463 111.139 93.1526 110.735C93.1224 112.029 92.8247 113.316 91.4775 114.072C92.9235 114.799 96.2888 114.304 97.8186 113.69C98.3564 114.265 97.9983 117.403 97.3754 118.182C99.0602 118.362 102.424 117.371 104.595 116.057C105.097 117.768 104.799 120.044 104.065 121.694C106.322 121.075 108.382 119.972 110.052 118.174C111.033 118.362 113.804 118.559 114.981 118.024C116.159 117.49 120 113.541 122.733 113.347C122.963 112.143 122.575 110.691 122.271 109.454C123.428 108.738 124.221 107.566 125.296 106.547C132.131 93.6705 134.643 74.5109 134.707 69.5811C134.987 69.5222 136.588 68.6564 136.785 68.3272C137.045 67.1227 137.134 65.9154 137.308 64.5901C136.271 63.5887 135.459 62.0314 135.128 60.4907C135.193 58.3203 135.344 55.7864 135.663 53.7079C135.221 51.4127 134.725 49.0872 134.085 46.9099C133.722 46.0634 132.408 45.5298 131.126 45.656C128.476 46.3324 125.6 46.7659 123.088 47.9265C122.115 46.6177 121.221 42.7475 115.592 39.9501C108.743 40.0147 104.203 44.638 103.073 45.4131C101.893 44.6215 100.008 40.4797 99.026 39.2971C97.0573 38.6207 95.9913 38.4039 95.0364 38.9911C93.9911 39.8294 92.9456 40.3343 91.8453 41.0216C90.2525 38.1734 86.2807 33.6008 84.7099 32.4662C82.9305 31.1808 79.8615 29.7951 78.2878 29.4411C77.6691 29.2572 76.99 29.9158 76.9323 30.5181C75.607 30.3219 73.4957 30.3877 72.1566 30.4975C69.6707 29.0404 67.2451 26.5504 63.0126 26.3844C61.4898 29.3326 63.1389 33.8519 64.1884 35.9712C63.4667 36.6557 62.1483 38.1731 61.4679 39.1197C61.4679 39.1197 62.3857 35.1699 60.196 32.4151C58.0078 29.6616 47.7591 21.8507 41.977 22.0791C40.0302 22.156 38.8929 28.0128 39.6132 31.9286C40.306 35.7055 43.4066 41.8653 43.4066 41.8653L43.4052 41.8662C39.8889 40.5889 36.2382 39.9606 33.6662 40.637C34.8913 41.5 35.982 42.9089 36.3003 44.2261C32.3025 43.1807 22.7632 43.1532 18.8537 45.2248C20.216 46.498 21.7622 47.3157 22.761 48.9058C20.0006 48.2143 14.1548 49.4875 11.7658 51.9501C13.6604 52.3576 15.54 53.3467 16.5361 54.812C13.0651 56.0179 10.6752 58.5835 8.35794 61.0365C9.90272 61.2176 11.4818 61.7252 12.5382 62.5361C10.1633 63.7695 7.42499 67.0031 6.4043 69.5329C7.82151 69.3779 9.30594 69.4767 10.3568 69.9418C8.85863 71.986 7.58551 74.1673 6.63064 76.6204C7.82151 76.5024 8.58568 76.7561 9.2675 77.0292C8.41827 86.4191 11.523 96.9249 15.8089 103.562C22.9882 114.682 30.5603 123.344 45.4974 132.426C77.5915 151.94 109.331 154.998 121.321 177.922C121.675 158.524 112.856 135.249 87.9346 119.496Z" fill="#1D1818"/>
<path d="M115.104 69.353C114.248 70.0705 112.121 74.2274 112.106 75.8943C108.063 73.4852 106.923 69.7755 105.915 66.6969C103.71 68.538 98.8765 71.1351 97.5623 70.8895C98.2661 70.0704 98.5637 66.7572 97.9396 65.672C96.1863 67.5941 93.1213 70.9128 89.9686 71.0363C90.4845 70.2721 90.8947 66.7572 90.0043 65.6459C88.915 67.4486 85.9365 69.6986 83.1336 69.9812C83.2763 69.1306 83.4231 67.8451 82.5286 66.9658C80.8507 69.6753 77.7337 72.0008 74.9034 72.0172C75.2313 70.0018 74.7539 68.2348 73.3504 67.0796C71.9441 69.1814 70.2608 71.6221 65.8143 71.8402C65.7759 70.2363 64.3244 66.8051 62.7906 66.2687C61.5051 67.5487 60.1744 72.7305 60.0371 74.0626C59.8382 75.9765 60.6353 78.7396 62.9223 78.5105C64.9021 78.3129 66.8886 75.9011 67.6418 74.3178C69.7093 74.9612 71.1993 78.2937 71.7014 80.0978C72.8374 79.3268 74.9459 77.3621 75.4495 75.3921C77.956 77.0411 78.9712 80.1321 78.9631 82.463C80.4214 81.2529 82.1378 79.0112 82.6179 77.3676C84.6964 78.6778 86.5568 82.7045 86.2165 85.842C87.4471 85.4222 88.9988 84.4852 90.0429 83.1791C91.9004 84.7499 93.0227 88.0481 92.5467 90.5326C93.5509 90.357 96.4526 88.3787 97.1701 87.0109C98.1017 88.4445 98.8288 93.4576 98.4831 95.4044C100.476 94.1848 103.578 90.6877 104.747 88.4802C105.359 89.5655 106.085 91.8744 106.151 93.5262C109.902 94.5168 114.658 96.4347 117.67 97.8862C121.714 99.8357 128.977 103.947 132.476 107.349C134.634 109.443 135.228 112.178 135.723 114.211C137.703 112.277 137.476 106.92 136.918 105.775C138.791 107.032 140.289 108.5 142.071 109.033C145.077 110.217 149.637 110.781 152.858 110.603C157.195 109.615 164.112 107.081 167.636 106.092C169.171 105.448 171.793 104.558 173.557 104.525C176.592 104.211 179.36 103.862 182.332 104.854C184.365 105.168 187.345 106.074 189.111 107.081C189.111 107.081 187.986 103.467 186.092 101.044C185.747 100.551 183.42 96.2948 175.332 97.3951C177.037 96.6899 179.713 93.1613 180.038 91.5027C180.367 89.099 179.792 86.4649 178.555 84.9668C177.155 92.9158 170.22 96.9859 165.848 96.9357C162.105 96.8932 159.599 96.2525 155.988 94.2879C151.525 91.8596 151.211 87.9826 146.014 85.712C146.724 87.1251 146.855 89.9622 145.69 91.293C143.952 88.7741 136.222 81.1149 133.133 79.0761C129.835 76.9002 121.654 70.8967 115.104 69.353Z" fill="#D82342"/>
<path d="M76.2927 41.7578C75.541 41.7296 74.9298 41.8551 74.4879 42.1106C73.2312 42.8362 69.5161 46.0107 71.1998 48.5775C71.1998 48.5775 72.2121 48.1408 73.9293 47.6521C76.8683 46.8165 80.6272 46.9977 84.8905 46.5395C83.6204 45.6259 82.3726 44.0075 81.0803 43.3086C79.1886 42.2822 77.5457 41.8061 76.2927 41.7578ZM94.7984 74.4325C91.7458 74.4637 88.6189 74.7326 87.4157 75.1388C85.247 75.5778 87.0295 75.5622 84.9425 76.241C84.7419 76.9637 85.7892 76.6391 86.0714 76.9726C86.3833 77.0358 89.7776 77.696 91.0254 77.9701C96.9597 78.8837 103.243 79.8596 108.554 82.8506C110.968 84.2521 114.198 86.7261 115.431 88.4425C116.657 90.1604 117.763 92.0707 117.236 94.9109C121.061 95.1055 123.965 92.1361 124.886 89.7118C126.736 90.4211 127.471 91.1453 128.741 91.9385C132.893 94.5284 136.599 99.0538 140.669 101.49C146.329 104.869 154.84 100.777 156.341 98.9499C151.543 98.4671 144.539 95.771 141.211 93.6186C142.303 93.2576 143.068 92.6129 143.35 91.7224C141.115 91.5427 134.49 86.1408 133.331 85.4219C127.33 81.7127 117.585 77.6596 117.585 77.6596C117.786 77.0573 117.697 75.577 117.348 75.1544C116.181 76.293 112.141 76.5582 109.386 76.0398C106.63 75.5206 101.802 74.9123 99.7821 74.6524C98.4303 74.48 96.6255 74.4132 94.7984 74.4325ZM178.555 84.9636C179.098 87.598 179.424 92.5951 175.332 97.3901C175.555 97.4347 175.807 97.4124 176.06 97.353C185.574 96.9742 186.978 104.907 186.978 104.907C182.083 102.099 177.612 102.307 171.93 103.547C167.415 104.528 165.491 104.543 161.985 101.416C162.75 103.956 164.563 105.612 166.553 106.288C159.326 104.327 153.934 112.178 144.88 109.898C150.414 112.527 155.791 110.484 160.032 108.91C165.803 106.778 176.26 111.435 180.368 107.506C177.352 107.521 172.361 106.451 169.591 105.642C169.591 105.642 170.913 104.973 177.137 104.817C183.354 104.654 188.53 108.91 190.595 111.539C190.729 103.688 185.218 95.4836 177.033 96.9594C179.625 95.3907 182.447 90.075 178.555 84.9636Z" fill="#CFC580"/>
<path d="M73.9355 48.0936C74.6791 46.0357 75.8933 43.8776 77.2063 42.6498C76.8496 44.3249 77.0046 46.0426 77.6302 47.6616C77.6302 47.6616 75.0056 48.0662 73.9355 48.0936Z" fill="#1D1818"/>
<path d="M79.1415 43.082C81.9401 43.9792 80.9671 46.1874 80.9671 46.1874C83.5295 44.0543 79.1415 43.082 79.1415 43.082ZM103.093 57.3891C102.558 57.3698 102.009 57.424 101.615 57.4649C99.357 57.6966 83.7895 60.9891 80.9523 61.457C78.1061 61.925 69.362 63.9229 63.8681 64.2801C65.9737 65.2182 67.3589 67.3936 67.477 69.2022C68.6059 68.6355 70.8557 67.13 72.5038 63.6793C75.2102 64.8869 76.8591 66.8663 77.1235 68.8071C78.7731 68.1913 80.6849 66.0746 82.2595 62.0876C83.4924 62.9893 85.2155 65.6215 85.0372 66.6272C86.9832 65.9765 89.2114 63.4275 90.1398 60.9854C92.16 62.7486 92.7616 64.2943 92.8507 67.2577C94.4699 66.0753 97.1139 63.1059 98.384 60.0147C100.137 62.0616 100.738 65.1514 100.501 67.6529C102.454 66.3382 104.504 61.0612 104.734 58.5107C104.809 57.6617 103.984 57.4226 103.093 57.3891ZM112.659 58.5961C112.459 58.6087 112.258 58.6377 112.072 58.6859C110.58 59.0729 109.77 60.1952 109.421 60.955C108.47 64.5743 108.641 68.885 110.951 71.6346C111.924 69.1665 115.222 62.6343 117.554 61.3338C117.732 62.9158 118.965 65.2813 119.797 66.2209C120.695 65.7121 121.512 64.8966 121.98 64.2452C122.374 65.193 122.887 66.4318 123.444 67.1983C124.157 66.9131 125.189 65.8309 125.642 65.1491C126.452 65.9542 127.046 67.5541 127.402 68.6132C128.093 67.869 129.252 66.8797 130.232 66.4526C129.668 68.533 130.737 72.2028 132.067 73.9192C133.121 71.6257 133.619 67.3372 132.327 66.0931C129.526 65.3385 125.523 64.0536 123.882 63.4431C122.24 62.8326 119.017 61.1718 116.826 59.8223C115.89 59.2445 114.093 58.5114 112.659 58.5961ZM67.9835 77.7725C67.1695 79.2267 64.1258 81.0598 62.6055 81.345C64.6197 81.7594 66.7751 82.2051 68.7783 82.8319C70.0171 81.4297 69.0412 79.07 67.9835 77.7725ZM75.7874 79.2839C75.0773 80.9647 72.5179 82.8498 70.3929 83.2538C70.3929 83.2538 75.159 84.7526 78.2376 86.3235C84.7624 89.5009 92.3902 96.504 94.6481 99.2521C96.906 102 97.0174 103.055 99.201 103.582C99.966 103.738 100.805 103.812 101.414 103.367C103.62 100.923 104.653 97.0908 103.724 93.7537C101.533 96.4966 98.1241 99.3709 95.7548 98.8213C95.7548 98.8213 94.9749 98.5911 94.96 98.1751C96.2153 96.3183 96.4529 93.6772 95.8885 91.5783C94.7669 92.6166 91.5955 93.7284 89.5233 93.0035C90.0284 92.1256 90.6745 88.2508 89.6719 86.8196C88.7434 87.6715 85.5349 89.1807 83.225 88.1112C84.1014 86.478 83.9974 82.8431 82.8462 81.4497C82.8462 81.4497 81.2865 84.2602 79.9644 84.8484C78.8065 85.3639 77.7437 85.7055 76.2939 85.0475C76.5189 83.9141 76.8524 80.8503 75.7874 79.2839ZM109.087 102.334C108.233 102.862 104.653 105.142 104.021 106.553C104.727 107.192 107.98 107.979 109.428 106.962C110.476 107.764 112.704 108.053 114.665 106.679C115.682 107.288 117.168 108.157 118.363 108.194C120.153 108.246 122.188 106.627 123.399 105.209C122.805 104.548 121.267 103.456 119.7 103.27C119.128 104.139 116.915 105.424 115.667 105.134C115.615 104.399 115.192 103.634 114.746 103.025C113.64 104.169 111.501 105.751 110.342 105.573C109.881 105.357 109.154 103.716 109.087 102.334Z" fill="white"/>
<path d="M42.0743 25.125C43.611 26.6259 45.5242 28.736 45.3326 30.3606C44.93 30.7156 44.0707 30.9808 43.0457 30.9667C44.5416 32.1001 46.3145 34.6068 46.5886 35.5768C46.8641 36.5453 46.0508 36.653 45.0207 37.2583C45.3319 37.5272 50.4091 38.0463 50.958 40.5152C51.8604 40.7744 52.5838 40.9385 53.4922 41.292C53.6073 40.6407 53.4862 39.7747 53.4818 39.0163C52.9782 37.773 49.1524 36.9025 47.9812 36.7681C49.0195 35.9927 50.0088 35.3993 51.2685 35.3852C50.4054 34.41 48.888 33.4199 46.876 32.7425C47.3038 32.2976 49.8276 32.2813 51.339 32.9148C50.6683 31.4398 47.765 28.867 45.3905 26.889C49.7451 28.2747 55.1544 32.8926 57.2043 35.2313C55.6156 37.1148 55.8243 41.052 56.7475 42.4557C56.749 40.0248 57.1352 36.7843 58.282 35.1733C55.8154 31.4404 48.2946 25.8328 42.0743 25.125ZM77.8394 34.464C74.6947 34.3422 69.9606 35.1451 68.5643 35.4972C65.147 37.9184 66.5188 43.425 63.6333 46.1805C65.2495 46.1538 66.0405 47.4053 67.009 47.077C66.9102 45.1377 69.3694 40.9443 71.3191 39.6297C72.7867 38.9449 74.8143 38.8951 76.9979 39.1365C76.9912 38.3009 76.1275 37.2292 76.1275 37.2292C79.3672 37.3785 85.2385 42.0621 86.8873 43.3158C88.5139 44.5517 89.9102 45.2759 89.9102 45.2759C89.2937 44.2167 89.1526 41.765 88.1425 40.8834C86.3451 39.5153 82.4384 35.7757 80.2696 34.9461C79.7594 34.6482 78.8882 34.5049 77.8394 34.464ZM39.4339 42.9051C39.7986 43.8602 40.5056 44.8035 40.5962 45.8485C41.3301 44.6498 41.7987 43.7629 41.7987 43.7629C41.4979 43.5126 40.2464 42.986 39.4339 42.9051ZM95.8966 43.8543C95.243 43.9405 94.426 44.5079 93.9432 45.1392C95.0722 45.4482 96.2531 45.4571 97.4934 45.5848L97.5528 45.4935L95.8966 43.8543ZM114.383 43.8914C112.764 43.8432 110.877 44.34 110.877 44.34C109.496 44.5131 107.743 46.6766 106.473 47.1208C106.503 47.7543 107.869 49.3014 107.981 49.6349C107.899 49.8444 107.728 50.1147 107.557 50.235C105.79 49.5332 102.143 48.7496 100.442 48.5439C97.0478 48.1324 88.6921 48.7541 86.0703 48.8283C81.1163 48.2839 74.4185 49.2532 71.2522 49.9788C68.3645 50.6398 64.7207 52.0896 62.7413 53.0789C63.3355 52.0933 63.5331 51.035 63.5041 50.1615C61.0264 47.8672 53.8346 44.8325 48.4818 45.7802C47.5021 46.3499 46.3449 47.4691 45.721 48.4614C44.728 50.1132 44.0618 51.8148 43.6615 53.711C43.0836 59.2138 47.1731 63.6353 49.7511 65.6354C49.35 65.8122 48.6905 66.142 47.5808 65.8932C47.0416 67.3957 46.8426 69.6387 47.2473 71.5015C46.7104 72.1454 45.5227 72.6728 44.6493 72.9015C44.6493 72.9015 52.9448 83.4816 55.4953 86.6345C59.3783 86.6583 64.2951 87.4441 67.3589 88.1749C70.4233 88.9065 78.444 92.0022 84.5552 95.8436C77.5193 89.0328 67.5579 85.2063 65.3899 84.5876C63.2211 83.9689 59.4793 83.4051 57.8468 83.2432C57.8468 83.2432 53.764 77.6817 53.2486 75.4587C52.7324 73.2365 55.3676 64 56.1162 60.8627L56.1177 60.8582C59.9457 62.2137 65.3773 61.8082 70.5905 60.9659C75.9819 60.0955 99.8999 54.4181 108.055 54.3854C111.62 54.6409 115.014 55.5307 117.918 57.6304C120.666 59.609 127.262 62.3155 132.602 62.7039C132.045 62.1565 131.763 60.9132 131.963 60.1215C132.26 58.9361 132.142 56.9612 132.06 56.4108C131.986 55.8604 131.792 54.9766 131.599 54.6134C131.258 54.7011 130.946 54.8191 130.723 55.1504C131.169 55.9652 131.644 56.725 131.614 57.721C131.584 57.8703 131.443 57.9304 131.332 57.9891C130.277 56.5593 127.611 53.9865 126.363 53.0715C126.928 52.2605 127.834 51.8148 128.569 50.9436C129.557 50.2863 130.656 50.9258 131.696 50.4192C131.882 49.45 130.485 49.6164 130.032 49.649C128.302 49.7701 122.761 52.6987 122.976 54.8281C122.947 55.1296 122.605 55.0977 122.464 55.0962C121.907 54.098 122.026 51.4412 121.268 50.5618C119.508 48.3173 117.852 46.3469 115.831 44.1618C115.43 43.9858 114.918 43.9078 114.383 43.8914ZM28.8434 45.9517C27.3052 45.9443 25.7603 46.107 24.3974 46.3112C25.7596 46.7665 26.4592 48.197 26.8967 49.1299C29.032 48.3574 31.0738 47.2032 33.2552 46.6128C31.9145 46.1367 30.3823 45.9592 28.8434 45.9517ZM113.967 47.1691C116.299 48.4213 119.047 52.0562 119.589 52.6987C119.939 53.1086 120.748 54.3015 120.184 54.9313C119.003 54.4099 118.223 53.3188 117.183 52.3474C116.99 52.0443 116.656 51.5913 116.173 51.5281C115.98 52.1067 117.124 53.1317 116.782 53.5528C115.772 53.0032 115.059 52.2085 113.863 51.6626C112.667 51.1152 111.13 50.671 110.008 50.4007C111.249 49.2933 112.355 47.5501 113.967 47.1691ZM35.0525 49.6825C34.2326 49.7099 33.5812 49.7812 33.5812 49.7812C33.5812 49.7812 29.2504 52.2218 27.2569 53.4005C26.6211 54.6721 26.2126 55.9897 25.9393 57.3986H28.5292C30.3934 55.8538 33.247 54.4255 35.4284 53.2438C35.4284 53.2438 36.9955 51.1635 37.5399 49.8466C36.8626 49.6713 35.8725 49.655 35.0525 49.6825ZM21.2772 51.3016C19.9485 51.3209 18.7728 51.4234 17.4433 51.6277L20.3503 53.5818C21.0789 52.9014 22.0333 51.947 22.6684 51.3105C22.1796 51.2986 21.7199 51.2949 21.2772 51.3016ZM24.2147 54.9922C23.2596 55.8552 20.1884 58.9502 19.2652 60.2039C20.1238 59.941 21.0477 59.5444 21.0477 59.5444L23.6851 57.236C23.6851 57.236 24.0171 55.6517 24.2147 54.9922ZM37.479 55.4445C35.4351 56.3997 32.8511 57.7187 30.943 59.0831C30.7165 60.7179 30.6786 62.1833 30.7091 63.7593C31.6642 64.0765 32.4359 64.8043 33.4364 64.9403L39.6612 61.1241C39.9776 59.9425 40.75 58.6241 41.0694 57.3073C39.9144 56.3113 38.8583 55.9169 37.479 55.4445ZM16.7615 57.6252C15.5345 57.8977 14.4895 58.7608 13.3999 59.3973L15.2626 60.0331L16.7615 57.6252ZM26.9576 59.9194C25.8019 59.912 24.4784 60.2039 24.4784 60.2039C24.4784 60.2039 20.0673 64.6157 18.6257 66.6663L18.5336 70.3005L20.5776 70.074C22.4879 68.1206 24.621 65.9845 27.0304 64.485C27.1663 64.1678 27.2487 61.061 27.4396 59.9432C27.2851 59.9276 27.1232 59.9209 26.9576 59.9194ZM13.5106 64.9217C13.1466 65.3302 11.2579 66.9412 10.9863 67.395L12.1729 67.8406C12.3087 67.294 13.3293 65.4661 13.5106 64.9217ZM28.501 66.4057C27.5243 66.8788 24.2801 69.9017 24.2801 69.9017C24.2801 69.9017 24.0818 70.9571 24.1479 71.7496C25.5338 70.2983 29.0432 67.1996 30.6786 66.4725L28.501 66.4057ZM15.8984 68.6658C14.2629 70.8925 13.7623 73.619 12.9461 76.1628C13.5841 74.0706 15.9675 70.891 15.9675 70.891C15.9675 70.891 16.0685 69.3944 15.8984 68.6658ZM20.1267 73.0003C19.4382 73.001 18.7379 73.0686 18.1437 73.2001C16.7347 75.5174 14.967 78.2231 14.0126 80.7685C13.8767 82.2665 14.3186 84.0855 14.8772 85.4915C16.4956 81.3151 18.2098 77.4218 22.0355 73.2001C21.4904 73.0642 20.8153 72.9988 20.1267 73.0003ZM37.8727 74.0929C36.9918 75.5219 36.235 79.4204 36.0099 80.8784C38.7714 80.8034 43.0153 80.4573 44.4406 80.9282C42.9492 79.468 39.9152 77.2153 37.8727 74.0929ZM42.5697 83.9035C39.7154 83.8783 36.9547 84.3499 35.978 85.2308C36.0188 87.1908 36.0872 89.2496 36.8277 90.9906C40.9602 89.2771 45.3007 87.7753 49.942 89.0996C49.4131 87.8452 48.8605 86.0745 47.4419 84.5036C46.0278 84.1122 44.2824 83.9184 42.5697 83.9035ZM47.9574 91.7586C44.7236 91.74 40.2776 92.5971 37.8043 94.3782C38.3324 98.0717 41.1258 102.803 41.1258 102.803C41.1258 102.803 48.787 99.1561 55.5948 99.0893C53.744 96.8982 52.2243 94.4309 50.6683 92.0661C49.9776 91.867 49.0351 91.7645 47.9574 91.7586ZM58.2062 101.964C52.9114 102.238 47.5637 103.657 43.1542 106.658C44.5401 109.97 47.2644 113.001 49.5981 115.875C54.024 112.228 59.8469 110.98 64.9079 108.782C62.5222 106.776 60.398 104.303 58.2062 101.964ZM93.6305 105.269C94.4401 107.14 96.0147 108.522 97.9903 109.294C101.162 110.186 104.712 111.782 107.282 112.25C109.844 112.726 112.563 113.038 113.87 113.023C115.177 113.015 117.695 112.54 120.049 111.099C118.49 111.263 116.358 110.698 115.014 109.881C113.751 111.069 110.349 111.3 109.369 109.918C106.472 110.653 103.94 109.651 102.476 108.618C100.367 108.722 96.6014 107.764 93.6305 105.269ZM67.3626 111.968C61.4728 112.837 56.9919 115.325 52.3974 119.574C53.7833 122.195 56.9265 124.594 59.2505 126.778C65.6298 122.537 72.783 120.814 80.2318 120.606C77.1197 117.865 70.788 113.981 67.3626 111.968ZM81.6949 123.844C75.7175 123.926 68.4239 126.34 62.2489 129.779C62.2489 129.779 66.1274 134.361 73.0036 136.656C80.5289 132.423 89.553 131.858 94.6926 132.423C92.2268 129.251 87.4659 125.367 84.1756 123.956C83.3809 123.867 82.5491 123.837 81.6949 123.844ZM95.6582 136.278C90.1917 136.218 81.9326 138.001 77.7659 140.006C77.7659 140.006 88.6988 144.589 94.6926 148.117C97.9755 147.864 103.94 147.359 106.509 147.47C106.509 147.47 104.155 140.422 97.8121 136.419C97.1659 136.329 96.438 136.285 95.6582 136.278ZM106.658 152.031C104.615 152.023 101.949 152.343 100.077 152.439C105.566 154.757 110.268 157.698 112.384 159.814C112.154 157.46 110.52 153.791 108.448 152.172C107.958 152.075 107.341 152.038 106.658 152.031Z" fill="#00704A"/>
</svg>
