<svg width="200" height="200" viewBox="0 0 200 200" fill="none" xmlns="http://www.w3.org/2000/svg">
<g clip-path="url(#clip0_107_20201)">
<path d="M32.367 107.263C32.034 106.969 31.7662 106.604 31.5834 106.192C31.4006 105.781 31.3026 105.337 31.3092 104.893C31.3353 104.221 31.5508 103.568 31.9295 103.013C32.3147 102.458 32.8436 102.027 33.4639 101.765C25.6807 98.1089 12.5106 95.1183 0 93.6427C19.0467 86.1141 35.2857 86.4341 35.2857 86.4341C26.4055 83.1954 4.84492 82.2617 4.84492 82.2617C19.0597 77.7432 32.3474 74.1193 43.1799 74.5895C34.4042 71.4879 19.6866 68.7977 19.6866 68.7977C19.6866 68.7977 46.6014 61.0602 61.9393 63.3782L39.9021 54.3479C102.057 49.6466 122.031 66.4471 134.757 86.1925L135.351 87.1197L142.723 83.7243L141.593 92.3629L142.853 92.5196C162.697 95.0988 189.997 100.799 200 127.015C167.078 120.505 129.331 130.744 96.7352 146.447C73.1375 128.341 49.618 120.146 14.3781 113.799L32.3735 107.257L32.367 107.263Z" fill="white"/>
<path fill-rule="evenodd" clip-rule="evenodd" d="M35.0105 103.959H35.7288V103.215H33.4238V103.959H34.1421V106.584H35.0105V103.959Z" fill="#0A2240"/>
<path fill-rule="evenodd" clip-rule="evenodd" d="M35.9316 106.584H36.8001L37.0874 104.645H37.0939L37.8579 106.584H38.2039L39.0136 104.645H39.0201L39.2682 106.584H40.1367L39.6274 103.215H38.7589L38.0407 105.01L37.3681 103.215H36.5062L35.9382 106.584H35.9316Z" fill="#0A2240"/>
<path d="M25.315 112.984L44.773 106.591C36.7221 94.9883 14.4629 92.8923 14.4629 92.8923C32.5889 87.2573 50.3819 91.2729 50.3819 91.2729C41.9066 82.1381 24.0026 80.5384 24.0026 80.5384C49.174 73.4081 65.315 83.6269 65.315 83.6269C58.9226 74.048 35.3444 68.7852 35.3444 68.7852C66.3663 61.3937 82.3049 73.7476 82.3049 73.7476C75.8406 64.7826 56.7874 57.3585 56.7874 57.3585C110.663 55.0601 128.625 80.9497 133.758 91.6778L138.341 89.5622L137.46 95.5106C158.028 98.2139 183.167 102.458 193.32 122.536C163.604 118.018 128.573 127.851 97.1335 142.406C88.2533 135.811 61.3189 117.567 25.2954 113.003" fill="#0A2240"/>
<path d="M122.592 103.267C119.301 106.127 113.313 109.287 107.437 105.141C102.677 101.817 104.825 96.1106 107.959 94.3477L113.013 97.4361C112.497 97.8867 112.066 98.4286 111.74 99.0293C110.506 101.413 111.655 103.92 114.319 104.619C115.533 104.899 116.8 104.834 117.969 104.416C119.144 103.998 120.169 103.254 120.94 102.268L122.585 103.267H122.592Z" fill="white"/>
<path d="M88.207 81.9486C88.207 81.9486 107.867 79.611 120.208 88.7197L123.016 83.0129L126.757 100.708C126.757 100.708 118.138 87.6358 88.2331 81.8964" fill="#E04403"/>
<path d="M113.426 115.399C116.664 112.735 125.199 106.676 141.111 101.289C159.152 103.725 174.784 107.819 183.09 116.627C183.09 116.627 141.353 111.873 113.426 115.399Z" fill="white"/>
<path d="M140.568 104.019C138.668 104.522 132.706 107.46 131.59 108.08C131.59 108.08 143.284 106.01 153.412 106.572C149.37 104.783 144.988 103.908 140.568 104.012" fill="#0A2240"/>
<path d="M113.223 119.113H150.435C141.457 120.452 133.654 122.483 124.676 125.029C120.458 123.965 116.54 121.947 113.217 119.126" fill="white"/>
<path d="M98.1517 97.8023C96.0296 105.808 102.043 109.843 110.127 110.77C105.915 112.938 96.3495 114.054 90.1921 109.262C87.1233 106.885 86.8294 102.229 87.3779 101.191C82.3632 101.25 69.4217 102.236 53.4961 111.527C63.6626 97.5411 85.8173 88.4585 102.422 92.324C100.274 94.0217 98.5826 96.0393 98.119 97.7892" fill="#E04403"/>
<path d="M90.0886 130.401L104.76 121.567L99.8045 118.707L90.082 130.401H90.0886Z" fill="#E04403"/>
<path d="M95.5195 135.628L115.82 128.53L107.482 123.496L95.5195 135.628Z" fill="#E04403"/>
</g>
<defs>
<clipPath id="clip0_107_20201">
<rect width="200" height="200" fill="white"/>
</clipPath>
</defs>
</svg>
