<svg width="200" height="200" viewBox="0 0 200 200" fill="none" xmlns="http://www.w3.org/2000/svg">
<g clip-path="url(#clip0_154_2475)">
<path d="M103.398 84.8039L103.638 82.8047L118.113 82.8847V115.032C118.113 121.749 117.553 127.107 123.79 130.466C126.749 132.225 133.147 132.465 136.985 130.226C142.823 126.787 142.583 120.55 142.583 115.192V82.9646L157.057 94.48V117.911C157.057 127.107 156.337 135.903 146.581 141.421C139.384 145.58 120.272 145.58 113.155 141.341C102.999 135.344 103.558 125.268 103.558 116.711V104.396L103.398 84.8039Z" fill="black"/>
<path d="M96.6027 82.8856V94.9607H89.8054H79.2496C75.2512 94.9607 71.1729 94.5609 69.4936 97.5997C68.6139 99.279 68.6139 101.438 69.4936 103.117C71.2529 105.996 75.2512 105.756 77.9702 105.756H87.5663C95.5631 105.756 101.081 107.116 105.559 115.113C108.678 120.471 108.358 130.387 104.999 136.304C100.681 143.901 93.324 143.981 86.0469 143.981H69.7335H67.4144H63.9758L59.4176 131.906H81.2488C83.8878 131.906 90.0453 132.306 92.0445 128.867C93.0041 127.188 93.0041 125.029 92.0445 123.269C90.2053 120.231 86.2069 120.63 83.488 120.63H73.7319C67.0145 120.63 60.6171 119.271 56.2988 111.514C53.1801 105.916 53.1001 96.4801 56.2988 90.8824C61.2569 82.1658 71.9726 82.8856 77.4104 82.8856H96.6027Z" fill="black"/>
<path d="M24.7901 119.67L33.1068 96.6392L41.2635 119.67H24.7901ZM60.056 130.146L42.8629 82.8047H22.471L0 143.82H15.5938L24.4702 120.63L24.8701 119.75L39.1843 132.785H45.5818L50.1399 143.9H65.4138L60.056 130.146Z" fill="black"/>
<path d="M104.359 68.3307C107.798 64.6522 112.916 63.4526 117.874 64.5722C129.949 67.2911 143.624 77.2871 143.624 77.2871C152.58 73.2887 158.338 77.1272 158.338 77.1272C158.338 77.1272 163.376 59.934 170.573 57.1352C171.772 56.6554 174.571 57.1352 175.771 57.535C179.129 54.2563 199.921 55.2959 200.001 58.7345C200.001 60.174 198.242 60.7337 197.122 61.2935C197.122 61.2935 170.093 70.4099 162.096 79.926C162.096 79.926 162.656 80.9656 163.056 81.4454C166.334 81.4454 169.133 82.7249 171.692 84.4842C173.372 83.7645 175.211 82.9648 177.13 82.9648C177.69 83.6046 177.93 87.523 177.93 87.523C179.609 86.0036 184.407 85.6038 184.567 85.7637C185.047 86.4035 184.647 87.2831 184.487 88.0028C184.087 89.4422 183.528 90.8817 183.768 92.481C182.808 94.4802 183.208 99.6781 183.368 100.078C183.128 99.998 180.249 96.0796 182.408 88.8025C182.248 88.5626 182.088 88.2427 181.848 88.1628C181.368 88.1628 178.889 88.4027 178.09 89.1224C178.41 90.4019 178.73 91.0416 179.289 91.9212C179.689 95.5198 179.849 99.0384 182.408 101.757V101.837C180.249 100.958 177.93 98.7985 177.21 92.8809C177.21 92.8009 176.33 90.9616 175.931 90.4019C175.451 90.4818 175.051 90.8017 174.811 91.2815C173.692 93.5206 175.851 95.6797 173.931 98.6386C173.292 99.5182 172.412 99.998 171.532 100.478C171.372 100.878 171.372 101.357 171.292 101.757C171.053 103.437 169.613 104.716 168.414 105.916L167.774 106.875C167.614 109.674 170.013 113.113 170.493 113.673C169.853 114.552 170.573 115.032 170.813 115.672C170.813 115.832 170.733 115.992 170.573 116.072C170.173 116.152 170.093 116.072 169.853 116.471C169.133 118.231 170.413 122.069 170.573 122.709C169.133 121.749 168.334 120.15 167.774 118.711C167.614 118.311 167.694 117.831 167.214 117.671C166.974 117.671 166.334 118.071 166.334 118.071C166.414 117.031 166.894 115.832 166.894 114.712C165.295 112.953 166.095 110.234 165.375 108.155C164.815 106.955 163.296 107.675 162.256 107.435C162.336 106.395 162.016 105.276 160.897 104.796C160.337 104.476 159.617 104.396 158.977 104.316C158.418 105.756 158.258 107.595 158.418 109.194C158.498 109.914 158.658 110.634 158.498 111.274C157.858 111.993 157.218 112.713 157.058 113.593C156.898 114.792 159.777 117.351 161.296 119.11C161.456 119.35 161.376 119.67 161.296 119.91C161.296 119.99 161.137 120.07 161.137 120.15C161.456 120.23 161.856 120.15 162.176 120.07C162.816 119.91 163.776 119.43 164.335 120.15C164.175 120.47 163.855 121.03 164.175 121.27C165.695 122.309 167.934 127.267 167.374 128.786C166.255 127.027 161.856 123.109 160.017 123.669C159.697 124.148 159.057 124.148 158.578 123.988C158.098 123.749 157.618 123.509 157.058 123.189C156.498 120.47 154.979 118.231 153.54 115.912C152.26 114.072 150.901 112.153 148.981 110.794C148.182 108.794 149.061 107.675 148.981 105.996C148.901 103.757 149.221 101.437 148.342 99.5182C148.182 99.2783 147.862 98.8785 147.542 98.7985C146.902 98.7985 146.582 99.5182 146.422 99.998C145.863 101.677 144.743 107.515 144.743 107.515C146.822 111.114 149.221 115.192 152.9 117.591C153.46 117.751 153.38 118.311 153.46 118.79C154.019 121.11 155.299 119.99 156.099 122.149C155.619 122.469 155.459 124.068 155.539 124.628C156.898 131.665 153.62 135.504 153.62 135.504C153.7 132.545 154.259 123.988 149.381 122.469C149.381 122.469 145.623 114.872 141.944 111.673C141.304 112.233 140.985 112.473 140.985 113.832C140.985 113.832 143.624 120.15 143.224 121.829C143.224 121.829 142.744 122.389 142.424 122.869C141.464 124.228 142.184 126.148 141.704 127.747C140.665 127.587 140.025 128.307 139.305 129.426C138.506 130.626 137.066 131.186 135.787 131.505C135.467 131.505 135.067 131.585 134.827 131.425C136.426 129.186 138.266 127.187 138.586 124.388C138.586 123.589 137.706 123.109 137.706 122.309C137.546 121.27 137.706 120.31 138.026 119.35C137.946 114.792 132.748 108.315 132.748 108.315C132.748 108.315 130.429 111.353 130.109 112.713C129.149 116.072 129.549 120.71 129.709 121.349C130.269 125.908 136.666 125.748 136.586 125.748C136.586 125.748 133.468 127.907 127.55 124.948L123.072 122.389C122.352 121.989 121.792 121.19 120.913 121.19C119.553 120.07 119.713 118.311 118.754 116.951C118.514 116.631 118.114 116.631 117.714 116.551C116.195 114.232 115.635 111.593 114.835 108.954C114.355 108.555 113.795 108.555 113.236 108.315C111.956 104.876 112.916 100.878 113.636 97.519C113.556 97.0392 113.076 96.7193 112.676 96.4794C113.316 93.3607 115.235 90.7217 116.834 88.0028C117.154 87.0432 116.354 86.7233 116.354 86.6434C118.434 83.0448 122.832 81.8453 122.832 81.8453C109.237 83.3647 102.36 86.5634 91.2445 91.2815C90.3649 91.6813 89.0854 91.6813 88.7655 90.4019C85.9666 78.0868 100.041 68.3307 104.359 68.3307Z" fill="black"/>
<path d="M161.457 100.08C162.736 100.24 164.175 98.561 163.376 98.4811C159.297 98.1612 162.176 89.2847 157.378 88.645C156.339 88.565 150.341 99.0408 161.457 100.08Z" fill="#6A666E"/>
<mask id="mask0_154_2475" style="mask-type:luminance" maskUnits="userSpaceOnUse" x="154" y="88" width="10" height="13">
<path fill-rule="evenodd" clip-rule="evenodd" d="M161.456 100.076C162.736 100.236 164.175 98.5567 163.375 98.4767C159.297 98.1568 162.176 89.2804 157.378 88.6406C156.258 88.6406 150.421 99.1164 161.456 100.076Z" fill="white"/>
</mask>
<g mask="url(#mask0_154_2475)">
<path d="M159.298 88.2422C159.298 88.2422 159.538 89.4417 159.778 89.7616C157.059 90.9611 156.739 94.0799 156.659 95.3593C156.659 95.4393 154.66 92.1606 159.298 88.2422Z" fill="#DCE0E2"/>
</g>
<path d="M104.518 69.3723C125.949 68.7325 146.261 80.7277 151.779 85.6858V85.7657C151.379 85.7657 151.059 86.0856 150.579 85.9257C122.51 73.3707 92.4424 89.9241 92.4424 89.9241C91.6427 90.084 90.6831 91.1236 89.9634 90.084C87.2444 80.088 99.6395 69.5322 104.518 69.3723Z" fill="#DCE0E2"/>
<path d="M108.436 66.2513C113.474 63.9323 119.232 65.3717 123.87 67.3709C123.87 67.3709 139.623 73.5284 151.459 84.3241C143.542 78.0866 134.426 74.3281 125.149 71.3693C118.992 69.53 112.514 68.4905 105.877 68.3305C106.197 67.3709 107.636 66.7312 108.436 66.2513Z" fill="#A3A5AE"/>
<mask id="mask1_154_2475" style="mask-type:luminance" maskUnits="userSpaceOnUse" x="105" y="64" width="47" height="21">
<path fill-rule="evenodd" clip-rule="evenodd" d="M108.438 66.2482C107.638 66.6481 106.199 67.2878 105.879 68.2474C112.596 68.4074 118.994 69.447 125.151 71.2862C134.507 74.245 143.544 78.0035 151.461 84.241C139.545 73.4454 123.872 67.2878 123.872 67.2878C120.913 66.0083 117.554 64.9688 114.196 64.9688C112.276 65.0487 110.277 65.3686 108.438 66.2482Z" fill="white"/>
</mask>
<g mask="url(#mask1_154_2475)">
<path d="M112.755 65.6076L121.871 68.3265C124.43 69.2061 119.872 68.2465 119.872 68.2465C108.277 64.7279 108.836 67.2069 108.836 67.2069C110.916 66.967 111.315 67.2869 113.155 67.6867C118.113 68.7263 123.71 69.526 128.508 71.2853C132.187 72.6448 133.546 74.3241 137.145 76.1633C139.304 77.2029 153.459 85.5996 153.459 85.5996C152.899 85.0398 143.542 76.1633 128.189 70.0058C119.152 66.3273 119.072 66.4072 118.912 66.6472C117.793 67.7667 116.273 65.5276 112.755 65.6076Z" fill="#DCE0E2"/>
</g>
<path d="M113.555 101.758C116.994 106.956 129.309 109.035 130.748 108.875C130.668 109.755 129.149 112.074 128.669 112.154C122.352 112.633 114.275 108.635 113.715 107.436C113.395 105.916 113.155 103.437 113.555 101.758Z" fill="#E7B721"/>
<mask id="mask2_154_2475" style="mask-type:luminance" maskUnits="userSpaceOnUse" x="113" y="101" width="18" height="12">
<path fill-rule="evenodd" clip-rule="evenodd" d="M113.715 107.514C114.275 108.633 122.432 112.712 128.669 112.232C129.149 112.232 130.668 109.833 130.748 108.953C129.309 109.113 116.994 106.954 113.555 101.836C113.155 103.435 113.395 105.914 113.715 107.514Z" fill="white"/>
</mask>
<g mask="url(#mask2_154_2475)">
<path d="M139.704 92.9573C139.384 92.7974 139.464 91.8378 139.144 91.7578C138.505 93.2772 137.785 95.6762 136.265 96.236C134.906 96.7958 131.227 93.1173 130.348 94.3968C129.548 95.5963 132.347 99.3548 130.988 99.8346C129.548 100.394 126.19 99.4347 126.19 101.034C126.19 102.234 128.349 103.673 128.349 104.873C128.349 106.552 124.91 105.512 123.391 106.152C123.79 106.872 126.589 109.591 126.589 110.47C126.589 111.51 123.87 111.83 123.87 112.789C123.87 114.389 126.989 114.149 126.989 115.828C126.989 116.708 125.71 116.788 125.71 117.667C125.71 118.707 126.909 118.787 127.549 119.587L126.269 120.946C126.909 122.466 127.949 121.506 128.908 124.065C129.068 123.665 129.868 123.345 129.868 122.865C129.868 121.426 128.988 120.706 128.988 119.187C128.988 114.389 129.708 111.27 132.747 107.432C133.946 105.912 133.866 104.393 135.466 103.273C137.065 102.074 137.945 101.354 139.144 99.7546C140.264 98.3152 142.263 97.9953 142.263 96.0761C142.263 94.4767 141.144 93.757 139.704 92.9573Z" fill="#D4AC2A"/>
</g>
<mask id="mask3_154_2475" style="mask-type:luminance" maskUnits="userSpaceOnUse" x="113" y="101" width="18" height="12">
<path fill-rule="evenodd" clip-rule="evenodd" d="M113.715 107.514C114.275 108.633 122.432 112.712 128.669 112.232C129.149 112.232 130.668 109.833 130.748 108.953C129.309 109.113 116.994 106.954 113.555 101.836C113.155 103.435 113.395 105.914 113.715 107.514Z" fill="white"/>
</mask>
<g mask="url(#mask3_154_2475)">
<path d="M139.146 91.0367C136.107 93.2758 133.388 92.3962 129.949 93.9955C128.11 94.8752 128.83 97.2742 127.15 98.4737C126.591 98.8736 125.951 98.7137 125.311 99.1135C123.632 100.073 124.511 102.072 123.472 103.752C122.752 104.951 121.633 105.591 121.633 107.03C121.633 107.91 122.192 108.31 122.192 109.189C122.192 110.389 120.833 110.869 120.833 112.068C120.833 113.588 123.152 113.668 123.152 115.187C123.152 115.587 122.912 115.827 122.912 116.227C122.912 117.586 124.511 117.746 125.231 118.866C126.271 120.465 126.351 121.744 127.47 123.264C127.15 123.264 126.99 123.344 126.75 123.344C125.791 123.344 125.791 122.144 125.231 121.425C123.952 119.665 122.912 118.866 121.952 116.946C121.473 116.067 121.872 115.267 121.393 114.387C120.673 112.948 118.594 110.389 118.594 108.71C118.594 107.19 120.513 108.31 120.513 106.79C120.513 106.071 120.433 105.751 120.433 105.031C120.433 103.672 121.712 103.272 122.112 101.992C122.592 100.713 122.432 99.9132 122.432 98.5537C122.432 97.1143 123.952 96.8744 124.431 95.5949C124.911 94.4753 124.751 93.5957 125.391 92.4761C126.031 91.4366 127.23 91.6765 128.35 91.1967C129.709 90.6369 130.029 89.4374 131.389 88.8776C133.468 87.918 134.907 87.918 137.146 87.918C138.586 87.918 139.066 89.7572 139.146 91.0367Z" fill="#FFCB05"/>
</g>
<path d="M115.954 91.6016C115.954 91.6016 116.674 97.8391 130.748 103.837C130.748 104.237 130.428 104.556 130.668 104.876C131.148 105.516 131.388 106.236 131.868 106.875C131.868 107.035 131.708 107.275 131.628 107.435C130.588 107.835 116.514 105.036 113.795 96.4796C114.035 95.0402 115.794 91.7615 115.954 91.6016Z" fill="#E7B721"/>
<mask id="mask4_154_2475" style="mask-type:luminance" maskUnits="userSpaceOnUse" x="113" y="91" width="19" height="17">
<path fill-rule="evenodd" clip-rule="evenodd" d="M113.873 96.4796C116.592 105.036 130.666 107.835 131.706 107.435C131.786 107.275 131.946 107.035 131.946 106.875C131.466 106.236 131.226 105.516 130.746 104.876C130.506 104.476 130.826 104.157 130.826 103.837C116.752 97.8391 115.952 91.6016 115.952 91.6016C115.792 91.7615 114.033 95.0402 113.873 96.4796Z" fill="white"/>
</mask>
<g mask="url(#mask4_154_2475)">
<path d="M139.704 93.1214C139.384 92.9615 139.464 92.0018 139.144 91.9219C138.505 93.4413 137.785 95.8403 136.265 96.4001C134.906 96.9599 131.227 93.2813 130.348 94.5608C129.548 95.7603 132.347 99.5188 130.988 99.9986C129.548 100.558 126.19 99.5988 126.19 101.198C126.19 102.398 128.349 103.837 128.349 105.037C128.349 106.716 124.91 105.676 123.391 106.316C123.79 107.036 126.589 109.755 126.589 110.634C126.589 111.674 123.95 111.994 123.95 112.953C123.95 114.553 127.069 114.313 127.069 115.992C127.069 116.872 125.79 116.952 125.79 117.832C125.79 118.871 126.989 118.951 127.629 119.751L126.349 121.11C126.989 122.63 128.029 121.67 128.988 124.229C129.148 123.829 129.948 123.509 129.948 123.029C129.948 121.59 129.068 120.87 129.068 119.351C129.068 114.553 129.788 111.434 132.827 107.596C134.026 106.076 133.946 104.557 135.546 103.437C137.145 102.238 138.025 101.518 139.224 99.9187C140.344 98.4793 142.343 98.1594 142.343 96.2401C142.263 94.7208 141.144 94.001 139.704 93.1214Z" fill="#D4AC2A"/>
</g>
<mask id="mask5_154_2475" style="mask-type:luminance" maskUnits="userSpaceOnUse" x="113" y="91" width="19" height="17">
<path fill-rule="evenodd" clip-rule="evenodd" d="M113.873 96.4796C116.592 105.036 130.666 107.835 131.706 107.435C131.786 107.275 131.946 107.035 131.946 106.875C131.466 106.236 131.226 105.516 130.746 104.876C130.506 104.476 130.826 104.157 130.826 103.837C116.752 97.8391 115.952 91.6016 115.952 91.6016C115.792 91.7615 114.033 95.0402 113.873 96.4796Z" fill="white"/>
</mask>
<g mask="url(#mask5_154_2475)">
<path d="M139.145 91.2026C136.106 93.4417 133.387 92.5621 129.949 94.1614C128.109 95.0411 128.829 97.4401 127.15 98.6397C126.59 99.0395 125.95 98.8796 125.31 99.2794C123.631 100.239 125.071 101.758 124.031 103.438C123.311 104.637 121.712 105.677 121.712 107.116C121.712 107.996 122.272 108.396 122.272 109.275C122.272 110.475 120.912 110.955 120.912 112.154C120.912 113.674 123.231 113.754 123.231 115.273C123.231 115.673 122.991 115.913 122.991 116.313C122.991 117.672 124.591 117.832 125.31 118.952C126.35 120.551 126.43 121.83 127.55 123.35C127.23 123.35 127.07 123.43 126.83 123.43C125.87 123.43 125.87 122.23 125.31 121.511C124.031 119.751 122.991 118.952 122.032 117.032C121.552 116.153 121.952 115.353 121.472 114.473C120.752 113.034 119.553 112.314 119.553 110.635C119.553 109.115 120.592 108.396 120.592 106.876C120.592 106.157 120.512 105.837 120.512 105.117C120.512 103.758 120.192 102.638 120.592 101.359C121.072 100.079 122.512 99.9991 122.512 98.7196C122.512 97.2802 124.031 97.0403 124.511 95.6808C124.991 94.5613 124.831 93.6816 125.47 92.5621C126.11 91.5225 127.31 91.7624 128.429 91.2826C129.789 90.7228 130.109 89.5233 131.468 88.9635C133.547 88.0039 134.987 88.0039 137.226 88.0039C138.585 88.1638 139.065 90.0031 139.145 91.2026Z" fill="#FFCB05"/>
</g>
<path d="M116.354 111.754C121.791 114.473 128.829 113.913 128.829 113.913C128.749 114.713 128.908 115.752 128.589 116.472C122.271 118.231 118.113 116.072 118.113 116.072C117.393 114.873 116.753 113.033 116.354 111.754Z" fill="#E7B721"/>
<mask id="mask6_154_2475" style="mask-type:luminance" maskUnits="userSpaceOnUse" x="116" y="111" width="13" height="7">
<path fill-rule="evenodd" clip-rule="evenodd" d="M118.113 116.076C118.113 116.076 122.271 118.235 128.589 116.476C128.829 115.756 128.749 114.717 128.829 113.917C128.829 113.917 121.871 114.477 116.354 111.758C116.753 113.037 117.393 114.877 118.113 116.076Z" fill="white"/>
</mask>
<g mask="url(#mask6_154_2475)">
<path d="M139.704 93.1253C139.384 92.9654 139.464 92.0057 139.144 91.9258C138.505 93.4452 137.785 95.8442 136.265 96.404C134.906 96.9638 131.227 93.2852 130.348 94.5647C129.548 95.7642 132.347 99.5227 130.988 100.003C129.548 100.562 126.19 99.6027 126.19 101.202C126.19 102.402 128.349 103.841 128.349 105.041C128.349 106.72 124.91 105.68 123.391 106.32C123.79 107.04 126.589 109.759 126.589 110.638C126.589 111.678 123.95 111.998 123.95 112.957C123.95 114.557 127.069 114.317 127.069 115.996C127.069 116.876 125.79 116.956 125.79 117.835C125.79 118.875 126.989 118.955 127.629 119.755L126.349 121.114C126.989 122.633 128.029 121.674 128.988 124.233C129.148 123.833 129.948 123.513 129.948 123.033C129.948 121.594 129.068 120.874 129.068 119.355C129.068 114.557 129.788 111.438 132.827 107.6C134.026 106.08 133.946 104.561 135.546 103.441C137.145 102.242 138.025 101.522 139.224 99.9226C140.344 98.4832 142.343 98.1633 142.343 96.2441C142.263 94.7247 141.144 94.0049 139.704 93.1253Z" fill="#D4AC2A"/>
</g>
<mask id="mask7_154_2475" style="mask-type:luminance" maskUnits="userSpaceOnUse" x="116" y="111" width="13" height="7">
<path fill-rule="evenodd" clip-rule="evenodd" d="M118.113 116.076C118.113 116.076 122.271 118.235 128.589 116.476C128.829 115.756 128.749 114.717 128.829 113.917C128.829 113.917 121.871 114.477 116.354 111.758C116.753 113.037 117.393 114.877 118.113 116.076Z" fill="white"/>
</mask>
<g mask="url(#mask7_154_2475)">
<path d="M139.145 91.2026C136.106 93.4417 133.387 92.5621 129.949 94.1614C128.109 95.0411 128.829 97.4401 127.15 98.6397C126.59 99.0395 125.95 98.8796 125.31 99.2794C123.631 100.239 124.511 102.238 123.471 103.918C122.751 105.117 121.632 105.757 121.632 107.196C121.632 108.076 122.192 108.476 122.192 109.355C122.192 110.555 120.832 111.035 120.832 112.234C120.832 113.754 123.151 113.834 123.151 115.353C123.151 115.753 122.911 115.993 122.911 116.393C122.911 117.752 124.511 117.912 125.23 119.031C126.27 120.631 126.35 121.91 127.47 123.43C127.15 123.43 126.99 123.51 126.75 123.51C125.79 123.51 125.79 122.31 125.23 121.59C123.951 119.831 122.911 119.031 121.952 117.112C121.472 116.233 120.992 116.632 120.592 115.753C119.873 114.313 119.553 112.394 119.553 110.715C119.553 109.195 120.592 108.476 120.592 106.956C120.592 106.237 120.512 105.917 120.512 105.197C120.512 103.838 121.792 103.438 122.192 102.158C122.671 100.879 122.512 100.079 122.512 98.7196C122.512 97.2802 124.031 97.0403 124.511 95.6808C124.991 94.5613 124.831 93.6816 125.47 92.5621C126.11 91.5225 127.31 91.7624 128.429 91.2826C129.789 90.7228 130.109 89.5233 131.468 88.9635C133.547 88.0039 134.987 88.0039 137.226 88.0039C138.585 88.1638 139.065 90.0031 139.145 91.2026Z" fill="#FFCB05"/>
</g>
<path d="M120.351 84.5644C121.711 84.1646 123.07 84.0846 124.59 84.1646C124.19 89.9223 131.467 98.3189 134.906 99.9183C134.906 99.9183 132.826 101.678 131.707 102.157C130.587 102.717 119.312 96.0798 117.393 87.3633C118.112 86.1638 119.152 85.2042 120.351 84.5644Z" fill="#E7B721"/>
<mask id="mask8_154_2475" style="mask-type:luminance" maskUnits="userSpaceOnUse" x="117" y="84" width="18" height="19">
<path fill-rule="evenodd" clip-rule="evenodd" d="M120.353 84.5639C119.154 85.2036 118.034 86.1633 117.475 87.3628C119.394 96.0793 130.669 102.637 131.789 102.157C132.908 101.677 134.988 99.9178 134.988 99.9178C131.549 98.3984 124.192 89.9218 124.672 84.1641H123.712C122.513 84.1641 121.473 84.244 120.353 84.5639Z" fill="white"/>
</mask>
<g mask="url(#mask8_154_2475)">
<path d="M139.704 93.1214C139.384 92.9615 139.464 92.0018 139.144 91.9219C138.505 93.4413 137.785 95.8403 136.265 96.4001C134.906 96.9599 131.227 93.2813 130.348 94.5608C129.548 95.7603 132.347 99.5188 130.988 99.9986C129.548 100.558 126.19 99.5988 126.19 101.198C126.19 102.398 128.349 103.837 128.349 105.037C128.349 106.716 124.91 105.676 123.391 106.316C123.79 107.036 126.589 109.755 126.589 110.634C126.589 111.674 123.95 111.994 123.95 112.953C123.95 114.553 127.069 114.313 127.069 115.992C127.069 116.872 125.79 116.952 125.79 117.832C125.79 118.871 126.989 118.951 127.629 119.751L126.349 121.11C126.989 122.63 128.029 121.67 128.988 124.229C129.148 123.829 129.948 123.509 129.948 123.029C129.948 121.59 129.068 120.87 129.068 119.351C129.068 114.553 129.788 111.434 132.827 107.596C134.026 106.076 133.946 104.557 135.546 103.437C137.145 102.238 138.025 101.518 139.224 99.9187C140.344 98.4793 142.343 98.1594 142.343 96.2401C142.263 94.7208 141.144 94.001 139.704 93.1214Z" fill="#D4AC2A"/>
</g>
<mask id="mask9_154_2475" style="mask-type:luminance" maskUnits="userSpaceOnUse" x="117" y="84" width="18" height="19">
<path fill-rule="evenodd" clip-rule="evenodd" d="M120.353 84.5639C119.154 85.2036 118.034 86.1633 117.475 87.3628C119.394 96.0793 130.669 102.637 131.789 102.157C132.908 101.677 134.988 99.9178 134.988 99.9178C131.549 98.3984 124.192 89.9218 124.672 84.1641H123.712C122.513 84.1641 121.473 84.244 120.353 84.5639Z" fill="white"/>
</mask>
<g mask="url(#mask9_154_2475)">
<path d="M139.147 91.2026C136.108 93.4417 133.389 92.5621 129.95 94.1614C128.111 95.0411 128.831 97.4401 127.152 98.6397C126.592 99.0395 125.952 98.8796 125.312 99.2794C123.633 100.239 124.513 102.238 123.473 103.918C122.753 105.117 121.634 105.757 121.634 107.196C121.634 108.076 122.194 108.476 122.194 109.355C122.194 110.555 120.834 111.035 120.834 112.234C120.834 113.754 123.153 113.834 123.153 115.353C123.153 115.753 122.913 115.993 122.913 116.393C122.913 117.752 124.513 117.912 125.232 119.031C126.272 120.631 126.352 121.91 127.471 123.43C127.152 123.43 126.992 123.51 126.752 123.51C125.792 123.51 125.792 122.31 125.232 121.59C123.953 119.831 122.913 119.031 121.954 117.112C121.474 116.233 121.874 115.433 121.394 114.553C120.674 113.114 119.475 112.394 119.475 110.715C119.475 109.195 120.514 108.476 120.514 106.956C120.514 106.237 120.434 105.917 120.434 105.197C120.434 103.838 121.714 103.438 122.114 102.158C122.593 100.879 122.433 100.079 122.433 98.7196C122.433 97.2802 122.753 96.7204 123.313 95.361C123.793 94.2414 123.473 93.2018 124.193 92.1622C124.832 91.1227 127.311 91.7624 128.511 91.2826C129.87 90.7228 130.19 89.5233 131.55 88.9635C133.629 88.0039 135.068 88.0039 137.307 88.0039C138.587 88.1638 139.067 90.0031 139.147 91.2026Z" fill="#FFCB05"/>
</g>
<path d="M119.871 118.39C124.429 119.349 128.428 117.75 128.428 117.75C128.588 117.83 128.588 119.029 128.428 119.269C127.068 120.629 122.75 121.269 121.311 120.709C120.671 120.309 120.031 119.189 119.871 118.39Z" fill="#E7B721"/>
<mask id="mask10_154_2475" style="mask-type:luminance" maskUnits="userSpaceOnUse" x="119" y="117" width="10" height="4">
<path fill-rule="evenodd" clip-rule="evenodd" d="M119.871 118.395C120.031 119.194 120.751 120.394 121.311 120.794C122.75 121.274 127.068 120.714 128.428 119.354C128.588 119.034 128.668 117.835 128.428 117.835C128.428 117.755 124.349 119.354 119.871 118.395Z" fill="white"/>
</mask>
<g mask="url(#mask10_154_2475)">
<path d="M139.702 93.1253C139.382 92.9654 139.462 92.0057 139.142 91.9258C138.503 93.4452 137.783 95.8442 136.264 96.404C134.904 96.9638 131.226 93.2852 130.346 94.5647C129.546 95.7642 132.345 99.5227 130.986 100.003C129.546 100.562 126.188 99.6027 126.188 101.202C126.188 102.402 128.347 103.841 128.347 105.041C128.347 106.72 124.908 105.68 123.389 106.32C123.789 107.04 126.587 109.759 126.587 110.638C126.587 111.678 123.948 111.998 123.948 112.957C123.948 114.557 127.067 114.317 127.067 115.996C127.067 116.876 125.788 116.956 125.788 117.835C125.788 118.875 126.987 118.955 127.627 119.755L126.347 121.114C126.987 122.633 128.027 121.674 128.986 124.233C129.146 123.833 129.946 123.513 129.946 123.033C129.946 121.594 129.066 120.874 129.066 119.355C129.066 114.557 129.786 111.438 132.825 107.6C134.024 106.08 133.944 104.561 135.544 103.441C137.143 102.242 138.023 101.522 139.222 99.9226C140.342 98.4832 142.341 98.1633 142.341 96.2441C142.261 94.7247 141.142 94.0049 139.702 93.1253Z" fill="#D4AC2A"/>
</g>
<mask id="mask11_154_2475" style="mask-type:luminance" maskUnits="userSpaceOnUse" x="119" y="117" width="10" height="4">
<path fill-rule="evenodd" clip-rule="evenodd" d="M119.871 118.395C120.031 119.194 120.751 120.394 121.311 120.794C122.75 121.274 127.068 120.714 128.428 119.354C128.588 119.034 128.668 117.835 128.428 117.835C128.428 117.755 124.349 119.354 119.871 118.395Z" fill="white"/>
</mask>
<g mask="url(#mask11_154_2475)">
<path d="M139.143 91.2026C136.104 93.4417 133.385 92.5621 129.947 94.1614C128.107 95.0411 128.827 97.4401 127.148 98.6397C126.588 99.0395 125.948 98.8796 125.308 99.2794C123.629 100.239 124.509 102.238 123.469 103.918C122.749 105.117 121.63 105.757 121.63 107.196C121.63 108.076 122.19 108.476 122.19 109.355C122.19 110.555 120.83 111.035 120.83 112.234C120.83 113.754 123.149 113.834 123.149 115.353C123.149 115.753 122.909 115.993 122.909 116.393C122.909 117.752 124.509 117.912 125.228 119.031C126.268 120.631 126.348 121.91 127.468 123.43C127.148 123.43 126.988 123.51 126.748 123.51C125.788 123.51 124.509 121.59 123.949 120.871C122.669 119.111 122.909 119.031 121.95 117.112C121.47 116.233 121.87 115.433 121.39 114.553C120.67 113.114 119.471 112.394 119.471 110.715C119.471 109.195 120.51 108.476 120.51 106.956C120.51 106.237 120.43 105.917 120.43 105.197C120.43 103.838 121.71 103.438 122.11 102.158C122.589 100.879 122.43 100.079 122.43 98.7196C122.43 97.2802 123.949 97.0403 124.429 95.6808C124.909 94.5613 124.749 93.6816 125.388 92.5621C126.028 91.5225 127.228 91.7624 128.347 91.2826C129.707 90.7228 130.026 89.5233 131.386 88.9635C133.465 88.0039 134.905 88.0039 137.144 88.0039C138.583 88.1638 139.063 90.0031 139.143 91.2026Z" fill="#FFCB05"/>
</g>
<path d="M128.429 120.711C128.669 120.711 128.829 121.111 128.829 121.351C128.909 121.591 128.989 121.91 128.829 122.23C128.029 123.03 126.83 123.75 125.63 123.67C125.071 123.35 124.431 122.87 123.871 122.47C125.55 122.23 127.39 121.83 128.429 120.711Z" fill="#E7B721"/>
<mask id="mask12_154_2475" style="mask-type:luminance" maskUnits="userSpaceOnUse" x="123" y="120" width="6" height="4">
<path fill-rule="evenodd" clip-rule="evenodd" d="M128.429 120.707C127.39 121.907 125.471 122.306 123.951 122.306C124.431 122.706 125.151 123.186 125.71 123.506C126.91 123.666 128.11 122.866 128.909 122.066C129.069 121.827 128.909 121.507 128.909 121.267C128.829 121.027 128.749 120.707 128.429 120.707Z" fill="white"/>
</mask>
<g mask="url(#mask12_154_2475)">
<path d="M139.704 93.1214C139.384 92.9615 139.464 92.0018 139.144 91.9219C138.505 93.4413 137.785 95.8403 136.265 96.4001C134.906 96.9599 131.227 93.2813 130.348 94.5608C129.548 95.7603 132.347 99.5188 130.988 99.9986C129.548 100.558 126.19 99.5988 126.19 101.198C126.19 102.398 128.349 103.837 128.349 105.037C128.349 106.716 124.91 105.676 123.391 106.316C123.79 107.036 126.589 109.755 126.589 110.634C126.589 111.674 123.95 111.994 123.95 112.953C123.95 114.553 127.069 114.313 127.069 115.992C127.069 116.872 125.79 116.952 125.79 117.832C125.79 118.871 126.989 118.951 127.629 119.751L126.349 121.11C126.989 122.63 128.029 121.67 128.988 124.229C129.148 123.829 129.948 123.509 129.948 123.029C129.948 121.59 129.068 120.87 129.068 119.351C129.068 114.553 129.788 111.434 132.827 107.596C134.026 106.076 133.946 104.557 135.546 103.437C137.145 102.238 138.025 101.518 139.224 99.9187C140.344 98.4793 142.343 98.1594 142.343 96.2401C142.263 94.7208 141.144 94.001 139.704 93.1214Z" fill="#E7B721"/>
</g>
<mask id="mask13_154_2475" style="mask-type:luminance" maskUnits="userSpaceOnUse" x="123" y="120" width="6" height="4">
<path fill-rule="evenodd" clip-rule="evenodd" d="M128.429 120.707C127.39 121.907 125.471 122.306 123.951 122.306C124.431 122.706 125.151 123.186 125.71 123.506C126.91 123.666 128.11 122.866 128.909 122.066C129.069 121.827 128.909 121.507 128.909 121.267C128.829 121.027 128.749 120.707 128.429 120.707Z" fill="white"/>
</mask>
<g mask="url(#mask13_154_2475)">
<path d="M139.145 91.1987C136.106 93.4378 133.387 92.5582 129.948 94.1575C128.109 95.0372 128.829 97.4362 127.15 98.6357C126.59 99.0356 125.95 98.8757 125.31 99.2755C123.631 100.235 124.511 102.234 123.471 103.914C122.751 105.113 121.632 105.753 121.632 107.192C121.632 108.072 122.192 108.472 122.192 109.351C122.192 110.551 120.832 111.031 120.832 112.23C120.832 113.75 123.151 113.83 123.151 115.349C123.151 115.749 122.911 115.989 122.911 116.389C122.911 117.748 124.511 117.908 125.23 119.028C126.27 120.627 126.35 121.906 127.469 123.426C127.15 123.426 126.99 123.506 126.75 123.506C125.79 123.506 125.79 122.306 125.23 121.587C123.951 119.827 122.911 119.028 121.952 117.108C121.472 116.229 121.872 115.429 121.392 114.549C120.672 113.11 119.473 112.39 119.473 110.711C119.473 109.192 120.512 108.472 120.512 106.952C120.512 106.233 120.432 105.913 120.432 105.193C120.432 103.834 121.712 103.434 122.112 102.154C122.591 100.875 122.431 100.075 122.431 98.7157C122.431 97.2763 123.951 97.0364 124.431 95.6769C124.91 94.5574 124.751 93.6777 125.39 92.5582C126.03 91.5186 127.23 91.7585 128.349 91.2787C129.709 90.7189 130.028 89.5194 131.388 88.9596C133.467 88 134.906 88 137.146 88C138.585 88.1599 139.065 89.9992 139.145 91.1987Z" fill="#FFCB05"/>
</g>
<path d="M136.425 84.168C136.105 89.9257 140.183 94.6438 140.743 94.9637C140.743 95.4435 137.545 98.0824 136.105 99.042C135.065 99.122 134.826 97.9225 134.106 97.2828C130.827 93.5243 129.068 89.046 128.828 84.088C128.668 83.9281 133.626 83.9281 136.425 84.168Z" fill="#E7B721"/>
<mask id="mask14_154_2475" style="mask-type:luminance" maskUnits="userSpaceOnUse" x="128" y="84" width="13" height="16">
<path fill-rule="evenodd" clip-rule="evenodd" d="M128.749 84.0878C128.989 89.1258 130.748 93.524 134.027 97.2825C134.826 97.9222 134.986 99.0418 136.026 99.0418C137.465 98.1622 140.584 95.5232 140.664 94.9634C140.184 94.5636 136.106 89.8455 136.346 84.1677C134.746 84.0078 132.507 84.0078 130.908 84.0078C129.628 84.0078 128.669 84.0078 128.749 84.0878Z" fill="white"/>
</mask>
<g mask="url(#mask14_154_2475)">
<path d="M139.704 93.1253C139.384 92.9654 139.464 92.0057 139.144 91.9258C138.505 93.4452 137.785 95.8442 136.265 96.404C134.906 96.9638 131.227 93.2852 130.348 94.5647C129.548 95.7642 132.347 99.5227 130.988 100.003C129.548 100.562 126.19 99.6027 126.19 101.202C126.19 102.402 128.349 103.841 128.349 105.041C128.349 106.72 124.91 105.68 123.391 106.32C123.79 107.04 126.589 109.759 126.589 110.638C126.589 111.678 123.95 111.998 123.95 112.957C123.95 114.557 127.069 114.317 127.069 115.996C127.069 116.876 125.79 116.956 125.79 117.835C125.79 118.875 126.989 118.955 127.629 119.755L126.349 121.114C126.989 122.633 128.029 121.674 128.988 124.233C129.148 123.833 129.948 123.513 129.948 123.033C129.948 121.594 129.068 120.874 129.068 119.355C129.068 114.557 129.788 111.438 132.827 107.6C134.026 106.08 133.946 104.561 135.546 103.441C137.145 102.242 138.025 101.522 139.224 99.9226C140.344 98.4832 142.343 98.1633 142.343 96.2441C142.263 94.7247 141.144 94.0049 139.704 93.1253Z" fill="#D4AC2A"/>
</g>
<mask id="mask15_154_2475" style="mask-type:luminance" maskUnits="userSpaceOnUse" x="128" y="84" width="13" height="16">
<path fill-rule="evenodd" clip-rule="evenodd" d="M128.749 84.0878C128.989 89.1258 130.748 93.524 134.027 97.2825C134.826 97.9222 134.986 99.0418 136.026 99.0418C137.465 98.1622 140.584 95.5232 140.664 94.9634C140.184 94.5636 136.106 89.8455 136.346 84.1677C134.746 84.0078 132.507 84.0078 130.908 84.0078C129.628 84.0078 128.669 84.0078 128.749 84.0878Z" fill="white"/>
</mask>
<g mask="url(#mask15_154_2475)">
<path d="M138.345 89.7621C135.466 94.8001 133.387 92.6409 130.029 94.2403C128.189 95.1199 128.909 97.519 127.23 98.7185C126.67 99.1183 126.03 98.9584 125.39 99.3582C123.711 100.318 124.591 102.317 123.551 103.996C122.831 105.196 121.712 105.836 121.712 107.275C121.712 108.155 122.272 108.555 122.272 109.434C122.272 110.634 120.912 111.114 120.912 112.313C120.912 113.832 123.231 113.912 123.231 115.432C123.231 115.832 122.991 116.072 122.991 116.471C122.991 117.831 124.591 117.991 125.31 119.11C126.35 120.71 126.43 121.989 127.55 123.509C127.23 123.509 127.07 123.589 126.83 123.589C125.87 123.589 125.87 122.389 125.31 121.669C124.031 119.91 122.991 119.11 122.032 117.191C121.552 116.311 121.952 115.512 121.472 114.632C120.752 113.193 119.553 112.473 119.553 110.794C119.553 109.274 120.592 108.555 120.592 107.035C120.592 106.315 120.512 105.996 120.512 105.276C120.512 103.916 121.792 103.517 122.192 102.237C122.671 100.958 122.512 100.158 122.512 98.7985C122.512 97.359 124.031 97.1191 124.511 95.8396C124.991 94.7201 124.831 93.8404 125.47 92.7209C126.11 91.6813 127.31 91.9212 128.429 91.4414C129.789 90.8816 130.908 87.2031 132.188 86.6433C134.267 85.6837 135.626 87.0432 137.226 85.4438C138.265 84.5642 138.265 88.4826 138.345 89.7621Z" fill="#FFCB05"/>
</g>
<path d="M136.346 105.357C138.985 103.598 139.624 100.559 141.544 98.3203H141.624L142.023 99.12C142.663 99.8397 139.464 105.278 138.825 106.717C138.745 107.117 139.464 108.636 138.585 109.196C137.785 107.996 137.065 106.637 136.346 105.437V105.357Z" fill="white"/>
<path d="M140.264 84.405C140.824 84.245 148.421 85.6845 151.54 86.5641C152.1 86.4841 152.819 86.6441 153.219 86.0843C153.139 85.7644 152.899 85.4446 152.979 85.0447C150.34 82.5657 147.462 80.1667 144.583 78.0875C144.743 77.7676 145.142 77.6877 145.462 77.5277C149.301 76.1683 154.419 75.9284 158.017 78.0075C160.416 79.367 161.296 81.5261 161.296 81.5261C152.659 83.9252 154.099 90.2426 154.499 91.6021C154.499 91.6021 152.979 95.7604 155.378 98.3194C155.378 98.7192 154.179 100.319 152.739 99.0391C152.34 98.0795 151.86 96.4002 149.221 97.7596C148.661 98.0795 148.101 97.1998 147.542 96.9599C147.701 96.4002 147.542 94.7208 145.382 94.8008C145.302 92.8016 142.424 93.9212 142.424 93.9212C139.705 90.2426 140.264 84.405 140.264 84.405Z" fill="#E7B721"/>
<mask id="mask16_154_2475" style="mask-type:luminance" maskUnits="userSpaceOnUse" x="140" y="76" width="22" height="24">
<path fill-rule="evenodd" clip-rule="evenodd" d="M145.463 77.4497C145.143 77.6097 144.743 77.6896 144.583 78.0095C147.542 80.0887 150.341 82.4877 152.98 84.9667C152.9 85.3666 153.14 85.6065 153.22 86.0063C152.9 86.5661 152.18 86.4062 151.54 86.4861C148.421 85.6065 140.745 84.1671 140.265 84.327C140.265 84.327 139.705 90.1647 142.264 93.8432C142.264 93.8432 145.143 92.8036 145.223 94.7228C147.382 94.5629 147.542 96.3222 147.382 96.882C147.942 97.1219 148.501 98.0015 149.061 97.6816C151.7 96.3222 152.1 98.0815 152.58 98.9611C154.019 100.241 155.299 98.5613 155.219 98.2414C152.9 95.6824 154.339 91.5241 154.339 91.5241C154.019 90.1647 152.5 83.8472 161.136 81.4481C161.136 81.4481 160.337 79.289 157.858 77.9295C156.018 76.89 153.779 76.4102 151.46 76.4102C149.461 76.4102 147.302 76.81 145.463 77.4497Z" fill="white"/>
</mask>
<g mask="url(#mask16_154_2475)">
<path d="M140.666 91.8447L141.066 91.9247L143.225 91.205C144.024 91.3649 144.104 91.7647 144.904 91.7647L146.583 91.125L147.543 91.3649C147.623 92.7244 148.503 93.3641 149.862 93.3641C151.701 93.3641 152.581 92.0846 154.5 92.0046L154.74 92.4045L154.5 93.2841L156.419 98.642C155.38 99.6816 154.66 100.561 153.221 100.561C151.621 100.561 150.982 99.2817 149.462 98.722C147.943 98.1622 146.343 98.642 145.464 97.2026C144.024 94.9635 140.426 95.2833 140.426 92.5644C140.586 92.4045 140.666 92.0046 140.666 91.8447Z" fill="#D4AC2A"/>
</g>
<path d="M153.058 100.481C154.338 100.401 155.617 100.721 156.577 101.44C156.337 104.159 155.857 106.718 154.578 108.957H154.498L153.858 107.678C153.298 105.519 152.819 103.2 152.978 100.721C152.978 100.641 152.978 100.561 153.058 100.481Z" fill="black"/>
<path d="M159.057 83.0484C160.576 82.3287 163.535 82.0088 165.215 82.8085C165.934 83.1283 168.253 84.4078 168.253 84.4078C168.093 83.928 167.214 83.2083 166.894 82.8884C167.534 82.8085 169.933 84.2479 170.812 84.8876C169.773 85.6873 168.653 86.2471 167.694 87.2867C166.574 88.3263 165.694 90.0856 164.095 90.6453C163.695 91.1251 163.855 91.9248 164.015 92.4046C164.415 92.8045 164.735 93.3642 165.375 93.2043C165.774 93.0444 165.614 92.5646 165.774 92.2447C167.694 89.046 171.852 87.1267 172.412 87.0468C173.051 87.7665 173.211 88.8061 173.291 89.7657C173.291 90.0056 173.211 90.0856 173.051 90.1655C172.492 90.0056 172.252 90.4054 172.012 90.8053C172.012 92.1647 172.892 92.1647 173.451 92.0848C174.171 94.3239 172.732 97.6825 171.212 98.3223C170.732 98.4022 170.253 98.1623 170.013 97.7625C169.853 96.7229 170.652 95.7633 170.652 95.7633C169.773 96.403 166.014 99.3618 162.975 97.3626C161.616 95.8433 161.456 93.3642 160.816 91.2851C160.337 89.4458 160.017 87.4466 158.497 86.1671C158.177 85.9272 157.858 85.7673 157.458 85.9272C156.978 86.0872 156.818 86.567 156.578 86.8868C156.578 86.8868 155.299 89.6058 155.139 89.5258C154.819 89.046 154.979 88.2463 155.059 87.6865C155.299 85.6873 157.218 84.008 159.057 83.0484Z" fill="#E7B721"/>
<mask id="mask17_154_2475" style="mask-type:luminance" maskUnits="userSpaceOnUse" x="154" y="82" width="20" height="17">
<path fill-rule="evenodd" clip-rule="evenodd" d="M159.057 83.0505C157.138 83.9302 155.298 85.6895 154.978 87.7686C154.898 88.3284 154.818 89.0481 155.058 89.6079C155.298 89.6879 156.498 86.969 156.498 86.969C156.738 86.5691 156.898 86.0893 157.377 86.0093C157.777 85.8494 158.177 86.0093 158.417 86.2492C160.016 87.5287 160.336 89.5279 160.736 91.3672C161.296 93.3664 161.456 95.8454 162.895 97.4448C165.934 99.444 169.693 96.4851 170.572 95.8454C170.572 95.8454 169.693 96.885 169.932 97.8446C170.172 98.2444 170.652 98.4843 171.132 98.4044C172.651 97.7646 174.091 94.406 173.371 92.1669C172.811 92.2468 171.932 92.2468 171.932 90.8874C172.172 90.4875 172.411 90.0077 172.971 90.2476C173.131 90.1677 173.291 90.0877 173.211 89.8478C173.131 88.8882 172.971 87.7686 172.331 87.1289C171.772 87.2089 167.613 89.1281 165.694 92.3268C165.534 92.6467 165.614 93.0465 165.294 93.2864C164.655 93.4464 164.335 92.8866 163.935 92.4867C163.775 91.927 163.535 91.2073 164.015 90.7274C165.534 90.1677 166.414 88.4084 167.613 87.3688C168.573 86.3292 169.693 85.7694 170.732 84.9698C169.772 84.33 167.373 82.8906 166.814 82.9706C167.214 83.2904 168.013 84.0101 168.173 84.4899C168.173 84.4899 165.774 83.2904 165.134 82.8906C164.415 82.5707 163.535 82.4108 162.575 82.4108C161.376 82.3308 159.936 82.6507 159.057 83.0505Z" fill="white"/>
</mask>
<g mask="url(#mask17_154_2475)">
<path d="M157.936 84.8085C161.454 84.1687 160.574 90.886 166.492 89.7665C167.692 89.5266 169.131 88.0871 168.651 86.8876C167.612 84.0088 164.413 83.2891 162.334 83.2891C160.894 83.2891 158.335 84.2487 157.936 84.8085Z" fill="#FFCB05"/>
</g>
<path d="M165.214 98.8779C166.174 98.8779 167.213 98.638 168.493 97.9983C169.372 97.5984 170.812 99.4377 170.812 99.4377C170.012 106.475 164.014 106.555 162.735 106.395C162.655 106.235 162.735 105.995 162.735 105.835C162.735 104.236 161.775 102.636 160.176 102.077C159.216 101.517 158.017 100.877 157.457 99.7576C157.617 99.8375 162.975 103.276 165.214 98.8779Z" fill="#E7B721"/>
<mask id="mask18_154_2475" style="mask-type:luminance" maskUnits="userSpaceOnUse" x="157" y="98" width="14" height="9">
<path fill-rule="evenodd" clip-rule="evenodd" d="M168.573 98.08C167.213 98.7197 166.254 98.9596 165.294 98.9596C163.055 103.278 157.617 99.8393 157.617 99.8393C158.257 100.959 159.376 101.519 160.336 102.158C161.855 102.718 162.815 104.317 162.895 105.917C162.895 106.077 162.815 106.317 162.895 106.477C164.175 106.557 170.172 106.477 170.972 99.5194C170.972 99.5194 169.852 98 168.893 98C168.733 98 168.653 98 168.573 98.08Z" fill="white"/>
</mask>
<g mask="url(#mask18_154_2475)">
<path d="M165.775 98.5605C166.414 99.8399 166.574 100.72 166.574 102.239C166.574 103.279 165.055 104.958 165.215 104.878C170.013 103.678 170.253 100.4 170.813 97.8407L170.733 97.121C170.413 97.121 170.253 97.0411 170.013 97.0411C168.334 96.9611 166.814 97.3609 165.775 98.5605Z" fill="#FFCB05"/>
</g>
<mask id="mask19_154_2475" style="mask-type:luminance" maskUnits="userSpaceOnUse" x="165" y="98" width="6" height="7">
<path fill-rule="evenodd" clip-rule="evenodd" d="M168.572 98.08C167.532 98.5598 166.732 98.7997 165.933 98.8796C166.492 99.9992 166.572 100.879 166.572 102.238C166.572 103.278 165.053 104.957 165.213 104.877C169.291 103.918 170.091 101.359 170.571 99.0396C170.171 98.5598 169.451 98 168.891 98C168.732 98 168.652 98 168.572 98.08Z" fill="white"/>
</mask>
<g mask="url(#mask19_154_2475)">
<path d="M168.411 97.7627C168.571 98.4824 168.811 99.3621 168.811 100.002C168.811 101.521 168.491 103.201 167.451 104.16C167.531 104.16 169.45 102.721 169.77 102.001C170.25 100.881 170.65 99.9219 170.65 98.6424C170.65 98.1626 170.09 98.0826 169.61 98.0826C169.45 98.0026 168.651 97.6828 168.411 97.7627Z" fill="#FFEA00"/>
</g>
<path d="M158.176 101.441C159.535 102.241 161.055 102.881 162.014 104.24V104.32C161.055 103.681 159.855 103.92 158.895 103.281C158.496 102.801 158.496 102.081 158.176 101.521V101.441Z" fill="#D4AC2A"/>
<path d="M177.69 57.459C183.848 55.2998 197.682 56.4993 198.642 58.7384C198.562 59.2182 198.162 59.6981 197.682 59.938C196.003 60.8176 170.573 68.7344 161.377 79.3702L159.938 78.0907C161.217 75.2118 173.532 58.8984 177.69 57.459Z" fill="#A3A5AE"/>
<path d="M174.81 86.6445L175.29 88.7237C174.89 89.0436 174.57 89.3634 174.091 89.6033C174.011 88.7237 173.531 87.2843 173.211 86.8045L174.81 86.6445Z" fill="white"/>
<path d="M157.378 92.9635C157.538 92.5637 157.858 92.3238 158.257 92.4837C158.577 92.5637 158.737 92.9635 158.657 93.3633C158.497 93.7632 158.177 94.0031 157.778 93.8431C157.458 93.7632 157.298 93.2834 157.378 92.9635Z" fill="#A3A5AE"/>
<path d="M157.377 94.3246C157.457 94.0847 157.617 94.0047 157.777 94.0847C157.937 94.1646 158.017 94.3246 157.937 94.5645C157.857 94.8044 157.697 94.8844 157.537 94.8844C157.377 94.7244 157.297 94.5645 157.377 94.3246Z" fill="white"/>
<path d="M164.654 90.8865C164.494 91.0464 164.414 91.0464 164.414 91.2064C164.414 91.7661 164.574 92.4059 165.134 92.4059C165.374 92.4059 165.374 92.086 165.454 91.8461C165.694 91.4463 165.933 91.2064 166.173 90.8065V90.7266H165.933C165.614 90.7266 165.534 91.1264 165.214 91.1264C164.894 91.1264 164.814 91.0464 164.654 90.8865Z" fill="#6A666E"/>
<path d="M176.249 83.6875C176.409 83.6875 175.129 84.4872 175.049 85.6867C175.049 86.2465 172.251 84.887 167.532 89.3652C167.213 89.6851 166.573 90.1649 166.173 89.925C165.853 89.7651 166.733 89.3652 166.893 89.0454C167.213 88.4056 170.731 84.4872 175.129 83.7675C175.529 83.7675 175.849 83.6875 176.249 83.6875Z" fill="#6A666E"/>
<mask id="mask20_154_2475" style="mask-type:luminance" maskUnits="userSpaceOnUse" x="166" y="83" width="11" height="8">
<path fill-rule="evenodd" clip-rule="evenodd" d="M175.131 83.8396C170.733 84.4794 167.215 88.4778 166.895 89.1175C166.735 89.4374 165.855 89.8372 166.175 89.9972C166.655 90.2371 167.215 89.7573 167.534 89.4374C172.252 84.9592 175.051 86.3186 175.051 85.7589C175.131 84.4794 176.411 83.6797 176.251 83.6797C175.851 83.6797 175.531 83.7597 175.131 83.8396Z" fill="white"/>
</mask>
<g mask="url(#mask20_154_2475)">
<path d="M169.373 86.3984C169.533 86.3984 173.052 84.799 173.212 84.799C173.851 84.799 174.811 84.2392 175.451 84.2392C175.611 84.2392 175.85 84.3992 176.01 84.4791C176.33 83.8394 176.09 84.1593 176.41 83.5995C176.33 83.5995 176.25 83.5195 176.17 83.5195C174.891 83.5195 170.173 85.1189 169.373 86.3984Z" fill="#DCE0E2"/>
</g>
<path d="M165.375 84.9648C164.575 85.1248 164.255 85.2847 164.415 85.7645C164.495 86.3243 165.694 87.124 166.334 87.124C166.814 87.044 167.214 86.3243 167.134 85.9245C166.974 85.3647 165.934 85.1248 165.375 84.9648Z" fill="#FFEA00"/>
<path d="M177.049 84.3242C176.249 85.2039 175.529 85.1239 175.529 86.3234C175.529 88.5625 176.809 90.6417 177.688 92.7209C177.848 92.0011 178.648 92.1611 178.408 91.6813C177.049 89.0423 177.049 84.5641 177.049 84.3242Z" fill="#6A666E"/>
<path fill-rule="evenodd" clip-rule="evenodd" d="M171.531 99.1978C173.131 99.1978 174.41 96.9587 173.77 95.3594C173.291 97.1986 172.651 98.0783 171.531 99.1978Z" fill="#6A666E"/>
<path d="M159.534 77.7682C160.174 75.9289 171.289 60.655 174.968 58.096C175.208 57.9361 171.849 57.3763 171.209 57.5362C164.652 59.5354 158.814 76.8885 158.814 77.3683C158.814 77.4483 159.294 77.6882 159.534 77.7682Z" fill="#6A666E"/>
<path d="M160.652 122.873C161.212 122.713 161.212 122.473 161.452 121.993C161.532 121.753 161.612 121.434 161.852 121.434C162.971 121.434 163.531 121.993 164.411 122.713C165.45 123.673 166.49 126.312 166.57 127.191C165.77 126.072 163.051 123.113 160.652 122.873Z" fill="#C0C1C8"/>
<path d="M195.679 59.3794L197.599 58.3398L180.485 64.2575L180.406 63.8576C183.044 61.2987 188.002 60.9788 191.201 59.1395L184.484 60.339C182.245 60.7389 180.965 62.7381 179.526 63.7777C178.726 64.3374 178.806 64.4974 178.166 65.1371C177.047 66.2567 174.888 67.3762 173.448 68.0959C173.528 67.6161 176.807 64.0975 176.967 63.6177C175.288 64.2575 172.889 67.2963 171.369 68.3358C168.49 70.335 167.051 71.6145 164.492 74.0136C163.612 74.8133 163.292 75.2131 162.813 76.3326C162.573 76.8924 161.053 77.852 161.293 78.4918C161.533 78.8916 163.452 75.2131 166.331 73.5338C169.53 71.6945 174.808 67.4562 178.086 65.6969C185.364 62.0184 188.082 63.2179 195.679 59.3794Z" fill="#C0C1C8"/>
<path d="M166.01 71.4528C169.448 68.0142 172.407 65.7751 174.806 62.4165C176.965 59.4576 182.403 59.3777 185.602 57.9382L188.161 57.0586C188.001 57.0586 183.283 57.7783 182.243 57.3785C180.324 56.7387 177.205 61.137 177.045 58.498C177.045 58.0982 174.166 62.1765 172.647 63.7759C170.488 66.1749 168.249 69.1338 166.01 71.4528Z" fill="#C0C1C8"/>
<path d="M169.37 114.557C169.37 114.796 169.93 115.276 169.93 115.516C169.21 115.276 167.931 114.717 167.131 114.557C167.131 114.477 169.29 113.997 169.37 114.557Z" fill="#C0C1C8"/>
<path d="M146.738 78.4923C150.257 79.212 151.696 82.6507 156.654 82.2508C158.094 82.0909 159.373 81.1313 158.813 80.2516C157.534 78.0125 154.255 77.3728 151.776 77.3728C150.177 77.2928 147.298 78.0925 146.738 78.4923Z" fill="#FFCB05"/>
<path d="M133.144 87.3633C132.104 88.003 131.145 88.9626 131.145 90.2421C131.145 90.9618 132.264 90.562 132.984 90.562C133.704 90.562 134.343 91.2817 135.063 91.2817C135.383 91.2817 136.103 91.0418 136.422 91.0418C135.543 90.7219 134.263 90.482 134.263 89.5224C134.263 88.8027 133.943 88.4029 134.343 87.8431L133.144 87.3633Z" fill="#FFEA00"/>
<path d="M129.227 123.352C128.987 123.671 128.427 123.911 128.027 124.151C129.387 125.511 130.107 125.511 132.026 125.911C130.426 125.431 129.947 124.791 129.227 123.352Z" fill="#DCE0E2"/>
<path d="M163.453 120.313C163.613 120.473 163.053 120.393 163.373 121.192C163.053 120.873 162.574 120.952 161.934 121.032C161.854 120.793 162.973 119.993 163.453 120.313Z" fill="#C0C1C8"/>
<path d="M126.188 92.8045C125.868 94.4038 124.988 95.1235 124.988 96.7229C124.988 97.2827 125.468 97.5226 125.948 97.5226C126.748 97.5226 126.987 96.6429 127.547 95.9232C127.067 95.2035 126.828 94.9636 126.828 94.004C126.828 93.4442 126.588 93.2043 126.748 92.6445L126.188 92.8045Z" fill="#FFEA00"/>
<path d="M159.693 76.0886L164.811 66.8923C164.891 67.2122 164.971 67.2122 165.131 67.4521C166.331 66.4125 166.171 64.4933 167.21 63.2138C169.05 60.8147 170.729 60.175 172.968 58.1758C172.568 60.175 170.649 60.3349 169.21 61.6144C167.45 63.1338 166.89 64.5732 166.011 66.7324C165.291 68.4917 164.651 67.7719 163.932 69.4513C162.812 72.1702 161.133 73.9295 159.693 76.0886Z" fill="#A3A5AE"/>
<path d="M165.291 97.5222C166.411 97.4422 167.69 96.7225 167.051 96.7225C164.492 96.7225 165.051 95.2031 163.932 95.2031C163.692 95.2031 163.212 95.2031 163.052 95.6829C163.052 95.6829 162.572 97.6821 165.291 97.5222Z" fill="#FFCB05"/>
<path d="M155.777 78.8096C154.417 78.7296 154.097 79.2094 154.177 79.6093C154.257 80.0891 156.576 81.2086 157.136 81.2086C157.616 81.1287 158.176 80.8088 158.016 80.409C158.016 79.9291 156.816 78.8896 155.777 78.8096Z" fill="#FFEA00"/>
<path d="M121.708 101.598C121.469 101.997 121.309 102.317 121.309 102.797C121.309 103.037 121.469 103.197 121.549 103.437C122.028 103.117 122.348 102.877 122.748 102.477C122.268 102.237 122.028 101.997 121.708 101.598Z" fill="#FFEA00"/>
<path d="M147.779 83.5272C141.381 79.2889 139.142 79.7687 131.545 78.8891L127.147 79.2089H119.95C108.594 79.2089 101.797 86.0062 90.6816 88.8051C93.1606 79.8487 102.837 82.4076 109.634 79.049C107.635 78.6491 106.195 78.4892 104.516 77.3697C106.035 77.1298 106.915 77.3697 108.435 77.3697C110.594 77.3697 110.994 74.5708 113.153 74.5708H118.191C123.069 74.5708 125.548 75.7703 130.426 76.9698C122.989 74.011 117.631 71.6919 109.874 71.6919C108.035 71.6919 107.715 72.1717 105.876 72.1717C103.796 72.1717 104.756 70.6523 102.597 70.6523C113.153 70.6523 117.631 71.532 127.867 74.5708C132.185 75.7703 134.744 76.8099 138.822 78.5692C143.301 80.4084 143.461 80.0886 147.779 83.5272Z" fill="white"/>
<path d="M103.076 79.5305L109.394 78.4909C110.673 78.6508 114.672 77.6112 115.151 77.5312C112.992 77.6112 110.673 77.7712 108.594 77.8511C105.955 77.9311 104.676 78.8907 102.037 79.2905H97.4785C97.4785 79.2905 94.3598 78.9707 94.3598 79.2905C94.3598 79.6104 93.4002 80.0902 93.6401 80.2502C94.1199 80.4901 101.557 79.5305 103.076 79.5305Z" fill="#C0C1C8"/>
<path d="M99.3184 72.8125H104.836C113.233 72.8125 117.791 75.0516 126.028 76.2511C131.625 77.0508 134.504 78.7301 139.942 80.5694C143.461 81.6889 145.78 81.8489 148.739 84.008L149.138 84.3279L148.739 84.4079C140.262 80.1696 134.904 79.5298 125.628 77.4506C122.509 76.7309 120.67 76.571 117.631 75.7713C115.392 75.1316 114.272 74.092 111.953 74.092H103.477C101.717 74.012 100.598 74.012 99.3184 72.8125Z" fill="#C0C1C8"/>
<path d="M154.816 123.594C154.976 122.474 155.376 122.154 155.376 122.154C154.816 121.355 154.496 121.355 153.297 120.875C153.777 121.915 153.777 122.554 154.816 123.594Z" fill="#A3A5AE"/>
<path d="M136.264 130.628C140.742 128.868 140.902 123.591 140.902 123.271C140.902 123.271 139.942 122.551 138.903 123.191C139.622 125.59 138.023 128.709 136.264 130.628Z" fill="#6A666E"/>
<path d="M141.541 108.078C141.061 108.078 140.021 108.078 140.021 108.638C140.021 109.917 141.621 110.237 142.5 111.197C143.94 112.876 144.9 113.676 146.179 115.515C147.139 116.955 149.458 122.312 150.177 121.673C152.576 119.434 152.417 119.514 152.417 119.514C150.017 118.394 148.098 114.476 146.819 112.636C145.219 110.317 144.18 108.078 141.541 108.078Z" fill="#6A666E"/>
<path d="M150.978 117.834C151.457 118.394 152.897 118.474 152.417 119.513C152.177 120.233 150.258 121.433 150.018 121.673C149.698 121.433 150.098 119.913 150.018 119.593C149.698 118.074 148.978 117.594 148.179 116.235C147.859 115.675 147.539 114.395 147.459 113.676C147.459 113.676 149.778 116.555 150.978 117.834Z" fill="#A3A5AE"/>
<path d="M139.783 107.117C142.422 106.237 142.422 107.197 143.782 107.117C143.782 107.117 144.821 101.359 146.101 97.9203C146.261 97.5205 146.341 96.8807 146.341 96.4809C146.341 96.4809 146.181 95.6012 145.061 96.241C144.421 96.4809 140.423 105.037 139.783 107.117Z" fill="#6A666E"/>
<path d="M143.779 107.118C144.099 106.238 145.379 99.6807 146.178 97.6016C145.699 97.6815 145.059 100.241 144.979 100.72C144.659 102.08 144.179 102.72 143.859 104.079C143.619 105.119 143.619 106.398 142.5 106.398H141.54C141.3 106.478 141.14 106.478 140.981 106.558C140.901 106.638 140.741 106.798 140.821 106.798C142.58 106.718 143.06 107.118 143.779 107.118Z" fill="#A3A5AE"/>
<path d="M139.142 121.751C140.182 121.751 140.902 121.831 141.941 121.831C143.54 119.912 135.224 105.357 134.824 105.118C133.704 104.318 131.225 104.318 131.625 104.958C135.704 111.755 138.103 114.394 138.822 119.752C138.902 120.391 138.662 120.551 138.662 121.191C138.742 121.511 138.822 121.751 139.142 121.751Z" fill="#6A666E"/>
<mask id="mask21_154_2475" style="mask-type:luminance" maskUnits="userSpaceOnUse" x="131" y="104" width="12" height="18">
<path fill-rule="evenodd" clip-rule="evenodd" d="M131.627 104.96C135.705 111.758 138.104 114.397 138.824 119.754C138.904 120.394 138.664 120.554 138.664 121.194C138.664 121.434 138.824 121.754 139.064 121.754C140.104 121.754 140.823 121.834 141.863 121.834C143.462 119.914 135.146 105.36 134.746 105.12C134.186 104.72 133.226 104.48 132.427 104.48C131.947 104.48 131.467 104.64 131.627 104.96Z" fill="white"/>
</mask>
<g mask="url(#mask21_154_2475)">
<path fill-rule="evenodd" clip-rule="evenodd" d="M138.824 121.913H141.463C141.943 121.913 142.263 121.433 142.263 120.953C142.263 119.914 141.703 119.434 141.623 118.394C141.383 116.315 138.744 111.277 137.545 109.598C137.545 109.678 139.224 114.636 139.384 115.275C139.864 117.115 140.344 118.634 140.344 120.553C140.344 121.433 139.784 122.073 138.824 121.913Z" fill="#A3A5AE"/>
</g>
<path d="M136.185 104.398C138.984 102.159 139.863 97.1208 143.862 94.8017C143.622 94.6418 143.302 94.162 143.142 94.4019C142.182 95.3615 131.467 103.758 131.866 103.598C134.345 102.799 135.385 105.038 136.185 104.398Z" fill="#6A666E"/>
<path d="M151.859 99.7622C151.459 99.1225 150.82 98.7227 150.02 98.7227C149.22 98.7227 149.06 99.6823 149.06 100.402V101.522C149.06 101.921 149.38 104.081 149.38 104.96C149.54 107.679 148.9 108.639 148.9 109.678C148.9 109.838 148.98 109.998 149.06 110.158C149.86 109.918 150.02 109.198 150.82 108.959C151.539 108.719 152.979 108.719 152.739 108.079C151.299 104.48 151.539 101.282 151.539 101.282C151.539 100.802 151.539 100.082 151.859 99.7622Z" fill="#6A666E"/>
<mask id="mask22_154_2475" style="mask-type:luminance" maskUnits="userSpaceOnUse" x="148" y="98" width="5" height="13">
<path fill-rule="evenodd" clip-rule="evenodd" d="M149.06 100.397V101.517C149.06 101.916 149.38 104.076 149.38 104.955C149.54 107.674 148.9 108.634 148.9 109.673C148.9 109.833 148.98 109.993 149.06 110.153C149.86 109.913 150.02 109.194 150.82 108.954C151.539 108.714 152.979 108.714 152.739 108.074C151.299 104.475 151.539 101.277 151.539 101.277C151.619 100.797 151.619 100.157 151.939 99.8372C151.539 99.1975 150.9 98.7977 150.1 98.7977C149.22 98.7177 149.06 99.6773 149.06 100.397Z" fill="white"/>
</mask>
<g mask="url(#mask22_154_2475)">
<path d="M151.301 101.836C150.981 102.236 150.981 103.915 150.981 104.395C150.981 105.355 151.381 105.834 151.381 106.794C151.381 107.354 151.301 107.754 150.901 108.233C150.581 108.633 150.102 108.713 150.102 109.193C150.102 109.273 150.182 109.433 150.341 109.433C150.821 109.433 151.061 109.273 151.461 109.113C152.181 108.953 152.9 108.633 152.9 107.914C152.9 107.034 152.341 106.634 152.101 105.754C151.941 104.795 151.541 102.796 151.301 101.836Z" fill="#A3A5AE"/>
</g>
<path d="M157.537 117.031C157.777 117.671 160.496 119.59 159.056 122.469C159.056 122.549 161.056 120.79 160.576 119.43C160.416 119.19 158.017 117.351 157.537 117.031Z" fill="white"/>
<path d="M152.26 109.675C150.821 109.195 150.261 110.554 149.701 111.194C152.98 113.993 156.259 118.951 156.578 120.47C156.818 121.51 157.618 123.749 158.498 123.029C159.697 122.07 159.937 121.27 159.857 119.751C159.777 118.871 157.138 116.792 155.379 114.713C154.179 113.033 153.14 109.915 152.26 109.675Z" fill="#6A666E"/>
<mask id="mask23_154_2475" style="mask-type:luminance" maskUnits="userSpaceOnUse" x="149" y="109" width="11" height="15">
<path fill-rule="evenodd" clip-rule="evenodd" d="M149.699 111.117C152.978 113.916 156.257 118.874 156.576 120.393C156.816 121.433 157.616 123.672 158.496 122.952C159.695 121.993 159.935 121.193 159.855 119.754C159.775 118.874 157.136 116.795 155.377 114.716C154.017 113.036 152.978 109.918 152.098 109.678C151.858 109.598 151.698 109.598 151.538 109.598C150.659 109.598 150.179 110.557 149.699 111.117Z" fill="white"/>
</mask>
<g mask="url(#mask23_154_2475)">
<path d="M157.058 115.992C158.017 116.952 158.897 117.992 159.936 118.791C160.256 119.111 160.256 119.991 160.336 120.391C160.816 123.11 158.017 123.35 157.937 123.35C158.097 122.87 158.017 120.871 158.017 120.311C158.017 118.711 155.538 116.552 155.778 114.793C155.938 114.793 157.058 115.992 157.058 115.992Z" fill="#A3A5AE"/>
</g>
<path d="M151.7 123.587C154.899 125.587 154.099 132.624 154.019 133.104C155.858 128.066 154.579 123.028 152.42 121.828C151.62 121.428 151.46 123.347 151.7 123.587Z" fill="#6A666E"/>
<path fill-rule="evenodd" clip-rule="evenodd" d="M103.559 86.2461H117.793V118.313H103.559V86.2461Z" fill="black"/>
</g>
<defs>
<clipPath id="clip0_154_2475">
<rect width="200" height="200" fill="white"/>
</clipPath>
</defs>
</svg>
