<svg width="200" height="200" viewBox="0 0 200 200" fill="none" xmlns="http://www.w3.org/2000/svg">
<path d="M101.469 8.00192C100.993 7.99795 100.524 8.00024 100.062 8.00793C96.3687 8.00793 92.245 8.25392 87.3205 8.99258C84.8583 9.48503 84.7962 12.3787 85.2887 14.41C85.7811 16.1336 89.9674 14.656 89.7828 16.0102L31.9796 163.991L29.64 166.331C27.7933 167.193 26.686 164.853 25.1471 164.915C23.6697 165.777 22.7457 167.561 23.1766 169.593C25.7004 173.717 29.1485 176.919 32.4728 180.489C35.7353 183.69 38.9356 187.136 43.3676 188.736C49.7079 185.043 40.4132 181.596 42.9985 176.733L65.7128 122.934H134.225L156.939 176.733C159.586 181.596 150.23 185.043 156.57 188.736C161.002 187.136 164.264 183.69 167.465 180.489C170.789 176.919 174.236 173.717 176.76 169.593C177.314 167.5 176.452 165.715 174.913 164.854C173.374 164.792 172.329 167.13 170.42 166.269L168.081 163.93L110.342 16.0105C110.095 14.6563 114.342 16.1338 114.834 14.4103C115.388 12.3789 115.328 9.54684 112.804 8.99283C108.495 8.34649 104.798 8.02991 101.468 8.00214L101.469 8.00192ZM54.1086 29.3022C53.8234 29.326 53.4887 29.4061 53.0963 29.5523C45.2786 33.061 39.4296 38.5395 32.7199 44.9414C30.8732 46.8496 29.5197 49.4973 30.3815 52.4518C31.4895 55.2219 36.045 48.5728 37.0912 49.9271V143.369L49.5249 111.422V43.0327L50.9412 38.1696C52.357 35.9535 55.0652 36.1384 55.6192 33.4915C55.6731 31.7141 56.1042 29.135 54.108 29.3016L54.1086 29.3022ZM146.098 29.3647C144.142 29.1981 144.567 31.776 144.567 33.5535C144.997 36.1388 147.767 35.9542 149.183 38.1702L150.598 43.0334V111.422L163.095 143.37V49.9277C164.08 48.5119 168.697 55.2222 169.804 52.5138C170.666 49.5591 169.312 46.9114 167.465 45.0033C160.694 38.6014 154.907 33.1229 147.09 29.6142C146.705 29.468 146.377 29.3892 146.098 29.3654L146.098 29.3647ZM100.061 33.3695L130.593 110.13H69.4681L100.061 33.3695ZM97.4147 57.3765C97.4763 57.3149 95.0751 57.438 94.7673 58.6076C94.3364 60.5158 96.3067 60.3917 96.1836 61.3151L79.5684 104.095C79.0144 105.573 77.2285 107.112 75.4434 106.989C74.8894 106.989 74.7047 108.651 75.4434 109.328H89.4172C90.3406 109.266 90.3406 108.282 90.3406 107.358C90.5868 105.512 87.5701 107.173 88.001 105.942L90.8936 98.8016H109.238L112.131 105.942C112.562 107.173 109.546 105.512 109.792 107.358C109.792 108.282 109.731 109.266 110.716 109.328H124.627C125.366 108.712 125.181 106.989 124.627 106.989C122.842 107.112 121.058 105.573 120.504 104.095L103.883 61.3139C103.76 60.3905 105.729 60.5146 105.298 58.6064C105.052 57.4368 102.59 57.3752 102.59 57.3752H97.4199L97.4147 57.3765ZM100.061 75.1041L106.771 91.6627H93.2897L100.061 75.1041ZM72.4843 125.642C71.1301 125.95 71.3756 127.55 71.7449 128.35C72.2989 128.658 72.9147 128.721 73.5303 129.09C74.4537 130.198 65.7133 150.511 65.7133 150.511C64.8515 153.404 64.789 150.018 63.1885 151.803C62.4498 152.542 62.4506 153.404 63.0045 153.958C65.713 156.851 68.0514 161.16 72.1143 162.699C74.9458 161.284 71.9296 159.314 72.1143 157.528L80.5481 136.785H81.1023L100.061 172.732L119.021 136.785H119.575L128.008 157.528C128.192 159.314 125.176 161.345 128.008 162.699C132.132 161.099 134.41 156.851 137.119 153.958C137.673 153.404 137.672 152.542 136.934 151.803C135.333 150.018 135.272 153.404 134.349 150.511C134.349 150.511 125.607 130.198 126.53 129.09C127.146 128.782 127.762 128.72 128.316 128.35C128.685 127.55 128.932 125.95 127.578 125.642H115.758L99.9998 154.636L84.2415 125.642H72.4843ZM56.8491 148.725L49.7085 167.378C49.7085 167.378 67.867 192 100.061 192C132.255 192 150.415 167.378 150.415 167.378L143.274 148.788C143.274 148.788 130.408 175.688 100.061 175.688C69.6521 175.688 56.8491 148.725 56.8491 148.725Z" fill="#660000"/>
</svg>
