<svg width="200" height="200" viewBox="0 0 200 200" fill="none" xmlns="http://www.w3.org/2000/svg">
<g clip-path="url(#clip0_154_2472)">
<path fill-rule="evenodd" clip-rule="evenodd" d="M192.716 193.508L105.324 193.28V186.064C118.707 186.543 130.846 182.555 124.007 166.181L118.504 153.006H164.557C167.088 158.703 169.431 164.003 171.493 168.959C175.558 178.717 181.807 185.406 192.532 186.151L192.716 193.508ZM96.2203 99.645L81.7583 65.0001C77.7023 76.3016 73.1043 87.9418 68.4094 99.645H56.7885L57.9501 96.7749C67.1075 74.0606 84.0912 33.685 95.141 6.31462L102.174 6.22266C114.835 38.1669 131.741 75.0044 142.201 99.645H96.2203ZM47.6796 153.006C46.7842 155.552 45.9226 158.079 45.0901 160.581C43.6769 164.85 41.5472 171.04 42.491 176.456C44.1415 185.977 59.3441 185.783 64.5713 186.243L64.7552 193.779L8.21875 193.687L8.27199 185.841C19.7429 186.156 26.4802 175.479 30.5797 164.792L35.3133 153.006H47.6796Z" stroke="#E7A922" stroke-width="2.15624" stroke-miterlimit="1.41421"/>
<path d="M192.716 193.508L105.324 193.28V186.064C118.707 186.543 130.846 182.555 124.007 166.181L118.504 153.006H164.557C167.088 158.703 169.431 164.003 171.493 168.959C175.558 178.717 181.807 185.406 192.532 186.151L192.716 193.508ZM96.2203 99.6451L81.7583 65.0001C77.7023 76.3016 73.1043 87.9418 68.4094 99.6451H56.7885L57.9501 96.7749C67.1075 74.0606 84.0912 33.685 95.141 6.31462L102.174 6.22266C114.835 38.1669 131.741 75.0044 142.201 99.6451H96.2203ZM47.6796 153.006C46.7842 155.552 45.9226 158.079 45.0901 160.581C43.6769 164.85 41.5472 171.04 42.491 176.456C44.1415 185.977 59.3441 185.783 64.5713 186.243L64.7552 193.779L8.21875 193.687L8.27199 185.841C19.7429 186.156 26.4802 175.479 30.5797 164.792L35.3133 153.006H47.6796Z" fill="#471668"/>
<path d="M35.0903 140.843H18.7939V139.154C19.5586 139.106 20.4492 138.961 21.4704 138.733C22.5013 138.515 23.0095 138.235 23.0095 137.901C23.0095 137.789 23.0047 137.659 22.9805 137.518C22.9611 137.368 22.9031 137.18 22.8014 136.933L20.2507 130.573H9.92692C9.68975 131.163 9.42355 131.856 9.13315 132.644C8.84759 133.443 8.59591 134.145 8.38778 134.764C8.12158 135.578 7.96186 136.158 7.91346 136.521C7.86022 136.884 7.84086 137.136 7.84086 137.276C7.84086 137.741 8.17966 138.128 8.86211 138.453C9.54455 138.777 10.6771 139.014 12.2647 139.154V140.843H0V139.154C0.459803 139.125 0.982528 139.053 1.56817 138.936C2.14898 138.806 2.60878 138.641 2.94758 138.423C3.52355 138.08 4.01239 137.649 4.41411 137.146C4.811 136.637 5.1498 136.042 5.416 135.35C7.04225 131.299 8.67335 127.238 10.3141 123.172C11.9549 119.107 13.7602 114.62 15.735 109.717H19.9555C22.7094 116.667 24.8681 122.161 26.4266 126.207C27.9899 130.239 29.3113 133.583 30.4148 136.241C30.5939 136.671 30.8214 137.059 31.1021 137.412C31.3828 137.77 31.7845 138.109 32.3072 138.423C32.6993 138.656 33.1542 138.825 33.6818 138.941C34.1949 139.058 34.6643 139.125 35.0903 139.154V140.843ZM19.3843 128.448L15.0477 117.306L10.7691 128.448H19.3843ZM63.5206 131.018L62.9302 140.843H35.3565V139.154C35.8453 139.12 36.4213 139.043 37.0844 138.956C37.7426 138.859 38.1782 138.772 38.3912 138.685C38.8945 138.486 39.2479 138.201 39.4415 137.843C39.6351 137.48 39.7367 137.015 39.7367 136.454V114.809C39.7367 114.296 39.6593 113.865 39.5092 113.526C39.3495 113.187 38.9817 112.878 38.3912 112.607C37.9507 112.403 37.428 112.244 36.8182 112.118C36.2035 112.002 35.7146 111.905 35.3565 111.852V110.162H51.7545V111.852C51.3044 111.895 50.7768 111.958 50.167 112.036C49.5571 112.108 49.0247 112.22 48.5698 112.37C48.0228 112.553 47.6647 112.849 47.4759 113.246C47.2968 113.642 47.2049 114.093 47.2049 114.596V134.789C47.2049 135.737 47.2678 136.492 47.3936 137.039C47.5195 137.586 47.7663 137.988 48.1342 138.249C48.4972 138.52 49.0102 138.699 49.6636 138.777C50.317 138.859 51.2221 138.898 52.3837 138.898C53.5018 138.898 54.6053 138.83 55.6701 138.69C56.7301 138.559 57.4996 138.254 57.9594 137.789C58.6758 137.059 59.4163 136.018 60.1665 134.682C60.9215 133.346 61.5265 132.131 61.9815 131.018H63.5206ZM80.6302 141.686C78.4425 141.686 76.3951 141.327 74.4833 140.597C72.5763 139.866 70.9114 138.806 69.4932 137.431C68.0993 136.071 67.0055 134.397 66.2069 132.402C65.4082 130.404 65.0065 128.211 65.0065 125.82C65.0065 123.439 65.4082 121.236 66.2165 119.209C67.0297 117.185 68.1574 115.428 69.6191 113.947C71.0566 112.495 72.7748 111.363 74.7834 110.569C76.792 109.766 78.941 109.364 81.2255 109.364C82.8905 109.364 84.4006 109.562 85.7606 109.969C87.1207 110.371 88.2726 110.835 89.2115 111.348L90.5232 110.162H92.3576L92.5415 121.362H90.6878C89.6375 117.945 88.3694 115.448 86.898 113.846C85.4315 112.244 83.631 111.445 81.5062 111.445C78.8684 111.445 76.8646 112.641 75.4901 115.027C74.1155 117.418 73.4234 120.767 73.4234 125.084C73.4234 127.519 73.6605 129.6 74.13 131.328C74.5946 133.051 75.2142 134.44 75.9692 135.495C76.7823 136.589 77.7455 137.393 78.8539 137.91C79.9622 138.419 81.1916 138.675 82.5371 138.675C84.5022 138.675 86.2495 138.123 87.7886 137.025C89.3229 135.921 90.7265 134.261 91.9849 132.035L93.7951 133.162C93.1901 134.43 92.5028 135.568 91.7332 136.565C90.9636 137.567 90.0682 138.433 89.0567 139.154C87.9483 139.943 86.7238 140.568 85.3782 141.018C84.0424 141.468 82.4597 141.686 80.6302 141.686ZM123.455 113.58C124.921 114.964 126.097 116.634 126.959 118.594C127.821 120.559 128.251 122.785 128.251 125.297C128.251 127.533 127.883 129.658 127.157 131.672C126.427 133.695 125.376 135.427 124.002 136.889C122.555 138.404 120.851 139.575 118.9 140.422C116.955 141.265 114.627 141.686 111.931 141.686C109.753 141.686 107.691 141.318 105.76 140.587C103.824 139.851 102.12 138.777 100.644 137.383C99.182 136.013 98.0253 134.353 97.1686 132.388C96.3119 130.423 95.8811 128.25 95.8811 125.835C95.8811 123.332 96.2974 121.053 97.1347 119.015C97.9672 116.982 99.1191 115.23 100.581 113.778C102.023 112.345 103.746 111.247 105.731 110.477C107.715 109.703 109.83 109.32 112.081 109.32C114.312 109.32 116.403 109.698 118.363 110.443C120.323 111.193 122.017 112.244 123.455 113.58ZM118.044 135.519C118.678 134.213 119.133 132.727 119.413 131.067C119.694 129.416 119.834 127.538 119.834 125.452C119.834 123.681 119.713 121.953 119.471 120.273C119.225 118.594 118.799 117.098 118.208 115.791C117.608 114.48 116.809 113.425 115.808 112.636C114.806 111.847 113.571 111.445 112.081 111.445C109.535 111.445 107.599 112.679 106.278 115.148C104.961 117.621 104.298 121.111 104.298 125.622C104.298 127.538 104.443 129.348 104.729 131.047C105.019 132.741 105.469 134.232 106.089 135.495C106.723 136.778 107.521 137.775 108.489 138.491C109.462 139.208 110.658 139.561 112.081 139.561C113.47 139.561 114.665 139.203 115.662 138.486C116.655 137.76 117.453 136.773 118.044 135.519ZM165.539 140.843H154.063C152.079 137.741 150.433 135.258 149.112 133.424C147.8 131.575 146.164 129.45 144.209 127.03H143.052V136.337C143.052 136.855 143.144 137.286 143.338 137.649C143.526 138.012 143.885 138.312 144.417 138.559C144.693 138.675 145.109 138.796 145.675 138.912C146.242 139.038 146.735 139.12 147.137 139.164V140.843H131.204V139.154C131.605 139.12 132.148 139.053 132.815 138.97C133.483 138.898 133.953 138.801 134.238 138.685C134.771 138.452 135.129 138.157 135.308 137.804C135.492 137.451 135.584 137 135.584 136.454V114.809C135.584 114.296 135.507 113.86 135.352 113.512C135.192 113.168 134.829 112.863 134.238 112.607C133.783 112.418 133.251 112.258 132.641 112.132C132.031 112.002 131.557 111.905 131.204 111.852V110.162H147.984C151.735 110.162 154.581 110.767 156.532 111.968C158.482 113.173 159.45 114.998 159.45 117.437C159.45 119.586 158.845 121.319 157.645 122.626C156.445 123.932 154.61 124.949 152.151 125.689C153.105 126.948 154.213 128.419 155.486 130.094C156.764 131.764 158.085 133.467 159.465 135.21C159.9 135.766 160.496 136.463 161.251 137.276C161.996 138.085 162.659 138.588 163.245 138.772C163.559 138.874 163.976 138.956 164.474 139.028C164.968 139.106 165.331 139.149 165.539 139.164V140.843ZM151.208 118.028C151.208 115.975 150.646 114.48 149.528 113.536C148.405 112.582 146.798 112.108 144.727 112.108H143.052V124.997H144.664C146.74 124.997 148.342 124.441 149.489 123.327C150.632 122.214 151.208 120.448 151.208 118.028ZM200 111.852C199.608 111.89 199.047 111.968 198.32 112.089C197.585 112.2 196.922 112.486 196.331 112.931C195.818 113.323 195.45 113.986 195.228 114.93C195.01 115.874 194.903 117.263 194.903 119.092V141.018H191.133L172.499 117.297V131.701C172.499 133.487 172.62 134.847 172.847 135.776C173.085 136.705 173.457 137.383 173.975 137.818C174.357 138.138 174.962 138.419 175.79 138.661C176.618 138.903 177.276 139.072 177.77 139.154V140.843H164.895V139.154C165.447 139.12 166.076 139.009 166.783 138.845C167.494 138.675 168.085 138.423 168.564 138.08C169.116 137.659 169.488 137.03 169.697 136.187C169.895 135.34 169.997 133.922 169.997 131.938V117.408C169.997 116.687 169.89 116.004 169.672 115.366C169.45 114.722 169.116 114.17 168.656 113.71C168.157 113.217 167.596 112.834 166.957 112.553C166.318 112.273 165.587 112.05 164.769 111.89V110.162H176.042L192.396 130.921V119.305C192.396 117.461 192.275 116.087 192.038 115.186C191.801 114.286 191.419 113.623 190.906 113.188C190.494 112.854 189.889 112.573 189.091 112.331C188.292 112.094 187.643 111.934 187.155 111.852V110.162H200V111.852Z" fill="#471668"/>
</g>
<defs>
<clipPath id="clip0_154_2472">
<rect width="200" height="200" fill="white"/>
</clipPath>
</defs>
</svg>
