<svg width="200" height="200" viewBox="0 0 200 200" fill="none" xmlns="http://www.w3.org/2000/svg">
<path d="M107.129 23.5569C106.168 25.7446 106.233 28.9281 107.528 30.9506C110.745 35.3959 115.817 36.3567 120.493 37.7825C127.224 39.5751 134.419 40.2699 141.018 42.424C146.953 44.9463 151.395 51.0136 153.52 56.8175C154.016 56.1537 154.083 55.1257 154.545 54.3637C156.006 51.0136 159.357 48.9576 162.671 48.2265C160.68 51.2125 159.357 55.4898 161.079 59.0388C165.159 58.543 170.464 57.8442 173.184 61.5235V61.6579C171.689 62.1551 169.999 62.7531 169.269 64.3764C168.806 66.0683 169.635 67.5935 170.528 68.9199C174.643 73.5963 179.781 78.735 178.023 85.532L178.09 85.6328C180.743 82.581 184.09 80.6244 188.303 81.0235C186.248 86.857 183.895 92.6609 184.058 99.3262C184.259 100.022 184.259 100.752 184.622 101.384C186.909 100.222 190.094 100.255 192.68 100.752C191.122 102.94 188.537 104.83 187.409 107.283C186.711 114.678 191.619 122.639 187.01 129.402V129.702C188.801 132.452 190.128 136.332 188.537 139.583C186.975 138.256 185.384 136.267 183.261 136.964C182.168 137.626 181.839 138.852 180.975 139.749C177.793 144.392 173.117 149.034 167.114 148.669C166.287 148.601 165.524 149.066 164.726 148.899C165.159 151.818 165.125 155.335 163.864 157.954C163.035 160.405 161.411 163.025 158.857 164.088C158.259 163.556 159.29 163.193 159.39 162.661C159.887 161.137 159.454 159.412 158.461 158.219C158.097 157.954 157.796 157.621 157.332 157.651C156.67 160.938 154.147 164.353 150.901 165.446C149.902 165.678 148.877 165.91 148.016 166.475C147.849 167.602 147.849 168.861 148.745 169.657C148.147 170.221 147.385 169.657 146.821 169.426C146.722 170.951 146.325 172.674 144.996 173.637H144.664C144.6 172.974 144.964 172.31 144.6 171.747C143.836 172.94 142.279 173.405 141.018 173.969C140.387 173.172 142.544 172.41 141.086 171.812C138.765 172.974 134.188 171.35 134.087 175.395C134.122 175.66 133.989 176.023 134.255 176.192C133.06 176.224 131.932 175.328 131.004 174.367C130.804 174.665 130.706 174.831 130.342 174.597C129.611 174.17 128.716 173.606 128.352 172.775C128.217 173.271 128.584 173.77 128.682 174.268C127.457 174.332 126.527 173.139 125.565 172.212C122.283 173.835 117.474 172.574 115.319 176.256C115.154 176.324 115.022 176.489 114.822 176.422C114.127 175.163 115.088 173.835 115.551 172.674C113.13 173.373 110.51 173.373 107.828 173.008C103.018 171.35 97.3473 168.595 92.0742 171.182C90.4496 171.881 89.1568 173.34 87.465 173.801C89.5882 170.221 90.0532 165.712 93.5 162.894C90.4173 162.496 87.3333 162.032 84.8432 160.207C80.9663 156.626 75.5951 156.626 70.6566 155.565C64.1217 155.964 57.9872 157.256 51.6539 158.118C51.6203 157.123 52.5488 156.326 53.1455 155.499L55.7982 152.713C48.4704 153.972 41.1399 153.21 34.9409 149.696C32.8836 148.7 31.0278 147.276 29.137 145.948C32.8513 146.514 37.1945 146.415 40.6763 144.989C45.3527 143.329 49.7967 139.217 52.6174 134.874C48.6384 136.003 44.6566 137.592 40.9746 139.648C41.2071 137.759 41.8037 135.802 42.1679 133.845C43.8611 128.475 46.5447 123.4 51.3246 119.356C43.9942 116.735 35.6693 113.948 31.5236 106.158C33.6482 107.385 36.0012 108.28 38.4214 108.547C32.4226 102.014 30.4634 93.7561 29.9998 84.9031C29.5361 84.0081 29.7001 82.8471 28.8064 82.1187C26.6523 80.0613 23.8639 79.5641 21.015 79.165C16.0725 78.8345 11.3638 79.5319 7.32031 81.4858C15.5095 68.7209 28.9381 59.2713 44.1595 60.2308L45.7519 60.6285C45.3527 53.2027 49.5642 46.6355 55.6342 42.6578H55.9325C56.1986 47.5641 58.8164 52.6383 63.4928 54.5962C64.0545 54.7266 64.5517 54.9604 65.0825 55.0598C64.9508 54.3275 64.3864 53.5668 64.1553 52.7726C61.8009 46.4379 63.2603 39.2083 67.4718 34.2012C67.7365 34.8973 67.9677 35.7587 68.2002 36.522C71.6148 44.781 81.3641 42.5248 87.2997 47.1004C87.7647 44.48 86.9355 41.3973 88.3277 39.0766C90.3179 35.7265 93.2366 32.379 96.5196 29.9884C95.6904 34.4673 96.4188 39.4407 98.6737 43.2208L99.4034 43.9169L99.4692 43.8498C96.5196 40.071 98.1093 34.5009 100.265 30.8847C101.958 28.1984 104.177 25.0795 107.129 23.5569Z" fill="black"/>
<path d="M104.011 30.7862C102.288 32.6783 100.797 34.665 100.431 37.0871C99.933 40.7347 102.122 43.9158 104.808 46.24C110.215 51.3777 117.805 51.1465 123.342 55.9552C129.61 60.1683 130.736 67.1948 130.672 74.2579C130.638 78.371 129.213 81.8864 128.847 85.8673C128.55 88.5184 128.716 91.2027 129.013 93.756C130.308 96.4092 133.191 98.298 135.844 99.1602C135.179 98.4324 134.484 97.7014 134.086 96.8403C134.318 96.6747 134.617 96.5092 134.884 96.6747C136.477 98.068 138.464 98.4959 140.221 99.3935C137.999 97.338 137.007 94.7525 136.642 91.8994C136.742 87.0606 135.914 81.5209 139.823 78.2388C145.131 75.2544 151.429 71.1091 152.49 64.6093C153.018 60.6618 151.096 57.5796 149.838 54.262C146.821 47.5322 139.822 44.7135 133.523 42.9547C125.331 40.3681 115.286 42.2247 107.827 37.7816C105.207 36.355 103.646 33.8684 104.01 30.7852L104.011 30.7862ZM93.7321 36.5915C92.8388 37.2193 92.0411 38.0815 91.5133 39.0781C90.2178 42.6268 89.8523 46.7034 91.5133 50.2166C91.5778 50.5832 91.7766 51.1465 91.3445 51.411C88.0634 49.8855 84.6125 48.6922 81.1638 47.4989C77.2184 46.0078 72.3441 46.5701 69.3264 43.0557C68.6277 42.5591 67.5376 42.3258 67.4032 41.2948C66.5421 44.048 67.2387 46.8377 67.9687 49.4243C69.2286 55.4553 75.8918 56.8507 80.3672 59.2728C86.4369 62.0572 91.5133 68.4892 92.4066 75.0545C93.5666 83.1109 90.0523 89.9095 90.1512 97.7358C90.0523 103.803 94.3944 109.609 99.9674 111.795C99.9008 112.029 100.095 112.323 99.7997 112.456C95.2888 111.199 91.4444 107.684 89.0578 103.541C84.7792 97.1392 85.3758 88.4173 85.937 80.6254C85.8402 73.9601 83.187 68.028 78.0806 63.416C73.7374 59.5029 68.5965 59.0406 62.5612 59.2728C60.4401 59.4706 57.8858 59.7684 56.1969 58.4751C53.6082 57.2506 54.007 54.6619 54.1049 52.2732C54.1726 51.7765 54.6349 51.3132 54.6026 50.9165C51.8172 52.3087 49.1306 54.7608 48.4695 57.8451C48.1373 61.095 48.3695 64.2793 48.8662 67.5603C49.8294 72.4023 52.0816 76.6799 54.6026 80.8576C57.0569 87.525 61.5345 93.6915 67.0033 98.7668C71.4464 104.369 81.6938 107.78 79.505 116.339C78.2784 119.023 76.8217 121.709 74.5662 123.898C73.6363 124.661 72.7397 125.656 71.7131 125.824C72.7397 124.329 73.8019 122.837 74.233 121.114C74.9307 118.824 74.5329 115.974 72.7397 114.183C68.1331 110.303 63.3234 105.991 60.2423 100.987C55.3025 93.9549 54.9359 85.0019 50.6938 77.6754C48.305 71.7046 42.3697 65.5382 35.3399 65.9026C29.3369 66.0692 24.0971 69.4857 20.6172 74.3923C22.6404 73.1334 25.0937 72.8646 27.6136 72.8001C31.7568 73.2656 36.0043 76.1833 37.5621 80.2298C39.653 88.8172 38.4221 98.799 45.984 105.132C47.7406 106.79 49.7305 107.919 51.8215 108.779C51.4216 109.41 50.626 109.609 49.8971 109.741C47.1439 109.343 44.093 109.676 41.6053 108.551C46.6129 113.553 53.0492 115.709 59.4478 117.698L60.6422 117.299C60.8411 117.468 60.9067 117.664 60.8734 117.932C55.5358 122.043 51.2216 127.648 49.1672 133.15C52.1182 131.063 55.2347 129.47 58.7168 128.673C58.9168 128.872 59.1157 129.041 59.0479 129.306C56.2302 132.788 56.528 137.53 54.2059 141.175C52.516 144.258 49.4316 146.614 45.6851 146.017C50.2616 150.394 57.6203 151.188 63.5889 149.2C69.3942 146.745 74.9984 143.831 81.4981 143C87.499 142.073 93.6031 145.685 98.9063 142.372C103.052 139.85 104.476 135.339 104.412 130.663L104.577 130.5C104.675 130.598 104.676 130.698 104.743 130.832L104.474 127.647C104.277 121.514 108.093 117.069 107.828 110.933C104.843 111.828 100.993 111.564 98.8386 109.343C98.6731 109.741 98.8719 110.371 98.3753 110.535C97.2153 108.878 96.352 106.988 96.0543 104.898C95.8876 105.099 95.5232 105.097 95.3264 104.965C94.9943 103.838 95.9231 102.744 95.9876 101.715C95.6543 101.781 95.4243 101.617 95.2587 101.386C96.0553 99.8601 97.0841 98.2325 98.6752 97.2381C101.991 96.4447 104.609 99.1602 106.399 101.715L106.232 101.849C104.144 100.39 101.957 98.8635 99.2375 99.1613C98.3086 99.3279 97.6131 99.9257 97.0831 100.753L97.4153 101.053L96.3843 103.771L96.7831 103.542C96.8842 103.639 97.0164 103.77 97.0831 103.937C96.9498 105.263 97.4152 106.591 98.1097 107.583V107.353C98.2097 107.188 98.242 106.922 98.5086 107.023C99.4041 108.016 100.565 108.743 101.791 109.11C104.541 109.741 107.027 108.412 109.58 108.314C110.147 109.939 110.213 112.062 109.814 113.784C108.222 117.832 107.792 122.804 107.359 126.848C108.785 121.377 112.4 116.803 113.629 111.266C113.795 109.906 113.728 107.885 113.396 106.323C112.27 102.016 108.522 98.7668 105.934 95.0181C102.123 88.4506 106.897 81.8853 109.184 76.0833C109.617 75.1534 109.648 74.0622 110.047 73.2011C112.201 78.0076 110.413 83.743 110.047 88.8183C109.316 94.0892 112.798 98.3346 116.976 100.921C121.319 99.7246 125.501 97.9368 130.439 98.4324L128.517 96.2759C125.963 91.8671 125.433 86.3962 126.229 81.0909C127.455 72.2368 127.024 62.4195 119.364 56.8185C112.138 50.1854 100.529 52.7043 95.0899 43.0568C94.5288 40.9325 93.601 38.9114 93.7321 36.5915ZM160.186 50.9154C157.93 51.8088 156.601 54.2319 155.973 56.3541C155.672 59.8695 154.711 63.1161 154.147 66.5337C153.354 71.4735 149.041 74.89 145.727 78.7688C142.641 82.2154 141.084 86.2962 140.453 90.7061C140.717 94.6526 142.045 98.4658 145.396 100.753C145.195 99.128 145.923 97.7025 146.985 96.5414C149.507 94.7837 152.424 94.0548 154.779 91.8983C154.98 92.2971 154.779 92.7626 154.779 93.1937C153.787 95.9781 150.698 96.5758 148.247 97.2402C147.483 97.5068 146.588 97.868 146.523 98.8302C145.959 99.959 147.252 101.052 146.357 101.948C143.97 101.551 142.18 99.0312 140.854 97.4036L141.979 100.256L141.649 100.589C139.789 100.358 138.232 99.3946 136.573 98.6657C136.973 99.0613 137.369 99.4591 137.5 99.959C137.27 100.057 137.073 100.388 136.707 100.256C133.294 99.6913 130.538 97.2069 128.121 94.5547C128.782 96.2114 130.605 97.4025 131.867 98.8291C131.899 99.128 131.834 99.3946 131.533 99.4591C125.863 98.4324 121.286 101.517 115.949 102.014L121.121 102.414C120.26 103.573 118.736 103.606 117.94 104.898C115.851 109.208 114.887 114.053 114.026 118.895C113.86 121.216 112.036 123.238 113.163 125.724C114.987 128.808 116.78 131.857 118.337 135.04C121.487 140.412 122.25 147.378 121.354 153.513C118.836 160.774 110.677 160.543 104.577 161.14C104.477 160.94 104.743 160.908 104.808 160.739C110.611 159.348 118.503 158.121 119.928 150.958C120.592 143.996 118.105 138.061 114.356 132.823C115.517 137.496 116.843 142.901 115.385 147.876C114.588 151.025 111.174 153.348 108.056 153.679C99.7675 154.275 92.24 151.521 85.077 148.671C86.238 148.768 87.4345 149.203 88.5601 149.6C95.4243 151.356 103.88 153.546 110.148 148.903C114.323 145.289 114.621 140.016 113.726 134.742C113.428 130.766 110.509 127.515 110.712 123.736L109.516 125.89C105.571 131.063 110.745 137.098 108.157 142.703C105.536 149.234 97.7765 145.489 92.8689 145.388C83.3859 144.825 74.233 146.517 66.3744 150.66C73.3718 149.169 80.5671 150.562 86.1703 154.075C90.579 157.492 95.0899 160.64 100.496 161.535C101.46 161.834 102.585 161.639 103.448 162.036C103.546 162.234 103.346 162.368 103.217 162.499C99.7664 162.731 96.6154 164.786 94.6255 167.372C95.3232 166.909 96.1198 166.51 97.0153 166.477C104.243 164.688 109.416 170.854 116.677 168.798C117.507 168.798 118.433 167.408 119.066 168.401C118.369 169.266 117.676 170.257 117.472 171.251C119.928 168.766 123.871 169.63 126.69 168.072C126.89 166.577 125.068 167.672 124.538 167.105L124.634 166.877C124.338 166.91 124.005 167.142 123.905 167.276C123.741 167.306 123.54 167.573 123.341 167.372C124.202 165.946 126.159 165.02 126.69 163.463L126.925 163.924C126.328 166.311 127.421 168.466 129.144 169.993C129.111 169.231 128.548 168.202 129.311 167.605C130.172 168.202 130.14 169.562 131.236 170.158C131.301 169.395 131.002 168.4 131.796 168.004C132.262 168.266 131.797 168.632 131.931 169.031C132.295 170.158 133.225 171.552 134.484 171.815C134.484 171.287 134.784 170.855 134.883 170.39C136.112 168.568 138.264 168.266 140.384 168.301C142.009 168.435 142.808 166.742 143.567 165.682L143.8 165.915C144 166.48 143.438 166.741 143.406 167.206C141.912 167.471 143.271 169.032 142.841 169.427C143.438 169.064 144.067 168.6 144.529 168.072C144.862 167.838 144.431 167.305 144.93 167.105C145.824 167.206 145.692 168.302 145.959 168.964C146.488 167.872 147.085 166.279 146.255 165.118C146.985 164.19 147.315 165.715 147.948 165.783C146.751 163.393 149.604 161.504 147.948 159.249C148.278 158.586 149.073 158.652 149.537 158.121C149.804 157.691 150.005 157.128 149.837 156.63C149.339 155.867 148.442 154.939 147.715 154.872C147.812 155.536 147.812 156.034 147.715 156.696L148.51 157.097C148.677 157.26 148.642 157.492 148.411 157.655C144.762 157.228 140.852 157.326 137.369 158.222C136.374 158.817 134.983 158.719 133.789 158.619C132.794 157.823 132.029 156.829 131.4 155.832C128.316 151.624 128.548 145.422 129.643 140.383C130.603 135.773 130.007 130.468 132.994 126.687C134.054 126.423 134.914 127.15 135.843 127.415C135.878 125.227 136.605 123.304 137.9 121.744L138.065 122.01C136.872 123.935 136.339 126.788 137.27 129.009C137.404 127.618 137.272 126.159 137.999 125.03C138.199 124.929 138.199 125.196 138.297 125.262C138.265 129.207 138.497 133.419 142.046 135.541C143.438 135.574 144.83 136.171 146.123 135.839C145.591 135.675 144.8 135.639 144.664 134.974C144.765 134.677 145.094 134.944 145.227 134.743C149.207 136.733 154.182 135.373 157.396 132.752V132.49C157.032 132.29 156.736 132.72 156.302 132.589C155.872 131.363 157.993 131.759 158.127 130.434C159.288 130.468 158.127 132.091 159.254 132.356C159.087 132.491 158.856 132.389 158.692 132.423C158.623 132.622 158.789 132.752 158.855 132.887C160.448 133.35 161.542 135.54 163.466 134.743C163.93 134.114 164.528 133.55 164.496 132.752C164.196 132.887 163.729 132.822 163.633 132.49L164.164 131.858C165.356 131.792 164.76 130.3 165.224 129.571C164.826 129.803 164.295 129.871 163.864 129.706C164.195 129.042 165.455 129.142 165.455 128.112C165.654 128.046 165.817 127.917 166.02 128.112C166.55 127.55 166.816 126.852 166.816 126.057C166.517 124.499 166.481 122.573 164.657 121.845C163.633 123.437 161.874 123.901 160.582 125.196C160.713 125.792 160.45 126.255 160.117 126.687C159.751 127.349 158.725 126.918 158.591 127.318C158.228 127.917 157.429 127.515 156.934 127.415C156.37 127.085 155.705 126.521 155.74 125.826C155.606 125.989 155.409 126.09 155.177 126.057C153.353 124.7 151.163 123.867 148.974 123.205C148.576 122.973 147.948 122.574 148.111 122.01C150.732 119.856 154.05 121.049 157.332 120.95C157.929 121.049 158.16 121.58 158.692 120.95C160.481 121.082 162.371 120.387 163.931 120.883C162.737 119.059 160.846 117.534 159.089 116.343C158.259 115.379 155.839 115.808 156.37 113.952C154.049 113.255 151.129 113.523 148.908 114.287C148.312 114.054 147.517 115.778 147.386 114.353C146.62 114.321 146.057 114.484 145.558 114.054C145.759 113.588 146.223 113.126 146.657 112.925C146.92 113.024 146.787 113.29 146.82 113.49C149.638 113.49 152.423 112.426 155.177 113.157V112.925C155.376 112.427 154.779 112.428 154.48 112.461C153.586 111.502 155.111 111.002 155.506 110.207C155.704 108.681 154.511 107.354 153.42 106.391C151.393 104.005 149.14 101.916 147.051 99.4613V99.1635C147.55 97.939 148.976 98.169 149.937 98.0379C149.508 98.6689 148.61 98.7678 147.948 99.1635C149.404 101.319 151.627 102.98 153.585 104.635C155.075 106.228 157.993 107.72 157.163 110.374C157.099 111.402 156.204 111.698 155.343 111.896C156.302 112.063 155.376 113.49 156.471 113.393C156.833 113.655 157.195 114.021 157.163 114.516C160.977 115.116 163.564 118.962 166.417 121.515C167.477 123.271 167.711 125.593 167.345 127.716C165.487 129.471 165.817 132.091 164.825 134.18C164.229 135.442 162.935 135.936 161.709 136.171L161.243 138.392C161.013 139.157 160.382 139.851 160.346 140.614C161.608 142.404 162.205 144.725 164.263 145.886C169.334 146.382 173.911 144.325 177.229 140.445C179.849 138.225 181.372 132.658 185.651 134.25C186.544 134.645 187.142 135.573 187.505 136.404C187.973 134.279 187.506 132.193 185.75 130.833C185.352 130.469 184.089 130.998 184.456 130.036C186.344 127.484 186.709 124.199 186.942 121.05C187.176 114.851 181.936 106.792 188.367 102.182C186.645 102.017 185.121 103.044 183.528 103.142C181.439 97.0746 180.311 88.3861 184.954 83.1464C182.864 83.6118 181.075 84.8385 179.551 86.5962V86.8273C176.798 91.2049 176.2 96.5103 172.12 100.358C171.99 100.522 171.689 100.888 171.49 100.523C173.381 93.2615 175.733 85.3373 172.851 77.9098C171.989 75.6866 169.931 73.9612 168.406 72.0078C166.714 69.4546 164.327 66.8013 165.523 63.4171C166.318 61.826 167.944 61.3638 169.437 60.9628C169.003 60.665 168.473 60.5672 168.009 60.4027C165.852 60.6639 163.964 60.1006 162.174 61.1961C161.544 61.3304 161.179 62.255 160.45 61.9249C159.057 58.4762 158.26 54.3652 160.185 50.9186L160.186 50.9154ZM154.006 136.755C153.929 136.755 153.843 136.77 153.748 136.799C153.715 137.531 152.824 137.924 152.891 138.72C153.916 140.811 154.779 143 156.204 144.924C157 146.381 157.762 147.907 158.127 149.466C156.036 146.547 152.093 144.291 151.298 140.775L151.43 145.223C151.694 147.013 153.223 148.305 154.216 149.764C156.936 153.411 153.555 157.125 151.595 160.109C151.395 160.209 150.967 160.307 150.8 160.042C151.695 159.113 151.894 157.92 151.992 156.693C151.729 154.738 151.828 152.217 149.538 151.519C148.247 151.223 146.522 149.763 145.559 151.75C145.162 152.283 145.162 152.979 145.958 153.114C145.925 152.55 145.925 151.787 146.256 151.288C146.688 151.487 146.92 151.951 147.152 152.315C147.053 154.836 150.699 154.672 150.634 157.258C150.699 158.22 149.738 158.949 148.978 159.414C149.01 160.377 149.275 161.203 149.042 162.265C150.303 162.198 151.33 161.567 152.391 161.071C155.243 159.379 156.704 156.396 156.935 153.279C157.431 153.348 157.464 153.876 157.662 154.241C159.951 155.268 160.714 157.82 160.68 160.042C162.804 157.919 163.467 155.069 163.467 152.151C163.467 148.206 160.051 145.685 158.46 142.372C157.496 142.834 156.834 144.093 155.673 143.727C155.775 143.33 156.07 143.032 156.301 142.701C157.827 141.607 156.6 139.682 157.662 138.388L157.332 138.72C156.703 138.422 157 137.53 156.704 136.964H156.471C156.005 137.164 156.038 137.694 155.807 138.061C154.406 139.677 155.164 136.745 154.006 136.755ZM142.676 137.431L140.157 144.922C140.651 146.117 139.956 148.472 141.649 148.503C140.786 147.277 140.918 145.322 141.25 143.895C141.684 141.705 143.538 139.815 142.842 137.431H142.676Z" fill="#EEB310"/>
<path d="M123.341 48.8594L123.176 49.2539C130.039 53.8981 139.257 60.199 139.492 69.3164H139.656C142.64 66.2665 142.907 61.159 141.182 57.4447C137.9 50.3161 130.339 49.1894 123.341 48.8594ZM96.2185 55.6203L96.0518 55.9547L97.0807 57.8446C100.659 62.9167 103.312 68.3231 103.609 74.7239H104.077C106.034 71.6385 107.626 68.122 106.729 64.1433C104.276 59.8668 99.3662 59.0712 96.2185 55.6203ZM166.815 84.0403C165.952 88.649 163.166 92.4611 161.708 96.8376C160.844 100.287 163.266 102.775 164.557 105.529H164.955C166.218 102.015 167.211 98.4308 167.678 94.6187C167.908 91.2033 168.042 87.2245 166.947 84.0413L166.815 84.0403ZM105.268 99.5607L105.205 99.8606L107.262 102.246H107.525C107.423 101.053 106.196 100.388 105.268 99.5607ZM99.7984 100.125C99.3017 100.324 98.8018 100.586 98.4374 101.051C97.7074 102.31 98.1052 104.101 98.5051 105.364H100.262C99.7984 105.628 99.1017 105.495 98.6706 105.76C98.6373 106.226 99.1673 105.993 99.4017 106.159L99.1662 106.39C100.129 107.187 101.49 106.259 102.652 106.558C101.887 107.023 100.893 106.986 100.032 107.186L100.096 107.419C101.325 107.716 102.65 107.022 103.941 107.285C103.148 107.651 102.184 107.618 101.389 107.917V108.148C103.179 108.047 105.102 107.717 106.96 107.518C107.058 106.986 106.364 107.252 106.165 106.953C106.331 106.193 105.436 106.622 105.205 106.159C105.37 105.959 105.666 106.058 105.837 105.926C105.238 104.896 103.943 104.734 103.048 104.005C104.538 103.971 105.8 105.032 107.423 104.897V104.568C105.069 102.643 102.652 100.82 99.7984 100.125ZM129.263 100.465C128.596 100.453 127.926 100.505 127.254 100.654V100.921C131.63 101.416 135.774 102.511 139.491 104.568C137.899 104.602 136.306 104.102 134.581 104.169L134.484 104.568C137.335 105.395 140.188 106.523 142.84 107.983C143.934 108.577 144.895 109.474 146.025 109.973C146.62 109.274 145.923 108.481 146.025 107.684C145.822 107.484 145.491 107.187 145.622 106.954C146.254 107.022 146.854 107.153 147.451 107.283C148.411 107.186 149.306 109.079 150.103 107.518C150.963 107.782 151.66 107.154 152.322 106.622C152.389 105.728 151.129 105.895 150.567 105.529C150.832 105.395 151.129 105.429 151.361 105.196C150.996 104.169 149.835 103.738 149.14 102.909C148.61 102.812 148.874 103.474 148.574 103.705C143.999 103.208 139.623 102.246 135.211 101.385C133.247 101.111 131.265 100.501 129.263 100.465ZM107.59 101.385C107.721 101.914 108.121 102.444 108.454 102.744C108.621 102.642 108.519 102.476 108.551 102.344C108.419 101.848 108.054 101.518 107.59 101.385ZM108.95 102.344C108.918 102.61 108.918 103.009 109.249 102.978C109.414 102.908 109.316 102.745 109.348 102.643C109.316 102.511 109.148 102.278 108.95 102.344ZM176.994 102.511C175.534 105.097 172.917 106.953 171.024 109.408C167.908 113.355 169.929 119.123 169.897 123.734C169.997 125.524 169.172 127.05 169.103 128.673C171.688 126.985 173.909 124.895 175.866 122.409C179.149 118.594 178.387 112.69 177.292 108.215C176.963 106.424 176.598 104.302 176.994 102.511ZM124.303 105.527C121.949 106.822 119.99 109.176 118.168 111.264C118.037 111.132 118.101 110.931 118.101 110.768C117.935 110.37 118.101 109.775 117.769 109.506C116.874 114.482 116.412 119.657 115.382 124.629C114.788 127.483 115.913 130 117.471 132.192C121.385 136.766 124.501 141.738 123.972 148.172C124.202 148.071 124.202 147.772 124.304 147.544C124.37 144.426 124.933 141.507 125.265 138.455C125.926 142.7 124.866 146.811 124.236 150.791C123.773 154.173 123.671 157.653 122.147 160.607C119.99 164.09 115.714 165.116 111.636 164.319C109.084 163.325 105.733 163.526 102.883 163.857C102.949 164.058 102.781 164.319 103.048 164.42L103.147 164.319C108.254 163.259 112.398 166.243 117.471 165.78C121.352 165.218 123.042 160.907 123.904 157.821C126.457 153.014 125.563 146.779 126.226 141.177C126.626 141.973 126.361 143.131 126.758 143.896C126.723 139.649 127.221 135.869 126.924 131.627C126.028 129.905 124.169 128.807 123.34 127.082C123.143 126.717 123.108 126.155 122.776 125.987C122.578 127.714 123.44 129.471 123.573 131.162C120.886 128.776 119.393 125.525 120.089 121.845C119.925 121.813 119.795 121.878 119.694 121.912C118.899 123.171 118.598 124.629 118.399 126.12C117.704 123.239 118.898 120.352 119.859 117.766C119.361 117.731 118.898 118.229 118.5 117.931C119.494 116.438 120.359 114.848 121.12 113.252L119.527 113.158V112.759C121.053 110.304 122.975 108.046 124.303 105.527ZM129.448 107.913C128.331 107.966 127.12 108.464 126.061 108.549C125.597 108.711 125 108.877 124.767 109.274C127.122 109.109 128.713 111.498 129.939 113.156C129.542 113.42 128.91 113.355 128.446 113.252C128.149 113.389 127.519 113.255 127.554 113.72C129.012 113.82 130.406 114.082 131.632 114.678C130.735 115.112 129.674 115.079 128.843 115.642C130.138 115.676 131.299 115.18 132.594 115.478C130.836 116.537 128.946 117.266 126.924 117.632V117.764C130.472 117.83 133.291 116.039 136.238 114.678C138.86 113.85 141.778 113.687 144.662 113.552L145.393 112.992C145.691 112.36 146.222 111.661 146.254 110.999H146.025C145.759 111.463 145.361 112.029 144.829 112.36C142.373 112.857 140.352 111.399 138.397 110.206C138.198 111.199 139.29 111.563 139.756 112.194C137.402 111.761 135.479 109.774 133.293 108.71L133.12 108.879C133.454 109.31 134.017 109.505 134.416 109.973L134.317 110.074C134.186 110.074 134.119 109.906 134.017 109.805C133.024 109.608 132.164 109.043 131.298 108.479C130.751 108.007 130.118 107.88 129.448 107.913ZM151.529 107.917C151.061 108.315 151.693 108.813 151.593 109.177C150.765 109.806 150.796 108.184 149.934 108.614C150.332 109.275 149.835 110.071 149.771 110.536C150.135 110.702 150.431 111.1 150.963 110.933C151.692 109.207 152.754 111.563 153.914 111.264C154.013 110.6 153.382 110.171 152.952 109.805C152.753 109.474 152.987 109.111 153.185 108.879C152.72 108.28 152.091 108.216 151.529 107.917ZM105.368 108.08C104.574 108.215 103.546 108.016 102.983 108.549C103.778 108.614 104.737 108.48 105.368 108.08ZM147.614 108.481C147.98 109.376 148.312 110.5 147.948 111.499C147.912 111.929 147.216 111.96 147.547 112.457L147.948 112.36C148.543 111.731 149.505 110.999 149.139 109.973C148.741 109.375 148.41 108.647 147.614 108.481ZM153.584 114.116C152.72 115.741 150.733 114.581 149.703 115.709C151.826 115.578 154.082 115.342 156.202 114.978C155.374 114.348 154.31 115.013 153.584 114.116ZM103.778 114.182L103.543 114.515C102.779 117.531 101.126 120.218 101.057 123.501C100.095 127.049 99.9983 131.029 97.4773 133.846C94.4941 136.534 90.4799 136.766 86.4355 136.864C81.3613 137.165 77.4492 140.315 73.3039 142.833C73.2039 143.065 73.435 142.998 73.535 143.098C76.6505 141.705 79.7692 140.247 83.1513 139.518C87.86 137.96 94.1941 139.751 98.5062 137.031C100.462 135.771 100.991 133.682 101.158 131.559C101.158 126.354 101.524 121.115 102.983 116.438C103.247 115.676 103.644 114.816 103.778 114.182ZM143.237 114.581C142.772 114.881 142.673 115.377 142.541 115.777C142.109 115.478 142.673 115.046 142.373 114.68H142.142C141.745 115.479 140.683 115.343 140.286 116.041C141.977 115.742 142.807 117.4 144.131 117.93C143.567 116.803 144.729 116.207 144.993 115.478C144.399 115.378 143.733 115.578 143.236 115.942C142.84 115.479 143.731 115.18 143.731 114.748C143.565 114.68 143.438 114.547 143.237 114.581ZM146.024 117.764C145.691 117.83 145.658 118.062 145.392 118.26C144.364 119.357 146.221 119.388 146.585 120.087C145.724 120.121 144.894 119.388 143.867 119.755C143.701 120.352 144.166 120.948 144.2 121.443C142.97 121.047 141.543 121.183 140.219 121.049C139.756 121.513 140.352 121.942 140.452 122.408C140.251 122.64 139.921 122.538 139.655 122.64C139.391 122.737 138.958 122.971 139.027 123.335C139.921 123.335 140.716 123.335 141.578 123.666C142.576 123.402 141.68 122.374 141.81 121.844L145.46 122.239C145.622 121.742 144.861 121.81 144.762 121.443L144.993 121.115C146.222 120.684 147.15 121.546 148.174 121.609V121.115C147.313 120.022 145.922 119.224 146.024 117.764ZM137.208 118.903C136.306 118.898 135.491 119.7 134.648 120.02C132.127 119.719 129.938 121.114 128.513 123.203C128.148 123.501 127.552 123.634 127.42 124.064C129.841 123.335 131.132 119.621 134.317 120.551C135.909 122.042 136.206 119.092 137.6 118.959C137.468 118.922 137.337 118.903 137.208 118.903ZM133.783 121.781C131.491 121.842 129.913 124.238 127.65 124.528C129.342 124.595 131.432 124.262 133.122 123.6L133.291 122.869C133.587 122.207 134.317 122.241 134.814 121.912C134.454 121.812 134.111 121.772 133.783 121.782V121.781ZM136.238 122.307C136.073 122.441 135.808 122.373 135.612 122.472C134.814 122.804 134.516 123.634 134.251 124.296C132.925 124.465 131.996 125.425 131.002 126.386C131.331 126.354 131.63 126.119 131.929 125.987C133.025 125.523 134.218 126.054 135.115 126.386C135.079 124.828 135.841 123.536 136.238 122.307ZM140.378 125.254C140.315 125.28 140.26 125.417 140.219 125.723C141.479 127.812 143.865 128.475 145.958 129.237C147.082 129.371 148.344 130.33 149.37 129.636C150.598 130.2 152.125 129.868 153.682 129.968C152.988 129.67 151.892 129.867 151.129 129.468C150.465 129.668 149.439 129.402 148.742 129.702C146.024 128.972 143.372 128.178 141.18 126.22C140.858 126.072 140.571 125.176 140.378 125.254ZM158.189 127.812C157.893 128.243 158.158 128.906 157.959 129.403C157.858 129.767 157.463 129.801 157.163 129.867C157.396 130.663 158.124 129.67 158.522 130.101C158.555 129.403 158.887 128.274 158.189 127.812ZM130.503 128.276C128.246 130.566 129.211 134.179 128.745 137.197C128.745 137.463 128.247 137.793 128.745 137.994L128.348 142.301C128.148 143.993 127.684 146.049 128.282 147.608L128.447 147.473C128.844 143.529 129.178 139.187 129.709 135.139L130.037 134.807L129.806 134.577L130.037 131.958C130.205 130.732 130.703 129.47 130.503 128.275V128.276ZM139.819 128.442C140.018 129.437 140.946 130.366 141.478 131.293C142.041 131.658 142.208 132.885 143.072 132.586C146.089 133.149 149.204 133.483 152.222 133.216C152.29 133.049 152.156 132.884 152.092 132.819C148.079 132.786 143.9 132.984 141.247 129.867C140.782 129.402 140.647 128.342 139.819 128.442ZM162.433 132.088C162.27 132.324 162.535 132.588 162.833 132.49V132.255C162.833 132.024 162.567 132.123 162.433 132.088ZM154.191 132.4C153.782 132.427 153.409 132.76 153.184 132.984L153.977 133.051C154.213 132.885 154.744 132.954 154.612 132.49C154.471 132.415 154.329 132.39 154.191 132.4ZM128.245 148.334C128.066 148.372 127.942 148.522 127.817 148.67C128.282 150.261 127.553 151.886 127.817 153.51C128.215 153.543 128.116 153.081 128.348 152.882C129.245 154.074 129.673 155.502 130.734 156.53C130.037 154.009 128.413 151.85 128.348 149.067L128.596 148.809C128.197 148.809 128.661 148.48 128.43 148.345C128.355 148.328 128.288 148.328 128.228 148.341L128.245 148.334ZM145.299 158.358C141.783 158.239 138.446 159.764 135.111 160.609H134.015C132.989 160.309 131.694 159.612 131.464 158.451C130.932 158.415 131.199 159.113 130.902 159.246C130.602 159.213 130.568 159.545 130.601 159.812C130.933 160.938 131.958 162.035 133.118 162.333C132.689 162.333 131.994 162.396 131.464 162.266V162.429C132.425 162.562 133.685 163.558 134.481 162.497C134.118 162.333 133.586 162.53 133.222 162.333C133.786 162.333 134.28 162.099 134.813 161.934C136.805 160.376 139.157 159.778 141.646 159.414C142.539 159.513 143.532 159.413 144.197 160.109C144.659 161.104 144.362 162.333 143.73 163.126C143.798 163.292 143.967 163.195 144.129 163.225C145.16 162.461 145.557 161.205 145.391 159.942C145.821 160.109 145.92 160.737 146.351 160.737C146.551 160.24 146.321 159.578 146.252 159.149C146.552 158.916 147.347 159.378 147.312 158.748L146.817 158.515C146.307 158.425 145.801 158.375 145.299 158.358ZM126.456 158.515C126.424 160.142 124.766 160.838 123.839 161.934C124.566 162.333 125.063 161.436 125.659 161.401C125.099 163.592 122.677 163.988 121.283 165.514C121.151 166.013 120.489 166.508 120.953 167.04C121.682 165.416 123.441 165.316 124.768 164.653C127.318 163.723 126.424 160.837 126.855 158.748C126.721 158.682 126.656 158.451 126.456 158.515ZM132.915 163.445C132.847 163.438 132.784 163.441 132.726 163.458C132.493 163.524 132.094 163.592 132.094 163.923C132.626 164.187 133.188 163.888 133.52 163.622C133.347 163.573 133.117 163.467 132.915 163.445ZM142.372 164.718C141.047 166.31 138.826 165.481 137.2 165.115C135.84 166.045 134.479 167.469 134.479 169.029H134.647C135.177 167.966 136.337 167.171 137.434 166.875C139.191 166.18 141.808 166.875 142.67 164.718H142.372Z" fill="black"/>
<path d="M127.932 109.122C127.732 109.131 127.53 109.15 127.324 109.179C129.215 110.008 129.913 112.065 131.472 113.394C134.024 115.645 136.678 112.896 139.429 112.995C138.204 112.896 137.044 112.561 135.915 112.131C133.272 111.104 130.92 108.999 127.932 109.122ZM132.289 133.054C131.903 133.07 131.536 133.17 131.304 133.385C131.934 133.185 132.698 133.054 133.395 133.22C133.08 133.103 132.674 133.037 132.289 133.054ZM132.118 133.764C131.745 133.767 131.403 133.9 131.137 134.347C131.105 135.774 130.212 137.366 131.007 138.723C131.205 138.559 131.407 138.093 131.803 138.16C132.466 138.559 131.473 138.99 131.538 139.52C131.505 139.95 131.272 140.778 132.034 140.778C131.836 141.179 131.77 141.611 131.472 141.975C131.172 144.462 130.774 147.08 130.608 149.469C130.774 149.469 131.041 149.236 131.137 149.534C130.907 150.199 130.742 150.892 130.443 151.522C130.941 151.489 131.206 150.762 131.803 150.892C131.936 151.061 132.134 151.16 132.198 151.359C131.734 151.923 131.838 152.683 131.703 153.35L132.198 152.65C132.533 152.519 133.097 152.484 133.229 152.885C132.797 153.447 132.997 154.342 133.063 155.04C132.93 153.945 134.621 153.649 134.025 152.553L133.527 153.282C133.163 153.052 133.594 152.753 133.46 152.388C133.029 152.421 132.664 152.319 132.265 152.253C132.298 152.021 132.4 151.756 132.664 151.691C135.779 152.253 135.053 148.371 136.977 147.145C137.839 146.815 138.568 147.346 139.262 147.611C137.569 143.225 142.003 139.017 139.675 135.099C139.445 135.681 139.021 136.067 138.46 136.174L138.403 136.185V136.405C136.843 136.768 135.779 135.505 134.486 135.042C134.286 134.878 134.127 134.644 134.092 134.412C135.455 134.95 136.667 135.914 138.191 136.143L138.262 135.958C136.43 135.718 134.971 134.579 133.296 133.952C132.897 133.885 132.492 133.759 132.118 133.764ZM137.162 133.78C136.759 133.761 136.378 133.79 136.078 133.85C136.777 134.348 137.606 134.481 138.299 134.878L138.004 135.208C138.13 135.243 138.264 135.264 138.398 135.29C138.432 134.894 138.417 134.437 138.382 133.995C137.991 133.866 137.565 133.799 137.162 133.78ZM135.383 136.169C136.344 136.271 137.176 136.768 138.07 137.033V137.198C137.011 137.231 136.146 136.799 135.383 136.169ZM136.662 137.442C136.975 137.477 137.381 137.807 137.672 137.828L137.208 138.227C137.373 140.548 136.942 142.803 136.645 144.992C136.28 144.164 136.645 143.237 136.645 142.375C136.479 140.747 137.539 139.123 136.244 137.828C136.319 137.506 136.474 137.421 136.662 137.442ZM136.497 145.175C136.574 145.188 136.629 145.279 136.578 145.49V145.721C136.414 145.787 136.344 145.62 136.244 145.556C136.162 145.348 136.365 145.155 136.497 145.175ZM137.372 147.876C136.079 148.441 136.28 149.9 135.781 150.96C134.458 151.626 134.852 153.213 134.655 154.307C134.954 154.473 135.354 154.64 135.684 154.474C136.813 153.548 137.207 152.154 137.372 150.731H137.607C138.403 151.659 138.666 152.98 138.634 154.307C140.557 154.342 142.846 154.808 144.206 153.28C144.536 151.923 145.466 150.596 146.757 149.868C146.824 149.104 146.427 148.474 145.86 148.008C145.43 147.876 145.199 148.241 144.935 148.508C145.031 148.674 145.366 148.77 145.231 149.07C144.966 149.335 144.636 149.5 144.271 149.532C141.885 149.203 139.564 148.672 137.372 147.876ZM137.846 148.713C138.095 148.713 138.386 148.788 138.568 148.806C139.861 149.236 141.022 149.967 142.447 150C140.857 150.697 138.698 150.23 137.372 149.07C137.39 148.788 137.597 148.713 137.846 148.713Z" fill="#E31837"/>
<path d="M99.9389 97.8489C99.7249 97.8446 99.4927 97.8511 99.239 97.8704C98.0113 98.1682 97.2502 99.2293 96.6191 100.258C97.3824 99.6615 98.351 98.666 99.3111 98.5359C100.429 98.1327 101.672 98.709 102.611 98.6896C102.032 98.4574 101.435 97.8844 99.9389 97.8489ZM123.98 101.201C123.2 101.198 122.48 101.299 121.694 101.299L121.189 101.373C120.68 101.436 120.667 101.404 120.009 101.543L119.592 101.609C119.433 101.676 118.382 101.887 118.185 101.992C118.408 102.149 119.887 102.032 120.11 102.095C121.001 102.13 121.932 102.302 122.623 102.326C123.387 102.391 126.176 103.107 126.176 103.202C125.986 103.777 123.559 107.645 123.927 107.125C124.213 107.031 125.07 106.131 127.047 104.969C127.652 104.458 128.543 104.362 129.244 103.949C131.695 103.474 134.145 103.5 136.5 103.979C137.495 104.1 138.02 104.221 138.78 104.394C138.364 104.064 138.121 104.115 137.993 104.021C136.621 103.442 134.826 102.668 133.391 102.446C132.661 102.192 132.361 102.359 131.662 102.103C131.283 102.137 130.929 101.914 130.611 101.849C130.387 101.976 129.546 101.645 128.142 101.472C127.723 101.409 127.206 101.436 126.823 101.373C126.188 101.34 125.455 101.245 124.784 101.245C124.506 101.213 124.24 101.201 123.98 101.201ZM156.756 115C156.668 114.988 156.571 115.007 156.426 115.06C155.846 115.06 155.908 115.251 155.82 115.397C155.939 115.485 156.856 115.733 156.945 115.823C159.567 116.769 160.147 117.621 161.336 118.353C163.074 119.514 163.196 120.67 164.141 120.883C164.347 120.913 162.069 117.745 160.061 116.648C159.466 116.384 158.992 115.911 158.312 115.701C157.197 115.335 157.02 115.036 156.756 115ZM136.949 118.88C136.177 118.94 134.889 119.218 134.562 119.485C134.27 119.22 131.057 118.637 129.361 121.795C129.161 122.304 128.328 123.303 127.957 123.596C128.749 123.252 129.367 122.204 129.455 122.233C129.513 122.087 129.997 121.503 130.66 121.054C132.355 120.063 132.522 119.938 134.854 120.094C135.808 119.38 136.913 118.878 137.496 118.902C137.406 118.864 137.208 118.86 136.949 118.88ZM154.547 121.677C152.725 121.742 150.667 121.445 149.209 122.242L149.705 122.473C151.463 122.705 152.89 123.799 154.384 124.627H154.712C153.556 123.601 152.193 123.103 150.967 122.242C152.127 121.944 153.357 121.842 154.547 121.677ZM134.064 128.201C134.028 128.186 133.981 128.187 133.923 128.211C133.791 128.609 133.616 129.413 133.946 129.58C134.279 129.314 134.123 128.873 134.255 128.509C134.205 128.435 134.174 128.247 134.064 128.201ZM135.681 129.073V131.294C136.112 130.863 136.374 130.366 136.476 129.8C136.374 129.469 136.078 129.073 135.681 129.073ZM137.008 130.899V133.118C137.438 132.687 137.702 132.191 137.801 131.628C137.702 131.294 137.405 130.899 137.008 130.899ZM138.318 132.243C138.318 132.243 138.84 134.937 138.426 136.006C139.23 135.849 139.545 135.128 139.645 134.565C139.545 134.233 138.717 132.243 138.318 132.243ZM159.788 135.04C159.259 135.24 158.659 135.837 158.463 136.402C158.958 138.324 158.295 140.514 157.499 142.303C159.788 140.913 160.88 138.358 160.913 135.674C160.584 135.339 160.251 135.075 159.788 135.04ZM157.398 135.042C156.866 135.739 157.366 136.6 157.567 137.261C157.763 136.631 157.962 135.54 157.398 135.042ZM155.345 135.208C154.482 135.674 155.409 136.997 155.345 137.261C155.674 136.834 155.675 136.271 155.675 135.674L155.345 135.208ZM153.121 135.77L152.229 136.169C152.295 136.731 152.625 137.132 152.725 137.66C152.957 137.062 153.222 136.333 153.121 135.77ZM147.452 136.799C147.352 137.365 147.718 137.693 147.85 138.158C148.215 137.793 148.378 137.365 148.414 136.867L147.452 136.799ZM150.404 136.799L149.539 136.966C149.539 137.329 149.839 137.56 149.839 137.927C150.038 137.53 150.304 137.197 150.404 136.799ZM145.858 136.948C145.096 136.976 144.252 137.106 143.408 137.03C143.641 139.251 144.335 141.608 143.735 143.896C145.528 141.94 146.455 139.616 146.589 136.966C146.357 136.941 146.112 136.939 145.858 136.948ZM130.275 150.164C129.942 150.164 130.077 150.695 130.041 150.659L130.275 150.164ZM131.238 151.852C130.74 152.187 130.641 152.815 130.839 153.347H131.006L131.238 151.852ZM137.67 152.552C137.304 153.445 136.84 154.306 136.242 155.103C135.977 155.933 134.388 156.726 135.515 157.654C136.177 157.524 136.808 157.324 137.369 156.925C138.066 155.735 138.068 153.843 137.67 152.552ZM146.658 152.881C146.557 154.24 146.059 155.433 145.329 156.528C145.857 156.596 146.622 156.796 147.053 156.365C147.284 155.17 147.055 153.942 146.658 152.881ZM132.332 153.444C131.9 153.875 132.098 154.507 132.263 155.037C132.263 154.574 132.398 153.875 132.332 153.444ZM144.135 154.372C143.937 154.372 143.87 154.638 143.972 154.706H144.036C144.17 154.638 144.103 154.472 144.135 154.372ZM133.924 154.473C133.791 155.17 133.161 156.164 133.858 156.759C134.487 156.164 134.022 155.17 133.924 154.473ZM145.164 154.77C145.132 155.037 144.866 155.269 145.063 155.501C145.165 155.501 145.263 155.534 145.329 155.434C145.495 155.202 145.329 154.872 145.164 154.77ZM142.943 155.336C142.445 155.533 142.48 156.264 142.048 156.629C142.377 156.596 142.742 156.661 143.01 156.528C142.975 156.131 143.077 155.699 142.943 155.336ZM144.204 155.338L143.868 156.293C144.036 156.497 144.271 156.564 144.534 156.528C144.435 156.13 144.434 155.636 144.204 155.338ZM141.582 155.501C141.087 155.798 140.755 156.294 140.687 156.863H140.855C141.418 156.661 141.684 156.098 141.582 155.501ZM139.595 155.735C139.065 155.866 138.929 156.464 138.469 156.759C138.696 156.829 138.864 156.994 139.097 156.925C139.66 156.759 139.595 156.231 139.595 155.735ZM142.59 160.002C141.221 159.98 137.811 160.234 135.378 162.626C135.673 162.99 135.032 163.876 135.795 164.041C136.756 163.215 137.883 162.583 139.108 162.252C141.643 161.498 141.905 161.98 142.692 162.218C142.891 162.384 143.476 162.61 143.642 162.842C143.772 162.842 143.262 161.282 143.029 161.15C145.081 160.407 143.153 160.134 142.59 160.002Z" fill="white"/>
</svg>
