<svg width="200" height="200" viewBox="0 0 200 200" fill="none" xmlns="http://www.w3.org/2000/svg">
<path d="M20.2207 59.8938C26.4622 53.8515 32.8365 47.6764 39.6093 41.1693H51.6939V17H129.646C135.755 22.9759 141.93 29.0182 148.238 35.1934V41.1693H161.916C167.959 47.3444 173.935 53.3867 179.778 59.3626V93.8902H147.043C145.449 95.5502 144.055 96.9445 142.395 98.6709C144.852 100.862 147.441 103.053 150.629 105.842H179.778V141.764C174.466 147.275 169.021 152.919 163.51 158.696H148.371V164.074C141.93 170.249 135.556 176.424 128.717 182.998H51.8931V158.762H39.0781C32.7701 152.587 26.5286 146.478 20.2871 140.436C20.2207 113.611 20.2207 86.9183 20.2207 59.8938Z" fill="#FDB913"/>
<path d="M57.7349 176.89H126.259C131.77 171.511 136.949 166.531 142.195 161.485V152.588H160.853C165.235 148.006 169.551 143.491 173.734 139.175V111.885H146.444V124.966H142.195V105.909C139.671 103.651 136.683 100.996 133.563 98.2068C136.683 95.2188 139.539 92.4964 142.327 89.8405V74.5687H146.643V87.5829H173.867V61.6208C169.02 56.9729 164.106 52.1922 158.794 47.013H142.261V38.514C136.883 32.8036 132.168 27.6909 127.653 22.9102H57.7349V47.0794H42.1975C36.5536 52.4578 31.3745 57.4377 26.3281 62.2184V136.519C31.7065 142.296 36.4872 147.475 41.2015 152.521H57.8677C57.7349 160.821 57.7349 168.789 57.7349 176.89Z" fill="white"/>
<path d="M60.7229 25.8281V124.962H82.2362V110.82H117.626V152.518H60.7887V173.965H125.196C130.109 169.251 134.757 164.868 139.206 160.486V106.836C136.351 104.313 132.965 101.325 129.446 98.2038C132.965 94.7511 136.152 91.6959 139.14 88.7745V74.5664H117.694V88.8422H82.3026V47.1429H139.14V39.4406C134.559 34.5271 130.31 30.0119 126.392 25.8288H60.7236L60.7229 25.8281ZM57.6688 50.1959C52.5561 50.1959 47.5762 50.1957 43.061 50.2621C38.2139 54.9764 33.6323 59.3594 29.1836 63.6754V135.785C33.8315 140.831 38.0817 145.347 41.9993 149.597H114.706V128.083H50.6976V71.6439H57.6695V50.1963L57.6688 50.1959ZM85.1581 50.2621V71.6433H149.432V84.8567H170.879V62.7451C166.696 58.6948 162.38 54.5774 157.932 50.2614L85.1581 50.2621ZM149.3 114.869V128.149H142.194V149.597H159.658C163.376 145.745 167.094 141.828 170.746 138.043V114.87H149.3V114.869Z" fill="#860038"/>
<path d="M53.6855 74.6367H57.6695V125.1H53.6855V74.6367ZM114.706 125.1H85.2915V113.746H114.706V125.1ZM85.2251 86.0574V74.7031H114.706V86.0574H85.2251Z" fill="#FDB913"/>
</svg>
