<svg width="200" height="200" viewBox="0 0 200 200" fill="none" xmlns="http://www.w3.org/2000/svg">
<g clip-path="url(#clip0_154_2443)">
<path fill-rule="evenodd" clip-rule="evenodd" d="M122.38 24.7792C121.513 24.7559 120.594 24.7541 119.61 24.7846C111.209 25.7807 105.198 27.2821 100.09 31.7916C97.6557 31.4548 95.5828 31.1914 92.5764 30.8904H89.2691C85.3329 31.0015 84.2759 30.5608 79.3453 31.2559C71.2401 32.3936 66.3866 35.2064 61.3253 38.3507C57.3747 40.816 55.5652 43.1433 52.7828 46.8913C34.2754 77.4743 2.56918 97.4275 0 143.429L0.0125413 152.301C0.494486 157.893 1.88836 166.955 3.54382 169.988C8.92584 173.543 17.2443 171.91 22.1354 173C23.764 173.363 24.9859 174.809 26.6575 175.012C30.4432 175.47 33.7236 173.053 36.7049 174.51C39.2525 174.478 39.6807 175.741 43.7387 175.012C48.0995 173.122 52.9029 173.037 58.3118 174.007C63.1187 174.293 67.0083 173.661 71.3744 173.507C76.5863 171.934 81.5096 171.452 83.9337 167.976C90.8332 158.092 76.2423 149.727 76.8998 139.844C76.0667 138.149 76.0667 132.993 76.8998 131.298C77.4014 123.759 80.9506 119.274 84.937 115.222C92.6427 120.582 100.976 125.316 107.551 131.803C110.715 134.777 111.82 134.564 113.578 136.325C124.362 143.296 135.097 150.309 149.752 153.41C152.529 153.666 154.493 153.122 156.788 152.905C163.499 150.499 169.204 145.024 166.835 135.32C166 134.313 165.015 133.459 164.827 131.801C164.236 125.361 159.988 122.575 157.291 118.237C155.822 116.729 152.836 114.491 153.271 112.708C154.574 111.465 155.733 113.197 157.793 112.708C177.983 108.659 189.675 120.74 197.992 131.801C197.037 128.229 195.648 126.169 193.466 122.759C191.579 120.353 191.191 119.966 188.948 117.734C185.07 114.07 177.816 113.183 173.162 109.304C173.162 109.304 187.509 110.273 191.961 109.191C194.457 108.586 198.54 108.071 200 105.674C193.925 108.854 186.344 107.754 177.891 106.679H172.864C167.228 107.075 163.858 108.141 157.291 109.191C155.161 109.682 150.741 111.142 149.249 109.191C140.251 102.446 129.901 97.0584 124.634 86.5846C134.28 74.1239 150.08 67.8156 165.834 61.459C165.411 64.7269 166.663 66.325 167.842 67.993C168.951 68.0521 167.941 71.329 168.233 72.2123C168.394 75.2096 168.394 75.2168 168.233 76.8597C167.919 78.2214 167.733 79.6457 167.842 80.554C166.38 89.1466 163.818 95.2883 161.812 102.661C163.653 102.99 163.858 102.132 165.796 101.165C168.047 99.5613 169.302 97.9256 171.361 96.1286C175.372 90.2789 177.904 82.6036 179.396 75.0269C179.805 72.9558 179.71 69.5069 181.91 67.993C185.119 68.7992 184.245 73.6957 184.424 77.5352C184.795 82.5535 184.698 85.859 184.214 90.4993C184.261 93.3211 184.015 93.9894 183.435 98.0599L182.915 100.144C185.629 99.3445 186.733 97.4777 188.442 95.1235C191.119 90.7645 193.321 86.6222 194.743 78.7714L194.455 70.856C194.455 68.1507 195.34 65.3522 195.474 62.4641C195.614 59.5473 192.907 55.1417 194.469 53.4218C194.835 50.935 197.798 51.0515 198.991 49.3996L199.332 47.0795C196.385 40.5598 195.637 31.2416 188.442 29.8047C182.08 28.5362 174.876 29.8047 174.876 29.8047C169.671 31.2487 167.993 30.2168 162.815 29.303C160.113 28.9232 159.723 28.9232 157.293 28.8014C153.434 28.4699 149.709 28.083 145.23 28.2979C144.539 28.3212 142.294 27.8984 141.889 27.6315C137.516 26.311 134.95 25.7789 129.156 25.2827C127.128 25.1107 124.983 24.8455 122.38 24.7738V24.7792Z" fill="black"/>
<path fill-rule="evenodd" clip-rule="evenodd" d="M144.705 29.3048C140.163 29.2869 137.78 31.4243 132.647 30.8115C133.109 33.8806 138.497 31.7127 140.684 31.8131C142.621 32.0424 147.313 30.3511 144.705 29.3048ZM108.822 29.4445C105.001 29.6792 101.829 32.897 101.494 35.3336C98.0599 34.7495 95.084 33.705 91.4488 33.3216H91.4416C88.7488 32.4867 82.5874 32.4867 79.8964 33.3216H79.8911C71.2662 34.0759 65.6405 37.8293 60.2997 41.8658C58.4149 43.3314 56.7398 45.0047 55.2742 46.8877C49.2669 54.7798 40.3967 65.9774 36.3548 74.1597C37.2828 72.739 42.1775 71.8073 44.7252 72.0062C44.564 73.1887 43.9279 73.8928 44.22 75.5267C45.2734 76.1448 46.1818 76.917 47.2335 77.5315C48.6076 77.9006 48.2493 76.5354 49.2455 76.5282V76.0248C45.2394 75.2849 46.2678 70.6732 47.7369 67.9894C47.6921 67.1957 46.4559 67.5952 46.7336 66.4826H48.4966C48.8835 66.8463 49.3458 67.1384 49.7489 67.4859H50.7504C50.926 67.1832 51.0586 66.8374 51.1804 66.4826H53.4486C53.5202 66.8087 53.6242 67.1402 53.7675 67.4859C55.1667 67.9267 56.8258 68.113 57.7879 68.9909C56.9046 69.4496 56.8688 70.7556 56.2793 71.5063H55.7759C55.6684 74.4625 57.6123 75.3619 59.7927 76.0248H59.7963C61.0773 75.9675 62.3816 75.9298 62.3081 74.5198C61.2045 72.9432 58.3128 73.1582 58.2913 70.4994C58.8772 69.7505 58.913 68.4463 59.7963 67.9894C59.8554 67.0094 59.1405 66.8015 58.5404 66.4826H65.3252C64.2395 67.9088 61.8423 68.0252 60.2997 68.9909C60.1815 71.1229 61.3389 71.9686 62.808 72.5078C62.4497 73.8731 65.1819 72.1495 64.82 73.5147C64.3165 73.5183 64.1911 74.3926 64.82 74.5198H65.3252C66.4091 76.2075 67.6292 73.8605 68.8386 74.02C69.1217 74.7402 69.6233 75.2436 70.3453 75.5267H70.8506C72.9844 77.7609 74.8512 73.4699 75.8743 74.5198C77.9884 74.622 80.0738 74.699 80.3945 73.0113C75.0214 74.4105 60.3642 72.8644 68.8386 66.9861C68.4193 68.0718 67.5361 68.6971 67.8335 70.4994C70.4242 72.4398 74.0468 71.105 75.3708 68.9909C75.2167 71.4902 76.6196 72.4308 79.3894 72.0062C80.5719 71.8539 80.3246 70.2647 81.903 70.4994C82.8436 72.1961 86.8157 71.569 87.4284 69.9978C89.4153 68.878 87.8763 66.9968 88.9351 65.4757C91.4559 67.984 97.5295 66.3769 98.4809 62.9639C97.1479 61.6041 94.344 64.9598 92.4521 62.9639C93.5575 61.0558 97.2715 61.751 98.4809 59.9504C99.0202 58.071 97.2321 58.5171 97.474 56.9333C98.4737 56.0411 101.831 55.0665 101.998 57.435H101.994C102.505 59.7874 99.9823 59.1083 100.491 61.4589C101.244 61.373 102.345 61.6363 102.503 60.9555C107.72 57.8703 103.884 52.7499 99.9894 52.9165C93.9875 53.1709 79.0508 74.1364 68.8386 63.9672C68.7042 61.8226 70.6768 61.785 71.354 60.4538C69.6179 60.0113 67.8711 59.5795 66.832 58.4419C66.7012 56.8043 67.4268 56.0232 68.8386 55.9264C68.835 56.9279 67.468 56.5732 67.8335 57.942C69.3044 57.8112 69.3814 59.0779 70.8506 58.9453H74.3675C73.3642 60.4539 72.4809 62.0842 70.8506 62.9639V63.9672C84.2411 64.9562 91.1639 55.1525 98.9861 48.8961C101.369 46.9307 103.551 44.7539 105.515 42.3675C110.015 38.0891 117.209 40.0993 124.608 40.3573C130.898 34.2282 141.768 42.1417 147.718 40.3573C142.979 39.0673 139.084 36.9317 134.152 35.8335C132.882 34.9251 128.261 34.9484 127.62 36.3369C125.355 37.4208 122.75 38.1608 119.084 37.8454H119.079C118.044 37.0141 113.59 37.0141 112.552 37.8454H112.549C108.994 37.6484 106.464 41.1295 104.511 40.8625C106.041 37.3689 110.155 36.4569 114.557 35.8335H114.561C116.985 36.2276 120.788 35.3909 119.084 33.3252V32.8217C119.084 32.82 119.079 32.8182 119.079 32.8182C118.207 30.4066 113.738 28.3051 112.549 31.8131C111.416 34.1995 109.13 35.4303 105.515 35.3336C105.37 34.7406 103.494 33.4327 105.015 32.8217C105.574 33.8143 109.168 34.6546 109.535 32.8217C110.676 32.2843 111.361 31.2953 111.545 29.8047C110.621 29.4947 109.704 29.3908 108.822 29.4445ZM159.394 31.7916C157.511 31.8346 155.465 32.7537 154.752 33.8215C153.478 34.393 153.294 36.0502 153.243 37.8454C154.193 37.7326 154.356 38.408 155.255 38.3453C157.939 38.5119 158.495 40.8034 159.276 42.8673C161.198 42.9515 160.904 40.8159 161.784 39.8538C164.126 37.2022 159.057 36.5465 158.269 36.8421V36.3369C159.009 35.0648 161.488 35.536 161.784 33.8215C161.784 33.318 162.194 33.2266 162.289 32.8217C161.6 32.0567 160.525 31.7665 159.394 31.7916ZM179.403 32.6175C177.307 32.8074 175.517 35.0487 174.849 37.342C172.865 37.9565 174.467 38.9007 175.352 39.3504C175.649 41.4914 174.99 42.6774 174.849 44.3795C175.307 49.3978 165.937 50.9959 166.31 44.8793C168.474 45.0603 168.212 47.6653 171.335 46.8877C172.304 46.1854 172.824 45.0262 173.344 43.8706C174.447 43.3708 173.928 37.6519 172.838 39.3504H172.335C171.255 38.5603 174.191 37.5534 174.35 36.3369V33.8215C168.254 29.5933 171.308 42.2564 164.801 40.8625C165.152 39.5367 167.085 39.8001 167.313 38.3453C169.221 37.7881 168.323 33.5563 166.81 33.3252C164.914 33.1012 164.454 34.3124 163.289 34.8301C165.641 45.0674 153.955 49.0198 147.718 53.9198C148.684 51.872 150.063 50.2345 150.735 47.891C151.69 48.1024 151.642 49.3261 153.243 48.8943C156.658 47.4395 159.287 40.7747 153.747 39.8538C152.48 40.5956 152.118 42.2403 149.73 41.8604C148.073 52.0924 141.578 57.4941 134.152 61.957C128.58 61.072 128.782 65.9649 124.106 65.9774C123.411 66.798 120.846 65.2411 120.086 66.9861C115.044 70.1465 108.227 71.5404 101.994 73.5147C100.62 74.7115 98.9592 74.5127 96.9741 74.02C96.0192 75.2383 95.1019 76.4996 95.4692 79.0401C96.4134 79.4593 98.076 80.8944 98.4791 79.0401C100.48 78.6943 99.6741 75.5464 101.994 75.5267C101.598 77.2646 102.557 77.6444 103.003 78.5402C108.879 78.5563 109.392 73.203 113.049 70.9993C113.186 73.0812 112.391 72.9593 113.049 74.5198C119.495 75.6056 117.533 68.2832 122.094 67.4859C122.51 69.2883 120.962 69.9154 122.094 70.9993C127.978 71.6962 127.046 65.5707 130.633 63.9654C130.569 65.2052 130.562 66.3913 131.14 66.9861C136.012 66.832 135.861 61.6578 139.176 59.9486C142.057 60.7674 137.673 63.1323 139.677 64.4689C143.45 62.5482 145.204 58.6067 147.215 54.9267C148.531 55.595 148.175 57.1519 147.718 58.4401C154.114 58.5709 154.204 52.2877 156.259 49.3942C156.99 50.5086 156.597 52.7463 157.767 53.4182C163.4 53.6941 162.997 47.9269 164.301 43.8689C166.48 47.6886 164.108 52.182 162.289 54.9267C167.596 55.8763 166.985 50.9117 170.33 49.903C171.14 50.7612 172.43 51.1464 174.35 50.9027C176.735 49.7633 176.397 43.2507 178.865 43.8689C178.579 45.6999 177.647 46.8698 178.364 48.3909C179.582 49.8134 181.409 47.7011 182.395 48.8943C181.66 50.514 179.922 51.1231 178.364 51.9078C176.538 49.6791 173.254 54.1975 169.827 51.9078C169.916 53.6726 168.125 53.5651 167.815 54.9267C176.207 53.1011 186.138 52.8072 192.444 48.8943C193.071 46.4488 189.506 46.5473 190.921 44.8775C191.584 44.8722 191.387 43.9978 191.924 43.8689C192.569 44.0785 192.964 44.5174 192.928 45.381C193.626 46.5384 193.806 48.1795 195.956 47.891C197.013 46.7587 196.314 44.5837 194.952 44.3777C193.68 43.4604 194.021 40.9431 191.924 40.8607C190.258 42.4803 187.481 45.2986 188.915 48.3909C187.893 49.224 184.993 50.797 183.398 49.3942C187.069 46.4327 185.888 41.5433 186.908 37.8454C189.076 37.6788 188.144 40.6278 190.419 40.3573C192.05 36.5393 188.52 33.4614 186.406 33.8215C183.076 34.3912 182.932 45.1534 177.36 41.357C179.922 39.732 182.449 38.0748 182.395 33.8215C181.374 32.8683 180.352 32.5315 179.403 32.6175ZM145.212 43.3708C143.287 49.4838 140.973 55.208 134.159 56.4299H129.135C122.236 55.294 119.437 50.0589 117.08 44.3795C115.234 61.8638 147.125 62.6074 145.212 43.3708ZM106.543 49.009C104.778 48.9947 103.01 49.7812 102.51 51.408C105.425 51.8415 106.685 53.927 107.027 56.9333C109.53 56.4209 109.936 53.8123 110.547 51.408C110.069 49.8349 108.31 49.0215 106.543 49.009ZM160.972 55.0306C160.148 54.9912 159.247 55.801 157.774 55.4302C157.66 55.8189 157.758 56.4227 157.271 56.4335C156.906 57.8076 158.267 57.4439 158.273 58.4419C160.07 58.0638 161.467 57.2827 161.791 55.4302C161.517 55.1525 161.248 55.0432 160.972 55.0306ZM155.612 56.3958C155.53 56.3905 155.433 56.4102 155.322 56.4514H155.318C155.297 56.446 155.282 56.437 155.259 56.4335C155.241 56.4603 155.221 56.4854 155.203 56.5105H155.2C153.922 57.0946 151.266 59.9182 149.748 59.9504H149.734C149.383 60.9394 146.932 59.8268 146.72 60.9555C149.59 63.8131 154.637 61.1795 155.766 57.942C156.047 56.8419 155.951 56.4155 155.616 56.3958H155.612ZM144.712 62.4623C143.897 64.3273 140.885 63.9959 140.691 66.4826C142.705 66.1279 147.267 64.1822 144.712 62.4623ZM137.674 65.4757C136.2 65.5116 135.807 66.6242 135.162 67.4859H135.159C134.568 68.4248 131.262 69.2399 132.651 70.4994C133.319 69.4926 134.885 69.3797 136.171 68.9909C137.307 68.448 138.993 66.9377 137.674 65.4757ZM129.135 68.491C128.243 70.4457 125.414 70.4618 125.119 73.0113C127.498 73.0794 132.029 70.3991 129.135 68.491ZM49.8653 68.8153C49.5339 68.8332 49.1648 68.8888 48.7492 68.9909C48.4446 70.1949 48.0272 71.2824 48.2439 73.0113C49.8188 73.6187 50.7361 74.8746 53.2694 74.5198C53.669 73.0758 54.2889 71.8539 54.778 70.4994C52.6782 70.4063 52.1927 68.6917 49.8689 68.8153H49.8653ZM121.917 72.696C120.942 72.6404 120.027 74.0916 118.585 74.02L118.581 74.0218C117.287 74.733 115.745 75.1971 115.573 77.0317C116.82 77.1069 117.657 76.7683 118.081 76.0248C119.378 74.8101 122.859 75.7758 122.605 73.0113C122.367 72.8017 122.141 72.7085 121.917 72.696ZM53.7729 75.5267C52.7051 76.8006 49.6289 76.0678 49.7561 78.5402C50.0588 81.9998 54.5755 80.1401 55.7831 80.5486C55.3889 82.8347 51.8988 82.0231 52.7696 85.5705C53.3035 85.9324 55.0843 87.5359 55.7831 86.074C54.5916 85.0115 56.6717 82.9745 58.2985 83.0605C58.2465 81.6397 56.1091 79.737 58.2985 79.0401C58.6425 78.7498 59.214 78.9165 59.8303 78.8824C59.8214 78.9415 59.8106 78.9792 59.8034 79.0401C58.4024 85.5365 66.0419 81.6361 68.3441 79.5453C66.6403 78.0654 65.2123 76.3115 61.8118 76.5282C61.1919 76.3849 60.7817 76.5103 60.4861 76.8597C59.0796 76.8955 57.3041 76.96 55.7831 76.5282C54.4143 76.8937 54.7708 75.5303 53.7729 75.5267ZM93.4643 76.0248C90.8289 76.7396 87.5592 76.8203 87.939 80.5486C90.8647 82.5964 95.5193 77.2861 93.4643 76.0248ZM113.056 76.0248C110.875 76.0194 109.444 76.7719 109.039 78.5402C110.712 78.0421 113.502 78.6495 113.056 76.0248ZM87.4338 76.5282C85.1118 77.82 82.2435 79.4754 79.3966 77.5315C77.7411 80.6239 72.7121 79.5614 70.3561 79.5453H70.3525C70.3579 80.5415 71.7267 80.1867 71.3612 81.5537C70.6087 80.7564 69.3044 81.1829 68.8457 82.0572C67.2691 81.8189 66.7943 82.6806 66.3357 83.5621C66.7728 84.827 70.4582 85.4397 69.3492 86.5774C65.1013 87.2188 60.0829 80.4572 58.7984 87.0826C61.2188 88.8492 65.0171 87.6918 68.3441 87.5825C66.2586 91.5044 59.0026 89.8883 55.2814 88.5894C55.2939 89.7754 54.4161 90.0675 54.778 91.6029C56.3689 93.1311 58.4902 92.3876 60.3069 91.6029C60.0686 95.6914 65.0833 94.5268 67.8406 95.6233C65.3879 97.4704 62.1755 96.0819 59.8034 95.1198C59.5401 95.8634 59.0599 96.3865 58.7984 97.1318C60.2155 99.0578 63.5533 99.4502 64.8271 97.6317C66.3572 99.7297 70.1339 101.93 72.3645 99.1402C72.635 97.3612 70.5854 97.904 70.8577 96.1267C71.7428 95.6717 72.4129 94.9998 72.8661 94.1112C72.3627 94.1147 72.2695 93.708 71.8646 93.6113H71.861C69.0267 92.5292 68.8457 89.1538 71.3612 87.5825C73.2101 86.2693 75.5571 83.8577 78.8931 85.5705C79.6653 86.9537 81.835 85.5526 81.9066 84.569C81.3136 83.9921 80.1311 84.0047 78.8931 84.0692C76.3885 83.8147 77.4795 80.081 79.3966 80.0488V82.5606C83.3847 83.632 86.0202 79.6367 87.4338 76.5282ZM38.7018 77.5315C35.2493 77.9329 34.934 81.7418 38.7018 82.0572C38.4743 83.4528 41.4412 81.663 41.2154 83.0605C39.8502 85.8859 33.7838 84.0047 34.1815 88.5894C36.9747 89.5103 39.5259 88.1684 41.2154 86.5774C42.6308 87.8674 39.259 88.6163 39.7069 90.5978C39.9326 92.384 41.4035 92.9197 41.7153 94.62C40.1422 96.0586 38.9992 97.9291 39.207 101.149C40.0527 101.976 41.4645 102.236 42.2187 103.157C41.4931 105.11 40.2712 106.57 40.7102 109.687C44.0516 113.301 47.4341 108.555 48.2475 105.169C44.9348 104.777 44.5908 100.235 46.2391 97.6317C40.2014 96.1285 44.1393 88.3099 48.2475 87.0826C47.4144 89.5963 44.9456 90.476 44.7324 93.6113C45.2878 96.1876 49.4855 95.9816 51.2646 94.62C52.6244 95.0715 50.1108 95.7433 50.2577 96.6284C48.6542 97.5331 47.2711 98.6654 47.2406 101.149C47.9501 101.279 47.8175 102.252 48.2475 102.661C51.6731 102.899 53.9413 101.987 54.778 99.6401C53.4772 98.5472 52.1855 96.6678 53.2694 94.62V94.1112C51.5531 94.491 52.6298 92.0723 50.7576 92.608C50.0714 91.9648 50.0714 90.2359 50.7576 89.5945C52.3808 87.7187 49.086 87.5485 49.2526 85.5705C49.8331 84.9381 51.0192 82.9118 49.2526 84.0692C48.2601 84.8825 45.5977 85.6852 44.2307 84.569C43.2686 83.8542 42.4301 83.0193 41.7153 82.0572V80.0488C41.7439 79.4056 42.3585 79.3482 42.2187 78.5366C40.1369 79.1153 40.2605 77.485 38.7018 77.5315ZM47.0651 78.5259C46.9701 78.5169 46.8644 78.5223 46.7408 78.5402C45.415 78.3897 45.0889 79.2336 45.2322 80.5486C45.9202 82.2059 48.0684 82.4047 49.7561 83.0605C50.3975 83.0909 50.4512 83.7019 51.2646 83.5621C51.6265 82.1915 50.2631 82.5499 50.2577 81.5537C48.9785 81.491 48.3066 80.8209 48.2439 79.5453C47.7996 79.2569 47.7369 78.5886 47.0651 78.5259ZM101.109 79.135C100.43 79.1404 99.5971 79.7926 99.4931 80.5486H102.001C102.071 79.5167 101.638 79.1315 101.109 79.135ZM93.9015 80.0667C92.6151 80.1939 92.0149 81.8243 90.4509 82.0572C89.4458 83.3937 85.1853 81.4785 84.9255 83.5621H84.4221C84.216 87.4983 80.167 88.1164 76.3831 87.0826C74.9964 88.6163 78.1496 88.6575 77.8898 90.5978C79.1063 91.0582 79.2174 92.617 79.3966 94.1112C78.1854 93.1491 77.4025 91.7552 76.3831 90.5978H75.8814C75.4658 88.7686 71.4436 89.5372 70.8577 90.5978C70.7717 91.8573 71.6281 92.169 72.3645 92.608C74.2152 93.769 77.0675 93.9374 77.39 96.6284C75.7381 96.6069 74.8871 95.7792 72.8661 96.1267C72.2516 98.4146 74.6309 97.7141 74.8781 99.1402C72.085 98.5275 72.8213 101.442 71.861 102.661C70.7484 101.604 68.5143 102.259 67.8406 103.157C72.1352 106.373 77.2646 108.514 81.9084 111.198C86.8013 114.023 91.6889 116.483 95.9762 119.735C97.4184 120.973 99.5487 121.526 100.498 123.252C102.333 123.596 102.946 125.162 104.519 125.767C105.241 126.049 105.741 126.547 106.022 127.272C114.786 133.082 122.766 139.674 132.654 144.359C134.433 145.427 136.685 146.021 138.183 147.372C147.689 151.622 161.693 151.145 164.812 141.34C161.877 141.894 160.532 145.215 156.266 145.36C145.534 145.737 134.772 133.075 125.618 130.289C125.416 130.072 125.201 129.868 124.975 129.677C125.201 129.868 125.416 130.069 125.618 130.286C124.411 128.146 122.014 127.197 120.093 125.767C115.879 123.284 111.692 120.772 108.037 117.728C106.301 115.947 105.137 113.59 103.01 112.199C98.0831 106.871 78.0421 100.145 85.4254 87.5825C86.237 86.2048 87.9175 85.601 89.9474 84.569H89.951V84.5654C91.4649 83.2217 96.4044 82.6663 95.4763 80.5486C94.8349 80.1491 94.3297 80.0237 93.9015 80.0667ZM30.661 83.5621C29.3603 85.8948 24.849 88.8456 27.6475 92.1028C32.0997 91.284 30.7219 87.3496 32.6694 84.569C31.3006 84.9363 31.6607 83.5693 30.661 83.5621ZM34.1457 90.0603C33.1299 90.0478 32.2125 90.132 31.6715 90.5978C31.598 91.843 31.5765 93.0398 32.673 93.1114C33.1424 95.3241 36.568 94.577 38.2019 95.6269C33.9146 96.5298 33.0098 100.815 28.6562 101.656C28.5917 102.894 28.5791 104.074 29.156 104.673C32.234 105.23 32.0065 102.492 33.6817 101.656C33.9934 103.184 36.3852 102.636 36.697 104.166C31.7521 103.132 29.9049 109.213 32.1767 112.203C34.6008 112.765 35.6059 109.302 37.2004 110.694C36.6056 113.077 31.6625 113.366 33.1764 116.223C35.1168 116.467 35.4124 112.464 36.697 113.715C35.7026 116.666 33.9612 122.18 36.1935 125.267C38.7896 125.017 38.3614 121.734 40.7138 121.243C40.5704 123.583 39.1658 124.042 40.7138 125.767C43.9638 126.004 44.7592 123.786 45.7393 121.747H42.2223C40.6493 120.561 40.2229 116.967 41.219 114.715C37.8974 113.534 37.5784 108.51 39.7105 105.672C40.2945 105.588 40.2551 104.875 40.2103 104.166C38.5943 103.775 37.462 102.899 36.697 101.656C36.8833 98.8267 37.6125 96.5406 39.7105 95.6269C38.0658 93.9463 38.3112 91.1532 37.2004 90.0979C36.2759 90.1786 35.1615 90.0711 34.1457 90.0603ZM29.6595 93.1114C28.2799 94.0771 27.3232 95.4638 27.6511 98.1351C29.0181 99.1366 32.3075 98.7013 32.1767 96.632C32.5422 96.2289 30.9566 93.5145 29.6595 93.1114ZM23.6325 93.6149C19.3004 95.9529 18.8417 105.938 23.1326 108.69C21.6886 113.751 23.9514 117.83 26.6478 120.238C26.0906 121.188 26.0064 122.612 25.6427 123.759C28.5093 127.091 28.1975 133.598 30.6646 137.323C26.6317 140.991 25.2503 147.315 18.6088 148.379C17.0286 149.979 17.2364 153.371 14.0868 153.405C11.2596 153.415 11.2112 156.214 9.57189 157.414C9.57009 157.416 9.5683 157.42 9.56472 157.422C7.21591 158.509 9.79763 161.361 9.56472 163.45C13.4059 163.495 15.0686 160.216 15.0901 157.923C20.4506 158.04 20.447 154.467 19.6157 151.893C20.6674 152.183 21.0472 153.143 22.6292 152.901C25.055 152.145 25.2037 149.114 26.6478 147.376C27.8518 147.177 26.3701 149.662 28.1563 148.881C28.5756 145.781 31.8954 145.588 33.1764 143.352C32.7303 143.207 30.9799 141.994 32.1767 141.843C34.6276 143.146 36.7382 141.508 37.7021 139.839C37.8526 136.332 37.8239 133.014 35.1848 132.298C33.9845 132.962 32.9794 136.426 31.168 134.81C33.8519 132.738 34.2227 127.953 32.673 124.262C30.971 124.741 29.9802 128.347 28.1563 125.771C31.2576 124.123 30.962 118.139 29.6595 114.718C27.7425 114.978 28.4287 117.838 25.6427 117.228C24.9081 116.793 24.0499 116.476 24.1359 115.224C27.7102 115.713 27.4218 108.697 26.6478 104.673C24.7809 104.477 25.3363 106.701 23.1326 106.174C22.3963 105.739 21.5399 105.425 21.6241 104.166C26.3988 103.99 27.592 95.6 23.6325 93.6149ZM89.3311 96.7717C89.0355 96.7968 88.7381 96.9115 88.446 97.1354C88.8312 100.095 91.3449 100.926 92.9663 102.661C95.9637 104.013 98.7514 105.583 101.005 107.683C101.602 108.174 102.188 108.679 102.757 109.197C102.188 108.679 101.602 108.177 101.005 107.686C102.972 110.069 105.151 112.246 107.538 114.211V114.215C114.989 119.029 121.114 124.769 131.651 131.293C137.999 135.223 159.145 150.778 162.804 136.822C159.15 137.547 156.812 140.946 151.746 140.338C147.344 139.808 144.063 136.153 141.195 134.31C139.624 133.706 137.846 133.306 136.175 132.808C135.725 131.911 134.77 131.522 135.166 129.784C132.815 129.63 131.217 128.714 129.139 128.281C126.59 123.63 120.398 122.618 118.085 117.732C116.44 117.703 116.164 116.302 114.068 116.723C114.014 111.502 105.576 112.835 106.531 108.186C99.8694 107.145 97.4399 101.869 92.4628 99.1402C91.8734 98.1566 90.6157 96.6571 89.3311 96.7717ZM57.2934 100.145C53.8374 101.213 53.187 105.083 49.2526 105.672C48.9033 107.518 48.3855 109.489 49.2526 111.198C51.5226 112.416 53.3859 110.807 55.2814 110.195C54.9338 108.657 51.2198 105.492 54.7815 104.673C54.3444 106.615 56.007 106.454 56.2865 107.683C57.7341 107.622 59.5759 107.957 60.3069 107.177C59.0832 105.058 57.8792 102.913 57.2934 100.145ZM68.4175 107.588C68.2921 107.575 68.1631 107.575 68.0288 107.591C67.1401 107.692 66.1458 108.344 65.8322 108.69C65.8932 109.963 66.5668 110.633 67.8442 110.694C69.4226 110.458 69.8974 111.325 70.3561 112.203C67.1545 113.023 62.7668 112.654 60.3069 114.211C59.9074 116.788 63.2183 115.659 64.3273 116.723C63.4566 120.806 56.8598 116.067 55.7849 119.742C56.3797 122.163 61.054 120.503 61.3138 123.255C59.6727 125.47 53.1798 122.824 53.273 126.772C55.0431 128.519 59.2463 127.835 59.3018 131.296C58.6299 132.013 56.4567 132.013 55.7849 131.296C55.5089 131.271 55.2366 131.253 54.9768 131.244C55.2366 131.251 55.5089 131.268 55.7849 131.293C54.1437 129.85 51.1679 131.343 50.2577 132.298C50.2649 133.632 49.9782 135.257 51.2646 135.313C52.2661 137.323 57.5944 135.01 57.7951 137.827C56.0357 139.419 52.6101 139.342 49.2526 139.335C46.6261 141.249 50.0588 144.561 53.273 143.852H53.7765C54.3677 143.934 55.2008 143.768 55.2814 144.359C56.1862 144.296 56.4585 144.857 56.2865 145.864C54.7332 147.494 50.8095 146.747 48.7528 147.876C48.6238 147.974 48.5073 148.078 48.4088 148.18V148.177C48.5073 148.075 48.6238 147.974 48.7528 147.876H48.2475C48.1436 148.44 47.6921 148.661 47.2406 148.881C47.2084 151.092 48.4446 152.032 49.7561 152.901C51.9472 154.727 57.2898 153.405 58.2985 156.418C55.7096 157.878 51.571 154.388 49.2526 156.918C49.6808 162.778 58.8593 161.112 62.8187 161.947C60.9322 164.24 55.9945 163.493 52.7731 164.455C49.6271 165.71 52.6441 169.065 54.7815 169.481C60.9483 172.043 70.3489 170.819 76.8865 169.481C79.3357 168.08 81.6719 166.561 82.9171 163.956C83.8649 161.381 83.1124 159.154 81.9084 157.422C76.392 156.646 72.4272 162.605 67.8442 159.43C71.707 157.094 78.9702 158.167 79.4002 152.398C74.9964 150.486 68.4749 156.085 65.3324 152.398C66.1404 150.694 68.8368 150.88 71.3612 150.886V150.889C73.4699 150.153 75.8241 149.655 75.885 146.869C75.3798 146.869 75.283 146.464 74.8781 146.371H71.8646H63.324C62.043 146.312 60.7369 146.276 60.8103 144.86C61.5413 144.085 63.3831 144.418 64.8271 144.359C66.6868 144.04 69.8347 145.009 70.8577 143.855C70.6248 143.897 70.374 143.915 70.1088 143.922C70.374 143.915 70.6248 143.893 70.8577 143.852H71.3612C75.3511 144.431 74.8853 139.489 71.3612 139.839C68.0503 139.631 63.6716 140.493 61.8154 138.83C59.5078 137.137 64.4814 135.859 65.3324 137.323C68.3692 136.848 73.753 138.71 73.873 135.313C73.1313 131.199 64.5781 134.897 63.324 131.296L63.3258 131.293C66.7513 130.872 72.0169 132.285 73.873 130.289C74.5055 130.081 74.8996 129.643 74.8781 128.781C73.4986 125.975 66.8445 128.44 65.8322 125.267C68.5053 123.392 74.5825 127.851 75.885 124.262C76.4117 121.213 69.3581 121.415 68.3477 118.239C70.4761 118.117 71.9058 118.698 73.3732 119.24C74.4481 120.534 78.4094 120.72 79.4002 119.24C79.3661 117.766 78.2517 117.374 77.39 116.723C75.2669 116.338 73.2406 115.852 72.3681 114.211C75.1504 113.943 76.7145 114.889 78.3951 115.72H78.3987V115.723C78.3987 116.227 78.8018 116.32 78.8967 116.723C81.0216 116.677 81.8977 115.379 82.4137 113.715C81.9102 113.715 81.8135 113.307 81.405 113.212C77.1517 111.775 74.0414 109.193 69.3528 108.186C69.1342 107.797 68.7974 107.625 68.4175 107.588ZM61.3102 107.683C59.3538 109.408 56.5445 110.288 55.2814 112.71C58.2573 112.327 61.5073 109.564 61.3102 107.683ZM46.2391 111.703V111.707C45.9023 114.05 42.9139 113.731 42.7222 116.223C42.8243 117.796 44.0175 118.28 44.7324 119.24C48.0791 119.894 50.0158 116.506 51.7645 117.228C50.0033 120.156 46.8716 121.709 46.2391 125.767C47.0185 126.332 47.2854 127.403 48.7528 127.276C48.7528 127.781 48.3443 127.878 48.2475 128.281H47.2406C46.3735 127.647 45.9274 126.586 44.2307 126.776C43.2382 128.189 41.4734 131.959 44.2307 132.808C51.7609 133.846 36.9209 136.044 41.2154 128.281C39.2661 128.222 38.6785 126.801 37.7021 125.771C34.4001 130.952 40.7263 133.529 40.2103 137.827C40.7353 138.979 43.8007 137.588 44.2307 138.83C42.0754 140.89 36.2849 141.333 38.7054 146.371C40.2945 147.745 42.6613 145.359 43.2274 147.372C42.5556 147.874 42.2366 148.73 41.2154 148.881C37.4548 149.293 37.0875 146.308 34.6814 145.364C33.92 146.948 33.0098 148.379 32.673 150.386C33.5437 151.696 34.4825 152.935 36.6934 152.901C38.5083 152.538 38.1303 149.983 40.2103 149.888C37.4566 154.661 37.5211 162.959 44.2307 161.442C40.97 167.091 33.8017 159.742 36.1899 154.913C31.22 155.861 30.5786 152.484 29.6595 149.384C24.1359 154.571 18.6697 159.831 14.0832 165.964C14.7801 167.983 18.4278 169.613 19.6121 166.967C21.6922 165.869 19.4759 160.471 22.6292 160.439C22.1598 164.255 23.0932 166.67 26.1408 166.967C27.1279 166.116 28.2853 165.428 28.6526 163.956C25.8792 162.843 24.6645 157.85 26.6442 154.913C27.3877 155.005 27.1047 156.126 27.1476 156.918C27.5615 159.184 28.3337 161.091 30.6646 161.442C32.3075 161.071 32.3433 159.102 34.1815 158.93C32.0979 161.954 31.9313 168.286 36.6934 168.472C38.9652 168.882 39.6693 165.12 41.2154 166.464C40.9109 168.338 38.9042 168.51 38.7018 170.484C41.5415 171.572 45.5028 170.545 46.7408 168.472C48.6076 167.102 45.7894 164.801 47.7441 162.451C47.1206 161.397 46.2857 160.559 45.2358 159.935C43.6574 157.733 45.9883 155.87 46.2391 153.905C45.9274 152.543 44.1411 152.652 44.2307 150.886C43.4066 150.973 43.4066 147.788 44.2307 147.876C43.7022 145.672 45.9274 146.226 45.7357 144.359C45.2197 143.2 44.0103 142.736 44.2307 140.842C45.1892 139.624 45.2896 137.547 47.2406 137.323C49.4174 136.565 47.0113 134.174 47.7441 131.798C47.6491 129.356 50.6787 130.042 50.7612 127.779C50.7629 127.272 50.3527 127.179 50.2577 126.772V126.274C50.0965 125.104 50.3419 124.343 50.7612 123.759C50.8722 119.518 53.3877 117.678 54.7815 114.715C51.2915 113.636 48.5091 114.399 46.2391 111.703ZM10.5662 121.247C9.25119 124.956 8.62591 129.352 7.55273 133.305C10.3387 133.803 12.3328 129.458 13.5815 126.776C12.1196 125.391 11.9189 122.743 10.5662 121.247ZM29.6559 165.964C29.4427 167.594 27.5669 167.559 27.1441 168.979C28.0506 170.076 28.8354 171.308 31.1645 170.989C31.2218 170.038 32.8199 170.64 32.6658 169.481C31.8076 168.834 30.695 168.44 30.661 166.967C30.5571 166.405 30.1038 166.186 29.6559 165.964Z" fill="#F4811F"/>
<path fill-rule="evenodd" clip-rule="evenodd" d="M192.928 52.4102C183.9 54.2645 174.057 55.3 167.815 59.9475C167.865 62.2408 167.408 65.0446 168.818 65.9763C171.513 66.7431 174.853 64.6111 178.364 65.9763C180.389 65.48 178.973 61.551 180.872 60.9526C181.195 63.3802 180.21 64.5036 180.872 65.9763C185.244 68.9987 192.785 67.6102 193.949 62.961C194.863 59.2488 191.602 56.3499 192.946 52.4102H192.928ZM190.922 57.4321C192.104 58.421 191.943 60.7681 191.925 62.961C190.492 63.8729 189.703 65.4245 186.908 64.973C188.377 63.9356 190.617 63.6723 191.423 61.9595C191.405 60.304 190.581 59.453 190.922 57.4321ZM131.137 74.5169C123.27 75.9592 112.503 81.076 118.578 90.5913C120.251 93.2107 127.034 96.1077 130.136 100.139C132.377 103.065 135.869 105.186 136.664 107.676C134.263 104.72 129.698 103.925 126.617 101.649C126.701 101.062 127.414 101.103 128.124 101.146C124.128 95.9823 110.566 88.642 100.991 87.5796C95.5305 86.974 92.8037 88.1511 91.4492 91.6C92.1927 92.0246 92.1766 93.216 92.4525 94.1083V94.6135C98.3684 103.099 108.213 107.656 116.569 113.705V115.713C119.544 116.763 122.948 117.374 123.1 121.237C126.106 122.745 131.555 123.374 131.137 126.766C134.262 126.657 135.491 128.441 138.173 128.774C137.965 129.987 139.09 129.865 138.673 131.286C145.189 133.307 153.235 144.162 159.776 136.312C160.514 135.427 160.923 132.737 161.285 129.779C159.749 129.34 158.32 130.74 156.259 129.274V132.291C156.469 133.427 159.015 132.22 158.773 133.803C157.744 135.133 154.989 137.363 152.744 135.808C153.909 134.298 154.629 132.338 154.247 129.274C152.192 129.566 151.875 131.592 149.731 131.791C149.403 128.024 146.362 127.167 144.705 124.757C141.862 120.626 141.512 116.235 137.168 114.708C136.689 116.072 135.358 116.589 134.652 117.725C135.65 121.31 140.036 123.98 140.181 126.766C134.733 123.462 127.231 115.463 131.641 107.171C134.781 108.452 140.224 109.892 143.702 109.179C138.683 104.161 127.477 96.7276 122.598 90.0914C117.236 82.796 126.83 79.1536 131.137 74.5169ZM144.811 113.467C143.834 113.445 142.795 113.522 141.69 113.709C143.558 120.377 147.944 124.535 151.739 129.278C153.568 128.916 154.055 126.907 156.259 128.274C157.173 122.172 149.132 125.017 150.23 118.734C148.699 118.069 145.536 116.412 146.21 115.217C148.26 116.964 152.92 117.249 151.235 121.241C156.116 122.056 156.553 127.312 160.781 128.778C157.922 122.955 154.251 113.673 144.811 113.467Z" fill="#008344"/>
<path fill-rule="evenodd" clip-rule="evenodd" d="M192.444 67.9915C190.158 68.6759 186.621 69.4212 185.88 68.8622C185.88 68.8622 186.066 88.0164 185.507 92.293C184.95 96.5696 184.909 97.6338 184.909 97.6338C184.909 97.6338 195.287 87.0184 192.444 67.9915ZM174.716 67.0795C173.08 67.0168 171.278 67.5579 169.834 67.9915C170.536 79.8609 167.374 91.9131 163.298 100.649C173.163 96.2793 175.8 84.6786 178.375 73.0152C179.894 69.9049 181.603 68.6777 177.37 67.9933C176.621 67.3698 175.698 67.1172 174.716 67.0795ZM131.553 39.5836C130.567 39.6302 129.929 40.5744 129.641 41.8679C130.535 44.2543 128.274 51.1951 131.144 52.9204C131.273 51.1897 130.77 44.0877 131.647 46.3864C132.579 44.8079 132.722 42.4376 132.653 39.8577C132.24 39.6535 131.875 39.5693 131.553 39.5836Z" fill="white"/>
</g>
<defs>
<clipPath id="clip0_154_2443">
<rect width="200" height="200" fill="white"/>
</clipPath>
</defs>
</svg>
