<svg width="200" height="200" viewBox="0 0 200 200" fill="none" xmlns="http://www.w3.org/2000/svg">
<g clip-path="url(#clip0_154_2436)">
<path d="M100 36.8568C44.7723 36.8568 0 65.1271 0 99.9991C0 134.876 44.7723 163.145 100 163.145C155.225 163.145 200.001 134.875 200.001 99.9991C200.001 65.1271 155.225 36.8568 100 36.8568Z" fill="black"/>
<path d="M100.004 40.8047C46.9576 40.8047 3.95508 67.3072 3.95508 99.9968C3.95588 132.694 46.9576 159.194 100.004 159.194C153.052 159.194 196.052 132.694 196.052 99.9968C196.052 67.3072 153.052 40.8047 100.004 40.8047ZM101.617 44.816C141.076 44.816 174.722 62.3483 184.827 81.3992H140.52C140.52 81.3992 124.012 64.0104 100.552 64.0104C77.09 64.0104 53.6351 79.4685 53.6351 97.5976C53.6351 115.726 71.2255 133.323 97.3505 133.323C123.48 133.323 136.06 123.403 141.947 111.041H82.1569V94.0694H190.335C195.456 128.234 152.173 155.186 97.6167 155.186C43.0689 155.186 9.26961 125.444 9.26961 98.7968C9.27203 72.1467 47.0681 44.816 101.617 44.816Z" fill="#ECAA00"/>
</g>
<defs>
<clipPath id="clip0_154_2436">
<rect width="200" height="200" fill="white"/>
</clipPath>
</defs>
</svg>
