<svg width="200" height="200" viewBox="0 0 200 200" fill="none" xmlns="http://www.w3.org/2000/svg">
<path d="M186.059 45.1289V154.871H13.9414V45.4731L14.0791 45.1289H186.059Z" fill="white"/>
<path d="M181.446 50.1588C181.378 66.4067 181.584 82.9299 181.309 99.0401H110.672C110.397 83.6184 110.603 66.0625 110.534 50.4342L110.741 50.09C134.286 50.09 158.107 49.8834 181.446 50.1588ZM181.446 102.276C181.378 118.18 181.584 134.359 181.309 150.056C157.763 149.987 133.873 150.193 110.465 149.918V102.482L110.672 102.138C134.286 102.276 158.107 102.001 181.446 102.276ZM107.78 50.1588C107.987 83.2742 107.987 117.216 107.78 150.4C78.1073 150.606 47.6082 150.606 17.9352 150.4C17.7286 117.285 17.7286 83.4119 17.9352 50.2965L18.2794 50.09C48.0901 50.09 78.1762 49.8834 107.78 50.1588Z" fill="#002147"/>
<path d="M169.534 105.367C169.74 106.056 169.74 107.433 169.534 108.121C162.236 107.433 163.406 115.763 163.406 122.786C163.406 127.33 163.613 132.149 163.406 135.798C162.856 145.23 153.424 149.774 143.165 148.397C136.281 147.433 130.704 143.922 130.153 136.349C129.809 131.942 130.153 126.848 130.153 122.166V115.075C130.153 113.147 130.498 109.705 129.465 108.741C128.432 107.777 126.022 108.466 124.232 108.052C124.095 107.433 123.957 105.849 124.37 105.436C131.117 105.23 138.621 105.23 145.368 105.436C145.506 106.125 145.575 107.364 145.368 108.052C143.578 108.466 141.031 107.639 139.93 108.603C138.69 109.636 139.172 114.042 139.172 116.452V124.989C139.172 131.667 138.621 136.968 141.031 140.41C143.785 144.404 152.047 145.299 156.246 141.719C157.761 140.41 159.344 138.001 159.62 134.834C159.895 131.736 159.757 127.743 159.757 123.887C159.757 116.108 161.134 107.846 153.63 107.915C153.424 107.295 153.424 105.918 153.63 105.299C158.656 105.161 164.508 105.161 169.534 105.367ZM163.751 81.5464C164.233 85.333 163.406 88.7753 161.754 91.0473C158.518 95.5912 151.152 98.4827 144.06 97.037C140.893 96.4173 138.277 94.765 135.73 92.9061C133.733 93.9388 133.733 97.5189 130.291 96.7616C130.084 91.8734 130.084 86.1591 130.291 81.271C130.911 81.0645 131.943 81.2022 132.701 81.1333C134.009 84.6445 135.386 88.1557 137.726 90.5653C140.274 93.1815 144.336 94.9715 150.05 94.4208C153.148 94.0765 155.695 92.4931 156.797 90.3588C158.243 87.6738 157.21 83.8184 155.351 82.3037C152.942 80.376 148.191 79.8252 144.405 78.9302C136.9 77.1402 129.603 74.5929 130.842 63.9905C131.461 58.8958 135.592 54.5584 141.306 53.5257C147.296 52.4242 152.804 54.5584 156.522 57.3812C157.554 56.2796 158.174 54.9027 159.276 53.87C159.964 53.87 160.721 53.8011 161.272 54.0077C161.479 58.0696 161.341 63.5774 161.41 68.5344C160.721 68.6721 159.482 68.6721 158.794 68.5344C156.866 62.4758 152.047 55.0404 143.372 56.2796C139.723 56.8304 135.799 59.8597 136.831 64.4724C137.795 69.0163 144.198 69.7048 149.155 70.8063C153.148 71.7013 157.21 72.8029 159.757 74.8683C161.685 76.1075 163.406 78.3795 163.751 81.5464ZM94.1464 57.3812C94.3529 58.8958 94.3529 61.1677 94.1464 62.7512C90.291 63.302 85.8159 62.2004 84.439 65.2986C83.4063 67.6393 84.0259 71.7702 84.0259 74.7994V104.335C84.0259 107.639 84.2324 117.278 84.1636 118.793C84.0947 120.445 84.0259 122.304 83.8194 123.818C83.4751 126.021 82.9244 128.087 82.167 129.946C79.1378 137.244 72.735 141.925 64.4734 143.922C58.8968 145.23 52.7006 145.436 46.7798 144.128C41.6851 143.027 36.8658 140.135 33.9054 137.381C30.2565 134.008 26.6765 128.913 27.2272 121.34C27.8469 113.629 33.0792 107.02 42.3047 107.777C46.0913 108.121 49.1205 110.531 50.704 113.147C52.1498 115.488 52.7694 120.927 51.2548 123.956C50.3598 125.746 48.4321 127.674 46.7798 128.982C44.3013 130.91 41.2032 132.424 36.8658 131.598C37.6231 135.316 41.3409 137.381 44.9209 138.483C47.8813 139.378 51.186 139.722 54.5594 139.034C61.0999 137.657 65.1619 132.218 65.7815 124.92C66.2634 119.825 65.988 114.662 65.988 109.636C65.988 96.7616 66.1257 84.0937 65.988 70.8752C65.988 68.1901 65.8503 65.5051 64.8865 64.4035C62.8211 61.9939 56.4872 63.5774 52.6317 63.0955C52.3563 61.512 52.5629 59.5154 52.494 57.7254L52.7006 57.3812C66.5388 57.3812 80.5836 57.1746 94.1464 57.3812Z" fill="white"/>
</svg>
