<svg width="200" height="200" viewBox="0 0 200 200" fill="none" xmlns="http://www.w3.org/2000/svg">
<g clip-path="url(#clip0_154_2470)">
<path d="M169.274 78.2447L173.936 92.1841L170.271 76.5667C161.784 77.3907 154.186 79.0639 147.893 80.8867L169.274 78.2447Z" fill="white"/>
<path d="M117.724 83.3805L119.803 69.0508L117.857 70.7554L117.724 83.3805Z" fill="white"/>
<path d="M136.565 79.7596L150.135 72.8498L155.651 75.504L150.2 71.5831L136.565 79.7596Z" fill="white"/>
<path d="M139.633 75.2617L135.045 73.1439L125.878 82.4207L135.495 74.576L139.633 75.2617Z" fill="white"/>
<path d="M86.0935 76.9871C85.2303 75.9849 84.3782 74.9877 83.5319 73.9859C83.2906 74.2344 83.0566 74.4902 82.8453 74.7774C83.8098 75.8449 84.7516 76.8811 85.6562 77.8711C85.815 77.6216 85.9665 77.3341 86.0935 76.9871Z" fill="white"/>
<path d="M88.5458 79.8125C88.5915 80.2283 88.6292 80.6644 88.6522 81.1207C94.3464 87.2513 98.1759 91.118 98.1759 91.118L98.871 91.1722C95.4206 87.5477 91.9473 83.7074 88.5458 79.8125Z" fill="white"/>
<path d="M71.243 59.7961L71.7502 59.6919C71.7684 59.7313 72.2118 60.6738 71.7249 61.7174L71.6105 61.9259C72.4578 62.9281 73.301 63.9181 74.1401 64.8939L74.6625 65.2057C75.3204 65.6774 75.8134 66.3506 76.1404 67.213C77.6325 68.9217 79.0932 70.5819 80.5104 72.1752C80.6349 71.6437 80.6926 71.1163 80.6926 70.6568V70.6122C66.2677 53.3136 54.7765 37.5009 54.7765 37.5009L61.7682 38.7754C55.9952 36.6314 50.0674 33.4883 50.0674 33.4883C55.8039 42.4084 63.2947 52.0168 70.6529 60.7871C71.0143 60.529 71.243 60.197 71.243 59.7961Z" fill="white"/>
<path d="M138.45 52.4961C144.616 41.0632 151.06 26.4954 151.446 14.9569C144.328 20.749 135.096 25.8087 130.162 28.3411C139.228 25.4817 145.955 19.604 148.961 19.6045C151.338 19.604 143.024 41.1076 138.45 52.4961Z" fill="white"/>
<path d="M114.746 93.0625C104.909 99.8214 100.828 96.9678 100.828 96.9678C100.828 96.9678 103.645 102.909 114.746 93.0625Z" fill="white"/>
<path d="M110.751 126.398C111.291 126.511 111.833 126.621 112.371 126.73C115.099 125.737 124.171 121.935 125.226 114.883C119.648 123.572 112.966 125.859 110.751 126.398Z" fill="white"/>
<path d="M123.829 129.877C124.34 127.769 126.582 119.254 129.583 117.137C125.929 118.299 124.669 123.679 122.88 129.415C123.195 129.56 123.513 129.714 123.829 129.877Z" fill="white"/>
<path d="M96.2705 146.226C96.4143 145.897 96.5661 145.556 96.7169 145.199L90.4287 141.016L96.2705 146.226Z" fill="white"/>
<path d="M106.507 153.587L107.524 154.106C108 153.613 108.497 153.098 109.008 152.566L107.477 151.531C107.127 152.237 106.808 152.925 106.507 153.587Z" fill="white"/>
<path d="M98.2564 141.703L93.5068 139.438L97.9062 142.498L98.2564 141.703Z" fill="white"/>
<path d="M112.423 149.023L109.635 147.531C109.405 147.929 109.173 148.324 108.953 148.715L111.403 150.082C111.741 149.729 112.079 149.377 112.423 149.023Z" fill="white"/>
<path d="M114.227 97.918C108.26 101.788 102.97 106.4 100.062 109.086C100.201 109.911 100.299 110.866 100.345 111.996C106.454 104.872 114.227 97.918 114.227 97.918Z" fill="white"/>
<path d="M89.9105 60.9118C88.2217 60.1904 87.575 59.1116 87.3322 58.4558C86.3953 58.4589 85.5208 58.5126 84.9779 58.5892C84.0722 58.9538 82.8578 61.3951 86.672 61.3953C88.0962 61.3956 89.1505 61.1928 89.9105 60.9118Z" fill="white"/>
<path d="M91.6406 59.3655C91.6406 58.9829 90.9451 58.746 89.9814 58.6094C90.112 58.9768 90.4734 59.5083 91.4614 59.8494L91.6406 59.3655Z" fill="white"/>
<path d="M109.22 68.2969L107.577 69.8801C108.348 69.6169 109.114 69.3021 109.819 68.9498L109.22 68.2969Z" fill="white"/>
<path d="M107.619 69.1289L108.87 67.9222L108.426 67.4414C108.129 68.0376 107.868 68.6308 107.619 69.1289Z" fill="white"/>
<path d="M109.725 65.4336L110.599 66.2558L112.264 64.653L111.641 64.5441C110.858 64.5441 110.242 64.8998 109.725 65.4336Z" fill="white"/>
<path d="M108.676 66.9471L109.246 67.5604L110.23 66.6118L109.393 65.826C109.126 66.1643 108.895 66.549 108.676 66.9471Z" fill="white"/>
<path d="M111.552 67.8477L110.605 66.9641L109.593 67.937L110.287 68.696C110.757 68.435 111.183 68.1504 111.552 67.8477Z" fill="white"/>
<path d="M112.854 65.5726L112.679 64.97L110.978 66.6104L111.932 67.5031C112.501 66.9245 112.854 66.2841 112.854 65.5726Z" fill="white"/>
<path d="M78.1772 45.5903C77.9575 39.8841 79.2583 26.1122 95.5376 18.3633C79.9132 22.9205 75.5291 38.2888 76.1749 47.6958C76.1749 47.6958 76.6618 46.3586 78.1772 45.5903Z" fill="white"/>
<path d="M123.36 30.4893C123.36 30.4893 123.263 28.8915 122.921 27.3491C122.074 25.9251 120.828 24.1763 119.111 22.5269C117.218 21.3051 115.994 21.1783 115.994 21.1783C115.994 21.1783 116.783 27.1532 123.36 30.4893Z" fill="white"/>
<path d="M109.977 21.9757C116.185 26.9014 113.026 37.1121 113.026 37.1121C110.674 38.0232 109.174 36.2608 109.174 36.2608C109.174 36.2608 112.385 27.94 109.977 21.9757ZM111.422 37.9159C114.304 37.9159 115.33 37.0382 115.33 32.1004C115.33 25.3536 110.841 21.7236 109.236 20.6445C109.559 21.8329 109.699 22.993 109.699 24.1055C109.699 27.0583 108.776 29.674 108.098 31.6054C107.712 32.6996 107.409 33.5651 107.409 34.1047C107.409 35.449 108.934 37.9159 111.422 37.9159Z" fill="white"/>
<path d="M75.6471 46.6788C75.4932 45.5218 75.4436 44.3243 75.4902 43.0995C69.2192 42.2248 67.7271 35.6168 67.7271 35.6168C67.7271 35.6168 71.1961 40.673 75.6441 41.1691C75.7078 40.6437 75.7837 40.1193 75.8809 39.5909C70.9168 38.6151 68.2919 35.5965 67.2412 34.0508C67.4639 36.5339 68.712 42.9891 75.6471 46.6788Z" fill="white"/>
<path d="M103.301 54.4172C103.681 54.5296 104.105 54.5093 104.5 54.3787C105.374 53.6519 106.273 52.9555 107.174 52.3238C106.931 52.0444 106.635 51.6324 106.469 51.1668L105.279 51.4928L106.542 48.3254L107.034 48.7647C107.764 47.7382 108.983 46.7655 110.324 46.7655C111.445 46.7655 112.252 47.4366 112.655 47.8516C112.916 47.3445 113.165 46.9375 113.313 46.7037C112.862 46.4962 111.729 46.0781 109.891 46.0781C106.661 46.0781 102.35 51.6092 102.35 53.0587C102.35 53.7531 102.688 54.233 103.301 54.4172Z" fill="white"/>
<path d="M105.932 50.9248C106.436 50.7881 107.738 50.4328 108.188 50.3133C107.853 50.0147 107.003 49.2494 106.706 48.9883C106.56 49.3466 106.113 50.4682 105.932 50.9248Z" fill="white"/>
<path d="M109.609 50.0467L109.921 50.6278C110.591 50.2725 111.243 49.9759 111.864 49.7501L111.988 49.3736C111.736 49.2106 111.392 49.1094 111.012 49.1094C110.238 49.1094 109.609 49.5274 109.609 50.0467Z" fill="white"/>
<path d="M84.8067 88.9034C84.8067 88.4175 84.7024 88.0227 84.5951 87.6188C84.4878 87.2068 84.3724 86.7766 84.3724 86.2522C84.3724 85.7188 84.2448 85.3301 83.9928 85.1013L83.7083 84.9383L83.7225 85.1013C83.7225 85.7238 83.4796 86.2401 83.0241 86.563C82.5351 86.9011 81.8792 86.9699 81.3558 86.724C80.8831 86.5013 80.6098 86.068 80.6098 85.5315C80.6098 84.6235 81.1149 83.9534 81.5998 83.3045C82.0573 82.687 82.4916 82.106 82.4916 81.3589C82.4916 78.8293 80.628 78.0964 79.6016 77.8828C80.4195 78.9599 80.4519 80.1574 80.4519 80.95V81.1039L80.4549 81.3377L80.4579 81.7062C80.4579 82.4714 80.379 83.4969 79.7261 84.1194C79.3708 84.4575 78.893 84.6265 78.3018 84.6265C77.8341 84.6265 77.4961 84.499 77.2987 84.2469C76.8867 83.7256 77.1833 82.8328 77.5274 81.8003C77.7795 81.0441 78.0376 80.2677 78.0376 79.5946C78.0376 79.1552 77.907 78.8414 77.6519 78.6754C77.3847 78.5003 76.9919 78.4821 76.6559 78.5175C76.9808 78.7665 77.2146 79.0844 77.327 79.4731L77.412 80.0804C77.412 80.9318 76.9717 81.9278 76.1335 82.9482C75.5171 83.6983 75.3166 84.2237 75.3166 84.6235C75.3166 85.0153 75.508 85.2916 75.6871 85.5548L75.9392 85.982L76.0445 86.2249C76.255 86.6855 76.5648 87.3668 76.5648 87.9458L76.3917 88.5622C76.1973 88.8406 75.8562 88.9833 75.3834 88.9833C74.2072 88.9833 73.364 87.883 72.8862 87.0438C72.8275 87.551 72.7495 87.9964 72.7354 88.0936C72.7384 88.3902 72.9813 88.7222 73.2911 89.1352C73.865 89.9055 74.6506 90.9644 74.6506 92.7976V95.8901C74.6506 97.7496 77.8261 100.018 78.313 100.351H82.1312C81.8913 99.597 81.7759 98.8742 81.7759 98.1616C81.7759 96.1158 82.6799 94.1581 83.9381 91.7175C84.6062 90.4248 84.8067 89.5735 84.8067 88.9034Z" fill="white"/>
<path d="M120.105 158.525L119.167 157.817C118.503 158.314 117.738 158.883 116.901 159.51L118.8 161.031C119.239 160.189 119.687 159.329 120.105 158.525Z" fill="white"/>
<path d="M22.7275 168.95C22.7275 168.95 70.9773 140.065 79.8843 129.854L45.9895 128.359L22.7275 168.95Z" fill="white"/>
<path d="M75.3506 154.47C75.3506 154.47 83.2007 150.122 86.6404 146.904L82.7543 145.852L75.3506 154.47Z" fill="white"/>
<path d="M191.404 159.548C191.404 159.548 177.116 171.188 167.614 171.188C158.112 171.188 154.654 162.039 154.654 162.039C158.242 165.399 165.621 166.521 165.621 166.521C176.855 157.653 175.497 149.768 174.886 147.713C161.869 155.758 150.6 159.236 150.6 159.236C150.6 159.236 169.209 148.904 174.26 142.306L176.6 136.099C176.6 136.099 182.412 134.251 191.274 135.295C187.309 139.005 183.136 142.237 179.031 145.022C180.431 147.383 184.572 156.363 174.061 166.209C174.061 166.209 183.762 164.281 191.404 159.548ZM161.232 119.147L172.531 120.892C161.897 135.458 140.63 176.42 140.63 176.42C140.63 176.42 148.871 137.949 161.232 119.147ZM124.327 170.112L119.452 165.13C119.452 165.13 127.694 156.413 133.806 142.469L141.961 144.299C141.961 144.299 133.498 158.531 126.184 165.379C126.184 165.379 133.361 164.299 140.805 159.901C140.805 159.901 135.402 165.379 124.327 170.112ZM96.1377 170.094L94.344 165.678C94.344 165.678 95.6164 154.821 102.124 142.282L109.304 144.243C109.304 144.243 102.047 153.35 100.551 163.786C100.551 163.786 116.403 151.598 123.396 142.386L128.969 144.313C119.523 154.954 96.1377 170.094 96.1377 170.094ZM73.2554 157.759L65.8517 166.446C65.8517 166.446 79.0132 164.696 89.2594 161.615C89.2594 161.615 77.7407 167.849 68.0209 170.79L61.6639 167.57C61.6639 167.57 64.8161 159.222 76.4714 142.421L85.7437 142.143L93.8206 148.095C93.8206 148.095 80.8838 154.96 73.2554 157.759ZM10.5666 175.859L21.6661 169.51L36.2853 128.361L17.4794 128.919L16.4793 122.507C16.4793 122.507 25.7638 122.626 38.2076 122.982V122.27L41.9854 123.091C57.1087 123.554 75.6909 124.34 88.1266 125.621L89.722 130.725C62.6053 151.52 10.5666 175.859 10.5666 175.859ZM181.962 145.962L193.747 134.465C193.747 134.465 185.729 132.587 174.488 135.888L171.273 143.059L157.24 152.164L156.357 151.337L176.069 120.129L159.12 117.508L145.882 144.797L142.493 143.8L144.482 142.057C144.482 132.781 150.6 137.884 150.6 124.251C150.6 123.109 149.684 122.976 147.928 124.826C147.424 123.083 150.022 123.415 150.022 119.636C150.022 114.841 145.757 114.981 145.757 114.981C146.158 115.751 145.508 117.036 144.577 116.612C144.624 116.887 144.651 117.217 144.651 117.605C144.651 120.363 142.883 120.248 142.883 122.048C142.883 123.847 144.838 123.18 145.55 121.932C146.261 120.683 147.269 117.009 146.261 116.066C146.261 116.066 149.393 115.135 149.393 119.782C149.393 123.732 145.796 123.732 145.796 125.304C145.796 127.042 149.026 126.348 149.026 125.244C149.026 124.313 150.078 123.326 150.078 125.304C150.078 127.276 149.859 130.846 148.465 132.157C147.068 133.462 143.687 136.689 143.687 138.721C143.687 140.752 143.504 142.205 143.504 142.205C143.504 142.205 135.814 141.277 135.814 135.407C135.814 130.47 139.287 128.092 135.814 126.169C135.814 126.169 136.558 124.72 137.922 125.997C139.287 127.276 140.152 127.042 140.152 125.71C140.152 124.37 139.752 122.312 141.208 120.944C142.665 119.578 143.877 117.807 143.379 116.879C142.883 115.951 141.95 115.951 141.95 115.951C141.95 115.951 142.317 115.636 142.78 115.434C141.54 114.984 140.681 115.538 140.681 115.538C140.681 115.538 142.659 116.52 142.659 117.744C142.659 120.301 139.334 119.53 139.334 125.447C135.523 123.801 134.438 126.321 134.438 126.321C134.438 126.321 136.045 126.707 136.045 128.768C136.045 130.8 134.401 133.531 134.401 135.524C134.401 140.147 138.459 142.843 138.459 142.843L132.833 141.473L131.191 144.089L121.887 141.06L102.151 161.541C102.151 161.541 104.674 151.953 110.855 143.237L100.223 140.5L95.9008 150.333L94.6375 147.908L85.7984 141.433L76.933 141.813C81.9801 138.424 86.8906 134.862 91.5046 131.146L89.1895 124.251C89.1895 124.251 59.1494 121.591 14.6633 121.591L16.7374 130.194H32.4053L17.6788 170.441L7.04492 177.787C7.04492 177.787 39.6987 165.346 70.2034 146.185L60.2275 168.036L67.941 172.588L93.3358 161.947L92.121 167.638L95.7035 173.727L122.857 153.471L123.768 154.323L117.874 165.645L124.799 172.135L140.108 163.994L139.378 180.216L150.799 162.917C150.799 162.917 151.285 173.555 166.594 173.555C175.947 173.555 182.146 170.029 182.146 170.029L193.747 158.136L180.016 162.689C180.016 162.689 187.519 155.305 181.962 145.962Z" fill="white"/>
<path d="M38.831 123.074V123.587L17.292 123.169L18.2941 127.719L18.2081 124.251C18.2081 124.251 50.9054 124.376 83.9367 125.993C66.3911 124.314 41.9863 123.821 41.9863 123.821L38.831 123.074Z" fill="white"/>
<path d="M76.8277 142.935L69.2812 154.931L77.4138 143.442H85.2771L91.6109 147.523L85.3217 142.645L76.8277 142.935Z" fill="white"/>
<path d="M107.204 144.367L102.531 142.979C97.9013 150.764 95.2957 164.528 95.2957 164.528C95.2957 164.528 98.4507 151.698 103.159 144.326L107.204 144.367Z" fill="white"/>
<path d="M123.616 143.301C119.695 148.345 107.862 159.239 107.862 159.239C107.862 159.239 118.633 151.021 123.75 144.485L127.074 144.421L123.616 143.301Z" fill="white"/>
<path d="M139.831 144.672L134.185 143.304C130.063 153.263 121.889 163.598 121.889 163.598C121.889 163.598 130.196 155.255 135.181 144.671L139.831 144.672Z" fill="white"/>
<path d="M162.342 120.146C153.837 130.273 145.86 159.985 145.86 159.985C145.86 159.985 157.47 130.522 162.958 122.385L170.58 121.225L162.342 120.146Z" fill="white"/>
<path d="M176.096 142.825L178.688 137.531C178.688 137.531 181.35 136.62 185.494 135.645C179.408 135.992 177.466 136.722 177.466 136.722L175.158 142.557C173.824 144.782 163.776 152.238 163.776 152.238C163.776 152.238 172.78 146.301 176.096 142.825Z" fill="white"/>
<path d="M140.924 125.857C140.924 126.922 139.473 128.28 139.093 127.601C138.717 126.922 137.613 126.891 137.613 126.891C138.999 131.145 136.226 131.088 136.226 135.196C136.226 139.306 142.377 141.287 142.377 141.287C142.377 141.287 136.98 137.8 136.98 135.08C136.98 132.361 140.04 132.123 138.969 128.87C138.969 128.87 141.932 128.428 141.932 125.86C141.932 124.469 140.953 122.871 142.566 120.504C140.232 121.598 140.924 124.792 140.924 125.857Z" fill="white"/>
<path d="M115.01 146.341C113.81 146.15 112.441 145.763 111.065 145.247C110.561 146.006 110.087 146.771 109.635 147.533L112.423 149.025C113.296 148.117 114.17 147.212 115.01 146.341Z" fill="#EE3123"/>
<path d="M88.334 139.151L90.4294 141.017L96.7196 145.203C96.9565 144.664 97.2015 144.107 97.4444 143.549L90.1561 138.223C89.5771 138.543 88.9687 138.848 88.334 139.151Z" fill="#EE3123"/>
<path d="M107.477 151.533L109.008 152.567C109.529 152.025 110.069 151.465 110.621 150.895L108.36 149.797C108.053 150.385 107.755 150.966 107.477 151.533Z" fill="#EE3123"/>
<path d="M99.1776 139.606L93.4967 136.125C92.7375 136.674 91.9206 137.21 91.043 137.723L93.5058 139.437L98.2584 141.703C98.638 140.837 98.966 140.092 99.1776 139.606Z" fill="#EE3123"/>
<path d="M128.071 116.406L127.934 114.977C124.31 117.067 122.317 124.365 114.218 127.097C115.034 127.257 115.811 127.405 116.523 127.536C118.37 127.877 120.342 128.327 122.377 129.194C123.966 123.98 125.028 119.982 128.071 116.406Z" fill="#EE3123"/>
<path d="M99.5075 139.025L103.058 139.941C101.519 138.215 100.206 137.586 99.3948 137.585C98.4591 137.586 98.83 138.117 99.2335 138.494L99.5075 139.025Z" fill="#EE3123"/>
<path d="M135.364 123.919C136.043 123.667 136.787 123.593 137.591 123.679C137.306 122.324 135.891 116.902 131.125 116.902C130.569 116.902 130.059 116.988 129.584 117.137C126.582 119.252 124.343 127.769 123.83 129.875C127.259 131.657 130.818 134.756 134.21 140.521L134.62 140.619C133.772 139.291 133.074 137.582 133.074 135.524C133.074 134.335 133.523 133.036 133.955 131.79C134.329 130.708 134.717 129.59 134.717 128.768C134.717 127.798 134.219 127.558 134.068 127.514L132.656 127.14L133.205 125.853C133.267 125.716 133.83 124.491 135.364 123.919Z" fill="#EE3123"/>
<path d="M121.494 139.612C121.494 139.612 128.973 142.046 130.598 142.575C130.901 142.094 131.44 141.237 131.808 140.649C126.607 133.867 120.444 129.997 118.457 129.347C116.66 128.757 105.046 125.759 102.341 125.062C101.715 126.649 100.736 128.571 99.2206 130.575C108.208 134.523 113.05 140.187 113.05 140.187C110.425 138.256 107.633 137.634 107.633 137.634C104.02 133.867 99.3907 132.622 97.7994 132.293C97.438 132.69 97.0554 133.085 96.6475 133.482C98.8927 134.923 104.316 135.617 107.727 139.185C108.813 140.323 109.913 141.243 110.989 141.979L112.982 142.492L112.632 142.984C114.151 143.803 115.577 144.268 116.791 144.487C119.491 141.688 121.494 139.612 121.494 139.612Z" fill="#EE3123"/>
<path d="M102.498 101.696C100.166 101.696 98.748 101.032 98.0292 100.561C97.9624 100.866 97.9199 101.216 97.9199 101.62C97.9199 103.627 98.8006 104.641 99.5041 106.788C101.469 105.119 107.876 99.9462 114.231 97.9156C114.231 97.9156 106.457 104.87 100.345 111.993C100.357 112.382 100.368 112.791 100.368 113.224C100.368 116.75 98.4271 119.043 98.4271 119.043C98.4271 119.043 99.2794 119.007 99.2794 119.876C99.2794 120.75 100.872 119.659 100.872 119.659C100.872 119.659 100.252 121.842 103.433 121.077C103.433 121.077 103.296 122.507 102.501 124.651C103.771 124.926 107.211 125.671 110.751 126.397C112.967 125.857 119.648 123.571 125.23 114.884C125.23 114.884 126.95 112.521 129.153 111.234C129.153 111.234 121.712 102.918 124.323 97.3548C124.323 97.3548 124.459 104.455 127.827 107.607C127.827 107.607 125.39 99.1435 129.601 94.8697C129.601 94.8697 127.249 100.676 129.376 104.41C129.376 104.41 129.023 96.5693 135.183 92.254C135.183 92.254 129.246 101.174 131.019 106.527C131.019 106.527 133.409 99.268 139.613 96.8568C139.613 96.8568 132.567 102.752 132.567 108.271C132.567 108.271 138.238 102.877 143.291 99.763C143.291 99.763 132.389 108.811 132.389 112.42C132.389 112.42 136.894 113.95 138.296 122.722C138.789 120.632 139.815 119.662 140.565 118.96C141.161 118.405 141.33 118.218 141.33 117.746C141.316 117.53 140.711 116.967 140.056 116.641L138.136 115.671L139.925 114.514C140.669 114.034 142.419 113.582 144.276 114.787C144.082 114.303 143.881 113.793 143.881 113.793L145.716 113.734C145.794 113.734 146.079 113.728 146.475 113.779C149.252 111.7 156.117 109.505 156.117 103.645C156.117 94.1874 151.55 89.2172 149.875 87.7109C144.842 88.0247 137.68 89.3265 135.512 89.3265C133.054 89.3265 128.338 88.8285 124.079 90.2608C115.046 95.552 107.466 101.696 102.498 101.696Z" fill="#EE3123"/>
<path d="M161.63 106.881C163.889 106.448 169.21 98.8529 164.821 93.5C165.486 101.593 161.63 106.881 161.63 106.881Z" fill="#EE3123"/>
<path d="M159.174 103.335C159.174 103.335 161.766 100.097 161.767 91.7564L159.744 88.6489C158.112 88.0051 156.08 88.0529 155.354 88.0997C156.867 90.0487 160.039 95.2005 159.174 103.335Z" fill="#EE3123"/>
<path d="M153.27 126.558L151.908 125.559C151.841 127.703 151.606 129.361 151.268 130.686C151.927 129.324 152.609 127.925 153.27 126.558Z" fill="#EE3123"/>
<path d="M149.495 113.121L147.68 114.052C148.178 114.221 148.717 114.477 149.234 114.862L149.495 113.121Z" fill="#EE3123"/>
<path d="M153.343 115.207C152.709 116.509 151.629 116.999 150.947 117.182C151.211 117.903 151.347 118.719 151.347 119.635C151.347 120.8 151.119 121.663 150.811 122.327C151.161 122.484 151.733 122.87 151.89 123.763C153.901 120.21 153.343 115.207 153.343 115.207Z" fill="#EE3123"/>
<path d="M154.156 121.23L156.348 117.746L155.817 114.258C155.618 116.779 154.156 121.23 154.156 121.23Z" fill="#EE3123"/>
<path d="M95.2367 72.8281C94.0017 72.8281 96.169 75.2809 97.0416 76.2212C97.9891 76.781 98.727 77.4461 99.3131 78.4715C100.153 79.9423 99.9357 81.0639 101.86 81.0639C103.788 81.0639 103.681 79.6346 103.681 79.5516C103.681 79.4686 102.905 75.3375 101.307 75.3375C100.029 75.3375 99.9043 76.117 98.73 76.117C96.8644 76.117 96.251 72.8281 95.2367 72.8281Z" fill="#EE3123"/>
<path d="M97.0178 54.904C100.604 54.904 100.35 42.3741 108.604 38.7705L108.367 39.8566C108.367 39.8566 111.469 37.6499 114.885 38.8423L113.403 39.7767L114.885 40.2919L113.148 41.0906L114.904 42.5169H110.909C103.528 42.5169 101.222 56.4872 96.9671 56.4872C95.3779 56.4872 95.3273 54.1833 95.3273 54.1833C95.3273 54.1833 95.8911 54.904 97.0178 54.904ZM103.913 62.3745C103.694 59.94 103.228 56.9417 102.436 56.1967C102.869 55.7908 103.323 55.3879 103.783 54.987L103.142 54.8888C102.709 54.7613 102.369 54.5092 102.142 54.1742L101.585 58.8721L101.419 53.4949L101.883 53.5698L101.816 53.0566C101.816 51.8996 103.827 48.9428 106.232 47.1106C108.326 45.1498 110.817 44.0879 110.817 44.0879L109.322 45.6276L109.892 45.577C112.501 45.577 113.783 46.3686 113.833 46.405L114.052 46.5406L113.907 46.7451C113.901 46.7633 113.012 48.053 112.483 49.5481C113.732 49.1918 114.836 49.1715 115.669 49.6281C110.461 49.6281 105.437 57.2737 103.913 62.3745ZM102.271 69.5748C102.271 69.5748 105.343 66.4105 101.491 65.2423C101.491 65.2423 104.256 64.803 104.256 66.953C104.256 69.012 102.271 69.5748 102.271 69.5748ZM100.683 69.8036C100.022 69.8036 100.135 68.7265 99.3591 68.7265C98.5817 68.7265 97.3073 67.5169 99.5697 67.5169C102.513 67.5169 102.351 69.8036 100.683 69.8036ZM121.724 51.1586L118.7 56.5823L117.727 63.7857L117.469 56.2979L121.724 51.1586ZM121.558 39.8657C121.558 39.1177 124.589 32.8102 124.936 32.0956L125.319 32.1634C125.319 32.1846 125.443 34.4977 125.443 36.8937C125.443 38.979 124.687 40.8142 124.079 42.2911C123.708 43.1931 123.385 43.9756 123.385 44.5009C123.696 45.088 123.842 45.7339 123.442 46.241L123.124 46.0224C123.753 45.2217 122.41 43.6972 121.838 43.1779L122.116 42.9076C122.157 42.9461 122.638 43.3915 123.056 43.9786C123.169 43.4714 123.415 42.8691 123.708 42.1575C124.301 40.711 125.045 38.9102 125.045 36.8937C125.045 35.346 124.99 33.8448 124.954 32.9702C123.673 35.6567 121.956 39.4052 121.956 39.8657C121.956 40.3668 122.342 41.0754 122.534 41.3983C123.658 40.6452 123.736 39.311 123.736 37.8635V37.3027H124.138V37.5851C124.138 39.3171 124.145 40.9539 122.576 41.8346L122.41 41.9267L122.303 41.7718C122.27 41.7273 121.558 40.6391 121.558 39.8657ZM95.4963 63.6642C95.4963 66.0167 94.8525 68.9401 98.44 69.9818C98.44 69.9818 98.9036 70.8857 98.44 71.6571C98.44 71.6571 98.4025 70.8533 97.04 70.8533C95.6785 70.8533 95.391 71.1226 95.391 71.1226C95.391 71.1226 93.8119 70.4859 93.8119 69.344C93.8119 68.1991 94.7108 67.8317 94.7108 64.2695C94.7108 60.7104 92.3411 60.4057 92.3411 60.4057C92.3411 60.4057 90.191 61.918 87.0327 61.918C84.2733 61.918 83.5566 60.8764 83.5566 60.8764C83.5566 60.8764 83.0211 59.8479 84.0729 58.863L80.704 58.5937C80.704 58.5937 82.3692 57.7424 88.3699 58.1159C88.3699 58.1159 86.4203 56.6836 83.097 56.6836C79.7758 56.6836 78.7331 58.1331 81.3266 59.5483C83.917 60.9594 84.0506 62.5345 84.1397 63.5103C84.2267 64.4892 84.2935 65.8972 86.7301 67.2233C89.1676 68.5545 90.7174 68.4897 92.2682 71.2916C93.7572 73.9822 94.0235 74.7202 95.4902 75.4348C94.8171 74.8659 94.2239 74.0916 94.2239 73.14C94.2239 72.2087 94.6561 71.6743 95.6178 71.6743C96.5835 71.6743 97.0815 72.2087 98.2932 72.2087C100.571 72.2087 101.902 70.6043 103.777 70.2156C105.656 69.8269 107.235 68.9998 108 67.4723C108.762 65.9479 109.459 64.0205 111.57 64.0205C113.682 64.0205 114.476 66.0876 112.036 67.9704C109.595 69.8562 109.542 70.5091 108.794 71.6743C108.047 72.8465 106.903 74.1989 105.526 74.1989C104.144 74.1989 103.414 74.0561 103.414 74.7293C103.414 75.3964 103.48 77.2174 104.725 78.3826C105.971 79.5517 106.22 79.5042 107.069 79.5042C107.917 79.5042 110.075 79.0527 110.274 76.5645C110.473 74.0743 109.861 72.5975 111.985 70.6043C114.112 68.6111 114.461 67.9886 114.461 66.3214C114.461 64.6582 113.747 63.4749 111.588 63.4749C106.92 63.4749 108.498 68.2052 104.411 69.4827C104.411 69.4827 105.707 68.2194 106.683 66.2475C107.668 64.2695 108.762 62.6357 111.505 62.6357C114.246 62.6357 115.277 64.2402 115.277 66.4965C115.277 70.743 111.588 71.8646 111.421 73.4984C111.255 75.1322 111.021 77.4371 111.357 78.4484C111.357 78.4484 112.757 76.357 113.72 74.5218C114.678 72.6825 115.372 70.8827 117.756 68.1455C120.144 65.4083 122.489 62.3088 122.489 61.4463V58.1665C122.489 58.1665 125.102 60.5089 122.139 63.7502C119.18 66.9915 117.027 70.4109 117.027 70.4109C117.027 70.4109 122.798 66.1291 125.526 64.5064C125.526 64.5064 125.72 59.9694 125.408 59.1778L124.183 60.0403C124.183 60.0403 124.755 50.0644 122.336 48.4063C122.336 48.4063 124.604 47.7564 124.604 45.8857C124.604 42.7861 126.143 41.2708 126.143 38.6439C126.143 35.0403 125.372 30.5772 125.372 29.7461C123.442 33.8154 120.161 37.5072 120.161 40.1229C120.161 42.7386 121.624 47.3059 121.624 48.5905C121.624 48.5905 118.786 48.9256 117.146 52.2023C118.032 47.8839 116.926 43.6526 114.838 41.203C114.838 41.203 116.081 40.3101 116.081 38.3737C116.081 37.7329 115.924 36.8198 115.482 35.8885C114.936 37.7774 113.729 38.4152 111.421 38.4152C108.48 38.4152 106.875 35.5656 106.875 34.1059C106.875 33.6018 107.086 32.9135 107.376 32.0652C99.2316 32.7303 93.4293 42.7446 94.2786 57.0723C88.3092 51.4815 83.7024 45.7642 80.1645 45.7642C78.226 45.7642 76.5254 47.804 76.5254 48.5044C76.5254 49.8417 78.1592 54.3645 78.1592 54.3645C83.0181 56.0398 95.4963 56.1734 95.4963 63.6642Z" fill="#EE3123"/>
<path d="M90.5502 60.6185L91.0996 60.242C89.87 59.7617 89.5158 58.9958 89.4145 58.5399C88.9336 58.4952 88.4186 58.4689 87.9018 58.4597C88.1809 59.082 88.8693 60.0313 90.5502 60.6185Z" fill="#EE3123"/>
<path d="M100.585 73.4893C101.947 73.4893 103.361 72.2411 104.532 71.5791C105.704 70.9151 105.918 69.9453 105.918 69.9453C105.918 69.9453 105.538 70.3047 103.96 70.6367C102.382 70.9657 101.238 72.5489 99.8492 72.5489C98.4634 72.5489 97.5908 72.9791 97.5908 73.6431C97.5908 74.6372 99.2256 73.4893 100.585 73.4893Z" fill="#EE3123"/>
<path d="M98.5432 75.5305C99.6334 75.5305 102.327 73.5435 104.912 73.5435C107.501 73.5435 108.34 71.5301 109.019 69.875C109.019 69.875 105.822 71.2871 105.128 71.936C104.435 72.5859 103.74 72.9027 102.515 73.3157C101.296 73.7216 99.4148 74.1812 98.8165 74.4069C98.2183 74.6377 97.4561 74.2288 97.4561 74.2288C97.4561 74.2288 97.4561 75.5305 98.5432 75.5305Z" fill="#EE3123"/>
<path d="M110.324 47.1406C109.066 47.1406 107.969 48.0901 107.328 49.0265L108.959 50.4862L106.854 51.0611C107.002 51.4731 107.278 51.8467 107.494 52.1018C108.192 51.628 108.888 51.1978 109.564 50.8212C109.342 50.6016 109.208 50.3343 109.208 50.0438C109.208 49.3231 110.015 48.7329 111.012 48.7329C111.433 48.7329 111.813 48.8402 112.12 49.0123C112.231 48.736 112.346 48.4718 112.465 48.2227C112.174 47.8877 111.403 47.1406 110.324 47.1406Z" fill="#EE3123"/>
<path d="M121.3 156.219C120.828 156.575 120.093 157.124 119.168 157.811L120.104 158.52C120.556 157.654 120.971 156.853 121.3 156.219Z" fill="#EE3123"/>
<path d="M45.9888 128.357L79.8826 129.853C70.9787 140.062 22.7279 168.948 22.7279 168.948L45.9888 128.357ZM18.2941 127.717L17.292 123.168L38.831 123.589V123.075L41.9863 123.824C41.9863 123.824 66.3941 124.309 83.9367 125.994C50.9084 124.374 18.2111 124.25 18.2111 124.25L18.2941 127.717ZM10.5645 175.858C10.5645 175.858 62.6042 151.516 89.7198 130.724L88.1245 125.62C75.6898 124.339 57.1096 123.553 41.9863 123.091L38.2055 122.266V122.98C25.7616 122.628 16.4812 122.507 16.4812 122.507L17.4772 128.921L36.2872 128.357L21.665 169.508L10.5645 175.858Z" fill="#EE3123"/>
<path d="M76.8278 142.936L85.3218 142.646L91.611 147.524L85.2772 143.443H77.4139L69.2813 154.933L76.8278 142.936ZM75.3519 154.47L82.7536 145.854L86.6428 146.904C83.2021 150.127 75.3519 154.47 75.3519 154.47ZM93.8228 148.097L85.7439 142.145L76.4715 142.423C64.8172 159.224 61.665 167.569 61.665 167.569L68.0211 170.793C77.7409 167.85 89.2595 161.617 89.2595 161.617C79.0153 164.698 65.8538 166.448 65.8538 166.448L73.2575 157.762C80.885 154.962 93.8228 148.097 93.8228 148.097Z" fill="#EE3123"/>
<path d="M107.867 159.235C107.867 159.235 119.697 148.342 123.617 143.298L127.075 144.418L123.753 144.484C118.632 151.017 107.867 159.235 107.867 159.235ZM95.2972 164.526C95.2972 164.526 97.9018 150.759 102.531 142.977L107.206 144.366L103.161 144.321C98.4524 151.697 95.2972 164.526 95.2972 164.526ZM128.973 144.309L123.398 142.385C116.405 151.598 100.553 163.784 100.553 163.784C102.048 153.349 109.302 144.24 109.302 144.24L102.124 142.277C95.6181 154.816 94.3467 165.673 94.3467 165.673L96.1404 170.089C96.1404 170.089 119.528 154.95 128.973 144.309Z" fill="#EE3123"/>
<path d="M121.89 163.597C121.89 163.597 130.063 153.261 134.185 143.3L139.832 144.67H135.182C130.193 155.255 121.89 163.597 121.89 163.597ZM126.184 165.382C133.497 158.534 141.958 144.297 141.958 144.297L133.805 142.473C127.69 156.417 119.452 165.133 119.452 165.133L124.324 170.113C135.401 165.382 140.807 159.905 140.807 159.905C133.361 164.299 126.184 165.382 126.184 165.382Z" fill="#EE3123"/>
<path d="M145.859 159.985C145.859 159.985 153.834 130.269 162.339 120.142L170.581 121.224L162.962 122.383C157.467 130.518 145.859 159.985 145.859 159.985ZM161.233 119.145C148.873 137.946 140.634 176.42 140.634 176.42C140.634 176.42 161.898 135.456 172.532 120.889L161.233 119.145Z" fill="#EE3123"/>
<path d="M163.776 152.239C163.776 152.239 173.827 144.784 175.158 142.559L177.463 136.723C177.463 136.723 179.405 135.997 185.491 135.643C181.35 136.622 178.687 137.533 178.687 137.533L176.096 142.829C172.783 146.302 163.776 152.239 163.776 152.239ZM174.058 166.211C184.571 156.364 180.431 147.388 179.031 145.027C183.136 142.239 187.312 139.004 191.274 135.294C182.412 134.255 176.6 136.098 176.6 136.098L174.257 142.307C169.209 148.906 150.597 159.238 150.597 159.238C150.597 159.238 161.872 155.762 174.886 147.714C175.496 149.769 176.858 157.655 165.618 166.521C165.618 166.521 158.242 165.401 154.654 162.038C154.654 162.038 158.109 171.193 167.614 171.193C177.116 171.193 191.404 159.55 191.404 159.55C183.765 164.28 174.058 166.211 174.058 166.211Z" fill="#EE3123"/>
<path d="M137.614 126.889C137.614 126.889 138.718 126.919 139.094 127.598C139.474 128.274 140.924 126.919 140.924 125.852C140.924 124.79 140.233 121.596 142.567 120.504C140.957 122.868 141.932 124.464 141.932 125.855C141.932 128.426 138.97 128.867 138.97 128.867C140.04 132.121 136.979 132.358 136.979 135.078C136.979 137.797 142.377 141.285 142.377 141.285C142.377 141.285 136.22 139.304 136.22 135.193C136.22 131.086 139.002 131.145 137.614 126.889ZM143.504 142.207C143.504 142.207 143.688 140.75 143.688 138.72C143.688 136.685 147.069 133.461 148.463 132.153C149.863 130.848 150.078 127.278 150.078 125.3C150.078 123.322 149.02 124.312 149.02 125.243C149.02 126.347 145.796 127.043 145.796 125.3C145.796 123.731 149.394 123.731 149.394 119.781C149.394 115.134 146.262 116.065 146.262 116.065C147.273 117.008 146.262 120.682 145.55 121.931C144.839 123.179 142.884 123.847 142.884 122.047C142.884 120.246 144.651 120.362 144.651 117.604C144.651 117.215 144.625 116.886 144.578 116.611C144.322 115.095 143.451 115.145 142.781 115.434C142.317 115.635 141.953 115.946 141.953 115.946C141.953 115.946 142.884 115.946 143.379 116.874C143.878 117.808 142.667 119.579 141.209 120.943C139.755 122.308 140.153 124.372 140.153 125.706C140.153 127.043 139.286 127.278 137.923 125.997C136.558 124.718 135.817 126.172 135.817 126.172C139.286 128.091 135.817 130.472 135.817 135.407C135.817 141.276 143.504 142.207 143.504 142.207Z" fill="#EE3123"/>
<path d="M66.8002 68.1723C68.4208 68.7654 70.2581 69.4386 70.2581 71.6302C70.2581 72.4187 69.8269 73.2974 69.4837 73.8723C70.5101 73.4452 72.2867 72.4369 72.2867 70.6037C72.2867 68.7806 70.8027 68.066 69.7186 67.5436L69.1254 67.247C68.3884 66.829 67.6434 65.7043 67.6434 64.7235L67.6556 64.5129C67.7072 64.0736 67.9511 63.4925 68.8126 63.2253C70.0698 62.8315 70.8837 62.2555 71.2339 61.5237L71.409 60.7695C70.7804 61.5439 69.4169 61.9478 68.0594 61.9478C66.4591 61.9478 63.9932 63.5401 63.9932 65.6608C63.9932 67.1458 65.2939 67.6236 66.8002 68.1723Z" fill="#EE3123"/>
<path d="M58.7653 73.2421C58.9354 73.2421 59.2725 73.1267 59.5974 73.0133C60.3414 72.7583 61.1826 72.4647 61.7292 72.821C62.0167 73.0133 62.1635 73.3514 62.1635 73.8323L62.124 74.7312C62.1028 75.0156 62.0835 75.2879 62.0835 75.541C62.0835 76.0593 62.1635 76.4986 62.4793 76.8154C62.782 77.1181 63.3023 77.2993 64.0483 77.3641C63.7123 76.9905 63.356 76.4034 63.356 75.546C63.356 75.0986 63.608 74.5115 63.857 73.9386C64.0737 73.4375 64.2974 72.9222 64.2974 72.6105C64.2974 71.6731 63.9522 70.5586 62.3153 70.5586C61.1968 70.5586 60.6542 71.1629 60.1744 71.7004C59.8434 72.0709 59.5306 72.4181 59.0781 72.4181L58.5102 72.163L58.3159 71.4686L58.3189 71.4069C58.0355 71.7359 57.7773 72.1296 57.7773 72.4617C57.7773 73.0609 58.0092 73.2421 58.7653 73.2421Z" fill="#EE3123"/>
<path d="M74.2814 69.7225C74.2814 71.7683 73.5769 72.8656 73.009 73.7504C72.6415 74.3284 72.349 74.7819 72.349 75.3518C72.349 76.028 72.6901 76.7689 73.0535 77.5514C73.4817 78.4827 73.9686 79.5324 73.9686 80.6804C73.9686 81.8931 73.7651 82.5105 73.3056 82.6917C72.7923 82.8901 72.1951 82.4123 71.7902 82.0327C71.2132 81.4871 70.8134 80.7694 70.4246 80.073C70.2181 79.7015 70.0046 79.3219 69.7646 78.9666C69.9499 79.7491 70.1544 80.7694 70.1544 81.5134C70.1544 82.0327 70.454 82.9458 70.8042 84.0016C71.2831 85.4583 71.8793 87.2733 71.8793 88.7532C71.8793 90.0904 71.612 91.2586 71.3529 92.3802L71.2223 92.949C71.0533 93.7295 70.9136 94.4796 70.9136 95.2358L70.9196 95.3542C70.952 95.7905 71.1494 96.2652 71.4713 96.7572C71.7781 97.2289 72.1951 97.7178 72.68 98.2078C74.2115 99.7495 76.4092 101.294 77.9438 102.291C78.9388 102.451 80.0139 102.718 81.1294 103.184C82.3836 103.029 84.0326 102.822 84.3686 102.783C84.154 102.146 83.6702 100.515 83.6702 98.7797C83.6702 96.167 84.5883 94.4351 85.5601 92.5968C86.7799 90.2918 88.1616 87.6761 88.1616 82.6381C88.1616 79.0648 87.4662 76.5847 86.9651 75.2657C86.8345 77.1546 86.0875 78.6548 84.8555 79.3907C84.1318 79.8209 83.328 79.9009 82.6842 79.6134C82.8938 80.0872 83.0244 80.6631 83.0244 81.3596C83.0244 82.2646 82.5202 82.9377 82.0333 83.5896C81.5758 84.2041 81.1405 84.7821 81.1405 85.5322C81.1405 85.8763 81.3025 86.1405 81.593 86.2772C81.9341 86.4402 82.3806 86.3895 82.7025 86.1608C83.1205 85.8703 83.2794 85.3429 83.1489 84.6778L83.0962 84.3994L83.3948 84.3842C83.4151 84.3812 83.9222 84.3579 84.3484 84.7315C84.7189 85.0604 84.9041 85.5706 84.9041 86.2529C84.9041 86.7216 85.0033 87.0981 85.1106 87.501C85.3769 88.5072 85.6502 89.5448 84.4182 91.9348C82.665 95.3309 81.676 97.6055 82.7409 100.524L82.8594 100.85H78.1412L78.0713 100.808C77.9094 100.702 74.1194 98.1511 74.1194 95.8917V92.7982C74.1194 91.1229 73.4159 90.1795 72.8531 89.4203C72.5049 88.9486 72.2012 88.5426 72.2012 88.0891V88.0649L72.2042 88.0446C72.2042 88.0325 72.432 86.7631 72.432 86.0363L72.9482 85.9563C72.9573 85.9806 73.9048 88.486 75.3827 88.486C75.6692 88.486 75.8575 88.4181 75.9476 88.2906C76.228 87.8988 75.7745 86.8967 75.5568 86.4189L75.4435 86.1608L75.238 85.8227C74.8523 85.2599 74.2662 84.4055 75.7107 82.6472C76.643 81.5114 77.0439 80.402 76.8141 79.6073C76.6835 79.1559 76.3646 78.8299 75.8605 78.6406L75.2198 78.3936L75.8696 78.175C75.9213 78.1568 77.1623 77.7478 77.9559 78.2691C78.3618 78.5333 78.5694 78.9838 78.5694 79.5952C78.5694 80.3423 78.2869 81.1966 78.0349 81.9497C77.7585 82.7768 77.4751 83.6342 77.7272 83.955C77.8193 84.0735 78.0136 84.1322 78.3011 84.1322C78.7506 84.1322 79.0947 84.0107 79.3498 83.7678C79.9562 83.1898 79.9349 82.0358 79.9207 81.3474V81.1045V81.0336C79.9207 80.1975 79.9207 78.8036 78.7668 77.7235L78.292 77.2761L78.9641 77.2963C78.9874 77.2963 80.4218 77.3561 81.5778 78.2246C81.5151 77.9756 81.4786 77.7002 81.4786 77.4036C81.4786 75.3305 82.4889 74.3041 83.3857 73.3971C84.1257 72.647 84.7665 71.991 84.7665 70.8462C84.7665 65.7838 80.518 64.4405 78.8629 64.1055C79.6403 65.1289 81.2266 67.5958 81.2266 70.6538C81.2266 72.6794 80.1637 75.8913 77.306 75.8913C76.7048 75.8913 76.2523 75.7253 75.9597 75.3983C75.3412 74.7019 75.5963 73.4092 75.8413 72.1601C75.9658 71.5163 76.1004 70.8492 76.1004 70.3127C76.1004 68.026 75.5072 66.4398 74.3452 65.6036C73.4615 64.9659 72.4279 64.9031 71.7841 64.9446C72.6678 65.6117 74.2814 67.1777 74.2814 69.7225Z" fill="#EE3123"/>
<path d="M123.815 66.5446L122.952 78.1221L126.274 73.0184C126.273 70.4827 125.146 68.8485 125.146 65.2988L123.815 66.5446Z" fill="#00703D"/>
<path d="M119.803 82.1345V69.0469L117.724 83.3776L117.857 70.7525L114.399 88.1848C114.399 88.1848 117.235 86.0965 119.803 82.1345Z" fill="#00703D"/>
<path d="M114.746 93.0605C103.646 102.907 100.828 96.9659 100.828 96.9659C100.828 96.9659 104.909 99.8195 114.746 93.0605ZM78.0433 63.9173L77.6151 63.4426L78.27 63.5084C78.3399 63.5144 85.2972 64.2402 85.2972 70.8483C85.2972 72.1855 84.5603 72.9356 83.7727 73.7333L83.5298 73.9823C84.3781 74.9855 85.2304 75.9815 86.0939 76.9837C86.3601 76.2569 86.5281 75.2993 86.439 74.042L86.9371 73.9084C86.9978 74.0066 88.1336 75.9876 88.5476 79.813C91.9478 83.7041 95.4219 87.5447 98.8727 91.1686C101.457 91.5654 102.86 94.0333 102 93.5738C101.429 93.265 100.397 93.2265 99.6866 93.2417C100.215 93.7752 100.561 94.4666 100.561 95.3675C100.561 97.6157 99.31 98.1492 98.5286 99.3508C99.0296 99.6737 100.105 100.033 102.416 100.033C106.599 100.033 111.321 97.2959 114.114 95.3027C116.905 93.3096 119.494 91.1332 126.339 88.2715C133.184 85.4058 141.89 80.6106 143.818 79.9881C145.749 79.3656 154.088 76.9695 155.651 75.5068L150.135 72.8526L136.565 79.7593L121.754 88.642L136.377 76.5656H137.839L139.631 75.2578L135.497 74.5725L125.879 82.4165L119.295 89.0773L129.197 75.0087H131.126V74.1372C131.126 74.1372 129.132 72.8911 129.598 70.2167C121.846 83.2031 113.249 93.9119 107.133 93.9119C103.237 93.9119 100.312 90.1776 100.312 89.0155C100.312 88.5175 102.922 93.1648 106.956 93.1648C110.618 93.1648 113.121 89.6259 113.121 89.6259L107.177 81.6938L105.977 82.04C105.977 82.04 106.306 84.9644 103.278 89.3475C102.691 90.1958 102.531 89.1461 102.934 88.3454C103.332 87.5447 104.906 83.7902 104.906 82.1675C100.522 83.6302 99.2584 81.545 98.4931 79.5842C97.7279 77.6214 96.3664 76.7822 94.8388 75.9431C93.3093 75.1009 92.5471 73.4519 91.5146 71.646C90.4841 69.8421 88.9566 69.4038 86.3975 68.0666C83.8395 66.7284 83.7059 64.4893 83.3091 62.7755C82.9072 61.0617 77.1565 57.8913 75.1027 55.969H75.6948L73.6541 54.0598H75.051L74.8941 53.662L77.2618 54.0598C77.2618 54.0598 75.9661 50.8479 75.4276 47.1258C72.1387 45.3908 70.0747 43.0454 68.7922 40.7677L61.768 38.7716L54.7783 37.4961C54.7783 37.4961 66.2696 53.3067 80.6944 70.6074C80.6722 66.8559 78.0706 63.9436 78.0433 63.9173Z" fill="#00703D"/>
<path d="M129.687 48.8986L126.407 59.7259C126.407 64.1363 127.051 67.2086 127.051 71.2829C127.051 71.2829 132.629 63.288 138.45 52.4932C143.024 41.1052 151.339 19.6016 148.958 19.6016C145.953 19.6016 139.228 25.4788 130.165 28.3374C128.023 29.4347 126.695 30.0553 126.695 30.0553L127.051 38.3437L129.687 48.8986Z" fill="#00703D"/>
<path d="M17.451 112.268H18.2223C18.5716 112.268 18.8651 112.494 18.9542 112.793L18.9846 112.986V116.68C18.9846 117.072 18.6414 117.395 18.2223 117.395H17.9814H17.451V112.268ZM20.34 119.175C21.9161 119.175 23.2088 117.965 23.2088 116.485V113.178C23.2088 112.564 22.9851 111.998 22.6115 111.544C22.0852 110.906 21.2622 110.488 20.34 110.488H13.0264V119.175H20.34Z" fill="#00703D"/>
<path d="M32.8305 119.174V118.13V117.632H30.1278H29.5963V115.431H32.0106V114.376V113.877H30.1278H29.5963V112.05H32.8305V110.985V110.484H25.2324V119.174H32.8305Z" fill="#00703D"/>
<path d="M41.2509 119.174V118.13V117.632H39.2577H38.7242V110.985V110.484H34.3604V119.174H41.2509Z" fill="#00703D"/>
<path d="M43.1539 112.009V119.174H47.3174V112.009H50.0242V110.985V110.484H40.4521V112.009H43.1539Z" fill="#00703D"/>
<path d="M54.9839 111.519L55.2846 113.701L55.6126 116.086H54.9546H54.3553L54.9839 111.519ZM50.2172 119.174H53.9292L54.1458 117.599H55.8191L55.8889 118.097L56.0387 119.174H60.4229L58.127 110.985L57.9884 110.484H51.9785L49.542 119.174H50.2172Z" fill="#00703D"/>
<path d="M80.548 45.0613C79.4416 37.0957 86.576 17.8808 106.249 17.8808C112.629 17.8808 115.378 21.0341 115.378 21.0341C115.378 21.0341 112.629 19.4559 109.174 19.4559C93.9302 19.4559 85.6002 35.5591 87.0397 48.7621L93.3228 54.8418C92.8612 46.4582 95.3362 31.9595 107.735 31.0424C108.687 28.3173 109.933 24.3816 108.545 20.1412L108.349 19.545L108.931 19.8538C109.002 19.8892 115.864 23.6315 115.864 32.0982C115.864 32.5638 115.852 32.997 115.835 33.3999C117.656 35.5328 117.344 38.6617 115.938 41.0071L116.297 41.6297L119.34 39.4351C119.34 39.4351 119.185 37.1544 124.423 30.3459C124.423 30.3459 123.966 29.0887 122.926 27.3476C123.264 28.8923 123.361 30.4886 123.361 30.4886C116.783 27.1552 115.995 21.1758 115.995 21.1758C115.995 21.1758 117.222 21.3033 119.111 22.5282C116.107 19.6341 111.656 17.0508 105.366 17.0508C101.68 17.0508 98.4186 17.5225 95.5407 18.3617C79.2563 26.1106 77.9576 39.8835 78.1752 45.5917C78.7897 45.2809 79.563 45.0613 80.548 45.0613Z" fill="#00703D"/>
<path d="M108.847 81.2545C114.885 80.0296 114.41 74.8195 116.756 71.1328C113.929 74.3711 114.356 78.6712 108.847 81.2545Z" fill="#00703D"/>
<path d="M125.49 57.909L127.949 48.4635L126.611 41.4141C126.611 41.4141 125.586 43.6562 125.586 45.5775C125.586 47.5059 124.186 48.7864 124.186 48.7864C124.186 48.7864 125.57 50.5366 125.49 57.909Z" fill="#00703D"/>
<path d="M65.875 91.02C65.0288 89.9439 62.1367 92.6305 62.1367 92.6305C63.4405 94.7036 65.0014 99.0715 66.7203 99.7123C66.7203 99.7123 67.7315 95.8505 66.6919 95.8505C65.6574 95.8505 64.7848 97.2302 64.7848 96.2331C64.7848 95.234 66.7203 92.094 65.875 91.02Z" fill="#00703D"/>
<path d="M149.281 134.783C147.709 138.022 146.366 140.792 145.817 141.922C145.841 138.333 146.825 137.336 148.078 136.082C148.474 135.682 148.883 135.267 149.281 134.783ZM182.146 170.033C182.146 170.033 175.948 173.559 166.595 173.559C151.288 173.559 150.803 162.918 150.803 162.918L139.382 180.214L140.111 163.997L124.802 172.135L117.875 165.649L123.771 154.327L122.857 153.473L95.7058 173.728L92.1183 167.64L93.333 161.952L67.9423 172.59L60.2258 168.04L70.2027 146.183C39.701 165.347 7.04624 177.791 7.04624 177.791L17.6781 170.445L32.4026 130.196H16.7397L14.6656 121.595C59.1477 121.595 89.1888 124.253 89.1888 124.253L91.5059 131.144C86.893 134.863 81.9794 138.429 76.9343 141.815L85.7987 141.435L94.6399 147.909L95.9032 150.335L100.22 140.499L110.855 143.239C104.678 151.954 102.149 161.543 102.149 161.543L121.89 141.061L131.194 144.092L132.831 141.476L138.462 142.847C138.462 142.847 134.406 140.148 134.406 135.527C134.406 133.529 136.049 130.8 136.049 128.772C136.049 126.705 134.441 126.32 134.441 126.32C134.441 126.32 135.523 123.801 139.335 125.444C139.335 119.535 142.662 120.302 142.662 117.749C142.662 116.521 140.681 115.539 140.681 115.539C140.681 115.539 141.541 114.984 142.78 115.436C143.45 115.148 144.323 115.101 144.578 116.616C145.506 117.04 146.155 115.756 145.76 114.981C145.76 114.981 150.017 114.843 150.017 119.635C150.017 123.417 147.425 123.084 147.929 124.831C149.687 122.977 150.598 123.111 150.598 124.253C150.598 137.888 144.486 132.781 144.486 142.058L142.49 143.799L145.88 144.796L159.121 117.511L176.073 120.127L156.36 151.34L157.241 152.165L171.269 143.061L174.492 135.89C185.732 132.589 193.748 134.466 193.748 134.466L181.962 145.964C187.523 155.303 180.02 162.69 180.02 162.69L193.748 158.137L182.146 170.033ZM77.8939 115.694C77.8939 115.694 83.343 119.961 87.636 122.876C86.9254 122.82 85.99 122.748 84.8452 122.662C81.1443 120.148 77.8939 115.694 77.8939 115.694ZM67.4635 107.577C73.8529 108.872 69.899 111.868 76.3755 114.84C67.5303 112.241 72.8255 109.94 67.4635 107.577ZM86.0447 109.273C86.7401 109.925 87.1086 111.328 88.217 111.328C89.3224 111.328 89.4773 112.591 90.6728 112.591C91.8693 112.591 92.1122 111.28 92.1122 110.495C92.1122 109.706 90.8287 108.585 90.8287 107.36C90.8287 106.138 93.0911 104.54 93.0911 102.568C93.0911 100.596 91.8693 98.8721 93.4424 96.883C95.0164 94.8929 94.7947 94.6823 95.8819 95.6996C95.8819 95.6996 95.0164 95.5539 95.0164 96.4052C95.0164 97.2595 93.3755 98.4398 93.7096 99.9967C94.0416 101.554 93.8412 102.052 94.9031 101.28C94.9031 101.28 95.5256 102.114 94.0193 103.522C92.5131 104.935 92.3127 105.91 92.3127 106.885C92.3127 108.422 93.6651 108.422 92.7358 115.433C92.2924 114.812 91.2285 114.003 90.4724 114.003C87.2817 114.003 87.7068 111.411 85.7785 111.411C83.5343 112.39 83.0332 111.554 83.0332 111.554C83.0332 111.554 85.1579 110.1 86.0447 109.273ZM96.3607 125.634C96.3607 125.27 96.8648 125.27 97.3689 125.376C97.8761 125.486 98.36 125.335 98.36 124.665C98.36 124.665 98.45 125.999 97.6463 125.999C96.8415 125.999 96.2463 126.966 96.2463 126.966C96.2463 126.966 96.3607 125.999 96.3607 125.634ZM97.2576 123.137C97.2576 123.137 97.7162 123.89 96.4275 124.324C96.4275 124.324 96.0611 123.312 97.2576 123.137ZM94.5062 125.086C94.5062 125.086 94.3514 123.342 93.9323 122.948C93.5092 122.553 94.0193 121.263 92.5354 121.931C91.0494 122.595 89.7445 120.543 91.1162 118.799C91.1162 118.799 91.0291 121.826 93.6428 120.477C93.6428 120.477 93.5345 122.613 94.9031 122.613C96.2797 122.613 94.5062 125.086 94.5062 125.086ZM90.6525 114.729C93.5092 118.09 89.1453 117.197 89.9207 116.719C90.6981 116.246 90.6525 114.729 90.6525 114.729ZM188.781 158.461C186.651 159.17 184.649 159.834 183.374 160.258C183.709 159.659 184.038 158.995 184.326 158.259C184.878 156.842 185.337 155.05 185.337 153.001C185.337 150.949 184.868 148.636 183.582 146.18C184.469 145.311 191.322 138.633 194.581 135.45C195.619 134.436 196.292 133.778 196.292 133.778L194.071 133.259C193.727 133.179 185.557 131.338 174.095 134.703L173.505 134.875C173.505 134.875 170.468 141.634 170.198 142.242C170.016 142.357 168.934 143.064 167.467 144.012C164.928 145.658 161.239 148.054 159.103 149.44C161.357 145.866 173.19 127.135 177.01 121.085C177.76 119.899 178.202 119.196 178.202 119.196L167.182 117.494L160.859 116.518L175.123 97.2352L173.94 92.1881L169.275 78.2461L147.893 80.8891C136.146 84.2964 128.93 88.2433 128.93 88.2433C128.93 88.2433 134.738 87.4841 136.861 87.4841C138.984 87.4841 149.476 86.7815 150.598 86.7815C151.722 86.7815 155.716 85.7885 161.71 87.4284C167.703 89.0622 172.701 94.5608 172.701 96.3758C172.701 98.1878 171.825 100.818 171.014 100.818C170.201 100.818 171.014 99.5898 171.014 97.0186C171.014 94.4414 167.703 93.2165 167.703 93.2165C171.2 103.276 158.902 114.442 158.902 114.442L158.711 116.186L158.332 116.129C158.332 116.129 155.936 121.073 153.272 126.56C152.608 127.927 151.929 129.323 151.268 130.688C151.606 129.363 151.84 127.705 151.909 125.561C151.92 125.142 151.929 124.709 151.929 124.253L151.885 123.766C151.737 122.873 151.164 122.488 150.812 122.33C151.119 121.666 151.348 120.806 151.348 119.635C151.348 118.722 151.212 117.909 150.947 117.185C150.652 116.39 150.203 115.708 149.596 115.156L149.234 114.866C148.717 114.48 148.178 114.222 147.68 114.053C147.229 113.905 146.813 113.825 146.476 113.781C146.078 113.73 145.794 113.736 145.717 113.736L143.881 113.796C143.881 113.796 144.082 114.306 144.275 114.789C142.419 113.585 140.669 114.036 139.925 114.517L138.136 115.673L140.055 116.642C140.71 116.968 141.316 117.532 141.331 117.749C141.331 118.221 141.162 118.407 140.565 118.962C139.817 119.664 138.789 120.634 138.296 122.725C138.219 123.042 138.157 123.383 138.107 123.76L137.59 123.683C136.787 123.597 136.043 123.671 135.363 123.923C133.83 124.499 133.267 125.72 133.207 125.857L132.656 127.144L134.068 127.517C134.219 127.562 134.717 127.803 134.717 128.772C134.717 129.593 134.329 130.712 133.954 131.794C133.522 133.039 133.074 134.339 133.074 135.527C133.074 137.586 133.771 139.294 134.619 140.623L134.209 140.525C133.45 140.341 132.196 140.035 132.196 140.035C132.196 140.035 132.033 140.29 131.807 140.652C131.44 141.24 130.9 142.1 130.598 142.58C128.972 142.049 121.493 139.612 121.493 139.612C121.493 139.612 119.488 141.693 116.792 144.493C116.226 145.083 115.627 145.697 115.011 146.34C114.174 147.209 113.296 148.117 112.424 149.027C112.083 149.38 111.742 149.73 111.404 150.083L110.622 150.899C110.073 151.465 109.532 152.025 109.008 152.571C108.498 153.099 108 153.616 107.522 154.111C106.718 154.944 105.971 155.718 105.318 156.397C105.662 155.528 106.06 154.585 106.508 153.588C106.804 152.927 107.13 152.236 107.477 151.536C107.757 150.966 108.052 150.388 108.361 149.801C108.555 149.44 108.753 149.081 108.954 148.716C109.174 148.324 109.4 147.927 109.637 147.533C110.084 146.771 110.562 146.005 111.063 145.246C111.356 144.804 111.653 144.365 111.965 143.926L112.632 142.987L112.982 142.494L110.986 141.981L103.059 139.941L99.5079 139.027L99.4411 139.01C99.4411 139.01 99.3429 139.229 99.1799 139.603C98.9663 140.092 98.6383 140.839 98.2557 141.702L97.9075 142.497C97.7577 142.841 97.6038 143.194 97.4449 143.55C97.2029 144.107 96.957 144.665 96.7201 145.205C96.5652 145.558 96.4124 145.898 96.2706 146.228C96.1026 146.611 95.9427 146.972 95.7989 147.295L95.6997 147.109L86.233 140.172L85.9425 140.181C85.4383 140.204 84.3269 140.249 83.1061 140.302C83.1577 139.724 83.2691 139.256 83.4219 138.861C84.254 138.268 85.08 137.672 85.8908 137.073L85.9576 137.076V139.068C98.2749 132.93 101.436 122.796 101.436 122.796L99.1647 123.105L98.9157 121.599L96.5611 122.407L97.3021 121.21C96.7262 120.67 96.2737 119.587 96.2737 119.587C96.2737 119.587 98.9977 116.722 98.9977 113.321C98.9977 107.049 96.5196 107.36 96.5196 100.204C96.5196 97.6088 98.9157 98.4631 98.9157 95.7553C98.9157 94.246 96.6857 92.7367 94.9496 92.7367C93.2156 92.7367 92.4534 94.2288 90.9441 95.6369C89.4378 97.052 90.1596 99.2375 90.1596 101.984C90.1596 104.73 89.1675 106.393 86.6065 106.393C84.0475 106.393 81.3235 105.273 80.0409 104.614C78.7624 103.959 76.7774 103.493 74.7964 103.493C72.8133 103.493 69.2208 102.019 66.5373 100.824C63.8527 99.6201 64.0167 98.7749 63.1087 96.7605C62.1997 94.7501 60.6722 91.3074 59.1426 91.3074C57.6151 91.3074 57.5331 92.6598 57.5331 93.8188C57.5331 96.1056 59.3917 100.744 60.6722 102.408C61.9507 104.068 65.2132 105.931 65.2132 105.931L61.0103 104.374C58.5748 103.253 58.1314 98.5644 57.688 98.5644C57.2446 98.5644 57.0796 100.886 57.0796 103.012C57.0796 104.932 62.634 108.52 67.0809 110.652C67.0809 110.652 70.1774 112.467 71.3931 113.879C72.6048 115.29 73.3266 116.55 76.1113 118.058C76.1113 118.058 71.5875 117.443 70.309 115.261C69.0295 113.081 67.7216 111.975 65.9805 111.177C64.2445 110.377 59.2935 107.461 58.5717 106.141C58.5717 106.141 58.6233 107.63 59.8836 108.814C61.1469 109.994 61.8839 111.239 63.6219 113.265C65.358 115.29 65.8175 115.812 67.5242 116.367C69.1884 116.907 70.5185 117.239 74.0777 121.978C73.3873 121.94 72.6777 121.898 71.9418 121.859C58.7357 121.139 38.7535 120.349 14.6656 120.349H13.0014L15.6768 131.441H30.545C30.4509 131.699 30.2717 132.189 30.0258 132.859C27.3807 140.089 16.7883 169.04 16.5575 169.674L0.917969 181.073L7.54731 178.945C7.62323 178.915 9.46961 178.204 12.637 176.896C22.4945 172.82 45.1612 162.918 67.2448 149.496C66.6466 150.807 65.7983 152.669 64.863 154.718C62.0914 160.792 58.5596 168.526 58.5596 168.526L67.836 173.998C67.836 173.998 68.1862 173.853 68.7936 173.598C72.7961 171.921 88.1654 165.48 91.5271 164.072C91.266 165.288 90.941 166.813 90.7943 167.492L90.7183 167.841L95.2989 175.623C95.2989 175.623 96.1461 174.992 97.5279 173.959C101.767 170.798 111.089 163.844 116.903 159.508C117.739 158.882 118.504 158.312 119.168 157.814C120.09 157.126 120.826 156.574 121.3 156.225C120.971 156.86 120.556 157.658 120.106 158.523C119.687 159.327 119.239 160.187 118.804 161.029C118.349 161.892 117.914 162.737 117.528 163.473C116.792 164.887 116.268 165.901 116.268 165.901L124.578 173.687C124.578 173.687 125.2 173.355 126.19 172.829C129.364 171.145 136.31 167.45 138.679 166.189C138.646 166.922 138.588 168.239 138.516 169.843C138.258 175.546 137.839 184.917 137.839 184.917C137.839 184.917 139.827 181.907 142.247 178.245C145.253 173.69 148.928 168.123 150.272 166.086C150.746 167.257 151.511 168.621 152.721 169.914C154.376 171.685 156.867 173.327 160.622 174.185C162.338 174.574 164.311 174.801 166.595 174.801C176.209 174.801 182.571 171.246 182.834 171.094L183.001 170.999L192.9 160.854L198.314 155.303C198.314 155.303 193.267 156.978 188.781 158.461Z" fill="#00703D"/>
<path d="M145.817 141.917C146.366 140.787 147.709 138.023 149.281 134.781C148.884 135.265 148.475 135.683 148.077 136.08C146.826 137.335 145.841 138.331 145.817 141.917Z" fill="#231F20"/>
<path d="M161.63 106.881C161.63 106.881 165.485 101.593 164.82 93.4995C169.209 98.8524 163.889 106.447 161.63 106.881ZM155.352 88.0991C156.083 88.0545 158.112 88.0049 159.744 88.6477L161.766 91.7564C161.766 100.098 159.174 103.334 159.174 103.334C160.04 95.1991 156.867 90.0446 155.352 88.0991ZM154.156 121.232C154.156 121.232 155.616 116.783 155.817 114.259L156.348 117.743L154.156 121.232ZM114.112 95.3024C111.321 97.2955 106.603 100.033 102.416 100.033C100.106 100.033 99.0309 99.6743 98.5299 99.3514C99.3103 98.1468 100.561 97.6194 100.561 95.3651C100.561 94.4662 100.216 93.7789 99.6869 93.2414C100.398 93.2242 101.427 93.2687 102.001 93.5734C102.859 94.034 101.457 91.563 98.872 91.1693L98.1766 91.1156C98.1766 91.1156 94.3451 87.2477 88.6542 81.1185C88.6258 80.6619 88.5904 80.2287 88.5479 79.8106C88.1349 75.9873 86.9961 74.0093 86.9384 73.9091L86.4403 74.0447C86.5254 75.2999 86.3624 76.2575 86.0931 76.9843C85.9656 77.3316 85.8147 77.6221 85.6578 77.8681C84.7488 76.877 83.8105 75.8425 82.8447 74.7746C83.0563 74.4871 83.2912 74.229 83.5311 73.983L83.774 73.734C84.5575 72.9393 85.2985 72.1862 85.2985 70.848C85.2985 64.2409 78.3412 63.5141 78.2713 63.508L77.6144 63.4463L78.0436 63.918C78.0719 63.9443 80.6734 66.8566 80.6947 70.6081V70.6526C80.6947 71.1122 80.637 71.6406 80.5094 72.171C79.0913 70.5787 77.6316 68.9176 76.1425 67.2099C75.8145 66.3464 75.3195 65.6763 74.6636 65.2015L74.1423 64.8908C73.3001 63.9119 72.4589 62.9239 71.6076 61.9188L71.724 61.7143C72.2129 60.6706 71.7695 59.7302 71.7483 59.6887L71.2421 59.792C71.2421 60.1928 71.0164 60.5249 70.652 60.783C63.2968 52.0137 55.803 42.4052 50.0655 33.4841C50.0655 33.4841 55.9943 36.6282 61.7693 38.7722L68.7904 40.7674C70.075 43.048 72.137 45.3884 75.4289 47.1295C75.9664 50.8506 77.2601 54.0595 77.2601 54.0595L74.8934 53.6657L75.0523 54.0595H73.6554L75.6961 55.9697H75.1039C77.1568 57.8909 82.9085 61.0614 83.3053 62.7761C83.7072 64.4869 83.8378 66.729 86.3978 68.0663C88.9558 69.4045 90.4854 69.8428 91.5148 71.6456C92.5433 73.4525 93.3106 75.1005 94.8381 75.9427C96.3676 76.7859 97.7281 77.6221 98.4924 79.5849C99.2597 81.5456 100.523 83.6299 104.909 82.1682C104.909 83.7929 103.334 87.5474 102.934 88.3481C102.53 89.1457 102.69 90.1995 103.277 89.3482C106.303 84.9651 105.976 82.0406 105.976 82.0406L107.181 81.6904L113.124 89.6296C113.124 89.6296 110.62 93.1644 106.955 93.1644C102.922 93.1644 100.309 88.5171 100.309 89.0162C100.309 90.1752 103.236 93.9115 107.133 93.9115C113.248 93.9115 121.842 83.2027 129.6 70.2163C129.132 72.8917 131.125 74.1368 131.125 74.1368V75.0064H129.198L119.296 89.0779L125.879 82.4172L135.045 73.1408L139.634 75.2554L137.839 76.5663H136.378L121.753 88.6416L136.564 79.76L150.2 71.5839L155.651 75.5044C154.088 76.9692 145.749 79.3652 143.821 79.9888C141.89 80.6113 133.186 85.4064 126.342 88.2681C119.494 91.1328 116.902 93.3102 114.112 95.3024ZM94.6964 91.5094C93.6679 91.5094 92.2801 92.5206 90.8953 93.7485C91.697 92.0793 92.433 90.0952 92.6739 87.2042C94.2814 88.841 95.8959 90.4394 97.5156 91.9933C96.3737 91.6167 95.2288 91.5094 94.6964 91.5094ZM88.5266 103.556C88.3879 102.877 88.2685 102.07 88.2685 101.258C88.2685 99.9416 88.5064 98.8676 88.8748 97.8766C88.8111 99.1672 88.9528 100.501 88.9528 101.474C88.9528 102.086 88.8303 102.865 88.5266 103.556ZM72.7605 101.984C71.4112 101.7 72.3465 100.152 72.6158 98.8463C73.8852 100.071 75.4815 101.249 76.8136 102.153C74.9855 101.996 73.5339 102.147 72.7605 101.984ZM82.037 77.7911L82.0096 77.4024C82.0096 76.8477 82.0916 76.376 82.2222 75.967C82.5684 76.3557 82.9116 76.7444 83.2618 77.1291C82.9176 77.4439 82.5137 77.6808 82.037 77.7911ZM81.3577 86.7203C81.879 86.9663 82.535 86.9015 83.0239 86.5604C83.4794 86.2395 83.7224 85.7212 83.7224 85.0977L83.7072 84.9347L83.9896 85.0977C84.2447 85.3295 84.3723 85.7152 84.3723 86.2486C84.3723 86.7801 84.4877 87.2062 84.5939 87.6192C84.7023 88.0221 84.8065 88.4139 84.8065 88.9028C84.8065 89.576 84.6061 90.4242 83.938 91.7199C82.6818 94.1585 81.7758 96.1122 81.7758 98.162C81.7758 98.8736 81.8912 99.5974 82.1311 100.354H78.3128C77.8249 100.015 74.6525 97.749 74.6525 95.8935V92.797C74.6525 90.9668 73.8649 89.9049 73.291 89.1346C72.9812 88.7196 72.7383 88.3896 72.7322 88.093C72.7514 87.9928 72.8263 87.5534 72.8871 87.0433C73.3608 87.8794 74.2091 88.9797 75.3833 88.9797C75.8581 88.9797 76.1972 88.8411 76.3915 88.5647L76.5646 87.9452C76.5646 87.3672 76.2549 86.6849 76.0464 86.2223L75.9391 85.9794L75.684 85.5552C75.5078 85.2941 75.3165 85.0177 75.3165 84.6239C75.3165 84.22 75.5169 83.6987 76.1334 82.9476C76.9716 81.9252 77.4119 80.9312 77.4119 80.0829L77.3269 79.4755C77.2145 79.0838 76.9776 78.7669 76.6557 78.5169C76.9938 78.4815 77.3846 78.4997 77.6518 78.6748C77.9069 78.8439 78.0375 79.1516 78.0375 79.597C78.0375 80.2671 77.7794 81.0446 77.5273 81.8007C77.1852 82.8292 76.8865 83.722 77.2985 84.2504C77.4979 84.5025 77.834 84.63 78.3017 84.63C78.8949 84.63 79.3706 84.4579 79.7259 84.1229C80.3789 83.4963 80.4578 82.4708 80.4578 81.7056L80.4548 81.3412L80.4517 81.1063V80.9494C80.4517 80.1578 80.4183 78.9623 79.6014 77.8802C80.6279 78.0938 82.4884 78.8287 82.4884 81.3584C82.4884 82.1085 82.0592 82.6875 81.5986 83.3009C81.1117 83.9508 80.6097 84.6239 80.6097 85.5309C80.6097 86.0674 80.883 86.4976 81.3577 86.7203ZM77.8138 72.1973C77.8138 73.6773 77.4149 74.6268 76.9878 75.3678C76.7134 75.3323 76.51 75.2341 76.3703 75.0803L76.2822 74.9588C76.6436 74.4456 76.8835 73.823 76.8835 73.081C76.8835 72.4585 76.7357 71.9513 76.4978 71.5272C76.5737 71.1031 76.6314 70.682 76.6314 70.3084C76.6314 70.024 76.6223 69.7507 76.6031 69.4875C76.9189 69.861 77.2428 70.2376 77.5617 70.6141C77.7186 71.0889 77.8138 71.6163 77.8138 72.1973ZM70.9202 95.353L70.9142 95.2315C70.9142 94.4784 71.0528 93.7252 71.2219 92.9478L71.3525 92.382C71.6126 91.2543 71.8788 90.0922 71.8788 88.752C71.8788 87.269 71.2836 85.457 70.8038 84.0004C70.4546 82.9426 70.1549 82.0315 70.1549 81.5122C70.1549 80.7652 69.9505 79.7478 69.7652 78.9684C70.0051 79.3237 70.2187 79.7033 70.4242 80.0748C70.8129 80.7682 71.2138 81.4889 71.7908 82.0285C72.1947 82.4081 72.7929 82.8919 73.3061 82.6905C73.7657 82.5123 73.9682 81.8918 73.9682 80.6791C73.9682 79.5312 73.4823 78.4815 73.0541 77.5532C72.6907 76.7677 72.3495 76.0267 72.3495 75.3475C72.3495 74.7806 72.6411 74.3241 73.0095 73.7491C73.5774 72.8644 74.281 71.7671 74.281 69.7244C74.281 67.1765 72.6684 65.6085 71.7847 64.9404C72.4275 64.9019 73.461 64.9616 74.3447 65.5994C75.5078 66.4416 76.099 68.0248 76.099 70.3084C76.099 70.851 75.9664 71.5151 75.8409 72.1589C75.5969 73.408 75.3398 74.7007 75.9603 75.3971C76.2518 75.7241 76.7043 75.887 77.3066 75.887C80.1632 75.887 81.2271 72.6782 81.2271 70.6526C81.2271 67.5915 79.6399 65.1276 78.8635 64.1042C80.5186 64.4393 84.766 65.7856 84.766 70.848C84.766 71.9928 84.1263 72.6427 83.3863 73.3959C82.4884 74.3028 81.4772 75.3293 81.4772 77.4024C81.4772 77.699 81.5146 77.9743 81.5784 78.2234C80.4214 77.3548 78.988 77.2981 78.9637 77.2981L78.2926 77.2749L78.7673 77.7193C79.9203 78.7993 79.9203 80.1993 79.9203 81.0324V81.3462C79.9355 82.0346 79.9557 83.1885 79.3494 83.7696C79.0943 84.0125 78.7501 84.131 78.3017 84.131C78.0132 84.131 77.8198 84.0692 77.7277 83.9538C77.4757 83.6329 77.7611 82.7755 78.0344 81.9485C78.2865 81.1954 78.5699 80.3441 78.5699 79.597C78.5699 78.9826 78.3624 78.5321 77.9555 78.2649C77.1629 77.7466 75.9218 78.1555 75.8692 78.1768L75.2203 78.3924L75.8611 78.6394C76.3652 78.8317 76.6831 79.1546 76.8136 79.6061C77.0434 80.4007 76.6436 81.5102 75.7113 82.646C74.2648 84.4073 74.8519 85.2617 75.2375 85.8214L75.4441 86.1595L75.5564 86.4207C75.7751 86.8955 76.2286 87.8946 75.9482 88.2894C75.8581 88.4169 75.6698 88.4817 75.3833 88.4817C73.9044 88.4817 72.9569 85.9794 72.9488 85.952L72.4326 86.035C72.4326 86.7588 72.2068 88.0312 72.2038 88.0464L72.2007 88.0667V88.0879C72.2007 88.5414 72.5054 88.9473 72.8537 89.4191C73.4155 90.1752 74.12 91.1217 74.12 92.797V95.8935C74.12 98.1499 77.9099 100.701 78.0719 100.807L78.1407 100.852H82.8599L82.7405 100.523C81.6766 97.6012 82.6656 95.3297 84.4178 91.9335C85.6497 89.5436 85.3774 88.506 85.1132 87.4998C85.0039 87.0969 84.9047 86.7173 84.9047 86.2486C84.9047 85.5694 84.7185 85.0562 84.348 84.7272C83.9228 84.3567 83.4157 84.383 83.3944 84.3861L83.0968 84.4012L83.1484 84.6766C83.279 85.3416 83.1201 85.866 82.702 86.1626C82.3801 86.3883 81.9347 86.4359 81.5936 86.278C81.302 86.1393 81.1411 85.8751 81.1411 85.5309C81.1411 84.7839 81.5754 84.1998 82.0339 83.5884C82.5198 82.9365 83.0239 82.2633 83.0239 81.3584C83.0239 80.6619 82.8933 80.0859 82.6848 79.6092C83.3276 79.8966 84.1313 79.8197 84.8551 79.3865C86.0881 78.6505 86.8351 77.1504 86.9657 75.2645C87.4668 76.5835 88.1622 79.0635 88.1622 82.6369C88.1622 87.678 86.7804 90.2906 85.5597 92.5956C84.5889 94.4308 83.6708 96.1689 83.6708 98.7785C83.6708 100.514 84.1536 102.144 84.3692 102.779C84.0321 102.817 82.3831 103.025 81.132 103.183C80.0144 102.717 78.9394 102.447 77.9444 102.29C76.4087 101.293 74.2121 99.7482 72.6795 98.2035C72.1947 97.7166 71.7786 97.2277 71.4719 96.756C71.15 96.264 70.9526 95.7893 70.9202 95.353ZM69.9262 97.2186C69.9262 96.6993 70.2056 96.3794 70.5153 95.9735C70.6074 96.2519 70.7431 96.5394 70.9233 96.8299C70.3817 96.9605 69.9262 97.2186 69.9262 97.2186ZM69.3988 77.7162L68.6872 77.0491L68.9554 77.9602C68.9615 77.9743 69.2854 79.0959 69.4828 80.2024L68.9726 79.9108C68.9301 79.8875 67.9523 79.3207 67.9523 78.0219C67.9523 77.6727 68.1881 77.1291 68.4169 76.6017C68.6598 76.0348 68.8947 75.4953 68.8947 75.0863L68.8633 74.6207L68.918 74.6086C69.0485 74.5731 71.6572 73.8615 72.5318 71.9311L73.1664 72.4352C72.9721 72.8411 72.7545 73.1792 72.552 73.494C72.1582 74.1075 71.8181 74.644 71.8181 75.3475C71.8181 75.9549 72.0368 76.5663 72.3172 77.201L72.2584 77.2749L72.3404 77.2536L72.5662 77.7527C72.9174 78.5119 73.2727 79.2913 73.3922 80.1244L72.7514 79.5262L73.0176 80.4362C73.0237 80.4453 73.1867 81.0111 73.3517 81.7319C73.2727 82.1236 73.1513 82.2097 73.1027 82.2299C73.045 82.2512 72.8041 82.2775 72.1673 81.6762C71.645 81.1893 71.2836 80.5344 70.8949 79.843C70.4829 79.099 70.0537 78.3307 69.3988 77.7162ZM68.4715 65.7593C68.2661 65.3645 68.1415 64.9343 68.1851 64.5668C68.2377 64.1336 68.4958 63.8461 68.9817 63.6983C69.8108 63.4372 70.4627 63.0991 70.9526 62.6871C71.2887 63.1021 71.6298 63.5171 71.9699 63.9322C70.8251 63.9888 69.3957 64.6802 68.4715 65.7593ZM73.4641 69.2972C72.8385 68.9439 72.1552 67.8385 72.2503 67.0459L72.5631 66.4294C73.1422 67.1562 73.6706 68.1553 73.7404 69.4338L73.4641 69.2972ZM70.2602 71.6315C70.2602 69.4369 68.423 68.7668 66.8023 68.1736C65.293 67.6219 63.9923 67.1471 63.9923 65.6641C63.9923 63.5434 66.4612 61.9481 68.0606 61.9481C69.419 61.9481 70.7815 61.5452 71.4112 60.7708L71.233 61.5209C70.8858 62.2599 70.0719 62.8318 68.8117 63.2236C67.9522 63.4969 67.7093 64.0749 67.6577 64.5132L67.6455 64.7237C67.6455 65.7056 68.3875 66.8303 69.1245 67.2453L69.7177 67.548C70.8008 68.0663 72.2858 68.7809 72.2858 70.605C72.2858 72.4382 70.5092 73.4434 69.4828 73.8767C69.829 73.2977 70.2602 72.42 70.2602 71.6315ZM67.2406 34.048C68.2924 35.5927 70.9202 38.6123 75.8814 39.5871C75.7832 40.1155 75.7083 40.6399 75.6445 41.1652C71.1986 40.6702 67.7275 35.6139 67.7275 35.6139C67.7275 35.6139 69.2186 42.221 75.4896 43.0956C75.444 44.3205 75.4926 45.519 75.6475 46.675C68.7145 42.9863 67.4633 36.53 67.2406 34.048ZM95.5386 18.3629C98.4175 17.5237 101.679 17.0489 105.363 17.0489C111.653 17.0489 116.104 19.6373 119.114 22.5294C120.825 24.1783 122.074 25.9245 122.926 27.3488C123.966 29.0889 124.423 30.3471 124.423 30.3471C119.191 37.1556 119.34 39.4363 119.34 39.4363L116.297 41.6309L115.935 41.0114C117.341 38.6619 117.656 35.537 115.835 33.4042C115.852 32.9982 115.861 32.565 115.861 32.0993C115.861 23.6297 109.002 19.8894 108.93 19.857L108.349 19.5462L108.545 20.1444C109.936 24.3828 108.687 28.3216 107.738 31.0405C95.3361 31.9566 92.8591 46.4614 93.3227 54.843L87.0376 48.7603C85.6001 35.5603 93.9291 19.4571 109.171 19.4571C112.626 19.4571 115.375 21.0342 115.375 21.0342C115.375 21.0342 112.626 17.879 106.246 17.879C86.577 17.879 79.4435 37.0969 80.5459 45.0655C79.565 45.0655 78.7876 45.2811 78.1772 45.5898C76.6618 46.3582 76.1769 47.6954 76.1769 47.6954C75.5281 38.2884 79.9142 22.9211 95.5386 18.3629ZM109.233 20.6435C110.84 21.7226 115.33 25.3526 115.33 32.0993C115.33 37.0372 114.304 37.9148 111.424 37.9148C108.933 37.9148 107.409 35.4479 107.409 34.1036C107.409 33.5641 107.708 32.6986 108.1 31.6043C108.779 29.6739 109.701 27.0603 109.701 24.1044C109.701 22.992 109.556 21.8289 109.233 20.6435ZM89.9084 60.9105C89.1492 61.1889 88.0984 61.3914 86.6752 61.3914C82.8569 61.3914 84.0706 58.9558 84.9766 58.5914C85.5222 58.5115 86.3948 58.4608 87.3301 58.4578C87.5761 59.1107 88.2229 60.1898 89.9084 60.9105ZM89.9812 58.6066C90.9439 58.7423 91.6393 58.9801 91.6393 59.3628L91.4602 59.8426C90.4742 59.5045 90.1118 58.9741 89.9812 58.6066ZM91.0998 60.2434L90.5491 60.62C88.8698 60.0329 88.1794 59.0834 87.901 58.4608C88.4173 58.47 88.9335 58.4963 89.4134 58.5408C89.5146 58.9973 89.8689 59.7626 91.0998 60.2434ZM98.7303 76.1178C99.9055 76.1178 100.03 75.3384 101.309 75.3384C102.904 75.3384 103.675 79.4695 103.675 79.5525C103.675 79.6355 103.788 81.0648 101.862 81.0648C99.9329 81.0648 100.156 79.9473 99.3123 78.4734C98.7272 77.4469 97.9883 76.7859 97.0408 76.2221C96.1682 75.2847 94.001 72.829 95.238 72.829C96.2492 72.829 96.8637 76.1178 98.7303 76.1178ZM109.221 68.295L109.82 68.9469C109.114 69.3033 108.349 69.615 107.579 69.8782L109.221 68.295ZM108.871 67.9154L107.62 69.1251C107.872 68.6271 108.132 68.0308 108.426 67.4376L108.871 67.9154ZM110.23 66.6106L109.245 67.5621L108.678 66.9487C108.891 66.5509 109.129 66.1652 109.393 65.8241L110.23 66.6106ZM110.603 66.2513L109.726 65.4333C110.241 64.8989 110.858 64.5436 111.641 64.5436L112.263 64.6529L110.603 66.2513ZM111.549 67.8466C111.184 68.1493 110.757 68.4347 110.291 68.6949L109.595 67.9387L110.609 66.9629L111.549 67.8466ZM110.977 66.6045L112.682 64.9647L112.853 65.569C112.853 66.2816 112.501 66.9244 111.931 67.4974L110.977 66.6045ZM97.5915 73.6449C97.5915 72.9808 98.463 72.5506 99.8509 72.5506C101.239 72.5506 102.385 70.9694 103.96 70.6374C105.538 70.3024 105.917 69.9501 105.917 69.9501C105.917 69.9501 105.704 70.9168 104.53 71.5809C103.36 72.2419 101.946 73.494 100.585 73.494C99.2253 73.494 97.5915 74.6409 97.5915 73.6449ZM98.8163 74.4101C99.4136 74.1783 101.294 73.7188 102.518 73.3128C103.743 72.9059 104.434 72.586 105.129 71.9362C105.822 71.2873 109.022 69.8721 109.022 69.8721C108.343 71.5272 107.498 73.5436 104.909 73.5436C102.326 73.5436 99.6312 75.5338 98.542 75.5338C97.4548 75.5338 97.4548 74.229 97.4548 74.229C97.4548 74.229 98.2171 74.6409 98.8163 74.4101ZM108.847 81.2551C114.355 78.6718 113.931 74.3717 116.757 71.1334C114.405 74.8191 114.885 80.0303 108.847 81.2551ZM117.857 70.7538L119.803 69.0482V82.1388C117.235 86.0978 114.399 88.1851 114.399 88.1851L117.857 70.7538ZM126.273 73.0163L122.952 78.1201L123.815 66.5418L125.146 65.2967C125.146 68.8467 126.273 70.4805 126.273 73.0163ZM126.143 38.6447C126.143 41.2745 124.604 42.7879 124.604 45.8834C124.604 47.7581 122.335 48.404 122.335 48.404C124.755 50.062 124.18 60.042 124.18 60.042L125.414 59.1755C125.718 59.9701 125.526 64.5051 125.526 64.5051C122.798 66.1268 117.026 70.4157 117.026 70.4157C117.026 70.4157 119.182 66.9933 122.139 63.752C125.105 60.5097 122.489 58.1673 122.489 58.1673V61.444C122.489 62.3105 120.144 65.4091 117.756 68.1432C115.372 70.8834 114.684 72.6842 113.72 74.5225C112.756 76.3588 111.356 78.4491 111.356 78.4491C111.018 77.4378 111.255 75.1309 111.421 73.4991C111.587 71.8653 115.277 70.7447 115.277 66.4952C115.277 64.2379 114.244 62.6364 111.504 62.6364C108.764 62.6364 107.664 64.2703 106.689 66.2452C105.704 68.2242 104.411 69.4844 104.411 69.4844C108.498 68.209 106.92 63.4756 111.587 63.4756C113.746 63.4756 114.461 64.659 114.461 66.3231C114.461 67.9893 114.112 68.6119 111.985 70.605C109.861 72.5951 110.473 74.0751 110.274 76.5663C110.075 79.0544 107.916 79.5049 107.068 79.5049C106.22 79.5049 105.971 79.5525 104.725 78.3843C103.48 77.2182 103.414 75.3971 103.414 74.727C103.414 74.0599 104.144 74.1996 105.526 74.1996C106.902 74.1996 108.046 72.8442 108.794 71.679C109.544 70.5099 109.595 69.858 112.033 67.9741C114.479 66.0913 113.681 64.0212 111.57 64.0212C109.458 64.0212 108.764 65.9516 108 67.4761C107.234 69.0006 105.656 69.8276 103.776 70.2163C101.9 70.605 100.571 72.2064 98.293 72.2064C97.0813 72.2064 96.5833 71.679 95.6206 71.679C94.6549 71.679 94.2237 72.2064 94.2237 73.1408C94.2237 74.0923 94.8189 74.8636 95.49 75.4366C94.0232 74.7209 93.757 73.9799 92.268 71.2934C90.7202 68.4934 89.1674 68.5532 86.7278 67.2271C84.2933 65.896 84.2265 64.4869 84.1394 63.5141C84.0504 62.5383 83.9167 60.9581 81.3263 59.546C78.7329 58.1379 79.7755 56.6873 83.0968 56.6873C86.4201 56.6873 88.3677 58.1167 88.3677 58.1167C82.369 57.7431 80.7038 58.5945 80.7038 58.5945L84.0706 58.8637C83.0209 59.8487 83.5554 60.8781 83.5554 60.8781C83.5554 60.8781 84.2731 61.9188 87.0355 61.9188C90.1908 61.9188 92.3408 60.4064 92.3408 60.4064C92.3408 60.4064 94.7106 60.7091 94.7106 64.2702C94.7106 67.8324 93.8127 68.2029 93.8127 69.3448C93.8127 70.4866 95.3888 71.1243 95.3888 71.1243C95.3888 71.1243 95.6783 70.8571 97.0378 70.8571C98.4023 70.8571 98.4398 71.6608 98.4398 71.6608C98.9064 70.8864 98.4398 69.9825 98.4398 69.9825C94.8523 68.9419 95.4991 66.0174 95.4991 63.6659C95.4991 56.1741 83.0178 56.0405 78.159 54.3652C78.159 54.3652 76.5252 49.8424 76.5252 48.5052C76.5252 47.8027 78.2288 45.765 80.1663 45.765C83.7021 45.765 88.31 51.4853 94.2783 57.0761C93.428 42.7464 99.2314 32.731 107.376 32.0669C107.086 32.9152 106.878 33.6026 106.878 34.1036C106.878 35.5694 108.479 38.4129 111.424 38.4129C113.729 38.4129 114.933 37.7751 115.484 35.8862C115.924 36.8236 116.078 37.7336 116.078 38.3744C116.078 40.3109 114.841 41.2037 114.841 41.2037C116.926 43.6534 118.032 47.8857 117.145 52.203C118.788 48.9232 121.624 48.5943 121.624 48.5943C121.624 47.3067 120.161 42.7433 120.161 40.1276C120.161 37.5119 123.441 33.8161 125.372 29.7478C125.372 30.5749 126.143 35.044 126.143 38.6447ZM127.946 48.4667L125.491 57.9092C125.568 50.5368 124.186 48.7866 124.186 48.7866C124.186 48.7866 125.586 47.503 125.586 45.5807C125.586 43.6564 126.611 41.4112 126.611 41.4112L127.946 48.4667ZM130.161 28.3388C135.096 25.8091 144.328 20.7467 151.445 14.9545C151.061 26.4944 144.615 41.062 138.451 52.4935C132.626 63.2894 127.051 71.2843 127.051 71.2843C127.051 67.2099 126.41 64.1366 126.41 59.7272L129.686 48.9L127.051 38.345L126.694 30.0556C126.694 30.0556 128.023 29.433 130.161 28.3388ZM127.934 114.974L128.071 116.406C125.028 119.986 123.966 123.984 122.377 129.194C120.342 128.331 118.37 127.874 116.522 127.539C115.81 127.405 115.034 127.255 114.218 127.098C122.317 124.366 124.31 117.067 127.934 114.974ZM66.7223 99.7098C65.0035 99.069 63.4416 94.7011 62.1368 92.6279C62.1368 92.6279 65.0319 89.9444 65.8751 91.0174C66.7223 92.0945 64.7859 95.2315 64.7859 96.2306C64.7859 97.2277 65.6554 95.849 66.695 95.849C67.7306 95.849 66.7223 99.7098 66.7223 99.7098ZM64.9073 77.4348C64.8699 77.4115 64.0874 76.957 63.9224 75.9316C64.4731 75.7413 65.1857 75.5105 65.4894 75.7089C65.6261 75.798 65.6989 75.9994 65.6989 76.3082L65.6554 77.1736L65.62 77.8357L64.9073 77.4348ZM62.4799 76.8153C62.1641 76.4974 62.0821 76.0591 62.0821 75.5398C62.0821 75.2878 62.1034 75.0155 62.1256 74.73L62.1641 73.8321C62.1641 73.3483 62.0183 73.0132 61.7268 72.8209C61.1832 72.4646 60.341 72.7581 59.599 73.0132C59.269 73.1225 58.936 73.242 58.7669 73.242C58.0108 73.242 57.7789 73.0608 57.7789 72.4615C57.7789 72.1295 58.0371 71.7347 58.3185 71.4057L58.3134 71.4685L58.5068 72.1619L59.0777 72.417C59.5292 72.417 59.8399 72.0667 60.172 71.6993C60.6548 71.1628 61.1984 70.5575 62.3169 70.5575C63.9518 70.5575 64.2959 71.673 64.2959 72.6103C64.2959 72.9211 64.0732 73.4374 63.8586 73.9384C63.6096 74.5104 63.3576 75.0985 63.3576 75.5459C63.3576 76.4033 63.7139 76.9904 64.05 77.3639C63.3029 77.2981 62.7806 77.118 62.4799 76.8153ZM167.703 93.212C167.703 93.212 171.013 94.4399 171.013 97.0141C171.013 99.5883 170.201 100.816 171.013 100.816C171.825 100.816 172.698 98.1853 172.698 96.3703C172.698 94.5583 167.703 89.0627 161.713 87.4259C155.716 85.786 151.725 86.7831 150.598 86.7831C149.476 86.7831 138.984 87.4826 136.86 87.4826C134.738 87.4826 128.93 88.2418 128.93 88.2418C128.93 88.2418 136.149 84.297 147.893 80.8866C154.188 79.0635 161.783 77.3872 170.271 76.5663L173.94 92.1825L175.123 97.2338L160.858 116.516L167.181 117.491L180.052 99.4729L175.046 78.4076L172.122 78.603L171.164 75.635L156.855 74.9709L150.013 70.436L140.835 74.3859L134.87 72.2358L136.244 66.9781C157.911 32.6126 155.992 13.8137 155.992 13.8137L151.849 18.9085L152.169 13.0039C143.984 20.6729 127.323 28.3631 127.323 28.3631C127.323 28.3631 120.805 15.9304 104.61 15.9304C88.31 15.9304 78.2713 27.8225 75.9795 39.0921C75.608 39.0182 75.2558 38.9322 74.9126 38.84C71.9396 36.69 70.3027 33.5469 70.3027 33.5469C70.3027 33.5469 70.1843 35.1007 70.5467 36.7284C68.1527 34.955 67.188 32.9476 67.1688 32.9152L66.6616 33.0043C66.6586 33.0569 66.5857 36.0765 68.1679 39.5436C58.77 37.3905 47.2959 31.3584 47.2959 31.3584C47.2959 31.3584 56.6614 45.029 69.75 61.2071C69.2338 61.3701 68.6426 61.4501 68.0606 61.4501C66.2091 61.4501 63.4608 63.2175 63.4608 65.6641C63.4608 67.4883 65.0582 68.0723 66.6059 68.6362C66.9774 68.7728 67.3449 68.9085 67.6921 69.0573C68.0049 69.8489 68.7266 70.3145 69.5618 70.682C69.668 70.9553 69.7288 71.2691 69.7288 71.6315C69.7288 72.5385 69.0253 73.654 68.7418 74.0629C68.423 73.081 67.603 72.5385 66.3822 72.5385C65.6929 72.5385 65.1796 72.7348 64.7717 72.995L64.8274 72.6103C64.8274 70.9907 63.9133 70.0594 62.3169 70.0594C60.9524 70.0594 60.2661 70.8217 59.7681 71.3825C59.5069 71.6699 59.2832 71.9189 59.0777 71.9189L58.936 71.8623C58.7791 71.6669 58.8631 71.0676 58.9694 70.7204L59.2194 69.9116L58.5381 70.4653C58.4076 70.5726 57.2485 71.5454 57.2485 72.4615C57.2485 73.5943 58.0583 73.737 58.7669 73.737C59.0311 73.737 59.3763 73.6155 59.7812 73.4789C60.339 73.2886 61.1063 73.0254 61.4241 73.2298C61.5628 73.322 61.6327 73.5264 61.6327 73.8321L61.6246 74.0305C61.4444 74.315 61.3108 74.6268 61.3108 74.9375C61.3108 75.3262 61.4079 75.5965 61.5628 75.7889C61.5901 76.3021 61.7177 76.7859 62.0912 77.1564C62.5893 77.6545 63.4669 77.8944 64.7687 77.8944H65.62C65.6088 78.5473 65.6959 79.1698 66.1575 79.6324C66.6555 80.1305 67.5301 80.3734 68.837 80.3734H69.5101C69.5759 80.7834 69.6225 81.1802 69.6225 81.5122C69.6225 82.1054 69.9353 83.0519 70.2936 84.1461C70.7613 85.5724 71.3474 87.3459 71.3474 88.752C71.3474 90.0355 71.0832 91.1743 70.8342 92.2777L70.7896 92.468C69.6832 91.8718 67.2457 93.0015 67.2457 93.0015C68.5262 90.49 66.6616 89.3654 65.539 89.3654C64.4113 89.3654 61.8098 91.1804 61.8098 91.1804C61.8098 91.1804 60.9949 90.2015 58.8601 90.2015C55.9882 90.2015 55.6755 94.5998 56.218 95.9462C56.7616 97.2925 56.956 97.9839 55.7919 100.277C54.6267 102.565 55.8293 104.202 56.6644 104.986C57.4986 105.765 57.1503 105.439 57.1503 107.477C57.1503 109.512 60.92 112.349 62.4303 114.751C63.9457 117.151 64.4903 117.296 66.7041 117.915C68.3906 118.384 70.8595 120.751 71.9426 121.857C72.6765 121.896 73.3861 121.934 74.0785 121.976C70.5184 117.234 69.1882 116.904 67.5241 116.362C65.8174 115.813 65.3588 115.292 63.6218 113.263C61.8847 111.237 61.1437 109.994 59.8835 108.811C58.6201 107.628 58.5705 106.14 58.5705 106.14C59.2943 107.459 64.2443 110.377 65.9824 111.172C67.7184 111.975 69.0303 113.079 70.3088 115.261C71.5873 117.442 76.1132 118.055 76.1132 118.055C73.3284 116.549 72.6046 115.292 71.393 113.88C70.1782 112.465 67.0807 110.653 67.0807 110.653C62.6358 108.514 57.0805 104.929 57.0805 103.011C57.0805 100.884 57.2435 98.5619 57.6868 98.5619C58.1302 98.5619 58.5736 103.251 61.0101 104.371L65.212 105.929C65.212 105.929 61.9515 104.07 60.671 102.405C59.3905 100.742 57.533 96.101 57.533 93.8204C57.533 92.6573 57.615 91.3019 59.1415 91.3019C60.671 91.3019 62.1975 94.7456 63.1085 96.759C64.0155 98.7694 63.8495 99.6207 66.5371 100.819C69.2186 102.02 72.8152 103.491 74.7972 103.491C76.7772 103.491 78.7613 103.953 80.0387 104.612C81.3233 105.27 84.0473 106.392 86.6084 106.392C89.1674 106.392 90.1604 104.725 90.1604 101.984C90.1604 99.235 89.4346 97.0495 90.9439 95.6384C92.4532 94.2233 93.2154 92.7373 94.9484 92.7373C96.6835 92.7373 98.9155 94.2445 98.9155 95.7508C98.9155 98.4617 96.5195 97.6073 96.5195 100.202C96.5195 107.358 98.9965 107.05 98.9965 113.316C98.9965 116.721 96.2705 119.586 96.2705 119.586C96.2705 119.586 96.727 120.665 97.304 121.21L96.562 122.406L98.9155 121.596L99.1615 123.102L101.433 122.795C101.433 122.795 98.2717 132.925 85.9544 139.067V137.074L85.8907 137.071C85.0788 137.67 84.2538 138.263 83.4187 138.859C83.2669 139.251 83.1575 139.725 83.1059 140.298C84.3227 140.25 85.4382 140.203 85.9423 140.181L86.2318 140.167L95.6996 147.103L95.7998 147.297C95.9425 146.968 96.1014 146.605 96.2705 146.223L90.4307 141.015L88.3353 139.147C88.9669 138.85 89.5733 138.541 90.1584 138.222L97.4457 143.548C97.6036 143.189 97.7585 142.842 97.9073 142.495L93.508 139.437L91.0451 137.72C91.9228 137.204 92.7376 136.671 93.4969 136.122L99.1797 139.603C99.3437 139.23 99.4399 139.007 99.4399 139.007L99.5067 139.022L99.2344 138.492C98.8305 138.114 98.457 137.584 99.3964 137.584C100.202 137.584 101.518 138.212 103.059 139.938L110.989 141.982C109.912 141.24 108.818 140.324 107.726 139.188C104.316 135.621 98.8912 134.924 96.647 133.485C97.055 133.085 97.4396 132.687 97.797 132.291C99.3903 132.626 104.019 133.871 107.631 137.634C107.631 137.634 110.425 138.257 113.05 140.187C113.05 140.187 108.212 134.527 99.2192 130.579C100.738 128.575 101.712 126.652 102.341 125.063C105.046 125.76 116.659 128.758 118.456 129.345C120.44 129.998 126.605 133.871 131.807 140.647C132.036 140.289 132.193 140.03 132.193 140.03C132.193 140.03 133.447 140.339 134.209 140.519C130.817 134.761 127.258 131.656 123.829 129.876C123.516 129.713 123.195 129.559 122.881 129.414C124.666 123.678 125.929 118.298 129.583 117.136C130.058 116.987 130.567 116.904 131.125 116.904C135.894 116.904 137.306 122.323 137.584 123.681L138.11 123.758C138.157 123.385 138.219 123.041 138.296 122.723C136.893 113.947 132.388 112.424 132.388 112.424C132.388 108.814 143.29 99.7634 143.29 99.7634C138.237 102.877 132.566 108.269 132.566 108.269C132.566 102.753 139.613 96.8602 139.613 96.8602C133.409 99.2654 131.013 106.527 131.013 106.527C129.245 101.175 135.182 92.2544 135.182 92.2544C129.022 96.5687 129.376 104.413 129.376 104.413C127.249 100.676 129.6 94.8671 129.6 94.8671C125.389 99.1409 127.827 107.607 127.827 107.607C124.458 104.455 124.324 97.3583 124.324 97.3583C121.712 102.919 129.153 111.237 129.153 111.237C126.949 112.521 125.226 114.885 125.226 114.885C124.168 121.934 115.099 125.736 112.371 126.729C111.834 126.62 111.291 126.511 110.751 126.4C107.21 125.671 103.77 124.926 102.501 124.651C103.296 122.509 103.435 121.08 103.435 121.08C100.252 121.842 100.871 119.66 100.871 119.66C100.871 119.66 99.2799 120.751 99.2799 119.876C99.2799 119.005 98.4236 119.04 98.4236 119.04C98.4236 119.04 100.367 116.747 100.367 113.225C100.367 112.791 100.358 112.382 100.344 111.994C100.3 110.867 100.199 109.905 100.063 109.084C102.967 106.4 108.257 101.786 114.23 97.9181C107.877 99.9466 101.465 105.119 99.5037 106.789C98.8001 104.642 97.9195 103.63 97.9195 101.62C97.9195 101.219 97.9589 100.867 98.0288 100.558C98.7444 101.033 100.167 101.694 102.501 101.694C107.465 101.694 115.045 95.5524 124.082 90.2613C128.337 88.8289 133.055 89.3269 135.514 89.3269C137.679 89.3269 144.841 88.0221 149.877 87.7134C151.549 89.2176 156.117 94.1879 156.117 103.645C156.117 109.506 149.251 111.697 146.478 113.781C146.813 113.82 147.231 113.904 147.68 114.052L149.498 113.12L149.233 114.861L149.595 115.158C150.206 115.71 150.654 116.389 150.944 117.184C151.629 116.996 152.706 116.51 153.343 115.206C153.343 115.206 153.901 120.211 151.885 123.764L151.929 124.253C151.929 124.704 151.92 125.143 151.908 125.558L153.272 126.557C155.93 121.074 158.332 116.125 158.332 116.125L158.711 116.183L158.902 114.44C158.902 114.44 171.203 103.274 167.703 93.212Z" fill="#231F20"/>
<path d="M116.79 144.488C115.577 144.269 114.154 143.803 112.632 142.988L111.961 143.928C111.654 144.361 111.357 144.803 111.066 145.245C112.442 145.758 113.813 146.15 115.01 146.339C115.628 145.698 116.223 145.079 116.79 144.488Z" fill="#231F20"/>
<path d="M108.364 149.797L110.621 150.894L111.403 150.082L108.954 148.715C108.752 149.08 108.556 149.441 108.364 149.797Z" fill="#231F20"/>
<path d="M105.318 156.394C105.971 155.715 106.718 154.94 107.525 154.104L106.505 153.586C106.056 154.582 105.666 155.522 105.318 156.394Z" fill="#231F20"/>
<path d="M183.373 160.257C184.649 159.83 186.653 159.169 188.783 158.46C189.13 157.283 189.379 155.921 189.379 154.417C189.379 152.365 188.907 150.052 187.62 147.596C188.581 146.665 196.449 138.987 199.304 136.202L198.113 135.921C197.979 135.895 196.719 135.609 194.58 135.449C191.321 138.632 184.47 145.31 183.578 146.179C184.868 148.635 185.336 150.948 185.336 153C185.336 155.049 184.879 156.84 184.323 158.258C184.034 158.994 183.705 159.658 183.373 160.257Z" fill="#231F20"/>
<path d="M97.5283 173.956L99.3443 177.04C99.3443 177.04 109.738 169.285 117.529 163.473C117.914 162.737 118.35 161.895 118.804 161.026L116.903 159.508C111.09 163.84 101.768 170.795 97.5283 173.956Z" fill="#231F20"/>
<path d="M71.879 175.416C71.879 175.416 83.6213 170.496 90.7947 167.492C90.9412 166.812 91.2651 165.288 91.5264 164.072C88.1642 165.481 72.7944 171.922 68.793 173.598L71.879 175.416Z" fill="#231F20"/>
<path d="M128.62 175.103C128.62 175.103 134.183 172.146 138.516 169.845C138.591 168.238 138.646 166.918 138.682 166.191C136.31 167.451 129.361 171.144 126.191 172.828L128.62 175.103Z" fill="#231F20"/>
<path d="M4.95801 182.495L11.5874 180.363C11.8799 180.253 37.8375 170.288 64.862 154.716C65.7984 152.667 66.6446 150.807 67.2439 149.496C45.1603 162.919 22.4925 172.821 12.6361 176.896L4.95801 182.495Z" fill="#231F20"/>
<path d="M187.038 172.418L200.918 158.191L192.898 160.852L182.999 171.001L182.833 171.092C182.566 171.244 176.211 174.802 166.594 174.802C164.313 174.802 162.338 174.571 160.62 174.179C163.043 175.392 166.285 176.22 170.636 176.22C180.253 176.22 186.611 172.664 186.878 172.513L187.038 172.418Z" fill="#231F20"/>
<path d="M181.512 121.781L177.013 121.085C173.19 127.135 161.358 145.865 159.103 149.439C161.236 148.054 164.928 145.658 167.467 144.013C172.241 136.453 179.247 125.367 181.512 121.781Z" fill="#231F20"/>
<path d="M19.7191 132.859H30.026C30.272 132.185 30.4522 131.699 30.5453 131.441H19.377L19.7191 132.859Z" fill="#231F20"/>
<path d="M142.243 178.244C142.051 182.5 141.879 186.336 141.879 186.336C141.879 186.336 149.05 175.477 152.722 169.913C151.511 168.619 150.751 167.256 150.272 166.084C148.928 168.122 145.254 173.688 142.243 178.244Z" fill="#231F20"/>
<path d="M17.9836 112.764H18.755L18.9544 112.79C18.8673 112.49 18.5728 112.266 18.2195 112.266H17.4512V117.393H17.9836V112.764Z" fill="#231F20"/>
<path d="M23.742 116.982V113.675C23.742 112.806 23.2986 112.035 22.6123 111.543C22.9858 111.996 23.2085 112.563 23.2085 113.177V116.484C23.2085 117.964 21.9169 119.173 20.3377 119.173H13.5596V119.668H20.8702C22.4524 119.668 23.742 118.462 23.742 116.982Z" fill="#231F20"/>
<path d="M33.3627 118.129H32.8323V119.173H25.7646V119.671H33.3627V118.129Z" fill="#231F20"/>
<path d="M30.1291 115.932H32.5434V114.375H32.0109V115.434H29.5967V117.631H30.1291V115.932Z" fill="#231F20"/>
<path d="M30.1291 112.547H33.3633V110.984H32.8309V112.049H29.5967V113.876H30.1291V112.547Z" fill="#231F20"/>
</g>
<defs>
<clipPath id="clip0_154_2470">
<rect width="200" height="200" fill="white"/>
</clipPath>
</defs>
</svg>
