<svg width="200" height="200" viewBox="0 0 200 200" fill="none" xmlns="http://www.w3.org/2000/svg">
<g clip-path="url(#clip0_154_2474)">
<path d="M134.735 63.3326C136.719 63.3326 137.879 64.2665 138.295 63.7157C139.103 62.6301 138.975 60.7223 138.343 60.0039C138.119 59.7565 137.759 59.6367 137.327 59.6367C136.519 59.6367 135.463 60.0518 134.647 60.8181C134.639 60.8101 132.751 63.3326 134.735 63.3326Z" fill="url(#paint0_radial_154_2474)"/>
<path d="M134.737 63.3326C133.929 61.6243 134.913 60.4509 134.913 60.4509C134.913 60.4509 136.185 59.6686 137.145 59.6367C137.145 59.6367 138.193 60.9299 137.377 63.6359C137.385 63.6359 136.177 63.6918 134.737 63.3326Z" fill="#9E28B5"/>
<path d="M135.592 60.0667C135.592 60.0667 135.032 61.9267 135.568 63.5471L136.096 63.603L136.568 63.6349C137.288 61.9267 136.6 59.6836 136.6 59.6836C136.6 59.6836 136.32 59.7315 135.984 59.8592C135.64 60.0029 135.592 60.0667 135.592 60.0667Z" fill="url(#paint1_radial_154_2474)"/>
<path d="M148.262 76.1537C148.35 76.1218 150.534 75.2996 157.638 74.9883L148.574 76.8961L148.262 76.1537ZM148.23 81.7414C148.31 81.7494 151.886 83.8727 162.526 82.9867L148.23 81.7414Z" fill="#6D6E71"/>
<path d="M148.295 74.4359C148.295 74.4359 148.295 73.4301 146.615 71.7538C144.935 70.0775 143.759 69.5746 142.751 67.563C142.263 66.5812 141.239 65.5435 140.015 64.7213C140.199 63.4122 139.879 62.3106 139.655 61.5363C139.423 60.7301 140.007 60.0436 140.007 60.0436L140.647 59.6365C135.815 54.2563 130.839 48.1258 124.455 46.1143C118.071 44.1027 110.343 41.9235 104.127 40.5825C97.9107 39.2414 96.0707 39.9119 93.5427 40.7501C91.0227 41.5882 90.1987 41.5164 88.1027 41.5164C85.7987 41.5164 82.1187 40.9177 82.1187 40.9177C77.0547 40.7581 53.7747 54.432 48.8627 55.2062C43.9507 55.9805 48.0867 57.0103 50.4147 58.048C52.7427 59.0777 58.0227 62.8454 60.6147 63.3563C60.6147 63.3563 55.6147 69.383 49.1187 78.946C43.6947 86.9603 35.4387 92.9631 24.0547 94.7671L90.0147 126.393C90.6387 117.812 100.847 111.259 102.775 111.474C108.487 112.137 115.703 117.174 117.895 118.85C120.071 120.526 126.887 125.06 131.591 121.197C136.295 117.341 135.359 112.312 135.359 112.312C135.359 112.312 135.951 109.04 137.223 104.681C138.519 100.219 140.583 97.1938 141.951 93.7773C143.231 90.5923 145.607 89.5147 145.775 87.8464C145.943 86.1701 146.615 86.0024 149.807 82.4822C153.007 78.9699 148.295 74.4359 148.295 74.4359ZM135.559 60.3629C136.039 60.0356 137.271 60.0196 138.359 60.0356C138.975 60.778 139.095 62.6459 138.295 63.7155C138.271 63.7474 138.215 63.7474 138.183 63.7714C137.391 63.4601 136.575 63.2525 135.815 63.2525C133.127 63.2525 133.783 61.5682 135.559 60.3629Z" fill="black"/>
<path d="M106.841 59.4844C106.841 59.4844 105.857 63.0605 107.121 64.7687C108.377 66.485 110.097 66.932 112.537 66.03C114.977 65.1279 115.513 62.2463 115.513 62.2463C115.513 62.2463 113.257 60.8973 110.905 60.5381C108.569 60.1788 106.841 59.4844 106.841 59.4844Z" fill="url(#paint2_radial_154_2474)"/>
<path d="M109.151 60.2422C109.151 60.2422 107.735 63.9301 110.279 64.6804C112.711 65.3988 114.335 63.2436 113.887 61.4396C113.887 61.4396 113.047 60.9367 111.847 60.6653C110.647 60.4018 109.151 60.2422 109.151 60.2422Z" fill="#9E28B5"/>
<path d="M110.712 63.7246C112.432 64.3632 113.576 62.4793 113.248 61.0904C113.248 61.0904 112.304 60.7312 111.64 60.6034C110.976 60.4677 109.968 60.332 109.968 60.332C109.968 60.332 108.824 63.0221 110.712 63.7246Z" fill="url(#paint3_radial_154_2474)"/>
<path d="M107.278 61.6813C107.718 61.9288 108.414 61.6175 109.166 61.7452C109.926 61.8729 112.062 62.6232 111.366 62.5035C110.678 62.3758 108.47 62.751 108.222 62.5035C107.974 62.2481 106.614 61.3061 107.278 61.6813ZM134.926 61.4658C134.486 60.9629 135.382 62.2082 135.55 62.5354C135.718 62.8627 137.166 62.3678 137.622 62.5354C138.078 62.7031 136.67 61.7132 136.174 61.5456C135.678 61.378 135.214 61.7931 134.926 61.4658Z" fill="white"/>
<path d="M149.207 78.6914C149.255 78.6914 150.455 79.2502 153.991 79.8648C157.479 80.4715 161.191 81.3815 161.191 81.3815C161.159 81.3815 157.391 81.2697 153.839 80.6551C150.351 80.0404 149.207 78.6914 149.207 78.6914Z" fill="#6D6E71"/>
<path d="M160.991 88.031C160.727 87.9352 154.535 85.7001 152.375 83.9121C150.399 82.2677 148.223 80.7031 148.223 80.7031C148.327 80.7191 150.751 81.5014 152.951 83.3293C154.975 85.0136 160.991 88.031 160.991 88.031Z" fill="#6D6E71"/>
<path d="M152.87 86.8401C148.822 85.1797 148.174 82.3619 148.07 82.2422L152.87 86.8401Z" fill="#6D6E71"/>
<path d="M124.066 63.6494C123.946 63.9288 123.602 64.0645 123.058 64.0884C122.69 64.1443 119.562 64.6073 116.914 63.5696C116.25 63.3061 115.618 62.8751 114.882 62.3802C112.57 60.7997 104.314 58.2213 98.0977 60.656C98.0977 60.656 100.178 59.6183 103.506 59.0675C104.018 58.8041 104.594 58.4688 105.138 58.0537C108.218 55.7149 114.098 60.0014 115.434 58.9797C115.81 58.6923 116.29 58.5806 116.746 58.5247C115.138 57.04 114.578 55.5951 111.322 54.9885C107.122 54.2142 107.586 51.101 102.45 49.7041C97.3137 48.3072 106.034 49.5445 109.61 51.4123C113.194 53.2722 117.866 56.2257 117.866 56.2257C118.194 56.4892 118.474 56.8005 118.762 57.1118C122.306 59.5464 124.77 61.997 124.61 62.7633C124.53 63.1226 124.338 63.4179 124.066 63.6494ZM115.37 49.5445C111.474 47.0619 118.794 53.4319 122.378 55.9144C125.962 58.397 124.402 61.3505 126.89 61.1908C129.386 61.0391 128.29 59.7939 125.49 56.5291C122.69 53.2802 115.37 49.5445 115.37 49.5445ZM125.802 50.6381C128.578 53.4079 131.562 55.6111 131.41 58.4049C131.25 61.1988 132.186 62.444 130.162 59.4906C128.138 56.5371 124.554 49.3928 125.802 50.6381ZM132.794 56.9681C134.394 54.2701 133.546 55.9623 134.018 57.7983C134.378 59.2112 135.218 59.283 137.026 58.7083C139.346 57.9739 141.778 60.1611 140.354 59.9855C139.354 59.8657 135.314 60.3606 133.858 61.4223C132.394 62.484 132.65 62.6835 132.522 61.4862C132.37 60.2968 131.946 58.397 132.794 56.9681Z" fill="#6D6E71"/>
<path d="M138.96 77.3346C137.824 76.704 135.552 75.1953 133.416 75.4507C131.272 75.7062 129.64 75.4507 128.128 76.712C128.128 76.712 131.4 77.4623 133.04 78.2206C133.04 78.2206 132.16 79.0987 129.256 79.7293C129.256 79.7293 130.264 79.9848 131.4 81.1103C132.536 82.2438 131.52 82.2438 130.768 82.7467C130.016 83.2496 129 86.3946 126.864 86.2669C126.864 86.2669 131.528 86.8975 133.92 86.1472C136.312 85.3889 140.592 82.4992 141.352 80.8628C142.112 79.2185 140.096 77.9572 138.96 77.3346ZM136.048 76.8477L126.712 75.8419C121.952 75.1155 114.952 76.4166 114.952 76.4166C115.016 76.4166 121.888 75.9137 126.464 76.6162L136.048 76.8477ZM105.592 77.2548C105.592 77.2548 116.24 78.9071 121.176 78.8034C126.048 78.6996 131.6 77.7736 131.6 77.7736C131.544 77.7736 126.08 77.9093 121.144 78.0131C116.256 78.1169 105.696 77.2628 105.592 77.2548ZM111.224 84.2633C111.224 84.2633 132.944 79.7692 133.52 79.7373C133.52 79.7373 119.736 80.4637 111.224 84.2633ZM138.888 80.6313C138.784 80.6633 125.248 84.399 120.328 88.1268L138.888 80.6313ZM134.976 83.976C134.976 83.976 127.088 83.8722 121.824 83.3693C116.472 82.8584 109.872 81.9325 109.808 81.9245C109.808 81.9245 116.28 83.6407 121.664 84.1596C127.136 84.6784 134.656 84.0239 134.976 83.976ZM147.488 73.2157C148.424 74.4609 148.152 76.4486 147.176 78.1887C146.056 80.1843 145.128 79.7852 145.128 79.7852C144.168 78.6916 141.776 77.6699 143.432 77.4623C145.096 77.2548 142.608 76.4246 140.736 75.5944C139.016 74.8361 137.688 72.8804 138.456 72.8006C139.96 72.6489 141.672 72.2817 144.064 72.4893C146.456 72.6968 147.488 73.2157 147.488 73.2157ZM142.144 70.3659C137.472 69.1207 138.096 65.7042 134.984 65.0896C131.872 64.4669 125.8 64.4669 129.072 64.7783C132.344 65.0896 134.072 68.3304 136.704 70.5256C138.088 71.6751 143.816 70.8609 143.816 70.8609C143.736 70.7571 142.432 70.4458 142.144 70.3659ZM97.2635 64.89C97.2635 64.89 99.7835 66.271 100.792 69.5438C101.8 72.8086 100.912 73.3115 101.544 75.9536C102.176 78.5958 106.208 77.7098 109.6 77.9652C113 78.2206 113.888 76.9594 114.896 75.6982C115.904 74.445 116.784 72.5611 118.048 71.0445C119.304 69.5358 123.216 67.5242 123.216 67.5242C123.216 67.5242 121.832 67.5242 119.688 68.0271C117.544 68.53 115.528 70.6613 113.64 71.4196C111.752 72.17 109.992 74.9399 108.096 74.5567C106.208 74.1815 103.312 72.2977 103.312 72.2977C103.688 72.8006 105.328 71.2919 107.472 71.5394C109.608 71.7948 109.608 71.6671 110.496 70.5336C111.376 69.4001 113.264 68.2666 113.264 68.2666C111.504 69.0169 110.12 68.514 107.216 68.3863C104.32 68.2666 104.568 69.1446 103.056 67.5082C101.552 65.8958 97.2635 64.89 97.2635 64.89ZM148.624 77.2069L146.848 79.7054C146.608 79.865 147.576 81.8766 148.144 82.3635C148.144 82.3635 147.984 80.9107 148.384 80.5914C148.784 80.2641 150.16 80.1125 150.16 80.1125L148.872 79.1466C148.952 78.8992 149.352 78.0131 148.624 77.2069ZM90.8395 71.8028C90.8395 71.8028 88.6955 75.0676 87.3115 76.8317C85.9275 78.5958 85.8875 79.1546 87.3115 81.7329C88.6955 84.2474 90.7115 85.7561 91.0875 87.137C91.4635 88.526 94.4875 88.7734 97.0075 90.785C99.5275 92.7965 100.664 94.8081 103.304 97.0671C105.952 99.3341 107.336 101.968 107.336 101.968C107.336 101.968 106.576 99.9568 105.696 96.3088C104.816 92.6688 104.688 93.5469 102.296 90.1544C99.9035 86.7618 97.8875 87.2647 95.2395 83.1139C92.5915 78.963 91.1435 79.3701 90.8635 76.5284C90.5915 73.6866 90.8395 71.8028 90.8395 71.8028ZM84.4155 83.3613C84.4155 83.3613 83.4075 86.6341 83.4075 88.0151C83.4075 89.396 84.4155 91.4076 86.4315 92.7886C88.4475 94.1695 90.0875 93.6666 92.6075 96.0534C95.1275 98.4401 98.7195 105.066 102.616 103.812C102.616 103.812 100.608 103.182 98.3355 100.42C96.0635 97.6578 97.2635 96.1811 94.3675 93.6666C91.4715 91.1522 89.7035 90.8967 88.1995 88.51C86.6875 86.1312 84.7915 85.8758 84.4155 83.3613ZM76.2555 55.5346C74.2635 57.5222 75.6715 57.5222 70.1675 58.5679C64.6715 59.6216 65.3675 58.3364 60.3355 57.634C55.3035 56.9315 56.4715 57.0513 60.8075 56.5803C65.1355 56.1093 79.8875 51.6711 76.6075 55.2951M82.6555 57.195C82.6955 55.6543 80.6635 56.0854 79.7595 57.1471C78.8555 58.2087 77.6475 59.3023 77.5995 59.4859C77.5595 59.6695 77.5995 59.4859 78.0635 58.2327C78.5275 56.9794 77.6555 58.3364 74.7115 59.8371C71.7675 61.3298 68.5755 60.8349 68.5755 60.8349C69.8875 60.1484 69.7355 60.4039 67.7995 60.8589C65.8555 61.3139 66.2235 60.5236 64.5675 60.5476C62.9115 60.5795 64.8315 60.2203 63.8635 60.2043C62.9035 60.1884 61.5275 60.2762 61.5275 60.2762C59.6315 60.5476 58.5835 61.242 61.1435 61.1622C64.4155 61.0664 63.3995 61.9365 65.7995 62.0722C68.1915 62.1999 70.1035 61.4496 70.1035 61.4496C69.4075 61.9764 67.6555 62.4713 69.4635 62.184C71.2715 61.8886 72.1355 61.4975 72.1355 61.4975C72.1355 61.4975 72.8395 61.3618 72.3755 61.7449C71.9035 62.1281 71.2075 62.6549 72.4795 62.152C73.7595 61.6491 75.9675 60.3879 75.9675 60.3879C75.0555 61.9365 74.8875 63.1578 75.9675 61.7449C77.0475 60.332 76.6875 59.7733 76.8395 61.7369C76.9915 63.7086 77.1195 64.0199 77.6475 61.1383C78.1755 58.2566 78.7915 60.3241 79.0475 61.8248C79.3035 63.3334 79.8555 63.9321 79.8235 62.2877C79.7915 60.6354 80.3995 59.6056 80.3995 59.6056C81.9595 60.4278 82.4315 60.5236 81.6875 59.885C80.9595 59.2464 81.1275 58.0251 81.4875 58.5839C81.8475 59.1427 82.6155 58.7276 82.6155 58.7276C82.0475 57.7378 82.6555 57.195 82.6555 57.195ZM67.6635 65.2652C67.6635 65.2652 66.5275 66.271 65.1435 67.4045C63.7595 68.538 62.6235 70.1664 62.6235 72.4334C62.6235 74.7004 62.3755 76.5843 63.1275 80.6074C63.8795 84.6305 63.5115 88.3982 63.5115 88.3982C63.5115 88.3982 64.0555 86.9295 64.5195 85.1254C64.9835 83.3294 65.5275 81.1023 65.5275 78.8433C65.5275 76.5763 65.9115 74.0698 66.7915 72.8086C67.6715 71.5553 68.1755 70.6773 67.6715 68.9131C67.1595 67.149 67.6635 65.2652 67.6635 65.2652ZM82.5195 42.8984C82.5195 42.8984 78.8875 42.8984 74.5595 45.836C70.2395 48.7735 60.1995 53.4272 48.0955 56.1971C48.0955 56.1971 56.5675 55.335 59.6795 54.8162C62.7915 54.2973 76.9835 45.3171 82.5195 42.8984ZM58.6955 71.4755C58.6955 71.4755 56.7435 76.6641 53.2635 79.9927C49.7835 83.3214 47.5755 85.6682 45.6475 88.1268C44.4715 89.6275 38.5195 92.6608 38.5195 92.6608C38.5195 92.6608 44.7995 94.2493 47.6475 91.1123C52.7115 85.5325 56.5995 84.7503 57.1755 79.0508C57.7515 73.3354 59.0635 70.1105 58.6955 71.4755ZM124.464 87.9752C125.072 88.4781 126.496 88.6856 126.496 88.6856C123.024 91.9903 120.528 104.108 120.528 104.108C121.024 92.5491 124.464 87.9752 124.464 87.9752Z" fill="#6D6E71"/>
<path d="M138.783 94.4648L130.103 122.012L121.111 94.4648H101.015V102.719L98.9992 94.4648H32.6392V96.1012C30.4152 95.0396 27.9352 94.4648 25.2552 94.4648H0.199219V114.748H3.51122V141.298H0.255219V161.014H26.3672V141.298H23.1672V140.627H25.0232C31.9032 140.627 37.5992 136.875 40.8952 130.833L48.3272 161.006H84.2552L86.9272 149.009H92.2952L94.9672 161.006H159.087V154.924C162.991 158.723 168.135 160.871 174.143 160.871C187.151 160.871 196.591 149.4 196.591 133.595V114.748H199.791V94.4648H138.783ZM23.1752 120.264V114.772C23.7192 114.868 24.3272 115.331 24.3272 117.51C24.3272 118.795 23.8872 120.184 23.1752 120.264Z" fill="black"/>
<path d="M25.2643 98.4062H4.15234V110.803H7.46434V145.231H4.20834V157.069H22.4243V145.231H19.2243V136.682H25.0323C33.7283 136.682 40.0403 128.779 40.0403 117.899C40.0403 106.421 33.9603 98.4062 25.2643 98.4062ZM23.1123 124.205H19.2243V110.803H22.7603C26.2163 110.803 28.2723 113.309 28.2723 117.508C28.2803 121.451 26.1523 124.205 23.1123 124.205Z" fill="#FFC425"/>
<path d="M78.6978 98.4062V110.803H75.2017L63.9778 157.061H51.4337L40.0417 110.803H36.5938V98.4062H54.4017V110.803H51.9137L57.6658 136.778L63.5057 110.803H60.9057V98.4062H78.6978ZM195.85 98.4062V110.803H192.65V133.593C192.65 147.331 185.042 156.925 174.154 156.925C162.53 156.925 155.018 147.426 155.018 132.731V110.803H151.898V144.672H155.154V157.069H141.074L141.01 134.686L134.186 157.069H126.098L119.154 134.503V157.069H110.61H98.1377L95.4737 145.071H83.7697L81.0978 157.069H68.5137V144.672H72.0177L83.4177 98.4062H95.9058L107.186 144.672H108.17V110.803H104.97V98.4062H118.25L130.178 134.942L141.69 98.4062H170.042V110.803H166.786V133.202C166.786 139.659 169.434 143.667 173.698 143.667C180.202 143.667 180.898 136.347 180.898 133.202V110.803H177.698V98.4062H195.85ZM92.9297 133.218L89.6657 118.29L86.3298 133.218H92.9297Z" fill="#FFC425"/>
<path d="M9.15966 109.11V146.915H5.90366V155.376H20.7277V146.915H17.5277V134.989H25.0317C32.8237 134.989 38.3437 127.933 38.3437 117.891C38.3437 107.306 33.0557 100.09 25.2637 100.09H5.85566H5.84766V109.102H9.15966V109.11ZM17.5277 109.11H22.7597C27.1837 109.11 29.9757 112.327 29.9757 117.507C29.9757 122.369 27.1277 125.897 23.1117 125.897H17.5277V109.11Z" fill="url(#paint4_linear_154_2474)"/>
<path d="M41.3691 109.11L52.7611 155.376H62.6491L73.8651 109.11H77.0091V100.098H62.5851V109.11H65.6091L57.6411 144.552L49.8011 109.11H52.7051V100.098H38.2971H38.2891V109.11H41.3691Z" fill="url(#paint5_linear_154_2474)"/>
<path d="M179.391 109.11H182.591V133.201C182.591 140.808 179.223 145.35 173.695 145.35C168.583 145.35 165.087 140.808 165.087 133.201V109.11H168.343V100.098H142.927L130.199 140.481L117.015 100.098H106.655V109.11H109.855V146.356H105.847L94.567 100.09H84.743L73.343 146.356H70.207V155.376H79.743L82.415 143.379H96.831L99.503 155.376H117.471V123.239L127.359 155.376H132.935L142.679 123.422L142.767 155.376H153.463V146.356H150.207V109.11H156.719V132.73C156.719 146.452 163.527 155.232 174.159 155.232C184.047 155.232 190.959 146.3 190.959 133.592V109.11H194.159V100.098H179.391V109.11ZM84.215 134.909L89.679 110.443L95.023 134.909H84.215Z" fill="url(#paint6_linear_154_2474)"/>
<path d="M136.272 88.6695C136.272 88.6695 135.304 93.2514 132.072 95.8057C132.072 95.8057 132.913 91.0323 132.705 88.7653C132.705 88.7653 134.928 88.3502 135.6 88.0149C136.272 87.6796 136.32 88.1027 136.272 88.6695ZM127.169 90.1063C126.785 90.9844 127.496 90.9045 127.936 91.3675C128.368 91.8385 128.593 91.3196 128.929 90.9844C129.265 90.6491 129.632 90.4655 129.632 90.4655C129.632 90.4655 129.808 90.7768 130.224 90.9844C130.64 91.1919 130.937 91.1919 131.153 91.0243C131.361 90.8567 131.992 90.0584 132.072 89.7231C132.16 89.3879 132.369 89.0526 131.865 88.9728C131.361 88.885 129.432 89.3879 129.432 89.3879C129.096 89.356 127.169 90.1063 127.169 90.1063ZM123.424 108.338C123.344 108.434 123.545 110.014 124.265 110.31C124.977 110.605 125.441 110.31 125.857 109.935C126.281 109.559 126.809 107.596 126.865 106.837C126.993 105.161 126.448 102.567 126.448 102.567C126.448 102.567 125.312 105.201 124.936 105.999C124.592 106.726 124.008 107.62 123.424 108.338ZM127.584 108.673C127.288 109.384 126.977 110.07 127.593 110.525C128.217 110.98 128.969 111.044 129.353 110.725C129.353 110.725 129.801 110.948 130.193 110.932C130.833 110.908 131.241 110.509 131.241 110.509C131.241 110.509 131.649 110.781 132.257 110.733C132.817 110.685 133.12 110.342 133.12 110.342C133.12 110.342 133.169 110.549 133.929 110.549C134.681 110.549 134.936 110.126 134.936 109.751C134.936 109.376 136.872 107.947 135.944 102.591C135.944 102.591 134.305 106.279 133.593 107.117C132.881 107.955 133.296 108.458 133.296 108.458L132.944 108.961L132.384 108.147C132.176 107.931 131.856 107.939 131.648 108.314C131.44 108.689 131.224 109.049 131.224 109.049C131.224 109.049 130.744 108.21 130.32 108.123C129.904 108.035 129.265 109.631 129.265 109.631C129.265 109.631 129.136 108.961 128.8 108.586C128.464 108.21 128.296 107.58 127.96 108.003C127.624 108.418 127.584 108.673 127.584 108.673ZM122.272 100.412C122.216 101.473 122.112 105.265 122.672 106.143C123.224 107.021 123.624 106.143 123.784 105.584C123.944 105.025 124.024 104.395 123.144 103.756C123.144 103.756 123.224 103.118 123.384 102.327C123.544 101.529 122.672 101.138 122.672 101.138C122.672 101.138 122.752 100.899 122.984 100.42C123.224 99.9406 122.352 98.9029 122.272 100.412ZM144.377 88.2225C144.297 88.1346 144.248 87.7675 143.832 87.6796C143.416 87.5998 143.12 87.8473 143.12 87.8473C142.952 87.6318 142.489 87.512 142.153 87.512C141.817 87.512 141.272 87.9271 141.272 87.9271C141.144 87.7595 140.728 87.3843 140.344 87.4641C139.968 87.5519 139.36 87.8553 139.36 87.8553C139.256 87.4482 138.329 87.6318 137.657 87.7595C136.985 87.8872 136.985 88.5976 136.857 89.0606C136.729 89.5236 137.401 89.9866 137.569 90.1462L138.369 89.8509L139.12 88.8451C139.04 89.1803 139.121 89.6433 139.241 90.0185C139.369 90.3937 139.88 90.1622 140.248 89.9786C140.616 89.795 140.96 89.2602 140.96 89.2602L140.912 89.9307C140.912 90.1781 141.248 90.5134 141.584 90.6411C141.92 90.7688 142.048 90.5134 142.048 90.5134C142.088 91.2238 141.8 92.4851 141.584 93.1955C141.376 93.9059 140.408 96.5082 140.408 96.5082C142.384 95.6301 143.633 93.0917 144.057 92.2376C144.521 91.3116 144.936 89.803 144.936 89.803C144.936 89.803 144.977 89.6353 145.193 89.34C145.401 89.0446 145.488 88.7493 145.4 88.5018C145.344 88.2703 144.76 88.6216 144.377 88.2225Z" fill="#D1D3D4"/>
<path d="M135.93 88.4705C135.93 88.4705 135.41 92.1344 132.946 94.6808C132.946 94.6808 133.634 91.7911 134.066 89.117C134.066 89.117 134.85 88.8616 135.93 88.4705ZM131.69 89.7636C131.426 90.0669 130.274 90.3862 130.274 90.3862L130.954 90.8891C131.474 90.4102 131.69 89.7636 131.69 89.7636ZM129.01 90.5379C128.53 90.6656 128.098 90.929 128.098 90.929L128.402 91.3202L129.01 90.5379ZM134.202 110.342C135.434 109.831 133.85 108.011 133.85 108.011C134.13 108.985 134.05 109.688 134.05 109.688C133.97 110.031 134.202 110.342 134.202 110.342ZM132.554 110.462C132.554 110.462 132.994 110.47 132.874 109.616C132.754 108.754 131.978 108.163 131.978 108.163C131.978 108.163 132.354 109.233 132.13 109.879L132.554 110.462ZM130.698 110.614C130.698 110.614 131.858 109.799 130.258 108.299C130.258 108.299 130.25 109.584 130.066 109.887C130.074 109.895 130.266 110.454 130.698 110.614ZM128.762 110.686C129.73 110.151 128.29 108.243 128.29 108.243C128.218 108.802 127.882 109.784 127.882 109.784C128.082 110.239 128.762 110.686 128.762 110.686ZM135.882 103.693C135.53 105.992 134.442 108.379 134.442 108.379L134.874 109.273C136.29 106.942 135.882 103.693 135.882 103.693ZM126.37 103.461C126.082 106.543 124.346 108.897 124.346 108.897C124.546 109.592 125.354 109.76 125.354 109.76C126.018 109.584 126.362 108.147 126.562 106.998C126.77 105.848 126.37 103.461 126.37 103.461ZM123.202 104.036C122.514 104.643 123.314 105.649 123.314 105.649L123.69 104.898L123.202 104.036ZM122.922 101.761C122.826 102.312 122.594 102.344 122.594 102.344L122.93 102.735L123.226 102.232L122.922 101.761ZM144.418 90.5539C144.418 90.5539 143.73 90.929 143.354 90.8412C143.354 90.8412 142.85 93.3397 142.218 94.6967C142.218 94.6967 143.994 92.2861 144.418 90.5539ZM144.706 88.9015C144.706 88.9015 144.322 90.0989 143.234 90.6018C143.234 90.6018 144.354 90.4581 145.01 89.1649C145.01 89.1649 145.13 88.9654 145.114 88.678L144.706 88.9015ZM144.018 88.0793C144.018 88.0793 143.674 88.2948 143.586 88.7259C143.586 88.7259 143.33 89.564 142.634 90.482C142.634 90.482 144.882 89.3645 144.018 88.0793ZM142.634 87.9277L142.114 88.5024C142.234 89.2767 141.682 90.4182 141.682 90.4182C141.682 90.4182 142.546 89.8993 142.802 88.9494C143.066 87.9915 142.634 87.9277 142.634 87.9277ZM140.754 87.8398C140.298 87.8718 139.954 88.3587 139.954 88.3587C140.034 88.7019 139.69 89.9392 139.69 89.9392C141.634 88.9414 140.754 87.8398 140.754 87.8398ZM138.882 87.8638C138.882 87.8638 138.098 88.0873 137.786 88.4465C137.786 88.4465 137.826 89.4204 137.738 89.9392C137.746 89.9392 139.658 88.5982 138.882 87.8638Z" fill="white"/>
</g>
<defs>
<radialGradient id="paint0_radial_154_2474" cx="0" cy="0" r="1" gradientUnits="userSpaceOnUse" gradientTransform="translate(136.327 61.7312) scale(2.33248 2.32735)">
<stop stop-color="white"/>
<stop offset="0.4788" stop-color="white"/>
<stop offset="0.5848" stop-color="#FFFEFC"/>
<stop offset="0.6586" stop-color="#FFFCF3"/>
<stop offset="0.7226" stop-color="#FFF8E4"/>
<stop offset="0.781" stop-color="#FFF2CE"/>
<stop offset="0.8357" stop-color="#FFEAB1"/>
<stop offset="0.8875" stop-color="#FFE18F"/>
<stop offset="0.9371" stop-color="#FFD566"/>
<stop offset="0.9838" stop-color="#FFC937"/>
<stop offset="1" stop-color="#FFC425"/>
</radialGradient>
<radialGradient id="paint1_radial_154_2474" cx="0" cy="0" r="1" gradientUnits="userSpaceOnUse" gradientTransform="translate(136.141 61.6858) scale(1.5034 1.5001)">
<stop stop-color="#6D6E71"/>
<stop offset="1" stop-color="#231F20"/>
</radialGradient>
<radialGradient id="paint2_radial_154_2474" cx="0" cy="0" r="1" gradientUnits="userSpaceOnUse" gradientTransform="translate(110.997 62.9664) scale(4.04615 4.03725)">
<stop stop-color="white"/>
<stop offset="0.4727" stop-color="white"/>
<stop offset="0.6033" stop-color="#FFFEFD"/>
<stop offset="0.679" stop-color="#FFFCF4"/>
<stop offset="0.7406" stop-color="#FFF8E6"/>
<stop offset="0.7948" stop-color="#FFF3D2"/>
<stop offset="0.8439" stop-color="#FFECB8"/>
<stop offset="0.8895" stop-color="#FFE399"/>
<stop offset="0.9324" stop-color="#FFD973"/>
<stop offset="0.9719" stop-color="#FFCE48"/>
<stop offset="1" stop-color="#FFC425"/>
</radialGradient>
<radialGradient id="paint3_radial_154_2474" cx="0" cy="0" r="1" gradientUnits="userSpaceOnUse" gradientTransform="translate(111.459 62.0817) scale(1.80358 1.79961)">
<stop stop-color="#6D6E71"/>
<stop offset="1" stop-color="#231F20"/>
</radialGradient>
<linearGradient id="paint4_linear_154_2474" x1="25.5577" y1="154.54" x2="15.6767" y2="98.3775" gradientUnits="userSpaceOnUse">
<stop stop-color="#4F2582"/>
<stop offset="0.4848" stop-color="#FDFDFE"/>
<stop offset="1" stop-color="#FDFDFE"/>
</linearGradient>
<linearGradient id="paint5_linear_154_2474" x1="66.5177" y1="154.719" x2="56.3518" y2="96.9378" gradientUnits="userSpaceOnUse">
<stop stop-color="#4F2582"/>
<stop offset="0.1099" stop-color="#4F2582"/>
<stop offset="0.5989" stop-color="#FDFDFE"/>
<stop offset="1" stop-color="#FDFDFE"/>
</linearGradient>
<linearGradient id="paint6_linear_154_2474" x1="138.166" y1="161.82" x2="126.03" y2="92.8431" gradientUnits="userSpaceOnUse">
<stop stop-color="#4F2582"/>
<stop offset="0.3077" stop-color="#4F2582"/>
<stop offset="0.7692" stop-color="#FDFDFE"/>
<stop offset="1" stop-color="#FDFDFE"/>
</linearGradient>
<clipPath id="clip0_154_2474">
<rect width="200" height="200" fill="white"/>
</clipPath>
</defs>
</svg>
