<svg width="200" height="200" viewBox="0 0 200 200" fill="none" xmlns="http://www.w3.org/2000/svg">
<g clip-path="url(#clip0_154_2476)">
<path d="M155.603 160.275L156.792 156.786L160.399 146.199L165.644 130.801C165.694 130.595 170.348 112.411 193.303 107.546C193.306 107.546 193.365 107.531 193.365 107.531L193.426 107.518L193.476 107.48L193.524 107.441C193.603 107.38 201.098 100.792 199.862 95.6223C199.226 92.9645 196.401 91.0826 191.48 90.0182C191.248 89.3609 190.409 87.8493 187.535 87.8156V87.8204H187.53V88.0817C187.53 88.0817 187.429 88.0769 187.271 88.0705L187.527 87.8204C187.476 87.8124 187.423 87.8108 187.372 87.8076L186.905 87.7868L185.405 87.7178L182.231 87.5751C182.213 87.5303 182.192 87.4838 182.159 87.4341C181.558 86.5765 179.525 86.2142 175.945 86.3296C175.928 86.3296 164.591 87.0366 163.637 87.0975C163.562 87.0622 163.466 87.0205 163.312 86.9564C162.485 86.6117 160.372 85.7205 159.046 84.39C160.853 83.372 165.481 80.049 167.911 71.7999C168.95 71.3254 174.658 68.4511 175.601 62.2907C177.019 61.7713 184.922 58.4242 184.151 48.3957V48.3941C184.15 48.3733 184.15 48.3701 184.15 48.3701L184.148 48.3525L184.143 48.3348L184.138 48.3124C184.087 48.1024 182.861 43.2003 179.066 40.379C179.387 39.2393 180.173 35.3071 176.715 32.6749C176.756 31.7019 176.662 28.8517 174.488 25.6585C172.159 22.2392 166.872 17.8662 154.915 16.454L154.771 16.4363L154.625 16.4187L154.532 16.5325L154.439 16.6463C154.375 16.7265 152.928 18.5187 152.431 19.8812C150.858 19.5654 145.148 18.5796 140.374 19.7017C139.353 18.5539 134.291 14.471 115.056 16.4331C114.463 16.0356 111.465 14.1119 107.049 12.9417C101.079 11.3611 95.2124 11.7715 89.6099 14.16C88.8837 14.0558 84.4562 13.5028 78.6083 14.5175C72.706 15.5386 64.0449 18.4064 56.2687 26.2468C54.6688 26.8207 28.3697 36.4532 13.3077 54.928C5.1371 64.9533 0.550867 75.8571 0.0475184 86.4627C-0.50873 98.2048 3.82102 108.918 12.9085 118.31L0.0635398 156.827L0.00423613 157.002L0.148502 157.119L0.534838 157.433L0.6759 157.547L0.834597 157.457C1.11513 157.299 7.81415 153.572 16.0697 155.736C24.2659 157.88 36.5339 159.751 40.3459 160.176C39.8329 161.923 38.9159 166.678 42.0531 171.775C44.4592 175.684 48.7168 178.96 54.7073 181.511C62.1822 184.689 72.3998 186.748 85.0781 187.62C97.5432 188.48 108.846 187.863 118.673 185.784C126.758 184.074 133.889 181.366 139.868 177.742C149.681 171.791 154.156 164.578 155.153 161.596L155.127 161.591L155.603 160.275Z" fill="#79BDE8"/>
<path d="M88.7125 72.8398C87.3018 72.8398 85.9613 72.8577 84.6548 72.8849C83.9334 74.2251 82.9169 75.6643 81.4613 77.2081C81.4613 77.2081 81.941 75.3873 81.832 72.9651C79.591 73.0484 77.4805 73.1759 75.4575 73.3458C74.9638 75.0209 74.0299 76.9313 72.3692 79.1067C72.3692 79.1067 72.6704 76.5615 72.2039 73.6664C66.6446 74.2852 61.5589 75.2388 55.8107 76.5067C35.7743 80.9231 29.4904 88.0808 27.7451 93.3038L25.5008 100.059C24.6368 102.656 24.7917 105.068 25.9667 107.233C28.1004 111.157 33.5264 114.27 42.0944 116.485C42.0944 116.485 42.2767 116.532 42.2847 116.535C51.3033 118.864 56.2682 120.149 69.8618 120.149C87.445 120.149 95.6371 122.628 98.9586 124.104L99.4545 124.325L99.2842 124.838L96.4113 133.419L96.3212 133.687L96.0582 133.79C94.213 134.496 91.5788 135.394 87.5697 136.152L81.8188 153.257C86.0252 152.629 90.1103 151.804 94.8585 150.757C114.9 146.341 121.186 139.182 122.934 133.958L125.792 125.407C126.66 122.814 126.502 120.403 125.329 118.241C123.195 114.315 117.767 111.2 109.196 108.983C99.7975 106.554 88.3645 105.321 75.2172 105.321C59.0382 105.321 55.3679 103.198 52.3761 101.469C52.3632 101.459 52.3298 101.441 52.2608 101.404L51.83 101.163L51.9853 100.692L54.5802 92.8901L54.6678 92.6221L54.9333 92.5219C59.9283 90.5919 67.1612 88.6171 82.9464 88.6171C119.18 88.6171 128.598 99.5453 130.856 103.638C132.621 98.2455 138.653 79.8236 138.656 79.821L139.034 78.6814C138.201 78.8176 137.138 78.9892 137.156 78.9844C137.117 78.994 132.658 79.6684 127.605 78.0702C119.404 75.4765 107.828 74.1376 99.4342 73.469C98.8411 74.8363 98.0508 76.3422 96.9495 78.0301C96.9495 78.0301 97.4527 75.8807 97.6258 73.3287C95.8048 73.1957 94.1882 73.0978 92.8368 73.0257C92.3254 74.1814 91.6488 75.4299 90.7303 76.7878C90.7303 76.7878 90.9891 75.0969 90.8881 72.9279C89.6489 72.8718 88.8745 72.8463 88.7125 72.8398ZM130.794 110.19C133.351 112.035 137.374 116.179 135.082 123.037L122.801 159.339L122.711 159.607L122.446 159.707C121.884 159.917 121.346 160.155 120.775 160.408C117.559 161.838 113.554 163.617 98.861 163.617C82.4473 163.617 78.1948 161.424 75.0914 159.82L74.8209 159.68L74.3675 159.444L74.5303 158.958L85.8416 125.497C81.2185 124.874 75.7748 124.556 69.6331 124.556C66.3437 124.556 63.4727 124.479 60.8565 124.325C59.4828 128.392 48.7012 160.262 48.7012 160.26C47.8355 162.852 47.9895 165.262 49.1645 167.426C51.2949 171.351 56.7227 174.466 65.2922 176.683C75.1219 179.224 80.0105 180.348 92.8667 180.348C142.56 180.348 147.98 160.137 148.045 159.879C148.045 159.879 160.644 122.65 160.644 122.654C162.883 115.95 167.836 111.981 170.615 110.191H130.792L130.794 110.19ZM19.7364 122.749L11.1934 148.592C12.0269 148.454 13.0895 148.281 13.0718 148.284C13.1119 148.276 17.5472 147.592 22.6224 149.198C28.1913 150.958 35.9518 152.349 45.6764 153.334L51.2018 136.888C28.4248 134.176 21.6126 126.12 19.7377 122.754L19.7364 122.749Z" fill="white"/>
<path d="M173.044 48.7992C173.044 48.7992 171.62 43.2527 166.314 38.7707C166.314 38.7707 166.17 32.5606 161.391 28.0849C160.957 28.2901 160.431 28.343 159.912 28.1555C158.6 27.6778 158.203 28.6717 158.203 28.6717C158.203 28.6717 157.908 29.3706 156.337 28.8752C154.763 28.3799 154.543 26.5236 154.617 26.2607C154.67 26.0523 155.053 25.2749 155.034 24.5295C151.496 23.4731 146.858 23.1973 140.752 24.3323L140.249 27.4501C140.249 27.4501 137.404 19.6002 119.313 21.6632C119.313 21.6632 118.663 28.9859 126.678 33.8943L125.689 34.6573C125.689 34.6573 114.766 31.3936 115.362 20.8313C115.362 20.8313 102.599 15.3666 93.2676 19.2587C93.2676 19.2587 96.1707 20.6373 98.907 24.7763C98.907 24.7763 99.2389 25.3229 98.8092 25.7285C98.3812 26.1325 97.8843 25.8471 97.7881 25.799C97.7881 25.799 93.6091 23.4811 87.5464 22.1345C87.3781 22.811 86.9164 23.3801 86.1358 23.3528C84.3708 23.2871 83.7793 24.5647 83.7793 24.5647C83.7793 24.5647 83.8066 26.1212 81.6553 26.8618C78.0373 28.1026 76.516 26.9019 74.6517 25.9145C72.9237 25.0023 73.2603 22.6315 75.0429 21.4789C67.8709 22.4519 60.2213 26.1116 54.0561 35.3178C54.0561 35.3178 46.344 47.4382 38.6319 51.8449C38.6319 51.8449 35.5252 53.3325 35.8683 56.9489C36.2097 60.567 39.2875 60.0284 39.6305 60.1758C39.9736 60.3233 44.2488 60.7048 47.2096 69.0726C48.3333 72.2498 49.6542 72.4453 49.6542 72.4453C49.6542 72.4453 62.9385 69.1415 68.3647 68.7488C68.3647 68.7488 69.5862 70.7045 69.8779 72.5624L71.9426 72.3972C71.9426 72.3972 71.4665 70.0056 70.0174 68.1701C70.0174 68.1701 70.5736 65.2879 73.209 64.6499C73.209 64.6499 75.1647 66.1391 75.5061 68.098C75.5045 68.098 78.1527 67.92 78.6657 67.92C78.6657 67.92 79.6884 70.0488 79.7718 71.6663C79.7718 71.6663 81.2962 71.5893 81.6361 71.6743C81.6361 71.6743 81.4213 69.1896 80.3777 67.4103C80.3777 67.4103 81.3828 64.2395 84.2763 62.4633C84.2763 62.4633 86.0636 64.1802 86.0636 67.5866L87.6987 67.6715C87.6987 67.6715 88.7198 69.6304 88.8064 71.5877C88.8064 71.5877 90.3229 71.5893 90.6627 71.6743C90.6627 71.6743 90.823 69.4958 89.2969 66.838C89.2969 66.8396 89.9125 63.7826 92.2481 62.4056C92.2481 62.4056 94.2422 64.0102 94.1573 67.9264L95.1864 68.0194C95.1864 68.021 95.7843 70.2348 95.701 72.0222L97.5621 72.1856C97.5621 72.1856 97.9003 69.4798 96.9209 67.2131C96.9209 67.2131 97.5284 64.7028 99.6733 63.5053C99.6733 63.5053 101.222 65.4578 100.799 68.4394L102.758 68.5244C102.758 68.5244 107.272 61.7099 98.4999 60.3473C98.4999 60.3473 97.1357 62.4762 96.3695 62.9042L96.0296 62.5627C96.0296 62.5627 97.4787 58.8133 92.9646 58.5584C92.9646 58.5584 90.068 58.3035 89.6432 58.3885C89.6432 58.3885 89.4701 60.3473 88.7904 61.3701H88.2774C88.2774 61.3701 87.9392 57.7937 82.5722 58.3885L77.2069 58.9848C77.2069 58.9848 79.0809 60.6888 77.5484 62.3912C77.5484 62.3912 77.8049 58.3051 56.6001 63.329V62.6461C56.6001 62.6477 63.6662 58.56 74.142 56.6011C74.1404 56.6011 69.5397 53.9609 68.1803 51.9171C66.8178 49.8732 61.1976 46.7217 56.855 45.4441V44.8477C56.855 44.8477 68.0104 44.8493 74.142 51.2358C74.1404 51.2358 77.1236 49.1919 81.4662 49.1919C85.8088 49.1919 89.47 45.4441 89.47 45.4441L89.8965 45.7855C89.8965 45.7855 87.8542 50.8094 82.6588 52.4268C77.4634 54.0459 78.313 53.1947 77.5484 53.706C77.5484 53.706 80.2735 55.3235 80.7833 55.5783C80.7833 55.5783 88.2774 53.8775 89.8099 55.6649L94.9203 55.5783C94.9203 55.5783 98.9247 55.4084 99.2645 57.7072C99.2645 57.7088 111.359 59.0697 106.164 68.8642C106.164 68.8642 116.638 69.5455 128.901 72.8669C128.901 72.8669 132.053 73.8031 133.16 73.8031C133.16 73.8031 129.328 70.5666 125.323 69.5455C121.322 68.5244 106.034 62.4024 110.018 44.0013L111.699 46.0404C111.699 46.0404 113.586 40.2839 118.009 37.1164C118.009 37.1164 111.019 47.0086 117.234 55.9198C122.345 63.244 127.029 63.9253 127.029 63.9253C127.029 63.9253 134.18 65.3728 136.14 69.632C138.101 73.8897 143.125 79.5932 150.617 80.1062C158.111 80.6159 160.037 76.3808 160.736 74.5389C160.736 74.5389 150.345 77.5253 146.732 71.5493C143.974 66.9919 141.164 65.8072 141.164 65.8072C141.164 65.8072 144.317 65.7992 145.084 66.2256C145.084 66.2256 136.057 59.4945 143.211 50.1281C143.211 50.1281 146.651 64.7749 166.05 56.3863C166.05 56.3863 161.157 54.1276 158.358 48.5924C158.358 48.5924 167.789 52.1543 173.044 48.7992Z" stroke="#79BDE8" stroke-width="0.415006" stroke-miterlimit="2"/>
<path d="M100.664 17.8656C98.1549 17.9007 95.6075 18.2877 93.2748 19.2608C93.2748 19.2608 96.1765 20.6396 98.9129 24.7786C98.9129 24.7786 99.2448 25.3249 98.8152 25.7304C98.3872 26.1344 97.892 25.8487 97.7958 25.8006C97.7958 25.8006 93.6167 23.4827 87.554 22.1362C87.3857 22.8127 86.9246 23.3832 86.1439 23.356C84.379 23.2903 83.7869 24.5658 83.7869 24.5658C83.7869 24.5658 83.8142 26.122 81.663 26.8626C78.0451 28.1033 76.5241 26.9033 74.6599 25.9158C72.9318 25.0037 73.2681 22.6326 75.0506 21.4799C67.8787 22.453 60.2284 26.1124 54.0639 35.3185C54.0639 35.3185 46.3519 47.4404 38.6402 51.8475C38.6402 51.8475 35.5319 53.3358 35.8751 56.9522C36.2165 60.5701 39.2941 60.0308 39.6372 60.1782C39.9802 60.3257 44.2557 60.7072 47.2165 69.075C48.3402 72.2522 49.6611 72.4489 49.6611 72.4489C49.6611 72.4489 62.9456 69.1446 68.3715 68.752C68.3715 68.752 69.5951 70.7062 69.8868 72.5642L71.9507 72.3989C71.9507 72.3989 71.4738 70.0089 70.0246 68.1735C70.0246 68.1735 70.5827 65.2898 73.218 64.6518C73.218 64.6518 75.1735 66.142 75.5148 68.1009C75.5133 68.1009 78.1603 67.923 78.6733 67.923C78.6733 67.923 79.697 70.0502 79.7804 71.6676C79.7804 71.6676 81.304 71.5926 81.6439 71.6776C81.6439 71.6776 81.4301 69.1913 80.3865 67.412C80.3865 67.412 81.3904 64.2413 84.2839 62.4652C84.2839 62.4652 86.0722 64.1834 86.0722 67.5899L87.7078 67.675C87.7078 67.675 88.7283 69.6326 88.8149 71.5899C88.8149 71.5899 90.3311 71.5926 90.6709 71.6775C90.6709 71.6775 90.8319 69.4987 89.3058 66.8409C89.3058 66.8424 89.9208 63.7845 92.2564 62.4076C92.2564 62.4076 94.2499 64.0118 94.165 67.928L95.1944 68.0207C95.1944 68.0222 95.7913 70.2384 95.7079 72.0257L97.569 72.1885C97.569 72.1885 97.9072 69.4832 96.9277 67.2165C96.9277 67.2165 97.5356 64.7045 99.6805 63.507C99.6805 63.507 101.231 65.4598 100.808 68.4414L102.766 68.5265C102.766 68.5265 107.28 61.7111 98.5082 60.3486C98.5082 60.3486 97.1429 62.4779 96.3767 62.9058L96.0386 62.5652C96.0386 62.5652 97.4869 58.815 92.9728 58.5602C92.9728 58.5602 90.0764 58.3049 89.6516 58.3899C89.6516 58.3899 89.4772 60.3503 88.7975 61.3731H88.2865C88.2865 61.3731 87.9477 57.7952 82.5808 58.3899L77.2157 58.986C77.2157 58.986 79.0888 60.69 77.5563 62.3924C77.5563 62.3924 77.8141 58.3078 56.6093 63.3316V62.6479C56.6093 62.6494 63.6742 58.5628 74.1502 56.604C74.1487 56.604 69.5484 53.964 68.189 51.9202C66.8265 49.8763 61.2053 46.7231 56.8627 45.4455V44.8494C56.8627 44.8494 68.0187 44.8525 74.1497 51.2389C74.1482 51.2389 77.131 49.195 81.4735 49.195C85.8161 49.195 89.4786 45.4455 89.4786 45.4455L89.9044 45.7886C89.9044 45.7886 87.8611 50.8112 82.6658 52.4286C77.4705 54.0476 78.3208 53.1971 77.5561 53.7085C77.5561 53.7085 80.2824 55.3246 80.7922 55.5796C80.7922 55.5796 88.2842 53.8798 89.8167 55.6672L94.9288 55.5796C94.9288 55.5796 98.9321 55.4098 99.2719 57.7086C99.2719 57.7102 111.368 59.0727 106.172 68.8672C106.172 68.8672 116.645 69.5483 128.908 72.8697C128.908 72.8697 132.061 73.8065 133.169 73.8065C133.169 73.8065 129.336 70.5695 125.332 69.5485C121.331 68.5274 106.042 62.4039 110.025 44.0028L111.708 46.0415C111.708 46.0415 113.595 40.2873 118.017 37.1198C118.017 37.1198 111.028 47.0116 117.243 55.9226C122.354 63.2467 127.037 63.9277 127.037 63.9277C127.037 63.9277 134.188 65.3742 136.149 69.6334C138.11 73.891 143.134 79.5952 150.626 80.1082C158.12 80.6179 160.044 76.3821 160.743 74.5402C160.743 74.5402 150.352 77.5281 146.739 71.552C143.982 66.9946 141.171 65.8087 141.171 65.8087C141.171 65.8087 144.324 65.8006 145.091 66.227C145.091 66.227 136.065 59.4956 143.22 50.1288C143.22 50.1288 146.659 64.7766 166.058 56.3882C166.058 56.3882 161.165 54.1287 158.366 48.5935C158.366 48.5935 167.797 52.1566 173.051 48.8014C173.051 48.8014 171.627 43.2546 166.321 38.7725C166.321 38.7725 166.178 32.5631 161.399 28.0874C160.965 28.2926 160.438 28.3451 159.919 28.1576C158.608 27.6799 158.211 28.6735 158.211 28.6735C158.211 28.6735 157.916 29.3717 156.345 28.8764C154.771 28.3811 154.55 26.5243 154.624 26.2614C154.677 26.053 155.062 25.2761 155.042 24.5307C151.504 23.4743 146.866 23.2004 140.76 24.3353L140.257 27.4512C140.257 27.4512 137.412 19.6022 119.322 21.6653C119.322 21.6653 118.671 28.9874 126.686 33.8959L125.697 34.6598C125.697 34.6598 114.774 31.396 115.37 20.8341C115.37 20.8341 108.19 17.7606 100.664 17.8656ZM78.4715 21.212C78.3368 21.2601 78.1718 21.2901 77.973 21.2821C77.1683 21.2533 77.0544 22.6119 77.7501 22.825C78.4442 23.0382 78.7346 23.9657 78.8371 24.1324C78.9381 24.2991 80.0465 25.0939 81.1991 24.5056C82.3501 23.9189 82.1459 23.4211 82.1459 23.4211C82.1459 23.4211 81.8449 22.724 82.8372 22.2639C83.2267 22.0828 83.4942 21.7853 83.6337 21.4599C81.9858 21.2627 80.2557 21.1655 78.4715 21.212ZM163.894 22.7274C171.158 27.8475 171.49 32.6428 171.399 34.1063C173.503 34.9751 174.919 36.7681 175.762 38.214C175.403 35.3558 173.436 34.1984 173.335 34.1439L173.054 33.9961V33.678C173.054 28.3399 168.117 24.7906 163.894 22.7274ZM47.578 35.1758C47.578 35.1758 44.4565 36.8033 39.9537 39.777C40.5163 40.7981 40.0714 42.5477 38.7088 42.4996C36.9423 42.4355 36.3519 43.7119 36.3519 43.7119C36.3519 43.7119 36.3766 45.2697 34.2254 46.0087C33.0664 46.4062 31.7257 46.6216 30.5634 46.6649C28.0403 48.7183 25.4578 51.0118 22.9667 53.5253C22.9811 53.5397 23.0113 53.5635 23.0193 53.5779C23.2389 53.9434 23.8782 55.9677 25.3962 56.4358C26.9174 56.9023 26.6686 59.8754 24.9053 59.8097C23.1388 59.7472 22.5484 61.0245 22.5484 61.0245C22.5484 61.0245 22.5731 62.5783 20.4219 63.3189C17.788 64.2214 16.2678 63.8283 14.9164 63.1711C7.47355 74.0796 3.92126 87.4677 12.3116 102.027C12.3116 102.027 6.8267 86.8458 18.7211 70.2898C18.7211 70.2898 19.025 69.7759 19.5652 70.0067C20.1038 70.2376 19.7556 70.8934 19.7556 70.8934C19.7556 70.8934 16.2537 81.2135 19.8332 90.1476C19.8332 90.1476 25.182 80.0561 42.9872 73.9866C42.9872 73.9866 44.1999 66.1627 35.433 64.138C26.6662 62.115 31.2506 53.0799 33.5444 50.9202C35.8399 48.7625 45.0185 43.0367 47.578 35.1758ZM176.563 49.5453C173.603 54.5051 167.692 56.0901 167.692 56.0901C167.692 56.0901 170.255 58.4981 173.455 56.278C177.746 53.2963 176.563 49.5453 176.563 49.5453ZM20.6473 55.965C19.4803 57.2474 18.3523 58.5795 17.2734 59.9549C17.4449 60.2339 17.5427 60.5053 17.594 60.5886C17.6934 60.7537 18.805 61.5485 19.9559 60.9618C21.1085 60.3751 20.9052 59.8773 20.9052 59.8773C20.9052 59.8773 20.6011 59.1793 21.5965 58.7176C22.5936 58.2575 22.831 57.0191 21.9798 56.5685C21.5469 56.3377 21.1507 56.0852 20.6473 55.965ZM139.032 78.6804C138.199 78.8151 137.136 78.9867 137.154 78.9835C137.123 78.9899 134.463 79.3896 130.93 78.8382L126.072 93.6963C118.201 90.6345 105.089 90.1419 103.659 90.097C109.202 90.9883 113.654 92.2133 117.227 93.5887C120.475 94.807 122.968 96.1158 124.866 97.3758L124.834 97.4735C128.338 99.8603 130.057 102.185 130.86 103.64C132.627 98.2475 138.658 79.8218 138.66 79.8205L139.038 78.6808L139.032 78.6804ZM144.32 85.2979L137.84 104.765H162.392H162.582L162.697 104.918C162.899 105.189 162.958 105.961 162.958 106.781L163.98 106.396C164.703 102.515 161.618 99.0394 161.588 99.0041L161.465 98.8688L161.493 98.691C161.842 96.506 164.861 94.3984 164.989 94.3103L165.222 94.15L165.445 94.3278C167.184 95.7241 168.138 97.3624 168.28 99.1994C168.466 101.598 167.227 103.674 166.5 104.675H171.439H171.817V105.055C171.817 105.243 171.759 105.732 171.697 106.195C171.936 105.983 172.858 105.746 173.11 105.514C174.264 100.633 172.119 97.7413 172.098 97.7141L171.97 97.5513L172.038 97.356C172.911 94.7991 176.025 93.3886 176.158 93.3309L176.421 93.2156L176.606 93.4335C180.274 97.7825 177.411 102.32 176.115 103.966H180.837H181.115L181.202 104.224C181.361 104.708 181.414 105.595 181.43 106.308L182.405 105.93C183.139 102.227 180.979 98.6711 180.957 98.6359L180.864 98.4831L180.917 98.3153C181.699 95.9652 183.968 94.0472 184.068 93.9671L184.318 93.7542L184.564 93.9721C188.212 97.207 185.944 102.183 185.004 103.876H187.579H187.862L187.945 104.149C188.078 104.593 188.735 105.275 188.691 105.897C190.096 103.203 188.531 99.6654 188.514 99.6254L188.451 99.4876L188.501 99.3473C189.059 97.6753 191.403 95.5623 191.504 95.4725L191.802 95.2045L192.055 95.5176C194.45 98.4768 192.844 102.331 192.085 103.788H192.433C196.321 100.295 195.2 96.2033 195.149 96.0285L195.136 95.9834L195.131 95.9358C195.071 94.5316 192.147 93.6879 190.745 93.4186C190.035 94.6914 188.348 95.2815 188.273 95.3072L187.439 95.5827L187.807 94.7862C188.171 93.9927 188.18 93.3544 187.837 92.835C186.904 91.4308 183.568 91.1536 182.013 91.1568C181.784 93.0292 180.796 93.7991 180.751 93.8344L180.183 94.2477L180.143 93.5463C180.106 92.8715 179.819 92.32 179.266 91.8632C177.115 90.0774 171.823 90.3899 170.021 90.5582C170.309 91.0696 170.423 91.5768 170.359 92.0785C170.234 93.0131 169.515 93.5439 169.485 93.5664L169.034 93.892L168.891 93.356C168.308 91.1325 156.159 91.5399 148.636 92.319L148.215 92.3616V91.9408V91.6628V91.4374L148.413 91.3297C150.129 90.3983 154.72 89.55 156.676 89.2182C155.021 87.9165 154.239 86.4094 153.958 85.7441C150.557 86.8101 145.677 85.6602 144.32 85.2979ZM72.6801 87.2667C63.5372 87.2202 52.8398 88.3347 44.8298 92.6668L42.4971 99.9522C44.8296 110.237 76.081 105.405 76.081 105.405C71.2671 105.477 67.3438 105.244 64.1585 104.857C59.2548 104.361 56.5316 103.53 54.6256 102.655C52.5978 101.85 51.8177 101.182 51.8177 101.182L54.6756 92.6236C54.6771 92.6236 54.6799 92.621 54.6831 92.621L54.9411 92.5208C59.9361 90.5892 67.169 88.616 82.9542 88.616C85.8861 88.616 88.6243 88.6926 91.2148 88.8289C89.4218 88.5203 81.8328 87.3124 72.6903 87.2659L72.6801 87.2667ZM97.8154 106.853C97.8154 106.853 119.82 111.373 116.263 122.758L112.506 133.733C112.506 133.733 111.65 137.162 106.465 140.912C102.335 143.073 96.4616 145.134 88.0478 146.991C86.5458 147.319 85.0755 147.629 83.6119 147.93L81.8186 153.26C86.0264 152.628 90.1116 151.802 94.8582 150.755C114.9 146.339 121.185 139.18 122.932 133.956L125.792 125.407C126.659 122.813 126.5 120.401 125.326 118.239C123.194 114.313 117.769 111.198 109.196 108.981C106.314 108.237 103.221 107.618 99.9635 107.1C98.6298 106.925 97.817 106.852 97.817 106.852L97.8154 106.853ZM160.258 110.192C157.766 112.351 154.938 115.61 153.42 120.148L140.818 157.37C140.818 157.37 135.956 178.247 85.0756 178.247C74.2873 178.247 69.0031 177.438 62.0819 175.76C63.0998 176.082 64.1661 176.391 65.2929 176.681C75.1227 179.224 80.0087 180.346 92.8649 180.346C142.559 180.346 147.979 160.135 148.043 159.877C148.043 159.877 160.645 122.65 160.645 122.652C162.884 115.95 167.831 111.98 170.611 110.191L160.258 110.192ZM75.4962 124.675L64.2405 159.98C64.2405 159.98 80.7477 169.374 108.25 163.297C105.716 163.495 102.648 163.612 98.8652 163.612C82.4528 163.612 78.2003 161.42 75.0956 159.815L74.8251 159.675L74.3717 159.439L74.5345 158.953L85.8458 125.493C82.7578 125.084 79.2747 124.817 75.4955 124.677L75.4962 124.675ZM16.255 144.335C14.794 144.304 13.5369 144.415 12.5029 144.64L11.2005 148.58C12.0341 148.444 13.0967 148.27 13.079 148.275C13.1191 148.267 17.5544 147.583 22.6295 149.189C28.1984 150.949 35.959 152.34 45.6835 153.324L47.6121 147.576C42.3686 147.659 32.1475 147.703 25.1596 145.783C21.691 144.83 18.6901 144.386 16.255 144.335Z" fill="#FFC52F"/>
<path d="M146.287 24.4097C146.146 24.3975 145.996 24.3996 145.836 24.4223C144.549 24.6002 144.524 25.1161 144.524 25.1161C144.524 25.1161 144.5 25.8398 143.412 25.9552C142.322 26.0674 141.58 27.1204 142.154 27.7937C142.725 28.4653 143.112 29.1793 144.837 29.1712C145.86 29.1696 146.154 28.52 146.154 28.52C146.154 28.52 146.644 28.0706 147.354 28.3447C148.066 28.6204 148.745 27.4234 148.213 27.0147C147.683 26.6075 147.814 25.6746 147.795 25.4918C147.777 25.3319 147.272 24.4949 146.287 24.4097ZM105.397 25.4968C104.491 25.4553 103.428 25.6032 102.116 26.0528C100.01 26.779 99.6723 28.2118 99.6163 28.7104C99.488 28.9172 98.9905 29.572 97.838 29.5319C96.8072 29.4934 95.9831 30.2349 95.789 31.378C95.6127 32.4279 96.024 33.675 97.1542 34.0229C98.1657 34.3339 98.7481 35.6252 99.0302 36.2472C99.1056 36.4171 99.1579 36.539 99.2156 36.6304C99.6083 37.2668 102.367 39.0771 105.142 37.6648C108.051 36.1821 107.551 34.7214 107.479 34.5515L107.484 34.5615C107.442 34.4541 107.126 33.5005 108.711 32.7632C110.078 32.13 110.983 30.8511 111.02 29.5046C111.048 28.4337 110.523 27.5335 109.575 27.0349C109.577 27.0349 109.027 26.7368 109.027 26.7368C107.974 26.1559 106.902 25.5647 105.392 25.4954L105.397 25.4968ZM123.211 26.1329C123.211 26.1329 125.168 30.3193 129.506 33.2287C130.804 32.4769 132.607 31.6127 134.658 31.1624C134.658 31.1624 134.424 27.282 126.167 26.3683L123.211 26.1329ZM151.887 27.0496C151.692 27.0763 151.503 27.1673 151.339 27.3376C150.678 28.0189 149.976 28.527 150.029 30.2406C150.062 31.2634 150.718 31.4429 150.718 31.4429C150.718 31.4429 151.18 31.8526 150.92 32.6076C150.669 33.361 151.885 33.8351 152.278 33.2388C152.671 32.6409 153.608 32.6147 153.791 32.565C153.977 32.5137 155.023 31.6831 154.808 30.4359C154.595 29.1904 154.076 29.2487 154.076 29.2487C154.076 29.2487 153.352 29.3447 153.207 28.2819C153.102 27.4824 152.473 26.9695 151.887 27.0496ZM63.5878 28.818C62.9325 28.8373 62.2374 28.9912 61.5411 29.3464C58.6285 30.826 59.1312 32.2866 59.2017 32.4597C59.2488 32.5846 59.5432 33.5165 57.9694 34.2456C56.6068 34.8772 55.7003 36.1552 55.665 37.5018C55.6345 38.5726 56.1594 39.4747 57.1051 39.9765L57.6487 40.272C59.3286 41.1986 61.0679 42.1565 64.5592 40.9558C66.6673 40.2328 67.0053 38.7952 67.0615 38.2983C67.1897 38.0899 67.6873 37.4382 68.8398 37.4767C69.8706 37.5152 70.6914 36.7703 70.8837 35.6257C71.0585 34.5773 70.6479 33.3345 69.5162 32.9883C68.5111 32.6789 67.9316 31.3878 67.6527 30.769C67.5725 30.5959 67.5175 30.472 67.4598 30.3758C67.1713 29.9021 65.5535 28.7594 63.5878 28.818ZM103.164 30.4311C103.697 30.4033 104.137 30.6843 104.247 30.7817C104.254 30.7993 104.26 30.811 104.272 30.8318C104.435 31.1941 104.817 32.0422 105.637 32.2971C105.656 32.3099 105.697 32.3925 105.689 32.5175C105.681 32.6377 105.636 32.7108 105.617 32.7204C105.617 32.7204 105.61 32.723 105.599 32.723C104.663 32.6893 104.141 33.2634 103.981 33.6096L103.926 33.7299L103.929 33.8601C103.924 33.8697 103.888 34.1685 103.345 34.356C102.095 34.784 101.576 34.499 100.858 34.1031L100.597 33.9607C100.445 33.8806 100.372 33.7565 100.377 33.585C100.383 33.3382 100.564 33.0106 100.951 32.8311C101.959 32.3646 102.111 31.5677 101.965 31.0628C101.995 31.0099 102.118 30.8294 102.609 30.5794C102.798 30.4832 102.987 30.4403 103.164 30.4311ZM81.5288 30.9415C81.3014 30.9258 81.0596 30.9466 80.81 31.0091C79.6927 31.2896 78.5724 32.3669 78.7135 33.6139C78.8385 34.7008 77.8956 35.9133 77.4436 36.4968C77.3218 36.6491 77.2358 36.7604 77.1781 36.855C76.7661 37.5218 76.2503 40.8912 78.6308 42.6434C81.1293 44.475 82.2234 43.3115 82.3553 43.1519L82.3603 43.1469C82.4951 42.9868 83.1958 42.2876 84.4142 43.2671C85.4546 44.1007 86.8407 44.2956 88.0286 43.773C89.109 43.2985 89.801 42.3201 89.8796 41.1531L89.9323 40.5094C90.0974 38.5344 90.2655 36.4912 87.8032 33.9921C86.4646 32.6392 85.0595 32.8042 84.3717 33.128C84.1296 33.1216 83.4185 33.0141 83.0241 32.0234C82.7664 31.3758 82.2124 30.9898 81.5301 30.9423L81.5288 30.9415ZM144.553 31.4073C143.792 34.6277 145.32 36.785 145.32 36.785C145.32 36.785 142.91 39.9327 146.815 41.5565C150.717 43.1772 154.635 40.735 154.635 40.735L160.984 45.2184L157.27 39.1821C147.183 38.0023 144.553 31.4073 144.553 31.4073ZM138.882 31.5952C138.494 31.5826 138.064 31.715 137.931 31.9859C137.661 32.5293 136.647 32.801 136.463 32.8876C136.275 32.9742 135.357 33.8665 135.924 34.7161C136.497 35.5673 137.049 35.3848 137.049 35.3848C137.049 35.3848 137.817 35.1149 138.256 35.8507C138.702 36.5881 140.026 36.7016 140.558 36.0235C141.089 35.3471 141.719 34.7866 141.197 33.5539C140.887 32.8197 140.12 32.8676 140.12 32.8676C140.12 32.8676 139.503 32.6932 139.581 32.0761C139.618 31.7659 139.271 31.6078 138.882 31.5952ZM160.701 31.8857C160.128 31.8431 159.985 32.1061 159.985 32.1061C159.985 32.1061 159.638 32.7673 158.65 32.3842C157.659 31.9978 156.546 32.6388 156.734 33.5188C156.923 34.3973 156.936 35.2323 158.425 35.9985C159.31 36.4554 159.853 35.9859 159.853 35.9859C159.853 35.9859 160.478 35.7919 160.967 36.3641C161.453 36.9396 162.582 36.1331 162.305 35.5175C162.034 34.9004 162.57 34.1 162.635 33.9221C162.701 33.7425 162.617 32.4614 161.428 32.051C161.131 31.948 160.893 31.8999 160.701 31.8857ZM63.7367 33.5765C64.4423 33.4954 64.8688 33.7304 65.4099 34.0273C65.4932 34.0738 65.5856 34.122 65.6754 34.1701C65.8228 34.2486 65.8931 34.3693 65.8883 34.5408C65.8819 34.7892 65.7019 35.1177 65.3172 35.2972C64.3089 35.7653 64.1535 36.5606 64.2978 37.0655C64.2737 37.1152 64.1503 37.2998 63.6566 37.5514C62.9016 37.9362 62.1694 37.4759 62.0235 37.346C62.0171 37.33 62.0132 37.3236 62.0035 37.306C61.84 36.9405 61.4599 36.0849 60.6359 35.8332C60.6231 35.8236 60.576 35.7536 60.5808 35.6253C60.5824 35.4971 60.6333 35.4187 60.651 35.4074H60.6735C61.6113 35.4411 62.1279 34.8645 62.2865 34.5183L62.3391 34.4031V34.2753C62.3423 34.264 62.3793 33.961 62.9227 33.7719C63.2345 33.6653 63.5015 33.6035 63.7367 33.5765ZM126.725 35.8131C126.066 35.8767 125.362 36.7547 125.671 37.4111C126.075 38.2832 125.447 39.4953 125.383 39.7631C125.312 40.0276 125.528 41.8811 127.101 42.3781C128.673 42.8734 128.969 42.1727 128.969 42.1727C128.969 42.1727 129.361 41.1822 130.677 41.6567C131.99 42.1328 133.376 41.1022 133.057 39.8358C132.736 38.5758 132.647 37.3618 130.652 36.3743C129.469 35.786 128.804 36.5171 128.804 36.5171C128.804 36.5171 128.012 36.8522 127.329 36.0587C127.159 35.8607 126.945 35.7919 126.725 35.8131ZM84.5837 36.4143C84.7227 36.4275 84.8716 36.4799 85.0095 36.5921C85.5016 36.9848 85.9421 37.0283 86.2243 36.9979C86.6459 36.9482 86.9217 36.7253 87.0483 36.5971C87.098 36.5939 87.2836 36.6066 87.6795 36.8952C88.3111 37.3616 88.1623 38.2866 88.1078 38.4582C88.095 38.4758 88.0854 38.4949 88.0677 38.5158C87.7904 38.87 87.2117 39.6044 87.3063 40.4444C87.3095 40.4684 87.2838 40.5326 87.2036 40.6047C87.0962 40.7025 86.9767 40.7375 86.9206 40.7375C86.5535 39.8766 85.7893 39.7087 85.4303 39.7456L85.305 39.7582L85.1948 39.8233C85.1451 39.8457 84.9064 39.9272 84.5762 39.5954C83.7186 38.7249 83.7683 38.1142 83.8373 37.271L83.8623 36.9629C83.8832 36.6583 84.0953 36.524 84.2155 36.4695C84.3165 36.4262 84.4446 36.401 84.5837 36.4143ZM137.446 40.6823C136.787 40.7456 136.085 41.6213 136.389 42.2777C136.798 43.1514 136.173 44.3627 136.104 44.6271C136.032 44.8916 136.249 46.7493 137.824 47.2445C139.395 47.7431 139.688 47.0416 139.688 47.0416C139.688 47.0416 140.082 46.0487 141.396 46.5232C142.712 46.9993 144.099 45.9695 143.781 44.7047C143.46 43.4431 143.375 42.2272 141.381 41.2382C140.195 40.6499 139.528 41.381 139.528 41.381C139.528 41.381 138.734 41.7195 138.052 40.9276C137.882 40.73 137.666 40.6612 137.446 40.6823ZM121.602 43.0692C121.244 43.0765 120.86 43.158 120.475 43.3548C118.929 44.1419 119.205 44.8075 119.205 44.8075C119.205 44.8075 119.614 45.7382 118.281 46.3554C116.948 46.9741 116.626 48.6331 117.767 49.2358C118.907 49.8385 119.837 50.5743 122.048 49.8144C123.364 49.3623 123.35 48.4117 123.35 48.4117C123.35 48.4117 123.712 47.6309 124.79 47.6678C125.872 47.7079 126.021 45.8901 125.091 45.6064C124.164 45.3179 123.772 44.0801 123.636 43.8557C123.53 43.6902 122.673 43.049 121.598 43.0708L121.602 43.0692ZM132.75 47.8507C132.009 47.7959 131.824 48.1337 131.824 48.1337C131.824 48.1337 131.372 48.9847 130.093 48.4894C128.817 47.9925 127.379 48.8206 127.621 49.9571C127.866 51.0937 127.883 52.1734 129.805 53.1657C130.948 53.7557 131.653 53.1482 131.653 53.1482C131.653 53.1482 132.46 52.8953 133.089 53.6391C133.722 54.3797 135.177 53.3388 134.824 52.5421C134.47 51.7438 135.162 50.7106 135.245 50.4781C135.332 50.2473 135.222 48.5941 133.69 48.0636C133.306 47.931 132.998 47.869 132.75 47.8507ZM45.9219 50.1225C45.476 50.1378 45.0047 50.2445 44.5317 50.4857C42.544 51.494 42.8497 52.535 42.9363 52.7449L42.9287 52.7324C42.9576 52.8141 43.0682 53.2441 42.2474 53.624C41.3033 54.0617 40.6751 54.9524 40.6494 55.8933C40.627 56.6499 41.0145 57.3133 41.6814 57.6692C41.8 57.7317 41.9191 57.797 42.0345 57.8595C43.0989 58.4446 44.3047 59.1103 46.6307 58.3104C48.0157 57.8359 48.3022 56.8925 48.3615 56.4869C48.4368 56.3747 48.6884 56.0662 49.3007 56.0887C50.0686 56.1159 50.68 55.5695 50.821 54.7311C50.9493 53.9713 50.6425 53.0672 49.8041 52.8075C49.2447 52.6359 48.8963 51.8628 48.7296 51.4925C48.6783 51.3771 48.6426 51.2925 48.5994 51.222C48.3673 50.8456 47.2597 50.0766 45.9219 50.1225ZM59.1218 50.6736C58.4313 50.6738 57.7077 50.9497 57.4336 51.5051C57.2493 51.8834 56.3846 52.198 56.0561 52.3167C55.939 52.3599 55.852 52.3898 55.783 52.4219C55.4961 52.5581 54.825 53.1818 54.5958 54.0073C54.4371 54.586 54.5286 55.1517 54.8588 55.6453C55.8115 57.0641 56.8396 56.7851 56.9777 56.7399L56.9853 56.7373C57.1278 56.6932 57.5855 56.6011 57.8895 57.103C58.2646 57.7282 58.9927 58.1331 59.8407 58.1876C60.6518 58.2373 61.3982 57.9409 61.8295 57.3911C61.8263 57.3926 62.0324 57.1381 62.0324 57.1381C62.6832 56.343 63.4923 55.3521 62.7437 53.5839C62.3397 52.6301 61.4945 52.3733 60.9478 52.3541C60.826 52.3108 60.6393 52.2014 60.6698 51.9433C60.7227 51.5169 60.5173 50.9841 59.7831 50.7661C59.5783 50.7048 59.352 50.6735 59.1218 50.6736ZM148.229 50.7763C147.495 50.7201 146.881 50.9481 146.857 51.2847C146.834 51.6229 147.412 51.9424 148.144 51.9986C148.878 52.0579 149.491 51.8267 149.517 51.4901C149.541 51.1519 148.965 50.834 148.229 50.7763ZM152.154 50.8639C151.234 50.8222 150.464 51.1295 150.433 51.5527C150.401 51.9759 151.127 52.3508 152.049 52.3893C152.968 52.431 153.735 52.1237 153.767 51.7005C153.796 51.2789 153.073 50.9024 152.154 50.8639ZM156.908 51.0317C155.74 51.0221 154.76 51.4334 154.716 51.956C154.673 52.4754 155.583 52.91 156.75 52.9228C157.912 52.934 158.898 52.5212 158.937 51.9986C158.983 51.4776 158.072 51.0446 156.908 51.0317ZM159.185 53.8045C158.052 53.899 157.106 54.4148 157.071 54.9566C157.033 55.4968 157.923 55.8593 159.05 55.7632C160.181 55.6686 161.128 55.1528 161.164 54.611C161.201 54.0692 160.317 53.7083 159.185 53.8045ZM154.574 54.0649C153.678 54.1098 152.937 54.4974 152.908 54.9366C152.886 55.3726 153.588 55.6921 154.484 55.6504C155.376 55.6071 156.119 55.2173 156.142 54.7813C156.167 54.3421 155.465 54.0233 154.574 54.0649ZM150.766 54.338C150.053 54.3476 149.457 54.6372 149.436 54.9867C149.417 55.3393 149.979 55.6134 150.694 55.6053C151.404 55.5957 152.002 55.3043 152.021 54.9516C152.041 54.6037 151.481 54.3299 150.766 54.338ZM128.388 55.5498C127.728 55.6134 127.021 56.4889 127.329 57.1453C127.738 58.0173 127.11 59.2327 127.041 59.4972C126.972 59.7617 127.188 61.6194 128.759 62.1147C130.333 62.6116 130.63 61.9093 130.63 61.9093C130.63 61.9093 131.022 60.9188 132.338 61.3933C133.654 61.8678 135.039 60.838 134.72 59.5748C134.398 58.3116 134.31 57.0958 132.316 56.1083C131.131 55.5184 130.465 56.2511 130.465 56.2511C130.465 56.2511 129.673 56.5903 128.992 55.7952C128.822 55.5973 128.608 55.5286 128.388 55.5498ZM50.4059 60.146C49.9948 60.1888 49.4199 60.374 48.9606 60.7346C48.4588 61.129 48.1725 61.6692 48.134 62.2976C48.0298 64.0802 49.03 64.4458 49.1534 64.4843L49.1434 64.4817C49.2653 64.525 49.67 64.707 49.6043 65.3258C49.521 66.0985 49.8799 66.9128 50.5436 67.4497C51.1367 67.9306 51.877 68.0956 52.5198 67.8856C52.6208 67.8535 52.7237 67.8183 52.8279 67.7879C53.7865 67.4961 54.9853 67.1313 55.4453 65.2205C55.6921 64.1929 55.1978 63.4805 54.789 63.1391C54.7265 63.0413 54.6273 62.8112 54.8341 62.5756C55.2189 62.1347 55.1882 61.5305 54.749 60.9951C54.2296 60.3651 53.2369 59.9349 52.5347 60.3389C52.1741 60.5473 51.3368 60.3084 51.0194 60.2186C50.9072 60.185 50.8236 60.1613 50.7514 60.1485C50.6617 60.1325 50.5429 60.1318 50.4059 60.146ZM28.6971 64.646C28.0418 64.6649 27.3472 64.8181 26.6508 65.172C23.7381 66.6564 24.2408 68.1163 24.3114 68.2879L24.3064 68.2779C24.3497 68.3837 24.6709 69.3364 23.0791 70.0738C21.7165 70.7054 20.81 71.9859 20.7747 73.3324C20.7442 74.4032 21.2716 75.3028 22.2174 75.8045C22.4034 75.9023 22.5898 76.0057 22.7709 76.1051C24.4477 77.0284 26.1842 77.9813 29.6739 76.7839C31.782 76.0609 32.1182 74.6249 32.1712 74.1263C32.301 73.9195 32.797 73.264 33.9495 73.3073C34.9803 73.3458 35.8011 72.6018 35.9934 71.4588C36.1698 70.4088 35.7576 69.1651 34.6259 68.8188C33.6208 68.5062 33.0387 67.2141 32.7598 66.5922C32.6829 66.4222 32.6281 66.2985 32.572 66.2039C32.281 65.729 30.6629 64.5893 28.6971 64.646ZM28.8474 69.4049C29.5549 69.3236 29.9807 69.5614 30.5206 69.8608L30.7786 69.9986C30.9308 70.0787 31.0022 70.2002 30.999 70.3718C30.9909 70.617 30.8117 70.9477 30.4254 71.1257C29.4171 71.5954 29.2658 72.3923 29.4085 72.894C29.3828 72.9453 29.2626 73.1273 28.7673 73.3774C28.0138 73.7637 27.2817 73.3069 27.1342 73.177C27.1278 73.161 27.1238 73.1512 27.1142 73.1319C26.9507 72.7665 26.5665 71.914 25.7441 71.6592C25.728 71.6481 25.6841 71.569 25.6889 71.4488C25.6922 71.3254 25.7439 71.2496 25.7616 71.2384C25.7616 71.2384 25.7663 71.2359 25.7791 71.2359C26.7185 71.2695 27.2359 70.6954 27.3947 70.3492L27.4498 70.229L27.4472 70.1012C27.4504 70.0901 27.489 69.7903 28.0308 69.6028C28.3438 69.4954 28.6115 69.4321 28.8474 69.4049ZM187.521 87.8217L187.516 87.8267H187.521V87.8217Z" fill="#79BDE8"/>
<path d="M151.172 39.1953L150.098 41.3344L149.003 39.303C148.526 39.6204 148.178 40.09 148.134 40.643C148.054 41.5968 148.854 42.3763 149.92 42.3763C150.988 42.3763 151.919 41.5968 151.994 40.643C152.049 40.0194 151.701 39.4999 151.172 39.1953ZM171.38 39.5485L170.319 41.5071L169.226 39.5935C168.829 39.8788 168.543 40.2912 168.503 40.7657C168.432 41.6265 169.153 42.3235 170.113 42.3235C171.072 42.3235 171.91 41.6264 171.979 40.7657C172.022 40.2623 171.772 39.8338 171.38 39.5485ZM166.714 58.6164C158.669 61.6734 149.267 60.0216 149.267 60.0216C151.726 61.3183 154.444 61.8569 157.009 61.9852C157.229 63.5112 157.854 64.6755 158.429 65.4642H158.432C158.562 65.6437 158.687 65.7956 158.808 65.9351C159.075 66.1723 159.417 66.2319 159.587 65.2413L159.589 65.2438C159.716 64.1875 159.992 62.9711 160.205 62.123C160.495 62.418 160.912 62.8222 161.23 63.0723C161.43 63.1204 161.637 63.0738 161.841 62.8719C162.072 62.4118 162.399 61.7423 162.399 61.7423L163.779 62.5463C163.893 62.5574 164.007 62.558 164.128 62.5387L165.47 61.354L166.359 62.2958C166.577 62.4144 166.817 62.4576 167.061 62.3534L167.769 61.5218C168.005 62.5445 167.944 63.6519 167.827 64.4999H167.83C167.83 64.4999 167.826 64.5152 167.822 64.52C167.793 64.738 167.763 64.9297 167.729 65.1061C167.731 65.4491 167.921 65.6569 168.789 64.8105C171.126 62.3098 171.406 58.9671 171.406 58.9671C169.931 59.3182 166.714 58.6164 166.714 58.6164ZM154.218 67.8687C154.17 67.8811 154.127 67.9072 154.096 67.9488C154.023 68.0402 152.499 70.0692 152.425 71.6032C149.806 70.9075 148.217 69.7215 148.202 69.7071C148.12 69.6446 148.006 69.6455 147.924 69.7097C147.842 69.7722 147.811 69.884 147.851 69.9802C147.877 70.0443 148.531 71.5756 150.634 72.7153C152.548 73.7525 156.079 74.6435 162.055 72.9908C162.112 72.9764 162.156 72.9421 162.188 72.8956C162.238 72.8171 163.424 70.9974 163.631 68.5C163.639 68.391 163.573 68.2925 163.471 68.262C163.366 68.23 163.255 68.2736 163.203 68.3697C163.187 68.3986 161.532 71.3396 159.391 71.7836C158.105 72.0497 156.838 72.1392 155.521 72.0766C154.118 70.5185 154.499 68.1533 154.504 68.1293C154.518 68.0251 154.466 67.9221 154.369 67.8788C154.32 67.858 154.267 67.8562 154.218 67.8687Z" fill="white"/>
</g>
<defs>
<clipPath id="clip0_154_2476">
<rect width="200" height="200" fill="white"/>
</clipPath>
</defs>
</svg>
