<svg width="200" height="200" viewBox="0 0 200 200" fill="none" xmlns="http://www.w3.org/2000/svg">
<g clip-path="url(#clip0_154_2471)">
<path d="M140.27 167.611C140.611 167.838 142.109 168.874 143.105 168.61V168.858C142.335 169.747 142.952 171.602 142.482 172.84C142.238 173.483 141.537 173.521 141.362 174.208C141.696 174.702 141.651 175.304 141.86 175.952C142.366 177.513 142.764 179.157 143.227 180.928V183.291L144.846 184.909C145.287 185.69 144.817 186.803 145.095 187.771C145.344 188.639 146.161 188.992 146.588 189.638C146.807 189.967 146.736 190.89 146.838 191.006C147.418 191.418 146.248 191.624 145.911 192.642C145.722 192.877 145.157 193.945 144.722 194.241C144.287 194.537 141.771 191.626 139.745 190.758C137.313 189.713 133.997 191.126 131.656 190.509C130.728 190.262 130.44 189.642 129.791 189.264C129.244 188.945 128.694 188.958 128.174 188.642C126.76 187.785 124.256 187.475 123.444 187.149C122.634 186.822 121.421 185.228 120.086 184.785C118.897 184.389 117.366 184.49 116.477 183.788C116.196 183.372 116.29 182.85 116.104 182.296C115.742 181.216 115.214 180.146 114.735 179.061C114.274 178.015 113.405 177.059 112.869 176.075C112.442 175.288 112.27 174.432 111.75 173.711C111.006 172.685 110.774 173.893 110.753 171.596C112.013 169.62 109.586 168.727 109.26 167.738C108.969 166.862 109.496 165.722 109.634 165.125C109.847 164.195 109.757 163.243 109.26 162.886C108.762 162.529 107.988 162.462 107.144 162.14C106.385 161.849 104.353 159.939 103.91 159.277C103.434 158.565 103.626 157.555 103.288 156.663C103.103 156.179 102.612 155.597 102.293 155.171C101.452 154.052 99.3121 152.229 98.1861 151.313C97.9528 151.125 97.4468 150.957 97.3151 150.692V149.946C97.0497 149.323 96.3882 148.671 96.1954 147.954C96.2368 147.54 96.2783 147.126 96.3198 146.71C96.2534 146.46 95.8283 146.172 95.6977 145.964C94.7884 144.511 93.9879 143.004 93.0848 141.61C92.7365 141.07 92.0221 139.644 91.8406 139.121C91.4093 137.883 91.851 136.777 91.2185 135.76C90.3071 134.294 88.6036 133.308 87.236 132.277C86.1183 131.433 85.5605 129.812 84.3754 129.041C83.7108 128.835 83.2546 127.933 82.5091 127.299C81.7625 126.665 80.5443 125.502 80.0196 124.811C79.6474 124.519 79.692 124.056 78.8998 123.94C78.1077 123.824 77.7158 124.178 77.1579 124.313C75.9656 124.603 72.2101 124.081 71.1857 123.815C69.4884 123.378 66.4661 122.563 65.959 122.82C65.4551 123.079 65.254 123.581 64.9647 124.189C63.4095 123.633 61.651 124.491 60.4845 124.811C59.2248 127.421 57.4684 130.096 57.2496 133.77C56.4844 134.188 55.3978 129.901 54.8856 130.58C53.968 131.792 53.4206 133.589 51.4018 133.689C50.0259 132.597 48.2229 132.169 46.6728 131.201C45.355 130.378 43.8402 133.199 42.5669 132.526C41.1402 131.77 39.0044 131.929 37.7156 131.033C36.9898 130.529 37.0738 129.292 36.4703 128.669C35.1971 127.354 33.2095 126.815 32.1156 125.308C31.5992 124.598 31.4333 123.89 30.9948 123.07C30.4763 122.095 30.3115 121.497 30.0067 120.204C29.6054 118.51 29.9704 116.952 29.3773 115.354C28.863 113.966 27.3596 113.249 26.7655 111.871C26.02 110.144 26.1704 108.18 24.7748 107.143C24.1568 106.685 23.4144 106.481 22.783 106.023C22.4844 105.805 22.0904 104.892 21.9131 104.779C21.5813 104.738 21.2485 104.696 20.9177 104.654C20.4926 104.498 19.8094 104.182 19.4236 103.908C17.9959 102.893 17.239 101.207 16.1887 99.8012C15.577 98.9831 14.4126 98.7893 13.5759 98.1848C12.4903 97.3978 11.8931 95.7835 11.0864 94.6989C10.1564 93.4485 8.54513 93.4755 7.22939 92.5848C5.96652 91.7305 5.93644 89.7998 5.11423 88.4799C4.04524 86.7598 0.851778 86.8552 0.510658 84.4964C0.412159 84.3139 0.665153 83.6556 0.759505 83.2533H8.3502C8.94638 83.6182 10.6084 83.3766 11.4607 83.3766C14.0321 83.4181 16.6034 83.4596 19.1748 83.5021C20.3858 83.7623 22.164 83.3331 23.5306 83.6255C24.9946 83.9417 27.3586 83.8629 28.8796 83.8753H32.24C34.1747 84.2911 37.0789 84.1242 39.2076 84.1242H41.5716C43.161 84.4653 45.3654 84.1864 47.1715 84.2476C49.7304 84.3347 52.7477 84.3699 55.5077 84.373C56.0054 70.6463 56.5031 56.9144 57.0008 43.1877C57.1666 36.469 57.3326 29.7493 57.4984 23.0305C57.9661 20.8687 57.2672 17.9086 57.7463 15.6887C57.9308 14.8364 57.655 13.4626 57.8717 12.4548C58.2885 10.5242 58.1143 8.11148 58.1205 5.98389C59.6229 5.48932 62.2098 5.85941 63.9683 5.85941H76.7847C77.3726 6.22127 82.5682 5.98389 83.7522 5.98389C89.5585 6.06684 95.3669 6.14977 101.173 6.23272C101.323 16.9464 101.531 28.6761 101.546 39.5785C101.93 39.5671 102.333 39.5609 102.541 39.7039C103.731 40.0378 104.239 41.3111 104.906 42.1924C105.279 42.4817 105.652 42.773 106.026 43.0623H107.519C107.642 42.8559 107.768 42.6475 107.891 42.4401H108.016V42.9389C109.575 42.9441 110.705 42.9389 112.371 42.9389C112.559 43.2261 113.146 43.647 113.242 43.9332C113.316 44.1509 113.185 44.9908 113.242 45.3018C113.446 45.4273 113.653 45.727 113.863 45.7995C114.818 45.841 115.773 45.8835 116.727 45.925C117.64 46.207 118.451 46.9224 119.462 47.1692C120.673 47.4626 121.339 46.7099 122.45 46.9204C122.858 47.7809 123.367 48.4279 124.69 48.4123C125.018 48.036 125.45 47.2418 125.933 47.0448C126.441 46.7348 128.251 47.3289 129.168 47.1692C129.162 47.7073 129.215 48.1531 129.292 48.5367C129.87 48.8737 131.151 49.3766 131.409 50.0309C131.554 50.288 131.44 50.5503 131.409 51.0262C131.7 51.2325 131.988 51.4409 132.28 51.6494C134.552 51.6494 134.488 49.8255 136.386 49.5331C136.799 49.9707 136.855 50.682 137.629 50.7774C138.421 50.372 139.361 51.9449 140.616 52.0216C141.041 51.3259 141.446 50.7784 142.607 50.7774C142.649 50.9018 142.69 51.0262 142.731 51.1506C142.982 51.5519 143.014 52.7059 143.105 53.1414C143.562 53.4379 143.658 53.6235 144.473 53.6391C144.514 53.5976 144.557 53.5561 144.598 53.5156C144.68 52.8925 144.764 52.2694 144.846 51.6494H145.717C145.849 51.3207 146.033 50.2248 146.34 50.0309C146.562 49.8256 146.652 49.8121 147.086 49.781C147.462 50.5876 147.285 51.2978 148.581 51.275C149.089 51.7022 149.906 51.6245 150.446 51.3984C150.615 50.9039 150.595 50.5296 151.192 50.4041C151.32 50.5037 151.227 50.4487 151.441 50.5285C151.437 50.9422 151.475 51.2699 151.567 51.5239C151.938 51.6898 152.561 51.781 152.933 52.0216C153.043 52.0911 153.098 52.4674 153.184 52.5182C153.598 52.5618 154.013 52.6012 154.428 52.6437C155.039 53.0159 155.038 53.5582 156.046 53.6391C156.423 52.9195 156.603 52.7183 157.787 52.7681C157.988 52.4114 158.253 51.5757 158.658 51.3984C159.659 50.513 161.446 51.3269 163.012 50.9018C163.913 50.6581 164.432 49.8846 165.376 49.6576C166.398 49.4118 167.425 50.0775 168.114 50.2797C169.2 50.598 170.133 50.2248 170.976 50.0309C171.261 49.5166 171.398 48.9505 172.22 48.9111C172.685 49.2294 173.357 49.2356 173.838 49.5331C174.863 50.1667 175.737 51.2118 176.824 51.7728C177.297 52.0174 177.834 51.8858 178.316 52.146C178.675 52.3378 179.02 52.8334 179.437 53.0159C180.35 53.4172 181.321 53.4078 182.299 53.7635C183.289 54.1243 183.977 55.0181 185.036 55.1321C186 54.4281 187.949 54.3555 189.142 54.6355C189.183 54.6759 189.225 54.7184 189.267 54.7589C189.576 57.3976 189.438 61.0628 190.014 63.7171C190.367 65.3512 190.066 67.092 190.387 68.5706C190.741 70.2088 190.437 71.9299 190.759 73.423V75.6625C190.85 77.2872 190.722 79.4989 191.132 81.0126C191.796 83.4534 194.529 83.8878 195.24 86.1149C195.561 87.1248 194.604 88.3254 194.991 88.8521C195.376 89.3799 196.395 89.3664 196.732 89.8475C197.069 90.3266 197.872 94.0291 198.971 95.4475C199.221 95.7669 199.816 95.602 199.967 95.6963C200.593 96.7093 199.67 97.5803 199.844 98.4315C199.869 98.558 200.189 98.8608 200.216 98.9303L200.217 98.9292C200.58 99.8789 200.479 100.056 200.465 100.673C200.453 101.289 199.924 103.348 199.844 103.534C199.608 103.686 199.511 104.405 199.471 104.405C199.248 104.611 198.43 105.91 198.474 106.148C198.554 106.562 198.137 109.532 198.101 110.626C199.536 112.232 199.761 115.281 198.474 116.599C197.863 117.224 195.222 118.935 196.236 120.579C196.436 121.132 198.054 122.266 197.729 122.695C197.133 123.05 196.218 122.881 195.489 123.069C194.018 123.448 192.561 123.811 191.258 124.439C189.55 125.259 187.776 126.396 186.157 127.424C185.387 127.912 183.537 129.346 182.492 129.557C182.492 129.518 183.667 128.834 183.667 128.792C184.093 128.358 183.218 128.886 182.786 129.16C182.965 128.987 181.842 129.228 182.019 128.965C181.836 128.859 182.139 127.484 181.998 127.335C180.856 127.266 183.113 126.237 182.005 126.648V126.274C182.59 125.817 182.976 124.689 182.965 123.641C182.417 122.996 183.919 121.964 182.672 121.949C182.544 122.049 182.638 121.993 182.423 122.074C182.076 122.604 181.674 122.897 181.553 123.692C180.09 123.641 180.033 122.658 178.939 122.322V122.447C180.06 123.696 179.351 125.944 181.179 126.802C181.009 127.117 180.94 127.238 180.93 127.798C181.432 128.108 181.859 128.531 181.925 129.291C182.046 129.541 181.895 129.78 181.801 130.162C180.299 130.223 179.817 131.696 179.065 132.525H178.068C177.588 136.381 174.854 138.245 172.22 139.992C171.73 140.316 171.029 141.046 170.479 141.235C169.815 141.235 169.76 142.588 169.097 142.588C167.87 142.875 168.59 144.029 167.836 144.733C167.915 144.951 166.483 145.887 166.483 145.68C166.294 145.613 157.631 145.987 158.906 146.833V147.083C157.382 147.6 156.815 148.995 154.675 149.075C154.134 148.617 153.77 148.385 153.432 147.705C153.056 147.797 152.847 148.622 152.933 148.951C153.617 151.504 151.405 152.842 149.326 152.806C149.164 152.506 149.101 152.454 149.077 151.936C148.123 152.046 147.128 152.973 147.086 153.181C146.575 153.322 145.924 154.175 145.967 154.175C146.215 154.342 146.776 154.314 147.211 154.299C147.684 153.911 148.605 153.497 149.202 153.304V153.553C149.417 153.939 148.969 154.712 148.828 155.046V155.669C148.37 156.878 147.463 157.722 146.588 158.531C144.941 158.201 145.574 160.482 145.717 161.143C144.94 162.176 144.287 164.803 143.852 166.122C143.678 166.64 143.763 167.008 143.477 167.364C143.33 167.464 143.269 167.46 142.98 167.49C142.404 167.786 142.169 167.095 141.736 167.116C141.545 167.125 141.163 167.597 140.27 167.611ZM140.27 167.611C140.26 167.611 140.253 167.614 140.242 167.614C140.174 167.549 140.19 167.559 140.27 167.611ZM182.729 129.203C182.754 129.186 182.771 129.173 182.785 129.161C182.556 129.305 182.449 129.381 182.729 129.203Z" stroke="#6F263D" stroke-width="7.67052"/>
<path d="M200.216 98.9303C200.189 98.8608 199.869 98.558 199.844 98.4315C199.67 97.5803 200.593 96.7093 199.967 95.6963C199.816 95.602 199.221 95.7669 198.971 95.4475C197.872 94.0291 197.069 90.3266 196.732 89.8475C196.395 89.3664 195.376 89.3799 194.991 88.8521C194.604 88.3254 195.561 87.1248 195.24 86.1149C194.529 83.8878 191.796 83.4534 191.132 81.0126C190.722 79.4989 190.85 77.2872 190.759 75.6625V73.423C190.437 71.9299 190.741 70.2088 190.387 68.5706C190.066 67.092 190.367 65.3512 190.014 63.7171C189.438 61.0628 189.576 57.3976 189.267 54.7589C189.225 54.7184 189.183 54.6759 189.142 54.6355C187.949 54.3555 186 54.4281 185.036 55.1321C183.977 55.0181 183.289 54.1243 182.299 53.7635C181.321 53.4078 180.35 53.4172 179.437 53.0159C179.02 52.8334 178.675 52.3378 178.316 52.146C177.834 51.8858 177.297 52.0175 176.824 51.7728C175.737 51.2118 174.863 50.1667 173.838 49.5331C173.357 49.2356 172.685 49.2294 172.22 48.9111C171.398 48.9505 171.261 49.5166 170.976 50.0309C170.133 50.2248 169.2 50.598 168.114 50.2797C167.425 50.0775 166.398 49.4118 165.376 49.6576C164.432 49.8846 163.913 50.6581 163.012 50.9018C161.446 51.3269 159.659 50.513 158.658 51.3984C158.253 51.5757 157.988 52.4114 157.787 52.7681C156.603 52.7183 156.423 52.9195 156.046 53.6391C155.038 53.5582 155.039 53.0159 154.428 52.6437C154.013 52.6012 153.598 52.5618 153.184 52.5182C153.098 52.4674 153.043 52.091 152.933 52.0216C152.561 51.781 151.938 51.6898 151.567 51.5239C151.475 51.2699 151.437 50.9422 151.441 50.5285C151.227 50.4487 151.32 50.5037 151.192 50.4041C150.595 50.5296 150.615 50.9039 150.446 51.3984C149.906 51.6245 149.089 51.7022 148.581 51.275C147.285 51.2978 147.462 50.5876 147.086 49.781C146.652 49.8121 146.562 49.8256 146.34 50.0309C146.033 50.2248 145.849 51.3207 145.717 51.6494H144.846C144.764 52.2694 144.68 52.8925 144.598 53.5157C144.557 53.5561 144.514 53.5976 144.473 53.6391C143.658 53.6235 143.562 53.4379 143.105 53.1414C143.014 52.7059 142.982 51.5519 142.731 51.1506C142.69 51.0262 142.649 50.9018 142.607 50.7774C141.446 50.7784 141.041 51.3259 140.616 52.0216C139.361 51.9449 138.421 50.372 137.629 50.7774C136.855 50.682 136.799 49.9707 136.386 49.5331C134.488 49.8255 134.552 51.6494 132.28 51.6494C131.988 51.4409 131.7 51.2325 131.41 51.0262C131.44 50.5503 131.554 50.288 131.41 50.0309C131.151 49.3766 129.87 48.8737 129.292 48.5367C129.215 48.1531 129.162 47.7073 129.168 47.1692C128.251 47.3289 126.441 46.7348 125.933 47.0448C125.45 47.2418 125.018 48.036 124.69 48.4123C123.367 48.4279 122.858 47.7809 122.45 46.9203C121.339 46.7099 120.673 47.4626 119.462 47.1692C118.451 46.9224 117.64 46.207 116.727 45.925C115.773 45.8835 114.818 45.841 113.863 45.7995C113.653 45.727 113.446 45.4273 113.242 45.3018C113.185 44.9908 113.316 44.1509 113.242 43.9332C113.146 43.647 112.559 43.2261 112.371 42.9389C110.705 42.9389 109.575 42.944 108.016 42.9389V42.4401H107.891C107.768 42.6475 107.642 42.8559 107.519 43.0623H106.026C105.652 42.773 105.279 42.4817 104.906 42.1924C104.239 41.3111 103.731 40.0378 102.541 39.7039C102.333 39.5609 101.93 39.5671 101.546 39.5785C101.531 28.6761 101.323 16.9464 101.173 6.23273C95.3669 6.14978 89.5585 6.06683 83.7522 5.98389C82.5682 5.98389 77.3726 6.22127 76.7847 5.85941H63.9683C62.2098 5.85941 59.6229 5.48932 58.1205 5.98389C58.1143 8.11148 58.2885 10.5242 57.8717 12.4548C57.655 13.4626 57.9308 14.8364 57.7463 15.6887C57.2672 17.9086 57.9661 20.8687 57.4984 23.0305C57.3326 29.7493 57.1666 36.469 57.0008 43.1877C56.5031 56.9144 56.0054 70.6463 55.5077 84.373C52.7477 84.3699 49.7304 84.3347 47.1715 84.2476C45.3654 84.1864 43.161 84.4653 41.5716 84.1242H39.2076C37.0789 84.1242 34.1747 84.2911 32.24 83.8753H28.8796C27.3586 83.8629 24.9946 83.9417 23.5306 83.6255C22.164 83.3331 20.3858 83.7623 19.1748 83.5021C16.6034 83.4596 14.0321 83.4181 11.4607 83.3766C10.6084 83.3766 8.94638 83.6182 8.3502 83.2533H0.759505C0.665153 83.6555 0.412159 84.3139 0.510658 84.4964C0.851778 86.8552 4.04524 86.7598 5.11423 88.4799C5.93644 89.7998 5.96652 91.7305 7.22939 92.5848C8.54513 93.4754 10.1564 93.4485 11.0864 94.6989C11.8931 95.7835 12.4903 97.3978 13.5759 98.1848C14.4126 98.7893 15.577 98.9831 16.1887 99.8012C17.239 101.207 17.9959 102.893 19.4236 103.908C19.8094 104.182 20.4926 104.498 20.9177 104.654C21.2485 104.696 21.5813 104.738 21.9131 104.779C22.0904 104.892 22.4844 105.805 22.783 106.023C23.4144 106.481 24.1568 106.685 24.7748 107.143C26.1704 108.18 26.02 110.144 26.7655 111.871C27.3596 113.249 28.863 113.966 29.3773 115.354C29.9704 116.952 29.6054 118.51 30.0067 120.204C30.3115 121.497 30.4763 122.095 30.9948 123.07C31.4333 123.89 31.5992 124.598 32.1156 125.308C33.2095 126.815 35.1971 127.354 36.4703 128.669C37.0738 129.292 36.9898 130.529 37.7156 131.033C39.0044 131.929 41.1402 131.77 42.5669 132.526C43.8402 133.199 45.355 130.378 46.6728 131.201C48.2229 132.169 50.0259 132.597 51.4018 133.689C53.4206 133.589 53.968 131.792 54.8856 130.58C55.3978 129.901 56.4844 134.188 57.2496 133.77C57.4684 130.096 59.2248 127.421 60.4845 124.811C61.651 124.491 63.4095 123.633 64.9647 124.189C65.254 123.581 65.4551 123.079 65.959 122.82C66.4661 122.563 69.4884 123.378 71.1857 123.815C72.2101 124.081 75.9656 124.603 77.158 124.313C77.7158 124.178 78.1077 123.824 78.8998 123.94C79.692 124.056 79.6474 124.519 80.0196 124.811C80.5443 125.502 81.7625 126.665 82.5091 127.299C83.2546 127.933 83.7108 128.835 84.3754 129.041C85.5605 129.812 86.1183 131.433 87.236 132.277C88.6036 133.308 90.3071 134.294 91.2185 135.76C91.851 136.777 91.4093 137.883 91.8406 139.121C92.0221 139.644 92.7365 141.07 93.0848 141.61C93.9879 143.004 94.7884 144.511 95.6977 145.964C95.8283 146.172 96.2534 146.46 96.3198 146.71C96.2783 147.126 96.2368 147.54 96.1954 147.954C96.3882 148.671 97.0497 149.323 97.3151 149.946V150.692C97.4468 150.957 97.9528 151.125 98.1861 151.313C99.3121 152.229 101.452 154.052 102.293 155.171C102.612 155.597 103.103 156.179 103.288 156.663C103.626 157.555 103.434 158.565 103.91 159.277C104.353 159.939 106.385 161.849 107.144 162.14C107.988 162.462 108.762 162.529 109.259 162.886C109.757 163.243 109.847 164.195 109.634 165.125C109.496 165.722 108.969 166.862 109.259 167.738C109.586 168.727 112.013 169.62 110.753 171.596C110.774 173.893 111.006 172.685 111.75 173.711C112.27 174.432 112.442 175.288 112.869 176.075C113.405 177.059 114.274 178.015 114.735 179.061C115.214 180.146 115.742 181.216 116.104 182.296C116.29 182.85 116.196 183.372 116.477 183.788C117.366 184.49 118.897 184.389 120.086 184.785C121.421 185.228 122.634 186.822 123.444 187.149C124.256 187.475 126.76 187.785 128.174 188.642C128.694 188.958 129.244 188.945 129.791 189.264C130.44 189.642 130.728 190.262 131.656 190.509C133.997 191.126 137.313 189.713 139.745 190.758C141.771 191.626 144.287 194.537 144.723 194.241C145.157 193.945 145.722 192.877 145.911 192.642C146.248 191.624 147.418 191.418 146.838 191.006C146.736 190.89 146.807 189.967 146.588 189.638C146.161 188.992 145.344 188.639 145.095 187.771C144.817 186.803 145.287 185.69 144.846 184.909L143.227 183.291V180.928C142.764 179.157 142.366 177.513 141.86 175.952C141.651 175.304 141.696 174.702 141.362 174.208C141.537 173.521 142.238 173.483 142.482 172.84C142.952 171.602 142.335 169.747 143.105 168.858V168.61C142.109 168.874 140.611 167.838 140.27 167.611C140.26 167.611 140.253 167.614 140.242 167.614C140.174 167.549 140.191 167.559 140.27 167.611C141.163 167.597 141.545 167.125 141.736 167.116C142.169 167.095 142.404 167.786 142.98 167.49C143.269 167.46 143.33 167.464 143.477 167.364C143.763 167.008 143.678 166.64 143.852 166.122C144.287 164.803 144.94 162.176 145.717 161.143C145.574 160.482 144.941 158.201 146.588 158.531C147.463 157.722 148.37 156.878 148.828 155.669V155.046C148.969 154.712 149.417 153.939 149.202 153.553V153.304C148.605 153.497 147.684 153.911 147.211 154.299C146.777 154.314 146.215 154.342 145.967 154.175C145.924 154.175 146.575 153.322 147.086 153.181C147.128 152.973 148.123 152.046 149.077 151.936C149.101 152.454 149.164 152.506 149.326 152.806C151.405 152.842 153.617 151.504 152.933 148.951C152.847 148.622 153.056 147.797 153.432 147.705C153.77 148.385 154.134 148.617 154.675 149.075C156.815 148.995 157.382 147.6 158.906 147.083V146.833C157.631 145.987 166.294 145.613 166.483 145.68C166.483 145.887 167.915 144.951 167.836 144.733C168.59 144.029 167.87 142.875 169.096 142.588C169.76 142.588 169.815 141.235 170.479 141.235C171.029 141.046 171.73 140.316 172.22 139.992C174.854 138.245 177.588 136.381 178.068 132.525H179.065C179.817 131.696 180.299 130.223 181.801 130.162C181.895 129.78 182.046 129.541 181.925 129.291C181.859 128.531 181.432 128.108 180.93 127.798C180.94 127.238 181.009 127.117 181.179 126.802C179.351 125.944 180.06 123.696 178.939 122.447V122.322C180.033 122.658 180.09 123.641 181.553 123.692C181.674 122.897 182.076 122.604 182.423 122.074C182.638 121.993 182.544 122.049 182.672 121.949C183.919 121.964 182.417 122.996 182.965 123.641C182.976 124.689 182.59 125.817 182.005 126.274V126.648C183.113 126.237 180.856 127.266 181.998 127.335C182.139 127.484 181.836 128.859 182.019 128.965C181.842 129.228 182.965 128.987 182.786 129.16C183.218 128.886 184.093 128.358 183.667 128.792C183.667 128.834 182.492 129.518 182.492 129.557C183.537 129.346 185.387 127.912 186.157 127.424C187.776 126.396 189.55 125.259 191.258 124.439C192.561 123.811 194.018 123.448 195.489 123.069C196.218 122.881 197.133 123.05 197.729 122.695C198.054 122.266 196.436 121.132 196.236 120.579C195.222 118.935 197.863 117.224 198.474 116.599C199.761 115.281 199.536 112.232 198.101 110.626C198.137 109.532 198.554 106.562 198.474 106.148C198.43 105.91 199.248 104.611 199.471 104.405C199.511 104.405 199.608 103.686 199.844 103.534C199.924 103.348 200.453 101.289 200.465 100.673C200.479 100.056 200.58 99.8789 200.217 98.9292L200.216 98.9303ZM182.729 129.203C182.754 129.186 182.771 129.173 182.785 129.161C182.556 129.305 182.449 129.381 182.729 129.203Z" fill="#A2AAAD"/>
<path d="M140.27 167.611C140.611 167.838 142.109 168.874 143.105 168.61V168.858C142.335 169.747 142.952 171.602 142.482 172.84C142.238 173.483 141.537 173.521 141.362 174.208C141.696 174.702 141.651 175.304 141.86 175.952C142.366 177.513 142.764 179.157 143.227 180.928V183.291L144.846 184.909C145.287 185.69 144.817 186.803 145.095 187.771C145.344 188.639 146.161 188.992 146.588 189.638C146.807 189.967 146.736 190.89 146.838 191.006C147.418 191.418 146.248 191.624 145.911 192.642C145.722 192.877 145.157 193.945 144.722 194.241C144.287 194.537 141.771 191.626 139.745 190.758C137.313 189.713 133.997 191.126 131.656 190.509C130.728 190.262 130.44 189.642 129.791 189.264C129.244 188.945 128.694 188.958 128.174 188.642C126.76 187.785 124.256 187.475 123.444 187.149C122.634 186.822 121.421 185.228 120.086 184.785C118.897 184.389 117.366 184.49 116.477 183.788C116.196 183.372 116.29 182.85 116.104 182.296C115.742 181.216 115.214 180.146 114.735 179.061C114.274 178.015 113.405 177.059 112.869 176.075C112.442 175.288 112.27 174.432 111.75 173.711C111.006 172.685 110.774 173.893 110.753 171.596C112.013 169.62 109.586 168.727 109.26 167.738C108.969 166.862 109.496 165.722 109.634 165.125C109.847 164.195 109.757 163.243 109.26 162.886C108.762 162.529 107.988 162.462 107.144 162.14C106.385 161.849 104.353 159.939 103.91 159.277C103.434 158.565 103.626 157.555 103.288 156.663C103.103 156.179 102.612 155.597 102.293 155.171C101.452 154.052 99.3121 152.229 98.1861 151.313C97.9528 151.125 97.4468 150.957 97.3151 150.692V149.946C97.0497 149.323 96.3882 148.671 96.1954 147.954C96.2368 147.54 96.2783 147.126 96.3198 146.71C96.2534 146.46 95.8283 146.172 95.6977 145.964C94.7884 144.511 93.9879 143.004 93.0848 141.61C92.7365 141.07 92.0221 139.644 91.8406 139.121C91.4093 137.883 91.851 136.777 91.2185 135.76C90.3071 134.294 88.6036 133.308 87.236 132.277C86.1183 131.433 85.5605 129.812 84.3754 129.041C83.7108 128.835 83.2546 127.933 82.5091 127.299C81.7625 126.665 80.5443 125.502 80.0196 124.811C79.6474 124.519 79.692 124.056 78.8998 123.94C78.1077 123.824 77.7158 124.178 77.1579 124.313C75.9656 124.603 72.2101 124.081 71.1857 123.815C69.4884 123.378 66.4661 122.563 65.959 122.82C65.4551 123.079 65.254 123.581 64.9647 124.189C63.4095 123.633 61.651 124.491 60.4845 124.811C59.2248 127.421 57.4684 130.096 57.2496 133.77C56.4844 134.188 55.3978 129.901 54.8856 130.58C53.968 131.792 53.4206 133.589 51.4018 133.689C50.0259 132.597 48.2229 132.169 46.6728 131.201C45.355 130.378 43.8402 133.199 42.5669 132.526C41.1402 131.77 39.0044 131.929 37.7156 131.033C36.9898 130.529 37.0738 129.292 36.4703 128.669C35.1971 127.354 33.2095 126.815 32.1156 125.308C31.5992 124.598 31.4333 123.89 30.9948 123.07C30.4763 122.095 30.3115 121.497 30.0067 120.204C29.6054 118.51 29.9704 116.952 29.3773 115.354C28.863 113.966 27.3596 113.249 26.7655 111.871C26.02 110.144 26.1704 108.18 24.7748 107.143C24.1568 106.685 23.4144 106.481 22.783 106.023C22.4844 105.805 22.0904 104.892 21.9131 104.779C21.5813 104.738 21.2485 104.696 20.9177 104.654C20.4926 104.498 19.8094 104.182 19.4236 103.908C17.9959 102.893 17.239 101.207 16.1887 99.8012C15.577 98.9831 14.4126 98.7893 13.5759 98.1848C12.4903 97.3978 11.8931 95.7835 11.0864 94.6989C10.1564 93.4485 8.54513 93.4755 7.22939 92.5848C5.96652 91.7305 5.93644 89.7998 5.11423 88.4799C4.04524 86.7598 0.851778 86.8552 0.510658 84.4964C0.412159 84.3139 0.665153 83.6556 0.759505 83.2533H8.3502C8.94638 83.6182 10.6084 83.3766 11.4607 83.3766C14.0321 83.4181 16.6034 83.4596 19.1748 83.5021C20.3858 83.7623 22.164 83.3331 23.5306 83.6255C24.9946 83.9417 27.3586 83.8629 28.8796 83.8753H32.24C34.1747 84.2911 37.0789 84.1242 39.2076 84.1242H41.5716C43.161 84.4653 45.3654 84.1864 47.1715 84.2476C49.7304 84.3347 52.7477 84.3699 55.5077 84.373C56.0054 70.6463 56.5031 56.9144 57.0008 43.1877C57.1666 36.469 57.3326 29.7493 57.4984 23.0305C57.9661 20.8687 57.2672 17.9086 57.7463 15.6887C57.9308 14.8364 57.655 13.4626 57.8717 12.4548C58.2885 10.5242 58.1143 8.11148 58.1205 5.98389C59.6229 5.48932 62.2098 5.85941 63.9683 5.85941H76.7847C77.3726 6.22127 82.5682 5.98389 83.7522 5.98389C89.5585 6.06684 95.3669 6.14977 101.173 6.23272C101.323 16.9464 101.531 28.6761 101.546 39.5785C101.93 39.5671 102.333 39.5609 102.541 39.7039C103.731 40.0378 104.239 41.3111 104.906 42.1924C105.279 42.4817 105.652 42.773 106.026 43.0623H107.519C107.642 42.8559 107.768 42.6475 107.891 42.4401H108.016V42.9389C109.575 42.9441 110.705 42.9389 112.371 42.9389C112.559 43.2261 113.146 43.647 113.242 43.9332C113.316 44.1509 113.185 44.9908 113.242 45.3018C113.446 45.4273 113.653 45.727 113.863 45.7995C114.818 45.841 115.773 45.8835 116.727 45.925C117.64 46.207 118.451 46.9224 119.462 47.1692C120.673 47.4626 121.339 46.7099 122.45 46.9204C122.858 47.7809 123.367 48.4279 124.69 48.4123C125.018 48.036 125.45 47.2418 125.933 47.0448C126.441 46.7348 128.251 47.3289 129.168 47.1692C129.162 47.7073 129.215 48.1531 129.292 48.5367C129.87 48.8737 131.151 49.3766 131.409 50.0309C131.554 50.288 131.44 50.5503 131.409 51.0262C131.7 51.2325 131.988 51.4409 132.28 51.6494C134.552 51.6494 134.488 49.8255 136.386 49.5331C136.799 49.9707 136.855 50.682 137.629 50.7774C138.421 50.372 139.361 51.9449 140.616 52.0216C141.041 51.3259 141.446 50.7784 142.607 50.7774C142.649 50.9018 142.69 51.0262 142.731 51.1506C142.982 51.5519 143.014 52.7059 143.105 53.1414C143.562 53.4379 143.658 53.6235 144.473 53.6391C144.514 53.5976 144.557 53.5561 144.598 53.5156C144.68 52.8925 144.764 52.2694 144.846 51.6494H145.717C145.849 51.3207 146.033 50.2248 146.34 50.0309C146.562 49.8256 146.652 49.8121 147.086 49.781C147.462 50.5876 147.285 51.2978 148.581 51.275C149.089 51.7022 149.906 51.6245 150.446 51.3984C150.615 50.9039 150.595 50.5296 151.192 50.4041C151.32 50.5037 151.227 50.4487 151.441 50.5285C151.437 50.9422 151.475 51.2699 151.567 51.5239C151.938 51.6898 152.561 51.781 152.933 52.0216C153.043 52.0911 153.098 52.4674 153.184 52.5182C153.598 52.5618 154.013 52.6012 154.428 52.6437C155.039 53.0159 155.038 53.5582 156.046 53.6391C156.423 52.9195 156.603 52.7183 157.787 52.7681C157.988 52.4114 158.253 51.5757 158.658 51.3984C159.659 50.513 161.446 51.3269 163.012 50.9018C163.913 50.6581 164.432 49.8846 165.376 49.6576C166.398 49.4118 167.425 50.0775 168.114 50.2797C169.2 50.598 170.133 50.2248 170.976 50.0309C171.261 49.5166 171.398 48.9505 172.22 48.9111C172.685 49.2294 173.357 49.2356 173.838 49.5331C174.863 50.1667 175.737 51.2118 176.824 51.7728C177.297 52.0174 177.834 51.8858 178.316 52.146C178.675 52.3378 179.02 52.8334 179.437 53.0159C180.35 53.4172 181.321 53.4078 182.299 53.7635C183.289 54.1243 183.977 55.0181 185.036 55.1321C186 54.4281 187.949 54.3555 189.142 54.6355C189.183 54.6759 189.225 54.7184 189.267 54.7589C189.576 57.3976 189.438 61.0628 190.014 63.7171C190.367 65.3512 190.066 67.092 190.387 68.5706C190.741 70.2088 190.437 71.9299 190.759 73.423V75.6625C190.85 77.2872 190.722 79.4989 191.132 81.0126C191.796 83.4534 194.529 83.8878 195.24 86.1149C195.561 87.1248 194.604 88.3254 194.991 88.8521C195.376 89.3799 196.395 89.3664 196.732 89.8475C197.069 90.3266 197.872 94.0291 198.971 95.4475C199.221 95.7669 199.816 95.602 199.967 95.6963C200.593 96.7093 199.67 97.5803 199.844 98.4315C199.869 98.558 200.189 98.8608 200.216 98.9303L200.217 98.9292C200.58 99.8789 200.479 100.056 200.465 100.673C200.453 101.289 199.924 103.348 199.844 103.534C199.608 103.686 199.511 104.405 199.471 104.405C199.248 104.611 198.43 105.91 198.474 106.148C198.554 106.562 198.137 109.532 198.101 110.626C199.536 112.232 199.761 115.281 198.474 116.599C197.863 117.224 195.222 118.935 196.236 120.579C196.436 121.132 198.054 122.266 197.729 122.695C197.133 123.05 196.218 122.881 195.489 123.069C194.018 123.448 192.561 123.811 191.258 124.439C189.55 125.259 187.776 126.396 186.157 127.424C185.387 127.912 183.537 129.346 182.492 129.557C182.492 129.518 183.667 128.834 183.667 128.792C184.093 128.358 183.218 128.886 182.786 129.16C182.965 128.987 181.842 129.228 182.019 128.965C181.836 128.859 182.139 127.484 181.998 127.335C180.856 127.266 183.113 126.237 182.005 126.648V126.274C182.59 125.817 182.976 124.689 182.965 123.641C182.417 122.996 183.919 121.964 182.672 121.949C182.544 122.049 182.638 121.993 182.423 122.074C182.076 122.604 181.674 122.897 181.553 123.692C180.09 123.641 180.033 122.658 178.939 122.322V122.447C180.06 123.696 179.351 125.944 181.179 126.802C181.009 127.117 180.94 127.238 180.93 127.798C181.432 128.108 181.859 128.531 181.925 129.291C182.046 129.541 181.895 129.78 181.801 130.162C180.299 130.223 179.817 131.696 179.065 132.525H178.068C177.588 136.381 174.854 138.245 172.22 139.992C171.73 140.316 171.029 141.046 170.479 141.235C169.815 141.235 169.76 142.588 169.097 142.588C167.87 142.875 168.59 144.029 167.836 144.733C167.915 144.951 166.483 145.887 166.483 145.68C166.294 145.613 157.631 145.987 158.906 146.833V147.083C157.382 147.6 156.815 148.995 154.675 149.075C154.134 148.617 153.77 148.385 153.432 147.705C153.056 147.797 152.847 148.622 152.933 148.951C153.617 151.504 151.405 152.842 149.326 152.806C149.164 152.506 149.101 152.454 149.077 151.936C148.123 152.046 147.128 152.973 147.086 153.181C146.575 153.322 145.924 154.175 145.967 154.175C146.215 154.342 146.776 154.314 147.211 154.299C147.684 153.911 148.605 153.497 149.202 153.304V153.553C149.417 153.939 148.969 154.712 148.828 155.046V155.669C148.37 156.878 147.463 157.722 146.588 158.531C144.941 158.201 145.574 160.482 145.717 161.143C144.94 162.176 144.287 164.803 143.852 166.122C143.678 166.64 143.763 167.008 143.477 167.364C143.33 167.464 143.269 167.46 142.98 167.49C142.404 167.786 142.169 167.095 141.736 167.116C141.545 167.125 141.163 167.597 140.27 167.611ZM140.27 167.611C140.26 167.611 140.253 167.614 140.242 167.614C140.174 167.549 140.19 167.559 140.27 167.611ZM182.729 129.203C182.754 129.186 182.771 129.173 182.785 129.161C182.556 129.305 182.449 129.381 182.729 129.203Z" stroke="white" stroke-width="1.91763"/>
<path fill-rule="evenodd" clip-rule="evenodd" d="M49.8573 41.6256V66.0504H72.0353V57.8895H94.2164V139.697H83.1263V155.961H127.641V139.697H116.396V57.8895L139.544 41.6256H49.8573ZM38.6843 103.332L30.5918 109.324V127.406L38.6843 133.396H61.0852V148.476H40.7082V144.717H30.5918V149.971L38.6833 155.961H63.1081L71.2037 149.971V131.899L63.1081 125.909H40.7082V110.819H61.0863V114.575H71.2037V109.324L63.1091 103.332H38.6843ZM134.67 103.806V111.225H139.747V150.024L147.839 155.96H172.265L180.357 150.024V111.225H185.434V103.806H165.164V111.225H170.242V148.542H149.865V111.225H154.94V103.806H134.671H134.67Z" stroke="#6F263D" stroke-width="10.8619"/>
<path fill-rule="evenodd" clip-rule="evenodd" d="M49.8573 41.6256V66.0504H72.0353V57.8895H94.2164V139.697H83.1263V155.961H127.641V139.697H116.396V57.8895L161.069 41.6256H49.8594H49.8573ZM38.6843 103.332L30.5918 109.324V127.406L38.6843 133.396H61.0852V148.476H40.7082V144.717H30.5918V149.971L38.6833 155.961H63.1081L71.2037 149.971V131.899L63.1081 125.909H40.7082V110.819H61.0863V114.575H71.2037V109.324L63.1091 103.332H38.6843ZM134.67 103.806V111.225H139.747V150.024L147.839 155.96H172.265L180.357 150.024V111.225H185.434V103.806H165.164V111.225H170.242V148.542H149.865V111.225H154.94V103.806H134.671H134.67Z" stroke="#A2AAAD" stroke-width="3.83526"/>
<path d="M150.304 34.3786L146.835 34.9374C146.835 34.9374 144.443 34.8317 143.599 34.5382C142.755 34.2438 137.31 35.5772 136.185 35.5772L130.662 38.4533L121.984 37.655L121.718 41.6188H49.8482V66.0426H72.0272V57.8817H94.2073V139.689H83.1173V155.953H127.633V139.689H116.387V103.04L126.53 92.566L135.82 85.8151L138.523 84.3666L153.036 85.2915L156.992 87.2812L156.508 90.1522L160.245 93.1103L167.661 91.4317L168.29 86.797L171.502 84.0214L172.788 79.141L170.281 81.2054L170.631 78.7532L168.646 80.4422L166.083 81.2728L164.682 78.2545L159.474 73.4601C159.474 73.4601 162.701 67.6186 164.25 64.9757C165.798 62.3338 168.473 61.3073 168.473 61.3073L175.162 68.5808L174.05 72.415L171.312 76.9035L176.97 75.2114L178.706 73.8531L179.564 71.1252L178.626 70.1775L181.149 69.6176L182.83 65.1229L185.331 63.7833L185.962 61.3073L187.473 59.2523L189.164 56.905L186.75 54.3554L178.888 47.8056L172.976 45.4572L168.212 38.6929L157.495 37.6788L153.132 35.1863L150.304 34.3786ZM38.6804 103.324L30.5879 109.315V127.398L38.6804 133.387H61.0813V148.467H40.7043V144.71H30.5879V149.962L38.6794 155.952H63.1042L71.1998 149.962V131.89L63.1042 125.9H40.7043V110.811H61.0824V114.568H71.1998V109.314L63.1052 103.324H38.6804ZM134.666 103.798V111.218H139.743V150.016L147.835 155.952H172.262L180.353 150.016V111.218H185.43V103.798H165.16V111.218H170.238V148.535H149.861V111.218H154.936V103.798H134.666Z" fill="white"/>
<path d="M151.166 33.7886C149.815 33.7979 148.008 34.194 146.637 34.0073C144.808 33.7595 143.088 33.9234 142.08 33.9451C139.022 34.0063 133.387 35.2588 129.91 38.0707C129.91 38.0707 127.753 37.5077 124.505 37.3366C122.948 37.2547 121.486 37.093 121.337 37.5088C121.09 38.1931 120.821 39.5202 120.928 41.7214C120.928 41.7214 120.027 42.0584 117.021 43.3555C114.016 44.6526 111.137 45.565 111.137 45.565C111.137 45.565 111.895 45.7039 113.066 45.7516C114.983 45.8294 116.06 45.7402 116.088 45.733C118.735 45.0113 120.916 43.8449 121.228 43.7256C121.63 44.9584 122.34 46.7221 123.451 48.4391C122.911 49.7569 121.386 53.1692 115.787 55.1153C115.787 55.1153 120.358 56.5731 119.08 58.7411C117.156 61.9989 115.472 63.7294 114.843 65.8248C113.997 68.6357 114.412 71.5606 114.461 71.5606C114.608 71.5606 114.735 68.1619 117.8 64.2416C119.559 61.9906 121.957 60.6365 123.383 56.9651C123.957 55.4855 124.824 51.0893 125.109 49.7341C125.184 49.8586 128.094 52.6735 131.15 52.6165C131.074 52.7295 127.113 57.1568 126.591 60.6821C126.324 62.4779 126.489 64.5806 126.989 66.4024C127.488 68.222 128.284 71.9194 126.694 74.3352C124.312 77.9538 119.711 78.0834 117.663 82.5304C116.339 85.4035 116.175 86.9318 116.226 88.2537C116.254 88.9785 116.3 89.6006 116.302 90.4373C116.492 87.4584 119.26 82.885 122.261 81.8751C126.148 80.5676 130.761 77.2041 131.78 74.6307C132.797 72.0583 133.218 67.6621 131.419 65.7886C130.105 64.4179 128.782 61.9066 129.244 59.5986C129.706 57.2906 130.709 55.7436 131.15 55.1765C132.823 53.0157 132.633 52.8145 134.107 50.8217C134.107 50.8217 132.867 51.0063 131.948 50.9047C130.911 50.7906 129.513 51.138 127.057 49.5454C125.293 48.4008 123.865 46.8683 122.74 43.0527C121.756 39.7193 122.43 38.474 122.43 38.474C122.43 38.474 126.3 38.5549 128.472 38.8815C135.546 39.9443 138.727 40.217 138.906 42.4047C138.906 42.4047 139.067 40.4793 137.762 39.7732C136.455 39.0682 135.007 38.9458 135.007 38.9458C136.625 37.2568 138.019 37.5875 139.354 37.5419C142.261 37.4445 143.759 36.3206 144.718 35.2588C146.577 36.3206 150.321 34.7829 151.28 35.1582C146.692 39.4746 145.024 38.0873 142.992 39.6508C141.975 40.4575 140.967 42.2834 140.967 42.2834C143.604 39.7203 146.485 40.9511 147.923 39.6581C149.962 37.8229 151.035 36.6347 153.498 36.1567C154.896 36.8649 154.741 36.9302 154.741 36.9302L156.409 38.0064C156.409 38.0064 154.226 39.0236 153.778 40.4181C153.533 41.1885 151.677 40.8007 149.878 42.0937C149.496 42.3684 147.419 45.1077 147.24 46.1767C147.24 46.1767 149.154 44.0585 151.118 43.0921C152.603 42.3612 153.976 42.3508 154.838 41.9641C159.027 43.2383 159.552 40.4057 161.07 40.2315C162.644 40.0511 164.485 42.2087 166.368 42.3663C167.44 42.4576 168.065 44.215 168.273 45.537C168.205 46.0741 168.019 46.4878 167.544 46.5106C166.474 45.9828 165.416 45.3047 164.966 45.0559C164.966 45.0559 163.523 43.5712 162.257 43.5027C160.648 43.4136 158.928 45.3286 157.647 45.1647C156.365 44.9999 156.09 44.3633 156.09 44.3633C156.09 44.3633 156.169 46.156 158.603 46.2659C158.603 46.2659 159.936 48.1872 162.303 48.0223C164.67 47.8575 164.203 47.6231 164.966 47.3618C165.208 47.2799 165.74 47.2343 166.329 47.2012C168.13 47.4344 165.96 48.8103 164.119 50.4132C163.558 50.6393 163.021 50.7938 162.564 50.7388C161.282 50.5833 159.367 49.2789 159.367 49.2789C159.367 49.2789 160.184 51.9115 163.12 52.1769C162.719 54.1915 163.243 57.1869 161.028 59.5955C159.65 61.0958 156.749 60.7578 155.233 60.8045C153.718 60.8511 162.947 63.0948 163.067 62.1575C163.067 62.1575 162.528 64.4707 160.849 66.0332C159.713 67.0908 158.494 68.6917 157.722 70.3206C154.441 75.3046 156.036 80.5044 160.028 82.9606C157.989 80.7242 157.434 78.5665 157.518 75.2269C157.889 75.6966 162.677 81.8543 162.458 87.2594C162.458 87.2594 162.859 87.585 163.751 87.5383C164.643 87.4906 166.388 88.1998 167.68 87.4097C167.68 87.4097 166.35 89.5073 167.231 91.0874C166.822 91.1942 166.585 92.062 164.256 91.5384C162.592 91.1631 160.314 92.5742 160.314 92.5742C159.901 91.8847 159.37 91.5529 158.89 91.3839C157.947 91.0563 157.062 89.8412 157.062 89.8412C157.062 89.8412 157.686 89.6006 157.422 86.7949C157.422 86.7949 156.157 86.4921 155.818 86.0981C156.364 84.1447 156.268 82.8891 156.044 81.7196C155.015 76.328 150.178 73.6322 155.405 69.318C154.281 69.1624 152.393 68.5403 151.586 66.9477C150.38 64.5713 150.519 59.6619 154.409 56.5171C156.906 54.4994 154.779 52.3408 158.109 49.9229C153.698 50.6248 154.792 54.7949 152.236 55.4212C140.601 58.2725 142.692 67.0006 143.463 69.7887C143.618 69.6601 143.754 58.7111 151.375 57.5135C147.665 62.1824 149.246 64.873 149.991 66.1431C144.918 68.813 144.408 73.8717 146.698 76.7157C146.775 76.6515 145.001 68.305 152.121 69.7099C151.509 71.3149 150.677 73.3927 150.896 75.0029C151.171 77.003 153.239 78.2845 154.305 80.3551C155.305 82.295 155.836 84.4496 155.808 86.0888C155.798 86.0764 155.78 86.0639 155.772 86.0505C155.505 85.6326 154.053 84.4309 152.821 84.3044C152.359 84.2577 150.632 84.1105 149.049 83.9768C147.914 82.2753 146.14 81.9705 144.966 79.4157C143.318 75.8324 143.657 74.4316 143.865 71.7804C140.263 78.2348 145.326 83.4801 145.326 83.5755C139.636 83.6346 138.635 75.8552 139.035 72.7301C139.359 70.1961 136.837 68.757 137.487 65.577C139.167 57.3881 144.447 56.6021 148.006 52.2163C149.645 50.1976 149.397 49.2136 149.446 47.4023C148.95 49.3173 147.739 51.0115 145.624 52.094C141.768 54.0671 136.571 57.3621 135.212 61.1766C133.83 65.0544 134.129 69.3905 136.324 74.4918C137.934 78.2327 137.905 80.0865 136.783 82.9441C136.246 83.6564 135.625 84.3998 134.912 85.1266C132.158 87.9426 128.752 88.6643 128.752 88.6643C128.752 88.6643 132.27 84.2464 130.191 79.0788C130.671 84.996 124.654 91.8702 114.55 98.6242C114.55 101.574 114.607 106.836 114.607 106.836C114.607 106.836 122.279 97.4038 127.916 92.3741C131.858 88.8582 137.504 85.7871 139.649 85.4231C140.863 85.2178 143.185 85.2966 145.059 85.4128C144.66 85.8296 144.581 86.3604 144.74 86.6622C145.619 85.786 146.465 85.4957 147.015 85.4957C147.655 85.5341 148.952 85.4739 148.496 85.4957C148.228 85.5092 147.337 86.6217 147.977 86.7887C148.496 85.8721 150.354 85.6865 150.615 85.7052C151.627 85.7747 152.398 85.6855 152.766 85.9955C154.26 87.2511 156.199 87.838 156.199 87.838C156.199 87.838 155.991 89.6721 155.404 90.2258C156.648 91.021 156.855 92.1616 157.728 92.4312C159.107 92.8563 159.774 94.4281 161.179 94.5141C160.832 93.7873 160.988 93.468 161.509 93.1974C162.831 92.5079 164.314 92.9661 164.813 92.9672C165.639 92.9703 166.703 92.6531 167.051 92.3928C167.051 92.3928 167.831 91.8619 168.175 91.216C167.441 89.33 168.697 89.1713 168.697 89.1713C168.697 89.1713 168.063 87.8763 168.726 86.9027C168.726 86.9027 174.021 83.8896 173.026 77.8926L170.806 80.2545C170.806 80.2545 171.076 79.369 170.778 78.2762C170.778 78.2762 167.821 81.2737 166.124 80.7232C166.124 80.7232 166.814 78.8485 160.189 73.5233C160.189 73.5233 163.354 65.7782 168.69 62.3452C168.69 62.3452 169.446 63.1073 170.379 64.1182C169.229 64.7787 168.487 65.4184 168.508 65.4308C168.49 65.4132 169.297 64.8232 170.505 64.253C171.129 64.9342 171.817 65.7118 172.407 66.4417C170.903 67.6403 169.881 68.8607 169.881 68.8535C169.877 68.8628 171.006 67.7129 172.575 66.6512C173.14 67.3645 173.525 68.052 173.767 68.4677C175.173 70.896 172.355 75.0237 170.37 76.8195C170.37 76.8195 171.655 78.0005 174.946 76.0761C174.946 76.0761 177.509 75.5172 178.457 74.4244C179.405 73.3326 180.073 72.0946 179.821 70.7778C179.821 70.7778 181.077 70.9281 182.177 68.6046C182.792 67.3054 183.259 65.915 183.259 65.915C183.259 65.915 185.139 64.5277 185.423 64.2654C185.611 64.0922 185.803 63.3675 185.959 62.5868C186.171 62.0798 186.286 61.6536 186.286 61.6536C186.286 61.6536 187.982 60.4063 188.482 59.7811C188.98 59.1569 189.559 58.0734 189.677 57.3393C189.774 56.7348 188.088 54.3419 187.085 53.9572C186.372 53.6835 185.738 53.2812 184.889 52.7099C184.042 52.1375 181.298 48.7564 180 47.873C178.704 46.9885 174.465 45.3763 173.368 44.3871C172.271 43.4 170.558 39.5721 168.96 38.5726C167.475 37.6446 165.809 37.2589 162.965 37.1552C160.122 37.0505 157.355 36.6897 157.355 36.6897C157.355 36.6897 153.773 34.4874 152.333 33.9461C152.018 33.8279 151.617 33.7875 151.167 33.7907L151.166 33.7886ZM141.823 35.0463C142.891 35.0172 143.88 35.1323 143.88 35.1323C143.88 35.1323 142.961 35.8052 139.862 36.3195C138.3 36.5787 137.708 36.0904 137.285 35.9452C137.285 35.9452 139.084 35.3832 140.761 35.1323C141.101 35.0815 141.466 35.0556 141.823 35.0463ZM136.984 36.1318C134.661 37.3066 134.172 38.6275 134.047 38.7571C133.148 38.445 131.89 38.3838 131.89 38.3838C133.454 37.1531 135.712 36.2521 136.984 36.1318ZM160.386 38.2366C160.674 38.2293 160.973 38.2314 161.286 38.2366C162.366 38.2542 163.262 38.2636 164.242 38.4025C165.07 38.5218 165.628 38.5912 166.775 38.9437C166.76 39.6622 166.546 40.8857 165.2 40.8349C163.303 40.7655 162.886 39.3543 160.848 39.4207C159.174 39.4767 158.683 39.9515 157.536 41.0143C156.816 41.682 155.78 41.8096 155.082 41.8241C155.283 41.6955 155.457 41.5421 155.57 41.3212C156.882 38.7509 158.362 38.2843 160.386 38.2366ZM167.057 39.0319C167.189 39.0754 167.29 39.1024 167.44 39.1532C169.112 39.7183 171.463 44.5904 172.622 45.5194C173.779 46.4494 177.647 48.069 178.894 48.7191C180.145 49.3712 183.818 53.3133 185.423 54.1956C186.727 54.9142 188.894 56.7691 188.034 57.6877C187.171 58.6074 185.836 57.1465 185.438 56.5742C185.038 56.0029 184.201 55.895 183.731 56.0039C183.26 56.1148 183.073 56.485 182.754 56.8272C182.139 57.4876 183.454 58.2798 183.638 58.8283C183.82 59.3767 182.888 59.8931 183.327 59.8278C183.876 59.7448 185.165 59.5685 185.41 60.9848C185.456 61.2565 185.334 62.1212 185.321 62.4261C185.031 63.0979 184.585 63.7356 184.169 63.973C183.678 64.2509 182.518 64.6698 182.518 64.6698C182.518 64.6698 181.195 68.1442 180.927 68.5165C180.793 68.7052 180.524 68.9343 180.135 69.0763C179.489 69.2256 179.007 69.206 178.685 69.1313C177.482 68.8514 177.748 68.1567 176.946 67.9234C176.142 67.6911 175.297 67.7378 174.628 67.2266C174.436 67.0794 174.045 66.6304 173.58 66.0197C173.653 65.9803 173.725 65.9389 173.798 65.8995C175.988 64.7414 178.475 64.3961 178.694 64.4075C178.815 64.3919 179.195 64.4386 179.297 64.4386C179.509 64.4386 179.684 64.2582 179.684 64.0373C179.684 63.8144 179.509 63.636 179.297 63.636C179.244 63.636 178.807 63.6184 178.601 63.6443C178.353 63.634 175.771 64.199 173.619 65.5635C173.533 65.6185 173.45 65.6766 173.366 65.7326C172.917 65.127 172.418 64.4023 171.964 63.6651C172.279 63.5614 172.61 63.467 172.946 63.3924C175.335 62.6459 177.833 63.1124 178.073 63.1176C178.547 63.1581 178.946 63.0253 178.969 62.8128C178.988 62.6023 178.615 62.3908 178.133 62.3483C177.93 62.3431 175.231 62.0673 172.842 63.0222C172.483 63.1332 172.138 63.2638 171.805 63.4038C171.187 62.3752 170.675 61.3499 170.526 60.6261C170.456 60.2819 170.432 59.893 170.454 59.4835C170.681 59.4939 170.909 59.5074 171.138 59.5281C174.027 59.6422 176.736 60.8076 176.946 60.961C177.437 61.184 177.879 61.2617 177.99 61.0875C178.107 60.9081 177.772 60.4965 177.243 60.258C177.003 60.0828 174.079 59.0595 171.151 59.1445C170.927 59.1393 170.703 59.1403 170.482 59.1445C170.595 55.8183 173.397 55.0551 173.415 55.0717C170.541 55.2988 169.509 57.5415 169.383 59.2627C167.291 59.4483 165.482 59.8786 165.498 59.9138C165.486 59.8775 167.238 59.6007 169.303 59.5541C169.291 60.0466 169.343 60.6385 169.412 60.9517C169.412 60.9517 167.985 60.4405 166.292 60.6728C164.598 60.904 164.457 61.0471 164.057 60.9081C163.657 60.7682 163.062 60.2746 163.462 59.299C163.864 58.3233 164.483 57.6151 164.764 56.1563C164.984 53.7311 164.282 53.614 165.082 51.7393C165.882 49.8637 167.539 49.2157 168.518 49.0301C169.498 48.8456 172.666 49.8897 174.003 50.6331C175.341 51.3765 177.034 52.6777 177.747 52.8177C177.747 52.8177 174.887 49.195 174.822 47.7942C173.327 48.0492 170.749 47.6117 170.169 47.4707C169.622 47.3774 169.188 46.3861 168.868 45.397C168.358 42.0708 167.503 39.9723 167.057 39.0319ZM123.958 39.965C123.958 39.965 131.591 41.3336 133.561 43.9382L128.238 44.159C128.238 44.159 128.81 45.1108 129.744 45.9859C130.681 46.862 131.978 47.3432 131.978 47.3432L129.272 47.3577C129.272 47.3577 130.55 50.5978 133.256 49.0996C133.256 49.0996 131.261 49.2219 130.738 48.0264C132.095 48.3997 133.809 48.5998 135.21 47.9445C132.31 46.8932 131.281 45.6946 131.281 45.6946L137.207 46.607L136.482 45.284L138.301 45.8304C138.301 45.8304 135.768 42.3332 133.376 41.3917C130.037 40.078 123.958 39.965 123.958 39.965ZM147.738 42.5882C147.738 42.5882 145.984 42.7821 144.814 43.3586C143.646 43.9361 141.577 45.8035 140.783 46.7263C139.394 48.3437 139.466 50.237 136.928 52.5948C136.928 52.5948 140.689 50.9389 141.365 49.0944C142.923 44.8444 147.738 42.5882 147.738 42.5882ZM162.251 44.3353C161.369 45.4862 162.516 47.2747 162.516 47.2747C161.137 47.2136 159.744 45.6199 159.744 45.6199C159.744 45.6199 160.109 45.1679 160.951 44.7759C161.791 44.384 162.251 44.3353 162.251 44.3353ZM163.718 45.3991C163.889 45.4831 163.995 45.594 164.114 45.874C164.124 46.3903 163.768 46.662 163.768 46.662L163.508 46.7263C162.897 45.9528 163.718 45.3991 163.718 45.3991ZM177.275 51.195C177.294 51.1857 178.031 53.1609 178.371 55.2906C178.758 57.4078 178.944 59.6038 178.967 59.807C179.018 60.2186 179.188 60.5349 179.356 60.5172C179.523 60.5006 179.628 60.145 179.577 59.7272C179.553 59.5198 179.21 57.3186 178.669 55.219C178.175 53.1007 177.292 51.1816 177.275 51.195ZM171.733 52.3304C171.744 52.3127 173.326 53.7042 174.63 55.4253C175.969 57.1091 177.168 58.9599 177.285 59.1279C177.522 59.4669 177.822 59.6639 177.962 59.5706C178.103 59.4763 178.025 59.1144 177.785 58.7702C177.665 58.598 176.327 56.8157 174.861 55.219C173.425 53.5839 171.741 52.3096 171.733 52.3304ZM180.14 52.6901C180.137 52.6849 180.759 54.6042 180.892 56.6302C181.008 58.6634 180.553 60.6842 180.488 60.8542C180.403 61.2285 180.454 61.578 180.617 61.6225C180.781 61.6661 180.996 61.3955 181.086 61.0015C181.158 60.8097 181.475 58.6613 181.199 56.5949C180.906 54.5357 180.136 52.688 180.14 52.6901ZM176.223 69.1769C176.467 69.1727 176.725 69.263 176.972 69.4081C178.166 70.108 177.831 71.2029 177.148 72.5736C176.282 74.3144 174.031 76.0709 171.687 76.441C171.687 76.441 173.223 75.2901 173.764 74.1828C174.306 73.0744 174.837 71.5949 175.24 70.1951C175.452 69.4579 175.818 69.1842 176.223 69.1769ZM178.588 70.783C178.588 70.783 179.143 70.839 179.216 71.1905C179.307 71.6218 178.891 72.416 178.528 73.063C177.692 74.5561 175.843 75.2321 175.843 75.2321C177.325 74.2357 178.547 71.6674 178.588 70.783ZM170.448 79.1275C170.448 79.1275 170.182 80.6454 169.796 81.0923C169.413 81.5391 166.952 82.3883 166.749 82.2939C166.545 82.1996 166.119 81.4987 166.559 81.4313C168.254 81.1711 169.635 80.4443 170.448 79.1275ZM172.422 79.5691C172.422 79.5691 171.971 81.9404 170.797 83.6595C169.624 85.3765 167.592 86.5761 166.259 86.5295C165.469 86.4818 165.22 85.3516 165.22 85.3516C164.995 84.4102 165.403 83.4469 166.215 83.1877C167.028 82.9285 168.248 82.6454 169.233 82.1561C170.469 81.5402 171.881 80.1104 172.422 79.5691Z" fill="#6F263D"/>
<path d="M162.632 44.4167C161.912 45.8465 162.935 47.0669 162.935 47.0669C162.261 45.4297 163.052 44.7142 163.052 44.7142L162.632 44.4167ZM158.63 74.0444C158.621 74.1169 158.938 74.7421 161.63 78.5598C163.629 81.3924 163.63 85.3086 163.63 85.3086C164.348 81.8082 164.908 79.3934 163.469 77.4753C163.125 77.0191 161.972 76.5224 161.55 75.975C160.207 74.2289 158.674 74.0578 158.674 74.0578C158.674 74.0578 158.633 74.0195 158.63 74.0444Z" fill="white"/>
</g>
<defs>
<clipPath id="clip0_154_2471">
<rect width="200" height="200" fill="white"/>
</clipPath>
</defs>
</svg>
