<svg width="200" height="200" viewBox="0 0 200 200" fill="none" xmlns="http://www.w3.org/2000/svg">
<g clip-path="url(#clip0_154_2419)">
<path d="M187.748 49.6688L200 45.6857L195.781 42.7563C172.176 26.351 138.738 16.9458 104.036 16.9458C68.1019 16.9458 33.868 26.9214 10.1039 44.3128L0 52.14L11.9496 56.0203V79.5899L1.7379 102.785L29.1876 84.483C37.683 78.7629 40.6331 74.0244 41.625 71.7985C48.296 68.7046 55.3217 66.1452 62.5939 64.11C61.5505 65.6004 60.6255 67.1783 59.834 68.8485C58.0969 70.118 56.4265 71.6033 54.8591 73.2787C50.804 77.601 48.8305 83.3926 49.2931 89.5862C49.5706 93.2609 50.6859 96.7196 52.382 99.3664C50.9738 99.9575 48.8666 100.487 45.9319 100.415L41.1574 100.286L42.7404 104.794C42.8688 105.153 45.8703 113.238 59.3866 113.993C59.736 123.748 63.791 137.404 79.7334 150.77C80.3347 155.159 83.0637 168.008 94.6739 173.378L99.3456 175.537V175.162C103.493 179.099 108.334 181.139 115.021 182.064L122.211 183.051L118.218 176.991C110.159 164.765 124.745 152.281 125.367 151.756C143.884 136.272 146.592 120.961 146.742 114.018C160.304 113.308 163.414 105.358 163.542 105.003L165.233 100.444L160.371 100.568C157.072 100.655 154.831 99.9869 153.438 99.3136C160.828 86.0283 154.533 74.5625 145.539 67.871C144.552 66.2366 143.447 64.6948 142.249 63.2404C149.398 65.0597 156.326 67.393 162.936 70.23L156.645 72.8357L161.78 75.3077C171.411 79.9486 186.557 89.0507 194.219 95.6646L198.433 99.3033V72.3265L187.749 66.2568V49.6671L187.748 49.6688Z" fill="#A7A8AA"/>
<path d="M185.198 67.743V47.8126L194.325 44.8471C171.897 29.2594 139.75 19.4943 104.036 19.4943C67.1761 19.4943 34.1145 29.8965 11.6135 46.3683L5.36914 51.1993L14.5019 54.17V80.1236L7.58942 95.8141L27.7618 82.3645C38.4261 75.1848 39.5975 69.927 39.5975 69.927C49.5114 65.2399 60.3657 61.6115 71.8828 59.2264C67.5554 62.4951 64.4205 66.5655 62.452 71.0218C60.7406 72.1987 58.9931 73.6788 57.256 75.529C49.5469 83.7521 52.4969 96.2458 57.256 100.003C57.256 100.003 54.1261 103.914 45.8467 103.698C45.8467 103.698 48.5089 111.274 62.9204 110.729C62.8176 111.048 62.6634 111.592 62.6583 112.096C62.5709 118.541 64.0561 133.826 82.8558 149.079C82.8558 149.079 83.858 164.749 96.0535 170.392V165.587C101.255 174.154 106.363 177.547 115.465 178.801C105.659 163.917 123.251 149.234 123.251 149.234C146.605 129.704 143.289 110.745 143.289 110.745C157.701 111.29 160.455 103.858 160.455 103.858C152.17 104.074 149.04 100.163 149.04 100.163C159.941 84.2821 147.755 73.4847 143.048 70.1339C140.365 65.4929 136.737 61.6539 132.599 58.5291C145.797 60.9343 158.173 64.9636 169.33 70.3395L162.88 73.012C172.773 77.7762 188.16 87.0735 195.88 93.7338V73.8083L185.196 67.7438L185.198 67.743Z" fill="#003865"/>
<path d="M128.363 67.2598C128.307 67.229 128.271 67.1672 128.281 67.1005C128.286 67.0388 128.327 66.9823 128.389 66.9617C129.72 66.4889 131.154 66.2473 132.65 66.2473C134.32 66.2473 135.656 66.5403 136.365 66.7407C124.935 53.4756 105.776 52.9312 103.18 52.9211L105.785 56.4211C105.827 56.4725 105.832 56.5496 105.796 56.6061C105.76 56.6626 105.693 56.6935 105.626 56.6781C105.595 56.673 102.702 56.1179 98.5081 56.1179C90.6294 56.1179 79.7188 57.9783 72.1331 66.7408C72.8423 66.5404 74.1786 66.2474 75.8489 66.2474C77.3445 66.2474 78.7784 66.489 80.1095 66.9618C80.1712 66.9824 80.2175 67.0389 80.2226 67.1006C80.2276 67.1674 80.1917 67.2291 80.1352 67.2599C80.0118 67.3268 67.8157 74.1211 68.2068 81.6451C68.4175 85.6127 72.0664 89.1177 79.0556 92.0624C79.1121 92.0881 79.1481 92.1395 79.1533 92.2011C79.1583 92.2423 79.4873 96.3281 76.8919 99.1651C75.2371 100.974 72.7702 101.894 69.5683 101.894C61.1602 101.894 58.3334 105.61 57.6348 106.838C58.1538 106.648 59.1611 106.386 60.7081 106.386C63.4629 106.386 66.6956 107.203 70.324 108.812C70.3651 108.832 70.396 108.868 70.4114 108.915C70.4268 108.956 70.4217 109.007 70.396 109.048C70.36 109.115 69.3938 110.729 66.6442 110.796C66.9423 112.908 70.0208 132.433 80.7369 133.856C81.0299 132.957 82.8955 127.833 88.3741 124.703C88.441 124.662 88.5283 124.677 88.5797 124.734C88.6311 124.795 88.6363 124.883 88.5847 124.944C88.5128 125.042 81.2148 134.606 88.3072 143.256C88.3432 143.302 88.3535 143.359 88.3381 143.415C88.3021 143.513 85.1671 153.309 93.0149 160.154C92.835 158.91 92.5009 155.338 94.1095 152.142C94.1352 152.085 94.1918 152.049 94.2534 152.049H94.274C94.3408 152.06 94.3973 152.106 94.4127 152.173C94.4384 152.275 97.0235 162.015 103.972 167.586C102.708 164.939 98.3084 154.712 101.932 147.254C103.854 143.302 107.703 140.712 113.377 139.55C110.088 138.841 106.506 138.481 102.723 138.481C95.0653 138.481 89.1242 139.972 89.0627 139.987C89.0216 139.998 88.9702 139.987 88.9343 139.967C88.8983 139.941 88.8674 139.9 88.8623 139.859C87.3667 132.119 92.465 128.942 92.5164 128.912C92.5575 128.886 92.6141 128.881 92.6603 128.902C95.3071 129.93 99.9326 131.153 101.67 131.523C102.214 131.636 102.749 131.698 103.227 131.698C103.782 131.698 105.067 131.605 105.067 130.757C105.067 129.781 104.132 129.436 104.09 129.421L98.3394 128.588C98.2931 128.583 92.871 128.1 92.6912 123.284C92.6449 121.943 93.0664 120.797 93.9504 119.882C95.2918 118.489 97.3732 117.991 98.7403 117.991C99.4187 117.991 99.9995 118.109 100.375 118.315C100.58 118.433 100.781 118.551 100.986 118.669C101.891 119.209 102.831 119.764 104.065 119.826C105.278 119.764 106.213 119.209 107.123 118.669C107.328 118.551 107.529 118.433 107.734 118.315C108.104 118.109 108.675 117.996 109.343 117.996C110.201 117.996 111.142 118.176 111.985 118.5C112.052 118.525 113.609 119.08 114.616 120.668C115.762 118.525 117.725 116.531 120.46 114.727C125.075 111.685 126.113 109.377 126.169 107.979C126.216 106.838 125.63 106.108 125.368 105.841C123.543 108.303 121.328 108.827 119.781 108.827C118.676 108.827 117.844 108.57 117.571 108.473C115.068 110.652 112.19 115.745 112.159 115.796C112.123 115.863 112.046 115.894 111.969 115.873C111.897 115.853 111.851 115.786 111.851 115.709C111.933 112.923 113.799 106.931 114.056 106.103L111.301 102.763C111.25 102.701 111.25 102.619 111.291 102.562C111.337 102.501 111.414 102.475 111.486 102.501C112.273 102.809 113.095 102.963 113.943 102.963C120.511 102.968 126.648 93.8561 127.326 92.818C127.347 92.782 127.377 92.7563 127.418 92.746C128.657 92.3863 129.438 92.0676 129.443 92.0625C136.433 89.1176 140.081 85.6125 140.287 81.6451C140.683 74.1159 128.486 67.3263 128.363 67.2598Z" fill="#EF5B0C"/>
<path d="M81.401 93.46C81.3284 93.4801 81.28 93.5519 81.28 93.6237C81.5623 99.698 76.0283 102.763 75.9718 102.795C75.8944 102.835 75.8646 102.932 75.9057 103.013C75.9468 103.093 76.0444 103.125 76.121 103.085C76.1315 103.077 76.9017 102.714 78.0227 102.714C79.338 102.714 81.2719 103.222 83.022 105.69C84.8607 108.279 87.1349 108.819 88.7156 108.819C89.8124 108.819 90.6431 108.561 90.9173 108.464C94.1028 111.424 96.377 116.819 96.3932 116.876C96.4254 116.94 96.4819 116.973 96.5545 116.973H96.5787C96.6593 116.956 96.7158 116.884 96.7158 116.803C96.5867 111.569 94.7399 106.811 94.4415 106.093L97.1996 102.755C97.248 102.698 97.24 102.617 97.1996 102.553C97.1593 102.496 97.0787 102.472 97.0061 102.496C96.1835 102.827 95.3125 102.988 94.4254 102.988C87.7237 102.988 81.6429 93.6237 81.5864 93.5261C81.5461 93.4648 81.4655 93.4398 81.401 93.46ZM76.2501 106.867L74.9492 108.126C67.8467 115.335 79.0509 119.198 81.4493 122.335L83.3849 125.263C85.4736 112.448 74.575 119.182 76.2501 106.867Z" fill="#003865"/>
<path d="M107.352 23.5742L107.449 25.5745L107.497 50.4487L114.07 51.014L111.674 48.7729L111.562 30.7753L121.553 51.5842L128.247 52.0995L128.295 27.1261L130.602 25.2608L124.078 24.7728L123.908 41.5269L115.739 24.1462L107.352 23.5742ZM104.142 23.664L103.094 23.7302L94.626 24.2753L96.7631 26.0648L90.4244 35.3559L90.5696 26.5624L92.7067 24.393L81.8841 24.9946L83.3276 27.0204L83.2873 49.8898L81.1583 52.0584L92.6664 51.3447L90.5051 49.4487L90.4567 41.118L96.0938 49.2277L94.4325 51.2358L106.174 50.4963L104.029 48.5334L94.6906 35.5261L101.771 25.9349L104.142 23.664ZM79.9809 25.1906L75.826 27.0914C74.9986 26.6858 73.7792 26.4035 71.9494 26.8503C65.8494 28.3511 60.9163 36.3833 61.0502 43.8455C61.0704 45.0019 61.2808 48.9898 63.1623 51.6471C64.3695 53.3334 67.6325 55.4769 71.6768 54.4906C73.7381 53.9866 75.0446 52.9987 75.9083 52.1148L79.7163 52.1769L79.576 43.0963L76.4671 43.8567L76.3188 44.5245C75.4502 48.3019 74.4067 50.7689 71.847 51.3906C69.6526 51.9301 68.897 50.6608 68.6244 45.9737C68.5575 44.8535 68.4865 43.5842 68.4607 42.3148C68.4196 39.7503 68.5946 36.0083 68.7494 34.518C68.9292 32.7914 69.3389 31.8398 70.3825 30.7712C70.6962 30.4624 71.2663 30.0261 72.0018 29.8462C72.8809 29.6301 73.4865 29.7277 74.0365 30.16C75.4292 31.2027 75.7792 33.2382 76.1284 34.8108L76.272 35.443L80.0857 34.5592L79.9809 25.1906ZM131.029 25.4866L133.102 27.9938L133.134 50.9729L131.118 52.531L149.174 56.7914L150.166 57.0164L150.191 56.281L150.481 49.5285L150.513 48.7156L149.433 48.4656L148.4 48.2229L147.489 48.0076L147.384 48.6705C147.166 50.0785 146.852 50.8398 144.876 51.7342C143.594 52.3043 141.989 52.0729 140.376 51.739L140.215 42.6721C143.707 43.4947 144.247 46.2398 144.247 46.2398L145.529 46.5422L145.489 36.1148L144.174 35.8172C144.174 35.8172 143.481 40.4172 140.158 39.6309L140.392 30.61C142.134 31.0212 143.755 31.4632 145.029 32.6656C146.795 34.2793 146.844 35.0051 146.892 35.7656L146.9 35.8382L146.957 36.5987L150.07 37.3237L149.949 29.9124L131.029 25.4866ZM61.0421 29.0495L52.0542 32.3382L54.4332 33.5148L54.4236 51.1592C54.3203 53.8882 53.73 55.5527 50.6461 56.6785C47.1211 57.9576 46.9397 56.5963 46.8881 54.0116C46.8881 54.0269 46.8784 39.1688 46.8784 36.26L48.955 33.4737L37.4945 37.668L39.6364 38.9172L39.6792 56.6124C39.7252 58.5955 39.801 61.5761 43.6816 61.756C45.7421 61.8592 49.5002 60.4971 49.5357 60.4818C50.1631 60.256 53.38 59.0326 55.1841 57.4955C58.5453 54.6382 58.5962 51.631 58.6373 49.431C58.6373 49.4261 58.6736 34.8616 58.6687 31.968L61.0421 29.0495ZM151.655 30.6382L153.712 33.4293L153.671 56.4229L151.599 57.6721L171.155 65.0423L171.042 56.6132L168.018 55.4777C168.018 55.4777 167.655 60.739 160.897 58.1906L160.994 36.164L163.018 34.8946L151.655 30.6382ZM172.026 37.635L174.083 40.8624V72.5003L172.018 73.3173L191.575 84.8189L191.462 76.3705L188.437 74.5915C188.437 74.5915 188.083 79.7778 181.316 75.8044L181.365 45.139L183.397 44.3011L172.026 37.635ZM33.9534 39.9398C31.4566 39.7761 27.4477 42.3688 25.4477 43.6697L25.4324 43.6801C25.3808 43.7164 25.3663 43.7261 25.3663 43.7261L15.6211 50.2624V50.3261L17.7235 51.0753V82.1068L15.6251 85.7044L24.9687 79.5987C27.6671 77.7955 32.8631 74.3826 35.484 69.3511C36.7381 66.8842 37.3461 64.6536 37.3461 62.4794C37.3413 58.0237 34.8316 56.6874 32.3752 57.4326C33.2695 56.3947 34.205 55.0939 35.0074 53.506C35.7211 52.0826 36.4663 47.6422 36.4606 45.2116C36.4606 43.2124 35.7364 40.4059 34.4308 40.0108C34.2784 39.9737 34.1195 39.9503 33.9534 39.9398ZM28.8501 44.9801C29.5026 45.0108 29.8421 47.6326 29.8421 49.8576C29.8372 52.556 29.4614 56.9084 28.7163 57.9568C28.2743 58.5793 26.3211 59.8584 25.0985 60.6552L25.1026 47.185C26.4292 46.2495 28.4082 44.9592 28.8501 44.9801ZM29.288 61.681C29.5647 61.6447 29.7792 61.6947 29.9243 61.8479C30.5461 62.5366 30.5872 65.0697 30.5921 67.2237C30.5872 70.0294 30.18 71.9519 29.3477 73.1084C28.7824 73.8842 26.6598 75.2415 25.1026 76.2124L25.0985 63.9915C25.1961 63.9294 25.288 63.8673 25.3751 63.8052C27.0751 62.6608 28.4582 61.7874 29.288 61.681ZM63.48 76.0995C60.3195 79.1471 58.476 82.9649 58.6195 87.0149C58.7631 91.0238 60.8397 94.581 64.1494 97.227C64.5607 97.5334 65.1615 97.7512 65.8808 97.8479C67.8341 98.1141 70.0333 97.356 70.8042 96.1625C71.3284 95.3512 70.9841 94.5238 70.126 94.01C65.4542 91.2907 62.3558 87.056 62.1808 82.1633C62.1034 80.056 62.5704 78.0108 63.48 76.0995ZM144.609 76.0995C145.52 78.0108 145.988 80.056 145.916 82.1633C145.738 87.056 142.641 91.2907 137.964 94.01C137.109 94.5238 136.762 95.3512 137.287 96.1625C138.053 97.356 140.262 98.1141 142.214 97.8479C142.932 97.7512 143.529 97.5334 143.94 97.227C147.254 94.581 149.327 91.0238 149.472 87.0149C149.617 82.9649 147.77 79.1471 144.609 76.0995ZM124.617 99.6867C123.803 100.566 122.867 101.469 121.835 102.3C122.278 102.606 122.569 103.122 122.569 103.711C122.569 104.671 121.795 105.445 120.835 105.445C120.004 105.445 119.311 104.864 119.141 104.074C118.496 104.412 117.835 104.687 117.158 104.888C117.956 106.074 119.141 106.824 120.464 106.824C122.867 106.824 124.811 104.364 124.811 101.324C124.811 100.751 124.746 100.211 124.617 99.6867ZM83.8591 99.6947C83.7301 100.203 83.6655 100.751 83.6655 101.324C83.6655 104.364 85.6172 106.816 88.0123 106.816C89.343 106.816 90.5204 106.066 91.3188 104.888C90.6414 104.687 89.9801 104.412 89.343 104.074C89.1736 104.856 88.472 105.445 87.6414 105.445C86.6817 105.445 85.9075 104.671 85.9075 103.711C85.9075 103.122 86.1978 102.606 86.6414 102.3C85.6091 101.469 84.6736 100.566 83.8591 99.6947ZM99.0043 120.945C98.5607 120.945 98.1898 121.017 97.8833 121.146C97.5849 121.275 97.343 121.453 97.1494 121.671C96.7704 122.098 96.5849 122.671 96.5204 123.219C96.4962 123.356 96.4881 123.493 96.4801 123.622C96.4398 124.421 96.593 125.082 96.593 125.082C96.6252 124.864 96.6817 124.646 96.7462 124.445C96.8752 124.05 97.0688 123.687 97.3269 123.388C97.7865 122.88 98.464 122.566 99.4236 122.598C99.843 122.606 100.303 122.687 100.827 122.832H100.835C102.101 123.195 102.899 123.606 103.416 123.945C103.448 123.961 103.496 123.985 103.528 124.009C103.698 124.122 103.827 124.227 103.932 124.324C104.012 124.437 104.117 124.55 104.238 124.654H104.246C104.367 124.55 104.472 124.437 104.553 124.324C104.658 124.227 104.787 124.122 104.956 124.009C105.416 123.695 106.158 123.316 107.254 122.969C107.391 122.921 107.504 122.872 107.658 122.832C108.351 122.63 108.948 122.566 109.456 122.606C109.585 122.614 109.698 122.63 109.819 122.646C109.932 122.671 110.045 122.703 110.141 122.735C110.77 122.937 111.206 123.348 111.496 123.88C111.593 124.058 111.674 124.251 111.746 124.445C111.811 124.646 111.859 124.864 111.891 125.082V125.074C111.891 125.074 111.899 125.074 111.899 125.082C111.899 125.082 111.964 124.783 111.996 124.356C112.02 124.033 112.02 123.63 111.972 123.219C111.948 123.082 111.924 122.945 111.891 122.808C111.859 122.671 111.819 122.533 111.77 122.404C111.666 122.138 111.528 121.888 111.335 121.671C111.238 121.566 111.133 121.461 111.012 121.372C110.883 121.283 110.754 121.211 110.601 121.146C110.448 121.082 110.278 121.033 110.093 120.993C109.908 120.961 109.706 120.945 109.48 120.945C109.262 120.945 109.02 120.961 108.754 121.001C107.472 121.187 106.504 121.453 105.77 121.727C105.045 122.001 104.561 122.292 104.246 122.525C104.085 122.412 103.883 122.275 103.633 122.146C103.383 122.009 103.077 121.864 102.714 121.727C102.528 121.654 102.335 121.59 102.117 121.525C101.908 121.453 101.674 121.388 101.432 121.332H101.424C101.182 121.267 100.916 121.211 100.633 121.154C100.351 121.098 100.053 121.042 99.7301 121.001H99.722C99.464 120.961 99.222 120.945 99.0043 120.945ZM94.5527 132.251C93.6333 132.751 93.1414 133.292 92.8591 133.864C94.3027 134.009 97.1333 134.283 98.1817 134.663C96.9801 134.679 94.2785 135.033 92.472 135.404C92.4236 135.84 92.3914 136.283 92.3188 136.743C101.214 135.493 106.714 135.493 116.746 136.646C116.706 136.275 116.569 135.8 116.351 135.275C114.593 134.961 112.359 134.679 111.303 134.663C112.141 134.356 114.133 134.122 115.641 133.969C115.27 133.421 114.835 132.896 114.319 132.469C107.891 135.074 100.988 134.138 94.5527 132.251Z" fill="white"/>
<path d="M108.514 25.668L108.748 48.6664L109.893 48.7277L109.659 25.7865L108.514 25.668ZM99.417 25.9631L98.2638 26.0293L89.917 37.9728L97.8847 48.7196L98.9331 48.6793L91.167 37.8865L99.417 25.9631ZM111.707 26.7728L111.723 29.1002L121.853 49.339L122.844 49.4366L111.707 26.7728ZM85.7234 26.8164L84.5621 26.8825L84.6428 49.5535L85.7799 49.522L85.7234 26.8164ZM125.554 27.0212L125.594 49.7325L126.74 49.7849L126.715 27.1397L125.554 27.0212ZM134.441 28.4091L134.562 51.1156L135.707 51.3567L135.594 28.718L134.441 28.4091ZM141.199 29.6551C141.199 29.6551 146.699 31.1349 147.901 34.7381C147.901 34.7381 148.119 29.8397 141.199 29.6551ZM68.4298 30.2059C64.9661 33.3567 62.4774 38.7881 62.5548 43.568C62.575 44.7035 62.8024 48.5946 64.8532 51.1438C65.4645 51.8995 66.7331 52.5874 68.1871 53.1632C67.1798 52.5567 66.5629 51.6107 66.1161 50.9172C64.4565 48.2857 64.2565 44.3962 64.2306 43.2607C64.1484 38.6252 65.7984 33.2285 68.4298 30.2059ZM56.6984 32.4898L55.5468 32.9309L55.6403 51.3253C55.671 55.3599 52.5879 57.3277 52.5879 57.3277C56.7452 55.0769 56.796 51.0793 56.796 51.0793L56.6984 32.4898ZM155.029 34.0639L155.037 57.6793L156.182 58.0809V34.5269L155.029 34.0639ZM42.1016 37.7591L40.9451 38.1954L41.0975 57.0777C41.0975 57.0777 41.1959 61.0301 45.3742 60.7519C45.3742 60.7519 42.2758 60.66 42.2443 56.6204L42.1016 37.7591ZM175.328 41.7309L175.497 73.8269L176.65 74.468L176.481 42.4398L175.328 41.7309ZM30.9322 42.5704C30.6959 42.5688 30.4451 42.6148 30.1806 42.714C31.4709 42.4317 32.0153 45.5511 32.0411 48.2486C32.0717 51.518 31.4241 56.918 29.9701 58.5422C32.3701 56.3374 33.5879 50.5672 33.5669 47.2882C33.554 44.9228 32.5887 42.5849 30.9322 42.5704ZM20.0911 49.4583L18.9395 50.1986L19.087 81.0414L20.2499 80.285L20.0911 49.4583ZM147.865 51.9204C146.817 54.8656 141.317 53.0922 141.317 53.0922C148.906 57.3116 147.865 51.9204 147.865 51.9204ZM31.4379 59.489C31.2016 59.493 30.9524 59.5422 30.6895 59.6414C31.9693 59.3487 32.5193 62.2414 32.5451 64.7543C32.5806 67.7922 31.9322 72.3455 30.483 73.9188C32.883 71.7648 34.0871 66.8729 34.0709 63.8253C34.058 61.6124 33.0879 59.4591 31.4379 59.489ZM170.132 59.8777C169.075 62.6737 163.583 60.1301 163.583 60.1301C170.986 65.2954 170.132 59.8777 170.132 59.8777ZM182.478 77.3398C191.124 84.6785 189.89 77.889 189.89 77.889C188.696 80.9318 182.478 77.3398 182.478 77.3398Z" fill="#EF5B0C"/>
</g>
<defs>
<clipPath id="clip0_154_2419">
<rect width="200" height="200" fill="white"/>
</clipPath>
</defs>
</svg>
