<svg width="200" height="200" viewBox="0 0 200 200" fill="none" xmlns="http://www.w3.org/2000/svg">
<path d="M101.836 187.402C74.5438 187.402 49.7104 177.801 31.9099 160.366C15.4096 144.204 5.94531 122.201 5.94531 99.9981C5.94531 76.7607 15.1672 55.0374 31.912 38.8278C49.3859 21.9109 73.8937 12.595 100.919 12.595C133.896 12.595 166.831 25.9904 189.019 48.4283L194.055 53.5195L163.715 83.1695L158.739 78.194C144.101 63.5558 122.486 54.8163 100.919 54.8163C86.1645 54.8163 72.85 59.613 63.4308 68.3222C54.4759 76.6013 49.545 87.8507 49.545 99.9981C49.545 111.15 54.6396 122.372 63.5219 130.787C73.3192 140.068 86.9272 145.179 101.838 145.179C122.516 145.179 144.319 136.222 158.739 121.802L163.715 116.826L194.055 146.476L189.019 151.568C167.163 173.671 133.756 187.401 101.837 187.401" fill="#821019"/>
<path d="M160.741 76.1124L163.644 79.0154L189.754 53.4992L186.817 50.5291C165.174 28.643 133.027 15.5762 100.826 15.5762C74.575 15.5762 50.8001 24.5958 33.8811 40.9747C17.7196 56.6212 8.81836 77.588 8.81836 100.016C8.81836 121.426 17.9577 142.657 33.8934 158.264C51.1359 175.152 75.2322 184.453 101.743 184.453C132.898 184.453 165.497 171.06 186.817 149.5L189.754 146.53L163.644 121.014L160.741 123.917C145.786 138.871 123.179 148.163 101.743 148.163C86.0703 148.163 71.7393 142.762 61.3884 132.956C51.9165 123.983 46.4841 111.976 46.4841 100.015C46.4841 87.0313 51.7542 75.0077 61.3229 66.1617C71.2926 56.9438 85.3209 51.8675 100.825 51.8675C123.161 51.8675 145.559 60.9308 160.741 76.1124ZM42.3278 100.016C42.3278 126.165 65.7249 152.316 101.739 152.316C125.136 152.316 148.535 141.994 163.674 126.854L183.861 146.581C163.445 167.225 132.248 180.3 101.74 180.3C46.9171 180.3 12.9675 140.388 12.9675 100.016C12.9675 57.5788 47.1464 19.7299 100.823 19.7299C132.249 19.7299 163.445 32.8048 183.862 53.4501L163.675 73.1773C148.536 58.0375 125.139 47.7153 100.823 47.7153C65.9562 47.7153 42.3298 71.3417 42.3298 100.016" fill="white"/>
</svg>
