<svg width="200" height="200" viewBox="0 0 200 200" fill="none" xmlns="http://www.w3.org/2000/svg">
<g clip-path="url(#clip0_154_2418)">
<path d="M99.9304 50.6876C115.966 50.6876 131.38 61.1904 139.396 76.618H103.81L88.3041 117.174V131.374L97.8388 124.312C97.8842 124.282 102.385 120.977 107.856 120.977H131.985V132.646C123.876 143.361 112.298 149.485 99.9304 149.485C76.4074 149.485 57.2798 127.328 57.2798 100.095C57.2798 72.8462 76.4082 50.6892 99.9304 50.6892V50.6876ZM99.9304 0.0859375C72.8916 0.0859375 47.9596 9.72271 29.7259 27.2268C10.6907 45.5044 0.203125 71.375 0.203125 100.093C0.203125 128.934 10.6915 154.863 29.7426 173.095C47.9149 190.493 72.8469 200.086 99.9312 200.086C120.544 200.086 135.472 194.615 146.385 190.629C151.628 188.704 156.159 187.052 158.843 187.052C165.86 187.052 178.366 193.45 186.049 197.284V100.095C186.049 92.4108 189.535 88.1526 189.672 87.9859C189.808 87.8344 199.552 76.6491 199.552 76.6491L162.011 76.6036L182.804 49.627L180.53 45.4733C180.275 45.006 174.031 33.7449 160.977 22.5611C148.984 12.3159 128.682 0.0883298 99.9272 0.0883298L99.9304 0.0859375Z" fill="#C6BCB6"/>
<path d="M99.9314 6.8125C48.2206 6.8125 6.29883 43.7002 6.29883 100.094C6.29803 156.846 48.2206 193.36 99.9314 193.36C130.791 193.36 148.749 180.306 158.845 180.306C166.891 180.306 179.96 186.853 179.96 186.853V100.094C179.96 89.3052 185.263 83.3326 185.263 83.3326L148.813 83.3485L107.858 83.3645V83.3565L94.3974 118.531V118.746C94.3974 118.746 100.298 114.248 107.858 114.248H138.08V135.005C129.157 147.939 115.377 156.208 99.9314 156.208C73.0147 156.208 51.1902 131.082 51.1902 100.094C51.1902 69.0843 73.0147 43.9585 99.9314 43.9585C121.789 43.9585 141.987 60.5217 148.813 83.3485L175.319 48.9591C175.319 48.9591 152.266 6.8133 99.9314 6.8133V6.8125Z" fill="#011E41"/>
<path d="M148.813 83.3485L185.263 83.3326C185.263 83.3326 179.96 89.3052 179.96 100.094V186.853C179.96 186.853 166.891 180.306 158.845 180.306C148.749 180.306 130.791 193.36 99.9315 193.36C48.2206 193.36 6.29803 156.846 6.29883 100.094C6.29883 43.7002 48.2206 6.8125 99.9315 6.8125V6.8133C152.266 6.8133 175.319 48.9591 175.319 48.9591L148.813 83.3485ZM148.813 83.3485L107.858 83.3645V83.3565L94.3974 118.531V118.746C94.3974 118.746 100.298 114.248 107.858 114.248H138.08V135.005C129.157 147.939 115.377 156.208 99.9315 156.208C73.0147 156.208 51.1902 131.082 51.1902 100.094C51.1902 69.0843 73.0147 43.9585 99.9315 43.9585C121.789 43.9585 141.987 60.5217 148.813 83.3485Z" stroke="#011E41" stroke-width="0.635141"/>
</g>
<defs>
<clipPath id="clip0_154_2418">
<rect width="200" height="200" fill="white"/>
</clipPath>
</defs>
</svg>
