<svg width="200" height="200" viewBox="0 0 200 200" fill="none" xmlns="http://www.w3.org/2000/svg">
<path d="M180.171 21.2644H178.339C128.347 21.2644 101.227 5.99527 100.959 5.84383L99.9958 5.28635L99.0401 5.84383C98.765 5.99586 71.6514 21.2644 21.6598 21.2644H19.8281L19.7485 23.0962C19.6109 25.9052 16.7222 92.3751 33.808 129.338C43.6836 150.703 61.2178 180.705 99.3438 194.483L100.003 194.715L100.647 194.483C138.786 180.705 156.315 150.704 166.19 129.338C183.261 92.3712 180.387 25.9142 180.257 23.0962L180.171 21.2644Z" fill="#602D89"/>
<path d="M162.697 127.737C153.177 148.356 136.329 177.243 99.9994 190.637C63.6696 177.243 46.815 148.355 37.2873 127.737C22.1485 94.9622 23.1693 36.1886 23.5096 25.1082C68.8025 24.7751 94.7428 12.4605 99.9994 9.7019C105.248 12.4603 131.189 24.7756 176.482 25.1082C176.829 36.1848 177.85 94.9583 162.697 127.737Z" fill="white"/>
<path d="M100.001 14.4111C95.0421 17.0175 70.5567 28.6451 27.8202 28.9489C27.4944 39.4102 26.5242 94.8825 40.8234 125.817C49.8081 145.27 65.7209 172.536 100.002 185.184C134.29 172.536 150.189 145.27 159.174 125.817C173.473 94.8739 172.509 39.4092 172.184 28.9489C129.439 28.6448 104.953 17.0173 100.001 14.4111Z" fill="#602D89"/>
<path d="M91.805 101.809H107.725C108.116 106.218 108.717 110.765 109.535 115.347C106.357 116.071 103.063 116.433 99.7179 116.433C96.3731 116.433 93.0789 116.071 89.9008 115.354C90.7478 110.75 91.3924 106.204 91.805 101.809ZM69.803 103.336C66.7116 99.3107 65.0319 94.6917 65.0319 90.0577C65.0319 85.4387 66.697 80.8341 69.7668 76.8235C70.3749 81.428 70.679 85.8226 70.679 89.9417C70.679 94.1554 70.3894 98.645 69.803 103.336ZM89.7852 64.7902C92.9997 64.059 96.3372 63.6826 99.7183 63.6826C103.049 63.6826 106.336 64.0445 109.513 64.7612C108.717 69.3152 108.116 73.8545 107.732 78.307H91.7903C91.3559 73.9487 90.683 69.4094 89.7852 64.7902ZM117.716 34.6072L117.238 35.9176L116.898 36.8588C116.051 39.2045 115.233 41.6661 114.465 44.1928C109.658 43.0779 104.706 42.5132 99.7176 42.5132C94.5556 42.5132 89.4443 43.1141 84.4993 44.3014C83.7029 41.8181 82.8702 39.3783 82.0015 37.0399L81.654 36.0987L81.1762 34.781L79.8296 35.1865L78.8666 35.4688C73.234 37.1557 67.9204 39.5448 63.0693 42.5638L62.3308 43.0199L61.3173 43.657L61.7155 44.7865L62.0051 45.6046C62.8884 48.0517 63.7209 50.5783 64.4956 53.1195C63.2576 53.9739 62.0919 54.8427 61.0132 55.726C49.9577 64.7541 43.8691 76.9457 43.8691 90.0573C43.8691 103.169 49.9579 115.36 61.0132 124.388C62.2005 125.351 63.4675 126.293 64.7925 127.19C64.0613 129.732 63.2576 132.294 62.4105 134.814L62.1354 135.625L61.759 136.754L62.7725 137.377L63.5037 137.818C68.3761 140.794 73.7196 143.14 79.3806 144.79L80.358 145.073L81.7118 145.464L82.1752 144.132L82.5082 143.169C83.3263 140.816 84.1227 138.376 84.8684 135.9C89.7119 137.029 94.6932 137.601 99.7177 137.601C104.713 137.601 109.68 137.037 114.502 135.914C115.262 138.412 116.073 140.866 116.913 143.234L117.253 144.182L117.716 145.5L119.063 145.116L120.033 144.841C125.68 143.219 131.024 140.91 135.918 137.978L136.663 137.529L137.699 136.906L137.308 135.77L137.025 134.944C136.157 132.439 135.339 129.855 134.586 127.234C135.932 126.322 137.221 125.366 138.423 124.389C143.31 120.399 147.255 115.759 150.144 110.618L150.651 109.713L151.368 108.447L150.123 107.701L149.225 107.165L135.441 98.9261L134.478 98.3469L133.138 97.5505L132.4 98.9261L131.871 99.9106C131.249 101.069 130.525 102.191 129.692 103.27C129.171 98.7523 128.91 94.3649 128.91 90.1948C128.91 85.9088 129.171 81.4345 129.692 76.8446C130.445 77.822 131.111 78.8283 131.683 79.8636L132.211 80.812L132.95 82.1369L134.26 81.384L135.202 80.8337L149.11 72.8192L150.029 72.2907L151.311 71.5522L150.587 70.2635L150.058 69.344C147.177 64.2617 143.267 59.6783 138.424 55.7254C137.215 54.7408 135.919 53.7779 134.55 52.8512C135.318 50.1942 136.143 47.6095 136.997 45.1624L137.287 44.3443L137.692 43.1931L136.643 42.5705L135.897 42.1216C131.003 39.1967 125.66 36.8871 120.012 35.2727L119.049 34.9904L117.717 34.6066L117.716 34.6072ZM99.718 117.924C103.664 117.924 107.537 117.431 111.251 116.461C110.23 110.98 109.506 105.565 109.101 100.316H90.4431C90.0015 105.514 89.2414 110.929 88.177 116.461C91.8838 117.431 95.7649 117.924 99.718 117.924ZM70.8307 106.782C71.7212 100.86 72.17 95.1981 72.17 89.9415C72.17 84.794 71.6994 79.234 70.7727 73.3908C66.0957 78.1981 63.5473 84.0476 63.5473 90.0566C63.5473 96.0874 66.1175 101.966 70.8306 106.781M90.4285 79.7975H109.107C109.513 74.5196 110.222 69.0967 111.228 63.6456C107.522 62.6827 103.648 62.1976 99.7166 62.1976C95.7202 62.1976 91.8035 62.6972 88.0457 63.6818C89.1751 69.213 89.9724 74.6282 90.4285 79.7975ZM118.642 36.4235L119.605 36.6985C125.121 38.284 130.349 40.5357 135.127 43.4026L135.88 43.8515L135.59 44.6696C134.598 47.5004 133.672 50.4616 132.817 53.4951C134.482 54.5738 136.046 55.7105 137.48 56.876C142.178 60.7132 145.972 65.1512 148.76 70.0739L149.281 71.0006L148.361 71.5291L134.453 79.5437L133.512 80.0867L132.984 79.1383C131.847 77.0893 130.385 75.1491 128.632 73.3609C127.829 79.1455 127.416 84.8075 127.416 90.1934C127.416 95.4495 127.829 101.009 128.64 106.744C130.486 104.855 132.014 102.798 133.179 100.619L133.708 99.6274L134.671 100.199L148.463 108.446L149.353 108.981L148.846 109.886C146.052 114.867 142.222 119.356 137.479 123.236C136.053 124.395 134.504 125.524 132.853 126.596C133.7 129.6 134.627 132.576 135.611 135.428L135.894 136.254L135.148 136.695C130.37 139.562 125.15 141.821 119.618 143.407L118.648 143.682L118.315 142.733C117.33 139.968 116.389 137.079 115.52 134.133C110.395 135.443 105.08 136.109 99.7154 136.109C94.3289 136.109 88.9934 135.436 83.8452 134.118C82.9909 137.007 82.0715 139.888 81.1013 142.676L80.7682 143.639L79.7908 143.356C74.2523 141.742 69.0324 139.454 64.2762 136.543L63.545 136.102L63.8201 135.291C64.783 132.417 65.6953 129.484 66.5207 126.552C64.8917 125.488 63.3567 124.373 61.9595 123.236C51.2519 114.491 45.359 102.712 45.359 90.0564C45.359 77.4011 51.2522 65.6219 61.9595 56.8763C63.2627 55.8121 64.7035 54.755 66.2383 53.7415C65.3695 50.8094 64.4138 47.9061 63.4075 45.0971L63.1179 44.2862L63.8491 43.8301C68.5985 40.8762 73.7966 38.545 79.2918 36.9015L80.2547 36.6119L80.6022 37.5532C81.6158 40.3043 82.5932 43.1713 83.4982 46.0889C88.7472 44.706 94.1991 44.0038 99.7154 44.0038C105.066 44.0038 110.365 44.6627 115.476 45.9731C116.36 42.9975 117.308 40.1088 118.3 37.3649L118.64 36.4237" fill="black"/>
<path d="M112.603 117.663C108.462 118.843 104.125 119.437 99.7091 119.437C95.2782 119.437 90.9416 118.843 86.8074 117.663L86.4092 117.547L86.4889 117.142C87.7124 110.981 88.5595 104.95 89.0012 99.209L89.0301 98.7964H110.504L110.533 99.209C110.945 105.03 111.749 111.068 112.922 117.142L113.002 117.547L112.603 117.663ZM86.264 62.604L86.6694 62.4809C90.8468 61.2791 95.2341 60.6709 99.7081 60.6709C104.117 60.6709 108.447 61.2646 112.573 62.4375L112.972 62.5533L112.899 62.9588C111.741 69.0185 110.952 75.0562 110.539 80.8917L110.51 81.3116H89.022L88.993 80.8989C88.5297 75.2011 87.6464 69.1848 86.3505 63.0091L86.264 62.604ZM72.0089 109.04L71.8713 109.851L71.2631 109.301C65.3047 103.958 62.0178 97.1163 62.0178 90.0501C62.0178 83.0201 65.2757 76.2072 71.1836 70.8721L71.7917 70.3218L71.9293 71.1327C73.095 77.8006 73.6886 84.1283 73.6886 89.935C73.6886 95.8717 73.1238 102.3 72.0089 109.04ZM147.297 109.519L134.287 101.743C132.766 104.473 130.71 107.007 128.183 109.287L127.568 109.838L127.438 109.019C126.41 102.489 125.896 96.1542 125.896 90.1961C125.896 84.0929 126.41 77.6634 127.423 71.0832L127.546 70.2579L128.169 70.8153C130.594 72.9873 132.578 75.4054 134.084 78.0045L147.21 70.4316C144.539 65.8343 140.94 61.6713 136.509 58.0514C134.931 56.77 133.193 55.5247 131.325 54.3518L131.043 54.1708L131.137 53.845C132.02 50.645 132.991 47.5101 134.026 44.52C129.566 41.8847 124.708 39.7851 119.582 38.2793C118.554 41.1535 117.562 44.216 116.635 47.3944L116.512 47.8215L116.085 47.6984C110.793 46.2577 105.283 45.5264 99.7087 45.5264C93.9747 45.5264 88.3205 46.2939 82.8972 47.8215L82.4773 47.9373L82.347 47.5174C81.4131 44.4549 80.3922 41.4214 79.3208 38.4748C74.2167 40.0387 69.3876 42.2106 64.9564 44.9328C66.0135 47.8939 67.0053 50.9709 67.9176 54.0767L68.0117 54.4025L67.7293 54.5836C65.999 55.6912 64.3773 56.8642 62.9148 58.0587C52.5685 66.5003 46.8711 77.8674 46.8711 90.0521C46.8711 102.244 52.5689 113.611 62.9148 122.052C64.4496 123.312 66.1655 124.543 67.9971 125.701L68.2795 125.875L68.1926 126.201C67.3311 129.314 66.3827 132.42 65.369 135.432C69.8215 138.11 74.665 140.246 79.7986 141.774C80.8121 138.842 81.7751 135.786 82.6801 132.688L82.8031 132.26L83.2303 132.376C88.5589 133.846 94.1047 134.584 99.7082 134.584C105.29 134.584 110.815 133.846 116.129 132.398L116.556 132.282L116.679 132.702C117.584 135.815 118.561 138.878 119.596 141.824C124.73 140.318 129.587 138.219 134.047 135.576C133.005 132.536 132.042 129.393 131.173 126.237L131.079 125.918L131.361 125.737C133.222 124.564 134.952 123.326 136.509 122.052C140.983 118.396 144.61 114.182 147.296 109.519" fill="white"/>
</svg>
