<svg width="200" height="200" viewBox="0 0 200 200" fill="none" xmlns="http://www.w3.org/2000/svg">
<path d="M70.4882 182.037V144.376C70.1945 144.156 69.9743 144.009 69.6806 143.789C63.8811 141.22 61.9723 136.742 61.385 134.906L61.6053 135.494C61.0914 134.172 60.8711 132.777 60.8711 131.309C60.0636 128.886 59.6231 126.464 59.4763 123.894C58.9624 122.72 57.0537 119.269 53.0894 113.984C49.7859 116.113 45.9684 117.287 42.0041 117.361C30.1113 117.361 11.3911 107.744 8.60144 81.2417C8.3812 79.0393 8.23438 76.7635 8.23438 74.4878C8.23438 53.0513 18.8058 38.1486 19.3931 37.2676C25.4863 28.3847 36.3514 17.8867 54.1172 17.8867C57.8612 17.8867 61.6053 18.474 65.1291 19.722C69.6072 18.2538 75.9207 18.5474 84.3631 20.6764C86.125 20.3827 87.8869 20.5296 89.5754 20.8966L93.5397 22.1446C93.5397 22.1446 93.8334 25.595 93.8334 25.6684C94.0536 25.4482 94.2738 25.228 94.4207 25.0811C99.0456 18.8411 105.286 20.7498 107.708 21.5573C110.571 22.5117 113.141 24.1268 115.196 26.2557H191.766V100.916H160.932V128.079H150.361V182.11L70.4882 182.037Z" fill="white"/>
<path d="M112.847 31.5409C111.306 28.3108 107.195 26.8425 106.387 26.5489C102.863 25.4477 100.367 25.4477 98.165 28.6778C97.2106 29.7056 96.1094 30.6599 94.9348 31.5409H92.4388C90.3098 29.6322 89.0618 27.7969 88.9884 26.9893L88.915 26.1818L88.1809 25.9615C86.786 25.6679 85.3912 25.6679 83.9963 25.9615C72.9845 23.0985 67.7722 23.906 65.2761 25.3008C61.7523 23.8326 57.9349 23.1719 54.1175 23.1719C38.3338 23.1719 28.7167 32.5687 23.3576 40.4238C22.9171 41.0845 11.0977 57.6023 13.5203 80.6539C15.943 103.705 31.8735 112.074 42.0044 112.074C46.4091 112.074 50.6671 110.092 54.3377 106.422C54.7782 107.523 55.4389 108.551 56.0996 109.578C60.6512 115.525 63.9547 120.884 64.3952 122.939V123.086C64.4686 125.582 64.9091 128.005 65.79 130.354V130.574C65.79 131.529 65.8635 132.41 66.1571 133.291C66.5242 134.612 67.8456 137.549 72.2503 139.164C73.1313 140.045 74.2325 140.632 75.4071 140.852V176.677H145.296V128.005H134.798V122.646H155.867V95.4832H186.7V31.5409H112.847Z" fill="black"/>
<path d="M105.796 82.4881C108.366 80.2123 108.586 78.5973 108.439 77.6429C104.475 71.9901 107.558 65.8969 106.898 60.9049C106.53 62.5933 101.098 66.3374 97.9412 64.5755C94.7845 62.8136 95.8123 57.2342 95.8123 57.2342C95.9591 55.9862 96.1059 54.6648 96.1059 53.3434C96.1059 45.6351 93.2428 42.1113 93.7567 38.9545C93.3896 37.1926 92.1416 35.7244 90.4531 34.9902C88.471 33.4486 86.8559 31.4664 85.6813 29.1907C85.3877 29.4843 85.6079 30.145 85.6079 30.145C84.3599 30.7323 71.7329 25.8871 67.0345 28.8236C78.854 35.2105 83.1853 50.4803 84.1397 54.7382C86.9293 53.637 86.4889 56.6469 86.4889 56.6469C86.0484 55.9862 85.094 55.8394 84.4333 56.2799C84.3599 56.3533 84.2865 56.4267 84.2131 56.5001C84.2131 56.5001 80.3956 64.135 75.9175 60.9783C74.1556 59.7303 74.7429 58.1886 74.7429 58.1886C74.7429 54.885 70.1913 53.7838 70.1913 53.7838C65.0524 49.3057 62.4096 53.27 62.4096 53.27C57.4175 53.1231 56.8302 57.2342 56.8302 57.2342C53.4532 58.7025 52.5723 63.0338 52.5723 63.0338C52.4255 62.9604 52.352 62.887 52.352 62.7402C52.352 61.4922 52.6457 57.9684 55.6556 56.2065L55.8759 55.766C54.5544 54.2977 50.737 50.5537 46.0386 51.0676C47.4334 50.1866 49.0485 49.6727 50.6636 49.7462C50.6636 49.7462 45.0842 47.0299 35.3938 47.8374C28.7866 48.3513 27.0247 47.1033 26.5843 46.2224C26.2906 46.2224 26.0704 46.2958 25.997 46.3692C25.9235 46.4426 25.9235 46.9565 26.5843 48.1311C27.245 49.3057 29.0803 50.4803 31.2092 51.9485C35.5406 54.9584 41.4136 59.0695 42.5882 65.0894C45.4513 65.0894 48.241 65.8235 50.737 67.1449C54.2608 69.1271 56.7568 72.504 58.0782 77.129C58.0048 76.6885 58.0048 76.3215 58.0782 75.881C58.7389 70.889 64.098 68.76 64.098 68.76C62.3361 70.5953 59.4731 74.1191 59.4731 75.881C59.4731 78.7441 60.1338 81.0199 60.5008 81.3869C60.5008 81.3869 58.9592 81.6806 58.8124 81.0933C56.61 85.7183 57.4175 87.7004 57.858 88.7282C58.4453 90.1964 60.9413 98.4921 61.0147 98.8591C59.9135 98.0516 59.0326 96.9504 58.5187 95.629C58.0782 96.6567 57.4909 97.6111 56.61 99.2262C55.362 106.347 67.108 114.643 68.1357 122.718C68.2091 123.379 68.1357 124.04 68.2091 124.627C68.7964 126.315 70.1913 127.49 71.8798 127.93C70.7786 126.389 70.0445 124.7 69.6774 122.865C69.5306 122.204 69.3103 121.617 69.0901 121.03C68.5028 119.708 67.6953 118.46 66.8143 117.286C68.2092 117.8 69.3838 118.754 70.1913 120.002L69.8242 118.387C70.6318 112.073 76.6516 110.091 79.7349 109.577C81.5702 106.861 81.717 100.181 81.717 100.181C82.1575 95.9226 81.2766 91.5913 79.221 87.8472C82.1575 86.5992 83.479 83.3691 83.479 83.3691C84.5067 84.4703 82.9651 86.9663 82.9651 86.9663C87.7369 84.5437 94.5642 79.8453 95.0047 82.4881C94.9313 83.0754 94.9313 83.6627 95.0047 84.25C95.2249 86.379 95.5186 90.2698 93.6833 99.5198L92.5821 108.696C91.9214 111.78 92.215 114.349 92.0682 115.891C92.215 114.349 92.6555 111.78 93.3162 108.696L95.1515 99.5198C96.9869 90.2698 96.6198 86.3056 96.3996 84.25C96.3261 83.5893 96.3261 83.002 96.3996 82.3413C96.6932 80.5794 99.1158 75.3671 100.29 72.9445C100.951 72.504 98.0146 81.4604 97.7944 82.6349C97.721 83.2222 97.7944 83.8096 97.8678 84.3969C98.6753 84.4703 101.538 81.2401 105.796 82.4881ZM50.5902 62.0795C50.6636 63.1806 50.0028 64.2084 48.9751 64.6489C47.2132 65.3096 46.3322 62.3731 46.8461 62.887C47.2866 63.3275 47.8739 63.4743 48.4612 63.2541C48.9017 63.0338 49.2687 62.5933 49.1953 62.0795C48.9751 57.0874 34.1457 49.3057 35.9076 49.4525C48.7548 55.4723 50.5902 59.9505 50.5902 62.0795ZM80.3956 101.061C78.7071 92.5456 76.8718 88.9484 76.1377 86.0853C77.6059 87.627 81.6436 96.877 80.3956 101.061ZM77.5325 85.7917C76.5782 85.9385 75.6238 85.7183 74.8897 85.131C74.3024 85.8651 72.9075 86.9663 70.0445 86.9663C68.0623 87.0397 66.227 86.1588 64.979 84.6171C64.0246 83.3691 63.5107 81.8274 63.5842 80.2123C63.3639 80.2858 63.0703 80.2858 62.85 80.3592C62.85 80.3592 65.7865 75.4405 73.7885 82.4147C75.1099 83.5893 76.2111 84.5437 77.3123 84.3234C78.6337 84.1032 82.0841 80.6528 83.7726 78.8175C83.1853 81.0199 79.4413 85.4246 77.5325 85.7917ZM77.8996 68.4663C79.5881 65.8235 83.4055 74.3393 83.9928 76.6151C82.7448 74.9266 79.5147 70.6687 77.8996 68.4663ZM68.9433 98.2718C72.7607 91.8115 73.348 88.9484 74.1556 87.4802C74.4492 86.8929 74.1556 94.6012 68.9433 98.2718Z" fill="#D9D9D9"/>
<path d="M96.1074 101.796C97.282 100.768 98.0896 99.447 98.53 97.9787C99.4844 94.9688 100.659 91.9589 102.127 89.0958C102.494 89.0958 102.641 88.068 101.099 88.4351C100.806 88.5085 100.512 88.5819 100.219 88.5819C99.411 88.7287 98.6769 88.5819 97.9427 88.2148C97.7959 92.1791 97.282 96.07 96.4745 99.9608L96.1074 101.796Z" fill="#D9D9D9"/>
<path d="M41.8538 86.9663C45.7446 86.9663 45.5978 81.1667 45.5978 80.9465C45.5978 76.1747 42.0006 73.6052 40.826 72.8711C40.3121 73.3116 39.2109 74.9266 39.2109 79.9187C39.2109 86.6726 41.7804 86.9663 41.8538 86.9663Z" fill="#D9D9D9"/>
<path d="M96.7714 35.1367C95.9639 35.724 95.1563 36.1645 94.2754 36.4581C94.569 36.8986 94.7893 37.3391 95.0095 37.7796C95.5968 36.8252 96.1841 35.9443 96.7714 35.1367Z" fill="#DCDDDE"/>
<path d="M65.0564 80.0703C65.864 80.0703 66.6715 80.1437 67.4056 80.2906C66.5981 81.5386 67.112 83.9612 70.1219 84.3282C71.8104 84.5485 72.6913 84.0346 73.1318 83.7409L73.7191 84.2548C73.7191 84.2548 72.3243 85.7231 69.241 85.356C66.1576 84.989 64.9096 82.2727 65.0564 80.0703Z" fill="white"/>
<path d="M103.084 83.7383C102.57 83.8117 102.056 83.9585 101.543 84.1788C101.763 85.1331 101.102 86.3077 99.3402 86.3811C98.8263 86.3811 98.3858 86.3077 97.9453 86.0875V86.4545C98.4592 86.895 99.0465 87.1153 99.7072 87.1887C100.662 87.1887 102.423 86.895 103.084 83.7383Z" fill="white"/>
<path d="M76.0693 128.961C83.3372 130.503 85.613 126.318 85.613 126.318C85.613 126.318 86.5673 127.713 85.7598 128.447C94.4225 129.622 94.2756 117.729 93.3213 116.481C93.0276 117.876 90.3848 118.463 87.8887 120.592C88.6229 119.051 89.7975 117.656 91.1923 116.701C91.853 116.334 91.9998 116.187 92.0733 115.894C92.2201 114.352 91.9264 111.783 92.5871 108.699L93.6883 99.5962C95.5236 90.3463 95.1566 86.382 94.9363 84.3264C94.8629 83.7391 94.8629 83.1518 94.9363 82.5645C94.7895 79.1876 86.3471 80.8761 83.484 83.4455C83.484 83.4455 82.1626 86.6756 79.2261 87.9237C81.2816 91.6677 82.1626 95.999 81.6487 100.257C81.6487 100.257 81.5753 107.011 79.6665 109.654C76.6566 110.241 70.6368 112.15 69.7559 118.537L70.1229 120.078C71.2975 121.326 71.1507 127.933 76.0693 128.961ZM80.0336 113.618C82.8967 117.803 86.7876 118.39 86.7876 120.739C83.2638 118.243 78.6388 117.582 80.0336 113.618Z" fill="white"/>
<path d="M90.164 129.402C88.3287 130.43 86.1998 130.504 84.291 129.623C75.7018 133.146 71.9577 128.081 71.9577 128.081C70.2692 127.714 68.8744 126.466 68.2871 124.777C68.7276 128.228 70.1224 131.531 72.178 134.321L71.1502 134.174C73.4994 136.377 79.2256 136.377 79.2256 136.377L78.1244 137.037C78.1244 137.037 87.3009 136.89 90.164 129.402Z" fill="white"/>
<path d="M94.7168 108.921C95.0839 107.086 96.1116 101.8 96.1116 101.8C97.2128 100.772 98.0938 99.451 98.5342 97.9827C100.076 93.0641 101.251 90.0542 101.251 90.0542C101.471 89.5403 101.471 88.8796 101.104 88.4391C101.104 88.4391 103.82 87.7784 104.554 83.9609C105.729 89.0998 96.9926 101.8 94.7168 108.921Z" fill="white"/>
<path d="M55.9548 55.8429C54.6334 54.3747 50.816 50.6307 46.1176 51.1445C47.5124 50.2636 49.1275 49.7497 50.7426 49.8231C50.7426 49.8231 45.1632 47.1069 35.4728 47.9144C28.8656 48.4283 27.1037 47.1803 26.5898 46.2993C30.0402 46.593 33.564 46.593 37.0144 46.1525C44.943 45.4918 53.0918 44.8311 61.2405 51.8787C58.8913 52.1723 56.8358 53.714 55.9548 55.8429Z" fill="white"/>
<path d="M76.7288 82.492C78.8578 83.0793 81.7209 77.9405 81.7209 77.9405C81.9411 77.2063 80.8399 75.1508 78.9312 72.875C80.4729 78.2341 77.5364 78.8948 77.5364 78.8948C66.2308 72.7282 62.707 78.4543 62.707 78.4543C71.0761 75.2242 74.5999 81.9047 76.7288 82.492Z" fill="white"/>
<path d="M88.3289 38.3696C88.3289 38.3696 93.9083 40.7922 90.825 61.4211C91.7793 60.4667 92.5135 59.2921 92.8071 57.9707C93.321 61.935 93.0274 66.0461 91.8528 69.8635C94.1285 66.4866 95.7436 60.0997 93.2476 54.3735C93.2476 54.3735 95.1563 38.443 87.9619 35.6533C87.9619 35.6533 82.8964 29.6335 72.3984 29.3398C76.1425 30.8815 84.5849 32.4966 88.2555 41.82C88.1821 41.8934 88.7694 40.8656 88.3289 38.3696Z" fill="white"/>
<path d="M73.2806 59.952C73.2806 58.3369 72.2528 56.1346 70.0505 56.3548C70.0505 56.3548 66.0862 51.7298 62.7092 55.4004C61.0941 55.8409 59.6993 56.8687 58.8184 58.2635C58.8184 58.2635 62.1219 56.2814 63.4433 57.0889C63.4433 57.0889 66.5267 53.9322 69.4632 58.1167C70.4175 58.1901 71.739 58.7774 72.7667 61.4937C73.2806 62.5215 74.235 63.2556 75.4096 63.4758C74.8223 63.0353 73.2806 61.2734 73.2806 59.952Z" fill="white"/>
<path d="M91.9258 78.968C92.8801 79.0414 95.7432 78.8212 96.1837 80.2894C98.1658 76.2517 99.6341 71.9204 100.368 67.5156C100.368 67.5156 97.2849 75.4442 95.7432 78.2338C94.4952 77.4997 92.8801 77.7934 91.9258 78.968Z" fill="white"/>
<path d="M105.874 66.5625C102.056 70.6002 105.874 78.0883 103.965 79.1894C102.864 79.7767 101.983 80.6577 101.322 81.6855C102.57 80.8779 104.039 80.5109 105.58 80.5843C107.416 78.9692 106.388 77.4275 106.388 77.4275C105.14 74.1974 104.846 69.6458 105.874 66.5625Z" fill="white"/>
<path d="M63.0762 85.207C63.0762 88.8777 67.7746 91.3003 67.7746 91.3003C63.8103 99.3022 66.5266 103.046 66.5266 103.046C66.2329 102.092 66.2329 100.991 66.6 100.036C67.6277 97.0999 69.5365 95.705 72.6198 88.5106C66.3063 89.1713 63.0762 85.207 63.0762 85.207Z" fill="white"/>
<path d="M98.8261 63.2585C101.102 64.2863 104.773 61.57 104.846 61.4232C106.681 59.7347 106.755 55.5502 106.901 50.705C107.048 45.8597 107.195 40.574 109.03 36.2427C110.866 32.3518 107.048 31.0304 104.626 30.2229C102.203 29.4153 101.689 30.3697 101.689 30.3697C107.269 32.0582 107.048 34.6276 107.048 34.6276C105.947 32.8657 102.717 32.2784 100.588 32.0582C99.2666 34.701 94.715 39.3994 95.3757 41.1613C97.211 40.0601 102.937 38.8121 105.507 41.5284C100.001 40.1336 97.6515 42.9232 96.6237 45.5661C99.4134 55.2565 95.082 61.2029 98.8261 63.2585Z" fill="white"/>
<path d="M38.1133 44.6104C40.8295 44.3168 43.4724 44.2434 46.1887 44.3902C46.5557 43.9497 46.9228 43.5827 47.3633 43.2156C47.3633 43.2156 50.0795 38.4438 55.2918 39.545C60.2104 40.6462 61.0914 45.8585 61.1648 47.6938C61.385 48.5747 61.5319 49.4557 61.6053 50.3366L61.9723 50.6303C62.1926 50.8505 62.4128 50.9973 62.6331 51.2176C63.3672 50.7037 64.2481 50.3366 65.1291 50.2632C66.9644 50.043 68.9465 50.8505 70.9287 52.4656C71.6628 52.6858 76.2878 54.0072 76.2878 58.412V58.6322C76.2878 58.6322 76.2144 58.7791 76.141 58.8525C76.3612 59.5132 76.8751 60.0271 77.4624 60.1739C79.1509 60.6878 81.133 59.1461 82.9683 55.916C82.9683 55.8426 82.9683 55.7691 82.8949 55.6957V55.5489V55.4755V55.4021C82.2342 52.3922 81.2798 49.4557 80.0318 46.666C76.7283 44.0966 67.7719 38.0033 62.7065 41.6005C62.7065 41.6005 65.4961 35.2871 77.3156 41.2335C74.5993 36.6819 70.5616 32.1303 64.9823 29.5609C61.7521 29.8545 50.5934 31.2494 51.1073 37.9299C51.1073 37.9299 47.6569 30.5887 58.5954 27.5787C54.4843 26.918 50.2998 27.1383 46.2621 28.166C43.1053 30.0014 34.5161 35.8009 38.6272 41.9676C38.6272 41.9676 33.0478 38.0767 37.0855 32.1303C32.3871 35.2871 28.4962 39.3982 25.4863 44.17L26.0002 44.9775C26.7343 44.6839 30.0379 45.2712 38.1133 44.6104Z" fill="white"/>
<path d="M49.1996 68.1012C44.4277 66.1925 39.0686 66.1925 34.2968 68.248C34.0766 68.3214 33.9298 68.4683 33.8563 68.6885C33.7829 68.8353 33.8563 69.2024 34.0032 69.2024C34.15 69.2024 36.3524 69.6429 37.0865 69.8631C37.0865 69.8631 42.5924 67.9544 46.2631 72.6528C54.3384 83.0773 47.4377 92.2539 47.3642 92.3273C43.767 96.8789 39.8028 99.1547 35.5448 99.0813C25.0468 98.2003 22.5508 89.6845 22.5508 89.6845C22.5508 89.6845 26.0746 93.9424 28.3504 95.0436C30.9198 96.365 34.15 96.0714 36.5726 95.1904C39.4357 94.1626 41.1976 90.9325 42.0051 89.0238C40.6103 89.244 39.142 88.9503 37.9674 88.1428C32.4615 92.2539 27.6163 90.1249 27.6163 90.1249C30.6262 89.6845 33.4893 88.4365 35.8385 86.4543C28.4972 81.3154 32.4615 69.7897 32.4615 69.7897C31.5806 68.6151 33.269 67.2937 33.269 67.2937C35.2512 61.3472 38.3345 59.6588 38.3345 59.6588C32.4615 53.0516 25.2671 51.51 24.7532 46.5913L24.4595 46.3711C22.1103 50.5556 20.3484 55.1072 19.1738 59.7322C26.9556 67.5873 30.5528 65.3849 30.5528 65.3849C25.5607 69.2758 20.275 65.0913 18.4397 63.256C18.4397 63.256 16.6044 72.0655 17.4854 79.4067C19.5409 79.9206 26.5151 80.875 28.9377 78.3055C28.9377 78.3055 27.2492 85.2063 17.9258 82.6369C18.8802 90.9325 27.1024 108.845 43.6936 107.964C35.6917 105.395 37.2333 100.696 37.2333 100.696C42.519 105.175 47.0706 105.909 48.9059 106.055C52.7968 103.633 55.513 99.0079 55.513 99.0079C49.64 94.5297 47.4377 94.8233 47.4377 94.8233C50.3007 91.0059 55.513 95.0436 56.9813 96.365L58.1559 93.7222C56.9813 89.244 55.513 88.0694 56.4674 84.1785C52.7968 83.1508 51.4019 84.1051 51.4019 84.1051C52.1361 80.6547 55.6599 80.9484 57.4217 81.3889C57.4952 81.1686 57.5686 81.0218 57.642 80.8016C56.4674 73.9742 53.3841 71.1111 53.3841 71.1111C53.3841 71.1111 50.2273 68.9821 47.2174 72.2857C46.9238 72.2123 46.5567 69.2024 49.1996 68.1012Z" fill="white"/>
<path d="M60.7966 47.0319C59.4752 44.8295 55.5109 39.397 47.3621 43.2144C46.9216 43.5815 46.5546 43.9486 46.1875 44.389C50.8859 44.5359 55.5109 46.0775 59.4017 48.7204C59.9156 48.2065 60.4295 47.6926 60.7966 47.0319Z" fill="#B2B2B2"/>
<path d="M61.1635 47.7647C61.1635 47.8381 61.0901 47.6179 60.9432 47.3242C60.8698 47.9115 60.723 48.7925 60.5762 49.6C60.9432 49.8202 61.2369 50.1139 61.6039 50.4075L61.6774 50.481C61.5305 49.4532 61.3837 48.5722 61.1635 47.7647Z" fill="white"/>
<path d="M35.6173 86.4552C36.5717 85.6477 37.3792 84.7667 38.1134 83.8124C37.8931 82.6378 37.7463 81.4632 37.7463 80.2886C35.911 80.362 33.5618 79.9949 32.6074 78.8203C32.6808 78.8937 32.9011 83.5921 35.6173 86.4552Z" fill="#D9D9D9"/>
<path d="M42.0782 88.5088C42.0048 88.6556 41.9314 88.8759 41.858 89.0227C40.4632 89.2429 38.9949 88.9493 37.8203 88.1417C38.3342 87.7013 38.9215 87.2608 39.362 86.8203C39.362 86.8203 40.4632 88.5088 42.0782 88.5088Z" fill="white"/>
<path d="M37.8931 77.4992C36.2046 78.527 34.0757 78.3068 32.6074 76.9853C32.6808 74.8564 32.9745 72.7274 33.5618 70.6719C35.6173 70.9655 37.5995 71.4794 39.5082 72.2135C39.5082 72.2135 38.2602 73.535 37.8931 77.4992Z" fill="#D9D9D9"/>
<path d="M44.8678 74.6339C42.2983 70.8165 37.1595 69.8621 37.1595 69.8621C40.2428 69.7887 43.1793 71.1836 45.088 73.6062C52.2824 82.0486 46.4828 91.0049 46.1892 91.2986C46.1892 91.2986 38.7745 102.31 28.2031 94.9692C30.7726 96.1438 33.7825 96.1438 36.4253 95.116C36.4253 95.116 42.5186 95.9236 45.6019 87.2609C48.465 79.2589 46.0424 76.3224 44.8678 74.6339Z" fill="#B2B2B2"/>
<path d="M69.5344 83.9582C69.5344 83.9582 67.3321 82.4899 68.4333 80.8015C68.213 80.6546 68.0662 80.5812 67.846 80.5078C67.846 80.5078 66.4511 82.7102 69.5344 83.9582Z" fill="black"/>
<path d="M72.3969 83.371C72.2501 83.2241 72.1766 83.1507 72.0298 83.0039C71.5893 83.5912 70.8552 83.9583 70.1211 83.9583C71.002 84.2519 71.8096 83.9583 72.3969 83.371Z" fill="black"/>
<path d="M68.3604 80.6523C68.0667 80.8726 67.9199 81.2396 67.9199 81.6067C67.9199 82.2674 68.287 82.7813 68.7275 82.7813C69.1679 82.7813 69.3148 82.194 69.3148 81.6801C69.3148 81.4599 69.3148 81.1662 69.1679 80.946C68.8743 80.7992 68.5806 80.7258 68.3604 80.6523Z" fill="white"/>
<path d="M70.5612 83.0756C70.7081 83.0756 70.8549 82.9288 70.8549 82.7819C70.8549 82.6351 70.7081 82.4883 70.5612 82.4883C70.4144 82.4883 70.2676 82.6351 70.2676 82.7819C70.2676 82.9288 70.341 83.0756 70.5612 83.0756Z" fill="black"/>
<path d="M101.249 84.3984C101.103 84.3984 101.029 84.4719 100.882 84.5453C101.103 85.0592 100.662 85.7199 100.662 85.7199C101.176 85.4262 101.396 84.9123 101.249 84.3984Z" fill="black"/>
<path d="M98.6045 85.6445L98.1641 85.7914C98.7514 86.4521 100.073 85.9382 100.073 85.9382C99.5589 86.085 98.9716 85.9382 98.6045 85.6445Z" fill="black"/>
<path d="M99.6312 85.5C99.5578 85.5 99.4844 85.5734 99.4844 85.6468C99.4844 85.7202 99.5578 85.7937 99.6312 85.7937C99.7046 85.7937 99.778 85.7202 99.778 85.6468C99.778 85.5734 99.7046 85.5 99.6312 85.5Z" fill="black"/>
<path d="M108.882 75.5155C111.232 75.8826 111.819 77.4243 111.819 77.4243C111.158 77.204 110.497 77.1306 109.763 77.0572C110.204 78.5255 109.984 81.0215 105.872 84.2516C106.019 85.4996 105.946 86.7477 105.579 87.9223C106.9 87.9223 108.222 87.6286 109.47 87.1881C109.176 89.0234 106.974 89.7576 105.065 89.831C104.111 92.4738 102.863 95.0433 101.394 97.3925C101.101 97.9064 100.807 98.4202 100.513 98.9341C102.128 99.0075 103.743 98.7873 105.285 98.3468C104.845 100.402 101.835 101.063 99.4856 100.916C98.7515 102.458 98.0173 104.146 97.2832 105.761C99.8526 105.248 102.349 104.293 104.551 102.825C108.368 100.402 116.811 88.8032 111.599 73.9739C111.011 72.1386 110.057 70.3767 108.882 68.835C108.515 68.6882 108.222 68.5414 107.855 68.3945C107.855 68.3945 107.414 72.3588 108.809 75.2953" fill="white"/>
<path d="M41.1237 65.2395C39.0681 65.3863 36.9392 65.68 34.957 66.2673C34.957 66.2673 36.7923 61.7891 37.8201 60.0272L38.1138 59.6602C39.582 61.2752 40.6098 63.184 41.1237 65.2395Z" fill="#D9D9D9"/>
<path d="M100.808 85.0593C100.808 85.2061 100.661 85.3529 100.514 85.3529C100.368 85.3529 100.221 85.2061 100.221 85.0593C100.221 84.9125 100.368 84.7656 100.514 84.7656C100.735 84.7656 100.808 84.839 100.808 85.0593Z" fill="black"/>
<path d="M100.588 84.5469C100.735 84.6937 100.808 84.8405 100.808 85.0608C100.808 85.3544 100.662 85.6481 100.368 85.6481C100.074 85.6481 100.074 85.3544 100.074 85.0608C100.074 84.9139 100.074 84.8405 100.148 84.6937C100.368 84.6203 100.515 84.6203 100.588 84.5469Z" fill="white"/>
<path d="M111.231 37.8555C110.717 39.544 110.277 41.3059 110.057 43.1412C109.836 44.536 109.763 46.0043 109.69 47.3991C109.616 49.2344 109.543 50.9229 109.543 52.3911C109.469 55.034 109.469 56.5022 109.176 57.4566C109.763 60.1729 109.543 64.2106 109.469 65.8256C111.598 67.8812 113.14 70.3772 114.021 73.1669C116.444 79.9942 116.37 87.4089 113.801 94.1629C111.672 99.6688 108.295 103.633 105.872 105.175C104.037 106.349 101.981 107.304 99.9257 107.964C99.1916 108.185 98.4575 108.331 97.6499 108.478C96.9158 110.387 95.7412 114.131 95.9615 116.554C96.5488 118.903 96.5488 121.325 95.888 123.675C95.3742 125.657 94.4198 127.419 93.025 128.887C92.8047 129.915 92.5111 130.869 91.9972 131.75C91.4099 132.998 90.5289 134.173 89.5746 135.127C87.2988 137.256 84.5091 138.724 81.4258 139.385V170.512H139.348V134.466H128.85V116.48H149.92V89.3176H180.753V37.9289L111.231 37.8555Z" fill="#B2B2B2"/>
<path d="M110.057 43.1406C109.837 44.5355 109.763 46.0037 109.69 47.3985C109.616 49.2339 109.543 50.9223 109.543 52.3906C109.469 55.0334 109.469 56.5017 109.176 57.4561C109.763 60.1723 109.543 64.21 109.469 65.8251C111.598 67.8806 113.14 70.3767 114.021 73.1663C116.444 79.9203 116.37 87.4084 113.801 94.1623C111.672 99.6683 108.295 103.633 105.872 105.174C104.037 106.349 101.981 107.303 99.9259 107.964C99.1917 108.184 98.4576 108.331 97.6501 108.478C96.916 110.386 95.7414 114.131 95.9616 116.553C96.5489 118.902 96.5489 121.325 95.8882 123.674V139.751H86.418V165.299H134.43V139.751H123.932V111.267H145.001V86.1604H123.932V68.3945H148.011V84.0314H175.834V43.1406H110.057Z" fill="white"/>
<path d="M99.9272 143.936H90.457V161.041H130.467V143.936H119.969V107.009H141.038V90.4182H119.969V64.2099H151.977V79.8468H171.871V47.3984H109.691C109.618 49.2338 109.544 50.9222 109.544 52.3905C109.618 54.079 109.471 55.7675 109.177 57.456C109.765 60.1722 109.544 64.2099 109.471 65.825C111.526 67.8805 113.141 70.3766 114.022 73.1662C116.445 79.9936 116.372 87.4083 113.802 94.1622C111.673 99.5947 108.296 103.632 105.874 105.174C104.038 106.349 101.983 107.303 99.8538 107.964V143.936H99.9272Z" fill="#860038"/>
</svg>
