<svg width="200" height="200" viewBox="0 0 200 200" fill="none" xmlns="http://www.w3.org/2000/svg">
<path d="M178.249 84.8306C176.283 71.3777 156.84 78.9263 161.662 66.3791C161.662 66.3791 147.246 54.1645 114.596 51.4306L114.804 50.616C115.456 48.0952 116.288 47.5588 117.584 47.4652H129.208L135.469 23.2383H62.5042L56.2437 47.4637H69.8363L67.9845 54.6244C59.1888 55.1918 53.4751 56.171 53.4751 56.171L59.6276 60.0566C47.1952 61.8865 34.5541 66.1236 21.4688 71.6626C21.4688 71.6626 41.0456 73.2184 59.4556 87.6336L44.4049 145.87C44.4049 145.87 42.6701 152.535 36.2014 152.535H29.0919L22.8314 176.757H130.399L145.066 130.453H122.831C121.091 137.183 117.126 152.533 100.463 152.533H88.465L91.8233 139.539C99.0867 131.048 123.676 108.101 161.813 131.695C161.813 131.695 165.96 110.682 130.535 98.0308C130.535 98.0308 137.667 94.3909 145.238 94.3909C162.648 94.3909 160.198 111.934 160.198 111.934C165.533 107.878 180.789 97.5408 178.248 84.8257L178.249 84.8306Z" fill="#663700"/>
<path d="M123.838 80.3539C123.886 80.7297 123.918 81.1117 123.918 81.5016C123.918 81.7208 123.901 81.9348 123.886 82.1513C122.761 81.8317 121.619 81.547 120.551 81.302C117.754 80.6615 115.484 80.2965 115.484 80.2965C115.484 80.2965 117.173 80.7125 120.369 82.9401C121.203 83.5238 122.143 84.233 123.183 85.0875C121.79 88.3262 118.574 90.5995 114.823 90.5995C109.801 90.5995 105.728 86.5263 105.728 81.5016C105.728 78.0809 107.619 75.1069 110.408 73.5517C109.009 73.1072 107.625 72.7344 106.275 72.4375C103.862 74.7105 102.35 77.9267 102.35 81.5016C102.35 88.3916 107.935 93.9747 114.823 93.9747C115.965 93.9747 117.068 93.8071 118.119 93.5225C118.645 93.3769 119.164 93.2114 119.662 93.0005C123.673 91.3118 126.601 87.5831 127.179 83.1139C126.108 82.1286 124.992 81.2053 123.838 80.3539Z" fill="white"/>
<path d="M67.7761 30.3477L65.1927 40.351H69.8984C69.8984 40.351 78.7795 40.3599 76.1303 50.6147L75.1767 54.2998C82.0952 54.1174 90.131 54.2887 98.4708 55.2543L91.7589 51.1422C97.4103 50.8397 102.674 50.8201 107.594 51.0055L107.693 50.6153C110.345 40.3605 119.229 40.3522 119.229 40.3522H123.934L126.521 30.3489H67.7749L67.7761 30.3477ZM151.945 73.1581C145.111 73.143 139.795 79.0238 135.115 83.8372C130.76 88.5232 125.328 91.0447 119.663 93.0011C119.164 93.212 118.646 93.3772 118.119 93.5228C109.767 96.2566 101.068 98.0998 94.6451 104.075C106.819 109.259 118.253 112.41 131.005 114.281C142.239 115.931 150.818 120.437 156.093 123.374C144.782 109.568 117.48 110.707 100.927 103.683C121.003 93.5909 140.815 87.7802 157.192 91.574C161.268 93.1208 163.034 97.7065 164.145 101.327C169.127 97.342 172.742 89.4287 171.369 84.4301C169.31 76.9328 153.754 81.8353 145.918 85.136C143.306 84.9174 139.965 85.3356 139.965 85.3356C143.505 80.7524 149.687 75.7624 155.902 73.8167C154.527 73.3653 153.209 73.1605 151.943 73.1578L151.945 73.1581ZM65.2584 92.6827L50.605 149.384C50.605 149.384 47.9534 159.647 34.3638 159.647L31.7773 169.65H125.532L135.692 137.564H127.679C127.678 137.564 120.956 159.645 98.6249 159.645H79.5179L87.029 130.574C82.3463 113.478 74.223 101.324 65.2593 92.6821L65.2584 92.6827Z" fill="#C1A875"/>
<path d="M107.621 56.7773L112.169 61.6169C101.821 59.0734 83.6595 60.429 69.9635 62.682C56.5105 64.8982 41.5762 71.666 41.5762 71.666C84.8103 80.1574 92.9346 129.868 92.9346 129.868C92.9346 129.868 99.5764 119.945 114.921 116.743C107.82 112.744 94.4639 108.856 86.8699 108.146C88.8697 100.132 96.7707 95.9383 102.436 92.8167C102.436 92.8167 97.702 89.2099 97.702 81.1013C97.702 78.7282 97.7081 74.3191 101.252 71.6497C97.0787 71.2656 93.5643 71.6816 91.4193 72.7753C91.4193 72.7753 107.319 56.0263 133.625 76.7536C133.625 76.7536 138.564 68.5707 147.448 66.1783C147.448 66.1783 138.721 57.3343 107.622 56.7789L107.621 56.7773ZM120.609 101.7C119.706 101.733 118.834 102.054 118.456 102.723C122.572 104.555 128.391 106.648 134.091 107.272L122.552 102.117C122.031 101.822 121.311 101.673 120.609 101.699L120.609 101.7Z" fill="#994708"/>
<path d="M123.839 80.3532C121.927 78.9344 119.919 77.7066 117.877 76.6473C119.438 77.6329 120.483 79.3366 120.551 81.3014C121.62 81.5464 122.762 81.831 123.887 82.1506C123.901 81.9339 123.918 81.7202 123.918 81.5009C123.918 81.111 123.887 80.729 123.839 80.3532ZM114.823 87.249C111.647 87.249 109.075 84.677 109.075 81.5006C109.075 78.328 111.647 75.7529 114.823 75.7529C115.553 75.7529 116.245 75.9005 116.888 76.1483C114.735 75.0973 112.553 74.2346 110.408 73.5508C107.62 75.1059 105.729 78.0799 105.729 81.5006C105.729 86.5253 109.802 90.5985 114.824 90.5985C118.575 90.5985 121.791 88.3255 123.184 85.0865C122.144 84.2324 121.204 83.5228 120.37 82.9391C119.729 85.4148 117.501 87.249 114.823 87.249Z" fill="#027346"/>
</svg>
