<svg width="200" height="200" viewBox="0 0 200 200" fill="none" xmlns="http://www.w3.org/2000/svg">
<path d="M185.174 5.80074H36.1419L31.3415 0.997421H24.429L24.0234 1.40396C23.2877 1.13652 22.5039 0.997421 21.6937 0.997421C19.8617 0.997421 18.1394 1.71159 16.8443 3.00774C14.9075 4.9416 14.3726 7.75917 15.2444 10.1848L14.8359 10.5923V17.5216L19.6304 22.3131L19.6407 22.3004V83.6667C19.6407 98.2208 22.087 112.315 26.6013 125.404L19.4506 132.554L21.9341 134.532C23.5917 135.853 25.309 137.102 27.0891 138.267C27.0952 138.273 27.1029 138.279 27.1106 138.282C27.7944 138.73 28.488 139.169 29.1885 139.591C29.208 139.602 29.2267 139.614 29.2444 139.627C29.9351 140.042 30.6326 140.448 31.337 140.841C31.3664 140.855 31.3919 140.87 31.4183 140.885C32.1158 141.273 32.8183 141.648 33.5324 142.011C33.5629 142.026 33.5941 142.041 33.6245 142.055C33.6687 142.082 33.7186 142.105 33.7637 142.129C47.7221 169.073 71.1041 189.849 99.7302 198.453L102.123 199.174L102.303 199.131L102.595 199.207L105.082 198.456C126.755 191.938 145.424 178.445 159.272 160.582H171.502H174.417V145.304L171.117 142C180.11 124.589 185.174 104.604 185.171 83.6664V5.8011L185.174 5.80074Z" fill="#2C2A29"/>
<path d="M21.7005 3.91447C20.6921 3.91447 19.6837 4.298 18.9126 5.06603C17.3746 6.60608 17.3746 9.10163 18.9126 10.6417L17.7578 11.798V16.3068L19.6324 18.1798L22.1131 15.699L39.9581 33.544C36.7153 37.2265 33.8272 41.1738 31.3161 45.3331L34.5085 48.5255C38.4262 41.8225 43.3692 35.689 49.2318 30.3464C53.6843 26.2896 58.5403 22.8003 63.697 19.9184L60.4885 16.7115C55.8635 19.387 51.4764 22.5312 47.3941 26.1176L29.5443 8.26773L32.0186 5.79502L30.1361 3.91406H25.6433L24.4885 5.06889L24.4868 5.06569C23.7168 4.29763 22.7088 3.91447 21.7005 3.91447ZM34.1201 8.71601L38.7025 13.2968H177.672V83.6611C177.672 102.525 173.316 120.559 165.541 136.419L168.952 139.829C177.471 123.02 182.256 103.793 182.256 83.6612V8.71592H34.1149L34.1201 8.71601ZM22.5644 20.2799V83.6605C22.5644 97.3863 24.7906 110.692 28.9062 123.098L32.5465 119.457C29.0366 108.148 27.1515 96.0856 27.1515 83.6627V24.8655L22.5643 20.2815L22.5644 20.2799ZM103.558 22.887C89.9413 22.6489 77.2064 26.5919 66.581 33.5328L83.761 50.7136C88.6143 48.3183 93.9229 46.8649 99.426 46.4799C100.666 46.3927 101.916 46.3605 103.148 46.384C113.032 46.5554 122.576 50.2126 130.021 56.6843C130.957 57.5003 131.877 58.3693 132.744 59.2706C140.581 67.3842 144.789 78.0499 144.592 89.2985C144.481 95.5889 142.984 101.689 140.26 107.212L157.442 124.393C163.973 114.397 167.862 102.503 168.088 89.7087C168.72 53.4939 139.773 23.5168 103.558 22.8854L103.558 22.887ZM66.9217 23.1474C61.6487 25.98 56.6926 29.4718 52.178 33.5853C46.3563 38.8877 41.4977 45.0271 37.7143 51.7389L39.864 53.8854C43.043 48.0809 47.0548 42.7195 51.816 37.9665V37.9697L75.6971 61.8525L81.2728 56.2817L61.5337 36.5418L57.702 32.7093C61.2749 29.8623 65.0853 27.3879 69.0808 25.307L66.9217 23.1474ZM102.392 32.7508C102.723 32.7508 103.053 32.7563 103.385 32.7604C104.336 32.779 105.281 32.8221 106.223 32.8867L105.177 43.5441C104.521 43.5039 103.855 43.4769 103.197 43.4641C102.928 43.4631 102.661 43.4577 102.394 43.4577C101.51 43.4577 100.619 43.4851 99.7386 43.5361L98.6986 32.8755C99.9222 32.7981 101.16 32.7507 102.39 32.7507L102.392 32.7508ZM95.3385 33.2018L96.3734 43.8608C94.5688 44.1018 92.7832 44.4516 91.0345 44.9052L87.9513 34.6475C90.3662 34.0009 92.8322 33.5191 95.3343 33.2017L95.3385 33.2018ZM109.584 33.2194C112.079 33.5427 114.543 34.0378 116.955 34.6893L113.871 44.9429C112.12 44.4815 110.34 44.1277 108.538 43.8808L109.584 33.2194ZM84.7197 35.6186L87.8002 45.8787C86.6403 46.2745 85.5007 46.7174 84.379 47.2063L76.3626 39.1915C79.0449 37.7739 81.8405 36.5787 84.7197 35.6186ZM120.192 35.6698C122.567 36.4672 124.885 37.4272 127.132 38.5392L122.125 48.0017C120.493 47.2091 118.817 46.518 117.105 45.9272L120.192 35.6698ZM130.116 40.129C132.282 41.3692 134.374 42.7608 136.364 44.2892L129.62 52.6044C128.173 51.5071 126.663 50.5044 125.102 49.5942L130.116 40.129ZM51.8158 46.1461V49.1163L70.1226 67.4264L71.6085 65.9421L51.817 46.1457L51.8158 46.1461ZM138.981 46.4276C140.208 47.4965 141.406 48.6322 142.538 49.8088C143.143 50.4319 143.727 51.0694 144.297 51.717L136.07 58.5722C135.667 58.1235 135.26 57.678 134.837 57.2431C134.004 56.378 133.126 55.5405 132.229 54.7479L138.981 46.4276ZM102.408 52.0689C96.5311 52.0689 90.9737 53.4582 86.057 55.9299C85.8434 56.0357 85.6317 56.1483 85.4172 56.261L80.5501 61.1265L41.7442 99.9307H50.0021L64.293 85.6414H69.0417H84.208H84.2096H88.333L88.3346 85.648L88.3123 85.7136C88.0144 86.7011 87.6001 87.6412 87.0887 88.519C84.5043 92.955 79.3818 95.8604 73.7044 95.8604H60.266L36.6551 119.475L29.9535 126.175C38.2712 132.56 48.4347 136.733 59.6325 137.711C61.295 137.857 62.9835 137.931 64.65 137.931C78.7926 137.931 92.385 132.66 102.928 123.088C108.006 129.993 116.191 134.485 125.401 134.485C127.75 134.485 130.03 134.191 132.21 133.643L119.427 120.851C131.014 114.734 138.909 102.573 138.909 88.5613C138.909 68.4062 122.571 52.0681 102.418 52.0681L102.408 52.0689ZM146.457 54.3177C148.005 56.2986 149.411 58.3687 150.666 60.5171L141.262 65.6577C140.346 64.1117 139.332 62.6129 138.223 61.1728L146.457 54.3177ZM152.279 63.4854C153.408 65.7181 154.382 68.025 155.194 70.387L144.974 73.6098C144.378 71.9071 143.676 70.2437 142.873 68.6243L152.279 63.4854ZM156.197 73.6129C156.862 76.0092 157.364 78.4577 157.699 80.9432L147.053 82.1284C146.798 80.3356 146.438 78.5734 145.975 76.8375L156.197 73.6129ZM158.058 84.3038C158.188 86.031 158.24 87.7816 158.206 89.5372C158.194 90.2847 158.165 91.0306 158.122 91.7732L147.447 90.8775C147.476 90.369 147.495 89.8591 147.503 89.3516C147.527 88.0535 147.491 86.7674 147.405 85.489L158.058 84.3038ZM147.153 94.243L157.826 95.1387C157.531 97.6221 157.078 100.075 156.461 102.475L146.163 99.5323C146.598 97.7973 146.927 96.0319 147.153 94.243ZM145.222 102.778L155.521 105.721C154.533 108.785 153.283 111.756 151.777 114.604L143.762 106.593C144.305 105.344 144.794 104.072 145.222 102.778ZM137.288 112.298C135.999 114.19 134.544 115.987 132.942 117.668C132.707 117.915 132.47 118.154 132.233 118.39L169.4 155.553H161.225L130.145 124.478V127.451L160.352 157.657H171.502V157.655V157.653V155.553V154.736V146.508L137.429 112.438L137.288 112.298L137.288 112.298ZM25.899 130.226L23.8229 132.304C33.5573 140.048 45.5864 145.121 58.8798 146.286C74.8142 147.68 89.9371 143.225 102.124 134.712C108.443 139.949 116.557 143.095 125.401 143.095C130.222 143.095 134.817 142.158 139.03 140.462L136.764 138.197C133.214 139.477 129.389 140.177 125.401 140.177C116.472 140.177 108.347 136.671 102.324 130.966C91.4688 139.163 78.2965 143.619 64.6493 143.619C62.8213 143.619 60.9671 143.538 59.1361 143.376C46.5535 142.276 35.1534 137.51 25.8997 130.225L25.899 130.226ZM102.405 140.498L97.7668 154.77L82.7643 154.773L94.9006 163.589L94.9038 163.593L90.2638 177.863L102.405 169.041L114.551 177.866L109.913 163.589H109.909L122.044 154.77H107.047L102.405 140.498ZM38.1655 144.154C51.9257 168.768 73.9144 187.641 100.568 195.653L102.217 196.149L102.333 196.123L102.527 196.17L104.24 195.653C125.41 189.289 143.639 176.072 157.142 158.573L153.876 155.311C140.914 172.3 123.347 185.123 102.919 191.266L102.426 191.414L102.388 191.403L102.37 191.41L101.887 191.263C78.0911 184.11 58.1726 167.886 44.8989 146.568C44.5893 146.474 44.2804 146.38 43.9728 146.282C43.9258 146.265 43.8802 146.252 43.8352 146.239C43.4786 146.124 43.1259 146.011 42.7732 145.891C42.7565 145.887 42.7354 145.881 42.7188 145.874C42.3387 145.746 41.9594 145.614 41.5832 145.479C41.5607 145.471 41.5385 145.461 41.516 145.455C41.1555 145.326 40.7924 145.193 40.4348 145.06C40.4132 145.05 40.3911 145.041 40.3724 145.033C39.9923 144.889 39.6133 144.745 39.24 144.594C39.2328 144.594 39.2283 144.59 39.2225 144.586C38.8688 144.445 38.5162 144.301 38.1655 144.154Z" fill="#D3BC8D"/>
</svg>
