<svg width="200" height="200" viewBox="0 0 200 200" fill="none" xmlns="http://www.w3.org/2000/svg">
<path d="M47.8004 27.9032V53.6684H59.8563V56.9293H19.8711V82.6945H28.5874V117.311H19.8711V143.076H59.8563V146.333H47.8004V172.103H97.6063V146.333H85.6167V143.076H111.418L126.354 172.103H148.867V143.076H163.638L180.133 126.582V73.3713L163.634 56.9306H148.867V53.6697H160.89V27.9045H111.05V53.6697H123.106V56.9306H97.3132L82.3738 27.9023H47.7973L47.8004 27.9032ZM54.3554 82.6945H59.8563V117.311H54.3554V82.6945ZM110.571 82.6945H123.106V107.055L110.571 82.6945ZM148.867 82.6945H153.009L154.335 84.0336V115.918L152.959 117.311H148.867L148.867 82.6945ZM85.616 92.9443L98.1594 117.313H85.616V92.9443Z" fill="#C99700"/>
<path d="M51.076 31.1758V50.3857H63.1276V60.2015H23.1445V79.4156H31.8608V120.579H23.1445V139.794H63.1276V149.609H51.076V168.819H94.3263V149.609H82.3407V139.794H113.417L128.354 168.82H145.592V139.794H162.281L176.854 125.221V74.7251L162.281 60.2019H145.592V50.3861H157.611V31.1762H114.327V50.3861H126.383V60.2019H95.3102L80.378 31.1758H51.076ZM51.076 79.4158H63.1276V120.58H51.076V79.4158ZM82.3409 79.4158L103.531 120.58H82.3409V79.4158ZM105.197 79.4158H126.383V120.58L105.197 79.4158ZM145.592 79.4158H154.375L157.611 82.6809V117.266L154.325 120.58H145.592V79.4158Z" fill="#0C2340"/>
</svg>
