<svg width="200" height="200" viewBox="0 0 200 200" fill="none" xmlns="http://www.w3.org/2000/svg">
<path d="M174.936 94.2834C170.603 86.9377 165.237 80.4899 162.325 77.2018L164.688 75.9442L163.797 73.9229C161.679 69.1015 158.251 64.1143 157.144 62.5569C150.888 19.7381 131.456 7.16298 130.621 6.64694L129.08 5.6875L127.748 6.92452C117.93 15.973 113.795 28.3488 112.47 33.2503C107.414 32.8051 100.446 32.4902 100.111 32.479L100.018 32.4716L99.9061 32.479C99.5708 32.4902 92.6088 32.8051 87.5452 33.2503C86.2206 28.3469 82.0941 15.973 72.2688 6.92452L70.9423 5.6875L69.3886 6.64694C68.5708 7.16298 49.1231 19.7381 42.8821 62.5569C41.7736 64.1143 38.3346 69.1034 36.2219 73.9229L35.3314 75.9442L37.6825 77.2018C34.7763 80.4899 29.4127 86.9377 25.0832 94.2834L24.582 95.1311L24.8335 96.0998C25.1651 97.335 32.9654 126.75 44.5923 147.039L47.2713 151.693L49.2274 145.657C53.5756 152.671 62.8663 165.816 75.6296 173.669C77.187 177.331 84.3968 192.135 99.6807 194.266L100.016 194.312L100.336 194.266C115.622 192.135 122.823 177.331 124.38 173.669C137.143 165.816 146.438 152.671 150.782 145.657L152.738 151.693L155.41 147.039C167.042 126.751 174.85 97.3369 175.178 96.0998L175.422 95.1311L174.93 94.2834H174.936Z" fill="#A2AAAD"/>
<path d="M70.6522 8.65234C70.6522 8.65234 51.2139 20.7766 45.1517 63.4687C45.1517 63.4687 40.8222 69.3539 38.3984 74.872L41.5096 76.5319C41.5096 76.5319 33.2044 85.1743 27.1367 95.4859C27.1367 95.4859 35.0563 125.601 46.6589 145.833L48.6132 139.829C48.6132 139.829 59.8712 161.545 77.5378 172.027C77.5378 172.027 84.1179 189.701 100.013 191.897C115.895 189.701 122.482 172.027 122.482 172.027C140.143 161.545 151.392 139.829 151.392 139.829L153.357 145.833C164.958 125.601 172.881 95.4859 172.881 95.4859C166.808 85.1743 158.497 76.5319 158.497 76.5319L161.612 74.872C159.189 69.3539 154.859 63.4687 154.859 63.4687C148.797 20.7766 129.357 8.65234 129.357 8.65234C117.545 19.5638 114.3 35.8183 114.3 35.8183C109.356 35.2669 100.015 34.8552 100.015 34.8552C100.015 34.8552 90.6588 35.2669 85.7163 35.8183C85.7163 35.8183 82.4691 19.5638 70.6522 8.65234Z" fill="#000E2F"/>
<path d="M70.1095 17.3769V17.3806C70.1095 17.3806 55.1684 27.7257 51.1518 59.4765C51.1518 59.4765 54.0282 52.1345 58.559 41.931C63.0861 31.7218 69.7164 23.0385 69.7164 23.0385C73.0921 28.2846 73.4852 35.5987 73.4852 35.5987C68.6769 42.3688 66.7282 48.7085 66.7282 48.7085L69.8506 48.293C67.6504 52.4363 66.6052 59.4709 66.6052 59.4709C75.691 50.0871 85.5685 45.1129 85.5685 45.1129C85.5685 45.1129 81.5445 44.5708 79.7262 44.5708L82.8448 42.6314C82.8448 42.6314 79.974 26.2167 70.1095 17.3769ZM130.12 17.3769V17.3806C120.252 26.2148 117.388 42.6333 117.388 42.6333L120.503 44.5727C118.69 44.5727 114.665 45.1185 114.665 45.1185C114.665 45.1185 124.54 50.0871 133.624 59.4728C133.624 59.4728 132.583 52.44 130.383 48.2949L133.494 48.7085C133.494 48.7085 131.551 42.3632 126.744 35.595C126.744 35.595 127.132 28.279 130.511 23.0347C130.511 23.0347 137.141 31.7162 141.667 41.9272C146.196 52.1289 149.078 59.4728 149.078 59.4728C145.055 27.7201 130.12 17.3769 130.12 17.3769ZM100.018 58.3923C96.1335 76.4688 95.0455 99.8809 95.0455 99.8809C87.1241 105.539 82.3251 113.216 82.3251 113.216C81.0173 107.279 81.2799 100.71 81.2799 100.71C70.3685 97.5354 69.9865 88.8408 69.9865 88.8408C69.9865 88.8408 74.1335 88.2931 78.4165 88.9824L77.377 85.67C77.377 85.67 82.8411 88.1459 87.5209 98.9177C87.5209 98.9177 91.9287 95.7357 90.7662 78.628C90.7662 78.628 86.8614 73.2384 81.1495 71.0382C78.5488 74.2052 76.3505 78.0747 76.3505 78.0747L78.2936 79.0397C72.9729 86.0855 65.5657 87.4566 65.5657 87.4566C65.1745 96.0189 67.4585 106.757 67.4585 106.757C62.1304 100.822 60.3661 91.1807 60.3661 91.1807C53.7488 88.8352 49.069 88.2913 49.069 88.2913L42.7013 93.6659L49.069 97.8148L38.5469 99.1841C42.0474 114.088 48.6815 129.69 48.6815 129.69L50.6246 124.862C59.0732 141.409 66.9871 146.519 66.9871 146.519C64.6566 138.247 60.8877 129.133 60.8877 129.133C72.7084 137.692 79.7896 156.111 82.8393 165.843C87.5209 180.751 100.12 180.375 100.12 180.375C100.12 180.375 112.714 180.751 117.392 165.843C120.438 156.111 127.523 137.692 139.34 129.133C139.34 129.133 135.571 138.247 133.238 146.519C133.238 146.519 141.156 141.409 149.601 124.862L151.548 129.69C151.548 129.69 158.174 114.088 161.688 99.1841L151.159 97.8167L157.53 93.6678L151.159 88.2931C151.159 88.2931 146.482 88.8371 139.863 91.1826C139.863 91.1826 138.09 100.824 132.769 106.759C132.769 106.759 135.057 96.0189 134.667 87.4566C134.667 87.4566 127.262 86.0873 121.936 79.0415L123.886 78.0765C123.886 78.0765 121.675 74.2071 119.076 71.04C113.37 73.2402 109.467 78.6298 109.467 78.6298C108.299 95.7376 112.712 98.9196 112.712 98.9196C117.392 88.1478 122.851 85.6719 122.851 85.6719L121.809 88.9861C126.092 88.2968 130.243 88.8446 130.243 88.8446C130.243 88.8446 129.857 97.5391 118.949 100.714C118.949 100.714 119.212 107.284 117.919 113.22C117.919 113.22 113.102 105.542 105.18 99.8846C105.18 99.8846 103.919 76.4706 100.022 58.3941L100.018 58.3923Z" fill="white"/>
<path d="M100.121 125.267C106.478 125.267 110.244 129.685 110.244 129.685C110.114 142.386 101.678 144.307 101.678 144.307C101.678 144.307 100.896 147.905 107.782 147.621C114.669 147.348 116.877 143.622 122.328 133.133C124.453 129.033 126.173 127.769 127.477 127.769C122.948 135.665 119.891 145.395 118.93 148.674C117.858 151.781 116.879 155.111 116.092 158.524C112.588 173.575 100.121 174.668 100.121 174.668C100.121 174.668 87.6521 173.575 84.1516 158.524C83.3989 155.336 82.5103 152.23 81.5173 149.304C80.8206 146.85 77.6665 136.248 72.793 127.769C74.0933 127.79 75.7849 129.064 77.9087 133.133C83.3579 143.622 85.573 147.348 92.4549 147.621C99.3386 147.905 98.5636 144.307 98.5636 144.307C98.5636 144.307 90.1206 142.386 89.992 129.683C89.992 129.683 93.7478 125.267 100.121 125.267Z" fill="#000E2F"/>
<path d="M75.5222 92.0391C75.5222 92.0391 74.6335 95.7892 78.0465 96.812C81.4632 97.8385 82.3481 94.5858 82.3481 94.5858C81.1689 93.7046 79.9728 93.1326 78.9389 92.7544C79.1531 93.4139 79.4773 94.1852 79.9467 94.8913C79.604 95.0254 79.1662 95.0701 78.6147 94.9025C76.8356 94.3734 77.102 92.5644 77.1523 92.2533C76.1593 92.0484 75.5222 92.0391 75.5222 92.0391ZM124.703 92.0391C124.703 92.0391 124.064 92.0484 123.064 92.2533C123.123 92.5644 123.39 94.3752 121.61 94.9062C121.053 95.0739 120.621 95.0292 120.282 94.8913C120.744 94.1852 121.066 93.4158 121.294 92.7544C120.241 93.1345 119.06 93.7046 117.873 94.5858C117.873 94.5858 118.749 97.8385 122.182 96.812C125.594 95.7892 124.703 92.0391 124.703 92.0391Z" fill="#A4C8E1"/>
<path d="M100.011 160.583C103.174 160.479 106.716 157.303 106.835 152.414C100.775 152.414 101.835 156.984 100.011 156.984C98.1742 156.984 99.2696 152.414 93.1758 152.414C93.282 157.303 96.8291 160.479 100.011 160.583Z" fill="#E4002B" stroke="#E4002B" stroke-width="0.247016"/>
<path d="M100 128.234C97.2563 128.234 94.3761 129.453 93.3719 131.202C94.8698 129.961 97.5767 129.179 100 129.179C102.439 129.179 105.139 129.961 106.627 131.202C105.617 129.455 102.748 128.234 100 128.234ZM89.6795 153.139C86.3485 155.702 86.8944 163.987 91.7009 165.896C96.634 167.344 96.036 168.138 99.9967 168.331C103.961 168.138 103.358 167.344 108.283 165.896C113.088 163.987 113.639 155.702 110.318 153.139C111.756 158.636 106.648 163.765 106.601 163.625C106.433 162.536 105.371 162.163 105.371 162.152C105.36 162.081 104.457 165.291 99.9986 165.397C95.5274 165.291 94.6313 162.081 94.6313 162.152C94.6313 162.163 93.5527 162.536 93.3831 163.625C93.3421 163.765 88.232 158.636 89.6795 153.139Z" fill="white"/>
</svg>
