<svg width="200" height="200" viewBox="0 0 200 200" fill="none" xmlns="http://www.w3.org/2000/svg">
<path fill-rule="evenodd" clip-rule="evenodd" d="M20.5162 66.8672H54.3173L40.6519 137.031H5.69141L11.7793 109.417H15.2574L18.4312 94.5717H14.7762L20.5162 66.8672ZM35.8942 81.1352L26.9946 122.763H28.8947L37.0024 81.1352H35.8942ZM188.742 106.705L194.306 80.2283H164.054V90.7828H161.24L157.091 110.453H174.721L172.534 120.827C172.459 121.117 172.176 121.67 171.563 122.18C170.966 122.676 170.528 122.747 170.478 122.755C170.474 122.756 170.472 122.756 170.474 122.756H147.388V137.024H170.474C174.462 137.024 178.049 135.344 180.688 133.149C183.342 130.94 185.589 127.761 186.453 123.968L186.466 123.911L188.731 113.161L188.736 113.136C189.156 111.068 189.195 108.854 188.742 106.705ZM185.97 100.868C185.97 100.868 185.97 100.868 185.97 100.868V100.868ZM185.97 100.868C184.969 99.6488 183.808 98.682 182.552 97.9512V94.4962H185.517V87.3622L178.536 85.895" fill="white"/>
<path fill-rule="evenodd" clip-rule="evenodd" d="M50.8264 25.2344H187.484L176.281 80.3959H167.842L154.283 143.782L154.278 143.808C152.375 152.517 147.401 161.095 140.941 167.56C134.539 173.967 125.348 179.567 114.563 179.567H53.4925V177.288C48.9226 175.45 44.8136 172.504 41.5446 168.478C41.5442 168.478 41.5438 168.477 41.5434 168.477M47.8265 80.3884H39.2087L50.8264 25.2344M47.8265 80.3884L35.208 139.169L35.201 139.203C33.0831 149.352 34.8526 160.238 41.5434 168.477M68.739 56.4303H77.4733L58.6478 144.126C57.7287 148.567 58.8089 151.733 60.1413 153.374L60.1425 153.375C61.1604 154.629 62.8174 155.601 65.4715 155.601H77.4505V155.609H114.563C116.897 155.609 120.35 154.271 123.994 150.625C127.572 147.044 130.042 142.465 130.867 138.715C130.869 138.708 130.87 138.7 130.872 138.693L148.466 56.4379H156.7L158.171 49.1924H133.468L112.601 148.167H74.3917L95.2669 49.1924H70.2636L68.739 56.4303Z" fill="white"/>
<path fill-rule="evenodd" clip-rule="evenodd" d="M117.072 28.9727H182.906L173.225 76.6423H164.817L150.627 142.982L150.623 143C148.889 150.935 144.307 158.89 138.296 164.904C132.326 170.88 124.032 175.813 114.568 175.813H65.4691C57.2539 175.813 49.6311 172.496 44.4508 166.117C38.5896 158.904 36.9236 149.228 38.8672 139.96L38.8712 139.941L50.0885 87.6873L42.9241 90.3414L37.9297 76.8596L44.2645 74.5129L53.8555 28.9802H117.07L117.072 28.9727ZM64.1118 60.1762H72.8355L54.9828 143.34C54.9816 143.346 54.9803 143.351 54.9791 143.357C53.866 148.687 55.0516 153.053 57.2303 155.734L57.232 155.736C59.0226 157.941 61.7802 159.347 65.4691 159.347H114.568C118.224 159.347 122.574 157.343 126.649 153.266C130.679 149.232 133.54 144.026 134.533 139.502C134.534 139.496 134.536 139.49 134.537 139.485L151.501 60.1762H159.767L162.76 45.4388H130.427L109.552 144.413H79L99.8753 45.4463H67.2146L64.1118 60.1762Z" fill="black"/>
<path d="M65.4691 167.581C59.5241 167.581 54.326 165.22 50.8405 160.927C46.8269 155.986 45.401 148.954 46.925 141.652L62.6475 68.4108H53.9714L60.5426 37.2148H110.034L89.1584 136.189H102.882L123.749 37.2148H172.825L166.488 68.4183H158.152L142.572 141.252C139.849 153.715 127.68 167.589 114.56 167.589H65.4691V167.581Z" fill="#881C1C"/>
<path fill-rule="evenodd" clip-rule="evenodd" d="M58.3174 34.4727H113.419L92.5438 133.447H100.657L121.525 34.4727H176.185L168.733 71.1654H160.373L145.257 141.834L145.255 141.84C143.77 148.639 139.76 155.681 134.408 161.037C129.069 166.379 122.09 170.336 114.562 170.336H62.726V170.175C57.1421 169.541 52.2003 166.957 48.7113 162.66C44.0843 156.963 42.5798 149.048 44.2398 141.093L44.2414 141.086L59.2527 71.1578H50.59L58.3174 34.4727ZM68.2152 164.847H114.562C120.154 164.847 125.818 161.867 130.525 157.157C135.217 152.461 138.652 146.337 139.891 140.674C139.892 140.672 139.892 140.67 139.893 140.668L155.934 65.6762H164.246L169.469 39.9619H125.977L105.109 138.936H85.776L106.651 39.9619H62.7708L57.3559 65.6686H66.0453L49.6132 142.215C49.6127 142.217 49.6122 142.22 49.6116 142.222C48.2264 148.87 49.5738 155.015 52.9725 159.199C55.8926 162.796 60.2796 164.839 65.4706 164.839H68.2152V164.847Z" fill="white"/>
<path fill-rule="evenodd" clip-rule="evenodd" d="M23.5567 70.6094H48.0101L54.8023 88.935L68.9754 70.6094H93.9652L89.7787 90.8048L86.2784 90.8199L81.5884 113.152H82.3668L93.7635 83.9704H106.18L107.979 78.8666L107.726 83.9704H119.77L119.575 96.4496L120.119 93.8474L120.12 93.8389C120.827 90.5422 122.927 88.0548 125.34 86.4433C127.736 84.8435 130.636 83.9629 133.393 83.9629H159.034L158.82 84.9778C160.514 84.3149 162.313 83.9629 164.053 83.9629H189.692L185.303 104.849H184.143C185.335 107.128 185.586 109.821 185.066 112.38L185.063 112.392L182.807 123.099L182.801 123.126C182.147 125.997 180.416 128.493 178.292 130.26C176.176 132.02 173.41 133.269 170.473 133.269H148.646L148.495 133.984V133.269H143.209L143.335 132.674C142.212 133.048 141.027 133.261 139.813 133.261H119.336L119.333 133.276H97.5272L98.0427 128.18L96.2697 133.276H80.8451L80.8434 133.284H54.0131L57.2001 118.286L47.9419 130.201L44.8667 123.327L44.8637 123.32C43.7136 120.734 42.5333 118.076 41.348 115.385L37.5038 133.284H10.3438L14.7804 113.16H18.2783L23.0533 90.8242H19.3684L23.5567 70.6094ZM27.6951 84.0459H31.4339L23.7606 119.938H20.2271L18.7792 126.506H32.0267L39.1754 93.2208L43.3664 103.025C45.3834 107.743 47.4786 112.503 49.5248 117.117L69.9694 90.8053L62.3831 126.506H75.387L76.638 120.784L76.8164 119.93H73.2388L80.7707 84.0653L84.2565 84.0502L85.6376 77.3877H72.3021L52.6915 102.744L43.2935 77.3877H29.0745L27.6951 84.0459ZM82.3688 126.498H91.451L94.8761 116.653H106.022L105.026 126.498H113.85L114.695 122.541H112.387L112.885 90.7488H107.39L106.237 113.993H95.598L103.791 90.7488H98.3932L85.9299 122.661H83.1704L82.3688 126.498ZM120.913 126.483H139.813C140.847 126.483 142.129 126.015 143.298 125.043C144.453 124.083 145.247 122.836 145.526 121.637L147.763 111.023C147.764 111.019 147.764 111.016 147.765 111.012C148.093 109.385 147.71 108.178 147.174 107.526L147.173 107.523C146.767 107.029 146.143 106.69 145.237 106.69H131.048L133.616 94.5099H144.653L143.906 98.0633H149.136L150.679 90.7412H133.393C132.007 90.7412 130.412 91.2073 129.105 92.0801C127.818 92.9396 127.01 94.0481 126.75 95.2526C126.749 95.255 126.749 95.2575 126.748 95.2599L124.757 104.787L124.753 104.802C124.366 106.574 124.762 107.959 125.41 108.772C125.907 109.383 126.66 109.78 127.712 109.78H141.434L138.63 122.526H127.831L128.706 118.595H122.577L120.913 126.483ZM151.566 126.491H170.473C171.505 126.491 172.787 126.023 173.958 125.049C175.114 124.087 175.908 122.839 176.187 121.643L178.423 111.031C178.424 111.027 178.425 111.023 178.426 111.02C178.753 109.392 178.371 108.186 177.835 107.533L177.833 107.531C177.428 107.036 176.803 106.698 175.898 106.698H161.708L164.277 94.5175H175.313L174.566 98.0709H179.801L181.341 90.7412H164.053C162.672 90.7412 161.076 91.2069 159.767 92.0806C158.478 92.9409 157.67 94.0497 157.41 95.2526C157.409 95.255 157.409 95.2575 157.408 95.2599L155.417 104.788L155.413 104.804C155.024 106.58 155.421 107.967 156.069 108.771L156.07 108.773C156.564 109.386 157.321 109.787 158.38 109.787H172.094L169.29 122.533H158.491L159.366 118.603H153.23L151.566 126.491Z" fill="black"/>
<path d="M172.789 96.4375H130.156V120.708H172.789V96.4375Z" fill="#881C1C"/>
<path d="M170.391 101.458L171.138 97.9042H167.027L165.887 103.306H175.899C177.747 103.306 179.362 104.045 180.456 105.381C181.768 106.98 182.236 109.289 181.746 111.703L179.497 122.371C178.57 126.445 174.443 129.877 170.474 129.877H147.389L150.482 115.211H163.594L162.719 119.142H166.566L167.879 113.174H158.381C156.374 113.174 154.616 112.367 153.432 110.896C152.021 109.145 151.538 106.656 152.104 104.075L154.096 94.5469C155.061 90.043 159.92 87.3496 164.054 87.3496H185.518L182.553 101.458H170.391ZM151.885 101.458L154.858 87.3496H133.394C129.252 87.3496 124.401 90.043 123.435 94.5469L121.444 104.075C120.878 106.663 121.368 109.145 122.771 110.896C123.956 112.359 125.706 113.166 127.713 113.166H137.219L135.906 119.134H132.058L132.934 115.203H119.829L116.736 129.87H139.814C143.782 129.87 147.909 126.445 148.837 122.363L151.085 111.695C151.576 109.281 151.108 106.973 149.795 105.373C148.701 104.038 147.087 103.298 145.238 103.298H135.227L136.366 97.8967H140.478L139.731 101.45H151.885V101.458ZM116.593 129.885L118.886 119.149H115.831L116.328 87.3572H96.0794L83.6161 119.27H80.4173L78.1992 129.885H93.8613L97.2865 120.039H102.273L101.277 129.885H116.593ZM100.387 110.601L103.443 101.933L103.013 110.601H100.387ZM78.1163 129.892L81.0359 116.539H77.4146L83.5256 87.4402L87.0186 87.4251L89.8025 73.9961H70.6398L53.7479 95.837L45.6528 73.9961H26.3166L23.5328 87.4326H27.2446L21.0205 116.546H17.5048L14.5625 129.892H34.7663L40.2511 104.355C42.786 110.285 45.4416 116.275 47.9614 121.941L48.7309 123.661L63.5858 104.543L58.1991 129.892H78.1163Z" fill="white"/>
<path fill-rule="evenodd" clip-rule="evenodd" d="M25.3932 72.8711H46.4366L54.097 93.5392L70.0818 72.8711H91.1886L87.9368 88.5575L84.4413 88.5726L78.8044 115.414H82.4376L81.8404 118.145H82.8408L95.3041 86.2322H117.474L116.976 118.024H118.077L118.909 114.078H125.8C124.258 113.703 122.902 112.864 121.889 111.613L121.886 111.609C120.233 109.546 119.712 106.701 120.335 103.845C120.335 103.843 120.336 103.841 120.336 103.84L122.325 94.3213L122.327 94.3156C122.884 91.7151 124.554 89.6862 126.592 88.3247C128.625 86.9671 131.091 86.2246 133.391 86.2246H156.248L155.502 89.7651C156.038 89.2238 156.629 88.7427 157.256 88.3246C159.289 86.9672 161.755 86.2246 164.051 86.2246H186.908L183.468 102.594H178.367C179.519 103.001 180.534 103.702 181.327 104.669C182.898 106.584 183.394 109.259 182.851 111.934L182.849 111.942L180.599 122.618L180.597 122.627C180.07 124.943 178.65 127.026 176.846 128.527C175.045 130.025 172.773 131.014 170.471 131.014H145.992L146.592 128.169C146.459 128.29 146.323 128.408 146.186 128.522C144.384 130.02 142.112 131.006 139.811 131.006H117.507L117.504 131.021H100.024L101.019 121.176H98.0873L94.6621 131.021H79.0251L79.0234 131.029H56.7999L61.4527 109.133L48.465 125.848L46.9263 122.408L46.9253 122.406C44.8656 117.775 42.7133 112.922 40.6096 108.062L35.677 131.029H13.1523L16.5932 115.421H20.1029L25.8436 88.569H22.1407L25.3932 72.8711ZM79.5256 118.145H79.4954L78.8447 121.259L77.203 128.767H59.5923L65.7129 99.9648L48.9908 121.485C48.9908 121.485 48.9909 121.485 48.9908 121.485C46.4712 115.82 43.8188 109.837 41.2878 103.916L39.8895 100.645L33.8497 128.767H15.9666L18.4104 117.683H21.932L28.6396 86.3076H24.9187L27.2341 75.1325H44.863L53.3928 98.1462L71.1917 75.1325H88.4103L86.0944 86.304L82.6038 86.3191L76.0188 117.675H79.6283L79.5256 118.145ZM79.5876 128.76H93.0545L96.4797 118.914H103.521L102.525 128.76H115.675L117.485 120.286H114.679L115.177 88.4936H96.8487L84.3854 120.406H81.346L81.056 121.733L79.5876 128.76ZM118.127 128.745H139.811C141.478 128.745 143.254 128.018 144.74 126.783C146.221 125.552 147.327 123.886 147.73 122.126C147.73 122.124 147.731 122.121 147.732 122.118L149.974 111.476C149.975 111.474 149.975 111.473 149.975 111.471C150.411 109.32 149.971 107.379 148.918 106.096L148.918 106.095C148.053 105.04 146.769 104.435 145.235 104.435H133.83L135.446 96.7717H141.868L141.121 100.325H150.966L153.461 88.486H133.391C131.549 88.486 129.518 89.0902 127.848 90.2053C126.186 91.3158 124.947 92.8845 124.539 94.7865C124.538 94.7876 124.538 94.7886 124.538 94.7897L122.547 104.313L122.545 104.323C122.039 106.639 122.498 108.755 123.649 110.192C124.604 111.371 126.021 112.041 127.71 112.041H138.622L136.812 120.27H130.645L131.52 116.34H120.743L118.127 128.745ZM150.751 102.586H147.707C148.858 102.993 149.874 103.694 150.666 104.661C150.695 104.696 150.723 104.732 150.751 104.767V102.586ZM152.301 111.286C152.271 111.499 152.234 111.713 152.19 111.926L152.189 111.934L151.735 114.086H156.468C154.923 113.71 153.562 112.869 152.548 111.61C152.462 111.504 152.38 111.396 152.301 111.286ZM164.951 114.31L164.126 118.017H165.654L166.47 114.31H164.951ZM151.396 116.347L148.78 128.752H170.471C172.138 128.752 173.914 128.024 175.4 126.788C176.881 125.556 177.988 123.889 178.39 122.134C178.391 122.131 178.391 122.128 178.392 122.125L180.635 111.483C180.635 111.482 180.635 111.48 180.636 111.479C181.071 109.327 180.632 107.387 179.579 106.104L179.578 106.103C178.714 105.048 177.43 104.442 175.896 104.442H164.49L166.106 96.7792H172.528L171.781 100.333H181.632L184.122 88.486H164.051C162.213 88.486 160.182 89.0901 158.511 90.2054C156.847 91.3163 155.608 92.885 155.199 94.7865C155.199 94.7876 155.198 94.7886 155.198 94.7897L153.206 104.318L153.205 104.323C152.698 106.635 153.153 108.757 154.309 110.192C155.263 111.377 156.687 112.049 158.378 112.049H169.283L167.472 120.278H161.306L162.181 116.347H151.396ZM138.422 102.173L139.082 99.0331H137.28L136.618 102.173H138.422ZM169.082 102.181L169.742 99.0406H167.941L167.278 102.181H169.082ZM134.291 114.303L133.466 118.009H134.994L135.809 114.303H134.291ZM104.954 94.2423L104.086 111.738H98.7868L104.954 94.2423Z" fill="#881C1C"/>
<path d="M166.023 79.2508L166.137 78.7227H168.83L168.717 79.2508H167.683L167.117 81.8837H166.491L167.057 79.2508H166.023ZM170.271 78.7227L170.595 80.986L171.893 78.7227H172.791L172.112 81.8762H171.531L172.074 79.3262L170.656 81.8762H170.15L169.818 79.3262L169.268 81.8762H168.687L169.366 78.7227H170.271Z" fill="black"/>
</svg>
