<svg width="200" height="200" viewBox="0 0 200 200" fill="none" xmlns="http://www.w3.org/2000/svg">
<g clip-path="url(#clip0_154_2361)">
<path d="M104.295 108.643C104.295 108.643 103.135 118.85 104.295 126.839C104.295 126.839 102.372 127.955 108.093 129.102C113.798 130.247 119.017 130.309 119.017 130.309C119.017 130.309 114.465 120.917 116.002 112.076C116.002 112.076 122.156 110.096 123.217 107.117C124.278 104.139 126.857 103.94 126.857 103.94L127.714 98.935L133.009 95.905L135.148 95.4264L135.707 92.4585C135.707 92.4585 133.04 87.2296 131.835 80.8971L134.846 77.1835L134.301 73.1593C134.301 73.1593 121.659 68.9947 111.921 69.4852C102.184 69.9763 93.0457 70.0624 86.8677 72.5659C86.8677 72.5659 86.0658 74.5724 86.0431 78.556C86.0204 82.5402 88.5139 88.8164 88.5139 88.8164L101.031 93.0582C101.031 93.0582 102.538 96.7323 106.067 98.848C109.596 100.963 104.295 108.643 104.295 108.643Z" fill="white"/>
<path d="M72.98 106.237C89.6027 99.1854 109.144 108.441 123.214 110.7C123.621 110.765 124.124 103.235 124.526 103.304C141.251 106.172 150.768 110.41 150.768 110.41L147.344 119.365L154.918 122.184L159.156 131.136C159.156 164.854 114.212 180.609 114.212 180.609C114.212 180.609 54.5296 170.067 42.8984 136.028L68.3213 138.72L72.3282 105.156" fill="black"/>
<path d="M125.171 105.866L126.635 103.736L123.214 107.119L121.629 115.077L115.686 115.278L120.262 130.983L123.848 133.8C123.848 133.8 123.105 158.513 130.76 164.855C130.76 164.855 140.869 150.966 155.723 131.999L143.187 121.418C143.187 121.418 145.252 117.15 146.804 111.772C146.804 111.772 136.047 107.296 125.171 105.866Z" fill="#A89968"/>
<path d="M145.547 122.052L143.921 126.565L148.951 126.066C148.951 126.066 142.9 147.352 128.102 161.276L132.346 167.066C132.346 167.066 155.726 151.163 155.726 131.991L152.517 124.802L145.547 122.052Z" fill="#002855"/>
<path d="M117.879 113.944C117.879 113.944 118.459 125.774 122.223 131.906C122.223 131.906 111.675 132.01 104.152 129.001L105.012 108.105L117.199 110.147L117.879 113.944Z" fill="black"/>
<path d="M134.129 36.5133C134.129 36.5133 129.47 25.3796 123.653 20.6982C123.653 20.6982 92.851 18.8794 73.7793 47.2268L76.3205 58.4062C76.3205 58.4062 121.459 47.8978 134.129 36.5133Z" fill="#002855"/>
<path d="M128.686 29.4253C128.686 29.4253 128.025 25.5834 123.138 21.6912C119.866 21.9625 94.5097 21.3972 75.6861 46.7973L76.2776 52.7007L75.0234 53.7852L72.9082 46.6784C72.9082 46.6784 91.7416 17.8204 124.133 19.464C124.133 19.464 128.057 21.888 131.96 30.2562L128.686 29.4253Z" fill="black"/>
<path d="M61.9871 79.6548C61.9871 79.6548 83.4762 57.1534 100.541 59.2019C117.606 61.2501 140.235 64.2144 147.915 61.5411C155.596 58.8685 161.968 51.0261 159.065 41.6563L151.092 41.4867L145.202 43.3114C145.202 43.3114 141.809 36.1473 146.032 25.1562C146.032 25.1562 129.4 23.5608 121.064 27.9035C121.064 27.9035 117.989 30.7638 120.082 36.5705C120.082 36.5705 115.154 34.8693 112.794 29.1457C112.794 29.1457 62.044 39.5878 51.2891 82.5285C51.2891 82.5285 53.5579 84.1732 61.9871 79.6548Z" fill="#002855"/>
<path d="M98.9826 57.4852L105.748 76.9531L99.9434 74.7919C99.9434 74.7919 107.337 73.0878 110.912 67.5793C110.912 67.5793 97.5107 58.7726 74.8678 71.2218L74.2422 71.5343" fill="#211D1D"/>
<path d="M98.5585 65.5841V67.1928C96.7856 67.1175 92.0248 66.9971 87.86 67.6328L78.874 69.1874C78.874 69.1874 81.2987 73.564 78.2776 81.2517C73.9828 92.1819 77.0207 99.9403 71.0391 106.458C71.0391 106.458 74.9023 110.215 76.1523 105.447C76.1523 105.447 75.5129 102.901 83.2507 107.981C83.2507 107.981 82.6189 107.042 82.6225 104.541C82.6225 104.541 85.8482 112.435 97.8759 115.953C97.8759 115.953 94.5838 112.67 92.903 106.731C92.903 106.731 94.2458 108.795 96.6818 110.498C96.6818 110.498 97.2526 113.192 97.3196 108.802C102.018 118.996 107.458 117.582 107.458 117.582L106.53 113.558C108.766 120.11 115.73 122.153 115.73 122.153C115.074 121.116 114.817 119.547 114.722 118.252C115.73 122.154 121.963 122.695 121.963 122.695C120.477 121.689 120.064 120.35 120.064 120.35C127.076 124.046 131.729 122.018 131.729 122.018C128.719 121.776 127.336 120.151 127.336 120.151C135.974 122.462 139.53 117.84 139.53 117.84C133.927 118.696 129.59 114.172 129.59 114.172C130.91 114.642 132.609 114.393 132.609 114.393C127.867 111.428 126.263 107.616 125.764 105.957L127.827 105.19L128.549 99.9463L126.174 99.8267L125.314 102.733L120.598 103.692C120.598 103.692 122.054 106.319 119.221 107.029C116.387 107.738 114.848 105.55 113.887 102.312C112.926 99.0744 104.66 92.9915 104.66 92.9915L101.974 85.6684C104.379 80.7838 104.675 77.344 104.675 77.344C104.851 80.417 104.244 83.5909 104.244 83.5909C108.6 77.4449 110.792 67.0171 110.792 67.0171L98.5585 65.5841ZM92.0151 73.7968C94.8706 74.0735 97.3196 77.0638 97.3196 77.0638L97.1985 79.5176L96.3901 79.1222C96.1768 80.02 95.898 81.3676 95.7428 82.8307L95.7061 84.5065V85.6752L95.6949 86.2491C95.6991 86.2884 95.7015 86.3281 95.7061 86.3671L95.6917 86.3735L95.6391 89.0059C95.6391 89.0059 94.5216 89.497 92.6066 89.54C90.6916 89.5824 89.7717 88.8544 89.7717 88.8544C89.4562 86.9262 88.4532 85.0996 88.4532 85.0996C86.6589 82.6887 86.0425 78.5594 86.0425 78.5594C88.1248 75.1093 92.0151 73.7968 92.0151 73.7968Z" fill="black"/>
<path d="M69.1373 51.6198C69.1373 51.6198 62.8545 54.7573 55.683 54.4794C55.683 54.4794 55.9196 53.4117 55.8342 52.5052C55.8342 52.5052 55.2546 53.6877 54.1182 54.5015L48.1639 54.4994C48.1639 54.4994 48.379 54.093 48.5404 53.4376C48.5404 53.4376 47.9435 54.0721 46.5966 54.0512C46.5966 54.0512 30.1557 55.7087 18.1719 65.1719C18.1719 65.1719 19.2062 52.1171 33.5875 43.2941C33.5875 43.2941 32.4062 43.4889 31.1556 43.8086C31.1556 43.8086 43.8839 31.3394 55.983 31.2055L53.6097 29.9459C53.6097 29.9459 79.9348 20.6749 94.0628 34.7487C94.0628 34.7487 75.459 48.1651 69.1373 51.6198Z" fill="black"/>
<path d="M21.181 61.1406C21.181 61.1406 29.1865 54.7335 41.3629 52.9535C42.8925 52.7301 44.375 52.5998 45.8168 52.5251C46.3808 52.4965 46.9318 52.3506 47.427 52.08C48.4732 51.5099 49.4579 50.8468 50.2562 50.0831C50.2562 50.0831 50.3572 50.9262 49.9252 52.4361C51.3891 52.4394 52.8129 52.469 54.2045 52.4834C55.2185 51.5608 56.383 50.3066 57.253 48.7931C57.253 48.7931 57.6534 50.3048 57.1401 52.4726C62.3875 52.3561 67.6515 51.5435 72.5405 47.5419L72.7831 47.4977C80.0446 45.5695 92.7485 35.8742 92.7485 35.8742C92.7485 35.8742 84.0744 27.3692 64.6197 29.7664C62.4544 30.0335 60.7497 30.4398 58.6105 30.9621L60.3296 31.9396C52.4945 32.1792 43.1442 36.4824 36.9357 41.9622L40.9056 41.2661C40.9056 41.2661 27.2075 45.5874 21.1797 61.1401" fill="#A89968"/>
<path d="M84.408 41.6588C84.0226 41.9043 83.6318 42.1499 83.2363 42.3943C82.5121 42.8968 81.7778 43.4041 81.041 43.9102C82.1643 43.2326 83.2906 42.4846 84.408 41.6588Z" fill="#7E6957"/>
<path d="M83.2325 42.401C79.6701 44.604 75.7684 46.7073 72.7849 47.4996L72.5424 47.5432C72.2818 47.7565 72.0201 47.9609 71.7578 48.1562C74.6594 47.202 77.8376 45.8462 81.0366 43.9169C81.7739 43.4108 82.5083 42.9035 83.2325 42.401Z" fill="#563E2E"/>
<path d="M73.6668 33.7237C71.349 33.7237 68.84 33.9113 66.1841 34.3756L67.9534 35.4242C67.4192 35.4074 66.8952 35.3991 66.3783 35.3991C53.6631 35.3997 46.1877 40.3327 46.1877 40.3327L48.9004 41.0342C48.9004 41.0342 45.684 41.7435 43.2891 42.6451C35.0189 45.7772 30.6784 49.2764 24.6582 56.7188C24.6582 56.7188 34.4706 50.6462 44.9164 50.2847C45.3048 50.2715 45.6853 50.1993 46.0468 50.0577C47.2322 49.5922 49.9408 48.3458 51.6771 46.1063C51.6771 46.1063 52.3965 48.3182 51.8373 50.6068L53.4368 50.609C53.4368 50.609 56.128 48.5231 57.3362 45.6167C57.3362 45.6167 59.3892 47.2228 59.2333 50.4135H59.2907C59.8888 50.4135 65.0902 50.3477 71.7599 48.1549C72.0229 47.9595 72.284 47.7557 72.5445 47.5424L72.7876 47.4982C75.7711 46.7059 79.6728 44.6026 83.2352 42.3996C83.6301 42.1552 84.0209 41.9096 84.4064 41.6646C86.218 40.325 88.0069 38.7805 89.7254 37.0004C89.7254 37.0004 83.3575 33.7237 73.6668 33.7237Z" fill="#907258"/>
<path d="M115.963 71.7864C115.239 71.7876 114.461 71.823 113.621 71.8964C113.621 71.8964 118.652 72.5023 121.762 75.5507C119.216 75.0189 117.609 74.9768 117.609 74.9768C117.609 74.9768 116.585 77.8825 118.291 81.0738C119.998 84.2651 123.204 85.8696 126.754 85.5876C130.304 85.3061 131.756 79.1733 131.756 79.1733C131.489 79.032 131.223 78.897 130.959 78.7651V78.7635C130.959 78.7635 130.926 78.7481 130.92 78.746C130.84 78.7059 130.76 78.6673 130.68 78.628C130.251 78.4077 129.245 77.8431 127.139 76.4341C124.839 74.8962 122.96 71.7749 115.963 71.7864ZM128.165 94.1387C125.389 94.1379 123.669 95.2811 121.46 95.993C116.145 97.7054 114.308 94.6888 114.308 94.6888C114.308 94.6888 114.498 98.1257 120.582 99.3381L128.104 100.837C128.104 100.837 131.02 101.384 132.368 100.397C134.19 99.0607 132.749 94.9966 132.749 94.9966C130.906 94.3756 129.426 94.1391 128.165 94.1387Z" fill="black"/>
<path d="M161.004 31.4171C161.004 31.4171 158.856 38.0705 149.902 38.947C149.902 38.947 149.516 40.6762 147.467 40.8877C147.467 40.8877 144.302 32.8709 152.862 23.1112C152.862 23.1112 132.663 22.1163 119.166 26.4118C119.166 26.4118 118.108 31.3921 118.48 33.9727C118.48 33.9727 115.303 31.9047 114.287 27.6032C114.287 27.6032 60.3556 37.5303 45.543 86.6797C45.543 86.6797 62.7741 85.2815 74.2355 77.6745C74.2355 77.6745 77.8367 68.8666 92.7782 63.4104C108.141 57.801 121.407 60.2114 132.89 63.904C132.89 63.904 142.786 69.7453 153.381 61.3329C163.976 52.9205 163.168 38.9361 161.004 31.4171ZM144.66 59.6001C132.453 61.2713 122.055 54.0605 107.313 56.5748C107.313 56.5748 109.839 54.4244 116.273 53.3184C116.273 53.3184 88.5346 46.4226 59.9618 78.9579C59.9618 78.9579 55.9161 81.3766 51.3791 82.4156C51.3791 82.4156 56.2154 67.4299 70.8525 52.9122C85.4877 38.3946 112.052 31.5101 112.052 31.5101C112.052 31.5101 115.06 35.4973 120.581 37.2164C120.581 37.2164 119.703 34.3286 121.506 28.4426C121.506 28.4426 131.842 25.8841 143.136 27.0378C143.136 27.0378 136.455 45.0592 150.147 48.8318C150.147 48.8318 148.937 47.4042 149.201 45.2372C149.201 45.2372 153.394 45.5407 155.637 42.9421C155.637 42.9421 156.867 57.9282 144.66 59.6001Z" fill="black"/>
<path d="M80.6752 68.6439C106.244 50.9011 138.724 64.1064 138.724 64.1064L135.796 73.1641C109.328 65.4974 88.0887 71.9134 80.5969 73.1641C80.5969 73.1641 79.8518 71.4725 78.873 69.8575L80.6752 68.6439Z" fill="#A89968"/>
<path d="M65.5573 100.827L67.3772 116.764L45.5049 128.108L42.9004 136.022C42.9004 136.022 46.6342 139.592 63.0726 151.716C83.7552 166.968 113.139 179.117 113.139 179.117L123.941 172.268L132.587 167.233C126.55 148.643 124.816 129.957 124.816 129.957C124.816 129.957 111.411 130.065 111.23 129.421C109.086 121.766 112.571 106.238 112.571 106.238C79.9448 108.104 65.5573 100.827 65.5573 100.827Z" fill="black"/>
<path d="M121.144 134.123C122.748 147.559 123.443 153.925 129.066 169.287C129.066 169.287 116.381 175.977 113.538 176.617C113.538 176.617 63.1254 168.586 46.6387 136.393L48.7174 129.74L69.8833 118.562L67.6373 103.502C85.2026 110.917 108.75 108.625 108.75 108.625C108.75 108.625 106.668 117.751 107.659 130.4C107.659 130.4 95.144 131.907 81.3023 125.635C81.3023 125.635 90.1634 134.041 119.065 134.086L121.144 134.123Z" fill="#002855"/>
<path d="M146.178 120.528L143.918 126.567L148.948 126.069C148.948 126.069 143.408 148.594 129.884 161.352L128.463 158.509C128.463 158.509 139.307 147.943 145.229 129.641L139.47 130.224L143.837 119.978L146.178 120.528Z" fill="black"/>
<path d="M117.738 146.019C117.434 144.214 116.214 142.915 115.012 143.117C114.818 143.15 113.906 143.175 113.619 143.223C112.418 143.426 111.69 145.053 111.995 146.858C112.299 148.663 113.519 149.963 114.72 149.76C114.914 149.728 115.826 149.703 116.114 149.654C117.315 149.452 118.042 147.825 117.738 146.019Z" fill="#B17148"/>
<path d="M112.013 146.854C111.708 145.049 112.436 143.422 113.637 143.219C114.838 143.017 116.058 144.316 116.362 146.121C116.667 147.926 115.939 149.554 114.738 149.757C113.537 149.959 112.317 148.66 112.013 146.854Z" fill="#A89968"/>
<path d="M122.068 163.989C121.402 162.284 119.942 161.261 118.807 161.704C118.625 161.776 117.737 161.987 117.465 162.093C116.331 162.536 115.951 164.278 116.618 165.983C117.284 167.688 118.743 168.711 119.878 168.268C120.061 168.196 120.948 167.985 121.22 167.879C122.355 167.436 122.734 165.694 122.068 163.989Z" fill="#B17148"/>
<path d="M116.637 165.983C115.971 164.277 116.35 162.536 117.485 162.093C118.619 161.649 120.079 162.673 120.746 164.377C121.412 166.083 121.032 167.824 119.898 168.268C118.763 168.711 117.303 167.688 116.637 165.983Z" fill="#A89968"/>
<path d="M155.636 42.9427C155.636 42.9427 154.772 47.5371 151.074 48.3843C151.074 48.3843 152.385 49.001 154.08 48.3843C154.08 48.3843 151.145 59.6987 137.205 56.3532C126.828 53.8627 121.561 54.1577 121.561 54.1577C121.561 54.1577 124.691 52.8945 130.377 52.3066C130.377 52.3066 127.116 47.6147 115.689 46.1394C108.478 45.2079 76.8101 47.0049 64.503 65.8991C61.2215 70.9367 55.9105 73.1876 54.5094 71.2259C53.5988 69.9508 49.2127 82.647 51.1452 83.2761C52.8876 83.8449 58.4706 81.3522 59.9591 80.218C59.9591 80.218 71.1113 68.8797 83.5098 64.392C95.9083 59.9041 112.027 56.9998 123.175 59.8368C134.323 62.6738 160.755 66.0737 155.661 43.0061L155.636 42.9427ZM67.6308 103.503L69.8773 118.561C69.8773 118.561 84.2568 131.093 103.429 130.521C103.429 130.521 95.2552 124.401 90.7548 118.709H99.8987L88.4319 110.49L87.9377 108.336C87.9377 108.336 77.3553 107.486 67.6317 103.502L67.6308 103.503ZM52.2021 129.111C49.8492 129.14 48.7119 129.74 48.7119 129.74L46.6328 136.394C56.6065 156.478 79.4636 165.536 79.4636 165.536C79.4636 165.536 73.5541 142.452 67.6648 137.019C64.6384 134.226 57.0222 131.907 57.0222 131.907H62.9836C58.1223 129.623 54.555 129.081 52.2021 129.111ZM151.424 129.986L146.699 130.343C146.699 130.343 142.001 147.157 130.52 160.716L132.586 167.234C132.586 167.234 156.307 150.36 155.724 132.441L150.57 133.034L151.424 129.986ZM104.978 142.076C104.703 163.179 109.826 175.944 109.826 175.944L113.531 176.617L114.861 176.184C106.874 163.694 104.978 142.076 104.978 142.076Z" fill="#00254A"/>
<path d="M138.264 62.3385C137.895 62.3693 137.59 62.474 137.59 62.474C137.59 62.474 137.34 63.8937 137.006 64.9788C136.672 66.0639 136.714 67.1291 135.232 66.8889C133.749 66.6487 127.154 65.6214 121.966 66.2512C121.966 66.2512 133.772 68.6532 134.846 69.2374C135.92 69.8218 135.946 71.1658 135.372 72.0197C134.798 72.8735 130.354 70.4884 119.556 69.153C110.831 68.0745 94.2868 68.1689 81.1504 72.9939L82.8421 73.4706C82.8421 73.4706 96.5804 69.8727 112.243 70.3902C122.887 70.7414 129.27 72.3945 132.76 73.3845L133.677 77.3625L132.499 78.9012C131.601 80.0747 130.667 80.9516 130.667 80.9516C130.667 80.9516 131.231 87.3692 134.329 92.7242L133.655 94.8336L126.41 93.2806L126.144 89.1081L124.278 93.5006L125.021 95.1412L132.974 97.2617L136.099 96.5697L136.88 92.9615C134.298 89.3603 132.867 81.4502 132.867 81.4502C134.847 78.8313 136.024 77.5152 136.024 77.5152C135.697 75.8942 135.472 74.85 135.299 74.0697C135.559 74.1227 135.774 74.1529 135.921 74.1383C137.34 73.9955 138.342 72.0744 137.674 69.1526C137.674 69.1526 139.302 65.5643 139.532 63.6439C139.675 62.4437 138.88 62.287 138.264 62.3385Z" fill="black"/>
<path d="M80.7188 69.7505C80.7188 69.7505 87.6995 64.8718 96.9028 62.9144C96.9028 62.9144 85.485 67.0038 81.1672 70.7812L80.7188 69.7505Z" fill="black"/>
<path d="M82.3728 71.8398C82.3728 71.8398 85.8091 69.402 92.0065 67.6424C92.0065 67.6424 86.2053 68.3062 81.7227 70.9688L82.3728 71.8398Z" fill="black"/>
<path d="M81.2632 68.2388L78.6005 70.0134L79.8298 69.8587L80.6939 70.7325L81.0017 70.2972L81.3572 70.8648L81.9551 71.2347H81.3572L82.1018 72.6793L82.8353 72.4178C82.4403 71.7361 83.3455 71.2348 83.3455 71.2348H82.18L82.9915 70.2877C82.1824 70.6671 82.0181 70.6525 81.944 70.4679C81.8699 70.2826 82.6949 69.6165 82.6949 69.6165L81.2472 69.9481L81.944 68.9627C81.944 68.9627 81.1496 69.4389 80.5998 69.2274C80.2778 68.9502 81.2632 68.2388 81.2632 68.2388ZM73.7917 72.566C73.6405 72.5747 73.4843 72.7392 73.3214 73.1942C73.3214 73.1942 73.4227 73.9277 72.8861 74.4076C72.3495 74.8874 73.9587 74.6629 74.809 75.0214C75.6586 75.3788 74.8823 73.5891 74.5124 73.2102C74.2809 72.9734 74.0438 72.5522 73.7917 72.566ZM74.2525 98.8498C69.5089 98.8859 66.0515 99.2941 65.6125 100.357C64.3111 103.504 83.4031 106.316 83.4031 106.316L106.896 101.088C106.896 101.088 86.3745 98.7575 74.2525 98.8498Z" fill="#100F0D"/>
<path d="M54.5298 90.1716C54.5298 90.1716 47.1475 91.8566 43.5234 89.785C43.5234 89.785 44.9635 94.9505 49.0373 95.125C49.0373 95.125 53.906 93.5158 54.5298 90.1716Z" fill="black"/>
<path d="M58.3287 89.4402C58.7273 89.1534 52.9762 93.3383 45.8203 91.6062C45.8203 91.6062 48.962 96.455 55.8095 95.2151L58.3287 89.4402Z" fill="#A89968"/>
<path d="M81.1541 73.8355C81.1541 73.8355 81.4678 90.0054 65.5828 95.9886C49.697 101.97 42.523 97.2971 38.4512 93.4779C38.4512 93.4779 47.3243 95.5518 53.3128 91.0143C59.3011 86.4768 65.3292 72.7817 78.2317 73.3162L81.1541 73.8355Z" fill="black"/>
<path d="M79.7287 74.6949C79.7287 74.6949 79.4335 79.1906 77.1038 83.3409C74.7747 87.4906 70.0148 94.0513 59.4285 96.4349C48.1892 98.9659 42.3203 95.1173 42.3203 95.1173C42.3203 95.1173 46.7073 96.6941 52.579 93.4478C57.6376 90.6509 60.2661 85.5475 64.9155 80.8077C69.1095 76.5331 73.2842 74.3227 79.7287 74.6949Z" fill="#A89968"/>
<path d="M82.1229 71.8656C82.1229 71.8656 82.5836 75.0187 79.694 75.3359C79.694 75.3359 76.8977 74.368 76.6556 72.7189C76.3168 70.4107 78.4111 69.9219 79.878 69.8491C79.878 69.8491 81.6347 69.4009 82.1229 71.8656Z" fill="#A89968"/>
<path d="M80.6869 75.0635C80.6869 75.0635 79.768 75.4388 79.2738 73.9312C78.978 73.0284 78.5156 73.636 77.4938 73.4538C76.6112 73.2967 76.6113 72.1644 76.6113 72.1644C76.6113 72.1644 76.2456 73.4527 76.9124 74.1445L77.005 74.23C76.4087 74.3578 75.8345 74.8102 75.8345 74.8102C75.8345 74.8102 76.631 74.9512 75.8443 76.1587C74.8327 77.7117 72.7324 77.9436 69.3757 80.4381C66.0189 82.9327 65.248 85.9961 65.248 85.9961C65.248 85.9961 67.046 82.2617 72.0161 79.7306C75.398 78.008 76.9372 76.6182 77.6291 75.7727C77.7331 76.0786 77.5951 76.5913 77.0896 77.662C76.5357 78.8355 75.0138 80.7016 72.9178 82.0142C72.9178 82.0142 74.8275 81.2423 76.4867 79.6929C76.4867 79.6929 77.6603 78.5093 78.2188 77.068C78.8719 75.383 80.0335 75.6657 80.0335 75.6657C80.0335 75.6657 79.9367 75.542 79.7861 75.3795C80.0992 75.3663 80.4169 75.2768 80.6869 75.0635Z" fill="black"/>
<path d="M118.238 75.0654C118.238 75.0654 109.212 74.0837 98.8617 71.2999L97.3242 71.6727C97.3242 71.6727 108.41 75.676 118.319 76.5L118.238 75.0654Z" fill="black"/>
<path d="M131.756 75.8033C131.756 75.8033 130.103 78.3124 130.862 82.4184C130.862 82.4184 132.226 81.9096 133.009 82.1713C133.009 82.1713 131.942 78.577 131.756 75.8033ZM68.7198 113.694L67.3789 116.767L71.1289 123.586L68.7198 113.694Z" fill="#100F0D"/>
<path d="M72.8598 103.691C68.2464 102.783 67.6315 101.919 67.6315 101.919C65.9627 99.9552 74.1934 100.436 74.1934 100.436C74.1934 100.436 73.8021 102.787 72.8598 103.691Z" fill="#A89968"/>
<path d="M196.094 153.356L200 136.662H171.225H172.254H170.587L169.39 137.969L168.513 136.662H43.9837L43.2338 138.385L41.0989 136.662H40.5665H40.9686H7.44018L17.3415 147.954L14.6856 160.625L6.23798 166.988H7.35833L0 172.766H32.6512L34.6134 171.685V171.729L35.4625 172.766H42.2646L44.0889 171.787L45.0951 172.766H84.9975L86.3126 171.877L87.7097 172.766H161.121L162.216 171.935L164.231 172.766H191.445L195.491 155.891L194.504 153.81H194.532L196.094 153.356ZM188.682 170.365L163.141 169.96L161.355 168.763L160.955 170.365H88.4726L86.6836 168.763L84.3127 170.365H45.551L45.7392 168.763L42.6095 170.365H36.8477L37.4147 167.185L33.4024 170.365H14.3023L13.571 170.364L7.69141 170.366L14.717 165.586H13.1467L16.9869 162.799L20.5146 147.548L13.1311 139.475H40.9823L43.9495 143.566L45.4212 139.509L166.435 139.476L168.137 143.566L171.518 139.475L172.468 139.475H196.098L193.075 152.076H189.543L192.388 154.94L188.682 170.365Z" fill="#A89968"/>
<path d="M4.84375 171.107L32.0549 171.433L35.3758 169.934L36.5804 171.469L42.3165 171.375L44.6498 170.364L45.7415 171.377H83.9906L86.2587 169.959L89.3813 171.562L159.803 171.377L162.219 169.554L165.09 171.107H189.541L193.306 155.865L191.762 153.132L194.794 152.073L197.921 138.068H171.428L169.113 140.42L167.416 138.068H44.6503L43.546 140.42L40.5567 138.068H10.9336L18.8877 147.463L16.0334 162.256L4.84375 171.107Z" fill="#002855"/>
<path d="M49.0016 140.683C47.8908 140.683 47.1154 141.525 47.1154 142.552V142.561C47.1154 143.599 47.9055 144.42 48.9697 144.42C49.6676 144.42 50.0819 144.172 50.4541 143.775L49.9471 143.264C49.6627 143.523 49.4087 143.687 48.9952 143.687C48.3756 143.687 47.9477 143.171 47.9477 142.552V142.541C47.9477 141.922 48.3858 141.415 48.9952 141.415C49.3573 141.415 49.6425 141.57 49.9216 141.823L50.427 141.24C50.0912 140.909 49.684 140.683 49.0016 140.683ZM81.8062 140.683C80.6895 140.683 79.8786 141.525 79.8786 142.552V142.561C79.8786 143.588 80.6796 144.42 81.795 144.42C82.9118 144.42 83.7227 143.579 83.7227 142.552V142.541C83.7227 141.514 82.9217 140.683 81.8062 140.683ZM97.457 140.683C96.3402 140.683 95.5294 141.525 95.5294 142.552V142.561C95.5294 143.588 96.3297 144.42 97.4458 144.42C98.562 144.42 99.3734 143.579 99.3734 142.552V142.541C99.3734 141.514 98.5731 140.683 97.457 140.683ZM73.7485 140.693C73.0094 140.693 72.4809 141.127 72.4809 141.782V141.793C72.4809 142.51 72.9525 142.712 73.6814 142.898C74.2861 143.053 74.4085 143.155 74.4085 143.357V143.367C74.4085 143.578 74.2128 143.706 73.8871 143.706C73.4736 143.706 73.1333 143.538 72.8077 143.269L72.3373 143.83C72.7717 144.218 73.3232 144.409 73.8712 144.409C74.6515 144.409 75.2009 144.006 75.2009 143.288V143.279C75.2009 142.649 74.7867 142.385 74.053 142.195C73.4273 142.034 73.2717 141.957 73.2717 141.719V141.71C73.2717 141.534 73.4325 141.396 73.7373 141.396C74.042 141.396 74.3577 141.529 74.678 141.751L75.0909 141.153C74.724 140.859 74.2761 140.693 73.7485 140.693ZM93.0292 140.693C92.2901 140.693 91.7632 141.127 91.7632 141.782V141.793C91.7632 142.51 92.2333 142.712 92.9623 142.898C93.5669 143.053 93.6909 143.155 93.6909 143.357V143.367C93.6909 143.578 93.4952 143.706 93.1695 143.706C92.7561 143.706 92.4142 143.538 92.0885 143.269L91.6182 143.83C92.0526 144.218 92.6057 144.409 93.1535 144.409C93.9339 144.409 94.4817 144.006 94.4817 143.288V143.279C94.4817 142.649 94.0674 142.385 93.3337 142.195C92.7081 142.034 92.554 141.957 92.554 141.719V141.71C92.554 141.534 92.7148 141.396 93.0196 141.396C93.3243 141.396 93.6384 141.529 93.9587 141.751L94.3732 141.153C94.0063 140.859 93.5568 140.693 93.0292 140.693ZM153.524 140.693C152.785 140.693 152.258 141.127 152.258 141.782V141.793C152.258 142.51 152.729 142.712 153.457 142.898C154.062 143.053 154.186 143.155 154.186 143.357V143.367C154.186 143.578 153.99 143.706 153.664 143.706C153.251 143.706 152.91 143.538 152.585 143.269L152.113 143.83C152.547 144.218 153.1 144.409 153.648 144.409C154.429 144.409 154.976 144.006 154.976 143.288V143.279C154.976 142.649 154.564 142.385 153.83 142.195C153.204 142.034 153.049 141.957 153.049 141.719V141.71C153.049 141.534 153.21 141.396 153.514 141.396C153.819 141.396 154.135 141.529 154.455 141.751L154.868 141.153C154.501 140.859 154.052 140.693 153.524 140.693ZM57.2858 140.718L55.736 144.358H56.546L56.8776 143.547H58.4067L58.7383 144.358H59.5706L58.0192 140.718H57.2858ZM51.6033 140.744V144.358H52.3989V142.907H53.8673V144.358H54.6629V140.744H53.8673V142.174H52.3989V140.744H51.6033ZM60.642 140.744V144.357H61.4392V143.201H62.0642L62.8391 144.357H63.7686L62.8853 143.067C63.3454 142.896 63.6602 142.531 63.6602 141.947V141.936C63.6602 141.596 63.5522 141.312 63.3509 141.11C63.113 140.873 62.757 140.744 62.297 140.744L60.642 140.744ZM64.8942 140.744V144.358H67.4931V143.634H65.6898V140.744L64.8942 140.744ZM68.6075 140.744V144.358H71.3611V143.65H69.3984V142.891H71.1028V142.185H69.3984V141.452H71.3356V140.744H68.6075ZM76.0709 140.744V141.477H77.171V144.358H77.9682V141.477H79.0683V140.744H76.0709ZM84.9453 140.744V144.358H85.7298V142.061L87.482 144.358H88.1597V140.744H87.3736V142.97L85.6788 140.744H84.9453ZM100.538 140.744V142.809C100.538 143.872 101.133 144.414 102.104 144.414C103.076 144.414 103.691 143.877 103.691 142.783V140.744H102.895V142.815C102.895 143.387 102.6 143.682 102.115 143.682C101.629 143.682 101.334 143.377 101.334 142.789V140.744L100.538 140.744ZM104.759 140.744V141.477H105.859V144.358H106.654V141.477H107.756V140.744H104.759ZM108.88 140.744V144.358H109.676V142.907H111.144V144.358H111.94V140.744H111.144V142.174H109.676V140.744H108.88ZM113.322 140.744V144.358H116.077V143.65H114.113V142.891H115.817V142.185H114.113V141.452H116.05V140.744H113.322ZM117.3 140.744V144.357H118.096V143.201H118.721L119.496 144.357H120.425L119.542 143.067C120.002 142.896 120.317 142.531 120.317 141.947V141.936C120.317 141.596 120.209 141.312 120.008 141.11C119.77 140.873 119.414 140.744 118.954 140.744L117.3 140.744ZM121.551 140.744V144.358H122.335V142.061L124.088 144.358H124.765V140.744H123.979V142.97L122.285 140.744H121.551ZM128.415 140.744V142.809C128.415 143.872 129.01 144.414 129.982 144.414C130.953 144.414 131.567 143.877 131.567 142.783V140.744H130.771V142.815C130.771 143.387 130.478 143.682 129.992 143.682C129.506 143.682 129.21 143.377 129.21 142.789V140.744L128.415 140.744ZM132.894 140.744V144.358H133.68V142.061L135.43 144.358H136.108V140.744H135.322V142.97L133.627 140.744H132.894ZM137.527 140.744V144.358H138.323V140.744H137.527ZM139.432 140.744L140.894 144.384H141.597L143.06 140.744H142.202L141.256 143.288L140.311 140.744H139.432ZM144.133 140.744V144.358H146.888V143.65H144.923V142.891H146.629V142.185H144.923V141.452H146.862V140.744H144.133ZM148.111 140.744V144.357H148.906V143.201H149.531L150.306 144.357H151.237L150.354 143.067C150.814 142.896 151.129 142.531 151.129 141.947V141.936C151.129 141.596 151.019 141.312 150.818 141.11C150.58 140.873 150.224 140.744 149.764 140.744L148.111 140.744ZM156.22 140.744V144.358H157.015V140.744H156.22ZM158.178 140.744V141.477H159.278V144.358H160.073V141.477H161.173V140.744H158.178ZM161.928 140.744L163.318 142.933V144.358H164.114V142.917L165.502 140.744H164.598L163.72 142.195L162.857 140.744H161.928ZM81.7941 141.417C82.4353 141.417 82.8896 141.932 82.8896 142.552V142.561V142.563C82.8896 143.183 82.4453 143.687 81.8054 143.687C81.1642 143.687 80.7085 143.171 80.7085 142.552V142.541C80.7085 141.922 81.1542 141.417 81.7941 141.417ZM97.4449 141.417C98.0854 141.417 98.5403 141.932 98.5403 142.552V142.561V142.563C98.5403 143.183 98.0967 143.687 97.4561 143.687C96.815 143.687 96.3607 143.171 96.3607 142.552V142.541C96.3607 141.922 96.8044 141.417 97.4449 141.417ZM61.438 141.463H62.2273C62.6151 141.463 62.8539 141.637 62.8539 141.978V141.989C62.8539 142.294 62.631 142.499 62.2432 142.499L61.438 142.501V141.463ZM118.095 141.463H118.886C119.274 141.463 119.511 141.637 119.511 141.978V141.989C119.511 142.294 119.289 142.499 118.902 142.499L118.095 142.501V141.463ZM148.906 141.463H149.696C150.084 141.463 150.321 141.637 150.321 141.978V141.989C150.321 142.294 150.099 142.499 149.712 142.499L148.906 142.501V141.463ZM57.6415 141.673L58.1215 142.845H57.16L57.6415 141.673ZM23.5242 142.632L22.3699 142.818L24.7441 144.994L20.2207 166.793H33.8731C33.9292 166.793 34.8879 165.973 36.7509 164.329L38.5812 155.606C38.5137 155.606 37.9418 155.325 36.8656 154.763C37.2672 154.459 37.965 154.144 38.9575 153.817L40.7863 145.094C39.6182 143.452 39.0006 142.631 38.9336 142.631L23.5242 142.632ZM173.588 142.632C173.555 142.778 173.946 143.566 174.76 144.994L174.003 148.317C173.726 149.532 173.349 151.333 172.872 153.717L178.188 156.568C180.923 157.907 182.27 158.66 182.231 158.829L181.469 162.153C181.441 162.277 181.365 162.34 181.241 162.34H175.364C175.173 162.34 173.874 161.648 171.464 160.264H171.38L169.891 166.793H185.805L188.444 155.337C188.459 155.27 188.331 155.14 188.059 154.948C182.148 151.732 179.178 150.055 179.153 149.921L179.759 147.271C179.782 147.17 179.857 147.109 179.987 147.086H185.875C186.067 147.086 187.37 147.778 189.781 149.162H189.866L191.369 142.631L173.588 142.632ZM30.1093 146.614H34.7634C34.887 146.614 34.9358 146.676 34.9101 146.799L34.0172 151.068C32.9465 151.821 32.2366 152.2 31.8871 152.2H29.8926C29.3518 152.2 28.9525 152.137 28.6968 152.013C29.1814 150.011 29.5232 148.526 29.7252 147.558L29.883 146.799C29.9045 146.698 29.9803 146.637 30.1093 146.614ZM140.804 147.461L140.787 147.542C141.382 148.685 141.732 149.287 141.836 149.35C139.543 159.447 138.233 165.233 137.906 166.709L137.888 166.79H149.262L150.396 161.715C147.61 162.975 146.18 163.604 146.109 163.604H143.148C143.067 163.604 143.03 163.555 143.033 163.456L144.162 158.381C144.182 158.292 144.242 158.237 144.345 158.219H149.663L150.439 154.736H145.12C145.039 154.736 144.999 154.687 145.004 154.588L145.847 150.795C145.865 150.714 145.927 150.665 146.031 150.647H153.03L153.741 147.461L140.804 147.461ZM42.9367 147.467L42.9064 147.616C43.5804 148.75 43.898 149.406 43.8598 149.586L40.2405 166.797H44.4162C44.5692 166.797 46.099 166.14 49.0065 164.826H49.0751L48.6574 166.797H54.4259L54.4578 166.649C53.7844 165.532 53.4689 164.876 53.5107 164.678L57.1603 147.467H51.3774L51.3598 147.549L52.4089 149.438L50.5977 158.01C50.4853 158.54 50.2872 159.345 50.0046 160.425C49.9418 160.425 48.4645 161.082 45.5737 162.396H45.4924L48.6397 147.468L42.9367 147.467ZM59.5311 147.467L60.4973 149.357L56.7887 166.796H68.8531L69.891 161.95H69.8097C67.4006 163.057 66.1476 163.61 66.0485 163.61H61.9397L61.8042 163.543C62.1997 161.941 62.4811 160.753 62.646 159.98L64.6039 150.801C64.6219 150.719 64.6807 150.67 64.7841 150.652H68.7382C68.9456 150.652 69.9699 151.206 71.809 152.312H71.9573L72.9969 147.467L59.5311 147.467ZM75.3114 147.467L76.2792 149.357L72.5706 166.796H84.6339L85.6734 161.95H85.5921C83.1829 163.057 81.9285 163.61 81.8294 163.61H77.7206L77.5867 163.543C77.9822 161.941 78.263 160.753 78.4285 159.98L80.3849 150.801C80.4022 150.719 80.4632 150.671 80.5666 150.652H84.5207C84.7281 150.652 85.7508 151.206 87.5899 152.312H87.7382L88.7778 147.467L75.3114 147.467ZM91.9047 147.467C91.8677 147.638 92.2141 148.268 92.9443 149.357C92.2189 152.452 91.6875 154.778 91.3499 156.335L89.0811 166.796H94.8496L94.8815 166.648L93.8962 164.907L94.8703 160.425C94.8877 160.344 94.9487 160.295 95.0521 160.277H98.8515C98.9507 160.277 98.9895 160.326 98.9679 160.425L97.5776 166.796H103.346C103.376 166.661 103.059 166.032 102.396 164.907L106.21 147.468H102.106C101.843 147.468 100.25 148.125 97.3274 149.439H97.2604L97.6893 147.468L91.9047 147.467ZM108.641 147.467L108.609 147.616C109.273 148.75 109.584 149.406 109.545 149.586L107.218 160.197C106.859 161.835 106.35 164.03 105.693 166.784H111.461L111.495 166.635L110.53 164.813L112.91 153.987C112.938 153.861 114.462 153.151 117.482 151.855L114.191 166.783H119.945L119.978 166.635C119.315 165.519 119.005 164.862 119.049 164.664L122.851 147.467H118.679C118.525 147.467 118.305 147.543 118.019 147.696C115.406 148.857 114.037 149.437 113.91 149.437L114.345 147.467L108.641 147.467ZM125.466 147.467L125.448 147.549C126.043 148.692 126.393 149.294 126.497 149.357C124.205 159.453 122.895 165.239 122.567 166.715L122.55 166.797H133.924L135.058 161.722C132.271 162.981 130.842 163.611 130.77 163.611H127.809C127.728 163.611 127.691 163.561 127.695 163.463L128.823 158.388C128.843 158.298 128.903 158.243 129.007 158.225H134.324L135.101 154.743H129.782C129.7 154.743 129.661 154.694 129.665 154.595L130.509 150.801C130.527 150.72 130.587 150.671 130.691 150.653H137.692L138.403 147.467L125.466 147.467ZM156.201 147.467L156.182 147.549C156.773 148.692 157.12 149.294 157.223 149.357C155.589 156.358 154.353 161.717 153.513 165.433L153.205 166.796H158.974L159.007 166.648C158.351 165.532 158.044 164.876 158.089 164.677L158.792 161.573C158.806 161.511 159.456 161.204 160.744 160.655C160.869 160.655 160.993 160.885 161.115 161.343C162.116 164.952 162.668 166.769 162.77 166.796H167.322L167.341 166.715C167.059 165.582 166.335 162.981 165.168 158.914C165.209 158.734 166.197 158.279 168.131 157.55L170.425 147.467L156.201 147.467ZM161.308 151.112H165.114C165.213 151.112 165.252 151.162 165.229 151.26L164.505 154.446C164.482 154.545 164.108 154.748 163.381 155.054C161.207 156.008 160.062 156.484 159.945 156.484L161.126 151.261C161.147 151.171 161.207 151.121 161.308 151.112ZM100.737 151.935H100.819L99.8269 156.484C99.8054 156.582 99.7443 156.632 99.6452 156.632H95.8441C95.7629 156.632 95.7245 156.582 95.7277 156.484L96.2698 153.987L96.3703 153.839C99.1368 152.569 100.593 151.935 100.737 151.935ZM27.8017 157.227H31.6745C31.7982 157.227 32.5054 158.329 32.4797 158.453L31.6075 162.625C31.5819 162.749 31.508 162.812 31.3843 162.812H26.7398C26.6383 162.812 26.5899 162.749 26.5931 162.625L26.7127 162.051C26.9493 160.916 27.2369 159.368 27.5769 157.412C27.5978 157.31 27.6727 157.249 27.8017 157.227Z" fill="white"/>
<path d="M90.1333 77.1864C90.1333 77.1864 88.0409 78.3889 88.185 79.8283C88.3296 81.2676 91.7258 85.3194 92.1423 87.0445C92.1423 87.0445 92.2105 84.9035 91.0167 82.9724C90.8433 82.6921 90.6866 82.4093 90.5511 82.1258C91.7723 83.2815 93.6745 83.5161 93.6745 83.5161C91.3639 82.0737 92.1725 79.8282 92.1725 79.8282C92.1725 79.8282 92.7506 79.4577 93.9057 79.7421C95.5231 80.1412 96.1878 79.2578 96.2398 79.2446C96.2398 79.2446 93.6863 77.798 92.7481 77.5195C92.316 77.3909 92.0148 77.3632 91.7675 77.4286L91.7835 77.3983L91.4821 77.3521H91.4806L91.4518 77.3489L90.8731 77.2612C90.8677 77.266 90.8625 77.2707 90.8571 77.2755L90.1333 77.1864ZM99.9006 78.2387L102.715 96.4549L113.889 102.313C110.978 92.7656 109.939 87.1485 109.939 87.1485L99.9006 78.2387ZM129.673 85.2955L129.674 91.4611L128.115 92.4688L126.151 88.5115L126.256 93.3728L132.981 95.2367L133.198 93.6853L129.673 85.2955ZM95.7068 86.3653L95.1408 87.9071L92.9054 88.0474L91.6809 87.3156L91.4019 87.7477L90.8423 87.3236L90.1024 87.2072L90.6637 88.6087L92.6249 89.4489L95.6398 89.0057L95.7068 86.3653ZM19.7224 142.086L24.0703 145.101H21.9354L23.7578 146.603L20.3697 162.933L18.3401 164.869H20.0445L15.3633 167.367H20.4478V167.364H33.7878C33.7878 167.364 34.0684 167.205 37.0356 164.76L37.1744 164.639L39.1531 155.21L37.97 154.76L39.3523 154.259L41.2975 144.983L39.22 142.086H22.9847H19.7224ZM170.559 142.086L173.311 144.43H171.43L173.812 146.316L173.381 148.207C173.102 149.431 172.72 151.252 172.248 153.62L172.166 154.025L177.865 157.083C180.331 158.29 181.221 158.805 181.541 159.019L180.904 161.795H175.349L170.955 159.29L169.113 167.364H186.17L188.909 155.476C189.018 155.009 188.57 154.694 188.303 154.505L188.248 154.471C182.293 151.231 180.314 150.09 179.7 149.704L180.167 147.657H185.736C185.923 147.723 186.645 148.062 189.426 149.658L190.148 150.096L191.993 142.086L170.559 142.086ZM22.7809 143.202H38.6211C38.7878 143.408 39.1847 143.928 40.1151 145.232L38.3995 153.405L35.7495 154.862L37.8653 155.953L37.7122 156.681H35.4003L32.0744 162.753L33.1091 157.797L31.9691 156.681H27.7215H24.5184L21.7808 161.664L25.2567 144.912L22.7809 143.202ZM174.336 143.204H190.594L189.406 148.36C186.215 146.542 186.005 146.541 185.801 146.541H179.913L179.818 146.55C179.468 146.611 179.213 146.84 179.14 147.161L178.509 149.923L178.531 150.037C178.6 150.401 178.618 150.5 187.689 155.436L187.764 155.492L187.345 157.311H184.886L182.195 161.181L182.702 158.968C182.82 158.455 182.861 158.282 178.379 156.09L173.427 153.435C173.86 151.273 174.212 149.599 174.473 148.454L175.278 144.919L175.171 144.731C174.757 144.005 174.499 143.523 174.336 143.204ZM28.1252 146.069L29.2588 146.697L29.0994 147.458C28.8986 148.424 28.0758 151.895 28.0758 151.895L27.8701 152.742H29.0739H30.1422H32.5082L34.4406 151.41L35.3781 146.927L34.6846 146.069H30.0305L28.1252 146.069ZM139.626 146.916L141.143 149.502C139.498 156.749 138.559 160.896 137.943 163.626L136 165.501H137.224L135.297 167.36H138.768H149.622L151.096 160.76L150.078 161.219C147.034 162.596 146.16 162.97 145.931 163.059H143.608L144.557 158.789H150.021L151.048 154.191H145.579L146.241 151.217H153.39L154.35 146.916H140.268L139.626 146.916ZM41.82 146.922L42.3382 147.914C43.0128 149.048 43.1711 149.443 43.2087 149.564L39.4667 167.366H44.328C44.4953 167.366 44.6534 167.367 48.22 165.766L47.8819 167.366H54.7905L55.3358 167.354L53.9837 164.736L57.7625 146.921H50.8364H50.3102L51.7324 149.539L49.9626 157.907C49.8628 158.379 49.6896 159.088 49.4476 160.022C49.0162 160.2 48.1263 160.597 46.1695 161.484L49.2403 146.921H42.3955L41.82 146.922ZM58.3633 146.922L59.3805 148.697H58.2438L59.6851 150.093L56.0116 167.367H69.2144L70.5266 161.252L65.8822 163.065H62.4127C62.7288 161.77 62.9603 160.778 63.1031 160.109L64.9989 151.223H68.599L72.255 153.189L73.5991 146.922H58.991L58.3633 146.922ZM74.1436 146.922L75.6009 149.462L72.538 163.862L70.8304 165.507H72.0581L70.1288 167.366H73.5999H84.997L86.3076 161.252L81.6647 163.066H78.1937C78.5104 161.771 78.7429 160.778 78.8857 160.109L80.7814 151.223H84.38L88.036 153.19L89.3801 146.921H74.7721L74.1436 146.922ZM90.6216 146.922L92.2574 149.478C91.5793 152.37 91.0771 154.574 90.7475 156.088H88.1869L89.7447 157.713H88.5394L89.9711 159.66L88.3001 167.367H95.2102L95.384 166.571L94.3987 164.83L95.2644 160.847H98.2189L96.7967 167.367H103.707L102.9 164.825L106.814 146.922H102.017C101.827 146.922 101.548 146.923 97.9447 148.524L98.2923 146.922L90.6216 146.922ZM107.524 146.922L108.894 149.559L106.585 160.09C106.232 161.702 105.72 163.915 105.062 166.667L104.898 167.354H111.823H112.411L111.032 164.746L113.324 154.32C113.591 154.17 114.368 153.787 116.614 152.812L113.407 167.354L120.963 167.367L120.37 166.363C119.698 165.232 119.552 164.843 119.52 164.728L123.458 146.922H118.592C118.344 146.922 118.055 147.013 117.687 147.208C116.121 147.904 115.169 148.316 114.59 148.56L114.951 146.922L107.524 146.922ZM124.287 146.922L125.805 149.508C123.521 159.565 122.255 165.16 121.934 166.606L121.763 167.367H134.284L135.757 160.766L134.74 161.225C131.695 162.602 130.821 162.977 130.593 163.065H128.269L129.218 158.796H134.682L135.707 154.197H130.24L130.902 151.224H138.049L139.011 146.922H124.929H124.286L124.287 146.922ZM155.134 146.922C155.622 147.868 156.359 149.246 156.53 149.505C154.93 156.356 153.704 161.678 152.881 165.323L152.418 167.367H159.33L159.939 167.361L159.4 166.377C158.734 165.247 158.591 164.859 158.56 164.744L159.198 161.932C159.363 161.848 159.713 161.683 160.449 161.364L160.489 161.505C162.552 167.03 162.432 167.076 162.54 167.348L167.679 167.367L167.999 167.361C167.722 166.249 166.82 162.973 165.721 159.134C166.014 158.978 166.689 158.67 168.238 158.086L168.519 157.979L171.036 146.922H155.664L155.134 146.922ZM30.289 147.185H34.1762L33.43 150.75L32.1736 151.654H29.8059C29.589 151.654 29.4154 151.643 29.2798 151.627C29.6956 149.898 30.0002 148.575 30.1854 147.686L30.289 147.185ZM141.583 148.032H152.957L152.494 150.101H145.941L145.844 150.109C145.516 150.167 145.281 150.384 145.214 150.688L144.371 154.479L144.358 154.578C144.347 154.842 144.454 155.012 144.545 155.106C144.67 155.236 144.842 155.307 145.031 155.307H149.653L149.208 157.305H142.124L139.527 161.688L142.38 149.097L141.583 148.032ZM43.6987 148.038H47.8633L44.7159 162.966H44.7143L45.9069 157.311H44.405L41.4011 163.583L41.4027 163.575L44.3172 149.714C44.3674 149.473 44.347 149.194 43.6987 148.038ZM52.1745 148.038H56.3837L54.4163 157.311H53.5186L50.2182 162.266L50.3458 160.996H50.3474L50.4558 160.579C50.7444 159.478 50.939 158.679 51.0537 158.137L52.9096 149.361L52.1745 148.038ZM60.2884 148.038H72.2178L71.47 151.527C69.0824 150.108 68.8533 150.108 68.6495 150.108H64.6954L64.5998 150.116C64.2717 150.173 64.0363 150.39 63.97 150.698L62.5589 157.311H61.0092L58.4311 161.351L60.9981 149.277L60.2884 148.038ZM76.0687 148.038H87.9981L87.2503 151.527C84.8627 150.109 84.6352 150.108 84.4315 150.108H80.4773L80.3801 150.117C80.0515 150.174 79.8166 150.392 79.7503 150.699L78.3392 157.311H76.791L74.2129 161.351L76.7799 149.277L76.0687 148.038ZM92.6664 148.038H96.9075L96.4787 150.009H97.3587L97.4672 149.961C101.061 148.345 101.864 148.075 102.043 148.038H105.426L103.481 156.932L100.168 156.889C100.221 156.809 100.261 156.718 100.283 156.616L101.423 151.389H100.648C100.466 151.389 100.31 151.39 96.0481 153.344L95.9062 153.41L95.6591 153.778L95.0931 156.378L95.0803 156.474C95.0705 156.738 95.1777 156.906 95.2684 157.002C95.3335 157.069 95.4103 157.121 95.4964 157.155L90.2238 163.756L91.8054 156.468C92.1412 154.919 92.677 152.574 93.3982 149.499L93.454 149.261L93.3185 149.058C93.0144 148.606 92.8074 148.276 92.6664 148.038ZM109.395 148.038H113.561L113.127 150.009H113.822C113.994 150.009 114.131 150.009 118.158 148.22L118.193 148.202C118.483 148.047 118.59 148.038 118.591 148.038H122.067L120.017 157.313H118.942L115.669 162.274L118.172 150.925L117.172 151.354C112.38 153.411 112.356 153.519 112.277 153.88L111.522 157.312H110.433L107.274 162.1C107.416 161.479 107.564 160.835 107.674 160.329L110.001 149.718C110.054 149.477 110.035 149.199 109.395 148.038ZM126.244 148.038H137.617L137.156 150.108H130.602L130.506 150.116C130.178 150.173 129.943 150.39 129.876 150.693L129.033 154.486L129.02 154.585C129.009 154.849 129.116 155.017 129.207 155.112C129.331 155.243 129.504 155.313 129.693 155.313H134.315L133.87 157.311H126.786L124.189 161.694L127.041 149.103L126.244 148.038ZM156.974 148.038H169.635L167.798 156.114L156.73 160.278L154.429 163.55C155.242 159.977 156.289 155.437 157.677 149.497L157.769 149.105L156.974 148.038ZM161.22 150.567L161.167 150.568C160.825 150.6 160.567 150.822 160.493 151.149L159.157 157.054H159.855C160.025 157.054 160.147 157.054 163.506 155.579C164.596 155.122 164.882 154.926 164.96 154.581L165.684 151.394C165.75 151.101 165.635 150.904 165.561 150.812C165.488 150.72 165.321 150.567 165.024 150.567L161.22 150.567ZM161.516 151.681H164.474L163.911 154.162C163.801 154.225 163.563 154.346 163.066 154.554C161.884 155.074 161.121 155.4 160.628 155.607L161.516 151.681ZM99.9714 152.805L99.2555 156.086H96.2978L96.6917 154.277C98.3993 153.495 99.3936 153.052 99.9714 152.805ZM27.9892 157.797H31.9593L31.0266 162.266H27.1506L27.1682 162.179C27.3958 161.088 27.6719 159.615 27.9892 157.797Z" fill="#E4E5E6"/>
<path d="M97.3729 80.0286L97.8832 76.8062C96.2639 74.3331 91.7371 73.4577 91.7371 73.4577C87.3424 74.3301 85.848 78.1733 85.848 78.1733C85.7303 80.5615 86.905 83.23 88.1114 85.2479C89.3179 87.2656 89.2431 88.7851 89.2431 88.7851C90.2965 89.4895 90.937 89.7387 92.6734 89.8242C94.4104 89.9096 95.9914 89.2708 95.9914 89.2708L95.6652 88.2694C95.5003 89.6467 90.6563 88.3853 90.6563 88.3853C90.6563 88.3853 91.2108 86.3794 89.1469 84.1018C87.0831 81.8246 86.8196 78.3298 86.8196 78.3298C88.0117 76.2122 91.5704 74.6467 91.5704 74.6467C94.175 74.7745 97.1076 77.0947 97.1076 77.0947L96.62 78.1589L92.7768 76.6645C91.0399 76.5791 90.14 77.1873 90.14 77.1873C90.4083 77.2346 90.6789 77.2943 90.9502 77.3594C89.5466 78.1141 88.078 79.5612 89.561 82.0755C91.2813 84.9908 91.8537 85.2208 92.1476 87.0463C92.1476 87.0463 93.7722 87.348 94.4552 86.9184C95.1382 86.4876 95.1465 84.7262 95.1465 84.7262C95.1465 84.7262 94.5789 86.1141 93.7704 86.3669L92.72 86.2306C92.72 86.2306 92.6226 84.1471 90.9961 82.1681C89.6475 80.5279 90.8342 78.6756 91.8105 77.5917C94.7078 78.4558 97.3729 80.0286 97.3729 80.0286Z" fill="black"/>
</g>
<defs>
<clipPath id="clip0_154_2361">
<rect width="200" height="200" fill="white"/>
</clipPath>
</defs>
</svg>
