<svg width="200" height="200" viewBox="0 0 200 200" fill="none" xmlns="http://www.w3.org/2000/svg">
<g clip-path="url(#clip0_154_2359)">
<path d="M197.417 54.3975L194.46 52.6409C193.381 52.0062 168.088 37.2114 133.4 30.4621C130.718 27.1729 126.941 25.2062 122.567 24.8619C122.388 24.8499 122.183 24.8422 121.943 24.8422C120.675 24.8422 116.41 25.0472 113.202 27.6017L111.346 27.5026L109.365 27.4001L108.857 27.3702L108.326 27.3403L108.296 27.3429C105.466 27.2002 102.681 27.125 99.9979 27.125C94.6761 27.125 90.7385 27.2241 85.7089 27.7128C82.5094 23.8802 79.5311 22.0869 77.1988 20.9378C76.007 20.3518 73.5225 19.3633 70.3478 19.3633C66.088 19.3633 62.2161 21.1403 59.1541 24.5064C56.7184 27.1737 55.8512 30.1802 55.5436 32.9457L55.1549 33.0456L54.8474 33.1268C26.0977 40.6049 6.36659 52.1599 5.53958 52.6418L2.58013 54.3983L0 55.9191L0.307565 58.905L0.661264 62.3198C0.753534 63.257 3.14741 85.4863 16.0318 112.094C27.9679 136.746 51.5573 170.027 96.1388 188.567L98.2055 189.424L99.9979 190.172L101.798 189.424L103.859 188.567C113.436 184.585 122.577 179.678 131.031 173.984L133.808 172.108L133.759 171.916C134.135 172.002 134.509 172.108 134.878 172.226C135.04 172.275 135.214 172.318 135.381 172.362L135.447 172.386C136.819 172.754 138.321 172.95 139.923 172.965C139.999 172.965 140.076 172.971 140.153 172.971C140.426 172.971 140.71 172.959 140.997 172.953C145.375 172.789 150.21 171.39 155.384 168.794L157.039 167.962L157.677 166.231L159.231 162.012C159.508 161.342 160.076 159.748 160.218 159.343C160.521 158.456 160.909 157.403 161.358 156.208C161.542 155.738 161.724 155.274 161.901 154.811C167.801 153.022 172.141 146.556 173.871 140.777C174.57 138.423 174.903 135.888 175.065 134.108C177.62 131.779 178.904 128.97 179.488 127.314L179.751 126.544L179.746 125.73C179.737 124.087 179.491 122.714 178.997 121.542L179.663 120.427L179.655 120.356C182.901 114.509 185.826 108.425 188.359 102.257C197.439 80.1586 199.27 63.0418 199.341 62.3181L199.698 58.9067L200 55.9174L197.418 54.3966L197.417 54.3975Z" fill="#B2B2B2"/>
<path d="M194.684 61.8484C194.612 62.5396 192.845 79.0208 184.04 100.477C181.654 106.268 178.604 112.75 174.741 119.548V119.552C173.799 121.143 173.089 122.241 173.089 122.241C173.089 122.241 174.196 122.272 174.648 123.261C174.966 123.961 175.065 124.909 175.065 125.766C174.57 127.178 173.301 129.956 170.52 131.704C170.52 131.704 170.423 135.965 169.388 139.438C167.921 144.338 164.309 149.414 160.203 150.424C159.977 149.543 159.854 148.495 159.921 147.286C159.921 147.286 158.381 150.895 156.985 154.541C156.554 155.669 153.287 164.611 153.287 164.611C148.137 167.199 143.974 168.157 140.818 168.277C140.594 168.287 140.367 168.287 140.152 168.287H140.061C140.266 168.287 140.477 168.287 140.694 168.277C139.083 168.327 137.736 168.153 136.67 167.864C136.541 167.828 136.402 167.793 136.282 167.76C132.604 166.601 129.075 166.686 129.075 166.686C128.134 165.475 126.939 164.165 125.555 162.789C127.208 166.111 128.043 168.705 128.423 170.099C120.25 175.604 111.391 180.369 102.064 184.247L99.9959 185.102L97.9352 184.247C54.7121 166.27 31.8259 133.976 20.2409 110.052C7.72133 84.1999 5.4052 62.7506 5.31464 61.8527L4.96094 58.4302L7.92039 56.6788C8.72092 56.2072 28.1821 44.9008 56.0269 37.6576C56.126 37.6337 56.22 37.6038 56.3208 37.5816C58.5037 40.0498 58.2687 43.6269 58.2687 43.6269C62.0535 41.0425 57.7903 32.9408 62.6105 27.6626C67.3522 22.4596 73.0003 24.0966 75.1284 25.1406C77.2241 26.1743 80.222 27.8941 83.5976 32.6486C89.8522 31.9326 93.9616 31.8096 99.9933 31.8096C102.614 31.8096 105.342 31.8788 108.105 32.0249L108.565 32.0497L108.579 32.0446L109.106 32.0796L111.09 32.1838C110.896 33.1458 110.396 34.4888 109.193 35.8669C108.833 36.2813 108.415 36.6939 107.928 37.0997C107.928 37.0997 109.423 37.4756 111.317 36.3701C112.449 35.7071 113.005 35.5551 114.367 33.2782C114.434 33.1672 115.317 31.948 115.912 31.426C118.08 29.5345 121.733 29.4926 122.193 29.5345C126.382 29.8634 129.073 32.095 130.686 34.7178C165.432 41.122 190.808 55.9355 192.076 56.6788L195.035 58.4302L194.68 61.8527L194.684 61.8484Z" fill="#003399"/>
<path d="M90.2212 40.8468C89.7257 40.857 89.2558 40.8775 88.8286 40.9117C89.1276 41.3526 89.4437 41.8002 89.7855 42.2735C94.5698 48.8828 103.583 58.6394 103.583 58.6394C94.0145 53.6757 84.2835 57.3596 80.3808 59.2674C79.2599 59.8184 78.6072 60.2251 78.6072 60.2251C91.0926 57.973 99.6959 63.2939 99.6959 63.2939C99.4482 63.346 96.4921 63.8074 93.6984 65.3093C93.0662 65.6527 92.434 66.0415 91.8445 66.496C86.4194 70.7318 87.0687 80.4423 87.0943 80.7576C87.3762 84.5552 88.5296 88.6936 90.4946 92.8987C94.1256 100.674 99.6532 104.614 104.805 106.631C106.42 107.246 107.983 107.69 109.453 107.998C110.632 108.237 111.734 108.399 112.742 108.51C114.485 108.69 115.92 108.707 116.86 108.707C117.338 108.681 117.825 108.655 118.338 108.638H118.38L118.372 108.647C118.363 108.655 118.355 108.664 118.355 108.673C118.329 108.69 118.295 108.715 118.244 108.749H118.269L118.492 108.69L118.483 108.698C118.474 108.707 118.457 108.715 118.423 108.741C118.415 108.749 118.415 108.758 118.398 108.766C118.158 108.963 117.5 109.544 116.766 110.484C116.655 110.62 116.544 110.766 116.441 110.919C116.142 111.33 115.835 111.799 115.553 112.329C114.553 114.149 113.758 116.618 114.04 119.694C114.151 120.907 114.425 122.214 114.92 123.615C115.066 124.008 115.228 124.427 115.407 124.845C115.493 125.059 115.595 125.272 115.698 125.486C116.193 126.554 116.826 127.665 117.603 128.818C117.603 128.818 117.509 128.809 117.338 128.784C117.193 128.75 116.996 128.707 116.749 128.639C116.689 128.621 116.621 128.604 116.544 128.579C116.518 128.57 116.475 128.562 116.441 128.553C116.339 128.51 116.228 128.476 116.116 128.442C116.014 128.399 115.886 128.357 115.775 128.314C115.493 128.203 115.202 128.075 114.886 127.921C114.801 127.878 114.715 127.836 114.621 127.784C114.365 127.648 114.092 127.502 113.818 127.323C113.733 127.272 113.647 127.212 113.562 127.161C111.905 126.067 110.025 124.281 108.521 121.342C108.521 121.351 108.94 130.014 118.167 135.226C118.38 135.354 118.611 135.465 118.842 135.576C119.269 135.807 119.722 136.029 120.192 136.242C120.388 136.336 120.593 136.43 120.815 136.524C120.815 136.524 119.662 136.644 117.953 136.61C117.176 136.584 116.287 136.533 115.339 136.422C115.715 136.857 116.116 137.293 116.569 137.729C117.031 138.165 117.526 138.609 118.09 139.062C118.654 139.514 119.269 139.993 119.961 140.488C120.653 140.975 121.413 141.497 122.251 142.043C126.915 144.726 135.066 147.383 138.987 147.417C147.522 147.503 151.017 145.802 154.81 144.487C155.715 144.171 156.382 143.948 156.877 143.752C157.108 143.658 157.305 143.573 157.467 143.496C157.672 143.385 157.834 143.282 157.962 143.162C158.099 143.034 158.227 142.906 158.372 142.769C158.629 142.479 158.894 142.163 159.15 141.821C159.534 141.317 159.91 140.745 160.261 140.104C160.389 139.899 160.5 139.685 160.619 139.463C161.636 137.455 162.473 134.986 162.9 132.304C162.559 132.15 162.2 131.979 161.815 131.783C161.568 131.654 161.311 131.518 161.047 131.364C160.876 131.27 160.696 131.167 160.508 131.048C159.774 130.612 158.996 130.1 158.159 129.476C157.125 128.707 156.023 127.793 154.853 126.699C154.853 126.691 153.921 109.168 141.952 102.083C141.952 102.083 144.122 101.882 146.719 102.542C144.686 99.4242 142.661 97.1474 141.38 96.1307C141.371 96.1307 141.371 96.1273 141.371 96.1273H141.362C141.362 96.1273 136.732 96.8911 133.622 99.9069C132.768 100.731 132.033 101.719 131.537 102.909C131.537 102.909 126.856 99.4011 125.275 93.1371C124.839 91.4258 124.31 87.8299 124.028 86.1605C123.695 84.0964 122.806 82.6158 122.199 81.6205C121.029 79.6931 118.679 78.7353 118.679 78.7353C118.748 78.6149 118.953 78.133 118.979 77.5341C119.038 75.7135 118.218 73.9254 117.509 72.2492C117.193 71.5127 116.074 69.5306 116.074 69.5306C116.151 69.5955 116.253 69.6776 116.356 69.7613C117.125 70.3739 118.526 71.4486 119.927 72.5243C119.978 72.5661 127.778 78.2065 130 79.6931C132.221 81.1813 137.244 84.1186 143.003 86.5244C144.532 87.1703 148.693 88.6517 153.169 88.9354C153.169 88.9354 150.572 91.3489 153.093 99.4063C153.605 101.128 154.314 102.776 154.793 104.136C154.81 104.136 154.81 104.144 154.81 104.153C155.117 105.033 155.399 105.904 155.698 106.716C159.201 116.49 159.953 122.18 159.962 122.214C159.91 122.222 159.816 122.24 159.697 122.274C159.543 122.316 159.346 122.368 159.107 122.427C159.047 122.445 158.97 122.47 158.902 122.487C158.783 122.521 158.671 122.556 158.535 122.59C158.535 122.59 158.586 122.701 158.74 122.829C159.671 123.606 160.654 124.068 163.2 124.281H163.191C166.839 124.589 169.069 123.641 169.334 123.538C169.325 123.325 169.317 123.102 169.308 122.88C169.231 121.454 169.026 119.668 168.573 117.549C168.146 115.507 167.71 113.585 167.258 111.757C165.045 102.7 162.738 96.2153 161.115 92.205C160.645 91.0422 160.218 90.0828 159.885 89.3378C159.526 88.4356 159.261 87.8495 159.141 87.5676C159.09 87.4471 159.056 87.3736 159.056 87.3736C159.056 87.3736 160.158 85.6735 160.423 83.8631C160.491 83.4172 160.5 82.9686 160.44 82.5346C160.312 81.6589 159.91 80.7508 159.534 80.1168C158.817 78.9524 157.68 77.6888 156.228 76.3244C155.647 75.7776 150.658 71.5922 149.838 70.9429C147.787 69.3153 145.566 67.569 143.268 65.6997C139.175 62.3558 136.253 59.8637 133.502 57.5518C131.443 55.8278 122.78 49.6602 119.013 47.5679C117.082 46.5043 109.538 42.5683 99.2004 41.3295C98.534 41.2466 93.7069 40.7776 90.2212 40.8468ZM59.1307 49.1903C54.5616 49.1459 49.2878 50.7452 48.1651 51.1024C48.0549 51.134 47.9823 51.1622 47.9541 51.1707C47.8294 51.2143 46.987 51.4971 45.8934 51.8721C44.4052 52.3788 42.4547 53.0443 41.1561 53.5022C40.9681 53.5714 40.7844 53.6372 40.6221 53.6953C40.2436 53.832 35.2568 55.7235 33.4687 56.4301C33.3345 56.4788 33.2209 56.5309 33.1269 56.571C32.986 56.6266 32.8339 56.6864 32.6861 56.7462C30.0077 57.8526 25.9624 59.6535 24.2178 60.4421C23.736 60.6591 23.4207 60.7966 23.3652 60.824C20.4988 62.1679 18.1836 63.3426 16.5039 64.22C16.5355 64.3977 17.2908 67.5989 18.6133 72.5883C20.4407 79.1198 23.0431 87.1079 26.4425 94.4605C31.6156 105.657 40.3154 115.285 50.6812 121.778C52.5155 122.932 54.3967 123.974 56.313 124.922C57.6031 125.554 58.8983 126.135 60.2174 126.665C66.7993 129.322 73.7716 130.74 80.7533 130.604C80.2937 130.134 79.8768 129.664 79.5265 129.185C77.0378 125.802 75.4735 120.616 76.2116 114.986C76.2219 114.918 76.2321 114.858 76.2415 114.79C76.4953 112.961 76.9942 111.099 77.7819 109.228C77.9699 108.784 78.1655 108.348 78.3902 107.904C78.4005 107.887 78.4064 107.861 78.4252 107.835C78.5542 107.57 78.6867 107.314 78.8294 107.041C66.6395 111.723 69.6289 125.375 69.6289 125.375C69.2197 124.956 59.0119 119.651 57.1717 107.69C57.1324 107.4 57.0837 107.109 57.0486 106.819V106.81C55.8491 96.446 55.6902 95.3438 47.943 89.5181C47.943 89.5181 49.7551 88.474 51.574 86.398C53.281 84.4441 54.9905 81.5846 55.2101 77.8195V77.8161C55.4638 73.3607 55.838 69.5836 56.3327 66.3721C56.3327 66.3533 56.3327 66.3225 56.3378 66.3003C56.5206 65.575 56.7359 64.8368 56.9854 64.0893C58.2541 60.3712 60.4899 56.5608 64.4328 54.213C65.2136 53.7474 66.0714 53.3322 66.9958 52.9947C67.927 52.6547 68.93 52.3856 70.0125 52.2002C70.0125 52.2002 65.4229 49.556 60.0337 49.2219C59.7373 49.2031 59.4357 49.1929 59.1307 49.1903ZM129.222 84.8525C129.239 85.248 129.273 85.6351 129.308 86.0007C129.555 88.5928 130.17 90.504 130.743 91.8026C130.88 92.1084 131.008 92.3733 131.136 92.6151C131.623 93.5326 132.016 93.9718 132.016 93.9718C132.033 93.9718 132.135 94.0008 132.289 94.0247C132.494 94.0546 132.81 94.0862 133.203 94.0666C133.759 94.0418 134.194 93.9256 134.596 93.7778C134.724 93.7325 134.844 93.6856 134.963 93.6266C135.091 93.5668 135.22 93.5027 135.331 93.431C135.809 93.149 136.202 92.8022 136.518 92.4263C136.723 92.1776 136.903 91.9256 137.056 91.6736C137.091 91.6095 137.185 91.4737 137.185 91.4737C137.304 91.2643 137.569 90.6868 137.595 90.633C137.407 90.9064 137.185 91.1405 136.92 91.3318C136.826 91.4002 136.74 91.4566 136.638 91.5104C136.458 91.6155 136.245 91.6966 136.031 91.7556C135.818 91.8094 135.587 91.8444 135.348 91.8444C135.032 91.8444 134.75 91.777 134.468 91.6787C134.357 91.6385 134.254 91.5958 134.152 91.5437C133.81 91.3737 133.528 91.1405 133.297 90.856C132.913 90.3972 132.674 89.8051 132.674 89.1626V89.1174C132.682 89.0584 132.691 89.0063 132.691 88.9456C132.827 88.9679 132.947 88.979 133.058 88.9738C133.853 88.9448 134.288 88.4006 134.511 87.9461C134.511 87.9461 132.657 86.8525 131.153 85.9708C130.17 85.3958 129.333 84.9072 129.265 84.8661C129.256 84.8602 129.248 84.861 129.248 84.861L129.239 84.8576C129.231 84.8576 129.222 84.8525 129.222 84.8525ZM111.076 142.65C111.076 142.658 123.353 151.091 128.761 156.806C129.265 157.336 129.718 157.806 130.145 158.25C130.196 158.31 132.221 160.634 134.408 161.42C134.511 161.463 134.613 161.514 134.724 161.548C134.878 161.608 136.646 162.283 139.372 162.437C141.055 162.531 142.61 162.411 143.849 162.146C144.771 161.309 145.515 160.13 146.07 158.831C146.881 156.969 147.309 154.841 147.368 153.099C148.445 152.492 151.683 150.758 151.683 150.758H151.666C151.461 150.758 150.436 150.903 149.188 151.091C148.949 151.134 143.31 151.979 142.499 152.116C141.106 152.355 139.782 152.612 138.543 152.8C138.133 152.868 137.731 152.928 137.338 152.97C137.279 152.979 134.998 153.321 133.622 152.936C133.186 152.808 132.759 152.697 132.315 152.526C131.58 152.236 130.769 151.834 129.692 151.287C122.49 147.255 111.076 142.65 111.076 142.65Z" fill="white"/>
<path d="M166.703 56.5085C166.195 56.3026 165.672 56.0959 165.14 55.8908C156.716 52.5572 146.224 49.0475 134.469 46.4648C135.648 48.9168 136.9 51.2099 138.047 52.5991C140.916 56.0788 144.923 59.9541 154.203 66.7094C166.95 75.9945 167.877 80.6908 166.658 85.6973C165.642 89.8682 170.839 103.538 170.926 103.478C170.926 103.478 179.471 86.6918 183.492 64.219C180.178 62.4813 174.36 59.6055 166.702 56.5077M118.867 156.817C114.164 152.924 108.644 148.844 103.22 145.065C100.813 143.384 98.4246 141.766 96.1375 140.25C94.7885 140.481 93.3643 140.767 91.8914 141.096C91.3412 141.223 90.7765 141.352 90.21 141.495C86.2399 142.473 81.9468 143.843 77.7109 145.758C77.7357 146.51 77.793 147.467 77.9373 148.604C77.986 148.981 78.0424 149.382 78.115 149.796C78.1808 150.216 78.2628 150.651 78.3551 151.102C78.6336 152.463 79.0258 153.983 79.5828 155.638C79.8066 156.313 80.0553 157.022 80.3534 157.761C80.5747 158.327 80.8097 158.902 81.0719 159.493C81.8554 161.281 82.8379 163.229 84.0664 165.305C86.1655 166.554 88.3159 167.741 90.486 168.887C92.2673 169.821 94.0571 170.73 95.882 171.594C97.2439 172.236 98.6108 172.857 99.9957 173.459C101.023 173.011 102.05 172.553 103.062 172.079C105.1 171.141 107.106 170.155 109.076 169.125C114.009 166.554 118.757 163.715 123.266 160.625C122.255 159.701 121.166 158.752 120.029 157.783C119.646 157.469 119.261 157.144 118.867 156.817Z" fill="#3366CC"/>
<path d="M68.7229 28.186C68.4418 28.1749 68.1573 28.1783 67.8737 28.1979C67.8737 28.1979 73.2467 28.9207 76.512 37.3232C74.7956 36.6602 72.8861 36.8414 72.8861 36.8414C76.6307 39.489 78.3343 44.4852 78.9332 45.8547C79.7585 47.7317 80.8948 48.9808 81.9303 49.8061C85.6937 53.0423 90.3242 52.5169 90.3242 52.516C90.3242 52.516 84.0789 50.5049 78.6812 36.6679C76.8161 31.899 72.9417 28.3551 68.7229 28.186ZM24.2115 60.4307C23.733 60.6434 23.4263 60.7836 23.3691 60.8075C20.4985 62.1479 18.1823 63.3278 16.5078 64.2052C16.5386 64.3761 17.2921 67.585 18.6155 72.5684C20.4446 79.1084 23.0444 87.0932 26.4447 94.4457C31.6144 105.645 40.3142 115.265 50.6851 121.767C52.5108 122.912 54.3964 123.962 56.3195 124.911C57.6027 125.534 58.9039 126.115 60.2179 126.654C66.8015 129.311 73.7687 130.729 80.7555 130.592C80.2959 130.122 79.8824 129.644 79.5338 129.165C77.04 125.782 75.4817 120.596 76.2155 114.966C76.2292 114.906 76.2395 114.838 76.2437 114.77C76.5026 112.95 76.9964 111.079 77.7833 109.208C77.9712 108.772 78.172 108.328 78.3881 107.884C78.4035 107.858 78.4112 107.841 78.4197 107.815C78.5547 107.55 78.6906 107.294 78.8384 107.029C66.6426 111.703 69.6294 125.364 69.6294 125.364C69.227 124.945 59.0124 119.631 57.1721 107.67C57.1252 107.397 57.0859 107.115 57.0508 106.799C55.8445 96.4295 55.6907 95.3291 47.9469 89.5033C47.9469 89.5033 49.753 88.455 51.5745 86.3815C48.6885 84.9855 46.4885 82.8428 44.8226 80.566C44.779 80.5087 44.7397 80.4481 44.6978 80.3959C44.6039 80.2618 44.5133 80.1328 44.4227 80.0038C44.3288 79.8628 44.2279 79.7219 44.1374 79.5783C44.1058 79.5271 44.0665 79.4724 44.034 79.4169C41.0028 74.7111 40.0972 69.8268 40.0972 69.8268C34.8045 86.7044 47.9965 104.799 47.9965 104.799C47.9965 104.799 39.9605 101.682 33.0257 89.3068C29.2999 82.6625 25.8937 73.3484 24.2115 60.4307ZM93.6989 65.2962C93.0667 65.6345 92.4344 66.0284 91.845 66.4863C86.4199 70.7196 87.0692 80.4267 87.0948 80.7428C87.3682 84.5438 88.5301 88.6754 90.4951 92.8856C94.1261 100.658 99.6537 104.603 104.805 106.611C106.42 107.243 107.984 107.67 109.453 107.986C110.632 108.225 111.734 108.379 112.734 108.49C114.485 108.678 115.929 108.687 116.852 108.695C117.339 108.661 117.834 108.644 118.338 108.636C114.246 107.491 110.752 105.996 107.77 104.244C106.625 103.569 105.557 102.857 104.549 102.107C90.2046 91.323 90.5891 73.163 93.6989 65.2962ZM119.919 72.5137C119.97 72.5522 127.779 78.1917 130 79.6783C132.221 81.1742 137.245 84.1072 143.012 86.5165C144.533 87.1538 148.685 88.6395 153.161 88.9215C153.161 88.9215 150.564 91.3358 153.093 99.3923C153.606 101.115 154.315 102.767 154.802 104.116C154.802 104.133 154.81 104.142 154.81 104.142C155.118 105.022 155.4 105.893 155.69 106.705C159.202 116.478 159.953 122.168 159.962 122.194C159.953 122.126 159.953 122.057 159.945 121.997C159.159 112.719 155.793 101.815 155.297 98.7764C155.032 97.1642 154.571 95.5076 155.109 94.2159C155.366 93.5956 156.1 93.0548 156.63 92.8856C159.219 92.0971 161.859 94.9258 167.258 111.745C165.054 102.681 162.739 96.2013 161.115 92.1902C160.645 91.0326 160.218 90.0637 159.885 89.3213C159.526 88.4234 159.27 87.833 159.15 87.5528C159.091 87.4323 159.056 87.3597 159.056 87.3597C159.056 87.3597 160.124 85.6749 160.398 83.8654C160.475 83.4195 160.492 82.9607 160.44 82.519C160.287 82.771 160.124 83.0342 159.945 83.3229C158.373 85.8125 154.451 86.9394 147.241 86.0474C146.805 85.9902 144.866 85.5536 143.721 85.1188C133.161 81.1042 124.148 75.3459 119.919 72.5137ZM129.223 84.8394C129.24 85.2367 129.265 85.6237 129.308 85.9911C129.556 88.5831 130.162 90.4943 130.743 91.7912C130.872 92.0971 131.008 92.3602 131.136 92.602C131.623 93.5196 132.016 93.9604 132.016 93.9604C132.059 93.9698 132.204 93.9852 132.23 93.9903V93.9835C130.453 90.3559 130.718 87.5238 131.153 85.9594C130.171 85.3828 129.325 84.8915 129.257 84.8497C129.248 84.8497 129.24 84.8462 129.231 84.8462L129.223 84.8394ZM141.371 96.1151C141.371 96.1151 136.732 96.8823 133.614 99.8921C139.381 102.876 152.555 111.267 154.853 126.688C154.853 126.679 153.922 109.157 141.952 102.075C141.952 102.075 144.114 101.868 146.72 102.527C144.686 99.406 142.661 97.1351 141.371 96.1185V96.1151ZM118.398 108.755C118.167 108.952 117.501 109.524 116.758 110.472C116.664 110.609 116.544 110.754 116.442 110.908C116.143 111.318 115.835 111.788 115.545 112.318C114.562 114.129 113.759 116.607 114.041 119.691C114.152 120.904 114.425 122.203 114.921 123.604C115.058 124.005 115.22 124.415 115.408 124.834C115.493 125.048 115.596 125.261 115.69 125.466C116.202 126.534 116.826 127.653 117.612 128.807C117.612 128.807 117.51 128.798 117.339 128.764C117.193 128.738 117.005 128.696 116.749 128.627C116.681 128.61 116.612 128.593 116.544 128.567C116.51 128.559 116.484 128.55 116.442 128.542C116.339 128.508 116.228 128.465 116.117 128.431C116.006 128.388 115.895 128.345 115.775 128.294C115.502 128.192 115.211 128.063 114.895 127.91C114.81 127.867 114.716 127.816 114.622 127.773C114.366 127.636 114.092 127.482 113.819 127.312C113.733 127.26 113.648 127.2 113.554 127.149C111.905 126.056 110.034 124.262 108.522 121.331C108.522 121.34 108.94 129.994 118.167 135.214C118.381 135.334 118.612 135.445 118.842 135.565C119.269 135.795 119.722 136.009 120.184 136.231C120.397 136.325 120.602 136.419 120.824 136.513C120.824 136.513 119.662 136.632 117.954 136.59C117.176 136.573 116.288 136.521 115.339 136.41C115.715 136.846 116.117 137.273 116.57 137.717C117.023 138.153 117.527 138.597 118.099 139.05C118.654 139.503 119.278 139.973 119.97 140.477C120.654 140.964 121.405 141.477 122.251 142.032C126.916 144.715 135.066 147.363 138.988 147.406C147.531 147.491 151.017 145.791 154.81 144.475C155.716 144.159 156.382 143.929 156.886 143.741C137.219 148.926 127.753 141.101 125.224 138.461C124.746 137.957 124.515 137.632 124.515 137.632C124.618 137.692 124.712 137.743 124.814 137.794C133.375 142.271 140.662 139.529 140.662 139.529C138.057 138.879 135.963 138.213 134.255 137.564C127.804 135.086 127.078 132.822 127.078 132.822C127.249 132.873 127.403 132.925 127.557 132.976C135.195 135.599 139.33 133.335 139.33 133.335C111.512 127.653 117.604 110.703 118.398 108.755ZM111.076 142.638C111.076 142.638 123.362 151.071 128.761 156.786C129.265 157.325 129.718 157.795 130.137 158.23C130.197 158.299 132.221 160.614 134.4 161.408C134.511 161.451 134.614 161.502 134.725 161.537C133.264 157.983 131.102 153.865 129.693 151.267C122.482 147.235 111.076 142.638 111.076 142.638Z" fill="#B2B2B2"/>
</g>
<defs>
<clipPath id="clip0_154_2359">
<rect width="200" height="200" fill="white"/>
</clipPath>
</defs>
</svg>
