<svg width="200" height="200" viewBox="0 0 200 200" fill="none" xmlns="http://www.w3.org/2000/svg">
<g clip-path="url(#clip0_154_2360)">
<path d="M63.0394 61.0049C76.2457 46.1177 95.615 37.2334 115.625 41.9557C131.232 45.6375 141.557 56.6828 154.924 65.3269C157.245 66.7676 159.246 68.7686 162.127 68.7686C162.447 71.65 160.766 74.1312 160.446 76.9325C166.049 80.134 170.611 84.4561 174.133 90.0588C175.653 92.54 176.934 95.0212 177.895 97.7425C178.855 100.384 177.574 103.425 179.575 105.906C183.577 103.585 187.739 100.944 192.622 102.305C194.783 102.945 194.783 105.346 196.383 106.627C197.424 107.427 198.624 107.827 199.985 107.507C200.225 110.228 197.504 111.909 195.423 113.03C193.182 114.23 190.14 113.99 188.62 111.589C185.738 114.551 182.057 116.391 178.295 117.912C177.414 118.232 175.814 118.152 175.333 118.472C172.132 120.313 169.811 123.435 166.609 125.516C168.05 126.156 169.01 124.876 170.291 124.715C172.692 124.395 175.093 126.076 177.094 125.196C179.655 124.155 181.656 121.834 184.618 121.114C187.499 120.393 191.341 120.874 191.661 124.235C191.901 126.796 192.622 128.797 193.422 131.199C193.982 132.719 193.262 134.4 192.462 135.521C190.541 138.002 190.14 141.043 187.739 142.884C182.617 146.806 176.294 147.126 170.451 148.887C160.846 151.848 151.002 154.009 141.317 152.329C131.632 160.413 116.185 162.173 105.86 153.929C101.218 154.09 96.5755 155.77 92.0133 153.849C86.7308 151.608 83.049 147.446 78.4068 143.925C77.4463 143.204 75.6855 144.325 75.5254 145.445C75.2853 146.966 76.2457 149.367 75.4454 149.928C73.6045 151.128 71.5235 147.446 69.2824 148.167C64.24 149.767 59.1975 149.367 54.1551 150.248C52.7144 150.488 51.834 153.849 51.0336 153.529C48.3123 152.329 48.4724 147.366 44.7106 146.886C41.0288 146.326 37.267 148.167 33.8254 146.166C28.2227 142.964 22.2198 145.045 16.2169 144.405C10.7743 143.845 7.89291 139.042 6.69234 133.36C6.37218 131.759 3.09061 131.599 1.56988 129.918C-0.831275 127.277 -0.190967 123.915 1.56988 121.434C2.77045 119.753 5.33168 119.433 6.05203 117.912C7.41268 114.871 5.41172 110.789 8.45318 107.907C9.09349 108.708 9.49368 109.588 10.054 110.389C11.0945 106.147 15.0163 104.386 17.9778 101.584C18.6981 100.864 19.1783 99.6634 20.2188 98.9431C17.8977 98.2227 16.6971 96.3018 17.4175 94.0607C17.9778 92.3799 19.0983 90.8592 20.6991 90.0588C21.9797 89.4185 23.6605 88.8582 24.4609 88.0578C28.863 83.7358 33.5853 80.2141 38.6277 76.9325C37.8273 69.0887 46.1513 66.7676 51.1137 62.5256C51.834 61.8853 51.914 60.2045 52.9545 60.0444C55.6759 59.5642 56.5563 63.5661 56.076 65.9672C55.3557 69.2488 51.9141 70.6895 50.9536 73.731C50.8736 73.9711 51.3538 74.2912 51.6739 74.0511C55.6759 69.8091 59.1175 65.487 63.0394 61.0049Z" fill="black"/>
<path d="M80.5687 88.4561C82.4095 88.8563 81.6092 85.7348 82.9698 84.6142C81.5291 83.8939 80.0884 84.6943 78.9679 85.2545C77.207 86.215 79.6082 88.216 80.5687 88.4561Z" fill="white"/>
<path d="M86.731 105.828C88.1716 108.549 90.973 104.627 92.3336 103.027C90.7329 101.986 88.2517 100.865 86.731 102.306C85.9306 103.187 86.1707 104.707 86.731 105.828Z" fill="white"/>
<path d="M85.8504 130.316C87.2111 129.915 89.212 129.995 89.5322 129.275C90.4927 127.674 87.7714 126.314 86.4907 125.673C84.7299 124.793 83.9295 127.914 84.3297 129.435C84.4898 129.995 84.97 130.636 85.8504 130.316Z" fill="white"/>
<path d="M70.0029 145.043C69.8428 145.363 69.8428 145.923 70.0029 146.243C70.9633 147.684 72.7242 147.684 74.0848 148.725C74.405 148.965 74.8052 148.645 74.8052 148.404C74.485 146.483 74.8852 143.522 72.8042 143.282C71.7637 143.042 70.4831 143.922 70.0029 145.043Z" fill="white"/>
<path d="M52.4732 149.927C53.2736 148.646 53.9939 147.606 52.3931 147.206C51.4327 146.965 49.8319 146.405 49.3517 147.526C48.7914 149.046 50.2321 150.487 50.7924 151.928C51.3526 151.288 51.993 150.727 52.4732 149.927Z" fill="white"/>
<path d="M130.591 50.1181C122.587 44.6755 113.863 42.5145 104.979 42.9947C89.7717 44.2753 86.4101 47.0767 74.4844 54.12C71.0427 56.201 57.3561 70.768 55.7554 73.8895C55.2751 74.77 58.2366 74.93 59.2771 74.5298C60.8778 73.9696 61.3581 71.3283 63.1189 70.5279C69.2819 67.6465 72.0032 61.3235 77.7659 57.8018C78.1661 57.5617 78.6464 57.0014 79.2867 57.3216C80.2471 57.7218 78.8865 58.122 79.2867 58.5222C75.4448 61.4035 72.4034 65.0053 69.522 68.687C71.603 69.8076 72.9636 72.1287 74.9646 72.849C77.3657 73.7295 80.2471 72.769 82.9684 73.3293C84.4091 73.6494 84.089 75.6504 83.6087 76.7709C82.6483 79.092 78.8865 79.6523 78.6464 81.4131C78.3262 83.9744 82.088 83.094 84.5692 82.5337C84.7293 84.0544 83.5287 85.6552 83.7688 86.4556C85.2895 91.2579 88.9713 95.2598 90.5721 100.382C90.9723 101.663 93.6135 101.343 94.0938 102.223C94.8942 103.664 91.6926 104.544 91.7727 106.145C92.3329 112.948 90.5721 119.591 89.8517 126.155C89.6917 127.355 92.7331 128.076 92.1729 129.676C91.6126 131.117 89.0514 130.077 88.0909 131.117C84.9694 134.479 82.6483 138.4 79.3667 141.602C85.0494 142.162 90.8122 142.643 96.4949 143.203C93.3734 137.28 90.9723 127.195 98.736 122.793C99.5364 122.313 100.177 120.312 101.457 119.672C103.138 118.871 104.819 120.072 106.26 121.112C107.38 119.511 109.861 119.271 110.502 117.671C112.983 111.508 112.182 110.307 119.306 103.584C116.985 102.943 114.664 104.784 112.423 103.904C110.982 103.424 109.301 103.344 108.341 101.983C110.662 101.423 112.583 103.344 114.824 102.703C118.986 101.663 122.828 99.9821 126.99 100.943C127.47 101.023 128.35 100.782 128.67 101.503C130.671 97.3408 129.231 92.2183 128.11 87.6561C126.91 82.5337 123.628 78.6118 121.307 74.1296C124.829 76.1306 126.029 79.9725 128.27 83.094C129.311 82.2135 127.95 80.4527 129.151 79.9725C129.631 79.7323 129.631 80.7728 129.711 81.093C130.111 82.7738 129.151 84.6147 129.311 86.2955C129.471 87.8963 130.031 89.5771 130.431 91.1778C131.552 95.0997 130.511 98.8615 131.072 102.623C132.672 101.823 132.272 98.8615 134.273 99.1817C134.673 99.2617 134.033 100.382 133.713 100.862C133.073 102.223 131.792 103.424 131.312 104.704C130.911 106.065 130.831 107.906 131.392 109.507C132.992 107.586 135.234 105.985 136.114 103.744C140.996 90.7776 148.6 79.092 158.365 69.5675C149.08 63.0843 140.436 56.7613 130.591 50.1181ZM81.6878 56.4412C81.4477 56.6012 81.2076 56.6813 80.8874 56.9214C80.5673 57.1615 80.0871 56.7613 80.1671 56.6012C81.4477 53.4797 84.8894 52.9995 87.5306 51.4788C90.8122 49.5579 94.0938 47.6369 98.0157 47.6369C92.7331 50.6784 87.2105 52.6793 81.6878 56.4412Z" fill="#BF2F37"/>
<path d="M125.871 103.905H125.07C124.838 103.825 124.758 103.977 124.902 104.057C125.222 104.082 125.55 104.226 125.871 103.905Z" fill="white"/>
<path d="M115.384 118.391C116.105 116.55 117.145 115.029 118.025 113.349C118.826 111.828 120.187 110.787 121.307 109.507C123.148 107.506 125.149 105.825 127.55 104.544C126.67 104.224 125.709 104.464 124.909 104.064C124.901 104.064 124.901 104.056 124.901 104.056C124.821 104.048 124.749 104.048 124.669 104.064C124.028 104.144 123.468 104.784 122.908 105.265C118.826 108.786 115.944 113.188 114.264 118.231C114.744 118.071 115.304 118.631 115.384 118.391Z" fill="white"/>
<path d="M97.7772 141.126C98.2574 141.287 98.5775 139.846 98.1773 138.885C97.6171 137.445 97.377 135.844 96.0163 134.883C95.6962 134.643 95.2159 135.044 95.296 135.204C96.0964 137.285 95.7762 140.166 97.7772 141.126Z" fill="white"/>
<path d="M108.983 138.405C110.504 136.404 108.022 133.923 106.662 132.402C105.141 134.003 106.662 136.404 107.862 138.085C108.262 138.645 108.823 138.565 108.983 138.405Z" fill="white"/>
<path d="M103.781 124.556C105.942 124.476 104.261 121.915 102.5 121.515C101.06 121.195 100.099 122.956 100.019 123.836C99.9392 125.757 102.741 124.636 103.781 124.556Z" fill="white"/>
<path d="M173.254 93.3376C168.932 87.0145 164.45 81.2518 157.807 78.1303C157.247 77.8901 158.607 80.0512 157.887 80.3713C155.966 81.0917 156.366 76.6095 155.886 77.0097C147.642 83.1727 142.119 92.137 139.238 102.302C139.158 102.622 140.519 101.902 140.759 101.341C141.719 98.9403 143 96.9393 145.001 95.3385C145.321 95.0984 145.801 95.4986 145.721 95.6587C144.921 97.4195 143.4 98.7802 142.52 100.621C145.801 100.861 148.603 98.38 151.884 99.0203C148.442 101.982 143.64 101.822 140.038 104.783C136.677 107.584 134.196 110.786 132.355 114.548C129.794 119.67 130.674 125.193 129.633 130.796C128.993 134.157 125.311 137.119 121.71 135.278C121.63 135.198 121.71 134.797 121.71 134.557C124.671 135.118 127.152 132.877 127.793 130.075C128.433 127.034 127.312 124.312 127.552 121.351C127.873 116.949 132.835 112.787 129.073 109.185C124.191 112.147 120.989 116.949 117.628 121.431C119.148 125.353 118.668 129.675 120.429 133.677C120.509 133.837 120.029 134.237 119.789 133.997C116.107 129.835 118.268 121.751 111.945 120.391C108.984 119.75 106.983 122.392 105.542 124.713C105.302 125.033 105.302 125.753 105.862 125.833C108.503 125.993 110.824 127.434 112.265 129.675C117.067 137.039 121.389 145.363 118.428 154.007C118.188 154.647 117.948 155.527 116.827 155.287C119.869 147.123 115.707 138.799 111.385 131.756C109.944 129.435 107.863 127.194 105.062 127.354C104.581 127.354 104.341 128.474 104.101 129.195C104.021 129.435 103.461 129.115 103.461 128.795C103.381 128.234 103.141 127.594 103.781 127.194C102.981 126.473 101.94 126.153 100.9 126.473C100.099 126.714 99.459 127.354 98.8187 127.994C97.9382 128.955 99.3789 130.715 97.6181 131.276C97.378 129.755 98.1784 128.234 97.2179 126.794C95.5371 128.314 93.5361 131.756 95.457 132.877C96.8977 133.677 98.2584 135.118 99.2989 136.638C100.499 134.877 97.8582 132.316 100.499 130.956C100.259 133.597 100.66 136.238 102.58 138.239C102.821 138.479 103.221 138.159 103.301 137.839C103.621 135.678 100.9 133.677 102.02 132.476C103.061 131.356 103.861 134.077 104.501 135.438C105.302 134.717 104.501 133.517 105.062 133.117C105.862 132.476 106.182 131.116 106.502 131.196C109.704 132.076 112.505 137.039 109.944 139.6C108.103 141.361 105.862 138.159 104.982 135.838C104.101 136.958 105.142 138.639 104.101 139.36C101.94 140.72 100.82 138.079 99.6991 136.238C98.6586 138.479 100.9 141.12 98.4985 142.801C104.021 154.727 118.828 160.97 131.074 156.248C135.076 154.727 138.598 152.566 141.159 148.884C143.8 145.042 144.361 140.72 146.682 136.798C147.482 135.518 148.603 134.397 149.883 133.597C158.127 128.314 166.851 125.433 172.774 117.429C177.977 110.386 178.217 100.701 173.254 93.3376ZM112.265 153.206C112.185 153.526 111.705 153.847 111.625 153.606C110.584 150.565 110.904 145.443 107.063 145.443C105.062 145.363 106.342 148.004 107.143 149.444C107.623 150.325 108.343 150.965 108.663 151.926C105.542 151.846 104.341 147.363 105.302 145.122C106.502 142.081 110.344 144.562 111.385 146.723C112.425 148.724 112.665 150.805 112.265 153.206ZM124.991 153.126C125.471 150.885 126.912 149.044 125.471 146.563C125.311 146.323 125.231 146.083 124.991 145.763C124.751 145.443 125.071 145.042 125.391 145.042C127.232 145.122 126.832 147.363 127.232 148.724C127.632 150.245 126.592 152.486 124.991 153.126Z" fill="white"/>
<path d="M195.664 108.064C194.063 107.504 194.704 104.863 193.103 104.222C188.781 102.462 184.539 104.623 180.937 106.944C181.738 107.744 182.298 108.625 182.138 109.825C180.617 109.345 180.057 107.824 178.856 106.944C177.976 109.825 178.376 113.107 176.375 115.508C179.817 116.949 182.938 113.747 185.74 111.906C187.58 110.706 189.341 108.865 191.422 109.345C191.822 109.425 191.182 110.305 190.702 110.706C193.023 113.027 196.865 111.426 197.745 108.945C197.825 108.625 196.465 108.384 195.664 108.064Z" fill="white"/>
<path d="M157.645 75.2519C158.045 75.412 158.606 75.0918 158.846 75.7322C159.806 74.6116 161.087 72.6907 160.046 71.25C158.926 72.3705 157.725 73.251 156.925 74.6116C156.845 74.6116 157.325 75.0918 157.645 75.2519Z" fill="white"/>
<path d="M97.9371 146.568C92.4944 145.047 87.1319 142.166 81.2891 143.767C86.2514 149.769 95.0557 154.332 102.899 151.931C102.259 151.13 101.539 150.49 100.818 149.529C100.018 148.329 98.9776 146.808 97.9371 146.568Z" fill="white"/>
<path d="M163.729 128.319C164.129 127.918 164.69 127.518 164.85 127.038C164.93 126.798 164.449 126.478 164.129 126.718C163.169 127.678 161.808 127.838 160.848 128.719C161.728 129.279 162.528 129.599 163.729 128.319Z" fill="white"/>
<path d="M145.001 147.448C143.88 147.528 143.88 149.929 142.52 150.809C145.001 151.85 147.722 151.53 150.283 151.53C154.765 151.61 159.248 150.569 163.33 148.728C157.247 148.168 151.084 147.048 145.001 147.448Z" fill="white"/>
<path d="M190.783 130.88C188.862 131.2 187.742 134.481 185.02 134.481C185.02 134.081 184.86 133.441 185.1 133.361C187.902 131.68 190.863 129.359 190.303 126.397C188.862 118.794 181.259 125.117 176.776 126.558C174.455 127.278 171.894 125.837 169.493 126.798C168.372 127.198 167.332 127.838 166.211 128.398C163.09 130.159 162.53 134.081 159.248 135.682C159.168 133.841 161.169 132.32 160.849 131.28C160.289 129.519 158.288 132.64 156.767 133.201C156.367 133.361 156.127 133.121 155.966 132.801C155.726 132.16 156.687 132 156.687 131.6C156.687 131.36 156.287 131.04 155.966 131.2C152.525 133.441 148.843 135.122 147.002 138.964C146.122 140.884 145.081 143.766 145.802 144.646C148.043 147.288 152.685 146.407 156.447 146.807C166.612 147.848 177.417 147.368 186.061 140.724C186.141 140.644 185.1 140.804 184.62 140.484C184.46 140.404 184.54 139.844 184.62 139.844C187.261 138.883 189.423 137.123 190.543 134.802C191.183 133.521 192.384 130.559 190.783 130.88Z" fill="white"/>
<path d="M124.91 110.231C126.35 108.871 128.111 107.99 129.392 106.549C129.632 106.309 129.552 105.349 129.152 105.589C123.149 108.15 120.027 113.593 116.506 118.955C116.266 119.276 116.586 120.156 116.666 119.996C119.627 116.794 121.708 113.273 124.91 110.231Z" fill="#BF2F37"/>
<path d="M121.226 103.348H123.227C122.347 103.508 121.946 104.388 121.306 104.868C120.426 105.589 117.144 109.831 116.584 110.951C115.543 113.192 114.023 115.113 113.622 117.594C113.222 117.514 112.822 117.915 112.422 117.835C114.263 112.232 117.784 107.43 121.786 103.188" fill="#BF2F37"/>
<path d="M95.262 68.8266C94.3576 68.8266 93.4851 68.6025 92.6367 68.1623C91.18 67.3939 90.0195 65.9932 89.1791 63.9843C88.4507 62.1274 88.4507 60.3665 89.1791 58.7578C89.8834 57.117 91.148 55.9644 93.0369 55.2201C93.5092 55.06 94.0054 54.8999 94.4856 54.8199C94.9578 54.6598 95.4381 54.6598 95.9823 54.6598L96.0624 54.0275L97.303 53.5312L97.319 53.5473L100.136 57.3331L100.112 57.3491L98.8877 58.4856L98.8637 58.4696C97.8552 57.6132 96.9668 57.0369 96.1504 56.7168C95.31 56.4687 94.5417 56.4927 93.8533 56.7968C92.8849 57.197 92.3486 57.8373 92.1085 58.8538C91.8844 59.8223 92.0605 61.0389 92.6688 62.6796C93.205 64.1443 93.9254 65.2169 94.7417 65.7851C95.5741 66.3694 96.4546 66.4735 97.351 66.1053C98.1194 65.7931 98.6156 65.409 98.9358 64.8407C99.2319 64.3204 99.2639 63.6881 99.0158 63.1119C98.8637 62.6556 98.6396 62.4075 98.3195 62.3275C97.9353 62.2314 97.5351 62.2795 97.0629 62.4876L97.0308 62.5036L97.0228 62.4715L96.4546 60.9988L102.193 58.7337L102.201 58.7658L102.77 60.2305L102.746 60.2465C102.233 60.5826 101.953 60.8948 101.881 61.1909C101.801 61.5031 101.881 61.9833 102.121 62.6156L103.418 65.9292L103.386 65.9372L101.529 66.6656L101.513 66.6496L100.665 65.8732C100.32 66.4174 99.8962 66.8897 99.3199 67.3699C98.8157 67.7941 98.1354 68.1223 97.4711 68.4184C96.7187 68.6825 95.9823 68.8266 95.262 68.8266Z" fill="black"/>
<path d="M101.547 66.5678L103.34 65.8634L102.068 62.6139C101.828 61.9736 101.748 61.4773 101.828 61.1572C101.908 60.853 102.188 60.5329 102.7 60.1887L102.164 58.8041L96.537 61.0211L97.0733 62.4058C97.5455 62.2057 97.9537 62.1577 98.3459 62.2537C98.6981 62.3418 98.9302 62.6059 99.0903 63.0781C99.3464 63.6704 99.3144 64.3267 99.0102 64.863C98.6741 65.4472 98.1778 65.8394 97.3934 66.1596C96.473 66.5438 95.5766 66.4317 94.7202 65.8394C93.8958 65.2632 93.1674 64.1746 92.6312 62.7019C92.0229 61.0451 91.8468 59.8205 92.0709 58.8441C92.311 57.8036 92.8633 57.1553 93.8477 56.7391C94.5361 56.4349 95.3445 56.4029 96.1929 56.659C97.0093 56.9872 97.8977 57.5555 98.9062 58.4039L100.067 57.3233L97.2974 53.6016L96.1368 54.0658L96.0568 54.7141H96.0168C95.4645 54.7141 94.9843 54.7141 94.5041 54.8742C94.0238 54.9542 93.5356 55.1143 93.0634 55.2744C91.1905 56.0107 89.9339 57.1553 89.2375 58.78C88.5172 60.3808 88.5172 62.1177 89.2375 63.9585C90.0699 65.9515 91.2225 67.3442 92.6632 68.1045C94.1679 68.8969 95.7767 68.9769 97.4415 68.3446C98.0978 68.0565 98.7701 67.7283 99.2743 67.3121C99.8586 66.8319 100.283 66.3437 100.627 65.7994L100.651 65.7674L100.683 65.7914L101.547 66.5678Z" fill="white"/>
<path d="M116.691 66.2407H116.667L114.161 66.0806L114.153 66.0566L112.897 60.1497L110.528 65.7604H110.504L107.918 65.5203L107.91 65.4963L105.669 54.9312C105.589 54.347 105.413 54.0348 105.277 53.8187L105.269 53.8027L105.277 53.7867C105.301 53.7147 105.293 53.6506 105.253 53.5946C105.181 53.4905 104.989 53.4265 104.749 53.4265H104.717V53.3945L104.877 51.7617L110.223 52.1699V52.2019L110.063 53.8347H109.951C109.711 53.8347 109.567 53.8347 109.503 53.9788L109.495 53.9868L109.487 53.9948C109.335 54.0748 109.263 54.2269 109.263 54.2829V54.8432C109.263 54.9633 109.279 55.0593 109.303 55.1553C109.327 55.2594 109.343 55.3554 109.343 55.4835L110.6 61.4544L112.4 56.9242L112.08 55.7316C111.928 55.1313 111.776 54.7151 111.608 54.459C111.472 54.2509 111.264 54.0908 110.904 53.9067L110.88 53.8987L111.048 52.322H111.08L116.635 52.7222V52.7542L116.474 54.387H116.442C116.042 54.387 115.73 54.387 115.578 54.467C115.49 54.515 115.274 54.6511 115.274 54.9152V55.4755L116.378 61.9266L118.579 56.588C118.603 56.524 118.627 56.452 118.659 56.3719C118.732 56.1798 118.82 55.9637 118.82 55.7957V55.7877C118.852 55.6996 118.868 55.6196 118.884 55.5555C118.908 55.4435 118.932 55.3634 118.98 55.3074C118.98 55.0753 118.892 54.9312 118.676 54.7872C118.443 54.6351 118.051 54.5551 117.491 54.475L117.459 54.467L117.627 52.8022L123.054 53.2104V53.2424L122.894 54.8672H122.87C122.245 54.9553 121.813 55.1393 121.525 55.4195C121.189 55.6676 120.869 56.1798 120.572 56.9322L116.691 66.2407Z" fill="black"/>
<path d="M121.451 55.3775C121.739 55.0894 122.179 54.9053 122.804 54.8173L122.956 53.2725L117.657 52.8803L117.505 54.4171C118.057 54.4971 118.45 54.5772 118.69 54.7372C118.93 54.8973 119.026 55.0654 119.026 55.3215V55.3375L119.018 55.3455C118.978 55.3855 118.954 55.4656 118.93 55.5696C118.914 55.6417 118.898 55.7137 118.866 55.8097C118.866 55.9858 118.778 56.2099 118.706 56.402C118.674 56.4741 118.65 56.5461 118.626 56.6181L116.345 62.1648L115.208 55.4896V54.9213C115.208 54.7052 115.336 54.5211 115.544 54.4091C115.704 54.329 116.016 54.329 116.409 54.329L116.561 52.7923L111.102 52.4001L110.95 53.8648C111.214 54.0009 111.486 54.161 111.662 54.4251C111.838 54.6892 111.999 55.1054 112.151 55.7137L112.471 56.9223V56.9303L110.59 61.6686L109.285 55.4816C109.285 55.3615 109.269 55.2655 109.245 55.1614C109.221 55.0574 109.205 54.9613 109.205 54.8333V54.281C109.205 54.193 109.285 54.0249 109.453 53.9369C109.541 53.7688 109.717 53.7688 109.958 53.7688H110.006L110.158 52.232L104.939 51.8398L104.787 53.3766C105.035 53.3846 105.227 53.4486 105.307 53.5687C105.355 53.6327 105.371 53.7127 105.339 53.8008C105.483 54.0169 105.652 54.337 105.74 54.9213L107.973 65.4624L110.486 65.6945L112.919 59.9397L112.943 60.0358L114.216 66.0146L116.649 66.1747L120.483 56.9143C120.787 56.1379 121.107 55.6337 121.451 55.3775Z" fill="white"/>
<path d="M129.806 71.6668C128.83 71.6668 127.758 71.2346 126.413 70.3222C124.916 69.2417 124.068 68.1932 123.756 67.0246C123.435 65.9041 123.732 64.7115 124.644 63.4789L127.525 59.477C128.342 58.3564 128.454 57.8682 128.398 57.6601C128.35 57.484 128.19 57.0198 127.613 56.6356L127.589 56.6196L127.605 56.5956L128.582 55.2109L128.606 55.2269L133.912 58.9247L133 60.2614L132.976 60.2454C132.456 59.9012 132.008 59.7891 131.727 59.9252C131.407 60.0052 130.927 60.4855 130.295 61.3579L127.493 65.3598C126.989 66.1122 126.781 66.7365 126.861 67.2567C126.933 67.833 127.261 68.3052 127.966 68.8335C128.71 69.3537 129.414 69.5538 130.183 69.4658C130.887 69.3057 131.527 68.8255 132.08 68.0411L134.641 64.4394C135.241 63.615 135.513 63.0387 135.513 62.6145C135.513 62.2783 135.241 61.8941 134.809 61.598L134.785 61.582L134.801 61.558L135.697 60.2534L135.721 60.2694L139.747 63.0867L139.731 63.1107L138.755 64.4954L138.731 64.4794C138.195 64.1192 137.834 64.0232 137.562 64.1592C137.226 64.2473 136.738 64.7675 136.218 65.5919L133.816 68.9535C132.696 70.4743 131.559 71.3707 130.439 71.6108C130.231 71.6428 130.023 71.6668 129.806 71.6668Z" fill="black"/>
<path d="M133.769 68.912L136.17 65.5504C136.707 64.702 137.203 64.1817 137.547 64.0937C137.835 63.9496 138.203 64.0456 138.747 64.3978L139.668 63.0852L135.722 60.3239L134.882 61.5485C135.322 61.8526 135.586 62.2528 135.586 62.597C135.586 63.0372 135.306 63.6214 134.698 64.4538L132.136 68.0556C131.576 68.856 130.92 69.3442 130.199 69.5123C129.407 69.6003 128.687 69.3922 127.934 68.864C127.214 68.3277 126.878 67.8395 126.798 67.2392C126.718 66.7029 126.934 66.0626 127.446 65.2942L130.247 61.2923C130.896 60.3959 131.376 59.9237 131.704 59.8356C132 59.6836 132.456 59.7956 132.985 60.1398L133.825 58.9152L128.599 55.2734L127.678 56.5781C128.078 56.8582 128.367 57.2344 128.463 57.6186C128.543 57.9387 128.246 58.571 127.574 59.4835L124.693 63.4854C123.796 64.702 123.5 65.8785 123.82 66.9831C124.124 68.1356 124.965 69.1761 126.454 70.2486C128.07 71.3532 129.303 71.7453 130.431 71.5212C131.536 71.2971 132.657 70.4167 133.769 68.912Z" fill="white"/>
<path d="M70.6426 79.1727C72.4835 80.1331 74.4044 80.4533 76.3253 79.893C78.7265 79.1727 81.2877 78.0521 82.4883 75.5709C82.6484 75.1707 82.4082 74.8506 82.0881 74.8506C80.4873 74.6905 78.8065 74.6905 77.2057 74.8506C76.8856 74.8506 76.8856 75.4109 76.7255 75.4909C76.2453 75.9711 75.2848 75.2508 74.8846 75.0107C71.9232 72.8496 68.9618 69.6481 65.4401 71.2489C62.5587 72.5295 61.4382 75.731 58.7969 77.5719C58.2366 77.9721 57.3562 78.4523 56.876 77.9721C56.3958 77.4919 57.1961 76.9316 57.5963 76.3713C57.8365 76.0512 57.5163 75.651 57.1961 75.651C46.551 74.2103 36.7863 79.0926 29.2627 86.3761C28.8625 86.7763 29.743 87.8969 29.1027 88.217C26.3013 89.5777 23.2598 90.0579 21.0988 92.459C20.5385 93.0994 20.0583 93.9798 19.8982 94.8602C19.498 97.0212 21.9792 97.0212 23.4199 96.8612C29.1827 96.3009 29.1027 89.9779 31.2637 85.8959C31.3437 85.7358 32.2242 85.7358 32.2242 85.8959C32.6243 86.7763 31.1036 88.6172 31.7439 88.2971C34.5453 87.0164 37.3466 85.4157 40.148 83.4147C40.8683 82.9345 41.6687 82.7744 42.5491 82.9345C39.8278 86.056 35.4257 86.5362 32.8645 89.9779C31.4238 91.8988 30.0631 93.9798 30.8635 96.3809C31.0236 96.8612 31.824 97.3414 32.3042 97.1013C32.7844 96.9412 32.8645 95.9807 33.2647 95.6606C38.5472 92.1389 42.4691 87.8969 47.9917 85.0955C50.8731 83.6548 54.3148 83.0946 57.2762 84.2951C59.2771 85.0955 59.4372 87.2566 58.7969 89.0174C58.2366 90.5381 56.796 91.4986 55.2752 92.379C57.5163 95.3404 59.3572 98.4619 61.9184 101.263C65.3601 105.025 69.2019 108.067 72.4034 111.988C66.0804 110.067 63.199 103.504 57.2762 100.943C56.876 100.783 56.4758 101.103 56.5558 101.343C56.7159 101.904 57.0361 102.624 57.3562 102.864C61.118 105.345 65.5201 107.666 66.1604 112.389C66.2405 112.629 65.6802 113.029 65.5201 112.709C63.8393 109.587 61.6783 107.106 58.8769 105.025C58.2366 108.307 60.8779 111.508 59.1971 114.79C59.1171 114.87 58.7169 114.79 58.4768 114.79C58.7969 108.147 56.796 100.703 50.8731 97.6615C45.1103 94.7001 39.9879 101.583 34.7053 104.065C33.905 104.465 32.9445 104.865 31.904 104.625C34.2251 102.144 38.7073 101.744 39.5077 98.7821C39.8278 97.7416 36.5462 96.541 35.3457 98.2218C35.1055 98.542 36.3061 98.8621 36.7863 99.3424C32.3042 100.783 27.822 97.6615 23.3399 99.3424C25.8211 100.623 28.4623 99.9827 31.0236 101.023C31.1036 101.103 31.1036 101.663 31.0236 101.663C30.0631 102.144 28.4623 101.103 27.9821 102.224C26.6215 105.585 22.2994 105.905 19.498 108.067C18.2174 109.027 18.1374 107.826 17.5771 106.626C16.6967 107.746 15.8963 106.546 15.5762 105.825C14.7758 106.626 13.9754 107.426 13.095 108.307C13.8153 108.867 15.256 108.947 14.2155 109.827C13.6552 110.308 13.095 109.587 12.6948 109.107C11.094 111.028 10.3737 113.669 12.7748 114.55C14.3756 115.11 15.8163 113.269 17.337 112.149C17.9773 111.668 18.4575 113.269 19.2579 113.429C21.8192 113.909 24.9407 115.75 26.7015 113.669C27.662 112.469 28.3823 110.708 29.1027 109.027C29.3428 108.467 29.9831 107.826 30.6234 108.307C32.0641 109.347 31.6639 112.389 32.6243 112.229C36.6263 111.508 37.5867 106.386 40.9483 103.825C44.47 101.103 50.2328 99.3424 52.9541 103.825C58.6368 113.349 53.8345 123.434 52.0737 133.519C51.1933 138.561 51.3533 145.204 57.5963 146.005C67.2009 147.285 74.0042 139.041 77.1257 130.958C77.6059 129.677 77.5259 128.236 77.9261 126.876C78.5664 124.634 76.6455 122.553 77.3658 120.472C77.4459 120.232 78.3263 121.273 78.7265 120.713C81.2077 117.751 82.5683 113.589 81.2877 109.747C80.7274 110.308 80.0871 110.868 79.2868 110.948C79.5269 108.467 81.5278 106.786 82.0081 104.385C82.5683 102.064 82.3282 99.6625 81.5278 97.5815C79.5269 92.379 76.6455 87.1765 71.6831 84.4552C70.9628 84.055 71.443 87.9769 70.1624 86.9364C68.8818 85.9759 70.9628 82.7744 70.2424 81.4938C69.5221 80.2132 67.361 77.3318 65.2 79.4128C64.7998 79.813 65.28 78.6924 64.9599 78.3723C65.6002 78.2122 65.1199 77.3318 65.7603 77.1717C65.0399 76.3713 64.7998 75.4109 64.9599 74.2903C67.6011 75.0907 68.4015 77.9721 70.6426 79.1727ZM15.6562 112.789C15.4161 113.029 14.7758 113.029 14.5357 112.789C14.2955 112.549 14.2955 111.908 14.5357 111.668C14.7758 111.428 15.4161 111.428 15.6562 111.668C15.8963 111.908 15.8963 112.549 15.6562 112.789ZM20.5385 111.908C20.3785 112.068 19.9783 112.068 19.8182 111.908C19.6581 111.748 19.6581 111.348 19.8182 111.188C19.9783 111.028 20.3785 111.028 20.5385 111.188C20.6986 111.348 20.6986 111.748 20.5385 111.908ZM25.5009 109.907C25.0207 109.907 24.4604 110.148 24.3003 109.507C24.1403 109.107 24.3804 108.867 24.7005 108.707C24.9407 108.627 25.3408 108.627 25.4209 108.707C25.661 109.027 25.5009 109.507 25.5009 109.907ZM28.2222 106.226C28.2222 106.386 27.742 106.306 27.5019 106.226C27.1817 106.146 26.9416 105.825 27.1017 105.425C27.3418 104.865 27.9021 105.025 28.3023 105.025C28.3023 105.425 28.4623 105.906 28.2222 106.226ZM34.065 108.307C33.8249 108.387 33.4247 108.387 33.3447 108.307C33.1846 107.986 33.1046 107.426 33.3447 107.186C33.5848 106.946 34.065 107.106 34.4652 107.106C34.4652 107.506 34.6253 108.067 34.065 108.307ZM37.2666 106.146C37.1065 106.386 36.7863 106.226 36.4662 106.226H35.6658C35.6658 105.745 35.4257 105.185 36.066 105.025C36.4662 104.945 37.0265 104.785 37.2666 105.425C37.3466 105.665 37.4267 106.066 37.2666 106.146ZM67.0409 115.59C66.8008 115.83 66.4006 115.59 66.3205 115.19C66.1604 114.63 66.0804 113.989 66.4006 113.589C66.5606 113.349 67.0409 113.669 67.1209 113.989C67.281 114.55 67.361 115.19 67.0409 115.59ZM74.0042 113.669C75.2048 114.39 75.685 115.75 76.4854 116.871C78.3263 112.869 76.5654 108.707 76.4854 104.625C76.7255 104.625 77.2057 104.545 77.2057 104.625C78.7265 108.627 79.2067 113.029 78.0061 117.191C77.9261 117.351 77.1257 117.031 76.9656 117.671C76.8056 118.311 76.8856 119.032 76.8856 119.672C75.4449 119.512 75.5249 117.911 74.8046 116.871C74.1643 115.83 73.1238 115.11 72.8837 113.989C72.8036 113.509 73.6841 113.509 74.0042 113.669Z" fill="white"/>
<path d="M53.3549 90.2963C53.3549 90.7765 54.0753 91.4168 54.7956 91.0967C56.3163 90.2963 59.1977 88.1352 57.1167 86.9347C54.3954 85.4139 50.5536 86.5345 48.3125 89.0957C49.5131 89.816 50.7137 88.7755 51.9943 89.0957C53.1948 89.3358 54.3954 87.655 55.0357 88.4554C55.7561 89.4159 53.3549 89.4159 53.3549 90.2963Z" fill="white"/>
<path d="M45.0307 95.7419C46.8715 95.6618 49.3527 95.982 50.4733 93.6609C51.0335 92.5403 51.6738 90.7795 50.3132 90.4594C47.752 89.819 45.831 91.9 43.8301 93.1807C44.7905 93.901 44.3103 95.8219 45.0307 95.7419Z" fill="white"/>
<path d="M18.1377 107.023C18.6179 106.142 19.4983 105.262 19.2582 104.221C19.0981 103.501 18.6179 103.981 18.1377 104.141C17.3373 104.462 16.8571 105.102 16.1367 105.422C17.3373 105.982 17.7375 105.742 18.1377 107.023Z" fill="white"/>
<path d="M38.868 115.832C37.0271 116.873 35.7465 113.271 34.2258 114.231C32.8651 115.112 34.706 118.794 36.4668 118.714C37.1072 118.714 37.5874 117.273 38.4678 117.753C39.4283 118.313 40.0686 119.514 41.029 119.994C43.11 120.955 45.031 117.833 46.3916 118.874C49.0329 120.955 51.5941 120.474 53.515 118.393C54.3955 117.433 54.4755 115.592 53.8352 115.032C52.9548 114.231 51.434 113.831 49.9933 113.511C47.9924 113.111 47.6722 116.713 46.0715 115.352C44.7108 114.151 41.7494 113.751 42.5498 112.551C43.2701 111.43 44.8709 113.191 46.3116 113.831C47.192 114.231 47.9924 112.791 49.193 113.351C49.5931 113.511 49.273 112.23 49.5931 112.07C51.1139 111.11 51.6741 113.271 53.1949 113.511C53.435 113.511 53.9152 113.111 53.9152 112.791C53.9953 110.79 53.8352 107.828 52.3145 107.588C50.0734 107.188 49.273 111.03 46.3916 108.148C44.7908 106.548 43.5102 110.069 41.3492 110.309C41.4292 109.429 40.3887 108.869 40.1486 108.869C38.1477 109.109 36.787 111.19 35.8265 112.871C35.2663 113.911 37.3473 113.911 38.0676 114.792C38.7079 114.311 39.2682 113.831 39.7484 113.191C40.2287 112.551 40.869 112.871 41.4292 112.791C41.4292 114.471 39.9885 115.272 38.868 115.832Z" fill="white"/>
<path d="M32.4661 117.594C33.0264 115.594 31.1855 113.352 30.3851 111.191C29.1045 112.872 27.5037 114.873 28.2241 116.794C28.7043 117.995 32.1459 118.635 32.4661 117.594Z" fill="white"/>
<path d="M20.5389 117.829C22.4598 117.268 24.8609 118.469 26.3016 116.468C24.941 115.508 23.4202 116.628 22.2997 116.228C21.0191 115.748 19.4984 114.787 18.0577 115.508C17.8176 115.588 16.9371 114.707 16.617 115.027C15.8166 115.828 14.2158 116.308 14.2959 117.349C14.3759 118.069 15.4164 118.709 16.1367 119.43C17.1772 117.429 18.9381 118.229 20.5389 117.829Z" fill="white"/>
<path d="M46.1514 125.353C40.1485 122.552 34.4658 118.87 27.7426 118.63C21.0194 118.39 14.2161 120.791 9.33374 125.753C9.17366 125.993 8.61339 125.833 8.2132 125.833C7.97308 124.152 9.57385 123.752 10.4543 122.632C10.8545 122.071 12.055 121.911 11.895 121.431C11.0145 119.51 8.53335 119.59 6.85255 119.99C3.81109 120.631 1.3299 123.992 2.13028 127.034C3.0107 130.235 6.61243 131.516 9.65389 130.635C17.6577 128.394 25.1813 124.472 33.7455 126.153C36.0666 126.634 39.8284 126.233 40.7088 129.115C37.027 128.234 32.2247 126.153 28.8631 128.314C31.5844 129.995 35.3462 129.435 37.4272 131.996C34.6259 131.996 32.3048 130.475 29.6635 130.075C27.3424 129.755 25.0213 128.554 22.8602 129.355C20.219 130.315 17.1775 130.715 15.0165 132.796C17.8978 137.439 21.9798 142.161 27.6625 142.961C27.8226 141.12 25.4215 140.8 25.3414 139.28C25.3414 138.719 26.2218 138.719 26.3819 138.959C32.5449 146.643 42.3896 145.042 50.5535 142.961C49.5931 137.359 51.1138 131.596 51.1938 126.233C51.1938 125.433 47.9123 126.153 46.1514 125.353ZM45.1109 130.795C44.3906 130.715 43.5902 130.956 43.0299 130.315C42.7098 129.915 41.8293 129.515 42.3096 129.275C43.11 128.795 44.3105 129.195 45.0309 129.995C45.191 130.155 45.1109 130.475 45.1109 130.795Z" fill="white"/>
<path d="M15.5767 136.96C13.9759 134.799 11.8149 131.758 8.77344 133.599C9.01355 139.442 15.8969 144.324 21.4195 142.563C19.5786 140.562 17.3375 139.282 15.5767 136.96Z" fill="white"/>
<path d="M47.9118 74.2913C48.392 74.2913 48.9523 73.571 49.1124 72.8506C49.9128 69.2489 55.9957 66.5276 53.1943 63.0859C51.1133 67.408 45.8308 67.7282 42.7093 70.9297C41.4287 72.2103 39.8279 74.4514 40.5483 75.4119C41.9089 77.4128 45.1105 74.1312 47.9118 74.2913Z" fill="white"/>
<path d="M9.81496 118.235C11.2556 118.155 11.976 118.955 12.7764 119.756C12.6163 116.154 9.4948 114.233 8.29423 111.191C7.97407 113.673 6.29327 118.315 9.81496 118.235Z" fill="white"/>
</g>
<defs>
<clipPath id="clip0_154_2360">
<rect width="200" height="200" fill="white"/>
</clipPath>
</defs>
</svg>
