<svg width="200" height="200" viewBox="0 0 200 200" fill="none" xmlns="http://www.w3.org/2000/svg">
<g clip-path="url(#clip0_154_2363)">
<path d="M25.6011 22.0273C28.5293 25.6655 31.744 29.1207 35.5418 31.8661C36.7769 32.6862 37.9676 33.5789 39.3016 34.2376C42.4538 36.0772 45.9205 37.3157 49.4482 38.21C57.3581 40.5138 65.3768 42.426 73.4203 44.2113C88.2358 47.4705 103.155 50.2472 118.12 52.7356C125.189 53.8736 132.19 55.4859 138.998 57.714C143.922 59.3413 148.715 61.3784 153.275 63.8522C157.348 66.0803 161.219 68.7598 164.45 72.1145C167.378 75.1005 169.965 78.5901 171.189 82.6351C174.771 83.4386 178.292 84.7332 181.298 86.8773C185.058 89.5241 188.057 93.4684 188.999 98.0221C189.445 102.419 189.381 106.92 188.294 111.225C187.386 114.776 185.66 118.226 182.895 120.69C185.496 120.698 188.098 120.69 190.698 120.695C190.097 123.643 189.493 126.591 188.887 129.539C192.003 129.988 195.094 131.197 197.393 133.399C198.07 134.046 197.905 135.059 197.925 135.904C197.933 139.465 197.902 143.027 197.94 146.586C198.412 147.711 199.066 148.77 199.391 149.964C200.221 152.786 200.244 155.894 199.206 158.669C198.845 159.509 198.537 160.377 198.096 161.181C196.527 164.045 193.674 166.22 190.426 166.752C188.895 166.976 187.388 167.437 185.83 167.411C184.62 167.335 183.396 167.309 182.213 167.004C181.235 166.755 180.224 166.846 179.228 166.834C167.416 166.833 155.604 166.834 143.792 166.833C142.463 169.298 141.169 171.78 139.881 174.265C137.804 170.337 135.772 166.382 133.679 162.464C133.641 162.457 133.565 162.442 133.527 162.436C131.437 166.364 129.39 170.319 127.325 174.262C125.861 171.525 124.443 168.765 123.038 165.998C119.738 167.698 116.444 169.408 113.148 171.116C112.216 171.574 111.329 172.123 110.364 172.51C109.644 169.568 108.932 166.625 108.183 163.691H106.207C105.314 166.568 104.484 169.463 103.629 172.352C100.406 170.742 97.2114 169.079 94.0131 167.419C93.5537 167.208 93.1354 166.831 92.6067 166.834C83.3676 166.828 74.1301 166.843 64.891 166.828C64.9536 166.549 65.0145 166.273 65.0755 165.996C62.4355 166.887 59.6292 166.994 56.8673 166.93C55.2006 166.932 53.5325 166.927 51.8658 166.933C51.8642 168.045 51.8675 169.157 51.8625 170.27C47.9594 169.448 44.0546 168.628 40.1531 167.796C40.1514 167.474 40.1498 167.152 40.1465 166.833C39.1748 166.831 38.2032 166.836 37.2315 166.83C33.0171 170.489 28.9196 174.278 24.7332 177.971C24.7167 174.259 24.7332 170.546 24.7249 166.836C16.4838 166.826 8.24274 166.843 0 166.828C0.833332 162.93 1.64196 159.028 2.47694 155.132C2.82608 155.128 3.17522 155.128 3.52437 155.127C3.52931 150.596 3.52766 146.065 3.52601 141.533C3.17522 141.53 2.82443 141.528 2.47381 141.528C1.64196 137.633 0.811922 133.737 0 129.838C3.83563 129.827 7.66962 129.84 11.5052 129.832C10.8613 126.788 10.2075 123.748 9.6179 120.695C19.6607 120.693 29.7018 120.695 39.7446 120.693C40.3622 120.672 40.9897 120.749 41.6024 120.652C42.5147 120.023 43.3728 119.315 44.2176 118.597C38.493 117.141 33.0599 114.707 27.9397 111.789C22.1508 108.468 16.688 104.598 11.5217 100.379C7.50822 97.1458 3.8274 93.5326 0.0197633 90.0659C3.27074 90.611 6.50361 91.2846 9.76941 91.7375C10.2915 91.4098 10.6785 90.904 11.1825 90.5501C14.6014 88.0715 17.9315 85.4447 21.6287 83.3828C26.1478 80.863 30.9436 78.8159 35.9453 77.4721C40.6076 76.1346 45.4413 75.4693 50.2848 75.2949C48.7861 74.379 47.2644 73.4981 45.746 72.6121C43.5638 71.4871 41.4031 70.3178 39.1732 69.2852C33.7713 66.7656 28.2229 64.5602 22.5823 62.635C20.7641 62.0439 18.9179 61.5381 17.0998 60.9436C19.6887 59.9573 22.304 59.0284 24.9489 58.1949C30.6258 56.5167 36.5398 55.7972 42.4373 55.4991C37.7091 50.1236 33.7302 44.0942 30.6044 37.6533C28.1307 32.7585 26.0046 27.5527 25.6011 22.0273Z" fill="white"/>
<path d="M28.6565 28.1406C29.8258 29.7233 31.2076 31.1396 32.7491 32.3616C37.0063 35.6882 42.0261 37.9 47.1479 39.5224C62.9185 44.1681 79.0285 47.536 95.1615 50.6421C103.396 52.2066 111.65 53.6707 119.926 55.0016C126.375 56.1427 132.765 57.6628 138.982 59.7331C144.6 61.6219 150.087 63.9838 155.132 67.1145C158.769 69.3905 162.174 72.0947 164.953 75.3803C167.128 77.9874 168.981 80.9862 169.681 84.346C173.487 85.0493 177.268 86.3026 180.424 88.6C183.722 90.9666 186.293 94.4924 187.123 98.5044C187.489 102.576 187.444 106.739 186.42 110.719C185.669 113.631 184.355 116.462 182.252 118.648C181.288 119.656 180.168 120.528 178.887 121.092C178.536 118.835 178.192 116.579 177.846 114.324C174.533 115.831 171.017 116.991 167.369 117.274C163.818 117.548 160.066 117.068 156.987 115.178C148.174 115.81 139.448 117.318 130.822 119.198C126.904 120.061 123.002 121.006 119.13 122.065C118.646 122.203 118.142 122.301 117.709 122.57C128.057 122.638 138.407 122.58 148.755 122.6H188.418C187.812 125.514 187.211 128.428 186.606 131.344C189.818 131.36 193.118 132.251 195.62 134.331C195.778 134.494 196.066 134.619 196.02 134.897C196.028 138.188 196.02 141.48 196.025 144.772C195.359 144.937 194.694 145.1 194.027 145.252C195.465 146.464 196.67 147.986 197.341 149.756C198.452 152.699 198.388 156.113 197.026 158.965C196.267 160.518 195.149 161.923 193.722 162.913C191.703 164.46 189.2 165.382 186.656 165.492C185.804 165.545 184.956 165.439 184.109 165.398C183.072 165.341 182.087 164.897 181.043 164.934C176.96 164.94 172.879 164.932 168.797 164.937C168.133 164.252 167.479 163.555 166.815 162.872C166.937 163.559 167.064 164.247 167.192 164.935C160.783 164.937 154.374 164.935 147.964 164.935C148.534 162.304 149.104 159.672 149.674 157.04C150.117 157.04 150.563 157.039 151.01 157.04C151.01 154.354 151.011 151.666 151.01 148.98C147.297 156.049 143.61 163.13 139.878 170.189C137.783 166.194 135.693 162.195 133.599 158.2C131.505 162.195 129.415 166.194 127.321 170.189C126.145 167.933 124.97 165.678 123.798 163.422C119.769 165.52 115.74 167.615 111.711 169.713C111.046 167.073 110.379 164.435 109.714 161.796H104.776C104.009 164.433 103.253 167.073 102.487 169.711C99.45 168.135 96.4494 166.477 93.3911 164.952C84.6543 164.914 75.9125 164.947 67.1741 164.935C67.3322 164.148 67.4854 163.359 67.6434 162.572C66.0756 163.499 64.3941 164.272 62.5957 164.611C60.1813 165.187 57.6813 165.008 55.2225 165.039H49.9526V167.895C47.3209 167.356 44.6908 166.818 42.059 166.281C42.0574 165.831 42.0574 165.383 42.0574 164.935C40.1931 164.934 38.3288 164.939 36.4645 164.934C33.1822 167.85 29.9164 170.785 26.6391 173.708C26.6374 170.783 26.6391 167.86 26.6391 164.937C18.5528 164.935 10.4665 164.937 2.38025 164.935C2.91714 162.304 3.45567 159.672 3.99586 157.04C4.47181 157.04 4.94776 157.039 5.42372 157.04C5.42537 151.235 5.42537 145.43 5.42372 139.626C4.94612 139.624 4.47016 139.624 3.99256 139.626C3.45403 136.994 2.91549 134.362 2.37695 131.731C6.18129 131.734 9.98728 131.709 13.7933 131.643C13.1889 128.629 12.5844 125.614 11.9784 122.6C22.0673 122.599 32.1562 122.599 42.2435 122.6C44.396 120.876 46.5715 119.178 48.8031 117.559C44.0896 116.876 39.536 115.355 35.2129 113.383C28.8196 110.439 22.8545 106.635 17.232 102.416C13.3255 99.5107 9.60026 96.3668 5.98861 93.1026C14.6744 94.6145 23.6236 95.2123 32.3604 93.7597C34.4108 93.4172 36.4464 92.9643 38.4325 92.3417C31.2092 90.5417 23.8048 89.5303 16.3773 89.1039C25.3265 82.3121 36.2735 78.2673 47.4592 77.3714C50.4368 77.1277 53.4407 77.0798 56.4149 77.3976C53.8638 75.326 51.1104 73.5208 48.2794 71.8607C43.9151 69.3148 39.3433 67.1424 34.699 65.1611C30.8683 63.5439 26.9783 62.0617 23.034 60.7493C24.4289 60.3423 25.809 59.883 27.2122 59.5026C29.1325 59.0907 31.0462 58.6279 32.9912 58.3415C37.5926 57.6465 42.2468 57.3023 46.8993 57.3204C42.227 52.8604 38.3222 47.6449 35.0926 42.0617C32.5449 37.6251 30.3117 32.9875 28.6565 28.1406ZM43.4803 46.3124C44.391 47.4423 45.5439 48.3382 46.5765 49.3492C50.59 52.9708 54.9047 56.2629 59.4748 59.15C63.9643 61.9414 68.704 64.3607 73.704 66.0902C75.6062 66.688 77.4936 67.3597 79.4731 67.6629C78.4998 67.6415 77.571 67.3186 76.6042 67.2428C66.988 65.6685 57.3553 64.1583 47.6568 63.1834C46.168 63.0992 44.6891 62.8505 43.1954 62.8688C47.2632 64.9571 51.2668 67.172 55.1451 69.5948C59.5736 72.3713 63.8984 75.3587 67.7439 78.9129C69.684 80.7756 71.5828 82.7486 72.8477 85.1497C69.8898 84.6771 66.9336 84.1715 63.9511 83.8586C58.6497 83.2985 53.3041 82.9592 47.9747 83.2754C43.365 83.5471 38.7224 84.2471 34.4355 86.0307C42.418 87.8933 50.445 89.8879 57.9136 93.3363C60.4975 94.6291 63.1985 95.9977 65.0381 98.2953C64.6428 98.5109 64.208 98.636 63.7782 98.7647C56.9781 100.822 49.9641 102.24 42.8693 102.704C41.8235 102.712 40.781 102.77 39.7385 102.849C37.0607 102.697 34.3548 102.78 31.7066 102.273C30.0762 102.058 28.4869 101.635 26.9009 101.21C31.3492 104.222 36.1648 106.663 41.1005 108.765C45.8205 110.749 50.7299 112.315 55.7677 113.254C59.8091 114.056 63.9626 114.297 68.0733 114.023C69.488 113.926 70.8829 113.636 72.2992 113.579C71.0674 113.857 69.9079 114.369 68.7073 114.753C64.8552 116.11 61.069 117.663 57.4096 119.481C55.5124 120.458 53.584 121.396 51.8153 122.597C53.5544 122.65 55.2933 122.608 57.0325 122.622C74.4501 122.625 91.8694 122.613 109.289 122.628C110.708 121.628 112.103 120.584 113.399 119.428C112.421 119.634 111.491 120.011 110.522 120.253C108.216 120.899 105.856 121.383 103.467 121.554C101.234 121.823 98.9296 121.662 96.7952 120.93C96.7919 120.878 96.787 120.774 96.7837 120.721C100.066 119.628 103.269 118.3 106.346 116.719C111.418 114.105 116.25 110.836 120.017 106.507C120.234 106.284 120.367 106.003 120.468 105.713C115.318 105.053 110.033 105.145 104.962 106.329C104.178 106.507 103.417 106.77 102.627 106.917C104.99 102.185 107.446 97.4965 110.046 92.8935C109.081 92.7996 108.134 92.597 107.194 92.3681C102.966 91.2877 98.8522 89.3329 95.761 86.1955C96.6437 86.1674 97.4985 86.4341 98.3763 86.4804C102.979 86.9234 107.726 85.2599 111.048 82.0419C111.194 81.9118 111.604 81.4706 111.214 81.3964C108.465 80.6782 105.647 80.2255 102.821 79.924C100.741 79.7495 98.6529 79.5682 96.5647 79.7115C95.318 79.8367 94.0597 79.8778 92.8279 80.1331C92.1213 80.222 91.4477 80.5022 90.7313 80.5053C95.3723 77.5952 100.483 75.5104 105.684 73.8388C105.606 73.5817 105.479 73.348 105.224 73.2375C102.06 71.4854 99.3529 68.7827 97.9201 65.4314C102.851 68.8948 108.974 70.5811 114.979 70.2288C116.413 70.0213 117.866 69.9404 119.275 69.5781C117.652 68.745 116.033 67.8984 114.494 66.9152C114.098 66.6517 113.627 66.4228 113.444 65.9469C114.916 66.141 116.349 66.5495 117.808 66.8212C124.577 68.2706 131.334 69.7776 138.07 71.3749C143.239 72.5954 148.394 73.8765 153.506 75.3194C156.066 76.0671 158.635 76.823 161.074 77.9131C157.999 74.6442 154.224 72.1244 150.328 69.9439C146.207 67.6694 141.854 65.8314 137.401 64.3164C125.049 60.1579 112.014 58.3973 99.035 57.8425C97.0027 57.704 94.9589 57.8425 92.93 57.6381C85.9998 57.4536 79.1322 56.3174 72.3585 54.8945C63.4389 52.9462 54.6692 50.3407 46.084 47.2379C45.2178 46.9268 44.3647 46.5727 43.4803 46.3124ZM132.77 76.3586C132.451 76.4622 132.151 76.6188 131.854 76.7719C136.828 77.0635 141.818 77.8951 146.476 79.715C148.898 80.7013 151.263 81.93 153.23 83.6772C153.633 84.0183 153.941 84.4696 154.376 84.7759C156.911 84.9834 159.543 83.6675 160.882 81.5051C160.277 80.8248 159.437 80.3885 158.673 79.9058C156.073 78.4106 153.248 77.3615 150.402 76.4409C144.733 74.4991 138.47 74.5816 132.77 76.3586ZM139.078 82.2181C138.116 83.2326 137.429 84.5223 137.192 85.9057C137.044 87.2627 137.149 88.6937 137.787 89.9241C138.699 91.8656 140.555 93.2523 142.596 93.824C145.282 94.5947 148.348 93.9837 150.476 92.154C151.897 90.9732 152.818 89.2339 153.017 87.3978C151.528 86.818 150.158 85.9913 148.824 85.1232C147.541 84.267 146.051 83.8108 144.587 83.3742C142.96 82.9295 141.326 82.4981 139.674 82.1604C139.48 82.1522 139.223 82.0402 139.078 82.2181ZM158.461 89.1237C157.295 90.3441 156.359 91.7555 155.458 93.1734C151.574 95.3918 147.055 96.0012 142.701 96.6599C140.236 97.0468 137.726 97.541 135.534 98.7892C133.656 99.9272 132.212 101.615 130.84 103.299C129.238 105.395 127.787 107.61 126.553 109.945C128.325 109.397 130.124 108.933 131.955 108.633C137.246 107.711 142.648 108.2 147.92 108.995C151.966 109.631 156.053 109.947 160.116 110.463C162.528 110.762 165 110.739 167.367 110.137C170.559 109.381 173.806 108.236 176.239 105.95C174.781 106.5 173.197 106.847 171.642 106.561C169.393 106.179 167.509 104.598 166.32 102.706C163.759 102.077 161.109 101.961 158.484 101.908C150.537 101.843 142.624 102.729 134.74 103.602C136.988 102.495 139.438 101.9 141.859 101.301C146.737 100.158 151.695 99.3559 156.674 98.7908C159.467 98.524 162.311 98.1683 165.093 98.7103C167.242 99.1253 169.315 100.132 170.814 101.752C171.581 99.0148 173.064 96.4458 175.279 94.6291C176.629 95.7128 177.919 96.887 179.025 98.2228C179.893 99.247 180.598 100.446 180.819 101.787C181.517 105.604 181.912 109.497 181.749 113.381C183.041 109.667 183.961 105.772 183.945 101.823C183.894 100.006 183.556 98.101 182.426 96.6237C181.384 95.2928 179.958 94.331 178.51 93.4913C174.468 91.22 170.022 89.779 165.564 88.5703C165.331 88.5176 165.223 88.2836 165.084 88.1189C164.552 87.3632 164.017 86.6105 163.479 85.8612C161.471 86.304 159.836 87.6611 158.461 89.1237ZM18.2745 126.184C18.3041 126.885 18.1559 127.63 18.3947 128.3C18.9579 129.273 20.2014 128.906 21.122 128.972V130.3C20.7745 130.298 20.4286 130.298 20.0811 130.3C20.0811 130.079 20.0828 129.86 20.0844 129.642C19.5097 129.639 18.9365 129.639 18.3618 129.641C18.3634 130.337 18.3618 131.034 18.3634 131.731C19.4537 131.722 20.5439 131.745 21.6342 131.722C22.2946 131.707 22.9336 131.184 22.9253 130.492C22.922 129.766 23.0538 128.995 22.8084 128.3C22.2221 127.373 20.9968 127.701 20.0828 127.645V126.4C20.4286 126.398 20.7745 126.398 21.1203 126.398C21.1203 126.589 21.122 126.782 21.122 126.976C21.6638 126.974 22.2056 126.974 22.7491 126.974C22.7491 126.339 22.7475 125.705 22.7475 125.071C21.6523 125.082 20.5571 125.048 19.4619 125.084C18.8756 125.103 18.2251 125.532 18.2745 126.184ZM28.9365 125.131C28.4655 125.211 28.1098 125.645 28.1015 126.12C28.0274 127.343 28.09 128.574 28.0669 129.8C28.0752 130.331 27.9994 130.984 28.4639 131.362C28.9777 131.825 29.7155 131.714 30.3496 131.734C30.9935 131.704 31.7626 131.866 32.2682 131.358C32.7787 130.614 32.6206 129.664 32.6503 128.814C32.6157 127.855 32.7376 126.88 32.5465 125.935C32.4625 125.446 32.0063 125.107 31.5221 125.1C30.6625 125.064 29.7913 125.021 28.9365 125.131ZM40.8222 125.069C40.8222 126.811 40.8205 128.555 40.8238 130.298C40.5076 130.298 40.1914 130.298 39.8769 130.3C39.8769 128.557 39.8752 126.815 39.8769 125.071C39.1111 125.069 38.3453 125.069 37.5794 125.071C37.5794 125.512 37.5794 125.955 37.5811 126.398C37.698 126.398 37.9352 126.4 38.0538 126.4C38.062 127.75 38.0356 129.101 38.0653 130.451C38.0307 131.039 38.4375 131.688 39.0666 131.717C39.8456 131.742 40.6279 131.742 41.4085 131.717C42.1644 131.722 42.642 130.92 42.6305 130.235C42.6437 128.955 42.6288 127.678 42.6354 126.398C42.7293 126.398 42.9203 126.4 43.0159 126.4V125.071C42.2846 125.069 41.5534 125.071 40.8222 125.069ZM47.6667 125.071V127.541C48.1163 127.539 48.5659 127.541 49.0155 127.541C49.0155 127.159 49.0155 126.777 49.0172 126.396C49.2329 126.396 49.4487 126.398 49.6644 126.401C49.6628 127.701 49.6644 128.998 49.6644 130.298C49.5458 130.3 49.3087 130.301 49.1901 130.301V131.731H51.868C51.8663 131.255 51.8663 130.78 51.8696 130.306C51.7741 130.303 51.5797 130.296 51.4842 130.293C51.4892 128.994 51.4842 127.696 51.4875 126.398C51.6522 126.398 51.9799 126.4 52.1446 126.4C52.143 126.778 52.1446 127.16 52.1446 127.543C52.5597 127.539 52.9747 127.541 53.3913 127.541V125.071H47.6667ZM58.042 125.071V126.396C58.1985 126.396 58.3566 126.398 58.5163 126.4V130.3C58.3978 130.3 58.1606 130.3 58.042 130.301V131.731C58.8045 131.731 59.5654 131.729 60.3279 131.732C60.3279 130.841 60.3263 129.952 60.3296 129.064C60.6441 129.063 60.9587 129.063 61.2749 129.064C61.2749 129.952 61.2749 130.84 61.2732 131.729C62.0391 131.732 62.8049 131.729 63.5707 131.731C63.5707 131.253 63.5707 130.777 63.5723 130.301C63.4537 130.301 63.2166 130.3 63.098 130.298C63.098 128.998 63.0964 127.697 63.098 126.398C63.2149 126.4 63.4521 126.4 63.5707 126.4V125.069C62.8049 125.069 62.039 125.071 61.2749 125.069C61.2732 125.927 61.2749 126.785 61.2749 127.643C60.9587 127.643 60.6425 127.643 60.3279 127.645C60.3263 126.786 60.3279 125.929 60.3279 125.071C59.5654 125.069 58.8045 125.069 58.042 125.071ZM68.4076 125.071C68.406 125.512 68.406 125.955 68.4076 126.398H68.8918V130.3H68.4076V131.731C70.0315 131.729 71.6536 131.731 73.2775 131.731C73.2758 130.968 73.2775 130.206 73.2758 129.445H71.6504C71.6487 129.728 71.6487 130.013 71.6504 130.3C71.3029 130.298 70.957 130.298 70.6112 130.3V128.88C71.0871 128.878 71.5647 128.878 72.0423 128.88C72.0407 128.498 72.0407 128.116 72.0423 127.737C71.5647 127.735 71.0871 127.735 70.6112 127.737V126.4C70.957 126.398 71.3029 126.398 71.6504 126.398C71.6487 126.686 71.6487 126.973 71.6504 127.263H73.1737C73.1721 126.531 73.1737 125.8 73.1737 125.069C71.5845 125.071 69.9969 125.069 68.4076 125.071ZM79.2574 125.071C78.9412 126.813 78.6266 128.555 78.3104 130.3C78.1918 130.3 77.9547 130.3 77.8361 130.301V131.731H79.9343C79.9985 131.192 80.0611 130.654 80.1204 130.115C80.4959 130.113 80.8746 130.113 81.2534 130.115C81.3473 130.654 81.4445 131.19 81.54 131.731C82.2086 131.731 82.8789 131.729 83.5492 131.731V130.3H83.0733C82.762 128.555 82.4409 126.813 82.1296 125.071C81.1711 125.069 80.2142 125.069 79.2574 125.071ZM88.1128 126.355C88.1424 127.019 87.9843 127.744 88.2791 128.363C88.8835 129.247 90.0594 128.911 90.9603 128.97C90.9586 129.413 90.9586 129.856 90.9603 130.3C90.6161 130.298 90.2735 130.298 89.931 130.3C89.9293 130.079 89.9309 129.86 89.9326 129.641C89.3545 129.639 88.7765 129.639 88.2001 129.641C88.2017 130.337 88.2001 131.034 88.2017 131.731C89.2327 131.727 90.2653 131.734 91.2979 131.731C91.7557 131.732 92.2761 131.629 92.5578 131.232C92.8707 130.706 92.7455 130.065 92.7751 129.486C92.7587 128.987 92.8641 128.368 92.4145 128.019C91.731 127.424 90.7511 127.71 89.931 127.643V126.4C90.2735 126.398 90.6144 126.398 90.9586 126.398C90.9586 126.589 90.9586 126.782 90.9619 126.976C91.5054 126.974 92.0522 126.974 92.5973 126.976V125.071C91.5515 125.076 90.5074 125.059 89.4632 125.074C88.7682 125.037 88.0469 125.626 88.1128 126.355ZM97.2383 125.071V127.541H98.5871C98.5871 127.159 98.5871 126.778 98.5887 126.398C98.8061 126.396 99.0251 126.398 99.2475 126.4C99.2442 127.699 99.2458 128.998 99.2458 130.298C99.124 130.3 98.8819 130.301 98.7616 130.301V131.731H101.439C101.438 131.255 101.438 130.78 101.441 130.308C101.346 130.303 101.151 130.296 101.056 130.291C101.061 128.994 101.056 127.696 101.059 126.398C101.224 126.398 101.551 126.4 101.716 126.4C101.715 126.778 101.715 127.159 101.716 127.539C102.13 127.539 102.545 127.541 102.96 127.543C102.963 126.717 102.961 125.894 102.963 125.071H97.2383ZM111.043 125.071C111.041 125.512 111.041 125.955 111.043 126.398C111.161 126.398 111.397 126.4 111.515 126.4C111.515 127.699 111.514 128.998 111.517 130.298C111.398 130.3 111.161 130.3 111.043 130.301C111.041 130.777 111.041 131.253 111.043 131.731C111.777 131.729 112.51 131.731 113.246 131.731C113.241 130.586 113.249 129.441 113.241 128.298C113.73 129.201 114.249 130.087 114.753 130.983C115.26 130.077 115.796 129.186 116.285 128.269C116.255 129.422 116.278 130.574 116.27 131.729C117.001 131.732 117.732 131.729 118.464 131.731C118.462 131.253 118.462 130.777 118.464 130.301C118.371 130.3 118.185 130.298 118.093 130.298C118.093 128.997 118.093 127.697 118.095 126.398C118.187 126.398 118.371 126.398 118.464 126.4C118.462 125.955 118.462 125.512 118.464 125.071C117.767 125.071 117.07 125.069 116.375 125.071C115.838 126.082 115.185 127.035 114.779 128.112C114.466 127.011 113.752 126.092 113.251 125.076C112.515 125.066 111.779 125.071 111.043 125.071ZM122.932 125.071C122.932 125.499 122.91 125.93 122.948 126.36C123.039 126.382 123.223 126.424 123.314 126.446C123.307 127.729 123.312 129.012 123.312 130.296C123.216 130.298 123.024 130.301 122.928 130.304C122.93 130.779 122.93 131.255 122.93 131.731C123.821 131.731 124.713 131.729 125.606 131.732C125.606 131.255 125.606 130.777 125.608 130.301C125.509 130.301 125.313 130.3 125.216 130.298V126.4C125.315 126.398 125.509 126.398 125.608 126.398C125.606 125.953 125.606 125.51 125.604 125.069C124.713 125.071 123.823 125.069 122.932 125.071ZM130.073 126.357C130.13 127.062 129.908 127.854 130.282 128.494C130.903 129.25 131.99 128.888 132.833 128.972C132.831 129.413 132.831 129.856 132.833 130.3C132.515 130.298 132.199 130.298 131.886 130.3C131.884 130.079 131.884 129.86 131.887 129.641C131.313 129.639 130.74 129.641 130.166 129.641C130.165 130.337 130.165 131.034 130.166 131.731C131.332 131.706 132.503 131.778 133.668 131.696C134.549 131.561 134.763 130.561 134.751 129.814C134.712 129.232 134.905 128.473 134.364 128.07C133.702 127.422 132.711 127.701 131.886 127.645C131.884 127.228 131.884 126.811 131.886 126.398C132.2 126.396 132.516 126.398 132.834 126.4C132.833 126.545 132.831 126.831 132.829 126.974C133.371 126.974 133.915 126.974 134.458 126.976C134.458 126.34 134.458 125.705 134.46 125.071C133.348 125.09 132.235 125.026 131.127 125.102C130.507 125.158 129.974 125.713 130.073 126.357ZM139.307 126.353C139.328 127.175 139.124 128.249 139.926 128.781C140.609 129.13 141.42 128.914 142.157 128.972C142.157 129.413 142.157 129.856 142.159 130.3C141.81 130.298 141.462 130.298 141.118 130.3C141.117 130.079 141.118 129.86 141.12 129.642C140.545 129.639 139.972 129.639 139.399 129.641V131.731C140.214 131.731 141.031 131.729 141.848 131.732C142.436 131.721 143.123 131.814 143.602 131.391C144.078 130.948 143.956 130.23 143.986 129.647C143.951 129.105 144.099 128.424 143.623 128.032C142.936 127.421 141.948 127.709 141.118 127.645V126.4C141.464 126.398 141.81 126.398 142.157 126.398C142.157 126.543 142.159 126.831 142.159 126.974H143.785V125.071C142.701 125.079 141.616 125.051 140.534 125.08C139.886 125.099 139.231 125.672 139.307 126.353ZM149.511 125.149C148.928 125.3 148.674 125.94 148.643 126.487C148.595 127.643 148.633 128.802 148.62 129.962C148.63 130.441 148.608 131.016 149.015 131.357C149.531 131.821 150.27 131.717 150.911 131.734C151.579 131.709 152.388 131.862 152.903 131.319C153.43 130.658 153.267 129.764 153.297 128.982C153.262 127.992 153.37 126.991 153.221 126.009C153.149 125.453 152.594 125.112 152.067 125.1C151.217 125.069 150.352 125.008 149.511 125.149ZM157.67 125.071C157.668 125.512 157.668 125.955 157.67 126.398C157.789 126.398 158.026 126.4 158.144 126.4C158.161 127.814 158.108 129.231 158.171 130.645C158.186 131.23 158.696 131.752 159.292 131.724C160.071 131.729 160.854 131.759 161.633 131.704C162.316 131.633 162.708 130.894 162.713 130.266C162.743 128.977 162.715 127.687 162.724 126.4C162.843 126.4 163.08 126.398 163.199 126.398C163.197 125.955 163.197 125.512 163.199 125.071C162.433 125.069 161.667 125.071 160.903 125.069C160.901 126.813 160.901 128.555 160.903 130.3C160.588 130.298 160.275 130.298 159.966 130.3V125.071C159.2 125.071 158.434 125.069 157.67 125.071ZM167.561 125.071C167.56 125.512 167.56 125.956 167.563 126.4C167.682 126.4 167.917 126.398 168.036 126.398V130.3C167.917 130.3 167.68 130.3 167.561 130.301C167.56 130.777 167.56 131.253 167.563 131.731C168.322 131.731 169.085 131.729 169.847 131.731C169.847 130.812 169.846 129.891 169.847 128.972C170.195 128.972 170.546 128.97 170.896 128.972C170.939 129.797 170.796 130.645 170.99 131.454C171.545 131.969 172.403 131.64 173.09 131.729C173.088 131.253 173.088 130.777 173.092 130.301C172.973 130.301 172.738 130.3 172.621 130.298C172.622 129.748 172.639 129.186 172.448 128.662C172.232 128.567 172.018 128.476 171.805 128.387C172.151 128.183 172.55 127.943 172.634 127.514C172.731 126.973 172.757 126.405 172.64 125.868C172.489 125.295 171.863 125.067 171.326 125.074C170.071 125.061 168.816 125.074 167.561 125.071ZM177.464 125.071C177.463 125.512 177.463 125.953 177.464 126.398C177.56 126.398 177.749 126.4 177.845 126.4C177.845 127.697 177.841 128.995 177.848 130.293C177.751 130.296 177.558 130.303 177.461 130.306C177.463 130.78 177.463 131.255 177.464 131.731C178.352 131.729 179.241 131.73 180.131 131.729C180.129 131.253 180.129 130.777 180.131 130.303C180.035 130.301 179.844 130.298 179.747 130.295C179.75 128.997 179.748 127.699 179.748 126.4C179.844 126.4 180.035 126.398 180.131 126.396C180.129 125.953 180.129 125.51 180.131 125.069C179.24 125.071 178.352 125.069 177.464 125.071ZM93.7303 156.731C93.7271 150.612 93.7304 144.494 93.7287 138.376C93.7369 138.051 93.7304 137.72 93.8226 137.409C94.343 137.132 94.9738 137.287 95.5419 137.246C95.7659 136.202 95.9833 135.155 96.2122 134.11C92.0225 134.102 87.8328 134.11 83.6414 134.107C83.6398 135.153 83.6414 136.199 83.6414 137.244C84.2327 137.291 85.3361 137.034 85.4267 137.883C85.4662 140.051 85.43 142.221 85.4432 144.39H80.9866V139.362C80.9899 138.697 80.952 138.03 81.0624 137.373C81.6273 137.231 82.2103 137.236 82.7884 137.244C82.7867 136.199 82.7884 135.153 82.7884 134.107C78.5673 134.107 74.3463 134.109 70.1253 134.107C70.3493 135.153 70.57 136.2 70.7973 137.248C71.3819 137.239 71.9732 137.226 72.5479 137.358C72.6583 139.626 72.5677 141.9 72.5973 144.171C72.2054 143.261 71.9517 142.282 71.4148 141.441C69.5703 138.101 66.3128 135.591 62.6435 134.58C60.7248 134.003 58.7008 133.992 56.7163 134.031C53.673 134.071 50.6295 134.099 47.586 134.107C47.5844 133.315 47.586 132.524 47.5844 131.732C46.5353 131.956 45.4862 132.18 44.4371 132.404C44.4273 132.905 44.4767 133.415 44.3581 133.91C44.2 134.208 43.8311 134.186 43.5429 134.201C38.7306 134.199 33.92 134.201 29.1094 134.199C29.1078 137.055 29.1094 139.911 29.1078 142.767C28.2563 142.612 27.4065 142.452 26.5567 142.295C26.2208 138.792 23.7093 135.576 20.31 134.578C19.2017 134.184 18.0126 134.135 16.8483 134.105C13.006 134.11 9.16218 134.106 5.31996 134.107C5.54394 135.153 5.76627 136.199 5.98861 137.246C6.4975 137.259 7.02451 137.19 7.51693 137.35C7.85784 137.473 7.76561 137.921 7.80184 138.206C7.80184 145.013 7.8002 151.818 7.80184 158.623C7.77879 158.865 7.82655 159.148 7.6668 159.357C7.12003 159.483 6.54855 159.395 5.9919 159.418C5.76792 160.464 5.54575 161.511 5.32161 162.559C9.73366 162.559 14.1441 162.557 18.5561 162.559C18.37 161.511 18.1806 160.464 17.9896 159.418C17.3852 159.37 16.7363 159.535 16.1615 159.311C16.0067 158.384 16.1253 157.434 16.089 156.498C17.484 158.49 18.8756 160.484 20.2722 162.475C23.2168 162.495 26.1631 162.539 29.1078 162.56C29.1094 164.468 29.1078 166.373 29.1094 168.28C31.2471 166.347 33.3733 164.402 35.5076 162.465C38.1295 162.468 40.7497 162.462 43.3716 162.468C43.7059 162.496 44.1522 162.419 44.3564 162.76C44.4783 163.256 44.4273 163.774 44.4355 164.283C45.4846 164.502 46.5353 164.721 47.5844 164.944C47.586 164.148 47.5844 163.353 47.586 162.557C50.8436 162.587 54.1026 162.628 57.3619 162.651C58.4669 162.64 59.5786 162.694 60.6787 162.544C65.1484 161.979 69.2739 159.168 71.405 155.194C71.955 154.348 72.2004 153.356 72.5957 152.437C72.5594 154.726 72.6764 157.025 72.5364 159.31C71.9979 159.543 71.3704 159.365 70.7973 159.417C70.5733 160.464 70.351 161.511 70.127 162.559H82.7867C82.7883 161.511 82.7867 160.464 82.7884 159.418C82.2284 159.356 81.5845 159.566 81.0822 159.272C80.9389 158.908 80.9998 158.503 80.9833 158.122C80.9899 155.826 80.985 153.531 80.9866 151.236C82.4721 151.235 83.9576 151.236 85.4432 151.235C85.4415 153.697 85.4448 156.161 85.4415 158.623C85.4069 158.878 85.4794 159.26 85.1879 159.39C84.674 159.45 84.1553 159.408 83.6414 159.417V162.559C87.1213 162.574 90.6045 162.528 94.0828 162.58C96.395 163.741 98.6661 164.993 100.962 166.192C101.25 165.168 101.542 164.147 101.82 163.121C101.352 162.837 100.695 162.77 100.427 162.241C100.649 161.195 101.308 160.301 101.731 159.326C105.371 159.324 109.012 159.326 112.653 159.326C112.89 159.894 113.126 160.467 113.447 160.996C113.671 161.373 113.931 161.765 113.935 162.223C113.582 162.659 113.025 162.847 112.564 163.144C112.825 164.156 113.073 165.174 113.328 166.189C117.166 164.191 121.001 162.192 124.835 160.189C125.667 161.772 126.486 163.363 127.321 164.944C129.419 160.96 131.497 156.968 133.595 152.984C135.707 156.963 137.78 160.963 139.878 164.95C144.414 156.36 148.946 147.767 153.482 139.176C153.477 145.611 153.486 152.045 153.477 158.478C153.437 158.784 153.503 159.239 153.149 159.374C152.63 159.464 152.1 159.404 151.578 159.418C151.388 160.464 151.199 161.511 151.011 162.559C155.424 162.557 159.836 162.559 164.248 162.559C164.022 161.511 163.803 160.464 163.576 159.418C162.995 159.384 162.362 159.525 161.822 159.258C161.697 157.674 161.802 156.075 161.769 154.486C164.454 157.136 167.074 159.858 169.796 162.463C173.274 162.51 176.753 162.533 180.231 162.559C180.135 162.248 180.038 161.933 179.948 161.623C183.26 163.46 187.525 163.675 190.905 161.894C193.424 160.558 195.379 158.028 195.672 155.148C195.85 153.144 195.542 151.035 194.467 149.306C193.597 147.859 192.25 146.775 190.829 145.899C189.393 145.02 187.945 144.161 186.506 143.289C186.058 143.002 185.544 142.687 185.396 142.141C185.269 141.674 185.541 141.197 185.952 140.981C187.097 140.365 188.601 140.522 189.638 141.287C190.354 141.785 190.613 142.656 190.88 143.44C191.769 143.252 192.658 143.06 193.549 142.875C193.577 140.553 193.615 138.233 193.647 135.912C191.04 133.898 187.538 133.382 184.36 133.989C182.909 134.297 181.468 134.856 180.361 135.871C176.667 138.817 176.361 144.983 179.627 148.361C181.516 150.369 184.111 151.457 186.364 152.979C186.903 153.338 187.37 153.967 187.224 154.647C187.122 155.169 186.603 155.463 186.133 155.599C184.539 155.935 182.766 155.434 181.636 154.247C180.837 153.455 180.511 152.358 180.131 151.334C179.175 151.367 178.22 151.401 177.265 151.436C177.303 153.906 177.326 156.376 177.362 158.849C173.21 154.662 169.058 150.477 164.907 146.291C167.581 143.636 170.238 140.961 172.934 138.33C173.345 137.976 173.706 137.538 174.208 137.307C174.594 137.19 174.995 137.371 175.378 137.44C175.658 136.332 175.944 135.225 176.227 134.117C172.991 134.133 169.755 134.184 166.519 134.199C165.532 135.176 164.564 136.169 163.581 137.149C163.803 136.138 164.024 135.128 164.248 134.119C157.489 134.132 150.73 134.186 143.971 134.201C143.969 135.209 143.969 136.217 143.969 137.226C144.358 137.228 144.756 137.269 145.089 137.493C144.982 137.796 144.876 138.104 144.727 138.391C143.104 141.525 141.495 144.665 139.878 147.801C139.274 146.633 138.674 145.461 138.073 144.292C139.247 142.121 140.436 139.957 141.598 137.778C141.861 137.192 142.579 137.249 143.116 137.235C143.116 136.223 143.114 135.212 143.118 134.201C140.166 134.199 137.215 134.201 134.266 134.201C134.043 134.614 133.821 135.026 133.6 135.441C133.376 135.026 133.154 134.613 132.932 134.199C129.979 134.201 127.026 134.199 124.073 134.201C124.071 135.212 124.073 136.225 124.071 137.238C124.623 137.243 125.354 137.197 125.614 137.804C126.77 139.973 127.948 142.129 129.116 144.292C128.516 145.459 127.928 146.633 127.316 147.795C126.309 145.84 125.303 143.885 124.298 141.928C123.572 140.446 122.714 139.023 122.09 137.493C122.396 137.182 122.834 137.251 123.231 137.238C123.228 136.225 123.23 135.212 123.23 134.201C118.913 134.184 114.597 134.133 110.282 134.117C110.534 135.16 110.786 136.202 111.041 137.246C111.603 137.284 112.258 137.121 112.745 137.483C113.164 137.926 113.411 138.499 113.704 139.028C116.904 145.161 120.109 151.293 123.31 157.424C122.841 157.651 122.401 157.938 121.92 158.137C121.43 158.313 121.199 157.745 120.993 157.421C116.372 148.799 111.767 140.169 107.148 131.548C102.653 139.93 98.1934 148.331 93.7303 156.731ZM97.5363 139.626C97.0933 139.624 96.652 139.624 96.2106 139.626C96.2122 142.089 96.2073 144.553 96.2122 147.017C98.4965 142.748 100.769 138.475 103.045 134.201H98.6809C98.2989 136.009 97.9201 137.818 97.5363 139.626ZM82.7884 139.624C82.7867 140.416 82.7867 141.209 82.7884 142.002C83.1013 142.001 83.4175 142.001 83.7337 142.002V139.626C83.4175 139.624 83.1029 139.624 82.7884 139.624ZM174.661 140.062C172.555 142.175 170.443 144.283 168.334 146.393C170.521 148.577 172.703 150.764 174.89 152.946C174.847 151.68 174.796 150.411 174.796 149.143C175.522 149.097 176.252 149.059 176.982 149.058C175.159 146.395 174.615 142.99 175.261 139.852C175.035 139.86 174.798 139.855 174.661 140.062ZM82.7867 153.521C82.7883 154.695 82.7867 155.867 82.7867 157.042C83.1013 157.039 83.4175 157.039 83.7337 157.04V153.521C83.4175 153.519 83.1013 153.519 82.7867 153.521ZM144.249 85.4659C144.878 85.2634 145.585 85.0837 146.222 85.3655C147.383 85.8101 148.006 87.2149 147.658 88.3892C147.292 89.4694 146.092 90.1644 144.975 90.0311C144.231 89.9241 143.622 89.3986 143.289 88.7415C142.815 88.7252 142.339 88.7136 141.871 88.6394L142.022 88.6459C142.591 88.6641 143.236 88.7645 143.727 88.4007C144.611 87.8474 144.865 86.599 144.359 85.7062L144.249 85.4659ZM29.8818 126.4C30.1964 126.398 30.5126 126.398 30.8272 126.398C30.8272 127.699 30.8272 128.998 30.8288 130.3C30.5126 130.298 30.1964 130.298 29.8802 130.3C29.8818 128.998 29.8802 127.699 29.8818 126.4ZM80.6902 126.187C80.8582 127.114 81.0031 128.043 81.1612 128.972C80.8796 128.97 80.598 128.97 80.318 128.972C80.4415 128.043 80.5634 127.114 80.6902 126.187ZM150.445 126.398C150.789 126.398 151.136 126.398 151.484 126.4C151.482 127.699 151.484 128.998 151.484 130.3C151.135 130.298 150.789 130.298 150.445 130.3C150.445 128.998 150.443 127.697 150.445 126.398ZM169.847 126.398H170.896C170.895 126.843 170.895 127.289 170.896 127.735C170.544 127.735 170.195 127.735 169.847 127.737C169.846 127.289 169.846 126.843 169.847 126.398ZM47.586 137.248C48.1509 137.269 48.752 137.164 49.2906 137.383C49.6068 137.521 49.5557 137.911 49.5738 138.195C49.5672 145.006 49.5788 151.816 49.5672 158.628C49.5343 158.9 49.5969 159.329 49.2296 159.384C48.6845 159.453 48.1328 159.407 47.586 159.418V154.086C46.5831 154.086 45.5817 154.089 44.5804 154.084C44.4042 154.343 44.2428 154.693 43.8706 154.651C41.7165 154.682 39.5607 154.654 37.4049 154.664C37.4065 153.804 37.4049 152.946 37.4065 152.09C39.4882 152.098 41.5699 152.075 43.6516 152.101C43.9365 152.131 44.3499 152.076 44.4783 152.408C44.536 152.677 44.5261 152.956 44.5442 153.234C45.557 153.229 46.5715 153.233 47.5844 153.233C47.586 149.967 47.586 146.699 47.5844 143.434C46.5748 143.432 45.5669 143.437 44.5574 143.43C44.5195 143.886 44.5014 144.644 43.869 144.644C41.7165 144.7 39.5607 144.652 37.4065 144.669C37.4049 143.779 37.4065 142.89 37.4049 142.002C39.6167 142.027 41.8317 141.951 44.0402 142.044C44.3713 142.025 44.4767 142.345 44.6002 142.587C45.5949 142.571 46.5896 142.582 47.586 142.579V137.248ZM161.898 137.492C162.306 137.088 162.962 137.305 163.479 137.244C162.911 137.819 162.337 138.391 161.764 138.961C161.784 138.471 161.713 137.956 161.898 137.492ZM16.089 140.471C16.6655 140.522 17.2715 140.568 17.7689 140.899C19.1226 141.594 19.2939 143.666 18.2267 144.687C17.6602 145.25 16.8647 145.415 16.0956 145.458C16.0792 143.796 16.0907 142.132 16.089 140.471ZM57.8609 141.428C59.4929 141.403 61.1629 141.801 62.4705 142.816C64.4024 144.227 65.491 146.706 65.2044 149.084C65.0562 151.021 63.9923 152.849 62.4261 153.988C61.125 154.977 59.4732 155.382 57.8576 155.341C57.8609 150.703 57.8526 146.065 57.8609 141.428ZM60.3296 144.292C60.3263 147.019 60.3279 149.746 60.3296 152.475C60.8154 152.167 61.2996 151.841 61.6751 151.398C62.9267 150.161 63.2067 148.139 62.5117 146.551C62.0885 145.563 61.2568 144.804 60.3296 144.292ZM22.2732 150.859C23.8805 149.794 25.1717 148.282 25.9655 146.525C25.9737 149.209 25.9672 151.894 25.9688 154.578C27.0162 154.324 28.062 154.069 29.1078 153.819C29.1078 155.665 29.1111 157.511 29.1061 159.357C28.8245 159.357 28.4721 159.519 28.2481 159.278C27.7656 158.809 27.4164 158.226 27.0146 157.691C25.4303 155.416 23.8558 153.135 22.2732 150.859ZM105.446 151.709C106.013 150.576 106.583 149.443 107.146 148.308C107.717 149.44 108.281 150.575 108.849 151.709H105.446Z" fill="black"/>
<path d="M158.46 89.1219C159.835 87.6593 161.471 86.3022 163.478 85.8594C164.017 86.6087 164.552 87.3613 165.084 88.1171C165.222 88.2818 165.331 88.5158 165.563 88.5685C170.022 89.7772 174.468 91.2182 178.51 93.4895C179.957 94.3292 181.383 95.291 182.426 96.6219C183.556 98.0991 183.893 100.004 183.944 101.821C183.961 105.77 183.04 109.665 181.749 113.379C181.912 109.496 181.517 105.602 180.819 101.785C180.598 100.444 179.893 99.2452 179.025 98.221C177.918 96.8852 176.629 95.711 175.278 94.6273C173.063 96.444 171.581 99.013 170.814 101.75C169.315 100.13 167.242 99.1235 165.092 98.7085C162.311 98.1665 159.467 98.5222 156.673 98.789C151.694 99.3541 146.737 100.156 141.859 101.299C139.438 101.899 136.987 102.493 134.739 103.6C142.623 102.727 150.537 101.841 158.483 101.907C161.108 101.959 163.758 102.075 166.319 102.704C167.508 104.596 169.392 106.177 171.642 106.559C173.197 106.846 174.781 106.498 176.239 105.948C173.806 108.234 170.558 109.379 167.367 110.135C165 110.737 162.528 110.761 160.115 110.461C156.053 109.945 151.966 109.629 147.92 108.993C142.648 108.198 137.246 107.709 131.955 108.631C130.123 108.931 128.325 109.395 126.553 109.944C127.786 107.608 129.237 105.393 130.84 103.297C132.211 101.614 133.656 99.9254 135.533 98.7874C137.725 97.5392 140.235 97.045 142.701 96.6581C147.055 95.9993 151.574 95.39 155.458 93.1716C156.359 91.7536 157.294 90.3422 158.46 89.1219Z" fill="#B4B5B9"/>
<path d="M45.2288 135.289C45.7591 134.882 45.8513 134.178 46.0357 133.578C46.0571 134.144 46.0571 134.711 46.0637 135.279C45.7393 135.582 45.4214 135.917 44.9982 136.078C44.2686 136.368 43.4649 136.286 42.6975 136.297C38.8371 136.299 34.9752 136.286 31.1148 136.304C31.1132 139.764 31.1329 143.224 31.1049 146.684C30.1646 146.663 29.099 146.659 28.4073 145.915C29.1402 146.057 29.8862 146.114 30.6323 146.101C30.629 142.651 30.6339 139.2 30.629 135.75C34.7676 135.726 38.9047 135.767 43.0417 135.747C43.7795 135.706 44.6029 135.75 45.2288 135.289ZM106.977 135.115C107.21 134.594 107.539 135.367 107.295 135.609C103.361 143.165 99.3144 150.665 95.3092 158.186C94.8118 159.159 94.0806 160.223 92.8751 160.281C92.8619 160.092 92.8504 159.904 92.8405 159.719C93.9143 159.65 94.4923 158.669 94.9255 157.812C98.9406 150.246 102.949 142.674 106.977 135.115ZM184.983 135.428C187.291 135.115 189.812 135.251 191.825 136.533C190.043 136.029 188.182 135.716 186.326 135.871C184.695 135.943 183.022 136.378 181.723 137.401C180.459 138.384 179.735 139.929 179.54 141.495C179.303 143.563 179.712 145.749 180.902 147.481C179.605 146.235 178.931 144.428 178.929 142.643C178.842 140.912 179.387 139.146 180.491 137.802C181.606 136.46 183.282 135.694 184.983 135.428ZM7.19524 135.655C9.69853 135.617 12.2018 135.647 14.7051 135.637C16.2565 135.658 17.8326 135.533 19.3576 135.889C20.5779 136.198 21.7604 136.778 22.6448 137.689C21.8922 137.17 21.0951 136.694 20.2074 136.45C19.0183 136.067 17.7535 136.109 16.5216 136.124C14.104 136.144 11.688 136.18 9.27198 136.2C8.53581 136.238 7.88529 135.843 7.19524 135.655ZM48.9079 135.653C51.342 135.622 53.7776 135.605 56.2118 135.581C57.75 135.531 59.2981 135.485 60.8247 135.704C63.3593 136.083 65.7572 137.277 67.61 139.041C66.0322 137.817 64.2338 136.839 62.2674 136.424C60.5003 135.992 58.6722 136.141 56.8738 136.136C54.9502 136.165 53.0268 136.177 51.1032 136.2C50.3259 136.258 49.6424 135.826 48.9079 135.653ZM71.9463 135.652C75.1775 135.629 78.4087 135.627 81.6399 135.652C80.9037 135.834 80.217 136.258 79.4364 136.201C77.6775 136.192 75.9169 136.19 74.1564 136.203C73.3741 136.259 72.6907 135.811 71.9463 135.652ZM84.7921 135.656C88.0217 135.62 91.2512 135.633 94.4808 135.65C93.7364 135.795 93.0546 136.221 92.2822 136.201C90.4656 136.19 88.6508 136.193 86.8359 136.2C86.1145 136.218 85.4805 135.813 84.7921 135.656ZM112.168 135.658C114.654 135.612 117.139 135.648 119.622 135.638C120.459 135.642 121.297 135.604 122.131 135.691C121.712 135.93 121.287 136.244 120.778 136.198C118.636 136.197 116.492 136.188 114.349 136.201C113.582 136.228 112.911 135.786 112.168 135.658ZM145.047 135.668C150.82 135.609 156.596 135.635 162.37 135.655C161.676 135.846 161.021 136.241 160.282 136.201C158.416 136.187 156.548 136.2 154.682 136.197C154.374 136.216 154.104 136.07 153.835 135.95C153.718 136.029 153.603 136.109 153.491 136.192C151.146 136.198 148.802 136.192 146.459 136.198C145.927 136.244 145.457 135.968 145.047 135.668ZM167.212 135.78C169.578 135.734 171.948 135.702 174.315 135.658C173.812 135.824 173.338 136.09 172.814 136.182C171.001 136.246 169.173 136.193 167.368 136.343C166.588 137 165.921 137.786 165.186 138.494C163.719 139.932 162.284 141.404 160.82 142.847C160.853 142.531 160.743 142.14 161.019 141.91C162.439 140.465 163.887 139.051 165.311 137.61C165.955 137.012 166.508 136.307 167.212 135.78ZM125.219 135.684C127.513 135.65 129.805 135.765 132.099 135.759C132.136 135.894 132.208 136.164 132.244 136.297C131.004 136.277 129.762 136.272 128.522 136.22C127.404 136.164 126.184 136.404 125.219 135.684ZM135.191 135.757C137.452 135.777 139.711 135.647 141.972 135.681C141.52 135.92 141.06 136.198 140.533 136.215C138.921 136.305 137.307 136.281 135.693 136.297C135.176 137.307 134.695 138.336 134.155 139.334C134 139.08 133.845 138.827 133.693 138.576C134.216 137.647 134.719 136.71 135.191 135.757ZM73.8879 136.566C74.6011 137.241 74.7098 138.252 74.7048 139.181C74.7015 145.716 74.7114 152.251 74.6982 158.784C74.7196 159.625 74.3985 160.444 73.7891 161.029C73.1765 161.022 72.5638 161.024 71.9528 161.009C72.5853 160.852 73.3313 160.765 73.7315 160.184C74.1218 159.581 74.1004 158.828 74.1185 158.138C74.1169 152.154 74.1185 146.169 74.1185 140.184C74.1021 138.975 74.2124 137.746 73.8879 136.566ZM9.14517 136.628C9.71994 137.224 9.89945 138.056 9.88463 138.863C9.89451 145.398 9.88627 151.933 9.88792 158.468C9.91427 159.413 9.60795 160.378 8.89978 161.032C8.32501 161.024 7.7486 161.022 7.17383 161.004C7.81941 160.856 8.58028 160.745 8.96895 160.139C9.27692 159.579 9.31151 158.92 9.33456 158.296C9.33786 151.707 9.33127 145.118 9.33786 138.529C9.34609 137.89 9.23739 137.257 9.14517 136.628ZM50.8315 136.616C51.7653 137.419 51.6714 138.733 51.6681 139.848C51.6648 145.997 51.6648 152.147 51.6681 158.296C51.6665 159.089 51.5677 159.93 51.0802 160.585C50.6256 161.347 49.6177 160.925 48.9013 161.009C49.5733 160.861 50.3753 160.752 50.7607 160.103C51.1625 159.352 51.0538 158.466 51.1115 157.646C51.123 152.154 51.1345 146.661 51.1148 141.167C51.0884 139.65 51.2646 138.096 50.8315 136.616ZM86.7255 136.643C87.7697 137.574 87.5095 139.088 87.5523 140.338C87.549 142.384 87.5539 144.431 87.549 146.477C85.0144 146.481 82.4782 146.477 79.9436 146.48C79.9453 146.335 79.9453 146.045 79.9469 145.9C82.2855 145.904 84.6241 145.9 86.9627 145.902C86.9643 143.389 86.9643 140.877 86.9643 138.365C86.9808 137.781 86.8589 137.208 86.7255 136.643ZM114.137 136.692C114.917 137.145 115.411 137.921 115.82 138.702C119.739 146.162 123.698 153.601 127.607 161.07C127.508 161.272 127.411 161.477 127.317 161.682C122.91 153.359 118.575 144.998 114.137 136.692ZM154.7 136.644C155.426 137.282 155.51 138.287 155.478 139.191C155.473 145.396 155.474 151.602 155.478 157.809C155.466 158.494 155.525 159.204 155.3 159.866C155.145 160.327 154.799 160.681 154.476 161.03C153.911 161.022 153.349 161.022 152.788 161.006C153.427 160.841 154.178 160.745 154.594 160.167C154.976 159.57 154.988 158.828 155.001 158.145C155.001 151.607 155.003 145.07 154.999 138.532C155.013 137.888 154.887 137.257 154.7 136.644ZM126.791 136.705C127.35 137.045 127.819 137.517 128.112 138.105C129.217 140.164 130.306 142.231 131.404 144.293C130.235 146.602 129.064 148.911 127.895 151.22C127.794 151.002 127.692 150.785 127.595 150.571C128.682 148.481 129.766 146.391 130.834 144.293C129.5 141.756 128.028 139.293 126.791 136.705ZM146.554 136.678C146.765 136.994 147.137 137.287 147.098 137.712C147.075 138.275 146.768 138.766 146.529 139.26C144.492 143.255 142.481 147.264 140.421 151.249C140.307 150.956 140.133 150.637 140.342 150.344C142.345 146.414 144.344 142.483 146.322 138.542C146.651 137.974 146.615 137.305 146.554 136.678ZM19.6475 140.497C20.2058 141.108 20.7443 141.801 20.8612 142.648C21.1988 144.604 19.822 146.564 18.0137 147.234C17.0964 147.596 16.0934 147.516 15.1284 147.514C15.13 147.379 15.1349 147.106 15.1366 146.969C16.1807 146.977 17.2891 147.032 18.241 146.523C19.6689 145.829 20.5796 144.217 20.4264 142.634C20.405 141.854 20.018 141.159 19.6475 140.497ZM64.9173 142.944C66.2743 144.278 67.1702 146.095 67.3086 148.002C67.577 150.189 66.6943 152.384 65.2845 154.028C63.7299 155.869 61.4374 157.104 59.023 157.269C58.3182 157.343 57.61 157.341 56.9035 157.317C56.9051 157.203 56.9101 156.977 56.9133 156.863C58.8765 156.943 60.94 156.738 62.638 155.665C64.9502 154.294 66.5543 151.768 66.7404 149.08C66.9496 146.893 66.2233 144.69 64.9173 142.944ZM27.4653 144.1C27.6119 144.779 28.0401 145.391 27.9841 146.108C27.9709 147.646 27.9775 149.186 27.9808 150.724C28.0022 151.378 27.5987 151.934 27.4768 152.56C27.5015 149.741 27.5246 146.92 27.4653 144.1ZM189.05 147.168C187.669 146.259 186.024 145.6 185.117 144.14C186.843 145.385 188.733 146.373 190.515 147.532C191.153 147.947 191.716 148.463 192.258 148.993C191.23 148.311 190.074 147.857 189.05 147.168ZM44.9027 145.821C45.4346 145.586 45.7031 145.034 46.0226 144.584C46.0407 144.933 46.0571 145.288 46.0736 145.64C45.3852 146.287 44.4695 146.651 43.5242 146.656C41.1724 146.677 38.8207 146.654 36.4689 146.666C36.4672 146.524 36.4639 146.239 36.4623 146.098C38.488 146.149 40.5137 146.101 42.5394 146.123C43.3315 146.108 44.1599 146.144 44.9027 145.821ZM107.598 145.763C107.366 145.442 107.593 145.088 107.694 144.767C109.207 147.768 110.676 150.791 112.183 153.795C109.308 153.794 106.431 153.805 103.555 153.787C103.687 153.618 103.7 153.24 103.975 153.255C106.429 153.226 108.883 153.257 111.337 153.242C110.098 150.745 108.845 148.255 107.598 145.763ZM134.15 149.714C136.116 153.404 138.013 157.132 139.996 160.815C140.194 161.05 140.167 161.504 139.818 161.564C137.814 157.804 135.9 153.995 133.914 150.225C133.992 150.054 134.069 149.882 134.15 149.714ZM86.9577 150.316C87.1554 150.311 87.3547 150.306 87.5556 150.306C87.544 153.079 87.5572 155.854 87.549 158.627C87.5589 159.504 87.2707 160.444 86.5394 160.981C85.963 161.081 85.3718 161.009 84.7904 161.011C85.3932 160.859 86.0865 160.781 86.5098 160.274C86.9429 159.714 86.9429 158.965 86.9627 158.291C86.9627 155.632 86.9709 152.974 86.9577 150.316ZM30.6306 151.073C30.7525 151.072 30.9995 151.067 31.1214 151.065C31.1115 155.395 31.1198 159.723 31.1181 164.052C31.1708 164.402 30.8398 164.607 30.6504 164.848C30.6059 160.256 30.6438 155.665 30.6306 151.073ZM15.1333 151.496C17.3583 154.602 19.4515 157.802 21.6698 160.915C21.4492 160.912 21.2285 160.91 21.0078 160.91C19.1336 158.173 17.2529 155.439 15.3622 152.715C15.0707 152.371 15.1349 151.91 15.1333 151.496ZM188.122 152.526C188.546 152.924 189.069 153.306 189.193 153.914C189.308 154.553 189.255 155.246 188.931 155.821C188.414 156.799 187.38 157.415 186.314 157.618C184.376 157.942 182.292 157.233 181.014 155.726C182.327 156.841 184.101 157.349 185.807 157.206C187.004 157.089 188.284 156.416 188.666 155.205C188.961 154.276 188.631 153.31 188.122 152.526ZM178.817 156.818C178.824 155.485 178.738 154.151 178.852 152.822C179.293 153.137 179.4 153.672 179.363 154.182C179.341 155.869 179.384 157.555 179.335 159.242C178.659 158.606 178.86 157.646 178.817 156.818ZM44.7182 156.014C45.1925 155.823 45.5515 155.426 46.0423 155.265C46.0489 155.408 46.0588 155.691 46.0637 155.834C45.4181 156.417 44.5683 156.74 43.6971 156.735C41.2894 156.758 38.88 156.729 36.4722 156.75C36.4672 156.564 36.4623 156.379 36.459 156.197C38.5934 156.205 40.7278 156.193 42.8638 156.203C43.4847 156.202 44.1187 156.193 44.7182 156.014ZM113.827 158.377C114.041 158.374 114.257 158.372 114.474 158.374C114.889 159.263 115.339 160.136 115.739 161.034C116.045 161.684 115.961 162.422 115.917 163.12C115.388 163.413 114.853 163.7 114.3 163.947C114.808 163.506 115.456 163.018 115.41 162.264C115.299 160.829 114.398 159.65 113.827 158.377ZM121.457 160.195C121.213 159.973 120.973 159.754 120.726 159.54C121.319 159.815 121.969 159.734 122.593 159.649C122.211 159.826 121.833 160.009 121.457 160.195ZM27.6184 160.826C27.7881 160.703 28.1965 160.838 28.1405 161.08C27.9709 161.22 27.569 161.058 27.6184 160.826ZM80.3323 160.801C80.7687 160.838 81.2002 160.917 81.6267 161.027C81.1837 161.039 80.7127 161.066 80.3323 160.801ZM161.289 160.836C161.553 160.731 161.864 160.838 162.126 160.927C162.363 161.084 161.914 161.116 161.831 161.086C161.663 161.05 161.281 161.066 161.289 160.836Z" fill="#E4A4A9"/>
<path d="M111.605 135.161C115.226 135.158 118.846 135.158 122.468 135.161C122.464 135.507 122.464 135.855 122.464 136.204C122.062 136.347 121.598 136.436 121.336 136.808C120.943 137.212 121.079 137.842 121.325 138.29C123.326 142.215 125.31 146.149 127.316 150.072C128.314 148.155 129.274 146.219 130.257 144.293C129.198 142.299 128.138 140.306 127.081 138.31C126.771 137.748 126.507 137.141 126.038 136.693C125.738 136.405 125.322 136.316 124.941 136.197C124.94 135.853 124.94 135.509 124.941 135.168C127.423 135.201 129.907 135.194 132.39 135.271C132.779 136.088 133.191 136.895 133.599 137.702C134.014 136.895 134.421 136.083 134.819 135.267C137.298 135.201 139.777 135.198 142.255 135.168C142.257 135.507 142.258 135.848 142.262 136.19C141.387 136.322 140.76 136.983 140.411 137.758C139.251 139.937 138.088 142.115 136.929 144.293C137.911 146.224 138.892 148.154 139.877 150.082C141.861 146.182 143.843 142.281 145.824 138.379C146.036 137.958 146.213 137.449 146.018 136.988C145.747 136.512 145.205 136.349 144.719 136.192C144.721 135.846 144.722 135.502 144.725 135.16C150.817 135.16 156.91 135.158 163 135.161C162.939 135.495 162.881 135.832 162.827 136.171C162.206 136.26 161.49 136.311 161.053 136.821C160.75 137.269 160.74 137.837 160.724 138.359C160.717 139.381 160.724 140.402 160.726 141.424C162.791 139.381 164.826 137.307 166.888 135.26C169.556 135.211 172.226 135.191 174.896 135.168C174.833 135.499 174.774 135.832 174.716 136.166C173.366 136.174 172.526 137.34 171.658 138.2C168.945 140.906 166.213 143.593 163.487 146.288C165.844 148.677 168.214 151.057 170.576 153.444C172.644 155.499 174.652 157.617 176.768 159.624C177.292 160.156 177.979 160.489 178.729 160.535C178.779 160.863 178.828 161.191 178.883 161.52C176.202 161.502 173.522 161.459 170.841 161.446C170.564 161.426 170.238 161.479 170.045 161.238C166.931 158.172 163.842 155.082 160.726 152.017C160.724 154.16 160.717 156.304 160.726 158.447C160.755 158.964 160.757 159.547 161.094 159.974C161.542 160.438 162.226 160.426 162.822 160.504C162.878 160.84 162.937 161.177 163 161.517C159.418 161.522 155.834 161.52 152.252 161.518C152.306 161.179 152.36 160.84 152.42 160.504C152.986 160.413 153.642 160.431 154.077 159.992C154.416 159.563 154.403 158.982 154.427 158.465C154.426 151.711 154.431 144.959 154.424 138.206C154.444 137.597 154.329 136.966 153.871 136.53C153.34 137.096 153.036 137.816 152.673 138.49C148.408 146.579 144.151 154.674 139.877 162.76C137.776 158.773 135.699 154.774 133.599 150.785C131.498 154.773 129.422 158.773 127.319 162.758C123.064 154.72 118.833 146.67 114.586 138.628C114.25 138.024 114.001 137.367 113.581 136.815C113.176 136.301 112.473 136.266 111.881 136.171C111.791 135.833 111.697 135.495 111.605 135.161ZM56.9127 140.393C56.9094 145.688 56.9111 150.981 56.9127 156.276C58.6469 156.324 60.4667 156.253 62.0198 155.39C64.0076 154.399 65.4947 152.506 66.0481 150.362C66.5553 148.353 66.2753 146.14 65.2197 144.348C64.2035 142.559 62.4512 141.197 60.4552 140.685C59.304 140.377 58.0968 140.385 56.9127 140.393ZM48.3375 135.161C50.4669 135.137 52.5947 135.123 54.724 135.099C56.7629 135.109 58.8132 134.937 60.8422 135.217C63.5283 135.613 66.0843 136.856 68.0474 138.733C70.3086 140.871 71.8172 143.819 72.1284 146.923C72.4628 149.756 71.832 152.699 70.3465 155.137C68.6205 158.05 65.7286 160.235 62.4644 161.125C61.1271 161.508 59.7289 161.622 58.3439 161.617C55.0073 161.596 51.6724 161.543 48.3358 161.515C48.3951 161.176 48.4544 160.838 48.5153 160.502C49.1197 160.428 49.8246 160.431 50.2726 159.95C50.6382 159.422 50.5822 158.742 50.6234 158.132C50.6283 151.658 50.6234 145.184 50.625 138.71C50.5937 138.088 50.6481 137.411 50.3138 136.856C49.8856 136.311 49.1379 136.265 48.5055 136.169C48.4478 135.833 48.3918 135.495 48.3375 135.161ZM27.6178 160.827C27.5684 161.059 27.9703 161.22 28.1399 161.08C28.1959 160.838 27.7874 160.703 27.6178 160.827ZM15.1376 139.445C15.136 141.79 15.1343 144.135 15.1393 146.48C16.0187 146.47 16.9492 146.577 17.7726 146.196C18.8711 145.733 19.66 144.657 19.8346 143.486C20.0651 142.083 19.3388 140.596 18.1086 139.893C17.2143 139.354 16.1373 139.44 15.1376 139.445ZM6.56055 135.163C10.1541 135.158 13.7476 135.155 17.3395 135.164C19.2104 135.173 21.1076 135.734 22.5717 136.923C24.3306 138.284 25.4703 140.425 25.5559 142.653C25.8227 145.932 23.7641 149.17 20.77 150.471C22.8665 153.513 25.0256 156.512 27.155 159.53C27.5058 160.099 28.0839 160.456 28.7459 160.538C28.7443 160.863 28.7426 161.189 28.7426 161.518C26.2575 161.502 23.7723 161.462 21.2855 161.443C21.0747 161.4 20.7684 161.492 20.6383 161.27C18.7987 158.62 17.0085 155.934 15.1475 153.299C15.1228 154.906 15.1425 156.515 15.136 158.122C15.1475 158.712 15.1343 159.348 15.4324 159.878C15.8309 160.41 16.549 160.417 17.1468 160.505C17.2061 160.841 17.2621 161.179 17.3181 161.518C13.7328 161.518 10.1475 161.523 6.56219 161.515C6.62478 161.176 6.68901 160.838 6.74829 160.502C7.34118 160.425 8.02958 160.441 8.47095 159.969C8.83492 159.498 8.8168 158.862 8.8415 158.298V138.373C8.82174 137.816 8.82174 137.19 8.44295 136.744C7.995 136.298 7.3313 136.263 6.745 136.168C6.68571 135.832 6.62329 135.495 6.56055 135.163ZM181.924 135.976C183.202 135.245 184.672 134.891 186.137 134.832C188.372 134.697 190.74 135.072 192.598 136.396C192.6 138.302 192.6 140.206 192.598 142.111C192.244 142.174 191.892 142.233 191.539 142.289C191.205 141.413 190.627 140.634 189.821 140.142C188.748 139.519 187.419 139.404 186.234 139.748C185.663 139.954 185.067 140.234 184.741 140.774C184.159 141.615 184.415 142.831 185.157 143.493C185.805 144.086 186.607 144.47 187.344 144.935C188.527 145.667 189.742 146.344 190.895 147.124C192.458 148.198 193.827 149.695 194.339 151.561C194.838 153.424 194.841 155.491 194.016 157.264C192.756 159.972 189.92 161.734 186.989 162.011C185.027 162.202 182.995 161.943 181.203 161.1C180.091 160.58 179.131 159.787 178.324 158.872C178.314 156.737 178.319 154.604 178.321 152.47C178.67 152.442 179.018 152.416 179.37 152.393C179.749 153.447 180.317 154.456 181.174 155.197C182.554 156.413 184.523 156.884 186.317 156.522C186.933 156.334 187.598 156.045 187.934 155.459C188.423 154.651 188.191 153.57 187.624 152.862C186.982 152.098 186.068 151.655 185.238 151.136C184.085 150.428 182.898 149.776 181.793 148.995C180.446 148.032 179.303 146.706 178.813 145.102C178.28 143.374 178.29 141.472 178.851 139.755C179.383 138.183 180.485 136.808 181.924 135.976ZM103.823 152.758C106.068 152.76 108.312 152.762 110.559 152.757C109.424 150.51 108.289 148.266 107.138 146.028C106.04 148.274 104.922 150.51 103.823 152.758ZM94.3352 157.735C98.6024 149.735 102.863 141.727 107.146 133.737C110.992 140.868 114.818 148.007 118.657 155.143C119.334 156.334 119.9 157.592 120.641 158.743C121.155 159.514 122.189 159.198 122.884 158.887C123.09 159.165 123.299 159.442 123.508 159.721C120.332 161.388 117.173 163.093 113.991 164.754C113.899 164.405 113.807 164.059 113.721 163.712C114.177 163.368 114.742 163.043 114.887 162.444C114.961 161.77 114.632 161.154 114.368 160.561C114.017 159.866 113.688 159.162 113.324 158.475C113.235 158.2 112.906 158.295 112.698 158.269C108.838 158.285 104.978 158.253 101.119 158.285C100.735 158.802 100.554 159.438 100.261 160.008C99.9314 160.792 99.4373 161.566 99.4736 162.449C99.6185 163.052 100.15 163.429 100.659 163.72C100.541 164.063 100.421 164.407 100.3 164.751C98.4047 163.746 96.5371 162.691 94.6515 161.67C94.4341 161.531 94.1771 161.508 93.9285 161.517C90.7532 161.522 87.578 161.518 84.4011 161.518C84.3995 161.179 84.3978 160.84 84.3945 160.502C85.0055 160.421 85.7351 160.435 86.1666 159.917C86.5059 159.391 86.4729 158.733 86.4878 158.134C86.4828 155.482 86.4943 152.831 86.4812 150.181C84.3007 150.179 82.1202 150.181 79.9397 150.179C79.9265 152.832 79.9347 155.487 79.9347 158.142C79.9578 158.74 79.9216 159.397 80.2625 159.922C80.6693 160.413 81.3577 160.41 81.9357 160.507C81.9341 160.841 81.9341 161.177 81.9357 161.517C78.4394 161.522 74.9446 161.522 71.4499 161.515C71.5158 161.176 71.5817 160.841 71.6459 160.505C72.1943 160.417 72.8135 160.412 73.245 160.01C73.6419 159.537 73.6238 158.873 73.6403 158.292V138.374C73.6255 137.832 73.6288 137.23 73.2813 136.782C72.8597 136.331 72.2141 136.276 71.6426 136.171C71.58 135.833 71.5141 135.495 71.4499 135.161C74.9446 135.16 78.441 135.153 81.9374 135.164C81.9341 135.497 81.9341 135.833 81.9357 136.168C81.3659 136.275 80.7203 136.332 80.302 136.782C79.9512 137.226 79.9594 137.826 79.9364 138.366C79.9281 140.719 79.9347 143.073 79.9347 145.426C82.1185 145.423 84.3023 145.425 86.4878 145.426C86.4861 143.071 86.4894 140.716 86.4861 138.361C86.4729 137.828 86.4729 137.235 86.1337 136.79C85.689 136.309 84.999 136.261 84.3913 136.172C84.3962 135.833 84.3995 135.495 84.4028 135.158C87.9272 135.163 91.4515 135.155 94.9742 135.161C94.91 135.494 94.8474 135.83 94.7898 136.166C94.1821 136.265 93.4476 136.302 93.0556 136.853C92.7394 137.409 92.8069 138.08 92.7789 138.697C92.7921 145.56 92.7526 152.422 92.7987 159.283C93.5711 159.097 94.0223 158.414 94.3352 157.735ZM45.5015 133.256C45.8754 133.16 46.2492 133.063 46.6231 132.968C46.5951 135.887 46.572 138.808 46.5358 141.727C46.1339 141.727 45.7321 141.727 45.3319 141.721C44.8839 141.189 44.184 141.064 43.5236 141.072C41.1685 141.042 38.8134 141.07 36.4584 141.059C36.4567 142.584 36.4485 144.109 36.4633 145.634H43.0246C43.6323 145.609 44.2894 145.611 44.8246 145.275C45.2084 145.043 45.3516 144.593 45.5114 144.203C45.8803 144.196 46.2508 144.194 46.6214 144.193C46.6247 146.927 46.6263 149.66 46.6214 152.394C46.2443 152.383 45.8688 152.368 45.4933 152.35C45.3994 151.62 44.767 151.093 44.0391 151.1C41.5127 151.009 38.9814 151.082 36.4518 151.062C36.4617 152.612 36.4485 154.163 36.4584 155.715C38.8118 155.71 41.1636 155.721 43.517 155.71C44.1988 155.713 45.0157 155.578 45.3105 154.868C45.7173 154.857 46.1257 154.855 46.5341 154.853C46.5769 157.803 46.5918 160.752 46.6247 163.702C46.2492 163.644 45.8737 163.584 45.5015 163.521C45.4472 162.839 45.4192 161.895 44.6632 161.606C43.489 161.294 42.2538 161.444 41.0549 161.408C39.0802 161.441 37.0974 161.34 35.1277 161.457C33.4297 162.918 31.8273 164.496 30.159 165.996C30.1458 161.014 30.1623 156.032 30.1508 151.051C29.5925 151.1 28.9205 151.062 28.5121 151.518C28.1234 151.93 28.1284 152.525 28.0608 153.053C27.6837 153.15 27.3082 153.247 26.9311 153.343C26.9261 150.011 26.9261 146.678 26.9311 143.346C27.3066 143.439 27.682 143.533 28.0592 143.626C28.13 144.104 28.1086 144.643 28.4347 145.034C28.8201 145.578 29.5595 145.538 30.1491 145.631C30.1623 142.172 30.1507 138.715 30.154 135.257C34.5562 135.252 38.9567 135.257 43.3572 135.255C43.9073 135.222 44.5282 135.244 44.9844 134.881C45.4208 134.46 45.4356 133.817 45.5015 133.256ZM150.921 117.712C152.808 117.571 154.702 117.276 156.589 117.231C159.823 118.875 163.529 119.499 167.135 119.231C170.327 119.061 173.436 118.201 176.421 117.09C176.602 118.351 176.786 119.613 176.982 120.873C162.015 120.871 147.049 120.889 132.082 120.863C138.311 119.532 144.592 118.443 150.921 117.712ZM141.443 85.1103C140.723 85.5468 140.434 86.5183 140.699 87.3006C140.873 87.943 141.442 88.3778 142.021 88.6461L141.87 88.6395C142.337 88.7138 142.813 88.7253 143.288 88.7416C143.62 89.3987 144.23 89.9242 144.974 90.0313C146.091 90.1645 147.291 89.4695 147.657 88.3893C148.004 87.2151 147.382 85.8103 146.221 85.3656C145.583 85.0838 144.877 85.2635 144.248 85.4661L144.358 85.7064C143.742 84.7777 142.367 84.4878 141.443 85.1103ZM139.077 82.2182C139.222 82.0404 139.478 82.1524 139.673 82.1606C141.325 82.4982 142.958 82.9297 144.585 83.3744C146.05 83.8109 147.54 84.2671 148.823 85.1234C150.157 85.9914 151.527 86.8182 153.016 87.3979C152.817 89.234 151.896 90.9733 150.475 92.1541C148.347 93.9839 145.28 94.5948 142.594 93.8241C140.554 93.2525 138.698 91.8658 137.785 89.9242C137.148 88.6938 137.043 87.2628 137.191 85.9058C137.428 84.5224 138.115 83.2327 139.077 82.2182ZM132.769 76.3587C138.469 74.5817 144.732 74.4992 150.401 76.4411C153.247 77.3617 156.071 78.4108 158.672 79.906C159.436 80.3887 160.276 80.8249 160.88 81.5053C159.541 83.6677 156.91 84.9835 154.375 84.776C153.94 84.4697 153.632 84.0185 153.228 83.6774C151.262 81.9302 148.897 80.7014 146.474 79.7151C141.817 77.8953 136.827 77.0636 131.853 76.7721C132.15 76.6189 132.449 76.4623 132.769 76.3587ZM43.4791 46.3125C44.3635 46.5729 45.2166 46.927 46.0829 47.2381C54.668 50.3408 63.4377 52.9464 72.3574 54.8947C79.1311 56.3176 85.9986 57.4538 92.9288 57.6382C94.9578 57.8426 97.0016 57.7041 99.0338 57.8426C112.013 58.3975 125.048 60.158 137.4 64.3166C141.853 65.8316 146.206 67.6695 150.327 69.944C154.223 72.1245 157.998 74.6443 161.073 77.9132C158.634 76.8231 156.065 76.0672 153.505 75.3195C148.393 73.8767 143.238 72.5956 138.069 71.375C131.333 69.7777 124.576 68.2708 117.807 66.8214C116.348 66.5496 114.915 66.1412 113.443 65.947C113.625 66.423 114.096 66.6519 114.493 66.9154C116.032 67.8986 117.65 68.7451 119.274 69.5783C117.865 69.9406 116.412 70.0214 114.977 70.229C108.973 70.5812 102.85 68.895 97.9189 65.4315C99.3517 68.7828 102.059 71.4855 105.223 73.2377C105.478 73.3482 105.605 73.5819 105.682 73.839C100.481 75.5106 95.3711 77.5954 90.7302 80.5054C91.4466 80.5023 92.1201 80.2222 92.8267 80.1333C94.0585 79.878 95.3168 79.8368 96.5635 79.7116C98.6518 79.5684 100.74 79.7497 102.82 79.9241C105.646 80.2256 108.464 80.6784 111.213 81.3966C111.603 81.4707 111.193 81.9119 111.046 82.042C107.725 85.2601 102.978 86.9236 98.3751 86.4806C97.4973 86.4343 96.6425 86.1675 95.7598 86.1957C98.851 89.333 102.965 91.2879 107.193 92.3682C108.133 92.5972 109.08 92.7997 110.045 92.8936C107.445 97.4967 104.989 102.185 102.626 106.917C103.416 106.77 104.177 106.507 104.961 106.329C110.032 105.145 115.317 105.053 120.467 105.713C120.366 106.003 120.233 106.284 120.015 106.507C116.249 110.837 111.417 114.106 106.344 116.719C103.268 118.3 100.065 119.628 96.7825 120.721C96.7858 120.774 96.7908 120.878 96.7941 120.93C98.9285 121.662 101.232 121.823 103.466 121.555C105.855 121.383 108.215 120.899 110.521 120.253C111.489 120.011 112.42 119.634 113.398 119.428C112.102 120.584 110.707 121.629 109.287 122.628C91.8682 122.613 74.4489 122.625 57.0313 122.622C55.2922 122.609 53.5532 122.65 51.8141 122.597C53.5828 121.396 55.5112 120.458 57.4084 119.481C61.0678 117.663 64.8541 116.11 68.7062 114.753C69.9068 114.369 71.0662 113.857 72.2981 113.579C70.8817 113.636 69.4868 113.926 68.0721 114.023C63.9614 114.297 59.808 114.056 55.7665 113.254C50.7288 112.316 45.8194 110.749 41.0993 108.765C36.1636 106.663 31.348 104.223 26.8998 101.21C28.4857 101.635 30.075 102.059 31.7054 102.273C34.3536 102.78 37.0595 102.697 39.7374 102.849C40.7798 102.77 41.8223 102.712 42.8681 102.704C49.963 102.24 56.9769 100.822 63.777 98.7648C64.2068 98.6362 64.6416 98.511 65.0369 98.2954C63.1973 95.9978 60.4964 94.6293 57.9124 93.3364C50.4439 89.888 42.4169 87.8934 34.4343 86.0308C38.7212 84.2472 43.3638 83.5473 47.9735 83.2755C53.3029 82.9593 58.6485 83.2986 63.9499 83.8587C66.9325 84.1716 69.8886 84.6772 72.8465 85.1499C71.5817 82.7487 69.6828 80.7757 67.7427 78.9131C63.8972 75.3589 59.5725 72.3714 55.1439 69.5949C51.2657 67.1721 47.262 64.9572 43.1942 62.869C44.6879 62.8507 46.1669 63.0994 47.6557 63.1835C57.3541 64.1585 66.9868 65.6687 76.6031 67.243C77.5698 67.3187 78.4986 67.6417 79.472 67.6631C77.4924 67.3599 75.605 66.6881 73.7029 66.0903C68.7029 64.3609 63.9631 61.9416 59.4736 59.1501C54.9035 56.2631 50.5888 52.9709 46.5753 49.3494C45.5427 48.3384 44.3899 47.4424 43.4791 46.3125Z" fill="#C70D18"/>
</g>
<defs>
<clipPath id="clip0_154_2363">
<rect width="200" height="200" fill="white"/>
</clipPath>
</defs>
</svg>
