<svg width="200" height="200" viewBox="0 0 200 200" fill="none" xmlns="http://www.w3.org/2000/svg">
<g clip-path="url(#clip0_154_2362)">
<path d="M174.835 68.4674V110.309H153.47V84.7977L153.446 84.4432C151.971 73.3892 142.568 69.3999 137.801 68.8339L77.6629 68.8153L77.4055 68.8666C62.1942 71.8722 58.8254 83.7823 59.1603 89.7946C58.7927 101.191 68.8227 107.585 74.1992 109.377L74.3901 109.44L77.11 109.911H53.714C53.5198 109.783 53.39 109.669 53.3072 109.585V49.3584H27.6962V68.1206H0V91.3433L27.8696 91.3934V114.7L27.9066 114.919C29.9187 126.994 40.0927 131.913 45.19 132.825L45.3983 132.862L45.6099 132.868C49.0725 132.935 69.6952 133.328 85.5379 133.328C94.6049 133.328 102.107 133.199 103.927 132.808C109.225 131.666 114.989 127.721 115.233 127.555L115.353 127.466C122.75 121.731 122.741 112.729 122.72 111.836C122.708 105.379 119.435 100.73 119.083 100.248C115.68 95.4994 109.522 93.0293 109.26 92.9268L109.054 92.8439L105.246 92.0314H128.974V114.701L128.995 115.03C130.768 129.396 146.268 133.028 146.926 133.174L147.215 133.24H181.803L182.064 133.187C196.53 130.278 199.794 117.365 199.926 116.817L200 116.508V68.4674H174.835Z" fill="#171796"/>
<path d="M29.8876 51.4308V70.1919H2.19141V89.2507L30.0599 89.3002V114.466L30.0697 114.564C32.3457 128.222 45.5318 130.736 45.6649 130.76L45.7591 130.771C47.179 130.799 69.5947 131.234 86.1855 131.234C94.8512 131.234 101.929 131.116 103.593 130.757C108.492 129.702 113.925 125.984 114.182 125.806C120.97 120.543 120.752 112.192 120.739 111.861C120.739 105.85 117.627 101.628 117.503 101.463C114.458 97.1984 108.838 94.9458 108.6 94.852L85.5986 89.9334H130.63C130.753 90.0064 130.985 90.2897 131.164 90.5787V114.69L131.168 114.762C132.764 127.686 147.339 131.096 147.486 131.128L147.551 131.143H181.64L181.758 131.131C194.932 128.481 197.974 116.438 198.003 116.316L198.019 70.5393H177.025V112.233C177.025 112.333 176.901 112.369 176.835 112.38H151.489V84.7841L151.482 84.7057C149.852 72.4772 137.781 70.9056 137.66 70.8904L78.03 70.8871L77.9134 70.8982C60.9441 74.2528 61.3149 88.9047 61.352 89.7488C60.8634 102.536 74.8206 107.34 74.9612 107.387L99.6256 111.668C99.7608 111.702 99.8604 111.735 99.9323 111.764C99.8473 111.836 99.7332 111.916 99.6176 111.984H53.2574C51.7023 111.17 51.3746 110.287 51.3277 110.13V51.4306L29.8876 51.4308ZM31.0777 52.6209H50.1365V110.197L50.1442 110.286C50.1693 110.45 50.4583 111.916 52.8488 113.112L52.975 113.174H99.9121L100.038 113.112C100.429 112.916 101.331 112.376 101.245 111.594C101.159 110.821 100.223 110.588 99.8739 110.503L75.3033 106.243C74.5061 105.96 62.0878 101.353 62.5469 89.7707L62.548 89.7371L62.5469 89.7068C62.5087 89.1212 61.8101 75.3276 78.0919 72.0766H137.553C138.212 72.1693 148.809 73.8324 150.3 84.8232V112.241C150.207 112.47 150.178 112.766 150.324 113.038C150.512 113.392 150.906 113.57 151.492 113.57H176.879L176.938 113.567C177.452 113.516 178.219 113.117 178.219 112.23V71.7294H196.832V116.1C196.583 117.019 193.49 127.523 181.584 129.95H147.689C146.691 129.704 133.822 126.312 132.355 114.65V90.2626L132.282 90.13C131.996 89.6109 131.408 88.7402 130.681 88.7402H82.9205L82.8071 88.7515C82.2411 88.8605 81.8948 89.1516 81.8566 89.5486C81.7977 90.1604 82.4749 90.432 82.6985 90.5215L108.208 95.9754C108.73 96.1914 113.831 98.369 116.542 102.164C116.573 102.205 119.552 106.26 119.552 111.88C119.555 111.961 119.765 119.97 113.48 124.844C113.426 124.881 108.013 128.586 103.344 129.59C98.6902 130.593 47.707 129.616 45.8312 129.579C44.8901 129.398 33.3671 126.93 31.2525 114.416V88.1089L3.38181 88.0611V71.3818H31.078L31.0777 52.6209Z" fill="white"/>
</g>
<defs>
<clipPath id="clip0_154_2362">
<rect width="200" height="200" fill="white"/>
</clipPath>
</defs>
</svg>
