<svg width="200" height="200" viewBox="0 0 200 200" fill="none" xmlns="http://www.w3.org/2000/svg">
<g clip-path="url(#clip0_154_2364)">
<path d="M103.428 60.0469C103.158 60.3821 102.98 60.7988 102.94 61.2602C102.832 62.4948 103.746 63.5837 104.981 63.6921C106.195 63.7982 107.267 62.9179 107.406 61.7148L106.516 61.3415L105.119 62.5708L104.457 60.4784L103.428 60.0469ZM113.274 60.3515C108.698 61.9923 104.44 66.4077 105.045 70.3718L122.037 70.6457C119.407 68.316 108.99 68.3827 108.99 68.3827L106.88 69.3241L108.615 66.8072L117.555 67.342C126.585 67.8794 127.85 72.9752 127.85 72.9752C127.85 72.9752 131.808 68.072 126.81 63.6408C123.007 60.2698 113.272 60.3543 113.272 60.3543L113.274 60.3515ZM116.704 61.8105C116.91 61.8119 117.125 61.8184 117.348 61.8308L117.033 63.5451L112.475 62.93C112.475 62.93 113.615 61.7891 116.704 61.8105ZM117.42 110.973C102.793 111.03 98.1556 113.648 98.0993 124.515C98.0993 133.825 106.687 134.279 117.778 134.763C122.683 134.976 127.595 135.196 132.512 135.196L134.926 135.172L134.985 127.652C131.856 128.671 129.5 129.036 126.043 129.036C123.523 129.036 117.839 129.002 115.764 127.865C114.165 126.99 114.068 125.5 114.068 124.186C114.068 119.024 116.023 117.035 123.677 117.035C128.927 117.035 131.487 117.1 135.409 119.725L135.472 111.254C129.939 111.11 124.405 110.976 118.867 110.976C118.375 110.972 117.892 110.971 117.42 110.973ZM22.4448 111.532L22.4414 125.438C25.3558 121.464 26.7425 119.552 33.3297 119.552V140.596C38.8933 139.126 46.0606 138.146 51.7749 136.997C50.6452 136.175 48.3695 135.151 48.3695 132.944C48.097 127.384 48.4233 125.116 48.3233 119.552C50.1036 119.447 51.6423 119.514 53.4309 119.514C55.9988 119.514 57.9437 120.288 59.157 121.391V111.532H22.4448V111.532ZM95.9061 111.532C95.9061 111.532 72.4096 111.551 60.6124 111.6C61.1559 112.054 61.8465 112.673 62.1913 113.224C62.3515 113.48 62.6245 115.284 62.6245 115.284C62.6245 115.284 62.6161 134.007 62.6313 136.305C73.5753 134.92 84.8821 134.279 95.9939 134.047V126.1C94.9414 126.568 93.5927 127.324 92.4503 127.681C90.1665 128.396 80.4879 128.427 77.2728 128.602L77.2157 125.611C82.4485 125.378 86.3313 125.152 91.5735 125.071V120.288C86.3065 120.342 82.5493 120.548 77.2866 120.702L77.2728 117.344C80.7882 117.271 84.3605 117.335 87.8779 117.335C91.5197 117.335 92.9506 117.83 95.9939 119.184L95.9069 111.532H95.9061ZM160.821 111.532C162.133 112.843 162.915 113.749 162.915 115.391C162.915 117.402 162.863 119.416 162.848 121.427C160.007 121.189 157.164 120.975 154.317 120.783L154.259 111.636L137.43 111.563C137.924 111.979 138.485 112.399 138.841 112.885C139.175 113.342 139.281 113.826 139.281 114.337C139.281 121.389 139.227 128.442 139.201 135.494C144.332 136.035 149.376 136.71 154.423 137.558L154.362 127.876C157.22 128.204 160.237 128.564 163.075 128.97V139.198C168.159 140.404 172.944 141.328 177.79 142.95L177.809 111.532H160.821L160.821 111.532ZM134.45 112.245L134.407 117.922C131.011 116.061 128.273 116.018 123.679 116.018C115.699 116.018 113.053 118.252 113.053 124.186C113.053 124.99 113.08 126.074 113.588 127.065C111.429 125.884 111.358 123.809 111.358 122.491C111.358 116.557 114.004 114.323 121.984 114.323C126.578 114.323 129.316 114.366 132.712 116.227L132.742 113.775L134.45 112.245ZM58.1396 112.549V119.495C56.858 118.865 55.2675 118.497 53.4307 118.497C51.6209 118.497 50.0647 118.431 48.2631 118.536L47.2885 118.594L47.306 119.57C47.4068 125.14 47.0814 127.414 47.3522 132.97C47.3623 134.501 48.2631 135.576 49.133 136.304C49.2256 136.381 49.319 136.455 49.4133 136.528C44.5701 137.399 38.9555 138.19 34.3459 139.292L36.2646 136.997C40.5122 136.087 41.9178 135.899 46.1814 135.132C46.0874 135.06 45.9418 134.312 45.8422 133.776C45.6634 132.815 45.6679 132.806 45.6575 131.275C45.387 125.719 45.7116 123.445 45.6113 117.875L45.5936 116.899L46.5685 116.841C48.3701 116.735 49.9265 116.802 51.7357 116.802C53.5723 116.802 55.163 116.704 56.445 117.334V113.859L58.1399 112.549H58.1396ZM176.789 112.549L176.772 141.554C172.6 140.257 168.449 139.41 164.09 138.392L165.344 137.336C169.09 138.191 171.449 138.732 175.077 139.859L175.09 114.198L176.789 112.548V112.549ZM94.8972 112.553L94.9549 117.63C92.6874 116.697 91.0631 116.318 87.8737 116.318C84.3492 116.318 80.7697 116.255 77.2478 116.327L76.2479 116.348L76.2625 120.759L74.5746 121.826L74.5521 114.653L75.5528 114.633C79.0744 114.56 82.6543 114.623 86.1787 114.623C89.3682 114.623 90.9924 114.452 93.2594 115.384L93.2169 113.775L94.8972 112.553V112.553ZM153.245 112.649L153.292 120.893L151.607 122.164L151.612 113.943L153.245 112.649ZM30.942 116.828C31.161 116.83 31.3898 116.834 31.6302 116.84H35.8376L34.4813 118.542C27.7857 118.097 25.5098 119.989 23.4551 122.436L24.989 118.69C26.6589 117.336 27.6557 116.807 30.9417 116.828L30.942 116.828ZM90.5508 121.317V124.071C85.7911 124.165 82.0699 124.377 77.1644 124.595L76.1744 124.64L76.1803 128.945L74.5189 130.555L74.4792 122.944L75.4695 122.9C80.3744 122.682 84.0962 122.469 88.8558 122.376C88.8558 122.376 89.9703 121.326 90.551 121.317H90.5508ZM151.638 125.039L152.779 125.17C155.646 125.499 158.672 125.861 161.519 126.269L165.51 126.911L163.985 128.196C161.382 127.836 157.066 127.163 154.473 126.865L153.333 126.734L153.395 136.358C149.024 135.647 144.651 135.063 140.217 134.58L141.695 133.183C145.548 133.626 147.889 134.043 151.699 134.663L151.638 125.039H151.638ZM94.9704 127.714V133.052C84.5311 133.293 73.9342 133.902 63.6402 135.155L65.671 133.183C75.4332 132.065 83.4085 131.584 93.2766 131.357L93.216 129.623C93.6763 129.447 94.9715 127.714 94.9715 127.714H94.9704ZM133.954 129.03L133.914 134.165L132.499 134.18C127.6 134.179 122.705 133.959 117.819 133.747C109.081 133.366 102.854 132.943 100.343 129.227C103.464 131.397 108.947 131.738 116.124 132.051C121.011 132.264 125.906 132.484 130.803 132.484L132.219 132.47L132.242 130.64C132.88 130.047 133.303 129.792 133.955 129.03L133.954 129.03Z" fill="white"/>
<path d="M9.18721 23.7386C-0.362494 32.2312 -0.745901 41.1802 0.526774 55.1306C2.22227 73.7065 8.01813 90.6496 16.6746 105.265H15.65V150.371L28.4457 162.298L29.6063 161.957C41.2079 158.552 55.1718 155.571 73.2407 154.044C84.2652 159.029 90.4537 163.82 93.948 167.279C97.8955 171.184 100.356 176.258 100.356 176.258C100.356 176.258 102.524 171.019 106.348 167.26C109.818 163.847 115.909 158.99 127.009 153.975C144.666 155.393 159.893 158.422 171.386 161.608L184.836 149.119L184.822 105.265L183.419 105.265C192.075 90.6518 197.872 73.7073 199.566 55.1315C200.84 41.1819 199.331 32.5671 194.742 27.759L190.907 23.7403L190.93 26.5176C190.93 26.571 190.953 30.0986 190.723 31.4005C190.475 32.7945 189.964 34.7588 188.909 36.9686C186.821 41.3407 182.543 46.8052 173.631 50.7054L147.977 61.2888L150.3 55.8262L132.975 61.2305C130.201 57.4074 123.203 55.6129 122.51 55.4082C123.059 54.5921 123.536 48.8306 113.501 46.3145C94.4373 41.536 79.2491 53.9303 76.0599 58.6466C77.4396 59.3363 78.5698 59.7467 78.5698 59.7467C78.5698 59.7467 76.8861 61.4377 75.1757 63.8322L49.794 55.8262L52.117 61.2891L26.5061 50.7203C17.5678 46.819 7.9759 37.3546 9.18946 23.7383L9.18721 23.7386ZM6.94279 29.2757C6.94279 29.2757 6.73617 44.4929 25.6242 52.7365L56.2424 65.3681L53.6796 59.34L74.258 65.7622C72.9972 67.595 71.6938 69.634 70.6781 71.5569L64.1115 69.5926L68.6195 77.6123L23.0456 58.8099C16.8385 56.1004 12.2666 52.6681 8.94287 49.0885C9.00198 50.6947 9.11571 52.4381 9.28799 54.3301C9.44676 56.0669 9.64381 57.7886 9.87858 59.4934L59.3201 78.9587L11.1651 66.9642C11.5321 68.7362 11.94 70.4883 12.3871 72.2196L61.5135 86.286L14.7855 80.2393C15.4464 82.1769 16.1572 84.0849 16.9159 85.9623L41.971 89.7231C50.7278 90.781 62.4157 91.8873 76.0374 92.4281C76.6595 87.7642 76.597 83.8189 76.597 83.8189L72.6388 85.8454C74.1868 77.996 77.1195 72.954 77.1195 72.954L73.3766 72.0991C76.3808 65.2695 83.1178 58.5123 83.1178 58.5123L80.3582 57.5927C80.3582 57.5927 92.0645 46.426 107.857 48.4523C123.648 50.4788 119.974 56.8954 119.974 56.8954C124.046 58.2514 135.364 60.1991 132.753 71.0392C130.983 78.3929 125.162 80.7947 125.162 80.7947C126.432 75.0399 120.258 74.1484 118.232 75.4183C117.121 76.1142 112.761 78.2527 118.137 87.7763C118.895 89.119 119.601 90.5462 120.256 92.0275L122.56 91.9042C121.788 90.0953 120.943 88.3477 120.02 86.7133C117.449 82.1589 117.519 79.899 117.818 78.9222C117.966 78.4405 118.211 78.1235 118.465 77.8873C118.598 77.7638 118.741 77.6565 118.89 77.5569C119.084 77.4274 119.255 77.3291 119.38 77.2509C120.646 76.4573 123.699 77.3871 123.049 80.3285L122.157 84.3746L125.987 82.7939C126.201 82.7056 132.839 79.9215 134.857 71.5456C135.685 68.1046 135.302 65.3419 134.209 63.1436L146.414 59.3366L143.85 65.3644L174.468 52.7328C193.356 44.4893 193.149 29.2721 193.149 29.2721C197.006 33.313 198.645 41.0026 197.375 54.9271C195.584 74.5527 189.122 92.2955 179.524 107.336L182.745 107.335V148.245L182.544 148.174L170.804 159.333C159.01 156.064 144.545 153.248 126.401 151.839C102.92 162.431 100.231 172.414 100.231 172.414C100.231 172.414 97.4952 162.505 73.8591 151.904C55.2706 153.422 40.93 156.465 29.0202 159.96L17.817 149.393L17.7246 149.422V149.306V107.336H20.5301C10.9511 92.2927 4.5061 74.5417 2.71687 54.9299C1.44616 41.0062 3.08564 33.3164 6.94194 29.2757H6.94279ZM105.609 51.8647C96.5395 51.7003 89.567 57.886 89.567 57.886L92.6331 58.737C85.0126 63.8308 82.6367 69.2061 82.6367 69.2061L85.6085 68.8277C82.0697 74.2985 81.0293 79.2022 81.0293 79.2022L83.9068 77.9735C83.2436 84.0776 82.5871 88.8643 81.6765 92.6187C87.1283 92.7639 92.8473 92.8124 98.7772 92.7285C102.516 92.6761 106.131 92.59 109.617 92.4768C106.042 87.1809 107.089 81.5776 107.089 81.5776C104.659 81.9888 103.095 87.8672 103.095 87.8672C101.828 83.6942 102.853 79.7951 102.853 79.7951C100.37 80.6179 98.6683 83.6939 98.6683 83.6939C97.5746 78.6384 101.637 74.9358 101.637 74.9358C99.9356 74.7984 97.279 75.2103 97.279 75.2103C98.6713 71.1034 102.902 70.3746 102.902 70.3746C102.902 70.3746 102.096 68.0989 103.694 65.9159C103.694 65.9159 100.731 65.6926 100.72 62.2805C100.714 60.075 101.991 59.0252 101.991 59.0252L98.02 54.7926C98.02 54.7926 105.834 57.6487 109.884 58.6424C112.537 59.2929 112.478 56.0483 112.478 56.0483C114.505 59.115 116.775 56.8993 116.775 56.8993C116.775 56.8993 116.869 52.5631 106.494 51.9012C106.197 51.8824 105.903 51.8703 105.61 51.8649L105.609 51.8647ZM190.572 59.4937L141.131 78.9602L189.286 66.9673C189.794 64.5134 190.225 62.0213 190.572 59.4937ZM188.063 72.2232L138.937 86.288L185.662 80.243C186.555 77.6222 187.357 74.9482 188.061 72.2232H188.063ZM183.534 85.9656L173.242 87.5105L173.288 93.7804L179.939 93.9316C181.233 91.3435 182.434 88.6869 183.534 85.9656ZM29.8498 92.0869L29.836 96.8015C30.4705 96.417 31.116 96.024 31.8834 96.024C32.6398 96.024 33.3934 96.1434 34.1453 96.2137L34.1227 107.624L40.968 107.858C39.6391 106.376 40.0056 99.1276 39.929 96.8173C42.0119 97.0104 42.5211 96.8871 44.3047 98.1477L44.2118 94.0155C39.4068 93.4947 34.6185 92.8642 29.8473 92.0844L29.8498 92.0869ZM168.094 92.4028C163.456 93.0449 158.808 93.5975 154.15 94.0741C154.383 94.3004 154.565 94.5692 154.736 94.8437C155.044 95.3402 154.886 106.264 154.887 107.862L168.101 107.863L168.118 102.856C166.653 104.035 165.062 104.303 163.23 104.303C162.404 104.303 161.577 104.282 160.751 104.307L160.754 101.525L167.025 101.172L167.033 98.3287L160.756 98.8312L160.758 96.5991C162.361 96.4502 163.997 96.1406 165.607 96.1406C166.55 96.1406 167.32 96.5828 168.079 97.0951L168.094 92.4025L168.094 92.4028ZM25.0051 93.83L20.5146 93.9316C21.4247 95.7518 22.3813 97.5377 23.3817 99.2886H25.1473L25.0054 93.8297L25.0051 93.83ZM152.893 94.1965C148.268 94.6252 143.636 94.9853 139.001 95.2868C139.232 95.4954 139.414 95.7467 139.586 96.0043C139.897 96.4713 139.739 106.37 139.741 107.862L152.959 107.862L152.955 103.436C151.461 104.492 149.76 104.676 147.981 104.676C147.188 104.676 146.395 104.652 145.602 104.666L145.6 102.167L151.857 101.934L151.857 99.4144L145.597 99.7455L145.594 97.7403C147.115 97.648 148.642 97.4419 150.167 97.4419C151.311 97.4419 151.944 97.7586 152.895 98.3442L152.893 94.1965H152.893ZM45.3657 94.4358C45.5892 94.7049 45.8113 94.9785 45.9675 95.293C46.2994 95.9621 46.3706 106.179 46.4086 107.859H59.6249L59.5216 103.863C58.4007 104.547 58.0392 104.79 56.6801 104.79C55.1834 104.79 53.6858 104.74 52.189 104.711L52.124 102.249L58.3897 102.437L58.3297 100.133L52.061 99.8637L52.0092 97.8876C54.6671 98.0446 56.9827 97.7237 59.3477 99.2588L59.2514 95.51C54.6167 95.2288 49.9877 94.8777 45.3654 94.4361L45.3657 94.4358ZM137.256 95.3935C134.924 95.5272 126.348 95.472 124.922 96.8581C124.221 97.5399 124.172 98.5592 124.172 99.4769C124.172 103.963 127.14 103.156 130.485 103.156C131.199 103.156 131.878 103.243 131.878 104.119C131.878 104.954 131.217 105.087 130.529 105.087L128.383 105.088C126.897 105.088 125.712 104.571 124.421 103.887L124.556 107.862L134.067 107.861C137.259 107.861 138.132 106.889 138.132 103.749C138.132 99.4403 135.136 100.426 132.046 100.426C131.504 100.426 130.218 100.443 130.218 99.6548C130.218 98.4128 131.721 98.347 132.636 98.347C134.458 98.347 135.686 98.278 137.259 99.3382L137.256 95.3935ZM60.6845 95.5905C60.9145 95.818 61.1028 96.0806 61.2816 96.3491C61.6073 96.8387 61.6855 106.382 61.7213 107.859H66.2104C65.414 107.047 65.3527 105.752 65.3527 104.684C65.3527 103.974 65.407 103.263 65.3918 102.553C67.0715 104.271 68.7501 105.989 70.4465 107.689L70.6165 107.86L75.3274 107.86L75.1751 96.158L71.3416 96.0463L71.4219 100.801C71.0064 100.348 66.9516 95.9024 66.9139 95.8852C66.866 95.8636 61.2712 95.6198 60.6842 95.5908L60.6845 95.5905ZM121.859 96.0809C119.583 96.1487 110.923 95.9092 109.524 97.2046C108.823 97.8527 108.767 98.8345 108.767 99.7286C108.767 104.076 111.775 103.353 115.018 103.353C115.71 103.353 116.463 103.407 116.463 104.285C116.463 105.089 115.797 105.204 115.14 105.204L113.451 105.203C111.661 105.203 110.583 104.829 109.003 104.008L109.131 107.861L118.448 107.862C121.547 107.862 122.718 107.248 122.718 103.982C122.718 99.9465 119.675 100.761 116.773 100.761C116.239 100.761 114.81 100.79 114.81 99.9957C114.81 98.8827 116.074 98.7926 116.911 98.7926C118.77 98.7926 120.245 98.7529 121.853 99.8088L121.859 96.0812L121.859 96.0809ZM76.8957 96.1997C77.1237 96.408 77.3101 96.6535 77.4869 96.9054C77.8168 97.3761 77.741 106.448 77.7593 107.86H82.2473C81.7209 107.338 81.4864 106.655 81.4864 105.922L81.5126 102.763L86.4291 107.639L86.6529 107.86H91.3672L91.3832 96.3979L87.5658 96.3686L87.5714 100.993C87.1551 100.553 83.2019 96.3401 83.1448 96.3159C83.0854 96.2906 77.4899 96.2107 76.8954 96.1994L76.8957 96.1997ZM106.939 96.3804C102.306 96.4184 97.6712 96.4221 93.0368 96.4057C93.2665 96.6053 93.4506 96.8466 93.6251 97.0934C93.9266 97.5202 93.7422 106.552 93.74 107.86L106.954 107.861L106.968 104.144C105.867 104.776 105.418 105.052 104.103 105.052L99.615 105.056L99.6231 102.861L105.879 102.849L105.881 102.671L105.887 100.718L99.631 100.736L99.6386 98.9756L103.541 98.9502C105.031 98.9502 105.64 99.131 106.928 99.8651L106.939 96.3804ZM173.321 99.2895L173.365 105.31C174.657 103.353 175.892 101.346 177.066 99.2895H173.321H173.321ZM134.441 112.247L132.734 113.776L132.704 116.228C129.307 114.368 126.569 114.325 121.976 114.325C113.996 114.325 111.35 116.559 111.35 122.492C111.35 123.81 111.421 125.885 113.58 127.067C113.072 126.076 113.045 124.992 113.045 124.188C113.045 118.254 115.69 116.02 123.671 116.02C128.265 116.02 131.003 116.063 134.399 117.924L134.441 112.247ZM58.1313 112.55L56.4363 113.861V117.336C55.1544 116.705 53.5636 116.804 51.7274 116.804C49.9176 116.804 48.3614 116.737 46.5598 116.843L45.585 116.9L45.6027 117.877C45.7029 123.446 45.3784 125.721 45.6489 131.277C45.6593 132.808 45.6548 132.816 45.8335 133.778C45.9332 134.313 46.0787 135.062 46.1728 135.134C41.9094 135.901 40.5036 136.089 36.256 136.999L34.3372 139.294C38.9469 138.191 44.5614 137.401 49.4047 136.53C49.3104 136.457 49.2169 136.383 49.1243 136.305C48.2545 135.578 47.3539 134.503 47.3435 132.972C47.0727 127.416 47.3981 125.142 47.2974 119.572L47.2799 118.595L48.2547 118.538C50.0561 118.432 51.6125 118.499 53.422 118.499C55.2588 118.499 56.8493 118.867 58.131 119.497V112.55H58.1313ZM176.781 112.55L175.082 114.2L175.069 139.861C171.441 138.734 169.082 138.193 165.335 137.338L164.082 138.394C168.44 139.412 172.592 140.259 176.763 141.555L176.781 112.55L176.781 112.55ZM94.8888 112.555L93.2085 113.776L93.251 115.386C90.9838 114.453 89.3598 114.625 86.1704 114.625C82.646 114.625 79.0661 114.562 75.5445 114.634L74.5437 114.655L74.5663 121.827L76.2542 120.761L76.2395 116.35L77.2394 116.329C80.7613 116.256 84.3409 116.32 87.8653 116.32C91.0547 116.32 92.679 116.698 94.9465 117.631L94.8888 112.555ZM153.237 112.65L151.603 113.945L151.598 122.166L153.284 120.895L153.237 112.65ZM30.9336 116.83C27.6476 116.809 26.6508 117.338 24.9809 118.691L23.447 122.438C25.5017 119.991 27.7777 118.098 34.4732 118.544L35.8295 116.842H31.6221C31.3817 116.836 31.1529 116.832 30.9336 116.83V116.83ZM90.5424 121.319C89.9619 121.328 88.8475 122.377 88.8475 122.377C84.0878 122.471 80.3661 122.683 75.4612 122.902L74.4708 122.946L74.5105 130.557L76.1719 128.947L76.1658 124.641L77.1561 124.597C82.0613 124.378 85.7827 124.166 90.5424 124.073V121.319ZM151.629 125.04L151.69 134.665C147.88 134.045 145.539 133.628 141.686 133.185L140.208 134.582C144.643 135.065 149.016 135.649 153.386 136.359L153.324 126.736L154.465 126.867C157.058 127.165 161.373 127.838 163.976 128.198L165.502 126.912L161.511 126.27C158.664 125.863 155.637 125.501 152.77 125.172L151.629 125.04H151.629ZM94.962 127.716C94.962 127.716 93.6668 129.449 93.2065 129.625L93.2671 131.359C83.399 131.586 75.4237 132.067 65.6615 133.185L63.6304 135.157C73.9261 133.904 84.523 133.294 94.9609 133.054V127.716H94.962ZM133.946 129.032C133.295 129.794 132.871 130.049 132.234 130.642L132.21 132.472L130.794 132.487C125.897 132.486 121.002 132.266 116.115 132.053C108.939 131.741 103.456 131.399 100.334 129.228C102.846 132.945 109.072 133.368 117.81 133.749C122.697 133.961 127.592 134.181 132.49 134.182L133.905 134.167L133.946 129.032ZM101.028 138.355C69.7683 138.355 42.7224 142.131 22.2129 148.235L30.2107 155.581C47.379 150.714 69.3663 147.432 101.029 147.432C131.334 147.432 152.711 150.861 169.688 155.425L177.552 147.572C157.288 141.857 130.49 138.356 101.028 138.356L101.028 138.355ZM97.0845 140.542L97.1988 146.035L96.1615 146.05L91.2968 142.725C91.1043 142.589 90.9247 142.453 90.7437 142.285C90.8033 142.71 90.8214 142.998 90.8245 143.158L90.8867 146.128L89.5205 146.148L89.4068 140.655L90.4436 140.64L95.1025 143.808C95.3721 143.985 95.6291 144.173 95.8614 144.394C95.8138 143.936 95.7817 143.617 95.7784 143.447L95.7184 140.562L97.0845 140.542V140.542ZM107.558 140.688L114.234 140.889L114.193 141.825L109.035 141.67L108.983 142.894L111.992 142.984L111.952 143.921L108.943 143.83L108.885 145.192L114.107 145.35L114.063 146.382L107.324 146.179L107.558 140.688ZM85.3402 140.8L85.4112 141.734L80.2597 142.009L80.352 143.232L83.357 143.071L83.4274 144.006L80.4224 144.167L80.5251 145.527L85.7397 145.248L85.8174 146.279L79.0878 146.638L78.6739 141.155L85.3402 140.799V140.8ZM120.679 141.195L122.143 141.275L125.454 146.963L123.75 146.869L123.061 145.626L118.933 145.399L118.082 146.558L116.566 146.474L120.679 141.195ZM71.8512 141.729C73.7507 141.774 74.8556 142.639 75.0471 144.121C75.1794 145.148 74.7602 146.043 73.9146 146.592C73.3279 146.977 72.4601 147.153 71.3031 147.258L67.5166 147.604L66.8131 142.142L70.9886 141.761C71.2921 141.733 71.5798 141.723 71.8512 141.729ZM129.96 141.802C130.088 141.804 130.228 141.812 130.381 141.825L134.862 142.208C136.045 142.309 136.442 142.6 136.323 143.585C136.318 143.628 136.313 143.67 136.308 143.712L134.808 143.809L134.882 143.194L130.163 142.79L129.744 146.255L134.464 146.658L134.612 145.44L132.145 145.229L132.257 144.297L136.197 144.634L135.969 146.52C135.845 147.547 135.423 147.778 134.202 147.674L129.721 147.29C128.5 147.186 128.142 146.888 128.266 145.86L128.614 142.979C128.722 142.08 129.059 141.791 129.96 141.803V141.802ZM121.279 142.295L119.654 144.446L122.507 144.602L121.279 142.295ZM71.6316 142.716C71.4734 142.712 71.3056 142.717 71.128 142.734L68.4492 142.978L68.8951 146.44L70.8448 146.262C72.7565 146.087 73.6607 145.598 73.4858 144.243C73.3603 143.271 72.7376 142.745 71.6316 142.716ZM140.853 142.815L142.356 142.999L141.594 147.414L146.44 148.006L146.263 149.028L139.916 148.253L140.853 142.815ZM58.5786 143.132L59.3747 147.542L64.2157 146.923L64.4003 147.944L58.0587 148.755L57.0776 143.324L58.5786 143.132ZM150.618 144.09L157.17 145.186L156.953 146.105L151.89 145.258L151.607 146.459L154.56 146.953L154.342 147.872L151.389 147.377L151.073 148.714L156.198 149.572L155.959 150.585L149.345 149.478L150.618 144.09ZM51.9157 144.13C52.5603 144.148 52.8556 144.45 53.0344 145.209L53.7024 148.05C53.9411 149.064 53.6179 149.389 52.4137 149.59L47.6977 150.375C46.4937 150.576 46.0475 150.378 45.8091 149.365L45.141 146.524C44.9029 145.511 45.2261 145.186 46.4298 144.985L51.1461 144.2C51.447 144.15 51.7009 144.124 51.9157 144.13ZM51.4715 145.144L46.557 145.963L47.3601 149.379L52.2746 148.559L51.4715 145.144ZM162.115 146.257C162.33 146.266 162.58 146.309 162.875 146.38L166.439 147.24C167.558 147.51 167.912 147.861 167.602 148.772L167.563 148.884L166.187 148.829L166.393 148.226L162.282 147.234L161.895 148.37L165.811 149.315C166.991 149.599 167.293 149.949 166.955 150.942L166.708 151.668C166.37 152.661 165.893 152.824 164.713 152.539L160.834 151.604C159.654 151.319 159.352 150.97 159.69 149.977L159.739 149.833L161.105 149.919L160.892 150.543L165.331 151.614L165.742 150.406L161.827 149.461C160.647 149.177 160.357 148.83 160.695 147.837L160.893 147.254C161.147 146.509 161.471 146.23 162.115 146.257H162.115ZM39.7725 146.287C40.4107 146.273 40.742 146.543 40.9596 147.262C40.972 147.303 40.9844 147.344 40.997 147.385L39.6281 147.91L39.4465 147.311L34.8493 148.296L35.8692 151.67L40.467 150.685L40.1081 149.498L37.7054 150.013L37.4304 149.105L41.2687 148.283L41.8232 150.12C42.1259 151.121 41.8244 151.46 40.6353 151.715L36.2698 152.65C35.0807 152.904 34.6224 152.728 34.3198 151.727L33.4713 148.921C33.1687 147.92 33.4708 147.58 34.6601 147.325L39.0254 146.39C39.3137 146.329 39.5597 146.292 39.7725 146.287ZM100.471 150.883C95.7226 150.883 91.1966 150.971 86.8758 151.137C92.9509 154.664 97.1873 158.055 100.138 161.026C100.138 161.026 100.34 161.281 100.657 161.582C102.553 157.967 104.116 154.397 105.398 150.916C103.78 150.894 102.138 150.883 100.471 150.883Z" fill="#FFDD00"/>
<path d="M6.9435 29.2757C3.08747 33.3167 1.448 41.0065 2.71842 54.9302C4.50793 74.5419 10.9527 92.2929 20.5325 107.339H17.7267V149.425L17.8191 149.396L29.0223 159.963C40.9308 156.468 55.2714 153.425 73.8615 151.907C97.4974 162.508 100.234 172.417 100.234 172.417C100.234 172.417 102.922 162.434 126.403 151.842C144.548 153.251 159.014 156.067 170.806 159.337L182.547 148.177L182.747 148.248V107.338L179.526 107.339C189.124 92.2997 195.587 74.556 197.377 54.9302C198.648 41.0059 197.008 33.3158 193.152 29.2751C193.152 29.2751 193.358 44.4923 174.47 52.7359L143.852 65.3675L146.416 59.3394L134.211 63.1467C135.304 65.3447 135.687 68.1076 134.859 71.5487C132.842 79.9245 126.204 82.7086 125.989 82.797L122.16 84.3776L123.052 80.3316C123.701 77.3902 120.648 76.4607 119.383 77.2536C119.257 77.3322 119.086 77.4304 118.892 77.5599C118.743 77.6596 118.6 77.7668 118.467 77.8904C118.213 78.1266 117.969 78.4433 117.821 78.9252C117.521 79.902 117.451 82.1617 120.023 86.7164C120.945 88.3508 121.79 90.0983 122.562 91.9073L120.258 92.0306C119.603 90.5496 118.897 89.1221 118.139 87.7793C112.763 78.2555 117.123 76.1172 118.234 75.4213C120.26 74.1515 126.434 75.043 125.164 80.7978C125.164 80.7978 130.985 78.396 132.756 71.0423C135.366 60.2019 124.049 58.2544 119.976 56.8985C119.976 56.8985 123.651 50.4819 107.859 48.4553C92.0669 46.4288 80.3606 57.5957 80.3606 57.5957L83.1199 58.5154C83.1199 58.5154 76.3829 65.272 73.3788 72.1021L77.1219 72.9571C77.1219 72.9571 74.1889 77.9991 72.6409 85.8485L76.5994 83.822C76.5994 83.822 76.6619 87.7672 76.0398 92.4312C62.4184 91.8904 50.7307 90.7838 41.9734 89.7262L16.9183 85.96C16.1596 84.0826 15.4485 82.1743 14.7879 80.237L61.5157 86.2834L12.3895 72.2173C11.9416 70.486 11.5337 68.7354 11.1666 66.9619L59.3216 78.9545L9.88013 59.4883C9.64536 57.7835 9.44831 56.0618 9.28982 54.3249C9.11726 52.4327 9.00353 50.6896 8.94442 49.0834C12.2684 52.6627 16.8397 56.0953 23.0472 58.8048L68.6211 77.6069L64.1131 69.5872L70.68 71.5518C71.6954 69.6289 72.9987 67.5896 74.2596 65.7568L53.6814 59.3349L56.2439 65.3627L25.6229 52.735C6.73575 44.4906 6.94265 29.2734 6.94265 29.2734L6.9435 29.2757ZM105.61 51.8649C105.902 51.87 106.197 51.8821 106.493 51.9012C116.868 52.563 116.774 56.8993 116.774 56.8993C116.774 56.8993 114.504 59.1147 112.478 56.0483C112.478 56.0483 112.536 59.2926 109.884 58.6421C105.834 57.6484 98.0195 54.7925 98.0195 54.7925L101.99 59.0252C101.99 59.0252 100.714 60.0749 100.72 62.2805C100.73 65.6923 103.694 65.9155 103.694 65.9155C102.096 68.0986 102.901 70.3746 102.901 70.3746C102.901 70.3746 98.6709 71.1034 97.2786 75.2099C97.2786 75.2099 99.9352 74.7984 101.637 74.9358C101.637 74.9358 97.5742 78.6381 98.6676 83.6939C98.6676 83.6939 100.369 80.6179 102.852 79.7951C102.852 79.7951 101.827 83.6942 103.094 87.8672C103.094 87.8672 104.658 81.9891 107.088 81.5775C107.088 81.5775 106.041 87.1806 109.617 92.4768C106.13 92.5899 102.516 92.6761 98.7765 92.7284C92.8469 92.8123 87.1276 92.7639 81.6758 92.6184C82.5864 88.864 83.2432 84.0773 83.9064 77.9732L81.0286 79.2019C81.0286 79.2019 82.0687 74.2984 85.6078 68.8274L82.6363 69.2058C82.6363 69.2058 85.0119 63.8307 92.6327 58.7367L89.5663 57.8857C89.5663 57.8857 96.5414 51.7008 105.609 51.8649H105.61ZM190.573 59.4939C190.226 62.0212 189.795 64.5137 189.287 66.9678L141.131 78.9604L190.573 59.4942L190.573 59.4939ZM103.428 60.049L104.457 60.4809L105.12 62.5733L106.516 61.3439L107.406 61.7172C107.267 62.9204 106.195 63.8006 104.981 63.6942C103.746 63.5858 102.832 62.4973 102.94 61.2626C102.98 60.8012 103.158 60.3846 103.428 60.049ZM113.274 60.3536C113.274 60.3536 123.009 60.2692 126.812 63.6404C131.81 68.0713 127.852 72.9748 127.852 72.9748C127.852 72.9748 126.587 67.8788 117.557 67.3416L108.615 66.8093L106.881 69.3262L108.991 68.3849C108.991 68.3849 119.407 68.3182 122.037 70.6479L105.046 70.3743C104.44 66.4102 108.698 61.9948 113.274 60.3536ZM116.704 61.8129C113.616 61.7913 112.476 62.9322 112.476 62.9322L117.033 63.5476L117.349 61.8332C117.125 61.8208 116.91 61.8143 116.704 61.8129ZM188.063 72.2232C187.359 74.9481 186.558 77.6221 185.664 80.2429L138.936 86.2921L188.06 72.226L188.063 72.2232ZM183.534 85.9656C182.434 88.6869 181.233 91.3434 179.939 93.9316L173.288 93.7804L173.242 87.5108L183.534 85.9659V85.9656ZM29.8469 92.0908C34.6178 92.87 39.4053 93.502 44.2105 94.0217L44.3017 98.1519C42.5181 96.891 42.0092 97.0146 39.9261 96.8212C40.0026 99.1312 39.6361 106.38 40.9651 107.862L34.1198 107.628L34.1423 96.2177C33.3904 96.1473 32.6368 96.0282 31.8804 96.0282C31.1131 96.0282 30.4673 96.4209 29.8331 96.8054L29.8469 92.0911V92.0908ZM168.091 92.4064L168.076 97.099C167.317 96.5867 166.547 96.1445 165.604 96.1445C163.994 96.1445 162.359 96.4541 160.755 96.603L160.753 98.8351L167.03 98.3326L167.022 101.176L160.751 101.529L160.749 104.311C161.574 104.286 162.401 104.307 163.226 104.307C165.059 104.307 166.65 104.039 168.115 102.86L168.098 107.867L154.884 107.866C154.883 106.268 155.041 95.3442 154.733 94.8476C154.562 94.5731 154.38 94.3043 154.147 94.078C158.805 93.6017 163.453 93.0488 168.091 92.4067V92.4064ZM25.0022 93.8336L25.1441 99.2928H23.3788C22.3783 97.5416 21.4218 95.7557 20.5114 93.9355L25.0022 93.8339V93.8336ZM152.89 94.2004L152.892 98.3481C151.942 97.7625 151.308 97.4459 150.165 97.4459C148.639 97.4459 147.113 97.6516 145.592 97.7442L145.594 99.7494L151.854 99.4183L151.855 101.938L145.598 102.171L145.601 104.67C146.393 104.655 147.186 104.68 147.979 104.68C149.758 104.68 151.459 104.496 152.953 103.44L152.957 107.866L139.739 107.865C139.737 106.374 139.895 96.4752 139.584 96.0082C139.412 95.7506 139.23 95.4993 138.998 95.2907C143.634 94.9892 148.265 94.6289 152.891 94.2004H152.89ZM45.3656 94.4397C49.9878 94.8814 54.6169 95.2324 59.2515 95.5133L59.3478 99.2624C56.9829 97.7271 54.6673 98.048 52.0093 97.8912L52.0611 99.8671L58.3299 100.136L58.3898 102.441L52.1242 102.253L52.1892 104.715C53.6859 104.743 55.1835 104.794 56.6803 104.794C58.0394 104.794 58.4005 104.55 59.5218 103.867L59.6251 107.863H46.4088C46.3708 106.182 46.2996 95.966 45.9677 95.2966C45.8114 94.9819 45.5893 94.7085 45.3658 94.4394L45.3656 94.4397ZM137.256 95.3974L137.259 99.3423C135.686 98.2822 134.458 98.3509 132.636 98.3509C131.721 98.3509 130.218 98.4168 130.218 99.659C130.218 100.447 131.503 100.43 132.046 100.43C135.136 100.43 138.132 99.4445 138.132 103.753C138.132 106.893 137.258 107.865 134.067 107.865L124.556 107.866L124.421 103.891C125.712 104.575 126.897 105.092 128.383 105.092L130.529 105.091C131.217 105.091 131.878 104.958 131.878 104.123C131.878 103.247 131.199 103.16 130.485 103.16C127.14 103.16 124.172 103.967 124.172 99.4808C124.172 98.5631 124.221 97.5438 124.922 96.8623C126.348 95.4759 134.923 95.5314 137.256 95.3976V95.3974ZM60.6844 95.5941C61.2713 95.6234 66.8662 95.8672 66.914 95.8889C66.9518 95.9063 71.0062 100.352 71.422 100.804L71.3418 96.0499L75.1753 96.1616L75.3276 107.864L70.6166 107.863L70.4466 107.693C68.7503 105.992 67.0717 104.274 65.3919 102.557C65.4071 103.267 65.3528 103.977 65.3528 104.687C65.3528 105.756 65.4142 107.051 66.2106 107.863H61.7217C61.6857 106.386 61.6077 96.8423 61.2817 96.3528C61.103 96.0842 60.9149 95.8216 60.6847 95.5938L60.6844 95.5941ZM121.859 96.0848L121.853 99.8122C120.244 98.7562 118.769 98.7962 116.91 98.7962C116.073 98.7962 114.81 98.886 114.81 99.9991C114.81 100.793 116.238 100.764 116.773 100.764C119.675 100.764 122.717 99.9501 122.717 103.985C122.717 107.251 121.546 107.865 118.448 107.865L109.131 107.865L109.003 104.012C110.583 104.832 111.661 105.206 113.45 105.206L115.139 105.207C115.797 105.207 116.463 105.093 116.463 104.289C116.463 103.411 115.71 103.356 115.018 103.356C111.775 103.356 108.767 104.079 108.767 99.7322C108.767 98.8382 108.823 97.8563 109.523 97.208C110.923 95.9125 119.582 96.1524 121.858 96.0842L121.859 96.0848ZM76.8956 96.2033C77.4904 96.2146 83.0855 96.2945 83.1449 96.3198C83.2021 96.3443 87.1552 100.557 87.5716 100.997L87.5659 96.3725L91.3834 96.4018L91.3674 107.864H86.653L86.4292 107.643L81.5131 102.767L81.4866 105.926C81.4866 106.659 81.7211 107.342 82.2475 107.864H77.7595C77.7412 106.452 77.8169 97.3797 77.487 96.9093C77.3102 96.6576 77.1239 96.4119 76.8958 96.2036L76.8956 96.2033ZM106.94 96.3843L106.928 99.869C105.64 99.1349 105.031 98.9541 103.541 98.9541L99.6388 98.9792L99.6311 100.74L105.887 100.722L105.881 102.675L105.879 102.853L99.6236 102.865L99.6151 105.059L104.103 105.056C105.419 105.056 105.867 104.78 106.968 104.148L106.954 107.865L93.7401 107.864C93.7424 106.556 93.9268 97.5241 93.6253 97.0974C93.4508 96.8505 93.2669 96.6089 93.0369 96.4096C97.6711 96.4257 102.306 96.4223 106.94 96.3843H106.94ZM173.321 99.2934H177.066C175.891 101.349 174.657 103.357 173.365 105.314L173.321 99.2934ZM117.414 110.979C117.885 110.977 118.368 110.978 118.861 110.981C124.398 110.981 129.933 111.116 135.466 111.259L135.402 119.731C131.48 117.107 128.92 117.041 123.671 117.041C116.016 117.041 114.062 119.03 114.062 124.192C114.062 125.506 114.158 126.996 115.757 127.872C117.833 129.008 123.516 129.043 126.037 129.043C129.493 129.043 131.849 128.676 134.979 127.658L134.919 135.178L132.505 135.202C127.589 135.202 122.676 134.982 117.771 134.769C106.681 134.285 98.0925 133.83 98.0925 124.521C98.1488 113.654 102.786 111.036 117.414 110.979L117.414 110.979ZM22.438 111.537H59.1502V121.396C57.9366 120.293 55.9923 119.52 53.4241 119.52C51.6355 119.52 50.0968 119.452 48.3165 119.557C48.4165 125.122 48.0902 127.389 48.3627 132.949C48.3627 135.157 50.6381 136.181 51.7681 137.002C46.0538 138.151 38.8865 139.131 33.3226 140.601V119.557C26.7357 119.557 25.349 121.47 22.4346 125.443L22.4377 111.537L22.438 111.537ZM95.8993 111.537L95.986 119.19C92.9429 117.836 91.5118 117.341 87.87 117.341C84.3529 117.341 80.7803 117.277 77.2652 117.35L77.2787 120.707C82.5417 120.554 86.2986 120.348 91.5658 120.294V125.076C86.3237 125.158 82.4409 125.383 77.208 125.617L77.2652 128.608C80.4799 128.433 90.1586 128.402 92.4427 127.687C93.5847 127.33 94.9337 126.574 95.986 126.106V134.053C84.8753 134.284 73.5682 134.925 62.6234 136.311C62.6084 134.013 62.6169 115.29 62.6169 115.29C62.6169 115.29 62.3438 113.485 62.1837 113.229C61.8388 112.679 61.1483 112.06 60.6047 111.605C72.4019 111.557 95.8984 111.537 95.8984 111.537L95.8993 111.537ZM160.814 111.537H177.802L177.783 142.955C172.937 141.333 168.152 140.409 163.069 139.202V128.975C160.23 128.569 157.213 128.209 154.355 127.881L154.417 137.563C149.369 136.715 144.326 136.04 139.194 135.499C139.221 128.447 139.275 121.394 139.275 114.342C139.275 113.83 139.168 113.347 138.834 112.89C138.478 112.404 137.918 111.984 137.424 111.568L154.252 111.641L154.31 120.788C157.157 120.98 160.001 121.194 162.841 121.432C162.857 119.42 162.909 117.407 162.909 115.396C162.909 113.754 162.126 112.848 160.815 111.536L160.814 111.537ZM101.025 138.358C130.486 138.358 157.285 141.861 177.549 147.574L169.685 155.427C152.709 150.864 131.331 147.435 101.025 147.435C69.3631 147.435 47.3758 150.717 30.2075 155.584L22.2125 148.243C42.7225 142.137 69.7679 138.362 101.028 138.362L101.025 138.358ZM97.0816 140.545L95.7152 140.564L95.7751 143.449C95.7788 143.62 95.8106 143.939 95.8582 144.397C95.6259 144.176 95.3689 143.988 95.0995 143.811L90.4406 140.642L89.4036 140.658L89.5173 146.151L90.8837 146.131L90.8215 143.161C90.8184 143.001 90.8001 142.713 90.7407 142.288C90.9214 142.456 91.1013 142.592 91.2939 142.727L96.1582 146.053L97.1956 146.037L97.0813 140.545L97.0816 140.545ZM107.555 140.691L107.321 146.182L114.06 146.385L114.104 145.353L108.882 145.195L108.94 143.833L111.949 143.924L111.989 142.987L108.98 142.897L109.032 141.673L114.19 141.828L114.23 140.892L107.555 140.691ZM85.3373 140.803L78.671 141.158L79.0851 146.642L85.8144 146.282L85.7367 145.251L80.5222 145.531L80.4194 144.17L83.4245 144.01L83.3541 143.074L80.349 143.235L80.2567 142.013L85.4082 141.737L85.3373 140.803ZM120.676 141.198L116.564 146.477L118.079 146.561L118.93 145.402L123.058 145.629L123.747 146.872L125.452 146.966L122.14 141.278L120.676 141.198ZM71.8482 141.732C71.5769 141.726 71.2889 141.736 70.9854 141.764L66.8099 142.145L67.5136 147.607L71.2999 147.261C72.4568 147.156 73.325 146.98 73.9114 146.595C74.757 146.046 75.1764 145.151 75.0441 144.124C74.8527 142.643 73.7478 141.777 71.8479 141.732H71.8482ZM129.957 141.805C129.057 141.794 128.719 142.083 128.611 142.982L128.263 145.863C128.139 146.89 128.497 147.189 129.718 147.293L134.199 147.676C135.42 147.781 135.842 147.55 135.966 146.523L136.194 144.637L132.254 144.3L132.142 145.232L134.609 145.443L134.462 146.661L129.741 146.258L130.16 142.793L134.879 143.197L134.805 143.812L136.305 143.715C136.31 143.673 136.315 143.63 136.32 143.588C136.439 142.603 136.042 142.312 134.859 142.211L130.378 141.828C130.225 141.815 130.086 141.807 129.957 141.805V141.805ZM121.276 142.298L122.504 144.605L119.651 144.449L121.276 142.298ZM71.6286 142.719C72.7347 142.748 73.3574 143.274 73.4829 144.246C73.6574 145.601 72.7535 146.09 70.8418 146.265L68.8922 146.443L68.4463 142.981L71.125 142.737C71.3027 142.721 71.4704 142.715 71.6286 142.719ZM140.851 142.818L139.913 148.255L146.26 149.031L146.437 148.009L141.591 147.417L142.353 143.001L140.851 142.818V142.818ZM58.5756 143.135L57.0749 143.327L58.0557 148.758L64.3974 147.947L64.2127 146.926L59.3717 147.545L58.5756 143.135V143.135ZM150.616 144.093L149.342 149.481L155.956 150.589L156.195 149.575L151.07 148.717L151.387 147.38L154.339 147.875L154.557 146.957L151.604 146.462L151.887 145.261L156.95 146.108L157.167 145.189L150.616 144.093ZM51.9127 144.133C51.698 144.127 51.444 144.153 51.1431 144.203L46.4268 144.988C45.2231 145.189 44.8999 145.514 45.1381 146.527L45.8061 149.369C46.0445 150.381 46.4907 150.579 47.6947 150.378L52.411 149.593C53.615 149.392 53.9382 149.067 53.6997 148.053L53.0317 145.212C52.8527 144.453 52.5574 144.151 51.9127 144.133ZM51.4685 145.147L52.2717 148.562L47.3572 149.381L46.5541 145.966L51.4685 145.147ZM162.112 146.26C161.468 146.233 161.144 146.512 160.891 147.257L160.692 147.841C160.354 148.833 160.644 149.18 161.824 149.465L165.739 150.409L165.329 151.616L160.889 150.546L161.102 149.922L159.736 149.836L159.687 149.98C159.349 150.973 159.651 151.322 160.831 151.606L164.711 152.542C165.89 152.827 166.367 152.664 166.705 151.671L166.952 150.945C167.29 149.952 166.988 149.602 165.809 149.318L161.893 148.373L162.28 147.237L166.39 148.229L166.184 148.832L167.56 148.887L167.599 148.775C167.909 147.864 167.555 147.513 166.436 147.243L162.872 146.383C162.577 146.313 162.327 146.269 162.112 146.26ZM39.7696 146.291C39.557 146.295 39.3107 146.332 39.0224 146.393L34.6572 147.329C33.4678 147.583 33.1658 147.923 33.4684 148.924L34.3168 151.73C34.6195 152.731 35.0775 152.908 36.2668 152.653L40.6324 151.718C41.8217 151.463 42.1229 151.124 41.8203 150.123L41.2657 148.286L37.4274 149.108L37.7025 150.017L40.1051 149.501L40.464 150.688L35.866 151.673L34.8463 148.299L39.4436 147.314L39.6251 147.913L40.9941 147.389C40.9814 147.348 40.969 147.307 40.9566 147.265C40.7388 146.546 40.4077 146.276 39.7696 146.291V146.291ZM100.468 150.886C102.135 150.886 103.777 150.897 105.395 150.919C104.113 154.4 102.55 157.97 100.654 161.585C100.337 161.285 100.135 161.029 100.135 161.029C97.1843 158.058 92.948 154.667 86.8729 151.14C91.1939 150.974 95.7197 150.886 100.468 150.886Z" fill="#4F2984"/>
</g>
<defs>
<clipPath id="clip0_154_2364">
<rect width="200" height="200" fill="white"/>
</clipPath>
</defs>
</svg>
