<svg width="200" height="200" viewBox="0 0 200 200" fill="none" xmlns="http://www.w3.org/2000/svg">
<g clip-path="url(#clip0_154_2365)">
<path d="M176.692 77.342C176.737 76.7916 176.805 75.7549 176.805 74.5935C176.805 73.6155 176.746 72.5725 176.588 71.6652L176.57 70.5505C177.364 70.0212 177.745 69.69 177.806 69.3001C177.81 69.2698 177.813 69.2368 177.813 69.2038C177.813 67.1864 168.368 62.9223 164.231 61.5123C162.553 60.8564 160.745 60.2564 158.865 59.7087C159.485 59.2601 173.324 49.0981 170.331 40.1324C166.897 29.8548 143.66 25.2127 101.263 26.331C76.233 26.9916 50.0339 36.0775 32.4603 43.5809C13.4243 51.7099 0.13394 59.7867 0 59.8665L0.034856 60.0316C0.26604 60.0619 23.2625 63.1811 47.2469 78.7007C61.3299 87.8141 72.9936 99.3586 81.9126 113.012C93.0599 130.082 99.9266 150.512 102.324 173.742L102.327 173.771L102.349 173.794C102.385 173.829 102.432 173.841 102.483 173.825C104.024 173.373 122.667 141.154 125.648 129.034C125.789 129.017 125.927 129.003 126.061 128.99L129.994 139.465L130.33 139.346C129.197 135.613 128.201 132.125 127.331 128.851C128.612 128.71 129.517 128.611 129.745 128.588C129.781 129.462 129.919 132.772 129.919 132.772L143.412 146.592L143.751 146.45C143.788 146.434 147.695 144.791 149.686 144.989C150.413 145.059 150.815 145.43 151.322 145.896C151.99 146.509 152.822 147.276 154.531 147.203C159.399 146.992 162.845 145.94 164.767 144.082C169.967 139.063 175.414 126.349 175.644 125.812L175.284 125.083L174.643 124.918L176.124 122.281L175.889 121.539C175.889 121.539 173.033 120.165 172.185 119.759C172.683 119.028 174.05 117.03 174.05 117.03L173.461 116.211C173.461 116.211 167.831 117.819 167.603 117.885C167.408 117.852 164.077 117.263 162.822 117.041C163.553 116.148 165.047 114.317 165.047 114.317L164.424 113.483C164.424 113.483 159.352 115.631 157.96 116.219C156.98 112.975 154.925 110.932 152.944 109.82C156.26 105.789 162.3 102.655 163.616 102.002C164.366 102.415 164.921 102.82 165.219 103.055C165.033 103.678 163.07 110.22 163.07 110.22L163.907 110.798C163.907 110.798 169.476 106.527 170.05 106.087C170.471 106.39 171.563 107.18 172.048 107.531C171.663 108.24 169.269 112.671 169.269 112.671L169.913 113.433C169.913 113.433 175.073 111.655 175.903 111.371C175.948 111.484 176.077 111.811 176.077 111.811L180.081 113.799L183.228 111.858L184.029 112.027L184.227 111.877C184.624 111.574 193.849 104.423 195.973 97.6477C198.639 96.4936 200 95.0129 200 93.2479V93.1937C199.898 86.6141 179.804 78.5539 176.693 77.3429" fill="black"/>
<path d="M131.602 61.0449C131.592 60.9651 131.576 60.8853 131.565 60.8045C131.548 60.7128 131.529 60.622 131.506 60.5275C131.487 60.4449 131.463 60.3633 131.437 60.2807C131.409 60.1862 131.378 60.0926 131.345 59.9981C131.315 59.9137 131.282 59.8293 131.247 59.7449C131.207 59.6486 131.162 59.5523 131.118 59.4532C131.092 59.4018 131.073 59.3496 131.047 59.2954C131.043 59.2954 131.038 59.2927 131.035 59.2908C131 59.2257 130.972 59.1596 130.936 59.0918C128.891 58.09 126.98 57.2533 125.199 56.5478C125.121 56.5148 125.046 56.4873 124.97 56.4542C124.921 56.435 124.872 56.4166 124.823 56.3955C121.618 55.1121 117.697 53.8635 113.767 53.4122C109.574 52.881 106.986 53.4094 105.812 53.8874C105.474 53.9855 105.138 54.0919 104.809 54.214C104.854 54.2846 104.899 54.3525 104.941 54.4231C106.255 54.3479 110.556 53.7745 116.078 54.8653C116.341 54.8956 116.609 54.9286 116.88 54.9662C120.537 55.7745 124.72 57.3496 128.951 60.3183C129.078 60.4293 129.208 60.5376 129.334 60.6523C126.927 60.8917 125.293 61.1036 124.246 61.3036C123.531 61.3834 122.976 61.555 122.592 61.8063C121.812 62.7164 129.826 63.776 128.733 66.8107C128.758 66.8373 128.871 66.9236 129.055 67.0153C129.067 66.997 129.08 66.9777 129.095 66.9612C129.166 66.8649 129.235 66.7713 129.306 66.675C129.379 66.5805 129.45 66.4841 129.518 66.3878C129.584 66.3007 129.647 66.2117 129.709 66.1245C129.777 66.0282 129.845 65.9346 129.911 65.8383C129.969 65.753 130.028 65.6713 130.084 65.586C130.148 65.4897 130.211 65.3979 130.27 65.3044C130.322 65.2218 130.376 65.1402 130.428 65.0576C130.484 64.9631 130.541 64.8741 130.595 64.7824C130.642 64.7026 130.688 64.6228 130.733 64.5429C130.788 64.4484 130.834 64.3567 130.881 64.2677C130.923 64.1879 130.964 64.1127 131.001 64.0347C131.048 63.9411 131.088 63.8466 131.131 63.7531C131.164 63.6797 131.199 63.6072 131.229 63.5347C131.269 63.4283 131.307 63.3228 131.344 63.2173C131.363 63.1558 131.389 63.0971 131.408 63.0384C131.457 62.876 131.502 62.7137 131.535 62.5513C131.549 62.4907 131.556 62.4292 131.565 62.3705C131.584 62.265 131.603 62.1596 131.615 62.0531C131.621 61.9825 131.624 61.91 131.626 61.8366C131.633 61.743 131.638 61.6495 131.638 61.5522C131.638 61.477 131.631 61.3999 131.624 61.3219C131.62 61.2302 131.614 61.1385 131.602 61.0449ZM181.569 80.5442C176.821 78.236 172.925 76.5737 172.925 76.5737L172.956 75.5939L174.862 76.3315L174.832 76.259C174.557 75.6077 174.126 74.5756 173.965 74.183C173.351 74.2793 173.02 74.3288 173.02 74.3288L173.095 72.1188C173.095 72.1188 175.382 70.2482 176.311 69.4226C176.461 69.3152 176.602 69.207 176.69 69.1217C176.685 69.1107 176.673 69.0987 176.666 69.0896C176.694 69.0565 176.705 69.0373 176.691 69.0373C176.635 68.9932 176.574 68.9501 176.515 68.9061C176.101 68.4731 175.145 67.8125 173.845 67.0557C172.366 66.1227 170.805 65.2668 169.185 64.4769L167.837 68.4969L157.218 62.0797L140.944 56.7506C140.918 56.746 140.895 56.7432 140.869 56.7405C140.84 56.8726 140.81 56.9992 140.782 57.1313C140.679 57.5918 140.568 58.0459 140.451 58.4854C140.448 58.4927 140.446 58.4991 140.446 58.5037C140.204 59.4064 139.936 60.2624 139.644 61.0752C139.635 61.099 139.628 61.1275 139.618 61.1504C139.478 61.5412 139.332 61.9192 139.182 62.2889C139.167 62.321 139.153 62.354 139.139 62.3871C138.989 62.7558 138.831 63.1182 138.669 63.4687C138.664 63.4898 138.652 63.5063 138.645 63.5246C138.309 64.2494 137.959 64.9374 137.59 65.5979C137.583 65.6145 137.571 65.631 137.564 65.6475C137.385 65.9631 137.205 66.2704 137.023 66.5713C137.002 66.6089 136.979 66.6447 136.958 66.6796C136.805 66.9337 136.645 67.1777 136.486 67.4227C139.755 67.1007 144.671 66.3291 150.813 64.931C150.817 64.9283 150.822 64.9264 150.659 64.7567L150.492 63.4329L151.092 63.7861L160.575 68.7621L159.22 66.9832L159.658 66.7126L161.16 67.8667L168.471 73.6609L168.127 74.5196L161.285 76.804C161.285 76.804 171.63 75.7343 186.066 89.3145C186.078 89.3255 186.089 89.3374 186.104 89.3521C186.113 89.2503 191.811 89.4173 197.899 91.0768C198.047 91.1897 198.193 91.3053 198.341 91.4227C196.105 87.7201 187.94 83.401 181.569 80.5442ZM136.963 34.5963C137.219 34.6037 137.47 34.6101 137.715 34.6193H137.787C138.025 34.6293 138.255 34.6385 138.484 34.6477C138.511 34.6477 138.54 34.6504 138.568 34.6504C138.801 34.6624 139.029 34.6716 139.254 34.6835C139.295 34.6862 139.332 34.6881 139.372 34.6908C139.826 34.7138 140.261 34.7404 140.679 34.7679C140.709 34.7706 140.742 34.7725 140.773 34.7752C140.975 34.7899 141.174 34.8037 141.37 34.8202C141.395 34.8202 141.424 34.8229 141.452 34.8248C141.642 34.8413 141.833 34.8578 142.017 34.8716C142.021 34.8743 142.026 34.8743 142.028 34.8743H142.031C145.06 35.1404 146.885 35.5165 147.823 35.7577C147.964 35.7935 148.035 35.8101 148.08 35.8073C162.115 38.9742 164.361 45.2712 164.381 45.3345L164.541 45.9363C164.579 45.5913 164.609 45.2455 164.618 44.8978C164.63 44.796 164.64 44.6721 164.647 44.5382C164.621 43.0171 164.205 40.5181 162.108 38.2659C161.974 38.1201 161.835 37.9769 161.685 37.8311C157.806 34.122 148.265 30.0084 124.822 31.4845C98.1081 33.167 59.3572 41.6135 9.64062 56.5873L9.69018 56.7616C10.8608 56.4487 12.0167 56.1451 13.1689 55.8442C13.4065 55.7809 13.6432 55.7194 13.8808 55.6561C14.9927 55.3671 16.0973 55.0781 17.1936 54.7956C17.3908 54.7442 17.588 54.6947 17.7835 54.6433C18.8155 54.3772 19.8421 54.114 20.8604 53.8534C20.9898 53.8204 21.1237 53.7855 21.2549 53.7525C22.3438 53.4745 23.42 53.2021 24.4924 52.9324C24.7181 52.8755 24.941 52.8195 25.1639 52.7626C26.2364 52.492 27.2987 52.2269 28.35 51.9654C28.4629 51.9379 28.5757 51.9095 28.6886 51.881C29.6729 51.637 30.6509 51.3948 31.6215 51.1599C31.8077 51.1122 31.9958 51.0655 32.1811 51.0205C33.1994 50.7719 34.2104 50.5251 35.2113 50.2829C35.4113 50.2352 35.6112 50.1884 35.8103 50.1389C36.8314 49.8921 37.846 49.6481 38.8506 49.4105C38.8598 49.4077 38.8689 49.4059 38.8781 49.4031C39.8891 49.1637 40.8863 48.9288 41.8798 48.6958C42.078 48.649 42.278 48.6022 42.4752 48.5545C43.4366 48.3288 44.3907 48.1077 45.3338 47.8894C45.4953 47.8546 45.6577 47.8169 45.8173 47.7793C46.709 47.572 47.5925 47.372 48.4667 47.1729C48.5796 47.1463 48.697 47.1188 48.8098 47.0922C49.7456 46.883 50.6694 46.6739 51.5859 46.4693C51.7795 46.4271 51.9694 46.3831 52.162 46.3409C53.0739 46.1381 53.9821 45.9363 54.8775 45.739C54.9757 45.717 55.0748 45.6959 55.1711 45.6748C56.0124 45.4913 56.8444 45.3088 57.6719 45.1299C57.8324 45.0969 57.9921 45.062 58.1517 45.0262C59.0214 44.8409 59.8819 44.6547 60.7351 44.4739C60.9048 44.4391 61.0718 44.4033 61.2406 44.3685C62.0965 44.1868 62.947 44.0088 63.7864 43.8345C63.8121 43.8272 63.8359 43.8226 63.857 43.818C64.7175 43.6391 65.5661 43.4657 66.4074 43.2942C66.5698 43.2612 66.734 43.2281 66.8964 43.1951C67.7147 43.0281 68.5256 42.8639 69.3293 42.7034C69.466 42.6759 69.5999 42.6502 69.7338 42.6217C70.4833 42.4731 71.2265 42.3254 71.9641 42.1823C72.0659 42.163 72.1668 42.1419 72.2677 42.1236C73.0576 41.9686 73.8355 41.8181 74.6071 41.6695C74.7685 41.6392 74.929 41.6089 75.0905 41.5777C75.8639 41.43 76.6327 41.2842 77.3895 41.1429C77.4602 41.1291 77.5308 41.1172 77.6042 41.1034C78.318 40.9686 79.0262 40.8374 79.7262 40.7108C79.8628 40.6842 79.9995 40.6613 80.138 40.6356C80.8646 40.5016 81.5857 40.3723 82.2986 40.2448C82.4417 40.2191 82.5829 40.1934 82.726 40.1677C83.4379 40.0429 84.1434 39.9182 84.8388 39.7961C84.8654 39.7915 84.8911 39.787 84.9167 39.7815C85.6287 39.6576 86.3323 39.5402 87.0304 39.42C87.1754 39.3943 87.3194 39.3705 87.4653 39.3448C88.1442 39.2319 88.8166 39.1191 89.4817 39.0081C89.5918 38.9916 89.7001 38.9732 89.8111 38.9549C90.434 38.8531 91.0496 38.7522 91.6606 38.6558C91.7505 38.6393 91.8395 38.6255 91.9266 38.6109C92.5798 38.5081 93.2238 38.4044 93.8632 38.3054C93.9999 38.2843 94.1311 38.2659 94.265 38.2448C94.9072 38.1439 95.5439 38.0467 96.1723 37.9531C96.2237 37.9457 96.2732 37.9366 96.3246 37.9292C96.9218 37.8402 97.5071 37.7531 98.0924 37.6687C98.2053 37.6522 98.3209 37.6357 98.4337 37.6192C99.0355 37.5302 99.6273 37.4448 100.217 37.3632C100.33 37.3467 100.446 37.3302 100.558 37.3137C101.139 37.2338 101.717 37.154 102.286 37.0761C102.312 37.0733 102.338 37.0687 102.364 37.0669C102.949 36.9871 103.525 36.9119 104.096 36.8366C104.211 36.8201 104.326 36.8063 104.444 36.7917C105.001 36.7192 105.554 36.6485 106.094 36.5807C106.184 36.5687 106.27 36.5587 106.357 36.5476C106.863 36.4834 107.361 36.4229 107.854 36.3642C107.932 36.355 108.01 36.3449 108.086 36.3357C108.617 36.2724 109.139 36.211 109.66 36.1522C109.766 36.1403 109.872 36.1265 109.977 36.1146C110.497 36.0559 111.012 35.9972 111.519 35.9431C111.562 35.9385 111.602 35.9339 111.647 35.9293C112.124 35.877 112.596 35.8284 113.064 35.7789C113.161 35.7697 113.254 35.7596 113.349 35.7504C113.83 35.7009 114.307 35.6513 114.778 35.6073C114.872 35.5981 114.959 35.588 115.051 35.5816C115.516 35.5339 115.974 35.4917 116.426 35.4523C116.449 35.4477 116.475 35.4449 116.498 35.4449C116.964 35.4 117.422 35.3605 117.878 35.3202C117.972 35.3128 118.066 35.3064 118.158 35.2963C118.6 35.2587 119.039 35.2238 119.472 35.189C119.536 35.1844 119.599 35.1789 119.662 35.1743C120.071 35.1413 120.471 35.111 120.866 35.0807C120.925 35.078 120.986 35.0734 121.042 35.0688C121.463 35.0376 121.877 35.0101 122.288 34.9817C122.37 34.9743 122.453 34.9697 122.533 34.9651C122.947 34.9367 123.353 34.911 123.753 34.8872C123.774 34.8844 123.795 34.8835 123.816 34.8835C124.204 34.8596 124.585 34.8385 124.961 34.8174C125.032 34.8128 125.102 34.8101 125.17 34.8055C125.551 34.7844 125.924 34.7651 126.293 34.7468C126.362 34.744 126.425 34.7422 126.493 34.7376C126.851 34.7211 127.203 34.7064 127.551 34.6899C127.575 34.6899 127.599 34.6899 127.622 34.6871C127.984 34.6734 128.339 34.6596 128.687 34.6477C128.757 34.645 128.828 34.6431 128.896 34.6404C129.239 34.6284 129.58 34.6193 129.911 34.6101C129.956 34.6074 130 34.6073 130.045 34.6073C130.358 34.5982 130.666 34.5908 130.969 34.5835C131.014 34.5835 131.061 34.5807 131.103 34.5807C131.425 34.5761 131.74 34.5688 132.051 34.567C132.111 34.5642 132.173 34.5642 132.234 34.5624C132.546 34.5596 132.854 34.5578 133.155 34.5551H133.196C133.489 34.5523 133.778 34.5523 134.065 34.5551H134.213C134.5 34.5551 134.78 34.5578 135.054 34.5596H135.196C135.464 34.5642 135.73 34.5688 135.99 34.5715C136.005 34.5715 136.019 34.5743 136.032 34.5743C136.3 34.5789 136.564 34.5835 136.822 34.5908C136.87 34.5908 136.917 34.5936 136.963 34.5954M143.621 145.263V145.266C143.639 145.287 143.66 145.308 143.672 145.32C143.837 145.254 144.06 145.164 144.324 145.07C145.591 144.701 148.299 143.946 150.156 143.987C150.604 144.022 151.677 144.903 152.492 145.493C152.647 145.618 152.81 145.731 152.986 145.827C153.177 145.945 153.329 146.011 153.421 146.003C153.43 146.008 153.442 146.011 153.451 146.012C153.456 146.032 153.545 146.065 153.768 146.083C153.982 146.119 154.215 146.137 154.486 146.125C155.992 146.06 157.351 145.912 158.557 145.686C160.071 145.683 161.505 145.126 162.85 144.196C163.296 143.925 163.691 143.629 164.025 143.305C164.154 143.178 164.288 143.046 164.415 142.91C167.892 139.619 170.684 134.04 172.654 129.718C173.472 128.04 174.088 126.678 174.408 125.957C173.677 125.769 166.495 123.922 161.439 122.616C161.547 125.002 161.484 139.815 143.621 145.263ZM190.423 95.4987L188.896 96.2179L188.863 96.2372L188.768 96.2794V96.2748L187.757 93.8134L187.623 93.4731C187.292 94.3455 185.353 98.2922 176.719 100.957C177.68 102.418 177.057 103.924 178.574 106.038C181.521 108.424 190.106 104.58 192.41 95.6546C192.417 95.6501 192.367 95.64 192.29 95.6308C191.608 95.5748 190.423 95.4987 190.423 95.4987Z" fill="#B5A36A"/>
<path d="M141.874 34.875C172.659 38.0187 153.384 57.7478 153.384 57.7478V57.7492L158.148 58.7007C158.148 58.7007 158.157 58.6939 158.166 58.6822C158.17 58.678 158.177 58.6677 158.184 58.6588C158.194 58.6491 158.2 58.6423 158.212 58.6285C158.219 58.6189 158.226 58.6085 158.233 58.6017C158.258 58.5714 158.287 58.5384 158.322 58.4964C158.349 58.4654 158.374 58.4338 158.407 58.3959C158.419 58.3794 158.434 58.3629 158.446 58.3485C158.474 58.3134 158.501 58.2803 158.534 58.2404C158.548 58.2212 158.565 58.2012 158.581 58.1819C158.593 58.1654 158.608 58.1489 158.62 58.1345C158.643 58.1063 158.666 58.076 158.69 58.0478C158.713 58.0196 158.737 57.9886 158.758 57.9576C158.763 57.9535 158.766 57.9487 158.77 57.9459C158.774 57.9391 158.777 57.9349 158.782 57.9274C158.815 57.8875 158.847 57.8455 158.883 57.8008C158.901 57.7774 158.92 57.7519 158.939 57.7285C158.982 57.6721 159.025 57.615 159.072 57.5538C159.096 57.5235 159.12 57.4925 159.141 57.4616C159.167 57.4313 159.19 57.3983 159.216 57.3652C159.24 57.3322 159.264 57.3026 159.287 57.2675C159.318 57.2304 159.345 57.1891 159.373 57.1512C159.42 57.0859 159.47 57.0233 159.52 56.9552C159.548 56.9146 159.579 56.8747 159.607 56.832C159.663 56.7542 159.719 56.6772 159.776 56.5974C159.802 56.5623 159.827 56.5272 159.851 56.4914C159.888 56.4377 159.926 56.3834 159.965 56.329C159.989 56.2939 160.014 56.2589 160.037 56.2238C160.065 56.1839 160.093 56.1433 160.119 56.1013C160.18 56.0167 160.241 55.9272 160.3 55.8357C160.33 55.7937 160.358 55.7483 160.389 55.7036C160.455 55.6025 160.526 55.4965 160.594 55.3912C160.62 55.3513 160.645 55.3135 160.669 55.2708C160.737 55.1676 160.803 55.0637 160.868 54.9584C160.896 54.9158 160.921 54.8766 160.949 54.8339C161.022 54.7121 161.097 54.5903 161.172 54.463C161.193 54.4307 161.214 54.397 161.235 54.3619C161.32 54.2181 161.407 54.0729 161.491 53.925C161.501 53.9085 161.511 53.894 161.52 53.8775C161.647 53.6539 161.774 53.4241 161.9 53.1908C161.922 53.1509 161.943 53.1131 161.964 53.0711C161.975 53.0525 161.986 53.0333 161.995 53.014C162.123 52.7766 162.246 52.5351 162.369 52.2888C162.372 52.2861 162.373 52.2812 162.376 52.2792C162.408 52.209 162.444 52.1374 162.477 52.0666C162.496 52.0294 162.515 51.9895 162.534 51.9517C162.567 51.8815 162.601 51.8113 162.634 51.7411C162.646 51.717 162.655 51.6957 162.665 51.6723C162.721 51.5478 162.778 51.4232 162.836 51.296C162.855 51.254 162.872 51.212 162.892 51.1694C162.912 51.1274 162.931 51.0792 162.95 51.0345C162.985 50.9526 163.02 50.8714 163.055 50.7868C163.058 50.7841 163.058 50.7834 163.058 50.7813C163.084 50.718 163.11 50.6575 163.135 50.5969C163.155 50.5494 163.174 50.502 163.192 50.4531C163.228 50.3705 163.259 50.2838 163.29 50.1965C163.316 50.1359 163.34 50.0747 163.364 50.0134C163.387 49.9522 163.407 49.891 163.428 49.8297C163.455 49.7595 163.48 49.688 163.503 49.6199C163.528 49.5497 163.553 49.4823 163.579 49.4114C163.598 49.3481 163.622 49.2834 163.644 49.2201C163.689 49.0839 163.733 48.9463 163.773 48.81C163.794 48.7419 163.812 48.6759 163.834 48.6078C163.836 48.5961 163.838 48.5837 163.843 48.572C163.88 48.4454 163.916 48.3181 163.951 48.1908C163.968 48.1227 163.986 48.0546 164.002 47.9892C164.038 47.8482 164.074 47.7064 164.104 47.5654C164.119 47.4993 164.132 47.436 164.147 47.3727C164.161 47.3094 164.172 47.2461 164.186 47.1828C164.202 47.103 164.22 47.0211 164.233 46.9413C164.245 46.8753 164.254 46.8119 164.268 46.7459C164.282 46.6661 164.292 46.5856 164.306 46.5058C164.313 46.4425 164.324 46.3792 164.334 46.3159C164.344 46.245 164.353 46.1762 164.363 46.106C164.363 46.1033 164.363 46.1012 164.366 46.0964C164.37 46.0427 164.377 45.9911 164.381 45.9395L164.219 45.3347C164.2 45.2714 161.955 38.9771 147.92 35.808C147.875 35.8121 147.805 35.7956 147.664 35.7578C147.61 35.7461 147.554 35.7323 147.496 35.7179C147.482 35.7137 147.468 35.711 147.454 35.7062C147.395 35.6924 147.335 35.678 147.269 35.6614H147.263C147.2 35.6449 147.135 35.6305 147.067 35.6167C147.051 35.6119 147.031 35.6091 147.014 35.605C146.941 35.5885 146.869 35.5727 146.789 35.5562H146.782C146.707 35.5397 146.627 35.5238 146.547 35.5073C146.526 35.5025 146.504 35.4997 146.485 35.4949C146.398 35.4784 146.309 35.4592 146.217 35.4426C146.214 35.4426 146.213 35.4426 146.211 35.4399C146.121 35.4254 146.03 35.4075 145.933 35.391C145.91 35.3862 145.886 35.3835 145.862 35.3793C145.761 35.3601 145.66 35.3442 145.552 35.3277C145.55 35.325 145.547 35.325 145.543 35.325C145.439 35.3064 145.329 35.2899 145.218 35.2734C145.194 35.2693 145.172 35.2637 145.148 35.2617C145.033 35.2452 144.915 35.2266 144.791 35.2073C144.784 35.2073 144.779 35.2073 144.772 35.2046C144.654 35.1881 144.534 35.1709 144.412 35.155C144.384 35.1502 144.356 35.1475 144.33 35.1427C144.196 35.1261 144.065 35.1076 143.926 35.091C143.919 35.091 143.913 35.089 143.906 35.089C143.772 35.0725 143.637 35.0566 143.496 35.0401C143.467 35.0374 143.441 35.0326 143.413 35.0305C143.26 35.0119 143.11 34.9954 142.952 34.9789H142.94C142.79 34.9624 142.635 34.9459 142.477 34.9314C142.444 34.9273 142.413 34.9245 142.38 34.9225C142.217 34.906 142.048 34.8888 141.874 34.875ZM127.304 39.9452C110.045 39.7354 80.5221 45.5982 30.2285 64.8925C156.953 21.3012 141.236 55.8419 141.236 55.8419L150.766 57.5083C150.766 57.5083 156.068 40.2941 127.304 39.9452ZM108.769 54.2064C106.839 54.2229 105.435 54.3853 104.778 54.4231C112.364 66.9126 122.424 69.1082 122.528 69.1302L122.669 70.1292C122.669 70.1292 113.262 75.046 112.564 75.4107C112.762 76.1744 115.408 86.5454 115.408 86.5454C115.408 86.5454 105.225 94.0699 104.531 94.5831C104.945 95.3654 114.635 113.617 114.635 113.617C114.635 113.617 113.144 128.102 113.017 129.317C113.811 129.228 120.775 128.467 125.542 127.947C125.276 127.164 125.022 126.387 124.775 125.619L124.777 125.618C124.551 124.912 124.331 124.215 124.115 123.524C124.113 123.519 124.113 123.514 124.113 123.511C124.028 123.239 123.946 122.969 123.862 122.699C123.859 122.696 123.859 122.691 123.859 122.691C123.857 122.688 123.855 122.686 123.854 122.682C123.657 122.028 123.469 121.379 123.281 120.735V120.732C123.277 120.723 123.271 120.711 123.271 120.699C123.266 120.688 123.264 120.678 123.262 120.669C123.16 120.321 123.056 119.973 122.959 119.628V119.625C122.959 119.623 122.955 119.621 122.955 119.618C122.795 119.054 122.651 118.497 122.5 117.94C122.495 117.923 122.492 117.909 122.488 117.895C122.485 117.892 122.485 117.893 122.485 117.891C122.396 117.55 122.299 117.21 122.212 116.871C122.21 116.868 122.21 116.866 122.21 116.866C122.21 116.866 122.207 116.861 122.207 116.859V116.854C121.899 115.674 121.619 114.517 121.356 113.372C121.339 113.304 121.326 113.239 121.312 113.171C121.308 113.156 121.306 113.145 121.301 113.131C121.062 112.08 120.841 111.041 120.637 110.018C120.637 110.013 120.634 110.004 120.634 110.002C120.629 109.981 120.626 109.961 120.622 109.942C120.558 109.62 120.488 109.294 120.43 108.976V108.97C120.297 108.281 120.18 107.604 120.068 106.929C120.068 106.921 120.068 106.916 120.065 106.906C120.056 106.845 120.042 106.784 120.032 106.722V106.718C119.912 105.984 119.802 105.263 119.704 104.546C119.675 104.377 119.649 104.202 119.625 104.033V104.027C119.602 103.85 119.581 103.676 119.557 103.5V103.488C119.529 103.279 119.508 103.069 119.481 102.86C119.284 101.205 119.139 99.5956 119.051 98.0323V98.022L119.047 97.969C119.04 97.8211 119.031 97.6725 119.024 97.5218C119.024 97.5218 119.024 97.5197 119.021 97.5177C118.998 97.0195 118.981 96.5269 118.97 96.0356C118.967 95.9462 118.965 95.8581 118.962 95.7666V95.7549V95.7466C118.95 95.1191 118.945 94.4992 118.952 93.8861C118.952 93.7919 118.953 93.6921 118.958 93.5985C118.958 93.41 118.96 93.2256 118.962 93.0371V93.0268C118.965 92.9187 118.967 92.8059 118.97 92.6958V92.6931C118.986 92.2582 119.009 91.833 119.034 91.405C119.044 91.2007 119.051 90.9867 119.063 90.7817V90.7796V90.7755C119.111 90.1081 119.166 89.4517 119.239 88.8077C120.438 78.0177 124.855 72.2746 128.078 68.0802C128.353 67.7211 128.619 67.3743 128.875 67.0378C128.879 67.0289 128.884 67.0213 128.891 67.0144C128.707 66.9222 128.595 66.8355 128.569 66.8121C129.662 63.7778 121.649 62.7162 122.43 61.8038C122.162 61.9827 121.974 62.1974 121.882 62.4589C121.346 63.9891 123.651 66.7537 125.052 67.5194L124.655 68.5068C106.782 63.676 107.55 55.8667 107.59 55.5357L107.636 55.1593L108.005 55.0788C108.072 55.0651 111.442 54.3598 115.916 54.8656C113.155 54.3199 110.698 54.1899 108.769 54.2064ZM97.9036 55.6107C89.4598 55.7311 72.5717 58.6471 50.9546 76.0884C92.4019 48.9332 110.509 63.9409 110.509 63.9409L103.836 56.0793C103.836 56.0793 101.742 55.5564 97.9042 55.6107H97.9036ZM140.784 56.7494L157.058 62.0811L167.677 68.4979L169.026 64.479C159.806 59.9936 148.709 57.7691 140.784 56.7494ZM108.894 63.9024C102.752 63.9285 78.052 66.1427 75.9672 99.91C81.9209 65.6087 118.608 69.6572 118.608 69.4198C113.366 67.2759 110.271 63.9409 110.271 63.9409C110.271 63.9409 109.772 63.8989 108.894 63.9024ZM150.653 64.9317C144.511 66.3278 139.598 67.0991 136.328 67.4231C136.295 67.4747 136.262 67.5298 136.232 67.5793C136.227 67.5834 136.224 67.5876 136.22 67.5951C136.018 67.9027 135.813 68.2041 135.607 68.4999C135.604 68.5027 135.602 68.5075 135.6 68.5123C135.39 68.8082 135.181 69.1026 134.969 69.3896C134.965 69.3923 134.962 69.3937 134.96 69.3992C134.748 69.6854 134.532 69.9689 134.316 70.2489V70.2517C134.304 70.2634 134.294 70.2758 134.285 70.2895C134.001 70.6563 133.712 71.0154 133.425 71.3705L133.421 71.376C132.836 72.0998 132.24 72.8071 131.65 73.5096C131.436 73.7635 131.223 74.0174 131.011 74.2713C130.962 74.3298 130.912 74.3889 130.865 74.4453C130.834 74.4832 130.804 74.5183 130.774 74.5534C130.719 74.6194 130.666 74.6855 130.611 74.7488C130.609 74.7515 130.609 74.7529 130.607 74.7529C130.604 74.7577 130.602 74.7605 130.6 74.7646L130.47 74.9215C130.399 75.004 130.331 75.0852 130.265 75.1671C130.23 75.2118 130.195 75.2531 130.16 75.2978C130.08 75.3921 130.002 75.4891 129.925 75.5854C129.899 75.6136 129.877 75.6419 129.854 75.6701C129.83 75.7003 129.805 75.7306 129.782 75.7609C129.746 75.8036 129.716 75.8441 129.681 75.8868C129.65 75.9267 129.616 75.9666 129.586 76.0038C129.539 76.0602 129.499 76.1139 129.453 76.1703C129.387 76.2549 129.32 76.3375 129.252 76.4221C129.224 76.4599 129.193 76.4971 129.165 76.5343C129.146 76.5576 129.13 76.5817 129.113 76.6031C129.067 76.6615 129.022 76.7187 128.977 76.7771C128.905 76.8714 128.831 76.967 128.758 77.0613C128.749 77.0751 128.738 77.0874 128.728 77.1019C128.712 77.1232 128.697 77.1418 128.681 77.1624C128.622 77.2423 128.564 77.3228 128.502 77.4005C128.5 77.4046 128.498 77.4074 128.496 77.4095C128.475 77.4377 128.453 77.4659 128.434 77.4941C128.377 77.5691 128.321 77.642 128.268 77.717C128.216 77.7872 128.164 77.8587 128.114 77.9296C128.11 77.9337 128.105 77.9379 128.105 77.9427C128.049 78.0177 127.994 78.0934 127.938 78.1711C127.888 78.2413 127.839 78.3129 127.79 78.381C127.736 78.458 127.682 78.5351 127.627 78.6101C127.595 78.6596 127.564 78.7071 127.531 78.7539C127.528 78.7587 127.527 78.7642 127.522 78.7683C127.508 78.7897 127.491 78.811 127.477 78.8344L127.473 78.8385C127.422 78.9183 127.368 78.9933 127.316 79.0738C127.285 79.1158 127.257 79.1633 127.226 79.208C127.205 79.239 127.184 79.2713 127.166 79.3043C127.114 79.38 127.062 79.4543 127.013 79.5341C126.998 79.5555 126.985 79.5789 126.97 79.6002C126.961 79.614 126.951 79.6284 126.944 79.6449C126.93 79.6635 126.916 79.6848 126.901 79.7055C126.89 79.7268 126.877 79.7474 126.865 79.7667C126.811 79.8507 126.755 79.9367 126.704 80.024C126.654 80.099 126.611 80.1754 126.564 80.2504C126.515 80.335 126.462 80.421 126.411 80.5057C126.364 80.5827 126.319 80.6632 126.272 80.743C126.223 80.8277 126.17 80.9123 126.123 80.999C126.09 81.0575 126.058 81.116 126.025 81.1745C126.004 81.2123 125.983 81.2529 125.962 81.2907C125.957 81.2997 125.95 81.3086 125.945 81.3183C125.91 81.3816 125.878 81.4407 125.845 81.5047C125.833 81.5254 125.82 81.5467 125.806 81.5701C125.754 81.6671 125.702 81.7676 125.65 81.8659C125.622 81.9175 125.595 81.9671 125.569 82.0194C125.566 82.0263 125.565 82.0331 125.562 82.0373C125.555 82.0469 125.553 82.0545 125.55 82.0641C125.508 82.1418 125.467 82.223 125.428 82.3029C125.388 82.3847 125.346 82.4659 125.306 82.5485C125.257 82.6496 125.207 82.7522 125.157 82.8533C125.119 82.9331 125.082 83.0136 125.045 83.0934C125.002 83.1849 124.962 83.2764 124.922 83.3707C124.88 83.4622 124.838 83.5544 124.798 83.6459C124.781 83.6838 124.767 83.7182 124.751 83.756C124.727 83.8124 124.701 83.8737 124.676 83.9328C124.638 84.0264 124.596 84.1186 124.561 84.2122C124.532 84.2714 124.509 84.3347 124.488 84.3959C124.462 84.4592 124.436 84.5225 124.41 84.5858C124.382 84.6567 124.354 84.7241 124.328 84.797C124.309 84.8438 124.293 84.8913 124.274 84.9381C124.25 85.0014 124.227 85.0674 124.206 85.1307C124.17 85.2181 124.137 85.3069 124.104 85.3991C124.1 85.4128 124.098 85.428 124.091 85.4397C124.088 85.4445 124.085 85.4507 124.085 85.4555C124.057 85.5422 124.024 85.6296 123.996 85.7169C123.963 85.8133 123.928 85.9069 123.895 86.0059C123.886 86.039 123.875 86.0747 123.865 86.1078C123.853 86.1449 123.841 86.1793 123.829 86.2172C123.818 86.2571 123.802 86.2997 123.79 86.3396C123.757 86.4428 123.724 86.5467 123.691 86.6499V86.6589C123.651 86.7834 123.615 86.9107 123.577 87.038C123.554 87.1226 123.528 87.2066 123.502 87.2912C123.469 87.4137 123.437 87.5389 123.405 87.6634C123.4 87.6731 123.399 87.682 123.396 87.691C123.371 87.7804 123.348 87.8699 123.324 87.9593C123.286 88.1072 123.248 88.26 123.213 88.4127C123.194 88.4932 123.173 88.5703 123.155 88.6508C123.155 88.6625 123.15 88.6742 123.147 88.6859C123.116 88.82 123.087 88.9563 123.056 89.0925C123.037 89.182 123.016 89.2728 122.999 89.3643C122.997 89.367 122.997 89.3719 122.997 89.3739C122.973 89.4792 122.952 89.5879 122.931 89.6959L122.916 89.764C122.898 89.87 122.876 89.976 122.853 90.0861C122.836 90.1851 122.818 90.2863 122.801 90.3874L122.785 90.4707C122.783 90.4893 122.781 90.5051 122.778 90.5216C122.759 90.6275 122.74 90.7301 122.721 90.836C122.714 90.8828 122.707 90.933 122.702 90.9798C122.693 91.0218 122.686 91.0645 122.682 91.1092C122.67 91.1752 122.66 91.2434 122.649 91.3135C122.634 91.4078 122.62 91.5021 122.606 91.5984C122.603 91.6197 122.599 91.6404 122.597 91.6596C122.58 91.789 122.562 91.9197 122.545 92.0484C122.531 92.164 122.514 92.2816 122.498 92.3972V92.4089C122.486 92.4956 122.479 92.585 122.468 92.6766C122.46 92.7426 122.454 92.8094 122.446 92.8775C122.435 92.9903 122.42 93.1004 122.408 93.2153C122.406 93.2222 122.406 93.2318 122.406 93.2394C122.406 93.2483 122.403 93.26 122.403 93.2697C122.388 93.4011 122.377 93.5352 122.366 93.6694C122.354 93.7988 122.342 93.9226 122.33 94.052C122.318 94.1999 122.309 94.3506 122.297 94.5006C122.288 94.6396 122.276 94.7737 122.269 94.9148C122.26 95.0655 122.25 95.2203 122.243 95.373C122.236 95.5141 122.227 95.6558 122.219 95.7969C122.216 95.865 122.216 95.9331 122.213 96.0012V96.0129C122.21 96.0975 122.208 96.187 122.201 96.2716V96.2757C122.199 96.4216 122.192 96.5647 122.189 96.7126C122.186 96.7945 122.185 96.8771 122.185 96.9617C122.183 97.056 122.18 97.1558 122.177 97.2493C122.177 97.3814 122.173 97.5101 122.173 97.6415V97.883C122.173 97.9793 122.17 98.0784 122.17 98.1775C122.17 98.3206 122.17 98.4644 122.173 98.6103C122.173 98.7933 122.177 98.9811 122.177 99.1642C122.181 99.3148 122.184 99.4614 122.186 99.6121C122.186 99.6258 122.189 99.6417 122.189 99.6582C122.189 99.705 122.193 99.7531 122.193 99.8047C122.197 99.8866 122.197 99.9733 122.202 100.055V100.143C122.21 100.307 122.214 100.47 122.221 100.635C122.225 100.815 122.238 101.001 122.245 101.186C122.254 101.349 122.26 101.51 122.269 101.677C122.272 101.713 122.273 101.751 122.275 101.788C122.279 101.842 122.282 101.901 122.284 101.96C122.291 102.058 122.298 102.155 122.302 102.251C122.312 102.423 122.324 102.592 122.335 102.766C122.347 102.959 122.364 103.151 122.38 103.347C122.392 103.511 122.404 103.678 122.417 103.847C122.434 104.04 122.452 104.235 122.469 104.433C122.472 104.449 122.472 104.468 122.474 104.484C122.49 104.653 122.505 104.823 122.522 104.995C122.524 105.021 122.529 105.048 122.531 105.074C122.54 105.168 122.549 105.265 122.558 105.357C122.561 105.399 122.568 105.441 122.57 105.483C122.578 105.535 122.579 105.584 122.587 105.636C122.605 105.82 122.624 106 122.643 106.182C122.657 106.299 122.671 106.418 122.683 106.534C122.697 106.647 122.709 106.757 122.724 106.868L122.726 106.888C122.745 107.054 122.765 107.216 122.784 107.385C122.801 107.507 122.815 107.633 122.832 107.757C122.846 107.854 122.857 107.95 122.869 108.049C122.895 108.244 122.921 108.439 122.946 108.639C122.954 108.7 122.964 108.765 122.973 108.828C122.977 108.857 122.981 108.885 122.988 108.913C123.006 109.068 123.027 109.228 123.051 109.386C123.076 109.559 123.103 109.733 123.126 109.909C123.161 110.135 123.196 110.366 123.231 110.598C123.262 110.802 123.295 111.008 123.326 111.212C123.335 111.266 123.342 111.317 123.352 111.369C123.382 111.561 123.415 111.757 123.445 111.952C123.48 112.155 123.512 112.355 123.547 112.559C123.587 112.796 123.631 113.037 123.674 113.279C123.709 113.497 123.749 113.714 123.789 113.937C123.789 113.941 123.791 113.948 123.793 113.956C123.811 114.073 123.835 114.193 123.858 114.314C123.882 114.451 123.908 114.59 123.934 114.729C123.937 114.738 123.939 114.75 123.939 114.762C123.974 114.947 124.009 115.138 124.047 115.328C124.064 115.417 124.082 115.509 124.099 115.598C124.108 115.636 124.113 115.674 124.12 115.707C124.148 115.843 124.17 115.977 124.199 116.111C124.241 116.332 124.283 116.55 124.328 116.775C124.347 116.865 124.366 116.956 124.385 117.044C124.409 117.161 124.433 117.277 124.456 117.395C124.473 117.472 124.486 117.549 124.505 117.629C124.545 117.834 124.59 118.039 124.631 118.243C124.679 118.469 124.729 118.701 124.778 118.927C124.786 118.962 124.792 118.995 124.799 119.026C124.804 119.045 124.807 119.067 124.811 119.085C124.863 119.321 124.912 119.554 124.966 119.794C125.008 119.982 125.048 120.173 125.092 120.362C125.118 120.476 125.142 120.587 125.167 120.699C125.215 120.913 125.262 121.125 125.311 121.339C125.331 121.426 125.351 121.517 125.372 121.604C125.386 121.668 125.4 121.727 125.414 121.788C125.452 121.952 125.491 122.114 125.531 122.276C125.582 122.511 125.637 122.747 125.694 122.985C125.697 122.994 125.699 123.006 125.703 123.017C125.722 123.093 125.739 123.167 125.758 123.244C125.767 123.282 125.774 123.318 125.784 123.356C125.824 123.518 125.861 123.681 125.902 123.842C125.967 124.108 126.028 124.369 126.094 124.634C126.139 124.813 126.184 124.997 126.228 125.178C126.261 125.3 126.292 125.421 126.32 125.546C126.383 125.793 126.442 126.037 126.506 126.286C126.592 126.623 126.681 126.965 126.769 127.305C126.811 127.468 126.857 127.634 126.897 127.799C128.638 127.609 129.872 127.474 130.02 127.457C130.029 127.457 130.035 127.455 130.035 127.455L130.628 127.965C130.628 127.965 130.793 131.937 130.812 132.314C131.082 132.589 142.532 144.319 143.459 145.269V145.267C161.322 139.817 161.385 125.003 161.277 122.619C161.267 122.615 161.254 122.612 161.244 122.61C157.998 122.488 154.71 122.835 151.759 123.152C146.88 123.677 143.348 124.051 142.39 122.041V122.038L142.384 122.034C141.853 121.262 141.557 120.132 141.557 118.735C141.557 116.032 142.69 112.353 145.267 108.487C145.305 108.428 145.34 108.367 145.38 108.308L145.435 108.212L145.444 108.209C146.041 107.298 146.729 106.409 147.481 105.564C148.252 104.655 149.08 103.747 150.032 102.846C150.761 102.16 151.517 101.544 152.302 100.999C155.534 98.5325 165.533 92.155 174.943 99.0637C175.656 99.6864 176.172 100.328 176.561 100.958C185.19 98.2917 187.131 94.3471 187.463 93.4754L185.862 89.3815L185.904 89.3154C171.471 75.7327 161.126 76.8033 161.126 76.8033L167.905 74.5389L163.982 72.5787C163.541 72.7927 157.589 75.6935 157.589 75.6935L156.825 75.2958C156.825 75.2958 155.709 68.3169 155.634 67.8497C155.319 67.6639 152.069 65.7587 150.653 64.9317ZM176.561 100.958C176.559 100.958 176.558 100.959 176.558 100.959H176.561C176.561 100.959 176.561 100.959 176.561 100.958ZM111.459 76.0877C111.459 76.0877 71.2011 88.4767 106.457 154.933C79.0641 95.1425 113.603 84.4262 113.603 84.4262L111.459 76.085V76.0877ZM188.163 90.8367C188.182 91.0225 188.26 91.7415 188.349 92.6002C188.361 92.6772 188.365 92.7571 188.374 92.841C188.381 92.9256 188.394 93.013 188.4 93.0997C188.408 93.1561 188.414 93.2153 188.419 93.2745C188.438 93.4389 188.454 93.6047 188.473 93.7719C188.476 93.7974 188.477 93.8215 188.481 93.8497C188.497 94.0045 188.513 94.1552 188.527 94.3038C188.57 94.696 188.61 95.0606 188.641 95.3689C188.652 95.4693 188.662 95.5732 188.671 95.6599C188.702 95.9537 188.725 96.1615 188.732 96.2221L190.26 95.5017C190.26 95.5017 191.426 95.5746 192.113 95.631C191.713 95.1494 188.487 91.2317 188.163 90.8367ZM198.645 93.966C197.414 95.082 195.227 96.3507 195.015 96.4732C194.996 96.4987 191.107 102.531 188.735 106.207C191.276 103.59 193.96 100.251 194.87 97.1035L194.94 96.8544L195.18 96.7553C197.121 95.951 198.284 95.0166 198.645 93.966Z" fill="#B5A36A"/>
<path d="M176.561 100.958C176.172 100.328 175.656 99.6864 174.943 99.0637C165.533 92.155 155.534 98.5325 152.302 100.999C151.517 101.544 150.761 102.16 150.032 102.846C149.08 103.747 148.252 104.655 147.481 105.564C146.729 106.409 146.041 107.298 145.444 108.209L145.435 108.212L145.38 108.308C145.34 108.367 145.305 108.428 145.267 108.487C142.69 112.353 141.557 116.032 141.557 118.735C141.557 120.132 141.853 121.262 142.384 122.034L142.39 122.038V122.041C143.348 124.051 146.88 123.677 151.759 123.152C154.71 122.835 157.998 122.488 161.244 122.61C161.254 122.612 161.267 122.615 161.277 122.619C161.385 125.003 161.322 139.817 143.459 145.267V145.269C142.532 144.319 131.082 132.589 130.812 132.314C130.793 131.937 130.628 127.965 130.628 127.965L130.035 127.455C130.035 127.455 130.029 127.457 130.02 127.457C129.872 127.474 128.638 127.609 126.897 127.799C126.857 127.634 126.811 127.468 126.769 127.305C126.681 126.965 126.592 126.623 126.506 126.286C126.442 126.037 126.383 125.793 126.32 125.546C126.292 125.421 126.261 125.3 126.228 125.178C126.184 124.997 126.139 124.813 126.094 124.634C126.028 124.369 125.967 124.108 125.902 123.842C125.861 123.681 125.824 123.518 125.784 123.356C125.774 123.318 125.767 123.282 125.758 123.244C125.739 123.167 125.722 123.093 125.703 123.017C125.699 123.006 125.697 122.994 125.694 122.985C125.637 122.747 125.582 122.511 125.531 122.276C125.491 122.114 125.452 121.952 125.414 121.788C125.4 121.727 125.386 121.668 125.372 121.604C125.351 121.517 125.331 121.426 125.311 121.339C125.262 121.125 125.215 120.913 125.167 120.699C125.142 120.587 125.118 120.476 125.092 120.362C125.048 120.173 125.008 119.982 124.966 119.794C124.912 119.554 124.863 119.321 124.811 119.085C124.807 119.067 124.804 119.045 124.799 119.026C124.792 118.995 124.786 118.962 124.778 118.927C124.729 118.701 124.679 118.469 124.631 118.243C124.59 118.039 124.545 117.834 124.505 117.629C124.486 117.549 124.473 117.472 124.456 117.395C124.433 117.277 124.409 117.161 124.385 117.044C124.366 116.956 124.347 116.865 124.328 116.775C124.283 116.55 124.241 116.332 124.199 116.111C124.17 115.977 124.148 115.843 124.12 115.707C124.113 115.674 124.108 115.636 124.099 115.598C124.082 115.509 124.064 115.417 124.047 115.328C124.009 115.138 123.974 114.947 123.939 114.762C123.939 114.75 123.937 114.738 123.934 114.729C123.908 114.59 123.882 114.451 123.858 114.314C123.835 114.193 123.811 114.073 123.793 113.956C123.791 113.948 123.789 113.941 123.789 113.937C123.749 113.714 123.709 113.497 123.674 113.279C123.631 113.037 123.587 112.796 123.547 112.559C123.512 112.355 123.48 112.155 123.445 111.952C123.415 111.757 123.382 111.561 123.352 111.369C123.342 111.317 123.334 111.266 123.326 111.212C123.295 111.008 123.262 110.802 123.231 110.598C123.196 110.366 123.161 110.135 123.126 109.909C123.103 109.733 123.076 109.559 123.051 109.386C123.027 109.228 123.006 109.068 122.988 108.913C122.981 108.885 122.977 108.857 122.973 108.828C122.964 108.765 122.954 108.7 122.946 108.639C122.921 108.439 122.895 108.244 122.869 108.049C122.857 107.95 122.846 107.854 122.832 107.757C122.815 107.633 122.801 107.507 122.784 107.385C122.765 107.216 122.745 107.054 122.726 106.888L122.724 106.868C122.709 106.757 122.697 106.647 122.683 106.534C122.671 106.418 122.657 106.299 122.643 106.182C122.624 106 122.605 105.82 122.587 105.636C122.579 105.584 122.578 105.535 122.57 105.483C122.568 105.441 122.561 105.399 122.558 105.357C122.549 105.265 122.54 105.168 122.531 105.074C122.529 105.048 122.524 105.021 122.522 104.995C122.505 104.823 122.49 104.653 122.474 104.484C122.472 104.468 122.472 104.449 122.469 104.433C122.452 104.235 122.434 104.04 122.417 103.847C122.404 103.678 122.392 103.511 122.38 103.347C122.364 103.151 122.347 102.959 122.335 102.766C122.324 102.592 122.312 102.423 122.302 102.251C122.298 102.155 122.291 102.058 122.284 101.96C122.282 101.901 122.279 101.842 122.275 101.788C122.273 101.751 122.272 101.713 122.269 101.677C122.26 101.51 122.254 101.349 122.245 101.186C122.238 101.001 122.225 100.815 122.221 100.635C122.214 100.47 122.21 100.307 122.202 100.143V100.055C122.197 99.9733 122.197 99.8866 122.193 99.8047C122.193 99.7531 122.189 99.705 122.189 99.6582C122.189 99.6417 122.186 99.6258 122.186 99.6121C122.184 99.4614 122.181 99.3148 122.177 99.1642C122.177 98.9811 122.173 98.7933 122.173 98.6103C122.17 98.4644 122.17 98.3206 122.17 98.1775C122.17 98.0784 122.173 97.9793 122.173 97.883V97.6415C122.173 97.5101 122.177 97.3814 122.177 97.2493C122.18 97.1558 122.183 97.056 122.185 96.9617C122.185 96.8771 122.186 96.7945 122.189 96.7126C122.192 96.5647 122.199 96.4216 122.201 96.2757V96.2716C122.208 96.187 122.21 96.0975 122.213 96.0129V96.0012C122.216 95.9331 122.216 95.865 122.219 95.7969C122.227 95.6558 122.236 95.5141 122.243 95.373C122.25 95.2203 122.26 95.0655 122.269 94.9148C122.276 94.7737 122.288 94.6396 122.297 94.5006C122.309 94.3506 122.318 94.1999 122.33 94.052C122.342 93.9226 122.354 93.7988 122.366 93.6694C122.377 93.5352 122.388 93.4011 122.403 93.2697C122.403 93.26 122.406 93.2483 122.406 93.2394C122.406 93.2318 122.406 93.2222 122.408 93.2153C122.42 93.1004 122.435 92.9903 122.446 92.8775C122.454 92.8094 122.46 92.7426 122.468 92.6766C122.479 92.585 122.486 92.4956 122.498 92.4089V92.3972C122.514 92.2816 122.531 92.164 122.545 92.0484C122.562 91.9197 122.58 91.789 122.597 91.6596C122.599 91.6404 122.603 91.6197 122.606 91.5984C122.62 91.5021 122.634 91.4078 122.649 91.3135C122.66 91.2434 122.67 91.1752 122.682 91.1092C122.686 91.0645 122.693 91.0218 122.702 90.9798C122.707 90.933 122.714 90.8828 122.721 90.836C122.74 90.7301 122.759 90.6275 122.778 90.5216C122.781 90.5051 122.783 90.4893 122.785 90.4707L122.801 90.3874C122.818 90.2863 122.836 90.1851 122.853 90.0861C122.876 89.976 122.898 89.87 122.916 89.764L122.931 89.6959C122.952 89.5879 122.973 89.4792 122.997 89.3739C122.997 89.3719 122.997 89.367 122.999 89.3643C123.016 89.2728 123.037 89.182 123.056 89.0925C123.087 88.9563 123.116 88.82 123.147 88.6859C123.15 88.6742 123.155 88.6625 123.155 88.6508C123.173 88.5703 123.194 88.4932 123.213 88.4127C123.248 88.26 123.286 88.1072 123.324 87.9593C123.348 87.8699 123.371 87.7804 123.396 87.691C123.399 87.682 123.4 87.6731 123.405 87.6634C123.437 87.5389 123.469 87.4137 123.502 87.2912C123.528 87.2066 123.554 87.1226 123.577 87.038C123.615 86.9107 123.651 86.7834 123.691 86.6589V86.6499C123.724 86.5467 123.757 86.4428 123.79 86.3396C123.802 86.2997 123.818 86.2571 123.829 86.2172C123.841 86.1793 123.853 86.1449 123.865 86.1078C123.875 86.0747 123.886 86.039 123.895 86.0059C123.928 85.9069 123.963 85.8133 123.996 85.7169C124.024 85.6296 124.057 85.5422 124.085 85.4555C124.085 85.4507 124.088 85.4445 124.091 85.4397C124.098 85.428 124.1 85.4128 124.104 85.3991C124.137 85.3069 124.17 85.2181 124.206 85.1307C124.227 85.0674 124.25 85.0014 124.274 84.9381C124.293 84.8913 124.309 84.8438 124.328 84.797C124.354 84.7241 124.382 84.6567 124.41 84.5858C124.436 84.5225 124.462 84.4592 124.488 84.3959C124.509 84.3347 124.532 84.2714 124.561 84.2122C124.596 84.1186 124.638 84.0264 124.676 83.9328C124.701 83.8737 124.727 83.8124 124.751 83.756C124.767 83.7182 124.781 83.6838 124.798 83.6459C124.838 83.5544 124.88 83.4622 124.922 83.3707C124.962 83.2764 125.002 83.1849 125.045 83.0934C125.082 83.0136 125.119 82.9331 125.157 82.8533C125.207 82.7522 125.257 82.6496 125.306 82.5485C125.346 82.4659 125.388 82.3847 125.428 82.3029C125.467 82.223 125.508 82.1418 125.55 82.0641C125.553 82.0545 125.555 82.0469 125.562 82.0373C125.565 82.0331 125.566 82.0263 125.569 82.0194C125.595 81.9671 125.622 81.9175 125.65 81.8659C125.702 81.7676 125.754 81.6671 125.806 81.5701C125.82 81.5467 125.833 81.5254 125.845 81.5047C125.878 81.4407 125.91 81.3816 125.945 81.3183C125.95 81.3086 125.957 81.2997 125.962 81.2907C125.983 81.2529 126.004 81.2123 126.025 81.1745C126.058 81.116 126.09 81.0575 126.123 80.999C126.17 80.9123 126.223 80.8277 126.272 80.743C126.319 80.6632 126.364 80.5827 126.411 80.5057C126.462 80.421 126.515 80.335 126.564 80.2504C126.611 80.1754 126.654 80.099 126.704 80.024C126.755 79.9367 126.811 79.8507 126.865 79.7667C126.877 79.7474 126.89 79.7268 126.901 79.7055C126.916 79.6848 126.93 79.6635 126.944 79.6449C126.951 79.6284 126.961 79.614 126.97 79.6002C126.985 79.5789 126.998 79.5555 127.013 79.5341C127.062 79.4543 127.114 79.38 127.166 79.3043C127.184 79.2713 127.205 79.239 127.226 79.208C127.257 79.1633 127.285 79.1158 127.316 79.0738C127.368 78.9933 127.422 78.9183 127.473 78.8385L127.477 78.8344C127.491 78.811 127.508 78.7897 127.522 78.7683C127.527 78.7642 127.528 78.7587 127.531 78.7539C127.564 78.7071 127.595 78.6596 127.627 78.6101C127.682 78.5351 127.736 78.458 127.79 78.381C127.839 78.3129 127.888 78.2413 127.938 78.1711C127.994 78.0934 128.049 78.0177 128.105 77.9427C128.105 77.9379 128.11 77.9337 128.114 77.9296C128.164 77.8587 128.216 77.7872 128.268 77.717C128.321 77.642 128.377 77.5691 128.434 77.4941C128.453 77.4659 128.475 77.4377 128.496 77.4095C128.498 77.4074 128.5 77.4046 128.502 77.4005C128.564 77.3228 128.622 77.2423 128.681 77.1624C128.697 77.1418 128.712 77.1232 128.728 77.1019C128.738 77.0874 128.749 77.0751 128.758 77.0613C128.831 76.967 128.905 76.8714 128.977 76.7771C129.022 76.7187 129.067 76.6615 129.113 76.6031C129.13 76.5817 129.146 76.5576 129.165 76.5343C129.193 76.4971 129.224 76.4599 129.252 76.4221C129.32 76.3375 129.387 76.2549 129.453 76.1703C129.499 76.1139 129.539 76.0602 129.586 76.0038C129.616 75.9666 129.65 75.9267 129.681 75.8868C129.716 75.8441 129.746 75.8036 129.782 75.7609C129.805 75.7306 129.83 75.7003 129.854 75.6701C129.877 75.6419 129.899 75.6136 129.925 75.5854C130.002 75.4891 130.08 75.3921 130.16 75.2978C130.195 75.2531 130.23 75.2118 130.265 75.1671C130.331 75.0852 130.399 75.004 130.47 74.9215L130.6 74.7646C130.602 74.7605 130.604 74.7577 130.607 74.7529C130.609 74.7529 130.609 74.7515 130.611 74.7488C130.666 74.6855 130.719 74.6194 130.774 74.5534C130.804 74.5183 130.834 74.4832 130.864 74.4453C130.912 74.3889 130.962 74.3298 131.011 74.2713C131.223 74.0174 131.436 73.7635 131.65 73.5096C132.24 72.8071 132.836 72.0998 133.421 71.376L133.425 71.3705C133.712 71.0154 134.001 70.6563 134.285 70.2895C134.294 70.2758 134.304 70.2634 134.316 70.2517V70.2489C134.532 69.9689 134.748 69.6854 134.96 69.3992C134.962 69.3937 134.965 69.3923 134.969 69.3896C135.181 69.1026 135.39 68.8082 135.6 68.5123C135.602 68.5075 135.604 68.5027 135.607 68.4999C135.813 68.2041 136.018 67.9027 136.22 67.5951C136.224 67.5876 136.227 67.5834 136.232 67.5793C136.262 67.5298 136.295 67.4747 136.328 67.4231C139.598 67.0991 144.511 66.3278 150.653 64.9317C152.069 65.7587 155.319 67.6639 155.634 67.8497C155.709 68.3169 156.825 75.2958 156.825 75.2958L157.589 75.6935C157.589 75.6935 163.541 72.7927 163.982 72.5787L167.905 74.5389L161.126 76.8033C161.126 76.8033 171.471 75.7327 185.904 89.3154L185.862 89.3815L187.463 93.4754C187.131 94.3471 185.19 98.2917 176.561 100.958ZM176.561 100.958C176.559 100.958 176.558 100.959 176.558 100.959H176.561C176.561 100.959 176.561 100.959 176.561 100.958ZM141.874 34.875C172.659 38.0187 153.384 57.7478 153.384 57.7478V57.7492L158.148 58.7007C158.148 58.7007 158.157 58.6939 158.166 58.6822C158.17 58.678 158.177 58.6677 158.184 58.6588C158.194 58.6491 158.2 58.6422 158.212 58.6285C158.219 58.6189 158.226 58.6085 158.233 58.6017C158.258 58.5714 158.287 58.5384 158.322 58.4964C158.349 58.4654 158.374 58.4338 158.407 58.3959C158.419 58.3794 158.434 58.3629 158.446 58.3485C158.474 58.3134 158.501 58.2803 158.534 58.2404C158.548 58.2212 158.565 58.2012 158.581 58.1819C158.593 58.1654 158.608 58.1489 158.62 58.1345C158.643 58.1063 158.666 58.076 158.69 58.0478C158.713 58.0196 158.737 57.9886 158.758 57.9576C158.763 57.9535 158.766 57.9487 158.77 57.9459C158.774 57.9391 158.777 57.9349 158.782 57.9274C158.815 57.8875 158.847 57.8455 158.883 57.8008C158.901 57.7774 158.92 57.7519 158.939 57.7285C158.982 57.6721 159.025 57.615 159.072 57.5538C159.096 57.5235 159.12 57.4925 159.141 57.4616C159.167 57.4313 159.19 57.3983 159.216 57.3652C159.24 57.3322 159.264 57.3026 159.287 57.2675C159.318 57.2304 159.345 57.1891 159.373 57.1512C159.42 57.0859 159.47 57.0233 159.52 56.9552C159.548 56.9146 159.579 56.8747 159.607 56.832C159.663 56.7542 159.719 56.6772 159.776 56.5974C159.802 56.5623 159.827 56.5272 159.851 56.4914C159.888 56.4377 159.926 56.3834 159.965 56.329C159.989 56.2939 160.014 56.2589 160.037 56.2238C160.065 56.1839 160.093 56.1433 160.119 56.1013C160.18 56.0167 160.241 55.9272 160.3 55.8357C160.33 55.7937 160.358 55.7483 160.389 55.7036C160.455 55.6025 160.526 55.4965 160.594 55.3912C160.62 55.3513 160.645 55.3135 160.669 55.2708C160.737 55.1676 160.803 55.0637 160.868 54.9584C160.896 54.9158 160.921 54.8766 160.949 54.8339C161.022 54.7121 161.097 54.5903 161.172 54.463C161.193 54.4307 161.214 54.397 161.235 54.3619C161.32 54.2181 161.407 54.0729 161.491 53.925C161.501 53.9085 161.511 53.894 161.52 53.8775C161.647 53.6539 161.774 53.4241 161.9 53.1908C161.922 53.1509 161.943 53.1131 161.964 53.0711C161.975 53.0525 161.986 53.0333 161.995 53.014C162.123 52.7766 162.246 52.5351 162.369 52.2888C162.372 52.2861 162.373 52.2812 162.376 52.2792C162.408 52.209 162.444 52.1374 162.477 52.0666C162.496 52.0294 162.515 51.9895 162.534 51.9517C162.567 51.8815 162.601 51.8113 162.634 51.7411C162.646 51.717 162.655 51.6957 162.665 51.6723C162.721 51.5478 162.778 51.4232 162.836 51.296C162.855 51.254 162.872 51.212 162.892 51.1694C162.912 51.1274 162.931 51.0792 162.95 51.0345C162.985 50.9526 163.02 50.8714 163.055 50.7868C163.058 50.7841 163.058 50.7834 163.058 50.7813C163.084 50.718 163.11 50.6575 163.135 50.5969C163.155 50.5494 163.174 50.502 163.192 50.4531C163.228 50.3705 163.259 50.2838 163.29 50.1965C163.316 50.1359 163.34 50.0747 163.364 50.0134C163.387 49.9522 163.407 49.891 163.428 49.8297C163.455 49.7595 163.48 49.688 163.503 49.6199C163.528 49.5497 163.553 49.4823 163.579 49.4114C163.598 49.3481 163.622 49.2834 163.644 49.2201C163.689 49.0839 163.733 48.9463 163.773 48.81C163.794 48.7419 163.812 48.6759 163.834 48.6078C163.836 48.5961 163.838 48.5837 163.843 48.572C163.88 48.4454 163.916 48.3181 163.951 48.1908C163.968 48.1227 163.986 48.0546 164.002 47.9892C164.038 47.8482 164.074 47.7064 164.104 47.5654C164.119 47.4993 164.132 47.436 164.147 47.3727C164.161 47.3094 164.172 47.2461 164.186 47.1828C164.202 47.103 164.22 47.0211 164.233 46.9413C164.245 46.8753 164.254 46.8119 164.268 46.7459C164.282 46.6661 164.292 46.5856 164.306 46.5058C164.313 46.4425 164.324 46.3792 164.334 46.3159C164.344 46.245 164.353 46.1762 164.363 46.106C164.363 46.1033 164.363 46.1012 164.366 46.0964C164.37 46.0427 164.377 45.9911 164.381 45.9395L164.219 45.3347C164.2 45.2714 161.955 38.9771 147.92 35.808C147.875 35.8121 147.805 35.7956 147.664 35.7578C147.61 35.7461 147.554 35.7323 147.496 35.7179C147.482 35.7137 147.468 35.711 147.454 35.7062C147.395 35.6924 147.335 35.678 147.269 35.6614H147.263C147.2 35.6449 147.135 35.6305 147.067 35.6167C147.051 35.6119 147.031 35.6091 147.014 35.605C146.941 35.5885 146.869 35.5727 146.789 35.5562H146.782C146.707 35.5397 146.627 35.5238 146.547 35.5073C146.526 35.5025 146.504 35.4997 146.485 35.4949C146.398 35.4784 146.309 35.4592 146.217 35.4426C146.214 35.4426 146.213 35.4426 146.211 35.4399C146.121 35.4254 146.03 35.4075 145.933 35.391C145.91 35.3862 145.886 35.3835 145.862 35.3793C145.761 35.3601 145.66 35.3442 145.552 35.3277C145.55 35.325 145.547 35.325 145.543 35.325C145.439 35.3064 145.329 35.2899 145.218 35.2734C145.194 35.2693 145.172 35.2637 145.148 35.2617C145.033 35.2452 144.915 35.2266 144.791 35.2073C144.784 35.2073 144.779 35.2073 144.772 35.2046C144.654 35.1881 144.534 35.1709 144.412 35.155C144.384 35.1502 144.356 35.1475 144.33 35.1427C144.196 35.1261 144.065 35.1076 143.926 35.091C143.919 35.091 143.913 35.089 143.906 35.089C143.772 35.0725 143.637 35.0566 143.496 35.0401C143.467 35.0374 143.441 35.0326 143.413 35.0305C143.26 35.0119 143.11 34.9954 142.952 34.9789H142.94C142.79 34.9624 142.635 34.9459 142.477 34.9314C142.444 34.9273 142.413 34.9245 142.38 34.9225C142.217 34.906 142.048 34.8888 141.874 34.875ZM127.304 39.9452C110.045 39.7354 80.5221 45.5982 30.2285 64.8925C156.953 21.3012 141.236 55.8419 141.236 55.8419L150.766 57.5083C150.766 57.5083 156.068 40.2941 127.304 39.9452ZM108.769 54.2064C106.839 54.2229 105.435 54.3853 104.778 54.4231C112.364 66.9126 122.424 69.1082 122.528 69.1302L122.669 70.1292C122.669 70.1292 113.262 75.046 112.564 75.4107C112.762 76.1744 115.408 86.5454 115.408 86.5454C115.408 86.5454 105.225 94.0699 104.531 94.5831C104.945 95.3654 114.635 113.617 114.635 113.617C114.635 113.617 113.144 128.102 113.017 129.317C113.811 129.228 120.775 128.467 125.542 127.947C125.276 127.164 125.022 126.387 124.775 125.619L124.777 125.618C124.551 124.912 124.331 124.215 124.115 123.524C124.113 123.519 124.113 123.514 124.113 123.511C124.028 123.239 123.946 122.969 123.862 122.699C123.859 122.696 123.859 122.691 123.859 122.691C123.857 122.688 123.855 122.686 123.854 122.682C123.657 122.028 123.469 121.379 123.281 120.735V120.732C123.277 120.723 123.271 120.711 123.271 120.699C123.266 120.688 123.264 120.678 123.262 120.669C123.16 120.321 123.056 119.973 122.959 119.628V119.625C122.959 119.623 122.955 119.621 122.955 119.618C122.795 119.054 122.651 118.497 122.5 117.94C122.495 117.923 122.492 117.909 122.488 117.895C122.485 117.892 122.485 117.893 122.485 117.891C122.396 117.55 122.299 117.21 122.212 116.871C122.21 116.868 122.21 116.866 122.21 116.866C122.21 116.866 122.207 116.861 122.207 116.859V116.854C121.899 115.674 121.619 114.517 121.356 113.372C121.339 113.304 121.326 113.239 121.312 113.171C121.308 113.156 121.306 113.145 121.301 113.131C121.062 112.08 120.841 111.041 120.637 110.018C120.637 110.013 120.634 110.004 120.634 110.002C120.629 109.981 120.626 109.961 120.622 109.942C120.558 109.62 120.488 109.294 120.43 108.976V108.97C120.297 108.281 120.18 107.604 120.068 106.929C120.068 106.921 120.068 106.916 120.065 106.906C120.056 106.845 120.042 106.784 120.032 106.722V106.718C119.912 105.984 119.802 105.263 119.704 104.546C119.675 104.377 119.649 104.202 119.625 104.033V104.027C119.602 103.85 119.581 103.676 119.557 103.5V103.488C119.529 103.279 119.508 103.069 119.481 102.86C119.284 101.205 119.139 99.5956 119.051 98.0323V98.022L119.047 97.969C119.04 97.8211 119.031 97.6725 119.024 97.5218C119.024 97.5218 119.024 97.5197 119.021 97.5177C118.998 97.0195 118.981 96.5269 118.97 96.0356C118.967 95.9462 118.965 95.8581 118.962 95.7666V95.7549V95.7466C118.95 95.1191 118.945 94.4992 118.952 93.8861C118.952 93.7919 118.953 93.6921 118.958 93.5985C118.958 93.41 118.96 93.2256 118.962 93.0371V93.0268C118.965 92.9187 118.967 92.8059 118.97 92.6958V92.6931C118.986 92.2582 119.009 91.833 119.034 91.405C119.044 91.2007 119.051 90.9867 119.063 90.7817V90.7796V90.7755C119.111 90.1081 119.166 89.4517 119.239 88.8077C120.438 78.0177 124.855 72.2746 128.078 68.0802C128.353 67.721 128.619 67.3743 128.875 67.0378C128.879 67.0289 128.884 67.0213 128.891 67.0144C128.707 66.9222 128.595 66.8355 128.569 66.8121C129.662 63.7778 121.649 62.7162 122.43 61.8038C122.162 61.9827 121.974 62.1974 121.882 62.4589C121.346 63.9891 123.651 66.7537 125.052 67.5194L124.655 68.5068C106.782 63.676 107.55 55.8667 107.59 55.5357L107.636 55.1593L108.005 55.0789C108.072 55.0651 111.442 54.3598 115.916 54.8656C113.155 54.3199 110.698 54.1899 108.769 54.2064ZM97.9036 55.6107C89.4598 55.7311 72.5717 58.6471 50.9546 76.0884C92.4019 48.9332 110.509 63.9409 110.509 63.9409L103.836 56.0793C103.836 56.0793 101.742 55.5564 97.9042 55.6107H97.9036ZM140.784 56.7494L157.058 62.0811L167.677 68.4979L169.026 64.479C159.806 59.9936 148.709 57.7691 140.784 56.7494ZM108.894 63.9024C102.752 63.9285 78.052 66.1427 75.9672 99.91C81.9209 65.6087 118.608 69.6572 118.608 69.4198C113.366 67.2759 110.271 63.9409 110.271 63.9409C110.271 63.9409 109.772 63.8989 108.894 63.9024ZM111.459 76.0877C111.459 76.0877 71.2011 88.4767 106.457 154.933C79.0641 95.1425 113.603 84.4262 113.603 84.4262L111.459 76.085V76.0877ZM188.163 90.8367C188.182 91.0225 188.26 91.7415 188.349 92.6002C188.361 92.6772 188.365 92.7571 188.374 92.841C188.381 92.9256 188.394 93.013 188.4 93.0997C188.408 93.1561 188.414 93.2153 188.419 93.2745C188.438 93.4389 188.454 93.6047 188.473 93.7719C188.476 93.7974 188.477 93.8215 188.481 93.8497C188.497 94.0045 188.513 94.1552 188.527 94.3038C188.57 94.696 188.61 95.0606 188.641 95.3689C188.652 95.4693 188.662 95.5732 188.671 95.6599C188.702 95.9537 188.725 96.1615 188.732 96.2221L190.26 95.5017C190.26 95.5017 191.426 95.5746 192.113 95.631C191.713 95.1494 188.487 91.2317 188.163 90.8367ZM198.645 93.966C197.414 95.082 195.227 96.3507 195.015 96.4732C194.996 96.4987 191.107 102.531 188.735 106.207C191.276 103.59 193.96 100.251 194.87 97.1035L194.94 96.8544L195.18 96.7553C197.121 95.951 198.284 95.0166 198.645 93.966Z" stroke="#B5A36A" stroke-width="0.85736"/>
<path d="M162.01 98.9888C160.612 98.9771 159.231 99.1636 157.885 99.5337C157.931 99.531 157.973 99.533 158.018 99.5303C158.192 99.5227 158.366 99.5227 158.542 99.5275C158.653 99.5275 158.764 99.531 158.874 99.5351C158.99 99.5427 159.105 99.5516 159.217 99.5592C159.375 99.5757 159.529 99.5867 159.682 99.6053C159.713 99.6101 159.744 99.6156 159.774 99.6197C163.366 100.109 165.888 102.335 166.037 102.469L166.286 102.695C166.286 102.695 165.004 106.958 164.412 108.932C166.081 107.652 169.87 104.747 169.87 104.747L173.276 107.211C173.276 107.211 171.505 110.49 170.705 111.968C172.365 111.397 176.357 110.022 176.357 110.022C176.357 110.022 176.677 110.823 176.757 111.03C177.063 111.18 179.433 112.358 179.865 112.572C180.124 112.413 180.815 111.985 181.553 111.531L177.703 110.706L177.588 110.481C177.526 110.366 177.259 109.584 176.732 108.463C174.229 103.601 169.698 100.156 164.538 99.2248C163.692 99.0734 162.848 98.9957 162.01 98.9888H162.01ZM146.084 109.246C146.014 109.375 145.82 109.726 145.576 110.161C146.874 110.362 150.428 111.12 151.712 113.473L150.769 113.983C149.568 111.778 145.543 111.23 145.047 111.169C144.72 111.925 144.482 112.676 144.356 113.397C145.62 114.806 149.283 117.772 156.486 115.748C154.069 109.361 147.511 109.201 146.084 109.246ZM143.218 115.285C142.837 116.617 142.658 117.823 142.658 118.832C142.658 120.002 142.891 120.915 143.286 121.467L143.322 121.512L143.344 121.561C143.952 122.913 147.518 122.53 151.645 122.085C155.176 121.709 159.182 121.279 163.084 121.654L163.166 121.667L163.223 121.687C163.597 121.811 169.544 123.184 173.688 124.136C173.925 123.715 174.433 122.815 174.748 122.252C173.951 121.87 170.996 120.45 170.996 120.45L170.785 119.665C170.785 119.665 171.516 118.597 172.165 117.647C170.51 118.122 167.499 118.983 167.499 118.983L161.575 117.935L161.253 117.069C161.253 117.069 161.969 116.191 162.689 115.313C160.669 116.167 157.689 117.426 157.689 117.426L157.591 117.431C156.011 117.492 154.105 117.532 152.205 117.497C151.756 117.503 151.324 117.492 150.911 117.459C148.522 117.363 146.27 117.122 144.824 116.614L144.8 116.636C144.436 116.514 143.34 116.15 143.218 115.285Z" fill="white"/>
<path d="M146.544 74.8054C142.623 74.7916 140.314 75.4384 140.314 75.4384C140.314 75.4384 159.788 71.7711 180.7 91.536L180.223 91.6956L180.561 92.7118L183.265 91.8119L182.927 90.7956L181.722 91.1954C167.381 77.2638 154.029 74.8315 146.544 74.8054ZM150.277 81.9631C138.586 82.0829 130.633 88.3819 130.633 88.3819C130.633 88.3819 151.342 73.8806 173.416 91.4637L172.715 91.6956L173.056 92.7118L176.21 91.6619L175.867 90.6429L174.448 91.1176C165.653 84.0452 157.292 81.8916 150.278 81.9631H150.277ZM155.59 90.4461C140.428 90.5403 131.931 103.783 131.931 103.783C131.931 103.783 144.694 85.6731 165.981 93.1886L165.511 93.3469L165.848 94.3645L168.553 93.4618L168.213 92.4456L167.13 92.8054C162.944 91.1025 159.089 90.4241 155.59 90.4461ZM181.298 95.5129L179.497 96.7108L180.089 97.6045L181.89 96.4032L181.298 95.5129ZM175.664 95.6195L173.712 96.5222L174.162 97.4938L176.113 96.5959L175.664 95.6195Z" fill="black"/>
</g>
<defs>
<clipPath id="clip0_154_2365">
<rect width="200" height="200" fill="white"/>
</clipPath>
</defs>
</svg>
