<svg width="200" height="200" viewBox="0 0 200 200" fill="none" xmlns="http://www.w3.org/2000/svg">
<g clip-path="url(#clip0_154_2366)">
<path d="M155.714 49.3669C157.612 50.2769 159.533 51.3067 161.349 52.7574C162.383 56.1203 162.833 59.618 163.285 63.2429C175.055 61.5578 187.709 59.8025 200 57.9753C181.152 83.5272 162.244 109.099 143.717 134.74L143.656 135.039C139.411 132.931 133.568 134.31 130.083 137.647C117.791 149.683 109.088 164.384 101.669 179.096C101.091 179.444 100.41 179.505 99.8505 179.267C98.6545 177.508 97.8959 175.537 96.8808 173.817C90.0259 161.63 82.5914 149.69 72.4031 139.406C68.553 135.775 63.1802 132.835 57.9864 134.679C57.8812 134.732 57.7298 134.81 57.7427 134.98C38.4275 109.539 19.3319 83.7985 0 58.3924C12.3053 60.4079 24.4647 61.8919 36.842 63.6693C37.1558 60.024 38.2281 55.6276 38.8409 53.2448C38.9258 52.9273 43.1174 50.3969 44.8413 49.4851C60.6977 26.4139 90.0683 15.5611 117.3 22.8313C132.207 26.5356 146.242 36.0447 155.714 49.3669Z" fill="#002649"/>
<path d="M100.16 63.9961C99.0367 65.4239 97.7993 66.5889 96.4054 67.8056L100.275 90.9522L103.918 67.9296C102.461 66.7676 101.039 65.4697 100.16 63.9961ZM92.8262 70.1696C91.1946 70.9049 89.6044 71.6461 87.9787 72.2294L93.501 86.8311C93.3799 81.2305 93.1186 75.689 92.8262 70.1696ZM107.37 70.2272L106.944 87.1338C108.702 82.1563 110.574 77.2467 112.339 72.2885L107.37 70.2272ZM84.59 73.3206C83.3526 73.5376 82.1714 73.7813 81.0138 74.0456C81.9883 76.507 83.298 79.1249 84.3449 81.3781C84.4719 78.7765 84.4719 75.9739 84.59 73.3206ZM115.791 73.3206C115.725 76.0522 115.723 79.1249 116.033 81.6823C117.086 79.0939 118.388 76.5203 119.364 73.985C118.13 73.9141 116.95 73.4756 115.791 73.3206ZM124.033 74.3512C123.75 75.2165 123.707 76.1423 123.791 76.9573L125.911 74.3512H124.033ZM74.5317 74.4693L76.5959 77.0149L76.4113 74.4693H74.5317ZM158.143 85.4372C153.575 86.9064 148.882 88.2693 144.032 88.4036C143.508 89.5524 143.143 91.1293 142.933 92.4036C148.655 91.7835 153.758 89.2718 158.143 85.4372ZM42.4785 85.6188C46.8314 89.6351 52.2076 91.8765 57.9322 92.5882C57.5114 91.2814 57.2087 89.9643 57.0197 88.6517C51.9684 88.2412 47.0706 87.15 42.4785 85.6188ZM157.723 92.7698C152.507 94.3601 147.124 95.81 141.48 95.7377C140.646 97.3235 139.63 98.8532 138.634 100.407C145.854 100.41 152.122 97.1788 157.723 92.7698ZM42.7177 92.8318L43.1474 93.1921L43.0839 93.2497C48.2592 97.3678 54.3914 100.293 61.439 100.584C61.6561 100.469 61.6428 100.201 61.9927 100.342C60.9001 98.868 60.0319 97.5022 59.3216 95.9769C53.343 95.9031 47.9241 94.3837 42.7192 92.8303L42.7177 92.8318ZM44.6623 100.953C51.9506 106.395 60.8691 109.741 70.5331 108.345C68.3478 106.818 66.2762 105.044 64.4099 103.129C57.535 103.912 50.8816 102.636 44.6623 100.953ZM156.084 100.953C149.731 102.53 143.038 103.882 136.392 102.948C134.56 104.938 132.258 106.604 130.393 108.157C139.917 109.644 148.794 106.271 156.084 100.953ZM152.689 109.313C144.237 111.358 135.183 112.545 126.517 110.394L124.151 111.611C125.11 113.084 125.975 114.66 126.762 116.336C136.394 117.22 145.249 114.251 152.689 109.313ZM48.844 109.616C56.2061 114.649 64.8499 117.554 74.288 116.333C74.9333 114.753 75.7986 113.282 76.714 111.854C75.8443 111.391 75.0263 110.964 74.2245 110.582C65.9263 112.5 56.7775 111.432 48.844 109.616ZM146.809 118.521C140.754 119.702 134.106 120.734 128.032 119.73C128.447 121.14 128.882 122.704 129.179 124.212C135.617 123.955 141.464 121.806 146.809 118.521ZM54.3589 118.582C59.5845 121.747 65.157 124.185 71.6849 124.463L72.8971 119.848C66.7177 120.405 60.0673 120.219 54.3574 118.582H54.3589Z" fill="#FF8200"/>
<path d="M124.897 36.3533C119.159 36.2071 113.418 37.254 108.339 39.457C100.81 42.5785 92.2665 40.0786 85.4374 37.3884C79.5533 36.0048 73.179 36.0683 67.5636 37.3337C60.0214 39.0938 50.4222 43.1056 48.8438 51.8084C48.832 55.3094 50.7116 58.3791 53.6279 60.4138C63.0143 66.2876 76.265 65.6231 86.282 61.4504C89.3443 59.6416 92.7286 57.7472 94.9479 54.543C96.9915 51.8424 97.6308 47.711 96.042 44.6619C95.9062 44.2086 95.2388 44.1097 95.4942 43.6357C98.279 43.8513 101.533 44.5452 104.339 43.5116L104.517 43.6357C104.339 43.8055 104.432 44.0816 104.281 44.2381C102.48 47.0126 102.994 51.33 105.005 53.9347C110.438 61.3204 119.326 63.5323 128.088 64.4153C136.266 64.5128 146.306 63.5176 150.385 55.1484C151.711 51.6268 150.382 47.7523 148.023 45.0886L145.6 42.9063C139.645 38.6995 132.272 36.5423 124.897 36.3533ZM149.173 70.7187C144.913 72.8302 140.523 74.4323 135.97 75.5633C129.514 76.5674 123.54 79.0967 118.94 83.866C111.952 89.6069 110.985 98.3245 104.281 104.036C102.487 105.563 99.6153 105.638 97.616 104.705C93.6648 102.274 91.3436 98.0041 89.3768 94.165C86.1402 87.7878 80.671 82.0646 74.3514 78.6567C67.0778 75.234 58.6555 75.0672 51.5681 71.2016C52.4067 72.4035 53.495 73.6925 54.7176 74.6538C59.9741 79.3522 66.9715 79.9413 72.5308 84.1023C79.8265 88.5895 82.561 97.0812 89.3754 102.341C91.7113 104.282 94.1048 105.821 96.9486 106.797C89.2454 110.543 84.2975 118.558 82.2834 126.335C81.6692 128.637 81.1686 131.621 81.2543 134.456C76.7227 132.225 71.571 129.944 66.2864 130.94C68.7109 131.683 71.0114 132.804 73.1376 134.516C80.5175 140.523 87.2122 147.668 93.1273 155.055L99.1886 108.765C99.2949 108.271 99.7689 107.865 100.277 107.857C100.776 107.85 101.325 108.135 101.615 108.702C103.577 123.822 105.966 139.584 108.216 154.63C111.726 150.134 115.361 145.88 119.426 141.849C123.962 137.493 128.515 132.575 134.515 130.939C129.08 129.793 124.277 132.253 119.85 134.454L119.729 134.33C119.75 123.08 113.653 111.764 103.508 106.806C103.701 106.731 103.891 106.654 104.098 106.583C109.551 104.814 114.456 100.111 117.852 95.3773C121.328 89.5773 126.886 83.4555 133.365 81.1359C139.18 79.113 145.458 76.0845 149.173 70.7187ZM66.7176 84.8967L66.4149 85.6778C65.6559 90.8265 69.7534 95.1898 74.1063 97.5596C76.014 98.3437 78.6201 99.0067 80.5337 97.7383C79.7999 96.3562 78.9951 95.0096 78.0516 93.8653C77.5747 94.1473 77.0269 94.2019 76.5322 94.3437C74.5728 94.4027 72.9678 93.4637 71.8707 91.9192C70.9257 90.4323 70.471 88.5009 71.3259 86.8944C69.9084 85.8372 68.3639 85.1713 66.7176 84.8967ZM133.969 85.0118C132.234 85.2761 130.641 85.818 129.304 86.8309L129.727 88.4064C129.839 90.6227 128.506 92.7534 126.52 93.8018C125.312 94.4042 123.618 94.4042 122.517 93.8018C121.598 95.0185 120.77 96.2972 120.157 97.6748C122.269 98.9889 125.327 98.1473 127.352 97.0295C131.051 94.8413 134.456 91.0303 134.272 86.165L133.969 85.0118Z" fill="white"/>
<path d="M121.852 39.6342C116.183 40.0919 110.05 41.093 107.25 46.484C106.49 48.7711 107.309 51.2252 109.009 52.907C109.184 52.4965 108.793 52.0727 108.885 51.6268C108.487 49.9391 109.7 48.5895 111.062 47.6918C117.45 44.0816 126.097 44.7416 133.181 46.4234C137.316 47.6947 142.19 49.1979 144.449 53.57C144.778 54.9786 144.353 56.5187 143.175 57.5065C143.123 57.5655 143.065 57.6896 143.241 57.7545C145.05 56.8863 146.869 54.8428 147.235 52.783C147.595 50.4352 146.185 48.3621 144.752 46.6656C138.543 41.127 130.445 39.5235 121.852 39.6342ZM76.2378 39.8572C73.484 39.8734 70.7199 40.1953 68.1079 40.7283C62.5028 42.0764 56.6424 44.1229 53.3186 49.4518C52.4046 51.0421 52.4386 53.4061 53.4427 54.9653C54.3301 56.2233 55.6605 57.6438 57.0824 58.0572V57.8727C56.1152 57.0827 55.6309 56.0078 55.5645 54.8413C55.6309 53.2673 56.8579 52.0742 57.9299 51.0259C63.1378 47.0303 69.5918 45.6216 76.226 45.3308C81.5637 45.3337 87.4449 45.3662 91.0063 49.7575C91.3784 50.6508 91.5025 51.8321 91.1304 52.7254H91.309C92.0163 51.5441 92.7693 50.3762 92.951 48.9705C93.044 47.2134 92.3766 45.6674 91.1909 44.4227L89.1931 42.7867C85.391 40.6515 80.8284 39.8291 76.2378 39.8572ZM108.087 113.514L109.536 121.075L111.612 116.483C110.848 114.946 110.014 114.15 108.087 113.514ZM92.2437 113.969C90.3478 114.7 89.5608 115.544 88.8757 117.124L91.1909 121.591L92.2437 113.969Z" fill="#002649"/>
</g>
<defs>
<clipPath id="clip0_154_2366">
<rect width="200" height="200" fill="white"/>
</clipPath>
</defs>
</svg>
