<svg width="200" height="200" viewBox="0 0 200 200" fill="none" xmlns="http://www.w3.org/2000/svg">
<path d="M117.5 23.4442C117.348 23.4442 117.195 23.4456 117.042 23.4496C113.312 23.5102 109.465 23.5721 106.438 26.3298C105.847 26.2732 105.232 26.2449 104.592 26.2449C100.728 26.2449 96.8042 27.2696 94.9406 27.8338C94.4115 27.5389 93.7692 27.2912 93.0286 27.0973C92.9775 27.0771 92.9371 27.0663 92.9101 27.0582C92.7445 27.0044 91.2136 26.5358 88.8814 26.4213C88.732 26.4132 88.5731 26.4079 88.4061 26.4079C87.4259 26.4079 86.0807 26.5452 84.403 26.8185C80.6059 27.2346 75.119 28.2054 71.9884 29.3661C68.062 30.8095 63.8973 32.8777 60.1487 35.2341C60.1352 35.2233 60.1204 35.2126 60.107 35.2045C59.3637 34.7103 58.5248 34.1515 57.5378 33.792C57.3318 33.7072 57.1366 33.6331 56.9616 33.5685C56.8283 33.52 56.6451 33.4567 56.5199 33.4002L56.4499 32.9303L56.0082 32.4778C55.2017 31.6497 53.9037 30.5268 52.3 29.8764L52.0953 29.7956L51.8732 29.7579C51.169 29.6435 50.4594 29.5869 49.7646 29.5869C44.3759 29.5869 39.4828 32.9572 35.9361 39.0945C35.8567 39.1308 35.7718 39.1712 35.687 39.2103C33.1112 40.4275 27.0722 43.274 23.3855 50.5814C21.1988 54.9117 19.5386 59.7281 22.1683 65.5894C22.991 67.4341 24.0197 69.3434 25.96 70.8016L26.0946 70.9026L26.3074 71.013C26.7854 71.2621 27.7818 71.7778 29.1498 71.7778C30.359 71.7778 31.5789 71.3874 32.819 70.597C30.2095 74.5758 27.8612 79.2913 26.8487 84.7243C26.2347 87.2907 26.333 89.9137 26.4286 92.4505L26.4312 92.4976C26.3882 93.1278 26.4676 93.7041 26.5834 94.2521L29.508 102.241L29.1161 102.583L28.9532 102.616C28.964 102.642 28.9761 102.668 28.9869 102.693L26.9537 104.464C26.947 104.78 26.9389 105.102 26.9389 105.428C26.9389 110.967 27.6606 116.499 29.069 121.878C28.6449 122.116 28.3311 122.4 28.082 122.683L28.0592 122.712L27.9662 122.791L27.8585 122.93C26.982 124.042 26.2831 125.633 25.6099 127.172L25.5399 127.335C25.0228 128.562 24.6 129.657 24.4317 130.098L24.425 130.123L24.324 130.401L24.254 130.73L24.2432 130.809C24.2109 131.038 24.1961 131.264 24.1961 131.495C24.2042 133.858 25.9559 135.892 28.28 136.263L28.3554 136.281C31.5789 136.983 33.9029 137.346 35.2588 137.36H35.2777C35.306 137.36 35.345 137.352 35.3746 137.352L35.6062 137.754C36.9783 140.123 38.5254 142.42 40.1924 144.607L40.0429 144.665L40.8293 145.467L40.7943 145.528L40.7552 145.614C40.2018 146.884 40.1035 148.153 40.0012 149.496L39.9742 149.841C39.88 151.343 39.8692 152.967 39.8692 154.056C39.8692 155.074 39.884 155.873 39.8908 156.195L39.9002 156.651L40.0079 157.042C40.6434 159.397 42.7844 161.043 45.2175 161.043C45.6282 161.043 46.0334 160.998 46.4199 160.907C46.8615 160.835 48.4275 160.565 50.1483 160.213C51.2861 159.98 52.3471 159.737 53.2102 159.511L53.3153 159.481C53.9845 159.292 54.5904 159.111 55.1882 158.858L55.6635 159.178C58.7968 161.283 62.1738 163.134 65.6962 164.678L66.1985 164.898C66.3223 165.704 66.5809 166.443 66.8354 167.169C67.7321 169.665 69.3116 172.913 69.7747 173.851L69.9511 174.211L70.2016 174.514C71.1684 175.668 72.5889 176.33 74.0929 176.33C75.2186 176.33 76.3227 175.95 77.2101 175.261L77.3259 175.182C77.785 174.861 79.0049 174.01 80.307 173.046C81.3357 172.278 82.1167 171.669 82.7711 171.116C83.3716 170.605 83.8631 170.167 84.2913 169.685L85.491 169.798C87.5632 169.993 89.618 170.093 91.6027 170.093C93.3854 170.093 95.2422 170.01 97.1219 169.853L97.5138 169.822C97.6417 170.082 97.7817 170.311 97.9191 170.505C97.9433 170.539 97.9689 170.572 97.9904 170.609L98.0483 170.698L98.1143 170.78C99.0676 171.98 100.635 173.255 102.306 174.574C102.327 174.59 104.262 176.077 105.057 176.622L105.054 176.625L105.411 176.894L105.819 177.049C106.43 177.29 107.066 177.411 107.707 177.411H107.712C109.732 177.411 111.562 176.226 112.394 174.384L112.417 174.337C112.638 173.912 113.307 172.618 113.983 171.184C114.438 170.233 114.854 169.295 115.186 168.476L115.228 168.374C115.577 167.474 115.879 166.697 115.986 165.744L116.028 165.298L116.293 165.191C117.793 164.574 119.342 163.851 120.898 163.058L121.124 164.116H121.569C121.803 164.373 122.029 164.531 122.165 164.625L122.245 164.699L122.41 164.799C123.414 165.403 124.734 165.774 126.014 166.13L126.168 166.172C126.983 166.393 127.969 166.647 128.541 166.748L128.538 166.757L128.848 166.816H129.209C131.433 166.771 133.215 165.006 133.293 162.79C133.359 161.917 133.472 160.25 133.472 158.858L133.469 158.741C133.458 157.964 133.452 157.229 133.219 156.426L132.846 155.216L132.824 155.206C136.536 152.127 139.907 148.657 142.834 144.86L143.191 144.395C145.441 145.361 147.794 145.864 150.139 145.864C153.162 145.864 156.085 145.052 158.822 143.456C161.399 141.958 162.991 139.537 163.695 138.259C165.68 137.566 170.473 135.487 173.021 130.901C174.911 127.498 175.165 123.507 173.776 119.046C173.732 118.906 173.702 118.749 173.67 118.567C175.055 118.035 176.282 117.126 177.11 115.978C179.864 112.282 180.761 108.052 179.638 104.08C178.951 101.564 177.129 99.1668 174.77 97.6076C174.416 92.06 172.594 86.9716 169.586 83.1786L169.326 82.8473L169.216 82.7894C168.925 82.4205 168.291 81.6732 167.204 81.6732C166.785 81.6732 166.379 81.793 166.02 82.0179V81.9425C165.999 77.5583 162.299 75.3231 159.47 73.7033C159.683 72.9762 159.809 72.2733 159.922 71.6513C160.671 67.5229 159.769 63.9345 157 60.0203C154.682 56.7443 151.668 54.6343 147.809 53.5881C146.7 51.8767 146.2 50.9584 145.855 50.3296C145.683 50.0186 145.538 49.752 145.373 49.4934C145.955 48.1806 146.184 46.7749 146.324 45.5145L146.331 45.4432L146.333 45.3745C146.56 39.6075 144.671 34.9675 141.011 32.3095L140.9 32.2287L140.781 32.1654C138.552 30.9805 136.913 30.3773 134.145 30.3773C133.974 30.3773 133.796 30.3813 133.627 30.3854C133.536 30.3867 133.45 30.3881 133.369 30.3881C133.26 30.3881 133.158 30.3867 133.058 30.3854C132.776 30.1067 132.493 29.8441 132.191 29.5775C127.907 25.7844 123.956 23.4375 117.497 23.4375L117.5 23.4442ZM28.9505 102.618C28.2732 101.111 27.7212 99.4805 27.3024 97.7314L27.2445 97.4864L27.2499 97.2346C27.2607 96.7175 27.0937 96.1493 26.8998 95.4936C26.7854 95.1044 26.675 94.687 26.5834 94.2521L26.5605 94.1969L26.9523 104.46C26.9604 104.149 26.9685 103.843 26.9793 103.54L26.9968 103.024L28.9505 102.618Z" fill="white"/>
<path d="M117.075 25.419C113.031 25.485 109.673 25.5765 107.155 28.4042C102.192 27.6111 96.0006 29.5473 94.8076 29.9391C94.5989 29.853 94.3969 29.7722 94.2084 29.69C93.8879 29.476 93.3332 29.2013 92.4203 28.9737C92.3529 28.9454 92.3152 28.9347 92.3152 28.9347C92.3152 28.9347 90.9284 28.4917 88.778 28.3853C87.7291 28.3301 86.0823 28.5388 84.6672 28.769C81.0115 29.1663 75.6524 30.1088 72.67 31.2143C68.4878 32.7533 64.0874 34.9993 60.2998 37.4768H60.0022C58.9465 36.8507 57.9663 36.032 56.8204 35.6281C55.8765 35.2214 54.7859 35.0908 54.5974 33.852C53.7652 32.9997 52.7096 32.1689 51.561 31.7044C45.145 30.6703 40.2775 35.2766 37.3542 40.5845C35.8583 41.418 29.0248 43.773 25.1443 51.4668C22.7946 56.1243 21.8319 60.0251 23.9688 64.7863C24.8346 66.7293 25.7179 68.1539 27.1451 69.2257C28.33 69.837 31.7542 71.8863 37.9507 61.6019C38.1944 63.1571 38.3439 64.4726 38.6899 65.9699C34.0082 71.7261 30.1249 77.8082 28.7757 85.1331C28.1981 87.5043 28.3099 90.0747 28.4028 92.5388C28.252 94.1088 29.2537 95.5724 29.2201 97.2717C29.9418 100.292 31.1617 103.212 32.9916 105.64C33.4723 106.157 33.5113 106.801 34.1011 107.342C36.5409 111.374 40.1522 115.393 44.0948 118.145C44.9403 121.474 46.3474 124.658 48.3066 127.469C52.75 135.126 59.947 142.698 67.8441 146.709C72.2121 149.283 85.2341 154.077 94.1922 144.64C94.708 144.012 95.4122 143.009 96.0356 142.494C98.8174 143.898 101.426 145.911 104.253 146.933C112.378 151.37 123.293 151.931 131.635 147.598C135.112 146.121 138.073 143.38 140.96 140.94C145.976 144.325 152.141 145.072 157.833 141.75C160.864 139.989 162.317 136.627 162.317 136.627C162.317 136.627 176.07 133.047 171.891 119.625C171.615 118.732 171.749 117.954 171.003 117.4L171.298 117.106C172.967 116.979 174.592 116.106 175.518 114.812C177.702 111.891 178.779 108.283 177.735 104.595C177.054 102.102 175.053 99.9162 172.849 98.7555C172.706 93.756 171.296 88.5034 168.042 84.3993C167.715 84.2296 167.4 83.3625 167.005 83.7314C167.21 85.0631 166.671 86.1174 166.637 87.3575C166.434 87.7857 166.473 88.5034 165.972 88.6151C165.322 87.2081 164.382 85.8198 163.379 84.3993C164.048 83.7126 163.99 82.7673 164.049 81.9487C164.029 78.0304 159.813 76.253 157.017 74.5537C157.561 73.5546 157.779 72.4276 157.982 71.3006C158.664 67.5439 157.749 64.4941 155.389 61.1602C153.008 57.794 150.008 56.0907 146.586 55.3111C143.747 51.0131 144.121 50.8582 143.029 49.6652C143.921 48.3874 144.198 46.781 144.362 45.2972C144.528 41.08 143.441 36.5087 139.853 33.9019C137.833 32.8274 136.453 32.2807 133.665 32.3534C133.083 32.3642 132.718 32.3359 132.237 32.3534C131.863 31.9629 131.431 31.5347 130.885 31.0513C126.524 27.1963 122.89 25.3207 117.073 25.4176L117.075 25.419ZM28.9683 103.083C28.944 103.861 28.9104 104.637 28.9104 105.427C28.9104 111.067 29.6685 116.522 31.0621 121.725C31.6155 121.731 32.7627 121.807 34.1805 122.33C35.6913 122.878 37.5602 124.076 38.7748 126.228C39.5652 127.6 39.8695 129.05 39.8641 130.309C39.8102 133.543 38.2443 135.515 38.0948 135.775L37.3704 136.752L37.3125 136.763C38.8192 139.362 40.5023 141.842 42.3524 144.191C42.5557 144.043 42.7954 143.911 43.0781 143.805C43.5844 143.594 45.1127 143.015 47.2832 143.001C49.1683 142.992 51.6257 143.517 53.8258 145.267C57.0251 147.796 57.6526 151.355 57.631 153.481C57.6256 154.965 57.3806 155.963 57.3415 156.139L57.021 157.383L56.7625 157.543C59.8177 159.595 63.0762 161.375 66.4855 162.869C66.4909 162.842 66.495 162.824 66.5044 162.793C66.6161 162.407 66.8491 161.861 67.3271 161.367C67.6031 161.066 68.2979 160.359 69.4263 159.629C70.7472 158.769 72.7413 157.861 75.266 157.857C76.0389 157.857 76.8575 157.939 77.6964 158.145C80.998 158.911 83.046 161.157 84.0868 162.959C85.1506 164.787 85.4266 166.304 85.4751 166.527L85.7094 167.777L85.6757 167.832C87.6281 168.016 89.6021 168.117 91.6003 168.117C93.4032 168.117 95.19 168.038 96.9593 167.89C96.9701 167.697 97.0037 167.371 97.1101 167.04C97.2515 166.528 97.6258 165.335 98.501 163.97C99.5715 162.291 101.554 160.283 104.665 159.474C105.515 159.244 106.352 159.14 107.201 159.14C111.882 159.237 114.597 162.268 115.226 162.984L115.273 163.026L115.548 163.366C117.241 162.671 118.902 161.888 120.517 161.047C120.558 159.579 121.056 156.975 123.515 155.066C124.988 153.921 126.628 153.537 127.973 153.544H128.097C129.367 153.564 130.398 153.866 131.058 154.125C134.851 151.042 138.284 147.531 141.271 143.653C141.233 143.631 141.194 143.617 141.161 143.598C138.663 145.739 135.928 148.084 132.554 149.552C128.339 151.716 123.587 152.72 118.852 152.72C113.439 152.72 108.019 151.41 103.363 148.902C100.773 147.921 98.5697 146.397 96.5015 145.195C96.282 145.464 96.0612 145.755 95.8592 146.009L95.8148 146.062L95.7569 146.12C91.3081 150.826 85.7861 152.402 80.8687 152.389C74.8136 152.362 69.5663 150.187 66.8262 148.608C58.478 144.333 51.1329 136.577 46.4888 128.631C44.5472 125.831 43.1212 122.7 42.2056 119.443C38.3089 116.563 34.8511 112.665 32.3857 108.668C31.6855 107.901 31.4876 107.183 31.4095 107.109V107.101L31.3314 107.018L31.2681 106.933C30.3686 105.734 29.6106 104.432 28.971 103.082L28.9683 103.083ZM30.8251 123.357C30.8049 123.363 30.7887 123.363 30.7807 123.363C29.8233 123.489 29.6658 123.915 29.4059 124.149C28.6599 125.092 28.0029 126.624 27.3565 128.098C26.7493 129.542 26.2726 130.806 26.2686 130.818L26.2255 130.942L26.1945 131.075C26.1703 131.249 26.1649 131.39 26.1649 131.486C26.1703 132.903 27.2138 134.121 28.637 134.323C29.2564 134.456 33.3242 135.368 35.2779 135.388C35.4759 135.388 35.6698 135.381 35.8825 135.346L36.4426 135.255L36.782 134.8C36.8506 134.687 38.2052 132.917 38.2281 130.313C38.2335 129.297 37.9898 128.149 37.3556 127.033C35.2712 123.477 31.6061 123.363 30.9463 123.357H30.9193H30.9099H30.8251ZM47.2321 144.705C45.1302 144.709 43.6693 145.375 43.5454 145.422L43.5481 145.428C42.9018 145.708 42.7065 146.143 42.5611 146.402C42.106 147.446 42.0535 148.543 41.9404 149.964C41.8528 151.345 41.838 152.866 41.838 154.056C41.838 155.283 41.8569 156.164 41.8569 156.173L41.8623 156.357L41.9121 156.531C42.3241 158.063 43.6975 159.073 45.2177 159.073C45.4857 159.073 45.7563 159.042 46.027 158.973C46.3622 158.918 47.9848 158.645 49.754 158.281C50.7531 158.078 51.7953 157.844 52.7069 157.604C53.636 157.339 54.3537 157.141 55.035 156.743L55.5574 156.418L55.7136 155.813C55.7378 155.726 55.956 154.844 55.96 153.556C55.9708 151.678 55.4349 148.722 52.7675 146.614C50.8986 145.131 48.8546 144.694 47.2321 144.705ZM127.993 155.681C127.032 155.676 125.872 155.94 124.826 156.754C122.934 158.217 122.649 160.254 122.654 161.311C122.654 161.787 122.708 162.097 122.718 162.144H122.724C122.871 162.844 123.241 162.943 123.427 163.11C124.231 163.594 125.47 163.93 126.68 164.27C127.864 164.589 128.905 164.82 128.91 164.82L129.037 164.843H129.167C130.348 164.82 131.299 163.87 131.324 162.687C131.338 162.488 131.501 160.464 131.501 158.857C131.49 158.114 131.489 157.545 131.324 156.972L131.198 156.564L130.822 156.362C130.74 156.323 129.605 155.685 127.993 155.681ZM75.0519 159.952C70.9599 159.987 68.5968 162.803 68.4985 162.9V162.905C68.0838 163.368 68.1121 163.787 68.0919 164.047C68.1121 164.829 68.3612 165.564 68.6911 166.5C69.6673 169.22 71.5443 172.985 71.5551 173.006L71.6183 173.134L71.7099 173.247C72.3226 173.98 73.2072 174.361 74.0932 174.361C74.7705 174.361 75.4639 174.136 76.0362 173.677C76.2732 173.51 77.6479 172.565 79.1291 171.465C79.9383 170.861 80.7785 170.215 81.4908 169.616C82.2152 168.999 82.7767 168.51 83.1833 167.923L83.4473 167.519L83.3557 167.032C83.3409 166.95 83.0958 165.626 82.1991 164.098C81.3131 162.581 79.6959 160.811 77.042 160.186C76.3553 160.032 75.6861 159.955 75.0532 159.955L75.0519 159.952ZM107.166 161.283C106.54 161.283 105.881 161.362 105.209 161.54C102.728 162.19 101.17 163.775 100.299 165.124C99.5338 166.313 99.2308 167.347 99.15 167.662C99.0881 167.882 99.0894 168.045 99.084 168.136C99.1433 168.959 99.4314 169.201 99.655 169.553C100.503 170.62 102.06 171.87 103.513 173.016C104.955 174.137 106.224 175.044 106.234 175.049L106.369 175.149L106.529 175.209C106.913 175.363 107.31 175.441 107.707 175.441H107.712C108.938 175.441 110.1 174.718 110.615 173.529C110.755 173.255 111.473 171.879 112.204 170.331C112.616 169.469 113.028 168.556 113.364 167.734C113.692 166.891 113.947 166.24 114.029 165.519L114.084 164.956L113.73 164.519C113.625 164.429 111.294 161.342 107.166 161.283Z" fill="#663399"/>
<path d="M118.408 29.1507C116.368 29.1871 114.493 29.657 113.129 30.4191C115.043 31.3926 119.322 33.038 121.239 34.0115C127.181 36.8809 133.043 41.0577 138.186 45.7193C138.651 45.9993 138.725 46.8207 139.464 46.8207C140.425 44.7471 140.773 41.9262 139.605 39.8674C138.585 38.1251 136.801 37.1408 134.704 37.235C134.704 37.235 135.749 38.6327 135.298 41.4926C133.802 39.9657 131.864 39.4204 130.373 37.8948C130.373 36.8217 129.944 35.1547 128.987 33.7288C127.821 31.9851 126.58 31.3926 124.685 30.4837C122.652 29.5129 120.446 29.1144 118.408 29.1507ZM104.07 31.192C102.481 31.1664 100.801 31.3522 99.0344 31.8302C100.579 32.5802 101.979 33.3477 102.666 33.9604C103.243 34.4788 103.814 34.9824 104.33 35.4415C105.223 36.1067 106.117 36.8324 107 37.6322L104.202 38.0079C104.152 37.9608 104.104 37.9217 104.051 37.8787L103.941 37.8948C103.941 37.8948 97.8899 33.1255 91.4738 32.7957C91.3675 32.7889 91.2678 32.7822 91.1574 32.7768C90.8235 32.7943 90.499 32.8185 90.2027 32.8643C80.0879 33.0609 77.7935 35.3634 74.8689 36.38C70.8348 38.4536 68.8084 39.6452 65.3829 42.8809L67.7729 45.695C68.5162 47.024 69.3483 48.4499 69.9933 49.6928C70.9762 52.7089 71.8811 56.3848 71.1795 59.4588C69.7361 60.0284 68.127 60.1429 66.5867 60.4929C66.2972 60.0149 66.5355 59.6447 66.6661 59.1626C66.5153 52.686 62.2981 46.5999 56.6024 43.9177C56.4112 45.2857 56.1716 47.0079 55.3394 48.283C55.505 49.6349 56.2443 50.6703 56.2281 52.0545C57.0589 57.0554 56.0867 61.8435 54.0858 66.1953C53.8435 66.361 50.7398 57.5172 45.2044 57.3879C44.0734 59.9409 44.072 63.2559 44.9809 65.8264C45.6838 69.1186 48.5504 72.0027 51.4871 73.7397C51.4871 73.7397 49.4755 75.3138 48.4575 75.9614C46.2789 75.0929 43.9602 74.0777 42.3189 72.4094C38.0263 76.1472 33.6488 79.8434 33.8064 90.7903C33.972 101.743 43.4809 108.41 44.4652 108.524C46.6478 102.825 50.0275 98.4518 54.9314 93.0699C60.2541 87.2315 70.7338 80.3968 70.7338 80.3968C75.3819 79.8555 78.7226 79.5902 78.7226 79.5902C78.8155 80.0144 59.4435 92.9649 54.1586 101.052C50.4907 104.542 50.0302 110.725 50.6025 115.401C50.694 117.809 55.0715 130.003 62.0005 136.057C69.005 142.171 75.2769 145.36 84.2755 144.561C88.1574 144.222 90.4734 140.847 91.4523 137.608C93.1179 130.839 86.0152 116.561 87.6067 103.121C88.4873 95.6485 89.38 90.1696 92.2696 84.3999C93.4895 82.6912 94.9168 81.1387 97.0012 80.5503C99.8907 79.7356 103 80.5866 105.363 82.1041C111.454 85.543 116.431 92.1718 123.864 92.3899C125.615 88.2454 124.918 85.6912 125.568 85.2105C130.653 88.6656 133.189 96.9047 133.486 97.2723C134.058 97.1848 144.956 95.1099 150.212 95.4249C150.302 92.6485 149.448 89.8155 147.769 87.653C145.382 85.6912 143.483 84.0619 140.143 83.3644C135.892 82.465 132.236 86.5381 129.186 85.4151C125.199 83.9475 125.617 78.4915 129.565 76.7033C128.454 76.3331 127.531 75.5911 126.454 75.1481C124.606 76.0934 122.738 76.9619 120.611 77.2204C118.703 77.7173 113.738 78.2505 108.916 75.1481C105.102 72.6908 103.716 67.9498 103.958 63.6033C103.958 63.6033 105.055 57.6828 106.089 55.4275C106.089 55.4275 105.068 53.3646 103.958 52.5769C102.279 51.3732 100.789 51.0918 98.8364 51.664C95.4177 52.6752 96.2781 61.6227 95.8203 61.826C94.7808 60.9023 93.4895 59.9395 92.7826 58.7937C92.8674 56.5625 93.3495 50.506 97.2233 48.4297C100.002 46.9486 102.868 46.9904 105.294 48.2089C109.008 50.2071 111.58 53.3673 114.247 56.642C117.631 60.3071 120.037 64.3035 123.79 67.6697C126.353 69.9965 131.027 73.8353 133.336 72.777C134.044 72.5009 134.057 71.6675 134.299 71.075C134.358 69.3192 133.451 67.7626 132.671 66.2627C132.706 66.1172 134.222 66.7447 136.297 67.4516C136.908 69.2801 138.182 71.5759 136.666 73.4475C140.292 72.575 143.598 72.3474 147.596 72.1455C147.596 72.1455 145.76 69.913 146.362 67.4516C146.362 67.4516 148.028 66.4808 148.954 65.9045C148.954 67.2968 149.191 68.6311 149.875 70.018C150.48 71.246 151.193 72.5548 152.728 72.3353C154.191 71.8385 154.223 70.2429 154.277 69.0499C154.465 65.0549 151.764 61.3089 148.434 59.4588C145.749 58.0693 142.417 59.067 140.071 60.4929C139.242 59.9947 138.333 59.479 137.702 58.6415C138.648 57.738 139.647 56.7928 140.886 56.2744C135.802 47.7848 127.991 41.0416 119.28 36.8055C116.128 35.3836 110.956 31.3024 104.072 31.1906L104.07 31.192ZM48.6043 36.7584C48.4252 36.7651 48.2596 36.7947 48.1128 36.8513C41.7507 39.2628 40.5644 42.0959 38.3238 50.2071C36.673 50.6299 35.0546 51.1712 33.4374 51.6856C33.4374 51.6856 33.4347 49.4356 34.2709 46.0788C34.2709 46.0788 30.4765 49.3696 28.8203 51.6384C25.4635 56.2569 23.7346 65.3067 29.8854 64.4166C33.9693 63.8269 35.6107 58.2632 39.5155 54.5765C43.7367 50.5855 48.8197 47.572 50.7519 44.8036C51.6043 43.5797 52.9804 40.4168 52.3085 38.9545C51.7739 37.7965 49.8606 36.7126 48.6043 36.7584ZM158.495 83.5799C156.847 83.8438 155.96 85.434 154.574 86.3227C154.09 86.7832 154.052 87.4887 153.388 87.8051C152.114 90.148 152.886 91.8083 153.54 95.1301L162.863 96.0187L164.936 91.8689C165.008 90.9654 164.563 90.0969 164.194 89.2836C162.971 87.3393 161.808 84.7863 159.455 83.8788C159.14 83.7697 158.771 83.802 158.495 83.5799ZM153.859 98.1852C147.951 98.2499 141.842 98.8719 137.773 99.2772C123.876 100.647 107.944 113.122 105.658 115.109C96.0842 123.428 95.2642 121.458 94.4065 121.399C94.8697 122.176 96.1004 125.629 96.639 128.465C97.1964 131.379 97.016 133.984 97.1466 136.058C98.182 137.724 106.594 146.686 116.016 146.787C129.204 146.924 137.362 137.856 139.254 130.504L145.62 129.541C145.62 129.541 145.463 133.844 143.627 137.524C143.529 137.907 151.021 140.225 154.351 138.795C167.459 133.159 155.824 124.43 161.015 117.107C157.218 116.391 154.129 115.186 149.615 114.961C137.079 114.346 128.637 117.332 119.277 125.694C119.277 125.694 119.815 121.364 120.235 119.251C120.55 118.607 126.201 114.637 130.676 113.115C151.632 105.976 160.939 114.576 164.936 114.52C166.953 114.631 175.604 114.662 174.49 105.763C174.069 102.406 168.41 99.6798 163.795 98.8383C160.877 98.3091 157.405 98.1462 153.859 98.1852ZM163.967 117.699L163.376 119.923C162.399 123.713 164.813 128.143 163.647 131.826C165.497 131.876 172.269 128.352 168.039 117.777C166.635 117.864 165.319 117.942 163.967 117.699ZM30.8831 124.721C30.0699 124.618 27.5694 131.285 27.5694 131.285C27.5587 131.34 27.564 131.402 27.564 131.461L35.7009 127.022C33.84 124.606 30.8831 124.721 30.8831 124.721ZM36.4078 128.211L29.9231 131.749L36.8104 129.712C36.7565 129.222 36.6353 128.72 36.4078 128.211ZM47.4638 146.266C45.5868 146.213 44.1945 146.845 44.1945 146.845C43.1833 147.119 43.4082 156.149 43.4082 156.149C43.4392 156.261 43.4755 156.36 43.524 156.457L51.1667 147.383C49.8902 146.577 48.5895 146.298 47.4638 146.266ZM52.4202 148.381L45.7861 156.254L53.62 150.037C53.3237 149.464 52.9427 148.899 52.4202 148.381ZM126.804 156.864C126.441 156.976 126.075 157.147 125.715 157.393L129.41 162.347L126.804 156.864ZM124.9 158.097C123.394 159.768 123.777 161.902 123.777 161.902C123.787 162.499 128.533 163.592 129.106 163.72L124.9 158.097ZM75.2055 161.209C71.6549 161.127 69.4143 163.723 69.4143 163.723C68.6212 164.395 72.6459 172.486 72.6459 172.486C72.7091 172.563 72.7819 172.625 72.8546 172.691L75.9313 161.262C75.6835 161.231 75.4425 161.214 75.2055 161.209ZM77.4878 161.621L74.8218 171.515L79.2733 162.608C78.7684 162.216 78.1813 161.867 77.4878 161.621ZM107.337 162.658C107.003 162.65 106.657 162.667 106.297 162.721L108.546 172.541L108.298 162.759C107.991 162.702 107.669 162.667 107.337 162.658ZM104.945 163.074C101.348 164.393 100.522 168.033 100.522 168.033C100.159 168.942 107.078 173.888 107.078 173.888C107.199 173.937 107.323 173.97 107.445 173.993L104.945 163.074Z" fill="#FFCC00"/>
<path d="M102.619 75.8712C102.141 74.3547 97.6189 71.2477 90.9992 74.0737C77.8575 79.6902 69.3779 98.5023 67.8379 102.148L71.9161 111.203C71.9161 111.203 76.3225 88.1277 91.0766 77.5779C94.2241 75.1711 98.8492 74.3749 102.619 75.8712Z" fill="#663399"/>
<path d="M110.2 58.7695C109.521 59.8265 108.603 61.4342 108.321 62.568L109.353 62.2152L110.399 65.5235L111.507 62.568C114.688 64.7102 116.601 69.0513 114.097 74.7753C115.315 75.0742 116.558 75.334 117.948 75.2196C120.11 75.1105 122.216 74.4427 124.009 73.2201C118.175 68.3161 113.454 62.6528 110.2 58.7695ZM146.987 75.1482C143.894 75.1752 140.812 75.7959 138.064 76.9835C144.001 76.5567 151.242 76.3708 156.584 79.1069C157.173 78.7986 157.814 78.4121 158.298 78.0418C154.961 76.0585 150.965 75.1132 146.987 75.1482ZM100.924 84.2626C100.053 84.2586 99.203 84.5764 98.5594 85.2106C96.0967 88.1365 95.3373 91.9996 95.0047 95.7953C98.7035 96.7917 101.9 97.5808 109.136 98.2351C109.214 98.5152 109.376 98.9219 109.216 99.1265C104.399 99.6974 99.5558 99.6974 94.7798 98.829C93.1061 109.753 95.8826 115.474 97.5145 114.366C104.442 109.605 109.571 106.154 118.832 102.306C119.26 101.7 120.025 100.53 120.278 99.8631L112.422 99.1077C112.422 99.1077 112.341 98.3456 112.617 98.0843C115.501 98.3981 118.539 98.1813 121.571 97.7221C121.851 96.9412 122.384 96.1629 122.384 95.3496C118.094 94.4259 114.113 92.7253 110.47 90.2424C107.829 88.4866 105.365 85.9511 102.476 84.6194C101.978 84.3838 101.446 84.2653 100.924 84.2626ZM168.672 90.0808C167.987 93.6975 166.107 96.3595 165.764 96.9385C167.197 97.3882 168.803 97.7962 170.392 98.048C170.716 92.8613 168.672 90.0808 168.672 90.0808ZM127.046 90.9089C126.457 96.2195 124.677 98.1463 124.237 100.015C126.417 99.0727 128.807 98.592 131.045 97.7962C130.061 95.3496 129.026 92.8734 127.046 90.9089Z" fill="white"/>
</svg>
