<svg xmlns="http://www.w3.org/2000/svg" viewBox="0 0 64 64">
  <mask id="mask" maskUnits="userSpaceOnUse" x="0" y="0" width="64" height="64">
    <rect width="64" height="64" fill="white"/>
  </mask>
  <g mask="url(#mask)">
    <rect width="64" height="64" fill="#000"/>
    <path fill="#fff" d="M32 10c-12.15 0-22 9.85-22 22s9.85 22 22 22 22-9.85 22-22S44.15 10 32 10zm0 6c8.82 0 16 7.18 16 16s-7.18 16-16 16S16 40.82 16 32s7.18-16 16-16zm-6.8 23.52h6.04c4.22 0 6.72-1.86 6.72-5.18 0-2.62-1.68-4.24-4.48-4.66v-.08c2.18-.46 3.68-1.98 3.68-4.1 0-2.92-2.32-4.72-6.2-4.72h-5.76v18.74zm3.96-15.94h2.04c2.08 0 3.26.84 3.26 2.36 0 1.52-1.18 2.36-3.26 2.36h-2.04v-4.72zm0 7.48h2.38c2.32 0 3.64.9 3.64 2.52 0 1.62-1.32 2.5-3.64 2.5h-2.38v-5.02z"/>
  </g>
</svg>
