<svg width="200" height="200" viewBox="0 0 200 200" fill="none" xmlns="http://www.w3.org/2000/svg">
<path d="M98.6159 25.4939L103.674 31.0954C69.0331 27.8967 47.1748 37.7509 47.1748 37.7509C56.2365 39.8823 63.4366 43.6189 63.4366 43.6189C26.1192 59.879 9.58594 83.3425 9.58594 83.3425H24.1295C17.8703 91.5459 13.965 100.557 12.7476 109.841C10.9045 123.835 15.3561 138.426 25.271 149.798C38.737 165.258 60.651 174.507 85.3522 174.507C125.809 174.507 149.175 153.151 149.175 153.151L143.545 151.285C108.194 139.628 100.103 114.323 99.0813 110.644C108.379 112.387 118.075 110.526 118.075 110.526C128.468 115.313 140.186 123.843 140.186 123.843C142.589 128.118 145.521 134.784 160.984 133.18C176.438 131.581 177.513 125.717 177.513 125.717C183.368 124.385 187.111 117.987 187.111 116.385C187.111 114.789 188.975 107.858 188.975 107.858C195.102 93.7295 179.643 88.9323 179.643 88.9323C177.78 88.1364 163.602 73.6536 163.602 73.6536C165.553 61.9429 155.075 56.714 155.075 56.714C151.605 28.723 120.732 28.6926 120.732 28.6926L126.067 34.2841C111.144 28.6926 98.6159 25.4939 98.6159 25.4939Z" fill="#FA4616" stroke="#FA4616" stroke-width="1.26736"/>
<path d="M109.639 32.375C110.844 33.7003 112.043 36.1622 112.043 36.1622C85.2868 29.7159 59.0008 37.7421 59.0008 37.7421C61.3716 38.3559 65.0609 40.1079 67.9814 41.6018L82.2381 42.6203C75.3585 43.4229 68.7301 45.2963 62.4878 47.7969C44.4287 55.614 30.7167 66.7597 23.3244 73.6394C19.3787 77.3321 17.1563 79.8142 17.1563 79.8142L25.1691 79.6793C46.3544 55.8821 77.3988 50.5926 77.3988 50.5926C77.3988 50.5926 49.6391 59.8042 31.2124 79.5798L31.376 79.5765C26.6024 84.5591 22.7562 89.9769 20.0178 95.7689C19.6283 96.5901 19.1039 97.8041 19.0668 97.9121C17.416 101.858 16.2761 105.957 15.7163 110.206C11.4402 142.682 42.6279 171.086 85.3761 171.502C95.1324 171.597 104.82 170.191 113.831 167.66C76.4781 144.641 80.3968 114.757 80.3968 114.757C80.3968 114.757 81.6429 118.893 84.6679 124.636C90.4094 135.13 103.039 152.644 128.743 162.174C130.488 161.395 136.245 158.657 142.61 154.135C102.29 139.969 96.4105 112.848 96.4105 112.848C82.2398 112.889 76.9435 105.717 76.0835 104.522C76.0127 104.416 75.9638 104.352 75.9638 104.352C68.5058 112.147 67.6981 121.935 67.6981 121.935C66.5009 109.434 69.821 101.133 72.5493 96.5867C70.5647 89.6919 73.5964 82.7414 73.5964 82.7414C73.5964 82.7414 73.1074 86.4409 75.4344 91.7119C75.5726 92.034 75.7412 92.3544 75.7412 92.3544C84.6595 111.238 118.909 106.97 118.909 106.97C127.826 110.938 143.179 121.52 143.179 121.52C144.808 128.838 153.399 130.277 153.399 130.277C153.399 130.277 173.1 130.083 174.859 122.874C181.772 121.556 183.64 115.428 183.64 115.428C183.828 113.607 186.45 103.681 186.45 103.681C188.685 95.2428 177.897 91.9092 177.897 91.9092C177.897 91.9092 165.423 80.3639 159.184 74.2987C159.184 74.2987 163.902 65.6823 151.448 58.3322C151.448 52.3884 149.24 40.9425 130.33 34.422C130.33 34.422 127.071 33.4103 130.033 34.9549C137.011 38.597 147.45 45.6655 146.128 59.7536C146.128 59.7536 160.427 66.5119 150.075 71.186C162.998 82.0636 174.419 95.3963 174.419 95.3963C184.349 97.6827 182.194 102.138 182.194 102.138C182.298 103.77 181.263 107.316 181.128 110.329C181.002 113.336 177.15 118.718 178.036 114.169C178.929 109.616 177.781 108.409 177.781 108.409C177.781 108.409 178.32 111 175.289 114.712C172.26 118.436 173.697 114.379 173.697 114.379C179.032 98.799 165.753 97.7789 162.961 97.7114C160.16 97.649 158.98 94.995 158.98 94.995C152.642 85.7226 137.778 76.0152 137.778 76.0152C142.056 75.3256 143.43 71.8992 143.43 71.8992C139.466 73.5686 133.5 73.8974 128.419 67.8743C123.312 61.8445 115.08 60.3556 115.08 60.3556C122.081 49.1863 107.364 44.5661 99.1253 44.2019C90.8798 43.8394 88.6912 39.0085 88.6912 39.0085C94.4006 42.8344 98.181 41.5934 112.394 43.7247C126.608 45.8426 121.214 58.1619 121.214 58.1619C128.497 58.978 133.948 63.4177 133.948 63.4177C133.948 63.4177 140.633 69.7308 141.941 63.6959C145.118 49.0109 131.783 41.1702 131.783 41.1702C124.55 37.0019 109.635 32.3767 109.635 32.3767L109.639 32.375ZM96.9923 46.6014C101.587 47.431 106.62 48.758 109.978 51.6009C111.628 53.5198 112.584 55.9985 111.733 58.7672L110.428 57.737C108.775 56.415 105.782 57.4807 103.831 58.0523C103.509 55.4606 102.415 52.9684 100.489 51.5419C102.071 51.8302 103.304 52.7155 104.422 53.6193C104.663 53.6716 104.784 53.4591 104.929 53.3107C103.848 50.1896 99.933 48.1257 96.9923 46.6014ZM130.202 83.023C132.593 84.8121 133.817 87.6634 133.748 90.8874C139.265 93.9124 148.21 99.9304 152.131 104.335L149.101 102.042C144.956 100.018 137.466 94.5414 132.937 93.4066L131.851 94.8162C129.249 97.1078 126.381 98.9373 122.84 99.6606C125.791 98.1717 128.36 95.2209 129.961 92.3696C131.554 89.0815 131.783 85.6535 130.202 83.023ZM62.4406 90.2349C62.4406 90.2349 48.796 131.098 78.1592 160.847C65.8855 160.261 55.8004 154.978 55.8004 154.978C43.7812 118.71 62.4406 90.2349 62.4406 90.2349ZM165.161 103.9C168.244 104.279 170.247 106.726 170.803 108.803C169.984 107.571 168.691 106.279 166.892 105.829C166.209 105.709 165.101 105.861 164.688 106.55C163.897 107.923 164.536 109.275 165.064 110.311C163.998 108.83 162.89 107.262 163.146 105.173C163.339 104.348 164.361 104.124 165.161 103.9ZM141.201 113.648L148.215 113.799C148.215 113.799 152.98 115.679 158.975 120.893C158.975 120.893 166.239 122.245 171.972 121.692C171.972 121.692 165.236 124.807 155.22 123.195C150.709 117.619 141.201 113.648 141.201 113.648Z" fill="#0033A0"/>
<path d="M121.334 69.0273C119.741 71.9006 120.652 75.1854 122.451 77.0992C125.523 79.2103 129.627 78.7163 133.654 76.7333C129.147 75.0252 124.176 72.6695 121.334 69.0273Z" fill="white"/>
</svg>
