<svg width="200" height="200" viewBox="0 0 200 200" fill="none" xmlns="http://www.w3.org/2000/svg">
<path d="M188.481 99.9979C188.481 148.89 148.847 188.524 99.955 188.524C51.0634 188.524 11.4297 148.89 11.4297 99.9979C11.4297 51.1068 51.0634 11.4727 99.955 11.4727C148.847 11.4727 188.481 51.1068 188.481 99.9979Z" fill="#C8C372"/>
<path d="M184.812 99.9977C184.812 146.864 146.821 184.855 99.9547 184.855C53.0886 184.855 15.0977 146.864 15.0977 99.9977C15.0977 53.1316 53.0886 15.1406 99.9547 15.1406C146.821 15.1406 184.812 53.1316 184.812 99.9977Z" fill="#1E4D2B"/>
<path d="M99.9782 19.7461C55.756 19.7461 19.7383 55.7727 19.7383 99.9976C19.7383 144.165 55.7588 180.249 99.9782 180.249C144.142 180.249 180.172 144.168 180.172 99.9976C180.172 55.7754 144.146 19.7461 99.9782 19.7461Z" fill="white"/>
<path d="M159.914 147.583C157.249 151.199 154.188 154.178 150.301 155.558C147.868 156.53 145.316 156.937 142.824 155.787C140.864 154.928 139.64 152.977 139.29 150.792C138.838 147.583 140.629 143.798 142.187 141.27C144.339 137.664 149.26 131.354 154.934 127.166C162.99 121.197 168.607 119.533 166.526 118.159C165.074 117.183 157.432 121.374 155.926 122.175C147.347 126.593 135.525 139.381 134.135 148.851C133.177 155.375 139.624 160.273 145.168 160.047C126.755 174.832 106.717 175.314 99.9965 175.473L99.9493 175.47L99.9377 175.473C93.1609 175.313 73.0829 174.81 54.738 160.046C60.2864 160.278 66.7416 155.379 65.7775 148.851C64.3828 139.379 52.5075 126.593 43.9934 122.175C42.4859 121.374 34.8342 117.182 33.3863 118.159C31.3015 119.533 36.918 121.196 44.9747 127.165C50.6555 131.353 55.5226 137.663 57.6634 141.27C59.2848 143.798 61.0803 147.582 60.6183 150.791C60.2679 152.976 58.9978 154.928 57.0834 155.787C54.5894 156.936 52.0469 156.529 49.5534 155.557C45.732 154.177 42.6594 151.2 39.9942 147.584C34.955 140.756 30.0333 132.899 27.5352 124.585C29.6755 129.345 43.2371 149.247 49.2618 149.534C55.4559 149.879 43.2376 133.362 34.8342 126.48C32.8068 124.815 30.4878 122.861 30.0333 119.76C29.675 117.52 30.8359 116.033 33.0405 115.92C36.4051 115.804 45.152 120.336 45.2626 120.167C30.0883 92.9207 53.3165 79.1559 43.7018 73.1876C40.3363 71.0598 33.2206 73.1876 29.3329 73.7607C65.0818 52.6501 71.3305 73.7051 82.1098 83.3944C83.7914 84.9459 91.3788 83.3944 92.8276 81.6169C94.7397 79.323 98.5602 71.0598 94.2167 65.6128C88.2193 58.0272 64.1121 36.2548 41.3009 52.6723C46.8553 45.0261 55.2222 38.122 65.2229 32.9957C76.4911 27.2218 88.8386 24.21 99.9766 24.5266H100.041C121.906 23.9188 146.366 35.8377 158.595 52.6709C135.736 36.2566 111.688 58.0263 105.63 65.6123C101.347 71.0593 105.114 79.3225 107.023 81.616C108.53 83.3939 116.116 84.9454 117.798 83.3939C128.575 73.7046 134.833 52.6501 170.571 73.7602C166.696 73.1871 159.512 71.0593 156.214 73.1872C146.588 79.1549 169.761 92.9198 154.643 120.167C154.762 120.335 163.513 115.803 166.869 115.919C169.071 116.033 170.231 117.519 169.881 119.759C169.419 122.861 167.044 124.814 165.073 126.479C156.67 133.361 144.451 149.879 150.589 149.534C156.671 149.247 170.231 129.344 172.372 124.584C169.881 132.898 164.904 140.755 159.913 147.582L159.914 147.583Z" fill="#1E4D2B"/>
<path d="M135.448 82.9145C130.85 82.8578 132.343 88.526 133.637 91.2673C134.554 93.1047 135.699 96.1429 138.567 95.9104C142.069 95.6242 141.544 92.7558 146.599 92.3581C146.599 92.3581 152.906 92.8199 152.8 94.828C152.566 97.8082 149.291 98.8972 147.174 99.6389C144.019 100.675 140.399 99.1301 137.822 102.054C137.025 103.025 136.386 104.232 136.671 105.32C136.958 106.413 137.083 105.951 140.574 106.234C138.622 108.648 137.478 112.32 137.421 115.534C137.312 124.196 135.127 130.903 135.985 133.891C140.178 128.837 140.115 121.215 140.808 115.13C141.205 111.971 142.351 108.474 143.908 106.184C145.684 103.487 149.071 103.368 151.302 101.71C153.425 100.158 156.747 97.5193 156.461 95.0498L156.46 95.0506C156.06 91.7283 153.137 90.6937 150.559 89.8868C143.097 87.5387 139.944 90.4626 137.766 90.694C140.114 88.0024 139.542 83.5229 136.451 83.0052C136.088 82.9482 135.755 82.9186 135.448 82.9149V82.9145ZM65.239 82.9171C64.9299 82.9208 64.5929 82.9497 64.2274 83.0067C61.1832 83.5244 60.6115 88.0038 62.9021 90.6955C60.7866 90.4641 57.6295 87.5402 50.1721 89.8883C47.5941 90.6951 44.665 91.7298 44.2636 95.052C43.9755 97.5216 47.303 100.16 49.4241 101.711C51.6073 103.369 55.0489 103.488 56.8263 106.186C58.3145 108.475 59.518 111.973 59.9272 115.131C60.6111 121.217 60.4981 128.839 64.7447 133.893C65.5416 130.905 63.3635 124.198 63.3139 115.536C63.2446 112.323 62.0438 108.649 60.1567 106.235C63.652 105.953 63.7071 106.414 63.9963 105.321C64.3352 104.233 63.652 103.028 62.8462 102.056C60.3241 99.1323 56.713 100.676 53.4947 99.64C51.3759 98.8987 48.111 97.8096 47.9355 94.8295C47.8214 92.8214 54.1331 92.3604 54.1331 92.3604C59.1766 92.7584 58.6008 95.6267 62.1004 95.9126C64.9698 96.1452 66.1752 93.1058 67.0965 91.2684C68.3869 88.5278 69.8763 82.8604 65.2387 82.9167L65.239 82.9171ZM124.409 93.6753C123.656 93.6601 122.894 93.766 122.163 94.0263C119.24 94.8299 118.315 97.5208 116.589 99.9277C114.935 102.451 112.177 104.232 109.883 105.152C108.445 108.475 110.92 116.34 113.27 119.95C114.587 122.648 120.032 129.184 118.89 139.107C123.19 132.857 126.627 126.201 128.063 122.185C130.591 116.796 131.736 108.245 131.506 102.452C131.164 99.6404 130.479 96.0889 127.894 94.6003C126.89 94.0619 125.663 93.7008 124.409 93.6753ZM75.4592 93.6764C74.2017 93.7019 72.9723 94.0623 71.9714 94.6003C69.3904 96.0885 68.7635 99.6411 68.3588 102.453C68.1907 108.245 69.2734 116.797 71.797 122.186C73.2896 126.202 76.7308 132.858 81.0281 139.108C79.8269 129.185 85.3339 122.648 86.597 119.95C88.951 116.34 91.4197 108.476 89.9845 105.153C87.6916 104.234 84.9347 102.452 83.2673 99.9289C81.6039 97.5219 80.6348 94.8299 77.7099 94.0263C76.9782 93.766 76.2139 93.6612 75.4592 93.6764ZM100.022 114.73V114.737C97.2811 114.799 95.7981 117.113 93.2512 119.779C88.8369 124.595 79.768 136.582 86.3674 142.263C89.2909 144.787 93.139 146.508 98.4131 144.898C99.7329 143.986 98.9849 141.289 98.3002 140.078C95.8318 136.87 91.99 138.136 90.8994 136.528C89.8634 134.981 90.5547 133.768 91.1842 132.974C92.1029 131.827 93.5911 132.111 94.8557 132.455C97.0956 132.961 98.6183 133.901 100.021 135.273V135.377C100.041 135.359 100.058 135.347 100.073 135.327C100.094 135.347 100.11 135.359 100.133 135.377V135.27C101.483 133.896 103.062 132.957 105.295 132.455C106.5 132.111 108.047 131.827 108.911 132.974C109.599 133.768 110.23 134.981 109.199 136.528C108.106 138.136 104.323 136.87 101.854 140.078C101.17 141.289 100.361 143.986 101.674 144.898C107.016 146.508 110.801 144.787 113.725 142.263C120.381 136.582 111.318 124.595 106.841 119.779C104.357 117.116 102.811 114.8 100.132 114.737V114.73C100.11 114.73 100.094 114.734 100.073 114.734L100.022 114.73ZM91.2512 146.505C90.8735 146.534 90.6132 146.795 90.6132 146.795C88.9136 150.421 98.6738 152.426 100.079 152.361C101.487 152.425 111.301 150.421 109.602 146.795C109.602 146.795 109.255 146.454 108.794 146.507C105.881 146.794 102.687 147.476 100.109 147.426C97.5315 147.476 94.3325 146.794 91.4205 146.507C91.3619 146.501 91.3053 146.5 91.2512 146.505Z" fill="white"/>
<path d="M125.158 97.8597C122.034 97.8046 116.851 104.544 118.204 109.962C118.89 110.189 119.24 109.795 120.844 107.159C122.042 105.147 124.971 105.547 126.289 104.745C128.53 103.307 128.467 100.211 126.348 98.3234C126.011 98.0142 125.605 97.8672 125.159 97.8594L125.158 97.8597ZM74.7049 97.8605C74.2583 97.8683 73.8543 98.0145 73.517 98.3234C71.4522 100.211 71.3415 103.309 73.5711 104.746C74.9478 105.548 77.8735 105.148 79.0185 107.16C80.6334 109.796 80.974 110.19 81.6646 109.963C83.021 104.546 77.8313 97.8053 74.7053 97.8609L74.7049 97.8605Z" fill="#1E4D2B"/>
</svg>
