<svg width="200" height="200" viewBox="0 0 200 200" fill="none" xmlns="http://www.w3.org/2000/svg">
<path d="M174.066 140.521L186.035 126.72L174.919 115.228L186.731 102.136L175.377 90.1859L186.851 77.6732L174.919 65.3059L196.473 41.5901L110.414 25.7872V70.919C108.624 70.6405 102.416 70.5382 100.106 70.488C97.3704 70.4297 92.219 70.8487 89.6282 71.1047L89.6345 25.668L3.52481 41.609L25.1027 65.3228L13.1526 77.6895L25.5481 90.1979L13.615 102.151L25.8919 115.244L13.4669 126.732L25.9358 140.537L1.3418 174.33L89.5467 160.34L89.6533 119.764C91.8056 119.164 98.0127 118.803 100.112 118.803C102.421 118.803 108.105 119.059 110.394 119.667L110.505 160.459L198.66 174.312L174.069 140.524" fill="#BCBEC0"/>
<path d="M167.781 140.132L179.374 126.845L167.386 114.876L179.374 102.136L167.95 90.2235L179.599 77.4278L167.725 65.2286L186.619 44.1224L115.364 30.7227V76.0734C111.796 75.7623 105.893 75.1626 100.111 75.1155C96.6394 75.0873 88.9662 75.7121 84.6391 76.0879V30.7408L13.3777 44.1362L32.272 65.2475L20.3972 77.4447L32.0443 90.2392L20.6242 102.15L32.6095 114.885L20.6242 126.863L32.2136 140.148L12.123 168.252L84.9402 156.315L85.0099 115.906C91.0633 114.701 97.4787 114.599 100.106 114.551C103.364 114.488 111.147 114.912 114.981 115.893L115.052 156.298L187.875 168.235L167.784 140.133" fill="#231F20"/>
<path d="M161.099 140.091L172.798 126.852L161.104 115.162C161.104 114.721 172.798 102.143 172.798 102.143L161.099 90.4428C161.099 90.0068 172.798 77.4344 172.798 77.4344L161.092 65.3005L177.446 47.2085L124.213 37.5625V82.4014C117.787 81.3551 105.685 80.2084 100.107 80.2673C93.7966 80.3338 84.4109 80.8244 75.7842 82.419L75.778 37.5794L22.5476 47.2242L38.9052 65.3168L27.1978 77.4445C27.1978 77.4445 38.8976 90.0143 38.8976 90.4534L27.1978 102.15C27.1978 102.15 38.8926 114.732 38.8926 115.169L27.1978 126.863L38.8951 140.101L22.1895 161.836L75.761 153.031L75.7943 111.616C81.7016 110.072 94.7959 109.064 100.105 109.189C104.626 109.291 117.831 110.229 124.201 111.599C124.209 115.47 124.297 152.994 124.297 152.994L177.802 161.815L161.096 140.085" fill="white"/>
<path d="M158.466 63.6482L171.796 49.0616L126.844 40.7109V85.2036C119.69 83.8461 105.209 82.8154 100.108 82.779C93.4838 82.732 82.0575 83.311 73.1567 85.2205L73.1535 40.7285L28.1992 49.0754L41.535 63.6645L41.5212 141.588L28.7205 158.075L73.0751 150.777L73.1717 109.476C80.1266 107.45 94.0621 106.527 100.107 106.565C106.527 106.602 119.76 107.776 126.826 109.458L126.923 150.765L171.279 158.058L158.48 141.567L158.466 63.6501" fill="#005838"/>
<path d="M152.374 68.7036L141.477 79.9104L152.271 91.0117L141.477 102.112L152.361 113.309L141.477 124.505L152.374 135.715V113.323V113.295V91.1184V90.9065V68.7036ZM47.6211 68.7168V90.9208V91.1364V113.312V113.34V135.726L58.518 124.522L47.6349 113.331L58.518 102.134L47.7265 91.0303L58.518 79.9283L47.6211 68.7203V68.7168Z" fill="white"/>
</svg>
