<svg width="200" height="200" viewBox="0 0 200 200" fill="none" xmlns="http://www.w3.org/2000/svg">
<g clip-path="url(#clip0_107_20232)">
<path d="M98.3141 36.2938C94.9746 36.3253 91.6342 36.4543 88.3068 36.6777V41.6455C89.1463 41.6963 89.7318 41.8414 90.0762 42.0801C90.4149 42.3164 90.5899 42.6914 90.5899 43.2011C90.5899 43.4705 90.5778 43.6939 90.5592 43.8672C90.5415 44.0455 90.5173 44.2076 90.4754 44.3584C89.0254 50.1318 87.5818 55.9197 86.1383 61.7238C84.556 56.0915 82.9802 50.4818 81.4092 44.8882C81.3487 44.7221 81.3068 44.5608 81.2769 44.4108C81.2527 44.2576 81.2342 44.0947 81.2342 43.918C81.2342 43.4487 81.4092 43.0656 81.7479 42.7745C82.0923 42.4842 82.66 42.235 83.4568 42.0374V37.0721C78.4584 37.5495 73.4753 38.2438 68.5285 39.1495V44.1172C69.2833 44.1672 69.8511 44.3422 70.2261 44.6301C70.6003 44.9221 70.9204 45.5043 71.1858 46.3761C73.4027 53.681 75.6253 61.0278 77.8479 68.4198C82.8189 67.7827 87.8133 67.3625 92.8141 67.1552C94.9343 59.3778 97.0601 51.6366 99.1859 43.9374C99.4157 43.1672 99.7238 42.5769 100.104 42.1592C100.484 41.7422 100.998 41.4414 101.644 41.2592V36.293C100.533 36.2825 99.4214 36.2825 98.3101 36.293L98.3141 36.2938ZM109.5 36.5462C107.453 43.8737 105.4 51.2415 103.352 58.6423C103.032 59.8205 102.681 60.6109 102.313 61.0165C101.938 61.4238 101.413 61.6963 100.725 61.8415V67.0101C105.175 67.0262 109.627 67.2181 114.066 67.5786V62.4068C113.245 62.3157 112.653 62.1391 112.278 61.8705C111.909 61.6012 111.722 61.2117 111.722 60.7004C111.722 60.5794 111.734 60.4496 111.753 60.3084C111.777 60.1681 111.801 59.9907 111.838 59.7778C111.964 59.398 112.085 59.0165 112.212 58.635C115.008 58.8302 117.799 59.0955 120.588 59.4286C120.709 59.8721 120.83 60.3165 120.957 60.7641C120.993 60.9415 121.024 61.1117 121.042 61.2689C121.06 61.4254 121.072 61.5576 121.072 61.6633C121.072 62.0826 120.872 62.3931 120.486 62.6028C120.093 62.8141 119.568 62.8996 118.909 62.8681V68.0351C123.82 68.5722 128.718 69.3173 133.58 70.2762V65.106C132.922 64.8318 132.414 64.4746 132.058 64.0383C131.701 63.5996 131.382 62.8931 131.098 61.9125C128.872 53.8971 126.638 45.9293 124.388 38.0019C119.453 37.3035 114.478 36.8164 109.502 36.5462H109.5ZM65.1261 39.8116C55.0704 41.8656 45.159 44.8213 35.5155 48.6721V53.6366C36.3251 53.4479 36.8784 53.4834 37.1784 53.7391C37.4743 53.9939 37.6235 54.7495 37.6235 55.9995V70.2085C37.6235 71.4609 37.4743 72.3286 37.1784 72.8125C36.8784 73.3012 36.3251 73.769 35.5155 74.2262V79.3932C45.159 75.5432 55.0704 72.5875 65.1261 70.5343V60.2391C62.0277 60.8713 58.9486 61.5891 55.8841 62.3907V63.502C55.8841 64.7802 55.5639 65.7351 54.9228 66.3706C54.2833 67.0077 53.1397 67.548 51.4938 68.0238C50.0728 68.4367 48.655 68.8673 47.2413 69.3173V61.931C51.0599 60.7173 54.9107 59.6334 58.7849 58.6915V53.5221C54.9115 54.4673 51.0599 55.5479 47.2413 56.7617V50.3471C48.4349 49.964 49.6325 49.5987 50.8308 49.2455C52.7139 48.6898 54.0292 48.5713 54.7712 48.8406C55.5123 49.1148 55.8841 49.8447 55.8841 51.0261V51.3503C58.9486 50.5487 62.0285 49.8294 65.1261 49.1971V39.81V39.8116ZM137.041 40.2705V45.2342C137.887 45.5535 138.46 45.9358 138.768 46.3785C139.076 46.8173 139.227 47.6624 139.227 48.9157V63.1238C139.227 64.3746 139.076 65.1528 138.768 65.4496C138.46 65.7496 137.887 65.8738 137.041 65.823V70.9915C141.776 72.0214 146.481 73.2528 151.131 74.6819C157.57 76.6722 161.804 77.5343 163.948 76.7561C166.092 75.9924 167.156 73.3278 167.156 68.698V61.348C167.156 56.9536 166.038 53.4399 163.785 50.8866C161.532 48.3447 157.353 45.8802 151.131 43.96C146.481 42.5293 141.776 41.3003 137.041 40.2705ZM116.228 42.8358C117.219 46.8455 118.203 50.8624 119.194 54.8858C117.231 54.6697 115.262 54.4834 113.293 54.3334C114.277 50.4947 115.25 46.6592 116.228 42.8358ZM149.03 49.406C149.966 49.6673 150.897 49.9326 151.826 50.2092C152.008 50.2689 152.189 50.3269 152.376 50.3834C154.393 51.0245 155.771 51.8076 156.507 52.6955C157.25 53.581 157.613 55.0528 157.613 57.0963V66.3633C157.613 68.1254 157.232 69.1464 156.465 69.4351C155.698 69.7254 154.176 69.477 151.881 68.7569C150.933 68.4625 149.984 68.173 149.03 67.8964V49.406ZM30.3574 50.8302C26.0549 52.7092 21.8138 54.7721 17.6412 57.0165V61.9818C18.4202 61.6713 18.9686 61.6544 19.2888 61.9246C19.6138 62.1939 19.7735 62.8746 19.7735 63.9617V73.1682C16.4452 69.1399 13.1597 65.2278 9.92504 61.4278C6.56293 63.4665 3.25485 65.6246 0.000806444 67.9109C0.0112904 69.5601 0.017742 71.2093 0.0250001 72.8593C0.729842 72.5012 1.22178 72.4085 1.50081 72.5803C1.77985 72.7528 1.91936 73.2875 1.91936 74.1916V89.0263C1.91936 90.2392 1.78227 91.132 1.51372 91.7078C1.24033 92.2844 0.745164 92.8626 0.0250001 93.4465C0.017742 95.1747 0.0112904 96.9013 0 98.6352C3.90566 95.8884 7.89681 93.3223 11.9589 90.9336C11.9509 89.2174 11.9428 87.4989 11.9355 85.7827C11.167 86.1384 10.6436 86.1981 10.3573 85.9537C10.0678 85.7093 9.92585 85.0166 9.92585 83.873V74.7077C13.1597 78.5609 16.4452 82.5279 19.7735 86.6102C22.5428 85.1698 25.3428 83.8061 28.1727 82.523V60.1996C28.1727 58.881 28.3251 57.9536 28.638 57.427C28.9477 56.8955 29.5187 56.3496 30.3574 55.7931V50.8302ZM178.481 54.9899C176.602 61.4826 174.712 68.0133 172.81 74.5762C172.514 75.6214 172.187 76.2706 171.843 76.5254C171.498 76.7795 171.003 76.8367 170.363 76.698V81.8674C174.518 83.7053 178.614 85.7126 182.642 87.8908V82.7238C181.899 82.2972 181.361 81.8738 181.023 81.4561C180.685 81.0343 180.516 80.5722 180.516 80.0577C180.516 79.9367 180.522 79.8109 180.54 79.6787C180.558 79.5472 180.582 79.3819 180.618 79.1851C180.733 78.8545 180.842 78.5238 180.956 78.1932C183.506 79.5343 186.03 80.944 188.524 82.4198C188.633 82.9166 188.742 83.4118 188.856 83.9077C188.887 84.1037 188.917 84.2851 188.929 84.4489C188.948 84.611 188.96 84.7497 188.96 84.8553C188.96 85.2722 188.784 85.5061 188.434 85.5561C188.089 85.6053 187.618 85.4763 187.021 85.1714V90.3376C191.435 92.8932 195.766 95.6586 200 98.6352V93.4634C199.426 92.9142 198.985 92.3505 198.671 91.7618C198.363 91.1787 198.079 90.3368 197.831 89.2408C195.881 80.3037 193.912 71.4101 191.919 62.5593C187.528 59.823 183.04 57.3012 178.481 54.9899ZM184.605 64.0415C185.498 68.4544 186.386 72.8746 187.274 77.3069C185.51 76.2819 183.735 75.2908 181.941 74.3327C182.835 70.8932 183.723 67.4625 184.605 64.0415ZM113.916 78.6972C113.094 78.8158 110.968 78.7811 111.373 81.6045C111.554 82.8859 111.79 85.4577 112.128 86.9481C112.128 86.9481 90.0947 87.0005 79.1084 85.1714L82.2794 88.1868C82.2794 88.1868 58.0978 91.3142 47.9155 90.6045L51.7349 93.8691C51.7349 93.8691 38.8727 97.3247 16.7493 100.103C16.7493 100.103 31.7437 101.83 40.2655 107.749C71.3648 101.117 102.009 101.855 102.009 101.855C102.009 101.855 76.5947 105.055 57.9986 110.056C57.9986 110.056 62.2011 110.643 63.7172 112.201C63.7172 112.201 38.4735 117.939 13.8501 128.677C13.8501 128.677 27.9412 129.384 40.0776 131.389L41.4389 131.637C71.285 120.058 98.856 118 98.856 118C73.2785 122.909 52.6736 133.854 52.6736 133.854C57.4026 135.001 58.6873 135.327 63.2462 136.789C63.2462 136.789 90.1415 123.767 116.184 121.635C116.184 121.635 112.73 123.689 111.872 127.252C111.872 127.252 122.055 124.022 132.631 124.649C132.631 124.649 122.055 126.383 113.527 130.967C108.955 133.425 102.167 139.169 102.167 139.169C102.167 139.169 102.167 133.648 104.377 130.013C104.377 130.013 89.8576 132.761 78.2124 143.143C78.2124 143.143 92.8463 150.717 95.8367 161.92C95.8367 161.92 96.1085 163.171 96.1326 163.443L96.1568 163.714C116.994 130.568 169.364 141.893 169.364 141.893C169.364 141.893 171.14 142.152 174.244 140.214C174.244 140.214 175.114 139.634 175.09 138.915C175.085 138.673 174.77 138.48 174.317 138.335C174.474 137.351 174.474 136.741 174.419 136.572C174.341 136.318 174.208 136.523 174.208 136.523C173.864 137.085 173.501 137.604 173.152 138.069C172.801 138.015 172.444 137.967 172.101 137.936C172.288 136.65 172.342 135.557 172.288 135.388C172.209 135.134 172.077 135.346 172.077 135.346C171.49 136.293 170.862 137.121 170.306 137.78C169.183 137.429 168.459 137.103 167.933 136.783C168.09 135.901 168.114 134.965 168.168 133.884C168.181 133.672 168.217 133.643 168.168 133.6C168.09 133.522 167.879 133.745 167.879 133.745C167.389 134.349 166.828 134.898 166.308 135.351C165.94 134.995 165.48 134.602 164.732 134.156C165.016 132.875 165.022 132.44 164.919 131.081C164.901 130.876 164.883 130.731 164.774 130.725C164.653 130.707 164.442 130.979 164.442 130.979C163.651 131.806 162.685 132.447 161.954 132.869C161.476 132.706 161.018 132.567 160.552 132.452C160.54 132.331 160.535 132.211 160.522 132.084C160.353 130.586 160.009 129.698 159.834 129.601C159.659 129.505 159.405 129.861 159.405 129.861C158.849 130.707 157.973 131.431 157.146 131.981C156.137 131.939 155.153 131.969 154.186 132.018C154.186 132.018 153.226 132.006 152.936 131.455C152.079 129.849 153.848 128.122 153.848 128.122C155.11 127.071 157.835 125.114 161.772 124.843C161.899 125.175 162.068 125.531 162.304 125.996C162.304 125.996 162.66 126.781 162.865 126.83C163.071 126.872 163.808 126.473 164.629 125.525C164.762 125.374 164.883 125.193 164.997 125.005C165.529 125.09 166.079 125.217 166.647 125.374C166.526 125.833 166.38 126.328 166.181 126.842C166.181 126.842 165.94 127.379 166.296 127.282C166.55 127.216 167.401 126.799 168.404 125.972C168.779 126.117 169.159 126.28 169.546 126.461C169.425 126.993 169.256 127.578 169.026 128.182C169.026 128.182 168.785 128.72 169.135 128.623C169.389 128.557 170.228 128.152 171.218 127.337C171.243 127.349 171.267 127.361 171.291 127.379C171.841 127.699 172.378 127.971 172.892 128.206C172.499 129.831 171.992 131.564 171.388 132.857C171.388 132.857 171.321 132.99 171.412 133.044C171.502 133.099 171.617 132.996 171.617 132.996C171.75 133.001 173.598 131.293 175.199 129.028C175.947 129.215 176.648 129.324 177.301 129.366C177.18 129.97 176.993 130.725 176.727 131.414C176.727 131.414 176.678 131.571 176.745 131.589C176.847 131.607 177.76 130.979 179.131 129.324C181.16 129.094 182.477 128.303 182.923 128.026C183.582 127.609 183.679 127.482 183.679 127.482C184.089 127.126 184.391 126.726 184.76 126.171C187.477 122.106 184.119 120.614 184.119 120.614C182.229 119.757 180.344 119.141 180.344 119.141C177.162 117.685 168.482 114.381 164.599 109.556C159.169 102.804 156.385 101.191 156.385 101.191C151.179 98.1892 142.029 93.1142 137.565 91.4142C137.142 91.2263 136.563 90.957 136.134 90.7803C120.829 84.2714 114.734 78.5763 113.913 78.698L113.916 78.6972ZM112.714 89.8489C113.65 89.8779 114.767 90.3916 114.767 90.3916C114.767 90.3916 122.209 93.6537 127.994 97.4094C127.994 97.4094 128.688 97.8804 128.38 98.2667C128.236 98.4481 127.855 98.5449 127.855 98.5449C125.409 99.3659 120.118 99.0699 120.118 99.0699C120.118 99.0699 121.743 101.649 124.008 102.863C124.008 102.863 121.586 103.395 120.638 103.34C120.638 103.34 122.896 104.458 120.257 105.756C120.257 105.756 119.188 106.481 118.216 105.237C117.243 103.998 112.774 99.4021 111.488 92.4118C111.488 92.4118 111.077 90.5158 111.886 90.019C112.109 89.8836 112.4 89.8392 112.714 89.8489ZM153.126 106.904C153.283 106.88 153.422 107.006 153.422 107.006L169.632 117.757C158.102 111.457 155.874 115.371 155.874 115.371C155.874 115.371 155.765 115.45 155.699 115.371C155.633 115.293 155.711 115.376 155.687 115.159C155.24 111.415 152.993 107.477 152.993 107.477C152.993 107.477 152.776 107.205 152.975 106.994C153.023 106.939 153.078 106.91 153.126 106.904ZM157.227 111.107C157.227 111.107 158.114 112.297 157.922 113.258C157.922 113.258 159.637 113.934 160.283 112.865C160.283 112.865 158.755 111.584 157.227 111.107ZM180.298 120.566C180.872 120.547 181.41 120.626 181.76 120.753C182.684 121.103 185.384 122.082 184.26 124.48C183.137 126.877 182.02 127.149 182.02 127.149C182.02 127.149 181.477 127.258 181.265 127.005C181.053 126.744 180.969 126.527 181.168 126.406C181.368 126.292 182.884 125.603 182.962 124.697C183.04 123.791 182.497 123.531 182.292 123.526C182.086 123.52 181.555 123.658 181.821 124.329C182.086 124.993 181.464 125.446 181.464 125.446C181.464 125.446 181.011 125.814 180.715 125.501C180.414 125.193 178.704 123.822 178.39 123.616C178.39 123.616 177.357 122.879 177.943 121.659C178.306 120.892 179.344 120.602 180.298 120.566ZM160.863 121.345C161.721 121.315 162.578 121.472 163.393 121.774C164.016 122.003 165.29 122.517 165.514 123.23C165.519 123.247 165.519 123.259 165.508 123.278C165.357 123.447 163.775 123.018 163.702 123C162.802 122.837 161.884 122.806 160.972 122.897C160.048 122.988 159.142 123.205 158.26 123.501C157.632 123.718 156.78 124.329 156.104 124.177C156.098 123.706 156.72 123.133 157.101 122.83C157.765 122.293 158.514 121.859 159.335 121.599C159.837 121.442 160.349 121.357 160.863 121.345Z" fill="#16457C"/>
</g>
<defs>
<clipPath id="clip0_107_20232">
<rect width="200" height="200" fill="white"/>
</clipPath>
</defs>
</svg>
