<svg width="200" height="200" viewBox="0 0 200 200" fill="none" xmlns="http://www.w3.org/2000/svg">
<g clip-path="url(#clip0_107_20218)">
<path d="M196.455 154.131H191.493L191.918 152.007L196.732 151.979L200 133.26H196.256C196.928 132.679 197.474 131.929 197.861 131.047C198.55 129.442 198.569 127.659 197.938 126.129C197.685 123.871 196.17 121.895 194.135 121.122C192.81 119.793 190.926 119.028 188.92 119.028C188.534 119.028 188.143 119.057 187.772 119.115C187.281 119.193 186.695 119.366 186.138 119.651L179.422 118.436C178.25 117.552 176.971 117.338 176.288 117.225L167.136 115.74L166.977 115.723C166.404 115.66 165.871 115.68 165.343 115.771C164.192 115.155 163.011 114.981 161.896 114.903L161.477 114.876L161.07 114.976C160.443 115.132 159.661 115.46 158.337 116.132C155.678 115.475 153.018 114.815 150.508 114.2C150.805 110.635 150.762 105.806 149.588 100.206C150.158 96.2241 149.823 93.1786 149.37 90.4747C148.746 86.8052 146.473 83.1803 143.293 80.7884C141.674 79.5672 139.624 78.4708 137.069 77.4606C136.644 76.9228 136.045 76.5083 135.315 76.2691C134.296 75.9259 133.28 75.6035 132.285 75.3064C131.545 73.7465 130.205 72.1866 127.427 72.3203H127.421C127.121 72.3203 127.068 72.3146 126.194 71.1852C126.138 71.1147 126.081 71.0422 126.022 70.9654C126.292 68.5884 126.689 64.4286 126.897 60.1648C134.741 55.2028 138.945 48.7106 139.435 45.5165C139.545 44.8004 139.887 42.6195 138.507 41.015C137.951 40.3687 136.932 39.5977 135.179 39.5977C134.548 39.5977 133.855 39.698 133.055 39.9067C131.719 40.2543 130.068 41.2467 128.167 42.3877C127.335 42.8899 126.458 43.4187 125.612 43.8882C125.35 42.973 125.142 42.2243 124.956 41.5706C124.734 40.7624 124.542 40.0894 124.341 39.4016C124.302 39.2753 118.072 26.4914 113.868 26.4766C112.248 26.4766 111.283 27.4185 110.703 27.9771C110.237 28.4257 110.079 28.5802 109.442 28.6426C109.21 28.6426 108.76 28.4287 108.242 28.1821C106.976 27.5804 105.241 26.7544 102.433 26.7544L102.174 26.7562C97.8065 26.8323 87.9121 38.3145 87.3327 39.8298L87.098 40.4374C86.6984 41.4833 86.1947 42.7996 85.5975 44.3892C83.1314 43.1101 80.5612 41.9825 78.2585 41.5517C74.069 40.7643 68.8098 43.3641 68.7504 48.2073C68.6743 53.6447 73.8016 60.7015 83.7553 64.1036L84.0539 64.6919C84.1003 64.8201 84.1208 64.9608 84.1505 65.1079C84.2508 65.5818 84.3852 66.2251 84.715 66.9204C84.7039 67.5666 84.7225 68.3495 84.7522 69.1785C81.5135 69.0003 78.0668 68.8457 74.4122 68.8963C73.5594 68.9037 72.9295 69.1518 72.4808 69.4459C69.1085 69.6658 64.8001 70.269 60.3135 72.5063C59.6613 72.6787 59.0418 72.8347 58.4416 72.9892C55.1138 73.8375 52.2465 74.564 48.5027 76.3764C43.6595 78.7089 40.718 81.0413 38.133 83.1063C37.0262 83.9888 35.9788 84.8148 34.9091 85.5428C31.403 87.8901 27.7187 91.2476 27.0799 98.2004C26.701 102.226 27.6474 106.134 29.8283 109.491C31.2337 111.66 33.5869 114.453 35.86 117.142C36.989 118.479 38.0587 119.757 38.9946 120.916L39.0484 121.819L41.3363 124.226C42.9705 125.934 44.6493 127.702 45.6446 128.831C45.8601 129.076 46.0992 129.271 46.3414 129.424C46.4509 129.604 46.5613 129.789 46.6742 129.974C46.8242 130.473 47.0812 131.32 47.3427 132.172C47.4653 132.574 47.5878 132.978 47.7008 133.353H7.29149L4.05281 151.181H5.895L5.08087 155.697H3.23868L0 173.525H91.0694C93.0602 173.525 94.8429 173.356 96.4474 172.84L96.3006 173.525H193.015L196.432 154.212L196.455 154.131Z" fill="white"/>
<path d="M114.446 29.0117C113.18 29.0043 112.931 30.8985 110.361 31.1511C108.117 31.3977 106.988 29.2049 102.799 29.2792C100.14 29.3274 90.8543 39.4558 90.4086 40.6443C89.7817 42.2785 88.8338 44.7149 87.6305 48.0724C84.7483 46.4382 81.168 44.5515 78.3453 44.0315C75.5523 43.5086 72.0313 45.1368 71.9867 48.1021C71.9273 52.3213 76.4288 58.7987 86.234 61.6957C86.5073 62.2543 86.8119 62.8367 87.0555 63.3299C87.4418 64.0861 87.32 65.1127 88.0138 66.0635C87.9117 67.1465 88.0776 70.1044 88.0776 70.3124C87.6171 70.7432 87.213 71.2008 86.8624 71.7222C83.1186 71.5157 79.3005 71.2929 75.0516 71.3538C74.6817 71.3575 74.3756 71.4522 74.3846 71.8381C74.2167 71.8438 74.0488 71.8519 73.8824 71.8613C70.406 72.0515 66.2314 72.5729 61.8785 74.8029C57.5404 75.9542 54.5246 76.5262 50.2757 78.5615C43.5755 81.7705 40.6785 85.0686 37.009 87.5347C33.6366 89.7929 30.8733 92.571 30.3385 98.2313C29.9507 102.361 31.218 105.57 32.6709 107.814C34.7657 111.052 39.3414 116.029 42.2235 119.714C42.231 119.933 42.2434 120.223 42.2583 120.468C44.1896 122.518 46.8489 125.267 48.2603 126.842C48.3903 126.99 48.648 127.085 48.8263 127.122C49.1175 127.628 49.4265 128.13 49.7459 128.653C49.9494 129.351 51.1246 133.199 51.3355 133.897C51.5599 134.586 51.9313 135.21 52.3859 135.799H26.9815L26.0931 141.147L24.4589 135.799H10.1374L7.86438 148.367H9.70656L7.9238 158.217H6.08161L3.80859 170.785H19.4078L20.2427 165.6L21.8472 170.785H47.103L48.1622 164.754L50.6135 171.335L54.4464 166.031L53.5877 170.785H91.7686C97.1317 170.785 99.7761 169.416 101.797 163.892L100.314 170.785H191.532L194.057 156.999H188.828L190.247 149.229H195.031L197.512 135.799H172.701C172.92 135.457 173.125 135.085 173.296 134.655C175.123 134.536 176.252 133.768 176.876 132.515C177.54 131.823 178.139 130.955 178.629 130.005C179.112 129.915 179.632 129.697 180.017 129.401L187.876 130.832L188.293 132.466L192.007 132.238L194.043 131.707C196.048 131.211 196.984 128.483 195.959 126.686C195.968 125.096 194.779 123.581 193.285 123.343C192.324 122.025 190.507 121.352 188.828 121.62C188.357 121.692 187.706 121.957 187.391 122.339L178.834 120.794C178.198 120.078 177.398 119.876 176.487 119.723L167.335 118.237C166.648 118.166 166.061 118.288 165.523 118.571C164.6 117.729 163.621 117.509 162.329 117.423C161.708 117.579 160.487 118.192 159.283 118.827C155.48 117.883 151.632 116.925 148.215 116.108C148.827 111.8 148.842 106.288 147.496 100.212C148.138 96.1707 147.758 93.244 147.357 90.8522C146.749 87.2718 144.415 84.4491 142.306 82.8595C140.701 81.6457 138.577 80.5567 135.739 79.5019C135.741 79.184 135.574 78.8913 135.087 78.7294C132.309 77.7934 129.486 77.0061 126.886 76.3227C127.761 76.0419 128.654 75.4179 129.397 74.7627C126.143 75.4298 125.698 73.8476 123.87 71.7023C123.884 71.5928 123.895 71.4869 123.908 71.3948C124.241 68.6761 124.739 63.417 124.921 58.5589C133.048 53.8198 137.059 47.387 137.43 45.0397C137.869 42.217 136.511 41.8604 134.37 42.4101C132.335 42.9449 127.7 46.4956 124.535 47.5355C123.359 43.4946 122.916 41.8307 122.411 40.0776C122.131 39.1239 116.141 29.0839 114.507 29.0691L114.446 29.0117ZM96.3214 54.4161C96.99 54.6003 97.7655 54.7994 98.7282 55.0371C99.2541 55.1619 99.7726 55.2792 100.288 55.3936C100.405 55.4204 100.518 55.4439 100.633 55.4691C101.673 55.692 102.698 55.894 103.693 56.0663C103.788 56.0856 103.883 56.0978 103.977 56.1157C104.987 56.2865 105.983 56.4276 106.948 56.545C107.036 56.5554 107.126 56.5665 107.21 56.574C108.181 56.6854 109.141 56.7686 110.062 56.8236C110.145 56.825 110.228 56.8322 110.312 56.8381C111.24 56.8857 112.154 56.9036 113.045 56.8932C113.128 56.8918 113.213 56.892 113.295 56.8903C116.637 56.8294 119.728 56.3346 122.535 55.3452C122.535 55.4626 122.533 55.5889 122.53 55.7255C120.732 55.6512 118.013 57.6569 116.394 59.6476C116.272 59.7947 116.161 59.9432 116.052 60.0918C116.081 60.074 116.107 60.0573 116.136 60.0395L119.94 61.4375L120.775 59.6993C121.248 59.6666 121.415 59.6463 121.996 59.7399C121.312 58.7356 120.944 58.3166 120.466 58.0462C121.134 57.8501 121.816 57.7149 122.486 57.6719C122.474 58.1042 122.46 58.5246 122.445 58.899C122.349 61.0532 121.994 66.4014 121.636 69.551C121.044 69.1023 120.36 68.6552 119.541 68.2169C119.204 68.0386 118.893 67.9302 118.604 67.8797C118.954 67.581 118.96 67.0016 118.896 66.29C118.798 65.2144 117.919 63.7793 117.381 63.8833C117.345 63.8907 117.312 63.9031 117.276 63.9239C116.568 62.4382 116.055 61.532 115.241 60.1503C115.323 60.0374 115.4 59.929 115.476 59.825C115.483 59.8161 115.493 59.8021 115.502 59.7902C115.575 59.6892 115.643 59.6001 115.714 59.5065C115.722 59.4961 115.735 59.4821 115.743 59.4687C115.815 59.3751 115.884 59.289 115.956 59.2013C115.965 59.1894 115.977 59.1799 115.988 59.1666C116.061 59.0789 116.136 58.9913 116.217 58.9021C116.22 58.9006 116.221 58.8948 116.222 58.8933C116.668 58.4031 117.255 57.8683 118.347 56.962C117.274 57.5444 116.534 57.9827 115.985 58.3689C115.921 58.415 115.854 58.4622 115.79 58.5083C115.759 58.5291 115.73 58.5527 115.7 58.575C115.635 58.6225 115.572 58.6668 115.514 58.7114C115.491 58.7307 115.468 58.7501 115.445 58.7665C115.372 58.8244 115.304 58.8812 115.232 58.9373C115.228 58.9418 115.219 58.9445 115.215 58.9489C115.059 59.0796 114.91 59.2104 114.768 59.3441C114.76 59.3471 114.753 59.3542 114.747 59.3586C114.68 59.421 114.615 59.4805 114.55 59.5444C114.545 59.5488 114.538 59.5573 114.535 59.5617C114.391 59.6954 114.25 59.841 114.094 59.9911C115.333 62.1453 115.832 63.3635 116.501 65.2948C116.799 63.7497 118.61 67.8947 116.608 67.2707C116.636 67.8308 116.326 68.5067 115.369 68.6523C115.206 68.6761 115.042 68.6942 114.891 68.7046C114.839 68.7106 114.79 68.7089 114.739 68.7134C114.638 68.7149 114.54 68.7192 114.444 68.7192C114.389 68.7192 114.333 68.7194 114.282 68.7162C114.194 68.7132 114.114 68.7063 114.032 68.6988C113.979 68.6929 113.926 68.6902 113.876 68.6843C113.799 68.6754 113.72 68.6614 113.644 68.6495C113.6 68.6421 113.555 68.6353 113.508 68.6234C113.432 68.6085 113.355 68.5889 113.282 68.5711C113.245 68.5592 113.206 68.5525 113.169 68.5391C113.074 68.5139 112.985 68.4833 112.895 68.4521C112.885 68.4506 112.874 68.4435 112.864 68.4405C112.767 68.4033 112.672 68.3674 112.584 68.3273C112.552 68.3124 112.52 68.2973 112.489 68.2809C112.434 68.2542 112.378 68.2309 112.327 68.2026C112.294 68.1833 112.262 68.1652 112.231 68.1503C112.182 68.1236 112.139 68.0986 112.095 68.0749C112.063 68.0541 112.031 68.0346 112.002 68.0168C111.962 67.993 111.921 67.9695 111.883 67.9443C111.85 67.922 111.822 67.904 111.793 67.8862C111.761 67.8654 111.732 67.8459 111.703 67.8281C111.557 67.7271 111.425 67.6409 111.316 67.5726C111.306 67.5681 111.299 67.564 111.29 67.558C111.151 67.4808 111.039 67.4314 110.937 67.4448C108.203 68.7522 109.83 63.285 112.268 65.7066C112.289 65.1436 111.911 64.579 111.421 64.3889C111.384 63.8109 111.46 62.9938 111.58 62.1604C110.999 62.9864 110.665 63.7055 110.408 64.2997C109.656 64.27 108.239 65.5313 108.179 67.0481C108.17 67.3943 108.202 67.6795 108.266 67.9158C108.176 67.9336 108.079 67.9514 107.983 67.9767C103.035 68.7091 101.773 74.558 94.7159 72.8793C97.4346 75.3306 100.584 75.6425 102.753 75.5683C103.193 75.5593 103.593 75.5286 103.955 75.49C104.747 76.5611 105.842 76.6859 106.243 76.7171C108.457 76.9206 109.125 74.8155 114.206 74.2955V74.2925C114.243 74.2896 114.284 74.2897 114.316 74.2838C114.493 74.2659 114.677 74.2508 114.864 74.2374C114.912 74.233 114.958 74.2288 115.004 74.2258C115.243 74.211 115.494 74.1985 115.752 74.1911C116.155 74.2921 116.565 74.408 116.98 74.5253C117.204 74.5877 117.433 74.6528 117.662 74.7229C117.788 74.7571 117.91 74.7917 118.036 74.8274C118.993 75.1052 119.967 75.3934 120.933 75.646C120.511 79.0035 120.107 81.5885 119.388 82.8364C118.953 83.3594 117.887 83.5555 116.535 83.658C116.516 83.658 116.492 83.6608 116.472 83.6638C116.277 83.6772 116.079 83.6881 115.871 83.6985C115.856 83.7 115.834 83.7014 115.819 83.7043C115.29 83.7311 114.733 83.7488 114.155 83.771C113.972 83.777 113.79 83.7825 113.607 83.7914C111.052 83.8969 107.412 83.7835 106.134 83.4987C105.899 83.4408 105.579 83.3472 105.203 83.2283C105.127 83.2046 105.055 83.1826 104.977 83.1558C103.571 82.6908 101.471 81.8485 99.4949 80.7194C97.2962 79.4744 95.2014 78.2087 92.8987 76.0842C92.1232 75.3711 91.1605 69.2652 90.9971 68.3886C90.6702 71.2262 91.0817 75.9802 91.7369 76.7379C93.0443 78.2978 95.4956 80.2737 98.2886 82.0713C101.602 84.1809 104.112 85.1317 105.152 85.4437C105.561 85.57 106.418 85.729 107.529 85.8701C107.534 85.8701 107.541 85.8714 107.544 85.8731C107.74 85.8983 107.942 85.919 108.15 85.9427C108.192 85.9457 108.237 85.9514 108.281 85.9573C108.456 85.9766 108.639 85.9947 108.829 86.0096C108.888 86.0155 108.946 86.0182 109.005 86.0242C109.193 86.039 109.384 86.0558 109.577 86.0677C109.634 86.0736 109.686 86.0808 109.745 86.0822C109.979 86.0986 110.222 86.1124 110.467 86.1228C110.562 86.1287 110.66 86.1359 110.757 86.1374C110.91 86.1448 111.06 86.1488 111.216 86.1547C111.336 86.1562 111.457 86.1605 111.576 86.1635C111.717 86.1665 111.855 86.1678 111.993 86.1693C112.115 86.1723 112.238 86.1751 112.365 86.1751C112.513 86.1751 112.66 86.1708 112.809 86.1693C112.92 86.1693 113.036 86.1663 113.146 86.1663C113.403 86.1559 113.664 86.1507 113.92 86.1374C114.251 86.121 115.212 86.0901 115.495 86.0649C115.374 86.2981 115.22 86.5938 114.88 87.2667C114.418 87.503 113.349 87.7852 112.919 87.8149C112.602 87.8343 112.293 87.8481 111.984 87.8555C111.883 87.8585 111.784 87.8598 111.686 87.8613C111.472 87.8657 111.253 87.8671 111.044 87.8671C110.932 87.8671 110.825 87.8613 110.715 87.8613C110.497 87.8568 110.277 87.8484 110.06 87.8409C109.97 87.835 109.881 87.8323 109.787 87.8294C109.499 87.8145 109.216 87.795 108.928 87.7713C108.817 87.7594 108.702 87.7499 108.591 87.7365C108.408 87.7187 108.227 87.7022 108.043 87.6814C107.914 87.6665 107.783 87.6484 107.654 87.6291C107.487 87.6083 107.322 87.5833 107.157 87.5566C107.028 87.5388 106.902 87.5223 106.777 87.5015C106.755 87.4955 106.737 87.4943 106.716 87.4899V87.4869C98.456 86.0741 92.0083 80.8758 90.3741 74.7105C90.0206 73.4358 89.8527 69.2285 89.9938 67.6091C90.5138 67.9716 91.059 68.1543 91.4735 67.9835C92.3129 67.6373 92.3129 66.2453 91.7201 65.2202C91.7588 66.1591 91.6383 66.9138 91.169 66.9584C90.4113 66.9792 88.9256 66.2186 88.4948 63.7346C88.2913 62.5075 86.7418 60.4068 86.8755 58.2823C86.9171 57.3657 87.3241 56.2173 88.4057 56.351C89.6298 56.4713 90.649 58.9806 91.8821 62.8432C92.6977 63.2934 93.8431 63.9262 94.9128 64.5071C94.6632 62.5015 94.5666 58.2823 96.073 54.9991H96.0701C96.1622 54.7955 96.2602 54.5994 96.3657 54.4048L96.3214 54.4161ZM99.7384 55.7457C99.6805 55.8646 99.6305 55.9909 99.5869 56.1171C99.5765 56.1469 99.5638 56.1788 99.5549 56.21C99.5133 56.3348 99.4774 56.4611 99.4447 56.5963C99.3303 57.0939 99.2724 57.6644 99.2189 58.3493C100.584 58.0403 102.101 58.1175 103.557 58.3899C102.866 58.6588 102.348 59.0733 101.388 60.0983C102.196 60.0033 102.429 60.0236 103.082 60.0548L104.245 61.793L109.548 60.3921C109.444 60.2702 109.327 60.1499 109.211 60.0266C109.152 59.9627 109.085 59.9005 109.023 59.8349C108.945 59.7607 108.874 59.6873 108.794 59.6121C108.73 59.5497 108.658 59.4888 108.587 59.4234C108.506 59.3506 108.422 59.2772 108.338 59.2035C108.263 59.1412 108.192 59.0802 108.115 59.0208C108.024 58.9436 107.931 58.8693 107.836 58.795C107.761 58.7385 107.681 58.6788 107.604 58.6212C107.504 58.5469 107.403 58.4726 107.299 58.3983C107.216 58.3404 107.137 58.2865 107.056 58.2305C106.95 58.1591 106.839 58.0886 106.73 58.015C106.646 57.963 106.562 57.909 106.475 57.8531C106.363 57.7863 106.249 57.7169 106.133 57.6496C106.048 57.5976 105.956 57.5463 105.866 57.4951C105.75 57.4312 105.634 57.3645 105.515 57.3004C105.423 57.2544 105.328 57.2043 105.236 57.1583C105.115 57.0989 104.991 57.0406 104.87 56.9845C104.771 56.9369 104.677 56.8912 104.578 56.8451C104.457 56.7916 104.335 56.7433 104.212 56.6891C104.114 56.652 104.009 56.6087 103.91 56.5701C103.784 56.5196 103.658 56.4768 103.533 56.4337C103.432 56.3966 103.327 56.3575 103.226 56.3263C103.098 56.2818 102.967 56.2445 102.842 56.2073C102.738 56.1761 102.636 56.1425 102.532 56.1173C102.401 56.0816 102.27 56.0513 102.137 56.0216C102.034 55.9964 101.932 55.9729 101.829 55.9491C101.694 55.9239 101.563 55.9047 101.427 55.8794C101.327 55.8646 101.223 55.8435 101.125 55.8301C100.976 55.8093 100.829 55.8001 100.678 55.7838C100.593 55.7778 100.508 55.7636 100.425 55.7576C100.19 55.7428 99.9557 55.7388 99.7255 55.7431L99.7384 55.7457ZM88.1653 57.5136C87.3423 57.7291 87.9425 60.0541 88.1305 60.6038C88.4039 61.4209 89.2522 63.783 90.0322 64.5555C89.2477 62.7579 88.805 61.4357 88.5168 60.0838C88.4143 59.6084 88.2568 58.619 88.4791 58.4644C88.6737 58.3248 89.0689 58.3657 89.828 59.237C89.1966 57.8316 88.5976 57.3948 88.1653 57.5136ZM90.572 61.6288C90.4933 61.6496 90.4131 61.7266 90.3403 61.8903C90.0179 62.6019 89.7876 63.0833 89.9808 63.4651C90.1546 63.8187 91.1321 64.1529 90.9063 63.7459C90.5839 63.1739 90.5869 62.6747 90.9093 62.1711C91.0133 62.0151 90.8059 61.5665 90.572 61.6259V61.6288ZM111.965 73.6031C112.851 73.5925 113.852 73.7504 114.936 73.9982C111.817 73.6565 108.89 74.7455 107.479 75.1392C107.199 75.219 106.653 75.2642 106.24 75.0116C107.799 74.4634 108.78 73.7161 111.781 73.6106C111.839 73.6084 111.899 73.6056 111.958 73.6048L111.965 73.6031ZM75.7157 74.7752C75.8672 75.2967 75.9742 75.7379 75.995 75.9355C76.1629 77.5103 75.8989 79.2336 75.7276 80.749C74.597 90.7176 72.8009 102.291 69.889 108.53C65.759 102.796 63.4117 95.3825 62.4014 87.4343C61.9958 89.024 61.6378 91.6238 61.6646 94.2534C61.666 94.5059 61.673 94.7585 61.6819 95.0081C61.6849 95.066 61.6862 95.1185 61.6877 95.176C61.7026 95.4746 61.7249 95.7732 61.7486 96.0703C61.7561 96.1446 61.7631 96.2137 61.769 96.2872C61.7928 96.519 61.8176 96.7507 61.8503 96.978C61.8592 97.0568 61.8718 97.137 61.8822 97.2187C61.9253 97.5054 61.9737 97.7922 62.0337 98.0715C60.5035 99.416 57.8888 100.552 56.0318 101.236C54.5313 100.021 53.0011 99.0371 51.4709 98.3092C51.0282 97.1415 50.1219 95.3973 48.7819 94.4465C48.8562 94.6827 48.9171 94.9338 48.9706 95.1804C49.0775 95.6528 49.1444 96.103 49.1652 96.5041C49.1889 96.8815 49.1711 97.2038 49.1043 97.4148C48.8294 97.3376 48.5561 97.2682 48.2886 97.2083C48.2782 97.2038 48.2714 97.204 48.2625 97.2025C48.0144 97.149 47.7678 97.099 47.5226 97.0603C47.4781 97.0529 47.4308 97.0474 47.3833 97.04C47.1753 97.0088 46.9643 96.9838 46.7564 96.9675C46.685 96.9615 46.6115 96.956 46.5395 96.9501C46.3478 96.9367 46.1562 96.9298 45.9645 96.9298C45.8932 96.9298 45.8212 96.931 45.7476 96.9327C45.5396 96.9372 45.3302 96.9424 45.1207 96.9617C45.0791 96.9632 45.039 96.9718 44.9989 96.9762C44.2115 97.0505 43.3944 97.2229 42.5178 97.5185C45.3554 97.7711 47.985 98.6788 50.4214 100.074V100.068C50.466 100.093 50.5089 100.121 50.549 100.146C50.7867 100.284 51.0215 100.426 51.2517 100.57C51.3023 100.602 51.3492 100.63 51.3997 100.66C51.6775 100.838 51.9583 101.027 52.2302 101.217C52.297 101.264 52.3649 101.314 52.4337 101.362C52.6417 101.511 52.8482 101.665 53.0517 101.818C53.1364 101.883 53.2181 101.944 53.3043 102.01C53.5182 102.179 53.7322 102.347 53.9431 102.524C53.9892 102.562 54.0379 102.598 54.0825 102.637C55.9395 106.44 57.1429 109.798 60.3221 112.457C59.6759 112.522 59.1515 112.579 58.4502 112.588C58.3626 112.588 58.2645 112.585 58.1635 112.573C58.1383 112.572 58.1134 112.566 58.0852 112.564C58.005 112.552 57.9188 112.541 57.8297 112.527C57.8059 112.524 57.7796 112.519 57.7514 112.515C57.4988 112.473 57.2166 112.416 56.9179 112.35C56.8169 112.334 56.7174 112.311 56.6134 112.289C56.5688 112.28 56.526 112.27 56.48 112.263C56.3478 112.238 56.2111 112.21 56.0714 112.185C56.0595 112.18 56.0457 112.179 56.0309 112.176C55.8764 112.149 55.7189 112.123 55.5584 112.1C55.5302 112.099 55.5026 112.093 55.4744 112.089C55.3481 112.071 55.2188 112.056 55.0881 112.043C54.3319 111.967 53.5282 111.975 52.7556 112.188C50.6609 112.755 49.1307 114.461 47.9422 117.135C47.4118 118.334 47.1191 119.913 47.0746 121.191C46.311 120.219 45.8059 119.69 45.2472 119.126C44.9353 114.134 47.862 110.39 54.0571 110.241H54.118C54.164 110.24 54.2038 110.241 54.2514 110.241C54.449 110.24 54.648 110.239 54.8456 110.241H54.866C55.0903 110.247 55.3057 110.257 55.5212 110.27C55.5509 110.272 55.5815 110.272 55.6112 110.276C55.8533 110.293 56.0866 110.309 56.299 110.334H56.3078C56.5975 110.364 56.8619 110.395 57.0684 110.424C56.5812 110.219 56.0879 110.065 55.614 109.94C55.6096 109.939 55.6097 109.94 55.6082 109.94C55.4552 109.901 55.3007 109.865 55.1462 109.83C55.118 109.825 55.0917 109.821 55.0649 109.815C54.9297 109.786 54.7945 109.762 54.6564 109.737C54.6281 109.733 54.599 109.725 54.5723 109.722C54.4148 109.696 54.2573 109.675 54.0969 109.659C54.0746 109.653 54.0496 109.65 54.0244 109.65C49.5229 109.137 44.5609 111.254 44.0409 117.093C43.1986 116.051 42.2284 114.894 41.3668 113.854C39.951 109.486 39.5246 105.995 39.5543 100.974C38.4312 104.064 38.1504 106.827 38.1816 110.11C37.3957 108.283 37.2352 106.619 37.2531 104.554C36.6439 105.74 36.4107 106.693 36.2205 107.614C33.9475 104.554 32.9967 101.687 33.383 98.0618C33.6548 95.5957 34.5551 92.5204 38.6867 89.9057C42.8465 87.2761 47.9273 81.081 59.6341 78.3623C58.9255 79.1898 58.7383 79.9816 58.4412 81.2741C61.9621 76.8767 67.7561 75.1236 73.1341 74.7671C73.9972 74.7061 74.8574 74.6718 75.7042 74.651L75.7157 74.7752ZM88.0316 75.5359C89.7252 81.3447 94.8655 86.485 102.472 88.966C103.512 89.3032 104.73 89.6301 106.067 89.8767C106.072 89.8767 106.073 89.8825 106.073 89.8825C106.501 89.9612 106.938 90.0325 107.385 90.092C107.453 90.1024 107.522 90.1107 107.594 90.1181C107.738 90.1374 107.89 90.1554 108.036 90.1732C108.132 90.1836 108.227 90.1903 108.325 90.2022C108.447 90.2156 108.57 90.2266 108.691 90.237C108.798 90.2474 108.909 90.2542 109.019 90.2631C109.133 90.2705 109.248 90.2775 109.361 90.2835C109.477 90.2909 109.588 90.2964 109.702 90.3008C109.818 90.3053 109.934 90.3081 110.05 90.3096C110.161 90.3111 110.274 90.3169 110.387 90.3184C110.517 90.3228 110.644 90.3184 110.774 90.3184C110.872 90.3184 110.973 90.3171 111.072 90.3154C111.301 90.3095 111.53 90.3026 111.757 90.2893C113.956 90.1704 114.565 90.1348 115.917 89.5316C115.32 91.2846 113.822 93.1862 111.148 95.4296C107.464 98.5197 103.111 100.347 98.8469 102.159C104.061 101.125 108.236 99.5745 112.322 97.0043C110.063 100.377 106.349 104.239 100.793 106.899C96.4699 108.979 90.9581 110.004 87.4372 110.405C88.8292 107.731 89.9033 104.388 90.2153 101.922C90.5704 99.1288 90.5437 97.2123 90.4649 95.3998C90.3 91.6858 89.3878 86.4563 88.5336 82.1777C88.1548 80.2761 87.5531 76.9631 88.0404 75.5666L88.0316 75.5359ZM89.7104 81.8201C90.5988 87.0793 95.5935 87.5844 97.0642 90.4071C98.4771 93.1109 98.5053 95.5325 98.4578 98.2364C99.4398 96.5576 100.538 93.0069 98.5738 89.5306C96.999 86.7376 92.2301 86.3364 89.7194 81.8201H89.7104ZM133.388 81.8463C137.132 83.1313 140.252 84.5947 141.663 86.1249C143.238 87.8185 144.055 89.3041 144.397 91.0423C144.459 91.3395 144.513 91.641 144.561 91.9441C144.762 93.1519 144.884 94.3954 144.903 95.6433C144.961 99.0752 144.278 102.552 142.556 105.582C144.235 104.498 144.665 104.067 145.096 103.487C145.512 105.478 145.685 108.108 145.674 110.559C145.667 112.461 145.547 114.258 145.343 115.521C145.166 115.38 144.976 115.231 144.78 115.08C144.743 115.053 144.71 115.027 144.672 114.999C144.61 114.951 144.548 114.904 144.481 114.856C144.427 114.816 144.373 114.782 144.319 114.74C144.27 114.708 144.22 114.67 144.167 114.636C144.108 114.593 144.046 114.551 143.982 114.508C143.934 114.477 143.884 114.447 143.836 114.416C143.77 114.372 143.705 114.332 143.639 114.294C143.587 114.264 143.534 114.232 143.483 114.201C143.419 114.164 143.355 114.131 143.288 114.093C143.227 114.059 143.165 114.03 143.103 113.998C143.046 113.967 142.985 113.937 142.923 113.908C142.849 113.874 142.777 113.836 142.697 113.806C142.641 113.779 142.582 113.756 142.52 113.731C142.467 113.71 142.41 113.688 142.349 113.667C142.3 113.647 142.252 113.631 142.204 113.614C142.123 113.586 142.042 113.558 141.958 113.536C141.953 113.532 141.952 113.533 141.952 113.533C141.404 113.376 140.745 113.266 140.006 113.31C139.756 113.322 139.501 113.354 139.232 113.406C139.399 113.458 139.579 113.523 139.765 113.598C139.829 113.626 139.89 113.654 139.951 113.682C140.07 113.734 140.191 113.795 140.31 113.859C140.365 113.888 140.421 113.916 140.472 113.946C140.594 114.02 140.717 114.099 140.838 114.183C140.86 114.198 140.883 114.21 140.907 114.23C141.169 114.418 141.423 114.641 141.647 114.9L141.656 114.911C141.748 115.017 141.833 115.13 141.917 115.246C141.94 115.281 141.96 115.314 141.981 115.35C142.02 115.405 142.056 115.469 142.091 115.533C142.124 115.589 142.158 115.644 142.184 115.704C142.229 115.794 142.268 115.892 142.306 115.99H142.303C142.071 116.011 141.84 116.035 141.612 116.063C141.586 116.067 141.562 116.067 141.534 116.072C141.311 116.1 141.088 116.133 140.87 116.17C140.849 116.173 140.831 116.177 140.812 116.179C140.592 116.216 140.375 116.256 140.16 116.307C140.146 116.311 140.131 116.314 140.122 116.315C139.896 116.366 139.679 116.421 139.461 116.48C139.453 116.483 139.445 116.483 139.44 116.486C139.221 116.547 139.011 116.612 138.802 116.687C138.788 116.688 138.773 116.694 138.764 116.695C138.566 116.764 138.378 116.84 138.186 116.918C138.158 116.932 138.129 116.94 138.096 116.953C137.931 117.027 137.763 117.105 137.6 117.185C137.548 117.209 137.501 117.233 137.455 117.26C137.308 117.334 137.165 117.412 137.028 117.498C136.963 117.537 136.896 117.574 136.831 117.617C136.706 117.694 136.58 117.777 136.459 117.864C136.385 117.914 136.316 117.967 136.244 118.02C136.125 118.109 136.011 118.204 135.899 118.299C135.832 118.357 135.764 118.418 135.696 118.479C135.581 118.583 135.465 118.69 135.358 118.801C135.302 118.856 135.251 118.917 135.199 118.975C135.097 119.086 134.993 119.205 134.895 119.319C134.852 119.376 134.812 119.426 134.77 119.481C134.657 119.624 134.549 119.773 134.445 119.929C134.421 119.961 134.397 119.993 134.375 120.03C134.255 120.214 134.142 120.408 134.03 120.608C134.017 120.635 134.002 120.665 133.987 120.692C133.875 120.905 133.767 121.126 133.664 121.356C133.659 121.371 133.655 121.388 133.647 121.403C133.543 121.642 133.444 121.891 133.354 122.154C137.336 118.589 140.07 117.98 144.868 118.336C146.32 118.736 149.34 119.422 152.371 120.178C152.712 120.268 153.084 120.358 153.232 120.391C150.112 120.831 148.79 123.511 148.122 125.65C147.276 128.354 148.402 131.414 149.682 134.059C149.741 134.191 149.802 134.32 149.876 134.454C149.906 134.519 149.937 134.584 149.966 134.649C150.07 134.849 150.173 135.05 150.262 135.243C150.187 135.409 150.024 135.73 149.89 136.006C149.816 136.149 149.758 136.281 149.714 136.372C148.584 136.324 148.02 136.324 146.817 136.213C146.705 135.901 146.606 135.605 146.509 135.319C146.497 135.271 146.48 135.227 146.465 135.179C146.281 134.607 146.124 134.078 146.002 133.634H146.011C143.723 125.151 146.853 121.467 149.131 120.769C144.599 120.954 143.233 127.142 144.822 133.56H144.828C144.847 133.656 144.875 133.772 144.906 133.888C144.92 133.936 144.933 133.983 144.947 134.03C145.063 134.455 145.229 134.989 145.437 135.635C144.957 135.62 144.494 135.603 144.033 135.589C143.937 135.583 143.842 135.578 143.746 135.577C143.27 135.556 142.8 135.542 142.34 135.525H142.284C141.824 135.508 141.374 135.487 140.933 135.469C140.901 135.469 140.867 135.465 140.837 135.464C140.375 135.444 139.925 135.422 139.485 135.4H139.465C139.123 135.381 138.79 135.36 138.463 135.342C138.185 135.327 137.917 135.307 137.648 135.289C137.551 135.279 137.452 135.277 137.355 135.269H137.34C137.336 135.269 137.33 135.268 137.323 135.266C137.274 135.263 137.227 135.262 137.181 135.257C137.164 135.256 137.148 135.256 137.132 135.252C137.065 135.247 136.992 135.244 136.925 135.24H136.922C136.825 135.233 136.744 135.226 136.652 135.217H136.646C136.478 135.205 136.312 135.185 136.15 135.173C136.135 135.17 136.124 135.173 136.106 135.173C136.065 135.167 136.013 135.165 135.973 135.159C135.922 135.154 135.871 135.152 135.821 135.147H135.815C135.763 135.141 135.711 135.136 135.661 135.133H135.646C135.525 135.122 135.416 135.107 135.299 135.095C135.104 135.076 134.906 135.055 134.721 135.034C134.707 135.029 134.692 135.033 134.677 135.031C134.67 135.031 134.659 135.025 134.648 135.025C134.29 134.985 133.949 134.942 133.619 134.892H133.613C133.585 134.886 133.564 134.883 133.54 134.88H133.537C133.531 134.877 133.526 134.877 133.52 134.877C133.37 134.855 133.22 134.831 133.073 134.807C132.914 134.781 132.758 134.754 132.606 134.726C132.593 134.722 132.58 134.719 132.569 134.715C132.38 134.679 132.203 134.643 132.029 134.604C131.997 134.597 131.96 134.59 131.928 134.581C131.775 134.549 131.626 134.51 131.48 134.471C131.427 134.456 131.374 134.44 131.321 134.425C131.203 134.39 131.087 134.359 130.977 134.323C130.813 134.271 130.659 134.216 130.515 134.158C130.51 134.155 130.503 134.154 130.497 134.152C130.34 134.09 130.194 134.019 130.059 133.952C130.037 133.943 130.019 133.93 129.998 133.92C129.872 133.851 129.759 133.787 129.654 133.713C129.634 133.701 129.618 133.689 129.601 133.676C129.494 133.601 129.399 133.521 129.318 133.438C127.564 131.715 126.777 127.926 126.584 123.425C128.575 121.092 130.491 115.997 131.1 111.139C133.552 106.756 134.235 103.517 133.73 100.576C132.036 104.661 129.496 108.034 126.391 110.841C126.189 105.538 127.211 99.7586 128.174 94.4994C128.741 91.3796 129.637 86.3284 131.947 83.5651C132.119 83.3542 132.7 82.5727 133.044 82.2251C133.162 82.1003 133.274 81.9859 133.385 81.8715L133.388 81.8463ZM94.0187 91.6812C94.9175 94.6821 95.1225 97.3711 94.5119 99.451C93.8508 101.709 93.2848 103.551 88.9854 109.108C93.0709 106.508 96.8741 100.654 96.6512 97.2226C96.4611 94.3404 95.2369 92.8251 94.0217 91.6663L94.0187 91.6812ZM62.6718 101.338C63.0447 102.376 63.8722 104.19 64.0876 104.636C64.2184 106.879 64.3298 109.137 64.41 111.41C64.0445 111.351 63.6508 111.336 63.2616 111.373C59.8892 108.609 59.2504 106.886 57.7499 103.826C59.6812 103.066 61.1966 102.325 62.6674 101.345L62.6718 101.338ZM67.2773 109.598C67.6353 110.093 68.029 110.556 68.4524 110.988C68.289 111.216 68.1241 111.422 67.9473 111.618C67.9324 111.635 67.9114 111.654 67.895 111.671C67.8222 111.751 67.7503 111.824 67.6751 111.896C67.6395 111.931 67.6006 111.962 67.5649 111.998C67.5055 112.05 67.4502 112.106 67.3911 112.154C67.3866 112.16 67.381 112.163 67.3795 112.169C67.3587 111.589 67.3394 111.044 67.3186 110.534C67.3037 110.224 67.2944 109.908 67.278 109.603L67.2773 109.598ZM127.743 113.357C127.636 114.212 127.469 114.961 127.171 115.778C127.119 115.63 127.074 115.483 127.031 115.334C126.921 114.942 126.829 114.541 126.742 114.125C127.083 113.878 127.421 113.622 127.743 113.361L127.743 113.357ZM54.2037 114.181C55.0772 114.187 56.0459 114.42 57.1898 114.656C58.8092 114.988 60.6216 114.508 61.7359 114.552C61.8607 115.056 62.2915 115.332 62.4445 115.539C62.7253 115.92 63.1101 116.102 63.0165 117.351C62.3286 118.514 61.978 119.624 61.8725 120.159C61.5858 121.563 62.0404 123.026 62.4207 124.749C63.1026 125.957 64.0252 128.122 65.5109 129.563H65.5051C66.1617 130.306 66.4143 131.331 66.5926 132.282C66.649 132.605 66.696 132.929 66.7405 133.256C66.3973 133.224 66.0898 133.161 65.8387 133.07C63.4766 132.187 60.8767 130.411 59.0642 129.059C59.6644 130.367 61.0847 131.615 63.224 132.773C63.8539 133.112 64.6294 133.543 65.6753 133.873C66.02 133.981 66.4152 134.047 66.8445 134.07C66.8683 134.255 66.8889 134.448 66.9112 134.63C64.4302 134.443 60.835 133.651 58.9185 133.056C60.8498 135.076 66.213 135.566 68.382 135.581C68.1755 135.947 67.8799 136.311 67.4624 136.672C65.6202 136.817 63.7632 136.793 62.5747 136.561C60.5839 136.181 59.7965 135.71 58.0583 135.088C59.2453 136.298 60.9256 137.227 62.3667 137.435C63.6101 137.621 65.5608 137.683 67.3138 137.496C66.9409 138.227 66.1119 138.774 65.1894 139.175C64.2089 139.603 63.1243 139.868 62.3518 140.005C61.8422 140.099 61.4708 140.139 61.3743 140.133C59.9094 140.063 55.4466 136.493 53.9164 134.502C52.82 133.088 52.0445 128.53 51.5245 127.668C50.7371 126.37 49.0881 124.058 48.9098 121.161C48.8682 120.396 49.6571 116.868 51.7771 115.04C52.5466 114.373 53.3221 114.153 54.1986 114.161L54.2037 114.181ZM158.05 122.337V122.34C158.436 122.333 158.809 122.342 159.195 122.39C160.502 122.544 162.211 122.905 163.563 123.658C163.607 123.7 163.638 123.757 163.653 123.817C163.667 123.853 163.681 123.893 163.696 123.933C163.711 123.96 163.711 123.985 163.711 124.015C163.726 124.059 163.74 124.106 163.74 124.157C163.77 124.411 163.772 124.702 163.772 124.957C163.757 125.418 163.755 125.968 163.844 126.607L163.873 126.762C163.888 126.864 163.905 126.966 163.92 127.067C163.935 127.146 163.948 127.225 163.978 127.305C163.993 127.381 164.009 127.455 164.024 127.531C164.069 127.7 164.127 127.88 164.186 128.07C164.201 128.141 164.214 128.21 164.244 128.279C164.289 128.446 164.35 128.622 164.409 128.81C164.35 128.787 164.275 128.764 164.2 128.743C164.185 128.743 164.185 128.746 164.185 128.743C164.111 128.725 164.05 128.71 163.975 128.697C163.946 128.689 163.901 128.685 163.871 128.679C163.841 128.675 163.799 128.666 163.769 128.662C163.725 128.657 163.663 128.652 163.604 128.65C163.589 128.646 163.576 128.647 163.546 128.647C162.699 128.606 161.853 128.933 161.466 129.808C162.016 129.473 162.878 129.182 163.695 129.308V129.303C163.725 129.306 163.755 129.317 163.785 129.323C163.829 129.33 163.874 129.337 163.904 129.349C163.948 129.36 163.978 129.371 164.023 129.381C164.067 129.397 164.112 129.41 164.142 129.427C164.171 129.439 164.214 129.452 164.243 129.465C164.303 129.489 164.349 129.517 164.408 129.543C164.423 129.558 164.451 129.566 164.466 129.578C164.541 129.624 164.615 129.674 164.689 129.73C164.734 129.892 164.765 130.049 164.779 130.199C164.794 130.22 164.794 130.242 164.794 130.263C164.809 130.308 164.809 130.349 164.809 130.391C164.824 130.441 164.824 130.49 164.824 130.539C164.838 130.626 164.838 130.714 164.838 130.797C164.824 130.995 164.81 131.169 164.78 131.331C164.691 131.717 164.498 132.004 164.067 132.213C164.023 132.235 163.978 132.252 163.934 132.268C163.919 132.274 163.919 132.28 163.905 132.285C163.741 132.354 163.533 132.413 163.311 132.465C161.736 132.813 160.8 130.831 160.146 129.004C159.79 127.991 159.271 126.538 157.843 126.508C157.68 126.509 157.532 126.516 157.368 126.557C155.244 127.247 153.832 129.127 151.901 128.533C151.931 128.598 151.958 128.661 152.003 128.719C152.017 128.726 152.02 128.732 152.02 128.739C152.05 128.785 152.092 128.831 152.122 128.873C152.136 128.887 152.153 128.9 152.168 128.913C152.212 128.944 152.243 128.973 152.272 129C152.302 129.018 152.315 129.035 152.345 129.049C152.375 129.072 152.405 129.088 152.435 129.108C152.464 129.125 152.495 129.145 152.525 129.16C152.554 129.173 152.582 129.18 152.612 129.195C152.641 129.209 152.686 129.225 152.731 129.241C152.746 129.25 152.776 129.258 152.806 129.267C152.836 129.28 152.881 129.287 152.911 129.299C152.955 129.306 152.985 129.312 153.015 129.319C153.045 129.327 153.072 129.335 153.117 129.34C153.161 129.347 153.194 129.354 153.253 129.36C153.268 129.362 153.296 129.366 153.311 129.369C153.371 129.375 153.429 129.379 153.488 129.38C153.488 129.38 153.505 129.386 153.52 129.386C153.728 129.398 153.936 129.387 154.129 129.369C154.129 129.366 154.146 129.366 154.146 129.366C154.206 129.361 154.25 129.356 154.28 129.349C154.324 129.347 154.352 129.34 154.381 129.337C154.396 129.331 154.427 129.327 154.442 129.325C154.561 129.305 154.68 129.28 154.784 129.25C154.784 129.349 154.766 129.447 154.766 129.551C154.766 129.655 154.781 129.768 154.795 129.889C154.587 129.902 154.393 129.923 154.215 129.999C153.011 130.497 152.745 131.446 152.924 132.554C152.924 132.554 152.194 133.813 151.986 134.203C151.689 133.673 151.407 133.092 151.11 132.435C150.575 131.257 149.461 128.201 149.952 126.552C150.844 123.536 152.181 122.155 154.617 122.422C155.776 122.55 156.905 122.365 158.049 122.344L158.05 122.337ZM123.88 127.002C123.966 127.718 124.089 128.482 124.257 129.26C124.785 131.741 125.773 134.356 127.57 135.842H119.043L122.252 129.973C122.757 129.011 123.29 128.027 123.871 127.002H123.88ZM157.307 128.093C157.812 128.136 158.378 128.445 158.867 129.088C158.911 129.171 158.941 129.254 158.986 129.335C159.476 130.404 160.024 131.786 160.813 132.633C161.066 132.899 161.32 133.104 161.602 133.254C161.958 133.653 162.33 134.054 162.731 134.429C162.79 134.493 162.863 134.558 162.937 134.617C163.012 134.695 163.101 134.764 163.175 134.834C163.235 134.88 163.282 134.926 163.327 134.971C163.431 135.042 163.52 135.113 163.594 135.183C163.639 135.214 163.683 135.249 163.727 135.282C163.846 135.375 163.98 135.465 164.099 135.549C164.143 135.572 164.173 135.598 164.218 135.622C164.307 135.683 164.41 135.745 164.499 135.799C164.543 135.821 164.588 135.843 164.618 135.865C164.751 135.932 164.885 135.999 165.019 136.051C163.786 136.981 163.535 137.849 163.743 139.171C163.787 139.44 163.83 139.722 163.919 140.038C164.202 141.231 163.46 142.623 162.107 142.653C161.364 142.669 160.087 142.151 158.972 141.447C158.779 141.318 158.574 141.2 158.381 141.061C158.886 140.878 159.107 140.607 159.315 140.223C158.632 140.526 158.186 140.59 157.726 140.509C156.775 139.602 156.405 138.593 157.549 137.924C158.277 137.507 159.644 138.584 160.877 139.181C161.204 139.339 161.529 139.474 161.826 139.521C161.975 139.545 162.125 139.534 162.258 139.489C162.288 139.484 162.319 139.469 162.334 139.458C162.497 139.403 162.63 139.3 162.748 139.181C162.852 139.088 162.942 138.993 163.001 138.874C163.016 138.86 163.03 138.842 163.03 138.827C163.06 138.765 163.105 138.7 163.134 138.633C163.164 138.545 163.195 138.454 163.224 138.359C162.927 138.664 162.393 138.902 162.095 138.853C162.006 138.839 161.901 138.817 161.797 138.786C161.752 138.777 161.722 138.756 161.678 138.74C161.618 138.723 161.56 138.702 161.501 138.679C161.442 138.658 161.395 138.634 161.336 138.606C161.292 138.585 161.233 138.563 161.188 138.539C161.129 138.51 161.056 138.476 160.996 138.447C160.952 138.421 160.907 138.401 160.877 138.377C160.803 138.337 160.714 138.297 160.64 138.252C160.61 138.233 160.58 138.219 160.55 138.2C160.327 138.069 160.091 137.932 159.868 137.797C159.809 137.769 159.762 137.738 159.716 137.71C158.662 137.107 157.562 136.59 156.478 137.052C155.705 136.22 154.829 135.121 154.338 133.932C154.799 133.995 155.512 133.813 155.72 133.651C155.185 133.619 154.53 133.479 154.145 133.256C153.863 132.362 153.567 131.251 154.592 130.894C154.964 130.762 156.019 130.794 156.331 131.518C156.45 131.788 156.687 132.53 156.955 133.122C157.46 134.232 160.639 136.866 161.397 137.074C162.11 137.165 163.15 137.002 163.907 136.48C163.343 136.534 162.303 136.716 161.575 136.324C161.501 136.281 161.426 136.234 161.337 136.182C161.308 136.164 161.28 136.145 161.25 136.124C161.191 136.087 161.13 136.052 161.07 136.014C161.041 135.991 161.013 135.97 160.983 135.95C160.924 135.905 160.848 135.858 160.789 135.81C160.759 135.792 160.728 135.77 160.713 135.749C160.684 135.739 160.67 135.726 160.67 135.717C159.377 134.755 157.862 133.266 157.624 132.82C157.491 132.586 157.373 132.164 157.21 131.727C157.462 131.69 157.789 131.515 157.982 131.341C157.492 131.283 157.241 131.244 156.914 131.054C156.676 130.593 156.348 130.232 155.888 130.235C155.65 129.426 155.711 128.453 156.825 128.156C156.974 128.114 157.137 128.097 157.315 128.112L157.307 128.093ZM165.805 131.212C166.102 131.358 166.399 131.511 166.681 131.668C166.696 131.68 166.724 131.696 166.739 131.709C166.784 131.73 166.814 131.754 166.858 131.773C166.918 131.813 166.979 131.849 167.038 131.889C167.083 131.905 167.095 131.923 167.125 131.944C167.199 131.989 167.274 132.04 167.348 132.086C167.363 132.098 167.377 132.106 167.391 132.118C167.481 132.178 167.555 132.239 167.644 132.298C167.644 132.305 167.661 132.317 167.661 132.324C167.736 132.376 167.793 132.426 167.853 132.479C167.883 132.499 167.899 132.519 167.928 132.537C167.973 132.578 168.017 132.623 168.062 132.667C168.077 132.688 168.105 132.707 168.12 132.731C168.164 132.774 168.194 132.814 168.239 132.856C168.254 132.878 168.285 132.903 168.3 132.926C168.33 132.97 168.375 133.014 168.404 133.062C168.419 133.08 168.433 133.098 168.448 133.117C168.478 133.184 168.523 133.251 168.552 133.318C168.567 133.325 168.567 133.335 168.567 133.347C168.597 133.4 168.628 133.46 168.643 133.518C168.657 133.54 168.657 133.563 168.672 133.587C168.686 133.63 168.7 133.679 168.715 133.724C168.715 133.749 168.714 133.774 168.73 133.802C168.73 133.843 168.729 133.894 168.745 133.938V134.164C168.73 134.186 168.73 134.208 168.73 134.234C168.73 134.305 168.717 134.378 168.686 134.454C168.493 135.183 166.725 135.969 165.596 135.65C165.537 135.629 165.448 135.598 165.373 135.562C165.344 135.546 165.299 135.531 165.269 135.513C165.21 135.483 165.166 135.456 165.107 135.423C165.062 135.398 165.018 135.37 164.974 135.345C164.914 135.308 164.853 135.278 164.794 135.237C164.749 135.206 164.705 135.173 164.646 135.136C164.587 135.096 164.529 135.048 164.454 134.999C164.41 134.967 164.365 134.932 164.321 134.895C164.217 134.812 164.097 134.724 163.993 134.634C163.948 134.595 163.889 134.553 163.845 134.509C163.785 134.449 163.71 134.388 163.635 134.329C163.591 134.281 163.547 134.234 163.487 134.19C163.457 134.157 163.427 134.124 163.383 134.091C163.383 134.091 163.382 134.092 163.398 134.094C163.204 133.911 163.028 133.727 162.864 133.534C163.028 133.52 163.191 133.49 163.354 133.441C163.83 133.303 164.35 133.105 164.721 132.85C165.39 132.395 165.702 131.835 165.806 131.216L165.805 131.212ZM85.5803 139.443H101.328L100.132 145.668H92.3919L92.6935 143.959H87.9098L87.1818 148.074L96.3333 153.541C97.8487 154.46 98.4726 155.666 98.2052 157.018L97.0093 163.302C96.6884 165.129 93.414 167.209 90.8588 167.209H76.0916L77.2518 160.628H84.9771L84.6726 162.366H89.4415L90.3611 157.166L81.2096 151.699C81.058 151.61 80.905 151.506 80.7342 151.374C80.6005 151.274 80.4742 151.164 80.3108 151.008C80.1934 150.896 80.0879 150.777 79.9483 150.607C79.8636 150.502 79.7848 150.392 79.6987 150.26L79.6697 150.207C79.3666 149.69 79.2567 149.182 79.3414 148.692L80.3397 143.032C80.5967 141.576 82.4493 139.422 85.6137 139.422L85.5803 139.443ZM103.705 139.443H127.475L126.327 145.668H121.409L121.577 144.742H118.175L115.04 161.827H116.883L115.899 167.205H105.024L106.005 161.827H107.847L110.982 144.742H107.58L107.412 145.668H102.494L103.705 139.443ZM166.399 139.443H171.049L169.892 145.668H164.974L165.136 144.742H163.413C163.591 144.678 163.772 144.605 163.936 144.516C164.574 144.192 165.093 143.732 165.496 143.141C166.743 141.061 166.626 139.961 166.403 139.441L166.399 139.443ZM173.634 139.443H193.096L191.952 145.668H186.024L186.201 144.742H181.551L180.466 150.67H186.245L185.399 155.364H179.605L178.418 161.857H183.068L183.29 160.658H189.649L188.447 167.239H168.54L169.52 161.861H171.362L174.497 144.776H172.655L173.634 139.443ZM13.1853 139.446H21.8317L27.18 156.976L30.077 139.446H38.1886L37.2229 144.794H35.3807L32.2906 161.879H34.1328L33.1641 167.242H24.5623L19.1992 149.86L16.4062 167.242H8.17577L9.14143 161.879H10.9836L14.0737 144.794H12.2315L13.1853 139.446ZM40.6696 139.446H49.2714L53.8323 152.623L60.9039 142.625C61.045 142.634 61.1906 142.64 61.3422 142.64C62.9615 142.64 65.5762 142.085 68.7852 139.446H71.5633L70.5947 144.794H68.7525L65.6772 161.879H67.5194L66.5567 167.227H57.9549L60.8668 151.033L51.7004 163.736L46.9612 151.004L44.1237 167.197H35.6555L36.6182 161.849H38.505L41.5803 144.764H39.6935L40.6696 139.446ZM131.59 139.446H143.475L143.348 161.879H145.22L144.236 167.257H136.021L136.282 160.334H131.023L128.795 167.257H120.549L121.533 161.879H123.583L131.59 139.446ZM148.675 139.579C148.883 140.086 149.583 141.347 151.691 142.357C152.211 142.564 152.759 142.736 153.355 142.891L153.578 142.949C154.439 143.167 155.331 143.393 156.222 143.537C156.98 143.662 157.561 143.706 158.124 143.692C158.837 144.088 159.654 144.489 160.739 144.779C161.095 144.874 161.435 144.932 161.762 144.956L158.672 161.892H160.529L159.534 167.27H148.674L149.654 161.892H151.496L154.631 144.807H151.229L151.067 145.73H146.135L147.237 139.758L148.675 139.579ZM136.567 143.219L132.318 155.936H136.538L136.567 143.219Z" fill="black"/>
<path d="M78.3452 74.204C79.3347 75.3791 78.7983 79.1066 78.3452 82.7761C78.0511 85.1531 77.6693 88.2135 77.1641 91.4819L83.7158 95.4634L87.8607 94.4948C87.3511 87.3043 85.2014 80.7824 85.3203 76.2215C85.4064 75.593 85.509 75.024 85.6397 74.513C83.4558 74.4268 80.44 74.2188 78.3452 74.1445V74.204ZM123.063 78.3043C122.706 80.6368 122.292 82.4344 121.772 83.5635C121.228 84.8753 120.138 85.3314 119.454 85.5691C119.416 85.7681 119.352 86.0608 119.309 86.2539C118.299 90.8743 116.68 94.6626 114.674 97.7825L117.749 98.9918L124.895 95.9611C125.244 94 125.614 92.1133 125.954 90.3899C126.875 85.7102 129.03 81.6396 130.916 80.4213C129.104 79.8865 125.315 78.8466 123.072 78.2969L123.063 78.3043ZM76.8596 94.052C75.426 102.386 73.1158 111.434 69.2383 114.405L73.6209 117.718C74.3102 118.265 74.8272 118.972 75.1511 119.798L77.8847 122.145C79.0019 122.468 80.1131 123.552 80.5885 124.478L82.5347 126.216C83.4974 127.384 84.1392 129.633 83.3503 131.148C83.3028 132.566 82.4411 133.778 81.003 134.253L80.913 136.838L80.91 136.879C82.2189 136.155 83.7773 135.692 85.5898 135.692H86.2628C87.7306 128.888 90.274 118.458 91.8785 112.07C89.1449 112.587 86.1291 112.947 82.831 113.121C86.0548 108.723 87.7484 104.014 88.0455 99.4973C88.1332 98.0518 88.1286 96.6152 88.0543 95.2038L83.5231 97.8631L76.8596 94.052ZM114.149 98.5832C111.475 102.476 108.192 105.283 104.819 107.408C102.145 109.087 98.7281 110.498 94.5684 111.523C92.8153 117.867 90.1412 128.756 88.091 135.739H116.467C118.606 130.242 121.547 124.864 125.529 118.803C122.706 114.45 123.286 106.294 124.488 98.7466L117.802 101.45L114.149 98.5832ZM93.4987 123.69C93.6461 123.684 93.7988 123.701 93.9488 123.74C93.6012 124.081 93.2625 124.393 93.0783 124.988C92.8955 125.582 92.9193 126.115 93.1799 126.637C92.3836 126.427 91.9067 125.601 92.1177 124.809C92.2751 124.211 92.7758 123.795 93.3537 123.713C93.4015 123.706 93.4497 123.701 93.4988 123.698L93.4987 123.69ZM72.9969 129.856C73.4159 131.549 72.269 133.258 71.125 134.461C70.9185 134.643 70.6244 135.298 70.4728 135.779H79.0301L75.8508 133.209L75.8479 132.384L72.9969 129.856ZM153.221 133.763C152.315 135.353 151.542 137.091 150.74 138.933C151.394 140.004 152.835 140.365 155.301 140.968C155.895 141.115 156.534 141.239 157.128 141.297C156.192 140.45 155.39 139.187 156.029 137.999C154.93 136.791 154.231 135.978 153.593 134.73C153.444 134.429 153.325 134.105 153.221 133.772V133.763ZM80.4251 136.927L80.399 137.067H80.5787C80.5817 137.062 80.5859 137.062 80.5903 137.061L80.4801 136.968H80.4771L80.4251 136.927Z" fill="#7E141B"/>
<path d="M103.304 33.0508C107.821 36.542 101.091 41.0732 93.7961 41.6972C99.8129 42.8426 111.178 36.4529 103.304 33.0508ZM115.308 33.2216C114.283 34.0759 114.484 35.7324 115.633 37.4111C116.629 38.876 118.233 40.2487 120.046 40.8429C117.713 38.7036 115.041 35.9552 115.308 33.2216ZM134.918 44.7353C130.031 49.1031 124.029 52.6092 112.337 54.4068C118.903 54.4172 129.273 52.6983 134.918 44.7353ZM77.4244 46.3695C75.6565 46.365 74.3937 47.1376 74.4383 48.3602C76.0576 46.5329 78.5089 47.3649 82.015 49.0882C84.8229 50.4654 88.2844 51.9258 91.6717 52.7726C88.3587 51.3583 84.3326 49.0288 82.4904 48.1225C80.7968 47.2876 78.4792 46.3844 77.4244 46.3844V46.3695ZM122.291 48.4345C118.844 49.3066 112.456 49.7419 108.251 49.8385C99.9466 50.0301 94.8806 49.7257 89.8295 49.1506C94.2418 50.7699 101.299 51.483 108.548 51.6762C113.6 51.8069 118.963 51.5579 122.796 50.66C122.57 49.6572 122.426 49.1149 122.265 48.4316L122.291 48.4345ZM91.6865 53.6491C89.6363 53.5926 87.8239 54.1215 86.7691 55.6993C87.4123 55.2551 89.1015 54.276 89.7403 54.1988C89.6779 54.6757 89.839 55.053 90.2098 55.4527C90.4757 54.7975 90.8427 54.3563 91.324 54.0161C91.327 54.4959 91.4463 55.5165 91.9242 56.3634C92.3446 55.5834 92.7071 54.5955 93.3519 54.1795C93.2851 54.5182 93.3072 55.0278 93.6654 55.7394C94.2492 54.5865 94.5924 54.3043 95.5521 54.2998C94.2433 53.9447 92.9226 53.7011 91.6895 53.6669L91.6865 53.6491ZM110.406 68.4312C109.654 68.3703 108.712 68.6466 108.073 68.7446C105.102 69.2007 103.23 72.2507 100.214 73.4095C102.799 72.9267 103.601 71.909 104.567 70.9731C104.671 71.2331 105.026 71.5451 105.234 71.7887C105.481 71.0087 105.715 70.5883 106.354 69.7831C106.418 70.364 106.574 70.7829 106.905 71.343C107.177 70.5348 107.378 70.1129 108.092 69.3374C108.132 69.7801 108.39 70.2585 108.856 71.0162C109.08 70.2734 109.322 69.8054 109.808 69.1888C109.939 69.7311 110.215 70.2986 110.673 70.7488C110.844 70.2273 111.001 69.743 111.184 69.48C111.827 69.6642 112.453 70.0059 113.947 69.6164C112.552 69.5362 111.882 69.1143 111.08 68.621C110.891 68.5052 110.661 68.4472 110.41 68.4264L110.406 68.4312ZM117.522 68.4573C117.226 68.5242 117.04 68.7277 116.788 69.0055C116.284 69.5522 115.535 69.6651 114.708 69.6384C115.677 69.8806 115.781 70.6546 115.305 72.3571C115.739 71.9961 116.347 71.3008 116.504 69.9207C116.794 70.1197 117.003 70.613 117.149 70.9071C117.542 70.2936 117.559 69.8553 117.523 69.3621C117.857 69.3799 118.106 69.6295 118.428 70.0559C118.591 69.7439 118.627 69.4705 118.573 69.1793C119.022 69.1377 119.366 69.2101 120.074 69.3245C119.8 69.0987 119.069 68.7748 118.916 68.7154C118.221 68.448 117.814 68.3766 117.518 68.445L117.522 68.4573ZM63.4446 113.323C63.1727 113.358 62.8919 113.44 62.6706 113.6C62.6216 113.75 62.648 114.224 62.8099 114.386C63.786 115.357 64.0653 115.96 64.0311 116.896L67.9681 120.016C68.7034 120.6 68.6411 121.053 68.5564 121.374L66.0605 119.413C64.2332 119.575 63.3715 121.062 63.5052 122.607C62.7921 121.245 63.4122 119.25 65.392 118.893L63.9063 117.718C63.3255 118.785 62.9481 119.53 62.804 120.541C62.6718 121.46 62.9555 122.487 63.1873 123.467L65.4306 125.8C65.3682 125.519 65.4514 125.283 65.4945 125.097C64.7918 124.469 64.5645 123.696 64.9032 122.78C65.0503 122.38 65.5569 121.625 66.6414 121.234C66.5092 120.859 66.4646 120.637 66.5891 120.154C66.7986 120.734 67.0957 121.181 67.5637 121.484C66.2741 121.823 65.7215 122.422 65.5432 123.014C65.1198 124.325 66.0632 124.53 66.1701 124.946C66.3009 125.458 65.6309 126.208 66.7481 127.263C67.4225 127.901 69.0359 127.804 69.4073 126.399C69.6153 128.33 67.372 128.582 66.4064 127.748L63.7025 124.91C64.4112 126.253 65.0931 127.629 66.1687 128.713L66.1629 128.719C67.4212 129.946 67.6634 132.255 67.8565 133.859C68.2695 133.993 68.9024 133.96 69.357 133.685C69.66 132.507 69.8413 129.021 69.8205 127.639V127.604C71.4101 127.763 72.0935 127.21 72.3609 126.533C71.2229 125.454 70.8159 124.899 70.3702 123.918L77.9321 130.618L77.9379 132.253L78.954 133.074L78.9802 132.285C79.8849 132.938 81.684 132.173 81.1641 130.696C82.097 130.096 81.3602 128.14 80.9813 127.695L79.466 126.343V126.879C79.4288 127.696 77.3861 126.269 76.9701 125.141C77.8169 125.804 78.4557 126.472 78.7529 126.347L78.7876 125.744C78.8159 125.217 77.3525 123.917 77.0494 124.244L73.3354 121.05C73.2299 120.411 72.7589 119.742 72.343 119.43L67.3512 115.657C66.8149 115.25 65.8062 115.622 65.3456 115.726C64.741 114.737 65.0544 113.899 64.2017 113.394C64.0175 113.349 63.756 113.331 63.4826 113.365L63.4446 113.323ZM66.6387 116.057C68.0426 117.098 69.5208 118.612 70.0111 119.563L65.7622 116.235C66.0073 116.137 66.3624 116.066 66.6357 116.064L66.6387 116.057ZM162.611 119.474C162.328 119.565 162.015 119.724 161.688 119.894C163.293 120.327 163.872 121.395 163.738 122.301C164.273 122.624 164.674 123.089 164.749 123.747C164.823 124.393 164.777 125.053 164.792 125.708C164.822 126.816 165.15 127.684 165.462 128.664C165.507 128.792 165.566 128.951 165.596 129.065C165.7 129.404 165.771 129.74 165.815 130.064C166.395 130.328 167.138 130.701 167.776 131.129C168.43 131.557 168.937 132.014 169.292 132.554C169.723 133.215 169.899 134.173 169.498 134.945C169.246 135.47 168.504 136.03 167.597 136.343C168.919 136.489 170.226 135.852 170.924 134.892C171.296 134.362 171.443 133.776 171.577 133.228C170.923 133.062 170.164 132.8 169.274 132.144C170.106 132.261 171.012 132.406 171.725 132.512C173.627 132.759 174.86 132.414 175.142 131.322C176.182 130.373 176.791 129.123 177.4 127.89C178.559 128.18 179.02 127.636 179.272 127.144C179.005 126.953 178.739 126.864 178.471 126.819L177.163 126.581C176.568 126.59 176.494 127.245 177.015 127.698C176.242 127.685 175.767 126.939 176.019 126.367L173.984 125.972C173.999 126.035 174.03 126.098 174.059 126.164C174.163 126.473 174.297 127.115 174.282 127.476C174.282 128.765 173.6 130.417 172.514 130.254L166.542 129.346C166.527 129.058 166.602 128.807 166.513 128.606L172.456 129.541C173.184 129.654 173.54 128.025 173.54 127.416C173.54 126.77 173.258 126.003 173.05 125.188C173.035 125.384 173.004 125.616 172.974 125.885C172.915 126.286 172.588 126.696 172.232 126.789C172.187 127.014 172.157 127.242 172.113 127.544C172.989 126.574 173.214 127.384 173.139 127.785C173.006 128.68 172.129 129.236 171.906 128.302C169.663 128.076 168.89 127.811 168.667 126.886C168.474 126.058 170.331 126.562 172.01 126.796C171.847 126.228 171.726 125.564 172.172 124.968C170.909 124.784 169.305 124.508 169.513 123.423C169.647 122.777 171.548 123.283 172.87 123.51C172.87 123.415 172.887 123.323 172.902 123.227L167.732 122.347C166.856 123.356 166.083 125.363 165.786 127.458C164.984 125.348 165.89 123.283 166.885 122.199L165.49 121.919C165.936 121.609 166.707 121.466 167.288 121.554L175.637 122.964L173.602 123.311C173.602 124.366 173.677 124.901 173.812 125.376L175.847 125.772C175.015 124.608 175.701 122.533 177.217 122.607C175.805 123.182 175.998 125.192 176.726 125.92L178.494 126.295C178.97 126.391 179.221 126.761 179.28 127.144L189.546 129.016L189.874 130.273L191.702 130.16L191.492 129.341L193.364 129.689C194.196 129.823 194.894 127.832 193.793 127.238C194.254 126.367 193.557 125.485 193.097 125.336L191.907 125.092C191.877 123.764 188.475 122.671 188.549 124.569L177.6 122.594C177.407 121.962 177.093 121.839 176.187 121.695L167.125 120.221C166.441 120.114 165.774 120.916 165.357 121.126C164.317 120.606 164.451 119.566 162.608 119.462L162.611 119.474ZM71.0956 120C71.733 120.001 72.4728 120.245 72.9527 120.859C72.1623 120.441 71.3927 120.417 70.8431 120.572C69.3277 120.989 69.0009 123.053 69.8937 124.019C69.5179 124.752 69.8132 126.054 71.5131 126.529C69.1955 126.82 68.7647 124.553 69.1658 123.885C68.1169 122.671 68.989 120.498 70.4969 120.082C70.6722 120.033 70.8743 120.006 71.0852 120.006L71.0956 120ZM67.337 122.318C67.3527 122.317 67.3704 122.318 67.3863 122.318C67.2303 122.845 67.6596 123.248 68.1811 123.24C68.1128 123.748 67.6433 124.163 67.1367 124.163C66.6301 124.163 66.2706 123.748 66.3389 123.24C66.408 122.747 66.8467 122.343 67.337 122.318ZM68.0456 124.873C68.0614 124.872 68.0762 124.873 68.092 124.873C68.5986 124.873 68.9566 125.289 68.8868 125.795C68.8199 126.305 68.3475 126.718 67.8394 126.718C67.3328 126.718 66.9762 126.305 67.0476 125.795C67.1138 125.305 67.5568 124.898 68.0456 124.873ZM192.839 126.018C192.846 126.017 192.855 126.018 192.862 126.018C193.1 126.018 193.306 126.412 193.306 126.898C193.306 127.382 193.1 127.774 192.862 127.774C192.624 127.774 192.43 127.382 192.43 126.898C192.43 126.427 192.612 126.042 192.839 126.018ZM72.9482 127.428C72.559 127.924 72.0955 128.215 71.5532 128.383C72.5486 128.698 73.4994 128.783 73.9599 128.319L72.9482 127.428ZM193.582 127.857C193.586 127.857 193.591 127.857 193.597 127.857C193.775 127.857 193.91 128.141 193.91 128.484C193.91 128.832 193.775 129.111 193.597 129.111C193.433 129.111 193.286 128.832 193.286 128.484C193.286 128.152 193.425 127.875 193.582 127.857ZM79.7821 128.67C79.7979 128.669 79.8157 128.67 79.8314 128.67C80.341 128.67 80.6946 129.08 80.6263 129.587C80.5564 130.096 80.0914 130.512 79.5819 130.512C79.0738 130.512 78.7157 130.096 78.7841 129.587C78.8517 129.096 79.2933 128.694 79.7821 128.67ZM70.69 129.912C70.6574 130.579 70.6045 131.251 70.5385 131.918C70.9842 131.216 71.2917 130.387 70.797 129.986C70.7643 129.96 70.7267 129.935 70.6896 129.914L70.69 129.912ZM80.4655 130.82C80.467 131.159 80.4073 131.551 80.0421 131.638C79.5949 131.747 79.4241 131.405 79.4181 131.139C79.739 131.211 80.2442 131.108 80.4655 130.82Z" fill="#8A8A8A"/>
</g>
<defs>
<clipPath id="clip0_107_20218">
<rect width="200" height="200" fill="white"/>
</clipPath>
</defs>
</svg>
