<svg width="200" height="200" viewBox="0 0 200 200" fill="none" xmlns="http://www.w3.org/2000/svg">
<path d="M142.043 39.0546C131.608 29.9807 119.509 23.7802 106.881 20.453C106.579 20.3774 106.276 20.3018 105.898 20.1506L101.437 19.1676C97.8829 18.4114 90.3213 17.1259 80.0374 17.504L75.7273 17.7309C72.7783 17.9577 64.8386 19.0163 54.6304 22.6459L50.6983 24.3095C47.7493 25.5193 41.4732 28.544 33.3066 34.4421L30.1307 37.0886C28.1647 38.7522 23.0228 43.1379 18.6371 48.8091L16.293 51.7582L46.6907 71.0403L49.4885 73.5356L54.1011 77.8458C50.6227 81.3241 48.203 84.5756 46.6151 87.7515C46.237 88.5077 36.8606 107.185 29.4502 130.701L27.3329 137.507L42.0025 131.836L29.3746 182.574L35.7263 179.928C35.9532 179.852 61.5871 169.115 78.8276 163.821L91.2286 160.267H91.3043L91.3799 160.192C94.0264 157.621 95.9168 154.067 96.8242 149.681L101.891 160.192L102.193 160.116C103.705 159.587 105.293 159.284 106.957 159.284C124.349 158.906 144.236 166.241 144.387 166.317L154.973 170.249L129.944 135.465L149.982 157.167L152.478 154.143C152.629 153.916 157.015 148.547 161.325 139.624L162.988 135.995C163.215 135.541 163.367 135.087 163.593 134.482C177.96 100.909 170.248 63.403 142.043 39.0546Z" fill="white"/>
<path d="M99.3203 69.755C99.4715 69.8306 99.6984 69.9062 99.8496 69.9062C99.6984 69.8306 99.5472 69.755 99.3203 69.755Z" fill="#0074B8"/>
<path d="M80.5387 41.1328L75.6047 56.3317C79.4612 55.5944 83.431 55.2541 87.5143 55.4243L80.5387 41.1328ZM99.7641 42.2103L90.4633 55.6511C92.505 55.878 94.6033 56.1615 96.7017 56.6152C98.6299 57.0689 100.558 57.5793 102.373 58.2032L99.7641 42.2103ZM62.5042 45.2728L61.9371 61.0388C65.4533 59.2807 69.1396 57.8629 72.9393 56.9555L62.5042 45.2728ZM117.912 48.789L104.925 59.1106C108.838 60.6418 112.468 62.6267 115.814 64.9519L117.912 48.789ZM45.604 53.7796L49.744 69.5456C52.6363 66.8801 56.1525 64.2714 59.6119 62.3432L45.604 53.7796ZM132.6 59.5076L117.231 65.916C120.577 68.4114 123.527 71.3037 126.135 74.4796L132.6 59.5076ZM144.397 74.7631L127.723 76.5212C130.162 79.8105 132.26 83.4401 133.905 87.2398L144.397 74.7631ZM83.7713 77.7689C58.3075 78.1659 51.4454 103.856 51.4454 103.856C53.6004 101.701 82.6938 103.062 82.6938 103.062C78.0434 121.891 55.9256 122.231 55.9256 122.231L45.207 164.765L80.3686 152.686C88.5351 149.68 93.4691 134.651 93.4691 134.651L96.9852 142.08C96.9852 142.08 100.898 148.092 110.029 149.34H110.086C116.097 149.51 122.676 150.19 129.538 151.665L108.328 122.742C110.539 123.706 114.112 125.747 117.061 127.505C119.103 123.139 119.387 115.312 119.273 111.683C116.494 79.7538 87.6277 77.8823 87.6277 77.8823C86.3233 77.7689 85.019 77.7122 83.7713 77.7689ZM135.493 90.1321C136.74 93.9318 137.591 97.845 137.988 101.928L150.635 92.8543L135.493 90.1321ZM138.158 106.295C138.328 110.208 137.988 113.327 137.194 117.297L152.677 113.384L138.158 106.295ZM136.57 121.607C135.493 125.237 134.585 127.108 132.714 130.228L147.799 132.099L136.57 121.607Z" fill="#FFB81A"/>
<path d="M82.6926 21.17C81.8986 21.17 81.1046 21.17 80.2539 21.2267L90.0084 45.4428L102.315 23.1549C102.258 23.0982 94.6588 20.9998 82.6926 21.17ZM77.4183 21.3401C77.4183 21.3401 68.4578 21.6804 55.8677 26.1606L72.4844 46.2935L77.4183 21.3401ZM104.81 23.6086L106.909 49.5828L125.283 31.9453C125.283 32.002 117.741 27.1247 104.81 23.6086ZM53.4858 27.2382C53.4858 27.2382 46.2266 29.6768 35.3946 37.5031L55.811 52.5318L53.4858 27.2382ZM127.552 33.3064L121.824 58.7134L144.622 47.3143C144.622 47.371 138.838 40.5088 127.552 33.3064ZM33.4097 39.2044C33.4097 39.2044 26.8311 44.2518 21.3867 51.2274L43.0508 65.0085L33.4097 39.2044ZM145.756 48.9022L132.769 71.5304L157.95 67.3337C157.95 67.277 154.49 59.0537 145.756 48.9022ZM84.7909 59.791C70.4994 60.0178 58.8735 67.9008 53.3724 72.778L59.157 78.2224C55.9811 81.1147 51.9546 85.1413 49.7428 89.6783C49.7428 89.6783 40.2719 108.28 32.7859 132.156L40.2152 129.32C40.2152 129.32 40.4987 128.243 41.1225 126.428C46.2834 111.569 47.9847 110.945 47.9847 110.945C50.1398 108.337 55.1872 108.28 55.1872 108.28L72.9948 107.826C72.9948 107.826 69.8189 116.843 49.4025 117.127L34.3738 176.902C34.3738 176.902 75.0364 159.945 88.9876 157.903H89.0443H89.101C96.9273 150.304 93.5813 134.651 93.5813 134.651C93.5813 134.651 88.6473 149.68 80.4808 152.685L45.3193 164.765L56.0378 122.231C56.0378 122.231 78.1556 121.834 82.806 103.062C82.806 103.062 53.7126 101.758 51.5576 103.856C51.5576 103.856 59.1003 75.5569 87.7967 77.8821C87.7967 77.8821 116.663 79.6969 119.442 111.683C119.555 115.312 119.272 123.138 117.23 127.505C114.281 125.747 110.708 123.762 108.497 122.741L129.764 151.665C122.901 150.133 116.266 149.51 110.311 149.339H110.255C101.067 148.092 97.2109 142.08 97.2109 142.08L103.846 156.145C122.675 154.727 145.813 163.291 145.813 163.291L123.298 131.929C126.588 121.38 126.021 112.363 126.021 112.363C124.886 94.9525 115.586 78.903 97.2109 73.0616C97.2109 73.0616 84.2805 68.6381 73.5052 72.4945C73.5052 72.4945 81.4449 65.0085 99.2525 69.829L100.103 70.0559C118.761 75.9539 126.304 89.9051 129.423 101.191C130.387 104.877 132.372 113.554 130.274 129.377C130.274 129.377 135.151 120.246 134.754 107.996C134.414 81.9087 113.147 60.1879 86.4356 59.7342C85.755 59.791 85.3013 59.791 84.7909 59.791ZM159.084 68.9216L139.915 86.6158L165.209 90.0752C165.209 90.0752 164.358 81.1714 159.084 68.9216ZM165.549 92.4572L142.978 103.97L165.719 113.781C165.719 113.781 167.25 105.274 165.549 92.4572ZM165.379 116.22L140.369 120.36L159.027 136.636C159.027 136.579 163.054 128.923 165.379 116.22ZM132.259 133.517L149.783 152.118C149.783 152.118 154.036 146.958 158.233 138.281L132.259 133.517Z" fill="#0038A8"/>
</svg>
