<svg width="200" height="200" viewBox="0 0 200 200" fill="none" xmlns="http://www.w3.org/2000/svg">
<g clip-path="url(#clip0_107_20219)">
<path d="M55.5899 30.7424L57.5079 57.732L22.4604 57.7141L29.9289 89.5502C28.9065 89.6655 28.0161 89.925 27.2572 90.3229C26.1038 89.7347 24.6985 89.4175 23.1732 89.4175C21.4518 89.4175 19.8186 89.8097 18.5257 90.5363C18.4098 90.519 17.9168 90.3748 17.9168 90.3748C14.8131 89.6828 8.42523 89.9308 8.14669 89.9308H8.12074C5.79096 89.9423 3.15665 89.9538 1.44743 91.7531C-0.92767 94.2501 0.290503 98.8808 0.482248 99.5382C1.03793 101.482 2.37519 105.553 5.96627 105.697H5.96743C6.07642 105.703 6.49451 105.691 6.52046 105.691C6.65886 105.68 9.89402 105.415 12.5733 105.415C13.9042 105.415 15.6245 105.651 16.0154 105.651C16.6579 105.651 17.4854 105.536 18.3873 105.109C19.7362 105.778 21.1064 105.87 21.6288 105.876C21.6398 105.876 28.3212 105.882 30.4595 105.876L22.4604 141.255L58.5863 141.226L55.8004 166.029L55.4884 168.861L55.44 169.258H125.772L125.743 168.878L125.575 166.162L123.557 137.213C127.392 136.048 130.973 134.652 134.237 133.02C140.235 130.027 145.136 126.284 148.804 121.902C152.731 117.219 155.222 111.816 156.237 105.836L158.544 105.847L162.69 109.296L169.328 110.276L171.271 109.382L173.024 110.068L181.473 107.998L182.914 107.018L184.333 107.087C184.333 107.087 189.904 104.382 191.282 103.633C192.464 102.993 194.154 102.064 195.451 101.274C196.097 100.876 200.151 98.8923 199.996 97.5256C199.915 96.2396 195.884 94.4865 195.192 94.1001C194.119 93.5062 192.637 92.7449 190.792 91.828C187.684 90.2941 184.535 88.8351 184.5 88.8235C184.16 88.6621 182.493 88.8812 182.493 88.8812L181.213 87.8259L172.771 85.826L170.856 86.6639L169.103 85.9667L162.154 87.12L158.873 90.7554L155.655 90.7266C154.305 85.5486 151.71 80.8198 147.927 76.643C144.093 72.4061 139.064 68.7615 132.974 65.8101C129.647 64.1989 126.048 62.8166 122.213 61.6655L125.599 30.7424H55.5899ZM87.1261 50.8021H98.2732V57.8214C97.0968 57.7799 95.9146 57.7516 94.7267 57.7516L87.1261 57.7481V50.8021ZM94.225 76.4383C95.2169 76.4383 96.1511 76.455 97.068 76.4752L89.7903 83.9195H119.772L119.974 82.0574C121.911 83.4639 123.457 85.1403 124.645 87.1397C126.559 90.3806 127.54 94.5211 127.54 99.4575C127.54 102.341 127.199 104.994 126.519 107.335C125.896 109.474 124.979 111.424 123.791 113.113C123.255 113.874 122.667 114.584 122.027 115.258L120.095 87.5722L87.1261 87.5779V76.4596C89.3693 76.4533 93.8271 76.4383 94.225 76.4383ZM58.8401 76.5438L61.216 109.988H99.294V123.551C95.5513 123.857 91.7049 123.932 87.9219 123.932H84.8136L93.8213 116.96H61.3082L60.524 123.932H54.6124L56.9832 99.7112C57.0005 99.5382 57.0005 99.3652 56.9832 99.198L54.6424 76.5565C54.6424 76.5565 58.0846 76.5467 58.8401 76.5438ZM99.294 141.097V148.917H82.5934V141.201L94.7267 141.189C96.2606 141.189 97.7831 141.155 99.294 141.097Z" fill="white"/>
<path d="M58.6953 33.6486L60.2523 57.7537L84.219 57.7428V47.8908H101.179L101.185 76.415L96.6983 81.0105H117.17L122.355 33.6486H58.6953ZM84.219 76.539L61.6652 76.5499L63.9027 107.046V107.08H102.2V123.256C106.536 122.737 110.677 121.843 114.356 120.309C116.248 119.514 117.92 118.597 119.379 117.541L117.395 90.5009L84.219 90.4836V76.539ZM63.9027 119.865L58.6953 166.351H122.672L120.809 138.14C114.794 139.645 108.468 140.551 102.2 140.937V151.825H79.6921L79.6806 124.231L85.3205 119.865H63.9027Z" fill="#C41230"/>
<path d="M183.425 91.152L181.355 93.2641L180.982 93.1322L180.599 90.318L172.769 88.3941L171.055 91.4822L170.544 91.4562L169.101 88.5347L163.521 89.4386L159.985 93.2641L153.59 93.2771C150.719 78.427 137.583 69.0646 121.932 64.2587L120.301 79.1536C126.167 82.8666 130.12 89.0948 130.12 99.4562C130.12 125.312 104.816 126.503 87.9263 126.503H82.5906L82.595 138.613H94.7318C121.966 138.613 150.099 128.782 153.781 104.91C153.781 104.91 153.894 104.213 154.011 103.24L159.632 103.274L163.393 106.823L169.326 107.695L170.566 104.754L171.006 104.694L173.024 107.489L180.84 105.502L181.065 102.584L181.549 102.425L183.736 104.576C184.323 104.435 195.952 98.4412 195.915 97.7089C195.869 96.9123 183.425 91.152 183.425 91.152ZM54.4221 99.4562L51.7845 73.98L98.269 73.957L98.2726 60.2912L25.6762 60.3193L33.1917 92.1648C32.5336 92.0913 31.9137 92.0387 31.3615 92.0387C29.5428 92.0387 27.8142 92.8821 27.4041 93.3499C27.3479 93.4105 27.1453 93.3203 26.8634 93.1286C26.033 92.4027 24.6958 91.9882 23.1734 91.9882C21.7944 91.9882 20.4753 92.3241 19.5476 92.9181C19.1944 93.0457 18.8678 93.1055 18.5398 93.1055C18.1232 93.1055 17.1947 92.841 17.1947 92.841L17.1839 92.8388C16.6736 92.6853 16.0868 92.5101 15.4179 92.5101C15.4179 92.5101 14.0727 92.4892 13.3815 92.4669H13.3735C13.3735 92.4669 9.70297 92.4294 9.28199 92.4705C9.05204 92.4971 4.53594 92.2787 3.31051 93.5229C2.72085 94.1277 2.48443 95.103 2.5666 96.4762C2.61995 97.4003 2.80735 98.3151 2.95008 98.8197C3.9535 102.282 5.22003 103.075 6.11388 103.123C6.56513 103.199 9.86372 102.913 12.5734 102.836C13.8435 102.8 14.7943 102.89 15.4027 102.996C15.5454 103.033 15.748 103.075 16.0154 103.075C16.6015 103.075 17.4917 102.876 18.4274 101.947L18.4577 101.951C19.4495 103.206 21.3057 103.296 21.6741 103.3H21.6777C22.1289 103.302 23.3918 103.303 25.2437 103.303C27.9116 103.303 31.2375 103.3 33.687 103.29L25.6762 138.613H58.8741L60.2379 126.503H51.7759L54.4214 99.4562" fill="black"/>
</g>
<defs>
<clipPath id="clip0_107_20219">
<rect width="200" height="200" fill="white"/>
</clipPath>
</defs>
</svg>
