<svg width="200" height="200" viewBox="0 0 200 200" fill="none" xmlns="http://www.w3.org/2000/svg">
<g clip-path="url(#clip0_107_20231)">
<path d="M194.298 71.5587L188.295 68.2795C185.362 66.9429 179.522 63.8613 178.111 63.1017C175.82 62.3248 173.964 60.7712 171.508 60.1657C169.303 59.0006 166.887 58.3094 164.554 57.404C162.7 56.4959 160.498 56.3216 158.642 55.3307C152.296 53.6028 145.993 51.7065 139.607 50.15C139.218 50.1956 139.087 49.5474 138.744 50.0215C138.481 55.502 138.481 62.3674 138.353 68.1514C138.353 68.1514 141.749 69.2594 142.885 69.6193C144.268 70.0505 144.396 71.7356 144.57 72.8122C144.916 74.3687 145.087 75.9195 145.607 77.3874C146.21 82.351 147.289 87.8769 147.892 92.7983C148.066 93.6637 148.411 94.7003 147.98 95.5171C146.469 95.2601 145.259 94.3976 143.833 93.9635C142.411 93.4894 140.858 92.8411 139.607 92.4955C139.13 98.5415 139.778 105.319 138.57 111.145C138.05 112.353 138.31 113.821 137.533 114.9C135.246 115.117 133.518 113.778 131.316 113.215C130.799 113.044 130.154 113.175 129.762 112.698C129.637 96.7281 130.325 82.8283 130.365 67.4173L130.582 66.512C132.872 66.6833 135.117 67.3745 137.319 67.5458C137.665 61.8911 137.49 55.6764 137.836 50.0217L137.533 49.4163C136.108 49.3734 134.772 49.1592 133.478 48.8108C130.196 48.728 128.12 47.6484 124.756 47.777C121 46.9573 117.116 46.9574 113.361 46.3947L107.489 46.092C99.8496 45.7921 92.1638 46.2662 84.57 46.092L84.2673 46.309L84.1788 50.67C84.2216 52.5663 84.1359 54.3799 83.876 56.1505C83.7047 56.1962 83.6618 56.022 83.5333 55.9364C83.1021 53.1718 81.5913 50.7129 80.8544 47.9483C80.6403 47.5171 80.5974 46.9573 80.3375 46.5261C69.1595 47.5599 58.8868 48.7709 48.3078 51.2727C47.7024 51.6611 46.7971 51.404 46.2345 51.921C38.5949 53.6031 31.4749 56.539 24.3091 59.3464C23.401 59.5605 22.7098 60.2088 21.8045 60.3802C17.2721 62.1081 13.0853 64.7841 8.55325 66.5119C7.81928 67.1573 6.73969 67.1573 6.17708 67.8484C6.00573 74.5827 5.66016 82.568 5.66016 89.6044C7.47371 88.5678 9.33007 87.6624 11.1435 86.4943H11.7461C11.7461 91.0295 11.7461 96.1213 11.4434 100.785C11.4434 106.483 11.0978 113.346 10.9265 118.828C10.5809 126.254 10.1925 134.322 11.2292 141.316C11.8318 145.977 13.6911 151.115 18.2662 153.102C20.4224 154.479 23.4469 154.008 25.863 153.531C33.1999 150.855 39.332 145.029 44.2924 138.811C47.1855 134.582 49.95 130.309 51.1125 125.342C51.6322 124.437 51.7179 123.055 52.2806 122.021C52.669 126.207 51.9778 131.733 52.0635 135.92C55.3449 134.71 58.5379 133.33 61.9083 132.293C68.5112 129.746 75.5028 128.15 82.4965 126.596C82.4965 121.201 82.9277 116.623 82.9277 110.925L83.1448 110.625L83.359 110.84C84.784 115.372 86.6404 119.69 88.1084 124.222C88.4968 124.828 88.0655 126.121 89.2307 126.076C94.3257 125.387 99.589 126.076 104.901 125.861C106.195 125.907 107.446 126.121 108.611 126.467C112.367 126.941 115.865 128.021 119.49 128.755C120.355 129.229 121.477 129.054 122.297 129.703C126.227 130.437 129.637 132.336 133.478 133.198C139.304 135.706 145.131 138.162 150.785 141.101C151.605 141.101 152.122 141.875 152.944 141.92C152.901 139.933 152.987 137.905 153.247 135.789C153.678 137.517 153.761 139.287 153.981 141.184C154.544 145.07 154.886 149.514 155.749 153.529C161.621 153.575 166.758 153.832 172.542 153.747C172.713 153.055 173.016 152.41 173.058 151.676C173.361 150.551 177.334 135.054 177.505 133.718C178.239 130.828 187.132 90.5504 187.863 90.034C190.022 90.985 191.879 92.6244 194.078 93.444C194.426 86.5384 194.341 78.5076 194.298 71.5587ZM37.649 106.194C37.5234 108.61 37.392 111.158 37.2635 113.877C36.9608 115.776 36.658 118.495 35.8812 120.611C35.0187 123.547 32.991 126.394 30.4007 128.25C29.7096 128.339 29.1469 128.25 28.9756 127.519C29.1041 121.516 29.0613 116.253 29.364 109.904C29.4497 99.2432 30.0095 89.4013 30.098 78.8253C30.355 77.9628 30.0552 76.5834 31.2204 76.3664C33.4623 75.2011 35.8384 74.5528 38.1688 73.6476L38.3859 74.5072C38.3002 85.3885 37.7376 94.9276 37.649 106.194ZM59.8397 107.836C59.8397 107.836 59.6227 112.194 59.4056 114.264C58.9315 115.041 57.8977 114.913 57.2494 115.518C55.91 115.861 54.6591 116.469 53.4082 116.986C53.8395 114.956 54.0537 95.9634 54.5306 87.0278C54.6163 81.2873 54.7876 75.0699 55.0475 68.8123C55.5644 68.0326 56.8611 68.164 57.7663 67.8613C58.6317 67.5586 59.537 67.43 60.4424 67.2587L60.6594 67.5586C60.2276 80.5492 60.2704 94.101 59.8396 107.833M75.8954 109.818C76.1981 103.601 76.0696 98.2028 76.4151 92.1173C76.9749 92.6371 81.1189 104.855 82.4155 108.996C81.0332 109.601 76.2409 110.335 75.8954 109.818ZM90.615 67.5557C90.6607 70.0175 90.4437 72.3051 90.4008 74.6784C90.0981 74.033 89.6668 73.2562 89.5812 72.4337C88.5016 69.5863 87.4221 66.8218 86.5596 63.9287C87.7248 63.5431 89.1927 63.8002 90.4864 63.7145C91.0034 65.1825 90.4008 66.0907 90.615 67.5557ZM111.94 82.3608C111.595 91.3399 111.809 99.1964 111.292 108.35V108.695C109.695 108.564 107.796 108.478 106.026 108.35C105.637 106.922 105.897 104.808 105.811 103.6C106.026 89.8318 106.243 77.6143 106.631 63.9284L106.76 63.7999C108.444 64.1912 110.387 63.9285 112.026 64.4482C112.543 70.6198 111.855 76.2354 111.94 82.3608ZM167.582 99.8873C167.194 97.9452 164.558 80.2472 164.041 77.785L164.127 77.2681C165.983 77.6565 167.668 78.5191 169.307 79.3387C169.956 79.9013 170.904 79.947 171.292 80.8095C171.423 83.6997 168.014 98.0737 167.582 99.8873Z" fill="black"/>
<path fill-rule="evenodd" clip-rule="evenodd" d="M199.958 71.5236C199.946 69.466 198.817 67.5774 197.012 66.591L190.829 63.2135L190.642 63.1284C187.904 61.8805 182.219 58.8846 180.795 58.1176L180.378 57.8931L179.929 57.741C179.377 57.5538 178.87 57.2843 177.84 56.7369C177.74 56.6837 177.636 56.628 177.525 56.5694C176.57 56.0626 175.21 55.3536 173.562 54.8606C171.776 53.9843 169.741 53.2591 168.168 52.6985C167.647 52.5129 167.177 52.3453 166.783 52.1963C165.484 51.5948 164.162 51.232 163.321 51.0013C163.247 50.981 163.177 50.9616 163.11 50.9432C162.042 50.6473 161.608 50.4973 161.308 50.337L160.745 50.0365L160.129 49.8689C158.126 49.3233 156.077 48.7462 154 48.1615C149.935 47.0163 145.764 45.8418 141.626 44.817C141.598 44.8031 141.57 44.7893 141.542 44.7755L141.084 43.86L137.704 43.7582C136.75 43.7296 135.851 43.5875 134.95 43.345L134.297 43.1691L133.621 43.152C132.616 43.1267 131.813 42.969 130.502 42.7117C130.415 42.6947 130.326 42.6773 130.235 42.6594C128.953 42.4085 127.307 42.1039 125.284 42.1059C123.274 41.7108 121.313 41.5098 119.568 41.3519C119.178 41.3166 118.801 41.2836 118.436 41.2515C116.891 41.1161 115.546 40.9983 114.2 40.7966L113.928 40.7558L107.746 40.4371L107.711 40.4358C103.719 40.279 99.7473 40.3257 95.9249 40.3849C95.5868 40.3902 95.2501 40.3955 94.9146 40.4008C91.411 40.4563 88.0429 40.5096 84.7001 40.4329L82.8094 40.3895L82.4518 40.6458L79.8165 40.8896C68.5701 41.9297 57.9796 43.1687 47.0054 45.764L46.065 45.9864L46.0273 46.0105C45.7478 46.0603 45.3898 46.1375 45.0094 46.2574C44.7463 46.3403 44.4568 46.4478 44.1527 46.5886C37.0711 48.2363 30.4283 50.8533 24.2328 53.294C23.6572 53.5207 23.0854 53.746 22.5176 53.9688C22.0453 54.1103 21.6442 54.2741 21.3273 54.4176C20.9704 54.5792 20.636 54.7559 20.4659 54.8458C20.4487 54.8548 20.4332 54.863 20.4195 54.8702C20.408 54.8763 20.3971 54.882 20.3867 54.8875L20.2582 54.9118L19.7884 55.0909C17.2466 56.0599 14.8455 57.2728 12.7374 58.3376L12.6271 58.3934C10.402 59.5172 8.48309 60.4807 6.53711 61.2226L5.58265 61.5864L5.23353 61.8935C5.00167 61.9831 4.47444 62.1881 3.91969 62.4984C3.29923 62.8454 2.50168 63.3975 1.7876 64.2746L0.567899 65.7729L0.518757 67.7042C0.469296 69.6481 0.403794 71.7324 0.336043 73.8882C0.174422 79.031 0 84.5812 0 89.6042V99.3598L5.99649 95.932C5.95342 97.4578 5.88963 98.9623 5.79513 100.418L5.78324 100.601V100.785C5.78324 104.727 5.61493 109.192 5.45379 113.467C5.38736 115.23 5.32214 116.96 5.27044 118.608C5.26377 118.751 5.25706 118.895 5.25033 119.039C4.91631 126.201 4.52332 134.628 5.6227 142.094C6.27481 147.073 8.46481 154.781 15.6339 158.124C17.8572 159.405 20.1936 159.679 21.9902 159.672C23.9011 159.664 25.7188 159.329 26.9594 159.084L27.3902 158.999L27.8028 158.848C36.0418 155.843 42.6491 149.69 47.7333 143.552L54.0234 141.231C55.32 140.752 56.4911 140.295 57.6037 139.861C59.6524 139.062 61.5027 138.34 63.5726 137.703L63.7615 137.645L63.9459 137.574C70.0965 135.201 76.689 133.684 83.7242 132.121L87.0262 131.388C87.8909 131.68 88.738 131.759 89.4525 131.731L89.7217 131.721L89.9887 131.685C92.0687 131.404 94.2835 131.391 96.8566 131.449C97.3388 131.46 97.8399 131.474 98.3559 131.488C100.385 131.544 102.643 131.606 104.884 131.526C105.621 131.567 106.335 131.696 107.002 131.893L107.445 132.025L107.902 132.083C109.482 132.282 111.066 132.616 112.809 133.024C113.248 133.127 113.711 133.238 114.188 133.353C115.324 133.625 116.548 133.919 117.765 134.177C118.16 134.328 118.514 134.429 118.794 134.5C119.034 134.56 119.251 134.606 119.413 134.638L119.883 135.01L121.258 135.267C122.694 135.535 124.116 136.03 125.958 136.711C126.088 136.759 126.22 136.808 126.355 136.858C127.869 137.42 129.713 138.105 131.695 138.593C132.03 138.737 132.365 138.881 132.698 139.024C138.064 141.33 143.194 143.535 148.175 146.123L148.951 146.527C149.275 149.183 149.659 152.129 150.215 154.718L151.168 159.154L155.705 159.189C157.801 159.206 159.909 159.253 162.036 159.301C165.506 159.38 169.027 159.459 172.626 159.406L176.986 159.341L178.036 155.108C178.036 155.109 178.036 155.109 178.036 155.108C178.036 155.107 178.039 155.094 178.047 155.068C178.056 155.037 178.069 154.995 178.089 154.931C178.094 154.914 178.103 154.886 178.115 154.849C178.154 154.728 178.22 154.518 178.267 154.363C178.379 153.994 178.542 153.416 178.64 152.707C178.983 151.392 179.913 147.765 180.82 144.157C181.348 142.061 181.875 139.944 182.282 138.261C182.574 137.055 182.894 135.72 183.048 134.883C183.323 133.748 184.092 130.35 185.088 125.948C186.004 121.905 187.111 117.014 188.203 112.251C189.357 107.216 190.506 102.275 191.426 98.4773C191.646 98.5715 191.872 98.6621 192.101 98.7477L199.342 101.447L199.731 93.729C200.061 87.1866 200.012 79.6968 199.969 73.1786C199.965 72.6194 199.962 72.0673 199.958 71.5236ZM187.668 90.4788C187.757 90.2155 187.823 90.0626 187.864 90.0338C188.093 90.1347 188.318 90.2432 188.541 90.3578C189.283 90.7391 189.996 91.1863 190.708 91.633C191.386 92.058 192.063 92.4826 192.764 92.8496C192.792 92.8644 192.82 92.8791 192.849 92.8936C193.249 93.1 193.657 93.2869 194.078 93.4438C194.179 91.4368 194.244 89.3347 194.284 87.1917C194.37 82.5315 194.338 77.678 194.309 73.1885C194.305 72.6393 194.301 72.0957 194.298 71.5585L188.295 68.2793C185.362 66.9427 179.522 63.8611 178.111 63.1014C177.096 62.7573 176.167 62.2608 175.233 61.7618C174.058 61.1343 172.876 60.5028 171.508 60.1655C169.981 59.3584 168.352 58.7787 166.72 58.1978C165.996 57.94 165.271 57.682 164.554 57.4038C163.671 56.9711 162.708 56.705 161.742 56.4378C160.681 56.1442 159.614 55.8492 158.642 55.3304C156.536 54.7569 154.434 54.1648 152.332 53.5728C149.675 52.8241 147.017 52.0754 144.351 51.3644C144.048 51.2837 143.746 51.2036 143.443 51.1239C142.167 50.7883 140.889 50.4622 139.607 50.1498C139.538 50.1579 139.477 50.144 139.421 50.1184C139.381 50.0998 139.344 50.0752 139.308 50.0483C139.28 50.0263 139.252 50.0028 139.225 49.9798C139.074 49.8518 138.946 49.7425 138.744 50.0213C138.743 50.0398 138.743 50.0583 138.742 50.0768C138.678 51.4195 138.63 52.8446 138.591 54.3159C138.581 54.7047 138.572 55.0967 138.563 55.4914C138.561 55.5676 138.56 55.644 138.558 55.7205C138.558 55.7229 138.558 55.7253 138.558 55.7278C138.513 57.7917 138.483 59.9219 138.454 62.0237C138.428 63.9326 138.402 65.8182 138.365 67.6095C138.361 67.791 138.357 67.9716 138.353 68.1511C138.353 68.1511 141.707 69.2454 142.864 69.6122C142.871 69.6145 142.878 69.6168 142.885 69.6191C144.148 70.0128 144.364 71.4517 144.525 72.5185C144.541 72.6201 144.555 72.7184 144.57 72.812C144.682 73.3139 144.775 73.8152 144.868 74.3133C145.063 75.36 145.255 76.3926 145.607 77.3871C145.911 79.8911 146.337 82.5381 146.761 85.1784C146.982 86.5558 147.203 87.9314 147.407 89.2839C147.586 90.4782 147.752 91.6545 147.892 92.7981C147.919 92.9317 147.95 93.0694 147.981 93.2098C148.065 93.5793 148.152 93.9671 148.18 94.347C148.209 94.7573 148.17 95.1583 147.98 95.5169C147.096 95.3665 146.315 95.0087 145.533 94.6508C145.407 94.5929 145.28 94.5351 145.153 94.478C144.724 94.2852 144.29 94.1023 143.834 93.9633C143.624 93.8933 143.411 93.8195 143.196 93.7434C143.028 93.6838 142.859 93.6227 142.69 93.561C142.604 93.5297 142.518 93.4982 142.432 93.4667C142.376 93.446 142.32 93.4253 142.264 93.4046C142.211 93.3852 142.158 93.3657 142.105 93.3463C141.226 93.0223 140.361 92.7037 139.607 92.4953C139.456 94.4027 139.418 96.3828 139.398 98.3829C139.394 98.7771 139.391 99.1722 139.387 99.5676C139.355 103.525 139.322 107.519 138.57 111.144C138.348 111.661 138.268 112.226 138.189 112.787C138.083 113.538 137.978 114.282 137.533 114.9C136.052 115.041 134.805 114.528 133.512 113.997C132.809 113.708 132.092 113.413 131.316 113.215C131.144 113.158 130.958 113.134 130.772 113.111C130.398 113.064 130.024 113.016 129.762 112.698C129.692 103.791 129.875 95.5274 130.058 87.2868C130.169 82.2861 130.28 77.2937 130.333 72.1708C130.342 71.298 130.35 70.4215 130.356 69.5404C130.36 68.8356 130.363 68.128 130.365 67.4171L130.582 66.5118C130.957 66.5398 131.33 66.5817 131.702 66.633C132.042 66.6798 132.381 66.7345 132.719 66.7935C133.161 66.8706 133.601 66.9551 134.039 67.0392C135.143 67.2513 136.236 67.4613 137.319 67.5456C137.432 65.704 137.489 63.8031 137.527 61.8815C137.548 60.8528 137.563 59.8182 137.578 58.7835C137.594 57.6835 137.609 56.5835 137.632 55.4906C137.633 55.4399 137.634 55.3893 137.635 55.3386C137.673 53.5352 137.73 51.7521 137.836 50.0215L137.533 49.4161C136.108 49.3732 134.772 49.159 133.478 48.8106C133.363 48.8077 133.249 48.8035 133.136 48.7983C131.784 48.7348 130.631 48.5071 129.49 48.2817C128.026 47.9925 126.58 47.7071 124.756 47.7768C122.535 47.292 120.268 47.0939 118.01 46.8966C116.451 46.7603 114.895 46.6244 113.361 46.3945L107.489 46.0918C103.33 45.9285 99.1561 45.9947 94.9912 46.0607C92.0624 46.1072 89.1379 46.1535 86.2254 46.12C85.6802 46.1137 85.1355 46.1047 84.5912 46.0923C84.5842 46.0921 84.5772 46.0919 84.5703 46.0918L84.2675 46.3088L84.179 50.6698C84.2146 52.2447 84.1615 53.7625 83.9936 55.246C83.9698 55.4569 83.9436 55.6671 83.915 55.8766C83.9025 55.968 83.8896 56.0592 83.8763 56.1503C83.8151 56.1666 83.7703 56.1549 83.7321 56.1292C83.6994 56.1072 83.6717 56.0749 83.6426 56.0413C83.6105 56.004 83.5769 55.965 83.5335 55.9361C83.2866 54.3528 82.6855 52.8698 82.0785 51.3722C81.991 51.1562 81.9034 50.94 81.8167 50.7232C81.8031 50.6892 81.7895 50.6551 81.7759 50.621C81.4288 49.7488 81.0991 48.8653 80.8547 47.9481C80.7582 47.7539 80.6965 47.5336 80.6341 47.3107C80.5579 47.0387 80.4806 46.7629 80.3377 46.5259C79.7555 46.5797 79.1758 46.6341 78.5983 46.689C68.0887 47.6894 58.336 48.9009 48.3081 51.2724C48.0323 51.4493 47.6945 51.4923 47.3551 51.5356C46.9492 51.5872 46.5411 51.6392 46.2347 51.9207C39.2929 53.4492 32.7802 56.0129 26.2723 58.5747C25.6181 58.8322 24.9639 59.0897 24.3094 59.3461C23.8718 59.4493 23.4846 59.6533 23.0995 59.8562C22.6854 60.0743 22.2738 60.2912 21.8047 60.38C19.5385 61.2439 17.3586 62.3449 15.1788 63.4459C12.9991 64.5469 10.8195 65.6478 8.55347 66.5116C8.21103 66.8128 7.79335 66.9734 7.38805 67.1293C6.92465 67.3075 6.47742 67.4795 6.1773 67.8482C6.12601 69.864 6.05911 71.9919 5.99053 74.173C5.89845 77.1017 5.80336 80.1262 5.73902 83.1035C5.69121 85.316 5.66037 87.5024 5.66037 89.6042C5.80107 89.5238 5.94202 89.4442 6.08319 89.3651C6.58031 89.0868 7.08013 88.8161 7.5809 88.5448C8.77096 87.9001 9.96639 87.2525 11.1437 86.4941H11.7464C11.7464 86.8034 11.7463 87.1153 11.7463 87.4295C11.7458 88.9624 11.743 90.5495 11.7268 92.1545C11.7249 92.3462 11.7228 92.5382 11.7204 92.7304C11.6875 95.4342 11.6129 98.1764 11.4436 100.785C11.4436 104.84 11.2686 109.485 11.1059 113.803C11.04 115.552 10.9761 117.248 10.9267 118.828L10.917 119.036C10.574 126.404 10.2024 134.387 11.2294 141.315C11.832 145.976 13.6913 151.115 18.2664 153.102C20.4227 154.479 23.4471 154.007 25.8632 153.531C33.2001 150.855 39.3322 145.028 44.2927 138.811C45.01 137.762 45.7195 136.711 46.3986 135.647C48.4582 132.42 50.2385 129.077 51.1127 125.342C51.3567 124.917 51.5051 124.387 51.652 123.837C51.6604 123.805 51.6687 123.774 51.6771 123.743C51.8349 123.151 51.9973 122.541 52.2808 122.02C52.3261 122.509 52.3568 123.016 52.3756 123.538C52.4003 124.218 52.4049 124.923 52.396 125.642C52.3942 125.786 52.3919 125.93 52.3891 126.075C52.3654 127.294 52.3073 128.549 52.2461 129.794C52.2387 129.945 52.2312 130.097 52.2237 130.247C52.1251 132.241 52.0284 134.194 52.0637 135.92C52.395 135.798 52.7254 135.674 53.0552 135.549C53.8037 135.265 54.5491 134.975 55.2944 134.684C56.1078 134.367 56.9212 134.051 57.7388 133.742C59.1105 133.224 60.4939 132.728 61.9085 132.293C68.5114 129.746 75.503 128.149 82.4967 126.596C82.4967 126.159 82.4995 125.728 82.5047 125.301C82.5312 123.126 82.619 121.064 82.7079 118.977C82.7664 117.604 82.8254 116.221 82.8675 114.788C82.9009 113.653 82.9237 112.487 82.9274 111.271C82.9277 111.173 82.9279 111.074 82.9279 110.975C82.9279 110.958 82.9279 110.942 82.9279 110.925L83.145 110.625L83.3592 110.839C83.3682 110.868 83.3772 110.897 83.3862 110.925C83.4317 111.069 83.4776 111.213 83.5239 111.356C83.5959 111.58 83.669 111.803 83.743 112.026C83.9911 112.773 84.2492 113.515 84.5134 114.254C84.9403 115.448 85.3834 116.635 85.8267 117.822C86.6163 119.938 87.4068 122.055 88.1086 124.222C88.1369 124.266 88.1608 124.314 88.1814 124.365C88.2564 124.55 88.2858 124.773 88.3152 124.997C88.3881 125.551 88.4611 126.106 89.231 126.075C92.3025 125.661 95.4352 125.746 98.603 125.832C100.69 125.889 102.792 125.946 104.902 125.861C106.195 125.907 107.446 126.121 108.611 126.467C111.014 126.77 113.311 127.321 115.603 127.871C116.894 128.181 118.184 128.49 119.49 128.754C119.872 128.964 120.305 129.047 120.74 129.13C121.288 129.235 121.84 129.341 122.297 129.703C124.386 130.093 126.328 130.812 128.267 131.53C129.974 132.163 131.679 132.794 133.478 133.198C133.972 133.411 134.466 133.623 134.96 133.835C139.101 135.614 143.235 137.39 147.299 139.355C147.58 139.491 147.861 139.628 148.141 139.765C149.026 140.2 149.908 140.644 150.785 141.101C151.158 141.101 151.468 141.261 151.773 141.439C151.802 141.456 151.831 141.473 151.859 141.49C151.869 141.496 151.878 141.502 151.888 141.507C152.214 141.702 152.543 141.898 152.944 141.92C152.94 141.725 152.937 141.53 152.936 141.335C152.936 141.325 152.935 141.315 152.935 141.305C152.923 139.746 152.992 138.161 153.163 136.525C153.182 136.347 153.202 136.168 153.223 135.988C153.227 135.953 153.232 135.917 153.236 135.882C153.24 135.851 153.243 135.82 153.247 135.789C153.256 135.824 153.265 135.86 153.274 135.896C153.284 135.941 153.295 135.986 153.305 136.031C153.317 136.082 153.329 136.134 153.34 136.185C153.347 136.215 153.353 136.245 153.36 136.275C153.598 137.396 153.711 138.537 153.828 139.722C153.876 140.201 153.924 140.688 153.981 141.183C154.015 141.419 154.049 141.656 154.081 141.896C154.229 142.977 154.363 144.095 154.499 145.231C154.597 146.045 154.696 146.868 154.801 147.692C155.054 149.665 155.344 151.644 155.749 153.529C158.036 153.547 160.212 153.597 162.358 153.646C165.721 153.723 169.011 153.799 172.542 153.746C172.599 153.514 172.672 153.287 172.744 153.059C172.887 152.611 173.03 152.163 173.059 151.676C173.361 150.551 177.334 135.054 177.505 133.718C177.7 132.952 178.468 129.559 179.505 124.975C181.497 116.174 184.481 102.985 186.307 95.5816C186.917 93.1083 187.397 91.2809 187.668 90.4788ZM76.7942 109.993C76.313 109.993 75.978 109.941 75.8956 109.818C75.9333 109.043 75.9644 108.281 75.9904 107.529C76.0637 105.417 76.0979 103.383 76.1319 101.362C76.1831 98.3243 76.2337 95.3156 76.4154 92.1171C76.8213 92.494 79.1123 99.0232 80.8352 104.162C81.1389 105.068 81.425 105.931 81.68 106.709C81.9731 107.604 82.2252 108.387 82.4157 108.995C82.2078 109.087 81.9226 109.181 81.5871 109.273C81.5136 109.293 81.4376 109.313 81.3596 109.333C81.3227 109.342 81.2853 109.352 81.2475 109.361C81.1308 109.39 81.0098 109.419 80.8855 109.447C79.9905 109.649 78.9198 109.826 77.9984 109.92C77.7407 109.947 77.4948 109.967 77.2676 109.979C77.0984 109.988 76.9396 109.993 76.7942 109.993ZM59.8399 107.836C59.8399 107.836 59.6229 112.194 59.4058 114.264C59.37 114.323 59.3309 114.377 59.289 114.426C59.0216 114.739 58.6403 114.871 58.2515 115.004C57.9386 115.112 57.6208 115.222 57.354 115.429C57.3182 115.457 57.2834 115.486 57.2496 115.518C56.2199 115.781 55.2424 116.202 54.277 116.617C53.9867 116.742 53.6976 116.866 53.4084 116.986C53.5311 116.408 53.6363 114.457 53.7349 111.755C53.7432 111.527 53.7515 111.294 53.7597 111.056C53.7637 110.94 53.7677 110.823 53.7717 110.706C53.8078 109.634 53.8432 108.469 53.8785 107.244C53.9226 105.714 53.9664 104.089 54.0111 102.432C54.1606 96.8873 54.3201 90.9757 54.5308 87.0275C54.5789 83.8072 54.6539 80.4368 54.7564 76.9934C54.8366 74.2986 54.9336 71.5592 55.0477 68.8121C55.3971 68.2851 56.1027 68.1743 56.8029 68.0644C57.1387 68.0117 57.4732 67.9592 57.7665 67.8611C58.2051 67.7077 58.6539 67.599 59.1079 67.5068C59.3786 67.4518 59.6511 67.4027 59.9243 67.3534C60.0969 67.3223 60.2697 67.2912 60.4426 67.2585L60.6596 67.5584C60.6516 67.799 60.6438 68.0399 60.6361 68.281C60.628 68.5349 60.6201 68.7889 60.6124 69.0432C60.5723 70.3579 60.5367 71.6781 60.5046 73.0035C60.4714 74.3745 60.4419 75.751 60.4151 77.1326C60.3476 80.6131 60.2969 84.126 60.2458 87.6644C60.1499 94.3127 60.0526 101.051 59.8399 107.833L59.7157 107.829C59.7568 107.831 59.7982 107.833 59.8399 107.836ZM86.885 64.9826C86.7736 64.6329 86.6651 64.2816 86.5598 63.9285C86.6221 63.9078 86.6854 63.889 86.7494 63.8719C87.4658 63.6805 88.2816 63.7007 89.0944 63.7208C89.5662 63.7324 90.0369 63.7441 90.4867 63.7143C90.7832 64.5563 90.7113 65.2142 90.6366 65.8987C90.6355 65.9087 90.6344 65.9188 90.6333 65.9289C90.5789 66.4282 90.5257 66.9432 90.6152 67.5555C90.6267 68.1721 90.6217 68.7777 90.607 69.3766C90.5863 70.2199 90.5466 71.0497 90.507 71.8773C90.5037 71.947 90.5004 72.0166 90.497 72.0863C90.493 72.1706 90.489 72.255 90.485 72.3393C90.4485 73.1158 90.4152 73.8923 90.401 74.6782C90.3556 74.5813 90.3073 74.4814 90.2576 74.3789C89.9766 73.7985 89.6542 73.1325 89.5814 72.4334C89.4672 72.1322 89.353 71.832 89.2391 71.5324C88.9638 70.8085 88.6899 70.0886 88.4213 69.369C88.245 68.897 88.0709 68.4251 87.9001 67.9524C87.863 67.8498 87.8261 67.7471 87.7893 67.6444C87.785 67.6323 87.7806 67.6202 87.7763 67.6082C87.4653 66.7386 87.1661 65.8655 86.885 64.9826ZM139.111 74.3502C138.886 74.2771 138.661 74.204 138.444 74.1335C138.263 74.0748 138.088 74.0177 137.921 73.9634C137.628 73.8681 137.363 73.7818 137.148 73.7118L136.598 73.5325L135.982 73.3315C135.933 77.5313 135.848 81.5654 135.759 85.56L141.114 87.0393C141.188 87.0598 141.262 87.0808 141.337 87.1024C141.279 86.7426 141.221 86.3802 141.162 86.0151L141.161 86.0065C140.773 83.5958 140.367 81.0681 140.058 78.6304C139.785 77.7467 139.606 76.9171 139.47 76.2279C139.389 75.8168 139.33 75.4962 139.277 75.2123C139.22 74.9046 139.172 74.6401 139.111 74.3502ZM137.066 109.265C137.066 109.265 137.061 109.264 137.052 109.263C137.062 109.265 137.066 109.265 137.066 109.265ZM29.0663 121.705C29.1141 117.893 29.1622 114.14 29.3642 109.904C29.4073 104.544 29.5702 99.3908 29.7329 94.2474C29.8937 89.1608 30.0542 84.0837 30.0982 78.825C30.1697 78.5853 30.1981 78.3057 30.2269 78.0221C30.3017 77.2856 30.3792 76.5228 31.2206 76.3661C31.7127 76.1103 32.2113 75.8795 32.7145 75.6653C32.7524 75.6492 32.7904 75.6331 32.8284 75.6171C33.8248 75.1985 34.8384 74.8429 35.8546 74.487C35.8632 74.484 35.8718 74.481 35.8805 74.478C36.644 74.2105 37.409 73.9426 38.1691 73.6473L38.3861 74.5069C38.3724 76.2449 38.3466 77.9486 38.3124 79.6306C38.2406 83.1674 38.1322 86.6081 38.0231 90.0691C37.8592 95.2671 37.6939 100.511 37.6493 106.194C37.5236 108.61 37.3922 111.158 37.2637 113.876C37.21 114.213 37.1564 114.576 37.1001 114.956C36.8387 116.721 36.5205 118.87 35.8814 120.611C35.6037 121.556 35.2052 122.492 34.706 123.389C34.445 123.858 34.1563 124.316 33.8431 124.759C33.335 125.478 32.762 126.157 32.1365 126.779C31.8595 127.054 31.5721 127.318 31.2755 127.568C30.9921 127.808 30.7003 128.036 30.4009 128.25C29.7098 128.339 29.1471 128.25 28.9758 127.519C28.9846 127.108 28.9926 126.7 29 126.295C29.0279 124.761 29.0466 123.268 29.0652 121.785C29.0656 121.758 29.0659 121.732 29.0663 121.705ZM105.828 103.979C105.825 103.845 105.82 103.718 105.812 103.6C105.996 91.7263 106.183 81.006 106.48 69.5027C106.497 68.8496 106.514 68.194 106.532 67.5355C106.555 66.663 106.579 65.7856 106.604 64.9022C106.608 64.739 106.613 64.5757 106.618 64.4121C106.622 64.251 106.627 64.0897 106.631 63.9282L106.76 63.7997C107.072 63.8723 107.394 63.9224 107.721 63.9591C108.196 64.0126 108.682 64.0378 109.169 64.063C110.151 64.1139 111.133 64.1649 112.026 64.448C112.113 65.4897 112.166 66.5156 112.194 67.5307C112.267 70.1678 112.173 72.7325 112.078 75.3148C111.993 77.6278 111.907 79.9549 111.94 82.3606C111.791 86.2478 111.746 89.9247 111.702 93.5874C111.664 96.7065 111.626 99.8153 111.524 103.035C111.513 103.369 111.502 103.704 111.49 104.04C111.456 104.981 111.416 105.932 111.369 106.896C111.345 107.377 111.32 107.862 111.292 108.35V108.695C110.401 108.622 109.416 108.563 108.411 108.502C107.616 108.455 106.808 108.406 106.026 108.35C105.999 108.252 105.976 108.151 105.955 108.048C105.775 107.152 105.798 106.054 105.818 105.084C105.826 104.687 105.834 104.311 105.828 103.979ZM167.168 78.3031C166.525 78.0152 165.867 77.7528 165.189 77.5438C164.841 77.4365 164.487 77.3433 164.127 77.2679L164.041 77.7848C164.201 78.5475 164.565 80.772 165.002 83.5373C165.047 83.8251 165.093 84.1187 165.14 84.4171C165.45 86.3837 165.787 88.5595 166.111 90.6476C166.79 95.0278 167.409 99.0217 167.583 99.8871C167.912 98.5022 169.978 89.7937 170.878 84.4668C171.157 82.8176 171.323 81.4925 171.292 80.8093C171.054 80.2791 170.603 80.0575 170.141 79.8348C170.136 79.8323 170.131 79.8298 170.126 79.8273C169.841 79.6902 169.553 79.5513 169.308 79.3385L169.136 79.2529C168.49 78.9297 167.837 78.6026 167.168 78.3031Z" fill="white"/>
<path d="M95.3419 49.7235C92.8997 49.7143 90.5184 49.7805 88.2055 50.0237C88.2892 52.7854 88.0686 55.4185 88.2055 58.2259C90.4879 58.4404 93.3333 57.5358 94.6267 59.7802C95.068 71.0583 94.5887 98.5004 94.117 99.8797C94.117 99.8797 83.5342 70.1415 78.8758 57.4073C78.4422 55.0313 77.2766 52.9604 76.7175 50.673C72.0104 51.3213 67.6107 51.8383 62.947 52.6151C61.4817 52.9178 59.9251 52.8744 58.5883 53.477L58.3715 61.8503L58.5883 62.37C60.4447 62.1531 62.6898 60.9883 64.3719 62.1531C64.6747 62.5845 64.7599 63.0608 65.0201 63.4921C65.1913 75.6642 64.7173 85.7631 64.5888 98.4121C64.1118 104.543 65.2347 110.501 63.6811 116.545C62.1702 118.832 59.3218 118.832 57.2486 120.169C57.1626 121.982 56.9458 123.625 57.034 125.261C57.034 126.47 56.5578 128.068 57.034 128.973C62.9919 126.6 69.3803 124.614 75.7687 122.971C76.4147 122.674 77.2782 122.841 77.8404 122.332C77.7521 119.909 77.969 117.105 78.0542 114.472L77.8404 114.04C75.8098 114.254 74.1269 115.334 72.142 114.689C70.3709 112.227 71.3226 99.0611 71.2336 96.428C71.754 92.8035 71.0632 89.262 71.5372 85.2495C71.9252 78.8147 71.6231 72.904 72.0575 66.0834C73.1341 68.4997 74.0843 71.1329 74.8611 73.766L75.0779 73.9828C80.3876 89.6507 86.2122 105.104 91.7433 120.689C94.4137 120.86 97.8677 120.386 100.333 120.689L100.637 120.472C100.759 106.875 101.192 90.5561 101.497 77.9101C101.839 71.1329 101.063 65.4345 102.402 59.4774C103.65 57.7953 106.115 58.3118 108.009 58.2259L108.1 50.2405L107.887 49.9389C103.619 49.9658 99.4121 49.7388 95.3419 49.7235ZM110.687 50.1544C110.299 52.9589 110.565 55.7221 110.474 58.5293C112.118 58.6579 113.799 58.6137 115.138 59.3479C116.211 59.9101 116.606 61.1183 116.69 62.2382C116.774 71.6082 116.652 80.4137 116.302 89.8241C115.998 97.5523 116.515 105.064 115.442 112.183C114.141 114.126 111.121 112.831 109.439 112.917V121.289C121.049 123.579 132.142 127.117 142.717 131.864C143.021 131.826 146.78 133.804 148.415 134.246C148.803 128.798 148.461 122.933 148.72 117.149C148.803 111.794 148.933 106.528 149.024 101.002C147.685 99.7936 145.699 99.6201 144.147 98.7148C144.147 102.125 143.797 105.491 143.622 108.687C142.763 112.311 143.28 116.886 139.613 119.049C134.257 119.78 129.768 116.673 124.762 115.724C124.587 106.1 125.066 97.2464 125.196 87.6223C125.667 78.5148 125.021 70.5264 126.147 62.067C127.44 59.6507 130.46 61.3336 132.659 61.4218C132.834 58.6145 132.743 55.5074 132.743 52.7426C129.38 52.2258 125.538 51.7083 122.305 51.1885C118.25 50.9743 114.621 50.3258 110.687 50.1544ZM56.083 53.8665C49.4808 55.7655 43.049 57.1029 36.6149 59.4789C36.3144 62.586 36.6157 65.8636 36.3159 68.9737C38.1266 68.6283 39.9396 67.2923 41.7959 67.9383C42.4875 68.1977 42.4442 68.9303 42.7439 69.4051C43.0924 79.6348 42.3589 89.3921 42.3163 99.4506C42.2273 112.271 43.6515 128.243 29.8833 134.063C29.1035 133.98 28.5869 134.588 27.7242 134.375C24.7456 133.295 24.4862 129.62 24.4002 126.904C24.0548 117.794 24.6148 108.126 24.703 99.3639C24.8347 91.0734 24.7883 83.4358 25.5224 75.9221C26.3418 72.6864 29.8377 72.039 32.2563 70.7449C32.3422 67.5921 32.5606 64.698 32.4716 61.2052L32.2563 60.9039C24.9168 64.011 17.4519 67.16 10.4144 70.8727C10.3289 74.7573 10.112 78.1672 10.2005 81.7514C11.8399 81.0605 13.1366 79.6774 15.0759 79.7664C16.0695 80.1978 16.1547 81.495 16.1981 82.3547C16.0261 100.227 15.81 116.759 15.5932 134.375C16.1128 139.64 15.8527 145.331 20.171 148.96C22.2419 150.124 24.2283 149.439 26.4734 148.747C36.443 143.132 44.3439 133.417 47.1056 122.324C47.7964 120.559 47.7538 118.271 48.316 116.544C48.8334 112.616 49.0045 108.387 49.0502 104.025C49.0502 104.025 48.9186 99.9238 49.178 97.4619C49.2214 86.9294 49.3933 78.0813 49.9981 67.249C50.0841 65.5212 51.5951 64.3138 53.1053 63.7942C54.0136 63.4914 55.005 63.2335 55.9986 62.9733L56.083 56.2394C56.2572 55.3767 56.2572 54.7285 56.083 53.8665ZM143.408 55.1172C143.362 57.879 143.149 61.1177 143.24 64.2248C144.96 64.6562 146.77 65.1324 147.896 66.8146C150.399 72.729 150.62 79.5922 151.693 86.0666C155.147 105.881 157.14 126.212 159.164 146.16C159.293 146.89 159.293 148.1 159.598 148.747C162.443 149.173 165.684 148.83 168.613 149.089C169.176 148.442 169.222 147.187 169.526 146.282C174.06 129.62 177.636 112.962 181.653 96.1267C182.908 92.1112 182.734 87.3638 185.366 83.9965C187.009 83.6511 188.386 84.4705 189.642 85.3758C189.855 81.6661 190.068 77.9534 189.855 74.0665C186.789 72.2984 183.639 70.6558 180.535 68.9737C177.598 67.8089 174.92 65.9952 171.9 64.959C171.253 64.6562 170.561 64.0118 169.83 64.1403C169.648 67.2475 169.785 71.0903 169.739 74.0665C171.466 75.1484 173.406 75.6657 174.92 77.1759C176.86 78.8154 176.213 81.4486 176.046 83.6937C173.322 96.8593 170.135 109.855 167.061 122.841C166.764 123.8 166.802 124.873 166.201 125.649C165.593 121.723 164.992 117.794 164.345 113.867C163.135 105.017 161.751 95.8665 160.412 86.7156C160.161 86.285 160.503 85.636 160.115 85.248C159.681 81.7947 159.293 78.642 158.86 75.3203C158.822 73.8094 158.342 71.6502 159.681 70.4421C161.796 70.1393 163.569 71.6943 165.38 72.0823C165.471 68.9326 165.684 65.9526 165.593 62.586L165.38 62.1547C158.175 59.6075 150.749 57.1455 143.408 55.1172Z" fill="#CF0A2C"/>
<path fill-rule="evenodd" clip-rule="evenodd" d="M82.3881 44.9439L87.6132 44.3946C90.2099 44.1216 92.8164 44.0538 95.3626 44.0634L95.3413 49.7237C92.8991 49.7145 90.5178 49.7808 88.205 50.0239C88.2435 51.2927 88.2177 52.5344 88.1918 53.7783C88.1614 55.2419 88.131 56.7085 88.205 58.2261C88.8033 58.2823 89.4403 58.2617 90.0779 58.241C91.8726 58.1828 93.6718 58.1244 94.6262 59.7804C94.8566 65.6695 94.836 75.9658 94.6965 84.6574C94.5689 92.611 94.3418 99.2208 94.1164 99.8799C94.1164 99.8799 91.8847 93.6085 89.0198 85.5924C85.6461 76.1528 81.3944 64.2939 78.8753 57.4075C78.636 56.0964 78.1739 54.8782 77.7137 53.6653C77.34 52.6801 76.9675 51.6984 76.7169 50.6733C75.3649 50.8595 74.0382 51.0348 72.7234 51.2087C69.4606 51.64 66.2706 52.0617 62.9464 52.6153C62.5178 52.7039 62.0814 52.7628 61.645 52.8169C61.564 52.827 61.483 52.8369 61.402 52.8467C61.1509 52.8774 60.9001 52.908 60.6514 52.9433C60.1944 53.0081 59.744 53.0887 59.3094 53.2145C59.0633 53.2858 58.8222 53.3715 58.5878 53.4772L58.371 61.8506L58.5878 62.3702C59.1077 62.3095 59.6581 62.1744 60.2182 62.0369C60.39 61.9947 60.5628 61.9523 60.7359 61.9118C61.049 61.8384 61.3631 61.7712 61.6746 61.7223C62.5005 61.5928 63.308 61.5927 64.0306 61.9519C64.1465 62.0095 64.2602 62.0763 64.3714 62.1534C64.5379 62.3905 64.6386 62.6412 64.7387 62.8905C64.8208 63.0948 64.9024 63.2981 65.0196 63.4924C65.1279 71.1919 64.978 78.0619 64.8207 85.2725C64.7294 89.4611 64.6355 93.7646 64.5882 98.4123C64.4096 100.708 64.4553 102.98 64.5009 105.241C64.5769 109.018 64.6524 112.765 63.6806 116.545C62.7265 117.989 61.2391 118.522 59.7504 119.054C58.8815 119.365 58.0121 119.676 57.248 120.169C57.2205 120.749 57.1797 121.311 57.1397 121.862C57.1145 122.208 57.0896 122.55 57.0687 122.889C57.0189 123.693 56.9912 124.478 57.0335 125.261C57.0335 125.661 56.9814 126.104 56.9289 126.55C56.8384 127.318 56.7467 128.097 56.9186 128.685C56.9485 128.788 56.9863 128.884 57.0335 128.974C58.7637 128.284 60.5303 127.628 62.3227 127.003C62.4101 126.972 62.4977 126.942 62.5853 126.911C66.883 125.422 71.3256 124.114 75.7682 122.971C76.0314 122.85 76.3307 122.806 76.631 122.762C77.0678 122.698 77.5067 122.634 77.8399 122.332C77.8103 121.521 77.815 120.666 77.8374 119.79C77.8619 118.837 77.9074 117.859 77.9529 116.88C77.9721 116.468 77.9912 116.055 78.0088 115.645C78.0257 115.251 78.0411 114.86 78.0536 114.472L77.8399 114.04C77.216 114.106 76.625 114.253 76.048 114.407C75.9732 114.427 75.8987 114.447 75.8244 114.467C74.68 114.776 73.5815 115.071 72.3794 114.759C72.3005 114.738 72.2212 114.715 72.1415 114.689C70.7809 112.798 71.0271 104.59 71.1741 99.6928C71.2184 98.215 71.2537 97.0386 71.2331 96.4282C71.4972 94.5885 71.4493 92.7702 71.4 90.9009C71.3523 89.0873 71.3032 87.2256 71.5366 85.2497C71.6117 84.0049 71.6609 82.7797 71.6947 81.5638C71.7344 80.1334 71.7526 78.7159 71.7662 77.2942C71.7676 77.1483 71.769 77.0024 71.7703 76.8565C71.7726 76.6037 71.7747 76.3508 71.7769 76.0976C71.7798 75.7651 71.7827 75.4322 71.7858 75.0985C71.7871 74.9565 71.7885 74.8144 71.7899 74.6721C71.8174 71.9039 71.8661 69.0817 72.057 66.0836C73.1335 68.5 74.0838 71.1331 74.8606 73.7662L75.0774 73.983C75.8347 76.2178 76.6025 78.4482 77.3784 80.6752C80.0547 88.3563 82.8276 95.9974 85.6011 103.64C87.6612 109.317 89.7216 114.994 91.7427 120.689C92.956 120.767 94.331 120.712 95.7015 120.656C97.3475 120.59 98.9871 120.524 100.332 120.689L100.636 120.473C100.644 119.66 100.652 118.838 100.662 118.008C100.673 117.028 100.685 116.036 100.699 115.035C100.842 104.65 101.121 93.2535 101.364 83.3497C101.41 81.4776 101.454 79.6588 101.496 77.9103C101.615 75.5569 101.599 73.3336 101.584 71.1844C101.555 67.1444 101.527 63.3661 102.402 59.4776C102.996 58.6767 103.866 58.3742 104.819 58.2679C105.44 58.1986 106.096 58.2125 106.734 58.226C107.173 58.2353 107.604 58.2445 108.009 58.2261L108.1 50.2407L107.887 49.9392C106.925 49.9452 105.966 49.9384 105.01 49.924C103.63 49.9031 102.258 49.8665 100.897 49.8301C99.0219 49.7801 97.1678 49.7306 95.3413 49.7237L95.3626 44.0634C97.2583 44.0705 99.1794 44.1219 101.045 44.1717C101.26 44.1775 101.475 44.1832 101.689 44.1889C103.783 44.2441 105.819 44.2917 107.851 44.2789L110.806 44.2603L110.976 44.5015C113.141 44.5976 115.194 44.8222 117.071 45.0294L117.178 45.0413C119.073 45.2504 120.799 45.4409 122.603 45.5362L122.904 45.5521L123.202 45.6001C125.044 45.8961 126.961 46.1733 128.922 46.457C130.46 46.6794 132.024 46.9057 133.602 47.1482L137.867 47.8036L137.868 47.7149L144.914 49.6615C152.435 51.7391 159.998 54.2488 167.266 56.8182L169.435 57.5852L169.87 58.4649C171.659 58.4244 173.013 59.1042 173.546 59.3862C173.821 59.5321 174.092 59.6947 174.24 59.7845C175.981 60.4251 177.552 61.2227 178.84 61.8865C178.974 61.9552 179.104 62.0225 179.232 62.0882C180.556 62.7717 181.574 63.2969 182.621 63.7123L182.935 63.8366L183.231 63.9973C184.032 64.4311 184.854 64.872 185.689 65.3199C187.981 66.5491 190.371 67.8309 192.682 69.1633L195.338 70.6951L195.506 73.757C195.736 77.9639 195.508 81.9454 195.299 85.5808L194.7 96.0038L188.433 91.4835C188.379 91.7658 188.321 92.084 188.259 92.428C187.984 93.9363 187.619 95.9426 187.117 97.6129C185.967 102.437 184.846 107.278 183.722 112.131C180.976 123.988 178.215 135.906 174.987 147.768L174.944 147.928L174.903 148.048C174.899 148.067 174.885 148.12 174.863 148.223C174.844 148.307 174.745 148.787 174.675 149.082C174.589 149.445 174.448 149.995 174.213 150.589C173.979 151.18 173.58 152.004 172.882 152.806L170.988 154.981L168.115 154.728C167.1 154.638 166.027 154.639 164.646 154.641C164.461 154.641 164.27 154.641 164.073 154.641C162.553 154.641 160.646 154.627 158.759 154.345L155.765 153.897L154.475 151.157C154.134 150.432 153.967 149.755 153.877 149.324C153.781 148.864 153.726 148.436 153.691 148.127C153.659 147.846 153.625 147.491 153.611 147.353C153.595 147.189 153.587 147.132 153.587 147.131L153.553 146.94L153.532 146.731C153.446 145.88 153.359 145.029 153.273 144.177C153.177 143.232 153.081 142.287 152.986 141.342L146.94 139.711C146.143 139.496 145.308 139.163 144.683 138.9C144.002 138.614 143.297 138.293 142.697 138.016C142.5 137.925 142.319 137.842 142.153 137.765C142.079 137.73 142.008 137.698 141.94 137.666L141.845 137.678L140.398 137.028C130.217 132.458 119.535 129.05 108.344 126.843L103.779 125.942V125.184L101.825 126.576L99.642 126.307C98.9397 126.221 97.9184 126.234 96.3371 126.296C96.2 126.301 96.0577 126.307 95.9107 126.313C94.5942 126.367 92.9106 126.436 91.3806 126.338L87.6565 126.099L86.4083 122.582C85.5149 120.065 84.6104 117.542 83.6989 115.013C83.6685 115.872 83.631 116.671 83.5956 117.426C83.514 119.168 83.4435 120.672 83.4965 122.126L83.5923 124.757L81.6418 126.525C80.0748 127.946 78.2905 128.231 77.7638 128.315L77.7336 128.32C77.7015 128.325 77.668 128.33 77.6349 128.335L77.1783 128.453C70.9637 130.052 64.8128 131.967 59.1285 134.232L54.3958 136.118L52.024 131.609C51.4171 130.455 51.2439 129.346 51.1882 128.607C51.1805 128.505 51.1747 128.405 51.1705 128.306C47.1841 139.053 39.0722 148.147 29.2505 153.679L28.7213 153.977L28.1409 154.156C28.0185 154.194 27.8801 154.239 27.7266 154.288C25.8235 154.906 21.6216 156.269 17.3969 153.894L16.9347 153.634L16.5287 153.293C13.0823 150.397 11.6194 146.741 10.9208 143.46C10.4533 141.265 10.26 138.724 10.1083 136.731C10.057 136.057 10.0104 135.446 9.95968 134.931L9.92888 134.619L9.93274 134.306C9.97029 131.255 10.0078 128.237 10.0451 125.24C10.2009 112.705 10.3524 100.526 10.483 87.7747L4.74625 90.1921L4.54133 81.8913C4.47712 79.2906 4.56682 76.6572 4.65411 74.0946C4.69268 72.9623 4.73077 71.8439 4.75491 70.7482L4.82824 67.4199L7.77271 65.8665C14.9204 62.0956 22.4584 58.9048 29.6257 55.8708C29.767 55.811 29.9081 55.7513 30.049 55.6916L34.2246 53.9239L34.4529 54.2433L34.6535 54.1692C39.2024 52.4894 43.9806 51.2373 48.4777 50.0588C50.569 49.5108 52.5995 48.9787 54.5179 48.4269L60.415 46.7307L60.5201 47.2504C60.7038 47.2273 60.8534 47.2096 60.9822 47.1944C61.3177 47.1547 61.5123 47.1317 61.8015 47.072L61.9086 47.0499L62.0165 47.0319C65.4404 46.4616 68.7759 46.0206 72.0753 45.5845C73.3696 45.4133 74.6583 45.243 75.9446 45.0658L81.0028 44.3692L82.2154 49.329C82.3016 49.6819 82.4108 50.0297 82.5537 50.4353C82.5518 50.3554 82.5497 50.2754 82.5472 50.1954L82.3881 44.9439ZM87.2222 63.819L87.6753 63.8616C88.164 63.9076 88.6461 63.9221 89.0764 63.9228C89.1055 65.5207 89.124 67.2764 89.1332 69.1269C88.4787 67.3057 87.8365 65.5218 87.2222 63.819ZM50.4796 55.3894C50.1687 55.4709 49.8582 55.5521 49.5479 55.6333C45.6275 56.6588 41.7481 57.6737 37.8719 59.0275C37.4527 59.174 37.0335 59.3244 36.6144 59.4791C36.5625 60.0158 36.5285 60.5575 36.5063 61.1026C36.4809 61.7275 36.4709 62.3568 36.467 62.9879C36.4644 63.4009 36.4645 63.8147 36.4646 64.2284C36.4649 65.824 36.4652 67.4198 36.3154 68.9739C36.8772 68.8667 37.4393 68.6642 38.0029 68.4551C38.0409 68.4409 38.079 68.4268 38.1171 68.4126C39.332 67.9609 40.554 67.5065 41.7954 67.9385C41.8966 67.9764 41.9821 68.0245 42.0552 68.0805C42.3194 68.2827 42.4222 68.5874 42.523 68.8863C42.5849 69.0698 42.646 69.2512 42.7434 69.4053C42.956 75.6486 42.7657 81.7158 42.5754 87.783C42.4539 91.6571 42.3324 95.5311 42.3158 99.4508C42.3078 100.607 42.3121 101.788 42.3164 102.986C42.3601 115.069 42.4097 128.768 29.8828 134.063C29.5286 134.025 29.2288 134.13 28.9261 134.236C28.5623 134.363 28.1946 134.492 27.7236 134.375C24.7451 133.295 24.4857 129.62 24.3997 126.904C24.1698 120.84 24.341 114.529 24.5073 108.402C24.5908 105.324 24.673 102.294 24.7025 99.3641C24.726 97.8834 24.7438 96.4236 24.7615 94.9815C24.8424 88.3494 24.9188 82.094 25.5219 75.9223C26.1441 73.4654 28.3094 72.5008 30.3745 71.6122C30.4066 71.5984 30.4386 71.5846 30.4706 71.5709C31.0921 71.3036 31.7021 71.0413 32.2557 70.7451C32.2756 70.0164 32.3025 69.3015 32.3311 68.5899C32.3398 68.3745 32.3486 68.1594 32.3574 67.9443C32.3704 67.6271 32.3833 67.31 32.3958 66.9919C32.4655 65.2196 32.5201 63.4182 32.4763 61.425C32.4747 61.3521 32.4729 61.2789 32.471 61.2054L32.2557 60.9041L31.9266 61.0434C31.7794 61.1058 31.632 61.1681 31.4847 61.2305C31.2663 61.323 31.0478 61.4155 30.8292 61.5081C29.4986 62.0717 28.165 62.6378 26.8317 63.2095C21.2741 65.5925 15.7224 68.0723 10.4139 70.8729C10.3864 72.1218 10.3453 73.3216 10.3052 74.494C10.2965 74.7484 10.2878 75.0016 10.2793 75.2538C10.2054 77.4527 10.1461 79.5699 10.2 81.7516C10.7342 81.5265 11.232 81.2279 11.7275 80.9306C12.7526 80.3157 13.768 79.7066 15.0753 79.7666C15.4369 79.9236 15.6782 80.1953 15.841 80.5188C16.1254 81.0842 16.1699 81.808 16.1975 82.3549C16.0553 97.134 15.883 110.996 15.705 125.313C15.6677 128.309 15.6302 131.326 15.5927 134.375C15.6688 135.146 15.7281 135.926 15.7876 136.707C16.1343 141.262 16.4844 145.862 20.1704 148.96C22.1642 150.081 24.0798 149.488 26.2233 148.824C26.3061 148.798 26.3893 148.773 26.4729 148.747C36.4424 143.132 44.3433 133.417 47.105 122.324C47.4789 121.369 47.638 120.261 47.7944 119.171C47.9269 118.247 48.0576 117.336 48.3155 116.544C48.8328 112.616 49.004 108.387 49.0496 104.026C49.0496 104.026 48.918 99.9241 49.1775 97.4621C49.2208 86.9296 49.3928 78.0815 49.9976 67.2492C50.0826 65.5401 51.5621 64.3402 53.0558 63.8115C53.0721 63.8057 53.0884 63.8 53.1047 63.7944C53.7496 63.5794 54.4362 63.3871 55.1358 63.2005C55.3974 63.1308 55.6608 63.0618 55.9245 62.9927L55.998 62.9735L56.0825 56.2397C56.2567 55.3769 56.2567 54.7287 56.0825 53.8667C55.015 54.1738 53.9519 54.4661 52.8926 54.7506C52.2888 54.9127 51.6863 55.0722 51.0849 55.2304C50.883 55.2836 50.6812 55.3365 50.4796 55.3894ZM54.8998 69.1675C54.8997 69.1671 54.9041 69.1643 54.9133 69.16C54.9044 69.1657 54.8999 69.1678 54.8998 69.1675ZM55.5735 68.953C55.0369 79.0337 54.879 87.4692 54.8378 97.4854L54.8366 97.7711L54.8067 98.0553C54.7103 98.9701 54.6762 100.358 54.6766 101.665C54.6769 102.287 54.6847 102.84 54.6924 103.235C54.6963 103.433 54.7001 103.59 54.7029 103.695L54.7062 103.813L54.707 103.84L54.7071 103.844L54.7071 103.845L54.711 103.964L54.7097 104.085C54.6699 107.892 54.5361 111.733 54.146 115.434L54.1807 115.412C55.1756 114.77 56.1566 114.357 56.885 114.077C57.2252 113.946 57.5629 113.825 57.8316 113.729L57.8886 113.709C58.1544 113.614 58.3591 113.54 58.5443 113.469C58.8346 111.67 58.8976 109.755 58.878 107.562C58.8724 106.938 58.8587 106.268 58.8444 105.564C58.7983 103.308 58.7453 100.71 58.9301 98.1708C58.9793 93.448 59.0735 89.1473 59.1645 84.9967C59.2898 79.2748 59.4089 73.838 59.3954 67.9737C59.3453 67.9802 59.295 67.9864 59.2445 67.9923L59.1222 68.0066L57.432 68.4492C56.7117 68.6378 56.1079 68.7963 55.5735 68.953ZM37.0595 74.5944L34.9262 75.7359C34.1448 76.154 33.308 76.513 32.7196 76.7654C32.6561 76.7927 32.5954 76.8187 32.5381 76.8434C31.8452 77.1419 31.4234 77.3346 31.0899 77.5245C31.0783 77.5311 31.0671 77.5376 31.0562 77.5438C30.5691 83.1046 30.4996 88.7456 30.4229 94.9647C30.405 96.4218 30.3866 97.9106 30.3624 99.4375C30.3307 102.57 30.2452 105.699 30.16 108.819C29.9958 114.826 29.8327 120.799 30.056 126.69L30.0567 126.708L30.0573 126.725C30.0665 127.017 30.0771 127.291 30.0913 127.551C33.1603 125.466 34.7905 122.349 35.6981 118.178C36.6816 113.659 36.668 108.662 36.6534 103.255C36.65 101.998 36.6465 100.719 36.6555 99.4195C36.6737 95.1526 36.8012 91.1689 36.9259 87.2738C37.0621 83.0187 37.1949 78.8693 37.1781 74.5718L37.0595 74.5944ZM41.0205 73.4021C41.0203 73.4023 41.0132 73.4039 40.9997 73.4062C41.0139 73.403 41.0206 73.4018 41.0205 73.4021ZM36.6555 99.4195C36.6555 99.4168 36.6555 99.4142 36.6556 99.4115L42.3158 99.4508L36.6555 99.4269C36.6555 99.4244 36.6555 99.4219 36.6555 99.4195ZM81.1609 107.999C80.8788 107.221 80.5964 106.443 80.3139 105.664C79.1904 102.568 78.0646 99.4656 76.9443 96.3582C76.9303 96.4915 76.9152 96.6252 76.8988 96.7594C76.9015 97.5666 76.8681 98.6689 76.8348 99.7697C76.8303 99.9184 76.8258 100.067 76.8213 100.215C76.7723 101.858 76.7194 103.755 76.7168 105.631C76.7154 106.634 76.7288 107.593 76.7613 108.471C76.919 108.449 77.0811 108.428 77.2472 108.411L81.1609 107.999ZM77.1281 112.087C77.1409 112.122 77.1463 112.142 77.1458 112.142C77.1453 112.143 77.1389 112.126 77.1281 112.087ZM106.485 107.401L109.15 107.265C109.566 107.243 109.952 107.254 110.281 107.275C110.419 105.33 110.475 103.303 110.5 101.167C110.512 100.071 110.516 98.9241 110.52 97.7446C110.529 95.1206 110.538 92.3369 110.645 89.6054C110.967 80.9415 111.094 72.799 111.044 64.2392C110.741 64.2213 110.373 64.1993 110.032 64.1726L107.421 63.9683C107.29 65.3579 107.244 66.818 107.235 68.4167C107.231 69.2029 107.237 70.055 107.244 70.9549C107.259 73.1467 107.276 75.6222 107.153 78.1195C107.111 79.8509 107.067 81.6488 107.022 83.4973C106.839 90.9903 106.635 99.314 106.485 107.401ZM116.689 62.2384C116.773 71.6084 116.651 80.4139 116.301 89.8243C116.198 92.4544 116.189 95.0593 116.181 97.6323C116.165 102.62 116.149 107.487 115.442 112.183C115.22 112.515 114.948 112.752 114.641 112.918C113.66 113.448 112.322 113.25 111.124 113.072C110.649 113.002 110.196 112.935 109.796 112.918C109.672 112.912 109.552 112.912 109.439 112.918V121.289C121.049 123.579 132.141 127.117 142.716 131.865C142.743 131.861 142.798 131.874 142.875 131.9C143.173 131.999 143.813 132.296 144.577 132.649C145.857 133.242 147.481 133.994 148.415 134.246C148.553 132.299 148.599 130.298 148.612 128.267C148.619 127.182 148.616 126.089 148.614 124.99C148.608 122.391 148.602 119.761 148.719 117.149C148.747 115.385 148.779 113.63 148.814 111.872C148.826 111.224 148.839 110.576 148.852 109.928C148.859 109.61 148.865 109.292 148.872 108.974C148.873 108.908 148.874 108.841 148.876 108.774C148.898 107.7 148.919 106.623 148.941 105.538C148.97 104.041 148.998 102.532 149.023 101.002C148.779 100.782 148.514 100.596 148.233 100.434C147.609 100.073 146.911 99.8292 146.21 99.5849C145.499 99.3368 144.786 99.088 144.147 98.715C144.147 99.4527 144.13 100.188 144.103 100.921C144.054 102.215 143.971 103.499 143.883 104.766C143.863 105.05 143.843 105.332 143.823 105.614C143.75 106.652 143.677 107.678 143.622 108.687C143.414 109.563 143.286 110.496 143.161 111.436C143.157 111.468 143.152 111.501 143.148 111.534C142.759 114.45 142.362 117.428 139.612 119.049C136.19 119.516 133.121 118.416 130.046 117.313C128.308 116.69 126.569 116.067 124.761 115.724C124.649 109.512 124.808 103.621 124.97 97.637C125.059 94.3499 125.149 91.0346 125.195 87.6225C125.377 84.1067 125.393 80.7576 125.408 77.4838C125.432 72.2772 125.455 67.261 126.146 62.0672C126.4 61.5928 126.721 61.2764 127.089 61.0749C128.078 60.533 129.409 60.8227 130.708 61.1051C131.304 61.2348 131.893 61.363 132.439 61.4084C132.513 61.4145 132.586 61.4192 132.659 61.4221C132.703 60.7109 132.73 59.9806 132.746 59.2414C132.771 58.0848 132.768 56.9067 132.761 55.747C132.759 55.4571 132.756 55.1684 132.754 54.8814C132.748 54.1538 132.742 53.4375 132.742 52.7429C131.29 52.5197 129.749 52.2964 128.206 52.0729C126.175 51.7787 124.141 51.484 122.304 51.1887C120.336 51.0848 118.469 50.8786 116.619 50.6743C115.665 50.569 114.715 50.4641 113.759 50.3741C113.464 50.3463 113.168 50.3199 112.871 50.2953C112.151 50.2356 111.424 50.1867 110.687 50.1546C110.681 50.1931 110.676 50.2316 110.671 50.2701C110.461 51.8618 110.457 53.4406 110.475 55.0221C110.477 55.2029 110.479 55.3838 110.481 55.5647C110.482 55.647 110.483 55.7293 110.484 55.8116C110.494 56.6237 110.502 57.4373 110.481 58.2544C110.479 58.346 110.477 58.4377 110.474 58.5295C110.769 58.5526 111.066 58.5701 111.361 58.5876C112.149 58.6342 112.93 58.6804 113.662 58.8307C114.184 58.9378 114.681 59.0977 115.137 59.3481C116.21 59.9104 116.606 61.1185 116.689 62.2384ZM128.394 66.4283C128.393 66.4279 128.404 66.4281 128.428 66.4303C128.406 66.4299 128.394 66.4288 128.394 66.4283ZM131.341 66.9797C131.687 67.0263 132.057 67.0628 132.432 67.0779L137.667 67.288L137.708 68.6729L141.862 69.7152C142.3 69.8249 142.603 69.9035 142.875 69.9868C142.957 70.0118 143.027 70.0349 143.088 70.056C143.835 72.1232 144.329 74.4472 144.736 77.0914C144.952 78.4994 145.135 79.9254 145.327 81.4353C145.346 81.5818 145.365 81.7292 145.384 81.8774C145.594 83.5211 145.821 85.2585 146.108 86.9921L146.112 87.0155L146.116 87.0389C146.516 89.3343 146.896 91.6371 147.259 93.9462C147.137 93.8992 147.071 93.8678 146.999 93.8257L138.486 88.8601V98.715C138.486 100.851 138.345 102.829 138.193 104.965C138.126 105.907 138.057 106.88 137.996 107.91C137.786 108.921 137.654 109.911 137.551 110.683L137.538 110.783C137.401 111.807 137.303 112.508 137.158 113.128C137.13 113.246 137.103 113.351 137.077 113.445C136.161 113.338 135.126 113.072 133.842 112.645C133.415 112.504 132.911 112.322 132.35 112.121C131.75 111.906 131.086 111.667 130.383 111.428C130.382 106.878 130.501 102.497 130.624 97.9802C130.714 94.7001 130.805 91.3479 130.854 87.8062C131.038 84.1822 131.054 80.6913 131.069 77.4293C131.073 76.4839 131.077 75.5577 131.085 74.6532C131.11 71.9989 131.167 69.4722 131.341 66.9797ZM153.516 97.4318C153.696 98.6483 153.871 99.8661 154.043 101.085C154.236 102.462 154.425 103.84 154.608 105.219C156.308 117.977 157.61 130.829 158.898 143.541C158.986 144.415 159.075 145.288 159.163 146.16C159.206 146.4 159.234 146.693 159.264 147C159.326 147.626 159.393 148.313 159.597 148.747C161.194 148.986 162.915 148.983 164.635 148.98C165.981 148.978 167.327 148.976 168.613 149.089C168.984 148.662 169.13 147.97 169.274 147.289C169.348 146.938 169.422 146.59 169.525 146.282C172.724 134.529 175.445 122.778 178.181 110.966C179.324 106.032 180.469 101.087 181.653 96.1269C182.077 94.7686 182.338 93.3265 182.6 91.8825C183.031 89.501 183.463 87.114 184.631 85.0883C184.849 84.7111 185.092 84.3465 185.365 83.9967C187.009 83.6513 188.386 84.4707 189.641 85.376C189.762 83.2727 189.883 81.1684 189.926 79.032C189.959 77.4003 189.946 75.7499 189.854 74.0667C187.626 72.7816 185.353 71.5628 183.085 70.3469C182.233 69.8899 181.382 69.4334 180.534 68.9739C179.211 68.4491 177.941 67.7926 176.667 67.1348C176.248 66.9179 175.828 66.7009 175.405 66.4884C174.266 65.9149 173.11 65.3746 171.899 64.9592C171.716 64.8735 171.53 64.7606 171.34 64.6455C171.318 64.6321 171.295 64.6187 171.273 64.6053C170.981 64.429 170.681 64.2546 170.374 64.1725C170.195 64.1248 170.013 64.1082 169.83 64.1406C169.731 65.8235 169.726 67.7222 169.735 69.5822C169.735 69.6465 169.735 69.7107 169.735 69.7749C169.736 69.916 169.737 70.0569 169.738 70.1973C169.739 70.3283 169.739 70.4589 169.74 70.5891C169.744 71.139 169.747 71.6813 169.748 72.2092C169.749 72.8541 169.748 73.4774 169.738 74.0667C170.138 74.3173 170.55 74.5375 170.965 74.7468C171.19 74.8608 171.417 74.9715 171.644 75.0821C172.799 75.6456 173.947 76.206 174.92 77.1761C176.568 78.5694 176.349 80.6801 176.143 82.6606C176.107 83.0107 176.071 83.3567 176.046 83.6939C174.11 93.052 171.939 102.324 169.742 111.568C169.626 112.057 169.509 112.547 169.393 113.036C169.381 113.085 169.37 113.133 169.358 113.182C169.154 114.041 168.949 114.899 168.744 115.758C168.182 118.12 167.619 120.481 167.06 122.842C166.96 123.167 166.898 123.505 166.836 123.84C166.716 124.493 166.598 125.136 166.201 125.649C166.11 125.062 166.019 124.474 165.928 123.887C165.858 123.433 165.787 122.978 165.717 122.524C165.712 122.489 165.706 122.455 165.701 122.421C165.259 119.57 164.814 116.718 164.344 113.867C164.227 113.012 164.109 112.154 163.989 111.293C163.189 105.557 162.326 99.708 161.458 93.8269C161.108 91.4601 160.758 89.088 160.411 86.7158C160.299 86.5228 160.305 86.2859 160.312 86.0484C160.32 85.7559 160.328 85.4623 160.114 85.2482C160.007 84.3925 159.902 83.5552 159.799 82.7292C159.486 80.222 159.185 77.8191 158.859 75.3205C158.852 75.0428 158.83 74.7431 158.807 74.4315C158.706 73.0479 158.588 71.4283 159.681 70.4423C159.711 70.438 159.741 70.434 159.771 70.4304C161.067 70.2764 162.235 70.8096 163.364 71.325C163.605 71.4352 163.845 71.5445 164.083 71.6461C164.516 71.8307 164.947 71.9899 165.379 72.0826C165.405 71.1795 165.441 70.2904 165.478 69.4022C165.522 68.3148 165.566 67.2287 165.592 66.1198C165.609 65.3896 165.618 64.6496 165.613 63.8928C165.611 63.4631 165.604 63.028 165.592 62.5863L165.379 62.1549C165.02 62.0277 164.659 61.9008 164.299 61.7742C159.275 60.0097 154.151 58.2948 149.031 56.7466C147.154 56.1793 145.278 55.6343 143.407 55.1175C143.392 56.0417 143.358 57.0194 143.323 58.0278C143.29 58.9799 143.256 59.9594 143.235 60.947C143.213 62.0384 143.208 63.1398 143.24 64.225C144.959 64.6564 146.77 65.1326 147.896 66.8148C149.716 71.1157 150.329 75.9183 150.941 80.7082C151.17 82.5052 151.4 84.3005 151.692 86.0668C152.35 89.8385 152.954 93.6289 153.516 97.4318ZM164.88 77.7645L165.03 77.7967L166.734 78.8636C167.389 79.274 168.018 79.6021 168.532 79.8592C168.86 80.0231 169.058 80.1194 169.232 80.2036C169.42 80.2948 169.579 80.3717 169.84 80.5047C170.207 80.6916 170.449 80.8318 170.614 80.9413C170.607 81.0766 170.595 81.2412 170.576 81.4428C170.558 81.6393 170.538 81.8297 170.515 82.056C170.508 82.1195 170.501 82.1858 170.494 82.2559C170.475 82.4452 170.453 82.658 170.433 82.8824C169.51 87.3314 168.534 91.7593 167.527 96.1803C167.369 95.1131 167.212 94.0451 167.054 92.9769C166.705 90.6153 166.357 88.2527 166.012 85.8963L165.972 85.6226C165.961 85.3046 165.925 84.8645 165.822 84.3852C165.772 84.1547 165.706 83.9109 165.62 83.6592C165.552 83.1141 165.484 82.5748 165.417 82.0394C165.237 80.597 165.06 79.1833 164.88 77.7645ZM113.039 107.6C113.039 107.6 113.032 107.601 113.016 107.601C113.031 107.6 113.039 107.6 113.039 107.6Z" fill="white"/>
<path d="M194.357 71.5609L188.354 68.2795C185.421 66.9429 179.58 63.8613 178.169 63.1016C175.879 62.3248 174.023 60.7712 171.566 60.1657C169.362 59.0006 166.946 58.3094 164.612 57.404C162.759 56.4958 160.557 56.3216 158.7 55.3307C152.355 53.6028 146.051 51.7065 139.665 50.15C139.277 50.1956 139.145 49.5474 138.803 50.0215C138.54 55.502 138.54 62.3673 138.411 68.1513C138.411 68.1513 141.807 69.2594 142.944 69.6193C144.326 70.0505 144.455 71.7356 144.629 72.8122C144.974 74.3687 145.146 75.9195 145.666 77.3873C146.268 82.351 147.348 87.8769 147.95 92.7983C148.125 93.6637 148.47 94.7003 148.039 95.5171C146.528 95.2601 145.317 94.3976 143.892 93.9635C142.47 93.4894 140.916 92.8411 139.665 92.4955C139.188 98.5415 139.837 105.319 138.629 111.145C138.109 112.353 138.369 113.821 137.592 114.9C135.304 115.117 133.576 113.778 131.374 113.215C130.858 113.044 130.212 113.175 129.821 112.698C129.695 96.7281 130.383 82.8282 130.423 67.4173L130.64 66.512C132.931 66.6833 135.176 67.3744 137.378 67.5458C137.723 61.891 137.549 55.6764 137.895 50.0217L137.592 49.4163C136.167 49.3734 134.83 49.1592 133.536 48.8108C130.255 48.728 128.179 47.6484 124.814 47.777C121.059 46.9573 117.175 46.9573 113.419 46.3947L107.548 46.092C99.9081 45.7921 92.2224 46.2662 84.6286 46.092L84.3259 46.309L84.2374 50.67C84.2802 52.5663 84.1945 54.3799 83.9346 56.1505C83.7633 56.1962 83.7204 56.022 83.5919 55.9363C83.1607 53.1718 81.6499 50.7129 80.913 47.9483C80.6988 47.5171 80.656 46.9573 80.3961 46.5261C69.2181 47.5599 58.9454 48.7708 48.3664 51.2726C47.761 51.661 46.8557 51.404 46.2931 51.9209C38.6535 53.6031 31.5335 56.539 24.3677 59.3463C23.4596 59.5605 22.7684 60.2088 21.8631 60.3802C17.3307 62.108 13.1439 64.7841 8.61185 66.5118C7.87787 67.1573 6.79829 67.1573 6.23568 67.8484C6.06432 74.5827 5.71875 82.568 5.71875 89.6044C7.53231 88.5677 9.38866 87.6624 11.2021 86.4943H11.8047C11.8047 91.0295 11.8047 96.1213 11.502 100.785C11.502 106.483 11.1564 113.346 10.9851 118.828C10.6395 126.254 10.2511 134.322 11.2878 141.316C11.8904 145.977 13.7497 151.115 18.3248 153.102C20.481 154.479 23.5055 154.008 25.9216 153.531C33.2585 150.855 39.3906 145.029 44.351 138.811C47.2441 134.581 50.0086 130.309 51.171 125.342C51.6908 124.437 51.7765 123.055 52.3392 122.021C52.7276 126.207 52.0364 131.733 52.1221 135.92C55.4035 134.71 58.5965 133.33 61.9669 132.293C68.5698 129.746 75.5614 128.149 82.5551 126.596C82.5551 121.201 82.9863 116.623 82.9863 110.925L83.2034 110.625L83.4176 110.84C84.8426 115.372 86.699 119.69 88.167 124.222C88.5554 124.828 88.1241 126.121 89.2893 126.076C94.3843 125.387 99.6476 126.076 104.96 125.861C106.254 125.907 107.505 126.121 108.67 126.467C112.425 126.941 115.924 128.021 119.548 128.755C120.414 129.229 121.536 129.054 122.356 129.703C126.285 130.437 129.695 132.336 133.537 133.198C139.363 135.706 145.189 138.162 150.844 141.101C151.663 141.101 152.18 141.875 153.003 141.92C152.96 139.933 153.046 137.905 153.306 135.789C153.737 137.517 153.82 139.287 154.04 141.184C154.602 145.07 154.945 149.514 155.807 153.529C161.679 153.575 166.817 153.832 172.6 153.747C172.771 153.055 173.074 152.41 173.117 151.676C173.42 150.551 177.392 135.054 177.564 133.718C178.298 130.828 187.191 90.5504 187.922 90.034C190.081 90.985 191.937 92.6243 194.137 93.444C194.485 86.5384 194.399 78.5076 194.356 71.5587M37.7076 106.194C37.582 108.61 37.4506 111.158 37.3221 113.877C37.0194 115.776 36.7166 118.495 35.9398 120.611C35.0773 123.547 33.0496 126.394 30.4593 128.25C29.7681 128.339 29.2055 128.25 29.0342 127.519C29.1627 121.516 29.1199 116.253 29.4226 109.904C29.5083 99.2432 30.0681 89.4013 30.1566 78.8252C30.4136 77.9628 30.1138 76.5834 31.279 76.3663C33.5208 75.2011 35.897 74.5528 38.2274 73.6475L38.4445 74.5071C38.3588 85.3885 37.7962 94.9276 37.7076 106.194ZM59.8983 107.836C59.8983 107.836 59.6813 112.194 59.4642 114.264C58.9901 115.041 57.9563 114.913 57.308 115.518C55.9686 115.861 54.7177 116.469 53.4668 116.986C53.8981 114.956 54.1123 95.9634 54.5892 87.0278C54.6749 81.2873 54.8462 75.0699 55.1061 68.8123C55.623 68.0326 56.9197 68.164 57.8249 67.8613C58.6903 67.5586 59.5956 67.43 60.5009 67.2587L60.718 67.5586C60.2862 80.5492 60.329 94.101 59.8982 107.833M75.954 109.818C76.2567 103.601 76.1282 98.2027 76.4737 92.1173C77.0335 92.6371 81.1775 104.855 82.4741 108.996C81.0918 109.601 76.2995 110.335 75.954 109.818ZM90.6736 67.5557C90.7193 70.0174 90.5023 72.3051 90.4594 74.6784C90.1567 74.0329 89.7254 73.2562 89.6398 72.4337C88.5602 69.5863 87.4807 66.8218 86.6181 63.9287C87.7834 63.5431 89.2513 63.8002 90.545 63.7145C91.062 65.1824 90.4594 66.0907 90.6736 67.5557ZM111.999 82.3608C111.653 91.3399 111.867 99.1964 111.35 108.35V108.695C109.754 108.564 107.855 108.478 106.084 108.35C105.696 106.922 105.956 104.808 105.87 103.6C106.084 89.8318 106.301 77.6143 106.69 63.9284L106.818 63.7999C108.503 64.1912 110.445 63.9284 112.084 64.4482C112.601 70.6198 111.913 76.2354 111.999 82.3608ZM167.641 99.8873C167.252 97.9452 164.616 80.2472 164.1 77.785L164.185 77.2681C166.042 77.6565 167.727 78.5191 169.366 79.3387C170.014 79.9013 170.962 79.947 171.351 80.8095C171.482 83.6997 168.072 98.0737 167.641 99.8873Z" fill="black"/>
<path d="M95.4004 49.7235C92.9583 49.7143 90.577 49.7805 88.2641 50.0237C88.3478 52.7854 88.1272 55.4185 88.2641 58.2259C90.5465 58.4404 93.3919 57.5358 94.6853 59.7802C95.1266 71.0583 94.6473 98.5004 94.1756 99.8797C94.1756 99.8797 83.5928 70.1415 78.9344 57.4073C78.5008 55.0313 77.3352 52.9604 76.776 50.673C72.069 51.3213 67.6693 51.8383 63.0056 52.6151C61.5403 52.9178 59.9837 52.8744 58.6469 53.477L58.4301 61.8503L58.6469 62.37C60.5033 62.1531 62.7484 60.9883 64.4305 62.1531C64.7333 62.5845 64.8185 63.0608 65.0787 63.4921C65.2499 75.6642 64.7759 85.7631 64.6474 98.4121C64.1703 104.543 65.2933 110.501 63.7397 116.545C62.2288 118.832 59.3803 118.832 57.3072 120.169C57.2212 121.982 57.0044 123.625 57.0926 125.261C57.0926 126.47 56.6164 128.068 57.0926 128.973C63.0504 126.6 69.4389 124.614 75.8273 122.971C76.4733 122.674 77.3368 122.841 77.899 122.332C77.8107 119.909 78.0276 117.105 78.1128 114.472L77.899 114.04C75.8684 114.254 74.1855 115.334 72.2006 114.689C70.4294 112.227 71.3812 99.0611 71.2922 96.428C71.8126 92.8035 71.1218 89.262 71.5958 85.2495C71.9838 78.8147 71.6817 72.904 72.1161 66.0834C73.1927 68.4997 74.1429 71.1329 74.9197 73.766L75.1365 73.9828C80.4461 89.6507 86.2708 105.104 91.8019 120.689C94.4723 120.86 97.9263 120.386 100.391 120.689L100.696 120.472C100.817 106.875 101.251 90.5561 101.555 77.9101C101.898 71.1329 101.122 65.4345 102.461 59.4774C103.708 57.7953 106.173 58.3118 108.068 58.2259L108.159 50.2405L107.946 49.9389C103.678 49.9658 99.4707 49.7388 95.4004 49.7235ZM110.746 50.1544C110.358 52.9589 110.624 55.7221 110.533 58.5293C112.176 58.6579 113.857 58.6137 115.196 59.3479C116.269 59.9101 116.665 61.1183 116.749 62.2382C116.832 71.6082 116.71 80.4137 116.361 89.8241C116.056 97.5523 116.574 105.064 115.501 112.183C114.2 114.126 111.179 112.831 109.498 112.917V121.289C121.108 123.579 132.2 127.117 142.776 131.864C143.08 131.826 146.838 133.804 148.474 134.246C148.862 128.798 148.52 122.933 148.778 117.149C148.862 111.794 148.991 106.528 149.083 101.002C147.744 99.7936 145.758 99.6201 144.206 98.7148C144.206 102.125 143.856 105.491 143.681 108.687C142.821 112.311 143.339 116.886 139.671 119.049C134.315 119.78 129.827 116.673 124.821 115.724C124.646 106.1 125.125 97.2464 125.254 87.6223C125.726 78.5148 125.079 70.5264 126.205 62.067C127.499 59.6507 130.519 61.3336 132.718 61.4218C132.893 58.6145 132.801 55.5074 132.801 52.7426C129.439 52.2258 125.597 51.7083 122.363 51.1885C118.308 50.9743 114.679 50.3258 110.746 50.1544ZM56.1416 53.8665C49.5394 55.7655 43.1076 57.1029 36.6735 59.4789C36.373 62.586 36.6743 65.8636 36.3745 68.9737C38.1852 68.6283 39.9982 67.2923 41.8545 67.9383C42.5461 68.1977 42.5027 68.9303 42.8025 69.4051C43.151 79.6348 42.4175 89.3921 42.3749 99.4506C42.2859 112.271 43.7101 128.243 29.9419 134.063C29.1621 133.98 28.6455 134.588 27.7828 134.375C24.8042 133.295 24.5448 129.62 24.4588 126.904C24.1134 117.794 24.6734 108.126 24.7616 99.3639C24.8933 91.0734 24.8468 83.4358 25.581 75.9221C26.4004 72.6864 29.8963 72.039 32.3149 70.7449C32.4008 67.5921 32.6192 64.698 32.5302 61.2052L32.3149 60.9039C24.9754 64.011 17.5104 67.16 10.473 70.8727C10.3875 74.7573 10.1706 78.1672 10.2591 81.7514C11.8985 81.0605 13.1952 79.6774 15.1345 79.7664C16.1281 80.1978 16.2133 81.495 16.2566 82.3547C16.0847 100.227 15.8686 116.759 15.6518 134.375C16.1714 139.64 15.9112 145.331 20.2295 148.96C22.3004 150.124 24.2869 149.439 26.532 148.747C36.5016 143.132 44.4025 133.417 47.1642 122.324C47.855 120.559 47.8124 118.271 48.3746 116.544C48.8919 112.616 49.0631 108.387 49.1088 104.025C49.1088 104.025 48.9772 99.9238 49.2366 97.4619C49.28 86.9294 49.4519 78.0813 50.0567 67.249C50.1427 65.5212 51.6537 64.3138 53.1638 63.7942C54.0722 63.4914 55.0636 63.2335 56.0572 62.9733L56.1416 56.2394C56.3158 55.3767 56.3158 54.7285 56.1416 53.8665ZM143.466 55.1172C143.421 57.879 143.208 61.1177 143.299 64.2248C145.018 64.6562 146.829 65.1324 147.955 66.8146C150.458 72.729 150.679 79.5922 151.751 86.0666C155.205 105.881 157.199 126.212 159.222 146.16C159.352 146.89 159.352 148.1 159.656 148.747C162.502 149.173 165.743 148.83 168.672 149.089C169.235 148.442 169.28 147.187 169.585 146.282C174.119 129.62 177.695 112.962 181.712 96.1267C182.967 92.1112 182.792 87.3638 185.424 83.9965C187.068 83.6511 188.445 84.4705 189.7 85.3758C189.913 81.6661 190.126 77.9534 189.913 74.0665C186.847 72.2984 183.697 70.6558 180.593 68.9737C177.657 67.8089 174.979 65.9952 171.958 64.959C171.312 64.6562 170.619 64.0118 169.889 64.1403C169.706 67.2475 169.843 71.0903 169.798 74.0665C171.525 75.1484 173.465 75.6657 174.979 77.1759C176.919 78.8154 176.272 81.4486 176.105 83.6937C173.381 96.8593 170.193 109.855 167.12 122.841C166.823 123.8 166.861 124.873 166.26 125.649C165.651 121.723 165.05 117.794 164.404 113.867C163.194 105.017 161.809 95.8665 160.47 86.7156C160.219 86.285 160.561 85.636 160.173 85.248C159.74 81.7947 159.352 78.642 158.918 75.3203C158.88 73.8094 158.401 71.6502 159.74 70.4421C161.855 70.1393 163.628 71.6943 165.438 72.0823C165.53 68.9326 165.743 65.9526 165.651 62.586L165.438 62.1547C158.233 59.6075 150.808 57.1455 143.466 55.1172Z" fill="#CF0A2C"/>
</g>
<defs>
<clipPath id="clip0_107_20231">
<rect width="200" height="200" fill="white"/>
</clipPath>
</defs>
</svg>
