<svg width="200" height="200" viewBox="0 0 200 200" fill="none" xmlns="http://www.w3.org/2000/svg">
<path d="M19.9754 26.1484V28.0709V68.5568L80.2336 68.5573V28.0714V26.1487H78.3148H21.8983H19.9771L19.9754 26.1484ZM123.386 26.1484V28.0709V68.5568L183.644 68.5573V28.0714V26.1487H181.719H125.305L123.386 26.1484ZM80.2336 117.03C60.0008 118.175 39.8448 120.946 19.9754 125.348L19.9771 139.503C19.9038 141.19 19.9376 149.34 26.8202 157.354C35.6554 167.637 51.6013 173.196 74.2231 173.856H74.2513H74.2795H129.368H129.396H129.424H129.509C152.061 173.19 167.966 167.637 176.798 157.354C183.52 149.532 183.745 141.777 183.644 139.503V125.394C163.778 120.98 143.618 118.203 123.386 117.041V130.896C123.386 136.365 123.386 140.321 121.484 142.59C119.475 144.972 114.852 146.044 106.483 146.044H97.1366C88.767 146.044 84.1391 144.972 82.1412 142.59C80.2336 140.321 80.2336 136.365 80.2336 130.896V117.03Z" fill="#00263A"/>
<path d="M23.5928 29.8477V68.5699H76.6196V29.8477H23.5928ZM126.997 29.8477V68.5699H180.026V29.8477H126.997ZM76.6213 117.247C58.8266 118.432 41.1019 120.881 23.5945 124.578V139.585C23.5493 140.392 23.3303 147.678 29.539 154.913C37.6795 164.394 52.7286 169.525 74.2792 170.157H129.368H129.407C150.91 169.525 165.939 164.394 174.077 154.913C180.139 147.853 180.099 140.911 180.026 139.607V124.612C162.519 120.904 144.798 118.449 126.997 117.264V130.888C126.997 142.643 126.997 149.726 106.482 149.726H97.1363C76.6213 149.726 76.6213 142.643 76.6213 130.888V117.247Z" fill="#8A8D8F"/>
<path d="M175.19 106.944C175.18 105.205 175.172 103.47 175.164 101.73C182.047 102.564 188.915 103.512 195.76 104.578C195.757 100.201 195.755 95.8203 195.75 91.4429C188.878 90.8178 181.995 90.2598 175.098 89.7702C175.091 88.2986 175.083 86.8242 175.076 85.354C182.409 85.7371 189.735 86.1794 197.05 86.6824V86.0637C197.05 81.6588 197.046 77.2538 197.046 72.8475V72.7148C136.203 72.736 71.8039 72.7388 10.9644 72.7769C6.09947 72.7388 1.99788 76.8348 2 81.7208V97.0499C2 99.658 4.20318 102.315 6.83528 103.36C5.26843 103.592 3.70159 103.829 2.13686 104.07V115.43C2.13827 119.403 6.1157 123.18 10.781 122.052C18.8868 120.172 27.0377 118.555 35.2205 117.204C39.322 116.479 45.66 112.249 45.6875 108.174C45.7192 103.713 45.7489 99.2475 45.7792 94.7847C45.7432 91.7244 42.9735 90.0736 39.6529 89.3667C41.4949 89.2623 43.3404 89.1586 45.1852 89.0591C45.1951 87.5367 45.2057 86.0157 45.2169 84.4919C49.2988 84.336 53.3813 84.1984 57.4681 84.0799C57.4011 94.1244 57.3376 104.169 57.2734 114.214C63.1139 113.575 68.9644 113.072 74.8205 112.699C80.0078 112.387 85.1993 112.177 90.3901 112.071C91.4688 109.633 92.5453 107.203 93.6205 104.781C98.9263 104.73 104.234 104.767 109.539 104.894C110.641 107.342 111.745 109.799 112.85 112.268C124.487 112.709 136.111 113.674 147.682 115.163C147.613 104.876 147.541 94.5886 147.472 84.2986C149.759 84.3804 155.604 84.4658 157.895 84.5568C157.965 95.0767 158.036 105.592 158.109 116.11C171.503 118.079 184.817 120.753 198 124.133V110.718C190.428 109.288 182.823 108.03 175.192 106.944M27.0441 106.973C24.6801 107.293 22.3189 107.626 19.9577 107.978C19.9647 106.404 19.9718 104.829 19.9788 103.257C22.34 103.135 24.7033 103.02 27.0667 102.915C27.0596 104.268 27.0526 105.62 27.0441 106.973ZM27.2938 88.7508C24.3527 88.6873 21.3665 88.6238 19.4864 88.5872C19.4921 87.2806 19.4977 85.9727 19.5048 84.6683C22.1086 84.5328 24.7153 84.4023 27.3206 84.2796C27.3115 85.7688 27.3044 87.2588 27.2938 88.7508ZM129.996 83.7935C130.041 92.1526 130.087 100.508 130.135 108.867C125.891 100.199 121.656 91.8083 117.442 83.567C121.626 83.6221 125.811 83.6997 129.996 83.7935ZM105.096 94.2584C102.794 94.233 100.49 94.2238 98.1891 94.2238C99.382 91.5917 100.575 88.9632 101.765 86.3325C102.872 88.9695 103.983 91.6087 105.096 94.2584ZM87.4349 83.5275C83.2571 91.6221 79.0589 99.8083 74.8466 108.209C74.8811 100.034 74.9157 91.8535 74.9524 83.6785C79.1132 83.6087 83.2741 83.5593 87.4349 83.5275Z" fill="#8A8D8F"/>
<path d="M25.9269 32.2617V68.569H74.2768V32.2617H25.9269ZM129.331 32.2617V68.569H177.681V32.2617H129.331ZM94.4645 74.3465C88.2507 86.3592 81.9862 98.4368 75.6934 110.988C80.0729 110.74 84.4581 110.571 88.8433 110.469C89.9212 108.026 90.9992 105.593 92.0715 103.166C98.4038 103.087 104.736 103.132 111.063 103.29C112.163 105.745 113.269 108.206 114.376 110.684C119.331 110.881 124.28 111.169 129.224 111.553C122.92 98.6851 116.639 86.4269 110.402 74.3516C105.092 74.346 99.7752 74.342 94.4645 74.3465ZM112.829 74.3561C114.088 76.8614 115.352 79.3762 116.616 81.9046C121.78 81.9627 126.95 82.0418 132.119 82.149C132.176 92.0312 132.232 101.919 132.289 111.801C136.708 112.168 141.116 112.62 145.523 113.139C145.456 102.918 145.388 92.6971 145.315 82.4707C149.028 82.5779 156.297 82.6964 160.005 82.8262C160.079 93.4252 160.152 104.013 160.22 114.612C172.19 116.361 184.087 118.653 195.888 121.486C195.882 118.466 195.882 115.453 195.882 112.439C188.309 110.96 180.701 109.668 173.065 108.55C173.054 105.559 173.031 102.568 173.02 99.5712C179.911 100.322 186.785 101.191 193.636 102.162C193.636 99.2213 193.631 96.2809 193.631 93.3405C186.757 92.6576 179.871 92.0537 172.975 91.5232C172.958 88.7973 172.941 86.0657 172.929 83.3342C180.266 83.6502 187.603 84.0171 194.923 84.4347V83.8195C194.923 80.8622 194.917 77.9043 194.917 74.9425V74.8183C168.753 74.5508 139.016 74.3962 112.829 74.3561ZM92.0941 74.395C76.4892 74.4063 60.8842 74.4577 45.2861 74.5503C45.2674 77.2688 45.2488 79.9886 45.2302 82.7077C50.02 82.5553 54.8116 82.4199 59.6031 82.307C59.541 92.2964 59.4789 102.291 59.4168 112.281C63.8302 111.852 68.2549 111.502 72.6796 111.22C72.7248 101.496 72.7699 91.7716 72.8151 82.0474C77.9847 81.9706 83.1544 81.9142 88.3241 81.8826C89.5826 79.3819 90.8355 76.8868 92.0941 74.395ZM36.5162 74.5779C27.9942 74.6327 19.4733 74.706 10.9552 74.7884C7.23032 74.8003 4.08902 77.9895 4.08902 81.6315C4.08631 86.6866 4.08236 91.7433 4.07813 96.8001C4.07671 99.1705 7.32232 101.981 9.86183 101.8C10.1959 101.733 29.1493 100.903 29.1606 100.954C29.1459 103.082 29.1363 105.209 29.1222 107.337C29.1183 108.031 28.239 108.675 27.7485 108.748C24.9487 109.154 22.1522 109.583 19.3591 110.04C18.5419 110.176 17.8573 109.634 17.859 108.957C17.8646 107.23 17.872 105.508 17.8799 103.781C13.3152 104.408 8.76074 105.091 4.21696 105.83C4.21262 108.883 4.21126 111.937 4.20912 114.996C4.20912 117.834 7.32384 120.831 10.7824 120.035C18.8913 118.235 27.0431 116.689 35.2288 115.391C38.466 114.843 43.5584 111.288 43.5798 108.415C43.6109 103.934 43.6402 99.447 43.6713 94.9603C43.6374 91.5176 38.3966 90.8291 35.8394 90.7952C34.4026 90.7105 17.3743 90.4961 17.3782 90.5074C17.3884 88.391 17.3946 86.2746 17.4036 84.1582C17.4053 83.6502 17.9601 82.798 18.7824 82.7585C21.7504 82.6287 24.7224 82.5045 27.6927 82.386C28.5466 82.3578 29.4197 82.9843 29.4152 83.6502C29.4062 85.1515 29.3983 86.6583 29.3898 88.1596C33.9539 87.8774 38.5174 87.6291 43.0883 87.4033C43.1063 84.9765 43.1216 82.5497 43.1379 80.1178C43.156 77.3766 40.4116 74.5649 36.5162 74.5779ZM101.724 81.3809H101.922C103.948 86.2125 105.985 91.0548 108.028 95.9253C103.744 95.8633 99.4552 95.8407 95.1716 95.8576C97.3614 91.0266 99.5455 86.2012 101.724 81.3809ZM74.2785 117.405C58.064 118.579 41.91 120.786 25.9286 124.048V139.676C25.9286 139.676 23.7343 166.252 74.2785 167.748H129.333C179.884 166.252 177.683 139.676 177.683 139.676V124.155C161.706 120.871 145.553 118.636 129.333 117.451V130.894C129.333 142.751 129.333 152.148 106.482 152.148H97.1356C74.2785 152.148 74.2785 142.751 74.2785 130.894V117.405Z" fill="#00263A"/>
</svg>
