<svg width="200" height="200" viewBox="0 0 200 200" fill="none" xmlns="http://www.w3.org/2000/svg">
<path d="M150.361 150.022C147.985 148.717 146.663 144.767 143.688 143.708C143.553 143.555 143.553 143.555 143.563 143.412C143.708 143.423 143.861 143.292 144.152 143.311C145.392 143.179 146.118 142.157 146.704 140.98C146.866 140.776 146.948 140.639 147.153 140.795C147.283 141.019 147.442 140.815 147.572 141.039C148.23 142.015 148.45 143.03 149.385 143.162C149.529 143.173 149.63 142.75 149.63 142.75C149.917 141.769 149.532 141.028 148.941 140.131C147.423 137.953 145.683 135.835 143.319 135.388C141.886 135.149 140.179 134.676 139.345 134.12L138.188 133.04C138.145 132.608 137.885 132.162 138.328 132.049C139.219 131.751 139.603 132.491 140.311 132.754C141.008 133.159 142.007 134.442 142.716 133.631C142.716 133.631 142.727 133.49 142.88 133.357C141.617 128.553 138.09 126.027 134.54 123.855C134.55 123.714 134.487 123.567 134.487 123.567L135.288 122.478L136.385 123.409L137.337 124.332C137.776 124.29 138.216 124.175 138.381 123.901C138.508 123.123 138.239 122.818 138.061 122.234C136.977 120.09 134.502 120.207 132.129 118.831C132.006 118.537 131.688 117.873 132.001 117.537C132.145 117.546 132.435 117.566 132.435 117.566L133.982 119.314L134.974 119.666C134.989 119.454 135.099 118.89 135.269 118.544C135.015 118.026 135.127 117.461 134.813 116.725C134.421 115.054 133.205 113.756 131.707 113.369C132.198 109.397 129.532 106 130.513 102.279C130.523 102.136 130.342 101.622 130.124 101.607C129.971 101.74 129.683 101.721 129.539 101.711L128.811 101.734L127.94 108.038L127.165 108.771C126.885 108.609 126.741 108.6 126.391 108.434C124.963 105.977 124.549 102.517 122.053 100.848C122.053 100.848 121.909 100.837 121.701 100.681C121.149 100.287 121.269 99.5792 121.164 99.0004C121.328 98.725 121.623 98.6754 121.847 98.5462C122.568 98.5948 123.557 97.9462 123.971 97.1882L124.316 95.3532C124.419 94.931 124.75 94.3099 125.043 94.2587C125.612 94.4406 126 95.1093 126.492 95.3573C126.814 95.9505 127.828 95.9485 128.291 95.5501C128.251 94.0458 127.852 92.4465 127.281 91.2641C126.888 90.6652 126.359 89.9139 126.022 89.5336C124.594 89.2235 123.436 90.2177 122.204 90.2053C121.934 89.902 122.325 89.4989 122.498 89.0824C120.941 80.1101 122.899 69.5906 121.066 61.458C120.63 59.3549 119.405 58.1994 119.586 56.6388C120.183 55.3211 119.164 54.3233 119.295 53.4743C119.579 53.5647 119.766 54.0055 119.758 54.1486C121.402 54.4747 123.34 53.7471 124.673 53.3373C125.096 53.5089 125.504 53.8933 126.102 53.6479C127.2 53.5079 127.5 52.3131 127.905 51.6966L128.648 51.46C128.492 51.5928 128.637 51.6026 128.941 51.4088C129.383 51.2951 129.64 50.7401 130.626 51.1649C130.885 51.6103 131.632 51.3044 131.785 51.1721C132.385 49.8539 133.532 49.0013 134.91 47.9512C135.225 46.5426 134.363 45.3396 134.458 43.9883C133 43.0318 133.435 40.9157 131.94 40.5287C131.66 40.3674 131.536 40.0724 131.247 40.0527L131.088 39.1841C130.689 38.6575 130.001 38.1103 129.573 38.0105C129.429 38.0002 129.151 37.8379 129.016 37.6865C127.126 36.7011 124.166 36.5006 121.338 37.5253C120.437 37.9651 119.498 37.9015 119.038 38.2994L118.607 39.2709C118.596 39.4145 118.515 39.5515 118.21 39.7453C117.041 39.8812 116.603 40.9958 116.61 41.9259L116.723 44.5071C116.568 44.6394 116.064 44.6048 115.625 44.6466C114.616 43.5056 114.758 41.4418 113.296 40.5571C112.871 40.3855 112.005 40.3266 111.75 40.8816C111.719 41.3084 111.748 41.9544 111.729 42.2381C110.992 42.4039 110.539 42.6577 109.977 42.4065C108.31 42.3647 107.571 44.6745 105.826 44.7712C104.324 43.3827 101.491 39.258 100.659 37.6292C99.8013 35.3555 103.057 34.432 104.252 32.8673C106.082 31.5615 111.341 29.9865 111.481 28.9948C114.238 30.0386 116.896 31.4339 120.216 30.6567C122.513 29.9539 124.747 29.1044 126.409 27.0715C126.243 26.3449 126.364 25.6396 126.561 24.8655C125.674 21.9458 124.054 20.192 121.382 19.0102C120.694 18.4645 119.755 18.4004 119.283 17.8682C118.592 16.3195 119.35 14.7976 119.183 12.9993C118.738 12.1111 118.203 11.432 117.482 11.3835C117.179 11.5778 116.764 11.2626 116.456 11.5287C116.219 11.7979 115.515 11.5364 115.379 11.3835C115.245 11.2326 115.254 11.0894 115.19 10.9422C114.793 10.4146 113.734 9.98618 112.724 9.91797L110.725 11.57L109.049 12.7436C105.993 11.8212 102.864 11.9684 99.6406 13.466C98.5854 14.0375 98.7146 15.3335 98.4097 16.5995C98.8675 20.4927 101.733 22.0435 103.667 24.5342C103.843 25.1171 103.524 25.5248 103.274 26.009C100.421 28.461 98.1601 30.7394 95.1247 32.6808C94.0204 33.9628 92.2542 34.3457 92.2454 36.5605C92.2655 40.494 93.6695 44.3076 95.7556 46.6656C96.3081 48.1311 97.2217 48.5512 98.2257 49.763C98.6825 50.5081 99.1543 51.0414 99.5476 51.6398C101.108 58.4655 95.6632 66.964 100.321 73.0699C100.77 73.8874 100.443 74.4367 100.032 75.124C99.0008 76.4128 98.8587 78.4767 98.5285 80.0993C96.7385 79.7634 95.1459 78.6544 93.36 79.321C92.7254 79.0632 92.6205 78.4839 92.2175 78.0281C88.3873 72.5506 80.3886 73.8693 74.8903 72.6384L74.0145 71.6504C75.5218 68.7489 76.5408 65.5295 76.4106 62.1603C76.5377 60.3093 76.0101 58.4862 75.7244 56.3215C75.4288 54.3 73.986 53.1301 72.8761 51.3391C72.1883 50.7918 71.3237 50.7334 70.5527 50.3236C68.0134 49.2948 64.9052 48.0846 61.985 49.3878C59.6163 50.0859 59.1941 53.0598 57.2423 55.0726C55.4347 57.0962 53.622 59.1895 55.0523 62.6471C54.1976 64.5203 53.5744 66.194 52.5859 67.9148C52.4433 68.9054 52.0102 69.9498 51.8604 71.0815C51.1969 73.3257 48.5346 77.2205 50.8868 77.809C51.1204 79.6833 50.4316 81.2816 50.1112 82.7605C49.783 84.3836 49.8192 85.9576 49.5092 87.296C48.517 86.9431 50.5463 88.0102 50.0698 88.622C50.7943 90.7438 48.1584 93.2118 49.1852 95.1398C49.3288 95.1491 49.4637 95.3015 49.6079 95.3118C52.6246 93.6552 52.1642 88.7631 55.8662 87.6552C57.3705 85.8259 57.9131 83.2173 58.3833 80.6036C59.175 78.5842 58.3797 76.4572 59.778 74.0492C61.3794 71.869 62.4 68.6496 63.2547 65.7047C63.8515 65.4582 64.7336 65.3042 65.317 65.2716L66.3195 67.5562L66.7608 68.5153C66.9386 69.1002 67.2063 69.4036 67.5143 70.2102C67.7716 71.729 68.199 72.902 68.2212 74.6915C67.8016 75.5198 66.4585 76.0727 65.3785 77.0013C64.9016 77.6121 64.0479 78.4121 63.3539 79.0094C62.1163 80.1416 61.0699 81.6428 59.8736 83.2075C58.7486 85.8481 57.6335 88.3461 56.5607 91.2766C56.1546 92.9658 56.1463 95.1806 56.8749 97.2326C57.1384 98.6795 58.1322 100.034 58.2515 101.472C58.9574 102.807 59.5238 104.062 59.947 105.304C59.486 106.704 59.0292 107.03 57.6609 107.94C55.9169 109.036 55.3433 110 52.8804 112.049C51.2098 113.152 48.0282 116.154 48.4669 119.257C49.7376 121.846 52.8577 121.843 55.2384 123.077C57.6149 124.381 59.8038 125.245 62.0651 126.112L60.2756 128.922C59.9677 129.189 59.7796 129.819 59.9465 130.544C57.4159 132.518 67.8724 139.731 70.3972 145.192C71.1067 147.529 71.995 149.376 73.6538 150.562L72.751 152.075C72.2007 153.753 73.8651 154.865 74.4408 155.978C75.1952 157.673 75.8861 159.222 77.8296 160.498C78.4595 160.824 78.9892 160.502 79.462 159.964C81.4024 156.019 80.016 151.922 79.0734 147.711C76.3729 143.739 73.2693 139.31 70.5651 135.411C69.5606 134.198 69.4309 132.902 70.3388 131.319C70.2758 131.173 70.421 131.181 70.421 131.181C70.9103 131.429 70.6272 131.339 70.8912 131.713C71.7278 132.198 72.8053 133.416 74.1354 133.078C74.418 133.169 74.6924 133.401 74.5994 133.68C74.5994 133.68 74.447 133.813 74.4273 134.099C73.7132 134.979 73.9199 135.138 73.2734 136.093C73.136 138.087 75.9063 138.917 76.6711 140.47C77.3056 140.728 77.286 141.012 78.0043 141.132C78.5624 141.456 79.4667 142.017 79.8868 141.187C79.7612 140.893 80.2103 139.637 80.5431 139.015C79.7504 134.742 80.5028 133.292 78.689 129.095C77.3082 128.072 74.6356 125.819 73.1541 125.218C76.5481 121.228 77.7164 117.946 81.3249 112.97C82.5238 112.408 83.8932 113.574 84.7778 114.421C85.0465 115.795 85.7757 116.777 86.0588 117.94C86.049 118.081 85.8961 118.214 85.8961 118.214L83.1981 119.463L81.7347 121.722L83.4937 124.631C83.8446 124.796 83.8255 125.082 84.105 125.244L84.5794 125.705C84.9556 125.516 85.1008 125.527 85.245 125.535C85.5969 125.703 85.8279 125.503 85.5865 125.846C85.4351 128.052 86.2454 129.966 87.205 131.819C88.3594 132.968 88.2039 134.173 89.0405 134.659C89.767 134.636 90.5034 134.472 91.0491 133.937C91.3173 132.167 91.3519 130.597 91.479 128.746C91.3597 128.382 91.7736 127.622 92.0816 127.357C92.0723 127.497 92.3508 127.661 92.4851 127.813C93.529 129.528 94.0798 130.995 95.7732 132.754C96.508 133.662 97.3431 135.22 98.7099 135.384C98.9791 135.688 99.4029 135.86 99.5848 136.373L99.2458 137.064C98.8133 137.035 98.8458 137.609 98.0908 138.059C96.2543 143.655 100.669 150.102 101.061 155.991C102.04 157.558 102.135 159.353 101.873 161.051C102.246 163.007 102.418 164.734 103.301 166.652C103.378 169.734 103.788 172.192 103.073 175.218C100.383 178.467 103.646 182.692 103.164 186.52C104.289 188.096 106.555 187.821 107.836 189.265C108.543 189.529 109.489 190.522 110.405 189.868C110.249 186.856 108.571 182.809 108.868 179.543C108.117 175.702 107.683 172.526 107.268 169.067C107.955 167.539 107.414 165.93 107.23 164.344C107.011 163.329 107.581 162.438 107.29 161.418C107.344 155.343 107.458 148.415 109.166 142.595C109.483 142.189 109.628 142.199 110.074 142.014C112.368 141.383 114.124 139.071 116.351 139.365C116.351 139.365 116.214 148.722 116.318 148.3C116.568 155.18 116.242 165.169 116.242 165.169C115.954 165.148 115.785 165.494 115.275 165.532C114.151 167.101 110.949 167.242 110.196 169.765C110.219 170.482 109.798 171.311 110.502 171.643C111.92 172.098 113.096 170.819 114.305 170.112C114.398 169.834 115.274 169.751 115.775 169.855C115.827 170.145 115.807 170.429 115.779 170.856C114.856 172.653 112.969 172.669 111.384 173.563C111.076 173.827 111.027 174.539 111.06 175.112C111.906 176.528 113.337 177.84 115.089 178.745C120.877 177.921 126.428 173.148 133.216 172.534C136.601 171.834 137.557 168.467 140.818 167.47L149.255 165.037C149.409 164.906 149.409 164.906 149.418 164.761L149.414 163.762L144.686 160.796C144.277 160.411 144.693 159.651 144.867 159.235C145.397 158.914 145.892 159.092 146.47 159.129C147.621 159.278 148.414 160.403 148.807 161.005C148.957 160.942 148.957 160.942 149.101 160.951L150.001 160.51C150.301 160.388 150.276 159.672 149.966 158.935C149.112 156.59 146.734 155.285 144.7 153.217C144.474 152.345 143.487 150.848 143.98 150.022C146.339 149.467 148.169 152.379 149.848 153.279C150.203 153.376 151.06 153.575 151.016 153.143C151.186 152.799 151.567 152.539 151.577 152.395C151.346 151.517 150.755 150.62 150.361 150.022ZM64.4303 120.259C62.9777 119.232 61.7365 118.289 60.3516 117.339C63.5782 115.77 65.6452 115.265 68.0057 113.638C66.7619 115.913 65.6033 117.98 64.4303 120.259ZM113.96 92.0041C113.817 91.9938 113.817 91.9938 113.67 91.9845C111.537 89.2669 113.742 85.6977 112.864 82.6365C111.703 79.4828 113.777 76.7631 114.252 74.0786C114.69 74.0357 114.979 74.0559 114.93 73.6957L114.783 72.6844L115.06 73.9184C115.502 75.9498 114.372 77.5899 114.654 79.8254C115.184 82.6494 114.612 85.6848 116.132 87.8608C116.128 88.9341 116.831 89.2674 117.12 90.3593C116.662 91.7571 115.02 91.3603 113.96 92.0041ZM122.182 160.055C121.33 160.857 120.335 162.647 119.404 163.513C118.821 160.4 119.339 155.002 119.36 151.5C119.342 148.637 119.241 144.841 119.668 141.796L119.946 141.957C122.566 144.997 124.375 149.266 126.427 153.19C125.167 155.681 122.883 157.241 122.182 160.055Z" fill="#492F24" stroke="#FFC425" stroke-width="2.99998"/>
</svg>
