<svg width="200" height="200" viewBox="0 0 200 200" fill="none" xmlns="http://www.w3.org/2000/svg">
<path d="M101.247 70.4117L121.213 100.581H81.2818L101.247 70.4117ZM168.428 129.667L114.628 49.9279H57.4837L43.7502 70.3189H74.8007L34.8055 129.667H21.9678L8.23438 150.059H75.3081L88.7422 129.667H62.0334L68.6963 119.598H123.911L128.9 112.197L140.461 129.667H125.92L112.187 150.059H178.325L191.759 129.667H168.428Z" fill="#C7B784"/>
<path d="M74.4025 104.278L99.3238 66.6196H103.177L128.098 104.278H74.4025ZM166.465 133.365L112.776 53.7904L112.664 53.6249H59.4547L50.7026 66.6196H81.7561L36.7758 133.365H23.9388L15.1875 146.359H73.3188L81.8799 133.365H55.1533L66.7116 115.899H121.947L128.931 105.537L147.346 133.365H127.891L119.14 146.359H176.335L184.896 133.365H166.465Z" fill="#011E41"/>
</svg>
