<svg width="200" height="200" viewBox="0 0 200 200" fill="none" xmlns="http://www.w3.org/2000/svg">
<path d="M59.8225 29.4421V22.0729L71.3127 33.2737V12.1797L149.327 99.7421C149.327 99.7421 160.088 112.378 160.088 125.206C160.088 134.483 158.376 139.543 153.166 144.149C156.093 149.614 164.817 168.076 160.769 187.82L156.288 184.193C156.288 184.193 138.969 190.382 108.372 179.02C108.372 179.02 105.507 181.121 100.457 181.121H68.4154C68.4154 181.121 60.3473 180.882 56.9522 175.852L40.894 149.145C40.894 149.145 38.1797 145.235 38.1797 134.999V78.2612H50.2473C50.2473 78.2612 49.8709 76.6822 49.8709 73.9753V61.6363L49.9414 49.3948V34.6098L59.8225 44.404V29.4421Z" fill="white"/>
<path d="M144.428 96.532C153.608 106.766 160.827 121.234 155.508 135.199C154.434 137.916 152.216 140.381 149.874 142.34C156.079 154.348 160.447 167.931 158.42 182.656L124.236 155.543C122.144 154.597 119.932 153.589 117.523 154.028L125.434 160.66L151.075 181.454V181.772C135.504 184.169 120.814 179.999 107.203 175.386C105.369 176.589 103.469 177.411 101.251 177.663C91.6921 177.913 78.1458 177.787 67.6949 177.787C63.013 177.157 57.8258 175.513 55.8567 170.518L41.4887 146.1C39.7761 142.433 39.1462 137.663 39.2737 133.3L39.3952 78.6489H51.6172L50.9844 72.9578V37.7027L60.897 47.5269L60.915 25.1598L72.2883 36.5345L72.2988 15.7376L144.428 96.532Z" fill="black"/>
<path d="M73.7764 19.3281V39.1221L62.5903 29.1358L62.5735 51.6111L52.4732 41.4748L52.4612 69.8119C52.4612 69.8119 52.1684 77.1422 53.7317 79.9219H40.8516V136.475C40.8516 140.738 42.6271 145.067 42.6271 145.067L55.5432 166.741C57.0621 168.824 58.1406 171.545 60.672 172.807C63.5201 174.328 67.3196 173.947 70.1029 172.684L91.8201 151.763C95.238 149.305 99.9241 148.226 103.973 149.174C100.746 145.887 96.061 143.934 93.9735 139.762C94.0359 137.736 93.8788 134.895 93.8788 134.895C94.0371 133.631 94.9849 133.313 96.1246 133.377L111.603 133.329C113.025 133.393 113.822 132.228 113.981 130.962C113.981 129.7 113.82 127.176 113.82 127.176L105.049 120.693L104.953 125.119C105.263 126.162 106.629 126.949 107.17 127.014H111.76V131.124C111.76 131.124 103.846 131.436 100.171 130.363C92.9574 127.14 93.9711 118.927 93.9711 111.847L81.0563 101.896V96.5139C81.0563 96.5139 117.46 125.119 118.724 126.129C119.989 127.141 121.638 127.014 121.638 127.014H152.281C152.281 127.014 154.275 127.014 155.287 123.856C156.296 120.693 151.454 107.491 146.388 101.11L73.7764 19.3437V19.3281ZM123.464 143.481C121.634 143.539 119.748 143.838 117.777 144.531C115.561 145.322 112.393 146.427 112.393 146.427L112.522 149.613C116.887 149.866 121.894 149.43 125.563 151.764L150.635 171.736L155.186 175.084C155 163.392 152.088 153.222 145.945 144.06C138.232 147.527 131.393 143.231 123.464 143.481ZM118.598 160.866C117.08 165.346 112.142 169.461 107.967 170.978C118.413 174.895 129.424 178.308 141.075 178.56L118.598 160.876V160.866Z" fill="white"/>
<path d="M76.0972 27.0547L76.0576 72.868C76.0576 79.3993 79.7899 82.2378 79.7899 82.2378L84.5395 82.2618C82.9571 79.4784 81.821 77.8144 81.821 73.0372L103.533 90.601L82.0069 68.5551L81.9458 58.1896L104.732 76.5092L81.8222 53.008L81.8006 41.1741L148.546 114.742L152.342 118.53C151.713 113.855 149.686 109.752 146.833 105.962L76.0984 27.0559L76.0972 27.0547ZM65.7353 37.0795L65.7569 70.0259C65.7569 80.7669 68.9337 82.2402 68.9337 82.2402L75.1626 82.2642C75.1626 82.2642 71.4531 80.1323 71.4531 73.8194L71.4987 43.0228L65.7377 37.0783L65.7353 37.0795ZM54.7675 47.8685L54.7159 71.6959C55.1538 76.7011 56.4339 80.9613 57.9491 82.2366H54.1521V118.089C54.4676 122.321 55.6037 126.236 58.393 129.461C62.7624 132.875 68.7129 138.846 74.4104 134.108C74.4104 134.108 59.4176 126.52 60.1038 117.011C64.3472 119.226 68.4574 121.69 72.5748 124.282L73.4602 124.469C69.0909 120.676 60.087 113.412 60.087 113.412L60.1026 107.787C64.5344 110.252 69.0921 112.468 73.4614 115.183C69.3464 111.39 64.4732 107.976 60.1026 104.126V97.3013L73.1423 104.724L59.9167 93.6362L59.9251 84.5052L73.7781 95.8761L73.7001 91.1576C73.7001 91.1576 59.9791 81.945 60.1038 74.6784L60.231 53.4495L54.7687 47.8685H54.7675ZM42.9432 82.2366L42.918 136.316C43.8633 139.349 44.3396 143.044 46.997 145.383C53.2031 149.428 58.1423 156.569 66.1816 156.127C66.7502 155.75 68.0171 154.922 68.0171 154.922L53.395 143.681C50.4198 141.345 48.0743 137.928 48.2663 134.138C54.6607 137.871 68.461 145.512 68.461 145.512L48.0479 129.836V124.464L54.5971 128.257C54.5971 128.257 52.1761 125.808 52.2181 123.766L48.0479 120.752V114.512L52.0454 116.973V113.602L48.0479 110.716V105.271L52.0946 107.717L52.1018 104.531L48.0479 102.02V95.9505L52.0454 98.2395L52.0238 94.9967L48.0479 92.5553V86.4356L52.0514 88.8506L52.0262 85.8021L47.634 82.2582L42.9432 82.2318V82.2366Z" fill="black"/>
<path d="M81.7994 41.1719L81.8198 53.007L104.732 76.5082L81.9445 58.1886L82.0057 68.5541L103.531 90.6L81.8198 73.0362C81.8198 77.8134 82.9559 79.4774 84.5383 82.2608H77.7335C75.8272 81.313 73.8693 76.9232 73.8693 73.6036V45.3913L71.4951 43.023L71.4507 73.8196C71.4507 80.1325 75.1602 82.2608 75.1602 82.2608L66.4935 82.1372C64.7515 81.0323 62.8571 77.3204 62.8571 73.84V56.0723L60.2274 53.4497L60.099 74.6786C59.9754 81.9452 73.7001 91.1566 73.7001 91.1566L73.7757 98.722L59.9226 87.2648L59.9118 93.6352L73.1399 104.723L60.099 97.3027V104.125C64.4695 107.975 69.3452 111.39 73.459 115.183C69.0908 112.468 64.5295 110.25 60.099 107.786L60.087 113.409C60.087 113.409 69.0908 120.675 73.4578 124.467L72.5724 124.281C68.4562 121.692 64.3436 119.227 60.0978 117.013C59.4116 126.522 74.408 134.109 74.408 134.109C74.408 134.109 69.6595 137.422 65.8624 136.474C62.0641 135.527 55.7321 129.839 54.5923 128.26L48.0431 124.467V129.839L68.4574 145.511C68.4574 145.511 54.6559 137.87 48.2615 134.139C48.0695 137.929 50.4137 141.343 53.3914 143.68L68.0135 154.925C65.7328 157.267 61.1116 157.645 59.2112 156.693C57.3133 155.751 50.0346 151.642 50.0346 151.642C50.0346 151.642 56.681 163.011 58.8993 166.173C61.1128 169.336 66.4935 169.966 70.6049 164.278C74.7247 158.591 79.7875 154.482 82.0045 152.272C84.2228 150.061 92.1361 148.48 92.1361 148.48C92.1361 148.48 86.1183 143.74 85.4837 142.164V136.16C86.1183 133.949 94.034 129.839 94.034 129.839C94.034 129.839 89.5987 126.048 89.5987 121.313V111.518L81.0555 104.566V96.4989L115.829 123.882C115.829 123.882 143.123 123.836 146.5 123.836C149.877 123.836 152.7 122.471 152.339 118.529L148.543 114.755L81.7994 41.1863V41.1719ZM47.6328 82.2632L52.0909 85.9019V82.2632H47.6328ZM48.0443 86.4406V92.5603L52.0909 95.1241V88.9575L48.0443 86.4406ZM48.0443 95.9531V102.025L52.0909 104.537V98.3621L48.0443 95.9531ZM48.0443 105.277V110.723L52.0909 113.666V107.723L48.0443 105.277ZM48.0443 114.519V120.758L52.0909 123.682V117.049L48.0443 114.519Z" fill="#BA0C2F"/>
</svg>
