<svg width="201" height="200" viewBox="0 0 201 200" fill="none" xmlns="http://www.w3.org/2000/svg">
<path d="M126.264 11.2534C149.113 2.32552 170.032 8.94327 170.33 9.04239L171.597 9.46593L180.558 26.3455C194.365 30.7073 198.561 39.5751 199.766 48.7823C200.445 53.9732 199.553 58.3682 198.495 61.4593C197.958 63.0274 197.378 64.265 196.93 65.1122C196.462 66.0044 193.623 70.1288 193.623 70.1288L192.205 68.5067C192.136 68.4256 190.676 66.7583 190.517 66.6171C190.27 66.3978 189.838 66.0523 189.195 65.6708C187.921 64.9108 185.767 63.9736 182.502 63.6221C179.297 63.2796 176.521 63.2466 174.178 63.535L157.983 121.551C158.785 121.831 163.12 123.63 163.835 123.849C166.193 124.576 171.781 125.733 171.781 125.733C171.781 125.733 157.13 139.59 131.656 131.885L131.608 193.422H68.5873C51.9842 193.422 41.5333 181.289 41.5333 165.572V140.197H28.8264V131.903H0.486656C0.486656 131.903 2.67056 124.174 3.94125 120.722C5.1819 117.355 7.02336 112.948 9.24632 109.719C12.2533 105.357 16.0654 101.373 19.3398 98.9521C19.3368 89.3783 19.49 51.0684 19.514 40.8488C18.5467 40.1909 17.5313 39.4278 16.5851 38.5747C13.5571 35.8411 9.69392 29.9502 8.51935 27.9346C7.77436 26.6548 6.14318 22.9179 4.83644 19.8688C3.46361 16.6696 0 8.32458 0 8.32458H81.102C92.8116 8.32458 103.662 14.5367 107.237 25.7056C113.212 17.2463 117.886 14.5278 126.264 11.2534Z" fill="#FE5000"/>
<path d="M150.844 9.98566C144.199 10.1082 136.211 11.1849 127.667 14.3234C115.389 18.8246 110.143 26.1424 104.577 36.1108V33.9504C104.577 20.2954 93.8134 12.2375 81.0957 12.2375H5.83708C5.83708 12.2375 10.7036 23.9531 11.8859 25.991C13.0347 27.964 16.6467 33.3976 19.1941 35.6975C20.5182 36.8895 22.0755 37.9277 23.4141 38.7303C23.4213 43.8588 23.1858 99.1444 23.2459 101.05C20.2467 102.773 15.8488 107.02 12.4555 111.944C8.59115 117.548 5.63281 128.016 5.63281 128.016H45.4274V165.581C45.4274 179.38 54.3601 189.538 68.587 189.538H127.715L127.761 126.829C128.792 127.344 129.744 127.752 130.597 128.045C151.502 135.152 164.251 126.997 164.251 126.997C164.251 126.997 160.771 126.243 158.609 125.534C156.696 124.904 153.802 123.65 153.802 123.65L171.521 60.6091C174.705 59.8929 178.526 59.8449 182.857 60.3087C190.376 61.1185 193.316 64.6993 193.316 64.6993C193.316 64.6993 197.644 58.3597 196.447 49.2275C195.337 40.7658 191.643 32.9242 178.262 29.1632L169.267 12.2254C169.267 12.2254 161.915 9.77658 150.839 9.98085L150.844 9.98566ZM36.687 131.888L35.9324 136.341H37.0811L37.4512 133.779H37.4656L38.4846 136.341H38.946L40.0154 133.779H40.0298L40.3518 136.341H41.5078L40.8373 131.888H39.6862L38.7297 134.267L37.8237 131.888H36.687ZM32.7073 131.893V132.868H33.6637V136.341H34.8197V132.868H35.7713V131.893H32.7073Z" fill="#4F2C1D"/>
<path fill-rule="evenodd" clip-rule="evenodd" d="M173.355 34.3826C173.355 34.3826 173.641 37.2994 169.826 40.9854C165.41 45.254 156.734 50.0634 156.734 50.0634C156.734 50.0634 169.486 47.7622 179.94 49.6428C187.664 51.0336 190.184 55.5156 190.184 55.5156C190.184 55.5156 192.326 49.012 187.465 43.1632C182.911 37.6779 173.355 34.3826 173.355 34.3826Z" fill="#CDA077"/>
<path d="M19.043 20.6719C19.043 20.6719 21.8115 26.6847 24.8539 29.4315C27.2187 31.5632 31.852 33.6323 31.852 33.6323V106.62C31.852 106.62 27.0024 108.85 25.2817 110.561C21.1289 114.69 19.5885 119.578 19.5885 119.578H53.8773V165.582C53.8773 175.181 59.472 181.1 68.5921 181.1H119.28V128.097H73.5764C73.5764 128.097 82.187 135.646 88.8343 138.321C94.7558 140.702 104.883 141.536 104.883 141.536V168.144H72.5887C69.229 168.144 68.2653 166.702 68.2653 162.062V119.578H80.3005C86.2172 119.578 88.94 118.619 91.9777 115.899C95.0177 112.861 96.1376 109.662 96.1376 103.741V95.1518H104.083C104.083 95.1518 105.525 101.835 107.449 105.697C110.453 111.705 118.6 118.826 118.6 118.826L118.699 82.1962H96.1376V80.9249C96.1376 74.5276 94.5395 71.1631 90.2233 68.2841C94.3809 65.5661 96.1376 62.3722 96.1376 57.09V33.9496C96.1376 25.9541 90.2233 20.6719 81.1032 20.6719H19.043ZM46.2472 33.6323H75.5037C80.3053 33.6323 81.7425 34.9132 81.7425 39.0708V56.1287C81.7425 60.7669 80.625 61.8892 76.1478 61.8892H46.2496L46.2472 33.6323ZM159.241 36.4008C157.563 36.3936 155.482 36.42 153.867 36.5642C150.964 36.8262 146.487 37.7346 146.487 37.7346L156.523 41.9114L162.19 36.4513C162.19 36.4513 160.918 36.408 159.241 36.4008ZM46.2472 74.8472H75.0255C80.625 74.8472 81.7425 75.8061 81.7425 80.9249V82.1986H68.2653C59.7892 82.1986 53.875 88.2763 53.875 96.7524V106.62H46.2472V74.8472ZM74.1844 95.1518H81.7401V101.179C81.7401 105.339 80.3029 106.62 75.1841 106.62H68.2653V104.695V100.593C68.2653 96.2717 69.5462 95.1518 74.1844 95.1518Z" fill="white"/>
<path fill-rule="evenodd" clip-rule="evenodd" d="M151.664 17.1568C144.008 17.1231 135.659 18.666 126.623 22.8091C120.858 25.4478 119.67 27.6395 119.67 27.6395C119.67 27.6347 128.709 25.9333 142.957 26.8922C161.772 28.1562 170.315 32.9242 173.036 34.3877L164.694 18.702C160.604 17.7672 156.259 17.1784 151.664 17.1568ZM145.918 37.9084C135.82 39.0668 115.808 45.1829 104.581 56.2785V57.0908C104.581 61.2243 103.764 65.0117 101.762 68.381C102.725 70.0777 103.396 71.8704 103.84 73.7546H116.635C117.765 70.7409 119.074 67.624 120.437 65.1367C127.428 52.3853 137.98 43.0873 145.918 37.9084ZM164.257 61.777C164.257 61.777 149.766 63.2646 132.828 71.2096C131.03 72.0555 129.353 72.9134 127.805 73.7546V73.769L127.779 111.929C138.533 119.389 147.117 121.778 147.117 121.778L164.262 61.777H164.257Z" fill="#FE5000"/>
</svg>
