<svg width="200" height="200" viewBox="0 0 200 200" fill="none" xmlns="http://www.w3.org/2000/svg">
<mask id="path-1-outside-1_107_20198" maskUnits="userSpaceOnUse" x="15.5859" y="9.99609" width="177" height="172" fill="black">
<rect fill="white" x="15.5859" y="9.99609" width="177" height="172"/>
<path fill-rule="evenodd" clip-rule="evenodd" d="M135.763 92.9294C137.624 91.4023 139.579 89.798 141.671 88.2122C149.377 82.3705 158.036 79.5877 162.267 80.0883C155.014 78.3075 149.299 79.3647 139.911 85.8312C136.765 87.9976 133.987 90.3417 131.393 92.5309C125.529 97.4799 120.603 101.637 114.481 101.159C121.99 104.232 128.074 99.2394 135.763 92.9294ZM46.7204 80.0883C50.9513 79.5877 59.6098 82.3705 67.3159 88.2122C69.4081 89.7982 71.3632 91.4026 73.2243 92.9299C80.913 99.2397 86.9962 104.232 94.505 101.159C88.3838 101.637 83.4575 97.4795 77.5931 92.5304C74.9992 90.3413 72.2218 87.9974 69.0764 85.8312C59.6876 79.3647 53.9731 78.3075 46.7204 80.0883ZM187.391 44.8924C187.028 60.6845 176.673 69.71 169.82 73.741C170.151 73.7943 170.596 73.8846 171.131 73.9928C174.71 74.7177 182.28 76.2513 186.217 72.933C183.4 85.3262 169.806 96.2124 156.423 96.4457C157.391 98.9109 159.293 111.8 156.502 119.716C155.227 123.333 150.653 126.3 145.684 129.524C139.777 133.356 133.312 137.549 131.171 143.624C127.904 141.712 123.962 140.677 121.335 140.204C121.947 131.291 124.144 122.45 127.597 115.092C128.407 113.366 129.279 111.735 130.207 110.191C130.483 110.208 130.76 110.224 131.041 110.224C138.939 110.224 145.34 103.74 145.34 95.7409C145.34 94.7666 145.245 93.8155 145.064 92.8949C127.009 101.717 119.566 124.051 118.847 142.288C122.293 142.518 130.853 144.625 133.646 148.96C136.44 153.295 133.861 159.94 131.804 163.349C129.351 167.414 125.487 170.208 123.211 170.208C123.122 170.208 122.987 170.199 122.862 170.186C119.512 167.614 115.619 165.735 111.39 164.744C112.026 163.261 113.174 160.989 114.763 159.318C118.817 154.848 124.31 155.337 125.665 160.225C126.652 158.826 127.487 153.363 124.866 151.494C122.035 149.477 114.273 150.932 109.564 164.373C107.918 164.094 106.228 163.941 104.503 163.941L104.493 163.92L104.483 163.941C102.758 163.941 101.07 164.094 99.4231 164.373C94.7142 150.932 86.9515 149.477 84.1208 151.494C81.5 153.363 82.3349 158.826 83.3216 160.225C84.6759 155.337 90.1695 154.848 94.2245 159.318C95.8128 160.989 96.9601 163.261 97.5973 164.744C93.3679 165.735 89.4749 167.614 86.1247 170.186C85.9997 170.199 85.8653 170.208 85.7752 170.208C83.4996 170.208 79.6356 167.414 77.1835 163.349C75.1265 159.94 72.5472 153.295 75.3409 148.96C78.1345 144.625 86.6943 142.518 90.1404 142.288C89.4211 124.051 81.9781 101.717 63.9228 92.8949C63.7411 93.8155 63.6467 94.7666 63.6467 95.7409C63.6467 103.74 70.0485 110.224 77.9464 110.224C78.2268 110.224 78.5036 110.208 78.7805 110.191C79.7076 111.735 80.5795 113.366 81.3896 115.092C84.8423 122.45 87.0394 131.291 87.6519 140.204C85.0246 140.677 81.083 141.712 77.8149 143.624C75.6743 137.549 69.2098 133.356 63.3027 129.523C58.334 126.3 53.7596 123.332 52.4843 119.716C49.6936 111.8 51.595 98.9109 52.5643 96.4457C39.1815 96.2124 25.5866 85.3262 22.7689 72.933C26.7065 76.2511 34.276 74.7179 37.8553 73.9929C38.3901 73.8846 38.8358 73.7943 39.167 73.741C32.3139 69.71 21.9581 60.6845 21.5955 44.8924C21.1407 25.0904 36.9437 14.6226 51.3102 15.0063C48.7279 16.2909 42.7809 20.4345 41.12 28.4479C39.1314 38.0401 43.7713 47.8234 54.1889 50.8932C57.704 51.9293 60.9932 52.1247 65.1885 51.9685C62.5939 54.7774 60.7447 60.109 60.1061 65.8017C62.7886 59.2037 67.693 52.1501 71.5024 51.5769C75.1512 51.1308 77.3963 50.8786 82.0312 50.7014C92.6101 50.2974 101.266 50.4957 104.493 53.9462C107.721 50.4957 116.377 50.2974 126.955 50.7014C131.591 50.8786 133.836 51.1308 137.485 51.5769C141.294 52.1501 146.198 59.2037 148.881 65.8017C148.242 60.109 146.393 54.7774 143.799 51.9685C147.994 52.1247 151.282 51.9293 154.798 50.8932C165.215 47.8234 169.856 38.0401 167.867 28.4479C166.205 20.4345 160.259 16.2909 157.677 15.0063C172.043 14.6226 187.846 25.0904 187.391 44.8924ZM104.484 166.401H104.504C110.763 166.401 116.541 168.482 121.203 171.996C120.665 173.794 118.619 176.167 114.543 176.259C112.057 176.315 109.779 176.04 107.852 175.807C106.566 175.651 105.436 175.515 104.504 175.508H104.484C103.552 175.515 102.422 175.651 101.137 175.807C99.2094 176.04 96.9318 176.315 94.4463 176.259C90.3703 176.167 88.3242 173.794 87.7851 171.996C92.4475 168.482 98.226 166.401 104.484 166.401Z"/>
</mask>
<path fill-rule="evenodd" clip-rule="evenodd" d="M135.763 92.9294C137.624 91.4023 139.579 89.798 141.671 88.2122C149.377 82.3705 158.036 79.5877 162.267 80.0883C155.014 78.3075 149.299 79.3647 139.911 85.8312C136.765 87.9976 133.987 90.3417 131.393 92.5309C125.529 97.4799 120.603 101.637 114.481 101.159C121.99 104.232 128.074 99.2394 135.763 92.9294ZM46.7204 80.0883C50.9513 79.5877 59.6098 82.3705 67.3159 88.2122C69.4081 89.7982 71.3632 91.4026 73.2243 92.9299C80.913 99.2397 86.9962 104.232 94.505 101.159C88.3838 101.637 83.4575 97.4795 77.5931 92.5304C74.9992 90.3413 72.2218 87.9974 69.0764 85.8312C59.6876 79.3647 53.9731 78.3075 46.7204 80.0883ZM187.391 44.8924C187.028 60.6845 176.673 69.71 169.82 73.741C170.151 73.7943 170.596 73.8846 171.131 73.9928C174.71 74.7177 182.28 76.2513 186.217 72.933C183.4 85.3262 169.806 96.2124 156.423 96.4457C157.391 98.9109 159.293 111.8 156.502 119.716C155.227 123.333 150.653 126.3 145.684 129.524C139.777 133.356 133.312 137.549 131.171 143.624C127.904 141.712 123.962 140.677 121.335 140.204C121.947 131.291 124.144 122.45 127.597 115.092C128.407 113.366 129.279 111.735 130.207 110.191C130.483 110.208 130.76 110.224 131.041 110.224C138.939 110.224 145.34 103.74 145.34 95.7409C145.34 94.7666 145.245 93.8155 145.064 92.8949C127.009 101.717 119.566 124.051 118.847 142.288C122.293 142.518 130.853 144.625 133.646 148.96C136.44 153.295 133.861 159.94 131.804 163.349C129.351 167.414 125.487 170.208 123.211 170.208C123.122 170.208 122.987 170.199 122.862 170.186C119.512 167.614 115.619 165.735 111.39 164.744C112.026 163.261 113.174 160.989 114.763 159.318C118.817 154.848 124.31 155.337 125.665 160.225C126.652 158.826 127.487 153.363 124.866 151.494C122.035 149.477 114.273 150.932 109.564 164.373C107.918 164.094 106.228 163.941 104.503 163.941L104.493 163.92L104.483 163.941C102.758 163.941 101.07 164.094 99.4231 164.373C94.7142 150.932 86.9515 149.477 84.1208 151.494C81.5 153.363 82.3349 158.826 83.3216 160.225C84.6759 155.337 90.1695 154.848 94.2245 159.318C95.8128 160.989 96.9601 163.261 97.5973 164.744C93.3679 165.735 89.4749 167.614 86.1247 170.186C85.9997 170.199 85.8653 170.208 85.7752 170.208C83.4996 170.208 79.6356 167.414 77.1835 163.349C75.1265 159.94 72.5472 153.295 75.3409 148.96C78.1345 144.625 86.6943 142.518 90.1404 142.288C89.4211 124.051 81.9781 101.717 63.9228 92.8949C63.7411 93.8155 63.6467 94.7666 63.6467 95.7409C63.6467 103.74 70.0485 110.224 77.9464 110.224C78.2268 110.224 78.5036 110.208 78.7805 110.191C79.7076 111.735 80.5795 113.366 81.3896 115.092C84.8423 122.45 87.0394 131.291 87.6519 140.204C85.0246 140.677 81.083 141.712 77.8149 143.624C75.6743 137.549 69.2098 133.356 63.3027 129.523C58.334 126.3 53.7596 123.332 52.4843 119.716C49.6936 111.8 51.595 98.9109 52.5643 96.4457C39.1815 96.2124 25.5866 85.3262 22.7689 72.933C26.7065 76.2511 34.276 74.7179 37.8553 73.9929C38.3901 73.8846 38.8358 73.7943 39.167 73.741C32.3139 69.71 21.9581 60.6845 21.5955 44.8924C21.1407 25.0904 36.9437 14.6226 51.3102 15.0063C48.7279 16.2909 42.7809 20.4345 41.12 28.4479C39.1314 38.0401 43.7713 47.8234 54.1889 50.8932C57.704 51.9293 60.9932 52.1247 65.1885 51.9685C62.5939 54.7774 60.7447 60.109 60.1061 65.8017C62.7886 59.2037 67.693 52.1501 71.5024 51.5769C75.1512 51.1308 77.3963 50.8786 82.0312 50.7014C92.6101 50.2974 101.266 50.4957 104.493 53.9462C107.721 50.4957 116.377 50.2974 126.955 50.7014C131.591 50.8786 133.836 51.1308 137.485 51.5769C141.294 52.1501 146.198 59.2037 148.881 65.8017C148.242 60.109 146.393 54.7774 143.799 51.9685C147.994 52.1247 151.282 51.9293 154.798 50.8932C165.215 47.8234 169.856 38.0401 167.867 28.4479C166.205 20.4345 160.259 16.2909 157.677 15.0063C172.043 14.6226 187.846 25.0904 187.391 44.8924ZM104.484 166.401H104.504C110.763 166.401 116.541 168.482 121.203 171.996C120.665 173.794 118.619 176.167 114.543 176.259C112.057 176.315 109.779 176.04 107.852 175.807C106.566 175.651 105.436 175.515 104.504 175.508H104.484C103.552 175.515 102.422 175.651 101.137 175.807C99.2094 176.04 96.9318 176.315 94.4463 176.259C90.3703 176.167 88.3242 173.794 87.7851 171.996C92.4475 168.482 98.226 166.401 104.484 166.401Z" fill="#0064A2"/>
<path d="M141.671 88.2122L144.692 92.1967L144.692 92.1967L141.671 88.2122ZM135.763 92.9294L132.591 89.0643H132.591L135.763 92.9294ZM162.267 80.0883L161.679 85.0537C164.303 85.3642 166.715 83.5797 167.186 80.9799C167.658 78.3802 166.025 75.8626 163.459 75.2326L162.267 80.0883ZM139.911 85.8312L142.746 89.9492L142.747 89.949L139.911 85.8312ZM131.393 92.5309L134.618 96.3521L131.393 92.5309ZM114.481 101.159L114.871 96.1741C112.415 95.9824 110.186 97.6073 109.617 100.004C109.048 102.4 110.308 104.854 112.588 105.786L114.481 101.159ZM67.3159 88.2122L64.2953 92.1967L64.2954 92.1967L67.3159 88.2122ZM46.7204 80.0883L45.5281 75.2326C42.9623 75.8626 41.3294 78.3802 41.8006 80.9799C42.2717 83.5797 44.6842 85.3642 47.3079 85.0537L46.7204 80.0883ZM73.2243 92.9299L70.0524 96.795H70.0524L73.2243 92.9299ZM94.505 101.159L96.3987 105.786C98.6782 104.854 99.9388 102.4 99.3696 100.004C98.8005 97.6073 96.5711 95.9824 94.1156 96.1741L94.505 101.159ZM77.5931 92.5304L80.8179 88.7093V88.7093L77.5931 92.5304ZM69.0764 85.8312L66.2402 89.949L66.2404 89.9491L69.0764 85.8312ZM169.82 73.741L167.285 69.4313C165.468 70.5001 164.517 72.5937 164.906 74.6655C165.296 76.7372 166.943 78.3419 169.025 78.6773L169.82 73.741ZM187.391 44.8924L182.392 44.7776V44.7776L187.391 44.8924ZM171.131 73.9928L172.124 69.0923L172.124 69.0923L171.131 73.9928ZM186.217 72.933L191.093 74.0413C191.569 71.9458 190.653 69.7803 188.818 68.6626C186.983 67.5449 184.638 67.7249 182.995 69.1098L186.217 72.933ZM156.423 96.4457L156.336 91.4464C154.698 91.475 153.178 92.3042 152.267 93.6659C151.356 95.0276 151.17 96.7492 151.769 98.274L156.423 96.4457ZM156.502 119.716L151.787 118.054L151.787 118.054L156.502 119.716ZM145.684 129.524L148.405 133.718H148.405L145.684 129.524ZM131.171 143.624L128.646 147.939C129.934 148.693 131.491 148.832 132.892 148.319C134.293 147.806 135.391 146.693 135.887 145.286L131.171 143.624ZM121.335 140.204L116.347 139.862C116.172 142.406 117.94 144.673 120.449 145.125L121.335 140.204ZM127.597 115.092L132.124 117.217L132.125 117.215L127.597 115.092ZM130.207 110.191L130.508 105.2C128.648 105.088 126.88 106.019 125.921 107.616L130.207 110.191ZM145.064 92.8949L149.97 91.9307C149.671 90.4066 148.68 89.1083 147.289 88.4171C145.898 87.726 144.265 87.7206 142.869 88.4025L145.064 92.8949ZM118.847 142.288L113.85 142.091C113.744 144.797 115.811 147.096 118.513 147.277L118.847 142.288ZM133.646 148.96L129.443 151.669L133.646 148.96ZM131.804 163.349L136.085 165.932L136.085 165.932L131.804 163.349ZM122.862 170.186L119.818 174.152C120.55 174.714 121.424 175.062 122.342 175.158L122.862 170.186ZM111.39 164.744L106.795 162.772C106.212 164.13 106.26 165.677 106.926 166.997C107.593 168.317 108.809 169.274 110.248 169.612L111.39 164.744ZM114.763 159.318L118.387 162.762C118.413 162.734 118.44 162.706 118.466 162.677L114.763 159.318ZM125.665 160.225L120.847 161.561C121.363 163.423 122.906 164.821 124.81 165.151C126.714 165.482 128.637 164.686 129.751 163.107L125.665 160.225ZM124.866 151.494L127.768 147.423L127.768 147.423L124.866 151.494ZM109.564 164.373L108.729 169.303C111.131 169.71 113.477 168.326 114.283 166.026L109.564 164.373ZM104.503 163.941L99.9726 166.056C100.794 167.816 102.561 168.941 104.503 168.941V163.941ZM104.493 163.92L109.024 161.805C108.202 160.044 106.435 158.919 104.492 158.92C102.55 158.92 100.783 160.045 99.9618 161.806L104.493 163.92ZM104.483 163.941V168.941C106.426 168.941 108.193 167.816 109.014 166.055L104.483 163.941ZM99.4231 164.373L94.7043 166.026C95.51 168.326 97.8561 169.71 100.259 169.303L99.4231 164.373ZM84.1208 151.494L81.2187 147.423H81.2186L84.1208 151.494ZM83.3216 160.225L79.2359 163.107C80.3498 164.686 82.2737 165.482 84.1775 165.151C86.0813 164.82 87.624 163.422 88.14 161.56L83.3216 160.225ZM94.2245 159.318L90.5216 162.677C90.5472 162.706 90.5732 162.734 90.5995 162.761L94.2245 159.318ZM97.5973 164.744L98.7388 169.612C100.179 169.274 101.395 168.316 102.061 166.996C102.727 165.676 102.775 164.128 102.191 162.77L97.5973 164.744ZM86.1247 170.186L86.645 175.158C87.5631 175.062 88.4367 174.714 89.1689 174.152L86.1247 170.186ZM77.1835 163.349L81.4648 160.767L81.4645 160.766L77.1835 163.349ZM90.1404 142.288L90.4739 147.277C93.1761 147.096 95.2433 144.797 95.1366 142.091L90.1404 142.288ZM63.9228 92.8949L66.1178 88.4025C64.7228 87.7209 63.0904 87.726 61.6997 88.4163C60.309 89.1066 59.3179 90.4038 59.0174 91.927L63.9228 92.8949ZM78.7805 110.191L83.0671 107.617C82.1077 106.019 80.3394 105.088 78.4792 105.2L78.7805 110.191ZM81.3896 115.092L76.8632 117.217L76.8632 117.217L81.3896 115.092ZM87.6519 140.204L88.5378 145.125C91.0474 144.673 92.815 142.405 92.6402 139.862L87.6519 140.204ZM77.8149 143.624L73.099 145.286C73.5949 146.693 74.6933 147.805 76.0942 148.319C77.4952 148.832 79.0522 148.693 80.34 147.94L77.8149 143.624ZM63.3027 129.523L60.5815 133.718L63.3027 129.523ZM52.4843 119.716L47.7688 121.379L47.769 121.379L52.4843 119.716ZM52.5643 96.4457L57.2175 98.2752C57.8171 96.7503 57.6314 95.0285 56.7207 93.6664C55.8099 92.3044 54.2896 91.475 52.6514 91.4464L52.5643 96.4457ZM22.7689 72.933L25.9909 69.1096C24.3476 67.7248 22.0033 67.5449 20.168 68.6628C18.3327 69.7806 17.417 71.9461 17.8934 74.0415L22.7689 72.933ZM37.8553 73.9929L36.8627 69.0924L36.8627 69.0925L37.8553 73.9929ZM39.167 73.741L39.9622 78.6773C42.0435 78.342 43.6909 76.7373 44.0807 74.6656C44.4706 72.5938 43.5191 70.5001 41.702 69.4313L39.167 73.741ZM21.5955 44.8924L26.5942 44.7776L26.5942 44.7776L21.5955 44.8924ZM51.3102 15.0063L53.5372 19.4829C55.5928 18.4604 56.6878 16.1693 56.1924 13.9275C55.6971 11.6857 53.7387 10.0693 51.4437 10.0081L51.3102 15.0063ZM41.12 28.4479L46.0159 29.4629L46.0159 29.4627L41.12 28.4479ZM54.1889 50.8932L55.6025 46.0972L55.6021 46.0971L54.1889 50.8932ZM65.1885 51.9685L68.8614 55.3611C70.232 53.8772 70.5751 51.7143 69.7309 49.879C68.8867 48.0438 67.0211 46.8968 65.0024 46.972L65.1885 51.9685ZM60.1061 65.8017L55.1373 65.2443C54.8588 67.7259 56.454 70.0324 58.8742 70.6476C61.2944 71.2628 63.7974 69.9981 64.7379 67.6849L60.1061 65.8017ZM71.5024 51.5769L70.8956 46.6138C70.8498 46.6194 70.804 46.6257 70.7583 46.6326L71.5024 51.5769ZM82.0312 50.7014L81.8404 45.705L81.84 45.705L82.0312 50.7014ZM104.493 53.9462L100.841 57.3614C101.787 58.3723 103.109 58.9462 104.493 58.9462C105.877 58.9463 107.199 58.3726 108.145 57.3618L104.493 53.9462ZM126.955 50.7014L127.146 45.705L127.146 45.705L126.955 50.7014ZM137.485 51.5769L138.229 46.6326C138.183 46.6257 138.137 46.6194 138.091 46.6138L137.485 51.5769ZM148.881 65.8017L144.249 67.6849C145.19 69.9981 147.693 71.2628 150.113 70.6476C152.533 70.0324 154.128 67.7259 153.85 65.2443L148.881 65.8017ZM143.799 51.9685L143.985 46.972C141.966 46.8968 140.1 48.0438 139.256 49.879C138.412 51.7143 138.755 53.8772 140.126 55.3611L143.799 51.9685ZM154.798 50.8932L156.212 55.6893V55.6893L154.798 50.8932ZM167.867 28.4479L172.763 27.4329L172.763 27.4327L167.867 28.4479ZM157.677 15.0063L157.543 10.0081C155.248 10.0693 153.29 11.6857 152.795 13.9275C152.299 16.1693 153.394 18.4604 155.45 19.4829L157.677 15.0063ZM121.203 171.996L125.993 173.431C126.593 171.428 125.883 169.263 124.213 168.004L121.203 171.996ZM114.543 176.259L114.43 171.26L114.43 171.26L114.543 176.259ZM107.852 175.807L107.252 180.771L107.252 180.771L107.852 175.807ZM104.504 175.508L104.54 170.508C104.528 170.508 104.516 170.508 104.504 170.508V175.508ZM104.484 175.508V170.508C104.472 170.508 104.46 170.508 104.448 170.508L104.484 175.508ZM101.137 175.807L101.736 180.771H101.737L101.137 175.807ZM94.4463 176.259L94.5594 171.26L94.5586 171.26L94.4463 176.259ZM87.7851 171.996L84.7755 168.004C83.1049 169.263 82.3949 171.429 82.9959 173.433L87.7851 171.996ZM138.651 84.2276C136.47 85.8806 134.443 87.5449 132.591 89.0643L138.935 96.7945C140.806 95.2597 142.688 93.7154 144.692 92.1967L138.651 84.2276ZM162.854 75.123C159.577 74.7352 155.47 75.6162 151.525 77.0869C147.422 78.6167 142.9 81.0061 138.651 84.2276L144.692 92.1967C148.148 89.5766 151.808 87.6538 155.019 86.4569C158.387 85.201 160.725 84.9409 161.679 85.0537L162.854 75.123ZM142.747 89.949C147.197 86.8842 150.395 85.3737 153.067 84.7264C155.621 84.1077 158.029 84.1964 161.074 84.9441L163.459 75.2326C159.252 74.1995 155.176 73.9263 150.713 75.0076C146.367 76.0603 142.014 78.3116 137.075 81.7134L142.747 89.949ZM134.618 96.3521C137.233 94.145 139.832 91.9561 142.746 89.9492L137.075 81.7131C133.697 84.039 130.741 86.5385 128.168 88.7098L134.618 96.3521ZM114.092 106.144C118.489 106.487 122.272 105.12 125.56 103.195C128.734 101.337 131.775 98.7513 134.618 96.3521L128.168 88.7098C125.147 91.2596 122.793 93.227 120.507 94.5652C118.335 95.8368 116.596 96.3088 114.871 96.1741L114.092 106.144ZM132.591 89.0643C128.601 92.3391 125.651 94.7217 122.88 96.0608C120.418 97.2502 118.522 97.4101 116.375 96.5315L112.588 105.786C117.95 107.981 122.85 107.181 127.23 105.065C131.3 103.098 135.237 99.8297 138.935 96.7945L132.591 89.0643ZM70.3364 84.2276C66.0867 81.0061 61.5648 78.6167 57.4616 77.0869C53.5168 75.6162 49.4101 74.7352 46.1329 75.123L47.3079 85.0537C48.2615 84.9409 50.5996 85.201 53.9683 86.4569C57.1786 87.6538 60.839 89.5766 64.2953 92.1967L70.3364 84.2276ZM76.3962 89.0648C74.5445 87.5453 72.5172 85.8808 70.3364 84.2276L64.2954 92.1967C66.299 93.7155 68.1819 95.26 70.0524 96.795L76.3962 89.0648ZM92.6112 96.5315C90.4643 97.4101 88.5687 97.2501 86.1073 96.0609C83.3361 94.722 80.3866 92.3396 76.3962 89.0648L70.0524 96.795C73.7507 99.8301 77.6872 103.099 81.7569 105.065C86.1365 107.181 91.0368 107.981 96.3987 105.786L92.6112 96.5315ZM74.3683 96.3515C77.2113 98.7508 80.2527 101.337 83.4264 103.195C86.7138 105.119 90.4978 106.487 94.8943 106.144L94.1156 96.1741C92.391 96.3088 90.6512 95.8368 88.479 94.565C86.1933 93.2267 83.8393 91.2591 80.8179 88.7093L74.3683 96.3515ZM66.2404 89.9491C69.1544 91.9559 71.7532 94.1445 74.3683 96.3515L80.8179 88.7093C78.2452 86.5381 75.2893 84.0389 71.9123 81.7132L66.2404 89.9491ZM47.9127 84.9441C50.958 84.1964 53.3659 84.1077 55.9202 84.7264C58.5921 85.3737 61.7905 86.8843 66.2402 89.949L71.9125 81.7134C66.9734 78.3116 62.6202 76.0603 58.2745 75.0076C53.8112 73.9263 49.7355 74.1995 45.5281 75.2326L47.9127 84.9441ZM172.355 78.0507C179.951 73.5827 191.971 63.2496 192.389 45.0072L182.392 44.7776C182.086 58.1193 173.395 65.8372 167.285 69.4313L172.355 78.0507ZM172.124 69.0923C171.631 68.9926 171.069 68.8778 170.616 68.8047L169.025 78.6773C169.233 78.7109 169.562 78.7765 170.138 78.8933L172.124 69.0923ZM182.995 69.1098C182.458 69.5624 181.138 70.0323 178.644 69.9802C176.321 69.9316 173.947 69.4616 172.124 69.0923L170.138 78.8933C171.894 79.2489 175.095 79.9082 178.435 79.978C181.606 80.0443 186.039 79.6219 189.44 76.7563L182.995 69.1098ZM156.51 101.445C164.486 101.306 172.263 98.0235 178.388 93.1674C184.503 88.3199 189.38 81.5763 191.093 74.0413L181.342 71.8248C180.238 76.683 176.909 81.579 172.176 85.3313C167.454 89.0749 161.743 91.3522 156.336 91.4464L156.51 101.445ZM161.217 121.379C162.944 116.483 163.124 110.49 162.865 105.763C162.731 103.326 162.471 101.062 162.172 99.212C161.896 97.4989 161.53 95.7717 161.077 94.6174L151.769 98.274C151.756 98.2397 151.826 98.4301 151.947 98.9523C152.056 99.4264 152.179 100.051 152.3 100.805C152.543 102.313 152.766 104.228 152.88 106.311C153.116 110.624 152.851 115.034 151.787 118.054L161.217 121.379ZM148.405 133.718C150.822 132.15 153.476 130.436 155.671 128.615C157.819 126.833 160.126 124.475 161.217 121.379L151.787 118.054C151.603 118.574 150.986 119.508 149.285 120.92C147.632 122.292 145.514 123.674 142.962 125.329L148.405 133.718ZM135.887 145.286C136.555 143.39 138.005 141.504 140.302 139.501C142.609 137.489 145.392 135.673 148.405 133.718L142.962 125.329C140.069 127.206 136.666 129.403 133.729 131.965C130.781 134.535 127.928 137.784 126.456 141.962L135.887 145.286ZM120.449 145.125C122.804 145.549 126.098 146.448 128.646 147.939L133.697 139.309C129.711 136.976 125.121 135.805 122.221 135.283L120.449 145.125ZM123.071 112.968C119.328 120.942 116.996 130.397 116.347 139.862L126.323 140.547C126.897 132.185 128.96 123.957 132.124 117.217L123.071 112.968ZM125.921 107.616C124.904 109.307 123.952 111.09 123.07 112.97L132.125 117.215C132.862 115.643 133.653 114.163 134.492 112.766L125.921 107.616ZM131.041 105.224C130.936 105.224 130.809 105.218 130.508 105.2L129.905 115.182C130.158 115.197 130.585 115.224 131.041 115.224V105.224ZM140.34 95.7409C140.34 101.039 136.117 105.224 131.041 105.224V115.224C141.76 115.224 150.34 106.441 150.34 95.7409H140.34ZM140.158 93.8591C140.277 94.465 140.34 95.0932 140.34 95.7409H150.34C150.34 94.4399 150.213 93.166 149.97 91.9307L140.158 93.8591ZM123.843 142.485C124.537 124.885 131.711 104.984 147.259 97.3873L142.869 88.4025C122.307 98.4496 114.595 123.217 113.85 142.091L123.843 142.485ZM137.849 146.252C135.54 142.668 131.392 140.585 128.25 139.405C124.917 138.152 121.436 137.45 119.18 137.299L118.513 147.277C119.703 147.356 122.225 147.823 124.732 148.765C127.43 149.779 128.959 150.917 129.443 151.669L137.849 146.252ZM136.085 165.932C137.33 163.868 138.743 160.831 139.437 157.53C140.112 154.32 140.273 150.012 137.849 146.252L129.443 151.669C129.813 152.243 130.081 153.425 129.651 155.473C129.239 157.431 128.334 159.421 127.523 160.766L136.085 165.932ZM123.211 175.208C126.031 175.208 128.669 173.677 130.504 172.255C132.545 170.674 134.538 168.496 136.085 165.932L127.523 160.766C126.616 162.268 125.452 163.519 124.378 164.351C123.845 164.764 123.406 165.018 123.111 165.151C122.77 165.305 122.827 165.208 123.211 165.208V175.208ZM122.342 175.158C122.535 175.179 122.867 175.208 123.211 175.208V165.208C123.272 165.208 123.316 165.21 123.337 165.21C123.36 165.211 123.375 165.212 123.38 165.213C123.389 165.213 123.388 165.213 123.383 165.213L122.342 175.158ZM110.248 169.612C113.772 170.438 117.019 172.004 119.818 174.152L125.907 166.219C122.005 163.225 117.466 161.033 112.531 159.876L110.248 169.612ZM111.138 155.873C108.935 158.191 107.507 161.113 106.795 162.772L115.984 166.716C116.545 165.409 117.412 163.787 118.387 162.762L111.138 155.873ZM130.484 158.889C129.29 154.583 125.936 151.645 121.651 151.28C117.665 150.941 113.846 152.886 111.059 155.958L118.466 162.677C119.733 161.28 120.688 161.235 120.802 161.244C120.837 161.247 120.768 161.242 120.694 161.179C120.625 161.119 120.739 161.17 120.847 161.561L130.484 158.889ZM121.964 155.566C121.546 155.268 121.47 154.967 121.509 155.081C121.552 155.205 121.62 155.52 121.619 156.023C121.617 156.509 121.552 156.997 121.462 157.373C121.418 157.558 121.379 157.668 121.365 157.705C121.339 157.772 121.39 157.611 121.58 157.343L129.751 163.107C130.539 161.99 130.958 160.663 131.189 159.694C131.451 158.594 131.615 157.337 131.619 156.048C131.624 153.864 131.146 149.83 127.768 147.423L121.964 155.566ZM114.283 166.026C116.392 160.005 118.936 157.392 120.558 156.383C122.333 155.28 122.703 156.093 121.965 155.566L127.768 147.423C124.198 144.879 119.271 145.41 115.28 147.89C111.136 150.465 107.445 155.3 104.845 162.72L114.283 166.026ZM104.503 168.941C105.932 168.941 107.342 169.068 108.729 169.303L110.399 159.443C108.493 159.12 106.524 158.941 104.503 158.941V168.941ZM99.9624 166.034L99.9726 166.056L109.034 161.827L109.024 161.805L99.9624 166.034ZM109.014 166.055L109.025 166.033L99.9618 161.806L99.9516 161.828L109.014 166.055ZM100.259 169.303C101.645 169.068 103.054 168.941 104.483 168.941V158.941C102.462 158.941 100.494 159.12 98.5877 159.443L100.259 169.303ZM87.0229 155.566C86.2838 156.093 86.653 155.28 88.4285 156.384C90.0509 157.392 92.595 160.005 94.7043 166.026L104.142 162.72C101.542 155.3 97.8507 150.465 93.7068 147.89C89.716 145.41 84.7885 144.878 81.2187 147.423L87.0229 155.566ZM87.4072 157.343C87.5967 157.611 87.6485 157.773 87.622 157.705C87.6077 157.668 87.5692 157.558 87.5252 157.373C87.4353 156.997 87.3696 156.509 87.3684 156.023C87.3671 155.52 87.4352 155.205 87.4782 155.081C87.5172 154.967 87.4414 155.268 87.0229 155.566L81.2186 147.423C77.841 149.83 77.3629 153.864 77.3684 156.048C77.3716 157.337 77.5358 158.594 77.7981 159.694C78.0293 160.663 78.4478 161.99 79.2359 163.107L87.4072 157.343ZM97.9274 155.958C95.1404 152.886 91.3213 150.941 87.336 151.28C83.0506 151.645 79.6965 154.583 78.5031 158.89L88.14 161.56C88.2482 161.169 88.3616 161.119 88.2925 161.178C88.2191 161.242 88.1493 161.247 88.1846 161.244C88.2984 161.235 89.2537 161.28 90.5216 162.677L97.9274 155.958ZM102.191 162.77C101.479 161.112 100.052 158.192 97.8495 155.874L90.5995 162.761C91.5738 163.787 92.4411 165.409 93.0034 166.717L102.191 162.77ZM89.1689 174.152C91.9678 172.004 95.2147 170.438 98.7388 169.612L96.4557 159.876C91.5211 161.033 86.982 163.225 83.0804 166.219L89.1689 174.152ZM85.7752 175.208C86.1192 175.208 86.4512 175.179 86.645 175.158L85.6043 165.213C85.5989 165.213 85.598 165.213 85.6072 165.213C85.6127 165.212 85.6273 165.211 85.6502 165.21C85.671 165.21 85.7147 165.208 85.7752 165.208V175.208ZM72.9021 165.932C74.4487 168.496 76.442 170.674 78.4828 172.255C80.3176 173.677 82.9552 175.208 85.7752 175.208V165.208C86.1599 165.208 86.2164 165.305 85.8755 165.151C85.5803 165.018 85.1417 164.764 84.6083 164.351C83.5351 163.519 82.3704 162.268 81.4648 160.767L72.9021 165.932ZM71.1381 146.252C68.7145 150.012 68.8753 154.32 69.5501 157.53C70.244 160.831 71.6568 163.868 72.9024 165.932L81.4645 160.766C80.6532 159.421 79.7479 157.431 79.3362 155.473C78.9056 153.425 79.1736 152.243 79.5436 151.669L71.1381 146.252ZM89.807 137.299C87.5507 137.45 84.0696 138.152 80.7369 139.405C77.5951 140.585 73.4474 142.668 71.1381 146.252L79.5436 151.669C80.028 150.917 81.5571 149.779 84.255 148.765C86.7621 147.823 89.2841 147.356 90.4739 147.277L89.807 137.299ZM61.7277 97.3873C77.2759 104.984 84.4501 124.885 85.1443 142.485L95.1366 142.091C94.3921 123.217 86.6804 98.4496 66.1178 88.4025L61.7277 97.3873ZM68.6467 95.7409C68.6467 95.0907 68.7096 94.4638 68.8282 93.8628L59.0174 91.927C58.7726 93.1672 58.6467 94.4425 58.6467 95.7409H68.6467ZM77.9464 105.224C72.8701 105.224 68.6467 101.039 68.6467 95.7409H58.6467C58.6467 106.441 67.227 115.224 77.9464 115.224V105.224ZM78.4792 105.2C78.1785 105.218 78.0514 105.224 77.9464 105.224V115.224C78.4023 115.224 78.8288 115.197 79.0817 115.182L78.4792 105.2ZM85.916 112.968C85.0341 111.089 84.0823 109.308 83.0671 107.617L74.4939 112.765C75.3329 114.162 76.1248 115.643 76.8632 117.217L85.916 112.968ZM92.6402 139.862C91.9898 130.397 89.6582 120.943 85.916 112.968L76.8632 117.217C80.0264 123.957 82.0891 132.185 82.6637 140.547L92.6402 139.862ZM80.34 147.94C82.8893 146.448 86.1829 145.549 88.5378 145.125L86.766 135.283C83.8664 135.805 79.2767 136.976 75.2897 139.309L80.34 147.94ZM60.5815 133.718C63.5949 135.673 66.3776 137.489 68.6848 139.501C70.9815 141.504 72.431 143.39 73.099 145.286L82.5307 141.963C81.0582 137.784 78.2052 134.535 75.2577 131.965C72.3207 129.403 68.9176 127.206 66.0239 125.329L60.5815 133.718ZM47.769 121.379C48.8609 124.475 51.1679 126.833 53.3154 128.615C55.5102 130.436 58.1643 132.15 60.5815 133.718L66.0239 125.329C63.4723 123.673 61.3549 122.292 59.7016 120.92C58.0009 119.508 57.3831 118.573 57.1997 118.053L47.769 121.379ZM47.911 94.6162C47.4569 95.7711 47.0908 97.4989 46.8143 99.2119C46.5157 101.062 46.2553 103.326 46.1218 105.763C45.8628 110.49 46.0426 116.483 47.7688 121.379L57.1999 118.054C56.1353 115.034 55.8705 110.624 56.1068 106.311C56.2209 104.228 56.4432 102.313 56.6865 100.805C56.8082 100.051 56.9308 99.4266 57.0401 98.9527C57.1606 98.4305 57.2312 98.2405 57.2175 98.2752L47.911 94.6162ZM17.8934 74.0415C19.6065 81.5764 24.484 88.32 30.5985 93.1674C36.7238 98.0235 44.5013 101.306 52.4771 101.445L52.6514 91.4464C47.2445 91.3522 41.5331 89.0749 36.8109 85.3312C32.0779 81.579 28.7491 76.6828 27.6445 71.8246L17.8934 74.0415ZM36.8627 69.0925C35.0393 69.4618 32.6656 69.9317 30.342 69.9802C27.849 70.0323 26.5283 69.5624 25.9909 69.1096L19.547 76.7565C22.9471 79.6217 27.38 80.0443 30.5509 79.978C33.8913 79.9083 37.0919 79.2491 38.8479 78.8934L36.8627 69.0925ZM38.3717 68.8046C37.9177 68.8778 37.3554 68.9927 36.8627 69.0924L38.8479 78.8934C39.4247 78.7766 39.7538 78.7109 39.9622 78.6773L38.3717 68.8046ZM16.5968 45.0072C17.0157 63.2498 29.0362 73.5828 36.632 78.0507L41.702 69.4313C35.5916 65.8371 26.9005 58.1192 26.5942 44.7776L16.5968 45.0072ZM51.4437 10.0081C34.7971 9.56354 16.0638 21.8003 16.5968 45.0072L26.5942 44.7776C26.2176 28.3805 39.0902 19.6817 51.1767 20.0045L51.4437 10.0081ZM46.0159 29.4627C47.2481 23.5181 51.7104 20.3917 53.5372 19.4829L49.0832 10.5296C45.7455 12.19 38.3138 17.3509 36.2241 27.4331L46.0159 29.4627ZM55.6021 46.0971C47.9998 43.8569 44.4852 36.8461 46.0159 29.4629L36.2241 27.4329C33.7775 39.2341 39.5427 51.7899 52.7756 55.6893L55.6021 46.0971ZM65.0024 46.972C61.078 47.1181 58.3913 46.9192 55.6025 46.0972L52.7752 55.6892C57.0168 56.9394 60.9085 57.1313 65.3745 56.965L65.0024 46.972ZM65.0749 66.3592C65.6665 61.0856 67.3299 57.0191 68.8614 55.3611L61.5156 48.5759C57.8578 52.5358 55.8229 59.1324 55.1373 65.2443L65.0749 66.3592ZM70.7583 46.6326C68.5509 46.9647 66.7038 48.1212 65.3342 49.2368C63.903 50.4025 62.5836 51.8605 61.4125 53.3894C59.069 56.4485 56.961 60.2617 55.4743 63.9186L64.7379 67.6849C65.9336 64.7438 67.6192 61.7312 69.3508 59.4707C70.2172 58.3397 71.0059 57.5145 71.6495 56.9902C72.3547 56.4159 72.5492 56.4757 72.2464 56.5212L70.7583 46.6326ZM81.84 45.705C77.0175 45.8895 74.6236 46.158 70.8956 46.6138L72.1092 56.5399C75.6789 56.1035 77.7752 55.8678 82.2223 55.6977L81.84 45.705ZM108.145 50.5311C105.198 47.3798 100.57 46.3514 96.5691 45.9087C92.277 45.4338 87.1424 45.5025 81.8404 45.705L82.222 55.6977C87.4988 55.4962 91.9819 55.4622 95.4693 55.848C99.2485 56.2662 100.561 57.0622 100.841 57.3614L108.145 50.5311ZM127.146 45.705C121.844 45.5025 116.71 45.4338 112.418 45.9087C108.417 46.3514 103.789 47.3799 100.842 50.5307L108.145 57.3618C108.425 57.0621 109.739 56.2662 113.518 55.848C117.005 55.4622 121.488 55.4962 126.764 55.6977L127.146 45.705ZM138.091 46.6138C134.363 46.158 131.97 45.8895 127.146 45.705L126.764 55.6977C131.212 55.8678 133.308 56.1035 136.878 56.5399L138.091 46.6138ZM153.513 63.9186C152.026 60.2617 149.918 56.4485 147.575 53.3894C146.403 51.8605 145.084 50.4025 143.653 49.2368C142.283 48.1212 140.436 46.9647 138.229 46.6326L136.741 56.5212C136.438 56.4757 136.632 56.4159 137.338 56.9902C137.981 57.5145 138.77 58.3397 139.636 59.4707C141.368 61.7312 143.053 64.7438 144.249 67.6849L153.513 63.9186ZM140.126 55.3611C141.657 57.0191 143.321 61.0856 143.912 66.3592L153.85 65.2443C153.164 59.1324 151.129 52.5358 147.471 48.5759L140.126 55.3611ZM153.385 46.0971C150.595 46.9192 147.909 47.1181 143.985 46.972L143.613 56.965C148.079 57.1313 151.969 56.9393 156.212 55.6893L153.385 46.0971ZM162.971 29.4629C164.502 36.8459 160.987 43.8569 153.385 46.0971L156.212 55.6893C169.443 51.7899 175.21 39.2343 172.763 27.4329L162.971 29.4629ZM155.45 19.4829C157.276 20.3915 161.738 23.5179 162.971 29.4631L172.763 27.4327C170.672 17.3511 163.242 12.1902 159.904 10.5296L155.45 19.4829ZM192.389 45.0072C192.923 21.8003 174.189 9.56354 157.543 10.0081L157.81 20.0045C169.896 19.6818 182.769 28.3804 182.392 44.7776L192.389 45.0072ZM104.504 161.401H104.484V171.401H104.504V161.401ZM124.213 168.004C118.718 163.862 111.892 161.401 104.504 161.401V171.401C109.634 171.401 114.363 173.102 118.193 175.989L124.213 168.004ZM114.655 181.257C120.898 181.117 124.833 177.304 125.993 173.431L116.413 170.562C116.451 170.436 116.428 170.593 116.169 170.79C115.968 170.944 115.473 171.236 114.43 171.26L114.655 181.257ZM107.252 180.771C109.155 181.001 111.766 181.323 114.656 181.257L114.43 171.26C112.349 171.307 110.403 171.079 108.452 170.843L107.252 180.771ZM104.468 180.508C105.055 180.512 105.869 180.603 107.252 180.771L108.452 170.843C107.263 170.699 105.817 170.517 104.54 170.508L104.468 180.508ZM104.484 180.508H104.504V170.508H104.484V180.508ZM101.737 180.771C103.119 180.603 103.933 180.512 104.52 180.508L104.448 170.508C103.171 170.517 101.725 170.699 100.537 170.843L101.737 180.771ZM94.3333 181.257C97.2232 181.323 99.8333 181.001 101.736 180.771L100.537 170.843C98.5854 171.079 96.6404 171.307 94.5594 171.26L94.3333 181.257ZM82.9959 173.433C84.1569 177.304 88.0901 181.117 94.3341 181.257L94.5586 171.26C93.5163 171.236 93.021 170.944 92.8199 170.79C92.5607 170.593 92.5368 170.435 92.5744 170.56L82.9959 173.433ZM104.484 161.401C97.0973 161.401 90.2703 163.862 84.7755 168.004L90.7948 175.989C94.6247 173.102 99.3547 171.401 104.484 171.401V161.401Z" fill="white" mask="url(#path-1-outside-1_107_20198)"/>
</svg>
