<svg width="200" height="200" viewBox="0 0 200 200" fill="none" xmlns="http://www.w3.org/2000/svg">
<path d="M106.813 37.4848L73.2439 50.0562L69.3677 58.7715H33.6644L30.722 65.047H66.5757L55.7728 89.3341H18.8898L14.8468 98.3062H51.7824L46.6662 109.808H20.432L17.6823 116.27H43.7915L37.6334 130.114L54.9028 143.129H127.048L160.625 128.111L175.01 96.2699L122.995 96.3854L112.87 119.649H96.186L122.657 60.9573H139.073L127.768 83.0908L179.073 83.1771L193.946 51.4203L173.887 37.4805H106.805L106.813 37.4848ZM15.454 147.843L8.16406 163.936H161.303L168.762 147.843H15.454Z" fill="#FFC82E"/>
<path d="M55.2108 139.117H126.403L157.979 125.177L172.565 92.7106L121.956 92.6683L112.234 115.64H93.6001L120.07 56.9476H138.438L127.171 78.9687L177.782 78.9452L192.519 47.4098L173.25 33.4695H106.167L74.5904 47.4098L37.3047 125.639L55.2108 139.117Z" fill="white"/>
<path d="M104.157 31.5305L72.5806 45.4696L37.6406 122.943L56.7771 137.176H124.394L155.969 123.237L170.719 90.7703L120.322 90.8842L110.224 113.699H91.5891L118.06 55.0062H136.428L126.651 77.1247L175.583 77.1388L190.509 45.4696L171.24 31.5305H104.157Z" fill="#6A0032"/>
<path d="M31.0039 55.4844L27.8212 61.7598H79.5879L82.4918 55.4844H31.0039ZM15.8994 85.7243L10.1541 94.6982H86.0915L89.9896 85.7243H15.8994ZM18.1135 106.339L14.3769 112.802H63.6782L66.7599 106.339H18.1135ZM13.6101 146.81L6.25781 160.5H159.369L165.597 147.083L13.6033 146.81L13.6101 146.81Z" fill="white"/>
<path d="M33.2057 52.8438L30.3661 59.1192H81.2725L85.5871 52.8438H33.2057ZM16.9967 83.0236L12.8271 92.2377H88.557L93.8859 83.0236H16.9967ZM19.0145 103.635L16.0685 110.099H66.4537L70.1903 103.635H19.0145ZM11.1633 147.84L6.29297 158.666H157.732L162.711 147.84H11.1682H11.1633Z" fill="#6A0032"/>
</svg>
