<svg width="200" height="200" viewBox="0 0 200 200" fill="none" xmlns="http://www.w3.org/2000/svg">
<mask id="path-1-inside-1_107_20172" fill="white">
<path d="M28.5 153.681H47.8723V46.3082H28.5V18.8134H171.5V70.2214H140.654V46.309H90.2001V83.6145H127.47V111.117H90.2001V153.686H140.654V129.531H171.5V181.184H28.5V153.686"/>
</mask>
<path d="M28.5 153.681H47.8723V46.3082H28.5V18.8134H171.5V70.2214H140.654V46.309H90.2001V83.6145H127.47V111.117H90.2001V153.686H140.654V129.531H171.5V181.184H28.5V153.686" fill="#046A38"/>
<path d="M47.8723 153.681H52.8723V158.681H47.8723V153.681ZM47.8723 46.3082V41.3082H52.8723V46.3082H47.8723ZM28.5 46.3082V51.3082H23.5V46.3082H28.5ZM28.5 18.8134H23.5V13.8134H28.5V18.8134ZM171.5 18.8134V13.8134H176.5V18.8134H171.5ZM171.5 70.2214H176.5V75.2214H171.5V70.2214ZM140.654 70.2214V75.2214H135.654V70.2214H140.654ZM140.654 46.309V41.309H145.654V46.309H140.654ZM90.2001 46.309H85.2001V41.309H90.2001V46.309ZM90.2001 83.6145V88.6145H85.2001V83.6145H90.2001ZM127.47 83.6145V78.6145H132.47V83.6145H127.47ZM127.47 111.117H132.47V116.117H127.47V111.117ZM90.2001 111.117H85.2001V106.117H90.2001V111.117ZM90.2001 153.686V158.686H85.2001V153.686H90.2001ZM140.654 153.686H145.654V158.686H140.654V153.686ZM140.654 129.531H135.654V124.531H140.654V129.531ZM171.5 129.531V124.531H176.5V129.531H171.5ZM171.5 181.184H176.5V186.184H171.5V181.184ZM28.5 181.184V186.184H23.5V181.184H28.5ZM28.5 148.681H47.8723V158.681H28.5V148.681ZM42.8723 153.681V46.3082H52.8723V153.681H42.8723ZM47.8723 51.3082H28.5V41.3082H47.8723V51.3082ZM23.5 46.3082V18.8134H33.5V46.3082H23.5ZM28.5 13.8134H171.5V23.8134H28.5V13.8134ZM176.5 18.8134V70.2214H166.5V18.8134H176.5ZM171.5 75.2214H140.654V65.2214H171.5V75.2214ZM135.654 70.2214V46.309H145.654V70.2214H135.654ZM140.654 51.309H90.2001V41.309H140.654V51.309ZM95.2001 46.309V83.6145H85.2001V46.309H95.2001ZM90.2001 78.6145H127.47V88.6145H90.2001V78.6145ZM132.47 83.6145V111.117H122.47V83.6145H132.47ZM127.47 116.117H90.2001V106.117H127.47V116.117ZM95.2001 111.117V153.686H85.2001V111.117H95.2001ZM90.2001 148.686H140.654V158.686H90.2001V148.686ZM135.654 153.686V129.531H145.654V153.686H135.654ZM140.654 124.531H171.5V134.531H140.654V124.531ZM176.5 129.531V181.184H166.5V129.531H176.5ZM171.5 186.184H28.5V176.184H171.5V186.184ZM23.5 181.184V153.686H33.5V181.184H23.5Z" fill="white" mask="url(#path-1-inside-1_107_20172)"/>
</svg>
