<svg width="200" height="200" viewBox="0 0 200 200" fill="none" xmlns="http://www.w3.org/2000/svg">
<g clip-path="url(#clip0_107_20202)">
<path fill-rule="evenodd" clip-rule="evenodd" d="M80.7264 36.9734C58.3148 36.8271 37.0395 42.5326 22.3841 56.1555C22.3073 55.2486 21.6586 49.0614 21.6586 49.0614L15.5622 56.7062L14.4601 58.0804C9.31933 64.5397 3.77362 72.5127 1.59755 82.6823C1.02557 85.333 0.732645 87.9071 0.732645 90.4876C0.732645 95.3215 1.765 100.204 3.89946 105.701C2.1135 105.346 0 104.942 0 104.942L2.85293 110.41C11.579 127.144 26.9177 139.204 47.5021 146.062C55.7467 148.81 60.3995 149.166 63.0291 149.438C47.167 143.669 36.4253 132.285 29.6521 121.571C31.0263 121.857 32.4004 122.136 32.4004 122.136L30.3863 117.024C28.7123 112.79 27.9101 107.223 27.9101 102.738C27.9101 100.443 28.1054 98.4273 28.5309 97.0183C30.6305 90.0775 47.8665 82.4399 58.1343 83.7515C57.2066 83.8562 54.9675 84.2955 54.9675 84.2955C54.9675 84.2955 63.8611 84.6791 71.3596 86.5275C78.8582 88.376 87.975 91.0547 95.9549 94.5703C99.4984 96.1328 110.059 101.434 117.879 106.742L116.546 104.455C116.546 104.455 117.16 104.587 118.855 105.731C121.471 107.489 124.143 110.837 124.352 111.472C124.372 111.904 124.038 112.03 122.127 112.441C119.608 112.985 116.958 113.439 116.958 113.439C116.958 113.439 119.497 116.006 123.396 117.303C127.288 118.6 129.855 118.712 132.304 118.447C134.438 121.642 138.365 125.164 145.585 127.055C156.397 129.88 165.535 127.396 172.057 124.697C173.431 127.62 174.17 130.382 174.17 132.684C174.17 133.437 174.094 134.142 173.933 134.79C173.354 137.162 168.939 140.929 166.03 142.045C163.121 143.168 162.333 143.44 161.412 143.761C162.487 144.668 165.214 146 166.442 146.446C168.095 147.046 170.097 147.416 171.178 147.604C176.158 148.462 181.201 148.03 185.596 146.607C191.232 144.779 195.396 141.215 197.628 136.297C199.337 132.531 200 128.848 200 125.402C200 116.508 195.585 109.17 193.262 105.927C194.531 104.664 195.243 103.025 195.305 101.156C195.305 101.065 195.312 100.981 195.312 100.89C195.312 95.8194 190.569 90.1412 185.77 86.6257C184.437 80.9479 181.04 75.3187 175.084 69.0268C172.273 66.0484 168.862 63.1536 165.262 60.0983C161.97 57.3012 151.123 49.7889 148.222 45.7708C148.222 45.7708 150.224 50.2351 150.823 51.5742C143.549 46.6287 131.593 40.7206 124.199 37.805L114.147 33.8361C114.147 33.8361 116.623 37.0239 118.59 39.5489C110.283 36.9053 100.915 34.9452 97.3785 34.4709L97.4901 34.4911C90.0685 33.4029 78.5448 32.81 74.9529 33.0611C75.8458 33.6541 78.1546 35.2166 80.7284 36.9534" fill="white"/>
<path d="M187.242 97.817C185.603 94.6084 183.371 94.0853 183.371 94.0853L183.273 97.845C183.273 97.845 182.408 94.6014 181.934 93.0111C180.287 87.5286 175.439 80.1627 169.811 74.9586C170.194 75.7538 170.459 76.5351 170.438 77.1908C167.397 73.4659 158.692 66.3858 158.692 66.3858L159.766 69.6642C159.766 69.6642 159.194 68.9109 158.566 68.1645C152.805 61.3215 136.866 53.0282 132.025 50.5236L134.146 53.9625C133.769 53.753 133.239 53.474 132.555 53.1324L134.704 56.7875L123.467 51.4999L129.521 51.6746C127.812 50.8794 125.768 49.9796 123.502 49.0448C117.935 47.0917 111.888 45.5294 104.612 44.1622C103.322 43.9183 102.004 43.7086 100.678 43.5273C101.864 44.2947 103.936 47.1266 104.898 48.0194C81.1682 44.6992 61.6302 46.3176 46.3284 52.1141C36.221 56.7875 26.93 64.0629 18.4687 74.4629L18.2176 73.026C18.2033 73.0412 18.1967 73.0513 18.1828 73.0665L17.3597 68.3861C13.9696 72.8363 9.81253 80.1466 8.49393 85.2596C8.47966 85.3 8.38233 85.6918 8.37537 85.7338C7.21049 90.2747 7.09888 94.2716 7.7964 98.1499C8.759 102.328 10.6354 106.437 13.1467 111.047L12.6306 110.943C12.8887 111.438 13.1607 111.933 13.4327 112.442L10.8309 111.921C15.2114 118.735 22.0894 126.318 29.6785 131.633C24.7609 126.366 21.1686 121.142 19.0341 115.227L19.3131 115.282C19.1108 114.801 18.9224 114.32 18.7481 113.832L22.3683 114.571C22.0848 113.508 21.8616 112.496 21.6662 111.483C19.9644 104.043 20.4316 96.3991 22.5449 91.0336C24.268 86.6299 31.2224 76.81 42.8782 73.7729L41.1413 76.4096C41.8947 76.1935 42.6689 76.0051 43.4781 75.8376L40.7297 79.4648C50.3138 75.4818 63.8738 74.1357 80.35 78.9697L78.7038 79.1929C79.199 79.3883 79.6804 79.5837 80.1338 79.8068L77.3157 80.5044C82.3101 81.7111 88.5458 83.4898 91.3429 84.4594C94.3144 85.4917 97.9486 87.1937 101.527 89.0352C100.627 88.3865 100.097 88.0029 100.097 88.0029C105.342 89.6212 108.858 93.032 112.618 95.0129L111.969 93.8341C117.368 96.7917 122.237 98.4797 124.239 100.565C124.253 100.586 124.267 100.601 124.288 100.621C128.215 103.906 130.245 106.606 130.866 107.492C131.04 109.229 131.361 110.728 131.947 112.109C130.301 104.583 132.017 102.379 132.617 101.033C132.784 100.656 133.028 100.307 133.293 100.001C135.776 96.185 141.406 94.0502 146.226 94.2107C151.227 94.3853 156.061 95.7663 160.909 98.6541C160.009 97.6358 159.96 96.2406 160.267 95.2152C160.309 95.069 160.365 94.9292 160.421 94.7966C160.476 94.497 160.553 94.2107 160.672 93.9456C160.944 93.3318 161.495 92.9342 162.067 92.6831C161.725 91.5322 160.511 89.0978 157.616 88.7769C155.761 88.5745 154.875 89.2582 154.84 89.293C154.868 89.2576 155.44 88.2677 156.41 87.8492C155.433 87.2841 152.929 87.834 152.866 87.8543C152.978 87.8138 155.287 85.636 158.837 86.7451C159.549 86.9684 160.169 87.3171 160.741 87.631C160.246 86.9196 159.932 86.494 159.918 86.487C160.337 86.5022 163.015 87.2752 164.459 90.3374C164.787 91.021 165.61 92.8068 166.064 93.7694C166.88 95.4923 168.456 97.9197 170.088 99.5869C172.746 102.307 175.669 103.256 178.982 103.235C182.372 103.215 183.621 100.968 183.635 100.877C183.62 100.961 183.718 102.524 182.714 103.702C183.46 103.298 184.395 102.328 184.646 101.652C184.981 100.731 184.751 98.9242 184.416 98.5476C184.59 98.7429 186.745 100.64 186.299 102.558C186.222 102.907 186.104 103.319 185.825 103.744C186.139 103.96 186.515 104.226 186.934 104.511L186.348 103.674L188.259 104.77C188.978 103.947 188.803 100.835 187.234 97.7523" fill="#EFAB00"/>
<path fill-rule="evenodd" clip-rule="evenodd" d="M102.361 46.8477C103.289 47.4476 104.824 49.4577 105.793 50.525C95.5396 49.0882 86.0608 48.5719 77.3753 48.9208C93.7463 48.8701 123.371 57.3469 135.418 65.5776C145.421 72.4134 143.768 74.0094 133.047 69.2242C109.206 58.566 89.8976 57.9744 89.8976 57.9744L76.692 65.9821C76.692 65.9821 98.8601 68.8839 114.191 77.0867C127.388 84.1457 122.87 84.5224 109.777 79.835C90.1348 72.7968 68.9296 71.5483 59.1641 72.8178C67.8483 73.1317 83.0821 75.1252 89.032 77.1202C87.5253 77.5803 83.675 79.2825 81.8334 79.715C85.1328 79.4988 121.898 90.7779 131.964 103.989C131.999 103.57 132.071 103.124 132.162 102.649C133.362 97.2017 140.386 94.0364 146.224 94.2317C151.226 94.3992 156.058 95.7788 160.905 98.6736C159.999 97.6552 159.957 96.2532 160.264 95.2278C160.536 94.321 161.127 93.6444 161.469 93.5817C161.657 93.3164 161.875 93.0946 162.119 92.9204C161.882 91.909 160.71 89.1342 157.613 88.7994C155.751 88.5969 154.865 89.2794 154.837 89.3072C154.865 89.2819 155.437 88.2888 156.399 87.8702C155.43 87.3052 152.926 87.8555 152.856 87.8758C152.974 87.8353 155.282 85.652 158.832 86.7681C159.544 86.9842 160.166 87.3401 160.738 87.647C160.243 86.9425 159.92 86.5086 159.906 86.5086C160.332 86.5238 163.01 87.2982 164.454 90.3534C164.782 91.0439 165.605 92.8226 166.059 93.7852C166.875 95.5151 168.453 97.9341 170.085 99.6082C172.338 101.91 174.786 102.942 177.507 103.194C176.035 102.803 175.071 101.96 175.252 101.067C177.324 101.939 179.312 102.302 180.344 99.8537C181.369 97.4054 180.846 89.1312 171.206 78.5842C171.311 79.1631 171.563 80.1746 171.577 81.2487C169.066 77.6773 163.96 72.3203 160.808 69.8649C160.94 70.4997 161.465 72.6006 161.723 73.4726C160.042 71.7218 155.317 67.7165 155.317 67.7165L156.293 70.7019C156.293 70.7019 155.771 70.0127 155.199 69.3292C149.933 63.0863 135.39 55.518 130.967 53.2295L132.906 56.3684C132.563 56.1856 132.075 55.927 131.453 55.6199L133.412 58.9541L123.153 54.1272L128.683 54.2862C127.127 53.562 125.259 52.7391 123.186 51.8877C118.109 50.102 112.585 48.6735 105.943 47.4321C104.765 47.2088 103.565 47.0121 102.358 46.8517L102.361 46.8477ZM87.5075 52.5151C90.5208 52.9195 93.9443 53.4763 96.2602 53.9018C108.348 56.1199 118.903 59.63 128.262 64.9033L129.309 64.0997C120.646 59.677 110.783 56.3299 99.9992 54.3571C96.6236 53.7357 90.9117 52.8422 87.5075 52.5151Z" fill="#785100"/>
<path fill-rule="evenodd" clip-rule="evenodd" d="M85.4426 36.6151C87.1097 37.7381 89.4115 39.56 90.7299 40.6273C62.082 37.4045 35.4011 47.4767 20 64.9711L19.721 61.6647L19.3164 56.8797C18.5701 57.8283 17.6897 58.9025 16.7412 60.1023C12.4026 65.55 6.59212 73.3972 4.42288 83.539C2.49777 92.5232 4.16478 100.273 8.80336 110.003L5.41443 109.323C7.03268 112.413 8.9035 115.418 11.0449 118.313L11.0505 118.318C19.372 129.576 31.69 139.119 48.2711 145.48C51.3961 146.68 53.9853 147.545 56.2452 148.201C58.861 148.961 61.0429 149.444 63.1285 149.827C42.5032 142.322 30.2978 131.055 24.3265 118.318L24.318 118.313C24.2281 118.11 24.1309 117.91 24.0395 117.707L26.997 118.312L27.5885 118.315C24.8971 111.402 24.2771 101.301 25.6857 96.4742C26.5576 93.4818 27.9318 90.4349 29.8709 88.0843C31.1543 86.5219 33.0237 85.0208 34.6699 84.1698L33.6153 85.8299L30.2336 90.7071C35.6185 85.6501 50.2089 79.7615 65.8272 80.7938C67.1664 80.8773 68.5141 81.0113 69.8534 81.2067L63.6453 82.5822L62.1527 82.9087C63.7012 82.7968 66.19 83.0356 69.2172 83.5588C76.1785 84.7585 89.3197 88.6158 97.3138 92.1385C101.806 94.1194 108.195 97.0406 115.798 102.202C114.975 100.675 114.258 99.1416 113.448 97.7605C117.403 100.76 122.237 104.658 123.367 105.857C126.067 108.703 128.424 111.474 128.306 113.134C128.187 114.794 124.677 114.625 124.503 114.814C128.974 116.195 132.538 116.187 133.947 115.308C131.966 113.027 131.178 110.657 130.864 107.518C129.469 105.544 121.086 94.5227 100.098 88.0281C100.098 88.0281 101.765 89.2418 104.227 91.0415C100.447 89.2697 95.9267 87.3808 91.6298 85.8882C88.2118 84.7023 79.6601 82.3071 74.5258 81.2258L80.1357 79.8373C70.1259 74.976 48.9207 76.6788 39.2594 81.4287L43.4809 75.8708C31.1067 78.4029 24.9884 86.822 22.8399 92.4447C20.4962 98.569 20.1545 107.573 22.7702 115.957L19.0231 115.198C19.4067 116.258 19.8406 117.296 20.3149 118.315V118.32C23.0563 124.207 27.3306 129.502 33.0017 134.991C26.1031 130.834 19.5812 124.563 14.6992 118.32L14.6936 118.315C12.9569 116.088 11.4225 113.872 10.16 111.751L13.4245 112.412C8.31145 103.031 5.81293 95.7136 8.36588 85.6967C8.37302 85.6567 8.47202 85.2724 8.48588 85.2309C9.81114 80.1039 13.988 72.7526 17.3921 68.3084L18.4607 74.4327C40.3217 47.5433 67.734 41.5706 100.462 47.2905C99.779 46.5236 98.2162 43.8047 96.2777 42.0259C109.852 42.0562 130.366 51.8471 134.14 53.9257L131.168 49.1128C141.324 53.6398 151.799 59.3721 158.461 65.3154C158.105 64.3528 157.505 62.1696 157.261 61.5487C158.426 62.4346 166.963 69.7391 171.63 74.0988C178.927 80.9206 182.177 88.4742 183.726 93.2255C183.83 93.1627 183.511 90.7563 183.483 90.268C187.389 94.2649 191.65 99.8659 189.013 104.456C188.908 104.651 188.79 104.839 188.65 105.028L186.348 103.708L186.957 104.573C187.64 105.542 191.393 111.13 193.067 118.314V118.32C194.218 123.258 194.392 128.95 191.909 134.419C189.607 139.476 184.493 142.553 179.122 143.585C176.367 144.108 172.97 144.386 170.947 144.051C171.582 144.156 177.057 141.679 179.261 137.41C180.894 134.251 180.524 129.146 179.164 125.491C178.368 123.363 177.343 121.137 176.122 119.219C175.718 118.577 175.536 118.312 175.536 118.312C169.015 108.721 158.44 103.992 153.313 102.744C146.547 101.091 141.413 103.164 140.032 107.593C140.032 107.593 139.866 108.722 139.901 109.231C139.921 109.195 139.955 109.162 139.99 109.128C140.513 108.995 141.197 108.932 141.957 108.918C143.408 108.898 145.124 109.05 146.463 109.203C148.59 109.447 152.671 110.186 154.582 110.556C152.894 109.67 147.971 108.261 146.053 108.059C145.767 108.034 145.486 108.005 145.207 107.97C144.056 107.858 143.017 107.794 142.152 107.906C142.271 107.85 142.334 107.822 142.334 107.822L142.878 107.138C145.082 104.795 149.185 104.622 152.763 105.5C156.864 106.512 164.216 109.686 169.783 115.754C166.553 117.093 158.649 119.423 149.824 116.535C142.34 114.087 141.914 109.518 141.928 109.309C141.908 109.581 140.102 115.25 148.508 118.313C148.508 118.313 148.702 118.392 149.169 118.553C157.149 121.238 163.435 119.716 167.117 118.321L167.131 118.315C168.282 117.876 169.183 117.445 169.804 117.152L170.655 116.739C171.081 117.248 171.491 117.771 171.889 118.315C171.889 118.315 172.133 118.638 172.656 119.426C166.929 122.014 158.015 124.635 147.211 121.803C143.911 120.938 141.339 119.684 139.337 118.324L139.329 118.318C134.411 114.977 132.969 111.029 132.948 110.827L132.989 111.893C133.01 112.095 133.254 115.131 135.905 118.318L135.911 118.324C137.871 120.681 141.142 123.121 146.625 124.551C158.183 127.579 167.738 124.028 173.773 121.245C176.193 125.472 178.328 131.15 177.177 135.879C176.451 138.858 172.894 142.221 168.89 144.23C169.413 144.474 170.927 144.835 171.917 145.003C179.96 146.363 191.17 144.69 195.354 135.469C198.13 129.359 197.802 123.36 196.344 118.324V118.318C194.942 113.505 192.509 109.571 190.745 107.255C190.73 106.523 190.451 104.98 190.591 104.903C195.955 101.792 190.57 93.3814 183.532 88.6592C182.576 83.3092 179.457 77.7847 173.298 71.2767C168.059 65.7314 160.737 60.5334 152.687 52.7414C152.959 53.5366 154.291 57.8821 154.194 57.7776C150.065 53.5705 132.968 44.4967 123.343 40.6951C124.144 41.7276 125.978 44.2107 127.318 46.1918C119.339 42.0763 102.772 38.2887 97.1576 37.5424C93.3834 36.8937 89.5678 36.8016 85.4393 36.6133L85.4426 36.6151ZM81.5827 56.8261C72.9135 56.888 64.3331 57.9843 57.5089 60.0962C61.0524 59.1894 64.0936 58.6466 66.6047 58.2631C78.1976 56.4634 101.231 59.0569 110.307 62.8862C110.621 62.6281 111.479 61.9948 111.939 61.7646C104.025 58.3785 92.7296 56.7464 81.5827 56.8261ZM156.847 86.4383C155.445 86.4383 154.133 86.8973 152.955 87.7971C152.906 87.832 152.871 87.8611 152.871 87.8864C152.92 87.8651 154.02 87.6213 155.053 87.6213C155.66 87.6213 156.114 87.7132 156.4 87.8529C155.835 88.104 155.297 88.5854 154.857 89.2619L154.852 89.3177C154.859 89.3107 155.527 88.7653 156.95 88.7653C157.166 88.7653 157.389 88.7818 157.62 88.8071C160.758 89.1489 161.951 91.9935 162.167 93.0676C162.453 92.893 162.781 92.8025 163.158 92.8025C164.072 92.8025 164.994 93.3464 165.343 93.5838C165.866 94.3441 166.368 95.2103 166.891 96.0893C166.856 96.0843 166.813 96.0837 166.771 96.0837C166.492 96.0837 166.222 96.1813 165.984 96.3767C166.57 97.0323 166.933 97.7008 166.961 97.716L165.371 97.5067C165.294 98.3926 165.878 99.5087 167.148 99.9202C167.51 100.039 167.859 100.096 168.194 100.096C168.529 100.096 168.851 100.04 169.151 99.9147C169.611 100.417 170.112 100.905 170.621 101.338L170.588 101.363C170.009 101.879 169.451 102.359 168.482 102.359H168.426C168.363 102.359 168.307 102.36 168.244 102.376C168.342 102.41 169.471 103.249 169.478 103.254C173.119 105.989 174.849 107.879 176.383 109.546C176.809 110.013 177.215 110.453 177.647 110.899L177.661 110.888C176.434 108.593 174.11 106.033 170.538 103.09C170.95 103.148 171.368 103.174 171.905 103.174C172.184 103.174 172.465 103.162 172.765 103.157L173.035 103.151C174.947 104.316 176.887 104.951 178.805 105.021C177.466 105.266 176.411 105.286 176.118 105.286H176.085C176.008 105.286 175.958 105.288 175.951 105.308C175.965 105.308 176.014 105.322 176.091 105.347C177.479 105.793 178.84 106.025 180.145 106.025C181.637 106.025 183.003 105.725 184.196 105.132C185.723 104.379 186.128 103.416 186.316 102.579C186.498 101.777 186.339 100.452 184.511 98.6452C184.47 98.6006 184.44 98.5754 184.405 98.5754C184.733 98.9381 184.979 100.743 184.637 101.664C184.393 102.327 183.472 103.296 182.726 103.729C183.318 103.031 183.626 102.11 183.646 100.981C183.646 100.93 183.645 100.911 183.624 100.891C183.624 100.919 182.398 103.22 178.987 103.24H178.875C175.318 103.24 172.535 102.09 170.1 99.5994C168.391 97.8556 166.848 95.4212 166.074 93.782C165.83 93.2588 165.483 92.5054 165.162 91.8149C164.883 91.215 164.625 90.6639 164.478 90.35C163.027 87.2878 160.382 86.522 159.922 86.522H159.908C159.943 86.5429 160.237 86.9407 160.753 87.638L160.619 87.5655C160.096 87.2795 159.496 86.9532 158.848 86.7508C158.178 86.5417 157.503 86.4383 156.847 86.4383ZM161.484 93.5726C161.142 93.6283 160.544 94.305 160.265 95.2327C159.958 96.2511 160.007 97.6518 160.906 98.6701C156.059 95.7823 151.225 94.4026 146.231 94.2282C140.386 94.0328 133.369 97.1982 132.169 102.646C131.646 105.157 132.085 106.923 132.085 106.923C132.085 106.923 132.281 105.457 132.476 104.85C133.334 100.246 139.514 95.8673 146.538 96.0138C152.879 96.1394 155.738 97.4145 164.646 101.976L166.055 102.292C164.695 101.189 163.347 100.206 162.001 99.3481C160.627 97.9321 160.152 96.0348 161.484 93.5726ZM26.994 118.321L27.6413 118.452C27.6204 118.411 27.6022 118.37 27.5883 118.321H26.994Z" fill="#003875"/>
<path d="M60.9797 61.8398L56.097 82.4666H60.9154L51.0384 123.189H46.2616L40.9883 144.52H133.515L138.713 123.194H127.329L116.559 97.0934L126.012 88.9993C129.421 91.1575 132.624 93.4802 135.616 95.9857L137.602 95.5253C134.342 93.0177 130.666 90.613 126.749 88.3659L133.621 82.4816H143.93L148.93 61.8549L60.9797 61.8398Z" fill="#EFAB00"/>
<path d="M62.5214 63.4883L58.3585 80.5922H63.2747L52.5216 125.061H47.7003L43.4258 142.645H132.065L136.265 125.067H126.061L114.315 96.5662L132.903 80.5979H142.37L146.658 63.494L62.5228 63.4884L62.5214 63.4883ZM157.367 81.5822C154.242 81.4359 151.535 82.8308 149.931 84.763C148.647 86.3115 148.486 88.7053 149.281 90.3376C149.002 88.5938 149.826 87.0104 150.824 85.8037C152.114 84.2481 154.779 83.2354 157.408 83.1586C160.422 83.0751 163.999 84.0444 165.938 86.5625C164.529 83.6817 161.859 81.8068 157.367 81.5905L157.367 81.5822Z" fill="white"/>
<path d="M14.1677 55.7969C9.9128 61.2168 2.78537 69.3766 0.476562 80.7464L0.652387 84.4106C2.84963 73.7108 9.76205 61.4196 14.1705 55.7969H14.1677ZM65.0452 66.6709L62.501 77.4121H67.5372L55.1826 128.228H50.1687L47.3786 139.394H79.1436L81.878 128.228H76.8L78.0555 123.192L91.9922 111.27L99.0568 128.201H91.3225L88.5882 139.395H129.617L132.352 128.201H123.861L110.469 95.613L131.891 77.4134H139.849L142.382 66.6715H101.763L99.1121 77.4134H103.758L85.4267 92.8988L89.1737 77.4134H92.4856L95.1363 66.6715L65.0452 66.6709ZM162.923 80.7304C165.211 81.5604 168.17 83.5219 171.999 89.2067L173.115 90.9087C174.657 93.3082 175.946 94.8289 178.227 95.3869C176.455 94.9546 175.772 92.5395 174.279 90.2307L173.149 88.5009C169.096 82.516 164.423 80.8139 162.923 80.7304ZM97.4845 150.843C94.3945 150.848 90.745 152.23 90.7101 155.829C90.6823 158.41 92.8306 159.868 95.1184 160.419C96.0322 160.642 96.494 160.81 96.494 161.27C96.494 161.73 96.088 161.92 95.4951 161.92C94.7069 161.915 93.8643 161.404 93.8294 160.539C92.1833 160.93 90.5288 161.319 88.8825 161.716C89.1964 164.792 92.6562 165.631 95.2301 165.631C98.3899 165.636 102.388 164.464 102.353 160.642C102.332 158.222 100.378 156.75 98.1876 156.178C97.6296 156.031 96.3042 155.794 96.2205 155.187C96.1785 154.873 96.4939 154.54 97.1357 154.54C97.8402 154.54 98.4052 154.972 98.4331 155.6C100.114 155.37 101.802 155.138 103.483 154.908C103.323 151.734 100.163 150.843 97.4845 150.843ZM60.4882 151.136C60.2649 152.336 60.0417 153.527 59.8185 154.727C59.6232 155.794 59.4349 156.868 59.3024 157.95H59.1991C58.8155 157.078 58.3677 156.234 57.9073 155.397C57.1191 153.981 56.3323 152.558 55.5441 151.142H50.3266C49.3989 156.059 48.4712 160.97 47.5504 165.887C49.3919 165.837 51.2263 165.796 53.0608 165.748L53.7081 162.296C53.9174 161.145 54.128 159.993 54.2745 158.842H54.3861C54.9302 159.93 55.544 160.978 56.1578 162.031C56.8832 163.231 57.6086 164.436 58.334 165.636C59.9663 165.611 61.5984 165.574 63.2306 165.547C64.1514 160.748 65.079 155.942 66.0069 151.135L60.4882 151.136ZM67.695 151.136C67.4229 152.566 67.1426 153.995 66.8636 155.425C68.1819 155.42 72.3602 155.41 72.3602 155.41L70.4405 157.341L68.8724 165.461C70.7488 165.44 72.6181 165.42 74.4944 165.399C75.1501 162.065 75.8058 158.729 76.4615 155.388C77.7798 155.388 79.0967 155.383 80.4151 155.383C80.6872 153.967 80.9676 152.552 81.2466 151.136L67.695 151.136ZM105.177 151.136C104.898 152.559 104.62 153.974 104.348 155.397C105.667 155.402 109.803 155.419 109.803 155.419L107.934 157.297C107.411 160.003 106.886 162.715 106.363 165.421C108.239 165.442 110.109 165.472 111.985 165.491C112.641 162.143 113.291 158.788 113.946 155.433C115.265 155.438 116.583 155.447 117.894 155.452C118.173 154.016 118.453 152.579 118.731 151.136L105.177 151.136ZM123.195 151.139C120.454 155.952 117.69 160.744 114.914 165.536C116.846 165.561 118.773 165.607 120.698 165.642C121.068 164.993 121.437 164.344 121.8 163.689C123.502 163.724 126.912 163.792 126.912 163.792H128.51L127.135 165.181C127.163 165.363 127.2 165.556 127.235 165.787C129.091 165.827 130.946 165.878 132.802 165.926C132.006 161.002 131.204 156.07 130.402 151.138L123.195 151.139ZM48.0711 151.142C44.0882 151.142 40.1123 151.147 36.1294 151.147C35.2017 156.211 34.274 161.267 33.3532 166.331C37.3291 166.185 41.3106 166.061 45.2865 165.949C45.5515 164.533 45.811 163.124 46.0761 161.708C43.8928 161.759 41.7152 161.798 39.5388 161.847C39.6434 161.31 39.7005 161.038 39.8122 160.494C41.7095 160.459 43.6054 160.423 45.5097 160.388C45.7189 159.154 45.938 157.919 46.1542 156.691C44.2638 156.707 42.3721 156.727 40.4819 156.756C40.5935 156.211 40.641 155.945 40.7525 155.408C42.9218 155.388 45.0926 155.367 47.2618 155.352C47.5267 153.944 47.7993 152.543 48.0711 151.142ZM34.8068 151.153C32.7362 151.158 30.6654 151.156 28.6015 151.156C27.4367 152.948 26.2787 154.749 25.1279 156.549C24.8489 156.554 24.7094 156.552 24.4304 156.563C24.7443 154.763 25.0595 152.958 25.3734 151.159C23.5041 151.164 21.6291 151.164 19.7597 151.164H17.7843L19.4584 152.844C18.6284 157.559 17.8067 162.282 16.9836 167.004C18.86 166.92 20.7294 166.836 22.6056 166.753C22.9405 164.855 23.2795 162.958 23.6213 161.061C23.9351 161.056 24.0914 161.046 24.4053 161.041C24.9703 162.897 25.5269 164.752 26.0988 166.607C28.0589 166.531 30.0189 166.454 31.986 166.384C31.1071 163.901 30.2422 161.418 29.3772 158.935C31.1761 156.334 32.98 153.74 34.8068 151.153ZM134.459 151.153C134.18 152.625 133.901 154.096 133.622 155.575C134.947 155.59 138.03 155.637 138.03 155.637H139.071L137.23 157.486C136.706 160.332 136.175 163.17 135.645 166.016C137.521 166.071 139.397 166.128 141.267 166.192C141.922 162.683 142.572 159.173 143.228 155.665C144.546 155.68 145.858 155.7 147.176 155.715C147.455 154.194 147.734 152.675 148.013 151.161V151.156C143.493 151.151 138.972 151.153 134.459 151.153ZM149.842 151.153C148.921 156.231 147.999 161.309 147.071 166.387C151.054 166.533 155.031 166.7 159.007 166.875C159.272 165.389 159.53 163.905 159.788 162.419C157.612 162.35 155.436 162.279 153.259 162.216C153.364 161.665 153.42 161.387 153.525 160.829C155.422 160.88 157.327 160.932 159.225 160.988C159.441 159.677 159.656 158.379 159.872 157.068C157.975 157.043 156.084 157.007 154.194 156.979C154.306 156.421 154.353 156.142 154.465 155.584C156.634 155.609 158.805 155.639 160.974 155.667C161.113 154.873 161.252 154.077 161.398 153.276L163.513 151.164H161.314V151.17C157.485 151.165 153.664 151.163 149.842 151.153ZM125.776 155.411H125.882L126.343 159.981C125.52 159.976 124.697 159.96 123.874 159.945L125.776 155.411Z" fill="#003875"/>
<path d="M76.4756 38.8151C52.2589 39.1392 32.8208 46.7907 19.8453 59.9247L20.1243 63.231C34.4312 46.9857 57.7564 38.0787 87.4086 39.4458C87.3172 39.3412 87.2272 39.2355 87.1429 39.1307C83.493 38.8727 79.9355 38.7688 76.4756 38.8151ZM16.2682 58.4318C12.1803 63.726 4.2075 72.6815 1.64713 85.0413C-0.214834 94.0182 1.48727 101.748 6.13975 111.458L2.7581 110.781C10.6821 125.882 24.7634 138.877 45.4944 146.829C49.8885 148.517 53.2156 149.543 56.0827 150.254C53.8156 149.6 51.2285 148.727 48.1114 147.534C27.269 139.54 13.1565 126.516 5.26091 111.381L8.66484 112.059C4.02579 102.328 2.35868 94.5848 4.28379 85.5936C6.46017 75.4509 12.2636 67.6039 16.6021 62.1569L16.2682 58.4318ZM164.122 80.2371C166.41 81.0671 169.375 83.0328 173.204 88.7106L174.315 90.421C175.856 92.8135 177.145 94.3398 179.426 94.8908C177.654 94.4653 176.979 92.0533 175.486 89.7375L174.356 88.0132C170.304 82.0213 165.629 80.3278 164.122 80.2371ZM157.727 82.0925C154.498 81.9391 151.687 83.3899 150.027 85.3848C148.701 86.9892 148.541 89.464 149.357 91.152C149.071 89.3453 149.921 87.7075 150.953 86.459C152.292 84.8477 155.049 83.8015 157.769 83.7246C160.894 83.634 164.598 84.637 166.6 87.2457C165.142 84.2603 162.38 82.3226 157.727 82.0925ZM146.545 96.0292C140.176 95.8966 134.506 99.4805 132.867 103.582C132.254 105.995 132.581 109.087 133.788 111.891L133.746 110.878C133.781 111.164 135.825 118.817 147.223 121.796C158.027 124.621 166.942 121.997 172.668 119.416C172.04 118.474 171.37 117.581 170.659 116.738L169.814 117.142C167.205 118.398 159.687 121.983 149.175 118.537C145.304 117.275 143.412 115.476 142.512 113.802C141.215 112.449 140.413 110.859 140.35 109.059C140.232 109.079 140.113 109.099 140.001 109.129C139.966 109.164 139.932 109.197 139.904 109.232C139.876 108.723 140.043 107.594 140.043 107.594C141.424 103.165 146.558 101.092 153.324 102.745C158.605 104.035 169.674 109.017 176.134 119.215C177.347 121.133 178.381 123.357 179.169 125.484C180.537 129.139 180.899 134.24 179.267 137.406C177.063 141.675 171.594 144.151 170.953 144.047C172.975 144.375 176.378 144.102 179.133 143.572C184.497 142.54 189.617 139.464 191.912 134.407C192.344 133.458 192.693 132.503 192.972 131.547C194.751 120.379 186.367 104.908 185.355 105.368C183.807 106.065 182.399 106.115 181.318 105.962C178.521 106.283 176.107 105.327 175.961 105.306C175.989 105.306 177.196 105.342 178.821 105.041C176.826 104.95 174.873 104.258 173.059 103.149C172.139 103.17 171.377 103.206 170.554 103.088C173.253 105.341 175.215 107.334 176.533 109.134C179.972 113.194 182.601 117.248 182.601 117.248C182.601 117.248 178.96 113.187 177.063 111.283C173.694 107.913 168.93 104.581 164.354 101.832C155.684 97.4031 152.816 96.1548 146.545 96.0292ZM7.59315 127.493C7.79543 129.153 11.5608 133.563 18.0616 137.992C26.418 143.691 30.7358 144.5 32.3613 144.632C26.3486 141.828 22.3378 139.546 18.2434 136.714C12.4602 132.731 8.74412 129.041 7.59315 127.493ZM89.4829 149.828L83.3641 153.358C83.3641 153.358 83.3098 153.659 83.0098 154.635C82.7099 155.605 82.5355 156.134 82.5355 156.134L83.9445 155.604C83.9445 155.604 83.6934 156.643 83.1214 158.157C82.5494 159.67 81.7403 161.616 81.7403 161.616L83.3864 160.919C83.3864 160.919 83.4005 160.99 82.7447 162.783C82.1936 164.275 81.5254 165.852 81.5254 165.852C81.5254 165.852 82.8702 164.574 83.9445 163.5C85.0187 162.432 85.9058 161.499 85.9058 161.499L84.6921 161.881C84.6921 161.881 85.3199 160.988 86.1151 159.844C86.9033 158.708 87.6832 157.453 87.6832 157.453L86.2532 157.843C86.2532 157.843 86.9159 156.489 87.7599 154.431C88.6039 152.38 89.4842 149.827 89.4842 149.827L89.4829 149.828Z" fill="#EFAB00"/>
</g>
<defs>
<clipPath id="clip0_107_20202">
<rect width="200" height="200" fill="white"/>
</clipPath>
</defs>
</svg>
