<svg width="200" height="200" viewBox="0 0 200 200" fill="none" xmlns="http://www.w3.org/2000/svg">
<g clip-path="url(#clip0_107_20199)">
<path d="M133.033 24.5282H199.999L176.991 62.3076H173.052L172.962 137.51H176.991L199.999 175.469H101.34L124.259 137.689H128.377L128.287 113.876L100.042 162.039L71.4387 113.509V137.599H75.4676L98.2966 175.467H0L22.8286 137.599H26.9471V62.3076H22.9183L0 24.5282H66.9657L100.001 80.9281L133.036 24.5282H133.033Z" fill="black"/>
<path d="M139.03 147.985H130.346L120.319 164.637H181.288L171.44 147.985H162.846L162.757 51.655H171.262L181.288 34.8243H139.391L100.089 101.52L60.967 34.8243H18.8008L28.9176 51.655H37.4225L37.5117 147.985H28.9176L18.8008 164.637H79.8582L69.6521 147.895H61.1472L61.2365 74.9325L100.046 141.182L138.944 75.0252L139.034 147.988L139.03 147.985Z" fill="#B61E2E"/>
</g>
<defs>
<clipPath id="clip0_107_20199">
<rect width="200" height="200" fill="white"/>
</clipPath>
</defs>
</svg>
