<svg width="200" height="200" viewBox="0 0 200 200" fill="none" xmlns="http://www.w3.org/2000/svg">
<path d="M175.886 75.1226C175.839 75.0546 171.192 68.3533 169.448 64.3909L168.881 63.0991L143.038 58.0573L143.257 57.6876L124.713 34.4141L121.382 43.3143C119.922 43.14 118.32 43.0232 116.554 42.9807C115.618 41.3214 113.943 38.3723 112.199 35.419C110.86 33.1584 109.484 30.8935 108.358 29.1874C107.752 28.2696 107.212 27.5047 106.783 26.9608C106.554 26.674 106.292 26.3659 106.016 26.1046C105.273 25.3949 104.533 25.1952 104.066 25.1527C100.583 24.834 95.958 27.2688 93.1705 36.5026C91.254 34.0444 88.8234 30.4771 86.7434 26.0174C83.9813 20.1002 79.3453 23.6655 77.5818 25.6329C77.0443 26.2321 76.1179 27.1669 75.0407 28.567C73.9104 30.0352 72.6356 31.9792 71.4628 34.531C69.2234 39.4049 67.4196 46.3611 67.5747 56.2535C64.9784 58.0425 58.9273 62.5722 52.6745 69.8003C44.8217 78.8832 36.5738 92.3303 34.5978 110.005H23.5156L29.1629 122.502V149.467L23.6537 161.49H37.5532L33.2062 171.242H158.769L153.264 161.307L167.51 161.49L162.075 148.857V122.488L166.849 110.005H138.704C138.838 107.358 139.363 105.367 139.898 103.978C140.234 103.109 140.604 102.422 140.88 101.97L153.46 99.7898C159.755 99.1461 173.799 94.8437 176.34 77.0432L176.491 75.9938L175.886 75.1226ZM43.1836 110.005C45.8139 107.519 48.3465 105.807 50.4627 104.647C49.8019 106.555 49.3663 108.361 49.0859 110.005H43.1836Z" fill="#9EA2A2"/>
<path d="M139.318 99.4918L153.075 97.1079C158.733 96.5576 171.347 92.7735 173.65 76.6558C173.65 76.6558 168.829 69.7231 166.958 65.4696L138.742 59.9646L139.966 57.9036L125.55 39.8121L123.124 46.2945C120.857 45.8908 118.169 45.6507 114.942 45.6507C114.942 45.6507 105.09 27.948 103.8 27.8312C101.928 27.6612 96.9521 29.021 94.5704 42.2066C94.5704 42.2066 88.6893 36.606 84.2764 27.1512C83.0866 24.5974 81.5037 25.2689 79.5703 27.4254C77.5306 29.703 69.5653 37.0012 70.2877 57.6699C70.2877 57.6699 39.8668 77.51 36.5204 113.104H28.3086L32.2499 121.826V150.137L28.4743 158.377H40.6401V160.848L37.8611 168.129H154.11L150.139 160.986V158.377H162.772L158.948 149.491V121.907L162.315 113.104H136.008C135.459 103.66 139.318 99.4918 139.318 99.4918ZM65.1948 109.148C64.9186 110.251 64.7125 111.609 64.5659 113.104H58.3704C61.9568 110.582 65.1948 109.148 65.1948 109.148ZM37.3979 113.104C46.1217 102.802 55.7061 99.6616 55.7061 99.6616C52.8973 104.438 51.716 109.303 51.2486 113.104H37.3979ZM130.634 113.104C130.809 111.562 130.928 110.432 130.928 110.432C131.669 111.369 133.122 112.378 134.295 113.104H130.634Z" fill="black"/>
<path d="M34.5625 117.037L36.269 119.925V151.625L34.8379 154.54H48.6057L47.1745 151.625V131.043L78.5192 148.999V151.601L77.3668 154.54H90.504L89.0728 151.625V119.95L90.504 117.035H77.088L78.3135 119.525L78.5481 119.891V134.942L47.0606 117.122L34.5625 117.035V117.037ZM93.1691 117.037L94.3912 119.527L94.6258 119.891L94.6003 151.601L93.4445 154.54H106.583L105.151 151.625V119.95L106.583 117.035H93.1691V117.037ZM109.39 117.037L110.77 119.891L110.744 133.635V147.87L119.233 154.603H145.684L154.169 147.87L154.149 119.891L155.53 117.037H142.072L143.507 119.95L143.512 142.946L141.873 145.021L138.603 146.055H126.312L123.044 145.021L121.403 142.946L121.41 136.689V119.95L122.843 117.035H109.388L109.39 117.037Z" fill="#BA0C2F"/>
<path d="M101.547 100.533C98.8185 104.151 97.0529 107.597 95.9141 110.446C104.706 108.133 113.219 108.781 113.219 108.781C110.861 112.903 110.181 113.867 110.181 113.867L122.347 113.561L127.361 103.692L117.953 107.359L123.921 97.4541L114.809 98.4421L120.207 91.6389C114.741 92.0065 106.639 93.7806 101.547 100.533Z" fill="#9EA2A2"/>
<path fill-rule="evenodd" clip-rule="evenodd" d="M80.1058 36.7031C80.1058 36.7031 75.3958 43.8488 75.5437 55.0585C75.5437 55.0585 80.9404 51.28 88.3597 49.2556C88.3597 49.2556 82.8305 45.3445 80.1058 36.7031ZM126.294 48.7576L125.925 53.5015C124.076 52.4749 121.419 50.867 117.872 51.3293C107.516 52.6857 110.458 59.3588 110.973 60.5486C109.741 59.6953 108.131 59.1786 106.372 59.1786C102.496 59.1786 99.3535 61.6806 99.3535 64.769C99.3535 65.2909 99.4453 65.7974 99.6136 66.275C79.3426 59.9809 72.508 75.2462 72.508 75.2462C79.6724 73.164 86.8384 75.6864 86.8384 75.6864C74.4678 79.7385 69.6525 92.9964 69.6525 92.9964C73.9647 90.5879 84.4622 89.5749 84.4622 89.5749C72.2411 97.7829 72.0627 109.739 72.0627 109.739C83.5698 99.1511 98.349 97.1862 98.349 97.1862C87.5132 107.461 85.1166 115.333 85.1166 115.333C88.3376 112.977 92.1535 111.444 95.9167 110.456C97.0555 107.607 98.8215 104.162 101.55 100.543C106.642 93.7885 114.743 92.014 120.211 91.6451L120.241 91.6094L155.02 90.4247C156.368 89.631 163.732 86.0411 165.118 78.938C165.118 78.938 166.359 80.9199 166.452 83.4932C168.108 80.5187 168.915 78.1782 168.915 78.1782L166.44 73.062C166.44 73.062 165.091 76.951 164.927 76.47C164.479 75.1527 163.126 72.8937 161.706 73.062C158.098 73.4903 158.626 78.5385 158.626 78.5385C151.443 74.5663 158.479 68.6988 158.48 68.6988L133.217 63.258L135.143 60.5316C135.143 60.5316 130.844 53.8789 126.296 48.7576H126.294ZM114.366 55.6126L130.421 64.2234L132.15 70.9968C132.15 70.9968 128.995 66.7662 124.751 65.4183C123.901 67.3033 121.132 68.3198 118.416 67.6994C115.594 67.0569 113.895 64.8897 114.622 62.8636C114.867 62.1804 115.355 61.6007 116.002 61.1571L114.366 55.6126ZM79.3052 118.423L79.9273 119.485V135.496L81.4044 136.329V118.423H79.3052ZM95.3864 118.423L96.0085 119.485L95.9779 151.867L95.473 153.158H104.358L103.487 151.681H97.5943L97.5909 118.424L95.3864 118.423ZM111.714 118.423L112.334 119.482L112.302 146.997L120.52 152.985H142.895L145.28 151.431L121.533 151.584L114.111 146.31L114.136 118.424H111.712L111.714 118.423ZM144.57 118.423L145.19 119.485L145.187 143.455L143.591 145.52L145.131 145.032L147.248 142.695L147.255 118.424L144.57 118.423ZM36.9922 118.44L37.65 119.551V151.95L37.0551 153.158H46.3764L45.5112 151.681H39.0829L39.1236 118.453L36.9922 118.44ZM47.1277 127.452V129.391L79.9001 148.38V151.867L79.3919 153.158H88.2747L87.4061 151.68H81.367L81.3738 147.106L47.1277 127.452ZM44.4642 158.796L44.8959 159.565V164.742L44.4642 165.51H48.6081L48.1764 164.742V162.825L48.3481 162.728H50.42L50.5934 162.825V164.742L50.1617 165.51H54.3005L53.8722 164.742V159.565L54.3005 158.796H50.1617L50.5934 159.565V161.001L50.42 161.098H48.3481L48.1764 161.001V159.565L48.6081 158.796H44.4642ZM61.6501 158.796L62.0819 159.565V163.783L61.9102 164.261L64.1538 165.51H69.2428L71.4865 164.261L71.3148 163.783V159.565L71.7465 158.796H67.7794L68.2111 159.565V163.352L67.8626 163.737L67.1743 163.926H66.4842L65.7941 163.737L65.449 163.352V159.565L65.8808 158.796H61.6501ZM81.1613 158.796L78.9177 160.042V161.625L80.4712 162.488L83.1466 162.825L83.5783 163.063V163.448L83.32 163.737L82.8016 163.88H80.3353L78.5233 163.54L79.6979 165.51H84.7868L87.0305 164.261V162.391L85.3902 161.482L82.7149 161.147L82.3698 160.953V160.761L82.6282 160.472L83.1466 160.329H85.5959L87.0798 160.618L85.9953 158.796H81.1613ZM94.3818 158.796L94.8135 159.565V164.742L94.3818 165.51H98.5206L98.0889 164.742V162.967L98.2623 162.777L99.1258 162.296H99.3841L100.815 164.647L100.99 165.51H105.303L104.337 164.597L101.888 160.858L105.253 158.99L104.905 158.796H101.196L100.851 159.371L98.349 160.763L98.0889 160.955V159.565L98.5206 158.796H94.3818ZM111.651 158.796L112.083 159.565V164.742L111.651 165.51H115.88L115.448 164.742V159.565L115.88 158.796H111.651ZM123.488 158.796L123.92 159.565V164.742L123.488 165.51H130.994L132.17 163.544L130.357 163.88H127.459L127.2 163.734V162.825L127.374 162.728H128.492L129.785 162.967V160.955L128.492 161.195H127.374L127.2 161.098V160.426L127.336 160.331H130.304L131.825 160.62L130.736 158.796H123.488ZM140.757 158.796L138.514 160.042V161.625L140.067 162.488L142.742 162.825L143.171 163.063V163.448L142.912 163.737L142.397 163.88H139.928L138.116 163.54L139.29 165.51H144.383L146.625 164.261V162.393L144.984 161.482L142.312 161.147L141.966 160.955V160.763L142.226 160.474L142.742 160.331H145.19L146.677 160.62L145.588 158.796H140.757Z" fill="white"/>
</svg>
