<svg width="200" height="200" viewBox="0 0 200 200" fill="none" xmlns="http://www.w3.org/2000/svg">
<path d="M120.569 153.25C120.569 153.25 120.477 158.351 118.11 160.917C116.466 171.937 104.768 176.18 95.1805 171.535C90.4459 169.242 85.5987 163.721 84.852 155.409C75.4023 158.674 70.4753 169.716 69.6907 171.669C68.4148 174.843 67.1851 173.369 65.3944 171.548C57.1866 163.202 55.4961 155.945 55.5903 149.139C49.029 151.844 42.5307 155.403 36.634 160.078C34.4577 161.803 31.9122 159.446 33.688 157.351C33.9096 157.088 45.2158 143.893 72.808 137.357C44.2015 139.739 26.084 150.956 25.7669 151.176C22.9774 153.115 20.8296 149.849 23.3013 148.028C38.6436 137.481 57.4136 132.285 76.0128 130.615C52.1491 130.566 28.9791 140.995 28.2216 141.337C28.0014 141.439 27.8036 141.504 27.6125 141.545C17.7637 144.711 9.20703 140.402 9.20703 129.669V62.0388C9.20703 53.098 16.3836 44.0128 25.2458 40.8024C30.7021 38.451 37.6754 36.0034 46.1725 33.4764C50.6896 31.9333 55.2251 32.1372 58.8493 33.8181C59.5099 31.9615 61.3691 30.1589 63.2465 29.7569C74.6923 27.3087 86.8508 26.4728 99.319 26.4728C111.723 26.4728 126.077 27.8998 134.581 29.6287C137.265 30.1743 138.97 31.932 139.621 33.8629C143.239 32.193 147.763 31.9955 152.269 33.5341C160.765 36.0592 167.738 38.3254 173.194 40.6736C182.038 43.875 189.234 52.898 189.234 61.8581V126.734C189.234 131.624 185.963 138.04 180.748 140.735C183.001 142.165 185.286 143.724 187.598 145.422C189.871 147.091 187.482 150.141 185.133 148.57C185.118 148.56 172.016 139.828 154.367 135.459C166.383 139.676 179.422 146.436 190.06 156.499C192.091 158.42 189.461 161.132 187.263 159.385C187.263 159.385 180.188 153.763 168.909 148.186C162.727 145.129 155.327 142.107 147.171 140.022C157.682 144.56 170.012 151.862 181.715 163.607C183.688 165.588 180.827 168.252 178.763 166.356C178.763 166.356 174.822 162.733 167.932 158.151C161.488 153.864 152.498 148.762 141.768 144.983C141.069 151.652 139.263 159.653 135.249 165.17C134.202 166.61 132.601 166.529 131.722 164.992C129.13 160.461 125.447 155.82 120.569 153.247" fill="white"/>
<path d="M98.8923 135.86C55.0898 130.714 25.2142 149.114 24.5156 149.61C55.9455 128.005 98.1748 132.339 98.1748 132.339C67.8283 120.962 27.2976 139.581 27.2976 139.581C35.6531 135.227 43.3107 132.092 50.267 129.887C54.3485 120.848 60.4112 115.29 60.4112 115.29C60.4112 115.29 55.268 114.935 44.8358 122.955C49.0305 105.965 62.9391 96.1797 62.9391 96.1797C62.9391 96.1797 55.6582 92.9327 54.3635 88.9742C47.8428 89.9941 46.6171 85.6381 46.2824 84.5374C46.5358 85.047 47.4566 85.9291 50.7969 85.9291C56.2274 85.9291 58.4443 82.7494 65.1797 82.7494C69.848 82.7494 73.8401 83.5937 77.2495 84.9816C80.6481 83.4649 89.9155 80.0557 98.7913 83.2623C111.586 78.2518 117.966 85.6317 117.966 85.6317C117.966 85.6317 122.967 82.6142 128.541 83.0213C134.116 83.4283 136.73 85.9035 141.5 85.9035C144.543 85.9035 145.875 83.8937 145.875 83.8937C145.875 83.8937 144.997 89.7178 140.527 89.6171C139.766 91.4384 137.659 95.1065 132.162 98.8427C145.496 108.575 145.784 121.598 145.784 121.598C145.784 121.598 142.162 117.003 137.593 115.833C142.602 120.572 143.282 126.165 143.361 128.451C154.579 129.946 169.738 134.782 186.327 146.97C186.327 146.97 157.151 127.463 126.661 131.662C140.26 132.068 168.746 139.11 188.595 157.885C188.595 157.885 159.728 134.913 125.373 135.319C135.536 137.215 158.917 143.584 180.206 164.952C180.206 164.952 164.08 150.1 139.907 142.274C139.907 142.274 139.353 156.069 133.542 164.059C126.449 151.661 118.166 150.21 118.166 150.21C118.166 150.21 119.699 156.015 116.171 160.079C115.174 165.305 111.262 171.256 102.909 171.045C87.0475 170.647 86.7006 153.026 86.7006 153.026C83.2614 153.414 74.3537 155.911 67.6528 170.91C58.3129 162.192 57.0425 152.876 57.867 146.122C50.1234 149.009 42.3127 153.016 35.3021 158.574C35.3021 158.574 52.9413 137.756 98.8889 135.86" fill="black"/>
<path fill-rule="evenodd" clip-rule="evenodd" d="M42.8189 122.512C45.2784 112.549 51.377 103.371 59.3164 96.5182C56.9498 95.1316 54.514 93.3892 53.0973 91.075C48.4392 91.2904 45.4946 89.0351 44.2912 85.0817C43.5703 82.1431 44.8583 81.6847 48.1553 83.7053C48.4805 83.8413 49.2956 83.972 50.7963 83.972C54.2545 83.972 57.0887 82.4014 60.4839 81.468V46.143C60.4839 39.6497 54.9205 36.3341 48.057 38.7368C39.6853 41.2235 32.8326 43.6224 27.501 45.9327C20.6375 48.3354 15.0742 55.5467 15.0742 62.04V129.67C15.0742 136.163 20.6375 139.48 27.501 137.077C37.6561 132.347 44.5928 129.42 48.3084 128.296C48.4859 128.233 48.6628 128.168 48.8376 128.1C50.5429 124.548 52.5227 121.556 54.2701 119.248C49.5761 121.598 45.5359 124.945 41.4408 128.094C42.0825 125.495 42.0154 124.863 42.8189 122.513M37.7672 59.9303C36.0787 60.4823 34.7101 62.6843 34.7101 64.8485V111.535C34.7101 113.7 36.0787 115.007 37.7672 114.455C39.4556 113.903 40.8236 111.701 40.8236 109.537V62.8497C40.8236 60.6855 39.4556 59.3783 37.7672 59.9303ZM110.34 32.3634V79.8C106.543 79.2256 102.514 79.8058 98.7529 81.1712C96.0251 80.293 93.2925 79.9641 90.7036 79.9776V71.1457C88.4908 71.2393 86.2915 71.3694 84.1064 71.5348V80.7077C81.2207 81.3148 78.8101 82.1841 77.2063 82.8508C73.7278 81.5565 69.7371 80.7943 65.1786 80.7943C64.9387 80.7943 64.7029 80.7994 64.4712 80.8097V35.1232C70.8537 33.9789 77.4102 33.1423 84.1064 32.6352V52.6658C86.2915 52.5004 88.4908 52.3703 90.7036 52.276V32.2461C93.552 32.1256 96.4242 32.064 99.3152 32.064C103.025 32.064 106.702 32.1647 110.34 32.3634ZM133.964 35.0886V82.1174C128.532 80.5276 124.063 80.5141 118.307 83.2239L118.074 83.0399C116.898 82.136 115.641 81.4251 114.328 80.8892V32.6205C121.024 33.1205 127.58 33.9507 133.964 35.0886ZM148.006 127.27C148.844 113.344 141.654 104.039 135.474 98.8908C139.027 96.2887 140.924 93.3745 141.923 91.4628C145.854 90.6282 147.541 86.7094 147.695 84.6772C148.023 80.3218 145.275 81.6988 144.396 82.7175C143.776 83.4368 142.453 83.9451 141.499 83.9451C140.207 83.9451 139.103 83.7336 137.953 83.4002V46.2007C137.953 39.7074 143.516 36.3912 150.378 38.7939C158.751 41.2799 165.603 43.4922 170.935 45.8033C177.798 48.2059 183.361 55.364 183.361 61.858V126.734C183.361 132.782 177.134 138.35 172.117 135.781C163.222 131.228 155.049 128.638 148.006 127.268M160.669 59.7476C158.981 59.1956 157.612 60.5028 157.612 62.667V108.734C157.612 110.899 158.981 112.988 160.669 113.399C162.358 113.812 163.726 112.392 163.726 110.227V64.6658C163.726 62.5016 162.358 60.2996 160.669 59.7476Z" fill="#00694E"/>
<path fill-rule="evenodd" clip-rule="evenodd" d="M107.637 84.7477C105.77 84.7749 104.375 85.2652 103.682 85.5493C115.697 93.1974 115.579 107.904 115.579 107.904C115.579 107.904 111.467 90.2127 98.5083 86.5684C90.3821 84.2826 85.2143 86.772 83.1524 88.1454C93.895 95.9853 96.3277 109.396 96.3277 109.396C96.3277 109.396 87.1873 83.3 62.9356 86.453C61.3708 86.6566 59.6677 87.3658 57.8047 87.9808C61.148 88.3285 66.1976 89.5393 70.3214 93.44C58.6205 100.004 55.8664 109.416 55.2718 112.381C55.1531 112.977 55.1211 113.313 55.1211 113.313C55.1211 113.313 55.8718 112.905 57.2719 112.381C60.0899 111.326 65.5379 109.796 72.7936 110.159C71.4082 110.87 70.1235 111.615 68.9305 112.381L73.83 112.383L77.5017 112.381C75.9211 110.42 75.0344 108.854 75.0344 108.854C75.0344 108.854 76.9738 111.237 84.0186 112.381H84.0435C84.0354 112.38 84.0267 112.379 84.0186 112.377L100.248 112.38L116.478 112.377C116.068 111.088 115.767 110.138 115.767 110.138C126.105 107.752 128.538 105.157 128.538 105.157C128.538 105.157 127.717 109.573 125.88 112.381L132.245 112.379C131.228 111.099 130.048 109.855 128.682 108.718C131.717 109.075 135.608 111.058 137.924 112.381L139.381 112.379C137.87 109.207 133.11 100.578 124.344 96.3222C128.593 91.8953 133.697 89.8937 137.11 89.0013C133.904 88.0331 130.791 85.9714 127.535 85.774C121.816 85.4273 116.672 88.3592 116.672 88.3592C113.213 85.4427 110.036 84.7129 107.637 84.7472L107.637 84.7477ZM137.924 112.382C139.137 113.074 139.918 113.585 139.918 113.585C139.918 113.585 139.742 113.138 139.381 112.382H137.924ZM125.88 112.381C125.546 112.893 125.177 113.352 124.774 113.721C122.567 115.739 119.63 115.568 119.63 115.568L120.461 119.018C124.567 119.493 128.999 121.654 131.441 127.987C132.734 127.929 134.174 127.909 135.747 127.947C135.386 126.285 134.899 124.611 134.256 122.963C136.64 123.37 138.252 125.438 138.252 125.438C138.252 125.438 137.112 118.5 132.246 112.382H125.88L125.88 112.381ZM100.248 112.38L84.0435 112.381C87.2139 112.892 91.4147 113.153 96.9358 112.832L99.2855 120.765C99.2855 120.765 105.186 118.938 107.762 125.439C110.419 124.732 115.608 123.86 119.25 124.728C119.572 119.447 115.17 118.125 115.17 118.125C116.61 118.057 117.729 118.412 118.597 119.003C118.249 117.943 117.196 114.639 116.478 112.382L100.248 112.38L100.248 112.38ZM77.5017 112.381C77.5023 112.382 77.5028 112.384 77.5039 112.384L73.83 112.383L68.9305 112.385C60.8873 117.579 57.0621 123.916 55.2436 128.833C69.9138 125.099 81.2119 125.349 88.9896 126.616C91.5854 124.14 94.1525 122.6 96.4464 121.618C96.4198 121.618 95.5227 119.13 95.5227 119.13C95.5227 119.13 92.9248 120.707 88.4248 119.893C83.682 119.034 79.8368 115.279 77.5039 112.382H77.5017V112.381ZM108.492 113.059C111.324 113.038 113.978 113.95 115.238 115.027C110.321 114.922 105.58 115.152 100.687 116.681C102.653 114.032 105.66 113.08 108.492 113.059ZM120.329 120.933C121.577 123.106 121.612 125.743 121.612 125.743C120.77 127.986 119.656 129.691 118.554 130.961L123.519 130.96C123.576 130.545 123.619 130.132 123.651 129.721L123.745 128.94C123.745 128.94 125.163 128.566 127.752 128.272C126.989 125.958 125.082 122.515 120.33 120.933H120.329ZM101.395 122.75C100.361 122.739 99.1289 123.097 97.6708 124.017C93.4836 126.657 93.0912 127.44 93.0912 127.44C98.7852 128.814 101.685 130.539 101.685 130.539C101.655 130.68 101.627 130.821 101.602 130.961L108.746 130.96C107.797 129.948 106.889 128.845 106.045 127.673C105.803 126.15 104.495 122.785 101.395 122.75ZM108.747 130.961L101.602 130.963C101.104 133.754 101.417 136.456 102.41 138.687C98.4259 138.724 94.501 138.896 90.6498 139.197C91.0136 141.62 93.1378 142.292 93.1378 142.292C100.092 138.731 112.101 137.019 112.101 137.019L112.495 134.283C111.203 133.354 109.945 132.233 108.756 130.968L108.747 130.961ZM123.519 130.961C123.338 132.28 123.02 133.619 122.508 134.947C121.862 136.625 122.084 136.902 121.024 138.187C123.099 138.38 124.975 138.676 126.999 138.948C126.668 139.346 125.486 140.739 124.918 141.124L114.343 137.427V134.273C114.343 134.273 116.426 133.425 118.554 130.964L123.519 130.961ZM87.6567 139.458C83.1589 139.891 78.7684 140.5 74.5086 141.27C73.8592 141.403 73.2045 141.542 72.5437 141.689C71.6938 145.11 72.3036 147.751 73.1324 149.54L75.5292 149.538C76.1667 147.287 77.6161 144.236 80.8959 142.7C80.7729 146.18 82.0738 148.279 83.5823 149.54H86.9429C86.9423 149.541 86.9423 149.542 86.9418 149.544H86.944C87.0702 148.836 87.318 147.949 87.7944 146.973C87.8448 147.864 87.9153 148.72 88.0058 149.54C89.6509 164.451 97.6882 168.092 104.143 167.628C110.938 167.138 113.338 161.404 113.338 161.404C113.338 161.404 111.814 159.963 106.383 159.963C103.19 159.963 102.189 161.404 100.666 161.947C99.1424 162.49 97.1884 162.083 95.0913 160.098C92.8299 157.96 91.9637 153.027 91.4542 149.54C91.2282 147.995 91.0721 146.735 90.8959 146.126C90.4184 144.475 88.3413 140.685 87.6567 139.458ZM86.9418 149.544L83.5833 149.54C84.72 150.49 85.9753 150.964 86.829 151.197C86.829 151.197 86.7618 150.557 86.9418 149.544ZM130.217 139.54C132.377 139.887 134.445 140.689 136.537 141.122C136.2 144.851 135.492 147.703 135.492 147.703C135.492 147.703 133.969 143.327 131.585 142.565C132.428 145.449 132.341 147.759 131.876 149.54H131.875C131.025 152.795 128.913 154.282 128.913 154.282C128.913 154.282 129.006 152.035 128.451 149.54L130.734 149.54L128.452 149.539C128.029 147.633 127.229 145.584 125.723 144.278C128.59 142.707 129.642 141.123 130.217 139.54V139.54ZM130.734 149.539L131.875 149.54C131.875 149.54 131.875 149.54 131.875 149.539H130.734ZM67.4318 142.949C66.2231 143.275 65.0029 143.624 63.7763 143.999C64.6587 146.943 66.1369 148.875 66.1369 148.875C66.1369 148.875 66.0182 145.914 67.4318 142.949ZM75.5401 149.544L73.1432 149.546C73.9817 151.359 75.0457 152.301 75.0457 152.301C75.0457 152.301 75.094 151.118 75.5401 149.544Z" fill="#E4BB85"/>
<path fill-rule="evenodd" clip-rule="evenodd" d="M119.864 110.834L122.105 110.019C122.105 110.019 122.248 113.366 119.864 114.124C120.151 112.74 119.864 110.834 119.864 110.834ZM91.7596 114.886L89 114.531C89 114.531 89.6626 117.685 93.4271 118.583C92.3342 116.87 91.7596 114.886 91.7596 114.886ZM120.868 141.798L113.053 138.508C103.203 139.952 99.2885 142.152 99.2885 142.152C99.2885 142.152 97.8873 145.242 102.344 147.832C102.344 147.832 102.284 142.797 104.168 141.128L106.155 142.347L107.819 140.163L109.805 141.331L111.361 139.554L113.401 140.925L115.172 140.113C115.172 140.113 118.661 141.839 117.427 146.359C120.863 144.632 120.868 141.798 120.868 141.798ZM110.58 156.126C114.919 154.141 114.636 148.187 114.636 148.187C118.394 155.806 113.34 159.06 113.34 159.06C113.34 159.06 109.576 157.974 106.243 158.11C102.909 158.246 99.9505 160.094 99.9505 160.094C99.9505 160.094 94.1304 158.853 97.6732 147.984C97.6732 147.984 97.762 155.161 101.904 156.804L103.052 154.82L104.289 156.397L105.668 154.277L107.186 155.989L109.002 154.006L110.58 156.126Z" fill="white"/>
</svg>
