<svg width="200" height="200" viewBox="0 0 200 200" fill="none" xmlns="http://www.w3.org/2000/svg">
<path fill-rule="evenodd" clip-rule="evenodd" d="M124.158 63.5469L100.555 64.9627L93.3687 118.576L117.86 117.107L119.151 107.48L106.943 108.212L108.739 94.8095L119.247 94.1795L120.476 84.9961L109.969 85.6277L111.19 76.7283L106.506 74.1435L111.578 73.8382L122.869 73.1741L124.158 63.5469ZM40.1288 64.3003L4.48828 74.4643L4.84874 86.1058L15.2369 83.1443L16.8849 136.336L31.7509 132.097L30.1938 81.8488L24.9283 80.3793L30.1029 78.9034L40.4895 75.9419L40.1288 64.3003ZM130.786 64.8685L119.548 117.451L135.236 117.508C146.493 117.55 150.564 115.168 154.258 97.8828L157.067 84.7377C160.761 67.4526 157.731 64.969 146.474 64.9275L130.786 64.8685ZM84.0617 66.0295L71.5836 68.1955L68.8218 121.885L92.1454 118.795L92.6633 108.999L81.8365 110.295L76.6636 111.039L81.9908 107.355L84.0617 66.0295ZM177.215 67.3089C170.16 67.2713 165.63 69.6202 163.454 76.6076L153.423 108.821C150.745 117.42 155.581 120.366 165.711 121.62C175.842 122.873 182.084 121.3 184.762 112.7L194.793 80.4884C197.471 71.8885 192.635 68.9436 182.505 67.6893C180.606 67.4541 178.843 67.3176 177.215 67.3089ZM59.2823 70.8957C57.0103 70.8843 54.2531 71.3428 51.0422 72.1378C40.7671 74.6826 35.1495 78.3652 35.1495 87.0869V119.76C35.1495 128.483 40.7669 129.383 51.0422 126.839C61.3172 124.294 66.9359 120.612 66.9359 111.89V79.2169C66.9359 73.2201 64.2807 70.9208 59.2823 70.8957ZM135.91 73.9011L140.925 73.919L144.109 73.9303C146.724 73.9407 147.055 75.1052 146.217 79.027L141.096 102.994C140.257 106.915 139.429 108.075 136.814 108.066L133.619 108.053L140.282 76.7541L135.91 73.9011ZM171.639 75.7358L179.685 76.7327C181.946 77.0122 182.663 77.6238 182.049 79.592L172.426 110.494C171.813 112.461 170.781 112.863 168.521 112.584C166.262 112.304 165.546 111.686 166.159 109.718L175.675 79.1588L171.639 75.7358ZM52.5112 81.0582C53.7274 80.9945 54.2258 81.5329 54.2258 83.0293V114.372C54.2258 116.368 53.338 117.106 51.0467 117.673C48.7553 118.24 47.8692 117.94 47.8692 115.945V84.9508L42.8862 83.3288L51.0467 81.3089C51.6195 81.1671 52.1058 81.0794 52.5112 81.0582Z" fill="#FFCE00"/>
<path fill-rule="evenodd" clip-rule="evenodd" d="M16.4198 136.973L32.2464 132.459L30.6666 81.4784L26.7117 80.3747L30.2354 79.3697L38.9922 76.8729C38.9698 76.892 38.9475 76.9112 38.9253 76.9304C36.1171 79.3629 34.6649 82.6046 34.6649 87.0874V119.76C34.6649 121.987 35.0224 123.767 35.7614 125.135C36.5077 126.515 37.6259 127.442 39.0739 127.979C40.5076 128.511 42.2497 128.656 44.2574 128.516C46.2682 128.376 48.576 127.949 51.1583 127.309C56.3134 126.033 60.3802 124.454 63.159 122.048C65.9675 119.615 67.4199 116.373 67.4199 111.89V79.2174C67.4199 76.1591 66.7443 73.9363 65.3307 72.4801C63.9142 71.0207 61.8481 70.4247 59.2844 70.4118C56.953 70.4001 54.1504 70.8697 50.9255 71.6681C46.9119 72.6621 43.5582 73.8393 40.9584 75.4477L40.5934 63.6645L3.99219 74.1025L4.38356 86.7425L14.7718 83.7809L16.4198 136.973ZM39.9934 75.5801L29.9698 78.4381L23.1443 80.3849L29.7205 82.2201L31.2548 131.735L17.3495 135.7L15.7015 82.5086L5.31334 85.4701L4.98379 74.8271L39.6636 64.937L39.9934 75.5801ZM36.6136 124.674C35.9782 123.498 35.6336 121.895 35.6336 119.76V87.0874C35.6336 82.8485 36.9902 79.8881 39.5595 77.6626C42.1586 75.4114 46.0385 73.8764 51.1583 72.6084C54.3553 71.8169 57.067 71.3694 59.2796 71.3805C61.7142 71.3928 63.4749 71.959 64.6356 73.1548C65.7993 74.3536 66.4512 76.2789 66.4512 79.2174V111.89C66.4512 116.129 65.0944 119.09 62.5248 121.315C59.9255 123.566 56.0454 125.101 50.9255 126.369C48.3701 127.002 46.1226 127.415 44.1902 127.55C42.2547 127.684 40.6658 127.536 39.4108 127.071C38.1701 126.611 37.2417 125.836 36.6136 124.674ZM177.845 120.408C174.805 121.67 170.817 121.764 165.77 121.14C160.706 120.513 157.108 119.473 155.092 117.619C154.101 116.708 153.485 115.593 153.267 114.198C153.047 112.791 153.229 111.073 153.885 108.966L163.916 76.7521C164.98 73.3383 166.598 71.1126 168.765 69.7329C170.941 68.3467 173.732 67.7752 177.212 67.7938C178.815 67.8023 180.559 67.9369 182.445 68.1705C187.51 68.7975 191.108 69.8373 193.124 71.6913C194.115 72.6022 194.73 73.717 194.948 75.112C195.168 76.5194 194.986 78.2373 194.33 80.3449L184.299 112.556C182.993 116.749 180.848 119.162 177.845 120.408ZM178.217 121.303C181.538 119.925 183.852 117.251 185.224 112.844L195.255 80.6329C195.938 78.4405 196.156 76.5654 195.905 74.9626C195.653 73.3476 194.929 72.0352 193.78 70.9782C191.515 68.8961 187.63 67.8363 182.564 67.2091C180.652 66.9724 178.869 66.8339 177.217 66.8251C173.642 66.806 170.64 67.3901 168.244 68.9159C165.838 70.4481 164.104 72.8906 162.992 76.4641L152.961 108.678C152.278 110.87 152.06 112.745 152.31 114.347C152.562 115.962 153.286 117.275 154.436 118.332C156.7 120.414 160.585 121.474 165.651 122.101C170.736 122.73 174.934 122.665 178.217 121.303ZM68.3079 122.442L92.6075 119.223L93.1771 108.451L81.7673 109.816L78.6316 110.267L82.4623 107.618L84.5755 65.4491L71.1195 67.7849L68.3079 122.442ZM69.3352 121.329L72.0472 68.607L83.5473 66.6108L81.5187 107.093L76.3878 110.641L76.7322 111.519L81.8995 110.776L92.149 109.549L91.6827 118.368L69.3352 121.329ZM92.8102 119.095L118.287 117.567L119.709 106.962L107.501 107.694L109.166 95.2696L119.674 94.6396L121.034 84.4778L110.529 85.1093L111.715 76.4653L108.202 74.5271L111.606 74.3222L123.296 73.6347L124.716 63.0287L100.128 64.5036L92.8102 119.095ZM93.9266 118.058L100.982 65.4228L123.6 64.0661L122.442 72.7145L111.549 73.3552L104.809 73.7609L110.665 76.9923L109.409 86.1471L119.917 85.5153L118.819 93.7204L108.312 94.3504L106.385 108.732L118.593 107.999L117.433 116.648L93.9266 118.058ZM49.6077 118.407C50.0581 118.384 50.5776 118.288 51.1628 118.144C52.3218 117.857 53.2288 117.506 53.8365 116.902C54.4699 116.273 54.7099 115.443 54.7099 114.372V83.0298C54.7099 82.2537 54.5862 81.5909 54.1876 81.1389C53.7677 80.6626 53.1554 80.5399 52.4856 80.575C52.0357 80.5985 51.5155 80.6943 50.93 80.8393C50.93 80.8393 50.93 80.8393 50.93 80.8393L41.1262 83.2659L47.3845 85.303V115.946C47.3845 116.975 47.6076 117.818 48.3821 118.204C48.7401 118.383 49.1597 118.43 49.6077 118.407ZM48.8146 117.337C48.5732 117.217 48.3532 116.912 48.3532 115.946V84.5996L44.6455 83.3927L51.1627 81.7796C51.7229 81.6409 52.1752 81.5613 52.5363 81.5424C53.0827 81.5137 53.3277 81.6284 53.461 81.7796C53.6156 81.9549 53.7412 82.3095 53.7412 83.0298V114.372C53.7412 115.298 53.5373 115.834 53.1539 116.215C52.7448 116.621 52.0623 116.923 50.93 117.203C50.3695 117.342 49.919 117.421 49.5588 117.44C49.1961 117.458 48.9646 117.412 48.8146 117.337ZM147.249 113.843C144.512 116.451 140.858 117.045 135.238 117.024L120.146 116.97L131.177 65.3549L146.472 65.4123C149.279 65.4227 151.523 65.5864 153.266 66.0764C154.993 66.562 156.193 67.3579 156.963 68.6193C157.745 69.8987 158.127 71.7227 158.069 74.3457C158.01 76.9645 157.514 80.3258 156.593 84.637L153.784 97.7821C151.936 106.428 150.016 111.205 147.249 113.843ZM147.917 114.544C150.923 111.68 152.885 106.624 154.731 97.9845L157.54 84.8394C158.466 80.5079 158.977 77.0769 159.037 74.3673C159.098 71.6619 158.711 69.6215 157.79 68.1142C156.858 66.5889 155.42 65.6757 153.528 65.1438C151.652 64.6163 149.297 64.454 146.475 64.4436L130.394 64.3832L118.95 117.934L135.234 117.993C140.872 118.014 144.881 117.437 147.917 114.544ZM171.309 112.814C172.093 112.418 172.563 111.681 172.888 110.639L182.512 79.7365C182.827 78.7227 182.873 77.8461 182.307 77.2081C182.038 76.9056 181.67 76.7051 181.25 76.5625C180.829 76.4197 180.323 76.3241 179.745 76.2525L170.087 75.0561L175.117 79.3213L165.696 109.574C165.38 110.589 165.335 111.466 165.9 112.105C166.168 112.409 166.536 112.61 166.956 112.754C167.377 112.897 167.883 112.993 168.461 113.065C169.606 113.206 170.555 113.195 171.309 112.814ZM170.873 111.949C170.393 112.192 169.696 112.241 168.58 112.103C168.03 112.035 167.599 111.949 167.269 111.837C166.939 111.724 166.742 111.596 166.626 111.464C166.421 111.232 166.324 110.816 166.621 109.862L176.232 78.9972L173.189 76.4165L179.626 77.2139C180.177 77.2821 180.608 77.3677 180.939 77.4798C181.269 77.5919 181.466 77.7197 181.582 77.8512C181.786 78.0808 181.884 78.4941 181.587 79.4484L171.963 110.35C171.675 111.275 171.323 111.722 170.873 111.949ZM139.995 107.312C140.717 106.431 141.151 105.049 141.569 103.096L146.69 79.1287C146.901 78.1411 147.043 77.3067 147.092 76.6117C147.14 75.9221 147.099 75.3253 146.909 74.8365C146.709 74.3237 146.356 73.9603 145.856 73.7376C145.38 73.5253 144.79 73.4491 144.111 73.4464L134.272 73.4114L139.739 76.9786L133.021 108.535L136.812 108.551C138.197 108.556 139.228 108.247 139.995 107.312ZM136.816 107.582C138.046 107.587 138.736 107.32 139.246 106.697C139.801 106.02 140.201 104.861 140.622 102.893L145.743 78.9262C145.951 77.9529 146.082 77.1711 146.125 76.5444C146.169 75.9123 146.121 75.4821 146.006 75.1882C145.901 74.9184 145.734 74.7436 145.462 74.6224C145.167 74.4909 144.735 74.4176 144.107 74.4151C144.107 74.4151 144.107 74.4151 144.107 74.4151L137.547 74.3918L140.825 76.5304L134.216 107.572L136.816 107.582Z" fill="#002569"/>
</svg>
