<svg width="200" height="200" viewBox="0 0 200 200" fill="none" xmlns="http://www.w3.org/2000/svg">
<g clip-path="url(#clip0_107_20179)">
<path d="M9.4777 27.6953V76.6186H20.9917L26.6489 103.881C25.2296 105.056 24.053 106.049 22.9153 107.029L20.1283 107.079L18.9335 107.993C16.2642 110.043 13.0299 114.043 10.218 117.684L8.85938 119.448L9.41763 121.603C9.522 122.005 10.0663 124.017 11.0062 126.098C10.8679 126.428 10.7714 126.672 10.7332 126.769L9.70465 129.418L11.6409 131.513C11.7132 131.591 12.1033 132.039 12.7326 133.252L13.3315 134.406L13.9347 135.922C14.3145 136.871 14.6713 137.871 14.9407 138.736L15.6907 141.142L18.1367 141.785C18.3261 141.835 18.8121 141.982 19.4644 142.18L19.7369 142.263C25.6107 144.047 27.55 144.547 28.757 144.595L29.9851 144.642L31.0525 144.074C32.1963 143.472 33.3608 142.833 34.5847 142.137L40.8456 172.309H96.5384L98.8139 163.767L101.087 172.309H156.781L161.732 148.444C178.918 148.244 200.001 143.334 200.001 143.334C200.001 143.334 181.162 134.154 173.046 122.993C180.967 120.239 188.73 111.84 188.73 111.84C188.73 111.84 176.378 113.47 170.082 108.209L176.636 76.6192H188.15V27.6959H9.4777V27.6953Z" fill="#A9A8A9"/>
<path d="M13.6144 31.832V72.484H24.359L31.2068 105.486C29.0035 107.293 26.8639 109.063 24.5047 111.129C23.3433 111.161 21.7019 111.188 21.7019 111.188L21.5641 111.19L21.4555 111.274C18.8481 113.276 15.0987 118.135 13.4961 120.209L13.3711 120.369L13.4221 120.566C13.4579 120.703 14.2795 123.837 15.6114 125.992C15.0713 127.029 14.6102 128.214 14.5895 128.267L14.4961 128.507L14.6727 128.699C15.2133 129.282 15.7965 130.174 16.4075 131.351L16.5119 131.552L18.6393 131.757L18.9227 133.239L17.6509 134.071L17.7765 134.387C18.1964 135.438 18.5914 136.545 18.8893 137.506L18.9597 137.725L19.1824 137.784C19.4197 137.846 20.0738 138.044 20.9397 138.307C24.4658 139.378 27.9871 140.428 28.9191 140.464L29.0296 140.467L29.1291 140.415C31.9762 138.917 34.7244 137.303 37.4617 135.637L44.2123 168.174H93.3644L98.8159 147.694L104.268 168.174H153.42L158.369 144.317C158.716 144.32 159.054 144.33 159.405 144.33C168.362 144.33 177.344 143.448 186.857 141.634L187.986 141.417L186.981 140.861C182.011 138.114 178.625 134.959 175.585 131.967C173.096 129.456 170.876 126.83 168.918 124.513C167.623 122.984 166.39 121.526 165.218 120.263C166.677 120.242 173.65 119.552 179.305 115.64C176.139 116.213 172.831 115.038 169.104 112.706C167.859 111.696 166.664 110.759 165.514 109.879L173.272 72.4846H184.017V31.8326H123.227V48.8752L118.089 31.8326H79.5323L74.3982 48.9153V31.8326H13.609L13.6144 31.832Z" fill="#231F20"/>
<path d="M21.2506 39.4688V64.8451H30.5717L36.7677 94.7088C39.2513 93.1499 42.4085 91.6348 45.269 90.2683C45.7071 90.0589 46.1373 89.8526 46.5524 89.6542C45.9808 88.8908 44.1828 86.1808 45.3011 83.5813C46.4704 80.8622 50.4092 79.2742 57.0069 78.861C58.2624 78.1887 59.6216 77.6201 61.0646 77.145L58.6562 64.8451H66.7612V39.4688H21.25H21.2506ZM85.2134 39.4688L74.7364 74.3288C76.7486 73.6735 78.4846 72.7445 80.3184 71.2614L81.2468 70.5102L80.9846 71.6753C80.9671 71.7493 80.6479 73.1219 79.484 74.54C81.7632 73.9951 83.7887 73.9411 85.8221 73.9411L86.7335 73.9423C89.7214 73.9423 92.2317 73.8039 95.0746 72.0618L95.6225 71.7263L95.7038 72.364C96.1183 75.5843 95.1631 77.5691 94.1704 78.7257C97.0564 77.9593 101.996 76.9441 106.959 76.9441C108.031 76.9441 109.066 76.9933 110.032 77.0892C113.066 77.3926 116.345 78.3671 119.816 79.4011C121.492 79.9005 123.19 80.4053 124.892 80.8434L112.586 40.041L112.413 39.4688H85.2134ZM130.867 39.4688V64.8451H139.163L135.722 82.1462C136.916 82.1305 138.066 82.0467 139.102 81.7184C137.757 82.8222 136.479 83.8277 135.216 84.6905L134.546 88.0625C135.247 88.3016 136.314 88.8295 137.711 89.5225C141.759 91.5286 148.537 94.889 154.323 94.889C156.997 94.8884 159.51 94.4176 161.215 92.9916L167.055 64.8451H176.377V39.4688H130.866H130.867ZM71.4688 77.7542C71.1163 77.912 70.7558 78.0625 70.3936 78.2081C70.288 78.2506 70.1812 78.2894 70.075 78.3313C69.8134 78.4338 69.5525 78.5358 69.2892 78.6335C69.2279 78.6571 69.166 78.6796 69.1047 78.7026C68.1733 79.0473 67.2461 79.3725 66.3632 79.7051C66.2879 79.7336 66.2097 79.7615 66.1344 79.79C65.9142 79.8738 65.7042 79.9605 65.4906 80.0461C65.3686 80.0959 65.2424 80.1438 65.1223 80.1942C64.9366 80.2718 64.7606 80.3531 64.5828 80.4338C64.4475 80.4951 64.3092 80.5558 64.1787 80.6189C64.0203 80.6954 63.8729 80.7749 63.7224 80.8544C63.5549 80.9436 63.3826 81.0297 63.226 81.1226C61.0749 82.3999 59.7272 85.7694 59.7272 85.7694C63.8104 84.0771 66.831 83.4952 66.831 83.4952C66.8474 80.2421 71.4688 77.7542 71.4688 77.7542ZM106.988 81.8883C106.721 81.8902 106.453 81.8962 106.183 81.9096C99.7694 82.2178 95.5284 83.2106 90.5581 85.1044C90.4726 85.088 90.3931 85.0728 90.3094 85.0571C92.4459 85.466 95.0588 86.0577 96.2372 86.3301C105.368 82.7269 113.285 84.6687 115.83 85.4339C112.558 85.7464 106.667 87.0261 103.772 88.4303C107.975 89.7591 110.976 91.2974 114.799 93.102C126.286 91.1081 133.425 94.9157 133.404 94.9412C129.577 94.5304 125.671 95.1833 121.928 96.6482C121.922 96.6937 121.915 96.7404 121.907 96.7865C123.018 97.559 123.936 98.2143 124.794 98.8478C125.18 98.7422 126.696 98.3654 129.13 98.2325C128.784 98.244 128.438 98.2562 128.12 98.2823C128.123 98.2647 128.125 98.2465 128.128 98.2289C136.604 94.6694 143.242 99.9758 151.279 97.0547C144.926 97.5735 139.701 94.4121 136.47 92.852C132.551 90.9618 123.438 88.1681 111.149 91.2082C110.548 90.9564 109.533 90.4467 108.684 90.1639C108.684 90.1639 110.913 89.2992 114.711 88.7227C113.808 88.8283 112.894 88.9527 111.956 89.1184C118.207 86.676 124.68 87.2877 130.526 83.9927C122.043 86.8477 115.251 81.8271 106.988 81.8883ZM88.8518 84.7961C88.9107 84.8064 88.9683 84.8155 89.0296 84.8259C88.9671 84.8155 88.9107 84.8064 88.8518 84.7961ZM89.6576 84.9351C89.7602 84.9539 89.8664 84.9745 89.9726 84.9946C89.8676 84.9745 89.7602 84.9539 89.6576 84.9351ZM161.199 93.0711C158.219 97.6372 153.29 99.6045 150.978 100.15C152.335 100.922 155.031 102.476 158.728 104.98L161.199 93.0711ZM141.135 93.4145C142.865 94.2216 144.592 94.9989 146.333 95.6512C144.762 95.0183 143.035 94.2349 141.135 93.4145ZM129.474 98.2167C129.426 98.2173 129.384 98.221 129.336 98.2228C129.381 98.2204 129.429 98.2186 129.474 98.2167ZM130.62 100.283C129.402 100.31 128.208 100.404 127.04 100.564C127.927 101.267 128.857 102.029 129.978 102.96C138.636 102.362 148.242 105.031 153.991 110.508C148.994 108.934 141.381 108.395 137.787 109.685C138.791 110.827 139.465 111.5 140.179 112.17C140.197 112.16 141.191 111.68 143.362 111.871C142.85 111.799 142.336 111.741 141.819 111.703C147.782 110.193 154.825 112.418 158.982 114.253C163.142 116.093 166.881 117.926 171.495 116.822C166.122 115.606 161.148 112.254 158.253 110.13C148.774 103.172 139.142 100.09 130.62 100.283ZM152.917 104.524C154.691 105.571 156.33 106.688 157.887 107.824C157.881 107.819 157.877 107.816 157.873 107.812C156.312 106.581 154.641 105.497 152.917 104.524ZM148.137 113.021C150.534 113.898 153.517 115.369 157.158 117.797C157.492 118.019 157.803 118.253 158.121 118.482C155.229 116.233 151.826 114.263 148.137 113.021ZM141.826 113.694C142.076 113.927 142.342 114.18 142.64 114.466C152.379 116.902 159.548 126.859 164.074 129.478C161.334 128.908 153.395 125.669 150.771 123.651C152.626 125.24 154.389 126.807 156.401 128.095C162.403 131.926 168.619 134.997 175.946 136.452C168.511 133.929 158.253 114.213 142.021 113.864C142.021 113.864 141.947 113.801 141.826 113.693V113.694ZM55.1629 123.949C50.6191 125.304 47.0809 126.772 43.8127 128.648L50.4292 160.541H87.495L92.5151 141.681C83.3912 142.822 73.8948 144.924 63.513 148.074L62.942 148.249C62.942 148.249 74.376 138.171 75.5629 134.153C76.9106 129.597 73.6691 126.966 72.4312 126.154C70.9852 126.385 69.5186 126.502 68.0713 126.502C63.2424 126.502 58.8807 125.192 55.1629 123.949ZM108.861 140.648C107.53 140.648 106.198 140.677 104.863 140.719L110.14 160.541H147.204L150.623 144.06C144.741 143.715 139.211 143.091 133.813 142.474C125.961 141.577 117.842 140.649 108.861 140.649V140.648Z" fill="#6C4023"/>
<path d="M57.0141 98.25C56.5566 98.5103 56.1124 98.7712 55.6513 99.0486C55.8054 99.2743 55.8794 99.5407 55.8454 99.8441C55.7417 100.597 55.0469 101.177 54.2301 101.192C53.735 101.189 53.3418 100.973 53.11 100.627C52.6294 100.936 52.1992 101.217 51.7969 101.483C52.2793 102.166 53.073 102.593 54.0699 102.6C55.735 102.569 57.1519 101.383 57.3697 99.8416C57.4389 99.2385 57.3066 98.7081 57.0141 98.25Z" fill="#A9A8A9"/>
<path d="M17.8984 36.125V68.192L21.2431 64.8473V39.4697H66.7544V64.8473L70.0984 68.192V36.125H17.8984ZM82.7169 36.125L70.9625 75.2327C72.3527 74.9875 73.5857 74.7023 74.7277 74.331L85.2059 39.4697H112.405L112.577 40.0419L124.883 80.8444C126.13 81.1654 127.38 81.4463 128.626 81.6672L114.89 36.125H82.7169ZM127.512 36.1274V68.1944L130.858 64.8497V39.4721H176.369V64.8497L179.713 68.1944V36.1274H127.512ZM139.154 64.8461L135.078 68.1908L132.312 82.0974C132.72 82.1186 133.129 82.1411 133.535 82.1411C134.267 82.1411 134.998 82.1557 135.714 82.146L139.154 64.8461ZM30.5611 64.8473L27.8403 68.192L27.8852 68.4086L34.938 102.406C35.1728 102.212 35.3992 102.026 35.6395 101.826C34.8876 98.7231 34.9817 96.2134 34.9865 96.1054L34.9944 95.9076L35.1534 95.7893C35.6395 95.4276 36.1862 95.0672 36.7572 94.7091L30.5648 64.8461L30.5611 64.8473ZM58.6457 64.8473L61.0541 77.1459C62.0893 76.8055 63.167 76.5118 64.292 76.2733L62.7137 68.1902L58.6499 64.8473H58.6457ZM167.045 64.8497L161.205 92.9937C161.23 92.9731 161.259 92.9567 161.284 92.9355C161.253 92.9834 161.219 93.0271 161.189 93.0744L158.716 104.983C159.648 105.614 160.648 106.311 161.702 107.066L169.768 68.1938L167.045 64.8497ZM93.3304 75.2873C88.9499 78.024 77.357 74.4554 71.1476 81.936C69.4212 83.8444 70.5032 85.8311 71.3418 87.3887C67.954 88.1988 63.0838 89.3845 60.8769 90.0969C62.8502 88.6424 65.0377 87.7413 67.0408 86.2855C67.0408 86.2855 66.8745 85.8766 66.8369 85.6144C60.8205 87.45 51.128 93.3372 46.3762 96.288C46.7008 95.109 47.0673 93.0975 47.4824 92.1733C45.4545 93.1994 40.4344 97.5302 40.4344 97.5302L38.6516 97.0029C38.6516 97.0029 38.5017 98.6843 38.9465 100.313C40.7135 99.1418 44.3549 97.5101 44.3549 97.5101L27.9106 113.459L25.2577 113.788L22.3815 117.059C23.7019 116.821 25.1831 116.82 26.2917 116.757C26.2917 116.757 21.731 120.619 22.7359 123.319C23.0617 123.936 23.6521 124.325 24.3311 124.517C26.0775 124.875 29.7923 123.098 31.0521 121.674C30.8494 122.664 30.4173 123.512 29.8821 124.375C33.0217 122.021 34.8549 118.582 34.935 114.822C34.4695 113.751 32.8816 114.298 31.6425 114.262C33.0357 113.524 36.7681 111.922 38.6383 111.522C38.6383 111.522 39.0406 112.38 39.1868 113.667C42.3361 111.538 44.9138 110.498 44.9138 110.498C44.9138 110.498 45.4017 111.113 45.4265 112.322C45.4265 112.322 44.2415 113.56 43.074 115.6C46.4296 113.643 48.9175 112.116 52.074 110.4C52.2403 109.168 51.4126 108.294 51.4126 108.294C53.3653 107.22 58.227 104.713 60.1736 103.675C61.3751 104.116 64.8423 104.987 64.8423 104.987C62.7895 106.578 61.2677 108.263 61.0614 110.168C60.5231 112.774 61.335 114.814 63.2683 116.326C65.7622 117.981 70.2356 118.221 74.0639 116.907C80.4911 113.385 81.3892 102.464 77.6749 97.1867C78.5481 96.9737 80.2005 96.8014 80.2005 96.8014C81.7314 96.6254 83.4754 96.7243 83.4754 96.7243C84.5354 98.18 85.6841 101.361 85.6841 101.361C99.487 101.72 116.993 112.996 125.743 124.714C138.757 142.141 168.648 139.05 168.648 139.05C168.648 139.05 168.514 139 168.273 138.904C137.757 129.032 140.598 113.39 109.471 96.6637C88.1599 85.2151 73.6343 87.0896 72.6998 87.2249C72.6834 87.2279 72.667 87.2291 72.65 87.2322C74.0244 86.4834 76.9377 84.3195 78.1683 83.129C78.3764 78.0604 92.9487 80.5337 93.3322 75.2806L93.3304 75.2873ZM38.6534 97.0041C39.1474 96.5793 39.7754 96.14 40.4653 95.7085C39.6723 96.1746 39.0236 96.6181 38.6534 97.0041ZM53.1408 81.9797C45.4241 83.2279 48.8386 87.9421 48.8386 87.9421L48.9156 87.9858C49.9138 85.5707 51.3738 83.5889 53.1408 81.9797ZM135.211 84.6957C133.934 85.5677 132.675 86.2813 131.386 86.7795L131.301 87.2097C132.285 87.4864 133.417 87.7934 134.175 87.9585C134.281 87.9822 134.407 88.021 134.541 88.0665L135.211 84.6957ZM58.8083 95.3712C59.7112 95.3305 61.7804 95.8014 61.7804 95.8014C61.7804 95.8014 62.3812 100.38 58.3119 102.596C56.8344 103.4 55.5419 104.195 52.4867 104.688C47.4077 105.509 42.9259 103.115 42.9259 103.115C46.1389 102.895 48.29 101.473 48.29 101.473C48.29 101.473 48.301 101.462 48.321 101.445C50.9587 99.3166 56.9278 96.0532 58.5025 95.4234C58.5741 95.3936 58.6797 95.3772 58.8083 95.3712ZM86.4299 114.113C86.4299 114.113 85.6289 117.67 83.1173 119.776C89.5707 123.14 92.6538 128.455 93.4493 131.141C94.2442 133.831 93.0804 136.416 92.2545 136.916C94.5968 136.616 102.019 135.671 104.355 135.373C106.366 134.969 106.628 133.382 106.363 132.515C105.234 128.65 97.544 117.608 86.4293 114.113H86.4299ZM31.6673 116.584C31.8979 116.585 31.9817 116.837 31.8524 117.253C31.1394 119.323 29.6734 121.767 27.1782 122.419C26.66 122.478 25.6746 122.59 25.6066 122.03C25.4404 120.059 27.7298 119.545 29.0514 118.541C29.117 118.479 29.1922 118.409 29.2565 118.347C28.7577 118.072 27.8221 118.38 27.2347 118.4C28.4325 117.281 29.9052 116.59 31.6673 116.584ZM43.3519 118.148C40.2815 118.939 36.7208 121.424 36.7208 121.424C39.3931 120.652 40.9751 120.26 41.9757 120.956C42.9757 121.651 42.145 124.806 42.145 124.806C42.6535 123.362 45.5928 119.543 45.5928 119.543C44.9878 118.871 43.3519 118.148 43.3519 118.148ZM43.8009 128.649C43.6243 128.75 43.4441 128.848 43.2688 128.952C43.0922 129.515 42.4605 131.47 41.7863 132.888L41.7354 132.999L41.631 133.063C41.5339 133.124 41.4374 133.184 41.3397 133.245L47.6972 163.886L50.4181 160.541L43.8015 128.648L43.8009 128.649ZM104.851 140.721C103.713 140.756 102.574 140.804 101.43 140.87L107.557 163.886L110.129 160.543L104.851 140.721ZM96.0701 141.288C94.8868 141.405 93.6993 141.534 92.5039 141.683L87.4839 160.542L90.0543 163.886L96.0701 141.288ZM150.614 144.057L147.194 160.538L149.917 163.883L153.997 144.22C152.856 144.176 151.728 144.123 150.614 144.057Z" fill="#B5A268"/>
<path d="M71.4716 77.7539C69.1142 78.2327 69.2671 77.8558 66.9455 78.4177C62.1815 79.2339 57.1821 81.9991 54.69 86.0762C55.8465 84.7964 60.8168 81.3959 63.3842 81.0318C63.4916 80.9706 63.6124 80.9135 63.7258 80.854C63.8763 80.7746 64.0232 80.6939 64.1815 80.6174C64.312 80.5549 64.451 80.4948 64.5857 80.4335C64.7641 80.3528 64.9394 80.2721 65.1251 80.1938C65.2453 80.1441 65.3709 80.0955 65.494 80.0458C65.7064 79.9596 65.9188 79.8741 66.1385 79.7897C66.2131 79.7618 66.2902 79.7327 66.366 79.7048C67.2489 79.3722 68.1761 79.047 69.1075 78.7023C69.1688 78.6793 69.2313 78.6574 69.2932 78.6344C69.556 78.5361 69.8169 78.4335 70.0778 78.331C70.184 78.2891 70.2914 78.2503 70.397 78.2078C70.7587 78.0622 71.1191 77.9117 71.4716 77.7539ZM107.139 80.243C106.873 80.2448 106.605 80.2521 106.335 80.2655C98.6951 80.6344 94.1393 81.97 87.7606 84.6465C87.9008 84.6599 88.067 84.6811 88.2418 84.7048C88.3013 84.7133 88.3638 84.7218 88.4275 84.7309C88.5628 84.7509 88.7048 84.7728 88.8547 84.797C88.9141 84.8061 88.9699 84.8146 89.0324 84.8243C89.2315 84.8589 89.4426 84.8953 89.6605 84.9348C89.7624 84.9536 89.8698 84.973 89.9754 84.993C90.0865 85.0131 90.1981 85.0349 90.311 85.0567C90.3953 85.0725 90.4754 85.0877 90.561 85.1041C95.5325 83.2109 99.7722 82.2187 106.186 81.9093C114.817 81.4936 121.772 86.9396 130.529 83.9936C121.778 85.1575 115.379 80.1775 107.139 80.243ZM81.2053 86.2194C78.4153 86.2279 75.57 86.541 72.6543 87.2315C72.6543 87.2315 72.6731 87.2291 72.7053 87.2242C73.6397 87.0877 88.1647 85.2133 109.475 96.663C140.603 113.389 137.762 129.032 168.279 138.903C168.436 138.954 168.587 139.006 168.746 139.056C140.286 125.766 136.9 106.999 109.744 94.3638C100.442 90.0343 91.1702 86.1884 81.2053 86.2194ZM122.343 88.2249C119.396 88.1727 116.816 88.4033 114.716 88.7224C110.918 89.2989 108.688 90.1636 108.688 90.1636C109.536 90.4457 110.551 90.9561 111.152 91.2079C123.442 88.1678 132.555 90.9609 136.474 92.8517C139.705 94.4112 144.927 97.572 151.281 97.0544C149.61 96.765 147.967 96.2637 146.334 95.6521C144.594 94.9998 142.866 94.2225 141.136 93.4148C136.871 91.4245 132.586 89.2946 128.022 88.6654C126.013 88.3887 124.112 88.2558 122.343 88.2249ZM47.4885 92.1666C47.4885 92.1666 43.4023 93.8693 40.4714 95.6994C39.7803 96.1315 39.1528 96.5708 38.6595 96.9962L40.4417 97.5222C40.4417 97.5222 45.4611 93.1927 47.4885 92.1666ZM80.2059 96.7996C80.2059 96.7996 78.553 96.9731 77.6792 97.1867C81.394 102.465 80.4954 113.385 74.0681 116.905C74.0621 116.908 74.0572 116.913 74.0511 116.916C74.0718 116.909 74.0912 116.898 74.1106 116.891C74.5481 116.739 74.9753 116.565 75.3916 116.374C75.4638 116.34 75.5348 116.305 75.6064 116.271C76.0263 116.066 76.4377 115.847 76.826 115.599C84.2836 111.82 82.0421 98.8687 80.2059 96.7996ZM44.3622 97.5034C44.3622 97.5034 44.3537 97.5101 44.3495 97.5144C44.0582 97.7346 34.7912 104.784 25.2662 113.782L27.9173 113.453L44.3628 97.504L44.3622 97.5034ZM25.2656 113.781C25.2656 113.781 23.4343 113.811 22.0951 114.325C22.0951 114.325 18.4033 118.084 16.8984 120.589C16.8984 120.589 17.3056 122.914 18.504 124.981L17.5113 127.422L19.2832 127.541L20.2025 125.348L18.771 121.166L22.3882 117.052L25.2656 113.781ZM131.183 98.1867C130.572 98.1806 129.999 98.1922 129.467 98.2152C129.421 98.2176 129.374 98.2189 129.329 98.2213C129.26 98.2243 129.192 98.2267 129.125 98.231C126.69 98.3633 125.174 98.7389 124.789 98.8445C124.723 98.8627 124.687 98.8742 124.687 98.8742C125.879 99.6721 126.978 100.569 126.978 100.569C126.996 100.566 127.014 100.564 127.032 100.562C136.379 99.2844 147.412 102.176 158.245 110.129C161.14 112.252 166.114 115.605 171.487 116.821C166.477 114.715 162.514 111.202 157.879 107.822C156.322 106.687 154.683 105.57 152.909 104.523C151.674 103.795 150.379 103.098 148.986 102.46C141.623 99.0933 135.461 98.2273 131.183 98.1867ZM55.642 99.0496C54.7446 99.5866 53.8993 100.116 53.1014 100.629C53.3326 100.974 53.7258 101.19 54.2209 101.193C55.0377 101.178 55.7331 100.597 55.8362 99.8445C55.8708 99.5405 55.7962 99.2765 55.642 99.0496ZM142.597 111.823C140.953 111.788 140.191 112.157 140.175 112.165H140.173C140.907 112.875 141.521 113.426 141.82 113.688C141.942 113.795 142.017 113.859 142.017 113.859C158.249 114.207 168.506 133.924 175.941 136.447C169.08 131.956 165.95 124.146 158.115 118.476C157.797 118.247 157.486 118.015 157.152 117.792C153.512 115.365 150.528 113.893 148.131 113.015C146.148 112.289 144.568 111.972 143.356 111.866C143.085 111.842 142.831 111.828 142.597 111.823V111.823ZM36.637 124.729C34.1862 125.206 29.7832 129.45 27.8633 132C25.427 131.725 23.3336 131.367 21.3178 131.374C21.3178 131.374 21.5854 132.918 21.711 133.564C23.9616 134.055 26.8409 134.532 28.3706 134.86C30.0636 134.286 34.9131 131.59 36.7178 130.182C36.7178 130.182 37.6498 127.538 38.1249 125.422C38.1249 125.422 34.5933 128.434 33.2074 129.245C34.0691 127.613 36.637 124.729 36.637 124.729Z" fill="white"/>
</g>
<defs>
<clipPath id="clip0_107_20179">
<rect width="200" height="200" fill="white"/>
</clipPath>
</defs>
</svg>
