<svg width="200" height="200" viewBox="0 0 200 200" fill="none" xmlns="http://www.w3.org/2000/svg">
<g clip-path="url(#clip0_154_2401)">
<path fill-rule="evenodd" clip-rule="evenodd" d="M193.142 37.8571H116.729L116.649 73.8979H122.157C116.094 79.1031 112.873 81.8687 109.87 84.4461C106.898 81.8274 103.768 79.0695 97.8441 73.8474H106.3L106.222 37.8571H-0.46875L-0.390736 73.8979H20.4151L73.4162 119.958V124.401H54.6524V163.004H144.474V124.401H126.171V119.165C126.171 119.165 175.764 76.6665 178.993 73.8979H199.531V37.8571H193.142Z" fill="black"/>
<path fill-rule="evenodd" clip-rule="evenodd" d="M5.9909 67.5024H22.809L79.8116 117.039V130.776H61.0478V156.605H138.088V130.776H119.788V116.219L176.636 67.5024H193.148V44.2416H123.11L123.06 67.5024H139.418L109.818 92.9093L80.9358 67.4519H99.9015L99.851 44.2416H5.94043L5.9909 67.5024Z" fill="white"/>
<path fill-rule="evenodd" clip-rule="evenodd" d="M126.557 47.6925C126.547 51.8194 126.529 59.911 126.52 64.0532H148.737L109.79 97.4829L71.804 64.0012H96.4461C96.4369 59.8651 96.4185 51.8133 96.4094 47.6925H9.40039C9.40957 51.8331 9.42792 59.9263 9.43556 64.0532H24.1015L83.2639 115.467V134.224H64.5032V153.156H134.641V134.224C130.102 134.21 116.339 134.224 116.339 134.224V114.633L175.362 64.0532H189.699V47.6925H126.557Z" fill="#C8102E"/>
</g>
<defs>
<clipPath id="clip0_154_2401">
<rect width="200" height="200" fill="white"/>
</clipPath>
</defs>
</svg>
