<svg width="200" height="200" viewBox="0 0 200 200" fill="none" xmlns="http://www.w3.org/2000/svg">
<path d="M167.582 101.866C166.11 99.6576 164.468 97.7324 162.883 95.977C162.033 95.0709 161.24 94.1649 160.504 93.3155C160.844 92.636 161.07 91.9565 161.184 91.3903C161.354 90.6541 161.467 89.5782 161.467 88.8987C161.523 88.106 161.58 83.7458 161.58 83.7458L159.995 84.5952C159.995 83.6325 159.995 82.7265 159.881 81.8205C159.032 72.5905 152.86 65.7954 146.404 61.0388C143.12 58.6039 139.723 56.622 136.608 54.9798C133.55 53.3943 130.719 52.0919 128.624 51.1293C107.389 41.2197 88.646 37.6523 67.0716 27.1199C62.1451 24.685 56.3126 21.7971 52.4055 18.4561L49.2344 15.7381L48.5549 17.8333L44.761 15.0586C44.761 15.0586 42.8923 23.8356 44.0815 28.309C41.5333 27.2332 39.0984 25.9308 39.0984 25.9308C39.0984 25.9308 38.4755 34.3114 40.5706 38.5583L36.1538 36.5198C36.1538 36.5198 36.6635 45.4667 38.7586 49.3172L35.4177 48.298C35.4177 48.298 34.6816 55.9425 38.1357 59.6798C35.984 59.5665 35.1912 59.5665 35.1912 59.5665C35.1912 59.5665 35.8141 62.6243 36.0972 63.134L36.5502 64.3797C38.4755 69.8158 42.5526 72.9869 46.9694 75.0254C40.1176 79.1024 34.5117 85.3313 30.3214 91.4469L26.8672 96.8263L32.9262 96.9396C48.7814 96.9962 60.1632 106.113 73.2438 119.42L73.5835 119.76C86.6075 132.501 100.254 161.38 105.407 179.387L107.276 184.936L112.259 178.821C118.828 170.95 129.53 152.943 129.36 140.825C132.758 141.051 138.137 141.334 142.044 141.051C148.216 140.598 156.144 138.56 159.372 137.767C160.051 138.446 160.731 139.692 160.731 140.089L161.41 146.77L166.054 141.957C172.396 135.445 173.075 128.31 173.132 120.326C173.188 112.342 170.697 106.453 167.582 101.866Z" fill="white"/>
<path d="M165.714 103.111C164.298 100.959 162.713 99.147 161.24 97.4482C159.995 96.0326 158.806 94.7302 157.786 93.4844C158.466 92.635 158.862 91.6158 159.032 90.823C159.315 89.7471 159.315 87.4255 159.315 87.4255C159.315 87.4255 158.239 87.9917 157.616 88.2749C157.73 87.0291 157.9 84.1412 157.673 81.9328C156.88 73.6654 151.331 67.3799 145.102 62.7366C141.988 60.4149 138.647 58.4896 135.589 56.8475C132.531 55.262 129.756 54.0162 127.718 53.0536C106.427 43.144 87.4003 39.4067 66.1656 28.9876C61.4091 26.6659 55.4067 23.7214 51.3297 20.2106L50.367 19.3612L49.8008 21.2298L48.555 20.2672L46.3466 18.7383L46.0635 20.1539C45.5538 23.1551 45.6671 28.4779 47.0261 32.2152C46.6863 31.9887 46.29 31.7622 45.8936 31.5357C45.2707 31.196 44.7044 30.8562 44.1948 30.6297C43.9117 30.5165 41.6466 29.2707 41.4768 29.3839C40.8539 29.7803 41.3069 30.9128 41.4768 31.8755C42.0996 36.4056 43.1189 40.5392 44.5346 42.9742C44.5346 42.9742 39.4949 40.2561 39.2117 40.2561C38.8153 40.3127 38.9286 41.1621 38.9852 41.6718C39.4382 44.6163 40.0045 46.3717 40.7973 48.5801C41.3069 50.0524 41.9864 51.5247 43.0057 52.7704C43.0623 52.7704 43.1189 52.8271 43.0057 52.7704C42.4394 52.5439 37.9093 51.2982 37.9093 51.2982C37.9093 51.2982 37.6828 52.0909 37.966 53.5066C38.6455 57.4704 40.4575 59.5655 42.7225 62.0005C42.7225 62.0005 38.0226 61.3776 37.966 61.6041L38.7021 63.5293C40.9671 69.9847 46.6863 72.8726 52.6321 74.7413C44.1382 78.2521 37.2864 85.4436 32.2467 92.7483L31.001 94.617L32.9263 94.6736C49.8008 94.7302 61.7488 104.526 74.8294 117.834C74.9426 117.947 75.1692 118.173 75.1692 118.173C88.5895 131.311 102.35 160.529 107.559 178.706L108.069 180.292L110.447 177.347C116.959 169.476 127.208 152.149 127.038 140.937L127.152 138.389C129.7 138.615 136.891 139.125 141.874 138.785C148.726 138.275 157.73 135.784 159.768 135.331C161.467 136.18 162.826 138.785 162.939 139.918L163.109 141.73L164.412 140.427C170.131 134.595 170.754 128.253 170.81 120.382C170.867 112.85 168.602 107.414 165.714 103.111Z" fill="black"/>
<path d="M136.438 93.4297C136.382 93.8827 136.325 94.1092 136.495 95.4116C136.891 97.9031 137.911 98.6959 138.817 99.885C140.742 101.754 143.913 100.961 143.913 100.961C142.044 100.225 139.666 99.2055 139.723 96.6574V95.0718C139.723 94.7321 140.119 93.7128 140.119 93.5429H139.949L136.438 93.4297Z" fill="#E31837"/>
<path d="M142.724 89.7455C141.875 88.9527 140.742 87.9335 140.233 87.4805C140.233 87.4805 139.157 88.3865 138.534 89.066C137.968 89.6889 137.288 90.8214 137.288 90.8214C137.968 91.1612 138.93 91.8407 139.723 92.3503C139.836 92.4635 140.006 92.5768 140.119 92.6334L140.403 92.8599C140.346 92.6334 140.856 91.8407 141.252 91.2744C141.762 90.5949 142.724 89.7455 142.724 89.7455Z" fill="#E31837"/>
<path d="M102.237 95.6354L88.2501 86.4054L101.784 89.0668C95.6681 85.6126 83.7767 76.9489 83.7767 76.9489C83.7767 76.9489 96.9139 80.4597 100.708 81.3657L93.1766 74.7405C95.8946 75.0236 106.201 73.5513 106.201 73.5513L92.3838 60.5274C90.4019 58.1491 87.6272 56.1106 85.8718 53.7323L129.53 73.2682C132.305 72.6453 135.136 72.702 137.684 72.702C144.366 76.9489 147.537 83.4609 152.577 88.7271C153.653 87.7078 153.483 85.103 153.54 82.7814C153.823 70.9465 131.229 58.8852 131.229 58.8852C127.832 57.0166 120.414 53.9588 120.414 53.9588C101.161 46.7673 85.0224 41.5011 62.8817 31.9879C56.1432 29.1 52.9156 24.2302 51.33 23.2109L51.1602 25.929C51.2734 33.5168 56.8794 39.9722 62.995 43.8794C62.995 44.4456 55.8035 39.9722 51.4433 37.1409C50.0276 36.2349 48.4987 35.3289 47.8192 34.7626C47.1964 40.4818 51.783 44.842 55.8601 48.1829C58.2384 50.1082 61.4661 51.6371 61.0131 52.1468C56.03 49.5986 50.877 47.2769 45.5542 45.4083C44.3651 51.9203 60.5034 60.131 60.5034 60.131C55.8035 58.7154 50.4807 57.6395 45.9506 55.7708C45.9506 55.7708 46.6867 59.7913 52.6891 64.0382C55.4071 65.9635 60.6733 67.096 60.6733 67.096C55.5204 67.1526 51.1602 66.5297 45.7807 65.7936C46.1771 68.3418 48.612 69.4743 50.7072 70.3803C50.7072 70.3803 58.9179 73.0983 63.2215 73.7212C63.2215 73.7212 69.3371 74.8537 68.8841 75.1935C54.1047 78.3645 50.9337 82.4416 40.9109 89.9162L39.9482 90.8789C43.2892 90.9921 46.4036 92.0114 50.3108 93.5403C56.2565 95.8619 59.1444 98.2969 64.354 102.034C75.6225 110.188 85.3622 123.439 89.2127 127.572C90.7416 125.138 101.727 106.508 101.444 105.375L95.9512 102.261L101.557 101.128C101.557 101.128 91.5344 95.692 88.9862 93.7101C90.4585 93.3704 103.596 96.3149 102.237 95.6354ZM87.2875 64.3213C87.6838 64.3213 94.5922 68.6815 97.9331 70.1538L90.5718 71.7393C90.0621 70.8333 86.9477 64.3213 87.2875 64.3213ZM60.7866 37.3108C58.0685 34.8192 56.2565 32.441 55.0107 29.8362C54.671 29.1567 60.2769 34.706 70.1865 38.8963C75.5659 41.1613 84.2297 43.9926 84.2297 43.9926C84.2297 43.9926 67.8082 43.7095 60.7866 37.3108ZM61.1263 83.6307C57.3324 86.5187 52.2927 92.068 52.2927 92.068C52.2927 92.068 46.5735 89.4066 46.5735 88.8969C46.5735 87.7644 50.9903 84.9898 51.2734 84.9331C59.2577 79.4971 73.0744 76.8356 73.0744 76.8356C69.1106 79.1573 65.3733 80.4031 61.1263 83.6307ZM68.8274 51.5239C63.3347 50.448 59.8239 49.3155 55.9167 45.3517C54.2746 43.6529 51.8397 40.0288 52.4059 40.4818C58.4649 44.0493 63.5612 47.5034 70.413 49.3155C72.5081 49.8817 77.3213 50.7877 79.4165 51.5239C79.3598 51.5239 72.8479 52.3166 68.8274 51.5239ZM91.9874 110.188L98.2163 107.923L90.685 121.344C90.685 118.399 91.9874 110.188 91.9874 110.188Z" fill="#E31837"/>
<path d="M159.315 101.917C159.315 101.917 155.124 96.9905 152.123 94.7255C152.123 94.7255 150.311 101.917 146.857 104.635C144.535 106.447 142.78 108.259 139.948 107.523C136.324 106.56 135.192 103.786 135.192 103.786C132.757 96.8206 126.019 93.9327 118.657 94.499C114.354 94.7821 111.183 95.405 108.465 98.8025C96.4598 113.808 113.278 130.4 129.586 133.684C134.909 134.76 143.459 134.477 143.459 134.477C145.498 134.703 156.37 132.155 158.295 131.306C150.594 126.549 110.56 108.825 110.39 108.655L109.427 108.316C108.748 109.448 108.861 111.147 109.031 112.449H108.295L107.898 110.354L107.842 109.108C108.011 98.4628 122.847 98.8025 129.869 102.993C129.699 103.106 127.434 102.823 125.905 102.993C124.433 103.163 122.225 103.786 122.225 103.786C127.321 105.937 144.026 122.302 158.465 128.871C161.296 130.173 164.524 135.213 164.524 135.213C165.26 133.627 167.072 129.55 167.582 125.7C168.828 115.847 164.581 106.957 159.315 101.917ZM150.991 107.07C150.368 107.24 149.858 107.353 149.292 107.013C148.782 106.73 148.612 106.334 148.386 105.824C147.819 104.239 149.575 102.88 150.821 102.37C151.274 102.087 151.783 102.483 151.783 102.483C151.783 102.483 149.745 104.125 150.368 105.145C151.047 106.334 153.369 103.333 153.369 103.333C153.369 103.333 152.689 106.617 150.991 107.07ZM165.77 125.53C165.77 125.53 165.09 129.607 164.467 131.193L162.486 128.361C163.165 127.059 163.561 123.265 163.505 119.981C163.505 115.167 161.749 111.883 161.127 107.806C164.298 113.355 166.053 119.131 165.77 125.53Z" fill="#FFE512"/>
<path d="M150.934 92.9232C152.123 92.5834 153.426 92.5268 154.275 91.5642C149.632 90.7148 147.14 85.6751 143.177 81.6547C140.515 78.9932 138.986 76.0487 135.759 75.5391C131.568 76.8415 126.698 76.9547 123.811 80.0125C125.113 79.5595 126.642 78.9366 127.718 78.9366L132.248 78.7101C134.626 78.7667 140.798 84.5992 141.138 84.9956C144.083 87.3172 146.744 92.5268 150.934 92.9232Z" fill="white"/>
<path d="M120.017 104.754C120.017 104.754 117.695 104.301 116.336 104.698C114.524 105.207 112.882 105.944 112.372 107.529C118.714 110.757 126.019 112.399 132.871 115.57C132.757 115.23 129.869 112.512 128.85 111.549C128.567 111.266 127.151 112.455 126.755 112.455C126.359 112.455 126.415 112.229 126.132 112.116C126.132 112.116 127.604 111.38 128.51 110.813C128.114 110.813 125.849 108.435 125.849 108.435C125.849 108.435 121.545 109.794 121.206 109.794C120.809 109.794 120.583 109.794 120.3 109.681V109.341C121.715 108.945 123.527 108.378 125.056 107.925L124.773 107.586C124.32 107.189 122.848 106.057 121.998 106C120.13 105.944 117.695 107.982 116.053 107.982C115.656 107.982 115.486 107.699 115.317 107.472C117.242 106.736 120.923 105.151 120.923 105.151C120.583 105.094 120.356 104.754 120.017 104.754Z" fill="white"/>
<path d="M113.335 150.342L113.109 150.682C111.75 154.363 109.088 157.534 106.144 160.025C107.446 163.479 109.768 170.274 109.768 170.274C114.637 163.932 122.225 152.777 122.452 139.753V136.695C121.433 137.148 118.828 137.545 118.035 137.771C117.129 142.301 114.977 146.095 113.335 150.342Z" fill="white"/>
<path d="M139.723 92.3587C138.987 91.8491 138.024 91.1695 137.288 90.8298C137.288 90.8298 138.024 89.6973 138.534 89.0744C139.157 88.3949 140.233 87.4889 140.233 87.4889L140.119 87.3756C139.327 86.5262 139.1 85.96 137.741 84.9973C136.326 84.2046 135.08 83.3552 133.777 82.4492L133.211 82.2227C132.758 83.1287 131.909 85.3937 131.626 87.4889C131.399 89.0178 131.569 91.4527 131.569 91.4527C131.739 92.3021 131.852 93.3213 132.135 94.0575C132.871 95.8129 134.853 97.002 136.382 99.0405C137.685 100.739 137.741 102.381 139.497 103.627C140.006 104.024 140.686 104.307 141.025 104.307C142.894 104.363 144.876 102.268 145.782 100.909H143.913C143.913 100.909 140.799 101.702 138.817 99.8333C137.854 98.6442 136.835 97.908 136.495 95.3599C136.326 94.0008 136.326 93.831 136.439 93.378L139.893 93.4912H140.063L141.195 93.4346L140.403 92.8683L140.119 92.6418L139.723 92.3587Z" fill="white"/>
<path d="M117.242 178.99C117.242 178.31 116.846 178.254 116.28 178.254H115.09V180.745H115.657V179.726H116.053L116.619 180.745H117.242L116.619 179.726C117.016 179.613 117.242 179.443 117.242 178.99ZM116.28 179.273H115.6V178.65H116.11C116.336 178.65 116.676 178.65 116.676 178.876C116.733 179.216 116.563 179.273 116.28 179.273ZM116.053 177.121C114.751 177.121 113.675 178.197 113.675 179.499C113.675 180.802 114.751 181.878 116.053 181.878C117.355 181.878 118.431 180.802 118.431 179.499C118.375 178.197 117.355 177.121 116.053 177.121ZM116.053 181.311C115.034 181.311 114.241 180.575 114.241 179.499C114.241 178.423 115.034 177.687 116.053 177.687C117.072 177.687 117.865 178.423 117.865 179.499C117.808 180.575 117.072 181.311 116.053 181.311Z" fill="black"/>
</svg>
