<svg width="200" height="200" viewBox="0 0 200 200" fill="none" xmlns="http://www.w3.org/2000/svg">
<g clip-path="url(#clip0_154_2403)">
<path d="M30.9368 15.1026L31.4801 14.9808C37.2876 13.6132 42.7767 12.3205 49.2305 16.2265C51.1227 17.36 53.2771 19.6363 55.0475 21.6596C57.5297 19.0274 61.9135 15.2245 67.0372 14.4002V14.3719L67.7772 14.2876L71.7676 13.8193C79.383 12.9014 87.2606 11.9553 95.1945 12.9763L96.6089 13.1541L96.7681 13.173L96.8993 13.2573C96.9274 13.2667 98.8195 14.4282 99.9998 15.0745C101.18 14.4282 103.072 13.2761 103.091 13.2573L103.213 13.173L103.391 13.1541L104.805 12.9763C112.739 11.9553 120.607 12.9014 128.223 13.8193L132.222 14.2876C132.222 14.2876 132.962 14.372 132.962 14.3813V14.4002C138.086 15.2245 142.46 19.0274 144.952 21.6596C146.732 19.6363 148.867 17.36 150.75 16.2265C157.213 12.3205 162.702 13.6132 168.529 14.9808L169.053 15.1026C178.149 17.2289 188.246 27.6357 191.122 30.7736L192.602 32.3941L193.108 34.5298C197.566 53.5635 197.154 57.9473 196.321 60.8136C195.543 63.5581 193.323 66.7709 191.337 68.9534C192.593 70.4147 193.998 71.8011 195.15 72.9346C196.358 74.1148 196.995 74.7611 197.276 75.192C197.445 75.473 197.688 75.8196 197.951 76.2036C199.056 77.7398 200.414 79.6695 199.88 81.1776C199.374 82.6482 197.351 83.2381 195.562 83.772C194.916 83.9594 194.307 84.1373 193.848 84.334C193.754 84.3902 193.623 84.4185 192.967 84.5684C194.906 97.2607 196.386 117.437 196.367 119.414C196.367 119.685 196.386 120.013 196.414 120.36C196.508 122.149 196.677 125.155 193.82 125.802C192.18 126.167 190.007 125.577 187.038 123.947C180.856 138.119 170.842 159.57 168.941 162.727C166.965 165.977 164.492 167.579 162.019 167.232C160.379 167.007 157.363 163.645 156.38 162.493C155.424 162.82 153.457 163.551 151.05 164.441C144.212 166.979 132.822 171.213 127.173 172.712L120.823 178.445L120.626 178.632H120.326H109.545L99.9998 187.465L90.4548 178.632H79.3829L72.8167 172.712C67.1778 171.213 55.7875 166.979 48.9495 164.441C46.5422 163.551 44.5751 162.82 43.6103 162.493C42.6362 163.645 39.62 167.007 37.9808 167.232C35.4985 167.579 33.035 165.977 31.068 162.727C29.1477 159.57 19.1438 138.119 12.9615 123.947C9.9922 125.577 7.81906 126.167 6.1892 125.802C3.32289 125.155 3.49143 122.149 3.57574 120.36C3.60384 120.013 3.61326 119.685 3.61326 119.414C3.61326 117.437 5.08386 97.2607 7.02283 84.5684C6.37651 84.4092 6.24535 84.3902 6.14232 84.334C5.68333 84.1373 5.08386 83.9594 4.42817 83.772C2.64844 83.2381 0.625171 82.6482 0.119353 81.1776C-0.414567 79.6695 0.953034 77.7398 2.03961 76.2036C2.30188 75.8196 2.55477 75.4824 2.73274 75.192C2.98565 74.7611 3.64133 74.1148 4.8403 72.9346C6.00181 71.8011 7.40691 70.4147 8.66209 68.9534C6.66691 66.7709 4.44689 63.5581 3.66943 60.8136C2.84513 57.9473 2.42363 53.5635 6.8917 34.5298L7.38816 32.3941L8.86812 30.7736C11.7532 27.6357 21.8508 17.2289 30.9368 15.1026Z" fill="black"/>
<path d="M100.027 179.961L93.4237 173.001H82.6329H81.5745L80.7876 172.308L75.6077 167.625C62.5313 164.299 49.6143 159.691 41.8865 157.536C41.5961 157.864 41.3245 158.145 41.184 158.295C40.7625 158.726 38.9827 160.459 38.43 160.871C38.0741 161.133 37.2029 161.19 36.847 160.796C36.107 160.009 20.7451 131.44 15.0875 117.361C15.0313 117.38 11.8933 119.253 11.0503 119.328C10.3852 119.385 9.57964 119.272 9.41103 118.485C9.25179 117.652 10.5257 93.4753 12.1462 80.2679C11.8652 80.1367 8.26829 78.8346 7.91235 78.6848C7.5283 78.5162 6.82575 78.1134 7.18169 77.439C7.56574 76.7458 13.2984 70.5168 16.1366 67.5569L15.9305 67.3133C12.3054 66.2268 10.0105 62.4424 9.10195 59.267C8.50246 57.1688 8.43687 52.7383 12.3991 35.8215L12.5678 35.1283L13.0548 34.5943C14.1882 33.3484 24.3702 22.4266 32.2478 20.6001L32.7817 20.4689C38.0554 19.2231 41.8677 18.3334 46.3545 21.0592C49.2583 22.8014 52.8365 25.4615 55.2813 27.9812C56.3117 27.26 57.4451 25.7425 58.5597 24.7965C61.5665 22.2393 64.6108 20.2161 68.5263 19.8883H68.4606L72.451 19.4292C79.7385 18.5487 87.2603 17.6494 94.5197 18.5673L100.027 22.1643L105.526 18.5673C112.785 17.6494 120.316 18.5487 127.585 19.4292L131.594 19.8883H131.519C135.435 20.2161 138.488 22.2393 141.495 24.7965C142.591 25.7425 143.734 27.2506 144.764 27.9812C147.209 25.4615 150.797 22.8014 153.691 21.0592C158.187 18.3334 161.99 19.2231 167.264 20.4689L167.798 20.6001C175.675 22.4266 185.867 33.3484 186.991 34.5943L187.478 35.1283L187.646 35.8215C191.618 52.7383 191.534 57.1688 190.944 59.267C190.035 62.4424 187.74 66.2268 184.115 67.3133L183.909 67.5569C186.747 70.5168 192.489 76.7458 192.864 77.439C193.229 78.1134 192.527 78.5162 192.143 78.6848C191.787 78.8346 188.199 80.1461 187.899 80.2679C189.51 93.4753 190.803 117.652 190.635 118.485C190.466 119.272 189.66 119.385 189.005 119.328C188.152 119.253 185.024 117.389 184.958 117.361C179.3 131.44 163.948 160.009 163.208 160.796C162.843 161.19 161.971 161.124 161.625 160.871C161.082 160.459 159.293 158.726 158.862 158.295C158.721 158.145 158.459 157.864 158.15 157.536C150.431 159.691 137.514 164.299 124.447 167.625L119.258 172.308L118.48 173.001H117.413H106.622L100.027 179.961Z" fill="white"/>
<path d="M87.7482 20.4157C81.4086 20.5131 74.9116 21.6746 68.7369 22.364C66.4888 22.5514 64.4281 23.8477 62.4273 25.4364C59.9694 27.3697 55.6606 33.4246 55.6606 33.4246C54.8213 32.3155 52.3559 28.6437 50.8497 27.3847C49.0287 25.856 46.908 24.3498 44.9072 23.1359C41.2429 20.9252 38.2304 21.7495 32.8575 23.0085C27.4696 24.2749 19.5639 31.2364 15.0302 36.1747C13.2917 43.5859 10.8113 55.0511 11.7256 58.2509C12.2351 60.0269 14.0186 64.1558 17.4057 64.5755C17.4057 64.5755 33.4495 52.0237 38.2604 48.9963C38.2904 49.0338 38.0281 46.8756 38.0281 46.8756C38.0281 46.8756 34.8808 48.5467 34.5885 48.2394C34.2738 47.9322 33.8767 42.297 37.8483 39.412C35.6077 39.0897 35.0681 39.0897 31.5237 40.8058C30.0025 41.5401 27.6794 43.6983 26.8252 45.6317C25.6936 48.2244 28.219 49.281 28.219 49.281L24.5171 51.679C23.6853 49.6632 23.2357 48.4642 23.0934 46.366C23.0934 46.366 30.1448 37.5086 39.0622 33.2672C40.6734 34.1889 41.8424 45.5567 41.7449 49.2661C28.1365 58.1535 14.663 72.3314 12.0778 76.2056C11.6731 76.8125 12.2951 77.0598 12.2951 77.0598C12.2951 77.0598 14.708 77.8467 15.4274 78.0115C13.539 91.9871 12.355 110.009 12.8946 114.64C12.9845 115.382 13.6139 115.157 13.6139 115.157C13.6139 115.157 16.0344 114.033 16.7013 113.689C21.5647 126.937 34.6035 152.011 37.2338 155.84C37.6459 156.455 38.1105 155.96 38.1105 155.96C38.1105 155.96 39.7891 154.049 40.2237 153.427C46.5034 155.938 62.6521 161.25 76.9124 164.862L69.5237 147.02L49.0062 141.73C43.1837 133.592 31.149 110.107 29.2306 105.91C28.8035 106.187 26.5404 106.54 26.5404 106.54C26.5404 106.54 26.1283 106.675 26.0383 106.232C26.7053 96.1835 29.95 86.8015 32.7901 74.4595C32.4079 74.3696 29.4629 74.1073 29.4629 74.1073C29.4629 74.1073 28.9908 73.9275 29.2756 73.5828C35.2555 66.3065 54.1244 51.9638 64.8252 46.988C66.4813 47.2203 99.9927 63.7587 99.9927 63.7587C99.9927 63.7587 133.512 47.2203 135.168 46.988C145.876 51.9638 164.73 66.3065 170.717 73.5828C170.995 73.9275 170.53 74.1073 170.53 74.1073C170.53 74.1073 167.593 74.3696 167.203 74.4595C170.05 86.8015 173.288 96.1835 173.955 106.232C173.857 106.675 173.453 106.54 173.453 106.54C173.453 106.54 171.197 106.187 170.762 105.91C168.836 110.107 156.817 133.592 151.002 141.73L130.469 147.013L123.081 164.855C137.333 161.243 153.49 155.93 159.784 153.42C160.211 154.042 161.875 155.952 161.875 155.952C161.875 155.952 162.34 156.447 162.752 155.833C165.382 152.003 178.436 126.93 183.292 113.681C183.951 114.026 186.379 115.15 186.379 115.15C186.379 115.15 187.016 115.375 187.091 114.633C187.63 110.002 186.454 91.9796 184.566 78.004C185.3 77.8392 187.683 77.0523 187.683 77.0523C187.683 77.0523 188.312 76.8051 187.915 76.2056C185.345 72.3239 171.849 58.146 158.248 49.2586C158.151 45.5492 159.32 34.1814 160.923 33.2597C169.848 37.5011 176.892 46.3585 176.892 46.3585C176.75 48.4642 176.3 49.6557 175.476 51.6715L171.774 49.2735C171.774 49.2735 174.307 48.217 173.175 45.6242C172.314 43.6908 169.991 41.5327 168.462 40.7983C164.925 39.0822 164.385 39.0822 162.137 39.4045C166.109 42.2895 165.719 47.9247 165.419 48.2319C165.112 48.5392 161.965 46.8681 161.965 46.8681C161.965 46.8681 161.695 49.0263 161.733 48.9963C166.536 52.0162 182.587 64.568 182.587 64.568C185.974 64.1558 187.758 60.0194 188.267 58.2434C189.174 55.0511 186.671 43.5859 184.933 36.1747C180.414 31.2364 172.516 24.2749 167.135 23.0085C161.763 21.7495 158.743 20.9252 155.078 23.1359C153.077 24.3498 150.949 25.856 149.136 27.3847C147.622 28.6437 145.157 32.3155 144.317 33.4246C144.317 33.4246 140.009 27.3697 137.558 25.4364C135.542 23.8477 133.482 22.5514 131.249 22.364C123.006 21.4498 114.208 19.6813 105.973 20.7379L102.271 24.1325C101.402 35.8525 100.292 50.1278 100.292 50.1278H99.678C99.678 50.1278 98.5914 35.8525 97.7147 24.1325L94.0128 20.7379C91.9521 20.4756 89.8464 20.3857 87.7332 20.4157H87.7482ZM61.9852 52.0612C57.9086 52.5258 41.108 66.1866 35.3004 78.3712C32.0033 85.3403 31.2689 93.1861 32.6852 102.291C33.2922 106.225 48.7964 138.298 48.7964 138.298L72.716 146.113C72.716 146.113 79.4528 163.079 82.6076 169.996H93.3384L99.9927 175.046L106.655 169.996H117.385C120.548 163.079 127.277 146.113 127.277 146.113L151.189 138.298C151.189 138.298 166.693 106.225 167.308 102.291C168.717 93.1861 167.975 85.3403 164.67 78.3787C158.877 66.1866 142.069 52.5258 137.993 52.0612C129.645 51.9413 104.968 66.359 104.968 66.359C104.968 66.359 107.389 71.2448 107.666 71.9792L128.386 64.2533C133.219 64.8003 142.601 65.3623 142.601 65.3623C142.601 65.3623 154.381 82.118 155.685 84.6808C155.895 85.093 155.498 85.2129 155.498 85.2129L146.506 74.3471C141.17 69.5512 138.39 68.0151 135.138 67.2057C133.047 66.6962 127.772 66.314 123.995 68.4946C128.139 68.8468 130.986 71.552 130.986 71.552L131.001 72.3239C131.001 72.3239 127.921 74.512 124.489 74.4521C128.956 76.8575 143.006 88.1953 144.325 90.7656C144.527 91.1628 144.115 91.2827 144.115 91.2827C144.115 91.2827 142.646 91.4775 142.287 91.5749C142.234 95.6665 139.199 107.139 136.082 114.243C133.399 115.33 130.162 116.124 127.224 117.128C125.351 121.909 114.41 158.186 113.129 160.756C107.779 161.378 103.56 161.753 103.56 161.753L99.9927 165.035L96.4183 161.753C96.4183 161.753 92.2069 161.378 86.8489 160.756C85.56 158.186 74.6419 121.902 72.761 117.121C69.8385 116.124 66.5787 115.322 63.896 114.236C60.7787 107.132 57.7513 95.659 57.6988 91.5675C57.3316 91.4775 55.8554 91.2752 55.8554 91.2752C55.8554 91.2752 55.4507 91.1628 55.6681 90.7656C56.9869 88.1878 71.0299 76.85 75.4961 74.4446C72.0716 74.5045 68.9692 72.3239 68.9692 72.3239L68.9842 71.5445C68.9842 71.5445 71.8318 68.8393 75.9832 68.4871C72.1915 66.314 66.9384 66.6887 64.8552 67.1982C61.588 68.0076 58.8004 69.5437 53.4649 74.3397L44.4801 85.2054C44.4801 85.2054 44.0754 85.0855 44.2778 84.6733C45.5966 82.1105 57.3916 65.3548 57.3916 65.3548C57.3916 65.3548 66.7661 64.7928 71.5995 64.2458L92.3118 71.9717C92.5891 71.2373 95.002 66.3515 95.002 66.3515C95.002 66.3515 70.3256 51.9338 61.9702 52.0537L61.9852 52.0612ZM88.1828 74.3621C81.2737 74.3322 74.3796 77.8991 71.0749 80.3495C67.3056 83.1521 64.5555 85.9697 62.1425 89.9189C61.7753 96.7006 64.2707 111.553 64.2707 111.553C64.2707 111.553 76.7775 115.352 79.5502 115.989C80.5019 124.951 82.4727 139.264 88.2278 158.59H111.78C117.528 139.264 119.491 124.951 120.443 115.989C123.215 115.352 135.737 111.553 135.737 111.553C135.737 111.553 138.218 96.7006 137.843 89.9189C135.445 85.9697 132.71 83.1521 128.933 80.3495C125.156 77.5544 116.688 73.2906 108.85 74.6169L119.536 93.7856C118.112 97.907 116.464 100.148 114.088 103.947C113.556 103.767 113.706 103.67 112.859 103.347C114.59 99.758 115.422 96.5507 116.037 93.7331C116.194 93.0437 116.299 92.639 116.299 92.4742C116.299 91.9496 116.096 91.53 115.729 91.2003C111.293 86.9889 105.718 83.5418 100 83.5418C94.2751 83.5418 88.6999 86.9889 84.2487 91.2003C83.904 91.53 83.6941 91.9496 83.6941 92.4742C83.6941 92.639 83.814 93.0437 83.9714 93.7331C84.5784 96.5507 85.4102 99.758 87.1487 103.347C86.3019 103.67 86.4593 103.767 85.9197 103.947C83.5368 100.155 81.8807 97.907 80.4569 93.7931L91.1278 74.6169C90.1461 74.4521 89.172 74.3771 88.1828 74.3696V74.3621Z" fill="#5A0009"/>
<path d="M94.567 94.5667C94.0424 94.3194 90.8951 94.9489 89.7486 96.9047C90.1308 99.2802 91.8018 101.873 91.8018 101.873L94.9192 101.326C94.9192 101.326 93.5254 99.1753 93.323 96.8223C93.3155 96.7549 94.552 94.6267 94.567 94.5667ZM105.41 94.5667C105.448 94.6267 106.684 96.7549 106.684 96.8223C106.482 99.1753 105.073 101.326 105.073 101.326L108.19 101.873C108.19 101.873 109.861 99.2802 110.244 96.9047C109.105 94.9489 105.957 94.3194 105.41 94.5667ZM99.9998 114.987C97.1148 114.987 93.3455 115.249 88.04 118.351C88.9692 122.241 89.8535 125.253 91.5545 129.135C91.577 129.285 91.9292 129.262 91.9742 129.105C92.4538 127.201 93.0383 119.685 93.1057 119.041L93.338 119.026L95.8259 122.758L96.1481 122.608L97.7892 118.756L98.0965 118.771L99.775 122.271H100.217L101.903 118.771L102.225 118.756L103.874 122.608L104.166 122.758L106.654 119.026L106.909 119.041C106.969 119.678 107.538 127.201 108.018 129.105C108.055 129.255 108.423 129.277 108.46 129.135C110.146 125.253 111.023 122.241 111.952 118.351C106.639 115.249 102.87 114.987 99.9998 114.987ZM91.9067 143.995L91.7569 144.04C92.3189 147.344 93.413 151.825 93.413 151.825C93.413 151.825 96.7326 150.724 99.9998 150.724C103.245 150.724 106.594 151.825 106.594 151.825C106.594 151.825 107.681 147.344 108.25 144.04L108.093 143.995C105.92 145.711 103.672 149.015 103.672 149.015L102.233 145.748L102.121 145.718L99.9998 148.603L97.8717 145.718L97.7592 145.748L96.3055 149.015C96.3055 149.015 94.0724 145.711 91.9067 143.995Z" fill="white"/>
</g>
<defs>
<clipPath id="clip0_154_2403">
<rect width="200" height="200" fill="white"/>
</clipPath>
</defs>
</svg>
