<svg width="200" height="200" viewBox="0 0 200 200" fill="none" xmlns="http://www.w3.org/2000/svg">
<path d="M179.695 51.8138H128.049C123.14 35.3244 114.076 27.9309 113.676 27.6147L113.177 27.22L112.326 26.9823C111.351 20.7584 106.275 15.999 100.185 15.999C94.0843 15.999 89.0111 20.7584 88.0411 26.9823L87.1995 27.2106L86.6908 27.6147C86.2914 27.9285 77.2266 35.3221 72.315 51.8138H20.3057C20.3057 51.8138 31.6337 64.4469 30.3808 79.9972L23.1489 169.811H84.033C84.033 169.811 75.0726 157.137 75.4506 144.642L75.5743 140.895L85.3144 164.051H87.7725L85.262 176.929L86.2368 177.987C86.5981 178.384 89.867 181.874 92.8862 183.248L94.5503 184.004L96.048 182.979C96.4783 182.682 100.322 180.017 102.127 177.904L103.073 176.791L102.724 175.407C101.768 171.615 101.202 167.752 100.872 164.051H114.805L124.419 140.945L124.548 144.642C124.926 157.137 115.965 169.811 115.965 169.811H176.849L169.62 79.9972C168.365 64.4469 179.695 51.8138 179.695 51.8138Z" fill="#ECAC00"/>
<path d="M172.825 54.9496L127.631 54.9472L120.494 66.5202C119.812 63.7649 118.923 61.3518 118.115 59.5022C123.007 57.6336 125.646 54.5146 125.646 54.5146C121.096 37.3074 111.698 29.8424 111.698 29.8424L109.409 29.2077C109.409 29.1911 109.414 29.1697 109.414 29.1507C109.414 23.5021 105.277 18.9114 100.192 18.9114C95.1091 18.9114 90.9701 23.5021 90.9701 29.1507C90.9701 29.1792 90.9772 29.2005 90.9772 29.229L88.6902 29.8424C88.6902 29.8424 79.2879 37.3074 74.74 54.5146C74.74 54.5146 77.3954 57.6573 82.3142 59.5164C81.4631 61.473 80.5098 64.0501 79.8228 67.0051L72.384 54.9472L27.1953 54.9496C27.1953 54.9496 35.4614 65.6002 34.1586 80.2019L27.1953 166.671H77.7449C77.7449 166.671 71.0384 156.374 71.7136 141.205L72.4719 124.832L87.4611 160.78H91.5834C91.5359 160.965 91.5027 161.146 91.4504 161.334L88.5785 176.073C88.5785 176.073 91.707 179.468 94.2412 180.621C94.2412 180.621 98.133 177.949 99.7306 176.073C98.4278 170.898 97.7954 165.61 97.541 160.78H112.556L127.567 124.851L128.306 141.205C128.979 156.374 122.275 166.671 122.275 166.671H172.829L165.861 80.2019C164.561 65.6002 172.829 54.9496 172.829 54.9496" fill="#002144"/>
<path d="M122.449 68.8144L122.487 68.8477C122.442 68.6908 122.437 68.6956 122.449 68.8144Z" fill="#002144"/>
<path d="M100.196 22.0664C96.9459 22.0664 94.3004 25.254 94.3004 29.168C94.3004 29.3107 94.3118 29.4476 94.3194 29.5883C95.3597 30.6515 97.5963 31.3894 100.192 31.3894C102.79 31.3894 105.021 30.6496 106.065 29.5845C106.067 29.4438 106.084 29.3107 106.084 29.168C106.084 29.0748 106.073 28.9835 106.069 28.8942C104.989 29.1927 103.066 29.5294 100.196 29.381V22.0664ZM88.9884 34.3659C88.9884 34.3659 82.1569 40.6554 78.9218 53.0461C78.9218 53.0461 79.1329 54.5657 82.1474 55.6384C82.1474 55.6384 83.1002 51.77 86.2992 50.3645H83.0412C83.0412 50.3645 84.9374 40.7315 90.9987 34.7824L88.9884 34.3659ZM90.5461 38.7668C90.5461 38.7668 88.6822 42.8863 90.1219 47.698C90.78 45.7543 91.8412 44.3602 92.7522 43.4511C91.8774 42.1255 91.0862 40.5793 90.5461 38.7668ZM110.118 38.7668C109.553 40.6573 108.719 42.2682 107.792 43.6337C108.739 44.6189 109.804 46.1005 110.4 48.1469C112.096 43.1449 110.118 38.7668 110.118 38.7668ZM98.4351 48.0765C94.0855 48.5957 92.1436 50.6878 91.6815 51.5189C91.6815 51.5189 93.2277 50.5718 95.006 52.8521C96.7823 55.1306 97.8417 54.4954 97.8417 54.4954C97.8417 54.4954 97.6629 55.3398 96.478 56.1557C96.5617 56.5684 96.672 57.1066 96.7861 57.7C97.7142 57.2816 98.8401 57.0249 100.189 57.0249C101.537 57.0249 102.659 57.2778 103.587 57.7C103.703 57.1066 103.81 56.5722 103.895 56.1595C102.707 55.3436 102.532 54.4954 102.532 54.4954C102.532 54.4954 103.587 55.1306 105.367 52.8521C107.144 50.5718 108.97 51.5341 108.97 51.5341C108.506 50.6992 106.286 48.5957 101.938 48.0765C101.404 50.3455 100.185 50.684 100.185 50.684C100.185 50.684 98.9695 50.3455 98.4351 48.0765ZM67.3736 61.2337L38.1017 61.2375C39.9865 63.5521 42.5103 69.5468 41.6944 80.6272L35.4619 159.77H66.8581C65.814 157.459 63.9197 150.924 64.167 140.398L66.2743 94.2028L89.7872 149.688C89.6674 142.604 87.3243 137.596 87.3243 137.596C87.3243 137.596 87.6647 136.921 87.8264 135.631C87.9215 134.175 87.6666 131.801 86.206 128.155C83.4349 121.23 82.7236 115.542 82.6209 114.176C82.3242 113.591 82.1302 112.963 82.0123 112.297C78.3778 106.249 77.5714 98.7559 77.5391 93.52C74.9278 92.1412 74.6159 90.6482 74.6159 90.6482C74.6159 87.5805 75.9682 85.6995 77.425 84.5489C77.1302 81.6428 77.153 78.7158 77.2919 76.1768L67.3736 61.2318V61.2337ZM132.65 61.2337L123.156 75.534C123.35 78.5789 123.392 82.2704 122.91 85.8307C124.226 86.911 125.369 88.5904 125.369 91.1997C125.369 91.1997 125.029 92.5805 122.079 93.8148C121.779 98.8434 120.668 105.776 117.092 110.831C117.072 110.877 117.056 110.905 117.056 110.905C117.751 114.359 115.911 119.545 115.911 119.545C115.911 119.545 115.683 119.795 115.318 120.236C115.139 121.548 114.964 122.377 114.947 122.461L114.89 122.721L114.734 122.944C114.689 123.016 111.807 125.841 109.998 129.717C109.356 131.938 109.173 134.27 109.936 136.451C111.029 139.561 110.541 141.552 109.601 142.828C109.58 144.456 109.234 145.858 108.616 147.052C107.551 149.112 104.386 150.329 104.386 150.329C99.3365 147.653 100.71 143.098 101.607 140.748C101.687 140.54 101.763 140.341 101.841 140.135C102.511 138.323 101.704 137.035 101.693 137.026L101.284 136.436L101.533 135.77C104.888 126.828 102.572 123.102 102.551 123.026L102.269 122.09L105.052 120.068C104.612 115.707 102.473 114.853 101.476 114.694C95.3179 120.137 97.0524 135.747 98.2144 141.43L98.2658 141.71C98.2658 141.71 97.4594 147.012 97.4042 154.525H108.18L133.808 94.199L135.858 140.39C136.106 150.917 134.209 157.456 133.169 159.766H164.562L158.331 80.6253C157.507 69.5449 160.029 63.5502 161.916 61.2356L132.652 61.2318L132.65 61.2337ZM100.185 62.1771C96.9364 62.1771 95.4929 66.0626 95.4929 66.0626C95.4929 66.0626 96.8489 65.7507 97.5735 67.4262C95.3749 66.6065 94.985 68.3924 94.985 68.3924C94.985 68.3924 97.6001 67.3977 96.5484 71.8196H103.825C102.771 67.3977 105.39 68.3924 105.39 68.3924C105.39 68.3924 105 66.6065 102.804 67.4262C103.528 65.7507 104.881 66.0626 104.881 66.0626C104.881 66.0626 103.433 62.1771 100.185 62.1771ZM96.1699 77.9113C95.8314 79.0638 96.3924 80.6576 100.185 80.6576C103.973 80.6576 104.538 79.0638 104.203 77.9113C104.203 77.9113 103.77 78.9117 100.185 78.9117C96.5997 78.9117 96.1699 77.9113 96.1699 77.9113ZM84.926 80.8801C82.1417 89.6915 83.2942 99.2713 84.6616 105.53C85.333 109.56 86.5787 112.398 86.5787 112.398L88.5434 111.4C88.5434 111.4 85.5156 118.3 91.8983 132.691C90.4453 121.807 93.8002 112.967 93.8002 112.967C93.4978 112.72 93.2106 112.457 92.9272 112.2C90.4167 109.427 91.2783 104.011 91.8793 101.42C92.1113 100.515 92.2692 99.9769 92.2692 99.9769C95.6754 106.377 100.156 99.9769 100.156 99.9769V85.5112C88.7735 111.419 84.926 80.8801 84.926 80.8801ZM110.118 103.999C110.118 103.999 108.603 108.125 104.683 110.122C104.683 110.122 108.005 113.532 108.31 121.149L106.872 122.497L110.415 121.573C110.415 121.573 110.491 116.594 108.911 110.761C108.911 110.761 110.495 107.91 110.118 103.999Z" fill="#ECAC00"/>
<path d="M95.2779 32.4375L96.1109 36.2165C96.9725 40.0926 100.192 39.775 100.192 39.775C99.1824 39.2082 98.7964 38.088 98.7964 38.088H100.154V37.4965C99.0797 37.4965 98.338 36.9297 98.338 36.9297C98.338 36.5094 98.7792 36.4143 99.3308 36.6121C99.8804 36.8061 100.196 36.7662 100.196 36.7662V36.5703C99.0854 36.0359 98.8097 35.0431 98.8097 35.0431C99.365 35.3873 100.145 35.568 100.145 35.568V32.8293C98.1725 32.8293 97.8454 34.0636 97.8454 34.0636C96.4513 33.9229 95.4529 32.7095 95.3045 32.4774C95.2836 32.4546 95.2779 32.4394 95.2779 32.4394V32.4375ZM100.333 44.1398C93.6841 44.1398 92.1474 47.6278 92.4175 48.6967C92.4175 48.6967 94.7663 46.1006 100.333 46.1006C105.904 46.1006 108.253 48.6967 108.253 48.6967C108.519 47.6278 106.986 44.1398 100.333 44.1398ZM87.7864 51.753C87.4231 51.7777 87.1511 51.8234 87.0827 51.8272C84.5189 53.0006 84.1005 56.1996 84.1005 56.1996C84.1005 56.1996 85.1161 56.9128 86.1508 56.0474C87.1854 55.1859 87.9442 55.5758 87.9442 55.5758C86.7213 56.7606 86.7974 57.8789 86.7974 57.8789C88.9009 56.9318 89.9754 55.2068 89.9754 55.2068L90.643 53.75C90.7971 51.7986 88.8723 51.6807 87.7864 51.753ZM100.189 57.025C93.1687 57.025 92.1987 63.8071 93.6442 65.7736C93.6442 65.7736 94.8956 59.9919 100.189 59.9919C105.489 59.9919 106.741 65.7736 106.741 65.7736C108.178 63.8071 107.214 57.025 100.189 57.025ZM85.3444 57.9797C85.2588 67.7193 87.638 72.0556 89.7719 73.9936C89.7662 73.2709 89.8176 72.5348 89.9108 71.795C89.8385 71.4051 89.7929 71.0038 89.7757 70.5987C87.0313 65.0338 85.3444 57.9797 85.3444 57.9797ZM115.035 57.9797C115.035 57.9797 113.351 65.0433 110.599 70.6082C110.58 71.0133 110.531 71.4032 110.462 71.795C110.556 72.5348 110.611 73.2728 110.603 73.9936C112.739 72.0594 115.118 67.7269 115.035 57.9797ZM67.3716 61.2339L38.0998 61.2377C39.9864 63.5523 42.5083 69.547 41.6924 80.6273L35.46 159.77H41.8217L48.1037 79.8285C48.6324 72.3256 46.953 66.8159 46.953 66.8159H64.4807L76.7136 85.1956C76.9457 84.9617 77.1796 84.7411 77.423 84.549C77.1282 81.6448 77.1511 78.7178 77.2899 76.1769L67.3716 61.2339ZM132.64 61.2339L123.15 75.5265C123.346 78.5562 123.39 82.2268 122.916 85.7719L135.531 66.8159H153.061C153.061 66.8159 151.38 72.3275 151.904 79.8285L158.19 159.77H164.554L158.321 80.6273C157.502 69.547 160.022 63.5523 161.908 61.2377L132.64 61.2339ZM96.2155 73.3469C96.2155 73.7711 96.3467 74.625 100.183 74.625C104.017 74.625 104.154 73.7711 104.154 73.3469H100.183H96.2155ZM104.376 141.05C104.376 141.05 101.602 144.22 105.365 146.74L105.763 143.378C105.763 143.378 104.772 142.446 104.376 141.05ZM92.8511 168.994L91.845 173.652C91.845 173.652 92.1664 174.517 94.1653 176.684L94.0645 171.554L92.8511 168.994Z" fill="white"/>
</svg>
