<svg width="200" height="200" viewBox="0 0 200 200" fill="none" xmlns="http://www.w3.org/2000/svg">
<g clip-path="url(#clip0_154_2407)">
<path d="M112.527 71.4591C112.529 73.6654 112.559 75.8112 112.588 77.8479L112.602 78.6277C111.524 78.7561 110.439 78.8941 109.352 79.0394C110.381 76.5425 111.457 73.9827 112.527 71.4591ZM181.176 109.082C181.176 109.082 176.742 103.917 175.059 101.846L178.914 93.5099C178.914 93.5099 170.264 87.3996 157.135 82.7376C161.874 82.8998 169.094 83.4642 178.309 85.1522L200.469 31.4238H171.891L151.465 80.9188C150.412 80.6136 149.341 80.3206 148.249 80.0494L168.287 31.4238H142.991C142.991 31.4238 136.101 48.006 135.21 50.3044L134.96 31.4238H103.784L82.1258 83.9582C80.5952 84.2924 79.1348 84.6218 77.7568 84.939C78.1055 84.2536 78.4349 83.5561 78.7182 82.8393L99.9094 31.4213H71.4237L52.0006 78.4243C51.1772 80.3739 49.0459 81.9868 47.1424 82.0982L46.9413 82.1031C46.5054 82.1031 45.9169 82.0135 45.5876 81.597C45.2872 81.2095 45.2194 80.5603 45.4034 79.8144C45.464 79.5771 45.5439 79.3422 45.6578 79.0782L65.34 31.4213H36.8156L17.3441 78.5672C16.7483 79.9888 16.2736 81.4904 15.966 82.912C14.6873 88.8479 15.8644 94.4447 19.2816 98.6757C21.8051 101.8 25.3095 103.856 29.383 104.67C11.1248 109.843 0.46875 113.26 0.46875 113.26C0.46875 113.26 21.5581 115.263 45.6771 117.82C40.8722 119.491 36.3531 121.291 32.3813 123.221C32.3813 123.221 78.7159 124.858 91.6291 136.452C97.1799 141.436 101.733 144.969 107.197 147.335C110.817 156.134 118.448 168.754 132.471 168.754C145.539 168.754 150.104 160.505 151.623 156.051C154.006 154.063 157.936 149.711 155.723 143.889C155.723 143.889 164.517 143.526 170.07 136.207C177.115 135.725 182.688 129.871 182.688 122.703C182.688 120.027 181.903 117.542 180.566 115.442C183.16 110.918 181.176 109.082 181.176 109.082Z" fill="#FFCC00"/>
<path fill-rule="evenodd" clip-rule="evenodd" d="M179.467 124.111C178.658 129.56 174.19 133.338 168.682 133.234C167.135 135.515 165.941 136.675 163.613 138.16C161.477 139.519 160.068 140.083 157.581 140.572C158.348 139.405 158.69 138.659 159.07 137.32C159.349 136.348 159.448 135.774 159.504 134.765C156.384 135.53 154.546 136.775 152.689 139.398C151.248 141.425 150.717 142.916 150.543 145.399L152.587 143.696C153.674 145.997 153.689 147.905 152.64 150.223C151.826 152.035 150.904 153.008 149.143 153.924C148.755 155.621 148.39 156.566 147.544 158.084C144.001 164.42 135.581 166.929 128.475 165.466C116.453 162.996 109.103 144.75 109.016 144.706C105.579 142.88 99.1999 139.47 95.1554 135.113C91.3629 131.318 83.5161 125.179 45.6943 121.004L61.3297 116.167L14.7529 111.81C48.075 102.699 65.7204 97.8001 83.4458 93.6854L73.8433 89.0137C97.8921 83.7655 108.175 81.8596 121.425 80.7601C148.547 78.5078 163.306 88.4615 175.011 94.768L171.53 102.273C172.087 103.034 178.883 110.883 178.876 111.064C178.745 113.409 178.062 113.985 176.769 115.3C179.195 117.95 179.995 120.556 179.467 124.111Z" fill="#4B116F"/>
<path fill-rule="evenodd" clip-rule="evenodd" d="M129.21 82.8204C126.979 82.8166 124.617 82.9076 122.092 83.1072C107.023 84.2987 104.109 85.591 83.9241 89.495L93.7548 94.4937C70.4335 99.2366 54.0852 104.007 30.1826 110.079L72.3303 113.684L58.6091 119.413C88.5624 123.273 96.2173 131.788 96.973 132.704C102.404 139.247 111.62 142.818 111.62 142.818C113.761 148.834 116.146 152.37 118.882 155.549C121.991 159.172 128.434 162.505 134.726 161.747C139.351 161.189 142.195 159.771 145.408 156.4C141.035 157.787 137.573 157.297 133.758 154.747C130.129 152.321 128.906 149.477 127.847 145.244C127.021 141.95 128.145 140.509 126.159 137.759C124.047 134.843 117.411 133.311 114.077 134.659C119.089 130.957 127.577 128.818 133.758 127.993C138.187 127.4 147.471 127.549 152.47 129.651C160.685 133.105 171.118 127.58 169.399 120.219C168.041 114.384 161.279 110.91 155.746 113.19L155.913 110.611C159.088 109.404 160.975 108.907 164.337 108.403C167.681 107.899 169.632 107.816 173.013 108.031C171.56 105.617 170.457 104.353 168.264 102.583C165.232 100.132 163.025 99.1049 159.201 98.3512L165.1 97.6401L167.514 94.3522C154.055 87.666 144.836 82.8476 129.21 82.8204ZM173.825 119.072L170.982 122.55C171.372 123.697 171.43 124.451 171.209 125.644C170.934 127.165 170.426 128.068 169.275 129.107C172.399 129.058 174.851 126.859 175.229 123.765C175.464 121.868 175.065 120.527 173.825 119.072Z" fill="#FFCC00"/>
<path d="M124.141 88.9086C119.098 88.9958 113.989 89.6565 109.55 90.4974C116.997 90.4974 119.774 91.0282 123.616 92.3903C126.958 93.5721 131.385 95.8041 136.701 99.2121C135.177 97.1797 134.146 95.775 132.739 94.661C130.616 92.9812 128.196 91.8691 125.586 91.1522C131.862 90.1525 137.655 91.7277 139.902 92.3438C142.702 93.1149 145.372 94.0119 148.16 95.3372C145.221 93.4888 142.527 92.2237 138.329 90.7589C134.16 89.3039 129.184 88.8195 124.141 88.9086ZM144.198 129.878C142.882 129.878 146.678 131.235 147.561 133.306C148.443 135.367 148.307 136.454 148.307 136.454C148.307 136.454 153.588 132.387 152.36 131.463C151.103 130.516 147.576 129.871 144.198 129.878ZM166.411 133.321C165.481 133.571 163.776 133.935 161.435 134.135C161.427 135.094 161.294 136.83 160.554 138.085C161.542 137.603 164.812 135.861 166.411 133.321ZM142.812 142.947C141.892 144.535 141.02 145.409 139.315 146.473C138.228 147.151 137.523 147.459 136.273 147.813C135.661 148.74 135.694 149.61 136.357 150.371C137.052 151.173 138.112 151.413 139.342 151.055C141.258 149.673 142.165 148.449 142.748 146.457C143.153 145.087 143.169 144.243 142.812 142.947ZM151.091 146.031C150.161 147.083 149.487 147.629 148.193 148.354C147.044 149.007 146.302 149.294 145.004 149.598C144.329 150.354 144.112 150.983 144.209 151.851C144.302 152.69 144.632 153.194 145.397 153.674C147.456 153.32 148.795 152.562 150.047 151.051C151.461 149.352 151.779 147.813 151.091 146.031Z" fill="white"/>
<path fill-rule="evenodd" clip-rule="evenodd" d="M38.6768 34.2051L19.9085 79.6464C19.397 80.8709 18.9611 82.2078 18.6821 83.5039C16.4463 93.8791 23.0492 102.284 33.4224 102.284C34.9685 102.284 36.4836 102.098 37.9967 101.747C46.4809 99.4338 53.7503 97.475 60.3377 95.741C67.3591 93.883 73.4931 88.4929 76.1474 81.7854L95.7565 34.2031H73.2819L54.5582 79.5069C53.3415 82.388 50.3113 84.6994 47.3082 84.8757C43.9351 85.0752 41.8736 82.5178 42.7067 79.1505C42.8016 78.7688 42.9295 78.389 43.0884 78.0228L61.1882 34.2051H38.6768ZM105.643 34.2089L85.6449 82.7231C94.4081 80.9077 100.691 79.7608 106.496 78.9141C107.823 75.6746 109.162 72.2918 110.549 69.0136C112.087 65.3906 113.535 61.969 114.848 58.7373L115.862 56.236L115.67 58.9252C115.228 65.1561 115.277 71.6563 115.37 77.8078C116.664 77.6799 117.968 77.5598 119.303 77.4494C121.957 77.2304 124.6 77.1161 127.153 77.1161C133.731 77.1161 139.694 77.7497 145.734 79.0807L164.167 34.2089H144.811L132.751 63.4608L131.559 66.4271L131.929 63.2516C132.315 60.0044 132.493 56.8444 132.464 53.8626L132.216 34.2109H105.643V34.2089ZM173.769 34.2089L154.917 80.0146C154.917 80.0146 163.624 79.7046 176.688 82.047L196.404 34.2089H173.769ZM130.158 90.8276C128.699 90.8121 127.159 90.8993 125.592 91.1492C128.199 91.8661 130.617 92.9801 132.739 94.658C134.178 95.7991 135.221 97.2387 136.8 99.3466L153.635 98.4224C148.694 95.1888 144.468 93.5962 139.9 92.3407C138.214 91.8777 134.539 90.8779 130.158 90.8276ZM132.1 107.618C125.896 107.511 119.609 107.875 111.638 108.689C101.272 109.745 95.3613 110.807 85.1528 113.426L95.772 116.908L95.0939 114.43C104.103 112.589 109.243 111.779 118.309 110.782C131.518 109.33 139.028 109.024 152.063 109.389C144.424 108.305 138.305 107.724 132.1 107.618ZM150.223 111.785C138.464 111.692 131.681 112.163 119.826 113.899C111.216 115.162 106.345 116.144 97.8664 118.345L106.736 122.073L107.118 119.349C112.57 117.743 115.689 116.949 121.225 115.757C132.45 113.335 138.927 112.45 150.223 111.785ZM145.96 114.593C137.811 115.317 133.155 116.096 125.109 118.09C118.83 119.64 115.309 120.74 109.243 123.03L116.441 126.733L116.838 123.832C120.839 121.998 123.162 121.052 127.32 119.583C134.423 117.073 138.59 115.958 145.96 114.593Z" fill="#4B116F"/>
</g>
<defs>
<clipPath id="clip0_154_2407">
<rect width="200" height="200" fill="white"/>
</clipPath>
</defs>
</svg>
