<svg width="200" height="200" viewBox="0 0 200 200" fill="none" xmlns="http://www.w3.org/2000/svg">
<g clip-path="url(#clip0_154_2405)">
<path d="M194.943 72.6715L192.935 72.1726C191.993 71.9377 180.743 69.3881 176.955 68.5497L171.903 67.4581C166.6 66.3621 161.201 65.3718 155.847 64.5119L150.248 63.7026L149.586 63.6099V13.2552H84.5898L73.5895 16.4632L56.0136 13.1593V62.3696C53.4985 62.6605 50.9801 62.9763 48.4865 63.3179L43.342 64.0593L43.315 64.0636C40.7622 64.4504 31.5874 66.0378 31.4915 66.0539L31.444 66.0615C28.9009 66.5324 19.1797 68.5163 19.0849 68.5357L19.0127 68.5508C15.2981 69.373 9.40254 70.9 8.45317 71.136L6.43695 71.6381L1.42602 79.9756L1.40234 107.536L9.00704 116.1L14.033 114.813C17.3661 113.959 22.5785 112.743 24.1001 112.395L28.7877 111.386L43.1329 108.803L48.8259 107.949L50.7958 107.679C52.5265 107.443 54.2711 107.219 56.0147 107.006L56.0201 144.759L44.6265 186.262L110.711 170.905L129.836 150.68H149.585V108.336C151.559 108.628 153.162 108.869 153.195 108.874C158.279 109.69 163.412 110.633 168.447 111.673L173.303 112.711C177.023 113.536 183.672 114.906 187.37 115.855L192.443 117.154L200 108.499V80.9907L194.941 72.6737L194.943 72.6715Z" fill="#D0D0CE"/>
<path d="M191.728 77.0401C191.728 77.0401 179.732 74.3008 175.875 73.4463L170.887 72.3687C165.658 71.2889 160.336 70.3115 155.07 69.4666L149.549 68.6681L147.987 68.4494C146.876 68.2931 145.758 68.1423 144.641 67.9968V18.1561H85.2426L73.7886 21.4956L60.8648 19.0667V61.7994C61.6407 62.0462 68.5051 64.2316 73.8015 65.7747C72.5634 65.8577 71.3252 65.9471 70.0935 66.043L62.3368 66.7241L60.4359 66.9235C56.6912 67.3168 52.9023 67.7748 49.1738 68.2845L44.0637 69.0216C41.5658 69.3998 32.3554 70.9925 32.3554 70.9925C29.8726 71.4527 20.0943 73.4473 20.0943 73.4473C16.244 74.2986 9.66091 76.0034 9.66091 76.0034L6.4356 81.37L6.41406 105.635L10.7234 110.487L12.786 109.958C16.5393 108.997 23.0481 107.493 23.0481 107.493L27.823 106.468L42.3234 103.855L48.1231 102.987L50.1145 102.714C53.6728 102.227 57.2892 101.79 60.8669 101.411L60.8723 145.419L51.4809 179.629L108.118 166.468L127.679 145.78H144.64V107.624C143.141 106.835 135.893 103.025 132.247 101.126C134.79 101.393 138.981 101.838 140.631 102.039L143.532 102.404C146.021 102.727 153.969 103.92 153.969 103.92C159.136 104.75 164.354 105.707 169.481 106.767L174.373 107.814C178.151 108.65 184.857 110.034 188.614 110.998L190.696 111.531L194.985 106.618V82.3948L191.728 77.0401ZM125.962 32.9905L116.062 45.0436V65.431L105.518 65.0377C104.845 65.0236 96.9821 64.9601 96.9821 64.9601C96.3021 64.9622 95.62 64.9654 94.9367 64.9719L90.8364 65.0301C90.4668 65.0366 90.0983 65.0473 89.7287 65.056V62.1205L89.7157 62.1152V45.0425L79.8157 32.9883H125.962V32.9905ZM79.8125 131.601L89.7147 119.544V99.5514C91.7783 99.504 93.8549 99.4717 95.9066 99.4598L99.4315 99.4394L101.01 99.4501L104.491 99.5137C106.503 99.5504 113.499 99.8252 115.997 99.9243V119.545L125.824 131.535L79.8125 131.601Z" fill="#28419E"/>
<path d="M100.033 69.1375C97.1874 69.1335 94.3408 69.1626 91.4951 69.2256C91.4903 70.5462 91.4846 71.8677 91.4798 73.1883C91.9768 73.3232 92.4747 73.459 92.9717 73.5956C92.9467 79.4858 92.9224 85.3769 92.8966 91.2671C92.3979 91.4223 91.8984 91.5783 91.3998 91.7351C91.3949 93.0557 91.3884 94.3763 91.3828 95.6969C93.8624 95.642 96.3436 95.6129 98.8248 95.6088C98.8296 94.2882 98.8361 92.9684 98.8418 91.6478C98.3439 91.5023 97.846 91.3576 97.3482 91.2138C97.37 85.996 97.3918 80.7782 97.4137 75.5596C99.0527 80.8299 100.691 86.1099 102.33 91.4029C102.872 91.4086 103.415 91.4142 103.958 91.4207C105.64 86.1617 107.324 80.914 109.007 75.6784C108.994 78.5992 108.982 81.5201 108.969 84.4402C108.96 86.7387 108.951 89.0357 108.941 91.3342C108.442 91.4668 107.943 91.6017 107.444 91.7359C107.439 93.0573 107.433 94.3771 107.427 95.6977C109.907 95.7535 112.387 95.8335 114.865 95.9402C114.871 94.6196 114.877 93.2982 114.883 91.9767C114.385 91.8102 113.888 91.6454 113.391 91.4797C113.414 85.9063 113.437 80.3337 113.461 74.7594C112.959 74.4216 112.458 74.0854 111.955 73.7492C112.956 73.7855 113.959 73.8243 114.96 73.868C114.966 72.4011 114.971 70.9358 114.977 69.4689C112.134 69.3468 109.289 69.2596 106.444 69.2046C105.354 72.9846 104.263 76.7678 103.173 80.5583C102.126 76.746 101.081 72.9393 100.034 69.1367L100.033 69.1375ZM81.4757 69.5853L81.4741 69.5869C78.8475 69.7178 76.2216 69.8762 73.5973 70.0653C73.5925 71.3892 73.5876 72.7139 73.582 74.0377C74.0661 74.1452 74.551 74.2535 75.0351 74.3634V74.365C73.5327 80.3547 72.0294 86.3532 70.5269 92.3631C70.0307 92.5481 69.5361 92.7356 69.0398 92.9223C69.0342 94.2438 69.0285 95.5636 69.0229 96.8842C71.4677 96.6781 73.9158 96.4987 76.3646 96.3419C76.3695 95.0213 76.3743 93.7006 76.38 92.38C75.8846 92.2661 75.3891 92.1521 74.8945 92.0406C75.1741 90.8848 75.4554 89.7299 75.7358 88.575C77.7208 88.444 79.7066 88.3317 81.6932 88.2339C81.9631 89.3517 82.2322 90.4694 82.5022 91.5888C82.503 91.5936 82.5062 91.5977 82.5078 91.6025L82.5062 91.6041C82.0092 91.7731 81.5113 91.942 81.0143 92.1125C81.0094 93.4339 81.0046 94.7546 80.9989 96.076C83.4607 95.9507 85.9217 95.8513 88.3843 95.7753C88.3892 94.4547 88.394 93.1341 88.3997 91.8127C87.9034 91.6817 87.4072 91.5532 86.911 91.4247C85.0982 84.1306 83.2869 76.8495 81.4757 69.5853ZM119.967 69.7178C119.299 70.5729 118.631 71.4296 117.963 72.2879C117.933 79.3032 117.904 86.3168 117.874 93.3321C118.534 94.2826 119.195 95.2354 119.854 96.1899C123.659 96.4049 127.46 96.6813 131.257 97.0184C131.924 96.1722 132.589 95.3292 133.255 94.4862L133.346 73.3685C132.687 72.4261 132.028 71.4854 131.371 70.547C127.573 70.2108 123.771 69.9336 119.967 69.7178ZM64.1 70.8719C60.4033 71.2356 56.7122 71.6567 53.0251 72.1344C52.3608 73.1123 51.6973 74.0919 51.0337 75.073C51.0038 82.0883 50.9747 89.1044 50.9448 96.1188C51.6003 96.9464 52.2565 97.7764 52.912 98.6073C56.5999 98.1296 60.2918 97.7086 63.9869 97.3457C64.6537 96.3758 65.3196 95.4068 65.9864 94.441C65.9929 92.5837 66.0018 90.7272 66.0098 88.87C64.6941 89.3775 63.3807 89.8916 62.0666 90.4137C62.0609 91.3229 62.0585 92.2329 62.0545 93.143C59.8262 93.3741 57.6004 93.6255 55.3754 93.8979C55.3988 88.3252 55.4223 82.7534 55.4457 77.18C54.9454 76.923 54.446 76.6676 53.9457 76.413C56.671 76.0679 59.3995 75.7535 62.1296 75.4707C62.1248 76.3912 62.1224 77.3126 62.1167 78.2339C63.4284 78.4845 64.7401 78.7415 66.0519 79.005C66.0599 77.1113 66.0672 75.2161 66.0753 73.3232C65.4174 72.5037 64.7587 71.6874 64.1 70.8719ZM136.346 71.0223C136.34 72.3421 136.335 73.6635 136.33 74.9841C136.826 75.1813 137.321 75.3777 137.816 75.5773C137.791 81.4676 137.768 87.3586 137.743 93.2489C137.245 93.3418 136.748 93.4356 136.251 93.5309C136.245 94.8515 136.24 96.1713 136.234 97.4928C138.705 97.7465 141.173 98.0246 143.639 98.3293C143.644 97.0086 143.651 95.688 143.656 94.3674C143.161 94.1605 142.667 93.9544 142.172 93.7499C142.178 91.9654 142.187 90.1817 142.194 88.3972C143.328 88.533 144.463 88.672 145.596 88.8182C146.413 90.7087 147.229 92.6015 148.046 94.4983C148.046 94.5008 148.045 94.504 148.043 94.5048C147.549 94.5808 147.054 94.66 146.561 94.7384C146.555 96.059 146.55 97.3788 146.545 98.6994C149.053 99.0308 151.558 99.3872 154.06 99.7695C154.066 98.4489 154.07 97.1283 154.076 95.8077C153.583 95.5862 153.09 95.3656 152.597 95.1465C151.639 92.9369 150.682 90.7321 149.723 88.5305C150.507 87.8088 151.29 87.0903 152.074 86.3734C152.088 82.7922 152.104 79.2127 152.119 75.6315C151.464 74.6544 150.809 73.6805 150.153 72.7066C145.56 72.0568 140.956 71.4943 136.346 71.0223ZM48.0013 72.823C45.5395 73.177 43.0809 73.556 40.6256 73.9609C40.6199 75.2823 40.6143 76.6022 40.6078 77.9228C41.1008 77.9874 41.5946 78.0537 42.0876 78.12C40.8931 80.4622 39.6994 82.8092 38.5073 85.1627C37.5495 83.573 36.5942 81.9881 35.6373 80.4064C35.0166 80.1203 34.3967 79.8358 33.776 79.5529C34.6723 79.3881 35.5694 79.2272 36.4665 79.0696C36.4722 77.6027 36.4778 76.1358 36.4835 74.6697C34.0314 75.1037 31.5841 75.562 29.1385 76.0477C29.1336 77.3691 29.1272 78.6914 29.1215 80.0128C29.6121 80.0605 30.1027 80.1098 30.5933 80.1599C32.4893 83.4057 34.3886 86.6684 36.2879 89.9465C36.2782 92.22 36.2693 94.4919 36.2596 96.7654C35.7666 96.999 35.2736 97.2325 34.7806 97.4677C34.7749 98.7883 34.7693 100.111 34.7628 101.431C37.2141 100.986 39.6679 100.565 42.1256 100.17C42.1305 98.8498 42.1369 97.5291 42.1426 96.2085C41.6496 96.1422 41.1558 96.076 40.6628 96.0113C40.6725 93.7758 40.683 91.5395 40.6927 89.3032C42.461 85.6735 44.231 82.056 46.0026 78.4521C45.5104 78.2129 45.0174 77.9729 44.526 77.7353C45.6769 77.5583 46.8302 77.3877 47.9827 77.2221C47.9892 75.7551 47.9948 74.2899 48.0013 72.823ZM157.11 73.7144C157.105 75.0383 157.101 76.3605 157.095 77.6835C157.587 77.909 158.08 78.1353 158.573 78.3624C158.547 84.264 158.522 90.1663 158.498 96.0671C158.004 96.1309 157.511 96.1956 157.017 96.2611C157.011 97.5849 157.005 98.9088 157 100.233C162.193 101.072 167.372 102.024 172.534 103.091C172.544 100.558 172.556 98.023 172.566 95.4884C171.269 95.6064 169.971 95.7317 168.67 95.8642C168.667 96.5431 168.664 97.2212 168.661 97.9009C166.741 97.5259 164.82 97.1663 162.896 96.8228C162.905 94.6042 162.914 92.3865 162.924 90.168C164.41 90.4331 165.897 90.7078 167.381 90.9923C167.38 91.2986 167.377 91.6042 167.375 91.9105C168.685 92.161 169.993 92.4196 171.301 92.6847C171.309 90.6028 171.318 88.5216 171.328 86.4405C170.02 86.1754 168.712 85.9168 167.401 85.6662C167.401 85.9717 167.399 86.2789 167.397 86.5844C165.913 86.3007 164.428 86.0259 162.941 85.76C162.948 83.8696 162.958 81.9776 162.966 80.0872C162.462 79.6742 161.957 79.2628 161.452 78.8514C163.883 79.2749 166.312 79.7227 168.736 80.1971C168.733 80.876 168.729 81.5573 168.726 82.2362C170.023 82.8755 171.319 83.5221 172.613 84.1759C172.624 81.6413 172.634 79.106 172.644 76.5714C167.483 75.5046 162.304 74.5525 157.11 73.7136V73.7144ZM120.838 74.1646C123.616 74.3303 126.39 74.5283 129.165 74.7586C129.139 80.6497 129.115 86.5399 129.09 92.4309C126.837 92.2451 124.582 92.0802 122.327 91.9371C122.35 86.3742 122.374 80.8129 122.399 75.25C121.878 74.8871 121.358 74.5251 120.838 74.1646ZM140.764 75.899C143.076 76.1665 145.387 76.4567 147.695 76.7686C147.684 79.4083 147.671 82.0495 147.661 84.6891C145.846 84.445 144.03 84.2139 142.213 83.9981C142.223 81.6696 142.232 79.3404 142.243 77.0127C141.75 76.6401 141.257 76.27 140.764 75.899ZM78.799 76.034C79.3946 78.6518 79.9903 81.2696 80.5859 83.8898C79.3615 83.9536 78.137 84.0239 76.9134 84.1007C77.5422 81.4102 78.1694 78.7213 78.799 76.034ZM24.4202 76.9796C20.6135 77.7878 16.8157 78.6582 13.0301 79.5901C12.3762 80.644 11.7208 81.7003 11.0661 82.7575C11.0532 85.7196 11.0427 88.6809 11.0297 91.6429C11.6335 92.334 12.2356 93.029 12.8393 93.7233C15.8628 93.872 18.8936 94.0603 21.9301 94.2882C21.9236 96.0606 21.9139 97.833 21.9066 99.6062C19.7164 100.087 17.5302 100.587 15.3472 101.109C15.3504 100.469 15.3512 99.8301 15.3537 99.19C13.8997 99.1051 12.4481 99.0292 10.9974 98.9613C10.9909 100.622 10.9829 102.283 10.9756 103.943C11.623 104.661 12.2695 105.38 12.9169 106.102C16.7026 105.169 20.5003 104.298 24.3078 103.49C24.9657 102.457 25.6244 101.426 26.2831 100.397C26.2968 97.2915 26.3106 94.1848 26.3243 91.0788C25.8798 90.526 25.4328 89.9756 24.9883 89.4252C21.7846 89.1512 18.5881 88.9209 15.3989 88.7358C15.4038 87.3166 15.4094 85.8982 15.4159 84.4798C14.8695 84.2583 14.3256 84.0369 13.7801 83.8179C16.5086 83.1487 19.242 82.5126 21.9818 81.908C21.9777 82.498 21.9753 83.088 21.9705 83.6772C23.4301 83.7912 24.8905 83.914 26.3534 84.0466C26.3599 82.435 26.3671 80.8226 26.3736 79.2119C25.7222 78.4659 25.0708 77.7223 24.4202 76.9796ZM177.549 77.6286C176.891 78.3778 176.234 79.1286 175.577 79.8811C175.564 82.8432 175.551 85.8052 175.538 88.7665C176.145 89.7428 176.752 90.7216 177.359 91.7011C180.393 93.2666 183.421 94.8717 186.441 96.5173C186.435 98.2897 186.426 100.064 186.418 101.836C184.239 101.296 182.056 100.777 179.87 100.277C179.874 99.6361 179.876 98.996 179.879 98.3559C178.423 97.5906 176.966 96.8341 175.507 96.0865C175.501 97.7474 175.494 99.4074 175.487 101.068C176.137 102.091 176.786 103.113 177.435 104.139C181.236 104.979 185.027 105.883 188.804 106.848C189.458 106.12 190.11 105.395 190.763 104.67C190.776 101.564 190.79 98.4578 190.803 95.351C190.363 94.5913 189.921 93.8308 189.48 93.0727C186.302 91.3051 183.117 89.582 179.923 87.9034C179.929 86.4841 179.934 85.0649 179.94 83.6457C179.394 83.1681 178.847 82.692 178.299 82.216C181.036 82.8246 183.768 83.4647 186.492 84.1387C186.487 84.7271 186.486 85.3171 186.481 85.9063C187.933 86.7007 189.383 87.5057 190.832 88.3196C190.839 86.7072 190.846 85.0964 190.852 83.4849C190.207 82.4342 189.562 81.3851 188.916 80.3377C185.138 79.3735 181.35 78.4699 177.549 77.6286Z" fill="white"/>
</g>
<defs>
<clipPath id="clip0_154_2405">
<rect width="200" height="200" fill="white"/>
</clipPath>
</defs>
</svg>
