<svg width="200" height="200" viewBox="0 0 200 200" fill="none" xmlns="http://www.w3.org/2000/svg">
<g clip-path="url(#clip0_154_2406)">
<path d="M168.905 102.406L168.935 102.402L168.955 102.399C174.781 101.591 178.998 101.732 180.848 102.714C183.308 104.02 181.813 105.848 181.813 105.848C181.813 105.848 185.028 104.024 185.028 99.8448C185.028 95.6642 182.238 91.2903 177.048 88.0526C171.602 84.6561 170.083 83.8831 166.651 81.6851C161.595 78.4452 153.64 75.9772 145.504 73.9202C138.891 72.2486 130.989 70.5304 122.535 68.8444C119.813 68.3013 117.033 67.7615 114.221 67.2283C99.8194 64.4949 84.5519 61.9192 71.6878 59.85C53.9446 56.9956 40.7773 55.1074 40.7773 55.1074C40.7773 55.1074 55.4185 70.7225 81.3453 77.5155L55.8994 74.3412C55.8994 74.3412 73.4772 88.1959 96.4718 93.6139L72.2576 91.5835C72.2576 91.5835 89.3323 105.695 109.891 109.642C110.556 109.771 111.225 109.888 111.897 109.993C111.897 109.993 111.053 110.139 109.686 110.31C107.561 110.574 104.162 110.9 100.611 110.837L95.8565 126.102H109.799C109.799 126.102 136.419 107.516 168.905 102.406Z" fill="white"/>
<path d="M40.7837 55.1133C41.0627 57.8527 42.4453 59.8564 42.4453 59.8564H0.601562L27.3221 76.0529L11.7307 126.11H37.48L46.6721 96.67L90.4928 143.357L100.622 110.845C104.168 110.907 107.562 110.582 109.694 110.317C111.063 110.147 111.898 110 111.898 110C111.232 109.894 110.565 109.779 109.899 109.651C89.3377 105.704 72.2651 91.5901 72.2651 91.5901L96.4817 93.6205C73.4833 88.203 55.905 74.3478 55.905 74.3478L81.3514 77.5208C55.4243 70.7287 40.7837 55.1133 40.7837 55.1133ZM71.6946 59.8564C84.5573 61.9249 99.8226 64.5026 114.226 67.2349L116.501 59.8564H71.6946ZM125.324 59.8564L122.543 68.8494C130.993 70.5368 138.892 72.2561 145.512 73.9275C153.642 75.9836 161.604 78.4502 166.66 81.689C170.089 83.8882 171.609 84.6603 177.056 88.0564C182.245 91.2942 185.035 95.6721 185.035 99.8528C185.035 104.032 181.818 105.854 181.818 105.854C181.818 105.854 183.311 104.027 180.85 102.719C179.001 101.737 174.79 101.599 168.961 102.407C168.508 102.486 149.777 105.98 128.274 126.109H158.583C158.991 126.109 159.391 126.104 159.8 126.094C164.047 125.996 168.25 125.329 172.231 124.053C172.799 123.871 173.368 123.677 173.928 123.469C174.674 123.193 175.412 122.896 176.14 122.575C176.496 122.414 176.86 122.246 177.216 122.075C183.729 118.95 188.545 114.55 190.028 109.685L200.14 77.1822C201.082 74.083 200.549 71.1552 198.843 68.6184C198.736 68.4602 198.63 68.3038 198.514 68.1483C198.274 67.8373 198.025 67.5335 197.759 67.2358C196.026 65.3005 193.547 63.6505 190.49 62.4056C186.554 60.7991 181.658 59.8653 176.149 59.8564H125.324Z" fill="#009A44"/>
<path d="M139.878 80.9219L146.107 84.7053C146.107 84.7053 149.324 84.7622 151.305 85.0679C151.305 85.0679 148.675 86.51 150.408 88.3857C151.554 89.6208 153.66 89.9878 155.526 89.9807C156.148 89.9789 156.743 89.9362 157.267 89.8696C157.685 89.8154 158.058 89.7425 158.396 89.6652C158.724 89.5915 159.018 89.5142 159.302 89.436C159.995 89.2476 160.608 89.0681 161.355 89.0095C161.523 88.997 161.692 88.989 161.879 88.9899C162.643 88.9935 163.558 89.1277 164.793 89.4866C164.793 89.4866 163.487 88.2151 160.297 86.6006C160.119 86.5082 159.924 86.4149 159.729 86.3189C159.311 86.1172 158.876 85.9111 158.396 85.7014C156.325 84.7906 153.704 83.8292 150.416 82.9575C149.146 82.6208 147.786 82.2982 146.32 81.9961C144.357 81.5945 142.215 81.2293 139.878 80.9219ZM168.961 102.409L168.943 102.411L168.907 102.414C136.422 107.523 109.801 126.11 109.801 126.11H128.274C149.777 105.982 168.507 102.487 168.961 102.409Z" fill="black"/>
</g>
<defs>
<clipPath id="clip0_154_2406">
<rect width="200" height="200" fill="white"/>
</clipPath>
</defs>
</svg>
