<svg width="200" height="200" viewBox="0 0 200 200" fill="none" xmlns="http://www.w3.org/2000/svg">
<g clip-path="url(#clip0_154_2404)">
<path d="M199.312 115.607C199.312 115.607 200.001 112.441 197.792 109.432C195.409 106.182 191.276 106.449 191.276 106.449C190.213 105.195 187.531 103.783 184.27 105.168C181.009 106.555 180.947 110.182 180.947 110.182L175.924 109.645C175.857 108.252 175.669 106.733 175.588 105.081C175.453 102.33 175.853 100.519 176.197 99.507C180.458 99.1112 182.591 97.1917 182.591 97.1917C181.289 95.9682 180.402 94.8981 179.814 94.0948C183.177 93.9355 186.205 92.4392 186.205 92.4392C180.925 89.434 180.03 86.4983 180.03 86.4983C183.269 85.3245 185.21 83.84 186.218 82.8823C182.408 82.5803 178.132 79.5067 174.293 70.3055C167.925 55.0402 153.886 54.9171 148.8 55.4165C151.291 57.2939 151.948 58.8175 151.948 58.8175C141.129 58.1383 132.959 63.4245 132.959 63.4245C120.529 51.0529 102.903 50.488 96.3302 50.7577C97.8079 52.4191 98.706 53.8734 98.706 53.8734C71.8256 50.5154 54.0888 65.4396 49.9666 69.339C53.5875 69.2911 56.4832 69.5901 56.4832 69.5901C45.4408 77.56 27.2524 77.4026 27.2524 77.4026C28.2102 79.7393 30.6475 83.3152 30.6475 83.3152L27.357 95.3936L24.2609 83.7775H11.2512L8.09849 94.9528H10.701L6.10091 111.559H3.47299L0.417969 122.731L15.9461 122.747L19.3774 110.507L22.5546 122.772H49.9167C59.2137 122.772 62.7495 119.83 62.7495 119.83C103.943 129.443 86.7479 149.16 86.7479 149.16C113.813 144.9 120.98 134.924 120.98 134.924C120.701 139.45 118.65 142.662 118.65 142.662C140.858 136.883 141.925 119.681 141.925 119.681C146.981 121.756 143.741 127.111 143.741 127.111C145.126 127.599 146.657 127.707 146.657 127.707C145.851 128.97 144.241 130.401 144.241 130.401C156.176 132.755 159.628 124.615 159.628 124.615C163.933 123.605 165.468 120.082 165.468 120.082C169.519 119.706 171.872 117.934 171.872 117.934L175.865 120.538C175.865 120.538 174.527 122.453 175.217 125.229C175.907 128.005 178.647 129.092 178.647 129.092C179.06 130.458 181.297 134.184 186.035 134.184C190.775 134.184 192.675 130.302 192.675 130.302C192.675 130.302 196.795 129.579 199.184 125.215C201.883 120.288 199.312 115.607 199.312 115.607Z" fill="#FFC82E"/>
<path d="M195.267 116.555L195.23 116.497L195.249 116.433C195.367 115.989 195.425 115.539 195.425 115.097C195.425 112.449 193.442 110.294 191.003 110.294C190.525 110.294 190.053 110.38 189.591 110.548L189.457 110.598L189.393 110.469C188.839 109.319 187.755 108.606 186.565 108.606C184.937 108.606 183.592 109.936 183.396 111.648L190.434 112.62C190.434 112.62 191.209 113.423 190.602 115.224L188.66 116.149L176.091 112.715C175.983 113.234 175.839 113.744 175.659 114.244L192.856 120.769L192.896 122.51L190.542 123.036L175.085 115.534C174.885 115.906 174.661 116.269 174.403 116.616L187.064 123.54C186.458 125.21 184.765 125.209 184.765 125.209L179.073 121.089C179.061 121.202 179.05 121.316 179.05 121.432C179.05 123.106 180.409 124.461 182.082 124.461C182.133 124.461 182.178 124.449 182.229 124.446C182.748 126.55 184.642 128.109 186.906 128.109C188.161 128.109 189.3 127.63 190.156 126.846L190.168 126.814L190.274 126.812C193.623 126.712 196.246 123.79 196.246 120.158C196.246 118.882 195.906 117.634 195.267 116.555Z" fill="white"/>
<path d="M101.075 52.922C103.624 55.7581 104.547 58.225 104.547 58.225C84.1566 50.2808 64.1245 61.1444 54.9512 67.4483C60.761 66.396 63.4951 67.299 63.4951 67.299C50.2329 79.0101 31.0107 79.1484 31.0107 79.1484C31.0107 79.1484 32.0295 80.7402 34.511 83.0959L57.8331 83.1201C61.08 83.1233 63.6382 83.3805 65.6514 83.9051C67.9773 84.5079 69.9014 85.7494 71.3681 87.5946C72.4307 88.9432 73.2023 90.5468 73.6769 92.3755L73.6785 92.3786C73.8841 91.8047 74.1241 91.2457 74.4024 90.711C75.3297 88.9284 76.6142 87.3991 78.2225 86.1638C79.7783 84.9746 81.6 84.0482 83.6562 83.4149C85.6577 82.7972 87.9094 82.4853 90.3331 82.4853C95.9544 82.49 99.3945 84.2812 101.271 85.7424L101.951 83.1647L139.143 83.203L135.601 95.7796L133.045 95.7764L128.322 112.798C126.321 119.643 119.198 124.219 110.583 124.219C110.371 124.219 110.16 124.213 109.941 124.209C103.632 124.037 100.442 121.507 98.8707 119.419C97.8386 118.032 97.1819 116.394 96.9239 114.633C96.7988 114.926 96.6659 115.21 96.5173 115.493C95.5557 117.328 94.2579 118.913 92.6551 120.206C91.0914 121.471 89.2385 122.461 87.1666 123.154C85.5326 123.7 83.8438 124.015 82.0535 124.126C88.8632 128.225 92.9835 133.573 92.9835 139.421C92.9835 141.766 92.3267 144.033 91.0914 146.168C112.842 141.915 120.395 133.549 123.021 128.194C125.211 134.526 122.537 139.225 122.537 139.225C136.094 133.479 139.502 124.482 140.003 118.013C142.301 117.875 144.225 118.506 145.609 119.89C147.892 122.161 146.781 124.983 146.383 125.793L146.234 126.1L146.555 126.212C147.149 126.423 147.86 126.532 148.619 126.532C149.064 126.532 149.549 126.48 150.049 126.393C149.901 127.09 149.541 127.85 148.814 128.624C148.814 128.624 156.476 128.616 158.306 122.886C160.135 122.923 162.731 122.169 164.271 118.158C165.35 118.284 169.689 118.534 172.316 114.673C174.302 111.753 174.145 110.024 173.934 107.631C173.731 105.344 173.473 102.506 174.771 97.3081C175.092 97.3753 175.631 97.4652 176.296 97.4652C177.32 97.4652 178.258 97.2565 179.087 96.8483L179.47 96.6607L179.173 96.3613C178.156 95.3371 176.89 93.671 176.35 91.3857C177.922 92.2957 179.618 92.5342 181.331 92.087L182.034 91.9072L181.417 91.5342C181.385 91.5147 178.367 89.6484 176.89 84.5267C178.758 84.9395 180.447 84.6987 181.831 83.8152L182.347 83.4821L181.768 83.2734C181.714 83.2538 176.46 81.2578 172.183 70.2309C168.016 59.4502 159.556 58.6144 157.07 58.6144C156.828 58.6144 156.593 58.623 156.374 58.6347L155.554 58.6777L156.202 59.1781C156.93 59.7441 157.946 60.6698 158.915 62.0349C152.692 59.8481 146.164 59.9591 140.167 62.4321L139.166 62.8433L140.23 63.0153C140.261 63.0192 142.817 63.4414 145.21 64.8331C142.075 65.2045 138.486 66.3999 135.57 69.4279C124.085 55.2119 108.511 53.0596 101.075 52.922ZM186.897 106.061C184.145 106.061 181.909 108.47 181.886 111.434L176.374 110.674C176.35 111.078 176.303 111.481 176.249 111.882L190.603 115.22C191.213 113.419 190.439 112.616 190.439 112.616L183.402 111.645C183.598 109.932 184.943 108.602 186.569 108.602C187.757 108.602 188.844 109.315 189.399 110.466L189.462 110.595L189.594 110.544C190.056 110.376 190.533 110.291 191.01 110.291C193.449 110.291 195.427 112.446 195.427 115.093C195.427 115.536 195.372 115.985 195.255 116.429L195.232 116.494L195.271 116.551C195.912 117.631 196.248 118.877 196.248 120.153C196.248 123.787 193.629 126.707 190.275 126.808L190.173 126.81L190.134 126.908C189.438 128.678 187.843 129.82 186.068 129.82C183.95 129.82 182.12 128.17 181.729 125.908L181.706 125.783L181.581 125.778C179.837 125.724 178.477 124.199 178.477 122.308C178.477 121.801 178.586 121.314 178.774 120.864L184.771 125.205C184.771 125.205 186.459 125.207 187.069 123.536L174.411 116.614C174.239 116.849 174.044 117.073 173.848 117.295L177.867 120.207C177.038 121.036 176.538 122.209 176.538 123.468C176.538 125.53 177.82 127.295 179.665 127.779C180.572 130.68 183.066 132.627 185.904 132.627C188.414 132.627 190.666 131.118 191.784 128.694C195.771 128.295 198.883 124.618 198.883 120.279C198.883 118.725 198.484 117.201 197.726 115.869C197.804 115.443 197.843 115.011 197.843 114.583C197.843 110.988 195.138 108.063 191.815 108.063C191.502 108.063 191.182 108.092 190.845 108.155C189.892 106.823 188.453 106.061 186.897 106.061ZM175.811 113.813C175.693 114.176 175.561 114.53 175.404 114.881L192.902 122.507C193.902 121.271 193.558 120.025 193.558 120.025L175.811 113.813Z" fill="#005643"/>
<path d="M171.127 88.0441C171.089 87.6024 171.036 87.1763 170.97 86.7727C171.944 87.0395 172.939 87.2379 173.919 87.3786C172.87 85.8912 172.01 84.3333 171.269 82.8117C170.036 80.2805 168.411 79.1156 166.905 78.627C166.911 78.6074 166.918 78.5869 166.925 78.5674C167.206 77.9947 167.366 77.3604 167.366 76.6909C167.366 75.8583 167.119 75.0794 166.696 74.407C166.422 73.9086 166.063 73.5353 165.668 73.2607C164.801 72.5629 163.672 72.1377 162.429 72.1377C159.703 72.1377 157.491 74.1773 157.491 76.6909C157.491 78.2849 158.381 79.6844 159.722 80.4975C159.791 85.1728 156.05 88.2543 151.704 88.2543C148.149 88.2543 145.113 87.06 143.644 85.1944C143.644 85.1944 144.316 86.5674 144.5 88.6852C143.347 88.5562 142.001 88.7429 140.459 89.469C140.459 89.469 142.94 90.6662 143.447 93.7065C143.725 95.3816 143.775 96.6081 144.242 97.4388C142.784 98.3135 141.356 99.7306 140.879 102.003C140.879 102.003 146.454 97.5326 152.829 101.194C152.829 101.194 147.029 100.71 145.159 106.623C145.159 106.623 148.924 103.63 153.368 105.119C153.368 105.119 147.77 107.052 147.77 112.901C147.77 117.415 152.757 118.917 151.585 121.855C153.104 121.018 154.775 119.371 155.348 116.121C155.348 116.121 155.843 118.597 158.322 118.597C159.636 118.597 160.373 117.734 160.728 116.701L156.163 112.122L153.16 112.165C153.12 111.281 153.335 110.622 153.652 110.126C153.996 109.423 154.74 108.525 156.36 108.293C159.115 107.896 160.602 111.527 160.849 112.14C161.094 112.751 161.891 115.476 165.655 114.785C169.423 114.09 168.432 108.391 165.21 110.868C165.21 110.868 158.569 105.865 165.31 102.743C165.31 102.743 165.676 104.995 169.835 106.485C169.513 104.379 170.16 101.026 170.859 96.2514C171.007 95.2399 171.107 94.2841 171.172 93.3782C173.112 94.7229 175.013 94.2773 175.013 94.2773C172.818 92.1322 171.702 89.8355 171.127 88.0441Z" fill="#FFC82E"/>
<path d="M94.5939 63.707C85.3214 63.707 71.5729 66.2957 57.6406 78.2976C62.8304 75.404 75.6478 69.1634 89.6684 69.1634C93.5463 69.1634 97.2834 69.6404 100.794 70.5817C102.819 68.3269 105.07 66.6217 107.518 65.5029C105.829 64.9752 101.091 63.707 94.5939 63.707ZM156.265 65.9947C150.034 66.1252 144.866 70.5027 144.459 76.239C144.303 78.4938 144.913 80.6415 146.07 82.4819C146.375 77.841 149.197 75.87 149.197 75.87C149.197 75.87 147.61 80.0426 151.386 83.6852C151.824 84.1082 152.418 84.3873 153.075 84.435C154.553 84.5382 155.843 83.4248 155.944 81.944C155.999 81.2029 155.749 80.5196 155.295 80.0004C154.17 78.6674 153.575 77.117 153.693 75.4892C153.974 71.4261 158.657 68.4105 164.341 68.4606C162.449 67.0994 160.104 66.2097 157.531 66.0267C157.101 65.997 156.687 65.9861 156.265 65.9947ZM163.051 90.4316C161.722 90.5333 160.604 91.5567 160.432 92.9296C160.244 94.4956 161.355 95.9216 162.918 96.1179C163.817 96.2297 164.67 95.899 165.264 95.3103C165.186 95.1875 165.1 95.0726 165.021 94.935C164.787 94.9764 164.544 94.9952 164.286 94.9639C162.895 94.7864 161.902 93.5199 162.074 92.1251C162.16 91.423 162.527 90.8304 163.051 90.4316Z" fill="white"/>
<path d="M161.589 83.9611C162.003 84.6179 162.402 85.4709 162.746 86.5529C160.557 86.6436 158.798 88.3175 158.681 90.5809C158.587 92.34 159.509 93.9842 160.94 94.9162C160.549 94.3572 160.346 93.6606 160.432 92.9295C160.604 91.5559 161.722 90.5324 163.051 90.4316C162.926 90.527 162.809 90.6364 162.699 90.7537C162.691 90.7646 162.684 90.7764 162.676 90.7873C162.574 90.9022 162.48 91.0258 162.402 91.1595C162.402 91.1634 162.402 91.1642 162.394 91.1657C162.324 91.2955 162.261 91.4347 162.207 91.5785C162.199 91.6098 162.191 91.6403 162.175 91.6716C162.129 91.817 162.089 91.9655 162.074 92.125C161.902 93.5206 162.895 94.788 164.286 94.9654C164.544 94.9967 164.787 94.9764 165.021 94.9349C165.1 95.0725 165.186 95.1875 165.264 95.3102C165.24 95.3376 165.209 95.3618 165.178 95.3884C165.209 95.3728 165.248 95.3563 165.287 95.3376C166.257 96.7949 167.406 97.2695 168.328 97.3516C168.328 97.3516 166.515 93.5104 167.304 88.8249C167.304 88.8249 166.624 88.961 165.889 89.4433C164.732 84.1902 162.121 83.9525 161.589 83.9611ZM90.3563 85.0518C88.1672 85.0487 86.1892 85.3215 84.4144 85.8688C82.6397 86.413 81.0994 87.1917 79.786 88.1987C78.4725 89.2072 77.4327 90.441 76.6774 91.8944C75.9214 93.3486 75.482 94.9842 75.3584 96.7988C75.2896 97.8262 75.36 98.7339 75.575 99.5219C75.7908 100.312 76.1067 101.018 76.5171 101.655C76.9323 102.288 77.4092 102.846 77.9721 103.327C78.5194 103.807 79.1058 104.25 79.7234 104.663L83.1009 106.924C84.0704 107.576 84.8131 108.132 85.337 108.597C85.8608 109.057 86.0954 109.685 86.0406 110.472C85.9781 111.364 85.5793 112.116 84.8522 112.73C84.1173 113.346 82.9993 113.654 81.4825 113.653C80.7085 113.65 80.0283 113.573 79.4498 113.417C78.8712 113.264 78.3083 113.067 77.7532 112.826L79.0354 108.132L71.7652 108.125L68.9388 118.305C70.8629 119.625 74.7267 121.609 80.5834 121.615C82.7022 121.616 84.563 121.319 86.3534 120.721C88.1438 120.124 89.7074 119.286 91.0443 118.208C92.3813 117.131 93.4446 115.83 94.242 114.308C95.0317 112.787 95.5008 111.099 95.6259 109.249C95.6963 108.223 95.6024 107.281 95.3366 106.424C95.0708 105.569 94.7033 104.799 94.2342 104.112C93.7573 103.426 93.1944 102.821 92.5377 102.289C91.8809 101.757 91.2164 101.268 90.5362 100.823L88.175 99.2772C87.2681 98.694 86.4628 98.1467 85.7592 97.633C85.0555 97.1178 84.7271 96.501 84.7741 95.7809C84.8288 94.96 85.2119 94.2407 85.9312 93.6262C86.6505 93.0109 87.6747 92.702 89.0272 92.702C90.0045 92.7028 90.9349 92.8764 91.8184 93.2196L90.8489 96.5072L98.0887 96.5135L100.379 88.3589C99.0894 87.1104 96.095 85.0565 90.3563 85.0518ZM12.6571 85.6397L10.5578 93.0867L13.1457 93.0883L7.51261 113.422L4.88941 113.419L2.85547 120.867L14.5298 120.88L18.8072 105.628C18.9385 105.147 19.0605 104.611 19.1676 104.011C19.2747 103.413 19.3599 102.925 19.4194 102.547C19.5202 103.028 19.6148 103.531 19.6954 104.063C19.7759 104.594 19.8853 105.098 20.0206 105.58L23.9939 120.889L31.2508 120.897L38.9574 93.1141L41.5687 93.1172L43.671 85.6718L31.9349 85.6593L28.0312 99.9887C27.8929 100.535 27.7639 101.057 27.6466 101.554C27.5285 102.053 27.4175 102.555 27.3135 103.071C27.2486 102.555 27.1658 102.065 27.0602 101.605C26.9594 101.143 26.8257 100.62 26.6615 100.036L22.8242 85.6507L12.6571 85.6397ZM46.5299 85.6734L44.4284 93.1203L47.017 93.1234L41.3839 113.457L38.4153 113.454L36.3137 120.9L48.8551 120.914C50.1021 120.916 51.375 120.882 52.6775 120.814C53.9792 120.748 55.2536 120.576 56.4999 120.305C57.7485 120.033 58.9517 119.64 60.1166 119.127C61.2792 118.616 62.3808 117.916 63.4167 117.026C64.5262 116.067 65.5535 114.853 66.4956 113.381C67.4377 111.909 68.2696 110.309 68.9951 108.58C69.7183 106.85 70.3047 105.049 70.7542 103.165C71.203 101.282 71.486 99.4657 71.6064 97.7198C71.7175 96.0772 71.5806 94.5096 71.1936 93.0179C70.8082 91.5285 70.196 90.2549 69.3587 89.1916C68.2422 87.7859 66.7911 86.8492 65.0046 86.3864C63.2205 85.9212 60.8281 85.6882 57.8329 85.6851L46.5299 85.6734ZM103.921 85.7312L101.951 93.1782L104.578 93.1813L99.7227 110.245C98.3623 115.41 100.677 121.39 110.012 121.644C117.345 121.844 124.077 118.183 125.852 112.113L131.098 93.2094L133.662 93.2102L135.757 85.7664L123.569 85.7508L117.04 109.569C116.063 112.931 113.835 113.786 111.833 113.786C109.347 113.783 109.081 112.567 109.503 110.405L116.337 85.7453L103.921 85.7312ZM56.5945 93.4409L57.854 93.4424C59.4372 93.444 60.5208 93.7458 61.1033 94.3454C61.6842 94.9459 61.9227 96.0498 61.8116 97.6588C61.728 98.8934 61.5458 100.16 61.273 101.459C61.0001 102.76 60.6616 104.01 60.2605 105.207C59.8571 106.406 59.4044 107.5 58.8985 108.493C58.3935 109.485 57.8822 110.305 57.3685 110.956C56.8142 111.641 56.0886 112.161 55.1895 112.52C54.2873 112.88 52.9457 113.076 51.1584 113.109L56.5945 93.4409ZM161.845 99.7753C157.568 99.977 159.687 105.078 159.687 105.078C160.297 100.841 165.934 100.541 165.934 100.541C164.167 99.9434 162.838 99.7284 161.845 99.7753Z" fill="#005643"/>
</g>
<defs>
<clipPath id="clip0_154_2404">
<rect width="200" height="200" fill="white"/>
</clipPath>
</defs>
</svg>
