<svg width="200" height="200" viewBox="0 0 200 200" fill="none" xmlns="http://www.w3.org/2000/svg">
<g clip-path="url(#clip0_154_2409)">
<path d="M105.428 45.6762C103.855 45.6697 102.355 45.7383 100.944 45.8875C98.5806 46.1359 96.3467 46.352 95.9757 46.369C94.7014 46.4246 95.3144 47.2061 97.2741 48.0101C99.1935 48.8005 99.1129 48.8174 93.3788 48.8376C86.4915 48.8602 83.6608 49.6029 77.0501 53.1232C66.2554 58.8694 63.8327 59.8888 60.1108 60.2622L56.48 60.6259L59.0664 62.6388C60.4899 63.7461 61.8947 64.6534 62.1883 64.6534C62.8835 64.6534 54.3647 70.5568 50.6186 72.6714C46.1442 75.1965 41.7852 76.499 36.6455 76.8457C34.0616 77.0199 31.947 77.3401 31.947 77.5571C31.947 78.1781 36.006 81.6854 37.794 82.6105C38.6827 83.0701 39.9763 83.4452 40.6674 83.4452C42.9264 83.4452 48.2443 81.8386 52.2743 79.9378C56.5792 77.9071 58.5858 76.4715 64.6989 71.0504C68.3369 67.8245 72.7491 64.6534 73.5975 64.6534C73.7774 64.6534 72.7378 65.5914 71.2878 66.7374C67.9417 69.3826 65.0303 72.744 62.9964 76.3094C58.2801 84.5783 40.0102 88.4187 23.9484 84.5194C21.4684 83.9178 19.3426 83.5226 19.2232 83.6419C18.7192 84.146 24.7952 90.697 27.8388 92.9309C29.6558 94.264 31.2284 95.5899 31.3325 95.8778C31.6478 96.7432 21.6821 106.13 18.3925 108.066C14.1174 110.584 9.52853 112.352 4.39288 113.461L0 114.41L2.68396 115.618C7.93977 117.983 16.357 120.518 21.5289 121.295C24.4169 121.728 26.8589 122.002 26.9557 121.906C27.0525 121.809 27.4936 120.304 27.9364 118.562C29.0461 114.196 32.0196 108.352 34.6027 105.46L36.7609 103.043L35.1495 106.679C32.8478 111.87 31.8059 116.783 31.7647 122.642C31.7083 130.662 33.7704 137.025 38.6287 143.84C40.9183 147.042 47.9749 154.042 48.4451 153.574C48.5677 153.453 48.3741 151.864 48.0169 150.05C47.2935 146.372 47.6064 139.501 48.6266 136.67L49.2782 134.864L51.7751 139.695C54.3751 144.727 55.7728 146.775 59.81 151.501L62.2197 154.324H73.8653L73.4983 151.558L73.1314 148.792L75.796 151.558C78.384 154.243 78.5517 154.324 81.4752 154.324H84.4914L83.9833 152.574C81.8704 145.356 81.2736 131.678 82.701 123.384C83.564 118.39 85.0802 112.44 85.4834 112.44C85.6124 112.44 86.8302 113.093 88.1932 113.891C90.3868 115.176 90.6207 115.223 90.2174 114.295C89.9674 113.718 89.6529 111.374 89.5238 109.089L89.2819 104.934L91.8304 103.842C96.1531 101.989 103.411 101.003 110.307 101.331L116.452 101.624L113.581 100.052C94.9272 89.8534 97.3951 75.2401 117.993 73.9311C120.573 73.7674 122.686 73.444 122.686 73.2134C122.686 72.6682 118.13 71.1956 115.71 70.9609L113.831 70.7778L115.436 70.0359C116.323 69.6278 119.17 69.1915 121.759 69.0673L126.469 68.8407L129.549 65.7567C131.493 63.8147 133.428 62.4267 134.775 62.0106C135.953 61.6469 137.235 61.2493 137.622 61.1251C138.163 60.9557 138.05 60.4993 137.187 59.2855C136.558 58.3984 136.138 57.6726 136.259 57.6726C137.001 57.6726 142.768 59.9105 145.251 61.1581C150.034 63.5655 152.978 66.0115 156.163 70.2455C159.074 74.1223 162.163 77.003 163.397 77.003C164.494 77.003 156.357 64.9929 153.131 61.8469C150.776 59.55 148.461 58.033 143.985 55.8564C130.88 49.4844 116.428 45.7197 105.428 45.6762ZM102.355 53.8087C105.186 53.8434 107.992 54.2071 110.073 54.8926L113.291 55.9556L111.146 56.0169C108.662 56.0886 103.097 57.329 101.024 58.2726C99.2016 59.1016 99.1693 60.046 100.976 59.5928C101.734 59.4024 103.161 59.4 104.161 59.5863L105.968 59.9267L101.734 63.1211C94.6853 68.4326 88.5077 76.4627 84.5398 85.4646C83.4107 88.0461 81.8704 92.2116 81.1365 94.7221C79.9832 98.6271 79.7897 98.9884 79.7655 97.223C79.7171 93.9947 81.7978 84.6492 83.5156 80.358C85.4753 75.457 88.2657 71.0181 91.4352 67.7535C92.7901 66.3575 93.7579 65.0784 93.5885 64.9107C93.0885 64.4034 88.2657 65.7688 84.7334 67.4196C82.9107 68.2737 80.1606 69.9633 78.6235 71.1762L75.8339 73.3819L76.8436 71.6174C79.8623 66.3486 86.9593 60.8033 93.1611 58.8653L96.1128 57.9419L93.4272 57.7935C91.9513 57.7121 89.4755 57.979 87.919 58.3863C86.3705 58.7936 85.1043 59.0452 85.1043 58.9452C85.1043 58.4879 91.6529 55.5257 94.4837 54.7031C96.6612 54.07 99.5161 53.774 102.355 53.8087ZM146.824 65.3954C146.461 65.351 146.34 65.5486 146.542 66.0349C146.711 66.4567 146.985 67.1341 147.147 67.5406C147.364 68.0592 146.848 68.3923 145.445 68.656C144.34 68.8632 142.477 69.4181 141.3 69.8899L139.154 70.748L141.824 71.6157C143.284 72.094 145.437 73.0739 146.606 73.794C147.768 74.515 149.574 75.161 150.606 75.2312C151.647 75.3005 153.461 75.711 154.639 76.1425C155.816 76.5748 156.978 76.9449 157.22 76.9651C158.308 77.0595 154.381 71.2649 151.623 68.7148C149.518 66.764 147.606 65.493 146.824 65.3954ZM75.9879 80.0023L73.1169 85.6517C70.0668 91.6551 67.3651 99.3836 66.0053 105.997C64.9343 111.202 64.4077 128.097 65.1513 133.364C65.4626 135.565 65.6457 137.444 65.5578 137.533C65.1997 137.888 62.9544 129.307 62.1899 124.665C61.0931 117.998 61.4988 107.332 63.0722 101.501C65.161 93.7592 69.2313 86.4727 74.0492 81.8572L75.9879 80.0023ZM184.838 90.5099C184.766 90.4954 184.717 90.4986 184.693 90.5236C184.564 90.6494 185.54 92.3527 186.846 94.3092C189.056 97.5964 189.193 97.9948 188.645 99.5683C188.298 100.551 188.185 102.593 188.379 104.401L188.701 107.532L186.774 108.169C182.54 109.567 176.354 107.644 160.805 100.093C154.757 97.1529 148.353 94.2423 146.579 93.6253C141.974 92.0229 136.514 91.6882 132.764 92.7777C128.796 93.9318 124.61 97.4061 127.191 97.4061C127.619 97.4061 128.086 98.2319 128.304 99.3828C128.893 102.512 133.611 106.691 141.224 110.829C146.998 113.962 148.289 114.961 153.902 120.584C159.862 126.565 160.055 126.815 157.942 126.065C154.926 125.005 153.644 124.102 149.264 119.968C140.192 111.403 132.07 108.001 120.538 107.932C115.505 107.903 113.618 108.127 110.352 109.145C105.811 110.56 102.102 112.325 100.126 114.005L98.7951 115.145L102.553 114.843C104.618 114.676 106.973 114.732 107.779 114.967L109.247 115.394L106.586 117.541C105.126 118.722 101.352 122.059 98.2064 124.954C95.0531 127.847 91.0287 131.194 89.2706 132.388L86.0689 134.565L86.4238 137.057C87.206 142.525 91.3917 149.001 96.5934 152.792C97.8838 153.735 99.3596 154.324 100.448 154.324H102.215L100.408 150.421C99.4161 148.275 98.4241 145.808 98.2064 144.937L97.8112 143.356L100.142 145.203C102.384 146.977 102.457 146.993 102.077 145.719C101.86 144.985 101.545 141.162 101.368 137.227L101.053 130.065L106.094 124.977C115.239 115.751 119.247 113.756 127.788 114.182C134.458 114.517 137.788 115.895 142.603 120.308C147.668 124.959 152.216 127.823 156.491 129.065C160.789 130.315 165.652 130.872 166.644 130.227C167.144 129.904 168.007 130.17 169.289 131.041C171.781 132.735 172.289 132.162 172.306 127.614C172.33 121.887 171.273 120.279 165.846 117.78C160.966 115.536 157.491 112.658 154.208 108.145C153.031 106.521 151.087 104.164 149.885 102.909C148.684 101.655 148.006 100.627 148.385 100.627C150.176 100.627 157.797 103.679 164.967 107.266C178.951 114.261 183.564 115.446 189.629 113.6C196.355 111.551 200 108.337 200 104.458C200 103.161 199.234 102.149 195.839 99.0094C191.822 95.2834 185.895 90.7325 184.838 90.5099ZM134.716 95.7964C135.74 95.7964 135.95 96.0149 135.724 96.869C135.401 98.1013 134.982 98.2118 134.07 97.2988C133.078 96.3069 133.296 95.7964 134.716 95.7964ZM140.619 96.869C140.659 96.869 141.135 97.6876 141.676 98.6884C142.603 100.412 142.611 100.58 141.74 101.909C141.232 102.68 140.667 103.305 140.474 103.293C140.03 103.27 135.974 98.965 136.2 98.7545C136.361 98.6061 140.425 96.869 140.619 96.869ZM144.28 103.407C144.385 103.414 144.466 103.436 144.506 103.473C144.651 103.623 144.7 104.52 144.603 105.466L144.434 107.186L142.829 105.694L141.224 104.202L142.724 103.701C143.345 103.495 143.95 103.385 144.28 103.407ZM147.482 108.161C148.474 108.149 149.031 108.489 149.273 109.259C149.813 110.944 149.281 111.029 147.579 109.531L146.039 108.178L147.482 108.161ZM166.781 121.819C167.394 121.833 167.37 122.403 166.902 123.655C166.442 124.876 166.499 125.273 167.192 125.751C167.943 126.259 167.894 126.339 166.846 126.372C166.184 126.388 165.636 126.178 165.636 125.904C165.636 125.622 165.176 125.252 164.612 125.073C162.717 124.47 162.862 123.233 164.934 122.366C165.805 122.001 166.41 121.811 166.781 121.819Z" fill="#630000"/>
</g>
<defs>
<clipPath id="clip0_154_2409">
<rect width="200" height="200" fill="white"/>
</clipPath>
</defs>
</svg>
