<svg width="200" height="200" viewBox="0 0 200 200" fill="none" xmlns="http://www.w3.org/2000/svg">
<g clip-path="url(#clip0_154_2399)">
<path d="M90.5836 22.1377L90.5872 22.134L90.5801 22.1484L90.5836 22.1377Z" fill="black"/>
<path d="M172.541 77.4929L171.725 72.7059L171.692 72.5304C171.467 71.4097 170.181 65.5663 167.274 60.7648C163.11 53.8831 159.608 50.836 158.634 50.0626L151.022 44.0869L147.155 48.3906C143.449 37.9498 137.581 31.3904 134.172 28.2395L134.079 27.7203C133.9 26.6855 132.822 21.2612 129.095 16.0408C125.157 10.5519 119.94 8.26755 118.934 7.86296L110.151 4.34691L105.725 13.0724C105.31 13.8852 103.219 18.2822 102.703 24.8918C102.288 30.1587 102.732 33.9863 103.101 36.0308C102.714 36.4819 102.335 36.9437 101.962 37.4163C101.096 35.8445 100.132 34.4087 99.0941 33.1197C99.8389 27.6021 99.2588 21.2181 99.1872 20.4662L99.1264 19.9828C98.3028 14.0785 96.0257 9.87512 95.5781 9.08742L90.3219 0L81.4064 5.02722C80.5507 5.51059 77.475 7.41891 73.7227 11.6511C69.8199 16.0587 67.7468 21.8125 67.3673 22.9332L66.175 26.5996C62.9597 29.7326 57.2667 36.0558 52.766 45.2076L51.2729 41.1867L40.0803 49.7547C39.3284 50.3347 35.3433 53.5644 30.8927 60.1776C26.3777 66.8982 16.7103 85.9359 24.4656 117.498C27.0723 128.103 32.6185 136.911 39.7652 141.863C31.0359 152.422 30.5203 165.538 38.1718 181.922C43.7753 193.917 53.2601 200 66.3683 200C71.9288 200 77.3605 199.008 83.1143 197.955C88.1485 197.035 93.351 196.083 97.9591 196.036H98.3458C102.549 196.036 107.297 196.978 111.905 197.891C116.918 198.886 122.099 199.914 127.284 199.914C140.009 199.914 149.257 193.462 154.771 180.733C160.668 167.127 160.582 155.799 154.492 146.146C164.045 141.269 172.022 130.91 175.957 118.193C182.208 97.9949 175.037 82.1082 172.541 77.4929Z" fill="black"/>
<path d="M167.385 79.5348L166.397 73.7344C166.279 73.1508 165.183 67.934 162.709 63.8415C158.924 57.5863 155.952 55.0871 155.397 54.6467L151.649 51.7035L148.43 55.284C148.107 55.642 145.991 58.1772 144.849 62.7566C144.838 62.6528 144.831 62.5597 144.821 62.4594C142.755 44.206 133.205 34.603 129.206 31.3197L128.751 28.749C128.665 28.2514 127.81 23.7398 124.777 19.4934C121.669 15.1609 117.48 13.3922 117.011 13.2061L112.685 11.4731L110.501 15.7767C110.301 16.1706 108.539 19.787 108.102 25.3761C107.601 31.7459 108.525 35.5448 108.632 35.9601L109.094 37.7504C106.087 40.7258 103.154 44.7037 100.895 49.9921C99.4484 43.9805 97.0316 38.5775 93.3078 35.0077L93.6408 32.9454C94.4285 28.058 93.87 21.7777 93.8019 21.0795L93.7697 20.8216C93.0751 15.8483 91.1667 12.4397 90.9518 12.0638L88.3632 7.58464L83.977 10.0622C83.5008 10.3307 80.9623 11.8561 77.6861 15.5512C74.4601 19.1961 72.7092 24.1623 72.4943 24.7924L70.8473 29.859C67.4924 32.9239 56.9228 43.6581 53.0701 60.4579C52.8983 61.2026 52.7658 61.9368 52.6404 62.6707C52.1929 59.434 51.4123 57.2212 51.2691 56.8345L48.7878 50.1532L43.281 54.3709C42.8943 54.6681 39.3962 57.4253 35.318 63.4835C32.1993 68.1202 22.1489 85.2958 29.7145 116.077C32.9906 129.4 40.7353 138.137 49.5075 140.153C40.7245 147.246 32.9298 157.772 43.0376 179.413C47.7173 189.431 55.3473 194.301 66.3681 194.301C71.4596 194.301 76.6728 193.352 82.1904 192.342C87.443 191.383 92.871 190.391 97.9625 190.341H98.3492C103.079 190.341 108.07 191.332 112.897 192.288C117.67 193.237 122.604 194.218 127.287 194.218C137.846 194.218 145.229 189.037 149.848 178.371C157.693 160.264 152.05 150.275 145.068 143.318C155.942 141.728 166.261 131.134 170.808 116.436C177.303 95.4538 167.385 79.5385 167.385 79.5385" fill="white"/>
<path d="M75.1324 33.3125C75.1324 33.3125 62.3314 43.7618 58.2095 61.7446C55.5599 73.2939 58.6936 83.6086 71.7868 90.1194C83.4678 95.9255 92.7027 91.7521 95.8535 80.558C98.6377 70.6958 98.42 46.9184 89.5948 38.8609C83.9806 33.7307 75.1324 33.3125 75.1324 33.3125ZM124.738 34.7218C124.738 34.7218 109.124 37.8927 103.814 57.8003C101.508 66.468 102.029 72.7382 104.788 82.6118C107.111 90.9329 118.835 96.2177 128.342 93.0497C139.719 89.2687 141.764 82.0675 139.624 63.0966C137.324 42.7822 124.738 34.7218 124.738 34.7218ZM43.2774 81.5147C37.8808 81.6006 33.2806 84.1442 33.2806 84.1442C33.2806 84.1442 30.0696 97.3806 34.7844 114.521C39.3818 131.241 51.4152 141.424 63.8324 130.482V130.963H69.143C69.5726 130.413 70.0252 129.883 70.4062 129.29C72.4571 126.122 74.5538 121.614 76.8568 116.933V107.148H69.2203C65.6226 98.1225 57.8515 89.6296 53.0307 85.1038C50.0431 82.2996 46.517 81.466 43.2802 81.5176L43.2774 81.5147ZM76.8568 116.933V130.966L69.143 130.963C58.3928 144.695 33.5957 146.583 47.7831 176.954C52.0969 186.192 58.6736 188.747 66.4017 188.747C75.8743 188.747 87.0885 184.9 97.9932 184.785H98.3771C108.451 184.785 118.614 188.661 127.313 188.661C134.569 188.661 140.805 185.962 145.093 176.057C156.682 149.318 135.248 146.001 126.571 132.945C115.592 116.42 118.737 95.8797 98.9156 95.0146C98.7237 95.0032 98.5317 94.9975 98.3398 94.9975C88.3345 94.9975 82.0156 106.455 76.8568 116.933ZM160.454 81.9845C156.441 82.0704 147.679 82.9526 141.83 88.6156C135.342 94.8857 113.782 111.221 126.087 127.967C141.346 148.737 159.947 133.727 165.837 114.699C171.797 95.4414 162.603 82.0217 162.603 82.0217C162.603 82.0217 161.792 81.9558 160.454 81.9845Z" fill="#AD0000"/>
<path d="M86.4728 14.9297C86.4728 14.9297 84.3961 16.1041 81.5489 19.3151C78.9652 22.2311 77.4815 26.5706 77.4815 26.5706L76.8456 28.5471C79.3004 28.6588 83.0728 29.0512 86.8824 31.0076L88.4693 32.0044C89.1625 27.7135 88.5867 21.6152 88.5867 21.6152C88.0225 17.6108 86.4728 14.9297 86.4728 14.9297ZM115.157 18.3698C115.157 18.3698 113.722 21.2056 113.361 25.8173C112.923 31.4 113.719 34.4878 113.719 34.4878C113.719 34.4878 116.861 32.3166 118.514 31.6062C120.863 30.5951 123.593 29.7444 123.593 29.7444C123.593 29.7444 122.968 26.1381 120.594 22.8183C118.311 19.6359 115.157 18.3698 115.157 18.3698ZM46.3826 58.841C46.3826 58.841 43.3206 61.1812 39.6255 66.6752C37.0704 70.4676 35.876 76.9125 35.876 76.9125C35.876 76.9125 38.2592 76.122 41.2525 75.8384C44.2458 75.5519 46.5774 76.2967 46.5774 76.2967C46.5774 76.2967 46.8209 75.9959 47.5341 70.164C48.2932 63.9883 46.3826 58.841 46.3826 58.841ZM152.271 59.0759C152.271 59.0759 149.369 62.3041 149.389 68.8378C149.412 74.6525 150.263 78.0583 150.28 78.127C155.133 76.5058 159.822 76.3912 161.721 76.4256C161.537 75.7668 161.171 74.4463 161.082 74.0796C160.721 72.6016 159.813 69.3247 158.286 66.8012C154.829 61.0867 152.271 59.0759 152.271 59.0759ZM72.1193 63.7821L59.0834 77.5169V80.135L55.7206 83.6754V100.057L74.4137 116.075V125.977H59.0834V133.814H55.7206V143.258L67.1667 155.432H74.4137V173.105H82.4798V173.131H115.123C115.123 173.131 115.953 172.263 117.153 171H122.318L123.106 170.166C123.538 169.716 133.546 159.19 134.698 157.967L135.494 157.122L135.483 155.924C135.474 155.062 135.477 118.057 135.483 98.6075V97.4159L122.307 83.6926H116.901V77.5083L103.739 63.7792L72.1193 63.7821ZM98.34 105.164H113.765V118.412L98.34 105.164ZM113.765 142.754V151.665H105.295L113.765 142.754Z" fill="black"/>
<path d="M119.585 154.653H93.1679V150.575H102.363L113.931 138.398V122.593L93.1679 104.759V100.305H119.585V154.653ZM132.514 98.7366L120.938 86.6773H80.228V93.6451L74.4705 88.7003V80.3865H100.995V83.974H113.931V78.829L102.363 66.759H72.981L61.5342 78.8253V95.1954L80.228 111.218V134.227H93.1644V122.307L100.995 129.02V136.944H74.4705V128.96H61.5342V138.398L72.981 150.571H80.228V168.252H88.2949V168.273H120.935C120.935 168.273 131.358 157.317 132.511 156.085C132.5 155.018 132.511 98.7329 132.511 98.7329" fill="white"/>
</g>
<defs>
<clipPath id="clip0_154_2399">
<rect width="200" height="200" fill="white"/>
</clipPath>
</defs>
</svg>
