<svg width="200" height="200" viewBox="0 0 200 200" fill="none" xmlns="http://www.w3.org/2000/svg">
<g clip-path="url(#clip0_154_2408)">
<path d="M166.239 120.195C168.587 120.19 173.437 120.515 179.551 122.689C181.269 123.299 184.715 124.336 186.574 124.331C187.316 124.33 188.055 124.259 188.774 124.121C192.575 123.387 195.701 121.683 198.064 119.056C199.358 117.623 200.126 116.616 200.802 114.295C201.615 111.511 201.018 108.58 200.511 106.48C200.005 104.38 198.836 101.074 196.686 96.787C195.644 94.7168 194.556 92.8285 193.404 90.5878C192.253 88.346 188.175 82.2225 186.178 79.9186C183.723 77.0883 181.208 74.4332 177.605 72.9943C176.521 69.3103 173.854 60.3193 172.053 54.3946C170.196 48.2665 168.467 44.8377 165.21 40.7979C161.391 36.0704 155.956 33.8285 149.074 30.9881L147.008 30.1332C143.239 28.5622 139.688 26.7337 137.477 25.6902C135.267 24.6467 131.217 22.886 130.483 23.7172C128.749 25.6823 127.627 31.5009 127.487 35.5328C127.463 36.2285 127.459 36.914 127.476 37.5837C122.954 36.7796 118.564 35.849 114.916 34.6767C106.507 31.9775 97.1895 27.8835 92.9431 26.2063C88.6966 24.5292 84.0594 21.8108 83.3829 23.9803C82.8419 25.7218 83.0294 29.5696 84.4592 33.562C85.2723 35.832 87.1765 38.8046 88.4956 40.8939C90.2247 43.6282 92.209 46.3195 94.3988 48.9058L93.6828 49.955C92.5421 49.4061 91.205 48.8493 89.678 48.3637C87.2047 47.5799 83.1592 46.6459 77.9257 46.6549C73.1089 46.664 68.2718 47.4681 63.5521 49.0435C47.5759 54.3776 35.7004 69.229 34.7438 84.7738C31.3602 88.4104 25.3462 92.2819 15.0813 92.3C12.617 92.3045 9.61509 92.0334 7.24114 91.646C4.86944 91.2598 1.50163 90.4162 1.29608 91.41C1.08602 92.4208 1.1741 94.5677 2.12504 97.2263C3.05791 99.8352 8.12771 108.33 15.297 113.289C16.8002 114.324 18.4807 115.274 19.8089 115.922C19.8089 115.922 24.864 118.292 31.1219 118.504C37.1551 118.711 43.1566 117.006 48.2625 113.875C48.843 114.282 49.4517 114.671 50.0831 115.042C51.0769 115.625 52.1487 116.167 53.2702 116.656L53.4001 116.715C53.5401 116.779 53.6847 116.84 53.8213 116.898C55.9773 117.793 58.2259 118.421 60.4553 118.76C61.055 118.858 61.6716 118.943 62.3176 119.013C63.5137 119.139 64.7673 119.198 66.0412 119.197C69.0759 119.192 72.3804 118.819 75.8635 118.09C77.0459 117.843 77.9867 117.722 78.7366 117.721C79.9326 117.719 80.6848 117.946 81.8898 119.279C83.9103 121.829 84.8364 124.543 85.5422 127.262H54.9778C51.4338 127.262 47.7995 128.977 47.7995 128.977L47.1761 127.437L9.65689 127.46L15.7894 142.603V150.185C15.7894 152.124 13.3206 152.123 9.97086 152.829C9.97086 152.829 7.84423 173.312 8.03058 173.284C27.6039 170.463 30.4251 166.408 30.4251 166.408C46.8689 161.783 65.5872 159.374 78.3447 158.17C78.1143 158.738 77.885 159.333 77.658 159.983C76.4519 163.442 76.0848 165.782 76.9183 168.321C78.6169 173.48 87.0161 175.006 89.8813 175C91.6736 174.998 93.1904 174.687 94.3864 174.074C95.2843 173.614 99.175 170.65 100.885 169.291C102.595 167.931 109.634 164.114 111.926 161.921C113.573 160.529 114.842 158.738 115.788 157.133C122.673 157.475 150.65 159.28 178.367 166.936C178.367 166.936 187.889 172.226 193.531 167.642C195.506 166.037 200.409 157.944 196.882 146.834V132.552C196.882 132.552 192.474 126.204 181.894 127.262H149.24C152.961 124.728 155.1 123.01 162.034 120.693C162.476 120.542 163.77 120.199 166.239 120.195Z" fill="white"/>
<path d="M135.641 32.4336L135.512 32.4815C134.924 32.7218 134.899 33.507 134.925 34.2921L134.93 34.5144L135.084 34.6743C136.477 36.1461 139.392 37.8564 142.769 39.8396C148.041 42.935 154.601 46.7876 157.712 51.1759C160.225 54.7203 164.231 64.8929 166.394 70.6419C167.622 73.5991 168.893 75.4784 169.615 76.1921L169.763 76.3385L169.969 76.3575L170.462 76.4054L170.776 76.4334C170.936 76.4063 171.08 76.3783 171.202 76.3511L171.087 75.7205C171.069 75.6211 169.235 65.7051 165.435 54.8107C161.727 44.1783 155.34 40.8425 146.016 36.9665C142.277 35.4115 139.562 34.1141 137.939 33.3389C136.375 32.5908 136.034 32.4336 135.756 32.4336H135.641ZM94.1986 34.8333C93.9709 34.8333 93.7577 34.9598 93.6303 35.1685C93.5083 35.3673 93.4984 35.6022 93.5987 35.7955C95.5584 39.3038 99.888 46.0313 106.985 51.8436C108.067 52.7299 109.152 53.5892 110.251 54.4213C113.968 57.0821 117.592 59.3255 120.557 61.0458C126.297 64.0897 133.151 66.7424 142.345 69.1457C144.091 69.6345 146.047 70.1215 148.152 70.5895C148.357 70.6365 148.49 70.6681 148.574 70.7178L148.459 70.5642L148.572 70.6952L148.59 70.7196L148.613 70.7431C148.645 70.772 148.669 70.7973 148.69 70.8325L148.706 70.856L148.759 70.9301C149.958 72.4453 155.242 79.995 149.874 89.2577C149.995 88.6135 150.068 88.047 150.109 87.5953L150.174 86.9122L149.911 86.9294C149.91 86.9402 149.906 86.9529 149.902 86.9619L146.818 87.57C143.077 88.6768 137.015 91.0367 133.139 92.5889C133.862 92.083 134.653 91.5309 135.44 90.9816L136.864 89.9895L135.131 89.9263C133.616 89.8703 131.339 89.5513 129.089 88.3632L127.954 87.7651L128.262 89.0526C128.207 89.3761 126.977 90.3058 125.985 91.0521C124.309 92.3152 122.226 93.8864 120.717 95.9283C119.126 98.0822 117.94 100.341 117.094 102.833C116.953 103.243 116.78 103.242 116.696 103.242C116.549 103.242 116.394 103.177 116.348 103.151L115.095 102.462L115.506 103.825C115.563 104.014 115.627 104.199 115.688 104.377C115.81 104.729 115.977 105.215 115.926 105.367L115.704 106.032L116.398 106.126C118.04 106.347 119.563 106.599 120.74 106.813C119.101 106.967 116.841 107.22 115.091 107.631L115.037 107.644L114.986 107.667C113.523 108.326 112.349 112.677 111.914 114.517C109.4 126.804 105.143 143.806 104.595 145.388C104.043 147.129 102.07 150.803 101.353 152.127C101.385 152.312 101.416 152.506 101.444 152.708C101.53 152.818 101.585 152.89 101.585 152.89C101.814 153.902 101.746 154.875 101.746 154.875C101.746 154.875 101.558 155.688 101.516 155.983C101.449 156.447 101.551 158.248 101.447 158.663L102.4 158.515C104.512 156.353 107.137 153.532 108.442 151.894L108.509 151.834L108.568 151.781L108.622 151.729L108.665 151.666C109.568 150.275 110.443 148.681 111.366 146.993L111.414 146.909C111.687 146.41 112.195 145.308 112.899 143.781C114.293 140.756 116.404 136.184 118.564 132.261C119.365 130.806 120.235 129.274 121.151 127.708C121.414 127.185 121.67 126.683 121.954 126.153C125.245 120.022 130.655 111.86 136.474 106.272C134.108 108.899 132.333 111.754 131.186 114.771C131.159 114.842 131.134 114.914 131.107 114.986C132.646 115.563 137.714 117.23 142.593 116.178C145.276 115.599 147.426 114.821 149.095 114.051C147.488 113.136 146.239 111.799 145.285 109.999L144.809 109.107L144.279 109.964C144.204 110.085 144.137 110.203 144.074 110.317C141.952 105.289 142.936 102.005 144.494 99.8206C144.634 99.479 144.814 99.1411 145.053 98.796C145.771 98.1157 146.036 97.6549 146.44 97.3838C146.44 97.3847 146.438 97.3874 146.438 97.3892C146.451 97.3802 146.464 97.3676 146.477 97.3594C146.498 97.4895 146.531 97.6377 146.569 97.7967C146.505 98.2358 146.455 99.0924 147.353 101.392C148.848 105.22 154.854 109.92 164.532 109.307C164.875 109.287 165.205 109.267 165.526 109.25C165.618 109.244 165.705 109.24 165.793 109.233C166.019 109.22 166.241 109.211 166.457 109.198C166.566 109.193 166.672 109.188 166.778 109.183C166.969 109.175 167.16 109.166 167.346 109.157C167.454 109.153 167.563 109.148 167.67 109.144C167.844 109.138 168.016 109.133 168.187 109.128C168.291 109.125 168.395 109.121 168.497 109.119C168.665 109.116 168.826 109.112 168.989 109.11C169.087 109.109 169.183 109.107 169.281 109.107C169.45 109.104 169.619 109.103 169.783 109.103H170.018C170.254 109.107 170.488 109.11 170.714 109.117C170.768 109.119 170.82 109.12 170.875 109.122C171.045 109.128 171.217 109.135 171.384 109.144C171.475 109.148 171.562 109.154 171.652 109.159C171.78 109.167 171.905 109.177 172.03 109.186C172.128 109.194 172.227 109.202 172.325 109.211C172.438 109.22 172.547 109.23 172.656 109.242C172.76 109.252 172.862 109.265 172.965 109.276C173.066 109.289 173.169 109.3 173.269 109.315C173.375 109.328 173.482 109.342 173.586 109.357C173.68 109.371 173.772 109.388 173.865 109.401C173.977 109.421 174.086 109.437 174.197 109.457C174.274 109.47 174.353 109.486 174.43 109.5C174.739 109.558 175.051 109.623 175.365 109.696C176.007 109.826 176.855 110.244 176.858 110.25C176.933 110.077 177.011 109.909 177.092 109.746H177.1C177.156 109.638 177.203 109.522 177.257 109.418C178.249 107.562 179.618 106.459 180.961 106.92C181.018 106.874 181.799 106.551 182.034 106.489C183.798 106.028 189.863 105.715 190.446 114.736C190.454 114.744 190.459 114.752 190.467 114.761C191.073 114.265 191.612 113.702 192.071 113.067L192.168 112.934L192.181 112.765C192.317 110.743 191.721 108.886 191.032 107.465C193.135 109.966 193.234 109.966 193.534 109.966C193.789 109.966 194.183 109.8 194.734 109.457L194.831 109.398L194.646 109.202C194.782 108.944 194.877 108.661 194.94 108.36C194.624 106.793 193.902 104.08 192.267 100.757C191.828 100.14 191.328 99.5802 190.76 99.1077L191.408 99.1204C190.636 97.7525 190.103 97.2953 189.851 97.1507L188.866 96.5797L189.011 95.4521C189.043 95.2037 189.152 94.77 188.927 94.3083C188.53 93.4978 187.497 91.6692 186.062 89.5152C184.617 87.7443 182.869 85.8452 181.224 84.1421C177.717 80.5055 173.449 78.5123 168.543 78.2196C168.176 78.1988 167.819 78.188 167.474 78.188C166.25 78.188 165.191 78.3126 164.369 78.4545C164.889 77.9693 165.493 77.4507 166.069 77.0432L166.482 76.7496L166.249 76.3015L166.185 76.1768L166.117 76.0439C165.817 75.4485 165.44 74.6715 165.008 73.768C163.105 69.8152 160.232 63.8412 156.942 59.3174C155.407 57.205 153.705 55.0564 151.761 53.1528C147.259 49.7818 142.978 47.8889 141.711 47.3649C141.348 47.2863 140.983 47.2122 140.607 47.1571C132.046 45.9076 121.902 43.8421 116.703 42.533C113.462 41.718 104.805 39.3382 94.4317 34.8839L94.3224 34.8342H94.1968L94.1986 34.8333ZM104.573 44.9715C115.218 51.5743 128.22 53.2467 136.259 54.2785C138.977 54.63 141.133 54.9056 142.391 55.2706C151.162 59.0517 155.212 68.2377 156.354 75.6139C155.099 71.2644 152.21 66.156 145.666 63.2422L145.555 63.1925L145.419 63.1889C145.384 63.1889 145.332 63.1952 145.277 63.2033H144.196L144.78 64.1087C145.14 64.6517 145.463 65.1576 145.719 65.5696C141.943 64.8857 129.714 62.1941 116.905 54.2867C111.821 51.1479 107.185 47.4697 104.573 44.9724V44.9715ZM76.6011 54.3282C73.5183 54.3282 70.4039 54.7484 67.3438 55.5742C65.974 55.9446 64.692 56.3457 63.4849 56.7794C57.2561 59.6652 51.8288 63.6099 47.8009 68.2621C46.9977 69.311 46.2261 70.4106 45.4627 71.5635C43.4976 74.5297 41.8993 78.206 41.0807 81.6538C40.8151 82.7733 40.6072 83.796 40.4365 84.7402C40.4003 85.1892 40.3723 85.6392 40.3606 86.0927C40.338 86.3213 40.319 86.549 40.3028 86.7749C40.2314 86.849 40.1519 86.9276 40.0769 87.0026C39.9341 88.0551 39.8483 88.9532 39.8013 89.6643L39.7869 89.629L39.1517 90.2778C32.333 97.2528 24.1237 98.7165 18.4398 98.7165C16.7818 98.7165 14.2394 98.5873 11.5334 97.9792C11.4096 97.9521 11.3337 97.9386 11.3129 97.9368C11.2705 97.9323 11.2325 97.9295 11.1946 97.9295C10.9145 97.9295 10.6741 98.0515 10.5377 98.2647C10.4338 98.4265 10.4157 98.5936 10.4266 98.7364C10.572 98.9731 10.7247 99.189 10.8801 99.3444C11.6057 100.072 12.2887 100.449 13.8238 101.497C15.404 102.574 16.0337 102.79 17.6031 103.453C19.2656 104.1 21.1629 104.625 23.231 104.911C26.2777 105.333 33.1461 105.552 38.5003 103.082C40.3994 102.207 41.8993 101.152 43.0693 100.136L43.1063 100.188C42.9799 99.9182 42.8452 99.6498 42.7305 99.3788C42.8976 99.47 43.0142 99.4962 43.0142 99.4962C43.0142 99.4962 50.1365 106.779 61.4972 105.839C72.8587 104.896 79.504 96.5246 79.504 96.5246L79.9928 98.1798C79.9928 98.1798 81.7935 96.6701 83.596 93.5033C86.2116 88.9071 86.5667 84.6968 86.5893 83.0109C86.6408 83.2937 86.6634 83.59 86.6634 83.59L87.1802 86.3656C87.1766 86.2418 87.1757 86.1108 87.1712 85.9897C87.2507 86.465 87.3148 86.9348 87.3726 87.4037L87.4783 87.9702C87.4783 87.9702 87.4783 88.122 87.4711 88.3894C88.1442 95.7422 86.1972 102.155 81.826 106.703L81.5983 106.938C83.5138 108.243 86.3219 110.718 88.3782 114.888C88.6376 115.328 88.8941 115.782 89.148 116.254C89.6368 117.047 90.0127 117.789 90.2828 118.495C92.3175 122.958 93.877 126.98 94.8916 129.672C94.5049 130.886 94.3052 131.684 94.3414 132.348L94.3522 132.514L94.4453 132.649C94.5591 132.812 94.7814 132.98 95.0705 133.142C95.0868 133.112 95.1048 133.087 95.1211 133.057C95.1509 133.116 95.197 133.169 95.2304 133.227C95.7084 133.473 96.3164 133.701 96.8983 133.86C97.6943 133.801 98.2716 133.892 99.0793 133.819C99.1878 133.721 99.2555 133.611 99.2953 133.505C100.923 129.215 103.253 124.27 105.819 119.141C106.545 117.369 107.471 115.542 108.488 113.796C108.501 113.8 108.512 113.807 108.525 113.81C109.336 112.236 110.152 110.657 110.967 109.088C111.406 108.24 111.845 107.393 112.281 106.549C112.224 106.383 112.018 106.057 111.794 105.764C111.059 104.796 109.356 102.424 108.281 99.8947C107.889 98.9758 107.574 98.0895 107.329 97.2329C107.341 97.3007 107.346 97.3648 107.357 97.4326C107.09 96.9799 106.815 96.4975 106.557 96.0141L105.909 94.7998L105.492 96.1126C104.706 98.6008 103.942 101.385 103.133 104.334C101.614 109.873 99.8898 116.154 97.5334 122.158L97.4223 122.471C94.4173 113.432 97.1919 91.5517 99.1345 84.0336C100.114 80.2471 96.3327 74.1312 92.1865 70.7991C87.66 67.1571 83.7225 65.5272 79.017 65.3537C78.596 65.3374 78.1804 65.3293 77.7666 65.3293C67.6943 65.3293 59.5564 69.9137 55.2603 72.9612C63.6963 64.4791 73.6077 63.4816 77.7883 63.4816C78.6086 63.4816 79.4155 63.5169 80.1844 63.5855C85.5304 64.068 90.0868 65.9075 94.1146 69.2117C99.598 73.7129 103.003 81.0358 102.167 84.1005C102.051 84.5261 101.929 84.967 101.798 85.4287C100.492 90.0989 98.7053 96.4948 98.3864 107.939C98.3249 110.131 98.4017 111.782 98.6195 112.843L99.7452 112.885C100.726 109.466 101.669 105.263 102.666 100.815C104.151 94.1908 105.688 87.3396 107.639 81.6159C108.001 80.3672 108.376 79.1385 108.765 77.935C108.989 77.2357 109.317 76.5508 109.76 75.8398L110.011 75.4377L109.663 75.1097C106.668 72.2917 102.655 68.197 97.4043 62.5863C92.4928 57.3405 84.9106 54.3309 76.6029 54.3309L76.6011 54.3282ZM168.135 84.1177C169.308 84.4005 170.597 84.995 171.769 86.1686C172.537 86.9375 173.504 88.0678 174.523 89.2613C174.54 89.2812 174.557 89.3011 174.573 89.32C176.127 90.6455 177.742 92.2944 178.527 93.6695C179.291 94.3959 180 94.9633 180.623 95.2687C182.209 96.043 183.372 96.3891 184.144 96.539C183.672 96.8273 183.052 97.1272 182.36 97.2628L182.345 98.1681C181.027 97.6142 179.585 97.5681 179.138 97.5681C178.774 97.5681 178.257 97.5916 177.855 97.7091L177.779 97.7326L177.71 97.7741C176.762 98.3659 175.365 98.6957 173.78 98.6957C171.28 98.6957 167.685 97.7859 165.781 95.2244C164.558 93.5801 164.083 91.6908 164.44 89.9037C164.741 88.3876 165.608 87.1363 166.878 86.38C167.178 86.1993 167.668 85.9861 168.315 85.9861H168.381L169.143 86.0042L168.955 85.2633C168.828 84.7673 168.528 84.3959 168.135 84.1177Z" fill="#FFD700"/>
<path d="M94.0799 34.8555C93.8956 34.888 93.7302 35.0009 93.6227 35.1753C93.5016 35.3741 93.489 35.6081 93.5911 35.8014C95.549 39.3106 99.8822 46.0372 106.977 51.8495C115.899 59.1561 124.926 64.6006 142.338 69.1516C144.083 69.6404 146.039 70.1274 148.146 70.5954C148.351 70.6424 148.484 70.674 148.567 70.7237L148.451 70.5701L148.564 70.7011L148.583 70.7237L148.607 70.749C148.638 70.7779 148.662 70.8032 148.683 70.8384L148.699 70.8619L148.753 70.9369C149.952 72.453 155.235 80 149.868 89.2627C149.99 88.6194 150.061 88.0529 150.104 87.6012L150.168 86.9181L149.485 86.9678C147.622 87.1006 142.004 89.1371 137.192 90.9965L129.724 94.5852L129.728 94.9828C129.728 94.9828 137.067 92.5343 144.053 93.1134C143.484 95.2358 143.273 97.649 143.799 100.269C143.892 100.121 144.043 100.117 144.235 100.206C144.315 100.076 145.682 97.9138 146.471 97.3644C146.492 97.4945 146.525 97.6418 146.564 97.8026C146.5 98.2417 146.45 99.0974 147.348 101.397C148.843 105.226 154.848 109.925 164.527 109.313C170.061 108.962 172.842 108.997 176.234 109.926C176.267 109.861 176.291 109.8 176.327 109.737L176.726 109.03L176.929 108.787L177.134 108.519C177.457 108.094 177.817 107.666 178.21 107.252L178.856 106.569L178.976 106.32L179.213 106.373L179.225 106.379L180.956 106.925C181.015 106.879 181.795 106.556 182.031 106.495C183.793 106.034 189.86 105.722 190.441 114.742C190.45 114.75 190.452 114.756 190.46 114.764C191.068 114.27 191.607 113.707 192.066 113.072L192.163 112.938L192.175 112.77C192.313 110.748 191.716 108.89 191.029 107.471C190.89 107.092 190.281 106.21 189.624 105.634C188.702 104.49 187.276 102.667 186.641 101.755C185.753 100.483 182.34 98.1731 182.34 98.1731C181.022 97.6201 179.579 97.5731 179.131 97.5731C178.767 97.5731 178.253 97.5966 177.852 97.7141L177.774 97.7376L177.707 97.78C176.759 98.3718 175.362 98.6989 173.777 98.6989C171.275 98.6989 167.68 97.7918 165.777 95.2313C164.554 93.5869 164.078 91.6977 164.435 89.9114C164.736 88.3935 165.603 87.1413 166.873 86.3832C167.172 86.2034 167.664 85.992 168.31 85.992H168.376L169.139 86.0092L168.95 85.2683C168.823 84.7723 168.633 84.3973 168.376 84.1913C168.119 83.9853 165.943 83.5517 164.137 83.567C162.658 84.2943 160.545 85.8782 159.963 89.4172C159.39 92.9156 160.28 95.7905 164.057 98.1451C169.152 101.32 175.657 100.731 177.855 99.3413C177.7 100.374 177.322 102.071 175.312 103.516C170.982 106.634 164.584 105.963 160.027 104.69C157.19 103.897 154.657 102.533 152.706 100.787C151.698 99.7822 150.487 98.1225 149.988 95.7481C149.381 92.865 150.918 90.3921 152.541 88.923C153.552 88.0059 154.872 87.4846 154.872 87.4846C154.86 87.425 154.858 87.3572 154.842 87.3138C154.04 87.1621 153.113 87.1828 152.171 87.3997C153.303 85.6767 154.345 83.5291 154.583 81.1104C155.078 76.0761 151.395 67.4973 144.402 63.2083H144.231C144.714 63.6953 145.583 64.6783 145.764 65.6207C145.764 65.6207 144.91 65.468 143.421 65.1111C138.191 63.9492 127.753 60.9948 116.897 54.2917C111.813 51.1529 107.18 47.4738 104.568 44.9774C104.774 45.1048 104.988 45.2214 105.196 45.3443C98.0327 39.3097 95.1686 36.3255 94.0799 34.8555ZM48.7746 79.5401C46.7326 81.3652 42.4699 87.4593 41.467 93.7775C41.3279 94.653 41.2845 95.3848 41.2981 96.0155C31.1743 105.394 15.9286 101.643 10.4678 98.5372C10.5771 99.0124 10.9295 99.391 10.9295 99.391C13.1503 101.177 16.8881 104.158 23.2271 104.916C26.2809 105.283 33.1421 105.557 38.4963 103.088C40.5698 102.131 42.1826 100.959 43.3897 99.859C44.9907 101.302 51.6441 106.659 61.4932 105.843C72.8548 104.901 79.5 96.5305 79.5 96.5305L79.9888 98.1857C79.9888 98.1857 81.7904 96.676 83.5929 93.5092C86.9856 87.5506 86.5718 82.228 86.5718 82.228C86.5718 82.228 86.2546 81.6227 86.1426 81.1411C86.1209 81.0444 86.092 80.8475 86.0577 80.5936C80.7415 96.3137 68.3264 99.1561 68.3264 99.1561L69.1667 95.0343C65.8011 97.2822 61.0821 98.8444 57.3804 98.3619C48.5948 97.2163 46.5068 91.8377 46.6604 86.6407C46.7516 83.5679 48.9489 79.8012 48.9489 79.8012L48.7746 79.5401ZM86.9919 82.4205L86.7769 83.2174C87.0389 84.3603 87.2024 85.5963 87.2937 86.8639C87.3172 87.0473 87.347 87.2307 87.3696 87.4141L87.4735 87.9734C87.4735 87.9734 87.4753 88.1252 87.468 88.3917C88.1412 95.7453 86.1959 102.161 81.8229 106.708L81.317 107.236L81.9467 107.608C84.3916 109.062 86.8808 112.055 89.1431 116.259C89.6328 117.052 90.0087 117.794 90.2797 118.502C92.01 122.298 93.3932 125.765 94.3943 128.377L95.1442 130.114L95.2788 130.377C95.4885 129.674 95.7848 128.799 96.1643 127.659C96.0595 127.41 95.9529 127.163 95.8273 126.886C93.3381 121.433 90.8788 112.717 90.4614 108.297C90.3358 106.97 90.2861 105.788 90.2816 104.703L87.188 106.252L87.0416 106.151C88.9941 103.9 90.3656 97.9418 89.725 92.8704C89.0835 87.8008 86.9919 82.4205 86.9919 82.4205ZM101.509 86.4591C100.241 91.0408 98.6796 97.3111 98.3824 107.942C98.3218 110.134 98.3977 111.784 98.6155 112.846L99.7412 112.888C100.722 109.469 101.666 105.266 102.661 100.819C103.325 97.8641 103.999 94.8662 104.716 91.9407C103.998 90.7137 102.62 88.3574 101.509 86.4591ZM109.078 101.561C105.898 111.323 101.425 121.101 97.7599 130.677C97.4707 131.431 95.0159 132.698 94.6627 132.878C94.6988 132.906 94.7394 132.935 94.781 132.963L97.2991 133.963C97.6487 134.039 97.9704 134.085 98.2261 134.085C98.9245 134.085 99.1919 133.772 99.2913 133.509C101.972 126.45 106.543 117.626 110.963 109.094C111.427 108.197 111.889 107.304 112.349 106.415C112.209 106.189 110.458 104.149 109.078 101.561ZM138.664 102.059C138.582 102.11 138.506 102.151 138.422 102.207C132.254 106.364 128.337 109.386 125.623 112.04C122.176 115.416 120.716 118.092 119.528 120.581C114.884 130.312 111.028 139.835 107.389 147.617C105.904 150.793 103.587 152.816 101.617 155.043C101.605 155.056 101.601 155.063 101.588 155.078C101.579 155.388 101.555 155.696 101.512 155.989C101.444 156.46 101.356 156.905 101.249 157.326C101.25 157.325 101.252 157.32 101.255 157.317C101.246 157.618 101.232 157.94 101.211 158.272L101.108 159.834L102.206 158.717C104.347 156.531 107.094 153.588 108.439 151.9L108.506 151.84L108.564 151.787L108.619 151.735L108.662 151.672C109.565 150.282 110.439 148.687 111.363 146.999L111.409 146.915C111.683 146.416 112.192 145.312 112.896 143.786C114.29 140.761 116.4 136.19 118.561 132.267C119.362 130.812 120.232 129.279 121.148 127.714C121.41 127.191 121.667 126.689 121.951 126.159C124.994 120.484 129.857 113.072 135.176 107.569C135.603 107.125 137.323 105.782 137.323 105.782C137.323 105.782 137.757 104.281 138.043 103.522C138.236 103.018 138.445 102.533 138.664 102.059ZM115.092 102.468L115.503 103.831C115.56 104.02 115.622 104.205 115.684 104.383C115.806 104.735 115.974 105.219 115.923 105.371L115.701 106.04L116.396 106.132C118.039 106.352 120.737 106.817 120.737 106.817L123.251 106.721C123.251 106.721 120.603 105.123 117.137 102.709C117.122 102.753 117.106 102.795 117.091 102.839C116.95 103.249 116.777 103.25 116.692 103.25C116.546 103.25 116.391 103.184 116.345 103.157L115.092 102.468ZM195.179 112.842L194.018 113.144C193.198 113.355 192.499 113.477 192.304 113.499L192.052 113.527L191.882 113.733C191.642 114.063 191.229 114.553 190.599 115.073C190.618 115.19 190.631 115.286 190.706 115.292C191.887 115.381 192.878 115.285 193.813 114.958C194.167 114.578 194.517 114.141 194.865 113.497C194.993 113.261 195.094 113.045 195.179 112.842Z" fill="#C99700"/>
<path d="M40.2898 91.75L40.5269 91.6066C40.5269 91.6066 41.2949 80.2088 47.9843 71.5928C52.8993 65.2626 57.3773 62.2562 64.576 59.4441C74.0662 55.7374 87.6029 56.3428 94.9789 63.6205C101.23 69.7892 105.729 74.2175 108.976 77.3628C109.181 76.8568 109.441 76.352 109.764 75.8348L110.014 75.4327L109.667 75.1052C106.67 72.2874 102.66 68.1911 97.4082 62.5804C92.4965 57.3344 84.915 54.3268 76.6073 54.3268C73.5241 54.3268 70.4092 54.7458 67.3486 55.5714C56.3101 58.553 50.8845 63.6024 46.0135 70.7492C43.4837 74.9922 41.8709 79.2602 41.0307 82.1751C39.4665 87.6007 40.2898 91.75 40.2898 91.75Z" fill="#FCFAA8"/>
<path d="M52.3398 76.0281L52.7205 76.0947C52.7205 76.0947 65.7512 67.0427 78.3021 67.9214C89.8116 68.7266 97.6257 79.2649 96.5144 84.6498C93.6097 98.732 92.2668 119.89 97.4066 123.98C97.3795 123.167 97.3615 122.544 97.3524 122.222C95.2608 115.556 96.1316 102.375 97.5038 92.7926C97.7511 90.4695 98.0899 88.3643 98.5451 86.6488C98.7472 85.6549 98.9471 84.7706 99.138 84.0297C100.117 80.2429 96.336 74.1273 92.19 70.7945C87.6635 67.1512 83.7253 65.5226 79.0203 65.3487C78.5991 65.3329 78.1823 65.325 77.769 65.325C67.696 65.325 59.56 69.9091 55.2627 72.9562C55.379 72.8399 55.4964 72.7292 55.6128 72.6162C54.3501 73.6632 53.2343 74.7993 52.3398 76.0281Z" fill="#FCFAA8"/>
<path d="M105.884 94.8685L105.492 96.1097C104.705 98.5977 103.94 101.383 103.131 104.332C101.885 108.874 100.497 113.914 98.7399 118.892C97.9549 122.047 97.4434 124.16 97.4434 124.16L98.1921 123.224C98.1921 123.224 102.742 114.035 107.48 97.9563C106.883 96.7399 106.413 95.9324 105.884 94.8685Z" fill="#FCFAA8"/>
<path d="M190.757 99.1152L191.428 99.1277C191.234 98.6861 190.693 97.5499 189.847 97.1569L188.862 96.5877L189.009 95.4594C189.041 95.211 189.053 94.8112 188.924 94.3142C188.912 94.2747 188.893 94.225 188.879 94.1821C188.363 93.1024 187.236 91.3135 185.918 89.3506C184.502 87.6283 182.817 85.7965 181.222 84.1476C177.714 80.5121 173.446 78.5187 168.54 78.2274C168.173 78.2059 167.816 78.1946 167.471 78.1946C166.247 78.1946 165.188 78.3188 164.366 78.4623C164.887 77.9755 165.49 77.4583 166.066 77.0494L166.479 76.7569L166.246 76.3074L166.182 76.1843L166.114 76.0522C165.813 75.457 165.438 74.6789 165.006 73.7742C163.103 69.8225 160.23 63.8469 156.94 59.3226C153.009 53.9174 147.994 48.2457 140.604 47.1626C132.043 45.9146 121.898 43.849 116.698 42.5389C113.459 41.7235 104.802 39.3439 94.429 34.8896L94.3195 34.8411H94.193C94.0066 34.8411 93.8327 34.928 93.7051 35.0748C99.8252 40.0068 109.301 43.98 116.918 45.8672C121.613 47.0338 126.845 48.1135 130.983 48.755C137.42 49.7523 142.447 50.1012 144.91 51.4362C155.426 57.1384 163.222 75.9347 163.92 78.4273C163.427 78.7186 162.981 79.0439 162.649 79.3737C162.142 79.8796 161.885 80.3246 161.885 80.3246L161.934 80.3912C161.934 80.3912 162.929 80.066 164.828 80.0129C169.788 79.8785 173.935 81.524 177.093 84.0086C180.251 86.4933 185.769 92.9229 186.354 93.6739C186.932 94.4249 187.004 94.6079 186.931 94.7039C186.705 94.7649 185.971 95.2787 185.639 95.8671C185.684 95.8988 185.694 95.9236 185.71 95.9552C187.515 96.2658 188.605 97.5929 188.913 98.2163C188.464 98.2422 187.775 98.5325 187.472 98.6703C187.413 98.6928 187.401 98.7505 187.472 98.7663C188.517 98.9526 190.246 100.216 191.714 102.833C193.515 106.046 193.303 109.094 193.362 109.643C193.028 109.437 193.304 109.622 193.774 109.934C194.016 109.866 194.33 109.713 194.732 109.465L195.031 109.28L195.003 108.928C194.992 108.78 194.977 108.622 194.961 108.462C194.896 108.146 194.814 107.775 194.715 107.369C194.447 106.464 194.026 104.456 193.275 102.782C193.035 102.224 192.722 101.59 192.382 100.941C191.916 100.257 191.38 99.6314 190.757 99.1152Z" fill="#FCFAA8"/>
<path d="M120.463 77.7785C116.945 77.8237 115.248 78.9621 114.021 80.3634C113.979 80.4131 113.88 80.5324 113.746 80.7004C115.47 80.0625 117.344 79.7093 119.22 79.7093C121.491 79.7093 123.608 80.2197 125.349 81.1838L125.686 81.3708L125.989 81.1332C127.082 80.2703 127.288 79.937 127.298 79.5891C127.303 79.4942 127.307 79.3551 127.157 78.8482C126.132 78.5365 123.249 77.7432 120.463 77.7785ZM86.5757 82.3403C86.5811 82.4613 86.5883 82.6845 86.5829 83.0053C86.6344 83.2926 86.6588 83.5961 86.6588 83.5961L86.7482 87.7875C86.7482 87.7875 85.8014 96.5623 78.0927 102.14C72.6337 106.091 66.4908 107.847 61.704 107.847C54.167 107.847 48.2011 105.3 44.728 101.702C44.064 101.013 43.5174 100.297 43.0611 99.5511C43.0385 99.5303 43.0096 99.5014 43.0096 99.5014C43.0096 99.5014 42.9111 99.4798 42.7638 99.4048C42.8722 99.7535 43.0295 100.115 43.2707 100.499C43.7134 101.205 44.1977 101.878 44.7109 102.53C46.9841 105.237 49.7308 107.399 52.7981 108.831C55.8927 110.275 59.4425 111.037 63.0629 111.037C65.3135 111.037 67.5623 110.746 69.7461 110.175C73.7062 109.14 77.0202 107.478 79.6657 105.244C82.6454 102.459 84.9141 98.9232 86.1555 94.9297C86.5567 93.4977 86.8548 91.9897 87.0184 90.3869C87.1684 88.8997 87.2036 87.5418 87.1756 86.3338C87.088 84.9686 86.8838 83.635 86.5757 82.3403ZM121.566 86.7557C119.71 86.753 117.725 86.9048 116.219 87.4098C112.762 88.5699 110.122 95.3806 109.065 101.59C110.262 103.906 111.555 105.71 112.244 106.613C112.939 105.271 113.628 103.935 114.302 102.616L114.449 102.327L114.279 102.048C113.646 101.013 113.231 100.253 112.961 99.6984C113.866 99.9713 114.524 100.022 114.892 100.022C115.117 100.022 115.238 100.002 115.238 100.002L115.599 99.9442L115.71 99.5909C115.721 99.5547 116.746 96.097 119.3 93.1363C120.944 91.2271 123.289 89.5466 124.689 88.5428C125.959 87.6321 126.188 87.4649 126.146 87.034C126.146 87.0313 126.145 87.0277 126.145 87.0249C125.15 86.9138 123.421 86.7584 121.566 86.7557ZM170.162 86.8804L169.933 86.9581C169.657 87.0529 169.387 87.2084 169.102 87.4333C167.774 88.4796 166.956 90.0192 166.857 91.659C166.758 93.3206 167.387 94.9161 168.626 96.1576C169.083 96.6165 169.626 97.0078 170.22 97.3312C171.374 97.8751 172.677 98.2176 173.871 98.2148C174.824 98.213 175.538 98.1642 176.118 98.0522C176.787 97.8625 177.395 97.5788 177.911 97.2002C178.09 97.0421 178.266 96.865 178.448 96.6599C178.458 96.6509 178.47 96.6364 178.479 96.6265L178.472 96.4449L178.467 96.3283C178.463 96.3039 178.448 96.1892 178.413 96.013C178.37 96.0645 178.319 96.1214 178.246 96.2027C176.385 98.2691 172.205 97.9519 170.072 95.8115C167.94 93.6756 168.279 90.5043 170.45 88.7967C171.305 88.1227 172.088 88.1146 172.684 88.345C172.7 88.3522 172.726 88.3657 172.744 88.373C172.013 87.8742 171.226 87.408 170.379 86.9879L170.162 86.8804ZM44.6476 102.983C38.0783 109.561 29.8546 109.15 29.8546 109.15L28.4785 111.829L29.1272 111.951C29.5627 112.029 30.1003 112.071 30.7282 112.071C32.9617 112.071 36.5025 111.532 39.7434 110.015C43.0674 108.459 44.953 106.411 45.7806 105.326L46.0472 104.977L45.7824 104.623C45.3804 104.092 45.0045 103.545 44.6476 102.983ZM180.191 106.062C180.191 106.062 175.014 110.475 177.91 114.945C178.81 116.339 180.473 117.047 182.219 117.294C182.221 117.294 182.223 117.296 182.226 117.296C182.322 117.296 182.415 117.293 182.503 117.289L182.57 117.287C185.946 117.174 188.607 116.301 190.532 114.697C190.467 114.582 190.413 114.506 190.372 114.51C189.143 114.688 185.67 115.075 182.589 114.312C179.366 113.516 178.945 109.766 181.937 107.502C181.327 107.317 180.573 106.589 180.573 106.589C180.573 106.589 180.255 106.199 180.191 106.062ZM147.693 106.506C147.032 107.265 146.57 107.968 146.412 108.596C146.713 109.071 147.118 109.599 147.671 110.168C149.437 111.998 152.656 112.888 157.507 112.888C160.299 112.888 163.14 112.597 165.421 112.366C166.767 112.228 167.93 112.11 168.729 112.088C168.894 112.085 169.057 112.083 169.214 112.083C171.854 112.083 173.65 112.661 174.687 113.147L175.303 113.434C175.359 113.429 175.392 113.425 175.392 113.425C175.392 113.425 175.452 113.359 175.544 113.255L175.513 112.592C175.494 112.204 175.548 111.793 175.658 111.368C172.926 109.77 168.267 110.306 164.497 110.709C161.442 111.035 157.552 111.022 153.322 110.15C149.332 109.326 147.693 106.506 147.693 106.506ZM190.689 114.995C189.722 115.814 188.205 116.726 185.942 117.218C184.943 117.545 183.936 117.711 182.969 117.714C183.207 118.067 185.471 118.427 185.471 118.427C186.245 118.564 187.113 118.54 187.816 118.405C189.486 118.088 190.968 117.404 192.174 116.585C191.528 116.355 191.126 115.604 191.048 115.348C191.027 115.291 190.968 115.276 190.867 115.317C190.804 115.212 190.744 115.1 190.689 114.995ZM152.042 115.187C152.029 115.195 152.016 115.202 152.001 115.21C147.525 117.795 136.853 122.123 130.086 118.254C129.87 119.065 129.689 119.835 129.537 120.511L129.415 121.036L129.932 121.192C131.785 121.756 133.779 122.043 135.851 122.043C140.75 122.043 146.09 120.521 152.169 117.393C152.562 117.181 152.979 116.961 153.413 116.736L153.611 116.628L153.765 116.548L155.337 115.688L153.561 115.46C153.033 115.391 152.525 115.298 152.042 115.187ZM101.586 155.079C101.278 155.458 100.536 156.316 99.5925 156.96C97.4701 158.405 94.3341 159.843 92.8361 159.508C90.786 159.051 87.7457 157.343 86.4745 156.597C85.4002 157.907 85.103 159.462 85.2565 160.282C85.4427 161.283 89.9629 164.953 93.1812 164.306C96.9551 163.549 100.696 161.702 101.511 155.988C101.554 155.694 101.577 155.388 101.586 155.079ZM83.155 160.774C83.1812 160.636 82.4322 162.346 82.4683 162.977C82.4819 163.199 82.734 163.537 83.1387 163.921C82.7936 165.07 82.6626 166.251 82.6996 166.69C82.7791 167.627 86.8305 169.433 89.7885 169.152C93.0511 168.839 92.1801 167.704 90.7661 167.271C90.7923 167.27 90.8212 167.272 90.8474 167.269C92.2723 167.157 94.0115 165.999 95.3153 165.017C95.1219 164.921 94.9521 164.806 94.8156 164.671C93.8534 165.242 91.7979 165.82 90.4869 165.615C85.2087 164.79 83.155 160.774 83.155 160.774Z" fill="#CBD3EC"/>
<path d="M133.916 28.8597C133.816 28.8669 133.718 28.8841 133.623 28.9112C132.29 29.2907 132.058 32.3897 131.935 35.7561C131.825 38.7025 132.163 40.8799 132.565 42.4096C132.558 42.5469 132.559 42.6752 132.559 42.8026C126.23 41.7852 119.289 40.5655 113.773 38.7883C104.878 35.9251 99.5126 33.6076 90.548 29.7921C89.8839 29.5084 89.2343 29.0856 88.7337 29.6087C88.2287 30.1282 88.2666 31.2594 88.8747 32.5108C89.4827 33.7621 93.9813 43.9591 105.612 54.063C114.279 61.5891 125.31 67.8432 142.257 72.0255C143.314 72.2866 144.688 72.5984 145.995 72.8938C148.158 74.9438 149.085 77.433 149.491 79.4252L148.642 82.8766C148.642 82.8766 141.909 85.907 139.919 87.2035C139.904 87.2152 139.887 87.227 139.868 87.2369C137.734 87.4447 135.219 87.2189 132.572 86.0235C132.342 84.5915 132.041 83.3112 131.758 83.1278C131.477 82.9489 131.158 82.7736 130.805 82.6065C130.674 81.2964 130.501 79.8698 130.252 79.7234C129.522 79.287 129.088 79.0223 128.738 78.8343C128.264 76.9794 127.657 75.1273 127.255 74.9538C126.949 74.8237 126.644 74.7035 126.337 74.5879C126.008 73.1287 125.553 71.515 125.28 71.3199C122.32 69.2129 115.955 69.5075 111.745 72.7935C109.597 70.8175 107.447 68.6961 105.576 66.6135C100.915 61.4301 98.4699 57.6119 96.5572 53.4495C96.4632 53.5886 96.0865 54.2644 95.885 54.9394C95.6826 55.6143 95.6094 56.0398 95.6094 56.0398C95.6094 56.0398 93.0633 53.8651 88.4871 52.4086C83.3425 50.7724 74.7692 49.7812 64.9607 53.0266C49.1485 58.2579 39.1051 73.051 38.9217 86.2566C33.4302 92.9471 23.32 98.3284 6.47688 95.6061C6.47688 95.6061 6.12361 95.6332 6.22842 96.1988C6.42719 97.3047 10.9077 104.846 17.6171 109.485C19.5705 110.836 21.8446 111.985 22.7255 112.31C23.7492 112.08 26.7741 111.316 26.7741 111.316C26.7741 111.316 25.5472 113.44 25.4234 113.686C34.4024 115.493 42.9243 112.562 48.3959 108.334C49.2163 109.1 50.4649 110.117 52.1798 111.126C52.9848 111.599 53.9018 112.07 54.9147 112.512C55.0728 112.58 55.2282 112.653 55.3881 112.719C55.3899 112.721 55.3953 112.722 55.398 112.723C57.2231 113.484 59.1404 114.027 61.0983 114.325C61.6214 114.413 62.1563 114.486 62.7128 114.545C66.1516 114.91 70.1993 114.701 74.9616 113.715C79.7421 112.726 82.392 113.246 85.1504 116.365C89.0545 121.361 90.0005 128.912 90.0673 129.478C90.0628 129.536 90.0601 129.571 90.0601 129.571L91.9918 128.271C92.009 130.887 92.0903 133.907 92.1653 134.684C92.2917 136.007 97.2619 137.473 98.4311 137.564C98.4871 137.586 98.5359 137.597 98.5774 137.599C99.7592 137.644 104.064 135.757 105.1 135.311C103.902 140.621 102.962 144.77 102.841 145.355C102.503 146.985 100.593 150.024 100.593 150.024C100.593 150.024 98.6831 149.581 97.7028 150.464C97.6848 150.48 97.6721 150.496 97.655 150.513L97.6342 150.49C97.6342 150.49 95.7829 152.272 92.5339 153.214C89.4809 154.102 86.1678 153.785 85.7404 154.534C85.4712 155.011 84.7809 156.261 84.2741 157.465C83.4988 157.446 82.917 157.486 82.7191 157.743C82.346 158.227 80.623 162.558 80.9365 163.019C81.1678 163.362 81.5093 163.73 81.9249 164.11C81.5599 165.32 81.2238 166.929 81.2699 167.057C82.2204 169.733 89.8469 171.256 92.3451 169.99C93.5043 169.401 95.6582 167.588 97.9694 165.481C98.3479 165.387 98.7238 165.257 99.1042 165.078C101.909 163.769 107.316 160.189 109.013 158.519C111.615 156.407 113.205 152.519 113.88 151.357C117.817 145.355 131.896 129.752 136.29 124.928C139.435 124.401 143.115 123.473 147.367 121.934C147.078 123.111 147.031 124.304 147.747 124.889C148.686 122.984 152.702 119.259 160.772 116.585C164.493 115.353 172.46 115.56 181.086 118.644C181.644 118.842 182.092 118.918 182.469 118.915C183.956 119.775 186.031 120.302 188.084 119.912C191.474 119.268 193.612 117.768 195.033 116.201C196.307 114.798 196.865 113.392 197.105 112.532C197.257 112.432 197.398 112.328 197.516 112.216C198.052 111.712 197.34 109.338 196.979 108.685C196.911 108.56 196.808 108.474 196.694 108.409C196.286 106.206 195.268 102.612 193.004 98.4774C192.059 96.7544 191.31 96.0235 190.706 95.673C190.759 95.2483 190.773 94.6285 190.579 93.8786C190.048 91.8385 186.419 86.5846 183.132 82.7917C180.666 79.9475 178.394 77.5107 174.986 76.6099C174.709 76.4897 174.264 76.2422 174.15 75.8455C173.867 74.8707 170.392 63.0537 168.176 55.7353C166.392 49.8526 164.872 47.0292 162.106 43.6013C158.652 39.3214 153.153 37.3463 145.577 34.185C137.689 30.8926 135.412 28.7513 133.904 28.8552L133.916 28.8597ZM135.729 33.0212C135.97 32.9228 139.308 34.8093 145.791 37.5053C154.886 41.2874 161.251 44.5852 164.883 55.0035C168.714 65.9811 170.514 75.8266 170.514 75.8266L170.018 75.7805C169.565 75.3315 168.297 73.725 166.935 70.439C164.595 64.2238 160.693 54.3846 158.183 50.8429C153.024 43.566 138.983 37.9625 135.496 34.2762C135.472 33.5823 135.522 33.1017 135.721 33.0212H135.729ZM94.2027 35.4173C103.08 39.2292 111.245 41.759 116.559 43.0971C121.917 44.447 132.079 46.5006 140.523 47.7312C147.396 48.7368 152.289 53.903 156.473 59.6566C160.506 65.2041 164.009 73.1612 165.602 76.3136C165.646 76.403 165.688 76.4852 165.73 76.5711C164.451 77.4773 163.086 78.8723 162.651 79.3683C162.646 79.4514 162.701 79.4569 162.701 79.4569C162.701 79.4569 165.114 78.6012 168.509 78.8018C172.193 79.0196 176.674 80.2619 180.808 84.5454C184.476 88.3473 189.129 93.7458 188.632 95.1209C188.62 95.1561 188.621 95.1833 188.614 95.2149C188.613 95.2149 188.608 95.214 188.605 95.2131C188.605 95.2131 187.472 95.0062 186.513 95.7073C186.558 95.747 186.567 95.7687 186.609 95.8021C186.609 95.8021 189.373 95.8076 190.673 98.5271C190.227 98.5181 189.509 98.5868 189.234 98.7033C189.184 98.7114 189.226 98.772 189.275 98.809L189.273 98.8108C189.277 98.8126 189.28 98.8144 189.283 98.8181C189.287 98.8217 189.293 98.8226 189.297 98.8253C192.8 100.661 194.193 105.879 194.426 108.967C193.735 109.397 193.534 109.387 193.534 109.387C193.534 109.387 193.498 109.507 191.191 106.756C189.914 105.229 188.9 104.737 188.9 104.737L188.809 105.066C188.809 105.066 191.881 108.562 191.599 112.729C188.833 116.555 183.852 116.66 182.486 116.707C181.125 116.754 178.506 116.477 177.349 113.446C176.856 112.161 177.105 110.938 177.652 109.791C179.192 110.084 180.198 110.273 180.198 110.273C180.198 110.273 180.831 109.925 181.216 109.283C181.607 108.638 180.059 108.595 180.059 108.595L178.466 108.392C178.572 108.233 178.679 108.076 178.789 107.921C178.949 107.697 179.112 107.492 179.276 107.294C180.693 107.718 181.627 107.999 181.627 107.999C181.627 107.999 182.021 107.73 182.479 107.134C182.933 106.534 181.605 106.322 181.605 106.322L180.497 106.07C181.858 104.928 183.061 104.559 183.061 104.559L182.96 104.439C182.96 104.439 180.899 104.622 179.108 105.752L165.385 102.613C165.385 102.613 164.748 102.952 164.974 103.015C165.13 103.058 172.923 105.392 177.791 106.851C177.4 107.268 177.021 107.708 176.673 108.166L161.673 106.264C161.673 106.264 160.982 106.657 161.214 106.694C161.376 106.719 170.269 108.4 175.825 109.449C175.24 110.484 174.887 111.564 174.936 112.616C173.662 112.021 171.646 111.429 168.717 111.505C164.67 111.611 152.264 114.081 148.089 109.763C145.883 107.479 146.181 105.992 146.181 105.992C146.181 105.992 145.633 106.505 145.297 106.906C144.353 104.091 144.466 100.258 146.58 97.7745L146.924 96.5493C144.002 98.9346 139.812 103.054 144.086 111.744C144.086 111.744 144.303 111.024 144.769 110.273C146.819 114.134 150.028 115.585 153.489 116.033C153.379 116.094 153.264 116.154 153.15 116.218C152.712 116.445 152.292 116.665 151.906 116.873C146.376 119.72 137.991 123.029 130.107 120.635C130.5 118.888 131.007 116.872 131.727 114.979C133.084 111.407 135.174 108.53 137.191 106.352C137.346 105.677 137.538 104.997 137.771 104.31C131.26 109.905 125.096 119.075 121.441 125.882C121.152 126.416 120.896 126.921 120.648 127.413C119.793 128.881 118.914 130.417 118.052 131.984C114.813 137.87 111.698 145.181 110.902 146.632C109.953 148.364 109.082 149.958 108.176 151.352C108.123 151.4 108.073 151.448 108.021 151.495C106.734 153.119 103.998 156.059 101.793 158.306C101.92 156.373 101.765 154.873 101.765 154.873C101.765 154.873 101.604 155.078 101.604 155.048C100.51 158.128 97.5095 163.223 93.5838 163.494C89.2768 163.795 85.922 160.388 85.8208 159.325C85.7621 158.679 86.8852 156.856 86.9891 156.632C87.0053 156.598 87.1589 156.556 87.4164 156.505C88.5964 156.398 91.7388 156.23 94.3463 155.21C97.3731 154.236 98.7807 152.819 99.0265 152.671C99.2713 152.522 100.807 152.496 101.58 152.932C101.81 152.483 104.471 147.7 105.144 145.581C105.745 143.843 110.003 126.736 112.474 114.654C113.158 111.778 114.264 108.631 115.224 108.198C118.135 107.516 122.638 107.26 122.816 107.204C123.074 107.134 123.277 106.717 123.277 106.717C123.277 106.717 120.215 106.053 116.473 105.553C116.622 105.108 116.29 104.417 116.058 103.658C116.058 103.658 117.2 104.319 117.64 103.022C118.132 101.574 119.116 99.0728 121.185 96.2765C124.011 92.4556 129.125 90.176 128.826 88.9211C128.824 88.9102 128.818 88.8931 128.813 88.8786C131.112 90.0929 133.448 90.4453 135.108 90.5076C132.428 92.3734 129.726 94.2752 129.726 94.2752V94.6032C129.726 94.6032 146.186 87.7836 149.529 87.5432C149.316 89.8155 148.679 91.5728 148.601 91.8096C148.479 92.18 148.82 91.8855 148.82 91.8855C156.785 81.3379 150.726 72.4854 149.212 70.5736C149.199 70.5537 149.179 70.523 149.175 70.5176C149.119 70.4336 149.063 70.373 149.008 70.3197C148.932 70.2339 148.892 70.186 148.892 70.186C148.878 70.1887 148.876 70.2086 148.867 70.2212C148.706 70.1236 148.521 70.0803 148.274 70.0252C146.322 69.5915 144.329 69.1027 142.488 68.5868C124.275 63.8262 115.579 58.1341 107.35 51.3958C100.262 45.5917 96.0169 38.9464 94.1096 35.5312C94.0924 35.4996 94.1575 35.4065 94.2018 35.4182L94.2027 35.4173ZM102.096 42.5948C102.013 42.5722 102.011 42.5767 101.905 42.7466C102.753 44.5915 109.471 50.3839 116.596 54.783C132.239 64.4397 146.832 66.3434 146.832 66.3434C146.776 66.1681 146.04 64.9601 145.262 63.7856C145.299 63.7928 145.404 63.7684 145.43 63.7738C155.354 68.192 156.611 77.9751 156.701 81.6903L157.251 81.1591C157.628 74.287 154.627 59.8924 142.592 54.7261C137.209 53.1405 116.535 53.2923 102.097 42.5939L102.096 42.5948ZM76.1552 54.9141C84.612 54.8029 92.2068 57.8929 96.9692 62.9796C102.665 69.062 106.487 72.9299 109.255 75.532C108.83 76.2124 108.464 76.9424 108.202 77.7574C107.755 79.1334 107.384 80.3685 107.078 81.4283C103.78 91.1093 101.586 104.334 99.1792 112.727C98.9958 111.837 98.8873 110.361 98.9551 107.954C99.3048 95.4155 101.467 88.8343 102.717 84.2517C103.653 80.8166 99.9589 73.2696 94.4692 68.763C89.4403 64.6367 84.2876 63.3763 80.2245 63.0086C73.3968 62.3924 60.9736 64.1533 51.868 75.9413L52.327 76.0335C52.327 76.0335 63.3814 65.3522 78.9858 65.9323C83.1474 66.0868 86.9484 67.3372 91.8129 71.2512C95.9907 74.6132 99.424 80.5591 98.563 83.8894C96.6033 91.4753 93.4365 115.43 97.364 123.936V123.945C97.3649 123.945 97.3658 123.942 97.3658 123.942C97.3749 123.962 97.4363 124.131 97.4363 124.131L98.0651 122.369C101.676 113.166 103.764 103.476 106.036 96.2873C107.061 98.2064 108.343 100.125 108.343 100.125C108.366 100.038 108.417 99.9691 108.43 99.9176C107.343 95.289 106.194 87.1457 112.357 82.845C116.81 79.7387 124.414 81.4491 124.875 82.3011C125.335 83.1549 125.521 86.7228 125.561 87.0906C125.59 87.3806 121.428 89.7677 118.854 92.7555C116.18 95.8546 115.147 99.4252 115.147 99.4252C115.147 99.4252 113.976 99.5969 111.946 98.7024C112.141 99.5255 112.933 100.968 113.777 102.35C108.382 112.915 102.114 124.419 98.7419 133.3C98.4943 133.949 95.2896 132.858 94.9092 132.317C94.8749 131.732 95.0791 130.947 95.4947 129.657C94.4882 126.978 92.9025 122.87 90.8136 118.289C90.5182 117.512 90.1188 116.74 89.6481 115.98C87.9856 112.892 85.4342 109.008 82.233 107.108C88.0317 101.074 89.097 92.6986 87.5294 84.7532C86.9773 81.9568 86.1461 79.9755 86.1461 79.9755L85.9112 80.8618C85.9112 80.8618 87.0053 84.7405 86.4352 90.3242C85.501 99.4821 80.3483 106.799 69.593 109.61C63.9461 111.087 57.9739 110.602 53.039 108.301C47.8438 105.877 43.769 101.458 41.297 96.0298C41.2284 96.0624 41.0748 96.1952 41.0748 96.1952C41.0748 96.1952 41.2311 96.9433 41.3431 97.2875C42.2304 100.052 43.5784 102.674 45.3095 104.973C44.3816 106.188 42.5367 108.06 39.49 109.487C35.5146 111.347 31.0378 111.714 29.2271 111.377C30.249 109.583 31.4326 107.512 31.4326 107.512L31.1543 107.493C31.1543 107.493 25.1361 108.822 22.403 108.879C19.434 107.402 15.4107 104.712 11.0224 98.8126C11.0224 98.8126 10.8697 98.4747 11.2429 98.5154C11.5582 98.5488 27.5981 102.915 39.5551 90.6856C39.8523 91.4662 40.136 91.8538 40.136 91.8538L40.3195 91.7147C40.3195 91.7147 40.1324 88.1224 41.6341 81.7924C42.3379 78.8298 43.76 75.1679 45.9329 71.8873C50.7206 64.6583 55.9546 59.25 67.4833 56.1356C70.4206 55.3423 73.3362 54.9511 76.1552 54.9141ZM120.521 71.7771C122.219 71.8123 123.444 72.227 123.581 72.5794C123.67 72.8116 123.773 73.2959 123.868 73.8497C121.094 73.2353 118.137 73.3221 114.809 74.4695C113.753 74.8336 112.756 75.3739 111.83 76.0398C112.05 75.5899 112.304 75.2158 112.508 74.9547C113.113 74.3033 113.809 73.716 114.631 73.2453C116.655 72.0834 118.824 71.7409 120.521 71.7771ZM120.77 75.1029C123.522 75.1336 125.476 75.9124 125.695 76.4798C126.04 77.3833 126.727 79.193 126.715 79.5662C126.709 79.7577 126.26 80.1742 125.625 80.6721C120.933 78.0709 114.235 78.8895 109.934 82.0662C110.646 79.5255 112.158 77.1403 115.157 76.0633C117.181 75.336 119.119 75.0848 120.77 75.1029ZM165.769 83.3211C164.793 83.3645 164.161 83.5488 164.161 83.5488L164.503 83.8931C164.503 83.8931 167.961 83.7476 168.382 85.4082C167.677 85.392 167.056 85.5925 166.57 85.8817C163.571 87.6715 162.643 91.9885 165.307 95.5736C168.184 99.4451 174.969 100.168 178.011 98.2678C178.811 98.0338 181.02 98.1007 182.519 98.8985C184.068 99.717 186.357 101.963 186.719 102.346C186.798 102.428 187.087 102.357 187.087 102.357C187.087 102.357 184.273 98.3166 183.566 98.1178C183.398 98.0709 182.992 97.957 182.464 97.8341C184.178 97.4953 185.459 96.2828 185.459 96.2828C185.459 96.2828 185.445 96.1545 185.289 96.0624C185.289 96.0624 183.945 96.2485 180.871 94.7478C178.554 93.613 174.524 88.1178 172.172 85.7597C169.976 83.5624 167.396 83.248 165.769 83.3211ZM170.117 87.5053C171.568 88.2272 172.753 89.0186 173.716 89.8237C172.976 89.7957 172.256 89.9872 171.672 90.3902C171.786 90.4073 171.896 90.4299 172 90.4904C172.502 90.7732 172.657 91.4572 172.34 92.021C172.023 92.5821 171.359 92.8088 170.856 92.5251C170.684 92.4285 170.573 92.2803 170.486 92.1141C170.13 93.5118 170.795 95.0884 172.209 95.9151C173.896 96.9026 175.994 96.4509 176.893 94.9077C177.024 94.6827 177.118 94.4496 177.186 94.2093C177.781 95.4796 177.882 96.3497 177.882 96.3497L177.887 96.4644C175.679 98.453 171.315 98.0365 169.03 95.7443C166.643 93.3509 167.023 89.7984 169.457 87.8847C169.707 87.6878 169.917 87.5739 170.117 87.5053ZM194.156 113.701C192.539 117.267 188.909 118.057 187.14 118.263C186.479 118.338 185.358 118.382 184.581 118.032C189.412 117.456 191.617 115.077 192.344 114.07C192.352 114.069 192.359 114.071 192.368 114.07C192.583 114.044 193.303 113.921 194.156 113.701ZM84.2722 160.25C86.2328 163.52 90.8037 165.488 94.5252 164.91C93.5503 165.798 92.626 166.443 92.2872 166.549C91.4678 166.807 89.8984 166.554 89.0726 166.388C85.3131 165.63 82.7435 163.064 82.8574 162.424C82.9721 161.787 83.3931 160.638 83.5278 160.43C83.5865 160.339 83.8747 160.283 84.2722 160.25ZM83.8837 165.583C85.4233 166.556 87.2899 167.416 89.0337 167.791C89.7655 167.949 90.4613 167.972 91.1389 167.9C90.5832 168.458 89.7412 168.837 88.8358 168.743C88.8105 168.739 88.8124 168.747 88.8232 168.757C85.9663 168.492 83.4726 167.012 83.554 166.549C83.5802 166.397 83.7121 166.028 83.8837 165.583Z" fill="#0033A0"/>
<path d="M192.881 147.321V134.088C192.881 134.088 192.358 133.387 191.26 132.679C190.159 131.969 188.646 131 184.794 131C183.262 131 180.165 131.169 180.165 131.169L101.11 131.182L102.956 134.857L101.893 137.357C101.515 133.25 97.4372 131.164 93.787 131.022C93.3793 131.007 92.9919 130.987 92.6407 130.987C92.5458 130.987 92.451 130.988 92.3561 130.988H63.5196C63.3287 130.945 62.5901 130.806 61.9859 130.71C56.5953 129.846 53.2648 130.722 50.735 132.311C48.0934 133.972 46.6274 136.665 46.6274 136.665C46.6274 136.665 45.2507 132.75 45.0745 132.134C44.9819 131.813 44.9356 131.65 44.843 131.327H44.8103V131.301H15.9535C15.9535 131.301 20.2847 140.409 20.2847 141.625C20.2847 145.584 20.253 149.728 20.253 152.281C20.253 154.835 14.3983 155.771 14.3983 155.771L12.6094 168.18C12.6094 168.18 21.3304 166.012 22.5355 165.692C23.7405 165.374 24.7096 164.93 25.8672 164.238C26.6171 163.79 27.3162 163.3 27.9497 162.78C29.1458 162.456 29.7444 162.298 30.9415 161.987C32.9077 161.478 35.1902 160.973 37.1678 160.502C39.0674 160.061 40.9681 159.629 42.8745 159.21C44.8046 158.791 46.7381 158.397 48.6762 158.019C50.089 157.748 51.5052 157.489 52.9215 157.239C53.0751 157.212 55.597 156.724 58.3007 156.292C61.2981 155.814 64.5236 155.384 65.121 155.301C67.5571 154.981 69.9944 154.682 72.4372 154.408C74.0183 154.234 75.6006 154.075 77.1851 153.928C77.9678 153.855 78.3608 153.821 79.1423 153.754C80.3282 153.652 80.92 153.606 82.1058 153.517C82.7902 153.466 83.1313 153.441 83.8157 153.395C85.1687 153.301 85.8463 153.258 87.2005 153.184C88.8945 153.086 89.7438 153.045 91.439 152.973C92.8496 152.915 93.5532 152.889 94.9616 152.849C95.8583 152.822 96.3066 152.812 97.2034 152.792C98.597 152.764 100.9 152.739 101.041 152.739C102.919 152.73 104.796 152.734 106.673 152.749C106.933 152.752 107.064 152.756 107.321 152.76C109.045 152.785 110.768 152.826 112.491 152.882C113.105 152.901 113.412 152.914 114.027 152.936C115.73 153.002 116.582 153.041 118.286 153.132C120.216 153.252 122.142 153.381 124.069 153.525C125.012 153.599 125.483 153.64 126.427 153.72C126.413 153.704 127.5 153.774 128.239 153.839C129.05 153.912 129.453 153.949 130.26 154.027C132.179 154.218 134.096 154.423 136.012 154.638C138.828 154.968 141.638 155.336 144.442 155.75C144.838 155.807 146.241 156.02 146.345 156.035C146.924 156.125 147.307 156.183 147.969 156.291C149.56 156.543 151.147 156.81 152.733 157.09C154.867 157.466 156.998 157.871 159.126 158.296C159.292 158.328 159.377 158.346 159.544 158.38C161.131 158.7 163.218 159.034 164.799 159.378C165.017 159.428 165.127 159.451 165.346 159.499C167.82 160.055 170.286 160.632 172.749 161.237C174.648 161.715 177.048 162.208 178.942 162.71C179.16 162.769 179.269 162.799 179.489 162.857C179.685 162.956 179.875 163.044 180.045 163.122C180.078 163.142 180.098 163.149 180.133 163.166C181.151 163.659 182.146 164.091 183.008 164.3C185.738 164.972 189.699 165.264 191.692 162.676C193.546 160.271 193.952 157.269 194.167 154.295C194.17 154.265 194.17 154.249 194.17 154.216C194.171 154.2 194.172 154.192 194.172 154.179V154.062C194.181 151.945 193.596 149.307 192.881 147.321Z" fill="white"/>
<path d="M105.211 132.743L105.516 133.509L106.074 134.894C106.159 135.108 106.192 135.267 106.192 135.463C106.192 135.725 106.097 136.077 105.872 136.636C104.654 139.711 103.435 142.791 102.219 145.842C101.89 146.637 101.617 147.115 101.158 147.654C100.438 146.924 99.8938 146.311 99.4511 145.737C98.8457 144.956 98.3172 144.182 97.8347 143.378L97.5293 142.845L97.3315 142.503L96.9872 141.923C98.2558 141.175 98.9957 140.059 99.246 138.524C99.2975 138.21 99.3038 137.941 99.3065 137.601C99.3056 135.898 98.4636 134.547 96.8707 133.69C95.5037 132.963 93.9379 132.82 93.1284 132.799C92.8383 132.792 92.5176 132.786 92.2068 132.786H92.0803C89.6869 132.806 87.2601 132.829 84.8658 132.856L83.1528 132.875L83.0163 132.877L80.9536 132.907C79.2243 132.934 77.4968 132.96 75.7513 132.992L75.2119 133.016L74.4755 133.051V133.055L73.5973 133.071L71.6421 133.11C70.7341 133.128 69.902 133.137 69.0744 133.147C68.1067 133.157 67.1472 133.167 66.0865 133.193L64.3752 133.234L63.4293 133.254L63.6353 133.602L63.1871 133.523L62.3577 133.373L62.2186 133.347L61.9394 133.299L61.297 133.203L61.1877 133.189L61.0576 133.168L60.969 133.158C60.604 133.106 60.258 133.058 59.8839 133.027C59.2442 132.97 58.7166 132.944 58.2215 132.944C58.1176 132.944 58.0182 132.945 57.9233 132.945C52.3171 133.075 48.2802 137.019 47.6423 142.997C47.5936 143.465 47.5683 143.957 47.5646 144.462V144.57C47.5646 146.38 47.9351 148.194 48.6091 149.675C50.0104 152.76 52.88 154.531 56.4795 154.535C57.0569 154.535 57.6487 154.486 58.2368 154.394C58.5377 154.35 58.9352 154.29 59.3382 154.209C60.4486 153.989 61.5337 153.674 62.561 153.264L62.6577 153.226L63.7428 153.1L65.9491 152.846C68.0073 152.608 70.0899 152.387 72.1373 152.189L73.937 152.017L74.9309 151.919L74.3255 151.127L73.2314 149.689C72.8826 149.23 72.7327 148.803 72.6577 148.044C72.6486 147.962 72.6441 147.864 72.6441 147.702L72.6495 147.173C73.6027 149.216 75.0194 151.715 77.5131 151.715C77.6947 151.715 77.8799 151.701 78.0173 151.68L78.6822 151.628L79.115 151.595C80.1721 151.516 80.7332 151.476 81.7316 151.409L83.1971 151.313L84.5875 151.233C86.681 151.112 88.8268 151.008 90.9645 150.928L93.1121 150.848L94.2966 150.801L93.5024 149.921L92.0658 148.325C91.5536 147.753 91.4704 147.514 91.4731 146.581V146.257C91.6828 146.606 91.8824 146.931 92.064 147.216C92.9757 148.666 93.5422 149.424 94.0915 149.917C94.9263 150.66 95.6799 150.763 96.3756 150.767H96.5165L97.261 150.75C98.4066 150.73 99.0798 150.722 100.073 150.713L101.929 150.7L102.398 150.698C102.867 150.698 103.334 150.695 103.804 150.695C104.792 150.695 105.797 150.698 106.785 150.708L108.599 150.726L109.504 150.735L109.725 150.741L111.525 150.789C113.632 150.845 115.793 150.919 117.915 151.037L119.995 151.147C122.559 151.281 125.194 151.453 127.818 151.653C127.92 151.662 128.022 151.663 128.128 151.663C128.194 151.663 128.261 151.661 128.328 151.66L128.388 151.658L128.504 151.654C131.282 151.596 134.456 150.377 135.037 147.142C135.102 146.783 135.132 146.432 135.132 146.036C135.128 144.421 134.371 142.949 133.029 141.898C133.77 141.296 134.269 140.503 134.523 139.533C134.644 139.07 134.702 138.602 134.702 138.049C134.676 134.939 132.01 133.136 129.53 133.02L128.72 132.962L128.676 132.96H128.658L128.492 132.958L128.326 132.956C125.65 132.912 122.93 132.874 120.25 132.843L118.482 132.825L117.502 132.815L117.995 133.658L118.885 135.191C119.288 135.88 119.397 136.224 119.447 136.967L119.454 137.026L119.457 137.046C119.467 137.125 119.468 137.22 119.468 137.329L119.502 142.123L119.535 146.822C119.536 147.411 119.467 147.76 119.241 148.122C118.749 147.52 118.473 146.998 118.162 146.12C116.751 142.211 115.288 138.181 113.689 133.794L113.447 133.136L113.316 132.774L112.93 132.77L112.231 132.768C110.661 132.759 109.094 132.754 107.523 132.751L106.032 132.746L105.211 132.743ZM133.431 133.048L133.894 133.893L134.733 135.409C135.155 136.176 135.271 136.558 135.325 137.381L135.33 137.428L135.334 137.446C135.346 137.542 135.346 137.644 135.347 137.774L135.381 141.119L135.447 147.767V147.845C135.448 148.724 135.319 149.106 134.813 149.687L133.555 151.136L132.851 151.946L133.914 152.054L135.834 152.25C138.43 152.514 141.063 152.814 143.651 153.139C143.873 153.17 144.08 153.17 144.243 153.17L144.349 153.172L144.532 153.176H144.534C145.545 153.176 147.033 153.01 148.396 152.222C149.801 151.409 150.676 150.144 150.929 148.567C150.988 148.197 151.018 147.817 151.018 147.42C151.014 145.686 150.195 144.044 148.783 142.892C149.606 142.256 150.14 141.398 150.403 140.286C150.519 139.812 150.573 139.321 150.573 138.745C150.555 135.882 148.338 133.576 145.426 133.384L144.721 133.326L144.643 133.317L144.559 133.313H144.54L144.372 133.306L144.212 133.302C141.632 133.235 138.911 133.168 136.135 133.108L134.395 133.069L133.431 133.048ZM74.5406 133.246L74.7131 133.751C74.7149 133.754 74.8333 134.11 74.8423 134.517C74.846 134.735 74.7411 135.392 73.6777 136.779C73.3543 137.201 73.0362 137.622 72.7209 138.039V137.696C72.7281 136.529 72.7417 136.022 72.9838 135.522L74.068 133.939L74.5406 133.246ZM149.034 133.488L149.658 134.372L150.787 135.959C151.332 136.724 151.465 137.232 151.474 138.536L151.494 141.314L151.546 149.64L151.548 149.756C151.548 150.823 151.421 151.344 150.975 152.076L150.196 153.355L149.765 154.066L150.585 154.192L152.072 154.422C153.938 154.706 155.907 155.029 157.924 155.373L159.888 155.712L160.973 155.899L160.477 154.914L159.585 153.141C159.065 152.112 158.943 151.571 158.935 150.23L158.84 138.774V138.705C158.839 137.599 159.062 136.832 159.631 135.961L160.146 135.171L159.411 139.299L159.089 141.194L158.905 142.284L159.892 141.78C159.91 141.769 161.747 140.833 163.024 140.666C163.768 140.567 164.482 140.512 165.028 140.512C165.067 140.512 165.1 140.513 165.134 140.514C165.12 143.157 165.095 148.602 165.095 151.575C165.097 152.963 164.936 153.16 164.404 153.822L163.358 155.124L162.844 155.763L163.627 156.005L165.263 156.503L165.289 156.512L165.319 156.518C167.418 156.924 169.525 157.351 171.588 157.793L173.706 158.245L174.876 158.493L174.313 157.436L173.291 155.529C172.668 154.367 172.457 153.526 172.449 152.205L172.423 148.244L172.399 144.088L172.38 140.94V140.839C172.788 140.889 173.268 140.964 173.758 141.076C174.962 141.341 175.58 141.653 175.6 141.662L176.825 142.308L177.283 142.548C177.309 143.198 177.376 143.854 177.577 144.559C178.189 146.668 180.761 149.185 183.337 151.581L183.656 151.881L183.741 151.961C184.51 152.675 184.596 153.292 184.637 154.118C184.636 154.353 184.562 154.523 184.494 154.605C184.467 154.637 184.399 154.722 184.152 154.722C184.051 154.722 183.94 154.708 183.831 154.685C183.329 154.575 182.656 154.252 181.934 153.768C181.036 153.168 179.957 152.213 179.118 151.281C178.564 150.665 177.634 149.468 177.625 149.456L177.32 149.063L176.894 149.324L176.783 149.393L176.478 149.58L176.522 149.931C176.551 150.177 177.254 155.991 177.51 157.671L177.529 157.803L177.603 158.304L177.648 158.583L177.896 158.713L178.342 158.95L178.464 159.013L178.605 159.089L178.846 159.217L179.034 159.317C179.344 159.48 179.646 159.613 179.956 159.748L180.055 159.79C180.998 160.221 181.88 160.54 182.668 160.736C183.36 160.926 184.04 161.024 184.694 161.024C188.519 161.024 191.132 157.846 191.197 153.109V152.952C191.195 148.868 189.305 146.33 186.464 143.774L186.395 143.714L185.996 143.359C185.053 142.518 184.663 142.171 184.318 141.541C184.193 141.308 184.125 141.076 184.124 140.869C184.124 140.717 184.165 140.653 184.174 140.642C184.175 140.642 184.198 140.632 184.265 140.623C184.833 140.682 185.377 140.844 185.848 141.093C186.291 141.328 186.936 141.765 187.408 142.287C187.898 142.831 188.679 143.866 188.688 143.877L188.947 144.22L189.347 144.053L189.437 144.014L189.776 143.872V143.501L189.773 136.301V135.953L189.462 135.801L188.892 135.526C188.761 135.463 188.641 135.413 188.532 135.374C187.242 134.776 186.102 134.464 184.944 134.4C184.791 134.391 184.639 134.388 184.487 134.388C181.808 134.39 179.604 135.679 178.362 137.734L178.731 135.623L178.934 134.453L179.047 133.809L178.392 133.804L177.207 133.793L161.74 133.666L161.138 133.659L161.185 133.583L160.172 133.574L158.337 133.554C156.285 133.533 154.177 133.518 152.07 133.505L150.115 133.496L149.034 133.488ZM63.6452 133.622L63.9081 134.07L64.7782 135.546C65.211 136.282 65.3302 136.755 65.3302 137.749V137.844L65.2598 144.657L65.2453 146.092L65.0321 145.944L64.7213 146.133C64.7014 146.148 62.6586 147.405 60.9067 148.025C60.2047 148.273 59.621 148.424 59.1132 148.491C58.9217 148.519 58.7347 148.532 58.554 148.532C57.2222 148.532 56.4018 147.825 55.9455 147.231C55.2661 146.344 54.8903 145.102 54.8903 143.73L54.8921 143.61C54.8948 143.544 54.8975 143.47 54.9029 143.389C54.9083 143.301 54.911 143.211 54.9155 143.111L54.9174 143.038C54.977 141.176 55.9401 138.191 58.254 138.095H58.3868C59.0057 138.095 59.6734 138.266 60.4089 138.623C60.9808 138.901 61.3602 139.123 61.5771 139.262C62.1373 139.621 62.627 139.992 62.6324 139.996L62.982 140.266L63.3227 139.984L63.4356 139.89L63.6362 139.724V139.462L63.6452 134.07V133.622ZM43.5097 133.911L43.0706 133.92L42.2746 133.934C40.7061 133.956 39.1367 133.988 37.5665 134.017L36.2717 134.041L35.5553 134.056L35.7477 134.746L36.0928 135.995C36.194 136.361 36.2392 136.673 36.2392 136.998V137.054L36.2374 137.109C36.2257 137.588 36.1046 138.151 35.8182 139.057C34.9327 141.887 34.1693 144.824 33.4248 147.701C33.0227 149.247 32.608 150.849 32.1843 152.387C31.7334 153.975 31.354 154.865 30.5679 156.204L29.3924 158.2L28.7437 159.303L29.9906 159.024L32.2511 158.521C33.7988 158.178 35.4342 157.824 37.1111 157.48L38.3905 157.214L39.0988 157.069L39.0934 157.058L39.8451 156.917L41.775 156.551C43.9271 156.145 46.1922 155.736 48.5079 155.334L50.2426 155.033L51.1985 154.866L50.5706 154.125L49.4304 152.786C48.7789 152.018 48.4736 151.409 48.1194 150.184C47.7724 149 47.421 147.815 47.0587 146.597C45.9456 142.838 44.7972 138.956 43.8151 135.108L43.6181 134.336L43.5097 133.913V133.911ZM107.523 134.304C109.091 134.308 110.659 134.315 112.224 134.324C113.72 138.429 115.211 142.532 116.694 146.644C117.12 147.836 117.535 148.552 118.33 149.451C116.076 149.356 113.824 149.281 111.57 149.221C111.911 148.697 112.122 148.038 112.122 147.533C112.122 147.454 112.116 147.376 112.104 147.305C112.044 146.924 111.973 146.701 111.889 146.366C111.856 146.194 111.841 146.108 111.809 145.931C111.799 145.879 111.794 145.853 111.783 145.796L111.77 145.729L111.702 145.727C111.647 145.727 111.619 145.728 111.563 145.727C109.737 145.69 108.822 145.679 106.997 145.666C106.947 145.665 106.923 145.664 106.873 145.664H106.812L106.794 145.722C106.779 145.767 106.77 145.789 106.755 145.835C106.7 146.011 106.67 146.098 106.612 146.276C106.592 146.345 106.583 146.376 106.563 146.444C106.532 146.557 106.517 146.614 106.486 146.728C106.382 147.08 106.332 147.4 106.332 147.697V147.701C106.332 148.168 106.473 148.601 106.803 149.14C105.804 149.132 104.805 149.128 103.807 149.128C103.179 149.128 102.551 149.13 101.924 149.135C102.759 148.254 103.188 147.582 103.664 146.433C104.887 143.357 106.108 140.281 107.327 137.204C107.629 136.447 107.754 135.936 107.754 135.455L107.756 135.45C107.755 135.083 107.693 134.727 107.523 134.304ZM92.0948 134.34H92.2095C92.505 134.34 92.8148 134.347 93.0922 134.354C94.0346 134.377 95.2091 134.565 96.1379 135.061C97.0667 135.561 97.7462 136.346 97.7489 137.596V137.631C97.7471 137.861 97.7408 138.06 97.7082 138.268C97.5013 139.532 96.8815 140.342 95.5814 140.871C95.4305 140.934 95.3546 140.965 95.2055 141.026C95.1396 141.05 95.1052 141.062 95.033 141.088C94.9571 141.116 94.9173 141.127 94.8405 141.157L94.7438 141.19L94.7962 141.278C94.8369 141.346 94.8577 141.379 94.8974 141.447C95.3356 142.185 95.5534 142.557 95.9916 143.293C96.1876 143.637 96.2879 143.806 96.4849 144.152C96.9475 144.922 97.5095 145.773 98.216 146.687C98.7699 147.4 99.4231 148.11 100.168 148.863L100.17 148.867C100.289 148.977 100.358 149.045 100.458 149.14C99.2207 149.149 98.5349 149.159 97.2339 149.182C96.9357 149.188 96.7849 149.19 96.4849 149.197C96.4478 149.197 96.4117 149.2 96.3774 149.2C95.8931 149.199 95.5651 149.126 95.1332 148.741C94.7023 148.357 94.1837 147.645 93.3886 146.381C92.3767 144.77 91.4424 143.137 90.8506 141.271C90.8823 141.268 90.9148 141.264 90.9563 141.258C90.9518 141.26 90.9554 141.261 90.96 141.261C91.137 141.257 91.3394 141.222 91.5147 141.178C92.2204 140.999 92.7606 140.751 93.113 140.349C93.5503 139.849 93.7834 139.402 93.8593 138.962C93.8611 138.935 93.8638 138.919 93.8665 138.895C93.8855 138.747 93.9054 138.602 93.9054 138.453V138.45V138.446C93.9072 137.799 93.6949 137.297 93.2422 136.969C92.7905 136.645 92.1164 136.495 91.1931 136.494H91.0837C90.9356 136.495 90.0357 136.507 90.0357 136.507L89.9526 136.509L89.9507 136.592V136.8L89.9137 146.569V146.615C89.9092 147.87 90.126 148.492 90.9094 149.36C88.7726 149.442 86.6349 149.546 84.4981 149.668C85.3465 148.693 85.6275 147.958 85.6293 146.75C85.6455 143.594 85.6591 140.439 85.6754 137.284V137.214C85.6772 135.985 85.4938 135.323 84.8866 134.408C87.289 134.38 89.6932 134.359 92.0948 134.34ZM32.8727 134.369L31.9024 134.377L30.1451 134.387C28.1176 134.397 23.6561 134.434 23.6561 134.434L21.8265 134.45L20.8164 134.457L21.3639 135.305L22.3569 136.839C23.1538 138.072 23.3715 138.846 23.3697 140.453V140.511L23.3471 146.818L23.3263 152.915C23.2866 154.029 23.2784 154.259 22.7454 155.284C22.0804 156.568 20.783 157.383 18.6624 157.851L18.002 157.997L17.6388 158.075L17.5746 158.444L17.4599 159.106L17.0795 161.297L17.0262 161.596L16.7596 163.132L16.6133 163.983L17.4481 163.766L18.9588 163.371C19.3518 163.268 20.0294 163.092 20.7197 162.901C21.6783 162.64 22.346 162.445 22.7652 162.294C24.1756 161.803 25.2273 161.21 25.7929 160.892C28.9877 159.09 30.6817 156.331 30.6917 152.945L30.7025 152.511L30.7098 152.116L30.7676 140.146C30.7685 139.922 30.7739 139.751 30.7875 139.601C30.8914 138.312 31.0251 137.552 31.5039 136.731L32.3858 135.212L32.8727 134.369ZM120.235 134.397C122.925 134.425 125.616 134.465 128.305 134.509C128.437 134.511 128.503 134.51 128.635 134.513C128.951 134.536 129.109 134.547 129.428 134.571C131.309 134.65 133.127 135.929 133.145 138.055V138.095C133.145 138.47 133.098 138.812 133.014 139.136C132.659 140.5 131.695 141.213 129.641 141.653C129.513 141.68 129.147 141.737 129.147 141.737L129.065 141.75L129.092 141.941L129.1 142.004L129.163 142.013C129.163 142.013 129.642 142.079 129.865 142.121C131.647 142.455 133.567 143.882 133.575 146.033V146.055C133.575 146.363 133.546 146.624 133.504 146.859C133.071 149.265 130.524 150.043 128.471 150.086C128.358 150.089 128.242 150.099 128.129 150.099C128.064 150.099 128.002 150.094 127.939 150.088C125.321 149.887 122.703 149.719 120.08 149.58C120.841 148.722 121.102 147.992 121.098 146.812V146.767C121.076 143.615 121.052 140.464 121.029 137.314C121.029 137.159 121.029 136.994 121.005 136.825C120.941 135.876 120.767 135.306 120.235 134.397ZM83.0326 134.439L83.5847 135.272C84.021 135.93 84.1159 136.277 84.1141 137.229V137.289L84.0897 141.979L84.0671 146.746C84.0653 147.581 83.919 147.954 83.3199 148.644L83.01 148.999L82.701 148.71C81.5671 147.641 80.557 146.423 79.7014 145.087C79.246 144.378 78.8792 143.777 77.6278 141.388L77.4986 141.146C78.9768 139.316 80.5489 137.405 82.1752 135.464L83.0326 134.439ZM80.9798 134.46C79.2153 136.565 77.4706 138.69 75.7477 140.834C75.7178 140.868 75.7043 140.887 75.6727 140.923L75.6383 140.968L75.6654 141.017C75.6844 141.057 75.6934 141.078 75.716 141.119C75.9275 141.522 76.0368 141.719 76.2491 142.121C77.5303 144.565 77.907 145.184 78.3859 145.93C79.2984 147.352 80.4016 148.688 81.6313 149.846C80.6266 149.912 80.0646 149.952 79.0003 150.031C78.5449 150.065 78.3136 150.082 77.8582 150.117H77.8546L77.8519 150.119C77.7372 150.137 77.6251 150.147 77.5149 150.147C75.3754 150.172 74.1096 146.473 73.3019 144.846C72.8203 143.891 72.3514 142.899 71.8816 141.753C72.8853 140.401 73.8991 139.058 74.9218 137.72C75.2905 137.237 75.7495 136.485 76.1289 135.885C76.4858 135.321 76.419 134.677 76.362 134.53C78.0904 134.502 79.2523 134.486 80.9798 134.46ZM58.2224 134.499C58.6588 134.499 59.143 134.521 59.7493 134.574C60.1297 134.609 60.4938 134.659 60.8805 134.714C60.9356 134.722 60.9618 134.724 61.0142 134.732C61.2943 134.774 61.4352 134.798 61.7153 134.836C61.8617 134.862 61.9466 134.878 62.0785 134.901C62.0677 136.042 62.0641 136.659 62.0541 137.772C62.027 137.754 61.9981 137.734 61.962 137.707C61.8852 137.653 61.8472 137.624 61.7677 137.571C61.765 137.569 61.7623 137.568 61.7614 137.565L61.7542 137.561L61.7433 137.556C61.7433 137.556 61.7424 137.554 61.7307 137.547C61.6259 137.496 61.5156 137.439 61.4045 137.376C61.2907 137.315 61.1723 137.253 61.0549 137.195C60.1459 136.752 59.2469 136.524 58.3904 136.524C58.3272 136.524 58.2657 136.527 58.2034 136.528C55.0167 136.661 53.4519 140.123 53.3597 142.979C53.357 143.09 53.3525 143.195 53.3471 143.29C53.3416 143.389 53.3344 143.488 53.3335 143.577C53.3317 143.626 53.3335 143.675 53.3335 143.722C53.3335 145.419 53.8142 147.007 54.7096 148.174C55.6049 149.34 56.9168 150.083 58.5585 150.083C58.806 150.083 59.0599 150.065 59.3219 150.033H59.3237C59.9896 149.944 60.7115 149.763 61.4506 149.481C62.2222 149.187 62.8817 148.818 63.4853 148.342C62.9197 149.64 62.5917 150.398 61.9873 151.806C61.0061 152.196 60.0032 152.481 59.0382 152.673C58.694 152.739 58.3471 152.795 58.0146 152.842C57.5014 152.922 56.9882 152.964 56.4831 152.964C53.7744 152.962 51.2826 151.775 50.0312 149.022C49.4665 147.78 49.1259 146.222 49.1259 144.562V144.463C49.1295 144.028 49.1512 143.586 49.1964 143.154C49.7358 138.086 53.0706 134.612 57.9604 134.501C58.0462 134.498 58.1338 134.498 58.2233 134.498L58.2224 134.499ZM136.101 134.652C138.791 134.709 141.482 134.776 144.169 134.848C144.301 134.85 144.368 134.853 144.499 134.855C144.814 134.883 144.974 134.896 145.291 134.924C147.303 135.049 149.002 136.565 149.013 138.745V138.78C149.013 139.191 148.969 139.567 148.886 139.92C148.534 141.4 147.574 142.149 145.524 142.572C145.322 142.614 145.034 142.65 145.034 142.65L144.948 142.661L144.993 142.93L145.055 142.939C145.055 142.939 145.525 143.004 145.745 143.056C147.663 143.509 149.456 145.181 149.46 147.417V147.432C149.46 147.762 149.431 148.059 149.391 148.315C149.004 150.736 146.648 151.614 144.534 151.615C144.484 151.615 144.433 151.614 144.381 151.613C144.206 151.609 144.022 151.612 143.852 151.592C141.236 151.263 138.615 150.963 135.993 150.695C136.75 149.827 137.012 149.07 137.01 147.833V147.758C136.976 144.423 136.944 141.088 136.909 137.751C136.909 137.588 136.908 137.414 136.881 137.234C136.816 136.226 136.639 135.623 136.102 134.653L136.101 134.652ZM71.6765 134.663C71.2627 135.362 71.1714 136.279 71.1633 137.683C71.1371 141.015 71.1118 144.347 71.0856 147.681V147.74C71.0856 147.889 71.091 148.042 71.1073 148.192C71.2003 149.164 71.4271 149.886 71.9909 150.629C69.9155 150.828 67.8429 151.047 65.7703 151.288C66.4045 150.365 66.6521 149.607 66.7623 148.6C66.7804 148.431 66.7858 148.252 66.7867 148.085C66.8228 144.673 66.8572 141.263 66.8915 137.852C66.8924 137.813 66.8933 137.777 66.8933 137.74C66.8942 136.472 66.7036 135.724 66.1253 134.743C68.0941 134.696 69.7077 134.702 71.6765 134.663ZM152.064 135.052C154.152 135.065 156.238 135.08 158.327 135.102C157.592 136.225 157.281 137.286 157.281 138.697C157.281 138.724 157.284 138.751 157.284 138.779C157.313 142.596 157.344 146.414 157.375 150.232C157.387 151.798 157.561 152.583 158.192 153.831C156.235 153.496 154.275 153.176 152.312 152.874C152.912 151.887 153.112 151.094 153.111 149.745V149.619C153.087 145.919 153.062 142.219 153.039 138.517C153.027 137.015 152.846 136.156 152.065 135.053L152.064 135.052ZM161.727 135.215L177.194 135.344L176.333 140.277C176.333 140.277 175.584 139.87 174.1 139.54C172.396 139.162 170.808 139.155 170.808 139.155C170.809 139.16 170.823 141.379 170.84 144.089C170.857 146.802 170.876 150.052 170.889 152.205C170.898 153.782 171.173 154.869 171.917 156.257C169.818 155.809 167.72 155.38 165.617 154.976C166.428 153.969 166.661 153.211 166.657 151.563C166.657 147.517 166.705 138.992 166.705 138.992C166.705 138.992 164.776 138.749 163.31 138.937C161.844 139.126 160.954 139.551 160.954 139.551L161.727 135.215ZM42.3017 135.489C43.6001 140.572 45.1505 145.592 46.6205 150.619C47.0325 152.041 47.4427 152.848 48.2423 153.79C45.988 154.181 43.7356 154.588 41.4868 155.013C41.8373 154.272 42.0713 153.396 42.0713 152.72C42.0713 152.608 42.0641 152.504 42.0496 152.404C41.9819 151.914 41.9268 151.654 41.8482 151.228C41.8183 151.012 41.8039 150.899 41.7723 150.679C41.765 150.61 41.7587 150.575 41.7497 150.506L41.7388 150.423L41.6548 150.436C41.5979 150.444 41.5699 150.449 41.513 150.456C39.7005 150.741 38.7916 150.888 36.9819 151.193C36.9322 151.199 36.9069 151.205 36.8581 151.213L36.8039 151.221L36.7913 151.276C36.775 151.342 36.7678 151.373 36.7524 151.438C36.6937 151.689 36.6648 151.816 36.606 152.065C36.5527 152.32 36.5256 152.447 36.475 152.702C36.3702 153.198 36.3169 153.639 36.3142 154.039C36.3133 154.048 36.3142 154.058 36.3142 154.067C36.3142 154.71 36.4551 155.26 36.7985 155.944C35.1677 156.282 33.5395 156.633 31.9132 156.993C32.7698 155.539 33.1989 154.521 33.6868 152.811C34.8993 148.411 35.9474 143.865 37.3081 139.519C37.6378 138.472 37.7824 137.788 37.8005 137.148C37.8014 137.096 37.8023 137.047 37.8023 136.994C37.8023 136.546 37.7463 136.105 37.599 135.576C39.1666 135.544 40.7341 135.516 42.3017 135.489ZM184.495 135.942C184.615 135.942 184.738 135.944 184.861 135.95C185.794 136.004 186.784 136.264 187.959 136.82C187.967 136.823 187.97 136.823 187.97 136.823L187.976 136.827L187.981 136.829C187.985 136.829 187.986 136.831 187.99 136.832C188.063 136.853 188.143 136.886 188.221 136.924C188.225 138.562 188.226 139.433 188.229 141.013C187.719 140.428 187.169 140.013 186.588 139.703C185.935 139.359 185.151 139.118 184.285 139.05H184.276H184.268H184.265H184.256C183.8 139.082 183.525 139.181 183.26 139.375C182.829 139.689 182.569 140.219 182.571 140.863V140.872C182.573 141.349 182.714 141.839 182.955 142.281C183.499 143.275 184.136 143.769 185.426 144.929C188.029 147.27 189.643 149.43 189.645 152.944C189.645 152.993 189.643 153.043 189.643 153.09C189.592 156.662 187.797 159.452 184.7 159.452C184.191 159.452 183.647 159.377 183.07 159.218C182.349 159.038 181.554 158.748 180.709 158.363C180.661 158.341 180.638 158.329 180.59 158.309C180.315 158.188 180.034 158.067 179.754 157.924C179.593 157.837 179.51 157.79 179.346 157.703C179.237 157.646 179.176 157.613 179.078 157.561C178.813 155.827 178.548 154.091 178.282 152.358C179.044 153.441 179.961 154.31 181.07 155.056C181.91 155.621 182.76 156.042 183.511 156.201C183.74 156.252 183.955 156.274 184.155 156.274C184.839 156.277 185.358 156.005 185.697 155.599C186.038 155.192 186.204 154.653 186.204 154.108V154.101C186.154 153.035 186.01 151.923 184.813 150.81C183.182 149.281 179.671 146.143 179.085 144.116C178.863 143.348 178.844 142.58 178.837 141.902C178.836 141.87 178.835 141.84 178.835 141.81C178.838 138.32 181.286 135.945 184.495 135.942ZM30.1586 135.946C29.5099 137.066 29.3473 138.113 29.238 139.47C29.2199 139.687 29.2163 139.919 29.2154 140.137C29.1946 144.127 29.1756 148.118 29.1566 152.107C29.1503 152.425 29.1458 152.587 29.1395 152.906C29.1286 155.937 27.5141 158.132 25.033 159.528C24.3825 159.898 23.4745 160.395 22.2566 160.82C21.8654 160.957 21.2103 161.151 20.3158 161.396C19.6301 161.583 18.9606 161.756 18.5721 161.857C18.7392 160.888 18.8323 160.36 19.0049 159.374C21.0115 158.931 23.0679 158.067 24.1395 155.999C24.8216 154.688 24.8514 154.2 24.893 152.95C24.9093 148.804 24.9228 144.659 24.9373 140.514V140.431C24.9382 138.477 24.612 137.44 23.676 135.991C23.676 135.991 28.1357 135.957 30.1595 135.945L30.1586 135.946ZM126.752 136.668C126.539 136.668 126.292 136.674 125.996 136.691C125.897 136.696 125.847 136.7 125.747 136.707C125.739 136.708 125.739 136.709 125.738 136.709H125.736H125.73H125.72C125.631 136.723 125.586 136.733 125.495 136.749C125.44 136.759 125.411 136.763 125.356 136.772L125.288 136.784V136.996C125.296 138.364 125.301 139.05 125.308 140.417C125.309 140.473 125.31 140.499 125.31 140.555V140.619L125.373 140.634C125.427 140.648 125.454 140.654 125.508 140.67C125.814 140.745 126.081 140.784 126.389 140.797C126.49 140.799 126.591 140.801 126.687 140.801C126.704 140.801 126.723 140.802 126.738 140.802C128.394 140.802 129.232 140.151 129.279 138.797C129.279 138.665 129.279 138.601 129.276 138.473C129.185 137.358 128.644 136.886 127.271 136.681C127.264 136.679 127.263 136.68 127.258 136.679H127.255H127.247C127.241 136.679 127.239 136.678 127.237 136.675C127.093 136.673 126.935 136.668 126.752 136.668ZM142.456 137.162C142.283 137.162 142.09 137.164 141.872 137.174C141.772 137.179 141.46 137.214 141.369 137.231C141.315 137.238 141.288 137.243 141.234 137.252L141.163 137.264V137.337C141.163 137.396 141.165 137.426 141.165 137.485C141.176 138.947 141.181 139.677 141.195 141.141V141.289L141.197 141.349L141.255 141.369C141.31 141.383 141.338 141.391 141.393 141.408C141.7 141.495 141.965 141.543 142.272 141.563C142.426 141.572 142.575 141.577 142.716 141.577H142.762C144.326 141.577 145.116 140.888 145.155 139.481C145.155 139.34 145.154 139.269 145.153 139.131C145.06 137.937 144.523 137.423 143.146 137.179C143.142 137.178 143.116 137.177 143.111 137.177C142.925 137.169 142.715 137.162 142.456 137.162ZM109.182 138.824L109.161 138.882C108.584 140.535 108.296 141.36 107.717 143.01C107.687 143.095 107.672 143.137 107.641 143.222L107.604 143.333H107.723C107.817 143.334 107.863 143.334 107.958 143.337C109.059 143.345 109.609 143.351 110.712 143.368C110.803 143.369 110.848 143.371 110.938 143.372H111.055L111.021 143.263C110.995 143.178 110.98 143.136 110.955 143.05C110.428 141.385 110.167 140.551 109.641 138.891L109.624 138.835H109.564C109.434 138.831 109.374 138.826 109.244 138.825L109.182 138.824ZM39.6807 141.665L39.6084 141.669C39.4801 141.677 39.4177 141.683 39.2894 141.691L39.2289 141.697L39.2135 141.754C38.7166 143.656 38.2233 145.557 37.7345 147.46C37.7038 147.581 37.6893 147.639 37.6586 147.76L37.627 147.882L37.7508 147.864C37.8447 147.851 37.8899 147.846 37.9839 147.833C39.0789 147.68 39.6273 147.606 40.7242 147.458C40.8137 147.448 40.8597 147.439 40.9519 147.429L41.0431 147.416L41.0206 147.327C40.9953 147.22 40.9826 147.166 40.9573 147.06C40.5336 145.286 40.1152 143.509 39.6969 141.734L39.6807 141.665ZM109.36 141.997L109.433 142.226C109.382 142.226 109.333 142.224 109.281 142.224L109.36 141.997ZM126.329 142.752C126.292 142.752 126.251 142.755 126.209 142.758C126.174 142.759 126.139 142.761 126.104 142.761H126.076H126.073H126.069C125.97 142.766 125.921 142.767 125.824 142.774C125.726 142.778 125.676 142.78 125.579 142.784C125.517 142.788 125.486 142.788 125.423 142.791L125.345 142.795V142.878C125.346 142.937 125.345 142.968 125.345 143.031C125.355 144.707 125.361 145.544 125.371 147.221V147.369L125.413 147.393C125.449 147.416 125.468 147.428 125.503 147.449C125.519 147.458 125.53 147.462 125.545 147.471C125.556 147.479 125.561 147.481 125.569 147.487L125.582 147.495L125.593 147.496C125.606 147.498 125.61 147.499 125.619 147.502C125.786 147.539 125.87 147.557 126.038 147.593C126.626 147.678 126.927 147.7 127.215 147.717H127.247C127.253 147.716 127.256 147.715 127.261 147.715C128.567 147.575 129.211 146.869 129.303 145.483C129.303 143.73 128.326 142.831 126.367 142.753H126.329L126.329 142.752ZM142.2 143.67C142.166 143.67 141.38 143.685 141.319 143.685L141.236 143.687L141.238 143.77C141.238 143.835 141.237 143.869 141.238 143.935C141.253 145.726 141.262 146.622 141.275 148.413C141.276 148.456 141.275 148.478 141.275 148.523V148.651C141.275 148.651 141.77 148.781 141.936 148.826C142.237 148.882 142.547 148.928 142.784 148.958C143.009 148.988 143.045 148.997 143.162 149.003C143.278 149.008 143.679 148.933 143.895 148.856C144.711 148.559 145.127 147.851 145.195 146.679C145.19 144.8 144.221 143.811 142.258 143.67H142.2H142.2ZM107.972 147.231C108.896 147.241 109.609 147.25 110.517 147.264C110.534 147.341 110.552 147.432 110.569 147.529C110.569 147.687 110.477 148.048 110.271 148.364L109.286 149.874L109.183 150.028L109.09 149.873L108.144 148.329C107.901 147.924 107.9 147.774 107.9 147.695C107.9 147.565 107.924 147.412 107.972 147.231ZM65.239 147.884L65.2372 148.067C65.2354 148.217 65.2291 148.331 65.2182 148.431C65.1306 149.245 64.949 149.743 64.4963 150.4L63.8648 151.313L65.239 147.884ZM40.4486 152.205C40.4694 152.329 40.4902 152.459 40.5128 152.618C40.5164 152.646 40.5164 152.683 40.5164 152.72C40.5164 153.141 40.342 153.795 40.0818 154.351L39.247 156.13L38.9524 156.758L38.7835 156.419L38.2007 155.253C37.9685 154.783 37.8809 154.462 37.8836 154.048C37.8845 153.755 37.9261 153.42 38.0119 153.011L38.0986 152.59C38.9669 152.446 39.6409 152.336 40.4486 152.205Z" fill="#C99700"/>
<path d="M58.3095 130.377C54.9801 130.332 52.6328 131.122 50.7355 132.315C48.0936 133.975 46.6272 136.67 46.6272 136.67C46.6272 136.67 45.2503 132.755 45.0741 132.138C44.9819 131.816 44.9359 131.653 44.8437 131.33H44.8103V131.305H15.9541C15.9541 131.305 20.2846 140.413 20.2846 141.628C20.2846 145.589 20.2521 149.732 20.2521 152.285C20.2521 154.838 14.3992 155.774 14.3992 155.774L12.6094 168.185C12.6094 168.185 21.3309 166.017 22.5353 165.697C23.7406 165.378 24.71 164.933 25.8674 164.242C26.6173 163.793 27.3157 163.303 27.95 162.783C29.1453 162.458 29.7434 162.302 30.9406 161.99C32.9066 161.483 35.1907 160.978 37.1684 160.507C39.0676 160.065 40.9686 159.632 42.875 159.213C44.8049 158.795 46.7374 158.402 48.6755 158.024C50.0885 157.751 51.5052 157.492 52.921 157.242C53.0746 157.215 55.5963 156.729 58.2996 156.296C61.2974 155.819 64.5229 155.388 65.1201 155.304C67.556 154.985 69.9937 154.686 72.4367 154.411C74.0179 154.237 75.6008 154.078 77.1856 153.933C77.968 153.86 78.361 153.824 79.1425 153.757C80.3279 153.656 80.9188 153.61 82.1051 153.522C82.7891 153.47 83.1306 153.447 83.8155 153.4C85.168 153.307 85.8456 153.263 87.2 153.187C88.8941 153.089 89.7434 153.048 91.4383 152.977C92.8487 152.919 93.5525 152.893 94.9602 152.853C95.8574 152.825 96.3064 152.817 97.2036 152.796C98.5968 152.767 100.899 152.742 101.04 152.742C102.918 152.734 104.796 152.738 106.672 152.752C106.933 152.756 107.063 152.758 107.32 152.765C109.044 152.788 110.769 152.83 112.491 152.887C113.105 152.905 113.412 152.919 114.026 152.942C115.729 153.007 116.583 153.047 118.286 153.135C120.216 153.255 122.142 153.385 124.068 153.529C125.012 153.603 125.482 153.643 126.427 153.723C126.411 153.707 127.5 153.778 128.239 153.843C129.049 153.916 129.453 153.954 130.261 154.031C132.18 154.222 134.095 154.425 136.012 154.642C138.827 154.971 141.637 155.341 144.442 155.754C144.838 155.812 146.24 156.024 146.344 156.04C146.923 156.129 147.307 156.187 147.969 156.295C149.561 156.548 151.146 156.814 152.732 157.095C154.866 157.471 156.998 157.874 159.125 158.3C159.292 158.332 159.376 158.351 159.544 158.384C161.13 158.703 163.217 159.038 164.798 159.383C165.017 159.433 165.126 159.454 165.346 159.502C167.821 160.06 170.285 160.636 172.748 161.242C174.648 161.719 177.049 162.212 178.943 162.714C179.16 162.773 179.268 162.803 179.488 162.86C179.685 162.96 179.874 163.049 180.044 163.127C180.078 163.146 180.097 163.153 180.132 163.171C181.151 163.664 182.147 164.094 183.009 164.304C185.738 164.976 189.699 165.268 191.692 162.681C193.547 160.275 193.953 157.274 194.168 154.3C194.17 154.268 194.17 154.253 194.17 154.221C194.17 154.205 194.171 154.198 194.171 154.184V154.147V154.066C194.18 151.948 193.597 149.311 192.882 147.327V134.094C192.882 134.094 192.358 133.391 191.26 132.682C190.159 131.974 188.646 131.006 184.795 131.006C183.263 131.006 180.166 131.173 180.166 131.173L101.109 131.185L102.956 134.863L101.893 137.362C101.515 133.254 97.4376 131.169 93.7874 131.026C93.38 131.012 92.9915 130.991 92.6409 130.991C92.546 130.991 92.4512 130.993 92.3563 130.993H63.52C63.3294 130.949 62.5912 130.812 61.9868 130.716C60.6388 130.5 59.419 130.392 58.3095 130.377ZM106.033 133.306L107.522 133.31C109.089 133.314 110.659 133.32 112.226 133.328L112.925 133.333L113.167 133.991C114.764 138.375 116.23 142.405 117.641 146.312C118.026 147.397 118.376 147.999 119.078 148.798L119.259 149L119.324 148.926C119.91 148.261 120.091 147.771 120.088 146.824V146.778C120.067 143.633 120.043 140.482 120.021 137.328C120.02 137.192 120.02 137.073 120.005 136.973L120.002 136.938L119.998 136.901C119.944 136.107 119.808 135.678 119.365 134.914L118.471 133.383L120.243 133.402C122.923 133.433 125.639 133.471 128.317 133.516H128.481L128.648 133.52H128.678L128.705 133.524L129.489 133.579C131.734 133.683 134.124 135.285 134.145 138.057V138.106C134.145 138.558 134.094 138.982 133.986 139.398C133.66 140.65 132.926 141.409 132.04 141.899C133.467 142.746 134.571 144.186 134.578 146.041V146.067C134.578 146.401 134.549 146.722 134.491 147.048C133.968 149.953 131.048 151.049 128.491 151.105L128.371 151.109C128.29 151.109 128.208 151.114 128.128 151.114C128.037 151.114 127.95 151.109 127.861 151.103C125.246 150.903 122.609 150.732 120.024 150.595L117.944 150.486L117.972 150.456C115.847 150.37 113.684 150.295 111.54 150.237L109.739 150.19L110.725 148.683C110.99 148.274 111.113 147.808 111.113 147.542C111.113 147.503 111.109 147.48 111.108 147.476C111.071 147.244 111.03 147.084 110.977 146.883C110.963 146.834 110.95 146.784 110.938 146.733C109.671 146.708 108.834 146.697 107.541 146.687L107.529 146.727L107.471 146.937L107.449 147.008C107.372 147.283 107.335 147.507 107.335 147.709C107.335 147.91 107.373 148.16 107.66 148.629L108.603 150.175L106.792 150.157C105.799 150.148 104.794 150.145 103.804 150.145C103.177 150.145 102.553 150.148 101.926 150.149L100.068 150.161C99.072 150.172 98.3971 150.179 97.2497 150.2C96.9515 150.205 96.8033 150.21 96.5052 150.216H96.4555H96.3742C95.7002 150.214 95.1192 150.091 94.4596 149.507C93.9537 149.051 93.4143 148.328 92.5343 146.924C91.9804 146.045 91.4221 145.115 90.9251 144.119L90.9161 146.584V146.626C90.9125 147.655 91.0444 148.022 91.6543 148.702L93.089 150.297L90.945 150.377C88.8173 150.459 86.6669 150.562 84.5545 150.684L83.164 150.763L81.694 150.86C80.6948 150.925 80.131 150.968 79.0721 151.047C78.6302 151.079 78.4026 151.097 77.9725 151.13C77.818 151.154 77.6626 151.164 77.5117 151.164H77.4909C75.0488 151.164 73.6962 148.159 72.7999 146.17C72.6554 145.847 72.518 145.543 72.3979 145.305C72.2985 145.108 72.2045 144.916 72.1124 144.726C72.1051 145.717 72.0979 146.712 72.0907 147.701V147.754C72.0907 147.892 72.0952 148.008 72.1051 148.107C72.1883 148.965 72.3753 149.485 72.79 150.031L73.8841 151.469L72.0853 151.642C70.0361 151.839 67.9499 152.063 65.8827 152.298L63.6809 152.552L64.9404 150.728C65.4463 149.994 65.6613 149.411 65.7598 148.505C65.7734 148.394 65.7797 148.262 65.7806 148.088L65.8158 144.667L65.8845 137.854V137.754C65.8854 136.668 65.7391 136.087 65.2566 135.269L64.3865 133.792L66.0977 133.751C68.0674 133.704 69.6865 133.71 71.6552 133.671L73.6086 133.63L72.5054 135.243C72.1874 135.871 72.1738 136.475 72.1666 137.7C72.1621 138.372 72.1576 139.047 72.1512 139.72C72.7909 138.869 73.4478 138.001 74.1181 137.121C74.8491 136.168 75.4129 135.194 75.3975 134.51C75.3867 134.004 75.2376 133.577 75.2376 133.577L75.777 133.553C77.5054 133.522 79.2329 133.494 80.9622 133.468L83.0249 133.436H83.0619L83.1586 133.434L84.8744 133.414C87.2651 133.389 89.691 133.366 92.0825 133.347H92.2063C92.5108 133.347 92.8279 133.354 93.1134 133.36C93.8742 133.379 95.3415 133.511 96.6091 134.188C98.0086 134.939 98.7495 136.119 98.7513 137.606V137.643C98.7495 137.923 98.7432 138.169 98.6998 138.441C98.4441 140.004 97.6499 141.046 96.2106 141.705L96.853 142.792L97.0464 143.129L97.3536 143.66C97.846 144.487 98.3917 145.283 99.0106 146.083C99.4904 146.704 100.082 147.364 100.875 148.164L101.114 148.39L101.147 148.422L101.184 148.459L101.19 148.453C101.938 147.666 102.298 147.106 102.732 146.058C103.949 142.997 105.169 139.92 106.389 136.845C106.643 136.206 106.746 135.807 106.746 135.467C106.746 135.201 106.699 134.971 106.586 134.691L106.033 133.306ZM58.221 133.504C58.7008 133.504 59.2148 133.528 59.8356 133.583C60.2286 133.617 60.5936 133.669 60.9794 133.722L61.0201 133.73L61.1041 133.742L61.152 133.748L61.2125 133.757L61.8576 133.852L61.8757 133.855L61.8928 133.857L62.1205 133.898L62.2569 133.925L63.09 134.075L63.0809 139.467L62.968 139.561C62.968 139.561 62.4657 139.176 61.8775 138.798C61.3119 138.438 60.6586 138.134 60.6135 138.11C59.8401 137.734 59.0911 137.543 58.389 137.543C58.3403 137.543 58.2888 137.544 58.24 137.545C55.5412 137.66 54.4308 140.965 54.363 143.023C54.3585 143.15 54.354 143.26 54.3477 143.364C54.3432 143.447 54.3395 143.529 54.3386 143.607C54.3377 143.651 54.3368 143.694 54.3368 143.734C54.3368 145.228 54.7506 146.593 55.5051 147.574C56.0363 148.268 56.9958 149.092 58.5544 149.09C58.7613 149.09 58.9736 149.075 59.1877 149.046C59.8012 148.965 60.4554 148.778 61.0923 148.553C62.9246 147.903 65.0144 146.613 65.0144 146.613L65.1174 146.683L62.7457 152.6L62.3554 152.751C61.3607 153.146 60.3108 153.455 59.232 153.671C58.8372 153.749 58.4496 153.806 58.1559 153.847C57.6012 153.936 57.0347 153.984 56.4808 153.984C53.109 153.98 50.4247 152.327 49.1155 149.45C48.4731 148.037 48.118 146.306 48.118 144.574L48.1198 144.468C48.1225 143.975 48.1496 143.502 48.1957 143.06C48.8011 137.376 52.6238 133.628 57.9346 133.507C58.0249 133.505 58.1225 133.504 58.221 133.504ZM83.0836 133.523L81.7473 135.118C80.0397 137.156 78.3899 139.165 76.835 141.095C76.8802 141.178 76.9226 141.258 76.9687 141.348L77.135 141.658C78.3917 144.059 78.7649 144.673 79.2311 145.398C80.1156 146.775 81.1537 148.029 82.3175 149.123L83.0484 149.811L83.7369 149.017C84.4199 148.231 84.6187 147.725 84.6205 146.758C84.6349 143.602 84.6521 140.452 84.6684 137.299V137.241C84.6693 136.185 84.5419 135.724 84.0468 134.976L83.0836 133.523ZM134.384 133.629L136.122 133.666C138.899 133.727 141.615 133.793 144.193 133.862L144.356 133.865L144.524 133.871L144.555 133.872L144.585 133.874L144.665 133.881L145.376 133.944C148.009 134.114 150.003 136.18 150.019 138.752V138.793C150.019 139.283 149.969 139.732 149.865 140.164C149.565 141.409 148.917 142.278 147.797 142.87C149.286 143.802 150.46 145.405 150.463 147.426V147.445C150.463 147.794 150.434 148.142 150.38 148.485C150.157 149.888 149.373 151.017 148.114 151.746C146.864 152.47 145.478 152.625 144.534 152.625H144.532C144.475 152.625 144.419 152.624 144.361 152.623H144.255C144.095 152.623 143.913 152.618 143.722 152.594C141.134 152.267 138.497 151.968 135.889 151.701L133.971 151.505L135.23 150.059C135.821 149.375 136.006 148.859 136.002 147.847V147.771L135.935 141.119L135.902 137.773C135.901 137.617 135.897 137.494 135.882 137.376L135.878 137.344L135.876 137.312C135.82 136.443 135.678 135.978 135.217 135.145L134.384 133.629ZM150.112 134.052L152.067 134.065C154.171 134.078 156.279 134.094 158.332 134.113L160.165 134.132L159.167 135.66C158.54 136.616 158.284 137.5 158.284 138.71V138.778L158.379 150.237C158.387 151.665 158.529 152.286 159.089 153.397L159.984 155.169L158.018 154.83C156.058 154.493 154.086 154.171 152.157 153.873L150.671 153.647L151.45 152.368C151.952 151.542 152.103 150.932 152.102 149.76L152.101 149.64C152.077 145.938 152.054 142.237 152.03 138.539C152.019 137.125 151.849 136.503 151.239 135.643L150.112 134.052ZM160.88 134.217L161.732 134.222L177.201 134.353L178.387 134.363L178.184 135.533L177.321 140.462L177.086 141.821L175.858 141.175C175.853 141.171 175.18 140.825 173.879 140.534C173.121 140.366 172.382 140.278 171.819 140.23C171.82 140.431 171.822 140.665 171.822 140.945L171.846 144.096L171.868 148.251L171.893 152.214C171.901 153.619 172.138 154.556 172.8 155.793L173.822 157.704L171.717 157.243C169.625 156.799 167.513 156.371 165.438 155.969L163.802 155.468L164.851 154.164C165.467 153.398 165.665 153.073 165.662 151.57C165.662 148.391 165.692 142.374 165.705 139.995C165.35 139.927 164.353 139.926 162.962 140.11C161.575 140.294 159.65 141.282 159.65 141.282L159.971 139.387L160.744 135.051L160.893 134.209L160.88 134.217ZM43.081 134.483L43.2752 135.254C44.2619 139.124 45.4201 143.023 46.5378 146.798C46.8892 147.982 47.2389 149.165 47.584 150.349C47.9608 151.648 48.3077 152.327 49.0071 153.151L50.1464 154.494L48.4116 154.796C46.1556 155.184 43.8878 155.595 41.6724 156.016L39.7407 156.381L40.5746 154.6C40.8719 153.965 41.0625 153.234 41.0634 152.735C41.0634 152.666 41.0598 152.606 41.0535 152.555C41.0029 152.187 40.9595 151.959 40.9053 151.671L40.8873 151.584C39.7028 151.772 38.8815 151.906 37.6283 152.115L37.5859 152.298L37.5633 152.406L37.4603 152.913C37.3681 153.354 37.3211 153.725 37.3193 154.059V154.081C37.3184 154.565 37.4241 154.967 37.6952 155.51L38.2788 156.681L36.9995 156.943C35.3461 157.286 33.708 157.638 32.1296 157.988L29.869 158.491L31.0445 156.495C31.8585 155.112 32.2516 154.189 32.7187 152.548C33.1433 151.004 33.5598 149.401 33.961 147.85C34.7001 145.004 35.4635 142.061 36.349 139.231C36.6507 138.273 36.779 137.668 36.7935 137.131V137.007C36.7935 136.625 36.7429 136.27 36.6272 135.856L36.2803 134.606L37.5786 134.582C39.1471 134.553 40.7156 134.522 42.285 134.497L43.081 134.483ZM31.9037 134.942L31.021 136.463C30.4924 137.371 30.3425 138.221 30.2322 139.565C30.2205 139.727 30.2142 139.913 30.2133 140.153L30.1545 152.126V152.142L30.1464 152.512L30.1374 152.925C30.1256 156.129 28.5291 158.72 25.5196 160.418C24.9693 160.727 23.9466 161.306 22.5814 161.783C22.173 161.926 21.517 162.121 20.5729 162.378C19.8835 162.568 19.2104 162.742 18.8183 162.843L17.3067 163.239L17.5732 161.7C17.7404 160.73 17.8325 160.199 18.0051 159.214L18.1217 158.548L18.7803 158.403C21.0734 157.898 22.4919 156.991 23.2391 155.548C23.8264 154.42 23.8399 154.103 23.8797 152.947L23.9005 146.834L23.924 140.526V140.48L23.9258 140.443C23.9258 138.747 23.6782 137.874 22.8244 136.55L21.8287 135.014L23.6592 134.999C23.6592 134.999 28.1225 134.964 30.1464 134.953L31.9037 134.942ZM184.488 134.948C184.627 134.948 184.769 134.949 184.91 134.959C186.004 135.02 187.094 135.317 188.331 135.897C188.428 135.929 188.536 135.971 188.652 136.029L189.22 136.305V143.506L189.131 143.544C189.131 143.544 188.334 142.487 187.821 141.92C187.307 141.353 186.622 140.878 186.109 140.607C185.559 140.316 184.921 140.131 184.262 140.07C183.99 140.097 183.918 140.147 183.847 140.199C183.665 140.332 183.568 140.57 183.568 140.873C183.568 141.178 183.659 141.5 183.832 141.811C184.221 142.527 184.664 142.919 185.63 143.779C185.774 143.908 185.929 144.045 186.091 144.192C188.823 146.648 190.641 149.078 190.645 152.956L190.641 153.107C190.58 157.515 188.191 160.473 184.694 160.473C184.091 160.473 183.459 160.38 182.814 160.207C182.045 160.014 181.196 159.707 180.286 159.289L180.266 159.282L180.177 159.241L180.159 159.234C179.878 159.111 179.59 158.983 179.289 158.828L179.107 158.731L178.867 158.604L178.728 158.528L178.6 158.463L178.156 158.226L178.078 157.725L178.057 157.591C177.801 155.901 177.074 149.867 177.074 149.867L177.185 149.799C177.185 149.799 178.131 151.02 178.707 151.655C179.489 152.524 180.594 153.543 181.625 154.235C182.415 154.763 183.138 155.107 183.715 155.232C183.869 155.264 184.016 155.279 184.149 155.279C184.488 155.279 184.745 155.173 184.92 154.966C185.093 154.76 185.19 154.454 185.191 154.125C185.145 153.191 185.031 152.404 184.123 151.556C183.997 151.438 183.862 151.315 183.72 151.18C181.195 148.835 178.683 146.381 178.112 144.407C177.865 143.549 177.834 142.744 177.826 141.926V141.821C177.829 137.841 180.63 134.951 184.488 134.948ZM91.1104 137.512C91.0796 137.512 91.0236 137.514 90.955 137.514L90.9441 140.265C91.029 140.261 91.1519 140.243 91.2694 140.215C91.8178 140.075 92.1747 139.904 92.3563 139.698C92.6499 139.361 92.8171 139.072 92.8641 138.816V138.814L92.8695 138.784C92.8857 138.656 92.9002 138.549 92.9002 138.464C92.9011 137.975 92.7276 137.852 92.6545 137.799C92.4728 137.669 92.0735 137.513 91.1935 137.512H91.1104ZM126.744 137.688C126.592 137.688 126.443 137.69 126.288 137.697L126.301 139.797C126.339 139.8 126.378 139.801 126.418 139.802C126.505 139.806 126.593 139.809 126.679 139.809H126.731C128.207 139.809 128.246 139.252 128.263 138.797L128.262 138.526C128.226 138.085 128.177 137.853 127.151 137.695C127.034 137.691 126.898 137.688 126.744 137.688ZM142.447 138.173C142.354 138.173 142.261 138.173 142.167 138.175L142.17 138.525L142.188 140.57C142.233 140.572 142.28 140.575 142.327 140.579C142.458 140.587 142.586 140.593 142.707 140.593H142.753C143.891 140.593 144.116 140.218 144.14 139.48V139.331V139.186C144.093 138.616 144.016 138.371 143.01 138.186C142.857 138.179 142.669 138.173 142.447 138.173ZM109.379 140.252C109.094 141.066 108.808 141.887 108.492 142.785C109.066 142.79 109.611 142.795 110.184 142.802L109.379 140.252ZM126.346 143.77L126.357 145.685L126.364 146.638C126.75 146.688 126.987 146.705 127.202 146.719C127.864 146.639 128.215 146.408 128.286 145.461C128.281 144.497 127.937 143.841 126.346 143.77ZM39.4371 144.124C39.1715 145.145 38.9068 146.167 38.6411 147.197C39.1327 147.131 39.5998 147.069 40.1202 146.997C39.8943 146.052 39.6666 145.094 39.4371 144.124ZM142.238 144.683L142.252 146.183L142.266 147.888C142.502 147.928 142.734 147.962 142.901 147.982C142.977 147.991 143.035 147.999 143.08 148.006C143.113 148.01 143.132 148.014 143.157 148.017C143.251 148.004 143.45 147.963 143.538 147.93C143.723 147.863 144.108 147.724 144.177 146.665C144.167 145.356 143.62 144.795 142.238 144.683Z" fill="#0033A0" stroke="#0033A0" stroke-width="0.595096"/>
</g>
<defs>
<clipPath id="clip0_154_2408">
<rect width="200" height="200" fill="white"/>
</clipPath>
</defs>
</svg>
