<svg width="200" height="200" viewBox="0 0 200 200" fill="none" xmlns="http://www.w3.org/2000/svg">
<path d="M149.611 34.0605C121.811 45.9528 114.053 66.471 114.036 66.5145L113.717 67.3576L114.497 66.9C116.726 65.5816 120.788 63.3715 123.573 62.228C120.327 69.1402 115.585 82.4578 113.669 91.9076C113.504 92.7484 113.22 93.4414 113.072 94.1112C112.983 94.5405 112.901 94.813 112.729 95.1412C112.528 95.529 112.162 95.8429 111.73 96.1853C111.381 96.4809 109.483 97.4091 109.483 97.4091C109.471 97.4178 109.052 97.638 108.596 97.8549C108.366 97.9656 108.129 98.0767 107.934 98.1571C107.922 98.1625 107.911 98.1669 107.899 98.1712L107.798 96.4459C107.154 80.2216 106.941 70.0414 106.941 62.4266C106.941 54.2829 107.183 49.0747 107.414 42.5277C109.211 43.9917 114.686 48.5276 114.692 48.53L115.277 49.0173L115.212 48.2575C114.119 35.7448 110.429 23.7719 107.922 16.9473C107.101 14.7071 106.267 12.7442 105.469 11.0468C102.755 5.28632 100.39 0.755035 100.278 0.538101L99.9937 6.10352e-05L99.7218 0.538101C99.6035 0.755096 97.2445 5.28632 94.5307 11.0468C93.7266 12.7442 92.8989 14.7072 92.0711 16.9473C89.5642 23.7721 85.8749 35.7448 84.7811 48.2575L84.716 49.0101L85.3013 48.53C85.3076 48.5246 90.7822 43.9917 92.5795 42.5277C92.8101 49.0751 93.0585 54.283 93.0585 62.4267C93.0585 70.0413 92.8397 80.2216 92.2011 96.4481L92.0947 98.171C91.5212 97.9374 90.522 97.416 90.522 97.416C90.5097 97.416 88.6182 96.4807 88.2635 96.1851C87.8319 95.8428 87.4712 95.5288 87.2584 95.141C87.0928 94.8128 87.0101 94.5402 86.9214 94.111C86.7736 93.4411 86.4898 92.7482 86.3242 91.9074C84.4086 82.457 79.6728 69.1394 76.4209 62.2278C79.2057 63.3713 83.2676 65.5813 85.5025 66.8998L86.277 67.3598L85.9577 66.5143C85.94 66.4706 78.1887 45.9525 50.3831 34.0602L49.4844 33.6819L49.9869 34.5131C49.9931 34.5291 53.4102 40.2269 57.2651 47.7051C61.1201 55.1814 65.4066 64.4213 67.1388 71.4265C68.7411 77.9343 73.6957 99.012 73.6898 116.869C73.6898 118.666 73.6425 120.428 73.5302 122.142L74.1333 122.308C74.1333 122.3 75.0793 120.472 76.2677 118.34C77.2787 116.53 78.473 114.492 79.4013 113.206L85.3019 159.745L85.9345 159.727L88.1576 124.887L99.6863 200H100.313L111.831 124.882L114.06 159.725L114.693 159.744L120.593 113.205C121.521 114.491 122.722 116.529 123.727 118.339C124.921 120.471 125.861 122.3 125.861 122.307L126.464 122.141C126.352 120.427 126.305 118.665 126.305 116.866C126.305 99.0109 131.253 77.9331 132.856 71.4253C134.588 64.4203 138.88 55.1793 142.735 47.7039C146.596 40.2258 150.002 34.5282 150.008 34.5119L150.516 33.6759L149.611 34.0605Z" fill="#7D2248"/>
<path d="M99.9925 5.78021L99.916 5.92052C97.7462 9.6985 96.1194 14.2916 94.8187 17.4874C93.9082 19.7253 93.1583 21.9061 92.502 24.1297C90.953 29.384 89.9186 34.9084 88.4937 42.188L88.4284 42.5324L88.6771 42.29C88.9491 42.0198 89.2262 41.7656 89.4982 41.5167C90.6511 40.4631 91.7799 39.5725 92.8146 38.8334C93.5596 38.2924 94.2638 37.8397 94.8905 37.4607C96.0788 36.74 97.0065 36.2994 97.4558 36.1309C97.1307 36.4685 95.9787 37.636 95.2397 38.3934L95.2094 38.4268V38.4699V38.4747C95.2094 40.8651 95.234 44.0395 95.2636 47.7094C95.3582 58.7931 95.4882 76.9135 94.9383 90.5462C94.8319 93.1169 94.7073 95.5277 94.5477 97.6987C94.4945 98.4401 94.4405 99.1613 94.3755 99.8448C94.3341 100.395 94.2218 100.789 93.8493 101.216C93.8198 101.251 93.8019 101.289 93.7664 101.321C93.3644 101.749 92.8985 101.838 92.5674 101.838H92.5371C92.2001 101.828 91.9289 101.736 91.7574 101.653L89.7166 100.72L85.4309 98.7638C85.2653 98.6715 84.8384 98.4333 84.5428 98.0336C84.2826 97.6895 84.1124 97.3983 84.0119 96.9271C83.87 96.2578 83.7041 95.447 83.5208 94.5164C81.8653 86.3756 78.5241 69.8849 73.5399 60.6876C73.3093 60.2631 72.6597 59.1472 72.3345 58.6021C72.3345 58.6021 73.9251 59.0527 74.7468 59.3531C77.0705 60.2003 79.4413 61.3528 81.1499 62.1592L79.5954 60.3049L79.5715 60.289C72.9733 51.1614 67.9001 46.4854 59.3036 41.9259C58.334 41.4133 57.3405 40.9005 56.2822 40.3872L55.9219 40.215L56.1403 40.5419C70.1823 61.9864 73.8536 85.7373 76.6444 108.953L76.7273 109.632L79.8492 106.913L94.0501 114.158L94.0804 122.159H99.9924H105.917L105.946 114.158L120.149 106.913L123.271 109.632L123.347 108.953C126.138 85.7373 129.816 61.9864 143.858 40.5419L144.07 40.215L143.716 40.3872C142.658 40.9004 141.664 41.4133 140.695 41.9259C132.098 46.485 127.018 51.161 120.42 60.289L120.403 60.3049L118.842 62.1592C120.556 61.3528 122.928 60.2003 125.251 59.3531C126.073 59.0527 127.657 58.6021 127.657 58.6021C127.326 59.1472 126.682 60.2631 126.452 60.6876C121.468 69.8844 118.127 86.3749 116.477 94.5164C116.288 95.447 116.128 96.2578 115.98 96.9271C115.885 97.3983 115.714 97.6895 115.454 98.0336C115.152 98.4333 114.733 98.6716 114.567 98.7638L110.275 100.72L108.234 101.653C108.063 101.736 107.792 101.828 107.455 101.838H107.424C107.105 101.838 106.632 101.749 106.23 101.321C106.189 101.289 106.172 101.251 106.142 101.216C105.77 100.789 105.656 100.395 105.621 99.8448C105.556 99.1613 105.497 98.4401 105.444 97.6987C105.29 95.5277 105.166 93.1169 105.06 90.5462C104.51 76.9135 104.64 58.7931 104.734 47.7094C104.764 44.0397 104.788 40.8651 104.782 38.4747V38.4699V38.4268L104.752 38.3934C104.013 37.636 102.867 36.4686 102.536 36.1309C102.991 36.2994 103.913 36.74 105.101 37.4607C105.728 37.8397 106.431 38.2925 107.182 38.8334C108.216 39.5725 109.34 40.4631 110.493 41.5167C110.765 41.7656 111.043 42.0198 111.321 42.29L111.563 42.5324L111.498 42.188C110.073 34.9086 109.039 29.3847 107.49 24.1297C106.833 21.906 106.083 19.7253 105.166 17.4874C103.872 14.2912 102.24 9.69807 100.076 5.92052L99.9925 5.78021ZM94.0502 123.844V127.921H105.946V123.844H99.9986H94.0502ZM95.3336 129.509V132.498H99.9925H104.664V129.509H95.3336ZM94.0566 134.084L94.0805 134.253L94.4711 138.128H99.9926H105.527L105.917 134.253L105.935 134.084H105.905H99.9927H94.0566ZM94.6959 139.717L99.9925 187.527L105.302 139.717H99.9925H94.6959Z" fill="#FFC72C"/>
</svg>
