<svg width="200" height="200" viewBox="0 0 200 200" fill="none" xmlns="http://www.w3.org/2000/svg">
<path d="M150.636 23.4599V72.901L145.629 72.8768L165.587 126.19L182.698 126.213V175.693H17.7734V126.279L34.764 126.298L54.898 72.833L49.7827 72.8462L49.8028 23.4414L150.638 23.4576L150.636 23.4599Z" fill="white"/>
<path d="M100.238 41.7909H132.09V54.5307H118.858L153.647 144.2H163.937V157.392H120.815V144.558H108.711V169.724H176.769V132.197L161.486 132.224L136.987 66.9101H144.681V29.4062H100.234H55.787V66.9101H63.483L38.9821 132.141L23.6992 132.198V169.725H91.7636V144.558H79.6555V157.393H36.5343V144.201H46.824L81.6132 54.531H68.3829V41.7912H100.235L100.238 41.7909Z" fill="#00205C"/>
<path d="M100.204 41.9062L135.527 133.505C135.527 133.505 140.052 144.653 147.403 144.653H121.683C121.683 144.653 122.975 144.841 124.263 142.695C124.999 141.47 124.378 139.631 124.378 139.631L116.423 119.183H100.202H84.0466L76.082 139.631C76.082 139.631 75.4745 141.47 76.2092 142.695C77.4908 144.841 78.7786 144.653 78.7786 144.653H53.0605C60.4073 144.653 64.9388 133.505 64.9388 133.505L100.206 41.9062M100.178 109.473H112.621L100.422 77.3403L87.7912 109.473H100.178Z" fill="#C10230"/>
</svg>
