<svg width="200" height="200" viewBox="0 0 200 200" fill="none" xmlns="http://www.w3.org/2000/svg">
<rect x="60.4551" y="34.8789" width="57.4607" height="28.579" fill="#EBBE61"/>
<rect x="92.377" y="99.9453" width="57.4607" height="54.7266" fill="#EBBE61"/>
<path d="M71.5088 101.632H78.7285V100.938H72.0469V79.084H105.287L104.859 78.6543C104.792 78.6524 104.712 78.6504 104.619 78.6504H71.5088V101.632ZM100.575 101.63H104.79C104.815 101.629 104.838 101.628 104.859 101.627L105.547 100.938H104.259L100.575 100.936V101.63ZM107.259 99.2178L107.681 98.7939C107.682 98.7234 107.685 98.641 107.685 98.5449V81.7373C107.685 81.6406 107.682 81.5582 107.681 81.4873L107.259 81.0635V99.2178ZM158.314 144.234C158.314 146.563 158.332 148.967 157.755 151.271C157.14 153.727 155.902 155.938 153.682 158.17L153.68 158.172L147.378 164.492L147.379 164.493C145.175 166.709 143.014 167.963 140.613 168.589C138.359 169.177 136.032 169.158 133.814 169.158H103.214C100.995 169.158 98.6655 169.177 96.4082 168.587C94.0048 167.959 91.8399 166.701 89.6309 164.479V164.479L83.3555 158.184L83.3535 158.182C81.1285 155.946 79.8871 153.732 79.2705 151.274C78.6918 148.967 78.709 146.563 78.709 144.234V123.471H42.123V101.633H49.7275V43.9229H42.123V22.0869H45.123L104.618 22.0859C106.938 22.0859 109.337 22.0686 111.638 22.6484C113.937 23.228 116.019 24.3581 118.103 26.333L118.52 26.7393L118.521 26.7412L124.821 33.0654H124.82C127.036 35.286 128.281 37.4744 128.9 39.9043C129.482 42.186 129.465 44.5544 129.465 46.832V53.8994C129.465 56.1784 129.483 58.549 128.899 60.834C128.278 63.2675 127.029 65.46 124.807 67.6865L124.806 67.6855L124.76 67.7314L124.822 67.7949H124.821C127.037 70.0152 128.281 72.2033 128.9 74.6328C129.482 76.9143 129.465 79.282 129.465 81.5596V98.7178C129.465 100.996 129.483 103.367 128.899 105.651C128.278 108.084 127.029 110.276 124.808 112.502L118.532 118.802L118.53 118.803C116.303 121.036 114.095 122.285 111.641 122.905C109.337 123.488 106.937 123.47 104.617 123.47H100.486V144.233C100.486 144.33 100.488 144.413 100.49 144.482L103.314 147.317C103.383 147.319 103.462 147.321 103.555 147.321H133.468C133.559 147.321 133.637 147.319 133.704 147.317L136.529 144.483C136.531 144.413 136.533 144.331 136.533 144.233V101.061H129.879V79.2236H164.969V101.058L161.969 101.059H158.314V144.234ZM71.5078 56.8154H104.618C104.711 56.8154 104.79 56.8125 104.857 56.8105L107.68 53.9756C107.681 53.905 107.684 53.8229 107.684 53.7266V47.0117C107.684 46.9143 107.681 46.831 107.68 46.7598L104.857 43.9268C104.79 43.9248 104.711 43.9229 104.618 43.9229H71.5078V56.8154Z" fill="#154734" stroke="#EBBE61" stroke-width="6"/>
</svg>
