<svg width="200" height="200" viewBox="0 0 200 200" fill="none" xmlns="http://www.w3.org/2000/svg">
<ellipse cx="100" cy="98.222" rx="100" ry="66.5892" fill="white"/>
<path d="M99.9985 38.7266C49.0978 38.7266 7.83203 65.4451 7.83203 98.4017C7.83203 131.36 49.0978 158.077 99.9985 158.077C150.903 158.077 192.169 131.36 192.169 98.4017C192.169 65.446 150.903 38.7266 99.9985 38.7266Z" fill="#003DA5"/>
<path d="M121.424 64.5659C123.637 64.8569 131.241 66.3362 133.796 67.345L108.241 98.2419L79.2636 64.5029C81.5711 63.9067 88.1695 63.2368 91.1464 63.0686C90.905 60.6238 89.5811 48.3125 89.5811 48.3125C73.6501 48.8565 47.2679 55.7216 31.25 69.8122C32.3877 71.1763 38.1973 78.6765 40.167 81.0063C42.6342 78.635 48.1801 74.8753 50.0133 74.0342L85.7764 114.592C85.7764 114.592 85.7144 131.959 85.7452 132.816C83.0003 132.575 75.3181 131.454 73.4305 130.863C73.0722 133.061 71.0023 143.119 70.6432 144.862C92.4343 150.079 116.142 148.472 131.388 144.391C129.846 137.624 128.418 133.41 127.903 130.689C124.918 131.356 116.594 132.66 114.965 132.781L114.988 114.607L148.941 73.2338C148.941 73.2338 156.047 77.0419 159.797 80.8094C161.565 78.6029 165.366 73.1657 168.12 69.6268C155.429 59.3996 139.665 52.8641 123.148 50.0978C122.91 53.7249 121.717 62.0645 121.426 64.565L121.424 64.5659Z" fill="white"/>
</svg>
