<svg width="200" height="200" viewBox="0 0 200 200" fill="none" xmlns="http://www.w3.org/2000/svg">
<path d="M99.8474 192.102H41.8008L48.7201 168.45H106.767L99.8474 192.102Z" fill="#E00122"/>
<path d="M138.767 7.91153C126.251 7.59954 106.945 21.1579 104.339 35.1271C103.609 39.0757 104.625 42.0384 106.703 43.6923C107.414 44.4623 108.326 45.0091 109.445 45.2439C112.939 45.9819 116.94 44.8033 120.353 42.1564C122.686 40.3448 124.738 37.8571 126.153 34.836C127.091 32.8265 127.703 30.9761 128.004 29.2954C128.433 26.9352 128.289 24.9188 127.728 23.2933C127.395 22.3355 126.926 21.5152 126.347 20.8375C125.774 20.1665 125.084 19.6405 124.321 19.2597C123.3 18.7581 122.203 18.493 121.042 18.4393C122.547 17.6979 124.146 17.3051 125.708 17.3621C126.972 17.404 128.12 17.7311 129.11 18.2847C129.123 18.2964 129.15 18.307 129.17 18.3187C129.527 17.5002 129.924 16.7163 130.365 15.9599C132.472 12.392 135.509 9.57543 138.791 8.02886L138.766 7.91211L138.767 7.91153ZM104.625 15.8556C94.3205 17.7627 80.9211 31.7681 81.2043 43.31C81.2814 46.5877 82.64 48.7757 84.6194 49.7419C85.3406 50.2367 86.1775 50.5177 87.1302 50.5177C90.1211 50.521 93.1956 48.9058 95.5356 46.2219C97.1309 44.3902 98.3843 42.0613 99.0268 39.4127C99.4545 37.6548 99.6184 36.0803 99.5798 34.6898C99.5211 32.7373 99.0622 31.1562 98.3191 29.9485C97.8864 29.244 97.3525 28.6711 96.757 28.2266C96.1666 27.7921 95.5148 27.4829 94.8253 27.3118C93.9027 27.0804 92.9529 27.0544 92.0051 27.207C93.1072 26.3633 94.3411 25.7885 95.6377 25.5637C96.6794 25.3876 97.6711 25.452 98.5836 25.7288C98.6021 25.7339 98.6183 25.7387 98.6334 25.7471C98.7844 25.0343 98.9795 24.3455 99.2127 23.6661C100.303 20.5059 102.279 17.7767 104.669 15.9919L104.625 15.8556ZM152.788 26.0616C144.213 26.2877 133.097 31.4021 129.307 38.9252C127.972 41.5604 128.054 43.86 129.11 45.4434C129.429 46.1379 129.931 46.7047 130.636 47.0972C132.85 48.3318 135.822 48.3095 138.682 47.147C140.643 46.3452 142.558 45.0085 144.149 43.1685C145.216 41.944 146.004 40.7619 146.558 39.638C147.355 38.0628 147.674 36.6134 147.64 35.3554C147.615 34.614 147.466 33.9354 147.211 33.3398C146.962 32.7527 146.611 32.2354 146.17 31.8144C145.588 31.2508 144.891 30.8422 144.123 30.5721C145.309 30.3541 146.457 30.4043 147.512 30.7582C148.359 31.0417 149.06 31.5114 149.609 32.1001C149.627 32.1169 149.645 32.1258 149.645 32.1342C150.063 31.6343 150.494 31.1636 150.959 30.7241C153.089 28.6777 155.681 27.3297 158.182 26.8818L158.195 26.7166C156.608 26.2175 154.767 26.0094 152.788 26.0616ZM77.8468 32.4305C70.0451 34.9952 61.1787 47.1152 62.671 55.8874C63.0937 58.3782 64.389 59.9035 66.0362 60.4268C66.6502 60.7287 67.3339 60.8525 68.0753 60.7518C70.4035 60.4331 72.6126 58.8738 74.1323 56.574C75.1757 55.0056 75.8924 53.0929 76.0954 51.0045C76.2296 49.614 76.1918 48.3952 76.009 47.3351C75.7473 45.8574 75.2107 44.6985 74.5045 43.8598C74.0885 43.365 73.6115 42.9834 73.1049 42.7066C72.595 42.4416 72.0509 42.2744 71.4957 42.2191C70.7559 42.1436 70.0127 42.2265 69.2914 42.4445C70.058 41.6796 70.9523 41.1081 71.9386 40.8012C72.7237 40.5512 73.5035 40.4999 74.2398 40.6072C74.2565 40.6139 74.2735 40.6134 74.2869 40.6151C74.3239 40.0599 74.3955 39.5074 74.5045 38.9639C75.0044 36.4328 76.2444 34.1401 77.9118 32.5164L77.8468 32.4305ZM109.952 53.5712C79.7698 53.5712 54.3242 80.5989 48.4184 108.789C41.6081 141.302 61.4596 161.125 83.8801 160.704C107.882 160.246 119.289 134.512 121.265 129.218L121.037 129.183C112.806 142.776 100.544 147.608 95.1764 147.608C72.4147 147.608 72.2107 125.023 77.0819 106.968C83.8133 82.0025 94.3927 66.4926 109.825 66.4926C115.414 66.4926 123.463 70.4452 125.254 88.315L125.571 88.3517C127.051 84.2 134.428 60.3175 134.428 60.3175C127.104 56.27 119.648 53.5712 109.952 53.5712Z" fill="black"/>
</svg>
