<svg width="200" height="200" viewBox="0 0 200 200" fill="none" xmlns="http://www.w3.org/2000/svg">
<path fill-rule="evenodd" clip-rule="evenodd" d="M92.3991 30.8443L90.8121 31.3326C74.088 36.5817 66.1532 46.836 64.3221 49.3995C63.7117 50.0099 59.195 57.8226 56.9977 59.8979C51.7485 60.5082 37.9542 64.0484 31.3622 71.9832C27.5779 71.8611 21.5963 71.9832 21.5963 71.9832C19.1548 72.1053 17.0796 73.6922 16.225 76.0116C16.103 76.4999 15.8588 77.1102 15.8588 77.9648C15.8588 79.4296 16.3471 81.2608 18.3003 83.0919C19.521 84.3126 21.4742 85.5334 23.6715 86.632C22.817 89.806 22.3287 94.0785 22.3287 97.9849C22.3287 99.6939 22.4508 101.281 22.5729 102.746C21.5963 103.234 20.7418 103.722 20.1314 104.089C18.6665 105.065 15.6147 107.751 13.4174 111.413C12.0745 113.732 11.4642 115.563 11.22 120.08C11.22 120.813 11.0979 123.132 10.6096 124.109C9.99927 125.207 7.80196 128.259 6.7033 129.968L5.48256 131.799C4.62804 133.02 4.13973 134.851 3.40729 137.171L3.16313 138.025C2.91898 138.635 2.18654 140.467 1.94239 140.955C0.965801 142.42 0.599609 144.129 0.599609 145.838C0.599609 147.669 0.965801 149.5 1.33202 151.209C2.43069 155.726 6.94743 162.806 10.7317 168.544L11.22 169.276L11.0979 169.154C12.0745 170.985 13.5394 172.084 15.2485 172.572C17.812 173.182 19.7652 171.962 20.7418 171.351L21.2301 171.107C24.2819 169.276 25.9909 166.59 26.9675 165.125C26.9675 165.125 27.0896 164.881 27.2117 164.759C27.5779 164.515 28.1883 164.027 28.1883 164.027C30.1414 162.684 31.3622 161.707 32.0946 160.731C35.2686 156.947 36.7334 151.209 36.9776 148.523L37.2217 146.326C37.8321 140.589 37.9542 138.269 37.9542 136.926C37.9542 136.438 37.9542 136.072 37.8321 135.828V136.316C37.8321 135.828 38.1983 134.485 38.4425 133.63C40.1515 133.997 42.3488 134.851 42.9592 135.217C45.0344 136.438 50.894 139.246 59.6833 139.246C69.3271 139.246 74.5763 137.903 76.0412 137.537C77.9944 136.926 81.7787 135.706 83.2436 134.973L83.1215 135.095L83.3656 134.973C84.3422 134.485 85.8071 133.875 87.1499 132.776C92.1549 132.654 96.0613 132.654 98.869 132.654C97.16 134.485 95.573 136.926 94.4743 139.856C93.3756 142.908 92.7653 147.181 92.3991 152.43C92.277 154.749 92.155 156.458 92.155 157.801C92.155 160.853 92.6432 161.829 93.9861 163.05L95.9392 164.881L106.926 162.928H106.682H108.269L112.053 162.806C114.372 162.562 117.79 161.585 120.354 160.12C123.162 158.411 125.603 155.36 126.214 154.627C126.824 154.017 129.509 151.941 130.486 151.331C130.608 151.331 131.585 150.721 131.585 150.721L134.759 149.012C134.759 149.012 140.618 144.739 142.816 142.42C143.548 141.687 144.525 140.467 145.501 139.368C145.99 139.978 146.6 140.711 147.21 141.321L147.576 141.809C150.018 144.617 153.07 144.861 155.023 144.129L155.511 144.007L155.877 143.763C157.464 142.908 161.127 140.833 162.592 139.856C162.836 139.734 163.69 139.612 164.056 139.49C166.376 139.49 168.573 138.147 169.672 136.926C169.55 137.048 169.916 136.682 169.916 136.682C176.63 130.457 188.593 118.982 193.72 111.413C196.162 107.873 197.627 104.943 198.481 100.426C199.702 93.8344 199.58 92.2474 198.847 86.2658L198.725 85.045C197.627 75.2791 188.227 64.1704 186.64 62.9497L186.396 62.7055C184.565 61.1186 179.682 56.9681 170.038 53.9162C165.399 52.4513 159.662 52.2072 157.098 52.2072C157.098 52.2072 157.098 52.2072 156.976 52.2072C156.488 51.5969 155.633 50.3761 155.145 49.5216C152.704 45.3711 148.431 41.0985 142.693 36.8259L142.571 36.7038L142.327 36.4597C140.496 34.9948 134.759 30.7222 123.284 28.4028C107.902 25.4731 97.7704 28.8911 92.3991 30.8443Z" fill="#CFB87C"/>
<path fill-rule="evenodd" clip-rule="evenodd" d="M111.686 32.6741C102.042 32.6741 95.8167 35.3597 92.5207 36.4584C83.7314 39.2661 77.7498 43.4166 73.8434 46.9568H114.616L122.429 57.6993L120.354 71.6156H106.559L108.268 60.3849H76.2849L71.1578 95.0538H81.6561L83.4872 82.7244H79.2147L80.9237 71.4936H99.4789L96.0609 94.9318H103.019L104.85 82.6023H118.767L116.447 97.9836L105.46 108.36H93.9856L92.5207 118.248H119.865L126.823 71.1274H145.379L143.67 82.4802H139.397L133.66 121.544L123.039 131.798H107.536C104.362 133.385 101.432 136.071 99.8451 141.076C97.8919 147.546 97.892 158.654 97.892 158.654C97.892 158.654 104.972 157.556 106.071 157.311C107.047 157.067 109.855 157.311 111.686 157.067C113.517 156.823 116.203 156.091 117.912 155.114C119.621 154.015 121.574 151.818 122.429 150.842C123.283 149.743 127.19 146.935 127.922 146.447C128.655 145.959 131.218 144.982 132.073 144.372C132.927 143.761 137.688 140.221 139.275 138.512C140.862 136.803 143.792 133.263 144.646 131.92C146.111 129.723 147.698 131.554 147.82 132.286C148.43 134.24 150.994 136.925 151.971 137.902C152.947 139 153.68 138.756 153.68 138.756C153.68 138.756 158.929 135.826 160.027 135.094C161.126 134.239 163.568 133.995 164.3 133.995C165.033 133.995 165.887 133.385 166.253 133.019C166.62 132.653 183.588 117.271 189.691 108.238C191.645 105.308 192.987 102.989 193.598 99.3264C194.696 92.8565 194.574 91.8799 193.842 85.5321C192.987 77.7194 184.931 67.9534 183.832 66.9768C182.733 66.0003 178.461 61.8498 168.939 58.92C164.422 57.4551 158.074 57.4551 157.22 57.5771C156.365 57.6992 154.412 56.6006 153.924 56.2344C153.436 55.7461 151.849 53.6708 151.116 52.328C147.82 46.8347 141.228 42.0738 139.885 41.0972C138.665 40.1206 133.782 35.9701 122.673 33.7728C118.4 33.0403 114.86 32.6741 111.686 32.6741ZM61.2698 63.6808C56.631 64.4133 40.6393 68.1976 34.5356 76.6207C34.1694 77.109 32.8266 77.3531 32.0942 77.3531C31.4838 77.3531 22.4503 77.3531 22.0841 77.3531C21.7179 77.3531 20.6192 77.8414 22.0841 79.1842C23.4269 80.405 26.6009 82.3582 29.2865 83.3348C30.2631 83.701 30.141 85.2879 29.5306 86.1424C27.8216 89.0722 26.9671 100.181 28.3099 104.087C28.554 104.576 28.1878 106.407 27.4554 106.651C26.3567 107.017 24.0373 108.116 23.0607 108.726C22.0841 109.336 19.6426 111.534 17.9336 114.341C17.0791 115.928 16.5908 116.783 16.4687 120.445C16.3467 122.642 16.2246 125.084 15.1259 126.915C14.0272 128.746 10.365 133.873 9.75467 134.85C9.1443 135.827 8.41183 138.878 8.04561 139.733C7.80146 140.709 6.7028 143.029 6.2145 143.883C5.35999 145.226 5.97037 148.4 6.45866 149.987C7.6794 154.87 15.4921 166.101 15.7363 166.711C16.4687 168.054 16.957 167.444 18.2998 166.589C21.3517 164.758 22.4503 161.706 23.3048 160.852C24.1593 160.119 27.2112 158.044 27.8216 157.311C30.141 154.504 31.3617 149.865 31.4838 148.034C31.6059 146.203 32.5824 137.536 32.4604 136.437C32.3383 135.338 33.1928 131.188 34.1694 130.089C35.0239 128.99 36.8551 127.77 37.8316 127.892C40.2731 128.136 44.3015 129.723 45.6444 130.455C48.33 132.042 53.0909 133.751 59.5608 133.751C67.3735 133.751 72.3785 132.775 74.4538 132.164C76.8953 131.432 79.825 130.455 80.6795 129.967C80.9237 129.845 82.0224 129.479 82.9989 128.868L77.5056 121.666L79.4588 108.482H64.8099L56.0206 97.9836L61.2698 63.6808Z" fill="black"/>
<path d="M164.302 100.183C162.837 102.502 160.762 102.502 160.762 102.502C156.123 102.747 155.879 98.1077 155.879 98.1077C156.123 88.0977 167.476 81.8719 171.504 79.7966C171.504 79.7966 172.969 78.9422 172.237 80.285C168.452 86.8769 166.743 91.7599 166.255 94.0793C166.133 93.9572 165.279 98.7181 164.302 100.183Z" fill="white"/>
<path d="M164.302 100.183C162.837 102.502 160.762 102.502 160.762 102.502C156.123 102.747 155.879 98.1077 155.879 98.1077C156.123 88.0977 167.476 81.8719 171.504 79.7966C171.504 79.7966 172.969 78.9422 172.237 80.285C168.452 86.8769 166.743 91.7599 166.255 94.0793C166.133 93.9572 165.279 98.7181 164.302 100.183Z" fill="white"/>
</svg>
