<svg width="200" height="200" viewBox="0 0 200 200" fill="none" xmlns="http://www.w3.org/2000/svg">
<path d="M12.9707 17.2422H73.8378V49.6335H64.5832V73.126H98.0423V49.6335H88.9692V17.2422H149.655V49.6335H140.044V73.126H187.029V105.517H177.419V150.367H187.029V182.758H126.518V150.723H135.417V144.672H102.67V150.723H111.924V182.758H51.0571V150.723H60.6677V124.738H41.0906L22.7593 108.009V49.6335H12.9707V17.2422Z" fill="#E61D3B"/>
<path d="M17.5977 21.8672H69.2101V45.0038H59.9555V77.751H102.669V45.0038H93.5926V21.8672H145.205V45.0038H135.416V77.751H182.402V101.066H172.791V155.17H182.58V178.306H130.967V155.17H140.044V140.042H98.0419V155.17H107.297V178.306H55.5061V155.17H65.2947V119.575H42.514L27.3862 106.583V45.0038H17.5977V21.8672Z" fill="#FFFCFC"/>
<path d="M21.8691 26.1406H64.9389V40.7345H55.6842V100.89H65.4728V115.84H45.0058L31.8357 104.449V40.7345H21.8691V26.1406ZM98.042 26.1406H140.756V40.7345H131.145V104.449L117.619 115.84H97.6861V100.89H106.941V40.7345H98.042V26.1406ZM135.417 82.3804H178.13V96.6183H168.52V159.621H178.13V173.859H135.417V159.621H144.671V135.773H93.7706V159.621H102.669V173.859H59.9556V159.621H69.9221V96.6183H59.9556V82.2024H102.847V96.6183H93.7706V120.111H144.493V96.7963H135.417V82.3804ZM125.806 115.484L139.688 103.025V115.484H125.806Z" fill="#E61D3B"/>
</svg>
