<svg width="200" height="200" viewBox="0 0 200 200" fill="none" xmlns="http://www.w3.org/2000/svg">
<path d="M120.022 133.885V66.1038H133.225L138.288 34.5625H61.0566L66.12 66.1038H79.3807V133.885H66.3149L61.2565 165.441H138.134L133.071 133.881L120.022 133.885Z" fill="#FDC82F"/>
<path d="M129.133 61.3001L132.653 39.3672H66.6895L70.2098 61.3001H84.1793V138.69H70.4098L66.8894 160.638H132.502L128.982 138.69H115.227V61.3001H129.133Z" fill="#A71930"/>
<path d="M132.655 39.3672L121.286 50.3278H99.7025V73.9849C96.6416 73.9879 93.5818 74.0479 90.5229 74.1649C87.54 85.8095 84.5561 97.513 81.5782 109.271C79.6103 109.417 77.6384 109.589 75.6764 109.785C76.2374 113.582 76.8034 117.385 77.3654 121.194C82.3842 120.735 87.418 120.427 92.4468 120.276C93.1838 116.995 93.9218 113.714 94.6637 110.439C96.3427 110.403 98.0226 110.385 99.7025 110.382V149.448H78.3323L66.8868 160.638H132.495L128.975 138.688L121.286 149.448H104.409L115.226 138.688V120.631C117.566 120.775 119.906 120.949 122.246 121.161C122.806 117.352 123.376 113.548 123.936 109.746C122.706 109.623 121.466 109.516 120.236 109.414C120.676 106.191 121.116 102.968 121.546 99.7459C119.586 99.5749 117.636 99.4289 115.666 99.3019C115.516 98.745 115.376 98.193 115.226 97.636V90.7263C119.196 90.9693 123.166 91.3052 127.126 91.7382C127.036 90.1653 126.956 88.5873 126.876 87.0154C127.865 87.1224 128.865 87.2404 129.865 87.3574V110.39C128.805 110.263 127.735 110.14 126.676 110.023C126.046 113.811 125.416 117.606 124.786 121.405C132.635 122.191 140.445 123.349 148.215 124.887C147.585 120.903 146.965 116.926 146.345 112.952C145.095 112.712 143.845 112.49 142.605 112.27V89.2383C143.605 89.4143 144.605 89.5933 145.615 89.7793C145.535 91.3312 145.445 92.8802 145.365 94.4331C149.395 95.1801 153.405 96.0291 157.404 96.976C157.684 91.6242 157.974 86.2684 158.264 80.9126C144.085 77.4948 129.685 75.3478 115.226 74.4609V61.2994H129.125L132.655 39.3672ZM78.3323 50.3278L70.2076 61.2994H84.1761L95.6757 50.3278H78.3323ZM85.3471 74.4149C70.5046 75.2928 55.7192 77.4998 41.1787 81.0446C41.4627 86.4014 41.7497 91.7522 42.0327 97.109C46.0315 96.1521 50.0454 95.2931 54.0732 94.5371C53.9902 92.9842 53.9082 91.4352 53.8252 89.8823C54.8162 89.6973 55.8022 89.5173 56.7981 89.3413V112.371C55.5572 112.591 54.3232 112.816 53.0933 113.055C52.4723 117.035 51.8473 121.015 51.2273 124.995C58.9711 123.447 66.7688 122.269 74.5955 121.463C73.9705 117.669 73.3425 113.879 72.7175 110.091C71.6526 110.208 70.5876 110.332 69.5277 110.464V87.4314C70.5186 87.3094 71.5196 87.1924 72.5156 87.0804C72.4326 88.6573 72.3486 90.2293 72.2656 91.8062C76.3234 91.3522 80.3973 90.9973 84.4741 90.7383C84.7671 85.2985 85.0541 79.8587 85.3471 74.4149ZM159.694 81.2636C160.304 85.2725 160.924 89.2873 161.544 93.3002C162.404 93.5202 163.264 93.7502 164.124 93.9801V99.6479C162.544 99.228 160.974 98.824 159.384 98.433C160.154 102.481 160.924 106.529 161.684 110.581C162.494 110.791 163.314 111.005 164.124 111.219V117.004C162.894 116.682 161.674 116.362 160.444 116.059C159.824 119.76 159.214 123.465 158.594 127.176C170.954 130.174 183.123 134.135 195.013 139.058C194.753 133.525 194.483 127.993 194.213 122.455C190.363 120.878 186.493 119.403 182.593 118.026C182.653 119.618 182.733 121.209 182.803 122.801C180.733 122.064 178.654 121.361 176.564 120.682V114.895C179.164 115.735 181.763 116.628 184.343 117.561C185.253 114.031 186.153 110.508 187.053 106.988C183.573 105.689 180.074 104.463 176.564 103.326V97.652C178.654 98.331 180.733 99.034 182.803 99.7709C182.733 101.309 182.653 102.845 182.593 104.388C186.493 105.765 190.363 107.242 194.213 108.824C194.483 103.511 194.763 98.198 195.043 92.8902C183.493 88.1054 171.674 84.2275 159.694 81.2636ZM39.0988 81.5816C30.8031 83.6765 22.5854 86.2114 14.4897 89.1853C9.19712 91.1193 4.95508 96.3821 4.95508 102.779V110.283C4.95508 115.726 9.19322 119.121 14.4859 117.309C18.7336 115.854 23.0164 114.514 27.3274 113.293C27.5274 113.24 27.6924 113.357 27.6924 113.567V118.989C27.6924 119.194 27.5334 119.407 27.3334 119.465C23.9786 120.496 20.6387 121.596 17.3178 122.768C17.4008 121.171 17.4788 119.579 17.5618 117.987C13.6757 119.349 9.8125 120.82 5.98424 122.387C5.70623 127.919 5.43378 133.451 5.16035 138.978C13.4363 135.559 21.8537 132.607 30.3744 130.121C35.7552 128.544 40.179 124.159 40.179 117.596V109.16C40.179 103.72 35.7602 100.263 30.3844 101.708C26.0626 102.871 21.7667 104.151 17.5039 105.552C17.3039 105.621 17.1389 105.501 17.1389 105.296V100.156C17.1389 99.9509 17.2979 99.7259 17.4979 99.6579C20.5348 98.588 23.5877 97.578 26.6535 96.63C26.5706 98.222 26.4926 99.8139 26.4096 101.406C30.3304 100.19 34.2753 99.073 38.2451 98.052C38.5281 92.5642 38.8148 87.0704 39.0988 81.5816ZM99.7075 90.8613V98.82C98.9826 98.821 98.2576 98.815 97.5336 98.822C98.2546 96.1651 98.9816 93.5132 99.7075 90.8613Z" fill="#822433"/>
<path d="M117.091 88.4369C119.63 88.6127 122.164 88.8275 124.698 89.0814C124.615 87.5043 124.527 85.9322 124.444 84.3551C127.071 84.6188 129.693 84.9166 132.305 85.2633V113.103C131.119 112.947 129.937 112.801 128.756 112.659C128.389 114.876 128.023 117.088 127.657 119.3C133.585 119.964 139.493 120.842 145.376 121.936C145.01 119.612 144.649 117.293 144.283 114.974C142.915 114.725 141.544 114.485 140.171 114.261V86.4205C142.793 86.8502 145.411 87.3238 148.018 87.8364C147.935 89.3843 147.852 90.9369 147.769 92.4848C150.278 92.9779 152.778 93.5101 155.269 94.0765C155.474 90.3022 155.674 86.5327 155.879 82.7536C142.882 79.7557 129.707 77.8173 116.477 76.9336C116.682 80.7713 116.886 84.604 117.091 88.4369Z" fill="#FADA63"/>
<path d="M184.921 121.267C184.994 122.858 185.067 124.455 185.14 126.047C181.517 124.723 177.87 123.483 174.198 122.336V111.74C176.982 112.61 179.75 113.532 182.509 114.504C183.036 112.434 183.563 110.368 184.09 108.308C180.809 107.126 177.514 106.018 174.198 104.978V94.4998C177.87 95.6472 181.517 96.8776 185.14 98.2057C185.067 99.7437 184.994 101.282 184.92 102.82C187.347 103.704 189.759 104.626 192.166 105.588C192.362 101.843 192.557 98.103 192.747 94.3581C182.84 90.369 172.738 87.0438 162.51 84.3828C162.866 86.7313 163.223 89.0799 163.584 91.4333C164.56 91.6872 165.542 91.9557 166.518 92.2243V102.707C165.171 102.331 163.823 101.97 162.471 101.618C162.832 103.967 163.188 106.316 163.55 108.664C164.541 108.928 165.527 109.196 166.518 109.47V120.07C165.181 119.694 163.838 119.333 162.49 118.986C162.134 121.149 161.777 123.307 161.416 125.47C172.006 128.175 182.47 131.588 192.724 135.714C192.538 131.822 192.348 127.926 192.167 124.035C189.76 123.073 187.347 122.15 184.921 121.267Z" fill="#FADA63"/>
<path d="M115.554 108.461C116.281 108.51 117.009 108.559 117.736 108.608C118.064 106.381 118.396 104.15 118.723 101.918C117.077 101.796 115.432 101.689 113.786 101.596C111.55 93.198 109.309 84.8293 107.063 76.4896C102.195 76.3529 97.3222 76.3578 92.4536 76.5043C89.4557 88.1298 86.4577 99.8096 83.4647 111.542C81.8095 111.654 80.1592 111.781 78.5039 111.923C78.8359 114.149 79.1631 116.376 79.4951 118.602C83.1668 118.299 86.8483 118.075 90.5249 117.938C91.604 113.431 92.688 108.939 93.767 104.452C94.3383 105.639 94.9096 106.825 95.4857 108.017C99.2307 107.948 102.976 107.963 106.721 108.065C107.512 111.347 108.303 114.633 109.094 117.924C112.775 118.055 116.447 118.27 120.119 118.573C120.451 116.341 120.783 114.12 121.115 111.893C119.464 111.752 117.819 111.63 116.169 111.517C115.963 110.502 115.759 109.482 115.554 108.461ZM99.0215 83.1644H100.603C102.093 89.1846 103.582 95.2195 105.071 101.269C101.565 101.195 98.0595 101.195 94.5538 101.274C96.0429 95.2242 97.5323 89.1891 99.0215 83.1644Z" fill="#FADA63"/>
<path d="M44.1739 94.206C46.6688 93.6298 49.1637 93.0923 51.6686 92.5998C51.5861 91.0474 51.5074 89.4987 51.4199 87.9462C54.0174 87.4287 56.6149 86.9551 59.2223 86.5205V114.366C57.8649 114.591 56.5124 114.826 55.155 115.074C54.7938 117.399 54.4325 119.718 54.0663 122.042C59.9303 120.938 65.8236 120.05 71.7319 119.371L70.6333 112.735C69.4517 112.877 68.2701 113.024 67.0885 113.185V85.3444C69.7057 84.9929 72.3227 84.6853 74.9447 84.4216C74.8617 85.9938 74.7787 87.5709 74.6908 89.1431C77.225 88.8843 79.759 88.6646 82.2979 88.4839C82.503 84.6462 82.7081 80.8133 82.9131 76.9805C69.7011 77.8886 56.5416 79.8612 43.5684 82.8885C43.7686 86.6579 43.9737 90.4318 44.1739 94.206Z" fill="#FADA63"/>
<path d="M30.3859 104.113C26.0648 105.279 21.7675 106.559 17.5051 107.96C16.0062 108.448 14.7904 107.618 14.7904 106.08V101.002C14.7904 99.4693 16.0013 97.7848 17.4954 97.2575C21.3087 95.9148 25.1465 94.6648 29.0086 93.5125C28.9256 95.1042 28.8475 96.696 28.7645 98.2877C31.2057 97.5553 33.6569 96.862 36.1128 96.2076C36.313 92.3357 36.5132 88.4687 36.7134 84.6016C29.2283 86.5741 21.8114 88.9032 14.4879 91.5886C10.4842 93.0534 7.26172 97.7163 7.26172 101.832V110.055C7.26172 114.166 10.4793 116.275 14.4733 114.908C18.726 113.448 23.0081 112.11 27.3191 110.89C28.8327 110.465 30.068 111.383 30.068 112.921V118.282C30.068 119.81 28.8376 121.417 27.3288 121.876C23.1932 123.14 19.082 124.517 14.9953 126.006C15.1027 124.4 15.2101 122.798 15.3176 121.192C12.8824 122.077 10.4556 122.999 8.03883 123.962C7.84346 127.858 7.64809 131.749 7.45772 135.645C14.9916 132.618 22.6422 129.977 30.3719 127.715C34.444 126.524 37.7837 122.325 37.7837 118.204V109.708C37.7837 105.597 34.4483 103.019 30.3859 104.113Z" fill="#FADA63"/>
<path d="M132.305 85.2665C133.491 84.29 134.677 83.3281 135.864 82.376C130.737 81.6289 125.591 81.0381 120.43 80.6133C120.459 80.6474 120.483 80.6817 120.508 80.7158C120.483 80.6914 120.459 80.6718 120.43 80.6474C120.508 82.0292 120.581 83.4158 120.659 84.7976C119.468 86.0036 118.281 87.2194 117.09 88.4401C119.629 88.6159 122.163 88.8307 124.697 89.0846C124.614 87.5076 124.526 85.9354 124.443 84.3583C127.07 84.622 129.687 84.9198 132.305 85.2665Z" fill="#FDC82F"/>
<path d="M151.979 85.3105C151.887 86.7313 151.794 88.157 151.701 89.578C150.388 90.5398 149.079 91.5115 147.766 92.4929C150.275 92.986 152.775 93.5182 155.265 94.0845C155.47 90.3103 155.671 86.536 155.876 82.7617C154.577 83.6015 153.278 84.4512 151.979 85.3105Z" fill="#FDC82F"/>
<path d="M140.805 117.763C140.683 117.738 138.759 117.421 137.089 117.172C138.119 116.2 139.144 115.234 140.165 114.272V86.4315C142.787 86.8611 145.404 87.3348 148.011 87.8474C149.32 86.9783 150.623 86.119 151.927 85.2694C146.717 84.1562 141.488 83.2138 136.239 82.4375V117.046C134.481 116.783 132.548 116.524 131.322 116.368C130.101 117.339 128.876 118.321 127.65 119.312C133.578 119.976 139.486 120.855 145.37 121.948C145.004 119.624 144.642 117.305 144.276 114.986C143.119 115.899 141.967 116.832 140.805 117.764" fill="#FDC82F"/>
<path d="M59.2184 86.5232C60.4049 85.2 61.5864 83.8866 62.7729 82.5781C57.6461 83.3545 52.5389 84.2919 47.456 85.3905C47.4804 85.4198 47.5048 85.4443 47.5341 85.4735C47.5048 85.4589 47.4804 85.4394 47.456 85.4246C47.5341 86.7868 47.6024 88.1492 47.6757 89.5065C46.5087 91.0641 45.3369 92.6314 44.1699 94.2084C46.665 93.6323 49.16 93.0952 51.6648 92.602C51.5818 91.0493 51.4988 89.5015 51.4157 87.9537C54.0133 87.4312 56.611 86.9577 59.2184 86.5232Z" fill="#FDC82F"/>
<path d="M78.953 80.7C78.8554 82.1502 78.7625 83.6003 78.6698 85.0554C77.3417 86.4078 76.0136 87.775 74.6855 89.147C77.2197 88.8882 79.7537 88.6685 82.2926 88.4878C82.4977 84.6501 82.7028 80.8172 82.9079 76.9844C81.5895 78.2148 80.2713 79.4501 78.953 80.7Z" fill="#FDC82F"/>
<path d="M67.1436 116.566C67.0167 116.586 65.6739 116.762 64.0041 117.006C65.0295 115.727 66.0597 114.457 67.085 113.193V85.3524C69.7022 85.0008 72.3192 84.6932 74.9412 84.4295C76.2595 83.165 77.5827 81.915 78.9011 80.6797C73.6376 81.124 68.3838 81.7441 63.1492 82.5302V117.134C61.3964 117.393 58.9306 117.798 57.7099 118.008C56.4941 119.346 55.2783 120.693 54.0625 122.051C59.9265 120.947 65.8198 120.059 71.7331 119.38C71.362 117.168 70.9958 114.956 70.6296 112.745C69.4675 114.014 68.3057 115.282 67.1436 116.566Z" fill="#FDC82F"/>
<path d="M192.153 124.039C191.006 124.718 189.849 125.401 188.697 126.099C188.789 127.691 188.882 129.278 188.975 130.87C184.326 128.844 167.286 123.458 165.006 123.043C163.805 123.844 162.603 124.654 161.402 125.475C171.993 128.18 182.457 131.597 192.71 135.718C192.524 131.827 192.334 127.931 192.153 124.039Z" fill="#FDC82F"/>
<path d="M184.916 102.821C186.185 102.045 187.455 101.278 188.715 100.521C188.808 99.1151 188.895 97.704 188.988 96.2978C190.243 95.6435 191.493 94.999 192.743 94.3594C192.552 98.1044 192.357 101.844 192.162 105.589C189.755 104.628 187.343 103.705 184.916 102.821Z" fill="#FDC82F"/>
<path d="M166.505 92.2265C167.667 91.4257 168.824 90.6298 169.981 89.8388C168.985 89.5459 167.984 89.2627 166.988 88.9844C165.851 89.79 164.708 90.6054 163.57 91.4354C164.547 91.6942 165.528 91.9579 166.505 92.2265Z" fill="#FDC82F"/>
<path d="M166.504 109.474C167.666 108.668 168.823 107.872 169.98 107.086C168.984 106.793 167.983 106.505 166.987 106.227C165.835 107.032 164.682 107.843 163.535 108.668C164.526 108.932 165.513 109.195 166.504 109.474Z" fill="#FDC82F"/>
<path d="M185.127 98.2048C186.411 97.5505 187.7 96.9011 188.979 96.2664C182.832 93.9081 176.622 91.8037 170.353 89.9531C170.353 101.486 170.353 113.024 170.348 124.557C171.632 123.986 172.911 123.424 174.185 122.872V111.745C176.969 112.614 179.737 113.537 182.496 114.508C183.023 112.438 183.55 110.373 184.078 108.307C182.891 109.006 181.7 109.719 180.508 110.436C178.414 109.714 176.304 109.025 174.185 108.361V94.4991C177.857 95.6514 181.504 96.8866 185.127 98.2048Z" fill="#FDC82F"/>
<path d="M117.493 115.003C115.872 114.886 114.246 114.788 112.625 114.705C111.448 115.774 110.267 116.848 109.09 117.932C112.771 118.064 116.443 118.279 120.115 118.582C120.447 116.35 120.779 114.124 121.106 111.902C119.905 112.923 118.699 113.958 117.493 115.003Z" fill="#FDC82F"/>
<path d="M112.829 114.518C113.943 113.512 115.051 112.511 116.164 111.52C115.959 110.504 115.759 109.484 115.549 108.464C116.276 108.512 117.004 108.561 117.727 108.61C118.064 106.384 118.391 104.152 118.718 101.926C117.536 102.961 116.355 104.006 115.173 105.06C109.314 104.704 103.44 104.553 97.5712 104.611C96.873 105.744 96.1748 106.877 95.4766 108.019C100.74 107.922 106.004 107.995 111.262 108.234C111.785 110.329 112.307 112.423 112.829 114.518Z" fill="#FDC82F"/>
<path d="M100.598 83.1707C101.682 82.0428 102.77 80.9198 103.854 79.8066C101.286 79.7676 98.7228 79.7676 96.1595 79.8066C93.2397 91.3882 90.315 103.018 87.3952 114.698C85.9597 114.776 84.5339 114.859 83.0985 114.957C81.8973 116.167 80.6913 117.383 79.4902 118.609C83.162 118.306 86.8386 118.081 90.5201 117.945C93.352 106.305 96.1839 94.7131 99.0159 83.1711L100.598 83.1707Z" fill="#FDC82F"/>
<path d="M110.3 104.635C111.463 103.619 112.625 102.604 113.782 101.603C111.546 93.2045 109.3 84.8358 107.058 76.4961C105.989 77.5947 104.925 78.7079 103.855 79.8212C106.004 88.0632 108.152 96.3389 110.3 104.635Z" fill="#FDC82F"/>
<path d="M15.3133 121.195C15.2107 122.802 15.0984 124.403 14.991 126.01C13.7264 127.606 12.4667 129.213 11.207 130.829C11.2899 129.154 11.3778 127.489 11.4608 125.814C12.745 124.267 14.0291 122.723 15.3133 121.195Z" fill="#FDC82F"/>
<path d="M37.7739 118.211V109.716C37.7739 107.499 36.8071 105.741 35.2788 104.75C34.2877 105.819 33.3014 106.898 32.3151 107.987C33.2623 108.778 33.8483 109.96 33.8483 111.483V117.235C33.8483 120.848 30.9382 124.183 27.3788 125.272C21.9452 126.937 16.5494 128.787 11.2081 130.833C9.95303 132.424 8.6982 134.03 7.45312 135.651C14.987 132.624 22.6376 129.983 30.3673 127.722C34.4394 126.53 37.7742 122.331 37.7742 118.21" fill="#FDC82F"/>
<path d="M17.1316 93.9882C13.6113 95.2333 11.1309 98.7634 11.1309 102.372V107.371C11.1309 109.144 11.6387 110.296 12.747 110.989C13.6601 109.882 14.5682 108.783 15.4764 107.685C15.0565 107.338 14.788 106.791 14.788 106.083V101.005C14.788 99.4723 15.9989 97.7878 17.493 97.2605C21.3064 95.9178 25.1441 94.6678 29.0062 93.5155C30.2854 92.0019 31.5696 90.498 32.8537 89.0039C27.5706 90.4882 22.3266 92.1474 17.1316 93.9882Z" fill="#FDC82F"/>
<path d="M27.6888 107.792C24.0757 108.808 20.4821 109.901 16.9079 111.088C15.2722 111.63 13.7879 111.63 12.665 111.078C11.6836 112.294 10.7022 113.519 9.7207 114.745C10.9902 115.428 12.6453 115.536 14.4667 114.916C18.7194 113.456 23.0015 112.118 27.3124 110.897C28.1425 110.668 28.8797 110.848 29.3876 111.307C30.3641 110.194 31.3358 109.086 32.3122 107.987C31.238 107.192 29.9592 107.104 27.6888 107.792Z" fill="#FDC82F"/>
<path d="M28.7598 98.2875C30.0147 96.7641 31.2744 95.2505 32.5341 93.7516C32.6415 92.1843 32.744 90.617 32.8514 89.0496C34.1355 87.5556 35.4197 86.0761 36.7087 84.6016C36.5085 88.4687 36.3083 92.3405 36.1081 96.2076C33.6522 96.8619 31.2011 97.5551 28.7598 98.2875Z" fill="#FDC82F"/>
</svg>
