<svg width="200" height="200" viewBox="0 0 200 200" fill="none" xmlns="http://www.w3.org/2000/svg">
<path fill-rule="evenodd" clip-rule="evenodd" d="M79.6368 34.6641C80.8978 40.5993 78.3548 46.2835 73.4025 49.5853C69.5928 52.1254 67.4144 52.4813 59.4209 51.8032C50.7071 51.0636 40.1168 42.9268 34.1113 34.665L79.6368 34.6641Z" fill="#553A84"/>
<path fill-rule="evenodd" clip-rule="evenodd" d="M49.8547 163.128C36.6089 155.851 28.3105 145.42 28.3105 133.833C28.3105 111.843 58.2012 94.0156 95.0715 94.0156C107.692 94.0156 119.583 96.0412 129.65 99.6719C128.395 102.165 127.819 105.157 127.494 107.526C123.879 106.499 117.913 105.46 113.258 105.427C96.8672 104.931 79.7982 109.979 72.4386 125.595C66.7015 136.868 69.0117 152.068 77.6361 161.292L79.5385 163.279L79.5347 163.488C71.8846 166.866 61.3039 167.676 53.2412 164.513L49.8547 163.128Z" fill="#553A84"/>
<path fill-rule="evenodd" clip-rule="evenodd" d="M132.058 96.4363C139.036 86.4413 151.652 82.8317 157.967 86.626C162.94 89.6133 165.059 95.0523 163.22 101.683C163.107 102.089 162.735 103.073 162.778 103.413C162.906 104.386 164.599 103.624 167.477 100.11C168.106 99.3438 170.06 96.6402 171.328 94.1164C171.54 93.9827 171.743 94.1943 172.021 94.2011C173.753 94.4473 175.549 94.9724 177.358 94.8743C181.065 91.0098 189.446 74.5026 191.393 67.5613C191.653 66.6322 191.815 66.2062 190.038 64.9366C174.711 53.9875 153.496 48.2043 133.064 45.0477C133.064 45.0477 132.693 45.0381 132.686 44.838C132.674 44.4552 133.146 44.4235 133.424 44.361C133.424 44.361 145.112 44.6889 145.303 44.6889C145.494 44.6889 145.803 44.5822 145.928 44.4542C146.056 44.3273 146.157 43.7348 145.884 43.5194C132.474 37.5072 114.697 31.5816 83.2621 34.0909L83.188 34.2977C84.0623 38.8345 82.181 44.6014 80.7556 47.0328C77.877 51.9418 71.1521 56.1093 62.0093 55.7284C52.8665 55.3475 40.0045 48.9218 32.5583 39.0307L32.0754 38.8816C25.0236 40.3262 18.4478 42.6115 11.6546 44.9659L11.6133 127.148C20.305 109.744 43.8093 95.008 73.118 90.7165C95.3374 87.4647 115.65 89.9942 130.27 96.745C130.27 96.745 130.854 97.0643 131.245 96.9768C131.817 96.8527 132.058 96.4363 132.058 96.4363Z" fill="#553A84"/>
<path fill-rule="evenodd" clip-rule="evenodd" d="M129.982 152.781C127.008 146.912 120.824 142.836 113.849 142.836C106.358 142.836 99.763 147.425 97.07 154.009C91.1376 149.386 87.1914 142.744 87.1914 135.324C87.1914 121.364 100.378 110.047 116.642 110.047C120.385 110.047 123.97 110.479 127.264 111.572C127.675 115.871 130.07 119.347 133.84 121.297C142.756 125.911 150.187 121.725 156.839 113.137C156.839 113.137 157.087 112.725 157.314 112.643C157.663 112.517 157.949 112.698 157.984 113.212C158.08 115.232 157.479 117.232 157.019 119.169C156.357 120.822 155.903 122.55 155.174 124.131C156.666 125.832 158.581 127.196 159.863 129.031C153.341 138.371 138.228 149.101 129.982 152.781Z" fill="#553A84"/>
</svg>
