<svg width="200" height="200" viewBox="0 0 200 200" fill="none" xmlns="http://www.w3.org/2000/svg">
<path d="M115.917 122.736C117.652 121.48 119.402 120.324 121.114 119.243C119.79 121.731 119.463 123.93 119.288 125.17C119.288 125.17 119.278 125.225 119.276 125.237C118.558 125.586 117.61 126.158 116.423 127.223C115.228 128.304 114.422 129.536 113.95 130.32C112.809 130.574 111.812 130.88 111.173 131.644C110.785 132.109 110.663 132.595 110.443 133.485C110.248 134.269 109.982 135.35 109.56 136.285C109.432 136.569 109.316 136.823 109.207 137.062C108.643 136.417 108.013 135.738 107.351 135.129C106.346 134.201 105.076 133.272 104.01 132.534C106.628 130.191 111.924 125.64 115.956 122.719M115.498 24.563C110.918 24.7836 107.889 27.7131 106.444 29.4099C101.087 27.6902 95.4106 27.7283 90.3887 29.5628C82.3993 32.4542 79.8883 37.1718 78.8992 39.1501C77.8643 39.3259 76.1904 39.7748 74.6534 41.1741C74.0287 41.7425 73.1087 43.0003 71.5413 45.184C70.0575 47.2461 68.2086 49.8103 67.2118 50.7614C64.2215 53.5843 62.8975 54.0256 61.2159 53.9191C60.1431 53.8466 59.1996 54.559 58.9713 55.6083C58.9437 55.7415 58.9299 55.88 58.9299 56.0245C58.9299 57.9344 61.3039 60.7725 63.2213 61.4878C64.0887 61.8096 64.8953 62.0006 65.6258 62.1148C65.466 62.6109 65.3252 63.1267 65.2332 63.6289C65.1069 64.3092 64.699 65.7518 64.3429 67.0301C63.7456 69.1454 63.4146 70.3324 63.4146 71.139C63.4146 71.7903 63.6345 72.189 64.1139 72.6227C64.5788 73.0412 65.0802 73.1865 65.5672 73.1843C65.4348 73.7146 65.2795 74.28 65.0863 74.8811C64.7827 75.8246 64.158 77.0648 63.6558 78.0616C63.1308 79.104 62.6514 80.0552 62.6514 80.8998C62.6514 81.4879 62.8881 82.0183 63.5113 82.4824C63.7814 82.6825 64.3026 83.0371 65.7939 82.9793C65.7445 83.0607 65.6501 83.2174 65.6501 83.2174C64.9843 84.2675 64.4859 85.0512 64.4859 85.8577C64.4859 86.137 64.5446 86.4193 64.6754 86.7176C64.8915 87.2053 65.2712 87.547 65.7407 87.7904C65.1837 88.2196 64.6982 88.7492 64.3863 89.3883C64.1481 89.8821 64.0287 90.4079 64.0287 90.9329C64.0287 91.4176 64.1291 91.8993 64.33 92.371C64.562 92.9105 64.8489 93.3298 65.1669 93.6722C64.8595 93.8023 64.5643 93.9309 64.2843 94.0587C62.8462 89.0292 60.9896 86.4954 58.7678 86.5258C58.3387 86.5327 57.7939 86.611 57.2536 86.8378C57.1007 86.3904 56.9531 85.9552 56.8283 85.5899L55.938 83.0333C52.9097 74.8917 50.1628 75.12 49.265 75.1961C46.442 75.3954 45.704 78.1712 45.5518 80.8419C45.0192 80.3032 44.38 79.9821 43.5506 80.043C43.0949 80.074 42.7288 80.2142 42.3941 80.3938C41.9086 79.3665 41.3745 78.347 40.8266 77.5708L40.4964 77.0968C38.8757 74.7685 36.6615 71.5727 33.6864 72.813C31.2439 73.8326 30.6047 76.1533 30.6047 78.7175C30.6047 80.2849 30.8444 81.9437 31.0628 83.4655C31.1891 84.3481 31.3573 85.2916 31.5429 86.2352C31.3474 86.1707 31.1518 86.0921 30.9547 86.0662C29.996 85.9407 29.0982 86.2504 28.4134 86.9413C27.4166 87.9457 27.0818 89.0642 27.0818 90.1371C27.0818 91.4914 27.6076 92.785 27.9873 93.7209C27.9873 93.7209 28.1912 94.2329 28.2193 94.3045C28.1836 94.3217 28.1515 94.3355 28.1143 94.3551C26.2273 92.605 23.4957 90.6647 21.0684 91.9735C20.2238 92.4292 19.6379 93.1833 19.3716 94.1572C19.2636 94.5506 19.2164 94.9714 19.2164 95.4127C19.2164 98.3878 21.3849 102.154 21.8795 102.968C22.1238 103.373 22.5978 104.209 23.0741 105.061C22.4905 105.268 21.8871 105.683 21.5447 106.545C21.4017 106.899 21.3401 107.255 21.3401 107.61C21.3401 108.599 21.8361 109.565 22.4662 110.41C21.6977 110.562 21.0662 110.981 20.6553 111.749C19.3998 111.353 16.067 110.555 15.1235 112.837C15.0155 113.098 14.9668 113.365 14.9668 113.636C14.9668 115.63 17.6223 117.775 18.7941 118.628C18.6457 118.934 18.543 119.258 18.543 119.602C18.543 119.755 18.558 119.909 18.589 120.062C18.8926 121.553 20.438 122.664 23.7936 124.574C23.7936 124.574 23.9732 124.678 24.1466 124.779C24.1259 124.847 24.0937 124.9 24.0787 124.974C24.0408 125.154 24.0224 125.327 24.0224 125.499C24.0224 127.645 26.8377 129.083 27.8116 129.578C27.8116 129.578 27.9867 129.659 28.2324 129.777C27.5476 130.812 27.1215 131.915 27.0226 133.102C27.0111 133.245 27.0053 133.385 27.0053 133.525C27.0053 136.271 29.2575 138.333 31.5098 138.577C31.5159 138.577 31.6445 138.591 31.8469 138.602C31.9044 138.899 31.9861 139.212 32.1337 139.69C32.1383 139.705 32.3544 140.306 32.7448 140.984C32.0691 141.074 31.2534 141.226 30.211 141.48C28.0044 142.019 24.8391 143.161 23.1423 143.778L22.2976 144.079C19.2236 145.16 19.0182 146.438 18.9497 146.856C18.9313 146.971 18.9221 147.085 18.9221 147.2C18.9221 147.85 19.2211 148.471 19.7439 148.882C19.9006 149.004 20.0611 149.095 20.2217 149.166C17.4368 150.832 16.2879 153.655 16.2879 155.603C16.2879 155.828 16.3028 156.043 16.3327 156.241C16.4727 157.184 16.6523 157.892 16.8091 158.402C16.6386 158.99 16.5131 159.687 16.5131 160.479C16.5131 162.008 16.9582 163.827 18.3316 165.577C21.1089 169.13 26.7776 170.614 31.2669 170.507C34.6148 170.426 36.5018 169.9 37.453 169.625C42.6423 171.329 48.4099 171.854 54.6492 171.162C61.2918 170.421 67.4323 168.05 70.0954 166.901C70.9857 167.66 72.2488 168.339 73.8543 168.407C77.7501 168.574 80.086 164.747 81.8437 160.989C82.5293 159.528 83.0459 158.371 83.4568 157.42C83.679 157.628 83.9065 157.827 84.1424 158L84.5829 158.328C85.7471 159.195 87.0634 160.184 88.8896 159.849C89.6246 159.717 90.1755 159.367 90.5864 158.944C91.0247 159.258 91.5223 159.598 92.1615 159.986L92.4308 160.15C93.3667 160.717 94.2798 161.269 95.1624 161.687C94.9981 161.902 94.8345 162.114 94.6731 162.354C92.5883 165.466 91.9263 168.236 91.9263 170.344C91.9263 171.904 92.2855 173.113 92.6948 173.844C93.5014 175.282 94.6579 175.389 95.1145 175.366C95.3169 175.358 97.0928 175.22 97.2297 173.121C97.3104 171.904 98.9113 170.154 100.243 168.898C101.156 168.038 101.97 167.498 102.609 167.148C103.036 167.924 103.583 168.807 104.2 169.53C105.052 170.526 106.452 171.226 107.479 171.736C107.479 171.736 107.812 171.909 107.982 171.997C108.05 172.083 108.134 172.188 108.134 172.188C108.933 173.231 110.599 175.399 114.191 175.437C117.79 175.474 122.256 171.899 124.311 169.358C126.799 166.268 128.108 163.347 128.656 161.931C130.101 161.148 133.122 159.162 137.406 154.497C144.452 146.812 147.526 137.834 148.135 136.16C149.261 132.637 149.816 129.783 149.816 127.486C149.816 125.895 149.549 124.579 149.017 123.491C147.906 121.216 146.331 120.234 145.038 119.892C143.843 118.066 140.822 114.231 135.831 113.219C134.507 112.949 133.274 112.817 132.102 112.79C134.035 111.724 135.481 110.91 136.341 110.294C137.17 109.7 143.729 104.838 143.729 99.413C143.729 98.7731 143.638 98.1271 143.437 97.4803C142.387 94.1019 139.488 92.6638 137.106 92.0399C137.179 91.7165 137.232 91.3832 137.232 91.0279C137.232 90.7365 137.204 90.4367 137.144 90.1224C136.973 89.2322 136.592 88.5245 136.064 87.9615C140.439 87.7408 145.575 87.2226 150.445 86.0821C157.323 84.4918 161.325 83.0689 164.521 81.9352C165.99 81.4163 167.253 80.9688 168.592 80.5732C171.712 79.6449 174.177 79.0133 175.493 78.6709C176.802 78.3346 176.939 78.2996 177.274 78.0759C177.93 77.6376 178.324 76.8965 178.324 76.1204C178.324 76.0744 178.322 76.0276 178.32 75.9804C178.269 75.1662 177.798 74.4586 177.057 74.0858C177.055 74.0843 176.74 73.9427 176.74 73.9427C172.509 72.1318 168.674 69.948 166.239 68.4414C163.622 66.8436 161.103 64.9337 159.247 63.4348C161.484 62.9128 164.177 62.3543 165.821 62.2401C172.098 61.8148 176.169 63.0315 177.615 63.5793C179.616 64.3341 180.879 65.5272 180.894 65.5348L183.192 67.7262L184.265 64.7435C184.429 64.2824 188.161 53.33 177.539 41.9166C167.19 30.8075 151.592 29.1335 140.939 32.3293C139.425 30.9901 136.336 28.4715 133.81 27.7715C129.952 26.7063 127.548 27.2731 126.125 28.0097C124.04 26.7162 119.703 24.403 115.548 24.6085" fill="white"/>
<path d="M115.918 26.8651C110.599 27.1215 107.7 31.925 107.7 31.925C107.7 31.925 107.439 32.0277 107.019 31.8771C105.01 31.1542 98.7252 29.1074 91.4206 31.7469C82.2137 35.0949 81.0724 40.8777 80.4637 41.2582C80.2507 41.3799 78.1582 41.2713 76.3472 42.9169C75.2135 43.9441 70.9677 50.5259 68.9361 52.5042C65.9153 55.3576 63.9979 56.3924 61.388 56.2174C60.8729 56.1829 62.575 59.1773 64.249 59.8012C66.9806 60.8132 68.9894 60.3217 68.9894 60.3217C68.9894 60.3217 67.8937 62.4978 67.5665 64.2479C67.2431 65.998 65.5806 71.134 65.8012 71.3242C66.0166 71.519 67.148 70.8083 67.498 70.7003C67.8435 70.593 68.5176 70.3381 68.5176 70.3381C68.5176 70.3381 68.332 72.7273 67.361 75.7481C66.674 77.8786 64.7968 80.8766 65.0479 81.0592C65.3356 81.2707 66.6687 81.1311 67.4296 81.0023C68.1844 80.8722 69.385 80.5633 69.385 80.5633C69.385 80.5633 68.9004 82.4123 68.472 83.2721C68.039 84.1319 66.7675 85.8668 66.8741 86.1179C66.9408 86.2685 68.2209 86.6558 70.4199 86.3453C72.3373 86.0737 73.8972 85.2192 73.8972 85.2192C73.8972 85.2192 73.4764 85.9953 73.2755 86.5051C73.086 86.9906 72.9696 88.0421 72.7314 88.2171C72.4933 88.3899 69.9009 88.5854 68.9346 88.8495C67.6715 89.1926 65.8986 90.3028 66.5378 91.7865C67.2226 93.3768 68.5009 93.1561 71.4988 93.5442C74.4967 93.933 75.212 94.2998 75.212 94.2998C75.212 94.2998 75.1758 94.2998 75.1752 94.2998C75.1388 94.3318 73.8513 95.4715 74.5034 96.4607C75.16 97.4651 77.2882 97.5336 78.323 97.5716C79.3198 97.6107 79.6927 97.4019 79.784 97.5817C79.8913 97.7879 79.4424 97.9667 79.2034 98.4415C78.9676 98.9132 79.1276 100.001 81.197 100.382C84.7047 101.031 87.7787 101.06 88.3646 101.089C88.9528 101.119 89.2397 101.255 89.2397 101.325C89.2397 101.531 89.1156 101.386 86.9798 101.57C85.1536 101.727 81.8818 101.757 80.3372 101.452C78.3056 101.05 77.9479 100.296 77.9099 99.7708C77.8789 99.3576 78.0377 98.5838 77.9882 98.5229C77.9399 98.4642 74.5947 99.2427 73.5446 97.6783C72.2207 95.7152 73.6907 94.3836 73.7843 94.2999C72.6354 94.3165 71.0907 94.389 69.3863 94.739C66.883 95.2541 63.2383 97.2499 63.2383 97.2499C63.2383 97.2499 61.3208 88.804 59.1142 88.804C57.0446 88.835 57.3261 91.3225 57.1055 91.2921C56.687 91.2403 55.1119 86.0952 54.3206 83.9647C53.5368 81.857 51.5585 77.3144 49.7248 77.4438C47.891 77.5724 47.8073 80.8678 47.9366 84.1473C48.0652 87.4267 48.0006 90.8432 47.9143 90.8432C47.8284 90.8432 46.9404 89.2529 46.1263 86.5669C45.4338 84.2994 44.7414 82.2374 44.0109 82.2907C42.687 82.385 42.7403 85.6386 42.6261 85.593C42.5181 85.5492 40.9217 81.0352 39.4532 78.9427C37.9846 76.8503 36.3487 74.2556 34.7889 74.91C32.4225 75.8991 32.8486 79.4982 33.404 83.3559C33.9991 87.4876 35.5422 93.3237 35.5422 93.3237C35.5422 93.3237 31.867 86.9017 30.1778 88.6137C28.6789 90.1279 29.8438 92.1899 30.4678 93.8411C31.1168 95.5607 32.1189 97.151 32.02 97.2271C31.6274 97.5421 30.3536 95.9868 29.4938 96.3444C28.5731 96.7218 29.0457 97.9499 28.8729 97.9271C28.7002 97.9053 24.5586 92.8139 22.3444 94.0085C20.1226 95.2107 23.3184 101.085 23.9423 102.15C24.5685 103.185 26.5979 106.86 26.6435 106.967C26.6861 107.074 25.8217 107.118 25.1978 107.161C24.5716 107.204 23.9727 107.043 23.7673 107.558C23.6014 107.971 23.7542 108.867 25.4565 110.617C27.1609 112.367 28.2794 113.264 28.1577 113.424C27.886 113.775 23.2194 111.826 22.7173 113.036C22.3954 113.812 23.4721 114.763 23.4721 114.763C23.4721 114.763 21.7296 114.424 20.5046 114.016C19.0665 113.535 17.5066 113.475 17.3392 113.879C17.1399 114.359 19.2643 116.549 20.7709 117.523C24.0427 119.639 24.6362 119.357 24.6971 119.486C24.7615 119.616 20.7557 119.076 20.9231 119.898C21.1224 120.88 24.6667 122.744 25.7928 123.413C26.9113 124.083 29.4071 125.163 29.3462 125.27C29.2806 125.378 28.6766 125.27 27.9842 125.27C27.2925 125.27 26.5004 125.236 26.4091 125.646C26.3216 126.057 26.8885 126.878 29.0646 127.989C31.0354 128.994 31.9332 129.26 31.8952 129.367C31.8514 129.475 29.6049 130.926 29.3919 133.513C29.2374 135.362 30.8604 136.641 32.0474 136.77C33.2344 136.899 34.079 136.684 34.079 136.684C34.1296 138.358 34.0864 138.244 34.4198 139.332C34.7432 140.39 35.5916 141.173 35.6145 141.173C35.6363 141.173 35.4425 141.714 35.2492 142.125C35.0545 142.534 34.9023 143.251 34.9023 143.251C34.9023 143.251 34.2661 142.936 31.0141 143.731C28.4803 144.35 24.5236 145.838 23.329 146.272C22.0964 146.704 21.1605 147.353 21.3583 147.505C21.5561 147.657 22.1801 147.547 23.1084 147.742C24.0367 147.936 26.4335 148.609 27.5976 148.715C28.7618 148.823 29.713 148.932 29.713 148.932C29.713 148.932 29.6833 149.189 29.7051 149.492C29.7258 149.794 29.7553 150.183 29.7553 150.183C29.7553 150.183 29.2592 150.464 28.8041 150.831C28.3507 151.197 27.9824 151.691 27.9824 151.691C27.9824 151.691 25.0225 149.499 22.1539 150.869C19.2092 152.276 18.5701 155.145 18.7223 156.18C18.9696 157.839 19.3462 158.63 19.3462 158.63C19.3462 158.63 17.9309 161.521 20.3049 164.55C22.5572 167.426 27.5715 168.78 31.5662 168.689C35.8196 168.586 37.4936 167.715 37.8588 167.738C38.2255 167.759 44.4025 170.515 54.7507 169.359C63.1967 168.415 70.9578 164.649 70.9578 164.649C70.9578 164.649 72.0307 166.498 74.2829 166.589C76.0862 166.666 77.9124 165.486 80.3321 160.35C82.7517 155.214 83.1854 153.608 83.1854 153.608C83.1854 153.608 84.4257 155.624 85.7192 156.576C87.0127 157.527 87.8041 158.257 88.8845 158.059C89.965 157.864 90.1324 156.119 90.3226 156.096C90.5174 156.074 91.1216 156.971 93.5869 158.463C95.4511 159.589 97.574 160.935 98.5479 160.456C98.9124 160.278 97.8601 158.105 97.8601 158.105L98.3965 158.35C98.3828 158.279 98.6058 158.812 99.3248 159.37C99.9959 159.893 100.854 160.044 100.854 160.13C100.854 160.216 98.6248 160.907 96.7302 163.737C92.9333 169.406 94.5844 173.629 95.3681 173.553C95.881 173.531 94.4779 172.077 99.1802 167.648C101.851 165.137 103.959 164.787 103.959 164.787C103.959 164.787 104.948 167.062 106.12 168.439C106.934 169.391 108.927 170.167 109.574 170.578C110.222 170.988 111.164 173.591 114.558 173.629C117.213 173.655 121.246 170.6 123.08 168.31C126.261 164.353 127.379 160.701 127.379 160.701C127.379 160.701 130.62 159.499 136.282 153.358C142.163 146.959 145.412 139.358 146.554 135.782C148.304 130.296 148.54 126.727 147.55 124.673C146.15 121.819 144.172 122.093 144.172 122.093C144.172 122.093 141.372 116.653 135.802 115.519C130.742 114.492 126.519 115.152 123.704 119.719C121.383 123.554 121.931 126.704 121.33 126.948C120.726 127.184 119.74 127.554 118.203 128.934C116.673 130.318 115.806 132.152 115.676 132.282C115.548 132.41 113.592 132.614 113.15 133.141C112.936 133.399 112.653 135.485 111.834 137.311C110.228 140.887 109.909 140.918 109.909 140.918C109.909 140.918 108.182 138.521 106.348 136.824C104.476 135.105 101.387 133.21 101.257 133.058C101.127 132.906 101.193 132.971 101.301 132.777C101.408 132.582 109.443 125.335 115.149 121.211C123.823 114.934 133.03 110.635 135.541 108.885C138.045 107.089 143.105 102.333 141.864 98.3844C140.807 94.9832 136.979 94.1767 135.123 93.9864C135.116 93.9925 134.529 94.4939 134.042 94.793C133.762 94.9665 133.183 95.1278 133.259 95.2685C133.307 95.3568 133.94 95.2812 135.693 95.7319C137.444 96.1816 138.669 97.5961 137.847 99.2549C136.82 101.325 133.525 102.907 131.151 103.447C127.171 104.353 124.029 104.182 124.059 104.284C124.085 104.387 124.625 104.644 124.95 105.646C125.319 106.795 124.044 108.173 122.697 108.583C121.769 108.867 118.383 108.493 118.398 108.853C118.403 108.981 120.133 111.136 116.998 112.574C114.967 113.51 109.724 114.057 106.65 113.837C103.272 113.596 102.503 113.695 102.518 113.412C102.531 113.125 104.953 113.064 112.486 112.278C117.348 111.77 117.675 110.658 117.599 109.965C117.523 109.273 116.412 108.421 116.351 108.276C116.287 108.135 116.287 107.903 116.815 107.928C117.342 107.954 120.018 107.89 121.806 107.375C123.366 106.926 123.884 106.089 123.83 105.587C123.779 105.084 122.385 104.027 122.179 103.913C121.973 103.798 121.806 103.416 122.385 103.412C123.892 103.399 129.013 102.362 132.049 101.608C135.1 100.848 136.903 99.143 137.017 98.1082C137.096 97.4181 135.8 96.5331 133.837 96.2516C131.828 95.9686 131.067 95.9937 131.06 95.6977C131.054 95.5645 131.919 95.0425 132.422 94.8226C132.916 94.6058 134.065 93.94 134.103 93.9172C134.103 93.9172 134.086 93.9161 134.086 93.9161C134.086 93.9161 135.875 92.6986 135.509 90.7964C135.208 89.2365 133.873 88.3083 128.129 88.0876C123.83 87.9255 121.349 88.0115 121.326 87.991C121.304 87.9691 121.499 87.4507 121.607 86.979C121.715 86.5049 121.779 85.9442 121.801 85.967C121.823 85.9888 136.943 87.4812 150.411 84.3691C160.226 82.094 164.031 80.207 168.444 78.883C173.245 77.4526 176.433 76.7297 176.586 76.646C176.715 76.56 176.808 76.3196 176.592 76.2123C176.376 76.1027 171.776 74.2644 165.635 70.4903C160.233 67.188 155.287 62.7292 155.287 62.7292C155.287 62.7292 162.683 60.7356 166.092 60.5074C172.293 60.0873 176.592 61.1861 178.723 61.9759C181.196 62.9118 182.702 64.3803 182.702 64.3803C182.702 64.3803 186.301 54.2604 176.41 43.6839C166.746 33.3357 151.528 31.3574 140.724 34.9336C140.724 34.9336 136.463 30.8628 133.586 30.0639C128.131 28.5497 126.518 30.8164 126.518 30.8164C126.518 30.8164 120.956 26.7304 116.017 26.9739L115.918 26.8651ZM134.027 93.824C134.04 93.8238 134.423 93.8179 135.039 93.8808C135.039 93.8808 135.043 93.8775 135.043 93.8775C135.043 93.8775 134.692 93.8432 134.564 93.8329C134.409 93.8202 134.049 93.8128 134.049 93.8128C134.049 93.8128 134.031 93.8237 134.03 93.8239L134.027 93.824ZM73.764 94.2919C74.4473 94.282 75.1336 94.2811 75.1564 94.2819C75.1569 94.2814 75.1631 94.2763 75.1631 94.2763C75.1631 94.2763 74.702 94.2562 74.3794 94.2562C74.0583 94.2562 73.7806 94.2763 73.7806 94.2763C73.7806 94.2763 73.767 94.2893 73.764 94.2919ZM108.994 46.1272C111.497 46.1474 114.327 48.5392 114.327 48.5392C114.327 48.5392 111.193 47.025 109.397 48.5124C107.791 49.844 108.78 51.8984 108.78 51.8984C108.78 51.8984 109.846 52.2355 110.881 52.5162C111.885 52.7879 113.125 53.2429 113.125 53.2429C113.125 53.2429 112.364 53.4925 111.474 53.6355C110.355 53.8128 109.853 54 109.853 54C109.853 54 112.486 57.7816 115.765 57.8653C117.881 57.9194 119.098 55.7957 119.098 55.7957C119.098 55.7957 119.575 57.7588 117.356 58.7632C115.454 59.6306 111.816 58.1499 109.138 55.4837C106.391 52.7673 104.573 48.2552 107.373 46.5813C107.876 46.2746 108.438 46.1529 109.009 46.1574L108.994 46.1272ZM62.4266 105.858C63.3625 105.858 64.3898 105.889 65.2267 105.914L66.5127 105.946L70.0432 105.857C70.7668 105.857 71.1389 106.108 71.1389 106.601C71.1389 106.725 71.0962 107.342 70.2486 107.342C69.993 107.342 69.8416 107.368 69.519 107.422C69.0959 107.5 68.8897 107.647 68.8326 108.639C68.7763 109.56 68.7758 110.359 68.7758 114.795V115.025C69.2186 114.559 69.7954 113.967 70.4193 113.313C71.9487 111.73 73.6759 109.934 74.1781 109.348L74.3007 109.205C74.8736 108.529 75.5257 107.766 75.5257 107.47C75.5257 107.404 75.5202 107.377 75.5157 107.359C75.5065 107.359 75.4968 107.356 75.4922 107.355C75.2852 107.309 74.7374 107.188 74.7374 106.595C74.7374 106.318 74.8607 105.851 75.6885 105.851L77.0353 105.891L78.6941 105.939L84.2791 105.937L87.8553 105.851C88.1323 105.851 88.9738 105.851 88.9738 106.595C88.9738 106.77 88.9065 107.335 88.0227 107.335C87.748 107.335 87.6004 107.36 87.2694 107.415C86.8463 107.493 86.6394 107.639 86.5815 108.632C86.524 109.545 86.5247 110.344 86.5247 114.773V118.843C86.5247 123.051 87.3617 124.603 88.6248 125.631C89.7813 126.582 90.9607 126.711 91.9575 126.711C92.6332 126.711 94.3391 126.571 95.6326 125.281C97.0631 123.85 97.1772 121.431 97.1772 118.41V114.773C97.1772 110.344 97.1779 109.553 97.1216 108.632C97.0698 107.765 96.9237 107.559 96.2313 107.415C96.0715 107.375 95.6454 107.341 95.303 107.341C94.4204 107.341 94.329 106.823 94.329 106.601C94.329 106.109 94.6966 105.857 95.4247 105.857C96.0205 105.857 97.0759 105.872 98.6966 105.941C98.6966 105.941 98.7609 105.943 98.7734 105.943C98.7826 105.943 99.5952 105.919 99.5952 105.919C100.336 105.893 101.353 105.858 102.091 105.858C102.815 105.858 103.179 106.109 103.179 106.601C103.179 106.877 103.049 107.341 102.175 107.341C101.898 107.341 101.75 107.366 101.419 107.421C100.996 107.5 100.791 107.646 100.735 108.639C100.678 109.552 100.677 110.351 100.677 114.779V117.891C100.677 121.323 100.323 124.808 97.7476 127.022C95.4649 128.985 93.1518 129.229 91.3865 129.229C90.0626 129.229 86.9657 129.229 84.6069 127.098C82.7351 125.409 81.8601 122.845 81.8601 119.033V114.787C81.8601 110.366 81.8608 109.567 81.8021 108.646C81.7377 107.535 81.4004 107.444 81.0336 107.444C80.2651 107.444 78.8955 108.608 77.6552 109.742C76.7878 110.541 73.0518 114.285 71.6898 115.692C73.1964 117.305 79.7553 124.366 79.7553 124.366C79.7553 124.366 83.1109 128.011 83.1337 128.034C84.2522 129.107 85.5838 130.271 86.9838 130.819C87.9654 131.21 88.536 131.349 88.7415 131.349C89.3365 131.349 89.6013 131.707 89.6013 132.063C89.6013 132.831 88.7415 132.839 88.4219 132.839H85.8805C84.9903 132.839 84.4576 132.839 83.8261 132.779C82.1141 132.62 81.2314 131.911 79.9455 130.762L79.9254 130.745C79.9254 130.745 69.5011 119.255 68.8163 118.494V119.978C68.8163 122.649 68.817 124.947 68.9031 126.187C68.9779 127.229 69.3794 127.29 69.5415 127.321C69.9174 127.376 70.5458 127.433 70.9035 127.433C71.4962 127.433 71.7633 127.802 71.7633 128.145C71.7633 128.274 71.7127 128.922 70.7285 128.922C69.7393 128.922 68.6893 128.89 67.8371 128.865L66.5283 128.832L65.1739 128.867C64.4054 128.892 63.5228 128.922 62.8532 128.922C61.8945 128.922 61.7879 128.381 61.7879 128.145C61.7879 127.979 61.8563 127.433 62.7391 127.433C63.0609 127.433 63.363 127.4 63.6978 127.325C63.9245 127.279 64.0463 126.967 64.1612 126.138C64.3042 124.944 64.3042 122.646 64.3042 119.982V114.846C64.3042 110.41 64.3038 109.611 64.2462 108.691C64.1945 107.831 64.04 107.61 63.356 107.466C63.1894 107.424 62.7519 107.392 62.3364 107.392C61.4538 107.392 61.3624 106.874 61.3624 106.651C61.3624 106.467 61.3632 105.908 62.481 105.908L62.4266 105.858ZM45.763 112.698C46.0453 112.751 46.3763 113.733 46.6532 114.357C46.9469 115.024 48.3805 116.541 49.5142 117.659C50.6556 118.785 52.2458 120.315 52.3295 120.261C52.4109 120.212 52.4437 118.679 52.4597 117.56C52.4758 116.442 52.5913 113.801 52.7549 113.817C52.9185 113.833 55.6463 119.211 56.5594 120.855C57.4344 122.437 59.0323 124.865 58.5149 125.192C58.3277 125.309 57.7463 124.525 57.3887 123.921C57.0311 123.319 55.7832 121.319 55.205 120.49C54.3756 119.287 53.531 117.591 53.4473 117.659C53.3659 117.725 53.3172 119.09 53.3339 119.577C53.3501 120.064 53.4153 121.517 53.3339 121.806C53.2525 122.1 52.8941 122.132 52.732 121.984C52.5684 121.838 51.8723 121.155 51.4309 120.797C50.9911 120.438 50.0613 119.709 49.171 118.91C48.2732 118.111 46.3025 115.783 46.2264 115.836C46.145 115.885 46.275 117.221 46.323 117.951C46.3725 118.684 45.9951 119.481 45.7836 119.511C45.572 119.543 43.6683 118.522 42.5498 117.906C41.4236 117.286 39.7344 116.201 39.6203 116.277C39.5061 116.359 40.5638 117.693 41.5225 119.595C42.2119 120.957 42.3291 121.885 42.0544 122.098C41.7782 122.31 40.6087 121.76 39.6347 121.467C38.6608 121.174 37.9303 120.881 37.8923 120.979C37.8589 121.075 38.8662 122.128 39.3913 122.82C40.1073 123.764 40.5174 124.35 40.5326 124.624C40.5487 124.9 40.3043 124.998 40.0768 125.112C39.8493 125.226 39.4087 125.273 38.5626 125.307C37.718 125.339 36.63 125.371 36.6908 125.485C36.7553 125.599 37.9082 126.771 39.1333 127.73C41.1116 129.289 41.7356 129.86 41.9182 129.974C42.0978 130.087 42.4729 130.152 42.4234 130.543C42.4039 130.692 42.0978 130.836 41.9182 130.868C41.7401 130.902 41.1497 131.275 40.5486 131.617C39.9475 131.959 38.7224 132.545 38.8061 132.644C38.8898 132.743 42.6943 133.702 44.178 133.862C45.3346 133.989 46.4608 133.925 46.5368 134.253C46.6013 134.545 45.935 134.756 45.3955 135.036C44.8568 135.313 43.6226 135.741 43.7367 135.866C43.8669 136.013 46.8107 137.121 50.9272 137.213C55.5458 137.323 56.0709 136.597 56.4589 136.741C56.7686 136.855 56.7854 137.1 56.4757 137.263C54.9082 138.085 52.0396 138.511 48.7906 138.237C45.7166 137.972 42.0415 136.16 42.0415 135.931C42.0415 135.816 42.5786 135.59 42.8556 135.426C43.1318 135.264 43.9818 134.857 43.5389 134.808C43.1006 134.759 41.4541 134.648 39.4529 133.948C37.9083 133.41 35.7701 132.761 35.8082 132.624C35.8576 132.43 36.3302 132.624 38.8213 131.468C39.9627 130.94 40.891 130.441 40.8377 130.365C40.7894 130.283 39.3083 129.581 37.505 127.808C36.2343 126.56 34.5755 124.635 34.6897 124.536C34.8038 124.439 35.7473 124.52 36.5767 124.504C37.4061 124.488 38.4333 124.422 38.5931 124.406C38.7551 124.388 38.9583 124.181 38.9583 124.019C38.9583 123.855 38.7041 123.626 37.9539 122.452C37.2052 121.28 35.5951 119.507 35.6941 119.393C35.7922 119.279 37.1245 119.784 38.38 120.222C39.6355 120.662 40.6247 121.12 40.8377 121.036C41.0508 120.953 40.3819 119.476 39.6355 117.863C39.0002 116.494 37.1626 114.112 37.3452 114.074C37.4913 114.042 39.917 115.603 41.7736 116.471C43.2498 117.156 45.0607 118.016 45.2053 117.917C45.3529 117.818 45.2553 117.316 45.222 115.687C45.1898 114.059 45.2718 112.811 45.6778 112.697C45.6961 112.692 45.7147 112.691 45.7335 112.695L45.763 112.698ZM59.2309 126.622C59.3975 126.601 59.9476 127.391 59.9476 127.657C59.9476 128.01 59.0422 130.526 58.8367 131.523C58.6282 132.519 58.0682 136.484 58.0682 136.484C57.8027 136.35 57.0638 134.878 57.2693 133.44C57.4762 132.002 58.3041 129.278 58.5476 128.471C58.7941 127.657 59.0711 126.638 59.2362 126.615L59.2309 126.622ZM100.091 134.026C100.144 134.017 100.175 134.036 100.18 134.084C100.256 134.71 97.4636 138.809 96.7256 140.065C95.986 141.32 93.8418 146.121 93.4233 147.369C93.0056 148.625 93.5192 149.134 92.74 149.287C91.9639 149.437 91.1878 147.993 90.6171 146.875C90.048 145.756 90.1058 142.362 90.1058 142.362C90.1058 142.362 88.3709 145.467 87.7546 146.479C87.1101 147.544 84.7871 151.988 84.224 151.508C83.7317 151.09 86.8035 145.589 87.5263 144.166C88.2492 142.743 90.8819 137.592 91.5134 137.805C92.1785 138.032 91.3613 141.054 91.5134 144.204C91.6116 146.213 92.5559 147.544 92.5939 147.354C92.6249 147.2 93.1258 144.333 95.2723 140.179C97.0452 136.747 99.5941 134.114 100.096 134.031L100.091 134.026ZM116.755 137.199C117.248 137.197 117.911 137.235 118.68 137.348C120.217 137.572 121.503 138.057 121.571 138.231C121.571 138.231 121.296 138.958 121.053 139.585C120.81 140.209 120.447 140.985 120.308 141.023C120.169 141.058 119.425 141.023 117.333 140.435C115.24 139.846 114.7 140.141 114.7 140.037C114.7 139.932 114.925 139.002 115.149 138.447C115.374 137.894 115.651 137.412 115.842 137.305C115.937 137.253 116.262 137.21 116.755 137.207L116.755 137.199ZM57.4808 137.817C57.4808 137.817 57.967 138.2 57.862 139.483C57.757 140.769 57.5257 141.888 57.5257 142.375C57.5257 142.861 57.7228 143.904 57.6885 144.041C57.654 144.18 57.5029 144.257 56.9277 144.324C56.3707 144.388 56.0222 144.494 56.0222 144.494C56.0222 144.494 56.5442 142.751 56.6484 142.234C56.7519 141.712 56.3699 140.735 56.5434 139.555C56.6811 138.619 57.4869 137.813 57.4869 137.813L57.4808 137.817ZM44.8499 141.195C44.8499 141.195 45.1284 141.404 45.1634 141.646C45.198 141.891 45.3734 142.833 45.4769 143.282C45.5819 143.734 45.8604 144.431 45.8604 144.431C45.8604 144.431 45.0614 144.85 44.3995 145.092C43.7382 145.337 43.144 145.614 43.007 145.579C42.8678 145.544 42.6593 144.673 42.7643 144.361C42.8678 144.048 42.9035 143.387 42.9035 143.212C42.9035 143.039 43.3198 142.621 43.8775 142.17C44.4345 141.718 44.8514 141.196 44.8514 141.196L44.8499 141.195ZM49.7805 147.214C49.7905 147.214 49.7984 147.216 49.804 147.219C49.8922 147.275 50.2795 147.672 50.5451 148.018C50.8106 148.362 51.3136 149.091 51.2527 149.144C51.131 149.266 50.7444 149.442 50.3244 149.576C49.9044 149.708 49.1374 150.044 49.0842 150.039C48.9624 150.029 48.3233 149.31 48.1254 149.043C47.9261 148.777 47.3569 148.198 47.4178 148.122C47.4845 148.045 48.4146 147.714 48.7266 147.615C49.0165 147.521 49.6396 147.204 49.7842 147.21L49.7805 147.214Z" fill="#0051BA"/>
<path d="M116.678 28.3845C116.021 28.3854 115.316 28.4487 114.563 28.5838C110.865 29.2443 108.674 32.9666 108.674 32.9666C108.674 32.9666 111.04 34.4351 112.501 35.2188C113.871 35.9531 114.449 36.1852 115.514 36.2917C116.579 36.3975 117.614 36.3929 117.698 36.7109C117.768 36.9811 117.21 37.6469 116.412 37.6545C114.342 37.6717 114.875 37.8645 107.966 34.2913C101.833 31.1184 96.7047 32.0542 96.6286 32.0695C95.9438 32.1752 89.3469 32.8456 85.063 36.924C82.7499 39.123 81.9053 41.5959 81.9661 42.022C82.0826 42.7981 82.4668 42.9807 82.721 43.6731C82.9454 44.2819 82.9332 45.4384 82.5886 45.3776C82.1533 45.3039 81.4548 43.0568 79.6667 43.0188C78.7004 43.0015 77.3384 42.9568 74.6676 47.1885C72.9252 49.9582 70.5892 52.705 69.6533 53.6637C68.725 54.6224 66.1228 56.7606 65.301 57.0725C63.7259 57.663 63.4139 57.2886 63.3074 57.475C63.2001 57.6615 64.0759 58.9588 66.4195 59.1414C69.4707 59.3735 71.9132 57.4522 72.0502 57.5207C72.1019 57.5483 69.9957 61.0969 69.4174 62.6568C68.7813 64.384 68.5576 65.5177 68.2152 66.5449C67.8964 67.5113 67.713 68.5233 67.5084 68.8581C67.4056 69.0285 70.0878 68.2646 71.8835 66.9254C73.9836 65.3579 74.9423 63.9731 74.9423 63.9731C74.9423 63.9731 74.8 66.2254 73.0096 67.6026C71.3204 68.9037 70.1258 69.3222 69.6997 69.9462C69.6206 70.0611 69.5879 72.4267 68.9609 74.4583C67.85 78.0801 66.7543 79.7237 66.7543 79.7237C66.7543 79.7237 68.5576 79.7027 71.0914 78.0573C73.5567 76.4594 74.5991 75.3333 74.5991 75.3333C74.5991 75.3333 74.8038 76.7105 73.0621 78.2399C71.6012 79.5182 70.9392 79.7465 70.787 79.9367C70.7064 80.0448 70.3693 81.7553 70.049 82.6684C69.5788 84.0151 68.7479 85.088 68.8696 85.263C69.0043 85.4502 71.3577 84.9761 74.0437 83.1249C75.847 81.8846 77.8558 80.5911 77.8558 80.5911C77.8558 80.5911 76.5318 82.3868 75.5807 84.4488C74.4089 86.9902 73.8154 88.3979 73.9676 90.0567C73.9756 90.1525 75.6187 89.2273 77.1025 88.7175C78.2514 88.3226 79.6211 87.9566 81.1657 86.2141C82.2842 84.9587 83.5625 83.4445 83.5625 83.4445C83.5625 83.4445 82.8823 85.1489 82.6114 86.7467C82.3458 88.3446 82.3078 90.711 82.5041 90.9241C82.6068 91.0344 86.3923 88.7251 87.5641 87.3859C89.3978 85.2858 90.9729 82.3564 90.9729 82.3564C90.9729 82.3564 91.0794 82.5184 91.1053 82.7064C91.1317 82.8928 90.775 86.5793 90.8899 87.9337C91.0299 89.5621 91.1152 89.9958 91.2308 92.0959C91.2619 92.6551 91.1965 93.0622 91.3297 93.1459C91.4621 93.2265 91.6554 92.9382 92.1895 92.6977C92.7237 92.458 96.2299 91.1531 98.1854 89.4107C101.609 86.3595 102.355 84.4496 102.355 84.4496C102.355 84.4496 101.623 88.3074 101.571 89.677C101.482 91.9444 101.76 95.6119 102.026 95.7946C102.294 95.981 103.457 94.8739 104.925 94.0293C105.645 93.6177 107.033 92.8879 109.346 89.7607C110.8 87.7975 111.865 86.4127 112.032 86.3671C112.209 86.3187 111.089 89.327 111.081 90.3085C111.073 91.4118 111.605 93.1619 111.888 93.9304C112.112 94.5391 112.166 94.8663 112.345 95.7185C112.345 95.7185 114.917 93.2227 116.484 91.564C120.038 87.8128 119.817 85.6899 119.817 85.6899C114.536 85.1085 109.545 83.3843 106.425 82.2658C98.2836 79.3135 93.7182 75.5699 89.0006 71.1567C86.2614 68.5925 85.3559 65.975 85.9418 64.6282C86.2835 63.8369 87.0832 63.5173 87.0832 63.5173C87.0832 63.5173 83.1189 58.8759 83.72 54.6909C84.0723 52.2408 87.5777 51.2821 94.0682 52.5376C102.438 54.1355 110.884 58.8606 110.884 58.8606C110.884 58.8606 107.673 56.6312 106.418 54.866C105.162 53.1083 104.523 51.7234 104.523 51.7234C104.523 51.7234 102.347 52.0772 100.072 51.483C97.789 50.8872 95.6357 50.4406 94.0073 47.5872C93.5128 46.7198 94.1549 47.0401 94.8519 47.9349C94.9037 48.0017 95.4119 48.4554 96.1302 48.4942C97.0357 48.5448 99.7902 48.1099 103.891 44.5299C108.152 40.8015 111.805 37.9938 114.316 38.983C116.849 39.9721 117.755 42.3385 116.264 44.2864C114.772 46.2343 114.422 47.0333 114.422 47.0333C114.422 47.0333 114.981 47.381 115.807 48.2355C116.636 49.0877 117.542 49.9171 117.542 49.9171C117.542 49.9171 120.448 46.2648 127.662 41.6233C134.913 36.959 138.467 35.6503 138.467 35.6503C138.467 35.6503 137.264 33.6491 134.091 32.1806C131.908 31.1686 130.234 30.9555 129.298 31.0621C128.574 31.1458 127.707 31.5003 127.669 31.9903C127.648 32.2803 128.108 32.5625 128.78 32.9034C129.594 33.3143 130.15 33.4147 130.256 33.6293C130.364 33.8424 130.559 34.3316 130.381 34.3529C129.483 34.461 128.487 34.0874 128 33.8165C126.744 33.118 123.83 31.0621 121.745 29.8751C120.155 28.9696 118.565 28.4065 116.586 28.4065L116.678 28.3845ZM146.429 65.364C146.311 65.3624 146.184 65.3782 146.049 65.4242C144.185 66.0619 140.563 67.3265 138.562 68.0569C136.515 68.8026 131.287 71.131 130.268 71.5114C129.225 71.885 128.875 72.1452 128.541 72.1566C127.65 72.1888 126.897 72.4267 127.354 72.7037C127.431 72.7509 133.06 72.7874 136.789 72.7093C141.316 72.6165 147.517 72.5898 147.974 72.5487C148.593 72.4981 149.572 72.0793 151.672 71.0117C153.825 69.916 154.289 69.8475 154.662 69.7334C155.235 69.5538 154.9 69.4382 154.9 69.4382V69.4371C154.776 69.3541 152.815 68.6853 151.103 67.8164C149.71 67.1102 147.017 65.5413 147.017 65.5413C147.017 65.5413 146.761 65.3769 146.407 65.3716L146.429 65.364ZM117.135 133.693C115.362 133.752 114.319 134.122 114.152 134.216C113.887 134.368 113.034 136.719 112.714 137.686C112.391 138.652 110.865 141.863 110.827 142.03C110.789 142.198 110.751 142.543 110.769 142.676C110.789 142.808 110.827 142.921 110.864 142.978C110.903 143.035 111.035 143.263 111.111 143.396C111.187 143.529 111.244 143.661 111.359 143.681C111.471 143.699 114.806 143.807 117.278 144.325C120.444 144.99 122.605 146.266 122.803 146.205C123.24 146.072 123.429 143.777 124.758 141.137C125.542 139.593 126.79 137.226 126.919 137.036C127.051 136.847 127.051 136.751 127.051 136.751C126.747 136.221 124.076 134.636 121.093 134.035C119.533 133.721 118.209 133.646 117.144 133.682L117.135 133.693ZM117.72 136.021C118.178 136.034 118.625 136.068 118.998 136.134C120.573 136.414 123.092 137.519 123.252 137.671C123.252 137.671 123.252 137.804 123.176 137.918C123.1 138.032 122.479 139.432 122.057 140.421C121.525 141.677 121.106 143.115 120.992 143.1C120.879 143.08 119.174 142.225 116.952 141.639C114.372 140.955 112.987 141.581 112.812 141.315C112.75 141.219 113.495 139.474 113.741 138.751C113.988 138.03 114.616 136.263 114.745 136.187C114.844 136.13 116.343 135.976 117.72 136.015L117.72 136.021ZM50.6849 144.315C50.4308 144.247 50.1645 144.856 49.6197 145.388C49.2088 145.79 47.9761 146.164 47.5957 146.117C46.9527 146.042 46.6445 145.852 46.6445 145.852C46.6445 145.852 45.9925 146.116 44.7119 146.902C43.426 147.685 42.6574 148.401 42.7031 148.652C42.8903 149.709 43.0227 149.366 44.5901 151.102C46.1576 152.837 47.0326 154.336 47.1468 154.389C47.2571 154.444 49.6805 153.111 51.7045 152.464C54.4818 151.566 57.2134 151.262 57.4189 151.094C57.5064 151.025 56.2395 149.017 55.0905 147.868C54.3327 147.11 53.5687 146.567 53.4013 146.506C52.871 146.329 52.5415 146.458 52.2828 146.307C51.6855 145.953 50.8371 144.999 50.8295 144.786C50.818 144.575 50.8362 144.351 50.6933 144.314L50.6849 144.315ZM50.0884 146.164C50.2208 146.185 51.0471 147.039 51.633 147.663C52.2082 148.282 53.2841 149.854 53.2385 149.862C53.1947 149.873 51.6026 150.492 50.9634 150.706C50.3227 150.917 48.7492 151.612 48.6503 151.589C48.5498 151.567 47.6383 150.584 47.06 149.884C46.4406 149.132 45.4697 148.081 45.523 147.997C45.5782 147.909 47.2883 147.1 47.9122 146.833C48.5316 146.568 49.959 146.137 50.0884 146.16V146.164Z" fill="#E8000D"/>
<path d="M152.441 34.472C151.906 34.462 151.368 34.4665 150.82 34.4854C147.921 34.5866 144.877 35.1101 141.689 36.1518C129.895 40.0476 120.612 48.174 118.786 51.3697C118.473 51.9221 122.233 55.4938 119.469 58.7733C117.232 61.4288 112.85 59.6863 112.85 59.6863C116.662 62.1136 118.777 64.3963 119.005 64.8224C119.169 65.126 119.273 65.5483 119.273 65.5483C115.75 63.1058 112.539 61.0362 109.077 59.3774C107.761 58.7481 90.9677 51.1597 86.174 54.0663C83.4576 55.7023 87.6122 61.7514 88.5405 62.8927C89.9025 64.5439 93.3265 67.4505 96.3016 69.0332C98.3941 70.1593 98.4778 70.0528 98.5082 70.555C98.5231 70.7635 97.8462 71.0161 96.9864 70.8183C96.2331 70.6433 93.1895 68.9084 92.071 68.0181C90.9525 67.1279 88.7078 65.3779 88.7078 65.3779C88.7078 65.3779 87.9767 65.1085 87.6883 65.5551C86.798 66.9323 94.1863 75.599 104.808 79.86C116.298 84.4786 125.429 85.5667 141.94 84.0145C150.614 83.2003 159.441 79.7915 163.93 78.2773C166.997 77.2501 169.599 76.4968 169.599 76.3599C169.599 76.229 164.28 75.1881 158.642 74.6783C149.055 73.8185 143.88 74.2453 136.348 74.0817C125.695 73.8504 119.608 74.9035 109.031 72.9937C105.729 72.3986 102.039 70.9164 99.5963 68.9989C95.8679 66.0391 91.683 60.9334 93.1287 60.0965C94.5439 59.3051 96.2788 61.1693 96.9864 61.877C99.8854 64.776 99.6572 66.6934 99.6572 66.6934C99.6572 66.6934 103.302 72.0425 118.375 72.461C126.593 72.6923 131.006 68.824 138.082 66.4956C148.507 63.064 149.268 61.7781 162.051 59.366C175.138 56.8931 181.301 61.5726 181.301 61.5726C181.301 61.5726 183.729 51.5288 172.551 42.3219C167.286 37.9848 160.377 34.6369 152.387 34.4847L152.441 34.472ZM113.559 39.9581C113.031 39.8925 110.956 40.2236 106.863 43.6865C102.769 47.1486 101.521 48.1378 100.395 48.6019C99.2767 49.063 98.0897 49.2943 98.2191 49.4237C98.3515 49.5561 100.296 50.0757 101.217 50.1815C103.226 50.4128 104.382 50.0537 104.382 50.0537C104.382 50.0537 104.287 46.9797 105.836 45.6633C108.522 43.3806 113.292 45.9608 113.292 45.9608C113.292 45.9608 115.042 43.9901 115.469 43.0542C115.996 41.8976 115.732 41.2737 115.732 41.2737C115.336 40.216 114.081 40.0182 113.556 39.9574L113.559 39.9581ZM138.288 40.6193C139.384 40.554 140.008 41.031 140.266 41.4335C140.564 41.8923 141.385 43.1455 138.509 44.9564C135.632 46.7674 134.293 45.397 133.981 45.1322C133.667 44.8689 132.954 43.0169 135.785 41.4571C136.812 40.8925 137.641 40.6581 138.295 40.6201L138.288 40.6193ZM137.93 41.9966C137.468 42.0216 136.941 42.1913 136.507 42.5124C135.64 43.1546 134.719 43.844 135.237 44.4147C135.752 44.9808 137.07 44.4022 137.641 44.1248C138.207 43.8486 139.346 42.9302 138.965 42.3519C138.795 42.0939 138.399 41.9745 137.938 41.9996L137.93 41.9966ZM152.996 63.0734C152.996 63.0734 151.908 63.3899 151.101 63.6151C150.287 63.8419 148.659 64.2033 148.705 64.2931C148.749 64.3836 152.136 66.6899 153.316 67.1389C154.487 67.5908 156.565 68.4476 157.295 68.6302C158.018 68.8121 159.015 68.9467 159.015 69.1286C159.015 69.3089 157.66 69.8499 155.849 70.62C154.038 71.3885 152.235 72.3852 152.235 72.5222C152.235 72.6592 158.064 73.2002 160.833 73.519C163.633 73.8355 167.202 74.2875 168.107 74.4244C169.013 74.5599 169.956 74.8308 169.911 74.6953C169.866 74.5599 169.549 74.4237 168.602 74.0174C167.651 73.6103 164.037 71.3999 162.051 69.9998C160.065 68.5998 156.717 65.929 155.408 64.9855C154.099 64.0344 152.966 63.0909 152.966 63.0909L152.996 63.0734ZM132.832 116.336C130.07 116.228 127.544 117.15 126.228 118.421C122.598 121.929 122.796 126.715 122.796 126.715C122.796 126.715 124.188 126.626 125.231 127.416C125.866 127.899 126.129 128.709 125.99 128.762C125.6 128.915 124.499 127.819 122.163 128.208C119.234 128.701 117.118 131.838 117.255 132.074C117.414 132.357 119.416 131.995 122.931 132.896C125.945 133.672 128.699 135.566 129.019 136.266C129.124 136.496 127.961 137.377 126.021 141.258C124.742 143.814 124.187 146.447 124.004 148.083C123.953 148.546 120.634 145.915 116.639 145.367C112.385 144.781 110.909 144.968 110.171 145.216C109.713 145.37 109.03 145.066 108.901 144.945C108.712 144.774 108.721 144.358 108.721 144.381C108.721 144.267 107.382 144.246 107.374 144.26C107.208 144.567 109.467 146.649 110.053 148.178C111.407 151.747 111.704 154.577 111.316 154.684C110.909 154.796 107.99 153.603 106.758 152.995C103.159 151.222 102.649 150.324 102.329 150.415C102.089 150.484 102.51 152.454 103.007 153.588C103.598 154.935 105.009 156.502 104.43 156.868C103.854 157.234 102.642 157.085 100.534 156.107C98.7388 155.27 97.0724 154.6 97.0724 154.6C97.0724 154.6 96.959 155.947 97.1873 156.632C97.4855 157.522 97.8851 158.344 97.8851 158.344C97.8851 158.344 98.0311 158.481 98.2328 158.601C98.4344 158.722 99.1078 159.187 99.1078 159.187C99.1078 159.187 98.3872 158.51 98.2175 158.114C97.9756 157.541 98.216 157.384 98.3705 157.482C99.7477 158.349 100.524 158.752 102.053 158.813C103.978 158.896 104.929 158.103 105.196 157.033C105.602 155.397 104.366 153.776 103.872 153.38C103.367 152.981 103.073 152.904 102.867 152.581C102.666 152.26 102.548 151.676 102.829 151.676C103.111 151.676 104.937 152.749 105.751 154.187C106.68 155.831 106.588 157.862 105.751 158.79C104.686 159.97 103.575 160.236 103.575 160.236C103.575 160.236 104.017 160.598 104.503 161.081C105.112 161.683 105.082 162.039 105.18 162.382C105.242 162.6 106.443 161.983 107.204 161.499C107.965 161.017 108.573 159.658 109.121 160.092C109.594 160.467 109.144 161.705 108.094 162.412C106.991 163.159 105.606 163.782 105.598 164.216C105.589 165.273 106.489 167.039 107.554 167.868C109.235 169.169 111.183 169.58 111.853 169.458C113.261 169.203 117.91 167.548 121.669 162.146C123.639 159.293 123.578 157.603 123.578 157.603C123.578 157.603 122.62 157.158 122.483 156.774C122.384 156.499 127.048 155.267 131.461 149.934C133.949 146.951 134.824 145.003 136.126 140.346C136.735 138.17 136.397 135.842 136.902 135.804C137.202 135.782 137.408 136.831 137.446 137.516C137.487 138.199 137.221 139.395 137.538 139.136C138.885 138.018 141.685 135.18 142.484 130.995C143.503 125.638 143.625 121.179 137.812 117.755C136.199 116.804 134.464 116.363 132.805 116.302L132.832 116.336ZM144.626 123.755C144.159 124.062 145.303 126.509 144.132 130.999C142.275 138.098 138.029 140.662 137.618 141.347C137.294 141.86 135.085 147.594 132.863 150.402C130.664 153.148 128.64 154.876 125.025 157.014C124.387 157.392 124.953 157.889 124.929 158.208C124.905 158.525 124.084 162.629 120.485 165.969C114.976 171.067 112.191 170.756 111.811 171.144C111.641 171.315 112.96 172.27 114.276 172.14C115.555 172.019 119.625 170.094 122.95 165.384C125.606 161.632 126.101 158.756 126.146 158.558C126.244 158.095 126.391 157.947 126.83 158.237C127.005 158.352 127.208 158.972 127.415 158.895C129.248 158.217 134.301 153.911 138.904 147.253C142.229 142.429 145.265 134.622 145.965 131.426C146.939 126.96 145.989 124.091 144.938 123.741C144.794 123.697 144.695 123.697 144.628 123.741L144.626 123.755ZM38.8615 139.582C38.7786 139.602 38.424 140.479 37.9865 140.753C37.5482 141.025 37.5048 140.815 37.0886 141.255C36.6709 141.693 35.3386 143.659 36.9836 145.074C37.8815 145.851 39.5935 145.618 40.2631 145.389C40.9296 145.16 41.4577 144.27 41.1837 143.715C40.9327 143.213 40.3924 143.423 40.012 142.901C39.6361 142.379 39.5532 141.752 39.3005 141.211C39.0494 140.668 38.882 140.519 38.9262 140.275C39.0091 139.795 38.8626 139.585 38.8626 139.585L38.8615 139.582ZM33.4135 144.55C32.7241 144.612 31.5721 144.696 29.4416 145.301C27.3111 145.906 24.2599 146.762 24.2599 147.013C24.2599 147.219 28.6655 147.608 30.1493 147.577C32.1352 147.536 34.4331 146.618 34.7451 145.781C35.0578 144.944 34.0975 144.488 33.4059 144.549L33.4135 144.55ZM59.0557 145.76C59.0557 145.76 58.2035 145.76 57.3209 145.865C56.4458 145.969 55.3577 146.179 55.3577 146.179C55.3577 146.179 56.6969 147.533 57.5263 148.682C58.3633 149.831 59.4438 151.558 59.3449 151.9C59.2816 152.109 58.1578 151.651 52.7631 153.262C48.5249 154.533 46.4324 155.994 46.2878 156.032C46.1418 156.075 46.0162 155.157 45.4356 154.282C44.8513 153.407 44.2638 152.57 44.1801 152.57C44.0965 152.57 43.9922 154.632 43.3128 155.979C42.5937 157.402 41.8214 158.437 41.4029 158.109C40.817 157.651 42.0078 155.979 42.5519 154.472C42.9361 153.407 42.8227 151.155 42.8227 151.155C42.8227 151.155 42.3023 150.57 42.1973 150.57C42.0923 150.57 41.4059 152.427 40.6526 153.142C39.9016 153.853 38.9026 154.938 38.4993 154.352C38.1014 153.766 39.9374 152.747 40.5233 151.445C41.1092 150.152 41.5277 149.292 41.5657 147.877C41.6071 146.454 41.6487 146.538 41.5022 146.522C41.3561 146.502 40.2239 147.044 38.6793 147.022C36.5868 146.994 36.5487 146.398 36.3585 146.356C36.1698 146.313 35.9613 147.375 34.0226 148.129C32.5008 148.718 31.329 148.632 31.0779 148.928C30.8268 149.221 30.8276 150.746 31.3495 152.268C31.711 153.326 32.8714 155.152 32.1866 155.38C31.4652 155.622 31.2658 155.066 30.5354 153.288C30.0415 152.085 30.0126 151.766 29.9305 151.682C29.8468 151.598 29.5538 151.557 29.4077 151.64C29.2616 151.723 28.4871 152.644 28.3882 152.812C28.2892 152.979 28.9101 153.793 29.1642 154.189C29.4153 154.586 29.9784 155.612 29.7281 156.03C29.477 156.449 29.3103 156.49 29.1642 156.302C29.0181 156.113 28.2207 153.73 25.8467 152.376C23.1303 150.831 20.003 152.621 19.7063 155.214C19.3631 158.196 22.3542 161.407 27.8479 163.203C33.8209 165.143 37.3591 162.74 37.3591 162.74C37.3591 162.74 42.9137 165.768 53.4901 164.68C64.2949 163.569 68.0232 160.875 69.1646 159.978C70.3135 159.11 70.4581 158.578 70.3135 158.623C70.1675 158.665 68.5787 159.559 67.3461 158.393C65.1319 156.293 66.4026 151.727 66.1971 151.56C65.9917 151.392 65.421 151.725 64.7742 151.602C63.6862 151.391 63.3133 150.347 63.1003 150.37C62.7229 150.411 62.3888 152.226 60.7187 152.059C59.3643 151.923 58.7327 150.636 58.8088 148.406C58.8686 146.519 59.0705 145.797 59.0705 145.797L59.0557 145.76ZM112.319 151.802C112.703 151.829 113.194 152.073 113.673 152.699C114.746 154.099 113.973 157.265 113.12 157.242C112.328 157.224 113.045 155.827 113.083 155.477C113.094 155.366 113.241 154.793 112.88 153.803C112.53 152.844 111.449 152.722 111.594 152.205C111.658 151.965 111.939 151.777 112.324 151.805L112.319 151.802ZM20.25 160.324C20.0636 160.235 18.9793 164.661 27.6002 166.928C29.959 167.552 34.4331 167.101 36.1983 166.559C37.6593 166.119 37.9256 165.804 38.0473 165.783C38.2589 165.747 38.5396 165.783 38.5396 165.925C38.5396 166.065 38.5586 166.311 38.5586 166.311C38.5586 166.311 42.9642 168.289 49.3633 168.183C55.7777 168.077 62.6029 166.79 67.6249 164.432C70.1206 163.252 70.288 163.024 70.3717 162.826C70.4592 162.631 70.5817 162.069 70.5642 161.822C70.5458 161.575 70.494 161.064 70.494 161.064H70.4929C70.4929 161.064 68.7656 162.35 61.7425 164.572C58.0674 165.736 53.677 166.474 46.6768 166.086C40.3994 165.74 38.4591 164.275 37.9265 164.184C37.4517 164.095 34.647 166.413 27.6544 164.518C22.0313 162.981 20.9585 160.69 20.1824 160.325L20.25 160.324ZM102.427 161.252C101.62 161.254 100.175 161.653 98.4398 163.656C96.119 166.327 95.2896 169.751 95.457 169.979C95.6244 170.208 95.8808 168.252 99.33 165.642C102.777 163.025 103.484 163.595 103.895 162.857C104.095 162.501 103.684 161.602 103.005 161.343C102.893 161.301 102.696 161.258 102.428 161.259L102.427 161.252Z" fill="#FFC82D"/>
</svg>
