<svg width="200" height="200" viewBox="0 0 200 200" fill="none" xmlns="http://www.w3.org/2000/svg">
<path d="M78.1539 65.1089H41.8572C32.0762 65.1089 23.3232 71.2195 19.9468 80.4129L0 134.877H52.5371L51.1239 138.749L69.0889 151.777H96.0638C108.01 151.777 118.69 144.327 122.819 133.097L123.186 132.087L127.278 134.895H158.161C168.107 134.895 176.989 128.674 180.365 119.316L200 65.1272H147.775L149.17 61.347L131.04 48.2266H103.808C92.9993 48.2266 81.8608 54.9795 78.1357 65.1089" fill="#FE5C00"/>
<path d="M24.6437 82.324L15.5604 107.06L21.0838 110.951H14.129L7.21094 129.778H59.7113L57.1239 136.843L70.6847 146.679H96.2285C106.137 146.679 114.982 140.458 118.359 131.136L120.818 124.346L128.8 129.796H158.069C165.886 129.796 172.841 124.897 175.502 117.575L192.769 69.9192H140.416L142.857 63.1663L129.332 53.3672H104.192C94.3384 53.3672 85.53 59.5145 82.1352 68.7631L81.7134 69.9192H42.4436C34.498 69.9192 27.3781 74.8738 24.6437 82.3422" fill="#231F20"/>
<path d="M132.782 75.476L136.599 65.0898L127.644 58.5938H104.101C96.5217 58.5938 89.7506 63.3281 87.1264 70.4481L78.1897 94.7804L103.018 114.525L97.9897 128.655H81.6764L86.1538 116.305H17.854L14.8262 124.545H67.2346L63.4362 134.913L72.3911 141.445H96.0996C103.587 141.445 110.266 136.784 112.854 129.756L121.9 105.149L97.2924 85.5688L102.449 71.3656H118.377L113.881 84.009H182.126L185.172 75.5126H132.782V75.476ZM58.3167 110.946C63.3078 110.946 67.7853 107.827 69.5102 103.129L77.7128 80.797L69.9141 75.0716H42.8472C36.8835 75.0716 31.5436 78.7968 29.4884 84.3935L21.8729 105.13L29.7636 110.91H58.3167V110.946ZM45.5265 80.4299H63.3814L54.3528 105.753H36.3881L45.5265 80.4299ZM156.528 114.782C155.537 117.534 152.932 119.369 150.014 119.369H136.82L147.867 89.1465H133.499L122.654 119.223L130.709 124.709H157.501C163.391 124.709 168.658 121.021 170.676 115.497L180.255 89.1647H165.722L156.528 114.8V114.782Z" fill="#FE5C00"/>
</svg>
