<svg width="200" height="200" viewBox="0 0 200 200" fill="none" xmlns="http://www.w3.org/2000/svg">
<g clip-path="url(#clip0_107_20163)">
<path d="M97.8133 51.7032C91.6439 51.7032 86.8696 52.0847 85.8777 52.171L85.5712 52.1899L84.5551 52.2481L83.8454 52.9806L69.2331 68.0243L68.4912 68.788V69.855V111.386V112.434L69.2089 113.194L82.9744 127.78L83.8534 128.704L85.1115 128.596L85.547 128.558C86.0873 128.514 91.0713 128.112 97.5471 128.112C101.854 128.112 105.789 128.288 109.257 128.641L109.66 128.697L110.967 128.867L111.886 127.927L126.225 113.226L126.967 112.457V111.386V99.5634V97.2134L124.636 96.9496L110.152 95.3166L107.233 94.9843V97.9279V103.792C106.152 104.867 104.265 106.751 103.176 107.837C101.442 107.77 99.652 107.736 97.8213 107.736C95.402 107.736 93.2568 107.798 91.6439 107.866C90.7245 106.897 89.3696 105.467 88.5148 104.572V77.0123C88.9664 76.5446 89.5793 75.9155 90.2325 75.2397C91.3697 74.0655 92.6035 72.7881 93.3777 71.984C94.902 71.9405 96.402 71.9179 97.8697 71.9179C99.3133 71.9179 100.749 71.9405 102.136 71.9824C103.402 73.2373 105.942 75.755 107.233 77.0405V82.114V84.4938L109.596 84.7285L124.08 86.1777L126.967 86.4673V83.5616V69.855V68.8009L126.241 68.0372L111.926 53.0943L111.217 52.3505L110.184 52.2859L109.902 52.2717C106.241 51.8929 102.168 51.7032 97.8133 51.7032ZM64.4588 53.3003L61.4862 53.6926L60.4451 53.8296C28.6649 58.0805 3.17343 69.2895 2.10406 69.7645L1.54212 70.0217L0 70.7209L4.02817e-05 72.4145V100.142V104.283L3.7488 102.521L5.05309 101.91C6.67762 101.141 11.1534 99.0931 17.7419 96.5656L18.3041 96.3608L20.042 95.7325V93.8881V84.6558C21.0331 84.3001 21.9896 83.9622 22.913 83.6404V121.855C20.6759 122.769 18.6234 123.638 16.6774 124.501L16.1339 124.738L14.5709 125.433V127.143V144.086V148.295L18.3549 146.448L19.6492 145.811C29.0711 141.295 38.822 137.392 48.6222 134.223L49.2286 134.045L51.1141 133.489V131.521V115.82V112.298L47.7334 113.3L46.5681 113.646C45.2786 114.017 43.9632 114.409 42.6414 114.818V77.7492C43.6915 77.4863 44.685 77.242 45.6342 77.0154V84.5034V87.8018L48.8472 87.0663L49.9706 86.8106C54.0359 85.8824 57.9142 85.1114 61.5005 84.5219L62.2626 84.3913L64.4586 84.0243V81.7985V56.299L64.4588 53.3003ZM130.531 53.5839V56.6459V71.8848V74.18L132.806 74.4937L133.604 74.6018L133.628 74.6066L133.66 74.6082C134.128 74.6631 134.991 74.7849 136.209 74.98V114.922V115.655L136.588 116.281L147.467 134.319L148.016 135.223L149.032 135.497L149.37 135.594C151.12 136.086 160.443 138.819 170.072 143.658L170.621 143.932L172.185 144.723L173.516 143.57L191.895 127.682L192.806 126.894V125.693V92.1867C193.476 92.5214 194.153 92.8617 194.831 93.2093L194.847 93.2173L194.863 93.2246L196.202 93.8972L200 95.7972V91.5423V75.005V73.3566L198.516 72.6381V72.6397L198 72.3889C190.782 68.7945 182.153 65.4759 172.387 62.5444L171.185 62.1952L167.822 61.2202V64.7202V80.4994V82.3946L169.621 82.9946C170.653 83.335 171.967 83.7688 173.008 84.1156V117.727C171.984 118.618 170.346 120.043 169.217 121.027C166.927 120.168 162.709 118.593 160.895 117.914C159.887 116.24 157.564 112.361 156.669 110.864V79.2801C158.241 79.6777 159.79 80.0696 159.911 80.0994L163.185 80.9261V77.5494V62.0202V59.9169L161.129 59.454L160.475 59.3081C148.403 56.3153 138.346 54.7415 134.588 54.2028L133.556 54.0469L130.531 53.5839Z" fill="#4D1979"/>
</g>
<defs>
<clipPath id="clip0_107_20163">
<rect width="200" height="200" fill="white"/>
</clipPath>
</defs>
</svg>
