<svg width="200" height="200" viewBox="0 0 200 200" fill="none" xmlns="http://www.w3.org/2000/svg">
<path d="M166.918 72.8255H147.888L147.916 100.833H122.438V133.435H135.103V178.183H65.3186V133.387H78.0124L78.0334 100.833H52.3513V72.8255H33.082V21.6016H166.918L166.918 72.8255Z" fill="black"/>
<path d="M141.532 94.3214H128.648L125.613 97.4124H144.482V72.7554L141.531 75.7198L141.532 94.3214ZM106.773 88.0062V148.988H106.823L109.949 146.002H109.934V90.858H116.235V139.674H128.985V171.861H71.7404L68.7478 174.818H132.048V136.787H119.333V90.8589H125.613L128.648 88.0069L106.773 88.0062ZM116.222 161.857H84.8692L81.7782 165.004H119.459V146.003H119.445L116.234 148.995H116.22L116.222 161.857ZM116.236 54.37V72.7545H119.334V57.5389H132.028L134.901 54.3707L116.236 54.37ZM160.801 66.0452H134.901L132.028 69.4031H163.864V24.957L160.801 28.3149L160.801 66.0452ZM65.6216 54.4333V66.0452H40.3189L36.7012 69.4031H68.6847V57.5382H81.7437L84.7924 54.4401L65.6216 54.4333ZM84.7919 90.8569H75.435V97.411H56.4337L59.3349 94.32H72.2886V88.0048H94.0935L91.0868 90.8568L84.7919 90.8569Z" fill="#CCCCCC"/>
<path d="M81.7734 146.01H91.0883V90.8657H84.7941V139.631H71.7351V171.868L81.7734 161.486V146.01ZM84.8644 149.045V161.865L90.9619 155.332H100.347V81.9434L94.088 88.0058V149.043L84.8644 149.045ZM109.964 146.003H119.454V148.673L128.987 139.758V139.681H116.223L109.922 146.01H109.943L109.964 146.003ZM84.7943 54.4495V72.7638H100.67V40.7587L84.7943 54.4495ZM147.913 40.7581L134.889 54.3791V66.0543L147.913 53.7188V40.7581ZM52.4673 40.7581H147.913L160.789 28.3242H40.3145V66.0534L52.4673 53.9497V40.7581ZM135.367 81.9438L128.645 88.0062V94.3284L135.367 88.0132V81.9438ZM116.219 149.017V148.996H106.812L100.349 155.332H110.142L116.219 149.017ZM65.9639 88.0132L59.3325 94.3284V75.7264H141.529L135.367 81.9438L65.9633 81.9432L65.9639 88.0132Z" fill="#E90802"/>
<path d="M81.7785 146.009V165.01L84.8695 161.863V149.043H94.093V88.005L91.0933 90.864V146.008L81.7785 146.009ZM116.22 148.994H116.235L119.445 146.009L119.452 146.001H109.969L109.948 146.009L106.822 148.994H106.815H116.22ZM128.647 88.0052L125.613 90.8642V97.4183L128.647 94.3273V88.0052ZM71.7387 139.63H84.7977V90.8646H81.6576V136.751H68.746V174.826L71.7387 171.868V139.63ZM100.674 72.7607H84.7981V54.4463L81.7423 57.5443V72.7599H56.4324V97.417L59.3337 94.326V75.724H141.531L144.474 72.7596L100.674 72.7607ZM36.6998 69.4098L40.3175 66.0519V28.3227H160.792L163.862 24.9648H36.6992L36.6998 69.4098ZM134.893 66.0519L132.02 69.4098V57.5449L134.893 54.3767V66.0519Z" fill="white"/>
<path d="M139.706 175.416V174.419H140.366C140.71 174.419 141.069 174.489 141.069 174.89C141.069 175.381 140.703 175.416 140.289 175.416H139.706ZM139.706 175.824H140.268L141.111 177.222H141.659L140.738 175.803C141.223 175.754 141.581 175.494 141.581 174.925C141.581 174.285 141.202 174.004 140.443 174.004H139.221V177.222H139.706V175.824ZM140.296 178.402C141.82 178.402 143.113 177.222 143.113 175.606C143.113 174.004 141.82 172.824 140.296 172.824C138.764 172.824 137.465 174.004 137.465 175.606C137.465 177.222 138.764 178.402 140.296 178.402ZM138.02 175.606C138.02 174.285 139.017 173.288 140.296 173.288C141.553 173.288 142.551 174.285 142.551 175.606C142.551 176.948 141.553 177.938 140.296 177.938C139.017 177.938 138.02 176.948 138.02 175.606Z" fill="white"/>
</svg>
