<svg width="200" height="200" viewBox="0 0 200 200" fill="none" xmlns="http://www.w3.org/2000/svg">
<g clip-path="url(#clip0_107_20159)">
<path d="M151.799 84.4004L155.852 67.119L131.766 49.412H106.94L113.689 20.4065L-0.00195312 20.3964L26.9712 42.8091L14.0295 98.4289L37.542 115.987H62.1301L59.3619 127.799L82.4036 145.772H105.835L97.695 180.758H143.129L149.133 154.961C149.133 154.961 152.086 156.513 154.81 154.227C157.105 152.301 156.635 149.356 156.635 149.356H175.411L181.823 121.789H191.301L200 84.4004H151.794H151.799Z" fill="white"/>
<path d="M12.7441 25.0551L31.9436 41.0102L19.0402 96.4611L38.9526 111.332H67.7765L64.3611 125.905L83.8622 141.115H111.476L103.33 176.099H139.67L146.976 144.696H171.952L178.364 117.131H187.84L194.372 89.0585H146.162L150.839 69.109L130.379 54.0701H102.225L101.177 54.6435L108.056 25.0623L12.7482 25.0547L12.7441 25.0551ZM151.553 146.17C149.416 146.17 147.73 147.872 147.73 150.049C147.73 152.226 149.416 153.952 151.529 153.952C153.633 153.952 155.303 152.226 155.303 150.049C155.303 147.872 153.642 146.17 151.553 146.17ZM151.504 146.952C153.142 146.952 154.359 148.347 154.359 150.073C154.359 151.775 153.142 153.178 151.553 153.154C149.908 153.154 148.674 151.775 148.674 150.049C148.674 148.347 149.908 146.952 151.504 146.952ZM151.504 148.065C150.9 148.065 150.424 148.138 150.093 148.178V152.065H150.94V150.525H151.343C151.819 150.525 152.045 150.71 152.109 151.114C152.222 151.589 152.295 151.92 152.408 152.065H153.303C153.23 151.92 153.142 151.702 153.029 151.114C152.924 150.597 152.738 150.291 152.383 150.17V150.122C152.811 149.976 153.142 149.67 153.142 149.194C153.142 148.823 152.988 148.533 152.762 148.372C152.512 148.178 152.198 148.065 151.504 148.065ZM151.44 148.726C151.972 148.726 152.222 148.96 152.222 149.315C152.222 149.718 151.843 149.888 151.367 149.888H150.964V148.775C151.053 148.751 151.214 148.726 151.44 148.726Z" fill="black"/>
<path d="M127.605 102.747H113.958L109.839 120.322H94.664L103.866 81.0835L96.3258 74.8419H120.5L117.229 88.7907H139.012L142.893 72.2481L128.181 61.4334H103.934L91.1426 68.434L99.6122 32.0383L68.6843 32.0413L76.2213 38.3041L63.957 91.0075H49.0646L62.7856 32.0379L31.8587 32.0318L39.3977 38.2963L26.5527 93.4997L41.064 104.336H66.6935L78.1876 97.6445L72.2718 122.89L86.1732 133.734H112.04L121.676 128.217L112.251 168.719H134.184L141.492 137.317H166.466L169.567 123.984H144.593L146.45 116.01L138.91 109.75H182.355L185.456 96.4215H120.08L127.603 102.747L127.605 102.747Z" fill="#B7A369"/>
<path d="M40.3757 35.1562L42.716 37.1014L29.8965 92.1942L32.5675 94.1886L45.5992 38.3918L58.2647 38.395L59.0155 35.1611L40.3757 35.1562ZM95.8451 35.1611L77.1972 35.1643C77.3674 35.3046 79.5384 37.1095 79.5384 37.1095L66.2704 94.1306H48.4306L47.6782 97.3661H68.6544L82.3771 38.3974L95.087 38.3958L95.8451 35.1611ZM104.652 64.5559L86.6756 74.3923L75.6085 121.631L78.265 123.704L89.3531 76.5964L105.418 67.7914H131.652L127.249 64.5559H104.652ZM123.507 74.9722L120.999 85.6861H124.136L126.652 74.9722H123.507ZM128.596 99.5444L130.934 101.494L116.015 165.616H119.152L133.789 102.776H180.935L181.693 99.5444H128.596ZM116.265 105.873L112.144 123.446H94.0306L93.2725 126.679H114.531L118.652 109.107H124.934L125.692 105.873H116.265ZM143.959 127.107L143.209 130.341H165.048C165.274 129.365 165.516 128.309 165.798 127.107H143.959Z" fill="white"/>
</g>
<defs>
<clipPath id="clip0_107_20159">
<rect width="200" height="200" fill="white"/>
</clipPath>
</defs>
</svg>
