<svg width="200" height="200" viewBox="0 0 200 200" fill="none" xmlns="http://www.w3.org/2000/svg">
<path d="M98.0386 25.7037V52.2805H106.272V113.475H93.7254V86.5189H101.951V59.9437H59.0245V86.5189H67.2526V113.475H54.4233V52.2805H62.647V25.7037H19.7227V52.2805H27.9507V123.146L44.9628 140.048H67.2532V157.388L84.2654 174.289H155.033L172.039 157.387V86.518H180.271V59.9429H137.344V86.518H145.576V147.714H93.7264V140.048H115.728L132.735 123.145V52.2799H140.967V25.703L98.0386 25.7037Z" fill="#BE0000"/>
<path fill-rule="evenodd" clip-rule="evenodd" d="M91.5659 19.2325V53.4725H69.1222V19.2324H13.25V58.7571H21.4781V125.842L42.2948 146.525H60.7806V160.085L81.5975 180.766H157.704L178.514 160.082V92.9946H186.747V53.4716H147.442V19.2317L91.5659 19.2325ZM180.273 59.9455V86.5207H172.04V157.389L155.034 174.292H84.2667L67.2545 157.391V140.051H44.9641L27.952 123.148V52.2832H19.7239V25.7063H62.6483V52.2832H54.4246V113.477H67.2538V86.5215H59.0258V59.9464H101.952V86.5215H93.7267V113.477H106.274V52.2832H98.0398V25.7063L140.968 25.7057V52.2826H132.736V123.148L115.73 140.05H93.7276V147.717H145.577V86.5207H137.345V59.9455H180.273ZM139.103 125.947L123.714 141.243H139.103V125.947Z" fill="white"/>
</svg>
