<svg width="200" height="200" viewBox="0 0 200 200" fill="none" xmlns="http://www.w3.org/2000/svg">
<path d="M11.625 17.1277V45.2697H29.0255C32.6654 45.2697 34.3516 45.4471 36.926 48.4655L37.9913 49.9761L73.1472 105.017C73.1472 105.017 74.3011 106.793 76.2542 106.793C78.3848 106.793 79.5387 105.017 79.5387 105.017L100.046 74.2995L121.351 104.928C121.351 104.928 122.595 106.704 124.371 106.793C126.324 106.881 127.389 105.017 127.389 105.017L162.011 49.9761L163.077 48.4656C164.852 45.6248 167.16 45.3586 170.8 45.3586L188.378 45.2698V17.1278H188.2H158.638H156.862C151.448 17.039 149.405 19.0806 147.807 21.5663L124.548 56.0123L102.353 22.2762L101.643 21.2109C101.643 21.2109 101.022 20.2345 99.9567 20.2345C98.8914 20.2345 98.27 21.2109 98.27 21.2109L97.5598 22.2762L76.076 56.0123L52.106 21.5663C50.5081 19.0806 48.4653 17.039 43.0498 17.1278H41.2744H11.623L11.625 17.1277ZM100.312 90.4552L81.491 118.065L121.085 180.207C122.417 182.516 123.571 182.872 124.104 182.872C125.258 182.961 125.968 182.25 127.3 180.12L158.371 123.392C161.123 118.509 165.739 118.508 165.739 118.508H188.2V90.5435H153.223C146.832 90.5435 143.636 95.8698 143.636 95.8698L124.724 125.876L100.312 90.4552Z" fill="#002855"/>
</svg>
