<svg width="200" height="200" viewBox="0 0 200 200" fill="none" xmlns="http://www.w3.org/2000/svg">
<g clip-path="url(#clip0_154_2394)">
<path d="M199.961 34.6452C199.358 33.4295 197.986 32.6684 195.885 32.3841C189.482 31.5152 176.153 34.994 158.471 45.2028C148.911 49.475 135.668 58.1838 120.793 72.8664C119.037 74.4178 117.264 76.0227 115.477 77.6749C111.48 75.5196 106.425 74.5781 100.647 76.2091C97.2787 73.944 93.4833 74.0821 93.3683 74.0741C92.2796 69.822 89.7514 65.5155 84.5063 62.4056L84.3965 62.3411L84.2775 62.2977C82.9519 61.7967 81.2634 61.9509 80.5285 63.3632C80.2805 63.6828 80.0658 64.082 80.0658 64.6062V64.6626C80.09 65.5014 80.5829 66.2604 81.5325 66.9157L81.6182 66.9762L81.716 67.0236C81.9942 67.1617 86.0921 69.2948 88.3098 74.4087C88.2856 74.4148 84.839 74.9753 81.1112 77.6134C77.9771 74.07 73.4125 70.8552 67.0768 70.5508C35.8476 52.9539 12.922 49.5022 4.30396 52.3571C2.26966 53.0325 1.01563 54.0658 0.581145 55.4338C-1.8463 63.0568 17.5612 75.7565 37.8759 84.9623L38.7499 85.0459C53.9022 82.6245 69.5344 88.5853 77.6343 91.675C77.6525 91.6912 77.6726 91.7113 77.6867 91.7274C78.095 92.7345 78.5134 93.668 78.9367 94.546C77.6121 95.2204 76.7008 96.3323 76.2542 97.169C74.6242 97.5541 72.9861 98.4886 71.3772 99.408C70.1574 100.108 68.8963 100.828 67.5566 101.395C63.118 103.276 62.2864 106.861 62.4668 108.644C62.4326 108.671 62.3993 108.693 62.365 108.72L62.2289 108.827L62.1241 108.966C61.3378 110.009 60.4023 112.373 61.7823 114.546C59.5666 115.501 58.7521 117.266 58.7521 117.266C57.9365 118.916 58.1946 120.138 58.5555 120.871C59.4225 122.629 61.5414 123.1 61.7823 123.148C61.7823 123.148 64.3661 120.296 65.8641 121.352C65.9276 122.836 62.0928 123.339 62.0928 123.339C62.0928 123.339 69.3308 124.742 72.7734 121.695H73.0859C76.5537 121.695 79.0769 116.715 79.5497 115.716C79.962 114.839 80.7593 113.847 81.5043 113.034C82.4156 113.38 83.3491 113.463 84.2543 113.326C84.1959 113.489 84.1555 113.645 84.1374 113.791C80.1666 114.35 79.7735 118.046 79.7735 118.046C79.3269 120.524 82.1212 121.305 82.1212 121.305C81.0718 120.863 81.3118 119.844 81.3118 119.844C81.9489 117.191 85.33 116.919 85.33 116.919C87.7987 116.719 87.4046 118.894 87.4046 118.894L87.0235 118.687C86.9701 119.326 85.1757 121.059 85.1757 121.059C88.085 120.244 88.9348 118.383 89.1828 117.42C89.2332 117.861 89.2231 118.19 89.2231 118.19C90.6516 117.78 91.4681 115.347 91.7363 113.692C91.831 113.114 92.1637 112.434 92.5558 111.794C93.4933 112.797 94.5972 113.676 95.8946 114.392C96.1184 114.516 96.3432 114.632 96.568 114.744L97.4732 114.758C78.0194 127.904 90.4691 145.157 74.2542 170.455C74.1837 170.522 74.1161 170.586 74.0456 170.65C53.3246 180.516 26.8153 184.203 26.8153 184.203C26.8153 184.203 55.9436 182.669 75.4317 177.609C84.5366 177.698 116.124 175.591 131.923 143.46C131.923 143.46 133.104 141.059 134.259 137.263C136.642 135.676 139.014 133.237 139.929 129.558L139.939 129.522L139.945 129.486C140.065 128.855 140.118 128.262 140.104 127.704C142.801 124.172 142.032 119.697 140.552 116.938C139.783 115.502 138.797 111.367 138.481 109.892L138.467 109.826L138.444 109.762C137.356 106.455 134.722 107.136 133.457 107.462C133.139 107.545 132.841 107.588 132.562 107.615C132.4 107.322 132.226 107.034 132.048 106.746C132.11 105.151 131.519 104.204 130.995 103.687C130.407 103.115 129.706 102.851 129.112 102.728C128.789 102.36 128.432 101.999 128.084 101.635C129.079 100.685 129.989 99.3827 129.798 97.7164C129.676 96.6357 128.929 95.6257 127.379 94.5309C126.302 93.7678 124.943 94.0833 124.943 94.0833C124.943 94.0833 125.863 88.6004 123.175 85.0328C132.741 79.2848 141.429 75.0307 149.087 72.3583C157.443 69.4409 162.796 69.0316 165.815 69.202L166.267 69.2282L166.669 68.9702C185.663 56.7704 203.319 41.4266 199.962 34.6473M80.0335 105.554C80.0335 105.554 77.9367 106.993 77.9166 107.009C77.7946 107.08 77.476 107.2 77.0769 107.33C77.2694 106.778 77.4297 106.215 77.5638 105.676C77.6504 105.328 77.8541 104.687 78.2835 104.052C79.0537 104.383 79.969 104.507 80.8844 104.497C80.4942 104.862 80.2079 105.242 80.0335 105.554Z" fill="#231F20"/>
<path d="M171.165 44.7344C165.294 45.7699 158.335 48.857 150.649 56.1353C155.609 53.6998 158.528 53.2385 158.528 53.2385C162.907 48.378 169.206 46.7787 172.004 46.286C171.996 46.2884 171.98 46.2884 171.972 46.2908C171.964 45.8763 171.867 45.511 171.681 45.2086C171.561 45.0263 171.391 44.8666 171.165 44.7344ZM163.843 45.3973C159.415 46.6473 153.06 49.4175 145.762 54.0845L145.754 54.0958C141.818 58.1555 136.81 63.3426 132.318 68.0249C136.189 65.7975 139.899 64.258 143.334 63.2144C151.141 53.2611 158.262 48.0755 163.843 45.3973ZM170.794 48.5812C165.698 49.4602 162.093 51.3804 159.996 52.8022V52.8054C163.375 52.0385 166.931 52.0336 168.802 52.1062C169.73 50.7901 170.407 49.6022 170.794 48.5812ZM167.415 54.5353C158.939 54.5571 151.625 57.2547 147.81 59.1152C147.754 59.145 147.681 59.1756 147.633 59.2039C146.689 60.2628 145.738 61.3821 144.778 62.5749C151.246 60.799 156.601 60.7611 159.956 61.0418L160.706 61.1063C163.181 58.8934 165.343 56.7684 167.173 54.7917C167.254 54.7079 167.343 54.6167 167.415 54.5353ZM150.641 56.1385C150.633 56.1401 150.625 56.1466 150.601 56.1522L150.593 56.1603C150.609 56.1522 150.625 56.1466 150.641 56.1385ZM140.673 58.1716C134.157 62.9297 126.319 69.5637 118.577 77.4129C120.416 76.6936 122.246 76.0444 124.093 75.5113C129.698 69.5508 136.173 62.82 140.673 58.1716ZM30.3107 60.591C36.264 61.8071 44.2318 65.1684 53.8876 73.2338C55.9844 73.3137 58.2199 73.5508 60.5691 73.9839C60.5635 73.9355 60.5538 73.8943 60.5522 73.8468C60.5377 73.7427 60.5739 73.6201 60.5739 73.5218C60.5739 73.0056 60.7409 72.5411 61.0151 72.1427C57.0175 69.4741 52.9844 66.7983 49.6158 64.5628C49.6093 64.5612 49.6109 64.5604 49.6045 64.5563C41.3907 61.7015 34.8551 60.6136 30.3204 60.591H30.3107ZM25.4091 61.8007C24.6276 61.8079 23.8688 61.8483 23.1333 61.916C22.9454 62.1095 22.8131 62.3192 22.7413 62.537C22.6228 62.8975 22.6115 63.2967 22.6889 63.7233C22.6389 63.7273 22.605 63.7338 22.5566 63.7378C25.3051 63.4708 31.8075 63.3458 37.1173 67.1701C37.1173 67.1701 40.0528 66.8427 45.3867 67.9983C45.3706 67.9919 45.3528 67.9894 45.3343 67.9854C37.4995 63.3015 30.8825 61.7515 25.4091 61.8007ZM155.272 63.9015C149.312 63.8983 139.271 65.2475 128.716 71.7863C127.651 72.904 126.595 74.0185 125.571 75.1097C129.256 74.1484 133.046 73.5379 137.199 73.25C143.941 70.133 148.36 69.3838 150.876 69.304C153.247 67.5136 155.481 65.7281 157.562 63.9757C156.893 63.9313 156.126 63.9015 155.272 63.9015ZM26.1672 65.6289C25.568 65.6475 24.9486 65.6854 24.3099 65.7475C24.8768 66.641 25.8631 67.7644 26.9704 68.8144C28.7511 68.233 32.185 67.262 35.6164 67.1241C33.589 66.3491 30.3632 65.4991 26.1672 65.6289ZM55.1683 67.2088C57.0626 68.4653 59.2586 69.9266 61.6183 71.5048C62.0248 71.1677 62.5094 70.9096 63.0119 70.7532C62.9901 70.7588 62.9691 70.7693 62.949 70.775C60.2433 69.437 57.64 68.2427 55.1683 67.2088ZM39.5963 69.5387C36.4487 69.5878 32.8503 70.0137 28.9865 71.1266C31.2341 72.7169 33.8898 74.375 36.8777 76.0379L37.585 75.7718C40.756 74.5677 45.9262 73.1476 52.5392 73.204C51.3779 72.2548 50.2376 71.3782 49.1182 70.5596C46.948 70.0354 43.6439 69.4757 39.5963 69.5387ZM140.58 74.2089C139.442 74.3072 138.201 74.4427 136.91 74.6024C134.144 76.0629 130.887 78.2436 127.572 80.5646C127.75 80.5509 127.935 80.5339 128.104 80.5218C132.692 77.9524 136.846 75.879 140.58 74.2089ZM53.8787 75.475C47.9174 75.575 43.2351 76.8565 40.3673 77.9041C42.7367 79.1258 45.2633 80.3396 47.9174 81.5186C50.3569 80.9178 54.7779 80.4791 61.9401 81.8291C66.0063 80.9944 69.7886 80.5863 73.5434 80.5662C72.3362 79.7388 71.0982 78.8984 69.8555 78.0573C63.9256 76.0363 58.5159 75.3984 53.8787 75.475ZM131.614 76.1089C127.421 76.7097 120.736 78.1105 114.341 80.8162C113.308 81.7194 112.22 82.6073 111.292 83.6388L109.663 86.213L111.889 84.392C115.171 82.5775 120.51 81.4888 123.655 80.988C126.542 79.0678 129.188 77.4605 131.614 76.1089ZM68.5998 76.1919C70.7781 77.6621 72.962 79.146 75.0442 80.5742C75.9136 80.5944 76.7878 80.6557 77.6612 80.7138C74.5547 77.7299 71.2111 76.5807 68.5998 76.1919ZM73.6015 82.6565C71.3184 82.742 69.2684 82.9299 67.6079 83.146C69.4144 83.6348 71.3644 84.2299 73.4394 84.9291C73.4176 84.8154 73.395 84.7009 73.3813 84.5872C73.3096 83.9541 73.3571 83.3315 73.5652 82.7364C73.5757 82.7089 73.5918 82.6839 73.6015 82.6565ZM118.639 84.4977C116.405 85.0162 112.276 86.0622 110.115 86.909C109.365 87.9066 109.494 88.8509 113.421 88.3663C113.913 88.0292 116.341 86.1856 118.639 84.4977ZM125.873 95.2889C122.962 95.4131 122.179 97.4905 122.179 97.4905C121.236 98.6123 121.034 105.298 113.268 106.887C108.695 108.086 108.47 111.987 108.47 111.987C108.736 112.007 110.099 112.574 110.679 113.574C110.695 113.598 110.703 113.614 110.712 113.63C110.824 113.154 110.97 112.3 110.76 111.585C110.462 110.523 111.22 109.313 113.034 109.011C114.857 108.707 119.55 106.889 121.058 102.649C122.3 99.1841 123.437 95.8252 125.873 95.2889ZM79.6298 95.9075C78.1959 96.6768 77.5225 98.0833 77.5225 98.0833C78.5894 98.0833 79.3104 98.2551 79.8016 98.4736C79.9499 98.1067 80.1645 97.7043 80.4048 97.3018C80.1443 96.8591 79.8862 96.3921 79.6298 95.9075ZM76.6225 98.7575C74.2579 98.8422 71.8902 101.219 68.2458 102.764C63.4006 104.817 64.0699 108.176 64.0699 108.176C67.0982 106.574 69.2781 106.517 70.8136 107.006C71.6547 106.872 72.4249 106.7 72.7652 107.088C73.1483 106.459 73.6249 105.354 73.9894 103.883C74.2136 102.983 74.9757 100.741 77.1789 99.4091C77.3233 99.3228 77.5064 99.093 77.6402 98.8704C77.2991 98.7801 76.9604 98.7446 76.6225 98.7575ZM125.075 106.388C123.825 108.157 123.591 110.236 123.631 111.354C123.696 113.074 123.099 114.34 122.397 114.921C121.687 115.501 120.808 116.461 120.808 116.461C122.042 116.106 123.066 115.993 123.929 116.058V116.05C124.47 115.501 125.3 114.292 125.3 112.038C125.3 110.144 124.808 108.069 125.075 106.388ZM64.2103 109.283C63.9296 109.47 63.6457 109.677 63.3595 109.909C63.3595 109.909 61.4715 112.412 63.5643 114.59C63.5643 114.59 64.4038 115.332 66.0401 115.638C62.8215 113.469 63.5054 110.733 64.2103 109.283ZM60.3618 117.582C60.1981 117.824 60.1167 117.993 60.1167 117.993C58.5142 121.235 62.2078 121.977 62.2078 121.977C61.3748 121.308 61.4078 120.517 61.5264 120.05C61.528 120.042 61.5256 120.042 61.528 120.034C60.9207 119.316 60.5683 118.372 60.3618 117.582ZM132.251 120.388C131.654 121.542 130.792 121.566 130.792 121.566C130.631 123.323 131.493 124.113 131.493 124.113C132.59 123.726 133.517 123.549 134.332 123.5L134.316 123.484C133.356 122.968 132.679 121.509 132.251 120.388Z" fill="#72CDF4"/>
<path d="M198.819 35.7773C191.876 36.7967 183.126 39.9363 173.997 46.746C173.932 46.9549 173.852 47.1662 173.763 47.3823C176.626 46.6258 178.191 46.5097 178.191 46.5097C185.779 39.2572 196.408 38.5282 198.625 38.4564C198.988 37.4128 199.045 36.5177 198.819 35.7773ZM184.779 36.9443C181.021 38.0201 176.408 39.6951 171.352 41.9863C172.473 42.1306 173.271 42.5089 173.747 43.1234C177.771 40.3379 181.473 38.3499 184.779 36.9443ZM196.98 41.5782C191.215 42.4016 186.465 44.2702 183.82 45.7758V45.7774C187.9 45.6274 191.586 46.0968 193.117 46.3291C194.714 44.6161 196.012 43.0242 196.98 41.5782ZM187.892 48.7371C181.529 48.721 175.916 49.8234 171.65 51.0751C170.344 52.9332 168.594 54.9646 166.545 57.0775C171.707 56.7993 175.957 57.2308 178.957 57.7655L179.957 57.9405C184.118 54.7461 187.731 51.6598 190.666 48.8162C189.731 48.7654 188.804 48.7396 187.892 48.7371ZM15.9244 55.0961C18.7366 55.8009 21.8559 56.8679 25.2568 58.4082C26.9713 58.18 29.0971 58.1606 31.5964 58.3993C25.61 56.6388 20.2067 55.5888 15.9244 55.0961ZM3.93802 56.2896C3.23237 56.2751 2.54285 56.2808 1.87107 56.3042C1.70897 57.1356 1.88316 58.0824 2.39607 59.1364C4.29448 58.8558 12.4647 57.959 20.0874 61.6945C20.1132 61.5139 20.1559 61.3373 20.2116 61.1631C20.3503 60.7405 20.6204 60.3719 20.9713 60.0373C14.6325 57.463 8.87759 56.3913 3.93802 56.2896ZM170.631 60.0453C168.332 60.0445 165.784 60.1735 163.034 60.5082C159.631 63.6776 155.719 66.9244 151.695 69.9769C158.566 67.876 163.187 67.5535 165.994 67.7115C169.808 65.2583 173.397 62.7913 176.711 60.3647C174.97 60.1768 172.929 60.0453 170.631 60.0453ZM6.4945 61.9897C5.79772 61.9744 5.08561 61.9768 4.3598 62.0002C5.50739 63.3421 7.01305 64.7825 8.84533 66.2946C10.3437 65.7696 14.0034 64.5921 18.1212 64.0212C18.0591 64.0292 17.9954 64.0373 17.9374 64.0454C15.4817 63.0954 11.372 62.097 6.4945 61.9897ZM82.6138 63.4808C82.4283 63.5034 82.2428 63.5575 82.0815 63.6639C82.4847 63.7002 82.8073 63.8228 82.8073 63.8228C95.6462 71.4382 91.0574 86.6665 90.38 88.6875C90.5332 88.9101 90.8074 89.0779 91.259 88.727C91.259 88.727 97.5333 71.8011 83.767 63.6357C83.767 63.6357 83.1783 63.4139 82.6138 63.4808ZM22.439 66.9293C19.0882 67.0268 15.4115 67.4422 11.5357 68.389C14.8083 70.8148 18.7922 73.3705 23.3366 75.9406L24.2947 75.5793C26.0189 74.9269 28.2004 74.2334 30.7536 73.6406C27.235 71.3535 24.3318 69.064 22.439 66.9293ZM150.302 70.4164C148.947 70.5043 147.092 70.789 144.656 71.5075C145.495 71.4995 146.326 71.4841 147.189 71.4987C148.277 71.0979 149.31 70.7406 150.302 70.4164ZM66.383 71.9898C65.4451 71.9761 64.466 72.0309 63.445 72.1632C63.445 72.1632 61.9813 72.6213 62.0596 73.6188C62.4676 73.2519 63.0233 73.0769 63.0233 73.0769C77.9758 71.1422 83.967 85.8125 84.8703 88.294C85.088 88.298 85.3057 88.1746 85.4106 87.7375C85.4106 87.7375 80.4549 72.1922 66.383 71.9898ZM34.7891 76.1092C31.6972 76.5673 29.0125 77.21 26.8471 77.8648C30.4326 79.7802 34.2843 81.6883 38.3682 83.5383C41.6723 82.7334 47.6667 82.1641 57.3982 84.0714C59.2628 83.6923 61.0749 83.4068 62.8676 83.1609C62.112 83.006 61.3563 82.8528 60.6289 82.7302C54.2861 81.6633 50.357 82.077 48.1764 82.6141L47.8497 82.6947L47.5336 82.556C43.0868 80.577 38.7069 78.3737 34.7891 76.1092ZM110.032 78.2318C110.056 78.356 110.096 78.4778 110.112 78.61C110.193 79.385 109.435 84.6069 105.927 86.9206C105.814 87.5916 105.516 88.969 104.895 90.7214C106.225 90.1763 107.596 89.7625 108.983 89.4496C106.024 86.7101 110.12 82.7318 110.12 82.7318L110.814 82.0592C111.661 81.2488 112.5 80.4479 113.33 79.6608C112.322 79.0858 111.225 78.5963 110.032 78.2318ZM70.8 85.2415C68.3419 85.2875 66.0773 85.4319 64.0797 85.6319C67.5306 86.5593 71.3685 87.7778 75.5758 89.3101C74.8911 88.3948 74.2193 87.327 73.7927 86.2254C72.7798 85.877 71.7798 85.548 70.8 85.2415ZM120.492 86.6609C119.346 87.3698 118.193 88.0972 117.024 88.848C118.129 88.9206 119.242 89.0416 120.346 89.2359L121.435 88.2166C121.161 87.7303 120.846 87.2036 120.492 86.6609ZM125.863 95.2876C123.427 95.8263 122.29 99.1844 121.048 102.65C119.54 106.889 114.846 108.707 113.024 109.011C111.209 109.314 110.451 110.523 110.75 111.585C110.959 112.3 110.814 113.155 110.701 113.631C110.693 113.614 110.677 113.598 110.669 113.574C111.451 115.179 111.241 117.405 111.241 117.405C118.613 118.574 122.564 109.221 122.653 108.396C122.742 107.57 124.613 102.97 125.637 102.215C126.669 101.459 127.709 101.605 128.572 99.7449C129.024 98.407 128.935 97.1376 126.822 95.6497C126.508 95.4271 126.185 95.3231 125.863 95.2876ZM121.322 97.2876C120.08 98.84 115.072 99.2868 115.072 99.2868C108.774 98.9804 107.959 101.665 107.959 101.665C107.701 102.172 108.12 103.258 108.12 103.258C109.709 106.454 113.838 103.547 113.838 103.547C117.653 102.197 117.943 103.884 117.943 103.884C119.669 103.126 120.088 99.9594 121.322 97.2876ZM80.3928 97.3037C80.1541 97.7062 79.9412 98.107 79.7912 98.4755C80.6605 98.8618 80.7976 99.3981 80.7976 99.3981C81.7412 100.999 78.8275 102.888 78.8275 102.888C80.4492 103.698 83.2815 103.165 84.2977 102.587C83.0477 101.279 81.7089 99.561 80.3928 97.3037ZM77.6299 98.8723C77.4936 99.0925 77.3145 99.3247 77.1702 99.411C74.9669 100.743 74.204 102.981 73.9774 103.883C73.6129 105.353 73.1379 106.459 72.7532 107.09C72.4129 106.699 71.6443 106.872 70.8032 107.008C73.0564 107.725 73.9097 109.619 73.9097 109.619C75.5919 109.539 76.3653 105.804 76.4468 105.474C76.529 105.147 77.0411 102.977 79.0315 101.819C80.1815 101.151 78.9912 99.5183 78.9912 99.5183C78.5242 99.1901 78.075 98.9909 77.6299 98.8723ZM128.137 103.984C126.726 104.552 125.75 105.426 125.064 106.389C124.798 108.069 125.29 110.144 125.29 112.039C125.29 114.292 124.467 115.502 123.919 116.05V116.058C126.895 116.284 127.822 118.695 128.08 120.679C128.105 120.897 128.121 121.114 128.137 121.324C128.153 121.574 128.161 121.8 128.161 122.018C128.161 122.139 128.169 122.268 128.161 122.373C128.161 122.485 128.153 122.566 128.153 122.655C128.129 122.985 128.105 123.307 128.105 123.307C128.234 123.251 128.338 123.178 128.459 123.114C128.564 123.057 128.677 123.001 128.782 122.936C128.895 122.856 128.992 122.768 129.088 122.687C129.177 122.606 129.282 122.542 129.363 122.461C129.467 122.356 129.556 122.235 129.653 122.123C129.709 122.05 129.782 121.977 129.838 121.897C129.919 121.8 129.976 121.687 130.04 121.574C130.113 121.469 130.177 121.373 130.242 121.26C130.298 121.147 130.346 121.026 130.395 120.913C130.451 120.8 130.5 120.695 130.548 120.574C130.596 120.453 130.629 120.332 130.669 120.203C130.709 120.082 130.75 119.961 130.79 119.832C130.814 119.719 130.838 119.606 130.871 119.485C130.895 119.348 130.927 119.219 130.959 119.082C130.984 118.945 131 118.808 131.024 118.663C131.04 118.55 131.056 118.437 131.064 118.324C131.088 118.179 131.096 118.026 131.104 117.881C131.112 117.776 131.128 117.671 131.128 117.566C131.144 117.397 131.144 117.235 131.144 117.074C131.152 117.002 131.152 116.921 131.152 116.848C131.152 116.566 131.136 116.308 131.128 116.042C131.112 115.832 131.112 115.614 131.096 115.421C131.08 115.195 131.056 115.026 131.032 114.832C131.008 114.639 130.992 114.445 130.967 114.284C130.943 114.122 130.919 114.026 130.895 113.897C130.871 113.792 130.855 113.655 130.838 113.574C130.838 113.582 130.838 113.59 130.83 113.59C130.83 113.558 130.814 113.501 130.814 113.477C130.467 112.147 130.717 110.251 130.967 106.968C131.217 103.688 128.137 103.984 128.137 103.984ZM84.1848 104.65C82.2815 104.701 81.3702 106.337 81.3702 106.337C82.0315 105.844 83.3057 106.172 83.3057 106.172C86.1364 107.364 83.717 110.4 83.1767 110.564C82.6444 110.729 81.9025 111.839 81.9025 111.839C83.959 112.743 85.6848 111.877 86.7493 110.81C87.8219 109.743 90.8542 108.718 90.8542 108.718C90.7735 107.805 90.451 107.097 90.0477 106.547C89.4671 106.36 88.3945 105.923 87.0396 104.976C85.7977 105.124 85.0638 104.734 85.0638 104.734C84.7574 104.667 84.459 104.643 84.1848 104.65ZM81.4912 106.98C80.2686 107.058 79.2379 107.947 78.8678 108.224C78.375 108.594 76.3226 109.128 76.3226 109.128C75.8702 109.58 74.3476 110.686 74.3476 110.686C75.1008 112.881 74.4105 115.582 74.4105 115.582C72.1516 112.445 68.262 113.889 68.262 113.889L67.8652 114.34L68.4782 114.792C70.6919 113.937 72.7217 115.566 72.7217 115.566C75.029 117.639 73.2435 120.502 73.2435 120.502C75.3782 120.502 77.4726 117.461 78.4976 115.284C79.5234 113.106 82.2331 110.73 82.2331 110.73C84.7412 108.355 82.7573 107.226 82.7573 107.226C82.3299 107.018 81.8944 106.954 81.4912 106.98ZM68.5298 107.889C67.3128 107.875 65.8314 108.201 64.2015 109.284C63.4967 110.734 62.8136 113.469 66.0297 115.639C66.7031 115.76 67.4959 115.808 68.4419 115.695C68.4419 115.695 62.9394 114.018 64.9088 110.32L65.4426 110.853C65.4426 110.853 65.4547 110.845 65.4564 110.843C65.6112 110.472 66.2169 109.581 68.4782 109.331L68.3709 110.306C68.7636 110.209 71.3379 109.663 72.9363 111.397C72.9379 111.401 72.9395 111.402 72.9411 111.405C72.9847 111.454 73.0258 111.51 73.0685 111.561C73.1258 111.631 73.1847 111.699 73.2387 111.776C73.2855 111.841 73.3282 111.912 73.3726 111.982C73.4282 112.071 73.4806 112.163 73.5314 112.26C73.5669 112.332 73.6024 112.397 73.6355 112.461C73.7113 112.631 73.7822 112.8 73.8451 112.985C73.85 113.001 73.8556 113.01 73.8605 113.026C73.8605 113.026 73.858 113.001 73.8572 113.001C73.8564 112.985 73.8476 112.945 73.8468 112.929C73.8403 112.864 73.8266 112.735 73.7774 112.453C73.7637 112.372 73.75 112.316 73.7314 112.219C73.7129 112.131 73.6943 112.045 73.6701 111.944C73.6476 111.851 73.6177 111.755 73.5895 111.655C73.5597 111.547 73.5306 111.443 73.4935 111.33C73.454 111.208 73.404 111.084 73.3548 110.958C73.3185 110.864 73.2871 110.772 73.2451 110.678C73.1822 110.538 73.1056 110.401 73.0306 110.264C72.983 110.176 72.9419 110.089 72.8887 110.004C72.7927 109.849 72.6774 109.705 72.5613 109.563C72.5153 109.506 72.4782 109.443 72.429 109.389C72.3572 109.311 72.2814 109.238 72.2024 109.166C72.1887 109.153 72.1766 109.139 72.1629 109.126C72.1613 109.125 72.1596 109.125 72.158 109.123C72.0596 109.037 71.9572 108.956 71.8475 108.882C71.8475 108.882 71.7774 108.834 71.6967 108.781C71.6959 108.78 71.6927 108.78 71.6919 108.78C71.6508 108.754 71.5984 108.727 71.5387 108.693C71.4411 108.636 71.3395 108.58 71.1943 108.509C71.1661 108.495 71.1548 108.487 71.125 108.472C71.1274 108.476 71.1314 108.48 71.1346 108.484C70.5588 108.213 69.6709 107.901 68.5298 107.889ZM135.434 108.514C134.951 108.513 134.434 108.643 133.934 108.772C132.604 109.117 132.217 108.988 132.217 108.988C131.281 110.305 132.483 113.558 132.717 116.405C132.886 118.421 132.62 119.647 132.241 120.389C132.668 121.51 133.346 122.969 134.305 123.485L134.322 123.501C137.023 123.331 138.273 124.743 138.838 125.84C138.878 125.904 138.902 125.96 138.926 126.033C138.999 126.178 139.064 126.323 139.104 126.452C139.112 126.477 139.12 126.493 139.128 126.509C139.225 126.807 139.265 127.017 139.265 127.033L139.273 127.057C139.305 127.017 139.33 126.977 139.362 126.936C139.467 126.791 139.564 126.646 139.66 126.493C139.717 126.404 139.765 126.323 139.814 126.235C139.878 126.122 139.943 126.001 139.999 125.888C140.039 125.807 140.08 125.727 140.112 125.646C140.176 125.517 140.225 125.388 140.281 125.259C140.305 125.186 140.338 125.106 140.37 125.025C140.418 124.888 140.459 124.751 140.499 124.606C140.515 124.541 140.539 124.477 140.555 124.412V124.404C140.604 124.219 140.644 124.033 140.676 123.839C140.733 123.517 140.765 123.186 140.781 122.864C140.789 122.808 140.789 122.752 140.789 122.695C140.805 122.381 140.797 122.066 140.781 121.76C140.757 121.373 140.709 121.002 140.636 120.639C140.62 120.518 140.588 120.413 140.564 120.3C140.515 120.05 140.459 119.816 140.394 119.59C140.354 119.461 140.322 119.348 140.281 119.227C140.249 119.131 140.217 119.018 140.185 118.921V118.961C140.007 118.461 139.814 117.993 139.62 117.631C138.596 115.719 137.426 110.254 137.426 110.254C136.975 108.886 136.249 108.516 135.434 108.514ZM67.1693 110.931C67.1693 110.931 66.2338 111.242 65.7168 111.83C65.7168 111.83 65.4749 112.937 66.512 113.663C66.512 113.663 67.1693 112.622 67.1693 110.931ZM69.4766 111.204C68.8088 111.181 68.3499 111.28 68.3499 111.28C68.3161 112.041 67.9911 112.993 67.9911 112.993C71.0669 111.435 73.4024 113.332 73.4024 113.332C72.2806 111.614 70.5879 111.242 69.4766 111.204ZM107.379 112.08C101.572 112.056 101.427 117.114 101.427 117.114C102.661 113.139 106.193 113.139 106.193 113.139L106.701 114.993L107.927 113.477C110.733 118.913 106.975 123.106 106.975 123.106C111.451 120.235 110.395 115.195 110.395 115.195C109.943 112.211 107.379 112.08 107.379 112.08ZM105.322 114.3C105.322 114.3 101.935 115.711 101.395 118.864C101.395 118.864 102.467 117.34 104.161 117.179C104.161 117.179 104.443 115.09 105.322 114.3ZM105.758 115.001C105.758 115.001 104.798 116.824 104.83 117.389C104.83 117.389 105.58 118.026 105.637 118.784C105.637 118.784 106.153 118.437 106.483 117.743C106.483 117.743 107.225 120.55 106.975 122.437C106.975 122.437 108.056 118.364 107.258 115.574L106.346 116.937L105.758 115.001ZM69.4483 115.364L69.8499 115.832C67.5483 117.106 63.9636 115.534 63.9636 115.534C61.9265 115.622 60.8063 116.905 60.3515 117.582C60.5563 118.372 60.9128 119.316 61.5192 120.034C61.5192 120.034 61.6499 118.155 63.3241 117.114C63.3241 117.114 63.4555 117.582 63.5257 117.792C64.3991 116.8 66.6789 116.558 66.6789 116.558L66.591 117.074C67.6161 117.05 68.3741 117.195 68.3741 117.195C71.8621 117.905 70.4508 120.752 70.4508 120.752L70.0088 120.308C69.6806 121.171 66.5169 122.848 66.5169 122.848C72.5024 122.896 72.7895 119.179 72.7895 119.179C73.6347 115.856 69.4483 115.364 69.4483 115.364ZM122.951 117.01C122.806 117.01 122.725 117.018 122.725 117.018C117.387 117.485 116.903 122.292 116.903 122.292C118.701 118.671 121.814 118.59 121.814 118.59C122.548 118.776 123.008 119.421 123.008 119.421L123.113 118.018C124.79 118.493 125.25 119.752 125.25 119.752L125.637 118.639C128.443 121.993 126.363 126.154 126.363 126.154C127.322 124.71 127.677 123.057 127.677 123.057C127.903 117.421 123.943 117.018 122.951 117.01ZM66.5862 118.211C62.4926 118.219 62.3789 120.502 62.3789 120.502C63.2539 119.179 66.3967 120.074 66.3967 120.074L67.4588 118.243C67.1491 118.219 66.8588 118.211 66.5862 118.211ZM68.3927 118.574L67.6507 120.268C68.0894 120.332 68.4604 120.768 68.4604 120.768C69.708 120.163 69.7758 119.421 69.7758 119.421C69.4395 118.711 68.3927 118.574 68.3927 118.574ZM123.556 119.235C123.637 120.05 123.338 120.929 123.338 120.929C123.032 120.284 121.814 119.469 121.814 119.469C118.193 120.284 117.225 123.186 117.225 123.186C119.524 119.864 121.871 120.55 121.871 120.55C122.717 120.655 123.846 122.058 123.846 122.058L123.887 121.155C124.927 121.679 125.338 123.323 125.338 123.323L125.653 122.574C126.105 122.944 126.403 123.969 126.403 123.969C126.653 121.703 125.766 120.26 125.766 120.26C125.758 120.582 125.451 121.332 125.451 121.332C125.193 120.235 123.556 119.235 123.556 119.235ZM61.5176 120.034C61.5152 120.042 61.5176 120.05 61.516 120.05C61.5176 120.05 61.5176 120.042 61.5192 120.034H61.5176ZM134.12 124.573C128.508 124.727 126.613 129.485 126.613 129.485C129.226 126.146 132.362 126.259 132.362 126.259C133.313 126.815 133.539 128.106 133.539 128.106L134.378 126.702C135.313 128.073 135.104 129.84 135.104 129.84L136.007 128.106C137.346 133.033 133.991 135.743 133.991 135.743C137.862 133.42 138.66 129.912 138.66 129.912C139.596 124.969 135.297 124.606 135.297 124.606C134.886 124.573 134.499 124.565 134.12 124.573ZM131.797 127.267C127.822 128.202 126.193 130.767 126.193 130.767C129 128.186 131.668 128.872 131.668 128.872C132.305 129.977 132.225 131.009 132.225 131.009L133.152 130.081C133.652 131.146 133.225 133.13 133.225 133.13L134.039 132.67C134.273 133.654 133.749 135.404 133.749 135.404C135.822 132.299 135.588 129.791 135.588 129.791C135.176 130.759 134.563 131.243 134.563 131.243C134.684 130.461 134.168 128.573 134.168 128.573C134.072 129.162 133.41 129.719 133.41 129.719C133.023 127.493 131.797 127.267 131.797 127.267ZM78.3879 172.316C75.129 173.784 64.7773 178.211 55.9522 179.308H55.945C55.6079 179.413 55.2845 179.509 54.9393 179.614C61.3087 178.671 68.8217 177.292 76.0169 175.34L76.2032 175.292H76.3855C76.3936 175.292 77.3484 175.275 77.967 174.63C78.1089 174.485 78.2315 174.308 78.3274 174.106C78.5097 173.719 78.5936 173.211 78.6016 172.614C78.542 172.517 78.4678 172.413 78.3879 172.316Z" fill="#009DDC"/>
<path d="M193.818 33.7385C188.464 33.7103 179.028 36.0837 166.536 42.387C168.182 42.0193 169.585 41.862 170.714 41.912C170.948 41.9225 171.141 41.9588 171.351 41.9846C176.407 39.6934 181.02 38.02 184.779 36.9458C189.214 35.0635 192.955 34.22 195.867 33.8934C195.27 33.7958 194.584 33.7434 193.818 33.7393V33.7385ZM198.06 34.6869C191.287 35.2942 183.295 37.8394 174.222 44.1265C174.399 44.8782 174.319 45.7564 173.996 46.7459C183.125 39.9362 191.875 36.795 198.818 35.7756C198.778 35.6474 198.746 35.5152 198.689 35.399C198.56 35.1329 198.342 34.8958 198.06 34.6869ZM198.197 39.4757C186.464 40.4805 180.109 46.0991 180.109 46.0991C181.351 45.9209 182.601 45.8217 183.819 45.7774V45.7757C186.464 44.2701 191.214 42.4015 196.979 41.5781C197.471 40.837 197.883 40.1321 198.197 39.4757ZM170.028 42.9878C165.899 43.0652 157.907 45.6886 147.343 52.4484C146.843 52.9726 146.302 53.5226 145.754 54.096C145.754 54.092 145.754 54.0903 145.762 54.0863C153.06 49.4177 159.407 46.6475 163.843 45.3975C166.561 44.0959 168.907 43.3814 170.803 43.0072C170.561 42.9902 170.303 42.983 170.028 42.9878ZM172.48 43.4338C166.262 44.529 158.827 47.9209 150.601 56.1541C150.625 56.146 150.633 56.1428 150.641 56.1387C150.641 56.1387 150.641 56.1355 150.649 56.1355C158.335 48.8548 165.294 45.7717 171.165 44.7362C171.391 44.8685 171.561 45.0265 171.682 45.2104C171.867 45.5128 171.964 45.8766 171.972 46.2895C171.98 46.2895 171.996 46.2903 172.004 46.2862C172.496 46.1999 172.891 46.1459 173.141 46.1161C173.375 45.2072 173.335 44.4604 172.988 43.9096C172.875 43.7249 172.706 43.566 172.48 43.4338ZM172.891 46.8758C164.27 48.3613 159.923 52.8202 159.923 52.8202C159.948 52.8137 159.972 52.8097 159.996 52.804C162.093 51.3822 165.698 49.4588 170.803 48.5814C170.407 49.6024 169.73 50.7887 168.794 52.1064C169.101 52.1161 169.367 52.1306 169.569 52.1427C171.198 50.1193 172.335 48.3314 172.891 46.8758ZM186.682 47.1072C181.448 47.1112 176.827 47.8822 173.053 48.8645C172.665 49.5677 172.198 50.3072 171.649 51.0758C176.52 49.6443 183.158 48.4096 190.666 48.8161C191.166 48.329 191.658 47.8483 192.117 47.3782C190.246 47.1879 188.432 47.1056 186.682 47.1072ZM168.899 52.9629C159.246 52.8573 151.988 56.2025 148.891 57.9251C148.536 58.3097 148.173 58.713 147.81 59.1154C151.625 57.2549 158.94 54.5573 167.415 54.5355C167.343 54.617 167.254 54.7081 167.174 54.792C167.214 54.792 167.254 54.7903 167.286 54.7903C167.859 54.1653 168.399 53.554 168.899 52.9629ZM11.0688 52.996C8.26309 53.0161 6.06468 53.3573 4.52031 53.9178C7.44454 53.729 11.2712 53.9299 15.9237 55.096C20.206 55.5887 25.6092 56.6388 31.5956 58.3993C34.0053 58.6291 36.7658 59.1001 39.84 59.8509C39.1932 59.4162 38.5577 58.9896 37.9529 58.5831C26.3633 54.4605 17.243 52.9524 11.0688 52.996ZM144.206 54.5307C136.302 59.9444 127.158 67.5477 117.23 77.9261C117.682 77.7398 118.125 77.589 118.577 77.4148C126.319 69.5631 134.157 62.9316 140.673 58.1734C142.068 56.7315 143.278 55.4839 144.206 54.5307ZM4.69854 55.0081C3.93482 55.0274 3.18804 55.071 2.4582 55.1355C2.20416 55.4 2.02674 55.6855 1.93077 55.9855C1.89851 56.0879 1.89287 56.1976 1.87109 56.3041C7.24695 56.1154 13.7269 57.096 20.9713 60.0388C21.4511 59.5799 22.1035 59.1928 22.9705 58.9049C23.0705 58.8726 23.1826 58.8444 23.289 58.8146C16.2253 55.8621 10.0438 54.867 4.69854 55.0081ZM169.407 58.1404C168.125 58.1468 166.762 58.1976 165.335 58.3041C164.593 59.0331 163.827 59.7686 163.036 60.5098C168.536 59.8404 173.23 59.988 176.714 60.3646C177.383 59.8743 178.053 59.3864 178.698 58.9017C176.416 58.496 173.254 58.1218 169.407 58.1404ZM27.956 59.3468C25.8875 59.3727 24.2657 59.6299 23.1253 60.0452C25.0213 59.9146 27.4334 60.0025 30.3157 60.5912C30.3198 60.5896 30.323 60.5896 30.3246 60.5896C34.8609 60.6138 41.3965 61.7017 49.6103 64.5566C49.6167 64.5606 49.6175 64.559 49.6232 64.563C48.9699 64.1308 48.3328 63.7074 47.7361 63.3122C39.2182 60.3525 32.5061 59.2904 27.956 59.3468ZM6.02597 59.9565C5.04048 59.967 4.01466 60.0178 2.94933 60.1154C3.32998 60.717 3.80982 61.3469 4.36709 61.9985C10.1712 61.8114 15.1382 62.9582 17.9446 64.0437C18.0027 64.0356 18.0688 64.0291 18.1285 64.0211C18.8721 63.917 19.6293 63.8445 20.3922 63.788C20.2737 63.4799 20.1785 63.1775 20.1245 62.8807C17.8092 61.7549 12.922 59.8831 6.02597 59.9565ZM42.682 60.3549C42.8755 60.4872 43.1054 60.6396 43.3183 60.7823C43.8651 60.942 44.4239 61.1114 44.9893 61.288C44.2102 60.9654 43.4409 60.6557 42.682 60.3549ZM24.0132 60.8259C23.1826 60.8291 22.3769 60.8694 21.5987 60.9412C21.4084 61.1372 21.2785 61.3444 21.2068 61.5646C20.9898 62.2227 21.1116 62.9969 21.5326 63.8622C21.6431 63.8461 21.7915 63.8259 21.9592 63.8041C22.0156 63.7961 22.0777 63.7896 22.1423 63.7816C22.2721 63.7679 22.4084 63.7541 22.5624 63.738C22.6108 63.734 22.6447 63.7291 22.6947 63.7235C22.6165 63.2969 22.6286 62.9001 22.7471 62.5372C22.8189 62.3195 22.9511 62.1098 23.139 61.9162C29.0214 61.3735 36.3859 62.6324 45.3401 67.9856C45.3586 67.9897 45.3764 67.9945 45.3925 67.9985C36.9263 62.5848 29.8286 60.8033 24.0132 60.8259ZM156.118 62.0098C150.085 62.0872 140.569 63.559 130.118 70.3107C129.651 70.8018 129.183 71.2945 128.715 71.7849C140.779 64.3122 152.174 63.6195 157.561 63.9743C158.295 63.3549 159.013 62.7396 159.706 62.1307C158.715 62.0485 157.513 61.992 156.118 62.0098ZM82.0856 63.6654C81.9404 63.7598 81.8195 63.8993 81.7388 64.0937C81.7388 64.0937 80.9082 64.734 82.3517 65.7259C82.3517 65.7259 94.5938 71.6905 90.2066 88.2842C90.2066 88.2842 90.255 88.5052 90.3841 88.6891C91.0615 86.6681 95.6502 71.4365 82.8114 63.8211C82.8114 63.8211 82.4808 63.6993 82.0856 63.6654ZM24.935 64.4421C23.9874 64.4316 22.9842 64.4711 21.9294 64.5727C22.7786 65.9106 24.2528 67.43 26.2496 69.0582C26.4423 68.9905 26.6859 68.9066 26.9681 68.8147C25.8584 67.7647 24.8729 66.6413 24.306 65.7477C29.4157 65.255 33.2964 66.2413 35.6158 67.1243C35.6198 67.1243 35.6432 67.1147 35.6674 67.1066C35.4779 66.984 31.5641 64.5138 24.935 64.4421ZM51.2063 64.5864C52.2538 65.2775 53.6111 66.1776 55.1676 67.209C57.6394 68.2429 60.2426 69.4356 62.9483 70.7752C62.9685 70.7671 62.9886 70.7574 63.0088 70.7518L63.133 70.7139L63.2604 70.6986C63.6548 70.6461 64.0338 70.6195 64.4169 70.5897C59.6781 68.1356 55.2619 66.155 51.2063 64.5864ZM21.1229 65.2171C17.6938 65.4453 13.9381 66.0364 9.97278 67.1985C10.4736 67.5905 11.001 67.9889 11.5413 68.3889C15.4148 67.4421 19.0938 67.0284 22.4431 66.9308C21.9261 66.3477 21.4793 65.7735 21.1229 65.2171ZM38.115 68.1243C34.8908 68.1155 31.1319 68.5131 27.0721 69.7123C27.3786 69.9502 27.698 70.1929 28.027 70.4349C28.2149 70.5736 28.4101 70.7147 28.6044 70.8526C28.731 70.9429 28.8544 71.0349 28.9843 71.1268C37.815 68.5832 45.2586 69.6284 49.1159 70.5599C49.0675 70.5236 49.0175 70.4889 48.9675 70.4526C48.4433 70.0695 47.9199 69.6953 47.4054 69.3389C45.5239 68.8203 42.261 68.1356 38.115 68.1243ZM144.26 72.6341C143.3 72.6518 142.203 72.6929 141.01 72.7647C140.26 73.0575 139.477 73.3752 138.647 73.7397C138.098 73.9841 137.51 74.2801 136.897 74.6026C138.195 74.443 139.437 74.3091 140.566 74.2107C141.848 73.6397 143.082 73.1123 144.26 72.6341ZM65.7241 72.9002C64.858 72.8986 63.9588 72.9558 63.0241 73.0768C63.0241 73.0768 62.4701 73.2518 62.062 73.6188C62.066 73.6849 61.8281 74.8631 63.6225 74.7575C63.6225 74.7575 77.3178 71.8292 84.2759 88.0479C84.2759 88.0479 84.5743 88.2899 84.8727 88.2939C84.0259 85.9673 78.7057 72.9268 65.7241 72.9002ZM51.6264 74.0913C45.4594 74.1696 40.6916 75.522 37.8739 76.5906C38.6811 77.0293 39.5102 77.468 40.3594 77.9043C45.457 76.0414 56.2942 73.4389 69.8476 78.0575C69.2766 77.6688 68.7056 77.2809 68.1306 76.8946C67.229 76.576 66.3379 76.2914 65.4604 76.0349C64.5878 76.0785 64.0265 76.1849 63.9265 76.2051L63.8161 76.2268C63.8161 76.2268 61.658 76.3414 60.8507 74.9212C57.5216 74.2833 54.4297 74.0551 51.6264 74.0913ZM135.109 74.2551C130.925 74.6978 123.723 75.9365 115.836 79.4051C115.376 79.8962 114.86 80.3583 114.336 80.8164C120.731 78.1107 127.417 76.7099 131.609 76.1091C132.827 75.4301 133.997 74.8099 135.109 74.2551ZM32.1907 74.5494C29.1101 75.1905 26.5842 75.9946 24.7036 76.7059C25.4012 77.0922 26.1294 77.4785 26.8512 77.8632C29.0157 77.2107 31.7004 76.568 34.7924 76.1075C33.8996 75.5905 33.0295 75.0704 32.1907 74.5494ZM78.3267 81.3946C75.1783 81.4108 75.0283 83.8963 75.0283 83.8963C74.9839 86.2511 78.5751 90.1512 78.7372 90.327C78.7315 90.2891 78.7275 90.2552 78.7235 90.2471C78.0283 89.1915 75.4129 84.9785 76.6928 83.1697C76.6928 83.1697 77.7614 82.4672 79.1154 82.2914C78.8533 81.9785 78.5928 81.6769 78.3267 81.3946ZM74.3081 81.5003C70.121 81.4785 66.6 81.8842 64.162 82.2914C65.2499 82.5334 66.3991 82.8197 67.6008 83.1463C69.2613 82.9318 71.3129 82.7406 73.5976 82.6551C73.7597 82.2245 74 81.8406 74.3081 81.5003ZM121.505 82.4342C119.335 82.7527 115.835 83.4737 112.15 85.0834C112.15 85.0834 110.779 86.0165 110.109 86.9076C112.271 86.0608 116.4 85.0148 118.634 84.4963C119.69 83.7229 120.714 82.9834 121.505 82.4342ZM103.73 83.4334C103.73 83.4334 102.287 83.6051 101.27 84.8729C101.335 85.3173 101.779 89.4423 100.133 93.8827C102.609 90.71 103.722 87.4608 103.73 83.4334ZM66.4524 83.9858C64.129 84.1802 62.0935 84.4471 60.4354 84.7197C61.6031 84.9882 62.8193 85.2915 64.0838 85.6318V85.6302C66.0822 85.4302 68.3467 85.285 70.8048 85.2415C69.3177 84.7769 67.858 84.3503 66.4524 83.9858ZM79.5452 87.977C79.1348 91.2996 79.7775 95.8133 83.8913 99.6109C83.5042 99.3126 80.4138 94.8448 81.3912 90.2721C80.0259 89.1246 79.5452 87.977 79.5452 87.977ZM86.5526 94.8593C86.7139 95.5157 86.9155 96.327 86.9719 96.8359C87.101 97.9609 87.0768 98.8545 86.9881 99.573C87.5284 99.8819 88.6494 100.046 89.3429 100.123C88.859 98.523 88.4719 96.8641 88.1977 95.2625C87.5687 95.2625 87.0203 95.0932 86.5526 94.8593ZM86.98 99.644C86.9316 100.057 86.8671 100.425 86.7945 100.707C88.5123 102.458 89.8752 103.137 90.5607 103.393C90.222 102.671 89.9316 101.905 89.6655 101.12C88.0365 100.763 87.23 99.9505 86.98 99.644ZM92.7381 121.445C92.73 121.453 92.722 121.461 92.7139 121.477C92.5607 121.655 92.4236 121.84 92.2704 122.026C82.8751 133.84 89.7461 146.622 77.0565 169.517C78.2146 169.493 79.1525 170.122 79.7993 170.832C85.6816 163.791 89.3268 147.84 89.4881 136.065C89.5365 131.96 90.1252 128.686 90.8833 126.106C91.4478 124.17 92.1171 122.614 92.7381 121.445ZM77.1517 171.566C76.9742 171.558 76.7831 171.598 76.5815 171.679C76.0984 171.912 68.9379 175.404 55.9515 179.308H55.9571C64.7838 178.211 75.1355 173.783 78.3928 172.316C78.0993 171.937 77.6831 171.582 77.1517 171.566Z" fill="white"/>
<path d="M88.8026 75.6836C88.7864 75.686 88.7703 75.6884 88.7623 75.69C88.7703 75.7038 88.7865 75.7126 88.8106 75.7102C88.8106 75.7021 88.8026 75.6941 88.8026 75.6836ZM106.279 77.3489C104.359 77.2731 101.779 78.432 101.779 78.432C98.3753 80.3248 95.601 82.7417 93.7139 84.624C93.2784 87.3539 92.6333 89.1716 92.6091 89.2297L92.5526 89.3837C99.093 82.1038 105.254 80.7554 105.254 80.7554C105.496 82.0659 104.714 85.4619 104.714 85.4619C107.19 82.8159 107.811 79.2215 107.948 78.078C107.908 77.978 107.875 77.9239 107.875 77.9239C107.496 77.5352 106.924 77.3739 106.279 77.3489ZM95.4317 78.1538C94.6655 78.111 94.1333 78.1917 94.1333 78.1917C94.093 78.2376 94.0688 78.2796 94.0284 78.3239C94.1252 79.7877 94.0849 81.1885 93.972 82.4724C95.7462 80.6498 97.5688 79.2449 98.6736 78.4651C98.5043 78.5812 98.3269 78.7102 98.1333 78.8546C97.1978 78.3618 96.1978 78.1957 95.4317 78.1538ZM88.9639 78.711C88.0445 78.7651 86.9558 79.1054 85.9719 79.6264L85.988 79.7304L86.8913 87.4926L86.9558 87.6926L86.8509 88.1055V88.1127C86.8348 88.1732 86.8106 88.2257 86.7945 88.2813C86.488 89.2208 85.8509 89.5652 85.48 89.6853C84.6493 89.9491 83.8267 89.5974 83.3348 89.1813L83.0606 88.9539L82.9235 88.6313C81.8025 86.0176 80.4961 83.945 79.1154 82.2933C77.7613 82.4691 76.6912 83.1716 76.6912 83.1716C75.4113 84.9805 78.0283 89.195 78.7235 90.2507C78.7275 90.2587 78.7307 90.2894 78.7388 90.3289C78.7412 90.3329 78.7533 90.3466 78.7533 90.3466C77.7759 87.2402 78.6638 84.2571 78.6638 84.2571C82.7541 90.72 87.2945 92.3846 87.2945 92.3846C89.6332 93.466 92.0123 89.9813 92.0123 89.9813C92.0365 89.9571 92.0607 89.9362 92.0768 89.912C91.2462 90.5184 90.5123 90.3902 90.1413 90.2539C89.351 89.9612 88.9316 89.2007 88.8026 88.5837L88.73 88.2482L88.8187 87.9208C89.3671 85.8458 89.6252 83.9635 89.6897 82.2409C89.4558 80.9772 89.1574 79.4264 88.9639 78.711ZM115.916 91.2394C111.706 91.3023 107.504 92.2321 103.561 93.908C102.795 95.4539 101.779 97.1233 100.488 98.7935C100.73 100.543 102.004 102.63 105.27 103.498C105.545 102.84 105.988 97.8604 114.892 97.9306C115.125 97.9225 118.456 97.7717 120.367 96.2152C120.367 96.2152 121.077 95.6983 122.077 95.1693C122.053 94.0402 121.916 92.8765 121.625 91.7031C119.738 91.362 117.827 91.2112 115.916 91.2394ZM92.8188 92.3644C91.0284 94.5757 89.4639 95.2644 88.1977 95.2644C88.4719 96.8685 88.8671 98.5241 89.351 100.125C89.6897 100.16 89.9397 100.178 89.9397 100.178C90.9155 100.069 92.601 98.8903 92.601 98.8903L93.0607 99.9975C91.7865 101.131 90.3671 101.246 90.3671 101.246C90.109 101.219 89.8832 101.172 89.6655 101.122C89.9316 101.907 90.2219 102.673 90.5607 103.394C89.8752 103.139 88.5042 102.46 86.7945 100.708C86.9961 99.9282 87.1816 98.658 86.9719 96.8378C86.9155 96.3265 86.7139 95.5177 86.5606 94.8612C85.4638 94.3039 84.8429 93.3692 84.8429 93.3692C87.2461 99.5879 85.3429 101.023 85.3429 101.023C88.5526 104.558 90.8994 104.8 90.8994 104.8C95.2381 102.324 97.6575 98.3483 97.6575 98.3483C90.5607 99.7403 92.8188 92.3644 92.8188 92.3644ZM89.351 100.125C89.351 100.124 89.351 100.125 89.3429 100.125C89.4155 100.349 89.4881 100.572 89.5607 100.796C89.4881 100.575 89.4236 100.348 89.351 100.125ZM104.851 119.044C103.859 119.052 102.94 119.108 102.085 119.213C100.988 120.729 100.738 123.132 100.73 123.14C100.73 123.14 100.391 121.342 100.174 119.528C92.4558 121.245 90.8026 126.833 90.8026 126.833C90.7784 126.728 90.8107 126.47 90.8832 126.107C91.1655 125.148 91.472 124.285 91.7865 123.511C90.6252 126.341 89.5607 130.43 89.4881 136.067C89.48 136.414 89.4719 136.777 89.4639 137.14C99.8511 134.374 106.948 135.841 111.811 138.914C112.012 138.374 114.101 132.591 115.263 126.527C115.263 126.527 115.263 126.519 115.271 126.519C112.795 125.14 107.972 124.543 107.238 124.462C105.27 125.93 103.343 126.696 103.343 126.696C103.343 126.696 104.19 125.736 104.803 124.293C101.262 124.067 95.6736 125.22 94.8268 125.438C94.8268 125.438 101.012 123.027 105.246 122.938C105.512 121.761 105.504 120.407 104.851 119.044ZM111.077 119.64C110.69 120.794 110.012 121.81 109.214 122.689C111.311 122.665 113.512 122.818 115.754 123.228C115.795 122.641 115.892 121.987 116.061 121.31C116.053 121.35 116.037 121.39 116.029 121.423C115.722 121.108 115.408 120.818 115.085 120.544C113.666 120.165 112.343 119.866 111.077 119.64ZM94.2946 136.704C91.6171 136.745 89.7461 137.083 89.4558 137.14C89.109 148.793 85.5042 164.003 79.7993 170.834C80.0017 171.06 80.1831 171.285 80.3251 171.511C83.1896 170.648 85.8429 169.543 88.2703 168.237C87.3348 165.076 84.9396 163.309 84.9396 163.309C87.1574 164.535 88.5203 166.076 89.351 167.648C93.6817 165.156 97.3188 162.043 100.375 158.608C99.1737 156.164 97.1494 153.713 93.8752 151.551C93.8752 151.551 98.5285 152.777 101.932 156.777C105.827 151.963 108.674 146.656 110.738 141.656C105.456 137.382 98.7624 136.632 94.2946 136.704Z" fill="#EE3124"/>
<path d="M88.7629 75.6875C85.6984 76.2246 83.4645 77.6883 82.1338 78.8359C82.7145 79.5835 83.3355 80.4537 83.7871 81.1561V81.1577C83.8113 81.1956 83.8355 81.2384 83.8677 81.2763C84.8919 82.6779 85.7952 84.6771 86.3274 85.9795C86.6581 86.7666 86.8194 87.257 86.8274 87.2868L86.8919 87.49L85.9887 79.7279L85.9726 79.6238C86.9565 79.1029 88.0452 78.7649 88.9645 78.7085C89.1581 79.4238 89.4565 80.973 89.6904 82.2368C89.6984 81.9666 89.7226 81.6916 89.7226 81.4287C89.7226 79.2359 89.3597 77.348 88.8113 75.7077C88.7871 75.7101 88.771 75.7012 88.7629 75.6875ZM93.7227 75.6956C93.8759 76.5843 93.9807 77.4641 94.0291 78.3214C94.0694 78.277 94.0936 78.2327 94.134 78.1891C94.134 78.1891 96.263 77.8666 98.134 78.852C98.3275 78.7077 98.505 78.5787 98.6743 78.4625C98.6743 78.4609 98.6743 78.4601 98.6824 78.4601C99.1582 78.1214 99.4969 77.9004 99.634 77.8141C99.6421 77.8077 99.6421 77.8085 99.6501 77.8045C99.6824 77.7827 99.7147 77.7666 99.7147 77.7666C97.5372 76.6432 95.5372 75.9996 93.7227 75.6956ZM107.949 78.0754C107.812 79.219 107.191 82.8134 104.715 85.4594C108.989 81.3077 108.231 78.7061 107.949 78.0754ZM100.489 98.7909C98.8034 100.964 96.6259 103.139 93.7872 105.054C93.263 106.006 92.8597 106.948 92.7065 107.843C92.7065 107.843 93.5372 113.098 100.876 114.033C101.844 112.323 103.739 110.735 107.134 110.724C107.36 109.865 107.989 108.728 109.529 107.503C108.336 107.949 107.255 108.356 106.368 108.689C104.586 106.616 105.271 103.501 105.271 103.497C102.005 102.629 100.731 100.54 100.489 98.7909ZM126.667 102.778C126.497 102.9 126.344 103.011 126.215 103.106C126.11 103.196 125.973 103.379 125.82 103.626C126.15 103.395 126.513 103.193 126.9 103.003C126.82 102.927 126.739 102.854 126.667 102.778ZM122.191 111.906C122.013 112.21 121.82 112.517 121.602 112.823C121.183 113.452 120.699 114.081 120.15 114.694C119.884 115.001 119.594 115.299 119.295 115.589C119.376 115.622 119.465 115.654 119.545 115.694L119.707 115.517C119.731 115.493 119.965 115.235 120.287 114.904C120.618 114.573 121.037 114.162 121.425 113.848C121.489 113.791 121.57 113.71 121.642 113.598C121.723 113.493 121.804 113.364 121.876 113.202C122.021 112.88 122.15 112.444 122.191 111.906ZM100.134 116.009C99.3114 116.227 98.4808 116.493 97.6098 116.807C95.634 118.356 94.0533 119.888 92.7468 121.436C92.5856 121.743 92.4162 122.073 92.2549 122.428C92.1178 122.727 91.9726 123.048 91.8436 123.379C91.8194 123.427 91.8033 123.468 91.7872 123.508C91.4726 124.282 91.1662 125.145 90.8839 126.105C90.8113 126.468 90.7791 126.726 90.8033 126.831C90.8033 126.831 92.4646 121.243 100.174 119.525C100.069 118.598 99.9889 117.67 100.005 116.969C100.013 116.686 100.061 116.356 100.134 116.009ZM104.239 118.009C103.295 117.985 102.594 118.501 102.086 119.211C102.94 119.106 103.86 119.041 104.852 119.041C104.691 118.694 104.497 118.348 104.239 118.009ZM111.344 118.598C111.287 118.952 111.199 119.299 111.086 119.63C112.344 119.864 113.666 120.162 115.086 120.541C114.924 120.356 114.529 119.969 114.013 119.525C113.691 119.243 113.32 118.952 112.876 118.63C112.376 118.662 111.86 118.646 111.344 118.598ZM130.691 130.242L130.368 131.234L131.038 131.968C131.101 130.895 130.691 130.242 130.691 130.242ZM129.247 136.863C128.925 137.823 128.57 138.823 128.167 139.863C128.513 139.686 129.473 139.162 130.417 138.299C130.086 137.871 129.683 137.379 129.247 136.863ZM130.933 139C130.933 139 129.57 139.573 128.15 139.903C126.626 143.774 124.433 148.137 121.32 152.412C121.699 153.718 121.9 154.766 122.005 155.387C125.215 151.613 128.005 147.371 130.32 142.662C130.336 142.637 130.844 141.581 131.496 139.815C131.343 139.589 131.166 139.331 130.933 139ZM118.368 156.097C114.981 159.952 110.747 163.605 105.424 166.621C105.424 167.283 105.392 167.976 105.32 168.702C108.336 167.13 111.166 165.323 113.803 163.275C115.529 161.936 117.166 160.5 118.723 158.96C118.634 157.968 118.521 157.017 118.368 156.097ZM101.666 168.549C98.3356 170.097 94.642 171.396 90.5371 172.38C90.5533 173.057 90.5049 173.646 90.4484 174.122C91.9404 173.783 93.4727 173.388 95.0049 172.92C97.1259 172.267 99.1824 171.501 101.174 170.654C101.352 170.049 101.529 169.347 101.666 168.549ZM88.4081 172.847C85.9081 173.355 83.2548 173.751 80.4645 174.009C80.2741 174.557 79.9233 175.154 79.3145 175.726C81.7467 175.557 84.6661 175.234 87.8194 174.654C88.0694 174.033 88.2791 173.42 88.4081 172.847Z" fill="#8A1F03"/>
</g>
<defs>
<clipPath id="clip0_154_2394">
<rect width="200" height="200" fill="white"/>
</clipPath>
</defs>
</svg>
