<svg width="200" height="200" viewBox="0 0 200 200" fill="none" xmlns="http://www.w3.org/2000/svg">
<path d="M167.089 69.4468C167.635 59.1322 161.969 50.5448 156.632 45.985C154.591 42.5425 152.512 40.7876 151.099 39.5947C149.608 38.3368 149.416 38.1746 149.295 35.6396C149.222 34.0469 148.477 32.5554 147.253 31.5468C146.042 30.5499 144.457 30.1072 142.907 30.337C141.987 30.4707 140.65 30.7407 139.046 31.2755C138.59 30.1994 138.006 29.1519 137.296 28.1485C133.624 22.9564 126.809 19.256 119.069 18.2483C109.83 17.045 105.134 15.0551 103.544 14.2555C102.523 13.7415 101.382 13.4533 100.235 13.4169L99.9991 13.4134L99.7629 13.4169C98.6155 13.4533 97.4745 13.7415 96.4541 14.2555C94.864 15.0551 90.1677 17.045 80.9286 18.2483C73.1884 19.2555 66.375 22.9563 62.7014 28.1485C61.9913 29.1519 61.4072 30.1994 60.9516 31.2755C59.3485 30.7407 58.0128 30.4707 57.0938 30.337C55.5413 30.1086 53.9564 30.5486 52.7454 31.5455C51.5226 32.5527 50.7775 34.0429 50.7022 35.6356C50.5814 38.1746 50.3894 38.3369 48.8979 39.596C47.4856 40.7876 45.4061 42.5425 43.3669 45.985C38.028 50.545 32.3619 59.1331 32.9099 69.4468C33.2305 75.5047 35.8642 83.9418 45.6901 92.2207C43.5924 93.5059 41.5208 95.0271 40.0916 96.6796C39.0298 97.9062 38.5885 99.5249 38.8819 101.119C39.1739 102.712 40.1604 104.065 41.5908 104.837C43.6768 105.957 44.9177 106.726 45.2422 106.969C46.3637 107.953 47.4878 108.684 48.5951 109.202C47.7968 112.926 48.0265 117.743 51.3599 123.477C53.5289 127.206 53.5198 129.858 53.4147 130.826C53.1123 133.635 54.7283 136.36 57.3438 137.451C60.4877 138.764 61.1562 140.173 61.1847 140.234L61.2678 140.41C61.1951 140.802 61.164 141.203 61.177 141.607L61.1978 142.298C61.3484 147.529 61.5548 154.695 72.2456 160.176C77.3106 162.775 79.3913 165.032 79.9106 165.665C80.4545 166.326 81.1385 166.831 81.8953 167.159C83.1466 172.802 87.3756 176.032 90.3663 178.315C92.386 179.857 94.1306 181.189 94.5927 182.641C95.343 185.001 97.5146 186.586 100 186.586C102.485 186.586 104.658 185 105.404 182.641C105.866 181.189 107.612 179.857 109.632 178.315C112.621 176.032 116.852 172.802 118.103 167.158C118.858 166.829 119.544 166.324 120.089 165.661C120.606 165.032 122.686 162.773 127.751 160.176C138.443 154.694 138.65 147.529 138.799 142.298L138.82 141.609C138.833 141.204 138.802 140.801 138.729 140.409L138.813 140.231C138.841 140.172 139.509 138.763 142.653 137.451C145.269 136.361 146.885 133.636 146.582 130.825C146.477 129.858 146.468 127.206 148.637 123.475C151.97 117.742 152.201 112.925 151.402 109.202C152.51 108.684 153.634 107.953 154.753 106.969C155.079 106.727 156.321 105.955 158.411 104.834C159.838 104.066 160.823 102.712 161.115 101.119C161.408 99.5237 160.967 97.9064 159.908 96.681C158.477 95.0286 156.406 93.506 154.307 92.2209C164.133 83.942 166.767 75.5047 167.089 69.4468Z" fill="white"/>
<path d="M99.9855 18.4375V18.4389C99.5492 18.4415 99.1135 18.5409 98.7115 18.7434C96.5019 19.8548 91.2675 21.9692 81.5775 23.2314C70.8737 24.6235 63.4604 31.7088 64.9826 38.8599C61.169 36.2587 57.7477 35.5106 56.3611 35.3078C56.0199 35.2574 55.7374 35.528 55.722 35.8721C55.334 44.0356 51.4239 41.6463 47.2753 49.2777C38.3433 56.2791 28.5429 76.2492 55.3179 92.9916C55.3179 92.9916 47.0026 96.3689 43.8924 99.9699C43.7715 100.11 43.8064 100.32 43.9686 100.403C44.8986 100.907 47.7109 102.438 48.522 103.158C52.2294 106.438 55.0941 105.004 56.3555 104.011C56.2751 104.144 56.1898 104.284 56.0933 104.445C54.3466 107.354 50.8512 112.598 55.7059 120.947C58.5406 125.828 58.6008 129.624 58.4127 131.365C58.3462 131.981 58.7035 132.575 59.2797 132.813C63.6947 134.659 65.2456 137.022 65.7602 138.155C65.8623 138.379 66.1944 138.372 66.2818 138.134C67.9054 133.764 65.8021 128.324 65.8021 128.324C65.8021 128.324 74.1733 134.987 66.4329 140.959C66.2825 141.071 66.193 141.253 66.1993 141.441C66.3706 146.756 66.1154 151.384 74.5383 155.706C80.2147 158.614 82.8368 161.307 83.7941 162.474C83.9612 162.677 84.2954 162.558 84.2975 162.299C84.3171 160.936 84.0794 157.817 82.111 153.181C82.111 153.181 86.8196 158.475 86.577 163.083C86.054 173.026 97.1298 174.04 99.382 181.116C99.4659 181.381 99.7184 181.556 99.9974 181.556C100.277 181.556 100.529 181.381 100.613 181.116C102.864 174.04 113.94 173.026 113.416 163.083C113.178 158.475 117.884 153.181 117.884 153.181C115.912 157.817 115.681 160.936 115.695 162.299C115.702 162.558 116.031 162.677 116.199 162.474C117.157 161.307 119.779 158.614 125.456 155.706C133.882 151.384 133.623 146.756 133.798 141.441C133.798 141.253 133.714 141.071 133.56 140.959C125.82 134.987 134.197 128.324 134.197 128.324C134.197 128.324 132.092 133.764 133.714 138.134C133.798 138.372 134.134 138.379 134.239 138.155C134.749 137.022 136.301 134.659 140.714 132.813C141.294 132.575 141.651 131.981 141.581 131.365C141.399 129.624 141.455 125.828 144.287 120.947C149.146 112.598 145.65 107.354 143.902 104.445C143.804 104.284 143.72 104.144 143.636 104.011C144.902 105.004 147.762 106.438 151.475 103.158C152.286 102.438 155.097 100.907 156.027 100.403C156.188 100.32 156.223 100.11 156.104 99.9699C152.992 96.3689 144.678 92.9916 144.678 92.9916C171.452 76.2492 161.649 56.2791 152.719 49.2777C148.573 41.6463 144.657 44.0356 144.273 35.8721C144.259 35.528 143.972 35.2574 143.636 35.3078C142.245 35.5106 138.826 36.2587 135.015 38.8599C136.539 31.7088 129.12 24.6235 118.422 23.2314C108.731 21.9692 103.494 19.8548 101.284 18.7434C100.883 18.5409 100.446 18.4415 100.009 18.4389V18.4375H99.9974H99.9855ZM147.678 50.5616C147.762 50.5581 147.853 50.5875 147.937 50.6567C170.34 69.694 144.336 87.9222 136.973 87.9013C138.546 84.7617 137.532 82.3102 136.756 80.1747C136.218 78.6924 138.483 77.8057 139.916 77.8379C140.385 77.8484 140.665 77.324 140.399 76.9394C137.77 73.1608 134.616 72.214 134.616 72.214C134.616 72.214 147.258 71.8665 149.496 61.757C150.363 57.8511 148.979 54.0116 147.349 51.1364C147.195 50.8567 147.419 50.57 147.678 50.5616ZM52.3168 50.5623C52.5755 50.5707 52.7978 50.8574 52.6391 51.1378C51.0099 54.0116 49.6317 57.8525 50.4974 61.7584C52.7356 71.8679 65.3728 72.214 65.3728 72.214C65.3728 72.214 62.2207 73.1594 59.5972 76.938C59.3301 77.324 59.6056 77.8498 60.074 77.8393C61.5117 77.8057 63.7765 78.6924 63.2381 80.1747C62.4619 82.3102 61.4487 84.7617 63.022 87.9013C55.6556 87.9222 29.6491 69.694 52.0588 50.6567C52.1399 50.5875 52.2308 50.5595 52.3168 50.5623ZM66.723 95.7676C66.8041 95.7606 66.8881 95.7676 66.9706 95.7956C68.562 96.2431 72.8245 98.0821 72.3442 104.711C72.326 104.963 72.0358 105.088 71.8281 104.942C70.0821 103.697 63.6702 102.928 66.1727 96.1941C66.2622 95.9564 66.4811 95.7956 66.723 95.7676ZM133.263 95.7676C133.508 95.7956 133.725 95.9564 133.816 96.1941C136.319 102.928 129.907 103.697 128.159 104.942C127.956 105.088 127.662 104.963 127.648 104.711C127.166 98.0821 131.424 96.2431 133.019 95.7956C133.102 95.7676 133.186 95.7606 133.263 95.7676Z" fill="#003A63"/>
<path d="M74.1718 69.1949C73.9131 69.2236 73.6809 69.4326 73.6718 69.7382C73.6187 71.6884 73.2544 75.6425 71.3567 79.0834C68.7157 83.8711 70.8616 88.486 74.3277 90.6326C76.7485 92.136 78.0413 95.2406 78.6007 96.9817C78.7497 97.4431 79.3846 97.4991 79.6237 97.0795C82.6626 91.6955 83.1094 87.7029 83.124 85.9058C83.1275 85.5073 82.7129 85.2206 82.3493 85.3884C79.8789 86.5491 77.9427 80.7958 77.7924 76.2774C77.6791 72.9036 75.8045 70.5269 74.6207 69.3543C74.4906 69.225 74.327 69.1774 74.1718 69.1949ZM125.828 69.1949C125.667 69.1774 125.506 69.225 125.373 69.3543C124.191 70.5269 122.317 72.9036 122.205 76.2774C122.052 80.7958 120.115 86.5491 117.646 85.3884C117.283 85.2206 116.87 85.5073 116.877 85.9058C116.891 87.7029 117.339 91.6955 120.374 97.0795C120.611 97.4991 121.248 97.4431 121.394 96.9817C121.954 95.2406 123.247 92.136 125.674 90.6326C129.135 88.486 131.282 83.8711 128.638 79.0834C126.744 75.6425 126.38 71.6884 126.324 69.7382C126.317 69.4326 126.086 69.2236 125.828 69.1949ZM90.3233 95.7091C89.7416 95.716 89.2158 96.3034 89.2969 97.0726L90.3604 107.093C90.4394 107.841 89.5954 108.197 89.2444 107.568C87.9271 105.184 85.9559 101.443 84.2218 98.1214C83.7478 97.2124 82.5772 97.4082 82.3304 98.4291C81.9668 99.9254 81.5529 101.366 81.0809 102.638C81.0061 102.848 80.976 103.065 81.0082 103.289C81.4214 106.205 82.6437 112.344 84.1442 117.889C84.8511 120.497 86.4223 122.699 88.5221 124.028L95.7347 126.972C98.3813 128.643 101.575 128.643 104.221 126.972L111.472 124.021C113.577 122.692 115.15 120.483 115.856 117.868C117.36 112.337 118.576 106.205 118.989 103.289C119.024 103.065 118.989 102.848 118.919 102.638C118.43 101.331 118.01 99.8485 117.64 98.3102C117.395 97.2823 116.22 97.0865 115.745 97.9955C113.997 101.352 111.997 105.156 110.661 107.568C110.312 108.197 109.465 107.841 109.542 107.093L110.598 97.1495C110.71 96.1286 109.738 95.4224 108.99 95.9818C107.543 97.0795 106.081 98.1354 104.753 99.3101C101.946 101.792 98.0652 101.799 95.2578 99.3171C93.8978 98.1144 92.3931 97.0306 90.9044 95.9048C90.7177 95.765 90.5177 95.7021 90.3233 95.7091ZM62.3464 105.862C62.2072 105.876 62.0793 106.03 62.1156 106.212C62.7512 109.33 65.5468 110.113 67.0606 111.98C67.9759 113.113 67.4941 114.84 67.0361 115.924C66.9256 116.19 67.1886 116.413 67.3843 116.225C69.8051 113.903 71.9035 109.407 72.3839 107.491C72.437 107.281 72.2629 107.114 72.0839 107.197C68.48 108.98 66.7739 108.106 65.7251 107.792C64.5643 107.442 63.189 106.449 62.4841 105.904C62.4408 105.876 62.3925 105.862 62.3464 105.862ZM137.654 105.862C137.605 105.862 137.556 105.876 137.514 105.904C136.808 106.449 135.437 107.442 134.276 107.792C133.227 108.106 131.521 108.98 127.913 107.197C127.739 107.114 127.564 107.281 127.613 107.491C128.095 109.407 130.193 113.903 132.612 116.225C132.815 116.413 133.074 116.19 132.962 115.924C132.507 114.84 132.025 113.113 132.941 111.98C134.451 110.113 137.248 109.33 137.884 106.212C137.919 106.03 137.793 105.876 137.654 105.862ZM114.362 131.23C114.201 131.223 114.034 131.237 113.873 131.272L101.912 133.482C100.52 133.74 99.091 133.74 97.7002 133.475L86.121 131.272C85.4651 131.153 84.7819 131.314 84.2687 131.733C83.2422 132.573 82.4968 133.565 81.9626 134.607C81.4843 135.544 81.3948 136.628 81.6647 137.635C82.236 139.789 83.0835 142.054 84.3428 143.928L84.4148 144.005L85.7287 144.991C86.2531 145.382 86.9712 144.837 86.7083 144.243C86.0762 142.816 85.5196 140.907 85.6399 138.789L83.7282 136.957C83.4674 136.712 83.7093 136.278 84.0624 136.369C85.3609 136.698 87.5145 137.313 89.8108 138.285C92.1036 139.096 94.9201 140.411 96.9178 142.39C97.1052 142.572 97.2611 142.781 97.3947 143.005C97.9282 143.893 99.2672 146.27 99.2749 147.732C99.4203 147.725 99.5616 147.718 99.7077 147.718C100.053 147.718 100.392 147.732 100.726 147.746C100.723 146.291 102.07 143.9 102.608 143.012C102.741 142.781 102.895 142.572 103.084 142.39C104.909 140.586 107.419 139.348 109.586 138.544C112.104 137.425 114.53 136.726 115.935 136.369C116.292 136.278 116.53 136.712 116.271 136.957L114.355 138.796C114.495 140.914 113.95 142.823 113.313 144.25C113.048 144.851 113.775 145.396 114.299 144.998L115.586 144.026L115.656 143.949C116.914 142.075 117.767 139.81 118.334 137.656C118.607 136.642 118.516 135.565 118.04 134.628C117.502 133.572 116.747 132.573 115.712 131.726C115.334 131.412 114.852 131.244 114.362 131.23ZM99.9336 151.396L95.0991 152.088C94.9662 152.102 94.8627 152.2 94.8383 152.319L94.5159 153.906C94.3999 154.486 94.9369 154.997 95.5753 154.92L99.9727 154.375H100.057L104.426 154.913C105.069 154.997 105.615 154.472 105.482 153.885L105.125 152.312C105.097 152.193 104.993 152.102 104.867 152.088L99.9336 151.396Z" fill="#6B818D"/>
</svg>
