<svg width="200" height="200" viewBox="0 0 200 200" fill="none" xmlns="http://www.w3.org/2000/svg">
<g clip-path="url(#clip0_154_2395)">
<path d="M173.183 118.713C165.319 113.001 155.79 103.921 157.774 93.1045C155.286 90.6804 152.958 88.3843 152.262 84.8241L153.894 84.9281C156.07 75.0957 154.054 65.2553 149.822 56.159C152.534 50.9588 152.662 44.2305 149.19 39.3503C144.27 32.43 135.741 31.158 127.821 34.9101C121.069 32.574 113.373 31.646 106.532 34.1261C106.276 34.0301 106.012 33.9341 105.836 33.8781C99.156 31.702 91.7557 32.646 85.2274 34.9021C78.5071 31.47 70.1708 32.246 64.9466 37.9743C60.4504 42.9105 60.1864 50.3828 63.2025 56.159C58.9624 65.2473 57.0103 74.7837 59.1224 84.9201L60.7544 84.8241C60.0584 88.3843 58.4183 90.2243 55.2422 93.1045L55.4742 94.4405C55.0182 101.785 52.1621 106.953 45.6498 112.681L0 112.609L23.5369 124.754L18.4807 142.85C17.4007 146.395 18.6567 149.859 22.3449 150.995C23.873 151.467 25.545 151.323 27.1291 151.315H39.9216L41.5537 152.715L36.9055 156.435L43.3617 160.235L38.0255 167.355H176.943L171.607 160.235L178.063 156.435L174.719 153.763L177.671 151.275H181.647C188.352 151.227 190.048 151.563 191.896 150.547C194.536 149.219 195.176 146.627 195.592 143.818C196.12 140.818 196.648 137.826 197.168 134.826C198.112 129.45 199.056 124.082 200 118.705H173.183V118.713Z" fill="#FFBA36"/>
<path d="M108.02 36.2873C109.956 35.6552 112.372 35.2072 115.252 35.1992C117.661 35.1992 120.389 35.5032 123.429 36.2553C124.957 36.6313 126.405 37.0793 127.781 37.5913L128.013 37.6793L128.277 37.5513C130.261 36.3913 133.149 35.3672 136.261 35.3352C139.173 35.3192 142.286 36.1673 145.054 38.5754C151.158 43.8796 149.518 51.8639 147.174 55.672L146.942 56.0401L147.07 56.3041C150.814 64.0084 151.974 70.6246 152.19 75.3048C152.358 78.873 151.99 81.3211 151.806 82.2651L149.718 82.1371H149.422L149.43 82.7051C149.446 83.8732 149.862 86.4653 150.47 87.8733C152.038 91.4975 154.302 93.2975 155.014 93.9936C154.91 94.5536 154.958 100.65 157.246 105.098C161.59 113.506 167.231 117.555 172.055 121.059H197.216L193.024 144.908C192.6 147.412 191.4 148.964 188.503 148.964H174.199L169.743 152.796L173.943 156.156L168.159 159.556L172.271 165.036H42.6816L46.7937 159.556L41.0095 156.156L45.2097 152.796L40.7935 149.004L24.4568 149.012C22.6488 149.012 20.4487 148.028 20.4487 145.276C20.4487 144.796 20.5767 144.076 20.7367 143.46L26.3049 123.555L9.24023 114.97L46.8177 115.026C49.4658 112.906 52.25 110.002 55.0421 105.458C57.6582 101.194 58.0902 94.5616 57.9942 94.0016C58.7062 93.3055 60.9703 91.5055 62.5384 87.8813C63.1464 86.4733 63.5704 83.8732 63.5784 82.7131L63.5864 82.1451L61.2023 82.2811C61.0183 81.3451 60.6423 78.897 60.8183 75.3128C61.0423 70.6326 62.1944 64.0164 65.9385 56.3121L66.0665 56.0481L65.8345 55.68C63.4904 51.8719 61.8423 43.8876 67.9546 38.5834C73.7148 33.5832 80.9311 35.3112 84.7793 37.5673L84.9953 37.6953L85.2273 37.6073C86.6033 37.0953 88.0514 36.6553 89.5795 36.2713C96.3237 34.5992 101.476 35.1512 105.044 36.3033C105.5 36.4473 106.516 36.8553 106.516 36.8553C106.516 36.8553 107.564 36.4393 108.02 36.2873Z" fill="black"/>
<path d="M141.501 42.7273C138.181 39.8472 133.669 40.7112 130.941 42.3753C129.981 42.9593 129.197 43.5913 128.637 44.0874C126.597 42.9833 124.365 42.1353 121.925 41.5433C109.868 38.6311 106.532 43.4233 106.532 43.4233C106.532 43.4233 103.332 38.5351 91.2913 41.5033C88.9392 42.0793 86.7392 42.9033 84.6911 43.9674C84.1551 43.5193 83.315 42.8713 82.211 42.1993C79.4829 40.5352 74.8747 39.8392 71.5625 42.7193C69.4105 44.5914 68.9464 47.2475 69.3385 49.5756C69.9065 48.3115 71.3945 45.7994 74.4907 44.9354C74.1787 45.3914 73.9066 45.8794 73.7386 46.3835C73.3466 47.5755 73.5226 48.0475 73.5226 48.0475C73.5226 48.0475 74.5067 46.3515 77.7548 45.6474C79.3709 45.2954 80.5469 45.7514 81.4189 45.9514C77.3148 48.8876 73.7466 53.0797 71.0345 58.2639C66.4983 66.9043 66.6664 76.3367 66.6664 76.3367L68.8104 76.1367C68.9864 77.3127 69.6025 81.5849 69.1305 85.249C68.2744 91.8893 63.8902 95.6174 63.8902 95.6174C63.8902 95.6174 63.9062 102.562 59.8821 108.978C57.242 113.178 54.3299 116.354 52.0098 118.53C52.0658 118.874 52.0978 119.234 52.1058 119.61L52.1538 123.987C54.0338 121.714 55.7219 121.058 60.4581 121.058H78.5308C80.6989 121.058 81.907 121.442 83.107 122.843C83.179 122.923 83.251 123.011 83.315 123.099C84.4191 121.73 85.6191 121.226 87.3792 121.098C82.403 112.282 83.243 107.514 83.243 107.514C83.243 107.514 85.4271 110.066 87.6512 111.338C90.2193 112.802 91.1233 113.162 91.1233 113.162L91.2993 109.034C93.8674 111.986 97.9556 115.938 104.772 115.778C105.036 114.114 103.94 112.794 102.068 111.746C100.82 111.05 99.9397 110.634 99.0116 109.698C95.6435 106.258 96.2515 102.586 96.6996 99.1376C97.3076 94.4254 96.7236 93.2653 95.7395 89.0972C95.0435 86.1291 93.4674 82.9449 93.4674 82.9449L91.8114 83.641C91.8114 83.641 88.9312 79.0168 89.3633 74.0406C89.7873 69.2004 92.2914 66.4883 92.2914 66.4883C92.2914 66.4883 91.7714 70.2404 92.7714 74.1286C93.5874 77.2967 94.2595 77.7527 94.2595 77.7527C94.2595 77.7527 96.7076 76.6167 100.716 76.0967C103.836 75.6886 108.964 75.6166 112.372 76.0967C117.124 76.7687 118.812 77.7527 118.812 77.7527C118.812 77.7527 119.508 77.1287 120.317 73.9526C121.061 71.0324 120.981 68.1843 120.837 66.5683L120.629 65.6562L120.188 64.2162L120.06 63.8322C119.868 63.4321 118.956 61.6401 117.564 60.64C115.068 58.84 113.548 58.632 113.548 58.632L114.38 54.8318C114.38 54.8318 114.844 56.4879 116.084 57.0559C117.876 57.8879 119.228 55.4878 121.669 57.4959C123.213 58.76 122.901 60.96 122.229 61.9841C122.461 62.0721 122.701 62.1601 122.941 62.2481C127.221 63.9042 130.277 61.1121 130.277 61.1121L127.701 59.76C127.701 59.76 129.509 59.416 131.845 58.1439C133.941 57.0079 134.685 55.9198 134.685 55.9198L132.245 55.2238C132.245 55.2238 134.037 54.2158 135.301 52.3837C135.901 51.5117 136.173 50.7276 136.309 49.9916C135.893 49.5196 135.701 49.1676 135.301 48.8076C133.701 47.3515 132.461 46.5355 132.461 46.5355C132.461 46.5355 134.005 44.1354 137.045 43.7834C139.789 43.4633 141.669 43.8234 142.957 44.4874C142.581 43.8474 142.109 43.2553 141.501 42.7273ZM93.0354 64.2402C93.0354 64.2402 91.8114 63.6322 90.9393 62.3601C90.2433 61.3521 89.8993 59.104 91.4593 57.8239C93.8994 55.8158 95.2595 58.2159 97.0436 57.3839C98.2836 56.8079 98.7476 55.1598 98.7476 55.1598L99.5797 58.96C99.5797 58.96 98.0596 59.168 95.5635 60.968C93.9954 62.1041 93.0354 64.2402 93.0354 64.2402ZM114.636 64.5442C114.772 66.7203 113.172 68.8644 113.172 68.8644L110.276 72.6645C110.276 72.6645 108.532 72.3205 106.612 72.2725C104.868 72.2325 102.548 72.6645 102.548 72.6645L99.8037 68.8644C99.8037 68.8644 98.1316 66.6723 98.2676 64.5042C98.3716 62.8961 99.0196 62.4081 100.276 61.6641C102.196 60.528 104.172 60.312 106.644 60.312C109.348 60.312 110.748 60.488 112.668 61.6241C113.924 62.3681 114.532 62.9441 114.636 64.5442Z" fill="#E3BA81"/>
<path d="M97.6113 81.6549C97.6113 81.6549 100.843 80.2148 106.524 80.2148C112.188 80.2148 115.436 81.6549 115.436 81.6549C115.436 81.6549 115.324 83.223 114.932 84.583C114.292 86.7911 112.908 89.3432 112.908 89.3432C112.908 89.3432 112.82 86.4631 112.34 84.103C112.108 82.967 111.292 81.4389 111.292 81.4389L110.068 83.575C110.068 83.575 109.076 82.5109 106.508 82.4869C104.076 82.4629 102.972 83.575 102.972 83.575L101.747 81.4389C101.747 81.4389 100.931 82.959 100.699 84.103C100.219 86.4631 100.131 89.3432 100.131 89.3432C100.131 89.3432 98.7954 86.6071 98.1634 84.543C97.7473 83.095 97.6113 81.6549 97.6113 81.6549ZM103.916 104.784L103.084 106.4C103.084 106.4 102.132 104.832 101.723 103.304C101.115 100.992 100.755 100.072 100.755 100.072C100.755 100.072 100.235 101.032 100.027 103.392C99.9314 104.52 100.227 106.232 100.227 106.232C100.227 106.232 102.196 108.968 106.524 108.896C110.844 108.968 112.82 106.232 112.82 106.232C112.82 106.232 113.116 104.528 113.02 103.4C112.82 101.04 112.292 100.08 112.292 100.08C112.292 100.08 111.972 101.008 111.324 103.312C110.788 105.232 109.964 106.408 109.964 106.408L109.132 104.792C109.132 104.792 108.596 105.928 106.548 105.968C104.86 106 103.916 104.784 103.916 104.784Z" fill="white"/>
<path d="M35.6023 117.762C37.1463 117.762 37.3703 118.058 37.4343 120.027L37.9784 131.555L41.3545 121.395C41.6105 120.667 41.7065 120.203 41.7065 119.859C41.7065 119.307 41.4185 118.963 40.8425 118.835L41.0025 117.77H47.6508C49.0028 117.77 49.3228 118.154 49.3548 119.651L49.5788 142.323C49.6108 144.54 49.8348 145.012 50.9309 145.188L50.7389 146.252H44.7946C43.6026 146.252 43.3146 145.78 43.3466 143.948L43.4426 129.515L38.3944 146.252H33.0582L32.4181 129.515L29.234 142.795C29.074 143.395 29.01 143.86 29.01 144.124C29.01 144.724 29.298 145.108 29.906 145.188L29.714 146.252H24.4418C23.5458 146.252 23.1858 145.956 23.1858 145.268C23.1858 144.972 23.2818 144.54 23.3778 144.156L29.554 122.059L20.5137 117.73L35.6023 117.762ZM132.822 140.011C130.99 140.011 130.51 139.715 130.51 138.307H129.614L128.846 142.747C128.782 143.171 128.622 144.204 128.622 144.46C128.622 145.228 128.974 145.78 129.526 146.044C129.878 146.212 130.262 146.26 131.198 146.26H137.558C140.286 146.26 141.543 145.58 142.767 143.315C143.799 141.475 144.855 136.699 144.855 133.963C144.855 132.683 144.567 131.611 143.991 130.843C143.575 130.291 142.927 129.779 141.615 128.963L139.526 127.683C138.462 127.043 138.206 126.659 138.206 125.763C138.206 124.739 138.526 123.923 139.11 123.547C139.494 123.291 139.91 123.203 141.07 123.203H143.799C145.119 123.203 145.375 122.859 145.727 120.939L146.239 117.778L125.806 117.746L133.03 121.171C132.918 121.755 132.758 122.531 132.582 123.243C132.102 125.251 131.718 127.811 131.718 129.011C131.718 131.059 132.55 132.387 134.774 133.795L136.894 135.075C138.118 135.755 138.47 136.315 138.47 137.379C138.47 138.235 138.182 139.043 137.702 139.467C137.222 139.891 136.838 140.019 135.262 140.019H132.822V140.011ZM57.4592 132.131C56.6511 135.507 56.2031 138.315 56.2031 139.819C56.2031 141.123 56.6831 141.827 57.6112 141.827C58.7392 141.827 59.3472 140.891 60.0753 138.019C60.8033 135.075 61.3073 131.603 61.3073 130.435C61.3073 129.035 60.8273 128.299 59.9233 128.299C58.7392 128.291 58.1392 129.227 57.4592 132.131ZM65.6835 137.451C64.1474 144.636 62.2673 146.54 56.8591 146.54C54.699 146.54 53.339 146.204 52.411 145.436C51.3549 144.564 50.8029 143.059 50.8029 141.091C50.8029 137.147 51.9869 130.963 53.315 127.795C54.595 124.787 56.7311 123.587 60.6833 123.587C65.0835 123.587 66.7715 125.155 66.7715 129.371C66.7635 131.363 66.3555 134.243 65.6835 137.451ZM76.1479 131.867C76.4999 131.267 76.6999 130.395 76.6999 129.491C76.6999 128.459 76.3719 128.155 75.1879 128.155H73.8838L73.1078 132.699H74.6198C75.3399 132.699 75.7959 132.435 76.1479 131.867ZM68.8036 126.723C68.9076 126.155 68.9316 125.987 68.9316 125.787C68.9316 125.219 68.6836 124.883 68.1236 124.755L68.2756 123.915H78.532C79.868 123.915 80.5721 124.147 81.0761 124.683C81.6041 125.283 81.9081 126.419 81.9081 127.723C81.9081 129.995 81.2761 132.667 80.3961 134.307C79.74 135.475 79.06 136.043 77.852 136.411L78.884 139.883C79.34 141.419 79.412 141.523 80.3401 141.523H80.7241L80.1961 144.5C79.948 145.94 79.716 146.204 78.612 146.204H76.2759C75.3239 146.204 75.2199 146.068 74.8678 144.604L72.9558 136.419H72.4758L71.2197 143.708C71.1717 143.972 71.1477 144.172 71.1477 144.34C71.1477 144.94 71.3957 145.244 71.9557 145.372L71.8037 146.204H66.9235C66.0675 146.204 65.6675 145.868 65.6675 145.132C65.6675 144.964 65.7155 144.7 65.7715 144.396L68.8036 126.723ZM90.4765 136.075H91.0525L90.4205 139.715C90.1965 140.987 89.7164 141.523 88.7084 141.523C87.5004 141.523 86.9723 140.891 86.9723 139.483C86.9723 138.851 87.1003 137.883 87.3963 135.971C87.7484 133.803 88.2044 131.563 88.5004 130.459C88.9244 128.819 89.4044 128.355 90.6125 128.355H94.6606C95.7407 128.355 96.0447 128.019 96.2447 126.587L96.7007 123.915H88.5804C84.7082 123.915 83.5242 126.051 81.9881 135.547C81.5641 138.187 81.3881 139.891 81.3881 141.291C81.3881 143.932 82.1961 145.604 83.7482 146.1C84.6042 146.364 86.0363 146.532 87.8204 146.532C91.8445 146.532 92.2685 146.332 92.7006 146.196C93.7086 145.892 94.0606 145.164 94.3326 143.588L95.9887 134.027C96.0607 133.491 96.0927 133.323 96.0927 133.123C96.0927 132.355 95.7407 132.051 94.8606 132.051H89.6764L89.3004 134.259C89.2524 134.491 89.2284 134.795 89.2284 134.995C89.2364 135.747 89.6204 136.075 90.4765 136.075ZM104.605 137.083L104.429 128.963L101.661 137.083H104.605ZM101.485 126.955C101.765 126.187 101.885 125.787 101.885 125.515C101.885 125.083 101.637 124.811 101.157 124.747L101.309 123.907H108.045C108.677 123.907 108.949 124.043 109.125 124.411C109.229 124.675 109.253 124.915 109.277 125.979L109.933 143.892C109.981 144.796 110.261 145.196 110.917 145.364L112.261 146.196H106.117C104.957 146.196 104.781 145.964 104.757 144.524L104.685 140.947H100.357L99.4768 143.556C99.3488 143.924 99.2768 144.228 99.2768 144.46C99.2768 144.964 99.5008 145.228 100.005 145.364L99.8769 146.196H95.4767C94.7966 146.196 94.4926 145.932 94.4926 145.324C94.4926 145.06 94.5406 144.788 94.6926 144.42L101.485 126.955ZM110.829 144.396C110.781 144.628 110.677 145.276 110.677 145.476C110.677 146.18 111.125 146.204 111.981 146.204H116.006L116.133 145.372C115.605 145.236 115.357 144.94 115.357 144.34C115.357 144.14 115.381 143.972 115.485 143.403L116.942 134.947L119.71 144.836C120.062 146.108 120.166 146.204 121.222 146.204H124.438L127.958 125.723C128.006 125.459 128.03 125.155 128.03 124.955C128.03 124.251 127.654 123.923 126.798 123.923H122.774L122.622 124.763C123.174 124.899 123.43 125.227 123.43 125.795C123.43 125.995 123.406 126.163 123.302 126.731L122.094 133.747L119.606 124.795C119.406 124.027 119.254 123.923 118.302 123.923H113.349L113.197 124.763C113.749 124.899 114.005 125.227 114.005 125.795C114.005 125.995 113.981 126.163 113.877 126.731L110.829 144.396ZM145.503 144.396C145.455 144.7 145.431 144.964 145.431 145.132C145.431 145.868 145.807 146.204 146.663 146.204H151.543L151.695 145.372C151.167 145.236 150.919 144.94 150.919 144.34C150.919 144.14 150.919 143.972 151.023 143.403L153.615 128.371H156.031C157.111 128.371 157.263 128.203 157.567 126.403L158.199 122.859H157.447C157.199 123.691 156.871 123.931 155.991 123.931H146.863C145.583 123.931 145.431 124.099 145.103 126.003L144.503 129.515H145.207C145.487 128.579 145.735 128.379 146.719 128.411L148.303 128.379L145.503 144.396ZM162.967 137.083L162.791 128.963L160.023 137.083H162.967ZM159.847 126.955C160.127 126.187 160.247 125.787 160.247 125.515C160.247 125.083 159.999 124.811 159.519 124.747L159.671 123.907H166.408C167.04 123.907 167.312 124.043 167.488 124.411C167.592 124.675 167.616 124.915 167.64 125.979L168.296 143.892C168.344 144.796 168.624 145.196 169.28 145.364L169.128 146.196H164.471C163.311 146.196 163.135 145.964 163.111 144.524L163.039 140.947H158.711L157.831 143.556C157.703 143.924 157.631 144.228 157.631 144.46C157.631 144.964 157.855 145.228 158.359 145.364L158.231 146.196H153.831C153.151 146.196 152.847 145.932 152.847 145.324C152.847 145.06 152.895 144.788 153.047 144.42L159.847 126.955ZM170 144.396C169.952 144.7 169.928 144.964 169.928 145.132C169.928 145.868 170.304 146.204 171.16 146.204H176.04L176.192 145.372C175.664 145.236 175.416 144.94 175.416 144.34C175.416 144.14 175.416 143.972 175.52 143.403L178.112 128.371H180.232C181.312 128.371 181.464 128.203 181.768 126.403L182.4 122.859H181.648C181.4 123.691 181.072 123.931 180.192 123.931H171.36C170.08 123.931 169.928 124.099 169.6 126.003L169 129.515H169.704C169.984 128.579 170.232 128.379 171.216 128.411L172.8 128.379L170 144.396ZM179.784 144.396C179.736 144.66 179.712 144.964 179.712 145.164C179.712 145.868 180.088 146.196 180.944 146.196H188.528C189.784 146.196 190.088 145.932 190.336 144.428L191.064 140.187H190.36C190.08 141.291 189.76 141.523 188.32 141.523H185.608L186.488 136.379H189.984C191.241 136.379 191.521 136.147 191.769 134.643L192.249 131.939H187.272L187.904 128.163H191.729C192.985 128.163 193.265 127.899 193.537 126.395L193.961 123.923H183.312L179.784 144.396Z" fill="#F47937"/>
<path fill-rule="evenodd" clip-rule="evenodd" d="M48.1787 162.285L50.8348 158.741L45.8346 155.805L49.5147 152.86L44.8105 148.82H170.16L165.455 152.86L169.136 155.805L164.135 158.741L166.791 162.285H48.1787Z" fill="#1B4383"/>
<path fill-rule="evenodd" clip-rule="evenodd" d="M62.2515 156.274H62.6835C63.3875 156.274 64.4996 156.266 64.4996 156.97C64.4996 157.666 63.4595 157.682 62.7395 157.682H62.2435V156.274H62.2515ZM62.2515 154.49V153.274H62.5555C63.1955 153.274 64.0115 153.226 64.0115 153.858C64.0115 154.442 63.2915 154.49 62.6515 154.49H62.2515ZM58.1953 159.698H64.1476C66.2516 159.698 68.5557 159.106 68.5557 157.362C68.5557 156.354 67.7237 155.674 66.4196 155.354V155.29C67.4757 155.058 68.0037 154.322 68.0037 153.586C68.0037 151.634 65.6276 151.242 63.2915 151.242H58.1953V159.698ZM80.8122 159.698H89.0365V157.386H85.2204V156.554H88.5885V154.354H85.2204V153.546H88.9085V151.234H80.8122V159.698ZM106.717 156.634L107.517 154.05H107.677C107.757 154.41 107.837 154.778 107.965 155.138L108.477 156.634H106.717ZM105.933 158.642H109.237L109.637 159.698H114.27L109.973 151.226H105.133L100.949 159.698H105.581L105.933 158.642ZM130.358 153.546H130.694C131.446 153.546 132.102 153.626 132.102 154.274C132.102 154.906 131.382 154.978 130.662 154.978H130.358V153.546ZM126.078 159.698H130.358V156.978H130.438L132.35 159.698H137.398L134.782 156.946C134.542 156.698 134.27 156.562 134.046 156.442V156.378C135.678 155.994 136.374 155.458 136.374 154.178C136.374 152.042 134.078 151.234 131.358 151.234H126.07V159.698H126.078ZM148.151 159.058C149.511 159.538 151.263 159.834 152.783 159.834C155.383 159.834 158.007 158.834 158.007 156.81C158.007 155.37 156.663 154.674 154.815 154.386L153.823 154.226C153.487 154.17 152.943 154.122 152.943 153.81C152.943 153.466 153.503 153.362 153.887 153.362C154.831 153.362 155.679 153.642 156.423 154.002L157.607 151.834C156.423 151.33 155.167 151.09 153.791 151.09C151.175 151.09 148.567 152.21 148.567 154.226C148.567 155.554 150.007 156.258 151.711 156.474L152.591 156.586C152.991 156.642 153.567 156.674 153.567 157.058C153.567 157.442 152.879 157.562 152.447 157.562C151.439 157.562 150.495 157.218 149.719 156.786L149.495 156.666L148.151 159.058Z" fill="white"/>
</g>
<defs>
<clipPath id="clip0_154_2395">
<rect width="200" height="200" fill="white"/>
</clipPath>
</defs>
</svg>
