<svg width="200" height="200" viewBox="0 0 200 200" fill="none" xmlns="http://www.w3.org/2000/svg">
<g clip-path="url(#clip0_154_2398)">
<path d="M150.223 149.648C177.837 122.034 177.837 77.2627 150.223 49.6484C122.608 22.0342 77.8369 22.0342 50.2227 49.6484C22.6084 77.2627 22.6084 122.034 50.2227 149.648C77.8369 177.263 122.608 177.263 150.223 149.648Z" fill="white"/>
<path d="M100.222 163.431C65.0638 163.431 36.4375 134.805 36.4375 99.6474C36.4375 64.4896 65.0638 35.8633 100.222 35.8633C135.379 35.8633 164.006 64.4896 164.006 99.6474C164.006 134.805 135.379 163.431 100.222 163.431ZM100.222 37.0369C65.6761 37.0369 37.6111 65.1019 37.6111 99.6474C37.6111 134.193 65.6761 162.258 100.222 162.258C134.767 162.258 162.832 134.193 162.832 99.6474C162.832 65.1019 134.767 37.0369 100.222 37.0369Z" fill="#007A53"/>
<path d="M99.9665 149.859C72.1056 149.859 49.3984 127.152 49.3984 99.2907C49.3984 71.4298 72.0546 48.7227 99.9665 48.7227C127.878 48.7227 150.535 71.3788 150.535 99.2907C150.535 127.152 127.827 149.859 99.9665 149.859ZM99.9665 49.8963C72.7179 49.8963 50.5721 72.0421 50.5721 99.2907C50.5721 126.539 72.7179 148.685 99.9665 148.685C127.215 148.685 149.361 126.539 149.361 99.2907C149.361 72.0421 127.215 49.8963 99.9665 49.8963Z" fill="black"/>
<mask id="mask0_154_2398" style="mask-type:luminance" maskUnits="userSpaceOnUse" x="92" y="95" width="33" height="37">
<path fill-rule="evenodd" clip-rule="evenodd" d="M118.8 98.0687C115.075 96.742 110.048 95.3591 104.997 95.6143L108.012 104.687L104.481 105.906L105.369 103.534L102.945 95.4102L102.267 95.4612L102.879 106.279L101.756 106.483L102.573 108.473L101.348 109.494L102.165 110.616L101.042 112.657C102.022 115.801 101.068 116.393 99.5419 116.474L99.649 116.26L97.9294 116.433V116.791C96.3374 116.607 94.4596 116.586 92.4746 116.515C92.8522 117.699 93.9646 119.429 94.0769 119.572C95.4393 121.281 97.0365 122.797 98.5877 123.832C97.8733 125.873 97.0569 127.404 95.6791 128.476L102.92 125.526L100.996 125.598C103.65 124.73 104.548 124.429 105.874 123.052C108.069 128.256 112.753 131.226 118.825 131.481L118.861 120.546C117.585 118.556 115.794 116.842 114.161 114.852C115.284 115.515 116.794 116.888 118.427 116.888L118.396 114.101L116.315 113.183L116.692 113.168L115.029 112.525C114.345 112.734 113.406 112.571 112.477 111.744C114.365 111.336 116.07 110.142 117.396 108.917C119.233 107.284 121.331 107.044 122.351 109.8L123.984 115.362L124.601 115.239L118.8 98.0687Z" fill="white"/>
</mask>
<g mask="url(#mask0_154_2398)">
<path fill-rule="evenodd" clip-rule="evenodd" d="M91.5469 94.9023H124.97V131.948H91.5469V94.9023Z" fill="url(#paint0_radial_154_2398)"/>
</g>
<mask id="mask1_154_2398" style="mask-type:luminance" maskUnits="userSpaceOnUse" x="65" y="80" width="38" height="36">
<path fill-rule="evenodd" clip-rule="evenodd" d="M102.877 95.2018L100.208 86.3077C96.3303 82.5317 90.5132 80.511 84.7471 80.511C83.4459 80.4855 82.109 80.6131 80.7823 80.8172C73.8426 81.8888 67.6173 85.971 65.6782 93.1658V93.2679H65.5762C65.4231 93.2679 65.3211 93.3189 65.168 93.3189V93.8751L65.5047 93.8445C65.3006 98.7941 68.7909 103.922 70.6279 104.637L70.2962 106.326C69.2246 108.724 67.3621 110.561 65.27 112.041L73.1793 110.388H71.7199C73.5569 109.877 75.603 109.561 76.4195 108.642C79.3791 114.817 82.8693 114.419 96.1875 115.388V103.723C94.2994 100.968 92.7176 99.5136 90.7786 97.3194C92.6666 98.5951 94.4015 99.7381 96.5447 100.759L96.4426 98.5696L94.8454 96.9725H95.7231L94.3199 95.855C93.7994 95.707 93.335 95.4569 92.4676 94.6915C93.8963 94.9977 94.9118 95.0436 96.1364 94.4313C98.8409 92.6964 100.372 93.4618 102.26 94.8905V95.2477L102.877 95.2018Z" fill="white"/>
</mask>
<g mask="url(#mask1_154_2398)">
<path fill-rule="evenodd" clip-rule="evenodd" d="M64.3984 79.2539H103.281V115.738H64.3984V79.2539Z" fill="url(#paint1_radial_154_2398)"/>
</g>
<path d="M101.904 86.2266C105.068 81.5831 108.946 78.0112 113.13 75.2557C120.733 74.8985 129.306 75.868 134.256 78.1643C130.735 80.8687 127.877 83.4711 124.969 86.992C118.08 84.8999 110.477 83.8283 102.21 87.043L101.904 86.2266Z" fill="#FFEBB7"/>
<path d="M104.508 94.0809L102.824 89.0803C109.254 85.8145 119.255 87.7025 123.745 88.8762L119.204 96.5813C115.224 95.0505 108.437 93.7748 104.508 94.0809Z" fill="#FFEBB7"/>
<path d="M120.275 98.2156V98.3176L125.888 115.412H124.918L118.948 97.9094V97.8584H118.897C115.131 96.4857 110.1 95.1131 104.966 95.358L104.624 94.3375C108.559 94.0875 115.33 95.358 119.254 96.8889H119.356L119.407 96.7868L124.102 88.8266L124.204 88.6735L124 88.6224C119.621 87.4488 109.452 85.4179 102.767 88.7551L102.303 87.3672C110.533 84.1933 118.055 85.2138 124.918 87.3468L125.02 87.3978L125.071 87.3468C128.031 83.7238 130.939 81.0704 134.562 78.3149L134.766 78.1618L134.562 78.0598C129.618 75.7176 121.081 74.7022 113.437 75.0033C115.07 73.9368 116.743 72.9877 118.432 72.1406C126.377 72.457 133.659 74.6971 141.349 77.4475C132.419 81.9889 123.642 89.3878 120.275 98.2156Z" fill="#F3CC2F"/>
<path d="M101.599 86.275L107.671 104.543L104.865 105.512L105.681 103.726V103.624L100.528 86.3261V86.275L100.477 86.224C95.629 81.4785 87.8728 79.5394 80.8311 80.662C73.8403 81.7846 67.513 85.8668 65.5229 93.1637C61.0835 93.7761 60.165 94.8476 57.9709 95.9192C57.4606 76.886 68.0232 63.1597 82.4639 57.4957C96.9047 51.8316 115.223 54.2299 130.225 67.446C120.53 70.2015 109.1 75.2532 101.65 86.173L101.599 86.224V86.275Z" fill="#F3CC2F"/>
<path d="M65.3692 74.5405C73.3805 63.1614 84.9127 59.0792 95.9346 58.9772C106.854 58.8241 117.315 62.6001 123.438 66.9884C119.356 68.5703 115.07 70.7134 110.171 73.9792C102.772 69.3867 92.4647 66.9884 83.4329 69.2847C74.401 71.5809 66.6449 78.5206 64.5017 92.4511C62.4096 92.8593 60.5726 93.1144 58.6336 94.3901C58.5315 85.9196 61.287 80.7148 65.3692 74.5405Z" fill="#FFEBB7"/>
<path d="M79.7598 73.1625C87.2608 69.8457 96.956 70.254 107.315 76.6834C104.661 79.3878 102.773 82.3474 100.987 85.358C99.0991 82.6026 92.4146 79.592 85.0666 79.5409C77.8208 79.4389 69.9626 82.2454 65.5742 90.971C67.3602 82.9087 72.565 76.3262 79.7598 73.1625Z" fill="#FFEBB7"/>
<path d="M126.145 115.617V115.771H126.349L126.298 115.566L126.145 115.617Z" fill="#007A53"/>
<path d="M141.759 77.2937C134.12 74.5433 126.889 72.3032 118.944 71.8899C122.853 69.9815 126.823 68.6038 130.533 67.5475L130.788 67.4965L130.584 67.3434C115.48 53.8722 96.9566 51.4229 82.3628 57.1379C67.769 62.904 57.0533 76.7834 57.6656 96.1228V96.3269L57.8697 96.2248C60.319 95.1022 61.0334 94.0307 65.6259 93.3673H65.7279V93.2653C67.6669 86.0704 73.8923 81.9882 80.832 80.9167C87.7717 79.7941 95.3748 81.6821 100.171 86.3255L105.325 103.522L104.509 105.716L104.407 105.971L104.713 105.869L107.927 104.746L108.081 104.695L108.03 104.542L105.07 95.6635C110.101 95.4186 115.03 96.7912 118.745 98.1128L124.664 115.666L124.715 115.768H124.818V115.717H126.042V115.564L126.195 115.513L120.531 98.2659C123.899 89.4382 132.778 82.0392 141.759 77.5488L142.065 77.3958L141.759 77.2937ZM107.672 104.542L104.866 105.512L105.682 103.726V103.624L100.529 86.3255V86.2745L100.477 86.2235C95.6299 81.4779 87.8738 79.5389 80.832 80.6615C73.8412 81.7841 67.5139 85.8663 65.5238 93.1632C61.0844 93.7755 60.1659 94.8471 57.9718 95.9187C57.4615 76.8855 68.0241 63.1592 82.4649 57.4951C96.9056 51.8311 115.224 54.2294 130.226 67.4454C120.531 70.2009 109.101 75.2526 101.651 86.1725L101.6 86.2235V86.2745L107.672 104.542ZM112.979 75.3088C120.572 74.9567 129.267 75.9211 134.207 78.2122C130.737 80.8656 127.828 83.519 124.92 87.0399C118.041 84.9019 110.453 83.8813 102.207 87.0756L101.906 86.1725C105.029 81.5902 108.866 78.0642 112.979 75.3088ZM102.855 89.0147C109.285 85.7183 119.261 87.6523 123.746 88.8259L119.205 96.531C115.229 95.0002 108.458 93.7806 104.524 94.0307L102.855 89.0147ZM120.276 98.2149V98.317L125.889 115.411H124.92L118.949 97.9087V97.8577H118.898C115.133 96.4851 110.101 95.1124 104.968 95.3574L104.626 94.3368C108.56 94.0868 115.332 95.3574 119.256 96.8882H119.358L119.409 96.7861L124.103 88.8259L124.205 88.6728L124.001 88.6218C119.623 87.4481 109.453 85.4173 102.769 88.7544L102.304 87.3665C110.535 84.1926 118.056 85.2131 124.92 87.3461L125.022 87.3971L125.073 87.3461C128.032 83.7232 130.941 81.0697 134.564 78.3143L134.768 78.1612L134.564 78.0591C129.619 75.717 121.082 74.7015 113.438 75.0026C115.071 73.9361 116.745 72.987 118.434 72.14C126.379 72.4563 133.661 74.6964 141.35 77.4468C132.421 81.9882 123.644 89.3872 120.276 98.2149Z" fill="#007A53"/>
<path d="M107.623 76.5278C97.1626 69.9963 87.3143 69.5371 79.6602 72.9049C72.0061 76.2727 66.5972 83.4675 65.0664 92.0911L65.3215 92.1422C69.5058 82.7021 77.5681 79.7425 85.0181 79.7936C92.4681 79.8956 99.3057 83.0593 100.837 85.7127L100.939 85.6617L100.969 85.6719L100.888 85.7127L101.041 85.9168L101.143 85.7127L101.102 85.6974C102.939 82.5899 104.873 79.5333 107.623 76.783L107.776 76.6299L107.623 76.5278ZM100.99 85.3555C99.1016 82.6001 92.417 79.6405 85.0691 79.5384C77.8232 79.4874 69.965 82.2429 65.5767 91.0196C67.3626 82.9573 72.5674 76.3747 79.7623 73.211C82.7729 71.8843 86.0897 71.1189 89.6616 71.1189C95.1215 71.1189 101.092 72.8539 107.317 76.6809C104.613 79.3853 102.725 82.3449 100.99 85.3555Z" fill="#007A53"/>
<path d="M94.1504 135.16L94.4566 137.099C100.376 136.028 105.019 137.865 108.336 144.039C107.877 138.63 104.305 136.181 100.121 135.16H94.1504Z" fill="#007A53"/>
<path d="M123.848 66.9349C117.725 62.3934 107.111 58.5154 95.987 58.6684C84.8631 58.7705 73.2288 62.9037 65.1155 74.3848C61.0333 80.6102 58.2268 85.917 58.3289 94.6427L58.3799 94.8978L58.5636 94.76L58.584 94.7958C60.5741 93.418 62.4621 93.1119 64.6562 92.7036H64.7583V92.6016C66.8504 78.7222 74.5045 71.8335 83.4853 69.5883C92.4661 67.2921 102.774 69.6903 110.071 74.2828L110.173 74.3338L110.275 74.2828C115.275 70.966 119.664 68.8229 123.797 67.19L124.052 67.0879L123.848 66.9349ZM110.173 73.9766C102.825 69.3842 92.4661 66.9859 83.4343 69.2821C74.4025 71.5273 66.6463 78.5181 64.5032 92.4485C62.411 92.8567 60.5741 93.1119 58.635 94.3875C58.584 85.917 61.3395 80.7122 65.3706 74.5379C73.3819 63.2099 84.9141 59.0767 95.936 58.9746C106.856 58.8215 117.316 62.5975 123.44 66.9859C119.358 68.6188 115.071 70.7109 110.173 73.9766Z" fill="#007A53"/>
<path d="M111.705 131.283C109.612 129.344 107.673 129.497 105.428 125.466L100.887 125.619C103.54 124.752 104.561 124.395 105.887 123.017C108.082 128.222 112.725 131.181 118.797 131.436V120.619C117.522 118.629 115.583 116.639 113.95 114.648C115.072 115.312 116.756 116.843 118.389 116.843L118.338 114.138L116.246 113.169L119.971 113.016L119.818 132.406C114.154 130.671 112.368 132.355 109.153 135.468L111.705 131.283Z" fill="#007A53"/>
<path d="M97.0095 124.393L93.7948 119.137C95.2235 121.025 96.9585 122.709 98.6424 123.831C97.3667 127.454 95.7338 129.495 91.3965 130.312C93.5907 128.577 96.3972 127.352 97.0095 124.393Z" fill="#007A53"/>
<path d="M121.603 111.379C120.991 109.746 120.021 108.521 118.388 109.95C117.061 111.328 115.02 114.032 112.418 111.736C114.306 111.328 116.092 110.052 117.419 108.828C119.256 107.195 121.399 107.042 122.419 109.797L124.818 118.013L123.542 118.319L121.603 111.379Z" fill="#007A53"/>
<path d="M122.574 131.537L121.656 129.904L123.186 126.588L122.37 125.108L123.39 123.475L122.574 120.822L124.768 119.75L124.156 121.74L124.819 123.73L124.156 125.006L124.819 126.486L123.186 130.006L124.666 132.558H120.992L122.574 131.537Z" fill="#007A53"/>
<path d="M58.4297 118.217L59.7054 120.615C63.9917 119.696 70.268 118.778 75.0646 129.034C74.7584 118.982 64.604 116.992 58.4297 118.217Z" fill="#007A53"/>
<path d="M81.0898 120.465C84.4576 120.261 86.6008 118.73 86.3967 116.434L88.6419 116.74L87.5193 117.709C87.4172 120.363 86.0395 121.383 83.7943 121.281C90.9381 126.741 93.5915 136.334 94.1528 143.427C90.734 135.416 89.1522 127.302 81.0898 120.465Z" fill="#007A53"/>
<path d="M69.046 105.717C66.1885 104.034 64.2494 99.0329 64.3515 93.9302L65.5251 93.8281C65.321 98.8288 68.8419 103.88 70.6789 104.595L70.3217 106.33C69.1481 109.034 66.8518 111.075 64.4536 112.606C65.219 109.698 69.1481 109.698 69.046 105.717Z" fill="#007A53"/>
<path d="M75.9335 110.413H71.4941C73.3311 109.902 75.6274 109.443 76.4438 108.576C79.4034 114.75 82.8222 114.342 96.1403 115.311V103.728C94.2523 100.973 92.4664 99.2887 90.5273 97.0945C92.4153 98.3702 94.3544 99.5948 96.4975 100.615L96.3955 98.5743L94.7626 96.9414H97.9773V116.893C91.4458 116.179 80.1688 117.454 75.9335 110.413Z" fill="#007A53"/>
<path d="M100.479 114.342L99.5606 112.454L100.683 110.872L100.224 109.392L101.091 108.27L100.326 106.229L101.806 105.463L101.244 95.5129C100.326 94.8495 98.7441 94.4413 97.4174 95.1557C95.1212 96.3293 94.1517 96.3293 92.2637 94.5944C93.6924 94.9006 94.9681 95.0026 96.1928 94.3903C98.8972 92.6554 100.428 93.4208 102.316 94.8495L102.979 106.28L101.857 106.484L102.724 108.474L101.5 109.494L102.316 110.617L101.193 112.658C102.214 115.924 101.142 116.434 99.5095 116.485L100.479 114.342Z" fill="#007A53"/>
<path d="M47.2569 98.5222L46.8487 98.4712L46.8997 97.8589C46.8997 97.7058 46.8997 97.6037 46.7976 97.5017C46.7466 97.4507 46.5935 97.3996 46.3894 97.3486L40.2151 96.7873C40.062 96.7873 39.909 96.7873 39.8579 96.8383C39.8069 96.8894 39.7559 97.0424 39.7559 97.2466L39.7048 97.7058L39.3477 97.6548L39.6028 94.4911L44.3994 91.5825L40.8274 91.2764C40.5723 91.2764 40.4192 91.2764 40.3682 91.3274C40.2661 91.3784 40.2151 91.5315 40.2151 91.7866L40.1641 92.2969L39.8069 92.2459L40.011 89.7455L40.3682 89.7966L40.3172 90.2558C40.3172 90.4599 40.3172 90.613 40.4192 90.664C40.5213 90.7661 40.6233 90.8171 40.8785 90.8171L47.9713 91.4294L47.9202 91.7356L40.4192 96.277L46.4915 96.7873C46.6446 96.7873 46.7466 96.7873 46.7976 96.6853C46.8997 96.6342 46.9507 96.5322 46.9507 96.3791L47.0017 95.6647L47.41 95.7157L47.2569 98.5222ZM47.1548 77.6011L47.563 76.6826C47.7672 76.2743 47.8182 75.9682 47.7161 75.713C47.6141 75.5089 47.3079 75.2538 46.7466 74.9987C46.0322 74.6925 45.624 74.5394 45.4199 74.5904C45.2158 74.6415 45.0117 74.8966 44.8076 75.3559L44.3994 76.2743L47.1548 77.6011ZM49.6041 81.9384L50.0124 81.0709L43.5319 78.0603L43.1237 78.9278L42.8175 78.7747L44.6545 74.7945C45.0117 73.9781 45.4709 73.4168 45.9302 73.1106C46.3894 72.8045 46.8997 72.7535 47.41 73.0086C47.9202 73.2637 48.2264 73.6209 48.3285 74.1822C48.4305 74.7435 48.3285 75.4069 48.0223 76.1723L48.1243 76.2233C48.5836 75.5089 49.0939 75.0497 49.6041 74.8966C50.1144 74.7435 50.8288 74.8966 51.6452 75.2538C52.0024 75.4069 52.2065 75.5089 52.3596 75.4579C52.5127 75.4579 52.6148 75.3558 52.7168 75.1517C52.7678 75.1007 52.7678 74.9987 52.8189 74.8966C52.8189 74.7945 52.8699 74.6925 52.8699 74.5904L53.2271 74.6415C53.2271 74.9476 53.1761 75.2028 53.1761 75.4579C53.125 75.713 53.074 75.9171 53.023 76.0702C52.8699 76.3764 52.7168 76.6315 52.5127 76.8356C52.3086 77.0397 52.1045 77.1928 51.8493 77.2439C51.3901 77.3969 50.7778 77.2439 49.9103 76.8867C49.8083 76.8356 49.7062 76.7846 49.6552 76.7846C49.1449 76.5805 48.7367 76.5295 48.4815 76.6315C48.1754 76.7336 47.9202 77.0397 47.7161 77.55L47.6141 77.7541L50.9309 79.2849L51.3391 78.3665L51.6963 78.5195L50.0124 82.0914L49.6041 81.9384ZM53.3291 74.9476L52.9719 74.7435L53.4312 73.9271L47.2569 70.3552L46.7976 71.1716L46.4915 70.9675L49.8593 65.1504L51.9004 66.222L51.6963 66.5792C50.9819 66.375 50.4206 66.375 50.0124 66.4771C49.6041 66.6302 49.2469 66.9363 48.9408 67.4976L48.3285 68.5692L51.135 70.2021L51.186 70.1C51.186 70.049 51.237 69.998 51.288 69.947C51.4922 69.5898 51.5432 69.2326 51.4922 68.9264C51.3901 68.6202 51.135 68.3141 50.7778 68.0079L50.9819 67.6507L53.8904 69.3346L53.6863 69.6918C53.1761 69.4367 52.7678 69.3857 52.4617 69.4367C52.1555 69.5387 51.8493 69.7428 51.6452 70.1511L51.5432 70.3552L54.5538 72.0901L55.1151 71.0696L55.4723 71.2737L53.3291 74.9476ZM44.0932 89.4394C43.5829 89.2863 43.1237 89.0822 42.6644 88.776C42.2562 88.4699 41.899 88.0616 41.5929 87.6024C41.2867 87.0921 41.0826 86.5819 40.9805 86.0716C40.8785 85.5613 40.9295 85.051 41.0316 84.4897C41.1846 83.9284 41.3887 83.4692 41.6949 83.061C42.0011 82.6527 42.4093 82.2956 42.9196 81.9894C43.4298 81.6832 43.9401 81.5302 44.4504 81.4281C44.9607 81.326 45.4709 81.3771 45.9812 81.4791C46.4915 81.6322 46.9507 81.8363 47.41 82.1425C47.8182 82.4486 48.1754 82.8569 48.4815 83.3671C48.7877 83.8774 48.9918 84.3877 49.0428 84.8469C49.1449 85.3572 49.0939 85.8675 48.9408 86.4288C48.7877 86.9901 48.5836 87.4493 48.2774 87.8575C47.9713 88.2658 47.563 88.6229 47.0528 88.9291C46.5935 89.2353 46.0833 89.3884 45.522 89.4904C45.1137 89.5925 44.6035 89.5414 44.0932 89.4394ZM44.6545 87.1432C45.624 87.3983 46.2874 87.5514 46.6956 87.6024C47.0528 87.6534 47.3589 87.6534 47.563 87.6534C47.8692 87.6024 48.1243 87.5003 48.2774 87.2962C48.4305 87.0921 48.5836 86.837 48.6856 86.4288C48.7877 86.0205 48.7877 85.7144 48.7367 85.4592C48.6857 85.2041 48.5326 85 48.2774 84.7959C48.1243 84.6428 47.8182 84.5408 47.461 84.3877C47.0528 84.2346 46.4404 84.0815 45.522 83.8264C44.6035 83.6223 43.9401 83.4692 43.5319 83.3671C43.1237 83.3161 42.8175 83.3161 42.5624 83.3161C42.2562 83.3671 42.0011 83.4692 41.848 83.6733C41.6439 83.8774 41.5418 84.1836 41.4398 84.5408C41.3377 84.949 41.3377 85.2551 41.3887 85.5103C41.4398 85.7654 41.5929 85.9695 41.848 86.1736C42.0011 86.3267 42.2562 86.4288 42.6134 86.5308C43.0216 86.7349 43.685 86.888 44.6545 87.1432ZM62.2589 62.599L62.0038 62.2929L62.6161 61.7316L57.7685 56.5268L57.1562 57.0881L56.901 56.8329L59.7586 54.1795L60.0137 54.4347L59.1973 55.2001L64.0449 60.4049L64.8613 59.6394C65.3205 59.1802 65.5757 58.721 65.6267 58.2107C65.6777 57.7004 65.4736 57.0881 65.0654 56.3737L65.3205 56.1186L67.0555 58.1086L62.2589 62.599ZM53.7374 66.6812C53.3291 66.324 52.9719 65.9668 52.7678 65.5076C52.5127 65.0483 52.3596 64.5381 52.3086 63.9768C52.2576 63.3644 52.2576 62.8542 52.4106 62.3439C52.5637 61.8336 52.7678 61.3744 53.125 60.9662C53.4822 60.5069 53.8904 60.2007 54.3497 59.9456C54.8089 59.6905 55.3192 59.5884 55.9315 59.4864C56.4928 59.4353 57.0541 59.4864 57.5134 59.6394C58.0236 59.7925 58.4829 60.0477 58.8911 60.3538C59.2993 60.711 59.6565 61.1192 59.9117 61.5785C60.1668 62.0377 60.3199 62.548 60.3709 63.1093C60.4219 63.6706 60.4219 64.2319 60.2688 64.7422C60.1158 65.2524 59.8606 65.7117 59.5545 66.1199C59.1973 66.5792 58.7891 66.8853 58.3298 67.1405C57.8706 67.3956 57.3603 67.5487 56.799 67.5997C56.2377 67.6507 55.7274 67.5997 55.2171 67.4466C54.6048 67.2425 54.1456 67.0384 53.7374 66.6812ZM55.2171 64.8442C55.9826 65.4566 56.5439 65.9158 56.85 66.1199C57.1562 66.324 57.4113 66.4771 57.6154 66.5281C57.9216 66.6302 58.1767 66.5792 58.4319 66.4771C58.687 66.375 58.9421 66.1709 59.1973 65.8648C59.4524 65.5586 59.6055 65.2524 59.6565 64.9973C59.7075 64.7422 59.6565 64.487 59.5034 64.1809C59.4014 63.9768 59.1973 63.7727 58.9421 63.4665C58.636 63.1603 58.1257 62.7521 57.4113 62.1398C56.6969 61.5275 56.1356 61.1192 55.8295 60.9151C55.4723 60.711 55.2171 60.5579 55.013 60.5069C54.7069 60.4049 54.4517 60.4049 54.1966 60.5069C53.9415 60.609 53.6863 60.8131 53.4312 61.1192C53.1761 61.4254 53.023 61.7316 52.9719 61.9867C52.9209 62.2418 52.9719 62.497 53.125 62.8031C53.2271 63.0072 53.3802 63.2114 53.6863 63.4665C53.9415 63.7727 54.4517 64.2319 55.2171 64.8442ZM78.2815 51.4241L77.465 49.2809L77.8733 49.1278C78.2815 49.6891 78.7407 50.0463 79.251 50.2504C79.7613 50.4035 80.2715 50.4035 80.7818 50.1994C81.2411 49.9953 81.5983 49.7402 81.8534 49.3319C82.0575 48.9747 82.1085 48.5665 81.9554 48.1583C81.8534 47.9542 81.7513 47.8011 81.6493 47.6991C81.4962 47.597 81.3431 47.495 81.139 47.4439C80.8839 47.3929 80.4246 47.3929 79.7613 47.495C79.5061 47.546 79.3531 47.546 79.2 47.546C78.4346 47.648 77.8222 47.597 77.363 47.3419C76.9037 47.1378 76.5465 46.7295 76.3424 46.1172C76.0873 45.4028 76.0873 44.7905 76.3424 44.1782C76.5976 43.5658 77.1078 43.1576 77.7712 42.9025C78.0774 42.8004 78.3325 42.7494 78.5876 42.6984C78.8428 42.6984 79.1489 42.6984 79.4041 42.8004L79.6592 42.3412L80.0164 42.1881L80.7818 44.1272L80.4246 44.2802C80.0674 43.77 79.6592 43.4128 79.2 43.2597C78.7407 43.1066 78.2815 43.1066 77.7712 43.3107C77.363 43.4638 77.0568 43.7189 76.8527 44.0251C76.6486 44.3313 76.6486 44.6374 76.7507 44.9436C76.9548 45.4028 77.5671 45.5559 78.6387 45.4028C78.7917 45.4028 78.8938 45.3518 78.9448 45.3518C79.9654 45.1987 80.6798 45.2498 81.2411 45.5049C81.7513 45.76 82.1595 46.2193 82.4147 46.9847C82.7209 47.7501 82.7209 48.4134 82.4147 49.1278C82.1085 49.7912 81.6493 50.2504 80.8839 50.5566C80.5267 50.7097 80.1695 50.7607 79.8633 50.8117C79.5572 50.8628 79.251 50.8117 78.9448 50.7097L78.5876 51.322L78.2815 51.4241ZM66.8003 57.9045L67.5657 57.3432L63.4836 51.5261L62.7182 52.0874L62.514 51.7812L65.7288 49.536L65.9329 49.8422L65.1675 50.4035L69.2496 56.2206L70.0151 55.6593L70.2192 55.9655L67.0044 58.2107L66.8003 57.9045ZM67.1065 52.9038L67.7699 48.9747V48.8217L67.7188 48.7196L67.6168 48.6686L67.4637 48.7196L66.8003 49.1789L66.5962 48.8727L68.9945 47.1888L69.1986 47.495L68.7904 47.7501C68.5863 47.9032 68.4332 48.0563 68.3822 48.2093C68.2801 48.3624 68.2291 48.6176 68.127 48.9747L67.7188 51.322L73.1787 53.4141L73.9442 52.8528L74.1483 53.159L70.6784 55.5573L70.5253 55.2511L71.2907 54.6898L67.2086 53.108L67.1065 52.9038ZM85.1702 48.8727L85.0681 48.5155L85.9866 48.2604L84.1496 41.3717L83.7414 41.4737C83.2311 41.6268 82.8739 41.8819 82.6698 42.2391C82.4657 42.6474 82.3637 43.2597 82.3637 44.0761L82.0575 44.1782L81.4962 41.6778L88.589 39.7898L89.3544 42.2391L89.0482 42.3412C88.64 41.6268 88.2318 41.1676 87.8746 40.9124C87.5174 40.6573 87.0582 40.6063 86.5989 40.7593L86.1907 40.8614L88.0277 47.7501L88.9462 47.495L89.0482 47.8521L85.1702 48.8727ZM97.978 46.7806V46.3724H98.9475L98.8455 39.2285H98.4373C97.927 39.2285 97.5188 39.3816 97.2126 39.7388C96.9064 40.045 96.6513 40.6573 96.4472 41.4737H96.141L96.1921 38.9224L103.54 38.8203L103.693 41.3717H103.387C103.132 40.6063 102.877 40.045 102.57 39.6878C102.264 39.3816 101.856 39.2285 101.346 39.2285H100.887L100.989 46.3724H101.958V46.7806H97.978ZM89.5075 47.6991L89.4565 47.2908L89.9157 47.2398C90.0688 47.2398 90.1198 47.1888 90.2219 47.0867C90.2729 46.9847 90.3749 46.8316 90.426 46.5765L92.263 39.2796L92.7222 39.2285L96.6003 46.4744L97.3147 46.3724L97.3657 46.7806L93.5897 47.2398L93.5386 46.8316L94.5082 46.7295L93.5897 44.9946L91.1914 45.3008L90.8342 46.6785V46.9337C90.8342 46.9847 90.8852 47.0357 90.9362 47.0867C90.9873 47.1378 91.0893 47.1378 91.1914 47.1378L91.9058 47.0357L91.9568 47.4439L89.5075 47.6991ZM91.2424 44.8415L93.3856 44.5864L92.0078 41.984L91.2424 44.8415ZM103.591 46.8826L103.642 46.4744L104.612 46.5765L105.479 39.4837L104.612 39.4326L104.663 39.0754L111.194 39.8919L110.99 41.933L110.582 41.8819C110.378 41.1676 110.174 40.7083 109.918 40.4532C109.663 40.198 109.306 40.045 108.745 39.9429L107.418 39.7898L107.01 43.0045H107.265C107.673 43.0556 108.03 43.0045 108.286 42.8004C108.541 42.5963 108.694 42.2391 108.847 41.7799L109.255 41.8309L108.847 45.1477L108.439 45.0967C108.439 44.5354 108.388 44.1272 108.183 43.872C107.979 43.6169 107.673 43.4638 107.163 43.4128L106.959 43.3617L106.551 46.8316L107.877 46.9847C108.541 47.0867 109.051 46.9337 109.459 46.6785C109.867 46.3724 110.225 45.8621 110.531 45.0967L110.888 45.1477L110.48 47.7501L103.591 46.8826ZM116.552 47.1378L118.491 42.0861L117.624 41.7799L117.777 41.4227L121.451 42.8515L121.297 43.2087L120.328 42.8515L118.389 47.8521C118.134 48.4645 118.083 48.9747 118.236 49.3319C118.389 49.6891 118.695 49.9953 119.205 50.1994C119.46 50.3015 119.767 50.3525 120.022 50.3525C120.277 50.3525 120.532 50.3015 120.736 50.2504C120.991 50.1484 121.195 49.9953 121.349 49.7912C121.502 49.5871 121.706 49.1789 121.961 48.5665L122.012 48.4645L123.441 44.7395C123.543 44.4843 123.543 44.3313 123.543 44.2292C123.492 44.1272 123.39 44.0251 123.134 43.9741L122.777 43.821L122.93 43.4638L125.278 44.3823L125.125 44.7395L124.767 44.5864C124.512 44.4843 124.308 44.4333 124.206 44.4843C124.104 44.5354 124.002 44.6885 123.9 44.8926L122.42 48.7196C122.216 49.2809 122.012 49.6381 121.859 49.8932C121.706 50.0973 121.553 50.3015 121.349 50.4035C120.991 50.6076 120.634 50.7607 120.175 50.7607C119.716 50.7607 119.205 50.6586 118.644 50.4545C117.675 50.0973 117.062 49.6381 116.705 49.0768C116.348 48.4645 116.297 47.8011 116.552 47.1378ZM122.267 51.7302L122.471 51.373L122.981 51.6792C123.134 51.7812 123.237 51.7812 123.339 51.7302C123.441 51.6792 123.543 51.5771 123.594 51.4241L126.604 46.0152C126.706 45.8621 126.706 45.76 126.706 45.658C126.655 45.5559 126.553 45.5049 126.4 45.4028L125.992 45.1477L126.145 44.8415L128.952 46.3724L129.666 51.9343L131.401 48.8217C131.503 48.6176 131.554 48.4645 131.554 48.3624C131.503 48.2604 131.401 48.1583 131.197 48.0563L130.738 47.8011L130.891 47.495L133.085 48.7196L132.932 49.0258L132.523 48.8217C132.37 48.7196 132.217 48.6686 132.115 48.7196C132.013 48.7706 131.911 48.8727 131.809 49.0768L128.288 55.2511L127.982 55.098L126.91 46.4234L123.951 51.7302C123.9 51.8323 123.849 51.9854 123.9 52.0874C123.951 52.1895 124.002 52.2915 124.155 52.3425L124.767 52.6997L124.563 53.0569L122.267 51.7302ZM129.105 55.6083L129.309 55.3021L130.125 55.8634L134.207 49.9953L133.391 49.485L133.646 49.1789L136.861 51.4241L136.657 51.7302L135.891 51.1689L131.809 57.0371L132.575 57.5984L132.37 57.9045L129.105 55.6083ZM134.922 60.4049L137.422 52.4956L136.912 52.0874L137.167 51.8323L140.024 54.2306L139.769 54.4857L139.055 53.9244L137.473 58.9761L141.198 56.7819C141.3 56.7309 141.402 56.6799 141.453 56.6288C141.504 56.5778 141.555 56.5268 141.606 56.4758C141.657 56.3737 141.708 56.3227 141.657 56.2206C141.606 56.1186 141.504 56.0165 141.3 55.8634L140.943 55.5573L141.198 55.3021L143.137 56.935L142.882 57.1901L142.627 56.986C142.474 56.8329 142.321 56.7819 142.168 56.8329C142.015 56.8329 141.759 56.935 141.453 57.1391L135.177 60.8131L134.922 60.4049ZM137.83 62.8542L138.136 62.599L138.749 63.3134L144.107 58.6189L143.545 58.0066L143.801 57.7514L148.087 62.7011L146.556 64.0788L146.301 63.7727C146.607 63.1093 146.811 62.6501 146.811 62.2418C146.811 61.8846 146.658 61.5275 146.301 61.1192L145.382 60.0987L142.933 62.2418L142.984 62.3439C142.984 62.3949 143.035 62.4459 143.086 62.497C143.392 62.8031 143.647 63.0072 144.005 63.0072C144.311 63.0072 144.719 62.9052 145.127 62.599L145.382 62.9052L142.831 65.0994L142.576 64.7932C142.984 64.385 143.188 64.0278 143.188 63.7216C143.239 63.4155 143.086 63.0583 142.78 62.7011L142.627 62.548L139.973 64.8442L140.841 65.8648C141.249 66.375 141.708 66.6302 142.219 66.6812C142.729 66.7322 143.341 66.5792 144.107 66.222L144.362 66.5281L142.321 68.212L137.83 62.8542ZM146.607 75.3048L148.699 74.3353L148.903 74.7435C148.393 75.2028 148.036 75.713 147.883 76.1723C147.73 76.6826 147.781 77.1928 148.036 77.7031C148.24 78.1623 148.546 78.5195 148.954 78.6726C149.362 78.8767 149.72 78.8767 150.128 78.6726C150.332 78.5706 150.485 78.4685 150.587 78.3154C150.689 78.1623 150.74 78.0093 150.791 77.7541C150.842 77.499 150.791 77.0397 150.638 76.3764C150.587 76.1213 150.536 75.9682 150.536 75.8151C150.383 75.0497 150.434 74.4374 150.587 73.9271C150.791 73.4678 151.148 73.1106 151.71 72.8045C152.373 72.4983 153.036 72.4473 153.649 72.6514C154.261 72.8555 154.72 73.3148 155.027 73.9781C155.18 74.2332 155.231 74.5394 155.282 74.7945C155.333 75.0497 155.282 75.3559 155.231 75.611L155.741 75.8661L155.894 76.2233L154.006 77.1418L153.853 76.7846C154.363 76.3764 154.669 75.9682 154.771 75.5089C154.924 75.0497 154.873 74.5904 154.618 74.0802C154.414 73.6719 154.159 73.3658 153.853 73.2127C153.547 73.0596 153.241 73.0086 152.934 73.1617C152.475 73.3658 152.373 73.9781 152.628 75.0497C152.679 75.2028 152.679 75.3048 152.679 75.3559C152.883 76.3254 152.883 77.0908 152.679 77.6521C152.475 78.1623 152.016 78.6216 151.302 78.9278C150.587 79.285 149.873 79.336 149.158 79.0808C148.444 78.8257 147.934 78.3665 147.628 77.7031C147.474 77.3459 147.372 77.0397 147.321 76.7336C147.27 76.4274 147.27 76.1213 147.372 75.8151L146.709 75.5089L146.607 75.3048ZM147.832 68.3651L148.393 69.1815C148.648 69.5387 148.903 69.7428 149.107 69.7939C149.362 69.8449 149.72 69.6918 150.23 69.3346C150.893 68.9264 151.199 68.6202 151.302 68.4161C151.353 68.212 151.25 67.9059 150.944 67.4976L150.383 66.6812L147.832 68.3651ZM142.831 68.161L143.341 68.9264L149.311 65.0483L148.801 64.2829L149.107 64.0788L151.506 67.7528C152.016 68.5182 152.271 69.1815 152.271 69.7428C152.271 70.3041 152.067 70.7634 151.608 71.0696C151.148 71.3757 150.638 71.4268 150.128 71.2226C149.618 71.0185 149.107 70.5593 148.597 69.8959L148.495 69.947C148.852 70.7124 148.954 71.3757 148.801 71.886C148.648 72.3963 148.189 72.9065 147.423 73.4168C147.117 73.6209 146.913 73.774 146.862 73.9271C146.811 74.0802 146.811 74.1822 146.913 74.3353C146.964 74.3863 147.015 74.4374 147.066 74.5394C147.117 74.5904 147.219 74.6925 147.27 74.7435L147.066 74.9987C146.811 74.8456 146.607 74.6925 146.454 74.5394C146.25 74.3863 146.148 74.2332 146.046 74.0802C145.893 73.825 145.74 73.5189 145.689 73.2637C145.637 73.0086 145.637 72.7535 145.689 72.4983C145.791 72.0391 146.25 71.5798 147.015 71.0185C147.117 70.9675 147.168 70.9165 147.27 70.8654C147.73 70.5593 147.985 70.2531 148.036 69.947C148.087 69.6408 147.985 69.2326 147.679 68.7733L147.577 68.6202L144.515 70.6103L145.076 71.4778L144.77 71.6819L142.627 68.3651L142.831 68.161ZM149.056 80.4586L149.414 80.3565L149.771 81.275L156.506 78.9278L156.149 78.0093L156.506 77.9072L157.782 81.6832L157.476 81.7853L157.17 80.8668L150.434 83.163L150.74 84.0815L150.383 84.2346L149.056 80.4586ZM150.689 85.7654L151.046 85.6634L151.302 86.5819L158.19 84.8469L158.088 84.4387C157.986 83.9284 157.731 83.5712 157.323 83.3671C156.915 83.163 156.302 83.061 155.486 83.0099L155.384 82.7038L157.884 82.1935L159.67 89.3373L157.221 90.0517L157.119 89.7455C157.833 89.3373 158.343 88.9801 158.547 88.5719C158.803 88.2147 158.854 87.7555 158.752 87.2962L158.649 86.837L151.761 88.5719L152.016 89.4904L151.659 89.5925L150.689 85.7654ZM152.169 92.9092L152.577 92.8582L152.679 93.8277L156.047 93.5216L159.619 90.9192L159.568 90.1538L159.925 90.1027L160.282 94.0318L159.925 94.0829L159.823 93.1133L156.812 95.3075L159.466 96.4301C159.568 96.4811 159.67 96.5322 159.772 96.5322C159.823 96.5322 159.874 96.5832 159.925 96.5322C160.027 96.5322 160.078 96.4811 160.078 96.4301C160.129 96.3791 160.129 96.277 160.129 96.124L160.078 95.4606L160.435 95.4096L160.64 97.9609L160.282 98.012L160.231 97.7058C160.231 97.5017 160.129 97.3486 160.027 97.1955C159.925 97.0935 159.67 96.9404 159.313 96.7873L156.404 95.5627L152.934 95.8688L153.036 96.8383L152.628 96.8894L152.169 92.9092Z" fill="#007A53"/>
<path d="M73.6387 154.092L74.6082 152L75.0164 152.204C74.9144 152.919 74.9654 153.48 75.1695 153.939C75.3736 154.398 75.7308 154.756 76.2921 155.011C76.7513 155.215 77.2106 155.266 77.6188 155.164C78.027 155.062 78.3332 154.807 78.5373 154.449C78.6393 154.245 78.6904 154.041 78.6904 153.888C78.6904 153.735 78.5883 153.531 78.4863 153.327C78.3332 153.123 78.027 152.766 77.5167 152.357C77.3126 152.204 77.1596 152.102 77.0575 152C76.4452 151.49 76.088 151.031 75.9349 150.52C75.7818 150.01 75.8328 149.5 76.088 148.939C76.3941 148.275 76.8534 147.816 77.4657 147.612C78.078 147.408 78.7414 147.459 79.4048 147.765C79.6599 147.918 79.915 148.071 80.1191 148.224C80.3232 148.428 80.4763 148.632 80.6294 148.888L81.1907 148.734L81.5479 148.888L80.7315 150.776L80.3232 150.673C80.4253 150.061 80.4253 149.5 80.2212 149.092C80.0171 148.632 79.7109 148.326 79.2006 148.071C78.7924 147.867 78.4352 147.816 78.078 147.918C77.7209 148.02 77.4657 148.173 77.3637 148.479C77.1596 148.939 77.4657 149.5 78.3332 150.163C78.4352 150.265 78.5373 150.316 78.5883 150.367C79.4048 150.98 79.864 151.592 80.0681 152.102C80.2722 152.664 80.1702 153.276 79.864 153.99C79.5068 154.705 78.9965 155.215 78.3332 155.47C77.6698 155.725 76.9554 155.674 76.2411 155.368C75.8839 155.215 75.5777 155.011 75.3736 154.807C75.1185 154.603 74.9654 154.347 74.8123 154.092L74.0979 154.296L73.6387 154.092ZM84.5075 158.123L84.5585 157.715L85.0178 157.817C85.1708 157.868 85.2729 157.817 85.3749 157.766C85.477 157.715 85.5791 157.562 85.7321 157.358L89.7123 150.98L90.1715 151.082L91.6003 159.144L92.2636 159.297L92.1616 159.705L88.4366 158.991L88.4876 158.583L89.4061 158.787L89.0999 156.848L86.7527 156.389L85.9873 157.613L85.9362 157.715C85.9362 157.766 85.8852 157.817 85.8852 157.868C85.8852 157.919 85.8852 157.97 85.9362 158.021C85.9873 158.072 86.0893 158.123 86.1914 158.123L86.9058 158.277L86.8547 158.685L84.5075 158.123ZM87.0588 155.929L89.151 156.338L88.6407 153.429L87.0588 155.929ZM95.3253 155.317L96.2948 155.419C96.754 155.47 97.0602 155.368 97.2133 155.215C97.3664 155.062 97.5194 154.654 97.5705 154.041C97.6215 153.276 97.6215 152.817 97.5194 152.664C97.4174 152.51 97.1112 152.408 96.601 152.357L95.6314 152.255L95.3253 155.317ZM92.0595 159.093L92.978 159.195L93.5903 152.102L92.6719 152L92.7229 151.643L97.1112 152.051C98.0297 152.153 98.6931 152.357 99.1523 152.664C99.6116 153.021 99.8157 153.429 99.7646 153.99C99.7136 154.552 99.4585 154.96 98.9482 155.266C98.489 155.572 97.8256 155.674 96.9581 155.674V155.776C97.7746 155.98 98.3869 156.286 98.6931 156.746C98.9992 157.205 99.1523 157.868 99.0503 158.787C98.9992 159.144 99.0503 159.399 99.1013 159.552C99.1523 159.705 99.3054 159.756 99.4585 159.756H99.7136C99.8157 159.756 99.9177 159.705 100.02 159.705L100.122 160.062C99.8667 160.165 99.6116 160.216 99.3564 160.267C99.1013 160.318 98.8972 160.318 98.7441 160.318C98.4379 160.267 98.1318 160.216 97.8766 160.114C97.6215 160.011 97.4174 159.858 97.2643 159.654C97.0092 159.297 96.8561 158.634 96.9071 157.715V157.409C96.9071 156.848 96.8561 156.491 96.601 156.235C96.3968 155.98 95.9886 155.878 95.4783 155.827H95.2742L94.9681 159.45L95.9886 159.552L95.9376 159.96L92.0085 159.603L92.0595 159.093ZM101.357 160.062V159.654L102.326 159.603L102.071 152.459H101.663C101.153 152.459 100.744 152.664 100.438 152.97C100.132 153.276 99.9279 153.888 99.7238 154.705H99.4177V152.153L106.766 151.898L106.97 154.449H106.664C106.408 153.684 106.153 153.123 105.847 152.817C105.541 152.51 105.133 152.357 104.622 152.357H104.163L104.418 159.45L105.388 159.399V159.807L101.357 160.062ZM84.1503 150.01L83.0277 153.276L84.0993 153.633C84.5075 153.786 84.8136 153.786 85.0178 153.633C85.2219 153.48 85.426 153.021 85.7321 152.255C85.9873 151.541 86.0383 151.082 85.9873 150.878C85.8852 150.673 85.6301 150.469 85.1708 150.316L84.1503 150.01ZM79.0476 155.827L79.9661 156.133L82.2623 149.398L81.3438 149.092L81.4458 148.734L85.3239 150.061C86.3955 150.418 87.1099 150.827 87.5181 151.337C87.9263 151.847 88.0284 152.408 87.7732 153.021C87.5181 153.684 87.1099 154.092 86.4465 154.245C85.7832 154.398 84.9667 154.296 83.8952 153.939L82.8746 153.582L81.803 156.746L82.8746 157.103L82.7215 157.46L78.8945 156.133L79.0476 155.827ZM113.21 158.409L113.108 158.052L113.67 157.899C113.823 157.848 113.925 157.797 113.976 157.695C114.027 157.593 114.027 157.491 113.976 157.287L112.241 151.316C112.19 151.163 112.139 151.061 112.037 151.01C111.935 150.959 111.833 151.01 111.628 151.061L111.169 151.214L111.067 150.857L114.129 149.99L118.568 153.409L117.599 149.939C117.548 149.684 117.446 149.581 117.344 149.53C117.241 149.479 117.088 149.479 116.884 149.53L116.374 149.684L116.272 149.326L118.67 148.612L118.772 148.969L118.313 149.122C118.109 149.173 118.007 149.275 117.956 149.326C117.905 149.428 117.905 149.581 117.956 149.786L119.895 156.623L119.589 156.725L112.7 151.316L114.384 157.185C114.435 157.338 114.486 157.389 114.588 157.44C114.69 157.491 114.792 157.491 114.945 157.44L115.609 157.236L115.711 157.593L113.21 158.409ZM105.837 159.909L105.735 159.501L106.194 159.399C106.347 159.399 106.398 159.297 106.5 159.195C106.551 159.093 106.602 158.94 106.653 158.685L107.98 151.235L108.439 151.133L112.777 158.072L113.44 157.919L113.491 158.328L109.766 159.042L109.715 158.634L110.633 158.43L109.613 156.746L107.266 157.205L107.011 158.634V158.736C107.011 158.787 107.011 158.838 107.062 158.889C107.062 158.94 107.113 158.991 107.164 159.042C107.215 159.042 107.317 159.093 107.419 159.042L108.133 158.889L108.184 159.297L105.837 159.909ZM107.419 156.95L109.511 156.542L107.98 154.041L107.419 156.95ZM121.247 156.389L120.278 154.296L120.686 154.092C121.145 154.603 121.655 154.96 122.115 155.113C122.625 155.266 123.135 155.215 123.645 154.96C124.105 154.756 124.462 154.449 124.615 154.041C124.819 153.633 124.819 153.276 124.615 152.868C124.513 152.664 124.411 152.51 124.258 152.408C124.105 152.306 123.952 152.255 123.696 152.204C123.441 152.153 122.982 152.204 122.319 152.357C122.064 152.408 121.91 152.459 121.757 152.459C120.992 152.613 120.38 152.561 119.869 152.408C119.41 152.204 119.053 151.847 118.747 151.286C118.441 150.622 118.39 149.959 118.594 149.347C118.798 148.734 119.257 148.275 119.92 147.969C120.176 147.816 120.482 147.765 120.737 147.714C120.992 147.663 121.298 147.714 121.553 147.765L121.808 147.255L122.166 147.102L123.084 148.99L122.727 149.143C122.319 148.632 121.91 148.326 121.451 148.224C120.992 148.071 120.533 148.122 120.022 148.377C119.614 148.581 119.308 148.836 119.155 149.143C119.002 149.449 119.002 149.755 119.104 150.061C119.308 150.52 119.92 150.622 120.992 150.367C121.145 150.316 121.247 150.316 121.298 150.316C122.268 150.112 123.033 150.112 123.594 150.316C124.105 150.52 124.564 150.98 124.87 151.694C125.227 152.408 125.278 153.123 125.023 153.837C124.768 154.552 124.309 155.062 123.645 155.368C123.288 155.521 122.982 155.623 122.676 155.674C122.37 155.725 122.064 155.725 121.757 155.623L121.451 156.286L121.247 156.389Z" fill="#007A53"/>
</g>
<defs>
<radialGradient id="paint0_radial_154_2398" cx="0" cy="0" r="1" gradientUnits="userSpaceOnUse" gradientTransform="translate(108.258 113.425) scale(17.6404)">
<stop stop-color="#B2D9CF"/>
<stop offset="0.13" stop-color="#ABD5CB"/>
<stop offset="0.31" stop-color="#98CBBF"/>
<stop offset="0.53" stop-color="#78BCAB"/>
<stop offset="0.77" stop-color="#4CA690"/>
<stop offset="1" stop-color="#1C8E72"/>
</radialGradient>
<radialGradient id="paint1_radial_154_2398" cx="0" cy="0" r="1" gradientUnits="userSpaceOnUse" gradientTransform="translate(83.8389 97.4967) scale(18.8514 18.8514)">
<stop stop-color="#C7E3DC"/>
<stop offset="0.11" stop-color="#BDDED6"/>
<stop offset="0.31" stop-color="#A3D1C6"/>
<stop offset="0.55" stop-color="#79BCAC"/>
<stop offset="0.84" stop-color="#3F9F88"/>
<stop offset="1" stop-color="#1C8E72"/>
</radialGradient>
<clipPath id="clip0_154_2398">
<rect width="200" height="200" fill="white"/>
</clipPath>
</defs>
</svg>
