<svg width="200" height="200" viewBox="0 0 200 200" fill="none" xmlns="http://www.w3.org/2000/svg">
<g clip-path="url(#clip0_154_2397)">
<path d="M59.4628 51.3842C71.0695 51.0134 82.7047 51.5162 94.242 52.8338C101.266 53.6585 108.25 54.8226 115.174 56.2619C121.497 57.6011 127.769 59.2391 133.854 61.4303C140.734 63.926 147.459 67.1088 153.218 71.6781C156.044 74.0726 159.484 75.6287 163.004 76.7067C168.088 78.5248 173.039 80.7175 177.816 83.2318C182.353 85.6444 186.756 88.3657 190.685 91.6922C193.723 94.2876 196.53 97.2743 198.325 100.878C199.539 103.321 200.194 106.077 199.949 108.811C199.717 111.629 198.565 114.303 196.984 116.623C194.475 120.273 191.054 123.189 187.458 125.727C185.969 126.779 184.426 127.749 182.868 128.694C183.563 125.743 183.972 122.675 183.565 119.652C183.269 117.424 182.458 115.236 181.045 113.471C179.494 111.502 177.299 110.132 174.971 109.264C172.101 108.198 169.037 107.77 165.991 107.634C160.032 107.4 154.087 108.221 148.261 109.409C144.846 110.128 141.455 110.978 138.125 112.026C143.032 113.203 147.778 115.247 151.782 118.348C155.375 121.15 158.461 124.759 160.154 129.024C158.331 127.231 156.076 125.955 153.76 124.907C150.233 123.344 146.512 122.242 142.737 121.469C143.441 123.17 144.761 124.532 146.165 125.682C148.401 127.463 151.016 128.703 153.703 129.638C158.86 131.403 164.315 132.105 169.738 132.388C171.792 132.488 173.847 132.524 175.903 132.499C170.2 135.298 163.79 136.566 157.453 136.422C151.564 136.307 145.776 135.022 140.126 133.443C134.7 131.944 129.355 130.126 123.833 128.998C120.636 128.34 117.363 127.987 114.097 128.151C107.87 128.444 101.7 129.613 95.7291 131.391C84.9346 134.625 74.7937 140.238 66.648 148.062C68.9276 142.481 70.1546 136.439 69.9347 130.4C69.728 123.947 67.9031 117.611 65.029 111.851C61.737 105.237 57.1726 99.3241 52.0493 94.0279C45.0096 86.7876 36.9371 80.6026 28.3675 75.2836C26.0493 73.8534 23.695 72.4797 21.2755 71.225C27.2804 71.6341 33.2451 72.6094 39.0874 74.0483C44.8348 75.4755 50.47 77.4362 55.7363 80.1639C51.8187 76.9467 47.5679 74.1511 43.157 71.6622C33.1704 66.0683 22.3452 62.0761 11.2708 59.2535C7.55077 58.3026 3.78373 57.5397 0 56.897C3.40114 56.1163 6.85575 55.5858 10.3088 55.1028C24.5353 53.1971 38.9327 52.7686 53.2672 53.3074C60.4513 53.5903 67.6255 54.1359 74.7725 54.9333C75.8887 55.0334 76.9959 55.2362 78.1175 55.2802C75.5767 54.3971 72.957 53.7651 70.3241 53.2274C66.728 52.4751 63.0922 51.9405 59.4628 51.3842ZM93.0992 57.3596C95.0159 57.7626 96.9019 58.3041 98.7784 58.8615C103.946 60.4487 109.047 62.3801 113.721 65.1253C108.371 63.9196 102.979 62.9114 97.57 62.012C88.0157 60.4354 78.3988 59.2402 68.746 58.4815C54.9317 57.4172 41.0132 57.2022 27.2148 58.607C33.856 60.7019 40.2063 63.6659 46.2101 67.1819C54.8718 72.2783 62.7972 78.6863 69.3625 86.3102C73.7893 91.4453 77.584 97.1313 80.5825 103.214C80.6625 103.416 80.8574 103.59 80.8559 103.819C80.689 103.755 80.6371 103.538 80.5332 103.408C80.1608 102.904 79.729 102.447 79.3168 101.976C76.9064 99.3097 74.2322 96.8902 71.4111 94.6664C64.2179 89.0217 55.9934 84.7189 47.2971 81.9073C49.0989 82.977 50.8037 84.2028 52.4481 85.4992C61.6077 92.7459 68.8461 102.547 72.5411 113.665C74.7255 120.172 75.6605 127.07 75.4777 133.924C77.2026 132.518 79.1405 131.403 81.1012 130.366C86.1619 127.753 91.5598 125.855 97.035 124.322C97.3941 124.196 97.846 124.195 98.0823 123.851C102.085 119.414 106.605 115.415 111.686 112.252C116.41 109.277 121.464 106.875 126.538 104.563C128.964 103.483 131.373 102.355 133.848 101.389C136.484 100.31 139.078 99.1178 141.553 97.7039C143.954 96.3207 146.266 94.7361 148.21 92.7485C149.793 91.1268 151.123 89.198 151.771 87.0079C152.557 84.4281 152.235 81.6123 151.213 79.1451C150.45 77.3281 149.482 75.5597 148.086 74.1484C144.426 70.3055 139.652 67.6567 134.637 66.0213C133.538 65.5974 132.435 65.1811 131.318 64.8023C122.445 61.7947 113.249 59.8018 103.979 58.4921C100.366 58.0117 96.7404 57.5583 93.0992 57.3596ZM159.247 80.7827C159.206 83.548 158.688 86.3288 157.523 88.8484C155.902 92.4084 153.138 95.3185 150.055 97.6664C146.014 100.731 141.434 102.997 136.764 104.932C127.502 108.679 118.503 113.276 110.567 119.393C108.703 120.871 106.837 122.377 105.242 124.148C108.651 123.061 112.275 122.91 115.826 123.052C119.097 123.204 122.348 123.653 125.556 124.301C130.937 125.402 136.212 127.048 141.234 129.277C146.058 131.413 151.225 132.896 156.51 133.186C158.043 133.222 159.597 133.289 161.111 132.992C154.682 132.841 148.451 130.251 143.481 126.231C142.44 125.411 141.538 124.43 140.514 123.589C135.066 118.956 127.726 116.475 120.583 117.292C121.011 116.905 121.507 116.604 121.976 116.269C130.57 110.334 140.534 106.415 150.854 104.841C156.977 103.891 163.231 103.725 169.381 104.496C166.627 103.443 163.867 102.411 161.117 101.348C161.321 101.337 161.527 101.337 161.736 101.345C165.096 101.546 168.454 101.961 171.725 102.78C175.788 103.807 179.833 105.483 182.874 108.449C184.615 110.143 185.935 112.277 186.616 114.613C187.458 117.448 187.405 120.507 186.653 123.356C189.927 120.537 192.988 117.251 194.636 113.196C195.657 110.675 195.936 107.833 195.262 105.186C194.613 102.564 193.161 100.209 191.409 98.1786C188.696 95.0546 185.316 92.587 181.805 90.4371C177.27 87.6935 172.432 85.478 167.492 83.5704C164.779 82.5462 162.045 81.5524 159.247 80.7827ZM131.716 114.781C130.681 115.008 129.627 115.179 128.62 115.514C133.262 115.493 137.893 116.259 142.314 117.651C146.321 118.92 150.182 120.669 153.722 122.939C152.618 121.937 151.379 121.091 150.168 120.225C147.947 118.69 145.627 117.284 143.169 116.162C141.266 115.301 139.269 114.594 137.19 114.318C135.355 114.043 133.515 114.446 131.716 114.781ZM75.0258 67.3753C77.1571 67.4341 79.2899 67.3006 81.4227 67.3245C89.6564 67.2847 97.9033 67.618 106.08 68.6213C111.76 69.336 117.42 70.3579 122.897 72.0478C124.618 72.5786 126.314 73.1948 127.976 73.8951C126.781 72.3864 125.223 71.2087 123.578 70.2312C121.477 68.9959 119.21 68.0609 116.88 67.3552C119.675 67.7727 122.47 68.3877 125.053 69.5627C129.301 71.4609 132.884 74.5499 136.062 77.8965C139.18 81.1672 143.06 83.8893 147.497 84.9695C144.761 85.222 142.089 85.9861 139.557 87.0424C138.162 87.6119 136.87 88.4002 135.473 88.9671C129.785 91.396 123.385 91.8761 117.321 90.8292C114.71 90.3613 112.109 89.7023 109.683 88.6152C112.847 89.2632 116.079 89.6287 119.311 89.5806C121.953 89.5233 124.615 89.1847 127.118 88.307C128.355 87.8641 129.564 87.2984 130.598 86.4782C128.74 85.7874 126.914 84.9191 125.392 83.628C124.394 82.7809 123.546 81.7325 123.041 80.5188C122.452 79.117 122.358 77.5044 122.827 76.0534C120.581 74.6569 118.089 73.7135 115.581 72.9108C110.023 71.1886 104.271 70.1872 98.5172 69.3842C91.741 68.4662 84.9198 67.8993 78.091 67.5581C77.0691 67.497 76.0419 67.5073 75.0258 67.3753ZM126.308 81.1281C127.842 83.1142 130.125 84.5991 132.653 84.8641C131.644 84.1869 130.63 83.3865 130.128 82.2448C129.886 81.7113 129.819 80.9924 130.274 80.5495C130.666 80.1829 131.234 80.2011 131.737 80.2053C129.778 78.8274 127.773 77.5124 125.697 76.3173C124.82 77.8499 125.263 79.7957 126.308 81.1281ZM134.138 83.2037C133.879 83.6466 133.345 83.752 132.887 83.868C134.029 84.2347 135.473 84.563 136.486 83.716C135.684 83.0369 134.835 82.4169 134.019 81.7579C134.212 82.2035 134.406 82.7461 134.138 83.2037ZM161.992 84.9445C167.361 86.2754 172.606 88.211 177.407 90.9744C181.033 93.0716 184.44 95.6162 187.222 98.764C187.636 99.2615 188.087 99.7393 188.407 100.306C185.075 97.0953 181.129 94.5708 176.919 92.6685C172.088 90.4944 166.952 88.9671 161.705 88.219C162.307 87.2358 162.337 86.0209 161.992 84.9445ZM79.3301 144.513C80.5385 144.509 81.748 144.513 82.9565 144.51C82.9565 144.826 82.9564 145.142 82.9595 145.461C82.5378 145.461 82.1189 145.461 81.6991 145.462V148.729H80.5904C80.5889 147.64 80.5904 146.551 80.5904 145.462C80.1692 145.461 79.7502 145.461 79.3312 145.461C79.3301 145.144 79.3301 144.827 79.3301 144.513ZM83.7918 144.504C84.3344 144.502 84.8773 144.502 85.4203 144.504C85.6671 145.442 85.8965 146.385 86.1551 147.322C86.383 146.379 86.6355 145.442 86.8767 144.504C87.4185 144.502 87.96 144.502 88.5014 144.504V148.73C88.153 148.729 87.8053 148.729 87.4595 148.729C87.4557 147.679 87.4636 146.63 87.4557 145.581C87.1356 146.624 86.8699 147.683 86.5661 148.732C86.2833 148.728 86.0016 148.729 85.7217 148.729C85.4229 147.671 85.1469 146.608 84.8333 145.556C84.8333 146.614 84.8345 147.671 84.8333 148.729H83.7918C83.7902 147.32 83.7918 145.912 83.7918 144.504Z" fill="#363639"/>
<path d="M48.1758 64.5156C50.6434 64.8679 53.0496 65.5815 55.3944 66.4137C60.4696 68.2516 65.191 70.9592 69.5742 74.0885C75.959 78.6689 81.6587 84.1429 86.887 89.992C87.4311 90.5706 87.9115 91.2084 88.4837 91.7589C85.7802 85.318 81.4118 79.6945 76.4034 74.8783C74.5068 73.0511 72.4741 71.3702 70.3731 69.7846C72.5844 70.3366 74.6842 71.2728 76.706 72.3147C83.0699 75.6586 88.5038 80.6098 92.8282 86.3239C95.6678 90.1012 98.8062 93.6798 102.411 96.7476C105.698 99.53 109.399 101.929 113.534 103.222C115.9 103.943 118.433 104.351 120.894 103.905C115.806 106.134 110.863 108.738 106.311 111.934C103.152 114.182 100.131 116.696 97.7165 119.751C97.2816 120.312 96.8694 120.893 96.516 121.513C91.6862 122.185 86.9166 123.484 82.5338 125.645C81.1745 126.317 79.847 127.061 78.6147 127.944C79.1455 122.235 77.8973 116.497 75.7736 111.215C73.7185 106.151 70.9161 101.393 67.5282 97.1063C70.6173 98.2681 73.2328 100.377 75.6454 102.578C79.4951 106.175 82.8549 110.267 85.9164 114.547C85.6001 108.388 83.7248 102.378 80.8795 96.9289C77.6345 90.7052 73.2222 85.1526 68.2869 80.1855C64.7697 76.6494 60.9686 73.4018 56.9763 70.4151C54.1431 68.3039 51.2194 66.3099 48.1758 64.5156ZM123.805 67.3609C124.505 67.2942 125.197 67.5357 125.886 67.6434C130.308 68.5906 134.603 70.5315 137.906 73.6699C138.966 74.661 139.822 75.8399 140.825 76.8868C143.052 79.2585 145.53 81.4087 148.257 83.1851C147.269 83.1131 146.323 82.7745 145.405 82.4223C142.942 81.4394 140.742 79.8856 138.823 78.0713C137.481 76.8363 136.392 75.3636 135.07 74.1113C131.892 71.0487 128.009 68.7092 123.805 67.3609Z" fill="#9A8C88"/>
<path d="M126.308 81.1273C125.263 79.7949 124.82 77.849 125.698 76.3164C127.773 77.5115 129.778 78.8265 131.737 80.2044C131.234 80.2002 130.666 80.182 130.274 80.5487C129.819 80.9916 129.886 81.7105 130.129 82.244C130.63 83.3856 131.644 84.1861 132.653 84.8633C130.125 84.5982 127.843 83.1134 126.308 81.1273ZM159.248 80.7819C162.045 81.5516 164.779 82.5454 167.492 83.5695C172.432 85.4771 177.27 87.6926 181.805 90.4363C185.316 92.5862 188.696 95.0538 191.409 98.1778C193.162 100.208 194.613 102.563 195.262 105.186C195.936 107.832 195.657 110.674 194.636 113.195C192.988 117.25 189.927 120.537 186.653 123.355C187.405 120.506 187.458 117.448 186.616 114.612C185.935 112.276 184.615 110.142 182.874 108.448C179.833 105.482 175.788 103.806 171.725 102.779C168.455 101.96 165.096 101.546 161.736 101.344C161.528 101.336 161.321 101.336 161.117 101.347C163.867 102.41 166.627 103.442 169.381 104.495C163.231 103.724 156.978 103.89 150.854 104.84C140.534 106.414 130.57 110.333 121.976 116.268C121.507 116.603 121.011 116.905 120.583 117.291C127.727 116.474 135.066 118.955 140.514 123.589C141.538 124.429 142.44 125.41 143.481 126.231C148.451 130.251 154.682 132.84 161.111 132.992C159.597 133.288 158.043 133.221 156.51 133.185C151.225 132.896 146.059 131.412 141.234 129.276C136.212 127.047 130.937 125.401 125.556 124.301C122.348 123.652 119.097 123.203 115.826 123.051C112.275 122.909 108.651 123.06 105.242 124.147C106.837 122.376 108.703 120.87 110.567 119.392C118.503 113.275 127.502 108.678 136.764 104.931C141.434 102.997 146.014 100.73 150.055 97.6655C153.138 95.3177 155.903 92.4076 157.524 88.8476C158.688 86.328 159.206 83.5472 159.248 80.7819ZM161.992 84.9436C162.337 86.0201 162.307 87.235 161.705 88.2181C166.952 88.9662 172.088 90.4935 176.919 92.6677C181.129 94.57 185.075 97.0945 188.407 100.305C188.087 99.7384 187.636 99.2607 187.222 98.7632C184.44 95.6153 181.033 93.0707 177.407 90.9736C172.606 88.2102 167.361 86.2745 161.992 84.9436ZM131.716 114.78C133.515 114.445 135.355 114.042 137.19 114.317C139.269 114.593 141.266 115.3 143.169 116.161C145.627 117.283 147.947 118.689 150.168 120.225C151.379 121.09 152.619 121.936 153.722 122.939C150.182 120.669 146.321 118.919 142.314 117.65C137.893 116.258 133.262 115.492 128.62 115.513C129.627 115.179 130.681 115.008 131.716 114.78Z" fill="#A02C46"/>
<path d="M134.138 83.2035C134.406 82.7459 134.213 82.2033 134.019 81.7577C134.835 82.4167 135.684 83.0367 136.486 83.7158C135.473 84.5628 134.029 84.2345 132.887 83.8678C133.345 83.7518 133.879 83.6464 134.138 83.2035ZM123.805 67.3592C128.009 68.7075 131.892 71.047 135.07 74.1095C136.392 75.3619 137.482 76.8346 138.824 78.0696C140.742 79.8839 142.942 81.4377 145.405 82.4205C146.324 82.7728 147.269 83.1114 148.258 83.1834C145.53 81.407 143.052 79.2568 140.826 76.8851C139.823 75.8382 138.967 74.6593 137.906 73.6682C134.603 70.5298 130.309 68.5888 125.886 67.6417C125.197 67.534 124.505 67.2925 123.805 67.3592ZM75.0258 67.3751C76.0419 67.5071 77.0691 67.4968 78.091 67.5579C84.9198 67.8991 91.741 68.466 98.5172 69.384C104.271 70.187 110.023 71.1884 115.581 72.9106C118.089 73.7133 120.581 74.6567 122.827 76.0532C122.358 77.5042 122.452 79.1168 123.041 80.5186C123.546 81.7323 124.394 82.7807 125.392 83.6278C126.914 84.9189 128.74 85.7872 130.598 86.478C129.564 87.2982 128.355 87.8639 127.118 88.3068C124.615 89.1845 121.953 89.5231 119.311 89.5804C116.08 89.6285 112.847 89.263 109.683 88.615C112.109 89.7021 114.71 90.3611 117.321 90.829C123.385 91.8759 129.785 91.3958 135.473 88.9669C136.87 88.4 138.162 87.6117 139.557 87.0422C142.089 85.9859 144.761 85.2218 147.497 84.9693C143.06 83.8891 139.18 81.167 136.062 77.8963C132.884 74.5498 129.301 71.4607 125.053 69.5625C122.47 68.3875 119.675 67.7725 116.88 67.355C119.21 68.0607 121.477 68.9957 123.578 70.231C125.223 71.2085 126.781 72.3862 127.976 73.8949C126.314 73.1946 124.618 72.5785 122.897 72.0476C117.42 70.3577 111.76 69.3358 106.08 68.6211C97.9033 67.6178 89.6564 67.2845 81.4227 67.3243C79.2899 67.3004 77.1571 67.4339 75.0258 67.3751ZM48.1761 64.5139C51.2196 66.3081 54.1434 68.3022 56.9766 70.4134C60.9688 73.4001 64.77 76.6477 68.2872 80.1838C73.2224 85.1509 77.6348 90.7035 80.8797 96.9272C83.725 102.376 85.6004 108.386 85.9166 114.546C82.8552 110.265 79.4954 106.173 75.6457 102.576C73.233 100.375 70.6175 98.2664 67.5285 97.1046C70.9163 101.391 73.7188 106.149 75.7739 111.213C77.8976 116.496 79.1458 122.234 78.615 127.942C79.8473 127.059 81.1747 126.315 82.5341 125.643C86.9169 123.482 91.6864 122.183 96.5163 121.511C96.8697 120.892 97.2818 120.31 97.7167 119.749C100.131 116.694 103.152 114.18 106.312 111.933C110.863 108.737 115.806 106.132 120.895 103.903C118.433 104.35 115.901 103.942 113.535 103.22C109.4 101.928 105.698 99.5283 102.412 96.7459C98.8065 93.6781 95.6681 90.0995 92.8285 86.3222C88.5041 80.6081 83.0702 75.6569 76.7062 72.313C74.6845 71.2711 72.5847 70.3349 70.3734 69.7828C72.4743 71.3685 74.507 73.0494 76.4037 74.8766C81.4121 79.6928 85.7805 85.3162 88.484 91.7572C87.9118 91.2066 87.4314 90.5689 86.8873 89.9903C81.6589 84.1412 75.9593 78.6671 69.5744 74.0868C65.1913 70.9575 60.4698 68.2499 55.3947 66.412C53.0499 65.5798 50.6437 64.8662 48.1761 64.5139ZM93.0992 57.3594C96.7404 57.5581 100.366 58.0115 103.979 58.492C113.249 59.8016 122.445 61.7945 131.318 64.8021C132.435 65.1809 133.538 65.5972 134.637 66.0211C139.652 67.6565 144.426 70.3053 148.086 74.1482C149.482 75.5595 150.45 77.3279 151.213 79.1449C152.235 81.6122 152.557 84.4279 151.771 87.0077C151.123 89.1978 149.793 91.1266 148.21 92.7483C146.266 94.7359 143.954 96.3205 141.553 97.7037C139.078 99.1176 136.484 100.31 133.848 101.389C131.373 102.355 128.964 103.483 126.538 104.563C121.464 106.875 116.41 109.277 111.686 112.252C106.605 115.415 102.085 119.414 98.0823 123.85C97.846 124.194 97.3941 124.196 97.035 124.321C91.5598 125.855 86.1619 127.753 81.1012 130.366C79.1405 131.402 77.2026 132.517 75.4777 133.923C75.6605 127.07 74.7255 120.172 72.5411 113.665C68.8461 102.546 61.6077 92.7457 52.4482 85.499C50.8037 84.2026 49.099 82.9768 47.2971 81.9071C55.9934 84.7187 64.2179 89.0215 71.4111 94.6662C74.2322 96.89 76.9064 99.3095 79.3168 101.976C79.729 102.447 80.1608 102.904 80.5332 103.408C80.6371 103.538 80.689 103.755 80.8559 103.819C80.8574 103.59 80.6625 103.416 80.5825 103.213C77.584 97.1311 73.7893 91.4451 69.3625 86.31C62.7972 78.6861 54.8718 72.2782 46.2101 67.1817C40.2063 63.6657 33.856 60.7017 27.2148 58.6068C41.0132 57.202 54.9317 57.417 68.746 58.4813C78.3988 59.2401 88.0157 60.4352 97.57 62.0118C102.979 62.9112 108.371 63.9194 113.721 65.1251C109.047 62.3799 103.946 60.4485 98.7784 58.8613C96.9019 58.3039 95.0159 57.7624 93.0992 57.3594Z" fill="white"/>
</g>
<defs>
<clipPath id="clip0_154_2397">
<rect width="200" height="200" fill="white"/>
</clipPath>
</defs>
</svg>
