<svg width="200" height="200" viewBox="0 0 200 200" fill="none" xmlns="http://www.w3.org/2000/svg">
<path d="M168.775 108.018L134.761 85.4928L77.7158 80.5936V47.8754H114.489V72.6534H167.254V39.9915L129.355 15.6641H71.6903L33.1718 39.9915V90.3358L67.5794 114.382L114.601 117.704V148.451H87.1765V126.827H31.1445L31.8203 158.25L69.3814 183.873L131.157 183.929L169 159.32L168.775 108.018Z" fill="#001A72"/>
<path d="M68.5352 111.735L35.8733 88.8717V41.4557L72.4771 18.3672H128.565L164.493 41.4557V69.9504H117.134V51.198H119.499V67.191H161.959V43.7083L127.045 20.7887H73.9413L38.3511 43.7083V87.3513L74.4481 111.285L92.2431 113.368L68.5352 111.735ZM166.07 109.482L133.577 87.9707L79.0658 83.353V85.3803L131.212 90.5048L163.536 110.89L163.649 155.885L128.791 179.086H71.8013L37.2248 154.871L36.5491 132.289H81.431V154.421H120.85V116.86L117.359 116.465V151.211H84.4719V129.586H33.9023L34.5218 156.842L70.2246 181.226L130.367 181.282L166.239 157.912L166.07 109.482Z" fill="white"/>
<path d="M160.777 112.411L130.03 92.9268L76.3066 87.8586L76.926 48.4391H122.315V64.4321H159.256V45.1729L126.2 23.4922H74.7298L41.0543 45.1729V85.9439L75.6308 108.92L123.497 114.382V157.068H78.7281V135.049H39.3086L39.8717 153.52L72.6462 176.44H127.946L160.946 154.534L160.777 112.411Z" fill="#862633"/>
<path d="M71.0122 44.8364C71.6879 43.9354 72.7016 43.2596 74.1094 42.7528C78.1077 41.176 80.5292 43.8791 80.5855 42.8655C81.2612 37.9099 87.4557 36.1641 89.3141 36.502C89.9898 36.6146 89.5956 34.8126 91.9608 34.3621C93.5376 34.0805 95.4522 34.6437 95.7901 36.3331C102.66 34.9252 104.125 37.8535 108.573 44.6112C108.799 44.9491 108.63 45.2869 108.967 45.2306C110.77 44.9491 113.585 44.8927 114.655 46.3569C115.218 47.089 115.669 46.7511 116.288 46.9763C118.71 47.8774 119.949 51.0872 119.048 53.2835C118.09 55.7049 115.894 57.3943 114.655 60.0411C114.261 60.9421 115.106 61.3926 115.444 62.2936C115.444 63.7578 114.824 65.3345 114.486 66.7987C114.205 68.8823 115.556 70.797 116.288 72.8806C117.527 76.1467 114.88 77.8362 116.288 78.343C127.72 82.7354 127.1 81.7781 132.281 84.1996C132.901 84.4811 133.295 83.9743 133.914 84.2559C137.575 88.5357 139.208 93.4913 141.01 98.6722C141.967 101.995 141.348 105.036 141.967 108.414C141.01 108.414 140.39 108.527 140.165 109.484C141.123 109.822 141.235 110.216 141.967 109.879C144.051 108.865 145.74 110.836 147.824 111.174C148.781 111.174 149.288 110.78 149.907 110.78C149.288 114.215 145.853 115.228 146.754 117.537C147.035 118.157 144.276 119.114 142.587 118.663C141.517 118.382 140.672 117.762 140.221 117.199C139.771 116.524 139.546 115.791 138.588 115.566C135.942 115.116 133.52 115.285 132.507 110.554C132.394 109.879 131.38 110.949 131.099 110.329C130.479 108.865 130.085 106.725 129.128 105.542C126.368 103.121 123.722 102.051 121.92 98.4469C121.694 98.0527 119.667 98.3906 119.667 98.4469C119.667 101.037 119.329 101.713 119.048 103.515C118.428 105.937 117.471 108.358 116.288 110.216C115.725 111.005 114.711 111.455 114.486 112.3C114.486 112.919 113.867 113.257 114.486 113.539C117.865 114.778 121.582 117.312 122.933 120.297C123.159 120.747 123.834 120.86 124.172 120.634C125.129 120.015 126.425 119.621 127.213 120.015C129.015 120.916 132.338 121.479 132 123.281C131.662 124.182 128.396 124.182 128.17 125.027C128.114 125.646 128.396 126.266 128.508 126.998C128.79 128.237 129.128 129.588 129.578 130.715C129.86 131.39 130.648 131.616 131.155 132.066C132.169 133.023 133.295 133.699 134.646 133.192C138.025 131.953 139.152 134.488 140.39 137.247C140.503 137.585 143.657 138.542 146.078 139.612C147.768 140.344 148.837 141.245 149.513 141.696C150.752 142.597 152.273 144.117 151.991 145.976C151.653 146.595 151.372 147.44 150.414 147.778C151.372 149.861 151.653 152.057 151.372 154.479C147.092 155.267 143.206 154.817 139.208 154.817C137.969 154.817 134.196 154.704 134.703 153.578C135.041 152.902 135.604 152.789 136.336 151.663C137.124 150.537 138.082 148.397 138.588 148.51C140.165 148.735 142.587 149.185 142.024 147.721C141.235 145.356 138.87 142.766 135.885 143.272C133.52 143.667 128.846 144.737 123.778 145.976C122.877 146.201 118.822 144.23 114.937 143.667C113.022 143.385 111.333 139.612 109.756 139.556C107.165 139.331 104.462 138.148 101.421 138.767C97.1417 139.387 93.425 139.105 89.483 141.133C89.0888 141.358 90.4967 143.61 88.6946 144.849C87.2305 145.863 86.4421 145.976 84.9779 145.75C77.3193 144.286 69.3791 144.624 61.7204 145.525C60.4252 144.962 60.5942 144.624 60.1437 143.61C58.7358 143.836 55.6386 141.639 55.0191 140.851C54.2871 140.063 53.9492 139.274 52.5977 138.486C52.8792 138.204 53.3297 137.81 53.3297 137.472C53.3297 136.346 53.2734 135.67 53.9492 134.882V134.713C53.8366 133.812 54.0055 132.46 54.3997 131.447C57.4406 132.066 60.3689 130.771 63.1283 132.573C64.3672 133.812 65.2119 135.163 66.1692 136.627C66.4508 136.965 66.9576 137.078 67.5771 137.078C70.618 136.459 72.9832 136.008 76.0241 136.402C76.6435 136.459 77.3193 136.627 77.6009 136.008C78.5582 132.066 77.5445 126.998 81.7681 124.858C78.9524 121.761 75.9115 118.213 73.4337 114.271C70.9559 116.017 68.4218 116.749 66.6197 115.566C64.9303 114.609 64.3109 113.483 62.4525 110.892C62.2273 110.611 62.2273 110.273 62.002 110.16C58.8485 108.527 58.6795 108.077 58.3979 107.457C57.8348 105.824 59.0737 107.175 58.0601 101.769C58.0038 101.488 59.13 101.037 59.0174 100.756C56.258 94.5613 58.3979 94.1108 58.3979 93.8855C58.4543 92.8155 58.3979 91.633 57.8348 90.6193C56.427 87.4658 56.2017 84.7627 58.2853 82.5665C60.5379 80.2576 63.973 79.4129 64.9303 81.1586C64.9866 81.3839 65.3245 81.4402 65.4935 81.215C66.4508 79.6382 67.9149 79.9198 69.1538 80.2013C71.2937 81.1023 72.589 82.7917 73.5463 85.0443C73.8842 85.8327 75.0104 85.1569 75.3483 85.7764C75.6862 86.3958 75.9678 87.1279 75.7988 87.5784C76.7562 87.86 76.7562 87.1279 76.8688 86.2832C76.9251 86.0016 76.6435 85.5511 76.4183 85.5511C74.8415 85.2132 73.9405 84.1433 73.4337 82.8481C71.8006 78.9061 71.4064 77.1604 70.0548 74.0068C69.8296 73.5563 69.9422 72.9369 69.9422 72.7116C70.1675 70.6843 71.3501 67.6434 72.0821 67.925C72.3074 67.9813 72.1948 66.9676 72.1948 66.855C72.5326 64.0957 74.5599 58.8585 76.4746 58.6332C76.5872 58.6332 76.4183 58.2954 76.2493 58.1827C75.1794 57.1128 74.1657 54.2408 75.3483 52.1572C74.3347 51.5377 71.4064 51.2562 70.1675 48.1589C69.8859 47.4268 70.2238 45.9627 71.0122 44.8364Z" fill="white"/>
<path d="M79.9117 62.966C79.9117 62.966 79.1233 63.3039 79.1233 63.7544C79.1233 63.7544 77.997 63.8107 79.067 62.797C79.067 62.8534 79.9117 62.1776 79.9117 62.966ZM82.84 71.6946C83.1216 71.6946 82.84 70.7373 82.84 70.7373C82.5021 70.2867 82.9526 70.3431 82.9526 70.3431C83.5721 70.6246 84.5294 70.6809 84.5294 70.6809C85.4304 70.2304 84.7547 70.0052 84.7547 70.0052C83.741 70.0052 83.2905 69.7236 83.2905 69.7236C81.2069 68.8226 80.1369 69.611 80.1369 69.611C77.997 70.8499 76.6455 71.1878 76.6455 71.1878C75.9134 71.6383 76.8708 71.8635 76.8708 71.8635C77.265 71.6383 77.6028 71.582 77.6028 71.582C79.4049 72.6519 79.2922 75.7492 79.2922 75.7492C79.8554 76.5375 79.968 75.7492 79.968 75.7492L79.7991 74.4539C79.5738 73.4966 79.9117 73.7219 79.9117 73.7219C80.5311 73.6092 79.6864 72.483 79.6864 72.483C79.2359 71.5256 79.1233 71.1314 79.1233 71.1314C79.2359 70.4557 79.7428 71.5256 79.7428 71.5256C80.1369 72.8772 80.4185 72.8209 80.4185 72.8209C81.0943 72.9335 80.7564 72.2577 80.7564 72.2577C80.0806 71.1314 80.1369 70.7936 80.1369 70.7936C80.4185 69.5547 80.9253 70.8499 80.9253 70.8499C81.4885 72.2577 81.8263 72.0888 81.8263 72.0888C82.3895 71.8635 81.6011 70.7373 81.6011 70.7373C81.2632 70.0615 81.6011 70.1178 81.6011 70.1178C81.939 69.8926 82.2205 70.8499 82.2205 70.8499C82.5584 72.0325 82.84 71.6946 82.84 71.6946ZM89.6539 81.1553C89.6539 81.1553 90.0481 81.6058 91.7938 81.9436C91.7938 81.9436 92.5259 82.0563 92.5822 81.6058C92.5822 81.6058 92.8638 80.93 91.6249 81.2116C91.6249 81.2116 89.6539 80.8174 88.9219 79.2969C88.9219 79.2969 88.8092 76.6502 88.1898 77.0444C88.1898 77.0444 87.514 76.6502 88.0771 79.4095C88.1335 79.5222 88.5277 80.6484 89.6539 81.1553ZM112.574 68.71L112.968 69.4984C113.756 70.2867 113.869 69.5547 113.869 69.5547C113.418 68.8789 113.306 68.2595 113.306 68.2595L113.418 66.6264C113.812 65.0496 112.799 66.5137 112.799 66.5137C112.517 67.64 112.348 66.8516 112.348 66.8516C112.236 65.8943 112.742 65.1059 112.742 65.1059C113.08 64.1486 112.179 64.8243 112.179 64.8243C111.166 66.5701 111.729 67.3021 111.729 67.3021C112.123 68.2595 112.574 68.71 112.574 68.71ZM101.198 63.1912C100.917 63.4728 101.649 64.3175 101.649 64.3175C101.874 64.7117 102.212 64.5428 102.212 64.5428C102.493 64.3175 102.099 63.7544 102.099 63.7544C101.48 62.6844 101.198 63.1912 101.198 63.1912ZM139.548 138.651C139.491 138.539 139.266 138.539 139.154 138.595C139.041 138.708 139.041 138.877 139.097 138.989C139.21 139.215 142.758 143.438 146.136 143.776C146.249 143.776 146.418 143.663 146.418 143.494C146.418 143.382 146.305 143.156 146.136 143.156C142.983 142.931 139.548 138.651 139.548 138.651ZM149.797 147.38C150.698 149.464 151.036 151.547 150.698 154.025C146.531 154.813 142.589 154.475 138.647 154.475C137.408 154.475 134.648 154.475 135.155 153.406C135.437 152.73 136.169 152.786 136.845 151.716C137.577 150.59 138.196 148.9 138.647 148.957C140.111 149.182 142.645 149.632 142.363 148.168C142.082 145.465 138.253 142.199 135.324 142.988C133.015 143.607 129.017 144.621 124.061 145.803C123.16 146.028 118.599 143.832 114.657 143.382C112.742 143.1 111.166 139.383 109.533 139.271C107.055 139.046 104.352 137.863 101.311 138.482C97.1436 139.102 92.6385 139.102 88.8092 141.129C88.415 141.354 90.0481 143.213 88.8092 144.508C87.5703 145.803 86.3314 145.747 84.811 145.409C77.3213 143.945 69.8316 144.17 62.2292 145.127C60.9903 144.564 61.103 144.226 60.7651 143.213C59.3573 143.438 56.3163 141.298 55.6969 140.453C54.9648 139.665 54.6269 138.877 53.2754 138.088C53.557 137.807 54.0075 137.412 54.0075 137.131C54.0075 136.005 53.9512 135.329 54.6269 134.54V134.428C54.5143 133.527 54.4017 132.964 54.8522 131.95C57.8368 132.57 60.4835 131.274 63.1866 133.076C64.4255 134.315 64.9886 135.498 65.8896 137.018C66.1712 137.3 67.1285 137.638 67.6917 137.638C70.6763 137.018 73.3793 136.568 76.4203 136.906C77.0397 136.962 77.6591 137.018 77.997 136.455C78.898 132.513 78.2223 127.276 82.3895 125.08C79.5738 121.983 76.0824 117.872 73.7172 113.986C71.2957 115.732 68.9869 116.745 67.2411 115.563C65.6081 114.605 64.9323 113.479 63.1303 110.945C62.905 110.664 62.905 110.326 62.6798 110.213C59.5825 108.636 59.4136 108.129 59.1883 107.51C58.6252 105.933 59.8641 107.228 58.9067 101.879C58.8504 101.597 59.9767 101.147 59.8641 100.865C57.161 94.7268 59.2446 94.3326 59.2446 94.0511C59.3009 92.9811 59.2446 91.9111 58.7941 90.7849C57.3863 87.6313 57.161 84.9846 59.2446 82.901C61.3845 80.6484 64.5944 80.3106 65.5517 82.1126C65.6081 82.3378 65.8333 82.1689 65.9459 82C66.9033 80.4232 68.2548 80.7047 69.4374 80.9863C71.521 81.8873 72.7036 83.4078 73.6046 85.7167C73.9425 86.505 75.0687 85.7166 75.4066 86.3361C75.6882 86.9555 76.0261 87.9129 75.6882 88.476C76.5892 88.7576 77.4902 87.575 77.6028 86.8429C77.6591 86.5614 77.4902 85.773 77.2086 85.773C75.7445 85.4914 74.5619 84.703 74.0551 83.4078C72.4783 79.4659 72.0841 77.7764 70.6763 74.6229C70.451 74.1724 70.5636 73.5529 70.5636 73.3277C70.7889 71.3004 71.9715 68.2595 72.7036 68.5973C72.9288 68.6537 72.8162 67.64 72.8162 67.5274C73.1541 64.768 75.1814 59.4182 76.9834 59.1367C77.096 59.1367 76.9271 59.024 76.8708 58.9114C75.8008 57.7851 74.393 54.519 75.9134 52.4354C74.8998 51.8159 71.8025 51.0275 70.9015 48.9439C70.62 48.0429 70.3384 47.1419 71.1268 46.0156C72.0278 44.7767 73.1541 43.8757 74.5056 43.3689C78.5039 41.9047 81.038 44.6641 81.038 43.6504C81.3195 38.5822 87.7393 36.7802 89.5976 37.1744C90.2734 37.287 89.8792 35.3724 92.2444 34.8655C93.7085 34.584 95.5668 35.1471 95.9047 36.9491C102.324 35.2597 104.295 38.6385 108.688 45.3399C108.913 45.6777 108.744 46.0156 109.082 45.9593C110.884 45.6777 113.587 45.6214 114.601 47.0856C115.164 47.8176 115.558 47.4798 116.178 47.705C118.599 48.606 119.782 51.5343 118.824 53.6743C117.923 56.0957 115.333 57.7288 114.432 60.4319C114.15 61.3329 115.051 61.896 115.333 62.8534C115.333 64.3175 114.713 65.838 114.432 67.3584C114.15 69.442 115.446 71.3567 116.234 73.384C117.473 76.6502 114.826 78.227 116.234 78.7901C127.497 83.1262 126.933 82.1689 132.058 84.5904C132.677 84.8719 133.015 84.3651 133.635 84.6467C137.239 88.8139 138.816 93.8258 140.618 98.894C141.519 102.217 140.899 105.201 141.519 108.467C140.618 108.467 139.717 108.749 139.435 109.706C140.336 109.988 140.674 111.17 141.519 110.945C143.602 110.044 144.222 110.72 147.263 111.846C148.164 112.184 149.065 111.733 149.684 111.733C149.29 113.704 147.882 115.169 146.643 116.126C146.193 116.52 146.756 117.252 146.756 118.097C146.981 118.435 145.123 119.448 143.152 119.167C140.787 118.829 139.66 115.844 139.154 115.844C135.212 115.788 133.41 114.042 132.79 110.72C132.509 110.1 131.551 110.72 131.326 110.1C130.706 108.636 130.425 106.778 129.524 105.595C126.821 103.174 123.78 101.597 122.034 98.1056C121.809 97.7114 119.556 98.1056 119.556 98.1619C119.556 100.752 119.331 101.935 119.106 103.793C118.486 106.215 117.642 108.58 116.403 110.438C115.84 111.227 114.939 111.677 114.601 112.522C114.601 113.141 114.319 113.986 114.882 114.324C118.205 115.563 121.527 117.646 122.992 120.969C123.273 120.969 123.893 121.588 124.456 121.25C125.357 120.631 126.539 120.349 127.44 120.631C129.242 121.532 132.227 121.87 131.945 123.616C131.664 124.517 127.609 124.573 127.947 125.418C128.51 127.051 128.736 128.346 129.073 130.092C129.355 131.668 130.2 132.232 131.382 132.795C132.396 133.245 133.072 134.709 134.311 134.146C137.577 132.738 138.816 134.54 140.111 137.244C140.561 138.201 141.744 138.539 142.589 138.989C144.616 140.003 146.981 140.116 149.065 141.974C150.191 142.987 151.768 144.057 151.486 145.916C151.036 146.141 150.698 147.098 149.797 147.38ZM135.944 114.099C137.971 115.563 139.266 114.549 139.266 114.549C141.857 118.66 144.391 118.153 144.391 118.153C146.418 117.703 145.123 116.013 145.123 116.013C142.307 116.295 141.406 115.338 141.406 115.338C140.73 114.099 142.026 114.662 142.026 114.662C146.08 117.14 147.995 112.578 147.995 112.578C146.193 112.353 144.616 111.508 144.616 111.508C142.927 110.551 141.913 111.227 141.913 111.227L142.026 111.79C142.42 113.592 141.35 112.578 141.35 112.578C141.124 111.621 140.449 111.17 140.449 111.17C139.548 110.607 138.421 109.425 138.421 109.425C136.507 110.326 133.691 110.72 133.691 110.72C133.41 112.972 135.944 114.099 135.944 114.099ZM72.8162 91.9111C72.3657 92.0238 70.2258 92.3616 70.2258 92.3616L70.1131 95.9657C70.7326 98.7814 71.1831 97.9367 71.1831 97.9367L72.8162 91.9111ZM74.7308 86.505L73.4356 86.2235C72.6472 88.1381 70.5073 87.8003 70.5073 87.8003C69.8316 90.9538 67.0722 90.3907 67.0722 90.3907C65.8333 92.9811 62.905 92.4743 62.905 92.4743C61.4409 92.3616 61.6098 89.377 61.6098 89.377C61.0467 87.3497 59.8078 88.3634 59.8078 88.3634C59.132 88.476 59.3573 87.9692 59.3573 87.9692C62.1166 85.6603 62.5108 90.3907 62.5108 90.3907C62.5671 91.5169 62.8487 91.6296 62.8487 91.6296C66.6217 92.0801 66.2838 89.377 66.2838 89.377C66.0022 88.2508 64.4818 86.6177 64.4818 86.6177C63.1866 85.3225 64.3692 85.4914 64.3692 85.4914C65.9459 86.3924 67.0159 88.9828 67.0159 88.9828C67.2411 89.9402 67.9732 89.8839 67.9732 89.8839C70.1131 89.2081 69.6626 87.8003 69.6626 87.8003C69.0432 85.1535 67.0159 84.8156 67.0159 84.8156C65.0449 84.3651 65.7207 83.802 65.7207 83.802C67.5227 83.4078 69.3247 85.2661 69.3247 85.2661C70.2821 87.3497 70.62 87.3497 70.62 87.3497C74.5619 86.7303 71.5773 83.7457 71.5773 83.7457C69.2684 80.4795 67.4101 81.3805 67.4101 81.3805C66.3401 81.4931 65.7207 83.1825 65.7207 83.1825C63.9186 80.7611 61.9477 81.7184 61.9477 81.7184C59.8078 82.6757 58.6252 84.4214 58.6252 84.4214C57.0484 86.674 59.2446 90.5596 59.2446 90.5596C59.4699 90.8975 59.8078 94.2763 59.8078 94.2763L63.1303 95.6278C65.4954 96.3036 65.9459 94.3326 65.9459 94.3326C66.6217 92.6995 67.1848 93.0374 67.1848 93.0374C68.8179 93.9947 69.2684 92.249 69.2684 92.249C69.1558 91.0101 69.4937 91.2354 69.4937 91.2354C74.6182 92.1927 74.8998 87.9129 74.8998 87.9129C75.125 86.6177 74.7308 86.505 74.7308 86.505ZM123.836 121.645C125.3 122.546 126.652 124.01 126.652 124.01C127.384 125.249 128.285 124.235 128.285 124.235C129.749 123.503 131.439 123.278 131.439 123.278C130.312 121.926 129.468 122.039 129.468 122.039C127.44 121.588 127.215 121.138 127.215 121.138C126.258 120.687 125.244 121.194 125.244 121.194C124.85 121.476 123.836 121.645 123.836 121.645ZM115.558 75.7492C115.108 76.087 115.108 77.4949 115.108 77.4949C115.446 77.6075 115.671 76.1997 115.671 76.1997C115.84 75.4113 115.558 75.7492 115.558 75.7492ZM90.6676 51.2528L89.9918 52.8296C90.7239 53.3927 91.0618 52.8859 91.0618 52.8859C91.3997 52.6043 90.7802 51.9848 90.7802 51.9848L90.8365 51.647C91.287 51.5343 91.456 51.3654 91.456 51.3654C91.1744 50.8586 90.6676 51.2528 90.6676 51.2528ZM85.543 50.5207C85.6557 50.8023 86.3314 50.746 86.3314 50.746C86.6693 50.6333 86.7256 50.0702 86.7256 50.0702L85.9372 49.7323C85.6557 49.7886 85.543 50.5207 85.543 50.5207ZM83.6284 49.676C84.0789 50.1265 84.8673 50.4081 84.8673 50.4081C85.4304 50.0702 85.2052 49.6197 85.2052 49.6197C83.7973 49.3381 83.6284 49.676 83.6284 49.676ZM74.1677 63.5291C74.224 63.8107 74.4493 63.5291 74.4493 63.5291C75.5755 62.4592 78.166 60.8824 78.166 60.8824C79.4612 60.2629 78.5602 60.094 78.5602 60.094C77.9407 59.6998 77.4902 59.193 77.4902 59.193C75.6319 59.1367 74.1677 63.5291 74.1677 63.5291ZM81.1506 55.9831C81.1506 55.9831 81.2069 55.1947 80.7001 55.9268L78.7291 56.2647C78.7291 56.2647 78.6165 55.9268 77.7718 57.5599C77.7718 57.5599 78.0533 59.5872 79.5738 59.3056C79.5738 59.3056 79.3486 57.5036 81.1506 55.9831ZM72.7036 70.8499C72.9851 70.5683 72.7599 70.4557 72.7599 70.4557C72.0841 70.6809 72.7036 70.8499 72.7036 70.8499ZM71.2394 73.5529C71.6336 71.8635 71.6899 71.413 71.6899 71.413C71.9715 69.7236 72.6472 70.0615 72.6472 70.0615L72.422 68.9352C70.7889 70.6246 70.8452 73.6092 70.8452 73.6092C70.9578 74.0598 71.2394 73.5529 71.2394 73.5529ZM71.7462 74.9045C71.8589 73.6092 72.3657 71.9198 72.3657 71.9198C72.422 70.2304 71.9152 72.2577 71.9152 72.2577L71.521 74.285C71.2957 75.8618 71.7462 74.9045 71.7462 74.9045ZM72.7036 77.7764C72.7036 77.7764 72.6472 77.4386 72.422 77.3822C72.1967 77.3259 72.5346 76.4249 72.5346 76.4249C71.7462 77.1007 72.4783 78.0017 72.4783 78.0017L72.7036 77.7764ZM72.9288 75.5802C73.323 74.1161 74.1677 72.8772 74.1677 72.8772C74.7872 72.5956 74.393 72.2014 74.393 72.2014C74.4493 71.6383 74.1114 71.582 74.1114 71.582C73.3793 70.9625 73.323 71.3004 73.323 71.3004C73.3793 72.0888 73.8861 71.9198 73.8861 71.9198C74.1114 72.2014 73.8298 72.314 73.8298 72.314C73.4356 72.7645 73.0414 74.3413 73.0414 74.3413C72.3657 76.0307 72.9288 75.5802 72.9288 75.5802ZM77.7718 81.4368C78.1097 79.7474 77.3213 81.8873 77.3213 81.8873C77.4902 82.1689 77.7718 81.4368 77.7718 81.4368ZM77.4902 80.3106C77.4902 80.3106 77.8281 79.3532 77.3776 79.5222C77.3776 79.5222 77.1523 79.7474 77.096 80.2542C77.096 80.1979 76.4202 82.5068 77.4902 80.3106ZM78.5039 82.5068C79.1233 81.3805 78.3912 81.4368 78.3912 81.4368L77.7155 82.5068C77.4902 83.1825 77.7718 83.1825 77.7718 83.1825C78.0533 83.6894 78.5039 82.5068 78.5039 82.5068ZM80.7001 83.6331L79.4612 82.5631C79.0107 81.9436 78.5039 83.9709 78.5039 83.9709C79.067 84.3651 80.1933 84.8719 80.1933 84.8719C80.6438 84.5341 80.5875 84.1962 80.5875 84.1962L80.7001 83.6331ZM82.5584 82.5631C82.2205 82.2815 82.2205 81.4931 82.2205 81.4931C82.6711 80.8737 82.7837 81.7747 82.7837 81.7747L83.3468 82.732C83.9099 83.633 84.1352 82.7883 84.1352 82.7883C83.7973 81.831 84.3605 82.0563 84.3605 82.0563L84.7547 82.6757C85.712 83.4641 85.4867 82.1126 85.4867 82.1126L84.5294 80.029C84.0789 78.7901 84.9799 79.5222 84.9799 79.5222C85.3741 80.0853 86.3877 82.3378 86.3877 82.3378C87.1198 83.3515 88.3587 83.7457 88.3587 83.7457C89.485 84.3088 92.9764 83.4641 92.9764 83.4641C94.5532 82.5068 95.961 82.1689 95.961 82.1689C96.9747 81.9436 97.5378 81.4368 97.5378 81.4368C98.833 80.7611 97.5941 80.0853 97.5941 80.0853C97.3689 79.1843 96.0174 78.8464 96.0174 78.8464C94.3843 77.8328 96.4116 78.227 96.4116 78.227C97.1999 78.7901 97.1436 78.4522 97.1436 78.4522C97.2563 77.5512 97.8757 78.6775 97.8757 78.6775C98.6641 79.5785 98.4388 78.5648 98.4388 78.5648C98.5515 76.7628 99.1709 79.2406 99.1709 79.2406C99.2835 79.6348 99.9593 80.3669 99.9593 80.3669C100.748 81.1553 100.241 79.9164 100.241 79.9164C100.185 77.8891 101.255 80.93 101.255 80.93C102.888 82.732 101.93 80.8737 101.93 80.8737C101.255 79.2969 102.156 80.1979 102.156 80.1979C102.775 81.6058 103.282 81.2679 103.282 81.2679C104.295 80.4795 104.859 80.2542 104.859 80.2542C106.21 79.86 105.76 79.6348 105.76 79.6348C103.676 78.1706 103.338 76.256 103.338 76.256C103.113 75.355 102.324 74.1161 102.324 74.1161C100.748 72.1451 101.987 72.7082 101.987 72.7082C102.606 73.1024 103.676 75.0171 103.676 75.0171C104.07 76.087 104.127 75.4113 104.127 75.4113C104.746 73.7782 104.802 74.9608 104.802 74.9608V77.5512C105.365 78.5648 105.422 76.4249 105.422 76.4249C106.097 75.186 106.21 75.8055 106.21 75.8055L105.929 77.7764C105.929 77.7764 106.548 78.1143 106.154 78.3959C105.76 78.6775 105.872 78.8464 105.872 78.8464C106.323 79.4095 106.435 77.9454 106.435 77.9454C106.435 76.3686 106.717 76.1997 106.717 76.1997C107.393 75.186 107.28 76.6502 107.28 76.6502C106.717 78.3396 107.336 77.3822 107.336 77.3822C107.449 76.3123 107.618 76.3686 107.618 76.3686C108.237 76.087 107.843 78.2833 107.843 78.2833C107.787 79.5222 108.294 78.6211 108.294 78.6211V77.5512C108.744 76.5375 108.969 77.8328 108.969 77.8328C109.195 77.1007 109.589 77.2133 109.589 77.2133C109.927 77.4949 109.533 78.4522 109.533 78.4522C109.87 79.0153 110.208 78.1706 110.208 78.1706C110.828 76.5375 110.772 77.9454 110.772 77.9454C110.715 78.6211 111.222 78.3396 111.222 78.3396C111.673 78.5648 111.673 77.7201 111.673 77.7201C112.236 76.8191 112.236 77.8328 112.236 77.8328C111.954 78.6211 113.024 78.227 113.024 78.227C113.475 78.3396 113.643 77.3259 113.643 77.3259C114.77 74.7355 114.263 77.6075 114.263 77.6075C113.925 79.5222 114.995 77.4949 114.995 77.4949C115.22 75.6928 116.065 74.4539 116.065 74.4539C116.178 74.0598 114.826 70.9625 114.826 70.9625C113.869 69.0479 114.207 66.9642 114.207 66.9642C114.995 65.3875 114.939 63.9796 114.939 63.9796C114.657 62.3465 113.812 61.0513 113.812 61.0513C113.193 60.0377 113.08 60.2629 113.08 60.2629C112.686 60.1503 112.799 61.0513 112.799 61.0513C112.123 62.6281 112.179 60.4319 112.179 60.4319C112.292 59.6998 112.123 59.7561 112.123 59.7561C111.504 59.3056 111.56 60.0377 111.56 60.0377C111.335 62.065 110.94 59.6998 110.94 59.6998C110.603 57.6162 110.377 59.6435 110.377 59.6435C110.265 60.4319 109.983 60.094 109.983 60.094L109.87 58.7988C109.814 58.123 109.476 58.123 109.476 58.123L109.195 57.8415C108.913 57.7288 109.307 55.7579 109.307 55.7579C109.645 54.6316 108.744 54.6316 108.744 54.6316L107.956 54.4063C107.28 53.6179 107.167 53.8432 107.167 53.8432L106.435 54.1248C105.534 54.4626 105.872 53.6743 105.872 53.6743C106.492 53.0548 106.154 52.8859 106.154 52.8859C105.196 51.9285 107.393 52.2101 107.393 52.2101L109.533 49.8449C112.01 47.705 112.517 49.9576 112.517 49.9576C112.067 51.9285 112.405 51.9848 112.405 51.9848C112.855 52.0975 112.742 52.8859 112.742 52.8859L110.434 56.1521C109.758 57.4473 110.321 57.5599 110.321 57.5599L113.643 59.5309C113.925 59.9814 114.545 59.5872 114.545 59.5872C115.277 57.8978 117.923 54.4063 117.923 54.4063C119.669 50.9149 117.248 49.0565 117.248 49.0565C115.277 47.4798 115.502 49.0002 115.502 49.0002C115.896 50.577 115.896 51.3654 115.896 51.3654C115.783 53.449 115.164 52.0412 115.164 52.0412L115.051 49.676C115.051 46.4098 111.898 46.3535 111.898 46.3535C108.463 46.2409 106.379 49.1129 106.379 49.1129C105.985 50.1828 105.309 50.3518 105.309 50.3518C104.521 50.4644 104.014 51.1401 104.014 51.1401C103.676 52.2664 103.113 51.8722 103.113 51.8722C103.057 51.1965 102.493 51.478 102.493 51.478C101.423 51.8722 101.874 51.0275 101.874 51.0275C104.971 49.1129 103.282 48.0429 103.282 48.0429C100.241 47.2545 96.8057 50.6333 96.8057 50.6333C96.13 51.5343 95.7921 51.4217 95.7921 51.4217C95.1163 51.1965 95.3416 52.3227 95.3416 52.3227C95.6232 51.9849 97.1436 51.9848 97.1436 51.9848C98.7204 51.7033 96.7494 52.7732 96.7494 52.7732C96.13 53.0548 95.7358 53.0548 95.7358 53.0548C94.6658 53.3364 95.6232 53.449 95.6232 53.449C98.6078 52.548 100.579 54.0685 100.579 54.0685C101.592 54.6316 100.635 54.8568 100.635 54.8568C99.3399 54.0685 98.3262 53.8432 98.3262 53.8432C94.0464 54.0685 92.1317 55.5889 92.1317 55.5889C89.1471 57.2783 87.8519 56.9968 87.8519 56.9968C87.5703 57.2783 87.1198 57.222 87.1198 57.222C86.0499 56.8841 87.5703 56.321 87.5703 56.321C90.2734 55.9831 91.0618 55.251 91.0618 55.251C93.7648 53.6179 94.5532 53.6179 94.5532 53.6179L93.9901 52.548C93.8774 51.9285 93.4269 52.2101 93.4269 52.2101L91.6249 52.4354C91.3997 54.0685 90.7239 53.8995 90.7239 53.8995C88.2461 53.8432 87.2888 53.6179 87.2888 53.6179L83.7973 52.4917C81.9953 51.5907 83.4031 51.478 83.4031 51.478L84.9799 51.9285C88.9219 53.5053 89.485 52.7169 89.485 52.7169L90.1044 51.478C90.4423 50.6896 89.6539 50.8586 89.6539 50.8586L89.2034 52.0975C88.8655 52.9985 88.7529 52.3227 88.7529 52.3227L89.0345 51.5343C89.4287 50.746 88.9782 50.6333 88.9782 50.6333L87.683 50.2391C86.7819 49.9013 87.0635 50.3518 87.0635 50.3518C86.6693 50.6333 87.0072 50.8023 87.0072 50.8023C88.3587 50.9149 87.683 51.4217 87.683 51.4217C86.6693 52.0412 85.3178 51.3654 85.3178 51.3654C81.9953 49.3944 81.4885 49.3944 81.4885 49.3944C78.7291 49.4507 78.7291 50.4081 78.7291 50.4081C81.038 50.4644 83.1216 52.9985 83.1216 52.9985C84.3605 54.2937 85.0362 54.2374 85.0362 54.2374C86.613 54.519 85.4867 55.0258 85.4867 55.0258C84.0226 54.9695 82.5584 53.6743 82.5584 53.6743C78.9544 49.8449 77.6028 51.1965 77.6028 51.1965C74.4493 54.1248 76.0261 56.2084 76.0261 56.2084C76.7581 56.0957 77.0397 56.8278 77.0397 56.8278L77.6028 56.3773C77.6028 56.3773 77.997 56.1521 76.9271 54.9695C76.9271 54.9695 76.3076 53.8995 77.3776 54.2374L78.7854 55.3637C78.7854 55.3637 79.7428 55.7579 79.4612 54.7442C79.4612 54.7442 79.3486 53.8432 80.1933 54.519C80.1933 54.519 80.5311 54.7442 81.5448 54.9132C81.5448 54.9132 85.0362 55.7015 85.4867 57.9541C85.4867 57.9541 85.7683 58.3483 84.9236 59.9251C84.9236 59.9251 84.8673 60.6571 85.9935 60.3193C85.9935 60.3193 88.0772 59.0804 91.0618 60.7698C91.0618 60.7698 93.5396 62.5718 99.6214 62.1776C99.6214 62.1776 101.536 61.5018 100.522 62.5718C100.522 62.5718 99.903 62.9097 99.1146 62.966C99.1146 62.966 99.0583 63.2476 101.198 64.5428C101.198 64.5428 102.493 65.1622 103 66.1759C103 66.1759 103.62 67.3021 102.268 66.1195C102.268 66.1195 101.198 65.3312 100.522 64.9933C99.8467 64.6554 98.3825 63.6418 98.101 63.0786C98.101 63.0786 98.4952 62.8534 95.7921 62.8534C95.7921 62.8534 95.3979 62.6281 96.0737 63.5291C96.0737 63.5291 96.8057 65.3312 100.579 67.64C100.579 67.64 101.874 68.0342 100.691 68.2595C100.691 68.2595 98.4388 68.2031 94.8911 63.4165C94.8911 63.4165 95.0037 62.5155 94.4969 62.6844C94.4969 62.6844 92.5822 61.9523 93.258 62.966C93.258 62.966 94.3843 64.8806 94.2716 65.669C94.2716 65.669 95.3979 65.7253 95.3416 66.3448C95.229 66.9642 95.9047 66.5701 95.9047 66.5701C95.9047 66.5701 96.1863 65.7817 96.8057 66.8516C96.8057 66.8516 97.5941 67.2458 97.5941 68.4847C97.5941 68.4847 98.0446 69.2731 97.3689 69.442C97.3689 69.442 97.0873 69.4984 96.9184 68.2031L96.6931 67.64L96.3552 67.1332C96.3552 67.1332 96.13 67.1332 95.961 67.5837C95.961 67.5837 95.3979 68.3721 95.1726 67.3021C95.1726 67.3021 94.8911 65.8943 94.4406 66.6264C94.4406 66.6264 93.7085 67.5837 93.6522 65.8943C93.6522 65.8943 93.9338 64.3175 91.9065 62.5155C91.9065 62.5155 91.7938 61.7271 91.0055 61.6145C91.0055 61.6145 90.386 61.3892 89.5413 60.8824C89.5413 60.8824 89.316 60.4319 86.8946 60.7698C86.8946 60.7698 86.1625 61.0513 87.3451 61.2203C87.3451 61.2203 88.584 61.5018 88.1335 62.9097C88.1335 62.9097 87.683 63.3602 88.0208 63.9233C88.0208 63.9233 87.9082 64.8806 86.4441 64.6554C86.4441 64.6554 86.2188 64.8806 85.3178 64.0923C85.3178 64.0923 84.642 63.867 83.9099 64.8243C83.9099 64.8243 83.2905 65.1059 83.1779 64.5991C83.1779 64.5991 82.4458 63.5291 81.2632 63.3602C81.2632 63.3602 80.2496 62.7407 81.1506 61.7834L81.3758 61.3892C81.038 60.8261 82.6711 60.094 82.6711 60.094C82.2769 60.0377 80.9253 60.3756 80.9253 60.3756C79.968 60.6008 78.898 61.5018 78.898 61.5018C74.7872 63.7544 74.1677 65.5001 74.1677 65.5001C72.422 68.2595 74.1114 70.5683 74.1114 70.5683C74.7872 70.9625 75.125 70.3431 75.125 70.3431L75.2377 70.0615C75.8008 69.7799 75.6319 69.3857 75.6319 69.3857C75.0124 68.71 75.5192 67.3021 75.5192 67.3021C76.3076 64.1486 78.2223 63.6981 78.2223 63.6981L78.2786 64.4301C77.4902 66.1759 78.166 66.5137 78.166 66.5137C79.6301 65.2748 80.4748 66.5701 80.4748 66.5701C81.6011 65.2748 82.9526 66.6827 82.9526 66.6827C84.4168 65.3312 85.6557 67.0769 85.6557 67.0769C86.8946 66.1195 88.0771 67.8089 88.0771 67.8089L89.316 66.8516C90.5549 65.8943 90.9491 65.8943 90.9491 65.8943L90.8928 66.3448C90.3297 66.9642 90.1608 67.5837 90.1608 67.5837L90.2171 69.0478C91.1181 69.7236 94.0464 69.8362 94.0464 69.8362C95.1726 69.9489 94.6095 69.3857 94.6095 69.3857C93.6522 68.4284 92.9764 68.1468 92.9764 68.1468C92.357 67.1895 93.5396 67.5274 93.5396 67.5274C96.9747 68.9352 96.9184 73.2714 96.9184 73.2714C97.3689 74.9045 98.1573 75.2423 98.1573 75.2423L100.973 76.7065C102.099 77.4386 100.635 77.4949 100.635 77.4949C98.1573 77.2696 96.4679 75.4676 96.4679 75.4676C94.2153 76.3686 93.6522 76.087 93.6522 76.087C91.1744 75.9744 89.316 71.413 89.316 71.413C87.9082 69.3857 86.3314 69.1605 86.3314 69.1605C80.8127 68.2595 78.7291 69.3857 78.7291 69.3857C75.6319 69.8362 75.4629 70.7373 75.4629 70.7373C74.6745 72.1451 75.4066 72.8772 75.4066 72.8772C75.8008 74.0034 75.1814 73.7782 75.1814 73.7782L74.8998 73.4966C74.2803 73.8345 74.5056 74.1161 74.5056 74.1161C74.8435 75.0734 74.0551 76.5375 74.0551 76.5375C72.8162 79.9727 73.9988 81.6058 73.9988 81.6058C75.125 83.5204 76.9271 83.6894 76.9271 83.6894C77.4902 83.802 77.2086 83.2952 77.2086 83.2952C76.5329 83.3515 76.7581 82.1689 76.7581 82.1689C75.6882 81.8873 76.195 80.0853 76.195 80.0853C76.3076 79.128 77.1523 77.8328 77.1523 77.8328C77.4339 77.157 77.096 77.4386 77.096 77.4386L76.0261 79.4659L75.4629 78.8464C75.6882 77.2696 75.9134 76.8191 75.9134 76.8191C76.5329 75.2423 76.7018 75.5239 76.7018 75.5239C77.096 75.4676 77.096 75.2986 77.096 75.2986C76.8708 74.5103 76.3639 73.8345 76.3639 73.8345C75.4066 72.5393 76.5892 73.0461 76.5892 73.0461C77.8844 74.4539 78.0533 76.3123 78.0533 76.3123C78.4475 79.4659 78.6728 79.8037 78.6728 79.8037C78.9544 80.8737 79.1233 80.5358 79.1233 80.5358C79.7427 79.9727 79.7428 80.6484 79.7428 80.6484C79.7991 81.7184 80.6438 82.5631 80.6438 82.5631C81.2069 83.0136 81.4322 82.7883 81.4322 82.7883L81.1506 81.8873C80.7564 80.6484 81.4322 81.2679 81.4322 81.2679L82.2205 82.901C82.7274 83.2389 82.5584 82.5631 82.5584 82.5631ZM76.8708 65.5564C74.7872 67.9779 76.0824 69.3294 76.0824 69.3294L77.4902 68.9915C76.6455 67.4711 76.8708 65.5564 76.8708 65.5564ZM78.1097 68.71C79.067 68.5973 79.8554 68.2595 79.8554 68.2595C79.6301 66.5137 78.898 66.6827 78.898 66.6827C77.6591 67.2458 78.1097 68.71 78.1097 68.71ZM80.4748 68.0905C80.7564 68.2031 82.1079 67.9779 82.1079 67.9779C81.9953 66.6264 81.3195 66.6264 81.3195 66.6264C80.0243 66.7953 80.4748 68.0905 80.4748 68.0905ZM83.0652 68.0905L84.6983 68.0342C84.7547 67.0769 83.7973 67.0206 83.7973 67.0206C82.5021 66.9642 83.0652 68.0905 83.0652 68.0905ZM85.5994 68.1468L86.613 68.4847C87.4014 68.0905 86.0499 67.4711 86.0499 67.4711C85.4304 67.4711 85.5994 68.1468 85.5994 68.1468ZM89.2597 67.4148C88.4713 67.809 88.0208 68.9915 88.0208 68.9915C88.3587 69.442 89.2597 70.2304 89.2597 70.2304C88.8092 69.0478 89.2597 67.4148 89.2597 67.4148ZM83.5158 61.5018C83.5158 61.5018 83.8536 61.5581 83.8536 61.2766C83.8536 61.2766 82.9526 60.6571 82.0516 61.2203C82.0516 61.2203 81.8263 61.2766 81.939 61.9523C81.939 61.9523 81.8827 62.065 81.4885 62.5718C81.4885 62.5718 81.3758 62.966 82.0516 62.9097C82.0516 62.9097 82.5021 63.5854 82.84 62.966C82.84 62.966 83.0652 62.5718 82.7837 62.2902C82.6147 62.2339 82.1642 61.6708 83.5158 61.5018ZM102.719 137.187C100.297 135.385 99.9593 135.554 99.9593 135.554C98.5515 135.667 97.5378 135.329 97.5378 135.329C97.3126 135.216 96.9747 134.935 96.9747 134.935C94.7221 134.315 92.188 132.288 92.188 132.288C91.1181 131.274 91.2307 132.063 91.2307 132.063C90.7802 132.964 90.6113 132.119 90.6113 132.119C90.8928 131.668 90.7239 131.387 90.7239 131.387C90.2734 131.105 89.9355 131.837 89.9355 131.837C88.8092 133.133 89.5976 131.218 89.5976 131.218C90.2734 129.81 89.2034 130.993 89.2034 130.993C88.3024 132.795 88.4713 131.556 88.4713 131.556C88.9219 130.767 88.1898 131.331 88.1898 131.331C86.5004 133.358 87.9082 130.936 87.9082 130.936C88.0208 130.486 88.5277 130.148 88.5277 130.148C89.2597 128.684 88.2461 129.866 88.2461 129.866L86.7819 131.5C85.9936 132.795 86.3314 131.556 86.3314 131.556C86.5567 130.936 86.2188 131.162 86.2188 131.162C85.9936 131.443 85.9372 131.049 85.9372 131.049C85.9936 130.486 85.5994 131.105 85.5994 131.105C84.5294 132.344 84.9799 131.162 84.9799 131.162C85.2615 130.486 84.6983 131.162 84.6983 131.162C84.0226 132.288 84.2478 131.105 84.2478 131.105C84.6983 130.43 85.3178 129.303 85.3178 129.303C86.7819 127.727 85.3178 128.74 85.3178 128.74C83.9663 129.472 84.1915 129.81 84.1915 129.81C84.1915 130.542 83.7973 130.711 83.7973 130.711C82.7274 132.006 83.4031 130.261 83.4031 130.261C83.7973 129.36 83.0089 129.979 83.0089 129.979C82.7837 130.542 82.1079 130.655 82.1079 130.655C81.038 132.119 81.4885 130.655 81.4885 130.655C81.77 130.261 81.77 129.866 81.77 129.866C82.0516 129.134 83.0652 128.402 83.0652 128.402C83.741 127.501 82.7837 128.121 82.7837 128.121C81.4322 129.247 80.8127 131.162 80.8127 131.162C79.9117 133.133 80.3622 131.274 80.3622 131.274C80.9253 129.247 81.6574 128.515 81.6574 128.515C82.6147 127.107 83.1216 127.051 83.1216 127.051C83.4031 126.826 84.0789 126.826 84.0789 126.826C84.6983 126.093 83.5158 126.375 83.5158 126.375C81.7137 127.332 80.5875 129.416 80.5875 129.416C80.0243 130.317 80.0243 129.698 80.0243 129.698C80.8127 127.445 82.7274 126.262 82.7274 126.262C83.8536 125.305 82.2769 126.037 82.2769 126.037C78.5039 128.797 79.1233 134.822 79.1233 134.822C79.3486 137.581 77.3776 137.412 77.3776 137.412C72.253 136.511 67.1848 138.201 67.1848 138.201C65.6081 137.244 64.2002 135.047 64.2002 135.047C62.2292 131.668 59.4136 132.682 59.4136 132.682C56.6542 133.133 56.1474 132.626 56.1474 132.626C54.8522 132.401 55.359 133.02 55.359 133.02C55.1337 133.696 55.359 133.808 55.359 133.808C55.9784 134.09 56.9921 133.921 56.9921 133.921C61.9477 133.189 61.7224 134.146 61.7224 134.146C62.8487 134.597 61.9477 135.047 61.9477 135.047C60.5961 134.259 59.6951 134.315 59.6951 134.315C57.2173 134.935 55.6969 134.935 55.6969 134.935C54.7395 134.653 54.7959 135.498 54.7959 135.498C54.5706 136.624 55.0211 136.793 55.0211 136.793C58.4562 134.766 61.7787 136.23 61.7787 136.23C63.0739 136.68 61.835 137.131 61.835 137.131C57.7242 135.329 54.458 137.919 54.458 137.919C55.9221 139.214 56.8231 140.341 56.8231 140.341C59.2446 142.593 61.6661 142.706 61.6661 142.706C63.0739 142.143 63.0176 142.706 63.0176 142.706C63.0176 142.931 62.6798 143.1 62.6798 143.1C61.2719 143.213 61.8914 143.832 61.8914 143.832C62.5108 144.564 62.9613 144.508 62.9613 144.508C65.9459 144.114 72.253 143.72 72.253 143.72C78.2223 142.988 83.1779 144.452 83.1779 144.452C86.4441 145.465 87.9645 144.564 87.9645 144.564C89.8792 142.762 88.9782 141.58 88.9782 141.58C87.3451 140.566 89.5413 139.947 89.5413 139.947C95.8484 138.145 102.268 137.469 102.268 137.469C103.901 137.976 102.719 137.187 102.719 137.187ZM150.304 143.945C149.234 142.143 147.713 141.636 147.713 141.636C139.717 138.145 139.604 137.244 139.604 137.244C139.322 134.935 136.619 133.752 136.619 133.752C135.944 133.639 134.311 134.203 134.311 134.203C133.353 134.653 132.903 134.259 132.903 134.259C130.875 132.344 129.974 132.344 129.974 132.344C129.017 131.725 128.567 129.247 128.567 129.247C128.848 125.643 123.78 122.264 123.78 122.264C122.766 120.687 122.541 121.983 122.541 121.983L122.091 123.785C120.401 127.163 117.98 129.472 117.98 129.472C114.713 132.851 110.208 133.865 110.208 133.865C106.548 134.822 104.352 134.991 104.352 134.991C101.367 135.216 102.381 135.667 102.381 135.667C102.831 136.117 104.633 137.244 104.633 137.244C106.379 138.313 108.632 138.539 108.632 138.539C110.434 138.764 108.913 137.581 108.913 137.581C108.575 137.244 107.449 136.568 107.449 136.568C106.21 135.836 107.167 135.667 107.167 135.667C110.434 137.75 110.772 138.82 110.772 138.82C111.166 139.271 112.123 140.397 112.123 140.397C114.15 142.819 115.783 142.988 115.783 142.988C118.599 143.269 121.302 144.114 121.302 144.114C124.23 145.691 126.258 144.564 126.258 144.564C128.679 143.156 134.367 142.819 134.367 142.819C136.169 142.368 136.507 141.017 136.507 141.017C137.07 139.89 137.126 140.904 137.126 140.904L136.845 141.918C136.901 142.875 137.577 142.199 137.577 142.199L137.915 141.749C138.703 140.791 138.365 141.805 138.365 141.805C137.746 142.706 138.084 142.819 138.084 142.819C139.717 143.382 141.744 145.522 141.744 145.522C143.546 147.098 142.701 148.788 142.701 148.788C141.293 149.914 140.899 149.464 140.899 149.464C138.985 148.844 138.872 149.407 138.872 149.407C137.802 150.477 137.239 152.054 137.239 152.054C135.155 153.406 135.944 153.518 135.944 153.518C137.014 154.87 138.196 153.068 138.196 153.068C138.421 152.054 140.167 150.252 140.167 150.252C140.618 149.801 140.618 150.646 140.618 150.646L139.041 152.561C138.027 153.969 138.759 153.969 138.759 153.969C140.787 154.757 142.251 153.518 142.251 153.518C142.814 150.139 144.672 148.9 144.672 148.9C145.461 148.563 145.404 148.957 145.404 148.957C145.855 149.407 144.672 149.632 144.672 149.632C142.758 151.547 142.701 153.969 142.701 153.969C146.812 153.518 147.826 153.912 147.826 153.912C150.191 154.025 150.416 153.293 150.416 153.293V151.716C150.473 150.702 149.74 149.013 149.74 149.013C149.065 147.943 149.74 146.929 149.74 146.929C151.542 145.747 150.304 143.945 150.304 143.945ZM100.635 60.2066C100.635 60.2066 101.536 61.5582 100.185 60.8824C100.185 60.8824 99.734 60.4319 98.7204 60.6008C98.7204 60.6008 97.5941 60.5445 95.9047 60.5445C95.6232 60.5445 92.9764 61.2203 92.9764 61.2203C92.9764 61.2203 92.2444 61.4455 92.6949 60.5445C92.6949 60.5445 93.1454 60.4882 93.4832 60.2629C93.4832 60.2629 93.7648 60.2066 93.7648 60.0377C93.7648 60.0377 93.4269 59.3619 93.3706 58.9114C93.3706 58.9114 92.2444 58.1793 91.1181 58.3483C91.1181 58.3483 89.9918 57.6725 92.1317 57.6162C92.1317 57.6162 93.7085 58.2357 94.2716 58.2357C94.2716 58.2357 95.5105 58.0104 96.5242 56.9404C96.5242 56.9404 99.2835 54.8568 100.354 55.251C100.354 55.251 101.029 55.251 101.818 56.0394C101.818 56.0394 102.043 56.8278 101.142 56.4336C101.142 56.4336 100.579 55.4763 98.7204 56.3773C98.7204 56.3773 98.6641 56.4336 99.1709 56.6589C99.1709 56.6589 100.804 57.4473 100.297 59.4182C100.297 59.4182 101.255 58.292 101.93 58.123C101.93 58.123 103 58.0667 102.268 58.7988C102.381 58.6862 101.649 58.7988 100.635 60.2066ZM95.6795 59.6435L95.2853 58.7425L94.2153 58.9114C94.2153 58.9114 93.8774 58.8551 94.2716 59.5309L94.5532 59.9814C94.5532 59.9251 94.8911 60.1503 95.6795 59.6435ZM70.7326 141.467C70.62 141.467 70.451 141.692 70.451 141.805C70.451 141.918 70.6763 142.086 70.7889 142.086C73.1541 141.692 79.5738 141.073 80.9253 142.65C80.9816 142.706 81.038 142.706 81.1506 142.706C81.2069 142.706 81.2632 142.706 81.3758 142.65C81.4885 142.537 81.4885 142.368 81.3758 142.255C79.5738 140.059 71.1268 141.411 70.7326 141.467ZM103.845 60.995C103.057 60.2066 102.099 60.3193 102.099 60.3193C101.086 60.6008 101.874 60.995 101.874 60.995C103.113 60.8824 103.507 61.3892 103.507 61.3892C104.014 61.5018 103.845 60.995 103.845 60.995ZM115.164 53.9558C115.896 53.9558 115.502 53.6179 115.502 53.6179L115.108 53.5616C114.713 53.2801 114.376 52.8296 114.376 52.8296C113.7 52.379 113.981 52.9422 113.981 52.9422C114.207 53.6179 115.164 53.9558 115.164 53.9558ZM114.488 55.1384C115.164 55.0258 114.601 54.6879 114.601 54.6879C114.207 54.6316 113.925 54.2937 113.925 54.2937C113.812 54.0121 113.643 53.9558 113.643 53.9558C112.911 53.8995 113.869 54.9132 113.869 54.9132C113.981 55.0821 114.488 55.1384 114.488 55.1384ZM108.181 65.4438C108.294 66.0632 108.068 66.5137 108.068 66.5137C107.393 67.7526 108.181 67.64 108.181 67.64C108.575 67.6963 108.801 66.5701 108.801 66.5701C109.42 65.3312 108.575 64.768 108.575 64.768L107.674 64.4301C106.773 64.0923 107.224 64.8243 107.224 64.8243L108.181 65.4438ZM109.814 71.0188C109.87 71.1315 110.208 71.0751 109.87 71.3004C109.533 71.5256 109.758 71.8635 109.758 71.8635L110.434 72.314C110.828 72.6519 110.715 72.9335 110.715 72.9335C110.434 74.0034 111.335 73.9471 111.335 73.9471C112.01 74.7355 112.01 74.0034 112.01 74.0034C111.785 73.7219 112.067 73.2714 112.067 73.2714C112.179 72.8209 111.729 72.9335 111.729 72.9335C111.335 73.0461 111.504 72.1451 111.504 72.1451C111.898 71.5256 111.447 71.4693 111.447 71.4693C111.109 71.8072 111.109 71.2441 111.109 71.2441C111.391 70.7936 110.997 70.6809 110.997 70.6809C110.771 70.6246 110.715 70.3994 110.715 70.3994C110.997 69.7236 110.603 69.6673 110.603 69.6673C110.49 69.7799 110.265 69.6673 110.265 69.6673C110.208 68.9352 109.645 69.442 109.645 69.442C109.138 70.8499 109.814 71.0188 109.814 71.0188ZM105.14 60.7134C105.534 61.3329 105.872 60.6008 105.872 60.6008C106.942 58.4609 106.154 57.222 106.154 57.222C105.929 56.6589 105.253 56.321 105.253 56.321C104.521 56.0394 104.859 56.8841 104.859 56.8841C106.492 57.6162 105.14 60.7134 105.14 60.7134ZM106.266 66.2885C106.379 66.5137 106.83 66.3448 106.83 66.3448C107.28 65.6127 106.83 65.4438 106.83 65.4438C105.872 65.6127 106.266 66.2885 106.266 66.2885ZM92.9764 57.4473C93.5396 57.7851 93.9901 57.3346 93.9901 57.3346L95.229 56.321C96.1863 55.5326 96.6368 55.3637 96.6368 55.3637C97.2563 54.9132 96.5242 54.8005 96.5242 54.8005C95.5669 54.8568 94.3843 56.0957 94.3843 56.0957C94.1027 56.3773 93.9901 56.4899 93.9901 56.4899C92.4133 57.3346 92.9764 57.4473 92.9764 57.4473ZM113.812 56.0957C114.094 55.7579 113.587 55.6452 113.587 55.6452C112.63 55.3637 113.306 56.0394 113.306 56.0394C113.587 56.1521 113.812 56.0957 113.812 56.0957Z" fill="black"/>
<path d="M59.7488 103.738C59.7488 103.738 59.073 101.485 60.4245 101.147L62.846 100.471L65.4928 100.528C65.4928 100.528 67.4074 98.8384 68.1395 99.1762C68.1395 99.1762 70.392 97.881 70.561 99.1762C70.561 99.1762 71.5183 99.4578 70.9552 100.922C70.9552 100.922 71.1804 107.905 72.5319 110.833L72.9261 113.48C72.9261 113.48 71.6309 114.944 69.1531 115.451C69.1531 115.451 66.9006 115.563 65.4364 113.311C65.4364 113.311 64.5354 112.016 63.9723 111.622C63.9723 111.622 63.2965 110.72 62.9023 109.594C62.9023 109.594 62.0013 108.637 61.1003 108.581C61.1003 108.581 59.4672 107.961 59.6362 106.61C59.6362 106.61 59.2983 106.215 60.0867 105.033C60.0867 104.977 60.0867 104.47 59.7488 103.738ZM59.1293 97.4868C59.4672 97.9373 60.0303 100.303 60.0303 100.303C60.4809 100.922 60.6498 100.19 60.6498 100.19C59.8614 97.7684 59.5798 95.7974 59.5798 95.7974C59.5235 94.7275 59.1293 94.8964 59.1293 94.8964C58.2846 95.4032 59.1293 97.4868 59.1293 97.4868ZM60.5935 97.7684C60.5372 98.5005 60.9877 99.9083 60.9877 99.9083C61.3256 100.359 61.6071 99.6831 61.6071 99.6831C61.1566 98.05 61.2692 96.3042 61.2692 96.3042L61.4945 95.91C61.6071 95.5159 61.1003 95.2343 61.1003 95.2343C59.8051 93.9954 60.3119 96.5295 60.3119 96.5295L60.5935 97.7684ZM62.1139 97.6558C62.1139 97.7121 62.0576 97.9373 62.0576 97.9373C61.6634 98.2752 61.945 98.5568 61.945 98.5568C62.5081 98.6131 62.3392 99.4578 62.3392 99.4578C62.5645 100.077 63.2965 99.9083 63.2965 99.9083C64.0849 99.6267 63.3528 98.8947 63.3528 98.8947C63.4092 98.2752 63.1276 98.1626 63.1276 98.1626C63.3528 97.3742 63.015 97.2616 63.015 97.2616V96.6421C63.015 95.9664 62.5645 96.0227 62.5645 96.0227C62.0013 95.8537 62.1139 97.6558 62.1139 97.6558ZM64.2539 99.5704C64.5354 100.134 64.817 99.5704 64.817 99.5704L64.5917 97.8247C64.5354 96.0227 63.9723 96.2479 63.9723 96.2479C63.2402 96.3042 63.5781 97.3179 63.5781 97.3179L64.2539 99.5704ZM65.0423 96.4169C64.9859 97.3179 65.2675 97.5431 65.2675 97.5431C65.0422 98.5568 65.2675 98.6694 65.2675 98.6694L65.4928 99.5704L66.0559 99.5141C66.619 99.2325 66.1122 98.1626 66.1122 98.1626C66.3375 97.0363 65.887 97.1489 65.887 97.1489L65.8306 96.5858C65.887 95.178 65.0423 96.4169 65.0423 96.4169ZM66.3938 96.4732C66.3938 98.8383 66.8443 98.782 66.8443 98.782C67.7453 99.1762 68.0832 98.5568 68.0832 98.5568C67.8016 98.1626 67.689 97.4868 67.689 97.4868C67.7453 96.2479 67.4637 96.2479 67.4637 96.2479L67.4074 94.5022C67.1822 92.8691 66.3938 94.7838 66.3938 94.7838V96.4732ZM68.0269 94.1643C68.1395 94.5022 68.0832 94.8401 68.0832 94.8401C68.0832 95.9664 68.3647 97.4868 68.3647 97.4868C68.4774 98.7257 69.0968 98.05 69.0968 98.05C70.1668 97.3742 69.7163 97.1489 69.7163 97.1489C69.3221 96.5295 69.6036 94.5022 69.6036 94.5022C69.7163 93.1507 69.2658 93.5449 69.2658 93.5449L68.0269 94.1643ZM81.7111 87.0125C81.9926 87.2378 82.1616 87.0125 82.1616 87.0125L82.3868 85.7173C82.6121 84.8163 82.4994 84.6473 82.4994 84.6473H82.2742C81.88 84.6473 81.8237 85.7736 81.8237 85.7736L81.7111 87.0125ZM82.7247 87.4067C82.4994 88.0825 83.0626 88.1388 83.0626 88.1388C83.9636 88.7019 83.851 88.1388 83.851 88.1388C83.851 88.1388 84.0762 85.0979 84.1325 84.8726C84.2452 84.3095 83.5131 84.5347 83.5131 84.5347L83.1752 84.9852L82.7247 87.4067ZM84.5267 87.9698C84.4141 88.6456 84.583 88.7019 84.583 88.7019L85.2588 88.8145C86.2161 88.8145 85.9346 88.364 85.9346 88.364L85.9909 85.7736C86.1035 84.7037 85.5404 84.8726 85.5404 84.8726C84.752 84.9289 84.8646 85.8862 84.8646 85.8862L84.5267 87.9698ZM86.7793 86.562C86.554 86.6746 86.4977 87.1251 86.4977 87.1251C86.6103 87.4067 86.7793 88.1951 86.7793 88.1951C86.6666 89.1524 87.455 88.8145 87.455 88.8145C88.2434 88.7582 87.8492 88.1951 87.8492 88.1951L87.7366 85.4357C87.3424 84.4784 86.7793 85.492 86.7793 85.492V86.562ZM88.4687 86.2804C88.0182 88.9835 89.0881 88.6456 89.0881 88.6456C90.3833 88.2514 90.2144 87.9698 90.2144 87.9698C90.2144 87.5193 89.9891 86.562 89.9891 86.562C89.9891 86.562 89.7639 85.6047 89.8765 85.492C90.1018 84.7037 88.9192 84.8726 88.9192 84.8726C88.1871 84.8726 88.356 85.2668 88.356 85.2668L88.4687 86.2804ZM90.8338 87.5193C90.7212 88.0825 91.228 88.3077 91.228 88.3077L92.1854 87.9135C92.4669 87.5193 92.2417 86.5057 92.2417 86.5057L92.0164 85.8862C92.1291 84.9289 91.5659 84.9852 91.5659 84.9852C90.5523 84.9852 90.7775 85.5484 90.7775 85.5484L90.8338 87.5193ZM92.9174 84.8726C92.5233 84.9289 92.8048 86.1678 92.8048 86.1678C93.0864 86.8999 93.0301 87.1814 93.0301 87.1814C93.0301 88.1388 93.4806 87.9135 93.4806 87.9135C93.4806 87.9135 94.4379 87.3504 94.4942 87.2941C95.1137 86.6746 94.3816 85.5484 94.3816 85.5484C94.3816 84.76 94.1563 84.6473 94.1563 84.6473L92.9174 84.8726ZM95.1137 84.1968C94.7195 85.1542 95.2263 86.1115 95.2263 86.1115C95.6205 87.0688 96.2399 86.4494 96.2399 86.4494C96.972 85.9989 96.8031 85.8299 96.8031 85.8299L96.4652 84.2531C96.1836 83.4648 96.071 83.6337 96.071 83.6337L95.1137 84.1968ZM97.141 83.0142C96.9157 83.2395 97.0846 83.4648 97.0846 83.4648L97.4225 85.0415C97.5352 85.661 97.873 85.4357 97.873 85.4357L98.6051 84.76C98.8304 84.5347 98.4925 83.7463 98.4925 83.7463C98.6051 83.3521 98.2672 82.789 98.2672 82.789C98.3235 82.0006 97.8167 82.3385 97.8167 82.3385L97.141 83.0142ZM99.1683 83.8026C99.2246 84.4221 99.6188 84.0279 99.6188 84.0279C100.069 83.8026 99.844 82.9579 99.844 82.9579C99.6188 82.5074 99.7314 82.0006 99.7314 82.0006C98.9993 80.987 98.8304 81.7754 98.8304 81.7754L99.1119 82.9016L99.1683 83.8026ZM100.295 82.5074C100.689 83.1269 100.858 82.5637 100.858 82.5637C101.421 82.1132 100.463 82.1695 100.463 82.1695C100.013 82.1132 100.295 82.5074 100.295 82.5074ZM140.39 103.118C140.39 103.118 137.687 105.709 131.605 105.934C131.605 105.934 129.69 103.231 127.156 101.936C127.156 101.936 124.735 100.134 123.102 97.4868C123.102 97.4868 128.226 95.3469 129.409 92.9817C129.409 92.9817 130.873 90.8981 132.393 92.7002C132.393 92.7002 132.956 93.1507 133.294 93.0944C133.294 93.0944 133.97 92.7002 132.675 91.8555L131.267 91.1234C131.267 91.1234 131.154 90.2224 132.9 89.4903C132.9 89.4903 133.857 88.7019 132.112 88.8709C132.112 88.8709 130.873 89.3214 129.296 91.6865C129.296 91.6865 126.706 95.3469 121.637 96.8111C121.637 96.8111 115.443 97.9373 110.149 93.207C110.149 93.207 109.361 93.0944 110.713 94.4459C110.713 94.4459 112.458 95.7411 110.938 95.7411C110.938 95.7411 109.586 96.0227 110.037 96.3042C110.037 96.3042 110.318 96.4169 111.839 96.0227C111.839 96.0227 112.965 95.6285 114.823 96.6984C114.823 96.6984 116.175 97.6558 118.484 97.9936C118.484 97.9936 119.948 102.837 114.542 110.72C114.542 110.72 112.852 113.311 110.375 114.494C110.375 114.494 107.953 116.971 107.559 118.435C107.559 118.435 107.841 119.843 108.629 118.83C108.629 118.83 110.375 115.226 113.359 113.874C113.359 113.874 113.81 113.93 113.81 115.282C113.81 115.282 114.542 117.197 116.4 118.661C116.4 118.661 116.851 119.336 115.724 120.744C115.724 120.744 113.416 125.193 109.755 126.601L109.079 126.939C109.079 126.939 107.672 126.882 106.94 127.22L105.926 127.671C105.926 127.671 104.011 127.896 103.899 128.009C103.842 128.121 102.998 128.009 102.998 128.29C102.998 128.572 100.069 128.009 99.6188 128.403C99.6188 128.403 98.5488 128.459 98.6051 128.685C98.6051 128.685 95.4516 128.741 95.5079 129.135L93.1427 129.417L91.1154 129.191C91.1154 129.191 88.4124 129.135 82.4431 123.842C82.4431 123.842 77.6565 119.111 75.0661 114.775C75.0661 114.775 69.3221 105.089 73.264 93.6012C73.264 93.6012 75.6292 87.1815 80.7537 87.0688C80.7537 87.0688 82.0489 90.4476 88.8629 89.434C88.8629 89.434 93.1427 89.3777 98.8867 85.8299C98.8867 85.8299 100.689 84.1968 101.139 83.5211C101.139 83.5211 102.491 81.9443 104.8 81.1559C104.8 81.1559 105.701 80.4801 106.376 79.917C106.376 79.917 107.503 79.6918 108.178 79.6354C108.178 79.6354 110.881 78.1713 114.204 78.9597C114.204 78.9597 117.808 79.2412 129.071 84.0842C129.071 84.0842 130.873 85.3231 133.351 85.4357C133.351 85.4357 133.632 85.7173 133.801 86.7309L136.054 90.8981C136.11 90.7855 140.333 95.4595 140.39 103.118ZM107.784 124.236C107.784 124.461 108.009 124.63 108.235 124.63C108.516 124.63 108.629 124.405 108.629 124.179C108.404 121.082 110.318 120.181 110.375 120.125C112.177 119.449 113.303 118.548 113.697 117.647C113.979 116.915 113.697 116.296 113.697 116.239C113.585 116.014 113.303 115.958 113.078 116.014C112.852 116.127 112.74 116.408 112.852 116.633C112.852 116.633 112.965 116.915 112.796 117.309C112.571 117.76 112.008 118.548 110.037 119.28C109.98 119.393 107.559 120.463 107.784 124.236ZM132.224 109.876C131.436 107.229 131.436 107.116 131.436 107.116C130.648 106.835 130.816 107.398 130.816 107.398C131.549 109.819 132.224 109.876 132.224 109.876ZM132.055 107.173C132.618 109.538 132.956 109.763 132.956 109.763C133.182 110.045 133.632 109.819 133.632 109.819C133.407 109.482 132.844 106.891 132.844 106.891C132.168 106.215 132.055 107.173 132.055 107.173ZM133.632 107.961C134.026 110.101 134.589 109.932 134.589 109.932C135.265 109.594 134.477 108.355 134.477 108.355C134.421 107.623 134.083 106.722 134.083 106.722C133.125 106.272 133.632 107.961 133.632 107.961ZM134.815 106.835C135.04 108.637 135.434 109.425 135.434 109.425C136.11 109.876 136.166 109.087 136.166 109.087C136.11 108.975 135.716 106.722 135.716 106.722C135.603 106.103 135.265 106.159 135.265 106.159C134.646 106.272 134.815 106.835 134.815 106.835ZM136.898 108.975C137.18 109.538 137.574 109.031 137.574 109.031V106.553C137.518 105.314 137.011 105.54 137.011 105.54C136.279 105.652 136.448 106.328 136.448 106.328L136.898 108.975ZM138.137 105.821C138.081 108.918 138.419 108.75 138.419 108.75C139.658 108.975 139.32 108.186 139.32 108.186C138.757 107.06 138.869 106.103 138.869 106.103C138.982 105.371 138.757 105.145 138.757 105.145C138.025 104.977 138.137 105.821 138.137 105.821ZM139.601 104.751C139.376 107.454 139.939 108.186 139.939 108.186C140.559 108.468 140.84 107.623 140.84 107.623L140.446 104.695C140.502 103.738 139.601 104.751 139.601 104.751ZM115.837 116.802C116.569 116.239 115.443 115.732 115.443 115.732C115.274 116.633 115.837 116.802 115.837 116.802ZM117.526 116.352C117.526 116.352 121.187 119.055 121.581 120.294C121.581 120.294 122.313 120.519 121.806 119.618C121.806 119.618 119.666 116.464 116.625 115.338C116.625 115.338 116.175 115.057 116.738 116.296C116.738 116.296 117.301 117.703 117.132 118.041C117.132 118.041 117.02 118.041 117.864 118.492C117.864 118.492 119.216 119.449 120.342 121.195C120.342 121.195 121.243 122.434 121.637 121.927C121.637 121.927 122.257 121.702 121.074 120.632C121.074 120.632 120.061 119.28 117.639 117.14C117.639 117.14 116.851 116.127 117.526 116.352ZM121.468 122.659C121.468 122.659 120.004 122.096 118.653 120.069C118.653 120.069 117.639 118.492 117.02 118.999L116.794 119.956C116.794 119.956 116.344 119.843 117.583 120.632C117.583 120.632 120.624 123.785 120.849 123.447C120.793 123.504 121.412 124.067 121.468 122.659ZM115.837 121.814C115.95 122.208 116.231 122.434 116.231 122.434C117.132 122.772 118.822 124.799 118.822 124.799C119.441 125.362 120.061 125.587 120.061 125.587L120.68 124.686C121.299 123.729 120.455 123.954 120.455 123.954C119.666 123.842 117.189 121.026 117.189 121.026C116.513 120.069 115.837 121.814 115.837 121.814ZM114.992 123.504C115.443 124.517 116.4 125.306 116.4 125.306C116.682 125.587 118.484 126.601 118.484 126.601C119.216 127.051 119.272 126.657 119.272 126.657C120.061 126.094 119.328 125.869 119.328 125.869C118.54 125.531 116.4 123.447 116.4 123.447C115.33 122.096 115.33 122.49 115.33 122.49C114.654 123.053 114.992 123.504 114.992 123.504ZM113.922 125.193C115.95 127.671 116.738 127.615 116.738 127.615C117.358 128.065 117.864 128.234 117.864 128.234C118.991 127.615 118.146 127.164 118.146 127.164C115.781 126.207 114.654 124.461 114.654 124.461C114.26 123.673 113.922 124.179 113.922 124.179C113.247 124.743 113.922 125.193 113.922 125.193ZM112.852 126.432C115.274 129.079 116.457 129.36 116.457 129.36C117.752 129.586 117.358 128.741 117.358 128.741C115.33 127.783 114.035 126.15 114.035 126.15C113.078 124.912 112.909 125.249 112.909 125.249C111.839 126.038 112.852 126.432 112.852 126.432ZM113.021 128.572C114.26 130.487 115.049 130.487 115.049 130.487C115.781 131.05 115.95 130.43 115.95 130.43C116.569 129.98 115.33 129.754 115.33 129.754C115.274 129.191 113.585 128.121 113.585 128.121C111.501 125.869 111.445 126.319 111.445 126.319C110.262 126.376 113.021 128.572 113.021 128.572ZM109.643 127.164C109.53 127.502 109.699 127.727 109.699 127.727C111.388 129.811 113.641 131.5 113.641 131.5C114.88 131.613 114.598 130.824 114.598 130.824C114.204 130.712 113.359 129.867 113.359 129.867C113.078 129.304 110.769 127.108 110.769 127.108C110.487 126.432 109.643 127.164 109.643 127.164ZM107.841 127.615C107.784 128.234 109.53 129.754 109.53 129.754C110.318 131.05 112.233 132.12 112.233 132.12C113.134 132.683 113.19 131.725 113.19 131.725C109.192 128.121 109.023 127.896 109.023 127.896C109.192 126.77 107.841 127.615 107.841 127.615ZM106.151 128.121C105.701 128.741 107.615 130.824 107.615 130.824C107.953 131.388 110.262 132.626 110.262 132.626C110.938 133.246 111.332 132.683 111.332 132.683C112.12 132.345 110.206 131.613 110.206 131.613C109.98 131.388 109.136 130.261 109.136 130.261C107.446 128.797 107.559 128.628 107.559 128.628C107.615 127.671 107.334 127.671 107.334 127.671L106.151 128.121ZM108.122 133.246C108.235 133.978 109.699 133.246 109.699 133.246C109.812 132.795 108.742 132.458 108.742 132.458C107.503 131.162 108.122 133.246 108.122 133.246ZM105.081 129.867C105.532 130.487 106.771 132.852 106.771 132.852C107.559 133.809 107.503 132.964 107.503 132.964C107.728 131.894 106.151 130.374 106.151 130.374C105.87 129.304 105.419 128.966 105.419 128.966C105.475 128.516 105.363 128.347 105.363 128.347C104.405 128.065 104.293 128.797 104.293 128.797L105.081 129.867ZM103.054 129.079C103.054 129.079 102.829 129.304 103.167 129.642C103.561 129.98 103.955 130.43 103.955 130.43L105.025 132.176C106.602 134.26 105.701 132.57 105.701 132.57C105.475 132.345 105.25 131.556 105.25 131.556C105.306 130.881 104.293 129.98 104.293 129.98C103.955 129.642 103.842 128.91 103.842 128.91C103.335 128.065 103.054 129.079 103.054 129.079ZM101.083 128.797C100.52 128.797 100.858 129.36 100.858 129.36C100.632 129.698 102.885 132.345 102.885 132.345C104.293 134.26 104.518 134.26 104.518 134.26C105.926 134.372 105.588 133.865 105.588 133.865C103.561 130.43 102.491 129.754 102.491 129.754C102.772 128.234 101.083 128.797 101.083 128.797ZM99.3935 129.191C99.1682 130.824 101.308 133.302 101.308 133.302C101.702 134.26 102.097 134.597 102.097 134.597C103.786 134.71 103.504 134.203 103.504 134.203C100.182 130.261 100.351 129.754 100.351 129.754V129.079C100.013 128.403 99.3935 129.191 99.3935 129.191ZM96.1273 129.529C96.1836 129.867 96.7468 130.599 96.7468 130.599C97.141 131.725 99.6751 133.021 99.6751 133.021C101.139 133.922 99.6188 132.12 99.6188 132.12C99.3935 131.162 99.1683 130.824 99.1683 130.824C98.7741 130.261 98.7741 129.923 98.7741 129.923C98.8867 128.966 98.4925 129.191 98.4925 129.191L96.1273 129.529ZM94.2127 129.867C93.0864 129.473 93.8185 130.599 93.8185 130.599C94.4379 132.289 97.8167 134.372 97.8167 134.372C98.4362 134.935 99.7877 134.823 99.7877 134.823C102.04 135.104 100.407 134.372 100.407 134.372C98.7741 133.471 96.972 132.063 96.972 132.063C96.2963 131.5 95.6768 130.318 95.6768 130.318C95.3952 129.417 94.2127 129.867 94.2127 129.867ZM91.0591 129.642C89.7639 129.36 90.9465 130.205 90.9465 130.205C91.5096 130.937 93.5369 132.458 93.5369 132.458C96.1273 133.865 94.1 132.063 94.1 132.063C92.9738 130.937 92.9738 130.599 92.9738 130.599C93.199 129.923 92.5233 129.867 92.5233 129.867L91.0591 129.642Z" fill="#862633"/>
<path d="M96.5798 48.8299C96.5798 48.8299 93.7642 50.2378 86.6687 47.8726L82.5015 46.1269C82.5015 46.1269 78.3343 43.987 76.7012 43.4238C76.7012 43.4238 77.9964 43.0859 80.3616 44.1559C80.3616 44.1559 84.8103 46.2958 85.3735 46.5211C85.655 46.69 87.5697 48.4357 96.5798 48.8299ZM108.518 45.789L106.829 46.9153L105.083 48.3794C105.083 48.3794 104.52 47.4221 103.788 47.0279C103.788 47.0279 101.366 45.3948 97.9877 47.7037C97.9877 47.7037 94.4962 48.492 88.4144 46.9716C88.4144 46.9716 86.1055 41.8471 92.4126 38.1304L95.5662 37.7925C95.5662 37.7925 97.9314 38.1867 100.297 41.2839C100.297 41.2839 101.31 40.214 96.5235 37.173C96.5235 37.173 98.8324 36.1031 101.704 37.3983C101.704 37.3983 103.169 38.074 104.689 40.7208C104.689 40.7208 105.815 42.016 106.716 42.8607C106.716 42.9733 109.194 45.3385 108.518 45.789ZM92.3 42.1286L91.7369 42.4665C92.4126 43.5365 92.1311 46.1832 92.1311 46.1832L92.7505 46.2395C92.8632 46.1269 93.0884 43.4238 92.3 42.1286ZM93.2573 40.214L92.6942 40.4955C94.4962 43.8743 93.4263 45.789 93.4263 45.789L93.9894 46.0706C94.0457 46.0143 95.2846 43.9307 93.2573 40.214ZM97.0304 46.0706C97.0304 45.9579 96.8051 42.6354 95.2283 39.9324L94.6652 40.2703C96.2983 42.917 96.4109 46.0706 96.4109 46.1269L97.0304 46.0706ZM100.015 45.3385L99.114 43.0859L98.5508 43.3112L99.4518 45.5637L100.015 45.3385ZM104.52 46.69L103.056 43.7054L102.493 43.987L103.957 46.9716L104.52 46.69ZM105.027 46.1269C104.576 42.8607 101.423 39.7635 101.31 39.6508L100.916 40.045C100.916 40.045 104.013 43.1423 104.407 46.1832L105.027 46.1269ZM106.209 45.3948C106.097 44.6064 104.126 41.4529 103.901 41.0587L103.337 41.3965C104.126 42.7481 105.421 45.0006 105.59 45.5074L106.209 45.3948ZM87.2881 43.4238C87.2881 43.4238 87.0065 45.1132 87.2318 46.5211L81.7131 44.2122C81.7131 44.2122 79.6295 38.7498 89.597 37.1167C89.597 37.1167 89.2591 37.5672 91.2301 37.7925C91.1737 37.9051 87.2318 41.3402 87.2881 43.4238ZM82.5578 43.3112C82.5578 43.3112 83.5714 41.0023 84.9793 40.1576L84.6977 39.7071C83.1209 40.6645 82.051 43.0296 81.9946 43.1423L82.5578 43.3112ZM83.7967 43.6491C84.1346 43.0859 85.0919 41.6781 85.5424 41.3402L85.2045 40.8897C84.5851 41.3402 83.4588 43.1986 83.2899 43.3675L83.7967 43.6491ZM87.0065 40.6082L86.9502 40.3266L86.8939 40.045C86.6687 40.1013 85.8803 40.4955 84.5851 44.1559L85.1482 44.3812C86.3308 41.0023 87.0065 40.6645 87.0065 40.6082Z" fill="#001A72"/>
<path d="M87.1201 109.707L87.1765 109.932L87.0638 110.045C86.4444 110.946 85.7686 111.847 85.1492 112.804L85.0365 113.029H84.755C83.3471 113.029 81.9393 113.086 80.4751 113.086H80.3625L80.2499 112.973C79.2363 112.072 78.1663 111.227 77.1527 110.27L77.04 110.157V110.045C76.8148 108.919 76.7021 107.736 76.5895 106.61L76.5332 106.159H81.2635L81.3199 106.553C81.3762 107.229 81.4325 107.961 81.6014 108.637H82.2772C82.1646 107.623 81.9956 106.553 81.9393 105.54L79.4615 105.314L79.3489 105.202C78.3915 104.244 77.5468 103.287 76.7021 102.386L76.5895 102.274V102.048C76.6458 100.077 76.9274 98.1063 77.2653 96.1916V96.079L77.3779 96.0227C78.3915 95.1217 79.4615 94.2207 80.5315 93.3197L80.6441 93.207L85.0365 93.2633L85.1492 93.4886C85.7686 94.3896 86.4444 95.2906 87.1201 96.248L87.2328 96.3606L87.1765 96.5858C86.9512 97.6558 86.8386 98.7258 86.7259 99.9083L86.6696 100.303H81.8267L81.883 99.852C81.9393 99.1763 81.9956 98.4442 82.1646 97.7684H81.4888C81.3762 98.7821 81.2072 99.7957 81.1509 100.809C81.883 100.866 82.7277 100.922 83.4598 101.035H83.685L83.7976 101.147C84.586 102.048 85.4307 102.949 86.3881 103.907L86.5007 104.019V104.244C86.557 105.934 86.7823 107.849 87.1201 109.707ZM98.2702 109.594C97.9323 107.905 97.7071 106.159 97.5945 104.47V104.076H92.9768V104.526C93.0331 105.878 93.202 107.229 93.3709 108.524H92.6389C92.0194 104.92 92.0194 101.316 92.5826 97.7121H93.3146C93.202 98.7258 93.0331 99.7957 92.9768 100.866V101.316H97.5945V100.922C97.6508 99.4578 97.876 97.9374 98.1576 96.5295L98.2139 96.3043L98.1013 96.1916C97.4255 95.2906 96.8061 94.3896 96.1866 93.4886L96.074 93.2633L91.7379 93.207H91.6252L91.5126 93.3197C90.4426 94.2207 89.429 95.0654 88.4154 96.0227L88.3027 96.079V96.1916C87.4017 100.697 87.4017 105.258 88.3027 109.763V109.876L88.4154 109.932C89.4853 110.833 90.5553 111.678 91.7942 112.579L91.9068 112.635L96.2429 112.579L96.3556 112.354C96.9187 111.453 97.4818 110.608 98.2702 109.651L98.3829 109.538L98.2702 109.594Z" fill="black"/>
<path d="M77.8275 109.708C77.7148 108.75 77.5459 107.906 77.4333 107.005H80.3616C80.4179 107.737 80.4742 108.412 80.6431 109.144L80.6995 109.539H83.1772L83.1209 108.975C82.8957 107.68 82.7831 106.329 82.7267 105.034V104.639L79.7421 104.358C78.9537 103.569 78.109 102.668 77.377 101.88C77.4333 100.078 77.6585 98.2196 78.0527 96.4739C79.01 95.6855 79.9674 94.7845 80.981 93.9961L84.5851 94.0524C85.1482 94.8408 85.7114 95.6855 86.3308 96.4739C86.1056 97.3749 85.9929 98.2759 85.9366 99.2333H82.952C83.0083 98.5575 83.1772 97.8817 83.2336 97.206L83.2899 96.6428H80.8121L80.7558 97.037C80.5305 98.3322 80.3616 99.6838 80.3053 100.979V101.373L80.6995 101.429C81.6005 101.486 82.3889 101.655 83.2899 101.711C84.0219 102.499 84.8667 103.4 85.655 104.189C85.7114 105.991 85.9366 107.849 86.2745 109.651C85.7114 110.44 85.2045 111.284 84.6414 112.073C83.3462 112.073 82.051 112.129 80.8121 112.129C79.7421 111.397 78.7848 110.552 77.8275 109.708ZM96.7488 104.921H93.9331C93.9894 106.216 94.1584 107.568 94.3836 108.863L94.44 109.426H91.8495L91.7932 109.032C91.1175 105.09 91.1175 101.148 91.7369 97.1497L91.7932 96.7555H94.3836L94.3273 97.3186C94.2147 98.3322 94.0458 99.4022 93.9894 100.416H96.7488C96.8051 99.1206 97.0304 97.8254 97.1993 96.5865C96.5799 95.7981 96.073 95.0097 95.5662 94.2213L91.8495 94.165C90.8922 94.9534 89.9349 95.7981 89.0339 96.5865C88.2455 100.923 88.2455 105.259 89.0339 109.539C90.0475 110.327 91.0611 111.172 92.1311 111.96L95.7352 111.904C96.1857 111.172 96.7488 110.327 97.3683 109.539C97.0304 108.018 96.8051 106.498 96.7488 104.921Z" fill="white"/>
</svg>
