<svg width="487" height="390" viewBox="0 0 487 390" fill="none" xmlns="http://www.w3.org/2000/svg">
<path d="M52.2322 387.055H0.00183633L29.6907 53.3303H19.7944L25.2923 2.19958H125.904L159.992 387.055H107.761L101.714 321.08H58.2799L52.2322 387.055ZM62.6782 269.949H97.3152L80.2716 78.6208L62.6782 269.949ZM319.182 219.918V338.123C319.182 353.517 314.418 365.979 304.888 375.509C295.358 384.672 282.896 389.254 267.502 389.254H227.917C212.523 389.254 200.061 384.672 190.531 375.509C181.001 365.979 176.236 353.517 176.236 338.123V51.1312C176.236 35.737 181.001 23.4582 190.531 14.295C200.061 4.76528 212.523 0.000406827 227.917 0.000406827H267.502C282.896 0.000406827 295.358 4.76528 304.888 14.295C314.418 23.4582 319.182 35.737 319.182 51.1312V174.285L266.952 168.787V53.8801C266.952 52.0475 266.036 51.1312 264.203 51.1312H231.216C229.383 51.1312 228.467 52.0475 228.467 53.8801V335.374C228.467 337.207 229.383 338.123 231.216 338.123H264.203C266.036 338.123 266.952 337.207 266.952 335.374V219.918H319.182ZM486.697 219.918V338.123C486.697 353.517 481.933 365.979 472.403 375.509C462.873 384.672 450.411 389.254 435.017 389.254H395.432C380.038 389.254 367.576 384.672 358.046 375.509C348.516 365.979 343.751 353.517 343.751 338.123V51.1312C343.751 35.737 348.516 23.4582 358.046 14.295C367.576 4.76528 380.038 0.000406827 395.432 0.000406827H435.017C450.411 0.000406827 462.873 4.76528 472.403 14.295C481.933 23.4582 486.697 35.737 486.697 51.1312V174.285L434.467 168.787V53.8801C434.467 52.0475 433.551 51.1312 431.718 51.1312H398.731C396.898 51.1312 395.982 52.0475 395.982 53.8801V335.374C395.982 337.207 396.898 338.123 398.731 338.123H431.718C433.551 338.123 434.467 337.207 434.467 335.374V219.918H486.697Z" fill="white"/>
</svg>
