<svg width="200" height="200" viewBox="0 0 200 200" fill="none" xmlns="http://www.w3.org/2000/svg">
<g clip-path="url(#clip0_107_19976)">
<path d="M41.388 186.978C52.8107 164.609 65.4346 141.045 75.4821 118.06L96.3741 128.348C93.169 134.304 78.9061 139.356 72.6474 141.528L83.8063 149.415C80.8651 156.274 76.9752 163.077 73.9272 170.677L121.145 170.464C126.286 168.74 128.386 166.085 130.637 161.488C132.27 158.272 133.881 154.433 134.706 153.338C135.296 152.558 136.311 152.681 137.176 152.412C138.557 151.974 139.303 152.21 139.837 153.675C140.106 152.535 140.274 151.525 139.264 150.369L135.015 147.764L149.126 147.478C154.84 147.478 159.033 148.034 160.942 148.421C160.291 149.594 150.367 170.06 148.795 172.434C142.553 181.864 135.464 185.473 117.143 186.624C110.536 187.039 45.1993 187.011 41.3824 186.989L41.388 186.978ZM119.444 142.505L121.089 141.539L117.508 138.222L124.962 137.857C125.837 139.586 127.718 143.167 128.363 144.997C126.079 145.513 120.982 143.74 119.444 142.505ZM106.012 142.46L109.739 141.972C104.519 140.26 102.094 138.862 98.2938 134.708C101.207 135.196 105.54 137.021 107.264 136.656L97.9963 129.056C109.099 122.528 110.126 114.349 106.461 103.308C104.451 98.3463 100.365 94.0972 87.7692 84.7177C78.1427 77.5497 74.0114 73.671 70.1384 67.7885C67.9661 64.4936 63.4139 54.0363 62.774 49.4953C65.7545 53.0428 70.6323 65.0605 93.2251 81.3442C102.661 89.6067 109.391 92.2 117.07 109.646C118.495 110.589 119.871 111.167 121.437 111.475C120.359 110.184 118.726 109.937 117.362 107.877C117.362 106.923 119.09 101.063 120.387 98.3744C126.528 86.076 139.343 78.4254 150.979 71.8019C154.941 70.1853 162.721 62.5571 170.546 59.8066C163.838 73.3006 139.966 78.706 131.776 96.9487C129.43 103.454 126.932 110.914 129.144 117.526L119.191 115.713C119.848 116.931 121.745 120.052 121.521 120.142L112.922 122.595L122.284 125.772C120 126.479 116.654 128.59 114.791 129.729C116.778 130.285 117.642 130.117 119.147 130.655C117.934 133.339 116.441 131.969 115.24 133.967C116.413 137.026 117.446 141.837 118.619 144.896C114.594 145.16 110.031 144.346 106.012 142.454V142.46ZM87.4885 118.138C79.8603 114.838 74.8085 108.343 70.3068 101.226C73.3042 101.888 74.3987 102.45 77.7666 103.701C67.9942 96.2077 63.8236 92.9577 58.957 81.1197C66.8547 85.3351 75.0611 93.9681 82.6669 97.4875C69.6107 88.5234 63.4981 76.7134 58.3115 61.6814C68.0503 72.6102 76.8461 81.3835 88.9143 89.5955C100.404 97.3191 104.996 104.891 104.996 110.869C103.525 121.405 95.4872 121.736 87.4885 118.138ZM160.515 100.968C156.468 100.839 153.257 100.9 147.903 101.147C151.254 95.8653 158.708 88.1978 164.736 84.6279C174.223 84.931 183.159 84.8748 192.577 85.0432L177.338 115.893L153.527 115.702L160.521 100.956L160.515 100.968ZM6.51364 113.535L56.1673 12.735C88.9367 13.1279 130.491 10.1642 149.721 16.5463C155.273 24.6011 143.76 41.2553 140.746 47.1996C135.52 54.3619 126.393 57.6512 117.912 59.4867C123.469 61.092 124.372 61.8666 128.324 66.5929C129.374 74.7993 118.428 92.969 114.589 100.597L98.7036 83.6512C101.084 78.9081 105.456 73.7272 101.381 69.1525L80.2757 68.608C75.2519 63.7583 70.9074 58.1002 67.6349 52.0381C82.3918 52.3075 98.8327 53.026 113.438 49.9388C116.694 48.1875 125.36 33.1106 121.296 30.2648L72.625 29.1814C69.6949 33.352 68.331 38.6339 65.1146 42.9953C63.6889 39.4478 64.3961 31.7298 64.8901 28.2104C58.188 37.8425 62.0218 52.1616 63.7619 63.8649C57.9018 56.3209 53.3888 45.6728 52.6535 37.3205C51.138 50.9042 52.5412 55.1028 57.9747 66.9634C52.2437 66.5087 47.119 57.9431 45.9851 53.7108C46.4678 62.1473 50.571 68.1982 55.6116 75.9724C52.0024 76.8368 48.0114 73.9629 45.1095 72.1387L48.1069 78.7116C45.6371 85.0657 41.5058 91.0212 38.8115 97.7289L64.9126 97.9815C67.6461 102.943 69.6669 109.281 73.1021 113.844C70.7446 113.547 6.37331 113.928 6.50802 113.541L6.51364 113.535ZM140.117 98.728C139.006 98.9525 136.036 100.788 134.038 101.894C134.049 99.0424 137.861 91.5208 142.587 86.8057C149.862 80.5022 158.248 75.6862 166.998 71.7457C162.873 77.4655 159.061 81.361 153.033 85.0825C155.896 84.409 161.885 83.3537 163.619 83.8757C156.193 89.7751 151.77 91.0661 146.404 100.749C143.754 105.604 140.819 111.621 134.038 114.434C135.896 110.729 138.933 102.775 140.117 98.728Z" fill="#84061C"/>
<path d="M72.6166 119.258C73.5315 119.241 74.7944 119.235 75.8104 119.336C75.8104 119.735 71.5332 128.486 59.8299 152.078C45.3031 181.35 43.3273 185.408 43.3273 185.964C43.3273 186.52 114.951 186.217 120.199 185.644C135.585 183.954 142.073 180.783 147.855 172.133C149.595 169.529 159.861 149.54 159.861 148.76C159.861 148.519 156.275 148.395 149.034 148.395C141.793 148.395 137.005 148.345 136.084 148.345C134.771 148.345 135.102 146.88 135.882 146.145C136.499 145.561 137.235 145.937 150.403 145.937H165.974C160.591 154.935 155.584 165.038 150.936 174.362C145.245 182.866 137.151 188.024 124.235 189.725L38.3877 189.528L72.6109 119.263L72.6166 119.258ZM72.4594 171.437C72.4594 171.37 74.8337 166.475 77.7357 160.553C82.9671 149.872 82.8829 149.249 83.8316 149.479C84.3592 149.602 85.3247 150.304 86.2171 150.506C83.1075 156.675 79.7564 162.529 77.4719 168.911C93.3626 168.271 118.066 168.726 124.577 166.127C128.579 161.188 130.314 157.034 133.772 151.365C134.327 151.701 134.967 152.151 135.192 152.701C135.568 153.616 135.113 154.351 132.604 159.487C130.179 164.455 129.601 165.347 127.406 167.559C125.341 169.641 124.566 170.169 122.674 170.803C120.446 171.549 120.081 171.561 96.433 171.561C83.2478 171.561 72.4538 171.505 72.4538 171.443L72.4594 171.437ZM150.229 117.972C152.828 112.836 154.624 108.879 156.914 103.586L148.82 103.075L149.337 100.263C149.393 99.9485 150.364 100.179 153.754 100.179C155.825 100.179 158.514 99.9485 159.743 99.9485H161.972L158.278 107.33C155.719 112.443 154.725 114.762 155.034 114.879C155.281 114.975 160.282 115.009 166.148 114.958L176.813 114.863L183.936 100.645C187.854 92.8255 191.07 86.23 191.082 85.9887C191.098 85.6463 188.269 85.5509 178.053 85.5509H164.144L167.377 82.9857L196.1 83.3954L178.531 117.95L150.229 117.967V117.972ZM54.2448 10.4922L90.5954 10.5764C126.401 10.4697 134.164 10.6437 140.782 11.772C152.553 13.7815 156.785 21.0617 152.71 31.2944C151.363 34.6791 143.432 49.1385 142.208 50.8056C137.246 57.8726 133.659 57.4123 126.867 60.6679C129.595 63.0366 132.329 66.1744 131.436 72.0457L116.674 103.024L113.974 99.2244L120.53 86.3648C123.769 79.8199 126.626 73.8363 126.879 73.0785C127.603 70.8894 127.462 68.0211 126.531 66.1014C125.217 63.3902 121.619 61.2067 116.775 60.1795C115.759 59.9662 114.934 59.6968 114.934 59.5902C114.934 59.4835 116.303 59.1074 117.982 58.765C127.597 56.7836 134.552 53.2305 138.868 48.0833C140.417 46.2365 148.074 31.2102 149.286 27.6403C151.61 20.8035 150.128 17.9127 143.37 16.0997C136.617 14.2867 128.428 13.9611 89.2875 13.9611H56.7932L46.5717 34.5781C40.9473 45.9222 29.94 68.1558 22.1041 83.9848L7.85797 112.769L39.9594 112.943L74.351 113.117L76.1753 116.664L2.17188 116.541L54.2448 10.4922ZM41.0034 90.7318C43.1813 86.2413 45.4378 81.6441 46.016 80.5103L47.206 78.1135L49.266 81.0491L42.2159 96.1147L63.7871 96.4459C64.0565 97.142 64.3821 98.1635 64.5168 98.8989C64.0397 98.8989 58.6792 98.8932 50.5401 98.8932H37.0406L41.0034 90.7318ZM96.9887 82.0258C98.8298 79.3427 101.103 74.0496 99.3294 71.4731L82.5911 70.996L79.6947 67.3419L91.0669 67.3587C100.037 67.4654 100.806 67.5215 101.951 68.1895C102.624 68.5824 103.489 69.4805 103.87 70.1821C104.493 71.3328 104.522 71.6584 104.145 73.4546C103.915 74.5547 102.894 77.1873 101.872 79.3035L99.7335 83.822L96.9943 82.0202L96.9887 82.0258ZM66.4365 50.3903C79.3804 47.1627 102.742 51.2827 112.936 47.4041C114.984 44.2046 119.974 36.7616 119.75 32.0634L74.2556 32.316C71.9767 35.9309 69.5462 42.6891 66.4702 46.4274C66.3242 46.4274 65.0164 43.4973 64.8873 42.5543C65.6058 40.9209 65.8696 40.4214 68.7996 34.3367L71.87 27.9658L95.9447 28.0669C122.691 28.1791 121.849 28.1006 123.365 30.5142C124.56 32.417 124.145 34.0561 120.659 41.1623C117.23 48.145 115.989 49.7391 112.801 51.2435C109.5 52.8039 107.878 52.9105 88.193 52.9105H68.446C67.5872 52.0349 67.0596 51.6757 66.4309 50.3903H66.4365Z" fill="#C4B264"/>
<path d="M121.07 115.691C124.573 116.836 127.733 117.914 131.23 119.059C134.474 121.793 137.719 124.532 140.963 127.266C141.025 128.663 141.092 130.067 141.154 131.464C137.971 131.672 135.872 131.88 131.611 131.273C132.184 132.991 132.757 134.709 133.329 136.426C127.795 132.789 122.254 131.717 116.72 129.365C118.499 128.091 119.947 127.159 121.727 125.885C119.184 124.869 116.972 123.51 114.43 122.495C116.911 121.602 119.661 120.985 122.142 120.092C121.76 118.694 121.446 117.089 121.064 115.691H121.07Z" fill="white"/>
<path d="M121.068 115.691L120.939 116.078C124.436 117.223 127.596 118.301 131.099 119.446L131.228 119.059L130.964 119.373C134.208 122.106 137.453 124.846 140.697 127.579L140.961 127.265L140.551 127.282C140.613 128.679 140.68 130.083 140.742 131.48L141.152 131.464L141.124 131.054C139.513 131.16 138.193 131.261 136.74 131.261C135.314 131.261 133.759 131.16 131.66 130.869L131.003 130.773L131.211 131.402C131.783 133.119 132.356 134.837 132.928 136.555L133.316 136.426L133.54 136.083C127.927 132.395 122.348 131.323 116.869 128.983L116.706 129.359L116.942 129.69C118.716 128.421 120.159 127.489 121.949 126.21L122.561 125.772L121.865 125.491C119.361 124.492 117.156 123.134 114.568 122.101L114.416 122.483L114.557 122.87C117.004 121.989 119.754 121.371 122.269 120.467L122.628 120.338L122.527 119.973C122.151 118.593 121.837 116.993 121.45 115.573L121.057 115.679L120.664 115.786C121.04 117.167 121.354 118.767 121.741 120.187L122.134 120.08L121.994 119.693C119.547 120.574 116.796 121.192 114.282 122.095L113.266 122.46L114.27 122.859C116.774 123.858 118.98 125.216 121.567 126.249L121.719 125.867L121.483 125.536C119.709 126.805 118.267 127.736 116.476 129.016L115.881 129.443L116.555 129.729C122.146 132.103 127.641 133.17 133.097 136.757L134.085 137.408L133.709 136.285C133.136 134.568 132.564 132.85 131.991 131.132L131.604 131.261L131.548 131.666C133.675 131.969 135.275 132.07 136.74 132.07C138.233 132.07 139.574 131.963 141.174 131.862L141.573 131.834L141.556 131.43C141.494 130.032 141.427 128.629 141.365 127.231V127.052L141.219 126.934C137.975 124.2 134.73 121.461 131.486 118.727L131.424 118.677L131.351 118.654C127.854 117.509 124.694 116.432 121.191 115.287L120.467 115.051L120.669 115.786L121.062 115.679L121.068 115.691Z" fill="black"/>
<path d="M88.088 136.051C91.6973 141.692 97.4002 144.701 102.699 148.248C96.2832 152.031 91.9162 149.977 84.8549 149.202C80.3532 147.064 76.8001 145.335 73.5781 141.782C78.4166 139.873 83.2495 138.436 88.088 136.056V136.051Z" fill="white"/>
<path d="M88.0888 136.053L87.7464 136.272C91.4342 142.025 97.2045 145.056 102.47 148.587L102.7 148.244L102.492 147.891C99.6911 149.536 97.3392 150.041 94.9424 150.046C91.945 150.046 88.8578 149.227 84.9005 148.789L84.8556 149.199L85.0296 148.828C80.5279 146.69 77.0421 144.989 73.8819 141.503L73.5788 141.778L73.7304 142.16C78.5464 140.257 83.3962 138.82 88.2684 136.418L88.0888 136.053L87.9091 135.688C83.1099 138.051 78.2882 139.482 73.4329 141.402L72.8828 141.621L73.2813 142.059C76.5594 145.679 80.1855 147.442 84.6816 149.575L84.7433 149.603H84.8107C88.695 150.035 91.7934 150.866 94.9424 150.871C97.4627 150.871 99.9998 150.321 102.907 148.604L103.469 148.273L102.93 147.908C97.603 144.343 91.973 141.357 88.4368 135.828L88.2403 135.52L87.9091 135.682L88.0888 136.047V136.053Z" fill="black"/>
<path d="M138.734 132.108C141.193 132.961 141.575 135.077 141.698 137.384C142.512 136.738 142.866 136.441 143.275 135.217C142.619 134.342 142.13 133.286 141.474 132.411C140.424 131.788 139.666 131.518 138.74 132.113L138.734 132.108Z" fill="white"/>
<path d="M116.424 149.854C116.997 148.866 118.063 148.916 117.833 148.074C117.451 147.721 116.57 146.834 116.183 146.536C115.492 146.003 116.531 145.953 117.356 145.941C118.563 145.925 125.832 149.27 126.87 150.404C127.628 151.139 128.285 152.116 128.565 153.048C126.668 152.093 125.416 151.302 124.608 151.19C124.833 152.121 124.776 153.154 124.428 153.991C122.093 150.555 121.38 149.702 116.424 149.848V149.854ZM134.902 151.908C133.847 150.786 131.332 150.325 129.806 150.612C128.661 150.825 128.694 149.68 129.491 149.186C130.906 148.366 127.785 148.871 126.286 146.564C128.386 145.891 136.317 148.832 137.681 149.618C139.494 150.656 139.909 151.616 138.192 151.448C136.508 151.285 136.12 150.078 136.592 151.308C137.03 152.453 135.935 152.997 134.908 151.908H134.902ZM140.336 139.116C140.313 135.675 136.833 134.098 134.515 133.346C135.29 135.815 136.244 136.966 136.575 139.447C134.605 137.993 131.692 131.561 131.894 131.353C133.752 131.471 135.554 131.785 137.44 131.662C140.6 131.37 141.329 131.605 142.25 133.239C144.967 136.635 142.525 138.156 140.336 139.11V139.116ZM142.452 136.248C142.884 135.119 142.637 134.317 141.475 133.087C140.69 132.251 140.067 131.881 139.634 131.993C139.095 132.133 139.124 132.167 139.775 132.2C140.207 132.223 140.566 132.408 140.566 132.605C140.566 132.801 140.903 133.424 141.313 133.98C141.795 134.637 141.997 135.31 141.885 135.894C141.694 136.882 142.11 137.134 142.452 136.242V136.248ZM136.946 134.597C138.051 135.029 137.692 137.179 136.8 138.016C136.261 136.837 136.193 135.215 136.946 134.597ZM134.813 127.777C135.183 128.384 135.453 128.861 135.256 129.226C135.06 129.596 134.594 129.86 134.257 129.86C133.769 129.658 133.611 129.304 133.69 128.586C133.741 128.148 134.263 127.867 134.813 127.777Z" fill="#C4B264"/>
<path d="M33.488 190.426C34.2346 188.831 42.3455 172.363 51.5174 153.834L68.194 120.138L32.6517 119.964L-2.89062 119.79L24.8663 63.6869L52.6232 7.57812L92.1115 7.73529C118.044 7.84194 132.807 8.03279 135.114 8.29099C146.323 9.55394 151.998 11.7262 154.832 15.8406C157.645 19.927 157.718 24.6252 155.074 31.6023C153.721 35.1666 147.036 48.5371 145.29 51.1584C142.686 55.0708 138.324 58.8147 133.8 61.015L132.228 61.7784L133.031 63.2266C133.475 64.0237 134.013 65.6739 134.232 66.9032C134.878 70.5181 134.114 73.9421 131.168 80.6441C131.038 80.9304 131.56 80.6778 132.324 80.0772C134.244 78.5673 137.471 76.6364 142.837 73.8074C155.119 67.3242 161.596 62.6036 166.412 56.62C170.577 51.4447 172.828 46.3648 173.687 40.2016L174.142 36.946L174.742 38.8769C176.101 43.2551 176.112 48.1049 174.782 53.3195C174.119 55.9127 171.318 61.9693 169.69 64.338C168.877 65.5224 168.747 65.876 169.219 65.6234C169.943 65.2305 174.265 60.8074 175.798 58.8877L176.78 57.6584L176.55 59.3367C176.106 62.6036 174.108 67.2288 171.672 70.6247C170.987 71.5789 170.482 72.4209 170.555 72.4939C170.835 72.7745 174.226 70.7931 176.033 69.2944C177.083 68.4244 177.992 67.762 178.06 67.8238C178.127 67.8855 177.706 68.8734 177.128 70.0129C175.696 72.8475 173.311 75.6877 170.734 77.6243L168.579 79.2409H185.289C194.478 79.2409 202 79.3194 202 79.4149C202 79.5103 197.273 89.148 191.497 100.829L180.995 122.063H162.539C150.353 122.063 144.083 121.945 144.083 121.71C144.083 121.513 145.666 118.196 147.597 114.34L151.111 107.323L148.742 107.34L146.374 107.357L144.443 110.54C142.164 114.289 139.121 117.741 136.702 119.307C135.097 120.346 134.535 121.014 135.265 121.014C135.86 121.014 140.379 125.431 141.344 126.964C141.934 127.89 142.332 129.012 142.332 129.72C142.332 130.483 142.646 131.291 143.202 131.948C144.403 133.379 144.931 135.49 144.454 136.944C143.988 138.353 142.304 139.992 140.294 141.002L138.779 141.76L139.003 140.25C139.127 139.419 139.082 138.341 138.902 137.859C138.588 137.017 138.543 137.062 137.78 138.824C137.342 139.84 136.814 140.665 136.601 140.665C136.388 140.665 135.344 139.733 134.277 138.594C133.2 137.443 131.504 136.113 130.472 135.591C128.316 134.513 123.388 132.577 123.388 132.801C123.388 132.885 124.348 134.603 125.526 136.618C126.7 138.633 128.193 141.502 128.838 142.989C130.584 147.008 131.504 147.244 132.891 144.033L133.738 142.074H152.408L171.077 142.063L164.358 155.664C154.743 175.135 152.845 178.268 147.816 183.044C141.226 189.303 133.194 191.902 117.241 192.94C113.89 193.159 95.6197 193.305 71.893 193.305H32.1353L33.488 190.409V190.426ZM120.553 188.455C136.921 186.676 143.881 183.19 150.129 173.659C151.554 171.481 164.077 147.07 164.077 146.464C164.077 146.363 157.864 146.278 150.269 146.278H136.461L136.085 147.098C135.737 147.861 135.826 147.968 137.415 148.641C139.475 149.512 140.558 151.072 140.558 153.183C140.558 155.635 140.233 155.944 139.38 154.283C138.526 152.61 137.752 152.15 137.752 153.306C137.752 153.727 137.213 154.608 136.556 155.265C135.215 156.607 134.339 156.882 134.928 155.781C135.484 154.743 135.361 153.469 134.62 152.548C134.249 152.094 133.873 151.796 133.778 151.897C133.682 151.993 132.245 154.838 130.584 158.217C127.962 163.539 127.289 164.616 125.538 166.289C122.074 169.595 123.332 169.455 98.2017 169.449H76.3779L80.9189 160.188C83.4167 155.097 85.4599 150.853 85.4599 150.758C85.4599 150.662 84.7078 150.387 83.7928 150.14C81.643 149.568 78.3537 147.934 76.2656 146.402C74.6434 145.212 71.9155 142.243 71.7022 141.429C71.6348 141.176 73.3973 140.407 76.187 139.464C83.4841 137.005 91.0506 132.885 94.1546 129.686L95.2885 128.518L92.6166 127.733C88.1093 126.408 81.9236 123.062 79.1227 120.441C78.3537 119.723 77.8766 119.599 75.7548 119.599H73.2851L56.2043 154.154C46.8136 173.16 39.1236 188.809 39.1236 188.932C39.1236 189.342 116.579 188.888 120.559 188.455H120.553ZM120.475 164.695C122.568 163.825 123.775 162.354 125.824 158.195L127.744 154.3L126.688 153.39L125.633 152.481L125.448 153.856C125.206 155.607 124.999 155.933 123.264 157.185C121.283 158.622 120.705 158.521 121.782 156.938C123.18 154.878 122.933 152.593 121.221 151.706C119.402 150.763 117.814 151.033 116.304 152.543C114.811 154.036 114.575 153.89 114.575 151.504C114.575 150.477 114.811 149.876 115.485 149.203L116.394 148.293L115.395 147.48C114.845 147.031 114.031 146.66 113.582 146.649C112.644 146.632 107.581 144.987 107.003 144.51C106.745 144.297 106.032 145.032 104.842 146.727C103.865 148.125 102.737 149.562 102.339 149.921C101.233 150.915 97.9716 151.532 93.7729 151.538H90.0009L86.6667 158.212C84.8312 161.877 83.3325 164.959 83.3325 165.054C83.3325 165.15 91.393 165.234 101.244 165.234C116.63 165.234 119.341 165.155 120.463 164.689L120.475 164.695ZM124.275 151.875C124.056 150.511 124.084 150.455 124.842 150.685C125.279 150.819 126.194 151.252 126.868 151.645L128.097 152.363L126.868 151.044C125.369 149.439 119.004 146.273 117.314 146.29C116.282 146.301 116.237 146.34 116.865 146.688C117.253 146.901 117.848 147.322 118.196 147.62C118.791 148.136 118.774 148.198 117.881 148.911L116.938 149.663L119.026 149.512C120.879 149.377 121.238 149.461 122.192 150.269C122.787 150.769 123.466 151.656 123.708 152.24C124.32 153.71 124.544 153.564 124.275 151.869V151.875ZM136.023 151.094L135.681 150.191L137.123 150.702C138.925 151.336 139.161 151.151 137.785 150.174C136.556 149.298 128.664 146.654 128.013 146.901C127.233 147.199 127.541 147.575 129.035 148.164C130.427 148.709 130.466 148.771 129.91 149.388C129.057 150.331 129.186 150.499 130.46 150.129C132.043 149.674 133.609 150.045 134.99 151.207C135.636 151.751 136.208 152.15 136.264 152.099C136.32 152.049 136.208 151.6 136.017 151.1L136.023 151.094ZM99.285 148.58L101.064 148.17L98.9819 147.547C94.1041 146.093 90.0234 143.298 88.1037 140.081L87.0765 138.364L84.1296 139.84C82.5074 140.654 80.0096 141.597 78.5782 141.934C76.0355 142.534 75.985 142.568 76.5856 143.225C77.6801 144.443 82.3951 146.98 85.2691 147.901C90.0009 149.416 94.6654 149.641 99.285 148.58ZM127.104 143.382C126.84 142.753 126.155 141.485 125.583 140.564L124.544 138.891L121.462 138.746C118.499 138.605 118.403 138.628 118.959 139.24C119.279 139.593 120.514 140.413 121.709 141.058L123.882 142.237L122.125 142.411L120.368 142.585L122.125 143.337C124.213 144.235 124.915 144.42 126.43 144.471L127.575 144.51L127.098 143.365L127.104 143.382ZM117.18 142.86C116.731 140.935 115.574 137.707 114.749 136.079C113.986 134.575 113.761 134.39 112.403 134.182C111.578 134.053 110.034 133.699 108.968 133.391L107.037 132.835L110.545 132.341C112.476 132.066 115.002 131.729 116.164 131.589L118.269 131.331L116.865 130.91C116.091 130.68 115.226 130.489 114.934 130.483C114.643 130.477 114.193 130.343 113.93 130.174C113.587 129.955 114.205 129.377 116.197 128.075C117.707 127.087 119.144 126.273 119.391 126.273C119.638 126.273 119.846 126.127 119.846 125.948C119.846 125.56 116.703 124.342 113.615 123.528C112.409 123.208 111.421 122.844 111.421 122.72C111.421 122.395 117.326 120.065 118.903 119.773C119.621 119.638 120.278 119.408 120.368 119.262C120.458 119.116 119.902 118.022 119.133 116.832C118.364 115.642 117.735 114.575 117.735 114.463C117.735 113.919 123.921 115.344 127.452 116.697C127.817 116.838 127.918 116.046 127.918 112.886C127.918 102.344 131.342 92.7516 137.454 86.1113C140.631 82.6592 144.976 79.4205 152.834 74.6437C156.404 72.4714 160.21 70.0185 161.293 69.199C163.544 67.4814 166.39 64.4447 167.383 62.7046C167.99 61.6437 167.821 61.7391 165.862 63.541C162.219 66.8976 160.238 68.1213 146.171 75.7158C132.621 83.0353 124.943 90.7141 120.536 101.368C119.015 105.05 118.022 108.721 118.549 108.721C118.779 108.721 119.61 109.159 120.396 109.686C122.45 111.073 124.707 113.066 123.876 112.768C123.489 112.628 121.614 112.162 119.711 111.73L116.248 110.944L115.468 108.513C112.807 100.217 107.503 93.9472 94.7103 83.9896C78.1011 71.0681 71.1633 64.0349 65.9992 54.8911C65.1067 53.3138 64.377 52.1688 64.377 52.354C64.377 53.4654 66.4651 59.2638 68.0536 62.5587C71.9211 70.5854 76.5407 75.5137 88.7717 84.6744C101.8 94.4356 104.904 97.4498 107.553 102.917C109.361 106.644 110.107 109.653 110.13 113.273C110.169 119.773 107.407 124.23 100.531 128.76L99.6723 129.327L101.962 131.617C103.225 132.88 105.628 134.805 107.312 135.9C108.99 136.994 110.365 137.943 110.365 138.005C110.365 138.173 105.302 137.213 102.322 136.483L99.7172 135.844L100.913 136.837C102.501 138.156 107.093 140.418 110.36 141.485L112.992 142.344L110.534 142.461L108.075 142.579L109.832 143.169C110.876 143.517 112.768 143.769 114.491 143.781L117.393 143.803L117.168 142.838L117.18 142.86ZM142.68 137.129C143.258 136.051 143.051 134.564 142.147 133.228C141.092 131.679 139.879 131.336 137.291 131.875C135.972 132.15 135.125 132.156 134.451 131.903C133.233 131.443 132.487 131.437 132.487 131.898C132.487 132.532 134.62 136.652 135.495 137.707C136.309 138.689 136.304 138.639 135.327 136.45C134.766 135.192 134.204 133.812 134.075 133.379C133.862 132.638 133.907 132.61 134.827 132.964C138.302 134.283 140.564 136.338 140.564 138.167C140.564 138.897 140.598 138.903 141.456 138.341C141.945 138.021 142.5 137.471 142.686 137.129H142.68ZM137.376 135.86C137.387 135.439 137.241 134.996 137.05 134.873C136.831 134.738 136.708 135.305 136.725 136.343C136.741 137.612 136.826 137.853 137.05 137.331C137.219 136.944 137.364 136.281 137.376 135.86ZM131.431 132.594C131.033 131.578 130.786 130.668 130.881 130.567C130.982 130.466 131.959 130.567 133.059 130.786C134.159 131.005 135.445 131.185 135.916 131.185C136.629 131.185 136.702 131.095 136.36 130.68C136.13 130.399 135.456 130.124 134.861 130.068C133.312 129.911 132.829 128.984 133.766 127.957C134.171 127.514 134.423 126.93 134.322 126.666C133.907 125.515 135.018 126.801 135.703 128.266C136.545 130.051 137.134 130.433 137.988 129.737C138.504 129.31 138.549 129.349 138.369 130.051C138.19 130.752 138.296 130.842 139.363 130.842C140.429 130.842 140.558 130.747 140.558 129.849C140.558 127.222 136.219 123.119 130.269 120.121C126.621 118.28 122.798 116.894 122.428 117.264C122.333 117.365 122.815 118.286 123.511 119.313L124.774 121.188L122.041 121.395C120.536 121.513 118.701 121.805 117.954 122.052L116.602 122.501L118.314 123.107C119.257 123.439 120.896 124.157 121.956 124.696C123.444 125.454 123.764 125.751 123.36 125.993C123.068 126.167 121.9 126.885 120.755 127.587L118.678 128.866L121.749 129.854C124.909 130.87 129.057 132.711 130.909 133.924C131.488 134.3 132.01 134.575 132.066 134.53C132.122 134.485 131.841 133.615 131.437 132.599L131.431 132.594ZM134.592 129.461C134.592 129.282 134.687 128.889 134.805 128.586C134.945 128.221 134.822 128.03 134.451 128.03C134.081 128.03 133.89 128.333 133.89 128.906C133.89 129.388 134.047 129.781 134.244 129.781C134.44 129.781 134.597 129.635 134.597 129.461H134.592ZM98.6339 118.19C100.526 117.275 102.456 115.395 103.394 113.554C104.017 112.336 104.112 111.651 103.983 109.271C103.86 106.93 103.641 106.077 102.709 104.337C100.239 99.7119 95.9396 95.6817 87.3796 89.9507C84.0959 87.756 80.0713 84.8877 78.4267 83.5854C74.2561 80.2624 65.6961 71.6238 62.6931 67.7115C61.3066 65.9041 60.1784 64.4952 60.1784 64.5794C60.1784 65.0509 62.2665 69.7547 63.8831 72.9261C67.7617 80.5206 73.4927 88.3117 79.5774 94.2503C81.4072 96.0353 82.8049 97.4947 82.6814 97.4947C81.7384 97.4947 70.3101 90.3717 64.4781 86.1562C62.6931 84.8652 61.1495 83.8099 61.0428 83.8099C60.9362 83.8099 61.52 84.7193 62.3338 85.8307C68.0705 93.6666 75.7997 101.592 81.3736 105.353C82.1257 105.858 82.5692 106.274 82.3671 106.274C81.716 106.274 75.8615 104.118 74.127 103.243C73.2121 102.777 72.4599 102.485 72.4599 102.597C72.4599 103.882 77.0122 109.81 79.9142 112.297C82.7656 114.744 86.6836 117.163 89.2825 118.078C92.3697 119.167 96.5234 119.223 98.6395 118.196L98.6339 118.19ZM186.709 100.767C191.25 91.5673 194.972 83.9839 194.972 83.9166C194.972 83.8492 188.82 83.7987 181.304 83.7987H167.636L164.016 86.319C156.191 91.7637 154.063 93.8069 151.077 98.7465C148.428 103.125 148.22 102.754 153.339 102.754C156.084 102.754 157.763 102.889 157.763 103.108C157.763 103.304 156.18 106.622 154.249 110.478L150.735 117.494H178.447L186.709 100.767ZM73.8632 115.457C73.8632 115.3 73.3861 114.716 72.8079 114.16C70.0856 111.55 65.8196 104.085 64.3377 99.3358L63.5463 96.7931H52.3425C43.5243 96.7931 41.178 96.6977 41.3183 96.3553C41.4137 96.1139 43.0977 92.5945 45.0623 88.5362L48.6266 81.1549L47.1897 78.6683C45.7415 76.1649 44.0519 71.8933 44.0351 70.6977C44.0295 70.1869 44.3719 70.3553 45.6629 71.4947C48.2898 73.8074 53.858 76.2154 53.858 75.0366C53.858 74.8009 52.8533 73.5211 51.624 72.1964C47.358 67.588 45.4833 62.6485 45.1802 55.1998C45.0791 52.6908 45.1128 50.7486 45.2531 50.8834C45.3934 51.0181 46.0221 52.3877 46.6396 53.9313C47.2626 55.4693 48.3067 57.6416 48.969 58.753C50.3779 61.1273 53.8973 64.86 55.5195 65.6908L56.659 66.2745L55.2669 64.1247C53.482 61.3687 51.9552 57.389 51.2535 53.6731C50.2207 48.2227 50.6922 40.2128 52.3649 34.6671L52.9487 32.7361L53.2238 35.8963C54.105 46.0168 57.1754 54.2288 62.6033 60.9926C63.1534 61.6774 63.013 61.0207 61.9578 58.0064C58.4889 48.0824 58.6909 39.2249 62.5696 31.0522C63.8718 28.313 66.0385 24.9676 66.3248 25.2538C66.3978 25.3268 66.235 26.6459 65.9599 28.1839C65.1011 33.0056 65.466 44.8436 66.4707 44.8436C66.6111 44.8436 68.2501 41.6835 70.108 37.8216L73.4871 30.7996L95.8779 30.8277C120.087 30.8557 120.789 30.9063 121.39 32.6183C121.665 33.3985 121.272 34.4762 118.779 39.7582C115.44 46.8363 114.149 48.4697 110.803 49.8169C109.46 50.3595 102.028 50.6644 88.5078 50.7318L68.2276 50.8328L69.5523 53.3587C71.5169 57.0971 74.4414 60.8579 79.1732 65.7188L83.3887 70.0522L91.7017 70.17C100.206 70.2879 101.244 70.4507 101.738 71.7305C102.064 72.5837 101.048 75.7776 99.4198 79.0219L98.0052 81.8397L98.8697 82.5582C99.3468 82.9511 100.862 84.2029 102.238 85.3311C106.116 88.5193 111.842 94.6433 113.896 97.7978C114.918 99.3695 115.866 100.649 116.001 100.649C116.416 100.649 128.894 75.3229 129.478 73.2909C129.781 72.2413 130.028 70.3553 130.028 69.1036C130.028 65.2586 128.423 62.8898 124.606 61.1217C123.612 60.6614 123.085 60.2517 123.377 60.1675C132.795 57.3946 137 54.9641 140.732 50.1087C142.994 47.1731 151.263 30.2888 152.172 26.7638C153.345 22.2059 152.761 19.3937 150.162 17.1148C144.914 12.5064 135.507 11.7487 85.5441 11.9171L55.2725 12.0181L29.643 63.7599C15.5485 92.2184 4.01351 115.558 4.01351 115.625C4.01351 115.692 19.7303 115.749 38.9384 115.749C58.1465 115.749 73.8632 115.619 73.8632 115.462V115.457ZM137.168 112.201C139.666 110.545 141.378 108.294 143.943 103.282C148.95 93.5094 152.228 89.7935 159.486 85.6567C161.175 84.6968 161.855 84.1523 161.372 84.1523C159.89 84.1523 153.614 85.6567 150.078 86.8579C149.764 86.9645 150.926 86.072 152.655 84.8708C158.133 81.082 162.494 77.0742 165.834 72.7745C166.12 72.4041 165.239 72.9205 163.87 73.914C162.506 74.9075 158.947 77.1359 155.972 78.8592C152.997 80.5824 149.214 82.8332 147.575 83.8605C143.735 86.2685 138.998 90.9611 137.454 93.8911C136.365 95.9623 134.462 100.997 134.771 100.997C134.85 100.997 135.652 100.526 136.562 99.9533C138.364 98.8082 140.485 97.9999 140.811 98.3255C141.451 98.9654 138.307 107.772 136.174 111.309C135.523 112.392 135.108 113.279 135.254 113.279C135.4 113.279 136.259 112.79 137.162 112.19L137.168 112.201ZM56.1089 90.3829C54.947 89.1761 53.4314 87.5427 52.7466 86.7512L51.5005 85.3143L49.6931 88.9459L47.8857 92.5776H58.2138L56.0977 90.3829H56.1089ZM95.7095 76.8665L96.5851 74.8458L94.89 74.7391C93.9582 74.683 92.3192 74.683 91.247 74.7391L89.2993 74.8458L91.8476 76.8609C93.2509 77.9667 94.497 78.876 94.6149 78.8816C94.7328 78.8816 95.2267 77.9779 95.7095 76.8665ZM109.13 45.7866C109.894 45.4386 110.82 44.8885 111.19 44.5574C111.858 43.9568 115.99 36.0367 115.99 35.3631C115.99 35.1273 109.344 35.0038 96.1585 35.0038H76.3274L73.5152 40.617C71.9716 43.7042 70.703 46.3199 70.703 46.4265C70.703 46.5332 79.0329 46.5781 89.2207 46.5164C106.116 46.4209 107.862 46.3592 109.13 45.781V45.7866Z" fill="black"/>
</g>
<defs>
<clipPath id="clip0_107_19976">
<rect width="200" height="200" fill="white"/>
</clipPath>
</defs>
</svg>
