<svg width="200" height="200" viewBox="0 0 200 200" fill="none" xmlns="http://www.w3.org/2000/svg">
<path d="M8.03418 176.812C8.69924 176.812 9.37654 176.604 9.90039 176.428C10.4647 176.238 11.1857 175.961 11.9678 175.672C13.5778 175.077 15.8223 174.289 19.002 173.499C25.3672 171.918 35.5757 170.304 51.9482 170.304C70.0714 170.304 85.3272 170.982 98.5273 171.662C111.703 172.341 122.906 173.026 132.814 173.026C152.782 173.026 165.941 167.934 174.164 162.386C178.266 159.618 181.125 156.747 182.977 154.362C183.901 153.172 184.586 152.087 185.051 151.182C185.282 150.73 185.47 150.302 185.604 149.911C185.725 149.56 185.855 149.092 185.855 148.609C185.855 147.358 185.575 146.229 184.954 145.256C184.341 144.294 183.492 143.638 182.61 143.161C181.745 142.693 180.773 142.358 179.827 142.075C178.931 141.807 177.787 141.51 176.831 141.237L176.83 141.238C172.37 139.899 167.975 138.159 164.562 134.728C161.295 131.444 158.729 126.406 158.182 118.095C166.406 108.254 175.743 94.5137 183.081 81.3877C186.829 74.6843 190.077 68.1041 192.394 62.2539C194.688 56.4599 196.152 51.1799 196.152 47.1514C196.152 45.2102 195.976 42.7479 194.831 40.7314C194.234 39.6798 193.372 38.7462 192.17 38.0908C190.978 37.4414 189.563 37.125 187.939 37.125C185.92 37.1251 183.609 37.8059 181.205 38.9092C178.77 40.0267 176.096 41.6452 173.311 43.6787C167.738 47.7469 161.598 53.565 155.889 60.6416C144.493 74.7661 134.603 94.1648 134.603 114.993C134.603 118.243 134.95 121.419 135.573 124.026C128.232 130.642 123.033 133.286 118.13 133.286C118.016 133.286 117.927 133.282 117.857 133.277C117.838 133.192 117.815 133.075 117.795 132.919C117.738 132.487 117.71 131.887 117.71 131.044C117.71 130.758 117.85 129.993 118.265 128.646C118.655 127.379 119.222 125.798 119.917 123.995C121.306 120.393 123.166 116.015 125.038 111.702C126.898 107.419 128.79 103.154 130.192 99.8945C130.896 98.2585 131.492 96.8387 131.915 95.7588C132.125 95.2213 132.302 94.7432 132.43 94.3525C132.493 94.1581 132.552 93.9613 132.597 93.7764C132.633 93.628 132.696 93.3468 132.696 93.0361C132.696 91.3881 132.361 89.7898 131.174 88.6787C130.012 87.5921 128.483 87.4014 127.215 87.4014H115.252C113.93 87.4014 112.901 88.0628 112.109 89.0186C111.902 88.8992 111.686 88.7798 111.459 88.668C110.062 87.9811 108.172 87.4014 105.863 87.4014C91.886 87.4014 74.9268 98.0198 65.2939 118.065L65.29 118.075L65.2852 118.085C64.159 120.496 62.767 124.018 60.3623 127.036C58.0217 129.974 54.8741 132.227 50.2842 132.227C48.3517 132.227 46.8351 131.719 45.6123 130.869C44.3719 130.007 43.3271 128.716 42.4824 127.002C40.77 123.526 40.0196 118.586 40.0195 113.027C40.0195 97.9928 48.9956 78.77 60.7061 63.1738C66.5319 55.4149 72.951 48.6671 79.1113 43.8809C85.3443 39.0382 91.024 36.4287 95.415 36.4287C96.7702 36.4288 97.371 36.7667 97.6553 37.0576C97.948 37.3574 98.2607 37.9717 98.2607 39.2773C98.2606 41.5819 97.2386 43.4625 95.75 44.8574C94.2352 46.2769 92.3281 47.1014 90.8096 47.2812C87.7348 47.6072 84.7509 48.4716 82.4805 50.084C80.1368 51.7485 78.5723 54.2148 78.5723 57.4502C78.5723 60.1722 79.6827 62.3132 81.627 63.6982C83.4721 65.0125 85.8686 65.5078 88.2959 65.5078C90.4901 65.5078 93.0113 64.364 95.3721 62.7998C97.81 61.1844 100.373 58.9223 102.706 56.2725C107.319 51.0337 111.346 43.9134 111.346 36.8545C111.346 32.6825 110.127 29.1819 107.566 26.7373C105.02 24.3067 101.43 23.1924 97.2305 23.1924C88.8099 23.1925 79.0609 26.1711 69.2568 31.1875C59.4263 36.2175 49.4051 43.3645 40.4111 51.8691C22.4924 68.813 8.30566 91.4896 8.30566 113.936C8.30575 124.966 11.3253 133.517 17.3887 139.29C23.4346 145.047 32.1866 147.735 43.0156 147.735C48.566 147.735 53.9097 145.634 58.1455 143.281C60.892 141.756 63.2463 140.082 64.9863 138.693C65.7365 140.177 66.8894 141.782 68.5791 143.225C71.5828 145.789 76.1512 147.735 82.8438 147.735C89.6823 147.735 94.8256 144.432 97.8545 141.554C98.3159 142.429 98.9356 143.33 99.7822 144.167C101.919 146.28 105.232 147.735 110.256 147.735C121.055 147.735 130.818 144.037 140.518 135.921C145.501 143.415 153.224 147.893 161.035 149.51L161.063 149.516L161.092 149.521C161.674 149.624 162.273 149.732 162.852 149.844C160.545 150.551 156.965 151.157 152.05 151.157C140.986 151.157 126.479 150.329 110.795 149.494C95.1442 148.661 78.3598 147.825 62.8525 147.825C41.0426 147.825 26.4035 152.781 17.1514 158.332C12.5325 161.103 9.25545 164.023 7.11035 166.546C6.03981 167.805 5.23393 168.985 4.68457 170.019C4.17415 170.979 3.76179 172.04 3.76172 172.998C3.76172 174.292 4.26406 175.456 5.37012 176.159C6.28925 176.743 7.34509 176.812 8.03418 176.812ZM161.228 93.3418C164.184 83.6001 168.725 74.9419 173.128 68.2188C176.056 63.7483 178.9 60.1671 181.138 57.7246C181.267 57.5834 181.395 57.4473 181.52 57.3145C181.239 57.9937 180.914 58.7404 180.547 59.5498C179.051 62.85 176.9 67.0842 174.304 71.7969C170.61 78.5017 166.041 86.1237 161.228 93.3418ZM91.0205 130.106C89.1756 130.106 88.8964 129.618 88.8213 129.492C88.7228 129.327 88.6192 129.041 88.5547 128.532C88.4897 128.02 88.4785 127.417 88.4785 126.656C88.4785 124.822 89.0325 122.169 90.0938 119.13C91.1429 116.126 92.6388 112.882 94.4072 109.901C96.1822 106.91 98.1878 104.258 100.228 102.381C102.307 100.467 104.176 99.5802 105.711 99.5801C106.752 99.5801 107.141 99.8402 107.239 99.9258C107.257 99.9408 107.27 99.9568 107.282 99.9717C107.273 99.9933 107.265 100.016 107.255 100.04C107.1 100.403 106.868 100.924 106.565 101.598C105.968 102.925 105.094 104.84 104.074 107.116C102.028 111.681 99.3336 117.831 96.75 124.369C96.4527 125.079 95.5839 126.631 94.3896 127.977C93.1258 129.4 91.9327 130.106 91.0205 130.106Z" fill="#041E42" stroke="white" stroke-width="4"/>
</svg>
