<svg width="200" height="200" viewBox="0 0 200 200" fill="none" xmlns="http://www.w3.org/2000/svg">
<path d="M106.499 7.10547C106.452 7.21523 105.952 7.37894 105.912 7.49522C105.717 8.03828 106.045 8.47132 106.108 8.86156C105.897 8.90381 105.795 9.22034 105.717 9.25125C105.013 9.48944 104.105 9.06837 103.377 9.25125C102.986 9.34233 102.43 10.1425 102.016 10.2279C101.108 10.4051 100.623 9.81223 99.8637 10.422C99.4959 10.7024 98.7055 13.1848 98.5021 13.7399C98.2908 13.6245 98.1343 13.8254 97.9152 13.7399C97.6961 13.6547 97.4066 13.0688 97.1327 12.959C95.3486 12.2339 95.419 13.7034 94.5974 14.3253C94.3 14.5447 93.7836 14.5447 93.4236 14.7153C93.4236 14.7153 93.2828 14.1357 93.228 13.9341C93.4627 13.7211 94.1122 13.4838 94.2061 13.1546C94.2609 12.9351 94.1122 12.5745 94.2061 12.3736C94.034 12.2395 93.8618 12.2579 93.8149 11.9839C93.4549 11.9839 92.9932 12.0635 92.6489 11.9839C92.4533 12.2522 91.9369 12.6419 91.8664 12.959C91.8273 13.0931 91.9525 13.4102 91.8664 13.5443C91.7178 13.7517 90.9587 13.9102 90.8883 14.1297C90.5988 15.0134 91.0839 15.684 91.2795 16.2756H90.8883C90.6066 16.3671 90.0275 17.3922 90.1058 17.8375C90.1371 17.9963 90.6301 18.3062 90.6927 18.4228C90.7631 18.5566 90.7866 19.1114 90.8883 19.2022C91.0526 19.3422 91.3421 19.2209 91.4752 19.3978C91.1309 20.1349 91.1622 20.4597 90.8883 21.3494C90.7866 21.2821 90.411 21.3494 90.3014 21.3494C89.7928 20.264 89.6676 20.6662 89.918 19.0081C89.7224 18.9166 89.3076 18.465 89.1355 18.4228C88.5486 18.2639 87.7504 18.5879 87.1792 18.4228C86.9914 18.3618 86.874 17.7146 86.6001 17.6418C86.381 17.5808 85.6611 17.7952 85.8176 17.8375C85.5829 18.2522 85.2934 18.6536 85.0351 19.2022C85.0038 19.2632 84.6674 19.3422 84.6439 19.3978C84.5187 19.7147 84.683 20.3423 84.4482 20.5684C84.0883 20.8979 83.4623 20.6537 83.0867 20.9581C82.805 21.171 82.2729 24.0013 82.6954 24.2759C83.298 24.6664 83.6501 24.2947 84.0648 24.0803C84.37 23.916 84.1978 23.7024 84.2526 23.2994C84.3856 23.3416 84.8395 23.495 84.8395 23.495C84.7299 24.0803 84.6908 24.1977 84.6439 24.862C84.4326 24.9043 84.3387 25.2204 84.2526 25.2517C83.6657 25.4521 82.7189 25.0984 82.1086 25.2517L81.9129 25.6414C81.5999 25.8417 81.3182 25.6539 80.9426 25.8371C81.1539 24.794 81.2556 24.1899 81.5217 23.2994C81.1617 23.1468 81.4278 23.2822 81.326 22.9097C80.3902 22.8369 79.567 22.5317 78.9879 23.2994C78.2257 24.2939 78.5067 25.2995 78.9879 26.2267C78.5974 26.6955 77.9213 27.2448 77.8173 27.9827C77.7805 28.2143 77.9331 28.7519 77.8173 28.9593C77.775 29.0203 76.9346 29.1291 76.8431 29.1533C76.782 29.5313 76.7937 30.0196 76.6466 30.5196C76.6826 30.5251 77.3485 30.6463 77.4276 30.7136C77.6412 30.8905 77.6162 31.5321 77.8173 31.6902C77.3908 31.6777 75.2076 31.8788 74.6958 32.2755C74.2076 32.6417 74.9525 34.6285 74.6958 35.3962C74.5558 35.8046 73.9337 36.2194 73.7193 36.5676C72.8358 37.9816 72.1895 39.0489 71.184 40.2751C71.0126 40.4754 70.5016 40.6656 70.4046 41.0561C69.795 43.4521 70.9899 42.5851 71.5752 42.8104C71.709 42.8597 72.3374 43.4396 72.5502 43.5914C72.191 44.3543 71.3068 45.561 71.9649 46.7136C72.0807 46.9209 72.6238 47.036 72.7458 47.2973C72.8734 47.5845 72.4712 47.439 72.5502 47.8842C72.7396 49.0298 74.0198 49.0548 75.0871 49.0548C74.9713 49.0971 74.3429 49.6276 74.3062 49.6394C72.4219 50.1942 72.702 49.3718 71.9649 51.2013C71.0924 50.0479 70.4414 49.7732 68.6486 49.4453C68.5015 49.7497 68.2879 49.8233 68.0617 50.0306C68.4154 50.9149 68.428 51.3413 68.8427 52.1763C68.5312 52.3836 67.9045 52.6591 67.6721 52.9572C67.4522 53.2264 67.5202 53.7061 67.2824 53.9322C67.0813 54.1153 66.7393 53.976 66.5014 54.1278C66.2518 54.2804 65.9098 54.8587 65.7205 55.1029C65.7995 55.2367 65.7205 55.7195 65.7205 55.8838C66.7088 56.1342 66.8246 56.243 68.0617 56.0779C67.953 56.2915 68.1478 56.4316 68.0617 56.6632L67.6721 56.8588C67.2519 57.4989 67.453 57.8831 67.2824 58.8104C67.4052 58.8769 67.989 59.096 68.0617 59.2001C68.6111 59.9552 68.8975 60.5968 69.428 61.3465C69.0438 61.6024 68.0015 62.0531 67.8677 62.5171C67.7636 62.8528 67.9647 63.1517 67.8677 63.4937C68.3787 63.6275 69.2817 63.8043 69.8193 64.079C69.9343 64.133 70.2269 64.6142 70.4046 64.6628C70.7458 64.7481 71.0322 64.5712 71.3796 64.6628C71.2645 65.108 71.1597 65.5415 70.9899 66.2246C70.5016 66.2434 70.4414 65.8467 69.8193 66.0306C69.7027 66.0603 69.4163 66.5236 69.2339 66.6143C69.9781 67.9986 69.1408 67.6206 71.184 67.785C71.3725 68.3038 71.5862 68.9008 71.7693 69.3453H71.9649C72.1167 70.1693 71.7028 70.4557 71.7693 71.2969C71.8186 71.9988 72.4352 73.4065 72.5502 74.0286C72.63 74.4793 72.3984 74.9621 72.5502 75.3949C72.5753 75.4739 72.8914 75.5717 72.9399 75.7845C74.5566 75.211 73.4282 76.1202 74.5002 74.8095C74.7146 74.9136 74.8547 74.7172 75.0871 74.8095C75.1419 74.8275 75.5441 75.3643 75.6724 75.3949C76.5136 75.5842 76.6349 75.0349 77.4276 75.3949C78.2876 75.7845 77.336 76.3652 77.232 76.7611C77.1709 76.9802 77.311 77.3206 77.232 77.5405C78.671 78.5711 79.2015 79.1697 81.326 79.1024C81.4356 78.834 81.5217 78.3817 81.7173 78.1258C81.866 77.9184 82.3511 77.9067 82.4998 77.7361V79.8818C82.5468 80.1196 83.6344 81.4429 83.8692 81.8333C84.3935 81.7911 84.8865 81.8333 85.4264 81.8333C85.489 81.7058 85.7003 81.0767 85.8176 81.0524C87.5704 80.6564 88.04 82.565 88.9398 82.8083C89.4954 82.9547 89.8084 82.6996 90.3014 82.6143C90.497 82.8459 90.5909 83.486 90.8883 83.5893C91.0996 83.6574 91.4673 83.4797 91.6708 83.5893C91.7099 83.3819 92.0308 83.2794 92.062 83.1996C92.1716 82.8647 91.9603 82.5587 92.062 82.223C91.8821 82.1862 91.0135 82.1636 90.6927 82.029C90.3562 81.8772 90.2075 80.9561 89.918 80.8583H89.5267C89.4172 80.6447 89.6285 80.2785 89.5267 80.0774C89.6598 79.8645 89.9962 79.5343 90.1058 79.2964C90.364 79.5281 90.9118 79.5648 91.0839 79.8818C91.1856 80.0649 91.0213 80.4553 91.0839 80.6627C91.1622 80.9616 91.6943 81.1995 91.8664 81.4436C92.2342 81.3709 92.6568 81.5289 93.0324 81.4436C93.7053 81.2856 93.8696 80.5039 94.793 80.4671C95.8494 80.4186 96.8432 81.4374 98.3065 81.0524C99.3002 80.784 99.0577 79.5046 99.668 79.1024C100.357 78.6454 101.311 78.985 102.203 78.7111C102.422 78.6376 102.759 78.2299 102.986 78.1258C102.986 77.9552 102.908 77.4928 102.986 77.3464C103.088 77.1336 103.44 77.2111 103.573 76.9552C104.488 77.2478 105.646 77.8895 106.695 77.3464C106.945 77.2118 107.071 76.5225 107.282 76.3699C107.477 76.211 107.837 76.2854 108.064 76.1758C108.252 76.0717 108.643 75.4919 108.839 75.3949C109.301 75.1507 109.762 75.1758 110.208 75.0052C110.208 75.0052 110.459 74.0904 110.404 73.8345C110.326 73.5356 109.676 73.2727 109.622 73.0528C109.473 72.48 109.872 72.5598 109.817 72.0778C110.091 71.8775 110.208 71.5778 110.404 71.2969C111.163 71.4009 112.032 71.6388 112.744 71.2969C113.166 71.084 113.041 70.6513 113.331 70.3219C113.714 69.8649 114.606 69.4869 115.083 69.1512C114.997 68.5174 114.802 67.8773 114.888 67.3953C114.966 66.9563 115.67 66.5416 115.866 66.2246C116.116 65.8044 116.046 65.4993 116.257 65.054C116.187 65.0047 115.694 64.7355 115.67 64.6628C115.576 64.4374 115.78 64.2856 115.67 64.079C117.228 62.9749 117.517 62.3833 115.67 61.3465C116.828 60.7432 117.83 60.1273 118.988 59.5913C118.894 59.3354 118.988 58.8894 118.988 58.6148C118.753 58.506 118.417 58.0967 118.206 58.0294C117.423 57.7861 116.946 58.0545 116.453 57.6397C116.242 57.4637 116.335 56.9926 116.257 56.6632C115.819 56.8158 115.96 56.1217 115.866 55.8838C115.897 55.8838 116.954 55.9558 116.648 56.0779C117.9 55.9323 120.091 55.7805 118.988 54.1278C118.886 53.976 118.253 53.8892 118.206 53.7366C118.088 53.3532 118.55 52.7991 118.401 52.1763C118.276 51.6825 117.548 51.5855 117.423 51.3969C117.024 50.7865 116.844 50.6097 117.619 50.2263C117.525 48.8905 117.454 48.9445 118.206 48.2739C118.245 48.2309 118.73 48.2739 118.793 48.2739C118.824 48.0548 118.808 47.1581 118.988 46.9076L120.154 46.3239C119.888 45.5062 119.575 44.719 119.763 44.1767C119.818 44.0186 120.318 43.5436 120.35 43.3973C120.428 42.945 120.084 43.1094 120.154 42.8104C119.935 42.8597 119.395 43.0061 119.372 43.0061C118.886 44.6462 119.074 45.2127 118.01 43.787C117.494 43.848 117.556 44.0358 117.228 44.1767C117.228 44.1767 117.204 42.9513 117.228 42.6164C118.793 42.2564 118.206 42.5248 118.988 41.4457C119.16 41.5678 119.364 41.3659 119.575 41.4457C119.771 41.5248 119.818 42.1226 119.958 42.2267C120.866 42.8668 122.079 42.4278 122.893 42.2267C122.799 41.8479 122.995 41.4207 122.893 41.0561C122.822 40.8299 122.173 40.3721 122.11 40.0795C122.056 39.8596 122.001 39.0067 122.306 39.1045V38.7148C122.259 38.5927 121.743 38.1905 121.719 38.1295C121.672 38.0129 121.766 37.6474 121.719 37.5442C123.167 36.9095 123.355 36.7992 124.059 35.3962L124.45 35.0065C124.513 34.58 124.106 34.2561 124.254 33.6402C124.325 33.299 124.974 32.8781 125.037 32.4696C125.092 32.0361 124.708 31.5611 124.841 30.9093C124.92 30.5188 125.726 29.8615 125.812 29.5446C125.929 29.1173 125.741 28.611 125.812 28.1783C124.536 27.4279 124.599 27.7448 124.45 25.8371C124.763 25.6352 124.567 25.6657 124.646 25.2517H125.037C125.053 25.6414 124.998 26.2322 125.037 26.8121C125.068 26.805 126.117 26.7761 125.812 26.618C125.89 26.3864 126.203 25.618 126.399 25.4474C126.422 25.4168 126.406 24.898 126.399 24.862C126.32 24.5444 125.819 24.1594 125.624 23.8847C125.78 23.6288 126.062 23.3369 126.203 23.1053C126.344 22.8674 126.751 22.2876 126.79 22.1287C127.001 21.2023 126.414 20.4276 126.399 19.9831C126.367 19.203 126.876 18.8007 126.79 17.8375L126.399 17.2522C125.952 15.094 126.305 15.4289 124.254 14.9109C124.161 15.3006 123.957 16.026 123.863 16.4712C123.488 16.5682 123.621 16.3006 123.472 16.6668C122.791 16.6355 121.923 16.5017 121.523 16.4712C121.61 14.9774 121.508 14.4414 121.132 13.1546C120.569 13.0269 119.599 12.4894 118.793 12.7634C118.644 12.8065 118.417 13.2447 118.206 13.3487C118.206 13.8 118.276 14.2573 118.206 14.7153H117.814C117.619 14.3062 117.814 14.0936 117.619 13.7399C117.345 13.2579 116.367 12.8365 116.257 12.178C116.062 11.074 116.789 11.0444 116.648 10.0323C116.602 9.75823 114.935 7.54397 114.692 7.49522C113.612 7.2635 113.456 7.99571 112.939 8.27616C112.306 8.60544 111.57 8.78237 110.983 9.05718C111.304 10.3376 112.055 12.721 109.622 12.178C108.761 11.9829 109.003 11.3923 108.643 10.6176C108.589 10.49 108.088 10.3563 108.064 10.2279C107.884 9.33114 108.534 8.55012 108.064 7.69085C107.783 7.19085 107.078 7.34287 106.499 7.10547ZM48.3566 31.8844C48.2471 32.0675 47.9059 31.9391 47.7713 32.08C47.4912 32.3539 47.7705 33.0683 47.5757 33.4463C47.3926 33.7882 46.3612 34.2882 45.6241 34.0316C45.6241 34.0316 45.2587 32.9885 44.6491 32.8609C44.0818 32.7389 43.3501 33.0433 43.0888 33.055L42.8932 34.6169L41.9182 35.7875L42.5035 35.9816C42.8814 36.5606 42.9291 36.7938 43.2828 37.5442C43.0755 37.4464 42.7171 37.617 42.5035 37.5442C41.8329 37.3126 41.1067 35.336 40.3563 35.0066C39.4047 34.5801 37.7662 34.6286 36.6495 34.4213C36.4492 34.6951 36.1495 34.8172 35.8686 35.0066C35.8756 35.0066 35.8686 35.5614 35.8686 35.5919C36.1127 35.6529 36.18 36.0794 35.8686 35.9816C35.8263 35.9698 35.7058 35.6529 35.6745 35.5919C35.1322 35.5919 34.4554 35.6099 33.9186 35.5919C33.6869 36.8729 33.1376 37.4566 32.5523 38.3236C32.3152 38.1405 32.003 38.3056 31.7714 38.1296C31.6923 38.0677 31.4005 37.4026 31.3817 37.3486C32.6932 36.9816 29.1805 37.4222 30.6007 37.5442C30.2838 37.635 30.0592 37.5489 29.8214 37.7383L28.6507 39.1046C28.3455 39.6468 28.5036 40.6899 27.8698 41.0561C27.5771 41.2205 26.7351 41.208 26.5027 41.2502C25.5465 43.7621 25.6803 42.0977 24.1615 42.8105C23.9119 42.9209 23.796 43.604 23.5762 43.7871C23.3758 43.9389 23.0104 43.8661 22.7968 43.9812L22.6012 44.3708C21.7482 44.9202 20.9422 44.7316 20.0643 44.7621C19.9485 45.036 19.8765 45.6033 19.6746 45.9327C19.3397 46.457 18.6385 46.3662 18.1143 46.7137C17.4436 47.1464 15.852 49.6778 15.3833 49.8367C15.3215 49.8539 14.5593 49.6152 14.2119 49.6395C13.492 49.6825 12.2666 50.0675 11.675 50.2264C11.675 51.2499 11.7603 51.9518 11.8706 52.7632C11.4199 52.6467 11.9379 52.9824 11.4809 52.9573L11.0897 52.5661C10.4316 52.3892 9.6814 53.0238 9.52936 53.347C9.20579 54.0239 9.48061 54.6287 9.52936 55.2986C9.86435 55.2986 10.3768 55.1953 10.7 55.2986C10.5231 57.5303 10.7602 57.5608 8.74841 57.4442C8.69395 57.5725 8.26631 57.9388 8.1631 58.0295C8.38823 58.798 8.33478 59.1516 8.55435 59.9811C8.4689 59.9686 7.71206 60.1267 7.38364 60.1752C7.38364 60.1752 7.46847 59.1642 5.43191 60.5664C5.71807 62.7199 4.71865 63.4617 5.04222 65.8335C4.46903 66.1629 3.81048 66.6629 3.28612 67.0041C3.35286 67.3453 3.21295 67.6333 3.28612 67.9807C3.3837 68.469 3.99397 69.1145 4.06714 69.7366C4.13952 70.4143 4.05978 70.9926 3.87151 71.4926C3.86463 71.5051 3.48174 71.6866 3.48174 71.6866C3.26225 72.8941 3.74874 74.3339 3.87151 75.395C4.10892 75.474 4.37146 75.3832 4.45683 75.5906C4.54228 75.7979 4.34712 76.1626 4.45683 76.3699C4.31621 76.5351 3.7913 76.7596 3.67588 76.9553C3.04176 77.9796 3.64599 78.9014 3.48174 80.0775C3.48174 80.0775 3.13282 80.2488 3.09049 80.2731V80.6628C3.03525 80.968 2.84661 81.6198 3.09049 82.2231C3.13846 82.3452 3.5661 82.5048 3.67588 82.6144V83.0041C5.69366 83.1449 5.71142 83.1629 6.79676 81.8334C6.94387 81.8827 7.35845 82.0416 7.38364 82.0291C7.29819 82.3037 7.01594 82.6746 6.99239 82.8084C6.93057 83.0956 7.18801 83.9791 7.18801 83.9791C7.27339 84.0401 7.73679 84.2608 7.77333 84.3703C7.91888 84.8218 7.73029 85.4478 7.77333 85.933C5.9864 85.1035 4.82202 85.2757 5.62605 87.4902C5.72441 87.7641 5.60938 87.9362 5.82316 88.0771C6.17686 88.304 6.7189 88.0614 7.18801 88.2727C7.30993 88.3275 7.64492 89.0239 7.77333 89.0552C9.02941 89.2821 9.5346 88.0145 9.91912 87.2946C10.1389 87.4041 10.4551 87.678 10.7 87.6858C10.0229 89.0395 10.2915 88.8361 10.7 90.0255C10.657 90.049 10.7 90.5654 10.7 90.6124C10.5959 90.3307 10.4864 91.121 10.5044 91.1993C10.7548 92.3574 12.3573 92.2478 13.4309 92.1774C13.3699 92.2713 13.4677 92.6469 13.4309 92.7565C13.2228 93.2807 11.9442 93.8441 11.4809 94.1258C11.5967 94.4545 11.3589 94.7675 11.4809 95.104C11.5474 95.2996 12.621 96.2151 12.8456 96.2699C13.6516 96.4655 15.0836 95.9569 15.5774 95.683C15.7597 95.5813 16.0829 94.9475 16.3583 94.9084C16.9788 94.7988 17.1987 95.1509 17.723 95.2996C17.7105 95.2996 17.723 95.8552 17.723 95.8787C15.2902 96.1525 14.6524 96.7551 15.9686 98.6096C17.0117 98.3436 17.2605 98.4844 18.3083 98.2262C18.3881 98.86 18.5665 100.128 19.0908 100.37C19.4437 100.527 20.0533 100.315 20.4555 100.37C22.5292 100.652 22.5777 101.544 23.9674 99.5878C24.9675 99.6973 25.5833 99.8695 26.3087 99.5878L26.6984 99.1965C27.3518 99.1104 28.0224 99.5486 28.4551 99.5878C29.0099 99.6269 29.2055 99.3921 29.6257 99.3921C29.7478 98.8991 29.8448 98.4688 30.0154 97.8349C29.7048 97.5845 29.3878 97.4593 29.0404 97.2481V96.8568C29.6868 96.5516 30.4184 96.0743 30.992 95.8787C31.6626 95.6596 32.7057 95.5657 33.3333 95.8787L33.7229 96.2699C34.7285 96.4186 35.2293 95.7926 35.8686 95.683C36.3076 95.6048 37.0228 95.8552 37.4305 95.683C38.0283 95.4248 37.9915 94.2119 38.4055 93.7346C38.839 93.226 39.8195 92.9834 40.3563 92.5608C40.1732 92.0913 40.9416 92.5608 40.9416 92.5608C41.2155 94.3371 40.9173 94.0398 42.6975 94.3215C42.9902 93.7659 43.4722 92.5843 44.2594 92.5608C44.6006 92.553 44.369 92.8347 44.8447 92.7565C44.9425 93.0303 44.7407 93.4529 44.8447 93.7346C44.8815 93.8363 45.3322 94.118 45.43 94.3215C45.6437 94.2354 45.9841 94.3763 46.2094 94.3215C46.819 94.1493 47.1484 92.733 47.3801 92.1774C49.5633 92.0835 49.1125 92.2869 49.9169 90.808C50.7887 90.9254 51.2394 90.8628 52.0634 90.808C52.1056 90.5967 52.4241 90.495 52.4546 90.4168C52.6009 89.9942 52.3083 89.4778 52.4546 89.0552C52.5696 88.7031 53.3936 88.3744 53.6253 88.0771C53.8749 87.7406 53.9109 87.1693 54.2106 86.9033C54.7834 86.3868 55.6793 86.3634 55.9665 85.5417C56.1129 85.1114 55.8812 84.6262 55.9665 84.1747C56.0033 83.9431 56.5276 83.2357 56.5518 83.0041C56.6982 81.5165 55.8366 81.3827 54.9899 80.8584C54.7333 81.1996 54.4719 81.4977 54.2106 81.8334C54.6981 81.9258 53.6253 82.2231 53.6253 82.2231C53.8076 81.1691 53.4719 81.1988 54.6003 80.4672C55.051 80.169 55.3436 80.1988 55.7709 79.8819C55.8984 79.7786 56.008 79.3638 56.1606 79.2965C56.8249 78.9741 57.6372 79.2723 58.3078 78.9068C58.6184 78.7308 58.4533 78.1212 58.6975 77.9318C58.3923 77.3708 58.6247 77.2847 58.1122 76.9553C57.8195 76.7667 57.5088 76.7236 57.1371 76.5656C57.3445 76.4255 57.4846 75.8762 57.7225 75.7846C58.2835 75.5593 58.8493 75.841 59.2828 75.5906C59.6662 75.359 59.4103 74.9794 59.6725 74.614C59.8368 74.3699 60.4965 74.2541 60.649 74.0287C60.8259 73.7478 61.5388 71.6444 61.4284 71.1013C61.3611 70.7907 60.7523 70.5418 60.649 70.3219C60.4354 69.865 60.6052 69.5535 60.4519 68.9557C60.7077 68.944 60.7398 68.5903 60.8431 68.566C61.2586 68.4564 61.4042 68.9017 61.6225 68.9557C62.8064 69.2241 63.056 68.5284 63.5741 68.1747C63.477 67.3398 63.3495 66.31 63.38 65.6394C62.4535 65.1699 62.0685 65.4626 62.0137 64.0791C61.9527 62.7363 62.6789 62.8232 62.7947 62.3232C62.8862 61.9147 62.6053 61.2308 62.5991 61.1517C62.4527 59.4318 63.0748 59.2565 62.5991 57.6398C62.8612 57.5436 63.2994 57.6398 63.5741 57.6398C64.1594 56.3902 64.0874 56.9019 63.7697 55.4926C63.5075 55.4136 63.1546 55.4449 62.9903 55.2986C62.5576 54.8971 62.1671 54.1819 61.8197 53.7367C62.6617 53.0669 63.2571 52.4025 64.1594 51.7867C64.0561 51.4455 64.2572 51.1458 64.1594 50.8101C64.1234 50.6943 63.6163 50.2318 63.5741 50.0307C63.3917 49.1833 63.4903 48.6402 63.38 47.8843C63.5999 47.8906 64.4411 48.0299 64.9411 48.0784C64.9411 48.0784 65.1727 47.1769 65.1367 46.9077C65.1179 46.8107 64.2024 44.4139 64.1594 44.3708C63.9645 44.1885 63.3855 44.1095 63.1844 43.9812C63.4708 43.0789 64.1367 41.4576 62.9903 41.0561C62.6546 40.9333 62.3432 41.1712 62.0137 41.0561C61.8737 41.4208 61.7759 41.7557 61.6225 42.0296C60.6483 43.7308 61.4535 42.1415 60.649 42.4208C60.649 42.0671 60.7343 41.5859 60.649 41.2502C60.7093 41.2142 61.027 41.0929 61.0387 41.0561C61.124 40.769 61.2336 40.8104 61.4284 40.6649C61.2704 40.2376 61.0935 39.7924 61.0387 39.4943C60.6913 39.6586 59.4651 40.1703 59.0872 40.0796C59.0441 40.0671 58.5997 39.5185 58.5018 39.4943C58.2757 39.4332 57.9353 39.5725 57.7225 39.4943C57.5699 39.6406 57.1121 40.4098 56.9415 40.4708C56.7287 40.5373 56.3554 40.3613 56.1606 40.4708C56.8437 40.4708 55.7764 37.9457 55.7709 37.9339C56.7709 37.5615 56.8132 37.4464 57.5268 36.9589C57.4353 36.617 57.5268 36.135 57.5268 35.7875C56.6731 35.6232 56.5025 35.5066 55.3812 35.5919C55.1308 35.0801 55.1918 35.1404 54.7959 34.8109C54.1981 35.1772 54.1182 35.4221 53.234 35.7875C53.0079 37.7688 53.1307 37.7438 54.7959 37.7383C54.3929 38.5482 54.4664 38.8542 54.2106 39.8855C53.7223 39.2392 53.0149 38.5067 52.259 38.1296H52.0634C51.7277 37.4519 51.9718 36.5012 51.8685 35.7875C52.2833 35.7085 52.2347 35.7875 52.4546 35.5919C52.7402 35.3235 53.4054 35.1216 53.6253 34.8109C53.716 34.6771 53.7833 33.994 53.6253 34.2256C53.5642 34.1951 53.3435 33.501 53.234 33.4463C52.3067 32.9642 50.8998 33.6348 50.1126 33.4463C49.5578 33.3054 49.2706 32.0612 48.7463 31.8844H48.3566ZM169.129 34.4213L168.738 34.6169C168.519 34.9518 168.644 35.1412 168.542 35.5919C167.65 35.354 167.282 35.4338 166.398 35.2022C165.209 37.7571 165.631 37.0372 162.689 37.153L161.711 37.5442C161.562 37.574 161.366 37.3729 161.515 37.3486C161.241 37.2266 160.811 37.4636 160.545 37.3486C160.294 37.2383 160.247 36.0004 159.175 36.3721C159.152 36.3783 158.706 37.117 159.175 36.9589C159.175 36.9589 159.332 37.9152 159.371 38.1296C158.479 38.7634 158.62 38.5365 158.009 39.4943C157.43 39.3237 157.219 39.3605 156.836 39.1046C156.1 38.61 156.491 38.1828 156.64 38.3236C156.711 37.8901 157.211 37.9097 157.031 37.153C156.984 36.9707 156.351 36.7257 156.249 36.5677C156.085 36.3235 156.147 36.0982 156.053 35.7875C155.991 35.8 155.365 35.6412 155.083 35.5919C155.005 36.5614 154.919 37.5615 155.083 38.7149C154.606 38.7634 153.385 38.6945 152.735 38.9089C152.454 38.9942 151.851 39.8472 151.569 40.0796C151.327 39.97 150.842 40.0796 150.591 40.0796C150.505 39.7627 150.466 39.4144 150.396 38.9089C149.848 38.7681 149.058 38.2446 148.056 38.5193C147.931 38.549 147.532 39.0803 147.469 39.1046H147.078C145.669 40.4826 147.853 40.7932 148.643 41.2502C148.885 41.3911 149.175 41.8778 149.425 42.0296C149.097 42.2503 148.885 42.3903 148.643 42.6165C147.79 42.0124 146.835 41.2987 145.325 41.8355C144.996 41.9451 144.676 42.5249 144.347 42.6165C143.979 42.7143 143.549 42.5421 143.181 42.6165C142.978 41.8418 142.547 40.3049 141.616 40.2752C141.311 40.2627 141.045 40.5796 140.638 40.6649C140.591 40.8723 140.278 40.9709 140.247 41.0561C140.067 41.5742 140.09 42.4271 140.059 42.8105C138.627 43.1775 137.656 43.5915 135.958 43.7871C135.669 44.5547 135.481 45.0735 135.176 45.7387H134.785V45.3474C134.456 44.4084 133.509 44.8169 132.836 44.9577C132.586 46.4453 132.202 46.7505 131.67 47.8843C130.004 47.3295 130.371 47.36 129.127 47.8843C129.127 48.238 129.213 48.702 129.127 49.0549L129.714 49.2498C129.706 49.2498 129.714 49.8054 129.714 49.8367C128.728 49.6888 128.18 49.8054 127.374 49.8367C127.304 50.2757 126.834 50.2193 126.983 51.0057C126.991 51.0488 127.601 51.7687 127.57 51.7867C127.014 52.0191 126.74 53.3462 126.592 53.9323C124.98 54.34 124.221 54.2915 123.078 55.1029C123.149 55.5419 122.93 56.0482 123.078 56.4692C123.211 56.8346 124.189 57.1218 124.448 57.4442C124.753 57.8292 124.823 58.7487 125.23 59.0045C125.676 59.2862 126.099 58.9435 126.396 59.0045C126.443 59.0116 126.607 59.3661 126.787 59.3958C126.78 59.4083 126.443 60.5555 126.592 60.5664C125.293 60.4217 124.909 60.4381 123.665 60.7605C123.751 59.8465 123.978 58.5303 123.078 58.2252C122.859 58.1461 122.499 58.3175 122.304 58.2252C122.249 58.4325 121.936 58.5296 121.912 58.6148C121.599 59.5179 122.327 59.8825 122.108 60.7605C121.975 61.2308 119.322 63.4194 118.79 64.0791C119.017 64.2982 118.884 64.4445 118.986 64.86C119.455 64.9813 120.246 65.346 120.739 65.4438C118.493 65.9986 117.389 66.7975 118.399 68.9557C117.718 69.4377 116.044 71.2484 116.255 72.4676C116.294 72.736 116.967 73.0537 117.03 73.2485C117.108 73.4629 116.936 73.8213 117.03 74.0287C116.607 74.272 114.4 75.9075 114.299 76.1759C114.166 76.5233 114.385 76.9748 114.299 77.3465C114.385 77.3653 114.932 77.4553 115.081 77.5406C115.23 77.6259 115.159 78.0523 115.277 78.1259C114.964 78.6502 114.056 79.3451 113.907 79.8819C113.688 80.6933 114.275 82.1629 113.516 82.4187C113.078 82.5596 114.103 83.5894 114.103 83.5894V83.785C114.244 83.8515 114.612 84.4603 114.69 84.5644C114.893 84.8453 115.026 84.9314 115.277 85.1505C114.862 85.753 113.86 86.7703 114.299 88.0771C114.346 88.2179 114.784 88.4527 114.885 88.6639C115.433 88.57 115.856 88.4761 116.255 88.4683V90.4168C116.294 89.9942 116.263 92.4591 116.45 92.7565C116.568 92.9599 117.389 92.9834 117.616 93.1477C117.749 93.2494 117.828 93.8128 118.008 93.9302C118.454 94.2041 119.346 94.3763 119.76 94.5171C119.76 95.0257 119.588 95.9882 119.76 96.4655C119.972 97.0368 120.903 96.9898 121.521 97.2481C121.717 96.9585 122.077 96.7551 122.304 96.4655C122.476 96.2308 122.554 95.9178 122.695 95.683C122.851 96.1525 123.266 97.5298 123.665 97.8349C124.346 98.3592 125.066 98.1479 126.005 98.0306C125.919 98.1636 126.036 98.4688 126.005 98.6096C125.95 98.8209 125.199 99.4234 125.035 99.5878C125.207 99.8382 125.316 100.315 125.426 100.566C126.06 100.566 126.615 100.48 127.374 100.566C127.679 100.597 128.157 101.121 128.931 100.957C129.104 100.91 129.542 100.229 129.714 100.175C129.933 100.096 130.285 100.261 130.497 100.175C131.615 101.755 130.888 101.841 133.227 102.319C133.877 101.388 134.472 99.3999 136.35 99.7834C136.459 99.799 136.921 100.519 137.132 100.566C137.852 100.715 138.259 100.143 139.081 100.37C139.268 100.417 139.488 101.043 139.667 101.153C139.973 101.341 140.294 101.145 140.638 101.341C140.833 101.45 140.865 102.006 141.029 102.123C141.366 102.366 143.783 103.312 144.543 103.101C144.879 102.999 145.09 102.225 145.521 102.123C146.561 101.865 147.047 102.569 148.056 102.319C148.745 102.147 149.183 100.793 149.425 100.175C152.094 100.535 151.209 100.237 152.735 99.1965C153.048 98.9774 153.424 99.0243 153.714 98.8052C153.886 98.6722 154.097 98.0853 154.3 98.0306C155.091 97.7645 156.022 98.2262 156.836 98.0306C157.18 97.9367 157.532 97.4202 157.814 97.2481C157.751 96.9194 157.603 96.3717 157.618 96.2699C157.149 96.0586 156.656 95.6909 156.249 95.4874C156.906 95.5422 157.806 95.7456 158.197 95.683C158.894 95.5735 160.623 94.2432 160.74 93.539C160.834 92.9051 159.841 92.1304 160.74 91.7861C161.218 91.5983 161.977 91.8644 162.493 91.7861C162.955 91.7079 163.831 91.1601 164.246 91.0036C164.16 90.7454 164.246 90.2994 164.246 90.0255C162.924 89.3995 162.665 89.3525 161.32 90.2211L161.124 90.6124C160.435 90.7298 160.576 90.2524 160.154 90.2211C160.201 89.9238 160.357 89.3134 160.349 89.2508C161.891 89.3917 162.642 89.3917 163.471 88.4683C164.943 86.8094 164.113 86.3321 162.298 85.7374C162.399 85.5183 162.204 85.3774 162.298 85.1505C162.376 84.9314 163.002 84.5847 163.08 84.3703C163.151 84.1512 162.986 83.7967 163.08 83.5894H163.471C163.503 83.6082 163.471 84.2975 163.471 84.3703C163.722 84.4994 163.925 84.4986 164.05 84.76C165.099 84.4134 166.86 83.7185 166.977 82.6144C167.149 80.9437 165.122 80.9852 164.05 81.0525C164.512 79.9374 164.653 79.3341 164.442 77.9318C164.911 77.7613 165.122 77.8403 165.615 77.7362C165.655 77.5234 165.975 77.4263 166.007 77.3465C166.359 76.3097 165.96 76.3582 166.594 75.5906C166.836 75.2854 167.259 75.0718 167.564 74.8096C167.517 74.9802 167.188 75.4873 167.173 75.5906C167.079 76.2369 167.54 76.4005 167.368 76.9553C167.306 77.1501 166.554 77.5899 166.398 77.7362C166.484 77.9866 166.398 78.4311 166.398 78.7112C167.353 78.8943 167.259 79.59 168.346 78.5172C168.691 78.1635 168.542 77.8708 168.738 77.3465C168.918 77.4616 169.309 77.2612 169.52 77.3465C169.669 77.4076 169.849 78.1627 169.911 78.3215C170.678 77.9498 171.688 77.8583 172.056 77.1509C172.142 76.9741 172.65 74.3769 172.642 74.2243C172.611 73.9011 172.11 73.6014 172.251 72.8573C172.251 72.8573 173.135 71.3157 173.229 71.1013C172.548 70.919 172.392 70.6694 171.664 70.516C171.766 70.4495 171.555 69.9925 171.664 69.9307C171.946 69.7601 172.345 69.8039 172.642 69.7366C172.627 69.5175 172.509 68.5597 172.642 68.1747C172.689 68.0104 173.276 67.706 173.417 67.5894C172.963 66.6207 172.846 66.0604 172.447 65.0541C172.861 64.853 173.229 64.9187 173.613 64.6628C173.769 64.5541 174.02 63.9508 174.2 63.8835C174.818 63.6339 175.405 63.871 175.952 63.6894C176.312 63.5611 176.563 63.0963 177.126 63.1025C178.331 63.1143 178.582 64.3459 178.887 65.2482C179.059 65.1449 179.536 64.853 179.661 64.86C179.583 63.8107 179.716 63.3889 179.857 62.5172C179.896 62.2856 179.677 62.0172 179.661 62.1275V61.5422C180.334 61.0117 180.937 60.5062 181.618 59.9811C181.54 59.6024 181.712 59.1759 181.618 58.8105L181.227 58.4208C181.227 58.4208 181.047 58.0671 181.031 58.0295C180.397 58.1219 179.677 58.4145 179.075 58.2252C178.981 58.1954 178.652 57.7134 178.496 57.6398C178.949 56.8972 179.075 56.6335 179.661 56.078C179.403 55.0544 178.722 52.1638 178.887 51.2014C179.004 50.4384 180.209 49.8594 180.444 49.2498C181.007 47.7075 179.959 44.1705 179.075 43.7871C178.151 43.3841 177.071 44.0195 176.156 43.5915C175.858 43.4514 175.952 42.8849 175.765 42.6165C175.358 42.0609 174.544 42.2432 174.004 41.8355C173.386 41.3652 172.721 38.9708 172.056 38.7149C171.844 38.6351 171.641 38.8362 171.469 38.7149C171.117 40.6594 171.179 40.5804 169.325 41.0561C169.184 40.8003 169.137 40.366 168.933 40.0796C168.777 39.866 168.018 39.6946 167.955 39.4943C167.728 38.7626 168.378 38.3792 168.151 37.5442C168.065 37.2516 167.392 36.9519 167.173 36.7633C167.173 36.7633 167.353 36.3971 167.368 36.3721C167.846 36.4088 168.479 36.2195 168.933 36.3721C169.325 36.5004 169.606 37.4151 170.107 37.5442C172.58 38.1718 172.063 36.3486 171.077 35.5919C170.42 35.0801 169.849 34.8728 169.129 34.4213ZM96.9739 86.1051C96.8252 86.1208 96.6843 86.2147 96.5435 86.1286C96.4496 86.2851 95.9409 86.426 95.7688 86.5199C95.7766 86.6216 95.7688 89.0552 95.7688 89.0552C95.6671 89.196 95.2758 89.2899 95.1819 89.4464C95.0958 89.5716 95.088 90.3307 94.9863 90.4168C94.6889 90.6593 94.5011 90.5185 94.0081 90.6124C94.2507 90.7376 93.5465 90.8471 93.4213 90.808C93.3352 90.7767 93.2335 90.4794 93.03 90.4168C93.1709 89.3917 93.4213 88.2492 92.451 87.8814C92.0597 87.7249 91.9971 88.1553 91.4728 88.0771C91.3085 88.0458 90.8546 87.5215 90.6903 87.4902C89.1488 87.1537 88.4836 88.1866 87.7637 88.6639C87.5681 88.5309 87.3881 88.7422 87.1768 88.6639C86.8795 88.5466 86.676 87.811 86.4022 87.6858C85.7136 87.3572 83.9842 87.498 83.28 87.8814C82.3488 88.3822 82.8418 90.4715 82.3018 91.3949C82.2158 91.5357 80.9559 92.553 80.7446 92.7565C80.5169 92.5452 79.7853 91.6531 79.5724 91.5905C77.5348 91.0036 76.2859 94.4936 75.2788 90.808C75.1693 90.7924 74.5292 90.5107 74.1082 90.6124L73.9141 91.0036C73.2678 91.4184 72.7302 92.2635 73.7169 92.7565C73.882 92.8347 73.4431 92.9756 73.5229 93.1477C73.0964 93.2573 72.5839 93.6172 72.1566 93.539C71.6574 93.4372 71.7176 92.5765 70.5963 92.7565C70.3216 92.8034 68.9624 94.0945 68.8403 94.1258C68.4068 94.2197 67.4983 94.0006 66.8888 93.9302L66.6947 94.5171C65.1516 94.9162 66.8215 93.7268 67.0844 93.539C67.0288 93.2416 66.877 92.6313 66.8888 92.5608C66.1023 92.4435 65.8715 92.4826 65.1344 92.373C65.0788 92.6234 64.9012 92.6313 64.7431 92.7565C64.9435 93.5546 64.9388 93.8911 65.1344 94.5171C64.6398 94.744 63.981 94.6345 63.7673 95.104C63.578 95.4874 63.6022 96.5751 63.5717 96.8568C63.175 96.7316 63.1828 97.1698 62.7923 97.0524C62.5357 96.9742 62.3893 96.1838 62.0114 96.0743C60.9926 95.7691 60.0723 96.0195 59.0848 95.8787C58.926 97.8428 58.0183 99.1104 57.1348 100.37C57.0432 100.3 56.6403 100.37 56.5495 100.37C56.1402 99.5017 56.1958 99.6738 55.9642 98.414C55.6347 98.3279 55.6582 98.5627 55.5729 98.2262C55.371 98.3279 55.0009 98.1479 54.7935 98.2262C54.7012 98.2497 54.6026 98.5392 54.4023 98.6096C54.4023 98.6174 54.4211 99.5252 54.5979 99.1965C54.5486 99.3843 54.4023 99.979 54.4023 99.979C53.9508 100.049 53.4578 99.8303 53.0376 99.979C52.7567 100.073 52.5305 100.832 52.2566 100.957C50.8294 101.575 49.5852 100.754 48.5483 100.37C48.1336 100.934 47.8417 101.043 47.5733 101.927C47.5796 101.779 47.6469 100.621 47.5733 100.37C47.5366 100.253 47.2142 100.222 47.1836 99.979C46.9035 100.081 46.481 99.8773 46.2071 99.979C46.0545 100.026 45.6961 100.409 45.4277 100.566C45.2391 100.441 45.0372 99.8851 44.8424 99.7834C44.5615 99.6347 42.5363 99.2591 42.1099 99.3921C42.0731 99.3999 41.9518 99.7443 41.9158 99.7834C40.7749 100.785 41.3657 100.55 41.5246 101.732L41.7202 102.514C41.7257 102.507 42.6349 102.491 42.3055 102.319C42.5309 102.319 42.8548 102.334 43.0864 102.319C43.0864 102.381 43.0559 103.086 43.0864 103.101C42.6232 103.007 42.7633 103.383 42.3055 103.297C42.1466 103.266 41.6826 102.546 41.5246 102.514C40.9212 102.389 38.8304 103.046 38.4031 103.297C38.2083 103.406 38.3476 103.743 38.2075 103.884C37.9704 104.103 37.5377 104.079 37.2325 104.275C37.1049 104.345 36.9649 104.807 36.8428 104.854C36.727 104.901 36.3616 104.799 36.2575 104.854C36.1166 104.494 35.964 104.862 35.8662 104.658C35.7872 104.502 35.8662 104.048 35.8662 103.884C35.5251 103.798 35.7575 103.805 35.6722 103.492C35.331 103.492 34.8185 103.586 34.5015 103.492C34.0688 104.095 33.586 104.909 32.9397 105.245C31.9952 105.73 29.7697 105.84 29.2337 106.615C29.0263 106.896 29.24 107.1 29.0381 107.397C28.6961 107.272 28.8855 107.608 28.8424 107.781C28.3424 107.632 28.8424 108.367 28.8424 108.367C29.355 108.524 29.4763 108.164 30.0131 108.172C30.0131 108.195 30.0068 108.751 30.0131 108.759C29.5318 108.9 29.5741 108.821 29.0381 108.954C29.3307 109.158 28.4887 109.134 28.4528 109.15L28.2571 108.172C28.1225 108.094 27.3369 108.281 27.2821 108.172C27.1178 107.851 27.2821 106.982 27.2821 106.615C25.1905 106.145 25.8611 106.278 24.9401 107.976C24.9041 108.039 24.3548 108.547 24.3548 108.563C24.1967 109.26 24.6427 109.878 24.5504 110.324C24.5019 110.527 24.0324 110.707 23.9651 110.903C23.728 110.801 23.2514 110.903 22.9885 110.903C23.0198 110.355 23.0746 110.128 23.1841 109.541C23.0135 109.408 22.8375 109.424 22.7944 109.15C22.4227 109.166 21.4297 109.346 21.4297 109.346C21.4164 109.361 20.8734 109.502 20.8429 109.541C20.569 109.799 20.7216 110.629 20.4532 110.903C20.0627 111.286 19.2943 111.138 18.8913 111.49C18.7567 111.599 18.8913 111.99 18.6972 112.077C18.4226 112.178 17.9891 111.967 17.7207 112.077C17.9218 111.975 17.3325 111.685 17.3325 111.685C17.3677 111.623 17.7207 111.098 17.7207 111.098C18.4155 110.887 19.0994 110.997 19.4782 110.519C19.5142 110.465 19.8679 109.933 19.8679 109.933C19.9344 109.635 19.6722 108.759 19.6722 108.759C17.8247 108.759 16.7574 108.978 15.7706 110.324C15.6055 110.535 15.6055 110.997 15.381 111.098C14.7831 111.364 14.1 111.012 13.6242 111.294C13.3746 111.435 12.6367 113.759 12.8433 114.416C12.8863 114.549 13.3316 114.792 13.4286 115.003C13.7823 115.003 14.2463 114.917 14.5992 115.003C14.5742 115.042 14.3613 115.379 14.4036 115.394C12.9106 115.653 12.8613 115.981 12.258 117.147C10.3126 117.147 10.0083 117.304 9.52701 118.712V119.104C9.13028 119.417 8.38048 119.197 7.96512 119.487C7.00819 120.152 7.77098 122.883 7.77098 124.565C8.61813 124.792 9.82546 125.191 10.1124 125.927C10.1914 126.138 9.98392 126.318 10.1124 126.514C9.65472 126.835 7.07533 129.12 6.99004 129.44C6.80709 130.059 7.13113 130.473 7.18567 131.005C7.4417 130.99 7.83194 131.295 8.35638 131.201C8.77173 131.115 8.86829 130.591 9.13576 130.419C9.14264 130.419 10.0032 130.724 9.72264 130.81C9.84377 130.896 10.2407 131.06 10.308 131.201C10.5278 131.639 10.3502 131.968 10.502 132.563C10.2336 132.61 10.2156 132.938 10.1124 133.15C9.89862 133.048 9.66684 132.61 9.52701 132.563C9.11244 132.422 8.58753 132.625 8.16075 132.563C7.95339 133.196 7.28372 134.362 7.38129 135.098C7.3935 135.223 7.9285 135.599 7.96512 135.685C8.25856 136.342 7.91058 136.358 7.96512 137.046C7.7155 136.921 7.80807 137.352 7.38129 137.242C7.33247 137.234 7.16071 136.898 6.99004 136.859C7.76394 136.561 5.89899 136.561 6.40465 136.663L6.21058 137.438C6.99098 137.915 8.41084 138.259 8.94169 139.003C9.23357 139.417 9.14249 140.051 9.52701 140.364C10.1366 140.873 10.8917 140.576 11.0873 141.538C11.3064 142.657 10.5325 142.978 10.6976 143.878C10.7829 144.371 11.6734 144.652 11.8683 145.051C12.0138 145.357 12.2392 146.452 12.258 146.609C12.337 147.485 12.0326 149.676 12.4536 150.709H12.6492C13.2338 150.999 13.6602 152.078 14.2095 152.266H14.5992C14.697 152.352 14.661 152.783 14.7949 152.853C15.2284 153.072 15.7088 152.798 16.1603 153.049C16.5203 153.252 18.0994 155.474 17.3325 156.171C18.3013 156.93 20.2638 157.431 20.0619 159.293C20.0557 159.293 19.5502 160.099 19.4782 160.271C19.7207 160.138 19.6292 160.569 20.0619 160.467C20.2755 160.412 20.3311 159.896 20.4532 159.684C20.6058 159.684 21.0987 159.763 21.2325 159.684C21.6418 160.076 23.2272 161.265 21.8179 161.633C21.6778 161.461 21.4282 160.921 21.2325 160.858C21.0134 160.772 20.6551 160.944 20.4532 160.858C20.3554 161.046 20.0197 161.304 19.8679 161.437C19.8679 161.437 19.8679 162.149 20.0619 161.828C20.1957 162.274 20.1488 162.149 20.2591 162.611C20.6496 162.423 20.4532 163.973 20.4532 163.973C21.6301 163.589 22.0518 163.487 23.3797 163.589C23.4111 163.519 23.537 163.198 23.5738 163.198C23.7514 163.143 24.5324 163.339 24.3548 163.393C24.6482 163.886 24.9886 164.317 25.3298 164.755C24.4338 165.021 23.3923 165.052 23.1841 165.929C23.1544 166.023 23.2334 166.422 23.1841 166.516C23.0621 166.711 22.4775 166.876 22.4032 167.095C22.2999 167.369 22.501 167.791 22.4032 168.073C22.7569 167.901 23.0574 168.057 23.3797 167.877C23.7397 167.666 24.0198 166.97 24.3548 166.703C25.0136 166.171 25.6592 165.882 26.3063 165.342C26.7571 165.999 27.2939 166.923 27.8674 167.486C28.1053 167.729 28.9105 167.963 29.0381 168.268C29.2634 168.832 28.8002 168.988 28.8424 169.434L29.2337 170.021C29.5201 171.453 29.3135 171.093 29.819 172.173C30.0326 172.087 30.373 172.228 30.5984 172.173C31.1344 172.025 31.7268 171.156 32.1603 170.804C33.6298 172.134 34.867 173.198 37.2325 171.978C37.1049 173.136 36.9774 174.278 38.0134 174.709C38.3249 174.834 38.6105 174.654 38.7928 174.904C38.9274 175.084 39.2874 176.438 39.3781 176.657C41.5918 176.328 42.1772 176.594 43.6718 177.439C43.9707 177.252 44.7688 176.375 45.2321 176.461C45.2321 176.461 45.0787 177.408 45.0364 177.635C45.1765 177.729 46.1273 178.277 46.2071 178.41C46.3659 178.715 46.1273 179.239 46.2071 179.584C46.2806 179.92 47.1406 180.538 47.1836 180.757C47.2627 181.203 46.8965 181.477 46.7924 181.923C47.3292 181.806 48.1469 181.438 48.744 181.54C49.2933 181.626 49.708 182.455 50.1102 182.706C50.4217 182.901 50.7378 182.698 51.0852 182.901C51.6158 183.207 52.5978 185.257 52.842 186.024C53.5791 185.781 54.9328 185.437 55.7685 185.437C56.0119 185.429 56.4329 185.828 56.9392 185.632V185.437C57.2561 185.272 57.2866 184.819 57.5245 184.654C57.8414 184.435 58.127 184.654 58.4995 184.466C59.0848 186.399 58.3164 185.695 60.2554 186.219C60.2977 186.149 60.5669 185.656 60.6467 185.632C60.8666 185.546 61.0184 185.742 61.232 185.632C61.3963 185.765 61.628 186.313 61.8173 186.415C62.3596 186.704 63.9324 186.728 64.5483 186.806C64.6156 187.244 64.3957 187.745 64.5483 188.168C64.8472 188.997 68.4687 189.67 69.6213 189.928C69.7066 190.265 69.5297 190.554 69.6213 190.899C69.6268 190.93 71.3225 192.628 71.3772 192.659C73.0909 193.434 73.1449 192.112 73.9141 191.877C75.4744 191.392 76.0472 192.323 76.6443 192.659C76.962 192.831 77.2601 192.683 77.6209 192.855C77.7296 192.565 77.944 192.589 78.2062 192.464C78.0536 191.368 78.1084 190.773 78.0121 190.124C78.322 190.202 78.4801 190.014 78.7915 189.928C78.9621 190.226 79.4433 191.36 79.7665 191.486C80.8698 191.9 82.3175 191.118 83.0843 191.094C84.3911 191.039 84.5633 191.525 85.2284 192.072C87.0595 191.266 87.216 192.025 89.3288 191.681C89.5244 191.642 90.3851 191.11 90.4947 191.094C91.1755 190.985 91.8328 191.36 92.2553 191.29C92.4353 191.251 92.8266 190.797 93.03 190.703C92.9439 190.359 93.1161 190.069 93.03 189.733C93.0144 189.654 91.0816 186.892 93.6169 187.581C93.703 187.604 94.0551 188.136 94.2038 188.168C94.6029 188.238 94.8063 187.941 94.9863 187.972C94.775 187.816 95.1428 187.135 95.1819 187.002C94.9628 186.884 95.0958 186.657 94.9863 186.61C94.642 186.438 94.3368 186.493 94.0081 186.415C94.0316 186.016 93.7969 185.828 93.8125 185.632C93.8673 184.936 95.0489 184.576 95.3775 184.075C95.6201 183.684 95.5106 183.12 95.7688 182.706C96.0583 182.205 98.3589 181.203 99.2744 181.344C99.3683 181.352 99.8222 181.908 99.8613 181.923C100.065 181.994 100.456 181.814 100.644 181.923C100.91 182.08 101.137 182.784 101.426 182.901C101.567 182.956 101.857 182.8 102.013 182.901C102.178 180.695 102.091 181.203 103.766 181.149C103.743 181.665 103.883 182.393 103.766 182.901C103.75 182.917 103.21 183.261 103.179 183.293C103.531 184.607 103.101 184.224 103.962 185.045C103.75 185.108 103.656 185.405 103.57 185.437C103.265 185.538 102.905 185.351 102.592 185.437C102.905 185.554 101.849 185.624 101.818 185.632C101.763 185.491 101.731 185.21 101.622 185.045C100.652 183.606 100.894 183.684 98.4997 183.684C98.3667 184.059 98.3589 184.701 98.1085 185.045C97.8894 185.327 97.2086 185.39 96.9347 185.632C96.6452 185.891 96.7548 185.82 96.5435 186.219C96.5513 186.219 96.5435 186.775 96.5435 186.806C96.6765 186.806 97.2086 186.72 97.326 186.806C97.3182 186.869 97.4668 187.479 97.5216 187.776C96.5591 187.776 97.592 189.31 97.7172 189.537C97.0756 190.038 96.5435 190.554 95.9644 191.094C96.0661 191.439 96.207 191.517 96.16 191.877C98.1867 193.066 98.5858 192.855 99.6657 190.899C99.7987 191.055 100.315 191.11 100.448 191.29C100.62 191.525 100.487 191.822 100.644 192.072C101.426 193.348 102.381 192.73 103.375 192.268C103.21 190.789 103.343 190.531 103.57 189.537C103.758 189.647 104.142 189.443 104.353 189.537C104.642 189.654 104.908 190.593 105.323 190.703C106.794 191.071 107.006 189.96 107.671 189.537C108.007 189.31 108.289 189.514 108.641 189.341C108.985 189.161 109.314 188.59 109.619 188.363C109.776 188.434 110.042 188.324 110.206 188.363C110.511 188.434 110.754 189.036 110.981 189.146C111.646 189.451 112.014 189.185 112.741 189.146C112.773 189.013 113.117 188.598 113.133 188.559C113.399 187.503 112.53 186.986 113.328 186.415C113.524 186.509 113.884 186.337 114.103 186.415C114.408 186.517 114.463 187.221 114.69 187.385C115.738 188.152 116.591 187.385 117.421 187.002C117.397 186.423 117.421 185.812 117.421 185.241C116.975 185.061 115.817 184.709 115.668 184.271C115.59 184.044 115.762 183.692 115.668 183.488C116.177 183.629 116.098 183.167 116.646 183.488C117.288 183.864 116.904 184.756 118.203 184.654C118.97 184.599 119.69 183.746 119.956 183.097C119.956 183.097 120.441 182.839 120.152 182.706C119.831 182.557 119.455 181.939 119.573 181.344C119.581 181.25 120.097 181.016 120.152 180.953C120.613 180.343 120.512 179.865 120.739 178.997C120.566 178.864 120.394 178.879 120.347 178.605C120.285 178.605 119.815 178.645 119.76 178.605V178.026C122.437 179.263 122.726 178.167 125.23 177.439C125.285 177.087 125.246 176.328 125.426 175.874C125.504 175.648 126.122 175.381 126.201 175.1C126.31 174.709 126.122 174.325 126.201 173.926C126.028 173.785 125.872 173.801 125.809 173.535C125.551 173.535 125.066 173.636 124.839 173.535C124.706 173.472 124.526 172.799 124.448 172.752C124.628 172.752 124.902 172.455 125.035 172.361C126.114 173.089 125.692 172.995 127.179 172.948C127.132 172.478 127.413 172.635 127.374 172.173C127.351 171.97 126.803 171.469 126.787 171.391C126.654 170.702 127.1 170.522 127.179 170.217C127.265 169.841 127.077 169.411 127.179 169.051C127.288 168.628 127.906 168.237 128.157 167.877C128.071 167.736 128.18 167.431 128.157 167.29C128.047 166.844 127.155 166.539 126.787 166.32C127.265 164.685 127.859 164.16 128.157 162.22C127.992 162.181 127.633 161.844 127.57 161.828C126.396 161.57 125.825 162.752 125.23 163.198C125.121 163.268 124.902 163.675 124.839 163.777C124.753 163.386 124.62 162.454 124.448 161.828C124.401 161.672 123.884 161.21 123.861 161.046C123.673 159.888 124.815 159.731 125.035 158.902V158.706C124.995 158.855 124.792 158.135 124.839 157.924C124.902 157.611 126.435 154.927 125.621 154.418C124.456 153.683 123.751 154.833 123.078 154.997C122.961 155.021 122.593 154.95 122.499 154.997C122.444 154.786 122.131 154.692 122.108 154.614C121.889 153.996 122.108 152.923 122.108 152.266C122.21 152.626 122.304 152.071 122.304 152.071C121.631 150.607 121.772 150.975 120.152 151.1C119.98 151.773 119.573 154.277 118.986 154.614C118.516 154.864 117.875 154.606 117.421 154.809C117.335 154.841 116.873 155.381 116.834 155.388C116.411 155.482 116.263 155.146 116.059 155.193C116.286 155.193 115.864 154.614 115.864 154.614C115.809 153.902 116.584 152.689 116.646 152.266C116.74 151.492 116.349 150.834 116.255 150.318L116.45 149.731C116.81 149.809 117.249 149.613 117.616 149.731C118.532 150.036 118.219 151.781 119.76 151.1C121.302 150.412 120.379 148.745 119.956 147.782C118.931 147.861 118.493 147.845 117.616 147.978C118 146.656 117.875 146.789 117.616 145.631C117.436 145.607 116.975 145.388 116.646 145.247C116.646 145.247 115.347 146.507 115.668 146.609C116.505 146.867 116.051 149.097 115.668 149.731C115.378 150.193 114.432 150.49 113.907 150.709C114.056 148.213 113.837 148.745 115.472 147.196C115.238 146.476 115.292 146.296 115.081 145.631C115.183 145.552 115.613 145.357 115.668 145.247C115.84 144.864 115.504 144.668 115.864 144.465C115.864 144.465 115.504 143.447 115.472 143.291C115.668 143.416 116.051 143.361 116.255 143.486C116.372 143.565 116.521 144.034 116.646 144.073C116.857 144.144 117.585 143.925 117.421 143.878C117.46 143.76 117.969 143.596 118.008 143.486C118.211 142.9 117.804 141.929 118.008 141.342C118.156 140.912 119.213 141.092 118.986 139.785C118.908 139.339 118.117 138.893 117.812 138.611C118.399 137.344 118.399 137.852 118.008 136.663C117.718 135.779 117.468 134.84 116.646 134.511C114.51 133.674 114.228 134.879 114.494 136.663C114.353 136.765 113.563 137.101 113.516 137.242V137.633H113.133C112.984 137.109 113.094 136.741 112.741 136.467L112.546 136.272C112.64 136.178 112.491 135.81 112.546 135.685H112.741C113.493 135.309 113.798 134.566 114.299 133.932C112.381 133.58 112.381 132.719 111.763 130.614C112.225 130.387 113.219 129.652 113.72 129.636C114.752 129.589 114.51 130.176 114.885 130.419C115.238 130.638 115.48 130.379 115.864 130.614C116.106 130.442 116.372 130.153 116.646 130.027C116.497 129.456 116.701 129.065 116.45 128.658C116.419 128.619 115.668 128.267 115.668 128.267C115.48 127.539 116.208 127.555 116.059 126.709C115.981 126.271 115.292 126.037 115.081 125.731C114.909 125.481 115.034 125.191 114.885 124.949C114.549 124.401 113.696 124.104 113.133 123.783C113.219 123.407 113.023 122.977 113.133 122.609C113.195 122.398 113.876 121.921 113.907 121.639C114.017 120.551 112.882 119.972 112.155 119.683C111.755 119.526 112.694 119.252 112.937 119.291L113.328 119.683C115.058 120.144 114.737 118.47 114.69 117.538C114.439 117.492 114.408 117.186 114.299 117.147C113.352 116.819 112.115 117.898 111.568 118.125L111.176 117.538C111.215 117.421 111.724 117.257 111.763 117.147C111.873 116.819 111.763 116.326 111.763 115.981C112.061 116.106 111.873 115.66 112.35 115.786C112.428 115.801 112.64 116.302 112.741 116.365C113.735 116.983 114.142 116.498 114.885 115.981C114.087 113.994 114.072 113.219 111.763 114.416C111.795 114.393 111.763 113.869 111.763 113.829C112.538 113.493 112.921 113.548 113.328 112.859C113.375 112.765 113.61 112.71 113.72 112.663C113.626 112.452 113.79 112.092 113.72 111.881C113.587 111.498 112.835 111.13 112.741 110.707C112.491 109.58 112.914 108.743 112.741 107.585C112.929 107.695 113.125 107.256 113.516 107.585C113.939 107.937 113.579 109.549 113.516 110.324C113.892 110.261 114.228 110.566 114.885 110.324C114.948 110.292 115.026 109.94 115.081 109.933C115.097 109.753 115.637 109.424 115.472 108.759C115.457 108.712 115.058 108.313 115.081 108.172C115.12 107.89 115.95 107.695 115.864 106.615C115.809 105.973 115.152 106.161 115.472 105.245C115.488 105.191 115.989 104.76 116.059 104.658C116.059 104.658 116.012 104.158 115.864 104.463C115.738 104.4 115.652 103.751 115.472 103.688C115.073 103.539 114.338 103.688 113.907 103.688V103.297H114.103C114.134 103.156 114.197 102.405 114.299 102.319C115.136 101.575 116.044 102.405 117.03 102.123C117.147 102.092 117.429 101.622 117.616 101.536C117.616 101.364 117.538 100.918 117.616 100.762C116.967 99.9634 116.411 99.5252 115.472 99.0009C115.472 98.7583 115.59 98.0306 115.472 97.8349C115.238 97.4515 114.854 97.7097 114.494 97.4437C114.048 97.115 113.86 96.0586 113.72 95.4874C113.5 95.4405 113.407 95.1275 113.328 95.104C110.895 94.2589 111.802 97.0837 112.155 98.0306C111.81 98.1401 111.795 98.0384 111.568 98.2262C110.816 98.8209 110.91 98.7426 109.815 98.414C109.956 98.1792 109.408 98.1479 109.619 98.0306C110.715 97.3654 110.261 96.1134 110.206 94.5171L110.793 94.3215C111.771 92.5921 110.973 92.7017 109.228 92.7565C109.361 94.7206 109.643 94.165 108.062 94.5171C107.037 93.0303 106.646 92.7565 104.744 92.7565C104.666 92.9208 104.509 93.5077 104.353 93.7346C104.423 93.852 104.908 94.2432 104.94 94.3215C104.83 94.3919 104.94 95.1509 104.94 95.2996C104.392 95.4013 104.165 95.3074 103.766 95.4874C103.476 94.3841 103.265 92.7017 102.788 91.7861C103.359 91.3245 103.735 91.0349 104.157 90.4168C103.993 90.1507 104.024 89.7125 103.962 89.4464C103.829 89.4151 102.96 89.3056 103.179 89.4464C102.584 89.7595 102.553 89.4934 102.201 90.0255C102.115 90.1507 101.825 91.0741 101.818 91.1993C101.591 91.1445 101.043 90.9958 101.035 91.0036C100.918 90.8471 100.8 90.5185 100.644 90.4168C100.433 90.5576 100.323 90.0803 100.253 90.0255C101.708 89.2117 101.747 89.4699 101.426 87.8814C101.176 87.8423 101.145 87.5293 101.035 87.4902C100.792 87.4041 100.12 87.6467 100.253 87.6858H99.8613C99.5718 87.7875 99.6031 88.5466 99.2744 88.6639C99.0631 88.7265 98.6954 88.5544 98.4997 88.6639C98.2572 87.7562 97.905 86.426 97.1304 86.1286C97.0756 86.1051 97.0286 86.1051 96.9739 86.1051ZM178.496 95.4874C178.331 95.7378 177.815 95.9491 177.713 96.2699C177.705 96.2856 177.854 96.8333 177.909 97.0524C177.697 97.0916 177.596 97.4124 177.517 97.4437C177.009 97.6158 176.336 97.5689 175.952 97.6393C175.812 99.4547 175.287 100.284 175.373 101.732C174.591 100.276 174.043 100.394 172.838 101.341C172.65 101.114 172.502 100.511 172.251 100.37C171.617 100.018 168.832 100.198 167.76 99.979C167.713 100.19 167.392 100.284 167.368 100.37C167.118 101.082 167.368 102.334 167.368 103.101C167.337 103.109 166.977 103.297 166.977 103.297C166.844 102.999 166.617 102.906 166.398 102.71C166.899 101.035 166.453 98.8052 164.442 100.175C164.191 100.339 164.27 100.949 164.05 101.153C163.863 101.325 163.284 101.45 163.08 101.536C163.221 102.084 163.025 102.452 163.276 102.906C163.651 103.594 165.342 103.492 165.615 104.275C165.733 104.596 165.49 104.909 165.615 105.245C165.545 105.245 165.076 105.206 165.029 105.245C164.418 104.69 164.199 104.338 163.863 103.492C163.205 103.399 162.118 103.532 161.32 103.297C161.257 103.273 160.858 102.726 160.74 102.71C160.005 102.593 159.747 103.172 158.98 102.906C158.894 102.874 158.792 102.553 158.589 102.514C159.614 101.927 159.528 102.029 159.371 100.566L158.784 100.37C158.62 100.597 158.338 100.558 158.197 100.762C158.088 100.926 158.143 101.622 158.009 101.732C157.54 102.1 156.851 101.654 156.444 102.319C156.272 102.593 155.936 104.165 155.858 104.463C152.086 103.359 153.487 106.208 151.178 106.223C151.178 106.223 150.693 106.043 150.591 106.028V105.637C150.857 105.543 151.288 105.637 151.569 105.637C151.476 105.574 151.734 105.3 151.765 105.245C151.569 105.089 151.468 105.144 151.374 104.854C150.583 104.713 149.402 104.361 148.838 104.463C148.471 104.525 147.97 105.261 147.665 105.441C146.937 105.863 146.147 105.832 145.325 106.223C145.176 106.286 144.926 106.763 144.738 106.81C144.081 106.928 143.924 106.427 143.369 106.615C143.306 106.63 143.032 107.123 142.985 107.202C142.281 108.086 142.445 108.516 142.985 109.541C142.531 109.651 142.101 109.753 141.42 109.933C141.514 109.721 141.342 109.361 141.42 109.15C141.444 109.08 141.937 108.806 142.007 108.759C141.882 108.422 142.125 108.109 142.007 107.781C141.96 107.671 141.506 107.389 141.42 107.202C141.021 107.366 140.583 107.327 140.247 107.397C140.16 108.172 139.949 109.533 139.863 110.324C139.253 110.324 139.308 110.238 138.689 110.324C138.791 110.598 138.588 111.012 138.689 111.294C138.791 111.599 139.746 111.897 140.059 112.077C140.051 112.108 139.98 113.164 139.863 112.859C139.738 113.055 139.941 113.219 139.863 113.438C139.816 113.548 139.378 113.845 139.276 114.025H138.885C138.595 113.407 138.462 112.945 138.102 112.468C137.226 111.302 137.383 111.99 135.958 111.49C135.896 111.466 135.622 110.926 135.567 110.903C135.231 110.785 134.918 111.02 134.589 110.903C134.487 111.114 134.049 111.341 134.01 111.49C133.822 112.053 134.049 112.624 133.814 113.055C133.423 113.728 132.492 113.462 131.858 113.829C131.099 114.268 130.7 115.981 130.497 116.952C128.939 116.224 129.894 116.224 128.352 116.952C128.415 117.288 128.251 117.398 128.157 117.734C128.963 118.313 128.986 118.368 129.91 118.517C129.839 118.54 129.87 119.229 129.714 119.291C129.487 119.393 128.994 119.291 128.736 119.291C128.626 119.518 128.196 119.87 128.157 120.074C127.969 120.864 128.501 121.67 128.548 122.218C128.572 122.609 128.329 122.797 128.352 123H127.961C127.554 122.86 127.194 121.748 126.787 121.639C126.161 121.451 126.099 121.85 125.621 121.834C125.121 123.517 124.988 123.384 126.201 124.37C125.809 124.722 126.287 126.913 126.396 127.688C126.107 127.398 125.723 127.187 125.426 126.905C125.825 126.905 124.354 126.741 124.839 126.905C124.612 127.093 124.276 126.905 124.056 127.101V127.492C123.446 129.245 124.604 129.456 125.23 131.005C125.16 131.06 125.262 131.498 125.23 131.585C125.128 131.827 124.189 132.101 124.056 132.367C123.963 132.547 124.088 132.946 124.056 133.15C124.017 133.329 123.485 134.065 123.47 134.128C123.376 134.495 123.556 134.918 123.47 135.294C123.822 135.599 124.573 136.084 124.839 136.467C125.05 136.78 124.972 137.187 125.23 137.438C125.504 137.712 125.966 137.704 126.201 138.025C126.78 138.815 127.28 140.842 127.57 141.929C127.859 141.992 128.259 141.945 128.548 142.125C128.462 142.195 128.407 142.626 128.352 142.712C128.165 142.962 127.515 143.04 127.374 143.291C127.022 143.893 127.445 145.419 127.374 146.413C127.734 146.562 127.468 146.429 127.57 146.804C128.352 146.828 128.783 146.937 129.714 146.804C129.628 147.016 129.769 147.36 129.714 147.587C129.542 148.205 128.407 148.651 129.127 149.731C129.237 149.887 129.855 149.942 129.91 150.122C130.184 151.053 129.252 151.57 130.105 152.071C130.34 152.211 131.185 152.407 131.467 152.462C131.389 153.158 131.068 154.082 131.467 154.809C131.537 154.927 132.022 155.068 132.054 155.193C132.179 155.654 131.874 156.32 132.054 156.758C132.101 156.867 132.343 156.852 132.445 156.953C132.969 157.415 133.478 157.345 134.01 157.736C134.198 157.877 134.065 158.088 134.206 158.315C134.965 159.551 136.005 158.863 136.937 158.315C136.827 159.677 136.772 160.185 136.545 161.437C136.686 161.476 137.711 161.727 137.516 161.633C138.056 161.281 138.682 161.406 138.885 160.655C138.932 160.451 138.783 160.052 138.885 159.88C138.987 159.692 139.589 159.802 139.667 159.684C139.738 159.841 139.621 160.107 139.667 160.271C139.699 160.389 140.231 160.796 140.247 160.858C140.317 161.163 139.988 161.977 140.059 162.024C139.934 162.063 139.691 162.353 139.667 162.415C139.699 162.447 139.667 162.947 139.667 163.002C140.63 163.425 140.888 163.55 142.398 163.393C142.398 163.503 142.32 164.317 142.398 164.364C142.242 164.599 141.843 164.755 141.616 164.951C141.679 165.131 141.616 165.538 141.616 165.733C141.898 165.843 141.874 166.054 142.007 166.32C143.071 166.117 143.142 166.132 143.76 165.733C143.948 165.608 144.613 165.326 144.738 165.146C145.082 164.645 144.816 164.074 145.325 163.777C145.568 163.636 146.014 163.855 146.303 163.777L146.687 163.393C147.704 163.151 147.336 163.472 148.056 163.589C147.954 163.902 148.056 164.419 148.056 164.755C147.516 164.951 146.945 165.154 146.499 165.342C146.53 165.663 146.687 166.703 146.687 166.703C146.992 166.75 147.305 167.009 147.86 166.899C148.126 166.844 148.572 166.281 148.838 166.124C150.051 165.35 150.748 165.819 152.156 165.342C152.235 165.311 152.328 164.99 152.54 164.951C152.454 164.52 152.72 163.973 152.54 163.589H152.352C151.992 163.589 151.632 163.143 151.374 163.002C151.374 162.642 151.452 162.181 151.374 161.828C151.546 161.68 151.656 161.242 151.961 161.242H152.156C152.516 161.594 152.986 162.462 153.518 162.611C153.737 162.666 154.081 162.525 154.3 162.611C154.066 163.323 154.144 163.597 153.909 164.364C154.613 164.669 155.779 165.326 156.836 164.755C157.783 164.239 157.117 163.48 157.031 163.002C156.937 162.494 157.25 162.274 157.227 162.024C158.526 161.946 159.629 161.742 160.936 161.242C160.991 161.21 161.069 160.866 161.124 160.858H161.515C161.805 160.381 161.492 159.731 161.711 159.097C161.852 158.675 162.509 158.456 162.689 158.119C162.892 157.728 162.712 157.525 162.885 157.149C163.722 157.18 165.514 157.259 166.398 156.758C166.789 156.523 167.001 155.85 167.368 155.584C167.54 155.451 167.752 155.654 167.955 155.584C169.223 155.091 168.362 153.823 167.955 153.244C168.636 153.064 169.896 152.869 170.107 152.266C170.209 151.953 169.951 151.374 170.107 151.1H170.303C171.077 150.701 171.633 149.919 172.251 149.34C172.447 149.434 172.807 149.261 173.026 149.34C173.503 149.504 173.613 150.513 174.786 150.122C174.927 150.075 175.154 149.637 175.373 149.535C175.186 149.238 175.358 148.815 175.178 148.557C175.084 148.44 174.098 148.017 174.004 147.782C173.918 147.571 174.129 147.383 174.004 147.196C175.843 146.71 176.187 146.796 175.952 144.66C176.618 144.245 177.251 144.136 177.909 143.682C178.112 143.541 178.065 143.252 178.3 143.095C178.159 142.187 177.924 140.967 178.691 140.56C180.115 139.801 180.561 141.014 181.227 141.147C182.04 141.303 182.142 140.842 182.588 140.755C182.541 140.286 182.831 140.442 182.784 139.981C182.768 139.793 182.353 139.355 182.392 139.003C182.4 138.909 182.964 138.455 182.979 138.416C183.065 138.181 182.87 138.04 182.979 137.829C182.666 137.688 182.142 137.43 181.806 137.242C182.377 136.013 182.306 135.591 181.806 134.315C182.447 134.668 183.065 135.004 183.762 135.294C183.715 135.301 184.74 135.309 184.928 135.294C185.076 134.957 185.671 133.11 185.906 132.954C186.407 132.594 187.134 132.883 187.659 132.563C188.073 132.304 187.831 131.459 187.659 131.585C187.745 131.271 187.557 130.912 187.659 130.614C187.69 130.528 188.011 130.426 188.05 130.223C189.592 130.34 189.818 130.223 190.781 129.832C190.937 128.431 190.945 127.844 190.006 127.101C189.905 127.022 189.458 126.819 189.419 126.709C189.271 126.287 189.49 125.786 189.419 125.34C189.732 125.254 189.732 125.504 189.811 125.144C190.131 125.285 190.46 125.004 190.781 125.144C191.031 125.254 190.945 125.974 191.172 126.123C192.322 126.905 193.778 126.365 194.099 125.34C194.334 124.589 193.997 124.605 193.903 123.979H193.52L193.708 122.414C193.019 122.46 192.909 122.445 192.542 122.414C192.416 122.077 192.659 121.772 192.542 121.443C192.495 121.31 192.033 121.169 191.955 121.052C191.751 120.715 191.931 120.449 191.759 120.074C191.978 119.956 192.111 119.542 192.346 119.487C192.471 119.456 192.8 119.573 192.933 119.487C193.293 119.229 193.496 118.266 193.903 118.125C194.341 117.961 195.186 118.141 195.664 118.125C195.969 117.069 196.321 116.224 196.642 115.394C196.493 115.293 196.431 114.714 196.251 114.612C195.867 114.393 195.366 114.408 195.077 114.221C193.934 113.493 196.36 112.922 196.83 112.468C197.018 112.28 196.83 111.865 197.033 111.685C196.814 111.638 194.373 111.145 194.294 111.098C194.193 111.036 193.629 109.573 193.52 109.346C194.49 109.025 194.615 108.821 195.273 108.367C194.983 108.109 195.006 107.632 194.686 107.397C194.412 107.186 194.24 107.295 193.903 107.202C193.911 107.162 193.762 106.482 193.708 106.223C194.318 105.934 194.756 105.738 195.273 105.441C195.171 105.159 195.366 104.744 195.273 104.463C195.226 104.338 194.764 104.189 194.686 104.079C194.427 103.657 194.263 102.906 194.099 102.514C193.997 102.835 193.903 101.927 193.903 101.927C194.74 101.442 194.13 100.3 193.128 100.37L192.737 100.762C192.362 100.941 192.088 101.004 191.759 101.153C191.751 101.184 191.736 102.42 191.759 102.319C191.876 102.561 192.252 102.718 192.346 102.906C192.542 103.32 192.416 103.712 192.542 104.079C192.111 103.696 191.767 103.492 191.368 103.101C191.031 103.219 190.726 102.976 190.39 103.101C190.147 103.179 189.85 103.993 189.615 104.079C189.279 104.189 188.965 103.954 188.637 104.079L188.441 103.688C188.347 103.985 188.246 102.945 188.246 102.906C188.293 102.866 188.817 102.561 188.832 102.514C188.973 102.021 188.598 101.771 188.637 101.536H188.246C187.987 101.622 187.737 102.53 187.471 102.71C187.338 102.796 187.017 102.671 186.884 102.71C186.751 102.741 186.242 103.25 186.102 103.297C184.928 103.665 183.864 103.688 182.392 103.688C182.048 104.408 182.072 104.385 181.806 105.441C181.782 105.441 181.227 105.433 181.227 105.441C181.18 104.971 181.031 104.048 181.031 103.297C181.469 103.14 181.633 103.203 182.197 103.101C182.134 102.225 182.134 101.176 181.806 100.175C182.729 100.347 182.823 100.464 183.762 100.175L183.957 99.7834C184.294 99.6504 184.959 99.7834 185.319 99.7834C185.288 99.6034 185.593 99.3999 185.515 99.0009C185.366 98.1871 184.239 97.4437 183.762 96.8568C183.551 97.1463 183.77 97.342 183.566 97.6393C183.41 97.8506 183.191 97.6706 182.979 97.8349C182.752 97.9993 182.58 98.5705 182.392 98.8052C182.361 98.7505 181.86 98.6644 181.806 98.6096C181.641 98.4453 181.688 98.0853 181.618 97.8349C181.406 97.788 181.305 97.4672 181.227 97.4437C180.499 97.1933 180.1 97.7019 179.661 97.8349L179.466 97.6393C179.536 96.4655 179.403 96.3169 179.27 95.4874C179.122 95.4874 178.621 95.5735 178.496 95.4874Z" fill="#F56600"/>
</svg>
