<svg width="200" height="200" viewBox="0 0 200 200" fill="none" xmlns="http://www.w3.org/2000/svg">
<path d="M109.814 31.0019L128.725 62.2164V134.4L109.814 165.709H149.429C164.649 165.673 176.98 153.466 176.98 137.485V59.8135C176.98 43.8337 164.651 31 149.429 31H109.814V31.0019ZM25.5781 31.0046L44.5084 62.2163V134.4L25.5781 165.69H105.648L86.7098 134.4V62.2163L105.648 31.0046H25.5781Z" fill="#013088"/>
<path fill-rule="evenodd" clip-rule="evenodd" d="M25.5783 31.0046L44.5086 62.2163V134.4L25.5783 165.69H105.648L86.71 134.4V62.2163L105.648 31.0046H25.5783ZM103.814 25.0046H14.9219L38.5086 63.8936V132.726L14.9358 171.69H99.1917L99.1805 171.709L149.43 171.709L149.443 171.709C168.035 171.666 182.98 156.71 182.98 137.485V59.8135C182.98 40.7678 168.207 25 149.43 25H103.814V25.0046ZM109.814 31V31.0019L128.725 62.2164V134.4L109.814 165.709H149.43C164.649 165.673 176.98 153.466 176.98 137.485V59.8135C176.98 43.8337 164.651 31 149.43 31H109.814ZM107.734 157.549L122.725 132.729V63.8922L107.73 39.1403L92.71 63.8942V132.726L107.734 157.549Z" fill="white"/>
</svg>
