<svg width="200" height="200" viewBox="0 0 200 200" fill="none" xmlns="http://www.w3.org/2000/svg">
<path d="M68.5569 142.871C67.7509 141.822 67.057 140.703 66.4757 139.513C65.7449 141.248 65.1521 143.027 64.6949 144.852C63.3016 142.771 63.2004 137.65 62.8986 135.4C62.8986 135.4 60.682 139.044 60.0437 140.152C59.5288 137.098 59.3886 134.025 59.6247 130.935C58.3568 131.521 57.2371 132.316 56.2662 133.319C56.11 130.503 55.3148 127.877 53.8819 125.446C53.3335 125.666 52.7743 125.851 52.203 125.999C53.6312 128.274 54.4089 130.753 54.537 133.437L54.773 137.197C54.773 137.197 57.7272 134.695 57.7781 134.63C57.7781 136.308 58.332 140.354 58.332 140.354C58.332 140.354 59.2894 145.14 59.2894 145.173L61.7749 141.177C61.9519 142.838 62.444 144.4 63.252 145.861L65.3177 149.219C65.7717 147.406 66.3315 145.627 66.9973 143.879C71.4312 149.079 76.4686 153.607 82.1101 157.463C86.2912 160.349 90.4214 162.917 94.6032 165.235C95.9965 165.353 97.424 165.42 98.8514 165.436C93.3803 162.575 88.0968 159.401 82.9998 155.916C77.6011 152.218 72.7863 147.869 68.5589 142.872L68.5569 142.871ZM138.091 98.5848C138.948 99.256 140.374 97.9297 140.526 97.4094C140.875 97.4966 141.224 97.4966 141.572 97.4074C141.921 97.3183 142.227 97.15 142.49 96.9046C142.658 96.6109 142.75 96.2951 142.768 95.9592C142.785 95.6233 142.726 95.3001 142.591 94.991L142.406 94.5371C142.171 94.2857 142.07 93.8331 141.583 94.0168C141.096 94.2025 140.088 94.4539 139.703 95.3102C138.023 95.3102 137.553 96.4352 136.898 97.2063C135.824 97.0729 135.32 98.1979 134.699 98.8865C135.001 99.1882 135.907 100.917 138.09 98.5848H138.091ZM140.929 111.797C141.265 112.266 141.97 112.249 142.491 112.35C143.012 112.452 144.019 112.668 144.288 111.88C144.187 111.78 144.12 111.528 143.985 111.461C143.107 111.214 142.216 111.018 141.315 110.873C141.14 110.9 140.978 110.963 140.829 111.059C140.825 111.013 140.825 110.968 140.829 110.924L140.694 110.823C139.974 110.294 139.168 110.042 138.275 110.068C138.165 110.091 138.064 110.137 137.973 110.203C137.722 109.464 137.116 109.246 136.177 109.48C136.008 109.502 135.841 109.502 135.673 109.48C135.746 109.606 135.829 109.724 135.925 109.834C136.612 110.401 137.379 110.826 138.225 111.11C138.63 111.353 139.061 111.537 139.517 111.663C139.903 111.731 140.491 112.017 140.928 111.799L140.929 111.797ZM132.886 66.9553L133.591 66.4511L133.356 66.6864L132.885 66.9553H132.886ZM139.149 67.3744C138.93 67.1886 138.695 67.021 138.46 66.8547L137.755 66.3499C138.04 66.551 138.292 66.7521 138.578 66.9372L139.149 67.3744ZM137.201 65.9985L136.814 65.7451L136.529 65.5614L135.907 65.1745L135.521 65.0062L135.118 64.7722L135.79 65.1745L137.2 65.9978L137.201 65.9985ZM131.021 106.156C130.534 102.992 130.388 99.8138 130.584 96.6189C131.076 92.2192 130.943 87.8376 130.183 83.4747C129.731 81.2534 128.852 79.2165 127.546 77.3626C126.018 74.5425 123.113 72.2267 120.947 69.7251C120.947 69.7251 121.233 69.4562 121.368 69.6399L122.895 70.8998C124.224 71.6715 125.383 72.6437 126.372 73.8204L128.05 75.8345C129.003 76.9536 129.887 78.1236 130.703 79.3432C130.656 79.8461 130.752 80.3214 130.989 80.766C131.227 81.2125 131.568 81.5545 132.012 81.7938C133.422 82.5495 135.136 83.4741 136.698 82.6849C138.377 81.1911 140.056 79.8146 142.172 80.3349C142.423 80.3349 142.44 80.8042 142.323 81.0228C141.332 82.4321 139.333 81.6785 138.159 82.701C134.8 85.0014 134.8 84.7674 133.843 84.632C133.508 84.5489 132.164 83.6075 131.895 84.3477C132.769 88.5651 132.769 92.7851 131.895 97.0045C131.123 101.318 132.164 107.431 133.154 112.265C133.182 112.973 133.271 113.673 133.422 114.365C132.154 111.765 131.354 109.028 131.021 106.155L131.021 106.156ZM108.84 102.261C109.104 100.704 109.518 99.1862 110.083 97.7112C108.405 99.793 107.11 101.069 106.137 101.069C106.504 99.2271 106.996 97.4195 107.614 95.6467C105.734 97.862 103.853 99.256 101.838 99.0877C102.343 96.6035 103.061 94.1837 103.99 91.8236C104.919 89.4649 106.047 87.2053 107.371 85.0443C108.694 82.8834 110.197 80.8518 111.877 78.9536C113.556 77.0555 115.388 75.3156 117.372 73.7366H119.235L120.444 74.9971L121.737 76.3052C122.419 77.0146 123.047 77.7709 123.618 78.5728C123.775 78.7947 123.921 79.0234 124.055 79.2607C124.133 79.4156 124.229 79.5625 124.34 79.6979C125.035 80.7009 125.594 81.7757 126.018 82.9202C115.575 91.8686 115.76 105.148 108.841 102.262L108.84 102.261ZM109.075 71.7218V71.5884C110.603 70.6973 112.283 70.1777 113.793 69.2376C111.754 69.7713 109.75 70.415 107.782 71.1693C107.347 71.4549 106.889 71.697 106.404 71.8901C106.203 71.7721 106.539 70.7321 107.16 69.8934C107.53 69.3892 107.949 69.1377 107.16 69.2209C103.97 69.54 106.154 68.0629 106.154 68.0629C106.154 68.0629 107.379 64.7051 105.448 65.2583C104.071 65.6619 100.243 68.718 98.0428 68.834C99.2014 66.3499 105.733 60.9786 108.118 59.7858C107.127 60.2404 101.788 62.6407 101.753 60.6091C102.408 60.29 110.77 55.2198 112.081 55.0019C112.708 54.8899 113.341 54.8457 113.978 54.8664C114.855 55.0562 115.71 55.315 116.546 55.6395C116.21 55.2024 114.867 54.3133 115.052 54.1276C115.589 53.3223 120.391 54.8329 122.91 56.7968C123.279 57.0831 123.262 57.6858 123.279 58.1572C123.297 58.6272 123.145 59.3983 122.776 59.6343C122.561 59.7154 122.392 59.8508 122.267 60.0439C122.144 60.235 122.089 60.4456 122.104 60.6742C122.389 60.6742 123.33 61.1113 123.548 60.9779C122.507 61.631 120.844 62.0527 120.492 63.4788C120.355 62.9471 120.125 62.4604 119.803 62.0172C118.928 61.1496 117.999 60.3436 117.016 59.6007C114.305 60.5267 111.921 61.9877 109.863 63.981C108.866 65.1504 108.217 66.488 107.916 67.9939C108.638 69.119 108.907 69.4703 108.89 69.6735C110.871 67.8102 113.44 66.3163 112.718 67.4065V67.4917C114.444 66.5215 116.274 65.8275 118.208 65.4098C118.812 65.0907 120.962 64.5536 121.953 65.7444C121.953 65.7444 120.844 66.1313 120.711 66.2137C120.291 66.3317 119.635 65.9972 119.484 66.5349C119.415 66.9218 119.51 67.2617 119.77 67.5574C120.056 67.8263 120.542 67.6928 120.794 68.0113C121.046 68.3305 120.912 68.2627 120.979 68.3633C121.011 68.4331 121.062 68.4827 121.13 68.5142C121.449 68.7328 121.852 68.7328 122.155 68.9513C122.155 69.0693 121.768 68.9513 121.616 68.9513C119.65 69.0593 117.733 69.4307 115.868 70.0664C114.004 70.702 112.259 71.5803 110.635 72.6953C107.658 74.6552 105.363 77.2245 103.751 80.3999C102.782 81.6021 101.887 82.8545 101.063 84.1613C101.84 81.9728 102.873 79.9165 104.164 77.9855C105.454 76.0558 106.962 74.3146 108.686 72.7624C109.139 72.3755 109.677 71.9565 109.072 71.7204L109.075 71.7218ZM136.681 74.4091C136.983 74.1577 137.335 73.9719 137.638 73.7359C137.97 73.4128 138.367 73.2666 138.83 73.3008C139.2 73.3008 139.183 74.039 139.351 74.2904C139.61 74.5935 139.901 74.8623 140.224 75.0963C140.61 75.4658 141.903 76.0357 141.618 76.6733C141.592 76.7699 141.538 76.8436 141.454 76.8953C141.368 76.9476 141.278 76.963 141.181 76.9415C140.791 76.8121 140.422 76.6405 140.073 76.4219C139.423 76.1202 138.769 75.8345 138.108 75.5657C137.958 75.5657 136.127 74.8771 136.127 75.0461C136.144 74.7443 136.48 74.5412 136.682 74.3903V74.4078L136.681 74.4091ZM91.4942 106.978C90.941 107.318 90.3396 107.49 89.6892 107.49C89.0389 107.49 88.4368 107.318 87.8843 106.978C86.5748 106.206 85.4994 104.879 84.0049 104.612L83.5684 104.343C84.7759 104.446 85.8956 104.815 86.9268 105.451C87.649 105.752 88.3034 106.257 89.059 106.491C89.7167 106.649 90.3215 106.531 90.8727 106.139C91.0872 105.966 91.2441 105.749 91.3433 105.491C91.4426 105.233 91.4701 104.968 91.4272 104.695C91.3138 104.502 91.1556 104.36 90.9525 104.268C90.7493 104.175 90.5381 104.15 90.3182 104.191C89.7483 104.545 89.5458 105.132 89.1428 105.585C89.2032 104.964 89.3788 104.378 89.6691 103.826C89.9601 103.273 90.3436 102.797 90.8224 102.395C91.3386 102.692 91.7383 103.101 92.0219 103.624C92.3068 104.146 92.4329 104.705 92.4 105.3C92.402 105.639 92.3223 105.955 92.1607 106.253C92.0004 106.553 91.7771 106.793 91.4935 106.979L91.4942 106.978ZM149.828 128.904C150.282 128.202 150.461 127.435 150.366 126.604C150.373 126.536 150.373 126.47 150.366 126.403C149.807 125.112 149.147 123.875 148.384 122.691L148.081 122.256C147.853 121.893 147.674 121.508 147.549 121.098C147.422 120.689 147.353 120.271 147.34 119.841C147.327 119.413 147.37 118.991 147.47 118.573C147.571 118.158 147.725 117.761 147.93 117.387C148.241 117 148.448 116.563 148.552 116.078C148.166 114.784 147.225 114.516 146.033 114.162C142.731 114.006 139.574 113.246 136.563 111.879C136.859 112.977 137.234 114.044 137.688 115.087C138.007 115.81 138.361 116.547 138.729 117.286C140.308 120.458 142.255 123.715 143.414 126.284L141.618 124.152C140.567 122.913 139.604 121.611 138.729 120.239C137.316 117.995 136.196 115.61 135.371 113.09C135.153 112.452 134.934 111.797 134.749 111.124C134.616 110.745 134.498 110.341 134.397 109.915C133.624 105.607 133.388 101.271 133.691 96.9046L133.826 96.686C137.19 93.8773 141.007 91.9812 145.278 90.9956C145.397 90.2943 145.609 89.6231 145.916 88.9814C146.003 88.7401 146.003 88.5 145.916 88.2587C145.698 87.6036 144.841 87.1336 144.237 86.5811C143.816 86.2351 143.477 85.8234 143.22 85.344C142.965 84.8626 142.811 84.3524 142.759 83.8113C143.24 83.0074 143.767 82.2357 144.338 81.4941C145.596 79.4297 147.443 79.6986 148.25 77.431C148.317 77.2131 148.35 76.9885 148.35 76.7598C148.277 75.9713 147.975 75.2834 147.443 74.6954C144.908 72.4781 142.994 70.6322 141.03 68.9701C139.522 69.6587 138.198 70.6041 137.057 71.8063C135.915 73.0084 135.04 74.3789 134.431 75.9217C134.431 75.9217 132.231 76.0223 131.593 76.9616C131.501 77.087 131.422 77.2225 131.357 77.3633C130.317 75.921 129.426 74.8965 129.393 74.8623L129.141 74.5606L127.697 72.8831L127.244 72.3956C126.549 71.6594 125.794 70.9923 124.977 70.3969C126.387 68.5296 128.067 66.9446 130.014 65.6452C130.413 65.5446 130.787 65.3877 131.139 65.1758C131.356 65.0015 131.597 64.8721 131.861 64.789C132.298 64.6207 133.037 64.3364 133.658 64.0675C131.978 63.1107 128.62 62.5381 127.613 62.0359C127.445 61.9488 127.322 61.8214 127.244 61.6491C126.84 60.8103 127.798 59.2983 127.798 58.4274C127.999 57.5537 127.894 56.719 127.479 55.9245C127.31 55.5765 127.108 55.2459 126.874 54.9348C122.091 49.7949 116.495 45.7934 110.083 42.9311L109.797 42.6455C111.282 40.7762 112.233 38.6662 112.651 36.3161C112.195 37.3259 111.561 38.2102 110.755 38.9685C110.963 37.287 110.924 35.6114 110.638 33.9419C110.352 32.2724 109.831 30.68 109.075 29.164C109.489 31.7099 109.489 34.2564 109.075 36.8022C108.921 37.5773 108.665 38.3162 108.303 39.0182C108.49 36.1002 107.998 33.3016 106.825 30.6237C106.338 29.4993 105.851 28.6431 105.515 28.0054C104.252 26.1006 102.612 24.6128 100.595 23.5393C101.537 24.4257 102.209 25.4837 102.61 26.7127C103.332 28.5592 103.735 30.5747 104.104 31.5986C104.146 31.7253 104.196 31.8487 104.256 31.968C104.961 32.6392 105.934 32.841 106.506 33.8822C106.974 34.8477 107.182 35.8662 107.127 36.9376C106.935 36.8022 106.8 36.6232 106.724 36.4006V36.3168C106.663 36.1626 106.578 36.0231 106.472 35.8971C106.472 35.6114 106.103 35.3935 105.985 35.1246C105.974 35.0851 105.974 35.0462 105.985 35.0066C104.561 33.3137 102.96 31.8091 101.183 30.4902C101.888 31.3136 102.51 32.4548 103.4 33.3445C104.518 35.0241 105.413 36.8149 106.086 38.7171C106.388 39.5063 106.673 40.3115 107.009 41.1677C106.976 41.2516 106.976 41.3367 107.009 41.4198V41.5043C107.11 41.6384 107.177 41.7732 107.009 41.9408C106.841 42.1091 106.841 41.8402 106.724 41.9408C105.738 39.808 104.435 37.8924 102.813 36.1934C101.19 34.4937 99.3382 33.1025 97.253 32.019C100.948 34.5031 102.173 37.9447 104.189 41.7055L104.087 41.806L103.97 41.6719V41.857H103.147C101.261 41.9395 99.3919 42.1641 97.5386 42.5282H97.2034C96.0991 42.6053 95.0203 42.8071 93.9629 43.1329L93.6096 43.2664C93.456 43.3609 93.2945 43.4333 93.1228 43.4856L92.4342 43.7706C91.9629 43.7706 90.754 44.4927 90.4697 44.5765C89.6302 44.7743 88.8578 45.1216 88.1518 45.6171C87.5524 45.9644 86.9932 46.3674 86.4723 46.826L86.2543 46.9943C85.3472 47.7492 85.6831 47.7331 84.6754 48.3366H84.5252L80.8475 50.5197L79.4536 51.6273C79.2558 51.8198 79.0439 51.9934 78.816 52.1476L78.3621 52.4668C77.9256 52.802 77.5058 53.1547 77.0854 53.5074C76.533 54.0324 76.018 54.5922 75.5407 55.1856C75.3898 55.4216 75.188 55.6053 75.0539 55.8232C74.8085 56.1538 74.6006 56.5058 74.4337 56.8826V57.0992C74.3586 57.5497 74.2526 57.9922 74.1145 58.4274C74.0582 58.5957 74.0186 58.7693 73.9965 58.947C73.904 59.6544 73.8477 60.3658 73.8289 61.0792V61.4989C73.8463 61.7 73.8463 61.9005 73.8289 62.1037C73.8892 63.8744 74.315 65.5526 75.1048 67.1397C75.3234 67.5762 75.5581 68.0133 75.827 68.4652C75.945 68.6684 76.0958 68.8695 76.2306 69.0707C76.2219 69.1149 76.2219 69.1599 76.2306 69.2041L76.6845 69.8263L76.9527 70.1622L77.1706 70.4465C77.5018 70.8582 77.8538 71.2511 78.2286 71.6219C78.1757 71.6641 78.1307 71.7164 78.0945 71.7727L78.3131 72.6464C77.5642 74.2428 77.2397 75.9224 77.3382 77.6817C77.6735 76.3636 78.1944 75.1205 78.8998 73.9545C78.179 78.188 77.1552 82.3456 75.827 86.4282C76.885 86.2271 78.6658 82.2665 79.1023 81.5263C79.5388 80.7881 76.5833 89.4843 75.9778 91.835C79.7399 88.6127 79.8579 80.9892 80.1932 78.2537C80.4285 78.959 80.4459 86.6468 80.865 87.2844C81.2847 85.3883 82.678 79.2426 81.2847 74.3233C81.6367 74.4761 83.6019 76.1034 83.6019 76.1034L83.8205 76.3046L83.9553 76.44L84.09 76.5909C85.6402 78.4602 86.8444 80.53 87.6992 82.8016C88.6098 83.8321 89.3942 84.9511 90.05 86.1614C90.3711 86.6327 90.7171 87.0873 91.0912 87.5204C91.1643 87.5996 91.2213 87.6887 91.2589 87.7893L91.3594 88.0407L91.696 88.5101C91.9334 88.8138 92.1238 89.1437 92.2659 89.5017C92.3665 89.7029 92.1151 89.8886 92.2659 90.1394C91.5908 92.5786 91.1268 95.0594 90.872 97.5757L90.5528 97.2566C89.7234 96.5418 88.772 96.0779 87.6986 95.8646C87.5263 95.8009 87.3861 95.695 87.2795 95.5455C86.9778 95.1747 86.9778 94.6544 86.6747 94.2675C82.7625 102.075 81.0494 97.0393 77.7586 106.02C79.4375 107.497 79.8747 106.944 83.4008 107.547C84.3643 107.73 85.2372 108.115 86.0197 108.706C86.8766 109.295 87.6986 110.015 88.4207 110.603C88.8679 110.773 89.3279 110.901 89.7979 110.989C90.9243 111.095 92.0286 110.983 93.1114 110.653C94.1929 110.321 95.1711 109.795 96.0434 109.076C96.134 110.427 95.8101 111.667 95.0699 112.802C95.676 114.865 96.494 116.84 97.5219 118.729C98.2131 120.25 99.1532 121.6 100.343 122.775C101.566 124 102.921 125.057 104.406 125.947C107.445 127.472 110.663 128.261 114.062 128.314C115.422 128.533 117.118 128.432 118.579 128.651L126.974 129.558C132.314 130.43 137.604 131.604 143.38 131.235C143.626 131.254 143.872 131.254 144.118 131.235H144.823C142.903 131.904 140.938 132.395 138.929 132.714C137.67 132.998 136.478 133.267 134.883 133.503C133.539 133.686 121.936 135.768 121.45 136.036C120.784 136.45 120.224 136.976 119.77 137.616C119.502 137.95 119.266 138.32 119.03 138.674C118.528 139.694 117.811 140.535 116.881 141.192C116.045 141.519 115.181 141.627 114.29 141.515C113.398 141.401 112.589 141.08 111.861 140.555C111.58 140.363 111.316 140.15 111.072 139.914L110.719 139.58C106.824 135.954 96.2956 124.067 94.146 120.406C93.6424 119.517 93.0383 118.729 92.8365 118.325C92.6515 118.024 92.4222 117.761 92.1479 117.537L91.9971 117.419C91.7255 117.188 91.4171 117.031 91.0711 116.947C90.7245 116.864 90.3772 116.866 90.0319 116.949C89.008 116.975 88.0231 116.789 87.0784 116.392C86.1337 115.997 85.3103 115.428 84.6076 114.683C84.208 114.241 83.8996 113.744 83.6844 113.189C83.6844 113.105 83.6844 113.054 83.5335 112.986C82.8315 112.682 82.098 112.52 81.3337 112.501C81.1707 112.957 80.9635 113.393 80.7121 113.809C80.1409 114.867 79.0332 117.167 78.4278 118.192C77.8237 119.216 76.7489 120.173 76.1106 121.298C75.782 121.721 75.5634 122.197 75.4562 122.724C74.3049 122.63 73.1517 122.601 71.9971 122.639C71.3266 122.639 70.6535 122.689 69.9823 122.792H69.277L68.6226 119.737H67.6148C66.1659 119.79 64.7666 120.081 63.4169 120.61C62.8799 120.088 62.1578 119.417 61.2673 118.628C60.9831 119.16 60.6646 119.669 60.3099 120.156C61.2841 120.962 62.09 121.632 62.7277 122.187L63.0636 122.488C64.3952 121.912 65.7824 121.566 67.228 121.448H68.2357L69.0255 124.52C69.9153 124.386 70.8211 124.269 71.7283 124.201C74.1621 124.12 76.5591 124.377 78.9192 124.974C81.2807 125.57 83.5127 126.482 85.6147 127.709C89.5934 129.923 93.3937 132.407 97.0163 135.165C97.5286 135.525 97.9979 135.934 98.4264 136.391C93.6652 138.139 88.7519 138.921 83.6837 138.742C90.703 141.057 100.996 138.976 100.996 138.976C104.808 141.175 106.033 142.199 109.812 144.516L114.379 147.27C112.7 147.117 110.466 149.198 105.983 150.846C108.308 151.126 110.635 151.17 112.969 150.979L115.874 150.46H116.31C116.221 149.079 116.474 147.762 117.065 146.514C117.25 146.16 117.451 145.841 117.653 145.507C116.991 145.965 116.432 146.525 115.973 147.184V145.926C116.124 145.675 116.275 145.439 116.409 145.253C117.035 144.326 117.756 143.481 118.576 142.719C119.482 141.963 120.389 141.142 121.33 140.437C127.946 135.399 136.09 134.023 144.032 132.226C146.292 131.689 148.223 130.582 149.825 128.902L149.828 128.904ZM125.631 176.013C123.079 175.257 120.595 174.468 118.193 173.644C112.25 175.079 106.221 175.802 100.108 175.809C97.7076 175.811 95.3126 175.699 92.9223 175.477C90.5321 175.254 88.1579 174.92 85.7984 174.476C83.4396 174.033 81.1057 173.48 78.7985 172.817C76.4914 172.157 74.2191 171.389 71.9837 170.515C69.7477 169.641 67.5572 168.667 65.4123 167.588C63.2681 166.511 61.1775 165.336 59.1419 164.062C57.1063 162.791 55.1344 161.426 53.2269 159.97C51.3187 158.514 49.4822 156.971 47.7182 155.344C47.5271 155.371 47.3373 155.371 47.1462 155.344C46.6749 155.341 46.2156 155.265 45.7697 155.111C44.4489 154.271 43.2011 153.338 42.0257 152.306C39.036 149.621 40.3468 151.248 38.3314 148.243C38.2529 148.218 38.1751 148.218 38.096 148.243C37.8774 148.243 37.626 148.243 37.3236 148.344C37.0286 148.349 36.7651 148.258 36.5345 148.076C35.3095 146.718 34.3064 145.212 33.5226 143.56C32.7388 141.908 32.2098 140.178 31.9329 138.371C31.7814 137.683 31.2611 137.599 30.6235 136.911C29.9181 135.399 28.4062 129.608 28.4062 129.608C26.3572 124.009 24.8519 118.268 23.8898 112.384V112.233C23.3849 109.315 23.0436 106.377 22.8659 103.418C22.5012 100.861 22.4563 98.2978 22.7312 95.7292C22.7406 95.0259 22.6896 94.3259 22.5803 93.6299C22.4777 89.0894 22.9658 84.6125 24.0406 80.2001C24.3088 79.0247 24.5106 75.9204 24.9485 74.1577C27.6022 67.6177 30.6362 61.2602 34.049 55.0843C35.1573 53.2553 38.3307 48.6048 38.3307 48.6048C40.5634 45.247 45.8864 39.2542 49.9335 37.2394C50.85 36.6487 51.6606 35.9366 52.368 35.1072C52.1675 34.9222 56.1971 31.7494 58.8496 29.4664C61.0454 27.8358 63.4471 26.6048 66.0533 25.7734C68.7875 24.9245 71.5855 24.5048 74.4491 24.5142C77.7968 23.2363 81.2612 22.5423 84.843 22.4323C86.2423 22.1514 87.6483 21.9094 89.061 21.7062C90.4737 21.5031 91.8911 21.3395 93.3132 21.2141C94.7353 21.09 96.1588 21.0035 97.5856 20.9579C99.0124 20.9117 100.438 20.905 101.866 20.9378C103.293 20.9707 104.718 21.0431 106.141 21.1544C107.564 21.2657 108.982 21.4172 110.398 21.607C111.812 21.7974 113.22 22.026 114.623 22.2942C116.025 22.5624 117.418 22.8682 118.803 23.2135C120.188 23.5581 121.562 23.9416 122.926 24.362C124.29 24.7831 125.641 25.2417 126.98 25.7372C128.317 26.2327 129.642 26.765 130.951 27.3343C132.26 27.9028 133.552 28.5076 134.828 29.1479C136.103 29.7883 137.36 30.4628 138.599 31.1728C139.837 31.8828 141.055 32.6257 142.252 33.4028C143.449 34.1799 144.624 34.9899 145.776 35.832C146.929 36.6741 148.057 37.5471 149.161 38.4509C150.265 39.3561 151.343 40.2901 152.396 41.2536C153.447 42.2177 154.473 43.21 155.471 44.2312C156.468 45.2523 157.437 46.2996 158.376 47.3738C159.316 48.4479 160.224 49.5475 161.103 50.6719C161.982 51.7956 162.828 52.9448 163.644 54.1148C164.459 55.2862 165.242 56.481 165.991 57.6945C166.74 58.9088 167.455 60.1432 168.136 61.3976C168.817 62.6521 169.463 63.9247 170.074 65.2134C170.684 66.5027 171.259 67.8095 171.796 69.1317C172.335 70.4519 172.836 71.7882 173.301 73.1365C173.766 74.4855 174.192 75.8486 174.582 77.2211C174.97 78.5936 175.322 79.9755 175.635 81.3694C175.947 82.7613 176.221 84.1606 176.457 85.57C176.692 86.9774 176.889 88.3901 177.046 89.8068C177.202 91.2256 177.321 92.6483 177.399 94.0731C177.477 95.4972 177.517 96.924 177.516 98.3508C177.544 102.551 177.229 106.727 176.567 110.875C175.905 115.023 174.908 119.088 173.576 123.072C172.244 127.056 170.593 130.905 168.626 134.615C166.658 138.327 164.4 141.851 161.85 145.191C160.825 146.532 159.768 147.825 158.643 149.101C157.854 149.992 156.964 150.881 156.208 151.755C155.453 152.627 154.831 153.164 154.109 153.852C153.387 154.54 152.665 155.228 151.91 155.883L150.314 157.344C149.76 157.814 149.223 158.266 148.635 158.703C147.443 159.659 146.234 160.567 144.976 161.458L142.927 162.866L142.389 163.22L141.096 164.042L140.828 164.211L139.77 164.866L137.553 166.543C135.488 167.65 135.538 167.803 133.573 168.743C135.924 168.843 140.743 166.023 143.127 165.385C144.366 166.777 145.816 167.896 147.476 168.743C145.635 168.729 143.955 169.243 142.438 170.287C144.763 170.81 147.114 170.993 149.491 170.842C152.479 173.542 155.619 176.055 158.911 178.379C153.343 179.134 147.755 179.312 142.148 178.914C136.542 178.515 131.037 177.547 125.63 176.013L125.631 176.013ZM160.675 175.895C160.675 175.895 146.839 164.865 146.101 164.142C147.97 162.835 149.782 161.45 151.535 159.988C153.286 158.525 154.974 156.992 156.595 155.386C158.216 153.779 159.766 152.107 161.245 150.369C162.723 148.632 164.126 146.834 165.451 144.976C166.778 143.118 168.021 141.207 169.185 139.245C170.347 137.281 171.425 135.27 172.416 133.215C173.407 131.161 174.31 129.066 175.123 126.934C175.936 124.801 176.657 122.638 177.286 120.445C177.913 118.253 178.448 116.036 178.888 113.797C179.327 111.557 179.67 109.303 179.918 107.036C180.166 104.765 180.317 102.491 180.369 100.21C180.422 97.9291 180.38 95.6501 180.238 93.3711C180.098 91.0941 179.86 88.8266 179.526 86.569C179.192 84.3115 178.762 82.0727 178.237 79.8521C177.713 77.6308 177.094 75.4369 176.382 73.2699C175.67 71.1016 174.867 68.9674 173.973 66.8681C173.078 64.7688 172.097 62.7105 171.028 60.6943C169.959 58.6802 168.805 56.7123 167.568 54.7947C166.331 52.8771 165.014 51.0158 163.618 49.2102C162.223 47.4039 160.752 45.6613 159.208 43.9811C157.664 42.3009 156.051 40.6897 154.369 39.1469C152.687 37.6034 150.943 36.1357 149.137 34.7418C147.329 33.3472 145.466 32.0324 143.548 30.7973C141.629 29.5616 139.661 28.4104 137.644 27.343C135.626 26.2756 133.568 25.296 131.467 24.4036C129.367 23.5118 127.232 22.7099 125.063 22.0006C122.894 21.2898 120.699 20.6737 118.477 20.1507C116.256 19.627 114.016 19.1993 111.758 18.8674C109.499 18.5348 107.232 18.2995 104.954 18.1607C102.676 18.0212 100.396 17.9803 98.1139 18.0353C95.8329 18.0903 93.5573 18.2432 91.2884 18.4926C89.0201 18.7413 86.7659 19.0866 84.5272 19.5285C80.863 19.6854 77.302 20.3793 73.847 21.609C70.9284 21.6459 68.0741 22.0931 65.2842 22.9526C62.7813 23.6781 60.4701 24.7985 58.3487 26.3104L57.2907 26.9823C57.1512 27.0681 57.0225 27.1687 56.9052 27.284C55.8807 28.1898 54.6047 29.2478 53.5467 30.1711C52.2802 31.1225 51.1155 32.1859 50.0541 33.3613L49.7336 33.5624C49.391 33.9687 48.9988 34.3214 48.5583 34.6204C43.6047 37.0878 37.862 44.0052 35.8472 46.9594C35.7292 47.1612 32.6235 51.6937 31.4823 53.557C31.4844 53.5965 31.4844 53.6354 31.4823 53.6757C27.9791 60.0238 24.8559 66.555 22.1123 73.2666C22.0748 73.3591 22.0459 73.4543 22.0285 73.5522C21.7455 74.8898 21.533 76.2388 21.3909 77.5979C21.3077 78.3864 21.1897 79.2775 21.122 79.6469V79.8306C21.122 79.9661 21.122 80.2175 20.9886 80.536C19.9245 84.9511 19.476 89.428 19.6436 93.9672C19.6436 94.3031 19.6436 94.6048 19.7267 94.8737C19.7542 95.0916 19.7542 95.3108 19.7267 95.5287C19.7354 95.6058 19.7354 95.685 19.7267 95.7627V97.744C19.5323 99.8661 19.6228 101.975 19.9956 104.075V104.19C20.1954 106.95 20.5367 109.693 21.0208 112.418V112.618C21.012 112.731 21.012 112.842 21.0208 112.955C22.0191 118.937 23.5525 124.78 25.621 130.481C26.2693 133.071 27.0578 135.619 27.9884 138.12C28.2131 138.597 28.5429 138.982 28.9794 139.278C29.9121 143.265 31.6982 146.825 34.3359 149.956C34.6149 150.271 34.9474 150.515 35.3303 150.687C35.7131 150.859 36.1154 150.946 36.5358 150.948H36.6531C37.6904 152.206 38.8087 153.387 40.0116 154.489H40.1122C41.3908 155.633 42.7572 156.664 44.2095 157.578C44.6701 157.874 45.1737 158.019 45.7201 158.015C45.9105 158.032 46.101 158.032 46.2914 158.015C48.6776 160.168 51.1826 162.172 53.8089 164.025C56.4345 165.876 59.162 167.566 61.9915 169.091C64.8209 170.616 67.7308 171.965 70.7225 173.141C73.7136 174.316 76.765 175.309 79.8753 176.117C82.9851 176.927 86.133 177.545 89.3185 177.977C92.504 178.408 95.7028 178.646 98.9165 178.692C102.13 178.738 105.335 178.591 108.532 178.253C111.727 177.915 114.892 177.385 118.025 176.666C120.308 177.439 122.542 178.161 124.741 178.816C132.267 180.985 139.947 182.042 147.779 181.991C151.686 182.023 155.571 181.749 159.433 181.167C159.717 181.117 159.989 181.028 160.247 180.898C160.505 180.767 160.739 180.603 160.949 180.404C161.158 180.202 161.334 179.978 161.476 179.725C161.618 179.474 161.721 179.207 161.785 178.925C161.847 178.643 161.867 178.357 161.845 178.069C161.823 177.781 161.761 177.501 161.656 177.232C161.551 176.962 161.41 176.714 161.231 176.486C161.052 176.258 160.845 176.063 160.607 175.897H160.674L160.675 175.895Z" fill="#FDFEFF"/>
<path d="M58.8317 114.351C58.0191 115.157 57.1581 115.907 56.2463 116.6L55.9949 116.802L53.0903 113.949C52.8717 114.199 52.3508 114.803 51.6789 115.475C50.9246 116.185 50.1294 116.844 49.2947 117.457L47.4643 115.626C48.0221 115.567 48.5464 115.4 49.0386 115.129C49.53 114.859 49.9518 114.503 50.3011 114.065C50.7966 113.589 51.2605 113.086 51.695 112.555L50.6035 111.463L47.1444 113.697C46.8669 113.88 46.5618 113.961 46.2306 113.943C45.8987 113.925 45.6037 113.808 45.3489 113.596L43.8711 112.018L42.1916 113.697L43.7364 115.257L43.9717 115.476C44.2278 115.758 44.547 115.899 44.9292 115.895L45.7854 115.745L42.8634 118.733C42.8634 118.733 42.8634 118.415 43.0142 117.927C43.0283 117.564 42.905 117.257 42.6455 117.004L42.4095 116.769L40.815 115.091L40.4282 115.494C40.1875 115.732 39.9863 116 39.8241 116.299L39.6558 116.617L39.3199 115.494L39.0517 115.226L37.9762 114.922L38.2451 114.789C38.5307 114.617 38.7942 114.414 39.0342 114.184L39.4379 113.782L37.6416 112.019C37.4432 111.865 37.2199 111.791 36.9698 111.801L36.298 111.919L36.5166 111.633C37.3158 110.547 38.1774 109.51 39.102 108.526C40.0427 107.605 41.6713 106.327 41.7048 106.312L43.4836 107.989C43.0069 108.061 42.5597 108.217 42.1413 108.459C41.6364 108.778 41.1717 109.147 40.748 109.568C40.2485 110.027 39.7791 110.514 39.3373 111.028L40.7306 112.404L46.372 106.849C46.592 106.679 46.7375 106.461 46.8092 106.194C47.532 106.082 48.2145 105.854 48.8582 105.506L49.3946 105.187L49.1096 105.707C48.7469 106.38 48.523 107.097 48.4378 107.857C48.1723 107.911 47.9423 108.034 47.7485 108.225L45.2966 110.659L46.3546 111.717H46.5055L49.8646 109.635C49.8646 109.635 50.9729 108.964 51.6434 109.635L56.2275 114.235C56.5306 113.966 56.9 113.63 57.4706 113.044L58.4616 111.985L53.8097 107.336C53.5777 107.155 53.3149 107.054 53.0206 107.033H52.3487L54.3475 105.036L60.1733 110.86C60.406 111.11 60.6916 111.216 61.0302 111.179H61.702L61.1824 111.852C60.4402 112.724 59.6564 113.558 58.831 114.353M48.6061 99.7619C49.4663 99.7619 50.3165 99.8531 51.1573 100.036C51.9974 100.218 52.8087 100.489 53.5918 100.846C54.3743 101.205 55.1091 101.642 55.7971 102.156C56.485 102.672 57.1112 103.256 57.6737 103.908C57.1313 103.427 56.55 103 55.9298 102.628C55.3103 102.255 54.6613 101.94 53.9847 101.682C53.3075 101.427 52.6136 101.234 51.9015 101.104C51.1895 100.973 50.4714 100.909 49.7479 100.909C49.0245 100.909 48.3064 100.973 47.5943 101.104C46.8816 101.234 46.1877 101.427 45.5111 101.682C44.8339 101.94 44.1856 102.255 43.5661 102.628C42.9465 103 42.3652 103.427 41.8221 103.908L40.6468 102.732C41.749 101.769 42.9847 101.032 44.3552 100.522C45.727 100.01 47.1438 99.7552 48.6054 99.7606L48.6061 99.7619ZM99.2834 154.373C118.577 163.256 131.742 165.588 135.939 164.312L132.395 162.517L131.909 162.23L131.556 162.03L131.421 161.929L130.952 161.643L130.448 161.307L130.061 161.038L129.876 160.906L129.575 160.67L129.374 160.535L129.004 160.249L128.584 159.948L128.417 159.813L127.711 159.293L126.452 158.354L126.284 158.236L125.797 157.883L125.597 157.73L124.907 157.227L124.202 156.723L123.967 156.572L123.395 156.186L123.161 156.019L122.337 155.482C120.659 154.358 119.618 153.619 117.938 152.408C115.876 152.811 113.794 153.02 111.691 153.031H100.105L98.9971 152.913C97.2787 152.567 95.5998 152.086 93.9604 151.469C98.0404 152.559 104.437 150.595 108.585 148.614L110.045 147.776C107.141 145.779 103.328 143.494 100.289 141.565C96.2555 142.485 92.1917 142.641 88.0997 142.034C83.9689 141.064 79.9775 139.686 76.1269 137.904C76.1269 137.904 82.4241 139.229 93.6742 136.796C90.1441 133.786 86.333 131.188 82.2383 129.006C76.4795 125.347 70.9547 126.371 64.9606 127.328L64.7755 126.924C65.1805 126.172 65.6988 125.509 66.3291 124.933C66.96 124.357 67.668 123.903 68.4532 123.567C67.4139 123.526 66.3948 123.648 65.3957 123.936C64.3967 124.222 63.4674 124.658 62.6092 125.246L61.7188 124.322C61.7188 124.322 60.9464 123.534 59.4693 122.19C59.8381 121.798 60.1794 121.384 60.4931 120.948C60.8351 120.235 61.11 119.496 61.3158 118.732C61.5666 118.27 61.7919 117.795 61.9897 117.307C62.1888 116.822 62.3604 116.325 62.5066 115.821C62.6514 115.314 62.7688 114.802 62.8573 114.284C62.9471 113.766 63.0081 113.245 63.0403 112.72C63.0738 112.197 63.0772 111.67 63.0537 111.145C63.0289 110.621 62.9773 110.097 62.8955 109.578C62.8144 109.059 62.7057 108.545 62.569 108.038C62.4329 107.529 62.2686 107.031 62.0775 106.54C61.8871 106.05 61.6692 105.573 61.4271 105.105C61.1844 104.64 60.9169 104.187 60.6239 103.751C60.3322 103.313 60.0184 102.894 59.6792 102.489C59.3419 102.088 58.9839 101.703 58.6037 101.34C58.2256 100.975 57.8273 100.632 57.4109 100.312C56.9945 99.9905 56.5621 99.6928 56.1122 99.4179C55.6636 99.1457 55.2023 98.8963 54.7256 98.6717C54.2496 98.4477 53.7635 98.2506 53.266 98.0803C52.7698 97.9087 52.2636 97.7652 51.7513 97.6492C51.2384 97.5332 50.7208 97.446 50.1985 97.3864C49.6755 97.326 49.1519 97.2938 48.6255 97.2918C48.1005 97.2878 47.5756 97.3153 47.0519 97.3689C46.5296 97.4212 46.0113 97.5044 45.4971 97.615C44.9828 97.725 44.4759 97.8624 43.9764 98.028C43.4775 98.1943 42.9894 98.3861 42.51 98.604C42.032 98.8225 41.5667 99.0659 41.1148 99.3348C40.6635 99.6037 40.227 99.8953 39.8066 100.212C39.3869 100.53 38.9853 100.868 38.6018 101.228C38.2176 101.588 37.8562 101.966 37.5142 102.366C37.1723 102.764 36.8525 103.182 36.5548 103.617C36.2584 104.05 35.9862 104.498 35.7381 104.962C35.4894 105.425 35.2681 105.901 35.071 106.388C34.8752 106.878 34.7049 107.375 34.5628 107.879C34.4206 108.385 34.3053 108.897 34.2181 109.418C34.1316 109.936 34.0733 110.458 34.0438 110.982C34.013 111.507 34.0116 112.031 34.0391 112.557C34.0653 113.083 34.1209 113.605 34.2041 114.122C34.2885 114.642 34.3998 115.155 34.5386 115.661C34.6788 116.17 34.8444 116.666 35.0381 117.156C35.2319 117.645 35.4512 118.122 35.6966 118.588C35.942 119.052 36.2115 119.502 36.5058 119.939C36.8002 120.374 37.1166 120.793 37.4566 121.193C37.7965 121.595 38.1566 121.976 38.5374 122.339C38.9189 122.701 39.3185 123.042 39.7369 123.36C40.1546 123.679 40.5891 123.975 41.0397 124.246C41.4896 124.518 41.9535 124.766 42.4303 124.986C42.907 125.209 43.3944 125.401 43.8933 125.57C44.3908 125.74 44.897 125.879 45.4099 125.993C45.9242 126.107 46.4424 126.192 46.9647 126.251C47.4871 126.306 48.0127 126.336 48.5377 126.336C49.7882 126.336 51.0198 126.179 52.2314 125.867C52.8033 125.718 53.3632 125.534 53.911 125.312C53.4879 124.591 53.0011 123.912 52.4513 123.281C51.2029 123.702 49.9216 123.915 48.6054 123.92C47.7459 123.92 46.8943 123.83 46.0536 123.646C45.2134 123.463 44.4021 123.192 43.619 122.834C42.8372 122.476 42.1017 122.039 41.4131 121.524C40.7252 121.008 40.1003 120.424 39.5378 119.773C40.3544 120.494 41.2529 121.091 42.2331 121.565C43.214 122.038 44.2399 122.37 45.3127 122.56C46.3848 122.751 47.4629 122.794 48.5464 122.69C49.6313 122.584 50.6806 122.334 51.695 121.94C52.5941 121.605 53.439 121.168 54.2308 120.629L55.4565 121.771C56.0451 122.324 56.6486 122.897 57.2198 123.449C59.8059 125.968 61.9883 128.268 61.9883 128.268C61.8207 129.656 61.8207 131.044 61.9883 132.431C62.5535 131.674 63.2931 131.171 64.205 130.919C64.331 132.062 64.567 133.182 64.9103 134.277C65.0954 133.622 65.436 133.064 65.9341 132.6C77.4973 143.891 90.4766 153.209 104.873 160.552C117.493 167.403 130.786 172.489 144.754 175.812L144.905 175.577C128.708 170.43 113.378 163.395 98.9127 154.475L99.2821 154.372L99.2834 154.373ZM110.08 97.7129C111.421 93.9649 113.24 90.4683 115.539 87.2191C117.836 83.9693 120.528 81.0875 123.614 78.5745C123.038 77.7606 122.406 76.9935 121.716 76.2741C118.465 78.7348 115.636 81.6112 113.232 84.9046C110.827 88.1987 108.949 91.767 107.595 95.6136C106.977 97.3884 106.484 99.1953 106.118 101.038C107.108 101.121 108.502 99.7947 110.08 97.7129ZM129.088 74.4437C131.71 71.285 134.85 68.772 138.508 66.9067C138.223 66.721 137.97 66.5199 137.685 66.3194L137.216 66.0157L135.788 65.1092C135.05 65.5456 134.31 65.9828 133.604 66.4696L132.9 66.9724L132.093 67.5772L131.455 68.0814L130.649 68.7526L130.094 69.2575L129.272 70.0285L128.785 70.5153L127.979 71.3547L127.526 71.8596L127.224 72.2109L127.677 72.6984L129.088 74.4437ZM107.259 27.3534C107.259 27.1181 107.174 26.8827 107.125 26.6481C107.048 26.3323 106.946 26.0245 106.822 25.7241V25.5565L106.151 24.1793C105.143 24.0955 104.321 24.0459 103.464 24.0117C104.099 24.4308 104.704 24.8901 105.278 25.3882C105.977 25.9937 106.626 26.6487 107.226 27.3528H107.259V27.3534ZM106.235 24.1793L107.259 25.2374C108.092 26.2143 108.825 27.2609 109.459 28.3773L109.812 28.9814C111.628 29.2368 113.431 29.5633 115.221 29.9596C117.011 30.3565 118.784 30.8232 120.537 31.3596C122.291 31.896 124.021 32.4994 125.727 33.1719C127.433 33.8431 129.111 34.5813 130.759 35.3845C132.407 36.1877 134.021 37.0547 135.602 37.9853C137.183 38.9153 138.723 39.9063 140.227 40.9583C141.729 42.0089 143.188 43.1179 144.604 44.2832C146.019 45.4492 147.385 46.6688 148.706 47.942C150.026 49.2153 151.293 50.5375 152.509 51.9106C153.726 53.2838 154.886 54.7025 155.989 56.1655C157.094 57.6292 158.14 59.1345 159.126 60.6793C160.112 62.2254 161.037 63.8071 161.898 65.427C162.76 67.0449 163.558 68.6936 164.29 70.3758C165.022 72.0554 165.688 73.7645 166.286 75.4963C166.884 77.2302 167.413 78.9835 167.874 80.7576C168.335 82.5317 168.726 84.3239 169.046 86.1276C169.365 87.9325 169.615 89.7482 169.792 91.5746C169.969 93.3996 170.075 95.2274 170.109 97.0605C170.144 98.895 170.106 100.725 169.995 102.556C169.886 104.387 169.704 106.209 169.45 108.026C169.198 109.841 168.874 111.645 168.479 113.435C168.084 115.227 167.62 116.997 167.086 118.753C166.551 120.506 165.95 122.238 165.28 123.945C164.611 125.651 163.875 127.33 163.073 128.978C162.272 130.627 161.407 132.242 160.479 133.825C159.55 135.406 158.561 136.948 157.512 138.45C156.462 139.954 155.355 141.416 154.191 142.831C153.026 144.247 151.809 145.617 150.537 146.938C149.265 148.257 147.944 149.528 146.573 150.746C145.201 151.964 143.784 153.126 142.321 154.231C140.859 155.336 139.355 156.384 137.81 157.372C136.265 158.36 134.684 159.286 133.067 160.15C134.427 160.938 135.921 161.829 137.651 162.601C139.346 161.611 140.999 160.556 142.61 159.432C144.221 158.311 145.785 157.128 147.303 155.884C148.82 154.638 150.286 153.336 151.701 151.975C153.115 150.614 154.473 149.199 155.776 147.732C157.078 146.263 158.32 144.746 159.502 143.179C160.685 141.612 161.803 140.002 162.859 138.346C163.914 136.691 164.901 134.997 165.822 133.264C166.743 131.53 167.595 129.763 168.376 127.964C169.156 126.163 169.866 124.334 170.501 122.478C171.137 120.621 171.699 118.742 172.187 116.842C172.676 114.94 173.087 113.022 173.422 111.089C173.758 109.157 174.018 107.212 174.2 105.258C174.382 103.303 174.487 101.345 174.513 99.3831C174.541 97.4212 174.491 95.4594 174.362 93.5009C174.235 91.5431 174.03 89.5926 173.748 87.6496C173.465 85.7085 173.107 83.7795 172.671 81.8659C172.238 79.9524 171.727 78.0583 171.143 76.1849C170.559 74.3116 169.901 72.4637 169.17 70.6427C168.439 68.8196 167.636 67.0294 166.765 65.2728C165.892 63.5141 164.952 61.7936 163.942 60.11C162.935 58.4264 161.861 56.7851 160.722 55.1866C159.583 53.5882 158.383 52.036 157.123 50.5328C155.86 49.0289 154.542 47.5766 153.166 46.1773C151.79 44.778 150.361 43.435 148.878 42.1477C147.396 40.861 145.865 39.6361 144.285 38.4701C142.705 37.3054 141.082 36.2032 139.415 35.1666C137.749 34.13 136.044 33.1598 134.3 32.258C132.557 31.3556 130.782 30.5235 128.973 29.7618C127.163 29.0008 125.327 28.3115 123.463 27.6954C121.599 27.0785 119.714 26.5374 117.808 26.0694C115.901 25.6021 113.98 25.2112 112.043 24.8954C110.105 24.581 108.157 24.3423 106.201 24.1807H106.235V24.1793ZM100.106 168.393C95.7748 168.401 91.479 168.011 87.2194 167.22C82.9598 166.429 78.8108 165.252 74.7711 163.689C70.7308 162.124 66.8708 160.202 63.1892 157.919C59.5075 155.636 56.0679 153.033 52.8711 150.109C52.8791 150.414 52.9294 150.709 53.0219 151C53.5141 151.953 53.8392 152.96 53.9968 154.021V155.935C54.027 156.203 54.027 156.472 53.9968 156.74C56.0465 158.358 58.1766 159.862 60.3852 161.256C62.5938 162.65 64.8701 163.925 67.2121 165.079C69.5534 166.233 71.9511 167.264 74.4017 168.166C76.8517 169.069 79.3425 169.842 81.8749 170.483C84.4067 171.125 86.9646 171.634 89.5493 172.007C92.1347 172.38 94.7329 172.616 97.3417 172.716C99.9512 172.818 102.559 172.781 105.166 172.608C107.772 172.436 110.361 172.126 112.935 171.682C110.203 170.615 107.505 169.468 104.842 168.239C103.229 168.341 101.668 168.392 100.107 168.392" fill="#D0B787"/>
<path d="M49.7331 100.932C51.1861 100.932 52.5914 101.189 53.9505 101.7C55.3089 102.212 56.5345 102.947 57.6261 103.905C57.1065 103.304 56.5325 102.761 55.907 102.274C55.2794 101.789 54.6109 101.369 53.9002 101.016C53.1888 100.662 52.4513 100.381 51.6842 100.175C50.9179 99.9655 50.1388 99.8361 49.3476 99.7838C48.5558 99.7322 47.7659 99.7584 46.9788 99.863C46.1923 99.9676 45.4239 100.147 44.6736 100.404C43.922 100.662 43.2039 100.99 42.5187 101.39C41.8328 101.79 41.1931 102.253 40.5998 102.78L41.7751 103.956C42.8727 102.983 44.1077 102.237 45.4782 101.717C46.8494 101.195 48.2681 100.934 49.7338 100.932M124.071 79.2596C123.937 79.0216 123.791 78.7936 123.634 78.5717C120.544 81.0826 117.849 83.9644 115.549 87.2142C113.248 90.4634 111.427 93.962 110.083 97.71C109.519 99.1851 109.105 100.703 108.84 102.26C115.759 105.146 115.557 91.8842 125.984 82.9184C125.56 81.7739 124.999 80.6998 124.305 79.6961C124.212 79.5586 124.133 79.4118 124.07 79.2589L124.071 79.2596ZM135.085 64.6866L134.834 64.5532L134.381 64.2997L133.944 64.0811L133.591 63.88C132.969 64.1489 132.231 64.4352 131.794 64.6034C131.53 64.6866 131.289 64.816 131.072 64.9883C130.721 65.2029 130.346 65.3598 129.947 65.4597C127.999 66.7584 126.32 68.3421 124.91 70.2114C125.728 70.8068 126.483 71.4712 127.177 72.2081L127.479 71.8568L127.933 71.3519L128.738 70.5124L129.225 70.0257L130.048 69.2546L130.602 68.7497L131.408 68.0786L132.045 67.5744L132.851 66.9696L133.355 66.6853L133.59 66.5344C134.296 66.047 135.035 65.6105 135.774 65.174L135.101 64.7717L135.085 64.6866H135.085ZM107.614 95.6101C108.967 91.7635 110.846 88.1952 113.251 84.9011C115.655 81.6076 118.483 78.7313 121.736 76.2706L120.443 74.9598L119.234 73.7019H117.37C115.382 75.2789 113.545 77.0148 111.861 78.913C110.178 80.8111 108.671 82.8407 107.343 85.0037C106.014 87.1646 104.883 89.4242 103.95 91.7843C103.017 94.1444 102.297 96.5662 101.788 99.0523C103.853 99.2206 105.733 97.8267 107.614 95.6094V95.6101ZM129.107 74.3744L129.359 74.6762C129.359 74.6762 130.282 75.7335 131.323 77.1771C131.388 77.0343 131.466 76.9008 131.559 76.7734C132.196 75.8341 134.396 75.7335 134.396 75.7335C135.006 74.1934 135.881 72.8202 137.022 71.6181C138.163 70.4179 139.487 69.4725 140.995 68.7819L140.206 68.1289L140.055 68.0109L139.299 67.4061L139.199 67.3229L138.577 66.8536C134.896 68.7289 131.739 71.2587 129.107 74.4408V74.3751L129.107 74.3744ZM39.7932 116.344C39.9554 116.046 40.1572 115.777 40.3979 115.54L40.7841 115.135L42.3792 116.816L42.6146 117.049C42.8741 117.302 42.9967 117.609 42.9833 117.973C42.9002 118.46 42.8325 118.779 42.8325 118.779L45.737 115.873L44.8815 116.024C44.5 116.028 44.1808 115.889 43.924 115.605L43.7229 115.371L42.1781 113.692L43.857 112.014L45.3173 113.491C45.5728 113.703 45.8664 113.819 46.199 113.837C46.5309 113.855 46.836 113.774 47.1135 113.591L50.5893 111.409L51.6809 112.501C51.2464 113.033 50.7824 113.536 50.2869 114.01C49.937 114.449 49.5159 114.805 49.0238 115.075C48.5323 115.346 48.0073 115.51 47.4501 115.572L49.2805 117.402C50.1153 116.789 50.9105 116.13 51.6635 115.421C52.336 114.748 52.8562 114.145 53.0742 113.892L55.9452 116.764L56.198 116.561C57.1098 115.869 57.9714 115.119 58.7833 114.313C59.5913 113.45 60.3523 112.55 61.0677 111.609L61.588 110.937H60.9162C60.5769 110.972 60.2926 110.866 60.0599 110.618L54.2334 104.792L52.285 106.975H52.9575C53.2498 106.996 53.5133 107.097 53.7467 107.276L58.3985 111.927L57.4075 112.985C56.8363 113.572 56.4675 113.908 56.1651 114.177L51.581 109.526C50.9092 108.872 49.9028 109.526 49.8008 109.526L46.4424 111.608H46.2915L45.2335 110.55L47.6848 108.116C47.8786 107.925 48.1079 107.802 48.374 107.747C48.4592 106.988 48.6825 106.27 49.0452 105.598L49.3308 105.078L48.7938 105.396C48.1501 105.745 47.4682 105.973 46.7454 106.084C46.6737 106.352 46.5275 106.57 46.3083 106.74L40.7848 112.28L39.3909 110.902C39.8321 110.388 40.3027 109.902 40.8009 109.442C41.2247 109.02 41.6893 108.652 42.1948 108.335C42.6132 108.093 43.0611 107.936 43.5385 107.863L41.7584 106.185C41.7584 106.185 40.0795 107.478 39.1555 108.4C38.2316 109.385 37.37 110.42 36.5695 111.507L36.3516 111.793L37.0234 111.675C37.2742 111.665 37.4974 111.739 37.6945 111.893L39.4754 113.674L39.0717 114.075C38.831 114.306 38.5682 114.508 38.2826 114.68L38.0144 114.813L39.0717 115.167L39.3406 115.434L39.6758 116.559L39.7938 116.341L39.7932 116.344ZM142.524 170.185C144.042 169.141 145.72 168.628 147.561 168.641C145.901 167.794 144.452 166.674 143.212 165.283C140.829 165.903 136.009 168.723 133.658 168.641C135.622 167.699 135.571 167.549 137.637 166.441L139.853 164.763L140.911 164.058C139.786 163.571 138.627 163.016 137.654 162.546C135.974 161.707 134.43 160.868 133.07 160.095C131.994 159.458 131.02 158.837 130.097 158.214C137.299 154.584 143.647 149.818 149.139 143.913C150.132 142.841 151.088 141.74 152.01 140.607C152.932 139.475 153.815 138.315 154.66 137.125C155.504 135.934 156.31 134.718 157.076 133.475C157.842 132.231 158.566 130.963 159.248 129.675C159.931 128.383 160.571 127.073 161.167 125.741C161.764 124.409 162.317 123.058 162.826 121.689C163.335 120.321 163.798 118.938 164.217 117.539C164.634 116.141 165.006 114.73 165.333 113.308C165.657 111.883 165.938 110.453 166.169 109.01C166.402 107.57 166.587 106.123 166.724 104.67C166.862 103.215 166.952 101.76 166.995 100.3C167.037 98.8411 167.031 97.3815 166.978 95.9245C166.925 94.4649 166.825 93.0093 166.677 91.5577C166.528 90.1061 166.333 88.6598 166.09 87.2203C165.848 85.7801 165.558 84.3513 165.221 82.9312C164.884 81.5104 164.503 80.1011 164.074 78.7058C163.646 77.3118 163.172 75.932 162.654 74.5675C162.135 73.2024 161.572 71.8554 160.965 70.5292C160.358 69.201 159.709 67.8942 159.016 66.6089C158.324 65.3235 157.59 64.061 156.816 62.824C156.041 61.5869 155.227 60.3767 154.373 59.192C153.518 58.0092 152.627 56.8533 151.699 55.7282C150.769 54.6031 149.803 53.5082 148.803 52.4455C147.802 51.3828 146.767 50.3543 145.699 49.3593C144.63 48.3643 143.531 47.4048 142.4 46.4822C141.269 45.559 140.109 44.6732 138.92 43.8264C137.732 42.9789 136.516 42.1717 135.274 41.404C134.033 40.6363 132.768 39.9101 131.478 39.2249C130.189 38.5396 128.879 37.8973 127.547 37.2979C126.216 36.6985 124.866 36.1427 123.499 35.6317C122.132 35.1202 120.749 34.6542 119.351 34.2338C117.954 33.8127 116.542 33.4379 115.12 33.1094C115.179 33.3521 115.218 33.5988 115.238 33.8476H115.506C115.511 33.9213 115.511 33.9937 115.506 34.0662C115.506 34.2512 115.506 34.4356 115.624 34.6207C115.665 35.3763 115.665 36.1319 115.624 36.8876V37.1893C115.624 37.7599 115.355 38.7508 115.221 39.4381C115.238 39.5675 115.238 39.6956 115.221 39.825L114.364 42.0402C114.364 42.0402 121.903 46.8416 124.103 48.605C126.617 50.6996 128.855 53.0563 130.82 55.6726C130.896 55.8234 130.98 55.9683 131.071 56.1091C131.251 56.4899 131.341 56.8902 131.341 57.3099C131.341 57.7296 131.251 58.1292 131.071 58.5101C131.071 58.7286 130.954 58.9472 130.886 59.1987C130.765 59.5178 130.765 59.8363 130.886 60.1554C131.188 60.6429 131.944 60.7931 132.734 61.1471L133.388 61.4488C136.418 63.0338 139.311 64.8354 142.069 66.8556C144.659 69.0032 147.098 71.309 149.39 73.7717C149.872 74.2913 150.303 74.8518 150.684 75.4492C150.911 75.7838 151.079 76.1432 151.189 76.5314C151.299 76.9183 151.345 77.3145 151.327 77.7161C151.308 78.1184 151.227 78.5087 151.082 78.8835C150.938 79.2603 150.738 79.6049 150.482 79.916C149.192 81.0297 147.972 82.2164 146.821 83.4749C146.597 83.7726 146.485 84.1092 146.485 84.482C146.669 85.5239 147.122 86.4304 147.845 87.2015C148.351 87.8512 148.749 88.5626 149.037 89.3336C148.973 89.6233 148.895 89.9076 148.802 90.1899C148.651 90.7598 148.483 91.4658 148.383 92.0035C148.377 92.1483 148.345 92.2892 148.287 92.4226C148.228 92.556 148.148 92.676 148.045 92.7806C147.944 92.8825 147.826 92.9663 147.692 93.026C147.56 93.0857 147.42 93.1206 147.274 93.1286C146.337 93.4364 145.42 93.7957 144.52 94.2034L144.303 94.304L144.42 94.5225C144.634 95.3117 144.689 96.1116 144.588 96.9235C144.402 98.1646 140.373 99.7262 140.373 99.7262C140.205 100.196 138.189 100.952 137.417 101.137C136.92 101.255 136.422 101.255 135.923 101.137C135.705 101.338 135.923 101.841 135.823 104.208C135.779 104.941 135.779 105.675 135.823 106.408V106.509C135.956 106.996 136.292 107.314 137.082 107.835L140.44 108.674C140.558 108.674 141.129 109.061 141.666 109.279H141.767C141.895 109.295 142.024 109.295 142.153 109.279H142.372C143.194 109.341 143.983 109.538 144.739 109.867C144.871 109.923 144.988 110.003 145.092 110.103C145.21 110.327 145.306 110.563 145.377 110.807V111.025C145.406 111.135 145.445 111.242 145.495 111.344V111.462C145.572 111.646 145.689 111.796 145.848 111.916C145.989 111.991 146.14 112.024 146.301 112.016H146.486C147.941 112.382 149.273 113.008 150.482 113.895C150.86 114.13 151.152 114.443 151.355 114.836V115.019C151.438 115.563 151.412 116.102 151.278 116.634C151.144 117.167 150.912 117.652 150.583 118.093C150.505 118.203 150.437 118.321 150.382 118.444V118.562C150.08 119.217 149.459 120.576 151.44 123.246C153.421 125.915 153.84 126.89 153.103 128.804L152.985 129.122C152.604 129.942 152.092 130.668 151.447 131.301C150.803 131.936 150.067 132.434 149.24 132.8C148.047 133.555 136.361 136.343 132.08 138.003C128.511 139.175 125.253 140.928 122.307 143.26C120.862 144.718 120.275 147.993 119.753 150.629L118.243 149.606C117.952 149.938 117.588 150.145 117.152 150.227C117.051 150.244 116.951 150.244 116.849 150.227L116.329 150.327H115.893L112.987 150.849C110.654 151.04 108.326 150.996 106.002 150.713C110.485 149.036 112.719 146.987 114.397 147.138L109.88 144.3C106.169 141.984 104.842 140.942 101.064 138.76C101.064 138.76 90.7716 140.842 83.7529 138.526C88.7842 138.762 93.6768 138.046 98.4292 136.376C98.0008 135.92 97.5307 135.513 97.0192 135.151C93.3965 132.394 89.5962 129.908 85.6175 127.697C83.5142 126.47 81.2828 125.557 78.9221 124.96C76.562 124.365 74.1643 124.106 71.7311 124.187C70.8239 124.187 69.9181 124.373 69.0284 124.506L68.2385 121.435H67.2308C65.7852 121.553 64.398 121.9 63.0664 122.476L62.7305 122.173C62.0929 121.62 61.2869 120.932 60.3127 120.142C59.9989 120.578 59.6577 120.992 59.2889 121.384C60.766 122.728 61.5384 123.516 61.5384 123.516L62.4288 124.44C63.2877 123.852 64.2156 123.416 65.2146 123.13C66.2143 122.842 67.2335 122.72 68.2727 122.761C67.4869 123.097 66.7789 123.551 66.148 124.127C65.5177 124.704 64.9994 125.367 64.5944 126.119L64.7795 126.522C70.7743 125.498 76.2985 124.473 82.0579 128.2C86.1512 130.382 89.9636 132.98 93.4924 135.99C82.2416 138.424 75.9458 137.098 75.9458 137.098C79.7964 138.882 83.7878 140.258 87.9186 141.229C92.0133 141.824 96.0765 141.656 100.109 140.724C103.064 142.655 106.96 144.938 109.864 146.936L108.405 147.776C104.256 149.757 97.8586 151.72 93.778 150.63C95.418 151.247 97.0983 151.728 98.8161 152.074L99.9244 152.191H111.527C113.606 152.424 115.688 152.463 117.773 152.309C119.452 153.517 120.461 154.257 122.172 155.382L122.995 155.918L123.23 156.086L123.802 156.472L124.036 156.623L124.742 157.127L125.431 157.63L125.632 157.784L126.119 158.135L126.287 158.253L127.546 159.192L128.251 159.712L128.419 159.847L128.838 160.149L129.209 160.435L129.41 160.568L129.712 160.804L129.897 160.937L130.283 161.206L130.787 161.542L131.257 161.828L131.392 161.929L131.744 162.13L132.231 162.415L135.775 164.212C131.576 165.487 118.446 163.154 99.1178 154.272L98.7483 154.372C113.264 163.324 128.651 170.376 144.909 175.527L144.758 175.761C130.791 172.454 117.498 167.386 104.877 160.552C90.49 153.168 77.5268 143.811 65.9884 132.481C65.4902 132.945 65.1489 133.504 64.9646 134.159C64.6199 133.063 64.3853 131.944 64.2592 130.801C63.3473 131.053 62.6091 131.556 62.0426 132.313C61.8743 130.926 61.8743 129.537 62.0426 128.15C62.0426 128.15 59.8601 125.85 57.2741 123.333C56.7028 122.761 56.098 122.191 55.5114 121.653L54.2851 120.511C53.4939 121.052 52.6484 121.487 51.7499 121.821C50.7348 122.216 49.6855 122.465 48.6013 122.571C47.5172 122.676 46.439 122.633 45.3669 122.444C44.2948 122.252 43.2683 121.92 42.2874 121.446C41.3065 120.972 40.4087 120.374 39.592 119.654C40.1525 120.299 40.7754 120.877 41.4607 121.39C42.1459 121.9 42.8774 122.334 43.6552 122.689C44.4323 123.043 45.2395 123.311 46.0736 123.493C46.909 123.675 47.7538 123.767 48.6087 123.767C49.9256 123.763 51.2069 123.551 52.4546 123.13C53.0044 123.762 53.4912 124.438 53.9143 125.161C55.3471 127.593 56.1416 130.218 56.2992 133.036C57.2701 132.031 58.3891 131.236 59.6577 130.651C59.4216 133.741 59.5618 136.813 60.0774 139.867C60.715 138.759 62.931 135.118 62.931 135.118C63.234 137.366 63.3346 142.487 64.7279 144.568C65.2006 142.818 65.8 141.111 66.5241 139.448C67.1061 140.637 67.8 141.756 68.6066 142.806C72.875 147.787 77.7279 152.113 83.1649 155.784C88.2613 159.269 93.5454 162.441 99.0159 165.304C100.929 166.31 102.861 167.25 104.826 168.175C107.462 169.383 110.149 170.541 112.92 171.615C114.598 172.288 116.429 172.941 118.242 173.579C120.643 174.402 123.129 175.259 125.681 175.947C131.104 177.472 136.625 178.424 142.246 178.808C147.867 179.189 153.466 178.991 159.046 178.213C155.74 175.924 152.583 173.445 149.575 170.777C147.196 170.918 144.846 170.723 142.523 170.188" fill="#7A303F"/>
<path d="M106.824 25.5544V25.722C106.937 26.0237 107.027 26.3308 107.093 26.6459C107.093 26.8806 107.176 27.1153 107.228 27.3513C106.617 26.6453 105.956 25.9909 105.246 25.3868C104.683 24.8893 104.09 24.4306 103.465 24.0103C104.361 24.0103 105.251 24.0612 106.136 24.1611L106.825 25.5551M142.489 96.9055C142.228 97.1549 141.923 97.3245 141.574 97.4177C141.225 97.5089 140.875 97.5123 140.525 97.4258C140.374 97.9474 138.947 99.2736 138.09 98.6012C135.906 100.868 135 99.1389 134.732 98.8372C135.353 98.1995 135.856 97.1576 136.931 97.1576C137.586 96.3684 138.039 95.3117 139.735 95.2615C140.122 94.4046 141.011 94.3724 141.616 93.9688C142.22 93.5665 142.203 94.2376 142.439 94.4884L142.624 94.9423C142.762 95.2615 142.82 95.5934 142.797 95.94C142.773 96.288 142.67 96.6091 142.489 96.9068V96.9055ZM136.075 109.413C137.016 109.178 137.62 109.413 137.871 110.135C137.972 110.135 138.074 109.999 138.157 109.999C139.056 109.973 139.867 110.223 140.591 110.755L140.726 110.856C140.723 110.902 140.723 110.946 140.726 110.991C140.875 110.896 141.038 110.835 141.213 110.805C142.114 110.95 143.004 111.145 143.883 111.393C144.017 111.393 144.084 111.712 144.185 111.812C143.917 112.602 143.026 112.284 142.389 112.284C141.751 112.284 141.162 112.199 140.828 111.729C140.391 111.997 139.802 111.729 139.316 111.611C138.86 111.485 138.429 111.302 138.022 111.058C137.177 110.774 136.41 110.349 135.722 109.782C135.627 109.672 135.544 109.554 135.471 109.428C135.674 109.456 135.874 109.45 136.075 109.413V109.413ZM100.108 20.9207C94.9859 20.9186 89.915 21.4222 84.8944 22.4319C81.3133 22.5419 77.8476 23.2365 74.5005 24.5138C71.6375 24.5051 68.8389 24.9241 66.104 25.773C63.4985 26.6044 61.0968 27.8354 58.901 29.466C56.2479 31.8167 52.1847 34.9224 52.4194 35.1068C51.7134 35.9362 50.9014 36.6482 49.9849 37.2389C45.9378 39.2537 40.6148 45.3136 38.3821 48.6043C38.3821 48.6043 35.2087 53.2555 34.1004 55.0839C30.638 61.2906 27.5598 67.6817 24.8651 74.2571C24.4286 76.0205 24.2275 79.1249 23.9579 80.2996C22.8825 84.7127 22.3957 89.1895 22.4976 93.7321C22.6069 94.426 22.6579 95.126 22.6485 95.8294C22.4037 98.3906 22.4768 100.942 22.867 103.486C23.0669 106.444 23.4309 109.381 23.9579 112.299V112.451C24.9026 118.31 26.3851 124.028 28.4073 129.608C28.4073 129.608 29.9192 135.399 30.6246 136.911C31.2622 137.599 31.7825 137.683 31.934 138.371C32.215 140.171 32.7473 141.891 33.5305 143.534C34.3129 145.177 35.3146 146.675 36.5349 148.024C36.7655 148.208 37.0291 148.298 37.3241 148.293C37.6265 148.293 37.8779 148.192 38.0965 148.192C38.1749 148.167 38.2534 148.167 38.3318 148.192C40.2957 151.197 39.0365 149.569 42.0262 152.255C43.1995 153.305 44.448 154.256 45.7702 155.11C46.2161 155.265 46.6753 155.342 47.1467 155.344C47.3378 155.371 47.5275 155.371 47.7186 155.344C49.4813 156.971 51.3171 158.512 53.2246 159.968C55.1315 161.426 57.1014 162.787 59.1356 164.059C61.1712 165.333 63.2605 166.507 65.4034 167.585C67.5482 168.662 69.738 169.638 71.9728 170.512C74.2082 171.384 76.4798 172.153 78.7862 172.814C81.0934 173.474 83.426 174.027 85.7848 174.472C88.1436 174.917 90.5171 175.252 92.9073 175.474C95.2976 175.698 97.6926 175.809 100.093 175.809C106.222 175.814 112.266 175.105 118.226 173.677C116.441 173.049 114.668 172.393 112.903 171.713C108.668 172.445 104.404 172.809 100.108 172.804C95.946 172.811 91.8118 172.469 87.7077 171.778C83.603 171.087 79.5855 170.058 75.6551 168.692C71.7247 167.323 67.9351 165.635 64.289 163.629C60.6436 161.623 57.1906 159.326 53.9313 156.738C53.9615 156.469 53.9615 156.201 53.9313 155.932V154.019C53.7751 152.957 53.4499 151.95 52.9578 150.998C52.8653 150.707 52.8136 150.412 52.8069 150.107C56.0072 153.035 59.4514 155.641 63.1371 157.926C66.8241 160.211 70.6908 162.134 74.7372 163.697C78.7829 165.261 82.9392 166.438 87.2049 167.227C91.4692 168.017 95.771 168.404 100.109 168.391C101.789 168.391 103.266 168.391 104.811 168.238C102.847 167.316 100.915 166.375 99.0014 165.367C97.5739 165.367 96.1471 165.367 94.7532 165.166C90.4601 162.781 86.2964 160.191 82.2607 157.394C76.6186 153.537 71.5812 149.01 67.1473 143.811C66.4822 145.558 65.9223 147.339 65.4684 149.15L63.4026 145.793C62.5947 144.332 62.1025 142.769 61.9255 141.109L59.44 145.104L58.4826 140.287C58.4826 140.287 57.9791 136.223 57.9281 134.561C57.7605 134.644 54.7728 137.196 54.7728 137.196L54.5535 133.269C54.4255 130.583 53.6417 128.103 52.2035 125.832C50.9919 126.143 49.7602 126.3 48.5098 126.302C46.5506 126.306 44.6699 125.925 42.867 125.159C42.4218 124.969 41.986 124.757 41.5615 124.523C41.1378 124.289 40.7261 124.036 40.3272 123.76C39.9282 123.486 39.544 123.191 39.1753 122.877C38.8058 122.563 38.4532 122.232 38.1166 121.882C37.7807 121.534 37.4629 121.17 37.1625 120.788C36.8634 120.407 36.5838 120.013 36.3244 119.605C36.0642 119.196 35.8249 118.775 35.607 118.344C35.3897 117.91 35.1933 117.467 35.0203 117.015C34.8466 116.563 34.6958 116.103 34.569 115.635C34.4416 115.168 34.337 114.695 34.2566 114.218C34.1775 113.741 34.1212 113.259 34.089 112.777C34.0568 112.292 34.0494 111.81 34.0662 111.324C34.0829 110.842 34.1238 110.357 34.1882 109.879C34.2526 109.397 34.3417 108.921 34.4544 108.452C34.567 107.98 34.7031 107.517 34.862 107.058C35.0209 106.6 35.2026 106.151 35.4071 105.713C35.611 105.272 35.8369 104.845 36.0837 104.427C36.3297 104.012 36.5973 103.608 36.8842 103.217C37.1712 102.827 37.4783 102.454 37.8028 102.094C38.128 101.735 38.4693 101.393 38.8286 101.067C39.188 100.742 39.5621 100.436 39.9524 100.148C40.3419 99.8603 40.7462 99.5935 41.1619 99.3461C41.579 99.098 42.0067 98.872 42.4466 98.6675C42.8857 98.4644 43.3343 98.2827 43.7916 98.1224C44.2495 97.9642 44.7142 97.8267 45.1855 97.7148C45.6569 97.6008 46.1322 97.5116 46.6123 97.4479C47.0924 97.3822 47.5745 97.342 48.0585 97.3239C48.5433 97.3064 49.0261 97.3145 49.5095 97.3453C49.9929 97.3762 50.4743 97.4325 50.9517 97.5116C51.4298 97.5927 51.9024 97.6953 52.3698 97.8227C52.8371 97.9488 53.2977 98.099 53.7503 98.2733C54.2029 98.4449 54.6454 98.64 55.0785 98.8586C55.511 99.0752 55.9321 99.3145 56.3417 99.5734C56.7507 99.8328 57.1456 100.113 57.5265 100.413C57.908 100.71 58.2727 101.03 58.6221 101.364C58.9714 101.7 59.3033 102.051 59.6171 102.421C59.9308 102.79 60.2259 103.175 60.5001 103.573C60.7763 103.971 61.0311 104.383 61.2651 104.807C61.4984 105.232 61.7117 105.667 61.9021 106.111C62.0932 106.556 62.2608 107.01 62.4056 107.472C62.5518 107.934 62.6731 108.404 62.7717 108.877C62.8703 109.35 62.9447 109.83 62.9943 110.311C63.0452 110.792 63.0714 111.275 63.0727 111.76C63.0754 112.244 63.0526 112.729 63.0064 113.21C62.9594 113.692 62.889 114.171 62.7945 114.647C62.6999 115.122 62.5819 115.59 62.4405 116.054C62.299 116.518 62.1347 116.972 61.9483 117.418C61.7606 117.867 61.5521 118.301 61.3208 118.728C62.2112 119.517 63.0003 120.188 63.4703 120.71C64.82 120.181 66.2193 119.89 67.6683 119.836H68.676L69.3304 122.893H70.0357C70.7076 122.802 71.3794 122.751 72.0505 122.742C73.2051 122.694 74.3584 122.721 75.5096 122.825C75.6155 122.297 75.8341 121.821 76.164 121.398C76.8693 120.273 77.8429 119.467 78.4818 118.293C79.1195 117.117 80.1614 114.935 80.7662 113.91C81.0163 113.495 81.2241 113.057 81.3871 112.601C82.1514 112.62 82.8849 112.783 83.5863 113.088C83.5863 113.088 83.721 113.204 83.7378 113.289C83.9544 113.844 84.2614 114.34 84.661 114.783C85.3664 115.502 86.1871 116.051 87.1211 116.429C88.0557 116.806 89.0266 116.979 90.0343 116.948C90.3629 116.863 90.6941 116.856 91.0266 116.923C91.3592 116.991 91.6616 117.127 91.9311 117.335L92.082 117.453C92.3576 117.675 92.5862 117.939 92.7712 118.242C92.9724 118.594 93.5765 119.434 94.08 120.324C96.2296 124.068 106.741 135.954 110.553 139.579L110.906 139.914C111.205 140.158 111.524 140.37 111.863 140.554C112.237 140.817 112.64 141.029 113.069 141.19C113.5 141.35 113.943 141.451 114.399 141.495C114.856 141.54 115.311 141.524 115.763 141.451C116.215 141.375 116.651 141.243 117.068 141.056C117.998 140.399 118.714 139.56 119.218 138.538C119.453 138.185 119.688 137.817 119.956 137.48C120.405 136.809 120.965 136.25 121.635 135.802C122.071 135.549 133.675 133.467 135.068 133.284C136.747 133.048 137.855 132.779 139.115 132.496C141.123 132.178 143.088 131.686 145.009 131.017H144.304C144.058 131.037 143.812 131.037 143.565 131.017C137.789 131.386 132.5 130.211 127.16 129.34L118.763 128.433C117.303 128.215 115.607 128.315 114.247 128.097C110.848 128.043 107.63 127.254 104.591 125.729C103.105 124.841 101.751 123.783 100.528 122.557C99.2931 121.463 98.2914 120.187 97.5223 118.73C96.4951 116.841 95.6771 114.866 95.0703 112.803C95.7395 111.957 96.1532 111 96.3128 109.933C95.4351 110.656 94.4528 111.186 93.364 111.515C92.2751 111.848 91.1654 111.958 90.033 111.847C89.5623 111.757 89.103 111.629 88.6558 111.46C87.9169 110.872 87.111 110.151 86.2548 109.564C85.471 108.972 84.598 108.587 83.6359 108.404C80.1091 107.801 79.6559 108.404 77.9944 106.877C81.3529 97.8442 83.0324 102.882 86.9105 95.1247C87.2122 95.5116 87.2122 96.0312 87.5146 96.4006C87.6226 96.5495 87.7627 96.6561 87.935 96.7198C89.0091 96.9343 89.9612 97.3983 90.79 98.1137L91.1084 98.4329C91.3626 95.9138 91.8272 93.4364 92.5024 90.9965C92.4011 90.7451 92.6532 90.5593 92.5024 90.3589C92.3596 90.0015 92.1698 89.6709 91.9311 89.3672L91.5952 88.8979L91.4772 88.6464C91.433 88.5499 91.3773 88.4607 91.3096 88.3776C90.9361 87.9444 90.5888 87.4905 90.2683 87.0165C89.6126 85.8083 88.8288 84.6892 87.9183 83.6594C87.0627 81.3878 85.8592 79.318 84.3077 77.4487L84.1729 77.2978L84.0388 77.1624L83.8377 76.7601C83.8377 76.7601 81.8732 75.0805 81.5205 74.9799C82.9144 79.8993 81.5205 86.0443 81.1008 87.9404C80.681 87.3531 80.6643 79.5473 80.4289 78.8922C80.093 81.6291 79.9757 89.2512 76.2149 92.4736C76.819 90.1403 79.3045 82.2829 79.3206 82.1823C78.8841 82.9205 77.104 86.8831 76.0473 87.0842C77.3769 83.0016 78.4014 78.8439 79.1195 74.6105C78.4047 75.8066 77.8838 77.0826 77.5586 78.4376C77.4594 76.6763 77.7845 74.9987 78.5321 73.4023L78.28 72.4455C78.3122 72.3831 78.3565 72.3335 78.4148 72.2946C78.0407 71.9218 77.688 71.5296 77.3568 71.1193L77.1389 70.833L76.87 70.4964L76.4168 69.8762C76.4114 69.8319 76.4114 69.787 76.4168 69.7408C76.282 69.5396 76.1311 69.3391 76.0138 69.138C75.7449 68.6841 75.5096 68.2469 75.2917 67.8118V67.7092C74.4965 66.1241 74.0701 64.4466 74.0144 62.6738C74.0318 62.4727 74.0318 62.2702 74.0144 62.069C74.1492 61.9685 74.0144 61.7848 74.0144 61.6493C74.0332 60.9366 74.0902 60.2252 74.1827 59.5172C74.2042 59.3395 74.243 59.1672 74.3007 58.9976C74.4368 58.5624 74.5427 58.1199 74.6192 57.6713V57.4528C74.7875 57.078 74.9947 56.7239 75.2407 56.3954C75.3755 56.1768 75.5773 55.9918 75.7282 55.7578C76.2049 55.1624 76.7198 54.6032 77.273 54.0782C77.692 53.7262 78.1124 53.3728 78.5489 53.0376L79.0021 52.7185C79.2308 52.5642 79.4433 52.3906 79.6398 52.1975L81.0337 51.0898L84.7113 48.9067H84.8622C85.8699 48.3194 85.534 48.3362 86.4405 47.5812L86.6591 47.4122C87.1754 46.9509 87.7346 46.5473 88.3373 46.2033C89.036 45.7045 89.8017 45.3572 90.6378 45.1634C90.9737 45.1634 92.1497 44.4413 92.619 44.3575L93.307 44.0719C93.4759 44.0135 93.6388 43.9404 93.7937 43.854L94.1471 43.7199C95.2044 43.3933 96.2853 43.1929 97.3875 43.1157H97.7235C99.576 42.7503 101.445 42.5264 103.331 42.4439C103.331 42.4439 103.483 42.4439 104.154 42.344V42.1757L104.272 42.3098L104.373 42.2093C102.359 38.4478 101.132 35.0069 97.4378 32.5221C99.4607 33.5365 101.274 34.8413 102.879 36.437C104.484 38.0335 105.799 39.8398 106.825 41.8566C106.943 41.8566 106.993 41.9746 107.11 41.8566C107.228 41.7392 107.194 41.5549 107.11 41.4201V41.337C107.076 41.2518 107.076 41.168 107.11 41.0842C106.774 40.228 106.489 39.406 106.187 38.6336C105.515 36.7321 104.619 34.9405 103.5 33.2609C102.61 32.3712 101.99 31.23 101.285 30.4067C103.058 31.7289 104.658 33.2348 106.087 34.9231C106.076 34.9626 106.076 35.0015 106.087 35.0404C106.204 35.3093 106.489 35.5279 106.574 35.8128C106.68 35.9389 106.765 36.079 106.825 36.2319V36.3164C106.902 36.5383 107.036 36.7173 107.229 36.8534C107.283 35.782 107.076 34.7635 106.607 33.7987C105.986 32.7574 105.063 32.5563 104.357 31.8844C104.298 31.7651 104.248 31.6417 104.206 31.515C103.837 30.4898 103.434 28.4757 102.712 26.6298C102.31 25.4002 101.638 24.3428 100.697 23.4564C102.65 24.4333 104.266 25.8045 105.55 27.5699C105.886 28.2075 106.373 29.0637 106.859 30.1888C108.046 32.8942 108.539 35.7196 108.337 38.6664C108.656 37.9637 108.875 37.2309 108.992 36.4679C109.406 33.922 109.406 31.3749 108.992 28.829C109.747 30.345 110.269 31.9374 110.555 33.6076C110.84 35.2771 110.879 36.9526 110.671 38.6336C111.483 37.8712 112.115 36.9815 112.569 35.9643C112.146 38.307 111.195 40.4117 109.714 42.277L109.999 42.5626C116.411 45.4242 122.008 49.4257 126.79 54.5656C127.025 54.8767 127.226 55.2053 127.395 55.5553C127.864 56.4289 127.96 57.3408 127.681 58.2922C127.681 59.1658 126.724 60.6751 127.127 61.5159C127.207 61.6862 127.329 61.8156 127.496 61.9008C128.487 62.405 131.845 62.9755 133.541 63.9323L133.944 64.1509L134.381 64.3695L134.834 64.6209L135.086 64.7564L135.489 64.9904L135.808 65.1761L136.429 65.563L136.714 65.7467L137.1 66.0001L137.571 66.3012L138.276 66.804C138.512 66.9723 138.746 67.1406 138.965 67.3257L139.066 67.4088C139.334 67.6099 139.603 67.8124 139.854 68.029L140.005 68.147L140.795 68.8027C142.759 70.4823 144.674 72.3107 147.209 74.528C147.884 75.1234 148.281 75.8676 148.401 76.7607C148.401 76.9887 148.367 77.2133 148.301 77.4319C147.495 79.6995 145.648 79.4306 144.388 81.495C143.818 82.2373 143.291 83.0083 142.81 83.8122C142.861 84.3533 143.015 84.8636 143.272 85.345C143.528 85.8244 143.867 86.236 144.289 86.582C144.808 87.1848 145.665 87.6561 145.968 88.2596C146.054 88.5009 146.054 88.741 145.968 88.9824C145.66 89.624 145.448 90.2952 145.329 90.9965C141.058 91.9828 137.241 93.8783 133.877 96.6869L133.692 96.9055C133.382 101.252 133.605 105.573 134.364 109.867C134.464 110.291 134.582 110.693 134.717 111.075C134.902 111.747 135.119 112.4 135.338 113.04C136.17 115.58 137.301 117.981 138.73 120.24C139.56 121.574 140.478 122.845 141.483 124.052L143.28 126.202C142.088 123.65 140.191 120.408 138.612 117.201C138.243 116.463 137.89 115.725 137.571 115.003C137.117 113.961 136.741 112.892 136.446 111.796C139.457 113.161 142.613 113.922 145.916 114.079C147.109 114.415 148.048 114.7 148.434 115.992C148.33 116.478 148.124 116.914 147.814 117.302C147.607 117.678 147.453 118.074 147.353 118.489C147.253 118.907 147.21 119.329 147.223 119.758C147.236 120.185 147.305 120.604 147.431 121.013C147.557 121.423 147.735 121.808 147.965 122.169L148.267 122.606C149.03 123.789 149.689 125.024 150.248 126.318C150.256 126.383 150.256 126.45 150.248 126.518C150.343 127.348 150.164 128.115 149.711 128.819C148.117 130.508 146.192 131.627 143.935 132.176C135.992 133.972 127.848 135.366 121.233 140.386C120.292 141.09 119.386 141.913 118.478 142.668C117.575 143.396 116.769 144.217 116.061 145.137C115.926 145.32 115.775 145.556 115.624 145.807V147.033C116.083 146.374 116.643 145.813 117.303 145.355C117.102 145.69 116.899 146.009 116.715 146.362C116.124 147.611 115.871 148.926 115.96 150.307L116.481 150.206C116.581 150.223 116.682 150.223 116.783 150.206C117.219 150.125 117.582 149.919 117.874 149.584L119.386 150.608C119.906 147.972 120.494 144.699 121.938 143.237C124.981 140.897 128.341 139.169 132.013 138.049C136.295 136.372 147.982 133.601 149.175 132.846C150.001 132.481 150.737 131.982 151.382 131.35C152.027 130.715 152.539 129.989 152.919 129.169L153.037 128.833C153.826 126.869 153.944 126.583 151.794 123.679C149.645 120.775 150.434 119.649 150.736 118.997V118.879C150.792 118.755 150.859 118.637 150.937 118.527C151.268 118.086 151.5 117.601 151.633 117.068C151.766 116.535 151.792 115.996 151.71 115.454V115.269C151.506 114.875 151.215 114.562 150.837 114.329C149.628 113.442 148.296 112.815 146.84 112.449H146.655C146.495 112.457 146.344 112.425 146.202 112.347C146.043 112.229 145.925 112.078 145.849 111.895V111.777C145.8 111.674 145.761 111.568 145.731 111.458V111.239C145.659 110.996 145.564 110.76 145.445 110.534C145.342 110.436 145.225 110.356 145.093 110.3C144.337 109.97 143.548 109.774 142.724 109.713H142.507C142.378 109.728 142.249 109.728 142.12 109.713H142.02C141.483 109.495 140.911 109.108 140.794 109.108L137.436 108.269C136.646 107.749 136.311 107.429 136.176 106.943C136.042 106.456 136.176 106.943 136.176 106.842C136.134 106.107 136.134 105.375 136.176 104.643C136.176 102.275 136.058 101.772 136.277 101.571C136.775 101.689 137.273 101.689 137.772 101.571C138.544 101.386 140.559 100.63 140.726 100.16C140.726 100.16 144.757 98.5985 144.942 97.3574C145.044 96.5454 144.987 95.7449 144.774 94.9564L144.656 94.7378L144.875 94.6372C145.773 94.2276 146.691 93.8702 147.628 93.5625C147.774 93.5531 147.913 93.5202 148.046 93.4599C148.179 93.3995 148.297 93.317 148.4 93.2125C148.501 93.1099 148.582 92.9899 148.64 92.8564C148.698 92.723 148.731 92.5822 148.737 92.4374C148.837 91.8996 149.006 91.1943 149.156 90.6237C149.307 90.0518 149.358 89.7675 149.374 89.6495C149.086 88.8784 148.688 88.167 148.182 87.5173C147.46 86.7463 147.006 85.8398 146.822 84.7979C146.822 84.4244 146.934 84.0885 147.158 83.7908C148.19 82.4337 149.299 81.1404 150.482 79.9134C150.745 79.6137 150.954 79.2798 151.111 78.9123C151.266 78.5449 151.362 78.1641 151.395 77.7658C151.427 77.3675 151.398 76.9753 151.305 76.5891C151.212 76.2002 151.061 75.8375 150.851 75.4969C150.471 74.8995 150.039 74.3389 149.558 73.8186C147.266 71.356 144.826 69.0502 142.237 66.9026C139.478 64.8824 136.585 63.0808 133.556 61.4958L132.901 61.1941C132.111 60.8407 131.356 60.6892 131.055 60.2024C130.933 59.8833 130.933 59.5641 131.055 59.2456C131.055 58.9942 131.172 58.7756 131.239 58.557C131.419 58.1775 131.509 57.7779 131.509 57.3569C131.509 56.9358 131.419 56.5369 131.239 56.156C131.149 56.0146 131.064 55.8704 130.987 55.7189C129.023 53.102 126.784 50.7465 124.271 48.652C122.07 46.8892 114.532 42.0872 114.532 42.0872L115.22 39.821C115.243 39.6641 115.243 39.5072 115.22 39.3503C115.353 38.6791 115.572 37.6721 115.623 37.1176V36.8159C115.664 36.0602 115.664 35.3053 115.623 34.5489C115.623 34.3652 115.623 34.1795 115.505 33.9951C115.51 33.9227 115.51 33.8503 115.505 33.7765H115.22C115.202 33.5506 115.17 33.3267 115.119 33.1054C116.95 33.5285 118.76 34.0266 120.549 34.6012C122.338 35.1765 124.1 35.8256 125.836 36.5477C127.57 37.2698 129.271 38.0636 130.94 38.9292C132.607 39.7942 134.236 40.7288 135.826 41.7305C137.416 42.7329 138.961 43.7996 140.461 44.9314C141.961 46.0625 143.411 47.2553 144.812 48.5091C146.212 49.7623 147.557 51.0717 148.847 52.4389C150.137 53.8053 151.367 55.2227 152.538 56.6918C153.709 58.1628 154.817 59.6781 155.861 61.2397C156.905 62.8039 157.88 64.4057 158.79 66.0511C159.699 67.6964 160.539 69.376 161.306 71.0904C162.074 72.8049 162.77 74.5481 163.392 76.3216C164.013 78.0957 164.56 79.8919 165.031 81.7103C165.502 83.5293 165.895 85.3658 166.212 87.2176C166.529 89.0689 166.767 90.9308 166.928 92.8035C167.088 94.6748 167.17 96.5501 167.172 98.4288C167.163 102.615 166.763 106.764 165.972 110.875C165.182 114.987 164.014 118.988 162.472 122.879C160.928 126.773 159.036 130.486 156.795 134.022C154.553 137.557 152.001 140.855 149.139 143.911C143.645 149.808 137.298 154.571 130.097 158.197C131.02 158.818 131.995 159.438 133.07 160.077C134.683 159.212 136.262 158.284 137.804 157.295C139.345 156.305 140.845 155.255 142.305 154.15C143.763 153.042 145.177 151.879 146.545 150.661C147.913 149.443 149.232 148.173 150.499 146.853C151.768 145.53 152.984 144.162 154.144 142.745C155.305 141.328 156.409 139.869 157.456 138.365C158.503 136.862 159.488 135.32 160.414 133.739C161.339 132.16 162.201 130.546 163.001 128.898C163.8 127.248 164.533 125.572 165.201 123.868C165.868 122.161 166.468 120.433 166.999 118.68C167.53 116.926 167.994 115.155 168.386 113.367C168.778 111.577 169.101 109.776 169.353 107.963C169.604 106.148 169.785 104.327 169.893 102.498C170.002 100.67 170.039 98.8412 170.003 97.0101C169.968 95.1777 169.862 93.3506 169.685 91.5282C169.506 89.7051 169.258 87.8921 168.936 86.0892C168.617 84.2856 168.226 82.4981 167.765 80.7253C167.304 78.9526 166.775 77.2019 166.177 75.4694C165.579 73.7395 164.914 72.0345 164.183 70.3542C163.451 68.6747 162.655 67.0273 161.793 65.4114C160.932 63.7935 160.009 62.2139 159.025 60.6697C158.039 59.1256 156.994 57.6217 155.893 56.1601C154.789 54.6964 153.631 53.2803 152.417 51.9092C151.203 50.538 149.937 49.2158 148.619 47.9439C147.301 46.672 145.936 45.4524 144.522 44.2878C143.109 43.1225 141.652 42.0141 140.152 40.9635C138.651 39.9122 137.112 38.9219 135.534 37.9912C133.957 37.0606 132.344 36.1937 130.698 35.3904C129.053 34.5858 127.377 33.8483 125.673 33.1758C123.97 32.5033 122.242 31.8985 120.49 31.3615C118.739 30.8244 116.97 30.3571 115.181 29.9581C113.393 29.5599 111.592 29.2327 109.779 28.9752L109.425 28.3711C108.793 27.2547 108.059 26.2081 107.226 25.2312L106.201 24.1732C108.157 24.3348 110.105 24.5735 112.043 24.8879C113.98 25.2037 115.902 25.5953 117.809 26.0619C119.715 26.5293 121.599 27.071 123.463 27.6879C125.327 28.304 127.163 28.9933 128.973 29.7543C130.782 30.516 132.558 31.348 134.3 32.2505C136.043 33.1523 137.749 34.1225 139.416 35.1591C141.082 36.1957 142.705 37.2979 144.285 38.4626C145.864 39.6285 147.395 40.8542 148.878 42.1402C150.361 43.4269 151.79 44.7705 153.166 46.1698C154.542 47.5684 155.861 49.0207 157.123 50.5253C158.384 52.0285 159.583 53.5807 160.722 55.1791C161.861 56.7776 162.935 58.4189 163.943 60.1025C164.952 61.7861 165.892 63.5066 166.765 65.2653C167.637 67.0226 168.439 68.8128 169.17 70.6352C169.901 72.4562 170.559 74.3041 171.143 76.1774C171.728 78.0508 172.238 79.9449 172.672 81.8584C173.107 83.772 173.466 85.701 173.748 87.6421C174.03 89.5851 174.235 91.5349 174.363 93.4934C174.491 95.4512 174.541 97.4137 174.514 99.3756C174.487 101.337 174.382 103.296 174.2 105.25C174.018 107.204 173.759 109.149 173.423 111.082C173.087 113.015 172.676 114.932 172.187 116.834C171.7 118.735 171.138 120.614 170.501 122.47C169.866 124.327 169.156 126.155 168.376 127.956C167.595 129.756 166.744 131.523 165.823 133.257C164.901 134.99 163.915 136.683 162.859 138.338C161.804 139.995 160.686 141.605 159.503 143.171C158.321 144.739 157.079 146.256 155.776 147.725C154.473 149.192 153.115 150.607 151.701 151.967C150.287 153.329 148.82 154.631 147.303 155.876C145.785 157.12 144.221 158.303 142.61 159.425C140.999 160.548 139.346 161.603 137.652 162.593C138.624 163.062 139.784 163.617 140.909 164.104L141.127 163.969L142.419 163.147L142.957 162.793L145.005 161.384C146.265 160.494 147.474 159.589 148.667 158.63C149.221 158.195 149.758 157.74 150.345 157.271L151.94 155.877C152.696 155.222 153.418 154.533 154.14 153.845C154.862 153.157 155.552 152.451 156.239 151.749C156.928 151.043 157.918 150.068 158.674 149.094C159.8 147.818 160.858 146.525 161.881 145.185C164.431 141.844 166.69 138.32 168.657 134.609C170.625 130.898 172.275 127.05 173.607 123.065C174.94 119.081 175.937 115.017 176.597 110.868C177.259 106.72 177.576 102.544 177.548 98.3444C177.547 97.0785 177.513 95.8119 177.451 94.5461C177.387 93.2815 177.293 92.0176 177.168 90.7571C177.042 89.4966 176.886 88.2408 176.699 86.9883C176.512 85.7339 176.294 84.4867 176.047 83.2443C175.798 82.0033 175.52 80.7682 175.211 79.5386C174.902 78.3096 174.565 77.0899 174.194 75.8777C173.826 74.6655 173.428 73.4633 173 72.2705C172.573 71.0777 172.116 69.897 171.63 68.7276C171.145 67.5583 170.631 66.4004 170.089 65.2539C169.547 64.1093 168.977 62.9789 168.379 61.8612C167.782 60.7442 167.156 59.6419 166.505 58.5557C165.853 57.4695 165.174 56.4001 164.471 55.3474C163.767 54.2941 163.037 53.2595 162.282 52.2411C161.527 51.2239 160.748 50.2263 159.943 49.2473C159.139 48.2678 158.311 47.309 157.461 46.3703C156.611 45.4323 155.737 44.5144 154.84 43.6193C153.945 42.7242 153.027 41.8499 152.088 40.9997C151.15 40.1488 150.192 39.3215 149.212 38.5176C148.232 37.7143 147.234 36.9352 146.216 36.1802C145.199 35.4253 144.163 34.6958 143.111 33.9918C142.058 33.2871 140.988 32.6106 139.901 31.9589C138.814 31.3065 137.713 30.6816 136.596 30.0849C135.479 29.4868 134.347 28.9175 133.202 28.3751C132.057 27.8334 130.9 27.3191 129.73 26.8337C128.56 26.3482 127.377 25.8916 126.184 25.4645C124.993 25.0361 123.789 24.6385 122.578 24.2697C121.365 23.901 120.144 23.563 118.916 23.2546C117.687 22.9462 116.451 22.6673 115.208 22.4192C113.967 22.1711 112.718 21.9532 111.465 21.7661C110.212 21.5797 108.954 21.4235 107.694 21.2981C106.434 21.1728 105.171 21.0782 103.905 21.0152C102.639 20.9522 101.373 20.9193 100.106 20.918L100.108 20.9207ZM133.909 84.6678C134.815 84.8012 134.933 85.0366 138.225 82.7361C139.4 81.6439 141.398 82.4002 142.389 81.0565C142.506 80.838 142.489 80.4531 142.238 80.368C140.055 79.8483 138.426 81.2248 136.764 82.7187C135.202 83.5575 133.405 82.5853 132.079 81.8296C131.637 81.5976 131.294 81.2631 131.051 80.8286C130.808 80.3934 130.702 79.9261 130.736 79.4293C129.92 78.2076 129.035 77.0383 128.083 75.9206L126.403 73.9045C125.415 72.7291 124.257 71.7549 122.928 70.9838L121.4 69.7253C121.265 69.5396 121.047 69.7253 120.98 69.8085C123.146 72.3101 126.017 74.6273 127.58 77.448C128.862 79.2764 129.73 81.2872 130.182 83.475C130.941 87.8318 131.075 92.2081 130.584 96.6038C130.389 99.7973 130.534 102.977 131.02 106.139C131.355 109.025 132.16 111.774 133.439 114.382C133.287 113.691 133.198 112.991 133.171 112.284C132.18 107.448 131.138 101.338 131.911 97.0235C132.785 92.8041 132.785 88.5841 131.911 84.3647C132.247 83.6439 133.523 84.5833 133.859 84.6684H133.91L133.909 84.6678ZM108.721 72.646C106.997 74.2002 105.489 75.9394 104.198 77.8711C102.908 79.8001 101.874 81.8591 101.099 84.0449C101.921 82.7401 102.816 81.4857 103.785 80.2855C105.399 77.1074 107.693 74.5387 110.669 72.5789C112.292 71.4639 114.037 70.5876 115.902 69.952C117.766 69.3163 119.683 68.9429 121.651 68.8349C121.802 68.8349 122.104 68.9529 122.187 68.8349C121.886 68.617 121.483 68.617 121.164 68.3998C121.095 68.3669 121.046 68.3166 121.013 68.2469C121.013 68.1463 121.013 68.0283 120.828 67.8949C120.643 67.7615 120.088 67.7092 119.803 67.443C119.544 67.1473 119.449 66.8054 119.518 66.4185C119.668 65.8814 120.324 66.2153 120.744 66.0993C120.879 66.0993 121.986 65.63 121.986 65.63C120.995 64.4372 118.846 64.9743 118.241 65.2934C116.307 65.7111 114.477 66.4051 112.75 67.3753V67.2901C113.473 66.2676 110.904 67.6938 108.923 69.557C108.923 69.3559 108.67 69.0025 107.948 67.8775C108.249 66.3716 108.898 65.0339 109.896 63.8666C111.954 61.8719 114.339 60.4123 117.049 59.4843C118.032 60.2286 118.961 61.0345 119.837 61.9008C120.159 62.3453 120.388 62.8321 120.524 63.3617C120.878 61.9356 122.54 61.5159 123.581 60.8608C123.363 60.9943 122.423 60.592 122.137 60.5591C122.122 60.3291 122.177 60.1206 122.301 59.9268C122.425 59.7351 122.594 59.5983 122.808 59.5172C123.178 59.2832 123.313 58.4095 123.313 58.0408C123.313 57.672 123.313 56.966 122.943 56.6797C120.425 54.7158 115.622 53.2052 115.084 54.0105C114.951 54.1962 116.244 55.0853 116.579 55.5224C115.744 55.1972 114.887 54.9404 114.011 54.7514C113.373 54.7279 112.742 54.7728 112.113 54.8848C110.803 55.1034 102.441 60.1736 101.787 60.4927C101.787 62.5243 107.159 60.1233 108.15 59.6694C105.732 60.8622 99.2005 66.2341 98.0755 68.7196C100.275 68.6016 104.102 65.5455 105.48 65.1439C107.411 64.572 106.185 67.9465 106.185 67.9465C106.185 67.9465 104.003 69.4229 107.193 69.1045C107.983 69.0213 107.562 69.2728 107.193 69.777C106.571 70.6157 106.235 71.6557 106.438 71.7737C106.921 71.5806 107.38 71.3405 107.814 71.0529C109.783 70.2993 111.786 69.6549 113.825 69.1219C112.315 70.0612 110.635 70.5836 109.108 71.4719V71.7234C109.679 71.9594 109.14 72.3791 108.721 72.6473V72.646ZM140.071 76.4061C140.42 76.6246 140.789 76.7983 141.18 76.9277C141.276 76.9491 141.367 76.9337 141.453 76.8814C141.536 76.8291 141.591 76.754 141.616 76.6595C141.817 76.0219 140.608 75.4493 140.222 75.0798C139.899 74.8458 139.608 74.577 139.349 74.2739C139.181 74.0225 139.198 73.3513 138.828 73.2843C138.365 73.2514 137.968 73.3962 137.636 73.7214C137.334 73.9548 136.982 74.1405 136.679 74.3919C136.376 74.6433 136.141 74.7459 136.125 75.0295C136.125 74.8613 137.955 75.4835 138.106 75.5498C138.767 75.8187 139.421 76.1043 140.071 76.4061H140.071ZM89.1258 106.475C88.3702 106.239 87.7151 105.735 86.9937 105.433C85.9618 104.798 84.8428 104.428 83.6352 104.326L84.071 104.595C85.5662 104.863 86.6403 106.272 87.9505 106.961C88.5043 107.303 89.1057 107.473 89.7554 107.473C90.4051 107.473 91.0072 107.303 91.561 106.961C91.844 106.776 92.0666 106.535 92.2275 106.238C92.3884 105.94 92.4689 105.621 92.4682 105.283C92.5212 104.68 92.4092 104.107 92.1329 103.569C91.8574 103.029 91.4598 102.604 90.9401 102.295C90.4621 102.696 90.0772 103.173 89.7869 103.726C89.4959 104.276 89.3203 104.863 89.2606 105.484C89.6635 105.032 89.8647 104.444 90.4359 104.09C90.6552 104.05 90.8664 104.076 91.0696 104.168C91.2727 104.261 91.4316 104.402 91.5436 104.595C91.5872 104.868 91.5597 105.132 91.4604 105.391C91.3612 105.648 91.205 105.865 90.9891 106.038C90.4366 106.477 89.8157 106.624 89.1258 106.475Z" fill="#221F21"/>
</svg>
