<svg width="200" height="200" viewBox="0 0 200 200" fill="none" xmlns="http://www.w3.org/2000/svg">
<path d="M78.9488 77.2384V109.804H97.1065L98.8828 100.528H104.541C101.185 114.606 85.6592 123.948 67.4358 122.501C50.1333 121.185 31.5809 111.383 31.6467 93.0935C31.7125 72.8964 49.8044 61.2518 66.7121 60.5281C78.0277 60.0676 90.725 64.4096 99.8696 71.9753C100.396 72.4359 100.527 72.5016 100.593 72.5674C100.659 72.6332 100.725 72.6332 101.185 73.028L101.712 73.4227H121.909V37.3047H100.922V47.3704C92.3697 42.3704 78.8172 37.5678 63.2253 37.6336C45.3965 37.6994 28.0283 45.002 15.5285 57.6334C5.33121 68.028 -0.129254 80.6594 0.00232335 93.3567C0.133901 105.791 5.79173 117.698 15.7916 126.843C28.5546 138.488 47.2386 144.54 65.6595 143.027C80.0014 141.843 92.7644 138.685 102.106 134.014V137.567H124.343V100.593H129.672V141.711H119.014V162.698H168.29V141.711H157.632V100.528H180.132L181.777 109.804H200V77.2384H78.9488Z" fill="#003057"/>
<path d="M82.4994 106.253H94.0782L95.8545 96.9771H108.749L108.42 99.0166C105.854 116.056 88.0914 127.7 67.1048 126.122C48.2234 124.674 27.9605 113.687 28.0263 93.1614C28.0921 73.4906 44.6709 57.9644 66.5127 57.0434C78.6836 56.5171 92.3019 61.1881 102.104 69.2801C102.499 69.609 102.499 69.609 102.565 69.6748C102.631 69.7406 102.696 69.7406 102.894 69.938H118.223V40.8594H104.407V53.4908L101.447 51.9777C93.8808 46.7146 79.9994 41.1883 63.5522 41.1883H63.2891C46.3156 41.2541 29.8684 48.1619 18.0922 60.1355C8.61865 69.8064 3.42134 81.5826 3.6187 93.293C3.75028 104.74 8.94759 115.727 18.2238 124.148C30.2631 135.135 47.8945 140.858 65.3943 139.411C80.6573 138.161 94.0124 134.608 103.091 129.411L105.789 127.832L105.723 133.95H120.723V96.9771H133.222V145.266H122.565V159.082H164.669V145.266H154.012V96.9771H183.09L184.735 106.253H196.38V80.7931H82.4994V106.253Z" fill="#B3A369"/>
</svg>
