<svg width="200" height="200" viewBox="0 0 200 200" fill="none" xmlns="http://www.w3.org/2000/svg">
<path fill-rule="evenodd" clip-rule="evenodd" d="M160.397 129.163C159.314 127.052 157.706 125.254 155.728 123.943C156.073 125.298 156.225 126.695 156.178 128.093C157.614 128.322 159.026 128.681 160.397 129.163ZM141.529 136.814C141.879 136.855 142.239 136.883 142.616 136.895C143.894 136.93 145.305 136.789 146.716 136.551C147.04 134.95 147.393 132.785 147.517 130.49C146.118 130.583 144.622 130.752 143.032 131.016C142.844 133.016 142.337 134.974 141.529 136.814ZM135.314 132.913C136.173 134.661 137.985 136.161 140.73 136.693C140.887 135.307 141.036 133.429 141.008 131.398C139.085 131.803 137.184 132.309 135.314 132.913ZM147.791 136.355C149.564 135.992 151.317 135.536 153.043 134.989C153.312 133.731 153.566 132.198 153.679 130.564C152.319 130.436 150.953 130.382 149.587 130.403C149.31 132.47 148.703 134.48 147.791 136.355ZM155.828 130.846C155.544 132.11 155.111 133.337 154.538 134.499C155.263 134.251 155.694 134.085 155.694 134.085L160.43 132.024C159.369 131.637 157.83 131.176 155.828 130.846ZM149.048 121.475C149 121.467 148.955 121.465 148.908 121.457C149.263 122.662 149.791 124.909 149.777 127.692C151.089 127.659 152.403 127.694 153.712 127.796C153.607 125.849 153.204 123.914 152.303 122.275C151.244 121.91 150.155 121.642 149.048 121.475ZM139.445 123.035C135.9 125.307 134.814 129.064 134.741 130.206C136.758 129.615 138.802 129.117 140.864 128.713C140.666 126.717 140.235 124.73 139.445 123.035ZM141.733 121.94C142.528 123.979 142.987 126.133 143.093 128.319C144.57 128.084 146.056 127.911 147.548 127.802C147.458 125.414 147.029 123.074 145.986 121.245C144.351 121.261 142.946 121.52 141.733 121.94ZM120.149 101.014C115.608 101.805 111.345 99.1274 110.631 95.034C110.042 91.6579 111.61 88.7018 114.725 87.3228C113.608 86.5951 112.459 85.9178 111.281 85.293C107.383 87.6203 105.115 92.1773 105.943 96.9205C107.012 103.063 112.857 107.173 119 106.106C122.901 105.424 125.975 102.814 127.431 99.4308C126.926 98.6526 126.386 97.8976 125.812 97.1682C124.814 99.1084 122.858 100.541 120.149 101.014Z" fill="white"/>
<path fill-rule="evenodd" clip-rule="evenodd" d="M123.15 95.6998C123.546 95.6301 123.894 95.4629 124.184 95.2361C123.144 94.0916 122.043 93.0048 120.884 91.9805C120.369 92.4402 120.095 93.1098 120.216 93.7953C120.406 94.8958 121.951 95.9087 123.15 95.6998Z" fill="white"/>
<mask id="path-3-outside-1_107_19970" maskUnits="userSpaceOnUse" x="16.9297" y="4.06641" width="165" height="194" fill="black">
<rect fill="white" x="16.9297" y="4.06641" width="165" height="194"/>
<path fill-rule="evenodd" clip-rule="evenodd" d="M158.754 90.3694C158.754 90.3694 161.044 73.4645 130.331 62.3136C123.533 59.846 117.363 57.4033 111.739 55.1367C98.0318 49.2036 71.0565 35.2189 59.4738 13.0664C59.4738 13.0664 47.4195 35.3921 52.482 52.291C52.482 52.291 50.1308 49.511 46.6712 45.4315C46.6712 45.4315 44.5678 61.4042 48.4732 70.1641C48.4732 70.1641 31.7214 82.0652 29.7802 87.6392C34.205 88.8361 34.0796 88.5247 35.1452 89.066C35.1452 89.066 26.0958 100.243 22.9297 109.493C22.9297 109.493 26.446 109.155 30.5424 109.106C30.3414 112.98 29.9623 130.627 37.3621 136.699L105.675 187.933C105.675 187.933 99.1283 152.069 117.915 149.807C120.5 150.285 123.249 151.72 133.211 151.822C153.791 152.43 164.681 141.365 164.681 141.365L173.22 139.505C173.22 139.505 175.42 136.443 176.796 127.037C179.737 100.336 158.754 90.3694 158.754 90.3694ZM97.0746 172.247L44.3837 133.474C33.8736 124.136 37.8625 105.445 37.8625 105.445L30.8389 105.377C32.5383 101.071 43.936 87.8889 43.936 87.8889C42.1798 87.2034 38.769 86.1914 38.769 86.1914C39.8864 84.8621 50.4403 75.8763 50.4403 75.8763C57.5913 83.8383 61.4618 84.2323 61.4618 84.2323C64.9323 86.4133 81.6323 88.4759 81.6323 88.4759C52.4681 80.9687 52.687 60.7077 52.687 60.7077C56.6828 65.7891 63.004 65.9254 63.004 65.9254C52.0064 48.3111 58.7644 28.6589 58.7644 28.6589C83.3666 53.3308 117.211 65.0807 117.211 65.0807L131.991 70.6158C152.68 78.3708 150.39 90.1654 150.39 90.1654C150.39 90.1654 141.46 89.0491 133.869 95.9702C133.869 95.9702 135.617 93.5673 137.113 91.5346C137.914 90.459 140.333 85.685 135.236 81.3607C135.236 81.3607 137.62 87.7247 133.38 87.7377C129.137 87.7496 121.722 82.8443 119.267 80.124C115.001 75.3848 103.616 68.5691 95.6597 70.7362C95.6597 70.7362 112.198 78.6176 105.945 81.6443C105.014 82.098 94.0647 81.7687 93.3792 98.6438C92.8767 111.071 106.579 114.652 106.579 114.652C106.579 114.652 106.346 115.091 106.025 115.894C103.308 117.256 99.2278 118.312 93.3573 117.635C93.3573 117.635 98.1293 122.745 104.155 124.527C104.105 125.341 104.085 126.157 104.096 126.973C101.383 128.38 97.2537 129.494 91.2618 128.802C91.2618 128.802 98.0368 136.057 105.636 136.291C105.709 136.52 105.791 136.75 105.866 136.979C103.192 138.582 98.8367 140.041 92.1922 139.272C92.1922 139.272 99.1929 146.772 106.941 146.772C107.347 146.772 107.71 146.727 108.046 146.663C97.0746 152.006 97.0746 172.247 97.0746 172.247ZM120.884 91.9793C122.042 93.0036 123.144 94.0904 124.183 95.2349C123.882 95.4725 123.527 95.6318 123.149 95.6986C121.95 95.9076 120.405 94.8937 120.215 93.7942C120.095 93.1086 120.369 92.439 120.884 91.9793ZM105.946 96.9205C105.118 92.1773 107.386 87.6213 111.284 85.293C111.816 85.5706 113.08 86.2581 114.728 87.3228C111.612 88.7028 110.044 91.6579 110.633 95.034C111.349 99.1273 115.61 101.805 120.151 101.014C122.861 100.541 124.817 99.1094 125.814 97.1672C126.381 97.8916 126.925 98.6458 127.433 99.4298C125.977 102.813 122.903 105.423 119.002 106.105C112.86 107.173 107.015 103.063 105.946 96.9205ZM152.306 122.277C153.207 123.915 153.61 125.851 153.715 127.798C152.406 127.695 151.092 127.66 149.779 127.694C149.79 125.585 149.497 123.485 148.911 121.459C148.958 121.467 149.002 121.469 149.051 121.477C150.246 121.659 151.325 121.937 152.306 122.277ZM145.988 121.247C147.032 123.076 147.461 125.415 147.551 127.804C146.059 127.913 144.573 128.085 143.096 128.321C142.99 126.135 142.531 123.981 141.736 121.942C142.949 121.521 144.354 121.262 145.988 121.247ZM139.447 123.036C140.238 124.731 140.67 126.717 140.868 128.714C138.805 129.118 136.762 129.616 134.745 130.207C134.816 129.065 135.902 125.309 139.447 123.036ZM141.011 131.399C141.029 133.168 140.936 134.937 140.734 136.694C137.988 136.162 136.177 134.662 135.318 132.914C137.188 132.31 139.089 131.804 141.011 131.399ZM143.034 131.018C144.52 130.769 146.017 130.593 147.52 130.492C147.395 132.787 147.043 134.951 146.719 136.553C145.308 136.79 143.897 136.932 142.618 136.897C142.241 136.885 141.882 136.857 141.532 136.816C142.34 134.976 142.847 133.018 143.034 131.018ZM149.589 130.404C151.088 130.384 152.448 130.447 153.682 130.565C153.574 132.053 153.361 133.532 153.046 134.99C151.32 135.537 149.567 135.993 147.793 136.356C148.706 134.481 149.312 132.471 149.589 130.404ZM155.831 130.847C157.833 131.177 159.372 131.638 160.433 132.025L155.697 134.086C155.697 134.086 155.265 134.252 154.54 134.5C155.114 133.338 155.547 132.111 155.831 130.847ZM155.73 123.943C157.709 125.254 159.317 127.052 160.4 129.163C159.028 128.681 157.617 128.323 156.181 128.093C156.228 126.695 156.076 125.298 155.73 123.943ZM167.781 134.195C167.781 134.195 165.081 122.548 149.966 117.431C133.916 112.004 129.818 127.98 129.691 130.664C129.468 135.353 133.262 140.487 140.852 140.711C148.445 140.937 159.384 136.472 159.384 136.472L159.16 136.917C156.704 139.821 148.221 144.732 141.522 145.623C134.824 146.517 119.418 149.864 115.175 134.346C109.216 112.56 131.437 111.648 131.437 111.648C131.437 111.648 130.959 107.987 137.117 100.995C143.275 94.0011 158.296 93.5017 165.76 107.06C173.226 120.619 169.254 131.69 167.781 134.195Z"/>
</mask>
<path fill-rule="evenodd" clip-rule="evenodd" d="M158.754 90.3694C158.754 90.3694 161.044 73.4645 130.331 62.3136C123.533 59.846 117.363 57.4033 111.739 55.1367C98.0318 49.2036 71.0565 35.2189 59.4738 13.0664C59.4738 13.0664 47.4195 35.3921 52.482 52.291C52.482 52.291 50.1308 49.511 46.6712 45.4315C46.6712 45.4315 44.5678 61.4042 48.4732 70.1641C48.4732 70.1641 31.7214 82.0652 29.7802 87.6392C34.205 88.8361 34.0796 88.5247 35.1452 89.066C35.1452 89.066 26.0958 100.243 22.9297 109.493C22.9297 109.493 26.446 109.155 30.5424 109.106C30.3414 112.98 29.9623 130.627 37.3621 136.699L105.675 187.933C105.675 187.933 99.1283 152.069 117.915 149.807C120.5 150.285 123.249 151.72 133.211 151.822C153.791 152.43 164.681 141.365 164.681 141.365L173.22 139.505C173.22 139.505 175.42 136.443 176.796 127.037C179.737 100.336 158.754 90.3694 158.754 90.3694ZM97.0746 172.247L44.3837 133.474C33.8736 124.136 37.8625 105.445 37.8625 105.445L30.8389 105.377C32.5383 101.071 43.936 87.8889 43.936 87.8889C42.1798 87.2034 38.769 86.1914 38.769 86.1914C39.8864 84.8621 50.4403 75.8763 50.4403 75.8763C57.5913 83.8383 61.4618 84.2323 61.4618 84.2323C64.9323 86.4133 81.6323 88.4759 81.6323 88.4759C52.4681 80.9687 52.687 60.7077 52.687 60.7077C56.6828 65.7891 63.004 65.9254 63.004 65.9254C52.0064 48.3111 58.7644 28.6589 58.7644 28.6589C83.3666 53.3308 117.211 65.0807 117.211 65.0807L131.991 70.6158C152.68 78.3708 150.39 90.1654 150.39 90.1654C150.39 90.1654 141.46 89.0491 133.869 95.9702C133.869 95.9702 135.617 93.5673 137.113 91.5346C137.914 90.459 140.333 85.685 135.236 81.3607C135.236 81.3607 137.62 87.7247 133.38 87.7377C129.137 87.7496 121.722 82.8443 119.267 80.124C115.001 75.3848 103.616 68.5691 95.6597 70.7362C95.6597 70.7362 112.198 78.6176 105.945 81.6443C105.014 82.098 94.0647 81.7687 93.3792 98.6438C92.8767 111.071 106.579 114.652 106.579 114.652C106.579 114.652 106.346 115.091 106.025 115.894C103.308 117.256 99.2278 118.312 93.3573 117.635C93.3573 117.635 98.1293 122.745 104.155 124.527C104.105 125.341 104.085 126.157 104.096 126.973C101.383 128.38 97.2537 129.494 91.2618 128.802C91.2618 128.802 98.0368 136.057 105.636 136.291C105.709 136.52 105.791 136.75 105.866 136.979C103.192 138.582 98.8367 140.041 92.1922 139.272C92.1922 139.272 99.1929 146.772 106.941 146.772C107.347 146.772 107.71 146.727 108.046 146.663C97.0746 152.006 97.0746 172.247 97.0746 172.247ZM120.884 91.9793C122.042 93.0036 123.144 94.0904 124.183 95.2349C123.882 95.4725 123.527 95.6318 123.149 95.6986C121.95 95.9076 120.405 94.8937 120.215 93.7942C120.095 93.1086 120.369 92.439 120.884 91.9793ZM105.946 96.9205C105.118 92.1773 107.386 87.6213 111.284 85.293C111.816 85.5706 113.08 86.2581 114.728 87.3228C111.612 88.7028 110.044 91.6579 110.633 95.034C111.349 99.1273 115.61 101.805 120.151 101.014C122.861 100.541 124.817 99.1094 125.814 97.1672C126.381 97.8916 126.925 98.6458 127.433 99.4298C125.977 102.813 122.903 105.423 119.002 106.105C112.86 107.173 107.015 103.063 105.946 96.9205ZM152.306 122.277C153.207 123.915 153.61 125.851 153.715 127.798C152.406 127.695 151.092 127.66 149.779 127.694C149.79 125.585 149.497 123.485 148.911 121.459C148.958 121.467 149.002 121.469 149.051 121.477C150.246 121.659 151.325 121.937 152.306 122.277ZM145.988 121.247C147.032 123.076 147.461 125.415 147.551 127.804C146.059 127.913 144.573 128.085 143.096 128.321C142.99 126.135 142.531 123.981 141.736 121.942C142.949 121.521 144.354 121.262 145.988 121.247ZM139.447 123.036C140.238 124.731 140.67 126.717 140.868 128.714C138.805 129.118 136.762 129.616 134.745 130.207C134.816 129.065 135.902 125.309 139.447 123.036ZM141.011 131.399C141.029 133.168 140.936 134.937 140.734 136.694C137.988 136.162 136.177 134.662 135.318 132.914C137.188 132.31 139.089 131.804 141.011 131.399ZM143.034 131.018C144.52 130.769 146.017 130.593 147.52 130.492C147.395 132.787 147.043 134.951 146.719 136.553C145.308 136.79 143.897 136.932 142.618 136.897C142.241 136.885 141.882 136.857 141.532 136.816C142.34 134.976 142.847 133.018 143.034 131.018ZM149.589 130.404C151.088 130.384 152.448 130.447 153.682 130.565C153.574 132.053 153.361 133.532 153.046 134.99C151.32 135.537 149.567 135.993 147.793 136.356C148.706 134.481 149.312 132.471 149.589 130.404ZM155.831 130.847C157.833 131.177 159.372 131.638 160.433 132.025L155.697 134.086C155.697 134.086 155.265 134.252 154.54 134.5C155.114 133.338 155.547 132.111 155.831 130.847ZM155.73 123.943C157.709 125.254 159.317 127.052 160.4 129.163C159.028 128.681 157.617 128.323 156.181 128.093C156.228 126.695 156.076 125.298 155.73 123.943ZM167.781 134.195C167.781 134.195 165.081 122.548 149.966 117.431C133.916 112.004 129.818 127.98 129.691 130.664C129.468 135.353 133.262 140.487 140.852 140.711C148.445 140.937 159.384 136.472 159.384 136.472L159.16 136.917C156.704 139.821 148.221 144.732 141.522 145.623C134.824 146.517 119.418 149.864 115.175 134.346C109.216 112.56 131.437 111.648 131.437 111.648C131.437 111.648 130.959 107.987 137.117 100.995C143.275 94.0011 158.296 93.5017 165.76 107.06C173.226 120.619 169.254 131.69 167.781 134.195Z" fill="white"/>
<path fill-rule="evenodd" clip-rule="evenodd" d="M158.754 90.3694C158.754 90.3694 161.044 73.4645 130.331 62.3136C123.533 59.846 117.363 57.4033 111.739 55.1367C98.0318 49.2036 71.0565 35.2189 59.4738 13.0664C59.4738 13.0664 47.4195 35.3921 52.482 52.291C52.482 52.291 50.1308 49.511 46.6712 45.4315C46.6712 45.4315 44.5678 61.4042 48.4732 70.1641C48.4732 70.1641 31.7214 82.0652 29.7802 87.6392C34.205 88.8361 34.0796 88.5247 35.1452 89.066C35.1452 89.066 26.0958 100.243 22.9297 109.493C22.9297 109.493 26.446 109.155 30.5424 109.106C30.3414 112.98 29.9623 130.627 37.3621 136.699L105.675 187.933C105.675 187.933 99.1283 152.069 117.915 149.807C120.5 150.285 123.249 151.72 133.211 151.822C153.791 152.43 164.681 141.365 164.681 141.365L173.22 139.505C173.22 139.505 175.42 136.443 176.796 127.037C179.737 100.336 158.754 90.3694 158.754 90.3694ZM97.0746 172.247L44.3837 133.474C33.8736 124.136 37.8625 105.445 37.8625 105.445L30.8389 105.377C32.5383 101.071 43.936 87.8889 43.936 87.8889C42.1798 87.2034 38.769 86.1914 38.769 86.1914C39.8864 84.8621 50.4403 75.8763 50.4403 75.8763C57.5913 83.8383 61.4618 84.2323 61.4618 84.2323C64.9323 86.4133 81.6323 88.4759 81.6323 88.4759C52.4681 80.9687 52.687 60.7077 52.687 60.7077C56.6828 65.7891 63.004 65.9254 63.004 65.9254C52.0064 48.3111 58.7644 28.6589 58.7644 28.6589C83.3666 53.3308 117.211 65.0807 117.211 65.0807L131.991 70.6158C152.68 78.3708 150.39 90.1654 150.39 90.1654C150.39 90.1654 141.46 89.0491 133.869 95.9702C133.869 95.9702 135.617 93.5673 137.113 91.5346C137.914 90.459 140.333 85.685 135.236 81.3607C135.236 81.3607 137.62 87.7247 133.38 87.7377C129.137 87.7496 121.722 82.8443 119.267 80.124C115.001 75.3848 103.616 68.5691 95.6597 70.7362C95.6597 70.7362 112.198 78.6176 105.945 81.6443C105.014 82.098 94.0647 81.7687 93.3792 98.6438C92.8767 111.071 106.579 114.652 106.579 114.652C106.579 114.652 106.346 115.091 106.025 115.894C103.308 117.256 99.2278 118.312 93.3573 117.635C93.3573 117.635 98.1293 122.745 104.155 124.527C104.105 125.341 104.085 126.157 104.096 126.973C101.383 128.38 97.2537 129.494 91.2618 128.802C91.2618 128.802 98.0368 136.057 105.636 136.291C105.709 136.52 105.791 136.75 105.866 136.979C103.192 138.582 98.8367 140.041 92.1922 139.272C92.1922 139.272 99.1929 146.772 106.941 146.772C107.347 146.772 107.71 146.727 108.046 146.663C97.0746 152.006 97.0746 172.247 97.0746 172.247ZM120.884 91.9793C122.042 93.0036 123.144 94.0904 124.183 95.2349C123.882 95.4725 123.527 95.6318 123.149 95.6986C121.95 95.9076 120.405 94.8937 120.215 93.7942C120.095 93.1086 120.369 92.439 120.884 91.9793ZM105.946 96.9205C105.118 92.1773 107.386 87.6213 111.284 85.293C111.816 85.5706 113.08 86.2581 114.728 87.3228C111.612 88.7028 110.044 91.6579 110.633 95.034C111.349 99.1273 115.61 101.805 120.151 101.014C122.861 100.541 124.817 99.1094 125.814 97.1672C126.381 97.8916 126.925 98.6458 127.433 99.4298C125.977 102.813 122.903 105.423 119.002 106.105C112.86 107.173 107.015 103.063 105.946 96.9205ZM152.306 122.277C153.207 123.915 153.61 125.851 153.715 127.798C152.406 127.695 151.092 127.66 149.779 127.694C149.79 125.585 149.497 123.485 148.911 121.459C148.958 121.467 149.002 121.469 149.051 121.477C150.246 121.659 151.325 121.937 152.306 122.277ZM145.988 121.247C147.032 123.076 147.461 125.415 147.551 127.804C146.059 127.913 144.573 128.085 143.096 128.321C142.99 126.135 142.531 123.981 141.736 121.942C142.949 121.521 144.354 121.262 145.988 121.247ZM139.447 123.036C140.238 124.731 140.67 126.717 140.868 128.714C138.805 129.118 136.762 129.616 134.745 130.207C134.816 129.065 135.902 125.309 139.447 123.036ZM141.011 131.399C141.029 133.168 140.936 134.937 140.734 136.694C137.988 136.162 136.177 134.662 135.318 132.914C137.188 132.31 139.089 131.804 141.011 131.399ZM143.034 131.018C144.52 130.769 146.017 130.593 147.52 130.492C147.395 132.787 147.043 134.951 146.719 136.553C145.308 136.79 143.897 136.932 142.618 136.897C142.241 136.885 141.882 136.857 141.532 136.816C142.34 134.976 142.847 133.018 143.034 131.018ZM149.589 130.404C151.088 130.384 152.448 130.447 153.682 130.565C153.574 132.053 153.361 133.532 153.046 134.99C151.32 135.537 149.567 135.993 147.793 136.356C148.706 134.481 149.312 132.471 149.589 130.404ZM155.831 130.847C157.833 131.177 159.372 131.638 160.433 132.025L155.697 134.086C155.697 134.086 155.265 134.252 154.54 134.5C155.114 133.338 155.547 132.111 155.831 130.847ZM155.73 123.943C157.709 125.254 159.317 127.052 160.4 129.163C159.028 128.681 157.617 128.323 156.181 128.093C156.228 126.695 156.076 125.298 155.73 123.943ZM167.781 134.195C167.781 134.195 165.081 122.548 149.966 117.431C133.916 112.004 129.818 127.98 129.691 130.664C129.468 135.353 133.262 140.487 140.852 140.711C148.445 140.937 159.384 136.472 159.384 136.472L159.16 136.917C156.704 139.821 148.221 144.732 141.522 145.623C134.824 146.517 119.418 149.864 115.175 134.346C109.216 112.56 131.437 111.648 131.437 111.648C131.437 111.648 130.959 107.987 137.117 100.995C143.275 94.0011 158.296 93.5017 165.76 107.06C173.226 120.619 169.254 131.69 167.781 134.195Z" stroke="white" stroke-width="8" mask="url(#path-3-outside-1_107_19970)"/>
<path fill-rule="evenodd" clip-rule="evenodd" d="M165.757 107.059C158.292 93.5014 143.272 93.9999 137.114 100.994C130.956 107.986 131.433 111.647 131.433 111.647C131.433 111.647 109.213 112.559 115.171 134.345C119.416 149.863 134.82 146.516 141.519 145.622C148.217 144.731 156.7 139.819 159.157 136.916L159.381 136.471C159.381 136.471 148.442 140.935 140.849 140.71C133.258 140.486 129.465 135.352 129.688 130.662C129.814 127.979 133.913 112.002 149.963 117.43C165.078 122.547 167.777 134.194 167.777 134.194C169.251 131.689 173.223 120.618 165.757 107.059Z" fill="#E7BC39"/>
<path fill-rule="evenodd" clip-rule="evenodd" d="M131.987 70.618L117.207 65.0829C117.207 65.0829 83.3626 53.332 58.7614 28.6602C58.7614 28.6602 52.0034 48.3123 63.0011 65.9266C63.0011 65.9266 56.6799 65.7903 52.684 60.7089C52.684 60.7089 52.4661 80.9699 81.6293 88.4772C81.6293 88.4772 64.9294 86.4145 61.4588 84.2335C61.4588 84.2335 57.5883 83.8395 50.4373 75.8776C50.4373 75.8776 39.8834 84.8624 38.766 86.1927C38.766 86.1927 42.1769 87.2046 43.933 87.8901C43.933 87.8901 32.5344 101.072 30.8359 105.378L37.8596 105.446C37.8596 105.446 33.8707 124.137 44.3808 133.475L97.0716 172.249C97.0716 172.249 97.0716 152.006 108.045 146.666C107.681 146.737 107.311 146.774 106.94 146.775C99.192 146.775 92.1912 139.276 92.1912 139.276C98.8358 140.045 103.191 138.586 105.865 136.982C105.79 136.753 105.708 136.523 105.635 136.295C98.0358 136.06 91.2609 128.805 91.2609 128.805C97.2527 129.497 101.383 128.383 104.095 126.976C104.083 126.126 104.105 125.313 104.154 124.53C98.1283 122.748 93.3563 117.638 93.3563 117.638C99.2268 118.315 103.306 117.259 106.024 115.897C106.344 115.094 106.578 114.655 106.578 114.655C106.578 114.655 92.8757 111.073 93.3782 98.647C94.0638 81.7719 105.013 82.1012 105.944 81.6475C112.198 78.6208 95.6587 70.7394 95.6587 70.7394C103.614 68.5723 114.999 75.387 119.266 80.1272C121.721 82.8475 129.136 87.7528 133.379 87.7409C137.62 87.7279 135.235 81.3639 135.235 81.3639C140.332 85.6872 137.912 90.4622 137.112 91.5378C135.616 93.5695 133.868 95.9734 133.868 95.9734C141.459 89.0513 150.389 90.1686 150.389 90.1686C150.389 90.1686 152.676 78.373 131.987 70.618Z" fill="#C93134"/>
<path fill-rule="evenodd" clip-rule="evenodd" d="M158.75 90.3694C158.75 90.3694 161.04 73.4645 130.327 62.3136C123.53 59.846 117.36 57.4033 111.735 55.1367C98.0279 49.2036 71.0526 35.2189 59.4699 13.0664C59.4699 13.0664 47.4156 35.3921 52.4781 52.291C52.4781 52.291 50.1269 49.511 46.6673 45.4315C46.6673 45.4315 44.5639 61.4042 48.4692 70.1641C48.4692 70.1641 31.7175 82.0652 29.7763 87.6392C34.201 88.8361 34.0757 88.5247 35.1413 89.066C35.1413 89.066 26.0918 100.243 22.9258 109.493C22.9258 109.493 26.4421 109.155 30.5385 109.106C30.3375 112.98 29.9584 130.627 37.3582 136.699L105.671 187.933C105.671 187.933 99.1244 152.069 117.911 149.807C120.496 150.285 123.245 151.72 133.207 151.822C153.787 152.43 164.677 141.365 164.677 141.365L173.217 139.505C173.217 139.505 175.416 136.443 176.793 127.037C179.733 100.336 158.75 90.3694 158.75 90.3694ZM97.0707 172.247L44.3798 133.474C33.8697 124.136 37.8586 105.445 37.8586 105.445L30.835 105.377C32.5344 101.071 43.9321 87.8889 43.9321 87.8889C42.1759 87.2034 38.7651 86.1914 38.7651 86.1914C39.8825 84.8621 50.4363 75.8763 50.4363 75.8763C57.5874 83.8383 61.4579 84.2323 61.4579 84.2323C64.9284 86.4133 81.6284 88.4759 81.6284 88.4759C52.4641 80.9687 52.683 60.7077 52.683 60.7077C56.6789 65.7891 63.0001 65.9254 63.0001 65.9254C52.0025 48.3111 58.7605 28.6589 58.7605 28.6589C83.3627 53.3308 117.207 65.0807 117.207 65.0807L131.987 70.6158C152.676 78.3708 150.386 90.1654 150.386 90.1654C150.386 90.1654 141.456 89.0491 133.866 95.9702C133.866 95.9702 135.613 93.5673 137.109 91.5346C137.91 90.459 140.329 85.685 135.232 81.3607C135.232 81.3607 137.616 87.7247 133.376 87.7377C129.133 87.7496 121.718 82.8443 119.263 80.124C114.997 75.3848 103.612 68.5691 95.6558 70.7362C95.6558 70.7362 112.195 78.6176 105.941 81.6443C105.01 82.098 94.0608 81.7687 93.3753 98.6438C92.8728 111.071 106.575 114.652 106.575 114.652C106.575 114.652 106.342 115.091 106.021 115.894C103.304 117.256 99.2238 118.312 93.3534 117.635C93.3534 117.635 98.1254 122.745 104.151 124.527C104.101 125.341 104.081 126.157 104.092 126.973C101.379 128.38 97.2498 129.494 91.2579 128.802C91.2579 128.802 98.0328 136.057 105.632 136.291C105.705 136.52 105.787 136.75 105.862 136.979C103.188 138.582 98.8328 140.041 92.1883 139.272C92.1883 139.272 99.189 146.772 106.937 146.772C107.343 146.772 107.706 146.727 108.042 146.663C97.0707 152.006 97.0707 172.247 97.0707 172.247ZM120.88 91.9793C122.038 93.0036 123.14 94.0904 124.179 95.2349C123.878 95.4725 123.523 95.6318 123.145 95.6986C121.947 95.9076 120.401 94.8937 120.211 93.7942C120.091 93.1086 120.365 92.439 120.88 91.9793ZM105.942 96.9205C105.114 92.1773 107.382 87.6213 111.28 85.293C111.812 85.5706 113.076 86.2581 114.724 87.3228C111.609 88.7028 110.04 91.6579 110.629 95.034C111.345 99.1273 115.606 101.805 120.148 101.014C122.857 100.541 124.813 99.1094 125.81 97.1672C126.377 97.8916 126.921 98.6458 127.429 99.4298C125.973 102.813 122.899 105.423 118.998 106.105C112.856 107.173 107.011 103.063 105.942 96.9205ZM152.302 122.277C153.203 123.915 153.606 125.851 153.711 127.798C152.402 127.695 151.088 127.66 149.775 127.694C149.786 125.585 149.493 123.485 148.907 121.459C148.954 121.467 148.998 121.469 149.047 121.477C150.242 121.659 151.321 121.937 152.302 122.277ZM145.985 121.247C147.028 123.076 147.457 125.415 147.547 127.804C146.055 127.913 144.569 128.085 143.092 128.321C142.986 126.135 142.527 123.981 141.732 121.942C142.945 121.521 144.35 121.262 145.985 121.247ZM139.443 123.036C140.234 124.731 140.666 126.717 140.864 128.714C138.802 129.118 136.758 129.616 134.741 130.207C134.812 129.065 135.898 125.309 139.443 123.036ZM141.008 131.399C141.025 133.168 140.932 134.937 140.73 136.694C137.984 136.162 136.173 134.662 135.314 132.914C137.184 132.31 139.085 131.804 141.008 131.399ZM143.03 131.018C144.516 130.769 146.013 130.593 147.516 130.492C147.391 132.787 147.039 134.951 146.715 136.553C145.304 136.79 143.893 136.932 142.615 136.897C142.237 136.885 141.878 136.857 141.528 136.816C142.336 134.976 142.843 133.018 143.03 131.018ZM149.585 130.404C151.084 130.384 152.444 130.447 153.678 130.565C153.57 132.053 153.357 133.532 153.042 134.99C151.316 135.537 149.563 135.993 147.789 136.356C148.702 134.481 149.308 132.471 149.585 130.404ZM155.827 130.847C157.829 131.177 159.368 131.638 160.429 132.025L155.693 134.086C155.693 134.086 155.261 134.252 154.537 134.5C155.11 133.338 155.543 132.111 155.827 130.847ZM155.727 123.943C157.705 125.254 159.313 127.052 160.396 129.163C159.025 128.681 157.613 128.323 156.177 128.093C156.224 126.695 156.072 125.298 155.727 123.943ZM167.777 134.195C167.777 134.195 165.077 122.548 149.963 117.431C133.912 112.004 129.814 127.98 129.688 130.664C129.464 135.353 133.258 140.487 140.848 140.711C148.441 140.937 159.38 136.472 159.38 136.472L159.156 136.917C156.7 139.821 148.217 144.732 141.518 145.623C134.82 146.517 119.414 149.864 115.171 134.346C109.213 112.56 131.433 111.648 131.433 111.648C131.433 111.648 130.955 107.987 137.113 100.995C143.271 94.0011 158.292 93.5017 165.756 107.06C173.222 120.619 169.25 131.69 167.777 134.195Z" fill="black"/>
</svg>
