<svg width="200" height="200" viewBox="0 0 200 200" fill="none" xmlns="http://www.w3.org/2000/svg">
<path d="M139.86 44.4044L139.999 118.885C139.999 123.652 139.999 138.17 103.435 138.231H96.5646C59.997 138.17 59.997 123.653 59.997 118.883L60.1359 44.4023H9.73438L9.7792 130.059C9.7792 153.754 76.2141 155.597 96.5808 155.597H103.423C123.783 155.597 190.221 153.756 190.221 130.061L190.262 44.404H139.86L139.86 44.4044Z" fill="white"/>
<path d="M143.75 118.889L143.767 48.043H186.515C186.515 48.043 186.462 127.233 186.462 130.066C186.462 145.615 143.783 151.849 103.422 151.849C103.422 149.889 103.434 145.077 103.434 141.984C123.636 141.952 143.747 137.681 143.747 118.889" fill="#005030"/>
<path d="M56.2494 118.889L56.2331 48.043H13.4844C13.4844 48.043 13.5333 127.233 13.5333 130.066C13.5333 145.615 56.2207 151.849 96.582 151.849C96.582 149.889 96.5617 145.077 96.5617 141.984C76.3642 141.952 56.2527 137.681 56.2527 118.889" fill="#F05A00"/>
</svg>
