<svg width="200" height="200" viewBox="0 0 200 200" fill="none" xmlns="http://www.w3.org/2000/svg">
<path d="M61.0944 25.4258L38.3873 49.1288L38.3867 95.7391L59.641 117.395H38.3867L38.3873 151.558L61.1718 174.579H138.827L161.627 151.558V102.484L141.98 82.6007H161.627V49.1288L138.904 25.4258L61.0956 25.4259L61.0944 25.4258ZM63.4034 30.8324H136.594L156.215 51.3045V77.1868H127.247V85.3357H137.183L156.215 104.853V149.329L136.577 169.167H63.4329L43.7975 149.329L43.7977 122.794H71.6195V113.523H63.4218L43.7977 93.5288L43.7979 51.3045L63.4034 30.8324ZM94.6959 59.0247L112.529 72.9794V59.0247H94.6959ZM86.4175 71.348V85.3357H104.592L86.4175 71.348ZM86.4402 119.552V134.096H112.529V129.022H123.017V124.377H112.529V119.552L86.4402 119.552Z" fill="black"/>
<path d="M64.5603 33.5391L46.5039 52.3901V92.4169L64.5603 110.819H72.6273L80.991 104.857H117.978L127.264 111.585V124.375H125.716V129.02H127.264V142.495L118.105 149.088H81.1422L71.6212 142.154V125.5H46.5039V148.213L64.5603 166.459H135.442L153.511 148.213V105.945L135.964 88.0379H127.249V92.2942H113.649L108.109 88.0379H86.4193V92.2282L71.6212 92.2078V52.1525H85.9157L91.2384 56.3201H112.531V52.1525H127.249V74.4822H153.511V52.3901L135.442 33.5391L64.5603 33.5391ZM74.3257 54.8547V89.5305H83.7182V65.8559L114.563 89.5919H124.54V54.8547H115.24V78.5396L84.9835 54.8547H74.3257ZM81.8572 107.566L74.3257 112.929V140.778L81.9345 146.394H117.239L124.573 141.119V131.729H115.24V136.799H83.7398V116.848H115.24V121.67H124.573V112.955L117.101 107.566H81.8572Z" fill="#CC0000"/>
<path d="M165.674 153.23V100.964L151.839 86.6576H165.674V47.497L140.636 21.3634L59.3637 21.3633L34.3281 47.497L34.3282 97.4007L49.9711 113.336H34.3282L34.3284 153.23L59.4854 178.638H140.525L165.674 153.23ZM61.0949 25.4267H138.903L161.626 49.1297V82.6016H141.98L161.626 102.485V151.559L138.826 174.58H61.1722L38.3878 151.559L38.3872 117.396H59.6415L38.3872 95.7399L38.3878 49.1297L61.0949 25.4267ZM63.4038 30.8332L43.798 51.3054L43.7982 93.5297L63.4223 113.524H71.62V122.795H43.7982L43.7984 149.33L63.4339 169.168H136.578L156.216 149.33V104.854L137.184 85.3366H127.248V77.1877H156.216V51.3054L136.595 30.8332H63.4038ZM64.5589 33.5424H135.441L153.509 52.3935V74.4856H127.247V52.1536H112.53V56.3235H91.237L85.9143 52.1536H71.6198V92.2088L86.4179 92.2316V88.0412H108.108L113.647 92.2975H127.247V88.0412H135.962L153.509 105.949V148.216L135.441 166.462H64.5589L46.5025 148.216V125.503H71.6198V142.157L81.1408 149.092H118.104L127.262 142.498V129.023H125.715V124.378H127.262V111.588L117.977 104.861H80.9896L72.6259 110.822H64.5589L46.5025 92.4203V52.3934L64.5589 33.5424ZM74.3243 54.8581H84.9821L115.239 78.543V54.8581H124.538V89.5953H114.561L83.7168 65.8593V89.5339H74.3243V54.8581ZM94.6964 59.0258H112.53V72.9804L94.6964 59.0258ZM86.4179 71.349L104.593 85.3367H86.4179V71.349ZM81.8558 107.57H117.1L124.571 112.958V121.673H115.239V116.851H83.7384V136.802H115.239V131.732H124.571V141.122L117.238 146.397H81.9331L74.3243 140.781V112.932L81.8558 107.57ZM86.4407 119.553H112.53V124.378H123.017V129.023H112.53V134.097H86.4407V119.553Z" fill="white"/>
</svg>
