<svg width="200" height="200" viewBox="0 0 200 200" fill="none" xmlns="http://www.w3.org/2000/svg">
<path d="M159.349 117.998C158.115 111.011 157.454 103.633 157.454 96.0023C157.454 88.3725 158.115 80.9922 159.349 74.0056C163.567 77.0773 166.927 80.519 169.227 84.2285L186.376 67.0813C181.232 60.6937 174.433 54.9934 166.368 50.2169C168.032 46.3827 169.896 42.7925 171.941 39.4971C165.246 35.5639 157.84 32.2157 149.88 29.557C147.847 33.0256 145.971 36.6889 144.266 40.5156C132.464 36.8362 119.298 34.7734 105.409 34.7734C93.3542 34.7734 81.8438 36.3253 71.2993 39.1389L62.3724 29.0859C53.8929 31.8156 45.9985 35.3326 38.9 39.5035L38.9387 39.5476C40.9704 42.8269 42.8224 46.3977 44.4755 50.2115C25.5343 61.4261 13.5938 77.7828 13.5938 96.0023C13.5938 114.22 25.5343 130.575 44.4755 141.79C42.8149 145.625 40.9499 149.212 38.9075 152.505C45.6027 156.439 53.0088 159.787 60.9656 162.447C63.0005 158.977 64.8741 155.318 66.5809 151.49C78.3828 155.17 91.5494 157.228 105.439 157.228C117.493 157.228 129.006 155.68 139.552 152.866L148.475 162.918C156.985 160.187 164.881 156.672 171.978 152.501L171.939 152.457C169.906 149.176 168.054 145.603 166.398 141.786C174.463 137.011 181.262 131.309 186.406 124.922L169.262 107.763C166.963 111.474 163.603 114.915 159.384 117.986M51.5084 117.986C43.0859 111.841 38.0976 104.225 38.0976 95.9733C38.0976 87.7208 43.0859 80.1049 51.5074 73.9701C52.7431 80.9578 53.4046 88.3403 53.4046 95.9733C53.4046 103.606 52.7431 110.987 51.5074 117.974M105.445 132.709C94.1748 132.709 83.5561 131.197 74.2215 128.528C76.6006 118.286 77.8912 107.343 77.8912 95.9733C77.8912 91.483 77.6923 87.0593 77.3019 82.7184L120.825 131.741C115.886 132.371 110.738 132.709 105.445 132.709ZM133.592 109.23L90.063 60.2033C95.0062 59.5741 100.155 59.2396 105.449 59.2396C116.719 59.2396 127.338 60.7518 136.672 63.4202C134.294 73.6635 133.003 84.606 133.003 95.9765C133.003 100.466 133.203 104.889 133.592 109.23Z" fill="#7BAFD4"/>
</svg>
