<svg width="200" height="200" viewBox="0 0 200 200" fill="none" xmlns="http://www.w3.org/2000/svg">
<path d="M59.7248 35.8033C56.3077 35.7852 52.8478 35.8636 51.1909 36.0462C46.016 36.6167 39.7413 37.9418 34.9192 39.4826C17.4258 45.072 4.03347 56.2654 0.591319 68.1737C0.335761 69.0587 0.0811725 70.2254 0.0269927 70.7664C-0.204277 73.0765 1.07288 76.3959 3.00131 78.5002C6.93496 82.7934 13.1251 83.7542 17.2576 80.7126C18.6392 79.6952 19.5855 78.593 21.1923 76.1311C23.1512 73.1298 26.7468 68.7106 27.0116 68.9779C27.06 69.0272 27.0487 69.5908 26.9866 70.2303C26.9236 70.869 26.9672 72.9207 27.0843 74.7891C27.5066 81.5596 28.0484 92.2672 28.7476 107.691C29.1408 116.344 29.5397 124.798 29.6342 126.469C29.7287 128.14 29.8579 130.668 29.92 132.097C30.1195 136.683 30.784 139.211 32.3811 141.447C33.5116 143.03 34.2003 143.587 36.3102 144.604C38.4741 145.646 40.303 146.268 42.7682 146.801C45.155 147.309 50.1046 147.366 52.1984 146.898C54.7975 146.324 57.1537 145.331 58.7306 144.152C59.6261 143.482 61.0488 141.189 61.5866 139.558C62.0476 138.153 62.0734 137.878 62.1518 133.615C62.2196 129.901 62.151 126.566 61.7569 114.501L61.74 113.979L63.9758 113.657C73.1815 112.331 82.3339 108.591 89.3184 103.306L90.5296 102.388L90.5861 107.275C90.6668 115.24 90.2146 118.516 88.5513 121.729C86.5973 125.508 84.8209 126.219 79.7542 125.234C78.4509 124.975 76.9442 124.765 76.4081 124.765C74.2506 124.765 72.2917 126.049 71.2687 128.124C70.6913 129.295 70.6808 129.36 70.6833 131.734C70.6857 134.027 70.7164 134.229 71.2412 135.529C72.8012 139.396 76.7738 142.844 82.0836 144.96C83.9085 145.686 86.5327 146.365 88.0426 146.502C91.4743 146.825 96.3432 145.323 100.162 142.755C100.841 142.303 101.446 141.932 101.503 141.932C101.567 141.94 102.141 142.384 102.779 142.933C105.815 145.525 109.279 147.229 112.912 147.915C115.068 148.327 118.831 148.173 121.108 147.584C124.257 146.76 127.486 144.952 130.442 142.352L131.491 141.431L132.468 142.239C133.89 143.425 135.214 144.289 136.885 145.129C144.58 148.997 153.228 147.568 159.93 141.326L161.335 140.018L162.465 140.979C171.63 148.755 183.967 148.311 192.688 139.897C194.254 138.387 196.136 136.175 197.137 134.689C200.084 130.288 200.803 125.589 199.075 121.947C197.169 117.942 192.712 116.489 188.699 118.572C187.633 119.121 186.535 120.139 183.774 123.094C182.336 124.636 181.481 125.209 180.907 125.032C180.423 124.878 179.906 123.796 179.486 122.044C179.171 120.712 179.131 119.929 179.131 114.217C179.131 110.725 179.179 106.979 179.244 105.889L179.357 103.907L181.077 104.674C183.491 105.756 184.791 106.057 186.576 105.945C189.184 105.783 190.766 104.729 192.171 102.206C194.408 98.1922 194.949 92.5191 193.407 89.3628C192.195 86.8944 186.035 81.5781 182.013 79.5361L181.23 79.1388L181.327 78.1263C181.384 77.5692 181.529 75.0217 181.65 72.4645C181.86 67.8846 181.86 67.795 181.472 66.3917C180.94 64.4715 180.148 63.0553 178.945 61.8481C177.217 60.1186 175.094 59.3232 172.219 59.3232C169.361 59.3232 166.672 60.0217 163.216 61.6681C161.407 62.5288 157.96 64.713 156.886 65.6819L156.361 66.1486L156.474 71.2L156.579 76.2514L154.754 76.5695C153.753 76.7448 151.984 77.121 150.822 77.4044C149.659 77.6879 148.625 77.918 148.521 77.918C148.391 77.918 148.367 76.8231 148.456 74.387C148.577 70.7365 148.367 66.4175 148.012 65.4817C147.269 63.4824 144.717 61.5857 141.754 60.8275C140.05 60.3907 136.845 60.5562 134.697 61.1917C130.983 62.289 126.97 64.6791 123.942 67.5996C122.222 69.2549 122.093 69.4293 122.173 69.9428C122.303 70.6937 123.118 79.8575 123.272 82.2548C123.336 83.3125 123.336 84.1773 123.272 84.1773C123.199 84.1773 122.569 83.8616 121.859 83.4773C119.493 82.1926 117.498 82.1151 115.286 83.2221C113.719 84.0061 112.258 85.5484 111.717 86.9881C111.483 87.6098 111.289 88.6506 111.233 89.5993C111.136 91.0972 111.103 91.1722 110.748 91.0673C108.059 90.2776 107.615 90.2122 104.442 90.1242L101.188 90.0346L101.963 88.4923C103.433 85.5589 104.571 81.977 105.128 78.5446C105.435 76.6511 105.435 70.4539 105.12 68.2633C103.982 60.226 100.485 53.353 94.696 47.7775C88.1556 41.4795 79.4158 37.6667 67.9993 36.1341C66.5152 35.935 63.1411 35.8215 59.7248 35.8033ZM55.4712 58.2577C57.25 58.2867 58.9432 58.378 59.7515 58.5193C67.9261 59.9444 74.8298 65.7524 76.8605 72.9128C77.4079 74.841 77.5331 78.3018 77.1253 80.1767C76.2969 83.991 73.7018 87.1708 69.7832 89.1757C68.0383 90.0679 65.6862 90.8495 63.322 91.3235C62.3232 91.5237 61.3147 91.6876 61.0805 91.6876H60.655L60.3393 85.832C59.7264 74.4413 59.3582 70.5688 58.6033 67.5918C57.6537 63.8468 55.4639 61.3623 51.3976 59.4131L49.4597 58.4829L50.6814 58.3675C51.8288 58.2593 53.6924 58.2278 55.4712 58.2577ZM157.492 98.1222V103.979C157.492 107.201 157.412 110.729 157.315 111.819C156.903 116.449 155.231 120.365 153.067 121.738C151.816 122.537 151.186 122.464 150.169 121.407C149.272 120.478 148.731 119.275 148.279 117.167C147.956 115.682 147.69 107.57 147.803 102.662L147.876 99.4214L150.136 99.0411C152.244 98.689 153.94 98.4686 156.467 98.2215L157.492 98.1222ZM115.448 101.352L116.845 102.052C118.541 102.897 120.382 103.419 122.538 103.662C123.426 103.762 124.217 103.845 124.298 103.845C124.476 103.847 124.306 109.893 124.04 113.503C123.515 120.478 122.263 124.854 120.277 126.639C119.897 126.986 119.461 127.269 119.308 127.269C118.589 127.269 117.362 125.452 116.66 123.336C115.675 120.365 115.594 119.477 115.521 110.065L115.448 101.352Z" fill="#FFB81C"/>
<path d="M61.578 39.1447C57.7442 39.0935 52.6896 39.2913 50.0275 39.6494C34.7392 41.7059 21.061 47.7263 12.23 56.2836C8.02478 60.3596 5.47001 64.1611 4.09089 68.3954C3.39083 70.5456 3.28425 71.324 3.54223 72.4286C4.52465 76.633 8.74503 79.6455 12.7423 78.9947C14.8263 78.6556 16.1707 77.5478 18.1474 74.5384C18.8951 73.3999 19.9932 71.827 20.5891 71.0438C26.1508 63.7251 33.9257 58.5243 42.6752 56.2683C48.4477 54.7802 55.3675 54.3377 60.49 55.1298C65.719 55.9381 70.6759 58.509 74.3902 62.3379C77.5756 65.6226 79.5732 69.3046 80.5325 73.6599C80.912 75.3863 80.9281 79.023 80.5567 80.6968C78.6713 89.2655 70.9577 94.5414 59.102 95.373L57.3579 95.4942V94.8886C57.3563 93.9818 56.4979 78.9237 56.284 76.0443C55.8843 70.6675 55.2738 67.6146 54.2904 66.0772C53.164 64.3161 50.9847 62.7779 48.2394 61.805C47.1638 61.4239 46.7956 61.394 43.322 61.3996C40.0252 61.4061 39.3929 61.4553 38.1462 61.7985C35.0666 62.6471 32.3617 64.5325 31.3968 66.5035C30.8057 67.7106 30.3584 69.8472 30.3584 71.4629C30.3584 72.1476 30.4771 74.666 30.6224 77.0585C31.0883 84.7301 31.4162 91.2494 32.1413 107.247C33.2781 132.334 33.438 135.055 33.8611 136.654C34.2156 137.986 34.6936 138.947 35.5107 139.948C36.6339 141.337 40.718 143.017 44.4847 143.638C46.6123 143.994 50.3904 143.864 52.2621 143.388C53.0493 143.178 54.3711 142.669 55.2004 142.249C56.8718 141.41 57.5073 140.683 58.2848 138.761L58.6999 137.736L58.6619 129.33C58.6409 124.704 58.5206 118.656 58.3938 115.886L58.1637 110.842L59.3256 110.736C65.9903 110.136 70.3061 109.173 75.5085 107.126C87.7188 102.321 97.2789 93.0637 100.614 82.8035C102.479 77.0787 102.495 69.9973 100.654 63.7953C97.5858 53.4253 89.4548 45.593 77.8235 41.8053C73.7176 40.4682 69.8483 39.7145 64.8712 39.2818C63.9983 39.2059 62.8554 39.1619 61.578 39.1447ZM171.972 62.8224C169.881 62.8312 169.615 62.874 167.838 63.4812C165.585 64.2491 163.131 65.4474 161.185 66.7223L159.788 67.6404L159.917 73.4976L160.046 79.3532H159.546C157.705 79.3532 152.602 80.3989 148.04 81.711C146.336 82.2011 144.923 82.575 144.899 82.5419C144.874 82.5088 144.907 79.9871 144.979 76.9382C145.117 71.1213 144.987 66.9993 144.656 66.3711C144.374 65.8503 143.364 65.1123 142.153 64.5446C141.209 64.1022 140.95 64.0658 138.891 64.0699C136.84 64.0747 136.517 64.1232 134.959 64.6609C132.028 65.6718 129.016 67.4846 126.884 69.5185L125.665 70.6804L126.004 74.2574C126.586 80.2883 127.127 87.7515 127.014 88.0551C126.917 88.299 126.683 88.3272 125.431 88.2425C123.752 88.1286 122.274 87.6619 120.772 86.7664C118.745 85.5593 117.462 85.565 116.032 86.789C114.773 87.8718 114.66 88.2094 114.676 91.0645C114.684 93.6677 114.902 94.933 115.653 96.6641C115.935 97.3303 116.25 97.6702 117.13 98.2589C119.407 99.7922 121.507 100.336 125.157 100.344L127.603 100.349L127.732 101.875C127.902 103.862 127.538 113.445 127.175 116.548C126.432 122.887 125.124 126.601 122.815 128.894C120.95 130.759 119.432 131.107 117.453 130.114C115.669 129.225 114.232 127.086 113.255 123.872C112.27 120.618 112.229 120.069 112.068 109.034C111.89 96.1877 111.793 95.4053 110.299 94.6488C108.572 93.7719 107.409 93.5797 103.848 93.5732C100.166 93.5676 98.6803 93.805 96.7747 94.7053C95.6766 95.2229 94.5542 96.2919 94.5381 96.8377C94.53 97.0065 94.4492 97.5871 94.3523 98.1281C94.2635 98.669 94.1101 102.812 94.0294 107.336C93.8598 116.274 93.7306 117.542 92.7455 120.521C91.3809 124.655 89.4673 127.126 86.5685 128.482C85.5915 128.935 85.3574 128.975 83.1934 128.975C81.4493 128.975 80.3593 128.87 78.8211 128.547C77.6374 128.305 76.4803 128.168 76.0766 128.224C74.6231 128.418 73.8884 129.799 74.0208 132.076C74.263 136.266 78.2131 140.126 84.3561 142.169C85.3897 142.516 86.8512 142.895 87.6021 143.017C91.3486 143.614 96.5971 141.644 100.602 138.14L101.741 137.146L103.557 138.971C106.658 142.08 109.799 143.856 113.408 144.535C117.066 145.213 121.208 144.454 124.519 142.508C126.384 141.41 128.556 139.577 129.985 137.897C130.688 137.074 131.277 136.395 131.285 136.395C131.293 136.395 132.197 137.259 133.288 138.317C136.437 141.377 139.448 142.992 143.211 143.654C146.053 144.147 149.146 143.751 152.117 142.5C154.749 141.394 158.141 138.697 160.079 136.153C160.571 135.507 161.04 134.974 161.112 134.974C161.185 134.966 161.863 135.612 162.622 136.404C164.294 138.156 165.795 139.375 167.701 140.513C172.974 143.687 179.587 143.945 185.134 141.192C189.809 138.874 194.96 133.109 196.22 128.797C196.64 127.344 196.64 125.132 196.212 123.888C195.461 121.676 193.192 120.497 191.085 121.224C189.962 121.611 189.171 122.241 187.621 124.001C184.003 128.111 181.452 129.443 179.296 128.345C177.907 127.635 176.623 125.204 175.993 122.087C175.735 120.804 175.687 119.601 175.711 114.221C175.735 108.053 176.002 98.6892 176.155 98.539C176.195 98.4987 177.754 99.2294 179.627 100.165C183.89 102.299 184.924 102.666 186.401 102.55C187.879 102.433 188.388 102.032 189.3 100.284C190.398 98.1749 190.794 96.5091 190.81 93.9269C190.826 91.8752 190.802 91.7379 190.301 90.8263C189.042 88.5372 183.147 83.8136 179.247 81.9726L177.681 81.2298L177.778 80.1575C178.012 77.5648 178.254 72.7548 178.287 70.1322L178.319 67.2835L177.762 66.1054C177.108 64.7191 176.171 63.7202 175.033 63.193C174.33 62.8684 173.886 62.8143 171.972 62.8224ZM160.886 94.6738V102.437C160.886 110.477 160.749 113.049 160.176 115.66C159.207 120.101 156.905 123.702 154.176 125.027C153.377 125.414 152.787 125.56 151.859 125.6C150.204 125.673 149.332 125.341 147.999 124.106C146.158 122.394 145.036 119.568 144.6 115.508C144.382 113.511 144.293 96.9564 144.503 96.753C144.689 96.5664 148.468 95.8268 151.681 95.3504C153.425 95.0912 156.025 94.8506 157.802 94.786L160.886 94.6738Z" fill="#003594"/>
</svg>
