<svg width="200" height="200" viewBox="0 0 200 200" fill="none" xmlns="http://www.w3.org/2000/svg">
<path d="M126.82 113.924C125.731 115.56 123.353 119.138 122.921 119.957C122.484 120.775 121.651 122.054 124.042 122.32C126.434 122.589 129.652 123.024 130.936 122.781C132.376 122.51 133.422 121.896 132.433 120.079C131.704 118.747 128.975 114.567 128.584 114.046C128.188 113.523 127.591 112.765 126.82 113.924ZM108.119 115.726C108.412 117.341 110.048 117.507 111.649 117.519C113.746 114.788 114.836 112.299 115.407 110.619C115.095 109.928 114.512 108.078 114.149 107.113C113.782 106.151 112.738 106.576 111.668 106.761C104.203 108.064 96.3606 102.703 89.9433 101.637C87.606 101.253 88.1027 102.621 88.4051 104.128C88.7051 105.635 90.6657 112.976 92.259 116.758C93.5309 119.784 96.1466 120.843 99.2159 121.378C103 122.042 103.903 124.476 105.844 125.443C106.636 124.91 107.608 123.816 107.927 123.019C107.54 121.766 106.386 121.709 104.961 121.212C102.477 120.35 101.887 119.304 100.766 118.503C97.3393 116.038 98.1359 114.099 100.001 114.253C101.868 114.409 105.282 114.399 106.374 114.234C107.265 114.099 107.824 114.111 108.119 115.726ZM199.502 92.7275C200.208 93.7377 199.934 93.9274 199.997 95.0288C200.078 96.519 198.415 96.771 197.35 99.0195C196.764 100.255 196.332 100.942 194.962 101.345C193.594 101.748 190.146 100.91 188.728 99.3793C187.305 97.8483 188.401 95.8877 187.717 94.6591C186.15 91.8395 183.398 90.7788 182.22 89.7205C181.039 88.6647 179.705 88.2783 178.03 87.8583C173.391 86.6944 172.782 84.2396 171.116 81.8975C169.451 79.5578 168.445 79.9705 167.862 80.1097C160.639 81.8855 152.086 85.1635 148.144 87.5849C141.479 91.6788 138.705 96.363 137.396 103.714C140.645 108.993 139.253 110.632 139.15 112.734C138.864 118.33 141.053 121.126 141.552 122.53C142.058 123.934 142.015 124.594 141.31 125.379C140.602 126.166 139.666 127.665 138.535 128.709C137.412 129.751 136.325 129.271 135.236 128.993C129.51 127.531 124.86 126.924 119.249 126.684C115.465 126.523 112.004 130.255 111.049 131.299C110.089 132.34 111.522 132.993 112.302 133.509C114.483 134.946 115.383 136.703 117.252 137.535C119.124 138.368 120.809 138.913 121.759 140.854C122.441 142.253 121.543 143.429 120.852 144C121.754 144.516 123.82 146.143 124.778 147.017C125.733 147.888 125.937 149.702 124.617 150.12C123.3 150.537 120.998 151.168 119.659 151.332C118.016 151.531 117.84 150.436 117.509 149.959C116.05 147.854 112.938 144.595 110.219 143.935C105.364 142.755 105.119 140.197 101.976 137.375C100.154 135.74 99.8928 137.106 97.6515 138.906C93.3392 142.373 93.1689 139.594 89.3364 141.958C82.9916 145.872 82.7708 143.439 83.1043 142.419C83.4306 141.399 84.2274 139.834 85.732 136.734C87.4334 133.225 90.0683 136.225 92.288 134.238C93.999 132.707 95.2757 130.586 95.2757 130.586C92.1632 127.322 91.3858 128.978 85.2929 128.704C79.6295 128.448 79.3463 126.485 78.0505 122.525C74.7076 112.314 69.0684 109.91 61.0818 104.633C54.3986 100.213 57.2639 97.9857 53.2275 94.0867C51.159 92.0877 51.1326 90.8135 50.7055 88.6465C50.2831 86.482 49.9399 86.4843 48.0082 86.1964C46.0716 85.9085 38.6181 85.1333 34.7804 81.7977C30.6481 78.2053 30.5665 79.6428 25.7119 79.8756C9.94084 80.6291 0.296734 69.6115 0.0104447 63.8837C-0.145542 60.7641 1.47183 60.0778 3.11093 61.6231C4.74994 63.1686 9.56383 66.7562 16.8589 67.5433C26.6641 68.5968 30.1723 65.9762 33.1934 66.5234C39.1352 67.5912 38.8544 70.2166 42.1852 75.2944C44.1098 78.2269 55.8323 73.1803 57.4503 72.3524C64.8775 68.5585 73.2143 63.5622 87.0943 65.7267C103.187 68.2345 115.169 65.3548 121.284 63.1638C125.992 61.4793 123.643 61.1121 122.548 60.3058C121.459 59.5019 118.08 57.0542 118.781 55.5903C119.822 53.4089 131.903 59.9578 133.784 57.6324C134.669 56.5358 125.505 51.9979 127.676 49.3462C129.834 46.7113 132.754 52.1154 140.196 54.1888C144.431 55.3695 145.907 55.8902 146.459 55.2039C147.567 53.8216 145.372 52.8234 146.483 51.8299C147.956 50.5149 152.024 53.5338 155.566 55.1104C159.305 56.7734 155.326 50.6373 161.867 55.1272C166.717 58.4485 170.002 58.8876 173.597 58.9236C175.942 58.9476 175.083 58.1653 175.409 56.4686C175.735 54.7697 176.705 49.8549 177.921 49.0535C180.348 47.4673 180.734 52.8955 181.483 56.8574C182.229 60.8146 183.911 63.6175 188.283 67.5147C191.65 70.5119 191.225 72.554 192.116 75.5177C193.635 80.5715 195.108 86.4594 199.502 92.7275Z" fill="#CC0035"/>
</svg>
