<svg width="200" height="200" viewBox="0 0 200 200" fill="none" xmlns="http://www.w3.org/2000/svg">
<path d="M71.1354 21.864L49.1836 43.3546V101.1L68.2661 120.579H77.0168C76.8038 121.165 76.5244 122.069 77.1319 122.953C77.7926 123.933 78.9327 123.933 79.3696 123.933C79.8811 123.933 80.595 123.87 81.6927 123.72H81.7056C81.7056 123.72 82.1638 124.127 80.7679 124.586C79.617 124.99 78.6133 125.66 78.2829 126.81C78.2611 126.895 78.253 126.983 78.2317 127.058H49.1923L49.1837 156.573L71.1355 178.14H128.868L150.82 156.603V101.291L131.734 81.8417H115.55C115.539 81.8417 115.524 81.8332 115.524 81.8332C114.81 81.407 114.077 80.9573 113.406 80.5204L113.159 80.3627L113.116 80.3371C112.754 80.1134 112.372 79.8384 111.957 79.4761C111.594 79.1884 111.294 78.9007 111.07 78.645L111.006 78.581C110.58 78.1334 110.207 77.7051 109.919 77.3322C112.445 78.0568 115.196 78.24 116.517 78.2827H116.675C116.76 78.2827 116.848 78.2955 116.922 78.2955L117.037 78.304C117.357 78.3259 117.602 78.3784 117.762 78.4319C117.932 78.4957 118.084 78.5727 118.222 78.6365L118.904 78.8922C119.064 78.9348 119.234 78.9434 119.415 78.9434C120.407 78.9434 121.334 78.3467 121.76 77.409C121.898 77.0893 122.111 76.4521 121.951 75.6103L150.817 75.6317V43.3882L128.87 21.8633H71.1368L71.1354 21.864Z" fill="#8C1515"/>
<path d="M148.197 44.5284L127.806 24.5273H72.1934L51.7979 44.496V100.002L69.3477 117.904L80.664 117.915C79.3959 119.055 79.0017 120.238 78.7992 120.813C78.3623 122.081 77.9041 122.443 81.8787 121.889C83.1361 121.708 85.4271 120.898 86.5032 120.174C87.5581 119.449 89.6465 120.035 89.4654 121.602C88.4851 123.999 85.9705 125.502 83.5727 125.8C78.0531 126.493 80.44 128.549 80.44 128.549C81.0474 128.965 81.4843 129.37 81.7933 129.732H79.1081V129.721H51.8078L51.7969 155.434L72.1816 175.466H127.805L148.189 155.465V102.4L130.64 84.52H116.457C115.328 83.7634 113.804 82.9216 112.419 82.0159C112.419 82.005 112.419 82.005 112.408 82.005C111.875 81.696 111.353 81.3125 110.852 80.8756C110.437 80.5452 110.064 80.1936 109.744 79.8419C108.519 78.5632 107.602 77.2313 107.357 76.6132C106.899 75.4837 107.005 74.0558 108.039 74.6419C110.66 76.155 114.965 76.4427 116.564 76.496C116.745 76.496 118.034 76.6452 118.343 76.741C118.663 76.8689 119.153 77.1033 119.153 77.1033C119.803 77.3803 120.975 76.4852 119.622 74.8336C119.27 74.2688 118.737 73.6188 118.109 72.9582H148.189V44.5285" fill="white"/>
<path d="M73.2421 27.1895L54.4141 45.6349V98.8869L70.4405 115.235H85.4861C88.0539 114.107 88.5977 114.203 89.3112 112.765C89.4179 112.537 89.5236 111.876 89.5348 111.231C89.5668 111.048 89.8869 109.106 88.9489 109.579C87.34 110.387 84.0896 108.253 81.66 109.523C79.2304 110.778 81.0101 107.861 81.3511 107.358C81.3511 107.358 82.651 105.646 84.6115 104.512C84.6862 104.472 84.7503 104.431 84.8031 104.385C84.9952 104.279 85.1873 104.187 85.3901 104.091C86.8816 103.394 91.1325 100.564 91.8998 99.6796C92.3582 99.1664 93.1683 97.9925 93.2003 97.342C93.3385 96.7779 93.4457 95.8836 92.9025 95.5329C92.0924 94.9993 91.442 96.0411 90.1741 96.6103C88.9057 97.1743 87.9467 97.4081 86.817 97.4487C85.7306 97.4843 84.6862 97.0676 84.0363 97.1642C83.3858 97.2709 83.0021 96.7779 84.1959 95.5736C84.7391 95.0298 84.9744 94.7859 85.23 94.6029C88.0646 92.7837 90.6111 92.7633 92.0391 89.5313C92.0391 89.5313 93.1474 86.6347 91.0054 87.8696C89.8336 88.5505 89.1943 89.5313 85.8373 89.5313C82.4914 89.5313 81.1803 91.1219 80.6157 91.813C80.6157 91.813 78.3361 94.9993 78.9006 90.5324C79.4764 86.0808 80.3388 83.8092 82.4381 82.0713C84.2492 80.5823 88.7456 78.5801 90.3657 76.3746C91.1965 75.5513 93.2856 73.1629 92.0706 71.1409C91.5588 70.2881 90.3128 72.4972 89.0235 72.7818C87.5529 73.168 85.6884 73.6457 84.2604 73.356C82.4914 73.0054 81.3617 73.6762 80.7011 73.976C80.0405 74.2758 78.7934 73.3255 80.3169 71.5886C82.3629 69.255 87.3079 66.208 90.6324 64.3856C91.0908 64.1936 92.2088 63.7037 93.2318 63.0537C93.2531 63.0425 93.2745 63.0319 93.2856 63.0319C93.5413 62.9145 93.9143 62.6904 94.1272 62.4027C94.8518 61.7949 95.3529 61.114 95.1822 60.4213C95.0333 59.7927 94.7233 59.5793 93.743 59.4726C92.9655 59.3979 91.6767 60.304 90.5898 60.2191C88.9275 60.0804 86.4867 60.4635 87.2968 59.281C88.0529 58.1833 89.2781 57.4795 89.6298 57.2879C90.3118 56.9789 91.2285 56.5744 92.5818 55.9667C94.7024 55.0077 94.4036 52.6 93.5834 52.5151C92.3044 52.3764 88.8523 53.4837 91.2814 50.7136C91.2814 50.7136 92.4329 49.5524 93.5941 48.7957C94.5103 48.2632 95.267 48.0604 96.1726 47.7296C96.7377 47.5273 98.2195 46.2167 94.703 46.078C94.703 46.078 92.7419 46.1314 93.1149 45.2258C93.4239 44.6292 95.1507 43.5422 95.1507 43.5422C95.1507 43.5422 96.5349 42.5934 97.1 42.0288C97.6433 41.5064 98.0269 41.0913 97.9949 40.6222C97.9736 40.0896 96.5883 39.429 96.0019 38.683C95.5867 38.1499 95.9383 37.9588 96.1726 37.8948C96.3007 37.874 96.4501 37.8521 96.6315 37.8521C98.059 37.8628 98.464 36.4348 99.2974 32.7266C99.5413 31.6183 99.5616 31.3845 99.9225 31.3739C99.958 31.3739 99.9783 31.3845 99.9987 31.3845C99.9987 31.3845 100.349 33.2597 100.863 35.359C101.3 36.5202 101.777 37.0106 102.621 36.9994C102.789 36.9994 102.941 37.0202 103.068 37.0421C103.302 37.1061 103.663 37.2987 103.236 37.8313C102.916 38.247 101.96 38.9183 101.884 39.3233C101.61 40.4738 102.707 40.8895 103.825 40.9749C105.411 41.0811 104.75 42.072 103.038 43.3399C101.386 44.5652 105.614 47.1869 105.614 47.1869C108.023 49.0519 106.305 49.5306 105.817 49.7974C105.324 50.053 103.973 50.8844 105.324 51.4169C106.691 51.9393 108.567 53.8252 108.567 53.8252C110.985 56.5953 107.54 55.4986 106.265 55.6267C105.441 55.7115 105.147 58.13 107.266 59.0787C110.493 60.5382 111.209 60.7837 112.347 61.6364C114.477 63.2133 113.349 64.5559 110.686 64.0868C110.686 64.0868 108.983 63.661 107.789 63.8953C107.042 64.034 106.529 64.2042 106.178 64.3856C105.995 64.6626 105.573 65.7598 109.278 66.8996C111.046 67.4535 113.242 68.7865 115.193 70.31L145.587 70.2785L145.582 45.6537L126.754 27.1875H73.2431L73.2421 27.1895ZM119.137 87.18C120.011 88.6283 120.519 90.5238 120.895 93.3086C120.905 94.9805 118.7 94.1674 117.983 93.7304C117.485 93.3899 116.824 93.0749 115.971 92.8716C114.36 92.4854 110.528 90.8033 109.481 90.4272C108.414 90.0359 107.637 90.8236 107.51 91.1234H107.52C107.245 91.6316 107.809 92.6581 107.809 92.6581C109.314 96.068 112.083 95.8851 115.127 98.0702C119.315 101.053 117.079 101.683 116.215 101.236C115.366 100.779 113.958 101.063 113.958 101.063C110.579 101.993 109.568 100.586 107.586 100.062C105.614 99.5287 107.235 101.983 107.947 102.801C108.704 103.686 112.967 106.521 114.446 107.212C117.678 108.717 119.36 111.156 120.361 114.256C121.312 117.188 120.275 116.548 119.508 116.187C118.74 115.821 118.517 115.033 116.611 115.079C114.695 115.12 113.618 114.982 112.251 113.905C111.89 113.626 111.6 113.305 111.356 113.041C111.336 113.031 111.326 113.021 111.316 113.011C110.005 112.01 110.259 115.333 110.528 115.877C111.473 117.782 112.114 117.005 117.571 119.917C120.158 121.299 120.768 123.154 121.042 123.931C121.479 125.192 121.927 125.553 117.963 124.999C116.697 124.826 114.416 124.018 113.328 123.281C112.286 122.559 110.188 123.144 110.376 124.709C111.356 127.108 113.872 128.612 116.271 128.907C118.369 129.176 119.32 129.633 119.701 130.101C120.849 131.412 118.72 133.333 118.72 133.333C117.653 134.568 118.806 136.016 119.594 136.443C120.875 137.093 123.355 138.582 124.178 140.717C128.482 151.795 124.315 148.619 122.277 147.353C120.234 146.083 116.342 142.826 112.795 143.11C109.248 143.39 108.063 143.583 105.955 141.906C103.856 140.234 104.059 142.942 104.059 142.942V156.302C104.186 159.296 104.74 162.152 107.118 164.57C109.065 166.568 110.548 166.192 113.298 169.551C114.563 171.095 118.7 172.757 121.459 172.788L126.754 172.798L145.582 154.331V103.493L129.57 87.18H119.137ZM54.4252 132.393L54.4146 154.29L73.2426 172.767H79.295C84.9856 172.488 87.1164 168.077 88.8426 165.363C90.1426 163.305 92.4446 161.557 93.9046 160.063C95.4495 158.498 95.7269 154.915 95.7691 151.038V142.942L95.7803 143.024V141.088H95.791V139.797H95.792V139.497V136.006C95.792 135.193 94.8544 135.132 92.8085 137.347C90.7519 139.553 87.3105 139.37 85.3179 139.553C83.3253 139.731 77.5926 142.719 75.9512 144.858C74.9389 146.19 73.5002 145.092 74.0862 142.47H74.0648C74.3418 141.291 74.853 139.7 75.6737 137.601C76.8029 134.674 81.0441 132.957 81.0441 132.957C81.0441 132.957 81.4812 132.764 81.8648 132.393H54.4252Z" fill="#8C1515"/>
</svg>
