<svg width="200" height="200" viewBox="0 0 200 200" fill="none" xmlns="http://www.w3.org/2000/svg">
<path d="M156.709 76.0164V44.9964L133.884 23.0898H133.058H65.4015L43.2852 45.0151V96.4229L64.5633 117.954H114.007V140.133H86.298V123.982L43.2852 123.983V154.985L65.4015 176.913H133.886L156.712 155.003V103.578L135.436 82.0449H86.3014V59.8656H114.01V76.0193L156.713 76.0143L156.709 76.0164Z" fill="#000E54"/>
<path d="M117.092 72.9485C118.981 72.9485 151.751 72.9436 153.64 72.9436V46.3085C153.039 45.7317 133.229 26.7158 132.657 26.168H66.6784C66.0985 26.7351 46.9485 45.7193 46.3672 46.3006V95.1586C46.9327 95.7336 65.2754 114.299 65.8504 114.878H117.086V143.207H83.2246V127.058C81.3326 127.058 48.2568 127.058 46.3672 127.061V153.701C46.9469 154.279 66.0977 173.268 66.671 173.837H132.649C133.219 173.29 153.031 154.272 153.634 153.69V104.844C153.068 104.269 134.723 85.7043 134.148 85.123H83.224V56.7944H117.086V72.9459L117.092 72.9485Z" fill="#FF431B"/>
</svg>
