<svg width="200" height="200" viewBox="0 0 200 200" fill="none" xmlns="http://www.w3.org/2000/svg">
<g clip-path="url(#clip0_107_19972)">
<path d="M191.381 103.411C191.256 103.499 191.13 103.587 190.992 103.687C190.992 103.687 190.979 103.687 190.967 103.687C177.402 112.877 162.758 120.964 147.473 127.813C132.202 134.674 116.29 140.27 100.215 144.489C68.0529 136.051 36.5809 122.054 9.45074 103.674C9.45074 103.674 9.43819 103.674 9.42564 103.674C9.30015 103.587 9.17467 103.499 9.03663 103.399C8.45939 103.011 8.04529 102.798 7.85706 102.748C7.51825 102.673 7.75667 103.061 8.69782 103.95C12.5754 107.856 22.3507 117.146 37.9738 126.548C43.2191 129.791 48.8284 132.921 54.4 135.675C59.9716 138.43 65.5181 140.809 70.6379 142.549C76.0464 144.539 81.1788 146.28 86.0853 147.832C76.2974 149.885 66.5094 151.425 56.7968 152.402C56.2572 150.662 54.8643 149.31 53.2957 149.172C51.3758 148.997 49.9076 150.774 50.0582 153.066C50.0582 153.228 50.0833 153.379 50.1084 153.529C42.7423 154.355 29.9427 154.593 29.5788 154.605H29.5537C29.6039 154.13 29.6666 153.679 29.7795 153.228C29.7795 153.228 29.7921 153.128 29.7921 153.091C29.7921 152.665 29.4533 152.327 29.0266 152.327C28.6878 152.327 28.3866 152.552 28.2988 152.865C28.0478 153.404 27.822 153.967 27.6337 154.543H25.8267L21.7861 154.568C21.7359 154.305 21.51 154.092 21.2214 154.092C21.0582 154.092 20.732 154.092 20.5688 154.092C20.3179 154.092 20.092 154.242 20.0042 154.48C19.8787 154.868 19.7783 155.269 19.6904 155.67H19.6402C19.3893 155.67 19.1885 155.845 19.1383 156.083C19.0128 156.709 18.9375 157.347 18.8873 157.998C18.8497 158.612 18.8622 159.213 18.8873 159.801C18.8999 160.064 19.1257 160.277 19.3893 160.29C19.4395 160.69 19.4897 161.103 19.5649 161.504C19.6151 161.779 19.8661 161.992 20.1422 161.992H20.7069C21.0331 161.992 21.2841 161.742 21.2967 161.429C23.3295 161.479 25.902 161.479 27.069 161.454C28.1859 167.914 33.8453 172.722 41.0482 172.722C48.7782 172.722 55.5796 167.213 57.1858 160.052C68.9313 158.587 82.8352 156.559 100.19 151.951C117.532 156.559 131.449 158.587 143.182 160.052C144.788 167.213 151.602 172.722 159.319 172.722C166.522 172.722 172.182 167.927 173.298 161.454C174.465 161.479 177.038 161.479 179.071 161.429C179.083 161.742 179.334 161.992 179.661 161.992H180.225C180.514 161.992 180.752 161.779 180.803 161.504C180.878 161.103 180.941 160.703 180.978 160.29C181.242 160.29 181.468 160.064 181.48 159.801C181.518 159.2 181.518 158.599 181.48 157.998C181.43 157.347 181.355 156.709 181.229 156.083C181.179 155.845 180.978 155.67 180.727 155.67C180.702 155.67 180.69 155.67 180.664 155.67C180.577 155.269 180.464 154.868 180.351 154.468C180.275 154.23 180.037 154.067 179.786 154.08C179.61 154.08 179.297 154.08 179.134 154.08C178.845 154.08 178.619 154.292 178.569 154.555H174.541L172.734 154.53C172.533 153.967 172.32 153.404 172.056 152.853C171.968 152.54 171.68 152.314 171.328 152.314C170.902 152.314 170.563 152.652 170.563 153.078C170.563 153.116 170.563 153.153 170.575 153.203C170.688 153.654 170.751 154.117 170.814 154.593H170.789C170.425 154.593 157.638 154.343 150.259 153.516C150.259 153.466 150.259 153.416 150.272 153.354C150.284 153.253 150.297 153.153 150.309 153.053C150.447 150.749 148.967 148.984 147.059 149.159C145.503 149.297 144.11 150.662 143.571 152.389C133.858 151.413 124.07 149.885 114.282 147.82C119.189 146.267 124.321 144.527 129.742 142.536C139.982 139.056 151.89 133.034 162.394 126.536C170.199 121.841 176.549 117.158 181.442 113.177C186.324 109.196 189.737 105.89 191.67 103.937C193.175 102.523 192.874 102.372 191.318 103.399L191.381 103.411ZM39.9439 165.736C36.4805 165.736 33.4061 164.083 31.5113 161.542C31.5113 161.542 47.5233 160.865 48.9915 160.628C47.1971 163.682 43.8215 165.748 39.9439 165.748V165.736ZM168.931 161.542C167.037 164.083 163.962 165.736 160.499 165.736C156.621 165.736 153.246 163.682 151.451 160.615C152.919 160.865 168.931 161.529 168.931 161.529V161.542Z" fill="#13294B"/>
<path d="M158.066 27.2899C158.066 27.2899 153.548 29.1804 149.909 35.4904L100.204 134.335L50.5238 35.5029C46.8722 29.1929 42.3672 27.3024 42.3672 27.3024H83.715C81.6194 30.858 81.4688 36.0538 83.326 39.8098L100.204 73.3757L117.082 39.8098C118.939 36.0413 118.788 30.858 116.693 27.2773H158.003L158.053 27.2899H158.066Z" fill="#13294B"/>
<path d="M44.0078 171.845C44.0078 171.845 53.5824 170.393 56.5439 160.164L54.9753 160.352C54.9753 160.352 53.2687 168.69 44.0078 171.845Z" fill="#003A70"/>
<path d="M7.79527 102.746C7.79527 102.746 7.70743 102.771 7.71998 102.809C9.47679 104.599 16.6295 110.17 23.707 114.828C44.5879 128.174 67.8029 138.866 93.0759 146.265C80.979 149.12 68.8193 151.198 56.7977 152.388L55.1413 152.563C55.1413 152.563 53.761 153.953 54.0119 156.457C100.58 151.974 141.903 137.076 176.725 114.815C183.79 110.17 190.918 104.612 192.7 102.809C192.7 102.809 192.712 102.809 192.712 102.796H192.7C192.7 102.771 192.674 102.771 192.662 102.759C192.637 102.759 192.624 102.759 192.587 102.759C192.574 102.759 192.536 102.771 192.511 102.784C192.298 102.846 191.934 103.047 191.382 103.41C191.256 103.497 191.118 103.585 190.993 103.673C190.993 103.673 190.98 103.673 190.968 103.685C163.838 122.052 132.366 136.049 100.203 144.488C68.0539 136.049 36.5693 122.052 9.43914 103.685C9.43914 103.685 9.42659 103.685 9.41404 103.673C9.28856 103.585 9.15052 103.497 9.02504 103.41C8.37251 102.971 7.94585 102.746 7.77017 102.746H7.79527Z" fill="#003A70"/>
<path d="M114.358 147.828C111.936 148.592 109.539 149.331 107.23 150.007C119.829 152.986 132.905 155.165 146.42 156.467C146.671 153.963 145.291 152.573 145.291 152.573L143.634 152.398C133.934 151.434 124.133 149.894 114.358 147.828Z" fill="#003A70"/>
<path d="M53.2973 149.082C51.3774 148.907 49.9092 150.672 50.0472 152.976C50.0472 153.126 50.0723 153.276 50.0974 153.427C50.0974 153.464 50.0974 153.477 50.0974 153.514C42.6059 154.341 29.5427 154.591 29.5427 154.591C29.5427 154.616 29.5427 154.641 29.5427 154.666C29.4925 155.455 29.5678 156.331 29.7309 157.195C34.9763 157.396 48.9429 156.306 50.2103 156.231C50.1978 156.732 50.0096 158.134 49.6331 159.111C49.6331 159.111 49.5829 159.223 49.5829 159.249C48.0645 163.03 44.325 165.646 39.9079 165.646C39.6695 165.646 39.4311 165.621 39.2052 165.609C39.1424 165.609 39.0922 165.609 39.0295 165.609C38.8036 165.596 38.5903 165.571 38.377 165.534C38.1134 165.496 37.8499 165.446 37.5989 165.396C37.4233 165.358 37.2476 165.308 37.0719 165.258C36.9088 165.208 36.7582 165.17 36.5951 165.108C35.2273 164.657 33.9724 163.943 32.9309 163.017C32.843 162.942 32.7552 162.867 32.6799 162.804C32.6799 162.804 36.1057 166.735 41.5016 166.422C45.9563 166.16 49.3194 163.868 51.0887 159.812C51.3523 159.236 51.553 158.673 51.6911 158.097C51.7413 157.921 51.7664 157.746 51.804 157.558H51.8291C51.8542 157.408 51.8668 157.27 51.8919 157.12C51.9295 156.92 51.9546 156.719 51.9671 156.519C51.9797 156.381 51.9922 156.244 52.0048 156.106C52.0926 154.841 52.0048 153.677 51.9797 152.713C51.8668 149.834 54.0753 149.157 55.0918 149.846C54.5522 149.433 53.9373 149.17 53.2973 149.107V149.082Z" fill="#003A70"/>
<path d="M147.134 149.081C146.494 149.143 145.879 149.406 145.34 149.819C146.356 149.131 148.577 149.819 148.452 152.687C148.414 153.651 148.326 154.815 148.414 156.079C148.414 156.217 148.439 156.355 148.452 156.493C148.477 156.693 148.502 156.893 148.527 157.094C148.552 157.244 148.552 157.382 148.577 157.519H148.602C148.64 157.707 148.665 157.882 148.715 158.058C148.853 158.621 149.054 159.197 149.318 159.773C151.087 163.829 154.438 166.12 158.905 166.383C164.301 166.696 167.727 162.765 167.727 162.765C167.651 162.84 167.564 162.915 167.476 162.978C166.422 163.904 165.179 164.618 163.811 165.069C163.661 165.119 163.498 165.169 163.335 165.219C163.159 165.269 162.983 165.319 162.808 165.357C162.557 165.419 162.293 165.457 162.03 165.494C161.816 165.532 161.59 165.545 161.377 165.57C161.314 165.57 161.264 165.57 161.201 165.57C160.963 165.582 160.737 165.607 160.499 165.607C156.081 165.607 152.355 162.99 150.824 159.209C150.824 159.184 150.773 159.072 150.773 159.072C150.397 158.095 150.209 156.693 150.196 156.192C151.476 156.267 165.443 157.356 170.676 157.156C170.839 156.28 170.914 155.416 170.864 154.627C170.864 154.602 170.864 154.577 170.864 154.552C170.864 154.552 157.801 154.302 150.309 153.475C150.309 153.438 150.309 153.425 150.309 153.388C150.334 153.237 150.347 153.087 150.359 152.937C150.497 150.633 149.029 148.868 147.109 149.043L147.134 149.081Z" fill="#003A70"/>
<path d="M27.2687 154.543H25.8382L21.8101 154.568C21.8101 154.568 20.9066 157.21 21.3332 161.441C21.7222 161.441 22.1363 161.454 22.5504 161.466C22.8265 155.945 26.8295 154.668 27.2813 154.543H27.2687Z" fill="#003A70"/>
<path d="M173.16 154.543C173.599 154.668 177.602 155.945 177.891 161.466C178.305 161.466 178.719 161.454 179.108 161.441C179.535 157.21 178.631 154.568 178.631 154.568H174.591L173.16 154.543Z" fill="#003A70"/>
<path d="M143.883 160.164C146.844 170.393 156.419 171.845 156.419 171.845C147.158 168.69 145.451 160.352 145.451 160.352L143.883 160.164Z" fill="#003A70"/>
<path d="M124.343 33.3633C124.645 36.1177 123.892 39.5857 122.248 42.8659L100.212 86.7232L78.1769 42.8659C76.5205 39.5857 75.7801 36.1177 76.0813 33.3633H56.1289L100.2 121.015L144.296 33.3633H124.343Z" fill="#FF6A13"/>
<path d="M83.7125 27.2773H42.4023C46.581 27.3024 54.2734 29.6561 56.1306 33.362H76.0829L83.7125 27.2773Z" fill="#003A70"/>
<path d="M116.719 27.2773L124.348 33.362H144.301C146.17 29.6561 153.85 27.3149 158.029 27.3024H116.719V27.2773Z" fill="#003A70"/>
<path d="M56.1289 33.3633L100.212 121.028V103.876L131.797 41.0505C133.429 37.908 139 33.3633 144.296 33.3633H124.343C124.645 36.1177 123.904 39.5857 122.248 42.8659L100.212 86.7232V103.876L68.6274 41.0505C66.996 37.908 61.4244 33.3633 56.1289 33.3633Z" fill="#FA4616"/>
</g>
<defs>
<clipPath id="clip0_107_19972">
<rect width="200" height="200" fill="white"/>
</clipPath>
</defs>
</svg>
