<svg width="200" height="200" viewBox="0 0 200 200" fill="none" xmlns="http://www.w3.org/2000/svg">
<path d="M66.4446 52.8929L50.2553 81.7688L34.7246 52.8929H0L50.4083 147.105L85.046 83.0923H115.203L81.2236 146.198H116.236L149.96 82.8377H183.933L200 52.8929H66.4495H66.4446Z" fill="#CF4520"/>
<path d="M33.3738 55.132L50.2059 86.4359L67.7605 55.132H196.23L182.575 80.5823H148.6L114.875 143.945H84.9819L118.957 80.8382H83.6952L50.4092 142.355L3.74609 55.132H33.3689H33.3738Z" fill="white"/>
<path d="M7.50391 57.3852H32.0322L50.1695 91.1083L69.0806 57.3852H192.481L181.237 78.336H147.259L113.533 141.695H88.752L122.729 78.5931H82.3622L50.4291 137.61L7.50391 57.3852Z" fill="#6A2C3E"/>
</svg>
