<svg width="200" height="200" viewBox="0 0 200 200" fill="none" xmlns="http://www.w3.org/2000/svg">
<path d="M44.5381 34.3672V44.793H41.5625C40.3713 44.7931 39.2735 45.3407 38.5586 46.2939C37.8887 47.1872 37.6524 48.3032 37.9004 49.3828L37.957 49.5986L49.7178 90.0605L50.1768 91.6396L50.6748 90.0723L60.9131 57.8311L60.959 57.6865L60.916 57.54L57.873 47.0703C57.4832 45.7275 56.2368 44.793 54.8398 44.793H50.7871V34.3672H88.6572V44.793H85.6826C84.5656 44.793 83.5313 45.2746 82.8164 46.1201L82.6777 46.2939C81.9629 47.247 81.743 48.4541 82.0752 49.5977L93.8369 90.0615L94.2959 91.6406L94.7939 90.0732L106.32 53.7773C106.993 51.6589 106.625 49.4104 105.312 47.6172C104.001 45.8238 101.969 44.793 99.7471 44.793H94.9043V34.3672H129.843V44.793H126.867C124.847 44.793 123.077 46.089 122.466 48.0137H122.465L117.811 62.6709L117.604 63.3223H193.333V97.71H182.906V93.626C182.906 87.368 181.037 82.3796 177.476 78.958C173.917 75.5392 168.737 73.748 162.239 73.748H160.911C157.166 73.7481 153.371 74.7335 150.499 76.8564C147.609 78.9924 145.68 82.2634 145.68 86.7422V107.685H155.211C155.532 107.685 155.835 107.539 156.09 107.364C156.354 107.183 156.621 106.932 156.883 106.639C157.408 106.051 157.955 105.241 158.45 104.325C159.435 102.503 160.266 100.161 160.266 98.1543V95.1787H170.691V132.195H160.266V129.22C160.266 127.212 159.435 124.87 158.45 123.048C157.955 122.132 157.408 121.322 156.883 120.734C156.621 120.441 156.353 120.191 156.09 120.01C155.835 119.835 155.532 119.689 155.211 119.688H145.68V151.895C145.68 153.72 147.163 155.205 148.989 155.205H160.424V165.631H104.451V155.205H115.621C117.591 155.205 119.194 153.603 119.194 151.632V83.2793C119.194 79.288 117.19 76.7281 114.419 75.2852L113.892 75.0098L113.712 75.5771L94.3076 136.677H83.9229L68.2588 82.7959L67.7998 81.2178L67.3027 82.7842L50.1875 136.677H39.8018L13.7539 47.0703C13.3642 45.7276 12.1176 44.7931 10.7207 44.793H6.66797V34.3672H44.5381Z" fill="black" stroke="white"/>
<path d="M41.0566 37.8438V41.3359C36.5017 41.6425 33.3142 46.1047 34.6123 50.5693L49.5654 102.007L50.0244 103.586L50.5225 102.019L64.54 57.877L64.5859 57.7314L64.5439 57.5859L62.6963 51.2275L61.2061 46.1025C60.3827 43.2684 57.7863 41.3193 54.835 41.3193H54.2568V37.8438H85.1768V41.3359C80.6215 41.6421 77.4342 46.1045 78.7324 50.5693L93.6846 102.007L94.1436 103.586L94.6416 102.019L109.627 54.8301C111.752 48.142 106.759 41.3193 99.7412 41.3193H98.374V37.8438H126.361V41.335C123.043 41.5391 120.163 43.7623 119.146 46.9639L113.054 66.1475L112.847 66.7988H117.951L189.853 66.7979V94.2344H186.378V93.627C186.378 86.2639 184.058 80.4085 179.843 76.3965C175.631 72.3877 169.584 70.2744 162.234 70.2744H160.906C155.784 70.2745 151.113 71.7805 147.713 74.6035C144.303 77.4344 142.199 81.5679 142.199 86.7432V111.161H155.206C156.473 111.161 157.641 110.585 158.658 109.71C159.676 108.835 160.574 107.636 161.319 106.317C162.701 103.873 163.602 100.924 163.722 98.6553H167.212V128.722H163.722C163.602 126.453 162.701 123.504 161.319 121.06C160.574 119.741 159.676 118.542 158.658 117.667C157.641 116.792 156.473 116.216 155.206 116.216H142.199V151.896C142.199 155.644 145.237 158.682 148.984 158.682H156.942V162.156H107.92V158.682H115.614C119.507 158.682 122.663 155.525 122.663 151.633V83.2803C122.663 79.8839 121.551 77.0962 119.651 74.9844C117.757 72.8782 115.106 71.4706 112.064 70.7783L111.615 70.6768L111.477 71.1152L91.7588 133.202H86.5244L84.1006 124.864L68.3994 70.8525L67.9404 69.2734L67.4434 70.8408L47.6377 133.202H42.4053L39.9814 124.864L17.085 46.1025C16.2616 43.2686 13.666 41.3195 10.7148 41.3193H10.1367V37.8438H41.0566Z" fill="#CEB888" stroke="white"/>
</svg>
