<svg width="200" height="200" viewBox="0 0 200 200" fill="none" xmlns="http://www.w3.org/2000/svg">
<path d="M176.385 16.7443H99.0925H98.9314H98.7703C79.7636 17.1677 56.109 17.689 39.9558 32.0765C28.4022 42.3002 25.0374 55.8096 18.9272 80.3312L18.9177 80.3691L18.9082 80.4102L9.68597 118.368L9.6291 118.624L9.57539 118.88C8.08733 126.124 7.02263 133.501 6.39076 138.417C5.04172 148.897 5.23128 150.328 5.41136 151.718C6.48554 159.828 11.3858 174.282 32.1799 180.256C42.6184 183.254 53.9226 183.254 61.3976 183.254H146.402H158.174L160.622 171.735L166.72 143.035L170.457 125.438L152.474 125.469L104.634 125.558H91.153C94.4104 108.434 98.2931 92.6121 103.674 74.4319H105.165L101.547 90.2064H119.796H165.998H177.53L180.155 78.9814L190.534 34.5988L194.714 16.7422H176.383L176.385 16.7443Z" fill="#00386B"/>
<path d="M34.7308 171.87C43.9909 174.531 54.5558 174.531 61.5473 174.531H146.544H151.248L152.228 169.927L158.334 141.225L159.832 134.186L152.638 134.196L104.798 134.291H80.8598C84.9068 110.659 89.7409 90.5854 97.3359 65.7099H116.26L114.273 74.3728L112.64 81.4846H119.941H166.144H170.753L171.805 76.9984L182.187 32.6158L183.858 25.4727H176.525H99.2351H99.1719H99.1056C81.5143 25.8613 59.6162 26.3446 45.8617 38.6312C36.3487 47.0477 33.4042 58.8794 27.5374 82.4375L27.5343 82.4565V82.4691L18.3059 120.429L18.2806 120.527L18.2585 120.635C15.9996 131.639 13.883 148.131 14.2019 150.585C15.1687 157.893 19.512 167.498 34.7308 171.87Z" fill="white"/>
<path d="M33.1983 83.8591L23.9689 121.812C21.4572 134.067 19.9785 148.151 19.9785 149.725C19.9785 149.776 19.9817 149.817 19.9817 149.839C22.4554 168.523 47.3012 168.722 61.5613 168.722H146.414H146.556L152.66 140.023L104.825 140.111H104.676H88.5952H88.4025H79.9038H79.828H74.0117C78.5516 111.889 83.8626 89.4883 93.0593 59.9016H123.427H123.576L122.274 65.5728L122.239 65.7181L119.955 75.6794H166.011H166.156L176.538 31.2969H176.392H99.2485C81.3383 31.695 61.7407 32.27 49.7478 42.9769C41.8338 49.981 39.1601 59.9016 33.1983 83.8591Z" fill="#E0AA0F"/>
</svg>
