<svg width="200" height="200" viewBox="0 0 200 200" fill="none" xmlns="http://www.w3.org/2000/svg">
<path d="M40.9591 17.3008C31.8411 17.3008 26.2744 22.9253 20.045 31.2891C16.3864 36.2457 11.0348 39.6982 5 40.9905V159.015C11.0349 160.304 16.3874 163.754 20.045 168.71C26.2739 177.074 31.8576 182.698 40.9591 182.698H159.037C168.155 182.698 173.726 177.074 179.955 168.71C183.613 163.754 188.965 160.304 195 159.015V114.422H145.191V138.923H54.581V60.8382H145.191V83.4339H195V40.9905C188.965 39.6982 183.614 36.2459 179.955 31.2891C173.727 22.9252 168.139 17.3008 159.037 17.3008L40.9591 17.3008ZM101.853 65.7106L92.1247 90.4134H61.3452L86.1083 105.674L76.3733 130.373L101.409 115.113L126.175 130.373L116.884 105.674L141.92 90.4134H111.14L101.853 65.7106Z" fill="#002856"/>
<path d="M153.95 74.9106H186.434V47.16C184.725 46.4384 179.396 43.8531 173.834 37.3018C172.82 36.1028 171.914 35.0005 171.076 33.9835C166.505 28.381 164.408 25.8242 159.04 25.8242H40.96C35.5917 25.8242 33.4946 28.3812 28.9354 33.9835C28.0978 35.0006 27.1917 36.103 26.1773 37.3018C20.5868 43.8531 15.2585 46.4384 13.5488 47.16V152.846C15.2585 153.567 20.5868 156.152 26.149 162.709C27.1633 163.903 28.0695 164.982 28.9072 166.028C33.4663 171.625 35.5918 174.181 40.9602 174.181H159.04C164.408 174.181 166.506 171.625 171.093 166.028C171.931 165.011 172.837 163.903 173.851 162.709C179.413 156.152 184.713 153.567 186.451 152.846V122.946H153.968V147.685H46.032V52.3131H153.95L153.95 74.9106Z" fill="#7BADD3"/>
</svg>
