<svg width="200" height="200" viewBox="0 0 200 200" fill="none" xmlns="http://www.w3.org/2000/svg">
<path d="M165.416 9.49806L159.631 13.5648C155.486 16.4758 150.285 16.7194 144.879 16.7194L23.8131 16.7432H20.1382L18.8554 20.2262L13.3577 35.148L11.2767 40.7901L17.0617 42.2144C30.8041 45.5954 33.731 50.1705 33.768 53.4085L33.7707 81.4294V82.6619H33.7032V86.4995H26.0423H22.5727L21.188 89.7164L12.8282 109.155L9.61133 116.638H17.6825L33.7085 116.641L33.7111 117.891L33.7667 146.825C33.6767 151.533 25.4638 157.499 18.0691 158.117L11.0874 158.702L13.5496 165.333L18.9243 179.797L20.215 183.267H23.8819L142.929 183.276C154.665 183.276 163.413 187.675 163.504 187.723L168.952 190.504L170.919 184.665L188.098 133.148L190.454 126.086H183.085H166.953H163.659L162.206 129.069C155.056 143.723 144.383 151.396 130.489 151.877L87.1953 151.879V116.64H115.269L116.846 114.298C120.245 109.246 125.736 104.377 132.317 100.594C134.566 99.2994 136.891 98.1662 139.211 97.2303L141.516 96.3049L142.285 93.9155L143.653 89.6647L145.91 82.6566H138.622H87.194V47.9624L131.516 47.9677C145.065 47.9677 151.364 55.9952 158.883 71.7948L160.323 74.8249H187.19L184.839 67.7664L167.662 16.2455L165.413 9.49539L165.416 9.49806Z" fill="#FFC72C" stroke="#FFC72C" stroke-width="4.22573"/>
<path d="M164.128 17.7617C158.604 21.6007 152.034 21.8803 146.131 21.8803L23.5368 21.9004L17.9736 36.8456C23.2254 38.1239 38.8516 42.1218 38.9808 53.2004L38.985 81.3168L82.3707 81.319V42.4469L132.605 42.4564C150.469 42.4564 158.013 54.5443 165.14 69.3486H181.522L164.122 17.7617H164.128ZM38.9162 87.9062V91.7516H25.7978L17.334 111.216L113.32 111.22C117.056 105.715 123.119 100.198 130.766 95.8511C133.311 94.4034 135.876 93.1739 138.413 92.1635L139.802 87.9062H38.9162ZM38.9289 117.817L38.9829 146.787C38.824 155.17 27.5198 162.675 18.1706 163.445L23.6099 177.927L144.161 177.937C157.624 177.937 167.432 182.974 167.432 182.974L184.825 131.391H168.491C163.392 141.723 152.774 156.538 131.654 157.216L82.377 157.222V117.816H38.9342L38.9289 117.817Z" fill="#041E42"/>
</svg>
