<svg width="200" height="200" viewBox="0 0 200 200" fill="none" xmlns="http://www.w3.org/2000/svg">
<g clip-path="url(#clip0_154_2417)">
<path d="M99.9715 195.863C99.9715 195.863 105.613 154.144 137.028 127.818C137.028 127.818 159.984 106.966 199.924 97.8668L200 97.8399C160.041 88.7974 137.056 67.9805 137.056 67.9805C105.596 41.6952 100.02 0.00614929 100.02 0.00614929L99.9765 0.0195923C99.9765 0.0195923 94.399 41.707 62.9438 67.9939C62.9438 67.9939 39.9574 88.8091 0 97.855L0.0788642 97.8802C40.0128 106.978 62.9723 127.823 62.9723 127.823C94.3939 154.154 99.9463 195.863 99.9463 195.863H99.9715Z" fill="#512888"/>
<path d="M172.397 97.83C116.318 78.3975 99.959 27.1877 99.959 27.1877L99.9523 27.2062C99.9523 27.2062 83.562 78.4261 27.4844 97.8569L27.5012 97.8737C83.5787 117.306 99.9641 168.586 99.9641 168.586L99.9775 168.602C99.9775 168.602 116.353 117.299 172.43 97.8636L172.397 97.83Z" fill="white"/>
<path d="M156.774 97.8534C115.59 116.467 99.9797 154.355 99.9797 154.355C99.9797 154.355 84.3713 116.504 43.1823 97.8919L43.1504 97.8617C84.336 79.2481 99.9461 41.3949 99.9461 41.3949H99.9579C99.9579 41.3949 115.561 79.2179 156.745 97.8332L156.774 97.8534Z" fill="#512888"/>
<path d="M81.0137 121.082L81.0858 115.457C82.9065 115.123 84.8697 113.341 84.8899 111.43V87.73C84.8009 86.0822 83.7186 84.525 81.0858 84.5636V76.8917H119.97V92.1851L114.386 92.175C114.319 87.3692 110.193 84.4629 107.828 84.5636H95.8338V96.9473L100.166 96.9154C101.861 96.8449 103.558 95.2189 103.69 92.2438L109.088 92.2119V108.92L103.756 108.895C103.756 104.836 101.93 103.752 100.242 103.755H95.8338L95.7684 111.266C95.7046 114.174 98.5472 115.466 100.239 115.466L100.304 120.948L81.0137 121.082Z" fill="white"/>
</g>
<defs>
<clipPath id="clip0_154_2417">
<rect width="200" height="200" fill="white"/>
</clipPath>
</defs>
</svg>
