<svg width="200" height="200" viewBox="0 0 200 200" fill="none" xmlns="http://www.w3.org/2000/svg">
<g clip-path="url(#clip0_154_2456)">
<path d="M131.152 23.6897L118.953 43.582H80.223L68.1523 23.6897H-0.408203V60.1588H10.6002V134.828H-0.408203V176.207H76.3803V134.828H64.8421V103.791L99.5905 172.892L134.47 103.791V134.828H122.801V176.207H199.589V134.828H188.586V60.1588H199.589V23.6897H131.155H131.152Z" fill="white"/>
<path d="M5.17383 29.2722H65.9154L74.7992 43.596H125.067L133.951 29.2722H194.163V54.7381H183.023V140.279H194.163V170.781H128.378V140.279H139.916V81.7934L99.6015 159.642L59.282 81.7934V140.279H70.954V170.781H5.17383V140.279H16.1822V54.7381H5.17383V29.2722Z" fill="#CB5307" stroke="black" stroke-width="2.15859"/>
<path fill-rule="evenodd" clip-rule="evenodd" d="M-0.407566 23.6897V60.1665H10.6008V134.828H-0.407566V176.207H76.3784V134.828H64.8427V103.796L99.5886 172.894L134.473 103.796V134.828H122.799V176.207H199.585V134.828H188.584V60.1665H199.585V23.6897H131.155L118.951 43.5793H80.2236L68.153 23.6897H-0.410156H-0.407566Z" stroke="black" stroke-width="2.15859" stroke-miterlimit="3.864"/>
<path d="M99.5939 42.0009C99.6171 42.0138 91.8778 37.7314 90.0439 38.2869C88.7013 38.7088 87.8731 39.5292 86.7286 39.6141C85.6637 39.807 83.9611 39.2102 82.2198 39.4829C81.0341 39.7452 80.4142 40.3599 79.3031 40.5425C78.1997 40.6351 76.9573 40.6352 75.9877 40.1439C75.0257 39.5292 73.3642 41.1856 72.1399 41.4711C70.8796 41.7386 65.7715 42.2916 60.203 38.8168C56.4401 36.4608 52.3506 38.9299 51.5815 39.2154C49.4673 40.0821 39.8092 39.9406 40.7094 49.164C41.7305 58.5957 48.0501 59.5295 48.0038 62.1607C47.8109 65.777 44.354 69.7842 45.0845 74.4936C45.3752 76.7339 46.9801 76.829 46.6766 77.9452C46.4271 79.0409 46.1493 83.3235 46.4117 84.5735C46.7049 85.8106 47.1164 86.2221 47.0753 87.2278C47.1164 88.1614 46.9801 89.6764 47.3428 90.5432C47.8109 91.3354 48.2224 92.444 48.0038 93.46C47.6694 94.3756 47.0933 95.07 47.2064 96.5103C47.5331 98.7943 50.5733 101.42 51.188 103.272C51.6767 105.014 53.0039 110.515 53.706 111.763C55.545 114.821 59.5523 114.682 60.6017 115.873C61.7617 117.172 64.4804 121.665 66.7052 122.768C70.4655 124.769 71.9856 125.459 75.0592 126.482C77.1451 127.102 81.0623 128.162 84.8715 136.693C85.3859 137.895 87.1838 136.511 88.0557 138.949C88.5393 140.577 87.0424 142.036 91.7698 146.642C93.5291 148.33 96.8496 148.116 99.5939 147.969C102.379 148.116 105.703 148.33 107.549 146.642C112.189 142.036 110.692 140.577 111.263 138.949C112.048 136.511 113.843 137.895 114.45 136.693C118.169 128.162 122.081 127.102 124.262 126.482C127.246 125.459 128.764 124.769 132.485 122.768C134.751 121.665 137.47 117.172 138.586 115.873C139.679 114.682 143.687 114.821 145.482 111.763C146.228 110.515 147.555 105.014 148.136 103.272C148.658 101.42 151.696 98.7943 151.979 96.5103C152.138 95.07 151.562 94.3756 151.318 93.46C151.007 92.444 151.421 91.3354 151.848 90.5432C152.252 89.6764 152.115 88.1614 152.115 87.2278C152.115 86.2221 152.527 85.8106 152.776 84.5735C153.08 83.3235 152.805 79.0409 152.514 77.9452C152.252 76.829 153.854 76.7339 154.235 74.4936C154.878 69.7842 151.421 65.777 151.318 62.1607C151.182 59.5295 157.498 58.5957 158.478 49.164C159.422 39.9406 149.764 40.0821 147.738 39.2154C146.881 38.9299 142.789 36.4608 138.985 38.8168C133.46 42.2916 128.352 41.7386 127.048 41.4711C125.867 41.1856 124.206 39.5292 123.203 40.1439C122.274 40.6352 121.029 40.6351 119.885 40.5425C118.817 40.3599 118.198 39.7349 116.968 39.4829C115.271 39.2205 113.568 39.807 112.462 39.6141C111.359 39.5292 110.528 38.7088 109.144 38.2869C107.354 37.7339 99.6171 42.0138 99.5939 42.0009Z" fill="black"/>
<path d="M81.6924 42.2566C80.9516 41.8991 75.859 44.0853 75.859 44.1188C75.859 44.0853 71.1573 44.0855 69.2257 45.4461C67.294 46.8479 65.3547 48.2264 65.3779 48.229C65.3547 48.2238 70.3342 51.9584 70.8152 52.7378C71.435 53.6148 70.8795 55.1298 70.5528 55.9169C70.3316 56.7914 70.8821 57.0665 71.3502 57.9101C71.7128 58.728 71.1624 61.7683 71.219 61.758C71.1624 61.7683 71.2987 62.7328 72.1424 62.419C79.4496 56.5188 80.9002 59.3609 82.2273 58.8362C85.1158 57.7559 87.8807 61.2076 88.9919 60.4256C89.5397 59.9652 89.1153 53.0567 89.1153 53.0001L87.7984 51.8067V50.4872L81.8235 46.1045C81.7952 46.1559 81.6615 45.6029 82.7546 45.1811C83.8709 44.7721 83.7372 44.9137 85.0129 45.3123C86.2218 45.7393 90.7846 49.335 92.0397 50.6184C93.2692 51.8196 94.3674 52.0923 95.2214 51.6756C96.029 51.2615 92.1606 41.876 86.7336 42.3956C82.5128 42.8662 83.179 43.1157 81.6924 42.2566ZM117.634 42.2566C116.096 43.1157 116.765 42.8637 112.459 42.3956C107.112 41.876 103.254 51.2614 104.113 51.6729C104.91 52.0922 106.014 51.8196 107.295 50.6184C108.498 49.3324 113.061 45.7393 114.321 45.3123C115.546 44.9137 115.407 44.7721 116.58 45.1811C117.621 45.6029 117.475 46.1559 117.503 46.1045L111.536 50.4872V51.8067L110.211 53.0001C110.155 53.0567 109.741 59.9652 110.342 60.4256C111.397 61.2076 114.162 57.7558 117.107 58.8335C118.383 59.3608 119.826 56.5188 127.184 62.419C127.976 62.7328 128.115 61.7683 128.115 61.758C128.115 61.7683 127.565 58.728 127.984 57.9101C128.396 57.0665 128.943 56.7914 128.643 55.9169C128.388 55.1298 127.84 53.6148 128.378 52.7378C128.946 51.9584 133.915 48.2238 133.949 48.229C133.915 48.2238 131.981 46.8478 130.101 45.4434C128.113 44.0854 123.424 44.0853 123.475 44.1188C123.424 44.0853 118.318 41.8991 117.634 42.2566ZM49.5984 45.4434C49.6138 45.4614 48.6441 46.1559 47.6127 45.8395C46.7125 45.6003 46.9826 46.7089 46.9466 47.4316C46.9826 48.0875 46.7099 49.0571 46.6816 49.0288L48.8062 52.869C48.783 52.9256 49.745 50.8576 50.5294 49.1601C51.548 47.2619 53.3432 46.4285 53.3149 46.3693L52.2527 45.4461H49.5984V45.4434ZM147.074 45.4434L145.886 46.3693C145.937 46.4285 147.732 47.2619 148.671 49.1601C149.53 50.8576 150.492 52.9256 150.526 52.869L152.519 49.0288C152.57 49.0571 152.29 48.0875 152.249 47.4316C152.29 46.7089 152.568 45.6003 151.588 45.8395C150.631 46.1533 149.669 45.464 149.733 45.4434H147.074ZM62.3351 52.2748C62.24 52.2079 62.0805 52.2182 61.8001 52.3417C56.2419 54.8597 54.03 62.3136 53.05 63.7462C52.0958 65.0785 51.1287 66.0456 50.6606 67.4525C50.2979 68.8079 51.1261 68.8156 51.1879 68.7873V75.2895L51.4579 77.1363C51.4065 77.0977 51.409 81.9358 51.7228 83.371C52.2192 85.9842 52.6514 87.4656 53.3124 89.4769C54.3078 92.4373 55.5449 93.119 55.5629 93.1858C55.5449 93.119 56.6561 95.6113 57.4251 95.5753C57.3454 94.369 57.2039 92.0181 57.1525 91.9898C55.1977 88.0082 54.583 84.5565 54.5084 82.1774C54.3052 79.86 54.9996 76.6835 55.8355 75.5441C56.656 74.4716 55.2748 71.1588 56.3628 68.6562C57.4842 66.1871 59.4158 64.9396 60.7379 63.0774C62.1782 61.3465 66.1855 59.5511 66.044 56.979C65.9077 54.3015 63.9761 54.4457 63.2585 53.8001C62.348 53.3525 62.6181 52.4754 62.3351 52.2748ZM136.966 52.2748C136.655 52.478 136.912 53.3525 135.939 53.8001C135.302 54.4482 133.367 54.3016 133.288 56.9817C133.09 59.5512 137.089 61.3465 138.452 63.0774C139.852 64.9396 141.796 66.1896 142.835 68.6562C144.005 71.1614 142.624 74.4716 143.496 75.5441C144.278 76.6835 144.967 79.86 144.823 82.1774C144.692 84.5565 144.072 88.0082 142.038 91.9898C142.071 92.0181 141.927 94.369 141.773 95.5753C142.622 95.6113 143.723 93.119 143.759 93.1858C143.723 93.119 144.97 92.4373 145.886 89.4769C146.631 87.4656 147.058 85.9841 147.606 83.3735C147.871 81.9383 147.871 77.0977 147.871 77.1363L148.136 75.2895V68.7873C148.146 68.8156 148.975 68.8079 148.537 67.455C148.149 66.0455 147.177 65.0785 146.148 63.7462C145.243 62.3136 143.036 54.8597 137.529 52.3417C137.236 52.2182 137.069 52.2079 136.966 52.2748ZM99.5964 55.9169C99.6196 58.3089 97.2533 61.9585 97.2147 62.0228C97.2533 62.9668 98.7939 64.528 98.673 66.6628C98.3875 70.6547 94.1411 74.5487 94.2903 76.4752C96.4431 75.6264 99.6196 77.378 99.5964 77.4063C99.6196 77.378 102.793 75.6264 105.034 76.4752C105.101 74.5487 100.854 70.6547 100.527 66.6628C100.448 64.528 101.991 62.9668 101.986 62.0228C101.991 61.9585 99.6196 58.3114 99.5964 55.9169ZM73.2046 67.7252C77.5154 72.4011 78.1069 75.8554 81.5586 77.0025C86.2166 78.4763 89.8098 76.9562 89.784 77.0025L88.7192 72.4963C88.7012 72.5374 84.9743 76.2669 81.5586 73.9547C78.0709 71.5729 79.8611 68.2601 79.9691 67.7252H73.2046ZM119.231 67.7252C119.414 68.2601 121.204 71.5729 117.765 73.9547C114.298 76.2669 110.569 72.5374 110.605 72.4963L109.419 77.0025C109.471 76.9562 113.056 78.4763 117.765 77.0025C121.16 75.8528 121.757 72.4011 125.988 67.7252H119.231ZM83.9506 68.7873C83.2459 68.8156 82.6286 69.4304 82.6235 70.2457C82.6286 70.9582 83.2459 71.578 83.9506 71.5729C84.7711 71.578 85.391 70.9582 85.409 70.2457C85.391 69.4304 84.7711 68.8156 83.9506 68.7873ZM115.253 68.7873C114.507 68.8156 113.889 69.4304 113.925 70.2457C113.889 70.9582 114.507 71.578 115.253 71.5729C116.032 71.578 116.649 70.9582 116.711 70.2457C116.649 69.4304 116.032 68.8156 115.253 68.7873ZM65.6505 71.5729C65.7765 76.6887 64.5316 76.9279 64.5882 78.7334C64.5316 79.8626 65.1515 80.1043 65.5193 80.8502C65.0178 81.1743 65.0821 82.0026 65.1155 82.8359C65.0821 86.3494 66.8799 88.2526 66.8388 91.7274C66.8799 93.6076 66.8799 95.1612 66.8388 97.1648C66.8799 99.9606 66.8825 101.272 68.5672 102.736C69.506 103.693 69.3671 104.938 70.5528 105.521L70.6866 102.867C70.4705 101.169 69.3722 100.722 69.3671 99.423C69.3722 98.9292 70.3342 97.7924 70.6866 96.7687V93.9857C71.8543 90.2228 68.2585 87.6662 68.2971 84.5669C68.2585 83.4892 68.9504 82.8693 68.9633 81.7813C68.9479 81.1769 67.4689 80.1506 68.0322 79.5308C69.3645 78.0673 68.6932 75.7165 71.2216 75.6831C74.4804 75.7165 77.1013 82.4913 78.5133 82.4476C79.3106 82.7665 78.8991 81.2438 78.9094 80.8502C78.8991 79.8291 77.9629 79.9294 77.8446 79.1295C77.4794 77.8898 77.86 76.5807 77.3173 75.2818C76.6512 73.4325 73.6496 72.9566 70.5528 71.5729C70.6094 71.578 65.81 71.6809 65.6505 71.5729ZM128.65 71.5729C125.633 72.9566 122.627 73.4325 121.886 75.2818C121.418 76.5807 121.793 77.8898 121.482 79.1295C121.31 79.932 120.384 79.8291 120.427 80.8502C120.384 81.2438 119.962 82.7665 120.816 82.4476C122.171 82.4913 124.802 75.7165 128.115 75.6831C130.592 75.7165 129.913 78.0673 131.297 79.5308C131.804 80.1506 130.33 81.1769 130.374 81.7813C130.33 82.8693 131.019 83.4892 131.032 84.5669C131.019 87.6662 127.429 90.2228 128.511 93.9857V96.7687C128.946 97.7924 129.913 98.9292 129.97 99.423C129.913 100.722 128.807 101.169 128.511 102.867L128.65 105.521C129.916 104.94 129.774 103.693 130.767 102.736C132.4 101.272 132.4 99.9606 132.359 97.1648C132.4 95.1637 132.4 93.6076 132.359 91.7274C132.4 88.2526 134.193 86.3493 134.214 82.8385C134.196 82.0025 134.268 81.1743 133.818 80.8502C134.126 80.1043 134.754 79.8626 134.749 78.7334C134.754 76.9279 133.506 76.6912 133.686 71.5729C133.47 71.6809 128.673 71.578 128.65 71.5729ZM94.1668 78.8647C90.5402 78.8981 88.6729 83.7232 88.5906 84.9629C88.5675 87.2521 89.8072 92.368 94.424 93.3248C93.5418 91.4729 91.1987 89.9116 91.2501 87.2187C91.1987 85.5263 92.5104 85.3873 93.2357 85.359C93.2692 85.3873 93.6807 81.5216 96.2862 81.3852C99.1643 81.2258 98.655 85.6652 98.6756 87.8797H100.527C100.589 85.6652 100.08 81.2258 103.051 81.3852C105.564 81.5216 105.975 85.3873 105.967 85.359C106.736 85.3873 108.048 85.5263 108.084 87.2187C108.048 89.9116 105.702 91.4729 104.905 93.3248C109.429 92.368 110.672 87.2521 110.605 84.9629C110.569 83.7232 108.704 78.8981 105.036 78.8647C103.146 78.8981 102.243 79.5899 99.599 79.9269C96.9935 79.5899 96.1036 78.8981 94.1668 78.8647ZM85.9362 92.2625C85.3215 93.1292 83.7372 95.3386 81.965 95.048C81.3863 94.976 81.9419 96.7019 81.8261 97.296C81.106 100.033 80.9722 100.447 81.0339 102.736V109.369C83.5931 110.948 82.3586 112.152 83.4234 113.744C84.5474 115.516 85.6688 116.195 86.6024 117.986C87.3303 119.277 87.2891 121.512 88.4568 122.229C88.6035 121.55 88.8607 118.809 88.7295 117.986C87.8807 113.433 87.4615 112.88 85.2778 111.363C84.1564 110.606 84.982 107.08 83.6857 103.402C83.6265 103.021 84.8071 101.205 85.1441 100.609C85.9465 98.888 86.3581 96.923 86.3401 94.513C86.3581 93.6719 86.1857 92.782 85.9362 92.2625ZM113.39 92.2625C113.089 92.782 112.92 93.6719 112.863 94.513C112.92 96.923 113.336 98.888 114.19 100.609C114.476 101.205 115.651 103.021 115.515 103.402C114.301 107.08 115.119 110.606 114.049 111.363C111.814 112.88 111.397 113.433 110.605 117.986C110.422 118.809 110.679 121.55 110.877 122.229C111.989 121.512 111.95 119.277 112.59 117.986C113.609 116.195 114.736 115.521 115.911 113.744C116.919 112.152 115.685 110.948 118.3 109.369V102.736C118.311 100.447 118.172 100.033 117.508 97.296C117.341 96.7019 117.891 94.976 117.369 95.048C115.546 95.3386 113.954 93.1292 113.39 92.2625ZM98.4622 97.6844C96.3068 97.7513 91.4687 98.2733 87.2634 101.278C87.2069 101.239 87.3278 105.835 91.2501 109.5V101.409C91.5999 101.488 95.0104 104.819 94.959 104.86C96.5845 98.7903 97.7471 99.6159 97.8757 99.423L99.5964 99.2841L101.459 99.423C101.497 99.6159 102.657 98.7903 104.244 104.86C104.234 104.819 107.642 101.488 107.953 101.409L108.084 109.5C111.917 105.835 112.03 101.239 112.063 101.278C106.363 97.2702 99.6016 97.6793 99.5964 97.6921C99.599 97.6895 99.1798 97.6638 98.4622 97.6844ZM54.7733 99.027C53.4075 99.0681 55.3854 100.838 55.4317 100.881C56.9287 102.381 56.3783 104.004 56.7589 105.256C57.2733 106.8 59.9663 108.6 61.2652 110.166C61.867 110.918 62.2631 112.114 62.8624 112.813C63.4257 113.567 65.1592 114.166 66.1752 114.41C69.2256 115.089 71.7128 117.991 71.7463 117.057C71.7128 113.914 66.7796 112.69 65.6402 110.424C65.2184 109.56 63.0785 108.389 62.8624 107.507C62.492 105.935 62.4226 104.179 60.6067 103.929C57.4817 102.659 57.9678 99.0681 54.7733 99.027ZM144.561 99.027C141.31 99.0681 141.799 102.659 138.594 103.929C136.858 104.179 136.783 105.935 136.469 107.507C136.197 108.389 134.054 109.56 133.684 110.424C132.493 112.69 127.56 113.914 127.578 117.057C127.56 117.991 130.052 115.089 133.156 114.41C134.118 114.166 135.849 113.567 136.469 112.813C137.012 112.114 137.408 110.918 138.059 110.166C139.301 108.6 141.999 106.8 142.434 105.256C142.894 104.004 142.341 102.381 143.892 100.881C143.887 100.838 145.868 99.0681 144.561 99.027ZM90.98 117.327C91.4713 119.236 92.0269 122.551 91.7774 124.619C91.7491 124.624 96.3042 126.283 99.599 125.681C102.932 126.283 107.534 124.624 107.557 124.619C107.256 122.551 107.812 119.236 108.357 117.327C106.775 118.34 105.461 120.753 104.64 122.363C103.907 121.442 103.66 120.478 101.855 119.447C101.42 120.406 101.731 122.412 101.592 123.425C101.597 123.382 100.723 123.652 99.599 123.557C98.5136 123.652 97.688 123.382 97.7445 123.425C97.5516 122.412 97.8628 120.406 97.3484 119.447C95.6174 120.478 95.3757 121.442 94.6941 122.363C93.8222 120.753 92.5078 118.34 90.98 117.327ZM84.4856 124.619C84.9023 125.046 84.5319 125.367 84.4856 125.419C84.5319 128.96 86.3632 130.007 87.6672 130.586C87.7264 130.547 88.4671 134.169 88.4568 134.3C89.6863 137.021 91.1241 138.331 91.1112 139.071C91.4147 139.048 92.9657 139.74 92.9657 139.871L99.599 140.398L106.23 139.871C106.279 139.74 107.827 139.048 108.084 139.071C108.123 138.331 109.553 137.021 110.739 134.3C110.772 134.169 111.518 130.547 111.536 130.586C112.884 130.007 114.712 128.96 114.717 125.419C114.712 125.367 114.342 125.046 114.717 124.619H114.321C114.036 125.149 111.369 128.495 109.815 129.925C109.434 133.055 108.329 135.812 106.634 136.288C106.279 136.34 105.35 135.393 105.175 135.627C103.91 137.471 101.412 138.027 99.599 138.017C97.8243 138.027 95.3422 137.471 94.0279 135.627C93.9019 135.393 92.9683 136.34 92.5696 136.288C90.9183 135.812 89.8124 133.055 89.388 129.925C87.8782 128.495 85.2032 125.149 84.874 124.619H84.4856Z" fill="white"/>
</g>
<defs>
<clipPath id="clip0_154_2456">
<rect width="200" height="200" fill="white"/>
</clipPath>
</defs>
</svg>
