<svg width="200" height="200" viewBox="0 0 200 200" fill="none" xmlns="http://www.w3.org/2000/svg">
<g clip-path="url(#clip0_154_2453)">
<path d="M65.0476 39.2812C65.0476 39.2812 63.3615 41.6536 62.7416 42.2779C62.3189 42.702 61.9228 43.104 61.5076 43.4265C61.2543 43.6224 60.9509 43.805 60.6299 43.9979C59.901 44.4396 57.9896 45.1892 56.8911 45.5971C57.6008 47.2066 58.7053 48.7042 59.4254 49.4891C59.7537 49.8454 60.0748 50.486 60.3649 50.8541C60.7816 51.3828 61.2027 52.3414 61.2027 52.3414C61.2027 52.3414 60.5209 53.6491 59.7405 54.7093C59.3385 55.2542 58.9203 55.771 58.5153 56.2732C57.271 57.8179 56.0959 59.2772 55.4244 61.3933C54.6498 63.8319 54.1271 65.0791 52.4042 66.7799C51.6105 67.5604 50.9434 68.3026 50.2955 69.0197C48.8568 70.616 47.6124 71.9972 45.57 73.1841C42.9459 74.7082 40.2408 76.1955 37.6211 77.6371C36.7537 78.1113 35.8894 78.5884 35.0235 79.067C33.3801 79.9756 32.9663 80.0198 31.2905 80.0904L31.2508 80.0934C29.4822 80.1685 26.6578 80.5985 24.7303 81.376C24.7303 81.376 24.3533 84.0649 24.1324 85.2238C24.0514 85.642 23.9748 86.0396 23.8703 86.4063C23.6273 87.2589 23.162 87.9201 22.6245 88.6873C22.1812 89.3205 21.7248 89.9758 21.3389 90.8092C20.4878 92.6617 19.9827 93.9679 19.6396 96.0236C19.5071 96.8129 19.3848 97.5609 19.2346 98.2781C18.999 99.412 18.7723 101.409 18.5749 102.653C18.1479 105.335 17.8976 108.11 16.933 110.375C16.6297 111.088 15.9965 111.867 15.3279 112.692C14.4812 113.731 13.6094 114.541 13.2369 115.697L11.8056 121.446C11.7496 121.686 11.5817 122.191 11.4021 122.726C10.4493 125.588 9.98988 130.418 9.98988 130.418H10.6466L9.87796 130.471C7.29214 130.99 4.43389 133.43 3.80658 136.054C3.45464 137.176 3.1454 138.376 2.9304 139.612C2.92746 139.578 2.92746 139.558 2.92746 139.558L2.84205 140.14L2.80524 140.405L0 160.08H36.6418C35.3268 158.117 33.6054 156.692 35.3136 155.059L41.2996 155.11L42.1301 160.08L75.2422 160.029L78.4745 153.155C78.5849 153.99 78.6394 154.875 78.6217 155.686C77.7706 157.432 77.4024 158.279 76.5189 160.08L103.14 160.029C103.698 156.602 104.312 153.224 104.926 149.727L113.589 149.724C113.58 151.404 113.719 152.912 114.081 154.265C115.467 158.696 120.197 160.357 124.407 160.653C130.446 160.875 136.56 160.746 140.752 156.221L140.143 160.049H153.303L154.301 154.717C154.301 154.717 155.076 155.515 154.833 156.592C154.531 157.932 153.773 160.049 153.773 160.049H186.979C188.555 160.049 190.395 159.596 191.849 158.954C197.5 156.446 198.676 149.481 199.393 145.272C200.107 141.061 200.497 137.113 198.78 133.882C197.265 131.222 194.847 130.293 191.506 130.293H169.028L171.301 134.228V134.596C170.011 131.549 167.319 130.293 163.802 130.293H142.396L144.613 134.279V134.539C144.258 134.004 143.837 133.431 143.376 132.895C141.363 130.956 138.811 130.328 136.19 129.887C130.537 129.383 124.336 129.258 119.958 132.771L120.472 130.293H89.6144C89.7499 127.164 88.2744 122.921 88.2744 122.921C88.2744 122.921 85.3057 121.026 85.0303 120.311C84.8124 119.349 84.3412 118.707 84.4148 117.779C85.1275 115.129 86.0729 112.627 87.5116 109.421C87.6397 109.141 87.787 108.875 87.8827 108.595C88.5866 106.494 89.1034 103.548 89.4097 100.22C89.6497 97.6022 90.1578 95.2652 90.6732 92.7309C91.3491 89.3956 91.4743 88.3589 92.1767 84.0281C92.0073 82.0931 91.6672 80.4704 91.1709 78.5973C90.685 76.7654 89.7131 72.6201 89.5776 72.034C90.0032 71.3272 90.414 70.6336 90.8057 69.9695C91.4404 69.1287 92.2871 68.2363 93.2708 67.7783C94.789 67.0715 97.3807 65.6004 97.3807 65.6004C97.8549 64.2103 97.849 63.3474 97.7768 61.8071C97.659 59.2478 96.4 55.4721 95.4899 53.9436C94.7537 52.7052 93.9732 51.8142 93.2266 50.916C92.5743 50.1282 91.0266 47.8045 91.0045 47.4069C90.978 46.9136 91.3859 45.762 91.3859 45.762C91.3859 45.762 90.1445 44.8225 89.0386 44.1599C86.4955 42.6328 83.0718 41.9333 80.0663 41.7375C79.1268 41.1396 78.2978 40.8731 77.4142 40.6566C76.7884 40.502 75.9726 40.5668 75.1818 40.5668C74.6576 40.5668 74.1363 40.5992 73.6327 40.6301C73.1246 40.6596 72.646 40.6905 72.1601 40.6905C71.493 40.6905 70.9452 40.6345 70.4313 40.5123C70.0573 40.424 69.7068 40.3224 69.3696 40.2252C68.6304 40.0072 65.0564 39.2827 65.0564 39.2827L65.0476 39.2812ZM32.9531 104.095C33.7512 104.902 34.1017 105.712 34.2681 106.569C34.4757 107.652 34.3373 108.945 33.9647 110.112C33.6923 110.973 33.2461 111.796 32.7749 112.671C32.1991 113.743 31.6042 114.85 31.3111 116.077C31.0078 117.363 30.0344 118.814 29.9961 120.178C29.9785 120.894 29.9593 121.568 29.9048 122.209C29.8842 122.44 29.7929 122.949 29.6913 123.491C29.1627 126.364 29.0316 130.002 29.0213 130.293H23.4992C23.4918 130.068 23.3505 125.255 22.7423 123.693C22.5037 123.076 22.2534 122.436 22.1297 121.802C21.5377 118.772 22.76 117.358 25.8685 115.414C30.4232 112.565 32.152 109.174 32.9531 104.095ZM74.9727 110.39C74.9977 111.88 74.8902 111.1 74.9491 112.553C75.0139 114.142 75.0802 116.676 75.0993 118.283C75.1096 119.283 74.0612 124.82 74.0612 124.82C74.0612 124.82 74.8947 125.067 75.2378 125.067H75.2687C75.3349 126.045 75.0669 130.024 75.0537 130.236H59.2531C59.2575 129.863 59.1544 126.322 59.1544 126.322C59.0778 126.118 58.4181 124.416 58.3577 124.239C57.8512 122.799 57.4536 122.565 57.4256 120.995C57.4153 120.409 57.3299 119.826 57.2445 119.264C57.1414 118.577 57.0427 117.929 57.0928 117.348C57.1252 116.972 57.726 113.868 57.726 113.868C57.726 113.868 60.3369 113.3 61.5385 113.241C62.1452 113.21 72.3412 110.895 74.9727 110.39ZM44.121 113.036C44.2447 115.052 45.4095 117.698 45.5361 119.105C45.7128 121.048 44.3257 124.337 44.3257 124.337L44.0282 130.236H42.4555C42.4378 129.582 42.2773 124.781 41.2598 122.291C40.8328 121.246 40.8475 120.191 40.765 119.548C40.4042 116.718 41.8532 114.934 44.121 113.036ZM75.2171 130.353H77.8368C77.1609 131.832 76.3981 133.341 75.6516 134.762C75.4542 133.325 75.3585 131.83 75.2171 130.353ZM92.1207 130.423L94.465 134.593L92.9026 143.21L92.1207 130.423ZM58.6375 130.426C58.9468 131.704 59.3606 132.939 59.7302 134.188V134.726C57.9204 139.101 56.2034 143.571 54.2832 147.896C53.2244 142.106 52.3615 136.23 51.3086 130.44C54.5467 130.454 57.8998 130.461 58.6375 130.426ZM30.7221 130.477H35.0279C35.3047 131.724 35.9438 132.852 35.9792 134.153L28.9388 146.714C29.0493 145.717 28.9256 144.346 28.3896 143.498L30.7221 130.477ZM157.26 137.89C157.729 137.853 158.62 137.993 158.234 139.704C157.74 141.909 156.37 141.536 156.37 141.536L156.992 137.933C156.992 137.933 157.104 137.903 157.26 137.89ZM131.272 137.942C132.886 138.026 131.781 144.087 131.781 144.087C131.038 149.008 129.935 151.962 128.779 151.997C127.668 152.028 127.431 150.31 128.577 144.165C129.147 141.118 129.979 137.871 131.272 137.942ZM184.52 138.735H185.34C185.852 138.735 186.835 139.523 185.877 144.72C184.723 150.987 183.642 151.114 182.875 151.114H182.268L184.52 138.735ZM18.9445 139.046C19.51 139.046 20.1211 139.052 20.8721 139.052C21.7203 139.052 22.4345 139.068 23.2709 139.363C24.5344 139.809 25.2869 141.05 25.2869 141.05C25.2869 141.05 24.8819 140.84 24.424 140.691C23.8128 140.494 22.6289 140.477 22.6289 140.477L18.1508 140.446C18.1508 140.446 16.6577 140.433 16.8049 139.868C17.0273 139.012 18.2068 139.046 18.9445 139.046ZM106.643 139.077C106.643 139.077 111.576 139.075 112.675 139.098C113.773 139.118 114.588 140.432 114.588 140.432L106.399 140.411L106.643 139.077ZM40.2054 144.219L40.6575 146.829H38.6519L40.2054 144.219ZM169.719 145.31L168.738 150.918L167.335 147.412C167.335 147.412 167.967 146.991 168.457 146.711C168.947 146.429 169.719 145.31 169.719 145.31ZM5.85197 148.033C6.06255 148.13 6.29963 148.22 6.60004 148.288C7.37313 148.457 8.45841 148.531 8.45841 148.531L12.9365 148.562C12.9365 148.562 14.5254 148.45 14.3472 149.226C14.197 149.886 12.427 149.802 12.427 149.802C10.8881 149.802 9.00621 149.81 8.24489 149.663C7.4821 149.516 6.76349 149.135 6.23189 148.522C6.09936 148.369 5.97272 148.204 5.85197 148.033ZM63.6737 153.359L64.2083 159.793L62.3852 156.468L63.6737 153.359Z" fill="#0C2340"/>
<path d="M66.8463 40.7422C66.5886 40.8291 62.4492 46.5426 61.3639 47.3864L61.4596 45.3925L59.5203 46.201C59.5203 46.201 60.4303 48.2523 61.5922 49.7248C61.7055 49.8706 62.1797 50.3654 62.5287 50.76C63.7701 48.1197 65.571 44.7328 67.1305 43.5268C67.3867 43.3295 65.7919 46.6707 64.7214 50.4199C65.6343 50.0635 66.4325 49.1829 67.2173 48.7588C64.4151 52.5801 63.6817 62.5391 70.5792 67.8153C64.7479 65.8597 62.3432 59.5527 61.4655 56.2557C61.33 56.4545 61.1975 56.6415 61.0738 56.8108C59.4628 58.9976 58.1625 64.259 59.454 67.8153C59.454 67.8153 56.7268 67.428 55.5281 66.0777C52.9806 68.5913 49.8219 74.6509 47.7309 82.4541C46.0419 80.12 46.061 77.5401 46.1464 75.8157C44.3808 76.792 33.6812 81.2716 31.8375 81.7001C31.8375 81.7001 30.8435 81.9254 29.6699 82.4541C27.9323 83.289 23.8695 90.4663 23.0522 92.2378C21.9257 94.6808 22.8107 98.4653 22.2658 101.076C21.5119 104.696 17.0264 105.949 19.8994 113.128C18.8112 113.251 18.0734 112.964 18.0734 112.964C18.0808 112.895 14.1623 119.041 14.1623 119.041C14.1623 119.041 13.5689 121.414 13.1271 123.338C12.8885 124.374 11.4057 126.831 11.1936 128.077L14.1108 128.302L15.1622 126.544L15.5509 128.414L18.0734 128.61L18.8068 125.204L19.6815 128.417L20.9125 128.179L21.7607 126.507C21.7254 125.668 21.1423 123.824 21.1423 123.824L19.4105 122.874L20.6593 114.16C32.9463 113.126 28.9351 100.387 28.6774 94.3097C28.6774 94.3097 41.6963 102.899 42.9686 102.46L47.0417 92.7311C47.1404 96.6437 46.7222 115.526 47.0756 119.421C47.2656 121.511 45.6546 124.606 45.6546 124.606L45.2408 128.185L48.3671 128.541L49.2845 126.655L50.0266 124.101L50.5671 128.541H52.7214L53.7257 126.685V124.552L54.4075 128.405C54.4075 128.405 55.8786 128.492 56.3881 128.541L57.5941 126.809L57.3291 124.832L55.8683 122.57L52.0308 122.312C52.0308 122.312 55.3868 118.404 55.4884 117.218L54.7668 117.422C54.5518 117.451 54.2647 117.47 53.7257 117.503C54.406 115.629 54.7594 111.861 55.2528 110.411C56.5324 106.657 59.4702 96.9485 60.8146 96.7659C60.9089 96.7527 66.5267 94.267 70.5792 91.5943C69.7958 95.0872 63.5006 103.99 63.6685 103.971C69.0271 102.628 76.496 100.218 80.7959 95.6041C81.1287 97.4639 80.3674 99.0823 79.9727 99.6507C86.424 95.5363 89.3839 87.9762 89.8904 83.2507C89.35 81.4291 87.8657 76.3768 87.4769 75.4712L82.7308 82.3966C82.7102 82.3745 82.6911 82.3466 82.6704 82.3245C82.5305 82.1699 82.3759 82.0152 82.214 81.8591C80.949 80.2099 78.0201 76.2928 71.8707 73.1003C74.5272 73.3271 79.0803 74.2975 80.6545 74.0163C79.6149 73.4228 78.1276 72.6055 76.8067 71.3318C87.2928 70.8988 92.1685 63.6524 92.3894 63.3564C93.3804 62.0208 93.8531 59.2361 94.0077 57.93C94.1741 56.5207 93.6823 55.1188 93.5336 54.7345L93.5306 54.7286C93.507 54.6653 93.4909 54.6285 93.4909 54.6285C93.4909 54.6285 91.9682 54.1749 91.874 54.2C90.6694 54.518 89.4575 55.3044 89.4575 55.3044C89.4575 55.3044 89.1689 59.1375 88.9436 62.1489C88.6814 65.6447 83.953 68.6591 80.6221 69.0464C79.4647 69.1818 75.5138 69.3423 74.3298 68.9595C73.4227 68.1186 71.5114 66.3147 70.5792 64.4358C73.6834 65.9554 77.4664 67.1939 82.4172 66.3309C88.6623 65.2427 87.6286 58.3555 88.8994 54.6476C89.3367 54.3443 89.9641 53.7803 90.7003 53.4431H90.7033C90.7033 53.4416 90.7048 53.4386 90.7062 53.4372C91.2378 52.2179 91.0199 50.7512 89.1394 50.2211C89.107 50.2123 89.0746 50.2049 89.0437 50.1961C88.9642 50.1754 88.8906 50.1548 88.8052 50.1386C88.2529 50.0208 87.6448 49.9825 87.0337 50.0179C87.0189 50.0341 86.991 50.0459 86.9733 50.0606C85.2887 50.6643 83.2492 50.76 82.345 54.1985C82.6469 49.3817 86.5698 50.6202 85.5581 48.211C87.097 47.6942 88.3678 47.8679 88.9715 48.0093C88.9774 48.0122 88.9833 48.0108 88.9892 48.0122C89.1733 48.0608 89.1733 47.8974 89.1276 47.8164C89.0894 47.7501 88.8847 47.6294 88.7654 47.5719C88.7595 47.5705 88.7566 47.5646 88.7536 47.5646C88.7492 47.5616 88.7433 47.5602 88.7389 47.5587C88.733 47.5557 88.7256 47.5543 88.7212 47.5528C88.0541 47.2848 86.9203 46.9903 85.6244 47.3422C85.0118 47.5086 84.33 47.8164 83.6806 48.1875C82.909 48.6027 82.2581 49.0813 81.7295 49.5938C81.4983 49.8102 81.3054 50.0208 81.1611 50.2152C81.1552 50.2211 81.1493 50.2255 81.1434 50.2329C81.1714 50.146 81.1994 50.0709 81.2273 49.9914C81.2715 49.8736 81.3186 49.7499 81.3731 49.6173C81.3834 49.5967 81.3908 49.5717 81.4026 49.5511C81.4099 49.5349 81.4173 49.5157 81.4247 49.4995C81.6338 49.1108 81.8399 48.7809 82.0431 48.4952C82.5114 47.9312 83.2639 47.3098 84.5539 46.6693C84.4846 46.6693 84.411 46.6752 84.3389 46.681C84.4051 46.6545 84.4684 46.6295 84.5318 46.6059C84.2461 46.628 83.9692 46.7002 83.6968 46.79C82.828 47.0183 81.8517 47.6014 80.9932 48.7235C80.8872 48.856 80.7944 48.9841 80.7296 49.0916C80.7222 49.1034 80.7163 49.1181 80.709 49.1314C79.9359 50.2932 79.2865 51.9307 78.9522 54.1985C78.8064 53.2605 78.5973 50.4538 77.1203 53.8878C76.8347 54.5504 76.4327 55.3412 76.041 56.4648C75.879 54.0998 76.7728 52.3431 77.1115 51.5037C76.5357 51.3712 75.0823 51.1576 74.7009 50.6791C74.2268 51.1311 74.321 51.2975 73.6201 52.1914C73.7703 49.0239 75.7936 46.4616 78.8447 46.6324C82.5468 46.8416 84.5568 45.7901 83.0268 44.7461L81.7015 43.7094C81.7015 43.7094 86.3813 46.0523 87.6727 46.5294C88.1513 46.6928 89.0466 46.8195 89.3515 46.6516C89.3515 46.3276 89.6224 45.6488 89.6224 45.6488C89.5856 45.6105 89.5208 45.5663 89.4442 45.5221C89.4398 45.5207 89.4325 45.5177 89.4295 45.5162C89.3426 45.4662 89.2396 45.4176 89.1276 45.3631C88.8876 45.2423 88.5872 45.0848 88.2294 44.9125C85.645 43.3648 81.9062 42.7773 80.603 42.9687C79.9698 42.7198 79.1922 42.3929 78.5399 42.1485C75.7936 41.1133 71.747 43.3442 70.1905 44.9066C70.9238 42.9658 70.887 41.4078 70.2508 41.2649C68.5486 40.8836 66.8463 40.7422 66.8463 40.7422ZM89.8742 48.7574C89.7034 48.7529 89.6342 48.8663 89.7682 49.1284C89.7756 49.1402 89.7859 49.1461 89.7903 49.1579C89.7962 49.1682 89.7962 49.1785 89.8021 49.1888C90.0082 49.5673 90.2777 49.9339 90.5958 50.0871C92.0021 50.6835 91.6855 52.1501 92.2068 53.2973C92.22 53.3046 92.2274 53.3091 92.2333 53.3164C92.8694 53.6198 93.9002 54.306 93.9002 54.306C95.3433 57.3454 95.2785 62.0649 94.2522 63.9616C94.2492 63.966 94.0342 64.3503 93.6646 65.0086C94.4141 64.8289 95.118 64.4151 95.604 64.1943C95.9913 63.4064 96.2681 62.7526 96.1989 60.3023C96.1459 58.3379 95.2182 56.1585 94.4421 54.3369C94.3199 54.0527 94.1844 53.7979 94.0445 53.555C94.0092 53.4946 93.9694 53.4342 93.9326 53.3738C93.8516 53.2413 93.7721 53.1103 93.6852 52.988C93.6661 52.9586 93.6484 52.9291 93.6278 52.8997C93.6131 52.8776 93.6013 52.8496 93.5851 52.8275C93.5807 52.8216 93.5733 52.8157 93.5704 52.8099C93.538 52.7657 93.507 52.7259 93.4776 52.6832C93.1242 52.2105 92.7457 51.7894 92.3702 51.3432C92.0286 50.9382 91.6914 50.5127 91.3748 50.0061C91.3483 49.9604 91.3173 49.9192 91.2894 49.8706C91.2526 49.8102 91.2113 49.7499 91.1686 49.6924C91.1465 49.6586 91.1215 49.6247 91.0994 49.5894C90.7224 49.099 90.1584 48.7647 89.8742 48.7574ZM30.2265 81.2068C30.2265 81.2068 26.9942 81.4115 25.9266 81.7016C26.7115 81.8591 26.9294 82.0241 27.1901 82.3259C28.2577 81.9269 30.2265 81.2068 30.2265 81.2068ZM87.1942 100.39C84.414 102.943 81.1272 106.691 79.2158 108.361C78.2631 111.693 77.2131 113.899 76.6123 116.759L78.1423 116.165C77.4973 117.748 76.895 120.311 76.4945 121.823C77.0011 121.63 77.9155 121.177 77.9155 121.177C77.5297 123.586 76.4945 127.903 76.4945 127.903L81.2715 128.154C81.5498 127.755 81.7648 127.351 82.345 126.285L82.454 125.013C82.454 125.013 80.9166 123.44 80.924 123.44C81.4541 123.428 83.1019 124.711 83.1019 124.711L82.8516 127.903L84.4788 128.154L85.3166 126.285L85.4286 125.163L83.9413 124.11L86.0323 124.994L86.2561 127.999L86.9895 128.154L87.7773 126.307L87.5387 123.829C87.5387 123.829 84.33 122.023 83.4435 121.403C83.4435 121.403 82.6896 119.776 82.4319 119.108C82.9929 115.065 87.2604 104.593 87.1942 100.39ZM40.1089 115.432C38.1887 117.64 32.7844 121.059 31.9465 122.991C31.5415 123.932 30.1514 127.628 30.1514 127.628L35.5042 128.447L36.1079 125.733L36.9856 128.304L38.0444 128.238L38.7807 125.987L39.6023 128.084L40.3327 128.059L40.9748 126.247C40.9748 126.247 40.67 124.265 40.3327 123.057C40.0058 121.888 37.7248 120.828 37.6379 120.147C37.5319 119.311 39.9337 117.288 40.1089 115.432ZM41.2369 126.856L40.7642 128.042L41.5388 128.317L41.2369 126.856ZM21.9095 127.179L21.4368 128.367L22.2113 128.64L21.9095 127.179ZM85.5581 127.23C85.5581 127.23 84.9191 129.053 85.0722 128.944L86.0058 129.08C86.1486 128.701 85.592 127.351 85.5581 127.23ZM15.09 127.297L14.3096 128.615L14.5776 129.025L15.2873 128.56L15.09 127.297ZM39.0074 127.326L38.5347 128.51L39.1311 129.12L39.4786 128.781L39.0074 127.326ZM49.5731 127.357L49.1019 128.812L49.4494 129.152L50.0458 128.545L49.5731 127.357ZM53.7213 127.357L53.2515 128.545L53.845 129.152L54.1925 128.812L53.7213 127.357ZM19.0188 127.406L18.5491 128.591L19.1425 129.204L19.49 128.862L19.0188 127.406ZM88.0276 127.447C88.0276 127.447 87.4342 128.779 87.5564 128.706L88.2515 128.865C88.3619 128.494 88.0276 127.447 88.0276 127.447ZM57.5838 127.475C57.5838 127.475 56.9904 128.809 57.1126 128.735L57.8077 128.893C57.9181 128.523 57.5838 127.475 57.5838 127.475ZM82.4275 127.526C82.4275 127.526 81.8959 128.709 81.999 128.645L82.5939 128.781C82.6881 128.466 82.4275 127.526 82.4275 127.526ZM36.2493 127.553L35.7781 128.738L36.373 129.348L36.7205 129.008L36.2493 127.553ZM132.392 131.277C131.268 131.262 130.317 131.303 129.7 131.343C127.759 131.505 126.388 131.67 124.92 132.158C120.289 133.751 118.616 137.004 117.642 139.771C116.625 142.533 114.939 149.104 116.098 153.365C116.444 154.633 117.404 155.872 118.411 156.618C121.649 159.026 129.156 158.861 132.769 158.212C136.509 157.528 139.13 155.805 140.838 153.04C143.297 149.01 145.811 138.434 142.624 134.368C140.659 131.856 135.759 131.32 132.392 131.277ZM13.3436 131.884C11.2555 131.916 8.82868 132.193 7.16026 133.877C5.12076 135.991 4.06788 143.34 5.04271 145.422C6.01608 147.502 9.89187 147.438 10.9904 147.438H11.8018C13.348 147.438 15.5524 147.332 16.1886 148.287C16.4919 148.743 16.4536 149.235 16.1135 149.787C15.6025 150.601 14.5069 150.844 13.6307 150.975C12.2892 151.202 9.4825 151.079 8.40458 150.975C5.63469 150.709 5.31367 149.819 3.68795 148.295L2.39062 157.913H16.6244C19.1469 157.913 22.1834 158.206 24.2921 155.701C26.0003 153.619 27.2519 145.888 26.3772 144.165C25.1874 141.921 22.6929 141.778 20.2514 141.778H19.4385C18.0572 141.778 15.8558 141.968 15.199 140.704C15.0738 140.466 14.9737 139.886 15.3227 139.298C16.0163 138.127 16.7702 137.999 17.7244 137.901C18.8907 137.739 20.7653 137.705 22.5265 137.868C24.6926 138.03 25.3641 138.615 26.7321 140.077L28.1266 131.89H15.2756C14.6968 131.89 14.0386 131.873 13.3436 131.884ZM95.3816 131.887C96.4006 133.707 96.2799 133.707 95.8676 136.051L92.0109 157.907H101.773L103.544 148.02H113.952L115.065 141.617H104.657L105.433 137.544H110.193C114.219 137.544 114.332 137.351 116.86 139.629L118.52 131.887H95.3816ZM145.857 131.887C146.911 133.742 146.703 134.004 146.4 135.727L142.486 157.91H152.245L153.996 147.986L155.945 152.835C157.131 155.798 157.226 155.502 156.313 157.91H168.712L164.542 146.525C167.153 145.551 168.148 144.283 169.038 142.231C169.939 140.118 170.628 135.986 168.951 133.969C167.243 131.887 163.831 131.887 161.715 131.887H145.857ZM37.713 131.892C38.3094 133.813 38.1931 134.006 36.8324 136.413L24.7869 157.913H32.9213C31.9583 156.224 32.4103 155.508 33.6944 153.298L43.1277 153.311L43.939 157.913H60.6585C59.7087 156.159 59.9061 155.966 60.9972 153.234L64.8171 144.028L65.9038 157.913H74.3225L80.6928 144.384L81.1876 153.329C81.3024 155.898 81.4733 156.094 80.1759 157.913H91.3571L89.808 131.892H79.7238L74.6759 142.305L73.7482 131.892H61.6275C62.2666 134.041 62.3711 134.138 61.4523 136.351L53.574 155.468L49.6261 131.892H37.713ZM172.663 131.892C173.725 133.713 173.51 134.004 173.195 135.796L169.296 157.914H183.609C187.065 157.914 190.897 158.076 193.865 154.856C197.221 151.049 199.44 138.688 197.254 134.72C195.604 131.63 191.571 131.892 188.032 131.892H172.663ZM131.906 135.899C132.153 135.92 132.383 135.964 132.576 136.029C134.917 137.038 134.204 140.843 133.72 144.062C133.449 145.82 133.272 146.6 132.961 148.129C132.374 150.99 131.816 153.233 129.564 154.016C128.791 154.242 127.697 154.245 126.999 153.823C125.41 152.912 125.588 150.277 125.949 147.541C126.21 145.135 126.45 143.77 127.048 141.298C127.479 139.313 128.062 137.167 129.682 136.288C130.255 135.971 131.163 135.837 131.906 135.899ZM157.132 136.307C158.197 136.318 159.175 136.434 159.562 137.191C159.949 137.971 159.368 141.059 158.636 141.971C157.652 143.174 156.459 143.015 154.875 143.015L156.056 136.31C156.412 136.31 156.777 136.304 157.132 136.307ZM184.565 136.537C185.809 136.555 187.17 136.73 187.791 137.876C188.904 139.859 187.223 149.883 185.252 152.059C184.034 153.426 181.746 153.262 179.873 153.262L182.821 136.543H183.391C183.747 136.543 184.149 136.531 184.565 136.537ZM40.9527 140.285L42.275 148.223H36.5026L40.9527 140.285Z" fill="#C1C6C8"/>
<path d="M78.9508 54.918C78.2719 57.8057 77.6417 57.5244 76.3105 59.695C75.583 60.8804 74.9321 62.6696 75.4048 63.4029C75.8098 63.6915 77.3633 64.0111 78.269 63.9831C77.8802 63.7033 76.8317 62.3868 77.518 59.9085C77.9082 58.4963 79.1717 56.7145 78.9508 54.918ZM92.4056 55.3038C91.7282 55.292 90.9536 55.6381 89.9037 56.2875C89.8684 57.3418 89.8669 57.9529 90.2026 59.0029C90.4368 57.7615 91.9992 56.1785 92.949 56.0725C93.0123 55.7853 93.0329 55.5055 93.0579 55.4363C92.8488 55.3494 92.6309 55.3082 92.4056 55.3038Z" fill="#0C2340"/>
<path d="M66.8462 40.7422L62.3372 47.0698L62.6038 50.0871C62.6038 50.0871 66.0069 42.7964 67.6458 42.7964L67.6252 44.0098C67.6134 44.7785 66.9552 47.9784 66.9552 47.9784L69.759 45.1746C70.1153 44.6975 70.6234 43.219 70.5645 42.6256L70.5218 42.172C70.4746 41.6846 70.0962 41.2959 69.6102 41.237L66.8462 40.7422ZM76.3723 42.2663C75.4666 42.3016 74.7745 42.5299 74.3696 42.7964C70.4805 45.3484 69.7575 47.4836 69.7575 47.4836C70.3701 46.6619 78.2719 43.0968 76.0851 46.2643C78.0849 45.4176 80.2319 45.9801 81.8944 46.0714C82.1167 46.0832 83.2874 45.8697 83.2653 45.6326C83.3817 45.4971 83.4008 45.3101 83.2374 45.1481C83.1843 45.0966 83.1313 45.045 83.0769 44.9964H83.0739C83.0695 44.9935 83.068 44.9905 83.0636 44.9876C82.8339 44.7755 82.5924 44.59 82.342 44.4236C79.983 42.6874 77.8816 42.2089 76.3723 42.2663ZM81.4997 42.9834C81.1728 42.982 80.9078 43.004 80.7296 43.0497C81.8782 43.3884 83.1549 44.0039 85.0869 44.9272C86.3592 45.5383 88.0998 46.4705 88.9583 46.4425L89.4442 45.5251C89.4383 45.5221 89.4354 45.5207 89.4295 45.5162C89.3426 45.475 89.2395 45.422 89.1276 45.3646C88.8626 45.2394 88.5563 45.1128 88.3589 44.9905C88.3192 44.9655 88.2721 44.939 88.2294 44.9125C87.5417 44.5767 86.6375 44.1659 85.4771 43.7418C84.0267 43.2102 82.4819 42.9864 81.4997 42.9834ZM84.3388 46.681C84.1342 46.6958 83.9206 46.7326 83.6968 46.7915C82.5364 47.1744 81.5233 48.0594 80.9932 48.7235C80.896 48.8501 80.8032 48.99 80.709 49.1314C80.2422 49.9192 79.8917 50.8469 79.6369 51.8188C80.1744 50.7041 81.0624 50.9544 80.8209 51.5906C80.6103 52.1501 80.3762 53.1765 80.3762 53.1765C81.1831 51.8262 83.364 49.744 85.3652 49.1122C85.8379 48.9606 85.3048 48.1978 85.3829 48.1713C86.7671 47.7163 87.7508 47.6853 88.9436 47.9622C89.2808 48.0387 88.8788 47.6353 88.7654 47.5705C88.7565 47.5661 88.7462 47.5631 88.7389 47.5587C87.4725 47.0197 85.9336 47.273 85.3107 47.4806C84.7158 47.6824 84.1769 47.9224 83.6806 48.1889C82.9414 48.6101 82.2449 49.1167 81.7295 49.5952C81.5218 49.7985 81.3289 50.0031 81.1596 50.2137C81.139 50.2417 81.1154 50.2697 81.0963 50.2977C81.1404 50.2034 81.1817 50.1033 81.2258 49.9928C81.273 49.8529 81.323 49.7263 81.3731 49.6188C81.3819 49.5967 81.3922 49.5717 81.4011 49.5525C81.4084 49.5378 81.4173 49.5157 81.4246 49.501C81.5586 49.1991 81.7412 48.8604 82.0431 48.4967C82.8987 47.3039 83.7086 46.9299 84.3374 46.6825L84.3388 46.681ZM78.774 47.7457C78.6444 47.7457 78.5399 47.8532 78.5399 47.9813C78.5399 48.108 78.6444 48.211 78.774 48.211C78.9021 48.211 79.0037 48.108 79.0037 47.9813C79.0037 47.8532 78.9021 47.7457 78.774 47.7457ZM76.6771 48.2066C76.3546 48.401 76.094 48.6705 75.7935 49.155C76.0454 49.9295 77.0393 50.5215 77.9744 50.4258C77.1778 50.2844 76.5755 49.5923 76.5755 48.7574C76.5755 48.563 76.6152 48.3804 76.6756 48.2051L76.6771 48.2066ZM89.7917 48.8472C89.7225 48.8914 89.7152 48.9915 89.7917 49.1579C90.0053 49.5246 90.4632 49.8574 90.7725 50.0061C92.1802 50.601 91.9564 51.8851 92.4748 53.0322C92.4895 53.0381 94.0283 54.0247 94.0283 54.0247C95.4729 57.0641 96.2342 62.6922 96.168 60.2419C96.1135 58.279 95.1843 56.0966 94.4082 54.278C94.3007 54.0247 94.1785 53.7862 94.046 53.555C94.0106 53.4931 93.9694 53.4328 93.9326 53.3738C93.8546 53.2413 93.7721 53.1132 93.6852 52.9866C93.6219 52.8923 93.5542 52.8054 93.4879 52.7156C93.2479 52.4182 93.0093 52.1236 92.7737 51.8409L92.6132 51.648C92.1891 51.1547 91.7665 50.6437 91.3762 50.0061C91.3748 50.0046 91.3689 49.9987 91.3674 49.9943C91.2997 49.8956 91.2334 49.794 91.1686 49.6924C90.7283 49.0916 89.9979 48.7161 89.7917 48.8472ZM87.0852 50.0238L86.9762 50.0606C86.8746 50.146 86.7421 50.2226 86.5727 50.2947C86.2178 50.3772 85.8821 50.5082 85.567 50.6673C84.1268 51.3697 83.3184 52.505 82.8633 53.6477C83.7042 53.2295 84.1724 53.125 84.4051 53.2016C83.7704 53.9172 83.6394 55.3044 83.6394 55.3044C86.1619 53.1765 86.3754 58.4542 87.2928 59.8428C87.6256 56.8049 87.7007 56.1599 88.7227 54.4783C88.733 54.4621 88.7418 54.4488 88.7536 54.4297C89.2822 54.1145 89.5797 53.6639 90.7003 53.4431C90.7018 53.4416 90.7047 53.4386 90.7062 53.4372C91.3659 51.5979 90.4942 50.6202 89.1423 50.2226C89.1099 50.2123 89.0776 50.2049 89.0437 50.1961C88.9656 50.1754 88.8861 50.1548 88.8051 50.1386C88.3265 50.0429 87.7596 49.9958 87.0852 50.0238ZM91.9167 54.3693L89.5679 55.4045L92.0904 55.0364L93.189 55.2352L93.0594 56.316C93.0594 56.316 92.7369 56.5251 91.2069 58.5514C90.6753 59.2553 90.6134 60.2331 90.8019 61.0709C92.2392 61.5922 92.435 61.5584 92.2392 63.0781C92.5454 62.9794 92.8282 62.2578 93.0594 61.4995C93.5497 59.8723 93.909 58.385 93.9135 57.3233C93.9179 55.7609 93.5438 54.764 93.5335 54.7345C93.5321 54.733 93.5321 54.7316 93.5306 54.7286L91.9167 54.3693ZM61.4272 60.9075C59.8707 63.9896 59.987 68.796 62.6759 70.0845C66.0687 71.7088 75.7935 73.1872 75.7935 73.1872C75.7935 73.1872 69.4424 70.9327 65.2323 68.2526C62.9057 66.7712 61.5082 62.0355 61.4272 60.9075ZM55.0598 67.4103C55.0598 67.4103 52.5152 71.0049 51.05 73.8116C47.4496 80.7091 47.9473 88.7478 47.9473 88.7478C47.9473 88.7478 49.8322 79.8064 55.0598 73.573C57.9475 70.1302 59.7544 70.7943 61.5921 70.9018C56.8063 68.5751 55.0598 67.4103 55.0598 67.4103ZM65.2323 72.5408C65.2323 72.5408 74.6508 80.3984 76.496 88.3193C77.515 92.6987 72.3492 98.3371 71.1609 99.7405C75.6625 98.2105 82.5026 92.385 84.5082 90.6209C84.4861 91.5589 84.3492 92.4675 84.0281 93.2745C88.0718 90.3632 89.8875 83.2551 89.8875 83.2551L87.4769 75.4712C85.7908 78.1645 84.0856 80.7297 82.7337 82.4025C82.719 82.4202 82.7058 82.4379 82.691 82.4555C82.5688 82.3201 82.4098 82.1139 82.2139 81.8591C77.6431 77.4459 65.2323 72.5408 65.2323 72.5408ZM59.3686 96.6996L53.3885 100.387L50.9985 122.268L55.4883 117.217C55.1703 117.333 55.0186 117.385 54.7668 117.422L53.5372 117.765L54.487 111.564L59.3686 96.6996ZM28.4712 97.3991C28.4712 97.3991 27.595 103.211 26.0724 107.373C25.2316 109.674 21.6665 112.059 20.7829 112.421C23.4571 112.893 27.2637 111.543 27.8984 108.996C28.6995 105.781 28.4712 97.3991 28.4712 97.3991ZM86.8967 101.854L82.3008 107.114L81.4526 119.499L82.1359 119.171L86.8967 101.854ZM37.6173 120.773L40.1074 126.637L40.315 127.553L40.7701 125.507L40.2311 123.621C40.103 123.168 39.8453 122.76 39.4948 122.447L37.6173 120.773ZM19.0203 121.196L17.2974 126.437L17.9247 127.674L18.552 125.475L19.0203 121.196ZM83.5775 121.92L83.7071 123.39L86.6463 124.668L87.5431 125.896V123.827L83.5775 121.92ZM49.576 122.556L48.4421 125.74L49.1048 126.485L50.0281 124.101L49.576 122.556ZM52.0749 122.795L52.7715 125.982L53.4327 126.724V124.852L52.0749 122.795ZM55.7402 122.873L56.4352 126.06L57.0993 126.802V124.929L55.7402 122.873ZM80.1185 122.954L81.4747 125.507L82.1374 126.253V125.024L80.1185 122.954ZM81.7663 123.181L84.386 125.507L85.0471 126.253V125.024L81.7663 123.181ZM20.4649 124.256L20.188 127.245L20.8492 127.989L21.4397 126.283L20.4649 124.256ZM132.235 132.568C132.235 132.568 127.188 132.52 124.852 133.528C124.852 133.528 120.557 134.877 118.801 140.377C117.579 144.2 117.224 146.748 117.118 149.298C117.118 149.298 116.868 152.408 118.142 154.389C118.142 154.389 118.984 155.984 121.636 156.727C124.292 157.469 126.132 157.352 127.936 157.316C129.741 157.282 131.967 157.045 133.204 156.69C133.204 156.69 136.456 156.056 138.085 154.286C139.712 152.514 140.173 151.455 141.234 148.873C141.234 148.873 142.068 146.119 142.644 142.041C143.211 138.046 142.003 135.835 141.068 134.857C139.9 133.635 138.188 133.311 138.188 133.311C135.748 132.567 132.235 132.568 132.235 132.568ZM97.346 133C97.346 133 97.4623 133.537 97.4947 133.797C97.536 134.123 97.4108 134.044 93.7073 156.308L100.65 156.284L102.468 146.525H113.029L113.684 142.895H103.104L104.332 136.226H113.313C113.313 136.226 114.878 136.275 115.635 136.882C115.893 137.088 116.129 137.297 116.129 137.297L117.024 133H97.346ZM160.73 133.112C158.697 133.122 155.135 133.147 147.884 133.115C147.884 133.115 148.136 133.445 148.029 133.926C147.932 134.368 147.787 134.282 144.175 156.299H151.207L153.56 144.109L158.017 154.518C158.017 154.518 158.376 155.35 158.298 155.741C158.214 156.175 158.164 156.353 158.164 156.353H166.723L162.863 145.829C162.863 145.829 165.483 145.185 166.448 144.006C167.414 142.828 168.057 141.916 168.431 139.45C168.807 136.983 168.481 135.852 167.951 135.007C167.568 134.397 166.969 133.412 164.396 133.197C163.262 133.103 162.762 133.1 160.73 133.112ZM63.262 133.196C63.262 133.196 63.3165 133.417 63.3739 133.589C63.5448 134.091 63.4196 135.088 63.4196 135.088L54.4811 156.322H58.6573C58.6573 156.322 58.5101 156.038 58.725 155.502C58.9739 154.875 59.0844 154.682 65.3383 140.109L67.1732 156.322H73.5376L81.4246 140.027C81.4246 140.027 82.7102 154.677 82.7735 155.428C82.8354 156.199 82.5718 156.501 82.5202 156.445H89.8992L88.3987 133.197H80.6618L73.8836 146.823L72.5024 133.197L63.262 133.196ZM174.728 133.206C174.728 133.206 175.049 133.667 174.94 134.25C174.835 134.836 171.173 156.493 171.173 156.493H185.673C185.673 156.493 190.24 156.492 192.257 154.474C192.257 154.474 194.756 152.884 196.295 144.443C197.921 135.541 194.88 134.112 194.88 134.112C194.88 134.112 193.795 133.26 191.726 133.26C190.447 133.26 174.728 133.206 174.728 133.206ZM39.3093 133.209C39.3093 133.209 39.3579 133.355 39.4183 133.69C39.5081 134.201 39.1282 135.191 39.1282 135.191L27.2401 156.347L31.1145 156.321L31.1498 155.75C30.9893 154.623 32.9404 151.981 32.9404 151.981H44.1835L45.1244 156.341H52.3915L48.3891 133.209H39.3093ZM13.6145 133.253C13.1978 133.249 12.5498 133.269 11.6265 133.371C9.23509 133.635 8.24995 134.52 7.45623 136.054C6.66105 137.593 6.14271 140.358 6.05582 142.937C5.95569 145.811 9.28221 146.026 9.28221 146.026C9.28221 146.026 13.1124 146.097 13.6425 146.097C14.1726 146.097 16.1017 146.425 16.5243 146.69C16.9484 146.955 17.829 147.381 17.7436 148.758C17.6832 149.744 17.558 150.065 17.1663 150.716C16.5272 151.781 15.0797 152.233 14.0622 152.422C13.1403 152.594 11.8945 152.472 8.23522 152.472C5.44176 152.472 4.7261 151.07 4.7261 151.07L3.97656 156.392H18.2192C20.6563 156.392 21.7931 155.988 22.6502 155.345C23.5249 154.689 23.8282 153.775 24.2847 152.675C24.9636 151.034 25.2831 148.1 25.2831 148.1C25.7116 145.883 25.1388 144.63 24.5807 144.072C23.7723 143.261 22.3262 143.206 21.6385 143.133C20.9523 143.059 19.9171 143.094 17.3784 143.094C16.5567 143.094 15.3669 142.804 14.8308 142.445C14.2934 142.09 13.1654 141.295 13.5041 139.741C13.7382 138.659 13.9635 138.342 14.5599 137.65C15.3816 136.697 17.0191 136.543 17.7848 136.543C18.8244 136.543 22.4396 136.465 24.0049 136.652C25.183 136.796 25.9354 137.331 25.9354 137.331L26.657 133.287H14.2153C14.2153 133.287 14.0298 133.258 13.6145 133.253ZM131.317 134.618C131.99 134.587 132.655 134.642 133.082 134.808C136.014 135.952 135.709 140.254 135.159 143.897C134.854 145.885 134.65 146.77 134.301 148.499C133.637 151.735 132.71 154.794 129.676 155.315C128.781 155.468 127.463 155.462 126.616 155.094C124.054 153.979 124.242 150.925 124.649 147.834C124.948 145.112 125.22 143.567 125.898 140.771C126.388 138.525 127.307 135.795 129.495 134.95C129.957 134.771 130.642 134.651 131.317 134.618ZM155.101 135.246C155.101 135.246 158.438 135.22 159.351 135.435C160.261 135.648 161.282 136.77 160.747 139.718C160.174 142.868 158.627 143.579 157.983 143.845C157.527 144.035 153.524 144.056 153.524 144.056L155.101 135.246ZM181.798 135.459H185.729C185.729 135.459 188.14 135.458 188.853 136.989C189.355 138.077 189.811 139.453 189.113 144.21C188.144 150.822 186.803 152.268 185.519 153.517C184.464 154.543 182.172 154.548 182.172 154.548H178.406L181.798 135.459ZM41.4445 136.948L43.7329 149.41H34.3512L41.4445 136.948Z" fill="white"/>
</g>
<defs>
<clipPath id="clip0_154_2453">
<rect width="200" height="200" fill="white"/>
</clipPath>
</defs>
</svg>
