<svg width="200" height="200" viewBox="0 0 200 200" fill="none" xmlns="http://www.w3.org/2000/svg">
<g clip-path="url(#clip0_154_2452)">
<path d="M135.809 31.9828V53.7231H147.427L93.9387 140.417L40.4504 53.7231H52.068V31.9828H5.59766V53.7231H17.2152L93.9387 178.074L170.662 53.7231H182.28V31.9828H135.809Z" fill="#FFD619"/>
<path fill-rule="evenodd" clip-rule="evenodd" d="M135.809 31.9828V53.7231H147.427L93.9387 140.417L40.4504 53.7231H52.068V31.9828H5.59766V53.7231H17.2152L93.9387 178.074L170.662 53.7231H182.28V31.9828H135.809Z" stroke="#231F20" stroke-width="2.08146"/>
<path fill-rule="evenodd" clip-rule="evenodd" d="M117.173 33.9102V12.1699H70.7031V33.9102H82.3207V178.084H70.7031V199.824H117.173V178.084H105.556V33.9102H117.173Z" fill="white"/>
<path fill-rule="evenodd" clip-rule="evenodd" d="M117.173 33.9103V12.1699H70.7031V33.9103H82.3207V178.084H70.7031V199.824H117.173V178.084H105.556V33.9103H117.173Z" stroke="#231F20" stroke-width="2.08146"/>
<path d="M57.6339 55.625L51.2924 71.2783L66.7232 96.288L69.9043 88.4302L93.9377 127.384L117.974 88.4302L121.155 96.288L136.586 71.2783L130.244 55.625H112.647L93.9377 85.9494L75.2309 55.625H57.6339ZM42.0844 94.012L16.048 158.245H5.59961V179.979H52.0699V158.245H41.6156L57.5122 119.019L42.0844 94.009V94.012ZM145.794 94.012L130.366 119.022L146.263 158.248H135.811V179.982H182.276V158.248H171.827L145.794 94.012Z" fill="#AE122A"/>
<path fill-rule="evenodd" clip-rule="evenodd" d="M57.6339 55.625L51.2924 71.2783L66.7232 96.288L69.9043 88.4302L93.9377 127.384L117.974 88.4302L121.155 96.288L136.586 71.2783L130.244 55.625H112.647L93.9377 85.9494L75.2309 55.625H57.6339ZM42.0844 94.012L16.048 158.245H5.59961V179.979H52.0699V158.245H41.6156L57.5122 119.019L42.0844 94.009V94.012ZM145.794 94.012L130.366 119.022L146.263 158.248H135.811V179.982H182.276V158.248H171.827L145.794 94.012Z" stroke="#231F20" stroke-width="2.04943"/>
</g>
<defs>
<clipPath id="clip0_154_2452">
<rect width="200" height="200" fill="white"/>
</clipPath>
</defs>
</svg>
