<svg width="200" height="200" viewBox="0 0 200 200" fill="none" xmlns="http://www.w3.org/2000/svg">
<g clip-path="url(#clip0_154_2451)">
<path d="M89.0224 24.0017C89.0224 24.0017 93.3365 31.408 94.7525 33.5087C94.6382 35.0686 94.5445 36.5454 94.4562 37.9632C92.6068 38.062 90.7296 38.2076 88.8317 38.3965C84.5887 36.5332 79.2225 34.4412 73.3831 32.7894C59.7094 28.9259 46.4049 26.7091 29.256 33.5381L20.3193 37.1C20.3193 37.1 32.0223 40.1488 34.584 41.0102C35.5321 44.248 36.9673 49.0283 38.6329 54.0218C13.2302 68.5882 -6.83228 93.9614 -5.71952 133.431L-5.34514 146.679L2.30028 135.856C4.89498 132.182 7.42381 129.079 9.82785 126.458C2.0403 142.846 4.52926 156.889 4.60206 157.274L6.56584 168.065L12.6271 158.922C15.7868 154.158 20.685 150.022 25.5052 146.75C17.2722 165.478 23.8413 179.631 24.1273 180.231L27.7931 187.864L31.9581 180.493C46.2108 155.241 85.9216 150.528 105.728 155.218C105.407 155.695 105.22 156.265 105.22 156.874C105.22 157.818 105.669 158.661 106.371 159.226C106.364 159.229 106.357 159.233 106.357 159.233L95.5914 165.204L107.697 167.436C111.371 168.114 115.196 168.076 118.611 167.75L115.073 171.944L124.681 171.863C159.488 171.575 176.656 149.636 167.444 136.712C168.966 134.116 169.824 131.282 170.331 129.051C170.567 128.008 170.741 127.029 170.869 126.167C183.962 122.583 187.463 115.65 188.127 111.112C197.421 104.517 195.349 92.9301 187.03 87.5484C187.213 86.9279 187.345 86.4651 187.345 86.4651C187.345 86.4651 185.466 84.425 183.922 83.5393C182.736 82.8599 181.008 82.047 178.573 81.2722L169.406 73.4795L176.705 64.8998L165.324 65.3782C161.48 52.2626 147.133 44.8841 135.54 46.2586C133.891 44.9361 131.941 43.7904 129.785 42.8094C125.627 35.4378 115.878 24.7938 94.6953 24.1699L89.0154 24L89.0224 24.0017Z" fill="#C1A875"/>
<path d="M94.6109 27.3242C94.6109 27.3242 96.4724 30.5273 97.9821 32.6297C97.7411 35.6924 97.5921 38.4188 97.417 40.9979C94.4618 41.0863 91.4199 41.2891 88.3174 41.6167C84.0761 39.724 78.5661 37.5314 72.5256 35.8241C59.1535 32.0456 46.6445 30.0108 30.4229 36.4706C30.4229 36.4706 33.9865 37.3997 37.1601 38.5662C38.1828 42.0986 40.1535 48.8097 42.4674 55.5001C16.8151 69.3784 -3.67209 94.0722 -2.56454 133.339L-2.45881 137.123L-0.27663 134.033C7.96504 122.368 15.6365 116.144 21.1898 112.836C22.4673 112.077 23.6389 111.472 24.6754 110.987C3.31122 132.386 7.67731 156.558 7.70678 156.707L8.26836 159.789L9.99469 157.179C16.0264 148.077 27.5925 141.35 34.0576 138.109C18.2346 160.454 26.8749 178.662 26.9755 178.869L28.0206 181.046L29.2096 178.943C47.2425 147.001 102.513 145.989 116.426 156.293C113.237 159.018 107.924 161.975 107.888 161.994L104.818 163.696L108.274 164.335C113.28 165.259 118.748 164.718 122.905 163.976C124.239 163.739 125.451 163.479 126.479 163.233C125.132 164.919 123.697 166.623 123.683 166.639L121.913 168.732L124.655 168.71C162.465 168.398 171.838 145.079 163.475 136.925C165.526 134.395 166.642 131.065 167.257 128.354C167.701 126.385 167.902 124.652 167.992 123.631C183.642 120.078 185.12 112.15 185.103 109.313C194.27 103.955 192.235 92.9906 183.231 89.0891C183.619 88.011 183.824 87.2986 183.824 87.2986C183.824 87.2986 182.158 85.6416 177.022 84.0955L164.955 73.8381L169.62 68.3575L162.829 68.6417C160.549 55.2332 145.735 47.4543 134.578 49.6018C132.828 47.9396 130.439 46.4872 127.534 45.2722C124.149 38.7308 115.438 27.9395 94.6126 27.326L94.6109 27.3242Z" fill="#592C88"/>
<path d="M109.208 65.5117C108.8 68.5796 111.137 73.5749 115.371 75.2613C119.9 77.0691 124.955 74.75 126.809 71.8607C125.537 71.176 122.065 70.455 121.315 70.0425C120.75 71.5071 116.659 73.4553 116.659 73.4553C116.659 73.4553 115.16 68.8725 115.311 67.472C114.288 67.1757 110.302 65.7093 109.208 65.5117ZM167.172 104.155C163.733 106.226 159.738 107.022 155.966 107.169L155.93 112.849C155.93 112.849 160.58 109.037 161.233 108.245L162.256 112.696L166.582 108.193L166.929 112.653C166.929 112.653 170.482 109.816 172.597 107.876C169.477 106.288 167.172 104.155 167.172 104.155ZM145.534 106.179C144.019 108.394 141.722 112.996 144.298 118.024C144.298 118.024 146.742 111.157 153.065 107.162C150.134 107.041 147.485 106.6 145.534 106.179ZM174.625 108.767C173.741 110.847 171.747 114.617 168.038 117.853C168.038 117.853 175.89 117.693 180.5 109.375C178.559 109.81 176.514 109.457 174.625 108.767ZM135.099 125.252C130.413 131.84 130.681 136.662 131.248 139.125C133.581 139.766 135.68 139.276 140.1 138.141C135.08 133.955 135.099 125.252 135.099 125.252ZM162.987 127.121C162.987 127.121 157.772 133.196 154.718 135.104C156.543 135.182 158.065 135.506 159.358 136.075C162.448 131.677 162.987 127.121 162.987 127.121ZM147.733 131.15L141.495 137.953C141.973 137.829 142.46 137.693 142.956 137.544C146.983 136.336 150.158 135.605 152.699 135.371L153.611 131.884L149.541 134.603L147.733 131.15Z" fill="white"/>
<path d="M43.4546 40.0742C44.6436 43.6101 46.207 48.4147 46.207 48.4147L50.9527 48.2899L47.8328 52.0043L52.5074 52.058L49.1483 55.4899L49.6839 57.6027C49.6839 57.6027 41.0141 61.8804 37.3778 65.5289C37.3778 65.5289 54.5579 58.5612 69.1485 54.3424C59.7403 44.5911 43.4546 40.0742 43.4546 40.0742ZM106.249 51.7876C101.411 51.8015 96.6103 52.6317 92.2373 54.7394C78.6225 61.2998 76.631 75.9701 76.631 75.9701C76.631 75.9701 86.7307 63.9222 102.535 63.1076C102.535 63.1076 98.2309 60.8266 94.0953 59.258C94.0953 59.258 112.887 52.4272 133.849 65.2828C139.836 68.9521 146.034 65.5185 146.034 65.5185C146.034 65.5185 147.22 71.5555 142.219 73.339C142.219 73.339 144.866 74.7152 149.449 72.4793C149.449 72.4793 148.116 79.5476 135.163 76.9217C116.467 73.1293 115.505 89.4809 115.505 89.4809C117.274 86.4494 124.979 81.0087 138.271 80.773C123.065 84.4059 108.123 98.5043 112.248 122.061C116.525 100.26 136.803 99.0225 141.911 100.78C164.641 108.59 167.986 98.0085 165.26 93.1329C162.7 93.3079 162.124 96.563 162.124 96.563L159.514 96.0551C159.514 96.0551 156.992 88.4773 157.578 82.4248C157.578 82.4248 160.715 81.4056 167.847 82.2532L158.398 74.3824L152.212 73.9214C152.212 73.9214 159.646 69.1757 152.676 62.5182C145.707 55.859 136.299 56.0289 136.299 56.0289C136.299 56.0289 139.164 58.504 141.223 62.1283C141.223 62.1283 123.528 51.7408 106.252 51.7876H106.249ZM155.252 75.6962L163.183 80.584C159.377 80.2911 156.697 80.825 156.697 80.825L155.252 75.6962ZM113.7 91.4707C113.699 91.4724 113.697 91.4724 113.697 91.4741H113.702L113.7 91.4707ZM113.697 91.4741C98.7422 91.3875 52.4242 100.626 36.2685 116.65C36.2685 116.65 82.0231 95.4104 110.788 96.1973C111.591 94.6079 112.551 93.0237 113.697 91.4741ZM181.402 93.3738C180.206 95.7258 178.611 98.1039 176.704 99.1525L174.364 98.3673C174.59 97.1748 174.018 95.946 173.585 95.2041C170.049 95.1833 168.09 102.042 174.711 105.351C178.403 107.195 184.348 106.495 185.7 102.25C187.485 96.6722 183.464 94.2335 181.402 93.3738ZM109.506 99.071C98.3037 100.231 49.0652 109.346 28.623 130.441C28.623 130.441 80.6643 105.108 107.877 104.508C108.258 102.732 108.788 100.907 109.506 99.071ZM107.301 107.971C96.2602 109.384 54.8404 118.783 42.7266 132.315C42.7266 132.315 81.2397 114.443 107.027 113.435L107.024 113.045C107.013 111.464 107.09 109.76 107.301 107.971ZM107.301 116.372C103.51 121.016 101.923 132.469 105.745 139.687C112.187 151.849 129.054 150.819 129.054 150.819C127.677 154.052 123.972 157.888 123.972 157.888C132.784 156.402 140.493 152.41 140.493 152.41C140.644 155.718 136.687 160.207 136.687 160.207C136.687 160.207 159.146 155.542 158.985 144.623C158.933 141.111 155.657 137.243 148.56 139.451C144.251 140.791 129.281 144.619 119.122 141.153C117.955 140.912 114.078 138.472 113.35 137.459C109.537 132.828 107.32 124.822 107.301 116.372ZM151.088 121.021C150.355 121.021 149.568 121.109 148.726 121.312C139.658 123.482 139.795 131.525 139.795 131.525C139.795 131.525 143.349 127.906 149.447 129.07C158.862 130.871 158.444 127.28 158.573 126.224C158.673 125.391 156.221 121.019 151.088 121.021Z" fill="#C1A875"/>
<path d="M43.4546 40.0742C44.6436 43.6101 46.207 48.4147 46.207 48.4147L50.9527 48.2899L47.8328 52.0043L52.5074 52.058L49.1483 55.4899L49.6839 57.6027C49.6839 57.6027 41.0141 61.8804 37.3778 65.5289C37.3778 65.5289 54.5579 58.5612 69.1485 54.3424C59.7403 44.5911 43.4546 40.0742 43.4546 40.0742ZM106.249 51.7876C101.411 51.8015 96.6103 52.6317 92.2373 54.7394C78.6225 61.2998 76.631 75.9701 76.631 75.9701C76.631 75.9701 86.7307 63.9222 102.535 63.1076C102.535 63.1076 98.2309 60.8266 94.0953 59.258C94.0953 59.258 112.887 52.4272 133.849 65.2828C139.836 68.9521 146.034 65.5185 146.034 65.5185C146.034 65.5185 147.22 71.5555 142.219 73.339C142.219 73.339 144.866 74.7152 149.449 72.4793C149.449 72.4793 148.116 79.5476 135.163 76.9217C116.467 73.1293 115.505 89.4809 115.505 89.4809C117.274 86.4494 124.979 81.0087 138.271 80.773C123.065 84.4059 108.123 98.5043 112.248 122.061C116.525 100.26 136.803 99.0225 141.911 100.78C164.641 108.59 167.986 98.0085 165.26 93.1329C162.7 93.3079 162.124 96.563 162.124 96.563L159.514 96.0551C159.514 96.0551 156.992 88.4773 157.578 82.4248C157.578 82.4248 160.715 81.4056 167.847 82.2532L158.398 74.3824L152.212 73.9214C152.212 73.9214 159.646 69.1757 152.676 62.5182C145.707 55.859 136.299 56.0289 136.299 56.0289C136.299 56.0289 139.164 58.504 141.223 62.1283C141.223 62.1283 123.528 51.7408 106.252 51.7876H106.249ZM155.252 75.6962L163.183 80.584C159.377 80.2911 156.697 80.825 156.697 80.825L155.252 75.6962ZM113.7 91.4707C113.699 91.4724 113.697 91.4724 113.697 91.4741H113.702L113.7 91.4707ZM113.697 91.4741C98.7422 91.3875 52.4242 100.626 36.2685 116.65C36.2685 116.65 82.0231 95.4104 110.788 96.1973C111.591 94.6079 112.551 93.0237 113.697 91.4741ZM181.402 93.3738C180.206 95.7258 178.611 98.1039 176.704 99.1525L174.364 98.3673C174.59 97.1748 174.018 95.946 173.585 95.2041C170.049 95.1833 168.09 102.042 174.711 105.351C178.403 107.195 184.348 106.495 185.7 102.25C187.485 96.6722 183.464 94.2335 181.402 93.3738ZM109.506 99.071C98.3037 100.231 49.0652 109.346 28.623 130.441C28.623 130.441 80.6643 105.108 107.877 104.508C108.258 102.732 108.788 100.907 109.506 99.071ZM107.301 107.971C96.2602 109.384 54.8404 118.783 42.7266 132.315C42.7266 132.315 81.2397 114.443 107.027 113.435L107.024 113.045C107.013 111.464 107.09 109.76 107.301 107.971ZM107.301 116.372C103.51 121.016 101.923 132.469 105.745 139.687C112.187 151.849 129.054 150.819 129.054 150.819C127.677 154.052 123.972 157.888 123.972 157.888C132.784 156.402 140.493 152.41 140.493 152.41C140.644 155.718 136.687 160.207 136.687 160.207C136.687 160.207 159.146 155.542 158.985 144.623C158.933 141.111 155.657 137.243 148.56 139.451C144.251 140.791 129.281 144.619 119.122 141.153C117.955 140.912 114.078 138.472 113.35 137.459C109.537 132.828 107.32 124.822 107.301 116.372ZM151.088 121.021C150.355 121.021 149.568 121.109 148.726 121.312C139.658 123.482 139.795 131.525 139.795 131.525C139.795 131.525 143.349 127.906 149.447 129.07C158.862 130.871 158.444 127.28 158.573 126.224C158.673 125.391 156.221 121.019 151.088 121.021Z" fill="#C1A875"/>
<path d="M155.256 75.6914L156.701 80.8201C156.701 80.8201 159.384 80.288 163.191 80.5809L155.256 75.6914Z" fill="#592C88"/>
</g>
<defs>
<clipPath id="clip0_154_2451">
<rect width="200" height="200" fill="white"/>
</clipPath>
</defs>
</svg>
