<svg width="200" height="200" viewBox="0 0 200 200" fill="none" xmlns="http://www.w3.org/2000/svg">
<path fill-rule="evenodd" clip-rule="evenodd" d="M35.2127 117.595C33.6583 117.651 32.1408 117.962 31.249 118.507C31.1367 121.531 32.659 122.922 33.8717 124.619C36.2217 122.989 37.9799 120.771 39.4043 118.215C38.3632 117.742 36.7687 117.54 35.2127 117.595ZM27.7568 119.382C25.7356 121.98 18.4769 130.193 18.4416 133.355C18.4128 135.96 21.2248 141 23.1 144.127C35.0571 164.053 53.8607 176.5 76.0874 185.467C80.0833 187.079 83.9701 189.137 87.7334 189.543C105.353 191.44 122.467 186.994 133.441 180.516C122.917 183.968 124.737 168.933 134.025 172.367C134.113 168.98 133.916 165.871 132.277 164.212C126.882 164.918 121.908 167.659 116.263 169.454C110.805 171.19 104.131 173.771 97.9212 172.947C91.1822 172.056 82.9739 167.021 76.6697 163.633C55.9894 152.52 38.9856 138.681 27.7536 119.38L27.7568 119.382ZM26.512 131.028C30.3346 130.933 33.5204 134.714 32.7055 138.885C31.5168 144.983 22.0541 141.857 21.9338 135.975C21.9001 134.406 22.3332 132.13 24.8453 131.316C25.4067 131.133 25.9666 131.04 26.512 131.028ZM42.5404 147.667C46.4625 147.643 50.1423 151.264 49.0114 155.773C47.2437 162.821 35.7501 156.463 37.9478 150.24C38.2542 149.369 39.3578 148.344 40.8577 147.911C41.4159 147.751 41.9805 147.67 42.5404 147.667ZM60.9076 163.856C64.5666 163.949 68.7999 167.021 67.3514 172.075C63.4052 177.276 55.2418 172.704 56.2893 167.127C56.7224 164.82 58.71 163.801 60.9076 163.856ZM84.331 175.959C87.9178 175.858 91.1999 178.133 90.9352 181.976C90.5197 188.009 79.5443 187.242 79.2893 180.518C79.2187 178.712 79.5572 176.862 82.783 176.152C83.298 176.038 83.8177 175.973 84.331 175.959ZM111.025 176.734C113.966 176.808 115.73 178.309 115.972 180.518C116.709 187.207 105.494 188.166 104.326 182.847C103.306 178.187 106.861 176.631 111.025 176.734Z" fill="#886E4C" stroke="#886E4C" stroke-width="0.383808"/>
<path fill-rule="evenodd" clip-rule="evenodd" d="M116.649 51.6698C107.459 51.5976 98.9824 53.7086 91.5184 56.2062C100.133 56.3731 109.594 54.9165 117.138 57.6596C123.816 60.0898 127.553 68.2741 131.403 75.1301C133.808 79.4115 137.416 84.973 137.52 89.1036C137.669 95.1383 130.946 101.046 127.33 104.535C123.779 107.96 119.974 111.269 116.556 115.31C110.231 122.787 102.949 132.545 101.998 144.131C101.212 153.694 105.898 162.374 115.973 161.015C123.189 160.046 125.285 151.53 132.57 149.079C138.15 147.197 140.236 151.05 144.798 151.117C151.556 151.215 152.547 142.502 160.225 142.094C164.062 141.891 168.483 144.393 171.583 141.799C174.225 139.589 173.279 131.558 170.709 129.574C169.118 136.592 156.246 139.136 147.708 138.889C144.488 138.796 140.561 137.535 136.936 138.018C126.06 139.465 125.389 154.756 115.393 155.485C113.634 155.614 111.222 155.168 110.15 154.029C105.094 148.649 115.559 142.009 118.594 139.763C125.42 134.717 132.966 130.233 141.304 127.827C146.254 126.399 151.383 126.555 156.152 125.208C162.92 123.297 165.836 116.472 161.976 109.486C159.958 107.62 156.16 107.533 152.655 107.155C153.98 106.149 155.542 105.382 155.568 103.079C154.05 100.94 150.446 101.441 149.453 103.661C148.638 105.488 150.149 106.789 149.453 108.029C146.256 106.706 143.709 104.895 143.049 101.624C140.996 91.4376 157.969 85.3355 166.923 89.9779C168.747 92.7883 169.32 95.3292 168.38 98.4188C167.294 101.986 162.786 105.576 162.555 108.319C162.507 108.902 163.324 111.099 163.722 112.687C164.612 116.25 165.43 120.937 168.669 121.714C175.793 123.421 181.308 112.407 181.771 105.992C182.216 99.8416 179.304 93.5775 176.239 90.8521C172.944 87.923 169.169 87.3551 164.596 86.4857C164.403 80.2713 163.986 74.2847 160.81 71.054C159.771 71.9812 160.979 74.1772 161.099 75.714C160.61 77.501 157.745 78.3095 158.187 80.0772C159.843 79.9777 160.999 80.3756 161.681 81.2434C160.982 90.7863 153.67 82.015 154.406 77.4625C155.016 73.68 162.976 70.0947 162.847 66.3956C162.785 64.6263 160.46 62.6227 158.771 62.9018C158.051 63.0205 156.585 64.9311 156.152 65.5246C153.203 69.5718 152.592 71.5978 149.745 75.422C143.513 64.6664 136.787 53.0942 120.632 51.8398C119.291 51.7355 117.961 51.681 116.649 51.6698ZM97.343 74.8381C94.2406 75.9113 89.7924 78.1571 87.4423 80.9498C91.7446 82.2765 96.6596 82.9935 100.545 84.7388C99.0434 93.7299 101.135 104.946 107.823 106.861C116.475 109.34 120.37 98.6834 123.833 93.1797C124.979 93.685 126.254 94.0588 127.327 94.6362C119.132 86.2386 109.265 79.5093 97.343 74.8381ZM150.077 86.1729C150.97 86.2017 151.851 86.3894 152.655 86.7744C151.277 88.0689 149.151 88.0465 147.419 88.8117C145.632 89.5993 144.276 90.4655 143.049 91.7248C142.085 88.9416 146.201 86.0542 150.077 86.1729ZM109.239 87.0199C111.982 86.999 115.086 90.0998 118.304 90.5602C118.224 91.5483 118.529 92.9198 118.012 93.47C116.334 93.9304 114.241 93.446 112.483 94.3443C113.352 95.9965 115.774 96.096 116.556 97.8381C113.205 104.08 104.608 101.033 104.913 93.762C105.036 90.7703 106.697 87.4097 108.694 87.0664C108.873 87.0359 109.056 87.0215 109.239 87.0199ZM168.199 122.928C166.712 123.013 165.197 123.841 164.304 124.621C161.562 123.012 159.501 125.646 157.605 126.661C154.84 125.859 153.081 126.966 151.205 127.826C148.344 126.424 145.781 128.281 143.341 129.574C140.991 128.28 138.312 130.976 135.771 131.902C133.291 132.808 130.317 132.66 130.821 135.105C131.479 138.286 135.255 135.209 136.063 133.65C136.532 134.443 136.249 135.986 136.938 136.562C140.244 136.761 141.549 133.414 143.049 132.776C143.097 134.281 142.87 136.061 143.341 137.144C147.9 137.338 148.484 133.554 150.619 131.319C151.331 132.064 150.492 134.361 151.205 135.105C154.299 134.898 155.294 132.596 156.736 130.737C157.052 132.704 155.998 133.297 156.152 135.105C159.904 136.821 162.448 133.061 164.014 130.737C163.616 131.619 163.542 133.14 164.304 133.65C169.708 133.62 170.101 128.576 170.709 123.749C169.975 123.093 169.092 122.878 168.199 122.928ZM26.3027 132.484C28.0432 134.528 30.7847 135.572 30.3788 139.763C33.3384 137.2 29.7307 132.401 26.3027 132.484ZM43.0642 149.377C42.6889 149.383 42.3344 149.473 42.0248 149.661C44.609 150.763 47.0713 151.99 46.9719 155.777C49.4101 153.302 45.6934 149.322 43.0642 149.377ZM61.2887 165.527C60.6567 165.537 60.0423 165.675 59.4937 165.965C63.374 165.867 64.8723 168.155 66.1893 170.622C67.0699 167.837 64.0285 165.481 61.2887 165.527ZM131.721 173.36C129.021 173.253 126.159 175.187 127.034 177.9C127.688 175.158 130.348 174.422 132.858 173.535C132.491 173.432 132.108 173.375 131.721 173.36ZM84.7538 177.082C84.0191 177.032 83.2507 177.106 82.4952 177.321C84.3095 177.642 88.2315 178.368 89.1876 180.523C88.8523 178.508 86.9579 177.233 84.7538 177.082ZM110.279 177.765C107.844 177.715 105.246 178.902 104.911 181.105C106.751 178.91 112.058 177.736 114.518 180.231C113.967 178.59 112.173 177.804 110.279 177.765Z" fill="white"/>
<path fill-rule="evenodd" clip-rule="evenodd" d="M130.673 7.65939C130.177 7.6225 129.781 7.91766 129.365 8.16309C125.942 10.1907 122.779 13.2466 119.176 16.3169C115.918 19.0952 111.649 21.9024 109.275 25.0513C106.531 28.6927 104.464 33.975 102.58 38.4425C100.56 43.226 98.8436 48.2919 96.755 53.0016C93.6591 53.7876 90.6096 54.6153 87.4415 55.3291C85.5214 47.8748 82.2746 39.8766 83.0735 31.1646C83.7536 23.7616 89.9536 17.4847 89.7723 10.7874C87.0324 10.6912 84.692 12.7701 82.7815 14.2812C76.7725 19.031 69.6838 24.4722 65.603 31.1646C62.9305 35.5519 61.4162 42.209 60.0735 48.3432C57.5743 59.7373 55.4488 70.3614 55.1264 82.4068C54.9612 88.5233 56.7915 94.9783 55.9975 100.748C55.0221 107.834 47.7988 111.143 43.1885 114.725C38.6649 114.38 32.9799 113.127 29.2118 114.725C26.3565 115.936 26.3067 118.713 24.2615 120.254C23.1931 120.181 21.3821 120.476 20.4789 121.129C18.3198 122.691 19.5534 124.913 18.732 128.116C18.4834 129.095 17.5691 129.961 17.2739 130.444C14.8228 134.485 18.0968 139.987 20.7709 144.417C33.328 165.229 51.7193 177.35 74.0471 187.22C79.0952 189.45 83.1665 191.802 88.6061 192.167C102.177 193.077 114.729 190.278 125.581 186.633C128.387 185.691 134.097 184.503 135.479 181.978C136.731 179.689 135.501 174.827 136.061 172.369C136.499 170.454 138.042 169.167 137.809 167.422C137.53 165.337 135.143 164.953 134.898 163.054C142.227 158.981 150.177 154.854 157.317 149.952C159.496 148.457 162.617 145.696 164.595 145.295C166.815 144.846 168.984 145.851 170.999 145.005C177.237 142.375 174.634 131.769 171.291 127.242C171.554 123.391 174.594 122.33 176.531 120.548C179.452 117.856 182.414 113.368 183.227 108.61C185.495 95.3472 176.817 86.401 165.76 84.7392C166.082 80.0359 163.809 74.9716 163.429 70.4705C163.098 66.5516 163.785 62.7482 159.935 61.1521C153.871 63.0113 151.385 59.4854 147.415 56.7889C139.471 51.3942 130.698 48.21 122.666 43.9768C121.654 33.0848 122.75 22.3933 127.325 15.7362C129.012 13.2851 132.129 11.2494 131.696 8.1663C131.301 7.82301 130.968 7.68346 130.671 7.661L130.673 7.65939ZM116.648 51.6685C117.962 51.6782 119.29 51.7327 120.631 51.837C136.786 53.0946 143.51 64.6635 149.742 75.416C152.59 71.5918 153.199 69.5657 156.149 65.5185C156.581 64.925 158.049 63.0177 158.769 62.899C160.458 62.6215 162.782 64.6218 162.845 66.3928C162.973 70.0903 155.014 73.6739 154.401 77.4564C153.668 82.0121 160.979 90.7835 161.679 81.2406C160.997 80.3727 159.839 79.9781 158.187 80.0792C157.741 78.3098 160.609 77.4981 161.1 75.7111C160.978 74.1744 159.768 71.9767 160.809 71.0528C163.982 74.2819 164.401 80.2701 164.593 86.4828C169.167 87.3555 172.945 87.9201 176.239 90.8509C179.305 93.5747 182.215 99.842 181.769 105.989C181.304 112.405 175.793 123.418 168.67 121.708C165.431 120.933 164.609 116.247 163.719 112.685C163.323 111.097 162.507 108.9 162.555 108.317C162.784 105.577 167.292 101.987 168.379 98.4191C169.319 95.328 168.747 92.7854 166.921 89.9766C157.967 85.3343 140.994 91.4348 143.047 101.623C143.706 104.892 146.255 106.704 149.454 108.026C150.15 106.789 148.64 105.485 149.454 103.658C150.445 101.438 154.05 100.939 155.567 103.079C155.541 105.381 153.982 106.148 152.656 107.155C156.161 107.532 159.954 107.617 161.974 109.483C165.833 116.47 162.917 123.293 156.149 125.205C151.379 126.551 146.252 126.397 141.302 127.824C132.963 130.231 125.418 134.714 118.594 139.761C115.557 142.006 105.09 148.646 110.149 154.026C111.219 155.163 113.632 155.609 115.39 155.483C125.387 154.751 126.058 139.461 136.935 138.012C140.56 137.529 144.486 138.792 147.707 138.886C156.244 139.133 169.114 136.588 170.707 129.571C173.278 131.556 174.221 139.589 171.581 141.801C168.48 144.392 164.062 141.884 160.227 142.088C152.548 142.497 151.554 151.214 144.795 151.115C140.235 151.047 138.148 147.197 132.567 149.076C125.284 151.53 123.188 160.042 115.971 161.012C105.895 162.368 101.211 153.692 101.997 144.129C102.947 132.544 110.23 122.781 116.553 115.304C119.973 111.263 123.777 107.957 127.325 104.532C130.942 101.043 137.67 95.1355 137.517 89.1024C137.413 84.9734 133.805 79.4087 131.401 75.1272C127.551 68.2744 123.813 60.0886 117.135 57.6599C109.593 54.9169 100.129 56.3702 91.516 56.2034C98.98 53.7074 107.458 51.5964 116.646 51.6669L116.648 51.6685ZM97.3421 74.8369C109.266 79.5081 119.131 86.2374 127.325 94.635C126.253 94.0591 124.976 93.6838 123.833 93.1785C120.369 98.6822 116.475 109.338 107.822 106.86C101.134 104.948 99.0409 93.7287 100.544 84.7375C96.6572 82.9939 91.7438 82.2768 87.4399 80.9502C89.7915 78.1558 94.2398 75.9117 97.3421 74.8369ZM150.076 86.1716C146.201 86.0545 142.084 88.9388 143.048 91.7203C144.272 90.4611 145.631 89.598 147.415 88.8104C149.151 88.0469 151.279 88.0677 152.657 86.7732C151.854 86.3882 150.97 86.1989 150.076 86.1716ZM109.238 87.0186C109.055 87.0202 108.873 87.0347 108.693 87.0651C106.696 87.4084 105.032 90.7707 104.909 93.7607C104.606 101.034 113.204 104.078 116.555 97.8368C115.774 96.0947 113.348 95.9953 112.479 94.343C114.238 93.4447 116.333 93.926 118.011 93.4688C118.526 92.9186 118.223 91.5471 118.303 90.5589C115.085 90.0985 111.981 86.9978 109.238 87.0186ZM35.2128 117.601C36.7672 117.547 38.3601 117.746 39.4012 118.219C37.9767 120.773 36.2202 122.994 33.8718 124.622C32.6574 122.924 31.1383 121.531 31.2522 118.508C32.1425 117.964 33.6584 117.657 35.2128 117.601ZM27.7569 119.382C38.9873 138.681 55.991 152.521 76.6698 163.636C82.974 167.026 91.1823 172.061 97.9228 172.952C104.132 173.773 110.806 171.197 116.264 169.458C121.909 167.666 126.884 164.923 132.277 164.219C133.918 165.877 134.113 168.98 134.025 172.369C124.737 168.933 122.915 183.973 133.44 180.521C122.466 186.997 105.355 191.447 87.7335 189.548C83.9702 189.142 80.085 187.084 76.0875 185.472C53.8608 176.505 35.0572 164.058 23.1017 144.13C21.2265 141.004 18.4144 135.964 18.4417 133.359C18.4786 130.197 25.7373 121.981 27.7569 119.382ZM168.198 122.929C169.091 122.877 169.974 123.092 170.708 123.748C170.1 128.573 169.711 133.617 164.305 133.646C163.544 133.137 163.618 131.618 164.013 130.736C162.447 133.06 159.901 136.82 156.153 135.104C155.995 133.298 157.051 132.704 156.735 130.736C155.293 132.595 154.298 134.899 151.204 135.104C150.493 134.36 151.331 132.062 150.618 131.318C148.483 133.549 147.903 137.335 143.34 137.143C142.869 136.06 143.1 134.278 143.048 132.775C141.549 133.413 140.243 136.758 136.937 136.56C136.25 135.985 136.531 134.438 136.063 133.646C135.254 135.207 131.48 138.285 130.823 135.104C130.32 132.661 133.289 132.805 135.769 131.897C138.31 130.973 140.989 128.277 143.339 129.573C145.78 128.278 148.342 126.426 151.204 127.826C153.081 126.968 154.839 125.859 157.604 126.663C159.499 125.648 161.562 123.015 164.303 124.622C165.197 123.844 166.709 123.014 168.198 122.929ZM26.512 131.031C25.965 131.044 25.4068 131.137 24.8438 131.318C22.3317 132.133 21.9018 134.409 21.9339 135.978C22.0558 141.86 31.5169 144.987 32.7056 138.888C33.5205 134.716 30.3347 130.936 26.512 131.031ZM26.3019 132.484C29.7299 132.399 33.3376 137.2 30.378 139.762C30.7822 135.572 28.0424 134.53 26.3019 132.484ZM42.5405 147.674C41.9806 147.677 41.4144 147.754 40.8577 147.914C39.3579 148.346 38.2558 149.374 37.9479 150.244C35.7502 156.468 47.2421 162.826 49.0099 155.776C50.1408 151.269 46.4641 147.648 42.5405 147.674ZM43.0602 149.374C45.6894 149.321 49.4093 153.299 46.971 155.776C47.0705 151.987 44.6098 150.76 42.0239 149.66C42.3335 149.472 42.6848 149.382 43.0602 149.374ZM60.9061 163.859C58.7116 163.805 56.7209 164.822 56.2878 167.13C55.2419 172.706 63.4053 177.279 67.3514 172.077C68.7984 167.021 64.5667 163.951 60.9061 163.859ZM61.2895 165.526C64.0293 165.48 67.0659 167.836 66.1852 170.621C64.8699 168.154 63.3732 165.869 59.4912 165.966C60.0398 165.674 60.6574 165.537 61.2895 165.526ZM131.722 173.359C132.107 173.375 132.49 173.431 132.859 173.534C130.349 174.419 127.687 175.16 127.034 177.902C126.159 175.189 129.02 173.252 131.722 173.359ZM84.3295 175.962C83.8178 175.977 83.2964 176.039 82.7815 176.153C79.5556 176.866 79.2188 178.715 79.2877 180.521C79.5428 187.246 90.5166 188.011 90.9337 181.978C91.1968 178.136 87.9163 175.861 84.3295 175.962ZM111.024 176.736C106.861 176.636 103.305 178.192 104.325 182.852C105.493 188.17 116.707 187.212 115.971 180.525C115.729 178.314 113.966 176.811 111.024 176.736ZM84.753 177.081C86.9571 177.233 88.8531 178.508 89.1868 180.521C88.2339 178.367 84.307 177.64 82.4912 177.32C83.2467 177.106 84.0183 177.031 84.753 177.081ZM110.278 177.764C112.172 177.802 113.966 178.59 114.518 180.229C112.058 177.733 106.749 178.911 104.909 181.104C105.242 178.901 107.844 177.714 110.278 177.764Z" fill="black"/>
</svg>
