<svg width="200" height="200" viewBox="0 0 200 200" fill="none" xmlns="http://www.w3.org/2000/svg">
<g clip-path="url(#clip0_154_2441)">
<mask id="mask0_154_2441" style="mask-type:luminance" maskUnits="userSpaceOnUse" x="0" y="38" width="201" height="124">
<path d="M200.271 38.3398H0.271484V161.867H200.271V38.3398Z" fill="white"/>
</mask>
<g mask="url(#mask0_154_2441)">
<g clip-path="url(#clip1_154_2441)">
<path d="M13.3701 88.9394C10.4719 89.914 7.08644 91.1649 4.33008 92.1831V94.3867C7.62099 93.1358 11.8173 91.6049 15.4573 90.4013V86.9249L13.3701 85.7904V88.9431V88.9394Z" fill="#FF4D00"/>
<path d="M13.4857 61.5409C13.4857 59.5009 13.7621 58.6427 15.1548 57.5554V55.7227L12.8821 56.4863C11.7475 57.53 11.3984 58.4572 11.3984 60.1954V65.0391L13.4857 64.3445V61.5409Z" fill="#FF4D00"/>
<path d="M11.3984 81.4248C11.3984 83.2794 11.7693 83.6721 13.4857 84.2539V76.5339C15.2712 75.9084 16.9875 75.3303 18.7948 74.7739V72.6175C16.2893 73.4066 13.9257 74.1921 11.4021 75.0503V81.4248H11.3984Z" fill="#FF4D00"/>
<path d="M31.8427 83.3277C29.1082 84.0477 25.7227 84.9495 22.8027 85.9022V88.0586C26.1627 86.9931 30.2427 85.8804 33.93 84.975V81.4731L31.8427 80.1531V83.3277Z" fill="#FF4D00"/>
<path d="M31.9369 78.6445V56.2045C31.9369 54.2591 32.3078 53.4009 33.7914 52.2191V50.3645L31.3805 50.9682C30.1987 51.9427 29.8496 52.7754 29.8496 54.5827V75.6554C29.8496 77.4409 30.1042 77.8809 31.9369 78.6445Z" fill="#FF4D00"/>
<path d="M62.3745 48.2075V65.662C62.3745 74.1929 55.4218 80.6584 46.3781 80.6584C43.4109 80.6584 41.0472 79.9638 38.6836 78.4547C40.9781 81.0984 44.0145 82.3711 47.8618 82.3711C56.9709 82.3711 64.4581 75.2075 64.4581 66.2147V49.9456C64.4581 48.0911 64.6218 47.4656 66.1963 46.3056V44.4729L63.9236 44.7275C62.789 45.5165 62.3709 46.4438 62.3709 48.2038H62.3745V48.2075Z" fill="#FF4D00"/>
<path d="M47.5368 70.9727V52.9617C47.5368 50.8308 47.8168 49.9945 49.3004 48.8599V47.0054L47.0059 47.4454C45.8713 48.2781 45.4531 49.209 45.4531 50.969V67.4963C45.4531 69.4417 46.0568 70.7399 47.5404 70.9727H47.5368Z" fill="#FF4D00"/>
<path d="M78.8065 61.4467L75.4211 60.1958C71.8974 58.8758 69.8356 57.694 68.3047 55.6067C69.3265 59.0613 71.712 61.054 75.9992 62.654L79.7301 64.0431C80.4029 64.2758 80.9338 64.6213 81.352 64.9922C81.4429 64.7376 81.4901 64.4576 81.4901 64.1813C81.4901 63.1631 80.8429 62.2104 78.8029 61.4467H78.8065Z" fill="#FF4D00"/>
<path d="M80.5006 45.4996C78.3697 45.4996 76.9297 46.5651 76.9297 47.7251C76.9297 48.3723 77.3697 48.885 78.737 49.4414C78.7842 48.3505 79.9879 47.4705 82.0533 47.4705C83.166 47.4705 84.2315 47.7251 85.137 48.1432C84.0242 46.336 82.3551 45.4996 80.5006 45.4996Z" fill="#FF4D00"/>
<path d="M91.4174 50.2959L88.541 50.365L89.981 52.3359L93.4574 52.2887V43.645L91.4174 42.7868V50.2959Z" fill="#FF4D00"/>
<path d="M106.738 46.2176V50.9922L108.709 48.6758V47.6322C108.709 46.0104 109.08 45.3849 110.447 44.6176V42.9958L108.524 42.8795C107.273 43.414 106.738 44.1304 106.738 46.2176Z" fill="#FF4D00"/>
<path d="M106.738 63.2299V66.7063C106.738 68.4699 107.178 69.0554 108.731 70.2227V63.8118L107.687 62.1208L106.738 63.2336V63.2299Z" fill="#FF4D00"/>
<path d="M121.525 47.8622L116.158 53.9022L122.9 65.7567C124.34 68.2949 125.7 70.1858 127.784 71.5312C127.991 71.4149 128.155 71.2985 128.318 71.1385L118.645 54.1313L123.311 48.9312C124.795 47.2622 126.187 46.4512 128.482 46.2185V44.5276L126.696 44.3203C124.704 44.7603 123.311 45.8731 121.525 47.8658V47.8622Z" fill="#FF4D00"/>
<path d="M142.137 78.9696C139.588 78.5296 136.366 78.0205 132.98 77.5078V79.5951C136.711 80.1296 140.93 80.846 143.944 81.4023V77.7151L142.137 75.9769V78.966V78.9696Z" fill="#FF4D00"/>
<path d="M140.258 49.1819V70.2292C140.258 71.9892 140.767 72.571 142.345 73.8438V51.8474C142.345 49.9238 142.578 49.251 144.036 48.6256V46.8874L141.694 46.4692C140.672 46.8874 140.258 47.6728 140.258 49.1819Z" fill="#FF4D00"/>
<path d="M170.487 85.6903C163.949 83.8576 156.276 81.9121 149.207 80.3594V82.4467C156.229 83.9085 164.251 85.9921 172.411 88.3594V79.9921L170.487 79.3412V85.6939V85.6903Z" fill="#FF4D00"/>
<path d="M158.384 55.1882L164.293 56.7191C163.318 54.7736 162.348 54.17 159.911 53.5663L156.293 52.6863V57.53L158.38 58.0391V55.1882H158.384Z" fill="#FF4D00"/>
<path d="M158.384 68.3532L161.955 69.2113C161.446 67.5423 160.773 66.9386 159.264 66.5932L156.297 65.8986V72.735L158.384 73.2695V68.3568V68.3532Z" fill="#FF4D00"/>
<path d="M166.82 70.1843L163.369 69.2134L164.202 71.3916L168.747 72.668V64.7371L166.82 64.2061V70.1843Z" fill="#FF4D00"/>
<path d="M172.04 61.957V53.5643L170.116 53.0298V59.4516L166.709 58.5243L167.567 60.7279L172.04 61.957Z" fill="#FF4D00"/>
<path d="M181.243 77.1171L184.672 79.5753C185.879 80.4334 186.897 81.2444 187.661 82.3789C187.846 82.008 187.941 81.6153 187.941 81.1971C187.941 80.1753 187.315 78.8553 184.672 77.0007L180.57 74.128C177.465 71.9498 175.399 70.048 173.803 68.0298C174.868 71.3462 176.839 73.9644 181.243 77.1171Z" fill="#FF4D00"/>
<path d="M198.024 77.2306C198.58 78.7833 198.882 80.3833 198.882 81.9142C198.882 87.616 194.755 91.976 188.22 91.976C183.653 91.976 178.831 89.8451 174.635 86.8051C177.74 90.7688 183.398 93.9688 189.031 93.9688C195.755 93.9688 200.275 89.4488 200.275 83.9069C200.275 81.6342 199.511 79.2015 198.028 77.2306H198.024Z" fill="#FF4D00"/>
<path d="M184.302 63.0461C184.44 62.6752 184.811 62.5116 185.346 62.5116C186.735 62.5116 189.007 63.6716 190.884 65.457C189.447 62.5116 186.502 60.0316 184.069 60.0316C183.142 60.0316 182.607 60.3807 182.607 61.0534C182.607 61.6789 183.095 62.2352 184.298 63.0461H184.302Z" fill="#FF4D00"/>
<path d="M199.228 72.8516V64.0879L197.283 62.3716V69.8588L194.57 68.7461L195.381 71.1825L199.228 72.8516Z" fill="#FF4D00"/>
<path d="M18.6751 52.8695C20.366 53.4949 20.6678 54.2367 20.6678 56.6695V63.9495C16.6569 65.2258 12.6933 66.524 9.51876 67.6585V60.6331C9.51876 57.9458 9.82058 56.9713 11.4897 55.2076V53.1204C7.91876 54.3022 3.54058 55.9713 0.271484 57.2476V59.3349C1.91876 59.9386 2.21694 60.724 2.21694 63.3676V84.2767C2.21694 87.0113 1.91512 87.8695 0.271484 89.6549V91.7422C3.40239 90.5131 7.59512 88.9131 11.4897 87.5713V85.484C9.6133 84.8585 9.51876 84.164 9.51876 81.5676V73.7567C12.6933 72.5967 16.6824 71.324 20.6678 70.0695V77.8804C20.6678 80.4767 20.366 81.3567 18.6751 83.0949V85.1822C21.966 84.1167 26.1406 82.8876 29.9624 81.8658V79.7785C28.1551 79.084 27.9697 78.2476 27.9697 75.6513V54.5095C27.9697 52.0076 28.2715 51.1495 29.9624 49.6186V47.5313C26.0679 48.5276 21.8969 49.7786 18.6751 50.7749V52.8695Z" fill="#002F87"/>
<path d="M52.5196 44.7322C54.2105 45.5213 54.5596 46.2377 54.5596 48.8122V65.5722C54.5596 69.7904 51.756 72.8741 47.9778 72.8741C45.0796 72.8741 43.5742 71.0668 43.5742 67.7031V50.874C43.5742 48.3722 43.9233 47.5141 45.5924 46.005V43.9177C41.3051 44.7977 37.2469 45.7031 34.2578 46.445V48.5322C35.9269 49.2959 36.276 49.9941 36.276 52.4741V69.5359C36.276 75.285 40.1014 78.8086 46.476 78.8086C54.5887 78.8086 60.5014 73.1068 60.5014 65.2013V47.885C60.5014 45.3104 60.8505 44.4995 62.5415 43.2013V41.114C59.2505 41.5322 55.3778 42.1359 52.5269 42.645V44.7322H52.5196Z" fill="#002F87"/>
<path d="M82.4933 52.89L78.5296 51.3591C75.9333 50.3627 75.006 49.25 75.006 47.7663C75.006 45.3809 77.4387 43.6645 80.4533 43.6645C83.1878 43.6645 86.0387 45.079 87.3587 48.6027L89.5623 48.5554V40.0936C87.0823 38.9372 84.206 38.3336 81.3333 38.3336C73.6823 38.3336 68.0751 42.599 68.0751 49.2063C68.0751 53.7263 70.6933 56.4827 75.606 58.29L79.3151 59.6572C82.2387 60.7263 83.3514 62.0936 83.3514 64.1772C83.3514 67.4245 80.6387 69.279 77.4169 69.279C74.4023 69.279 70.9951 67.679 69.5805 63.6681L67.4023 63.9009V73.2209C69.9733 74.4027 73.4751 74.9336 76.1405 74.9336C77.006 74.9336 77.8605 74.8827 78.7005 74.7772C80.6642 72.9009 82.9333 71.1336 84.9333 70.0463C85.6023 70.4572 86.2751 70.9663 86.8969 71.49C89.2678 69.519 90.766 66.7009 90.766 63.0645C90.766 58.199 88.0787 55.0463 82.4933 52.89Z" fill="#002F87"/>
<path d="M121.257 66.5998L113.854 53.6798L119.788 47.0035C122.199 44.3126 123.406 43.3635 126.141 42.5307V40.4653C122.803 40.0726 117.795 39.6326 114.297 39.3998V41.4871C115.061 42.1126 115.315 42.6435 115.315 43.2471C115.315 43.9671 114.966 44.5453 114.25 45.3344L104.861 55.8108V45.3817C104.861 43.0398 105.141 42.1817 106.854 41.1162V39.0289C103.217 38.9126 98.7409 38.8435 95.3809 38.8435V40.9307C97.119 42.1126 97.559 42.9235 97.559 45.2653V66.1962C97.559 68.7926 97.119 69.6035 95.3809 70.8326V73.1053C98.6936 73.1053 103.192 73.1744 106.854 73.3598V71.0871C105.141 69.7417 104.861 68.9089 104.861 66.3126V62.5562L108.323 58.6326C108.323 58.6326 112.446 65.9853 113.123 67.1526C113.559 67.9089 114.014 68.7271 114.381 69.3998C116.606 70.6144 119.145 72.578 120.97 74.218C122.781 74.3926 124.661 74.5998 126.65 74.8398V72.7271C124.33 71.2835 122.926 69.5162 121.257 66.5998Z" fill="#002F87"/>
<path d="M128.922 42.8786C130.66 44.2241 130.962 45.1041 130.962 47.5841V68.5623C130.962 71.2277 130.66 71.9477 128.922 72.9913V75.0786C132.398 75.5186 136.664 76.1695 140.42 76.7695V74.6823C138.682 73.2204 138.38 72.3877 138.38 69.7914V48.6277C138.38 46.1695 138.704 45.4277 140.42 44.5259V42.4386C137.035 41.8604 132.747 41.2568 128.922 40.7914V42.8786Z" fill="#002F87"/>
<path d="M161.234 75.8637L154.42 74.1728V63.5546L159.289 64.6674C161.26 65.1074 162.093 65.8274 162.929 67.2165L165.016 67.7728V59.9619L162.929 59.4274C162.209 60.2856 161.26 60.5874 159.427 60.1692L154.42 59.0346V50.3183L159.867 51.6165C163.693 52.5219 164.853 53.7728 166.242 56.4856L168.329 57.0419V48.7219C161.074 46.7292 153.493 44.8746 145.078 43.2746V45.3619C146.794 46.8456 147.118 47.7037 147.118 50.1837V71.3474C147.118 73.9437 146.794 74.6856 145.078 75.5183V77.6056C152.751 79.0892 161.256 81.2201 168.744 83.2383V74.591L166.656 74.0128C165.474 75.9146 163.991 76.5619 161.234 75.8674V75.8637Z" fill="#002F87"/>
<path d="M189.816 69.2335L185.133 66.0335C181.98 63.8772 180.591 62.4881 180.591 60.7499C180.591 59.1026 181.842 58.1536 183.835 58.1536C187.751 58.1536 191.602 61.8408 193.246 66.1972L195.38 67.0772V58.4554C191.58 54.979 186.526 52.9608 182.376 52.9608C177.438 52.9608 173.686 55.8117 173.686 61.3535C173.686 66.1063 176.467 69.2117 180.849 72.2008L185.624 75.4445C188.638 77.5063 189.795 79.4772 189.795 81.379C189.795 83.3972 188.518 84.6481 186.34 84.6481C182.238 84.6481 178.318 80.1499 176.326 75.7936L174.191 75.1208V84.0445C178.202 87.5463 183.533 90.1172 188.122 90.1172C193.569 90.1172 197.046 86.5245 197.046 80.9136C197.046 76.6263 195.006 72.779 189.813 69.2299H189.816V69.2335Z" fill="#002F87"/>
<path d="M143.581 125.739C142.214 119.092 140.439 113.339 135.912 108.706C136.606 108.197 137.45 107.801 138.395 107.448C137.275 106.212 135.955 105.121 134.446 104.521C134.945 102.946 135.308 101.521 135.628 100.019C134.435 99.8191 133.028 99.7646 131.875 100.001C130.243 91.1682 127.028 83.8409 122.515 78.3791C124.843 78.6118 127.257 78.8736 129.719 79.1718V77.0846C126.457 76.6955 123.301 76.3537 120.428 76.0736C118.872 74.5136 117.188 73.1464 115.385 71.99C113.752 73.2264 112.235 74.6846 110.865 76.3755V73.8736L108.763 72.1427V75.3064C105.374 75.1136 102.152 75.0446 99.7663 74.9973V77.0846C103.065 77.1282 106.792 77.27 110.065 77.4191C107.835 80.4591 106.061 84.1973 104.937 88.7427C103.072 88.3718 101.188 88.3064 100.09 88.3064C98.9918 88.3064 97.1082 88.3718 95.2427 88.7427C93.8754 83.2264 91.5591 78.9027 88.6318 75.5718C92.0936 73.1355 94.2791 69.4264 94.2791 65.1318C94.2791 62.2591 93.3045 59.7318 91.4972 57.7609C92.3082 59.5246 92.61 61.1682 92.61 62.9536C92.61 67.6082 90.4827 71.39 86.9445 73.8227C86.25 73.1682 85.5336 72.5536 84.7918 71.9937C82.7772 73.2882 80.9154 74.8409 79.21 76.63C78.2682 76.75 77.2972 76.8155 76.29 76.8155C73.4027 76.8155 70.21 76.2555 67.4318 75.3864C70.3118 77.67 73.9154 78.5391 77.4245 78.6664C73.0354 84.0955 69.9045 91.3209 68.2973 99.9973C67.1445 99.7609 65.7372 99.8155 64.5445 100.015C64.8609 101.517 65.2282 102.943 65.7263 104.517C64.2172 105.121 62.8972 106.208 61.7772 107.445C62.7227 107.797 63.57 108.194 64.2609 108.703C59.7336 113.335 57.9591 119.088 56.5918 125.735C57.3591 125.237 58.1082 124.83 58.8318 124.485C57.6354 128.794 57.8682 133.815 59.8827 140.619C60.3118 139.845 60.77 139.106 61.2536 138.401C62.0391 143.419 64.9336 148.168 70.7336 153.205C70.5882 152.012 70.5154 150.826 70.5191 149.677C71.7082 150.965 73.0572 152.172 74.5227 153.194C76.7482 157.423 80.5554 160.826 85.5191 161.855C82.4936 153.143 85.2791 148.623 89.4427 149.292C92.2645 154.325 94.8572 155.557 100.086 155.557C105.315 155.557 107.912 154.325 110.73 149.292C114.894 148.623 117.679 153.143 114.654 161.855C119.621 160.826 123.428 157.423 125.65 153.194C127.119 152.175 128.465 150.968 129.654 149.677C129.654 150.823 129.588 152.008 129.439 153.205C135.239 148.168 138.134 143.419 138.919 138.401C139.399 139.106 139.857 139.841 140.29 140.619C142.305 133.819 142.537 128.794 141.341 124.485C142.065 124.83 142.814 125.237 143.581 125.735V125.739Z" fill="#FF4D00"/>
<path d="M140.73 121.989C139.268 116.255 137.115 111.92 133.257 108.691C133.759 107.92 134.453 107.393 135.166 107.022C134.395 106.389 133.235 105.862 132.177 105.829C132.675 104.131 133.075 102.716 133.29 101.691C132.257 101.6 131.1 101.814 130.337 102.233C128.319 88.9054 122.704 79.2945 115.442 74.28C111.719 77.5272 107.937 83.0181 106.322 90.909C104.464 90.2981 102.188 90.0218 100.079 90.0218C97.9696 90.0218 95.6932 90.2981 93.835 90.909C92.2241 83.0181 88.4423 77.5309 84.715 74.28C77.4496 79.2945 71.8386 88.9054 69.8205 102.233C69.0605 101.814 67.9005 101.596 66.8677 101.691C67.0823 102.716 67.4859 104.131 67.9805 105.829C66.9223 105.862 65.7623 106.389 64.9914 107.022C65.7041 107.389 66.3986 107.916 66.9005 108.691C63.0386 111.92 60.8896 116.255 59.4277 121.989C60.3114 121.582 61.3841 121.247 62.2423 121.055C60.0896 124.767 59.4532 129.869 60.7259 135.898C61.355 134.931 62.1586 133.927 62.8568 133.2C62.5368 138.953 64.1623 143.735 68.8023 148.691C68.7659 147.542 68.8896 146.076 69.1586 144.891C70.8714 147.571 73.2823 149.978 75.9441 151.655C77.2932 154.713 79.875 157.524 82.6823 158.684C81.0059 150.087 85.6459 146.018 90.7768 147.604C93.5405 152.884 95.5987 153.585 100.071 153.585C104.544 153.585 106.602 152.884 109.366 147.604C114.497 146.018 119.137 150.087 117.46 158.684C120.268 157.524 122.85 154.713 124.199 151.655C126.86 149.978 129.271 147.571 130.984 144.891C131.253 146.076 131.377 147.538 131.34 148.691C135.98 143.735 137.61 138.953 137.286 133.2C137.984 133.927 138.784 134.931 139.417 135.898C140.69 129.869 140.053 124.767 137.9 121.055C138.762 121.251 139.835 121.582 140.715 121.989H140.73Z" fill="#002F87"/>
<path d="M94.459 148.465C95.6044 150.646 97.059 150.988 100.084 150.988C103.11 150.988 104.564 150.646 105.71 148.465C103.855 148.188 101.663 147.425 100.084 147.425C98.5063 147.425 96.3172 148.188 94.459 148.465Z" fill="white"/>
<path d="M135.498 129.744C135.116 124.049 130.487 120.373 123.531 119.9C125.582 118.085 129.433 117.711 133.589 118.387C132.065 116.558 128.556 116.253 125.949 115.689C119.254 114.256 115.669 110.035 112.596 104.071C111.869 102.664 111.542 102.242 110.578 102.242C109.076 102.242 106.894 103.296 105.814 104.707C104.593 106.325 104.764 108.555 104.084 110.856C103.615 112.475 102.858 113.831 101.775 114.431C102.869 108.362 102.764 101.304 100.091 97.2454C97.4145 101.307 97.3127 108.362 98.4072 114.431C97.3236 113.835 96.5672 112.478 96.0981 110.856C95.4181 108.558 95.5854 106.325 94.3672 104.707C93.2872 103.3 91.1054 102.242 89.6036 102.242C88.64 102.242 88.3127 102.664 87.5854 104.071C84.5127 110.031 80.9272 114.256 74.2327 115.689C71.6254 116.253 68.1163 116.562 66.5927 118.387C70.749 117.711 74.5963 118.085 76.6509 119.9C69.6945 120.373 65.0654 124.053 64.6836 129.744C67.5272 126.216 71.7745 124.969 74.9272 125.878C68.8436 128.329 66.36 135.296 68.44 140.493C69.1418 137.435 71.1709 134.827 73.5636 134.195C71.0036 138.282 72.3345 143.718 75.4581 146.311C75.8945 142.325 78.5381 139.562 81.349 139.485C79.1709 142.191 78.2872 147.184 79.9163 150.395C81.2545 145.362 85.2472 143.576 89.0254 144.536C87.64 141.696 86.2836 138.904 85.0327 137.562C83.7454 136.187 82.2072 135.962 80.5636 136.66C80.8654 135.26 82.0218 134.518 83.4945 134.445C81.9818 133.238 78.6072 133.515 76.7309 135.74C76.7309 133.107 78.7745 131.602 80.8 131.475C79.8436 130.373 78.2363 130.238 76.6145 130.678C77.2363 129.613 78.4181 128.769 80.0036 128.769C82.2981 128.769 84.2836 130.562 85.749 132.765C87.9963 136.169 89.8618 141.882 91.5054 144.369C92.2327 145.464 93.0909 146.205 94.509 146.205C95.6036 146.205 97.3709 145.762 98.4363 144.962C99 144.533 99.1927 144.133 99.1927 142.86C99.1927 141.587 98.9818 141.202 98.1381 140.46C97.4072 139.809 96.3163 138.965 95.3381 137.751C96.32 137.238 97.2181 137.042 97.7018 136.809C98.16 136.587 98.3018 136.271 98.0727 135.824C97.7272 135.147 97.1818 135.155 96.3781 135.387C95.6654 135.595 94.8727 135.896 94.28 136.173C93.9927 135.642 93.8618 135.216 93.8618 134.896C93.8618 134.26 94.3781 133.002 95.149 131.965C95.52 131.464 95.68 131.373 96.1381 131.373C96.7309 131.373 98.3236 131.518 100.102 131.518C101.88 131.518 103.473 131.373 104.065 131.373C104.524 131.373 104.687 131.464 105.058 131.965C105.829 133.002 106.345 134.26 106.345 134.896C106.345 135.216 106.214 135.642 105.927 136.173C105.334 135.893 104.545 135.595 103.829 135.387C103.025 135.155 102.48 135.147 102.134 135.824C101.905 136.271 102.047 136.587 102.505 136.809C102.985 137.042 103.887 137.235 104.869 137.751C103.891 138.965 102.8 139.809 102.069 140.46C101.225 141.202 101.015 141.525 101.015 142.86C101.015 144.195 101.211 144.533 101.771 144.962C102.836 145.762 104.6 146.205 105.698 146.205C107.12 146.205 107.974 145.464 108.702 144.369C110.345 141.882 112.211 136.169 114.458 132.765C115.924 130.562 117.909 128.769 120.204 128.769C121.785 128.769 122.971 129.613 123.593 130.678C121.971 130.238 120.364 130.373 119.407 131.475C121.433 131.602 123.476 133.107 123.476 135.74C121.596 133.515 118.225 133.238 116.713 134.445C118.185 134.518 119.338 135.256 119.644 136.66C118 135.965 116.462 136.187 115.175 137.562C113.924 138.904 112.567 141.693 111.182 144.536C114.964 143.576 118.953 145.362 120.291 150.395C121.92 147.184 121.036 142.191 118.858 139.485C121.669 139.562 124.316 142.325 124.749 146.311C127.873 143.718 129.204 138.282 126.644 134.195C129.033 134.824 131.065 137.435 131.767 140.493C133.847 135.296 131.364 128.333 125.28 125.878C128.429 124.969 132.68 126.216 135.524 129.744H135.498Z" fill="white"/>
<path d="M86.3697 85.1938C86.8133 84.2338 87.1442 82.9356 86.9915 82.1429C86.1552 82.372 85.1261 83.0302 84.3624 83.7429C84.4897 81.8956 84.4497 80.0811 84.1261 78.8011C78.9224 81.9975 74.7297 91.5211 73.7188 97.4847C74.1879 98.9429 76.0133 100.325 77.857 100.637C76.7624 101.423 74.8242 101.75 73.0352 101.477C73.7042 102.637 75.4097 103.419 77.1297 103.51C76.5515 104.325 75.7552 104.961 74.9988 105.365C77.3042 105.707 80.7442 104.365 81.777 102.416C80.7115 102.608 79.3806 102.368 78.657 101.765C80.4388 101.39 82.0279 100.27 82.0279 98.5975C82.0752 96.0993 79.2424 95.3211 77.5079 96.5138C77.7515 94.6302 79.057 93.3575 81.257 93.4084C81.137 92.4193 80.1661 91.3611 79.0352 90.9793C80.057 90.1102 81.6061 90.1284 82.8242 91.0338C83.297 90.2993 83.8133 88.2738 84.1261 85.9793C85.1842 86.9466 85.8097 88.4447 85.8097 89.7793C85.8097 92.0811 84.8752 93.0593 84.8752 95.0702C84.8752 97.2084 87.3733 97.7684 89.2352 97.2847C90.8642 92.5429 89.537 87.1938 86.3624 85.1938H86.3697Z" fill="#FBFBFB"/>
<path d="M127.126 101.481C125.337 101.754 123.399 101.423 122.304 100.641C124.144 100.329 125.973 98.9467 126.442 97.4885C125.432 91.5249 121.242 82.0013 116.035 78.8049C115.712 80.0885 115.672 81.8994 115.799 83.7467C115.035 83.034 114.006 82.3758 113.17 82.1467C113.017 82.9394 113.348 84.2376 113.792 85.1976C110.613 87.1976 109.286 92.5467 110.915 97.2885C112.781 97.7758 115.275 97.2122 115.275 95.074C115.275 93.0631 114.341 92.0849 114.341 89.7831C114.341 88.4485 114.966 86.9504 116.024 85.9831C116.337 88.2776 116.853 90.3031 117.326 91.0376C118.544 90.1322 120.093 90.114 121.115 90.9831C119.984 91.3613 119.013 92.4231 118.893 93.4122C121.093 93.3613 122.402 94.634 122.642 96.5176C120.908 95.3285 118.075 96.1031 118.122 98.6013C118.122 100.27 119.712 101.394 121.493 101.769C120.773 102.372 119.439 102.612 118.373 102.419C119.406 104.372 122.846 105.71 125.152 105.369C124.399 104.965 123.599 104.332 123.021 103.514C124.741 103.423 126.446 102.645 127.115 101.481H127.126Z" fill="#FBFBFB"/>
<path d="M95.6893 118.319C94.8165 118.319 94.0493 117.948 93.3075 117.224C92.0929 116.046 90.5474 113.548 89.2202 112.257C88.3402 111.406 87.442 110.97 86.562 110.97C85.0529 110.97 83.6893 112.25 83.3184 114.01C84.0856 113.479 84.9256 113.214 85.8565 113.206C85.3693 113.966 85.082 114.872 85.082 115.843C85.082 118.537 87.2674 120.723 89.962 120.723C91.3038 120.723 92.5147 120.181 93.3947 119.308C94.0274 119.81 94.6093 120.043 95.2129 120.043C96.4093 120.043 97.2893 119.134 97.4565 117.828C96.8711 118.144 96.2893 118.319 95.6856 118.319H95.6893ZM90.1875 119.203C88.3511 119.203 86.8602 117.712 86.8602 115.875C86.8602 115.024 87.1802 114.25 87.7038 113.661C88.2311 113.952 88.7802 114.392 89.4347 115.039C89.5365 115.137 89.6347 115.239 89.7329 115.341C89.5402 115.464 89.3111 115.552 89.0638 115.577C89.0384 115.672 89.0238 115.774 89.0238 115.875C89.0238 116.53 89.5511 117.057 90.2056 117.057C90.5147 117.057 90.7984 116.937 91.0093 116.741C91.5147 117.326 91.9875 117.886 92.4093 118.352C91.8202 118.883 91.042 119.203 90.1875 119.203Z" fill="#002F87"/>
<path d="M116.839 114.01C116.468 112.25 115.108 110.97 113.595 110.97C112.715 110.97 111.817 111.406 110.937 112.257C109.614 113.544 108.065 116.046 106.85 117.224C106.108 117.948 105.341 118.319 104.468 118.319C103.865 118.319 103.283 118.144 102.697 117.828C102.865 119.134 103.745 120.043 104.941 120.043C105.545 120.043 106.126 119.81 106.759 119.308C107.639 120.181 108.854 120.723 110.192 120.723C112.886 120.723 115.072 118.537 115.072 115.843C115.072 114.872 114.788 113.966 114.297 113.206C115.228 113.214 116.068 113.479 116.835 114.01H116.839ZM109.974 119.203C109.119 119.203 108.341 118.879 107.752 118.352C108.177 117.886 108.646 117.326 109.152 116.741C109.363 116.937 109.643 117.057 109.955 117.057C110.61 117.057 111.137 116.53 111.137 115.875C111.137 115.774 111.123 115.672 111.097 115.577C110.846 115.552 110.621 115.464 110.428 115.341C110.526 115.239 110.625 115.137 110.726 115.039C111.381 114.395 111.93 113.952 112.457 113.661C112.981 114.25 113.301 115.024 113.301 115.875C113.301 117.712 111.81 119.203 109.974 119.203Z" fill="#002F87"/>
<path d="M90.2071 117.06C89.5526 117.06 89.0253 116.533 89.0253 115.879C89.0253 115.777 89.0398 115.675 89.0653 115.58C89.0071 115.588 88.9489 115.591 88.8871 115.591C88.5162 115.591 88.178 115.468 87.9235 115.26C87.8689 115.457 87.8398 115.668 87.8398 115.879C87.8398 117.184 88.898 118.242 90.2035 118.242C90.8071 118.242 91.3598 118.013 91.778 117.639C91.5308 117.355 91.2726 117.053 91.0071 116.744C90.7962 116.94 90.5162 117.06 90.2035 117.06H90.2071Z" fill="#FF4D00"/>
<path d="M112.239 115.256C111.985 115.464 111.646 115.587 111.275 115.587C111.217 115.587 111.155 115.587 111.097 115.576C111.123 115.671 111.137 115.773 111.137 115.875C111.137 116.529 110.61 117.056 109.955 117.056C109.646 117.056 109.363 116.936 109.152 116.74C108.883 117.049 108.624 117.351 108.381 117.635C108.799 118.009 109.352 118.238 109.955 118.238C111.261 118.238 112.319 117.18 112.319 115.875C112.319 115.66 112.29 115.453 112.235 115.256H112.239Z" fill="#FF4D00"/>
</g>
</g>
</g>
<defs>
<clipPath id="clip0_154_2441">
<rect width="200" height="200" fill="white"/>
</clipPath>
<clipPath id="clip1_154_2441">
<rect width="200.004" height="123.52" fill="white" transform="matrix(1 0 0 -1 0.271484 161.855)"/>
</clipPath>
</defs>
</svg>
