<svg width="200" height="200" viewBox="0 0 200 200" fill="none" xmlns="http://www.w3.org/2000/svg">
<g clip-path="url(#clip0_154_2411)">
<path d="M93.049 162.84L140.702 131.269L200 111.229C188.518 87.6834 170.333 76.6933 170.333 76.6933C170.333 76.6933 157.232 51.1626 102.351 51.1626C36.9235 51.1626 0 86.6584 0 86.6584C16.1759 83.0465 39.0913 80.0489 39.0913 80.0489L31.0055 84.8891L41.7799 83.795C30.497 89.3673 15.9441 100.231 15.9441 100.231C65.8343 90.8883 90.1245 141.897 93.049 162.84Z" fill="white"/>
<path d="M168.661 78.2811C153.803 49.9357 70.7804 38.8236 9.80664 82.7429C31.2091 78.5576 52.2007 76.8169 52.2007 76.8169L41.0846 81.8564L51.6028 81.4942C51.6028 81.4942 37.1148 87.9614 24.0017 97.2716C66.2208 92.6755 91.9713 139.613 94.6964 159.156L139.751 129.306L196.913 109.99C187.009 89.4989 168.661 78.2811 168.661 78.2811Z" fill="black"/>
<path d="M99.9866 57.8398C63.2568 57.8398 31.9414 75.144 31.9414 75.144C43.1706 72.9541 63.0453 71.9324 68.2092 72.3749C66.1202 73.4975 58.4085 77.5747 58.4085 77.5747C58.4085 77.5747 66.5237 77.3729 69.1886 77.464C69.1886 77.464 57.5592 81.629 43.6391 93.4927C79.8028 101.169 72.3904 116.657 99.427 116.657C118.814 116.657 130.772 106.788 130.772 106.788C130.772 106.788 120.769 123.005 96.3911 127.964C96.3911 127.964 99.9704 134.14 101.939 138.012C130.794 120.301 139.258 114.754 136.752 98.8258C132.356 94.163 131.426 91.0457 131.426 91.0457C132.802 92.7345 135.854 93.5805 138.399 93.7204C138.399 93.7204 130.436 89.2951 136.232 81.1897C133.131 81.8861 130.632 84.1508 130.225 86.7376C130.225 86.7376 127.375 83.7082 126.939 79.9695C118.186 74.76 98.6591 76.4846 98.6591 76.4846C138.112 65.0602 153.793 82.7581 158.609 84.5184C158.609 84.5184 165.637 85.231 165.637 81.1637C165.637 76.1072 149.68 57.8398 99.9866 57.8398ZM170.352 84.0499C170.352 84.0499 174.673 88.371 175.474 91.9048C162.891 84.7853 157.333 91.4037 149.534 104.735C149.534 104.735 155.111 99.8117 159.669 100.993L180.019 105.096C150.793 104.647 146.94 108.561 143.039 119.582L191.515 107.201C184.002 94.2313 170.352 84.0499 170.352 84.0499Z" fill="#CB333B"/>
<path d="M151.008 87.6352L146.742 88.2208C143.907 88.6031 143.935 84.5401 145.261 83.4338C145.261 83.4338 149.003 85.7113 151.008 87.6352Z" fill="white"/>
</g>
<defs>
<clipPath id="clip0_154_2411">
<rect width="200" height="200" fill="white"/>
</clipPath>
</defs>
</svg>
