<svg width="200" height="200" viewBox="0 0 200 200" fill="none" xmlns="http://www.w3.org/2000/svg">
<g clip-path="url(#clip0_154_2412)">
<path d="M106.473 36.6329C93.5745 36.6173 83.848 39.5629 79.7979 40.9668L84.7061 42.34C76.2548 43.9293 69.4632 46.9105 69.4632 46.9105L73.7089 48.8246C62.3708 53.0748 53.9128 66.0521 53.9128 66.0521C58.1492 64.5162 63.2552 63.2139 68.1323 62.5718C65.1671 66.0378 62.9059 70.063 61.0052 74.1937C59.5531 74.8344 55.7953 76.6661 51.6173 80.5482H47.3689V85.1482C44.0246 89.356 40.8081 95.011 38.636 102.541C41.0028 100.205 44.2148 98.1308 47.3689 96.4577V99.7107L47.8069 101.542C47.3502 103.266 46.8935 104.99 46.4377 106.715H36.4345V90.0961L33.689 80.5451H8.81093V98.8749L11.0325 104.551V117.682L8.80469 118.192V136.722L24.4914 151.831L26.7931 151.35C52.3529 145.993 78.8475 143.173 106.009 143.173C135.269 143.173 163.753 146.445 191.132 152.635L193.244 153.114L208.805 138.144V119.525L205.205 118.657L202.767 113.136L205.363 105.49V91.0242L195.722 80.5518H164.96L162.886 90.166V96.194L158.762 80.5518H142.74C148.978 75.6886 157.989 68.8154 160.389 67.2306C158.961 64.7011 156.238 60.6617 154.306 58.4945C152.214 56.1487 149.757 53.7921 146.772 52.6529C146.558 52.1801 146.232 51.6521 145.726 51.1344C144.715 50.1702 143.375 49.6667 142.054 49.284C140.775 44.8877 135.571 42.4438 131.61 40.9904C125.462 38.735 118.702 37.2901 112.184 36.8383C110.219 36.7024 108.312 36.6396 106.472 36.6373L106.473 36.6329ZM107.66 38.6851C109.952 38.7221 112.267 38.878 114.505 39.202C127.267 41.0439 133.77 43.5911 137.002 46.0479C138.61 47.2719 139.449 48.3635 139.828 49.1361C140.183 49.8672 140.32 50.9749 140.32 50.9749C140.32 50.9749 143.289 51.5826 144.275 52.5882C145.092 53.4201 145.123 54.2952 145.123 54.2952C149.963 55.3975 155.662 63.0183 157.657 66.5636C156.397 67.3968 143.504 77.2092 137.015 82.4405H157.306L165.35 112.946C165.763 112.974 166.928 113.148 166.928 113.148V105.958H164.786V90.3643L166.494 82.441H194.896L203.473 91.7593V105.175L200.739 113.222L203.855 120.274L206.917 121.013V137.315L192.67 151.037L191.555 150.784C164.041 144.562 135.414 141.276 106.012 141.276C78.72 141.276 51.0617 144.237 25.0858 149.769L10.7032 135.917V119.699L12.9319 119.191V104.193C12.0693 101.991 10.7085 98.5202 10.7085 98.5202V82.4428H32.2668L34.544 90.3661V105.965H32.3822V108.611H46.5442L47.2161 111.196C48.0653 107.987 48.9137 104.778 49.7633 101.567L49.2674 99.4924V92.8933C46.3664 94.2086 44.1493 95.5541 43.3732 96.1748C45.0333 92.1305 47.1047 88.8289 49.2674 86.1435V82.4432H52.6648C57.8609 77.4926 62.6328 75.7808 62.6328 75.7808C62.6328 75.7808 65.1025 70.0701 68.2651 65.7932C70.1253 63.2789 73.3462 60.066 73.3462 60.066C73.3462 60.066 66.6009 60.2019 59.709 62.227C63.5413 57.4479 67.4399 54.3598 70.5895 52.5865C73.7615 50.7922 78.2326 49.4658 78.2326 49.4658C78.2326 49.4658 76.6754 47.8778 74.8107 47.038C81.6701 44.2987 91.847 43.5484 91.847 43.5484C91.847 43.5484 89.2468 41.4694 87.207 40.8995C88.2238 40.5894 97.7293 38.522 107.661 38.6829L107.66 38.6851ZM118.274 51.5358C117.741 51.5345 117.202 51.5759 116.627 51.6575C114.065 52.0242 112.256 54.9622 111.615 56.5301C112.186 56.171 113.897 55.2928 116.066 56.0435C117.445 56.5225 118.516 57.3276 119.377 58.3386C121.264 60.5428 122.489 61.0645 123.702 61.2944C124.243 60.9259 125.075 60.238 125.075 60.238C125.075 60.238 124.554 60.3378 124.333 60.3146C123.805 60.2772 123.285 60.1681 122.793 59.984C121.941 59.6548 121.175 59.1121 120.593 58.4184C119.891 57.6649 119.363 56.7328 119.136 55.6711C118.837 54.2827 119.211 52.7745 119.891 51.6708C119.337 51.5808 118.808 51.5372 118.274 51.5358ZM126.492 53.7623C126.453 54.4404 126.306 55.7521 125.759 56.1206C125.759 56.1206 127.41 55.6514 127.574 54.2577C127.203 54.0889 126.84 53.9245 126.492 53.7623ZM13.7838 85.5171V95.4401H16.0071V121.648C15.263 121.814 14.5203 121.981 13.7784 122.151V132.033C14.555 131.851 15.3334 131.675 16.1118 131.497V121.637C16.7717 121.521 17.5091 121.403 18.3253 121.258V95.4405H16.1256V85.5175H13.7838V85.5171ZM85.4471 85.5171V95.4423H87.6628V112.248C86.9232 112.279 86.1853 112.313 85.4471 112.35V121.901C86.221 121.861 86.9994 121.836 87.7751 121.801V112.243C88.3793 112.218 89.4482 112.193 89.9913 112.169V95.4428H87.7751V85.518H85.4471V85.5171ZM52.3436 85.518V95.4187H54.5731C54.5731 95.4187 50.1831 112.006 49.2046 115.701C48.4614 115.803 47.7187 115.907 46.9768 116.013V125.716C47.7392 125.605 48.5153 125.495 49.2968 125.386V115.696C50.2254 115.589 51.0626 115.509 51.522 115.461C52.5 111.763 56.8931 95.4187 56.8931 95.4187H54.6654V85.518H52.3436ZM112.494 85.518L106.05 96.7897L108.716 96.787L115.165 85.5184L112.494 85.518ZM135.38 85.518V95.4713H137.589L133.056 112.72C132.32 112.672 131.582 112.626 130.846 112.582V122.166C131.589 122.214 132.371 122.267 133.176 122.322V112.715C133.739 112.758 134.507 112.82 135.417 112.872L139.991 95.4713H137.702V85.5184L135.38 85.518ZM169.571 85.518V95.4352H171.779V117.017C171.037 116.899 170.294 116.781 169.551 116.667V126.403C170.328 126.527 171.1 126.663 171.876 126.791V117.028L174.099 117.366V95.4352H171.892V85.518H169.571ZM131.887 87.1723C131.128 88.0902 130.388 89.1346 129.685 90.2992V98.5175L129.07 105.964H127.464V109.314L130.721 109.492L131.609 106.117V90.3643L131.887 87.1723ZM64.6708 95.4187L66.662 102.894L66.0074 103.768L62.0821 105.434H64.4734L68.3987 103.768L69.0533 102.894L67.0612 95.4187H64.6708ZM147.691 95.4187L149.684 102.894L149.028 103.768L145.103 105.434H147.491L151.416 103.768L152.072 102.894L150.079 95.4187H147.691ZM186.707 95.4624L189.112 96.6564L190.314 99.0424V100.274L189.117 102.65L187.831 103.495L182.274 105.223H184.601L190.157 103.495L191.443 102.65L192.64 100.274V100.233V99.0424L191.436 96.6564L189.033 95.4624H186.707ZM78.0179 96.5852L81.4179 109.484C81.4179 109.484 83.8003 109.338 84.5845 109.312V105.964H83.1591L82.4306 99.1017C80.8797 98.3072 79.4191 97.4522 78.0179 96.5852ZM114.838 99.5383V121.513C115.615 121.53 116.389 121.558 117.164 121.58V99.5383H114.838ZM97.2204 99.594L105.997 114.796H106.03L107.346 112.515L99.8822 99.594H97.2204ZM70.2523 110.607L67.861 110.608L68.5703 111.072L71.3305 122.903C72.1071 122.836 72.8935 122.771 73.6808 122.708L70.9625 111.072L70.2523 110.607ZM150.88 110.608L151.589 111.072L154.532 124.314C155.348 124.412 156.134 124.511 156.906 124.608L153.9 111.072L153.19 110.608H150.88ZM34.0374 111.686V118.058L36.3699 117.632V111.686H34.0374ZM184.889 111.984L186.177 112.624L194.233 131.124C195.184 131.338 196.141 131.554 197.095 131.775L188.714 112.625L187.428 111.985H184.889V111.984ZM106.013 124.564C74.428 124.564 43.6926 128.201 14.2057 135.077L25.7884 146.479C51.6819 141.053 78.5155 138.197 106.02 138.197C135.562 138.197 164.334 141.491 191.99 147.727L203.463 136.432C172.259 128.68 139.619 124.563 106.02 124.563L106.013 124.564ZM185.348 126.883V127.404L185.859 127.51V129.362L186.475 129.49V127.639L186.986 127.743V127.221L185.348 126.883ZM187.472 127.321L187.069 129.612L187.682 129.74L187.881 128.414L187.888 128.415L188.433 129.895L188.678 129.946L189.248 128.696L189.255 128.698L189.427 130.101L190.045 130.228L189.685 127.779L189.071 127.652L188.561 128.816L188.08 127.447L187.472 127.321Z" fill="white"/>
<path d="M127.62 58.4849C128.752 57.7603 129.545 56.4949 129.458 55.0285C129.033 54.8569 128.607 54.677 128.191 54.4904C128.358 55.7458 127.334 57.0095 125.907 57.2256C124.477 57.4467 123.19 56.5311 123.013 55.2696C122.872 54.2565 123.509 53.2791 124.513 52.8269C123.882 52.5952 122.583 52.1696 122.464 52.139C121.318 52.9594 120.641 54.4225 120.943 55.8661C121.242 57.2824 122.386 58.3729 123.712 58.8235C125.074 59.2807 126.515 59.1916 127.62 58.4849Z" fill="#C8DF8E"/>
<path d="M139.748 53.7778C139.748 53.7778 135.393 55.5542 130.171 59.9519L129.154 60.8091L130.486 60.7552C130.495 60.7552 144.395 60.2909 153.918 65.0686C153.918 65.0686 152.311 62.6782 150.377 60.855C148.505 59.0928 145.239 57.0807 142.691 56.1896C142.667 56.1375 142.714 53.8691 139.748 53.7778ZM133.452 63.2459L131.816 63.3564L133.277 64.104C136.619 65.8069 134.829 70.5414 132.324 74.5519C130.916 76.801 130.766 78.6844 130.995 80.0264C131.109 80.6921 131.316 81.2151 131.496 81.5752C131.685 81.9548 132.147 82.53 132.147 82.53L152.852 66.9676C152.852 66.9676 144.661 63.1813 133.452 63.2459Z" fill="#FCB034"/>
<path d="M106.707 41.7391C104.135 41.7093 101.638 41.8198 99.2984 42.0689C102.649 43.2959 104.885 47.3999 104.885 47.3999C94.5461 45.2376 84.9648 47.6361 84.9648 47.6361C87.5286 48.6069 88.5547 51.148 88.5547 51.148C77.3373 50.6868 67.3221 57.8514 67.3221 57.8514C75.1479 54.998 82.3614 57.4201 82.3614 57.4201C76.3634 60.3875 72.0272 65.6285 69.4421 69.5067C72.1399 66.4011 76.7586 62.3252 84.1383 59.1484C89.2898 56.9277 94.0444 55.9871 97.9042 55.661C99.9988 52.9676 104.284 49.0053 111.653 48.4354C121.975 47.6405 129.442 52.0146 130.831 52.4944C132.218 52.9725 135.354 53.9928 136.643 52.289C137.494 51.1564 137.834 49.048 129.553 45.8146C122.799 43.1769 114.421 41.8283 106.707 41.7391ZM111.774 51.3979C108.394 52.0605 105.832 54.5551 105.08 55.6984C106.678 55.8677 107.579 56.0816 107.579 56.0816C108.193 55.0149 109.669 52.7355 111.774 51.3979ZM98.6229 58.8601C94.3741 58.7955 89.0051 59.3065 83.6054 61.3966C74.2915 65.0012 69.1984 71.5237 67.4375 74.1645C71.8766 72.3328 80.5578 72.5984 80.5578 72.5984C69.4185 74.6381 62.0971 78.7279 57.4865 82.4407H74.2889L76.7149 91.6432C78.8237 93.0352 80.6527 94.2226 82.3686 95.2197V82.4403H101.397L106.053 90.5855L110.708 82.4403H127.553C127.176 80.6727 127.355 77.9508 129.802 74.3227C132.36 70.531 132.375 67.4059 131.519 66.6471C129.808 65.1433 127.248 64.225 119.968 68.2431C114.935 71.0251 111.666 71.3138 109.099 69.9478C105.962 68.2787 107.594 63.3018 107.594 63.3018C89.612 64.81 85.3369 75.4954 85.3369 75.4954C87.2381 63.8124 102.599 60.2315 105.992 59.5823C104.554 59.3083 101.927 58.9095 98.6225 58.8592L98.6229 58.8601ZM16.1282 85.5168V95.4398H18.3279V121.258C17.5116 121.402 16.7751 121.52 16.1152 121.636V131.497C25.1239 129.442 34.2431 127.683 43.4666 126.244V111.685H36.3716V117.631L34.0391 118.057L27.959 119.164L26.9601 118.389V95.4398H29.1887V85.5168H16.1282ZM87.7736 85.5168V95.4407H89.9903V112.167C89.4467 112.191 88.3778 112.216 87.7736 112.241V121.799C90.9139 121.659 94.0613 121.547 97.2181 121.479V99.5933H99.8812L107.344 112.514L114.836 99.5376H117.162V121.579C120.319 121.663 123.47 121.774 126.609 121.934V112.354C125.868 112.316 125.127 112.281 124.385 112.25V95.4416H126.606V85.5177H115.165L108.715 96.7863L106.05 96.7881L99.608 85.5168H87.7732H87.7736ZM54.6639 85.5177V95.4184H56.8925C56.8925 95.4184 52.4989 111.764 51.5205 115.46C51.0616 115.509 50.2244 115.589 49.2963 115.695V125.386C51.9433 125.02 54.6719 124.667 57.2878 124.348L59.3538 114.433L59.9647 113.593L67.8586 110.607L70.249 110.605L70.961 111.072L73.6775 122.707C76.2279 122.501 78.8139 122.315 81.3286 122.161V112.57C80.5806 112.612 79.8329 112.662 79.0853 112.71L71.9145 85.5177H54.6639ZM137.702 85.5177V95.4706H139.991L135.417 112.871C134.508 112.82 133.739 112.757 133.176 112.714V122.321C135.627 122.494 138.288 122.699 140.704 122.9L142.372 114.433L142.984 113.593L150.878 110.607H153.188L153.898 111.071L156.903 124.606C159.824 124.975 162.472 125.337 165.1 125.722V116.02C164.365 115.915 163.631 115.812 162.895 115.71L154.933 85.5177H137.702H137.702ZM171.892 85.5177V95.4349H174.099V117.366L171.875 117.027V126.79C175.119 127.326 178.353 127.891 181.57 128.5V113.688L182.226 113.035L184.888 111.984H187.427L188.713 112.624L197.094 131.774C199.395 132.305 201.683 132.852 203.837 133.39V123.436C203.109 123.26 202.383 123.08 201.654 122.91L195.443 108.85L200.395 103.9V92.9599L193.545 85.5177H171.893H171.892ZM63.8495 95.4184H67.0624L69.0545 102.894L68.3999 103.767L64.4741 105.434H62.0828L61.3285 104.934L63.8495 95.4184ZM146.87 95.4184H150.08L152.072 102.894L151.417 103.767L147.492 105.434H145.103L144.351 104.934L146.87 95.4184ZM182.252 95.4621H189.034L191.438 96.6549L192.64 99.0421V100.274L191.444 102.649L190.158 103.495L184.602 105.222H182.275L181.572 104.524V96.1376L182.252 95.4621Z" fill="#E31937" stroke="#E31937" stroke-width="0.382513"/>
<path d="M107.659 38.6847C97.7277 38.5234 88.2222 40.5913 87.2054 40.9009C89.2456 41.4708 91.8455 43.5489 91.8455 43.5489C91.8455 43.5489 81.6685 44.3014 74.8092 47.0403C76.6738 47.8801 78.231 49.4676 78.231 49.4676C78.231 49.4676 73.7599 50.7936 70.588 52.5883C67.4383 54.3607 63.5397 57.4498 59.7075 62.2288C66.5993 60.2033 73.3437 60.0679 73.3437 60.0679C73.3437 60.0679 70.1241 63.2803 68.2635 65.7951C65.1009 70.072 62.6312 75.7826 62.6312 75.7826C62.6312 75.7826 57.8575 77.4949 52.6628 82.4406H49.2654V86.1409C47.1031 88.8268 45.0313 92.1279 43.3711 96.1722C44.1473 95.552 46.3644 94.2064 49.2654 92.8911V99.4894L49.7613 101.564C48.9116 104.775 48.0633 107.985 47.2141 111.193L46.5422 108.609H32.3802V105.963H34.5429V90.363L32.2648 82.4397H10.7065V98.5172C10.7065 98.5172 12.0672 101.988 12.9298 104.189V119.188L10.7012 119.696V135.914L25.0868 149.769C51.0601 144.236 78.7185 141.275 106.013 141.276C135.415 141.276 164.043 144.561 191.556 150.784L192.671 151.036L206.918 137.314V121.012L203.857 120.274L200.741 113.221L203.474 105.175V91.7598L194.897 82.4406H166.496L164.787 90.3639V105.958H166.929V113.147C166.929 113.147 165.765 112.975 165.352 112.947L157.307 82.4406H137.016C143.505 77.2098 156.399 67.3964 157.658 66.5623C155.663 63.0175 149.965 55.3976 145.124 54.2948C145.124 54.2948 145.093 53.4202 144.276 52.5883C143.29 51.5823 140.321 50.975 140.321 50.975C140.321 50.975 140.184 49.8673 139.829 49.1361C139.451 48.3636 138.611 47.2719 137.003 46.0476C133.771 43.5912 127.267 41.0435 114.506 39.2016C112.268 38.8781 109.953 38.7222 107.661 38.6847H107.659ZM106.705 41.739C114.42 41.8281 122.798 43.1773 129.551 45.8145C137.833 49.0479 137.493 51.1567 136.642 52.2889C135.352 53.9932 132.217 52.9724 130.829 52.4939C129.441 52.0149 121.974 47.6404 111.651 48.4353C104.282 49.0052 99.9973 52.9675 97.9028 55.6609C94.0429 55.9875 89.2884 56.9271 84.1369 59.1478C76.7567 62.3246 72.1394 66.401 69.4415 69.5061C72.0267 65.628 76.3619 60.3864 82.36 57.4195C82.36 57.4195 75.1469 54.9974 67.3207 57.8512C67.3207 57.8512 77.3359 50.6867 88.5532 51.1478C88.5532 51.1478 87.5276 48.6059 84.9638 47.6355C84.9638 47.6355 94.5451 45.2375 104.884 47.3998C104.884 47.3998 102.647 43.2958 99.2965 42.0687C101.636 41.8197 104.134 41.7092 106.706 41.739H106.705ZM111.773 51.3978C109.667 52.7354 108.192 55.0144 107.578 56.0815C107.578 56.0815 106.677 55.8676 105.079 55.6987C105.831 54.555 108.393 52.0608 111.773 51.3978ZM118.272 51.5355C118.807 51.5364 119.336 51.5805 119.89 51.67C119.21 52.7737 118.836 54.2823 119.136 55.6707C119.362 56.7324 119.89 57.6645 120.591 58.418C121.174 59.1113 121.941 59.6544 122.792 59.9837C123.284 60.1677 123.804 60.2768 124.333 60.3152C124.554 60.3379 125.073 60.2376 125.073 60.2376C125.073 60.2376 124.243 60.9265 123.701 61.2949C122.488 61.065 121.264 60.5419 119.377 58.3378C118.515 57.3268 117.444 56.5221 116.065 56.0432C113.895 55.2924 112.185 56.1697 111.613 56.5297C112.256 54.9614 114.064 52.0242 116.625 51.6571C117.2 51.5751 117.739 51.5337 118.272 51.535V51.5355ZM122.465 52.1419C122.583 52.1717 123.882 52.5981 124.514 52.8294C123.51 53.2812 122.872 54.2583 123.013 55.2719C123.19 56.5328 124.477 57.4489 125.907 57.2283C127.334 57.0118 128.358 55.7478 128.191 54.4931C128.607 54.6793 129.033 54.8589 129.458 55.03C129.545 56.4967 128.752 57.7626 127.621 58.4875C126.515 59.1941 125.075 59.2828 123.712 58.8261C122.386 58.3752 121.242 57.2854 120.943 55.8689C120.641 54.4253 121.317 52.9621 122.465 52.1419ZM126.491 53.7624C126.839 53.9245 127.203 54.0885 127.574 54.2574C127.411 55.6511 125.758 56.1202 125.758 56.1202C126.305 55.7522 126.451 54.4405 126.491 53.7624ZM139.747 53.778C142.713 53.8688 142.666 56.1381 142.689 56.1902C145.237 57.0813 148.504 59.0926 150.375 60.8556C152.31 62.6779 153.917 65.0692 153.917 65.0692C144.393 60.2907 130.494 60.7554 130.484 60.7554L129.153 60.8093L130.17 59.9516C135.392 55.5544 139.747 53.7784 139.747 53.7784L139.747 53.778ZM98.6219 58.86C101.927 58.9103 104.554 59.3095 105.991 59.584C102.598 60.2327 87.2375 63.8137 85.3363 75.497C85.3363 75.497 89.6114 64.8108 107.593 63.3026C107.593 63.3026 105.961 68.2799 109.099 69.9494C111.665 71.3155 114.934 71.0259 119.967 68.2438C127.248 64.2254 129.807 65.1432 131.519 66.6478C132.374 67.4062 132.359 70.5309 129.802 74.3234C127.355 77.9516 127.175 80.6731 127.553 82.441H110.708L106.052 90.5863L101.396 82.441H82.368V95.2205C80.6517 94.2229 78.8227 93.0359 76.7144 91.6436L74.2883 82.441H57.4859C62.0965 78.7287 69.4179 74.6389 80.5573 72.5987C80.5573 72.5987 71.8761 72.3336 67.437 74.1653C69.1978 71.5245 74.291 65.002 83.6049 61.3983C89.0046 59.3073 94.3735 58.7958 98.6224 58.8609L98.6219 58.86ZM133.451 63.246C144.66 63.181 152.851 66.9678 152.851 66.9678L132.146 82.5302C132.146 82.5302 131.684 81.9549 131.495 81.5753C131.315 81.2153 131.109 80.6922 130.994 80.0266C130.765 78.6846 130.915 76.8012 132.323 74.552C134.829 70.5416 136.617 65.8071 133.275 64.1042L131.815 63.3565L133.451 63.246H133.451ZM13.7835 85.5167H29.1855V95.4397H26.956V118.389L27.9567 119.164L34.0363 118.057V111.685H43.4625V126.244C34.2395 127.682 25.1203 129.441 16.1111 131.496C15.3332 131.674 14.5548 131.851 13.7782 132.032V122.15C14.5196 121.98 15.2628 121.813 16.0069 121.647V95.4397H13.7835V85.5167ZM52.3415 85.5176H71.9139L79.0847 112.71C79.8315 112.662 80.5796 112.611 81.3281 112.569V122.161C78.8134 122.315 76.2278 122.501 73.6779 122.706C72.8897 122.769 72.1037 122.834 71.3271 122.9L68.5669 111.071L67.8576 110.606L59.9637 113.592L59.3528 114.432L57.2872 124.347C54.6713 124.666 51.9432 125.02 49.2957 125.386C48.5142 125.495 47.7367 125.603 46.9748 125.714V116.011C47.7167 115.905 48.459 115.802 49.2026 115.699C50.1806 112.004 54.5711 95.4174 54.5711 95.4174H52.3415V85.5167V85.5176ZM85.445 85.5176H99.6075L106.05 96.788L112.491 85.5176H126.606V95.4406H124.385V112.249C125.126 112.281 125.868 112.316 126.609 112.353V121.934C123.47 121.774 120.319 121.662 117.161 121.579C116.386 121.558 115.612 121.529 114.835 121.513V99.5388L107.343 112.515L106.027 114.796H105.994L97.2166 99.5936V121.48C94.0599 121.547 90.9133 121.66 87.7731 121.8C86.9978 121.834 86.2199 121.86 85.4455 121.9V112.348C86.1833 112.312 86.9212 112.278 87.6608 112.247V111.951V95.846V95.4401H85.4455V85.5172L85.445 85.5176ZM135.379 85.5176H154.933L162.894 115.71C163.63 115.811 164.365 115.915 165.099 116.02V125.722C162.471 125.337 159.824 124.975 156.903 124.606C156.131 124.51 155.345 124.412 154.53 124.313L151.587 111.072L150.877 110.607L142.984 113.593L142.371 114.433L140.703 122.9C138.287 122.699 135.626 122.493 133.174 122.321C132.37 122.266 131.588 122.213 130.845 122.166V112.58C131.582 112.625 132.318 112.671 133.055 112.719L137.588 95.47H135.379V85.5176ZM169.571 85.5176H193.544L200.393 92.9597V103.9L195.442 108.85L201.652 122.91C202.383 123.08 203.108 123.26 203.836 123.436V133.39C201.682 132.852 199.394 132.305 197.093 131.773C196.139 131.552 195.182 131.336 194.231 131.122L186.174 112.623L184.888 111.984L182.224 113.035L181.569 113.687V128.5C178.352 127.89 175.118 127.325 171.874 126.789C171.099 126.662 170.326 126.526 169.55 126.402V116.666C170.293 116.781 171.035 116.898 171.777 117.017V95.4344H169.571V85.5176ZM131.887 87.1715L131.607 90.3639V106.116L130.72 109.492L127.463 109.314V105.964H129.068L129.683 98.5172V90.2989C130.387 89.1342 131.127 88.0894 131.887 87.1715ZM63.8462 95.4179L61.3266 104.934L62.0805 105.434L66.0058 103.767L66.6604 102.893L64.6692 95.4179H63.8462ZM146.867 95.4179L144.348 104.934L145.1 105.434L149.025 103.767L149.682 102.893L147.689 95.4179H146.867ZM182.249 95.4615L181.568 96.137V104.522L182.272 105.222L187.829 103.494L189.115 102.649L190.313 100.273V99.0416L189.109 96.6552L186.705 95.4615H182.249ZM78.0158 96.5834C79.4162 97.4505 80.8772 98.3073 82.4286 99.1008L83.1571 105.963H84.5824V109.31C83.7983 109.336 81.4159 109.483 81.4159 109.483L78.0158 96.5834ZM106.012 124.564C139.614 124.564 172.253 128.681 203.455 136.433L191.981 147.728C164.33 141.49 135.556 138.193 106.015 138.193C78.5131 138.193 51.6799 141.049 25.7886 146.474L14.2046 135.072C43.6946 128.193 74.4304 124.557 106.016 124.557L106.012 124.564ZM185.348 126.882L186.986 127.221V127.743L186.475 127.638V129.489L185.858 129.362V127.51L185.348 127.404V126.882ZM107.295 127.196L98.6331 127.264V135.727L107.375 135.657V134.065L100.602 134.119V132.021L104.509 131.99V130.549L100.602 130.58V128.69L107.295 128.637V127.196ZM187.469 127.321L188.077 127.446L188.558 128.816L189.069 127.651L189.682 127.779L190.042 130.227L189.424 130.1L189.251 128.696L189.245 128.696L188.675 129.945L188.429 129.894L187.884 128.414L187.878 128.414L187.68 129.739L187.065 129.611L187.469 127.321ZM115.934 127.324V135.786L117.87 135.856V132.661L119.735 132.728L123.142 136.045L125.966 136.148L122.063 132.813L123.166 132.852C123.838 132.877 124.325 132.763 124.626 132.514C124.927 132.262 125.079 131.851 125.079 131.281V129.295C125.079 128.718 124.927 128.295 124.626 128.026C124.325 127.756 123.838 127.609 123.166 127.585L115.934 127.324ZM91.4208 127.441L89.4617 127.538L86.1994 133.815L82.7766 127.868L80.5314 127.98L85.4161 136.2L86.7755 136.131L91.4208 127.44V127.441ZM135.573 128.34C135.058 128.352 134.693 128.454 134.477 128.649C134.19 128.909 134.046 129.423 134.046 130.191V131.127C134.046 131.895 134.19 132.432 134.477 132.739C134.765 133.046 135.317 133.233 136.136 133.3L141.395 133.728V135.657L135.435 135.171V134.17L133.704 134.39V134.622C133.704 135.391 133.849 135.927 134.139 136.234C134.428 136.541 134.985 136.728 135.809 136.796L141.02 137.22C141.844 137.288 142.401 137.191 142.692 136.933C142.982 136.673 143.126 136.159 143.126 135.391V134.23C143.126 133.461 142.982 132.924 142.692 132.618C142.401 132.31 141.844 132.124 141.02 132.056L135.762 131.627V129.809L141.283 130.261V131.22L143.015 130.955V130.778C143.015 130.084 142.865 129.59 142.564 129.293C142.264 128.996 141.717 128.814 140.924 128.75L136.137 128.36C135.932 128.343 135.744 128.337 135.573 128.34ZM73.3375 128.535L71.3744 128.698V137.161L73.3375 136.996V128.535ZM117.87 128.86L122.293 129.019C122.634 129.03 122.868 129.089 122.993 129.192C123.118 129.296 123.181 129.469 123.181 129.715V130.731C123.181 130.983 123.118 131.155 122.993 131.25C122.868 131.343 122.634 131.384 122.293 131.372L117.87 131.213V128.86ZM62.1883 129.568L60.4319 129.783V134.227C60.4319 134.334 60.4373 134.485 60.448 134.682C60.4591 134.877 60.4801 135.211 60.5121 135.682C60.3843 135.543 60.2439 135.409 60.0911 135.282C59.9369 135.153 59.76 135.018 59.5582 134.877L53.6457 130.615L52.3108 130.778V139.24L54.0672 139.024V134.455C54.0672 134.283 54.0609 134.082 54.048 133.852C54.0346 133.62 54.0141 133.377 53.9879 133.118C54.0832 133.219 54.1861 133.316 54.2975 133.409C54.4085 133.502 54.539 133.607 54.6874 133.721L60.853 138.195L62.1879 138.03L62.1883 129.568ZM152.079 129.897V138.359L154.034 138.591V130.13L152.079 129.897ZM161.297 131.051V132.565L165.136 133.151V140.1L167.082 140.398V133.45L170.936 134.038V132.526L161.297 131.051ZM43.176 132.125L41.2423 132.456V139.325L35.712 140.273V133.406L33.7707 133.738V140.198C33.7707 140.971 33.9133 141.474 34.2003 141.706C34.4876 141.936 35.033 141.983 35.8381 141.845L41.1082 140.94C41.9182 140.801 42.4658 140.568 42.7505 140.24C43.0339 139.91 43.176 139.359 43.176 138.585V132.125ZM176.161 133.421L180.476 138.932V142.719L182.426 143.096V139.261L186.724 135.467L184.454 135.026L181.592 137.723L178.74 133.921L176.161 133.421Z" fill="black"/>
</g>
<defs>
<clipPath id="clip0_154_2412">
<rect width="200" height="200" fill="white"/>
</clipPath>
</defs>
</svg>
