<svg width="200" height="200" viewBox="0 0 200 200" fill="none" xmlns="http://www.w3.org/2000/svg">
<g clip-path="url(#clip0_154_2437)">
<path d="M150.532 81.5241C153.598 81.6675 155.448 82.4145 156.962 83.0625C162.546 85.4317 160.132 86.9601 161.235 91.5255C160.498 91.2089 151.422 82.3847 150.532 81.5241ZM150.166 106.656C151.036 108.684 151.145 110.746 150.141 112.077C148.375 114.416 141.861 117.058 140.58 118.482C137.078 118.843 135.495 122.004 135.495 122.004C135.238 121.974 134.852 121.945 134.343 121.964V117.345C135.975 115.806 137.029 113.719 137.029 113.719C140.733 112.562 139.101 110.301 145.595 104.193C147.544 104.702 149.562 105.241 150.166 106.656ZM129.639 110.247L129.644 98.3265L130.702 97.3224C135.104 98.4452 139.15 100.468 140.031 101.378C139.556 103.772 137.038 105.439 136.311 106.25C136.311 106.25 135.48 107.957 133.873 108.135C132.641 108.268 132.32 109.876 129.639 110.247ZM131.182 123.443H118.767C118.154 123.443 117.446 123.33 116.215 122.311C114.983 123.33 114.276 123.443 113.668 123.443H101.253V115.722C102.143 115.44 105.951 114.926 105.951 111.315V92.0248L90.816 113.382L75.6807 92.0248V111.315C75.6807 114.926 79.4892 115.44 80.3795 115.722V123.443H67.9646C67.3562 123.443 66.6489 123.33 65.4173 122.311C64.1857 123.33 63.4783 123.443 62.865 123.443H50.45V115.668C51.8548 115.233 55.1489 114.901 55.1489 111.315L55.144 98.3265C55.144 96.5755 54.0311 95.7643 54.0311 95.7643L51.647 93.8401L54.0657 91.748C54.0657 91.748 55.144 90.9663 55.144 89.2154L55.1489 76.3058C55.1489 72.339 50.4451 71.9531 50.45 71.9531V64.1776L61.2674 64.1927C62.0538 64.2718 62.7908 64.6376 63.4487 65.1422C64.9276 64.1529 65.8921 64.1776 65.8921 64.1776H72.2727C74.2314 64.1974 75.0129 65.0581 75.5224 65.7061L90.816 87.2914L106.11 65.7061C106.382 65.3598 106.728 64.9593 107.292 64.6476C107.782 64.3806 108.444 64.1875 109.359 64.1776H115.74C115.74 64.1776 116.704 64.1529 118.183 65.1422C118.975 64.5387 119.415 64.3163 120.617 64.1927L131.182 64.1776V71.9531C131.187 71.9531 126.483 72.339 126.483 76.3058V89.2154C126.483 90.9713 127.561 91.748 127.561 91.748L129.985 93.8401L127.601 95.7643C127.601 95.7643 126.483 96.5755 126.483 98.3265V111.315C126.483 114.901 129.772 115.233 131.182 115.668V123.443ZM88.3974 46.5495C90.5638 46.8957 90.9991 48.0581 94.5603 48.5824C95.0352 48.6566 95.6386 49.6656 96.5685 49.8733C97.3401 49.6656 99.0861 50.6448 99.5016 51.5153C95.4012 51.3521 91.281 53.4939 89.7328 54.4337C83.1841 49.8882 87.2251 50.2689 85.1972 45.8074C85.1972 45.8074 87.0718 46.3368 88.3974 46.5495ZM185.333 100.844C185.605 99.5876 184.75 98.351 183.928 97.9998C183.325 94.7551 182.91 93.0586 182.657 91.8566C183.622 87.6227 182.019 84.7637 183.592 84.1949C186.911 83.0029 188.667 79.323 188.667 79.323C188.667 79.323 184.695 80.9058 182.222 78.9471C179.932 77.1318 178.621 77.4038 178.621 77.4038C178.76 73.1254 175.446 72.3539 176.855 67.1455C174.511 68.3375 173.982 72.7447 173.982 72.7447C173.739 59.6373 168.857 56.7634 168.857 56.7634C169.03 61.4475 165.771 62.2093 165.771 62.2093C164.821 60.4929 165.979 54.1369 173.744 53.7659C173.744 53.7659 165.657 48.0035 160.755 53.202C161.463 49.2351 161.117 47.42 159.648 46.0994C160.014 48.2559 156.561 49.1116 156.561 49.1116C156.264 46.322 157.051 41.6776 164.782 40.0799C163.09 38.8483 155.527 38.1557 151.778 41.4647C151.199 38.9966 153.104 37.2011 153.104 37.2011C148.776 38.6157 148.89 41.0642 147.317 39.7089C145.749 38.3536 144.69 38.6257 144.69 38.6257C145.264 39.8425 145.877 43.2156 141.559 44.3285C139.131 44.9566 140.887 41.4253 142.064 40.7625C137.281 41.4253 133.136 46.3021 131.558 50.3135C129.594 50.818 126.34 50.5558 125.296 50.1849C123.219 49.4528 119.746 48.5874 116.888 48.8396C113.554 49.1364 113.41 47.9294 113.648 47.2469C113.885 46.5643 113.519 45.5554 112.05 45.5801C111.12 45.5949 110.744 44.7094 108.894 44.6104C104.675 44.378 102.628 45.8074 101.866 45.8074C100.837 45.8074 99.4027 45.1298 98.5717 44.3137C97.6072 43.364 92.295 40.7624 90.8062 39.3231C89.4905 38.0569 88.338 39.6346 86.7404 38.037C84.2327 35.5293 79.8404 33.2293 77.8372 32.3291C76.8084 31.8642 74.543 30.217 74.3946 29.2921C73.7219 25.1818 71.6248 26.2155 71.3676 24.3359C71.2736 23.6385 72.2282 23.5643 73.2867 23.4752C73.8852 23.4208 75.374 23.1639 75.1217 21.403C75.0277 20.76 75.5718 19.6668 75.5718 19.6668C76.3583 19.469 76.3286 19.3651 76.5067 18.084C76.7342 16.4963 79.049 17.5449 80.5032 18.0049C84.109 19.1425 84.1782 18.6678 84.3959 17.7972C85.9144 11.7431 76.3088 9.02736 76.2445 9.02242C76.2445 9.02242 76.5957 6.25763 76.5215 5.10022C76.472 4.26926 75.9428 3.49768 73.8753 3.33444C71.5061 3.1465 69.5721 0.688293 64.3687 3.34441C63.4042 3.83409 63.2706 8.03323 62.5386 8.90376C55.6782 9.45279 53.4771 13.588 54.0855 14.6911C54.59 15.611 58.5074 15.3882 59.6896 15.3833C61.3713 15.3734 60.748 16.5307 61.2525 17.3568C61.7571 18.1828 61.4356 19.0633 61.0745 19.5826C57.4835 19.454 57.2164 17.1689 54.5307 17.8564C53.2842 18.173 51.8053 17.8763 50.1681 17.2333C48.6348 16.6348 42.3531 16.7435 41.809 21.0368C46.0133 19.0336 47.418 21.6602 47.418 21.6602C47.418 21.6602 45.672 22.1449 45.395 23.5299C47.3191 22.4664 48.9711 23.0401 49.6933 23.1489C53.4771 23.7177 54.1251 21.4377 55.5891 21.4921C57.993 21.5762 59.3384 22.0014 59.3384 22.0014C57.6814 23.5693 55.3418 22.8523 54.4614 23.7475C54.1547 24.0641 54.041 24.8307 53.4771 25.8496C53.0715 26.5767 51.4887 26.4185 50.7864 28.7828C50.1978 30.7662 45.3752 32.3884 42.3135 36.8153C39.2469 41.2421 38.9699 38.0172 34.3551 47.3755C33.0938 49.9326 30.5168 48.9384 29.8837 51.2829C28.5383 56.2686 24.9177 54.0183 24.0966 60.9875C24.0422 61.4327 23.7553 62.6742 23.8988 63.3568C24.0422 64.0344 24.0175 66.0771 25.0117 65.7408C27.3215 64.9642 27.1484 61.5414 28.7906 61.4177C29.6611 61.3534 29.5523 63.1984 30.7048 63.05C32.3419 62.8324 30.9323 61.3931 33.1185 58.7073C34.2858 57.2729 32.8613 54.9283 34.1127 54.3199C38.4307 52.2276 37.9955 49.6904 38.5643 49.4827C41.1808 48.5379 42.1948 47.6524 45.4692 44.3137C47.789 41.9494 53.0122 40.2776 53.4079 40.2924C54.0261 40.3172 54.3229 40.5299 54.6395 40.9107C54.956 41.2866 58.7893 46.3961 59.1257 48.2114C59.4076 49.7052 60.5205 50.5064 61.1586 52.0892C61.9747 54.1221 62.8996 54.6414 63.8394 54.7205C65.4469 54.859 67.2869 53.6075 69.305 55.6256C69.8787 56.1993 69.9678 57.1146 71.788 57.6389C73.6032 58.1632 73.9346 59.0831 74.1918 59.6519C74.4243 60.1713 75.0871 60.6809 75.2503 61.591C74.4589 61.2645 73.5043 61.0219 72.3123 61.0219H47.2894V73.6398L51.5135 75.4947C51.9586 75.6777 51.9932 75.9349 51.9932 76.3058L51.9883 89.2154L47.2498 93.8401L51.9883 98.3265L51.9932 111.315C51.9932 111.924 51.7064 112.077 51.5877 112.112L48.5161 113.818C42.6548 111.533 35.4432 100.488 23.4338 104.207C16.7268 106.285 12.8934 112.844 12.8143 116.543C15.144 113.709 18.4728 113.595 18.4728 113.595C18.4728 113.595 7.68014 121.682 9.86142 131.362C10.915 128.187 13.7689 126.782 13.7689 126.782C13.7689 126.782 6.81951 141.754 20.8667 147.927C16.8603 141.912 18.9476 138.074 18.9476 138.074C18.9476 138.074 19.5659 141.967 23.3299 143.248C21.0201 134.434 23.2162 127.183 35.1712 125.535C33.9099 126.51 33.4746 128.355 33.4746 128.355C33.4746 128.355 38.0449 124.754 45.8995 126.762C49.4064 127.657 53.1259 126.683 53.1259 126.683C53.4821 129.487 55.1935 134.414 63.2113 141.996C67.0693 145.652 61.6779 150.934 57.6022 153.961C51.8795 158.22 55.0995 160.555 56.5388 162.879C57.9782 165.209 62.8205 173.657 63.0629 175.126C64.3835 183.268 68.0338 181.269 67.0545 183.915C66.634 185.048 65.8575 185.246 65.5904 186.042C65.3233 186.844 64.794 189.505 64.2598 190.435C65.4568 192.299 70.3833 196.425 73.1779 197.359C73.994 195.5 75.7054 189.371 73.8456 186.309C71.9809 183.248 73.4944 181.492 72.7772 179.256C72.1392 177.253 69.8491 173.261 67.6925 169.542C65.4568 165.694 66.4757 159.466 67.9843 158.487C70.0024 157.181 76.9073 150.632 80.6318 146.908C80.8989 152.497 78.6385 157.424 77.8372 160.218C76.4325 165.14 81.9524 164.145 84.8608 163.423C88.432 162.533 104.542 156.825 109.256 159.684C111.926 161.311 113.722 159.729 112.54 164.615C112.94 165.545 114.202 168.661 114.202 168.661C118.02 169.3 124.816 169.527 125.766 167.108C123.743 163.547 121.468 160.624 118.198 158.922C116.897 156.83 113.87 151.37 108.815 152.121C101.109 153.259 92.9132 156.093 91.8201 152.819C91.1573 150.83 93.952 148.421 95.4507 145.661C96.9098 142.981 101.366 137.797 101.183 126.599H127.705C126.483 128.81 125.608 131.392 126.152 134.167C130.42 133.88 133.873 131.219 135.218 130.264C135.96 127.435 138.324 128.266 140.278 126.085C143.839 127.193 149.162 119.892 152.179 116.761C156.319 112.463 158.179 113.769 159 106.493C159.529 101.823 153.781 98.4106 151.936 95.8534C153.356 91.8667 152.332 90.6251 149.656 89.7298C146.985 88.8345 145.734 88.7506 145.813 87.5981C145.976 85.2932 145.937 82.9782 147.994 82.5825C151.595 85.7283 159.905 94.2854 161.893 95.8534C164.688 102.704 168.669 99.6964 171.781 106.398C170.925 108.634 170.45 111.375 173.566 111.79C175.372 112.032 175.085 112.675 175.703 113.071C178.038 114.565 178.522 112.082 178.681 111.473C178.72 111.32 179.526 111.32 179.635 111.379C180.179 112.324 181.594 113.293 182.86 113.407C184.131 113.526 185.764 111.003 186.026 110.316C186.59 108.867 188.034 108.748 187.811 106.245C187.559 103.322 185.21 102.793 185.333 100.844Z" fill="#00529B"/>
<path d="M123.913 76.2823V89.1969C123.913 92.13 126.4 93.8216 126.4 93.8216C126.4 93.8216 123.917 95.3698 123.917 98.3029L123.913 111.296C123.913 116.426 128.616 117.638 128.616 117.638V120.848H118.768C118.185 120.848 116.216 118.691 116.216 118.691C116.216 118.691 114.258 120.848 113.669 120.848H103.826V117.638C103.826 117.638 108.53 116.426 108.53 111.296V83.9241L90.8224 108.912L73.11 83.9241V111.296C73.11 116.426 77.8138 117.638 77.8138 117.638V120.848H67.9709C67.3872 120.848 65.4186 118.691 65.4186 118.691C65.4186 118.691 63.455 120.848 62.8713 120.848H53.0234V117.638C53.0234 117.638 57.7273 116.426 57.7273 111.296V98.3029L57.7223 98.3077C57.7223 95.3697 55.2393 93.8216 55.2393 93.8216C55.2393 93.8216 57.7223 92.13 57.7223 89.1969L57.7273 76.2823C57.7273 71.153 53.0234 69.9413 53.0234 69.9413V66.7313H61.0116C62.0107 66.8302 63.45 68.8829 63.45 68.8829C63.45 68.8829 64.8943 66.8302 65.8984 66.7313H72.2741C72.8083 66.7362 73.1001 66.7905 73.4266 67.1763L90.8224 91.7195L108.213 67.1763C108.367 66.9933 108.515 66.8843 108.683 66.82C108.871 66.7508 109.084 66.7313 109.366 66.7313H115.741C116.745 66.8302 118.185 68.8829 118.185 68.8829C118.185 68.8829 119.629 66.8302 120.633 66.7313H128.616V69.9413C128.616 69.9413 123.913 71.153 123.913 76.2823Z" fill="#FFD204"/>
<path d="M59.091 183.761C59.091 182.649 58.2501 181.758 57.2015 181.758H57.1916C56.1529 181.758 55.3021 182.649 55.3021 183.752C55.3021 184.875 56.1529 185.755 57.2015 185.755C58.2501 185.765 59.091 184.874 59.091 183.761ZM59.5213 183.752C59.5213 185.082 58.4924 186.121 57.1916 186.121C55.9006 186.121 54.852 185.082 54.852 183.752C54.852 182.441 55.9006 181.387 57.1916 181.387H57.2015C58.4925 181.387 59.5213 182.441 59.5213 183.752ZM57.6961 183.217C57.6961 182.985 57.5279 182.753 57.058 182.753C56.9196 182.753 56.8256 182.767 56.7514 182.777V183.668H57.058C57.3993 183.668 57.6961 183.539 57.6961 183.217ZM58.0621 184.474C58.1264 184.884 58.1858 185.043 58.2303 185.127H57.7901C57.7258 185.043 57.6615 184.8 57.612 184.454C57.5477 184.118 57.3796 183.989 57.0432 183.989H56.7514V185.127H56.331V182.491C56.5486 182.461 56.7613 182.426 57.0778 182.426C57.4735 182.426 57.7357 182.515 57.894 182.629C58.0522 182.743 58.1363 182.921 58.1363 183.173C58.1363 183.519 57.9039 183.732 57.6219 183.816V183.836C57.8544 183.875 58.0077 184.088 58.0621 184.474ZM109.364 64.1869C108.444 64.1968 107.786 64.3899 107.292 64.657L108.682 66.8481C108.87 66.7789 109.087 66.764 109.364 66.759H115.745C116.744 66.8629 118.183 68.9106 118.183 68.9106V65.1515C116.709 64.1622 115.745 64.1869 115.745 64.1869H109.364ZM136.316 106.259C137.043 105.448 139.561 103.781 140.031 101.387C139.15 100.477 135.104 98.4542 130.707 97.3314L129.644 98.3355V110.256C132.32 109.885 132.646 108.278 133.873 108.144C135.485 107.966 136.316 106.259 136.316 106.259ZM126.488 111.324V98.3355C126.488 96.5846 127.606 95.7733 127.606 95.7733L129.99 93.8494L127.566 91.7573C127.566 91.7573 126.488 90.9806 126.488 89.2247V76.31C126.488 72.3481 131.192 71.9625 131.187 71.9625V64.1869L120.622 64.1969L120.632 66.759H128.615V69.9691C128.615 69.9691 123.911 71.1808 123.911 76.31V89.2247C123.911 92.1627 126.399 93.8494 126.399 93.8494C126.399 93.8494 123.916 95.3975 123.916 98.3355L123.911 111.324C123.911 116.459 128.615 117.665 128.615 117.665V120.881L131.187 123.452V115.677C129.777 115.242 126.488 114.91 126.488 111.324ZM113.667 120.881V123.452C114.281 123.452 114.988 123.339 116.22 122.32V118.719C116.22 118.719 114.256 120.881 113.667 120.881ZM187.816 106.254C187.559 103.331 185.214 102.797 185.338 100.853C185.61 99.597 184.754 98.3603 183.933 98.0092C183.33 94.7645 182.914 93.068 182.657 91.8611C183.622 87.6321 182.024 84.773 183.597 84.2042C186.916 83.0122 188.672 79.3323 188.672 79.3323C188.672 79.3323 184.695 80.9151 182.222 78.9564C179.932 77.1412 178.626 77.4131 178.626 77.4131C178.764 73.1347 175.446 72.3582 176.86 67.1548C174.516 68.3469 173.986 72.7537 173.986 72.7537C173.744 59.6463 168.862 56.7727 168.862 56.7727C169.035 61.4518 165.776 62.2134 165.776 62.2134C164.826 60.5021 165.983 54.146 173.749 53.7701C173.749 53.7701 165.662 48.0128 160.76 53.2113C161.468 49.2444 161.121 47.4293 159.652 46.1087C160.013 48.2652 156.561 49.121 156.561 49.121C156.269 46.3264 157.056 41.6866 164.787 40.0889C163.095 38.8573 155.532 38.165 151.783 41.474C151.204 39.0059 153.109 37.2104 153.109 37.2104C148.781 38.625 148.894 41.0735 147.321 39.7182C145.749 38.3629 144.695 38.6347 144.695 38.6347C145.269 39.8465 145.882 43.2249 141.564 44.3378C139.131 44.9659 140.886 41.4294 142.064 40.7715C137.286 41.4294 133.136 46.3112 131.558 50.3177C129.599 50.8271 126.345 50.5652 125.301 50.1942C123.224 49.4621 119.751 48.5964 116.892 48.8486C113.559 49.1454 113.415 47.9388 113.653 47.2562C113.89 46.5736 113.524 45.5644 112.05 45.5891C111.125 45.604 110.749 44.7187 108.899 44.6197C104.68 44.3823 102.632 45.8167 101.871 45.8167C100.842 45.8167 99.4075 45.1391 98.5765 44.323C97.612 43.3733 92.2998 40.7717 90.806 39.3324C89.4953 38.0662 88.3379 39.639 86.7452 38.0463C84.2375 35.5386 79.8452 33.2335 77.842 32.3333C76.8132 31.8733 74.5479 30.2263 74.3945 29.3014C73.7268 25.1911 71.6296 26.2198 71.3724 24.3452C71.2784 23.6478 72.233 23.5737 73.2915 23.4797C73.89 23.4302 75.3739 23.1729 75.1265 21.412C75.0326 20.769 75.5767 19.6762 75.5767 19.6762C76.3631 19.4783 76.3334 19.3744 76.5115 18.0933C76.7341 16.5056 79.0538 17.5542 80.508 18.0142C84.1138 19.1519 84.1781 18.6769 84.4007 17.8014C85.9192 11.7522 76.3136 9.03679 76.2493 9.02689C76.2493 9.02689 76.6005 6.26694 76.5263 5.10953C76.4719 4.27856 75.9476 3.50699 73.8752 3.34377C71.5109 3.15581 69.5769 0.697311 64.3735 3.35342C63.409 3.84309 63.2754 8.04254 62.5434 8.91307C55.683 9.46211 53.4819 13.5921 54.0903 14.7001C54.5948 15.6201 58.5073 15.3976 59.6944 15.3926C61.3761 15.3827 60.7479 16.5401 61.2574 17.3661C61.7619 18.1921 61.4404 19.0726 61.0793 19.5919C57.4884 19.4633 57.2163 17.1783 54.5305 17.8609C53.2841 18.1824 51.8101 17.8856 50.168 17.2426C48.6396 16.6441 42.353 16.7528 41.8089 21.0461C46.0181 19.0429 47.4228 21.6693 47.4228 21.6693C47.4228 21.6693 45.6768 22.1539 45.3998 23.5389C47.3239 22.4754 48.9759 23.0494 49.6981 23.1582C53.4819 23.727 54.1299 21.4467 55.594 21.5011C57.9978 21.5852 59.3432 22.0107 59.3432 22.0107C57.6862 23.5786 55.3467 22.8613 54.4662 23.7565C54.1596 24.0731 54.0458 24.84 53.4819 25.8589C53.0763 26.586 51.4936 26.4275 50.7912 28.7918C50.2026 30.7752 45.38 32.3977 42.3183 36.8246C39.2517 41.2514 38.9747 38.0266 34.3599 47.3848C33.0986 49.942 30.5216 48.9477 29.8885 51.2922C28.5431 56.278 24.9225 54.0276 24.1015 60.9968C24.047 61.442 23.7602 62.6832 23.9036 63.3658C24.0421 64.0434 24.0223 66.0815 25.0115 65.7501C27.3264 64.9686 27.1533 61.5457 28.7954 61.427C29.6659 61.3627 29.5571 63.2076 30.7096 63.0542C32.3418 62.8415 30.9371 61.3973 33.1233 58.7115C34.2907 57.282 32.8612 54.9376 34.1175 54.3292C38.4356 52.237 38.0003 49.6994 38.5691 49.4917C41.1857 48.547 42.1996 47.6618 45.474 44.3181C47.7889 41.9588 53.017 40.2869 53.4127 40.3018C54.026 40.3265 54.3277 40.539 54.6443 40.9149C54.9559 41.2958 58.7942 46.4053 59.1305 48.2156C59.4125 49.7143 60.5253 50.5155 61.1634 52.0934C61.9795 54.1312 62.9045 54.6507 63.8443 54.7298C65.4518 54.8683 67.2868 53.6169 69.3098 55.6349C69.8836 56.2087 69.9726 57.1239 71.7879 57.6482C73.6081 58.1725 73.9395 59.0924 74.1917 59.6612C74.4242 60.1806 75.0919 60.6899 75.2502 61.6C74.4638 61.2735 73.5092 61.0312 72.3171 61.0312H47.2942V73.6491L51.5183 75.504C51.9635 75.687 51.9981 75.944 51.9981 76.31L51.9931 89.2247L47.2547 93.8494L51.9931 98.3355L51.9981 111.324C51.9981 111.933 51.7112 112.086 51.5925 112.121L48.5209 113.827C42.6596 111.542 35.4481 100.497 23.4387 104.217C16.7316 106.294 12.8933 112.848 12.8191 116.553C15.1488 113.714 18.4776 113.605 18.4776 113.605C18.4776 113.605 7.68497 121.692 9.86625 131.371C10.9198 128.191 13.7738 126.786 13.7738 126.786C13.7738 126.786 6.81939 141.763 20.8716 147.931C16.8651 141.922 18.9524 138.083 18.9524 138.083C18.9524 138.083 19.5707 141.976 23.3348 143.257C21.02 134.443 23.221 127.192 35.176 125.545C33.9147 126.514 33.4795 128.364 33.4795 128.364C33.4795 128.364 38.0498 124.763 45.9044 126.771C49.4112 127.667 53.1308 126.692 53.1308 126.692C53.4869 129.497 55.1983 134.418 63.2111 142.006C67.0741 145.661 61.6778 150.944 57.6071 153.971C51.8843 158.229 55.1043 160.564 56.5436 162.889C57.983 165.213 62.8253 173.666 63.0627 175.136C64.3834 183.272 68.0386 181.279 67.0593 183.92C66.6389 185.058 65.8623 185.255 65.5952 186.052C65.3281 186.853 64.7939 189.514 64.2647 190.444C65.4617 192.309 70.3881 196.434 73.1827 197.369C73.9988 195.509 75.7102 189.381 73.8455 186.319C71.9857 183.257 73.4993 181.501 72.7821 179.261C72.144 177.262 69.8539 173.271 67.6924 169.551C65.4617 165.703 66.4756 159.476 67.9892 158.496C70.0023 157.191 76.9072 150.642 80.6366 146.912C80.9037 152.507 78.6384 157.433 77.842 160.227C76.4324 165.149 81.9573 164.155 84.8656 163.433C88.4368 162.542 104.542 156.834 109.255 159.693C111.931 161.316 113.727 159.738 112.54 164.62C112.945 165.555 114.207 168.671 114.207 168.671C118.025 169.309 124.821 169.536 125.766 167.113C123.748 163.556 121.468 160.633 118.203 158.932C116.902 156.835 113.875 151.379 108.82 152.126C101.114 153.268 92.9181 156.102 91.825 152.823C91.1622 150.835 93.9518 148.426 95.4555 145.671C96.9146 142.99 101.366 137.806 101.188 126.608H127.71C126.488 128.814 125.613 131.401 126.157 134.176C130.42 133.889 133.873 131.228 135.223 130.273C135.965 127.439 138.329 128.275 140.283 126.094C143.844 127.202 149.161 119.901 152.184 116.765C156.324 112.467 158.178 113.778 159.004 106.502C159.534 101.832 153.786 98.4197 151.936 95.8576C153.361 91.8759 152.337 90.6344 149.661 89.7391C146.985 88.8438 145.739 88.7596 145.818 87.6071C145.981 85.2973 145.941 82.9875 147.999 82.5918C151.6 85.7376 159.905 94.2946 161.898 95.8576C164.693 102.708 168.669 99.7057 171.785 106.408C170.93 108.639 170.45 111.384 173.571 111.799C175.376 112.042 175.089 112.685 175.703 113.08C178.042 114.574 178.527 112.091 178.685 111.483C178.725 111.329 179.531 111.329 179.635 111.389C180.179 112.333 181.599 113.303 182.86 113.417C184.136 113.53 185.768 111.013 186.03 110.325C186.594 108.876 188.039 108.757 187.816 106.254ZM189.938 106.067C190.156 108.604 189.077 109.816 188.429 110.538C188.197 110.8 188.073 110.949 188.014 111.092C187.999 111.132 185.996 115.549 182.949 115.549L182.672 115.539C181.643 115.445 180.57 115.019 179.655 114.391C178.784 115.474 177.716 115.677 177.018 115.677C176.222 115.677 175.396 115.405 174.555 114.871C174.075 114.564 173.789 114.198 173.62 113.966C172.611 113.852 170.697 113.471 169.659 111.725C168.872 110.404 168.813 108.708 169.48 106.556C168.363 104.504 167.21 103.876 165.786 103.104C164.01 102.134 161.824 100.947 160.142 97.1633C158.99 96.1691 156.962 94.1809 154.622 91.8859C154.8 92.8751 154.701 94.0126 154.32 95.3827C154.711 95.7883 155.186 96.2385 155.681 96.7035C158.183 99.0826 161.616 102.342 161.116 106.739C160.464 112.512 159.029 113.872 156.546 115.776C155.73 116.399 154.81 117.106 153.712 118.244C153.143 118.833 152.49 119.58 151.783 120.386C148.494 124.125 144.819 128.369 141.005 128.334C140.13 129.042 139.254 129.413 138.572 129.705C137.518 130.155 137.434 130.229 137.281 130.813L137.083 131.559L136.192 132.192C134.615 133.33 130.91 135.986 126.295 136.298L124.425 136.421L124.069 134.581C123.698 132.677 123.827 130.748 124.465 128.735H103.295C102.974 137.569 99.823 142.634 98.0671 145.448C97.7753 145.918 97.5181 146.329 97.3252 146.69C96.7613 147.718 96.0589 148.683 95.4407 149.529C94.8867 150.291 93.9865 151.527 93.8628 152.076C94.0359 152.14 94.4118 152.229 95.1587 152.229C96.9938 152.229 99.6993 151.686 102.568 151.112C104.502 150.721 106.5 150.32 108.509 150.023C108.924 149.964 109.344 149.93 109.755 149.93C115.092 149.93 118.302 155.029 119.717 157.334C125.751 160.51 128.115 166.945 128.115 166.945C128.115 166.945 127.057 171.223 119.385 171.223C117.605 171.223 115.591 171.06 113.855 170.768L112.683 170.57L112.233 169.467C112.233 169.467 110.987 166.386 110.591 165.466L110.309 164.813L110.477 164.12C110.655 163.369 110.734 162.889 110.769 162.592C110.744 162.587 110.719 162.577 110.7 162.572C110.052 162.384 109.161 162.122 108.152 161.514C107.856 161.33 107.089 161.029 105.318 161.029C100.397 161.029 92.5125 163.388 88.2736 164.659C87.0172 165.035 86.0082 165.337 85.3801 165.495C83.5796 165.94 82.0958 166.163 80.8493 166.163C78.7719 166.163 77.2534 165.545 76.3334 164.323C75.4283 163.126 75.2502 161.553 75.7943 159.644C75.9724 159.026 76.2147 158.304 76.4917 157.502C76.9814 156.068 77.565 154.356 77.9805 152.472C74.7358 155.578 70.9371 159.07 69.2604 160.203C68.6174 161.118 67.8457 165.579 69.5324 168.483C72.0154 172.756 74.1225 176.471 74.81 178.613C75.2156 179.899 75.1266 181.046 75.0524 181.966C74.9584 183.119 74.8941 183.949 75.6657 185.216C78.1586 189.311 75.8784 196.518 75.1315 198.219L74.35 200L72.51 199.387C69.0971 198.249 63.8393 193.723 62.4742 191.597L61.7767 190.508L62.4148 189.39C62.6374 188.995 63.0232 187.476 63.2062 186.744C63.3496 186.165 63.4782 185.666 63.5772 185.379C63.8541 184.548 64.3488 184.034 64.6802 183.697C64.7642 183.608 64.8236 183.544 64.8731 183.489C63.7255 182.55 61.8213 180.764 60.9656 175.477C60.6342 174.245 56.4794 166.826 54.7333 164.011C54.5503 163.715 54.3327 163.418 54.1101 163.116C52.7005 161.182 49.7624 157.156 56.3359 152.264C59.9763 149.559 62.306 146.774 62.4098 145.008C62.4296 144.617 62.3703 144.137 61.752 143.549C56.1084 138.212 52.7252 133.473 51.4738 129.136C50.8011 129.215 50.0097 129.274 49.154 129.274C47.8037 129.274 46.5325 129.126 45.38 128.829C43.9704 128.473 42.5805 128.29 41.25 128.29C37.1496 128.29 33.3806 130.288 30.0666 133.602C30.0666 130.6 31.2289 128.626 31.2289 128.626C28.8548 129.457 27.1236 130.674 26.0552 132.272C24.4329 134.7 24.2103 138.217 25.3924 142.718L26.3965 146.551C26.3965 146.551 23.0875 145.968 21.5245 144.8C23.1567 148.896 26.6784 152.808 26.6784 152.808C26.6784 152.808 8.56541 148.505 9.83659 136.1C9.83659 136.1 3.19382 128.873 10.6428 119.006L10.6923 116.508C10.7813 112.051 15.0449 104.587 22.8105 102.189C24.6406 101.62 26.4756 101.333 28.276 101.333C35.0474 101.333 40.1272 105.28 44.2127 108.456C45.7263 109.633 47.1755 110.756 48.4368 111.443L49.8712 110.642L49.8663 99.2505L44.1831 93.8741L49.8663 88.3293L49.8712 77.1064L45.1674 75.0391V58.9044H69.4384C68.7163 58.4197 68.2859 57.8509 67.9348 57.3315C67.8853 57.2573 67.8457 57.1832 67.7913 57.1238C67.3066 56.6391 66.9752 56.5994 66.6537 56.5994C66.3569 56.5994 66.0107 56.6539 65.6397 56.7133C65.0561 56.8023 64.3488 56.911 63.6613 56.8467C61.6531 56.6736 60.189 55.3777 59.1899 52.8898C58.997 52.4149 58.7249 52.0143 58.4084 51.5494C57.9039 50.8124 57.2806 49.8925 57.0432 48.6065C56.8157 47.6024 54.2535 43.8925 53.2148 42.5373C51.8151 42.9725 48.4714 44.3031 46.9925 45.8068C44.0149 48.8487 42.6745 50.125 40.0876 51.1835C39.6672 52.2914 38.7126 54.2549 35.7003 55.9069C35.7003 55.9712 35.7053 56.0356 35.7102 56.095C35.7795 57.1287 35.8784 58.6968 34.7754 60.057C34.0087 60.9919 33.9048 61.615 33.796 62.2134C33.6724 62.9356 33.336 64.8546 30.9866 65.1663C30.0616 65.28 29.3889 65.0228 28.8844 64.6518C28.3305 65.7845 27.4649 67.1696 25.6941 67.7631C25.4023 67.8621 25.1006 67.9114 24.8088 67.9114C22.2961 67.9114 21.9696 65.0774 21.8658 64.1425C21.846 64.009 21.8361 63.8851 21.8213 63.7911C21.6432 62.9453 21.7767 62.0157 21.94 61.0512C21.9597 60.9275 21.9795 60.8236 21.9894 60.7444C22.5137 56.3176 24.0817 54.7941 25.9266 53.3894C26.8614 52.6722 27.4303 52.2419 27.8358 50.7382C28.4244 48.552 30.0913 47.8596 31.0904 47.4491C31.8967 47.1127 32.1935 46.9693 32.4507 46.445C35.3442 40.5788 36.6747 39.2728 38.3762 37.9521C39.039 37.4377 39.6078 36.9928 40.5674 35.6128C42.442 32.9072 44.8854 31.1414 46.6661 29.8554C47.4772 29.2717 48.5852 28.4704 48.7781 28.1192C49.1787 26.754 49.8465 25.9183 50.4895 25.3692C50.1284 25.3544 49.7574 25.3147 49.3815 25.2603C49.248 25.2405 49.0946 25.211 48.9166 25.1763C48.5901 25.1071 48.2241 25.0326 47.8284 25.0326C47.3289 25.0326 46.8837 25.1515 46.4286 25.3988L42.4123 27.6196L43.3175 23.1186C43.3471 22.9653 43.3867 22.8168 43.4312 22.6733C43.2037 22.7525 42.9712 22.8515 42.7239 22.9653L39.2121 24.6372L39.7018 20.779C40.2558 16.4065 44.6282 14.8534 48.2093 14.8534C48.8424 14.8534 50.0394 14.9079 50.9495 15.264C51.3996 15.4421 51.82 15.5805 52.2009 15.6794C51.6667 14.6654 51.7656 13.3795 52.4828 12.044C53.0318 11.0251 55.1933 7.82999 61.0051 6.94957C61.0744 6.62807 61.1486 6.26193 61.203 5.97505C61.6086 3.94711 61.9499 2.20097 63.404 1.45905C65.3281 0.479691 67.0791 0 68.7558 0C70.4029 0 71.6494 0.455124 72.6534 0.821136C73.2025 1.019 73.6773 1.19208 74.0433 1.22176C78.0053 1.53831 78.584 3.95204 78.6483 4.97096C78.6928 5.65848 78.6285 6.68738 78.5444 7.58264C80.5872 8.38393 83.6143 9.93704 85.3207 12.3607C86.5919 14.171 86.9876 16.2284 86.4633 18.3207C85.9439 20.3832 84.5343 20.8089 83.4461 20.8089C82.6349 20.8089 81.5962 20.5861 79.87 20.0421C79.6573 19.9778 79.4347 19.8987 79.1973 19.8195C78.9797 19.7454 78.6928 19.6462 78.4158 19.5572C78.2526 20.1854 77.9508 20.8086 77.2485 21.2587C77.4068 22.6436 76.9319 23.5786 76.5016 24.1227C76.1999 24.4986 75.7251 24.934 74.998 25.2406C75.6113 25.9875 76.1455 27.0409 76.4521 28.6979C76.8281 29.1678 78.0646 30.1027 78.7175 30.3946C79.3457 30.6814 84.9695 33.2633 88.2488 36.5426C88.3676 36.6564 88.4269 36.6911 88.4319 36.6911C88.4368 36.6911 88.6841 36.6911 88.8671 36.6812C89.0551 36.6713 89.2381 36.6612 89.4261 36.6612C90.5538 36.6612 91.4886 37.0372 92.285 37.8039C92.9181 38.4123 94.9411 39.5846 96.42 40.4403C98.349 41.5582 99.4718 42.216 100.07 42.8096C100.535 43.2646 101.322 43.6108 101.742 43.6751C101.851 43.6405 101.98 43.5908 102.128 43.5414C103.29 43.121 105.556 42.3049 109.013 42.4929C110.541 42.577 111.461 43.0766 112.01 43.3684C112.07 43.403 112.124 43.4375 112.179 43.4623C113.969 43.5117 114.855 44.4021 115.235 44.9413C115.621 45.4804 115.829 46.1185 115.844 46.7665C116.091 46.7764 116.383 46.7615 116.704 46.7318C117.115 46.6972 117.53 46.6774 117.956 46.6774C121.463 46.6774 125.009 47.8347 126.008 48.1908C126.28 48.2848 127.423 48.4728 128.828 48.4728C129.278 48.4728 129.698 48.4531 130.069 48.4185C132.226 43.9223 136.707 39.367 141.772 38.6646L142.321 38.5855L141.673 37.2104C141.673 37.2104 145.57 35.4099 148.098 37.6258C151.501 34.2228 159.855 33.7679 159.855 33.7679L156.15 37.2599C165.063 35.227 169.49 40.8705 169.49 40.8705C169.49 40.8705 162.531 42.4928 160.592 44.0954L161.072 44.5258C162.511 45.8218 163.115 47.4044 163.219 49.284C164.069 49.0367 164.974 48.9129 165.919 48.9129C170.534 48.9129 174.803 51.9105 174.981 52.0391L179.986 55.6005L173.848 55.8972C172.977 55.9368 172.186 56.0701 171.474 56.2927C172.75 57.7321 174.476 60.5121 175.426 65.5325C177.261 63.6974 180.164 63.0889 180.164 63.0889C180.164 63.0889 177.884 67.7879 179.462 72.2939C179.788 73.2288 180.397 74.2326 180.629 75.6027C181.45 75.8945 182.43 76.4089 183.547 77.2894C183.978 77.6356 184.606 77.8089 185.412 77.8089C188.983 77.8089 192.891 75.4149 192.891 75.4149C192.891 75.4149 190.715 83.7887 184.992 85.9304C185.002 86.1975 185.457 89.4175 184.834 91.856C184.834 91.856 185.477 94.7645 185.862 96.7578C186.946 97.7273 187.717 99.3199 187.47 101.011C187.529 101.165 187.801 101.496 187.984 101.719C188.687 102.579 189.745 103.876 189.938 106.067ZM156.967 83.0667C155.448 82.4237 153.603 81.6768 150.536 81.5334C151.427 82.3891 160.503 91.2179 161.24 91.5345C160.137 86.9691 162.551 85.4409 156.967 83.0667ZM137.028 113.728C137.028 113.728 135.975 115.816 134.343 117.354V121.973C134.857 121.949 135.243 121.983 135.5 122.008C135.5 122.008 137.083 118.852 140.585 118.491C141.861 117.067 148.38 114.425 150.146 112.081C151.15 110.755 151.036 108.693 150.17 106.665C149.567 105.25 147.549 104.711 145.6 104.202C139.106 110.31 140.738 112.571 137.028 113.728ZM63.4535 65.1515C62.7957 64.647 62.0587 64.281 61.2722 64.1969L50.4499 64.1869L53.0269 66.759H61.0101C62.0092 66.8629 63.4535 68.9106 63.4535 68.9106V65.1515ZM89.7377 54.443C91.2858 53.5033 95.406 51.3565 99.5015 51.5246C99.091 50.6492 97.3449 49.6747 96.5733 49.8775C95.6434 49.6747 95.035 48.6607 94.5652 48.5914C91.0039 48.0671 90.5686 46.905 88.4022 46.5588C87.0766 46.3461 85.202 45.8167 85.202 45.8167C87.225 50.2782 83.1889 49.8975 89.7377 54.443ZM62.8699 120.881V123.452C63.4832 123.452 64.1905 123.339 65.4221 122.32V118.719C65.4221 118.719 63.4585 120.881 62.8699 120.881ZM90.8209 113.392L105.956 92.0341L108.528 83.957L90.8209 108.94V113.392ZM75.6855 111.324V92.0341L73.1085 83.957V111.324C73.1085 116.459 77.8124 117.665 77.8124 117.665V120.881L80.3844 123.452V115.731C79.4941 115.445 75.6855 114.935 75.6855 111.324ZM90.8209 91.7473L73.4251 67.204C73.0986 66.8182 72.8068 66.764 72.2726 66.759H65.8969V64.1869H72.2726C74.2362 64.2018 75.0177 65.0674 75.5272 65.7154L90.8209 87.3007V91.7473Z" fill="white"/>
</g>
<defs>
<clipPath id="clip0_154_2437">
<rect width="200" height="200" fill="white"/>
</clipPath>
</defs>
</svg>
