<svg width="200" height="200" viewBox="0 0 200 200" fill="none" xmlns="http://www.w3.org/2000/svg">
<g clip-path="url(#clip0_154_2440)">
<path d="M105.6 51.3274V80.4056L82.6625 51.3354H42.4365V82.6616H49.4532V92.1839L40.6229 92.1871C35.6917 81.3016 27.9606 82.2776 27.9606 82.2776V92.1831H9.96312C9.04793 91.5335 7.93114 91.0999 6.65595 91.0999C2.07118 91.0999 0 95.9631 0 99.5166C0 103.07 2.20478 107.931 6.79114 107.931C9.56792 113.155 14.3807 116.984 20.2742 116.984C23.1182 116.984 25.7198 116.085 27.959 114.571V116.783C27.959 116.783 35.7005 117.76 40.6245 106.85L49.446 106.845V117.647H42.4029V148.677H89.9281V118.408L113.726 148.677H153.838V117.647H146.393L146.413 106.751C193.546 106.219 197.845 92.1575 200 89.0023C191.391 90.8679 175.403 91.7487 169.651 91.9263C161.464 92.1815 153.059 92.1831 146.431 92.1815C146.435 88.3991 146.434 85.016 146.434 82.6336C149.708 82.568 153.838 82.4808 153.838 82.4808L153.823 51.3242H105.585L105.6 51.3274Z" fill="#B0B7BB"/>
<path d="M108.463 54.1992V79.799H115.89L115.908 95.0517H113.494L81.2658 54.2048H45.2989V79.7918H52.3157V95.0533H38.6278C37.0214 89.7189 32.9142 85.8886 30.8422 85.8886V95.0533H8.91601C8.28802 94.3741 7.51202 93.9749 6.67203 93.9749C4.57925 93.9749 2.88086 96.4573 2.88086 99.5213C2.88086 102.583 4.57925 105.068 6.67203 105.068C7.28562 105.068 7.86242 104.854 8.37442 104.476C10.572 110.196 15.0832 114.12 20.2903 114.12C24.5839 114.12 28.4023 111.452 30.8438 107.308V113.151C32.9158 113.151 37.0246 109.32 38.643 103.986L52.3309 103.98V120.518H45.2877V145.807H87.0722V120.518H80.5002L80.5618 103.962H82.2322L115.134 145.808H150.98V120.519H143.532C143.537 118.391 143.552 111.496 143.561 103.925H144.499C162.02 103.611 182.079 101.876 193.387 92.7101C181.751 95.1533 158.299 95.0541 144.499 95.0541H143.573C143.58 88.0918 143.583 81.9166 143.576 79.8222C146.437 79.7694 150.98 79.6758 150.98 79.6758V54.2016H108.477L108.463 54.1992Z" fill="black"/>
<path d="M112.023 57.7539V76.2466H119.45L119.48 108.375L115.976 103.934L113.26 103.937L121.619 114.534L121.581 74.1146H114.157V59.8907H145.283V74.1034C145.283 74.1034 138.075 74.2546 137.824 74.1234C137.968 75.0178 137.821 126.21 137.821 126.21H145.283V140.121H117.889L89.4571 103.962H86.7443L116.851 142.255H147.414V124.078H139.958C139.97 119.906 140.03 80.8793 139.987 76.313L147.414 76.193V57.7555H112.022L112.023 57.7539ZM48.8598 57.7627V76.2378H55.8798V124.077H48.8334V142.256H83.5076V124.077H77.0652L77.0412 91.6192L79.7428 95.056H82.4556L74.9324 85.4841L75.026 126.208H81.3748V140.121H50.9686V126.208H58.0118V74.1018H50.9918V59.8947H78.5124L106.251 95.0544H108.971L79.5468 57.7611H48.8598V57.7627ZM32.9952 89.6857V93.8664C34.6335 94.296 36.0287 95.4576 36.9063 97.0304C36.2711 93.7416 34.4879 91.1928 32.9952 89.6857ZM182.01 96.4272C178.176 96.7232 174.022 96.9232 169.81 97.0544C160.744 97.3352 151.407 97.312 144.49 97.312H143.558L143.555 99.568H150.982C167.126 99.568 178.844 97.6048 182.01 96.4272ZM6.80336 96.9344C6.00657 96.9344 5.35938 97.6064 5.35938 98.4376C5.35938 99.268 6.00657 99.9432 6.80336 99.9432C7.16896 99.9432 7.50336 99.8024 7.75856 99.568V98.672L9.20014 99.4128L10.6417 98.672L12.0857 99.4128L13.5273 98.672L14.9689 99.4128L16.4137 98.672L17.8545 99.4128L19.2961 98.672L20.7377 99.4128L22.1792 98.672L23.6208 99.4128L25.0656 98.672L26.5064 99.4128L27.9512 98.672L29.3928 99.4128L30.8344 98.672V97.312H7.75856C7.50256 97.0776 7.16816 96.9344 6.80256 96.9344H6.80336ZM39.1431 97.312C39.2519 98.032 39.3103 98.7696 39.3103 99.5216V99.568H52.3214V97.312H39.1431ZM80.5588 97.312V99.568H115.896V97.312H80.5588Z" fill="white"/>
<path d="M10.5586 103.988C12.9906 107.391 16.4441 109.514 20.2769 109.514C24.1081 109.514 27.5633 107.391 29.9952 103.988H10.5586Z" fill="#B0B7BB"/>
<path d="M114.153 59.8883V74.1122H121.577L121.615 114.532L113.254 103.934L89.4554 103.958L117.886 140.12H145.281V126.206H137.818C137.818 126.206 137.965 75.0178 137.821 74.1226C138.073 74.2522 145.281 74.0994 145.281 74.0994V59.8867H114.154L114.153 59.8883ZM50.9893 59.8939V74.101H58.0092V126.207H50.9629V140.12H81.3707V126.207H75.0187L74.9283 85.4833L82.4514 95.052H106.248L78.5091 59.8931H50.9885L50.9893 59.8939Z" fill="#C41230"/>
</g>
<defs>
<clipPath id="clip0_154_2440">
<rect width="200" height="200" fill="white"/>
</clipPath>
</defs>
</svg>
