<svg width="200" height="200" viewBox="0 0 200 200" fill="none" xmlns="http://www.w3.org/2000/svg">
<g clip-path="url(#clip0_154_2438)">
<path d="M197.837 165.304C197.837 165.304 186.838 160.462 186.421 160.294C186.092 160.045 181.491 157.095 180.513 156.438C180.184 155.86 179.775 155.203 179.366 154.465C179.447 153.728 179.447 153.151 179.527 152.165C181.002 151.179 184.208 149.207 184.208 149.207C184.208 149.207 188.313 143.787 188.89 142.881C189.628 142.472 192.418 140.909 192.418 140.909L193.155 137.294C193.155 137.294 192.249 136.059 192.249 135.979C192.498 135.402 193.315 133.269 193.315 133.269L191.015 129.742L188.145 129.662C188.145 129.662 185.684 131.057 185.355 131.225C184.946 131.385 178.621 133.774 178.621 133.774C178.621 133.774 176.4 137.799 175.911 138.705C175.663 138.865 175.502 138.953 175.174 139.282C174.596 139.122 174.268 138.953 174.027 138.873C173.699 138.713 173.29 138.384 172.632 137.967C172.552 137.719 172.552 137.638 172.384 137.23L174.516 135.666L175.831 133.117L175.013 130.488L178.629 131.225C178.549 130.648 177.154 121.204 177.154 121.204C177.154 121.204 172.312 116.442 170.917 115.128V107.488C171.165 106.75 172.889 101.163 172.889 101.163L170.508 97.9639H109.75V85.4098H113.854V76.2948C118.127 74.3228 122.232 72.4388 125.839 70.7152C135.531 66.2019 142.097 63.1635 142.097 63.1635V51.4993C142.017 51.4993 135.491 54.6017 125.767 59.0911C126.015 58.121 126.248 57.3194 126.416 56.7502C126.665 56.4215 126.825 56.0928 127.154 55.684C128.06 55.195 131.836 53.2229 131.836 53.2229L131.996 48.0521C131.996 48.0521 130.104 46.2484 129.615 45.8315C129.286 45.2543 128.22 43.202 127.723 42.3843C127.723 41.1497 127.474 35.0731 127.474 35.0731C127.474 35.0731 124.356 28.9965 123.779 27.7619C123.699 27.1045 124.027 23 124.027 23H28.8614V63.5644L30.3364 66.6829C30.3364 66.6829 34.2806 70.13 35.0182 70.7874C35.427 71.5249 36.6616 73.986 37.3991 75.5493C36.9101 76.6957 35.6755 79.4935 35.6755 79.4935L36.7418 81.7943C36.7418 81.7943 38.305 83.0289 38.9624 83.5179C39.3712 84.5039 40.4374 87.1334 40.4374 87.1334C40.4374 87.1334 40.9265 87.7908 41.175 88.1194C41.0948 88.6966 40.9265 90.6687 40.9265 90.6687C40.9265 90.6687 42.161 91.9033 42.3214 92.1438C42.5699 92.6328 43.8846 94.8534 44.2935 95.5108C44.3736 95.8315 44.4538 96.3926 44.534 97.026C44.5099 97.042 44.4859 97.05 44.4618 97.066C43.1471 97.7234 42.2412 98.1323 41.8323 98.3006C40.4374 95.591 36.9021 88.6085 36.9021 88.6085L34.3528 89.7548L12.4272 99.7757L11.1926 100.353L3.47256 103.968L0.0253906 105.532C0.0253906 105.532 21.2054 109.147 22.7687 109.476C22.6084 109.724 19.2414 114.486 19.2414 114.486L22.3598 114.735C22.6084 114.326 22.7687 113.997 22.8489 113.829C22.8489 113.749 22.929 113.42 22.929 113.011H22.6003L22.929 112.522V107.512C22.44 106.606 21.943 105.708 21.6945 105.211C22.1033 105.051 22.5122 104.802 22.929 104.634V104.554H23.1775C24.4923 103.896 25.9674 103.159 28.3483 102.004C27.9395 102.582 26.7851 104.225 25.5585 105.86C25.6387 105.941 25.6387 105.941 25.7188 106.021C25.799 106.101 25.8792 106.181 25.9674 106.181C26.2159 106.181 26.4564 106.999 26.5446 107.576L29.3344 103.72C29.3344 103.72 30.4807 105.195 30.7293 105.524C31.7955 105.035 35.3308 103.391 36.6375 102.734C35.9802 101.499 34.5051 98.5491 33.8477 97.3146C32.2845 98.0521 20.8768 103.72 19.1532 104.538C19.4017 105.027 20.7966 107.496 20.7966 107.496L6.01385 104.946L36.2527 90.9173C36.2527 90.9173 40.4374 99.1263 41.183 100.609C41.5117 100.449 45.7846 98.477 52.2701 95.4387V96.5851L40.6138 101.844L35.6755 92.1438L9.48507 104.297L18.7604 105.86L17.6941 103.888L34.2806 95.7593L37.9763 103.071L31.8997 105.941H31.9799C33.0461 105.78 34.2806 106.349 35.3469 107.175L35.427 107.255C36.0042 107.744 36.5734 108.241 37.1506 108.818L40.0206 107.504L43.2192 115.055L26.304 122.527L25.4944 120.395L20.7325 128.523L46.8428 116.29L42.5699 106.269L52.0937 101.836V102.982C47.2516 105.203 44.2133 106.598 43.9648 106.758C44.6222 108.321 48.2377 116.779 48.2377 116.779L18.103 130.816L23.8509 121.044L20.981 122.359L13.6698 134.841L38.9624 123.096L39.0185 123.072C39.0345 123.481 39.1227 124.026 39.1227 124.331C38.9624 124.82 38.4653 125.894 38.4653 125.894L38.3852 129.341C38.3852 129.341 39.6197 131.393 40.2771 132.46C39.6197 134.263 38.0565 138.785 37.7278 139.683C37.0704 140.34 35.1785 142.312 35.1785 142.312C35.1785 142.312 34.5211 144.036 34.2726 144.613C34.1123 144.773 32.7976 146.337 32.7976 146.337L34.1925 149.952L35.916 152.084C35.916 152.084 57.6733 149.455 59.1564 149.215C60.4711 149.792 68.4317 153.071 68.4317 153.071L85.7557 156.927L96.3457 156.269L99.384 154.546C98.0693 153.071 96.1854 150.93 96.0972 150.85C98.0693 149.126 99.8731 147.483 100.699 146.745H101.276C101.436 147.154 101.765 148.14 101.765 148.14L102.831 149.704L107.184 150.609C107.184 150.609 108.331 150.12 108.579 150.032H108.659C108.579 150.193 108.579 150.361 108.499 150.521L109.317 152.325L110.383 153.063C110.383 153.063 110.872 153.311 111.04 153.391C111.529 154.209 112.604 156.101 112.604 156.101L117.534 158.562C117.534 158.562 120.572 159.139 121.967 159.468C123.113 161.031 129.439 169.401 129.439 169.401C129.439 169.401 133.792 170.387 135.018 170.635C135.427 171.044 136.822 172.278 136.822 172.278L143.307 171.95C143.307 171.95 146.755 168.334 147.821 167.188H147.981C148.141 167.348 149.785 169.16 149.785 169.16C149.785 169.16 152.655 167.925 153.481 167.597C153.729 167.677 153.729 167.677 153.97 167.757C154.627 168.903 156.431 171.862 156.431 171.862L159.798 172.27L166.203 168.246L165.794 165.128C165.465 164.879 165.217 164.639 165.137 164.55C165.626 162.747 166.203 160.694 166.532 159.291C166.941 159.043 167.021 159.043 167.598 158.714C167.927 159.043 168.087 159.123 168.335 159.291C168.664 160.029 169.811 162.41 169.811 162.41C169.811 162.41 181.226 167.581 183.768 168.735C184.016 170.539 184.754 177.193 184.754 177.193C184.754 177.193 195.344 173.088 195.592 172.92C195.841 172.84 198.302 172.182 198.302 172.182L200.025 168.238L197.837 165.304ZM140.197 54.3773V62.0172C140.197 62.0172 128.781 67.3563 113.758 74.3308V73.1844L139.131 61.3598V56.0207L113.678 67.8453H111.128C127.474 60.2855 140.197 54.3773 140.197 54.3773ZM32.9659 99.5352C33.4549 100.521 33.5431 100.77 34.1123 101.756C32.7976 102.413 32.3085 102.574 31.1541 103.151C30.7453 102.662 30.1681 101.836 29.6791 101.179C31.1622 100.353 32.1482 99.944 32.9659 99.5352ZM167.462 130.247C167.462 130.247 165.081 131.81 164.912 131.89C164.752 131.971 162.363 133.366 161.465 133.863C160.319 133.943 156.294 134.023 155.557 134.111C155.148 134.031 154.322 133.782 153.424 133.622C152.847 132.885 152.438 132.388 151.861 131.57C151.941 130.912 151.941 130.752 152.022 130.095C153.336 128.948 156.783 125.91 157.192 125.493C157.441 125.333 157.93 125.084 158.587 124.756C159.245 125.004 159.653 125.084 159.902 125.164C160.311 125.325 167.373 128.94 167.373 128.94C167.373 128.94 170.74 129.678 173.37 130.255L171.727 130.584L167.462 130.247ZM32.1482 115.464C32.068 114.975 31.8997 114.318 31.6592 113.661L30.0959 113.5C30.2563 113.829 30.3445 114.406 30.3445 114.895V115.304L32.1482 115.464ZM26.8893 121.044C28.6129 120.306 40.2691 115.136 41.8323 114.478C41.3433 113.244 40.0286 110.205 39.4514 108.899C39.0425 109.059 38.4653 109.308 37.8881 109.636C38.5455 110.374 39.1227 111.199 39.6117 111.857C40.1889 112.763 40.5978 113.332 40.5978 113.332L26.4724 119.898C26.6408 120.395 26.8091 120.884 26.8893 121.044ZM30.2563 106.598L29.1901 105.283L27.1378 108.153C27.8753 108.562 29.0297 109.548 29.0297 109.548C29.0297 109.548 28.8694 111.272 28.9496 112.338L31.3305 112.498C31.082 111.512 30.8415 110.526 30.6731 109.628C30.6731 109.548 30.6731 109.468 30.593 109.299C30.3445 107.905 30.4326 106.75 31.082 106.101L30.2563 106.598Z" fill="#492F92"/>
<path d="M128.789 49.3653L128.709 51.3374L124.933 53.3095L123.458 55.5302L122.071 60.8292C122.039 60.8452 122.015 60.8532 121.983 60.8693C119.113 62.184 115.986 63.6591 112.787 65.1422C110.896 66.048 108.931 66.9459 106.959 67.8518H87.4147V85.4243H91.2707V101.337C82.9734 89.0238 68.6797 67.8438 68.6797 67.8438H48.0768V85.745H52.1814V93.3849C51.9329 93.5452 51.6042 93.6334 51.3637 93.7937C49.9207 94.4351 48.63 95.0844 47.4115 95.6456L47.171 94.4431L45.6077 91.8136L44.7018 90.2504L44.0445 89.593L44.3731 87.0437L43.0584 85.4003L41.415 81.4561L39.1222 79.6604L38.9619 79.4118L40.7656 75.4676L37.567 68.8138L32.8852 64.7093L31.9794 62.8173V26.125H120.66L120.499 28.4258L124.355 35.8973L124.604 43.2085L127.065 47.7219L128.789 49.3653ZM196.53 168.501L196.041 169.567L194.566 169.976L187.342 172.846L186.605 166.689L172.071 160.124L170.756 157.414L167.798 155.033L163.773 157.254L161.553 165.711L162.787 166.778L159.092 169.159L158.274 169.078L155.973 165.134L153.183 164.397L150.474 165.543L149.079 164.068L146.289 164.397L141.856 169.078L137.912 169.327L136.437 168.012L131.186 166.866L123.714 156.845L118.543 155.859L114.848 153.967L113.204 151.177L111.809 150.6L111.729 150.52L112.467 148.219L108.442 146.904L106.879 147.562L104.578 147.073L104.418 146.912C104.338 146.584 103.352 143.714 103.352 143.714L99.3274 143.962L91.6074 150.776L93.9883 153.486L85.8594 153.975L69.1928 150.279L59.4204 146.175L37.086 148.884L36.7573 148.475L36.1801 147L36.8375 146.183L37.7433 143.962L40.3728 141.333L43.6597 132.057L41.5272 128.442L41.6074 126.47L42.2648 124.746L42.1044 122.117L42.2648 121.539L46.5376 119.567L47.3553 121.539V139.689H75.3576V136.571C77.49 137.388 78.8849 137.308 81.2659 137.805C84.224 138.134 85.3704 137.966 86.5248 137.966C87.6792 137.966 88.6572 136.322 90.0521 136.899C91.1184 137.388 92.2728 138.872 92.6816 139.449C92.7618 139.609 92.8419 139.697 92.8419 139.697H114.599V120.241H113.533C114.19 119.423 115.585 117.283 115.914 112.112C116.323 105.626 115.505 102.588 115.337 100.945H168.872L169.361 101.602L167.718 106.861V116.305L174.123 122.63L174.78 127.231L168.455 125.836L161.144 122.141L158.354 121.235L155.484 122.878L149.159 128.458L148.75 132.402L151.708 136.258L155.324 137.164L162.387 136.915L166.571 134.534L168.295 133.388L171.991 133.637L168.624 136.098L169.938 139.954L172.648 141.677L175.606 142.663L178.236 140.771L180.785 136.258L186.693 134.037L188.994 132.803H189.403L189.892 133.54L188.745 136.25L189.812 137.893L189.651 138.88L186.781 140.523L182.019 146.928L176.52 150.375L176.111 155.137L178.163 158.665L184.978 163.018L195.816 167.78L196.53 168.501ZM29.0212 112.673C29.0212 112.593 29.0212 112.513 28.941 112.424L31.322 112.585C31.4022 112.914 31.5705 113.322 31.6507 113.651L30.0874 113.491C29.9271 113.162 29.6786 112.914 29.3499 113.082C29.1896 113.162 29.1094 113.002 29.0212 112.673ZM22.7842 112.424V112.914H22.4556L22.7842 112.424ZM19.0885 104.376C19.3371 104.865 20.732 107.334 20.732 107.334L5.94922 104.785L36.1641 90.7474C36.1641 90.7474 40.3488 98.9565 41.0943 100.44C41.423 100.279 45.6959 98.3071 52.1814 95.2688V96.4152L40.6053 101.834L35.675 92.1423L9.48457 104.296L18.848 105.771L17.7818 103.799L34.3683 95.6697L38.064 102.981L31.9874 105.851H31.9072C31.6587 105.931 31.4182 106.011 31.2498 106.18L30.4321 106.588L29.3659 105.274L27.3137 108.144C26.985 107.983 26.8246 107.895 26.7365 107.983C26.6563 108.144 26.5761 107.823 26.4879 107.406L29.2777 103.55C29.2777 103.55 30.4241 105.025 30.6726 105.354C31.7389 104.865 35.2742 103.221 36.5809 102.564C35.9236 101.329 34.3603 98.3793 33.7911 97.1447C32.2279 97.9704 20.732 103.558 19.0885 104.376ZM43.9723 106.757C44.6297 108.32 48.2452 116.778 48.157 116.778L17.9422 130.815L23.6901 121.042L26.3196 119.808C26.5681 120.297 26.7284 120.794 26.8086 120.954C28.452 120.217 40.1884 115.126 41.7517 114.389C41.1745 113.154 39.9479 110.116 39.3707 108.809C38.9619 108.969 38.4649 109.218 37.8075 109.547C37.559 109.298 37.3185 108.969 37.0699 108.729L39.9399 107.414L43.1386 114.966L26.2234 122.437L25.4057 120.305L20.6438 128.434L46.8343 116.281L42.5614 106.26L52.0852 101.826V102.973C47.3393 105.201 44.301 106.596 43.9723 106.757ZM139.13 61.2701V55.931L113.677 67.7556H111.128C127.466 60.2039 140.196 54.2876 140.196 54.2876V62.0076C140.196 62.0076 128.781 67.3467 113.757 74.3212V73.1749L139.13 61.2701ZM107.929 83.6847V122.854H112.034V137.308H94.0525C94.0525 137.308 75.4137 109.635 68.9282 100.031V123.183H72.7922V137.388H49.8004V123.183H53.905V84.0134H49.8004V69.5674H67.862C67.862 69.5674 86.5008 97.2409 92.9862 106.845V83.6847H89.1302V69.4792H112.122V83.6847H107.929ZM105.548 125.395V81.2236H109.653V72.0285H91.5913V81.2236H95.4474V114.974L66.4671 72.0285H52.2615V81.5523H56.3661V125.644H52.2615V134.839H70.3231V125.644H66.4671V91.8938L95.3672 134.919H109.573V125.395H105.548Z" fill="white"/>
<path d="M47.4197 95.5113C48.5661 94.9341 49.969 94.3649 51.4441 93.6194C51.6926 93.5392 51.9331 93.3709 52.2618 93.2105V85.5706H48.1573V67.8458H68.7682C68.7682 67.8458 83.0539 89.0258 91.3511 101.347V85.4103H87.4951V67.8458H107.04C109.012 66.9399 110.984 66.042 112.868 65.1361C112.788 65.056 112.708 64.9758 112.708 64.9758C112.13 63.9897 110.984 60.4624 109.669 59.8852C107.208 58.9793 107.04 54.3056 105.974 54.4659C104.907 54.5461 104.907 55.2035 104.739 58.4101C104.739 62.9235 105.645 61.6088 105.645 63.5007C105.645 65.3927 105.156 65.7213 105.156 65.7213C104.995 60.9594 102.118 58.5785 102.037 57.1836C103.601 56.1975 103.184 53.4879 102.446 53.6563C101.628 53.8166 98.9189 56.2056 99.1594 59.7329C99.3197 63.2602 98.8307 66.2184 97.5961 66.3867C98.005 65.2403 96.2012 63.0999 95.2152 61.0476C94.2291 59.0755 90.2047 58.338 90.3731 56.4461C90.5334 54.7225 89.9642 53.2474 89.0583 53.1592C89.2187 52.9989 89.3069 52.8305 89.5474 52.7504C90.2849 52.3415 90.3651 49.7121 90.5334 47.0826C90.7018 44.4531 88.5613 43.2266 88.5613 43.2266C88.5613 43.2266 88.89 45.1987 88.0723 45.0303C87.2546 44.87 88.7297 47.0024 88.0723 47.0024C87.4149 47.0024 87.0863 49.1349 87.2546 50.6981C87.4149 52.3415 86.9259 53.5681 87.7436 54.0651H87.8238C87.7436 54.5541 87.7436 55.2997 87.6635 56.5262C87.5031 59.8131 88.8098 61.7852 89.2267 63.7492C89.5554 65.3125 89.1465 66.7876 88.6495 67.2766H86.8457V77.5379L83.9758 78.8527L82.661 78.3636C81.2661 75.0768 79.6227 68.5913 78.308 66.7074C76.9933 64.8155 76.9933 61.1278 76.1756 61.208C74.452 61.5366 71.8225 69.0884 70.8364 69.5854C69.8504 68.1905 69.3614 67.3648 69.3614 67.3648H68.2952L68.3753 67.1163C69.5217 64.5669 67.2289 60.0536 67.2289 60.0536C67.2289 60.0536 66.4112 58.9072 65.2568 60.2139C65.9944 62.186 62.1384 66.4509 62.1384 66.4509C62.1384 66.4509 61.2325 67.5171 59.7574 66.042C60.4949 61.3603 54.9153 56.3499 53.9293 57.8329C55.0757 62.5147 53.3521 64.6471 52.5344 65.9619C52.0454 66.6994 51.6285 67.0281 51.388 67.1964H47.6121V86.6529H49.4159L49.4961 87.4706C49.4961 87.4706 48.51 89.8515 45.8805 91.8236L47.4438 94.4531L47.4197 95.5113ZM24.5081 86.4765C25.3258 86.1478 25.4941 83.6867 25.9832 82.2918C26.4722 80.8167 23.4339 78.2674 23.4339 78.2674C22.7765 78.7565 21.3014 82.2918 21.7904 84.5926C22.2955 86.8052 23.6904 86.8052 24.5081 86.4765ZM10.9599 88.3685C9.64518 88.5288 8.49879 94.8539 8.49879 95.84C8.49879 96.826 9.97386 98.71 11.2084 98.5496C12.5232 98.3893 11.6974 95.0223 12.6835 93.2105C13.6695 91.4869 10.9599 88.3685 10.9599 88.3685ZM34.2002 88.6971C34.2002 88.6971 33.2142 86.0677 32.3965 85.4985C31.5788 84.8411 28.7008 81.6425 28.2118 80.8167C27.7228 79.9991 25.5823 89.1942 24.6845 89.1942C23.6984 89.1942 25.0131 93.8759 24.1954 94.0362C23.3777 94.1966 23.3777 93.3789 22.8807 93.0502C22.3917 92.7215 22.8807 88.6971 22.8807 88.2081C22.8807 87.7191 21.566 84.3521 20.5799 84.3521C19.5939 84.3521 18.6078 90.6773 17.8703 90.8376C17.0526 90.9979 18.0306 92.8097 17.5416 93.2987C17.0526 93.7877 16.5555 92.3127 14.9121 92.8097C13.2687 93.2987 11.8738 97.6518 12.3628 99.6239V99.8724L34.2884 89.6912L34.2002 88.6971ZM10.7996 100.353C10.1422 100.514 8.17011 94.8539 6.28619 95.343C4.31409 95.832 6.12586 97.6437 4.97145 98.2129C3.82507 98.8703 4.15375 100.674 3.65672 100.762C3.1677 100.923 4.47442 103.063 3.65672 103.472C3.57655 103.552 3.49639 103.72 3.4082 103.801L11.1283 100.185C11.0401 100.353 10.8797 100.353 10.7996 100.353ZM59.3245 60.9434C60.3106 62.7472 60.3106 63.8134 61.2966 63.653C62.2827 63.4927 62.1143 63.3244 62.6113 61.8493C63.1004 60.3742 62.6113 57.9933 62.6113 56.0212C62.6113 54.0491 60.1502 51.9968 60.1502 51.9968C60.1502 51.9968 58.8355 53.8006 59.4929 55.1955C60.1422 56.6785 58.3385 59.1397 59.3245 60.9434ZM69.3373 62.0096C69.5859 62.0898 69.9145 62.2581 69.8264 62.4986C69.666 63.156 70.155 64.6311 70.8124 64.3024C71.4698 63.9737 72.2875 62.17 72.7845 58.4743C73.2815 54.7786 70.4035 52.566 70.4035 52.566C70.4035 52.566 70.5639 56.0132 70.0749 55.3558C69.5858 54.6984 70.4035 57.5764 70.4035 57.5764C70.4035 57.5764 70.0749 57.6566 69.4175 57.6566C68.7601 57.6566 69.5057 61.1118 69.3373 62.0096ZM81.1619 67.3487C80.6729 68.1664 81.4906 69.3208 82.4767 69.3208C83.4627 69.3208 82.4767 67.8458 83.134 67.0201C83.7914 66.2024 83.4627 65.2163 83.623 62.9957C83.7834 60.6949 80.9134 57.9853 80.9134 57.9853L80.4244 63.156H79.9354C79.4464 63.156 80.4244 65.6171 80.4244 65.6171C80.4244 65.6171 81.5788 66.6112 81.1619 67.3487ZM84.5289 61.4404C85.0179 61.4404 86.004 59.797 85.1863 58.9793C84.3686 58.1616 86.3327 55.941 85.1863 55.452C84.0399 54.963 84.8576 53.6482 84.5289 52.8225C84.2002 51.9968 83.5429 47.9805 83.5429 47.9805C83.5429 47.9805 81.4104 52.1652 81.4104 55.1233C81.4104 57.9853 84.0399 61.4404 84.5289 61.4404ZM91.6718 55.444C91.1828 56.2617 92.4895 57.5764 93.4755 57.4161C94.4616 57.2557 94.1329 55.1153 94.4616 54.5461C94.7903 53.8887 94.7903 50.0327 94.6219 48.718C94.4616 47.4032 93.1469 45.9282 93.1469 45.9282C92.1608 46.2569 91.6718 50.4416 91.5034 51.7563C91.3431 52.9829 92.0887 54.6263 91.6718 55.444ZM97.4197 61.1118C98.4058 60.7831 98.5661 57.4161 98.7345 55.6123C98.9028 53.8086 97.7484 50.9306 97.7484 50.9306C96.105 50.9306 96.4337 55.1153 95.9447 55.2836C95.4557 55.444 96.602 58.4823 95.9447 59.6367C95.3675 60.7831 96.5219 61.3523 97.4197 61.1118ZM125.751 70.7157C122.135 72.3592 118.111 74.2431 113.766 76.2953V85.4103H109.661V121.213H113.766V139.114H93.1549C93.1549 139.114 78.8692 117.934 70.5719 105.612V121.541H74.4279V139.114H48.0771V121.541H52.1816V104.955C51.9331 105.115 51.6044 105.203 51.3639 105.364C50.0492 106.021 46.3535 107.745 46.3535 107.745C47.7484 111.032 50.4581 117.766 50.4581 117.766L46.3535 119.658L47.1712 121.63V139.94H75.1735V136.821C77.3059 137.639 78.7008 137.559 81.0818 138.056C84.1201 138.465 85.1863 138.216 86.3407 138.216C87.4951 138.216 88.4731 136.493 89.868 137.15C90.9343 137.639 92.0887 139.122 92.4975 139.699C92.5777 139.86 92.6578 139.948 92.6578 139.948H114.415V120.491H113.349C114.086 119.674 115.401 117.621 115.73 112.362C116.219 105.877 115.321 102.839 115.153 101.195V100.538L115.89 98.8142C115.97 98.5657 115.97 98.3252 116.05 98.0766C116.299 96.1847 114.816 96.3531 115.313 95.5273C115.97 94.4611 117.614 95.5273 118.431 92.4089C119.089 87.8073 118.103 88.9617 117.854 87.3183C117.606 85.6749 120.484 84.1998 121.141 82.0593C121.798 79.8387 121.47 77.7864 121.221 76.2312C122.536 74.5076 123.274 73.6017 124.997 72.7039C126.488 71.9503 125.999 71.0444 125.751 70.7157ZM37.8959 109.637C37.6474 109.388 37.4069 109.059 37.1584 108.819C36.5812 108.242 36.012 107.673 35.4348 107.256L35.3546 107.176C34.2884 106.358 33.0539 105.781 31.9876 105.941H31.9075H31.8273C31.5788 106.021 31.3383 106.101 31.1699 106.27C30.5126 106.847 30.4324 108.073 30.6809 109.468C30.6809 109.549 30.6809 109.717 30.7611 109.797C30.9214 110.703 31.1699 111.689 31.4185 112.667C31.4986 113.076 31.667 113.405 31.7471 113.733C31.9075 114.391 32.0758 114.968 32.2362 115.537C32.3965 116.355 32.4847 116.932 32.2362 117.1C31.9075 117.349 31.659 117.429 31.4986 117.509C31.0096 117.669 30.8413 117.429 30.5126 117.589C30.1037 117.75 30.4324 116.355 30.5126 115.369V114.96C30.5126 114.471 30.4324 113.974 30.2641 113.565C30.1037 113.236 29.8552 112.988 29.5265 113.156C29.3662 113.236 29.278 113.076 29.1978 112.747V112.418C29.1177 111.352 29.278 109.629 29.278 109.629C29.278 109.629 28.1316 108.643 27.3861 108.154C27.1376 107.993 26.8971 107.905 26.8089 107.993C26.7287 108.154 26.6485 107.833 26.5604 107.416C26.4 106.839 26.2317 106.021 25.9832 106.021C25.903 106.021 25.8228 105.941 25.7346 105.861C25.6545 105.781 25.6545 105.781 25.5743 105.7C25.2456 105.211 24.8368 104.386 24.3397 104.386H23.1052H22.8567V112.924C22.8567 113.332 22.8567 113.661 22.7765 113.741C22.6963 113.902 22.528 114.23 22.2875 114.647C21.7103 115.553 20.8124 116.78 20.8124 116.78C20.8124 116.78 20.3234 122.119 20.3234 122.608L20.9808 122.359L23.8507 121.044L26.4802 119.81L40.6056 113.244C40.6056 113.244 40.2769 112.667 39.6195 111.769C39.1225 111.192 38.5533 110.374 37.8959 109.637Z" fill="#F78426"/>
</g>
<defs>
<clipPath id="clip0_154_2438">
<rect width="200" height="200" fill="white"/>
</clipPath>
</defs>
</svg>
