<svg width="200" height="200" viewBox="0 0 200 200" fill="none" xmlns="http://www.w3.org/2000/svg">
<g clip-path="url(#clip0_154_2439)">
<path d="M80.2323 160.482C80.2323 160.482 85.0568 154.618 88.0172 153.817C88.0172 153.817 89.6254 139.952 88.5532 137.28C88.5532 137.28 86.673 132.751 78.8881 133.287C78.8881 133.287 73.2474 134.343 72.4474 137.28C72.4474 137.28 70.8312 142.352 71.6393 145.008C71.6393 145.008 72.4473 151.417 80.2323 160.482ZM114.9 67.4074C148.784 69.9837 157.697 79.9048 157.697 79.9048C162.762 81.705 164.21 78.3526 164.21 78.3526C166.642 71.5118 159.794 66.4472 159.794 66.4472C157.065 63.8949 153.625 62.2868 150.336 60.5186C147.952 59.2464 145.168 57.3822 145.168 57.3822C126.894 45.2608 142.136 34.1635 142.136 34.1635C142.48 29.923 147.84 30.059 147.84 30.059C150.392 29.5229 151.657 27.5547 151.657 27.5547L152.393 29.7309C154.065 28.7948 156.641 30.075 156.641 30.075C158.697 30.6991 160.746 29.6029 160.746 29.6029L159.714 31.3311C162.058 31.1071 163.01 33.3954 163.01 33.3954C159.418 33.8994 159.282 35.1316 159.282 35.1316C161.554 35.9637 161.298 38.62 161.298 38.62C157.809 37.3558 155.369 39.1881 155.369 39.1881C144.76 43.8446 142.488 38.1239 142.488 38.1239C134.231 47.317 149.424 54.8219 149.424 54.8219C151.889 56.4621 156.321 58.0703 158.729 59.2544C166.378 62.7188 169.067 65.5191 169.067 65.5191C181.524 77.3285 166.45 92.5143 166.45 92.5143C168.915 102.195 167.466 110.252 167.466 110.252L171.387 110.26C171.787 127.662 159.09 139.144 159.09 139.144C154.649 133.727 138.863 121.774 138.863 121.774L144.096 138.312C150.344 144.104 153.249 148.241 153.249 148.241C154.793 150.729 152.505 151.121 152.249 151.193C139.727 154.698 126.534 153.737 122.141 152.505C119.629 152.105 120.837 150.105 120.837 150.105C122.845 145 126.774 142.712 126.774 142.712C125.158 137.712 120.573 133.391 120.573 133.391C118.637 133.223 117.501 134.071 117.501 134.071L113.076 155.722C118.189 160.13 120.573 169.611 120.573 169.611C122.629 175.58 117.501 175.7 117.501 175.7H99.1065L52.8611 176.5C-5.19375 132.975 24.9378 86.3376 24.9378 86.3376C36.7392 68.7835 114.9 67.3994 114.9 67.4074Z" fill="black"/>
<path d="M121.726 73.4142C120.246 73.3982 118.709 73.4302 117.125 73.5022L86.5297 106.17L89.4741 114.435L92.6984 115.771L92.9625 135.229L99.6352 123.596L91.8903 155.76C91.8903 155.76 83.9854 160.176 82.1532 165.721C81.1931 165.129 79.8249 164.481 77.9287 163.761C77.9287 163.761 72.128 156.528 70.4158 152.559C70.4158 152.559 59.7826 146.447 57.8063 140.558C58.6144 141.086 61.8308 143.222 66.6554 143.758C66.6554 143.758 64.4791 138.462 66.2553 131.021C66.2553 131.021 54.582 122.276 50.2855 112.299C50.2855 112.299 56.3502 114.179 60.7587 114.963L55.6621 105.098L40.6363 88.832L26.3387 93.6966C26.3387 93.6966 10.2008 130.141 62.6389 171.226C62.6389 171.226 83.2173 171.226 83.8974 167.849L89.6101 172.034H117.325C117.325 172.034 115.533 160.032 108.556 156.832L122.966 108.746C122.966 108.746 130.639 122.764 146.169 105.666C146.169 105.666 146.393 112.307 143.984 115.771L151.457 123.7L163.315 126.164L156.834 129.861C156.834 129.861 171.732 129.917 166.851 113.907C166.851 113.907 165.195 118.972 162.779 121.38C162.779 121.38 165.459 107.778 161.699 95.7688C161.699 95.7688 160.538 87.9679 154.722 83.2393C154.714 83.2313 143.984 73.6302 121.726 73.4142Z" fill="#EAAA00"/>
<path d="M88.3388 123.093C88.3388 123.093 80.3618 116.732 68.8085 125.501C68.8085 125.501 65.7921 123.053 64.504 122.22C64.504 122.22 50.5583 110.179 51.9265 102.41C51.9265 102.41 68.8485 118.028 93.7714 114.084C93.7794 114.092 93.1713 120.3 88.3388 123.093Z" fill="white"/>
<path d="M50.8616 156.097C50.6696 152.264 162.971 126.621 162.971 126.621C162.971 126.621 155.218 161.121 104.076 173.355C104.084 173.347 51.8937 177.675 50.8616 156.097Z" fill="#EAAA00"/>
<path d="M157.826 130.711C157.826 130.711 150.729 159.314 104.46 166.859C73.0643 171.98 56.7344 158.546 56.7344 158.546L30.8594 160.49C30.8594 160.49 56.1103 199.847 124.542 180.933C124.542 180.933 167.867 168.147 176.028 132.311L157.826 130.711Z" fill="black"/>
<path d="M66.2623 170.656L64.6141 174.441C64.3981 174.953 64.094 175.369 63.718 175.641C63.342 175.921 63.0059 176.001 62.7019 175.881L59.0695 174.425C58.7734 174.305 58.5974 174.017 58.5494 173.553C58.5094 173.105 58.5814 172.609 58.8134 172.097L60.4776 168.32C60.5416 168.152 60.5336 168.024 60.4216 167.928C60.3256 167.84 60.2856 167.76 60.3256 167.704C60.3416 167.648 60.3736 167.616 60.4136 167.6C60.4536 167.584 60.5016 167.592 60.5656 167.616L63.1099 168.624C63.2459 168.68 63.2699 168.76 63.2299 168.856C63.1979 168.912 63.1099 168.944 62.9739 168.944C62.8379 168.936 62.7339 169.016 62.6459 169.192L60.9977 172.961C60.9337 173.145 60.8937 173.305 60.9257 173.449C60.9497 173.601 60.9897 173.697 61.0937 173.737L61.8218 174.033C61.9178 174.065 62.0298 174.033 62.1578 173.945C62.2858 173.857 62.3898 173.721 62.4619 173.545L64.126 169.776C64.1901 169.6 64.1821 169.464 64.07 169.376C63.966 169.288 63.934 169.208 63.958 169.152C64.014 169.048 64.094 169.016 64.2141 169.064L66.7584 170.072C66.8784 170.128 66.9104 170.208 66.8544 170.304C66.8464 170.376 66.7584 170.4 66.6063 170.392L66.5983 170.408C66.4543 170.4 66.3503 170.488 66.2623 170.656ZM58.8214 169.112L57.4293 171.465C57.1332 171.969 56.7892 172.321 56.3731 172.553C55.9811 172.785 55.6371 172.825 55.341 172.665L51.9246 170.752C51.6366 170.6 51.4846 170.288 51.5166 169.832C51.5166 169.376 51.6606 168.904 51.9486 168.424L53.3488 166.072C53.6368 165.568 53.9889 165.216 54.3969 164.984C54.5969 164.864 54.789 164.792 54.957 164.776C55.125 164.76 55.285 164.784 55.421 164.864L58.8454 166.768C59.1335 166.936 59.2615 167.232 59.2535 167.704C59.2615 168.136 59.1255 168.624 58.8214 169.112ZM56.9252 167.488C56.9252 167.344 56.8692 167.232 56.7812 167.176L56.0931 166.8C56.0451 166.776 55.9971 166.768 55.9411 166.776C55.8851 166.784 55.8211 166.808 55.7571 166.848C55.6211 166.92 55.485 167.04 55.405 167.208L53.9969 169.56C53.9009 169.728 53.8528 169.888 53.8528 170.04C53.8528 170.184 53.8929 170.28 53.9969 170.344L54.6689 170.712C54.765 170.776 54.885 170.752 55.021 170.68C55.157 170.608 55.269 170.488 55.365 170.336L56.7732 167.976C56.8692 167.8 56.9252 167.64 56.9252 167.488ZM50.2764 168.072L49.1643 167.264C49.1243 167.24 49.1083 167.176 49.1243 167.104C49.1243 167.024 49.1563 166.952 49.2123 166.888L51.9006 163.352C52.0286 163.2 52.1406 163.152 52.2847 163.192C52.4127 163.224 52.5007 163.216 52.5407 163.16C52.6207 163.08 52.6047 162.992 52.4847 162.912L50.2604 161.287C50.2044 161.255 50.1564 161.239 50.1084 161.247C50.0604 161.255 50.0284 161.279 49.9964 161.319C49.9564 161.375 49.9884 161.455 50.0524 161.567C50.1324 161.679 50.1164 161.815 50.0124 161.967L46.684 166.32C46.58 166.456 46.452 166.512 46.324 166.464C46.1879 166.424 46.1079 166.44 46.0519 166.496C45.9879 166.576 45.9959 166.656 46.1079 166.736L49.4603 169.168C49.5403 169.24 49.6604 169.24 49.7964 169.168C49.9404 169.112 50.0764 169.016 50.1964 168.872L50.2044 168.864L50.1964 168.856C50.3324 168.712 50.3884 168.552 50.4044 168.408C50.3964 168.248 50.3644 168.144 50.2764 168.072ZM69.9347 171.697C70.0067 171.529 70.1027 171.425 70.2388 171.417C70.3748 171.417 70.4548 171.369 70.4788 171.305C70.5108 171.209 70.4788 171.129 70.3508 171.089L67.7345 170.312C67.5985 170.28 67.5264 170.312 67.4784 170.432C67.4624 170.48 67.5024 170.552 67.6145 170.64C67.7345 170.72 67.7665 170.849 67.7025 171.033L65.9503 176.257C65.8863 176.425 65.7902 176.513 65.6542 176.513C65.5022 176.529 65.4302 176.561 65.4142 176.641C65.3742 176.737 65.4142 176.801 65.5342 176.841L68.1505 177.633C68.2865 177.657 68.3665 177.633 68.3986 177.513C68.4146 177.449 68.3825 177.377 68.2705 177.305C68.1505 177.225 68.1265 177.081 68.1825 176.913L69.9347 171.697ZM81.5281 173.289C81.5601 173.185 81.5041 173.113 81.3761 173.105L78.6637 172.761C78.5357 172.745 78.4717 172.793 78.4397 172.913C78.4237 172.969 78.4797 173.025 78.5997 173.105C78.7278 173.169 78.7758 173.289 78.7438 173.481L77.8157 178.913C77.7917 179.105 77.6956 179.193 77.5756 179.225C77.4396 179.257 77.3596 179.305 77.3516 179.386C77.3276 179.482 77.3756 179.554 77.5036 179.57L80.2159 179.914C80.352 179.938 80.432 179.89 80.44 179.762C80.448 179.706 80.4 179.65 80.2799 179.586C80.1519 179.522 80.1119 179.394 80.1439 179.209L81.056 173.785C81.088 173.593 81.176 173.489 81.3201 173.457C81.4561 173.417 81.5281 173.353 81.5281 173.289ZM77.4716 173.361C77.4636 173.369 77.4716 173.369 77.4716 173.361C77.5516 172.977 77.3996 172.641 77.1836 172.601L72.6711 171.665C72.591 171.649 72.511 171.649 72.431 171.657C72.191 171.689 71.951 171.833 71.7109 172.081C71.3829 172.433 71.1509 172.881 71.0149 173.449C70.8868 173.993 70.8788 174.481 71.0069 174.921C71.1269 175.369 71.3589 175.617 71.6709 175.681L73.9672 176.145C74.0632 176.169 74.1432 176.265 74.1752 176.401C74.2152 176.553 74.2152 176.713 74.1752 176.905C74.1352 177.089 74.0552 177.249 73.9432 177.345C73.8312 177.457 73.7272 177.513 73.6232 177.489L70.5748 176.865C70.4708 176.841 70.3588 176.889 70.2548 177.001C70.1508 177.121 70.0707 177.273 70.0227 177.457C69.9827 177.641 69.9667 177.809 70.0227 177.945C70.0547 178.089 70.1267 178.169 70.2308 178.201L74.8233 179.145C75.1433 179.209 75.4634 179.065 75.7754 178.729C76.0954 178.385 76.3275 177.945 76.4635 177.369C76.5995 176.809 76.5995 176.329 76.4715 175.889C76.3435 175.449 76.1355 175.193 75.7994 175.129L73.5191 174.657C73.3991 174.633 73.3351 174.553 73.2871 174.409C73.2391 174.273 73.2391 174.097 73.2951 173.921C73.3431 173.729 73.4151 173.569 73.5272 173.465C73.6312 173.361 73.7352 173.289 73.8392 173.321L76.8235 173.937C77.0396 173.977 77.3516 173.737 77.4476 173.369L77.4716 173.361ZM126.341 172.873L124.805 167.592C124.741 167.408 124.773 167.272 124.893 167.184C124.997 167.096 125.037 167.016 125.021 166.952C125.013 166.896 124.989 166.864 124.949 166.84C124.909 166.824 124.861 166.824 124.805 166.856L122.221 167.784C122.101 167.84 122.053 167.912 122.085 168.032C122.101 168.088 122.173 168.12 122.309 168.128C122.445 168.12 122.549 168.208 122.605 168.384L124.133 173.689C124.181 173.849 124.165 173.993 124.045 174.081C123.925 174.177 123.885 174.249 123.909 174.321C123.941 174.417 124.013 174.449 124.141 174.409L126.709 173.473C126.837 173.433 126.877 173.361 126.845 173.233C126.821 173.193 126.749 173.153 126.613 173.145C126.485 173.137 126.397 173.049 126.341 172.873ZM140.439 165.624C140.319 165.536 140.215 165.52 140.103 165.568L137.183 167.168C137.143 167.192 137.087 167.176 137.023 167.136C136.959 167.096 136.911 167.024 136.879 166.944L136.583 166.328C136.495 166.104 136.495 165.976 136.607 165.92L138.863 164.696C138.951 164.64 139.015 164.536 139.023 164.384C139.039 164.232 138.991 164.056 138.903 163.896C138.831 163.704 138.735 163.568 138.607 163.488C138.487 163.416 138.375 163.392 138.287 163.448L136.046 164.656C135.998 164.68 135.942 164.68 135.878 164.624C135.822 164.6 135.766 164.536 135.734 164.44L135.446 163.824C135.35 163.608 135.358 163.464 135.478 163.416L138.335 161.855C138.535 161.743 138.607 161.351 138.463 160.999C138.463 161.007 138.471 161.007 138.471 161.015V161.007L138.463 160.999C138.343 160.743 138.135 160.591 137.951 160.575C137.887 160.567 137.831 160.583 137.783 160.607L132.518 163.48C132.414 163.552 132.366 163.624 132.422 163.728C132.446 163.792 132.526 163.8 132.662 163.792C132.798 163.768 132.91 163.848 132.982 164.016L135.262 169.016C135.326 169.184 135.318 169.312 135.206 169.424C135.118 169.536 135.086 169.616 135.118 169.68C135.15 169.776 135.23 169.808 135.342 169.744L140.679 166.832C140.775 166.768 140.823 166.672 140.831 166.52C140.855 166.368 140.823 166.184 140.743 166.024C140.655 165.84 140.559 165.712 140.439 165.624ZM131.79 164.616C131.726 164.432 131.734 164.304 131.846 164.2C131.958 164.096 131.99 164.032 131.974 163.952C131.958 163.896 131.934 163.864 131.894 163.856C131.854 163.84 131.806 163.856 131.742 163.88L129.238 164.976C129.118 165.024 129.086 165.112 129.118 165.224C129.142 165.28 129.206 165.32 129.358 165.312C129.494 165.296 129.59 165.384 129.662 165.552L131.046 169.44C131.118 169.616 131.134 169.792 131.11 169.944C131.086 170.096 131.014 170.192 130.926 170.24L130.03 170.632C129.982 170.656 129.942 170.64 129.862 170.592C129.814 170.552 129.774 170.472 129.726 170.4L128.214 166.184C128.158 166.008 128.182 165.864 128.27 165.776C128.374 165.688 128.406 165.6 128.39 165.52C128.366 165.424 128.278 165.392 128.174 165.456L125.653 166.552C125.549 166.6 125.493 166.68 125.549 166.8C125.565 166.84 125.629 166.88 125.765 166.872C125.901 166.856 126.005 166.952 126.077 167.12L127.926 172.305C127.998 172.465 127.982 172.609 127.87 172.713C127.758 172.801 127.717 172.873 127.75 172.945C127.774 173.049 127.854 173.089 127.974 173.033L132.822 170.905C133.118 170.768 133.294 170.472 133.382 170.016C133.446 169.544 133.406 169.032 133.19 168.496L131.79 164.616ZM114.148 170.913C114.124 170.728 114.164 170.6 114.284 170.512C114.396 170.432 114.452 170.376 114.428 170.296C114.428 170.184 114.356 170.144 114.236 170.176L111.564 170.777C111.444 170.809 111.388 170.881 111.412 171.001C111.42 171.057 111.492 171.097 111.628 171.121C111.764 171.145 111.836 171.241 111.876 171.425L112.548 175.505C112.572 175.697 112.556 175.873 112.508 176.009C112.444 176.153 112.38 176.233 112.276 176.265L111.508 176.441C111.412 176.465 111.3 176.417 111.22 176.305C111.124 176.193 111.052 176.041 111.02 175.857L110.355 171.761C110.331 171.569 110.371 171.449 110.491 171.369C110.612 171.289 110.66 171.225 110.652 171.161C110.628 171.041 110.563 170.993 110.427 171.025L107.771 171.633C107.651 171.665 107.611 171.729 107.619 171.849C107.627 171.905 107.699 171.953 107.819 171.969C107.963 171.993 108.043 172.105 108.075 172.273L108.747 176.369C108.835 176.921 109.035 177.369 109.315 177.721C109.595 178.081 109.899 178.217 110.211 178.153L114.012 177.281C114.332 177.209 114.572 176.953 114.724 176.505C114.884 176.057 114.916 175.561 114.82 174.985L114.148 170.913ZM88.2249 174.153C88.4169 174.561 88.4809 175.057 88.4249 175.625L88.0168 179.738C88.0008 179.914 88.0489 180.042 88.1769 180.09C88.2969 180.138 88.3609 180.202 88.3529 180.282C88.3369 180.386 88.2649 180.442 88.1449 180.434L85.4245 180.298C85.2965 180.29 85.2325 180.234 85.2565 180.122C85.2645 180.042 85.3285 179.986 85.4646 179.954C85.6086 179.914 85.6806 179.802 85.6966 179.61L85.7846 178.585C85.7926 178.481 85.7846 178.401 85.7526 178.345C85.7206 178.265 85.6886 178.233 85.6326 178.233L84.4644 178.145C84.3444 178.145 84.2644 178.257 84.2324 178.489L84.1364 179.522C84.1124 179.714 84.1604 179.826 84.2884 179.882C84.4084 179.938 84.4644 180.01 84.4644 180.066C84.4484 180.186 84.3924 180.234 84.2564 180.226L81.5361 180.09C81.4001 180.082 81.3441 180.026 81.3681 179.914C81.3681 179.842 81.4481 179.786 81.5681 179.754C81.7041 179.714 81.7921 179.586 81.8081 179.418L82.2162 175.289C82.2722 174.721 82.4242 174.241 82.7042 173.849C82.9683 173.457 83.2723 173.257 83.5843 173.289L87.4728 173.489C87.7848 173.513 88.0409 173.729 88.2249 174.153ZM86.0966 175.497C86.1046 175.297 86.0886 175.145 86.0246 174.993C85.9606 174.865 85.8806 174.785 85.7686 174.777L85.0005 174.729C84.8885 174.729 84.7925 174.793 84.7045 174.921C84.6085 175.049 84.5604 175.209 84.5364 175.409L84.4324 176.417C84.4244 176.521 84.4324 176.609 84.4724 176.673C84.5044 176.737 84.5444 176.785 84.5924 176.793L85.7606 176.857C85.8806 176.865 85.9686 176.745 85.9926 176.521L86.0886 175.481H86.0966V175.497ZM153.016 155.519C152.688 155.055 152.328 154.735 151.92 154.559C151.52 154.351 151.192 154.359 150.936 154.567L149.104 156.047C149.008 156.119 148.904 156.119 148.776 156.055C148.64 156.007 148.512 155.887 148.408 155.735C148.304 155.567 148.232 155.407 148.224 155.247C148.208 155.095 148.232 154.991 148.32 154.911L150.712 152.982C150.888 152.838 150.904 152.454 150.696 152.134C150.536 151.894 150.296 151.782 150.112 151.79C150.048 151.798 150 151.814 149.96 151.846L146.328 154.783C146.072 154.983 145.968 155.319 146.024 155.791C146.072 156.279 146.256 156.743 146.584 157.215C146.904 157.679 147.264 158.007 147.672 158.183C148.08 158.367 148.408 158.367 148.664 158.159L150.512 156.679C150.592 156.607 150.696 156.607 150.832 156.671C150.968 156.743 151.104 156.855 151.2 157.007C151.304 157.151 151.368 157.311 151.384 157.479C151.392 157.631 151.36 157.751 151.28 157.815L148.832 159.791C148.744 159.855 148.712 159.975 148.728 160.127C148.76 160.295 148.816 160.447 148.92 160.607C149.016 160.759 149.144 160.879 149.272 160.935C149.408 160.991 149.512 160.991 149.6 160.927L153.272 157.959C153.529 157.759 153.641 157.415 153.585 156.935C153.529 156.463 153.344 155.999 153.016 155.519ZM148.024 161.879C148.08 161.975 148.056 162.063 147.952 162.135L145.656 163.664C145.56 163.728 145.472 163.704 145.416 163.624C145.384 163.552 145.416 163.48 145.504 163.352C145.592 163.24 145.576 163.112 145.504 162.952L145.16 162.352C145.064 162.183 144.96 162.055 144.824 161.999C144.695 161.927 144.575 161.903 144.487 161.975L143.671 162.504C143.559 162.576 143.559 162.704 143.679 162.912L144.175 163.792C144.263 163.968 144.383 164.032 144.511 164C144.647 163.968 144.719 163.976 144.76 164.032C144.808 164.136 144.784 164.224 144.687 164.296L142.391 165.808C142.279 165.896 142.207 165.864 142.151 165.776C142.111 165.72 142.143 165.64 142.223 165.512C142.311 165.408 142.311 165.264 142.223 165.112L139.535 160.319C139.455 160.159 139.327 160.087 139.183 160.127C139.047 160.151 138.983 160.135 138.951 160.087C138.895 159.983 138.919 159.903 139.023 159.831L143.439 156.903C143.575 156.815 143.735 156.775 143.895 156.791C144.063 156.807 144.239 156.863 144.431 156.983C144.824 157.199 145.16 157.551 145.432 158.055L145.776 158.655C145.952 158.983 146.048 159.311 146.048 159.623C146.064 159.951 145.968 160.167 145.792 160.287C145.968 160.167 146.184 160.167 146.448 160.319C146.712 160.479 146.936 160.719 147.112 161.047L147.448 161.631C147.552 161.791 147.648 161.863 147.784 161.831C147.92 161.799 147.992 161.823 148.04 161.871H148.024V161.879ZM143.935 160.423C143.943 160.271 143.887 160.111 143.799 159.943L143.463 159.359L143.471 159.351C143.375 159.183 143.255 159.071 143.119 158.983C143.055 158.951 142.999 158.927 142.951 158.927C142.895 158.927 142.847 158.935 142.799 158.975L141.983 159.503C141.871 159.583 141.879 159.719 141.991 159.927L142.655 161.119C142.695 161.191 142.759 161.255 142.823 161.295C142.903 161.319 142.943 161.335 142.991 161.303L143.823 160.759C143.903 160.711 143.943 160.583 143.935 160.423ZM157.089 153.991C156.969 154.055 156.857 154.007 156.729 153.855L153.304 149.606C153.184 149.462 153.152 149.334 153.232 149.198C153.296 149.078 153.32 148.998 153.264 148.934C153.232 148.894 153.2 148.87 153.16 148.87C153.12 148.87 153.08 148.894 153.032 148.934L151.024 150.83C150.928 150.91 150.92 151.014 150.992 151.102C151.024 151.142 151.112 151.158 151.232 151.094C151.368 151.046 151.488 151.086 151.608 151.23L155.017 155.503C155.137 155.639 155.161 155.775 155.089 155.903C155.017 156.031 155.001 156.119 155.057 156.175C155.113 156.263 155.201 156.271 155.289 156.175L157.305 154.287C157.401 154.207 157.417 154.103 157.337 154.007C157.305 153.959 157.217 153.959 157.089 153.991ZM123.053 174.585V174.577C123.029 174.513 122.965 174.473 122.829 174.457C122.693 174.441 122.613 174.353 122.573 174.169L121.661 170.144C121.533 169.584 121.317 169.144 121.013 168.816C120.781 168.56 120.549 168.424 120.317 168.416V168.424C120.237 168.424 120.165 168.432 120.085 168.464L116.34 169.552C116.036 169.64 115.82 169.92 115.684 170.368C115.556 170.84 115.548 171.353 115.676 171.913L116.588 175.945C116.628 176.129 116.588 176.249 116.476 176.337C116.364 176.425 116.308 176.497 116.332 176.561C116.348 176.673 116.42 176.713 116.54 176.673L119.164 175.905C119.293 175.873 119.341 175.785 119.309 175.673C119.293 175.617 119.221 175.577 119.084 175.561C118.948 175.545 118.868 175.449 118.828 175.273L117.924 171.233C117.876 171.041 117.876 170.873 117.932 170.72C117.972 170.576 118.044 170.472 118.14 170.44L118.884 170.224C118.988 170.2 119.092 170.232 119.196 170.344C119.301 170.464 119.373 170.616 119.429 170.792L120.333 174.833C120.365 175.009 120.333 175.145 120.213 175.233C120.101 175.313 120.053 175.385 120.069 175.449C120.085 175.561 120.157 175.593 120.285 175.561L122.909 174.793C123.029 174.761 123.077 174.697 123.053 174.585C123.053 174.593 123.061 174.593 123.061 174.593L123.053 174.585ZM104.267 179.097C104.275 179.217 104.211 179.281 104.083 179.289L101.37 179.618C101.25 179.634 101.186 179.578 101.186 179.474C101.17 179.402 101.234 179.345 101.362 179.281C101.506 179.217 101.546 179.089 101.538 178.921L101.466 177.873C101.466 177.793 101.434 177.705 101.402 177.649C101.362 177.593 101.314 177.561 101.258 177.561L100.098 177.697C99.9702 177.713 99.9142 177.833 99.9222 178.073L99.9943 179.097C100.01 179.281 100.074 179.394 100.202 179.426C100.338 179.458 100.402 179.514 100.402 179.562C100.41 179.682 100.354 179.754 100.218 179.77L97.514 180.098C97.3859 180.114 97.3219 180.058 97.3219 179.954C97.3139 179.874 97.3699 179.818 97.506 179.754C97.626 179.69 97.69 179.562 97.682 179.394L97.41 175.257C97.3699 174.673 97.466 174.185 97.658 173.753C97.85 173.321 98.122 173.089 98.4341 173.041L102.307 172.577C102.635 172.537 102.923 172.705 103.171 173.089C103.419 173.457 103.571 173.929 103.603 174.513L103.867 178.633C103.883 178.825 103.955 178.945 104.083 178.977C104.195 178.977 104.251 179.033 104.267 179.097ZM101.354 175.793L101.282 174.761H101.29C101.274 174.577 101.242 174.409 101.146 174.281C101.058 174.169 100.962 174.105 100.85 174.113L100.09 174.209C99.9863 174.217 99.8982 174.305 99.8342 174.441C99.7782 174.577 99.7462 174.753 99.7462 174.945L99.8102 175.985C99.8182 176.073 99.8422 176.145 99.8982 176.225C99.9302 176.289 99.9862 176.313 100.034 176.313L101.202 176.177C101.306 176.153 101.37 176.033 101.354 175.793ZM166.37 143.109C166.25 143.205 166.122 143.173 165.986 143.053L164.698 141.957C164.522 141.805 164.474 141.669 164.554 141.573L164.906 141.085C165.106 140.829 165.114 140.477 164.946 140.029C164.778 139.589 164.482 139.181 164.05 138.821L163.018 137.941C162.882 137.821 162.834 137.693 162.874 137.549H162.882C162.922 137.413 162.914 137.325 162.858 137.277C162.818 137.237 162.778 137.221 162.738 137.229C162.698 137.237 162.658 137.269 162.618 137.325L160.985 139.565C160.897 139.677 160.897 139.757 160.993 139.837C161.033 139.869 161.121 139.861 161.233 139.781C161.353 139.709 161.481 139.717 161.617 139.845L162.658 140.733C162.794 140.853 162.906 140.989 162.954 141.125C163.01 141.269 162.994 141.397 162.946 141.477L162.482 142.125C162.41 142.221 162.306 142.245 162.154 142.229C162.018 142.197 161.873 142.125 161.729 142.013L160.689 141.133C160.553 140.997 160.505 140.869 160.553 140.733C160.585 140.597 160.577 140.517 160.521 140.477C160.449 140.405 160.369 140.405 160.289 140.533L158.657 142.773C158.585 142.877 158.577 142.957 158.665 143.045C158.713 143.085 158.793 143.077 158.913 142.989C159.033 142.901 159.161 142.925 159.297 143.045L160.337 143.925C160.761 144.293 161.185 144.517 161.625 144.581C162.074 144.653 162.394 144.549 162.586 144.285L162.93 143.805C162.962 143.773 163.018 143.749 163.098 143.773C163.162 143.781 163.234 143.805 163.306 143.869L164.61 144.965C164.746 145.085 164.786 145.214 164.754 145.358C164.698 145.494 164.714 145.574 164.762 145.63C164.842 145.702 164.922 145.686 165.002 145.574L166.634 143.333C166.706 143.221 166.706 143.133 166.626 143.045C166.562 143.021 166.482 143.045 166.37 143.109ZM96.1618 179.866C96.0338 179.826 95.9858 179.706 95.9858 179.522L96.0418 175.377C96.0498 174.801 95.9378 174.329 95.7217 173.929C95.4977 173.529 95.2257 173.337 94.9057 173.345L91.0092 173.489C90.6972 173.505 90.4171 173.713 90.1851 174.121C89.9371 174.553 89.8171 175.033 89.8171 175.617L89.7611 179.762C89.7611 179.938 89.689 180.058 89.553 180.106C89.433 180.162 89.369 180.226 89.369 180.29C89.361 180.394 89.425 180.45 89.553 180.45L92.2733 180.346C92.4174 180.346 92.4654 180.274 92.4654 180.162C92.4654 180.106 92.4094 180.05 92.2733 180.01C92.1453 179.97 92.0893 179.85 92.0893 179.658L92.1453 175.529C92.1533 175.321 92.1933 175.169 92.2813 175.025C92.3534 174.897 92.4414 174.817 92.5534 174.809L93.3215 174.777C93.4415 174.777 93.5295 174.849 93.6095 174.969C93.6655 175.105 93.7215 175.273 93.7215 175.457L93.6575 179.602C93.6495 179.786 93.5935 179.898 93.4655 179.954C93.3215 180.002 93.2735 180.066 93.2735 180.146C93.2575 180.242 93.3215 180.306 93.4415 180.298L96.1698 180.186C96.2898 180.186 96.3538 180.13 96.3618 180.026C96.3538 179.954 96.2898 179.898 96.1618 179.866ZM161.281 149.598C161.161 149.662 161.033 149.63 160.913 149.486L157.889 146.262C157.729 146.094 157.697 145.958 157.777 145.862L158.657 144.893C158.817 144.725 158.761 144.325 158.505 144.045C158.505 144.045 158.513 144.045 158.513 144.053L158.505 144.045C158.377 143.909 158.225 143.829 158.081 143.797C157.937 143.773 157.809 143.805 157.729 143.885L154.041 147.926C153.977 148.006 153.961 148.118 153.993 148.262C154.025 148.43 154.121 148.574 154.241 148.71C154.369 148.846 154.513 148.934 154.649 148.966C154.793 149.006 154.881 148.998 154.969 148.91L155.913 147.886C155.937 147.854 155.993 147.83 156.065 147.862C156.137 147.87 156.209 147.918 156.273 147.982L159.305 151.222C159.433 151.358 159.465 151.494 159.409 151.622C159.345 151.758 159.345 151.838 159.401 151.894C159.473 151.982 159.553 151.982 159.641 151.87L161.513 149.822C161.585 149.726 161.601 149.638 161.521 149.55C161.489 149.534 161.393 149.534 161.281 149.598Z" fill="white"/>
<path d="M138.776 91.2566C138.776 91.2566 128.383 118.644 91.8508 110.763C91.8508 110.763 90.7787 113.987 99.0516 116.348C99.0516 116.348 55.5825 126.005 39.3406 91.2726C39.3406 91.2726 33.948 94.249 32.9159 102.13C32.9159 102.13 13.9057 90.0245 23.3068 67.6539C23.3068 67.6539 18.6582 70.1662 17.4821 72.7745C17.4821 72.7745 12.4975 60.701 23.7948 49.0677C23.7948 49.0677 19.3223 49.6678 17.122 51.756C17.122 51.756 16.3459 39.5146 28.0993 33.1698C28.0993 33.1698 24.2109 31.9937 21.9546 32.4897C21.9546 32.4897 28.3633 24.8488 43.6851 22.2565C43.6851 22.2565 40.2607 20.1523 38.3565 19.7362C38.3565 19.7362 48.4697 15.2077 59.551 18.4641C59.551 18.4641 57.9668 14.6717 56.2626 14.0956C56.2626 14.0956 67.96 12.3594 79.0333 20.1203C79.0333 20.1203 77.6011 15.3837 75.8249 14.2876C75.8249 14.2876 85.9061 14.6877 94.5071 23.3367C94.5071 23.3367 94.4351 22.0965 93.563 18.2961C93.563 18.2961 104.58 22.5286 103.884 34.426C103.884 34.426 112.973 37.1383 107.933 46.6914C107.933 46.6914 114.285 51.2839 116.622 56.5406C116.622 56.5406 111.581 54.1723 109.869 59.3009C109.869 59.3009 118.95 65.6536 120.158 78.5831C120.158 78.5831 111.277 77.775 113.117 86.032C113.125 86.016 116.878 97.9774 138.776 91.2566Z" fill="black"/>
<path d="M66.4639 19.25C66.4639 19.25 69.7683 23.2425 69.7683 26.9709C69.7683 26.9709 60.0392 20.4181 49.534 22.4744C49.534 22.4744 53.1024 24.6506 53.3264 26.8429C53.3264 26.8429 43.8213 26.9309 37.3245 29.4752C37.3245 29.4752 45.5815 30.9314 46.8937 33.1236C46.8937 33.1236 35.2203 32.3955 25.8672 42.9088C25.8672 42.9088 36.6685 40.5725 40.3249 43.8529C40.3249 43.8529 29.8197 45.3811 36.3884 54.1421C36.3884 54.1421 27.8114 58.8706 27.6194 69.0398C27.6194 69.0398 32.492 65.0394 39.1487 66.3835C39.1487 66.3835 26.1472 71.6401 30.7478 90.2583C30.7478 90.2583 33.8601 82.9135 43.9333 82.2574C43.9333 82.2574 54.9826 81.3373 55.3586 86.9459C55.0866 90.4984 51.3982 90.6904 48.3818 89.6582C48.3818 89.6582 52.5503 109.685 85.0501 112.597C85.0501 112.597 80.4096 108.949 80.8336 101.86C80.8336 101.86 106.765 112.853 126.791 97.4112C126.791 97.4112 111.909 100.227 108.101 87.186C108.101 87.186 105.188 78.4569 115.19 74.5445C115.19 74.5445 112.029 64.6953 104.116 61.4069C104.116 61.4069 100.676 55.5743 108.709 52.6779C108.709 52.6779 103.9 48.3174 102.548 47.8534C102.548 47.8534 108.645 44.0929 105.365 39.0523C105.365 39.0523 103.156 35.7079 98.5797 36.204C98.5797 36.204 101.964 33.3397 98.0116 25.0267C98.0116 25.0267 96.8275 29.2032 95.0753 29.4992C95.0753 29.4992 91.4429 23.4985 84.434 20.2101C84.434 20.2101 86.6103 23.6585 85.2181 27.451C85.2261 27.427 78.2893 22.0983 66.4639 19.25ZM150.834 29.2672C150.834 29.2672 150.714 30.5233 147.449 31.2834C147.449 31.2834 150.642 31.1154 152.29 31.7795C154.354 32.6116 157.779 31.5794 158.331 30.6593C158.331 30.6593 155.866 31.8355 153.634 31.1234C151.394 30.4033 151.01 30.6593 151.01 30.6593C151.01 30.6593 151.306 29.9873 150.834 29.2672ZM148.57 32.0675C148.378 32.0675 148.274 32.0835 148.274 32.0835C142.873 32.5796 144.049 36.084 144.049 36.084C147.569 32.1955 151.93 36.388 151.93 36.388C154.05 38.6443 157.283 35.4119 157.283 35.4119C156.09 35.7879 153.522 34.9878 153.522 34.9878C156.803 34.3638 157.715 32.6276 157.715 32.6276C157.491 32.9796 154.242 34.0117 152.098 32.9476C150.482 32.1475 149.138 32.0595 148.57 32.0675ZM144.089 36.524C144.089 36.524 143.913 42.6127 156.082 37.7402C156.074 37.7402 148.674 39.8524 144.089 36.524ZM139.449 38.4042C130.455 51.1817 155.426 60.8709 155.426 60.8709C174.501 69.8479 163.811 82.5854 163.811 82.5854C179.773 68.2717 155.362 59.6467 155.362 59.6467C132.52 50.1736 139.44 38.3962 139.44 38.3962L139.449 38.4042ZM171.236 74.8405C171.236 74.8405 168.86 85.6498 160.699 83.7216C160.699 83.7216 162.539 86.5379 163.731 89.5062C163.731 89.5142 172.868 83.3135 171.236 74.8405Z" fill="#EAAA00"/>
<path d="M72.9114 59.9953C64.4304 61.1795 65.7345 56.6269 65.7345 56.6269C64.6224 56.1069 59.7178 56.3149 59.7178 56.3149C62.6381 53.1785 67.3907 52.7065 67.3907 52.7065C73.7274 53.4986 75.6157 57.011 75.6157 57.011C78.088 58.6832 76.7278 60.6914 76.7278 60.6914C76.6798 58.9392 72.9114 59.9953 72.9114 59.9953ZM100.667 53.7066C100.667 53.7066 99.0904 52.2584 96.4261 52.3304C96.0421 52.3384 95.642 52.3785 95.218 52.4585C94.4659 52.8825 93.9858 54.8427 93.8418 56.4029C92.8337 58.3552 95.538 59.2673 95.538 59.2673C93.8018 57.6591 96.0741 57.8671 96.0741 57.8671C99.6185 58.0591 98.7384 54.5787 98.7384 54.5787C98.9784 54.0746 100.667 53.7066 100.667 53.7066ZM96.6661 62.0196C96.3461 62.0276 96.0181 62.0756 95.666 62.1556C95.666 62.1556 87.5771 66.1561 81.5924 63.2117C81.5924 63.2117 76.1197 64.2838 75.4557 73.0289C75.4557 73.0289 80.0002 72.2208 79.3441 76.7013C79.3441 76.7013 78.544 78.1735 78.208 80.7978C78.208 80.7978 81.5684 85.2463 80.3442 92.0951L81.4884 92.5592L97.5942 93.6153C97.5942 93.6153 99.0024 88.7827 97.8903 84.1102C97.8903 84.1102 98.2903 79.2456 99.6265 77.1573C99.6265 77.1573 100.747 73.5649 100.451 71.3007C100.451 71.3007 100.379 69.1724 102.539 69.2444C102.539 69.2604 101.427 61.8676 96.6661 62.0196ZM41.7797 49.1781C42.4198 48.1219 43.7159 47.7379 45.2121 47.6979C47.3724 47.6419 49.9167 48.33 51.4048 48.802C51.7249 48.81 52.0129 48.826 52.2849 48.842C52.0769 48.466 50.2047 45.4896 44.332 45.5697C43.916 45.5777 43.4759 45.5937 43.0198 45.6337C42.2278 45.7777 36.6671 46.5138 39.0194 51.1063C39.0194 51.1063 40.9716 54.6507 45.4441 54.6507C40.3395 52.1304 41.7797 49.1781 41.7797 49.1781ZM103.835 42.3133C102.971 39.969 100.875 39.4569 99.2104 39.4649C97.9143 39.4649 96.8822 39.777 96.8822 39.777C92.5297 40.8491 91.3135 43.8334 91.1375 44.3375C91.1455 44.3295 91.1615 44.3295 91.1695 44.3215C92.2816 42.3773 95.218 41.4732 97.7383 41.4892C99.4665 41.4972 100.995 41.9372 101.627 42.7613C101.627 42.7613 103.019 44.0895 100.011 46.3057C99.1944 46.9058 98.3703 47.3219 97.5702 47.5859C103.659 46.9458 104.307 43.6894 103.835 42.3133Z" fill="white"/>
<path d="M98.2672 77.7331C96.019 82.3177 97.3391 89.1505 97.3391 89.1505C98.0112 90.7347 97.4271 93.943 97.4271 93.943C94.9388 102.28 81.0332 92.5189 81.0332 92.5189C82.4574 86.4461 80.2091 81.8296 80.2091 81.8296C79.065 79.9974 80.7452 77.037 80.7452 77.037C83.2975 73.6607 82.3774 71.7084 82.3774 71.7084C82.0333 68.5801 84.9217 69.5882 84.9217 69.5882C87.0819 70.1722 88.8821 70.2683 90.2103 70.2122C90.3783 69.4922 90.5223 67.812 88.7861 66.2438C88.7861 66.2438 82.1453 62.6274 84.2816 66.1478C84.2656 66.1398 79.105 64.6596 82.0493 62.8434C82.0493 62.8434 87.618 62.1473 97.5231 61.9793C97.5231 61.9793 100.491 62.4753 96.8511 65.6997C96.8511 65.6997 98.8273 61.7793 92.8106 66.2038C92.8106 66.2038 91.8985 67.98 92.0025 70.0202C92.3945 69.9482 92.6186 69.8762 92.6186 69.8762C95.1469 68.548 96.723 68.404 96.723 68.404C99.6754 68.116 99.2113 69.7642 99.2113 69.7642H99.2193C99.9234 75.0528 98.2672 77.7331 98.2672 77.7331ZM49.1815 60.4671C49.1815 60.4671 54.2861 76.525 69.6159 70.5403C69.6159 70.5403 70.496 86.1581 81.1372 92.1428C81.1372 92.1428 97.0031 100.024 97.3231 89.1585C97.3311 89.1985 99.3954 99.1596 93.6347 100.248C93.6347 100.248 94.2828 98.9996 93.6987 97.2554C93.6987 97.2554 91.3704 100.176 83.4735 99.5917C83.4735 99.5917 86.2498 98.5676 86.2498 96.6713C86.2498 96.6713 79.537 93.855 72.5282 101.832C72.5282 101.832 70.736 95.8632 75.1365 90.2786C75.1365 90.2786 70.496 90.3106 65.9674 96.9114C65.9674 96.9114 65.8314 89.9506 70.496 85.278C70.496 85.278 68.5997 75.3568 60.9989 74.1887C60.9989 74.1887 58.7186 73.7807 60.5668 75.3568C60.5668 75.3568 66.1755 80.8375 66.1435 86.6382C66.1435 86.6382 61.5589 77.9492 43.9009 80.4454C43.9009 80.4454 49.4615 76.0849 53.406 75.3568C53.406 75.3568 46.4051 72.8766 38.0762 74.9168C38.0762 74.9168 43.4848 69.9482 49.0295 68.492C49.0375 68.492 48.8934 63.0914 49.1815 60.4671ZM60.9188 27.8633C70.984 32.2398 73.6323 41.1448 73.6323 41.1448C64.8953 40.2007 55.5662 45.4253 55.5662 45.4253C56.7824 39.3526 45.501 37.5044 45.501 37.5044C52.2058 34.6801 62.8871 37.9285 62.8871 37.9285C64.8553 34.8721 60.9188 27.8633 60.9188 27.8633ZM77.3368 28.3033C77.3368 28.3033 84.3456 29.6155 86.3218 38.3765C86.3218 38.3765 88.2901 37.4964 91.1384 37.0644C91.1384 37.0644 88.074 40.7848 88.5061 42.321C88.5061 42.321 82.9054 40.9768 81.3292 40.9928C81.3292 40.9848 83.4735 33.992 77.3368 28.3033ZM78.0168 54.1784C78.0168 54.1784 79.9531 58.4509 83.6335 58.3949C83.6335 58.3949 80.0251 59.699 77.2328 55.4825C77.2328 55.4825 77.0967 54.3384 74.4324 53.8583C74.4324 53.8583 71.7281 53.1702 70.3039 51.8741C70.3039 51.8741 73.9764 53.0342 76.8727 52.8182C76.8727 52.8182 79.201 52.2021 78.5129 48.3937C78.5129 48.4017 80.3051 51.6661 78.0168 54.1784ZM87.522 48.6577C88.9461 51.6821 92.1065 52.4822 92.1065 52.4822C93.9787 52.7302 93.1866 50.5779 93.1866 50.5779C95.2429 51.8501 92.7226 53.6023 92.7226 53.6023C92.7226 53.6023 93.9867 52.6102 92.7146 53.7863C91.4344 54.9545 92.3465 56.7627 92.3465 56.7627C90.8184 56.4266 91.1144 55.0665 91.1144 55.0665C91.4104 54.4264 90.9624 53.9943 90.9624 53.9943C87.1939 50.0979 87.522 48.6577 87.522 48.6577ZM99.1713 55.3705C102.94 56.8907 104.036 59.363 104.036 59.363C105.492 60.8351 107.444 62.6754 107.444 62.6754C102.06 60.1071 101.26 63.6435 101.14 64.5636C101.804 64.5236 102.46 64.5076 103.084 64.5236C110.253 64.6836 114.669 67.908 114.669 67.908C106.324 64.2195 99.1073 65.6757 99.1073 65.6757L99.8434 64.6676C100.219 64.6276 100.587 64.6116 100.956 64.5876C100.595 64.1715 100.187 64.0435 100.187 64.0435C101.028 61.6512 98.3232 59.795 98.3232 59.795C102.804 61.9633 99.1713 55.3705 99.1713 55.3705ZM74.9685 65.1396C76.4247 65.1076 78.0008 65.2117 79.681 65.4997L80.3771 66.5478C80.3771 66.5478 73.2563 64.6436 64.7033 67.796C64.7033 67.796 68.6798 65.2597 74.9685 65.1396ZM103.54 66.5558C110.701 66.7078 115.117 69.9322 115.117 69.9322C106.788 66.2518 99.5714 67.708 99.5714 67.708L100.307 66.6998C101.444 66.5718 102.524 66.5318 103.54 66.5558ZM75.8806 67.2759C77.3368 67.2439 78.913 67.3479 80.5932 67.6359L81.2812 68.6921C81.2812 68.6921 74.1684 66.7798 65.6074 69.9402C65.6074 69.9322 69.5839 67.3959 75.8806 67.2759ZM104.044 68.6361C111.205 68.7881 115.621 72.0205 115.621 72.0205C107.284 68.324 100.059 69.7802 100.059 69.7802L100.812 68.7801C101.948 68.6521 103.028 68.6121 104.044 68.6361ZM76.3687 69.5482C77.8248 69.5162 79.401 69.6202 81.0892 69.9082L81.7853 70.9563C81.7853 70.9563 74.6645 69.0521 66.1035 72.2045C66.1035 72.2045 70.0719 69.6682 76.3767 69.5482H76.3687ZM103.468 85.494C106.148 96.2553 113.245 98.4476 113.245 98.4476C107.62 101.384 99.8114 100.16 99.8114 100.16C104.34 96.5033 103.468 85.494 103.468 85.494ZM45.437 51.8741C47.3413 51.5141 47.9253 51.7301 49.0855 51.8741C48.6694 50.762 46.4772 49.1378 45.8131 48.8977C46.8692 48.8177 47.9013 48.7857 48.8614 48.7697C49.8055 48.7617 50.6696 48.7777 51.4057 48.8017C49.9176 48.3297 47.3733 47.6416 45.213 47.6976C43.7248 47.7376 42.4207 48.1217 41.7806 49.1778C41.7806 49.1778 40.2924 52.2261 45.6851 54.7784C46.8532 53.3383 45.437 51.8741 45.437 51.8741ZM101.628 42.761C100.996 41.9369 99.4674 41.4969 97.7392 41.4889C95.2189 41.4729 92.2825 42.369 91.1704 44.3212C91.9145 44.0172 93.1706 43.5691 95.0588 43.1371C95.0588 43.1371 93.7227 44.5532 93.9307 45.2173C93.9307 45.2173 96.8111 44.2972 99.4754 44.8253C99.4754 44.8253 97.2591 45.5454 97.1231 47.7216C98.0592 47.4736 99.0353 47.0175 100.011 46.3054C103.02 44.0892 101.628 42.761 101.628 42.761Z" fill="black"/>
<path d="M76.5357 57.4065C76.5357 57.4065 73.9034 52.43 63.3181 51.1098C63.3181 51.1098 67.6466 52.582 67.8227 53.7581C67.8227 53.7581 63.7182 54.4222 61.918 55.5983C61.918 55.5983 65.4704 55.1023 66.5985 55.7423C66.5985 55.7423 68.6868 58.8387 73.2153 58.0306C73.2153 58.0306 77.9999 57.2625 76.7277 60.6789C76.7277 60.6789 76.5517 62.4711 77.2958 64.1833C77.2958 64.1833 79.144 61.631 81.2482 61.703C81.2482 61.711 77.7438 59.2868 76.5357 57.4065ZM67.9587 54.9983C68.7988 54.7422 69.5509 54.6222 70.2229 54.5982C70.799 54.5822 71.3111 54.6302 71.7671 54.7262L71.095 56.2864L73.7114 55.5503C74.2234 55.9104 74.4794 56.2304 74.4794 56.2304C71.6471 58.5347 67.9587 54.9983 67.9587 54.9983ZM95.0098 53.2141C95.0098 53.2141 94.5138 52.694 97.3861 50.9258C97.3861 50.9258 92.2255 52.2859 93.2336 55.6863C93.2336 55.6863 92.2335 57.6866 94.5858 58.7667C94.5858 58.7667 92.8416 57.1105 94.4978 56.4064C94.4978 56.4064 97.0181 57.5026 98.1142 54.5742C98.2022 54.3502 98.2022 54.3422 98.2662 54.1822C98.4743 53.9181 98.9783 53.5341 100.122 53.6301C100.122 53.6301 97.6021 52.1899 95.0098 53.2141ZM94.3458 55.7343C94.3458 55.7343 94.3058 55.1983 94.6818 54.6702L96.45 55.0143L95.914 53.8701C96.25 53.7741 96.658 53.7101 97.1621 53.7101C97.3621 53.7101 97.5701 53.7181 97.8022 53.7341C97.7942 53.7421 96.458 56.6064 94.3458 55.7343Z" fill="black"/>
<path d="M95.5235 88.9773C95.5235 88.9773 94.1634 92.1537 92.8112 92.5937L91.9711 92.0897L91.003 92.6898L90.1309 92.1937L89.2988 92.6657L88.3867 92.1457L87.4506 92.5937C87.4506 92.5937 86.2744 91.2896 84.8823 89.6174C84.8823 89.6174 84.4182 91.7856 86.1864 93.5378C86.1864 93.5378 91.7231 94.586 94.3714 93.3538C94.3714 93.3538 96.1396 92.7538 95.5235 88.9773ZM97.5478 70.0071C97.6918 74.9197 96.3876 78.048 96.3876 78.048C96.5797 73.7035 95.3075 71.9513 95.3075 71.9513L94.6994 74.1356L93.5393 72.3994L93.0992 73.8635L92.2912 72.5994L91.7871 73.8795L91.003 72.6314L90.4349 73.8635L89.6588 72.7114L88.9868 73.9116L88.0667 72.8074L87.3946 74.7517L86.4425 73.1755C85.6744 77.76 84.6182 78.9361 84.5862 79.2322C84.6182 75.1997 83.5781 71.3352 83.5781 71.3352C84.7543 70.7512 86.4105 71.1512 86.4105 71.1512L86.4985 71.7193C92.1711 73.4155 94.9075 70.8072 94.9075 70.8072L94.9475 70.3191C95.4595 69.9351 95.9556 69.7991 96.3716 69.7751C97.0597 69.7271 97.5478 70.0071 97.5478 70.0071Z" fill="white"/>
<path d="M93.3231 79.8947C92.9711 79.9027 92.571 80.0068 92.123 80.2708C92.123 80.2708 90.3388 81.3269 90.0588 82.8871C90.0588 82.8871 88.7066 80.3828 85.8583 82.407C85.8583 82.407 85.4822 82.6151 85.6582 82.9751C85.6582 82.9751 88.1305 89.6799 92.483 86.8876C92.483 86.8876 92.8671 86.7195 92.8031 86.0475C92.8031 86.0475 92.6831 83.6952 94.8273 81.639C94.8273 81.639 95.3474 81.1989 94.9713 80.7508C94.9633 80.7508 94.3713 79.8787 93.3231 79.8947Z" fill="#EAAA00"/>
<path d="M11.5049 169.458C9.29662 169.458 7.13636 168.746 5.36016 167.394C3.24791 165.794 1.84774 163.409 1.4317 160.753C0.711611 159.505 0.239555 158.105 0.0795366 156.617C-0.136489 154.816 0.0875375 152.944 0.751615 151.048C1.13566 149.912 1.65572 148.816 2.3358 147.703C2.50382 147.439 2.67984 147.175 2.86386 146.927C2.98388 146.767 3.11189 146.607 3.23991 146.455C3.25591 144.535 3.63195 142.495 4.38404 140.255C5.17613 137.886 6.23226 135.758 7.59242 133.774C8.44852 132.534 10.9848 128.877 15.6334 127.773L24.8184 125.565C24.8744 125.549 24.9305 125.541 24.9785 125.525C25.8186 125.341 26.6747 125.261 27.5148 125.285C28.3068 124.869 29.1949 124.517 30.1711 124.277L37.844 122.437C38.58 122.26 39.3161 122.156 40.0522 122.132C40.6123 121.868 41.2044 121.652 41.8124 121.484C41.9084 121.46 42.0124 121.428 42.1085 121.412L47.4691 120.132L47.5651 120.108C47.9251 120.028 48.2852 119.964 48.6452 119.916C48.9813 119.796 49.3253 119.692 49.6853 119.604L55.126 118.292C55.206 118.276 55.286 118.252 55.374 118.236C55.7661 118.156 56.1581 118.092 56.5502 118.052C56.9502 117.9 57.3262 117.78 57.6703 117.692C57.7263 117.676 57.7823 117.66 57.8383 117.652L68.5836 115.068L69.0156 114.972C69.3357 114.908 69.6557 114.86 69.9757 114.828C70.3438 114.684 70.7198 114.564 71.1119 114.468C71.1679 114.452 71.2239 114.436 71.2799 114.428L76.6405 113.139C76.7525 113.115 76.8725 113.083 76.9846 113.059C77.2646 113.003 77.5366 112.955 77.8166 112.923C78.0487 112.843 78.2807 112.763 78.5127 112.699C78.6647 112.659 78.8088 112.619 78.9608 112.579L84.3454 111.299C85.6576 110.979 87.0417 110.923 88.4019 111.147L99.3872 108.523C100.275 108.307 101.195 108.211 102.083 108.235C102.924 107.795 103.804 107.459 104.732 107.235L112.445 105.387C113.613 105.098 114.821 105.01 115.997 105.122C116.965 104.53 118.093 104.034 119.374 103.73L128.559 101.522C128.623 101.506 128.679 101.49 128.743 101.482C129.335 101.354 129.935 101.274 130.535 101.25C131.199 100.946 131.831 100.746 132.383 100.61L143.144 98.0257C143.208 98.0096 143.272 97.9936 143.336 97.9856C143.728 97.8976 144.12 97.8416 144.512 97.8016C144.945 97.6336 145.385 97.4976 145.841 97.3936L157.73 94.5372C157.874 94.5052 158.018 94.4732 158.162 94.4412C158.474 94.3852 158.778 94.3372 159.09 94.3052C159.522 94.1372 159.97 94.0012 160.434 93.8892L170.764 91.4169C171.948 91.1368 173.14 91.0568 174.3 91.1608C175.348 90.5128 176.46 90.0487 177.652 89.7607L185.365 87.9125C186.093 87.7364 186.869 87.6324 187.638 87.6084C192.31 87.4964 197.391 90.5608 198.495 96.6975C199.207 97.9696 199.775 99.5698 199.943 101.562C200.151 103.914 199.791 106.435 198.847 109.259L195.278 119.828C195.862 121.636 195.918 123.613 195.422 125.557C195.382 125.717 195.334 125.877 195.286 126.037C195.23 126.213 195.174 126.389 195.11 126.557C195.046 126.733 194.974 126.917 194.902 127.085C193.582 130.205 190.934 132.502 187.662 133.318L185.773 133.798C185.717 133.814 185.653 133.83 185.597 133.838C183.093 134.43 180.661 134.254 178.524 133.454C177.108 135.094 175.212 136.278 173.068 136.814L171.164 137.294C171.132 137.302 171.1 137.31 171.068 137.318C167.115 138.278 163.291 137.262 160.514 134.854L160.234 134.918C159.762 135.038 159.29 135.118 158.818 135.166C158.41 135.318 158.026 135.438 157.674 135.526C157.626 135.534 157.578 135.55 157.53 135.558L147.505 137.966C147.497 137.99 147.489 138.006 147.481 138.03C146.209 141.399 143.448 143.879 140.048 144.719L138.2 145.199C138.16 145.207 138.112 145.223 138.072 145.231C134.087 146.199 130.255 145.183 127.47 142.751C127.254 142.815 127.038 142.871 126.814 142.927L122.174 144.039C122.07 144.311 121.966 144.575 121.846 144.839C120.502 147.815 117.925 149.992 114.741 150.792L112.869 151.272C112.797 151.288 112.733 151.304 112.661 151.32C108.66 152.264 104.868 151.264 102.123 148.848L101.891 148.904C101.843 148.912 101.795 148.928 101.747 148.936C101.323 149.032 100.899 149.096 100.475 149.144C100.083 149.296 99.6992 149.416 99.3552 149.504C99.2992 149.52 99.2432 149.536 99.1791 149.552L90.9782 151.52C89.594 154.44 87.0177 156.585 83.8894 157.361L82.0011 157.833C78.4887 158.697 75.0883 158.025 72.424 156.208C71.0238 158.993 68.5276 161.017 65.4952 161.777L63.623 162.257C63.567 162.273 63.519 162.281 63.463 162.297C59.5185 163.233 55.7021 162.209 52.9337 159.801C52.7097 159.865 52.4857 159.929 52.2537 159.985L44.6048 161.817C44.5567 161.825 44.5087 161.841 44.4607 161.849C43.3326 162.105 42.1885 162.177 41.0763 162.073C40.0202 162.721 38.9001 163.185 37.6999 163.473L30.011 165.314C29.979 165.322 29.947 165.33 29.915 165.338C28.7709 165.602 27.6108 165.674 26.4826 165.57C25.4585 166.194 24.3784 166.65 23.2262 166.946C23.1862 166.954 23.1462 166.97 23.1062 166.978L13.8732 169.178C13.7771 169.202 13.6731 169.226 13.5771 169.242C12.889 169.386 12.193 169.458 11.5049 169.458Z" fill="black"/>
<path d="M10.1928 162.833C8.72061 162.833 7.27244 162.376 6.0483 161.512C4.3521 160.304 3.25597 158.408 3.02395 156.272C2.86393 154.92 3.03995 153.487 3.55201 152.015C3.86404 151.079 4.2961 150.183 4.86416 149.255C4.97618 149.071 5.09619 148.895 5.23221 148.719C5.41623 148.471 5.75227 148.031 6.24832 147.543C6.08831 145.646 6.40034 143.574 7.20044 141.198C7.90452 139.094 8.83263 137.206 10.0408 135.445C10.7369 134.445 12.8011 131.469 16.3695 130.645L25.5146 128.444L25.6106 128.42C26.4667 128.228 27.3468 128.188 28.2029 128.308C28.979 127.812 29.8671 127.396 30.8832 127.156L38.5321 125.324C39.0682 125.188 39.6202 125.116 40.1563 125.092C40.3643 125.084 40.5803 125.084 40.7884 125.092C41.3564 124.764 41.9645 124.508 42.6206 124.34C42.6846 124.324 42.7486 124.308 42.8126 124.292L48.1732 123.012C48.5573 122.924 48.9413 122.86 49.3254 122.836C49.6694 122.692 50.0375 122.572 50.4055 122.484L55.8301 121.18C55.8861 121.164 55.9422 121.156 55.9982 121.14C56.4142 121.052 56.8223 120.996 57.2383 120.98C57.6223 120.812 58.0224 120.668 58.4384 120.564L58.5345 120.54L69.2797 117.955C69.3757 117.931 69.4637 117.915 69.5597 117.891C69.9278 117.819 70.2958 117.771 70.6639 117.755C71.0399 117.587 71.44 117.451 71.848 117.339C71.888 117.331 71.928 117.323 71.968 117.307L77.3287 116.019C77.4087 116.003 77.4887 115.979 77.5687 115.963C77.8807 115.899 78.1928 115.859 78.4968 115.835C78.7688 115.723 79.0409 115.627 79.3209 115.547C79.4249 115.515 79.5289 115.491 79.6329 115.467L85.0176 114.187C85.9777 113.955 86.9778 113.915 87.9619 114.083C87.9859 114.091 88.0099 114.091 88.0419 114.099C88.1779 114.123 88.3139 114.155 88.45 114.187L100.067 111.418C100.955 111.202 101.876 111.154 102.78 111.274C103.62 110.738 104.5 110.354 105.428 110.122L113.125 108.282C113.637 108.154 114.197 108.074 114.749 108.058C115.397 108.034 116.053 108.098 116.701 108.242C117.629 107.538 118.766 106.914 120.11 106.61L129.255 104.41C129.303 104.402 129.351 104.386 129.407 104.378C130.007 104.25 130.615 104.186 131.231 104.218C131.815 103.898 132.431 103.658 133.087 103.498L143.848 100.921C143.896 100.913 143.936 100.897 143.984 100.889C144.393 100.801 144.809 100.745 145.225 100.729C145.665 100.529 146.129 100.377 146.617 100.265L158.45 97.4248C158.546 97.4008 158.65 97.3768 158.746 97.3608C159.098 97.2888 159.458 97.2488 159.81 97.2328C160.25 97.0328 160.722 96.8808 161.21 96.7688L171.492 94.3045C172.06 94.1685 172.588 94.1044 173.116 94.0804H173.132C173.78 94.0644 174.428 94.1205 175.068 94.2645C176.108 93.4644 177.212 92.9283 178.396 92.6403L186.093 90.8001C186.637 90.672 187.206 90.592 187.774 90.576C191.334 90.496 195.254 93.0563 195.727 98.1369C195.911 100.081 195.599 102.233 194.758 104.69L190.862 116.251C191.598 117.827 191.742 119.651 191.214 121.436C191.19 121.532 191.158 121.628 191.126 121.716C190.278 124.22 188.27 126.1 185.757 126.764L183.797 127.26C183.757 127.268 183.717 127.284 183.669 127.292C180.917 127.94 178.292 127.364 176.284 125.86C175.316 128.052 173.46 129.653 171.18 130.253L169.203 130.757C169.171 130.765 169.147 130.773 169.115 130.781C165.603 131.629 162.291 130.469 160.194 127.916L158.314 128.372C157.842 128.492 157.362 128.556 156.882 128.58C156.402 128.797 155.946 128.933 155.53 129.029L143.84 131.837C143.776 132.253 143.672 132.669 143.536 133.085C143.52 133.125 143.512 133.165 143.496 133.205C142.616 135.685 140.688 137.494 138.208 138.166C138.168 138.174 138.136 138.19 138.096 138.198L136.184 138.678C132.503 139.59 129.071 138.326 126.99 135.581C126.326 135.941 125.63 136.205 124.91 136.381L118.517 137.91C118.453 138.31 118.357 138.71 118.229 139.11C117.389 141.702 115.357 143.622 112.757 144.262L110.861 144.742C110.837 144.75 110.805 144.758 110.781 144.766C107.252 145.614 103.94 144.454 101.86 141.902L99.9793 142.358C99.5073 142.478 99.0272 142.542 98.5551 142.566C98.0751 142.782 97.619 142.926 97.219 143.014L87.5299 145.334C87.4578 145.606 87.3618 145.879 87.2578 146.143C87.2498 146.159 87.2498 146.167 87.2418 146.183V146.191C87.2098 146.271 87.1778 146.343 87.1378 146.423C86.1617 148.607 84.3215 150.191 82.0492 150.791L80.049 151.295C80.017 151.303 79.985 151.311 79.953 151.319C76.4566 152.151 73.1522 150.991 71.0639 148.455L69.2957 148.879C69.2237 149.343 69.1117 149.799 68.9437 150.247C68.0476 152.759 66.0393 154.608 63.527 155.224L61.6708 155.704C61.6388 155.712 61.6148 155.72 61.5828 155.728C57.9344 156.616 54.518 155.352 52.4377 152.615C51.7577 152.983 51.0536 153.247 50.3095 153.423L42.6686 155.248C41.4925 155.536 40.2763 155.552 39.1162 155.288C38.0761 156.08 36.9639 156.624 35.7638 156.912L28.0749 158.76C28.0509 158.768 28.0189 158.776 27.9949 158.776C26.8267 159.04 25.6426 159.04 24.5145 158.792C23.4823 159.584 22.3782 160.12 21.1861 160.408L11.977 162.608C11.3609 162.76 10.7769 162.833 10.1928 162.833Z" fill="#EDB11E"/>
<path d="M10.1928 161.368C9.0167 161.368 7.87256 161.008 6.89645 160.311C5.54429 159.351 4.67219 157.831 4.48017 156.111C4.33615 154.959 4.48817 153.767 4.94422 152.479C5.22425 151.654 5.6003 150.846 6.11236 150.022C6.20037 149.878 6.29638 149.734 6.40039 149.598C6.61642 149.31 7.07247 148.71 7.78455 148.134C7.75255 147.95 7.73655 147.75 7.71255 147.55C7.54453 145.822 7.83256 143.902 8.58465 141.661C9.24873 139.685 10.1208 137.917 11.249 136.277C11.857 135.397 13.6812 132.772 16.6976 132.076L25.8587 129.876C25.8827 129.868 25.9067 129.868 25.9307 129.86C26.7948 129.66 27.6909 129.668 28.539 129.876C29.2991 129.308 30.1872 128.844 31.2273 128.596L38.9002 126.756C39.2922 126.66 39.7563 126.588 40.2284 126.572C40.5324 126.564 40.8444 126.572 41.1485 126.612C41.7085 126.235 42.3246 125.947 42.9967 125.771C43.0447 125.755 43.0927 125.747 43.1487 125.731L48.5093 124.451C48.8934 124.363 49.2854 124.307 49.6695 124.299C50.0135 124.139 50.3815 124.011 50.7576 123.923L56.1742 122.619C56.2222 122.611 56.2622 122.595 56.3102 122.587C56.7343 122.491 57.1503 122.435 57.5904 122.451C57.9744 122.259 58.3825 122.107 58.8065 121.995L69.6238 119.395C69.6958 119.379 69.7758 119.363 69.8478 119.347C70.2399 119.267 70.6079 119.251 71.008 119.235C71.392 119.043 71.7921 118.891 72.2161 118.779L72.3121 118.755L77.6727 117.466C77.7368 117.45 77.8008 117.434 77.8648 117.426C78.2008 117.362 78.5288 117.322 78.8569 117.306C79.1369 117.178 79.433 117.066 79.737 116.978C79.817 116.954 79.897 116.93 79.985 116.914L85.3697 115.634C86.1377 115.442 86.9458 115.418 87.7299 115.554C87.7539 115.554 87.7699 115.562 87.7939 115.562C88.018 115.602 88.234 115.658 88.442 115.722C88.482 115.714 88.514 115.706 88.554 115.698L100.435 112.866C101.324 112.65 102.252 112.642 103.14 112.85C103.98 112.226 104.868 111.802 105.804 111.57L113.493 109.73C113.917 109.626 114.373 109.562 114.821 109.546C115.565 109.522 116.325 109.634 117.053 109.89C117.957 109.081 119.078 108.385 120.462 108.065L129.623 105.865C129.663 105.857 129.703 105.849 129.743 105.841C130.359 105.705 130.991 105.673 131.615 105.745C132.183 105.377 132.799 105.113 133.455 104.953L144.209 102.377C144.241 102.369 144.281 102.361 144.313 102.353C144.737 102.257 145.145 102.201 145.593 102.217C146.025 102.001 146.481 101.833 146.953 101.729L158.794 98.8883C158.874 98.8723 158.946 98.8563 159.026 98.8403C159.402 98.7683 159.786 98.7283 160.154 98.7283H160.162C160.594 98.5122 161.051 98.3522 161.539 98.2402L171.828 95.7759C172.292 95.6639 172.732 95.6079 173.156 95.5919H173.164C173.9 95.5679 174.668 95.6879 175.396 95.9359C176.436 95.0078 177.54 94.4078 178.733 94.1117L186.43 92.2715C186.878 92.1595 187.35 92.1035 187.814 92.0875C190.67 92.0235 193.862 93.9437 194.262 98.3202C194.43 100.056 194.134 102.009 193.366 104.265L189.27 116.426C190.078 117.786 190.286 119.443 189.806 121.075C189.782 121.147 189.758 121.227 189.734 121.299C189.03 123.363 187.446 124.859 185.373 125.403L183.421 125.899C183.389 125.907 183.357 125.915 183.325 125.923C180.101 126.684 177.164 125.507 175.476 122.987C175.46 123.571 175.356 124.163 175.164 124.755C174.46 126.852 172.868 128.348 170.804 128.892L168.835 129.396C165.475 130.204 162.467 128.964 160.786 126.323L157.962 127.004C157.49 127.116 157.018 127.18 156.546 127.18C156.114 127.396 155.658 127.556 155.178 127.668L143.344 130.508C143.048 130.58 142.76 130.628 142.464 130.66C142.472 131.332 142.368 132.012 142.144 132.684C142.136 132.716 142.12 132.748 142.112 132.78C141.392 134.804 139.832 136.277 137.816 136.813C137.784 136.821 137.76 136.829 137.728 136.837L135.816 137.317C132.279 138.197 129.015 136.661 127.423 133.604C126.526 134.3 125.574 134.772 124.55 135.021L117.133 136.797C117.133 137.429 117.037 138.077 116.829 138.717C116.149 140.829 114.493 142.389 112.381 142.909L110.485 143.389C107.124 144.198 104.116 142.965 102.444 140.317L99.6193 140.997C99.1473 141.109 98.6752 141.173 98.2032 141.173C97.7791 141.381 97.331 141.549 96.867 141.653L86.2657 144.198C86.2497 144.286 86.2418 144.382 86.2257 144.47C86.1617 144.87 86.0497 145.27 85.8897 145.654C85.8817 145.662 85.8817 145.678 85.8737 145.686C85.8737 145.694 85.8657 145.702 85.8657 145.71C85.8417 145.766 85.8177 145.83 85.7857 145.886C84.9936 147.646 83.5134 148.934 81.6892 149.43C81.6572 149.438 81.6252 149.446 81.5932 149.454L79.641 149.894C76.2966 150.686 73.2962 149.454 71.608 146.822L68.7597 147.51C68.7117 147.518 68.6717 147.534 68.6237 147.542C68.3757 147.598 68.1196 147.63 67.8636 147.654C67.8796 148.342 67.7676 149.046 67.5276 149.726C66.8155 151.806 65.1753 153.327 63.103 153.831L61.2468 154.311C57.6224 155.199 54.398 153.695 52.8138 150.606C51.9097 151.31 50.9416 151.782 49.9095 152.023L42.2686 153.847C41.0845 154.143 39.8443 154.087 38.7162 153.695C37.6761 154.623 36.5639 155.223 35.3558 155.519L27.6829 157.367C26.4507 157.647 25.2266 157.583 24.1225 157.207C23.0823 158.127 21.9862 158.727 20.7941 159.015L11.585 161.216C11.1289 161.312 10.6569 161.368 10.1928 161.368Z" fill="#006341"/>
<path d="M90.7863 122.517L102.676 119.669C102.732 119.653 102.78 119.653 102.82 119.661C102.948 119.693 103.012 119.829 103.044 120.061C103.076 120.365 102.988 120.781 102.812 121.309C102.644 121.805 102.42 122.245 102.164 122.629C101.892 123.005 101.66 123.229 101.436 123.285L94.9308 124.838C94.6747 124.902 94.4427 125.246 94.2347 125.854L93.6266 127.654C93.5386 127.902 93.5066 128.11 93.5306 128.246C93.5386 128.406 93.6106 128.486 93.7226 128.446L98.6992 127.262C98.9152 127.206 99.0272 127.35 99.0672 127.654C99.0912 127.958 99.0112 128.374 98.8272 128.894C98.6672 129.398 98.4592 129.838 98.1871 130.214C97.9311 130.598 97.6911 130.822 97.4751 130.87L92.4665 132.07C92.2184 132.134 92.0024 132.471 91.7864 133.095L91.1943 134.879C91.1063 135.127 91.0663 135.335 91.0823 135.479C91.0903 135.639 91.1543 135.711 91.2583 135.679L97.7791 134.127C97.9871 134.071 98.0991 134.223 98.1471 134.519C98.1791 134.823 98.1071 135.239 97.9391 135.767C97.7631 136.263 97.5391 136.703 97.267 137.071C97.011 137.463 96.771 137.687 96.5549 137.727L84.6496 140.583C84.4015 140.655 84.3215 140.527 84.4415 140.239C84.4975 140.055 84.6736 139.871 84.9696 139.679C85.2656 139.495 85.5057 139.151 85.6577 138.695L90.5382 124.23C90.6983 123.749 90.6743 123.461 90.4502 123.405C90.2342 123.341 90.1622 123.205 90.2262 123.053C90.3622 122.773 90.5382 122.581 90.7863 122.517ZM100.259 135.215L103.924 124.382C104.428 122.861 105.084 121.533 105.908 120.357C106.708 119.205 107.436 118.541 108.06 118.381L115.717 116.549C115.797 116.533 115.877 116.517 115.949 116.517C116.461 116.501 116.741 116.909 116.821 117.765C116.901 118.709 116.717 119.925 116.189 121.437L111.917 134.111C111.501 135.343 111.317 136.359 111.397 137.167C111.477 137.935 111.789 138.263 112.309 138.135C112.573 138.071 112.653 138.191 112.549 138.487C112.549 138.479 112.557 138.471 112.557 138.463L112.549 138.495H112.541V138.479C112.437 138.775 112.261 138.959 112.005 139.023L110.085 139.511C108.812 139.815 108.004 139.279 107.652 137.879C107.284 136.519 107.5 134.703 108.244 132.487L108.828 130.67C108.916 130.422 108.964 130.214 108.94 130.078C108.924 129.918 108.884 129.83 108.772 129.862L106.492 130.374C106.236 130.446 105.996 130.79 105.78 131.39L104.876 134.087C104.708 134.583 104.724 134.863 104.94 134.927C105.14 134.983 105.22 135.119 105.172 135.271C105.076 135.575 104.892 135.759 104.628 135.823L99.2673 137.111C99.0112 137.183 98.9392 137.047 99.0512 136.767C99.0992 136.583 99.2833 136.407 99.5873 136.215C99.8913 136.023 100.107 135.679 100.259 135.215ZM107.524 126.55C107.532 126.718 107.588 126.782 107.7 126.774L109.997 126.214C110.245 126.166 110.485 125.822 110.669 125.238L111.597 122.509L111.605 122.501C111.773 122.013 111.829 121.597 111.813 121.261C111.789 121.029 111.701 120.893 111.573 120.869C111.533 120.861 111.485 120.861 111.429 120.877L109.901 121.245C109.7 121.277 109.46 121.517 109.196 121.893C108.924 122.269 108.7 122.725 108.516 123.245L107.604 125.942C107.532 126.19 107.516 126.398 107.524 126.55ZM135.432 133.447L137.344 132.959C137.608 132.895 137.776 132.719 137.888 132.399C137.976 132.11 137.92 131.99 137.648 132.054C137.12 132.182 136.808 131.854 136.736 131.078C136.664 130.27 136.832 129.27 137.264 128.03L141.848 114.46C142.032 113.844 142.264 113.508 142.52 113.444L145.201 112.804C145.425 112.756 145.665 112.524 145.937 112.148C146.201 111.764 146.409 111.316 146.585 110.828C146.769 110.3 146.849 109.892 146.817 109.58C146.777 109.276 146.665 109.14 146.441 109.18L135.696 111.748C135.496 111.804 135.247 112.036 134.999 112.404C134.711 112.812 134.487 113.276 134.311 113.764C134.159 114.26 134.087 114.676 134.127 114.972C134.159 115.276 134.271 115.421 134.479 115.373L137.176 114.732C137.272 114.708 137.336 114.772 137.344 114.948C137.376 115.084 137.344 115.276 137.256 115.533L133.575 126.414C132.823 128.646 132.623 130.454 132.983 131.814C133.335 133.199 134.167 133.751 135.432 133.447ZM148.825 109.444C149.057 109.5 149.073 109.772 148.913 110.268L144.041 124.734C143.872 125.19 143.64 125.542 143.344 125.718C143.04 125.91 142.872 126.086 142.816 126.278C142.704 126.558 142.768 126.686 143.024 126.622L154.914 123.765C155.13 123.725 155.378 123.501 155.634 123.125C155.898 122.733 156.122 122.293 156.306 121.805C156.474 121.285 156.546 120.861 156.514 120.557C156.474 120.261 156.354 120.109 156.146 120.157L149.633 121.717C149.521 121.741 149.449 121.677 149.449 121.517C149.425 121.381 149.473 121.165 149.569 120.917L150.161 119.133C150.369 118.509 150.585 118.165 150.833 118.109L155.842 116.917C156.05 116.861 156.29 116.629 156.554 116.253C156.826 115.877 157.026 115.429 157.194 114.932C157.378 114.412 157.458 113.996 157.426 113.692C157.386 113.38 157.266 113.244 157.058 113.292L152.081 114.476C151.969 114.508 151.897 114.436 151.897 114.276C151.881 114.14 151.921 113.932 151.993 113.684L152.61 111.892C152.818 111.268 153.05 110.924 153.298 110.86L159.818 109.308C160.034 109.252 160.282 109.028 160.546 108.652C160.794 108.268 161.027 107.82 161.195 107.332C161.371 106.804 161.459 106.395 161.427 106.083C161.395 105.851 161.323 105.715 161.203 105.683C161.163 105.675 161.115 105.675 161.059 105.691L149.161 108.54C148.913 108.604 148.745 108.78 148.625 109.1C148.537 109.26 148.609 109.372 148.825 109.444ZM118.998 125.742L123.598 124.646C123.806 124.59 123.918 124.734 123.95 125.046C123.958 125.382 123.902 125.79 123.734 126.286C123.582 126.79 123.358 127.23 123.078 127.606C122.798 127.99 122.558 128.214 122.358 128.27L116.221 129.734C116.013 129.79 115.773 130.022 115.493 130.39C115.229 130.798 114.997 131.246 114.845 131.742C114.661 132.246 114.589 132.655 114.629 132.951C114.661 133.255 114.773 133.407 114.981 133.351L124.198 131.142C124.838 130.982 125.574 130.326 126.374 129.174C127.167 128.022 127.831 126.686 128.327 125.182C128.839 123.669 129.039 122.461 128.943 121.517C128.863 120.541 128.503 120.149 127.855 120.301L123.27 121.397C123.054 121.453 122.934 121.317 122.902 121.005C122.862 120.709 122.942 120.277 123.11 119.789C123.294 119.269 123.51 118.813 123.782 118.429C124.03 118.061 124.27 117.829 124.486 117.789L130.615 116.317C130.839 116.261 131.071 116.037 131.343 115.661C131.599 115.276 131.815 114.828 131.983 114.34C132.167 113.812 132.255 113.404 132.223 113.092C132.191 112.868 132.119 112.724 131.991 112.692C131.951 112.684 131.903 112.684 131.847 112.692L122.646 114.9C122.014 115.044 121.294 115.709 120.486 116.869C119.654 118.061 119.014 119.373 118.502 120.901C118.005 122.381 117.805 123.597 117.893 124.534C117.981 125.494 118.349 125.894 118.998 125.742ZM163.195 105.603C163.299 105.291 163.483 105.107 163.723 105.043L174.068 102.563C174.148 102.547 174.228 102.531 174.3 102.531C174.804 102.515 175.1 102.923 175.164 103.779C175.252 104.723 175.068 105.931 174.54 107.46L173.94 109.244C173.604 110.236 173.156 111.14 172.628 111.916C172.084 112.692 171.628 113.124 171.188 113.236C171.612 113.124 171.876 113.372 171.916 114.02C171.972 114.652 171.836 115.485 171.5 116.469L170.26 120.117C169.852 121.349 169.676 122.349 169.756 123.173C169.836 123.942 170.14 124.278 170.676 124.134C170.924 124.07 171.004 124.198 170.908 124.486C170.796 124.79 170.628 124.974 170.372 125.038L168.443 125.526C167.179 125.83 166.355 125.286 165.995 123.894C165.635 122.533 165.867 120.717 166.603 118.501L166.907 117.573C167.067 117.085 167.155 116.661 167.099 116.365C167.059 116.069 166.947 115.917 166.739 115.965L164.851 116.389C164.595 116.461 164.347 116.805 164.131 117.405L163.227 120.101C163.067 120.597 163.083 120.885 163.291 120.933C163.507 120.997 163.579 121.125 163.531 121.277C163.435 121.589 163.251 121.765 162.987 121.837L157.618 123.125C157.378 123.197 157.29 123.061 157.41 122.781C157.458 122.597 157.642 122.413 157.946 122.229C158.242 122.037 158.474 121.701 158.618 121.237L163.507 106.771C163.667 106.267 163.643 106.003 163.419 105.939C163.203 105.883 163.139 105.755 163.195 105.603ZM165.867 112.572C165.875 112.74 165.947 112.812 166.043 112.796L167.963 112.332C168.171 112.284 168.411 112.052 168.683 111.652C168.955 111.284 169.179 110.82 169.331 110.332L169.94 108.54L169.948 108.532C170.116 108.044 170.172 107.628 170.156 107.292C170.124 107.068 170.052 106.924 169.924 106.892C169.884 106.884 169.836 106.884 169.78 106.892L167.875 107.356C167.619 107.42 167.379 107.756 167.179 108.372L165.955 111.964C165.875 112.204 165.851 112.412 165.867 112.572ZM35.0677 151.665L27.3948 153.513C26.7548 153.665 26.4027 153.265 26.3227 152.289C26.2347 151.353 26.4267 150.129 26.9228 148.648L29.3631 141.432C29.8751 139.911 30.5312 138.591 31.3553 137.407C32.1634 136.255 32.8835 135.583 33.4996 135.439L41.1805 133.599C41.2605 133.583 41.3325 133.567 41.4045 133.567C41.9005 133.551 42.1806 133.967 42.2606 134.823C42.3566 135.759 42.1566 136.967 41.6365 138.487L39.1962 145.72C38.6922 147.24 38.0281 148.552 37.228 149.713C36.4279 150.857 35.7078 151.521 35.0677 151.665ZM34.5957 146.808L37.028 139.575H37.036C37.188 139.079 37.268 138.663 37.244 138.327C37.212 138.111 37.14 137.967 37.012 137.935V137.927C36.972 137.919 36.916 137.919 36.8599 137.927L35.3478 138.295C35.1317 138.335 34.8837 138.567 34.6277 138.943C34.3557 139.319 34.1396 139.775 33.9476 140.311L31.4993 147.544C31.3393 148.024 31.2833 148.44 31.3233 148.744C31.3473 149.064 31.4593 149.2 31.6673 149.144L33.2115 148.784C33.4115 148.736 33.6516 148.504 33.9156 148.136C34.2036 147.76 34.4197 147.312 34.5957 146.808ZM189.118 103.971C189.638 102.459 189.838 101.251 189.742 100.307C189.678 99.4506 189.39 99.0426 188.886 99.0666V99.0586C188.814 99.0586 188.742 99.0746 188.654 99.0986L180.989 100.923C180.365 101.075 179.629 101.731 178.845 102.883C178.02 104.075 177.364 105.395 176.852 106.916L173.196 117.765C173.044 118.237 172.812 118.573 172.516 118.757C172.212 118.941 172.036 119.125 171.98 119.317C171.868 119.597 171.948 119.725 172.188 119.661L177.556 118.373C177.82 118.309 177.996 118.125 178.109 117.821C178.148 117.669 178.084 117.541 177.868 117.477C177.66 117.413 177.652 117.125 177.804 116.637L181.461 105.819C181.645 105.299 181.861 104.843 182.141 104.475C182.397 104.091 182.637 103.867 182.845 103.811L184.365 103.459C184.581 103.395 184.701 103.539 184.741 103.843C184.765 104.187 184.701 104.595 184.533 105.083L181.181 115.044C180.413 117.277 180.197 119.085 180.573 120.445C180.925 121.837 181.749 122.373 183.021 122.077L184.933 121.589C185.197 121.525 185.365 121.357 185.469 121.061V121.053C185.469 121.045 185.477 121.037 185.477 121.029L185.469 121.021C185.549 120.749 185.477 120.621 185.229 120.685C184.693 120.821 184.389 120.493 184.309 119.717C184.229 118.901 184.405 117.901 184.829 116.661L189.118 103.971ZM24.1305 144.32L19.5459 145.416C19.3219 145.472 19.2099 145.328 19.1779 145.024C19.1299 144.728 19.2099 144.296 19.3859 143.808C19.5619 143.288 19.7779 142.832 20.05 142.448C20.314 142.08 20.554 141.856 20.7701 141.8L26.8988 140.335C27.1068 140.271 27.3548 140.047 27.6189 139.671C27.8669 139.287 28.1069 138.839 28.2509 138.351C28.443 137.823 28.531 137.407 28.499 137.103C28.459 136.879 28.395 136.735 28.2749 136.703C28.2349 136.695 28.1869 136.695 28.1309 136.703L18.9218 138.919C18.2898 139.055 17.5777 139.711 16.7696 140.879C15.9455 142.072 15.2894 143.376 14.7854 144.904C14.2893 146.384 14.0973 147.592 14.1773 148.528C14.2573 149.512 14.6253 149.913 15.2734 149.753L19.866 148.648C20.066 148.592 20.186 148.736 20.218 149.048C20.234 149.384 20.178 149.793 20.01 150.289C19.85 150.785 19.6259 151.233 19.3539 151.601C19.0739 151.993 18.8418 152.217 18.6258 152.265L12.4971 153.737C12.2891 153.777 12.041 154.025 11.777 154.393C11.513 154.801 11.2809 155.249 11.1209 155.753C10.9369 156.249 10.8649 156.657 10.9129 156.953C10.9369 157.257 11.0489 157.409 11.2649 157.353L20.482 155.145C21.1221 154.985 21.8502 154.329 22.6503 153.177C23.4504 152.025 24.1065 150.705 24.6105 149.184C25.1146 147.672 25.3146 146.472 25.2266 145.52C25.1386 144.56 24.7705 144.168 24.1305 144.32ZM74.0403 126.134C74.1443 125.83 74.3203 125.638 74.5684 125.582L79.937 124.294C80.201 124.23 80.273 124.358 80.161 124.638C80.105 124.83 79.929 124.998 79.649 125.174C79.3529 125.366 79.1049 125.71 78.9369 126.206L77.4247 130.718C77.3367 130.966 77.2887 131.182 77.3127 131.31C77.3207 131.494 77.3927 131.542 77.5047 131.518L79.801 130.966C80.049 130.91 80.289 130.574 80.4891 129.982L82.0172 125.47C82.1933 124.966 82.1533 124.694 81.9292 124.63C81.7212 124.566 81.6412 124.446 81.7052 124.286C81.8092 123.982 81.9932 123.797 82.2413 123.725L87.6099 122.453C87.6739 122.437 87.7299 122.429 87.7699 122.437C87.8979 122.453 87.9139 122.581 87.8259 122.797C87.7699 122.981 87.5939 123.165 87.2979 123.357C87.0018 123.533 86.7778 123.869 86.6018 124.366L81.1131 140.655C80.6971 141.896 80.5211 142.904 80.5851 143.712C80.6731 144.488 80.9691 144.816 81.5132 144.688C81.7692 144.624 81.8332 144.736 81.7452 145.024L81.7372 145.056C81.7452 145.04 81.7452 145.032 81.7452 145.024H81.7372C81.6252 145.336 81.4492 145.52 81.1931 145.584L79.2729 146.072C78.0008 146.376 77.1767 145.832 76.8246 144.448C76.4646 143.08 76.6646 141.272 77.4327 139.047L78.6408 135.407C78.7369 135.159 78.7689 134.951 78.7449 134.807C78.7369 134.639 78.6808 134.567 78.5608 134.607L76.2646 135.151C76.0165 135.215 75.7845 135.551 75.5605 136.183L74.0563 140.655C73.9043 141.144 73.9123 141.432 74.1203 141.488C74.3363 141.552 74.4083 141.672 74.3603 141.832C74.2563 142.144 74.0803 142.328 73.8163 142.392L68.4396 143.68C68.1916 143.744 68.1196 143.616 68.2396 143.328C68.2956 143.144 68.4637 142.96 68.7597 142.776C69.0637 142.584 69.2957 142.248 69.4558 141.784L74.3363 127.318C74.4964 126.822 74.4724 126.55 74.2483 126.486C74.0563 126.414 73.9763 126.302 74.0403 126.134ZM45.0929 133.471C45.3089 133.535 45.3409 133.807 45.1809 134.303L41.5085 145.168C41.0124 146.64 40.8044 147.864 40.9004 148.792C40.9724 149.777 41.3325 150.169 41.9725 150.009L49.6454 148.176C50.2855 148.016 51.0136 147.36 51.8137 146.208C52.6138 145.048 53.2699 143.736 53.7739 142.216L57.4304 131.374C57.6064 130.87 57.8304 130.534 58.1264 130.358H58.1344C58.4305 130.166 58.6065 129.982 58.6625 129.798C58.7425 129.582 58.7265 129.454 58.5985 129.438C58.5585 129.43 58.5025 129.438 58.4385 129.454L53.0698 130.742C52.8218 130.798 52.6378 130.982 52.5338 131.294C52.4698 131.446 52.5498 131.574 52.7578 131.646C52.9818 131.694 53.0058 131.974 52.8458 132.479L49.1734 143.312C48.9974 143.816 48.7733 144.264 48.5013 144.648C48.2453 145.008 48.0053 145.256 47.7892 145.296L46.261 145.664C46.053 145.72 45.933 145.576 45.909 145.264C45.869 144.968 45.933 144.544 46.093 144.048L49.7655 133.207C49.9335 132.703 50.1495 132.382 50.4535 132.19C50.7576 131.998 50.9336 131.822 50.9896 131.63C51.1016 131.35 51.0296 131.222 50.7656 131.286L45.3969 132.567C45.1409 132.631 44.9649 132.807 44.8609 133.119C44.8129 133.287 44.8849 133.407 45.0929 133.471ZM59.0145 143.464C58.2705 145.68 58.0704 147.504 58.4305 148.856C58.7825 150.241 59.6066 150.793 60.8708 150.489L62.783 150.001C63.039 149.937 63.215 149.753 63.327 149.44C63.4151 149.176 63.3591 149.032 63.087 149.096C62.559 149.224 62.2549 148.896 62.1829 148.12C62.1029 147.312 62.2709 146.312 62.703 145.072L67.2715 131.502C67.4715 130.886 67.7036 130.542 67.9596 130.494L70.6399 129.846C70.8639 129.79 71.096 129.566 71.368 129.19C71.632 128.806 71.84 128.358 72.0161 127.87C72.1921 127.342 72.2801 126.934 72.2481 126.622C72.2161 126.398 72.1441 126.254 72.0161 126.222C71.9761 126.214 71.9281 126.214 71.8721 126.222L61.1268 128.79C60.9268 128.846 60.6867 129.07 60.4227 129.446C60.1427 129.854 59.9106 130.302 59.7506 130.806C59.5826 131.302 59.5186 131.718 59.5666 132.014C59.5906 132.318 59.6946 132.463 59.9106 132.414L62.591 131.774C62.695 131.742 62.759 131.814 62.775 131.982C62.807 132.118 62.775 132.318 62.687 132.567L59.0145 143.464Z" fill="black"/>
<path d="M183.558 114.778C183.15 116.026 182.966 117.019 183.03 117.835C183.126 118.619 183.43 118.939 183.958 118.803C184.222 118.739 184.302 118.867 184.19 119.179L184.198 119.147C184.094 119.459 183.91 119.651 183.646 119.707L181.733 120.195C180.461 120.491 179.645 119.963 179.285 118.563C178.925 117.203 179.133 115.394 179.893 113.162L183.246 103.201C183.414 102.721 183.478 102.305 183.462 101.961C183.422 101.657 183.302 101.521 183.07 101.569L181.549 101.937C181.349 101.993 181.101 102.217 180.853 102.593C180.573 102.969 180.349 103.425 180.165 103.937L176.517 114.754C176.357 115.242 176.373 115.53 176.581 115.594C176.797 115.65 176.869 115.778 176.821 115.938C176.717 116.234 176.533 116.426 176.285 116.498L170.908 117.787C170.66 117.843 170.58 117.723 170.7 117.427C170.756 117.243 170.94 117.067 171.228 116.875C171.532 116.683 171.756 116.354 171.916 115.882L175.573 105.041C176.077 103.529 176.733 102.209 177.549 101.009C178.349 99.8565 179.077 99.2005 179.709 99.0484L187.374 97.2082C187.454 97.1922 187.526 97.1762 187.598 97.1762C188.102 97.1602 188.39 97.5763 188.462 98.4244C188.55 99.3605 188.358 100.577 187.838 102.089L183.558 114.778ZM50.5101 144.342C51.3102 143.182 51.9662 141.869 52.4703 140.349L56.1107 129.508C56.2947 129.004 56.5188 128.668 56.8228 128.492C57.1188 128.3 57.2869 128.116 57.3429 127.932C57.4309 127.716 57.4149 127.596 57.2949 127.572C57.2549 127.564 57.1989 127.564 57.1348 127.58L51.7502 128.868C51.5022 128.932 51.3342 129.108 51.2141 129.428C51.1661 129.58 51.2302 129.716 51.4542 129.772C51.6862 129.828 51.7102 130.116 51.5422 130.612L47.8778 141.445C47.6937 141.949 47.4777 142.398 47.2057 142.782C46.9577 143.15 46.7096 143.39 46.5016 143.43L44.9734 143.79C44.7574 143.83 44.6534 143.71 44.6134 143.39C44.5734 143.086 44.6454 142.678 44.7974 142.182L48.4698 131.332C48.6378 130.836 48.8619 130.5 49.1579 130.324C49.4539 130.132 49.646 129.956 49.702 129.764C49.798 129.484 49.734 129.356 49.4619 129.42L44.1013 130.7C43.8533 130.764 43.6693 130.948 43.5733 131.252C43.5092 131.42 43.5813 131.532 43.7893 131.604C44.0133 131.668 44.0453 131.94 43.8853 132.436L40.2129 143.286C39.7168 144.782 39.5168 145.998 39.6048 146.926C39.6768 147.91 40.0368 148.302 40.6849 148.15L48.3418 146.318C48.9819 146.15 49.71 145.494 50.5101 144.342ZM22.8108 142.462L18.2343 143.558C18.0023 143.614 17.8982 143.47 17.8582 143.166C17.8182 142.862 17.9062 142.438 18.0743 141.949C18.2503 141.429 18.4583 140.973 18.7383 140.589C18.9944 140.213 19.2344 139.997 19.4504 139.941L25.5791 138.469C25.8032 138.413 26.0352 138.189 26.3072 137.805C26.5553 137.429 26.7793 136.981 26.9473 136.493C27.1233 135.957 27.2113 135.541 27.1793 135.237C27.1393 135.005 27.0753 134.869 26.9553 134.837C26.9153 134.829 26.8673 134.829 26.8113 134.845L17.6022 137.053C16.9701 137.205 16.2501 137.861 15.442 139.013C14.6179 140.205 13.9618 141.525 13.4577 143.046C12.9617 144.526 12.7696 145.742 12.8577 146.67C12.9377 147.654 13.3057 148.046 13.9458 147.894L18.5543 146.798C18.7543 146.742 18.8824 146.886 18.9064 147.19C18.9144 147.526 18.8584 147.934 18.6903 148.422C18.5463 148.926 18.3143 149.374 18.0343 149.75C17.7542 150.126 17.5222 150.358 17.3142 150.414L11.1695 151.879C10.9694 151.919 10.7294 152.159 10.4574 152.543C10.1933 152.943 9.96131 153.391 9.8093 153.903C9.62527 154.391 9.56127 154.791 9.60127 155.103C9.62528 155.407 9.73729 155.551 9.94531 155.503L19.1624 153.303C19.8025 153.143 20.5306 152.479 21.3306 151.327C22.1307 150.166 22.7868 148.854 23.2909 147.334C23.8029 145.814 24.003 144.614 23.9069 143.662C23.8269 142.702 23.4589 142.31 22.8108 142.462ZM134.136 131.604L136.04 131.108C136.304 131.044 136.472 130.86 136.584 130.54C136.68 130.268 136.608 130.148 136.344 130.204C135.824 130.332 135.528 130.004 135.44 129.228C135.368 128.428 135.536 127.42 135.968 126.172L140.545 112.61C140.737 111.994 140.969 111.658 141.217 111.602L143.897 110.954C144.121 110.898 144.361 110.666 144.625 110.298H144.633C144.897 109.914 145.121 109.466 145.281 108.978C145.465 108.442 145.537 108.025 145.521 107.721C145.473 107.425 145.361 107.273 145.145 107.321L134.4 109.898C134.192 109.954 133.952 110.178 133.696 110.554C133.408 110.962 133.192 111.418 133.016 111.914C132.856 112.41 132.784 112.818 132.84 113.114C132.864 113.418 132.976 113.57 133.184 113.514L135.872 112.874C135.96 112.85 136.032 112.914 136.04 113.082C136.072 113.226 136.04 113.426 135.952 113.674L132.28 124.555C131.536 126.78 131.328 128.596 131.696 129.956C132.04 131.348 132.864 131.9 134.136 131.604ZM117.694 123.883L122.294 122.787C122.503 122.731 122.615 122.875 122.647 123.187C122.663 123.523 122.607 123.931 122.447 124.427C122.286 124.931 122.054 125.372 121.774 125.756C121.502 126.132 121.262 126.372 121.062 126.412L114.926 127.876C114.71 127.924 114.478 128.164 114.206 128.532C113.942 128.94 113.709 129.388 113.549 129.884C113.373 130.388 113.293 130.796 113.341 131.092C113.365 131.396 113.485 131.548 113.693 131.5L122.903 129.292C123.551 129.132 124.271 128.476 125.079 127.324C125.879 126.172 126.535 124.835 127.031 123.331C127.543 121.819 127.743 120.611 127.655 119.659C127.567 118.691 127.199 118.291 126.559 118.451L121.974 119.555C121.75 119.611 121.638 119.467 121.606 119.163C121.566 118.867 121.646 118.435 121.822 117.939C121.99 117.427 122.214 116.971 122.486 116.586C122.743 116.218 122.991 115.986 123.199 115.946L129.319 114.466C129.543 114.41 129.783 114.186 130.055 113.81C130.319 113.426 130.543 112.978 130.695 112.49C130.887 111.962 130.967 111.546 130.936 111.242C130.903 111.018 130.831 110.874 130.711 110.842C130.671 110.834 130.623 110.834 130.567 110.842L121.358 113.05C120.734 113.194 120.014 113.85 119.214 115.01C118.39 116.21 117.734 117.539 117.222 119.051C116.718 120.531 116.526 121.747 116.622 122.683C116.694 123.643 117.054 124.043 117.694 123.883ZM72.9607 124.627C73.1767 124.691 73.2087 124.963 73.0487 125.452L68.1521 139.925C68.0081 140.381 67.7761 140.717 67.4721 140.909C67.176 141.093 66.984 141.277 66.944 141.461C66.832 141.749 66.904 141.877 67.152 141.813L72.5206 140.525C72.7847 140.461 72.9687 140.277 73.0647 139.965C73.1207 139.813 73.0487 139.693 72.8327 139.621C72.6247 139.557 72.6087 139.269 72.7687 138.781L74.2809 134.309C74.4969 133.685 74.7289 133.34 74.9849 133.276L77.2732 132.724C77.3932 132.692 77.4492 132.764 77.4652 132.932C77.4812 133.076 77.4412 133.276 77.3532 133.532L76.1451 137.173C75.377 139.405 75.169 141.213 75.529 142.574C75.889 143.974 76.7131 144.502 77.9773 144.206L79.8975 143.718C80.1535 143.654 80.3136 143.478 80.4336 143.19V143.182C80.4336 143.174 80.4416 143.166 80.4496 143.158H80.4416L80.4336 143.182C80.5296 142.878 80.4656 142.75 80.2016 142.814C79.6735 142.95 79.3775 142.622 79.2894 141.845C79.2094 141.037 79.3855 140.029 79.8095 138.789L85.2821 122.507C85.4662 122.011 85.6902 121.675 85.9942 121.499C86.2903 121.307 86.4663 121.123 86.5223 120.939C86.6103 120.723 86.5863 120.603 86.4583 120.579C86.4183 120.571 86.3623 120.579 86.2983 120.595L80.9296 121.867C80.6816 121.939 80.4976 122.115 80.3936 122.427C80.3216 122.587 80.4016 122.707 80.6096 122.779C80.8496 122.843 80.8736 123.115 80.7056 123.603L79.1774 128.124C78.9854 128.724 78.7374 129.06 78.4973 129.116L76.2011 129.668C76.0811 129.692 76.0171 129.636 76.0011 129.46C75.9851 129.324 76.0331 129.116 76.1291 128.868L77.6332 124.355C77.8093 123.859 78.0493 123.523 78.3533 123.323C78.6414 123.147 78.8174 122.979 78.8574 122.787C78.9774 122.499 78.8974 122.371 78.6414 122.435L73.2647 123.723C73.0247 123.787 72.8487 123.963 72.7367 124.275C72.6807 124.451 72.7527 124.555 72.9607 124.627ZM40.3169 136.621L37.8766 143.846C37.3725 145.374 36.7165 146.686 35.9164 147.838C35.1243 148.99 34.3882 149.654 33.7481 149.806L26.0752 151.647C25.4351 151.799 25.0831 151.407 25.0191 150.422C24.9231 149.486 25.1071 148.262 25.6192 146.782L28.0514 139.565C28.5635 138.045 29.2116 136.725 30.0357 135.541C30.8438 134.389 31.5638 133.717 32.1879 133.572L39.8608 131.732C39.9408 131.716 40.0128 131.7 40.0848 131.7C40.5889 131.684 40.8769 132.1 40.9489 132.948C41.037 133.885 40.8369 135.101 40.3169 136.621ZM35.9324 136.469C35.9004 136.245 35.8283 136.109 35.7003 136.077C35.6603 136.069 35.6043 136.069 35.5483 136.085L34.0361 136.453C33.8201 136.493 33.5801 136.725 33.3161 137.101C33.044 137.477 32.828 137.933 32.636 138.469L30.1957 145.702C30.0197 146.182 29.9637 146.598 30.0117 146.902C30.0357 147.214 30.1477 147.35 30.3557 147.302L31.8919 146.942C32.0999 146.894 32.3479 146.662 32.612 146.294C32.884 145.902 33.108 145.462 33.276 144.966L35.7163 137.733H35.7243C35.8764 137.221 35.9564 136.805 35.9324 136.469ZM57.7109 141.605C56.9508 143.822 56.7588 145.646 57.1188 147.006C57.4709 148.39 58.287 148.942 59.5511 148.638L61.4714 148.142C61.7274 148.078 61.9034 147.902 62.0154 147.582C62.1034 147.318 62.0394 147.19 61.7754 147.238C61.2473 147.366 60.9433 147.038 60.8713 146.262C60.7913 145.454 60.9593 144.454 61.3833 143.214L65.9599 129.644C66.1599 129.028 66.3919 128.684 66.648 128.636L69.3283 127.996C69.5523 127.932 69.7843 127.708 70.0484 127.332C70.3044 126.948 70.5284 126.5 70.7044 126.012C70.8725 125.484 70.9605 125.067 70.9285 124.763C70.8965 124.539 70.8244 124.395 70.7044 124.363C70.6644 124.355 70.6164 124.355 70.5604 124.363L59.8152 126.932C59.5991 126.988 59.3751 127.212 59.1111 127.588C58.831 127.996 58.599 128.444 58.423 128.948C58.271 129.444 58.199 129.86 58.247 130.156C58.271 130.46 58.383 130.604 58.591 130.556L61.2793 129.916C61.3753 129.884 61.4394 129.956 61.4554 130.124C61.4874 130.26 61.4634 130.468 61.3593 130.708L57.7109 141.605ZM170.612 112.178C170.66 112.81 170.516 113.634 170.18 114.626L168.956 118.267C168.548 119.515 168.38 120.507 168.444 121.323C168.532 122.099 168.836 122.419 169.364 122.291C169.62 122.227 169.708 122.363 169.604 122.667H169.596L169.604 122.635C169.5 122.947 169.324 123.123 169.06 123.195L167.132 123.691C165.868 123.995 165.051 123.451 164.683 122.051C164.331 120.691 164.563 118.867 165.292 116.659L165.604 115.73C165.764 115.242 165.828 114.826 165.796 114.522C165.756 114.218 165.636 114.074 165.436 114.122L163.539 114.554C163.275 114.61 163.035 114.954 162.827 115.562L161.923 118.259C161.755 118.755 161.779 119.027 161.987 119.099C162.195 119.155 162.267 119.291 162.227 119.443C162.131 119.739 161.939 119.931 161.683 119.987L156.314 121.283C156.05 121.347 155.986 121.219 156.106 120.931C156.154 120.747 156.33 120.571 156.635 120.379C156.939 120.187 157.163 119.859 157.315 119.387L162.203 104.929C162.371 104.433 162.347 104.153 162.115 104.089C161.907 104.025 161.835 103.905 161.899 103.745C161.995 103.441 162.187 103.257 162.419 103.185L172.772 100.705C172.852 100.689 172.932 100.673 173.004 100.673C173.508 100.657 173.805 101.065 173.869 101.921C173.957 102.857 173.757 104.073 173.244 105.593L172.644 107.385C172.3 108.37 171.86 109.266 171.332 110.05C170.796 110.834 170.332 111.258 169.892 111.362C170.308 111.282 170.548 111.522 170.612 112.178ZM168.868 105.433C168.828 105.201 168.756 105.065 168.628 105.033C168.588 105.025 168.54 105.025 168.484 105.041L166.58 105.505C166.316 105.577 166.092 105.905 165.876 106.529L164.659 110.106C164.579 110.362 164.547 110.57 164.571 110.722C164.579 110.906 164.643 110.962 164.739 110.954L166.66 110.498C166.876 110.442 167.116 110.21 167.38 109.802C167.652 109.434 167.876 108.986 168.036 108.49L168.644 106.697L168.652 106.689C168.82 106.185 168.884 105.769 168.868 105.433ZM147.529 107.601C147.753 107.657 147.777 107.937 147.617 108.426L142.737 122.899C142.577 123.347 142.353 123.699 142.041 123.883C141.745 124.067 141.577 124.251 141.521 124.443C141.401 124.731 141.473 124.851 141.721 124.787L153.618 121.923C153.834 121.891 154.074 121.651 154.338 121.291C154.602 120.899 154.826 120.459 155.01 119.955C155.178 119.443 155.25 119.011 155.218 118.715C155.178 118.419 155.05 118.275 154.85 118.323L148.33 119.867C148.234 119.899 148.154 119.835 148.154 119.667C148.138 119.539 148.178 119.315 148.266 119.067L148.858 117.283C149.074 116.667 149.298 116.338 149.53 116.266L154.546 115.066C154.754 115.01 155.002 114.778 155.258 114.41C155.538 114.034 155.738 113.578 155.898 113.098C156.09 112.57 156.17 112.154 156.138 111.842C156.098 111.538 155.978 111.402 155.77 111.45L150.794 112.626C150.682 112.666 150.61 112.602 150.602 112.426C150.586 112.29 150.626 112.082 150.706 111.834L151.314 110.042C151.53 109.418 151.762 109.082 152.018 109.026L158.523 107.457C158.747 107.401 158.979 107.177 159.251 106.801C159.507 106.425 159.723 105.969 159.899 105.481C160.083 104.961 160.171 104.545 160.139 104.233C160.091 103.929 159.979 103.793 159.755 103.833L147.833 106.689C147.593 106.753 147.417 106.937 147.313 107.241C147.241 107.401 147.321 107.521 147.529 107.601ZM90.5068 131.26C90.7228 130.636 90.9388 130.3 91.1788 130.236L96.1954 129.044C96.4035 128.988 96.6435 128.764 96.9075 128.388C97.1875 128.004 97.3876 127.556 97.5476 127.06C97.7316 126.54 97.8196 126.124 97.7876 125.82C97.7396 125.516 97.6196 125.372 97.4196 125.42L92.443 126.62C92.331 126.644 92.259 126.58 92.251 126.412C92.227 126.268 92.259 126.06 92.339 125.812L92.955 124.019C93.1711 123.395 93.3951 123.051 93.6591 122.995L100.164 121.435C100.388 121.379 100.62 121.155 100.892 120.779H100.9C101.156 120.395 101.372 119.947 101.54 119.459C101.724 118.931 101.812 118.515 101.78 118.211C101.748 117.987 101.676 117.843 101.548 117.811C101.508 117.803 101.46 117.803 101.404 117.811L89.5066 120.659C89.2586 120.723 89.0826 120.915 88.9706 121.219C88.9066 121.379 88.9866 121.507 89.1946 121.563C89.4186 121.627 89.4426 121.915 89.2826 122.395L84.394 136.869C84.242 137.317 84.01 137.661 83.714 137.853C83.4099 138.045 83.2419 138.221 83.1859 138.413C83.0659 138.693 83.1459 138.821 83.3859 138.757L95.2753 135.901C95.4993 135.861 95.7394 135.629 95.9954 135.261C96.2674 134.869 96.4835 134.429 96.6675 133.941C96.8355 133.42 96.8995 132.996 96.8675 132.692C96.8275 132.388 96.7075 132.244 96.5075 132.292L89.9867 133.845C89.8747 133.869 89.8187 133.805 89.8107 133.645C89.7867 133.508 89.8347 133.292 89.9227 133.044L90.5068 131.26ZM106.357 136.029C105.989 134.669 106.197 132.86 106.949 130.636L107.541 128.828C107.629 128.58 107.661 128.372 107.637 128.228C107.621 128.068 107.581 127.988 107.469 128.012L105.188 128.532C104.932 128.596 104.684 128.94 104.468 129.54L103.572 132.236C103.412 132.732 103.428 133.012 103.636 133.068C103.844 133.14 103.916 133.268 103.876 133.42C103.772 133.717 103.588 133.909 103.332 133.965L97.9636 135.261C97.7156 135.325 97.6436 135.197 97.7476 134.917C97.8036 134.733 97.9876 134.557 98.2837 134.365C98.5877 134.173 98.8117 133.837 98.9557 133.38L102.62 122.523C103.132 121.011 103.788 119.683 104.612 118.499C105.404 117.347 106.133 116.691 106.757 116.53L114.422 114.698C114.502 114.682 114.582 114.666 114.654 114.666C115.158 114.65 115.446 115.058 115.518 115.914C115.598 116.859 115.414 118.067 114.886 119.587L110.621 132.252C110.197 133.492 110.013 134.493 110.101 135.309C110.181 136.085 110.493 136.405 111.021 136.277C111.293 136.221 111.357 136.349 111.253 136.653V136.621C111.157 136.933 110.981 137.125 110.717 137.181L108.789 137.677C107.517 137.973 106.701 137.429 106.357 136.029ZM108.709 124.363C108.949 124.307 109.181 123.971 109.373 123.387L110.301 120.659H110.309C110.485 120.171 110.533 119.747 110.525 119.419C110.493 119.195 110.413 119.051 110.285 119.027C110.245 119.019 110.197 119.019 110.141 119.035L108.613 119.395C108.405 119.435 108.173 119.675 107.909 120.051C107.629 120.427 107.405 120.875 107.237 121.411L106.325 124.091C106.229 124.347 106.205 124.547 106.229 124.715C106.237 124.875 106.285 124.939 106.397 124.931L108.709 124.363Z" fill="white"/>
</g>
<defs>
<clipPath id="clip0_154_2439">
<rect width="200" height="200" fill="white"/>
</clipPath>
</defs>
</svg>
