<svg width="200" height="200" viewBox="0 0 200 200" fill="none" xmlns="http://www.w3.org/2000/svg">
<g clip-path="url(#clip0_154_2424)">
<path fill-rule="evenodd" clip-rule="evenodd" d="M24.7409 -1.06468L85.9016 -0.618256L104.204 16.7926V36.8823L157.775 36.4359V77.5068H172.508L172.061 113.667L190.364 157.864L201.078 157.417V198.488L81.8823 198.042L83.2216 169.024L76.5252 158.756L49.7396 158.31V119.471L24.2926 119.917L1.97093 98.0424V68.1314H14.4709L1.52453 55.6313L1.07812 20.3628L24.7409 -1.06468Z" fill="#3F2A55"/>
<path d="M187.894 160.9L167.215 111.373H168.576V81.1767H103.947V72.034H116.04V78.3877H154.009V40.3028H100.656V18.1375L85.0844 3.15985H26.3103L5.82148 21.8601V53.3219L21.3967 70.0178H61.3126V82.4887H42.6448V72.8563H5.82031V96.7118L26.3091 115.877H62.9161V123.671H54.2258V154.697H99.0423L95.8965 162.221H86.5048V194.496H139.157V170.022H144.934V194.496H197.275V160.901H187.892" fill="#B1B3B3"/>
<path d="M27.6784 7.02734L9.91211 23.5706V51.5707L22.6491 66.0253H56.0848V61.5585H25.0285L14.6749 49.5353V25.7234L29.5617 11.4549H81.3969L93.1652 22.2094V31.0077H74.8812V24.7042H33.9362V49.0258H56.0849V44.389H38.8568V29.3719H69.9919V35.6886H96.8995V20.3113L83.4723 7.02748L27.6784 7.02734ZM60.156 44.3862V66.0199H67.0196V127.537H58.1522V150.649H100.777L107.624 135.515V127.537H99.3994V105.755H116.364V101.31H95.017V132.074H102.73V146.031H63.1464L63.1677 132.074H71.905V61.4939H64.954V48.7754H145.057V69.8044H125.127V63.4212H95.0169V89.9225H116.364V85.3203H99.8709V68.0609H120.201V74.6059H149.933V44.3895H60.1557L60.156 44.3862ZM9.91211 76.8517V94.9182L27.6784 111.985H62.9785V107.369H29.5632L14.6927 92.4987V81.4682H33.576V91.0469H62.9785V86.4447H38.8635V76.8527L9.91211 76.8517ZM120.357 84.883V107.862H124.553L98.7609 165.644H90.5384V190.313H135.032V165.644H149.08V190.313H192.946V164.394H185.127L161.277 107.861H164.531V84.8817H120.356L120.357 84.883Z" fill="white"/>
<path d="M131.924 150.027H151.952L142.922 127.509L131.924 150.027Z" fill="white"/>
<path d="M29.5668 11.457L33.609 17.8534H77.1685L84.6026 24.8762L93.1674 22.2115L81.4017 11.457H29.5668ZM84.6026 24.8762L74.883 24.7063V31.0098H84.6022L84.6026 24.8762ZM33.609 17.8534L23.5 27.4161V47.0753L29.7637 55.2048L33.9387 49.026V24.7017L33.609 17.8534ZM29.7625 55.2041L25.0308 61.5583H56.0871V55.2043L29.7637 55.2048L29.7625 55.2041ZM73.125 55.9499L64.9582 61.4943H71.9067V132.08H63.1747L63.1535 146.036L72.0049 138.607H83.4893L83.3857 94.2386L95.0213 101.312H116.371L116.416 94.1856H83.3853L83.3004 55.953L95.0209 63.4216H125.129V69.8048L135.05 62.8165V55.9504H83.3001L73.125 55.9499ZM33.5756 81.4686L24.188 81.5111V90.7819L32.2353 98.5717L29.5626 107.37H59.0235V98.5717H32.2383L33.5759 91.042L33.5756 81.4686ZM125.301 89.5318V102.789L132.319 96.3767H152.869L159.483 89.5318H125.301ZM131.716 102.789L102.155 169.912H95.4479V185.391L104.031 178.581H122.034L130.121 169.912L113.318 169.958L120.532 154.79L142.776 102.79L131.716 102.789ZM142.776 102.79L142.914 127.509L151.943 150.023L165.02 154.891L120.532 154.787L128.163 161.053H156.782L160.787 169.91H153.977V185.389L162.054 178.579H180.407L188.016 169.911H171.573L142.777 102.788L142.776 102.79Z" fill="#5F259F"/>
<path d="M29.5625 11.4538L14.6758 25.7222V49.5397L25.0294 61.5575L29.7616 55.201L23.4979 47.0741V27.4149L33.6074 17.8548L33.9365 24.7024H74.8815L84.6008 24.8723L77.1666 17.8495H33.6071V17.8522L29.5625 11.4538ZM84.6008 24.8723L84.6007 31.0066H93.1654V22.2083L84.6008 24.8723ZM29.7616 55.201L56.091 55.2008V49.0195H33.9368L29.7616 55.201ZM43.1045 33.2247V40.2979H65.8131V33.2247H43.1045ZM64.9556 48.7719V61.4904L73.1249 55.9459H135.05V62.8095L125.129 69.8003H145.058V48.7713L64.9556 48.7719ZM83.3007 55.9512L83.3857 94.1811H116.37V89.9187H95.0206V63.4201L83.3007 55.9512ZM14.6981 81.4646V92.4923L29.5658 107.365L32.2357 98.5671L24.1885 90.7774V81.5065L14.6981 81.4646ZM32.2357 98.5671L59.024 98.5676V107.366H62.9787V91.0375H33.5762L32.2357 98.5671ZM159.485 89.5251L152.871 96.3675H132.32L125.303 102.782H142.771H142.777L171.573 169.907H181.783L153.974 102.782H159.483L159.485 89.5251ZM142.771 102.782L120.528 154.785L165.021 154.888L151.941 150.021H131.911L142.91 127.506L142.772 102.784L142.771 102.782ZM120.528 154.785L113.319 169.953L123.745 169.924L128.164 161.051L120.528 154.785ZM83.3863 94.2336L83.4846 138.607H72.0055L63.1488 146.031H102.738V132.075H95.0221V101.305L83.3866 94.2319L83.3863 94.2336ZM103.578 109.582V123.536H111.806V125.81L118.237 112.146H116.19V109.582L103.578 109.582ZM130.122 169.908L122.035 178.576H104.032L95.4485 185.387H130.122L130.122 169.908ZM188.016 169.908L180.407 178.576H162.051L153.974 185.387H188.016V169.908Z" fill="#3F2A55"/>
<path d="M139.941 145.359L142.917 139.022L145.59 145.359H139.941Z" fill="#B1B3B3"/>
</g>
<defs>
<clipPath id="clip0_154_2424">
<rect width="200" height="199.56" fill="white"/>
</clipPath>
</defs>
</svg>
