<svg width="198" height="198" viewBox="0 0 198 198" fill="none" xmlns="http://www.w3.org/2000/svg">
<path d="M189.203 98.9982C189.203 148.817 148.818 189.203 98.9982 189.203C49.182 189.203 8.79688 148.818 8.79688 98.9982C8.79688 49.182 49.182 8.79688 98.9982 8.79688C148.817 8.79688 189.203 49.182 189.203 98.9982Z" fill="#0A2846"/>
<path fill-rule="evenodd" clip-rule="evenodd" d="M5.27344 98.9976C5.27344 150.764 47.2362 192.727 98.9989 192.727C150.765 192.727 192.728 150.762 192.728 98.9976C192.728 47.2349 150.764 5.27214 98.9989 5.27214C47.2363 5.27214 5.27344 47.235 5.27344 98.9976ZM98.9989 185.678C51.129 185.678 12.3216 146.871 12.3216 98.9976C12.3216 51.1276 51.1289 12.3203 98.9989 12.3203C146.871 12.3203 185.68 51.1278 185.68 98.9976C185.68 146.87 146.872 185.678 98.9989 185.678Z" fill="#EDAC09"/>
<path d="M115.966 27.0872C118.234 28.7323 120.258 30.61 121.991 32.6857C114.259 29.4559 105.537 27.6028 96.7156 27.3606C81.8819 26.9602 67.9803 31.25 56.3329 38.9308C60.3229 38.2176 64.4222 37.8393 68.6077 37.8427C62.4112 40.235 25.0682 56.5254 27.3696 100.719C32.3112 85.0516 42.9606 71.9132 56.8858 63.758C43.8017 75.7729 35.5957 93.019 35.5957 112.179C35.5957 132.876 45.1655 151.332 60.1134 163.38C55.5277 157.405 52.8012 149.93 52.8012 141.811C52.8012 139.258 53.0731 136.77 53.5844 134.368C55.1825 143.828 60.585 151.989 68.1618 157.235C64.7066 147.434 61.8777 133.141 65.5649 116.82C65.5649 116.82 66.6991 134.378 84.5844 148.844C96.6252 158.581 96.6004 168.073 94.4198 174.371C112.12 170.098 115.594 161.597 115.594 161.597C115.796 166.226 114.896 170.282 113.292 173.835C120.326 169.357 124.657 163.269 124.657 156.561C124.657 148.571 118.525 141.463 108.997 136.911C123.165 141.019 133.032 150.187 133.032 160.845C133.032 162.437 132.806 163.994 132.385 165.508C144.792 149.456 133.907 138.923 128.511 136.191C125.439 134.294 121.704 132.428 117.172 130.661C90.2608 120.191 102.798 95.6278 103.878 93.7636C103.878 93.7636 102.487 106.097 109.565 114.633C109.249 111.726 109.791 108.385 111.705 104.577C111.705 104.577 111.24 117.779 132.422 126.288L132.396 126.298C137.826 128.629 143.331 131.546 147.304 135.408C151.59 140.158 149.711 144.523 149.711 144.523C149.711 144.523 155.983 141.383 158.769 134.856C161.554 128.322 158.327 122.413 158.327 122.413C160.06 120.005 160.797 117.56 161.113 116.005C160.649 116.18 150.819 119.961 145.684 121.115C137.236 123.016 136.625 114.545 136.548 114.528C136.514 114.521 138.631 115.926 140.653 116.205C145.545 116.875 158.579 113.335 158.579 113.335C161.146 112.598 164.608 110.023 164.608 110.023C164.491 111.073 164.235 112.139 163.925 113.135C164.48 112.9 165.125 112.433 165.791 111.569C167.006 109.994 168.207 108.155 169.035 106.843C167.373 107.045 165.67 108.073 165.67 108.073C165.509 105.577 160.766 104.803 159.178 103.494C157.59 102.189 157.922 99.1942 157.922 99.1942C161.895 101.075 167.311 99.7419 170.733 99.9774L156.955 82.4938C156.955 82.4938 155.48 80.7387 155.279 78.3567C154.794 72.5566 150.361 67.3751 146.468 63.7109C146.475 63.6938 146.479 63.6804 146.479 63.6635C144.1 61.4935 138.663 56.8516 132.301 53.5916C132.301 53.5916 142.696 55.5656 147.056 58.7853C147.063 58.5229 147.077 58.2644 147.077 58.002C147.077 42.1357 133.515 29.0484 115.966 27.0872Z" fill="#EDAC09"/>
<path d="M104.601 48.1719C95.8563 48.1747 92.8442 55.1922 92.589 61.6824C92.3367 68.1688 91.3812 74.8102 87.9258 76.6635C87.9258 76.6635 101.123 76.0993 105.555 67.2076C105.735 66.8673 105.905 66.5432 106.084 66.2237C105.565 66.1869 105.035 66.1604 104.506 66.1604C101.841 66.1604 99.2984 66.6207 96.8988 67.4581C100.48 63.5084 105.224 60.7637 110.555 59.8583C108.372 59.3035 105.328 59.0691 103.202 59.3952C107.691 57.4199 112.729 56.7668 117.776 57.8131C118.399 57.9444 119.014 58.1108 119.619 58.2856C118.815 57.091 112.549 48.1719 104.601 48.1719ZM134.958 74.8291C134.24 74.8499 133.493 74.9066 132.775 75.0285C128.966 75.674 127.009 77.0255 127.009 77.0255C127.728 76.9149 128.607 76.983 129.486 77.1314C129.382 77.3799 129.259 77.862 129.618 78.4716C131.121 80.7484 134.684 81.8561 138.417 80.9572C140.307 82.9628 145.052 87.5192 150.212 88.5957C147.396 87.1667 144.409 83.8588 142.32 80.3599C142.027 79.8685 141.744 79.3779 141.489 78.8865C140.402 76.7807 139.542 75.6532 138.956 75.0502C138.956 75.0502 137.094 74.7657 134.958 74.8291Z" fill="#0A2846"/>
</svg>
