<svg width="200" height="200" viewBox="0 0 200 200" fill="none" xmlns="http://www.w3.org/2000/svg">
<path d="M98.6084 14.29C115.921 10.1094 132.98 10.6964 149.732 16.2129H149.733C157.974 18.8948 164.716 22.015 169.799 25.7256C170.781 26.4423 171.089 27.7711 170.522 28.8467L155.412 57.5312C155.091 58.1417 154.526 58.5888 153.858 58.7617C153.19 58.9346 152.481 58.8171 151.903 58.4395C145.845 54.4765 138.192 51.502 128.818 49.5322L127.945 49.3594C109.627 45.8298 92.7754 49.1236 77.1621 59.3037C62.2404 69.0495 53.7157 80.901 51.1299 94.8281C51.1287 94.8347 51.1272 94.8411 51.126 94.8477C50.2211 99.5076 50.0244 104.833 50.4424 110.861L51.6396 123.311L51.6475 123.431C52.1295 133.697 51.8104 141.646 50.582 147.021C49.0202 153.919 46.2252 159.487 42.0693 163.522C37.8926 167.578 32.5152 169.916 26.1143 170.639C24.8556 170.781 23.6963 169.94 23.4404 168.699C23.1846 167.459 23.9166 166.227 25.1289 165.859L26.5928 165.415C27.3603 165.098 28.1377 164.64 28.9492 163.98L29.3115 163.674C32.3744 160.97 34.6047 156.503 35.752 149.757C35.762 149.698 35.7748 149.64 35.7891 149.582C37.2816 143.527 35.8438 133.676 30.9131 119.506C30.9108 119.499 30.9085 119.492 30.9062 119.485C28.752 113.116 27.4927 105.963 27.1816 98.0059L27.1318 96.4033C26.8851 85.5479 28.6131 75.3519 32.2305 65.7881L32.2314 65.7861C42.1427 39.6388 64.4392 22.5279 98.6084 14.29Z" fill="#004F39" stroke="white" stroke-width="4.9" stroke-linejoin="round"/>
<path d="M107.419 77.2607C124.01 75.5649 137.504 80.0696 147.455 91.0703H147.454C152.378 96.3888 155.643 101.997 157.288 107.85L157.733 109.396C162.38 125.265 168.522 137.597 176.077 146.645C176.896 147.625 176.844 149.065 175.957 149.983C175.07 150.902 173.633 151.005 172.625 150.222C170.757 148.771 167.701 147.442 163.158 146.326L156.91 145.19C155.954 145.017 155.185 144.305 154.938 143.365L152.388 133.633C151.187 152.161 153.023 169.342 158.028 185.248C158.315 186.16 158.058 187.155 157.364 187.812C156.671 188.47 155.663 188.675 154.768 188.34C146.136 185.109 136.31 179.35 125.266 171.171C125.24 171.152 125.215 171.132 125.19 171.112L112.142 160.653L74.0527 167.829C72.9183 168.043 71.7848 167.452 71.3105 166.399C70.8363 165.347 71.145 164.106 72.0566 163.397C72.5641 163.003 73.3288 161.908 74.0508 159.498C74.7453 157.179 75.2967 154.004 75.6699 149.938L75.6719 149.916C76.0691 145.959 76.164 142.859 76.0156 140.566C75.8594 138.152 75.4521 137.035 75.2012 136.674C75.194 136.663 75.1867 136.653 75.1797 136.643C74.4251 135.52 73.8792 133.929 73.4355 132.128C72.9762 130.263 72.5684 127.919 72.2051 125.111C72.203 125.095 72.201 125.079 72.1992 125.063L71.3623 117.422C70.6711 114.657 71.2112 111.262 72.5078 107.438C73.9292 103.052 76.0978 98.901 78.9346 94.9385L78.9443 94.9238C86.3256 84.7618 95.4718 78.7814 106.359 77.3818L107.419 77.2607ZM149.162 121.323C144.823 118.169 140.578 117.635 136.148 119.39L136.149 119.391C134.608 120.004 133.144 120.86 131.885 121.87L131.46 122.287C132.74 124.38 135.549 126.286 140.866 127.662L150.396 129.082C150.714 129.13 151.011 129.235 151.275 129.388L149.162 121.323ZM117.729 48.71C123.178 48.9596 128.911 49.9076 134.97 51.7939C136.119 52.1521 136.851 53.2797 136.709 54.4756C136.567 55.6714 135.592 56.5964 134.391 56.6758C132.072 56.8291 129.538 57.5652 126.681 58.9229L126.104 59.2021C120.225 62.1215 116.617 66.4477 115.19 72.3271C114.918 73.4482 113.914 74.2373 112.761 74.2373H111.143C110.47 74.2373 109.827 73.9666 109.356 73.4863C109.115 73.2401 108.931 72.9493 108.81 72.6338C108.524 73.3752 107.896 73.9588 107.089 74.1621L103.662 75.0254C102.993 75.1938 102.285 75.0786 101.704 74.707C101.621 74.654 101.543 74.5949 101.468 74.5332C101.239 75.1067 100.802 75.595 100.208 75.873L96.21 77.7432C95.5816 78.0372 94.8593 78.0572 94.2158 77.7979C93.9672 77.6976 93.7399 77.5581 93.5391 77.3887C93.3559 77.81 93.0556 78.1859 92.6494 78.4609L89.6035 80.5234C88.7442 81.1053 87.6522 81.0802 86.834 80.5459C86.7889 81.0519 86.5927 81.5464 86.2422 81.9541L83.7676 84.832C83.3209 85.3514 82.6803 85.6651 81.9961 85.6992C81.7366 85.7121 81.4797 85.6832 81.2334 85.6182C81.3598 86.2915 81.2108 87.0111 80.7676 87.5938L78.5781 90.4717C78.0618 91.1505 77.2605 91.4929 76.46 91.4521C76.4949 91.9039 76.4102 92.3608 76.2021 92.7725L74.9639 95.2197C74.4385 96.2578 73.2666 96.7963 72.1367 96.5186L71.9375 96.4688C71.9577 96.4982 71.98 96.5262 71.999 96.5566C72.3705 97.152 72.4747 97.8768 72.2861 98.5527L71.4287 101.622C71.1536 102.608 70.305 103.327 69.2871 103.437C67.3604 103.643 65.4676 104.176 63.4551 105.188C59.623 107.227 57.5773 110.355 57.1348 114.774C56.9448 116.76 56.786 118.221 56.6572 119.117C56.6039 119.488 56.5265 119.991 56.4004 120.369C56.3739 120.449 56.2741 120.752 56.0537 121.07C55.9507 121.219 55.668 121.599 55.1475 121.873C54.4847 122.221 53.6228 122.288 52.8379 121.889C52.2226 121.575 51.9169 121.105 51.8096 120.924C51.6788 120.704 51.6087 120.509 51.5742 120.404C51.5039 120.191 51.4715 120.005 51.457 119.912C51.3663 119.331 51.3619 118.174 51.3779 116.79C51.3953 115.284 51.4468 113.205 51.5303 110.562L51.5312 110.534C51.7224 106.007 51.9627 102.395 52.2773 99.7393C52.4343 98.4148 52.6164 97.2733 52.834 96.3516C53.0278 95.5308 53.3238 94.5343 53.8887 93.7852L54 93.6475C54.5777 92.9843 55.4665 92.6704 56.3398 92.832L59.6084 93.4365L56.1445 92.585C55.4218 92.4072 54.8156 91.9169 54.4912 91.2471C54.1669 90.5772 54.1581 89.7973 54.4668 89.1201L56.8945 83.7959L57.0078 83.5762C57.2977 83.0777 57.7526 82.6919 58.2979 82.4893C58.9207 82.2578 59.6102 82.2838 60.2139 82.5615L65.5244 85.0049L60.0352 81.582C59.4348 81.2076 59.0217 80.596 58.8975 79.8994C58.7732 79.2028 58.9498 78.4857 59.3838 77.9268L63.667 72.4111L63.8379 72.2129C64.2579 71.7752 64.826 71.5025 65.4365 71.4521C65.8149 71.421 66.1901 71.4791 66.5371 71.6123C66.4612 71.3666 66.4228 71.108 66.4258 70.8457C66.4337 70.1518 66.73 69.4925 67.2432 69.0254L72.1455 64.5645L72.3486 64.3984C72.8392 64.0382 73.4476 63.867 74.0596 63.9238C74.7589 63.9889 75.3987 64.345 75.8223 64.9053L76.7666 66.1553L75.8096 64.7539C75.4191 64.1827 75.2832 63.4752 75.4336 62.7998C75.5841 62.1244 76.0075 61.541 76.6035 61.1895L81.0781 58.5518L81.2988 58.4355C81.8265 58.1917 82.4255 58.1379 82.9922 58.2891C83.6396 58.4619 84.1907 58.888 84.5215 59.4707L90.0977 69.2979L85.8682 58.292C85.6244 57.6577 85.6496 56.9514 85.9375 56.3359C86.2254 55.7205 86.7515 55.2488 87.3945 55.0293L93.2959 53.0146L93.543 52.9443C94.1247 52.8104 94.7387 52.8885 95.2715 53.1699C95.8802 53.4915 96.3291 54.0504 96.5127 54.7139L98.4971 61.8867L96.9766 53.7783C96.8541 53.125 96.9975 52.4492 97.374 51.9014C97.7505 51.3537 98.3296 50.9782 98.9834 50.8584L105.79 49.6113L105.926 49.5898C106.607 49.5035 107.296 49.7017 107.829 50.1406C108.398 50.6088 108.731 51.3036 108.74 52.04L108.855 61.6025L109.071 51.3945L109.089 51.1494C109.232 49.9427 110.234 48.9984 111.472 48.9492L117.517 48.709L117.729 48.71Z" fill="#004F39" stroke="white" stroke-width="5" stroke-linejoin="round"/>
</svg>
