<svg width="200" height="200" viewBox="0 0 200 200" fill="none" xmlns="http://www.w3.org/2000/svg">
<path d="M147.053 27.2223H143.808H112.598H109.353V30.4672V48.9912V49.8835L109.811 50.6521L130.006 84.5787V112.851L80.5163 28.8197L79.5772 27.2223H77.7225H56.1942H52.9492V30.4672V169.532V172.777H56.1942H87.4005H90.6455V169.532V151.005V150.113L90.1909 149.348L69.996 115.421V87.1487L119.482 171.18L120.425 172.777H122.28H143.808H147.053V169.532V30.4672V27.2223ZM143.808 30.4672V169.532H122.28L66.7512 75.2449V116.313L87.4005 151.005V169.532H56.1942V30.4672H77.7225L133.251 124.755V83.6865L112.598 48.9912V30.4672H143.808Z" fill="white"/>
<path d="M112.595 30.4621V48.9861L133.248 83.6814V124.75L77.7163 30.4621H56.1914V169.527H87.3977V151L66.7484 116.308V75.2398L122.277 169.527H143.805V30.4621H112.595Z" fill="#59118E"/>
<path d="M112.595 30.4621V48.9861L133.248 83.6814V124.75L77.7163 30.4621H56.1914V169.527H87.3977V151L66.7484 116.308V75.2398L122.277 169.527H143.805V30.4621H112.595Z" fill="#59118E"/>
</svg>
