<svg width="200" height="200" viewBox="0 0 200 200" fill="none" xmlns="http://www.w3.org/2000/svg">
<path d="M157.016 46.7446L125.869 15.6547C125.843 15.6297 125.812 15.6172 125.777 15.6172H76.4181C76.3788 15.6172 76.3411 15.6324 76.3131 15.6597L44.7246 46.6821C44.7062 46.7005 44.6959 46.7252 44.6959 46.7508L44.7509 71.0389C44.7509 71.0614 44.7438 71.0833 44.7305 71.1015C44.7173 71.1197 44.6986 71.1332 44.6771 71.1401C34.4751 74.3792 24.4454 78.1456 14.9794 83.1817C14.941 83.2025 14.9219 83.2346 14.9219 83.2779V88.284C14.9217 88.2902 14.9232 88.2963 14.9262 88.3018C14.9292 88.3072 14.9336 88.3118 14.939 88.315C14.9443 88.3182 14.9504 88.3199 14.9566 88.3199C14.9629 88.3199 14.969 88.3183 14.9744 88.3152C19.5206 85.7322 24.2917 83.5791 29.1403 81.6384C35.8701 78.945 42.711 76.574 49.6632 74.5254C49.704 74.5137 49.7245 74.4866 49.7245 74.4442V49.0689C49.7245 49.0192 49.7443 48.9716 49.7794 48.9364L78.4625 20.7332C78.4925 20.7032 78.5287 20.6882 78.5712 20.6882L123.527 20.6445C123.611 20.6445 123.69 20.6773 123.75 20.7357L152.074 48.7315C152.096 48.7533 152.113 48.7792 152.125 48.8078C152.137 48.8363 152.143 48.8668 152.143 48.8977L152.103 74.3354C152.103 74.3779 152.123 74.405 152.164 74.4167C161.222 77.0692 170.043 80.3575 178.628 84.2813C181.179 85.4477 183.671 86.6944 186.102 88.0215C186.158 88.0524 186.186 88.0357 186.186 87.9715V83.0667C186.186 83.024 186.174 82.9822 186.152 82.9456C186.13 82.9091 186.098 82.8792 186.061 82.8593C176.853 77.9794 167.101 74.2792 157.161 71.1663C157.123 71.1547 157.104 71.1289 157.104 71.0889L157.061 46.852C157.061 46.8322 157.057 46.8125 157.05 46.7941C157.042 46.7756 157.031 46.7588 157.016 46.7446Z" stroke="#D8DBDE" stroke-width="2"/>
<path d="M64.8073 70.7303C68.5579 70.0155 72.3281 69.3745 76.1178 68.8071C76.1653 68.8005 76.1891 68.773 76.1891 68.7246V60.0746C76.1891 60.0501 76.194 60.0258 76.2034 60.0033C76.2129 59.9808 76.2267 59.9604 76.2441 59.9434L89.3641 47.1395C89.4018 47.1027 89.452 47.0821 89.504 47.0821L112.641 47.0833C112.684 47.0833 112.724 47.0999 112.755 47.1295L125.592 59.9934C125.645 60.0463 125.675 60.1178 125.675 60.1921V68.6684C125.675 68.6897 125.683 68.7103 125.697 68.7263C125.711 68.7424 125.73 68.7529 125.751 68.7559C133.082 69.7889 140.322 71.2672 147.469 73.1909C147.519 73.2042 147.544 73.185 147.544 73.1334V51.1434C147.544 51.1092 147.532 51.0801 147.507 51.0559L121.764 25.3058C121.752 25.2943 121.738 25.2852 121.723 25.279C121.708 25.2727 121.692 25.2695 121.675 25.2695H80.4429C80.4036 25.2695 80.3659 25.2848 80.3379 25.312L54.409 50.851C54.371 50.8882 54.3408 50.9326 54.3202 50.9818C54.2996 51.0309 54.289 51.0837 54.2891 51.1372V73.1609C54.2891 73.1707 54.2914 73.1805 54.2958 73.1893C54.3002 73.1981 54.3066 73.2058 54.3144 73.2117C54.3223 73.2177 54.3314 73.2217 54.3411 73.2235C54.3508 73.2253 54.3608 73.2248 54.3703 73.2221C57.8018 72.2707 61.2717 71.4509 64.7798 70.7628C64.7848 70.762 64.7877 70.7591 64.7886 70.7541C64.7894 70.7516 64.7898 70.7491 64.7898 70.7466C64.7923 70.7374 64.7982 70.732 64.8073 70.7303Z" stroke="#E7879E" stroke-width="2"/>
<path d="M108.681 56.6729C108.692 56.673 108.703 56.6775 108.711 56.6854L116.071 63.9984C116.079 64.0063 116.084 64.0171 116.084 64.0284V67.5448C116.084 67.5553 116.087 67.5654 116.094 67.5733C116.101 67.5811 116.111 67.5861 116.121 67.5873L121.066 68.1934C121.072 68.1941 121.078 68.1936 121.084 68.1918C121.089 68.1901 121.094 68.1872 121.099 68.1833C121.103 68.1794 121.107 68.1746 121.109 68.1693C121.112 68.1639 121.113 68.1581 121.113 68.1522V62.0427C121.113 62.0314 121.109 62.0206 121.101 62.0127L110.811 51.6844C110.803 51.6764 110.793 51.6719 110.781 51.6719H91.3607C91.3495 51.6719 91.3387 51.6764 91.3307 51.6844L80.7937 62.0014C80.7858 62.0094 80.7813 62.0202 80.7813 62.0314V68.0847C80.7812 68.0906 80.7824 68.0965 80.7848 68.1019C80.7872 68.1073 80.7906 68.1121 80.795 68.1161C80.7993 68.1201 80.8045 68.1232 80.8101 68.1251C80.8157 68.127 80.8216 68.1277 80.8275 68.1272L85.7098 67.6786C85.7205 67.6776 85.7303 67.6727 85.7375 67.6649C85.7447 67.657 85.7486 67.6467 85.7486 67.6361V64.0646C85.7486 64.0533 85.7531 64.0425 85.7611 64.0346L93.2927 56.6779C93.3006 56.67 93.3114 56.6655 93.3227 56.6654L108.681 56.6729Z" stroke="#D8DBDE" stroke-width="2"/>
<path d="M97.3752 132.054C97.3646 132.054 97.3544 132.05 97.3469 132.042C97.3394 132.035 97.3352 132.025 97.3352 132.014V112.506C97.3352 112.495 97.331 112.485 97.3235 112.478C97.316 112.47 97.3058 112.466 97.2952 112.466H90.3772C90.3719 112.466 90.3667 112.467 90.3619 112.469C90.357 112.471 90.3526 112.474 90.3489 112.478C90.3452 112.481 90.3422 112.486 90.3402 112.491C90.3382 112.495 90.3372 112.501 90.3372 112.506V133.86C90.3376 133.87 90.3421 133.88 90.3497 133.887L95.1483 138.598C95.1557 138.606 95.1655 138.61 95.1758 138.61L106.81 138.687C106.82 138.687 106.83 138.682 106.837 138.675L111.555 133.905C111.562 133.897 111.566 133.888 111.566 133.877L111.432 99.7133C111.432 99.7079 111.431 99.7026 111.429 99.6976C111.427 99.6927 111.424 99.6882 111.42 99.6845L106.334 94.8072C106.326 94.8 106.317 94.796 106.306 94.7959L97.5326 94.7822C97.5274 94.7822 97.5222 94.7811 97.5173 94.7791C97.5125 94.7771 97.5081 94.7742 97.5044 94.7705C97.5006 94.7667 97.4977 94.7623 97.4957 94.7575C97.4937 94.7526 97.4926 94.7474 97.4926 94.7422L97.4914 68.6096C97.4914 68.599 97.4956 68.5889 97.5031 68.5814C97.5106 68.5739 97.5208 68.5696 97.5314 68.5696L104.493 68.5759C104.504 68.5759 104.514 68.5801 104.521 68.5876C104.529 68.5951 104.533 68.6053 104.533 68.6159L104.559 85.3711C104.559 85.3764 104.56 85.3816 104.562 85.3864C104.564 85.3913 104.567 85.3957 104.571 85.3994C104.575 85.4031 104.579 85.406 104.584 85.408C104.589 85.4101 104.594 85.4111 104.599 85.4111H111.445C111.45 85.4111 111.455 85.4101 111.46 85.408C111.465 85.406 111.469 85.4031 111.473 85.3994C111.477 85.3957 111.48 85.3913 111.482 85.3864C111.484 85.3816 111.485 85.3764 111.485 85.3711L111.489 65.9804C111.489 65.9701 111.485 65.9603 111.477 65.9529L106.786 61.3042C106.779 61.2971 106.769 61.293 106.759 61.293H95.1571C95.1468 61.293 95.1369 61.2971 95.1296 61.3042L90.3534 66.0041C90.3458 66.0113 90.3414 66.0212 90.3409 66.0316L90.3359 97.945C90.336 97.9504 90.3371 97.9557 90.3393 97.9607C90.3414 97.9656 90.3445 97.9701 90.3484 97.9738L95.5282 102.895C95.5356 102.902 95.5454 102.906 95.5557 102.906L104.253 102.909C104.264 102.909 104.274 102.913 104.281 102.92C104.289 102.928 104.293 102.938 104.293 102.949L104.351 132.015C104.351 132.026 104.346 132.036 104.339 132.044C104.331 132.051 104.321 132.055 104.311 132.055L97.3752 132.054Z" stroke="#808080" stroke-width="2"/>
<path d="M118.703 123.965L119.613 124.084" stroke="#E7879E" stroke-width="2"/>
<path d="M119.617 124.082L121.738 124.404" stroke="#808080" stroke-width="2"/>
<path d="M121.734 124.402C121.968 124.482 122.198 124.508 122.425 124.48" stroke="#D8DBDE" stroke-width="2"/>
<path d="M122.427 124.482L124.779 124.864C124.826 124.872 124.85 124.852 124.85 124.804L124.635 79.6896C124.635 79.6038 124.678 79.5676 124.763 79.5809L129.64 80.3394C129.647 80.3405 129.654 80.3401 129.661 80.338C129.668 80.336 129.675 80.3325 129.68 80.3277C129.686 80.323 129.69 80.3171 129.693 80.3105C129.696 80.3039 129.698 80.2967 129.697 80.2895L129.704 73.6976C129.704 73.6426 129.677 73.611 129.624 73.6026C124.14 72.6804 118.626 72.0043 113.081 71.5745C113.074 71.5738 113.066 71.5746 113.059 71.577C113.052 71.5794 113.046 71.5832 113.041 71.5883C113.035 71.5934 113.031 71.5995 113.028 71.6064C113.025 71.6133 113.023 71.6207 113.023 71.6282L113.062 78.1738C113.062 78.1886 113.068 78.2028 113.078 78.2137C113.088 78.2246 113.102 78.2313 113.117 78.2326L117.757 78.7262C117.81 78.732 117.836 78.7612 117.836 78.8136L117.831 123.775C117.831 123.82 117.853 123.847 117.898 123.853L118.706 123.963" stroke="#808080" stroke-width="2"/>
<path d="M122.425 124.48L121.734 124.402" stroke="#585C5E" stroke-width="2"/>
<path d="M119.613 124.084L118.703 123.965" stroke="#67081F" stroke-width="2"/>
<path d="M68.2748 123.373C69.2595 124.274 70.2459 125.164 71.2339 126.042C71.2524 126.059 71.2748 126.071 71.2992 126.077C71.3235 126.083 71.3492 126.083 71.3739 126.077C74.7954 125.284 78.2457 124.64 81.7247 124.146C81.7797 124.137 81.8242 124.111 81.8584 124.067L84.9213 120.04C84.9462 120.008 84.9587 119.971 84.9587 119.93L85.1024 76.789C85.1024 76.7677 85.0981 76.7465 85.0898 76.7267C85.0814 76.707 85.0691 76.6891 85.0537 76.6741L80.7649 72.4528C80.7275 72.4161 80.6829 72.4011 80.6312 72.4078C77.6329 72.7752 74.6438 73.2071 71.6638 73.7037C71.6253 73.7101 71.5909 73.7312 71.5676 73.7624L67.8424 78.6535C67.8191 78.6827 67.8074 78.716 67.8074 78.7535C67.8174 93.411 67.8328 108.068 67.8536 122.723C67.8549 123.12 68.0148 123.137 68.2748 123.373ZM141.689 105.388L141.701 129.257C141.701 129.297 141.72 129.323 141.758 129.337L147.9 131.643C147.931 131.655 147.947 131.644 147.947 131.611V83.4696C147.947 83.2868 147.901 83.1071 147.812 82.9473L144.357 76.7216C144.343 76.6979 144.325 76.6772 144.303 76.6609C144.282 76.6445 144.257 76.6329 144.231 76.6266C141.346 75.916 138.447 75.2749 135.532 74.7034C135.491 74.6951 135.455 74.7051 135.424 74.7334L131.311 78.5023C131.28 78.5306 131.264 78.5656 131.264 78.6073V126.189C131.264 126.22 131.28 126.24 131.312 126.249L137.489 127.857C137.529 127.868 137.549 127.852 137.549 127.811L137.577 104.174C137.577 104.17 137.578 104.167 137.58 104.163C137.582 104.16 137.584 104.157 137.587 104.155C137.59 104.153 137.594 104.151 137.597 104.151C137.601 104.15 137.605 104.15 137.609 104.151L141.614 105.29C141.664 105.304 141.689 105.337 141.689 105.388ZM58.0114 76.6391L57.8752 129.958C57.8752 129.996 57.8931 130.009 57.929 129.998L64.2984 127.919C64.33 127.909 64.3459 127.887 64.3459 127.853V91.936C64.3459 91.9179 64.3502 91.9004 64.3584 91.8847C64.3709 91.8622 64.3771 91.8381 64.3771 91.8123V75.142C64.3771 75.1357 64.3756 75.1295 64.3729 75.1238C64.3701 75.1182 64.3662 75.1132 64.3613 75.1092C64.3564 75.1053 64.3506 75.1025 64.3445 75.101C64.3384 75.0996 64.332 75.0995 64.3259 75.1008L58.1002 76.5279C58.0749 76.5335 58.0524 76.5477 58.0363 76.5679C58.0201 76.5881 58.0114 76.6132 58.0114 76.6391ZM48.3104 108.351L48.3767 133.904C48.3768 133.906 48.3773 133.907 48.3781 133.909C48.379 133.91 48.3802 133.912 48.3817 133.913C48.3831 133.914 48.3848 133.914 48.3865 133.915C48.3883 133.915 48.39 133.915 48.3917 133.914L54.4712 131.291C54.4875 131.284 54.5014 131.272 54.5112 131.257C54.521 131.242 54.5262 131.225 54.5262 131.207L54.5412 77.6001C54.5412 77.5476 54.5158 77.5276 54.4649 77.5401C52.2881 78.0824 50.1333 78.7006 48.0005 79.3945C47.963 79.407 47.9443 79.4333 47.9443 79.4733V101.092C47.9443 101.138 47.9231 101.169 47.8806 101.186L43.7492 102.775C43.7385 102.78 43.7268 102.781 43.7153 102.78C43.7038 102.778 43.6928 102.774 43.6832 102.768C43.6736 102.761 43.6657 102.752 43.6602 102.742C43.6548 102.731 43.6519 102.72 43.6518 102.708L43.5668 80.7841C43.5669 80.7795 43.5658 80.7748 43.5637 80.7707C43.5616 80.7665 43.5585 80.7629 43.5547 80.7602C43.5509 80.7575 43.5465 80.7557 43.5418 80.7551C43.5372 80.7545 43.5325 80.755 43.5281 80.7567L37.1761 82.9748C37.155 82.982 37.1367 82.9957 37.1237 83.0138C37.1107 83.032 37.1037 83.0537 37.1036 83.076V140.295C37.1036 140.332 37.1195 140.341 37.1511 140.321C39.3813 138.913 41.6482 137.566 43.9517 136.281C43.971 136.27 43.9871 136.255 43.9983 136.236C44.0095 136.217 44.0154 136.195 44.0154 136.173L43.9429 110.07C43.9421 110.02 43.965 109.985 44.0117 109.967L48.233 108.299C48.2846 108.278 48.3104 108.295 48.3104 108.351ZM161.747 89.0093L167.685 91.3236C167.731 91.342 167.754 91.3266 167.754 91.2774V84.2519C167.754 84.2086 167.734 84.1786 167.694 84.1619C161.957 81.7676 156.218 80.0181 150.118 78.2186C150.083 78.2086 150.066 78.2216 150.066 78.2574L150.113 85.0942C150.113 85.1333 150.131 85.1587 150.169 85.1704L155.21 86.7275C155.221 86.7307 155.231 86.7376 155.238 86.747C155.245 86.7565 155.249 86.768 155.249 86.7799L155.286 134.797C155.286 134.839 155.305 134.87 155.342 134.889C157.48 135.933 159.554 137.091 161.563 138.363C161.602 138.388 161.622 138.377 161.622 138.331L161.668 89.063C161.668 89.0072 161.694 88.9893 161.747 89.0093ZM177.064 154.603V128.142C177.064 128.08 177.091 128.064 177.145 128.094L186.106 133.129C186.139 133.148 186.155 133.138 186.155 133.1V124.959C186.155 124.915 186.136 124.882 186.097 124.859C183.049 123.07 179.962 121.351 176.836 119.701C176.8 119.681 176.783 119.652 176.783 119.612V95.5574C176.783 95.5083 176.805 95.4945 176.849 95.5162C179.961 97.0558 183.044 98.6516 186.097 100.304C186.134 100.323 186.153 100.311 186.154 100.27C186.167 97.9297 186.18 95.5895 186.192 93.2493C186.193 93.1735 186.179 92.9998 186.149 92.7282C186.144 92.6891 186.125 92.6595 186.091 92.6395C180.925 89.6904 175.874 87.5922 169.958 85.0942C169.925 85.08 169.908 85.0913 169.908 85.1279L170.081 157.8C170.081 157.876 170.111 157.938 170.172 157.985C175.572 162.106 180.881 166.341 186.1 170.69C186.105 170.694 186.111 170.696 186.117 170.697C186.123 170.698 186.129 170.697 186.135 170.694C186.141 170.692 186.146 170.688 186.149 170.682C186.153 170.677 186.155 170.671 186.155 170.665V162.075C186.155 162.031 186.138 161.996 186.105 161.97L177.114 154.708C177.08 154.681 177.064 154.646 177.064 154.603ZM14.8862 165.887L20.0398 169.344C20.0773 169.368 20.1147 169.369 20.1522 169.346L29.7245 163.549C29.775 163.519 29.8151 163.475 29.8395 163.422C30.8084 161.35 31.7827 159.263 32.7624 157.161C32.8474 156.979 32.8903 156.787 32.8911 156.585C32.9328 134.434 32.9523 112.282 32.9498 90.129C32.9498 90.0757 32.9282 90.0332 32.8848 90.0015L28.1912 86.5725C28.1726 86.5585 28.1505 86.5498 28.1272 86.5474C28.1039 86.545 28.0802 86.5489 28.0587 86.5588C24.7472 88.0508 21.4881 89.6504 18.2815 91.3574C18.2042 91.3989 18.1414 91.4625 18.1016 91.5398C17.0569 93.5409 16.0072 95.5424 14.9525 97.5444C14.87 97.701 14.8287 97.868 14.8287 98.0455C14.8279 120.623 14.8279 143.202 14.8287 165.781C14.8287 165.827 14.8479 165.862 14.8862 165.887Z" stroke="#808080" stroke-width="2"/>
<path d="M80.7813 137.913C80.7813 137.925 80.7836 137.936 80.7881 137.947C80.7926 137.958 80.7992 137.967 80.8075 137.975L91.1795 148.14C91.1956 148.156 91.2171 148.165 91.2395 148.165L110.726 148.304C110.738 148.304 110.75 148.301 110.76 148.297C110.771 148.292 110.781 148.286 110.789 148.277L121.111 137.857C121.127 137.84 121.136 137.818 121.136 137.795L121.167 128.324C121.167 128.303 121.16 128.283 121.146 128.267C121.132 128.251 121.113 128.24 121.092 128.237L116.327 127.532C116.315 127.53 116.302 127.531 116.29 127.535C116.278 127.538 116.267 127.544 116.258 127.552C116.248 127.561 116.241 127.571 116.235 127.582C116.23 127.594 116.227 127.606 116.227 127.618L116.244 135.73C116.244 135.741 116.242 135.753 116.237 135.764C116.233 135.774 116.227 135.784 116.219 135.792L108.887 143.143C108.871 143.159 108.849 143.168 108.826 143.168L93.3077 143.215C93.2848 143.215 93.2628 143.206 93.2464 143.19L85.7748 135.922C85.7664 135.914 85.7597 135.904 85.7552 135.893C85.7507 135.882 85.7484 135.87 85.7486 135.859V127.662C85.7485 127.65 85.7458 127.638 85.7407 127.627C85.7356 127.615 85.7283 127.605 85.7191 127.597C85.7099 127.589 85.6991 127.583 85.6874 127.579C85.6757 127.576 85.6633 127.574 85.6511 127.576L80.8587 128.117C80.8373 128.119 80.8175 128.13 80.8032 128.146C80.7889 128.162 80.7811 128.183 80.7813 128.204V137.913Z" stroke="#D8DBDE" stroke-width="2"/>
<path d="M89.2671 152.707L76.232 139.841C76.2012 139.811 76.1858 139.775 76.1858 139.733L76.1871 129.088C76.1871 129.034 76.1604 129.012 76.1071 129.022C68.6992 130.474 61.355 132.572 54.3845 135.513C54.3495 135.528 54.332 135.554 54.332 135.593L54.3545 148.904C54.3545 148.947 54.3699 148.984 54.4008 149.015L80.2459 174.473C80.2554 174.482 80.2667 174.49 80.2792 174.495C80.2916 174.5 80.3049 174.503 80.3184 174.503L121.772 174.829C121.814 174.83 121.85 174.815 121.88 174.784L147.507 148.875C147.53 148.851 147.542 148.822 147.542 148.789V135.558C147.542 135.521 147.525 135.496 147.492 135.483C140.475 132.549 133.229 130.372 125.754 128.951C125.721 128.944 125.704 128.958 125.704 128.992V139.642C125.704 139.707 125.678 139.77 125.632 139.818L112.928 152.827C112.868 152.888 112.795 152.919 112.708 152.918L89.3683 152.749C89.3291 152.748 89.2954 152.734 89.2671 152.707Z" stroke="#E7879E" stroke-width="2"/>
<path d="M37.2065 150.849C39.6358 148.92 42.0039 146.988 44.6369 145.328C44.6424 145.325 44.6489 145.323 44.6555 145.322C44.6621 145.322 44.6687 145.324 44.6745 145.327C44.6803 145.33 44.6851 145.335 44.6884 145.341C44.6917 145.346 44.6933 145.353 44.6931 145.36V152.743C44.6931 152.791 44.7124 152.839 44.7469 152.874L76.4041 184.357C76.4349 184.387 76.4712 184.402 76.5128 184.402L125.494 184.427C125.541 184.427 125.588 184.418 125.631 184.4C125.675 184.382 125.714 184.356 125.748 184.322L157.021 153.002C157.036 152.988 157.047 152.971 157.055 152.952C157.063 152.933 157.067 152.913 157.067 152.892V145.668C157.067 145.661 157.069 145.654 157.073 145.648C157.077 145.641 157.082 145.636 157.088 145.633C157.095 145.629 157.102 145.627 157.109 145.627C157.116 145.628 157.124 145.63 157.13 145.633C160.463 147.601 163.625 149.813 166.615 152.27C166.665 152.311 166.69 152.299 166.69 152.234V146.604C166.69 146.583 166.685 146.562 166.675 146.543C166.666 146.524 166.653 146.507 166.636 146.494C162.11 143.053 157.384 140.014 152.244 137.526C152.18 137.495 152.147 137.515 152.147 137.587L152.124 150.702C152.124 150.735 152.111 150.766 152.088 150.791L123.752 179.396C123.723 179.425 123.688 179.439 123.648 179.439C108.776 179.454 93.9029 179.447 79.0296 179.42C78.7147 179.419 78.5235 179.546 78.2548 179.279C68.7509 169.829 59.2569 160.385 49.7729 150.946C49.7396 150.912 49.723 150.873 49.723 150.827V137.576C49.723 137.569 49.7213 137.562 49.7181 137.556C49.7148 137.55 49.7101 137.545 49.7043 137.542C49.6985 137.538 49.692 137.536 49.6852 137.535C49.6784 137.535 49.6716 137.536 49.6655 137.539C45.2634 139.633 41.0925 142.115 37.1528 144.985C37.1186 145.01 37.1016 145.043 37.1016 145.086V150.798C37.1016 150.888 37.1366 150.905 37.2065 150.849Z" stroke="#D8DBDE" stroke-width="2"/>
<path d="M74.3665 80.3155C74.357 80.317 74.3484 80.3218 74.3422 80.3292C74.336 80.3365 74.3327 80.3458 74.3328 80.3554L74.1828 118.691C74.1827 118.697 74.1839 118.703 74.1864 118.708C74.1889 118.713 74.1925 118.718 74.197 118.722C74.2016 118.726 74.2069 118.729 74.2127 118.73C74.2184 118.732 74.2245 118.732 74.2303 118.731L78.6016 117.912C78.6108 117.91 78.6192 117.905 78.6251 117.898C78.631 117.891 78.6342 117.882 78.634 117.872L78.4666 79.7669C78.4666 79.7612 78.4655 79.7555 78.4632 79.7503C78.4608 79.7451 78.4574 79.7404 78.4532 79.7367C78.4489 79.7329 78.4439 79.73 78.4385 79.7284C78.433 79.7267 78.4273 79.7262 78.4216 79.7269L74.3665 80.3155ZM137.636 97.2294C137.636 97.2379 137.639 97.2462 137.644 97.253C137.649 97.2598 137.656 97.2647 137.665 97.2669L141.492 98.2378C141.498 98.2394 141.504 98.2396 141.51 98.2384C141.516 98.2372 141.521 98.2347 141.526 98.2311C141.531 98.2275 141.535 98.2228 141.537 98.2175C141.54 98.2122 141.541 98.2063 141.541 98.2004V82.9772C141.541 82.9685 141.538 82.96 141.533 82.9532C141.527 82.9464 141.52 82.9417 141.511 82.9397L137.683 81.9862C137.678 81.9849 137.672 81.9849 137.666 81.9862C137.661 81.9874 137.655 81.99 137.651 81.9936C137.646 81.9972 137.642 82.0017 137.64 82.007C137.637 82.0122 137.636 82.0179 137.636 82.0237V97.2294ZM21.6378 97.1769C21.6313 97.1802 21.6259 97.1852 21.6222 97.1914C21.6184 97.1975 21.6165 97.2047 21.6166 97.2119L21.6016 160.986C21.6015 160.993 21.6034 161 21.607 161.006C21.6106 161.012 21.6157 161.017 21.6219 161.02C21.628 161.024 21.6349 161.025 21.6419 161.025C21.6489 161.025 21.6557 161.023 21.6615 161.019L26.4314 157.777C26.4366 157.774 26.441 157.769 26.444 157.764C26.4471 157.758 26.4487 157.752 26.4489 157.746V94.7001C26.4488 94.6936 26.447 94.6871 26.4437 94.6815C26.4404 94.6758 26.4357 94.6711 26.4301 94.6677C26.4245 94.6643 26.4181 94.6624 26.4116 94.6622C26.405 94.662 26.3985 94.6634 26.3927 94.6664L21.6378 97.1769Z" stroke="#808080" stroke-width="2"/>
<path d="M39.4256 154.992L33.3536 166.772C33.332 166.813 33.3016 166.845 33.2624 166.868L20.0637 174.837C20.0253 174.86 19.9879 174.859 19.9512 174.835L9.9703 168.344C9.93281 168.32 9.91406 168.286 9.91406 168.241C9.95572 148.964 9.97946 134.983 9.98529 126.299C9.98779 122.456 9.99446 118.613 10.0053 114.771C10.0353 104.216 10.0515 93.6373 10.054 83.0337C10.054 82.4763 10.1115 81.3879 10.054 80.5631C10.051 80.521 10.0607 80.4788 10.0818 80.4421C10.103 80.4054 10.1346 80.3757 10.1727 80.3569C19.8791 75.5441 29.8484 71.3553 40.0805 67.7905C40.1 67.7839 40.1169 67.7713 40.1288 67.7544C40.1407 67.7376 40.147 67.7174 40.1467 67.6968L40.0992 44.8533C40.0992 44.8075 40.1159 44.7683 40.1492 44.7358L74.4432 11.0567C74.4723 11.0275 74.5077 11.0096 74.5494 11.003C74.7131 10.978 74.858 11.0292 74.9943 11.0292H127.604C127.704 11.0292 127.811 11.0925 127.925 11.2192C128.034 11.34 128.092 11.4045 128.1 11.4128C139.28 22.5522 150.451 33.6998 161.616 44.8558C161.642 44.8816 161.655 44.9129 161.655 44.9495L161.698 67.753C161.698 67.7897 161.716 67.8138 161.751 67.8255C164.86 68.8594 167.776 69.9337 170.499 71.0483C177.283 73.8242 184.023 76.8604 190.721 80.157C190.765 80.1786 190.786 80.2136 190.786 80.262L190.77 180.577C190.77 180.588 190.766 180.599 190.761 180.608C190.755 180.617 190.746 180.624 190.736 180.629C190.727 180.634 190.716 180.635 190.705 180.634C190.694 180.633 190.684 180.629 190.675 180.622C182.541 174.069 174.385 167.516 166.078 161.176C166.043 161.149 166.014 161.154 165.991 161.193C160.02 157.182 159.856 157.511 154.773 161.825C158.565 158.426 154.762 161.814 154.756 161.811C154.749 161.808 154.742 161.806 154.734 161.805C154.727 161.805 154.712 161.809 154.712 161.809C154.705 161.812 157.556 159.106 154.694 161.821L127.654 188.727C127.569 188.811 127.472 188.853 127.362 188.853L74.6256 188.998C74.5783 188.998 74.533 188.98 74.4994 188.947L39.5244 154.976C39.5174 154.969 39.5089 154.964 39.4996 154.961C39.4903 154.958 39.4805 154.957 39.4709 154.959C39.4614 154.961 39.4523 154.964 39.4444 154.97C39.4366 154.976 39.4301 154.983 39.4256 154.992ZM157.02 46.749L125.872 15.6591C125.846 15.6341 125.816 15.6216 125.78 15.6216H76.4213C76.382 15.6217 76.3444 15.6369 76.3164 15.6641L44.7279 46.6865C44.7095 46.705 44.6992 46.7297 44.6991 46.7553L44.7541 71.0433C44.7542 71.0658 44.747 71.0878 44.7338 71.106C44.7205 71.1242 44.7018 71.1377 44.6804 71.1446C34.4783 74.3836 24.4487 78.1501 14.9826 83.1861C14.9443 83.2069 14.9251 83.239 14.9251 83.2823V88.2884C14.925 88.2946 14.9265 88.3008 14.9295 88.3062C14.9325 88.3117 14.9369 88.3162 14.9422 88.3194C14.9476 88.3226 14.9537 88.3243 14.9599 88.3243C14.9661 88.3244 14.9722 88.3228 14.9776 88.3197C19.5238 85.7366 24.295 83.5835 29.1436 81.6428C35.8733 78.9494 42.7143 76.5784 49.6665 74.5298C49.7073 74.5182 49.7277 74.4911 49.7277 74.4486V49.0734C49.7278 49.0237 49.7475 48.976 49.7827 48.9409L78.4658 20.7377C78.4957 20.7077 78.532 20.6927 78.5745 20.6927L123.53 20.649C123.614 20.649 123.694 20.6818 123.753 20.7402L152.077 48.736C152.099 48.7578 152.116 48.7837 152.128 48.8122C152.14 48.8407 152.146 48.8713 152.146 48.9022L152.106 74.3399C152.106 74.3824 152.126 74.4095 152.167 74.4211C161.225 77.0737 170.047 80.3619 178.631 84.2858C181.183 85.4521 183.674 86.6989 186.105 88.026C186.161 88.0568 186.189 88.0401 186.189 87.976V83.0712C186.189 83.0285 186.177 82.9866 186.155 82.9501C186.133 82.9136 186.102 82.8837 186.064 82.8637C176.856 77.9839 167.104 74.2837 157.165 71.1708C157.126 71.1591 157.107 71.1333 157.107 71.0933L157.065 46.8565C157.065 46.8367 157.061 46.817 157.053 46.7985C157.045 46.7801 157.034 46.7633 157.02 46.749ZM64.8072 70.7359C68.5578 70.0211 72.3279 69.3801 76.1177 68.8127C76.1652 68.8061 76.1889 68.7786 76.1889 68.7302V60.0802C76.1889 60.0557 76.1938 60.0314 76.2033 60.0089C76.2127 59.9864 76.2265 59.966 76.2439 59.949L89.3639 47.1452C89.4016 47.1083 89.4518 47.0877 89.5039 47.0877L112.641 47.0889C112.683 47.0889 112.724 47.1055 112.755 47.1352L125.592 59.999C125.645 60.0519 125.675 60.1234 125.675 60.1977V68.674C125.675 68.6953 125.683 68.7159 125.697 68.7319C125.711 68.748 125.73 68.7585 125.751 68.7615C133.082 69.7945 140.321 71.2729 147.469 73.1965C147.519 73.2098 147.544 73.1906 147.544 73.139V51.149C147.544 51.1149 147.531 51.0857 147.507 51.0615L121.763 25.3114C121.752 25.2999 121.738 25.2908 121.723 25.2846C121.708 25.2783 121.691 25.2751 121.675 25.2751H80.4427C80.4034 25.2752 80.3657 25.2904 80.3377 25.3176L54.4089 50.8566C54.3709 50.8938 54.3407 50.9382 54.3201 50.9874C54.2995 51.0365 54.2889 51.0894 54.2889 51.1428V73.1665C54.2889 73.1763 54.2912 73.1861 54.2956 73.1949C54.3 73.2037 54.3064 73.2114 54.3143 73.2173C54.3221 73.2233 54.3313 73.2273 54.341 73.2291C54.3507 73.2309 54.3607 73.2304 54.3701 73.2277C57.8017 72.2763 61.2715 71.4566 64.7797 70.7684C64.7847 70.7676 64.7876 70.7647 64.7884 70.7597C64.7892 70.7572 64.7897 70.7547 64.7897 70.7522C64.7922 70.743 64.798 70.7376 64.8072 70.7359ZM108.681 56.6749C108.692 56.675 108.703 56.6795 108.711 56.6874L116.071 64.0003C116.079 64.0083 116.084 64.0191 116.084 64.0303V67.5468C116.084 67.5573 116.087 67.5674 116.094 67.5752C116.101 67.5831 116.111 67.5881 116.121 67.5893L121.066 68.1954C121.072 68.1961 121.078 68.1956 121.084 68.1938C121.089 68.1921 121.095 68.1892 121.099 68.1853C121.103 68.1814 121.107 68.1766 121.11 68.1713C121.112 68.1659 121.113 68.1601 121.114 68.1542V62.0447C121.114 62.0334 121.109 62.0226 121.101 62.0147L110.812 51.6864C110.804 51.6784 110.793 51.6739 110.782 51.6739H91.3608C91.3496 51.6739 91.3388 51.6784 91.3308 51.6864L80.7938 62.0034C80.7859 62.0114 80.7814 62.0222 80.7813 62.0334V68.0867C80.7813 68.0926 80.7825 68.0984 80.7849 68.1039C80.7873 68.1093 80.7907 68.1141 80.7951 68.1181C80.7994 68.1221 80.8046 68.1252 80.8102 68.1271C80.8158 68.129 80.8217 68.1297 80.8276 68.1292L85.7099 67.6805C85.7206 67.6796 85.7304 67.6747 85.7376 67.6669C85.7448 67.659 85.7487 67.6487 85.7487 67.6381V64.0666C85.7487 64.0553 85.7532 64.0445 85.7612 64.0366L93.2928 56.6799C93.3007 56.672 93.3115 56.6675 93.3228 56.6674L108.681 56.6749ZM97.3791 132.057C97.3685 132.057 97.3583 132.053 97.3508 132.045C97.3433 132.038 97.3391 132.028 97.3391 132.017V112.509C97.3391 112.498 97.3349 112.488 97.3274 112.481C97.3199 112.473 97.3097 112.469 97.2991 112.469H90.3811C90.3759 112.469 90.3707 112.47 90.3658 112.472C90.361 112.474 90.3565 112.477 90.3528 112.481C90.3491 112.484 90.3462 112.489 90.3442 112.494C90.3422 112.499 90.3411 112.504 90.3411 112.509V133.863C90.3415 133.873 90.346 133.883 90.3536 133.89L95.1523 138.602C95.1596 138.609 95.1695 138.613 95.1797 138.613L106.814 138.69C106.824 138.69 106.834 138.685 106.841 138.678L111.559 133.908C111.566 133.901 111.57 133.891 111.57 133.88L111.436 99.7164C111.436 99.711 111.435 99.7057 111.433 99.7008C111.431 99.6958 111.428 99.6914 111.424 99.6877L106.338 94.8103C106.33 94.8032 106.321 94.7991 106.31 94.7991L97.5366 94.7853C97.5313 94.7853 97.5261 94.7843 97.5213 94.7823C97.5164 94.7803 97.512 94.7773 97.5083 94.7736C97.5046 94.7699 97.5016 94.7655 97.4996 94.7606C97.4976 94.7558 97.4966 94.7506 97.4966 94.7453L97.4953 68.6128C97.4953 68.6022 97.4995 68.592 97.507 68.5845C97.5145 68.577 97.5247 68.5728 97.5353 68.5728L104.497 68.579C104.508 68.579 104.518 68.5833 104.525 68.5908C104.533 68.5983 104.537 68.6084 104.537 68.619L104.563 85.3742C104.563 85.3795 104.564 85.3847 104.566 85.3895C104.568 85.3944 104.571 85.3988 104.575 85.4025C104.579 85.4062 104.583 85.4092 104.588 85.4112C104.593 85.4132 104.598 85.4142 104.603 85.4142H111.449C111.454 85.4142 111.459 85.4132 111.464 85.4112C111.469 85.4092 111.473 85.4062 111.477 85.4025C111.481 85.3988 111.484 85.3944 111.486 85.3895C111.488 85.3847 111.489 85.3795 111.489 85.3742L111.493 65.9835C111.493 65.9733 111.488 65.9634 111.481 65.956L106.79 61.3074C106.783 61.3002 106.773 61.2962 106.763 61.2961H95.161C95.1507 61.2962 95.1409 61.3002 95.1335 61.3074L90.3574 66.0073C90.3498 66.0145 90.3453 66.0243 90.3449 66.0348L90.3399 97.9482C90.3399 97.9535 90.341 97.9589 90.3432 97.9638C90.3453 97.9688 90.3485 97.9732 90.3524 97.9769L95.5321 102.898C95.5395 102.905 95.5494 102.909 95.5596 102.909L104.257 102.912C104.268 102.912 104.278 102.916 104.285 102.923C104.293 102.931 104.297 102.941 104.297 102.952L104.355 132.018C104.355 132.029 104.35 132.039 104.343 132.047C104.335 132.054 104.325 132.058 104.315 132.058L97.3791 132.057ZM118.707 123.967L119.617 124.086L121.737 124.408C121.97 124.488 122.201 124.514 122.428 124.486L124.78 124.868C124.828 124.875 124.851 124.855 124.851 124.808L124.636 79.6934C124.636 79.6076 124.679 79.5713 124.764 79.5846L129.641 80.3432C129.648 80.3443 129.656 80.3438 129.663 80.3418C129.67 80.3397 129.676 80.3362 129.681 80.3315C129.687 80.3267 129.691 80.3208 129.694 80.3142C129.697 80.3076 129.699 80.3004 129.699 80.2932L129.705 73.7013C129.705 73.6463 129.678 73.6147 129.625 73.6064C124.141 72.6841 118.627 72.0081 113.082 71.5782C113.075 71.5775 113.067 71.5784 113.061 71.5807C113.054 71.5831 113.047 71.587 113.042 71.592C113.036 71.5971 113.032 71.6033 113.029 71.6101C113.026 71.617 113.025 71.6244 113.025 71.6319L113.063 78.1776C113.063 78.1923 113.069 78.2065 113.079 78.2174C113.089 78.2283 113.103 78.235 113.118 78.2363L117.758 78.7299C117.811 78.7357 117.837 78.7649 117.837 78.8174L117.832 123.778C117.832 123.824 117.855 123.85 117.9 123.857L118.707 123.967ZM68.2774 123.38C69.2621 124.28 70.2485 125.17 71.2366 126.049C71.2551 126.066 71.2775 126.077 71.3018 126.083C71.3262 126.09 71.3518 126.09 71.3765 126.084C74.7981 125.29 78.2483 124.646 81.7273 124.152C81.7823 124.144 81.8269 124.117 81.861 124.073L84.9239 120.047C84.9489 120.014 84.9614 119.978 84.9614 119.937L85.1051 76.7954C85.1051 76.7741 85.1008 76.7529 85.0924 76.7331C85.0841 76.7134 85.0718 76.6955 85.0564 76.6805L80.7676 72.4592C80.7301 72.4225 80.6855 72.4075 80.6339 72.4142C77.6356 72.7816 74.6464 73.2136 71.6665 73.7101C71.628 73.7165 71.5935 73.7376 71.5702 73.7688L67.845 78.6599C67.8217 78.6891 67.8101 78.7224 67.8101 78.7599C67.82 93.4174 67.8355 108.074 67.8563 122.73C67.8575 123.126 68.0175 123.143 68.2774 123.38ZM141.691 105.395L141.704 129.263C141.704 129.303 141.723 129.33 141.76 129.343L147.902 131.65C147.934 131.661 147.95 131.651 147.95 131.617V83.476C147.95 83.2932 147.903 83.1135 147.815 82.9537L144.359 76.728C144.346 76.7043 144.328 76.6836 144.306 76.6673C144.284 76.6509 144.26 76.6393 144.233 76.633C141.349 75.9224 138.449 75.2813 135.534 74.7098C135.494 74.7015 135.458 74.7115 135.427 74.7398L131.313 78.5087C131.282 78.537 131.267 78.572 131.267 78.6137V126.195C131.267 126.227 131.283 126.247 131.314 126.255L137.491 127.863C137.531 127.874 137.551 127.859 137.551 127.817L137.58 104.18C137.58 104.177 137.581 104.173 137.583 104.17C137.584 104.167 137.587 104.164 137.59 104.162C137.593 104.159 137.596 104.158 137.6 104.157C137.604 104.157 137.608 104.157 137.611 104.158L141.616 105.296C141.666 105.31 141.691 105.343 141.691 105.395ZM58.0141 76.6455L57.8779 129.964C57.8779 130.002 57.8958 130.016 57.9316 130.004L64.3011 127.926C64.3327 127.915 64.3485 127.893 64.3485 127.86V91.9424C64.3485 91.9243 64.3528 91.9068 64.361 91.8911C64.3735 91.8686 64.3798 91.8445 64.3798 91.8187V75.1484C64.3797 75.1421 64.3783 75.1359 64.3755 75.1302C64.3728 75.1246 64.3688 75.1196 64.3639 75.1157C64.359 75.1117 64.3533 75.1089 64.3472 75.1074C64.3411 75.106 64.3347 75.1059 64.3285 75.1072L58.1028 76.5343C58.0776 76.54 58.055 76.5541 58.0389 76.5743C58.0228 76.5945 58.014 76.6196 58.0141 76.6455ZM48.3131 108.358L48.3793 133.91L48.3808 133.915L48.3843 133.919L48.3892 133.921L48.3943 133.92L54.4739 131.297C54.4902 131.29 54.5041 131.279 54.5139 131.264C54.5236 131.249 54.5288 131.231 54.5288 131.214L54.5438 77.6065C54.5438 77.554 54.5184 77.534 54.4676 77.5465C52.2907 78.0888 50.1359 78.707 48.0032 79.401C47.9657 79.4135 47.947 79.4397 47.947 79.4797V101.099C47.947 101.144 47.9257 101.176 47.8832 101.192L43.7519 102.782C43.7411 102.786 43.7295 102.788 43.718 102.786C43.7065 102.785 43.6954 102.781 43.6858 102.774C43.6762 102.767 43.6684 102.758 43.6629 102.748C43.6574 102.738 43.6545 102.726 43.6544 102.714L43.5695 80.7906C43.5696 80.7859 43.5685 80.7812 43.5664 80.7771C43.5643 80.7729 43.5612 80.7693 43.5574 80.7666C43.5535 80.7639 43.5491 80.7621 43.5445 80.7615C43.5398 80.7609 43.5351 80.7614 43.5307 80.7631L37.1788 82.9812C37.1577 82.9884 37.1394 83.0021 37.1264 83.0202C37.1134 83.0384 37.1064 83.0601 37.1063 83.0824V140.301C37.1063 140.339 37.1221 140.347 37.1538 140.327C39.384 138.919 41.6508 137.573 43.9544 136.287C43.9736 136.277 43.9897 136.261 44.001 136.242C44.0122 136.223 44.0181 136.202 44.0181 136.18L43.9456 110.076C43.9448 110.026 43.9677 109.992 44.0143 109.973L48.2356 108.305C48.2873 108.284 48.3131 108.302 48.3131 108.358ZM161.75 89.0157L167.688 91.33C167.734 91.3484 167.757 91.333 167.757 91.2838V84.2583C167.757 84.215 167.737 84.185 167.697 84.1683C161.959 81.774 156.221 80.0245 150.12 78.225C150.086 78.215 150.069 78.228 150.069 78.2638L150.115 85.1006C150.115 85.1397 150.134 85.1651 150.172 85.1768L155.213 86.7339C155.224 86.7371 155.234 86.744 155.241 86.7534C155.248 86.7629 155.251 86.7745 155.251 86.7863L155.289 134.804C155.289 134.846 155.308 134.876 155.345 134.895C157.483 135.939 159.556 137.097 161.566 138.369C161.605 138.394 161.625 138.384 161.625 138.338L161.671 89.0694C161.671 89.0136 161.697 88.9957 161.75 89.0157ZM177.066 154.609V128.148C177.066 128.087 177.093 128.071 177.148 128.101L186.109 133.136C186.141 133.154 186.158 133.144 186.158 133.107V124.965C186.158 124.921 186.138 124.888 186.1 124.865C183.052 123.077 179.965 121.357 176.839 119.707C176.803 119.688 176.785 119.658 176.785 119.618V95.5638C176.785 95.5147 176.807 95.5009 176.851 95.5226C179.964 97.0622 183.047 98.658 186.1 100.31C186.137 100.329 186.155 100.318 186.156 100.276C186.17 97.9361 186.183 95.5959 186.195 93.2557C186.196 93.1799 186.181 93.0062 186.151 92.7346C186.147 92.6955 186.128 92.6659 186.094 92.6459C180.928 89.6968 175.877 87.5986 169.961 85.1006C169.928 85.0864 169.911 85.0977 169.911 85.1343L170.083 157.806C170.083 157.883 170.114 157.944 170.175 157.991C175.575 162.112 180.884 166.347 186.103 170.696C186.107 170.7 186.113 170.703 186.12 170.703C186.126 170.704 186.132 170.703 186.138 170.701C186.143 170.698 186.148 170.694 186.152 170.689C186.155 170.684 186.157 170.677 186.158 170.671V162.081C186.158 162.038 186.141 162.003 186.108 161.976L177.116 154.714C177.083 154.688 177.066 154.653 177.066 154.609ZM14.8889 165.894L20.0424 169.35C20.0799 169.374 20.1174 169.375 20.1549 169.353L29.7272 163.556C29.7777 163.526 29.8177 163.481 29.8421 163.428C30.811 161.356 31.7853 159.269 32.765 157.168C32.85 156.985 32.8929 156.793 32.8938 156.591C32.9354 134.44 32.955 112.288 32.9525 90.1354C32.9525 90.0821 32.9308 90.0396 32.8875 90.0079L28.1938 86.5789C28.1753 86.5649 28.1532 86.5562 28.1299 86.5538C28.1065 86.5514 28.0829 86.5553 28.0614 86.5652C24.7498 88.0572 21.4908 89.6568 18.2842 91.3638C18.2068 91.4053 18.1441 91.4689 18.1042 91.5462C17.0595 93.5473 16.0098 95.5488 14.9551 97.5508C14.8726 97.7074 14.8314 97.8744 14.8314 98.0519C14.8306 120.63 14.8306 143.208 14.8314 165.788C14.8314 165.833 14.8506 165.869 14.8889 165.894ZM80.7813 137.916C80.7813 137.927 80.7837 137.939 80.7882 137.949C80.7927 137.96 80.7993 137.97 80.8076 137.978L91.1796 148.143C91.1957 148.158 91.2172 148.167 91.2396 148.168L110.727 148.306C110.738 148.306 110.75 148.304 110.76 148.299C110.771 148.295 110.781 148.288 110.789 148.28L121.111 137.859C121.127 137.843 121.136 137.821 121.136 137.798L121.167 128.327C121.168 128.306 121.16 128.285 121.146 128.269C121.132 128.253 121.113 128.243 121.092 128.24L116.327 127.535C116.315 127.533 116.302 127.534 116.29 127.537C116.278 127.541 116.267 127.547 116.258 127.555C116.248 127.563 116.241 127.573 116.236 127.585C116.23 127.596 116.228 127.608 116.227 127.621L116.244 135.732C116.244 135.744 116.242 135.755 116.237 135.766C116.233 135.777 116.227 135.787 116.219 135.795L108.887 143.145C108.871 143.161 108.849 143.17 108.826 143.17L93.3078 143.218C93.2849 143.218 93.2629 143.209 93.2465 143.193L85.7749 135.925C85.7665 135.917 85.7598 135.907 85.7553 135.896C85.7508 135.885 85.7485 135.873 85.7487 135.861V127.665C85.7486 127.652 85.7459 127.64 85.7408 127.629C85.7357 127.618 85.7284 127.608 85.7192 127.6C85.71 127.592 85.6992 127.586 85.6875 127.582C85.6758 127.578 85.6634 127.577 85.6512 127.578L80.8588 128.12C80.8374 128.122 80.8176 128.132 80.8033 128.148C80.789 128.165 80.7812 128.185 80.7813 128.207V137.916ZM89.2689 152.713L76.2339 139.847C76.2031 139.817 76.1877 139.781 76.1877 139.739L76.1889 129.094C76.1889 129.04 76.1622 129.018 76.1089 129.028C68.701 130.48 61.3569 132.578 54.3864 135.519C54.3514 135.534 54.3339 135.56 54.3339 135.599L54.3564 148.91C54.3564 148.953 54.3718 148.99 54.4026 149.021L80.2477 174.479C80.2573 174.488 80.2686 174.496 80.281 174.501C80.2934 174.506 80.3068 174.509 80.3202 174.509L121.773 174.835C121.816 174.836 121.852 174.821 121.882 174.79L147.509 148.881C147.532 148.857 147.544 148.828 147.544 148.795V135.564C147.544 135.527 147.527 135.502 147.494 135.489C140.476 132.555 133.231 130.378 125.756 128.957C125.723 128.95 125.706 128.964 125.706 128.998V139.648C125.706 139.713 125.68 139.776 125.634 139.824L112.93 152.833C112.87 152.894 112.796 152.925 112.71 152.924L89.3701 152.755C89.331 152.754 89.2972 152.74 89.2689 152.713ZM37.2113 150.856C39.6406 148.926 42.0087 146.994 44.6417 145.335C44.6472 145.331 44.6536 145.329 44.6603 145.329C44.6669 145.328 44.6735 145.33 44.6793 145.333C44.6851 145.336 44.6899 145.341 44.6932 145.347C44.6964 145.353 44.6981 145.359 44.6979 145.366V152.749C44.6978 152.798 44.7171 152.845 44.7516 152.88L76.4088 184.364C76.4397 184.394 76.4759 184.409 76.5176 184.409L125.499 184.434C125.546 184.434 125.592 184.424 125.636 184.406C125.679 184.388 125.719 184.362 125.752 184.329L157.026 153.009C157.04 152.994 157.052 152.977 157.06 152.959C157.068 152.94 157.072 152.919 157.072 152.899V145.675C157.072 145.667 157.074 145.66 157.078 145.654C157.082 145.648 157.087 145.642 157.093 145.639C157.1 145.635 157.107 145.634 157.114 145.634C157.121 145.634 157.128 145.636 157.135 145.64C160.468 147.607 163.629 149.82 166.619 152.276C166.669 152.317 166.694 152.305 166.694 152.24V146.611C166.694 146.589 166.689 146.568 166.68 146.549C166.671 146.53 166.657 146.513 166.641 146.501C162.114 143.059 157.388 140.02 152.248 137.532C152.184 137.501 152.152 137.521 152.152 137.593L152.128 150.708C152.128 150.741 152.115 150.773 152.092 150.797L123.757 179.402C123.727 179.431 123.693 179.445 123.653 179.445C108.78 179.46 93.9076 179.454 79.0344 179.426C78.7194 179.425 78.5282 179.552 78.2596 179.285C68.7556 169.835 59.2617 160.391 49.7777 150.952C49.7444 150.918 49.7277 150.879 49.7277 150.833V137.582C49.7278 137.575 49.7261 137.568 49.7228 137.562C49.7195 137.556 49.7148 137.551 49.709 137.548C49.7033 137.544 49.6967 137.542 49.6899 137.542C49.6831 137.541 49.6763 137.543 49.6702 137.546C45.2681 139.639 41.0973 142.121 37.1575 144.991C37.1234 145.016 37.1063 145.05 37.1063 145.092V150.804C37.1063 150.894 37.1413 150.911 37.2113 150.856Z" fill="white"/>
<path d="M125.869 15.6586L157.016 46.7485C157.031 46.7627 157.042 46.7795 157.05 46.798C157.057 46.8164 157.061 46.8361 157.061 46.8559L157.104 71.0928C157.104 71.1328 157.123 71.1586 157.161 71.1702C167.101 74.2831 176.853 77.9833 186.061 82.8632C186.098 82.8831 186.13 82.913 186.152 82.9495C186.174 82.9861 186.186 83.0279 186.186 83.0706V87.9755C186.186 88.0396 186.158 88.0563 186.102 88.0254C183.671 86.6983 181.179 85.4516 178.628 84.2853C170.043 80.3614 161.222 77.0732 152.164 74.4206C152.123 74.4089 152.103 74.3818 152.103 74.3393L152.143 48.9016C152.143 48.8707 152.137 48.8402 152.125 48.8117C152.113 48.7831 152.096 48.7572 152.074 48.7354L123.75 20.7396C123.69 20.6812 123.611 20.6485 123.527 20.6484L78.5712 20.6921C78.5287 20.6921 78.4925 20.7071 78.4625 20.7371L49.7794 48.9403C49.7443 48.9755 49.7245 49.0231 49.7245 49.0728V74.4481C49.7245 74.4906 49.704 74.5176 49.6632 74.5293C42.711 76.5779 35.8701 78.9489 29.1403 81.6423C24.2917 83.583 19.5206 85.7361 14.9744 88.3191C14.969 88.3222 14.9629 88.3238 14.9566 88.3238C14.9504 88.3238 14.9443 88.3221 14.939 88.3189C14.9336 88.3157 14.9292 88.3111 14.9262 88.3057C14.9232 88.3002 14.9217 88.2941 14.9219 88.2879V83.2818C14.9219 83.2385 14.941 83.2064 14.9794 83.1856C24.4454 78.1495 34.4751 74.3831 44.6771 71.144C44.6986 71.1371 44.7173 71.1236 44.7305 71.1054C44.7438 71.0872 44.7509 71.0653 44.7509 71.0428L44.6959 46.7547C44.6959 46.7291 44.7062 46.7044 44.7246 46.686L76.3131 15.6636C76.3411 15.6363 76.3788 15.6211 76.4181 15.6211H125.777C125.812 15.6211 125.843 15.6336 125.869 15.6586Z" fill="#B0B7BC"/>
<path d="M64.7898 70.7505C64.7898 70.753 64.7894 70.7555 64.7886 70.758C64.7877 70.763 64.7848 70.7659 64.7798 70.7667C61.2717 71.4548 57.8018 72.2746 54.3703 73.226C54.3608 73.2287 54.3508 73.2292 54.3411 73.2274C54.3314 73.2256 54.3223 73.2216 54.3144 73.2156C54.3066 73.2097 54.3002 73.202 54.2958 73.1932C54.2914 73.1844 54.2891 73.1746 54.2891 73.1648V51.1411C54.289 51.0877 54.2996 51.0348 54.3202 50.9857C54.3408 50.9365 54.371 50.8921 54.409 50.8549L80.3379 25.3159C80.3659 25.2887 80.4036 25.2734 80.4429 25.2734H121.675C121.692 25.2734 121.708 25.2766 121.723 25.2829C121.738 25.2891 121.752 25.2982 121.764 25.3097L147.507 51.0598C147.532 51.084 147.544 51.1131 147.544 51.1473V73.1373C147.544 73.1889 147.519 73.2081 147.469 73.1948C140.322 71.2712 133.082 69.7928 125.751 68.7598C125.73 68.7568 125.711 68.7463 125.697 68.7302C125.683 68.7142 125.675 68.6936 125.675 68.6723V60.196C125.675 60.1217 125.645 60.0502 125.592 59.9973L112.755 47.1335C112.724 47.1038 112.684 47.0872 112.641 47.0872L89.504 47.086C89.452 47.086 89.4018 47.1066 89.3641 47.1435L76.2441 59.9473C76.2267 59.9643 76.2129 59.9847 76.2034 60.0072C76.194 60.0297 76.1891 60.054 76.1891 60.0785V68.7285C76.1891 68.7769 76.1653 68.8044 76.1178 68.811C72.3281 69.3784 68.5579 70.0194 64.8073 70.7342C64.7982 70.7359 64.7923 70.7413 64.7898 70.7505Z" fill="#CE0F3D"/>
<path d="M108.681 56.6729L93.3227 56.6655C93.3114 56.6655 93.3006 56.67 93.2927 56.6779L85.7611 64.0346C85.7531 64.0425 85.7486 64.0533 85.7486 64.0646V67.6361C85.7486 67.6467 85.7447 67.657 85.7375 67.6649C85.7303 67.6727 85.7205 67.6776 85.7098 67.6786L80.8275 68.1272C80.8216 68.1277 80.8157 68.127 80.8101 68.1251C80.8045 68.1232 80.7993 68.1201 80.795 68.1161C80.7906 68.1121 80.7872 68.1073 80.7848 68.1019C80.7824 68.0965 80.7812 68.0906 80.7813 68.0847V62.0314C80.7813 62.0202 80.7858 62.0094 80.7937 62.0014L91.3307 51.6844C91.3387 51.6764 91.3495 51.6719 91.3607 51.6719H110.781C110.793 51.6719 110.803 51.6764 110.811 51.6844L121.101 62.0127C121.109 62.0206 121.113 62.0314 121.113 62.0427V68.1522C121.113 68.1581 121.112 68.1639 121.109 68.1693C121.107 68.1746 121.103 68.1794 121.099 68.1833C121.094 68.1872 121.089 68.1901 121.084 68.1918C121.078 68.1936 121.072 68.1941 121.066 68.1934L116.121 67.5873C116.111 67.5861 116.101 67.5811 116.094 67.5733C116.087 67.5654 116.084 67.5553 116.084 67.5448V64.0284C116.084 64.0171 116.079 64.0063 116.071 63.9984L108.711 56.6854C108.703 56.6775 108.692 56.673 108.681 56.6729Z" fill="#B0B7BC"/>
<path d="M97.3783 132.058L104.314 132.059C104.324 132.059 104.335 132.055 104.342 132.047C104.35 132.04 104.354 132.03 104.354 132.019L104.296 102.952C104.296 102.942 104.292 102.932 104.285 102.924C104.277 102.917 104.267 102.913 104.256 102.913L95.5588 102.91C95.5485 102.91 95.5387 102.906 95.5313 102.899L90.3515 97.9777C90.3476 97.974 90.3445 97.9695 90.3424 97.9646C90.3402 97.9596 90.3391 97.9543 90.339 97.9489L90.344 66.0355C90.3444 66.0251 90.3489 66.0152 90.3565 66.008L95.1327 61.3081C95.14 61.301 95.1499 61.297 95.1602 61.2969H106.762C106.772 61.297 106.782 61.301 106.789 61.3081L111.48 65.9568C111.488 65.9642 111.492 65.974 111.492 65.9843L111.488 85.375C111.488 85.3856 111.484 85.3958 111.476 85.4033C111.469 85.4108 111.459 85.415 111.448 85.415H104.602C104.592 85.415 104.582 85.4108 104.574 85.4033C104.567 85.3958 104.562 85.3856 104.562 85.375L104.536 68.6198C104.536 68.6092 104.532 68.599 104.525 68.5915C104.517 68.584 104.507 68.5798 104.496 68.5798L97.5345 68.5736C97.5292 68.5736 97.524 68.5746 97.5192 68.5766C97.5143 68.5786 97.5099 68.5815 97.5062 68.5853C97.5025 68.589 97.4995 68.5934 97.4975 68.5982C97.4955 68.6031 97.4945 68.6083 97.4945 68.6135L97.4957 94.7461C97.4957 94.7513 97.4968 94.7565 97.4988 94.7614C97.5008 94.7662 97.5037 94.7706 97.5075 94.7744C97.5112 94.7781 97.5156 94.781 97.5204 94.783C97.5253 94.785 97.5305 94.7861 97.5357 94.7861L106.309 94.7998C106.32 94.7999 106.33 94.8039 106.337 94.8111L111.423 99.6884C111.427 99.6921 111.43 99.6966 111.432 99.7015C111.434 99.7065 111.435 99.7118 111.436 99.7172L111.569 133.881C111.569 133.891 111.565 133.901 111.558 133.909L106.841 138.679C106.833 138.686 106.824 138.691 106.813 138.691L95.1789 138.614C95.1686 138.613 95.1588 138.609 95.1514 138.602L90.3528 133.891C90.3452 133.884 90.3407 133.874 90.3403 133.864V112.51C90.3403 112.505 90.3413 112.499 90.3433 112.494C90.3453 112.49 90.3483 112.485 90.352 112.481C90.3557 112.478 90.3601 112.475 90.365 112.473C90.3698 112.471 90.375 112.47 90.3803 112.47H97.2983C97.3089 112.47 97.3191 112.474 97.3266 112.481C97.3341 112.489 97.3383 112.499 97.3383 112.51V132.018C97.3383 132.029 97.3425 132.039 97.35 132.046C97.3575 132.054 97.3677 132.058 97.3783 132.058ZM122.427 124.486L121.736 124.409L119.616 124.086L118.706 123.968L117.899 123.858C117.854 123.851 117.831 123.825 117.831 123.779L117.836 78.8181C117.836 78.7656 117.81 78.7365 117.757 78.7307L113.118 78.237C113.103 78.2358 113.089 78.229 113.078 78.2182C113.068 78.2073 113.063 78.1931 113.063 78.1783L113.024 71.6327C113.024 71.6252 113.025 71.6178 113.028 71.6109C113.031 71.604 113.036 71.5979 113.041 71.5928C113.046 71.5877 113.053 71.5839 113.06 71.5815C113.067 71.5791 113.074 71.5782 113.081 71.5789C118.626 72.0088 124.141 72.6849 129.624 73.6071C129.677 73.6154 129.704 73.6471 129.704 73.7021L129.698 80.294C129.698 80.3012 129.696 80.3084 129.693 80.315C129.69 80.3216 129.686 80.3275 129.681 80.3322C129.675 80.337 129.669 80.3405 129.662 80.3425C129.655 80.3445 129.647 80.345 129.64 80.3439L124.763 79.5854C124.678 79.5721 124.636 79.6083 124.636 79.6941L124.85 124.809C124.85 124.856 124.827 124.876 124.779 124.869L122.427 124.486ZM68.2766 123.38C68.0167 123.144 67.8567 123.127 67.8554 122.731C67.8346 108.075 67.8192 93.4181 67.8092 78.7606C67.8092 78.7232 67.8209 78.6898 67.8442 78.6607L71.5694 73.7696C71.5927 73.7383 71.6272 73.7173 71.6656 73.7108C74.6456 73.2143 77.6347 72.7823 80.6331 72.415C80.6847 72.4083 80.7293 72.4233 80.7668 72.4599L85.0555 76.6812C85.071 76.6962 85.0832 76.7141 85.0916 76.7339C85.1 76.7536 85.1043 76.7748 85.1043 76.7962L84.9606 119.938C84.9606 119.978 84.9481 120.015 84.9231 120.048L81.8602 124.074C81.826 124.118 81.7815 124.144 81.7265 124.153C78.2475 124.647 74.7972 125.291 71.3757 126.085C71.351 126.09 71.3254 126.09 71.301 126.084C71.2766 126.078 71.2542 126.066 71.2357 126.05C70.2477 125.171 69.2613 124.281 68.2766 123.38ZM74.3698 80.3202C74.3604 80.3217 74.3517 80.3266 74.3455 80.3339C74.3393 80.3413 74.336 80.3506 74.3361 80.3602L74.1861 118.696C74.186 118.701 74.1873 118.707 74.1897 118.713C74.1922 118.718 74.1958 118.723 74.2004 118.727C74.2049 118.731 74.2103 118.733 74.216 118.735C74.2218 118.736 74.2278 118.737 74.2336 118.735L78.6049 117.917C78.6141 117.915 78.6225 117.91 78.6284 117.903C78.6344 117.896 78.6375 117.886 78.6374 117.877L78.4699 79.7716C78.47 79.7659 78.4688 79.7603 78.4665 79.7551C78.4642 79.7498 78.4608 79.7452 78.4565 79.7414C78.4522 79.7376 78.4472 79.7348 78.4418 79.7331C78.4363 79.7314 78.4306 79.7309 78.4249 79.7316L74.3698 80.3202ZM141.616 105.297L137.611 104.158C137.607 104.157 137.603 104.157 137.599 104.158C137.596 104.159 137.592 104.16 137.589 104.162C137.586 104.164 137.584 104.167 137.582 104.17C137.58 104.174 137.579 104.177 137.579 104.181L137.551 127.818C137.551 127.86 137.531 127.875 137.491 127.864L131.314 126.256C131.282 126.248 131.266 126.228 131.266 126.196V78.6144C131.266 78.5728 131.282 78.5378 131.312 78.5095L135.426 74.7405C135.457 74.7122 135.493 74.7022 135.534 74.7106C138.449 75.2821 141.348 75.9231 144.232 76.6337C144.259 76.64 144.284 76.6517 144.305 76.668C144.327 76.6844 144.345 76.705 144.359 76.7287L147.814 82.9544C147.902 83.1143 147.949 83.294 147.949 83.4768V131.618C147.949 131.651 147.933 131.662 147.901 131.651L141.759 129.344C141.722 129.33 141.703 129.304 141.703 129.264L141.691 105.396C141.691 105.344 141.666 105.311 141.616 105.297ZM137.639 97.2341C137.639 97.2427 137.642 97.251 137.647 97.2578C137.652 97.2645 137.66 97.2694 137.668 97.2716L141.496 98.2426C141.501 98.2441 141.507 98.2443 141.513 98.2431C141.519 98.242 141.525 98.2395 141.529 98.2359C141.534 98.2322 141.538 98.2276 141.54 98.2222C141.543 98.2169 141.544 98.211 141.544 98.2051V82.9819C141.544 82.9732 141.541 82.9648 141.536 82.958C141.531 82.9512 141.523 82.9464 141.514 82.9444L137.687 81.991C137.681 81.9897 137.675 81.9896 137.67 81.9909C137.664 81.9922 137.659 81.9947 137.654 81.9983C137.649 82.0019 137.646 82.0065 137.643 82.0117C137.641 82.0169 137.639 82.0227 137.639 82.0285V97.2341ZM57.877 129.965L58.0133 76.6462C58.0132 76.6204 58.0219 76.5953 58.0381 76.575C58.0542 76.5548 58.0767 76.5407 58.102 76.535L64.3277 75.1079C64.3339 75.1066 64.3402 75.1067 64.3464 75.1082C64.3525 75.1097 64.3582 75.1125 64.3631 75.1164C64.368 75.1204 64.372 75.1253 64.3747 75.131C64.3774 75.1367 64.3789 75.1429 64.3789 75.1492V91.8194C64.3789 91.8452 64.3727 91.8694 64.3602 91.8919C64.352 91.9075 64.3477 91.9251 64.3477 91.9431V127.86C64.3477 127.894 64.3319 127.916 64.3002 127.927L57.9308 130.005C57.895 130.016 57.877 130.003 57.877 129.965ZM48.2348 108.306L44.0135 109.974C43.9668 109.993 43.9439 110.027 43.9448 110.077L44.0172 136.181C44.0172 136.202 44.0113 136.224 44.0001 136.243C43.9889 136.262 43.9728 136.277 43.9535 136.288C41.65 137.573 39.3832 138.92 37.153 140.328C37.1213 140.348 37.1055 140.339 37.1055 140.302V83.0832C37.1056 83.0609 37.1126 83.0391 37.1256 83.021C37.1385 83.0028 37.1569 82.9892 37.1779 82.9819L43.5299 80.7638C43.5343 80.7622 43.539 80.7617 43.5436 80.7623C43.5483 80.7629 43.5527 80.7646 43.5565 80.7673C43.5603 80.77 43.5634 80.7736 43.5655 80.7778C43.5677 80.782 43.5687 80.7866 43.5686 80.7913L43.6536 102.715C43.6537 102.727 43.6566 102.738 43.6621 102.749C43.6675 102.759 43.6754 102.768 43.685 102.775C43.6946 102.781 43.7056 102.786 43.7171 102.787C43.7287 102.788 43.7403 102.787 43.7511 102.783L47.8824 101.193C47.9249 101.176 47.9461 101.145 47.9461 101.099V79.4804C47.9461 79.4405 47.9649 79.4142 48.0024 79.4017C50.1351 78.7077 52.2899 78.0896 54.4668 77.5472C54.5176 77.5347 54.543 77.5547 54.543 77.6072L54.528 131.214C54.528 131.232 54.5228 131.25 54.513 131.265C54.5033 131.279 54.4893 131.291 54.473 131.298L48.3935 133.921C48.3918 133.922 48.3901 133.922 48.3883 133.922C48.3866 133.922 48.385 133.921 48.3835 133.92C48.382 133.919 48.3808 133.918 48.38 133.916C48.3791 133.915 48.3786 133.913 48.3785 133.911L48.3123 108.358C48.3123 108.303 48.2864 108.285 48.2348 108.306ZM161.67 89.0702L161.624 138.339C161.624 138.384 161.604 138.395 161.565 138.37C159.556 137.098 157.482 135.94 155.344 134.896C155.307 134.877 155.288 134.846 155.288 134.805L155.251 86.7871C155.251 86.7752 155.247 86.7637 155.24 86.7542C155.233 86.7447 155.223 86.7379 155.212 86.7346L150.171 85.1776C150.133 85.1659 150.114 85.1405 150.114 85.1013L150.068 78.2645C150.068 78.2287 150.085 78.2158 150.119 78.2258C156.22 80.0253 161.959 81.7748 167.696 84.1691C167.736 84.1858 167.756 84.2158 167.756 84.2591V91.2846C167.756 91.3337 167.733 91.3491 167.687 91.3308L161.749 89.0165C161.696 88.9965 161.67 89.0144 161.67 89.0702Z" fill="black"/>
<path d="M74.3712 80.3194L78.4263 79.7308C78.432 79.7301 78.4377 79.7306 78.4431 79.7323C78.4486 79.734 78.4536 79.7368 78.4579 79.7406C78.4621 79.7444 78.4655 79.749 78.4678 79.7542C78.4702 79.7594 78.4713 79.7651 78.4713 79.7708L78.6387 117.876C78.6389 117.886 78.6357 117.895 78.6298 117.902C78.6238 117.909 78.6155 117.914 78.6063 117.916L74.235 118.735C74.2292 118.736 74.2231 118.736 74.2174 118.734C74.2116 118.733 74.2063 118.73 74.2017 118.726C74.1972 118.722 74.1935 118.717 74.1911 118.712C74.1886 118.707 74.1874 118.701 74.1875 118.695L74.3375 80.3593C74.3373 80.3497 74.3407 80.3404 74.3469 80.3331C74.3531 80.3257 74.3617 80.3209 74.3712 80.3194ZM137.641 97.2333V82.0276C137.641 82.0218 137.642 82.0161 137.645 82.0109C137.647 82.0057 137.651 82.0011 137.655 81.9975C137.66 81.9939 137.665 81.9913 137.671 81.9901C137.677 81.9888 137.682 81.9888 137.688 81.9901L141.516 82.9436C141.524 82.9456 141.532 82.9503 141.537 82.9571C141.543 82.964 141.546 82.9724 141.546 82.9811V98.2043C141.546 98.2102 141.544 98.2161 141.542 98.2214C141.539 98.2267 141.535 98.2314 141.531 98.235C141.526 98.2387 141.52 98.2411 141.515 98.2423C141.509 98.2435 141.503 98.2433 141.497 98.2418L137.669 97.2708C137.661 97.2686 137.654 97.2637 137.649 97.2569C137.643 97.2501 137.641 97.2418 137.641 97.2333Z" fill="white"/>
<path d="M177.114 154.714L186.105 161.975C186.138 162.002 186.155 162.037 186.155 162.08V170.67C186.155 170.677 186.153 170.683 186.149 170.688C186.146 170.693 186.141 170.697 186.135 170.7C186.129 170.702 186.123 170.703 186.117 170.703C186.111 170.702 186.105 170.699 186.1 170.695C180.881 166.346 175.572 162.111 170.172 157.99C170.111 157.943 170.081 157.882 170.081 157.805L169.908 85.1334C169.908 85.0968 169.925 85.0855 169.958 85.0997C175.874 87.5977 180.925 89.6959 186.091 92.645C186.125 92.665 186.144 92.6946 186.149 92.7337C186.179 93.0053 186.193 93.179 186.192 93.2548C186.18 95.595 186.167 97.9352 186.154 100.275C186.153 100.317 186.134 100.328 186.097 100.309C183.044 98.6571 179.961 97.0613 176.849 95.5217C176.805 95.5 176.783 95.5138 176.783 95.5629V119.617C176.783 119.657 176.8 119.687 176.836 119.706C179.962 121.356 183.049 123.076 186.097 124.865C186.136 124.887 186.155 124.92 186.155 124.965V133.106C186.155 133.143 186.139 133.153 186.106 133.135L177.145 128.1C177.091 128.07 177.064 128.086 177.064 128.147V154.609C177.064 154.652 177.08 154.687 177.114 154.714ZM20.0398 169.349L14.8862 165.893C14.8479 165.868 14.8287 165.832 14.8287 165.787C14.8279 143.207 14.8279 120.629 14.8287 98.051C14.8287 97.8735 14.87 97.7065 14.9525 97.5499C16.0072 95.5479 17.0569 93.5464 18.1016 91.5453C18.1414 91.468 18.2042 91.4044 18.2815 91.3629C21.4881 89.6559 24.7472 88.0563 28.0587 86.5643C28.0802 86.5544 28.1039 86.5505 28.1272 86.5529C28.1505 86.5553 28.1726 86.564 28.1912 86.578L32.8848 90.007C32.9282 90.0387 32.9498 90.0812 32.9498 90.1345C32.9523 112.287 32.9328 134.439 32.8911 156.591C32.8903 156.792 32.8474 156.984 32.7624 157.167C31.7827 159.269 30.8084 161.355 29.8395 163.427C29.8151 163.48 29.775 163.525 29.7245 163.555L20.1522 169.352C20.1147 169.374 20.0773 169.374 20.0398 169.349ZM21.6393 97.18C21.6329 97.1832 21.6274 97.1882 21.6237 97.1944C21.6199 97.2006 21.618 97.2077 21.6181 97.215L21.6031 160.989C21.603 160.996 21.6049 161.003 21.6085 161.009C21.6121 161.015 21.6172 161.02 21.6234 161.023C21.6295 161.027 21.6364 161.028 21.6434 161.028C21.6504 161.028 21.6572 161.026 21.6631 161.022L26.4329 157.78C26.4382 157.777 26.4425 157.772 26.4455 157.767C26.4486 157.761 26.4502 157.755 26.4504 157.749V94.7032C26.4503 94.6966 26.4485 94.6902 26.4452 94.6846C26.4419 94.6789 26.4373 94.6742 26.4316 94.6708C26.426 94.6674 26.4196 94.6655 26.4131 94.6653C26.4065 94.6651 26.4 94.6665 26.3942 94.6694L21.6393 97.18Z" fill="black"/>
<path d="M21.6417 97.1827L26.3966 94.6722C26.4024 94.6692 26.4089 94.6678 26.4155 94.668C26.422 94.6682 26.4284 94.6701 26.434 94.6735C26.4397 94.6769 26.4443 94.6816 26.4476 94.6873C26.4509 94.6929 26.4527 94.6993 26.4528 94.7059V157.752C26.4526 157.758 26.451 157.764 26.4479 157.769C26.4449 157.775 26.4406 157.779 26.4353 157.783L21.6655 161.024C21.6596 161.028 21.6528 161.03 21.6458 161.031C21.6388 161.031 21.6319 161.029 21.6258 161.026C21.6196 161.023 21.6145 161.018 21.6109 161.012C21.6073 161.006 21.6055 160.999 21.6055 160.992L21.6205 97.2177C21.6204 97.2104 21.6223 97.2033 21.6261 97.1971C21.6298 97.191 21.6353 97.1859 21.6417 97.1827Z" fill="white"/>
<path d="M121.737 124.41L122.428 124.488C122.201 124.516 121.97 124.49 121.737 124.41ZM80.7813 137.918V128.209C80.7811 128.188 80.7889 128.167 80.8032 128.151C80.8175 128.134 80.8373 128.124 80.8587 128.122L85.6511 127.581C85.6633 127.579 85.6757 127.58 85.6874 127.584C85.6991 127.588 85.7099 127.594 85.7191 127.602C85.7283 127.61 85.7356 127.62 85.7407 127.631C85.7458 127.642 85.7485 127.654 85.7486 127.667V135.863C85.7484 135.875 85.7507 135.887 85.7552 135.898C85.7597 135.909 85.7664 135.919 85.7748 135.927L93.2464 143.195C93.2628 143.211 93.2848 143.22 93.3077 143.22L108.826 143.172C108.849 143.172 108.871 143.163 108.887 143.147L116.219 135.797C116.227 135.789 116.233 135.779 116.237 135.768C116.242 135.757 116.244 135.746 116.244 135.734L116.227 127.623C116.227 127.61 116.23 127.598 116.235 127.587C116.241 127.575 116.248 127.565 116.258 127.557C116.267 127.549 116.278 127.543 116.29 127.539C116.302 127.536 116.315 127.535 116.327 127.537L121.092 128.242C121.113 128.245 121.132 128.255 121.146 128.271C121.16 128.287 121.167 128.308 121.167 128.329L121.136 137.8C121.136 137.823 121.127 137.845 121.111 137.861L110.789 148.282C110.781 148.29 110.771 148.297 110.76 148.302C110.75 148.306 110.738 148.308 110.726 148.308L91.2395 148.17C91.2171 148.169 91.1956 148.16 91.1795 148.145L80.8075 137.98C80.7992 137.972 80.7926 137.962 80.7881 137.951C80.7836 137.941 80.7813 137.929 80.7813 137.918Z" fill="#B0B7BC"/>
<path d="M76.2359 139.849L89.271 152.714C89.2993 152.742 89.333 152.756 89.3722 152.757L112.712 152.926C112.798 152.926 112.872 152.896 112.932 152.834L125.636 139.826C125.682 139.778 125.708 139.715 125.708 139.649V129C125.708 128.966 125.725 128.952 125.758 128.959C133.233 130.38 140.478 132.557 147.496 135.491C147.529 135.504 147.546 135.529 147.546 135.566V148.797C147.546 148.83 147.534 148.859 147.511 148.883L121.884 174.792C121.854 174.823 121.818 174.838 121.775 174.837L80.3223 174.511C80.3088 174.511 80.2955 174.508 80.2831 174.503C80.2706 174.498 80.2593 174.49 80.2498 174.481L54.4047 149.023C54.3738 148.992 54.3584 148.955 54.3584 148.912L54.3359 135.601C54.3359 135.562 54.3534 135.536 54.3884 135.521C61.3589 132.58 68.7031 130.482 76.111 129.03C76.1643 129.02 76.191 129.042 76.191 129.096L76.1897 139.741C76.1897 139.783 76.2051 139.819 76.2359 139.849Z" fill="#CE0F3D"/>
<path d="M37.1055 150.806V145.094C37.1055 145.051 37.1225 145.018 37.1567 144.993C41.0964 142.123 45.2673 139.641 49.6694 137.547C49.6755 137.544 49.6823 137.543 49.6891 137.543C49.6959 137.544 49.7025 137.546 49.7082 137.549C49.714 137.553 49.7187 137.558 49.722 137.564C49.7252 137.57 49.7269 137.577 49.7269 137.583V150.835C49.7269 150.88 49.7435 150.92 49.7769 150.953C59.2608 160.392 68.7548 169.837 78.2587 179.287C78.5274 179.554 78.7186 179.426 79.0335 179.428C93.9068 179.455 108.78 179.461 123.652 179.446C123.692 179.446 123.727 179.432 123.756 179.404L152.091 150.798C152.115 150.774 152.128 150.742 152.128 150.71L152.151 137.595C152.151 137.523 152.183 137.503 152.248 137.533C157.387 140.021 162.114 143.061 166.64 146.502C166.656 146.515 166.67 146.532 166.679 146.551C166.689 146.57 166.693 146.591 166.693 146.612V152.242C166.693 152.307 166.669 152.319 166.619 152.278C163.629 149.821 160.467 147.609 157.134 145.641C157.127 145.637 157.12 145.635 157.113 145.635C157.106 145.635 157.099 145.637 157.092 145.64C157.086 145.644 157.081 145.649 157.077 145.655C157.073 145.662 157.071 145.669 157.071 145.676V152.9C157.071 152.921 157.067 152.941 157.059 152.96C157.051 152.979 157.04 152.996 157.025 153.01L125.751 184.33C125.718 184.363 125.679 184.39 125.635 184.408C125.591 184.426 125.545 184.435 125.498 184.435L76.5167 184.41C76.4751 184.41 76.4388 184.395 76.408 184.365L44.7508 152.882C44.7163 152.846 44.697 152.799 44.6971 152.75V145.367C44.6972 145.361 44.6956 145.354 44.6923 145.348C44.689 145.343 44.6842 145.338 44.6784 145.335C44.6726 145.332 44.666 145.33 44.6594 145.33C44.6528 145.33 44.6464 145.333 44.6408 145.336C42.0078 146.996 39.6397 148.928 37.2104 150.857C37.1405 150.913 37.1055 150.896 37.1055 150.806Z" fill="#B0B7BC"/>
</svg>
