<svg width="200" height="200" viewBox="0 0 200 200" fill="none" xmlns="http://www.w3.org/2000/svg">
<ellipse cx="99.0378" cy="100.001" rx="96.2487" ry="64.9624" fill="white"/>
<path d="M99.9048 39.3633C50.5159 39.3633 10.4766 66.6136 10.4766 100.23C10.4766 113.489 16.7096 125.756 27.2847 135.751C21.9021 127.447 18.7096 118.031 18.187 108.297C16.7713 81.873 40.4443 61.3593 70.9204 55.1025C71.4572 54.9933 71.6948 55.7486 71.1959 55.9672C46.9909 66.6421 30.2302 87.9587 31.4749 111.237C32.7624 135.314 50.2594 152.284 76.5976 159.002C84.0277 160.365 91.838 161.092 99.9 161.092C149.289 161.092 189.323 133.842 189.323 100.225C189.328 66.6136 149.294 39.3633 99.9048 39.3633ZM172.411 111.713C172.411 111.713 163.95 119.718 133.839 131.542L134.842 132.45L162.496 122.535C162.496 122.535 158.767 131.993 156.13 135.728C153.493 139.457 152.22 141.186 145.213 141.096L117.559 136.82C117.559 136.82 89.3581 145.552 79.3482 143.918C79.3482 143.918 62.6113 143.372 63.609 125.086C63.609 125.086 68.7921 134.274 82.3507 136.911C95.9046 139.547 110.732 136.82 116.376 135.457C116.376 135.457 140.937 126.996 149.308 121.176C157.679 115.352 156.22 108.259 154.766 104.529C153.313 100.8 147.488 93.8877 137.208 89.7023C126.927 85.5169 118.376 84.3339 114.556 84.79L130.842 77.4216C130.842 77.4216 133.478 76.6947 133.664 80.9704C133.664 80.9704 133.754 83.6071 132.756 84.0631C132.756 84.0631 158.23 88.4291 165.323 104.078C165.323 104.078 167.498 107.888 165.503 112.81C165.503 112.81 170.781 112.81 173.328 102.805C173.328 102.805 174.781 100.168 168.686 94.3438C162.591 88.5193 146.581 79.3314 146.581 79.3314C146.581 79.3314 142.761 77.3313 141.122 74.2386C139.483 71.1458 136.847 68.9605 131.569 68.5994C126.29 68.2336 95.9996 66.6896 73.8944 82.2436C73.8944 82.2436 78.3553 46.879 88.541 43.1259C88.541 43.1259 93.819 41.3063 101.639 55.226C101.639 55.226 117.924 58.1383 135.298 64.9603C135.298 64.9603 138.847 65.5969 142.12 69.9629C145.393 74.3288 144.942 74.5094 151.945 79.0606C158.947 83.6071 171.047 90.2486 175.508 97.256C175.504 97.2465 179.413 102.159 172.411 111.713Z" fill="#1E3160"/>
<path d="M89.2568 46.8477C82.8908 50.4867 79.0664 73.9555 79.0664 73.9555C90.2544 57.4893 97.5326 55.4893 97.5326 55.4893C97.7131 54.4869 95.713 52.4868 95.713 52.4868C92.5348 46.8477 89.2568 46.8477 89.2568 46.8477Z" fill="#1E3160"/>
</svg>
