<svg width="200" height="200" viewBox="0 0 200 200" fill="none" xmlns="http://www.w3.org/2000/svg">
<g clip-path="url(#clip0_107_20129)">
<path d="M0 153.517L16.7476 114.084H38.3673L50.3951 85.9174H28.7755L45.5231 46.4844H164.431C174.937 46.4844 189.553 47.7024 196.556 58.2077C203.56 68.713 198.231 81.0454 195.034 88.5057C186.508 108.451 174.175 121.696 141.898 121.696H119.517L106.119 153.517H0Z" fill="black"/>
<path d="M190.465 62.3191C186.659 56.5336 178.437 53.9453 164.582 53.9453H50.3941L39.8887 78.7622H61.3561L43.2383 121.393H21.6186L11.1133 146.209H101.246L111.751 121.393H89.9794L92.8721 114.541H141.897C173.413 114.541 181.939 100.839 188.334 85.7658C191.835 77.5442 194.88 69.0182 190.465 62.3191ZM108.097 78.7622H144.181C146.769 78.7622 147.987 79.3712 148.292 79.828C148.596 80.1325 148.444 81.1983 147.835 82.873C146.008 87.1361 141.592 89.8766 136.264 89.8766H103.377L108.097 78.7622Z" fill="#9D9795"/>
<path d="M164.582 57.75H52.9819L45.6739 74.9544H67.1413L45.6739 125.197H24.2065L16.8984 142.402H98.8095L106.118 125.197H84.1934L90.4357 110.733H142.049C171.586 110.733 179.046 98.2488 184.984 84.2417C190.921 70.2346 194.119 57.75 164.582 57.75ZM136.263 93.529H97.7438L105.661 74.9544H144.18C151.032 74.9544 153.772 78.4562 151.336 84.2417C148.748 90.0272 143.115 93.529 136.263 93.529Z" fill="#CFB991"/>
</g>
<defs>
<clipPath id="clip0_107_20129">
<rect width="200" height="200" fill="white"/>
</clipPath>
</defs>
</svg>
