<svg width="200" height="200" viewBox="0 0 200 200" fill="none" xmlns="http://www.w3.org/2000/svg">
<path d="M113.014 39.3438C126.96 39.3438 138.169 42.742 146.396 49.418V49.4189C154.413 56.0192 158.272 63.9511 158.272 73.6963C158.272 80.4155 156.255 86.2786 152.256 91.2744C148.251 96.2775 142.238 100.436 134.212 103.698L133.647 103.928L133.982 104.437L156.277 138.287L156.425 138.513H168.706V160.651H104.983V138.513H115.368L114.886 137.746L96.5518 108.634L96.4053 108.4H81.0391V138.513H90.5439V160.651H31.2891V138.513H40.4893V61.4912H31.2891V39.3438H113.014ZM81.0361 87.1064H95.9287C103.169 87.1064 108.778 85.6779 112.485 82.7764L112.493 82.7695L112.502 82.7617C115.367 80.3093 116.802 77.4815 116.827 74.125C116.872 72.6751 116.617 71.2317 116.076 69.8857C115.535 68.5399 114.72 67.32 113.685 66.3047L113.641 66.2607C110.543 63.0694 105.92 61.4902 99.9902 61.4902H81.0361V87.1064Z" fill="black" stroke="black"/>
<path d="M112.995 42.4961C126.192 42.4962 136.73 45.6649 144.367 51.8594V51.8604C151.579 57.8047 155.064 64.9237 155.064 73.666C155.064 79.9854 153.136 85.3898 149.229 89.9688C145.312 94.558 139.383 98.3466 131.341 101.375L129.392 102.106L128.806 102.326L129.15 102.85L154.566 141.464L154.714 141.689H165.519V157.459H108.165V141.689H121.109L120.627 140.923L98.2861 105.428L98.1387 105.194H77.8311V141.689H87.3633V157.459H34.4805V141.689H43.6807V58.2998H34.4805V42.4961H112.995ZM77.832 90.2861H95.8867C103.893 90.2861 110.154 88.6235 114.439 85.2783L114.492 85.2344L115.103 84.7275L115.08 84.7168C118.324 81.7615 119.997 78.1955 120.007 74.1182C120.052 72.2468 119.713 70.3863 119.009 68.6514C118.349 67.0252 117.383 65.5423 116.164 64.2832L115.917 64.0342C112.229 60.2122 106.852 58.2989 99.9961 58.2988H77.832V90.2861Z" fill="#CC0033" stroke="black"/>
</svg>
