<svg width="200" height="200" viewBox="0 0 200 200" fill="none" xmlns="http://www.w3.org/2000/svg">
<path d="M152.709 28.9798C140.832 29.1201 129.827 30.3292 129.827 30.3292L129.424 33.8764H129.42L125.637 67.0078C125.637 67.0078 128.055 67.0479 128.932 68.7001C129.807 70.3345 129.997 71.6372 129.244 73.9997L120.549 107.185L114.739 80.308C114.205 78.1704 114.254 74.7947 115.182 72.7928C115.866 71.3121 116.859 70.7042 117.534 70.4548L121.6 31.0284C114.973 31.7392 108.381 32.7512 101.846 34.0612C92.3003 36.0163 84.1661 38.3632 84.1661 38.3632L79.5434 78.5712C79.5434 78.5712 81.3916 78.6113 82.447 80.6109C83.6584 82.8932 83.1507 83.9977 82.447 86.9503L74.3974 119.082L68.5434 92.5528C68.0223 90.2815 68.0602 86.623 68.8952 84.8216C69.6746 83.1515 70.5853 82.2453 71.2778 81.7598L75.5108 40.6902C72.0482 41.9149 60.8545 46.0521 51.431 51.5187C41.5332 57.2592 34.4923 63.4584 34.4923 63.4584L29.9609 105.448C29.9609 105.448 31.8715 104.268 34.2719 105.014C36.6522 105.748 37.278 107.581 37.9682 109.748L55.3768 162.617C63.3996 151 75.6266 145.255 89.2675 141.908C90.4361 141.62 91.609 141.35 92.7857 141.098L98.9471 110.182L105.106 138.666C105.106 138.666 110.733 137.909 119.58 138.363C129.571 138.875 136.922 140.55 140.5 141.534C142.09 141.97 142.943 142.273 142.943 142.273L163.885 75.3558C163.885 75.3558 164.838 70.4703 167.314 68.7558C169.073 67.5378 171.362 67.7137 171.362 67.7137L175.319 29.5922C175.319 29.5922 167.577 28.8061 152.709 28.9776" fill="#C5050C"/>
<path d="M129.413 33.8789C126.846 34.1483 125.283 34.3463 125.243 34.353L124.673 34.4269L120.994 69.4153L120.941 70.2025H121.75C121.942 70.2025 123.619 70.2343 124.242 71.3811C124.933 72.657 124.887 74.4165 124.094 76.9305L118.528 97.8709L120.546 107.186L129.24 73.9989C129.992 71.6385 129.806 70.334 128.931 68.6974C128.053 67.0496 125.634 67.0056 125.634 67.0056L129.418 33.8789L129.413 33.8789ZM83.7353 42.0637C82.2638 42.5225 80.7995 43.0039 79.3428 43.5076L78.9122 43.6555L74.6371 80.6181L74.5457 81.5488L75.4895 81.4053C75.5941 81.3897 76.6327 81.3201 77.5857 82.6361C78.5922 84.0278 78.2609 85.3897 77.6597 87.868L72.3364 109.757L74.3935 119.081L82.4437 86.9501C83.1473 83.9975 83.655 82.8959 82.4437 80.6135C81.3883 78.6139 79.5429 78.5738 79.5429 78.5738L83.7353 42.0637ZM34.1345 66.7793C32.4665 68.1374 30.8462 69.5531 29.2766 71.0239L29.0896 71.2022L24.6797 111.479L25.9409 110.705C25.9654 110.691 28.2461 109.317 30.3726 109.317C30.7801 109.317 31.1605 109.369 31.499 109.478C33.0822 109.973 33.6076 110.809 34.2867 112.931L54.2095 171.044L55.0228 169.739C62.6715 157.434 72.2378 150.5 88.0449 145.797L88.4624 145.671L89.267 141.909C75.626 145.256 63.398 151.003 55.3749 162.62L37.9655 109.749C37.2797 107.582 36.6514 105.754 34.2688 105.017C33.5577 104.799 32.8101 104.725 32.07 104.799C31.3299 104.874 30.6121 105.096 29.959 105.452L34.1345 66.7793ZM98.9453 110.183L96.7186 121.356L102.051 143.736L102.755 143.58C102.802 143.571 107.204 142.61 115.485 142.61C116.821 142.61 118.203 142.633 119.595 142.688C129.16 143.027 138.431 145.501 138.521 145.528L139.204 145.706L140.5 141.536C136.922 140.552 129.568 138.877 119.577 138.365C110.73 137.911 105.104 138.67 105.104 138.67L98.9453 110.183Z" fill="black"/>
</svg>
