<svg width="200" height="200" viewBox="0 0 200 200" fill="none" xmlns="http://www.w3.org/2000/svg">
<g clip-path="url(#clip0_107_20137)">
<path d="M179.287 86.1133C170.03 89.2775 146.425 109.853 138.48 124.749C153.266 115.677 188.763 123.066 184.917 150.483C209.322 134.418 201.689 94.3436 179.295 86.1133" fill="#FFCD00"/>
<path d="M100.4 80.8454C100.279 83.5788 100.8 86.3025 101.922 88.798C103.043 91.2935 104.734 93.4913 106.859 95.2151C108.984 96.9388 111.483 98.1405 114.156 98.7237C116.829 99.3069 119.602 99.2553 122.252 98.5732C124.901 97.891 127.354 96.5972 129.413 94.7956C131.472 92.9941 133.08 90.7349 134.109 88.1994C135.137 85.6639 135.556 82.9227 135.333 80.1958C135.11 77.4689 134.251 74.8322 132.825 72.4973C136.04 73.0359 139.557 75.3501 142.149 79.4232C146.256 85.9957 149.378 89.9341 154.621 91.0029C164.467 93.0142 171.334 84.7418 170.686 76.8649C170.156 70.5028 166.596 65.8491 163.398 62.7522C146.45 46.3589 126.37 38.7092 97.7578 37.085C23.9542 32.8773 -0.349659 75.7962 0.00379079 97.6175C3.5467 93.6033 8.88211 89.4039 12.181 88.0575C5.71789 97.4155 2.9997 105.646 2.97445 115.416C6.58468 110.863 9.40386 108.945 13.073 107.43C7.60295 117.84 7.51038 124.665 7.83016 134.073C11.3226 129.773 14.1081 127.206 17.0872 125.944C17.0872 125.944 12.0884 138.273 14.7224 151.19C37.9744 106.647 74.7415 76.3684 103.472 71.9335C102.109 74.2898 100.518 77.9337 100.383 80.837" fill="#FFCD00"/>
<path d="M153.207 139.166C147.33 137.48 141.335 136.234 135.273 135.438C135.337 139.14 136.425 142.753 138.416 145.876C140.407 148.999 143.224 151.51 146.554 153.13C149.884 154.751 153.598 155.418 157.284 155.058C160.97 154.698 164.484 153.325 167.437 151.09C155.917 153.177 150.994 145.738 153.207 139.166Z" fill="#FFCD00"/>
<path d="M116.592 110.108C110.044 109.807 103.799 107.26 98.9098 102.895C94.0202 98.5295 90.784 92.6127 89.7462 86.1406C89.7462 86.1406 85.1093 87.5039 78.6631 92.1998C71.451 97.451 70.6263 101.028 70.6263 101.028C80.1694 96.8199 87.9537 99.7905 90.3858 105.042C92.8179 110.293 88.7027 117.438 76.5844 122.386C66.3176 126.594 58.3397 132.897 57.7674 142.322C57.2541 150.738 62.0257 160.289 75.9028 162.73C102.142 167.341 130.107 137.66 130.73 107.516C126.238 109.317 121.43 110.198 116.592 110.108Z" fill="#FFCD00"/>
</g>
<defs>
<clipPath id="clip0_107_20137">
<rect width="200" height="200" fill="white"/>
</clipPath>
</defs>
</svg>
