<svg width="200" height="200" viewBox="0 0 200 200" fill="none" xmlns="http://www.w3.org/2000/svg">
<g clip-path="url(#clip0_107_20125)">
<path fill-rule="evenodd" clip-rule="evenodd" d="M187.496 129.138L152.438 70.8587H162.098V40.4922H103.74V70.8587H113.398L99.9984 93.124L86.6106 70.8587H96.2645V40.4922H37.9102V70.8587H47.5641L12.5061 129.138H0V159.504H59.5151V129.138H48.8245L67.0882 98.7771L74.1691 110.553H67.3777V140.917H132.624V110.553H125.838L132.919 98.7771L151.18 129.138H140.487V159.504H200V129.138H187.496Z" fill="#5B0013"/>
<path fill-rule="evenodd" clip-rule="evenodd" d="M154.313 48.2702V63.0702H138.674L183.102 136.921H192.223V151.714H148.276V136.921H164.951L132.921 83.6718L112.07 118.332H124.842V133.127H75.1641V118.332H87.9437L67.0906 83.6718L35.0571 136.921H51.7355V151.714H7.79183V136.921H16.9102L61.3388 63.0677H45.6996V48.2702H88.4825V63.0702H72.8433L100.003 108.218L127.171 63.0669H111.532V48.2694L154.313 48.2702ZM158.206 44.3758V66.9603H145.557L185.304 133.026H196.117V155.606H144.383V133.026H158.068L132.921 91.2232L118.954 114.439H128.735V137.021H71.2707V114.441H81.0577L67.0903 91.2256L41.9434 133.029H55.6266V155.605H3.89844V133.026H14.7082L54.4552 66.9595H41.8087V44.375H92.376V66.9595H79.727L100.004 100.667L120.286 66.9595H107.64V44.375H158.207" fill="#FFB71E"/>
</g>
<defs>
<clipPath id="clip0_107_20125">
<rect width="200" height="200" fill="white"/>
</clipPath>
</defs>
</svg>
