<svg width="200" height="200" viewBox="0 0 200 200" fill="none" xmlns="http://www.w3.org/2000/svg">
<path d="M31.2344 31.2363V71.9518H40.2816V128.052H35.7576H31.2344V168.766H89.1408V164.24V132.576V128.052H84.6176H80.0936V105.631L118.799 166.666L120.131 168.766H168.765V164.241V132.576V128.053H164.241H159.717V71.9526H168.765V67.4286V35.7612V31.2372H164.241H115.381H110.857V71.9526H119.905V94.3764L81.2056 33.3269L79.8736 31.2266H77.3855H35.7666H31.2425L31.2344 31.2363Z" fill="#E41C38"/>
<path d="M33.043 33.0477V70.1426H42.091V129.863H35.7575H33.043V166.959H87.3313V164.243V132.578V129.863H84.6167H78.2841V99.4017L120.326 165.697L121.127 166.958H166.954V164.242V132.578V129.863H164.24H157.907V70.1426H166.954V67.4297V35.7623V33.0477H164.24H115.381H112.666V70.1426H121.713V100.611L79.6699 34.3072L78.8707 33.0469H77.3773H35.7575L33.043 33.0477Z" fill="white"/>
<path d="M35.7578 35.7578V67.4252H44.8051V132.572H35.7578V164.24H84.617V132.572H75.5706V90.0494L122.62 164.24H164.241V132.572H155.194V67.4252H164.241V35.7578H115.382V67.4252H124.429V109.957L77.3776 35.7578H35.7578Z" fill="#E41C38"/>
</svg>
