<svg width="200" height="200" viewBox="0 0 200 200" fill="none" xmlns="http://www.w3.org/2000/svg">
<path d="M30.0018 21.1607L30.0057 21.1627L40.5644 49.2947L40.5564 132.784L29.0548 158.023H73.0493V106.002L90.9567 146.353H108.435L126.328 106.017V158.023H170.946L158.816 132.754V49.1477L169.196 21.1647L127.937 21.1644L99.6734 86.4391L71.4363 21.1604L30.0018 21.1607ZM27.8418 166.076H27.8457L31.6483 172.405L27.832 178.845H172.167L168.357 172.395L172.167 166.076H27.8418Z" fill="black"/>
<path d="M34.6152 24.3555L34.6133 24.3594H34.6172L34.6152 24.3555ZM34.6172 24.3594L43.7537 48.7125L43.7477 133.484L34.0195 154.833H69.8543V90.9351L93.0315 143.163H106.359L129.516 90.9451V154.833H165.865L155.625 133.484V48.5775L164.605 24.3594H130.026L99.6743 94.486L69.3393 24.3594H34.6172ZM37.2519 168.284V176.634H43.8997V172.424L37.4939 168.284H37.2539H37.2519ZM45.2596 168.284V172.264L51.7824 176.634H51.9114V168.284H45.2596ZM58.8042 168.284L59.9401 169.024V168.284H58.8042ZM69.2838 168.284V175.264L71.3268 176.634H76.4376L76.4476 168.284H69.2838ZM131.676 168.284V176.634H138.325V172.424L131.916 168.284H131.676ZM139.685 168.284V172.264L146.195 176.634H146.325V168.284H139.685ZM153.215 168.284L154.355 169.024V168.284H153.215ZM163.695 168.284V175.264L165.735 176.634H168.114L165.215 172.384L168.094 168.284H163.695ZM61.2681 170.964V176.634H67.9169V175.344L61.2681 170.964ZM155.681 170.964V176.634H162.331V175.344L155.681 170.964Z" fill="#FFD200"/>
<path d="M37.9649 26.6719V26.6778L46.0776 48.293L46.0696 133.984L37.6289 152.503H67.5319V79.9669L94.541 140.834H104.846L131.846 79.979V152.503H162.175L153.305 134.004V48.152L161.265 26.6728L131.556 26.6723L99.6738 100.324L67.8129 26.6723L37.9649 26.6719ZM82.1214 168.297C81.9224 168.717 81.7644 169.197 81.6544 169.717C78.8235 169.887 76.7746 171.037 76.7686 172.427H99.9488V168.297H96.4219V169.277H87.4432C87.3442 168.927 87.2152 168.597 87.0742 168.297H82.1214ZM99.9488 172.427V176.637H103.473V175.597H112.554C112.657 175.977 112.794 176.317 112.946 176.637H117.847C118.057 176.197 118.225 175.707 118.343 175.167C121.179 174.987 123.227 173.847 123.227 172.437V172.427H99.9488ZM123.227 172.427H123.618V168.297H117.874C118.072 168.717 118.23 169.197 118.343 169.717C121.173 169.887 123.218 171.037 123.227 172.427ZM76.7686 172.427H76.4396L76.4346 176.637H82.1484C81.9384 176.197 81.7704 175.707 81.6544 175.167C78.8185 174.987 76.7686 173.847 76.7686 172.437V172.427ZM103.473 168.297V169.277H112.554C112.651 168.927 112.779 168.597 112.923 168.297H103.475H103.473ZM87.4432 175.597C87.3392 175.977 87.2022 176.317 87.0512 176.637H96.4219V175.597H87.4432Z" fill="#E21833"/>
<path d="M76.4511 168.289L76.4453 172.429H76.7744C76.7807 171.032 78.8288 169.88 81.66 169.71C81.77 169.192 81.929 168.715 82.1278 168.289L76.4511 168.289ZM76.7744 172.429C76.7744 172.43 76.7733 172.431 76.7733 172.438C76.7733 173.839 78.8237 174.988 81.6599 175.162C81.7755 175.704 81.944 176.198 82.154 176.636H87.0562C87.2075 176.316 87.3444 175.971 87.4488 175.598H96.427V176.636H99.9552V172.429L76.7744 172.429ZM99.9552 172.429L123.235 172.429C123.225 171.036 121.182 169.88 118.351 169.71C118.238 169.192 118.08 168.715 117.881 168.289H112.931C112.788 168.595 112.66 168.92 112.562 169.276H103.481V168.289H99.9563V172.429L99.9552 172.429ZM123.235 172.429V172.438C123.235 173.839 121.187 174.988 118.351 175.162C118.233 175.704 118.065 176.198 117.855 176.636H123.626V172.429L123.235 172.429ZM87.08 168.289C87.2212 168.595 87.3498 168.92 87.4491 169.276H96.4273V168.289H87.08ZM103.479 175.597V176.635H112.953C112.8 176.316 112.665 175.971 112.561 175.597H103.479Z" fill="white"/>
</svg>
