<svg width="200" height="200" viewBox="0 0 200 200" fill="none" xmlns="http://www.w3.org/2000/svg">
<g clip-path="url(#clip0_107_20133)">
<path d="M155.978 62.6844V19.1445H44.0234V62.6844H68.9033V137.321H44.0234V180.859H155.978V137.319H131.101V62.6827L155.978 62.6844Z" fill="#13294B"/>
<path fill-rule="evenodd" clip-rule="evenodd" d="M160.978 67.6847L136.101 67.683V132.319H160.978V185.859H39.0234V132.321H63.9033V67.6844H39.0234V14.1445H160.978V67.6847ZM131.101 62.6827L155.978 62.6844V19.1445H44.0234V62.6844H68.9033V137.321H44.0234V180.859H155.978V137.319H131.101V62.6827Z" fill="white"/>
<path d="M131.102 56.4615H149.76V25.3633H50.2422V56.4615H68.9038C70.553 56.4624 72.1344 57.118 73.3004 58.2844C74.4664 59.4507 75.1216 61.0322 75.1221 62.6814V137.318C75.1216 138.967 74.4665 140.549 73.3005 141.715C72.1346 142.882 70.5532 143.538 68.9038 143.539H50.2422V174.638H149.762V143.538H131.102C129.452 143.538 127.87 142.882 126.703 141.716C125.536 140.55 124.881 138.968 124.88 137.318V62.6814C124.88 61.8645 125.041 61.0555 125.354 60.3008C125.667 59.546 126.125 58.8603 126.703 58.2826C127.28 57.705 127.966 57.2469 128.721 56.9344C129.476 56.622 130.285 56.4612 131.102 56.4615Z" fill="#FF5F05"/>
</g>
<defs>
<clipPath id="clip0_107_20133">
<rect width="200" height="200" fill="white"/>
</clipPath>
</defs>
</svg>
