<svg width="200" height="200" viewBox="0 0 200 200" fill="none" xmlns="http://www.w3.org/2000/svg">
<path d="M131.479 42.4211L99.9735 85.98L68.5208 42.4211H20V76.648H32.019V123.349H20V157.574H81.8705V123.349H69.051V96.5469L99.8076 138.838L130.949 96.511V123.349H118.129V157.574H180V123.349H167.981V76.648H180V42.4211H131.479Z" fill="#00274C"/>
<path d="M177.421 74.0643V44.9908H132.793L99.9684 90.3714L67.2022 44.9908H22.5742V74.0643H34.5933V125.919H22.5742V154.992H79.293V125.919H66.4718V88.6198L99.8162 134.469L133.523 88.6557V125.919H120.704V154.992H177.421V125.919H165.402V74.0643H177.421Z" fill="#F5C300"/>
</svg>
