<svg width="200" height="200" viewBox="0 0 200 200" fill="none" xmlns="http://www.w3.org/2000/svg">
<g clip-path="url(#clip0_154_2445)">
<path d="M181.224 154.26C182.424 152.124 183.088 148.284 182.776 145.796C184.896 143.532 188.144 139.796 190.408 136.028C193.552 136.532 200 137.548 200 137.548C200 137.548 197.392 115.908 193.912 102.836C195.376 101.532 197.48 99.4435 197.48 99.4435C196.336 88.9395 192.312 76.0115 187.624 66.5555C199.728 49.0995 188.384 25.7875 169.464 19.6995C169.432 25.3795 166.816 33.4355 165 36.3555C164.176 34.5235 162.92 32.6675 162.92 30.5875C162.92 28.6515 164.032 26.9235 165.008 25.3395C167.144 21.8675 169.624 18.4115 172.904 15.9235C158.608 4.56353 136.248 8.81153 124.68 22.1715C104.112 19.5555 83.256 25.2995 68.68 40.5715C57.192 40.1155 45.696 40.4995 34.2 40.5075C22.8 40.5155 11.4 40.5075 0 40.5075L17.208 60.3075C13.224 68.8435 10.416 77.9395 7.32 86.8435C4.584 94.7155 2.04 104.116 6.504 111.868C13.864 124.636 32.224 122.868 44.592 122.868C41.952 130.292 38.288 137.892 38.728 145.972C39.064 152.212 42.12 157.812 47.408 161.196C57.016 167.348 70.024 166.22 80.92 166.068C93.432 165.892 105.952 165.972 118.464 165.972C125.352 169.06 132.08 172.5 138.68 176.156C144.768 179.532 150.616 183.38 157.016 186.172C168.976 191.404 183.408 192.636 195.328 186.612C192.36 183.852 182.808 172.516 181.224 154.26Z" fill="#C1C6C8"/>
<path d="M177.456 144.004C178.944 142.548 183.656 137.54 185.872 133.732C185.872 133.732 184.704 131.396 184.168 129.828C186.136 130.228 194.152 131.484 194.152 131.484C194.152 131.484 192.032 113.996 188.168 101.172C189.016 100.468 192.168 97.4917 192.168 97.4917C191.632 92.4597 188.768 79.1637 181.584 65.9477C192.84 54.4757 187.024 33.6277 173.28 26.9797C173.12 33.9797 168.824 42.2437 163.568 44.0437C162.944 43.5637 162.304 43.0917 161.664 42.6357C160.808 38.2437 157.424 34.3957 157.832 29.7477C158.264 24.8517 161.784 20.4117 164.984 16.9397C152.28 10.5157 134.712 16.4357 126.808 27.6997C106.264 23.6117 84.7679 29.9717 70.7519 45.7797C60.9279 44.9637 50.9359 45.5717 41.0799 45.5717C31.1039 45.5717 21.1279 45.5717 11.1439 45.5717L23.2719 59.5157C18.9039 67.5237 16.4479 76.3717 13.3919 84.9317C10.6639 92.5877 6.35186 101.788 11.0639 109.564C14.6479 115.46 21.5119 117.252 27.9759 117.716C35.8879 118.276 43.9439 117.828 51.8719 117.828C49.9199 124.3 46.9759 130.452 45.0959 136.956C43.0479 144.028 43.1999 151.972 49.6399 156.724C54.9999 160.684 62.1919 160.884 68.5839 160.884C85.4479 160.9 102.304 160.884 119.168 160.884C130.72 165.9 141.448 172.148 152.48 178.164C162.744 183.756 174.672 187.644 186.304 184.204C186.304 184.204 177.784 174.468 175.984 152.884C177.84 150.788 178.096 148.052 177.456 144.004Z" fill="#00529B"/>
<path d="M100.256 97.5794C105.496 97.5794 115.84 97.6754 115.456 105.147C115.296 107.483 114.088 111.043 112.272 116.195H94.4563L97.0563 108.875H85.3683C80.2803 120.531 77.1603 129.515 73.9363 140.651H103.544L99.5443 151.939H67.7043C62.4803 151.939 52.2403 151.843 52.7043 144.539C52.8723 142.027 53.8003 138.259 55.7043 133.483L61.1443 118.467C61.2243 118.243 61.3043 118.027 61.3923 117.819H71.0643L78.2323 97.5794H100.256ZM20.9123 90.4274C19.0003 95.1954 18.0723 98.9554 17.9123 101.475C17.4403 108.771 27.6803 108.875 32.9123 108.875H64.7443L68.7443 97.5874H39.1443C42.3603 86.4514 45.4803 77.4754 50.5763 65.8114H62.2563L59.6643 73.1394H77.4803C79.2963 67.9874 80.5123 64.4274 80.6723 62.0914C81.0483 54.6114 70.7043 54.5234 65.4643 54.5234H30.7603L34.8243 59.1954C31.3843 62.0114 29.9043 65.8194 26.3603 75.4194L20.9123 90.4274Z" fill="white"/>
<path d="M177.817 114.708C177.817 114.708 177.713 106.644 176.153 97.5798C164.777 101.836 157.385 106.46 157.385 106.46C157.385 106.46 157.329 103.716 159.873 99.8998C156.081 95.9158 154.641 90.1318 154.417 89.1158C150.977 84.2838 147.673 80.9718 147.673 80.9718C155.249 82.4438 161.329 84.7798 164.561 86.1718C162.689 80.5958 158.009 76.5958 158.009 76.5958C152.577 75.7558 143.025 76.0438 143.025 76.0438C143.025 76.0438 144.633 70.2118 148.889 64.9558C144.569 67.5798 137.985 69.9798 128.561 69.5238C125.265 71.7878 122.521 73.8838 120.321 75.6918C121.417 87.4598 124.473 98.1078 124.473 98.1078C127.169 101.18 141.241 112.54 141.241 112.54C135.945 112.508 129.641 109.932 124.249 107.068C123.481 113.252 120.657 119.316 118.601 125.148H104.473C105.281 127.156 106.233 129.46 107.257 131.724H116.201C116.201 131.724 114.729 135.876 113.041 140.652C119.601 144.716 144.241 159.316 169.089 165.428C167.849 160.236 167.249 155.716 166.985 153.276C160.913 151.548 159.929 144.66 159.929 144.66C164.593 147.276 169.201 145.724 169.201 145.724C167.833 142.052 165.953 139.852 165.953 139.852C159.617 136.852 149.913 135.46 145.345 135.18L140.609 138.204C140.609 138.204 141.809 128.532 151.273 124.228C158.681 126.468 172.161 135.252 173.825 136.828C176.049 134.74 177.257 132.532 177.257 132.532C175.449 128.524 170.985 118.34 170.985 118.34C175.329 116.708 177.817 114.708 177.817 114.708ZM142.113 125.284C142.113 125.284 141.297 123.94 141.433 121.964C141.433 121.964 138.481 120.716 137.825 116.02C137.825 116.02 140.121 118.628 144.193 119.204C146.217 119.5 147.737 120.004 148.881 120.524C145.233 122.292 142.113 125.284 142.113 125.284ZM151.985 22.6758C146.057 24.4838 133.937 35.5078 143.745 54.0678C139.849 54.0198 136.361 51.7398 135.585 51.0118C134.105 49.6198 128.937 43.1318 133.137 35.0438C139.281 23.2118 151.985 22.6758 151.985 22.6758ZM176.441 57.6678C175.681 56.6038 174.857 55.5638 174.033 54.5238C176.729 51.8678 180.073 46.3638 176.313 38.2758C182.121 45.7958 178.977 54.4198 176.441 57.6678ZM108.057 89.1238C102.089 88.2838 95.8969 88.6438 89.8889 88.6438C87.4729 80.2438 87.6969 73.0758 87.6969 73.0758C90.7049 75.2118 93.6969 77.3798 96.6569 79.5798C100.529 82.4758 104.993 85.3398 108.057 89.1238Z" fill="#C1C6C8"/>
<path d="M170.968 118.324C175.328 116.708 177.808 114.7 177.808 114.7C177.808 114.7 177.704 106.636 176.144 97.5718C176.672 92.2278 174.704 85.3718 174.704 85.3718L172.936 87.5798C168.08 77.7158 159.96 71.5238 159.96 71.5238C149.32 71.7158 143.016 76.0358 143.016 76.0358C143.016 76.0358 144.624 70.2038 148.88 64.9478C152.424 62.7958 154.456 60.4918 155.224 59.4998C160.84 61.9158 168.096 65.5078 173.968 70.0358C177.896 75.8758 182.056 83.7878 184.384 93.4758C184.384 93.4758 181.768 95.5638 178.44 98.0278C178.44 98.0278 183.304 109.492 184.88 122.532C184.888 122.532 176.24 120.332 170.968 118.324ZM166.064 93.7398C162.92 91.3958 159.312 89.8278 157.424 88.7558C160.096 95.5558 164 97.6118 165.168 98.0838L164.128 94.9878L166.064 93.7398ZM161.256 133.788C158.856 132.044 155.36 130.332 154.36 129.868C153.184 130.468 150.904 131.796 150.904 131.796C155.36 132.396 161.256 133.788 161.256 133.788ZM150.016 37.6918C146.832 30.1318 151.992 22.6758 151.992 22.6758C151.992 22.6758 139.288 23.2118 133.152 35.0518C128.952 43.1398 134.12 49.6278 135.6 51.0198C136.912 52.2518 145.992 57.9958 151.704 49.6438C154.752 45.1798 150.712 39.3798 150.016 37.6918ZM176.32 38.2758C176.32 38.2758 175.392 45.2918 169.728 49.5638C172.208 52.1238 174.44 54.8518 176.448 57.6758C178.976 54.4198 182.12 45.7958 176.32 38.2758Z" fill="white"/>
</g>
<defs>
<clipPath id="clip0_154_2445">
<rect width="200" height="200" fill="white"/>
</clipPath>
</defs>
</svg>
