<svg width="200" height="200" viewBox="0 0 200 200" fill="none" xmlns="http://www.w3.org/2000/svg">
<path d="M134.035 21.7182H76.1689C57.5463 21.7182 45.22 11.9492 45.22 11.9492C45.22 11.9492 44.1709 24.5047 43.7446 30.0449C43.3512 35.2244 43.1217 41.6496 43.0561 43.3543C42.2693 59.7119 54.9573 70.4649 58.3016 72.9229C52.4333 75.8076 35.1221 88.101 33.5487 119.146L45.4826 119.277L44.663 122.162C11.2875 147.664 22.6646 188.052 22.6646 188.052C22.6646 188.052 61.1225 160.548 102.17 172.973V178.513H115.514C121.448 181.561 125.513 183.955 125.513 183.955C125.513 183.955 141.447 150.32 168.922 149.009L166.329 124.714L177.438 78.4268C186.914 41.5468 156.265 21.7146 134.036 21.7146L134.035 21.7182Z" fill="white"/>
<path d="M49.5127 19.6542C49.5127 19.6542 47.7423 40.6031 47.9718 42.931C48.3652 47.3565 49.5782 54.1092 53.5125 60.2722C56.9222 65.5828 60.2346 68.4985 64.5295 70.8916C64.1033 71.6455 62.2987 76.5959 62.2987 76.5959C62.2987 76.5959 45.5772 80.956 39.4141 114.328L51.9398 114.491L48.9224 125.146C21.743 144.846 26.4315 179.43 26.4315 179.43C48.9224 162.02 97.8068 156.779 123.545 177.199C123.545 177.199 132.626 151.758 163.543 145.137L161.311 124.39L172.661 77.2165C181.074 44.5011 154.23 26.6345 134.034 26.6345H76.1663C58.4942 26.6345 49.5122 19.6523 49.5122 19.6523L49.5127 19.6542ZM60.5619 35.6511C60.5619 35.6511 68.9882 39.3234 74.529 39.3234H134.035C148.657 39.3234 166.097 51.8147 160.425 74.0402L148.525 123.54L149.967 136.881C149.967 136.881 138.852 139.734 130.591 147.34C125.378 152.159 119.15 161.304 119.15 161.304C119.15 161.304 108.986 154.32 80.4303 153.041C54.1041 151.861 40.7599 161.599 40.7599 161.599C40.7599 161.599 42.3656 148.584 51.8733 139.077C60.3975 130.554 73.6112 128.291 89.9703 129.209L107.641 62.9609L83.2488 62.8606C74.9541 62.8278 69.2848 61.3207 64.2025 53.3875C59.4815 45.9788 60.5619 35.6511 60.5619 35.6511ZM113.377 62.9922L108.036 82.76C111.117 83.4812 114.361 83.874 117.672 83.874C123.279 83.874 128.59 82.7605 133.376 80.7279L133.771 80.5642L135.279 74.5002C136.197 71.1893 135.704 68.1399 134.294 65.7141C133.081 63.6161 125.083 63.0242 122.23 63.0242L113.377 62.9922ZM99.7817 65.954C100.961 65.9576 101.673 66.0096 101.673 66.0096L89.5775 111.116C85.4466 118.754 83.5102 119.966 77.8384 123.343C72.1338 126.752 61.3475 127.802 61.3475 127.802L68.66 101.938L57.3798 101.807C57.3798 101.807 60.068 94.2675 63.5433 90.7927C66.5924 87.744 73.0516 85.0883 73.0516 85.0883C73.0516 85.0883 75.6086 74.9598 83.2149 69.8789C88.5015 66.363 96.2419 65.9443 99.7806 65.9551L99.7817 65.954ZM132.263 86.6919C127.772 88.1998 122.954 89.0221 117.905 89.0221C114.101 89.0221 110.33 88.5623 106.756 87.6772L101.97 106.887C105.609 105.936 109.479 105.445 113.446 105.445C118.134 105.412 122.823 106.134 127.117 107.445L132.263 86.6919ZM113.609 110.527C108.954 110.527 104.495 111.313 100.364 112.723L95.6747 129.669C105.642 130.718 112.133 132.718 112.133 132.718C113.083 130.817 115.117 128.72 117.609 126.786C120.002 124.917 121.575 124.066 124.427 123.049L125.872 112.427C122.069 111.181 117.872 110.527 113.609 110.527ZM105.019 172.877V173.663H105.774V176.418H106.692V173.663H107.446V172.877H105.019ZM108.168 172.877L107.578 176.418H108.496L108.791 174.383L109.61 176.418H109.969L110.823 174.383H110.855L111.118 176.418H112.036L111.478 172.877H110.56L109.805 174.777L109.083 172.877H108.168Z" fill="#091F40"/>
<path d="M64.89 41.7819C65.1851 44.7651 65.9726 48.2721 67.7757 51.0914C71.8084 57.3855 75.8062 58.567 83.2487 58.5997L111.118 58.7313H111.446L122.232 58.7635C122.232 58.7635 143.576 56.1066 139.38 75.5463L130.1 112.819L128.263 126.195C128.263 126.195 118.034 128.587 114.296 137.864C114.296 137.864 72.7247 125.507 54.7907 142.095C51.086 145.537 48.8577 149.864 47.3496 153.536C54.3985 150.847 65.5127 148.093 80.529 148.781C100.857 149.699 112.364 153.435 117.74 155.796C123.051 144.814 137.837 135.733 145.247 133.832L144.099 123.214L156.198 72.9578C161.082 54.208 146.69 43.5853 134.035 43.5853H74.5291C71.3161 43.5853 67.6768 42.667 64.89 41.7819ZM96.1338 70.4C92.7241 70.695 88.5611 71.4826 85.6431 73.4495C82.6596 75.4164 80.562 78.5311 79.1523 81.3176C78.4638 82.6944 77.9709 83.9381 77.6758 84.8232C77.6102 84.9871 77.5455 85.1511 77.4799 85.2823L76.7255 88.2324L74.7577 89.054C74.7249 89.054 73.2827 89.677 71.5122 90.5949C69.6108 91.5783 67.7085 92.7585 66.6265 93.8403C65.7413 94.7255 64.8235 96.1333 64.0038 97.6414L74.3306 97.7729L67.2858 122.557C70.2693 121.934 73.5455 120.985 75.7094 119.706C78.5618 118.035 80.0379 117.117 81.3495 115.838C82.5953 114.625 83.8086 112.919 85.6445 109.575L96.1351 70.402L96.1338 70.4Z" fill="#D31245"/>
</svg>
