<svg width="200" height="200" viewBox="0 0 200 200" fill="none" xmlns="http://www.w3.org/2000/svg">
<g clip-path="url(#clip0_154_2428)">
<path d="M195.127 21.6142C163.499 11.9975 122.209 11.4883 90.4648 22.4403C71.5207 6.61661 50.643 12.5701 42.8252 16.3442C42.8252 16.3442 58.3438 27.8351 47.3265 53.8876C45.3275 58.6147 40.2675 65.4458 39.5187 74.3374C3.92869 89.9828 0 99.6668 0 99.6668C19.6137 94.6722 41.4701 90.9338 41.4701 90.9338C47.0372 108.414 60.6579 116.392 61.1116 117.499C67.798 133.809 67.0076 132.146 67.2116 131.764C71.9169 122.989 71.3384 123.815 71.7049 124.012C73.8248 125.145 75.1066 125.763 75.8813 126.124C76.0021 162.349 99.5861 188.02 99.5921 187.96C100.961 170.742 102.502 146.795 111.479 130.66C119.101 117.527 140.367 103.344 144.147 101.206C144.935 100.755 145.812 100.483 146.717 100.411C147.622 100.339 148.532 100.468 149.381 100.788C151.398 101.456 151.039 101.426 151.331 101.155C163.879 89.4657 173.785 84.0967 173.785 84.0967C152.541 82.4305 140.541 84.2948 136.975 84.9942C136.856 81.6262 136.183 77.7728 134.671 73.4637C181.803 58.8802 172.688 49.428 171.067 48.1046C181.833 46.3552 192.068 40.1144 198.408 32.5582C199.133 31.6895 199.633 30.6542 199.86 29.5451C200.088 28.4361 200.037 27.2879 199.712 26.2034C199.387 25.119 198.798 24.1321 197.997 23.3311C197.197 22.5302 196.211 21.9403 195.127 21.6142ZM86.2211 103.187C84.4004 92.8298 93.1394 86.486 93.1394 86.486C102.699 87.0368 108.563 90.5197 110.005 91.4707C102.16 94.1591 93.5732 97.9511 86.2211 103.187Z" fill="white"/>
<path d="M39.6562 74.2189C39.6582 74.1951 39.6622 74.1713 39.6562 74.2189V74.2189Z" fill="white"/>
<path d="M66.9006 66.4393C69.4068 61.5755 73.3474 56.2065 76.5291 52.4205C75.0868 55.628 72.9808 60.9891 71.8119 65.8113C70.2468 65.9678 68.6064 66.1778 66.9006 66.4393ZM79.4395 65.4488C80.1468 59.5171 82.6926 52.4403 85.1493 47.3962C81.4365 51.8301 76.5628 58.8712 74.1438 65.6033C76.0596 65.4745 77.8347 65.423 79.4454 65.4547L79.4395 65.4488ZM195.339 29.9856C191.586 34.471 182.211 42.7107 168.971 44.3511L165.167 48.2105C167.196 49.5973 168.117 51.0139 168.046 51.6003C167.523 55.9133 165.054 59.9846 128.545 70.1224C135.156 80.1075 135.479 92.4285 130.808 103.117L130.819 103.147C130.819 103.147 136.083 98.273 136.89 88.6127C146.328 87.1823 155.37 86.6791 162.861 87.0456C158.073 90.0352 151.786 95.9411 150.514 97.1497C150.444 97.216 150.357 97.2624 150.263 97.2844C150.168 97.3063 150.07 97.3029 149.978 97.2745C148.658 96.8952 147.272 96.8003 145.913 96.996C144.554 97.1917 143.252 97.6735 142.092 98.4097C115.743 114.962 108.295 129.282 108.295 129.282C98.546 145.699 96.6619 178.208 96.6619 178.208C85.4524 162.731 79.0076 143.644 79.4454 123.88C76.2475 122.446 73.1316 120.836 70.1121 119.058L67.5365 123.868L63.8813 114.953C50.7559 105.332 45.8525 94.691 43.9228 86.6217C30.9738 88.9297 16.9252 92.9 7.0332 95.7034C15.1343 87.4082 53.1948 70.2373 88.4598 67.8757C87.7723 66.7444 85.7397 65.9916 82.7283 65.6469C82.3915 65.6073 82.0388 65.5736 81.6802 65.5458C83.4137 57.2249 88.8125 48.3095 93.7793 42.366C90.9026 47.9133 87.6 57.102 87.4514 64.4483C88.2941 64.1616 89.1235 63.8836 89.9398 63.6142C91.3603 54.0054 96.5866 44.3313 102.399 37.3457C98.6352 44.264 95.6 53.4824 95.7347 61.8014C119.933 54.6355 132.444 55.7033 132.488 55.6974C144.482 60.4106 159.828 56.2164 162.695 52.1114C158.507 51.5924 148.743 48.6028 146.703 46.9505C147.23 47.0772 148.385 47.3031 149.815 47.626L148.674 43.8459L145.47 46.3521L144.194 42.8534L141.694 44.6364C140.781 44.1252 139.919 43.5281 139.119 42.8534C137.387 42.9088 131.392 45.1912 131.392 45.1912C149.025 32.3927 147.275 39.2258 163.289 40.0005C167.404 40.1986 172.006 39.9311 176.508 38.261C181.151 36.5393 184.84 34.0708 187.117 31.3962C187.311 31.1632 187.444 30.8852 187.504 30.5874C187.563 30.2897 187.546 29.9819 187.456 29.6922C187.365 29.4026 187.203 29.1403 186.984 28.9295C186.766 28.7187 186.498 28.5662 186.205 28.4858C143.982 16.8286 108.696 22.1797 83.8714 32.9891C84.4076 31.9665 85.0801 31.0214 85.8704 30.1797C74.8887 19.0415 59.6831 19.7032 56.3112 20.3035C56.3389 20.3788 62.8491 31.9747 58.4033 45.9579C62.8669 41.419 68.0437 37.4784 73.7693 34.1064C72.1071 26.148 64.7629 22.3679 61.4048 21.0306C67.6079 22.3085 77.5455 25.7518 79.8298 34.8355C64.8302 42.051 54.122 51.2041 48.6044 59.3546C64.4855 30.3164 50.0427 18.0648 50.0427 18.0648C50.0784 18.0648 70.2052 9.39912 89.3652 26.7622C120.735 15.0732 161.583 15.7845 193.972 25.4308C194.425 25.5652 194.838 25.8101 195.172 26.1437C195.507 26.4772 195.754 26.8888 195.89 27.3414C196.026 27.7941 196.048 28.2735 195.953 28.7364C195.857 29.1994 195.648 29.6314 195.345 29.9935L195.339 29.9856ZM122.655 97.3676C122.124 96.7732 121.514 96.1214 120.914 95.5191C107.406 99.8421 96.3469 105.893 90.6253 110.731C89.5336 109.938 88.3806 108.68 87.4355 106.687C95.7109 100.577 106.502 95.9649 117.827 92.7376C110.79 87.0238 101.779 83.636 91.7664 83.426C75.8417 95.5885 81.6247 117.166 99.8358 124.864C99.8358 124.864 94.334 120.175 96.761 115.927V115.904C102.514 107.41 112.333 101.451 122.655 97.3676ZM158.118 28.2402C157.892 28.2395 157.674 28.1564 157.504 28.0064C157.358 28.3293 157.278 28.6782 157.268 29.0326C157.256 29.3755 157.313 29.7172 157.436 30.0374C157.56 30.3575 157.746 30.6495 157.985 30.8956C158.224 31.1418 158.51 31.3371 158.827 31.4697C159.143 31.6024 159.483 31.6697 159.826 31.6676C160.47 31.6635 161.092 31.4317 161.581 31.0133C162.071 30.5949 162.396 30.0168 162.501 29.3813C163.019 29.6788 163.404 30.1638 163.576 30.7365C168.472 30.2649 174.217 29.8588 178.934 29.5656C173.298 28.5017 167.553 27.6854 161.766 27.1208C161.378 26.7472 160.883 26.5038 160.351 26.4242C159.818 26.3447 159.274 26.433 158.794 26.677C158.918 26.8091 159.001 26.9747 159.032 27.1535C159.064 27.3322 159.042 27.5162 158.969 27.6826C158.897 27.8491 158.777 27.9906 158.625 28.0897C158.473 28.1888 158.296 28.2411 158.114 28.2402H158.118ZM48.6697 66.5998C70.8372 37.3833 114.592 29.203 156.682 30.7483C156.333 30.161 156.188 29.475 156.27 28.7969C156.358 28.0096 156.726 27.28 157.306 26.7404C111.144 23.2832 63.4969 35.8657 48.6697 66.5998ZM178.572 32.3749C173.173 31.5963 172.862 35.1941 170.263 35.8459C177.393 36.789 173.567 32.9891 178.572 32.3749Z" fill="#65B2E8"/>
<path d="M56.3105 20.3054C56.4076 20.2876 56.5087 20.2717 56.6315 20.2539C56.4235 20.2836 56.3105 20.3054 56.3105 20.3054Z" fill="#FFC629"/>
<path d="M57.2281 102.216C53.2777 96.9326 51.5976 90.2699 50.8883 85.5547C49.9176 85.6894 49.4064 85.7528 47.877 85.9826C49.0914 91.9935 51.9998 98.9772 59.5996 105.909C58.7329 104.682 57.9314 103.411 57.1984 102.1C57.2044 102.139 57.2162 102.187 57.2281 102.216Z" fill="white"/>
<path d="M136.168 93.0453C141.513 91.6821 146.939 90.6597 152.414 89.9844C147.068 90.1268 141.742 90.6786 136.481 91.6347C136.389 92.1208 136.284 92.591 136.168 93.0453Z" fill="white"/>
<path d="M119.267 101.05C119.267 101.05 102.031 116.057 101.869 123.112C99.1049 120.614 99.1881 117.882 99.1881 117.882C101.011 111.926 119.267 101.05 119.267 101.05ZM86.1915 133.937C85.8041 144.278 88.47 154.503 93.8567 163.338C93.722 158.1 94.3897 153.137 95.7963 149.343C90.8652 145.49 87.6101 140.136 86.1995 133.933L86.1915 133.937ZM58.3955 45.9727C62.8592 41.4338 68.036 37.4933 73.7616 34.1213C72.0994 26.1609 64.7532 22.3808 61.397 21.0455C59.7173 20.6893 58.0156 20.4458 56.3034 20.3164C56.3391 20.3818 62.8453 31.9776 58.4035 45.9608L58.3955 45.9727ZM48.6699 66.6028C57.5734 59.9559 65.7715 57.4002 73.401 56.3601C74.4728 54.9356 75.5387 53.6023 76.5293 52.4235C76.0598 53.4695 75.5169 54.7494 74.9602 56.1639C76.347 56.0094 77.7081 55.9004 79.0553 55.8192C80.8949 52.8805 82.9309 50.0694 85.1494 47.4051C83.8533 50.0932 82.7284 52.8605 81.7814 55.6904C82.9424 55.6468 84.0895 55.6191 85.2247 55.5933C87.5479 50.8706 90.4193 46.4378 93.7795 42.3868C91.6567 46.5713 89.9915 50.9725 88.8126 55.5141C89.8964 55.4844 90.9702 55.4467 92.0321 55.3932C94.4095 48.685 98.2589 42.3432 102.4 37.3645C99.6398 42.4423 97.2683 48.7602 96.2579 55.0525C99.826 54.6404 103.281 53.8479 106.629 52.263C109.916 42.8028 118.277 38.5116 118.277 38.5116C115.255 41.737 115.864 47.001 115.864 47.001C126.796 37.1129 143.254 32.4511 156.682 30.7513C114.592 29.206 70.8374 37.3863 48.6699 66.6028ZM54.5025 85.0832C53.3138 85.2325 52.1079 85.3903 50.8849 85.5567C51.5981 90.272 53.2782 96.9347 57.2247 102.218C57.2108 102.175 57.1989 102.129 57.185 102.086C54.5719 96.6969 54.1578 90.2819 54.5025 85.0832Z" fill="#FFC629"/>
<path d="M151.515 43.9692L150.59 40.9062C151.652 41.1044 152.844 41.4035 154.063 41.7304L151.515 43.9692ZM155.545 42.1247L156.377 44.9677L158.74 42.9746C157.732 42.721 155.596 42.1385 155.545 42.1247ZM159.608 43.1906L160.43 45.8592L162.439 43.7552C161.524 43.6145 160.577 43.4224 159.608 43.1906ZM163.311 43.8741L163.6 45.9206L165.536 43.9949C164.792 44.0178 164.048 43.9773 163.311 43.8741ZM159.656 49.0251L158.913 46.6002L156.484 48.8349C158.663 49.1083 160.785 49.2054 162.336 48.8944L161.956 46.2515L159.656 49.0251ZM154.045 45.0628L150.885 47.8622C152.195 48.1455 153.694 48.4347 155.212 48.6547L154.045 45.0628Z" fill="white"/>
</g>
<defs>
<clipPath id="clip0_154_2428">
<rect width="200" height="200" fill="white"/>
</clipPath>
</defs>
</svg>
