<svg width="200" height="200" viewBox="0 0 200 200" fill="none" xmlns="http://www.w3.org/2000/svg">
<g clip-path="url(#clip0_154_2461)">
<path d="M103.547 46.6339C117.005 42.4636 130.429 38.1759 143.869 33.9453C139.637 46.9191 135.386 59.8812 131.135 72.8433C133.072 71.8918 135.066 71.041 137.135 70.415C154.376 65.0197 171.579 59.4952 188.842 54.1637C185.712 63.8585 182.504 73.528 179.381 83.2277C169.033 86.4951 158.686 89.7507 148.345 93.0231C144.911 103.569 141.478 114.121 138.049 124.672C148.233 121.896 158.409 119.095 168.6 116.351C165.45 125.886 162.398 135.459 159.226 144.987C146.338 148.526 133.435 152.002 120.546 155.531C115.873 156.932 110.644 158.147 105.975 156.093C101.702 154.345 99.0122 149.837 98.9048 145.301C98.5255 139.302 101.103 133.725 102.825 128.115C93.9324 131.409 85.0969 134.848 76.1926 138.12C77.1878 134.858 78.3004 131.639 79.3912 128.414C77.0703 131.943 74.9575 135.606 72.6903 139.174C72.2993 139.896 71.4384 140.077 70.7537 140.404C63.6786 143.163 56.669 146.066 49.6056 148.852C49.4562 142.398 49.3002 135.949 49.0166 129.5C46.4708 137.083 44.0442 144.709 41.5035 152.297C31.6644 156.496 21.7918 160.624 11.9746 164.863C22.7719 131.658 33.7168 98.5023 44.509 65.2866C57.1942 61.2707 69.8828 57.2818 82.5747 53.281C82.8247 61.9605 83.0764 70.6449 83.355 79.3243C90.1733 68.4851 96.7886 57.51 103.548 46.6339M107.136 49.5169C106.329 49.6713 105.725 50.1949 105.366 50.9115C96.9279 64.7143 88.3609 78.4366 79.9752 92.2663C79.5372 80.9975 79.2267 69.7203 78.9532 58.443C68.4664 61.7054 57.9964 65.0046 47.5415 68.3526C37.7914 98.2607 27.9423 128.134 18.2257 158.047C24.9686 155.154 31.75 152.351 38.471 149.399C43.039 135.378 47.6539 121.369 52.2369 107.351C52.5843 119.325 52.878 131.304 53.3378 143.277C58.0383 141.378 62.7388 139.485 67.4561 137.63C68.5151 137.186 69.7988 136.897 70.3442 135.757C77.9161 123.421 85.5047 111.088 93.1034 98.7624C89.4517 109.741 85.8471 120.736 82.3011 131.747C91.1567 128.452 99.9855 125.084 108.841 121.778C107.462 126.266 105.943 130.71 104.515 135.18C103.317 138.741 102.204 142.539 102.842 146.325C103.221 148.832 104.681 151.238 107.007 152.378C110.103 153.977 113.767 153.415 116.997 152.554C130.082 148.976 143.168 145.405 156.259 141.864C158.392 135.202 160.639 128.582 162.75 121.913C152.574 124.625 142.419 127.415 132.263 130.206C136.648 116.762 141.097 103.34 145.541 89.9185C155.798 86.6562 166.071 83.4476 176.333 80.192C178.557 73.4743 180.733 66.7365 182.927 60.0037C167.879 64.6992 152.852 69.4752 137.82 74.2076C132.226 75.8925 127.279 79.3898 123.559 83.8537C128.304 69.1732 133.134 54.5145 137.942 39.8507C127.653 43.0107 117.408 46.3217 107.133 49.5136L107.136 49.5169Z" fill="#FDB813"/>
<path d="M107.133 49.5144C117.405 46.3225 127.652 43.0115 137.941 39.8516C133.135 54.5136 128.305 69.1723 123.556 83.8528C127.278 79.3873 132.225 75.89 137.818 74.2051C152.851 69.4727 167.879 64.6967 182.926 60.0012C180.732 66.734 178.556 73.4734 176.332 80.1894C166.07 83.4467 155.797 86.6537 145.54 89.916C141.096 103.34 136.647 116.761 132.262 130.205C142.417 127.413 152.571 124.622 162.749 121.91C160.636 128.579 158.391 135.199 156.258 141.863C143.167 145.403 130.08 148.975 116.994 152.552C113.765 153.414 110.102 153.975 107.006 152.375C104.68 151.238 103.22 148.831 102.839 146.322C102.203 142.536 103.316 138.739 104.514 135.178C105.942 130.707 107.461 126.263 108.84 121.777C99.9844 125.082 91.1556 128.452 82.3 131.746C85.8459 120.734 89.4489 109.74 93.1023 98.7616C85.5036 111.088 77.915 123.419 70.3414 135.755C69.796 136.894 68.5139 137.183 67.455 137.628C62.7377 139.484 58.0372 141.377 53.3367 143.275C52.8769 131.301 52.5832 119.322 52.2358 107.349C47.6528 121.366 43.0378 135.377 38.4699 149.398C31.7489 152.35 24.9674 155.151 18.2246 158.044C27.9411 128.129 37.7919 98.2581 47.5386 68.35C57.9936 65.0021 68.4653 61.7028 78.9521 58.4405C79.2256 69.7194 79.5344 80.9966 79.9741 92.2638C88.3581 78.4341 96.9251 64.7135 105.365 50.9106C105.722 50.194 106.324 49.6688 107.133 49.5144ZM107.492 51.8403C97.583 67.86 87.8077 83.9669 77.8193 99.9296C77.5139 87.132 77.1145 74.3293 76.6866 61.5333C67.5742 64.3996 58.4618 67.2609 49.3594 70.154C40.2252 98.0853 31.0759 126.01 21.9535 153.946C26.852 151.946 31.6918 149.791 36.5887 147.786C42.4236 129.967 48.2686 112.148 54.0868 94.3262C54.6104 109.53 55.0165 124.738 55.4663 139.947C59.269 138.445 63.0599 136.925 66.8458 135.396C67.5473 135.09 68.3545 134.829 68.6968 134.07C79.531 116.471 90.3451 98.8488 101.189 81.2567C96.1196 96.8283 91.013 112.39 85.9063 127.951C93.7987 124.961 101.73 122.053 109.612 119.03C117.868 93.7993 126.142 68.5749 134.371 43.3354C125.413 46.1916 116.435 48.9505 107.494 51.8437M138.402 76.422C131.911 78.4274 126.35 83.0154 122.911 88.8453C120.622 92.4702 119.456 96.632 118.145 100.675C114.114 113.065 110.077 125.454 106.056 137.844C105.2 140.722 104.477 143.828 105.269 146.807C105.782 148.844 107.509 150.492 109.578 150.882C112.334 151.38 115.115 150.754 117.751 149.984C129.997 146.631 142.247 143.305 154.493 139.962C156.038 135.032 157.723 130.138 159.269 125.203C149.092 127.973 138.911 130.749 128.74 133.525C133.595 118.78 138.305 103.984 143.199 89.2498C143.472 88.0734 144.729 87.7747 145.712 87.4424C155.322 84.4419 164.921 81.3893 174.526 78.3736C176.173 73.4264 177.757 68.4641 179.393 63.5119C165.719 67.7744 152.064 72.1158 138.402 76.422Z" fill="white"/>
<path d="M130.81 46.8359C123.505 49.2109 116.153 51.4395 108.853 53.8251C114.965 53.3002 121.019 52.1027 126.982 50.6742C119.635 73.2421 112.216 95.7871 104.851 118.348C105.797 118.006 106.749 117.676 107.706 117.339C115.487 93.8673 123.12 70.3449 130.811 46.8373L130.81 46.8359ZM74.5619 64.6365C66.7108 67.0221 58.9081 69.5568 51.0744 71.9949C58.1764 71.1182 65.1226 69.2481 72.1507 67.9109C72.5991 81.2207 72.92 94.5399 73.2677 107.856C74.1081 106.091 75.9112 104.579 75.601 102.461C75.2332 89.8572 74.8251 77.2468 74.5633 64.6378L74.5619 64.6365ZM175.831 67.0423C163.719 70.7597 151.677 74.6974 139.564 78.4188C140.747 78.2967 141.928 78.1275 143.088 77.855C152.747 75.6197 162.429 73.4582 171.992 70.8121C171.296 73.0152 170.59 75.2142 169.857 77.4066C170.809 77.1126 171.769 76.8239 172.726 76.5339C173.757 73.3683 174.788 70.2026 175.831 67.0423ZM100.263 73.712C87.7979 93.8995 75.3929 114.129 63.0551 134.391C64.45 133.717 66.3926 133.609 67.2102 132.106C77.0563 116.095 86.9091 100.093 96.7498 84.0762C98.2897 80.771 99.1087 77.1716 100.263 73.712ZM140.889 88.6744C139.14 89.2477 137.675 90.5392 137.163 92.3355C132.489 106.609 127.911 120.911 123.183 135.167C124.102 134.943 125.027 134.718 125.952 134.499C131.033 119.258 135.98 103.97 140.889 88.6744ZM50.9321 88.767C50.1615 90.6331 49.5627 92.5677 48.9586 94.4929C43.226 112.108 37.4787 129.717 31.7676 147.337C32.7678 146.894 33.7706 146.45 34.7762 146.016C39.8617 130.434 44.9445 114.846 50.0836 99.283C51.3725 95.92 50.4663 92.2589 50.9321 88.767ZM155.778 128.53C146.435 131.054 137.099 133.621 127.758 136.161C135.87 135.118 143.902 133.513 151.983 132.268C151.305 134.465 150.545 136.646 149.833 138.839C150.748 138.598 151.667 138.363 152.587 138.128C153.768 134.967 154.719 131.733 155.778 128.53Z" fill="#6280A7" stroke="#6280A7" stroke-width="2.68729"/>
<path d="M155.113 22.832C136.315 28.715 117.536 34.6503 98.7537 40.591C95.7693 45.42 92.7916 50.2531 89.8192 55.0875C89.83 51.2211 89.6152 47.3546 89.5239 43.4881C72.6201 48.8032 55.7312 54.1625 38.8221 59.4561C25.9285 98.874 13.008 138.28 0.142578 177.703C30.5602 164.714 60.8972 151.48 91.9028 139.938C91.2933 144.767 91.5779 149.906 93.9515 154.259C96.7856 159.819 102.618 163.546 108.766 164.225C114.248 165.001 119.622 163.341 124.831 161.876C138.189 158.244 151.53 154.567 164.9 150.975C169.846 135.937 174.725 120.875 179.665 105.832C169.467 108.57 159.286 111.365 149.098 114.141C150.714 109.04 152.449 103.982 154.027 98.87C164.359 95.5123 174.746 92.3091 185.109 89.0306C190.092 73.6668 195.116 58.3177 200.143 42.9645C180.955 48.9911 161.785 55.0661 142.598 61.0927C146.78 48.344 150.983 35.6035 155.112 22.8334L155.113 22.832ZM143.867 33.9441C139.638 46.9169 135.385 59.879 131.134 72.8438C133.07 71.8919 135.065 71.0408 137.135 70.4138C154.376 65.0182 171.578 59.4951 188.84 54.1639C185.712 63.8596 182.504 73.5258 179.382 83.2255C169.034 86.4932 158.688 89.7502 148.345 93.0233C144.912 103.569 141.478 114.121 138.051 124.671C148.233 121.896 158.408 119.092 168.601 116.35C165.452 125.884 162.399 135.456 159.228 144.986C146.34 148.526 133.435 152.003 120.547 155.533C115.874 156.934 110.643 158.146 105.975 156.094C101.702 154.344 99.0115 149.835 98.9054 145.3C98.5255 139.3 101.103 133.725 102.826 128.116C93.9314 131.41 85.0989 134.847 76.1953 138.119C77.1888 134.858 78.299 131.638 79.3905 128.414C77.0693 131.943 74.9588 135.608 72.6913 139.174C72.3006 139.896 71.4387 140.077 70.754 140.404C63.6789 143.163 56.6709 146.068 49.6052 148.854C49.4562 142.399 49.2991 135.948 49.0159 129.5C46.4704 137.082 44.0432 144.706 41.5031 152.296C31.6637 156.492 21.7895 160.625 11.9716 164.864C22.7682 131.656 33.7164 98.4981 44.509 65.284C57.1932 61.2672 69.8827 57.2812 82.5723 53.2805C82.8247 61.9599 83.0744 70.6434 83.3523 79.3228C90.171 68.4833 96.7869 57.5108 103.547 46.6337C117.005 42.4624 130.428 38.1731 143.867 33.9428V33.9441ZM134.368 43.3337C125.411 46.1893 116.432 48.9495 107.491 51.8427C97.5817 67.859 87.8081 83.9666 77.8184 99.9292C77.5136 87.1323 77.1122 74.3286 76.684 61.5303C67.5723 64.3966 58.4592 67.2575 49.3582 70.1507C40.225 98.0819 31.0744 126.008 21.9519 153.944C26.8494 151.944 31.6879 149.788 36.5854 147.782C42.42 129.964 48.2667 112.149 54.0852 94.3255C54.6102 109.528 55.017 124.738 55.4654 139.947C59.2674 138.445 63.06 136.924 66.8459 135.395C67.5454 135.09 68.3523 134.827 68.6946 134.067C79.5288 116.468 90.3442 98.8472 101.188 81.2534C96.1184 96.8267 91.0114 112.389 85.9044 127.95C93.7971 124.961 101.726 122.053 109.608 119.032C117.865 93.8019 126.137 68.5746 134.368 43.3351V43.3337ZM130.809 46.8377C123.119 70.3453 115.486 93.8704 107.704 117.34C106.747 117.677 105.797 118.008 104.849 118.35C112.213 95.7889 119.633 73.2425 126.98 50.6773C121.018 52.1045 114.965 53.302 108.852 53.8269C116.152 51.4412 123.505 49.2127 130.809 46.8391V46.8377ZM179.39 63.5105C165.716 67.7731 152.067 72.1134 138.403 76.4189C131.91 78.4233 126.348 83.0121 122.91 88.8413C120.621 92.4661 119.454 96.6266 118.144 100.67C114.112 113.06 110.074 125.451 106.053 137.841C105.197 140.718 104.474 143.826 105.266 146.805C105.779 148.843 107.51 150.489 109.58 150.879C112.333 151.376 115.114 150.751 117.75 149.981C129.997 146.628 142.246 143.301 154.494 139.958C156.039 135.027 157.724 130.135 159.269 125.198C149.093 127.969 138.91 130.746 128.738 133.521C133.594 118.777 138.306 103.978 143.199 89.2454C143.472 88.0694 144.73 87.7713 145.713 87.4397C155.322 84.4405 164.923 81.3863 174.527 78.371C176.174 73.4238 177.753 68.4618 179.39 63.5105ZM74.5614 64.6383C74.8232 77.2486 75.2314 89.8576 75.5992 102.463C75.9093 104.58 74.1063 106.093 73.2659 107.857C72.9182 94.5417 72.5973 81.2238 72.1489 67.9127C65.1221 69.2498 58.1746 71.12 51.0726 71.9967C58.9062 69.5573 66.7104 67.0226 74.5601 64.6383H74.5614ZM175.831 67.0441C174.788 70.2044 173.755 73.3714 172.723 76.5371C171.766 76.8257 170.807 77.1144 169.855 77.4084C170.588 75.216 171.294 73.017 171.988 70.8139C162.427 73.4613 152.743 75.6215 143.087 77.8568C141.925 78.1306 140.744 78.2985 139.562 78.4206C151.675 74.6992 163.719 70.7615 175.829 67.0441H175.831ZM100.261 73.7151C99.1068 77.1748 98.2879 80.7741 96.748 84.078C86.9086 100.094 77.0545 116.097 67.2098 132.108C66.3908 133.612 64.4482 133.719 63.0533 134.393C75.3898 114.132 87.7961 93.9013 100.261 73.7151ZM140.888 88.6775C135.979 103.972 131.032 119.262 125.952 134.502C125.027 134.721 124.102 134.946 123.182 135.171C127.909 120.914 132.487 106.612 137.161 92.3399C137.675 90.5423 139.14 89.2494 140.888 88.6775ZM50.9303 88.7688C50.4658 92.2607 51.3707 95.9231 50.0818 99.2862C44.9426 114.849 39.8612 130.437 34.7757 146.019C33.7701 146.453 32.7659 146.897 31.7658 147.34C37.4782 129.72 43.2256 112.11 48.9568 94.496C49.5623 92.5708 50.161 90.6349 50.9303 88.7688ZM155.776 128.533C154.718 131.736 153.766 134.969 152.584 138.129C151.664 138.364 150.746 138.601 149.831 138.841C150.542 136.649 151.302 134.467 151.981 132.269C143.9 133.515 135.868 135.119 127.755 136.163C137.098 133.623 146.435 131.057 155.776 128.533Z" fill="#003768"/>
</g>
<defs>
<clipPath id="clip0_154_2461">
<rect width="200" height="200" fill="white"/>
</clipPath>
</defs>
</svg>
