<svg width="200" height="200" viewBox="0 0 200 200" fill="none" xmlns="http://www.w3.org/2000/svg">
<g clip-path="url(#clip0_154_2433)">
<path d="M199.996 60.3386H188.171L188.175 60.3276H74.445L72.7048 65.3815L67.5526 60.3276H40.1423L19.1474 72.8166L9.5991 100.546L13.4122 103.775H7.88176L0 126.664L13.9637 139.676H42.1673L48.3385 136.146L47.1228 139.676H109.829L111.588 134.569L118.239 139.676H142.762L165.053 127.488L185.157 69.1022H197.048L200 60.339" fill="#B2B1B1"/>
<path d="M40.6486 62.1797L20.6768 74.0619L11.7615 99.9506L18.4651 105.627H9.20064L2.14258 126.129L14.6902 137.822H41.6732L51.6926 132.092L49.7189 137.822H108.505L110.673 131.531L118.868 137.822H142.286L163.533 126.206L185.578 62.1798H134.552H75.7653L73.5003 68.759L66.7935 62.1798H40.65L40.6486 62.1797ZM187.519 62.4112L187.261 63.1578H188.706L187.409 66.9255H188.305L189.602 63.1578H191.046L191.303 62.4112H187.519ZM191.901 62.4112L190.014 66.9255H190.878L191.957 64.2699C192.116 63.8551 192.283 63.4233 192.426 63.0082H192.475C192.437 63.4066 192.388 63.9373 192.35 64.2856L192.278 66.8578H193.207L194.883 64.3533C195.158 63.9382 195.474 63.4065 195.727 63.0082H195.776C195.628 63.4893 195.48 63.9211 195.376 64.2699L194.628 66.9255H195.524L196.729 62.4112H195.436L193.889 64.6353C193.676 64.9672 193.445 65.3483 193.187 65.763H193.169C193.213 65.2985 193.245 64.9662 193.265 64.6179L193.245 62.4112H191.901Z" fill="#3C3C3C"/>
<path d="M56.4073 91.5288H68.498L65.7156 99.6073L56.4073 91.5288ZM130.731 65.0147H77.628L74.409 74.362L64.8839 65.0147H40.6158L23.0251 75.4773L15.1296 98.4108L27.0036 108.463H11.0621L5.48828 124.651L16.5689 134.977H41.7403L56.4298 126.574L53.5365 134.977H106.639L109.566 126.476L120.637 134.977H142.391L161.21 124.689L181.757 65.0149H130.728" fill="white"/>
<path d="M40.582 67.8203L25.3417 76.8864L18.4475 96.9058L29.0523 105.881L41.0136 106.687L36.438 119.974H32.0781L35.0772 111.266H12.8982L8.78711 123.206L18.4202 132.182H41.8105L57.504 123.206L64.4895 102.918L54.0387 93.8517L41.3831 92.9539L45.8327 80.0273H50.1942L47.1968 88.7362H68.1645L72.244 76.887L63.0029 67.8209H40.5827L40.582 67.8203ZM79.4618 67.8203L57.3005 132.182H78.8699L87.9884 105.703H92.3515L83.233 132.182H104.807L126.968 67.8203H105.396L96.5547 93.4929H92.1917L101.031 67.8203H79.4618ZM129.763 67.8203L110.692 123.206L122.387 132.182H142.505L158.925 123.206L177.996 67.8203H156.424L138.466 119.974H133.982L151.941 67.8203H129.763Z" fill="#CD1041"/>
<path d="M40.5551 70.2781L27.3761 78.1173L21.3656 95.5738L22.8824 96.8591L28.6631 80.076L41.8405 72.2383H63.3485L61.3497 70.2773L40.5551 70.2781ZM81.0745 70.2781L60.6043 129.722H62.5653L82.3596 72.2394H97.0508L97.7249 70.2784L81.0745 70.2781ZM107.008 70.2781L98.1672 95.9506H90.8462L90.172 97.9116H99.4527L108.294 72.239H122.987L123.662 70.2781H107.008ZM131.377 70.2781L113.63 121.822L115.18 123.011L132.662 72.239H147.958L148.634 70.2781H131.377ZM158.037 70.2781L140.078 122.433H132.635L131.961 124.394H141.364L159.322 72.239H174.015L174.691 70.2781H158.037ZM52.8277 79.5289L50.506 86.2735H52.467L54.7903 79.5289H52.8277ZM40.0487 95.3837L39.4202 97.2093L54.8009 98.3528L52.3894 96.261L40.0487 95.3837ZM94.985 105.203L86.5422 129.722H88.5016L96.946 105.203H94.985ZM43.6398 106.216L38.0561 122.433H30.7351L30.0594 124.394H39.34L45.5553 106.345L43.6398 106.216ZM14.5132 113.726L11.6875 121.929L13.1712 123.312L15.7985 115.685H31.0977L31.7734 113.726L14.5132 113.726Z" fill="white"/>
</g>
<defs>
<clipPath id="clip0_154_2433">
<rect width="200" height="200" fill="white"/>
</clipPath>
</defs>
</svg>
