<svg width="200" height="200" viewBox="0 0 200 200" fill="none" xmlns="http://www.w3.org/2000/svg">
<path d="M177.64 135.961L174.845 133.794C174.036 133.167 173.176 132.626 172.288 132.16L174.234 124.64H170.346L170.354 120.407L180.091 118.563L177.695 101.867H131.651L129.388 93.9982C130.32 93.335 131.169 92.5654 131.741 92.0248C132.527 91.2792 133.375 90.3592 133.375 90.3592L138.249 82.4598C138.983 82.1321 144.789 80.0539 148.582 77.7768C151.858 75.805 156.44 71.9154 156.44 71.9154C156.44 71.9154 157.826 65.7919 158.441 61.1544C159.069 56.4158 159.03 49.5328 158.742 44.9268C157.2 20.2447 142.433 7.10547 142.433 7.10547C142.433 7.10547 118.846 7.99303 83.1756 25.2161C56.3797 38.1564 39.2446 56.0835 39.2446 56.0835C39.2446 56.0835 41.8965 60.5668 44.0973 63.0652C46.1955 65.4473 49.3702 68.4963 53.6376 71.0541C55.6287 72.2463 58.0577 73.4376 60.4991 74.5272C60.213 74.6576 59.9323 74.7956 59.6563 74.9375C56.7715 76.4196 52.0707 78.8602 47.8927 81.6787C44.1867 84.181 40.244 87.4806 39.4466 88.0397C39.0896 88.1769 36.0637 88.773 35.8131 88.7807C31.0174 88.9581 27.5659 88.7807 27.5659 88.7807C27.5659 88.7807 29.3063 95.1417 30.1237 97.1467H23.3478L19.9102 112.831H23.5236V124.017H19.9102L22.3654 135.222L20.2695 147.19L23.6524 147.055C23.6956 149.616 23.7133 152.945 23.7172 156.267C23.7226 161.286 23.6995 166.31 23.6856 168.7L20.5618 169.871L23.8221 186.377L30.3897 183.616C33.364 182.364 36.3598 181.185 39.3888 180.079L42.4694 178.955L43.6122 173.649C44.2854 174.488 44.7967 175.336 45.4182 176.574C45.5763 176.894 45.7205 177.209 45.8523 177.53L46.0991 178.54L46.2171 178.508C47.1941 181.445 47.2057 184.447 47.0638 187.014L46.9473 189.109L48.9762 189.656C49.8684 189.896 50.5747 190.094 51.2178 190.245C51.9797 190.422 52.6645 190.539 53.4101 190.588C54.9532 190.693 56.6327 190.504 59.1866 190.069C61.0636 189.75 63.0723 188.887 64.549 188.186C65.2986 187.831 65.9718 187.488 66.5069 187.217L67.1624 186.882C73.5843 184.965 76.85 185.78 79.0231 186.505L83.1278 187.954L81.2786 181.958C84.3377 182.112 87.2124 182.416 90.9369 183.004C99.6992 184.393 109.216 188.208 112.831 189.177C120.327 191.188 126.287 191.885 132.203 192.138C146.68 192.763 157.479 185.436 157.609 185.344L160.009 183.715L158.051 181.441H163.431V177.863C163.925 177.889 164.417 177.9 164.916 177.889C175.588 177.889 178.11 168.238 178.11 162.661C178.11 157.53 176.84 153.721 174.869 150.864L177.628 135.96L177.64 135.961Z" fill="#B2B1AE"/>
<path d="M169.735 149.234L172.447 149.496L174.748 137.064L173.221 135.879C172.013 134.942 170.624 134.206 169.172 133.649L170.821 127.279H167.695L167.723 117.533L167.841 118.196L177.116 116.44L175.402 104.508H127.641L124.026 91.9181C124.756 91.6243 125.541 91.2711 126.141 90.9156C127.788 89.9294 129.884 87.8064 129.884 87.8064L134.963 79.1961C134.963 79.1961 143.634 75.6026 146.275 74.2254C149.346 72.6269 152.413 69.4298 152.413 69.4298C152.413 69.4298 155.827 54.8678 154.714 46.1703C152.223 26.6385 143.401 15.9839 143.401 15.9839C143.401 15.9839 142.841 18.3003 141.29 20.0685C138.8 22.9109 132.512 22.7289 132.279 18.6481C132.085 15.2752 132.468 15.2752 133.62 12.4336C114.924 16.0748 100.063 21.135 82.6113 30.3661C66.6105 38.8323 44.8347 56.6453 44.8347 56.6453C44.8347 56.6453 49.9796 63.6887 57.4912 68.1859C64.0095 72.0932 75.1337 75.6458 75.1337 75.6458C75.1337 75.6458 67.0778 75.999 61.8997 78.6632C56.7231 81.3259 42.3401 91.4446 42.3401 91.4446C42.3401 91.4446 40.6151 92.5142 38.5061 92.5142C36.3939 92.5142 32.9424 92.1571 32.9424 92.1571C32.9424 92.1571 34.0829 96.8163 37.9925 99.7882H25.481L23.1992 110.191H26.1711V126.659H23.1992L25.0638 135.166L23.4437 144.422L26.2367 144.309C26.2598 145.007 26.2822 145.868 26.2999 146.847C26.3439 149.444 26.3616 152.856 26.3647 156.265C26.3724 163.096 26.3254 169.925 26.323 170.15C26.323 170.339 26.3392 170.446 26.3369 170.527L26.1118 170.615L23.5917 171.559L25.7941 182.687L29.3759 181.182C32.3879 179.914 35.4246 178.721 38.4914 177.599L40.2064 176.974L41.6985 168.574L46.2158 167.37L46.37 168.037C45.4446 168.724 44.6195 169.432 43.907 170.144C45.7168 171.928 46.6006 173.145 47.7395 175.416C49.82 179.563 49.8377 183.921 49.6581 187.156C53.0903 188.08 53.6903 188.38 58.762 187.515C61.764 187.006 65.7083 184.616 66.4308 184.401C73.2584 182.364 75.8956 182.723 79.3687 184.281L77.5713 179.251C82.3823 179.331 86.0236 179.607 91.3497 180.447C100.218 181.852 109.857 185.697 113.515 186.679C120.793 188.631 126.576 189.306 132.323 189.555C145.948 190.143 156.167 183.207 156.167 183.207L150.294 176.375L151.572 170.588C155.049 173.255 159.983 175.368 164.924 175.25C173.201 175.25 175.479 167.944 175.479 162.663C175.478 155.669 172.909 151.71 169.735 149.234Z" fill="#14234B"/>
<path d="M117.154 50.594C112.289 50.6125 109.265 51.5865 109.265 51.5865C109.265 51.5865 108.972 53.8944 105.522 57.3576C101.878 61.0104 98.332 60.9094 98.332 60.9094L96.7026 58.067C96.7026 58.067 93.1562 57.2689 90.9477 59.6648C89.3669 61.3859 88.8256 68.0993 91.6178 71.2964C93.2503 73.1595 95.7434 71.9172 95.7434 71.9172C95.7434 71.9172 92.6542 79.0501 91.0457 83.7246C90.3925 85.6208 89.6468 88.0938 89.0785 90.0394L94.6769 92.2672C94.9437 90.59 95.4341 87.5016 95.6454 86.1221C96.3163 81.7722 97.7552 78.1294 97.7552 78.1294C97.7552 78.1294 101.112 83.6344 104.658 85.8545C108.671 88.363 112.137 87.898 116.262 86.5639C120.999 85.0363 125.274 86.1228 125.274 86.1228C125.274 86.1228 122.685 84.0794 120.384 83.3715C118.087 82.6589 119.041 83.3715 117.7 82.3035C116.358 81.2401 116.548 80.4404 116.548 80.4404C116.548 80.4404 119.331 80.7944 121.632 81.1499C123.933 81.5046 125.179 79.6423 125.179 79.6423C125.179 79.6423 122.784 79.3747 121.248 79.02C119.713 78.6645 118.391 78.3576 116.84 78.4856C115.782 78.5766 114.345 78.7532 114.345 78.7532C114.345 78.7532 115.805 77.5263 116.933 77.0667C118.023 76.6226 119.906 76.4444 119.906 76.4444L124.989 77.332L119.329 74.4025C119.329 74.4025 115.359 74.2498 115.781 71.3843C116.069 69.4303 119.427 69.2529 119.427 69.2529C119.427 69.2529 118.153 70.5515 118.37 71.4745C118.496 71.9881 119.139 72.6282 119.139 72.6282C119.139 72.6282 123.647 71.4745 124.507 71.4745C125.561 71.4745 127.291 72.184 127.291 72.184L126.521 63.2181C126.521 63.2181 126.232 62.6837 125.084 62.5087C123.931 62.3313 122.973 62.8611 122.973 62.8611L122.208 64.1944C119.46 65.2523 116.716 65.1991 114.633 64.9956C111.558 64.6917 110.608 63.751 110.608 63.751L113.479 62.1532C113.479 62.1532 111.563 61.6211 109.838 61.7992C108.113 61.9766 107.154 62.1532 107.154 62.1532L112.525 57.5357C112.525 57.5357 115.686 56.8255 125.084 58.0685C130.641 58.805 135.342 60.9996 135.342 60.9996L134.002 55.6726C134.002 55.6711 129.588 51.9404 122.59 50.9642C120.602 50.6866 118.776 50.5879 117.154 50.594H117.154ZM130.739 66.2363L131.698 73.8704C131.698 73.8704 134.461 71.591 134.381 69.4303C134.287 66.857 130.739 66.2363 130.739 66.2363ZM104.716 67.0105C104.716 67.0105 105.116 69.2923 106.679 72.3359C108.243 75.3787 109.742 77.3312 109.742 77.3312C109.742 77.3312 107.164 76.9295 105.904 76.1792C104.645 75.425 103.615 74.7395 103.615 74.7395C103.615 74.7395 103.489 72.3544 103.702 70.8507C103.915 69.3169 104.716 67.0105 104.716 67.0105ZM82.8016 83.811C82.8023 83.8102 78.3915 89.8497 71.6819 95.8837C64.9678 101.919 54.6131 104.053 54.6131 104.053C54.6131 104.053 53.5104 104.136 51.7129 104.018C52.6899 105.123 53.4418 106.453 53.9037 108.008C56.9373 105.237 61.136 104.082 65.7659 104.082C68.1301 104.082 70.3764 104.379 72.4083 105.034L82.8016 87.5386L84.8412 88.3522L86.0627 84.6978L82.8016 83.811Z" fill="#B2B1AE"/>
<path d="M127.633 17.5555C115.188 20.1981 107.207 23.1585 85.7358 33.7714C73.0346 40.0469 63.6207 46.5274 57.4078 51.4063C55.3419 53.0288 52.1371 55.4431 50.7768 56.643L53.0794 58.7752C53.0794 58.7752 73.9808 45.1024 87.7893 38.712C101.597 32.3179 125.76 26.6362 125.76 26.6362C125.76 26.6362 127.866 29.6575 134.77 29.2997C140.146 29.0236 142.631 25.7502 143.207 22.9086C142.631 24.1517 131.127 29.2989 128.059 20.5999C127.862 20.0354 127.629 18.0814 127.633 17.5547V17.5555ZM87.2117 71.5612C87.2117 71.5612 81.6504 71.3831 81.2656 74.9349C80.8847 78.4836 84.1457 80.7916 84.1457 80.7916C84.1457 80.7916 83.7602 78.3047 84.5267 75.6451C85.2947 72.9808 87.2117 71.5612 87.2117 71.5612ZM78.9676 78.8399C78.9676 78.8399 68.239 80.2765 64.1358 82.3886C59.3263 84.8616 45.1769 94.7998 45.0111 94.9163C45.0111 94.9163 44.1652 95.463 42.9754 95.9172C42.4364 96.1246 41.7493 96.3482 40.9512 96.514C41.3182 96.7901 43.2275 98.027 43.6833 98.1928C48.0941 99.7906 51.0668 98.5483 53.7518 96.9505C56.7831 95.1468 59.9841 90.736 64.9694 87.5389C69.9563 84.3441 78.9676 78.8399 78.9676 78.8399ZM84.822 92.9807L78.0747 104.508H102.36L104.526 100.526L84.822 92.9807ZM77.7207 162.769C69.9123 162.699 64.1366 163.851 60.1838 165.01C54.4944 166.676 51.4562 168.034 48.6216 170.501L48.2584 170.814L48.5722 171.179C48.9215 171.585 49.1891 171.878 49.4181 172.137C49.6294 172.378 49.8037 172.589 49.9772 172.845C50.3188 173.358 50.6743 174.081 51.3691 175.726C52.6553 178.765 52.6969 179.772 52.6476 182.478L52.6306 183.347L53.3763 182.899C57.0152 180.725 58.9539 179.727 63.219 178.393C70.7837 176.029 81.2378 176.377 90.8229 177.333C94.0532 177.656 97.2078 178.363 100.386 179.243C103.594 180.133 106.828 181.197 110.203 182.238C116.972 184.327 124.336 186.324 133.15 186.561C138.833 186.716 143.014 185.853 145.911 184.874C147.359 184.382 148.484 183.869 149.304 183.44C150.114 183.02 150.631 182.686 150.88 182.552L151.42 182.264L147.403 177.727L148.775 170.575L147.959 170.893C144.309 172.318 140.172 173.453 138.388 173.619C130.854 174.316 123.433 172.896 116.767 171.022C110.069 169.135 104.168 166.806 99.7309 165.723C91.0974 163.617 83.7941 162.823 77.7207 162.769Z" fill="#A6192E"/>
<path d="M28.0305 102.949L27.1406 107.018C28.9227 107.018 29.343 107.673 29.343 109.379V127.463C29.343 129.168 28.9227 129.824 27.1406 129.824L28.0305 133.891H37.9965L38.8903 129.824C37.1066 129.824 36.6864 129.167 36.6864 127.463V121.535H38.9442C44.3969 121.535 41.6185 129.521 45.5512 133.891H53.5262L54.4161 129.822H53.736C51.8475 129.822 51.2175 128.966 50.9553 127.36C50.4325 124.246 49.6953 120.78 46.2337 119.674C49.5395 118.217 51.2699 115.605 51.2699 111.84C51.2699 106.061 47.1775 102.949 40.6731 102.949H28.0305ZM65.7678 107.247C57.8445 107.247 52.3348 110.906 52.3348 120.782C52.3348 130.657 57.8445 134.319 65.7678 134.319C73.7467 134.319 79.2055 130.657 79.2055 120.782C79.2055 110.906 73.7467 107.247 65.7678 107.247ZM103.491 107.672L102.604 111.119C104.388 111.119 104.806 111.632 104.806 113.12V128.442C104.806 129.888 104.388 130.443 102.604 130.443L103.491 133.892H123.649L124.593 127.592L121.391 126.996C120.918 129.039 120.448 129.635 117.665 129.635H112.152V122.486H115.668C117.452 122.486 118.135 122.783 118.135 124.144L121.178 123.463V117.503L118.135 116.779C118.135 118.143 117.452 118.441 115.668 118.441H112.152V111.843H115.878C119.031 111.843 119.551 112.266 119.867 114.352L122.911 113.801V107.672H103.491ZM36.6864 107.674H39.6251C42.5639 107.674 44.0321 109.431 44.0321 112.143C44.0321 114.854 42.4583 116.562 39.521 116.562H36.6864V107.675V107.674ZM79.945 107.674L79.0713 111.12C80.8194 111.12 81.2297 111.634 81.2297 113.122V128.443C81.2297 129.888 80.8194 130.443 79.0713 130.443L79.945 133.892H92.3901C98.8213 133.892 102.832 131.209 102.832 126.315C102.832 123.379 101.341 121.122 97.9446 119.803C100.105 118.78 101.544 116.866 101.544 114.611C101.544 110.141 97.7934 107.674 91.518 107.674H79.945ZM149.099 107.674L148.205 113.887L151.353 114.483C151.668 112.695 152.194 111.843 155.079 111.843H157.178V128.442C157.178 129.888 156.811 130.443 154.976 130.443L155.92 133.892H165.837L166.729 130.443C164.945 130.443 164.529 129.888 164.529 128.442V111.843H166.68C169.564 111.843 170.089 112.695 170.406 114.483L173.555 113.887L172.663 107.674H149.099H149.099ZM125.434 107.749L124.57 111.164C126.299 111.164 126.704 111.712 126.704 113.144V128.312C126.704 129.745 126.3 130.294 124.57 130.294L125.434 133.704H135.104L135.968 130.294C134.239 130.294 133.832 129.745 133.832 128.312V123.339H136.022C141.31 123.339 138.617 130.039 142.437 133.704H150.171L151.037 130.294H150.373C148.542 130.294 147.93 129.575 147.678 128.229C147.168 125.616 146.459 122.708 143.096 121.78C146.306 120.56 147.982 118.366 147.982 115.206C147.982 110.362 144.012 107.749 137.701 107.749H125.434ZM133.833 111.711H136.682C139.532 111.711 140.956 113.185 140.956 115.461C140.956 117.735 139.429 119.168 136.579 119.168H133.833V111.711ZM88.4312 111.843H90.7461C93.4713 111.843 94.6048 113.078 94.6048 114.95C94.6048 116.823 93.3687 118.1 90.7461 118.1H88.4312V111.843ZM65.7686 112.013C69.6528 112.013 71.4379 114.269 71.4379 120.781C71.4379 127.294 69.6528 129.548 65.7686 129.548C61.9384 129.548 60.1001 127.294 60.1001 120.781C60.1001 114.269 61.9384 112.013 65.7686 112.013ZM88.4327 122.311H91.1062C94.1414 122.311 95.6844 123.844 95.6844 126.061C95.6844 128.399 94.2416 129.888 91.3622 129.888H88.4327V122.311ZM72.7812 135.397C63.2455 135.397 59.5695 140.875 59.5695 150.021C59.5703 154.908 60.717 158.989 63.8955 161.13C68.9541 160.262 74.6967 159.855 80.6205 159.932C83.9294 157.631 85.9273 153.866 85.9273 148.441C85.9273 139.545 81.4849 135.397 72.7804 135.397L72.7812 135.397ZM161.599 135.401C155.912 135.401 151.042 139.292 151.042 145.304C151.042 157.531 165.365 155.133 165.365 162.683C165.365 164.585 164.426 166.049 162.417 166.049C158.817 166.049 155.442 161.249 154.743 157.863L152.237 157.334L150.654 165.222C153.03 168.555 159.101 172.252 164.931 172.079C170.377 172.079 172.316 167.518 172.316 162.658C172.315 146.918 157.795 150.88 157.795 144.241C157.795 142.171 159.278 140.788 161.296 140.788C164.342 140.788 166.438 142.97 167.252 145.802L169.87 146.057L171.286 138.379C168.725 136.388 164.793 135.401 161.599 135.401ZM122.12 135.686C119.993 135.701 117.948 135.815 116.277 135.815L112.653 135.811L111.705 139.144C113.229 139.158 113.856 139.497 113.856 141.115C113.856 143.094 114.35 156.146 113.11 157.508C112.68 157.893 111.986 157.879 111.438 157.851C106.757 156.852 110.439 151.068 104.392 149.356C107.277 148.387 109.523 146.354 109.523 143.076C109.523 137.243 103.893 135.801 99.1398 135.801H91.07H86.5851L85.6513 139.129C87.1511 139.115 87.805 139.433 87.805 141.036C87.805 143.057 87.8151 156.541 87.1164 157.25C86.6861 157.688 85.9497 157.737 85.3798 157.763L85.9736 160.13C88.415 160.278 90.861 160.509 93.2785 160.825C94.1822 160.806 95.0821 160.793 95.9859 160.783L96.9336 157.492C95.4415 157.505 94.7945 157.2 94.7945 155.602C94.7945 154.008 94.8577 152.408 94.8878 150.814L96.0029 150.807C103.789 150.807 99.5084 159.015 103.487 160.851C103.688 160.944 111.403 161.215 112.503 161.262C115.704 161.51 118.901 161.825 122.092 162.209L123.042 158.838C121.49 158.671 120.883 158.236 120.883 156.6C120.883 154.926 120.943 153.251 120.971 151.576L123.217 151.743C128.951 152.276 126.046 161.032 129.629 163.294C129.831 163.418 137.806 164.981 138.916 165.202L138.901 165.019C142.125 165.712 145.626 166.567 148.803 167.364L149.734 163.446C148.021 163.063 147.552 162.337 147.552 160.59C147.552 158.193 147.112 141.312 147.853 140.518C148.291 140.05 149.025 140.038 149.617 140.061L148.772 135.906L138.921 135.868L137.934 139.665C139.671 139.711 140.094 140.238 140.094 141.97C140.094 144.138 140.114 160.183 139.447 160.765C139.091 161.073 138.584 161.077 138.115 161.024C132.604 159.681 136.794 153.156 130.506 150.742C133.722 149.771 135.624 147.506 135.624 144.032C135.624 136.494 128.502 135.641 122.12 135.686ZM59.4569 135.858L50.3314 135.95L43.5995 152.053L36.9995 135.962L28.1392 136.014L27.2509 141.098L27.5686 141.084C28.1014 141.084 28.6729 141.172 29.0222 141.622C29.774 142.583 29.4995 170.161 29.4995 170.161C29.4995 171.966 28.9204 172.948 27.2316 173.578L28.1577 178.257C31.2168 176.97 34.2967 175.757 37.4128 174.618L38.2757 169.784C37.9325 169.893 37.5678 169.988 37.2061 169.988C36.0433 169.988 36.0394 168.647 36.0255 167.81C35.9368 162.521 35.9446 150.205 35.9446 150.205C35.9446 150.205 39.9243 160.959 42.348 165.256L45.1842 164.793C45.3754 164.638 51.7835 146.778 51.7835 146.778V158.022H51.7819C51.7819 158.022 51.3123 160.551 51.1704 160.749C50.7694 161.306 50.0639 161.538 49.4285 161.687L50.3592 165.509L50.4448 165.488C53.0319 164.119 56.0193 162.94 59.248 162.115C59.5202 162.046 59.7939 161.981 60.0746 161.914C59.962 160.856 59.8541 159.964 59.7438 159.964C59.5171 159.964 59.0004 160.087 58.8184 159.929C58.1337 159.335 58.2162 143.987 58.2162 141.836C58.2162 140.141 58.6989 139.622 60.3746 139.578L59.4569 135.859V135.858ZM95.1076 139.617H98.2206C100.519 139.617 102.328 140.723 102.328 143.233C102.327 145.845 99.995 146.789 97.7734 146.789L94.9649 146.799L95.1076 139.617ZM121.177 139.825C124.342 139.888 128.417 139.454 128.417 143.924C128.417 146.485 126.57 147.536 124.274 147.536C123.2 147.536 122.118 147.42 121.047 147.364L121.177 139.824V139.825ZM72.7727 140.18C77.9555 140.18 78.3063 144.511 78.3063 148.703C78.3063 153.313 77.4666 157.832 71.9368 157.832C67.445 157.832 67.1944 152.772 67.1944 149.359C67.1944 145.336 67.6201 140.18 72.7727 140.18ZM77.7072 166.1V166.286C77.9909 166.377 78.0457 166.448 78.0457 166.704V172.637C78.0457 172.895 77.9909 172.958 77.7072 173.007V173.196L84.4121 173.664C84.6689 173.681 84.7383 173.742 84.8038 174.03L84.9951 174.042V171.677L84.8038 171.665C84.7398 171.942 84.6704 172.004 84.4136 171.986L80.046 171.682V166.842C80.046 166.586 80.1146 166.523 80.3984 166.475V166.286L77.7072 166.1ZM71.3138 166.564C71.0277 166.556 70.7254 166.572 70.4115 166.616C67.8992 166.967 66.2351 168.823 66.2351 170.865C66.2351 172.906 67.9247 174.306 70.4115 173.954C72.9 173.607 74.5895 171.732 74.5895 169.692C74.5903 167.906 73.3164 166.619 71.3138 166.564ZM90.4253 167.222C88.4219 167.241 87.148 168.506 87.148 170.292C87.148 172.332 88.8368 174.237 91.326 174.629C93.8106 175.025 95.5016 173.657 95.5016 171.614C95.5009 169.573 93.8399 167.686 91.326 167.291C91.0121 167.241 90.7122 167.219 90.4253 167.222ZM70.8711 168.239C71.889 168.273 72.5198 168.956 72.5198 169.995C72.5198 171.184 71.7109 172.125 70.4277 172.303C69.1153 172.489 68.3025 171.791 68.3025 170.587C68.3025 169.387 69.14 168.444 70.4115 168.264C70.5719 168.242 70.7254 168.233 70.8711 168.239ZM63.6025 168.294C63.4822 168.484 63.3874 168.584 63.2648 168.627C62.8992 168.752 61.8729 168.496 60.1278 169.097C57.3726 170.046 55.7347 172.203 55.7347 174.274C55.7347 176.367 57.3433 177.396 60.3036 176.377C62.3857 175.659 63.3611 174.527 63.5902 174.448C63.6434 174.429 63.7236 174.457 63.8462 174.536L64.0228 174.392L62.6702 172.653L62.506 172.807C62.536 172.88 62.5499 172.94 62.5499 172.994C62.5499 173.118 62.4813 173.193 62.3309 173.324C61.5752 174.005 61.0084 174.283 60.2782 174.536C58.7367 175.066 57.8306 174.647 57.8306 173.523C57.8306 172.375 58.8323 171.274 60.346 170.753C61.4673 170.366 62.506 170.439 62.506 170.82C62.506 170.859 62.4944 170.902 62.4666 170.954L62.6432 170.96L63.7652 168.304L63.6025 168.294ZM98.2746 168.688V168.879C98.5591 169.015 98.6116 169.095 98.6116 169.352V175.288C98.6116 175.544 98.5591 175.598 98.2746 175.595V175.784L100.667 176.38V176.189C100.381 176.053 100.33 175.97 100.33 175.713V171.66L103.883 176.437C104.006 176.603 104.1 176.72 104.1 176.815C104.1 176.909 104.017 176.973 103.827 176.98V177.168L106.397 177.809V177.619C106.112 177.482 106.046 177.395 106.046 177.138V171.204C106.046 170.947 106.112 170.899 106.397 170.903V170.712L103.966 170.105V170.296C104.25 170.434 104.318 170.519 104.318 170.775V174.195L101.33 170.18C101.206 170.014 101.113 169.909 101.113 169.814C101.113 169.719 101.193 169.662 101.381 169.653V169.462L98.2746 168.688ZM90.8718 168.903C91.0168 168.9 91.1679 168.912 91.3268 168.937C92.6091 169.143 93.435 170.11 93.435 171.3C93.435 172.491 92.623 173.184 91.3383 172.983C90.0259 172.774 89.2177 171.835 89.2177 170.633C89.2177 169.579 89.8593 168.917 90.8718 168.903ZM109.736 171.722V171.91C110.02 172.06 110.071 172.143 110.071 172.4V178.335C110.071 178.592 110.02 178.644 109.736 178.631V178.822L112.424 179.591V179.402C112.144 179.252 112.073 179.165 112.073 178.908V172.974C112.073 172.717 112.144 172.669 112.424 172.684V172.495L109.736 171.722ZM117.453 173.864V174.052C117.603 174.101 117.659 174.169 117.659 174.317C117.659 174.372 117.615 174.511 117.537 174.709L115.67 179.351C115.524 179.733 115.428 180.061 115.034 180.168V180.358L117.455 180.959V180.772C117.265 180.669 117.175 180.551 117.175 180.375C117.175 180.308 117.186 180.243 117.226 180.158L117.509 179.459L120.808 180.282L121.094 181.124C121.148 181.285 121.172 181.387 121.172 181.454C121.172 181.575 121.093 181.636 120.916 181.634V181.821L123.512 182.47V182.28C123.266 182.126 123.227 181.993 123.16 181.799L120.903 175.544C120.82 175.308 120.78 175.134 120.78 175.097C120.78 174.949 120.832 174.908 120.982 174.93V174.742L117.453 173.864ZM119.09 175.552L120.32 178.983L117.943 178.39L119.09 175.552ZM126.266 175.854V176.042C126.547 176.137 126.603 176.208 126.603 176.465V182.399C126.603 182.656 126.548 182.717 126.266 182.762V182.949L132.968 183.537C133.224 183.561 133.292 183.62 133.363 183.91L133.549 183.926V181.56L133.363 181.545C133.292 181.824 133.224 181.885 132.968 181.862L128.603 181.481V176.638C128.603 176.382 128.669 176.323 128.954 176.278V176.09L126.266 175.854ZM140.108 175.946C139.92 175.95 139.724 175.962 139.52 175.984C137.356 176.213 136.045 177.296 136.045 178.565C136.045 179.851 137.139 180.385 139.33 180.235C140.656 180.15 141.519 180.045 141.519 180.829C141.519 181.329 140.897 181.747 139.765 181.866C138.075 182.043 136.76 181.587 136.76 181.1C136.76 181.06 136.776 181.018 136.804 180.976L136.627 180.913L135.639 183.179L135.818 183.242C135.925 183.096 135.99 183.007 136.085 182.997C136.235 182.984 137.385 183.496 139.765 183.246C142.05 183.007 143.428 181.794 143.428 180.413C143.427 178.98 142.373 178.509 140.182 178.619C138.666 178.698 137.885 178.806 137.885 178.253C137.885 177.831 138.521 177.413 139.642 177.297C140.968 177.157 142.194 177.446 142.194 177.827C142.194 177.866 142.172 177.922 142.155 178.005L142.333 178.067L143.197 176.084L143.02 176.021C142.929 176.193 142.846 176.217 142.696 176.232C142.33 176.271 141.426 175.918 140.108 175.946Z" fill="white"/>
</svg>
