<svg width="200" height="200" viewBox="0 0 200 200" fill="none" xmlns="http://www.w3.org/2000/svg">
<g clip-path="url(#clip0_154_2432)">
<path d="M78.7813 42.451L78.5402 43.4806C76.3966 42.8296 74.0409 42.5097 71.4185 42.5097H40.4766C28.9372 42.5097 20.5107 49.066 17.9253 60.0947L13.2559 80.8312C11.6727 87.5944 13.2353 93.9739 17.6876 98.8295L21.8513 103.294H8.0777L0.664624 134.737C-2.36213 147.655 5.78415 153.444 8.35286 154.91L8.70687 155.107C9.43448 155.501 10.2024 155.851 11.0144 156.155L11.298 156.259C11.6453 156.382 12.0043 156.497 12.3471 156.597C12.5149 156.647 12.6855 156.694 12.9349 156.759L13.063 156.794C13.3644 156.87 13.6664 156.944 13.9187 156.997C14.4002 157.098 14.9007 157.187 15.4097 157.26C15.5914 157.286 15.7799 157.308 15.941 157.327L16.0036 157.334C16.3699 157.378 16.7463 157.414 17.102 157.44C17.2715 157.453 17.4404 157.465 17.6551 157.477C18.2211 157.508 18.7457 157.523 19.2597 157.523H49.9612C50.559 157.523 51.1692 157.503 51.8185 157.464L51.7995 157.547H92.0448L101.517 117.288H108.056C105.908 126.678 104.661 132.217 104.253 134.148C101.636 146.57 107.536 152.373 111.283 154.725C115.768 157.547 120.74 157.547 122.373 157.547H143.472L156.348 157.523C162.736 157.523 174.07 154.914 178.208 137.442C179.341 132.66 192.653 74.5411 196.706 56.8403L200 42.4543L78.7846 42.4549" fill="black"/>
<path d="M102.975 86.3752L105.997 73.1156H123.964C123.009 77.2491 121.971 81.7462 120.904 86.3752H102.975ZM69.2477 103.655L56.5015 89.9797H73.3869L69.9809 104.508C69.7382 104.202 69.4921 103.916 69.2477 103.655ZM51.1174 84.2036L47.6914 80.527L49.4754 72.888H53.7952L51.1174 84.2036ZM39.6514 114.173L43.3034 118.09L41.1334 127.291H36.7096L39.6514 114.173ZM164.597 47.4917L147.832 118.256L141.888 120.754L158.563 47.4956H83.3474L82.2686 52.0989C82.1444 51.963 82.0203 51.8288 81.8911 51.7024L81.777 51.5917C81.1003 50.9457 80.3274 50.3803 79.4773 49.9088L79.2077 49.764C79.2043 49.7623 79.2004 49.7601 79.1976 49.759L79.1557 49.7371C77.0227 48.6376 74.492 48.103 71.4227 48.103H40.4807C31.5862 48.103 25.3599 52.9026 23.3857 61.3246L18.7057 82.1069C17.2326 88.3975 19.5463 92.5775 21.7822 95.0159L34.7186 108.887H12.509L6.11439 136.012C4.02385 144.905 8.93421 148.798 11.1243 150.048L11.3693 150.184C11.8715 150.456 12.4022 150.698 12.9525 150.904L13.1651 150.983C13.4145 151.071 13.6734 151.153 13.9329 151.229C14.0549 151.266 14.179 151.299 14.3395 151.342L14.4508 151.37C14.6661 151.426 14.882 151.48 15.0789 151.52C15.4368 151.597 15.8087 151.662 16.1974 151.718C16.3277 151.737 16.4631 151.753 16.5973 151.768L16.6571 151.775C16.944 151.808 17.2388 151.838 17.5251 151.859C17.6616 151.87 17.7963 151.878 17.9602 151.888C18.3791 151.911 18.8081 151.925 19.2583 151.925H49.9597C50.5 151.925 51.0554 151.906 51.6577 151.864L51.8892 151.845C52.3322 151.809 52.7773 151.761 53.2197 151.697L53.4306 151.668C53.5016 151.658 53.5709 151.646 53.6397 151.633C55.6766 151.302 57.5484 150.675 59.2106 149.765L59.3879 149.666L58.8526 151.949H87.614L97.0858 111.69H115.073C112.414 123.285 110.273 132.688 109.724 135.295C107.903 143.942 111.183 148.056 114.254 149.986C117.05 151.745 120.227 151.949 122.369 151.949H143.468L143.474 151.925H156.343C162.128 151.925 169.674 149.188 172.762 136.148C174.021 130.83 190.672 58.1082 191.38 55.0155L193.103 47.4906H164.589" fill="#BD1F25"/>
<path d="M88.2228 53.645L66.6173 145.799H82.7451L92.2169 105.54H114.504L117.389 92.5288H95.262L101.087 66.9649H127.057L130.237 53.6454H88.2219L88.2228 53.645ZM134.781 53.645C134.781 53.645 117.442 128.529 115.75 136.564C114.759 141.269 115.703 143.628 117.532 144.776L121.67 142.202H135.486L137.178 133.745L127.45 138.256L146.34 57.3366L150.852 53.6445H134.781L134.781 53.645ZM169.46 53.645L154.658 116.122L160.578 114.431C160.578 114.431 151.656 126.371 142.916 142.202H152.261C158.041 142.202 161.425 139.665 163.187 132.334C164.949 125.004 180.597 57.3388 180.597 57.3388L185.39 53.6468H169.46V53.645ZM40.4794 54.2526C34.3999 54.2526 30.7025 57.0596 29.3858 62.6738L24.6942 83.5071C24.0003 86.4708 24.5291 88.9069 26.2803 90.817L50.0455 116.3L46.0022 133.443H29.0243L33.1512 115.036H17.3781L12.1026 137.412C10.7958 142.99 13.1827 145.774 19.263 145.774H49.9641C56.0865 145.774 59.8009 142.99 61.1091 137.412L66.3032 115.277C67.0257 112.197 66.5063 109.722 64.7462 107.85L40.9527 82.3224L44.5933 66.7363H61.5713L57.5263 83.8279H73.5405L78.6594 62.5557C79.9569 57.0203 77.544 54.2512 71.4211 54.2512H40.4789L40.4794 54.2526Z" fill="white"/>
<path d="M130.235 53.6459L125.372 57.4883L123.99 63.2706H98.0044L96.7687 68.5121L90.9716 93.956L90.2597 96.3031L95.3289 92.5288H95.2605L101.086 66.9649H127.056L130.235 53.6454L130.235 53.6459ZM150.848 53.6459L146.336 57.3379L127.446 138.257L137.174 133.746L135.482 142.203H121.666L117.528 144.778C118.823 145.59 120.56 145.799 122.371 145.799H138.583L142.952 126.979L133.226 131.068L150.848 53.6477L150.848 53.6459ZM185.386 53.6459L180.593 57.3379C180.593 57.3379 164.945 125.005 163.183 132.333C161.422 139.664 158.037 142.201 152.257 142.201H142.912C142.266 143.371 141.621 144.562 140.98 145.772H156.346C162.972 145.772 165.508 140.087 166.777 134.729C168.046 129.373 185.386 53.6445 185.386 53.6445V53.6459ZM76.3783 55.2266L73.2987 57.6332C74.6938 59.0126 75.0584 61.1611 74.3712 64.093L70.561 79.9256H62.4517L57.5247 83.8302H73.539L78.6579 62.5579C79.5129 58.9097 78.746 56.4713 76.3778 55.227L76.3783 55.2266ZM41.5602 62.7856L40.3087 68.2745L36.6681 83.8601L60.4593 109.389C62.2199 111.261 62.7385 113.737 62.0168 116.817L57.331 136.786C54.8926 141.788 51.282 141.722 45.8039 141.898H18.0915L14.1973 144.72C15.4241 145.42 17.1068 145.776 19.2629 145.776H49.9639C50.8708 145.776 51.7173 145.711 52.5173 145.588C57.1265 144.884 59.9949 142.166 61.109 137.415L66.303 115.28C67.0256 112.2 66.5061 109.725 64.746 107.852L40.9526 82.3251L44.5932 66.739H61.5712L66.2609 62.7865H41.5579L41.5602 62.7856ZM117.392 92.5292L112.548 96.4512L111.328 101.958H88.99L87.9032 107.087L79.627 142.266H71.5807L66.6207 145.8H82.7486L92.2203 105.54H114.508L117.392 92.5292ZM33.1533 115.038L28.4067 118.625L24.7392 134.981L24.2766 136.785L26.8416 134.981L29.0263 133.445L33.1533 115.038Z" fill="#8E908F"/>
</g>
<defs>
<clipPath id="clip0_154_2432">
<rect width="200" height="200" fill="white"/>
</clipPath>
</defs>
</svg>
