<svg width="200" height="200" viewBox="0 0 200 200" fill="none" xmlns="http://www.w3.org/2000/svg">
<path d="M193.315 32.6906H141.175H7.125L8.23117 54.607C8.86101 67.0575 16.8113 77.9 28.6704 82.7547C32.2435 89.4612 38.1837 94.7849 45.4153 97.7697C48.975 104.476 54.8982 109.804 62.1157 112.798C62.1468 112.856 62.1815 112.909 62.2113 112.966C61.8056 115.976 56.8468 152.777 56.8468 152.777L60.2018 154.289C73.6599 160.353 87.1154 165.797 103.659 165.797C114.485 165.797 127.56 164.641 142.44 156.069C153.705 149.531 162.837 139.51 168.169 127.843C171.297 120.999 172.871 114.092 172.871 107.527C172.871 103.109 172.114 98.8636 170.681 94.8775L193.317 32.6918" fill="white"/>
<path d="M141.173 37.6234H12.3125L13.1574 54.3512C13.7318 65.7157 21.5097 75.1565 32.1865 78.818C35.318 85.815 41.4092 91.2868 48.9539 93.8726C52.0836 100.87 58.1742 106.341 65.717 108.928C66.1885 109.981 66.7215 110.998 67.3209 111.978L62.228 149.788C76.6624 156.291 88.7463 160.859 103.658 160.859C113.831 160.859 126.095 159.786 139.975 151.791C161.169 139.49 173.504 113.729 165.429 94.8739C171.189 79.0458 176.696 63.9188 182.105 49.0579C168.317 42.8917 159.795 37.6271 141.175 37.6271" fill="#231F20"/>
<path d="M106.339 124.289C94.6318 124.289 87.8912 116.779 87.3697 116.17C93.8301 117.753 104.765 116.776 114.656 116.776C116.613 118.05 117.193 118.736 117.361 119.01C117.249 119.709 115.606 124.289 106.339 124.289ZM141.178 46.4727H21.6243C21.1529 65.2581 31.9429 70.3663 39.0727 71.3939C40.6144 79.1054 47.4726 85.243 55.8371 86.4478C57.38 94.1606 64.2388 100.298 72.6033 101.503C73.2021 104.497 74.5988 107.255 76.5797 109.578L71.8803 144.431C84.7109 150.211 92.3201 152.012 103.661 152.012C112.666 152.012 123.492 151.076 135.538 144.138C155.8 132.378 165.958 108.002 153.52 92.0329C145.929 82.2911 134.965 80.2524 132.085 77.3992C134.54 72.5445 146.792 71.5498 159.602 85.0243L170.978 53.7706C161.902 49.7114 155.635 46.4727 141.179 46.4727" fill="#B9B8B8"/>
<path d="M25.2286 50.0095C25.1878 65.4636 35.4546 67.3014 42.0478 68.2522C43.5585 75.8054 47.5592 81.6853 56.3385 82.9492L58.8116 83.3055C60.2302 90.3909 63.9861 96.6899 73.1059 98.0044L75.5796 98.3607C77.3583 107.259 81.7555 111.093 88.2117 112.734C93.7974 114.104 103.386 113.239 114.655 113.239C117.498 113.239 120.852 116.368 120.852 119.571C120.797 119.908 119.376 127.824 106.338 127.824C93.0372 127.824 85.4944 119.42 84.6781 118.461C84.6781 118.461 81.8207 115.106 79.7302 112.653C79.1795 116.745 76.2959 138.132 75.738 142.27C86.6578 146.995 93.5092 148.477 103.66 148.477C112.196 148.477 122.448 147.598 133.771 141.076C144.717 134.722 152.814 124.113 154.893 113.392C155.872 108.336 155.947 100.904 150.729 94.2065C143.436 84.8472 133.3 83.5833 129.596 79.9115L127.767 78.1012C129.316 75.0385 131.943 71.4617 136.852 70.7405C143.316 69.7902 150.998 72.7847 158.105 78.7968C160.375 72.5575 165.029 59.7719 166.531 55.65C159.138 52.3412 153.258 50.0095 141.177 50.0095H25.2299" fill="white"/>
<path d="M139.914 66.8643C146.571 66.8643 152.125 69.5262 156.407 73.1195L162.075 57.5441C156.124 54.8847 148.62 53.5507 141.167 53.5507H28.9844C29.2889 59.631 35.1323 64.5509 42.0325 64.5424H109.243C107.794 65.8093 106.437 67.175 105.196 68.6168H45.7579C46.0649 74.6971 51.9064 79.6146 58.8048 79.606H98.6812C98.1756 81.0399 97.7937 82.3952 97.5232 83.6805H62.5332C62.8402 89.7602 68.683 94.6831 75.5831 94.6716H98.2243C98.8548 96.1743 99.7039 97.5186 100.713 98.746H79.3104C79.6149 104.824 85.4589 109.745 92.3579 109.736H116.63C122.049 112.919 125.945 116.215 123.85 121.968C121.137 129.423 112.292 131.418 106.302 131.418C96.7192 131.418 87.3551 127.159 82.13 121.037L79.5473 140.209C86.6376 143.402 94.8407 145 103.624 145C113.075 145 122.03 143.803 131.965 138.078C140.909 132.888 147.313 125.168 150.464 116.515C153.562 107.999 152.281 102.007 147.927 96.4167C144.299 91.7581 139.23 89.2302 133.859 86.4337C129.709 84.3036 122.909 81.7745 125.235 75.3848C127.512 69.1315 134.724 66.8698 139.914 66.8698" fill="#2F2975"/>
<path d="M32.0337 55.9766C32.2968 56.6149 32.6462 57.2211 33.0614 57.7888H142.407C148.186 57.7888 153.767 58.6158 158.537 60.1425C158.701 59.6947 158.853 59.2766 158.986 58.9082C153.87 57.0106 147.636 55.9766 141.16 55.9766H32.0293H32.0337ZM113.637 63.9205C108.954 67.6411 106.307 71.0434 106.307 71.0434H48.81C49.0746 71.6818 49.4235 72.2875 49.8387 72.8547H107.145C111.223 67.9291 116.491 63.9205 116.491 63.9205H113.641H113.637ZM121.792 77.4821C121.323 86.5259 129.311 88.7968 131.891 90.1958C140.253 94.2765 144.546 97.3528 147.265 103.876C147.675 94.41 132.702 88.5098 131.549 87.8495C128.317 86.3661 123.061 82.439 121.792 77.4821ZM101.471 78.984C100.063 82.6246 99.4917 86.1059 99.4917 86.1059H65.5824C65.8475 86.7447 66.1949 87.3514 66.6106 87.9182H100.97C101.821 82.7323 103.354 78.984 103.354 78.984H101.471ZM82.3602 101.173C82.6238 101.811 82.9727 102.417 83.3879 102.984H107.093L105.607 101.173H82.3602ZM125.672 114.529C126.892 116.737 127.346 119.457 126.129 122.796C123.167 130.941 113.943 133.843 106.299 133.843C98.1297 133.843 89.85 130.859 83.9025 126.047C83.2729 130.713 82.4966 136.469 82.1994 138.673C82.6638 138.862 83.4498 139.287 83.9244 139.46C84.2874 136.761 84.7689 133.263 85.3006 129.324C92.1744 133.773 99.3762 135.655 107.546 135.655C115.141 135.655 124.914 131.37 127.376 124.607C128.948 120.29 127.731 117.003 125.672 114.529V114.529Z" fill="#8271B2"/>
</svg>
