<svg width="200" height="200" viewBox="0 0 200 200" fill="none" xmlns="http://www.w3.org/2000/svg">
<g clip-path="url(#clip0_154_2431)">
<path d="M167.321 148.747C172.356 137 172.015 130.129 172.015 130.129V130.089C153.244 124.419 135.601 142.543 135.421 142.723L133.404 144.84L131.968 142.289C99.3607 84.4594 35.6011 98.3359 34.9534 98.4761L29.8315 99.6447L32.6362 95.204C39.955 83.6381 48.2021 78.1556 53.324 75.6714C44.5093 70.7633 11.0001 65.1539 11.0001 65.1539H61.6846C39.354 55.5179 2.19208 51.2307 0.0351562 51.204L109.965 51.1172C119.948 51.204 132.389 51.4711 145.431 55.1773C145.885 55.2775 190.319 65.6147 199.948 111.558L200.035 111.952C200.035 111.972 197.003 140.219 167.321 148.747Z" fill="#BABCBE"/>
<path d="M144.964 57.2922C132.015 53.626 115.374 53.0785 107.394 53.2721L28.209 53.3589C28.209 53.3589 54.2858 57.025 71.0671 67.3356H31.401C31.401 67.3356 49.1973 69.0985 58.7866 75.9098C58.7866 75.9098 45.5178 78.9149 34.4728 96.384C34.4728 96.384 100.035 81.2521 133.852 141.245C133.852 141.245 153.231 120.838 174.099 128.424C174.099 128.424 174.974 134.928 171.014 145.192C193.618 137.452 197.838 112.01 197.838 112.01C188.389 66.8948 144.964 57.2922 144.964 57.2922ZM181.618 128.437C182.012 126.474 181.671 124.584 181.338 123.376C171.962 118.427 160.623 118.654 160.623 118.654C160.623 118.654 163.328 117.426 173.244 114.494C179.014 112.818 183.621 110.514 186.499 105.72C187.701 108.751 187.882 109.639 188.743 112.938C188.356 115.195 188.683 121.386 181.618 128.437Z" fill="#00483A"/>
<path d="M175.4 101.32C175.426 101.119 169.45 102.181 165.163 99.43C163.046 92.2246 158.565 87.7238 158.565 87.7238C158.565 87.7238 171.153 93.3398 175.4 101.32ZM182.872 115.523C182.872 115.523 184.141 115.55 184.849 116.018C184.836 116.018 185.583 116.766 185.583 117.186C186.585 115.537 186.852 113.493 186.852 113.493C186.852 113.493 186.652 111.53 186.118 110.181C186.118 110.181 186.625 113.634 182.872 115.523ZM51.0859 89.3599C85.4566 88.0644 113.49 103.657 128.088 122.502C124.194 112.619 116.522 100.866 96.2278 91.6437C96.2278 91.6437 119.513 96.5652 135.473 110.088C129.73 98.3682 120.889 93.7271 120.889 93.7271C120.889 93.7271 142.351 97.4333 153.523 116.472C156.836 115.129 161.717 114.862 166.245 111.817C158.024 110.508 152.128 105.894 152.128 105.894C159.32 107.49 163.507 104.078 163.38 103.724C151.113 82.5552 119.694 73.0059 119.834 73.1929C158.345 72.6119 175.033 90.6086 181.39 100.819C181.176 101.4 180.629 101.847 179.5 101.934C179.5 101.934 180.769 104.458 183.253 103.751C189.203 102.074 186.118 96.4316 186.118 96.4316C177.657 79.7639 163.373 68.4517 143.4 62.7822C127.012 58.5351 111.079 59.0159 111.033 59.0026C92.1344 59.0293 63.293 59.0159 63.293 59.0159C84.3614 61.1729 96.2479 69.9475 97.8038 71.1295H79.3864C79.3864 71.1295 98.9724 77.1528 104.235 81.0727C70.899 72.1311 51.0859 89.3599 51.0859 89.3599Z" fill="white"/>
</g>
<defs>
<clipPath id="clip0_154_2431">
<rect width="200" height="200" fill="white"/>
</clipPath>
</defs>
</svg>
