<svg width="200" height="200" viewBox="0 0 200 200" fill="none" xmlns="http://www.w3.org/2000/svg">
<g clip-path="url(#clip0_154_2354)">
<path d="M99.21 49.6357L97.4882 50.589L96.289 51.2504C95.4579 51.7052 94.5076 52.8878 94.1591 54.099C93.0557 53.8207 92.2691 53.9142 92.1598 53.9354C92.1598 53.9354 90.4123 54.2174 90.0465 54.2748C89.7524 53.7483 87.6934 50.0927 87.6934 50.0927L87.2416 55.2379C87.2371 55.2552 87.2281 55.3721 87.2281 55.3721C87.2039 56.063 87.4272 57.2961 89.2614 61.1048L89.3262 61.239C89.3534 61.3024 89.3964 61.3506 89.4303 61.4072C89.0087 61.5716 88.2734 61.8559 87.9913 61.9268C87.7304 61.8793 86.9807 61.638 86.2325 61.3114L84.3749 60.5052L84.9496 62.4457C85.1276 63.0317 85.7129 64.7573 86.673 65.602C85.7612 65.9158 84.2679 66.3057 83.8274 66.3238C83.6245 66.2574 83.0702 65.9369 82.5928 65.5447L79.5209 63.0408L79.9885 66.9754C80.1077 68.0064 80.9056 69.9696 83.1275 70.7773C83.3666 70.8656 83.6275 70.9221 83.89 70.9787C83.442 71.5089 83.0136 72.0278 82.6395 72.4826C82.6418 72.478 82.2926 72.8944 82.2066 73.0045C81.8642 73.2873 80.0474 74.0573 79.4372 74.1742C79.1687 74.227 78.5616 74.1705 78.2516 74.1177C78.2516 74.1177 77.4228 73.9525 76.8435 73.8409C76.8481 73.8198 76.8888 73.6704 76.8888 73.6704L76.7825 73.6425C76.8111 73.4773 76.8164 73.3212 76.79 73.1576C76.7297 72.7676 76.4838 72.2307 75.6828 71.8611L75.0787 71.5722C73.5877 70.8346 72.166 70.1649 71.1086 70.1951L62.5726 70.9274L65.701 71.9493C65.0585 71.8573 64.2568 71.8362 63.09 71.9448C60.7792 72.1635 59.9465 72.8046 58.9766 73.549C58.9766 73.549 58.0211 74.9548 58.0196 74.9148C57.2163 75.0928 57.2774 75.0702 56.1235 74.9239L52.6799 74.488L55.4312 76.6042C56.438 77.3841 56.4802 77.4022 56.6349 77.4587C58.282 78.0636 59.9443 78.0855 61.3071 77.5063L61.3531 77.4897C62.3803 77.053 64.9408 75.973 66.9726 76.918C66.9357 76.9542 66.904 76.9866 66.8799 77.0183L66.8135 77.0877C66.4779 77.464 65.5804 78.4543 65.5231 80.146C65.5087 80.5487 65.5374 80.9914 65.6339 81.4613C65.9183 82.8407 66.7207 84.1266 67.3821 85.0067C66.6181 85.9691 66.0691 86.8357 65.7916 87.5801C65.2463 88.9927 64.3246 91.8202 64.2153 94.9056C64.1994 95.34 64.2771 95.8845 64.3563 96.4109L64.4491 97.1915C64.5698 99.921 67.2509 105.45 68.1454 107.223C68.0526 107.345 67.9742 107.444 67.9229 107.558C67.7638 107.891 67.5518 108.399 67.5322 108.995C67.496 109.938 67.9372 110.792 68.8491 111.524C69.4238 111.981 70.6606 112.757 71.6411 113.357C71.586 113.554 71.5491 113.749 71.5438 113.927C71.5197 114.57 71.6102 115.114 72.1313 115.655C71.7376 116.497 70.3197 119.488 70.3197 119.488L72.0898 122.038L77.2108 123.972L77.284 123.987C77.4899 124.03 77.8677 124.105 78.2562 124.141C78.3414 124.37 78.3776 124.454 78.4289 124.616C78.3904 124.794 78.3572 124.972 78.3549 125.146C78.324 125.936 78.5955 126.776 79.0654 127.416C78.7818 127.933 78.4334 128.742 77.916 129.988L77.4333 131.15C77.4318 131.15 77.0532 132.046 77.0532 132.046L77.6611 132.793L77.9077 133.02L79.2374 134.16C79.5028 134.407 79.8068 134.613 80.1198 134.79C80.1198 134.79 80.7593 135.06 81.3574 135.288H81.8092V135.456C81.8688 135.475 81.957 135.515 82.0068 135.53C82.6018 135.7 83.1939 135.798 83.1939 135.798C83.1939 135.798 85.814 135.263 87.1006 134.021L87.1564 133.526C87.3487 131.913 87.5773 130.065 87.621 129.794L87.6738 129.181C87.6934 128.748 87.6904 127.663 87.3465 126.908L87.3337 126.878L86.8811 126.02C86.7454 125.775 86.4083 125.146 86.3049 124.909C86.3178 124.761 86.3524 124.568 86.3728 124.511C86.5681 124.054 86.6338 123.404 86.6511 122.941L86.6587 122.643C86.6587 122.643 86.4988 122.18 86.4173 121.936C87.1165 121.818 88.1806 121.648 88.1806 121.648L88.5577 121.191C89.3911 120.201 90.7351 118.619 91.0194 118.327C91.5949 117.712 92.0632 116.392 92.2933 115.663L92.3362 115.53L92.3506 115.393C92.6077 113.414 92.9117 111.147 92.9517 110.919L92.9607 110.884C92.9622 110.852 93.2933 108.682 93.5362 107.308C93.8507 107.262 94.1109 107.163 94.313 107.075C95.0302 107.223 95.7007 106.932 96.1479 106.703C97.0605 107.283 98.2657 107.936 99.256 108.222C99.9152 108.412 101.725 109.427 103.995 110.862L104.039 110.885C104.127 110.942 104.222 111.076 104.216 111.501C104.195 111.61 103.954 112.59 103.954 112.59L103.949 112.684C103.888 113.126 103.094 115.265 102.487 116.905C101.985 117.179 101.575 117.418 101.332 117.642C101.099 117.864 100.962 118.17 100.681 118.789C100.592 118.987 100.479 119.237 100.371 119.469C99.0984 119.059 98.1383 119.166 97.6269 119.293C97.0726 119.429 94.8077 120.545 94.1214 121.391C93.4366 122.238 93.0233 124.348 92.9916 125.249C92.9668 125.936 93.4472 126.977 93.6591 127.397L93.7383 127.549L93.8695 127.674C93.9932 127.786 95.0981 128.783 95.7105 129.187L95.7626 129.224L95.8199 129.249C96.3554 129.502 97.6541 130.113 98.2122 130.204C98.1828 130.197 98.4445 130.253 98.4445 130.253C98.8163 130.328 99.5351 130.488 100.28 129.964C100.276 129.968 100.945 129.547 100.945 129.547C102.151 128.796 103.263 128.102 103.639 127.796L103.963 127.538C103.963 127.538 104.875 125.315 105.02 124.963C105.685 124.377 106.675 123.487 107.015 123.067C107.497 122.473 107.664 121.527 107.887 120.035C107.886 120.053 108.03 119.219 108.07 118.992C108.148 118.703 108.613 117.987 108.896 117.556C108.904 117.546 109.437 116.695 109.437 116.695C109.599 116.417 109.736 116.092 109.861 115.761L123.697 116.613C123.697 116.613 123.687 106.989 123.686 104.051C125.464 104.204 127.601 104.394 127.601 104.394C127.602 104.394 127.694 104.401 127.694 104.401C129.877 104.614 133.527 104.967 135.248 101.382C136.111 99.5756 136.111 97.2775 136.111 95.4335V86.8734C136.111 84.9087 136.112 81.6151 133.476 79.4227L133.435 79.3933L133.395 79.3638C131.233 77.7446 127.734 77.4663 127.342 77.4399L108.661 76.1042C108.661 76.1042 112.814 81.2712 113.387 81.9877V110.195C113.169 110.48 112.497 111.351 111.733 112.346C111.753 112.314 111.782 112.278 111.801 112.248L112.056 111.84L112.043 111.357C112.021 110.7 111.801 109.985 111.626 109.414C111.555 109.173 111.46 108.854 111.443 108.739C111.443 108.739 111.443 108.737 111.443 108.736L111.44 108.714L111.443 108.723C111.471 107.698 110.818 106.642 110.539 106.245L110.527 106.214L110.508 106.201C108.996 104.243 108.004 102.936 107.821 102.679C107.603 102.307 106.66 99.8984 106.554 99.4911C106.391 98.8349 105.934 98.2942 105.55 97.9329C105.502 97.8809 105.207 97.5045 105.207 97.5045C105.207 97.5045 104.128 96.1477 103.777 95.6892C103.845 94.9425 104.046 93.097 104.238 91.4204L104.255 91.2598C104.255 91.2598 104.038 90.2899 103.873 89.5719C104.571 89.4014 105.186 88.9467 105.427 88.7513L105.682 88.5379C105.682 88.5379 105.911 88.0861 106.034 87.8531C106.941 87.3576 107.428 86.4118 107.569 85.69C107.576 85.6689 107.658 85.0799 107.718 84.653C108.18 84.334 108.47 83.8694 108.597 83.5791C109.27 82.0503 109.368 81.4997 109.38 81.1619L109.364 80.8119C109.296 80.4016 109.095 79.8903 109.009 79.6844L108.963 79.5577C108.963 79.5577 108.445 78.7235 108.23 78.3623C108.287 77.8592 108.511 75.9443 108.511 75.9443C108.511 75.9443 108.41 73.4208 108.395 73.1221C108.757 71.9863 109.104 71.0383 109.22 70.8452C109.673 70.0782 110.027 68.5215 110.058 67.5984L110.015 66.909C109.857 66.1911 109.097 64.7068 108.785 64.197C108.72 64.077 108.533 63.5438 108.27 62.6886C108.762 62.359 109.298 61.8921 109.628 61.2005C110.168 60.0828 110.732 58.7962 110.842 57.6701C110.841 57.6898 111.271 54.099 111.271 54.099L111.429 52.7709L109.213 53.2754C108.208 53.5092 106.469 54.6556 106.124 55.8405C106.134 55.8209 106.146 55.7801 106.146 55.7801C106.067 55.9664 105.686 56.5155 105.385 56.9069C105.178 56.6256 105.024 56.4461 105.022 56.4446C104.13 55.4 103.294 54.8404 102.229 54.5704C99.9242 53.9919 98.7997 53.6586 98.6051 53.5598C98.5727 53.556 98.5531 53.5341 98.5244 53.5145C98.544 53.3328 98.5734 53.1261 98.6051 52.918L99.1708 49.6289L99.21 49.6357ZM81.8092 135.456C81.6742 135.411 81.5173 135.35 81.3567 135.289H80.3445L74.7974 135.294L74.7092 135.291C73.7423 135.31 72.1223 135.345 71.0898 136.796C70.4909 137.612 70.4442 138.526 70.4118 139.192L70.4095 139.233L70.4238 141.467C70.4276 141.509 70.5535 142.527 70.5535 142.527L70.5815 142.641C70.6599 142.937 70.7677 143.194 70.8892 143.428C70.8175 143.385 70.5845 143.253 70.5845 143.253L70.5709 150.331L72.028 150.337C76.0773 150.351 77.3685 150.359 77.8866 150.317C77.8451 150.325 77.7659 150.342 77.7659 150.342C78.7177 150.338 80.3098 150.336 81.3582 149.1C81.8559 148.512 82.1848 147.579 82.1983 146.712C82.1983 146.705 82.2202 144.814 82.2202 144.814C82.2089 143.997 82.2014 143.442 82.0271 142.817C81.9615 142.571 81.8688 142.365 81.7707 142.164C81.7722 142.164 81.8092 142.181 81.8092 142.181V135.456ZM58.9246 78.9438L44.4923 81.3285C44.4923 81.3285 48.0943 85.1086 48.7113 85.7625V114.068C48.5461 114.334 47.8651 115.43 47.1456 116.587L41.2824 81.9907L22.7767 86.3628C22.7767 86.3628 26.1178 89.6677 26.7687 90.3125C26.4972 92.1233 22.4464 119.199 22.3483 119.856C22.3023 119.938 21.8868 120.689 21.6907 121.043C21.9946 119.29 22.009 117.358 22.009 115.475V110.158L11.9419 113.139V119.847C11.4479 120.007 10.7299 120.241 10.0421 120.466V99.8576C10.5361 99.7045 11.2571 99.4843 11.9419 99.2761V104.585L22.009 101.577V98.2919C22.009 95.2699 22.009 92.8866 21.0044 91.0501C19.0314 87.4617 15.1548 88.6744 12.8409 89.3977L7.2697 91.2062C5.01691 91.9612 1.94507 92.9914 0.631262 97.4216C0.000754187 99.4315 0 101.628 0 103.564V123.324C0 125.791 0.000754142 128.861 2.37195 130.451C4.54026 131.843 7.27649 130.935 9.08882 130.335L14.283 128.658C14.2845 128.658 14.3818 128.627 14.3818 128.627C15.6285 128.237 17.1972 127.742 18.5842 126.661C18.5306 126.757 18.2259 127.309 18.2259 127.309L31.097 123.898C31.097 123.898 32.1386 116.392 32.4116 114.424C33.6025 114.149 34.9736 113.831 36.6434 113.443C37.0084 115.887 37.9632 122.291 37.9632 122.291L46.4449 120.553L66.0246 117.571L66.0849 104.927C66.0849 104.927 60.2739 108.302 59.7572 108.602C59.6034 108.63 59.2994 108.679 58.9216 108.742C58.9223 104.826 58.9231 78.943 58.9231 78.943L58.9246 78.9438ZM143.018 79.4355C140.93 79.3254 138.397 79.8066 137.186 83.1507C136.5 84.9336 136.501 87.0665 136.501 89.1254V108.888C136.501 111.22 136.5 114.124 138.553 116.442C140.437 118.514 143.233 118.966 144.905 119.236L150.23 120.139C150.234 120.139 150.327 120.154 150.327 120.154C152.587 120.557 157.293 121.396 158.6 115.922C159 114.202 159 112.088 159 110.042V92.8579C159 90.0063 159.001 87.5424 158.061 85.3929V85.3914C156.546 81.9409 153.68 81.1649 150.627 80.6218L144.893 79.658C144.361 79.5743 143.714 79.4717 143.018 79.4355ZM155.968 81.505C155.968 81.505 160.176 87.6313 160.668 88.3418H160.669V116.691C160.115 117.367 156.891 121.307 156.891 121.307L159.893 122.044L177.781 126.408L177.87 113.599C177.87 113.599 172.879 114.966 172.099 115.18C171.747 115.08 171.445 114.997 170.816 114.814C170.816 112.28 170.816 88.6043 170.816 86.3153C172.379 88.3682 175.081 91.9144 175.325 92.2342C175.518 92.7855 181.76 110.479 181.969 111.082V122.247C181.338 122.932 178.016 126.494 178.016 126.494L191.814 130.803V113.041C192.098 112.384 200 93.9606 200 93.9606L190.027 90.4724C190.027 90.4724 188.259 95.8347 187.115 99.2973C185.923 94.7253 184.353 88.7166 184.353 88.7166L169.403 84.4607C169.403 84.4607 169.537 84.6357 169.543 84.6432L155.969 81.5058L155.968 81.505ZM123.679 86.5166C124.761 86.6079 125.264 86.6464 125.945 86.7067V95.2812C125.109 95.2133 124.686 95.1771 123.679 95.0956V86.5166ZM146.76 89.3871C147.454 89.507 148.234 89.6413 148.816 89.7378V110.463C148.124 110.347 147.341 110.213 146.76 110.114V89.3871ZM34.5188 99.2686C34.9291 102.015 35.1765 103.671 35.3424 104.787C34.6734 104.943 34.5105 104.98 33.696 105.169C33.926 103.514 34.11 102.213 34.5188 99.2686ZM110.935 113.427C110.663 113.781 110.54 113.944 110.324 114.224C110.336 114.172 110.363 114.087 110.374 114.04C110.538 113.834 110.67 113.673 110.708 113.641C110.785 113.58 110.859 113.503 110.935 113.427ZM28.3796 135.268L30.2048 137.626C30.2048 137.626 30.778 138.366 31.1212 138.813C31.1212 139.666 31.1264 146.569 31.1272 147.158C30.9477 147.528 29.5818 150.337 29.5818 150.337H36.841C36.841 150.337 36.8417 147.65 36.8425 146.849C37.034 147.18 38.7574 150.166 38.7574 150.166C38.7574 150.166 40.431 147.168 40.6044 146.858C40.6059 147.645 40.612 150.329 40.612 150.329L47.9963 150.347C47.9963 150.347 46.5905 147.361 46.4072 146.968C46.408 146.395 46.4155 139.591 46.4178 138.685C46.7639 138.273 49.2799 135.276 49.2799 135.276L41.1919 135.282C41.1919 135.282 39.7122 137.975 38.7438 139.728C37.8056 137.975 36.3651 135.281 36.3651 135.281L28.3796 135.266V135.268ZM114.087 135.269L112.877 135.274L106.229 135.28C106.229 135.28 104.156 146.416 104.062 146.924C103.863 147.249 101.957 150.344 101.957 150.344H109.656C109.656 150.344 109.954 148.141 110.072 147.254H110.251C110.392 148.147 110.741 150.347 110.741 150.347L118.155 150.341C118.155 150.341 116.425 147.073 116.266 146.769C116.188 146.356 114.087 135.269 114.087 135.269ZM51.446 135.274L52.4853 137.382C52.4853 137.382 52.9001 138.226 53.0939 138.619C53.0924 139.243 53.0849 146.255 53.0849 146.255C53.0849 147.138 53.195 147.732 53.2078 147.799L53.2161 147.845L53.2297 147.892C53.867 150.327 56.4486 150.339 57.8604 150.335C58.0482 150.341 58.3778 150.341 59.1245 150.337C59.6584 150.335 60.0521 150.331 60.3727 150.304C60.3689 150.307 60.3342 150.33 60.3342 150.33C61.056 150.331 63.2544 150.336 64.2417 148.34C64.6361 147.585 64.6497 146.793 64.6572 146.158V138.569C64.8405 138.186 66.223 135.277 66.223 135.277C66.223 135.277 59.5513 135.289 59.1199 135.289L51.446 135.274ZM86.3924 135.277V143.655C86.3924 143.655 89.7086 141.06 90.3625 140.549V147.089C90.1717 147.469 88.7448 150.324 88.7448 150.324L97.9972 150.373C97.9972 150.373 96.6382 147.383 96.4625 146.996C96.4617 146.535 96.4572 142.631 96.4564 140.577C97.1178 141.09 100.388 143.624 100.388 143.624V135.294L86.3924 135.277ZM168.721 135.283L167.251 135.289L161.717 135.302H161.608C160.641 135.321 159.023 135.356 157.999 136.796C157.4 137.612 157.353 138.526 157.322 139.193L157.321 139.233L157.334 141.467C157.339 141.509 157.463 142.527 157.463 142.527L157.491 142.641C157.57 142.937 157.676 143.194 157.798 143.428C157.725 143.385 157.492 143.253 157.492 143.253L157.48 150.331L158.94 150.337C162.989 150.351 164.278 150.359 164.796 150.317C164.756 150.325 164.673 150.342 164.673 150.342C165.628 150.338 167.22 150.336 168.27 149.101C168.765 148.512 169.095 147.579 169.11 146.713C169.11 146.706 169.129 144.814 169.129 144.814C169.119 143.997 169.111 143.443 168.936 142.817C168.869 142.572 168.777 142.365 168.68 142.164L168.721 142.182V135.283ZM144.675 135.289L144.626 135.291C143.815 135.327 142.3 135.396 141.364 136.887C140.659 138.003 140.688 139.97 140.721 140.621L140.701 145.333L140.704 145.363C140.75 146.03 140.848 147.217 140.979 147.692C141.65 150.279 144.112 150.329 144.921 150.348H144.935L152.25 150.358L152.226 148.882L152.149 141.038H152.086C152.086 140.389 152.093 135.297 152.093 135.297L144.677 135.289H144.675ZM129.431 135.291C129.431 135.291 129.434 137.826 129.434 138.433C128.802 137.349 127.605 135.294 127.605 135.294L120.785 135.298C120.785 135.298 122.109 138.225 122.282 138.603C122.282 139.172 122.273 146.499 122.271 147.076C122.095 147.457 120.738 150.362 120.738 150.362L127.947 150.355C127.947 150.355 127.95 147.736 127.953 147.057C128.568 148.186 129.75 150.352 129.75 150.352L135.162 150.355C135.162 150.355 135.166 139.114 135.166 138.55C135.326 138.18 136.572 135.291 136.572 135.291H134.353H134.352H129.432H129.431ZM146.837 140.335H148.79C149.189 140.577 149.948 141.031 149.952 141.038C148.997 141.035 146.852 141.032 146.834 141.032C146.836 140.754 146.837 140.544 146.837 140.335Z" fill="#B38F4F"/>
<path d="M110.531 108.713C110.562 107.913 109.925 106.962 109.797 106.777C109.109 105.887 107.322 103.565 107.069 103.202C106.829 102.856 105.777 100.151 105.675 99.7182C105.55 99.1996 105.073 98.7386 104.872 98.5604C104.828 98.5105 103.112 96.3195 102.834 95.9924C102.853 95.5531 103.332 91.3126 103.332 91.3126C103.332 91.3126 102.965 89.6638 102.786 88.8775C103.187 88.7785 103.603 88.6871 103.603 88.6871C104.185 88.5636 104.749 88.1139 104.865 88.0243L104.964 87.9386C104.964 87.9386 105.235 87.4125 105.373 87.1372C106.199 86.8412 106.582 86.0078 106.676 85.5101C106.683 85.4884 106.808 84.5701 106.88 84.1091C106.942 84.0591 107.007 84.0158 107.048 83.9941C107.452 83.8084 107.692 83.3662 107.78 83.1862C108.357 81.8682 108.467 81.3629 108.472 81.13C108.472 81.0584 108.474 81.0084 108.467 80.9698C108.409 80.6313 108.21 80.1364 108.172 80.0336L108.15 79.9865C108.15 79.9865 107.468 78.8816 107.284 78.5837C107.333 78.2 107.596 75.9081 107.596 75.9081C107.596 75.9081 107.49 73.2053 107.481 72.996C107.749 72.1325 108.224 70.74 108.443 70.3695C108.792 69.7803 109.123 68.4039 109.152 67.5677C109.158 67.3782 109.152 67.2208 109.127 67.1143C109.003 66.5411 108.278 65.1053 107.992 64.6622C107.872 64.4557 107.509 63.3508 107.182 62.26C107.761 61.9932 108.462 61.5134 108.812 60.7988C109.314 59.757 109.842 58.5541 109.933 57.5812L110.37 53.9875L109.454 54.1939C108.708 54.3721 107.288 55.3337 107.068 56.1001C106.967 56.4188 106.06 57.7132 105.688 58.0148C105.558 58.1176 105.377 58.2279 105.195 58.3241C104.855 57.6642 104.352 57.0731 104.342 57.0617C103.575 56.1652 102.904 55.7089 102.036 55.4921C100.069 54.9924 98.5828 54.5776 98.2509 54.4324C97.9021 54.2759 97.6702 54.0026 97.5882 53.8743C97.5901 53.8527 97.5835 53.8357 97.5882 53.8093C97.5929 53.5792 97.6495 53.1494 97.7145 52.7581L97.9464 51.4072L96.7472 52.0699C96.0242 52.4668 95.0975 53.7329 94.9843 54.769C94.9608 54.9726 94.9532 55.1659 94.9429 55.3554C93.4722 54.6889 92.371 54.8491 92.3116 54.8586L90.9616 55.0726L91.9751 55.9955C92.4983 56.4688 92.9763 57.255 93.2874 57.8583C92.6595 57.9328 91.9892 57.9998 91.7121 57.963C91.3397 57.9196 91.2454 57.8197 90.9409 57.4926L90.8542 57.4011C90.6534 57.1852 89.9595 56.0323 89.4071 55.0528L88.3691 53.2031L88.1768 55.3186C88.1721 55.3422 88.1721 55.3686 88.1721 55.3941C88.157 55.9258 88.3813 57.0947 90.1132 60.6904L90.1782 60.8233C90.2565 60.9836 90.3413 61.157 91.367 61.6793C90.9409 61.8302 90.4535 62.0149 89.8803 62.2393C89.2015 62.4995 88.2739 62.8578 88.0514 62.8823C87.7459 62.8992 86.6703 62.5325 85.8567 62.178C85.8567 62.178 86.6014 64.6867 87.5781 65.0854C87.8996 65.2269 88.3917 65.3221 88.8999 65.3985C88.4294 65.6917 88.0316 65.9735 87.8619 66.1045C87.4018 66.4552 84.4378 67.2877 83.7459 67.266C83.4131 67.2509 82.5712 66.7381 81.9942 66.2714L80.7319 65.2382L80.9233 66.8578C80.9384 66.9445 81.2108 69.0742 83.4489 69.8897C84.2314 70.1668 85.0855 70.23 85.8633 70.1951C85.0827 71.0068 84.2238 72.0306 83.3706 73.0743L82.8965 73.6503C82.5335 74.0585 80.3548 74.9551 79.6157 75.0984C79.1217 75.1917 78.3364 75.0861 78.0752 75.0361L76.0936 74.6449L77.4672 76.1278C77.7745 76.4616 78.919 77.3826 79.8495 77.4203C80.1314 77.4269 80.6754 77.3637 81.2485 77.2704C81.1665 77.3769 81.0892 77.4675 81.0242 77.5523C79.8391 77.5523 76.7017 77.7937 76.2209 78.0105C76.0295 78.1001 75.4044 78.612 74.671 79.2399H74.6672C74.6644 79.2446 74.6578 79.2399 74.654 79.2521C74.6606 79.2399 74.6644 79.2455 74.671 79.2399C74.6663 78.9335 74.6719 78.6469 74.7049 78.4838C74.7983 78.0369 76.137 76.3579 76.137 76.3579C76.137 76.3579 74.2986 77.2629 73.9017 77.6306C73.519 77.9907 72.778 79.7668 72.778 79.7668L72.9024 80.34L72.9825 80.7115C73.0014 80.6935 72.9043 80.7802 72.8336 80.8453C72.5913 81.0584 72.3669 81.2601 72.1755 81.4345C72.0087 81.5835 71.9323 81.6476 71.938 81.6476C71.9012 81.5477 71.872 81.4411 71.8494 81.3167C71.6335 80.2495 71.9163 78.6685 72.8505 77.7409C74.0214 76.5813 75.4365 75.6263 75.4365 75.6263C75.4365 75.6263 75.8815 73.4005 75.8617 73.4391C75.8881 73.1921 75.7561 72.9253 75.2885 72.7123C74.4023 72.3088 72.2651 71.103 71.1329 71.1416C70.0101 71.1699 65.8686 71.3962 65.8686 71.3962C65.8686 71.3962 70.2665 72.3088 71.0075 72.7123C71.7438 73.1111 72.9552 74.8118 72.9552 74.8118C73.9611 74.6817 74.7153 74.462 75.1725 74.2414C74.2977 75.038 72.9967 75.8667 72.9967 75.8667C72.9967 75.8667 71.2432 76.4813 70.1524 77.4938C69.0664 78.5054 68.6402 81.9493 68.6402 81.9493C68.6402 81.9493 67.64 80.5578 68.3037 78.7769C68.9712 77.0008 71.5147 75.3633 71.5147 75.3633C70.0732 75.5349 67.9077 77.2572 67.5957 77.6211C67.278 77.9869 66.1147 79.0767 66.5625 81.2733C66.8783 82.8138 67.969 84.2722 68.5931 84.9981C67.7663 85.9635 67.0159 87.0015 66.6709 87.914C65.9827 89.7034 65.252 92.3242 65.1596 94.9346C65.138 95.538 65.368 96.5939 65.3934 97.1444C65.5179 99.9595 68.8401 106.557 69.2681 107.351C69.2483 107.409 68.8335 107.829 68.777 107.953C68.6176 108.283 68.4866 108.643 68.4753 109.023C68.4545 109.577 68.6846 110.163 69.4416 110.786C70.1109 111.321 71.888 112.402 72.8025 112.947C72.646 113.262 72.4932 113.638 72.4848 113.955C72.4659 114.484 72.5442 114.721 72.826 115.014L72.8638 115.047C72.8638 115.047 73.0664 115.268 73.2625 115.481C72.9543 116.133 71.4082 119.389 71.4082 119.389L72.6978 121.251L77.4709 123.055C77.4709 123.055 78.5051 123.264 78.9218 123.211C79.0962 123.694 79.3263 124.291 79.4168 124.551C79.3527 124.76 79.3055 124.967 79.2971 125.174C79.2725 125.848 79.5318 126.497 79.8683 126.923C80.0484 127.146 80.1267 127.4 80.1238 127.493C79.7345 127.926 78.9171 130.075 78.3034 131.518L78.1431 131.883L78.3939 132.197C78.4269 132.228 78.8134 132.497 79.8646 133.454C81.0392 134.523 83.1849 134.794 83.2707 134.801L83.4272 134.82L86.1791 133.804L86.2243 133.404C86.3328 132.481 86.6363 129.993 86.6891 129.637C86.7146 129.509 86.7315 129.334 86.7362 129.14C86.756 128.562 86.7042 127.761 86.4855 127.292L86.0528 126.45C85.8331 126.05 85.4296 125.303 85.3731 125.117C85.3636 125.064 85.3598 124.987 85.3636 124.901C85.3693 124.642 85.4409 124.284 85.4994 124.149C85.6625 123.791 85.6973 123.158 85.7068 122.901L85.7134 122.783C85.7134 122.783 85.3891 121.842 85.1609 121.182C86.0207 121.038 87.6828 120.766 87.6828 120.766L87.8393 120.58C88.5586 119.719 90.0151 118.002 90.3319 117.667C90.8042 117.16 91.2643 115.787 91.3934 115.371L91.416 115.318L91.4207 115.26C91.6319 113.638 91.9817 110.977 92.026 110.728C92.026 110.728 92.5275 107.445 92.7557 106.354C93.4533 106.517 93.9445 106.181 94.2528 106.054C94.9466 106.434 95.7734 105.784 96.2061 105.618C96.982 106.15 98.4131 106.993 99.5171 107.314C100.741 107.666 104.115 109.811 104.54 110.083C105.161 110.482 105.176 111.209 105.166 111.592C105.16 111.652 104.894 112.726 104.894 112.726C104.869 113.203 104.058 115.371 103.246 117.55C102.936 117.724 102.218 118.1 101.979 118.328C101.746 118.541 101.243 120.042 100.769 120.619C99.1437 119.878 98.0332 120.154 97.8578 120.204C97.3921 120.319 95.3454 121.372 94.8561 121.978C94.3744 122.569 93.9633 124.414 93.9304 125.27C93.9219 125.654 94.2386 126.45 94.4998 126.966C94.4998 126.966 95.6612 128.017 96.2325 128.386C96.2325 128.386 97.888 129.184 98.3641 129.268L98.6318 129.318C98.9458 129.389 99.3323 129.474 99.7367 129.19C99.9818 129.019 102.535 127.466 103.05 127.053L103.181 126.949C103.181 126.949 104.123 124.654 104.23 124.397C104.683 124 105.946 122.892 106.282 122.471C106.604 122.074 106.748 121.229 106.953 119.885L107.15 118.769C107.261 118.333 107.708 117.644 108.103 117.036L108.637 116.191C109.09 115.414 109.403 114.087 109.504 113.643C109.738 113.31 110 112.984 110.098 112.912C110.461 112.645 110.901 111.955 111.031 111.749L111.136 111.585L111.132 111.386C111.113 110.443 110.514 109.186 110.529 108.713" fill="black"/>
<path d="M82.0393 99.1564C82.423 98.7689 83.2526 98.0223 84.1068 97.9591C85.2663 97.8667 86.9086 98.0138 87.4724 98.4371C88.0352 98.8623 90.0385 98.9754 90.6249 98.7284C90.6249 98.7284 91.1246 98.6134 91.3772 98.8905C91.6327 99.1667 92.583 102.582 92.583 102.582C92.583 102.582 91.6337 104.159 91.2716 104.365C91.0199 104.513 90.4458 104.513 89.9226 104.431L89.2551 104.235C89.2579 104.238 89.2739 104.25 89.2739 104.25C89.2739 104.25 89.29 104.285 89.3371 104.337C89.455 104.491 89.7284 104.826 90.0847 105.126C90.0847 105.126 90.0828 105.126 90.0781 105.128C90.4316 105.423 90.8634 105.699 91.3046 105.751C91.3046 105.751 90.9756 108.765 90.6966 110.319C90.4203 111.866 90.1733 114.884 89.8867 115.496C89.7859 115.711 89.6643 115.95 89.5238 116.199C89.5134 116.214 89.5068 116.23 89.4965 116.249C89.2429 116.691 88.9308 117.123 88.6169 117.372C88.1134 117.75 87.0321 119.277 87.0321 119.277L82.2911 119.77C82.2911 119.77 80.8204 117.4 80.5809 116.725C80.3301 116.048 81.4869 112.478 81.4869 112.478C81.4869 112.478 83.7429 111.67 83.8758 111.675C84.0087 111.675 85.3983 112.669 85.3983 112.669C85.3983 112.669 84.7186 114.291 85.3088 115.204C85.3088 115.204 85.5878 113.651 86.0111 113.086C86.4297 112.524 87.4054 111.312 87.4054 111.312L88.4293 103.995C88.4293 103.995 87.4356 103.16 87.2819 102.482C87.2414 102.316 87.2593 102.072 87.3036 101.792L87.5638 100.731C87.6967 100.3 87.8212 99.9662 87.8212 99.9662C87.8212 99.9662 87.742 100.046 87.6204 100.192C87.2716 100.606 86.6032 101.553 86.5655 102.632C86.5193 103.912 86.6833 103.873 86.7267 103.837C86.6135 103.944 84.2171 106.113 81.6736 106.715C81.6736 106.715 80.9938 106.754 80.5998 106.517C80.2085 106.283 79.6353 104.481 79.526 103.944C79.4072 103.403 79.2742 100.951 80.6063 98.5936C80.6063 98.5936 79.3714 93.3321 80.3584 90.6962C80.3584 90.6962 78.9132 93.7158 78.7774 95.0046C78.6407 96.2876 79.1734 97.6009 79.1734 97.6009L77.7291 101.74L77.7112 102.852C77.7112 102.852 74.3154 100.909 73.5414 100.216C72.7637 99.5203 71.6918 97.6641 71.4617 96.5243C71.2694 95.5561 70.7349 92.0009 71.4023 88.2328C71.4023 88.2328 70.1438 92.1942 70.1485 95.8511C70.1485 99.508 72.9937 104.493 72.9937 104.493C72.9937 104.493 70.1768 103.342 69.8779 103.106C69.5734 102.877 68.773 102.135 68.5279 101.549C68.2828 100.958 66.3388 96.4243 66.4246 94.0703C66.4831 92.5195 67.044 90.3879 67.8369 88.5119C67.8576 88.4704 67.8793 88.4242 67.8953 88.3761C67.8953 88.3761 67.8934 88.3808 67.8897 88.3837C67.9293 88.2866 67.9717 88.1923 68.0169 88.0923C68.0414 88.0424 68.0546 88 68.0801 87.9566C68.1423 87.8218 68.1998 87.6936 68.2686 87.571C68.3016 87.4909 68.3403 87.4155 68.3789 87.3457C68.4119 87.2769 68.4412 87.2175 68.4827 87.1506C68.527 87.0572 68.5741 86.9686 68.625 86.8771C68.6505 86.8338 68.6778 86.7904 68.6929 86.748C68.7721 86.6207 68.84 86.5057 68.906 86.3926C68.9324 86.3577 68.954 86.3209 68.9738 86.2879C69.0549 86.1606 69.135 86.0409 69.2152 85.924C70.6717 83.8387 75.5476 79.47 77.7941 79.0212C78.8 78.8204 79.4892 78.8101 79.9398 78.8648C80.0086 78.8997 80.0011 78.9364 80.0011 78.9364C80.0011 78.9364 79.559 79.2032 79.0546 80.721H79.0565C78.7624 81.6242 78.4475 82.9676 78.2052 84.9577L78.3947 84.6645L78.5267 84.3383L80.7449 80.063C80.7449 80.063 82.9689 77.4704 83.8428 76.7407C84.7167 76.0205 88.3152 73.9662 88.3152 73.9662C88.3152 73.9662 89.3315 71.551 90.0197 69.8795C90.5844 68.5068 93.2203 64.5586 94.6636 62.6958C94.97 62.3007 95.2189 62.0009 95.3886 61.8341C95.3886 61.8341 95.7317 62.444 96.9818 62.1744C97.0525 62.1565 97.1261 62.1489 97.2034 62.1244C97.2034 62.1244 96.6717 62.0632 96.4567 61.8812C96.2418 61.6832 95.1397 58.8437 94.6872 57.8896C94.2262 56.9308 93.6766 56.2049 93.5022 56.0183C93.5022 56.0183 95.2462 57.0261 95.4706 57.2014C95.6874 57.3966 97.2835 59.8986 97.4834 60.5746C97.4834 60.5746 99.3613 60.37 100.115 60.4888C100.867 60.6029 102.126 61.4061 102.431 61.7332C102.734 62.0594 103.137 63.2255 103.137 63.2255C103.137 63.2255 103.803 61.9613 104.039 61.5267C104.278 61.0827 105.44 59.7487 105.583 59.6224C105.715 59.4885 106.493 59.0737 106.723 58.7702C106.959 58.4675 108.144 56.3727 109.008 55.9117L108.527 57.0544L108.25 58.3808C108.25 58.3808 108.133 60.4699 105.878 61.2797C105.878 61.2797 106.574 64.2437 106.719 65.145C106.719 65.145 107.632 66.9145 107.752 67.2737C107.872 67.6319 107.812 68.0326 107.719 68.2504C107.624 68.4719 107.255 69.9228 106.933 70.2735C106.933 70.2735 106.612 71.7772 106.274 72.522C106.274 72.522 106.42 74.7063 106.286 75.9074C106.152 77.1084 105.871 78.7865 105.871 78.7865C105.871 78.7865 106.886 80.1582 107.009 80.523C107.128 80.8832 107.247 81.2895 107.103 81.5931C106.958 81.9023 106.291 83.0826 105.754 83.3287C105.754 83.3287 105.426 83.6275 105.51 83.8981C105.584 84.1687 105.778 84.9313 105.498 85.3263C105.217 85.7175 105.028 85.9307 104.101 85.6752C103.178 85.4216 102.526 86.1512 101.863 86.0843C101.195 86.0145 100.88 84.8861 100.771 84.1753C100.662 83.455 100.347 83.5285 100.002 83.3004C99.6592 83.0656 98.9578 82.6357 98.7872 81.2527C98.7514 80.9557 98.7184 80.6597 98.691 80.3712C98.6929 80.3722 98.6863 80.3713 98.6486 79.9508C98.5704 79.0533 98.4949 78.2633 98.3309 77.8871C98.083 77.3441 96.8546 76.8143 96.501 76.6625C96.1513 76.5192 96.1315 75.7612 96.1315 75.7612L95.3499 71.6358C95.3499 71.6358 95.25 70.6544 95.5998 69.4637C95.9618 68.2673 96.8319 63.8949 96.8319 63.8949L94.1366 73.1074C94.1366 73.1074 93.6973 74.2019 93.8491 74.8317C94.0018 75.4662 95.5234 81.5308 95.6167 82.6055C95.7148 83.6784 96.2899 87.4805 96.2899 87.4805C96.2899 87.4805 92.8177 84.9078 92.1541 84.755C91.4932 84.5948 89.2447 85.0916 88.4396 85.3329L89.7689 86.7122C89.7689 86.7122 91.2462 90.1928 91.513 91.456C91.7807 92.7099 91.4706 95.1997 91.4706 95.1997C91.4706 95.1997 90.2459 93.1464 89.6435 92.7269C89.0326 92.3017 87.6157 91.9387 87.6157 91.9387C87.6157 91.9387 88.8347 92.7853 89.4031 94.3625C89.9688 95.9407 89.7783 97.5453 89.7783 97.5453C89.7783 97.5453 87.5676 97.0626 86.8294 96.5007L84.4226 96.5469C84.4226 96.5469 82.1779 97.0437 81.8225 99.3949C81.8225 99.3949 81.9036 99.295 82.0393 99.1564Z" fill="#FFFDEE"/>
<path d="M111.111 77.3828C111.111 77.3828 114.19 81.2119 114.508 81.6101V110.574C114.205 110.969 111.295 114.752 111.295 114.752L122.592 115.447C122.592 115.447 122.581 104.449 122.579 102.851C123.9 102.967 127.702 103.298 127.702 103.298C127.704 103.3 127.792 103.313 127.792 103.313C129.933 103.519 132.863 103.804 134.253 100.91C135.008 99.3292 135.009 97.1661 135.009 95.433V86.8729C135.009 84.9874 135.009 82.129 132.765 80.2661L132.733 80.2382C130.788 78.7871 127.404 78.5413 127.26 78.533L111.113 77.3828H111.111ZM57.8283 80.2359L46.7114 82.0724C46.7114 82.0724 49.4296 84.9278 49.8059 85.3222V114.381C49.5774 114.75 46.6805 119.413 46.6805 119.413L64.9343 116.629L64.9811 106.836C64.9811 106.836 60.3843 109.505 60.1331 109.651C59.937 109.681 58.771 109.875 57.8268 110.031C57.8268 108.155 57.8283 80.2359 57.8283 80.2359ZM142.736 80.5127C142.506 80.5044 142.276 80.5052 142.047 80.5188C140.517 80.61 139.035 81.2677 138.217 83.522C137.596 85.1367 137.597 87.1662 137.597 89.1256V108.888C137.597 111.034 137.597 113.709 139.375 115.717C140.99 117.495 143.45 117.892 145.081 118.155L150.425 119.06C150.427 119.06 150.52 119.074 150.52 119.074C152.886 119.499 156.47 120.138 157.536 115.667C157.907 114.075 157.907 112.028 157.907 110.041V92.8567C157.907 90.0179 157.906 87.7749 157.057 85.8306C155.756 82.8719 153.289 82.2112 150.436 81.7028L144.722 80.7435C144.105 80.6462 143.426 80.5376 142.736 80.5127ZM158.468 83.2097C158.468 83.2097 161.504 87.6248 161.762 88.0034V117.083C161.459 117.458 158.838 120.656 158.838 120.656L176.694 125.02L176.764 115.041C176.764 115.041 172.496 116.207 172.088 116.316C171.777 116.226 170.453 115.85 169.719 115.639C169.719 114.41 169.724 85.8117 169.724 85.8117L158.468 83.2105V83.2097ZM40.3973 83.3251L24.9514 86.9777C24.9514 86.9777 27.4779 89.4756 27.932 89.9274C27.8098 90.7532 23.4468 119.918 23.4038 120.214C23.2642 120.465 20.4262 125.593 20.4262 125.593L30.1116 123.025C30.1116 123.025 31.2881 114.55 31.4314 113.528C32.2701 113.335 36.2771 112.405 37.551 112.108C37.7712 113.579 38.8753 120.985 38.8753 120.985L46.5161 119.422L40.4011 83.3251H40.3973ZM122.583 85.3283C123.849 85.4293 127.03 85.6978 127.03 85.6978C127.03 85.6978 127.041 96.206 127.041 96.473C126.832 96.4534 123.695 96.1985 122.583 96.105V85.3283ZM172.266 86.4166C172.266 86.4166 176.147 91.5074 176.297 91.711C176.385 91.9539 182.97 110.622 183.065 110.892V122.679C182.694 123.083 180.001 125.967 180.001 125.967L190.718 129.311V112.814C191.273 111.509 195.749 101.075 198.167 95.4458L198.53 94.6071L190.717 91.8747C190.717 91.8747 188.128 99.7198 186.99 103.162C185.999 99.3684 183.453 89.6008 183.453 89.6008L172.268 86.4143L172.266 86.4166ZM145.662 88.0947C146.524 88.2417 149.833 88.7983 149.833 88.7983C149.859 88.8089 149.91 88.8602 149.911 88.8888V111.761C149.047 111.615 145.743 111.055 145.743 111.055C145.71 111.048 145.669 110.997 145.662 110.969V88.0947ZM16.8739 89.6973C15.6295 89.6762 14.2961 90.094 13.1708 90.4455L7.61467 92.2458C5.48406 92.9622 2.83382 93.8522 1.68216 97.7325C1.0969 99.6022 1.09766 101.614 1.09766 103.563V123.324C1.09766 125.533 1.0969 128.275 2.98164 129.543C4.69291 130.641 7.13198 129.83 8.74596 129.294L13.959 127.612C13.9597 127.612 14.0563 127.581 14.0563 127.581C16.5187 126.812 19.5838 125.853 20.5537 121.247C20.9164 119.504 20.9164 117.457 20.9164 115.476V111.623L13.0396 113.96V120.491C13.0343 120.548 12.937 120.681 12.8495 120.708C12.8405 120.711 9.90968 121.657 8.94658 121.972V99.204C8.9511 99.1474 9.04915 99.0139 9.13513 98.989C9.13513 98.989 12.0961 98.087 13.0396 97.7989V103.114L20.9157 100.761V98.2921C20.9157 95.427 20.9164 93.1696 20.0468 91.5783C19.2753 90.177 18.1191 89.7177 16.8739 89.6973ZM34.5078 91.7314C34.7363 93.2609 36.3873 104.308 36.5833 105.627C35.6708 105.836 33.7182 106.291 32.3991 106.597C32.6811 104.57 34.3298 92.736 34.4686 91.7404C34.4874 91.7344 34.4897 91.7329 34.5078 91.7314ZM30.1169 136.122L30.8786 137.107C30.8786 137.107 31.7663 138.255 31.9714 138.518C31.9714 138.912 31.9775 147.087 31.9775 147.353C31.8757 147.562 30.942 149.487 30.942 149.487H35.9868C35.9868 149.487 35.9905 145.872 35.9913 143.67C36.9846 145.395 38.7434 148.439 38.7434 148.439C38.7434 148.439 40.4652 145.354 41.4479 143.591C41.4524 145.836 41.4607 149.482 41.4607 149.482L46.6519 149.492C46.6519 149.492 45.6518 147.371 45.553 147.158C45.553 146.901 45.5651 138.787 45.5651 138.375C45.7868 138.111 47.449 136.129 47.449 136.129L41.6953 136.135C41.6953 136.135 39.49 140.137 38.7313 141.515C37.9914 140.13 35.8548 136.134 35.8548 136.134L30.1169 136.122ZM112.883 136.122L106.941 136.129C106.941 136.129 104.917 147.018 104.877 147.236C104.774 147.401 103.487 149.493 103.487 149.493H108.918C108.918 149.493 109.234 147.13 109.332 146.402H110.984C111.097 147.117 111.474 149.498 111.474 149.498L116.744 149.487C116.744 149.487 115.535 147.202 115.458 147.052C115.424 146.875 113.387 136.122 113.387 136.122H112.883ZM52.8219 136.125L53.2541 137.007C53.2541 137.007 53.8446 138.205 53.9502 138.418C53.9495 138.694 53.9434 146.255 53.9434 146.255C53.9434 147.075 54.0437 147.614 54.049 147.638C54.5347 149.492 56.5597 149.487 57.8999 149.487C57.8999 149.487 57.8864 149.484 57.8818 149.484C58.0085 149.488 58.3012 149.488 59.1285 149.484C59.756 149.482 60.1278 149.482 60.3684 149.461C60.3654 149.461 60.3405 149.476 60.3405 149.476C60.9944 149.476 62.7313 149.481 63.484 147.96C63.794 147.371 63.8023 146.718 63.8113 146.144V138.374C63.9094 138.166 64.8793 136.129 64.8793 136.129L59.4641 136.141C59.4641 136.141 59.4807 145.064 59.4815 146.141H58.2801C58.2801 145.068 58.274 136.135 58.274 136.135L52.8219 136.125ZM87.248 136.128V141.905C87.248 141.905 90.0332 139.728 90.316 139.504H91.2203V147.287C91.1132 147.5 90.1245 149.482 90.1245 149.482L96.6769 149.513L95.615 147.181C95.615 146.945 95.6098 140.534 95.609 139.498C96.0072 139.502 96.2848 139.502 96.4718 139.502C96.7516 139.722 99.5406 141.882 99.5406 141.882V136.145L87.2472 136.127L87.248 136.128ZM167.872 136.135L167.259 136.141C165.149 136.15 161.926 136.163 161.706 136.154L161.632 136.151C160.773 136.168 159.475 136.199 158.696 137.292C158.243 137.91 158.208 138.61 158.178 139.231C158.178 139.263 158.187 141.387 158.187 141.387C158.188 141.404 158.306 142.369 158.306 142.369L158.317 142.418C158.823 144.294 160.511 144.315 161.631 144.336C161.631 144.336 163.074 144.331 163.915 144.328C163.914 144.918 163.911 145.579 163.907 146.161C163.098 146.162 161.152 146.166 160.906 146.166C160.667 146.034 158.348 144.716 158.348 144.716L158.339 149.482L158.946 149.489C163.467 149.502 164.451 149.507 164.742 149.474C164.714 149.482 164.675 149.489 164.675 149.489C165.585 149.489 166.829 149.482 167.626 148.544C167.933 148.183 168.252 147.472 168.262 146.699C168.262 146.697 168.281 144.806 168.281 144.806C168.271 144.045 168.265 143.564 168.121 143.047C167.632 141.178 165.846 141.158 164.544 141.145C164.544 141.145 163.289 141.148 162.524 141.148C162.524 140.599 162.524 140.048 162.522 139.497C163.306 139.497 164.999 139.491 165.213 139.491C165.436 139.602 167.872 140.808 167.872 140.808V136.135H167.872ZM80.958 136.137L80.3463 136.141C78.2316 136.148 75.0036 136.155 74.7811 136.145C73.8678 136.161 72.5691 136.187 71.7817 137.293C71.3284 137.912 71.2945 138.614 71.2635 139.234C71.2635 139.266 71.2726 141.39 71.2726 141.39C71.2726 141.407 71.3918 142.372 71.3918 142.372L71.4038 142.421C71.9076 144.297 73.5978 144.317 74.7148 144.337C74.7148 144.337 76.1598 144.334 76.9992 144.331C76.9977 144.921 76.9954 145.582 76.9917 146.164C76.1839 146.166 74.2381 146.169 73.993 146.169C73.7547 146.037 71.434 144.719 71.434 144.719L71.4242 149.485L72.0306 149.49C76.5505 149.504 77.5354 149.51 77.8273 149.476C77.8009 149.485 77.7625 149.49 77.7625 149.49C78.669 149.49 79.9149 149.485 80.7083 148.547C81.0183 148.186 81.3336 147.475 81.3464 146.702C81.3464 146.7 81.3668 144.809 81.3668 144.809C81.3562 144.048 81.3494 143.567 81.2046 143.05C80.7159 141.181 78.933 141.162 77.6297 141.148C77.6297 141.148 76.3755 141.149 75.6085 141.149C75.6085 140.6 75.6062 140.05 75.6055 139.498C76.3883 139.498 78.0837 139.494 78.2987 139.494C78.5227 139.605 80.9572 140.811 80.9572 140.811V136.138V136.137H80.958ZM130.29 136.14C130.29 136.14 130.291 139.491 130.291 141.591C129.101 139.541 127.12 136.145 127.12 136.145L122.11 136.147C122.11 136.147 123.049 138.215 123.142 138.418C123.142 138.672 123.131 147.005 123.131 147.265C123.036 147.472 122.084 149.507 122.084 149.507L127.103 149.504C127.103 149.504 127.11 145.952 127.111 143.72C128.303 145.908 130.262 149.501 130.262 149.501H134.316C134.316 149.501 134.322 138.618 134.322 138.372C134.406 138.174 135.282 136.141 135.282 136.141H134.359V136.139L130.29 136.14ZM144.708 136.14C143.724 136.183 142.741 136.311 142.095 137.338H142.093C141.477 138.315 141.57 140.4 141.581 140.634C141.581 140.612 141.569 142.923 141.569 142.923L141.558 145.267C141.581 145.587 141.686 147.025 141.807 147.464C142.321 149.44 144.16 149.477 144.945 149.498H144.953L151.392 149.504L151.381 148.887L151.311 141.886C151.311 141.886 146.087 141.885 145.987 141.885C145.991 140.75 145.995 139.822 145.995 139.481C146.808 139.481 148.778 139.483 149.035 139.483C149.269 139.624 151.24 140.814 151.24 140.814L151.251 136.148L144.709 136.14H144.708ZM110.159 141.622C110.354 142.577 110.464 143.103 110.553 143.542C110.209 143.542 110.114 143.541 109.77 143.542C109.858 143.102 109.964 142.576 110.159 141.622ZM145.986 141.982C146.074 142.13 147.136 143.969 147.271 144.202V146.152H145.975C145.979 145.555 145.983 143.975 145.986 141.982Z" fill="white"/>
<path d="M96.7364 53.0234C93.8283 55.9339 100.191 56.5923 101.045 56.8374C101.892 57.0893 103.429 58.3616 103.621 58.9469C103.817 59.5216 103.249 61.2992 103.249 61.2992C103.249 61.2992 104.6 59.6204 104.416 58.8247C104.231 58.0283 103.249 57.3525 102.13 56.5176C101.011 55.6903 97.5185 55.2076 96.9559 54.7513C96.4069 54.3101 96.7364 53.0234 96.7364 53.0234ZM88.8996 55.3215C89.0776 56.3366 89.736 58.0072 90.644 58.8323C91.54 59.6566 93.8509 59.3798 93.8509 59.3798L93.5205 58.5049C93.5205 58.5049 91.6547 58.5804 91.3643 58.5698C91.0792 58.563 90.8711 58.4831 90.5226 58.1143C90.1749 57.7417 88.8996 55.3215 88.8996 55.3215ZM91.9548 62.1123L88.2442 63.5573L87.312 63.4487C87.9372 64.1878 88.7932 64.2187 88.7932 64.2187L91.9548 62.1123ZM89.5391 65.3945C89.5391 65.3945 88.2744 66.7144 87.8407 66.9135C87.3987 67.1133 84.3473 68.1428 83.4935 67.9724C82.6352 67.8012 81.6593 66.9029 81.6593 66.9029C82.2626 68.2861 83.4581 68.9091 83.4581 68.9091C83.4581 68.9091 87.3686 68.1142 87.8776 67.8426C88.3905 67.5726 89.5391 65.3945 89.5391 65.3945ZM86.1777 70.8225C85.2553 72.1385 83.13 74.4057 82.823 74.6938C82.4497 75.0399 80.2097 75.3937 79.7044 75.5867C79.1923 75.7851 78.0565 75.5965 78.0565 75.5965C78.4706 75.9699 78.963 76.2798 79.6064 76.2301C80.2535 76.1803 82.1209 76.1064 83.0055 75.4231C83.6821 74.8981 85.4054 72.1054 86.1777 70.8225ZM73.5275 76.0694C73.2191 76.1018 72.5305 76.3636 71.0538 77.5235C69.1615 79.0025 69.5899 82.3617 69.8463 83.6408C70.1857 83.2931 70.5055 82.9801 70.7891 82.7086C70.5025 81.6987 70.1239 80.0501 70.4866 79.2974C71.0297 78.1661 73.7598 76.1139 73.7598 76.1139C73.7598 76.1139 73.7131 76.0506 73.5275 76.0694ZM73.9748 78.0597L73.4212 79.5432L73.5992 80.1587C73.7546 80.0327 73.9009 79.9015 74.0532 79.7748L73.925 79.4859L73.9748 78.0597ZM113.005 78.3675L115.368 81.305V110.861L112.956 113.996L121.744 114.536L121.733 101.921C123.756 102.074 125.775 102.25 127.793 102.45C129.928 102.654 132.346 102.926 133.491 100.536C134.161 99.1297 134.16 97.0753 134.16 95.4296V86.8688C134.16 85.0398 134.16 82.5238 132.23 80.9181C130.463 79.5983 127.208 79.3788 127.208 79.3788L113.004 78.3667L113.005 78.3675ZM66.8951 80.7583C67.1931 82.1678 68.9662 84.3799 69.0491 84.4855C69.252 84.2585 69.4594 84.033 69.6646 83.8271C68.801 83.4703 66.8951 80.7583 66.8951 80.7583ZM56.9812 81.2372L48.4452 82.6453L50.6649 84.9772V114.621L48.3834 118.288L64.0903 115.892L64.1273 108.32L60.4332 110.463L56.9797 111.037L56.9812 81.2372ZM142.734 81.3624C142.532 81.3541 142.332 81.3541 142.136 81.3654C140.829 81.4393 139.684 81.9936 139.023 83.8105C138.455 85.2902 138.453 87.2398 138.453 89.1223V108.884C138.453 110.998 138.454 113.383 140.019 115.145C141.45 116.725 143.769 117.076 145.297 117.321C147.062 117.606 148.822 117.903 150.581 118.218C153.041 118.657 155.819 119.205 156.712 115.465C157.059 113.977 157.058 111.976 157.058 110.038V92.8541C157.058 90.111 157.058 87.948 156.282 86.1704C155.165 83.6265 153.097 83.0359 150.293 82.5382C148.397 82.1965 146.5 81.882 144.595 81.5818C143.97 81.483 143.341 81.3865 142.734 81.3624ZM98.8535 83.2494C98.8535 83.2494 98.8904 84.8475 98.8278 85.2276C98.7675 85.6175 99.0639 86.7813 99.398 86.9894C99.7223 87.1938 101.684 87.5996 101.684 87.5996C101.684 87.5996 103.582 87.3786 103.784 87.1938C103.979 87.009 104.156 86.2865 104.156 86.2865L101.765 86.684C101.765 86.684 100.518 86.4042 100.242 86.0995C99.9667 85.7963 99.8226 84.441 99.6356 84.1476C99.4538 83.8512 98.8489 83.2494 98.8489 83.2494H98.8535ZM39.7177 84.3603L26.652 87.4487L28.8482 89.6216L24.2303 120.489L22.1472 124.254L29.3535 122.34L30.6749 112.827C33.1984 112.207 38.2636 111.067 38.2636 111.067L39.594 119.967L45.5431 118.75L39.7177 84.3603ZM121.737 84.3995L127.109 84.843C127.545 84.8769 127.901 85.2608 127.901 85.702V96.6069C127.901 97.0436 127.545 97.3672 127.109 97.3302L121.737 96.8837V84.3995ZM160.421 84.5292L162.623 87.7346V117.382C162.628 117.382 160.363 120.145 160.363 120.145L175.855 123.932L175.91 116.155L172.092 117.201L168.875 116.28L168.878 86.4834L160.421 84.5292ZM145.608 87.2164L149.983 87.9556C150.416 88.0287 150.772 88.4465 150.772 88.881V111.977C150.772 112.415 150.416 112.711 149.983 112.635L145.608 111.89C145.172 111.818 144.818 111.407 144.818 110.968V87.8688C144.818 87.4359 145.172 87.1403 145.608 87.2164ZM174.504 87.9337L177.064 91.2966L183.926 110.741V123.01L181.557 125.555L189.874 128.154V112.637C189.88 112.607 197.394 95.1061 197.394 95.1061L191.261 92.9619L186.903 106.169L182.754 90.2815L174.504 87.9337ZM97.3571 88.9089C97.3571 88.9089 97.5615 90.6986 97.4891 91.4543C97.4182 92.213 97.3466 94.0826 96.937 95.6687C96.5192 97.2533 94.4022 101.546 94.4022 101.546C94.4022 101.546 97.9469 97.1741 98.1423 96.6914C98.3451 96.2095 98.8806 92.354 98.6853 91.6307C98.4831 90.9112 97.3571 88.9089 97.3571 88.9089ZM16.9817 90.547C15.9929 90.5078 14.8006 90.8245 13.4302 91.2514C11.5779 91.8344 7.88683 93.0509 7.88683 93.0509C5.73662 93.7727 3.51702 94.5525 2.50413 97.9713C1.95432 99.7255 1.95508 101.674 1.95508 103.558V123.318C1.95508 125.431 1.95508 127.819 3.46347 128.83C4.84139 129.713 7.0806 128.948 8.56712 128.453C10.2807 127.883 11.9934 127.33 13.7115 126.796C16.1151 126.041 18.8468 125.238 19.7255 121.07C20.0694 119.41 20.0686 117.411 20.0686 115.471V112.762L13.897 114.59V120.486C13.897 120.92 13.5433 121.383 13.1044 121.517L8.88991 122.882C8.45323 123.015 8.10178 122.769 8.10178 122.335V99.1991C8.10178 98.7662 8.45323 98.3031 8.88991 98.1681L13.1044 96.8837C13.5433 96.7502 13.897 96.9976 13.897 97.4358V101.964L20.0686 100.12V98.2873C20.0686 95.5465 20.0694 93.379 19.3046 91.983C18.754 90.9814 17.9697 90.5862 16.9817 90.547ZM35.2197 90.6842C35.995 95.8806 37.5486 106.273 37.5486 106.273L31.3899 107.701C31.3899 107.701 32.9375 96.5911 33.7128 91.0395C34.2136 90.9188 34.7174 90.8041 35.2197 90.6842ZM97.2236 101.533C97.2236 101.533 96.4747 104.553 94.495 103.84C94.495 103.84 93.9135 104.383 92.8908 103.862L92.7588 105.301C92.7588 105.301 93.7219 105.264 94.2996 104.796C94.2996 104.796 95.403 105.239 96.397 104.475C96.397 104.475 98.1875 105.904 99.4636 106.109C99.4636 106.109 97.8941 105.166 96.9951 103.374C96.9951 103.374 97.1942 102.337 97.2236 101.533ZM108.117 115.073C108.117 115.073 106.25 116.815 105.687 117.399C105.132 117.982 104.879 121.253 104.879 121.253L102.272 122.842L100.901 125.604L97.0095 127.54C97.0095 127.54 97.5962 128.167 99.0541 128.488L102.074 126.518L103.173 123.81L105.867 121.697C105.867 121.697 105.963 119.083 106.193 118.286C106.419 117.491 107.807 116.135 108.117 115.073ZM82.6292 121.124C82.6292 121.124 83.4505 122.497 83.5033 122.966C83.5501 123.441 82.9724 124.627 83.0199 125.16C83.0659 125.7 84.4129 127.358 84.5109 128.502C84.5999 129.64 83.3879 133.486 83.3879 133.486C83.3879 133.486 84.802 133.399 85.1497 133.076C85.1497 133.076 85.971 128.823 85.7229 128.276C85.474 127.727 84.0667 125.806 84.2281 125.071C84.3918 124.335 84.747 123.747 84.575 122.87C84.4114 121.989 83.6338 121.159 83.6338 121.159L82.6292 121.124ZM112.886 136.727L107.451 136.736L105.456 147.456L104.579 148.883H108.387L108.801 145.793L111.507 145.79L111.996 148.883L115.738 148.877L114.877 147.255L112.886 136.729V136.727ZM31.3642 136.729L32.5853 138.305L32.5913 147.488L31.9208 148.87H35.3841L35.3886 141.397L38.7395 147.201L42.0557 141.255L42.0746 148.87L45.697 148.879L44.9503 147.292L44.9616 138.149L46.1487 136.739L42.0602 136.742L38.7297 142.786L35.4942 136.739L31.3642 136.729ZM53.8031 136.736L54.5633 138.277C54.5633 138.277 54.5542 145.483 54.5542 146.252C54.5542 147.022 54.65 147.519 54.65 147.519C54.9773 148.763 56.3138 148.877 57.9029 148.877C57.9029 148.88 60.3404 148.872 60.3435 148.868C60.9973 148.868 62.3609 148.861 62.9417 147.689C63.1898 147.212 63.1981 146.661 63.2056 146.128V138.231L63.9168 136.739L60.0765 136.742L60.0961 146.746H57.6744L57.6683 136.742L53.8031 136.736ZM87.8595 136.741V140.652L90.1093 138.896L91.8327 138.893V147.429L91.1094 148.871L95.7334 148.899L95.0116 147.312L95.001 138.885L96.6821 138.891L98.9342 140.64V136.749L87.8595 136.741ZM80.35 136.742C80.35 136.742 74.7426 136.763 74.7426 136.747C73.9122 136.765 72.8865 136.791 72.2794 137.643C71.9317 138.116 71.9015 138.665 71.8713 139.26C71.8713 139.26 71.8751 141.281 71.8789 141.328C71.8789 141.328 71.9905 142.254 71.9905 142.259C72.345 143.574 73.3609 143.701 74.7245 143.723C75.6876 143.726 77.6123 143.717 77.6123 143.717L77.5987 146.766L73.8338 146.772L72.0425 145.756L72.0365 148.871C72.0365 148.871 77.6907 148.895 77.7299 148.879C78.5761 148.878 79.6267 148.879 80.2474 148.15C80.485 147.87 80.7301 147.278 80.7392 146.689L80.7611 144.797C80.7513 144.084 80.7452 143.653 80.6215 143.205C80.2723 141.872 79.1524 141.768 77.6236 141.751C76.7495 141.754 75.0035 141.754 75.0035 141.754L75.0005 138.886L78.4426 138.879L80.35 139.827V136.742ZM167.264 136.742C167.264 136.742 161.668 136.772 161.668 136.756C160.833 136.777 159.798 136.791 159.195 137.642C158.845 138.116 158.813 138.665 158.784 139.26C158.784 139.26 158.788 141.281 158.793 141.328C158.793 141.328 158.905 142.254 158.905 142.259C159.259 143.574 160.274 143.701 161.639 143.723C162.601 143.726 164.526 143.717 164.526 143.717L164.513 146.766L160.747 146.772L158.955 145.756L158.949 148.871C158.949 148.871 164.607 148.895 164.644 148.879C165.491 148.878 166.539 148.879 167.161 148.15C167.4 147.87 167.644 147.278 167.65 146.689L167.674 144.797C167.663 144.084 167.658 143.653 167.534 143.205C167.184 141.872 166.068 141.768 164.539 141.751C163.664 141.754 161.916 141.754 161.916 141.754L161.913 138.886L165.355 138.878L167.264 139.827V136.742ZM130.899 136.745L130.904 143.844L126.769 136.748L123.053 136.751L123.749 138.286L123.737 147.397L123.039 148.894L126.495 148.891L126.507 141.334L130.621 148.889L133.706 148.891L133.712 138.242L134.356 136.745H130.899ZM144.697 136.745C143.762 136.789 143.079 136.912 142.607 137.66C142.074 138.502 142.186 140.601 142.186 140.601C142.205 142.153 142.145 143.706 142.165 145.258C142.165 145.258 142.281 146.894 142.39 147.299C142.787 148.825 144.149 148.868 144.958 148.883C146.896 148.909 150.769 148.891 150.769 148.891L150.706 142.493L146.986 142.491L147.879 144.035V146.763L145.362 146.759L145.387 138.866L149.202 138.872L150.631 139.734L150.637 136.753C150.637 136.753 146.681 136.771 144.697 136.745ZM110.153 138.569L111.297 144.143L109.025 144.151L110.153 138.569Z" fill="#003831"/>
<path d="M100.288 63.5742L100.747 68.0587L100.07 69.5392L102.085 68.1937L100.288 63.5742ZM97.6467 63.8585C97.3978 64.483 97.8028 67.2072 97.8028 67.2072C97.8028 67.2072 96.7077 67.1438 96.9898 68.742C97.3186 70.6048 100.841 73.9422 100.841 73.9422L99.3067 69.8024C99.3067 69.8024 99.6823 69.7443 99.6823 67.9599C99.6823 66.1754 97.6467 63.8585 97.6467 63.8585ZM104.804 64.3774L105.535 69.2812L106.518 68.073L104.804 64.3774ZM64.6484 72.8139C64.2381 72.8094 63.7577 72.8297 63.1724 72.8848C60.8367 73.0975 60.2846 73.7544 59.1231 74.6157C59.1231 74.6157 62.925 73.4791 63.5246 73.5726C63.5246 73.5726 62.836 73.918 62.0615 74.495C61.2907 75.0682 59.2921 76.2779 56 75.8586C56 75.8586 56.893 76.5479 56.9518 76.5645C58.3916 77.0977 59.7883 77.1226 60.9317 76.6392C62.0788 76.1512 65.5941 74.6262 68.1539 76.517C68.1539 76.517 70.1615 75.0191 70.7672 74.9588C70.7672 74.9588 68.5551 73.6797 67.3688 73.3282C66.4735 73.0741 65.8785 72.8282 64.6484 72.8139ZM74.6603 79.2434C74.6573 79.2487 74.6505 79.2434 74.6467 79.2555C74.6535 79.2434 74.6566 79.2487 74.6633 79.2434H74.6603ZM100.274 79.7751C100.274 79.7751 99.766 80.435 99.5684 80.6666C99.3655 80.8981 99.4508 81.2435 99.6303 81.5935C99.8082 81.9329 101.904 84.0808 101.904 84.0808L101.247 82.132C101.247 82.132 102.007 81.2888 101.918 80.9939C101.836 80.6982 101.569 80.0647 101.326 79.9591C101.087 79.8528 100.274 79.7751 100.274 79.7751ZM105.944 80.4667C105.854 80.4788 105.766 80.518 105.683 80.5957C105.333 80.9177 105.025 81.3265 104.962 81.8258C104.899 82.3296 105.225 82.7263 105.225 82.7263L105.576 82.7323C105.604 82.7233 105.617 82.7172 105.636 82.7127C105.665 82.6893 105.708 82.6607 105.761 82.6169C106.015 82.4186 106.478 82.0204 106.521 81.7157C106.579 81.2956 106.963 81.19 106.721 80.883C106.59 80.7269 106.41 80.5723 106.213 80.5006C106.125 80.4705 106.033 80.4546 105.944 80.4667Z" fill="black"/>
<path d="M95.385 61.8414C95.2145 62.008 94.9664 62.309 94.6602 62.7034C91.8221 67.2203 88.9268 75.389 88.9268 75.389C88.9268 75.389 83.4249 78.8575 82.7092 79.3734C82.0726 79.8274 79.2044 83.5924 78.5287 84.4823C78.4367 84.6022 78.3907 84.6724 78.3907 84.6724L78.2021 84.965C78.4442 82.9739 78.7579 81.6315 79.0521 80.7287H79.0506C77.2405 80.9135 74.5774 82.3366 73.2259 83.081C73.1362 83.1316 73.0525 83.1874 72.9537 83.2522C72.9129 83.2824 72.8677 83.3141 72.8224 83.351C72.7644 83.3925 72.7048 83.4355 72.6452 83.4823C72.5901 83.5252 72.5366 83.5758 72.4778 83.6188C72.4235 83.664 72.3692 83.7025 72.3126 83.756C72.2462 83.8126 72.1829 83.8692 72.115 83.9295C72.0652 83.9763 72.0087 84.0215 71.9528 84.0713C71.8797 84.1346 71.8088 84.204 71.7349 84.2787C71.6836 84.3239 71.6331 84.3722 71.5833 84.419C71.5041 84.4951 71.4219 84.5758 71.3404 84.6558C71.2929 84.6995 71.2529 84.7448 71.2062 84.7885C71.1149 84.8738 71.0274 84.959 70.9384 85.0525C70.8977 85.0917 70.863 85.1317 70.8231 85.1717C70.7295 85.2652 70.6345 85.3647 70.5402 85.462C70.5063 85.4952 70.4769 85.5276 70.4475 85.5578C70.3426 85.6642 70.2453 85.7682 70.1428 85.8783C70.1247 85.8987 70.102 85.9228 70.0779 85.9447C69.9708 86.0548 69.8615 86.1793 69.7521 86.2924C69.7461 86.2992 69.7438 86.3082 69.7363 86.3143C69.016 87.0843 68.3893 87.8038 68.0393 88.2118C68.031 88.2194 68.0227 88.2277 68.0174 88.2337C67.9677 88.288 67.9254 88.3378 67.8907 88.383C67.8741 88.4313 67.8523 88.4765 67.8312 88.518C67.0392 90.3945 66.4789 92.5251 66.4201 94.0757C66.3348 96.4303 68.2776 100.965 68.522 101.557C68.7671 102.143 69.5681 102.884 69.8728 103.112C70.1722 103.349 72.9883 104.499 72.9883 104.499C72.9883 104.499 70.1435 99.5142 70.1443 95.8571C70.1397 92.2 71.3978 88.2382 71.3978 88.2382C70.7295 92.0069 71.2635 95.5622 71.4566 96.5299C71.6866 97.6694 72.7591 99.5263 73.5367 100.222C74.3105 100.916 77.7066 102.858 77.7066 102.858L77.7247 101.747L79.1682 97.6068C79.1682 97.6068 78.6373 96.2938 78.773 95.0109C78.9095 93.7212 80.3538 90.7022 80.3538 90.7022C79.3666 93.3381 80.6012 98.5994 80.6012 98.5994C79.2693 100.957 79.402 103.41 79.522 103.95C79.6313 104.488 80.2045 106.288 80.5952 106.523C80.9904 106.76 81.6692 106.722 81.6692 106.722C84.2131 106.119 86.6084 103.95 86.7215 103.843C86.6785 103.88 86.5156 103.918 86.5616 102.639C86.5993 101.559 87.2668 100.612 87.616 100.198C87.4946 100.112 87.2909 99.9464 86.9251 99.613C86.4643 99.1899 85.5404 99.0459 84.6082 99.0119C83.4189 98.9825 82.2333 99.1371 82.0349 99.1635C81.8992 99.3015 81.8177 99.4011 81.8177 99.4011C82.1737 97.0503 84.4182 96.5532 84.4182 96.5532L86.8248 96.508C87.5632 97.0691 89.7737 97.5525 89.7737 97.5525C89.7737 97.5525 89.9645 95.9484 89.3981 94.3706C88.831 92.7928 87.6115 91.9459 87.6115 91.9459C87.6115 91.9459 89.0278 92.3094 89.6387 92.734C90.2413 93.1541 91.4654 95.2055 91.4654 95.2055C91.4654 95.2055 91.7761 92.7174 91.5076 91.4624C91.2414 90.1999 89.7639 86.7193 89.7639 86.7193L88.429 85.3383C89.2337 85.097 91.4827 84.6007 92.1442 84.7606C92.8079 84.9145 96.2787 87.4863 96.2787 87.4863C96.2787 87.4863 95.7032 83.6844 95.6052 82.6119C95.5124 81.5372 93.9904 75.4727 93.8381 74.8384C93.6858 74.2079 94.1255 73.1136 94.1255 73.1136L96.8209 63.9011C96.8209 63.9011 95.9506 68.2724 95.5878 69.4685C95.2379 70.6602 95.339 71.6414 95.339 71.6414L96.1195 75.7676C96.1195 75.7676 96.1399 76.5256 96.4891 76.6689C96.8436 76.8204 98.0722 77.3499 98.3203 77.8929C98.4847 78.2693 98.5586 79.0589 98.6371 79.9571C98.6755 80.3772 98.6815 80.378 98.68 80.3765C98.6921 80.3267 98.7072 80.2747 98.7193 80.2279C98.7464 80.151 98.7788 80.0763 98.8052 80.0009C98.8264 79.9443 98.8452 79.8893 98.8709 79.8372C98.9154 79.7294 98.9734 79.6313 99.027 79.5197C99.0639 79.4677 99.0903 79.4051 99.1303 79.3485C99.1982 79.2414 99.2774 79.1419 99.3618 79.0423C99.4033 78.9925 99.435 78.9465 99.4825 78.896C99.6168 78.758 99.7699 78.629 99.9478 78.5219C101.174 77.736 101.727 78.629 102.134 79.2082L102.25 79.749L103.461 80.9527L102.44 82.3216C102.44 82.3216 103.023 83.6942 103.156 83.9883C103.288 84.2772 104.463 83.8413 104.463 83.8413C104.463 83.8413 104.682 83.3171 104.728 83.1738C104.772 83.0637 105.307 82.8374 105.567 82.7303L105.217 82.725C105.217 82.725 104.892 82.3276 104.955 81.8245C105.017 81.3253 105.325 80.9165 105.675 80.5944C105.84 80.4376 106.029 80.4391 106.205 80.4987C106.111 80.4346 106.012 80.3704 105.949 80.3207C105.759 80.1653 104.594 81.5681 104.594 81.5681C104.594 81.5681 104.352 80.3139 104.122 80.0024C103.89 79.709 102.931 79.4352 102.652 79.2746C102.652 79.2746 102.326 78.4118 101.969 77.5822C101.696 76.4811 101.314 75.1031 100.863 73.9967C100.813 73.9568 97.4507 70.6753 97.0344 68.9293C96.6135 67.1773 97.5329 67.2618 97.827 67.2241C97.827 67.2241 97.3798 64.7405 97.6589 63.7857C97.6589 63.7857 97.8225 64.5972 98.0314 65.4992C97.9055 64.8453 97.7411 63.9214 97.7411 63.9214C97.7411 63.9214 98.7547 65.2669 99.3234 66.5581C99.3234 66.4163 99.3249 66.273 99.3173 66.138C99.3173 66.0664 99.3196 66.0068 99.3158 65.9464C99.309 65.7737 99.2992 65.6055 99.2849 65.4374C99.1997 64.5602 98.895 63.708 97.8972 62.852C97.8881 62.8422 97.8768 62.8316 97.8723 62.8271C97.8414 62.8082 97.8127 62.7841 97.7916 62.7622C97.5525 62.5699 97.284 62.3716 96.971 62.18C95.7213 62.45 95.3782 61.8398 95.3782 61.8398L95.385 61.8414ZM131.304 81.1963C132.408 82.4475 132.683 84.9001 132.683 86.3014L132.56 94.8586C132.56 96.4318 132.595 98.3437 132.126 99.6537C131.627 101.05 130.889 101.006 127.911 100.802C124.934 100.6 120.188 100.104 120.188 100.104C120.188 100.104 120.104 111.407 120.104 112.775C119.276 112.725 116.897 112.575 115.055 112.456C114.821 112.759 114.581 113.076 114.366 113.356C116.116 113.462 119.937 113.698 121.006 113.762C121.005 112.393 120.993 101.127 120.993 101.127L127.855 101.726C127.854 101.726 127.946 101.734 127.946 101.734C130.342 101.968 131.979 101.986 132.824 100.224C133.426 98.9697 133.427 97.0065 133.427 95.4317V86.8716C133.427 85.0887 133.427 82.8691 131.755 81.4814C131.618 81.3765 131.463 81.283 131.304 81.1963H131.304ZM56.2452 82.0991C56.0212 82.1345 55.7029 82.1896 55.3273 82.2491V111.102L56.2437 110.953C56.2437 106.032 56.2452 83.5418 56.2452 82.0991ZM120.098 82.6662L120.084 96.778L120.997 96.8519V83.6067L127.161 84.1173C127.393 84.1361 127.608 84.2108 127.801 84.3194C127.585 83.7229 127.068 83.2251 126.452 83.1761L120.098 82.6662ZM154.528 84.8949C154.61 85.0412 154.689 85.1981 154.762 85.3632C155.48 87.0044 155.479 89.1003 155.479 91.7565V108.942C155.479 110.837 155.533 113.135 155.218 114.543C154.62 117.216 153.701 117.047 150.925 116.554L149.86 116.401L144.488 115.492C143.076 115.263 141.186 114.948 139.944 113.778C140.109 114.09 140.309 114.387 140.556 114.665C141.787 116.021 143.833 116.349 145.327 116.591L150.701 117.501L150.798 117.517C153.573 118.012 155.306 118.168 155.992 115.297C156.319 113.894 156.319 111.936 156.319 110.04V92.8569C156.319 90.2006 156.319 88.101 155.605 86.4636C155.318 85.809 154.967 85.2976 154.528 84.8949ZM39.1197 85.2546C38.9522 85.2931 38.6551 85.3632 38.2644 85.4567C39.1808 90.8545 43.4782 116.228 43.6803 117.423C42.9223 117.579 41.2035 117.935 40.0571 118.17C40.1182 118.582 40.1657 118.905 40.1951 119.098C41.1929 118.895 43.7753 118.368 44.7 118.178C44.4782 116.871 39.3625 86.6891 39.1197 85.2546ZM145.033 85.6921C144.019 85.7886 143.23 86.6521 143.23 87.9049L143.24 110.052C143.24 110.687 143.633 111.265 144.191 111.543C144.121 111.363 144.08 111.168 144.08 110.97V87.8724C144.08 87.4523 144.258 87.0587 144.57 86.7985C144.883 86.5352 145.304 86.4236 145.727 86.5006L150.097 87.2404C150.257 87.2653 150.404 87.3204 150.545 87.389C150.332 86.849 149.842 86.4221 149.257 86.3226L145.479 85.6981C145.327 85.6792 145.178 85.6777 145.033 85.6921ZM167.282 86.8709C167.282 88.5686 167.282 91.0431 167.277 115.804L168.136 116.065C168.136 111.508 168.139 88.0738 168.139 87.0677C167.969 87.0277 167.664 86.9553 167.282 86.8709ZM35.0244 89.0037L32.258 89.6471L29.6553 108.119L30.6199 107.896L33.0522 90.4405L35.1601 89.9503L35.0244 89.0037ZM181.242 90.6109C181.999 93.5161 185.866 108.33 185.866 108.33C185.866 108.33 186.047 107.782 186.334 106.898C185.175 102.459 182.309 91.4828 182.149 90.8711C182.008 90.8296 181.681 90.7376 181.242 90.6109ZM17.5874 91.3983C17.659 91.4896 17.7269 91.5891 17.7895 91.703C18.466 92.9354 18.4652 95.0177 18.4652 97.6566V98.9471C17.8792 99.1243 15.9734 99.693 14.6181 100.098V100.986C15.8331 100.624 18.601 99.797 19.3303 99.5806V98.2902C19.3303 95.6512 19.3296 93.5727 18.6538 92.3365C18.383 91.8448 18.0376 91.5461 17.5874 91.3983ZM195.609 95.2621C188.598 111.59 188.282 111.986 188.282 111.986C188.282 111.986 188.403 124.241 188.403 125.978C187.454 125.683 185.226 124.988 183.559 124.467C183.321 124.722 183.082 124.981 182.873 125.207C184.318 125.654 187.868 126.764 189.131 127.161V112.553L189.153 112.469C189.174 112.383 189.19 112.343 196.402 95.5396C196.201 95.471 195.926 95.3752 195.609 95.2621ZM12.3532 95.4951C12.2439 95.5034 12.1338 95.5245 12.0237 95.5585C12.0237 95.5585 7.80921 96.8413 7.8077 96.8413C7.06331 97.0714 6.50068 98.2215 6.50068 98.9818V121.702C6.50068 122.139 6.68998 122.529 7.01806 122.768C7.16814 122.881 7.34311 122.949 7.52789 122.985C7.42532 122.792 7.36574 122.573 7.36574 122.338V99.2027C7.36574 98.4478 7.92611 97.7026 8.66899 97.4756C8.67276 97.4741 12.8895 96.1897 12.8895 96.1897C13.1301 96.1181 13.3714 96.1105 13.5939 96.1535C13.5087 95.9921 13.3933 95.8511 13.2462 95.7395C12.9936 95.5532 12.6806 95.4695 12.3532 95.4951ZM101.251 97.2727C101.125 97.2592 101.006 97.312 100.892 97.4334C100.675 97.68 100.21 97.9907 99.7299 98.257C99.254 98.53 98.8075 101.336 98.8075 101.336C99.5564 102.511 102.607 104.453 103.163 105.015C103.718 105.573 104.231 106.235 104.231 106.235C102.947 105.942 100.09 104.685 100.09 104.685C101.486 105.779 103.747 108.065 104.379 108.624C105.002 109.187 106.125 109.942 106.125 109.942L106.94 110.116C106.94 110.116 107.855 111.771 108.47 111.721C109.077 111.666 109.364 111.664 109.565 111.17C109.762 110.67 109.302 109.254 109.043 108.451C108.791 107.654 107.44 106.205 106.785 105.423C106.129 104.648 104.791 101.98 104.629 101.43C104.472 100.882 104.057 100.403 103.923 100.148C103.787 99.8921 101.924 97.8158 101.648 97.5171C101.509 97.3678 101.377 97.2871 101.251 97.2727ZM88.4313 104.002L87.4078 111.318L87.4063 111.32C87.4063 111.32 86.4289 112.531 86.0111 113.094C85.5864 113.658 85.3081 115.211 85.3081 115.211C84.7184 114.298 85.3979 112.675 85.3979 112.675C85.3979 112.675 84.0094 111.682 83.8767 111.682C83.7439 111.678 81.4874 112.485 81.4874 112.485C81.4874 112.485 80.3305 116.054 80.5816 116.732C80.8199 117.407 82.2914 119.776 82.2914 119.776L87.0315 119.285C87.0315 119.285 88.113 117.757 88.6168 117.379C88.9298 117.13 89.242 116.697 89.4962 116.256C89.506 116.238 89.512 116.22 89.5226 116.206C89.549 116.124 89.5799 116.035 89.601 115.948C89.6252 115.875 89.6448 115.792 89.6659 115.71C89.6764 115.666 89.6915 115.618 89.7013 115.567C89.7164 115.491 89.7308 115.415 89.7481 115.331C89.7564 115.278 89.7662 115.221 89.776 115.168C89.7896 115.094 89.8047 115.014 89.8099 114.938C89.8175 114.87 89.8311 114.808 89.8363 114.745C89.8461 114.671 89.8529 114.606 89.8605 114.531C89.8703 114.461 89.8703 114.388 89.8808 114.315C89.8839 114.256 89.8914 114.186 89.8937 114.125C89.9004 114.043 89.9057 113.96 89.9102 113.879C89.9155 113.822 89.9163 113.769 89.9163 113.715C89.9253 113.628 89.9291 113.538 89.9284 113.449C89.9321 113.403 89.9329 113.354 89.9329 113.313C89.9374 113.218 89.9366 113.121 89.9389 113.029C89.9374 112.994 89.9359 112.962 89.9389 112.925C89.9389 112.823 89.9397 112.724 89.9389 112.624C89.9329 112.602 89.9359 112.581 89.9359 112.559C89.9344 112.449 89.9329 112.342 89.9284 112.242C89.9299 112.232 89.9276 112.223 89.9284 112.213C89.9238 112.109 89.9178 112.013 89.9178 111.922C89.9155 111.916 89.9148 111.906 89.9118 111.896C89.9065 111.706 89.8997 111.542 89.8869 111.414C89.8914 111.406 89.8869 111.407 89.8869 111.407C89.8748 111.206 89.8627 111.087 89.8627 111.087L90.0769 105.134C90.0807 105.133 90.0845 105.133 90.0845 105.133C89.7277 104.834 89.454 104.499 89.3355 104.343C89.2888 104.292 89.2722 104.257 89.2722 104.257C89.2722 104.257 89.2586 104.245 89.2549 104.242L88.4313 104.002ZM76.2171 105.924C76.1695 107.181 74.7366 108.23 74.7366 108.23L75.358 108.57C76.6123 108.506 77.9238 106.666 77.9238 106.666C77.3076 106.745 76.2171 105.924 76.2171 105.924ZM86.8173 107.513C85.7592 110.089 83.0463 110.598 83.0358 110.626C83.0116 110.656 84.1572 110.403 84.5298 110.46C84.8217 110.507 85.5978 111.006 85.5978 111.006L86.1453 110.003L86.8173 107.513ZM72.9325 109.111C72.9325 109.111 76.3845 112.572 76.7623 112.943C77.141 113.314 77.6176 113.655 77.5324 114.045C77.4449 114.434 76.9456 116.381 77.4298 116.868C77.9087 117.35 76.8672 119.67 76.067 120.96L78.132 121.765C78.132 121.765 79.1139 119.207 79.215 118.314C79.3183 117.429 78.9638 116.661 78.7964 116.331C78.6312 116.008 78.4925 115.26 78.6599 114.658C78.8273 114.055 78.8786 112.799 78.2519 112.385C77.6169 111.972 72.9325 109.111 72.9325 109.111ZM38.0766 109.384L29.2223 111.436C29.2223 111.436 28.0194 120.102 27.8995 120.97C27.4334 121.092 25.8073 121.525 24.2643 121.935C24.0584 122.306 23.8283 122.722 23.6134 123.112C25.4106 122.633 28.0752 121.929 28.6937 121.762C28.8143 120.898 30.018 112.23 30.018 112.23L38.2139 110.329C38.1973 110.223 38.1905 110.166 38.1905 110.166L38.0766 109.384ZM63.3897 109.59C63.1061 109.753 62.7848 109.942 62.4658 110.128C62.4583 111.765 62.4477 113.815 62.4454 114.472C61.5774 114.607 54.1779 115.731 50.4831 116.297C50.2705 116.638 50.0465 117.001 49.8421 117.33C52.2698 116.96 62.3414 115.425 63.3618 115.268C63.3678 114.408 63.3829 111.182 63.3897 109.59ZM19.3409 113.742C19.104 113.812 18.8046 113.904 18.4766 113.999V114.844C18.4766 116.745 18.4766 118.708 18.1477 120.29C17.3686 123.984 15.8391 124.447 12.7258 125.438L12.63 125.469L7.47284 127.132L7.38535 127.162C6.21635 127.548 4.52016 128.11 3.41602 127.779C3.54498 127.95 3.69281 128.107 3.86929 128.227C4.91687 128.9 6.92454 128.234 8.25192 127.794L8.33715 127.766L13.4928 126.101L13.5901 126.073C15.9779 125.321 18.2322 124.617 19.0113 120.922C19.3401 119.343 19.3409 117.377 19.3409 115.475V113.742ZM175.174 117.116C174.95 117.177 174.682 117.251 174.4 117.328C174.39 118.781 174.373 120.88 174.367 121.869C173.128 121.566 165.696 119.751 162.305 118.923C162.121 119.155 161.913 119.408 161.664 119.715C163.479 120.16 173.667 122.647 175.134 123.002C175.142 121.772 175.166 118.396 175.174 117.116Z" fill="#F7EEC5"/>
<path d="M97.663 63.8594C97.8161 64.4861 98.237 66.2087 98.332 66.6114C98.4459 67.1062 98.4617 67.2714 98.4617 67.2714H98.4632C98.4632 67.2714 99.0628 67.4991 99.1231 68.5422C99.1729 69.3816 98.6457 69.6456 98.6457 69.6456L100.854 73.9385L100.857 73.943L99.323 69.8032C99.323 69.8032 99.6978 69.7436 99.6978 67.9592C99.6978 66.1748 97.663 63.8594 97.663 63.8594ZM95.2534 64.4431C95.2534 64.4431 92.7487 67.9396 91.7132 70.27C90.6761 72.6035 89.296 75.8413 89.296 75.8413C89.296 75.8413 85.2369 78.1703 83.8137 79.5964C82.389 81.0196 80.1016 84.6458 80.1016 84.6458C80.1016 84.6458 83.8115 80.8069 85.712 80.1591C87.6103 79.512 90.462 78.346 91.152 77.4379C91.8421 76.5321 92.576 71.8275 93.3106 69.7941C94.0451 67.7669 95.2534 64.4431 95.2534 64.4431ZM106.661 69.1184C106.661 69.1184 106.427 69.4186 106.359 69.5415C106.359 69.5415 104.76 71.3727 104.51 72.2619C104.255 73.1586 104.424 75.4054 104.791 76.64C104.858 76.8662 104.925 77.444 104.925 77.444L105.044 78.0586C105.044 78.0586 104.458 78.3875 104.12 78.8287C103.784 79.2669 104.053 79.8234 104.053 79.8234C104.053 79.8234 104.541 79.2563 105.065 79.0496C105.4 78.9109 105.59 78.9305 105.59 78.9305C105.59 78.9305 105.935 76.7818 106.016 75.5456C106.095 74.3088 105.859 72.6035 105.859 72.6035C105.859 72.6035 106.025 72.1095 106.304 71.2294C106.581 70.3613 106.661 69.1184 106.661 69.1184Z" fill="#B38F4F"/>
<path d="M97.3984 68.8847C97.3984 68.8847 97.7765 69.1157 98.0565 68.9658C98.3384 68.8178 98.5505 68.4548 98.5505 68.4548C98.5505 68.4548 98.5194 69.2476 98.1225 69.4946C97.7284 69.7407 97.3984 68.8847 97.3984 68.8847Z" fill="#FFFDEE"/>
</g>
<defs>
<clipPath id="clip0_154_2354">
<rect width="200" height="200" fill="white"/>
</clipPath>
</defs>
</svg>
