<svg width="200" height="200" viewBox="0 0 200 200" fill="none" xmlns="http://www.w3.org/2000/svg">
<path d="M160.074 49.0485C138.066 69.7999 134.923 65.7088 134.923 65.7088C137.438 81.7474 133.664 94.3244 133.664 94.3244C129.26 99.9856 128.319 67.2816 128.319 67.2816C112.596 76.402 101.276 96.8427 101.276 96.8427C108.819 110.676 109.14 121.681 109.14 121.681C102.221 123.25 95.932 103.128 95.932 103.128L77.6921 120.109C91.2124 123.252 105.994 140.234 105.994 140.234C112.6 139.29 126.747 128.599 126.747 128.599C124.228 125.769 122.029 106.274 122.029 106.274C134.292 115.078 137.123 123.567 137.123 123.567C140.894 122.623 145.613 116.969 145.613 116.969C148.76 111.937 154.736 108.16 154.736 108.16C152.534 101.87 160.074 49.0485 160.074 49.0485ZM11.9749 51.8692C38.7029 75.7776 51.5925 113.823 51.5925 113.823L82.0946 114.137C82.7232 112.251 79.5819 101.248 79.5819 101.248C79.5819 101.248 62.9115 103.131 60.7102 97.157C58.512 91.1795 78.0034 94.6383 78.0034 94.6383L70.4594 78.9235C70.4594 78.9235 47.8237 80.8045 49.0806 73.886C50.3377 66.9677 68.8865 74.5187 68.8865 74.5187L55.0515 56.9118L11.9746 51.8745L11.9749 51.8692ZM119.514 136.457C116.684 140.232 109.132 142.434 109.132 142.434C125.799 158.782 121.714 159.095 121.714 159.095C114.795 164.123 101.901 145.26 101.901 145.26C101.272 147.149 85.5531 149.032 85.5531 149.032C99.3859 157.207 105.045 175.129 105.045 175.129C134.917 166.641 155.673 149.971 155.673 149.971C125.485 142.741 119.513 136.456 119.513 136.456L119.514 136.457Z" fill="#A10022"/>
<path d="M159.134 95.8965C159.134 95.8965 160.391 99.9842 170.453 99.0394C170.453 99.0394 170.453 105.017 158.818 101.87L159.134 95.8965ZM160.075 85.205C160.075 85.205 166.993 89.9214 180.83 87.7194C180.83 87.7194 170.14 95.2664 172.338 96.2111C172.338 96.2111 159.762 96.5235 159.762 92.4358L160.075 85.205ZM161.334 77.3438C161.334 77.3438 179.887 78.601 189.004 68.2273C189.004 68.2273 189.949 75.7743 176.428 83.317C176.428 83.317 166.051 86.1476 161.021 82.6884L161.334 77.3438ZM162.278 68.5397C162.278 68.5397 183.973 65.709 190.264 52.1885C190.264 52.1885 184.915 63.1946 186.804 65.3963C186.804 65.3963 184.915 73.5718 162.278 74.829L162.278 68.5397ZM163.535 55.9615C163.535 55.9615 185.859 45.9001 186.804 24.2036C186.804 24.2036 193.094 28.2914 185.547 37.0955C185.547 37.0955 192.778 47.473 184.286 54.075C184.286 54.075 177.056 64.4526 163.535 65.394L163.535 55.9615ZM164.478 43.3856C164.478 43.3856 179.888 30.4938 164.478 14.7712C164.478 14.7712 182.086 12.8853 177.369 26.4061C177.369 26.4061 184.916 32.3796 175.484 42.4413C175.484 42.4413 173.598 49.672 164.477 50.6168L164.478 43.3856ZM14.1785 48.7306C14.1785 48.7306 -0.915738 26.0892 24.556 13.1974C24.556 13.1974 21.0968 19.8034 18.5824 20.7444C18.5824 20.7444 14.4946 43.0687 20.4682 49.0464L14.1785 48.7306ZM23.2962 50.6175C23.2962 50.6175 15.1206 19.8006 36.8164 9.11124C36.8164 9.11124 28.0123 23.8884 32.7286 28.9217C32.7286 28.9217 26.4427 44.0159 30.5305 50.9334L23.2962 50.6175ZM33.9876 51.5604C33.9876 51.5604 30.2161 28.9191 47.1953 22.0049C47.1953 22.0049 40.5931 31.7501 41.8504 35.5252L44.0485 36.4662C44.0485 36.4662 39.3322 47.7851 40.5931 51.8729L33.9876 51.5604ZM43.4211 52.5033C43.4211 52.5033 42.4801 39.9274 54.4272 33.3213C54.4272 33.3213 45.3068 45.5846 49.3946 52.8192L43.4211 52.5033ZM50.6534 53.4466L56.3146 54.7037C56.3146 54.7037 55.0535 40.8709 59.1452 40.2424C59.1452 40.2424 53.7965 40.5546 50.6534 53.4466ZM48.138 177.965C48.138 177.965 54.7402 178.909 54.7402 171.046C54.7402 171.046 50.0238 167.591 49.3952 167.903C49.3952 167.903 31.7872 154.067 26.1255 169.793C26.1255 169.793 24.8683 176.395 30.2132 177.336C30.2132 177.336 26.1255 168.219 35.5582 169.793C35.5582 169.793 39.3335 162.242 46.5643 170.734C46.5643 170.734 55.9973 175.138 48.138 177.965ZM61.9705 143.378C61.9705 143.378 50.3356 160.358 61.9705 162.873L55.0521 167.589C55.0521 167.589 50.0234 161.303 44.9909 161.303C44.9909 161.303 51.593 155.013 56.9383 142.75L61.9705 143.378ZM65.1142 144.321C65.1142 144.321 62.2836 146.523 62.5998 149.354C62.5998 149.354 53.7957 156.897 65.4305 161.614C65.4305 161.614 60.0855 152.497 67.6324 151.552C67.6324 151.552 76.749 153.754 76.749 158.471C76.749 158.471 75.4918 159.732 73.9183 160.989C73.9183 160.989 79.5795 163.816 82.41 155.011C82.41 155.011 75.1793 151.868 75.804 145.895C75.804 145.895 68.8897 143.692 65.1142 144.321ZM64.1724 141.806C64.1724 141.806 74.5499 139.604 82.7259 145.894C82.7259 145.894 81.4648 129.23 72.6607 130.799C72.6607 130.799 71.0907 130.171 64.1724 141.806ZM25.8111 130.485C25.8111 130.485 25.1825 139.918 33.358 144.322L32.4132 137.091C32.4132 137.091 48.7644 129.228 56.9399 139.918L62.9135 140.234C62.9135 140.234 68.2585 128.283 73.9196 127.655C73.9196 127.655 81.1504 126.085 85.5545 144.95C85.5545 144.95 93.4138 147.152 101.277 142.119C101.277 142.119 63.5462 96.8413 25.8117 130.485M37.4466 128.283L31.7855 130.485C31.7855 130.485 33.6751 123.882 41.8467 124.195L37.4466 128.283Z" fill="black"/>
</svg>
