<svg width="200" height="200" viewBox="0 0 200 200" fill="none" xmlns="http://www.w3.org/2000/svg">
<path d="M181.358 75.1827C181.911 75.1166 186.6 74.4885 189.821 72.368C189.85 72.3491 189.854 72.3113 189.826 72.2877C188.74 71.447 170.878 57.4961 165.872 45.8593C165.868 45.8451 165.868 45.8262 165.872 45.8121C166.321 45.132 177.665 27.8515 178.812 12.5499C178.812 12.5168 178.784 12.4885 178.751 12.4979C177.594 12.8569 161.083 17.8346 135.878 18.1841C134.915 18.1983 133.956 18.033 133.049 17.7165C130.164 16.7059 123.448 14.4012 120.496 13.8156C116.751 13.0647 100.571 19.4923 100.009 19.7143C100.009 19.7143 100.009 19.7143 100.004 19.7143H99.9949H99.9855C99.9855 19.7143 99.9854 19.7143 99.9807 19.7143C99.4187 19.4923 83.2387 13.0647 79.4935 13.8156C76.5418 14.4059 69.8261 16.7059 66.9405 17.7165C66.029 18.033 65.075 18.1983 64.1116 18.1841C38.9064 17.8393 22.3958 12.8616 21.2387 12.5027C21.2056 12.4932 21.1773 12.5215 21.1773 12.5546C22.3296 27.8562 33.6689 45.1367 34.1176 45.8168C34.127 45.8309 34.127 45.8451 34.1176 45.864C29.1209 57.5008 11.2548 71.4517 10.1733 72.2924C10.145 72.3113 10.1497 72.3538 10.1781 72.3727C13.4037 74.4932 18.0933 75.1213 18.6412 75.1874C18.6695 75.1874 18.6837 75.2205 18.679 75.2488C10.4095 101.068 23.3592 122.051 24.1809 123.35C24.1998 123.378 24.2423 123.378 24.2612 123.35C26.5706 119.647 29.6735 116.776 30.0844 116.403C30.108 116.379 30.141 116.389 30.1552 116.417C30.4622 117.078 33.5792 123.543 40.8049 129.319C47.9977 135.076 51.9695 140.659 52.3945 141.273C52.4134 141.301 52.4559 141.301 52.4748 141.273C54.0144 139.171 54.4584 135.851 54.5198 135.308C54.5198 135.27 54.567 135.256 54.5953 135.275C67.8426 143.436 60.1351 157.306 59.6911 158.071C59.677 158.09 59.6911 158.114 59.7053 158.133C63.7338 161.231 68.0881 162.289 68.4093 162.364C68.4235 162.364 68.4329 162.374 68.4376 162.388C79.9327 181.912 99.3101 187.319 99.9713 187.499C99.9713 187.499 99.9713 187.503 99.9807 187.499C99.9807 187.499 99.9855 187.499 99.9902 187.499V187.494C99.9902 187.494 99.9902 187.499 99.9996 187.494C99.9996 187.494 100.004 187.494 100.009 187.494C100.67 187.31 120.048 181.897 131.543 162.378C131.547 162.369 131.562 162.36 131.571 162.355C131.892 162.279 136.247 161.221 140.275 158.123C140.294 158.109 140.303 158.085 140.289 158.062C139.85 157.297 132.138 143.421 145.385 135.265C145.413 135.246 145.456 135.265 145.461 135.298C145.527 135.841 145.971 139.166 147.506 141.263C147.524 141.291 147.567 141.291 147.586 141.263C148.011 140.654 151.978 135.067 159.175 129.31C166.396 123.529 169.513 117.069 169.825 116.407C169.839 116.379 169.872 116.37 169.896 116.393C170.307 116.766 173.41 119.638 175.719 123.34C175.738 123.369 175.781 123.373 175.799 123.34C176.626 122.042 189.576 101.054 181.301 75.2394C181.292 75.211 181.306 75.1827 181.339 75.178L181.358 75.1827Z" fill="#231F20"/>
<path d="M130.58 58.6077C125.73 61.1768 120.96 63.9491 116.294 66.9102C116.208 66.9669 116.218 67.1133 116.308 67.1511C119.59 68.4782 122.768 68.2184 125.611 65.8476C127.581 64.2088 129.508 61.0304 130.736 58.7871C130.797 58.6785 130.684 58.551 130.58 58.6077ZM113.946 145.756C113.46 146.091 112.728 146.446 112.43 146.587C112.364 146.616 112.293 146.568 112.293 146.498C112.048 137.076 109.224 134.266 108.463 133.68C108.392 133.628 108.298 133.68 108.312 133.77C109.021 138.549 107.004 147.806 106.324 148.146C105.634 148.491 102.876 149.638 100.005 149.638C97.1334 149.638 94.3753 148.491 93.6858 148.146C93.0057 147.806 90.9891 138.554 91.6975 133.77C91.7117 133.685 91.6125 133.623 91.5464 133.68C90.786 134.266 87.9619 137.076 87.7163 146.498C87.7163 146.568 87.6454 146.616 87.5793 146.587C87.2818 146.446 86.5498 146.091 86.0633 145.756C85.9878 145.704 85.8933 145.761 85.9075 145.851C86.0208 146.479 86.4553 148.245 87.943 149.638C89.7801 151.362 92.4248 153.775 100.01 153.775C107.594 153.775 110.239 151.362 112.076 149.638C113.564 148.245 113.998 146.479 114.112 145.851C114.126 145.761 114.027 145.709 113.956 145.756H113.946ZM119.505 110.685C119.113 111.021 117.946 111.951 117.252 111.753C116.407 111.516 103.75 105.707 100.005 105.707C96.255 105.707 83.5981 111.516 82.7574 111.753C82.0632 111.946 80.8967 111.021 80.5047 110.685C80.448 110.633 80.3535 110.671 80.3441 110.747C80.1599 112.055 79.3051 120.357 85.6477 128.14C85.7044 128.211 85.8272 128.178 85.8272 128.084C85.8461 126.308 85.983 116.348 86.4175 114.841C86.8898 113.184 95.3388 109.623 100.005 109.623C104.676 109.623 113.12 113.179 113.592 114.841C114.022 116.352 114.159 126.313 114.182 128.084C114.182 128.178 114.305 128.211 114.362 128.14C120.705 120.357 119.85 112.055 119.666 110.747C119.656 110.671 119.566 110.633 119.505 110.685ZM83.7114 66.9102C79.0454 63.9444 74.2754 61.1768 69.4252 58.6077C69.3213 58.551 69.2079 58.6785 69.2693 58.7871C70.4972 61.0304 72.4241 64.2088 74.3935 65.8476C77.2365 68.2184 80.4102 68.4735 83.6972 67.1511C83.7917 67.1133 83.8011 66.9669 83.7114 66.9102Z" fill="white"/>
<path d="M117.252 104.606C118.14 104.942 126.074 99.7372 126.277 94.9578C126.277 94.92 126.239 94.8964 126.206 94.9106C125.455 95.279 119.207 98.2684 113.455 99.3924C113.351 99.4113 113.233 99.383 113.384 99.2508C114.938 97.9379 123.698 90.4807 125.365 87.7698C126.249 86.778 120.765 87.0614 115.953 89.8431C115.774 89.947 115.613 89.947 115.859 89.692C116.506 89.0166 117.781 87.732 119.259 86.49C117.171 86.7308 114.919 87.1889 112.562 87.8596H112.543C112.198 88.9694 111.721 90.1973 111.103 91.1324C111.084 91.1655 111.032 91.1607 111.018 91.1277C110.81 90.6979 109.705 88.6766 107.962 89.6022C106.016 90.6318 101.775 95.0334 102.007 99.9922C102.125 101.05 116.359 104.262 117.256 104.606H117.252ZM124.841 27.4653C120.78 25.9162 117.54 24.8347 116.827 25.0378C114.612 25.6707 106.55 29.3072 105.289 31.3616C105.039 31.7677 104.68 32.9342 104.269 34.5494C110.895 29.8361 117.573 27.4511 124.133 27.4511C124.369 27.4511 124.605 27.4511 124.841 27.4606V27.4653ZM107.216 66.4703C109.686 65.1338 128.293 54.8666 132.1 50.4225C135.746 46.172 134.688 41.9216 134.419 41.062C134.301 41.5013 133.635 43.5131 130.513 47.1638C124.666 53.9929 114.569 61.4973 107.221 66.4656L107.216 66.4703ZM117.592 73.6111L117.63 73.5638C121.989 75.0373 126.91 75.2829 131.099 74.225C135.179 73.1908 138.14 71.0655 139.231 68.383C138.735 68.3075 134.187 67.5849 132.421 66.3617H132.412C131.788 66.8292 131.392 67.1976 131.325 67.3676C131.014 68.1847 134.013 70.0076 134.617 70.3618C134.655 70.3855 134.641 70.4232 134.603 70.4468C133.47 71.1789 124.799 74.0408 115.292 71.3489C115.259 71.3394 115.23 71.3583 115.235 71.3914C115.249 71.755 115.41 73.7244 117.039 75.8213C116.931 75.0751 117.12 74.2959 117.587 73.6252C117.587 73.6205 117.597 73.6158 117.597 73.6111H117.592ZM175.2 69.0584C168.678 64.0051 154.694 45.7423 153.999 44.8355C153.98 44.8119 153.99 44.7883 154.013 44.7741C164.46 37.4255 169.683 22.4734 170.208 20.9102C169.863 21.4533 167.105 25.7132 162.883 30.5209C157.419 36.7407 152.148 40.9298 147.217 42.9747C147.676 43.3053 150.07 45.5628 152.479 50.7672C153.999 54.0543 155.227 57.8702 156.125 62.1065C157.244 67.3865 157.82 73.3372 157.9 79.7884C157.919 80.0907 157.919 80.4071 157.933 80.7093C157.957 81.2855 157.99 81.857 157.999 82.4426C158.014 83.3588 157.999 84.2939 157.971 85.2479C157.971 85.2715 157.957 85.2904 157.938 85.2951C157.929 85.2951 157.924 85.2904 157.914 85.2857C157.905 85.2857 157.891 85.2857 157.886 85.2762C157.589 84.8417 156.493 83.3068 155.001 81.7814C153.843 80.596 152.446 79.4106 151.005 78.7541C150.991 78.7494 150.972 78.7541 150.963 78.7541C150.948 78.7636 150.939 78.7777 150.939 78.7966C150.953 80.1662 150.901 99.298 137.833 111.1C137.805 111.124 137.772 111.143 137.758 111.143C137.739 111.143 137.739 111.114 137.767 111.048C137.791 110.996 137.819 110.935 137.852 110.869C137.852 110.864 137.857 110.855 137.862 110.85C138.367 109.726 139.737 106.358 140.218 102.042L140.199 101.952C138.797 95.1703 135.76 90.5373 131.165 88.1712C131.944 90.5043 132.752 93.3521 133.356 95.6379C133.994 98.1126 131.089 101.3 128.478 104.611C128.473 104.621 128.468 104.625 128.468 104.635C128.43 105.093 127.269 118.472 124.005 125.571C120.685 132.782 116.567 144.688 119.311 152.476C119.311 152.476 119.311 152.476 119.311 152.481C119.32 152.537 119.703 155.135 113.36 157.402C108.26 159.225 102.281 162.063 100.047 163.149C100.047 163.149 100.047 163.149 100.042 163.149C100.037 163.149 100.033 163.149 100.028 163.149C100.028 163.149 100.028 163.149 100.023 163.149C100.023 163.149 100.023 163.149 100.019 163.149C100.014 163.149 100.009 163.149 100.004 163.149C100.004 163.149 100.004 163.149 99.9996 163.149C97.7658 162.063 91.7868 159.225 86.6863 157.402C80.3436 155.135 80.7262 152.537 80.7356 152.481C80.7356 152.481 80.7356 152.481 80.7356 152.476C83.4795 144.688 79.3613 132.782 76.0412 125.571C72.7778 118.477 71.616 105.093 71.5782 104.635C71.5782 104.625 71.5782 104.621 71.5688 104.611C68.9571 101.3 66.0527 98.1126 66.6902 95.6379C67.2947 93.3521 68.1023 90.5043 68.8816 88.1712C64.2864 90.5373 61.2496 95.175 59.847 101.952L59.8281 102.042C60.3098 106.363 61.6794 109.731 62.1847 110.85C62.1847 110.859 62.1895 110.864 62.1942 110.869C62.2272 110.94 62.2556 111.001 62.2792 111.048C62.3123 111.114 62.3075 111.138 62.2886 111.143C62.2698 111.143 62.2367 111.128 62.2131 111.1C49.1453 99.298 49.0933 80.1662 49.1075 78.7966C49.1075 78.7777 49.0981 78.7636 49.0839 78.7541C49.0697 78.7447 49.0556 78.7447 49.0414 78.7541C47.5962 79.4106 46.203 80.5913 45.046 81.7814C43.5583 83.3116 42.4626 84.8464 42.1604 85.2762C42.1509 85.2857 42.1415 85.2857 42.132 85.2857C42.1226 85.2857 42.1179 85.2951 42.1084 85.2951C42.0895 85.2904 42.0754 85.2715 42.0754 85.2479C42.0423 84.2939 42.0376 83.3588 42.047 82.4426C42.0565 81.8522 42.0848 81.2808 42.1131 80.7093C42.1273 80.4024 42.132 80.0907 42.1462 79.7884C42.2265 73.3324 42.8027 67.3865 43.922 62.1065C44.8193 57.8702 46.0472 54.0543 47.5679 50.7672C49.9765 45.5628 52.3662 43.3053 52.829 42.9747C47.8985 40.9298 42.6279 36.7407 37.1637 30.5209C32.9416 25.7132 30.1835 21.458 29.8388 20.9102C30.363 22.4734 35.5863 37.4255 46.033 44.7741C46.0566 44.7883 46.0614 44.8166 46.0472 44.8355C45.3529 45.7423 31.3689 64.0051 24.8469 69.0584C24.8091 69.0867 24.8327 69.1434 24.8799 69.1434H29.8907C29.9238 69.1434 29.9474 69.1717 29.938 69.2001C29.6026 70.291 24.6674 86.5702 26.7454 101.513C26.7596 101.617 26.906 101.645 26.9532 101.551C27.7561 99.9734 31.4776 92.8704 35.2227 89.3283C35.2652 89.2858 35.3408 89.3141 35.3455 89.3755C35.4635 91.3685 37.296 112.361 62.3264 123.804C62.3595 123.818 62.3973 123.8 62.3973 123.762C62.3784 123.271 62.18 120.423 60.0595 115.294C60.0359 115.237 60.0879 115.176 60.1445 115.195C61.6652 115.733 74.3222 121.155 71.8569 151.942C71.8569 151.961 71.8616 151.98 71.8805 151.989C72.0789 152.079 73.2737 152.551 75.1203 151.989C75.1439 151.98 75.1722 151.989 75.1817 152.018C75.4226 152.807 79.3471 164.628 100.033 174.101C100.037 174.101 100.042 174.101 100.052 174.101C100.052 174.101 100.052 174.101 100.056 174.101C100.056 174.101 100.056 174.101 100.061 174.101C100.066 174.101 100.07 174.101 100.08 174.101C120.765 164.632 124.69 152.811 124.931 152.018C124.94 151.994 124.964 151.985 124.992 151.989C126.839 152.547 128.034 152.074 128.232 151.989C128.251 151.98 128.26 151.961 128.256 151.942C125.79 121.155 138.447 115.733 139.968 115.195C140.025 115.176 140.077 115.237 140.053 115.294C137.933 120.423 137.734 123.271 137.715 123.762C137.715 123.8 137.753 123.818 137.786 123.804C162.817 112.361 164.649 91.3733 164.767 89.3755C164.767 89.3141 164.843 89.2858 164.89 89.3283C168.635 92.8704 172.357 99.9734 173.159 101.551C173.207 101.645 173.353 101.622 173.367 101.513C175.44 86.5702 170.51 70.291 170.175 69.2001C170.165 69.167 170.189 69.1434 170.222 69.1434H175.233C175.28 69.1434 175.299 69.0867 175.266 69.0584H175.2ZM157.896 79.7884C157.896 79.7884 157.896 79.779 157.896 79.7742C157.896 79.7742 157.896 79.7837 157.896 79.7884ZM68.9052 74.225C73.0895 75.2876 78.0106 75.0373 82.3744 73.5638L82.4122 73.6111C82.4122 73.6111 82.4169 73.6205 82.4216 73.6252C82.8845 74.3006 83.0781 75.0751 82.9695 75.8213C84.5941 73.7244 84.7547 71.7598 84.7736 71.3914C84.7736 71.3583 84.7452 71.3394 84.7169 71.3489C75.21 74.0408 66.5391 71.1789 65.4056 70.4468C65.3679 70.4232 65.3537 70.3807 65.3915 70.3618C65.996 70.0029 68.9949 68.1799 68.6832 67.3676C68.6218 67.1976 68.2204 66.8292 67.597 66.357H67.5875C65.826 67.5896 61.278 68.3122 60.7774 68.3877C61.8683 71.0655 64.8295 73.1955 68.9099 74.2298L68.9052 74.225ZM42.1037 79.779C42.1037 79.779 42.1037 79.7884 42.1037 79.7931C42.1037 79.7931 42.1037 79.7837 42.1037 79.779ZM86.5493 99.3924C80.797 98.2684 74.5488 95.279 73.7979 94.9106C73.7649 94.8964 73.7224 94.92 73.7271 94.9578C73.9302 99.7419 81.8596 104.946 82.7522 104.606C83.6543 104.262 97.8886 101.05 98.0019 99.9922C98.2286 95.0334 93.9923 90.6318 92.0466 89.6022C90.3039 88.6766 89.1987 90.6979 88.9909 91.1277C88.9768 91.1607 88.9248 91.1655 88.9059 91.1324C88.2873 90.1973 87.8103 88.9694 87.4655 87.8643H87.4466C85.09 87.1889 82.8372 86.7308 80.7498 86.49C82.228 87.732 83.5031 89.0119 84.1501 89.692C84.3957 89.947 84.2399 89.947 84.0557 89.8431C79.2432 87.0614 73.7602 86.778 74.6433 87.7698C76.3104 90.4807 85.0711 97.9379 86.6249 99.2508C86.776 99.3783 86.6579 99.4113 86.554 99.3924H86.5493ZM67.8992 50.4225C71.7058 54.8666 90.3133 65.1291 92.7833 66.4703C85.43 61.4973 75.3328 53.9976 69.4908 47.1685C66.3691 43.5179 65.7032 41.506 65.5851 41.0668C65.3206 41.9216 64.258 46.172 67.904 50.4272L67.8992 50.4225ZM95.7303 34.5494C95.3194 32.9389 94.9605 31.7677 94.7102 31.3616C93.4492 29.3024 85.3875 25.6659 83.1725 25.0378C82.4594 24.8347 79.2196 25.9115 75.1581 27.4653C75.3942 27.4606 75.6303 27.4559 75.8665 27.4559C82.4264 27.4559 89.1043 29.8408 95.7303 34.5541V34.5494Z" fill="white"/>
<path d="M170.245 20.8175C170.226 20.775 170.188 20.7561 170.146 20.7703C159.704 24.4304 140.473 26.7918 139.66 26.8862C139.632 26.8862 139.604 26.9098 139.594 26.9334C139.585 26.9618 139.585 26.9901 139.604 27.0184C142.168 30.3102 144.955 35.0754 145.488 35.9964C145.493 36.0058 145.488 36.0105 145.488 36.0152C145.484 36.02 145.479 36.0152 145.474 36.0152C144.223 35.4674 133.03 30.5605 124.954 27.4718H124.944C124.675 27.4624 124.401 27.4577 124.132 27.4577C117.563 27.4577 110.871 29.8521 104.235 34.5795L104.226 34.589V34.6031C103.872 35.9727 103.461 37.7674 102.988 39.9304C102.984 39.9587 102.988 39.9871 103.007 40.0059C103.026 40.0248 103.055 40.0343 103.078 40.0343C105.628 39.7651 108.183 38.9811 110.087 37.8902C112.878 36.2844 113.407 34.5701 113.355 33.413C113.355 33.413 113.355 33.3989 113.36 33.3989C113.7 33.38 116.788 33.2619 120.633 34.0223C125.629 35.014 129.625 36.9928 132.51 39.902C132.515 39.9068 132.51 39.9162 132.51 39.9209C132.51 39.9209 132.501 39.9304 132.496 39.9304C131.405 39.6612 121.69 37.3329 117.161 38.2585C117.133 38.2633 117.114 38.2822 117.1 38.3058C117.024 38.49 116.288 40.1571 113.992 42.0367C111.003 44.4831 106.823 46.1833 101.562 47.09C101.529 47.0948 101.501 47.1231 101.496 47.1562C100.726 51.0005 100.126 54.2119 100.013 54.8164C100.013 54.8164 100.013 54.8259 100.008 54.8259H99.9942C99.9942 54.8259 99.9895 54.8211 99.9895 54.8164C99.8762 54.2119 99.2764 51.0052 98.5066 47.1562C98.5018 47.1231 98.4735 47.0948 98.4404 47.09C93.1793 46.1833 88.995 44.4831 86.0102 42.0367C83.715 40.1571 82.9782 38.49 82.9027 38.3058C82.8932 38.2822 82.8696 38.2633 82.8413 38.2585C78.3122 37.3329 68.6023 39.6612 67.5066 39.9304C67.5019 39.9304 67.4924 39.9304 67.4924 39.9209C67.4924 39.9209 67.4877 39.9115 67.4924 39.902C70.378 36.9928 74.3781 35.014 79.3701 34.0223C83.2144 33.2572 86.303 33.38 86.6431 33.3989C86.6478 33.3989 86.6478 33.4083 86.6478 33.413C86.6006 34.5701 87.1248 36.2844 89.9159 37.8902C91.8239 38.9858 94.3789 39.7651 96.9244 40.0343C96.9481 40.0343 96.9764 40.0296 96.9953 40.0059C97.0142 39.9871 97.0189 39.9587 97.0142 39.9304C96.5466 37.7674 96.131 35.9727 95.7815 34.6031V34.589L95.7674 34.5795C89.132 29.8521 82.4398 27.4577 75.8705 27.4577C75.6013 27.4577 75.3274 27.4577 75.0582 27.4718H75.0488C66.9682 30.5652 55.7753 35.4721 54.5285 36.02C54.5285 36.02 54.5191 36.02 54.5144 36.02C54.5144 36.02 54.5096 36.0105 54.5144 36.0011C55.048 35.0801 57.8297 30.3196 60.3989 27.0232C60.4178 26.9996 60.4225 26.9665 60.4083 26.9382C60.3989 26.9098 60.3705 26.8909 60.3422 26.8909C59.5299 26.7918 40.2989 24.4351 29.857 20.775C29.8145 20.7608 29.7767 20.7797 29.7578 20.8222V20.8411V20.8553C29.7861 20.8978 32.6198 25.3986 37.1205 30.5227C42.5847 36.7425 47.8553 40.9316 52.7858 42.9765C52.3277 43.3071 49.9333 45.5646 47.5247 50.769C46.004 54.0561 44.7761 57.872 43.8788 62.1083C42.7595 67.3883 42.1833 73.339 42.103 79.7902C43.6568 54.1364 65.4853 41.0591 65.5136 41.0402C65.5419 41.0261 65.5703 41.0402 65.5797 41.0638C65.6978 41.5125 66.3684 43.5197 69.4854 47.1609C75.3321 53.9899 85.4246 61.4896 92.7779 66.4627C92.7779 66.4627 92.7779 66.4627 92.7826 66.4627C92.7826 66.4627 92.8062 66.5005 92.7968 66.5241C89.9679 72.7486 83.9086 75.7428 82.9688 75.9459C82.9263 75.9554 82.8979 75.9034 82.9263 75.8656C82.9405 75.8515 82.9499 75.8326 82.9641 75.8184C83.0727 75.0722 82.8838 74.293 82.4162 73.6176C82.4162 73.6129 82.4068 73.6082 82.4068 73.6034L82.369 73.5562C78.0099 75.0297 73.0888 75.2753 68.8998 74.2174C64.8193 73.1831 61.8582 71.0579 60.7672 68.3754C61.2631 68.2998 65.8111 67.5772 67.5774 66.354H67.5869C64.876 64.2808 57.9147 60.2381 55.9784 62.1744C53.8437 64.3091 52.0774 69.4474 51.7374 70.4912C51.7232 70.5384 51.7799 70.5714 51.813 70.5337C53.5934 68.7626 56.8663 67.6197 57.4708 67.4214C57.5086 67.4072 57.5416 67.4497 57.5275 67.4875C54.5805 74.3402 55.9264 83.5589 56.0823 84.5366C56.087 84.5743 56.1342 84.5885 56.1626 84.5602C64.314 77.2872 72.1349 78.0948 73.2636 78.26C73.3108 78.2648 73.3155 78.3262 73.273 78.3498C60.6822 84.8766 58.9773 94.8179 59.7896 102.063L59.8133 101.954C61.2159 95.1769 64.2526 90.5391 68.8431 88.1731C68.9423 87.8802 69.0367 87.5922 69.1359 87.3182C70.6283 83.082 73.1455 82.161 76.6876 83.7715C78.0147 84.3713 79.4551 85.4197 80.7397 86.4965C82.8271 86.7373 85.0798 87.1954 87.4365 87.8661H87.4554C87.0634 86.6193 86.8461 85.533 86.7895 85.2261C86.7848 85.1883 86.8178 85.16 86.8556 85.1741C87.8663 85.5661 98.0579 89.4765 99.9848 89.4907C99.9848 89.4907 99.9942 89.4907 99.9989 89.4907C99.9989 89.4907 100.008 89.4907 100.013 89.4907C101.94 89.4765 112.132 85.5614 113.142 85.1741C113.18 85.16 113.213 85.1883 113.208 85.2261C113.152 85.5283 112.93 86.6193 112.543 87.8708H112.561C114.918 87.1954 117.171 86.7373 119.258 86.4965C120.543 85.4197 121.983 84.3665 123.31 83.7715C126.852 82.1657 129.374 83.082 130.862 87.3182C130.956 87.5922 131.056 87.8802 131.155 88.1731C135.745 90.5391 138.782 95.1769 140.185 101.954L140.208 102.063C141.021 94.8179 139.316 84.8766 126.725 78.3498C126.682 78.3262 126.687 78.2648 126.734 78.26C127.868 78.0948 135.684 77.2872 143.835 84.5602C143.864 84.5838 143.911 84.5743 143.916 84.5366C144.071 83.5589 145.417 74.3449 142.47 67.4875C142.456 67.4497 142.485 67.4119 142.527 67.4214C143.132 67.6197 146.404 68.7626 148.185 70.5337C148.223 70.5714 148.279 70.5337 148.26 70.4912C147.916 69.4522 146.149 64.3091 144.02 62.1744C142.083 60.2381 135.127 64.2855 132.411 66.3493H132.42C134.182 67.582 138.73 68.3045 139.231 68.3801C138.14 71.0579 135.179 73.1878 131.098 74.2221C126.914 75.2847 121.993 75.0344 117.629 73.5609L117.591 73.6082C117.591 73.6082 117.586 73.6176 117.582 73.6223C117.119 74.2977 116.925 75.0722 117.034 75.8231C117.048 75.8373 117.057 75.8562 117.072 75.8703C117.1 75.9081 117.072 75.9601 117.029 75.9506C116.089 75.7476 110.03 72.7533 107.201 66.5288C107.192 66.5052 107.196 66.4816 107.215 66.4721C107.215 66.4721 107.215 66.4721 107.22 66.4721C114.573 61.5038 124.666 53.9994 130.512 47.1703C133.625 43.5338 134.295 41.5219 134.418 41.0733C134.428 41.0497 134.456 41.0355 134.484 41.0497C134.513 41.0638 156.341 54.1458 157.895 79.7997C157.815 73.3437 157.238 67.3931 156.119 62.1178C155.222 57.8815 153.994 54.0655 152.473 50.7785C150.065 45.574 147.675 43.3166 147.212 42.986C152.143 40.941 157.413 36.752 162.877 30.5322C167.378 25.408 170.212 20.9072 170.24 20.8647L170.25 20.8506V20.8317L170.245 20.8175ZM99.9989 63.2512C84.7068 60.9607 80.7586 50.4054 80.4138 48.9414C80.4091 48.9177 80.4185 48.8988 80.4374 48.8894C80.4516 48.88 80.4752 48.8847 80.4894 48.8988C85.3349 53.5696 94.5961 57.9287 99.9989 57.9523C105.402 57.9287 114.658 53.5696 119.509 48.8988C119.527 48.8847 119.546 48.88 119.56 48.8894C119.579 48.8988 119.589 48.9177 119.584 48.9414C119.239 50.4054 115.291 60.956 99.9989 63.2512Z" fill="#F47920"/>
</svg>
