<svg width="200" height="200" viewBox="0 0 200 200" fill="none" xmlns="http://www.w3.org/2000/svg">
<path d="M165.208 113.68C167.008 110.791 166.83 107.441 166.368 104.208C166.042 101.921 165.05 98.3563 166.733 96.3497L169.716 92.798L165.351 91.2325C161.838 89.973 158.523 90.8934 155.971 93.5323C153.299 96.2911 150.846 99.4654 147.478 101.444C147.417 101.113 147.386 100.776 147.371 100.465C150.78 96.7194 153.488 92.4385 155.497 87.796C157.152 83.974 158.544 79.6804 158.579 75.4865C158.61 72.1974 157.363 68.6228 153.697 68.0006C149.398 67.2688 146.139 71.6008 144.156 74.7572C142.248 77.7913 140.716 81.0422 139.569 84.4335C139.064 84.0154 134.069 81.1546 134.069 81.1546L133.587 81.815C128.342 78.8165 121.981 81.6085 118.284 85.7084C120.464 79.5024 122.909 72.4805 123.618 70.0325L124.944 65.4532C124.944 65.4532 123.432 65.5527 121.341 65.879V49.3466H138.261V20.4921H62.7164V49.3466H79.6359V83.4208C76.2347 84.4177 73.5091 85.8353 73.5091 85.8353L73.6518 86.3325C73.2082 86.2127 69.9879 85.5574 69.9879 85.5574L69.7661 86.3274C65.86 84.7696 61.9743 86.3453 58.958 88.9969C60.7988 77.8118 63.1624 66.7509 65.6509 55.6984L44.6669 69.7695C42.079 71.7302 40.9953 73.5634 41.2886 76.7632L43.953 91.5132L46.0973 89.5602C45.7734 92.5968 45.4981 95.4957 45.2661 98.298C43.1141 92.2732 41.0999 85.7434 40.2126 81.5521L37.9178 70.7055L28.5352 92.4903L29.2236 93.9334C33.1854 102.233 39.1718 112.567 44.3706 120.874L44.8729 121.678L48.7663 123.733L50.0157 123.029C49.1896 124.913 48.598 127.111 48.5496 129.592C57.7921 124.923 67.5343 121.216 77.6368 118.888C78.3022 118.738 78.9702 118.592 79.6382 118.449V150.649H62.7188V179.504H138.263V150.649H121.344V117.17C123.031 117.443 124.712 117.761 126.379 118.134C131.438 119.263 136.384 120.859 141.149 122.889C145.44 124.72 149.548 126.933 153.776 128.896C157.819 130.77 162.852 132.376 167.062 130.015C169.805 128.473 171.651 125.176 171.45 122.009C171.152 117.374 167.913 114.987 165.211 113.705" fill="black"/>
<path d="M66.8609 24.633V45.2116H83.7776V82.847L83.9874 84.4787C84.4565 84.1294 84.9485 83.8115 85.5018 83.5234C86.2896 83.1155 87.3092 82.8649 88.1787 82.7884C90.5422 82.5844 92.7294 83.6299 94.2949 85.3688L94.7158 85.9279C97.9463 81.1167 103.492 77.9554 108.808 79.6176C109.772 76.7033 111.775 68.9192 111.775 68.9192C113.29 67.9529 115.256 67.2461 117.206 66.7336V45.2115H134.124V24.6328H66.8633L66.8609 24.633ZM106.397 115.882C105.194 115.865 103.991 115.866 102.791 115.885C96.4164 115.987 90.0544 116.55 83.7774 117.634V154.77H66.8594V175.344H134.12V154.77H117.202V116.573C113.615 116.154 110.002 115.934 106.393 115.882L106.397 115.882Z" fill="#F1B300"/>
<path d="M60.2778 63.5391L46.7082 72.624C44.8393 74.039 44.6238 74.5725 44.7794 76.2757L46.2885 84.6046L50.704 80.5762C49.1003 93.0342 48.3075 103.051 47.9072 112.653L47.5631 112.842C44.3888 107.294 38.5096 90.484 36.768 82.2666L32.4023 92.4038C36.3136 100.586 42.2286 110.782 47.3586 118.984L48.7127 119.701C51.1629 118.316 52.4283 116.534 52.4283 116.534C52.6858 97.2482 60.2781 63.5403 60.2781 63.5403L60.2778 63.5391ZM120.52 69.1353C120.52 69.1353 117.305 69.4514 114.62 71.0042C113.687 75.2264 111.657 81.531 110.578 84.3029C104.928 79.076 94.0341 86.0142 95.0057 96.8909C94.3224 98.4616 93.2233 99.9402 91.8974 99.4531C90.5945 98.9738 91.8309 94.7515 92.0629 93.6654C92.4403 91.5007 93.1186 89.1703 91.8922 87.5283C90.6683 85.8837 88.4939 85.6955 86.885 86.44C83.8993 87.8169 82.8384 89.3671 82.8384 89.3671L82.4435 86.1676C81.3548 85.905 78.5957 87.0462 77.5198 87.6403C78.2923 89.8866 77.8031 98.3066 77.3008 100.308C77.0203 101.43 76.5406 103.398 75.0005 103.854C71.4539 104.902 72.1604 101.103 73.4301 96.973C74.0471 94.9639 74.9678 92.9691 75.7786 91.0288C73.9759 89.5271 71.8597 89.1964 71.8597 89.1964L70.8223 91.223C70.8223 91.223 70.3526 89.2852 67.8743 88.765C63.5985 87.8676 59.083 93.1203 58.1701 94.8057C57.0407 96.8913 56.7045 98.0583 56.1436 100.21C55.5546 102.459 56.1656 106.521 57.5602 108.418C58.547 109.754 59.8021 110.395 61.1585 110.665C65.9749 111.632 68.9456 106.598 68.9456 106.598C71.3091 108.739 73.7483 108.207 74.9289 107.997C80.0818 107.095 81.3463 102.789 81.7617 101.053C82.2385 99.0561 83.035 93.2147 83.035 93.2147C83.035 93.2147 84.3578 91.3736 86.4613 90.9223C89.0212 90.3766 87.5175 97.8726 87.3084 99.3466C87.1631 100.349 87.2594 103.587 90.2042 104.255C93.0828 104.907 94.8141 103.181 96.1706 101.165C96.1706 101.165 97.8845 105.015 102.275 103.457C104.228 102.764 105.829 101.218 106.589 100.101C106.326 100.491 108.23 103.09 110.474 103.409C113.62 103.855 115.489 103.194 117.624 101.06C117.723 101.92 118.126 103.598 121.156 104.696C125.776 106.374 129.436 102.042 129.436 102.042C129.865 104.421 130.867 106.18 134.107 106.769C138.22 107.516 140.642 104.647 140.642 104.647C141.04 106.485 142.108 108.51 143.783 109.232C147.008 110.616 150.081 108.365 152.383 106.825C154.336 105.522 157.251 102.3 157.251 102.3C157.807 103.562 158.524 105.509 158.442 107.121C158.368 108.599 157.972 109.972 157.169 111.292C156.095 112.501 154.347 112.98 152.886 110.415C152.886 110.415 152.586 110.504 152.43 110.749C150.972 113.049 153.837 114.982 155.854 115.787C159.989 117.432 165.637 119.681 163.138 122.572C161.712 124.224 158.806 123.391 153.503 120.589C150.65 119.079 133.338 108.029 105.064 108.029C82.5787 108.029 58.0078 115.438 51.937 125.063C72.4596 114.346 88.6262 112.633 105.156 112.633C114.753 112.779 129.004 113.543 145.352 121.211C155.732 126.08 158.806 128.452 163.503 127.814C166.991 127.342 168.352 124.104 168.227 122.194C167.804 115.575 158.138 115.581 157.001 113.86C161.425 114.801 162.952 111.889 163.365 109.569C164.142 105.176 160.757 98.4526 164.268 94.2734C160.953 93.0878 159.192 94.6558 157.504 96.6675C156.122 98.3197 155.274 99.0971 152.957 101.272C151.763 102.394 147.99 105.632 146.249 105.012C143.956 104.194 144.11 100.094 144.153 99.1815C146.876 96.3845 149.54 92.7006 151.218 89.32C153 85.7326 153.51 84.2024 154.67 80.2424C155.132 78.6642 156.328 72.502 153.771 71.3724C150.943 70.1281 147.744 74.8807 145.933 78.0958C144.225 81.1248 143.208 83.5492 142.132 87.0219C141.244 89.8903 140.813 94.9137 140.757 97.9678C140.757 97.9678 138.337 103.411 135.14 102.559C131.565 101.611 133.24 97.2583 135.14 93.3776C136.065 91.4908 137.285 89.6625 138.389 87.8752C137.767 86.7431 135.038 85.3103 135.038 85.3103L133.694 87.1493C133.694 87.1493 133.579 85.035 131.167 84.2599C125.64 82.4853 121.354 86.9524 120.183 88.4694C118.202 91.037 117.096 94.0122 116.882 96.4674C115.926 98.0737 114.959 99.4533 112.447 99.3437C110.201 99.2443 111.267 96.019 111.769 94.5529C113.223 90.3051 119.329 73.2403 120.52 69.1353ZM151.252 77.0031C151.14 78.0561 150.619 80.4561 150.4 81.1878C148.449 87.715 145.91 91.0555 144.775 92.7683C144.966 91.0422 145.538 86.5895 148.781 80.6821C149.493 79.3894 150.375 78.0076 151.252 77.0031ZM105.558 86.826C105.709 86.8094 105.847 86.8131 105.971 86.8377C109.701 87.5746 107.573 96.4784 103.142 98.9487C101.752 99.7212 99.9954 99.9299 99.5084 97.5868C98.3109 91.8309 103.298 87.0748 105.558 86.826ZM127.928 88.5789C128.075 88.5653 128.21 88.5713 128.33 88.5971C131.935 89.3747 129.719 97.9829 125.374 100.306C124.015 101.032 122.307 101.205 121.873 98.9203C120.807 93.315 125.729 88.7831 127.928 88.5789ZM66.2986 93.6381C69.9523 94.1608 68.3403 102.905 64.1691 105.524C62.8611 106.345 61.1586 106.287 60.5773 104.387C58.8001 98.5662 64.3583 93.3599 66.2986 93.6381Z" fill="white"/>
</svg>
