<svg width="200" height="200" viewBox="0 0 200 200" fill="none" xmlns="http://www.w3.org/2000/svg">
<g clip-path="url(#clip0_154_2357)">
<path d="M65.7379 27.2109C65.7379 27.2109 48.2609 27.707 23.2016 58.7014C-1.85921 89.6988 -9.44293 123 14.6287 132.56C38.7003 142.124 68.7055 106.842 72.3309 88.7066C72.3309 88.7066 72.4973 86.0688 75.961 86.0688L79.0102 85.8207C79.0102 85.8207 80.8222 86.2336 81.5648 83.8439C82.306 81.4541 87.6663 70.7365 87.6663 70.7365C87.6663 70.7365 87.9975 69.171 84.7003 69.7473C84.7003 69.7473 50.0759 76.0136 40.6771 84.0919C31.2799 92.1687 38.3721 97.7756 41.6678 96.4552L46.7771 93.9822C46.7771 93.9822 51.3933 92.5 48.4257 97.4459C48.4257 97.4459 40.0162 115.746 24.4086 118.166C24.4086 118.166 16.0565 118.606 16.9352 105.524C16.9352 105.524 21.5545 76.5097 52.8786 50.4597C52.8786 50.4597 73.9811 33.6436 65.4097 62.3299C65.4097 62.3299 64.5824 64.8029 73.6514 64.8029C82.7189 64.8029 83.8729 61.1774 84.2042 58.7014C84.5324 56.2285 88.6555 27.2109 65.7379 27.2109ZM156.431 37.8666C155.055 37.8046 153.572 37.8968 152.06 38.1645C145.969 39.2384 141.494 42.7127 142.061 45.9252C142.629 49.1378 148.021 50.8742 154.117 49.7988C160.197 48.7264 164.674 45.2491 164.099 42.0381C163.676 39.6287 160.545 38.0526 156.431 37.8666ZM112.409 47.3288C112.043 47.3288 111.652 47.347 111.24 47.3818C98.0512 48.4799 98.2705 66.9461 98.2705 66.9461L72.5533 116.845C73.3216 118.495 75.4089 116.735 75.4089 116.735L84.5309 114.097C87.8281 113.109 87.1702 112.008 87.1702 112.008C88.5965 105.305 103.66 78.7044 103.66 78.7044C103.66 78.7044 107.836 70.7924 112.124 71.889C116.409 72.9901 107.834 82.8819 107.834 82.8819C103.328 87.1669 98.7106 98.2687 98.7106 98.2687C96.4041 105.524 98.874 112.117 106.13 112.777C113.384 113.438 117.507 106.347 119.322 103.708C121.135 101.073 121.627 103.546 121.627 103.546C121.627 103.546 121.958 109.316 128.386 110.798C134.817 112.282 144.711 105.028 148.669 102.555C152.62 100.082 158.896 98.2687 158.896 98.2687C168.94 97.4444 166.973 101.897 166.973 101.897C148.504 106.512 119.154 145.919 143.227 147.403C167.291 148.886 179.83 107.666 179.83 107.666C185.925 106.842 188.239 110.963 188.239 110.963C188.239 110.963 190.553 118.385 186.424 120.857C182.31 123.329 178.181 119.867 178.181 119.867C174.884 130.252 167.079 138.39 167.079 138.39C180.268 140.586 188.844 133.551 188.844 133.551C206.873 124.099 197.632 106.677 197.632 106.677C194.909 98.1053 183.46 96.7032 183.46 96.7032C178.347 96.5399 178.423 94.3135 178.423 94.3135C177.273 92.0054 175.383 91.2627 173.311 90.6865C171.254 90.1102 167.291 91.0994 167.291 91.0994C164.659 90.9345 167.382 88.9547 167.382 88.9547L180.48 76.7547C187.906 69.5023 185.108 65.3776 185.108 65.3776C183.127 59.8539 175.958 61.4224 175.958 61.4224C171.753 61.3392 163.994 64.3885 163.994 64.3885C161.861 64.9647 160.454 67.7674 160.454 67.7674L154.767 78.3202C152.952 81.2892 155.1 80.6298 155.1 80.6298C166.474 70.7365 167.956 73.2094 167.956 73.2094C174.052 77.0028 167.79 79.9688 163.676 85.0796C159.547 90.1904 143.555 96.9513 143.555 96.9513C132.508 102.722 134.982 94.3135 134.982 94.3135C142.074 79.1445 153.951 61.9155 153.951 61.9155C155.433 59.6906 153.285 60.0188 153.285 60.0188L140.506 61.5056C138.199 61.5873 138.113 62.4086 138.113 62.4086L136.964 64.6365C129.543 79.6391 118.608 96.1845 118.608 96.1845C114.649 101.238 110.693 100.801 110.912 96.4023C111.133 92.0054 125.42 72.9916 125.42 72.9916C133.335 58.3732 115.419 63.6473 115.419 63.6473C113.662 64.0875 113.662 62.767 113.662 62.767C113.662 62.767 123.77 47.2956 112.409 47.3288ZM168.561 110.313C169.136 110.42 169.393 111.007 168.773 112.615C168.773 112.615 158.564 134.377 152.952 137.343C152.952 137.343 146.852 143.116 144.544 136.52C144.544 136.52 143.557 130.913 150.986 123.826C158.397 116.735 165.809 111.294 165.809 111.294C165.809 111.294 167.624 110.136 168.561 110.313ZM142.015 114.868C63.758 118.824 0.889024 157.071 0.889024 157.071C0.889024 157.071 21.0584 156.963 31.9394 157.13C42.8204 157.294 55.0218 160.096 62.4406 162.237C69.8595 164.382 75.9579 172.79 75.9579 172.79C97.3902 151.03 131.467 140.807 131.467 140.807C130.59 130.254 142.015 114.868 142.015 114.868ZM163.343 116.898C162.814 116.798 161.8 117.45 161.8 117.45C161.8 117.45 158.443 121.484 154.268 125.471C149.843 129.705 148.173 135.365 148.173 135.365C149.47 139.073 154.571 132.104 154.571 132.104C157.248 128.607 163.464 118.191 163.464 118.191C163.812 117.289 163.661 116.959 163.343 116.898Z" fill="#660033"/>
</g>
<defs>
<clipPath id="clip0_154_2357">
<rect width="200" height="200" fill="white"/>
</clipPath>
</defs>
</svg>
