<svg width="200" height="200" viewBox="0 0 200 200" fill="none" xmlns="http://www.w3.org/2000/svg">
<g clip-path="url(#clip0_154_2358)">
<path d="M196.004 114.465C192.621 122.247 186.445 124.616 179.593 125.631C177.14 128.338 172.065 131.722 165.381 133.16V133.245C165.466 133.498 167.411 139.842 162.167 146.272C161.913 148.979 160.56 152.109 157.26 154.055C154.807 155.492 150.408 157.185 145.755 157.439C130.782 157.439 131.713 144.834 119.024 140.943C117.924 140.605 116.824 140.435 115.64 140.435C100.751 140.773 98.8056 158.877 103.459 175.119C95.0838 167.759 79.6877 155.324 78.1653 134.175C62.5154 133.837 46.358 134.429 31.2156 138.828C32.4845 136.29 33.6688 133.668 35.0223 131.129C23.2637 132.314 11.505 134.006 0 136.628C18.1872 101.522 54.6477 72.76 98.5483 63.2007C104.555 54.4025 117.498 47.297 124.773 43.5745C142.961 34.2688 136.616 25.7253 136.362 24.8789C136.362 24.8789 144.906 29.024 148.12 35.2838C150.574 40.0211 152.519 47.6342 148.206 56.9399C147.697 57.955 147.275 58.9701 146.936 59.9852C157.934 62.946 168.254 68.3602 176.883 75.8045C180.605 79.0191 183.143 82.9104 183.988 86.802C188.049 89.509 196.762 97.2069 199.808 105.412C200.315 107.189 200.061 111.25 196.001 114.463L196.004 114.465Z" fill="white"/>
<path d="M140.85 31.3945C140.85 31.3945 142.457 38.1618 126.299 46.1138C118.009 50.1743 105.659 57.5344 100.582 65.74C33.8377 79.7823 5.83984 132.231 5.83984 132.231C5.83984 132.231 19.4607 129.355 40.6936 127.578C39.4246 129.693 38.1546 131.893 37.055 134.177C40.9462 133.077 60.3186 130.454 81.2135 131.215C81.298 147.965 92.0415 160.992 99.3164 167.337C94.4946 144.412 109.298 134.769 120.041 138.068C134.169 142.383 132.647 155.071 146.266 154.395C150.327 154.226 153.794 152.703 155.909 151.433C158.955 149.657 159.462 146.613 159.378 145.09C164.453 139.676 162.677 134.178 162.677 134.178C160.309 135.193 154.811 138.069 150.158 135.616C147.028 133.585 147.027 131.724 148.465 124.787C148.719 123.603 148.972 122.333 149.142 121.149C149.142 121.149 155.487 115.989 165.977 120.472C165.723 125.717 164.707 130.285 164.707 130.285C164.707 130.285 173.843 128.509 178.158 122.756C184.84 121.995 190.762 119.966 193.638 112.522C197.952 109.56 197.107 106.26 197.107 106.26C194.231 98.5622 185.771 91.6261 182.641 89.5119C181.372 88.6659 181.373 88.5813 181.035 87.1432C180.612 85.0283 179.173 81.6437 175.028 78.0905C166.314 70.5617 155.233 64.8102 143.221 62.1877C143.729 60.1574 144.575 58.0423 145.59 55.7582C152.95 39.8546 140.853 31.3953 140.853 31.3953L140.85 31.3945ZM176.77 103.427C179.934 103.432 182.872 104.113 184.585 105.414C186.869 106.852 189.238 111.335 185.938 114.127C181.963 117.425 175.957 117.679 175.704 117.679C174.265 120.555 171.05 123.432 169.105 124.532C169.867 121.91 170.035 118.864 169.951 116.665C162.337 111.42 150.071 112.436 141.95 119.034C147.194 121.064 138.48 134.345 146.686 139.758C151.508 142.381 156.499 139.844 159.206 138.744C159.291 138.998 157.854 142.212 153.539 144.411L153.624 144.496C153.624 144.496 154.892 145.849 153.2 146.864C151.508 147.879 149.308 148.641 145.925 149.148C141.864 149.741 137.465 146.611 134.927 142.719C131.797 137.982 125.707 132.992 117.755 131.554C119.786 130.453 122.07 129.607 122.07 129.607C116.318 128.846 111.664 129.438 107.773 130.538C117.417 119.371 131.544 115.649 131.544 115.649C130.276 115.058 128.413 114.549 126.468 114.211C138.819 107.867 152.355 105.92 163.69 109.305C165.594 105.286 171.496 103.418 176.77 103.427Z" fill="#00205C"/>
<path d="M131.626 115.567C130.356 114.974 128.496 114.467 126.55 114.129C138.901 107.784 152.436 105.838 163.771 109.222C166.817 102.793 180.098 101.862 184.666 105.331C186.612 104.738 189.318 105.669 191.18 106.515C188.895 102.116 182.297 95.6026 179.76 93.9107C173.922 90.0194 177.391 87.0586 171.639 82.0677C163.433 74.9618 153.282 69.8015 142.285 67.5179C142.2 69.8865 142.538 71.8322 143.299 73.524C140.339 71.663 138.985 69.2944 138.478 66.8412C136.955 58.551 145.499 48.5688 139.324 48.3993C131.71 48.1455 113.692 57.9587 107.094 69.8017C104.386 74.6235 103.625 79.6991 106.163 84.6904C100.157 80.5453 98.0417 76.1468 98.4649 71.9167C65.4733 81.2224 40.1797 102.37 27.1523 121.405C34.089 120.643 40.0103 120.051 46.0165 119.882C54.4758 109.138 64.4583 102.371 72.9176 98.2261C63.1896 105.924 58.1141 114.637 55.7453 119.797C63.105 119.966 71.4795 120.643 82.3075 121.912C84.6765 110.323 91.6974 99.4104 102.44 91.881C108.278 87.8204 114.115 85.1135 120.29 83.9292C108.024 88.6664 98.4649 98.3104 94.1505 110.069C98.0417 105.924 102.864 102.371 108.193 99.6642C100.41 107.278 95.2506 117.26 94.0662 128.51C93.643 132.233 93.8968 136.208 94.658 139.931C96.2655 137.646 100.41 132.74 108.109 130.456C117.498 119.205 131.626 115.568 131.626 115.568V115.567ZM170.878 89.4268C172.146 94.4178 176.461 97.8861 176.461 97.8861C174.938 97.8016 173.838 97.5477 172.992 97.294C171.3 96.4481 171.216 95.0099 169.777 94.0794C170.031 94.9253 169.777 95.4329 168.932 95.4329C168.509 95.3483 168.17 95.2637 167.832 95.1791C167.748 95.1791 167.748 95.1791 167.662 95.0945C164.194 93.8256 164.11 90.0189 159.288 89.7651C159.288 89.7651 163.094 88.8345 165.886 89.4267C159.964 84.5203 146.937 81.6441 146.937 81.6441C146.937 81.6441 160.641 81.7287 170.878 89.4268ZM115.976 77.9219C107.685 70.5622 125.958 58.804 128.073 58.3808C123.335 63.6256 122.236 67.6864 122.743 70.8164C120.713 70.2242 120.121 68.4478 120.121 68.4478C118.767 73.6926 122.405 76.9914 125.027 78.5146C122.32 79.1914 118.175 79.7829 115.976 77.9219Z" fill="#BC955C"/>
</g>
<defs>
<clipPath id="clip0_154_2358">
<rect width="200" height="200" fill="white"/>
</clipPath>
</defs>
</svg>
