<svg width="198" height="200" viewBox="0 0 198 200" fill="none" xmlns="http://www.w3.org/2000/svg">
<path d="M161.673 0.00467622C154.514 0.00467622 147.27 2.11365 140.571 6.12585C134.872 4.44293 127.738 3.46352 120.918 3.46352C118.348 3.46352 115.842 3.59757 113.418 3.86256C112.519 3.06137 111.348 2.56309 110.06 2.52204C110.003 2.52048 109.946 2.51841 109.889 2.51841C109.825 2.51841 109.759 2.52048 109.694 2.5236C109.504 2.52984 109.32 2.54698 109.137 2.57244C105.216 3.07851 101.624 4.52658 99.0032 5.72993C96.3596 4.51723 92.7319 3.05513 88.7742 2.56101C88.5534 2.53295 88.3347 2.51996 88.1154 2.51841C86.8123 2.51841 85.557 2.99954 84.59 3.86256C82.1641 3.59757 79.6561 3.46352 77.0868 3.46352C70.2683 3.46352 63.134 4.44293 57.4337 6.12585C50.7326 2.11365 43.4881 0.00467622 36.3304 0.00467622C24.8778 0.00467622 14.7392 5.49352 9.20933 14.6859C5.96195 20.0828 4.40373 26.6228 4.70301 33.6013C4.9841 40.161 6.84992 47.0714 10.2552 54.1829C8.28708 57.6635 6.79172 61.1837 6.71275 61.3687C6.08509 62.8526 6.17342 64.522 6.90863 65.9119C4.43075 71.1919 1.13557 79.8398 0.0299042 90.2797C-0.124931 91.7314 0.328143 93.1571 1.23481 94.2384C0.24605 103.055 0.62898 111.751 2.38464 120.162C5.14154 133.372 11.2476 145.494 20.5346 156.194C21.5551 157.371 23.0234 158.021 24.539 158.021C24.9853 158.021 25.4363 157.964 25.8811 157.847C25.9253 157.836 25.9694 157.824 26.0136 157.811C31.6791 163.174 43.1733 171.231 65.8618 179.404C66.3476 179.579 66.8526 179.68 67.3571 179.708C70.7484 184.95 74.9186 187.201 78.7089 189.248C82.1127 191.085 85.0514 192.672 88.0037 196.538C89.0049 197.848 90.5569 198.618 92.205 198.622H92.218C92.934 198.622 93.6313 198.478 94.2745 198.206C94.6185 198.596 95.0237 198.94 95.481 199.219C96.3315 199.74 97.2901 200 98.2508 200C99.2381 200 100.226 199.726 101.091 199.175C102.268 198.429 103.603 197.522 104.912 196.434C105.448 196.61 106.01 196.702 106.576 196.702C107.194 196.702 107.817 196.593 108.416 196.371C122.208 191.262 126.056 185.637 129.585 179.688C129.768 179.707 129.953 179.716 130.137 179.716C130.744 179.716 131.351 179.614 131.935 179.404C154.684 171.208 166.24 163.144 171.939 157.798C171.997 157.816 172.057 157.831 172.118 157.847C172.562 157.964 173.013 158.021 173.461 158.021C174.975 158.021 176.444 157.371 177.466 156.194C186.751 145.495 192.857 133.373 195.614 120.162C197.37 111.749 197.754 103.053 196.764 94.2378C197.67 93.154 198.124 91.7298 197.97 90.2776C196.863 79.8346 193.567 71.1841 191.088 65.9067C191.824 64.5158 191.914 62.85 191.287 61.3671C191.208 61.1827 189.712 57.6609 187.745 54.1813C191.15 47.0709 193.017 40.1573 193.297 33.5976C193.596 26.6197 192.038 20.0792 188.791 14.6797C183.257 5.48729 173.12 0 161.669 0L161.673 0.00467622Z" fill="white"/>
<path d="M190.723 89.5108C193.703 106.257 192.701 130.557 173.463 152.722C172.931 150.142 172.327 149.228 172.327 149.228C172.327 149.228 166.297 161.394 130.138 174.418C130.138 174.418 129.92 173.623 128.338 171.582C122.79 179.839 122.338 185.563 106.575 191.404C107.037 189.795 106.949 187.833 105.679 186.811C104.603 190.213 101.226 192.814 98.2515 194.702C98.597 191.025 93.4802 187.366 93.4802 187.366C93.4802 187.366 94.3796 190.522 92.2187 193.323C83.736 182.22 74.4615 185.869 69.2553 171.57C67.6732 173.611 67.6586 174.418 67.6586 174.418C31.5 161.394 25.6745 149.229 25.6745 149.229C25.6745 149.229 25.0686 150.142 24.5387 152.722C5.30899 130.552 4.3062 106.252 7.28495 89.5113L5.31055 90.8409C7.01893 74.7537 14.3642 63.18 14.3642 63.18C13.5506 63.0205 11.6089 63.4404 11.6089 63.4404C11.6089 63.4404 13.8519 58.1344 16.3282 54.4308C-4.18894 15.7444 29.2367 -6.61882 56.7105 11.9447C64.034 9.28242 77.234 7.46648 89.1521 9.93865C88.5655 8.88494 88.1254 7.82499 88.1254 7.82499C92.5086 8.37211 96.6159 10.4587 99.0137 11.5977C101.41 10.4587 105.516 8.37211 109.899 7.82499C109.899 7.82499 109.461 8.88494 108.873 9.93865C120.791 7.467 133.991 9.28242 141.314 11.9447C168.789 -6.6183 202.214 15.746 181.698 54.4298C184.175 58.1328 186.418 63.4393 186.418 63.4393C186.418 63.4393 184.474 63.0195 183.661 63.179C183.661 63.179 191.006 74.7511 192.711 90.8415L190.736 89.5119L190.723 89.5108Z" fill="#013C65"/>
<path d="M38.9906 14.9657C26.1803 15.08 16.9297 26.2411 21.6397 38.935C20.6442 27.4331 32.9665 17.9497 45.2234 28.4436C45.2234 28.4436 31.9617 25.2576 30.0138 34.0239C33.5724 29.6013 42.5419 33.5651 39.7834 36.6187C32.9032 42.3206 26.9586 52.6499 25.8197 56.0126C25.8197 56.0126 29.8911 54.5666 32.0344 54.6341C25.6919 60.0076 20.9933 71.5044 20.9933 71.5044C20.9933 71.5044 22.1811 70.6699 25.8197 69.6666C25.561 70.0693 12.7008 94.9042 27.765 124.118L27.7681 124.106C28.9102 126.295 30.1909 128.375 31.5819 130.296C31.5819 130.296 33.1448 123.9 36.3516 120.506C37.6287 137.908 64.3954 149.95 64.3954 149.95C43.804 129.882 55.9117 109.771 55.9117 109.771C55.9117 109.771 54.5567 117.788 59.9354 124.119C64.8703 102.417 76.443 95.2877 76.443 95.2877C71.8764 101.27 70.9058 119.26 71.5667 127.042C72.0068 132.218 76.0876 136.069 80.359 136.017C86.33 135.944 91.6298 133.231 93.1553 131.686C93.1553 131.686 86.646 129.326 85.003 126.296C86.3295 126.544 87.9818 121.19 79.2554 121.004C78.6387 120.797 78.5504 120.358 78.7603 119.803L78.7509 119.805C81.552 105.553 86.8262 104.035 99.0405 104.035C111.255 104.035 116.529 105.553 119.331 119.805L119.32 119.803C119.53 120.358 119.442 120.797 118.825 121.004C110.098 121.19 111.751 126.544 113.078 126.296C111.434 129.326 104.926 131.686 104.926 131.686C106.451 133.231 111.751 135.944 117.72 136.017C121.992 136.069 126.074 132.218 126.514 127.042C127.175 119.26 126.204 101.27 121.638 95.2877C121.638 95.2877 133.209 102.417 138.145 124.119C143.525 117.787 142.17 109.771 142.17 109.771C142.17 109.771 154.277 129.881 133.686 149.95C133.686 149.95 160.452 137.908 161.729 120.506C164.936 123.9 166.499 130.296 166.499 130.296C167.89 128.375 169.171 126.295 170.312 124.106L170.316 124.118C185.367 94.9167 172.522 70.0875 172.254 69.6718C175.885 70.6751 177.071 71.5075 177.071 71.5075C177.071 71.5075 172.373 60.0113 166.03 54.6372C168.174 54.5697 172.245 56.0157 172.245 56.0157C171.106 52.6525 165.162 42.3237 158.282 36.6218C155.521 33.5683 164.493 29.6044 168.051 34.0271C166.103 25.2607 152.841 28.4468 152.841 28.4468C165.096 17.9538 177.42 27.4367 176.425 38.9376C183.273 20.4743 160.589 5.25165 140.376 22.5526C140.376 22.5526 126.781 18.8247 115.277 20.9981C116.199 19.8986 118.69 18.037 118.69 18.037C117.639 18.171 108.018 18.5025 103.276 25.865C103.276 25.865 120.909 23.0727 129.975 31.3772C129.975 31.3772 118.118 27.4544 107.992 33.2212C107.992 33.2212 113.107 33.7735 115.01 35.3489C115.01 35.3489 110.038 35.7967 108.116 37.4433C115.917 37.4433 118.863 40.4288 118.863 40.4288C108.018 40.3675 100.012 46.7905 99.0343 47.8583C98.0559 46.7905 90.0502 40.3675 79.203 40.4288C79.203 40.4288 82.1511 37.4433 89.952 37.4433C88.0296 35.7967 83.0567 35.3489 83.0567 35.3489C84.9604 33.7735 90.0752 33.2212 90.0752 33.2212C79.9475 27.4544 68.0928 31.3772 68.0928 31.3772C77.1537 23.0701 94.7883 25.8618 94.7883 25.8618C90.0445 18.4994 80.4271 18.1679 79.3723 18.0339C79.3723 18.0339 81.8643 19.896 82.7855 20.9949C71.2825 18.8215 57.6861 22.5495 57.6861 22.5495C51.3727 17.1438 44.8145 14.9138 38.9916 14.9657H38.9906ZM120.844 145.29C120.753 145.292 120.659 145.308 120.565 145.341C117.576 146.369 115.98 148.405 115.331 151.339C114.015 157.279 105.312 159.219 98.7693 159.219C92.2252 159.219 83.5212 157.279 82.2072 151.339C81.5681 148.456 80.013 146.439 77.122 145.395C76.3614 145.12 75.6511 145.926 76.0044 146.672C79.0835 153.163 78.6834 164.345 86.0916 167.35C89.0204 169.433 91.2458 167.473 93.4852 170.838C95.0278 169.142 93.7408 166.559 93.5184 166.145L93.5683 166.139C94.2323 166.584 98.8005 168.524 97.4267 172.241C100.754 170.872 103.456 168.156 104.315 165.223C105.329 166.103 105.428 167.958 105.033 169.458C105.033 169.458 109.116 169.618 114.409 164.458C119.095 159.891 119.059 152.44 121.687 146.596C121.981 145.945 121.479 145.274 120.844 145.29Z" fill="#F6B000"/>
<path d="M73.3576 68.6938C70.1642 68.5701 63.9376 70.9067 63.7334 77.3848C63.7334 77.3848 64.9196 74.9942 68.2464 74.6092C67.6629 79.1472 71.7791 80.9548 75.1667 80.428C76.7099 80.1884 78.4131 79.8673 78.6386 82.7313C81.7519 77.9776 86.8786 75.5855 85.1292 71.6216C80.7917 79.0506 74.5141 68.8928 74.5141 68.8928C74.2081 68.7795 73.8137 68.7114 73.3576 68.6938ZM124.726 68.6938C124.27 68.7114 123.875 68.7795 123.569 68.8928C123.569 68.8928 117.29 79.0495 112.954 71.6206C111.205 75.5839 116.332 77.9776 119.445 82.7313C119.669 79.8673 121.374 80.1874 122.915 80.4269C126.304 80.9538 130.419 79.1456 129.835 74.6082C133.161 74.9932 134.349 77.3848 134.349 77.3848H134.35C134.147 70.9056 127.918 68.5675 124.727 68.6922L124.726 68.6938ZM38.0874 70.3741C38.0874 70.3741 28.1525 81.6147 36.0496 105.577C37.1205 104.369 38.4121 103.257 39.9122 102.569C38.0573 113.364 45.6068 123.975 45.6068 123.975C46.9317 105.3 54.8709 99.4644 54.8709 99.4644C54.8709 99.4644 50.9257 99.1755 47.6861 101.071V101.07C35.5996 89.4375 38.0858 70.3741 38.0858 70.3741H38.0874ZM159.917 70.3762C159.917 70.3762 162.404 89.4385 150.318 101.074C147.078 99.1781 143.132 99.4675 143.132 99.4675C143.132 99.4675 151.072 105.303 152.397 123.978C152.397 123.978 159.947 113.367 158.092 102.573C159.592 103.26 160.883 104.372 161.954 105.581C169.852 81.6178 159.917 70.3767 159.917 70.3767L159.917 70.3762Z" fill="#013C65"/>
<path d="M74.5042 73.1992C73.8984 73.5318 73.4708 74.1552 73.4344 74.8951C73.3762 76.0304 74.2496 76.9968 75.3849 77.0535C76.3108 77.1007 77.1172 76.5219 77.4165 75.6927C76.1866 75.2022 75.1667 74.3189 74.5042 73.1992ZM123.578 73.1992C122.915 74.3189 121.894 75.2022 120.664 75.6927C120.964 76.5219 121.769 77.1007 122.695 77.0535C123.831 76.9963 124.703 76.0304 124.647 74.8946C124.609 74.1552 124.181 73.5318 123.578 73.1992ZM90.2735 110.085C87.3217 110.151 84.5176 111.158 82.7941 114.056C87.3316 109.435 96.5734 115.371 98.646 115.371C100.719 115.371 109.961 109.435 114.497 114.056C111.049 108.26 103.283 110.024 98.646 111.764C96.3276 110.894 93.2262 110.019 90.274 110.085H90.2735ZM84.464 142.112C84.2702 142.106 84.0738 142.182 84.0162 142.342C82.2704 147.165 85.3058 151.087 87.9302 151.286C89.9051 151.436 91.1755 150.612 91.27 149.375C92.1798 150.136 92.6833 151.161 92.8631 152.083C94.7247 152.477 96.7656 152.698 98.9073 152.698C101.051 152.698 103.081 152.473 104.923 152.077C105.062 151.156 105.516 150.135 106.388 149.375C106.542 150.612 107.868 151.441 109.817 151.286C112.409 151.081 115.388 147.165 113.381 142.342C113.249 142.022 112.576 142.041 112.509 142.367C112.101 144.348 109.15 146.91 107.567 147.549C106.937 147.805 106.577 148.221 106.438 148.69C104.43 149.384 101.856 149.866 98.8403 149.866C95.8278 149.866 93.2288 149.387 91.1874 148.693C91.0269 148.224 90.6481 147.805 90.0043 147.549C88.391 146.91 85.4055 144.348 84.8896 142.367C84.847 142.204 84.6573 142.117 84.464 142.112Z" fill="white"/>
</svg>
