<svg width="200" height="200" viewBox="0 0 200 200" fill="none" xmlns="http://www.w3.org/2000/svg">
<g clip-path="url(#clip0_154_2348)">
<path d="M19.6348 78.1564L23.3423 82.2572V115.591H37.2304V92.9368L57.7787 115.591H65.2978L72.5152 102.71V78.1564H54.9182L58.6292 82.2572V98.7327L39.5024 78.1564H19.6348ZM84.1702 78.1564L87.8829 82.2572L69.1219 115.591H79.992L89.9112 97.9903L93.183 97.9885L100.055 85.7918L113.294 109.335L98.8452 109.336L102.36 115.591H131.059L109.924 78.1562H84.1791L84.1702 78.1564ZM122.91 78.1564L126.615 82.2572V100.737L134.993 115.591H174.271V78.1564H156.614L160.326 82.2572V106.975H140.496V78.1564H122.91Z" fill="#002454"/>
<path d="M177.684 39.9922C177.685 39.9928 177.685 39.9934 177.686 39.9939L177.69 39.9922H177.684ZM177.69 39.9922L177.688 39.9957C177.687 39.9951 177.687 39.9945 177.686 39.9939C177.668 40.0046 131.115 67.4741 2.7543 57.1946C2.7543 57.1946 -7.08635 88.5669 10.4338 115.947C7.20765 84.4823 11.9048 66.9783 11.9048 66.9783C134.197 74.0048 174.113 53.7566 174.113 53.7566L176.106 46.0841L174.114 53.7584C196.897 82.0405 186.744 125.706 174.4 143.384L177.593 160.007C199.346 137.097 214.589 76.0613 177.688 39.9994L177.69 39.9941L177.69 39.9922ZM174.402 143.384C174.402 143.384 148.736 125.908 103.224 126.481C100.189 126.519 97.0667 126.637 93.8579 126.846C93.8579 126.846 129.252 128.186 177.591 160.009L174.402 143.384ZM100.063 91.6229L94.9391 100.707H91.662L88.1308 106.975H108.714L100.063 91.6229Z" fill="#FAC01A"/>
</g>
<defs>
<clipPath id="clip0_154_2348">
<rect width="200" height="200" fill="white"/>
</clipPath>
</defs>
</svg>
