<svg width="200" height="200" viewBox="0 0 200 200" fill="none" xmlns="http://www.w3.org/2000/svg">
<g clip-path="url(#clip0_154_2356)">
<path d="M99.9994 51.6105L22.9336 0V45.7771L32.5096 52.156V133.454C32.5096 146.096 37.7698 157.933 47.7924 167.338C53.5006 173.044 62.5822 179.352 68.0818 182.477C83.142 191.034 99.9994 200 99.9994 200C99.9994 200 116.858 191.034 131.92 182.477C137.418 179.352 146.498 173.044 152.206 167.338C162.229 157.933 167.491 146.096 167.491 133.454V52.156L177.065 45.7771V0L99.9994 51.6105Z" fill="#154734"/>
<path d="M32.502 17.9023V40.629L41.4695 46.6222C41.4707 81.3587 41.467 133.055 41.467 133.055C41.467 145.777 48.7669 157.229 60.4133 165.209H60.4158V112.485L95.2128 89.1543V59.9313L32.502 17.9023ZM167.508 17.9159L104.8 59.9226V89.1617L139.596 112.49V133.251C139.481 140.234 134.354 147.95 123.742 152.507V113.978L104.792 101.28L104.785 176.615C118.591 175.973 130.025 171.766 139.596 165.213C151.246 157.23 158.547 145.778 158.547 133.054L158.544 102.382L121.814 77.7539V71.3243L139.596 59.3997V78.32L158.544 91.0234V46.637L167.507 40.6537V17.9135L167.508 17.9159ZM60.4219 59.4059L78.2049 71.3268V77.7539L60.4219 89.6735V59.4059Z" fill="white"/>
</g>
<defs>
<clipPath id="clip0_154_2356">
<rect width="200" height="200" fill="white"/>
</clipPath>
</defs>
</svg>
