<svg width="200" height="200" viewBox="0 0 200 200" fill="none" xmlns="http://www.w3.org/2000/svg">
<path d="M194.996 107.323C194.905 99.3285 192.797 91.3308 188.9 84.1977C185.136 77.3058 179.77 71.3194 173.382 66.884L153.743 53.2498L179.481 21.3216L163.278 18.3352C152.46 16.791 139.949 15.9399 128.051 15.9399C112.745 15.9399 90.7479 17.338 72.8838 24.0057C72.8838 24.0057 53.4297 29.5878 31.6958 45.0057C19.7416 53.4825 15.8124 59.1461 11.2716 67.5244C7.01283 75.3811 4.90636 83.6949 5.00319 92.2345C5.09153 100.229 7.19968 108.225 11.0966 115.358C14.8611 122.25 20.2274 128.238 26.6148 132.672L37.1284 139.971L8.58757 177.454L21.2195 179.697C22.2218 179.875 46.1216 184.062 73.6992 184.062C92.7729 184.062 108.954 182.039 121.786 178.051C123.274 177.589 124.718 177.098 126.118 176.583L125.681 176.918C125.681 176.918 167.647 164.092 188.725 132.031C193.633 124.565 195.092 115.863 194.996 107.323Z" fill="white"/>
<path d="M165.532 74.6484C165.316 90.7853 148.126 99.9776 127.635 98.0424C129.619 98.9882 140.488 104.392 149.948 113.159C163.464 110.286 172.122 93.7561 165.532 74.6484ZM50.0492 86.3848C36.5339 89.2577 27.8784 105.782 34.4628 124.895C34.6789 108.753 51.8703 99.5617 72.3654 101.498C70.3786 100.548 59.5106 95.1463 50.0492 86.3848Z" fill="#C4B681"/>
<path d="M129.227 23.7645C92.7408 23.5919 50.7285 31.3559 49.2377 60.6153C48.107 82.0862 78.6859 99.0072 85.5367 103.444C95.2196 109.705 127.465 126.499 124.306 142.673C121.493 157.067 100.898 159.959 100.898 159.959C100.898 159.959 122.084 148.517 112.396 132.032C112.108 132.435 110.174 154.016 59.7781 146.767L61.9634 120.266L22.5835 171.984C22.5835 171.984 131.606 191.341 148.979 147.382C159.401 121.012 121.44 101.334 113.572 96.1506C105.904 91.1019 73.8968 74.4405 75.5235 58.604C78.5106 29.5213 162.16 26.0789 162.16 26.0789C152.931 24.762 141.385 23.823 129.222 23.7645H129.227ZM162.595 29.4628C131.273 33.7654 114.599 38.522 114.599 38.522C109.454 40.1704 58.9314 53.7048 104.404 84.845C103.409 83.5757 94.4232 73.1956 102.899 64.0794C102.899 64.0794 112.128 53.0171 143.96 52.9818L162.592 29.4628H162.595ZM36.3026 51.3251C2.04347 76.2874 9.72185 111.41 31.0759 126.236C19.5529 96.4876 33.6227 81.8158 43.8859 79.8452C32.3194 65.8339 35.808 53.2658 36.3026 51.3251ZM168.914 73.3084C180.436 103.053 166.368 117.733 156.104 119.702C167.67 133.715 164.18 146.279 163.685 148.218C197.947 123.26 190.271 88.1352 168.914 73.3084Z" fill="#004E38"/>
</svg>
