<svg width="200" height="200" viewBox="0 0 200 200" fill="none" xmlns="http://www.w3.org/2000/svg">
<g clip-path="url(#clip0_154_2355)">
<path fill-rule="evenodd" clip-rule="evenodd" d="M119.459 102.546H106.848L113.115 83.9808H113.269L119.459 102.546ZM123.557 114.15L127.35 124.285H143.516L121.545 65.9531H104.992L82.5566 124.285H98.6476L102.67 114.15H123.557Z" fill="#00264F"/>
<path fill-rule="evenodd" clip-rule="evenodd" d="M200 125.03C185.91 151.056 157.44 172.103 113.324 172.103C71.2602 172.103 48.5063 151.056 26.4578 125.03C16.7754 113.597 9.02799 104.822 0 97.3104C9.35614 91.9166 20.6567 80.4275 27.4235 73.0912C51.72 46.7522 73.5138 27.8984 113.32 27.8984C150.771 27.8984 183.768 41.4621 199.894 76.0144H173.542C162.472 60.3441 140.012 49.6942 114.58 49.6942C78.1854 49.6942 48.6855 71.607 48.6855 98.6362C48.6855 125.664 78.1854 147.574 114.58 147.574C137.689 147.574 158.66 138.098 170.423 124.728L200 125.03Z" fill="#00264F"/>
</g>
<defs>
<clipPath id="clip0_154_2355">
<rect width="200" height="200" fill="white"/>
</clipPath>
</defs>
</svg>
