<svg width="200" height="200" viewBox="0 0 200 200" fill="none" xmlns="http://www.w3.org/2000/svg">
<g clip-path="url(#clip0_154_2351)">
<path d="M193.098 132.641H189.522H118.004C113.597 132.641 109.771 134.387 107.36 137.298C105.946 135.634 104.116 134.304 101.871 133.555C100.042 132.973 98.0457 132.641 95.8004 132.641H12.2245H8.14969H0L6.48649 137.63L9.72973 140.125L12.474 142.204L16.2162 155.51L18.9605 165.572L19.8753 168.898C20.3742 170.645 21.0395 173.223 24.2827 173.223H24.6154H24.7817H24.8649C58.2952 167.401 90.894 166.819 103.368 166.819C106.445 166.819 108.358 166.902 108.94 166.902C109.522 166.902 113.347 167.152 115.26 167.152C150.353 167.568 173.056 171.31 180.457 172.557C182.703 172.89 183.285 173.056 183.867 173.056C184.532 173.056 185.114 172.973 185.613 172.724H185.696L185.863 172.641L186.029 172.557L186.112 172.474C187.775 171.476 187.859 169.647 187.942 167.734C187.942 167.069 188.025 166.237 188.108 165.156C188.274 162.994 188.524 160 188.773 156.84C189.189 151.435 189.688 144.865 189.938 142.204L192.266 140.042L194.844 137.63L200 132.807L193.098 132.641Z" fill="#A1A1A4"/>
<path d="M166.486 41.0826C166.486 40.9995 167.234 38.8373 167.234 38.8373C167.234 38.671 167.9 35.5941 167.9 35.5941C167.9 35.5941 165.571 37.8394 161.663 40.0016C159.667 41.0826 153.097 43.4111 146.86 42.9122C140.623 42.4132 134.968 42.0806 131.642 42.4132C131.475 42.33 131.392 42.1637 131.392 42.1637C129.729 40.9163 127.151 40.75 124.739 40.0016C125.405 39.4194 127.401 37.5899 127.401 37.5899L120.166 37.0078C113.762 36.5088 110.769 36.9246 105.862 39.0036C100.623 37.091 91.1428 35.0119 85.571 36.5088L78.9182 38.2552C78.9182 38.2552 80.5814 39.3363 81.2467 39.7521C78.8351 40.5005 78.0035 41.4153 75.0097 42.7458C75.0097 42.7458 72.9307 43.6606 72.5981 43.8269C67.7748 43.328 63.2841 43.4111 61.3715 43.4943C56.465 40.6668 51.1428 38.5047 46.9848 36.9246C42.6604 35.4277 42.0783 32.933 40.7478 31.4361L37.1719 26.7791C37.1719 26.7791 37.6708 34.8456 37.6708 36.093C37.5877 39.4194 38.7519 46.2386 46.9016 54.2219H46.8184L50.4775 59.2115C52.0575 61.3737 54.3028 63.4527 56.964 65.3654C54.2197 67.1117 49.1469 66.6959 47.0679 66.7791L39.6667 67.1117L45.0721 72.0182C46.4026 73.2656 49.3964 75.4277 51.4754 76.093C51.1428 80.251 49.8954 83.9932 49.2301 85.407C48.5648 86.8207 43.0762 95.7188 43.0762 95.7188C43.0762 95.7188 50.4775 93.3903 51.4754 93.1408C43.1594 105.615 60.2072 133.058 60.2072 133.058L63.2841 127.07C63.2841 127.07 63.6168 126.405 63.6999 126.322C63.7831 127.486 64.2821 130.563 64.9473 133.889L66.86 142.621L70.5191 134.305C71.4338 132.143 72.6812 130.064 74.1781 127.819C74.1781 128.401 76.0076 140.708 76.0076 140.708L81.3299 131.478C83.9078 127.403 89.0638 123.993 91.4754 122.413C92.1407 123.993 106.361 129.981 117.837 121.748C119.5 123.827 123.825 126.571 124.906 129.149L129.064 139.128L132.307 127.07L137.546 139.212C137.546 139.212 144.282 122.995 146.028 112.018C146.777 113.515 149.771 123.078 149.771 123.078C149.771 123.078 152.099 115.428 152.349 109.191C152.432 107.195 152.515 104.783 151.101 100.875C151.6 101.623 155.426 106.779 155.426 106.779C155.426 106.779 154.843 90.8124 151.85 83.6606C150.27 80.0847 148.024 77.4236 146.777 75.1783C147.026 74.9288 148.357 75.0119 149.687 72.1013C150.852 69.5234 152.764 67.6939 152.764 67.6939L147.608 67.1949C145.945 67.1949 144.947 66.5296 143.118 65.7812C146.611 65.7812 150.436 63.2032 150.436 63.2032C153.263 60.1263 159.75 57.0494 166.486 41.0826Z" fill="black"/>
<path d="M153.264 55.2196C151.518 56.6333 146.777 59.045 145.281 58.8787C145.364 58.9618 149.439 60.0429 149.439 60.0429C147.858 61.7893 146.445 62.5377 143.784 63.4525C140.956 64.4504 137.463 64.2841 134.553 63.702C138.295 67.6105 142.037 69.939 146.944 69.939C145.447 71.6853 144.782 73.9306 142.37 74.3464C144.698 76.7581 149.189 81.6645 150.104 94.7207C148.69 92.808 145.031 91.6437 142.037 89.4816C150.104 98.2134 149.938 104.949 149.522 113.016C148.441 110.771 147.027 107.777 144.865 104.367C144.698 116.176 137.048 131.561 137.048 131.561C137.048 131.561 134.47 119.253 129.314 115.76C130.728 120.417 129.646 125.074 128.399 128.733C126.403 123.827 121.497 121.249 117.838 117.922C107.193 126.155 93.9708 121.332 93.1392 118.172C87.9832 119.586 81.7462 125.324 78.8356 129.897C78.6693 125.407 75.8419 119.752 78.5862 116.01C72.5986 120.583 70.4365 126.904 67.7753 133.141C66.5279 124.825 64.6153 118.255 66.4448 110.438C61.9541 114.263 60.7899 125.573 60.7899 125.573C57.713 117.008 47.4011 100.958 59.0435 87.8184C57.3803 88.3173 52.3907 88.7331 51.3097 88.9826C55.2182 81.6645 54.8855 80.0845 56.4656 74.6791C54.3866 74.9286 50.2286 71.6853 48.0664 69.7726C53.3887 69.5232 59.4593 69.1905 64.6153 63.702C63.3679 63.8683 136.05 45.8225 139.792 45.7394C148.357 45.4067 160.915 45.5731 163.742 41.8309C163.825 42.1635 161.497 48.5668 153.264 55.2196Z" fill="white"/>
<path d="M112.932 114.514C112.433 114.847 111.601 114.93 110.437 114.764C110.354 114.764 110.271 114.68 110.188 114.597C110.188 114.68 110.188 114.764 110.188 114.93C109.772 115.429 107.693 115.512 107.526 115.096C107.443 115.263 107.36 115.346 107.194 115.429C105.281 115.595 104.616 115.263 104.616 114.764C104.616 114.93 104.533 115.096 104.533 115.263C103.951 115.678 102.786 115.179 102.204 115.179C101.955 115.096 101.872 114.93 101.872 114.764C101.705 115.013 101.456 115.179 101.123 115.263C99.9589 115.429 98.7115 115.678 98.2125 114.431C97.1314 111.936 97.3809 110.356 97.7135 108.111C98.3788 110.439 101.539 111.437 102.038 113.849V113.932C102.37 113.1 103.036 112.186 103.618 111.687C104.034 112.518 104.616 113.682 104.699 114.597C104.782 114.015 105.364 113.184 105.614 112.518C105.78 112.352 105.78 112.019 105.946 112.019C106.279 112.685 107.027 113.599 107.36 114.348C107.36 113.433 108.025 112.601 108.608 111.687C108.774 112.352 109.439 112.851 109.855 113.516C109.938 112.768 110.271 111.936 110.77 111.354C112.183 109.774 113.181 108.859 113.431 107.362C114.429 110.606 114.013 113.682 112.932 114.514ZM119.834 88.1523C119.169 90.8966 117.589 94.9715 115.26 97.1336C116.092 94.0567 114.761 91.0629 114.928 88.0692C114.678 87.986 114.429 87.986 114.262 87.9028C113.93 88.4018 113.431 88.9008 113.015 89.6492C111.768 88.7344 111.352 87.3207 111.269 86.1565C111.185 86.1565 111.185 86.0733 111.102 86.0733C110.687 87.0712 109.772 87.986 109.19 88.8176C108.192 87.7365 107.61 86.7386 107.443 85.6575H107.111C106.695 86.7386 105.78 87.9028 104.948 88.7344C104.2 88.2355 103.535 87.3207 103.202 86.3228C103.119 86.3228 103.036 86.406 102.953 86.406C102.454 87.5702 101.539 88.9839 101.123 89.9818C100.208 89.3166 99.7094 88.485 99.5431 87.487C99.3767 87.487 99.2936 87.5702 99.1273 87.5702C98.8778 88.4018 98.7115 89.1502 98.6283 89.3997C98.2125 91.8114 97.963 92.2272 98.2957 96.0525C96.2998 94.0567 94.0545 91.3956 93.2229 88.8176C90.2291 89.7324 86.1543 89.2334 81.9963 86.9049C78.0046 86.5723 86.9859 103.121 92.8071 109.109C95.8009 112.851 96.1335 117.591 98.6283 117.591C103.951 118.506 105.198 118.256 112.433 117.425C117.173 115.263 115.26 110.19 116.508 106.614C118.254 100.46 118.919 97.4663 122.163 91.7282C123.743 88.485 122.163 88.1523 119.834 88.1523Z" fill="black"/>
<path d="M40.5814 35.2599C40.5814 35.2599 40.0824 39.501 42.993 44.9064C44.4899 47.6507 49.3963 54.8025 57.8787 57.7131C55.6333 57.4636 54.0533 57.2973 53.1385 57.5468C54.2196 58.7942 54.5522 60.5405 60.2903 64.0332C61.2051 64.449 63.9493 63.9501 64.282 63.7838C64.3651 63.7838 64.282 63.7838 64.1988 63.9501C62.203 65.1143 60.7893 66.528 59.7082 67.9418C58.1281 70.1871 53.6375 71.7671 52.8059 71.8503C53.4712 72.5156 56.9639 74.6777 60.6229 74.0125C57.2965 76.7567 57.2965 82.1621 55.966 86.3202C58.8766 85.4054 62.0367 85.9043 61.9535 85.9875C52.8059 101.039 59.4587 114.927 59.8745 117.671C59.8745 117.671 63.4504 109.605 68.5231 103.368C67.6084 110.437 68.6063 117.339 70.2695 123.742C72.6811 111.185 73.0969 104.532 81.2466 95.5509C79.6666 90.8939 77.3381 88.5655 80.914 85.8212C73.6791 77.0894 77.6707 71.4345 83.6583 68.6902C81.1635 68.6902 78.336 68.2744 76.756 66.3617C74.9265 64.1164 75.5917 63.0353 76.6728 62.6195C77.7539 62.2037 80.7477 61.9542 82.1614 63.5343C84.9057 66.6112 84.6562 65.8628 85.4046 66.6944C85.7373 67.027 86.1531 67.2765 86.652 67.4428C88.8974 66.7775 91.1427 66.528 93.0554 66.528C93.5543 66.528 94.1364 66.4449 94.6354 66.3617C96.2986 66.2786 97.3797 66.2786 97.3797 66.2786C97.1302 66.1954 96.9639 66.1122 96.7976 66.0291C97.7123 65.8628 98.3776 65.6964 98.3776 65.6964L98.6271 60.0416C98.6271 60.0416 99.625 65.5301 100.124 67.526C100.29 71.5177 101.288 72.6819 101.288 72.6819C101.288 72.6819 108.357 70.6029 116.091 74.0125C116.839 71.4345 116.673 67.6923 116.34 64.6154L117.504 67.4428C117.504 67.4428 125.321 62.3701 133.887 62.869C135.8 62.7027 142.951 61.289 146.278 59.2931C145.696 59.1268 143.617 57.6299 143.7 56.7152C143.7 56.4657 150.519 54.2204 152.931 52.8066C158.336 49.6466 163.741 41.9127 163.741 41.9127C163.741 41.9127 161.33 44.158 155.342 44.6569C145.862 45.5717 129.646 45.0727 127.317 47.1517C127.733 45.4054 128.066 45.0728 128.232 44.3243C128.149 44.3243 128.066 44.4075 127.983 44.4075C128.149 44.3243 128.232 44.2411 128.232 44.2411C128.232 44.2411 126.902 41.1642 118.336 41.7463C117.92 41.7463 120.498 40.0832 120.166 40C117.172 39.0021 109.771 39.6673 106.028 42.3285C101.205 39.4179 91.808 38.1705 86.4026 39.3347C85.9868 39.4179 88.731 40.9979 88.3152 40.9979C81.4961 41.2474 76.4233 45.4885 76.4233 45.4885C76.4233 45.4885 77.7539 46.5696 77.8371 47.7339C72.3485 46.1538 64.4483 45.9875 60.7061 46.4865C56.6312 43.2432 48.1489 40.4158 43.5751 37.921C42.3277 36.6736 41.2466 35.4262 40.5814 35.2599ZM87.0678 58.3784C87.3173 58.3784 87.65 58.4615 87.9826 58.5447C90.4774 59.2931 93.7206 64.1164 93.7206 64.1164C93.7206 64.1164 89.23 62.2037 86.8184 61.2058C84.573 60.291 85.1552 58.2952 87.0678 58.3784ZM125.654 60.9563C127.733 61.1227 127.151 62.869 125.405 63.4511C123.658 63.9501 120.415 65.1143 119.168 65.7796C119.168 65.7796 123.575 60.7068 125.654 60.9563ZM105.696 97.5468C105.28 97.5468 104.947 97.6299 104.531 97.7131C103.45 97.9626 105.28 103.202 105.28 103.867C104.448 103.035 102.369 97.8794 102.452 97.8794C97.2134 96.7152 96.7976 99.21 96.7976 99.21C96.5481 107.36 101.704 110.852 101.704 110.852L102.785 109.605L104.531 111.102L105.613 109.106L107.276 111.185C107.276 111.185 108.107 109.522 108.856 109.106C109.105 108.94 109.521 110.353 109.687 110.187C113.845 105.53 111.184 98.9605 111.184 98.9605C111.184 98.9605 108.357 97.4636 105.696 97.5468Z" fill="#A1A1A4"/>
<path d="M101.789 75.6788C101.789 75.6788 97.1319 69.5249 104.284 70.6892C109.356 71.5208 109.606 72.1861 113.681 71.105C117.839 70.0239 116.508 75.4293 115.427 75.263C113.514 71.8534 109.855 74.9303 110.937 76.1777C111.768 77.0925 112.101 77.5083 112.018 78.1736C111.934 78.8389 108.275 82.5811 108.691 83.08C109.107 83.579 112.433 83.6621 113.847 85.2422C110.853 84.8264 105.697 83.6621 100.458 84.7432C99.9594 84.2443 104.783 83.1632 106.363 83.1632C107.943 83.1632 104.533 78.5894 104.616 77.5915C105.032 76.5935 105.947 76.5104 106.196 75.8451C106.612 74.764 106.196 73.6829 104.783 73.6829C102.122 73.5166 101.872 74.8472 101.789 75.6788Z" fill="black"/>
<path d="M98.4614 56.1359C97.214 56.3854 96.8813 56.219 95.8834 56.3022C95.2181 56.5517 94.4697 56.8843 94.8855 58.2149C95.2181 59.6286 96.2992 62.2066 96.8813 64.0361C92.8065 59.7118 91.7254 56.5517 81.4967 52.56C85.4053 55.8864 88.3159 58.0486 92.4739 63.454C87.6506 61.8739 82.661 59.3791 78.503 57.4664C79.0851 58.4644 80.1662 59.5454 80.8315 60.3771C79.5841 60.7097 75.5092 60.5434 73.6797 63.8698C76.3408 63.2877 79.4177 63.0382 82.162 63.3708C82.4115 62.2897 83.9084 62.6224 84.5737 62.955C83.7421 64.7845 84.0747 67.4456 85.9042 68.1109C88.1495 68.5267 89.3969 67.8614 91.9749 67.5288C94.636 67.3625 96.0497 67.8615 97.7129 68.2773C99.2098 68.6931 100.208 68.8594 100.208 68.8594C99.7919 65.8656 98.9604 61.375 98.4614 59.2128C99.7088 59.0465 101.871 58.797 101.455 58.1317C99.5425 52.8095 98.5445 51.1463 97.4635 48.7346C97.6298 51.1463 97.8793 53.2253 98.4614 56.1359Z" fill="black"/>
<path d="M115.675 57.6328C116.673 57.9655 117.089 57.7992 117.92 57.9655C118.503 58.215 118.835 59.3792 118.336 60.4603C117.92 61.7077 117.837 62.5393 117.255 64.1193C119.334 60.294 124.823 58.7139 130.394 56.3854C126.153 60.2108 123.908 61.2087 120.166 65.2836C123.991 63.7035 128.482 62.0403 132.723 60.8761C132.141 61.7077 131.143 62.6225 130.478 63.2877C131.559 63.7035 132.557 64.3688 133.555 64.9509C132.058 66.2815 131.808 66.2815 130.145 67.2794C130.062 65.6994 127.983 65.0341 127.068 64.6183C127.733 66.1152 128.066 69.4416 125.072 70.0237C123.076 70.2732 121.995 69.1089 119.999 68.9426C119.251 68.61 119.5 67.5289 119.5 66.7805C118.752 67.6121 118.752 68.2773 118.004 68.8595L116.756 69.4416C116.34 66.032 115.259 62.2898 115.176 60.4603C114.095 60.2108 111.85 59.5455 112.266 58.9634C114.261 54.4728 118.586 51.6453 120.665 49.899C120.415 51.8116 116.34 55.138 115.675 57.6328Z" fill="black"/>
<path d="M88.3167 61.9538C87.1525 61.9538 86.3209 63.2843 86.404 64.6149C86.4872 66.1118 87.4851 67.6087 89.0651 67.6087C91.3936 67.5255 92.1421 66.2781 92.1421 64.6981C92.1421 64.1991 91.9758 63.2843 91.56 63.118C91.061 62.9517 90.562 62.7854 90.2294 62.6191C90.3125 62.6191 90.3126 62.7022 90.3126 62.7022C90.562 62.8685 90.562 64.1159 90.562 64.2823C90.562 65.4465 89.8136 66.7771 89.3146 66.6107C88.8988 66.5276 88.2335 65.5297 88.1504 64.6149C87.9841 63.5338 88.3167 62.2033 89.2315 62.2864C89.1483 62.2864 88.8988 62.1201 88.8157 62.1201C88.6493 62.0369 88.483 61.9538 88.3167 61.9538ZM124.242 63.7833C124.159 63.7833 124.159 63.7833 124.076 63.7833C123.992 63.7833 123.909 63.8665 123.826 63.8665C124.159 63.8665 124.575 64.9475 124.575 65.1139C124.907 66.4444 124.658 68.1908 123.66 68.4403C123.244 68.6066 122.579 67.6087 122.412 66.6107C122.246 65.6128 122.329 64.6149 122.745 64.2823C122.495 64.3654 122.329 64.4486 122.08 64.5317C120.832 64.9475 120.749 67.276 121.498 68.2739C122.329 69.2719 123.992 69.5214 124.99 68.6898C125.988 67.775 126.071 66.0286 125.406 64.9475C125.24 64.6149 124.658 63.8665 124.242 63.7833ZM134.886 65.8623C133.888 70.0203 126.82 71.0182 127.402 71.0182C131.726 70.8519 136.633 80.0827 131.31 84.5733C127.818 87.1513 128.4 86.5692 124.408 88.066C126.654 88.9808 126.737 90.2282 123.078 95.8831C136.799 97.8789 136.051 120.083 136.55 123.492C140.209 118.087 141.373 112.848 142.537 102.203C142.62 101.372 144.117 101.205 145.78 103.035C145.614 101.621 144.699 95.301 140.874 92.3072C140.375 88.7313 139.46 87.5671 138.462 86.3197C138.213 86.0702 144.117 86.3197 147.527 89.9787C146.362 80.0827 139.793 74.4278 139.793 74.4278C139.793 74.4278 143.784 72.5151 144.034 71.6004C139.876 71.6835 135.552 69.1055 134.886 65.8623ZM70.0215 80.4985C68.0257 82.9101 66.0298 86.3197 64.4498 97.1305C66.6951 94.6357 67.7762 92.723 67.7762 92.723C67.7762 92.723 64.4498 106.86 70.1046 123.991C71.851 116.257 72.0173 109.189 76.4248 101.954C72.1836 94.802 71.0194 88.3155 70.0215 80.4985ZM8.15039 135.384L11.3936 137.879L14.8032 140.54L18.7949 154.76L21.6223 164.823L22.5371 168.149C23.036 169.812 23.2024 170.395 24.2003 170.395H24.2834H24.3666C58.0464 164.573 90.8115 163.908 103.286 163.908C106.861 163.908 108.94 163.991 109.024 163.991C109.19 163.991 113.348 164.241 115.261 164.241C150.604 164.656 173.389 168.399 180.874 169.646C182.787 169.979 183.452 170.062 183.868 170.062C184.117 170.062 184.283 170.062 184.533 169.979L184.616 169.896L184.699 169.812C185.365 169.397 185.115 168.232 185.448 164.656C186.03 158.17 187.028 143.201 187.444 140.54L190.52 137.713L193.098 135.301H189.523H118.005C112.35 135.301 108.109 138.711 107.36 143.617C106.695 139.459 103.784 136.964 100.957 136.049C99.4602 135.55 97.7138 135.301 95.8011 135.301H12.2252L8.15039 135.384Z" fill="#4B2682"/>
<path d="M82.745 70.6047C82.745 70.6047 81.0818 71.27 80.7491 72.9332C80.7491 72.9332 84.4913 72.3511 96.2169 74.1806C89.6473 70.3552 82.745 70.6047 82.745 70.6047ZM128.816 72.7669C128.816 72.7669 123.577 72.5174 118.587 76.1765C127.485 74.3469 130.313 74.9291 130.313 74.9291C130.063 73.4322 128.816 72.7669 128.816 72.7669ZM80.0007 74.1806C80.0007 74.1806 79.2523 75.5943 79.2523 77.0081C79.2523 77.0081 85.6556 76.0933 97.1317 77.9228C91.8926 74.4301 80.0007 74.1806 80.0007 74.1806ZM130.895 76.0933C130.895 76.0933 121.913 76.4259 117.922 79.586C126.653 77.8396 131.477 78.6713 131.477 78.6713C131.394 77.4239 130.895 76.0933 130.895 76.0933ZM84.9903 78.3386C81.5807 78.2554 79.0859 78.6713 79.0859 78.6713C79.0859 78.6713 79.1691 80.1681 79.5849 81.1661C79.5849 81.1661 87.0693 80.4176 96.799 81.1661C92.8905 79.0871 88.3999 78.5049 84.9903 78.3386ZM128.899 80.0018C126.238 79.9186 121.913 80.2513 118.171 82.7461C125.572 82.0808 131.061 82.6629 131.061 82.6629C131.643 81.9145 131.477 80.3345 131.477 80.3345C131.477 80.3345 130.479 80.085 128.899 80.0018Z" fill="black"/>
<path d="M53.4727 50.8118C57.3812 54.1382 62.4539 57.2982 67.4436 57.0488C66.4456 56.3835 65.5309 55.635 64.4498 54.9698V54.6371C66.1961 54.4708 67.7762 53.6392 69.3562 53.1402C63.4519 53.3066 58.9612 53.3066 53.4727 50.8118ZM155.51 50.8949C150.188 53.1402 145.032 55.7182 138.296 54.6371C140.125 55.3856 141.29 56.2172 143.119 56.9656C140.292 59.7099 137.464 61.5394 133.722 62.9531C137.547 62.7036 141.539 62.87 144.866 60.6246C144.866 60.6246 146.612 59.7099 146.861 57.714C150.105 56.7161 154.096 52.8908 155.51 50.8949Z" fill="black"/>
<path d="M88.3991 62.0388C88.0664 62.0388 87.7338 62.122 87.5675 62.3714C87.1517 62.7872 88.9812 64.4504 88.9812 64.4504C88.9812 64.4504 89.3138 62.8704 88.898 62.0388C88.9812 62.0388 88.7317 61.9557 88.3991 62.0388ZM123.16 64.1178C123.16 64.1178 122.162 64.201 121.829 64.6168C121.497 65.0326 123.576 66.6958 123.576 66.6958C123.576 66.6958 123.659 64.8662 123.16 64.1178ZM145.197 139.378L140.208 151.186C137.131 158.421 136.466 159.918 135.717 160.001V160.417C136.299 160.417 137.131 160.5 138.461 160.583C139.543 160.667 140.624 160.667 141.622 160.75V160.334C140.624 160.251 141.123 158.421 142.204 155.677H148.524C149.605 158.421 150.353 160.75 149.355 160.833V161.249C150.353 161.332 151.518 161.415 152.682 161.498C154.012 161.581 155.01 161.748 155.676 161.748V161.249C154.844 161.166 153.929 158.338 150.935 151.186L146.029 139.378H145.197ZM117.838 139.544C113.68 139.544 111.351 142.122 111.351 145.199C111.351 147.278 112.266 148.858 114.179 150.272C114.927 150.854 115.676 151.436 116.341 152.018C117.256 152.766 117.838 153.515 117.838 154.43C117.838 155.927 116.674 156.758 115.01 156.758C114.179 156.758 113.347 156.592 112.765 156.259C112.266 155.927 111.933 155.428 111.767 154.762H111.268C111.185 156.758 111.185 158.006 111.102 159.253C112.017 159.669 113.597 160.001 115.177 160.001C119.335 160.001 121.829 157.59 121.829 154.346C121.829 152.101 120.665 150.604 118.919 149.191C117.838 148.276 117.006 147.694 116.341 147.112C115.676 146.529 115.26 145.864 115.26 145.033C115.26 143.702 116.341 142.787 117.921 142.787C118.586 142.787 119.085 142.954 119.501 143.203C119.917 143.453 120.249 143.868 120.416 144.45H120.832C120.832 142.704 120.915 141.457 120.915 140.043C120.249 139.71 118.919 139.544 117.838 139.544ZM65.6964 139.627C64.6153 139.627 63.4511 139.71 62.7026 139.71C62.0373 139.71 60.8731 139.71 60.291 139.71V140.126C61.2889 140.209 61.2889 141.041 61.2889 147.694V151.103C61.2889 158.255 61.2889 160.916 60.2078 160.916V161.332C61.1226 161.332 64.3658 160.999 65.1974 160.999C68.1912 160.833 69.9375 160.583 71.1849 159.669C72.8482 158.338 73.3471 156.01 73.3471 154.014C73.3471 151.436 71.4344 149.606 69.2723 149.274C71.1018 148.858 72.5155 147.112 72.5155 144.949C72.5155 141.956 70.5197 140.625 69.0228 140.126C68.1912 139.793 66.9438 139.627 65.6964 139.627ZM95.634 139.627C94.8024 139.627 93.555 139.627 92.8066 139.71C91.7255 139.71 90.8107 139.793 90.1454 139.793V140.209C91.2265 140.292 91.2265 141.124 91.2265 147.86V151.27C91.2265 158.421 91.2265 159.502 90.1454 159.669V160.085C90.8107 160.085 91.8918 160.085 93.056 160.085C94.1371 160.085 95.3014 160.001 95.8835 160.001V159.502C94.8856 159.419 94.8856 158.504 94.8856 153.182V152.101C95.1351 152.101 95.4677 152.101 95.7172 152.101C97.4635 154.679 99.1267 157.257 100.707 159.586C100.956 159.835 101.372 159.918 101.871 159.918H106.029V159.586C105.447 159.502 104.698 158.671 103.95 157.673C100.873 153.432 100.125 152.434 99.2931 151.436V151.353C99.792 151.186 100.374 150.854 100.873 150.438C101.871 149.69 103.035 148.193 103.035 145.864C103.035 142.704 101.206 141.041 99.3762 140.376C98.3783 139.793 97.1309 139.627 95.634 139.627ZM169.148 139.627V140.043C170.145 140.126 170.145 141.041 170.145 147.694V151.103C170.145 158.255 170.145 162.496 169.064 162.662V162.995C169.979 163.161 172.308 163.411 174.969 163.827C177.214 164.159 179.127 164.409 180.707 164.741C180.707 163.494 180.873 160.583 180.873 158.754H180.457C180.291 159.669 179.543 160.001 178.295 159.835C177.214 159.752 176.133 159.669 174.387 159.336C173.971 159.253 173.888 159.17 173.888 158.588V150.937H176.798C178.545 150.937 179.127 151.02 179.293 151.685H179.626C179.626 150.854 179.626 150.105 179.626 149.357C179.626 148.692 179.626 148.026 179.626 147.278H179.459C179.293 147.86 178.794 147.86 176.965 147.86H174.054V142.704H177.464C179.21 142.704 180.125 142.954 180.291 143.951H180.707C180.707 142.122 180.79 140.875 180.79 139.627C179.21 139.627 176.881 139.627 174.719 139.627C172.224 139.627 170.062 139.627 169.148 139.627ZM45.9043 139.627V140.043C46.9022 140.126 46.9022 141.041 46.9022 147.694V151.103C46.9022 158.255 46.9022 162.164 45.8211 162.247V162.662C47.4012 162.579 48.4822 162.413 51.975 162.08C54.054 161.831 55.634 161.748 57.713 161.581C57.713 160.334 57.6299 158.255 57.713 156.425H57.2972C57.1309 157.257 56.5488 157.673 55.1351 157.839C53.8876 158.006 52.5571 158.172 51.2265 158.089C50.7276 158.006 50.7276 157.922 50.7276 157.34V151.02H53.6382C55.3845 151.02 55.9666 151.103 56.133 151.769H56.4656C56.4656 150.937 56.4656 150.188 56.4656 149.44C56.4656 148.775 56.4656 148.109 56.4656 147.361H56.133C55.9666 147.943 55.4677 147.943 53.6382 147.943H50.7276V142.787H54.1371C55.8835 142.787 56.7983 143.037 56.9646 144.035H57.3804C57.3804 142.205 57.4635 140.958 57.4635 139.71C55.8835 139.71 53.555 139.71 51.3928 139.71C48.9812 139.71 46.819 139.627 45.9043 139.627ZM75.7588 139.627V140.043C76.7567 140.126 76.7567 141.041 76.7567 147.694V151.103C76.7567 158.255 76.7567 159.835 75.6756 159.918V160.334C76.5072 160.334 78.5862 160.251 81.58 160.168C83.4926 160.085 85.738 159.918 87.4843 160.001C87.4843 158.754 87.4012 157.257 87.4843 155.428H87.0685C86.9022 156.342 86.1538 156.509 84.9064 156.509C83.7421 156.509 82.3284 156.509 80.9978 156.509C80.4989 156.425 80.4989 156.342 80.4989 155.76V151.103H83.4095C85.1558 151.103 85.738 151.186 85.9043 151.852H86.2369C86.2369 151.02 86.2369 150.272 86.2369 149.523C86.2369 148.858 86.2369 148.193 86.2369 147.444H85.9043C85.738 148.026 85.239 148.026 83.4095 148.026H80.4989V142.87H83.9084C85.6548 142.87 86.5696 143.12 86.7359 144.118H87.1517C87.1517 142.288 87.2348 141.041 87.2348 139.793C85.6548 139.793 83.3263 139.793 81.1642 139.793C78.8357 139.71 76.6735 139.627 75.7588 139.627ZM18.7109 139.627V140.043C19.5425 140.126 19.792 141.041 21.7047 147.527L26.1122 165.656L27.1101 165.49C30.2702 153.432 31.3513 151.103 31.8502 149.773C32.3492 151.103 33.5966 152.933 37.7546 163.744L38.5862 163.66L42.4947 147.527C44.4074 141.041 44.2411 140.209 45.0727 140.043V139.627C44.3242 139.627 43.5758 139.627 42.4116 139.627C41.1642 139.627 40.1662 139.627 39.3346 139.627V140.043C40.582 140.126 40.3326 141.041 39.0852 145.448C38.1704 148.525 37.8378 149.773 37.5883 151.103H37.5051C37.0062 149.773 36.5072 148.608 35.1766 145.448C34.1787 143.453 33.264 141.54 32.4324 139.96H31.9334C31.1018 141.623 30.1039 143.619 29.2723 145.532C27.8585 148.775 27.3596 149.939 26.8606 151.27H26.7775C26.4448 149.939 26.1122 148.525 25.1974 145.365C23.95 141.041 23.7005 140.126 25.0311 140.043V139.627C23.8669 139.627 22.8689 139.627 21.7047 139.627C20.3741 139.71 19.3762 139.627 18.7109 139.627ZM122.994 139.627C122.994 140.875 122.994 142.371 122.994 144.118H123.409C123.659 143.12 124.241 142.787 125.572 142.787H129.064V151.103C129.064 158.255 129.064 159.502 127.9 159.669V160.085C128.732 160.085 129.73 160.168 130.977 160.168C132.141 160.168 133.306 160.251 134.22 160.334V159.918C132.973 159.918 132.973 158.338 132.973 151.103V142.787H136.466C137.713 142.787 138.295 143.037 138.545 144.118H138.96V139.627C137.048 139.627 134.719 139.627 132.474 139.627H129.563C127.484 139.71 125.073 139.71 122.994 139.627ZM152.1 139.627C152.1 140.875 152.1 142.371 152.1 144.118H152.516C152.765 143.12 153.347 142.787 154.678 142.787H158.17V151.103C158.17 158.255 158.17 161.249 157.006 161.415V161.831C157.921 161.914 158.919 162.08 160.166 162.164C161.414 162.247 162.495 162.413 163.326 162.496V162.08C162.079 162.08 162.079 158.421 162.079 151.186V142.87H165.572C166.819 142.87 167.401 143.12 167.651 144.201H168.066V139.71C166.154 139.71 163.825 139.71 161.58 139.71H158.669C156.59 139.71 154.179 139.71 152.1 139.627ZM66.029 142.704C67.6922 142.704 68.8565 143.619 68.8565 145.282C68.8565 146.696 67.9417 147.444 67.1101 147.694C66.6111 147.86 66.1122 147.943 65.6964 147.943C65.5301 147.943 65.2806 147.943 64.9479 147.943V142.787C65.1974 142.787 65.6964 142.704 66.029 142.704ZM96.0498 142.787C98.0457 142.787 99.2099 143.951 99.2099 145.781C99.2099 147.195 98.5446 148.026 97.7962 148.525C97.2972 148.858 96.5488 149.107 95.8003 149.107C95.5508 149.107 95.2182 149.107 94.9687 149.107V142.87C95.135 142.787 95.5508 142.787 96.0498 142.787ZM145.281 147.028C145.53 147.694 145.863 148.692 147.276 152.6V152.683H143.118V152.6C144.698 148.608 145.114 147.611 145.281 147.028ZM65.9459 150.937C66.528 150.937 67.1933 151.02 67.6091 151.186C68.5238 151.519 69.5217 152.351 69.5217 153.764C69.6049 155.76 68.7733 156.509 68.108 156.841C67.6091 157.091 66.8606 157.257 66.1953 157.257C65.8627 157.257 65.4469 157.257 65.1974 157.174C65.0311 157.091 64.9479 157.091 64.9479 156.675V150.937C65.2806 150.937 65.6964 150.937 65.9459 150.937Z" fill="white"/>
</g>
<defs>
<clipPath id="clip0_154_2351">
<rect width="200" height="200" fill="white"/>
</clipPath>
</defs>
</svg>
