<svg width="200" height="200" viewBox="0 0 200 200" fill="none" xmlns="http://www.w3.org/2000/svg">
<path d="M147.08 67.0066V74.862L143.168 67.0066H147.08ZM53.2835 67.0066H57.1953L53.2835 74.862V67.0066ZM100.037 150.685C76.8688 150.685 69.3005 147.474 61.1341 142.933C60.449 142.559 59.8435 142.176 59.2778 141.802H83.521V116.324H68.7745L75.3153 104.692H126.55L133.179 116.666H116.6V141.801H140.788C140.222 142.176 139.617 142.558 138.932 142.932C130.766 147.473 123.197 150.684 100.037 150.684M100.85 59.3829L111.932 78.8701H89.6173L100.851 59.3829H100.85ZM190.055 66.9913V41.513H134.279V52.2285L116.473 20.6557H83.6497L65.7879 52.3238V41.513H10.0117V66.9913H21.2454C21.2454 66.9913 21.2372 98.086 21.2294 116.665H10.5457V141.8H21.7394C22.8468 148.787 25.9778 156.379 34.5502 162.697C48.1097 172.688 64.4416 179.348 100.038 179.348C135.626 179.348 151.958 172.687 165.518 162.697C172.688 157.415 176.002 148.819 177.532 141.8H189.57V116.665H178.838V66.9913H190.055Z" fill="#F26522"/>
<path d="M86.6134 25.7266L32.4814 121.745H15.6242L15.624 136.722H78.4424V121.403H60.0874L72.3485 99.6096H129.54L141.795 121.745H121.678V136.722H184.497V121.745H167.64L113.504 25.7266L86.6133 25.7273L86.6134 25.7266ZM139.356 46.5927V61.2357H151.952V83.5741L170.602 116.662H173.746V61.9123H184.977V46.5927H139.356ZM15.0898 46.5941V61.9138H26.3229V116.662H29.5107L48.1125 83.6714V61.2372H60.7075V46.5941H15.0898ZM100.886 49.1648L120.662 83.948H80.8245L100.886 49.1648ZM26.9088 141.8C27.976 147.571 30.7246 153.568 37.5604 158.599C50.4981 168.138 65.6507 174.266 100.038 174.266C134.42 174.266 149.571 168.138 162.515 158.599C169.347 153.568 172.091 147.571 173.166 141.8H148.402C146.827 143.731 144.591 145.59 141.397 147.368C132.206 152.472 123.53 155.753 100.038 155.753C76.5412 155.753 67.8577 152.472 58.6719 147.368C55.4769 145.59 53.2379 143.731 51.6684 141.8H26.9088Z" fill="#03244D"/>
</svg>
