<svg width="200" height="200" viewBox="0 0 200 200" fill="none" xmlns="http://www.w3.org/2000/svg">
<path d="M3.5476 68.9391V69.5745V130.421V131.057H4.183H59.0445H59.6799V130.421V118.101V117.465H59.0445H25.8487V69.5738V68.9384H25.2133H4.18225H3.54688L3.5476 68.9391ZM81.1526 68.9411C70.7881 68.9411 62.3562 75.2995 62.3562 83.1155V106.16V106.795H62.9916H106.398V112.777C106.398 115.32 103.492 117.389 99.9192 117.389H62.9914H62.3561V118.024V130.423V131.058H62.9914H109.834C120.241 131.058 128.705 124.7 128.705 116.884V93.7603V93.125H128.07H84.6633V87.2215C84.6633 84.7208 87.5935 82.6088 91.0649 82.6088H128.07H128.705V81.9735V69.5757V68.9403H128.07H81.1515L81.1526 68.9411ZM175.353 68.9411V69.5765V112.778C175.353 115.363 172.446 117.466 168.874 117.466H153.465V69.7275V69.0921H152.83H132.018H131.383V69.7275V130.423V131.059H132.018H178.789C189.156 131.059 197.588 124.7 197.588 116.884V69.5762V68.9409H196.953H175.988L175.353 68.9411Z" fill="#461D7C"/>
<path fill-rule="evenodd" clip-rule="evenodd" d="M130.579 131.863H178.79C184.132 131.863 189.006 130.226 192.562 127.545C196.118 124.864 198.394 121.101 198.394 116.884V68.1363L174.55 68.1369V112.778C174.55 113.747 174.006 114.699 172.983 115.44C171.961 116.179 170.51 116.661 168.875 116.661H154.271V68.2876H130.579V131.863ZM132.188 130.254V69.8968H152.662V118.271H168.875C170.813 118.271 172.601 117.702 173.926 116.743C175.249 115.786 176.159 114.394 176.159 112.778V69.7456H196.785V116.884C196.785 120.483 194.845 123.808 191.593 126.26C188.341 128.712 183.815 130.254 178.79 130.254H132.188ZM61.5526 131.863H109.835C115.196 131.863 120.088 130.226 123.656 127.545C127.225 124.865 129.511 121.102 129.511 116.884V92.3204H85.469V87.2216C85.469 86.3044 86.0085 85.3692 87.0338 84.6303C88.0535 83.8955 89.4867 83.4135 91.066 83.4135H129.511V68.1358H78.4951L78.6747 68.2555C74.3142 68.6767 70.3812 70.1951 67.3844 72.455C63.829 75.1361 61.5527 78.8986 61.5527 83.1156V107.6H105.594V112.778C105.594 113.72 105.057 114.652 104.033 115.381C103.011 116.109 101.559 116.584 99.9203 116.584H61.5526V131.863ZM83.81 69.745H127.901V81.8043H91.066C89.174 81.8043 87.4063 82.3784 86.093 83.3247C84.7855 84.267 83.8598 85.6381 83.8598 87.2216V93.9297H127.902V116.884C127.902 120.482 125.955 123.806 122.69 126.259C119.425 128.711 114.88 130.254 109.835 130.254H63.1618V118.193H99.9203C101.855 118.193 103.642 117.635 104.966 116.692C106.288 115.751 107.204 114.378 107.204 112.778V105.991H63.1619V83.1156C63.1619 79.5165 65.1016 76.1919 68.3533 73.7398C71.605 71.2877 76.1304 69.7458 81.1538 69.7458H83.8112L83.81 69.745ZM2.74409 131.861H60.4856V116.661H26.6544V68.1339H1.60547L2.74409 69.2725V131.861ZM4.35332 69.7431H25.0452V118.27H58.8764V130.252H4.35332V69.7431Z" fill="#FDD023"/>
</svg>
