<svg width="200" height="200" viewBox="0 0 200 200" fill="none" xmlns="http://www.w3.org/2000/svg">
<g clip-path="url(#clip0_107_19992)">
<path d="M27.1054 38.2344V56.9605L33.7571 67.6387C33.7571 67.6387 14.743 75.3546 2.06205 84.7488L9.75954 101.576L-1.44531 137.402C-1.44531 137.402 8.27226 130.648 20.23 123.549V139.315C20.23 139.315 26.5818 135.266 32.7331 132.214L27.1167 140.811V160.002H80.2098V120.369L98.5546 149.286L116.905 120.369V160.002H169.998V140.811L164.381 132.214C170.529 135.263 176.879 139.315 176.879 139.315V123.549C188.841 130.647 198.555 137.402 198.555 137.402L187.349 101.576L195.046 84.7488C182.369 75.3544 163.362 67.6387 163.362 67.6387L170.004 56.9615V38.2354H121.587L103.604 66.1906C98.2922 66.0534 93.5112 66.1906 93.5112 66.1906L75.5251 38.2354H27.1079L27.1054 38.2344ZM183.634 140.347C180.977 140.347 178.854 142.412 178.854 144.986C178.854 147.616 180.976 149.676 183.634 149.676C186.321 149.676 188.387 147.616 188.387 144.986C188.387 142.412 186.321 140.347 183.634 140.347ZM183.634 141.278C185.699 141.278 187.195 142.947 187.195 145.012C187.195 147.047 185.7 148.688 183.665 148.688C181.57 148.688 180.041 147.05 180.041 144.985C180.041 142.951 181.569 141.278 183.634 141.278ZM183.608 142.638C182.845 142.638 182.25 142.695 181.825 142.779V147.417H182.897V145.55H183.404C183.999 145.55 184.284 145.779 184.371 146.288C184.512 146.823 184.593 147.246 184.737 147.417H185.893C185.779 147.246 185.699 146.966 185.558 146.256C185.414 145.637 185.158 145.292 184.706 145.121V145.069C185.272 144.902 185.668 144.501 185.668 143.992C185.668 143.54 185.468 143.175 185.213 142.977C184.875 142.78 184.485 142.638 183.608 142.638ZM183.519 143.401C184.198 143.401 184.507 143.685 184.507 144.107C184.507 144.589 184.027 144.787 183.435 144.787H182.928V143.459C183.042 143.429 183.238 143.401 183.519 143.401Z" fill="#C1C6C8"/>
<path d="M191.697 127.226L183.545 101.161L190.399 86.1749L190.218 85.5524C180.667 79.2739 170.613 74.1567 159.298 69.8462V66.4962L165.948 55.8201V42.3125H123.809L107.467 67.7077C104.488 67.527 101.516 67.4266 98.5577 67.4266C95.5991 67.4266 92.6273 67.527 89.6486 67.7077L73.3105 42.3125H31.1718V55.8201L37.8217 66.4962V69.8462C26.5031 74.1534 16.449 79.2739 6.89731 85.5524L6.71993 86.1749L13.574 101.161L5.41797 127.226L6.17099 127.795C11.8269 124.073 17.7641 120.673 23.8691 117.604V132.678C28.2767 130.058 32.9488 127.681 37.822 125.539V131.878L31.1821 142.039V155.958H76.1487V114.76C77.7752 114.529 79.4118 114.325 81.0618 114.14L98.5585 141.724L116.058 114.143C117.708 114.324 119.344 114.528 120.968 114.759V155.958H165.938V142.038L159.298 131.877V125.539C164.171 127.681 168.84 130.057 173.247 132.677V117.603C179.352 120.669 185.289 124.072 190.948 127.794L191.697 127.226Z" fill="#5D1725"/>
<path d="M98.5582 72.4062C74.8269 72.4062 50.1397 78.5167 28.8657 89.6004V124.802C50.2943 114.062 74.8883 108.166 98.5582 108.166C122.227 108.166 146.822 114.062 168.249 124.802V89.6004C146.971 78.5161 122.283 72.4062 98.5582 72.4062ZM37.8147 74.651C28.5778 78.2757 20.2006 82.4669 12.2422 87.4501L18.3723 100.843L12.8907 118.37C16.4717 116.316 20.1402 114.39 23.8617 112.576V86.8771L24.1299 86.437L25.32 85.8043C29.3695 83.6457 33.5475 81.679 37.8144 79.8851L37.8147 74.651ZM159.295 74.651V79.8852C163.562 81.6757 167.737 83.6458 171.787 85.8044L172.979 86.4372L173.24 86.8773V112.576C176.961 114.39 180.632 116.316 184.216 118.371L178.737 100.843L184.859 87.4502C176.901 82.4702 168.532 78.2789 159.295 74.651ZM99.7288 77.1378L107.054 98.5145L107.179 98.8661L107.551 98.8973C108.137 98.9375 108.774 98.9825 109.45 99.0327V103.468C106.287 103.223 103.094 103.078 99.9318 103.038V98.5979L101.218 98.6239L102.023 98.6343C102.03 98.6343 100.622 94.6084 100.622 94.6084L100.218 94.598C97.6381 94.5645 95.0358 94.5928 92.4789 94.6866L92.1039 94.7022L90.617 98.7594C90.6204 98.7594 91.466 98.7281 91.466 98.7281L92.7524 98.6813V103.121C89.7435 103.222 86.7186 103.423 83.7266 103.707V99.2776L85.4506 99.1109L85.8126 99.0797C85.8159 99.0763 85.9376 98.7437 85.9376 98.7437L93.5936 77.1897C95.6182 77.1294 97.6738 77.1145 99.7288 77.1378ZM108.041 77.4712H108.044C115.976 78.0099 123.914 79.2003 131.679 81.0075V88.437C130.257 88.1056 128.824 87.7985 127.395 87.5073V84.5101L126.942 84.4267C125.787 84.1958 124.605 83.9783 123.333 83.7575L122.674 83.6429V100.653C122.677 100.656 123.14 100.736 123.14 100.736L124.864 101.051V105.471C121.571 104.865 118.228 104.365 114.898 103.984V99.5568L116.466 99.7443L117.094 99.8172C117.1 99.8239 117.099 99.1897 117.099 99.1897V82.8235L116.609 82.761C115.461 82.6171 114.251 82.476 113.026 82.3522L112.404 82.2949V85.2869C110.955 85.1464 109.494 85.0187 108.042 84.925L108.041 77.4712ZM85.2845 77.6717V85.122C83.8253 85.2492 82.3684 85.3981 80.9226 85.5621V82.5648L80.295 82.6378C79.1371 82.775 77.9211 82.9388 76.6727 83.1195L76.1858 83.1872V100.189C76.1891 100.189 76.8342 100.098 76.8342 100.098L78.3811 99.8899V104.319C75.0612 104.755 71.7278 105.316 68.4413 105.978V101.559L70.1677 101.218L70.6156 101.129C70.6224 101.129 70.6235 100.663 70.6235 100.663V84.1144L69.9517 84.2446C68.7034 84.4856 67.5453 84.7149 66.4075 84.9659L65.9622 85.0597V88.0569C64.54 88.3648 63.1139 88.7048 61.6915 89.0595V81.63C69.4326 79.6789 77.3594 78.3545 85.2845 77.6717ZM135.611 81.9789L135.614 81.9815C142.625 83.8191 149.57 86.1913 156.274 89.036V94.9942C154.527 94.2579 152.762 93.5457 150.998 92.8797V91.2965C150.998 91.2998 150.631 91.1611 150.631 91.1611C148.419 90.3311 146.179 89.5496 143.98 88.8434L143.243 88.609V94.9006L143.629 95.0256C145.931 95.7719 148.253 96.5794 150.532 97.4395V101.405C148.37 100.602 146.176 99.8234 143.98 99.1138L143.243 98.8795V105.655L143.629 105.78C145.844 106.493 148.07 107.269 150.235 108.082L150.998 108.369V106.403C152.76 107.075 154.529 107.784 156.272 108.52V114.84C149.558 112.012 142.615 109.662 135.611 107.837V103.442L137.103 103.838L137.814 104.028C137.818 104.028 137.819 103.293 137.819 103.293V86.9938C137.823 86.9938 137.4 86.8844 137.4 86.8844L135.611 86.4079L135.611 81.9789ZM96.4668 82.5856L95.9226 84.0883L93.8262 89.9345L93.5476 90.7079L94.3705 90.6871C95.7292 90.6501 97.1031 90.6335 98.4485 90.6402H99.2479L98.9875 89.8928L96.9903 84.0987L96.4668 82.5856ZM54.0308 83.7783C55.3997 84.6619 56.7895 85.5893 58.1817 86.523V88.9188C56.3611 89.4208 54.5453 89.9618 52.7548 90.5308V88.622L52.0231 88.8616C49.8343 89.5644 47.5784 90.3481 45.3227 91.1949L44.9582 91.3303V97.1556L45.7212 96.8665C49.0947 95.6048 52.1472 94.5663 55.049 93.6895L58.1817 95.7389V104.095L53.7365 109.71C50.3429 110.761 46.9439 111.949 43.6275 113.241C42.3022 112.408 40.9816 111.59 39.6797 110.804V107.681C41.4166 106.945 43.1819 106.235 44.9556 105.559V108.613L45.7212 108.324C47.8765 107.515 50.1093 106.738 52.3616 106.015L52.7549 105.89V98.3951L52.0205 98.6346C48.7041 99.7022 45.5163 100.847 42.5208 102.036L39.6797 100.122V93.2443L43.9426 87.2939C47.2291 86.0155 50.6238 84.8359 54.0308 83.7783Z" fill="white"/>
</g>
<defs>
<clipPath id="clip0_107_19992">
<rect width="200" height="200" fill="white"/>
</clipPath>
</defs>
</svg>
