<svg width="200" height="200" viewBox="0 0 200 200" fill="none" xmlns="http://www.w3.org/2000/svg">
<path d="M165.926 75.929L153.263 102.368L140.6 75.929H121.467V87.8961H125.85V124.424H121.258V136.391H142.826V124.424H138.165V98.5412L153.367 129.851L168.57 98.5412V124.424H163.978V136.391H185.546V124.424H180.954V87.8961H185.546V75.8594L165.926 75.929Z" fill="#500000"/>
<path d="M33.3818 75.6523H59.0554V87.5499H55.9245L71.927 124.425H78.4672V136.323H55.1591V124.495H58.6379L56.0636 118.372H36.8606L34.2863 124.495H37.7651V136.392H14.457V124.495H20.9972L36.9997 87.6195H33.5209V75.7219L33.3818 75.6523ZM46.4621 96.1773L41.9396 106.475H50.9846L46.4621 96.1773Z" fill="#500000"/>
<path d="M33.3799 29.7305H166.27V67.7887H140.11V53.3864H112.627V144.323H127.238V170.274H72.1338V144.323H86.7448V53.3864H59.2622V67.7887H33.1016V29.7305H33.3799Z" fill="#500000"/>
<path d="M38.3203 35.0859H158.27L151.034 40.652H44.0256L38.3203 35.0859Z" fill="white"/>
<path d="M101.777 42.6055L107.274 48.0324V150.031L101.777 155.458V42.6055Z" fill="white"/>
<path d="M161.055 37.9414V62.9193L155.559 57.6315V43.5771L161.055 37.9414Z" fill="white"/>
<path d="M121.918 149.539V165.055L116.352 159.836V155.314L121.918 149.539Z" fill="white"/>
</svg>
