<svg width="200" height="200" viewBox="0 0 200 200" fill="none" xmlns="http://www.w3.org/2000/svg">
<g clip-path="url(#clip0_107_19991)">
<mask id="path-1-outside-1_107_19991" maskUnits="userSpaceOnUse" x="-1" y="66.8906" width="202" height="67" fill="black">
<rect fill="white" x="-1" y="66.8906" width="202" height="67"/>
<path d="M101.434 67.8906C98.6963 67.8906 95.9425 68.6632 93.6751 69.5524C93.3186 68.7533 92.5964 68.2511 91.6555 68.1835L91.3891 68.1649L91.144 68.2352C87.713 69.2344 84.624 70.9585 81.6317 72.6256L80.6894 73.2179C79.4636 74.0926 77.7899 75.2906 77.4692 77.0796C76.8424 80.5649 77.6441 83.6274 79.7287 85.6961L80.0732 85.9465C81.2845 86.58 82.717 86.7827 84.2039 86.0194C88.7122 82.9979 92.4639 80.7106 95.8458 78.9017C96.2725 78.7401 96.678 78.528 97.0835 78.312C97.1471 78.2802 97.2041 78.2458 97.2677 78.2126L95.1938 83.6274C91.625 90.3555 87.7051 98.4869 84.2529 105.659C81.8675 110.613 79.8121 114.89 78.2749 117.857C77.8787 118.637 76.7297 123.663 80.765 128.739C81.4528 129.607 82.4679 130.121 83.4816 130.121C84.3271 130.121 85.9107 129.754 86.9789 127.29C88.422 123.953 90.2004 120.648 91.9205 117.449C93.1198 115.224 94.3139 112.997 95.3621 110.848C97.599 107.111 99.6968 103.684 101.893 100.472C98.0509 107.763 94.0594 115.614 93.2086 118.953L93.1675 119.261C93.0761 122.22 93.2934 126.502 96.3639 129.621C96.7323 129.915 97.7077 130.603 98.8487 130.603C99.4291 130.603 99.9698 130.424 100.412 130.082C102.139 128.741 104.413 124.408 107.204 118.883C107.967 117.367 108.631 116.06 109.049 115.326L109.882 114.004C112.62 109.637 115.418 105.181 118.621 100.958C116.791 104.401 114.954 107.969 113.858 110.402C113.585 111.002 113.293 111.606 113.007 112.208C111.071 116.276 109.066 120.483 110.031 125.496C110.375 128.152 112.706 129.638 114.615 130.603C115.577 130.937 116.567 131.105 117.562 131.105C120.529 131.105 123.113 129.62 125.396 128.309C125.688 128.142 125.976 127.975 126.262 127.812C127.501 129.502 129.188 130.574 131.072 130.823C135.814 131.268 140.439 129.462 144.335 125.805C147.621 128.922 151.637 130.5 156.302 130.5C161.51 130.496 166.453 128.539 169.925 126.704C173.304 129.68 177.465 131.242 182.05 131.242C187.099 131.242 191.857 129.322 194.454 127.307C194.706 127.062 200.577 121.263 199.954 115.495C199.768 113.907 197.767 112.72 196.256 113.388C194.785 114.037 193.659 115.59 192.48 117.237C191.671 118.362 190.836 119.51 189.962 120.29C190.889 118.793 191.724 117.082 192.559 115.032C194.295 110.012 193.169 104.306 191.95 100.501C191.618 99.1111 192.215 97.762 192.93 96.1996C193.235 95.5291 193.54 94.8598 193.765 94.188L193.858 93.6287L193.765 93.2404C193.633 92.5553 193.381 91.4077 192.228 90.7557C189.856 89.4212 186.688 89.4119 184.939 90.916C181.308 94.0104 177.611 100.078 174.033 105.946C171.939 109.389 169.699 113.065 167.579 115.878C169.355 111.702 168.48 107.09 167.712 102.981C167.5 101.881 167.287 100.797 167.102 99.5749C166.81 98.4882 167.155 97.4427 167.539 96.2327C167.924 95.0666 168.348 93.7414 168.202 92.2412L168.162 91.7814L167.844 91.4342C166.837 90.2932 165.313 89.6611 163.537 89.6611C163.087 89.6611 162.636 89.7008 161.987 89.8214C157.905 91.0631 155.904 94.3192 154.141 97.1935C153.426 98.3663 152.737 99.4742 151.875 100.537L151.213 101.49C146.853 107.783 142.334 114.283 136.119 119.678C136.066 119.05 136.185 118.234 136.477 117.599C139.498 110.943 142.665 106.864 144.971 103.884C146.376 102.093 147.476 100.677 148.072 99.2873C148.178 99.0581 148.615 97.6772 148.337 96.6568C148.191 96.1546 147.913 95.708 147.529 95.3343C148.324 95.2455 149 95.0189 149.57 94.6491C152.034 93.035 152.896 90.5967 151.889 87.8932C151.147 86.1294 149.278 85.0229 146.893 84.9407L146.628 84.9327C144.348 84.9327 142.387 86.0472 141.287 88.1159C140.664 89.9195 140.744 91.5084 141.459 92.6216C141.791 93.2219 142.241 93.7096 142.731 94.0899C141.579 94.237 140.611 94.6862 139.988 95.3449C133.853 100.314 129.128 106.793 125.928 114.604C125.677 115.216 125.468 115.842 125.255 116.469C124.921 117.477 124.596 118.441 124.095 119.282C123.757 119.429 123.45 119.548 123.132 119.625C124.099 114.692 126.441 110.143 128.804 105.833C130.508 102.254 134.661 95.8113 138.319 90.1249C143.328 82.3552 146.164 77.8734 146.495 76.1122L146.522 75.9253L146.508 75.7358C146.336 73.434 144.852 71.7589 143.328 70.2097C141.817 68.7706 139.339 68.3014 137.431 69.1072L137.205 69.2238C133.561 71.5667 130.272 74.4292 127.139 77.4109C127.367 77.0332 127.588 76.6502 127.816 76.2699C129.208 74.1655 127.559 72.3791 126.768 71.523L126.401 71.1109C124.465 68.9309 121.021 68.1358 118.085 69.1496L117.836 69.2609C114.493 71.1758 111.776 73.7626 109.252 76.4355C109.576 74.7075 109.582 72.9065 108.842 71.083L108.731 70.8061L107.47 69.5604L107.186 69.343C105.546 68.3796 103.61 67.8906 101.434 67.8906ZM32.3023 68.3293C30.7306 68.3293 29.2225 68.5532 27.6773 69.0436C18.3558 73.1252 11.1998 80.5529 6.39854 91.132C4.6877 94.8943 -3.57627 114.209 1.78418 124.737C3.53743 128.166 6.51251 130.328 10.6312 131.17C12.2029 131.488 13.7362 131.653 15.1992 131.653C25.7134 131.653 31.4992 123.618 35.3158 115.791C34.8838 119.238 34.9726 122.478 35.8896 125.187C36.9166 128.218 38.8766 130.375 41.7139 131.604C42.4958 131.943 43.3757 132.11 44.3179 132.11C48.7189 132.11 53.8899 128.267 56.0393 126.496C58.9641 129.055 61.6754 130.301 64.2993 130.301C68.7335 130.301 71.531 126.7 73.3823 124.319L73.8792 123.683C78.3438 118.059 75.6232 115.509 75.2985 115.237L75.0414 115.02L74.7101 114.937C74.4742 114.88 74.2238 114.852 73.976 114.852C71.9908 114.852 70.4589 116.629 68.8395 118.512C67.5156 120.051 65.8803 121.981 64.6956 121.628C64.3775 121.535 64.0767 121.27 63.8978 120.954C72.2757 115.623 77.1405 109.975 78.7838 103.572C79.1085 101.372 79.7883 96.7986 75.8445 94.445C74.6704 93.8355 73.3915 93.524 72.0345 93.524C69.1893 93.524 66.5164 94.8386 63.976 96.307C62.8177 97.0822 61.7377 97.9131 60.7292 98.7944C67.8867 85.3449 68.5758 74.0356 67.5288 70.5424L67.4122 70.1753L67.1406 69.9129C66.2103 69.0237 64.8784 68.5519 63.2842 68.5519C61.8583 68.5519 60.2826 68.9508 59.0807 69.6187L58.8633 69.7631C52.8509 74.6982 49.1509 81.3202 46.1811 86.6383C45.8406 87.2571 45.3025 88.2391 44.6519 89.5007C44.7804 88.8792 44.8983 88.2537 45.0057 87.6189C45.0627 87.0478 45.1303 86.47 45.1978 85.8895C45.4814 83.4512 45.7796 80.9293 45.0468 78.5108C44.7393 77.3725 43.9336 76.4501 42.6482 75.7491C42.8655 75.4642 43.0656 75.1435 43.2352 74.7711C43.7322 73.365 43.2432 71.9378 41.8901 70.8604L41.6516 70.7093C38.658 69.1747 35.341 68.3293 32.3023 68.3293ZM33.063 82.3923C32.8178 86.7006 31.4886 90.655 30.0945 94.8267C29.4809 96.6568 28.8435 98.5479 28.3452 100.359C25.8936 107.284 23.324 113.99 19.0198 119.77C18.1239 120.659 16.5827 121.714 14.9633 121.353C12.676 120.186 12.7794 117.682 13.2008 114.021C13.2856 113.283 13.3691 112.567 13.3956 112.009C14.2517 105.721 16.6039 99.8002 18.8899 94.078L19.3458 92.8826C19.6042 92.4387 19.8308 91.9775 20.0521 91.523C20.3012 91.0167 20.5438 90.5317 20.8181 90.0838C21.4369 90.2707 22.1062 90.4204 22.8324 90.4204C23.332 90.4204 23.813 90.3475 24.2716 90.1978L24.5326 90.0772C26.5377 88.9322 27.9357 87.3685 29.2901 85.863C30.4695 84.5484 31.5986 83.2895 33.063 82.3923ZM68.1345 105.26C67.2399 107.001 65.8949 108.7 64.139 110.306C64.0078 110.41 63.8819 110.51 63.7507 110.62C64.5882 108.891 65.9253 107.192 67.7263 105.562L68.1345 105.26ZM52.6203 111.063C51.8278 113.662 51.4568 116.392 51.5442 119.197C51.482 119.25 51.413 119.307 51.3547 119.363C50.504 120.13 49.4451 121.084 48.6632 121.084C48.4923 121.084 48.3227 121.039 48.1371 120.937C47.0518 120.341 47.0889 118.117 47.2241 117.199C49.192 115.154 50.9903 113.105 52.6203 111.063ZM181.958 112.101C181.825 113.666 181.268 115.563 179.85 117.554C179.519 117.436 179.135 117.315 178.711 117.207C179.956 115.544 181.017 113.823 181.958 112.101ZM156.302 112.519C155.877 113.878 155.241 115.403 154.42 117.019C154.022 116.829 153.611 116.662 153.201 116.527C154.261 115.23 155.308 113.896 156.302 112.519Z"/>
</mask>
<path d="M101.434 67.8906C98.6963 67.8906 95.9425 68.6632 93.6751 69.5524C93.3186 68.7533 92.5964 68.2511 91.6555 68.1835L91.3891 68.1649L91.144 68.2352C87.713 69.2344 84.624 70.9585 81.6317 72.6256L80.6894 73.2179C79.4636 74.0926 77.7899 75.2906 77.4692 77.0796C76.8424 80.5649 77.6441 83.6274 79.7287 85.6961L80.0732 85.9465C81.2845 86.58 82.717 86.7827 84.2039 86.0194C88.7122 82.9979 92.4639 80.7106 95.8458 78.9017C96.2725 78.7401 96.678 78.528 97.0835 78.312C97.1471 78.2802 97.2041 78.2458 97.2677 78.2126L95.1938 83.6274C91.625 90.3555 87.7051 98.4869 84.2529 105.659C81.8675 110.613 79.8121 114.89 78.2749 117.857C77.8787 118.637 76.7297 123.663 80.765 128.739C81.4528 129.607 82.4679 130.121 83.4816 130.121C84.3271 130.121 85.9107 129.754 86.9789 127.29C88.422 123.953 90.2004 120.648 91.9205 117.449C93.1198 115.224 94.3139 112.997 95.3621 110.848C97.599 107.111 99.6968 103.684 101.893 100.472C98.0509 107.763 94.0594 115.614 93.2086 118.953L93.1675 119.261C93.0761 122.22 93.2934 126.502 96.3639 129.621C96.7323 129.915 97.7077 130.603 98.8487 130.603C99.4291 130.603 99.9698 130.424 100.412 130.082C102.139 128.741 104.413 124.408 107.204 118.883C107.967 117.367 108.631 116.06 109.049 115.326L109.882 114.004C112.62 109.637 115.418 105.181 118.621 100.958C116.791 104.401 114.954 107.969 113.858 110.402C113.585 111.002 113.293 111.606 113.007 112.208C111.071 116.276 109.066 120.483 110.031 125.496C110.375 128.152 112.706 129.638 114.615 130.603C115.577 130.937 116.567 131.105 117.562 131.105C120.529 131.105 123.113 129.62 125.396 128.309C125.688 128.142 125.976 127.975 126.262 127.812C127.501 129.502 129.188 130.574 131.072 130.823C135.814 131.268 140.439 129.462 144.335 125.805C147.621 128.922 151.637 130.5 156.302 130.5C161.51 130.496 166.453 128.539 169.925 126.704C173.304 129.68 177.465 131.242 182.05 131.242C187.099 131.242 191.857 129.322 194.454 127.307C194.706 127.062 200.577 121.263 199.954 115.495C199.768 113.907 197.767 112.72 196.256 113.388C194.785 114.037 193.659 115.59 192.48 117.237C191.671 118.362 190.836 119.51 189.962 120.29C190.889 118.793 191.724 117.082 192.559 115.032C194.295 110.012 193.169 104.306 191.95 100.501C191.618 99.1111 192.215 97.762 192.93 96.1996C193.235 95.5291 193.54 94.8598 193.765 94.188L193.858 93.6287L193.765 93.2404C193.633 92.5553 193.381 91.4077 192.228 90.7557C189.856 89.4212 186.688 89.4119 184.939 90.916C181.308 94.0104 177.611 100.078 174.033 105.946C171.939 109.389 169.699 113.065 167.579 115.878C169.355 111.702 168.48 107.09 167.712 102.981C167.5 101.881 167.287 100.797 167.102 99.5749C166.81 98.4882 167.155 97.4427 167.539 96.2327C167.924 95.0666 168.348 93.7414 168.202 92.2412L168.162 91.7814L167.844 91.4342C166.837 90.2932 165.313 89.6611 163.537 89.6611C163.087 89.6611 162.636 89.7008 161.987 89.8214C157.905 91.0631 155.904 94.3192 154.141 97.1935C153.426 98.3663 152.737 99.4742 151.875 100.537L151.213 101.49C146.853 107.783 142.334 114.283 136.119 119.678C136.066 119.05 136.185 118.234 136.477 117.599C139.498 110.943 142.665 106.864 144.971 103.884C146.376 102.093 147.476 100.677 148.072 99.2873C148.178 99.0581 148.615 97.6772 148.337 96.6568C148.191 96.1546 147.913 95.708 147.529 95.3343C148.324 95.2455 149 95.0189 149.57 94.6491C152.034 93.035 152.896 90.5967 151.889 87.8932C151.147 86.1294 149.278 85.0229 146.893 84.9407L146.628 84.9327C144.348 84.9327 142.387 86.0472 141.287 88.1159C140.664 89.9195 140.744 91.5084 141.459 92.6216C141.791 93.2219 142.241 93.7096 142.731 94.0899C141.579 94.237 140.611 94.6862 139.988 95.3449C133.853 100.314 129.128 106.793 125.928 114.604C125.677 115.216 125.468 115.842 125.255 116.469C124.921 117.477 124.596 118.441 124.095 119.282C123.757 119.429 123.45 119.548 123.132 119.625C124.099 114.692 126.441 110.143 128.804 105.833C130.508 102.254 134.661 95.8113 138.319 90.1249C143.328 82.3552 146.164 77.8734 146.495 76.1122L146.522 75.9253L146.508 75.7358C146.336 73.434 144.852 71.7589 143.328 70.2097C141.817 68.7706 139.339 68.3014 137.431 69.1072L137.205 69.2238C133.561 71.5667 130.272 74.4292 127.139 77.4109C127.367 77.0332 127.588 76.6502 127.816 76.2699C129.208 74.1655 127.559 72.3791 126.768 71.523L126.401 71.1109C124.465 68.9309 121.021 68.1358 118.085 69.1496L117.836 69.2609C114.493 71.1758 111.776 73.7626 109.252 76.4355C109.576 74.7075 109.582 72.9065 108.842 71.083L108.731 70.8061L107.47 69.5604L107.186 69.343C105.546 68.3796 103.61 67.8906 101.434 67.8906ZM32.3023 68.3293C30.7306 68.3293 29.2225 68.5532 27.6773 69.0436C18.3558 73.1252 11.1998 80.5529 6.39854 91.132C4.6877 94.8943 -3.57627 114.209 1.78418 124.737C3.53743 128.166 6.51251 130.328 10.6312 131.17C12.2029 131.488 13.7362 131.653 15.1992 131.653C25.7134 131.653 31.4992 123.618 35.3158 115.791C34.8838 119.238 34.9726 122.478 35.8896 125.187C36.9166 128.218 38.8766 130.375 41.7139 131.604C42.4958 131.943 43.3757 132.11 44.3179 132.11C48.7189 132.11 53.8899 128.267 56.0393 126.496C58.9641 129.055 61.6754 130.301 64.2993 130.301C68.7335 130.301 71.531 126.7 73.3823 124.319L73.8792 123.683C78.3438 118.059 75.6232 115.509 75.2985 115.237L75.0414 115.02L74.7101 114.937C74.4742 114.88 74.2238 114.852 73.976 114.852C71.9908 114.852 70.4589 116.629 68.8395 118.512C67.5156 120.051 65.8803 121.981 64.6956 121.628C64.3775 121.535 64.0767 121.27 63.8978 120.954C72.2757 115.623 77.1405 109.975 78.7838 103.572C79.1085 101.372 79.7883 96.7986 75.8445 94.445C74.6704 93.8355 73.3915 93.524 72.0345 93.524C69.1893 93.524 66.5164 94.8386 63.976 96.307C62.8177 97.0822 61.7377 97.9131 60.7292 98.7944C67.8867 85.3449 68.5758 74.0356 67.5288 70.5424L67.4122 70.1753L67.1406 69.9129C66.2103 69.0237 64.8784 68.5519 63.2842 68.5519C61.8583 68.5519 60.2826 68.9508 59.0807 69.6187L58.8633 69.7631C52.8509 74.6982 49.1509 81.3202 46.1811 86.6383C45.8406 87.2571 45.3025 88.2391 44.6519 89.5007C44.7804 88.8792 44.8983 88.2537 45.0057 87.6189C45.0627 87.0478 45.1303 86.47 45.1978 85.8895C45.4814 83.4512 45.7796 80.9293 45.0468 78.5108C44.7393 77.3725 43.9336 76.4501 42.6482 75.7491C42.8655 75.4642 43.0656 75.1435 43.2352 74.7711C43.7322 73.365 43.2432 71.9378 41.8901 70.8604L41.6516 70.7093C38.658 69.1747 35.341 68.3293 32.3023 68.3293ZM33.063 82.3923C32.8178 86.7006 31.4886 90.655 30.0945 94.8267C29.4809 96.6568 28.8435 98.5479 28.3452 100.359C25.8936 107.284 23.324 113.99 19.0198 119.77C18.1239 120.659 16.5827 121.714 14.9633 121.353C12.676 120.186 12.7794 117.682 13.2008 114.021C13.2856 113.283 13.3691 112.567 13.3956 112.009C14.2517 105.721 16.6039 99.8002 18.8899 94.078L19.3458 92.8826C19.6042 92.4387 19.8308 91.9775 20.0521 91.523C20.3012 91.0167 20.5438 90.5317 20.8181 90.0838C21.4369 90.2707 22.1062 90.4204 22.8324 90.4204C23.332 90.4204 23.813 90.3475 24.2716 90.1978L24.5326 90.0772C26.5377 88.9322 27.9357 87.3685 29.2901 85.863C30.4695 84.5484 31.5986 83.2895 33.063 82.3923ZM68.1345 105.26C67.2399 107.001 65.8949 108.7 64.139 110.306C64.0078 110.41 63.8819 110.51 63.7507 110.62C64.5882 108.891 65.9253 107.192 67.7263 105.562L68.1345 105.26ZM52.6203 111.063C51.8278 113.662 51.4568 116.392 51.5442 119.197C51.482 119.25 51.413 119.307 51.3547 119.363C50.504 120.13 49.4451 121.084 48.6632 121.084C48.4923 121.084 48.3227 121.039 48.1371 120.937C47.0518 120.341 47.0889 118.117 47.2241 117.199C49.192 115.154 50.9903 113.105 52.6203 111.063ZM181.958 112.101C181.825 113.666 181.268 115.563 179.85 117.554C179.519 117.436 179.135 117.315 178.711 117.207C179.956 115.544 181.017 113.823 181.958 112.101ZM156.302 112.519C155.877 113.878 155.241 115.403 154.42 117.019C154.022 116.829 153.611 116.662 153.201 116.527C154.261 115.23 155.308 113.896 156.302 112.519Z" fill="white"/>
<path d="M101.434 67.8906C98.6963 67.8906 95.9425 68.6632 93.6751 69.5524C93.3186 68.7533 92.5964 68.2511 91.6555 68.1835L91.3891 68.1649L91.144 68.2352C87.713 69.2344 84.624 70.9585 81.6317 72.6256L80.6894 73.2179C79.4636 74.0926 77.7899 75.2906 77.4692 77.0796C76.8424 80.5649 77.6441 83.6274 79.7287 85.6961L80.0732 85.9465C81.2845 86.58 82.717 86.7827 84.2039 86.0194C88.7122 82.9979 92.4639 80.7106 95.8458 78.9017C96.2725 78.7401 96.678 78.528 97.0835 78.312C97.1471 78.2802 97.2041 78.2458 97.2677 78.2126L95.1938 83.6274C91.625 90.3555 87.7051 98.4869 84.2529 105.659C81.8675 110.613 79.8121 114.89 78.2749 117.857C77.8787 118.637 76.7297 123.663 80.765 128.739C81.4528 129.607 82.4679 130.121 83.4816 130.121C84.3271 130.121 85.9107 129.754 86.9789 127.29C88.422 123.953 90.2004 120.648 91.9205 117.449C93.1198 115.224 94.3139 112.997 95.3621 110.848C97.599 107.111 99.6968 103.684 101.893 100.472C98.0509 107.763 94.0594 115.614 93.2086 118.953L93.1675 119.261C93.0761 122.22 93.2934 126.502 96.3639 129.621C96.7323 129.915 97.7077 130.603 98.8487 130.603C99.4291 130.603 99.9698 130.424 100.412 130.082C102.139 128.741 104.413 124.408 107.204 118.883C107.967 117.367 108.631 116.06 109.049 115.326L109.882 114.004C112.62 109.637 115.418 105.181 118.621 100.958C116.791 104.401 114.954 107.969 113.858 110.402C113.585 111.002 113.293 111.606 113.007 112.208C111.071 116.276 109.066 120.483 110.031 125.496C110.375 128.152 112.706 129.638 114.615 130.603C115.577 130.937 116.567 131.105 117.562 131.105C120.529 131.105 123.113 129.62 125.396 128.309C125.688 128.142 125.976 127.975 126.262 127.812C127.501 129.502 129.188 130.574 131.072 130.823C135.814 131.268 140.439 129.462 144.335 125.805C147.621 128.922 151.637 130.5 156.302 130.5C161.51 130.496 166.453 128.539 169.925 126.704C173.304 129.68 177.465 131.242 182.05 131.242C187.099 131.242 191.857 129.322 194.454 127.307C194.706 127.062 200.577 121.263 199.954 115.495C199.768 113.907 197.767 112.72 196.256 113.388C194.785 114.037 193.659 115.59 192.48 117.237C191.671 118.362 190.836 119.51 189.962 120.29C190.889 118.793 191.724 117.082 192.559 115.032C194.295 110.012 193.169 104.306 191.95 100.501C191.618 99.1111 192.215 97.762 192.93 96.1996C193.235 95.5291 193.54 94.8598 193.765 94.188L193.858 93.6287L193.765 93.2404C193.633 92.5553 193.381 91.4077 192.228 90.7557C189.856 89.4212 186.688 89.4119 184.939 90.916C181.308 94.0104 177.611 100.078 174.033 105.946C171.939 109.389 169.699 113.065 167.579 115.878C169.355 111.702 168.48 107.09 167.712 102.981C167.5 101.881 167.287 100.797 167.102 99.5749C166.81 98.4882 167.155 97.4427 167.539 96.2327C167.924 95.0666 168.348 93.7414 168.202 92.2412L168.162 91.7814L167.844 91.4342C166.837 90.2932 165.313 89.6611 163.537 89.6611C163.087 89.6611 162.636 89.7008 161.987 89.8214C157.905 91.0631 155.904 94.3192 154.141 97.1935C153.426 98.3663 152.737 99.4742 151.875 100.537L151.213 101.49C146.853 107.783 142.334 114.283 136.119 119.678C136.066 119.05 136.185 118.234 136.477 117.599C139.498 110.943 142.665 106.864 144.971 103.884C146.376 102.093 147.476 100.677 148.072 99.2873C148.178 99.0581 148.615 97.6772 148.337 96.6568C148.191 96.1546 147.913 95.708 147.529 95.3343C148.324 95.2455 149 95.0189 149.57 94.6491C152.034 93.035 152.896 90.5967 151.889 87.8932C151.147 86.1294 149.278 85.0229 146.893 84.9407L146.628 84.9327C144.348 84.9327 142.387 86.0472 141.287 88.1159C140.664 89.9195 140.744 91.5084 141.459 92.6216C141.791 93.2219 142.241 93.7096 142.731 94.0899C141.579 94.237 140.611 94.6862 139.988 95.3449C133.853 100.314 129.128 106.793 125.928 114.604C125.677 115.216 125.468 115.842 125.255 116.469C124.921 117.477 124.596 118.441 124.095 119.282C123.757 119.429 123.45 119.548 123.132 119.625C124.099 114.692 126.441 110.143 128.804 105.833C130.508 102.254 134.661 95.8113 138.319 90.1249C143.328 82.3552 146.164 77.8734 146.495 76.1122L146.522 75.9253L146.508 75.7358C146.336 73.434 144.852 71.7589 143.328 70.2097C141.817 68.7706 139.339 68.3014 137.431 69.1072L137.205 69.2238C133.561 71.5667 130.272 74.4292 127.139 77.4109C127.367 77.0332 127.588 76.6502 127.816 76.2699C129.208 74.1655 127.559 72.3791 126.768 71.523L126.401 71.1109C124.465 68.9309 121.021 68.1358 118.085 69.1496L117.836 69.2609C114.493 71.1758 111.776 73.7626 109.252 76.4355C109.576 74.7075 109.582 72.9065 108.842 71.083L108.731 70.8061L107.47 69.5604L107.186 69.343C105.546 68.3796 103.61 67.8906 101.434 67.8906ZM32.3023 68.3293C30.7306 68.3293 29.2225 68.5532 27.6773 69.0436C18.3558 73.1252 11.1998 80.5529 6.39854 91.132C4.6877 94.8943 -3.57627 114.209 1.78418 124.737C3.53743 128.166 6.51251 130.328 10.6312 131.17C12.2029 131.488 13.7362 131.653 15.1992 131.653C25.7134 131.653 31.4992 123.618 35.3158 115.791C34.8838 119.238 34.9726 122.478 35.8896 125.187C36.9166 128.218 38.8766 130.375 41.7139 131.604C42.4958 131.943 43.3757 132.11 44.3179 132.11C48.7189 132.11 53.8899 128.267 56.0393 126.496C58.9641 129.055 61.6754 130.301 64.2993 130.301C68.7335 130.301 71.531 126.7 73.3823 124.319L73.8792 123.683C78.3438 118.059 75.6232 115.509 75.2985 115.237L75.0414 115.02L74.7101 114.937C74.4742 114.88 74.2238 114.852 73.976 114.852C71.9908 114.852 70.4589 116.629 68.8395 118.512C67.5156 120.051 65.8803 121.981 64.6956 121.628C64.3775 121.535 64.0767 121.27 63.8978 120.954C72.2757 115.623 77.1405 109.975 78.7838 103.572C79.1085 101.372 79.7883 96.7986 75.8445 94.445C74.6704 93.8355 73.3915 93.524 72.0345 93.524C69.1893 93.524 66.5164 94.8386 63.976 96.307C62.8177 97.0822 61.7377 97.9131 60.7292 98.7944C67.8867 85.3449 68.5758 74.0356 67.5288 70.5424L67.4122 70.1753L67.1406 69.9129C66.2103 69.0237 64.8784 68.5519 63.2842 68.5519C61.8583 68.5519 60.2826 68.9508 59.0807 69.6187L58.8633 69.7631C52.8509 74.6982 49.1509 81.3202 46.1811 86.6383C45.8406 87.2571 45.3025 88.2391 44.6519 89.5007C44.7804 88.8792 44.8983 88.2537 45.0057 87.6189C45.0627 87.0478 45.1303 86.47 45.1978 85.8895C45.4814 83.4512 45.7796 80.9293 45.0468 78.5108C44.7393 77.3725 43.9336 76.4501 42.6482 75.7491C42.8655 75.4642 43.0656 75.1435 43.2352 74.7711C43.7322 73.365 43.2432 71.9378 41.8901 70.8604L41.6516 70.7093C38.658 69.1747 35.341 68.3293 32.3023 68.3293ZM33.063 82.3923C32.8178 86.7006 31.4886 90.655 30.0945 94.8267C29.4809 96.6568 28.8435 98.5479 28.3452 100.359C25.8936 107.284 23.324 113.99 19.0198 119.77C18.1239 120.659 16.5827 121.714 14.9633 121.353C12.676 120.186 12.7794 117.682 13.2008 114.021C13.2856 113.283 13.3691 112.567 13.3956 112.009C14.2517 105.721 16.6039 99.8002 18.8899 94.078L19.3458 92.8826C19.6042 92.4387 19.8308 91.9775 20.0521 91.523C20.3012 91.0167 20.5438 90.5317 20.8181 90.0838C21.4369 90.2707 22.1062 90.4204 22.8324 90.4204C23.332 90.4204 23.813 90.3475 24.2716 90.1978L24.5326 90.0772C26.5377 88.9322 27.9357 87.3685 29.2901 85.863C30.4695 84.5484 31.5986 83.2895 33.063 82.3923ZM68.1345 105.26C67.2399 107.001 65.8949 108.7 64.139 110.306C64.0078 110.41 63.8819 110.51 63.7507 110.62C64.5882 108.891 65.9253 107.192 67.7263 105.562L68.1345 105.26ZM52.6203 111.063C51.8278 113.662 51.4568 116.392 51.5442 119.197C51.482 119.25 51.413 119.307 51.3547 119.363C50.504 120.13 49.4451 121.084 48.6632 121.084C48.4923 121.084 48.3227 121.039 48.1371 120.937C47.0518 120.341 47.0889 118.117 47.2241 117.199C49.192 115.154 50.9903 113.105 52.6203 111.063ZM181.958 112.101C181.825 113.666 181.268 115.563 179.85 117.554C179.519 117.436 179.135 117.315 178.711 117.207C179.956 115.544 181.017 113.823 181.958 112.101ZM156.302 112.519C155.877 113.878 155.241 115.403 154.42 117.019C154.022 116.829 153.611 116.662 153.201 116.527C154.261 115.23 155.308 113.896 156.302 112.519Z" stroke="white" stroke-width="2" mask="url(#path-1-outside-1_107_19991)"/>
<mask id="path-2-outside-2_107_19991" maskUnits="userSpaceOnUse" x="0.433594" y="68.3281" width="200" height="64" fill="black">
<rect fill="white" x="0.433594" y="68.3281" width="200" height="64"/>
<path d="M101.063 69.3332C97.8914 69.4206 94.5982 70.6054 92.03 71.8444L91.7835 71.6947C92.25 71.3435 92.2076 70.8068 92.4329 70.3615C92.3308 69.9136 92.0658 69.6552 91.545 69.6181C88.0968 70.6199 84.9335 72.4341 81.871 74.1423C80.8002 74.9216 79.1331 75.9791 78.8893 77.3308C78.4241 79.907 78.7859 82.7257 80.7419 84.6711C81.4907 85.062 82.6158 85.2104 83.4029 84.8195C87.1943 82.2817 91.1832 79.7599 95.3351 77.5534C96.4668 77.1254 97.3904 76.2759 98.7223 76.2931C99.1622 76.4031 99.1238 76.8484 99.2046 77.181L96.4654 84.304C90.457 95.6292 83.3261 111.232 79.5585 118.506C79.4366 118.747 78.1829 123.18 81.8882 127.84C82.6727 128.823 84.471 129.455 85.6544 126.718C88.1114 121.037 91.4045 115.674 94.1265 110.107C98.4586 102.878 102.833 95.7206 109.043 89.3437L109.441 89.2656C106.984 94.2152 96.0003 113.833 94.6075 119.303C94.5081 122.561 94.8924 126.07 97.2685 128.497C97.8715 128.983 98.8707 129.451 99.5306 128.942C101.757 127.214 106.177 117.43 107.83 114.558C112.889 106.512 117.869 98.2968 125.165 91.4164H125.405C125.063 92.177 117.824 105.082 115.167 110.998C113.093 115.539 110.432 119.951 111.457 125.31C111.701 127.181 113.394 128.367 115.086 129.236C119.581 130.797 123.249 127.682 126.774 125.903C127.622 127.533 129.133 129.112 131.214 129.387C136.464 129.887 141.102 127.221 144.349 123.753C152.83 133.147 165.088 127.776 170.151 124.937C178.447 133.101 189.724 129.149 193.448 126.273C193.448 126.273 199.08 120.788 198.523 115.653C198.444 114.964 197.49 114.422 196.84 114.707C193.792 116.048 191.579 124.104 186.517 122.491C188.677 120.083 190.069 117.357 191.195 114.558C192.732 110.144 191.884 104.99 190.546 100.836C189.923 98.261 191.619 96.0175 192.401 93.7209C192.268 93.0914 192.176 92.3798 191.513 92.014C189.949 91.1275 187.418 90.6888 185.881 92.014C177.585 99.0787 168.415 123.269 161.365 122.047C163.299 120.359 164.691 118.392 165.791 116.259C168.56 111.237 166.467 105.192 165.711 99.948C164.969 97.2035 167.023 95.0355 166.771 92.3851C165.738 91.2189 164.068 90.9181 162.412 91.199C157.349 92.7363 155.958 97.8131 153.056 101.353C148.325 108.175 143.527 115.295 136.61 121.157C136.133 121.415 135.377 121.343 134.993 120.934C134.45 119.861 134.649 118.148 135.152 117.005C140.016 106.275 145.303 102.056 146.748 98.7156C146.854 98.485 147.079 97.5242 146.946 97.0432C146.761 96.3938 146.045 95.8969 144.998 95.6464C143.594 95.3138 141.911 95.4052 140.89 96.4641C134.543 101.618 130.103 108.215 127.262 115.148C126.536 116.911 126.175 118.8 125.082 120.416C124.198 120.824 123.292 121.231 122.184 121.157C121.761 120.898 121.677 120.36 121.614 119.896C122.543 114.611 124.941 109.886 127.502 105.212C131.093 97.6859 144.508 78.9038 145.078 75.8452C144.932 74.0257 143.686 72.621 142.335 71.2494C141.235 70.1919 139.433 69.8248 137.988 70.4357C130.929 74.9772 125.202 81.5197 119.116 87.2698C121.696 83.3366 124.255 79.463 126.614 75.4755C127.518 74.1066 126.112 72.9934 125.323 72.0644C123.672 70.2105 120.911 69.6936 118.551 70.5086C113.692 73.2889 110.171 77.6236 106.456 81.5582C106.357 81.5396 106.195 81.6138 106.138 81.4826C107.205 78.4241 108.853 74.9587 107.504 71.6218L106.456 70.5815C104.824 69.6221 102.966 69.2815 101.063 69.3332ZM32.7921 69.7731C32.376 69.7599 31.9585 69.7625 31.5424 69.7837V69.7864C30.4319 69.842 29.3267 70.0263 28.2533 70.3615C18.2228 74.7559 11.7903 82.7389 7.70996 91.7251C5.36833 96.8696 -6.86065 126.123 10.9223 129.757C28.4123 133.334 34.1186 114.888 38.1684 105.583C40.1059 99.5942 42.4846 93.7898 43.5739 87.4871C43.835 84.6141 44.4777 81.6125 43.6548 78.8839C43.2519 77.4023 41.4973 76.6761 40.1059 76.2905C40.7327 75.6955 41.4987 75.1018 41.8816 74.2868C42.205 73.3777 41.7399 72.5799 40.9938 71.9889C38.6018 70.7578 35.7115 69.8646 32.7934 69.7731H32.7921ZM63.0544 69.9984C61.875 70.0395 60.6677 70.3854 59.7812 70.8757C54.1756 75.4742 50.685 81.529 47.4422 87.34C41.6166 97.7747 29.173 124.609 42.2858 130.279C47.4237 132.5 56.0719 124.572 56.0719 124.572C65.3868 133.494 69.9786 126.275 72.7549 122.785C76.4748 118.099 74.3717 116.338 74.3717 116.338C71.272 115.58 68.1631 124.122 64.2948 123.011C63.1021 122.669 62.2553 121.435 62.2805 120.27C68.8694 116.208 75.4809 110.649 77.356 103.36C77.7576 100.656 78.0014 97.4049 75.1774 95.7219C71.6126 93.8693 67.7403 95.7948 64.7759 97.503C56.7769 102.861 52.5032 110.885 53.0067 119.822C51.4549 121.139 49.5599 123.366 47.4422 122.196C45.0237 120.865 45.8321 116.573 45.9129 116.488C64.923 96.9332 67.6582 75.9777 66.1474 70.9539C65.3802 70.2211 64.2325 69.956 63.0544 69.9984ZM33.9 80.3695C34.5241 80.3297 34.6076 80.9473 34.548 81.4097C34.4274 88.3644 31.4775 94.4206 29.7044 100.836C27.2488 107.769 24.6262 114.651 20.0344 120.788C18.6031 122.213 16.663 123.287 14.4672 122.714C10.1947 120.694 11.7465 115.485 11.9678 111.813C12.9127 104.843 15.5764 98.5221 18.0982 92.1624C18.8244 90.9022 19.2869 89.5438 20.2755 88.3777C21.3609 88.7474 22.5933 89.2298 23.8191 88.8229C27.8345 86.5224 29.3638 82.1479 33.9 80.3695ZM57.2752 84.1542C56.5503 91.9782 52.3428 98.648 48.0889 105.212C47.804 105.583 47.3614 105.992 46.9559 106.253C48.5925 98.2796 52.861 91.0864 57.2752 84.1542ZM146.84 86.3793C145.078 86.3077 143.448 87.1081 142.653 88.5897C142.295 89.6406 142.083 90.9446 142.732 91.9425C143.209 92.8516 144.27 93.4572 145.21 93.7924C146.363 93.9939 147.808 94.0774 148.775 93.4413C150.882 92.0631 151.227 90.233 150.564 88.4506C149.981 87.0591 148.364 86.4323 146.84 86.3793ZM69.6182 102.469C70.1562 102.469 70.4424 102.895 70.4239 103.359C69.5744 106.419 67.5773 109.106 65.0197 111.443C63.8734 112.333 62.7576 113.648 61.3078 114.036C61.6272 110.238 63.9688 107.011 66.8723 104.397C67.7775 103.731 68.6667 103.005 69.6182 102.469ZM157.972 107.068C159.364 110.21 156.62 115.984 155.242 118.56L154.831 118.857C153.559 118.152 152.287 117.507 150.644 117.673L150.485 117.522C153.321 114.169 156.09 110.774 157.972 107.068ZM182.727 107.435C182.727 107.435 185.43 113.166 180.315 119.303C180.315 119.303 178.208 118.212 175.955 118.338C178.897 114.964 180.885 111.239 182.727 107.435Z"/>
</mask>
<path d="M101.063 69.3332C97.8914 69.4206 94.5982 70.6054 92.03 71.8444L91.7835 71.6947C92.25 71.3435 92.2076 70.8068 92.4329 70.3615C92.3308 69.9136 92.0658 69.6552 91.545 69.6181C88.0968 70.6199 84.9335 72.4341 81.871 74.1423C80.8002 74.9216 79.1331 75.9791 78.8893 77.3308C78.4241 79.907 78.7859 82.7257 80.7419 84.6711C81.4907 85.062 82.6158 85.2104 83.4029 84.8195C87.1943 82.2817 91.1832 79.7599 95.3351 77.5534C96.4668 77.1254 97.3904 76.2759 98.7223 76.2931C99.1622 76.4031 99.1238 76.8484 99.2046 77.181L96.4654 84.304C90.457 95.6292 83.3261 111.232 79.5585 118.506C79.4366 118.747 78.1829 123.18 81.8882 127.84C82.6727 128.823 84.471 129.455 85.6544 126.718C88.1114 121.037 91.4045 115.674 94.1265 110.107C98.4586 102.878 102.833 95.7206 109.043 89.3437L109.441 89.2656C106.984 94.2152 96.0003 113.833 94.6075 119.303C94.5081 122.561 94.8924 126.07 97.2685 128.497C97.8715 128.983 98.8707 129.451 99.5306 128.942C101.757 127.214 106.177 117.43 107.83 114.558C112.889 106.512 117.869 98.2968 125.165 91.4164H125.405C125.063 92.177 117.824 105.082 115.167 110.998C113.093 115.539 110.432 119.951 111.457 125.31C111.701 127.181 113.394 128.367 115.086 129.236C119.581 130.797 123.249 127.682 126.774 125.903C127.622 127.533 129.133 129.112 131.214 129.387C136.464 129.887 141.102 127.221 144.349 123.753C152.83 133.147 165.088 127.776 170.151 124.937C178.447 133.101 189.724 129.149 193.448 126.273C193.448 126.273 199.08 120.788 198.523 115.653C198.444 114.964 197.49 114.422 196.84 114.707C193.792 116.048 191.579 124.104 186.517 122.491C188.677 120.083 190.069 117.357 191.195 114.558C192.732 110.144 191.884 104.99 190.546 100.836C189.923 98.261 191.619 96.0175 192.401 93.7209C192.268 93.0914 192.176 92.3798 191.513 92.014C189.949 91.1275 187.418 90.6888 185.881 92.014C177.585 99.0787 168.415 123.269 161.365 122.047C163.299 120.359 164.691 118.392 165.791 116.259C168.56 111.237 166.467 105.192 165.711 99.948C164.969 97.2035 167.023 95.0355 166.771 92.3851C165.738 91.2189 164.068 90.9181 162.412 91.199C157.349 92.7363 155.958 97.8131 153.056 101.353C148.325 108.175 143.527 115.295 136.61 121.157C136.133 121.415 135.377 121.343 134.993 120.934C134.45 119.861 134.649 118.148 135.152 117.005C140.016 106.275 145.303 102.056 146.748 98.7156C146.854 98.485 147.079 97.5242 146.946 97.0432C146.761 96.3938 146.045 95.8969 144.998 95.6464C143.594 95.3138 141.911 95.4052 140.89 96.4641C134.543 101.618 130.103 108.215 127.262 115.148C126.536 116.911 126.175 118.8 125.082 120.416C124.198 120.824 123.292 121.231 122.184 121.157C121.761 120.898 121.677 120.36 121.614 119.896C122.543 114.611 124.941 109.886 127.502 105.212C131.093 97.6859 144.508 78.9038 145.078 75.8452C144.932 74.0257 143.686 72.621 142.335 71.2494C141.235 70.1919 139.433 69.8248 137.988 70.4357C130.929 74.9772 125.202 81.5197 119.116 87.2698C121.696 83.3366 124.255 79.463 126.614 75.4755C127.518 74.1066 126.112 72.9934 125.323 72.0644C123.672 70.2105 120.911 69.6936 118.551 70.5086C113.692 73.2889 110.171 77.6236 106.456 81.5582C106.357 81.5396 106.195 81.6138 106.138 81.4826C107.205 78.4241 108.853 74.9587 107.504 71.6218L106.456 70.5815C104.824 69.6221 102.966 69.2815 101.063 69.3332ZM32.7921 69.7731C32.376 69.7599 31.9585 69.7625 31.5424 69.7837V69.7864C30.4319 69.842 29.3267 70.0263 28.2533 70.3615C18.2228 74.7559 11.7903 82.7389 7.70996 91.7251C5.36833 96.8696 -6.86065 126.123 10.9223 129.757C28.4123 133.334 34.1186 114.888 38.1684 105.583C40.1059 99.5942 42.4846 93.7898 43.5739 87.4871C43.835 84.6141 44.4777 81.6125 43.6548 78.8839C43.2519 77.4023 41.4973 76.6761 40.1059 76.2905C40.7327 75.6955 41.4987 75.1018 41.8816 74.2868C42.205 73.3777 41.7399 72.5799 40.9938 71.9889C38.6018 70.7578 35.7115 69.8646 32.7934 69.7731H32.7921ZM63.0544 69.9984C61.875 70.0395 60.6677 70.3854 59.7812 70.8757C54.1756 75.4742 50.685 81.529 47.4422 87.34C41.6166 97.7747 29.173 124.609 42.2858 130.279C47.4237 132.5 56.0719 124.572 56.0719 124.572C65.3868 133.494 69.9786 126.275 72.7549 122.785C76.4748 118.099 74.3717 116.338 74.3717 116.338C71.272 115.58 68.1631 124.122 64.2948 123.011C63.1021 122.669 62.2553 121.435 62.2805 120.27C68.8694 116.208 75.4809 110.649 77.356 103.36C77.7576 100.656 78.0014 97.4049 75.1774 95.7219C71.6126 93.8693 67.7403 95.7948 64.7759 97.503C56.7769 102.861 52.5032 110.885 53.0067 119.822C51.4549 121.139 49.5599 123.366 47.4422 122.196C45.0237 120.865 45.8321 116.573 45.9129 116.488C64.923 96.9332 67.6582 75.9777 66.1474 70.9539C65.3802 70.2211 64.2325 69.956 63.0544 69.9984ZM33.9 80.3695C34.5241 80.3297 34.6076 80.9473 34.548 81.4097C34.4274 88.3644 31.4775 94.4206 29.7044 100.836C27.2488 107.769 24.6262 114.651 20.0344 120.788C18.6031 122.213 16.663 123.287 14.4672 122.714C10.1947 120.694 11.7465 115.485 11.9678 111.813C12.9127 104.843 15.5764 98.5221 18.0982 92.1624C18.8244 90.9022 19.2869 89.5438 20.2755 88.3777C21.3609 88.7474 22.5933 89.2298 23.8191 88.8229C27.8345 86.5224 29.3638 82.1479 33.9 80.3695ZM57.2752 84.1542C56.5503 91.9782 52.3428 98.648 48.0889 105.212C47.804 105.583 47.3614 105.992 46.9559 106.253C48.5925 98.2796 52.861 91.0864 57.2752 84.1542ZM146.84 86.3793C145.078 86.3077 143.448 87.1081 142.653 88.5897C142.295 89.6406 142.083 90.9446 142.732 91.9425C143.209 92.8516 144.27 93.4572 145.21 93.7924C146.363 93.9939 147.808 94.0774 148.775 93.4413C150.882 92.0631 151.227 90.233 150.564 88.4506C149.981 87.0591 148.364 86.4323 146.84 86.3793ZM69.6182 102.469C70.1562 102.469 70.4424 102.895 70.4239 103.359C69.5744 106.419 67.5773 109.106 65.0197 111.443C63.8734 112.333 62.7576 113.648 61.3078 114.036C61.6272 110.238 63.9688 107.011 66.8723 104.397C67.7775 103.731 68.6667 103.005 69.6182 102.469ZM157.972 107.068C159.364 110.21 156.62 115.984 155.242 118.56L154.831 118.857C153.559 118.152 152.287 117.507 150.644 117.673L150.485 117.522C153.321 114.169 156.09 110.774 157.972 107.068ZM182.727 107.435C182.727 107.435 185.43 113.166 180.315 119.303C180.315 119.303 178.208 118.212 175.955 118.338C178.897 114.964 180.885 111.239 182.727 107.435Z" fill="#CE1126"/>
<path d="M101.063 69.3332C97.8914 69.4206 94.5982 70.6054 92.03 71.8444L91.7835 71.6947C92.25 71.3435 92.2076 70.8068 92.4329 70.3615C92.3308 69.9136 92.0658 69.6552 91.545 69.6181C88.0968 70.6199 84.9335 72.4341 81.871 74.1423C80.8002 74.9216 79.1331 75.9791 78.8893 77.3308C78.4241 79.907 78.7859 82.7257 80.7419 84.6711C81.4907 85.062 82.6158 85.2104 83.4029 84.8195C87.1943 82.2817 91.1832 79.7599 95.3351 77.5534C96.4668 77.1254 97.3904 76.2759 98.7223 76.2931C99.1622 76.4031 99.1238 76.8484 99.2046 77.181L96.4654 84.304C90.457 95.6292 83.3261 111.232 79.5585 118.506C79.4366 118.747 78.1829 123.18 81.8882 127.84C82.6727 128.823 84.471 129.455 85.6544 126.718C88.1114 121.037 91.4045 115.674 94.1265 110.107C98.4586 102.878 102.833 95.7206 109.043 89.3437L109.441 89.2656C106.984 94.2152 96.0003 113.833 94.6075 119.303C94.5081 122.561 94.8924 126.07 97.2685 128.497C97.8715 128.983 98.8707 129.451 99.5306 128.942C101.757 127.214 106.177 117.43 107.83 114.558C112.889 106.512 117.869 98.2968 125.165 91.4164H125.405C125.063 92.177 117.824 105.082 115.167 110.998C113.093 115.539 110.432 119.951 111.457 125.31C111.701 127.181 113.394 128.367 115.086 129.236C119.581 130.797 123.249 127.682 126.774 125.903C127.622 127.533 129.133 129.112 131.214 129.387C136.464 129.887 141.102 127.221 144.349 123.753C152.83 133.147 165.088 127.776 170.151 124.937C178.447 133.101 189.724 129.149 193.448 126.273C193.448 126.273 199.08 120.788 198.523 115.653C198.444 114.964 197.49 114.422 196.84 114.707C193.792 116.048 191.579 124.104 186.517 122.491C188.677 120.083 190.069 117.357 191.195 114.558C192.732 110.144 191.884 104.99 190.546 100.836C189.923 98.261 191.619 96.0175 192.401 93.7209C192.268 93.0914 192.176 92.3798 191.513 92.014C189.949 91.1275 187.418 90.6888 185.881 92.014C177.585 99.0787 168.415 123.269 161.365 122.047C163.299 120.359 164.691 118.392 165.791 116.259C168.56 111.237 166.467 105.192 165.711 99.948C164.969 97.2035 167.023 95.0355 166.771 92.3851C165.738 91.2189 164.068 90.9181 162.412 91.199C157.349 92.7363 155.958 97.8131 153.056 101.353C148.325 108.175 143.527 115.295 136.61 121.157C136.133 121.415 135.377 121.343 134.993 120.934C134.45 119.861 134.649 118.148 135.152 117.005C140.016 106.275 145.303 102.056 146.748 98.7156C146.854 98.485 147.079 97.5242 146.946 97.0432C146.761 96.3938 146.045 95.8969 144.998 95.6464C143.594 95.3138 141.911 95.4052 140.89 96.4641C134.543 101.618 130.103 108.215 127.262 115.148C126.536 116.911 126.175 118.8 125.082 120.416C124.198 120.824 123.292 121.231 122.184 121.157C121.761 120.898 121.677 120.36 121.614 119.896C122.543 114.611 124.941 109.886 127.502 105.212C131.093 97.6859 144.508 78.9038 145.078 75.8452C144.932 74.0257 143.686 72.621 142.335 71.2494C141.235 70.1919 139.433 69.8248 137.988 70.4357C130.929 74.9772 125.202 81.5197 119.116 87.2698C121.696 83.3366 124.255 79.463 126.614 75.4755C127.518 74.1066 126.112 72.9934 125.323 72.0644C123.672 70.2105 120.911 69.6936 118.551 70.5086C113.692 73.2889 110.171 77.6236 106.456 81.5582C106.357 81.5396 106.195 81.6138 106.138 81.4826C107.205 78.4241 108.853 74.9587 107.504 71.6218L106.456 70.5815C104.824 69.6221 102.966 69.2815 101.063 69.3332ZM32.7921 69.7731C32.376 69.7599 31.9585 69.7625 31.5424 69.7837V69.7864C30.4319 69.842 29.3267 70.0263 28.2533 70.3615C18.2228 74.7559 11.7903 82.7389 7.70996 91.7251C5.36833 96.8696 -6.86065 126.123 10.9223 129.757C28.4123 133.334 34.1186 114.888 38.1684 105.583C40.1059 99.5942 42.4846 93.7898 43.5739 87.4871C43.835 84.6141 44.4777 81.6125 43.6548 78.8839C43.2519 77.4023 41.4973 76.6761 40.1059 76.2905C40.7327 75.6955 41.4987 75.1018 41.8816 74.2868C42.205 73.3777 41.7399 72.5799 40.9938 71.9889C38.6018 70.7578 35.7115 69.8646 32.7934 69.7731H32.7921ZM63.0544 69.9984C61.875 70.0395 60.6677 70.3854 59.7812 70.8757C54.1756 75.4742 50.685 81.529 47.4422 87.34C41.6166 97.7747 29.173 124.609 42.2858 130.279C47.4237 132.5 56.0719 124.572 56.0719 124.572C65.3868 133.494 69.9786 126.275 72.7549 122.785C76.4748 118.099 74.3717 116.338 74.3717 116.338C71.272 115.58 68.1631 124.122 64.2948 123.011C63.1021 122.669 62.2553 121.435 62.2805 120.27C68.8694 116.208 75.4809 110.649 77.356 103.36C77.7576 100.656 78.0014 97.4049 75.1774 95.7219C71.6126 93.8693 67.7403 95.7948 64.7759 97.503C56.7769 102.861 52.5032 110.885 53.0067 119.822C51.4549 121.139 49.5599 123.366 47.4422 122.196C45.0237 120.865 45.8321 116.573 45.9129 116.488C64.923 96.9332 67.6582 75.9777 66.1474 70.9539C65.3802 70.2211 64.2325 69.956 63.0544 69.9984ZM33.9 80.3695C34.5241 80.3297 34.6076 80.9473 34.548 81.4097C34.4274 88.3644 31.4775 94.4206 29.7044 100.836C27.2488 107.769 24.6262 114.651 20.0344 120.788C18.6031 122.213 16.663 123.287 14.4672 122.714C10.1947 120.694 11.7465 115.485 11.9678 111.813C12.9127 104.843 15.5764 98.5221 18.0982 92.1624C18.8244 90.9022 19.2869 89.5438 20.2755 88.3777C21.3609 88.7474 22.5933 89.2298 23.8191 88.8229C27.8345 86.5224 29.3638 82.1479 33.9 80.3695ZM57.2752 84.1542C56.5503 91.9782 52.3428 98.648 48.0889 105.212C47.804 105.583 47.3614 105.992 46.9559 106.253C48.5925 98.2796 52.861 91.0864 57.2752 84.1542ZM146.84 86.3793C145.078 86.3077 143.448 87.1081 142.653 88.5897C142.295 89.6406 142.083 90.9446 142.732 91.9425C143.209 92.8516 144.27 93.4572 145.21 93.7924C146.363 93.9939 147.808 94.0774 148.775 93.4413C150.882 92.0631 151.227 90.233 150.564 88.4506C149.981 87.0591 148.364 86.4323 146.84 86.3793ZM69.6182 102.469C70.1562 102.469 70.4424 102.895 70.4239 103.359C69.5744 106.419 67.5773 109.106 65.0197 111.443C63.8734 112.333 62.7576 113.648 61.3078 114.036C61.6272 110.238 63.9688 107.011 66.8723 104.397C67.7775 103.731 68.6667 103.005 69.6182 102.469ZM157.972 107.068C159.364 110.21 156.62 115.984 155.242 118.56L154.831 118.857C153.559 118.152 152.287 117.507 150.644 117.673L150.485 117.522C153.321 114.169 156.09 110.774 157.972 107.068ZM182.727 107.435C182.727 107.435 185.43 113.166 180.315 119.303C180.315 119.303 178.208 118.212 175.955 118.338C178.897 114.964 180.885 111.239 182.727 107.435Z" stroke="white" stroke-width="2" mask="url(#path-2-outside-2_107_19991)"/>
</g>
<defs>
<clipPath id="clip0_107_19991">
<rect width="200" height="200" fill="white"/>
</clipPath>
</defs>
</svg>
