<svg width="200" height="200" viewBox="0 0 200 200" fill="none" xmlns="http://www.w3.org/2000/svg">
<path fill-rule="evenodd" clip-rule="evenodd" d="M44.8392 136.799C43.3792 135.742 42.5548 134.495 42.1167 133.157C42.555 134.493 43.3793 135.74 44.8383 136.796C48.447 139.405 55.4786 135.729 63.6226 131.472L63.6312 131.468L63.771 131.395L63.7712 131.395C67.7067 129.343 71.741 127.239 74.3365 126.573L81.4822 130.89C84.418 133.784 85.5271 133.958 85.8913 134.012C86.3915 134.09 87.1508 134.105 88.028 134.121C88.5408 134.129 89.3419 134.145 89.7623 134.183C89.8856 134.273 90.0215 134.38 90.1683 134.496L90.1723 134.499L90.1724 134.499L90.1724 134.499C92.417 136.247 96.5894 139.496 100.111 139.496C103.503 139.496 105.428 137.878 106.965 135.899C106.965 135.899 112.439 136.459 112.445 136.461C115.897 136.803 118.971 134.953 120.46 131.633C121.051 130.312 121.586 130.06 123.168 129.315L123.396 129.208L123.402 129.205C125.011 128.463 129.818 126.247 131.094 120.384L131.114 120.355C131.234 120.169 131.385 119.936 131.562 119.681C132.907 119.922 134.016 119.909 134.663 119.9H134.88C136.548 119.9 137.497 119.512 138.021 119.155C138.875 118.808 141.381 118.26 143.639 118.244C146.301 119.02 149.369 118.356 150.273 118.126L153.907 117.2L153.98 117.18L154.05 117.157C157.401 115.995 161.546 115.846 164.365 116.792C164.705 116.906 166.24 117.712 167.623 118.438C168.719 119.014 169.721 119.54 169.958 119.632C171.41 120.194 172.667 120.68 174.019 120.565C175.284 120.515 176.415 119.942 177.466 118.808C178.075 118.162 179.887 116.223 179.237 114.11C181.816 114.11 183.289 112.53 184.894 110.809C185.483 110.177 186.089 109.527 186.774 108.929C188.21 107.674 189.637 106.913 190.874 106.254C193.066 105.085 194.663 104.234 194.663 101.515C194.663 101.156 194.617 100.826 194.533 100.524C194.617 100.827 194.663 101.158 194.663 101.518C194.663 104.237 193.067 105.088 190.875 106.256C189.638 106.916 188.211 107.677 186.775 108.932C186.09 109.53 185.484 110.18 184.896 110.811L184.895 110.811C184.075 111.691 183.289 112.534 182.373 113.148C181.496 113.735 180.499 114.113 179.238 114.113C179.441 114.774 179.404 115.417 179.238 116.01C178.873 117.312 177.886 118.367 177.467 118.81C176.416 119.945 175.285 120.518 174.02 120.568C172.668 120.682 171.411 120.197 169.959 119.635C169.722 119.543 168.72 119.017 167.624 118.441L167.623 118.441C166.24 117.714 164.706 116.908 164.366 116.795C161.547 115.849 157.402 115.998 154.051 117.16L153.98 117.183L153.908 117.203L150.274 118.129C149.37 118.359 146.302 119.022 143.64 118.247C141.382 118.263 138.875 118.81 138.022 119.158C137.498 119.515 136.549 119.903 134.881 119.903H134.664C134.017 119.912 132.908 119.925 131.563 119.684C131.386 119.939 131.235 120.172 131.114 120.358L131.114 120.358L131.095 120.387C129.819 126.25 125.012 128.466 123.403 129.208L123.397 129.211L123.169 129.318C121.587 130.063 121.052 130.315 120.461 131.636C118.972 134.956 115.898 136.806 112.446 136.463C112.44 136.462 106.965 135.902 106.965 135.902C105.429 137.881 103.504 139.499 100.112 139.499C96.5903 139.499 92.4178 136.25 90.1732 134.502L90.1692 134.499C90.0224 134.383 89.8865 134.276 89.7633 134.185C89.3428 134.147 88.5418 134.132 88.0289 134.124C87.1518 134.108 86.3924 134.093 85.8923 134.015C85.5281 133.961 84.4189 133.787 81.4831 130.893L74.3375 126.576C71.7419 127.242 67.7078 129.346 63.7722 131.398L63.772 131.398L63.7718 131.398L63.6322 131.471L63.6235 131.475C55.4795 135.732 48.448 139.407 44.8392 136.799ZM40.6665 116.662C41.1194 117.402 41.4531 118.141 41.6941 118.877C41.4531 118.142 41.1197 117.404 40.6674 116.665C38.402 114.409 37.3178 112.418 36.8096 110.915C37.3182 112.418 38.4025 114.408 40.6665 116.662ZM36.3987 109.002L36.3988 109.004C35.1676 107.585 34.5645 106.362 34.232 105.345C34.5647 106.361 35.168 107.584 36.3987 109.002ZM33.6351 102.822C33.6499 102.84 33.6649 102.874 33.6799 102.92C33.6652 102.875 33.6505 102.842 33.636 102.825C33.2861 102.385 32.0492 101.905 30.9548 101.481L30.9394 101.475C29.5258 100.933 27.9601 100.324 26.6462 99.3255C25.8434 99.688 24.9953 99.9508 24.1308 100.123C19.495 102.916 15.2308 101.915 12.6121 99.9145C12.1754 99.5812 11.6298 99.3379 11.0907 99.1635C10.6113 99.0084 10.137 98.9077 9.74932 98.8466C9.45691 98.8005 9.21372 98.7768 9.05464 98.7692L5.46456 98.6025C5.46446 98.6025 5.46513 98.6015 5.46656 98.5997L9.05369 98.7663C9.66079 98.7953 11.4929 99.0581 12.6112 99.9116C15.2299 101.912 19.4941 102.913 24.1299 100.12C24.9943 99.9479 25.8425 99.6851 26.6453 99.3227C27.9591 100.321 29.5249 100.93 30.9384 101.472L30.9538 101.478C32.0482 101.902 33.2851 102.382 33.6351 102.822ZM63.1812 74.3045L63.1792 74.3047L62.2054 73.4267L62.2072 73.4263L63.1812 74.3045ZM67.6865 72.3963L67.6844 72.3965L66.7378 71.5818L66.7397 71.5814L67.6865 72.3963ZM72.507 70.5079L72.5051 70.5082L71.6127 69.6844L71.6145 69.6841L72.507 70.5079ZM77.2696 68.7301L77.2676 68.7303L76.1796 67.7417L76.1814 67.7413L77.2696 68.7301ZM82.0938 66.7041L82.0921 66.7043L80.8733 65.4764L80.8749 65.4761L82.0938 66.7041ZM86.7966 64.7649L86.795 64.765L85.7374 63.6062L85.7389 63.606L86.7966 64.7649ZM91.8057 63.0524L91.8043 63.0524L90.6812 61.6272L90.6825 61.6271L91.8057 63.0524ZM96.9434 61.5791L96.9425 61.579L95.8842 59.8748L95.8851 59.8748L96.9434 61.5791ZM102.219 60.5678L102.218 60.5677L101.377 58.6878L101.377 58.6878L102.219 60.5678ZM190.42 97.762L190.419 97.7621V95.2177L190.421 95.2157V97.762H190.42ZM65.5687 135.742C61.6726 137.778 57.6285 139.893 54.0758 141.131C50.7944 142.276 45.9843 143.404 42.0962 140.593L42.0945 140.592C36.0667 136.23 36.8628 129.626 37.2552 126.369L37.2553 126.368C37.271 126.238 37.2861 126.113 37.3001 125.994L37.3003 125.992C37.6638 122.894 37.7586 121.172 36.9 119.51C33.8338 116.307 32.4825 113.317 31.9694 110.961C30.5318 109.021 29.882 107.3 29.5347 105.952L29.3525 105.881L29.2553 105.844L29.1509 105.804L29.1508 105.804L29.1507 105.804L29.1506 105.804L29.1506 105.804L29.1505 105.804C28.339 105.493 27.2415 105.073 26.0862 104.474C26.0063 104.495 25.9265 104.515 25.8466 104.535C19.7094 107.882 13.7155 106.608 9.84314 103.691L9.82501 103.683C9.74616 103.649 9.62237 103.606 9.4582 103.563C9.29754 103.521 9.13693 103.489 9.0007 103.469C8.9018 103.453 8.84068 103.448 8.82381 103.446L8.81903 103.446L5.24731 103.28L5.25096 103.201C2.36952 101.997 0.800872 98.2251 1.02031 97.1288C1.13727 96.8143 1.34659 96.3741 1.42109 96.2416C1.52805 96.0584 1.62659 95.9201 1.64513 95.8941L1.64699 95.8915C1.70288 95.8128 1.75011 95.7517 1.76049 95.7383L1.76056 95.7382L1.76154 95.7369C1.79081 95.6991 1.8153 95.6686 1.82209 95.6602L1.82223 95.66L1.8226 95.6595C1.84129 95.6363 1.85914 95.6145 1.86943 95.602C1.89324 95.5729 1.92343 95.5364 1.95568 95.4975C2.02176 95.4177 2.11414 95.3065 2.22224 95.1766C2.43922 94.9158 2.72805 94.5694 3.01589 94.2243L3.80824 93.2747L4.1682 92.8436C5.87288 90.8024 7.87869 89.696 9.84119 89.1984C11.2023 87.984 13.7556 86.3542 17.65 86.3542C18.7265 86.3542 19.745 86.464 20.6947 86.6465C22.8573 82.9926 26.7934 80.5332 31.3832 80.5332C33.2656 80.5332 35.0793 80.9602 36.7131 81.7361C42.7542 74.936 48.9765 72.9422 53.7084 71.4339C54.0447 71.3287 54.6639 71.1839 55.0746 71.0878L55.0846 71.0855L55.0924 71.0837C55.7017 70.9411 56.5116 70.7577 57.3902 70.5699C57.8068 70.4809 58.2591 70.3865 58.7266 70.2928C59.3521 69.5986 60.1826 69.0942 61.1254 68.8707L61.1274 68.8703L61.1406 68.8672L61.1745 68.8592L61.2953 68.8311C61.3983 68.8072 61.5452 68.7736 61.7271 68.7327C62.0902 68.6511 62.5975 68.5399 63.1786 68.4202L63.309 68.3934C63.936 67.7192 64.7597 67.2317 65.6914 67.0181L65.6933 67.0176L65.7385 67.0074L65.8546 66.9812C65.9537 66.959 66.0956 66.9276 66.2729 66.889C66.627 66.812 67.1253 66.706 67.7102 66.5885C67.862 66.5579 68.0209 66.5264 68.1856 66.4942C68.8322 65.7996 69.6869 65.3046 70.6504 65.1022L70.6523 65.1018L70.6553 65.1012L70.6647 65.0992L70.6968 65.0925L70.8118 65.0689C70.91 65.0487 71.0505 65.0202 71.226 64.9853C71.5674 64.9174 72.0437 64.8249 72.6007 64.7226C73.262 63.939 74.175 63.3789 75.2152 63.1599L75.2168 63.1596L75.266 63.1493L75.3979 63.1219C75.5111 63.0985 75.6733 63.0652 75.8741 63.0247C76.1814 62.9626 76.581 62.8831 77.0342 62.7959C77.7401 61.7851 78.8298 61.0762 80.0821 60.8615L80.0831 60.8614L80.0844 60.8612L80.0878 60.8606L80.0983 60.8588L80.1329 60.8529L80.2548 60.8326C80.3585 60.8155 80.5063 60.7915 80.6907 60.7624C81.0589 60.7044 81.5765 60.6259 82.1833 60.5422L82.1987 60.5401C82.9108 59.7185 83.9001 59.1554 85.0104 58.9809L85.0287 58.978L85.067 58.9721L85.1097 58.9656L85.2001 58.952C85.3129 58.9351 85.4727 58.9117 85.671 58.884C86.0157 58.8357 86.4805 58.7737 87.0189 58.7098C87.8227 57.7008 89.0217 57.0528 90.3438 56.9572L90.345 56.9572L90.3465 56.957L90.3626 56.9559L90.4027 56.9531C90.4363 56.9508 90.4834 56.9476 90.543 56.9438C90.662 56.9361 90.8309 56.9256 91.0399 56.9139C91.3708 56.8954 91.8059 56.8737 92.3058 56.855C93.2274 55.7627 94.6116 55.1386 96.0693 55.1962L96.0723 55.1964L96.0888 55.197L96.1277 55.1987L96.1408 55.1993L96.2605 55.2049C96.3727 55.2103 96.5311 55.2185 96.7285 55.2302C97.0789 55.2508 97.5552 55.2823 98.1155 55.3283C99.2031 54.272 100.749 53.7986 102.262 54.09L102.264 54.0904L102.278 54.0931L102.314 54.1L102.441 54.1251C102.55 54.1467 102.706 54.1778 102.899 54.2174C103.227 54.2844 103.666 54.3762 104.172 54.4869C105.263 53.7709 106.622 53.5327 107.919 53.8697L107.92 53.87L107.921 53.8704L107.925 53.8713L107.937 53.8743L107.975 53.8843L108.108 53.9198C108.222 53.9502 108.383 53.9937 108.582 54.0487C108.82 54.1144 109.115 54.1971 109.448 54.2936C110.711 53.4726 112.31 53.3026 113.735 53.872L113.736 53.8725L113.738 53.8731L113.754 53.8795L113.794 53.8955C113.827 53.909 113.874 53.928 113.933 53.9521C114.051 54.0004 114.219 54.0694 114.425 54.1558C114.836 54.3282 115.407 54.5725 116.052 54.8626L116.061 54.8667C117.281 54.4266 118.65 54.5071 119.83 55.1281L119.832 55.1289L119.833 55.1299L119.853 55.1402L119.901 55.1657C119.941 55.187 119.997 55.2171 120.068 55.2554C120.21 55.332 120.411 55.4417 120.661 55.5806C120.725 55.616 120.792 55.6533 120.862 55.6925C121.381 54.7505 122.221 53.9946 123.266 53.5881C125.035 52.9004 127.043 53.3481 128.352 54.7214L128.353 54.7222L128.354 54.7229L128.367 54.7369L128.419 54.7905C129.018 53.5271 130.166 52.5713 131.575 52.2387C133.457 51.7946 135.419 52.553 136.512 54.1478L138.099 56.4617C139.086 57.8033 140.089 58.9308 141.122 59.9659C141.698 60.0944 142.253 60.3323 142.754 60.6766L142.756 60.6782L143.233 61.0061L143.863 61.4396C144.535 61.4896 145.197 61.6845 145.803 62.0235L145.498 62.5678C145.803 62.0237 145.804 62.0243 145.805 62.0245L145.807 62.0257L145.811 62.0284L145.824 62.0353L145.859 62.0552C145.887 62.0712 145.924 62.0926 145.971 62.1194C146.063 62.173 146.192 62.2481 146.353 62.3448C146.676 62.5381 147.132 62.8176 147.701 63.1826C148.836 63.9123 150.424 64.9864 152.292 66.3995C156.019 69.2182 160.919 73.4256 165.587 78.9838L165.589 78.9855C168.165 82.0565 169.795 83.9519 173.495 85.896C175.437 86.8466 178.239 88.4052 180.662 89.8275C181.899 90.5536 183.08 91.2689 184.04 91.8794C184.286 92.0355 184.548 92.204 184.812 92.3784C184.973 92.3859 185.141 92.3972 185.314 92.4131C186.166 92.4915 187.303 92.6974 188.488 93.2236C189.056 93.1403 189.706 93.083 190.419 93.083V94.3921L190.421 94.3935V93.0827C192.071 93.0827 194.094 93.5734 195.829 94.7848C197.736 96.1156 199.346 98.3959 199.346 101.518C199.346 103.355 198.905 105.1 197.847 106.637C196.858 108.073 195.576 108.956 194.625 109.528C193.832 110.005 193.202 110.337 192.648 110.629C191.639 111.161 190.883 111.56 189.856 112.458C189.417 112.841 188.993 113.284 188.439 113.877L188.304 114.022L188.303 114.022L188.303 114.022C187.818 114.543 187.188 115.219 186.51 115.833C185.708 116.557 184.74 117.287 183.565 117.841C183.378 118.371 183.158 118.841 182.945 119.237C182.197 120.622 181.238 121.637 180.894 122.001L180.885 122.011C179.203 123.819 177.008 125.104 174.31 125.242C171.89 125.418 169.758 124.584 168.502 124.092L168.496 124.09L168.324 124.023L168.269 124.002L168.264 123.999C167.968 123.885 167.652 123.727 167.512 123.657L167.511 123.657L167.502 123.652C167.294 123.549 167.048 123.423 166.79 123.289C166.392 123.082 165.917 122.833 165.438 122.582L165.014 122.359C164.385 122.029 163.781 121.714 163.302 121.47C163.06 121.347 162.874 121.255 162.745 121.194L162.736 121.189C161.051 120.68 158.084 120.717 155.585 121.583C155.566 121.59 155.548 121.596 155.53 121.602L155.459 121.626C155.381 121.652 155.303 121.675 155.224 121.697L155.152 121.717C155.123 121.725 155.093 121.733 155.064 121.74L151.429 122.667C150.501 122.903 146.833 123.769 143.129 122.947C142.476 122.983 141.777 123.071 141.132 123.187C140.581 123.286 140.195 123.382 139.982 123.439C138.628 124.172 136.933 124.585 134.881 124.585H134.696L134.633 124.586C132.081 130.369 126.963 132.724 125.431 133.429L125.383 133.451L125.357 133.463L125.163 133.554L125.159 133.556C124.958 133.651 124.8 133.725 124.659 133.793L124.612 133.816C122.301 138.696 117.47 141.667 111.983 141.123L111.931 141.117L111.899 141.114L108.831 140.799C106.836 142.661 104.08 144.181 100.112 144.181C97.0727 144.181 94.257 142.842 92.2975 141.696C90.6655 140.742 89.18 139.648 88.0852 138.808L87.9593 138.806L87.9418 138.805L87.7827 138.802C87.0605 138.79 86.0148 138.771 85.186 138.644C83.4884 138.387 81.6045 137.501 78.6034 134.623L73.7818 131.71C73.1327 131.975 72.3727 132.313 71.5032 132.726C69.7747 133.548 67.8719 134.54 65.8954 135.571L65.8952 135.571L65.5687 135.742ZM29.1597 104.128C29.1579 104.12 29.1582 104.122 29.1605 104.132L29.1597 104.128Z" fill="white"/>
<path d="M190.423 97.7701C188.802 97.7701 187.703 98.2267 187.703 98.2267C185.958 96.6465 183.385 97.1195 183.385 97.1195C182.25 96.1047 174.951 91.8169 171.384 90.079C166.79 87.6778 164.67 85.1751 162.006 82C153.231 71.5522 143.519 66.1137 143.519 66.1137L143.445 66.8477C143.13 66.6175 140.107 64.5407 140.107 64.5407L139.985 65.3236C138.095 63.6309 136.172 61.7553 134.284 59.1765L132.655 56.8006C132.082 60.938 131.912 63.8067 131.912 63.8067C128.119 61.266 124.967 57.9569 124.967 57.9569C124.967 57.9569 124.915 60.6789 125.439 64.2381C122.043 61.5867 117.653 59.2762 117.653 59.2762L117.864 61.0522C115.732 59.7148 112.003 58.2251 112.003 58.2251L112.55 60.3001C110.33 59.3378 106.745 58.4063 106.745 58.4063L107.353 60.1225C104.873 59.365 101.381 58.6927 101.381 58.6927L102.224 60.5756C99.232 60.012 95.8884 59.8797 95.8884 59.8797L96.9485 61.5869C94.3969 61.364 90.6855 61.6322 90.6855 61.6322L91.8108 63.0602C89.2103 63.0659 85.7416 63.6112 85.7416 63.6112L86.8018 64.7727C84.1015 64.9286 80.8775 65.4813 80.8775 65.4813L82.099 66.7119C79.946 66.9547 76.1838 67.7466 76.1838 67.7466L77.2747 68.7379C74.7322 69.0351 71.6169 69.6894 71.6169 69.6894L72.5122 70.5157C69.8717 70.8691 66.742 71.5868 66.742 71.5868L67.6917 72.4041C65.497 72.6523 62.2096 73.4316 62.2096 73.4316L63.1864 74.3123C60.8522 74.5171 55.3683 75.8219 55.1346 75.8998C49.9154 77.5635 43.5815 79.5823 37.549 88.2558C36.0937 86.3747 33.8248 85.2203 31.3874 85.2203C27.25 85.2203 23.8992 88.4497 23.622 92.6287C22.1595 91.8386 20.0809 91.0413 17.6542 91.0413C14.2563 91.0413 12.647 92.9803 12.4748 93.1996C12.4748 93.1996 12.3607 93.3447 12.1921 93.5621C10.755 93.6382 9.15306 94.1891 7.76669 95.8492C7.76669 95.8492 5.46332 98.6074 5.46876 98.6074L9.05884 98.7742C9.66594 98.8031 11.4981 99.0659 12.6163 99.9194C15.235 101.92 19.4992 102.92 24.135 100.128C24.9995 99.9557 25.8476 99.6929 26.6504 99.3305C27.9643 100.329 29.53 100.938 30.9436 101.48C32.0418 101.906 33.2886 102.388 33.6402 102.83C33.7073 102.91 33.778 103.328 33.8323 103.631C34.0498 104.858 34.3705 106.666 36.4038 109.01C36.5162 110.434 37.2338 113.247 40.6717 116.67C42.7176 120.013 42.3317 123.33 41.9548 126.543C41.5416 130.075 41.074 134.076 44.8434 136.804C48.4535 139.413 55.4887 135.734 63.6364 131.476C67.616 129.401 71.7153 127.255 74.3417 126.581L81.4873 130.898C84.4231 133.792 85.5323 133.966 85.8965 134.02C86.3966 134.098 87.156 134.112 88.0331 134.129C88.546 134.136 89.347 134.152 89.7675 134.19C89.8907 134.281 90.0266 134.388 90.1734 134.504C92.417 136.251 96.5924 139.504 100.116 139.504C103.508 139.504 105.433 137.886 106.97 135.907C106.97 135.907 112.444 136.467 112.45 136.468C115.902 136.811 118.976 134.961 120.465 131.641C121.056 130.32 121.591 130.068 123.173 129.323L123.401 129.216C125.005 128.476 129.822 126.262 131.1 120.392C131.223 120.202 131.381 119.957 131.567 119.689C132.912 119.93 134.021 119.917 134.668 119.908H134.885C136.553 119.908 137.502 119.52 138.026 119.163C138.88 118.815 141.386 118.268 143.644 118.252C146.306 119.027 149.374 118.364 150.279 118.134L153.912 117.208L153.985 117.188L154.055 117.164C157.406 116.003 161.551 115.854 164.371 116.8C164.98 117.003 169.427 119.432 169.963 119.64C171.415 120.202 172.673 120.687 174.024 120.573C175.289 120.523 176.42 119.95 177.471 118.815C178.08 118.17 179.892 116.231 179.242 114.118C182.767 114.118 184.225 111.168 186.779 108.937C190.759 105.459 194.668 105.776 194.668 101.523C194.668 98.81 192.044 97.7698 190.425 97.7698" fill="black"/>
<path d="M133.414 59.8167C133.414 59.8167 133.219 61.2103 133.156 63.2781L133.904 63.6357C134.676 64.0035 135.422 64.4115 136.094 64.7994V63.6163L137.282 64.2734C135.993 63.0009 134.688 61.5619 133.414 59.8167ZM126.275 60.7808C126.276 60.7893 127.012 75.2285 134.409 78.8522C135.585 79.4267 137.133 79.1726 137.133 79.1726C137.133 79.1726 135.933 80.6108 133.832 79.5615C132.334 78.8148 131.093 77.7384 130.058 76.4607C128.028 74.701 123.235 70.8647 117.774 68.7242C118.098 69.6557 118.394 70.5048 118.394 70.5048C118.394 70.5048 113.292 68.3821 112.587 68.1356C112.951 68.9384 113.271 69.6435 113.271 69.6435L107.025 67.3206L107.028 67.3236H107.025C107.016 67.3198 107.622 68.1924 107.926 68.6274C108.026 68.7742 108.095 68.8702 108.095 68.8702C108.095 68.8702 108.075 68.8655 108.037 68.8583C107.478 68.7532 102.977 67.9106 102.269 67.8272C102.91 68.6082 103.494 69.3187 103.494 69.3187C103.494 69.3187 98.1344 68.7581 97.3442 68.7183C98.156 69.5682 98.9266 70.3796 98.9266 70.3796C98.9266 70.3796 93.6814 70.0881 87.4145 71.3839L89.4887 73.1823C89.4887 73.1823 81.8631 74.0339 75.1653 76.6272C75.1653 76.6272 80.4041 73.6195 86.5477 72.3419L84.3335 70.3736C84.3335 70.3736 84.3587 70.3679 84.4095 70.3587C85.1706 70.2101 91.3839 69.0219 95.7186 68.7301C95.7186 68.7301 94.9456 67.8825 94.1392 66.9927C94.8894 67.0054 95.3945 67.0255 95.4072 67.0255L100.099 67.2281C100.099 67.2281 99.5155 66.4816 98.8685 65.6606C99.5862 65.7258 100.006 65.7854 100.013 65.7873L104.611 66.4593C104.611 66.4593 104.132 65.6856 103.593 64.8247C104.302 64.9679 104.716 65.0761 104.723 65.078L109.062 66.1895C109.062 66.1895 108.725 65.442 108.341 64.5848C109.022 64.824 109.44 64.9873 109.449 64.9931L113.87 66.7618C113.87 66.7618 113.548 65.8542 113.198 64.8575C113.836 65.1456 114.237 65.345 114.247 65.3507L118.508 67.4799C118.508 67.4799 118.144 66.0848 117.816 64.8306C120.916 66.4472 122.91 68.1716 122.943 68.1861L122.213 65.9586C122.213 65.9586 124.576 67.5551 126.584 69.4869C126.331 68.6443 126.117 67.8032 125.938 66.9733C125.418 66.4858 125.047 66.1964 124.895 66.0822C124.844 66.0442 124.816 66.0256 124.816 66.0256C124.816 66.0256 122.39 64.0419 119.841 62.5866L120.07 64.5177C120.07 64.5177 117.673 62.816 114.688 61.4333L115.211 63.4225C115.211 63.4225 112.408 62.02 109.603 61.1591L110.254 62.9918C110.254 62.9918 110.209 62.9764 110.131 62.9456C109.577 62.73 107.19 61.83 104.466 61.2157L104.468 61.2202H104.466L105.262 62.9873C105.262 62.9873 102.766 62.3436 99.305 62.0084L100.327 63.6533C100.327 63.6533 97.8223 63.2838 94.3029 63.3509L95.4994 64.8677C95.4994 64.8677 91.9465 64.7158 89.4111 65.0003L90.7134 66.4353C90.7134 66.4353 87.9955 66.3541 84.6773 66.7854L86.0481 68.1697C86.0481 68.1697 85.8849 68.1716 85.5877 68.1861C84.6943 68.2277 82.5914 68.3717 80.0433 68.8447L80.0448 68.8462L80.0433 68.8492L81.4842 70.153C81.4842 70.153 79.2453 70.1676 75.4705 70.8309L76.6878 71.9574C76.6878 71.9574 73.8192 72.0122 70.6785 72.6339L72.0493 73.814C72.0493 73.814 68.92 73.9193 66.0386 74.492L67.4631 75.7704C67.4413 75.7742 67.4133 75.7749 67.3915 75.7749C67.368 75.7151 67.3543 75.681 67.3543 75.681C62.5627 75.8731 58.3377 76.7322 57.143 77.1308C51.1462 79.1207 43.5131 80.6446 36.5273 93.2973C35.2424 95.6225 32.8599 95.7792 30.658 93.9887C30.3699 93.7549 30.1648 93.4084 30.1648 93.0098C30.1648 92.8412 30.1983 92.6809 30.2617 92.5359C30.3142 92.4073 30.3972 92.2962 30.4897 92.1947C30.5024 92.1802 30.5098 92.1612 30.5224 92.1485C30.6076 92.0634 30.7147 92.0005 30.8234 91.9444C30.8542 91.9281 30.8772 91.8993 30.9099 91.8848C31.0566 91.8232 31.2163 91.7894 31.3867 91.7894C32.0572 91.7894 32.604 92.3374 32.604 93.0097C32.604 93.3069 32.4985 93.577 32.3209 93.789C32.9226 94.0861 33.5078 94.1918 34.0225 94.0885C34.1802 94.0577 34.3323 94.0072 34.4755 93.9365C34.9086 93.7263 35.2776 93.3408 35.5767 92.7863C35.9935 92.0124 36.4208 91.2673 36.8522 90.5498C35.9134 88.4675 33.8224 87.0095 31.3867 87.0095C28.0739 87.0095 25.4788 89.6971 25.3864 93.0098C25.3411 94.6933 25.9914 96.2332 27.0806 97.3532C29.3386 99.6276 33.67 100.014 35.033 101.725C36.0224 102.966 34.9447 104.91 38.1814 108.326C38.1814 108.326 37.7115 111.309 42.0808 115.567C47.1297 123.516 40.1563 131.125 45.8848 135.364C51.7274 139.684 71.9773 119.756 82.4144 125.215L82.0881 123.564C82.6735 121.054 86.7976 118.555 85.9875 115.801L87.774 115.063L87.1244 112.204L88.972 111.316L88.5832 110.042L90.8614 109.239C90.8614 109.239 87.0677 105.431 74.4889 112.123C63.9595 117.734 59.2623 116.452 59.2623 116.452C58.2602 116.048 57.6044 115.247 56.7636 114.74C56.5841 114.417 56.3952 113.995 56.33 113.564L58.5262 113.968C58.5262 113.968 53.4635 111.132 56.093 106.476C56.093 106.476 55.5978 112.544 63.8051 114.693C67.4441 113.682 69.6415 111.646 69.6415 111.646L68.3452 111.376C70.558 109.813 70.8798 108.897 70.8798 108.897L69.4777 108.736C69.8256 108.453 70.1204 108.164 70.3687 107.87C71.1135 106.986 71.4371 106.059 71.4788 105.142C71.6419 101.487 67.3127 97.9939 67.2874 97.9722C70.8466 99.1954 73.2249 101.816 73.3101 105.272C73.3246 105.903 73.2655 106.557 73.1223 107.239C72.9067 108.259 72.5067 109.336 71.896 110.456C71.896 110.456 71.5461 111.079 71.2181 111.63C72.3453 111.144 73.4897 110.636 74.6079 110.117C78.7434 98.9411 63.3057 95.0915 65.3952 90.8109C65.3952 90.8109 67.0434 92.6725 69.0785 94.1947C71.2895 95.8511 74.5352 98.1339 76.3945 101.111C76.9328 101.976 77.6677 103.958 81.3429 103.419C81.3429 103.419 80.8172 98.4341 83.7821 95.8263C83.7821 95.8263 81.1329 102.623 84.4928 106.398C85.7125 106.169 87.3082 106.031 88.8377 106.392C91.7337 107.08 93.2622 108.429 92.3542 110.136C99.5017 115.143 109.75 113.95 113.268 117.58C113.268 117.58 103.811 126.007 89.2805 126.942C88.8474 126.967 88.5186 126.885 88.245 126.727C88.3755 126.963 88.5972 127.189 89.0466 127.566C90.0723 128.431 90.6447 128.735 92.1906 129.242C94.5012 129.995 96.5899 133.501 99.7704 133.876C101.055 134.03 101.981 133.713 103.652 131.555C106.718 127.604 108.91 127.112 108.91 127.112C107.167 128.589 106.223 130.148 105.231 131.548C105.074 131.776 104.921 132.007 104.771 132.224C102.919 134.971 102.081 136.085 99.7704 136.085C97.969 136.085 94.1775 133.271 92.7494 132.208C91.8252 131.523 91.4407 131.239 91.0076 131.065C90.2519 130.76 89.2284 130.729 87.6282 130.707C87.514 130.703 87.3926 130.699 87.2676 130.697C86.8906 130.689 86.4965 130.681 86.2663 130.663C86.2319 130.641 86.1805 130.599 86.1352 130.563C85.8742 130.365 85.4805 130.003 85.1651 129.709C84.7302 129.305 84.2395 128.85 83.6632 128.375L80.4956 126.464C79.4373 126.234 78.2128 126.065 77.0149 126.111L82.5936 129.49C82.5936 129.49 82.6355 129.529 82.7098 129.602C83.2281 130.107 85.3535 132.139 86.1727 132.266C87.1077 132.407 90.2004 132.28 90.5593 132.552C92.2103 133.791 96.8135 137.728 100.121 137.728C105.943 137.728 106.088 131.973 111.478 127.519C116.123 123.686 121.293 124.265 125.624 116.342C121.556 111.967 122.114 104.996 122.114 104.996C124.118 119.24 134.695 118.018 134.695 118.018L134.694 118.133H134.889C136.627 118.133 137.115 117.629 137.115 117.629C137.246 117.566 137.409 117.498 137.599 117.43C138.931 116.958 141.604 116.45 143.919 116.478C145.314 116.947 146.948 116.882 148.168 116.72C148.973 116.615 149.6 116.472 149.843 116.409L153.482 115.487C154.334 115.191 155.261 114.948 156.227 114.767C159.124 114.225 162.37 114.251 164.951 115.117C166.74 115.715 170.656 117.859 172.787 118.571C173.278 118.736 173.675 118.823 173.926 118.799C174.677 118.779 175.402 118.448 176.179 117.607C177.656 116.025 178.091 114.73 176.793 113.004C176.793 113.004 176.936 114.73 174.777 114.73C172.251 114.73 166.704 111.166 163.271 108.908C161.551 108.375 159.504 109.102 157.612 108.247C155.608 107.342 154.325 105.156 152.466 104.645C152.208 104.62 151.969 104.606 151.768 104.606C149.753 104.606 147.453 104.032 147.453 101.874C147.453 99.9346 151.781 99.2005 156.355 99.7042C156.298 99.2058 156.221 98.706 156.118 98.2022C152.827 97.8869 149.682 98.191 148.007 99.1007C146.645 99.8401 146.394 100.829 146.376 101.4C146.289 101.028 146.262 100.631 146.306 100.218C146.362 99.6673 146.679 98.645 148.173 98.0234C149.903 97.3039 152.953 97.4291 156.11 98.1739C155.775 96.5374 155.179 94.9382 154.173 93.7277C153.847 93.3362 153.836 92.7734 154.148 92.3748C154.459 91.9761 155.002 91.8429 155.459 92.0604C155.616 92.1346 158.594 93.6037 160.586 98.7849C162.094 95.7567 164.489 94.3183 164.602 94.2567L166.737 92.9947L166.287 95.4383C165.944 97.3104 165.888 97.7794 165.852 98.3647C165.846 98.448 165.841 98.5345 165.835 98.6269C165.808 99.1362 165.767 99.8309 165.607 101.322C165.557 101.757 165.429 102.262 165.19 102.733C168.883 105.084 174.605 109.325 175.463 110.215C176.39 111.181 177.39 112.344 179.053 112.344C181.538 112.344 183.838 109.111 185.414 107.768C186.516 106.829 187.563 106.187 188.509 105.678C187.164 106.027 185.47 106.618 183.991 107.379C185.026 108.026 179.839 111.55 178.957 110.553C178.094 109.582 181.89 106.117 189.71 105.062C191.628 104.113 192.894 103.521 192.894 101.489C192.894 100.841 192.3 99.5552 190.272 99.5552C186.327 99.5552 181.065 104.717 181.065 104.717C182.309 100.964 185.512 99.0113 185.512 99.0113H185.509L185.512 99.0098C182.911 98.1182 179.572 100.773 178.065 102.155C177.561 102.617 177.261 102.936 177.261 102.936C177.811 99.5453 180.814 97.4244 180.814 97.4244C179.309 96.3045 171.701 92.2584 170.568 91.6639C168.288 90.4697 166.579 89.2545 165.128 87.9642C164.711 87.5945 164.318 87.2201 163.939 86.8377C159.564 82.4521 156.983 77.1413 145.01 69.2332H145.008L144.898 70.3134C144.898 70.3134 143.496 69.0174 141.449 67.6165L141.234 69.017C141.234 69.017 141.147 68.9357 140.985 68.798C140.5 68.3848 139.347 67.455 137.892 66.6449V66.6479V67.5016C140.56 69.2957 143.186 71.5518 143.129 73.5199C143.129 73.5199 141.597 70.3977 133.146 65.8421C130.076 64.1875 126.288 60.7805 126.288 60.7805L126.275 60.7808ZM131.422 66.6471C134.048 68.5572 139.806 72.8369 141.535 77.3695C141.535 77.3695 140.456 76.4355 138.905 76.1492L139.197 77.5513C139.197 77.5513 138.043 76.6156 136.82 76.3638L136.677 77.6243C136.677 77.6243 135.525 76.9765 134.552 75.3908C133.591 73.8101 134.415 72.446 134.415 72.446C132.978 71.076 133.409 69.6716 133.409 69.6716C132.006 68.1602 131.43 66.6484 131.43 66.6484L131.422 66.6471ZM150.278 75.6111C154.718 77.5991 157.267 80.9065 159.72 84.125C156.489 83.9528 152.986 80.9576 151.934 79.5893C153.019 79.8249 153.985 80.1898 154.875 80.6338C153.177 79.0807 151.567 77.2964 150.278 75.6111ZM106.115 78.463C106.115 78.463 110.684 78.7511 115.593 81.8319C115.593 81.8319 115.513 80.176 115.219 79.056C118.128 81.1256 119.411 83.4188 119.411 83.4188C119.411 83.4188 119.439 82.6194 119.507 81.5175C121.691 83.8916 123.135 87.4342 123.65 88.8097C123.65 88.8097 122.45 89.9685 121.662 92.5944C121.66 92.5992 121.656 92.6063 121.656 92.6063V92.5988C121.273 93.8837 120.985 95.5113 120.985 97.5338C120.985 97.5338 119.104 94.0455 120.845 89.6638C120.615 88.9154 120.346 88.107 120.044 87.3259C119.674 88.3661 119.343 89.0767 119.343 89.0767C119.343 89.0767 118.188 86.611 116.642 84.0866C116.62 85.241 116.323 86.0117 116.323 86.0117C116.323 86.0117 113.591 82.8198 108.407 81.0946L108.73 82.1108C108.73 82.1108 104.612 80.6025 98.34 81.5431C98.34 81.5431 102.713 79.8078 107.229 80.1395L106.115 78.463ZM56.1317 79.0411C56.1317 79.0411 49.1432 81.5418 46.6642 85.6375L46.4511 84.5587C46.4511 84.5587 44.6153 86.718 43.7527 89.1971L43.1075 88.1169H43.106V88.1184C43.1041 88.1222 42.2402 89.7394 42.2402 92.216L41.1644 91.1417C41.1644 91.1417 40.7335 94.588 41.4892 96.9603L39.7623 94.5881C39.7623 94.5881 39.3307 96.8576 40.4089 98.9017C40.4089 98.9017 38.8794 101.205 40.7442 103.521C40.7061 104.518 40.677 105.374 41.7589 107.154L43.1491 108.737L42.9316 110.134C42.9533 110.382 43.1303 111.489 44.4514 113.178C47.8276 116.505 48.5892 119.194 48.5892 119.194L46.7583 118.308C48.6484 121.333 48.4793 124.378 48.4793 124.378L47.2634 123.022C48.2329 125.618 47.5048 128.698 47.5048 128.698L46.8715 127.734C46.8715 127.734 46.6972 128.854 46.6972 130.103C46.6972 131.348 47.1293 132.672 47.8415 132.672C50.5435 132.672 59.4771 127.968 59.4771 127.968L58.7649 127.832C61.0864 125.944 63.7178 125.853 63.7178 125.853L62.7245 125.586C64.9481 124.252 67.0818 123.996 68.0096 123.953C68.3195 123.937 68.4953 123.947 68.4953 123.947L66.7475 123.234C69.5021 121.886 72.657 122.293 72.657 122.293L70.9897 121.372C74.3967 120.346 76.999 121.183 76.999 121.183L75.5939 119.894C79.6479 120.543 80.5691 122.968 80.5691 122.968C71.5441 120.329 55.0709 134.316 47.7182 134.316C46.6399 134.316 46.3716 133.832 45.8497 133.092C44.3092 130.916 45.647 127.078 45.647 123.295C45.647 119.515 45.0232 116.763 43.1348 114.485C42.2559 113.628 41.6007 112.837 41.1114 112.13C39.6417 110.012 39.6722 108.649 39.6795 108.519L39.7838 107.826L39.2757 107.285C37.487 105.397 37.3954 104.243 37.2015 103.147C37.0747 102.426 36.799 101.518 36.2136 100.784C35.3057 99.6422 33.7626 99.0457 32.128 98.4133C30.6401 97.8388 29.0989 97.2468 28.1511 96.29C27.312 95.4237 26.8609 94.2689 26.8935 93.0492C26.9189 92.1287 27.1964 91.2796 27.6549 90.5728C27.4248 91.0494 27.3048 91.592 27.3048 92.1702C27.3048 93.185 27.7772 94.1507 28.5981 94.8195C30.4901 96.3544 32.5807 96.9984 34.4927 96.6268C36.2234 96.2898 37.0602 95.4548 37.8467 94.0267C43.983 82.9121 50.439 80.8576 56.1317 79.0411ZM149.998 84.0327C150.234 84.3064 150.472 84.5834 150.706 84.8552C149.58 84.6033 148.519 84.4645 147.937 84.3993C148.691 84.1637 149.375 84.049 149.998 84.0327ZM147.776 85.107L148.605 85.2709C148.609 86.0339 148.715 87.8005 149.56 89.0601C148.315 88.1866 147.776 86.323 147.776 85.107ZM31.3894 88.5271C32.9788 88.5271 34.4393 89.3789 35.2367 90.7309C35.0573 91.0353 34.8791 91.3493 34.7033 91.6591C34.4532 90.9922 34.0476 90.3843 33.4949 89.895C32.4093 88.9272 30.9845 88.6031 29.6416 88.8877C30.1781 88.6557 30.7697 88.5271 31.3894 88.5271ZM17.6528 92.8258C15.6847 92.8258 14.5449 93.658 14.0991 94.073C13.9505 94.2108 13.8785 94.3025 13.8785 94.3025C13.8785 94.3025 16.8623 94.7331 18.5513 95.8476C18.5513 95.8476 16.5369 96.2813 15.3879 95.9207C14.2389 95.56 11.3238 94.3756 9.13281 96.9979C9.13281 96.9979 9.51759 97.0125 10.0939 97.1067C11.0544 97.2607 12.5515 97.6317 13.6968 98.5088C14.844 99.3823 16.3432 100.02 18.0775 100.069C18.4237 100.078 18.7783 100.064 19.1443 100.024C19.8729 99.9444 20.6372 99.7584 21.4255 99.4431C21.4255 99.4431 17.193 99.3863 14.5997 97.5016C13.014 96.3527 11.5079 96.6031 11.5079 96.6031C11.5079 96.6031 13.4099 95.7777 15.5683 97.1768C17.589 98.4925 21.7977 99.2397 25.2608 97.9784C25.076 97.7428 24.9056 97.5002 24.7498 97.2483C24.284 96.4926 23.9538 95.6638 23.7708 94.7958C22.5911 94.0092 20.3639 92.8258 17.6528 92.8258ZM21.7116 96.2678C22.2613 96.2383 22.6818 96.2697 22.8381 96.4049C22.9831 96.7945 23.1391 97.1396 23.2896 97.4404C22.4505 97.638 21.5917 97.715 20.7491 97.7042C20.1891 97.6946 19.6365 97.6468 19.1056 97.5671C18.31 97.4456 17.5605 97.2558 16.9063 97.0202C17.2488 96.993 20.0625 96.3561 21.7116 96.2678ZM126.434 96.3244C126.434 96.3244 126.416 96.3962 126.391 96.5285C126.329 96.8584 126.225 97.5482 126.221 98.3583C126.219 99.8153 126.559 101.651 128.125 102.433C128.125 102.437 128.12 102.477 128.118 102.551C128.099 103.079 128.17 105.245 130.406 106.018C130.406 106.018 130.489 108.079 133.024 108.925C133.024 108.925 134.096 111.11 137.01 110.918C137.01 110.918 138.643 113.052 142.851 112.655C142.851 112.655 142.014 111.504 141.903 110.609C141.903 110.609 143.719 112.693 148.759 112.762C151.272 112.621 154.448 111.191 158.596 111.01C164.95 110.738 167.791 113.662 167.791 113.662C167.244 113.434 166.61 113.206 165.914 112.974C162.277 111.752 157.229 111.903 153.056 113.351L149.599 114.224C149.599 114.224 146.412 115.035 144.621 114.23C144.621 114.23 140.697 114.007 136.02 115.873C136.02 115.873 135.574 115.93 134.871 115.932C132.763 115.941 128.339 115.479 126.679 111.63C126.679 111.63 129.702 113.143 131.161 112.007C131.161 112.007 126.412 109.464 126.573 105.035C125.826 103.721 123.534 100.514 126.434 96.3244ZM87.0138 109.623C86.9449 109.888 86.943 110.174 87.0138 110.455L86.4163 110.744C85.7367 111.07 85.3716 111.824 85.5402 112.563L85.8844 114.084L85.3688 114.297C84.5986 114.614 84.1945 115.462 84.4301 116.26C83.8918 115.821 83.7299 115.362 83.7372 114.963C83.7499 114.298 84.2349 113.794 84.2349 113.794V113.791C83.9649 113.341 83.8699 112.918 83.8445 112.572C83.8391 112.501 83.8311 112.431 83.8311 112.369C83.8311 111.994 83.913 111.755 83.913 111.755V111.754C83.913 111.754 81.1567 112.441 75.8759 115.053C63.942 120.953 58.9206 118.036 58.9206 118.036C63.5527 119.023 69.3372 116.32 74.9353 113.703C76.0262 113.194 77.1252 112.68 78.2088 112.199C81.46 110.753 84.5854 109.587 87.0138 109.623ZM128.642 118.572C127.243 123.514 123.637 125.366 122.236 126.007L121.974 126.128C120.158 126.985 118.721 127.662 117.617 130.13C116.718 132.133 115.054 133.162 113.044 132.963C113.046 132.963 110.42 132.695 109.079 132.559C108.842 132.852 108.606 133.159 108.376 133.486L107.89 134.214L112.622 134.695C115.326 134.965 117.649 133.556 118.833 130.915C119.695 128.992 120.712 128.511 122.406 127.713C123.716 127.095 128.366 125.252 129.414 119.734C129.414 119.734 129.567 119.473 129.837 119.065C129.415 118.918 129.019 118.753 128.642 118.572Z" fill="#9D2235"/>
<path d="M152.613 84.0187C147.424 77.5924 142.402 78.9408 142.402 78.9408C145.269 79.3177 147.254 81.0031 149.037 82.9441C148.631 82.9151 148.258 82.9042 147.939 82.8988C146.886 82.2717 145.336 81.4707 143.805 81.1028C143.805 81.1028 145.606 82.1792 146.743 83.6961C146.737 84.9955 146.949 90.1785 150.704 91.0176C150.972 91.0773 151.259 91.1154 151.563 91.1281C151.869 91.1408 152.194 91.1281 152.54 91.0882C152.679 91.0844 152.821 91.0787 152.966 91.0665C152.06 90.6787 151.85 90.338 151.85 90.338C153.631 90.695 155.133 89.7707 155.813 89.2543C157.302 89.923 159.051 90.1622 161.253 89.6801C161.253 89.6801 157.526 90.1132 152.613 84.0187Z" fill="black"/>
<path d="M150.44 85.5486C150.106 85.5579 149.747 85.6046 149.366 85.6961C149.366 85.6961 149.582 91.6941 154.76 88.8326C154.76 88.8326 154.737 88.765 154.69 88.6508C154.471 88.5113 154.256 88.3588 154.048 88.1993C153.796 88.7919 153.214 89.2066 152.531 89.2066C151.617 89.2066 150.877 88.4705 150.877 87.5571C150.877 86.912 151.249 86.3538 151.787 86.082C151.648 85.9316 151.51 85.7804 151.374 85.6246C151.085 85.5684 150.775 85.5393 150.44 85.5486ZM152.298 86.6274C151.883 86.7253 151.574 87.0986 151.574 87.5408C151.574 87.9957 151.894 88.3755 152.324 88.4661C152.177 88.2994 152.09 88.0819 152.09 87.8463C152.09 87.4621 152.324 87.1315 152.656 86.9865C152.535 86.8687 152.416 86.747 152.298 86.6274ZM154.983 93.0271C157.455 95.9938 157.792 101.028 157.497 104.794C157.428 105.711 157.776 107.121 159.091 107.016C160.918 106.858 161.054 105.42 160.842 104.085C159.427 95.1283 154.983 93.0271 154.983 93.0271ZM165.162 95.2249C165.162 95.2249 162.641 96.7089 161.307 99.8857C160.785 101.131 160.723 102.597 162.492 103.085C163.764 103.435 164.367 102.112 164.465 101.197C164.867 97.4439 164.499 98.8421 165.162 95.2249ZM152.652 100.272C152.174 100.957 151.008 101.989 150.693 102.396C150.519 102.619 150.791 103.501 151.882 103.681C152.135 103.722 152.344 103.717 152.516 103.679C152.779 103.623 152.935 103.489 153.054 103.344C153.167 103.205 153.242 103.056 153.266 102.942C153.346 102.552 153.382 102.211 153.382 101.915C153.382 101.323 153.239 100.909 153.021 100.619C152.915 100.474 152.788 100.36 152.652 100.272ZM155.234 100.917C154.758 101.605 153.595 102.633 153.276 103.039C153.102 103.269 153.378 104.148 154.465 104.327C155.478 104.498 155.783 103.899 155.848 103.587C156.172 102.027 155.78 101.274 155.234 100.917ZM165.742 104.88C165.089 105.455 163.697 106.216 163.277 106.548C163.183 106.622 163.13 106.824 163.159 107.065C163.199 107.413 163.416 107.846 163.982 108.102C164.533 108.345 164.92 108.239 165.174 108.053C165.099 108.413 165.208 108.969 165.803 109.353C166.442 109.767 166.921 109.575 167.191 109.343C167.135 109.702 167.252 110.23 167.83 110.602C168.637 111.126 169.191 110.677 169.392 110.407C170.398 109.06 170.412 108.213 170.098 107.68C169.439 108.1 168.167 108.582 167.571 108.871C167.972 108.28 168.17 107.793 168.231 107.392C168.291 106.994 168.217 106.678 168.073 106.43C167.756 106.633 167.299 106.847 166.844 107.048C166.333 107.277 165.825 107.485 165.515 107.637C166.269 106.185 166.137 105.355 165.742 104.88ZM91.4067 111.556L91.6153 112.698L89.875 113.555C93.3925 115.402 97.8152 115.736 104.547 116.1C100.46 115.297 96.2404 114.629 91.4067 111.556Z" fill="white"/>
</svg>
