<svg width="200" height="200" viewBox="0 0 200 200" fill="none" xmlns="http://www.w3.org/2000/svg">
<path d="M125.394 64.3507C124.992 65.6801 124.964 66.9443 125.133 68.1396C125.301 69.7575 126.503 70.6404 126.503 70.6404C127.001 69.2354 127.887 69.1839 128.203 67.7824C128.564 65.4911 127.729 65.2816 127.705 63.9935C127.681 62.7053 127.942 61.1836 127.942 61.1836C127.942 61.1836 125.799 63.0179 125.394 64.3507Z" fill="black"/>
<path d="M88.7446 66.8535C88.2705 68.6019 88.9644 70.2508 89.7614 71.0717C90.5549 71.903 92.7465 73.0125 92.7465 73.0125C92.7465 73.0125 91.1904 71.453 91.2281 69.203C91.2522 67.5233 93.5743 66.6302 93.0315 64.3458C92.4922 62.0615 90.8709 60.8867 90.8709 60.8867C90.8709 60.8867 91.4136 62.223 91.1594 63.3016C90.7129 64.6309 89.2221 65.1119 88.7446 66.8535Z" fill="black"/>
<path d="M115.866 76.3714C111.297 73.9853 112.103 68.3146 115.866 76.3714V76.3714ZM60.3064 96.6523L60.2828 96.858L60.3064 96.6523ZM83.2838 82.7635C83.6651 77.5525 83.2597 73.8259 81.4048 69.8478C80.0754 66.5947 77.6159 63.5066 74.3388 61.7787C73.8853 61.528 73.3598 61.3287 72.9098 60.9818C72.4598 59.1715 71.6594 57.3956 70.1307 56.0868C68.6262 54.8158 66.7953 54.1391 64.8441 54.043C59.3034 54.414 55.1535 57.3063 51.8145 60.8272L51.5157 60.9234C49.1318 61.2291 46.9539 62.0535 44.9993 63.407C40.1627 67.8211 34.7969 71.5722 28.7379 73.4754C28.6863 73.5544 28.6863 73.733 28.7379 73.8051C30.9947 75.5605 34.4504 75.5089 37.1297 74.6845C40.7159 73.252 42.6637 72.5444 45.8414 70.0608C46.4666 69.6315 47.078 68.7624 47.2498 68.8895C46.5834 70.0608 45.412 72.2524 45.017 74.365C44.6288 76.481 42.4406 78.123 39.8128 79.8886C40.1666 80.2734 41.1044 79.7272 41.4204 79.6482C41.733 79.5692 43.4574 79.0299 45.2918 77.8929C47.1295 76.7593 47.6311 76.1547 48.9089 74.9799C51.9455 71.7853 54.2161 67.8727 55.4664 65.6021C58.6714 65.2655 64.5044 63.098 66.3729 64.2625L66.8916 64.5476C66.5035 65.1728 65.8645 66.509 65.8645 66.509L64.3668 69.9716C64.3668 69.9716 61.4676 69.6109 60.1039 69.0132C57.1188 67.7457 56.3905 66.2892 56.3905 66.2892C56.3905 66.2892 56.1638 68.2541 56.418 69.1472C56.6757 70.03 57.6581 71.2976 58.4516 71.8713C59.2451 72.4484 62.2645 74.0629 62.45 74.7293C62.2164 75.3511 59.8565 83.7977 58.9806 88.1636C58.9566 88.2873 58.8775 88.5861 58.6817 88.4625C56.8509 86.1266 55.0543 84.3232 51.7635 83.7976C48.4727 83.2858 44.993 85.6801 42.6403 88.6411C40.7373 90.9666 39.7514 94.309 39.7342 95.0681C39.59 98.7883 36.1652 99.4993 36.1652 99.4993C34.0663 99.623 32.7335 97.9398 32.7335 97.9398C32.7335 97.9398 32.0396 101.656 35.3991 102.931C36.2098 103.161 38.13 102.842 39.401 100.502C40.0365 99.0356 40.1121 97.5413 40.3079 96.4009C40.5002 95.257 41.0017 94.2333 41.7162 93.1478C43.5712 90.7638 46.3536 89.5616 49.3867 90.1147C53.3199 90.9666 55.9237 94.5494 58.531 97.3799C58.6272 97.4554 58.7027 97.665 58.555 97.7269C57.6001 97.6341 56.676 97.4039 55.6489 97.4039C52.3925 97.3318 49.6375 98.5307 47.1059 100.217C43.2964 102.539 41.0155 106.655 40.538 110.958C40.5929 111.089 40.5174 111.439 40.7647 111.34C42.7433 106.974 47.2055 104.02 52.0143 103.948C55.3979 103.772 58.328 105.174 61.1586 106.531C61.2582 106.627 61.2822 106.754 61.1586 106.85C58.4277 107.626 55.6624 108.413 53.519 110.56C51.3789 112.697 50.7091 115.589 50.6369 118.626C50.7365 118.924 50.5133 119.505 50.9117 119.605C52.7151 115.774 56.6002 112.583 60.884 112.264C61.4336 112.315 62.1618 112.137 62.6118 112.515L62.5637 112.614C60.1557 114.143 57.7511 116.609 56.6245 118.749C55.4977 120.896 53.9726 121.511 54.0447 121.583C56.8237 122.033 57.7511 121.94 60.3549 120.992C61.437 120.546 63.2782 118.32 64.5491 118.072C64.8514 118.121 66.6445 117.561 67.6613 118.007C68.3586 118.571 65.7548 121.37 65.2464 121.247C60.6091 121.181 59.9118 122.136 58.6442 123.974C57.3732 125.815 55.9477 127.67 53.6187 128.422C53.0932 128.701 52.492 128.797 51.9871 129.103C51.9699 129.298 56.8237 129.226 58.7268 128.395C60.4581 127.821 61.7084 126.19 63.4878 125.867C63.4878 125.867 63.9137 127.722 60.7362 130.449C60.8152 130.624 64.161 130.02 65.5659 128.738C76.4437 121.022 68.9891 126.748 67.0258 131.967C66.7957 133.664 65.4285 137.405 65.6071 137.635C65.7891 137.865 68.5784 135.392 70.1757 134.575C71.7731 133.747 71.3677 129.831 71.9826 128.824C74.6931 125.869 74.6434 129.411 73.4597 131.854C75.5204 130.801 78.118 127.6 76.3898 133.115C75.5688 135.392 74.5657 136.904 74.5657 136.904C74.5657 136.904 77.1214 135.581 78.8596 133.063C80.5944 130.556 81.0512 129.137 81.1852 128.364C81.7966 129.192 81.539 129.123 82.0577 130.556C82.6485 132.198 82.4665 133.713 82.4665 133.713C82.4665 133.713 83.473 133.022 84.0225 131.064C84.4622 129.484 84.3764 129.268 84.3214 129.247C86.324 129.151 85.8225 132.675 85.8225 132.675C85.8225 132.675 87.2893 132.792 87.4713 130.642C87.3442 129.879 95.7636 130.071 97.6012 132.448C99.4459 134.832 99.9508 134.805 100.933 135.313C101.919 135.815 103.729 135.726 105.306 136.121C106.776 136.358 109.576 137.622 110.651 138.329C112.149 140.092 108.229 146.326 106.598 148.418C106.563 148.466 106.522 148.518 106.491 148.555C106.605 148.494 106.721 148.439 106.835 148.366C109.411 146.958 113.004 143.935 113.444 138.772C113.465 138.501 115.096 138.576 115.35 138.896C116.384 139.847 116.587 142.228 117.315 143.663C118.05 145.089 121.509 146.23 123.172 145.11C123.172 145.11 124.684 144.299 124.268 143.255C123.601 143.698 123.193 143.756 122.368 143.835C121.54 143.908 121.255 143.633 120.589 143.213C119.923 142.798 119.823 142.674 119.387 141.888C118.944 141.091 118.968 139.153 119.538 138.583C120.111 138.009 121.606 137.563 123.124 137.755C124.653 137.948 124.57 139.036 124.57 139.036C124.57 139.036 125.017 140.654 123.684 141.122C124.725 141.75 125.745 141.042 125.745 141.042C125.745 141.042 126.147 141.592 125.642 143.368C127.387 143.412 127.827 141.564 127.827 141.564C127.827 141.564 128.242 141.726 128.301 141.911C128.685 141.753 128.651 141.056 128.651 141.056C128.651 141.056 128.998 140.963 129.159 141.314C129.891 141.533 128.998 136.134 128.716 135.532C128.431 134.931 123.698 131.372 122.839 131.379C121.984 131.386 120.778 132.197 119.476 132.805C118.178 133.406 116.587 134.897 114.78 134.523C113.698 133.592 111.118 133.987 111.118 133.987L109.147 133.478C109.147 133.478 107.367 132.698 107.319 132.382C107.278 132.063 107.683 131.287 107.962 130.239C108.233 129.177 108.144 128.59 108.552 128.271C108.965 127.955 110.016 127.999 110.795 127.539C112.606 125.903 113.341 126.002 114.78 127.086C116.161 128.133 121.032 129.734 123.467 130.026C125.906 130.314 128.799 130.308 129.64 130.263C130.482 130.218 129.019 129.033 128.888 128.786C128.888 128.786 134.209 130.263 137.764 130.514C141.323 130.771 147.925 130.39 149.601 128.741C149.601 128.741 148.475 128.422 148.018 128.044L148.097 127.975C149.876 127.518 159.041 129.116 157.571 124.994C157.193 124.547 156.743 124.715 156.369 124.44C156.468 124.31 166.849 121.974 164.187 121.246C162.002 121.067 154.699 119.676 151.57 118.817C148.444 117.962 144.28 116.722 142.175 115.997C141.931 115.897 141.57 112.363 141.945 112.552C142.573 113.41 143.034 113.991 143.992 114.565C145.844 115.066 148.561 115.114 149.897 115.121C151.24 115.121 151.649 113.218 152.116 112.122C151.917 112.363 151.24 112.751 151.061 112.751C149.794 113.067 146.871 112.644 146.524 112.514C146.17 112.39 145.335 110.996 145.576 110.288C145.816 109.584 147.245 108.766 147.245 108.766C147.245 108.766 148.949 108.605 149.536 108.766C150.124 108.917 151.47 109.738 151.67 110.113C151.865 110.48 152.353 111.284 152.312 111.971C153.054 110.8 152.559 110.106 152.865 109.975C153.023 109.975 153.411 110.092 153.487 110.521C153.823 110.346 153.641 108.67 153.799 108.447C153.799 108.447 154.115 108.646 154.387 108.835C154.607 108.55 154.562 106.956 154.311 106.355C154.054 105.747 152.501 104.232 152.216 104.029C151.924 103.847 151.735 103.813 151.735 103.813C151.735 103.813 151.704 103.634 152.281 102.975C152.851 102.308 156.084 101.735 157.087 101.02C157.654 100.591 157.035 100.639 157.708 99.9689C158.375 99.306 161.326 99.0689 162.202 95.2972C154.559 97.3961 149.798 98.0693 143.608 98.0693C137.421 98.0693 128.94 97.3033 127.377 96.2796C126.803 95.8227 126.556 94.8541 126.748 93.9403C126.937 93.0197 128.047 92.367 128.751 92.0647C129.263 91.9686 129.032 93.9712 129.032 93.9712C129.032 93.9712 132.749 91.498 134.559 90.8281C136.366 90.1617 142.082 89.4026 142.082 89.4026C140.368 91.498 141.505 93.9197 142.907 93.9712C143.511 94.0056 146.019 94.7648 148.849 91.9067C149.451 91.3056 150.436 90.7937 150.436 90.7937C151.515 91.0479 152.247 91.0789 152.247 91.0789L154.613 91.0204C153.009 90.22 152.03 89.8284 151.993 89.138C152.065 89.0728 153.545 89.7392 153.738 89.3304C153.009 88.9147 152.625 88.3204 152.625 88.3204C152.625 88.3204 154.782 88.1556 156.884 89.0178C155.579 86.7952 154.991 86.8846 153.957 86.2525C153.432 85.9571 152.436 85.6513 151.993 85.3284C151.735 85.0777 152.058 84.0506 151.652 83.3499C150.708 80.9659 149.468 79.9148 148.132 79.2484C146.795 78.582 145.851 78.4892 144.944 78.582C144.037 78.685 143.195 78.9873 143.034 79.774C142.879 80.5709 143.425 80.9556 143.772 81.3473C143.8 81.4228 143.034 81.3953 142.278 81.2786C141.509 81.1583 138.998 81.5053 137.325 80.7289C134.539 79.8496 131.901 74.0614 131.437 73.2507C131.492 74.5389 130.815 75.4286 130.815 75.4286C129.96 75.6312 127.892 72.1996 127.892 72.1996C127.7 73.9687 127.981 76.0607 127.981 76.0607C125.824 74.1679 125.323 71.2 125.323 71.2C123.55 71.8664 125.226 75.8512 125.178 75.8717C123.801 73.8141 122.983 73.2954 121.791 70.1077C120.603 66.9199 120.379 64.9791 120.27 64.3917C120.27 64.3917 120.987 63.533 121.317 63.1689C121.654 62.8082 122.715 62.1728 122.715 62.1728C122.715 62.1728 121.891 61.9701 121.194 62.0731C120.486 62.1899 119.888 62.3445 119.888 62.3445C119.888 62.3445 119.747 61.5854 120.108 58.2739C117.892 59.2151 117.047 62.4201 116.889 64.0174C115.522 65.1716 114.798 66.3567 114.798 66.3567C114.798 66.3567 114.681 64.4571 113.509 63.0796C112.334 61.6918 111.551 61.6368 110.775 60.4105C109.999 59.4796 110.085 56.8414 110.03 56.9102C109.906 57.5388 109.318 58.3425 109.367 59.5311C109.346 60.7437 109.621 61.1662 110.078 62.7738C110.535 64.378 110.394 66.1848 109.318 67.9642C106.726 72.844 108.592 66.6677 108.618 65.3054C108.618 63.1138 108.209 61.52 106.588 59.7131C106.065 59.23 105.065 58.0554 105.065 58.0554C106.985 62.3149 104.807 66.7562 104.807 66.7562C104.807 66.7562 104.175 64.3069 102.908 63.0738C101.637 61.8303 100.239 60.786 100.239 60.786C101.448 64.0803 100.64 68.4462 100.362 68.7245C99.9397 68.3432 99.1565 66.7562 98.1741 65.8287C97.1916 64.9115 95.8107 64.3791 95.8107 64.3791C95.8107 64.3791 96.5562 66.5294 96.6214 68.216C96.6798 69.8958 95.8588 71.1049 95.7936 73.482C95.7317 75.8659 99.9844 80.3385 99.9844 80.3385C96.0066 80.572 90.7407 74.8561 90.7407 74.8561C91.1048 79.7888 96.7177 83.6807 96.7177 83.6807C95.6803 83.959 87.4706 78.559 86.3643 78.0094C87.4944 82.901 92.7055 87.3256 92.7055 87.3256C91.4242 87.8787 87.8208 86.4016 87.8208 86.4016C90.6479 92.4439 96.917 91.8668 96.917 91.8668C96.9205 92.784 88.6385 92.0317 88.6385 92.0317C91.1048 94.7317 97.1849 95.1885 97.1849 95.1885C95.6769 95.8858 91.0155 95.6866 91.0155 95.6866C91.7677 96.7927 93.6158 97.5416 94.4403 98.2492C93.4372 98.5446 91.1597 100.279 89.0472 102.309C86.9346 104.343 84.7087 110.612 80.8716 110.059C78.4053 110.018 74.0152 103.841 79.9819 93.9349C82.5205 89.617 82.8983 87.9647 83.2865 82.7569" fill="black"/>
<path d="M140.455 18.4141H63.3302L26.0703 53.3966L28.1654 71.6606L28.4368 71.5953C33.5569 69.9874 38.8635 66.6661 44.2775 61.726C46.3386 60.3004 48.6435 59.3798 51.1443 59.0054C52.1301 57.9405 53.3015 56.9031 54.5966 55.9688L56.4822 48.2258L143.093 48.0163L144.141 61.3823L174.143 62.8489L173.724 50.5622L140.455 18.4141Z" fill="black"/>
<path d="M143.514 151.948L56.2706 151.316L54.5935 130.599C53.855 130.585 53.1611 130.541 52.5943 130.479C50.6878 130.287 48.9669 128.765 48.9669 128.765C48.9566 128.744 51.55 128.281 53.5561 127.041C53.958 126.79 54.2947 126.553 54.5935 126.323V123.272C54.25 123.221 53.8858 123.159 53.4942 123.08C52.4774 122.912 51.6427 122.225 51.6427 122.225C51.6427 122.225 51.4297 122.599 50.8561 123.939C50.8561 123.939 50.1862 123.008 49.7568 121.74C49.3274 120.483 49.1866 118.467 49.1866 118.467C49.2862 114.42 50.3992 111.39 52.577 109.206C53.209 108.57 53.8892 108.052 54.5934 107.602V105.657C53.872 105.527 53.1369 105.468 52.3777 105.51C48.1938 105.568 44.5698 107.653 42.1821 111.851C40.8458 114.815 40.1794 117.395 40.1794 117.395C40.0489 117.402 39.3825 114.128 39.3241 110.81C39.1283 106.224 42.3985 101.075 46.4657 98.5781C49.248 96.737 51.8724 95.7579 54.593 95.5621V95.0983C53.0163 93.4598 51.3159 92.0445 49.2858 91.6014C47.029 91.1927 44.8374 92.0686 43.3191 94.0163C42.7214 94.9472 42.3745 95.7201 42.2439 96.5033C42.2026 96.7369 42.1683 96.9877 42.1339 97.2625C41.9862 98.3273 41.8076 99.6533 41.2167 101.014C39.4271 104.335 36.6138 104.851 35.1435 104.414C31.2828 102.972 30.9324 99.233 31.2622 97.453L31.963 93.75L34.2988 96.6973C34.2988 96.6973 35.0751 97.6076 36.1606 97.6179C36.6759 97.4633 38.1805 96.8484 38.2595 94.8492C38.2835 93.6092 39.4445 89.9371 41.5571 87.3573C44.7174 83.3863 48.7433 81.3356 52.3017 81.8989C53.1502 82.0329 53.9025 82.2424 54.5929 82.5069V70.7969C53.4284 72.2602 51.1235 75.393 50.2475 76.0903C50.2131 76.1178 46.9361 78.4468 45.72 79.1785C44.504 79.9101 41.1651 80.659 40.2651 80.762C39.3686 80.872 37.6957 80.8238 37.6957 80.8238C38.6782 79.7418 39.9663 78.117 39.9663 78.117C39.9663 78.117 41.5361 76.1075 43.1884 73.6995C43.1884 73.6995 42.5186 74.2491 37.998 76.0423C35.0275 76.9664 31.0255 77.1418 28.1607 75.1013L26.9805 145.781L62.1451 183.053H140.453L173.519 149.461V137.661L143.512 137.451L143.514 151.948Z" fill="black"/>
<path d="M138.239 114.095C138.108 114.143 137.596 114.452 137.631 114.469C137.589 114.61 138.747 115.002 138.847 114.953C138.936 114.905 138.802 114.15 138.771 113.995C138.744 113.841 138.369 114.04 138.239 114.095Z" fill="white"/>
<path d="M112.866 73.9161C113.365 76.221 115.862 76.3653 115.862 76.3653C114.745 75.8638 113.268 72.889 113.718 70.457C113.718 70.457 112.386 71.5355 112.866 73.9161Z" fill="white"/>
<path d="M68.4245 81.3563C67.5348 79.4567 67.2635 79.68 67.2635 79.68C67.2635 79.68 65.7589 82.4383 64.8692 85.4887C63.952 88.2024 64.0413 92.0909 64.3574 94.1894C65.2471 97.865 65.1887 99.2046 67.3459 102.44C67.2154 100.136 66.1402 94.5707 66.8994 91.1318C67.6619 87.7105 69.8227 83.7704 68.4245 81.3552" fill="white"/>
<path d="M66.5443 57.6561C65.8023 56.7321 64.5073 56.0691 63.9234 56.0519C62.9066 55.9729 61.4192 56.8386 60.794 57.4569C60.1688 58.0821 59.1487 59.2603 59.31 59.7275C59.6982 60.2771 61.7318 59.779 63.5317 59.81C65.2733 59.834 67.0527 60.4351 67.3687 59.8855C67.5611 59.5283 67.2897 58.5733 66.5443 57.6561Z" fill="white"/>
<path d="M75.5381 74.8465C75.04 72.8198 74.2121 70.9099 73.1851 69.1373C73.0339 68.9106 72.632 68.4091 72.4087 68.9106C71.9347 70.2641 71.1344 71.5144 70.5057 72.7682C70.3545 73.019 70.2274 73.3453 70.4782 73.572C71.2786 74.0736 73.216 76.1449 73.8858 80.3907C74.5522 84.6296 73.6007 88.9135 73.6007 88.9135C73.6007 88.9135 77.1217 82.7678 75.5381 74.8465Z" fill="white"/>
<path d="M117.614 131.854C116.776 132.359 116.154 133.094 115.237 132.75C113.389 131.998 111.644 132.225 111.644 132.225C111.644 132.225 109.566 131.95 109.418 131.514C109.274 131.084 109.621 130.923 109.714 130.572C109.824 130.129 109.662 129.799 109.906 129.549C110.15 129.305 111.105 129.305 111.761 128.917C112.328 128.583 112.761 128.164 113.111 127.817C113.235 127.701 113.073 127.769 113.843 128.346C114.835 129.099 117.398 130.274 119.641 130.758C119.449 130.854 118.023 131.606 117.614 131.854ZM128.201 67.7689C127.885 69.1704 126.996 69.2219 126.501 70.6269C126.501 70.6269 125.299 69.7441 125.13 68.1262C124.962 66.9308 124.986 65.6666 125.392 64.3373C125.797 63.0045 127.94 61.1701 127.94 61.1701C127.94 61.1701 127.679 62.6919 127.703 63.98C127.727 65.2681 128.562 65.4777 128.201 67.7689ZM123.55 68.0403C123.609 68.5727 123.987 69.4865 123.987 69.4865L123.698 69.7716C122.874 67.556 122.369 65.4606 122.211 64.5709C122.18 64.3957 124.035 63.135 124.035 63.135C124.035 63.135 123.894 63.5369 123.877 63.5713C123.437 65.0175 123.334 66.5014 123.55 68.0403ZM94.589 71.7296C94.1424 71.472 93.3008 70.1873 93.318 68.9678C93.318 68.8063 94.6542 66.8758 94.9393 66.1614C95.0698 66.7179 95.2759 67.5079 95.2931 68.0197C95.3137 68.5934 94.6989 71.0563 94.589 71.7296ZM92.7443 73.004C92.7443 73.004 90.5527 71.8945 89.7592 71.0632C88.9623 70.2422 88.2684 68.5933 88.7424 66.8449C89.2165 65.1033 90.7107 64.6224 91.1573 63.293C91.4115 62.2145 90.8687 60.8782 90.8687 60.8782C90.8687 60.8782 92.4901 62.053 93.0294 64.3373C93.5721 66.6217 91.25 67.5147 91.2225 69.1945C91.1882 71.4445 92.7443 73.004 92.7443 73.004ZM88.2031 84.3396L85.3348 83.1614C85.3383 83.0446 85.4653 80.4786 85.4791 79.534C86.6642 82.7389 88.2031 84.3396 88.2031 84.3396ZM88.7699 90.0934L84.744 89.7224L87.7394 93.0029C87.9627 93.2708 88.4367 93.6555 88.4367 93.6555L87.6466 93.628C87.6466 93.628 89.0585 95.562 89.6768 96.2971C90.3019 97.0391 90.8962 97.5131 91.5901 98.0215C90.4325 98.8906 89.2062 99.9623 88.2237 100.907C87.444 101.666 86.7329 102.762 85.9771 103.93C84.6753 105.936 82.8512 108.426 81.2608 108.193C81.0547 108.165 80.3299 107.712 79.7493 106.51C79.0691 105.091 77.9012 101.093 81.8069 94.6175C84.232 90.4988 84.8503 88.3176 85.2351 83.9994L86.6297 86.9192C88.0552 89.4921 88.7699 90.0934 88.7699 90.0934ZM54.5941 117.024C55.2228 116.344 55.9716 115.692 56.82 115.245C56.1055 116.1 55.4975 116.973 55.051 117.818C54.9067 118.096 54.7521 118.326 54.5941 118.549C54.0273 119.353 53.4399 119.831 53.2166 119.985C52.9281 120.178 52.5056 120.088 52.4506 120.13C52.4506 120.13 53.2304 118.501 54.5941 117.024ZM68.606 127.075C69.0972 127.034 69.5816 126.941 70.0247 126.841C69.9663 126.965 69.9011 127.075 69.8427 127.178C69.6778 127.339 68.1217 128.246 67.7885 128.466C67.8882 128.294 68.4411 127.326 68.606 127.075ZM165.209 119.47C163.364 119.325 158.115 118.405 153.419 116.934L151.777 116.426C152.949 115.897 153.601 114.757 154.034 113.991C154.165 113.757 154.921 112.386 155.024 112.136C155.127 111.885 154.316 111.885 154.539 111.613C154.732 111.562 154.914 111.486 155.092 111.394C156.374 110.724 155.772 109.92 156.157 109.624C156.319 109.508 156.442 109.37 156.532 109.257C157.363 108.178 156.827 106.457 156.439 105.526C155.985 104.451 155.013 103.668 155.013 103.668C155.261 103.586 155.515 103.507 155.728 103.441C156.865 103.084 157.937 102.748 158.672 102.219C159.321 101.738 159.582 100.999 159.582 100.999C159.661 100.961 159.747 100.92 159.826 100.886C161.049 100.329 163.591 99.1681 164.449 95.5063L165.095 92.6964L162.316 93.4522C154.903 95.4857 150.318 96.104 144.127 96.1658C137.123 96.2483 130.463 95.2075 130.463 95.2075C131.452 94.5479 134.314 92.7342 135.646 92.2464C136.835 91.8033 138.934 91.2502 140.012 91.3739C139.995 92.054 140.133 92.7204 140.414 93.349C140.995 94.6269 142.125 95.4513 143.313 95.4926C143.337 95.4993 147.48 96.0765 150.592 92.9265C150.891 92.6277 151.046 92.37 151.252 92.4113C152.083 92.5624 152.657 92.5967 152.832 92.6002L159.276 92.4559L156.782 90.4051L161.482 92.3322L158.915 87.9421C157.713 85.8948 156.896 85.3624 155.865 84.8333C155.707 84.7475 154.124 84.3765 154.13 83.9849C154.141 83.5349 154.038 82.9646 153.756 82.4081C152.78 80.0138 151.451 78.4955 149.428 77.4857C147.971 76.7574 146.69 76.4964 145.282 76.6475C142.698 76.9189 142.125 78.0387 141.74 79.3063C140.809 79.32 139.889 79.4265 138.339 78.8632C136.787 78.3101 131.71 69.4786 131.631 69.3479C131.631 69.3479 131.394 70.825 131.009 72.7865C130.638 72.2953 129.398 70.4026 129.398 70.4026C129.779 69.7946 130.208 68.8362 130.373 67.7816C130.641 66.0538 130.38 65.1401 130.05 64.2916C129.937 63.9859 129.896 63.8725 129.896 63.6801C129.872 62.5809 130.913 56.5008 130.913 56.5008C130.913 56.5008 127.124 59.7435 125.901 60.7947C124.932 60.5542 122.837 60.0527 122.126 60.0527L122.27 58.1703L122.596 55.2437L119.89 56.4013C117.189 57.5589 116.173 60.6917 115.812 62.4298C115.537 62.0829 115.252 61.6878 115.252 61.6878C114.589 60.9115 114.022 60.4683 113.569 60.118C113.188 59.826 112.648 59.1768 112.542 59.0497C112.477 58.926 111.889 56.9886 111.924 54.323C111.889 53.3337 111.779 51.4375 111.779 51.4375C111.779 51.4375 108.681 56.5352 108.629 56.6657C108.389 57.26 108.166 58.1565 108.166 58.1565C108.166 58.1565 107.066 56.8512 106.063 56.0577C105.06 55.2607 101.179 52.8218 101.179 52.8218L103.91 58.4828C104.871 60.2897 104.586 61.6431 104.586 61.6431C103.243 60.3344 101.728 59.1802 101.666 59.1321L97.0326 55.6627L99.0214 61.1004C99.3718 62.0656 99.5161 63.1614 99.5539 64.1713C98.5646 63.3916 96.9948 62.5809 96.8195 62.5087C96.8195 62.5087 95.1947 61.8492 94.1745 61.4507C93.3844 60.1591 92.402 59.3209 92.2542 59.2144C92.2542 59.2144 87.5035 55.7691 87.507 55.7828L89.6471 61.2377C89.7879 61.6018 89.939 62.282 89.9013 62.4812C89.8223 62.7183 89.5612 62.9828 89.2349 63.3194C88.6406 63.9205 87.8333 64.7622 87.459 66.1362C86.8097 68.4961 87.5861 70.6877 89.2418 72.3434L89.8189 77.6403C88.462 76.919 85.233 75.1499 85.233 75.1499C84.9067 73.003 84.2575 70.8973 83.3402 68.9462C81.7567 65.0508 78.8368 61.2997 74.7179 59.5886C74.0653 57.4176 73.0313 55.7413 71.5611 54.4909C69.8058 52.9932 67.6176 52.1448 65.1066 52.0176C63.0765 52.0657 61.0429 52.581 59.1158 53.3882C57.5082 54.0718 55.9796 54.9546 54.5918 55.9646C53.2968 56.8989 52.1289 57.9329 51.1395 59.0012C48.6422 59.3756 46.3339 60.2962 44.2728 61.7218C38.8591 66.6614 33.5518 69.9831 28.4304 71.5911L28.159 71.6564L25.1602 72.4018C25.7544 73.3053 27.891 74.9197 27.891 74.9197C27.9769 74.985 28.0765 75.0296 28.159 75.0914C31.0238 77.1285 35.0257 76.9567 37.9971 76.0327C42.5177 74.2396 43.1876 73.6865 43.1876 73.6865C41.5353 76.0979 39.9655 78.1075 39.9655 78.1075C39.9655 78.1075 38.6773 79.7288 37.6949 80.8143C37.6949 80.8143 39.3677 80.859 40.2609 80.7525C41.1644 80.6495 44.5033 79.9006 45.7193 79.169C46.9353 78.4339 50.2124 76.1083 50.2467 76.0808C51.1227 75.3835 53.4241 72.2472 54.5921 70.7874C54.994 70.2687 55.2723 69.9561 55.2963 70.011C55.8425 71.1927 56.8799 72.4019 57.7352 73.0167C57.8623 73.1095 58.4737 73.477 59.1161 73.8789C59.8649 74.3427 60.6721 74.851 60.8164 75.0022C60.3939 76.5446 59.6931 79.2858 59.1161 81.4945C58.697 83.1056 58.3466 84.4349 58.2161 84.8128C57.2268 83.875 56.0588 83.0575 54.592 82.4975C53.9015 82.2331 53.1459 82.0201 52.3008 81.8861C48.7421 81.3262 44.7161 83.3769 41.5529 87.3479C39.4438 89.9276 38.2827 93.5963 38.2552 94.8398C38.1796 96.839 36.6716 97.4505 36.1598 97.6051C35.0743 97.5948 34.298 96.6879 34.298 96.6879L31.9587 93.7371L31.2614 97.4402C30.9316 99.223 31.282 102.96 35.143 104.406C36.6133 104.843 39.4266 104.324 41.2163 101.006C41.8071 99.6455 41.9857 98.3161 42.1335 97.2547C42.1678 96.9799 42.2022 96.7257 42.2434 96.4955C42.3739 95.7123 42.7209 94.9394 43.3186 94.0051C44.8335 92.0608 47.0285 91.1815 49.2819 91.5903C51.3155 92.0334 53.0158 93.4486 54.5925 95.0906C54.7265 95.2349 54.8605 95.3757 54.9945 95.52C54.8605 95.52 54.7265 95.5407 54.5925 95.5543C51.872 95.7467 49.2476 96.7256 46.4652 98.5703C42.398 101.064 39.1279 106.213 39.3236 110.799C39.382 114.121 40.0484 117.394 40.179 117.387C40.179 117.387 40.8454 114.804 42.1816 111.843C44.569 107.642 48.193 105.56 52.3773 105.499C53.133 105.457 53.8715 105.519 54.5929 105.646C55.431 105.791 56.2624 106.024 57.0765 106.316C56.2314 106.663 55.3967 107.082 54.5929 107.594C53.8887 108.041 53.2086 108.563 52.5765 109.195C50.3987 111.383 49.2857 114.413 49.1861 118.46C49.1861 118.46 49.3269 120.476 49.7563 121.733C50.1857 123.001 50.8521 123.928 50.8521 123.928C51.4258 122.592 51.6422 122.214 51.6422 122.214C51.6422 122.214 52.4769 122.905 53.4937 123.069C53.8853 123.152 54.2494 123.21 54.593 123.265C55.6303 123.416 56.4651 123.461 57.1281 123.451C56.3036 124.598 55.785 125.409 54.593 126.316C54.2941 126.542 53.9575 126.779 53.5556 127.034C51.5495 128.274 48.956 128.737 48.9664 128.758C48.9664 128.758 50.6874 130.28 52.5938 130.472C53.1606 130.53 53.8511 130.579 54.5931 130.592C56.0324 130.613 57.6812 130.451 59.117 129.768C59.4365 129.62 59.7491 129.442 60.0445 129.229C60.0445 129.229 60.1819 130.087 59.117 131.242C58.9453 131.424 58.7529 131.613 58.5193 131.812L59.117 131.88L60.7109 132.063C61.5697 132.248 64.115 131.722 65.915 130.702C65.7811 130.994 65.678 131.31 65.6334 131.654C65.5337 132.385 65.1284 133.76 64.8021 134.855C64.1288 137.14 63.7716 139.74 63.7716 139.74C63.7716 139.74 67.083 139.015 68.6837 137.82C69.539 137.171 70.604 136.374 71.2875 136.023C72.2734 135.515 72.8058 134.604 73.1219 133.588C73.1219 133.588 74.4134 133.402 74.7982 133.258C74.1421 134.842 73.4688 135.872 73.4654 135.879L69.7658 141.42L75.6878 138.356C75.8046 138.294 78.6523 136.799 80.6137 133.955C80.7924 133.698 80.9641 133.45 81.1256 133.199C81.1221 133.337 80.6584 137.181 80.6584 137.181L83.7878 135.048C83.908 134.958 84.2584 134.694 84.6671 134.196L86.0514 134.309C87.1266 134.385 88.717 133.773 89.3285 131.86C91.3311 131.733 95.7933 132.327 96.6383 133.416C98.3319 135.618 99.1425 136.095 100.19 136.586C101.046 137.026 102.409 137.304 103.474 137.421C104.096 137.497 104.749 137.569 105.439 137.73C106.631 137.933 109.613 139.166 109.619 139.434C109.602 140.049 109.273 141.643 107.263 145.25C106.95 145.813 106.782 146.163 105.429 148.633C105.429 148.633 105.937 148.544 106.597 148.413C108.232 146.321 112.148 140.09 110.65 138.328C109.575 137.621 106.775 136.356 105.305 136.116C103.728 135.721 101.918 135.81 100.936 135.312C99.9498 134.8 99.4448 134.828 97.6002 132.447C95.7624 130.07 87.343 129.878 87.4737 130.641C87.2882 132.791 85.8214 132.671 85.8214 132.671C85.8214 132.671 86.3264 129.146 84.3237 129.242C84.3752 129.263 84.4611 129.483 84.0214 131.063C83.4752 133.021 82.4688 133.708 82.4688 133.708C82.4688 133.708 82.6474 132.197 82.0566 130.551C81.5379 129.119 81.7955 129.191 81.1875 128.36C81.0501 129.133 80.5932 130.551 78.8585 133.062C77.1203 135.577 74.5646 136.903 74.5646 136.903C74.5646 136.903 75.5676 135.388 76.3886 133.11C77.2131 130.826 76.6188 129.047 76.6188 129.047C76.6188 129.047 76.2684 130.026 75.2138 130.898C74.1661 131.767 73.4585 131.85 73.4585 131.85C73.9703 130.826 74.6401 129.071 74.5646 127.491C74.4134 127.291 74.1146 127.415 73.9119 127.491C73.2352 127.872 72.5997 127.817 71.9814 128.82C71.3665 129.826 71.7718 133.746 70.1745 134.57C68.5807 135.388 65.7879 137.861 65.6059 137.634C65.4272 137.401 66.7944 133.66 67.0246 131.963C67.2513 130.28 70.5421 129.27 71.2257 128.315C71.9093 127.353 72.4486 125.223 72.1703 124.794C71.8886 124.378 69.8792 125.495 68.0379 125.495C67.2135 125.563 66.3925 128.026 65.5646 128.737C64.1596 130.019 60.8139 130.623 60.7349 130.448C63.9123 127.721 63.4865 125.866 63.4865 125.866C61.7106 126.189 60.4567 127.817 58.7255 128.39C56.8224 129.222 51.9687 129.297 51.9892 129.098C52.4908 128.792 53.0919 128.696 53.6175 128.418C55.9465 127.666 57.3721 125.811 58.643 123.969C59.9105 122.132 60.6078 121.18 65.2452 121.242C65.7536 121.366 68.3574 118.569 67.6601 118.006C66.6433 117.56 64.8502 118.116 64.5479 118.068C63.2769 118.319 61.4358 120.541 60.3537 120.988C57.7499 121.936 56.8224 122.032 54.0435 121.582C53.9713 121.506 55.4965 120.895 56.6233 118.748C57.75 116.608 60.1546 114.142 62.5625 112.61L62.6106 112.51C62.1606 112.136 61.4358 112.314 60.8828 112.263C56.5992 112.582 52.7142 115.77 50.9105 119.603C50.512 119.5 50.7353 118.92 50.6357 118.621C50.7078 115.588 51.3777 112.695 53.5178 110.559C55.6613 108.412 58.4299 107.622 61.1574 106.849C61.2845 106.749 61.257 106.622 61.1574 106.526C58.3268 105.169 55.3967 103.768 52.0131 103.943C47.204 104.018 42.7416 106.973 40.7635 111.335C40.5161 111.438 40.5917 111.084 40.5368 110.954C41.0142 106.65 43.2951 102.538 47.1047 100.213C49.6363 98.5295 52.3913 97.3272 55.6477 97.4028C56.6748 97.4028 57.5988 97.6295 58.5538 97.7223C58.705 97.6605 58.626 97.4509 58.5298 97.3753C55.9225 94.5483 53.3188 90.9654 49.3855 90.1136C46.3524 89.5605 43.5699 90.7594 41.715 93.1434C41.0005 94.2322 40.499 95.2559 40.3066 96.3998C40.1108 97.5403 40.0353 99.0311 39.3998 100.498C38.1288 102.841 36.2086 103.16 35.3979 102.926C32.0384 101.652 32.7323 97.9353 32.7323 97.9353C32.7323 97.9353 34.0651 99.6185 36.1639 99.4948C36.1639 99.4948 39.5888 98.7838 39.733 95.0636C39.7502 94.3045 40.7361 90.9655 42.6391 88.6366C44.9922 85.679 48.4719 83.2813 51.7623 83.7966C55.0531 84.3187 56.853 86.1256 58.6805 88.458C58.8763 88.5817 58.9553 88.2828 58.9794 88.1592C59.8587 83.7966 62.2152 75.3496 62.4488 74.7248C62.2633 74.0619 59.2439 72.444 58.4504 71.8668C57.6569 71.2932 56.6745 70.0256 56.4203 69.1428C56.1626 68.2497 56.3893 66.2847 56.3893 66.2847C56.3893 66.2847 57.1176 67.7412 60.1027 69.0088C61.4664 69.6099 64.3656 69.9671 64.3656 69.9671L65.8667 66.508C65.8667 66.508 66.5022 65.1684 66.8903 64.5431L66.3709 64.2506C64.5023 63.0861 58.6695 65.2536 55.4645 65.5902C54.2141 67.8608 51.9435 71.7768 48.9069 74.968C47.6291 76.1428 47.1276 76.7474 45.2898 77.8809C43.4555 79.0179 41.7311 79.5572 41.4184 79.6397C41.1058 79.7153 40.1646 80.2615 39.8142 79.8767C42.4386 78.1111 44.6268 76.4691 45.0149 74.3565C45.4099 72.2405 46.5813 70.0524 47.2477 68.8776C47.076 68.7539 46.4645 69.623 45.8394 70.0524C42.6619 72.5325 40.7142 73.2401 37.1277 74.6726C34.4483 75.5004 30.9926 75.5485 28.7358 73.7966C28.6843 73.721 28.6843 73.5424 28.7358 73.4634C34.7991 71.5603 40.1617 67.809 44.9981 63.395C46.9526 62.0451 49.1305 61.2171 51.5142 60.9144L51.813 60.8148C55.1519 57.2972 59.3015 54.4015 64.8426 54.034C66.7937 54.1267 68.6247 54.8034 70.1293 56.0744C71.6579 57.3832 72.4583 59.1626 72.9083 60.9694C73.3583 61.3198 73.8873 61.5156 74.3373 61.7698C77.6144 63.4976 80.0739 66.5823 81.4033 69.8354C83.2583 73.8132 83.6636 77.5402 83.2823 82.7511C82.8976 87.9621 82.5163 89.6109 79.9777 93.9291C74.011 103.839 78.401 110.015 80.8674 110.053C84.7044 110.606 86.9304 104.337 89.043 102.304C91.1555 100.277 93.433 98.5422 94.4361 98.2467C93.6117 97.5391 91.767 96.7869 91.0113 95.6842C91.0113 95.6842 95.6727 95.88 97.1807 95.1826C97.1807 95.1826 91.1006 94.7258 88.6343 92.0258C88.6343 92.0258 96.9197 92.7781 96.9128 91.8609C96.9128 91.8609 90.6438 92.438 87.8167 86.3992C87.8167 86.3992 91.42 87.8728 92.7013 87.3197C92.7013 87.3197 87.4903 82.8953 86.3601 78.0035C87.4662 78.5531 95.6764 83.9565 96.7135 83.6782C96.7135 83.6782 91.1006 79.7863 90.7365 74.8502C90.7365 74.8502 96.0025 80.5662 99.9802 80.3361C99.9802 80.3361 95.7276 75.8601 95.7894 73.4796C95.8547 71.0991 96.6756 69.8934 96.6172 68.2136C96.552 66.5236 95.8066 64.3732 95.8066 64.3732C95.8066 64.3732 97.1874 64.9091 98.1699 65.8228C99.1524 66.7537 99.9355 68.3407 100.361 68.7186C100.64 68.4404 101.444 64.0778 100.234 60.7836C100.234 60.7836 101.632 61.8244 102.903 63.0714C104.171 64.3011 104.803 66.7538 104.803 66.7538C104.803 66.7538 106.981 62.3122 105.061 58.053C105.061 58.053 106.06 59.2244 106.586 59.7019C108.207 61.5087 108.616 63.1025 108.616 65.2941C108.616 67.4788 107.462 68.9868 107.936 70.196C107.936 70.196 108.235 69.7357 109.317 67.9529C110.392 66.177 110.533 64.3667 110.076 62.766C109.619 61.1584 109.344 60.7358 109.365 59.5198C109.317 58.3347 109.904 57.5275 110.028 56.9023C110.083 56.8301 109.997 59.4717 110.773 60.3992C111.549 61.6289 112.333 61.6805 113.507 63.0717C114.679 64.4492 114.796 66.3488 114.796 66.3488C114.796 66.3488 115.52 65.1602 116.888 64.0061C117.046 62.4088 117.891 59.2072 120.11 58.2626C119.746 61.574 119.886 62.3366 119.886 62.3366C119.886 62.3366 120.484 62.182 121.192 62.0652C121.889 61.9588 122.713 62.1649 122.713 62.1649C122.713 62.1649 121.652 62.7969 121.315 63.1611C120.986 63.5218 120.268 64.3806 120.268 64.3806C120.378 64.9679 120.601 66.9122 121.789 70.0965C122.981 73.2843 123.799 73.8064 125.176 75.8606C125.225 75.84 123.552 71.8552 125.321 71.1923C125.321 71.1923 125.822 74.1568 127.983 76.053C127.983 76.053 127.701 73.9576 127.89 72.1919C127.89 72.1919 129.958 75.6235 130.813 75.4175C130.813 75.4175 131.49 74.5278 131.435 73.2396C131.899 74.0538 134.537 79.8384 137.323 80.7178C138.999 81.4976 141.507 81.1472 142.276 81.2674C143.032 81.3877 143.798 81.4117 143.771 81.3396C143.424 80.948 142.878 80.5599 143.032 79.7663C143.194 78.9763 144.035 78.6775 144.942 78.571C145.849 78.4817 146.793 78.571 148.13 79.2408C149.466 79.9072 150.706 80.9584 151.651 83.3423C152.056 84.0396 151.733 85.0701 151.991 85.3174C152.434 85.6437 153.43 85.9495 153.956 86.2449C154.99 86.8735 155.577 86.7876 156.882 89.0067C154.78 88.1445 152.623 88.3094 152.623 88.3094C152.623 88.3094 153.007 88.9037 153.736 89.3194C153.543 89.7281 152.063 89.0617 151.991 89.127C152.032 89.8209 153.007 90.2125 154.612 91.0094L152.245 91.0712C152.245 91.0712 151.513 91.0369 150.434 90.7861C150.434 90.7861 149.452 91.2945 148.847 91.8956C146.02 94.7536 143.509 93.9944 142.905 93.9635C141.503 93.9085 140.366 91.4868 142.08 89.3948C142.08 89.3948 136.364 90.1506 134.558 90.8204C132.747 91.4868 129.031 93.9635 129.031 93.9635C129.031 93.9635 129.261 91.9609 128.749 92.0536C128.045 92.3559 126.935 93.0086 126.746 93.9292C126.557 94.8464 126.801 95.815 127.375 96.2719C128.938 97.2921 137.419 98.0581 143.606 98.0581C149.796 98.0581 154.557 97.3883 162.2 95.286C161.327 99.0577 158.373 99.2947 157.707 99.9612C157.037 100.628 157.652 100.579 157.085 101.009C156.082 101.723 152.849 102.297 152.279 102.967C151.702 103.623 151.733 103.802 151.733 103.802C151.733 103.802 151.922 103.839 152.214 104.018C152.499 104.221 154.052 105.736 154.309 106.344C154.56 106.945 154.608 108.542 154.385 108.827C154.113 108.635 153.797 108.439 153.797 108.439C153.639 108.659 153.821 110.335 153.485 110.51C153.409 110.081 153.021 109.964 152.863 109.964C152.557 110.095 153.052 110.789 152.313 111.96C152.351 111.276 151.863 110.469 151.668 110.102C151.468 109.731 150.122 108.906 149.534 108.755C148.947 108.594 147.243 108.755 147.243 108.755C147.243 108.755 145.814 109.576 145.574 110.28C145.333 110.988 146.168 112.379 146.522 112.503C146.872 112.633 149.792 113.056 151.06 112.743C151.238 112.743 151.915 112.352 152.114 112.115C151.647 113.207 151.238 115.11 149.895 115.11C148.559 115.103 145.842 115.055 143.99 114.557C143.032 113.983 142.571 113.403 141.943 112.544C141.568 112.352 141.929 115.89 142.173 115.989C144.279 116.714 148.442 117.951 151.568 118.806C154.697 119.665 162 121.056 164.185 121.235C166.847 121.963 156.47 124.302 156.367 124.433C156.741 124.704 157.191 124.536 157.569 124.982C159.043 129.105 149.878 127.507 148.095 127.964L148.019 128.036C148.473 128.411 149.603 128.734 149.603 128.734C147.923 130.379 141.321 130.764 137.762 130.503C134.207 130.252 128.886 128.775 128.886 128.775C129.017 129.026 130.48 130.207 129.638 130.252C128.797 130.3 125.905 130.307 123.466 130.018C121.03 129.726 116.159 128.122 114.778 127.074C113.394 126.03 113.078 125.913 112.614 126.061C112.161 126.205 111.567 127.071 110.794 127.528C110.014 127.988 108.963 127.943 108.551 128.26C108.142 128.582 108.235 129.17 107.96 130.228C107.681 131.276 107.276 132.055 107.317 132.371C107.369 132.687 109.145 133.471 109.145 133.471L111.117 133.976C111.117 133.976 113.696 133.581 114.778 134.511C116.585 134.889 118.176 133.395 119.474 132.794C120.776 132.189 121.982 131.375 122.837 131.368C123.696 131.362 128.429 134.924 128.715 135.521C128.996 136.122 129.889 141.522 129.158 141.303C128.996 140.952 128.649 141.048 128.649 141.048C128.649 141.048 128.684 141.746 128.299 141.904C128.24 141.715 127.825 141.553 127.825 141.553C127.825 141.553 127.385 143.401 125.64 143.36C126.145 141.581 125.743 141.035 125.743 141.035C125.743 141.035 124.723 141.739 123.686 141.11C125.015 140.647 124.568 139.029 124.568 139.029C124.568 139.029 124.651 137.937 123.122 137.748C121.604 137.552 120.113 137.998 119.539 138.572C118.969 139.142 118.942 141.083 119.385 141.876C119.824 142.663 119.921 142.79 120.587 143.206C121.257 143.625 121.542 143.9 122.366 143.824C123.191 143.748 123.6 143.687 124.269 143.244C124.682 144.288 123.17 145.099 123.17 145.099C121.508 146.222 118.048 145.082 117.313 143.656C116.585 142.22 116.386 139.836 115.349 138.888C115.098 138.565 113.463 138.493 113.442 138.764C113.002 143.927 109.409 146.95 106.833 148.359C107.671 148.191 108.695 147.947 109.323 147.696C110.526 147.198 110.196 147.249 111.295 146.538C112.391 145.824 114.912 142.543 115.142 141.2C115.194 140.874 115.874 143.673 116.235 144.381C116.829 145.549 118.258 146.521 120.044 146.981C121.796 147.431 123.455 147.246 124.596 146.473L126.049 145.061L127.196 144.79C128.945 144.384 129.243 142.914 129.388 142.959C129.711 143.055 130.253 143.199 130.349 143.172L131.081 142.32C132.472 140.709 130.772 134.763 130.748 134.711C130.532 134.258 129.147 132.973 127.698 131.877C128.728 131.891 129.851 131.898 130.212 131.877C131.033 131.829 131.724 131.05 131.724 131.05C133.613 131.486 136.124 131.987 138.151 132.135C140.775 132.321 148.847 132.31 151.338 129.878C151.338 129.878 151.462 129.521 151.64 129.521C154.684 129.572 157.992 129.535 159.41 127.57C159.864 126.931 159.957 125.285 159.957 125.285C165.466 123.798 166.909 123.097 166.916 121.438C166.916 121.084 166.799 119.899 165.209 119.463" fill="white"/>
<path d="M149.564 107.607C148.701 107.49 147.777 108.194 147.777 108.194C147.777 108.194 149.172 108.146 149.522 108.266C149.873 108.387 151.147 108.953 151.893 109.737C152.085 109.939 152.205 110.09 152.36 110.575C152.535 109.953 152.38 109.561 152.243 109.362C151.927 108.823 150.422 107.717 149.564 107.607Z" fill="white"/>
<path d="M147.842 105.338C148.158 105.27 150.858 105.208 151.301 105.531C151.741 105.847 153.751 107.317 153.963 108.018C154.077 107.313 154.077 106.884 153.805 106.513C153.496 105.943 152.122 104.655 151.71 104.39C151.301 104.119 146.829 103.999 146.21 104.449C145.592 104.902 143.62 106.905 143.62 106.905C143.62 106.905 141.838 108.67 141.391 108.811C140.941 108.945 140.948 108.883 140.725 108.983C140.501 109.076 141.103 112.164 141.329 112.164C141.549 112.164 142.229 111.649 142.497 111.855C142.769 112.057 143.14 112.573 143.14 112.573C143.14 112.573 144.077 113.538 144.572 113.967C144.672 114.118 148.409 114.606 150.157 114.572C150.467 114.572 151.105 113.335 151.105 113.335C150.168 113.926 146.468 113.346 146.022 113.188C145.578 113.019 144.514 110.996 144.651 110.213C144.788 109.423 146.767 108.131 146.767 108.131C146.767 108.131 147.777 107.43 148.09 107.314C148.643 107.08 149.385 107.08 149.385 107.08C149.385 107.08 150.061 107.145 150.662 107.341C151.267 107.533 153.074 108.87 153.259 109.663C153.417 108.956 153.417 108.286 153.142 108.104C152.83 107.626 151.267 106.225 150.889 106.032C150.504 105.85 147.488 105.871 147.427 105.782C147.365 105.689 147.523 105.397 147.842 105.338Z" fill="white"/>
<path d="M139.993 109.114C139.639 109.045 138.855 109.406 138.196 109.499C137.684 109.574 137.248 110.368 137.124 110.65C136.994 110.931 137.378 111.364 137.547 112.055C137.712 112.752 137.454 113.642 137.736 113.642C138.024 113.642 138.34 113.133 138.811 112.975C139.295 112.814 140.209 112.752 140.467 112.625C140.721 112.498 140.467 111.735 140.401 111.165C140.34 110.598 140.339 109.179 139.993 109.114Z" fill="white"/>
<path d="M139.705 115.188C139.582 115.566 141.103 115.882 141.354 115.758C141.608 115.628 141.306 113.601 141.23 113.189C141.151 112.766 139.863 113.216 139.513 113.347C139.166 113.467 139.613 115.119 139.705 115.188Z" fill="white"/>
<path d="M136.753 113.984C137.007 112.517 136.708 111.167 136.203 111.133C135.599 111.009 132.27 111.651 132.105 111.943C131.954 112.229 136.657 114.327 136.753 113.984Z" fill="white"/>
<path d="M108.467 133.738C107.732 133.367 107.117 132.824 106.801 132.824C106.478 132.824 105.039 134.885 105.087 135.164C105.135 135.431 106.599 135.703 107.471 136.067C108.337 136.428 109.529 136.967 109.803 136.967C110.078 136.967 110.978 134.813 110.659 134.449C110.518 134.171 109.202 134.095 108.467 133.738Z" fill="white"/>
<path d="M112.894 138.641C112.894 138.641 111.994 138.888 111.417 138.586C112.06 141.32 108.223 146.823 108.223 146.823C109.157 146.59 112.578 143.464 112.894 138.641Z" fill="white"/>
<path d="M114.563 137.922C114.882 138.042 115.816 137.788 116.51 139.251C117.211 140.522 117.575 143.123 118.276 143.731C118.973 144.332 119.038 144.521 120.753 144.871C122.432 145.029 123.13 144.792 123.226 144.342C121.199 144.758 120.224 143.824 120.224 143.824C120.224 143.824 119.166 143.168 118.753 142.25C118.338 141.333 118.214 139.791 118.468 139.155C118.722 138.523 118.946 137.788 119.798 137.438C120.402 137.19 121.182 136.868 122.23 136.868C123.274 136.868 124.246 136.868 125.039 137.73C125.304 138.108 125.38 138.918 125.38 139.097C125.513 140.121 125.046 140.588 125.046 140.588C125.046 140.588 125.933 140.739 126.111 139.856C126.372 140.56 126.503 140.952 126.53 142.336C126.53 142.336 127.891 141.23 127.444 139.671C127.444 139.671 127.039 137.472 126.218 136.49C125.428 135.542 123.401 134.594 122.669 134.559C121.941 134.532 119.454 135.889 119.214 135.573C118.973 135.263 121.962 133.518 122.985 133.563C124.002 133.625 126.159 135.322 126.795 136.019C127.461 136.912 127.952 138.853 128.055 140.413C129.388 140.536 128.564 136.435 127.897 135.586C127.451 135.078 123.669 131.883 122.563 132.113C121.45 132.33 118.022 134.422 117.039 134.872C115.971 135.353 114.903 134.978 114.7 135.064C114.48 135.157 114.892 135.758 114.7 136.579C114.511 137.407 114.243 137.788 114.563 137.922Z" fill="white"/>
<path d="M113.61 137.923C114.015 137.779 114.307 135.742 114.18 135.11C114.053 134.478 111.848 134.392 111.463 134.581C111.178 134.615 111.099 135.573 110.941 136.061C110.721 136.769 110.275 137.191 110.463 137.439C110.755 138.167 112.72 138.232 113.61 137.923Z" fill="white"/>
<path d="M152.801 87.8446C153.209 87.7931 154.319 87.9717 154.831 88.0404C155.336 88.0954 156.143 88.4148 156.143 88.4148C156.143 88.4148 155.909 87.6453 154.446 86.9137C153.721 86.5668 152.883 86.0755 152.378 86.1992C151.87 86.3297 150.829 87.769 150.637 88.3667C150.444 88.9679 150.461 90.1805 151.543 90.5583C152.746 90.8434 153.446 90.7266 153.446 90.7266C153.446 90.7266 151.89 90.4896 151.351 89.1534C151.066 88.2018 152.399 87.8926 152.801 87.8446Z" fill="white"/>
<path d="M61.4576 15.6841L23.6445 52.412V147.59L61.4576 184.318H142.33L176.355 151.267V135.283H140.881V149.271H59.1195V131.879L58.5217 131.813C58.7587 131.61 58.9477 131.422 59.1195 131.243V129.766C57.6836 130.449 56.0382 130.612 54.5989 130.591V153.668H145.401V139.673H171.84V149.449L140.456 179.918H63.3317L28.1637 145.77V75.0897C28.0813 75.0279 27.9846 74.9871 27.8953 74.9184C27.8953 74.9184 25.7591 73.3037 25.1648 72.4037L28.1636 71.6544V54.2327L63.3317 20.0841H140.456L171.84 50.5573V60.3298H145.4V46.3347H54.5989V55.9672C55.9832 54.9572 57.5118 54.0751 59.1194 53.3915V50.7319H140.881V64.7235H176.355V48.7395L142.325 15.6836H61.455L61.4576 15.6841ZM65.5698 55.1995C65.3215 55.1854 65.1686 55.2284 65.1729 55.3461C65.0973 55.8167 67.9141 55.7342 68.8519 60.6669C69.2675 62.91 68.6189 63.7198 67.6777 65.8084C67.2002 66.6328 66.7985 67.5118 66.4722 68.4153C63.8959 74.2755 61.8691 80.3909 60.7149 86.8825C60.289 88.0813 60.2978 92.1972 60.5486 93.427C61.5997 98.5899 63.2592 101.622 66.1412 106.002C67.8416 108.709 72.1773 111.274 76.0452 112.099C67.8662 107.207 66.7736 104.092 66.7736 104.092C66.7736 104.092 60.425 94.1913 64.5471 83.1406C66.1479 78.8639 67.829 74.5571 69.9553 70.493C71.1095 68.5831 71.9369 66.5322 72.0847 64.1757C71.961 62.8051 72.1115 61.3529 71.4589 60.1162C70.3837 57.7976 69.6942 57.0279 68.6774 56.3203C67.9148 55.7895 66.3144 55.2418 65.5698 55.1995ZM58.77 57.9036C58.3233 57.9062 57.0354 58.2801 56.5665 58.5145C55.9379 58.8271 55.0621 59.3593 53.8426 60.5204C52.1903 61.97 50.5784 65.2061 50.3036 65.6733C50.0322 66.1439 46.7446 71.3521 46.5488 73.6571C46.0404 76.5151 44.3964 77.4152 44.3964 77.4152C46.0728 76.6148 48.7782 73.7737 50.2278 71.8225C52.3439 69.15 53.6666 66.4609 55.3017 63.4518C56.1021 62.0709 57.7418 59.3008 58.8754 58.0435C58.975 57.9431 58.9189 57.9027 58.77 57.9036ZM119.228 59.9144C119.228 59.9144 118.638 60.5348 118.304 61.3455C117.975 62.1562 117.748 63.4386 117.748 63.4386C118.273 63.0401 118.606 62.8617 119.228 62.5937C119.228 62.5937 119.148 62.0851 119.128 61.4393C119.114 60.7901 119.228 59.9144 119.228 59.9144ZM63.1671 60.7415C61.9168 60.7965 58.7254 60.8243 58.3716 61.0544C58.0143 61.2914 57.6974 61.6668 57.1925 62.3916C57.1478 62.5153 56.1834 63.9064 56.3345 64.0335C59.5669 64.1091 64.3143 61.5323 67.3716 63.4044C67.6945 63.3323 67.6492 62.5006 67.7076 62.2533C67.6286 61.872 67.7804 61.2471 67.3305 61.0478C66.0286 60.8692 64.5721 60.7724 63.1671 60.7415ZM110.656 61.7692C111.103 63.2016 111.26 63.6445 111.16 64.5342C111.006 66.7258 110.913 67.5846 109.164 70.0923C106.372 72.8746 111.612 77.969 111.612 77.969C111.612 77.969 108.802 75.4845 107.417 73.5506C105.957 71.0121 107.574 66.5981 107.44 65.1104C107.299 63.6162 107.004 62.3767 107.004 62.3767C107.004 62.3767 106.908 65.4508 106.266 66.7836C105.617 68.1199 105.239 69.1888 105.133 70.5697C104.886 73.5238 105.767 75.7424 105.767 75.7424C104.403 74.2172 103.641 69.7682 103.672 67.6762C103.7 65.3576 102.006 63.9049 102.006 63.9049C102.006 63.9049 102.117 65.4275 101.976 66.9664C101.842 68.5019 101.449 68.748 101.288 70.9155C100.975 73.0728 105.833 78.7857 105.833 78.7857C105.833 78.7857 102.336 76.3788 101.034 72.6003C100.656 70.9171 97.6053 66.9764 97.6053 66.9764C97.6053 66.9764 98.083 67.7074 97.9594 69.2326C97.8288 70.7577 96.877 72.1843 97.4472 74.1285C98.3987 76.1278 101.841 81.9601 107.557 82.5373C104.599 84.1724 95.717 80.2944 93.8932 79.4906C94.7623 81.3147 102.171 86.236 107.702 87.1566C103.497 88.9772 92.8628 83.684 88.6545 80.8707C91.4851 84.8794 95.7985 88.2056 95.7985 88.2056C94.6547 89.0678 90.6983 88.446 90.6983 88.446C92.6941 91.1976 100.986 91.3033 100.986 91.3033C100.35 93.4022 93.6558 93.2103 93.6558 93.2103C97.1734 94.9382 100.701 94.3944 100.701 94.3944C100.385 95.2154 99.9717 95.8306 98.3263 96.1466C95.9527 96.6928 93.2261 96.4463 93.2261 96.4463L96.4522 97.9746C96.4522 97.9746 92.1136 100.764 89.7365 103.09C87.3629 105.422 84.8167 111.546 82.395 110.955C80.6053 111.601 78.9367 110.894 78.3355 110.062C77.7275 109.241 75.8755 106.796 75.666 104.605C75.4633 102.41 76.5524 96.7279 78.4623 93.8078C80.3654 90.8879 81.8908 88.9851 82.0178 79.3254C81.7945 72.4896 79.0806 67.3953 76.0234 64.8843C75.2986 64.1561 73.89 63.1525 73.5087 63.0563C73.1274 62.9636 73.4498 64.1826 73.3605 64.8662C73.2643 65.6391 72.8895 66.4151 73.1678 66.7139C73.6796 67.5555 75.0785 67.7285 76.748 74.4442C78.6991 84.9181 73.9869 88.8262 73.8907 92.666C73.1281 96.6027 73.3778 99.7766 73.6355 102.067C71.2206 96.7259 72.1761 90.9139 72.9833 85.8675C73.7906 80.8214 71.2622 75.5555 70.187 74.8236C69.9843 74.724 69.6614 74.4698 69.5069 74.8236C68.9332 76.0568 68.4074 76.9028 68.033 78.2013C72.6051 83.1993 68.6817 88.2823 68.0462 91.9029C67.4107 95.5166 68.81 102.699 69.6963 104.224C70.586 105.743 75.6141 112.212 81.6356 112.603C79.3238 113.737 78.1488 113.792 75.9195 113.239C68.6852 111.408 65.3596 108.09 63.1235 108.158C60.2689 108.251 59.1607 108.662 58.0134 109.109C56.8729 109.559 55.6015 110.125 54.5847 111.273C53.5679 112.416 52.8803 113.623 52.6777 114.825C52.6777 114.825 54.0758 113.107 56.556 111.908C60.9323 110.249 63.0311 110.442 66.0746 112.417C68.6165 113.424 72.4263 117.425 76.1084 116.539C76.232 116.491 78.0635 116.529 78.0154 116.732C78.0154 116.832 76.1874 117.189 76.1084 117.237C73.192 117.746 70.1864 116.013 67.2255 114.385C66.4011 113.935 64.6796 112.919 63.9171 113.176C63.1579 113.424 61.1284 114.702 59.6616 116.416C58.2018 118.123 57.058 120.477 57.058 120.477C59.3458 120.92 59.7262 120.606 63.9171 117.109C65.3769 116.415 68.4655 116.47 71.3475 117.745C71.5365 118.068 71.663 118.45 71.2817 118.762C69.8526 118.783 69.469 118.442 68.6171 119.016C67.7686 119.593 67.6648 121.241 67.9155 121.111C68.4273 121.241 69.3168 120.418 71.6011 120.607C72.8102 120.919 67.9979 122.307 66.3971 122.379C62.8796 122.31 61.9485 122.194 60.681 123.403C59.41 124.602 58.8369 126.069 57.6278 127.402C58.332 127.323 61.5019 125.309 62.2027 124.986C62.9 124.666 67.0293 124.987 69.6331 124.409C72.237 123.843 73.5083 123.083 74.1438 122.509C74.1438 122.509 73.9477 124.351 72.8313 126.801C72.8828 126.979 77.263 122.966 77.5824 122.138C77.4794 122.386 76.4859 124.708 77.3996 127.487C77.6779 129.638 78.0843 129.731 77.4935 133.156C79.6404 131.102 80.7835 128.171 80.8728 126.213C80.9621 124.244 80.5985 122.139 81.1 120.088C81.4676 118.628 82.8201 116.207 82.8819 116.248C82.7239 117.069 81.5598 119.036 81.5118 121.506C81.4671 123.976 82.4738 127.717 83.068 128.219C83.3841 128.449 83.9337 127.265 83.707 126.437C83.4803 124.2 83.1574 120.975 83.707 120.683C83.9303 120.755 84.7991 121.73 85.0327 123.059C85.5342 124.151 85.0335 125.158 85.8545 125.982C85.882 125.955 86.4008 125.113 86.4902 123.512C86.5829 121.915 86.0844 121.228 85.8989 120.497C85.7135 119.772 85.6651 116.801 85.6651 116.801C85.6651 116.801 88.1786 118.7 89.1268 119.085C90.0817 119.46 93.7471 122.094 94.8429 123.777C95.7326 122.379 94.4425 121.005 92.5291 119.13C91.6119 117.896 89.372 117.068 88.7777 114.423C87.6269 110.236 93.3909 101.081 96.5408 101.13C95.3592 103.321 96.2691 106.014 96.2691 106.014C96.2691 106.014 96.7508 102.822 99.2893 100.665C102.594 97.3537 106.712 95.6601 107.894 95.1071C106.798 95.0143 106.512 95.0636 106.32 94.6789C105.942 93.9678 107.127 91.5553 111.156 90.3461C109.538 91.1087 108.106 91.6759 107.632 93.0156C107.251 94.0152 107.797 94.3923 107.797 94.3923C107.797 94.3923 108.749 93.4894 109.371 93.06C109.993 92.6306 111.693 92.3211 111.706 92.3486C111.851 92.6784 111.75 92.9607 111.558 93.2527C111.366 93.5378 110.833 93.538 110.4 94.249C110.146 94.6921 110.002 95.461 110.242 95.7427C110.483 96.0347 111.513 95.8042 112.083 95.2305C112.801 94.1382 112.654 94.5405 112.846 93.3004C113.083 91.8199 114.18 91.535 114.18 91.535C114.18 91.535 113.991 94.1042 114.42 94.5405C114.654 93.1527 115.369 93.2527 115.369 93.2527C115.369 93.2527 115.324 95.7228 115.942 95.9667C116.035 94.6339 116.849 94.7267 116.849 94.7267C116.849 94.7267 116.993 96.8694 117.388 97.024C117.56 96.3026 118.033 95.5847 118.033 95.5847C118.033 95.5847 118.563 97.4406 118.893 97.7223C119.134 97.2517 119.799 96.5332 119.799 96.5332C119.799 96.5332 120.056 99.752 122.2 100.892C121.444 96.0077 121.912 95.6773 122.588 95.3854C122.588 95.3854 123.039 99.7516 127.628 102.142C127.628 102.142 126.433 99.8748 126.011 98.4321C125.592 97.0031 124.862 93.6887 126.119 92.4212C126.47 91.9712 124.467 92.6512 125.354 92.1429C126.247 91.6345 129.851 90.2296 130.022 90.5009C130.246 90.8307 130.067 91.7342 129.991 92.0605C129.991 92.0605 132.564 90.346 134.179 89.8686C135.804 89.3979 142.326 88.5873 142.326 88.5873C142.611 88.5873 144.044 87.1556 143.996 86.7709C143.944 86.393 143.164 85.4895 143.233 85.2525C143.391 84.7132 147.008 82.5999 145.754 82.6307C142.23 82.1498 138.418 82.5042 136.184 81.2984C133.539 79.866 132.965 77.4819 132.041 75.8228C132.223 76.3861 131.278 77.1551 131.278 77.1551C131.278 77.1551 129.293 75.8465 128.754 74.8709C129.132 75.9461 128.754 77.1979 128.754 77.1979C125.769 75.3223 125.562 74.0574 125.562 74.0574C125.435 74.504 126.371 77.4828 126.371 77.4828C126.371 77.4828 123.45 75.967 121.465 71.5839C120.641 70.0758 119.658 65.4346 119.658 65.4346C118.466 67.3101 118.321 67.9197 118.321 67.9197C118.321 67.9197 117.318 71.4803 118.606 73.6754C119.609 75.1524 121.99 77.009 122.563 77.1979C123.941 78.2009 122.845 78.0559 122.845 78.0559C122.845 78.0559 118.892 76.9148 117.796 76.8702C116.704 76.8187 116.179 77.1564 114.654 76.727C113.132 76.2976 112.012 74.4907 112.136 72.7285C112.273 70.5678 113.042 70.3613 113.275 69.5369C114.076 68.2041 114.306 65.3227 112.902 63.6808C112.462 63.1105 111.734 62.4301 110.655 61.7672L110.656 61.7692ZM91.6058 62.1562C91.6058 62.1562 91.8945 62.9772 91.3209 64.1554C90.7781 65.1104 89.2869 65.6407 89.1289 67.8048C88.9091 70.6937 91.479 71.8988 91.479 71.8988C91.479 71.8988 90.557 70.5006 90.7494 69.1437C91.1307 67.1685 92.5914 66.4101 92.6498 65.1666C92.7186 63.9333 91.6058 62.1562 91.6058 62.1562ZM127.349 62.39C127.349 62.39 126.208 63.775 125.868 64.5342C125.542 65.3037 125.395 66.2993 125.615 68.1062C125.804 69.4596 126.374 69.8271 126.374 69.8271C126.79 68.7519 127.812 68.645 127.802 67.1576C127.85 65.8213 127.493 65.6737 127.304 64.437C127.16 63.5302 127.349 62.39 127.349 62.39ZM120.533 62.8643C120.533 62.8643 118.325 63.8187 117.274 64.997C116.147 66.024 115.376 67.4201 115.18 67.8048C114.504 68.8628 114.216 70.917 114.433 72.3253C114.653 73.7303 115.675 75.7426 116.468 76.0587C117.262 76.3781 117.846 76.0936 118.894 76.444C119.945 76.7841 121.086 77.1093 121.086 77.1093C120.217 76.309 117.777 74.3823 117.578 73.3793C117.544 73.29 116.97 71.7093 117.262 69.2326C117.575 66.5017 120.533 62.8643 120.533 62.8643ZM49.4866 63.0142C48.116 63.0932 46.2819 64.3563 44.4028 65.6375C41.0708 68.7669 37.4157 71.5216 33.407 73.2014C32.9055 73.5243 32.277 73.5486 31.803 73.875C34.5786 73.9986 37.035 73.1027 39.3949 72.0207C42.9777 70.4714 47.846 66.5307 48.6631 65.5964C49.0925 65.2083 49.4284 64.1293 49.8784 63.3254C49.8784 63.3254 50.1496 62.9764 49.4866 63.0142ZM57.2678 68.0107C57.2678 68.0107 57.2979 68.5843 57.4078 69.0103C57.5693 69.608 58.4104 70.4123 58.9805 70.9173C59.7431 71.6111 62.9317 73.4868 63.0005 73.236C63.2203 72.4665 63.4266 71.9958 63.8354 71.1989C64.093 70.8829 61.2682 70.4868 59.743 69.8237C58.3793 69.226 57.2678 68.0107 57.2678 68.0107ZM55.3049 70.0115C55.2774 69.9531 55.0019 70.2685 54.6 70.7872V82.498C56.0668 83.058 57.2354 83.8757 58.2247 84.8135C58.3552 84.4356 58.7014 83.1061 59.1205 81.4952V73.8803C58.4816 73.4784 57.8709 73.1101 57.7438 73.0174C56.8885 72.4025 55.8476 71.1932 55.3049 70.0115ZM145.204 79.1372C144.479 79.1366 143.943 79.3613 143.851 79.9689C143.706 80.9376 144.85 81.5415 144.85 81.5415C144.85 81.5415 146.324 81.6368 148.134 82.7223C149.944 83.8216 150.943 84.9324 150.943 84.9324C150.943 84.2797 150.861 83.4884 150.614 82.9628C150.137 81.5407 148.037 79.683 146.66 79.3463C146.142 79.2188 145.64 79.1376 145.204 79.1372ZM147.042 83.1983C146.503 83.3013 144.088 85.2044 144.088 85.3968C143.992 85.73 144.422 86.3942 144.71 86.7274C144.995 87.064 145.467 87.4578 145.855 87.396C146.233 87.3342 146.815 86.7602 146.884 86.6434C147.004 86.482 146.768 86.5473 146.551 86.482C145.71 86.3377 145.683 84.947 146.662 84.5107C147.27 84.2359 148.259 84.294 149.028 85.479C149.526 86.1455 150.412 86.579 150.588 86.6236C150.766 86.6511 151.066 86.2758 151.017 86.0834C150.921 85.6815 150.172 85.259 149.791 84.8434C149.409 84.4277 147.571 83.109 147.042 83.1983ZM50.9875 84.7978C47.7482 84.8253 44.824 87.1848 43.1717 90.0051L43.3232 90.0364C44.6251 89.3596 45.9549 88.7337 47.5556 88.7337C53.0723 88.6857 56.8263 93.0894 60.2858 96.8543L60.3105 96.6451C59.9867 95.5726 57.4311 84.8179 50.9867 84.7977L50.9875 84.7978ZM147.708 86.7592C147.398 86.8264 146.821 87.3674 146.373 87.7341C145.139 88.4451 144.663 87.3137 144.471 87.4442C144.282 87.5679 143.577 88.4751 143.804 88.6366C144.023 88.7911 146.15 88.5345 147.229 88.5723C148.311 88.6033 149.232 88.7922 149.582 88.5723C149.929 88.3456 149.688 88.1042 150.251 87.3141C150.828 86.5138 149.101 87.1352 147.823 86.7608C147.791 86.7492 147.753 86.7496 147.708 86.7592ZM147.241 89.1718C146.876 89.1644 146.556 89.1664 146.343 89.1767C145.488 89.2111 143.547 89.3619 142.977 89.7432C142.661 89.9013 141.771 91.8413 142.186 92.6005C142.595 93.3597 143.203 93.4633 144.436 93.4256C146.531 93.4943 148.754 90.8242 149.801 90.4086C150.248 90.1269 150.152 89.6781 149.963 89.4617C149.819 89.2943 148.334 89.1938 147.241 89.1718ZM54.6008 95.0904V95.5532C54.7348 95.5395 54.8687 95.5186 55.0026 95.5186C54.8687 95.3743 54.7348 95.2347 54.6008 95.0904ZM111.014 96.6335C110.822 96.6156 110.625 96.6167 110.417 96.6352C108.75 96.7795 107.366 98.2531 106.181 99.1153C106.181 99.1153 106.69 97.9336 107.284 97.1572C107.284 97.1572 102.333 98.8951 99.5442 102.444C98.0156 104.353 97.1291 106.507 96.2703 108.853C95.4905 107.702 94.6694 104.879 95.0335 103.051C94.4393 102.818 92.5333 105.075 92.3031 106.442C92.0729 107.816 93.7012 109.874 93.7012 109.874C92.0489 109.427 91.287 107.778 91.287 107.778C91.287 107.778 90.7167 108.86 90.9675 109.938C91.2285 111.017 92.4924 112.285 92.4924 112.285C91.4001 112.879 90.1424 111.079 90.1424 111.079C90.1424 111.079 89.2534 113.682 90.2083 115.142C92.685 117.684 93.8243 118.379 95.796 121.367C96.7476 122.7 98.0804 123.085 97.9567 126.071C97.6372 131.529 99.1605 130.7 99.1605 130.7C99.1605 130.7 98.9705 128.669 99.5442 128.546C99.5442 128.546 99.9878 130.512 100.812 131.721C101.637 132.927 102.972 134.131 103.989 133.942C105.002 133.75 105.154 133.156 105.7 132.287C106.524 130.968 106.15 126.894 106.212 126.578C106.274 126.258 107.669 125.943 106.446 125.318C105.471 124.816 104.935 124.119 105.003 123.721C105.003 123.721 107.225 124.796 107.225 122.955C107.476 121.244 105.576 120.858 105.064 120.419C102.65 118.45 100.689 114.951 100.05 114.951C100.05 114.951 99.159 115.084 99.0354 114.569C98.9049 114.068 99.8605 113.81 100.62 114.452C101.386 115.084 102.334 116.541 103.735 117.812C105.133 119.086 105.893 119.653 106.848 119.653C106.848 119.653 105.577 118.701 105.893 117.812C105.893 117.812 107.544 119.911 108.557 120.608C109.581 121.302 111.863 121.876 111.863 121.876C111.547 122.453 109.705 121.876 109.705 121.876C109.705 121.876 114.913 125.942 118.088 127.344C121.262 128.735 125.183 129.165 126.753 128.684C128.326 128.213 125.04 127.877 124.174 127.441C122.058 126.603 120.47 125.878 117.272 124.112C114.081 122.354 111.464 119.213 111.464 119.213C111.464 119.213 115.081 121.536 117.132 121.402C117.039 121.876 115.754 121.968 115.754 121.968C115.754 121.968 116.685 122.635 120.615 124.359C124.548 126.084 128.362 127.063 133.325 128.351C138.285 129.646 142.85 129.494 145.011 128.612C142.215 128.481 136.393 126.802 132.439 125.562C127.616 123.909 123.795 122.13 120.893 120.333C120.357 120.041 120.525 119.467 121.068 119.653C121.614 119.835 122.845 120.353 125.961 121.621C129.076 122.892 135.801 124.726 140.946 125.496C144.818 126.317 151.736 126.485 154.47 126.543C157.726 126.56 156.377 125.29 155.611 125.211C154.845 125.132 147.23 124.26 141.329 123.113C135.42 121.969 129.357 119.684 125.452 118.004C124.943 117.747 125.071 116.861 125.961 117.112C128.307 118.005 133.513 119.653 136.628 120.478C139.737 121.302 143.548 122.13 147.364 122.635C151.173 123.144 153.522 123.606 158.152 122.826C158.578 122.826 161.582 122.226 159.964 121.876C158.346 121.529 152.879 120.506 150.87 119.99C148.86 119.475 142.85 117.981 137.646 116.078C131.04 113.793 127.787 111.224 125.124 108.874C122.332 106.631 119.48 102.068 116.258 99.7807C113.438 97.7818 112.355 96.7591 111.012 96.6336L111.014 96.6335ZM158.902 97.2527C157.188 97.7371 149.607 99.1115 146.021 99.2833C142.263 99.352 138.506 99.3043 134.799 99.033C132.773 98.8784 127.265 97.3879 127.784 98.3841C128.574 99.7822 131.226 102.458 131.539 104.337C131.848 106.22 131.466 108.86 131.226 110.852C131.429 111.282 134.604 110.265 135.562 110.128C136.558 109.788 136.459 109.006 137.434 108.459C138.06 108.219 140.14 107.831 141.136 107.776C141.373 107.879 142.889 106.384 143.126 105.955C143.408 105.663 140.742 106.092 139.836 105.903C139.221 105.855 139.893 105.278 140.226 105.278C140.559 105.278 143.407 105.57 143.692 105.381C143.981 105.192 145.379 103.96 145.002 103.815C144.62 103.671 142.758 103.876 142.281 103.731C141.803 103.584 142.229 103.255 142.851 103.255C143.469 103.255 149.157 103.44 150.064 103.348C150.775 103.348 151.837 102.555 152.098 101.775C152.242 101.349 147.931 101.558 146.9 101.63C145.87 101.719 141.538 101.835 138.783 101.612L138.557 101.462C138.53 101.386 138.557 101.317 138.636 101.317C144.122 101.441 152.146 100.486 157.181 99.112C158.49 98.6105 158.758 98.1734 158.902 97.2527ZM39.4498 98.3514C39.4498 98.3514 38.3054 100.206 36.0211 100.351C34.7467 100.412 33.4965 99.6771 33.4965 99.6771C33.4965 99.6771 34.0185 102.013 36.0211 102.116C37.9722 102.068 39.1647 100.014 39.4498 98.3514ZM55.6944 98.7417C54.7473 98.7717 53.8016 98.9049 52.9524 99.16C49.9398 100.081 48.1607 100.94 45.3061 103.513C44.8974 104.042 44.2002 104.598 44.0217 105.243L44.4498 105.018C48.4139 102.218 54.3259 100.411 65.7577 107.653C65.7577 107.653 62.6695 101.698 61.4397 100.283C60.6647 99.3986 58.7226 98.8281 56.6376 98.745C56.3248 98.7325 56.0101 98.7317 55.6944 98.7417ZM54.5943 105.648V107.592C55.3981 107.083 56.2344 106.664 57.0794 106.317C56.2653 106.022 55.4325 105.793 54.5943 105.648ZM91.4714 114.452C91.4714 114.452 92.7435 115.394 93.8873 115.394C93.8873 115.394 93.1246 115.966 92.4892 115.585C91.8571 115.204 91.4714 114.452 91.4714 114.452ZM56.8186 115.249C55.9701 115.696 55.224 116.353 54.5954 117.029V118.554C54.7534 118.331 54.909 118.103 55.0532 117.821C55.4998 116.976 56.1041 116.104 56.8186 115.249ZM54.5954 123.264V126.314C55.7874 125.407 56.3072 124.596 57.1282 123.449C56.4687 123.459 55.6328 123.415 54.5954 123.264Z" fill="#73000A"/>
<path d="M54.5966 117.027C53.2329 118.508 52.4531 120.133 52.4531 120.133C52.5081 120.095 52.9306 120.181 53.2191 119.988C53.4424 119.834 54.0298 119.36 54.5966 118.553V117.027Z" fill="black"/>
<path d="M112.968 101.879C112.968 101.879 112.788 102.926 113.039 103.379C112.926 103.152 113.391 104.214 114.414 104.651C114.857 104.846 116.018 104.517 116.018 104.517C115.118 104.39 114.771 104.063 114.194 103.575C113.29 102.764 112.968 101.879 112.968 101.879ZM110.5 104.837C110.5 104.837 110.383 106.486 110.833 107.18C110.75 107.029 112.155 108.956 113.787 109.471C114.525 109.701 115.765 108.53 115.765 108.53C114.332 108.726 114.298 108.472 112.721 107.338C111.145 106.191 110.5 104.837 110.5 104.837ZM114.235 105.472C114.166 105.568 115.026 106.222 115.119 106.683C115.236 107.311 115.521 107.638 116.328 108.157C117.135 108.665 116.091 107.581 115.999 106.832C115.899 106.084 115.154 105.775 114.676 105.589C114.384 105.47 114.258 105.44 114.235 105.472ZM107.384 106.319C107.309 106.389 108.45 107.145 108.517 107.931C108.613 108.975 109.039 109.168 110.09 109.835C111.141 110.501 109.612 109.268 109.66 108.117C109.715 106.977 108.572 106.739 107.951 106.502C107.57 106.348 107.409 106.295 107.384 106.319ZM120.083 108.293C119.795 108.541 119.753 110.234 122.56 111.584C124.94 112.731 127.033 112.587 126.937 112.058C126.937 112.058 124.604 111.584 123.034 110.732C121.461 109.87 120.083 108.293 120.083 108.293ZM106.499 110.23C106.295 110.25 106.138 110.32 106.079 110.474C106.079 110.474 106.6 111 106.649 111.388C106.7 111.766 106.986 112.099 106.079 112.144C105.172 112.192 101.741 110.955 101.741 110.955C101.741 110.955 105.08 113.24 106.701 113.339C108.415 113.24 107.416 111.526 107.223 111.048C107.031 110.571 108.129 110.571 108.129 110.571C108.129 110.571 107.109 110.171 106.499 110.23ZM114.746 112.588C114.746 112.588 115.034 113.585 115.848 114.204C116.796 115.014 120.222 116.396 121.177 116.396C122.132 116.396 122.461 114.825 122.461 114.825C120.843 115.584 120.365 115.156 118.084 114.396C115.793 113.637 114.746 112.588 114.746 112.588ZM91.4727 114.449C91.4727 114.449 91.8533 115.203 92.4888 115.584C93.1243 115.965 93.8869 115.391 93.8869 115.391C92.7431 115.391 91.4727 114.449 91.4727 114.449ZM111.173 115.584C111.033 116.539 111.511 116.867 112.84 117.493C113.699 117.918 114.605 118.54 115.89 117.493C115.89 117.493 115.034 117.445 113.464 116.916C111.887 116.394 111.173 115.584 111.173 115.584ZM95.6885 118.291C95.6885 118.291 95.9656 119.311 96.1958 119.531C96.4225 119.744 96.8149 119.861 97.0175 119.775C97.361 119.772 97.9727 118.858 97.9727 118.858C97.9727 118.858 97.5669 119.377 96.7425 119.129C95.9181 118.879 95.6885 118.291 95.6885 118.291ZM100.224 121.885C100.2 122.139 100.189 123.646 99.6047 123.536C99.0242 123.433 98.1274 122.268 98.1274 122.268C98.1274 122.268 98.7774 123.914 99.7908 124.223C100.9 124.422 100.251 121.644 100.224 121.885ZM102.918 127.513C102.952 127.761 102.999 128.818 102.404 128.849C101.817 128.883 100.247 127.808 100.247 127.808C100.247 127.808 101.689 129.41 102.75 129.475C103.867 129.41 102.891 127.266 102.918 127.513Z" fill="black"/>
<path d="M120.632 79.6211C120.632 79.6211 116.96 79.6897 115.225 80.4626C113.885 81.0638 111.374 82.7406 111.505 83.2524C111.635 83.7539 112.485 83.8256 114.12 83.9012C115.759 83.9837 118.076 83.0943 118.076 83.0943C118.076 83.0943 115.177 83.1626 115.136 82.6233C115.095 82.0737 115.879 81.4141 116.926 80.8645C117.977 80.3217 120.632 79.6211 120.632 79.6211ZM127.194 81.2515C127.194 81.2515 124.105 82.6155 122.185 83.0449C120.271 83.4743 118.397 83.3578 118.397 83.3578C118.397 83.3578 119.056 83.8691 119.056 84.4496C119.056 85.037 118.119 86.882 118.119 86.882C118.119 86.882 120.973 85.8616 123.082 84.807C124.965 83.9002 127.273 82.574 127.194 81.2515ZM127.263 85.6007C126.905 85.5566 126.16 85.762 125.918 85.9449C124.76 86.6079 123.375 87.6722 121.987 88.1566C120.606 88.6478 115.798 89.2105 115.798 89.2105C118.399 89.4098 121.208 90.7602 121.208 90.7602C121.208 90.7602 120.175 92.0043 118.753 93.3062C118.753 93.3062 121.848 92.0797 123.514 90.8293C124.936 89.8091 127.215 86.268 127.459 85.739C127.459 85.6591 127.383 85.6154 127.263 85.6007Z" fill="black"/>
<path d="M69.1899 93.872C68.9975 99.6567 71.5979 100.481 71.5979 100.481C70.0074 95.7201 70.5193 89.1109 72.0444 84.793C72.0444 84.793 69.3788 88.0938 69.1899 93.872Z" fill="white"/>
<path d="M78.3964 89.9349C79.5884 88.0834 80.4918 84.8578 80.5055 79.7291C80.5227 74.6006 78.6471 68.8505 75.2876 66.5039C78.3311 71.1996 80.2375 80.0934 77.5719 86.6954C77.2628 87.4924 73.5082 94.1942 75.1605 97.1761C75.9162 94.1292 76.933 92.1574 78.3964 89.9349Z" fill="white"/>
<path d="M47.2461 87.0539C50.3995 86.5078 52.8659 87.1432 56.1981 89.6543C56.1981 89.6543 54.01 85.9134 51.0386 85.6833C48.8023 85.5975 47.2461 87.0539 47.2461 87.0539Z" fill="white"/>
<path d="M49.0314 101.774C52.4115 100.995 57.255 100.675 60.0441 102.197C60.0441 102.197 58.6701 99.8541 55.9735 99.8094C53.277 99.7614 49.0314 101.774 49.0314 101.774Z" fill="white"/>
</svg>
