<svg width="200" height="200" viewBox="0 0 200 200" fill="none" xmlns="http://www.w3.org/2000/svg">
<g clip-path="url(#clip0_107_19993)">
<ellipse cx="100" cy="100" rx="100" ry="58.9105" fill="white"/>
<path d="M100.585 46.0991C47.542 46.0991 4.54688 70.442 4.54688 100.465C4.54688 130.502 47.5458 154.836 100.585 154.836C111.116 154.836 121.254 153.874 130.736 152.098L130.616 152.481C132.517 152.295 134.643 151.655 136.644 150.871C139.111 150.306 141.524 149.682 143.887 149.006L143.843 149.217C144.038 149.101 144.228 148.979 144.412 148.856C175.412 139.841 196.618 121.561 196.618 100.465C196.618 70.442 153.621 46.0991 100.588 46.0991" fill="black"/>
<path d="M148.024 143.372C149.608 141.45 150.648 139.469 151.338 137.742C172.854 129.359 186.843 115.788 186.843 100.466C186.843 78.4736 158.012 60.0819 119.44 55.4804C117.47 54.5331 115.541 53.6448 114.045 53.0079C107.746 50.3065 106.304 51.5263 104.741 53.0079C104.245 53.4779 103.856 53.9471 103.541 54.4006C102.551 54.3849 101.556 54.3714 100.559 54.3714C61.7083 54.3714 28.8595 68.0876 18.0409 86.9485C23.506 91.556 37.7811 103.062 49.1266 108.584L48.9881 108.244C48.578 107.828 38.6859 97.8906 36.0128 84.6541H36.2164C37.0448 85.6831 41.6515 94.0015 61.1403 106.39C62.6512 107.348 77.8423 116.5 84.2981 118.215L83.5176 117.358C82.8995 116.673 73.2917 105.567 68.7591 96.9267C68.7591 96.9267 63.8814 88.9024 60.4556 79.1674C60.4556 79.1674 66.9728 84.4468 67.5924 84.6541L67.6627 84.3061C67.4562 83.8339 62.0031 71.4019 61.016 64.5465C62.598 64.1633 69.5313 62.9084 72.7447 62.7168C72.7447 62.7168 74.0669 73.5534 82.7169 78.7191C82.7169 80.0339 83.1876 93.4724 86.8604 98.4466C86.7639 96.5735 85.7297 89.9044 91.4716 82.8566L91.7552 83.132C90.9957 86.0498 88.931 97.8906 91.7552 107.659C92.5006 110.287 97.6768 123.162 102.566 126.454C102.004 123.353 95.0427 108.973 102.379 93.7553C102.428 94.2657 102.541 95.4316 102.837 97.1108C103.669 101.86 105.963 110.762 112.429 120.857C112.44 120.873 112.667 121.194 112.774 121.351C112.311 114.846 114.65 110.924 115.97 109.129C120.38 103.278 129.574 103.032 136.308 104.509C139.03 105.089 141.144 105.421 143.547 106.152C143.627 106.08 143.681 106.009 143.738 105.925C137.692 102.673 123.142 99.9635 123.142 99.9635C125.606 99.5182 128.059 99.7285 130.568 99.7068C136.752 100.026 143.217 100.172 149.05 101.961C149.146 101.861 149.291 101.739 149.378 101.648C147.427 100.768 145.277 100.261 143.258 99.5803C135.294 97.4962 126.83 96.1552 118.319 95.4937L118.283 95.4293C122.439 94.7678 127.073 94.6436 131.51 94.5949C137.356 94.4655 143.283 95.0237 149.163 95.5528L149.265 95.3291C147.067 94.7057 142.185 93.7501 142.185 93.7501C132.245 92.2579 121.803 91.2454 111.581 91.0973C111.614 91.0322 114.057 90.2898 116.63 89.9097C123.642 88.7894 131.632 88.6599 138.616 88.5844C139.956 87.5128 140.643 87.2052 142.175 86.5489C136.603 84.8435 130.726 84.9078 124.991 84.2493C120.219 84.0525 115.655 83.0968 111.355 81.4131C109.798 79.7368 108.208 78.0905 106.943 76.3417C107.199 76.1553 107.304 76.2683 107.304 76.2683C107.304 76.2683 109.64 77.0054 110.859 77.3182C112.511 78.0501 114.014 78.9488 115.796 79.5744C116.563 79.9067 117.719 80.2225 118.516 80.3198C117.65 77.7635 117.852 76.2391 117.891 76.0363C117.93 75.8283 118.017 75.6801 118.017 75.6801C118.751 75.8665 119.191 75.9877 119.89 76.204C119.89 76.204 119.819 76.4794 119.971 77.3751L122.391 77.6857C122.187 78.0254 120.949 78.6892 120.543 79.011C120.543 79.011 120.718 79.5961 120.945 79.9958C121.248 80.5331 121.521 80.911 122.142 81.0509C124.474 80.7059 126.248 78.6705 126.248 78.6705L128.638 79.3402C128.638 79.3402 128.441 79.9337 127.763 80.7568C129.367 80.9267 132.249 80.6812 134.178 80.6573C134.611 80.646 134.736 80.6461 134.98 80.4328C135.339 80.0205 135.806 79.65 136.067 79.1861C134.797 78.9593 134.225 78.7408 134.303 78.773C133.964 78.7491 133.625 78.7326 133.291 78.6922C129.403 77.6475 125.569 76.1793 122 74.6654C118.233 73.1351 113.509 74.5898 109.552 73.4239C107.387 72.7706 105.058 72.4548 102.924 71.8202C102.912 71.815 102.856 71.7933 102.78 71.7664C102.783 71.7716 102.789 71.7746 102.793 71.7798C102.787 71.7746 102.778 71.7634 102.776 71.7634V71.7611C102.668 71.723 102.522 71.6668 102.379 71.613C102.381 71.7529 102.382 71.8988 102.383 72.0417C103.05 72.8544 104.146 74.1768 104.439 74.4439C104.006 74.3309 103.293 74.0982 102.406 73.831C100.796 73.3454 98.6047 72.7437 96.4203 72.5304C95.3832 72.4301 94.2584 72.3441 92.9309 72.0717C93.1007 72.3276 95.6159 75.2888 95.6159 75.2888C87.593 73.6746 82.9758 71.815 79.7902 69.4368C76.6098 67.0511 75.2029 64.3063 74.9388 63.7802C74.3895 62.6599 74.1605 61.2508 74.849 60.611C75.7036 59.8477 77.5257 60.2952 77.9186 60.3925C78.548 60.5549 78.7927 60.6192 79.2244 60.7218C79.6113 60.8108 80.1337 60.8677 82.877 61.4319C86.133 62.1092 94.8398 62.9862 102.297 63.162C103.161 63.1808 104.006 63.1912 104.826 63.1912C108.465 63.1912 112.478 63.5617 114.733 64.1903C114.733 64.1903 110.713 64.3062 109.353 64.6033L109.966 65.0703C111.725 65.0703 120.88 65.9443 125.644 66.9486L123.434 67.248L123.889 67.6663C125.396 67.7935 131.419 69.3268 139.57 71.7072L140.377 71.4887C140.377 71.4887 132.806 66.1576 131.549 65.529C130.74 66.0282 130.561 66.1254 129.85 66.5168C129.574 66.671 129.134 66.7623 128.758 66.5759C126.967 65.6772 121.943 63.2047 120.629 62.6899C120.629 62.6899 118.635 63.5856 117.87 63.3155L109.34 60.3064C108.635 60.4359 105.625 60.8273 102.283 61.1431C99.0993 61.4484 95.6166 61.6826 93.5363 61.5614C95.214 61.0862 99.2857 60.147 102.274 59.6262C102.414 59.6015 102.558 59.5776 102.695 59.5536C104.072 59.3052 106.455 59.178 110.972 59.4294C115.488 59.6771 129.123 61.5988 133.923 62.5574C135.804 62.9353 138.646 64.0069 141.832 66.317C143.205 67.3213 149.922 71.5426 150.329 73.0543C150.54 73.831 150.781 74.7275 150.548 76.7383L149.901 76.5602C149.901 76.5602 149.291 75.2132 149.038 74.9542C147.888 73.7285 145.402 74.0929 145.402 74.0929C145.402 74.0929 144.893 75.9421 148.807 77.9177C149.309 78.1743 151.711 78.895 152.605 79.097C153.734 79.3537 158.598 81.0322 158.443 80.9349C158.458 80.9461 158.485 80.9566 158.514 80.9753C161.129 81.9901 163.788 83.1081 165.845 84.8726C166.469 85.4773 167.04 86.8086 167.346 88.9024C167.541 90.3302 167.773 91.6503 167.849 92.986C166.815 93.8152 163.237 95.1614 163.237 95.1614L163.454 95.591C163.454 95.591 166.415 95.4293 167.676 95.0858C167.751 96.4171 167.415 97.9579 167.23 99.2077C166.056 99.5826 163.19 100.152 163.19 100.152L163.442 100.722L166.942 100.711C166.836 102.036 166.136 103.71 165.803 104.177C164.97 104.56 164.446 104.727 163.27 104.892C162.815 104.949 162.506 105.003 161.947 105.051C162.07 105.272 162.096 105.345 162.174 105.48C163.094 105.604 164.729 105.67 165.286 105.712C164.995 106.538 164.67 106.943 164.329 107.429C163.822 108.139 163.123 108.935 161.973 109.747C159.966 108.97 159.089 106.306 159.045 104.778C158.832 102.233 159.398 96.2061 160.017 94.4707C161.051 92.2063 163.358 90.8084 164.103 90.3384C164.661 88.4684 165.967 86.9186 165.963 86.8595C165.919 86.5272 165.701 86.2413 165.701 86.2413C165.701 86.2413 165.138 86.4224 164.89 86.5197C164.541 86.6843 163.677 86.9051 162.921 87.6991C162.838 87.8068 162.678 87.955 162.565 88.1039C162.406 87.845 161.637 86.5197 161.637 86.5197L156.444 86.6409C156.444 86.6409 155.969 87.5719 155.107 88.047C155.019 87.9415 154.788 87.7343 154.602 87.5853L154.169 87.4858C153.249 87.3234 152.568 87.2995 151.533 87.2755C150.718 87.2755 149.015 87.2643 149.015 87.2643L148.997 87.756C148.997 87.756 150.43 87.9633 151.643 90.6303C152.794 90.8241 153.847 91.1728 154.908 91.5642C156.934 92.668 158.514 94.9646 158.307 97.7394C158.457 102.009 155.882 105.14 152.499 107.353C150.503 108.66 145.481 109.725 141.051 109.416C139.829 109.226 138.704 109.033 137.035 108.49C134.879 107.804 132.262 106.943 129.24 106.797C124.672 106.719 119.717 107.983 117.377 112.08C114.858 116.495 115.892 121.631 115.892 121.631C117.9 120.252 121.047 119.453 123.618 120.244C124.608 120.635 125.34 120.879 126.141 121.343C126.059 120.795 125.276 119.866 124.398 119.218C126.58 118.94 128.495 119.982 130.178 121.04C130.814 121.48 131.171 121.812 131.854 122.449C131.768 119.915 132.825 117.067 134.039 115.734C138.229 111.148 144.068 110.374 151.452 109.345C153.035 109.129 154.827 108.714 156.238 108.015C156.997 108.522 157.559 108.8 158.434 109.178C159.06 109.518 159.725 109.794 160.421 109.996C160.707 112.792 158.574 115.567 157.061 116.918C156.338 117.572 155.218 118.47 153.203 119.251C153.41 118.986 154.287 117.634 154.468 117.375C155.173 116.109 155.686 114.873 155.836 113.429C155.843 112.811 155.75 111.904 155.179 111.437C153.264 110.757 150.82 110.83 148.878 111.353C148.53 112.36 148.479 112.883 147.658 114.371C147.218 115.097 147.109 115.318 146.637 115.885C145.543 117.232 144.075 118.628 142.006 119.815C141.816 119.92 142.136 119.421 142.157 119.178C142.705 117.1 143.282 114.736 143.109 112.562C139.689 112.711 137.202 115.634 135.806 118.163C135.426 118.854 135.078 119.982 135.004 120.975C134.938 122.187 135.31 124.36 136.716 125.221C135.62 126.63 133.991 127.923 132.188 128.533C128.924 129.558 127.655 125.505 125.01 124.771C123.011 124.02 120.057 123.459 117.145 124.64L116.819 124.811C117.065 126.406 117.616 128.045 118.251 129.458L118.661 129.96C121.244 128.223 124.207 129.974 126.395 131.078C131.438 132.344 135.447 128.492 138.609 125.383C138.962 125.083 139.03 124.911 139.528 124.411C140.43 126.271 139.626 128.327 138.563 129.888C137.974 130.757 137.315 131.626 136.561 132.368C136.82 132.663 137.259 132.732 137.62 132.824C139.002 133.129 140.863 132.708 141.59 132.492C144.221 131.458 148.096 128.579 149.873 126.597C150.363 128.724 149.536 131.359 147.903 133.467C149.653 133.61 150.31 133.642 151.279 133.723C151.005 135.164 150.382 136.506 149.678 138.031C148.412 140.255 146.945 142.419 144.982 144.052C144.495 144.447 144.805 144.176 143.953 144.878C144.068 143.825 144.123 143.464 144.033 142.63C142.365 144.139 135.812 148.085 131.48 149.259C131.48 149.259 132.329 147.221 132.612 145.996C129.412 147.736 125.418 149.005 122.872 149.658C123.49 148.559 124.32 146.632 124.32 146.632C122.125 147.462 119.462 148.079 116.996 148.573C117.606 147.318 118.233 145.604 118.399 144.47C116.378 144.84 113.176 145.024 113.176 145.024C113.014 144.304 112.884 143.958 112.639 143.14C112.059 141.677 111.72 141.032 110.902 140.039C109.289 138.349 107.265 137.116 105.088 136.165C103.845 135.621 102.555 135.169 101.261 134.781C99.2228 134.328 96.9913 134.015 94.9379 133.985C94.0803 133.993 93.888 134.02 93.0109 134.12C93.6792 134.309 93.9104 134.328 94.5166 134.503C97.4845 135.291 100.695 136.031 104.415 138.161L102.426 138.333C95.0419 139.129 86.124 142.406 79.6053 145.199C86.3126 146.09 93.329 146.568 100.557 146.568C104.153 146.568 107.694 146.449 111.178 146.219C111.23 146.46 111.274 146.703 111.311 146.929C112.791 146.929 114.754 146.832 116.504 146.706C116.348 147.369 115.578 148.959 115.04 150.19C110.324 150.611 105.486 150.832 100.557 150.832C50.5184 150.832 9.94922 128.282 9.94922 100.466C9.94922 72.6599 50.5169 50.1037 100.557 50.1037C150.594 50.1037 191.158 72.6599 191.158 100.466C191.158 118.608 173.904 134.506 148.022 143.372" fill="#F1B82D"/>
<path d="M14.2969 100.463C14.2969 118.018 32.6504 133.273 59.6614 141.062C64.23 139.907 68.5741 138.504 68.1774 138.417C64.4927 137.562 58.5965 136.053 56.4069 134.995C58.3825 134.901 70.1418 133.686 73.531 132.555C69.4863 131.713 54.3415 126.539 48.1304 123.065C50.8596 123.159 63.2706 123.988 67.7097 123.06L65.8172 122.501C58.7066 120.749 28.6476 107.646 14.5244 97.119C14.3747 98.2258 14.2969 99.3408 14.2969 100.463Z" fill="black"/>
<path d="M108.68 53.993C108.416 53.988 108.188 54.0065 107.989 54.0456C106.277 54.4475 105.988 57.4227 105.887 58.6537C106.02 58.6507 106.149 58.6537 106.276 58.6537C106.276 58.6537 106.439 55.0561 111.006 56.0357L122.544 58.4503L122.59 58.4479L122.345 58.0995C120.607 57.7949 113.951 55.4144 112.186 54.794C110.587 54.2395 109.473 54.0079 108.68 53.993ZM76.583 60.1784C75.9714 60.1497 75.3029 60.2278 74.8759 60.6098C74.1867 61.2497 74.4162 62.6583 74.9647 63.7786C75.2289 64.3054 76.6356 67.0498 79.816 69.4355C83.0024 71.8137 87.619 73.6743 95.6423 75.2877C95.6423 75.2877 93.1283 72.3265 92.9577 72.0698C91.5545 71.7623 85.8204 70.3783 81.5411 67.795C78.7499 66.3163 75.6572 63.5097 75.9146 61.3959C75.9158 61.3128 76.1347 60.3481 77.9457 60.3915C77.7492 60.3429 77.1946 60.2071 76.583 60.1784ZM100.673 68.9009C100.673 68.9009 100.697 69.86 101.906 71.4008C101.893 71.4008 101.884 71.395 101.884 71.395C101.884 71.395 102.102 71.6625 102.409 72.0404C102.409 71.8975 102.408 71.7512 102.406 71.6113C102.549 71.6651 102.694 71.7216 102.801 71.7598V71.7621C102.804 71.7621 102.813 71.7732 102.819 71.7785C102.815 71.7733 102.809 71.7697 102.806 71.7644C102.882 71.7914 102.938 71.8142 102.951 71.8194C105.085 72.454 107.413 72.7692 109.578 73.4224C113.535 74.5883 118.259 73.1339 122.025 74.6642C125.595 76.1781 129.429 77.6465 133.316 78.6912C133.65 78.7316 133.989 78.7479 134.329 78.7718C132.509 77.9674 128.386 76.0922 126.015 74.6023C126.015 74.6023 121.287 71.8354 115.249 71.5084C115.249 71.5084 107.028 71.3435 100.673 68.9009ZM118.047 75.679C118.047 75.679 117.96 75.8264 117.921 76.0345C117.882 76.2365 117.68 77.7623 118.544 80.3186C117.748 80.2214 116.593 79.9049 115.826 79.5726C114.044 78.9463 112.54 78.0483 110.889 77.3171C109.67 77.0043 107.334 76.2671 107.334 76.2671C107.334 76.2671 107.229 76.1533 106.973 76.3396C108.238 78.0884 109.827 79.7352 111.384 81.4107C115.684 83.0952 120.249 84.0505 125.02 84.2474C130.756 84.9059 136.633 84.8419 142.205 86.5473C140.672 87.2029 139.985 87.511 138.646 88.5818C131.662 88.6574 123.67 88.7883 116.66 89.9077C114.086 90.2886 111.643 91.0302 111.61 91.0945C121.831 91.2435 132.275 92.2558 142.214 93.7488C142.214 93.7488 147.096 94.7039 149.294 95.3273L149.192 95.5518C143.312 95.0227 137.385 94.4635 131.54 94.593C127.102 94.6416 122.468 94.7659 118.312 95.4267L118.348 95.4921C126.859 96.1529 135.323 97.4954 143.286 99.5787C145.305 100.259 147.456 100.766 149.408 101.646C149.319 101.738 149.174 101.859 149.078 101.959C143.246 100.169 136.78 100.024 130.598 99.705C128.089 99.7267 125.636 99.5163 123.172 99.9623C123.172 99.9623 137.721 102.672 143.767 105.924C143.709 106.008 143.656 106.078 143.576 106.151C141.172 105.419 139.059 105.088 136.337 104.507C129.603 103.031 120.408 103.277 115.999 109.128C114.679 110.923 112.34 114.844 112.803 121.348C112.803 121.348 106.939 118.095 103.837 111.903C103.837 111.903 103.837 117.276 105.142 120.209C105.142 120.209 103.185 118.909 102.041 116.467C102.041 116.467 104.338 128.615 105.481 131.713C105.481 131.713 94.1772 125.551 86.7106 106.688C86.7106 106.688 86.0596 108.159 86.5423 111.903C86.5423 111.903 78.7291 106.591 75.8034 101.632C77.0823 103.856 84.9851 117.433 90.0684 122.064C90.0684 122.064 68.7715 116.961 60.2932 111.579C60.2932 111.579 61.2655 113.371 63.7133 115.652C63.7133 115.652 52.7877 114.185 47.7344 112.55C47.7344 112.55 61.278 119.22 74.6497 123.295C74.6497 123.295 68.6098 125.103 62.7363 125.913C62.7363 125.913 70.2376 129.66 79.7013 132.269C79.7013 132.269 75.9485 134.87 68.2835 136.342C68.2835 136.342 69.5849 137.311 73.1746 138.291L71.3423 139.098C71.3281 139.092 71.2252 139.146 71.0254 139.244C69.5564 139.865 67.595 140.634 65.9987 141.063L63.113 142.013C63.1863 142.034 63.2689 142.053 63.3445 142.074C66.7233 143.005 73.4158 144.388 79.621 145.2C79.6246 145.2 79.6301 145.198 79.6339 145.198C86.1527 142.404 95.0699 139.128 102.454 138.331L104.444 138.158C100.724 136.029 97.5131 135.289 94.5455 134.501C93.9394 134.326 93.709 134.307 93.0407 134.117C93.917 134.018 94.1089 133.991 94.9665 133.983C97.0206 134.012 99.2525 134.326 101.291 134.779C102.585 135.168 103.875 135.618 105.118 136.164C107.294 137.113 109.318 138.348 110.93 140.037C111.749 141.03 112.089 141.675 112.668 143.138C112.914 143.956 113.043 144.301 113.206 145.022C113.206 145.022 116.406 144.839 118.427 144.469C118.261 145.603 117.635 147.316 117.024 148.571C119.491 148.077 122.155 147.459 124.348 146.631C124.348 146.631 123.519 148.557 122.9 149.656C125.446 149.003 129.44 147.734 132.64 145.994C132.358 147.219 131.508 149.257 131.508 149.257C135.842 148.083 142.393 144.136 144.062 142.628C144.151 143.462 144.097 143.824 143.982 144.877C144.834 144.175 144.525 144.444 145.011 144.05C146.974 142.418 148.441 140.253 149.707 138.029C150.41 136.503 151.034 135.162 151.309 133.721C150.34 133.64 149.682 133.608 147.932 133.465C149.565 131.357 150.392 128.722 149.901 126.595C148.124 128.576 144.251 131.456 141.618 132.489C140.892 132.706 139.03 133.127 137.649 132.823C137.287 132.731 136.85 132.66 136.59 132.366C137.344 131.623 138.004 130.754 138.593 129.885C139.656 128.325 140.459 126.269 139.556 124.41C139.059 124.909 138.992 125.081 138.639 125.38C135.477 128.49 131.466 132.342 126.425 131.076C124.237 129.972 121.274 128.22 118.691 129.958L118.281 129.456C117.646 128.042 117.095 126.404 116.848 124.809L117.175 124.638C120.086 123.455 123.039 124.018 125.039 124.768C127.685 125.502 128.954 129.556 132.217 128.53C134.02 127.92 135.65 126.627 136.746 125.219C135.34 124.358 134.968 122.186 135.034 120.973C135.108 119.98 135.454 118.852 135.836 118.161C137.231 115.632 139.718 112.709 143.138 112.56C143.311 114.733 142.735 117.097 142.186 119.175C142.165 119.418 141.846 119.918 142.035 119.812C144.104 118.625 145.573 117.229 146.667 115.882C147.138 115.315 147.247 115.095 147.688 114.368C148.508 112.881 148.559 112.358 148.906 111.352C150.849 110.828 153.293 110.754 155.208 111.435C155.78 111.901 155.873 112.809 155.865 113.427C155.715 114.87 155.203 116.107 154.497 117.373C154.316 117.632 153.438 118.985 153.231 119.249C155.247 118.469 156.366 117.569 157.091 116.916C158.603 115.564 160.737 112.79 160.45 109.994C159.755 109.791 159.09 109.516 158.463 109.176H158.459C157.584 108.798 157.022 108.52 156.264 108.012C154.852 108.712 153.06 109.128 151.477 109.344C144.093 110.372 138.254 111.146 134.063 115.732C132.85 117.065 131.792 119.913 131.879 122.447C131.195 121.81 130.838 121.478 130.203 121.038C128.52 119.98 126.605 118.939 124.423 119.216C125.301 119.864 126.085 120.792 126.167 121.341C125.365 120.876 124.633 120.633 123.644 120.242C121.072 119.451 117.924 120.251 115.916 121.63C115.916 121.63 114.883 116.493 117.402 112.077C119.742 107.98 124.697 106.717 129.265 106.795C132.288 106.941 134.904 107.802 137.061 108.487C138.729 109.03 139.854 109.225 141.076 109.413C145.505 109.724 150.527 108.658 152.524 107.352C155.907 105.138 158.481 102.007 158.332 97.7379C158.538 94.9631 156.958 92.6664 154.933 91.5621C153.871 91.1707 152.818 90.8224 151.667 90.6279C150.454 87.9615 149.022 87.7538 149.022 87.7538L149.038 87.2627C149.038 87.2627 150.742 87.2732 151.557 87.2732C152.592 87.2979 153.273 87.3213 154.194 87.4837C152.541 85.9047 149.655 83.7834 146.075 83.8859L147.541 82.7447C147.541 82.7447 145.125 81.303 141.017 81.6023L142.375 80.5722C142.375 80.5722 141.327 79.6401 138.247 79.4672C138.121 79.4538 138.008 79.4403 137.898 79.4298C137.38 79.3647 136.795 79.2223 136.096 79.1714V79.1843C135.835 79.6482 135.367 80.0176 135.008 80.4307C134.764 80.644 134.64 80.6447 134.206 80.6552C132.277 80.6799 129.395 80.9256 127.792 80.7557C128.47 79.9326 128.666 79.3374 128.666 79.3374L126.278 78.6747C126.278 78.6747 124.504 80.7096 122.172 81.0554C121.55 80.9154 121.278 80.538 120.974 80.0007C120.748 79.6011 120.573 79.015 120.573 79.015C120.979 78.694 122.216 78.0295 122.421 77.6891L120.001 77.3792C119.849 76.4827 119.92 76.2076 119.92 76.2076C119.221 75.9921 118.781 75.8706 118.047 75.685L118.047 75.679ZM158.38 80.915C159.014 81.3333 159.58 81.7186 160.102 82.0831C160.456 82.339 160.892 82.6531 161.357 82.9928C163.614 84.6825 164.516 85.7376 164.916 86.5181C165.164 86.4209 165.726 86.2399 165.726 86.2399C165.726 86.2399 165.945 86.5261 165.988 86.8584C165.996 86.9175 164.687 88.4669 164.129 90.3369C163.384 90.8069 161.077 92.2047 160.042 94.4691C159.424 96.2045 158.858 102.231 159.071 104.776C159.114 106.304 159.992 108.969 161.999 109.746C163.149 108.934 163.848 108.137 164.355 107.427C164.695 106.941 165.021 106.537 165.311 105.711C164.754 105.668 163.119 105.603 162.2 105.479C162.122 105.344 162.096 105.271 161.974 105.05C162.532 105.001 162.842 104.948 163.297 104.891C164.472 104.726 164.996 104.558 165.829 104.175C166.162 103.708 166.862 102.035 166.968 100.71L163.467 100.72L163.216 100.151C163.216 100.151 166.082 99.5809 167.256 99.206C167.44 97.9562 167.777 96.416 167.701 95.0855C166.44 95.4282 163.479 95.5894 163.479 95.5894L163.263 95.1603C163.263 95.1603 166.841 93.8134 167.875 92.9843C167.799 91.6485 167.567 90.329 167.373 88.9012C167.066 86.8074 166.495 85.4758 165.871 84.8719C163.814 83.1065 161.155 81.989 158.54 80.9736C158.485 80.9549 158.432 80.9367 158.38 80.915Z" fill="white"/>
</g>
<defs>
<clipPath id="clip0_107_19993">
<rect width="200" height="200" fill="white"/>
</clipPath>
</defs>
</svg>
