<svg width="200" height="200" viewBox="0 0 200 200" fill="none" xmlns="http://www.w3.org/2000/svg">
<path d="M11.0273 29.012V54.2521H20.4938V101.574H20.499L20.4938 101.577L36.2692 117.347H58.3544V145.745H48.8861V170.985H105.676V145.745H96.2096V139.431H113.561L124.605 150.477V170.985H184.547L184.549 145.745H184.547H170.35L147.48 122.872L168.773 101.577H184.549L184.547 76.3353L134.068 76.3387V54.2518H143.535V29.0117H86.7467H86.7449V54.2518H86.7467H96.2096V76.3387H58.3508V54.2518H67.8137H67.8191V29.0117H67.8137L11.0273 29.012Z" fill="#0033A0"/>
<path d="M142.752 122.867L167.203 98.416H181.4V79.4849H130.92V51.0926H140.386V32.1641H89.9051V51.0926H99.3724V79.4849H55.2021V51.0926H64.6677V32.1641H14.1875V51.0917H23.6504H23.6538V99.9908L37.8508 114.188H61.5117V148.894H52.0443V167.826H102.526V148.894H93.0598V136.274H115.146L127.766 148.894H127.768V167.826H181.399V148.894H168.781L142.751 122.867H142.752Z" fill="white"/>
<path d="M17.3359 35.3203V47.939H26.8024V98.4156L39.4229 111.036H61.5054V98.4156H52.0407V47.939H61.5054V35.3203H17.3359ZM93.0535 35.3203V47.939H102.515V98.4156H93.0535V111.036H115.14L127.756 98.4156V47.939H137.222V35.3203H93.0535ZM55.1929 82.642V95.2607H64.6594V152.048H55.1929V164.673H99.3651V152.048H89.8995V133.115H116.719L135.643 152.048H130.914V164.673H178.238V152.048H167.192L138.012 122.868L165.613 95.2607H178.238V82.642H130.914V95.2607H135.643L116.719 114.19H89.8995V95.2607H99.3651V82.642H55.1929Z" fill="#0033A0"/>
</svg>
