<svg width="200" height="200" viewBox="0 0 200 200" fill="none" xmlns="http://www.w3.org/2000/svg">
<path d="M69.3479 108.623V69.63H97.6027V108.623L102.398 104.153V51.2241L96.7024 45.9114H70.2492L64.5526 51.2241V104.153L69.3479 108.623ZM94.8621 182.351L69.3479 158.559V137.72H61.8111L36.2969 113.928V41.4465L61.8111 17.6543H105.141L130.655 41.4465V113.928L105.141 137.72H97.603V148.781L103.3 154.094H129.754L135.45 148.781V69.63H163.706V158.559L138.193 182.352H94.8629L94.8621 182.351Z" fill="white"/>
<path d="M105.181 105.33L105.021 105.479L97.9404 112.081L97.7959 112.216H94.8135V72.3818H72.1289V112.216H69.1484L69.0049 112.081L61.9219 105.479L61.7627 105.33V49.9785L61.9219 49.8311L69.0049 43.2266L69.1484 43.0918H97.7969L97.9404 43.2266L105.021 49.8311L105.181 49.9785V105.33ZM138.231 149.959L138.072 150.107L130.99 156.712L130.847 156.846H102.197L102.054 156.712L94.9727 150.107L94.8135 149.959V134.899H104.04L127.866 112.684V42.625L104.04 20.4062H62.9033L39.0781 42.624V112.684L62.9033 134.899H72.1299V157.313L95.9561 179.531H137.092L160.917 157.313V72.3848H138.231V149.959Z" fill="#841617" stroke="white"/>
</svg>
