<svg width="200" height="200" viewBox="0 0 200 200" fill="none" xmlns="http://www.w3.org/2000/svg">
<path d="M199.05 61.6051C197.684 58.6718 194.867 56.5177 191.316 55.6946C189.882 55.3606 189.005 54.0972 187.698 52.0595C186.787 50.6409 185.851 49.1759 184.45 48.0019C182.519 46.3758 180.082 45.5189 177.408 45.5189C175.494 45.5189 173.444 45.9617 171.47 46.8001C170.416 47.2538 169.37 47.8054 168.281 48.4877C167.858 48.341 167.41 48.2111 166.942 48.1098C165.958 47.8981 164.893 47.7885 163.773 47.7885C162.646 47.7885 161.428 47.8939 160.054 48.1149C157.521 48.5164 153.753 50.0227 151.785 50.8585L151.742 50.8391C138.321 45.3266 122.806 41.9404 106.826 41.032C104.293 39.1394 101.852 37.6888 99.7281 36.8251C96.7585 35.614 93.5848 35 90.2989 35C85.2807 35 80.3754 36.465 76.3262 39.1512C72.234 37.3084 67.5245 36.3031 62.8976 36.3031C59.2929 36.3031 55.7658 36.9154 52.7009 38.0767C45.6939 40.7326 40.0422 46.4686 37.3948 53.5422C26.4761 58.8126 17.3733 65.5607 11.014 73.1016C3.80629 81.6554 0 91.3553 0 101.157C0 112.499 5.01996 123.518 14.5192 133.026C23.1388 141.639 35.2702 148.822 49.6073 153.798C64.1888 158.857 80.8292 161.531 97.7369 161.531C133.981 161.531 167.027 149.288 184.034 129.568C184.211 129.398 186.648 126.152 186.648 126.152C189.001 123.037 190.815 119.958 192.198 116.744C196.44 106.87 196.508 95.9974 192.392 86.1051C192.89 85.4456 193.362 84.7464 193.817 84.0202C194.821 82.3916 195.631 80.6812 196.238 78.9396C196.887 77.074 197.309 75.1578 197.486 73.2137C197.663 72.9767 197.84 72.7381 197.992 72.5028C198.439 71.8238 198.827 71.0976 199.131 70.3445C200.32 67.4482 200.286 64.2644 199.046 61.6051H199.05Z" fill="white"/>
<path d="M190.699 58.1557C186.634 57.2153 185.656 52.3581 182.771 49.9359C179.811 47.4419 175.805 47.6789 172.414 49.1245C171.326 49.5909 169.943 50.3264 168.473 51.3654C165.424 49.8169 162.358 50.3407 160.399 50.6106C157.283 51.0382 153.341 52.671 151.785 53.5228C148.774 55.1709 147.939 56.9091 146.24 57.9094C145.596 58.2856 143.603 59.4284 139.671 60.0592C134.25 60.9279 130.419 60.4894 127.783 60.3831C120.034 59.8568 111.851 58.2999 109.074 57.9195C107.67 57.5594 103.522 54.5569 100.283 51.8192C95.4334 47.7186 94.1185 47.5372 91.9299 47.2758C83.7784 46.3101 80.2631 51.9221 80.2488 51.944C80.2488 51.944 76.4281 51.7796 74.2319 51.944C69.562 48.7079 63.7543 47.7827 59.0262 48.8158C56.6309 49.3826 54.4187 50.4934 52.6796 52.2333C52.6459 52.2653 50.7297 54.1107 49.6822 57.0719C49.6417 57.1815 48.331 60.5948 48.9324 64.5579C42.2838 66.1174 39.1725 68.2858 38.513 68.7438C36.8666 69.8857 36.0874 71.7985 35.8453 73.0746C35.4835 75.3501 36.208 77.8196 37.3314 79.9171C34.8889 80.2275 32.4219 80.8482 30.8549 81.5044C29.8049 81.9911 26.244 83.6964 26.7256 88.4979C26.7298 88.5393 26.8639 90.6427 28.5904 95.1448C26.0728 96.4149 23.0315 99.118 22.0827 100.036C19.4833 102.557 19.6773 105.559 19.6925 105.776C19.695 105.783 19.695 105.79 19.6975 105.796C20.3275 110.594 26.7054 115.865 29.0779 117.395C31.872 128.412 42.5461 135.158 49.8686 137.956C50.044 138.022 59.8097 142.118 69.4498 141.203C75.3781 144.991 86.861 144.534 87.825 144.539C93.7052 144.568 100.454 143.191 100.52 143.179C106.876 142.039 107.039 140.798 107.297 139.469C117.278 140.412 125.321 138.266 125.598 138.199C129.512 137.278 130.064 136.362 130.701 135.365C139.019 136.015 145.19 134.795 147.127 134.296C152.069 133.024 154.206 131.149 155.538 129.618C159.987 129.58 161.99 129.647 163.389 130.028C167.48 131.149 172.254 130.152 173.671 129.799C178.031 128.623 182.56 126.058 186.533 121.811C187.789 119.886 188.903 117.882 189.822 115.742C193.803 106.493 193.845 96.1451 189.923 86.871C189.763 86.4813 189.594 86.0984 189.409 85.7155C194.047 80.2343 194.781 74.6206 194.933 72.8182C194.967 72.3923 194.975 72.2473 195.237 71.9175C195.894 71.0715 196.502 69.9852 196.746 69.3839C197.615 67.2492 197.691 64.784 196.713 62.6721C195.582 60.2507 193.246 58.746 190.699 58.1557Z" fill="#003087"/>
<path d="M89.694 39.6077C89.1542 39.6245 88.6212 39.668 88.0881 39.7237C87.9262 39.7414 87.771 39.7645 87.6091 39.7856C87.2312 39.8337 86.8601 39.8894 86.4823 39.9569C86.3069 39.9898 86.1314 40.0261 85.9493 40.0624C85.5849 40.1391 85.2206 40.2262 84.8562 40.3207C84.701 40.3628 84.5458 40.3972 84.3907 40.4419C83.3718 40.732 82.3867 41.0987 81.4354 41.533C81.2869 41.6011 81.1385 41.6767 80.9968 41.7489C80.6729 41.9061 80.3558 42.0687 80.0454 42.2435C79.8768 42.3352 79.7148 42.4284 79.5529 42.5228C79.256 42.7009 78.9659 42.8865 78.6825 43.0801C78.5341 43.1773 78.3856 43.2724 78.2439 43.373C77.8728 43.6368 77.5152 43.9148 77.1711 44.2029C77.1306 44.2359 77.0902 44.2649 77.0497 44.3007H77.0429C76.8203 44.296 76.5909 44.296 76.3682 44.3007C69.9044 40.6409 61.0911 39.7793 54.3061 42.3474C54.3007 42.3514 54.2947 42.3541 54.2906 42.3568C53.8284 42.5323 53.375 42.7266 52.9284 42.9351C52.8993 42.9492 52.8703 42.9654 52.84 42.9776C52.4021 43.1854 51.9736 43.4074 51.5519 43.6415C50.3961 44.2832 49.3037 45.0314 48.2883 45.8701C48.2869 45.8701 48.2876 45.8715 48.2842 45.8715C47.2674 46.7101 46.3269 47.6413 45.4747 48.6493V48.6506C45.2359 48.9306 45.0085 49.2167 44.7838 49.5069C44.7629 49.5359 44.7413 49.5656 44.7197 49.5926C44.5146 49.8638 44.3176 50.1391 44.1266 50.4191C44.0848 50.4758 44.045 50.5358 44.0065 50.5932C43.8338 50.8496 43.6665 51.1107 43.5045 51.3745C43.4472 51.4683 43.3898 51.5627 43.3358 51.6552C43.1928 51.894 43.0558 52.1329 42.9229 52.3744C42.85 52.5114 42.7785 52.6511 42.707 52.7887C42.5977 52.9965 42.4904 53.207 42.3892 53.4182C42.2961 53.6173 42.207 53.8183 42.1193 54.0194C42.0478 54.1813 41.9742 54.3426 41.9061 54.5059C41.7813 54.8135 41.6645 55.1192 41.5525 55.435C41.5276 55.4997 41.5013 55.5672 41.4749 55.636C41.3393 56.0307 41.2125 56.4322 41.0951 56.8397C18.8792 67.0402 4.55078 83.0999 4.55078 101.163C4.55098 101.78 4.57176 102.391 4.60631 103.005C4.61474 103.167 4.62655 103.336 4.63667 103.497C4.6721 104.017 4.71865 104.537 4.77762 105.049C4.79031 105.151 4.79625 105.252 4.81062 105.353C4.88396 105.947 4.97748 106.547 5.08206 107.141C5.10992 107.289 5.14123 107.445 5.16903 107.593C5.2618 108.072 5.36348 108.551 5.47481 109.03C5.50936 109.172 5.53952 109.307 5.57494 109.449C5.72001 110.036 5.8787 110.616 6.05339 111.196C6.0905 111.317 6.13368 111.439 6.17079 111.56C6.32125 112.039 6.48184 112.512 6.65187 112.984C6.70787 113.139 6.76252 113.294 6.8219 113.45C7.03511 114.016 7.25844 114.59 7.50269 115.15C7.5317 115.217 7.56409 115.285 7.59243 115.352C7.81509 115.858 8.05057 116.358 8.29481 116.857C8.37173 117.019 8.45 117.181 8.53097 117.336C8.77994 117.835 9.03903 118.328 9.31229 118.814C9.35008 118.881 9.38449 118.949 9.42295 119.016C9.72995 119.563 10.0545 120.102 10.3878 120.642C10.4829 120.791 10.5801 120.946 10.6746 121.094C10.9532 121.526 11.2386 121.958 11.5328 122.39C11.6151 122.511 11.6961 122.633 11.7804 122.747C12.1468 123.274 12.528 123.793 12.918 124.306C13.0199 124.441 13.1258 124.569 13.2304 124.704C13.5475 125.116 13.8741 125.52 14.2081 125.925C14.3255 126.06 14.4415 126.209 14.5583 126.344C14.9833 126.85 15.4199 127.349 15.8672 127.841C15.9563 127.936 16.0487 128.03 16.1398 128.132C16.5197 128.543 16.909 128.948 17.3064 129.36C17.4481 129.501 17.5911 129.643 17.7342 129.791C18.2011 130.257 18.6754 130.722 19.1653 131.181C19.2084 131.222 19.253 131.262 19.2962 131.303C19.7847 131.762 20.2894 132.207 20.7994 132.652C20.96 132.794 21.1233 132.936 21.2846 133.077C21.7272 133.455 22.1779 133.833 22.6367 134.204C22.7494 134.299 22.86 134.393 22.9768 134.481C23.5314 134.926 24.0975 135.365 24.673 135.803C24.8417 135.925 25.0117 136.053 25.1811 136.181C25.6399 136.518 26.1075 136.862 26.5771 137.193C26.7424 137.308 26.903 137.429 27.0696 137.544C27.6728 137.962 28.2841 138.374 28.9069 138.785C29.0628 138.887 29.222 138.988 29.3812 139.089C29.8825 139.413 30.3906 139.73 30.9075 140.047C31.1031 140.175 31.3015 140.297 31.4978 140.418C32.1489 140.81 32.8068 141.201 33.4768 141.579C33.5848 141.639 33.6961 141.7 33.804 141.761C34.3904 142.092 34.9841 142.422 35.5826 142.739C35.8005 142.861 36.0198 142.975 36.2391 143.09C36.8423 143.414 37.4556 143.724 38.0737 144.035C38.1877 144.089 38.2997 144.149 38.4164 144.203C39.1283 144.561 39.8543 144.905 40.5857 145.243C40.809 145.35 41.0357 145.452 41.2624 145.553C41.846 145.823 42.4364 146.086 43.0315 146.342C43.2238 146.43 43.4175 146.511 43.6098 146.599C44.3587 146.916 45.1171 147.233 45.8829 147.537C46.0995 147.624 46.3215 147.712 46.5394 147.8C47.1446 148.036 47.7519 148.272 48.3659 148.501C48.6 148.589 48.8375 148.677 49.0737 148.765C49.8617 149.055 50.6572 149.338 51.4602 149.615C51.6403 149.675 51.8245 149.736 52.008 149.797C52.6679 150.02 53.3325 150.242 53.9991 150.451C54.2643 150.539 54.5281 150.62 54.794 150.701C55.5733 150.944 56.3559 151.187 57.1487 151.416C57.2635 151.45 57.3761 151.477 57.4902 151.517C58.318 151.754 59.154 151.983 59.9954 152.199C60.2774 152.273 60.5574 152.354 60.8388 152.422C61.6788 152.644 62.5263 152.853 63.3785 153.056C63.4709 153.076 63.5627 153.103 63.6564 153.123C64.8453 153.4 66.0463 153.663 67.2595 153.919C67.4079 153.946 67.5563 153.98 67.7048 154.007C68.8855 154.25 70.073 154.473 71.2741 154.689C71.4832 154.722 71.6856 154.763 71.8881 154.797C73.0621 154.999 74.2496 155.188 75.4438 155.363C75.6732 155.397 75.9094 155.431 76.1388 155.458C77.3263 155.626 78.5273 155.788 79.7283 155.93C79.9645 155.957 80.2006 155.984 80.43 156.011C81.6513 156.146 82.8793 156.267 84.114 156.382C84.3367 156.396 84.5526 156.416 84.7685 156.429C86.037 156.537 87.3055 156.632 88.5874 156.706C88.7628 156.713 88.945 156.72 89.1272 156.733C90.4497 156.807 91.7789 156.868 93.1216 156.902C93.2363 156.908 93.351 156.908 93.4589 156.908C94.8758 156.949 96.2927 156.969 97.7232 156.969C101.866 156.969 105.955 156.807 109.956 156.49C110.003 156.49 110.044 156.49 110.091 156.483C111.845 156.342 113.572 156.173 115.293 155.977C115.57 155.944 115.846 155.917 116.123 155.883C117.013 155.775 117.891 155.66 118.768 155.539C118.869 155.525 118.963 155.512 119.065 155.498C119.881 155.384 120.697 155.262 121.507 155.134C121.669 155.107 121.838 155.08 122 155.06C122.378 154.999 122.762 154.925 123.14 154.864C123.241 154.844 123.342 154.824 123.45 154.81C123.936 154.729 124.415 154.648 124.901 154.56C125.596 154.432 126.277 154.297 126.966 154.162C127.236 154.108 127.505 154.061 127.769 154.007C128.504 153.859 129.226 153.697 129.948 153.535C130.144 153.494 130.332 153.454 130.521 153.413C131.203 153.258 131.871 153.096 132.539 152.941C132.802 152.874 133.065 152.813 133.321 152.752C133.855 152.617 134.374 152.482 134.894 152.341C135.271 152.246 135.649 152.152 136.027 152.05C136.574 151.902 137.113 151.747 137.653 151.592C138.018 151.49 138.382 151.389 138.74 151.281C139.32 151.113 139.893 150.937 140.467 150.755L141.398 150.472C141.931 150.296 142.464 150.121 142.997 149.945C143.321 149.831 143.651 149.729 143.975 149.615C144.434 149.46 144.893 149.291 145.345 149.129C145.716 149.001 146.087 148.873 146.458 148.731C146.931 148.562 147.396 148.38 147.862 148.198C148.24 148.056 148.617 147.914 148.989 147.766C149.454 147.584 149.92 147.388 150.378 147.199C150.729 147.058 151.08 146.916 151.418 146.774C151.465 146.754 151.505 146.734 151.552 146.713L152.625 146.248C153.003 146.079 153.388 145.917 153.759 145.749C154.224 145.539 154.67 145.323 155.129 145.114C155.439 144.966 155.763 144.817 156.073 144.669C156.464 144.48 156.849 144.284 157.234 144.095C157.605 143.907 157.976 143.724 158.34 143.535C158.779 143.32 159.197 143.09 159.622 142.861C159.919 142.706 160.223 142.544 160.52 142.382C160.708 142.28 160.891 142.179 161.073 142.071C161.228 141.984 161.376 141.903 161.532 141.815C161.909 141.606 162.294 141.39 162.665 141.167C162.773 141.106 162.874 141.046 162.976 140.985C163.259 140.816 163.536 140.654 163.812 140.492L164.703 139.946C165.094 139.703 165.479 139.46 165.863 139.21C166.147 139.028 166.43 138.846 166.707 138.671C166.882 138.556 167.051 138.435 167.22 138.32C167.375 138.219 167.523 138.117 167.672 138.016C167.995 137.794 168.326 137.571 168.643 137.348C169.001 137.099 169.352 136.835 169.709 136.579C169.972 136.39 170.229 136.201 170.485 136.019C170.829 135.756 171.167 135.493 171.504 135.23C171.767 135.034 172.017 134.832 172.273 134.636C172.617 134.359 172.948 134.083 173.285 133.806C173.521 133.604 173.764 133.408 173.994 133.212C174.331 132.929 174.648 132.645 174.972 132.362C175.181 132.166 175.411 131.977 175.627 131.782L176.618 130.851C176.895 130.581 177.178 130.318 177.448 130.055C173.697 131.6 168.744 132.72 162.888 131.114C162.868 131.107 162.847 131.107 162.827 131.107V131.1C147.518 142.085 123.997 149.115 97.6219 149.115C51.4831 149.115 14.0779 127.612 14.0779 101.079C14.0799 86.9303 24.7142 74.2159 41.6301 65.4236C41.676 65.3993 41.7199 65.3783 41.7664 65.3514C42.6233 64.9108 43.4944 64.4789 44.381 64.0559C44.5537 63.9743 44.7271 63.8926 44.8998 63.811C45.7675 63.4034 46.646 63.0047 47.5461 62.6181C47.5596 62.6113 47.5738 62.6025 47.5893 62.5985C47.5859 62.5007 47.5819 62.4028 47.5819 62.303C47.5819 55.9876 51.0371 50.4548 56.5084 48.3794C62.0405 46.2776 69.675 47.3302 74.4992 50.7936C76.0308 50.689 78.5206 50.7605 79.6609 50.7996C82.8793 46.5037 89.9234 44.7588 95.4898 47.0286C96.8798 47.592 98.8027 49.1742 101.029 51.0054C101.893 51.7166 102.79 52.4486 103.688 53.1591C116.184 53.6766 127.917 55.773 138.281 59.1034C141.29 58.7188 143.996 57.9625 146.128 56.6549C147.167 55.6792 148.024 54.962 148.712 54.4479C136.007 49.4617 121.143 46.2837 105.152 45.526H105.145V45.5247C105.03 45.4342 104.916 45.3452 104.801 45.2588C104.74 45.2116 104.68 45.165 104.619 45.1191C104.335 44.8938 104.045 44.6772 103.762 44.4667C103.748 44.4586 103.735 44.4525 103.728 44.4444C103.452 44.24 103.175 44.0423 102.898 43.85C102.878 43.8331 102.851 43.819 102.831 43.8021C102.568 43.6219 102.305 43.4404 102.041 43.2711C102.008 43.2468 101.974 43.2252 101.94 43.2029C101.691 43.041 101.441 42.8824 101.198 42.732C101.151 42.7009 101.104 42.6699 101.05 42.6416C100.82 42.5019 100.597 42.3676 100.368 42.2394C100.301 42.2003 100.233 42.1625 100.159 42.1234C99.9565 42.0093 99.7541 41.8967 99.5584 41.7941C99.4572 41.7395 99.356 41.6922 99.248 41.6396C99.0861 41.5573 98.9242 41.4736 98.7622 41.4001C98.4991 41.2759 98.2427 41.1632 97.993 41.0586C96.2253 40.3417 94.3765 39.8976 92.5075 39.7079C91.5697 39.6117 90.6318 39.579 89.694 39.6077ZM187.987 87.2957C186.375 88.8705 183.743 91.2293 181.26 90.9884C180.977 90.9608 180.518 92.7231 180.383 93.0598C180.194 93.5666 180.181 93.7319 180.316 94.2595C180.417 94.6643 180.512 95.0705 180.586 95.4794C180.923 97.1149 181.112 98.7781 181.146 100.449C181.186 102.223 181.051 103.997 180.768 105.745C180.7 106.156 180.62 106.561 180.532 106.966C180.437 107.411 180.7 107.452 180.977 107.769C181.348 108.194 181.625 108.693 181.848 109.219C182.408 110.63 182.542 112.269 182.387 113.781C183.487 113.335 184.924 112.964 186.085 113.403C187.502 113.942 187.293 115.643 187.144 116.864C189.539 111.979 190.896 106.615 190.896 101.163C190.896 96.397 189.856 91.674 187.987 87.2957ZM111.636 93.4633C111.548 93.4593 111.474 93.4674 111.44 93.4923C111.103 95.1859 110.334 96.8194 109.43 98.2822C108.316 100.084 106.737 102.155 104.74 103.012C103.303 103.626 101.421 103.241 101.083 101.513C100.901 100.58 101.313 99.6087 101.252 98.654C101.191 97.7687 100.955 96.7647 100.307 96.115C99.9497 96.0475 99.1333 96.5232 98.7825 96.6433C98.3911 96.7796 98.0943 98.4117 97.8986 98.853C97.1092 100.609 95.9284 102.169 94.5047 103.464C93.4049 104.469 92.15 105.353 90.7735 105.94C89.5658 106.453 87.4067 106.642 86.7994 105.11C86.4081 104.119 87.157 103.133 87.4539 102.229C87.771 101.244 87.9329 100.207 87.9464 99.1748C87.9464 98.9157 88.0611 97.9273 87.852 97.7174C87.3594 97.2067 86.2326 98.8058 85.929 99.0865C84.3097 100.59 82.4744 101.872 80.4975 102.85C78.9794 103.599 76.908 104.598 75.1807 104.139C74.452 103.936 73.838 103.43 73.6626 102.681C73.4534 101.799 73.8987 101.06 74.2698 100.3C74.9513 98.8989 75.5248 97.3315 75.6193 95.7574C75.6665 95.0172 72.1984 94.3155 71.5642 94.1698C71.463 94.1488 70.4374 93.8506 70.3834 93.9363C70.1608 94.2662 69.9651 94.6144 69.7829 94.9639C68.8923 96.6237 68.1636 98.5163 68.1771 100.424C68.1838 101.289 68.2378 102.061 67.4889 102.654C66.8411 103.174 65.9572 103.282 65.1577 103.187C61.6228 102.762 58.82 98.8611 57.8646 95.6771C51.8981 98.5683 51.8016 106.939 52.9149 112.512C53.5005 112.397 54.8075 112.127 54.8075 112.127C54.8216 111.284 55.0868 110.373 55.1988 110.043C55.8627 108.052 56.9888 105.988 58.4982 104.503C59.9131 103.12 62.8232 102.283 63.5627 104.793C64.1928 106.932 64.1901 109.206 65.9707 110.819C66.1306 109.921 66.4107 109.037 66.7602 108.194C67.4214 106.602 68.5279 104.672 70.2552 104.058C71.7733 103.518 73.4467 104.361 73.4669 106.082C73.4804 107.242 73.3927 108.268 73.7098 109.422C74.0134 110.508 74.479 111.54 75.0188 112.526C75.3291 113.092 75.6597 113.646 76.0173 114.179C76.3142 114.637 76.4222 115.143 76.9957 114.901C77.7784 114.577 78.4194 113.969 78.8849 113.275C79.3707 112.539 79.7013 111.682 79.816 110.805C79.924 109.962 79.7688 109.118 80.0387 108.295C80.5447 106.784 82.0494 106.831 83.2774 107.425C87.0086 109.24 87.5416 113.727 88.1489 117.37C91.0029 116.324 92.6088 113.49 93.4454 110.724C93.8233 109.449 94.0729 108.133 94.2011 106.811C94.3091 105.691 94.2483 104.078 95.5371 103.599C96.8528 103.106 98.4316 104.071 99.4707 104.787C100.692 105.616 101.792 106.622 102.817 107.681C103.067 107.937 103.317 108.201 103.56 108.47C103.6 108.518 104.936 107.85 105.098 107.782C106.123 107.371 107.358 107.189 108.222 106.473C109.619 105.32 110.462 103.586 110.82 101.83C111.083 100.505 110.529 98.6776 111.703 97.7208C113.188 96.5009 115.252 97.8092 116.501 98.7606C118.187 100.045 119.625 101.679 120.839 103.41C121.521 104.368 122.135 105.374 122.668 106.419C122.904 106.885 123.12 107.357 123.322 107.843C123.471 108.187 123.605 109.071 123.99 108.963C125.933 108.417 127.6 106.925 128.754 105.306C129.28 104.55 129.752 103.714 129.975 102.81C130.171 102.027 130.528 101.189 131.237 100.733C132.498 99.9184 134.064 100.843 134.954 101.792C136.189 103.106 136.736 105.272 137.194 106.959C137.815 109.253 138.233 111.682 138.132 114.071C140.797 113.517 143.321 112.195 145.52 110.616C147.572 109.145 149.056 107.458 150.399 105.353C145.568 103.579 141.108 101.055 136.358 99.0905C132.127 97.3369 127.607 95.3977 123.039 94.7325C122.485 94.6515 122.364 94.7001 121.885 95.0496C121.433 95.3762 120.961 95.6845 120.468 95.951C119.793 96.3235 119.038 96.6399 118.262 96.7054C117.196 96.7931 116.292 96.2742 115.819 95.3242C115.617 94.9045 115.489 94.443 115.435 93.9808C115.408 93.7649 114.726 93.8142 114.53 93.7939C113.849 93.7292 113.161 93.6603 112.473 93.5935C112.351 93.5821 111.906 93.4741 111.636 93.4633ZM155.871 107.189C156.343 109.489 156.37 111.925 156.181 114.26C158.603 113.079 160.702 111.014 162.382 108.943C160.189 108.437 158.023 107.843 155.871 107.189Z" fill="#FA4616"/>
<path d="M90.8614 50.1498C88.3784 50.1053 86.0573 51.1659 84.1681 52.7252C86.4015 53.1739 88.601 53.7906 90.6859 54.7123C91.806 55.2048 92.8855 55.7743 93.9314 56.3937C94.4104 56.6784 94.6196 56.6912 95.1593 56.6824C95.5507 56.6784 95.942 56.6851 96.3334 56.6986C99.0188 56.787 101.697 57.0994 104.356 57.4827C103.283 57.3045 102.203 56.4456 101.333 55.8539C99.9566 54.9167 98.6342 53.8999 97.3657 52.8224C95.5439 51.2752 93.2836 50.193 90.8614 50.1498ZM177.988 51.2266C175.647 51.1868 173.103 52.3561 171.322 53.6017C172.51 54.4471 173.387 55.8235 174.304 56.9328C175.303 58.1291 176.349 59.3746 177.739 60.1141C179.338 60.9615 180.809 59.7464 182.435 60.0534C183.386 60.2349 183.001 60.8239 182.839 61.4831C182.732 61.9061 183.447 62.1895 183.582 62.6045C184.054 64.0518 179.911 62.7705 179.365 62.5876C177.509 61.9655 175.775 61.0337 174.169 59.9204C172.719 58.9117 171.491 57.7175 170.242 56.478C169.406 55.6575 168.515 54.8749 167.442 54.3924C164.156 52.9215 159.858 53.7811 156.667 55.0685C153.489 56.3518 150.095 58.2154 147.693 60.7072C146.431 62.0128 145.271 63.3501 143.827 64.4721C142.943 65.163 141.992 65.7844 140.98 66.2763C140.217 66.6467 138.983 67.2965 138.105 67.1616C137.154 67.0097 138.166 66.3451 138.483 66.163C139.037 65.8492 139.549 65.4646 140.062 65.0834C141.256 64.186 142.687 63.1537 143.469 61.8508C140.986 62.813 138.065 62.9088 135.44 63.0424C132.006 63.2192 128.538 63.1901 125.11 62.8541C121.892 62.537 118.707 61.8393 115.516 61.3347C110.867 60.5999 106.191 60.0014 101.488 59.6742C98.9985 59.4994 96.4885 59.5743 93.9988 59.4036C92.1838 59.2788 90.5847 57.9476 88.8979 57.3174C85.4299 56.0273 81.476 55.1495 77.7583 55.2487C78.8918 57.4476 81.1656 59.1222 83.1156 60.5479C83.9792 61.1788 84.8631 61.782 85.774 62.3481C86.2058 62.6166 87.8184 63.3177 87.4675 63.9661C87.0087 64.8135 84.9845 63.6867 84.4785 63.4418C83.183 62.813 81.9685 62.0215 80.808 61.1673C78.433 59.4238 76.2874 57.401 74.0338 55.5017C71.0853 53.0093 67.8129 51.5235 63.8887 51.5195C60.2971 51.5114 55.9614 52.7535 53.8927 55.9274C51.9569 58.8969 51.911 63.041 52.9109 66.3418C53.1545 67.1474 53.4797 67.9334 53.9116 68.6588C54.141 69.0427 54.811 69.9036 54.5573 70.4009C54.1491 71.1964 51.7086 68.7863 51.3625 68.4469C49.8976 70.9285 48.5306 73.7617 48.7769 76.7237C48.8957 78.1616 49.4166 79.5285 50.2067 80.7262C50.4421 81.0817 51.9434 82.7173 51.4353 83.2402C50.9569 83.7307 49.4989 82.4724 49.1818 82.2085C48.8356 81.9218 47.6852 80.4651 47.3027 80.6864C45.4796 81.7241 43.782 82.9804 42.2449 84.4095C36.4592 89.7803 33.1638 97.3311 32.0883 105.067C31.5263 109.102 31.3387 113.312 32.535 117.246C33.5977 120.747 35.6043 123.898 38.1224 126.543C43.6544 132.346 51.409 135.868 59.1757 137.46C63.0048 138.25 66.767 138.405 70.6399 137.892C74.7962 137.352 78.8851 136.273 82.8254 134.849C86.4082 133.554 89.9505 131.961 93.1149 129.836C93.7829 129.384 94.4172 128.756 95.1459 128.426C96.0567 128.014 97.1363 127.994 98.1214 128.014C99.7137 128.055 101.299 128.149 102.892 128.169C110.745 128.264 118.64 127.953 126.466 127.272C128.113 127.13 129.766 126.962 131.405 126.752C133.517 126.476 135.487 126.536 137.586 126.82C141.385 127.319 145.257 127.339 149.083 127.339C152.268 127.339 155.48 127.164 158.664 127.292C160.776 127.38 162.881 127.589 164.993 127.731C166.795 127.852 168.657 128.001 170.458 127.724C174.264 127.123 178.042 125.2 180.95 122.711C182.286 121.577 183.534 120.214 184.229 118.588C184.526 117.907 185.397 115.35 183.926 115.397C183.103 115.424 182.327 115.957 181.591 116.294C180.91 116.605 180.208 116.881 179.5 117.131C177.874 117.711 176.193 118.163 174.507 118.534C170.668 119.371 166.754 119.816 162.841 120.046C155.453 120.491 147.821 120.342 140.534 118.953C136.952 118.264 133.517 116.746 130.191 115.309C126.946 113.906 123.768 112.313 120.482 111.018C116.46 109.432 111.656 109.419 107.514 110.539C104.437 111.375 101.63 113.143 98.8906 114.715C95.7261 116.517 92.5887 118.399 89.3702 120.1C88.149 120.741 86.9142 121.395 85.612 121.847C83.3045 122.65 80.8148 122.65 78.4802 121.942C75.0661 120.896 72.7451 118.386 69.7763 116.584C66.1443 114.378 61.8915 114.054 57.7555 114.688C55.9033 114.978 54.0607 115.498 52.417 116.409C50.7694 117.32 49.6507 118.723 48.25 119.944C46.8971 121.132 44.4013 122.738 43.2327 120.417C42.8468 119.654 43.0222 118.723 42.811 117.9C42.6167 117.138 42.2085 116.449 41.8637 115.741C40.0588 112.077 39.1432 107.941 40.8031 104.034C41.6026 102.152 42.7024 100.389 43.8933 98.7298C44.487 97.9053 45.1125 97.101 45.8 96.3527C46.1482 95.9783 46.9005 95.0714 47.5186 95.3724C48.2506 95.7225 46.0268 98.9383 45.7501 99.4443C44.9317 100.952 44.1234 102.469 43.4122 104.034C41.5129 108.204 44.288 112.921 46.074 116.638C46.8567 115.964 47.6495 115.289 48.449 114.628C49.0063 114.169 49.567 113.71 50.1439 113.278C50.5123 113.002 50.2964 112.732 50.2019 112.307C50.1048 111.875 50.0164 111.443 49.9381 111.011C49.372 107.84 49.3592 104.534 50.233 101.419C51.7363 96.0606 55.8912 91.9482 61.2687 90.511C64.7193 89.588 68.1165 89.9172 71.5576 90.6756C73.6087 91.1243 75.6396 91.6837 77.6368 92.3503C79.607 93.0075 81.4827 93.8057 83.5339 94.1903C85.9561 94.6457 88.4526 94.7449 90.9154 94.5816C92.9193 94.448 95.0379 94.2442 96.9474 93.5776C99.7947 92.5837 102.453 90.9293 105.017 89.368C107.905 87.6124 110.725 85.7535 113.546 83.894C116.285 82.0884 118.896 80.3632 122.222 79.8288C126.466 79.1473 130.373 80.4853 134.381 81.6789C138.787 82.9872 143.449 84.3737 148.091 83.7172C150.918 83.3171 153.381 82.2065 155.905 80.9279C158.948 79.3868 161.943 77.754 164.966 76.1833C167.395 74.9236 169.871 73.5222 172.483 72.6821C174.331 72.0931 176.335 72.0398 178.251 72.0614C180.579 72.087 182.9 72.3043 185.201 72.6228C188.602 73.0971 192.184 70.0527 193.493 67.1197C195.119 63.4357 191.611 61.0573 188.703 59.6634C186.753 58.7282 185.059 57.787 183.737 56.0023C183.001 55.0004 182.637 53.7724 181.78 52.8487C180.728 51.7097 179.392 51.2509 177.988 51.2266ZM47.7466 67.7614C45.155 68.4773 42.2524 69.542 40.1061 71.2166C36.7939 73.784 39.7633 78.6332 41.5223 81.1425C42.4555 80.4003 43.3191 79.5555 44.2171 78.7674C44.3602 78.644 45.0504 78.2081 45.0585 78.0165C45.0794 77.528 45.099 77.0381 45.1213 76.551C45.178 75.2737 45.2738 74.1962 45.6435 72.9547C46.1698 71.1789 46.8256 69.3753 47.7466 67.7614ZM39.7579 82.641C37.2851 82.7301 34.6921 83.1727 32.3704 84.0485C30.3577 84.8089 29.3105 86.4492 29.6924 88.6157C30.0642 90.6729 30.7591 92.7369 31.5688 94.6605C33.402 90.123 36.1515 85.9593 39.7579 82.641ZM30.5797 97.4094C29.0986 98.1171 27.7357 99.1265 26.4456 100.13C25.2149 101.088 23.8844 102.111 23.1361 103.508C22.1193 105.418 22.9384 107.044 24.1232 108.609C25.3722 110.249 26.8356 111.78 28.4813 113.028C28.4651 112.698 28.4604 112.361 28.4604 112.03C28.4604 107.091 29.0784 102.125 30.5797 97.4094ZM134.325 129.04C133.947 129.053 133.556 129.168 133.191 129.222C132.112 129.384 131.026 129.525 129.939 129.647C129.197 129.728 128.07 129.647 127.537 130.301C127.078 130.868 127.645 131.496 128.165 131.739C132.22 133.661 137.139 133.769 141.524 133.304C145.107 132.926 149.587 132.177 152.401 129.694C147.138 129.809 141.794 130.025 136.558 129.364C135.938 129.283 135.317 129.188 134.696 129.067C134.575 129.04 134.453 129.033 134.325 129.04ZM122.848 130.301C122.565 130.308 122.288 130.342 121.991 130.362C120.952 130.436 119.913 130.504 118.867 130.565C116.539 130.713 114.211 130.828 111.877 130.915C107.451 131.084 103.011 131.212 98.5849 131.023C98.0249 131.003 97.3704 130.76 97.0735 131.313C96.9251 131.583 96.8644 131.887 96.8981 132.197C96.9791 133.054 97.6875 133.729 98.3488 134.208C99.9883 135.396 102.242 136.138 104.212 136.603C108.395 137.588 112.842 137.561 117.106 137.211C120.257 136.954 123.489 136.522 126.505 135.544C127.267 135.301 129.393 134.741 128.448 133.695C127.504 132.663 126.518 131.712 125.27 131.044C124.764 130.774 124.238 130.558 123.691 130.403C123.401 130.322 123.125 130.301 122.848 130.301ZM91.723 135.348C90.7716 135.321 89.8945 135.436 88.9634 135.854C87.3103 136.59 85.6167 137.244 83.9097 137.831C80.4889 139.005 76.9668 139.923 73.411 140.598C78.215 142.507 83.9637 142.521 89.0511 142.298C91.8377 142.176 94.6175 141.9 97.3637 141.441C98.7738 141.205 100.177 140.922 101.56 140.591C102.498 140.355 104.077 140.213 104.826 139.572C105.602 138.931 103.612 138.432 103.166 138.27C102.222 137.926 101.277 137.582 100.319 137.258C97.8562 136.435 95.3058 135.672 92.7013 135.416C92.364 135.375 92.0401 135.355 91.723 135.348Z" fill="#046A38"/>
<path d="M90.1549 37.5358C85.2766 37.5621 80.4254 39.1237 76.5525 42.0886C69.5354 38.4554 60.5461 37.8079 53.5796 40.4494C46.9275 42.9705 41.6424 48.5461 39.4117 55.381C28.4023 60.5541 19.2416 67.246 12.9289 74.7388C6.11015 82.828 2.50781 91.9685 2.50781 101.164C2.50768 111.824 7.27203 122.222 16.2883 131.236C24.6387 139.589 36.443 146.566 50.4185 151.417C64.7368 156.383 81.0934 159.008 97.7185 159.008C134.417 159.008 166.324 146.323 182.214 127.795C182.45 127.505 182.653 127.235 182.794 127.039C182.821 127.005 182.841 126.972 182.862 126.945C182.558 127.194 182.261 127.431 181.985 127.626C180.365 128.793 179.117 129.212 177.464 130.042C177.241 130.258 177.086 130.399 177.059 130.426C176.897 130.581 176.728 130.737 176.56 130.899C176.256 131.182 175.959 131.472 175.649 131.749C175.642 131.762 175.635 131.769 175.622 131.782C175.406 131.978 175.177 132.167 174.967 132.363C174.947 132.369 174.94 132.383 174.927 132.396C174.623 132.666 174.326 132.93 174.003 133.199C174.003 133.206 173.996 133.206 173.989 133.213C173.76 133.409 173.517 133.604 173.281 133.807C173.26 133.82 173.24 133.84 173.22 133.854C172.91 134.11 172.606 134.36 172.296 134.61L172.269 134.637C172.012 134.839 171.763 135.035 171.499 135.23C171.486 135.244 171.459 135.264 171.439 135.278C171.128 135.52 170.825 135.757 170.508 135.993C170.494 136 170.487 136.006 170.481 136.02C170.224 136.209 169.968 136.391 169.705 136.58C169.664 136.607 169.63 136.64 169.583 136.667C169.273 136.89 168.969 137.12 168.652 137.342C168.652 137.349 168.639 137.349 168.639 137.349C168.173 137.68 167.694 137.997 167.215 138.321C167.053 138.435 166.891 138.543 166.722 138.658C166.716 138.658 166.709 138.665 166.702 138.671C166.425 138.854 166.142 139.029 165.859 139.211C165.798 139.245 165.744 139.285 165.69 139.326C165.366 139.528 165.049 139.731 164.725 139.933C164.718 139.94 164.705 139.947 164.698 139.947C164.408 140.129 164.104 140.311 163.808 140.493C163.747 140.527 163.693 140.561 163.639 140.594C163.416 140.723 163.194 140.851 162.971 140.986C162.35 141.35 161.716 141.714 161.068 142.072C160.893 142.173 160.717 142.274 160.535 142.376C160.528 142.376 160.522 142.382 160.515 142.382C160.218 142.544 159.914 142.706 159.618 142.861L159.354 143.003C159.017 143.179 158.686 143.361 158.342 143.536H158.336C157.971 143.725 157.6 143.907 157.229 144.096C157.195 144.11 157.155 144.13 157.121 144.15C156.777 144.319 156.44 144.488 156.095 144.656C156.089 144.663 156.075 144.663 156.068 144.67C155.758 144.818 155.434 144.967 155.124 145.115C155.029 145.155 154.928 145.203 154.834 145.25C154.483 145.412 154.139 145.574 153.781 145.736C153.774 145.743 153.768 145.743 153.754 145.749C153.383 145.918 152.999 146.08 152.621 146.249C152.58 146.269 152.533 146.282 152.499 146.303C152.182 146.437 151.865 146.579 151.548 146.714C151.157 146.883 150.765 147.038 150.374 147.2C150.279 147.24 150.192 147.274 150.097 147.315C149.733 147.463 149.362 147.618 148.991 147.767H148.984C148.613 147.915 148.235 148.057 147.857 148.198L147.655 148.279C147.277 148.421 146.892 148.57 146.508 148.711C146.494 148.718 146.474 148.725 146.454 148.732C146.089 148.873 145.712 149.001 145.34 149.13C145.28 149.157 145.219 149.177 145.158 149.197C144.767 149.339 144.376 149.48 143.977 149.615H143.971C143.647 149.73 143.316 149.831 142.992 149.946L142.608 150.067C142.203 150.202 141.805 150.337 141.393 150.472L140.462 150.756C140.307 150.803 140.159 150.85 140.003 150.897C139.592 151.019 139.18 151.154 138.769 151.275C138.755 151.282 138.748 151.282 138.735 151.282C138.377 151.39 138.013 151.491 137.649 151.592C137.554 151.619 137.46 151.646 137.365 151.673C136.94 151.795 136.515 151.916 136.09 152.031C136.07 152.038 136.043 152.044 136.022 152.051C135.651 152.152 135.267 152.247 134.889 152.341C134.821 152.362 134.747 152.382 134.673 152.402C134.234 152.517 133.803 152.631 133.364 152.739C133.351 152.739 133.337 152.746 133.317 152.753C133.06 152.814 132.797 152.874 132.534 152.942C132.332 152.989 132.136 153.029 131.934 153.083C131.488 153.185 131.043 153.299 130.591 153.394C130.571 153.401 130.544 153.407 130.517 153.414C130.328 153.455 130.139 153.495 129.943 153.536C129.68 153.596 129.417 153.65 129.154 153.711C128.695 153.805 128.243 153.907 127.784 154.001C127.777 154.001 127.771 154.001 127.764 154.008C127.501 154.062 127.231 154.109 126.961 154.163L126.313 154.284C125.854 154.372 125.396 154.467 124.937 154.554C124.923 154.554 124.91 154.554 124.896 154.561C124.309 154.669 123.722 154.764 123.135 154.865C122.771 154.925 122.413 154.993 122.042 155.054C122.029 155.054 122.009 155.054 121.995 155.06C121.833 155.081 121.664 155.108 121.502 155.135C121.179 155.182 120.855 155.229 120.531 155.283C120.059 155.351 119.593 155.425 119.114 155.492C119.1 155.492 119.08 155.499 119.06 155.499C118.959 155.512 118.864 155.526 118.763 155.539C118.372 155.593 117.98 155.641 117.589 155.695C117.11 155.755 116.638 155.823 116.152 155.877C116.145 155.884 116.132 155.884 116.118 155.884C115.842 155.917 115.565 155.944 115.288 155.978C115.045 155.998 114.809 156.025 114.566 156.052C114.101 156.106 113.628 156.16 113.156 156.207C112.603 156.268 112.05 156.309 111.496 156.356C111.038 156.403 110.585 156.444 110.133 156.484H110.086C110.039 156.491 109.998 156.491 109.951 156.491C109.432 156.531 108.912 156.565 108.393 156.606C107.947 156.633 107.515 156.666 107.07 156.693C106.449 156.734 105.822 156.761 105.194 156.788C104.79 156.808 104.385 156.835 103.98 156.848C103.258 156.882 102.536 156.896 101.807 156.916C101.497 156.923 101.18 156.936 100.863 156.943C99.8169 156.963 98.7711 156.97 97.7185 156.97C96.2881 156.97 94.8712 156.95 93.4543 156.909C93.3463 156.909 93.2316 156.909 93.1169 156.902C91.7742 156.869 90.445 156.808 89.1226 156.734C88.9404 156.72 88.7582 156.713 88.5828 156.707C87.3008 156.633 86.0323 156.538 84.7639 156.43C84.5479 156.417 84.332 156.396 84.1094 156.383C82.8746 156.268 81.6466 156.147 80.4254 156.012C80.196 155.985 79.9598 155.958 79.7237 155.931C78.5227 155.789 77.3217 155.634 76.1342 155.458C75.9048 155.432 75.6686 155.398 75.4392 155.364C74.2449 155.189 73.0574 155 71.8834 154.797C71.681 154.764 71.4786 154.723 71.2694 154.689C70.0684 154.473 68.8809 154.251 67.7001 154.008C67.5517 153.981 67.4033 153.947 67.2548 153.92C66.0417 153.664 64.8407 153.401 63.6518 153.124C63.6187 153.117 63.5843 153.11 63.5513 153.104C63.4932 153.083 63.4339 153.07 63.3738 153.056C62.5216 152.854 61.6742 152.645 60.8342 152.422C60.5528 152.355 60.2728 152.274 59.9908 152.2C59.1494 151.977 58.3134 151.754 57.4855 151.518C57.4322 151.498 57.3769 151.484 57.3249 151.464C57.2635 151.451 57.2048 151.43 57.1441 151.417C56.3513 151.188 55.5686 150.945 54.7893 150.702C54.5235 150.621 54.2597 150.54 53.9945 150.452C53.3279 150.243 52.6633 150.02 52.0034 149.798C51.8199 149.737 51.6357 149.676 51.4555 149.615C50.6526 149.339 49.8571 149.055 49.069 148.765C48.8329 148.678 48.5954 148.59 48.3613 148.502C47.7473 148.273 47.14 148.037 46.5348 147.8C46.3168 147.713 46.0949 147.625 45.8783 147.537C45.1125 147.234 44.3541 146.917 43.6051 146.599C43.4128 146.512 43.2192 146.431 43.0269 146.343C42.4318 146.087 41.8414 145.823 41.2578 145.554C41.0311 145.452 40.8044 145.351 40.581 145.243C39.8496 144.906 39.1236 144.562 38.4118 144.204C38.2951 144.15 38.1831 144.089 38.069 144.035C37.451 143.725 36.8377 143.415 36.2345 143.091C36.0152 142.976 35.7959 142.861 35.578 142.74C34.9795 142.423 34.3857 142.092 33.7994 141.762C33.6914 141.701 33.5801 141.64 33.4722 141.579C32.8022 141.202 32.1443 140.81 31.4932 140.419C31.2969 140.297 31.0985 140.176 30.9028 140.048C30.386 139.731 29.8779 139.414 29.3766 139.09C29.2174 138.989 29.0581 138.887 28.9023 138.786C28.2795 138.375 27.6682 137.963 27.065 137.545C26.8983 137.43 26.7378 137.308 26.5725 137.194C26.1028 136.863 25.6353 136.519 25.1765 136.182C25.0071 136.053 24.8371 135.925 24.6684 135.804C24.0928 135.365 23.5268 134.927 22.9721 134.481C22.8554 134.394 22.7448 134.299 22.6321 134.205C22.1733 133.834 21.7225 133.456 21.2799 133.078C21.1187 132.936 20.9554 132.795 20.7948 132.653C20.2847 132.208 19.78 131.762 19.2915 131.303C19.2483 131.263 19.2038 131.222 19.1606 131.182C18.6708 130.723 18.1965 130.258 17.7295 129.792C17.5865 129.644 17.4435 129.502 17.3018 129.36C16.9044 128.949 16.515 128.544 16.1352 128.132C16.0441 128.031 15.9516 127.937 15.8626 127.842C15.4152 127.35 14.9787 126.85 14.5536 126.344C14.4369 126.209 14.3208 126.061 14.2034 125.926C13.8695 125.521 13.5429 125.116 13.2258 124.705C13.1212 124.57 13.0153 124.442 12.9134 124.307C12.5234 123.794 12.1422 123.274 11.7758 122.748C11.6915 122.633 11.6105 122.512 11.5282 122.39C11.234 121.959 10.9486 121.527 10.6699 121.095C10.5755 120.946 10.4783 120.791 10.3832 120.643C10.0499 120.103 9.72532 119.563 9.41832 119.017C9.37986 118.949 9.34545 118.882 9.30766 118.814C9.0344 118.329 8.77531 117.836 8.52633 117.337C8.44537 117.182 8.3671 117.02 8.29018 116.858C8.04593 116.358 7.81045 115.859 7.5878 115.353C7.55946 115.286 7.52707 115.218 7.49806 115.151C7.25381 114.591 7.03047 114.017 6.81726 113.45C6.75789 113.295 6.70323 113.14 6.64723 112.985C6.4772 112.512 6.31662 112.04 6.16616 111.561C6.12905 111.44 6.08586 111.318 6.04875 111.197C5.87407 110.616 5.71537 110.036 5.57031 109.449C5.53489 109.308 5.50473 109.173 5.47018 109.031C5.35885 108.552 5.25717 108.073 5.1644 107.594C5.1366 107.445 5.10529 107.29 5.07742 107.142C4.97284 106.548 4.87933 105.947 4.80598 105.354C4.79161 105.252 4.78567 105.151 4.77299 105.05C4.71402 104.537 4.66746 104.018 4.63204 103.498C4.62192 103.336 4.61011 103.168 4.60168 103.006C4.56713 102.392 4.54635 101.78 4.54635 101.164V101.161C4.54635 83.1006 18.8741 67.0409 41.0893 56.8404C41.2033 56.4329 41.3329 56.0315 41.4705 55.6367C41.4968 55.5679 41.5231 55.5004 41.5481 55.4357C41.6601 55.1199 41.7768 54.8143 41.9017 54.5066C41.9664 54.3433 42.0434 54.182 42.1149 54.0201C42.2026 53.819 42.2917 53.618 42.3848 53.4189C42.486 53.2077 42.5946 52.9972 42.7026 52.7894C42.7741 52.6518 42.8456 52.5121 42.9185 52.3751C43.0514 52.1336 43.1884 51.8947 43.3314 51.6559C43.3854 51.5634 43.4427 51.469 43.5001 51.3752C43.662 51.1114 43.8293 50.853 44.0021 50.5939C44.0405 50.5365 44.0803 50.4765 44.1222 50.4198C44.3131 50.1398 44.5101 49.8645 44.7153 49.5933C44.7368 49.5663 44.7584 49.5366 44.7794 49.5076C45.004 49.2174 45.2314 48.9314 45.4676 48.6513L45.4703 48.65C46.3224 47.6393 47.263 46.7108 48.2798 45.8722C48.2832 45.8722 48.2825 45.8708 48.2839 45.8708C49.6718 44.7265 51.198 43.7475 52.8355 42.9783C52.8659 42.9661 52.8949 42.9499 52.9239 42.9358C53.3713 42.73 53.824 42.533 54.2862 42.3575C54.2902 42.3548 54.295 42.3521 54.2997 42.3481C61.086 39.78 69.8999 40.6408 76.3638 44.3014C76.5864 44.2967 76.8158 44.2967 77.0385 44.3014C77.079 44.2656 77.1262 44.238 77.1667 44.2036C77.5108 43.9155 77.8684 43.6375 78.2395 43.3737C78.3812 43.2731 78.5296 43.178 78.6781 43.0808C78.9614 42.8872 79.2516 42.7016 79.5485 42.5235C79.7104 42.4291 79.8723 42.3359 80.041 42.2442C80.3514 42.0694 80.6685 41.9068 80.9924 41.7496C81.1341 41.6774 81.2825 41.6018 81.4309 41.5337C82.3823 41.0985 83.3674 40.7335 84.3862 40.4426C84.5414 40.3979 84.6966 40.3635 84.8518 40.3214C85.2161 40.2269 85.5805 40.1398 85.9448 40.0631C86.127 40.0268 86.3024 39.9905 86.4779 39.9576C86.8557 39.8901 87.2268 39.8352 87.6046 39.7863C87.7666 39.7653 87.9218 39.7421 88.0837 39.7244C91.4033 39.3744 94.8377 39.7773 97.9886 41.0593C98.2383 41.164 98.4947 41.2766 98.7578 41.4008C98.9197 41.4743 99.0817 41.558 99.2436 41.6403C99.3516 41.6929 99.4528 41.7402 99.554 41.7948C99.7496 41.8974 99.952 42.0101 100.154 42.1241C100.229 42.1632 100.296 42.201 100.364 42.2401C100.593 42.3683 100.816 42.5026 101.045 42.6423C101.099 42.6706 101.146 42.7016 101.194 42.7327C101.436 42.8831 101.686 43.0417 101.936 43.2036C101.969 43.2259 102.003 43.2475 102.037 43.2718C102.3 43.4411 102.563 43.6226 102.826 43.8028C102.847 43.8197 102.874 43.8338 102.894 43.8507C103.17 44.043 103.447 44.2407 103.724 44.4451C103.73 44.4532 103.744 44.4593 103.757 44.4674C104.041 44.6779 104.331 44.8945 104.614 45.1198H104.621C104.675 45.1657 104.736 45.2123 104.797 45.2595C104.911 45.3479 105.026 45.4349 105.141 45.5254C121.138 46.2837 136.002 49.4624 148.714 54.4486C149.767 53.6571 150.428 53.3265 150.759 53.1875C137.446 47.7169 122.069 44.3588 105.896 43.5248C103.326 41.5364 100.856 40.0301 98.7578 39.1749C96.0117 38.0565 93.0764 37.5199 90.1549 37.5358ZM103.683 53.1603C105.66 54.7135 107.677 56.1392 109.438 56.8733C110.707 57.015 112.34 57.27 114.229 57.5642C120.781 58.5898 130.497 60.1005 138.276 59.1046C127.912 55.7742 116.179 53.6778 103.683 53.1603ZM47.5846 62.5997C46.6664 62.9924 45.7703 63.4039 44.8824 63.8196C44.7171 63.8972 44.5491 63.9741 44.3851 64.053C43.4938 64.4781 42.6133 64.9119 41.7537 65.3593C41.7173 65.3795 41.6815 65.3964 41.6457 65.416C41.077 65.7115 40.5284 66.0192 39.9745 66.3235C39.6776 66.4874 39.3719 66.6453 39.0784 66.8113C39.0629 66.8201 39.0467 66.8288 39.0312 66.8376C38.9691 66.8727 38.9064 66.9064 38.845 66.9415C38.8396 66.9449 38.8335 66.9476 38.8281 66.951C38.0441 67.3976 37.2776 67.8531 36.5246 68.3173L36.5233 68.3186C22.6017 76.9011 14.0752 88.4145 14.0752 101.08C14.0752 127.613 51.4785 149.117 97.6193 149.117C123.994 149.117 147.515 142.086 162.824 131.102C161.556 130.778 158.729 130.764 156.01 130.798C150.41 136.999 137.408 136.978 131.281 136.587C130.843 137.208 130.256 137.714 129.588 138.051C125.809 139.934 116.262 141.418 108.118 140.723C107.754 141.607 106.964 142.666 105.169 143.213C93.1257 146.883 75.5424 146.458 69.1123 142.41C55.1058 143.624 32.5964 134.907 28.0528 118.174C24.2514 115.887 20.5897 111.13 19.4265 108.998C19.0426 108.303 18.496 107.007 18.496 105.361C18.496 103.816 18.9818 101.967 20.5479 100.002C21.7185 98.5408 24.6684 96.1745 27.1277 94.6739C26.4631 92.8326 25.8674 90.7585 25.6164 89.351C25.5125 88.7782 25.4659 88.2189 25.4659 87.675C25.4659 84.7069 26.9489 82.2125 29.6303 80.8158C30.9649 80.1182 33.1928 79.467 35.5699 79.0501C35.219 78.2505 34.9451 77.4996 34.7764 76.812C34.5895 76.0766 34.5011 75.3303 34.5011 74.5956C34.5011 72.0066 35.6002 69.5358 37.5293 68.0325C38.9388 66.9388 42.8447 64.8897 47.6413 63.7076C47.6123 63.3351 47.5927 62.9687 47.5867 62.5997H47.5846Z" fill="#003087"/>
<path d="M65.381 58.1174C63.4843 58.1012 61.6059 59.2738 59.9022 61.0733C59.0285 61.9957 59.1742 62.775 60.4852 62.1906C61.7139 61.6448 63.2495 60.8803 64.1246 61.1698C61.9406 68.305 63.541 75.1494 71.1114 75.2924C69.5123 77.0393 66.3094 77.3287 64.2697 77.3287C62.2314 77.3287 62.3407 78.2416 64.1246 78.4973C71.2598 79.5182 77.6629 76.6027 82.2241 70.7792L85.1389 70.1962C87.0821 69.618 86.4681 68.1646 84.9432 68.4507C81.8395 69.033 78.9247 69.0323 74.458 65.5366C71.7051 63.3836 69.8024 59.7171 67.279 58.5512C66.6468 58.2604 66.0125 58.1228 65.381 58.1174ZM161.839 60.6044C161.394 60.6158 160.935 60.6611 160.497 60.7332C159.113 60.9633 155.908 63.0739 154.971 64.227C153.655 65.8261 154.532 67.2861 156.428 66.9913C158.317 66.7025 160.935 64.5191 161.664 63.7904C162.393 63.0631 162.824 62.775 164.282 63.9382C165.739 65.1027 168.364 66.4117 171.42 66.4117C173.31 66.4117 173.31 65.5535 171.562 65.2478C169.093 64.8106 166.758 64.0819 165.017 61.6084C164.471 60.8399 163.189 60.5693 161.839 60.6044Z" fill="#003087"/>
<path d="M66.5986 63.207C64.2681 68.6952 66.2066 72.6214 70.1375 73.2543C73.4706 73.7887 76.2033 73.398 78.0992 70.4866C78.0992 70.4866 74.9955 69.2755 74.2601 68.5481C73.5314 69.7114 71.8378 70.7309 70.6233 70.9232C69.0107 71.1816 68.7408 70.5426 69.8002 69.567C70.4749 68.9327 71.352 67.4794 71.2036 66.5098C70.6773 65.7791 67.7625 63.4486 66.5986 63.207ZM192.38 74.1267C191.436 74.209 190.64 75.0929 189.911 75.626C189.074 76.2413 187.86 76.3817 186.854 76.2352C186.605 78.9321 185.188 81.6027 183.892 83.9311C183.285 85.0323 182.57 86.0558 181.922 87.1293C181.092 88.5098 182.475 88.5226 183.433 88.0307C185.97 86.7123 187.893 84.0398 189.378 81.6789C190.734 79.5292 192.38 76.7602 192.38 74.1267ZM180.39 75.2596C179.5 75.2596 178.629 75.325 177.82 75.4391C178.306 78.0664 177.638 80.8854 176.862 83.388C176.059 85.9755 174.986 88.499 173.684 90.8706C173.178 91.7808 173.279 92.7389 174.5 92.1783C175.425 91.7552 176.2 91.0009 176.889 90.2695C178.656 88.3897 180.1 86.1779 181.355 83.9257C182.765 81.3928 183.98 78.6939 184.668 75.8736C183.379 75.4424 181.868 75.2603 180.39 75.2596ZM174.939 75.5787C174.865 75.5794 174.77 75.5889 174.662 75.5983C173.771 75.6786 172.908 75.9377 172.071 76.2339C170.411 76.8249 169.015 77.6953 167.537 78.64C166.545 79.2769 165.526 79.8821 164.454 80.3726C163.948 80.6047 163.435 80.8112 162.902 80.9711C162.996 81.4164 163.077 81.8712 163.138 82.3233C163.421 84.4176 163.421 86.5524 163.307 88.6596C163.205 90.5036 163.016 92.3597 162.645 94.1734C162.504 94.8589 162.085 95.8217 162.558 96.458C162.969 97.0214 163.833 96.7812 164.359 96.5478C166.282 95.6909 167.942 93.7591 169.278 92.1992C170.567 90.6993 171.579 89.0448 172.449 87.2717C173.954 84.1916 175.458 80.5393 175.411 77.0496C175.404 76.6934 175.377 76.3344 175.303 75.9822C175.236 75.6469 175.161 75.576 174.939 75.5787ZM123.41 82.9042C122.924 82.9177 122.439 82.9906 121.966 83.0945C119.436 83.6491 116.636 85.0215 114.794 86.8668C116.103 88.0031 117.169 89.4821 117.5 91.2093C117.621 91.8159 117.648 92.4421 117.574 93.0567C117.52 93.5041 117.398 94.1741 117.824 94.5C118.788 95.2395 120.678 93.5958 121.312 92.9657C122.452 91.8355 123.322 90.4287 123.963 88.9639C124.665 87.3655 125.131 85.6112 125.097 83.8583C125.09 83.4433 125.171 83.1727 124.746 83.0506C124.47 82.9703 124.179 82.9278 123.896 82.9123C123.734 82.9022 123.572 82.9001 123.41 82.9042ZM157.949 83.5175C156.6 84.871 154.535 85.6017 152.754 86.1935C150.979 86.7865 149.07 87.3277 147.181 87.3756C148.247 89.4423 148.294 92.1715 148.112 94.4392C148.044 95.2597 147.592 96.2637 147.855 97.0605C148.233 98.2595 149.684 97.6179 150.386 97.1273C154.67 94.1309 157.295 88.5955 157.949 83.5175ZM131.534 84.0998C132.242 86.1199 132.202 88.4653 132.053 90.5731C131.999 91.4212 131.918 92.2916 131.703 93.1161C131.514 93.8414 131.264 94.728 132.209 95.0256C133.956 95.5782 136.446 93.5958 137.687 92.5865C139.469 91.15 141.162 89.2358 141.648 86.9411C138.187 86.3621 134.86 85.174 131.534 84.0998ZM109.403 89.6332C108.364 90.621 107.048 91.3551 105.807 92.0554C104.451 92.8206 103.054 93.5425 101.617 94.1464C102.582 95.6308 103.189 97.63 103.067 99.4126C103.027 100.016 102.494 100.967 103.175 101.383C103.958 101.869 104.876 100.992 105.395 100.498C108.161 97.8668 110.206 93.4933 109.403 89.6332ZM65.4961 91.9779C63.5509 91.9893 61.2811 92.3759 59.7589 93.4892C60.0605 96.1672 61.2352 99.0247 63.4369 100.696C64.0691 101.176 65.6695 102.159 66.2882 101.164C66.6215 100.626 66.4205 99.8202 66.4637 99.223C66.517 98.4734 66.658 97.7299 66.855 97.0039C67.2328 95.5984 67.8064 94.2442 68.5081 92.9724C68.7105 92.6121 68.7307 92.5885 68.3529 92.4124C68.164 92.3253 67.9683 92.2558 67.7659 92.2032C67.2936 92.075 66.7943 92.0177 66.3071 91.9947C66.0453 91.9819 65.7741 91.9758 65.4961 91.9779ZM77.88 94.6565C78.0149 96.4411 77.1243 98.3816 76.3146 99.92C76.0177 100.482 75.3093 101.218 75.289 101.862C75.2553 102.678 76.3483 102.577 76.8679 102.456C79.9851 101.738 83.8175 99.5226 85.2344 96.5478C82.8257 96.346 80.0728 95.6956 77.88 94.6565ZM96.6642 95.8204C94.5793 96.5774 91.9682 97.0234 89.7483 96.8379C89.9845 98.5328 89.7618 100.366 89.357 102.017C89.1883 102.699 88.8307 103.252 88.6215 103.9C88.3854 104.648 89.1478 104.817 89.7146 104.662C91.5431 104.163 93.3108 102.348 94.4511 100.907C95.5982 99.4592 96.536 97.6968 96.6642 95.8204ZM113.397 99.1859C112.992 99.194 112.723 99.4733 112.898 100.26C113.411 102.624 111.974 105.93 110.132 107.395C111.866 106.929 113.822 107.017 115.59 107.185C117.662 107.381 119.956 107.786 121.703 108.994C121.44 107.941 120.792 106.956 120.212 106.052C119.443 104.871 118.599 103.744 117.682 102.665C116.811 101.628 115.88 100.551 114.781 99.7432C114.369 99.4423 113.809 99.1778 113.397 99.1859ZM132.701 102.692C132.31 102.699 131.993 103.191 131.824 103.832C131.595 104.662 131.183 105.451 130.724 106.187C129.604 107.988 127.924 109.81 125.778 110.303C127.398 110.903 128.997 111.531 130.576 112.219C132.276 112.954 134.078 113.73 135.535 114.891C135.987 112.887 135.562 110.633 135.164 108.656C134.813 106.902 134.455 104.797 133.457 103.265C133.194 102.854 132.931 102.685 132.701 102.692ZM60.9782 105.026C59.8763 105.128 58.8521 106.781 58.398 107.536C57.5263 109 56.8671 110.701 56.7773 112.415C59.1638 111.733 62.3101 111.267 64.7121 112.124C63.6359 111.16 62.9895 109.655 62.5543 108.305C62.3661 107.725 62.1981 107.118 62.1657 106.511C62.138 105.964 62.0577 105.289 61.4538 105.08C61.2946 105.026 61.1361 105.006 60.9782 105.026ZM96.6136 105.202C96.175 105.181 95.8849 105.485 96.0131 106.45C96.175 107.698 95.8714 109.061 95.588 110.269C95.2642 111.632 94.8391 113.076 94.0699 114.257C96.4787 112.354 99.434 111.335 102.2 110.087C101.445 108.508 99.8388 107.266 98.5028 106.2C97.9968 105.795 97.1804 105.229 96.6136 105.202ZM71.0349 105.546C70.9 105.553 70.7448 105.6 70.5558 105.688C69.5842 106.16 68.9972 107.496 68.5857 108.42C67.9784 109.77 67.5061 111.288 67.5533 112.779C68.4102 113.042 69.2334 113.481 70.0228 113.892C71.1361 114.472 72.2292 115.1 73.275 115.802C73.9632 116.254 74.7729 116.76 75.2654 117.441C75.2654 116.213 74.4895 114.85 73.808 113.872C72.6745 112.232 71.6219 109.837 71.6287 107.826C71.6354 107.206 71.9525 105.478 71.0349 105.546ZM152.717 106.571C152.11 106.652 151.61 107.61 151.401 108.049C150.456 110.073 148.587 111.645 146.786 112.894C144.849 114.23 142.684 115.356 140.417 115.984C142.461 116.726 144.728 116.922 146.88 117.077C148.095 117.158 149.303 117.205 150.517 117.225C151.023 117.232 151.522 117.239 152.029 117.232C152.44 117.232 153.108 117.394 153.216 116.962C153.823 114.385 153.763 111.672 153.682 109.041C153.661 108.413 153.81 106.841 152.987 106.592C152.899 106.565 152.804 106.558 152.717 106.571ZM166.886 106.781C166.184 106.767 165.604 107.941 165.388 108.413C164.558 110.174 163 111.706 161.616 113.022C159.909 114.648 157.98 116.254 155.773 117.151C157.959 117.448 160.199 117.509 162.399 117.441C163.499 117.407 164.592 117.333 165.678 117.178C166.144 117.117 166.603 117.03 167.055 116.922C167.642 116.78 167.608 116.605 167.696 116.031C168.04 113.811 168.215 111.49 168.04 109.25C167.979 108.521 167.925 107.266 167.196 106.868C167.088 106.808 166.987 106.781 166.886 106.781ZM179.166 108.636C178.66 108.717 178.464 109.54 178.255 109.918C177.742 110.829 177.027 111.652 176.298 112.415C176.217 113.474 175.866 114.533 175.576 115.545C176.933 115.613 178.714 115.451 179.834 114.607C180.88 113.838 180.691 111.423 180.455 110.316C180.34 109.743 180.063 108.812 179.402 108.65C179.314 108.629 179.24 108.623 179.166 108.636ZM172.749 108.758C172.668 108.764 172.587 108.785 172.493 108.818C171.528 109.183 170.853 110.741 170.26 111.544C170.334 113.136 170.091 114.769 169.895 116.348C171.069 116.416 172.29 116.2 173.451 115.984C173.755 115.93 174.045 114.439 174.105 114.176C174.274 113.42 174.369 112.644 174.362 111.875C174.348 111.052 173.977 108.609 172.749 108.758ZM82.3432 108.953C81.6753 108.973 81.4526 109.682 81.5943 110.235C81.9317 111.483 81.2165 113.103 80.6159 114.162C79.9142 115.417 78.72 115.923 77.7619 116.922C77.5122 117.178 77.3031 117.468 77.1614 117.799C76.9455 118.298 77.1411 118.406 77.546 118.723C78.079 119.135 78.693 119.445 79.3407 119.634C80.589 120.005 81.9317 119.965 83.2001 119.715C83.7871 119.594 86.2364 119.108 86.2701 118.393C86.3443 116.989 86.1284 115.565 85.7641 114.209C85.3862 112.772 84.8262 111.328 83.9356 110.127C83.5712 109.621 83.0382 108.94 82.3432 108.953Z" fill="white"/>
</svg>
