<svg width="200" height="200" viewBox="0 0 200 200" fill="none" xmlns="http://www.w3.org/2000/svg">
<path d="M136.297 101.315L116.601 103.715C126.415 88.0148 131.784 73.4974 147.606 57.577C143.244 71.4845 139.69 87.2612 136.297 101.315ZM175.033 155.123C161.623 162.047 151.544 160.596 150.472 152.237C149.263 142.887 149.929 129.733 150.371 124.716C150.535 122.879 151.091 116.945 151.444 115.153C156.025 114.199 162.144 111.961 162.144 119.921C164.458 118.742 168.703 115.261 169.431 111.565C173.471 92.4613 153.45 97.4716 153.45 97.4716C158.333 74.9042 163.583 50.8703 174.763 31.0384L163.619 25.6983C156.076 31.4718 148.479 37.3174 142.141 38.2629C136.355 39.659 100.984 42.4355 103.471 26.243C99.519 26.5593 97.297 31.2083 97.3204 35.2207C98.5974 52.6939 121.307 49.2298 135.135 50.9402C120.864 68.8074 108.323 87.3101 96.99 106.468C88.0081 108.187 86.8255 97.0451 88.3538 93.9783C88.3538 93.9783 82.4279 95.6418 80.1297 102.13C77.3552 108.948 80.4968 120.482 90.1638 121.127C80.5948 137.961 69.1197 165.545 45.6407 160.033C37.7837 158.412 28.6105 145.11 33.359 137.198C36.2722 133.146 31.9532 130.305 26.9976 136.313C14.8142 149.758 26.5681 176.611 52.0931 174.997C79.5377 175.592 98.0555 141.484 108.048 121.218L134.071 117.128L132.425 138.361C129.143 191.168 167.151 170.785 167.151 170.785C172.434 168.387 177.967 162.606 177.831 155.869C177.546 153.601 176.291 154.481 175.031 155.124" fill="#B30838"/>
<path fill-rule="evenodd" clip-rule="evenodd" d="M155.054 151.651L155.053 151.647C153.911 142.805 154.539 130.055 154.972 125.124C155.084 123.869 155.339 121.169 155.585 118.977C155.681 118.958 155.775 118.941 155.869 118.924C156.594 118.793 157.099 118.746 157.44 118.743C157.484 118.994 157.525 119.374 157.525 119.923V127.462L164.242 124.039C165.89 123.198 167.932 121.718 169.691 119.912C171.39 118.168 173.333 115.604 173.957 112.494C175.098 107.075 174.717 102.513 172.616 98.956C170.485 95.3462 167.098 93.6366 164.086 92.8766C162.443 92.4622 160.801 92.2973 159.31 92.266C163.855 71.551 168.987 50.6921 178.788 33.3085L181.212 29.0075L163.06 20.3097L160.738 22.0874C156.949 24.9877 153.361 27.7341 149.957 29.8897C146.468 32.0988 143.65 33.3687 141.459 33.6955L141.256 33.7257L141.057 33.7738C138.746 34.3316 129.02 35.3578 120.276 34.2663C115.878 33.7172 112.347 32.6992 110.175 31.2816C109.147 30.6109 108.595 29.9612 108.307 29.3903C108.042 28.8637 107.856 28.1211 108.037 26.9459L108.924 21.1738L103.102 21.6397C99.2184 21.9506 96.5244 24.3976 94.969 26.929C93.4278 29.4375 92.6848 32.4659 92.7011 35.2492L92.702 35.4042L92.7133 35.5588C93.1151 41.0569 95.2854 45.2966 98.8207 48.32C102.198 51.2081 106.465 52.6825 110.604 53.5206C114.768 54.3636 119.256 54.6465 123.359 54.8357C124.186 54.8738 124.992 54.9081 125.779 54.9416C125.895 54.9465 126.01 54.9514 126.124 54.9563C114.453 70.1585 103.961 85.8006 94.34 101.889C94.2358 101.847 94.1578 101.803 94.0994 101.766C93.7781 101.564 93.3595 101.12 92.9966 100.247C92.6347 99.3757 92.4379 98.3245 92.4135 97.3511C92.3904 96.4297 92.5268 95.9952 92.5154 95.9913C92.5132 95.9906 92.5058 96.0053 92.491 96.035L97.1347 86.7167L87.1053 89.5322L88.3539 93.9797C87.8193 95.0525 87.6164 97.1133 87.963 99.2661C88.6073 103.268 91.1501 107.587 96.9901 106.47C107.414 88.8482 118.86 71.7812 131.734 55.2533C132.857 53.812 133.99 52.3748 135.135 50.9417C133.407 50.728 131.541 50.5951 129.595 50.492C128.386 50.4279 127.145 50.3754 125.888 50.3221C112.984 49.7755 98.3387 49.1551 97.3205 35.2222C97.3091 33.2665 97.8311 31.1596 98.8268 29.4769C99.874 27.7072 101.445 26.4066 103.471 26.2445C103.217 27.8991 103.358 29.3557 103.822 30.6359C107.904 41.884 136.947 39.5178 142.141 38.2644C148.431 37.3261 155.961 31.5614 163.448 25.8307L163.619 25.6998L174.763 31.0399C174.008 32.3796 173.28 33.7385 172.577 35.1148C163.624 52.6456 158.784 73.004 154.512 92.5788C154.155 94.2164 153.801 95.8485 153.45 97.473C153.45 97.473 155.577 96.9408 158.304 96.8847C163.945 96.7686 172.154 98.6888 169.431 111.566C169.072 113.39 167.856 115.162 166.438 116.631C164.983 118.138 163.316 119.326 162.144 119.923C162.144 117.655 161.648 116.214 160.831 115.337C159.057 113.428 155.772 114.177 152.796 114.855C152.336 114.96 151.883 115.063 151.444 115.155C151.091 116.947 150.535 122.881 150.371 124.718C149.929 129.734 149.264 142.888 150.472 152.239C151.495 160.215 160.719 161.901 173.214 156.023C173.256 156.002 173.299 155.982 173.342 155.962C173.899 155.698 174.462 155.419 175.031 155.125C175.032 155.125 175.032 155.125 175.033 155.125C175.138 155.071 175.242 155.016 175.346 154.961C176.493 154.358 177.57 153.791 177.831 155.871C177.853 156.927 177.735 157.96 177.5 158.959C177.492 158.993 177.484 159.027 177.476 159.061C176.18 164.393 171.578 168.777 167.151 170.786C167.151 170.786 129.143 191.169 132.425 138.363L134.071 117.129L108.048 121.22C98.0556 141.485 79.5378 175.594 52.0931 174.998C26.5682 176.613 14.8143 149.76 26.9977 136.315C31.9533 130.307 36.2722 133.148 33.3591 137.199C28.6106 145.111 37.7838 158.414 45.6408 160.034C66.4037 164.909 77.7794 143.901 86.7509 127.334C87.0919 126.704 87.4295 126.081 87.764 125.466C88.5805 123.963 89.3786 122.51 90.1639 121.128C88.433 121.013 86.9113 120.548 85.5954 119.824C79.5615 116.504 77.852 107.729 80.1298 102.132C80.8725 100.035 81.9942 98.4417 83.1722 97.2459C85.6393 94.7418 88.3539 93.9797 88.3539 93.9797C87.1053 89.5322 87.1033 89.5327 87.1013 89.5333L87.0883 89.537L87.069 89.5425L87.0235 89.5558C86.9902 89.5657 86.951 89.5776 86.9062 89.5916C86.8166 89.6197 86.7042 89.6564 86.5716 89.7027C86.3069 89.7952 85.959 89.9267 85.549 90.1051C84.7332 90.4601 83.6465 91.0112 82.4707 91.8268C80.1256 93.4535 77.3632 96.1835 75.8106 100.491C73.9588 105.131 74.1617 110.96 76.2399 115.775C77.6356 119.009 80.0018 122.019 83.3664 123.875C83.0857 124.392 82.8043 124.911 82.522 125.432C78.6623 132.555 74.6303 139.995 69.5852 145.985C63.1525 153.623 56.0418 157.731 46.6965 155.537L46.6354 155.523L46.5739 155.51C44.4116 155.064 41.0741 152.541 38.7451 148.618C36.4363 144.729 36.2631 141.485 37.2554 139.689C38.3228 138.132 39.0958 136.174 38.8885 134.057C38.6499 131.62 37.1087 129.48 34.6506 128.623C32.4392 127.852 30.2052 128.349 28.4667 129.197C26.6964 130.06 25.0251 131.465 23.5029 133.292C15.8403 141.826 16.0612 154.112 21.3781 163.568C26.7958 173.203 37.6863 180.467 52.1894 179.62C67.8999 179.879 80.5359 170.252 90.1395 158.918C99.1767 148.253 106.16 135.345 111.125 125.412L129.014 122.6L127.817 138.041L127.815 138.076C126.968 151.703 128.719 161.355 132.44 167.971C136.298 174.83 142.021 177.977 147.803 178.934C153.356 179.854 158.795 178.744 162.628 177.56C164.585 176.954 166.224 176.298 167.383 175.788C167.965 175.532 168.431 175.311 168.762 175.149C168.927 175.067 169.059 175 169.155 174.951C169.165 174.946 169.175 174.941 169.184 174.936C172.445 173.432 175.695 170.95 178.16 167.805C180.664 164.609 182.545 160.469 182.45 155.777L182.445 155.535L182.415 155.295C182.304 154.417 182.028 153.058 181.087 151.857C179.898 150.341 178.196 149.738 176.643 149.789C175.428 149.83 174.447 150.263 174.032 150.454C173.704 150.604 173.238 150.849 173.03 150.959C172.982 150.984 172.948 151.002 172.932 151.01L174.871 154.811L172.914 151.02C166.61 154.275 161.72 155.207 158.699 154.829C157.255 154.648 156.448 154.2 156.007 153.793C155.602 153.42 155.202 152.808 155.054 151.651ZM177.888 158.849C177.885 158.851 177.881 158.852 177.878 158.854C177.944 158.829 177.951 158.821 177.888 158.849ZM116.602 103.716C117.656 102.03 118.659 100.357 119.629 98.6938C121.2 96.0026 122.684 93.3388 124.161 90.6887C128.841 82.2893 133.444 74.0283 140.465 65.4726C142.599 62.8725 144.956 60.2452 147.606 57.5785C146.581 60.8455 145.601 64.2157 144.658 67.6425C142.253 76.3719 140.084 85.4685 138.01 94.1626C137.433 96.5841 136.863 98.9743 136.297 101.317L116.602 103.716ZM132.555 97.119L125.372 97.9941C126.434 96.129 127.455 94.2956 128.464 92.485C131.299 87.395 134.033 82.486 137.284 77.5635C135.967 82.8138 134.716 88.062 133.505 93.139C133.186 94.4786 132.869 95.8063 132.555 97.119Z" fill="white"/>
</svg>
