<svg width="200" height="200" viewBox="0 0 200 200" fill="none" xmlns="http://www.w3.org/2000/svg">
<path d="M187.505 100.212C187.505 86.0073 178.293 72.3842 161.896 62.3397C145.5 52.2953 123.261 46.6523 100.073 46.6523C76.8842 46.6523 54.6455 52.2953 38.2489 62.3397C21.8522 72.3842 12.6406 86.0073 12.6406 100.212C12.6406 114.417 21.8522 128.041 38.2489 138.085C54.6455 148.129 76.8842 153.772 100.073 153.772C111.554 153.772 122.924 152.387 133.531 149.695C144.139 147.004 153.778 143.058 161.896 138.085C170.015 133.111 176.455 127.207 180.849 120.709C185.243 114.211 187.505 107.246 187.505 100.212Z" stroke="#F79792" stroke-width="2"/>
<path d="M138.044 110.541C132.2 122.233 121.364 127.753 108.796 129.589C103.248 130.401 97.3721 130.625 91.7041 129.981C76.4921 128.257 61.3761 118.497 58.2961 102.505C55.7441 89.2569 66.0081 78.7689 76.8641 73.3569C97.7561 62.9409 120.212 67.4849 136.828 83.2849C136.908 83.3623 137.004 83.4009 137.116 83.4009H177.196C177.351 83.4009 177.391 83.3329 177.316 83.1969C168.276 66.7409 145.308 56.8089 127.84 52.9929C103.808 47.7449 77.5441 49.7769 54.6521 58.6929C35.3401 66.2129 11.2481 84.1689 18.7881 108.365C21.5721 117.301 27.8881 125.005 35.2721 130.933C57.6881 148.929 90.0401 152.853 117.552 148.917C135.068 146.409 152.564 141.005 166.6 129.817C177.392 121.213 184.264 109.181 182.488 94.9769C182.481 94.9279 182.457 94.883 182.42 94.8506C182.384 94.8182 182.337 94.8006 182.288 94.8009H83.9961C83.943 94.8009 83.8922 94.822 83.8547 94.8595C83.8172 94.897 83.7961 94.9479 83.7961 95.0009V110.101C83.7961 110.154 83.8172 110.205 83.8547 110.242C83.8922 110.28 83.943 110.301 83.9961 110.301H137.896C138.075 110.301 138.124 110.381 138.044 110.541Z" stroke="#918F90" stroke-width="2"/>
<path d="M191.258 100.213C191.258 115.401 181.652 129.966 164.552 140.705C147.453 151.444 124.261 157.477 100.078 157.477C75.896 157.477 52.704 151.444 35.6044 140.705C18.5049 129.966 8.89844 115.401 8.89844 100.213C8.89844 85.0259 18.5049 70.4605 35.6044 59.7215C52.704 48.9824 75.896 42.9492 100.078 42.9492C124.261 42.9492 147.453 48.9824 164.552 59.7215C181.652 70.4605 191.258 85.0259 191.258 100.213ZM187.506 100.213C187.506 86.0082 178.295 72.385 161.898 62.3406C145.502 52.2961 123.263 46.6532 100.074 46.6532C76.886 46.6532 54.6474 52.2961 38.2507 62.3406C21.854 72.385 12.6424 86.0082 12.6424 100.213C12.6424 114.418 21.854 128.041 38.2507 138.086C54.6474 148.13 76.886 153.773 100.074 153.773C111.556 153.773 122.925 152.388 133.533 149.696C144.141 147.005 153.779 143.059 161.898 138.086C170.017 133.112 176.457 127.208 180.851 120.71C185.245 114.212 187.506 107.247 187.506 100.213Z" fill="#EE2E24"/>
<path d="M187.505 100.212C187.505 107.246 185.243 114.211 180.849 120.709C176.455 127.207 170.015 133.111 161.896 138.085C153.778 143.058 144.139 147.004 133.531 149.695C122.924 152.387 111.554 153.772 100.073 153.772C76.8842 153.772 54.6455 148.129 38.2489 138.085C21.8522 128.041 12.6406 114.417 12.6406 100.212C12.6406 86.0073 21.8522 72.3842 38.2489 62.3397C54.6455 52.2953 76.8842 46.6523 100.073 46.6523C123.261 46.6523 145.5 52.2953 161.896 62.3397C178.293 72.3842 187.505 86.0073 187.505 100.212ZM138.045 110.54C132.201 122.232 121.365 127.752 108.797 129.588C103.249 130.4 97.3726 130.624 91.7046 129.98C76.4926 128.256 61.3766 118.496 58.2966 102.504C55.7446 89.2563 66.0086 78.7683 76.8646 73.3563C97.7566 62.9403 120.213 67.4843 136.829 83.2843C136.909 83.3617 137.005 83.4003 137.117 83.4003H177.197C177.351 83.4003 177.391 83.3323 177.317 83.1963C168.277 66.7403 145.309 56.8083 127.841 52.9923C103.809 47.7443 77.5446 49.7763 54.6526 58.6923C35.3406 66.2123 11.2486 84.1683 18.7886 108.364C21.5726 117.3 27.8886 125.004 35.2726 130.932C57.6886 148.928 90.0406 152.852 117.553 148.916C135.069 146.408 152.565 141.004 166.601 129.816C177.393 121.212 184.265 109.18 182.489 94.9763C182.482 94.9273 182.458 94.8824 182.421 94.85C182.384 94.8177 182.337 94.8 182.289 94.8003H83.9966C83.9436 94.8003 83.8927 94.8214 83.8552 94.8589C83.8177 94.8964 83.7966 94.9473 83.7966 95.0003V110.1C83.7966 110.153 83.8177 110.204 83.8552 110.242C83.8927 110.279 83.9436 110.3 83.9966 110.3H137.897C138.075 110.3 138.125 110.38 138.045 110.54Z" fill="white"/>
<path d="M137.9 110.301H84C83.9469 110.301 83.8961 110.28 83.8586 110.242C83.8211 110.205 83.8 110.154 83.8 110.101V95.0009C83.8 94.9479 83.8211 94.897 83.8586 94.8595C83.8961 94.822 83.9469 94.8009 84 94.8009H182.292C182.341 94.8006 182.388 94.8182 182.424 94.8506C182.461 94.883 182.485 94.9279 182.492 94.9769C184.268 109.181 177.396 121.213 166.604 129.817C152.568 141.005 135.072 146.409 117.556 148.917C90.044 152.853 57.692 148.929 35.276 130.933C27.892 125.005 21.576 117.301 18.792 108.365C11.252 84.1689 35.344 66.2129 54.656 58.6929C77.548 49.7769 103.812 47.7449 127.844 52.9929C145.312 56.8089 168.28 66.7409 177.32 83.1969C177.395 83.3329 177.355 83.4009 177.2 83.4009H137.12C137.008 83.4009 136.912 83.3623 136.832 83.2849C120.216 67.4849 97.76 62.9409 76.868 73.3569C66.012 78.7689 55.748 89.2569 58.3 102.505C61.38 118.497 76.496 128.257 91.708 129.981C97.376 130.625 103.252 130.401 108.8 129.589C121.368 127.753 132.204 122.233 138.048 110.541C138.128 110.381 138.079 110.301 137.9 110.301ZM171.128 147.729C171.128 148.55 170.802 149.338 170.221 149.918C169.641 150.499 168.853 150.825 168.032 150.825C167.211 150.825 166.423 150.499 165.843 149.918C165.262 149.338 164.936 148.55 164.936 147.729C164.936 146.908 165.262 146.12 165.843 145.54C166.423 144.959 167.211 144.633 168.032 144.633C168.853 144.633 169.641 144.959 170.221 145.54C170.802 146.12 171.128 146.908 171.128 147.729ZM166.896 149.657C166.925 149.67 166.957 149.708 166.992 149.769C167.035 149.846 167.099 149.9 167.184 149.929C169.868 150.849 171.676 147.389 169.156 145.765C166.436 144.013 164.236 148.565 166.896 149.657Z" fill="#231F20"/>
<path d="M166.895 149.656C166.649 148.47 166.607 147.322 166.767 146.212C166.791 146.063 166.877 145.988 167.027 145.988L168.695 146C168.951 146.003 169.101 146.13 169.147 146.38L169.335 147.412C169.338 147.432 169.336 147.452 169.329 147.471C169.322 147.49 169.31 147.507 169.295 147.52C168.735 147.992 168.672 148.464 169.107 148.936C169.16 148.996 169.191 149.073 169.194 149.154C169.197 149.234 169.172 149.313 169.123 149.377C169.075 149.441 169.006 149.486 168.927 149.505C168.849 149.524 168.767 149.515 168.695 149.48C168.34 149.299 168.133 148.946 168.075 148.42C168.051 148.186 167.899 148.08 167.619 148.104C167.595 148.107 167.572 148.114 167.551 148.126C167.53 148.137 167.513 148.154 167.499 148.173C167.485 148.192 167.475 148.214 167.47 148.238C167.465 148.261 167.465 148.285 167.471 148.308C167.641 149.074 167.449 149.523 166.895 149.656ZM168.543 146.888C168.161 146.595 167.813 146.614 167.499 146.944C167.456 146.987 167.429 147.042 167.42 147.101C167.411 147.16 167.421 147.221 167.448 147.274C167.476 147.328 167.519 147.371 167.573 147.398C167.627 147.425 167.687 147.434 167.747 147.424L168.431 147.32C168.477 147.313 168.521 147.292 168.556 147.26C168.59 147.228 168.615 147.187 168.627 147.141C168.639 147.095 168.637 147.047 168.622 147.002C168.607 146.957 168.58 146.918 168.543 146.888Z" fill="#231F20"/>
</svg>
