<svg width="200" height="200" viewBox="0 0 200 200" fill="none" xmlns="http://www.w3.org/2000/svg">
<g clip-path="url(#clip0_107_19997)">
<path d="M199.112 50.261C191.919 48.3057 183.208 49.7566 176.204 51.9023C162.825 56.1944 151.403 65.2821 138.971 71.7821C132.406 74.5587 123.381 75.1268 117.323 71.3399C115.872 70.3099 113.243 71.0456 113.243 71.0456C112.401 70.4153 111.459 70.1749 110.318 70.5822C107.289 72.7923 104.133 69.3838 100.916 71.151C97.6988 69.3838 94.5437 72.7923 91.5144 70.5822C90.3729 70.1749 89.431 70.4153 88.5898 71.0456C88.5898 71.0456 85.9588 70.3099 84.5078 71.3399C78.4509 75.1268 69.426 74.5587 62.8624 71.7821C50.4283 65.2821 39.0076 56.1944 25.6285 51.9023C18.6234 49.7566 9.91335 48.3057 2.71944 50.261C1.77289 50.892 0.698928 52.0289 0.951492 53.4169C1.45662 54.2375 1.96249 55.3737 3.03494 55.5633C28.7844 51.7134 42.6671 77.2725 64.2511 84.025C64.2928 84.2988 63.0308 85.35 61.6625 86.0865C58.6128 87.7702 54.0894 87.1172 53.7746 91.2826C54.5945 93.8712 57.7497 94.8178 60.022 95.8265C65.3865 98.858 71.825 96.3331 76.6829 93.8712C77.2502 93.3024 78.1975 93.6179 78.6382 94.1867C78.2597 105.863 87.1586 113.626 88.7992 124.48C89.7465 129.529 86.5906 133.251 86.2121 137.985C86.1704 139.732 87.5371 138.575 88.2736 144.359C88.5898 145.411 91.2194 148.357 93.5964 149.597C95.7906 150.462 98.3337 150.713 100.916 150.646C103.498 150.713 106.041 150.462 108.235 149.597C110.612 148.357 113.243 145.411 113.556 144.359C114.295 138.575 115.661 139.732 115.62 137.985C115.24 133.251 112.085 129.529 113.032 124.48C114.673 113.626 123.571 105.863 123.192 94.1867C123.635 93.6179 124.582 93.3024 125.149 93.8712C130.007 96.3331 136.444 98.858 141.81 95.8265C144.082 94.8178 147.237 93.8712 148.058 91.2826C147.741 87.1172 143.218 87.7702 140.17 86.0865C138.801 85.35 137.539 84.2988 137.58 84.025C159.165 77.2725 173.049 51.7134 198.797 55.5633C199.87 55.3737 200.375 54.2375 200.879 53.4169C201.124 52.0304 200.052 50.8935 199.105 50.2625" fill="#BF5700"/>
</g>
<defs>
<clipPath id="clip0_107_19997">
<rect width="200" height="200" fill="white"/>
</clipPath>
</defs>
</svg>
