<svg width="200" height="200" viewBox="0 0 200 200" fill="none" xmlns="http://www.w3.org/2000/svg">
<path d="M69.7756 44.3398L69.6337 44.4817C69.6337 44.5527 69.4918 44.8365 69.279 45.0493C69.1371 45.2622 68.8533 45.7588 68.7114 46.1136C68.4986 46.4683 68.2857 47.0359 68.1438 47.3197C68.0729 47.6035 67.86 48.1711 67.7891 48.5968C67.6472 48.9515 67.5053 49.5191 67.5053 49.8739C67.4343 50.1577 67.3634 50.7962 67.2924 51.2929C67.2924 51.7895 67.2924 52.5699 67.2924 53.0666C67.2924 53.4923 67.3634 54.2018 67.4343 54.6275C67.4343 55.0532 67.5762 55.7627 67.6472 56.2593C67.7181 56.756 67.931 57.6073 68.0729 58.1749C68.2857 58.8135 68.5695 59.8068 68.7114 60.3744C68.9243 61.0129 69.3499 62.0771 69.5628 62.7157C69.8466 63.3542 70.2013 64.2766 70.4142 64.7023C70.627 65.1989 73.7488 71.9391 77.4382 79.6725C81.0566 87.406 87.442 101.028 91.557 109.897C95.743 118.766 99.3615 126.428 99.5743 126.925C99.7871 127.421 100 127.776 100 127.776C100 127.776 104.399 118.482 109.72 107.13C114.97 95.849 119.44 86.2708 119.582 85.987C119.724 85.7032 119.937 85.2775 120.008 85.0647C120.15 84.8518 122.278 80.2401 124.832 74.777C127.386 69.314 129.657 64.4894 129.87 63.9218C130.082 63.4252 130.437 62.5738 130.65 62.0771C130.792 61.5805 131.147 60.7291 131.289 60.1615C131.501 59.5939 131.714 58.6716 131.927 58.104C132.069 57.5364 132.211 56.756 132.282 56.3303C132.353 55.9755 132.495 55.337 132.495 54.9113C132.566 54.5565 132.637 53.6342 132.637 52.9956C132.708 52.2152 132.637 51.4348 132.637 50.9381C132.566 50.5124 132.495 49.8029 132.353 49.3772C132.282 48.9515 132.14 48.242 131.998 47.8873C131.856 47.4616 131.572 46.6812 131.289 46.2555C131.076 45.7588 130.721 45.1203 130.153 44.3398H174L173.291 45.2622C172.936 45.7588 172.368 46.5393 172.013 47.0359C171.659 47.5326 171.091 48.3839 170.807 48.8806C170.453 49.4482 169.885 50.2996 169.601 50.8672C169.246 51.4348 168.679 52.3571 168.395 52.9247C168.04 53.4923 167.402 54.6984 166.976 55.5498C166.479 56.4722 165.912 57.6783 165.628 58.2459C165.344 58.8135 162.932 63.8509 160.378 69.3849C157.753 74.9189 155.482 79.8144 155.269 80.2401C155.057 80.6658 154.56 81.801 154.063 82.7234C153.638 83.7166 145.762 100.461 119.866 155.659H80.1342L67.0796 127.847C59.8428 112.522 49.697 90.8825 44.4468 79.6725C39.1256 68.4626 34.5849 58.7425 34.3011 58.104C34.0173 57.4654 33.3787 56.3303 32.953 55.4789C32.5273 54.6984 31.9597 53.5632 31.605 52.9247C31.2502 52.2862 30.6826 51.2929 30.257 50.6543C29.9022 50.0158 29.1218 48.8096 28.6251 48.0292C28.0575 47.1778 27.2771 46.0426 26.8514 45.475C26.4257 44.9074 26.0709 44.4108 26 44.4108C26 44.3398 35.8619 44.3398 69.7756 44.3398Z" fill="url(#paint0_linear_107_20001)"/>
<defs>
<linearGradient id="paint0_linear_107_20001" x1="100" y1="155.659" x2="100" y2="44.3398" gradientUnits="userSpaceOnUse">
<stop stop-color="#B99950"/>
<stop offset="1" stop-color="#FEEEB6"/>
</linearGradient>
</defs>
</svg>
