<svg width="200" height="200" viewBox="0 0 200 200" fill="none" xmlns="http://www.w3.org/2000/svg">
<path d="M102.21 95.53H97.9963L100.103 90.1056L102.21 95.53ZM167.779 145.605C165.358 139.419 161.34 129.15 156.745 117.41C146.387 90.9267 137.53 68.2877 132.237 54.763H138.393V8.91016H62.0307V54.763H68.1611C63.2271 67.3709 55.2112 87.8589 45.8749 111.725C40.3693 125.798 35.4211 138.451 32.6226 145.604H19.7734V191.261H89.5038V145.604H82.9026C83.1212 144.868 83.3537 144.094 83.6003 143.276C83.7404 142.803 83.8833 142.323 84.0262 141.85H116.37C116.516 142.323 116.659 142.805 116.802 143.279C117.048 144.097 117.278 144.873 117.5 145.604H110.8V191.261H180.614V145.604L167.779 145.605Z" fill="white"/>
<path d="M105.601 97.8546H94.6074L100.105 83.708L105.601 97.8546ZM166.197 147.93C163.866 141.982 159.557 130.959 154.564 118.205C143.659 90.3133 134.008 65.6573 128.84 52.4457H136.074V11.2305H64.3517V52.4457H71.5609C66.8267 64.5528 58.2775 86.393 48.1798 112.21C42.2565 127.363 36.8994 141.034 34.2069 147.929H22.0977V188.946H87.1883V147.929H79.7858C80.2453 146.405 80.772 144.645 81.3801 142.62C81.6827 141.597 82.0021 140.535 82.3047 139.535H118.104C118.404 140.535 118.72 141.597 119.026 142.617C119.634 144.645 120.163 146.402 120.62 147.929H113.122V188.946H178.3V147.929H166.201L166.197 147.93Z" fill="#FFCC00"/>
<path d="M100.109 69.6118L113.065 102.954H87.1536L100.11 69.6118H100.109ZM162.716 153.029C161.011 148.697 155.768 135.282 149.849 120.153C138.794 91.8863 125.453 57.7899 121.363 47.3448H130.973V16.3398H69.4584V47.3448H79.0408C75.2482 57.0254 63.4949 87.0664 52.9201 114.105C45.8366 132.205 39.5691 148.225 37.6894 153.029H27.1992V183.844H82.0817V153.029H72.9113C73.6538 150.594 74.8165 146.73 76.4865 141.149C77.2486 138.602 78.0303 135.996 78.5038 134.43H121.894C122.378 136.019 123.152 138.616 123.914 141.146C125.584 146.73 126.749 150.594 127.489 153.029H118.223V183.844H173.193V153.029H162.711L162.716 153.029Z" fill="white"/>
<path d="M170.882 181.516H120.555V155.349H130.67C130.21 154.2 123.83 132.634 123.615 132.102H76.8096C76.5938 132.634 70.2168 154.201 69.7545 155.349H79.774V181.516H29.5312V155.349H39.2846C39.5109 154.781 81.9624 46.2446 82.4557 45.0115H71.7917V18.6484H128.667V45.0115H117.975C118.471 46.2471 160.918 154.781 161.146 155.349H170.885V181.516H170.882ZM83.7693 105.272H116.464L100.119 63.2027L83.7736 105.273L83.7693 105.272Z" fill="#222222"/>
<path d="M137.715 121.812C137.715 121.812 136.801 123.636 136.235 124.32C136.235 124.32 136.801 125.687 137.656 125.174C138.513 124.659 138.342 123.006 137.715 121.812ZM126.583 121.045C126.945 120.61 128.004 119.268 128.27 118.15C128.595 116.8 128.505 115.685 128.096 115.421C127.687 115.155 126.746 115.979 126.597 119.235C126.569 119.879 126.566 120.481 126.583 121.045ZM121.509 121.045C121.87 120.61 122.929 119.268 123.198 118.15C123.521 116.8 123.431 115.685 123.025 115.421C122.61 115.155 121.671 115.979 121.526 119.235C121.495 119.879 121.492 120.481 121.509 121.045ZM106.65 116.937C105.768 116.545 105.406 117.273 105.017 119.789C104.627 122.308 105.171 123.474 105.611 123.367C106.053 123.266 106.44 122.513 106.418 121.58C106.392 120.647 106.65 116.937 106.65 116.937ZM80.4276 118.467C80.0017 118.259 79.3713 118.467 79.3713 119.7V122.465C79.3713 123.126 80.5061 125.054 80.6433 122.776C80.8199 119.873 80.7778 118.646 80.4276 118.467ZM139.765 118.105C139.765 119.019 139.709 122.154 139.709 123.636C139.709 125.121 139.368 126.713 138.168 126.713C136.975 126.713 135.89 125.743 135.89 125.743C135.89 125.743 134.01 126.312 133.097 125.575C132.186 124.833 131.959 123.745 132.242 121.812L132.525 119.873L131.959 119.702C131.959 119.702 131.158 124.659 128.72 126.029C128.126 126.362 126.129 126.729 125.159 124.07C124.817 124.561 124.333 125.2 123.929 125.519C123.444 125.903 121.539 126.455 120.416 124.519C118.914 126.105 117.448 125.401 117.003 124.239C116.513 122.95 116.661 121.162 116.7 120.025C116.74 118.881 115.524 119.604 115.484 120.212C115.448 120.82 115.333 122.375 115.106 124.393C114.949 125.757 114.649 126.18 114.078 125.838C113.722 125.625 113.47 125.278 113.319 124.611C112.896 125.023 112.223 125.505 111.452 125.443C110.811 125.396 110.416 124.961 110.161 124.365C108.536 125.244 107.168 124.508 107.168 124.508C107.168 124.508 105.431 126.357 104.417 125.239C104.168 124.961 103.913 124.477 103.722 123.779C103.487 124.244 102.96 125.16 102.184 125.575C101.122 126.147 100.321 125.611 99.6763 124.014C99.5586 123.717 99.4773 123.322 99.4213 122.871C97.7878 125.065 96.0507 124.891 95.5715 123.636C95.0784 122.342 95.2297 120.554 95.2689 119.414C95.3053 118.279 94.0893 118.996 94.05 119.604C94.0136 120.212 93.8987 121.776 93.6718 123.787C93.5177 125.146 93.2179 125.575 92.6463 125.23C92.282 125.017 92.0299 124.656 91.8786 123.975C91.3967 124.477 90.486 125.27 89.497 125.345C88.8246 125.393 88.3483 124.841 88.0709 124.101C87.5694 124.639 86.8353 125.298 86.2722 125.284C84.9973 125.236 84.5125 123.74 84.5125 122.818V120.266C84.308 120.529 83.9802 120.882 83.6356 121.019C83.2517 121.162 82.8426 121.28 82.3159 121.19V122.684C82.3159 124.97 81.3941 125.895 79.8111 125.146C78.9481 124.74 78.4858 123.967 78.2364 123.23C78.0543 123.953 77.5303 125.499 76.3844 125.499C74.891 125.499 74.2325 123.608 74.2325 121.322V115.738C74.2325 114.995 73.8375 114.292 73.1762 115.303C72.515 116.315 72.3833 116.836 72.3833 117.59V123.255C72.3833 124.267 71.7697 124.97 70.7583 124.97C69.7468 124.97 69.5282 124.401 69.5282 122.684V116.623C69.5282 115.83 69.0407 114.513 68.4299 115.917C67.8135 117.326 67.5053 118.514 67.5053 119.523V123.435C67.5053 124.096 67.4184 125.065 66.407 125.065C65.3955 125.065 64.8688 124.575 64.8688 122.552V116.794C64.8688 114.732 65.135 113.676 64.7819 113.499C64.4289 113.328 63.8125 113.723 61.3524 116.096L60.4727 115.127C60.4727 115.127 63.9918 112.14 65.2638 111.126C66.5387 110.114 68.472 110.249 68.7353 112.051C68.7353 112.051 69.7524 110.669 70.7135 110.557C72.2096 110.383 72.3833 113.367 72.3833 113.367C72.3833 113.367 73.4256 112.02 74.2746 110.907C75.4178 109.411 76.7767 109.812 76.7767 111.829C76.7767 113.855 76.4713 119.347 76.3844 121.103C76.3032 122.703 77.2026 123.788 78.0291 122.415C77.9814 122.12 77.9646 121.863 77.9646 121.675V117.413C77.9646 113.936 80.2398 113.746 81.0439 114.16C82.1394 114.732 82.3159 115.965 82.3159 117.366C82.3159 119.305 82.994 119.63 83.5011 119.257C83.9326 118.943 84.2772 118.568 84.5126 118.282V115.522C84.5126 114.334 85.4344 114.334 85.8323 114.732C86.2722 115.175 86.1405 115.612 86.1405 116.399V121.675C86.1405 123.477 86.712 123.698 87.1519 123.477C87.4041 123.348 87.6395 122.936 87.7964 122.602C87.7375 121.056 87.8692 116.906 88.1158 115.872C88.3848 114.774 89.004 114.589 89.4326 114.897C89.9146 115.25 89.7857 116.001 89.7436 116.663C89.6988 117.329 89.4803 118.557 89.3038 120.708C89.1272 122.863 89.4102 123.793 90.2284 123.653C90.7187 123.569 91.4219 122.555 91.733 122.073C91.7414 120.33 92.0048 117.89 92.1533 116.377C92.3438 114.438 93.1283 114.472 93.6327 114.741C94.1258 115.012 94.0894 116.259 94.0894 116.259C94.0894 116.259 95.0785 115.046 95.9526 114.474C96.8268 113.908 97.093 114.553 97.0565 115.503C97.0173 116.45 96.9416 119.078 96.9416 120.821C96.9416 122.572 97.3591 122.762 98.0428 122.266C98.6368 121.838 99.2 120.669 99.3372 120.367C99.368 118.915 99.4773 117.383 99.5109 116.279C98.8889 116.287 98.2865 116.307 97.9279 116.335C97.093 116.416 97.3591 115.69 97.9671 115.654C98.4855 115.62 98.959 115.427 99.5362 115.371C99.5979 113.457 99.7884 111.745 99.7884 110.524C99.7884 109.196 100.565 109.465 101.044 109.692C101.691 109.994 101.615 110.333 101.461 111.516C101.394 112.042 101.257 113.567 101.125 115.332C101.632 115.315 101.786 115.332 102.374 115.503C103.285 115.769 102.374 116.259 101.652 116.259C101.506 116.259 101.296 116.259 101.06 116.262C100.926 118.179 100.814 120.221 100.814 121.547C100.814 124.36 101.842 124.321 102.414 123.71C102.985 123.104 103.209 122.155 103.209 122.155L103.526 122.807C103.364 121.673 103.355 120.19 103.666 118.333C104.313 114.469 105.924 114.52 106.418 114.702C106.911 114.884 107.376 115.453 107.636 115.845C107.897 116.231 108.522 116.517 108.522 116.517C108.83 116.649 108.676 116.938 108.544 117.686C108.415 118.439 108.258 120.129 108.13 121.451C108.001 122.777 108.438 123.449 108.909 123.396C109.2 123.365 109.567 123.146 109.808 122.978C109.673 121.79 109.713 119.661 109.713 117.893C109.713 115.895 110.259 115.374 111.063 115.511C111.559 115.581 111.713 116.363 111.582 117.223C111.453 118.075 111.349 119.557 111.293 121.788C111.245 124.018 112.049 124.15 112.439 123.867C112.716 123.662 113.016 123.292 113.167 123.093V123.068C113.128 121.317 113.425 118.61 113.585 116.988C113.775 115.046 114.563 115.08 115.067 115.352C115.563 115.618 115.524 116.87 115.524 116.87C115.524 116.87 116.513 115.654 117.384 115.08C118.258 114.514 118.525 115.161 118.485 116.108C118.452 117.064 118.37 119.686 118.37 121.429C118.37 123.177 118.732 123.953 119.413 123.463C119.567 123.348 119.715 123.191 119.858 123.006C119.684 122.27 119.572 121.367 119.572 120.235C119.572 116.184 121.377 113.452 123.316 114.365C125.227 115.265 125.518 120.028 121.626 122.555C121.8 123.819 122.161 124.634 122.755 124.724C123.61 124.844 124.263 123.97 124.862 122.936C124.714 122.197 124.624 121.317 124.624 120.235C124.624 116.184 126.451 113.452 128.39 114.366C130.298 115.265 130.379 119.947 126.698 122.555C126.874 123.819 127.23 124.724 127.83 124.724C128.538 124.724 129.85 123.693 130.648 120.787C131.444 117.879 131.559 116.226 131.559 115.769C131.559 115.313 131.901 115.257 132.413 115.654C132.926 116.049 133.498 116.335 133.893 116.335C134.296 116.335 134.579 116.683 134.352 117.761C134.125 118.848 133.61 121.701 133.557 122.838C133.498 123.979 134.352 125.175 135.605 123.239C136.86 121.297 137.373 117.537 137.771 116.282C138.169 115.03 138.513 115.03 138.855 115.313C139.197 115.598 138.855 115.94 139.197 116.164C139.541 116.394 139.765 117.195 139.765 118.105ZM109.865 111.945C109.865 111.269 110.378 110.723 111.011 110.723C111.641 110.723 112.151 111.269 112.151 111.945C112.151 112.617 111.641 113.166 111.011 113.166C110.378 113.166 109.865 112.617 109.865 111.945Z" fill="white"/>
</svg>
