<svg width="200" height="200" viewBox="0 0 200 200" fill="none" xmlns="http://www.w3.org/2000/svg">
<g clip-path="url(#clip0_107_20246)">
<path d="M104.681 233.855C102.282 233.671 94.5306 217.984 94.5306 217.984C89.9167 220.014 87.702 227.211 87.702 227.211C87.702 227.211 77.736 223.336 78.1051 211.155C76.2596 211.524 74.414 214.846 73.8604 218.353C68.5082 216.692 67.2163 205.803 69.6156 202.112C65.0017 192.146 61.6797 181.811 56.143 172.029C47.6534 165.016 35.6573 170.184 27.7214 174.798C25.3221 176.643 22.1847 178.673 21.0773 181.626C19.97 181.072 19.0472 180.334 18.6781 177.566C18.8627 160.956 6.86652 161.325 -3.28406 144.899C-4.20684 143.423 -4.57594 142.131 -5.86783 139.732C-8.0825 141.024 -10.4817 147.483 -10.4817 147.483C-22.6624 139.178 -24.1389 125.336 -20.2632 118.323C-23.5852 119.984 -25.4308 124.045 -28.1991 126.813C-31.8902 122.937 -32.0748 120.723 -32.4439 117.216C-31.8902 98.3913 -7.52884 82.5196 6.68197 76.2447C29.0132 66.2787 36.2109 67.386 39.3484 68.1242C47.2843 70.3389 50.9754 79.3821 58.1731 83.0732C63.5252 86.9489 71.8302 86.7643 77.3669 83.2577C78.2897 82.704 79.2125 82.3349 80.1353 81.5966C63.1561 81.9658 50.4217 71.6308 37.8719 61.4802C0.591621 61.4802 -34.2895 94.1465 -34.2895 94.1465C-35.0277 86.9489 -34.2895 70.3389 -24.6926 59.6347C-26.7227 58.5273 -34.474 62.9565 -39.457 68.6777C-34.6586 52.9905 -30.5983 38.7798 -9.3744 24.569C-5.68328 20.3242 -6.79062 12.7573 -8.45162 10.3581C-14.7265 -3.11452 -17.1258 -19.3554 -12.881 -34.1199C-10.2972 -47.5925 1.69896 -73.2458 2.43719 -73.6149C4.09819 -72.6921 15.7252 -57.9275 30.8588 -52.9445C41.0094 -49.6225 51.3445 -45.0087 57.9885 -35.0427C65.1862 -36.15 68.3237 -43.163 72.753 -47.4078C79.397 -43.7167 84.5646 -38.5492 92.6851 -41.6866C99.5136 -44.455 100.436 -49.807 104.497 -53.8673C108.372 -49.807 109.48 -44.6395 116.308 -41.6866C124.429 -38.5492 129.596 -43.7167 136.24 -47.4078C140.67 -43.163 143.623 -36.15 151.005 -35.0427C157.649 -45.0087 167.984 -49.4379 178.134 -52.9445C193.268 -57.9275 204.895 -72.6921 206.556 -73.6149C207.294 -73.2458 219.29 -47.5925 221.874 -34.1199C226.119 -19.3554 223.72 -3.11452 217.445 10.3581C215.968 12.7573 214.861 20.1397 218.368 24.569C239.592 38.7798 243.652 52.9905 248.45 68.6777C243.467 63.1411 235.716 58.7118 233.686 59.8192C243.283 70.5234 244.021 87.1334 243.283 94.3311C243.283 94.3311 208.402 61.4802 171.121 61.6647C158.756 71.8153 145.837 82.1505 128.858 81.7814C129.596 82.5196 130.704 82.8885 131.626 83.4422C137.163 86.9488 145.468 87.1334 150.82 83.2577C158.018 79.5666 161.709 70.5234 169.645 68.3087C172.782 67.5705 179.98 66.4632 202.496 76.4292C216.707 82.7041 240.884 98.3913 241.437 117.216C240.884 120.907 240.884 122.937 237.192 126.813C234.424 124.229 232.579 119.984 229.257 118.508C233.132 125.706 231.656 139.363 219.475 147.668C219.475 147.668 216.891 141.208 214.861 139.917C213.569 142.316 213.2 143.608 212.277 145.084C201.942 161.509 190.131 161.14 190.315 177.75C189.946 180.703 189.023 181.257 187.916 181.811C186.993 178.858 183.671 176.643 181.272 174.982C173.336 170.368 161.524 165.201 152.85 172.214C147.314 181.811 143.992 192.33 139.378 202.296C141.777 205.987 140.301 216.876 135.133 218.537C134.579 215.031 132.734 211.709 130.888 211.34C131.257 223.705 121.291 227.396 121.291 227.396C121.291 227.396 119.077 220.198 114.463 218.353C114.647 217.984 107.08 233.671 104.681 233.855Z" fill="black"/>
<path d="M3.48713 -56.1211C-1.97573 -44.4572 -5.22392 -31.7597 -5.22392 -18.0287C-4.92863 -4.88835 3.48713 5.74208 0.977165 19.3254C5.11122 17.5537 8.6547 16.9631 12.6411 17.2584C18.2516 4.85621 7.47354 -8.13653 0.681875 -17.1429C0.386585 -17.7334 6.44002 -13.4517 9.09763 -14.4853C-2.12337 -25.2633 0.829521 -37.3702 3.93006 -43.1284C4.22535 -40.6184 4.81593 -39.2896 6.44002 -37.6655C14.2652 -29.3974 25.1909 -24.968 28.882 -14.3376C29.4726 -32.055 10.7217 -42.0948 3.48713 -56.1211ZM204.432 -54.2017C197.197 -40.1755 178.446 -30.1356 179.037 -12.4182C182.728 -23.0487 193.654 -27.478 201.626 -35.8938C203.251 -37.3702 203.841 -38.8467 204.136 -41.209C207.237 -35.5985 210.19 -23.3439 198.969 -12.5659C201.626 -11.5324 207.828 -15.8141 207.385 -15.2235C200.445 -6.21715 189.667 6.77559 195.278 19.1777C199.412 19.0301 202.955 19.6207 206.942 21.2448C204.432 7.66146 212.847 -2.82132 213.143 -16.1094C213.143 -29.988 209.895 -42.5378 204.432 -54.2017ZM178.299 -42.5378C169.735 -36.9273 148.622 -31.4644 157.038 5.00385C157.481 6.4803 150.689 3.08447 147.146 5.59443C154.823 11.2049 161.467 18.8825 165.896 26.8553C171.212 23.3118 178.003 20.3589 183.761 19.1777C169.883 3.97034 165.158 -17.2905 172.54 -32.6456C174.165 -36.0414 176.084 -39.4372 178.299 -42.5378ZM29.0297 -42.2425C31.2444 -39.1419 33.1637 -35.8938 34.7878 -32.4979C42.1701 -17.1429 37.4454 4.11798 23.5668 19.3254C29.4726 20.5066 36.1166 23.4594 41.4318 27.0029C45.8612 19.1777 52.5052 11.3526 60.1827 5.74208C56.6393 3.23212 49.9952 6.62794 50.2905 5.1515C58.8539 -31.1691 37.5931 -36.632 29.0297 -42.2425ZM104.624 -28.6592C104.624 -28.6592 95.6175 -11.9753 75.0949 -23.7869C72.2896 -20.2434 68.5985 -16.5523 64.0215 -15.2235C65.055 -9.76063 65.055 -9.76063 64.4644 -2.96897C67.7126 -4.74071 69.632 -7.39831 72.2896 -10.2036C75.5378 -9.46534 75.8331 -3.7072 79.8195 -4.29777C84.2488 -7.6936 88.3829 -11.9753 93.6981 -13.3041C95.6175 -10.6465 90.3023 -9.3177 91.6311 -5.92186C94.584 -3.70719 97.6845 -2.0831 100.49 0.574509C101.228 1.31273 100.933 2.49389 100.047 2.93682C67.565 -2.67368 47.6329 34.0899 44.9753 39.2575C33.902 32.7611 22.0904 25.9694 7.76883 29.6605C-3.15689 32.6134 -12.6062 40.291 -20.2837 49.5926C-17.6261 48.7067 -13.6397 49.7402 -9.35797 53.2837C-16.2973 59.9277 -19.2502 66.1288 -21.4648 73.8063C-13.935 69.377 1.12481 56.089 37.0025 56.089C35.2308 52.3978 33.3114 49.2973 33.459 46.0491C34.4925 45.1632 34.0496 45.4585 35.969 44.2774C41.1366 53.1361 49.5523 61.4042 58.7063 66.1288C65.3503 68.4911 71.5514 72.0346 79.0813 72.0346C88.0876 71.1487 94.2887 78.531 100.047 84.8797C99.8992 86.3561 101.523 87.9802 99.3086 88.5708C96.0604 87.5373 92.5169 87.242 89.1211 86.5038C82.0342 93.0002 73.766 98.0201 63.7262 96.1007C53.5387 93.7384 43.9418 89.1614 36.8549 80.3027C35.526 81.6315 34.3449 83.1079 33.1637 84.4368C28.2915 90.6378 22.9762 96.9866 21.9427 104.369C27.4056 103.335 38.9219 103.483 44.8277 110.127C42.7606 110.865 33.902 117.214 31.9826 125.925C35.8213 124.006 39.9554 121.791 52.6528 117.657C53.2434 117.952 53.9817 118.543 53.6864 119.133C51.4717 124.596 46.3041 130.059 49.8476 136.703C53.5387 143.642 68.8938 146.005 70.8132 147.776C74.0613 155.159 76.1284 161.507 79.0813 168.742C79.6718 170.514 81.8865 171.99 83.363 172.876C90.5976 174.648 97.8321 175.386 104.919 175.386C112.154 175.386 119.684 174.648 126.771 172.728C128.099 171.99 130.462 170.366 131.052 168.594C134.005 161.36 136.072 154.863 139.32 147.481C141.24 145.709 156.595 143.347 160.286 136.408C163.682 129.911 158.662 124.301 156.299 118.838C156.004 118.247 156.89 117.657 157.333 117.362C170.03 121.496 174.165 123.858 178.003 125.63C175.936 116.919 167.373 110.57 165.158 109.832C170.916 103.188 182.433 103.04 187.895 104.074C186.862 96.5436 181.399 90.3425 176.674 84.1415C175.493 82.8127 174.312 81.3362 172.983 80.0074C165.896 88.8661 156.299 93.4431 146.112 95.8054C136.072 97.7248 127.804 92.7048 120.717 86.2085C117.321 86.9467 113.778 87.242 110.53 88.2755C108.463 87.6849 110.087 86.2085 109.939 84.5844C115.55 78.3833 121.751 70.8534 130.757 71.7393C138.434 71.7393 144.488 68.1958 151.28 65.8335C160.286 61.2565 168.702 52.8408 174.017 43.9821C175.936 45.1632 175.493 44.7203 176.527 45.7538C176.674 49.002 174.755 52.1025 172.983 55.7937C209.009 55.7937 223.773 68.9341 231.303 73.511C229.088 65.9812 226.135 59.6324 219.049 52.9884C223.33 49.5926 227.317 48.4114 229.974 49.2973C222.297 39.848 212.847 32.1705 201.922 29.3652C187.453 25.8218 175.789 32.4658 164.715 38.9622C161.762 34.0899 141.83 -2.82132 109.348 2.93682C108.463 2.34624 108.167 1.16509 108.906 0.574509C111.711 -2.0831 114.811 -3.70719 117.764 -5.92186C119.093 -9.3177 113.778 -10.6465 115.697 -13.3041C121.012 -11.9753 125.146 -7.6936 129.576 -4.29777C133.562 -3.7072 133.857 -9.61298 137.106 -10.2036C139.763 -7.39831 141.683 -4.74071 144.931 -2.96897C144.488 -9.90827 144.34 -10.0559 145.374 -15.2235C140.797 -16.5523 137.106 -20.2434 134.3 -23.7869C113.63 -11.9753 104.624 -28.6592 104.624 -28.6592ZM60.6257 155.749C65.2026 168.594 70.9608 180.849 75.8331 193.694C78.0478 199.304 81.5912 199.895 85.43 204.177C86.9064 205.948 88.3829 208.015 88.5305 210.082C90.5976 208.163 101.376 208.311 104.771 214.955C108.167 208.311 118.798 208.163 120.865 210.082C120.865 208.015 122.489 205.948 123.965 204.177C127.804 199.895 131.348 199.304 133.562 193.694C138.287 180.849 144.193 168.594 148.77 155.749C146.85 155.749 144.636 156.192 143.897 158.407C141.535 164.313 129.428 192.808 125.294 198.714C125.294 198.714 121.751 206.244 104.919 206.244C88.0876 206.244 84.5441 198.714 84.5441 198.714C80.4101 192.66 68.1555 164.313 65.9409 158.407C64.7597 156.192 62.6927 155.749 60.6257 155.749Z" fill="#CC092F"/>
<path d="M81.1484 180.703C83.0678 184.542 84.9872 188.381 87.0542 191.924L91.1883 184.394C91.9265 185.28 94.5841 187.347 96.6511 188.971C97.2417 188.233 99.1611 186.314 100.342 184.837C101.819 186.166 103.886 187.347 104.624 188.085C105.362 187.347 107.429 186.166 108.906 184.837C110.087 186.166 112.154 188.085 112.597 188.971C114.664 187.347 117.321 185.28 118.06 184.394L122.194 191.924C124.113 188.381 126.18 184.542 127.952 180.703C118.945 183.065 114.073 183.065 104.476 182.918C95.027 183.065 90.1548 183.213 81.1484 180.703ZM107.577 195.911C106.839 196.649 105.953 197.092 104.624 199.159C103.148 197.092 102.262 196.944 101.671 196.058C99.7517 198.273 99.8993 198.273 98.2752 199.749C96.3558 198.273 95.9129 197.978 93.9935 196.501L91.1883 199.306C96.0606 203.293 101.08 202.407 104.624 203.145C108.167 202.407 113.335 203.145 118.06 199.306L115.254 196.353C113.335 197.83 112.892 198.125 111.12 199.749C109.349 197.978 109.496 197.83 107.577 195.911Z" fill="#FEFEFE" stroke="white" stroke-width="0.435995" stroke-miterlimit="5.9058"/>
<path d="M86.0188 41.1758C88.2335 45.6051 88.0858 50.3298 88.0858 50.3298C78.046 40.1423 46.5977 46.0481 46.5977 46.0481C54.7181 49.5915 76.8648 46.3434 90.5958 71.5906C97.978 66.7183 97.6828 46.491 86.0188 41.1758ZM122.782 41.3234C111.118 46.6386 110.823 66.866 118.205 71.7383C131.936 46.3433 153.935 49.7392 162.204 46.1957C162.204 46.1957 130.755 40.2899 120.715 50.4774C120.863 50.4774 120.568 45.7528 122.782 41.3234ZM95.3204 97.1332C86.4618 97.1332 80.556 105.844 75.979 112.784C75.3884 113.669 75.8313 114.851 77.0125 114.703C82.4753 111.012 87.6429 105.844 94.2869 104.958C98.421 104.22 101.817 105.401 104.622 108.059C107.28 105.401 110.823 104.072 114.957 104.958C121.601 105.992 126.621 111.012 132.084 114.703C133.413 114.851 133.708 113.669 133.118 112.784C127.95 104.811 121.011 94.7708 109.79 97.7237C108.166 98.019 106.541 99.2002 104.622 100.529C102.555 99.2002 100.931 98.019 99.3068 97.7237C97.978 97.2808 96.6492 97.1332 95.3204 97.1332ZM96.354 116.77C88.3811 116.77 83.0659 124.447 78.9319 130.796C78.4889 131.534 78.7842 132.716 79.8177 132.568C84.8377 129.172 89.4146 124.595 95.3204 123.709C99.0116 122.971 102.112 124.152 104.622 126.514C106.984 124.152 110.085 122.971 113.776 123.709C119.829 124.595 124.259 129.172 129.279 132.568C130.46 132.716 130.608 131.534 130.165 130.796C125.44 123.562 119.239 114.555 109.199 117.213C107.723 117.36 106.394 118.394 104.474 119.723C102.555 118.394 101.226 117.508 99.7498 117.213C98.5686 116.918 97.3875 116.77 96.354 116.77ZM104.622 138.474C102.998 138.474 101.079 139.064 99.3068 139.95C95.3204 142.312 91.777 140.098 87.6429 140.836C84.9853 142.017 82.1801 144.084 80.8512 146.742C78.046 154.715 83.5089 160.325 86.9047 166.083C90.1529 169.627 95.1728 168.889 99.4545 167.707C101.079 165.936 102.85 165.345 104.77 165.345C106.689 165.345 108.461 166.083 110.085 167.707C114.367 168.889 119.387 169.627 122.635 166.083C125.883 160.178 131.346 154.567 128.541 146.742C127.212 144.084 124.259 142.017 121.749 140.836C117.615 140.098 113.924 142.312 110.085 139.95C108.166 138.917 106.246 138.474 104.622 138.474Z" fill="black" stroke="black" stroke-width="0.435995" stroke-miterlimit="5.9058"/>
</g>
<path d="M130.932 91.8886L134.281 91.8894L134.277 103.951L130.932 91.8886ZM66.1052 91.878L69.4562 91.8768L66.11 103.922L66.1052 91.878ZM130.881 67.0557L130.885 46.767L69.4929 46.7587L69.472 67.0569L0.836048 67.0293L0.824219 132.306L41.2621 132.317H58.2132L52.5744 152.6L147.788 152.617L142.156 132.331L159.108 132.334L199.55 132.339L199.562 67.0664L130.879 67.0549" fill="white"/>
<path d="M78.8038 56.0822L78.7994 70.5312L86.5843 70.5318C84.248 78.9407 72.0581 123.81 66.7041 141.835L66.2636 143.32L91.2132 143.326L91.2157 128.878L85.5271 128.876L90.6454 110.973L109.697 110.977L114.81 128.88L109.121 128.879L109.118 143.328L134.041 143.334L123.538 105.473C121.013 96.3751 118.489 87.2776 116.592 80.4511L114.301 72.2031C114.113 71.5201 113.96 70.974 113.837 70.5371H121.556L121.559 56.09L78.8052 56.082L78.8038 56.0822ZM9.41232 75.6536L9.40801 103.511L25.6024 103.513L25.5901 116.093L17.0424 116.095V112.049H9.4042L9.40234 123.73L33.2188 123.735L33.2232 95.8741H17.0442L17.0492 83.2926L25.6091 83.2939V87.3381H33.2253V75.6576L9.41254 75.6539L9.41232 75.6536ZM41.7626 75.6561V83.2981L49.8481 83.2987L49.8426 123.737H57.4789L57.4863 83.2987L65.5749 83.3012V75.6637L41.7626 75.6561ZM134.776 75.6752V83.3115L142.861 83.3128L142.854 123.751L150.494 123.755L150.5 83.3159L158.589 83.3134L158.591 75.6758L134.776 75.674L134.776 75.6752ZM167.129 75.6795L167.119 123.759L190.936 123.76V116.123L174.759 116.122L174.762 103.54L190.939 103.541L190.941 95.9026L174.763 95.8971L174.766 83.3194L190.944 83.3237V75.683L167.129 75.6799L167.129 75.6795ZM100.179 75.9925L106.725 100.573L93.6212 100.571L100.179 75.9925Z" fill="#CC092F"/>
<path d="M71.8741 49.1523L71.8709 69.3714L3.11985 69.3609L3.10938 130.02L39.507 130.03L39.5138 90.4844L43.5561 90.4856L43.548 130.032L61.2989 130.03L55.6787 150.251L98.1394 150.255L98.1462 121.95L95.3373 121.948L96.1235 117.907H104.214C104.214 117.907 105.147 121.952 105.111 121.952C105.111 121.952 102.238 121.939 102.19 121.95L102.184 150.258L144.648 150.265C144.667 150.267 142.24 141.496 139.06 130.044L156.783 130.049L156.787 90.5063L160.836 90.5057L160.83 130.052L197.222 130.055L197.23 69.3957L128.485 69.3828L128.488 49.1651L71.8726 49.1546L71.8741 49.1523ZM75.9157 53.1953L124.443 53.2057L124.441 69.3802V73.4251L118.373 73.4244L138.579 146.217L106.232 146.21L106.234 125.992H110.504C110.616 125.994 107.359 113.861 107.359 113.861L92.9818 113.86C93.041 114.213 90.0589 125.989 90.0589 125.989L94.1024 125.988L94.0981 146.21L62.1674 146.201L82.2022 73.4153H75.9123L75.9172 53.1944L75.9157 53.1953ZM7.16466 73.4054L35.4733 73.4122L35.4708 89.582L23.3392 89.5814V85.5406L19.2937 85.537V93.6256L35.4682 93.6275L35.4646 125.981L7.15592 125.974L7.15838 109.799L19.2893 109.801V113.845H23.3342V105.759L7.15838 105.755L7.16454 73.405L7.16466 73.4054ZM39.5181 73.4122L67.8261 73.4159L67.8236 85.5475H59.7355L59.7294 125.983L47.5965 125.982L47.6027 85.5431L39.5159 85.5418L39.5178 73.4121L39.5181 73.4122ZM132.528 73.4252L160.838 73.4307L160.836 85.5623L152.745 85.5604L152.738 126.002L140.606 126L140.616 85.5617L132.526 85.5591L132.528 73.4263L132.528 73.4252ZM164.881 73.4319L193.189 73.4375L193.187 85.5684L177.012 85.5659V93.6527L193.187 93.6546L193.184 105.787L177.01 105.783L177.008 113.872L193.182 113.877L193.18 126.008L164.873 126.002L164.881 73.431L164.881 73.4319ZM71.8684 77.4584L75.9107 77.4597L63.7712 121.132L63.7755 89.5872L71.8658 89.5897L71.8683 77.4575L71.8684 77.4584ZM124.44 77.4677L128.424 77.4695L128.422 89.6005L136.571 89.6037L136.564 121.06C130.939 100.804 124.441 77.4664 124.441 77.4664L124.44 77.4677ZM100.176 85.7762L97.0285 97.6842L103.095 97.6854L100.176 85.7762Z" fill="black"/>
<defs>
<clipPath id="clip0_107_20246">
<rect width="200" height="200" fill="white"/>
</clipPath>
</defs>
</svg>
