<svg width="200" height="201" viewBox="0 0 200 201" fill="none" xmlns="http://www.w3.org/2000/svg">
<path fill-rule="evenodd" clip-rule="evenodd" d="M11.3008 122.184C15.7013 111.829 23.7263 93.7095 41.5878 85.6834C38.2229 85.9428 32.5273 86.7189 29.6801 89.0495C43.1412 68.3407 53.4955 58.5041 74.9804 54.6202C73.4271 50.2197 66.1793 48.6675 63.3321 53.5847C63.5905 44.2659 71.3559 37.5348 80.1581 41.677C77.8287 36.2409 72.3926 30.8048 64.1082 33.3937C68.5088 27.1815 79.3809 19.6743 93.1014 26.6637C99.3136 12.6849 109.926 0 136.331 0C162.735 0 183.964 23.8154 166.101 61.3513C168.948 43.4898 149.533 39.8653 142.546 55.6569C151.864 59.7991 158.853 65.4935 161.442 68.8596C164.029 72.2246 164.029 75.3313 162.995 78.1785C172.831 86.4617 179.045 95.2639 173.866 115.454C185.258 125.032 198.459 152.99 179.561 173.181C180.857 165.673 179.303 163.344 176.714 162.826C178.785 177.841 171.28 191.56 154.712 192.337C149.533 199.067 144.097 202.692 136.073 196.997C131.93 200.103 127.272 201.914 122.093 196.738C116.917 191.56 113.81 189.748 110.445 188.972C107.08 188.196 101.386 182.242 101.386 173.441C101.386 167.746 103.197 164.64 105.009 162.05C106.338 160.154 108.116 157.65 108.892 155.32C101.386 157.908 92.067 154.544 90.2553 146.26C90.7731 152.472 88.1854 155.577 85.0787 160.755C84.5609 135.128 59.1922 114.678 36.4123 114.678C24.7618 114.675 14.148 119.078 11.3008 122.184Z" fill="black"/>
<path fill-rule="evenodd" clip-rule="evenodd" d="M31.8477 107.067C36.9697 99.2496 49.3701 83.0745 69.0501 80.9181C63.1202 79.301 59.0747 76.604 46.4046 82.2666C65.5452 63.1259 115.42 38.5925 148.041 69.5953C147.979 67.5663 146.943 64.718 145.392 62.648C160.148 70.9313 158.334 78.4385 153.933 78.1801C154.192 76.109 154.194 75.3329 153.675 73.7796C153.156 72.2263 150.966 72.4653 151.086 73.7796C151.345 76.6268 150.31 78.9574 147.721 77.9218C144.515 76.6393 132.62 68.677 128.825 64.2025C121.578 55.6597 101.903 53.0708 104.75 73.0035C107.857 67.308 115.652 60.2856 122.093 66.0141C124.425 68.0852 126.447 70.8596 128.047 75.8507C132.448 89.5712 144.097 89.5712 147.463 81.2868C148.496 81.2868 150.31 81.5462 152.122 81.2868C149.015 85.429 142.027 92.6767 135.554 88.2762C115.898 74.9085 100.867 96.5606 117.174 107.949C106.303 106.138 88.9589 114.679 86.6295 136.683C82.4873 120.115 78.0867 112.868 68.2501 107.691C69.2857 110.278 70.839 115.457 71.6163 119.598C62.2963 110.537 52.9775 103.548 31.8477 107.067Z" fill="#31939B"/>
<path fill-rule="evenodd" clip-rule="evenodd" d="M61.7773 104.065C68.249 93.9705 91.0288 65.2357 121.834 80.25C112.515 80.7678 104.748 88.275 106.56 98.8877C103.454 98.1104 96.9827 98.3699 94.6533 105.619C93.876 100.441 92.0644 92.6755 97.5005 87.4977C87.4055 89.0522 75.7562 90.8638 61.7773 104.065Z" fill="black"/>
<path fill-rule="evenodd" clip-rule="evenodd" d="M85.594 50.7408C88.1829 42.4575 87.6651 34.9503 76.793 31.3259C84.5585 30.5487 93.8784 29.2548 100.868 37.2797C100.091 19.4182 115.105 6.73438 135.295 6.73438C149.793 6.73438 166.876 19.1599 165.582 40.6447C156.005 28.2192 130.118 32.3603 125.718 51.2585C114.846 48.1519 98.0195 46.5986 85.594 50.7408ZM133.744 111.057C127.79 114.68 124.051 122.664 123.129 132.8C122.093 144.19 114.587 150.403 107.598 150.403C100.61 150.403 92.8429 144.967 92.8429 134.612C92.8429 119.34 108.633 111.315 122.094 111.315C126.235 111.315 130.637 111.315 133.744 111.057Z" fill="#C2A159"/>
<path fill-rule="evenodd" clip-rule="evenodd" d="M95.8906 137.208C97.0092 143.951 102.448 147.559 107.595 147.559C113.229 147.559 119.399 142.4 120.294 132.542C120.565 129.563 121.064 126.787 121.768 124.238C120.021 125.292 116.656 127.623 113.807 128.915C114.842 135.646 112.256 143.154 105.524 143.154C100.606 143.154 96.8704 139.805 95.8906 137.208Z" fill="black"/>
<path fill-rule="evenodd" clip-rule="evenodd" d="M141.51 111.052C138.143 115.452 137.11 121.148 137.367 126.843C137.628 132.538 137.885 140.563 127.272 142.375C128.566 139.786 129.084 134.867 128.825 130.208C128.566 125.548 130.895 114.158 141.51 111.052ZM150.604 102.816C150.119 102.639 149.584 102.436 149.074 102.248C149.074 102.257 144.828 103.169 142.373 103.921C139.23 104.885 135.667 105.976 132.192 105.976C128.722 105.976 117.382 105.188 117.076 95.0366C116.971 91.6193 118.423 90.066 119.657 89.3661C124.528 86.602 134.095 92.0791 137.98 94.5621C142.459 97.423 147.2 99.1527 151.382 100.68C153.922 101.606 156.114 102.406 157.834 103.316C161.762 105.396 164.646 107.665 169.606 112.781C173.897 89.0043 159.733 82.4985 156.121 80.6914L154.398 82.9878C147.701 91.9175 140.059 94.7704 133.959 90.6225C125.113 84.6072 117.722 86.6703 114.667 91.1789C112.778 93.9669 113.296 101.732 118.806 105.614C126.4 110.964 141.849 108.531 152.455 103.496C151.861 103.277 151.243 103.05 150.604 102.816Z" fill="#C2A159"/>
<path fill-rule="evenodd" clip-rule="evenodd" d="M139.392 84.1005C141.311 84.1722 143.002 83.2436 144.124 81.5605C139.49 80.2815 132.191 74.5563 128.75 70.0625C129.508 71.5237 130.168 73.1498 130.755 74.9831C132.86 81.5446 136.596 83.9947 139.392 84.1005Z" fill="white"/>
<path fill-rule="evenodd" clip-rule="evenodd" d="M150.051 90.8605C152.122 88.5311 154.505 85.066 156.263 84.3889C159.628 83.0939 160.395 87.8073 158.334 88.0133C155.745 88.2716 152.641 88.5311 150.051 90.8605Z" fill="black"/>
<path fill-rule="evenodd" clip-rule="evenodd" d="M120.314 92.1733C122.109 94.7997 123.494 95.8751 126.761 96.9869C127.431 97.2145 128.984 98.2284 128.59 99.0125C128.275 99.6452 127.219 99.9285 126.303 99.4051C123.502 97.8051 121.391 97.4261 119.355 95.1024C119.693 102.857 128.428 103.7 132.188 103.7C134.271 103.7 137.447 103.15 139.561 102.574C138.29 102.292 136.401 101.608 135.413 101.016C135.269 100.93 135.143 100.817 135.043 100.682C134.942 100.547 134.87 100.394 134.829 100.231C134.788 100.067 134.779 99.898 134.804 99.7317C134.829 99.5654 134.886 99.4057 134.973 99.2617C135.337 98.6551 136.139 98.4332 136.729 98.8224C140.267 101.162 144.299 100.966 145.196 100.735C142.431 99.5996 139.533 98.2534 136.753 96.4771C129.601 91.9081 123.328 89.8928 120.775 91.3425C120.621 91.4288 120.478 91.5318 120.348 91.6498C120.267 91.7238 120.199 92.0048 120.314 92.1733Z" fill="white"/>
<path fill-rule="evenodd" clip-rule="evenodd" d="M182.665 140.303C176.711 121.665 167.911 119.077 166.097 117.005C164.286 114.935 158.85 110.273 147.719 110.273C144.872 113.122 143.319 118.817 143.836 126.583C144.354 134.348 141.765 139.525 138.66 142.374C135.553 145.222 132.445 146.256 128.045 146.256C129.856 146.775 131.151 148.327 131.151 150.139C132.705 149.103 135.034 149.103 137.105 149.362C136.587 148.068 136.07 147.29 136.07 147.29C140.213 148.587 142.024 151.434 142.8 156.352C144.353 155.574 145.388 155.575 147.461 155.575C146.682 155.058 145.905 154.28 145.905 154.28C147.201 154.02 149.531 154.28 151.341 154.798C150.823 153.763 150.308 152.727 149.272 151.692C160.146 155.317 161.697 167.742 161.179 176.542C160.403 177.06 159.11 177.579 158.073 178.613C158.591 175.766 158.332 172.66 157.295 167.483C156.258 162.305 152.379 158.683 148.753 158.165C146.687 157.869 142.8 158.165 139.692 161.27C140.47 158.683 140.21 156.093 139.692 155.057C138.883 153.437 136.327 153.244 133.997 152.727C131.668 152.209 129.079 155.057 128.044 157.386C127.785 156.352 126.815 153.309 127.785 151.692C129.339 149.103 127.785 148.587 124.938 148.587C122.091 148.587 120.795 149.621 117.948 152.468C115.227 155.191 115.876 157.904 114.324 162.046C115.618 160.493 116.654 159.717 118.465 159.199C114.583 165.411 116.136 172.92 119.759 175.507C118.465 169.813 118.724 166.965 120.538 162.305C121.314 163.6 122.089 164.894 123.385 165.152C118.984 182.239 129.339 190.004 134.258 188.709C130.375 182.497 130.893 174.471 131.669 169.554C132.445 170.848 134.258 172.659 136.07 172.659C135.809 176.025 135.034 186.379 138.659 189.743C144.311 194.991 148.823 189.709 150.22 183.164C148.802 183.204 147.875 182.553 147.46 181.719C148.5 181.42 149.193 180.775 149.698 179.941C149.017 175.719 149.621 172.739 150.047 171.883C150.565 170.848 152.379 169.554 154.191 169.813C152.12 171.624 152.637 175.508 152.637 178.613C152.637 181.719 155.743 186.638 159.885 185.344C164.028 184.049 170.758 174.731 171.792 169.813C172.829 164.895 173.606 156.87 172.827 149.879C175.157 151.433 176.971 154.022 179.042 157.645C179.818 148.068 178.524 141.595 174.123 135.902C177.229 136.421 180.076 138.232 182.665 140.303Z" fill="#31939B"/>
<path fill-rule="evenodd" clip-rule="evenodd" d="M158.076 116.488C165.065 119.852 169.725 124.254 175.162 132.279C172.312 130.984 169.465 129.948 167.136 129.43C171.536 135.644 174.126 141.338 174.901 147.551C172.312 144.185 170.76 143.151 169.207 141.856C170.501 147.81 171.019 154.281 166.618 165.154C166.36 148.069 163.512 133.574 147.203 126.843C150.568 126.843 154.969 126.583 159.369 127.878C157.816 124.772 154.969 121.924 149.274 120.112C154.969 120.112 159.369 120.889 164.546 125.289C163.253 122.96 161.7 119.594 158.076 116.488Z" fill="black"/>
<path fill-rule="evenodd" clip-rule="evenodd" d="M118.985 180.944C120.797 186.379 124.421 191.039 132.706 192.074C130.894 194.921 127.27 194.922 124.94 192.851C122.608 190.78 118.986 186.121 115.621 184.826C112.256 183.531 104.491 176.026 109.149 170.07C109.149 170.07 110.442 170.849 111.22 171.366C111.22 176.024 114.585 180.426 118.985 180.944Z" fill="#31939B"/>
</svg>
