<svg width="200" height="200" viewBox="0 0 200 200" fill="none" xmlns="http://www.w3.org/2000/svg">
<path d="M190.171 40.6211C190.171 40.6211 185.631 40.6261 182.175 40.6261C180.185 40.6261 178.959 40.6236 178.523 40.6211C161.607 40.5746 154.509 37.1504 145.522 32.8132L145.145 32.6298C135.494 27.9059 123.479 22.0291 100.273 22.0291H100.009H99.7271C76.5213 22.0291 64.5085 27.9059 54.8551 32.6298L54.4782 32.8132C45.493 37.1504 38.3949 40.5746 21.4575 40.6211C21.0414 40.6236 19.8201 40.6261 17.8228 40.6261C14.3693 40.6261 9.83135 40.6211 9.83135 40.6211L4.89453 40.6163L5.9372 45.4381C6.10608 46.214 10.1251 64.0473 25.5205 71.6079C26.8153 74.0311 28.8664 77.0831 32.0189 80.0374C32.0654 82.4654 32.1609 86.8516 32.3028 89.6199C32.5549 98.9012 34.3882 107.145 37.7463 114.123C41.5523 123.027 47.3189 130.431 54.882 136.129L54.9384 136.171C56.4289 137.297 58.6807 138.995 59.1531 139.688C59.9021 140.873 60.6804 143.834 61.3682 146.456C62.8612 152.129 64.9075 159.9 70.3314 166.245C76.7612 173.773 87.0045 177.827 99.9572 177.966L100.001 177.969L100.043 177.966C112.996 177.827 123.239 173.774 129.666 166.247C135.093 159.901 137.139 152.129 138.632 146.448C139.32 143.834 140.098 140.873 140.852 139.683C141.319 138.995 143.571 137.297 145.062 136.171L145.118 136.132C152.683 130.431 158.45 123.027 162.254 114.123C165.617 107.145 167.447 98.9012 167.7 89.6199C167.842 86.8516 167.937 82.4654 167.984 80.0374C171.136 77.0831 173.187 74.0311 174.482 71.6079C189.875 64.0473 193.894 46.214 194.06 45.4381L195.105 40.6163L190.171 40.6211Z" fill="white"/>
<path d="M73.2523 163.881C68.3987 158.205 66.5605 151.213 65.0821 145.598C64.2451 142.409 63.4545 139.4 62.3727 137.692C61.5821 136.431 59.4135 134.801 57.1201 133.071C52.1539 129.331 45.6212 122.992 41.1788 112.572L41.1568 112.521C41.147 112.516 41.1446 112.501 41.1446 112.499C38.32 106.649 36.3105 99.1863 36.0511 89.4374C35.8479 85.5604 35.7403 78.1613 35.7403 78.1613C31.7947 74.8497 29.4964 71.2444 28.1992 68.4859C13.3226 62.0463 9.51172 44.4259 9.51172 44.4259C9.51172 44.4259 19.7672 44.4381 21.2161 44.4259C39.3505 44.377 47.2098 40.4583 56.4372 36.0061C66.4945 31.084 77.7192 25.7287 99.9826 25.7728C122.248 25.7287 133.473 31.084 143.53 36.0061C152.76 40.4583 160.62 44.377 178.754 44.4259C180.203 44.4381 190.454 44.4259 190.454 44.4259C190.454 44.4259 186.645 62.0463 171.771 68.4859C170.474 71.2444 168.175 74.8497 164.23 78.1613C164.23 78.1613 164.122 85.5604 163.917 89.4374C163.66 99.1863 161.65 106.649 158.826 112.499C158.826 112.501 158.823 112.516 158.813 112.521L158.791 112.572C154.346 122.992 147.816 129.331 142.848 133.071C140.554 134.801 138.386 136.431 137.595 137.692C136.511 139.4 135.72 142.409 134.883 145.598C133.407 151.213 131.567 158.205 126.715 163.881C120.959 170.622 111.76 174.115 99.9826 174.242C88.2072 174.115 79.0091 170.622 73.2523 163.881Z" fill="#0039A6" fill-opacity="0.94"/>
<path d="M139.188 113.412C139.198 113.4 140.686 111.576 141.749 108.928C141.778 108.852 141.805 108.774 141.834 108.698C130.845 107.193 121.194 108.03 118.651 108.299C124.544 109.153 132.247 110.989 138.865 113.799L139.188 113.412ZM128.686 89.0387C129.516 89.0387 130.365 89.0974 131.222 89.2223C129.22 87.7366 127.068 86.268 124.868 84.9071C122.613 86.1114 121.282 87.9765 120.415 89.8245L119.808 91.0947L121.135 90.5562C123.269 89.6922 125.883 89.0387 128.686 89.0387ZM142.446 106.759C142.914 104.835 142.926 103.019 142.483 101.333C132.519 101.497 124.28 103.318 122.643 103.705C124.696 103.793 133.285 104.29 142.446 106.759ZM141.506 99.0103C140.819 97.904 139.695 96.5871 138.249 95.1577C132.054 96.1245 127.156 97.9284 125.178 98.7336C127.91 98.5256 134.675 98.1634 141.506 99.0103ZM91.213 162.225C82.6488 162.225 79.6211 156.757 79.6211 156.757C76.9312 152.508 75.6487 147.37 74.4983 142.805C73.5021 138.852 72.5671 135.157 70.9003 132.41C69.3828 129.877 66.803 127.836 63.7533 125.437C57.4605 120.505 49.1117 113.397 46.4022 98.413H49.0823C52.2911 81.9602 60.8382 70.4393 62.2455 68.6281C61.0805 66.2857 60.8015 63.5077 60.7941 63.4759C61.5798 63.706 62.7766 63.9899 63.8977 64.2347C67.4834 62.257 70.6604 60.8937 73.2475 59.9587C73.7444 56.9383 74.3955 54.4785 74.9902 52.8386C75.8714 50.4081 77.1906 49.177 77.8245 48.6581C80.3676 46.5776 82.5093 45.5373 82.5093 45.5373C81.4005 49.4217 80.7959 54.3317 80.4729 58.101C81.8631 60.4042 85.1895 63.5982 87.0961 65.3409C88.4032 64.2199 89.7371 63.0108 90.7186 62.1077C91.0123 56.3484 91.2032 48.5431 91.2938 44.3528C89.0175 39.7391 86.5038 35.6931 84.9202 33.2822C58.2584 37.2106 56.3958 51.8962 21.7891 51.8962C22.2541 52.677 23.1254 53.9913 24.4447 55.4232C26.5496 57.7117 30.106 60.3649 34.5876 61.5031C34.595 61.5031 34.8911 63.1993 35.9289 65.2063C36.9202 67.1277 38.6212 69.5901 41.5118 71.8884C41.5118 71.8884 41.5119 71.8859 41.5168 71.8834C42.3098 70.5471 43.1811 69.2058 44.0574 67.911C41.7738 65.8697 40.3566 63.7696 39.4852 62.0832C38.4499 60.0761 38.1415 58.3825 38.1415 58.3825C36.9006 58.1328 33.327 57.2884 30.1794 55.2348C35.3904 55.8712 43.3843 55.1295 55.0423 50.1951C55.0423 50.1951 54.2052 53.2865 52.3181 56.4169C56.3028 55.712 61.9543 54.4932 66.5436 51.6589C62.0228 58.3335 57.6244 60.174 56.0286 62.0832C54.1293 64.3031 44.8798 75.9024 43.2472 82.55C39.3996 118.057 63.5893 125.28 68.7489 133.651C73.8962 142.374 72.151 162.768 90.513 167.519C90.513 167.519 99.1848 169.996 101.924 158.003C101.924 158.003 97.6061 162.225 91.213 162.225ZM114.659 87.1638C114.008 84.9781 112.967 82.8144 112.233 82.4619C111.058 81.7839 107.397 81.1158 104.508 81.5294C105.451 79.9825 107.891 78.7343 109.793 78.1542C108.483 77.327 106.941 77.1311 105.766 77.136C105.135 77.1776 104.513 77.2363 103.933 77.3048C104.932 74.7887 108.361 72.9555 110.263 72.6226C108.229 71.2911 103.786 70.033 99.9779 75.9978C96.1792 70.0477 91.7466 71.2862 89.7077 72.6128C91.6707 72.8967 95.4033 74.5048 96.025 77.3024C95.8316 77.2682 95.6407 77.2412 95.4523 77.2143C94.3802 77.0797 92.0036 76.9695 90.1238 78.1786C91.9571 78.8003 94.2749 80.1221 95.2246 81.6739C90.9707 80.9567 86.8171 82.8903 85.4807 84.1679L84.6191 84.9781C82.0736 80.2958 76.7648 83.8424 75.1004 84.9144C77.3498 86.1162 78.6764 87.979 79.5404 89.8245L80.1473 91.0947L79.697 90.9111C77.7487 90.1866 69.7988 87.881 61.9469 94.9521C65.0847 95.7427 69.1307 97.0032 72.0287 98.5844C65.3761 97.9186 57.8007 100.322 57.8007 100.322C57.8007 100.322 68.4086 101.054 74.6427 103.883C64.7323 104.065 57.764 107.645 57.764 107.645C57.764 107.645 62.8574 107.249 66.1446 107.249C69.6667 107.249 74.2584 107.628 78.6176 108.762C69.8405 109.772 61.8246 114.611 61.8246 114.611C61.8246 114.611 76.1284 113.334 86.6898 112.949C86.7902 112.945 84.6191 110.693 83.3855 106.852C87.566 109.136 92.0941 110.612 96.0911 110.754C94.6641 109.655 93.149 108.15 91.6487 106.483C91.5165 106.316 91.3794 106.162 91.3647 105.849C91.3868 105.266 91.9815 105.144 92.1871 105.144C92.3829 105.144 92.5616 105.181 92.7525 105.237C92.941 105.291 93.1099 105.315 93.2616 105.315C93.4623 105.315 93.619 105.271 93.7487 105.19C93.9984 105.029 94.1893 104.662 94.1893 104.038C94.1991 103.169 93.7805 101.916 92.9752 100.738C91.8885 99.1302 90.3587 98.1731 89.5461 98.2049C89.3307 98.2123 89.1839 98.2515 89.0517 98.3445C88.8045 98.4962 88.621 98.8512 88.6136 99.4558C88.5916 99.9722 88.5035 100.675 87.6542 100.782C87.1622 100.755 86.9028 100.467 86.6604 100.124C84.4111 96.8441 82.8201 94.0784 82.7663 92.6098C82.7663 92.4042 82.7883 92.1619 82.9621 91.9489C83.4467 91.3126 84.2349 91.2 85.1184 91.1829C89.3528 91.2098 98.4701 94.7979 99.9803 95.3927C101.493 94.7979 110.605 91.217 114.835 91.1876C115.16 91.1925 115.459 91.2098 115.741 91.2588C115.51 90.2161 115.133 88.6789 114.659 87.1638ZM115.038 33.2797C113.454 35.693 110.941 39.7391 108.664 44.3528C108.753 48.5431 108.946 56.3484 109.24 62.1077C110.221 63.0108 111.553 64.2199 112.86 65.3409C114.793 63.5762 118.183 60.3184 119.539 58.0103C119.539 58.0103 127.91 59.0481 139.502 66.2514C138.511 63.5322 136.91 59.9979 136.508 59.1217C135.059 58.3458 132.852 57.0852 130.69 55.5212C126.943 52.8141 128.111 47.5175 128.111 47.5175C133.862 51.2452 142.339 54.5225 147.442 56.0841C145.692 53.0711 144.914 50.1951 144.914 50.1951C156.574 55.1295 171.989 57.3078 178.172 51.8986C143.562 51.8986 141.697 37.2106 115.038 33.2797ZM111.227 100.349C111.435 99.4191 111.32 98.6651 110.843 98.3445C109.976 97.7668 108.246 98.8315 106.978 100.724C105.708 102.62 105.38 104.625 106.246 105.205C106.535 105.396 106.919 105.408 107.348 105.266C107.48 105.222 107.754 105.095 108.033 104.762C109.015 103.582 109.974 102.349 110.862 101.118C111.117 100.768 111.198 100.484 111.227 100.349ZM93.0854 123.31L96.3823 127.4C96.3823 127.4 98.2205 125.112 99.9828 122.791C101.733 125.112 103.583 127.4 103.583 127.4L106.88 123.31C108.141 125.44 109.318 127.4 109.318 127.4C111.227 125.063 112.04 122.125 112.387 120.27C108.471 120.114 104.291 120.011 99.9828 120.011C95.6701 120.011 91.492 120.114 87.5758 120.27C87.9234 122.125 88.7384 125.063 90.6451 127.4C90.6451 127.4 91.8249 125.44 93.0854 123.31ZM117.104 135.905C122.273 131.417 123.896 124.328 124.388 120.97C121.495 120.757 118.269 120.544 114.808 120.378C116.935 125.873 116.215 134.692 116.228 135.494C116.245 136.39 116.59 136.356 117.104 135.905ZM75.5679 120.97C76.0696 124.328 77.6924 131.417 82.8568 135.905C83.3782 136.356 83.7184 136.39 83.7331 135.494C83.7453 134.692 83.0258 125.873 85.1527 120.378C81.6918 120.544 78.4707 120.757 75.5679 120.97ZM88.5426 150.383C88.7751 150.199 89.0151 150.018 89.2696 149.852C90.3759 149.115 91.6242 148.75 92.9729 148.75C94.3631 148.75 95.6285 149.125 96.7348 149.46C97.8289 149.791 98.8667 150.097 99.9779 150.097C101.084 150.097 102.122 149.791 103.216 149.46C104.33 149.125 105.588 148.75 106.98 148.75C108.331 148.75 109.577 149.115 110.681 149.852C110.941 150.018 111.181 150.199 111.413 150.383C116.147 143.968 112.422 133.996 112.196 136.326C111.795 140.531 110.148 143.116 108.618 144.634C107.463 143.339 106.143 142.206 106.143 142.206C106.143 142.206 104.298 144.218 103.064 145.855C101.833 144.218 99.9779 142.206 99.9779 142.206C99.9779 142.206 98.1373 143.794 96.9012 145.368C95.6701 143.789 93.8148 142.206 93.8148 142.206C93.8148 142.206 92.5004 143.341 91.3427 144.643C89.8105 143.126 88.1584 140.544 87.757 136.326C87.5342 133.996 83.8138 143.968 88.5426 150.383ZM77.7977 74.7936C77.8123 74.8058 77.8074 74.8769 77.8074 74.8842C77.8074 74.987 77.7829 75.1167 77.6777 75.2171C77.5773 75.3199 77.4427 75.3468 77.3644 75.3444C77.1466 75.3346 77.0682 75.2586 77.0438 75.2513C74.9486 73.7925 73.7714 71.0463 73.2206 69.0613C71.3947 69.1666 69.3191 69.4505 67.1065 69.9719C68.8932 71.0488 72.058 73.281 74.3636 76.737C76.3119 76.431 78.434 76.3429 80.1914 76.3429C80.7862 76.3429 81.3295 76.3552 81.8166 76.3723C81.8435 76.365 81.8802 76.365 81.9072 76.3723C82.989 76.3552 83.5691 75.7481 83.5838 75.0041C83.5838 74.7715 83.5202 74.5171 83.3807 74.2478C82.3845 72.3558 81.1827 70.6327 79.7361 69.776C79.5061 69.6389 79.1243 69.4946 78.625 69.3722C77.9225 70.6376 77.7144 72.2015 77.7144 73.4302C77.7144 73.9687 77.7487 74.4362 77.7977 74.7936ZM122.244 73.4302C122.244 72.2015 122.033 70.6376 121.331 69.3722C120.834 69.4946 120.45 69.6389 120.22 69.776C118.773 70.6327 117.571 72.3558 116.575 74.2478C116.436 74.5171 116.372 74.7715 116.372 75.0041C116.387 75.7481 116.967 76.3552 118.049 76.3723C118.078 76.365 118.112 76.365 118.139 76.3723C118.626 76.3552 119.169 76.3429 119.767 76.3429C121.522 76.3429 123.644 76.431 125.592 76.737C127.898 73.281 131.062 71.0488 132.849 69.9719C130.637 69.4505 128.561 69.1666 126.738 69.0613C126.184 71.0463 125.007 73.7925 122.912 75.2513C122.89 75.2586 122.809 75.3346 122.591 75.3444C122.513 75.3468 122.381 75.3199 122.278 75.2171C122.173 75.1167 122.148 74.987 122.148 74.8842C122.148 74.8769 122.143 74.8058 122.161 74.7936C122.207 74.4362 122.244 73.9687 122.244 73.4302ZM139.778 71.6264L144.488 73.2442C143.491 73.6285 135.99 76.7395 130.872 83.4337C128.967 82.3567 126.826 81.5661 125.23 81.0594C126.346 81.0227 127.628 81.0227 128.874 81.1158L129.254 81.1426L129.45 80.8246C132.556 75.7213 138.251 72.4389 139.778 71.6264Z" fill="white"/>
</svg>
