<svg width="200" height="200" viewBox="0 0 200 200" fill="none" xmlns="http://www.w3.org/2000/svg">
<path d="M1.17843 41.1744C1.17843 41.1744 30.8825 51.3787 47.8446 62.9566C23.9423 73.3873 13.974 107.797 13.974 107.797C13.974 107.797 22.379 104.175 22.9063 103.948C2.67608 128.038 0 158.831 0 158.831C0 158.831 11.5259 141.762 33.429 130.376C29.9889 137.42 26.7992 143.952 26.5168 144.531L26.452 144.665C25.9472 145.757 25.6807 146.985 25.6807 148.213C25.6807 149.696 26.0792 151.133 26.828 152.372C27.924 154.175 30.1833 156.318 34.7618 156.318L161.636 156.295C167.903 156.295 172.657 155.553 176.747 145.952C176.752 145.942 187.767 119.843 187.767 119.843C188.055 119.142 188.398 118.302 188.686 117.378C195.078 103.52 204.049 85.2964 197.99 74.9873C193.014 66.5215 184.953 63.1702 170.898 62.5038C170.915 62.2526 170.939 61.9966 170.939 61.7478C170.939 59.5565 170.328 57.466 169.111 55.55C163.734 47.1089 146.462 42.4232 116.309 41.2288H116.244L1.17843 41.168V41.1744Z" fill="#A3AAAE"/>
<path d="M19.8392 44.5547C19.8392 44.5547 40.4798 52.2645 54.6706 63.876C31.7668 70.6426 19.9696 101.54 19.9696 101.54C34.9373 95.0898 37.6662 94.5217 37.6662 94.5217C14.9159 108.567 6.21484 146.086 6.21484 146.086C6.21484 146.086 18.3104 130.749 41.4935 121.971C36.8069 131.556 29.6643 146.183 29.6643 146.183L29.6363 146.248C29.3883 146.787 29.2091 147.476 29.2091 148.212C29.2091 148.934 29.3811 149.703 29.8171 150.427C30.7164 151.908 32.3788 152.655 34.7621 152.655L161.636 152.631C167.265 152.631 170.249 152.146 173.521 144.47L184.538 118.374C185.608 115.764 186.241 113.685 185.369 111.99C184.341 109.983 181.97 108.785 178.187 108.801L127.547 108.824C134.036 102.817 143.211 101.101 147.56 100.951C152.663 100.776 169.401 100.434 175.801 100.681C183.83 100.988 186.518 103.186 187.323 109.641C193.563 98.4491 211.716 65.4417 166.691 65.7721C170.427 56.8646 163.779 46.4939 116.178 44.6067L19.84 44.5555L19.8392 44.5547Z" fill="#011E41"/>
<path d="M148.182 77.4777C146.444 79.0961 144.081 79.9546 141.619 79.6186C137.766 79.0945 134.923 75.8248 134.618 71.9327C118.34 66.3414 98.1022 61.7764 97.8678 61.7228C97.847 61.7228 97.8302 61.722 97.8198 61.722C89.9228 59.9948 61.8004 54.409 55.9794 53.2466C55.297 53.1098 54.9122 52.9922 54.9122 52.9922C66.2773 56.4019 84.4378 66.0998 87.7379 67.8862C96.5062 68.3718 106.633 70.0935 118.263 73.5056C118.263 73.5056 110.355 73.0232 99.4655 73.256C80.1081 73.6952 51.2617 76.4825 40.2653 88.5708C49.8424 84.8651 63.6524 83.6579 74.1015 85.5379C97.9262 82.2226 118.636 92.1165 118.636 92.1165C108.848 92.3061 101.725 97.2511 101.725 97.2511C101.725 97.2511 50.5792 89.5084 22.1992 125.941C22.1992 125.941 40.4261 107.59 67.0453 107.59H116.491C116.491 107.59 121.93 97.5807 136.826 95.291C132.523 89.374 119.076 84.2643 119.076 84.2643C139.006 84.2643 139.533 85.1419 144.716 82.8203C150.595 80.1818 151.081 79.1521 151.081 79.1521C150.236 78.5961 149.263 78.0377 148.184 77.4793" fill="#9BA1A6"/>
<path d="M162.95 72.125C162.95 72.125 150.245 81.8501 160.734 84.0037C160.734 84.0037 146.165 85.887 141.325 89.6543C141.325 89.6543 143.749 93.684 145.365 95.2993C145.365 95.2993 170.686 94.7609 176.598 95.2993C176.598 95.2993 165.382 91.1 149.941 93.2384L148.325 90.9071C154.765 88.2143 172.302 89.3855 172.302 89.3855C172.302 89.3855 182.934 90.2167 186.726 96.6777C186.726 96.6777 198.663 73.785 175.798 72.9602L162.95 72.125ZM97.5325 112.634C92.9804 112.634 91.3083 115.112 91.2363 115.216L91.2283 115.234L85.5002 125.989C84.9241 127.061 84.8441 127.957 85.2601 128.653C85.7722 129.509 86.9402 129.917 88.8283 129.917H96.6525C96.8445 129.917 101.453 129.885 103.005 126.973L109.013 115.689C109.429 114.904 109.277 114.333 109.077 113.993H109.069C108.277 112.675 105.381 112.634 105.053 112.634H97.5325ZM58.1858 112.66L58.1842 112.662C56.4249 112.662 52.5344 112.904 50.6631 116.242C49.7479 117.878 46.0302 125.237 46.0302 125.237C45.8182 125.637 45.3622 126.517 45.3622 127.421C45.3622 127.805 45.4438 128.197 45.663 128.557C46.2198 129.477 47.4574 129.925 49.4383 129.925H62.3995L67.2556 120.493H57.6281L55.5625 124.493H57.3545C57.0497 125.085 56.7473 125.669 56.6073 125.941H55.1265C54.392 125.941 54.2672 125.773 54.2544 125.749C54.2448 125.733 54.2304 125.709 54.2304 125.645C54.2304 125.533 54.2816 125.293 54.5137 124.845C54.5137 124.845 58.0274 118.021 58.725 116.665H61.8155L61.2354 117.798H68.7605L71.3885 112.66H58.1858ZM79.732 112.662C74.0958 112.662 72.1286 116.742 71.9854 117.055C71.9766 117.07 65.1244 129.949 65.1244 129.949H81.292L82.2041 128.237L82.2201 128.157C82.2361 128.037 82.2441 127.925 82.2441 127.813C82.2441 127.381 82.1161 126.997 81.844 126.677C81.452 126.213 80.804 125.949 80.012 125.941H75.8303C76.2943 125.069 77.2927 123.189 77.4823 122.829H83.9001L86.0282 118.824H79.62C79.86 118.37 80.116 117.891 80.116 117.891C80.548 117.083 81.396 116.669 82.6441 116.669H88.1802L90.3163 112.662H89.5403H79.732ZM112.861 112.662L103.565 129.949H111.885C111.885 129.949 114.541 124.973 114.949 124.205C115.397 124.501 116.021 124.909 116.413 125.173C116.077 125.797 113.877 129.949 113.877 129.949H121.973L125.477 123.365C125.477 123.365 124.005 122.517 123.181 122.045C124.365 121.629 126.893 120.749 126.893 120.749L129.445 116.047C129.685 115.609 129.773 115.226 129.773 114.909C129.773 114.559 129.669 114.288 129.549 114.088C128.725 112.71 125.917 112.662 125.605 112.662H113.141H112.861ZM138.069 112.662C132.982 112.674 131.573 115.401 130.221 118.038C130.213 118.058 126.461 125.237 126.461 125.237C126.165 125.813 125.365 127.341 126.101 128.557C126.661 129.477 127.893 129.925 129.869 129.925H142.837L147.693 120.493H138.061L135.997 124.493H137.789C137.485 125.085 137.181 125.669 137.037 125.941H135.557C134.821 125.949 134.701 125.773 134.685 125.757C134.677 125.741 134.669 125.709 134.669 125.653C134.669 125.533 134.717 125.301 134.949 124.845C134.949 124.845 138.461 118.024 139.157 116.669H142.245C142.133 116.888 141.669 117.8 141.669 117.8H149.189L151.821 112.662H151.069H138.069ZM153.773 112.662L144.573 129.949H152.677L161.878 112.662H161.11H153.773ZM166.774 112.662L153.981 129.949H162.454L164.398 126.941H167.534C167.166 127.741 166.166 129.949 166.166 129.949H174.11L179.342 118.136L179.35 118.122C180.158 116.492 180.27 115.244 179.694 114.314C178.998 113.199 177.406 112.661 174.814 112.662H167.006H166.774ZM98.7165 116.316H99.9086C100.029 116.318 100.277 116.377 100.333 116.488C100.349 116.511 100.357 116.542 100.357 116.589C100.357 116.696 100.317 116.865 100.189 117.095C100.189 117.095 96.1085 124.765 95.3244 126.237H94.1004C93.9484 126.237 93.7244 126.189 93.6764 126.101C93.6604 126.085 93.6604 126.061 93.6604 126.021C93.6604 125.925 93.6924 125.757 93.8204 125.517C93.8204 125.517 97.9325 117.794 98.7165 116.316ZM171.19 117.058C171.814 117.078 171.918 117.213 171.918 117.221C171.926 117.233 171.942 117.258 171.942 117.308C171.942 117.426 171.886 117.686 171.622 118.241C171.614 118.246 169.926 121.909 169.454 122.933H167.51C168.198 121.829 170.958 117.426 171.19 117.058ZM118.685 117.252H119.925C120.381 117.252 120.533 117.31 120.573 117.336C120.573 117.366 120.565 117.45 120.461 117.624H120.469C120.469 117.624 120.037 118.426 119.853 118.77C119.645 118.843 118.437 119.265 117.405 119.626C117.925 118.653 118.525 117.546 118.685 117.252ZM65.1412 131.557C61.2331 131.557 59.5714 134.045 59.501 134.149L59.4922 134.165L53.2856 145.493C53.0776 145.869 52.5256 146.877 53.0448 147.757C53.484 148.501 54.5065 148.853 56.1777 148.853H62.8403C63.0075 148.861 66.9724 148.829 68.5677 145.917L74.751 134.629C75.2255 133.765 75.0743 133.165 74.863 132.805C74.151 131.597 71.8142 131.557 71.5526 131.557H65.1412ZM78.3495 131.557L70.7165 145.493C70.5085 145.869 69.9549 146.877 70.4757 147.757C70.9133 148.501 71.9374 148.853 73.6086 148.853H80.268C80.444 148.861 84.4041 148.829 85.9962 145.917L91.5803 135.725C92.4684 135.717 95.2204 135.709 96.1325 135.701C95.4845 136.925 89.1003 149.037 89.1003 149.037H96.1005C96.1005 149.037 102.877 136.181 103.125 135.701C103.573 135.701 106.925 135.693 107.469 135.693L100.341 149.045H107.293C107.293 149.045 110.637 142.717 110.877 142.261H112.285C111.701 143.365 108.701 149.045 108.701 149.045H115.645L124.981 131.557H124.197H118.029C118.029 131.557 114.861 137.445 114.621 137.901H113.221C113.805 136.805 116.629 131.557 116.629 131.557H109.685L107.821 135.029C108.013 134.541 108.165 134.005 108.165 133.509C108.165 133.149 108.093 132.805 107.893 132.501C107.477 131.869 106.637 131.573 105.325 131.573H97.4605C95.1484 131.573 93.7084 132.525 92.7244 133.661L93.8684 131.557H93.0764H86.8202C86.8202 131.557 79.628 144.693 79.364 145.165H78.3215C78.1671 145.165 78.0855 145.149 78.0383 145.133C78.0503 145.045 78.1175 144.845 78.3727 144.373L85.3962 131.557H78.3495ZM131.293 131.557C126.701 131.557 124.661 135.805 124.581 135.981L117.981 148.357L117.621 149.045H130.397L131.021 147.733C131.445 146.957 131.509 146.245 131.205 145.717C130.877 145.173 130.205 144.901 129.205 144.901H126.789C127.261 144.021 128.277 142.133 128.469 141.781H133.294L135.461 137.749H130.637C130.877 137.293 131.133 136.813 131.133 136.813C131.573 136.005 132.27 135.589 133.214 135.589H137.413L139.581 131.557H138.797H131.293ZM140.917 131.557L131.582 149.045H138.605C138.605 149.045 141.509 143.541 141.981 142.653C142.357 142.973 142.685 143.269 142.957 143.501C142.653 144.069 140.045 149.045 140.045 149.045H146.877L150.717 141.773C150.717 141.773 149.549 140.893 148.917 140.421C149.901 140.021 152.165 139.093 152.165 139.093L154.381 134.965C154.637 134.501 154.757 134.069 154.757 133.669C154.757 133.365 154.685 133.077 154.525 132.821C153.797 131.597 151.661 131.557 151.421 131.557H141.197H140.917ZM47.3958 131.573C45.0366 131.573 42.7157 132.309 41.8061 133.965C41.0005 135.437 39.7508 137.477 39.2668 139.029C38.7844 140.581 40.2868 141.973 42.3597 142.101C42.3653 142.101 44.8798 142.253 44.8798 142.253C45.7566 142.301 45.8894 142.701 45.7062 143.037C45.7062 143.037 44.7502 144.781 44.5358 145.173H43.6029C43.3509 145.173 43.2245 145.149 43.1581 145.133C43.1757 145.053 43.2253 144.909 43.3749 144.613C43.5029 144.357 43.5517 144.141 43.5517 143.949C43.5517 143.725 43.4797 143.549 43.4029 143.413C43.0501 142.829 42.1909 142.693 41.5325 142.677H37.2532L35.5435 145.797C35.5123 145.861 35.0435 146.853 35.5955 147.733C36.0635 148.477 37.0819 148.853 38.622 148.853H45.4142C45.595 148.853 49.7447 148.765 51.1288 146.237C51.1312 146.237 53.3424 142.077 53.3424 142.077C53.7088 141.421 53.8392 140.869 53.8392 140.421C53.8392 140.013 53.7328 139.685 53.6064 139.445C53.2016 138.685 52.2736 138.189 51.0632 138.077C51.06 138.077 48.6687 137.885 48.5143 137.869C48.2439 137.829 47.4758 137.717 47.391 137.581C47.3894 137.581 47.3862 137.573 47.3862 137.541C47.3862 137.453 47.4302 137.213 47.7631 136.605C47.7631 136.605 48.2583 135.693 48.4999 135.245H50.1207C49.9159 135.637 49.3503 136.701 49.3503 136.701H56.1505L58.8442 131.573H58.0914H47.3958ZM157.781 131.845L157.653 132.101L149.365 148.997H156.013C156.013 148.997 158.389 143.965 159.301 142.045C159.549 144.061 160.166 148.997 160.166 148.997H162.622C163.934 148.909 166.406 148.125 168.11 143.893L172.982 132.477L173.254 131.853H166.878C166.878 131.853 164.87 136.437 164.046 138.325C163.75 136.357 163.078 131.853 163.078 131.853L157.781 131.845ZM65.9476 135.261H66.9132C66.9796 135.261 67.11 135.301 67.1412 135.357C67.1508 135.373 67.1556 135.397 67.1556 135.437C67.1556 135.541 67.1124 135.733 66.9508 136.021L61.9419 145.173H60.9354C60.8466 145.173 60.7266 145.125 60.7074 145.101C60.7018 145.085 60.7026 145.069 60.7026 145.037C60.7026 144.949 60.7386 144.765 60.9026 144.461C60.9026 144.461 65.1364 136.741 65.9476 135.261ZM145.78 135.589H146.748C146.98 135.589 147.084 135.621 147.14 135.637C147.132 135.693 147.1 135.789 147.012 135.965C147.012 135.965 146.564 136.789 146.38 137.125C146.212 137.197 145.411 137.533 144.547 137.885C145.075 136.901 145.628 135.877 145.78 135.589Z" fill="#87714D"/>
<path d="M90.453 52.2268C73.9029 52.2828 59.3385 52.8669 54.8863 53.0021C54.8863 53.0021 55.2703 53.1221 55.9536 53.2589C61.7729 54.4205 89.901 60.0031 97.7972 61.7303C97.9012 61.7335 98.4692 61.7463 98.5732 61.7495C129.054 62.3567 142.022 64.3688 155.414 68.0337C158.646 64.4896 162.774 58.5894 137.958 54.6269C125.55 52.6453 107.013 52.1716 90.453 52.2268ZM81.5487 67.7513C55.776 68.0393 43.4404 79.7484 40.2387 88.5823C57.4312 69.6866 118.238 73.5171 118.238 73.5171C103.781 69.2753 91.637 67.6393 81.5487 67.7513ZM137.638 70.365C137.63 70.389 137.622 70.4154 137.622 70.4354C137.214 73.3979 139.19 76.1267 142.014 76.5116C144.574 76.862 146.974 75.1707 147.702 72.6498C147.142 72.5122 146.526 72.3666 145.878 72.2138C145.534 73.9771 143.942 75.1875 142.222 74.9507C140.814 74.7555 139.742 73.6483 139.478 72.2682C139.686 72.6026 140.014 72.8266 140.382 72.8266C141.014 72.8266 141.518 72.1978 141.518 71.4234C141.518 71.3434 141.51 71.2746 141.502 71.201C140.814 71.0458 140.102 70.8898 139.39 70.737C138.806 70.6082 138.222 70.4858 137.638 70.365ZM170.118 76.2331C170.11 76.2331 173.479 79.35 165.75 81.0925C165.75 81.0925 172.231 81.9661 173.599 78.3492C173.599 78.3492 184.007 78.8876 184.711 86.5902C184.711 86.5902 187.879 76.2483 170.118 76.2331ZM84.4208 84.8598C83.7968 84.8574 83.1808 84.863 82.5487 84.8758C62.493 85.2782 38.3867 93.7352 22.1758 125.949C50.5566 89.5167 101.701 97.2618 101.701 97.2618C101.701 97.2618 108.822 92.3168 118.614 92.1256C118.614 92.1256 103.589 84.943 84.4208 84.8598ZM97.5332 113.555C93.5971 113.555 92.141 115.543 92.021 115.709C91.757 116.212 86.3168 126.421 86.3168 126.421C86.2048 126.629 85.9248 127.157 85.9248 127.653C85.9248 127.837 85.9568 128.013 86.0528 128.173C86.3728 128.709 87.3329 128.989 88.8289 128.989H96.6451C96.6931 128.989 100.901 128.957 102.189 126.541L108.197 115.25C108.317 115.026 108.349 114.857 108.349 114.734C108.349 114.591 108.301 114.51 108.277 114.47C107.901 113.847 106.165 113.557 105.053 113.555H97.5332ZM79.7327 113.583C74.6213 113.583 72.8949 117.286 72.8237 117.446L72.8189 117.464L72.8093 117.478H72.8141C72.8141 117.478 67.3171 127.805 66.6715 129.021H80.7407C80.9087 128.709 81.2527 128.069 81.3167 127.949C81.3167 127.901 81.3247 127.853 81.3247 127.813C81.3247 127.597 81.2687 127.421 81.1407 127.277C80.9247 127.021 80.5247 126.869 80.0127 126.861H74.2909L76.931 121.901H83.3488C83.5168 121.581 84.1008 120.485 84.4928 119.744H78.0782L79.3086 117.45C79.7167 116.667 80.6287 115.737 82.6447 115.737H87.6289C87.7969 115.421 88.3809 114.325 88.7729 113.583H79.7327ZM57.6296 113.588C56.5936 113.588 53.4199 114.038 52.1095 115.839C50.8006 117.64 46.8549 125.661 46.8549 125.661C46.6957 125.965 46.2965 126.733 46.2965 127.421C46.2965 127.653 46.3405 127.877 46.4597 128.069C46.8229 128.669 47.8557 128.989 49.4406 128.989H61.8345C62.0609 128.557 65.169 122.517 65.7386 121.413H58.196C58.0288 121.733 57.4656 122.829 57.0864 123.573H58.8736L57.1752 126.861H55.1271C54.2679 126.869 53.7239 126.661 53.4615 126.237C53.1207 125.677 53.4031 124.973 53.6879 124.421L58.16 115.737H63.3298C63.3298 115.737 62.8634 116.65 62.7506 116.87H68.1955C68.3835 116.501 69.4236 114.471 69.8764 113.588H57.6296ZM113.422 113.588C113.174 114.043 105.781 127.789 105.117 129.021H111.334C111.574 128.573 114.606 122.869 114.606 122.869L117.63 124.853L115.422 129.021H121.422C121.646 128.597 123.894 124.381 124.246 123.717C123.67 123.389 120.958 121.845 120.958 121.845C120.958 121.845 125.934 120.094 126.246 119.985C126.406 119.693 128.638 115.606 128.638 115.603C128.806 115.294 128.846 115.073 128.846 114.906C128.846 114.719 128.79 114.609 128.758 114.558C128.334 113.854 126.598 113.59 125.606 113.588H113.422ZM138.07 113.588C133.55 113.6 132.39 115.852 131.038 118.485L127.286 125.661C127.134 125.965 126.734 126.733 126.734 127.421C126.734 127.653 126.774 127.885 126.894 128.077C127.262 128.677 128.286 128.989 129.878 128.989H142.27C142.502 128.557 145.606 122.525 146.182 121.413H138.63C138.462 121.741 137.902 122.829 137.518 123.565H139.31L137.606 126.861H135.565C134.701 126.869 134.157 126.661 133.901 126.237C133.558 125.677 133.837 124.973 134.125 124.421L138.59 115.737H143.766C143.766 115.737 143.302 116.65 143.19 116.87H148.63C148.822 116.501 149.862 114.471 150.31 113.588H138.07ZM154.326 113.588C154.086 114.045 146.774 127.789 146.118 129.021H152.126C152.366 128.565 159.678 114.82 160.334 113.588H154.326ZM167.238 113.588C166.982 113.938 156.806 127.693 155.822 129.021H161.95C162.182 128.653 163.894 126.013 163.894 126.013H168.974C168.974 126.013 167.966 128.221 167.606 129.021H173.503C173.735 128.493 178.503 117.742 178.503 117.742L178.511 117.719C178.927 116.89 179.127 116.21 179.127 115.658C179.127 115.327 179.055 115.045 178.911 114.805C178.415 114.01 176.999 113.588 174.815 113.588H167.238ZM98.1652 115.385H99.9412C100.021 115.385 100.789 115.425 101.133 116.016C101.373 116.421 101.333 116.929 101.013 117.53L95.8851 127.165H94.1091C94.0211 127.165 93.237 127.157 92.885 126.581C92.645 126.189 92.685 125.685 93.005 125.077L98.1652 115.385ZM170.935 116.126C171.575 116.114 172.359 116.17 172.711 116.718C173.063 117.272 172.767 118.003 172.463 118.634L170.046 123.853H165.83L170.687 116.131L170.935 116.126ZM118.134 116.322H119.926C120.454 116.322 121.102 116.382 121.382 116.857C121.574 117.176 121.55 117.585 121.286 118.062L120.502 119.521L115.454 121.293L118.134 116.322ZM47.7765 132.493C46.6309 132.493 43.7396 132.581 42.6684 134.301C41.5995 136.021 40.5011 138.109 40.5011 138.109L40.3059 138.717C40.1835 139.093 40.1435 139.349 40.1435 139.509C40.1435 139.669 40.2595 141.053 42.6188 141.221C42.6188 141.221 44.9236 141.333 44.9292 141.333C45.6877 141.373 46.4277 141.485 46.7221 142.013C46.8069 142.165 46.8421 142.317 46.8421 142.485C46.8421 142.829 46.6797 143.189 46.5173 143.477L45.0828 146.101H43.6028C43.118 146.101 42.586 146.045 42.334 145.637C42.0724 145.213 42.3772 144.581 42.5484 144.189C42.7212 143.797 42.2532 143.621 41.5235 143.605H37.7994C37.5794 144.005 36.3858 146.189 36.365 146.221C36.3578 146.245 36.253 146.477 36.253 146.765C36.253 146.917 36.2858 147.085 36.3842 147.237C36.6674 147.685 37.4434 147.925 38.6219 147.925H45.4077C45.4469 147.925 49.1942 147.845 50.3158 145.797C50.3158 145.797 52.5271 141.637 52.5295 141.629C52.8055 141.133 53.0759 140.429 52.7847 139.877C52.5295 139.397 51.8726 139.077 50.9846 138.997L48.4125 138.789H48.3941C47.4581 138.653 46.8269 138.525 46.5637 137.997C46.3165 137.501 46.5413 136.909 46.9501 136.157L47.9581 134.317H51.6582C51.6582 134.317 51.0894 135.397 50.8862 135.781H55.5896L57.3344 132.493H47.7765ZM97.4532 132.493C95.1651 132.493 93.8931 133.565 93.005 134.781C94.1731 134.781 97.6692 134.773 97.6692 134.773C97.6692 134.773 91.285 146.885 90.637 148.109H95.5331L102.573 134.773H106.925C107.133 134.245 107.245 133.821 107.245 133.501C107.245 133.301 107.205 133.141 107.117 133.013C106.893 132.677 106.277 132.493 105.333 132.493H97.4532ZM65.1402 132.493C61.8241 132.493 60.4049 134.493 60.3001 134.653C60.0617 135.085 54.1063 145.941 54.1063 145.941C54.0023 146.133 53.7671 146.557 53.7671 146.941C53.7671 147.061 53.7911 147.173 53.8519 147.277C53.9935 147.517 54.4823 147.917 56.1768 147.917H62.8394C62.8738 147.917 66.4203 147.885 67.7451 145.469L73.9293 134.181C74.2421 133.605 74.0973 133.365 74.0501 133.285C73.7045 132.693 72.2172 132.501 71.5516 132.493H65.1402ZM78.9062 132.493C77.915 134.309 71.5372 145.941 71.5372 145.941C71.4332 146.133 71.1996 146.557 71.1996 146.941C71.1996 147.061 71.2228 147.173 71.2828 147.277C71.4252 147.517 71.9156 147.917 73.6093 147.917H80.2687C80.3087 147.917 83.8528 147.885 85.1728 145.469C85.1728 145.469 91.597 133.749 92.277 132.493H87.3809C87.1249 132.965 79.9247 146.109 79.9247 146.109H78.3206C78.1134 146.109 77.4886 146.109 77.211 145.637C77.127 145.493 77.091 145.341 77.091 145.181C77.091 144.797 77.3046 144.365 77.5454 143.925C77.5454 143.925 83.1328 133.733 83.8048 132.493H78.9062ZM110.238 132.493C109.99 132.957 102.565 146.861 101.909 148.109H106.725L110.31 141.317H113.838C113.838 141.317 110.838 146.997 110.246 148.109H115.078C115.326 147.645 122.75 133.741 123.422 132.493H118.59C118.342 132.949 115.182 138.837 115.182 138.837H111.654C111.654 138.837 114.47 133.597 115.062 132.493H110.238ZM131.294 132.493C127.302 132.493 125.502 136.229 125.414 136.405H125.422C125.422 136.405 119.83 146.877 119.182 148.109H129.814C129.95 147.805 130.198 147.293 130.198 147.293V147.285C130.374 146.973 130.462 146.693 130.462 146.469C130.462 146.357 130.438 146.269 130.398 146.189C130.262 145.957 129.838 145.837 129.214 145.837H125.23L127.91 140.845H132.734C132.91 140.525 133.494 139.429 133.893 138.685H129.07L130.318 136.365C130.918 135.245 131.926 134.653 133.222 134.653H136.854C137.022 134.341 137.614 133.245 138.022 132.493H131.294ZM141.478 132.493C141.238 132.957 133.805 146.861 133.142 148.109H138.038C138.286 147.645 141.71 141.165 141.71 141.165L144.134 143.277C144.134 143.277 142.134 147.077 141.59 148.109H146.31C146.542 147.669 149.198 142.653 149.518 142.045C149.054 141.693 147.046 140.181 147.046 140.181C147.046 140.181 151.214 138.469 151.502 138.349C151.646 138.077 153.558 134.517 153.558 134.517C153.838 133.997 153.894 133.581 153.726 133.293C153.342 132.645 151.894 132.501 151.422 132.493H141.478ZM158.334 132.749C158.102 133.213 151.374 146.917 150.798 148.093H155.438C155.662 147.613 159.806 138.853 159.806 138.853C159.806 138.853 160.862 147.381 160.95 148.093H162.574C163.678 148.013 165.742 147.317 167.27 143.541C167.27 143.541 171.399 133.877 171.879 132.757C170.903 132.757 167.918 132.749 167.462 132.749C167.238 133.253 163.606 141.557 163.606 141.557C163.606 141.557 162.398 133.445 162.294 132.749H158.334ZM65.3802 134.309H66.9395C67.0131 134.317 67.6483 134.349 67.9523 134.885C68.1867 135.293 68.1259 135.829 67.7707 136.477L62.4938 146.109H60.9385C60.8657 146.109 60.2185 146.109 59.9025 145.581C59.6617 145.189 59.7177 144.653 60.0745 144.005L65.3802 134.309ZM145.215 134.653H146.743C146.999 134.653 147.671 134.653 147.959 135.141C148.247 135.629 147.935 136.213 147.831 136.405L147.047 137.861L142.478 139.741L145.215 134.653Z" fill="white"/>
<path d="M164.209 76.278C164.445 76.2452 164.673 76.2508 164.873 76.306C165.669 76.53 165.73 77.4221 165.021 78.3069C164.309 79.1901 163.097 79.7285 162.305 79.5053C161.511 79.2829 161.439 78.3877 162.152 77.5037C162.685 76.842 163.498 76.3772 164.209 76.278Z" fill="#011E41"/>
</svg>
