<svg width="200" height="200" viewBox="0 0 200 200" fill="none" xmlns="http://www.w3.org/2000/svg">
<path d="M36.0818 67.4236L30.2101 91.1096H5.81053L0.496208 112.548C-0.71872 117.447 0.321651 122.5 3.35028 126.411C6.38591 130.33 11.0096 132.578 16.0374 132.578H167.798C177.1 132.578 185.486 125.982 187.739 116.894L200 67.4241H36.0854" fill="#B5A36A"/>
<path d="M38.3186 70.282L32.4469 93.968H8.04726L3.27081 113.24C2.26692 117.285 3.1202 121.45 5.6109 124.666C8.10111 127.882 11.9031 129.727 16.0402 129.727H167.801C175.808 129.727 183.029 124.042 184.97 116.211L196.354 70.2821H38.3225" fill="#450084"/>
<path d="M43.2516 76.6484L34.4192 112.276H26.8587L29.8199 100.334H12.9802L9.45349 114.563C8.91894 116.719 9.37297 118.939 10.7005 120.653C12.0279 122.367 14.0546 123.349 16.2592 123.349H41.1893C46.2725 123.349 50.8561 119.742 52.0887 114.77L61.5385 76.6485L43.2516 76.6484ZM169.97 76.6484L161.138 112.276H153.577L162.403 76.6745H144.116L134.726 114.563C134.19 116.719 134.644 118.939 135.973 120.653C137.299 122.367 139.326 123.349 141.531 123.349H167.908C172.991 123.349 177.575 119.742 178.807 114.77L188.258 76.6485H169.971L169.97 76.6484ZM69.1379 76.6744L57.5608 123.375H75.8485L82.3912 96.9826L84.566 123.375H97.9073L113.245 96.8497L106.668 123.375H124.957L136.533 76.6744H108.151L95.172 99.9954L92.8576 76.6744H69.1379Z" fill="#B5A36A"/>
<path d="M58.1804 76.6485L48.9593 113.846C48.0663 117.449 44.795 120.024 41.1109 120.024H10.266C10.3981 120.239 10.5403 120.451 10.6975 120.653C12.0244 122.367 14.0506 123.349 16.2552 123.349H41.1853C46.2685 123.349 50.8521 119.742 52.0847 114.77L61.5344 76.6484H58.1797L58.1804 76.6485ZM184.899 76.6485L175.681 113.846C174.788 117.449 171.515 120.024 167.831 120.024H135.539C135.671 120.239 135.814 120.451 135.971 120.653C137.298 122.367 139.324 123.349 141.529 123.349H167.906C172.989 123.349 177.574 119.742 178.805 114.77L188.256 76.6484L184.899 76.6485ZM133.171 76.6745L122.417 120.053H107.488L106.664 123.375H124.953L136.529 76.6745H133.171ZM159.042 76.6745L150.217 112.276H153.576L162.401 76.6745H159.042ZM115.946 85.9277L96.1948 120.053H84.2877L84.5613 123.375H97.9026L113.24 96.8498L115.947 85.9277H115.946ZM81.5506 86.8513L73.3207 120.053H58.3792L57.5551 123.375H75.8427L82.3855 96.9827L81.5506 86.8513ZM26.4567 100.334L23.4967 112.276H26.8558L29.8169 100.334H26.4567ZM9.38281 118.203C9.38697 118.219 9.39304 118.234 9.39795 118.25C9.39452 118.236 9.39094 118.222 9.38714 118.209L9.38281 118.203Z" fill="white"/>
</svg>
