<svg width="200" height="200" viewBox="0 0 200 200" fill="none" xmlns="http://www.w3.org/2000/svg">
<g clip-path="url(#clip0_107_20225)">
<path d="M67.0322 29.8711C65.5766 29.8711 64.3919 31.0533 64.3919 32.5063V115.305C64.3919 117.531 64.9693 119.749 66.062 121.701L71.7557 131.894C71.8895 132.136 71.8589 132.435 71.6645 132.66C71.5218 132.83 68.1226 136.814 65.7846 140.193C64.8814 141.507 64.3919 143.056 64.3669 144.685C64.3435 146.548 64.3628 148.185 64.3782 149.628C64.4653 157.935 64.4717 158.628 57.1958 160.096L50.845 160.935C50.5627 160.967 50.2966 161.08 50.07 161.249C49.07 161.991 48.5208 163.427 48.5651 165.177C48.6071 166.79 49.1756 168.862 50.649 169.846C50.924 170.032 51.2442 170.128 51.5724 170.128H51.6272C62.1523 169.782 70.5887 169.62 78.1759 169.62H100.741C116.314 169.62 131.556 169.822 139.572 170.128H139.637C140.258 170.128 140.831 169.782 141.113 169.233C143.669 164.274 147.669 150.153 148.524 141.362C148.564 141.015 148.484 140.66 148.306 140.362C147.185 138.435 144.782 137.572 142.895 137.572C141.314 137.572 140 138.128 139.185 139.144C139.113 139.233 139.048 139.33 139 139.427C129.266 158.556 124.919 158.556 110.508 158.556C93.5639 158.556 91.7333 155.435 91.7333 154.088V152.725C91.7171 148.894 91.701 143.644 92.8704 142.475C94.8784 140.467 96.1607 140.209 97.7898 139.886C99.1366 139.612 100.661 139.306 102.508 138.031C103.354 137.451 106.669 136.935 108.451 136.66C109.282 136.531 109.992 136.419 110.516 136.314C110.709 136.273 110.935 136.257 111.185 136.257C111.29 136.257 111.403 136.257 111.508 136.265C111.427 136.475 111.354 136.693 111.298 136.91C111.153 137.499 111.282 138.12 111.661 138.604C112.04 139.096 112.637 139.386 113.25 139.386C113.596 139.386 113.943 139.29 114.233 139.128C118.04 136.983 120.588 133.418 121.403 129.08C122.105 125.378 121.379 121.531 119.556 119.297L119.33 119.023C118.709 118.265 118.33 117.765 118.306 117.241C118.088 112.749 115.629 109.124 110.782 106.151C102.112 100.846 96.322 97.7649 91.7816 96.0593V62.034C91.7816 59.6073 90.9752 57.2122 89.4994 55.2896C89.4832 55.2702 68.9693 30.7393 68.9693 30.7393C68.4669 30.1817 67.7782 29.8731 67.0322 29.8731V29.8711ZM2.28726 77.7877C2.00646 77.7877 1.72992 77.8586 1.48395 77.9941C0.596442 78.4844 0.0408725 79.4457 -0.0376766 80.6288C-0.10333 81.603 0.171599 82.8982 1.13895 83.6159C1.33476 83.7611 1.56097 83.8627 1.80049 83.9103L3.8797 84.3256C6.7444 84.8966 6.79997 84.9079 6.79997 91.7055V112.537C6.79997 122.449 8.95128 128.844 13.5812 132.666C17.8627 136.158 23.2748 137.715 31.1337 137.715V137.707C38.5096 137.707 44.9645 135.328 48.8637 131.158C53.9323 125.537 54.6299 117.65 54.6299 109.965V100.625C54.6299 93.1314 55.0485 87.6692 55.7453 86.0176C56.1493 85.0708 56.9751 84.7256 59.0808 84.2345L60.5824 83.9022C60.8937 83.8329 61.1776 83.6772 61.401 83.4498C62.7195 82.1192 62.5203 79.4103 61.4042 78.2788C61.0913 77.9635 60.6663 77.7877 60.2243 77.7877C60.1953 77.7877 60.1647 77.7877 60.1348 77.7909C57.009 77.9611 53.984 78.0425 50.8888 78.0425C47.6726 78.0425 44.5573 77.9723 39.7798 77.7893C39.758 77.7885 39.737 77.7877 39.7153 77.7877C39.2733 77.7877 38.8483 77.9651 38.537 78.2804C37.4209 79.4119 37.2217 82.1208 38.5387 83.4498C38.7766 83.6909 39.0838 83.853 39.4161 83.9151L41.6669 84.3288C43.7508 84.7208 44.8815 85.0902 45.2766 86.016C45.979 87.6684 46.3984 93.1297 46.3984 100.627V110.707C46.3984 123.561 42.3855 129.812 34.133 129.812C24.0603 129.812 22.0345 122.602 22.0345 110.957V91.7055C22.0345 84.7611 22.199 84.7313 24.903 84.2522L26.9047 83.9192C27.166 83.8756 27.4135 83.7708 27.6248 83.6111C28.3603 83.0611 28.7845 82.0667 28.7886 80.8845C28.7926 79.6901 28.3724 78.6853 27.6337 78.1264C27.3458 77.9062 26.9942 77.7877 26.6321 77.7877C26.6087 77.7877 26.5845 77.7885 26.5611 77.7893C22.6482 77.9578 18.578 78.0425 14.4626 78.0425C10.4013 78.0425 6.21577 77.9554 2.35767 77.7893C2.33364 77.7885 2.31041 77.7877 2.28726 77.7877ZM127.216 77.7877C127.063 77.7877 126.917 77.8078 126.772 77.849C125.893 78.0941 125.24 78.8151 124.974 79.8288C124.676 80.9667 124.861 82.6046 125.796 83.5401C126.038 83.778 126.337 83.9377 126.676 83.9982L128.522 84.3337C131.159 84.795 132.313 85.4006 132.313 89.2862C132.313 93.3902 132.159 100.159 131.821 106.02C131.619 109.184 131.45 112.287 131.305 115.029C131.087 119.199 130.901 122.795 130.651 125.223C130.232 129.553 130.232 129.553 126.78 130.166L125.28 130.416C125.087 130.449 124.909 130.513 124.74 130.602C123.563 131.255 123.272 132.747 123.385 133.82C123.53 135.191 124.28 136.207 125.393 136.554C125.555 136.602 125.716 136.626 125.877 136.626C125.909 136.626 125.934 136.626 125.966 136.618C129.208 136.457 132.353 136.376 135.047 136.376C138.337 136.376 141.893 136.465 144.805 136.618C144.837 136.626 144.861 136.626 144.893 136.626C145.208 136.626 145.514 136.537 145.781 136.368C146.861 135.683 147.079 134.287 147.127 133.723C147.216 132.481 146.861 131.416 146.135 130.795C145.902 130.594 145.611 130.457 145.305 130.408L142.055 129.916C139.95 129.594 139.627 129.545 139.627 125.715C139.627 120.892 139.708 112.626 139.789 106.987C139.837 104.685 139.885 102.552 139.966 100.215C140.926 102.323 141.974 104.583 143.039 106.905C147.805 117.231 153.208 128.932 155.394 135.876C155.506 136.247 155.74 136.554 156.063 136.763C157.152 137.481 158.692 137.537 159.144 137.537C160.119 137.537 161.087 137.199 161.845 136.594C162.071 136.408 162.248 136.174 162.353 135.9C166.958 124.118 172.394 112.408 177.66 101.089V103.47L177.829 125.134C177.829 127.182 177.829 128.795 177.523 129.4C177.458 129.529 177.305 129.828 175.426 130.07L172.926 130.408C172.66 130.441 172.41 130.537 172.192 130.691C171.281 131.328 170.805 132.537 170.942 133.844C171.079 135.086 171.757 136.078 172.757 136.497C172.958 136.578 173.176 136.626 173.394 136.626H173.466C177.2 136.465 181.781 136.376 185.733 136.376C189.692 136.376 193.216 136.449 197.168 136.626H197.241C197.45 136.626 197.66 136.586 197.862 136.505C198.668 136.183 199.257 135.408 199.458 134.392C199.684 133.303 199.491 131.787 198.563 130.876C198.305 130.61 197.967 130.449 197.604 130.408L194.95 130.07C193.208 129.852 192.821 129.416 192.644 125.384C192.136 114.715 191.975 105.817 191.975 88.7805C191.975 85.3434 192.886 84.899 195.692 84.4176L198.104 84.0014C198.507 83.9329 198.87 83.72 199.12 83.403C199.813 82.5337 200.104 81.2869 199.878 80.1474C199.684 79.1885 199.152 78.424 198.378 77.9941C198.128 77.8578 197.854 77.7877 197.579 77.7877C197.547 77.7877 197.515 77.7901 197.483 77.7909C194.225 77.9772 190.337 78.0441 187.991 78.0441C187.563 78.0441 185.999 78.0522 185.612 78.0522C183.926 78.0522 182.305 78.0078 179.878 77.7941C179.829 77.7909 179.781 77.7877 179.732 77.7877C178.982 77.7877 178.313 78.2957 178.128 79.0353C176.361 85.9377 174.41 90.1313 170.515 98.483L166.055 108.102C164.684 111.102 163.66 113.223 162.845 114.828C161.587 112.586 159.974 109.69 159.482 108.589L153.982 96.8338C153.385 95.5701 152.813 94.3781 152.273 93.2459C149.531 87.5353 147.547 83.4111 147.547 79.4465C147.547 78.9828 147.353 78.5401 147.014 78.2256C146.708 77.9433 146.305 77.7877 145.893 77.7877C145.845 77.7877 145.797 77.7901 145.748 77.7941C142.821 78.0441 140.458 78.0441 137.724 78.0441C133.571 78.0441 130.071 77.9594 127.313 77.7925C127.28 77.7893 127.248 77.7877 127.216 77.7877Z" fill="#FDB913"/>
<path d="M66.9449 31.5346C66.4796 31.5758 66.049 31.9485 66.049 32.508V81.0762V115.306C66.049 117.257 66.5546 119.185 67.5079 120.894L73.2047 131.096C73.6789 131.951 73.5636 133.007 72.924 133.733C72.924 133.733 69.4635 137.79 67.1482 141.136C66.4256 142.185 66.0433 143.427 66.024 144.701C65.8643 157.387 67.6216 159.693 57.4658 161.733L51.0585 162.58C49.7149 163.58 50.0545 167.459 51.5706 168.475C62.007 168.129 70.424 167.959 78.1741 167.959H100.732C114.546 167.959 130.7 168.129 139.635 168.475C141.982 163.919 146.022 149.951 146.877 141.201C145.692 139.161 141.821 138.499 140.474 140.185C130.538 159.709 125.829 160.217 110.506 160.217C98.2073 160.217 90.0782 158.62 90.0782 154.088C90.0782 148.911 89.8847 143.12 91.6992 141.298C95.8121 137.185 97.8847 139.209 101.57 136.669C103.119 135.604 108.264 135.088 110.183 134.685C111.699 134.378 113.675 134.927 113.659 135.177C113.643 135.58 113.087 136.596 112.909 137.314C112.836 137.588 113.159 137.83 113.417 137.677C120.998 133.411 121.183 123.919 118.264 120.338C117.53 119.427 116.707 118.548 116.651 117.322C116.425 112.677 113.393 109.701 109.917 107.566C100.812 101.996 94.7396 98.7982 90.1266 97.2256V62.0341C90.1266 59.9551 89.4411 57.9413 88.183 56.2978L67.7377 31.85C67.5167 31.6051 67.2248 31.51 66.9449 31.5346ZM72.2837 47.9332C72.3361 47.9461 72.3853 47.9735 72.4248 48.0219L83.8362 61.7285C84.0862 62.0156 84.2233 62.3857 84.2233 62.7632V133.483C84.2233 133.991 83.6104 134.249 83.2556 133.886L72.3797 114.048C72.0982 113.773 71.945 113.394 71.945 112.999V107.388L80.2878 117.814L71.945 101.721V95.1417L80.2878 105.564L71.945 89.4674V82.8867L80.2878 93.3191L71.945 77.2165V70.6358L80.2878 81.0657L71.945 64.9696V58.3889L80.2878 68.8116L71.945 52.7155V48.2009C71.945 48.0098 72.1256 47.8969 72.2837 47.9332ZM2.28386 79.4472C1.36933 79.952 1.45369 81.7883 2.12474 82.2867L4.20395 82.7029C7.95754 83.4512 8.45512 83.9553 8.45512 91.7062V112.539C8.45512 121.636 10.2906 127.798 14.6261 131.378C19.1286 135.048 24.7948 136.056 31.1319 136.056C37.886 136.056 43.9667 133.975 47.6313 130.048C52.216 124.967 52.9709 117.798 52.9709 109.967V100.627C52.9709 93.8755 53.3039 87.5376 54.2185 85.369C54.9668 83.6174 56.5523 83.1254 58.7201 82.619L60.2225 82.2867C60.8879 81.6157 60.7217 79.952 60.2225 79.4472C57.0564 79.6198 53.9757 79.7036 50.887 79.7036C47.4724 79.7036 44.2159 79.6198 39.7151 79.4472C39.2151 79.952 39.049 81.6157 39.7151 82.2867L41.9724 82.7029C44.2159 83.1254 46.0514 83.6174 46.7998 85.369C47.7208 87.5376 48.0539 93.8755 48.0539 100.627V110.717C48.0539 122.136 44.7982 131.475 34.1312 131.475C21.4625 131.475 20.3754 120.717 20.3754 110.959V91.7062C20.3754 83.9553 20.8746 83.2851 24.6287 82.619L26.6303 82.2867C27.2948 81.7883 27.2948 79.952 26.6303 79.4472C22.627 79.6198 18.548 79.7036 14.4608 79.7036C10.4576 79.7036 6.28712 79.6198 2.28386 79.4472ZM127.212 79.4472C126.301 79.7028 126.301 81.7045 126.962 82.3706L128.801 82.7029C132.132 83.2851 133.971 84.5375 133.971 89.2884C133.971 93.7917 133.793 100.544 133.471 106.128C132.962 114.048 132.712 121.298 132.293 125.386C131.801 130.548 131.301 131.048 127.043 131.806L125.543 132.056C124.793 132.467 124.793 134.636 125.874 134.967C129.212 134.806 132.382 134.717 135.051 134.717C138.213 134.717 141.801 134.806 144.89 134.967C145.551 134.556 145.721 132.636 145.051 132.056L141.801 131.556C138.463 131.048 137.963 129.886 137.963 125.717C137.963 120.717 138.051 112.386 138.132 106.96C138.213 102.624 138.301 98.9595 138.632 93.5425H138.801C143.471 104.376 153.721 125.048 156.971 135.386C157.479 135.717 158.39 135.886 159.14 135.886C159.81 135.886 160.39 135.636 160.81 135.306C166.31 121.217 172.979 107.292 179.14 93.9522H179.318V103.461L179.479 125.136C179.479 130.217 179.479 131.217 175.64 131.717L173.14 132.056C172.31 132.636 172.398 134.556 173.39 134.967C177.398 134.806 181.979 134.717 185.729 134.717C189.818 134.717 193.399 134.806 197.237 134.967C198.068 134.636 198.068 132.717 197.399 132.056L194.729 131.717C191.487 131.298 191.149 129.306 190.987 125.467C190.487 114.959 190.31 105.961 190.31 88.7844C190.31 84.3658 191.979 83.373 195.407 82.7843L197.818 82.3706C198.487 81.5391 198.487 79.952 197.568 79.4472C194.568 79.6198 190.737 79.7036 187.987 79.7036C185.487 79.7036 183.568 79.7859 179.729 79.4472C177.89 86.6214 175.81 91.0408 171.81 99.6224L167.56 108.794C165.31 113.709 163.979 116.298 162.89 118.298C161.729 116.209 158.721 110.967 157.971 109.293L152.471 97.5385C148.801 89.7045 145.89 84.6198 145.89 79.4472C142.89 79.7028 140.471 79.7036 137.721 79.7036C133.632 79.7036 130.043 79.6198 127.212 79.4472ZM90.7605 102.207C93.067 102.897 95.3412 103.685 97.5509 104.639C101.486 106.326 105.398 108.448 108.511 111.443C109.22 112.128 109.906 112.854 110.511 113.628C110.809 114.023 111.067 114.539 111.438 114.862C111.882 115.249 112.124 114.935 112.624 114.951C113.454 114.959 113.309 116.015 113.309 116.58C113.325 117.725 113.43 118.878 113.745 119.983C113.148 119.814 112.341 120.08 111.914 120.507C111.712 120.717 111.535 120.983 111.478 121.273C111.422 121.499 111.446 122.112 111.761 122.209C112.035 122.298 112.325 121.781 112.478 121.644C112.777 121.386 112.995 121.378 113.366 121.435C113.624 121.483 113.97 121.402 114.204 121.467C114.422 121.507 114.559 121.902 114.712 122.128C115.559 123.402 116.745 124.241 117.188 125.773C117.559 127.056 117.414 128.435 116.914 129.661C116.753 130.056 116.438 130.991 116.043 131.201C115.527 131.475 115.47 130.644 115.366 130.33C115.067 129.419 114.519 128.596 113.728 128.023C112.664 127.249 111.486 127.33 110.285 126.959C109.035 126.572 108.148 125.556 106.962 125.023C105.64 124.443 104.115 124.612 103.107 123.435C102.906 123.209 102.736 122.951 102.575 122.693C102.511 122.588 102.454 122.483 102.398 122.378C102.212 122.048 102.188 122.144 102.398 121.87C102.712 121.459 103.462 121.088 103.914 120.822C104.712 120.338 105.551 119.991 106.478 119.862C107.551 119.709 108.607 119.644 109.051 118.475C109.406 117.556 109.019 116.427 108.075 116.064C107.107 115.693 105.922 115.902 104.914 115.935C103.632 115.991 102.261 115.975 101.067 115.459C98.7525 114.451 97.5186 111.806 95.7605 110.128C94.8896 109.301 93.9299 108.596 92.8734 108.021C92.6395 107.893 92.2524 107.668 91.8815 107.451C91.1879 107.043 90.7605 106.3 90.7605 105.494V102.431V102.405V102.207ZM93.7524 112.193C94.1557 112.177 94.5428 112.249 94.8734 112.418C97.7767 113.935 96.946 116.548 99.1477 116.556C99.309 116.564 99.3815 116.741 99.2767 116.854C98.5751 117.596 97.5509 118.209 96.5428 118.475C94.0024 119.177 90.5105 118.096 90.9782 114.749C91.204 113.16 92.5428 112.257 93.7524 112.193ZM90.5427 120.136H90.5508H90.5669H90.575C90.5992 120.144 90.6073 120.144 90.6315 120.152C90.6556 120.16 90.6879 120.16 90.7121 120.169C94.0508 120.886 96.5267 123.652 98.4138 126.362C98.7606 126.878 99.2686 127.725 98.6799 128.257C98.2606 128.628 97.567 128.628 97.0428 128.661C94.7121 128.773 92.4137 129.072 90.1234 129.491V128.685V120.523C90.1234 120.467 90.1395 120.41 90.1637 120.362C90.1798 120.314 90.204 120.289 90.2363 120.257C90.2444 120.249 90.2444 120.241 90.2524 120.241C90.2927 120.201 90.3331 120.177 90.3814 120.16C90.4218 120.144 90.4702 120.136 90.5105 120.144C90.5186 120.144 90.5347 120.144 90.5427 120.136ZM83.8733 139.08C84.1637 139.112 84.4217 139.346 84.4217 139.693V153.201C84.4217 153.612 83.9056 153.79 83.6475 153.467L77.6217 145.943C77.3846 145.653 77.4088 145.217 77.6781 144.935L83.3653 139.257C83.5185 139.104 83.704 139.056 83.8733 139.08Z" fill="#840029"/>
</g>
<defs>
<clipPath id="clip0_107_20225">
<rect width="200" height="200" fill="white"/>
</clipPath>
</defs>
</svg>
