<svg width="200" height="200" viewBox="0 0 200 200" fill="none" xmlns="http://www.w3.org/2000/svg">
<path d="M182.999 134.243V131.913C182.999 128 181.815 125.269 181.815 125.269V120.862C181.815 115.394 183.944 112.781 187.978 109.338L198.128 101.29H176.423V83.7602C183.357 82.0908 190.645 74.1183 190.645 66.2945C190.645 57.4303 184.46 53.2635 183.146 52.8763C183.146 52.8763 180.882 49.4544 176.306 49.4544C170.345 49.4544 169.31 54.8863 169.144 56.1997C167.742 55.5931 166.183 55.2388 164.479 55.1818H1.78472C10.3309 60.3527 21.2449 66.3429 21.2449 71.4222V73.1263C20.3514 76.4221 8.52838 79.0179 8.52838 79.0179C16.1863 82.5228 21.2466 84.2579 21.2466 87.5831V89.7884C21.2466 95.2203 11.463 100.65 4.20432 105.593C1.1816 108.004 -0.0437454 111.602 0.00118923 115.527V135.637C0.00118923 142.963 5.27927 150.547 14.1089 150.547H200C189.717 143.637 183.004 139.052 183.004 134.243" fill="#D11C2E"/>
<path d="M176.423 52.2422C171.196 52.2422 172.094 57.8157 172.094 57.8157C170.891 58.8268 170.762 61.1697 170.762 61.1697C169.442 59.6195 167.436 58.5278 164.365 58.4206L155.783 58.4179V62.366C153.504 59.7252 150.385 58.3099 146.721 58.3099H11.6819C19.0805 63.1836 24.0228 65.9622 24.0228 70.4834V72.9947C24.0228 76.9957 19.2461 78.0137 14.6524 79.2839C19.7697 81.3078 24.0337 82.5951 24.0337 86.9503V89.4481C24.0337 95.2603 19.599 97.7312 14.6147 101.319H41.422V97.3764C42.6577 99.8098 44.9674 101.319 47.7706 101.319H71.5583C71.5583 101.319 72.2133 97.336 72.2496 97.101H73.2623C73.3003 97.3412 73.9644 101.319 73.9644 101.319H91.9216L91.4031 98.7941C93.1123 100.381 95.3501 101.319 97.8733 101.319H155.986V98.3432C156.008 98.3864 157.398 101.319 157.398 101.319H173.289V81.1012C173.289 81.1012 173.653 81.1903 173.94 81.1903C180.356 81.1903 187.607 73.5252 187.607 65.6498C187.607 57.7759 181.55 55.2588 181.55 55.2588C181.55 55.2588 179.582 52.2422 176.423 52.2422ZM14.0911 104.416C10.9906 104.416 8.18045 105.531 6.18425 107.557C4.16731 109.594 3.08404 112.407 3.12206 115.49V135.638C3.12206 141.431 7.22521 147.425 14.1019 147.425H47.9922C47.9922 147.425 48.6708 143.452 48.7106 143.207H49.734C49.7755 143.444 50.4415 147.425 50.4415 147.425H76.9059C81.2802 147.425 85.2364 144.695 86.8921 141.022C88.7154 144.964 92.4615 147.425 97.1779 147.425H106.435C109.613 147.425 112.666 146.183 114.814 144.017C115.182 143.639 115.514 143.236 115.821 142.818V147.425H133.322V144.698C133.338 144.725 134.697 147.425 134.697 147.425H191.362C181.699 141.228 180.206 139.284 180.206 134.077V131.86C180.18 128.348 179.145 125.273 177.43 122.833H179.023V116.819C179.023 116.819 178.903 114.614 180.646 112.59C182.392 110.568 185.541 107.28 189.323 104.418L142.387 104.416C139.856 104.416 137.636 105.297 135.982 106.973C135.279 107.682 134.743 108.546 134.297 109.479C133.889 108.665 131.748 104.416 131.748 104.416H110.734C107.942 104.416 104.816 105.299 102.751 108.493V104.416L14.0911 104.416Z" fill="#0A0203"/>
<path d="M19.268 60.8009C19.268 60.8009 26.5295 64.5548 26.5295 70.7194V73.8059C26.5295 78.3218 21.1988 79.5848 21.1988 79.5848C21.1988 79.5848 26.5295 81.7971 26.5295 85.5716V90.0138C26.5295 94.4588 24.9238 95.9652 24.9066 95.979L21.8092 98.8225H38.9328V86.5141H40.969C41.1867 86.5694 41.9537 86.8573 42.1058 88.5044C42.1144 88.6202 43.0239 94.1941 43.0239 94.1941C43.3869 96.9904 45.2578 98.8226 47.7794 98.8226H55.7132L53.8094 85.966C53.7212 83.8386 52.6829 82.1143 50.9875 80.8785C52.3856 79.7793 53.7205 78.0855 53.8121 75.4101C53.8121 75.4101 53.7888 68.3991 53.7905 68.1866C53.7905 66.5413 53.0872 64.8182 51.8274 63.496C50.1724 61.7497 47.6851 60.7945 44.8424 60.8014L19.268 60.8009ZM55.3125 60.8009L60.2408 63.7956C63.0682 65.51 62.2151 69.7292 62.2013 69.7688C62.2082 69.755 60.9591 75.2372 60.9591 75.2372C60.1641 78.2842 58.1002 79.4274 58.0103 79.4742L55.6582 80.7353L57.878 82.2556C58.0439 82.3662 59.5266 83.4357 59.1499 85.577L56.706 98.8225H69.4492C69.4492 98.8225 69.9419 95.855 70.1459 94.6072H75.3793C75.5867 95.855 76.0868 98.8225 76.0868 98.8225H88.8759L83.0322 70.1901C81.774 63.9615 78.0906 60.8009 72.0901 60.8009L55.3125 60.8009ZM82.0437 60.8009L87.4959 63.8253C89.5491 64.9694 90.4663 67.3624 90.4663 71.5863V75.3453C90.487 77.4969 88.8159 78.1484 88.6327 78.2159L85.3382 79.377L88.3411 81.143C88.3618 81.1551 90.487 82.4436 90.4663 84.127V90.3918C90.4663 94.5828 93.0096 98.8225 97.8816 98.8225H110.055C115.025 98.781 118.329 94.7047 118.286 88.6853V75.7206H104.098V85.5042H106.412V87.6673C106.412 88.0215 106.339 88.1888 106.312 88.2181C106.279 88.2423 106.127 88.3034 105.785 88.2965L103.333 88.2937C103.114 88.3006 103.026 88.2655 103.007 88.2586C102.981 88.2292 102.882 88.0532 102.877 87.6402V71.2757H106.293C106.438 71.2757 106.529 71.2879 106.604 71.2973C106.617 71.4217 106.628 71.5469 106.628 71.7267L106.604 74.0788L117.853 74.0706V69.5285C117.853 63.7181 114.539 60.863 107.721 60.8008L82.0437 60.8009ZM115.085 60.8009L120.541 63.8259C122.902 65.1428 123.446 68.1907 123.406 69.6183L123.403 75.3459C123.371 77.1709 121.856 78.2047 121.794 78.2461L119.825 79.5585L121.759 80.933C121.826 80.9762 123.405 82.1096 123.403 84.2923V90.0145C123.403 94.3836 120.619 96.1931 120.619 96.1931L116.709 98.8232H135.658H135.709H153.507V87.2521C155.877 92.2606 158.986 98.8232 158.986 98.8232H170.803V71.5334C170.819 67.396 170.84 61.1375 164.285 60.9128H158.284V72.1708C156.914 69.3348 155.538 66.4783 155.538 66.4783C153.703 62.7608 150.661 60.8021 146.729 60.8021H132.936L138.212 63.8183C140.189 64.9486 141.103 66.8042 141.096 69.6593V75.3058C141.087 77.3192 139.498 78.4871 139.436 78.5355L137.64 79.8209L139.411 81.1576C139.43 81.1714 141.1 82.4347 141.096 84.3981V90.0149C141.087 91.3111 140.741 93.8282 138.469 96.0611L135.709 98.7722V68.2194C135.709 64.5746 135.709 60.8015 128.345 60.8015L115.085 60.8009ZM38.8263 71.5458H41.4943C41.4943 71.5458 41.5948 71.5578 41.6915 71.5701C41.7053 71.717 41.7158 71.886 41.7158 71.886C41.7158 71.886 41.7212 75.4686 41.7212 75.6207H38.8263L38.8263 71.5458ZM72.7596 78.8639C73.1899 81.4494 73.4653 83.0934 73.6399 84.1458H71.8819C72.0582 83.0933 72.331 81.4494 72.7596 78.8639ZM14.0999 106.907C11.6319 106.907 9.51472 107.734 7.96455 109.305C6.42294 110.864 5.5902 113.052 5.61785 115.459V135.637C5.61785 140.203 8.79452 144.929 14.1106 144.929H45.8967C45.8967 144.929 46.4032 141.964 46.6123 140.717H51.8591C52.0665 141.964 52.5585 144.929 52.5585 144.929H65.3314L64.3917 140.352C65.5047 142.779 67.4326 144.929 70.5054 144.929H76.9135C81.6713 144.929 85.2335 140.907 85.2335 137.309C85.2335 137.298 85.2443 130.504 85.2443 130.504C85.2443 129.1 86.9269 127.549 87.518 127.115L88.1769 126.631V135.535C88.2615 140.076 91.1175 144.929 97.1854 144.929H106.442C108.959 144.929 111.371 143.955 113.047 142.261C114.534 140.756 115.348 138.814 115.348 136.785C115.348 136.757 115.356 130.504 115.356 130.504C115.361 129.1 117.048 127.549 117.635 127.115L118.324 126.61V144.929H130.84V134.228C133.177 138.859 136.244 144.929 136.244 144.929H151.582L149.428 142.294C148.211 140.811 148.039 138.448 148.034 136.115V131.095C148.027 128.973 149.869 127.134 149.889 127.115L151.069 125.951L149.876 124.792C149.857 124.772 148.036 122.999 148.034 120.82L148.029 115.43C148.006 112.926 148.128 110.928 149.789 109.889L154.572 106.908H142.396C140.545 106.908 138.94 107.534 137.764 108.725C136.361 110.146 135.62 112.277 135.62 114.89V117.628C133.284 112.99 130.22 106.908 130.22 106.908H124.892C118.248 107.136 118.297 113.717 118.324 117.65V124.979L117.59 124.479C117.013 124.082 115.367 122.67 115.367 121.412L115.362 116.513C115.362 116.292 115.352 116.037 115.338 115.787H115.349L115.354 115.676H115.349V115.652C115.349 114.412 115.701 110.994 117.341 109.843L121.543 106.908H110.742C103.229 106.908 103.054 114.719 102.992 117.661V133.827C102.988 134.104 102.965 134.274 102.943 134.4H100.31C100.296 134.281 100.272 134.138 100.267 133.89V106.907H94.7094C93.0865 106.907 91.6363 107.505 90.513 108.632C88.9714 110.182 88.1581 112.643 88.1771 115.745V124.959L87.475 124.478C86.8995 124.081 85.2472 122.669 85.2472 121.41L85.2444 116.512C85.2444 116.291 85.2382 116.035 85.2174 115.788H85.2336V115.683H85.2282V115.613C85.2282 114.356 85.5662 111.006 87.1752 109.815L91.0692 106.906H80.6294C73.1064 106.906 72.9388 114.718 72.8766 117.659V131.483C72.8489 134.219 72.8022 134.218 71.7289 134.218H63.1335L62.4422 130.859C62.0499 128.636 64.339 126.968 64.3649 126.949L67.1193 124.964L63.8302 124.076C63.7231 124.048 61.3865 123.382 60.633 120.53C60.5984 120.331 59.8094 115.934 59.8094 115.934C59.78 115.759 59.1051 111.541 62.7258 110.006L69.9873 106.906H49.9146C43.7844 106.906 40.4073 109.792 38.9779 116.266C38.9692 116.285 35.5441 132.989 33.9283 140.883C32.7271 139.431 32.7193 138.35 32.7401 136.968L32.7428 128.918H20.7099V134.399H19.114C18.3466 134.398 18.1544 134.259 18.1526 134.254C18.1319 134.226 17.947 133.973 17.9798 132.596V119.28C17.9798 117.773 18.1742 117.421 18.2175 117.365C18.2399 117.351 18.3943 117.282 18.9439 117.279H20.7099V121.354H32.3135V115.351C32.2841 113.799 32.8578 112.398 35.8754 109.726L39.0672 106.907L14.0999 106.907ZM161.154 106.907C157.725 106.852 155.048 107.739 153.214 109.546C151.562 111.175 150.689 113.51 150.703 116.299V119.227C150.696 122.337 151.775 125.065 153.819 127.114C155.973 129.263 158.995 130.444 162.331 130.433H164.621C165.048 130.43 165.243 130.516 165.293 130.563C165.34 130.611 165.417 130.796 165.417 131.187V132.893C165.417 133.875 165.307 134.136 165.274 134.195C165.255 134.205 165.094 134.292 164.54 134.298H163.324V130.908H151.397V137.443C151.374 139.599 152.077 141.515 153.373 142.828C154.76 144.224 156.73 144.929 159.241 144.929H183.799L180.356 142.077C179.566 141.417 177.721 139.545 177.721 136.344V131.856C177.681 126.926 175.077 122.012 170.195 120.339H176.54V116.737C176.54 112.418 179.507 109.901 182.63 106.907L161.154 106.907Z" fill="#CE181E"/>
<path d="M176.603 55.0583C175.757 55.0998 175.211 55.3815 174.9 55.9224C174.336 57.414 175.618 58.2047 175.777 58.5607C175.024 58.9288 174.137 59.5567 173.755 60.7129C173.533 61.399 173.551 62.1028 173.779 62.884C173.61 64.0782 173.722 65.512 174.37 67.4477H174.376C174.381 67.4736 174.391 67.4966 174.4 67.526C174.725 68.4834 175.481 70.585 172.626 74.3959C170.701 76.4974 172.276 80.0903 176.763 77.5877C185.755 72.9508 186.574 63.7981 182.966 59.7674C182.682 59.2938 181.91 57.8164 179.947 57.7421C178.035 54.9804 177.067 55.0427 176.603 55.0583ZM88.2745 62.414C91.5736 64.246 92.0766 68.2006 92.0766 71.5846V75.349C92.1112 78.7933 89.1467 79.7452 89.1467 79.7452C89.1467 79.7452 92.1112 81.4335 92.0766 84.1469V90.3929C92.0766 93.8253 94.0645 97.2114 97.877 97.2114H110.053C113.976 97.1751 116.702 93.9724 116.669 88.6943V77.3391H105.705V83.8929H108.022V87.6681C108.019 89.0593 107.364 89.9388 105.751 89.9095H103.332C101.79 89.9388 101.279 88.8382 101.263 87.6681V69.6652H106.291C108.441 69.6567 108.242 70.9452 108.233 72.4574H116.24V69.5301C116.24 66.5472 115.531 62.489 107.709 62.4146L88.2745 62.414ZM24.1908 62.4168C28.0706 64.8294 28.1388 69.7727 28.1388 69.7727V75.4057C28.0593 78.6324 25.2035 79.7074 25.2035 79.7074C25.2035 79.7074 28.1095 81.0751 28.1388 84.3034V90.0148C28.1388 95.4623 25.9434 97.2114 25.9434 97.2114H37.3229V84.903H41.144C41.144 84.903 43.4128 85.1339 43.7066 88.3623L44.614 93.9386C44.8801 95.99 46.0566 97.2115 47.7761 97.2115H53.8412L52.194 86.0346C52.0851 83.4024 50.3143 81.7403 47.6303 80.9903C49.775 80.0207 52.085 78.5735 52.194 75.3573L52.167 68.5117C52.3311 65.553 49.725 62.3996 44.8462 62.4169L24.1908 62.4168ZM121.316 62.4168C124.529 64.1987 125.061 68.0885 125.013 69.6647V75.3463C124.966 78.1323 122.671 79.5995 122.671 79.5995C122.671 79.5995 125.013 81.1646 125.013 84.2928V90.0176C124.966 93.6815 123.296 96.3802 121.637 97.2114H134.091V68.2196C134.091 64.5004 134.09 62.4164 128.34 62.4164L121.316 62.4168ZM139.012 62.4168C142.23 64.2557 142.718 67.4249 142.711 69.6647V75.3031C142.694 78.2394 140.359 79.856 140.359 79.856C140.359 79.856 142.718 81.5388 142.711 84.4007V90.0148C142.694 92.3531 141.836 95.0078 139.598 97.2114H151.887V80.0768L160.01 97.2114H169.183V71.5337C169.203 66.9487 169.117 62.6946 164.231 62.5252H159.894V79.2243L154.083 67.1778C152.241 63.4533 149.441 62.4169 146.724 62.4169L139.012 62.4168ZM61.0786 62.4196C64.9568 64.7734 63.779 70.1157 63.779 70.1157L62.5333 75.5936C61.5205 79.5047 58.7581 80.9025 58.7581 80.9025C58.7581 80.9025 61.3231 82.5342 60.732 85.8577L58.6446 97.2129H68.0771L68.7792 92.9949H76.7481L77.4529 97.2129H86.8962L81.4522 70.5135C80.4136 65.3875 77.6775 62.4204 72.0899 62.4204H61.0804L61.0786 62.4196ZM72.7579 69.0167L75.5421 85.7614H69.9765L72.7579 69.0167ZM37.2139 69.9319C37.2139 69.9319 39.7137 69.9181 41.5076 69.9319C43.305 69.9509 43.3047 71.0555 43.3358 71.8817V75.7C43.3358 75.7 43.3445 77.2512 41.8047 77.2339C40.2631 77.2166 37.2141 77.2339 37.2141 77.2339L37.2139 69.9319ZM14.0982 108.52C9.80176 108.52 7.18449 111.536 7.23108 115.439V135.637C7.23108 139.343 9.70539 143.317 14.109 143.317H34.0627C30.7203 140.381 31.1447 138.424 31.1274 136.274V130.534H22.3241V136.015H19.1161C16.8193 136.005 16.3048 135.048 16.367 132.556V119.356C16.3567 116.327 17.0413 115.69 18.9217 115.662H22.3241V119.743H30.6954V115.352C30.6522 113.058 31.7316 111.242 34.8027 108.52L14.0982 108.52ZM49.9104 108.52C44.2365 108.52 41.7562 111.174 40.5481 116.616L35.0798 143.317H44.5339L45.2549 139.102H53.2238L53.9232 143.317H63.3529L60.8578 131.182C60.2753 127.856 63.4286 125.638 63.4286 125.638C63.4286 125.638 60.0758 124.822 59.0648 120.92L58.2196 116.221C58.2196 116.221 57.195 110.599 62.0946 108.52L49.9104 108.52ZM80.6277 108.523C75.9199 108.523 74.6001 112.222 74.4842 117.694V131.485C74.46 134.12 74.4595 135.835 71.7272 135.835H64.7818C64.7818 135.835 65.6597 143.318 70.504 143.318H76.9121C80.6278 143.318 83.6172 140.209 83.6172 137.309L83.6279 130.504C83.6296 127.94 86.566 125.811 86.566 125.811C86.566 125.811 83.6279 123.832 83.6279 121.412C83.6279 121.412 83.6344 114.488 83.6172 115.768C83.6172 115.768 83.49 110.549 86.2068 108.523L80.6277 108.523ZM94.7054 108.523C91.954 108.523 89.7649 110.848 89.796 115.739V135.538C89.8617 139.452 92.1923 143.317 97.187 143.317H106.441C110.548 143.317 113.775 140.332 113.735 136.723L113.746 130.504C113.754 127.939 116.684 125.811 116.684 125.811C116.684 125.811 113.754 123.832 113.754 121.412C113.754 121.412 113.754 114.488 113.735 115.768C113.735 115.768 113.636 110.469 116.417 108.523H110.74C106.038 108.523 104.722 112.222 104.6 117.694V133.829C104.581 135.78 103.886 136.007 103.015 136.016H100.149C99.1574 136.007 98.6931 135.593 98.6534 133.928V108.523H94.7054ZM124.888 108.523C120.002 108.691 119.904 113.298 119.935 117.64V143.317H129.222V127.449L137.234 143.317H148.176C146.562 141.347 146.422 138.46 146.415 136.124V131.093C146.401 128.232 148.757 125.959 148.757 125.959C148.757 125.959 146.422 123.76 146.415 120.829V115.771C146.401 113.531 146.241 110.203 148.937 108.523H142.392C138.816 108.523 137.194 111.349 137.234 115.034V124.423L129.222 108.523L124.888 108.523ZM161.153 108.523C154.819 108.421 152.301 111.82 152.315 116.29V119.228C152.301 125.123 156.798 128.834 162.331 128.817H164.623C165.99 128.803 167.064 129.42 167.029 131.279V132.821C167.042 134.873 166.676 135.898 164.545 135.91H161.715V132.521H153.009V137.444C152.988 139.983 154.132 143.317 159.241 143.317H179.323C177.552 141.845 176.107 139.406 176.107 136.345V131.857C176.064 126.292 172.611 121.306 166.553 121.306H163.861C162.196 121.289 161.415 120.052 161.422 118.973V117.85C161.465 116.161 161.984 115.66 163.961 115.66H167.028V118.725H174.924V115.047C174.89 113.239 175.96 110.355 179.029 108.523H161.152L161.153 108.523ZM49.2384 115.123L52.0226 131.865H46.4571L49.2384 115.123Z" fill="white"/>
<path d="M175.982 76.3672C173.618 77.793 172.88 76.533 173.784 75.3043C177.157 70.7952 176.08 68.1043 175.735 67.0726C175.106 65.1715 175.033 63.7958 175.263 62.79C174.268 60.1285 177.28 59.5599 177.28 59.5599C177.601 58.0719 176.177 56.7878 176.177 56.7878C176.177 56.7878 176.018 56.5112 176.777 56.4715C177.551 56.4922 179.236 59.152 179.236 59.152C180.626 58.9775 181.424 59.7621 181.886 60.6297C182.641 61.2311 183.089 62.1401 183.365 63.1391C184.779 70.8039 178.224 74.9828 175.982 76.3672Z" fill="#CE181E"/>
<path d="M176.767 56.4688C176.008 56.5068 176.17 56.782 176.17 56.782C176.17 56.782 177.595 58.0673 177.272 59.5554C177.272 59.5554 174.257 60.1263 175.255 62.7878C175.438 63.2683 175.736 63.8133 176.227 64.4458C176.227 64.4458 175.778 61.7579 177.582 61.497C177.582 61.497 178.892 62.2976 179.162 64.3594C179.162 64.3594 180.387 62.4285 179.464 60.9785C179.464 60.9785 180.992 60.091 182.489 62.6176C182.489 62.6176 182.389 61.5718 181.876 60.6247C181.418 59.7606 180.615 58.9731 179.227 59.1475C179.227 59.1475 177.541 56.4895 176.767 56.4688ZM181.239 62.8877C182.637 69.4585 176.13 75.1926 176.121 75.196C182.4 70.7752 182.755 65.7556 182.354 64.6375C182.354 64.6375 182.2 63.3163 181.239 62.8877ZM163.956 117.277C163.394 117.277 163.18 117.317 163.078 117.349C163.056 117.439 163.037 117.577 163.03 117.852V118.986C163.03 119.154 163.091 119.686 163.856 119.688H165.414V117.277L163.956 117.277ZM49.2346 124.967C48.8008 127.556 48.5313 129.196 48.3516 130.252H50.1122C49.9342 129.196 49.6649 127.556 49.2346 124.967Z" fill="#0A0203"/>
</svg>
