<svg width="200" height="200" viewBox="0 0 200 200" fill="none" xmlns="http://www.w3.org/2000/svg">
<g clip-path="url(#clip0_107_20235)">
<path d="M29.5391 46.4733V56.509C35.346 56.509 40.9681 62.6148 40.9681 68.9159V86.2708H95.8342L71.9827 46.4738L29.5391 46.4733ZM128.077 46.4733L104.233 86.2702H159.091V68.9153C159.091 62.6142 164.717 56.5084 170.524 56.5084V46.4727L128.077 46.4733ZM40.9681 113.778V127.306C40.9681 133.411 35.3436 142.115 29.5391 142.115V153.952H79.9584V142.115C74.3352 142.115 68.5256 133.411 68.5256 127.306V113.778H40.9681ZM77.2382 113.778L100.035 151.31L122.823 113.778H77.2382ZM131.534 113.778V127.306C131.534 133.411 125.729 142.115 120.101 142.115V153.952H170.525V142.115C164.718 142.115 159.092 133.411 159.092 127.306V113.778H131.534Z" fill="#00B140"/>
<path d="M197.011 113.777V86.2695H167.515V76.6004C167.515 69.1741 167.468 64.3781 179.31 64.3781V36.8263H122.801L100.037 74.5638L77.2693 36.8263H20.7599V64.3781C32.6023 64.3781 32.5551 69.1741 32.5551 76.6004V86.2695H3.00391V113.777H32.5551V119.216C32.5551 126.406 32.6023 134.888 20.7599 134.888V163.16H88.7813V150.414L96.4435 163.16H103.629L111.291 150.414V163.16H179.31V134.888C167.468 134.888 167.515 126.406 167.515 119.216V113.777H197.011ZM26.0204 59.6044V42.7126H73.9858L100.037 86.0757L126.084 42.7126H174.057V59.6044C166.571 59.6044 162.403 64.8872 162.403 71.6305V86.2695H159.095H104.235H95.84H40.9724H37.6666V71.6305C37.6666 64.8872 33.4989 59.6044 26.0204 59.6044ZM83.4711 157.537H26.0204V139.585C33.4989 139.585 37.6666 131.664 37.6666 124.394V113.777H40.9724H68.5316H71.7455V124.394C71.7455 132.124 76.3503 139.585 83.4711 139.585V157.537ZM100.037 158.61L72.9924 113.777H77.2445H122.828H127.08L100.037 158.61ZM174.057 139.585V157.537H116.599V139.585C123.72 139.585 128.324 132.124 128.324 124.394V113.777H131.541H159.095H162.403V124.394C162.403 131.664 166.571 139.585 174.057 139.585Z" fill="#231F20"/>
<path d="M17.7582 33.832V67.378H20.7504C24.6671 67.378 27.2126 67.9337 28.318 69.039C29.5425 70.261 29.5482 72.9791 29.5482 76.4241V83.2776H0V116.776H29.5482V119.298C29.5482 123.506 29.5399 127.75 27.3516 129.936C26.0526 131.235 23.8327 131.891 20.7503 131.891H17.7581V166.159H91.7727V161.219C92.6047 162.604 94.7414 166.159 94.7414 166.159H105.313C105.313 166.159 107.452 162.604 108.289 161.219V166.159H182.296V131.891H179.3C176.222 131.891 174.004 131.235 172.702 129.936C170.517 127.752 170.506 123.504 170.506 119.384V116.776H200V83.2776H170.506V76.4241C170.506 72.9791 170.518 70.2586 171.74 69.039C172.843 67.9337 175.385 67.378 179.3 67.378H182.296V33.832H121.099C121.099 33.832 104.071 62.0649 100.029 68.7629C95.9898 62.0629 78.9555 33.832 78.9555 33.832H17.7582ZM20.7504 36.828H77.2618L100.03 74.5645L122.791 36.828H179.299V64.3773C167.456 64.3773 167.509 69.1754 167.509 76.6017V86.2727H197.003V113.78H167.509V119.217C167.509 126.41 167.456 134.892 179.299 134.892V163.16H111.281V150.416L103.62 163.16H96.4326L88.7758 150.416V163.16H20.75V134.892C32.5947 134.892 32.5476 126.41 32.5476 119.217V113.78H2.99945V86.2727H32.5476V76.6017C32.5476 69.1754 32.5948 64.3773 20.75 64.3773L20.7504 36.828ZM26.0127 42.7152V59.6044C33.4913 59.6044 37.6589 64.8901 37.6589 71.6309V86.2731H40.9654V68.9181C40.9654 62.617 35.3433 56.5113 29.5364 56.5113V46.4755H71.98L95.8316 86.2725H104.226L128.073 46.4755H170.521V56.5113C164.711 56.5113 159.088 62.617 159.088 68.9181V86.2731H162.395V71.6309C162.395 64.8901 166.565 59.6044 174.049 59.6044V42.7152H126.077L100.032 86.0787L73.9809 42.7152H26.0127ZM113.443 90.2792L112.159 90.5353L111.126 91.0515L110.362 91.5637L109.842 92.336L108.045 97.4741H103.675L106.244 92.0759H99.3018L100.074 92.5882L100.33 93.1082L100.59 93.6166L100.33 94.3889L99.818 96.1896L99.3018 97.4741H93.3874L94.9358 98.2464L95.7042 99.2748L95.9604 100.303V101.844L98.0173 101.588L97.5089 102.876L96.4766 105.961L95.9605 106.986V107.762L96.2166 108.53H96.7327H97.5089L98.2734 108.274L98.7896 107.498L99.558 106.47L101.875 101.332L106.761 100.815L105.728 104.417L104.444 107.762L103.932 109.043V109.819L104.378 110.49L104.444 110.587L105.212 110.843H105.728L106.245 110.587L106.338 110.49L106.761 110.071L107.273 109.043L111.383 100.559L114.472 100.303L113.7 101.588L113.187 102.62V103.388V103.905L113.444 104.417L113.7 104.933L114.472 105.961L115.5 106.218H116.785H121.927H126.037L127.581 105.961L128.87 105.189L129.638 103.905L130.411 102.62L134.012 95.165H136.837H137.353L137.862 95.4172L138.122 96.1895L137.862 96.4456L137.606 96.9579L136.577 97.474L134.52 97.7341L134.012 98.5025L133.496 99.5309L133.236 100.303L133.496 101.332L134.52 102.876L135.553 104.161L138.634 106.218L140.435 107.242L142.495 108.014L144.292 108.53H145.833H146.605V108.274L146.349 107.762L143.264 106.218H147.374L149.69 105.961L151.751 105.445L153.804 104.673L155.345 103.645L156.629 102.104L157.402 100.303L157.662 99.2748V97.9863V96.9579L157.402 95.6734L156.889 94.645L156.117 93.8805L155.601 93.3643L154.832 92.8482L153.032 92.3359L150.723 92.0759H143.264L144.292 92.3359L144.804 92.8482L145.064 93.3643L145.321 93.8805L145.064 94.645V95.165L148.406 94.905L150.723 95.165H151.751L152.519 95.6734L153.032 96.1895L153.548 96.7018L153.804 97.9863V99.0186L153.292 100.303L152.519 101.332L151.491 102.104L150.203 102.62L148.406 102.876H146.349L148.662 97.474H146.865H144.552L140.951 104.673L139.15 102.876L137.605 101.331L137.353 100.559V100.303L137.605 99.7868L137.862 99.5307L139.666 99.0184L140.695 98.2461L141.463 97.4739L141.723 96.1893L141.979 95.1648L141.723 94.1325L141.207 93.3641L140.695 92.848L140.178 92.3357L139.406 92.0757H138.378H131.179L128.354 98.2462L127.069 100.559L126.297 101.844L126.037 102.36L125.525 102.62L123.988 102.876H119.102L118.07 102.62V102.104L118.326 101.332L119.102 99.787L121.415 99.5308L123.212 99.0186L125.781 97.9863L126.297 97.7341L125.525 97.474H123.728H119.866L120.899 95.165H127.069L128.61 92.0758H118.326L115.757 97.474H112.928L115.5 92.0758V91.3074L115.24 90.7913L114.472 90.5352L113.443 90.2792ZM42.4906 90.5314L43.519 91.3037L43.7752 91.8198V92.076H43.519L41.7183 93.1044L40.4338 93.8767L38.3769 95.1612L44.2873 94.9051L51.23 94.3889L50.2016 97.9903L49.1732 101.075L46.6003 107.758L46.088 108.787V109.815L46.3441 110.327L46.6662 110.49L46.8603 110.587L47.0543 110.49L47.3764 110.327L48.1448 110.071L48.9171 109.303L49.6894 108.014L58.169 94.3889L62.5427 93.8767L73.8553 90.5314L42.4906 90.5314ZM74.1112 92.076L71.5383 97.7343H67.4247L69.2254 93.6167L64.5995 95.1612L63.315 97.7342H58.6852L59.9697 98.2503L60.9981 99.2748L62.0265 100.303L60.742 103.132L59.1974 106.217H63.315L65.8842 100.815H69.9978L67.4249 106.217H71.5385L78.225 92.0758L74.1112 92.076ZM80.5379 92.3321L78.2211 96.962L75.3958 102.62L75.1397 103.905V104.417L75.3958 104.933L75.9081 105.445L76.4203 105.962L77.4487 106.218H78.481H84.1353L84.6515 105.962L85.4199 105.702L86.4522 104.417L87.4767 102.876H81.3062L80.7939 102.62L80.5378 102.36L80.2777 102.104V101.332L81.05 100.047L83.6229 99.7911L85.936 99.275L88.765 97.4743H81.8223L83.1069 95.1613H89.5373L91.3341 92.3322L80.5379 92.3321ZM37.6591 113.781V124.399C37.6591 131.669 33.4913 139.589 26.0129 139.589V157.537H83.4641V139.589C76.3432 139.589 71.7402 132.129 71.7402 124.399V113.781H68.5231V127.31C68.5231 133.415 74.3328 142.119 79.9559 142.119V153.955H29.5366V142.119C35.3409 142.119 40.9656 133.415 40.9656 127.31V113.781H37.6591ZM72.9854 113.781L100.03 158.611L127.071 113.781H122.821L100.029 151.313L77.2361 113.781H72.9828H72.9854ZM128.318 113.781V124.399C128.318 132.129 123.715 139.589 116.595 139.589V157.537H174.054V139.589C166.568 139.589 162.396 131.669 162.396 124.399V113.781H159.089V127.31C159.089 133.415 164.715 142.119 170.522 142.119V153.955H120.099V142.119C125.727 142.119 131.532 133.415 131.532 127.31V113.781H128.318Z" fill="white"/>
</g>
<defs>
<clipPath id="clip0_107_20235">
<rect width="200" height="200" fill="white"/>
</clipPath>
</defs>
</svg>
