<svg width="200" height="200" viewBox="0 0 200 200" fill="none" xmlns="http://www.w3.org/2000/svg">
<g clip-path="url(#clip0_107_20224)">
<mask id="mask0_107_20224" style="mask-type:luminance" maskUnits="userSpaceOnUse" x="0" y="17" width="201" height="166">
<path d="M0.234375 17.418H200.234V182.195H0.234375V17.418Z" fill="white"/>
</mask>
<g mask="url(#mask0_107_20224)">
<path fill-rule="evenodd" clip-rule="evenodd" d="M173.561 78.3291L177.399 78.3858V92.3821C185.584 91.8887 198.9 90.7167 198.9 90.7167L195.157 115.401C195.074 120.571 194.692 148.386 194.578 156.728C195.355 158.142 196.259 159.93 196.817 161.384C197.762 163.84 198.335 166.717 198.658 168.592C198.991 170.526 200.236 181.798 200.236 181.798C200.236 181.798 177.406 181.843 173.985 181.817C170.622 181.792 156.569 181.715 154.108 181.702C152.282 181.832 146.121 182.08 138.55 180.202C135.613 179.466 132.851 178.156 130.423 176.346H120.851C115.961 179.073 110.557 180.754 104.983 181.28C100.44 181.724 95.7486 181.422 91.1191 181.019C89.8506 180.909 86.5179 181.008 83.5009 181.102C81.8242 181.151 80.24 181.21 79.0699 181.257L77.6559 181.314L77.2816 181.333C76.9767 181.345 76.6713 181.341 76.3667 181.322L57.4348 182.197L58.034 179.257C53.1793 180.79 48.109 181.528 43.0189 181.444C17.6257 181.114 0.234375 159.246 0.234375 137.84C0.234375 120.133 11.8128 103.337 27.8847 95.8263L27.9357 78.2384L31.6219 78.2913C28.5349 72.9794 26.2098 67.5616 26.2098 60.7412C26.2098 44.1325 39.6408 30.6694 56.2098 30.6694C60.2873 30.6694 64.1909 31.4917 67.7504 32.9794C71.4067 31.4516 75.3303 30.6663 79.293 30.6694C80.5274 30.6694 81.7448 30.745 82.9414 30.8906C85.9036 23.0172 93.4839 17.418 102.378 17.418C111.312 17.418 118.922 23.0683 121.854 30.9983C127.265 30.1918 132.794 30.8761 137.845 32.9775C141.5 31.4514 145.423 30.6668 149.384 30.6694C165.953 30.6694 179.384 44.1306 179.384 60.7393C179.384 67.832 176.724 73.1439 173.558 78.3291" fill="white"/>
</g>
<path fill-rule="evenodd" clip-rule="evenodd" d="M173.981 95.9836C181.024 95.7265 194.868 94.5092 194.868 94.5092L191.741 115.118C191.665 119.806 191.244 150.538 191.145 157.604L191.58 158.375C192.289 159.664 193.115 161.29 193.628 162.617C194.442 164.742 194.973 167.343 195.289 169.178C195.614 171.069 196.418 178.388 196.418 178.388C196.418 178.388 177.423 178.426 174.006 178.398C170.575 178.371 156.009 178.292 153.987 178.282C152.578 178.392 146.679 178.698 139.365 176.883C133.694 175.477 129.518 171.651 126.798 167.634C120.881 173.485 113.089 177.059 104.646 177.876C100.31 178.301 95.8298 177.999 91.4082 177.613C90.0736 177.498 86.567 177.587 83.3931 177.683C81.705 177.736 80.1077 177.795 78.9281 177.842L77.5141 177.899L77.1285 177.917C76.8926 177.928 76.6563 177.921 76.4215 177.897L61.6502 178.577C61.6502 178.577 62.1228 176.256 62.6521 173.749C57.5103 176.231 50.9659 178.127 43.0585 178.027C19.7447 177.723 3.64453 157.596 3.64453 137.844C3.64453 120.865 15.308 104.568 31.2873 98.0744L31.3345 81.7133L37.8941 81.8078C37.3345 81.0139 36.9205 80.4203 36.8033 80.2332C32.671 73.6793 29.62 68.1179 29.62 60.7436C29.62 46.0252 41.5217 34.0952 56.206 34.0952C60.3307 34.0952 64.2513 35.0441 67.7466 36.7341C71.3453 34.9936 75.2917 34.0913 79.2891 34.0952C81.3742 34.0952 83.4063 34.3371 85.361 34.7946C86.9546 26.8362 93.9659 20.8438 102.374 20.8438C110.852 20.8438 117.911 26.9364 119.425 34.9969C121.666 34.396 123.977 34.0922 126.297 34.0933C130.423 34.0933 134.344 35.0403 137.839 36.7322C141.438 34.9918 145.384 34.0896 149.382 34.0933C164.064 34.0933 175.968 46.0252 175.968 60.7436C175.968 68.0139 172.82 73.1254 168.904 79.3352C168.45 80.0536 167.869 80.8853 167.304 81.6661L173.981 81.7606V95.9836Z" fill="#A1D0F0"/>
<path fill-rule="evenodd" clip-rule="evenodd" d="M165.325 77.0615C164.717 78.0256 163.851 79.2165 163.155 80.1522L158.951 85.7912L169.745 85.9462V100.179C171.307 100.241 172.55 100.273 173.191 100.258C179.968 100.08 189.872 99.2127 189.872 99.2127L187.513 114.759C187.45 118.549 186.945 155.213 186.896 158.721C187.089 159.043 187.456 159.668 187.874 160.426C188.497 161.557 189.229 162.978 189.677 164.143C190.335 165.855 190.811 168.113 191.116 169.899C191.427 171.702 191.694 174.143 191.694 174.143C191.694 174.143 177.454 174.171 174.046 174.145C170.467 174.118 154.794 174.033 153.828 174.027C153.223 174.084 147.552 174.532 140.392 172.755C133.703 171.096 129.333 164.925 127.679 159.971C122.324 167.844 113.79 172.719 104.244 173.644C100.161 174.043 95.9417 173.738 91.781 173.377C90.3632 173.254 86.6392 173.33 83.2706 173.434C81.5674 173.485 79.953 173.544 78.764 173.593L77.3424 173.649L76.9511 173.668C76.8591 173.672 76.7673 173.658 76.6808 173.627L66.8944 174.08C66.8944 174.08 67.987 168.666 68.8585 166.06C69.0589 165.455 69.3122 164.787 69.5844 164.111C64.9549 168.182 56.0929 173.94 43.1194 173.774C22.3821 173.504 7.89062 155.534 7.89062 137.838C7.89062 121.799 19.6978 106.118 35.5239 101.052L35.5674 86.0199L46.2422 86.1711C46.2422 86.1711 40.8623 78.7042 40.3954 77.9613C36.2914 71.4509 33.8642 66.7949 33.8642 60.7401C33.8642 48.3696 43.8698 38.3413 56.212 38.3394C59.781 38.3394 63.1591 39.1844 66.1553 40.6759L67.7526 41.4736L69.3481 40.6759C72.4377 39.1362 75.8432 38.3369 79.2952 38.3413C81.2592 38.3413 83.1628 38.5965 84.9776 39.0728L88.8074 40.0804L89.4275 36.1617C90.4161 29.8857 95.8415 25.0898 102.378 25.0898C108.979 25.0898 114.444 29.9764 115.358 36.3375L115.949 40.4528L119.927 39.2656C121.947 38.6645 124.087 38.3394 126.303 38.3394C129.876 38.3394 133.254 39.1825 136.25 40.6759L137.845 41.4736L139.443 40.6759C142.531 39.1365 145.935 38.3366 149.386 38.3394C161.73 38.3394 171.734 48.3677 171.734 60.7401C171.734 66.6248 169.299 70.7647 165.325 77.0615Z" fill="#003767"/>
<path fill-rule="evenodd" clip-rule="evenodd" d="M44.0508 93.6758H160.969L160.943 99.7344C157.102 99.517 153.883 99.3147 153.883 99.3147C153.883 99.3147 141.854 100.496 135.056 100.496C128.27 100.496 117.021 99.154 117.021 99.154L119.843 108.577C119.366 108.262 118.883 107.956 118.391 107.659C107.321 101.008 93.6557 100.101 88.3419 100.018C85.2512 99.9688 81.3192 100.135 78.4137 100.073C74.1207 99.9782 61.6084 97.5813 61.5839 97.5775L60.9487 97.4565C60.9487 97.4565 61.357 100.797 61.6292 102.993C56.512 100.625 51.0791 99.3563 46.0943 99.3563C45.4099 99.3601 44.7294 99.3847 44.0527 99.4282L44.0508 93.6758ZM93.8617 158.844C101.272 159.162 104.76 157.387 109.429 152.646C114.521 147.36 114.491 139.122 112.869 133.742C110.762 126.742 104.448 122.88 97.1472 121.016C96.5612 120.884 94.9865 120.808 94.0772 120.698C94.0583 133.192 93.667 146.005 93.8617 158.844ZM69.03 105.976C69.03 105.976 73.4345 106.986 78.2587 107.092C81.1755 107.156 85.1264 106.99 88.2304 107.039C98.3079 107.198 136.625 110.655 125.257 148.861C122.194 159.158 113.688 165.68 103.559 166.659C99.8996 167.018 96.1113 166.71 92.3797 166.387C86.1094 165.84 76.4062 166.848 76.3986 166.85L75.8013 166.95C75.8013 166.95 76.6368 163.901 78.5234 161.906C80.6122 159.698 82.6084 158.825 82.6084 158.825L79.9241 118.296C79.9241 118.296 77.8013 117.647 76.1547 116.549C69.8788 112.356 69.03 105.976 69.03 105.976Z" fill="#95999C"/>
<path fill-rule="evenodd" clip-rule="evenodd" d="M93.863 158.844C101.273 159.162 104.761 157.387 109.43 152.646C113.757 148.154 114.385 141.534 113.483 136.343L116.3 132.26C116.3 132.26 121.967 152.305 105.046 159.856C100.09 162.067 91.2562 161.426 91.2562 161.426L93.8611 158.818L93.863 158.844ZM80.4887 163.447C79.3054 164.071 77.2751 165.693 75.812 166.914C75.9122 166.566 76.7571 163.776 78.5265 161.907C80.6135 159.699 82.6097 158.825 82.6097 158.825L79.9235 118.296L83.4452 115.765L85.7931 161.162C85.7931 161.162 83.6192 161.799 80.4887 163.447ZM69.0312 105.977C69.0312 105.977 73.4339 106.986 78.26 107.092C81.1768 107.156 85.1277 106.99 88.2335 107.039C95.9934 107.162 120.498 109.239 126.167 127.634L121.99 127.105C121.99 127.105 118.048 115.547 99.8422 111.884C86.7987 109.258 81.5776 111.597 76.6985 110.215C72.5454 109.039 70.2581 107.324 69.0331 105.995L69.0312 105.977Z" fill="white"/>
<path fill-rule="evenodd" clip-rule="evenodd" d="M139.786 50.1083C142.402 47.7404 145.805 46.431 149.333 46.4353C157.216 46.4353 163.605 52.838 163.605 60.7378C163.607 62.732 163.192 64.7046 162.387 66.5288C161.581 68.3529 160.402 69.9882 158.926 71.3295L139.786 92.08V65.4316C139.001 67.6919 137.663 69.7196 135.892 71.3295L116.756 92.08V62.4807C116.52 64.4372 115.88 66.3233 114.877 68.0195L102.382 92.08L90.0378 67.5469C89.5 66.552 89.0824 65.4967 88.794 64.4032V92.08L69.6541 71.3314C67.8836 69.7216 66.5448 67.6939 65.7599 65.4335V92.08L46.6219 71.3314C45.1454 69.9902 43.9661 68.3547 43.16 66.5302C42.3539 64.7056 41.9388 62.7325 41.9414 60.7378C41.9414 52.838 48.3308 46.4353 56.2136 46.4353C59.8809 46.4353 63.2306 47.8248 65.7599 50.1083V56.044C66.7301 53.2397 68.55 50.8073 70.9666 49.0852C73.3833 47.3631 76.2764 46.4369 79.2439 46.4353C82.915 46.4353 86.2628 47.8248 88.7902 50.1083V57.0743C90.4083 50.9495 95.9736 46.4353 102.59 46.4353C109.883 46.4353 115.898 51.9174 116.754 58.9949V50.1102C119.369 47.7422 122.773 46.4329 126.301 46.4372C132.543 46.4372 137.849 50.4524 139.786 56.0459V50.1083ZM97.4216 37.5904C97.4206 36.9286 97.55 36.273 97.8026 35.6613C98.0551 35.0496 98.4257 34.4936 98.8932 34.0252C99.3607 33.5568 99.916 33.1851 100.527 32.9315C101.139 32.6778 101.794 32.5471 102.456 32.5469C103.793 32.5494 105.074 33.0822 106.018 34.0285C106.963 34.9748 107.493 36.2572 107.493 37.5941C107.494 38.2559 107.365 38.9114 107.112 39.5232C106.86 40.1349 106.489 40.6909 106.022 41.1593C105.554 41.6277 104.999 41.9993 104.388 42.253C103.776 42.5067 103.121 42.6374 102.459 42.6376C101.122 42.6356 99.8406 42.1029 98.896 41.1565C97.9514 40.2101 97.4211 38.9275 97.4216 37.5904Z" fill="#95999C"/>
<path fill-rule="evenodd" clip-rule="evenodd" d="M97.4216 37.5904C97.4206 36.9286 97.55 36.273 97.8026 35.6613C98.0551 35.0496 98.4257 34.4936 98.8932 34.0252C99.3607 33.5568 99.916 33.1851 100.527 32.9315C101.139 32.6778 101.794 32.5471 102.456 32.5469C104.616 32.5469 106.463 33.9136 107.176 35.8304C105.633 35.424 103.592 35.373 101.811 36.9382C100.206 38.3503 99.896 40.3465 99.9849 41.9873C99.2068 41.5468 98.5595 40.9076 98.1092 40.1351C97.6589 39.3627 97.4216 38.4845 97.4216 37.5904ZM88.7921 57.0724C90.4064 50.9476 95.9717 46.4353 102.59 46.4353C109.856 46.4353 115.854 51.8796 116.745 58.9212C115.043 56.4883 110.56 51.5639 102.597 52.4826C96.1531 53.2274 92.9773 57.5336 92.4537 62.1896C92.0189 66.0573 92.2874 69.8248 92.932 73.3011L90.0359 67.5469C89.4982 66.552 89.0807 65.4967 88.7921 64.4032V57.0724ZM116.754 50.1083C119.37 47.7399 122.774 46.4305 126.302 46.4353C129.251 46.4369 132.127 47.3517 134.536 49.054C136.944 50.7563 138.765 53.1625 139.75 55.942C138.457 54.5525 133.994 50.7189 125.369 52.4826C120.97 53.3824 118.217 55.8852 116.754 58.872V50.1083ZM139.786 50.1083C142.402 47.7404 145.805 46.431 149.333 46.4353C152.282 46.4366 155.158 47.3512 157.567 49.0534C159.975 50.7557 161.797 53.1622 162.783 55.942C161.49 54.5525 157.026 50.7189 148.399 52.4826C144.026 53.3767 141.267 55.7359 139.786 58.6225V50.1083ZM65.7599 50.1102V56.2217C64.5274 54.7397 60.7202 52.0894 56.3365 52.4826C50.5709 53.0006 47.5123 56.7945 46.915 61.4694C46.4197 65.3257 47.0624 69.3295 48.2458 73.0913L46.6201 71.3314C45.1438 69.9901 43.9648 68.3546 43.159 66.53C42.3532 64.7055 41.9384 62.7324 41.9414 60.7378C41.9414 52.838 48.3308 46.4353 56.2136 46.4353C59.8828 46.4353 63.2306 47.8266 65.7599 50.1102ZM88.7921 50.1102L88.7902 56.2217C87.5615 54.7397 83.7524 52.0894 79.3668 52.4826C73.603 53.0006 70.5463 56.7945 69.9471 61.4694C69.4518 65.3257 70.0945 69.3295 71.2779 73.0913L69.6522 71.3314C67.8826 69.7213 66.5444 67.6936 65.7599 65.4335V56.044C67.6976 50.4505 73.0019 46.4353 79.2439 46.4353C82.915 46.4353 86.2628 47.8248 88.7902 50.1083" fill="white"/>
<path fill-rule="evenodd" clip-rule="evenodd" d="M179.803 161.278C180.308 161.744 181.168 162.571 182.236 164.559C182.814 165.637 183.264 167.38 183.264 167.38C183.264 167.38 177.58 167.087 174.092 167.06C170.264 167.032 164.495 167.416 164.495 167.416C164.495 167.416 165.289 165.935 166.578 164.253C167.34 163.259 168.909 161.879 168.909 161.879C168.909 161.879 168.837 161.461 168.78 161.251C160.491 168.005 151.119 168.434 142.276 165.93C138.353 164.818 135.219 160.731 134.232 157.264C132.818 152.306 131.994 125.115 132.157 114.398C132.157 114.398 130.996 113.028 130.402 111.983C129.678 110.703 128.578 107.056 128.578 107.056C128.578 107.056 132.416 107.629 136.056 107.705C138.941 107.763 144.994 107.047 144.994 107.047C144.994 107.047 144.034 138.595 144.947 150.89C145.72 154.504 148.009 158.444 154.283 158.158C162.512 157.778 167.38 153.899 168.257 147.408C168.504 142.881 168.017 116.081 167.705 114.979C167.554 114.831 166.155 113.107 165.478 111.727C164.716 110.172 164.202 107.468 164.202 107.468C164.202 107.468 169.259 107.986 172.503 107.941C176.567 107.881 181.593 107.359 181.629 107.351L180.451 114.55C180.451 114.55 179.922 144.043 179.803 161.278Z" fill="#95999C"/>
<path fill-rule="evenodd" clip-rule="evenodd" d="M144.397 166.473C143.688 166.313 142.982 166.133 142.282 165.935C138.36 164.823 135.227 160.736 134.237 157.269C132.825 152.311 131.821 126.536 131.983 115.821C131.983 115.821 129.318 113.468 128.464 111.865C127.464 109.986 126.543 106.73 126.543 106.73C126.543 106.73 132.481 107.536 136.121 107.591C140.008 107.651 145 107.023 145 107.023C144.225 108.496 142.81 109.417 141.051 110.445C139.448 111.386 138.065 111.757 136.594 112.137C136.594 128.914 136.647 147.619 137.422 154.201C138.241 161.163 144.129 162.816 144.129 162.816L144.397 166.473ZM150.772 157.808C151.775 158.092 152.94 158.224 154.29 158.165C162.518 157.782 167.386 153.904 168.263 147.415C168.511 142.885 167.191 114.857 167.191 114.857C167.191 114.857 165.426 113.322 164.526 112.076C163.458 110.604 162.711 107.479 162.711 107.479C162.711 107.479 169.265 107.993 172.509 107.946C176.573 107.887 181.6 107.36 181.636 107.356L181.617 107.473C180.74 108.122 178.492 109.73 176.749 110.483C175.161 111.167 172.509 111.782 172.509 111.782L172.628 138.619C172.673 149.46 171.692 158.316 158.847 160.812C151.254 162.284 147.781 160.337 147.781 160.337L150.772 157.808ZM168.915 161.884C168.915 161.884 168.849 161.494 168.792 161.279L172.509 158.33V163.997C170.864 164.424 169.949 164.74 168.388 165.415C166.806 166.095 165.658 166.681 164.501 167.419C164.501 167.419 165.295 165.942 166.585 164.258C167.346 163.264 168.915 161.884 168.915 161.884Z" fill="white"/>
<path fill-rule="evenodd" clip-rule="evenodd" d="M63.954 139.388C63.281 127.153 51.9502 118.042 40.729 117.896C32.1714 117.329 26.627 123.019 26.2205 132.597C25.627 146.548 38.0277 155.552 52.1563 155.48C60.6118 155.437 64.4927 149.204 63.954 139.388ZM75.7914 133.599C75.8803 151.675 61.2035 166.694 43.1752 166.548C26.8538 166.416 15.0977 152.045 15.0977 137.845C15.0977 122.204 29.4039 106.679 46.1109 106.59C59.3623 106.59 75.6988 117.579 75.7914 133.599Z" fill="#95999C"/>
<path fill-rule="evenodd" clip-rule="evenodd" d="M63.9612 139.384C63.7344 135.295 62.3204 131.556 60.1181 128.382L61.362 123.176C68.3601 130.223 71.6871 146.422 62.5378 155.191C55.4017 162.028 41.0066 159.771 32.8516 153.518L37.3714 151.824C41.6342 154.21 46.7722 155.505 52.1635 155.476C60.619 155.433 64.5 149.2 63.9612 139.384Z" fill="white"/>
<path fill-rule="evenodd" clip-rule="evenodd" d="M27.9124 161.711C20.0183 156.283 15.0977 147.022 15.0977 137.839C15.0977 122.198 29.4058 106.673 46.1128 106.582C53.8349 106.582 62.6024 110.314 68.5948 116.597L64.1941 117.743C54.1468 109.142 38.6496 107.168 27.5438 118.291C10.8765 134.992 23.5929 153.159 28.4228 156.457L27.9124 161.711Z" fill="white"/>
<path fill-rule="evenodd" clip-rule="evenodd" d="M129.358 171.594H128.428L127.833 173.409L127.237 171.594H126.307V174.66H126.884V172.185H126.897L127.663 174.662H128.003L128.769 172.185H128.78V174.662H129.357L129.358 171.594ZM125.986 171.594H123.742V172.185H124.547V174.662H125.181V172.185H125.986V171.594Z" fill="#003767"/>
</g>
<defs>
<clipPath id="clip0_107_20224">
<rect width="200" height="200" fill="white"/>
</clipPath>
</defs>
</svg>
