<svg width="200" height="200" viewBox="0 0 200 200" fill="none" xmlns="http://www.w3.org/2000/svg">
<g clip-path="url(#clip0_107_20223)">
<path d="M59.1115 30.6484C23.2738 44.8741 -0.800359 72.2311 0.0203515 102.871C0.841061 134.605 27.9245 161.415 66.4979 173.178C33.1223 159.5 10.1424 133.237 9.32173 102.597C8.77459 72.7782 28.4716 46.2419 59.1115 30.6484Z" fill="#BF0D3E" stroke="#BF0D3E" stroke-width="2.09516" stroke-miterlimit="15.5025"/>
<path d="M102.334 27.3675C96.0423 27.3675 80.996 27.9146 65.1289 33.6596C58.0161 31.471 57.4689 35.301 57.4689 36.9424C41.3283 44.8759 25.7348 59.1016 19.4427 85.0907C19.4427 85.0907 5.21709 148.833 74.7039 169.897C74.7039 169.897 71.421 163.332 71.6946 155.398C71.9681 147.738 77.4395 139.258 78.5338 139.805C84.0052 142.267 89.2031 145.276 92.4859 147.191C95.7687 149.106 109.721 159.228 126.682 161.964C134.069 163.332 131.059 163.058 138.446 163.605C144.464 164.152 152.945 164.152 159.511 159.228C162.52 156.766 167.444 146.644 169.085 142.814C169.085 142.814 168.265 121.749 182.217 101.231C182.217 101.231 195.622 94.9392 194.527 84.8172C194.527 84.8172 198.357 79.8929 199.999 75.5158C199.999 75.5158 190.424 67.0351 180.028 59.6487C180.028 59.6487 180.302 58.2809 180.849 56.3659C180.849 56.3659 173.736 49.2531 156.228 39.9517C156.228 39.9517 134.069 27.0939 105.344 26.8203C105.344 27.3675 104.249 27.3675 102.334 27.3675Z" fill="#00205B" stroke="#00205B" stroke-width="4.19032" stroke-miterlimit="15.5025"/>
<path d="M100.419 30.65C100.419 30.65 85.6462 30.65 73.3355 34.7535C73.3355 34.7535 94.4004 37.7628 95.2211 37.7628C95.2211 37.7628 76.6184 37.2157 74.7034 36.9421C74.7034 36.9421 62.3927 35.3007 61.2985 35.3007C61.2985 35.3007 58.5628 34.7535 59.3835 38.0364C59.3835 38.0364 62.1192 45.6963 69.5056 55.2713C69.5056 55.2713 73.6091 61.5634 74.1563 62.9312C74.1563 62.9312 73.3355 63.7519 72.5148 62.6577C72.5148 62.6577 60.4778 47.3377 58.0156 41.0456C58.0156 41.0456 29.2908 53.9034 22.4515 90.2882C22.4515 90.2882 15.3387 138.437 58.8363 160.322C58.8363 160.322 21.9044 134.333 56.9213 100.957C56.9213 100.957 45.4314 120.381 62.6663 128.862C62.6663 128.862 78.5334 133.239 89.4762 140.352C89.4762 140.352 109.994 153.756 122.031 157.586C122.031 157.586 133.247 161.416 139.813 161.964C139.813 161.964 149.114 163.879 156.501 159.501C156.501 159.501 164.161 154.304 166.623 141.719C166.623 141.719 145.011 152.115 116.56 142.267C116.56 142.267 103.155 138.163 103.975 126.126C103.975 126.126 107.258 105.335 140.907 100.684C140.907 100.684 144.737 100.137 150.756 100.957C150.756 100.957 169.632 102.872 176.471 100.684C176.471 100.684 178.386 100.41 180.028 99.316C180.028 99.316 187.961 92.2032 189.603 82.0811L181.943 75.789L194.527 76.8833L189.876 82.3547C189.876 82.3547 190.15 92.2032 183.037 98.7689C183.037 98.7689 192.338 95.4861 193.159 84.5433C193.159 84.5433 197.81 78.2512 198.083 76.8833C198.083 76.8833 178.66 61.5634 177.839 61.2898C177.839 61.2898 178.386 57.7334 178.934 57.4598C178.934 57.4598 155.133 42.4135 151.029 40.7721C151.029 40.4985 129.144 30.3764 100.419 30.65ZM67.8641 39.6778C69.7791 39.9514 89.2026 45.4228 89.2026 45.4228C71.6941 39.4042 88.6555 73.874 77.9862 60.4691C67.317 46.7906 66.4963 39.6778 67.8641 39.6778ZM131.059 50.6206L142.275 56.6391L140.907 60.4691L147.747 59.6484L159.51 65.9405L127.502 59.922L131.059 50.6206ZM36.4036 80.1661C36.9507 80.1661 37.2243 80.7133 37.7714 82.3547C38.3186 84.5433 37.2243 85.9111 37.2243 85.9111C37.2243 87.5525 35.0357 88.6468 34.215 87.8261C33.3943 86.7318 32.8472 85.364 33.1208 84.2697C33.3943 83.1754 34.7622 80.9869 35.8565 80.4397C36.13 80.1661 36.4036 80.1661 36.4036 80.1661ZM148.02 83.9961C165.255 84.2697 177.019 86.4583 177.019 86.4583C175.651 87.8261 173.462 90.2882 173.462 90.2882C121.21 77.704 70.0527 101.778 70.0527 101.778C95.2211 86.4583 125.861 83.449 148.02 83.9961ZM143.917 90.8354C158.416 90.5618 168.811 92.4768 168.811 92.4768L165.802 94.9389C132.7 86.7318 93.8533 102.599 93.8533 102.599C110.541 93.5711 129.417 91.1089 143.917 90.8354ZM40.7807 92.7504C41.0543 92.7504 41.6014 93.2975 42.1486 94.1182C43.2428 95.4861 42.9693 97.401 42.9693 97.401C43.5164 98.7689 42.1486 100.684 41.0543 100.137C39.96 99.5896 39.1393 98.7689 38.8657 97.6746C38.8657 96.5803 38.8657 94.3918 39.6864 93.5711C40.2336 92.7504 40.5071 92.4768 40.7807 92.7504ZM29.8379 94.1182C30.1115 94.1182 30.6586 94.6654 31.2058 95.2125C32.5736 96.5803 32.3 98.2218 32.3 98.2218C32.8472 99.316 31.4793 101.231 30.3851 100.684C29.2908 100.137 28.1965 99.316 27.9229 98.2218C27.6494 97.401 27.9229 95.2125 28.7436 94.3918C29.2908 94.1182 29.5643 94.1182 29.8379 94.1182ZM140.907 101.778L157.048 107.523L157.322 119.56L165.529 106.155L166.623 109.438L168.811 105.882L169.906 108.891L172.094 105.608L171.547 113.815L179.481 102.052C166.623 106.429 140.907 101.778 140.907 101.778ZM38.8657 104.514C39.4129 104.514 39.6864 104.787 40.2336 105.882C41.0543 107.25 40.2336 108.344 40.2336 108.344C40.5071 109.438 39.1393 110.259 38.3186 109.438C37.4979 108.891 36.9507 107.797 36.9507 107.25C36.9507 106.429 37.4979 105.061 38.3186 104.787C38.5922 104.787 38.8657 104.514 38.8657 104.514ZM30.9322 107.523C31.2058 107.523 31.7529 108.07 32.5736 108.891C33.9415 110.532 33.3943 112.447 33.3943 112.447C33.9415 113.815 32.5736 116.004 31.2058 115.457C30.1115 114.91 29.0172 113.815 28.7436 112.721C28.4701 111.627 28.7436 108.891 29.5643 108.07C30.1115 107.523 30.3851 107.25 30.9322 107.523ZM116.833 122.843C116.012 122.843 115.465 123.117 115.465 123.117C109.72 124.758 114.645 129.409 114.645 129.409C108.079 127.22 106.164 125.032 106.164 125.032C106.711 144.182 134.068 139.257 134.068 139.257C120.39 135.154 119.295 124.484 119.295 124.484C118.475 123.39 117.654 123.117 116.833 122.843ZM154.859 128.041L150.482 140.078C150.482 140.078 148.294 141.446 145.011 141.993C141.728 142.54 137.077 141.993 137.077 141.993L118.475 141.446C118.475 141.446 148.841 149.379 165.255 139.257L166.349 129.135L161.425 136.522L160.878 135.154L159.237 136.795L157.595 134.88L156.227 137.616L154.859 128.041ZM59.3835 131.05C57.1949 130.777 54.7328 131.597 52.8178 135.427C52.8178 135.427 48.7142 143.908 54.7328 150.747C54.7328 150.747 62.1192 158.954 67.0434 161.416C67.0434 161.416 56.9213 148.011 74.7034 137.342L62.9399 132.144C63.2135 132.418 61.2985 131.324 59.3835 131.05Z" fill="white"/>
</g>
<defs>
<clipPath id="clip0_107_20223">
<rect width="200" height="200" fill="white"/>
</clipPath>
</defs>
</svg>
