<svg width="200" height="200" viewBox="0 0 200 200" fill="none" xmlns="http://www.w3.org/2000/svg">
<path d="M197.697 108.412C193.697 96.4641 183.009 87.2936 175.468 82.0506L182.53 73.247L180.468 71.5363C179.222 70.5 149.47 46.1992 106.573 46.1992L105.551 46.2053C62.6501 46.5883 32.8453 72.0514 31.5973 73.1301L26.3149 77.7209L35.5005 78.0011C25.4913 85.2088 13.4256 96.2877 3.12706 112.587L0 117.54L5.80351 116.765C5.92751 116.747 17.9599 115.152 27.6214 115.152C28.3502 115.152 29.0549 115.162 29.7232 115.179C27.4742 118.115 24.6365 122.01 22.9499 125.039L19.9025 130.514L25.9923 129.031C26.0669 129.011 33.8281 127.152 44.91 127.152C61.2731 127.152 87.3047 131.135 105.364 150.097L107.123 151.945L109.09 150.321C109.232 150.201 120.718 138.575 138.762 133.724C142.805 132.799 146.829 132.333 150.719 132.333H151.18C151.429 132.333 151.683 132.337 151.934 132.345C153.952 132.515 156.002 132.825 158.028 133.258C176.994 137.328 177.741 148.226 177.766 148.805L177.838 153.805L182.02 151.02C182.758 150.532 200 138.839 200 120.831C200 116.613 199.207 112.4 197.683 108.403" fill="white"/>
<path d="M105.573 48.942C63.2016 49.3307 33.4011 75.2118 33.4011 75.2118L44.1795 75.5424C33.8439 81.8393 18.2444 93.8104 5.45312 114.06C5.45312 114.06 25.2817 111.403 35.0044 112.854C34.5915 113.378 34.1495 113.952 33.685 114.566C31.5503 117.262 27.4664 122.581 25.351 126.376C25.351 126.376 75.4792 114.746 107.351 148.215C107.359 148.215 119.19 136.167 138.166 131.062C142.287 130.126 146.65 129.562 151.198 129.602C151.496 129.602 151.795 129.61 152.101 129.618C154.206 129.796 156.368 130.11 158.618 130.586C180.319 135.247 180.521 148.748 180.521 148.748C180.521 148.748 197.279 137.586 197.279 120.841C197.279 116.699 196.456 112.837 195.101 109.281C190.875 96.6492 178.529 87.1861 171.198 82.4917L173.771 79.8707L178.723 73.6424C178.723 73.6424 148.513 48.5517 105.577 48.942H105.573ZM115.073 80.9135C116.993 81.0425 119.654 81.3715 121.469 82.0457C122.001 87.6934 128.081 90.8838 128.081 90.8838C120.622 90.9943 116.283 83.7748 115.073 80.9135Z" fill="black"/>
<path d="M104.389 57.0848C77.5067 57.3888 60.5734 67.9108 60.5734 67.9108C69.1792 68.1745 76.0922 68.7318 76.0922 68.7318C50.241 75.8665 32.281 95.1426 27.5156 101.223C54.1483 81.9529 80.4527 74.0681 96.4288 72.5689C98.7836 72.4278 100.953 72.3504 102.961 72.3318C102.219 71.5705 100.784 70.8721 99.0901 70.264C99.0175 70.239 98.9611 70.2148 98.8965 70.1915C98.8804 70.1898 98.8723 70.1882 98.8643 70.1882C95.2352 68.9301 90.6706 68.0575 88.8641 67.7309C88.5657 67.6793 88.3964 67.6543 88.3964 67.6543H88.4044C88.1867 67.6124 88.0657 67.5938 88.0657 67.5938C92.0577 67.0374 95.9691 66.9333 99.7675 67.185C103.389 67.3962 106.824 67.9398 110.042 68.7124C125.921 72.3641 138.421 81.0803 143.469 85.0256C149.364 86.2127 155.364 84.6691 160.695 80.7989C155.824 76.9004 144.13 68.9882 144.13 68.9882C152.743 71.66 160.881 76.3278 163.913 78.2964C165.719 76.8972 166.994 75.3165 166.994 75.3165C158.219 69.1197 149.034 65.1325 140.098 62.6639C126.953 58.4114 114.905 56.9662 104.389 57.0848ZM103.316 81.1674C73.6921 81.4392 52.1224 98.5306 52.1224 98.5306C80.6543 88.4563 103.082 89.0925 103.082 89.0925C112.381 97.8895 123.453 97.4814 129.711 96.2669C113.977 94.1741 110.235 85.2094 109.348 81.3473C107.308 81.2061 105.292 81.1497 103.316 81.1674ZM165.55 86.4748C161.114 89.8692 155.598 93.3362 149.122 95.9838C139.114 100.076 132.558 105.713 127.178 113.387C156.469 109.905 173.631 124.486 180.365 131.458C180.542 131.571 180.711 131.692 180.881 131.813C183.678 128.127 187.638 120.672 185.066 109.832C185.066 109.832 188.404 112.92 190.219 117.616C189.84 102.215 171.832 90.2014 165.55 86.4748ZM139.542 119.251C131.864 119.117 125.51 120.594 121.978 121.996C120.55 124.665 118.832 128.982 117.429 132.038C134.299 121.34 148.784 122.808 165.026 126.168C156.203 121.129 147.211 119.385 139.542 119.251Z" fill="#FFD046"/>
</svg>
