<svg width="200" height="200" viewBox="0 0 200 200" fill="none" xmlns="http://www.w3.org/2000/svg">
<g clip-path="url(#clip0_107_20234)">
<path d="M49.2575 0C47.3473 22.4223 53.5748 33.6586 53.793 34.0446C53.793 34.0446 48.6633 31.0165 44.524 25.061C46.8907 40.121 58.1942 46.3855 58.1942 46.3855C63.5555 63.0872 71.1561 70.8925 71.1561 70.8925C22.5415 87.4868 17.2272 146.408 17.2272 146.408C17.2272 146.408 32.7169 125.375 58.9932 121.176C18.3249 134.91 14.4844 178.509 14.4844 178.509C14.4844 178.509 33.6905 154.327 75.574 158.477C75.3021 158.228 85.0646 143.887 96.6602 139.64C96.6602 139.64 85.7831 149.772 80.2438 159.598C80.2438 159.598 89.9795 161.32 93.9006 162.485C97.8285 163.65 108.017 166.822 107.48 172.681C106.627 181.919 88.1431 185.122 88.0827 184.887C100.622 193.491 113.741 189.658 113.886 189.463C111.942 193.841 98.896 196.835 98.896 196.835C98.896 196.835 137.234 211.435 140.105 177.918C150.314 170.502 149.112 159.39 149.112 159.39C149.112 159.39 144.284 166.144 134.891 164.865C131.87 164.449 118.129 154.962 122.403 146.341C123.816 143.474 134.351 136.813 148.813 138.814C155.346 139.975 158.24 149.892 158.18 150.275C157.219 156.264 150.727 166.386 150.727 166.386C150.727 166.386 158.324 167.286 167.533 159.83C171.047 161.233 171.722 162.233 174.096 160.649C178.571 157.654 179.705 150.608 180.088 149.809C182.277 148.627 186.185 144.917 185.413 134.822C184.791 126.675 180.39 117.359 173.995 110.429C169.396 88.786 162.215 78.7045 125.589 62.4023C80.9052 43.0652 67.3726 38.3384 49.2575 0.0100715V0Z" fill="#8C734A"/>
<path d="M57.7081 22.9174C57.7081 22.9174 58.2218 51.5168 76.592 73.647C76.169 73.7477 75.7594 73.8451 75.3666 73.9558C75.2693 73.882 45.8541 78.3067 29.8742 129.647C29.8742 129.647 43.8667 111.583 94.8279 116.457C76.5215 114.711 38.2166 126.918 26.4062 164.088C26.4062 164.088 39.066 150.824 71.9256 153.466C76.0045 147.4 88.5903 135.321 110.395 131.403C110.395 131.403 98.0205 138.604 89.4464 156.182C89.0939 156.148 93.3541 156.937 98.9706 158.968C98.9706 158.968 126.103 168.348 102.801 186.118C102.801 186.118 117.082 187.867 120.483 180.212C124.807 186.712 116.253 193.11 114.172 194.44C141.757 196.337 136.862 176.08 136.862 176.08C142.432 173.572 145.524 165.125 145.524 165.125C139.031 170.047 133.562 168.207 131.283 167.405C129.282 166.21 111.412 151.274 116.465 142.247C121.027 135.727 136.396 131.168 146.219 132.8C155.897 134.307 160.94 148.246 161.017 148.477C162.326 152.204 156.226 162.688 155.575 163.433C155.575 163.433 162.471 162.953 166.926 156.162C172.126 160.543 175.402 156.988 177.319 148.229C179.978 135.096 173.962 134.294 173.962 134.294C173.962 134.294 173.626 137.6 172.223 138.497C170.827 139.4 173.378 132.632 170.84 128.452C170.84 128.452 180.321 129.308 180.519 140.712C180.539 141.73 180.139 143.596 179.666 145.328C182.617 143.495 182.405 136.798 182.405 136.798C181.046 120.298 170.729 112.318 170.729 112.318C166.842 93.5212 162.568 83.3155 124.458 66.0196C96.1002 53.1517 67.1148 43.4798 57.7115 22.9141L57.7081 22.9174Z" fill="#501214"/>
<path d="M73.804 52.3393C73.804 52.4299 72.8103 59.3691 82.1499 72.4485C93.2519 70.6424 107.526 71.1896 122.573 77.783C106.257 63.7267 91.2342 63.7602 73.804 52.3359V52.3393ZM145.348 98.2547C145.348 104.687 146.889 110.273 150.958 113.177C153.626 115.081 157.856 114.604 159.418 111.217C160.311 109.283 158.894 106.668 158.894 106.537C157.333 110.958 152.73 112.583 152.73 112.583C152.73 112.583 155.446 107.631 155.641 103.284C151.062 99.4197 145.348 98.2547 145.348 98.2547Z" fill="#8C734A"/>
</g>
<defs>
<clipPath id="clip0_107_20234">
<rect width="200" height="200" fill="white"/>
</clipPath>
</defs>
</svg>
