<svg width="200" height="200" viewBox="0 0 200 200" fill="none" xmlns="http://www.w3.org/2000/svg">
<path d="M99.9481 16.88C58.7764 16.88 27.0664 16.5338 27.0664 16.5338C30.5733 43.0933 48.173 52.9436 58.8926 62.5765V44.479C66.676 41.9717 74.8097 40.1912 83.1164 39.1786C83.1159 54.2707 83.1147 152.709 83.1147 152.709C83.1147 165.434 97.1733 178.139 100.073 182.305C103.459 177.408 116.925 165.28 116.925 152.709L116.924 39.1875C125.219 40.2009 133.343 41.9802 141.115 44.4845V62.582C155.083 50.8236 169.847 40.8545 172.942 16.5393C172.942 16.5393 141.12 16.8855 99.9481 16.8855" fill="black"/>
<path d="M99.9506 21.4216C60.955 21.4216 32.5547 21.69 32.5547 21.69C35.2348 34.9813 43.104 43.9312 54.5342 53.3415L54.5368 41.3418C65.3097 37.578 76.3974 35.313 87.4009 34.3489C87.3888 34.3569 87.3631 152.705 87.3631 152.705C87.3631 161.363 96.1566 170.887 99.9882 175.668C105.945 168.321 112.681 160.926 112.681 152.534L112.679 34.3826C124.255 35.4129 135.361 37.8091 145.476 41.3433L145.478 53.343C156.909 43.9327 164.778 34.9828 167.458 21.6915C167.458 21.6915 138.946 21.4231 99.9501 21.4231" fill="white"/>
<path d="M32.5547 21.6875C35.2348 34.979 43.1054 43.9287 54.5354 53.3389C45.5254 42.3575 47.1314 34.5241 47.1314 34.5241C38.5947 30.0084 32.5547 21.6875 32.5547 21.6875ZM47.1314 34.5241C47.1314 34.5241 48.1144 39.086 54.5382 41.3394C65.3111 37.5757 76.399 35.3093 87.4025 34.3452C92.982 30.5459 99.9857 27.6188 99.9893 27.6172C73.527 27.6207 47.1314 34.5241 47.1314 34.5241ZM99.9886 27.6172V175.669C105.945 168.322 112.681 160.927 112.681 152.535L112.68 34.3819C124.255 35.4121 135.361 37.8086 145.476 41.3428C151.9 39.0893 152.883 34.5274 152.883 34.5274C152.883 34.5274 126.476 27.6206 100.007 27.6206H99.989L99.9886 27.6172ZM152.883 34.5241C152.883 34.5241 154.489 42.3582 145.478 53.3389C156.908 43.9287 164.779 34.979 167.459 21.6875C167.459 21.6875 161.419 30.0084 152.883 34.5241Z" fill="#999999"/>
</svg>
