<svg width="200" height="200" viewBox="0 0 200 200" fill="none" xmlns="http://www.w3.org/2000/svg">
<g clip-path="url(#clip0_154_2469)">
<path d="M129.2 90.6952L133.151 74.6482H84.9205L79.2713 50.4219H44.2788L28.0993 71.9456H6.63541L16.3533 87.5493L0 109.335H58.0496L54.009 125.748L79.0764 133.533L92.6108 133.501C90.7389 138.819 95.3512 140.011 95.3512 140.011L126.578 149.575H145.582C150.161 149.531 155.395 149.083 160.153 147.14C164.911 145.198 169.282 141.406 170.639 135.388L176.461 111.731L200 90.6997L129.2 90.6952Z" fill="#C5C6C8"/>
<path d="M46.0288 53.7891L29.8423 75.3145H12.7611L20.4904 87.7314L6.80469 105.985H62.4046L58.0809 123.493L79.6098 130.177H108.065L105.718 139.726L127.086 146.23H145.583C154.219 146.165 165.023 144.358 167.298 134.641L173.374 109.952L191.19 94.0359H124.845L128.768 77.993H88.3649C86.2672 77.9806 84.1706 78.098 82.088 78.3436L76.4856 53.7907L46.0288 53.7891ZM95.4285 132.887L95.1714 133.942H96.2198L95.305 137.645H96.5737L97.4852 133.942H98.5336L98.7907 132.887H95.4285ZM99.7823 132.887L97.7891 137.645H99.0512L100.126 134.904H100.143L100.584 137.645H101.091L102.934 134.904H102.944L102.624 137.645H103.892L104.323 132.887H103.068L101.392 135.428L101.034 132.887H99.7823Z" fill="#4F2170"/>
<path d="M49.9119 61.2836L33.7288 82.7817H26.3802L29.699 88.1171L21.9062 98.514H37.5618L42.6667 91.0184H61.7203L63.176 98.514H72.1439L67.2192 118.499L80.818 122.723H109.962L112.961 110.526H97.3419L96.3036 114.733H84.6747L89.0184 97.1102L84.955 93.4776H101.539L100.571 97.4341H116.156L119.097 85.478H88.3666C84.3427 85.478 79.4012 85.632 76.3804 87.7385L70.3672 61.2812L49.9119 61.2836ZM49.0505 71.3099H57.8916L60.1352 82.7986L48.2658 82.8154L53.4275 75.2398L49.0505 71.3099ZM119.114 101.509L121.915 105.976L114.851 134.676L128.299 138.753H145.583C150.734 138.753 158.473 138.425 159.857 132.894L166.491 105.98L171.492 101.516H151.55L144.248 131.204H131.741L139.026 101.509L119.114 101.509Z" fill="white"/>
</g>
<defs>
<clipPath id="clip0_154_2469">
<rect width="200" height="200" fill="white"/>
</clipPath>
</defs>
</svg>
