<svg width="200" height="200" viewBox="0 0 200 200" fill="none" xmlns="http://www.w3.org/2000/svg">
<path d="M141.948 88.788C160.254 100.412 181.965 98.3364 181.965 98.3364C181.965 98.3364 159.762 169.894 100.003 191.699C40.2415 169.894 18.0371 98.3364 18.0371 98.3364C18.0371 98.3364 39.7422 100.395 58.0492 88.7717L56.9116 86.8997L58.9777 83.5715C58.9777 83.5715 59.1571 83.2605 59.4138 82.6859C49.0652 76.9899 48.4797 69.8072 49.1725 65.7855C50.5697 58.0655 56.7954 53.0366 65.1206 52.8022C65.2918 50.8019 65.3794 48.7847 65.3794 46.7735C65.3794 38.4687 63.9408 30.3445 61.2232 23.2786C60.1643 20.5407 61.0691 17.3918 63.4259 15.6272C73.1008 8.39079 98.8785 8.30995 99.9727 8.30995C101.064 8.30995 126.845 8.39078 136.516 15.6279C138.868 17.3823 139.777 20.5278 138.724 23.2725C136.005 30.3445 134.566 38.4687 134.566 46.7735C134.566 48.6678 134.669 50.6627 134.88 52.8015C143.27 53.0203 149.548 58.0512 150.94 65.7441C151.638 69.8038 151.049 76.9899 140.706 82.6852C140.97 83.2781 141.16 83.6007 141.163 83.6082L143.121 86.8997L141.948 88.788Z" fill="#A9AFB3"/>
<path d="M133.69 89.0594C133.37 88.7225 133.032 88.3937 132.666 88.0833L137.138 85.8378C137.138 85.8378 135.817 83.7078 134.981 80.076C140.242 77.8699 147.531 73.4815 146.316 66.3877C145.08 59.5826 138.71 56.1322 130.757 57.5796C130.229 53.9987 129.867 50.3269 129.867 46.5891C129.867 37.7185 131.41 29.0177 134.331 21.4261C134.645 20.6103 134.38 19.6852 133.676 19.1616C126.666 13.9173 106.788 12.7687 99.9154 12.7687C93.0417 12.7687 73.165 13.9173 66.1514 19.1616C65.4505 19.6852 65.1835 20.6103 65.5014 21.4261C68.4214 29.0177 69.9652 37.7185 69.9652 46.5891C69.9652 50.3269 69.6901 54.0001 69.1617 57.5809C61.2108 56.1322 54.9239 59.5826 53.6925 66.389C52.4726 73.4815 59.7634 77.8699 65.0225 80.076C64.1885 83.7078 62.866 85.8378 62.866 85.8378L67.34 88.0833C67.0799 88.3047 66.834 88.5391 66.5929 88.7748C55.6575 95.6356 43.9389 102.795 24.7598 102.795C38.0962 137.234 65.5958 174.09 99.9467 186.574C134.293 174.09 161.793 137.234 175.129 102.795C156.131 102.795 144.473 95.8312 133.69 89.0594Z" fill="black"/>
<path d="M108.377 81.4815C108.36 81.6622 108.324 81.8347 108.324 82.0195C108.324 85.8333 111.271 88.9258 114.911 88.9258C118.554 88.9258 121.506 85.8333 121.506 82.0195C121.506 79.9153 120.588 78.0535 119.171 76.7868C117.82 77.1957 116.16 77.9455 114.161 79.2686C111.766 80.8546 109.844 81.4095 108.377 81.4815Z" fill="white"/>
<path d="M99.8703 77.6589C98.0812 77.6589 96.5401 83.7284 96.0992 86.0676C96.0789 86.1539 96.015 86.2232 95.9301 86.2415C95.8459 86.2673 95.7569 86.2333 95.7026 86.1634C95.6455 86.0893 94.3115 84.3655 93.6568 82.3204L90.7701 81.1895C90.5079 81.7145 89.6446 83.0104 87.5132 83.0104C85.4803 83.0104 82.8443 81.849 79.6825 79.562C79.5983 79.5002 79.5643 79.3902 79.6051 79.2965C79.6445 79.2 79.7457 79.1382 79.8462 79.162L83.9052 79.8093C83.874 79.4113 83.838 78.6648 83.91 77.9924C83.5031 77.8131 82.2595 77.3193 80.8542 77.3193C79.4584 77.3193 78.2955 77.794 77.3942 78.7314C75.7403 80.4559 74.9993 83.6978 75.1929 88.3688C75.1942 88.4435 75.1623 88.5176 75.0985 88.559C75.0353 88.6031 74.9585 88.6133 74.8865 88.5841C74.767 88.5352 72.1554 87.4301 71.0422 83.6156C70.6862 85.963 70.365 91.771 75.4238 93.5669C75.5128 93.5968 75.5726 93.6803 75.5726 93.7747C75.5726 93.7747 75.5726 95.197 75.595 96.9297C78.6032 96.8787 81.8608 96.1452 85.282 94.7467C88.0077 93.6287 90.4414 92.9332 92.5164 92.6778C93.1745 91.5109 94.0005 90.5185 94.9738 89.7272C95.0424 89.6668 95.1429 89.66 95.2237 89.7062C95.3039 89.7531 95.348 89.8427 95.3331 89.9344C95.3297 89.9548 95.0064 92.0787 94.9602 92.9135L99.9572 94.3127L104.935 92.9189C102.793 79.649 100.844 77.6589 99.8703 77.6589Z" fill="white"/>
<path d="M94.9182 111.216C93.9436 111.216 92.8949 111.449 91.8896 111.894C91.819 111.924 91.7388 111.919 91.6723 111.875C91.6091 111.831 91.5731 111.757 91.5765 111.681C91.5812 111.546 91.8054 108.363 99.9587 108.363C107.251 108.363 107.43 107.554 107.703 106.332C107.703 106.326 107.705 106.321 107.706 106.317C107.441 106.334 107.018 106.357 106.485 106.357C104.668 106.357 102.079 106.114 99.9757 104.975C99.4588 105.35 97.3329 106.704 93.7106 106.704C89.8112 106.704 88.6552 107.868 88.645 107.879C88.6008 107.922 88.5356 107.943 88.4826 107.949C88.4195 107.949 88.3631 107.924 88.3183 107.879C88.2945 107.85 87.7314 107.236 87.5317 106.115C83.6935 106.605 79.8661 106.59 76.6289 106.044C77.7265 109.166 79.8369 111.894 82.9001 114.156C82.9103 113.297 83.0319 111.416 83.8395 110.313C83.8836 110.254 83.9489 110.223 84.0188 110.223C84.0344 110.223 84.0494 110.223 84.063 110.226C84.1506 110.244 84.2192 110.311 84.2362 110.395C84.2531 110.471 85.9329 117.847 90.29 121.766C91.766 123.093 93.4233 123.824 94.9509 123.824C97.8545 123.824 99.736 121.319 99.736 117.438C99.736 112.024 96.7175 111.216 94.9182 111.216Z" fill="white"/>
<path d="M106.607 111.612C104.94 111.396 103.554 111.582 102.523 112.162C102.347 112.95 101.969 115.171 102.566 117.742C102.915 116.615 103.749 114.685 105.456 114.092C108.675 112.975 108.711 112.377 108.703 112.311C108.696 112.241 108.56 111.866 106.607 111.612Z" fill="white"/>
<path d="M130.244 80.935C130.244 80.935 130.056 84.5444 129.225 86.148C128.396 87.7537 127.563 90.1609 128.301 91.1641C128.301 91.1641 133.665 90.0617 130.244 80.935Z" fill="white"/>
<path d="M76.3086 75.2325C76.3086 75.2325 80.0266 72.8219 86.8283 76.7553C93.6287 80.6839 95.934 78.2611 95.934 78.2611C95.934 78.2611 84.0306 68.1828 76.3086 75.2325Z" fill="white"/>
<path d="M111.723 87.9609L119.879 79.8388C119.636 79.2662 119.323 78.7324 118.947 78.2562L110.246 86.7438C110.678 87.2192 111.175 87.6295 111.723 87.9609Z" fill="#9BA1A6"/>
<path d="M120.497 81.9031L113.768 88.4644C114.191 88.5554 114.626 88.6016 115.072 88.6016C115.196 88.6016 115.313 88.5893 115.434 88.5825L120.404 83.6263C120.477 83.2181 120.52 82.7997 120.52 82.3684C120.52 82.2128 120.506 82.0573 120.497 81.9031Z" fill="#9BA1A6"/>
<path d="M123.789 74.9082C123.789 74.9082 120.069 72.4977 113.271 76.431C106.469 80.3597 104.162 77.9369 104.162 77.9369C104.162 77.9369 116.067 67.8586 123.789 74.9082Z" fill="white"/>
<path d="M82.8695 20.8178C78.6278 21.2804 74.3867 22.7814 74.3867 22.7814C74.3867 22.7814 79.0455 31.0734 77.8535 50.8203C79.8218 50.6267 82.7717 50.3781 82.8695 50.1717V20.8178Z" fill="white"/>
<path d="M94.4439 94.7937C92.2378 94.7937 89.3593 95.5171 85.8769 96.9434C80.9431 98.9627 76.1064 99.4525 71.7485 98.3813C69.1817 97.4481 67.6678 95.5463 67.6678 93.2838C67.6678 93.0508 67.6834 92.8192 67.7126 92.5903C66.958 93.4882 66.543 94.6028 66.543 95.7711C66.543 96.9726 66.996 98.145 67.8185 99.0707C68.8788 100.324 70.5463 101.429 72.7782 102.359C75.3097 103.415 78.6018 103.973 82.3029 103.973C91.02 103.973 98.9621 100.968 98.9621 97.6668C98.9574 97.5669 98.759 94.7937 94.4439 94.7937Z" fill="white"/>
<path d="M132.692 92.593C132.721 92.8219 132.736 93.0522 132.736 93.2838C132.736 95.5469 131.224 97.4488 128.69 98.3711C127.152 98.7515 125.579 98.9369 123.98 98.9369C120.937 98.9369 117.756 98.2665 114.525 96.9441C111.046 95.5177 108.164 94.7944 105.962 94.7944C101.645 94.7944 101.448 97.5656 101.441 97.6851C101.441 99.2636 103.317 100.875 106.589 102.089C109.819 103.288 114.014 103.973 118.1 103.973C121.798 103.973 125.089 103.415 127.623 102.359C129.858 101.428 131.529 100.323 132.582 99.0768C133.408 98.1463 133.86 96.9747 133.86 95.7718C133.86 94.6042 133.444 93.4916 132.692 92.593Z" fill="white"/>
<path d="M99.9603 72.5915C102.283 72.5826 113.607 72.8978 125.715 66.1932C137.592 59.471 141.758 64.2704 141.839 64.2751C141.702 64.267 138.116 55.5668 122.688 64.6833C115.82 68.6547 107.342 69.7245 99.9569 69.6905C92.5752 69.7401 84.0944 68.6724 77.2173 64.7621C61.7617 55.8229 58.1856 64.4334 58.0586 64.4286C58.1374 64.4327 62.2956 59.6782 74.1887 66.272C86.3073 72.872 99.1222 72.5942 99.9603 72.5915Z" fill="#A9AFB3"/>
<path d="M119.658 57.9362L123.393 54.4491C119.955 54.1617 111.312 53.5525 99.9869 53.5525H99.9835H99.9767C88.6548 53.5525 80.0178 54.1617 76.5728 54.4463L80.3086 57.9362L74.7464 59.3748C74.7328 59.4108 74.7193 59.4461 74.707 59.4834C75.501 59.8869 76.3249 60.3338 77.1943 60.8453C84.0708 64.8309 92.5522 65.9197 99.9339 65.8694C107.318 65.9041 115.797 64.8126 122.665 60.7658C123.54 60.2394 124.372 59.7775 125.172 59.3632L119.658 57.9362Z" fill="#B0002A"/>
<path d="M92.0028 142.487C86.8122 140.195 79.8842 136.405 73.7461 130.692C77.1578 138.042 82.7111 146.902 95.8391 155.52L97.0257 149.938C94.2606 147.48 92.7744 144.558 92.0028 142.487Z" fill="white"/>
<path d="M107.906 142.487C113.093 140.195 120.022 136.405 126.163 130.692C122.749 138.042 117.194 146.902 104.066 155.52L102.883 149.938C105.645 147.48 107.133 144.558 107.906 142.487Z" fill="white"/>
<path d="M103.705 129.748L99.9854 136.119L96.2626 129.748C96.2626 129.748 82.9635 125.389 74.8672 113.896L75.1905 119.994C75.1905 119.994 75.8181 130.041 95.9169 138.871C97.1123 138.635 98.5251 138.497 100.042 138.497C101.528 138.497 102.907 138.629 104.085 138.854C124.151 130.03 124.778 119.994 124.778 119.994L125.102 113.896C117.005 125.389 103.705 129.748 103.705 129.748Z" fill="white"/>
<path d="M65.3657 103.347C58.0628 107.807 50.1071 112.042 39.6484 113.98C41.1414 117.255 43.844 122.613 47.9777 128.823L61.054 130.883L58.0118 141.779C65.1328 149.705 74.4007 157.702 86.1933 163.844C86.1933 163.844 58.7386 131.903 65.3657 103.347Z" fill="#B0002A"/>
<path d="M151.987 128.823C156.119 122.613 158.823 117.255 160.312 113.98C149.856 112.042 141.9 107.807 134.599 103.347C141.222 131.903 113.768 163.844 113.768 163.844C125.561 157.702 134.831 149.705 141.95 141.779L138.907 130.883L151.987 128.823Z" fill="#B0002A"/>
</svg>
