<svg width="200" height="200" viewBox="0 0 200 200" fill="none" xmlns="http://www.w3.org/2000/svg">
<g clip-path="url(#clip0_154_2477)">
<path fill-rule="evenodd" clip-rule="evenodd" d="M99.025 85.9065L116.414 74.7406C121.564 71.1044 121.48 68.4892 121.48 68.4892L139.039 68.3794L127.529 76.7698L112.165 88.0405L119.46 114.52L118.944 114.517C116.621 114.5 113.568 114.545 110.691 114.585C108.566 114.614 106.543 114.647 104.98 114.659L103.329 114.651L96.5042 91.1825L86.0359 114.585L68.9529 114.794L69.628 114.118C70.3355 113.41 70.9058 112.609 71.3135 111.702L88.8965 72.6202C89.5776 71.1147 89.6528 69.8814 89.3465 68.8852L89.1923 68.3852L106.241 68.411L99.025 85.9065ZM4.5361 122.621L180.96 123.066L0 131.699L4.53187 122.621L4.5361 122.621ZM55.1146 114.111H7.16099C7.82236 113.454 8.35691 112.721 8.76203 111.888L27.854 72.5594C28.4967 71.2344 28.7113 69.9683 28.506 68.8321L76.9757 68.7317L72.4136 78.7768C69.4393 77.0748 63.8569 75.3673 58.4374 75.3673L45.1516 75.538L39.527 87.1141L54.6927 87.2854L50.602 94.6083H35.9464L30.3256 106.351L47.3652 106.184C53.8389 106.351 61.2325 104.103 61.6791 103.969L55.0967 114.119L55.1146 114.111ZM182.639 108.019C181.499 110.552 178.823 112.556 173.932 113.856C169.669 114.943 163.38 115.545 154.561 115.667C145.837 115.731 139.987 115.217 136.985 114.313C133.523 113.307 133.073 112.053 134.12 109.745L151.449 71.4513C151.948 70.3427 152.025 69.3355 151.749 68.4382C151.749 68.4382 169.143 68.1802 169.519 68.369C169.594 68.5968 153.706 103.205 153.706 103.205C152.784 105.238 153.366 106.723 154.754 107.647C156.027 108.489 157.887 108.785 159.415 108.812C162.842 108.812 165.972 107.784 167.274 104.912L182.737 68.6183L200 68.5628L182.639 108.019Z" fill="#611F34"/>
</g>
<defs>
<clipPath id="clip0_154_2477">
<rect width="200" height="200" fill="white"/>
</clipPath>
</defs>
</svg>
