<svg width="200" height="200" viewBox="0 0 200 200" fill="none" xmlns="http://www.w3.org/2000/svg">
<g clip-path="url(#clip0_154_2468)">
<path d="M29.5894 28.399V47.8028H36.3753V35.4451L45.9796 47.8028H54.3048V28.399H47.519V40.7567L38.2832 28.399H29.5894ZM63.5189 28.399C61.2533 28.399 59.4214 30.231 59.4214 32.4966V43.6619C59.4214 45.9275 61.2533 47.7594 63.5189 47.7594H80.3211C82.5867 47.7594 84.4187 45.9275 84.4187 43.6619V32.4966C84.4187 30.231 82.5867 28.399 80.3211 28.399H63.5189ZM89.4268 28.399V47.8028H96.8306V41.6673H101.091L106.001 47.8028H114.565L109.654 41.6673H110.463C112.729 41.6673 114.572 39.8353 114.572 37.5697V32.5616C114.572 30.296 112.729 28.464 110.463 28.464H89.4333L89.4268 28.399ZM118.153 28.399V32.9627H126.272V47.7052H133.676V32.9627H141.795V28.399H118.164H118.153ZM145.362 28.399V47.8028H152.766V40.8977H162.673V47.8028H170.077V28.399H162.673V35.9112H152.766V28.399H145.362ZM96.7981 32.5833H106.337C106.771 32.5833 107.123 32.9345 107.123 33.3692V36.4369C107.123 36.8705 106.771 37.2229 106.337 37.2229H96.7981V32.5833ZM67.5298 32.8456H76.1043C76.539 32.8456 76.8902 33.1968 76.8902 33.6304V42.3134C76.8902 42.747 76.539 43.0992 76.1043 43.0992H67.5298C67.0951 43.0992 66.7439 42.747 66.7439 42.3134V33.6304C66.7439 33.1968 67.0951 32.8456 67.5298 32.8456ZM3.89834 53.0082C1.63276 53.0082 -0.199219 54.851 -0.199219 57.1166V72.4012H7.20459V66.7209H17.1124V72.4012H24.5162V57.1166C24.5162 54.851 22.6843 53.0082 20.4187 53.0082H3.94171H3.89834ZM29.5894 53.0082V72.412H49.8604V67.6749H37.0691V53.0407H29.6653L29.5894 53.0082ZM56.9065 53.0082C54.6409 53.0082 52.8089 54.851 52.8089 57.1166V72.4012H60.2127V66.7209H70.1206V72.4012H77.5244V57.1166C77.5244 54.851 75.6924 53.0082 73.4268 53.0082H56.9498H56.9065ZM82.5975 53.0082V72.412H103.627C105.893 72.412 107.725 70.58 107.725 68.3144V66.5909C107.725 64.8456 106.63 63.3605 105.102 62.7643C106.641 62.1703 107.725 60.683 107.725 58.9377V57.1599C107.725 54.8944 105.893 53.0516 103.627 53.0516H82.5975V53.0082ZM116.852 53.0082C114.587 53.0082 112.755 54.851 112.755 57.1166V72.4012H120.158V66.7209H130.066V72.4012H137.47V57.1166C137.47 54.851 135.638 53.0082 133.373 53.0082H116.896H116.852ZM142.543 53.0082V72.412H149.752V60.7047L156.278 68.3903L162.803 60.7047V72.412H170.012V53.0082H162.608L156.278 60.7155L149.947 53.0082H142.543ZM179.183 53.0082C176.917 53.0082 175.085 54.851 175.085 57.1166V72.4012H182.489V66.7209H192.397V72.4012H199.801V57.1166C199.801 54.851 197.969 53.0082 195.703 53.0082H179.226H179.183ZM89.9688 56.8889H99.4647C99.894 56.8889 100.243 57.2369 100.243 57.6673V60.0413C100.243 60.4716 99.894 60.8196 99.4647 60.8196H89.9688V56.8955V56.8889ZM7.90919 57.4591H16.2452C16.6799 57.4591 17.0312 57.8104 17.0312 58.2451V62.4293H7.12328V58.2451C7.12328 57.8104 7.47559 57.4591 7.90919 57.4591ZM60.9173 57.4591H69.2534C69.688 57.4591 70.0393 57.8104 70.0393 58.2451V62.4293H60.1314V58.2451C60.1314 57.8104 60.4837 57.4591 60.9173 57.4591ZM120.863 57.4591H129.199C129.634 57.4591 129.985 57.8104 129.985 58.2451V62.4293H120.077V58.2451C120.077 57.8104 120.43 57.4591 120.863 57.4591ZM183.194 57.4591H191.53C191.964 57.4591 192.316 57.8104 192.316 58.2451V62.4293H182.408V58.2451C182.408 57.8104 182.759 57.4591 183.193 57.4591H183.194ZM89.9688 64.6136H99.4647C99.894 64.6136 100.243 64.9616 100.243 65.3919V67.5057C100.243 67.9361 99.894 68.2841 99.4647 68.2841H89.9688V64.6093V64.6136ZM99.7357 79.8982C64.6138 79.8982 36.2127 100.386 36.2127 125.752C36.2127 151.118 64.6138 171.605 99.7357 171.605C134.858 171.605 163.259 151.118 163.259 125.752C163.259 100.386 134.858 79.8982 99.7357 79.8982Z" fill="#592B8A"/>
<path d="M100.05 83.6835C67.0964 83.6835 40.2129 102.654 40.2129 125.852C40.2129 149.158 67.0964 168.02 100.05 168.02C133.004 168.02 159.888 149.049 159.888 125.852C159.888 102.545 133.004 83.6835 100.05 83.6835ZM102.435 88.0196C114.142 88.2418 122.164 93.0168 120.646 99.1849C120.476 99.8949 120.181 100.594 119.786 101.277C113.813 95.2716 104.176 91.4125 92.3603 91.1307C89.4552 91.0632 86.5609 91.2167 83.7099 91.5654C88.3061 89.5491 94.0514 88.2266 100.078 88.0315C100.889 88.0048 101.683 87.9992 102.463 88.014L102.435 88.0196ZM129.644 93.4288C144.928 100.291 155.118 112.291 155.118 125.841C155.118 146.329 132.137 163.022 103.302 164.323C105.958 161.765 109.904 154.068 99.8552 140.692C91.8552 130.068 95.866 122.372 99.3262 118.469C99.1874 118.946 99.0823 119.429 99.0215 119.922C98.2627 126.133 104.366 130.979 112.68 130.762C113.938 130.729 115.162 130.573 116.355 130.325L109.547 135.865C113.591 138.585 116.171 143.192 115.975 148.222C115.955 148.734 115.906 149.238 115.831 149.729C117.783 150.501 120.254 151.16 123.192 151.344C126.346 149.827 129.479 147.539 131.506 144.114C131.153 144.232 130.796 144.338 130.436 144.431C128.637 144.895 126.989 144.968 125.591 144.708C123.141 142.702 121.786 140.372 121.07 138.215C121.923 133.738 126.881 129.076 132.452 127.646C136.203 126.679 139.293 127.42 140.854 129.326C140.863 129.47 140.873 129.614 140.873 129.764C140.873 131.13 140.512 132.539 139.895 133.829C142.475 133.029 144.946 131.043 146.139 128.604C146.365 128.137 146.527 127.682 146.637 127.238C145.098 124.625 142.735 123.596 142.735 123.596L143.282 122.338L144.256 122.313C144.253 122.311 144.25 122.309 144.246 122.308L148.225 122.188C148.225 122.188 142.067 116.638 137.059 113.494L139.531 111.489C135.325 107.51 130.371 105.212 126.848 103.966C128.637 102.134 129.861 99.868 130.165 97.4398C130.354 95.9439 130.173 94.5455 129.698 93.2773L129.644 93.4288ZM85.5245 95.3041H85.5261C97.4503 95.3045 108.074 99.1632 115.553 105.32C113.775 105.175 112.041 105.168 110.35 105.268L110.353 105.254C101.215 99.9854 95.6106 103.107 95.6106 103.107C95.2464 103.955 95.1672 104.95 95.4534 106.045C96.0084 108.181 97.784 110.24 100.126 111.725C99.9315 111.774 99.7374 111.824 99.5369 111.858C97.6616 112.169 95.7537 111.767 94.106 110.862C87.3418 115.805 83.0491 123.654 82.9407 133.518C82.7391 144.684 87.8946 155.957 96.1656 164.629C77.7374 162.19 63.3201 148.694 62.2361 131.675C62.2215 131.447 62.2236 131.22 62.2139 130.991C60.0784 135.718 59.0269 140.91 59.3521 146.276C59.4908 148.574 59.8811 150.807 60.4794 152.953C50.9293 145.962 45.0865 136.476 45.0865 125.962C45.0865 109.051 63.2979 95.3925 85.6285 95.3925L85.5245 95.3041ZM99.5083 105.537L107.693 108.984C107.693 108.984 101.991 112.898 99.5083 105.537ZM119.888 109.678C125.145 110.222 130.153 112.562 133.221 116.291H125.514C125.11 115.23 124.524 114.188 123.747 113.169C122.71 111.824 121.416 110.654 119.942 109.667L119.888 109.678Z" fill="white"/>
</g>
<defs>
<clipPath id="clip0_154_2468">
<rect width="200" height="200" fill="white"/>
</clipPath>
</defs>
</svg>
