<svg width="200" height="200" viewBox="0 0 200 200" fill="none" xmlns="http://www.w3.org/2000/svg">
<g clip-path="url(#clip0_154_2465)">
<path d="M29.2404 160.893C29.2404 160.695 33.0745 156.897 37.7615 152.454C42.4478 148.01 46.2826 144.343 46.2826 144.303C46.2826 144.264 45.9705 144.303 45.5891 144.39C41.9747 145.213 0.1088 152.891 -0.268752 152.8C-0.713338 152.693 2.36949 148.846 18.8115 128.989L23.2442 123.636L16.4637 126.563C12.7352 128.173 9.60076 129.406 9.49828 129.304C9.26558 129.072 8.09517 130.559 21.5183 114.038C35.9354 96.2943 37.3585 94.5275 37.7022 93.9465C37.8555 93.6861 36.6227 94.0998 34.9622 94.8673C33.301 95.6347 31.854 96.1748 31.7461 96.067C31.5696 95.8905 36.4493 89.9036 49.8871 73.813C54.8831 67.8307 63.3957 59.2749 67.9086 55.7028C83.9199 43.0287 101.919 37.1851 122.176 38.0912C137.266 38.7662 147.866 41.5323 155.936 46.9013C161.155 50.374 164.979 55.4301 165.8 59.943C166.033 61.2243 166.811 62.2876 169.861 65.4914C178.863 74.9395 181.791 81.0751 180.623 87.9997C179.544 94.3949 173.339 102.408 165.452 107.58L162.482 109.53L180.975 112.052C191.145 113.439 199.542 114.632 199.633 114.704C199.723 114.776 199.707 114.925 199.596 115.035C199.196 115.436 75.8988 159.637 75.7062 159.448C75.5991 159.341 78.0347 156.099 81.1183 152.244C84.2011 148.388 86.676 145.186 86.6182 145.128C86.5296 145.04 32.9057 160.082 30.1349 160.971C29.6441 161.128 29.2435 161.095 29.2435 160.896L29.2404 160.893Z" fill="#C41425"/>
<path d="M41.5295 153.764C41.5311 153.601 44.9236 150.258 49.069 146.336C53.2143 142.415 56.4613 139.158 56.2841 139.098C56.0306 139.013 11.3261 147.237 8.53227 147.882C8.15086 147.97 7.84189 147.925 7.84574 147.782C7.84959 147.639 13.8242 140.318 21.1225 131.513C28.4208 122.707 34.3922 115.447 34.3922 115.376C34.3922 115.307 33.5454 115.615 32.5099 116.061C25.865 118.929 21.1864 120.792 20.8936 120.691C20.7072 120.625 24.0442 116.292 28.3098 111.06C37.9173 99.2758 47.4709 87.2396 47.4709 86.9183C47.4709 86.785 46.2227 87.3051 44.6963 88.0741C43.1707 88.8423 41.9225 89.3177 41.9225 89.1304C41.9225 88.6997 50.3873 78.2338 54.8972 73.0876C70.0108 55.8404 86.2409 45.8391 104.599 42.4589C111.921 41.1105 125.856 41.3285 135.454 42.942C150.484 45.4677 160.507 52.3014 162.446 61.3457C162.864 63.292 163.242 63.8106 166.975 67.543C171.805 72.3725 174.359 75.6472 176.037 79.1577C177.116 81.4184 177.267 82.1488 177.267 85.123C177.267 88.2359 177.148 88.7529 175.799 91.4643C172.62 97.8688 166.67 103.205 156.089 109.128L151.953 111.447L159.26 112.482C163.279 113.053 170.899 114.11 176.193 114.832C181.487 115.555 185.679 116.282 185.507 116.447C185.099 116.838 85.8186 152.519 85.6414 152.338C85.5659 152.262 87.8289 149.294 90.6713 145.742C93.513 142.19 95.7636 139.209 95.672 139.118C95.5803 139.027 83.4555 142.352 68.7279 146.508C54.0003 150.664 41.8554 154.065 41.7383 154.065C41.622 154.065 41.528 153.931 41.5295 153.768V153.764Z" fill="black" stroke="black" stroke-width="1.25216"/>
<path d="M116.606 47.3564C114.317 47.3472 112.244 47.4034 110.958 47.5375C107.837 47.8627 103.784 48.7942 99.5772 50.1526C87.296 54.1239 77.5721 60.3434 65.7601 71.7917C62.2712 75.1735 61.5107 76.0743 62.4739 75.679C62.7004 75.5865 63.3353 75.4555 63.8854 75.3885C64.7592 75.2814 64.8856 75.323 64.8856 75.7214C64.8856 75.9718 64.3239 76.8602 63.6366 77.6939C58.243 84.244 43.1124 103.536 43.2619 103.672C43.3104 103.716 47.0574 101.969 51.5888 99.7891C56.1194 97.6093 60.0645 95.8202 60.3557 95.8148C61.5415 95.7925 61.2387 96.2193 55.5886 102.538C50.1926 108.571 40.7747 119.355 40.6822 119.601C40.5828 119.871 40.9496 119.879 41.2439 119.609C41.8141 119.101 62.2905 108.505 62.9809 108.367C63.7229 108.219 63.7552 108.239 63.5903 108.775C63.4948 109.085 62.8476 110.264 62.1533 111.394C60.4489 114.164 58.7669 117.529 58.7669 118.176C58.7669 118.646 58.8548 118.684 59.6022 118.561C60.6123 118.399 64.0519 116.681 67.6687 114.531C70.5026 112.85 72.5653 111.817 73.0969 111.814C73.3504 111.811 73.3874 112.068 73.2649 112.987C73.1794 113.634 73.1694 114.164 73.2426 114.164C73.3158 114.164 73.9052 113.896 74.5532 113.568C75.2012 113.24 75.8222 113.027 75.9317 113.094C76.0388 113.162 76.2006 113.687 76.2853 114.262C76.3701 114.84 76.6552 115.579 76.9171 115.911C78.489 117.906 85.1616 114.986 90.6092 109.913C91.7495 108.853 92.6433 107.949 92.5971 107.902C92.5509 107.856 91.6571 107.967 90.6092 108.151C89.569 108.334 88.4902 108.427 88.2206 108.356C87.766 108.237 87.7506 108.178 88.0588 107.45C88.236 107.02 88.914 105.887 89.5613 104.93L90.7324 103.19L89.0219 102.182C85.6702 100.208 81.7791 96.3426 80.3844 93.6158C79.6602 92.1849 79.0129 89.2947 79.0129 87.4609C79.0129 81.306 83.6977 75.625 89.5998 74.6272C90.4396 74.4847 92.443 74.2936 94.0534 74.2011L96.9651 74.0324L95.0473 72.6301C93.1364 71.23 92.7666 70.8278 93.5448 70.9804C93.7683 71.0251 94.9626 71.1121 96.1946 71.1746C98.2827 71.2809 98.3752 71.267 97.6586 70.9519C96.9112 70.6244 93.383 70.1536 91.7187 70.1606L90.8942 70.1636L91.5415 70.7338C91.9036 71.0474 92.1887 71.3525 92.1887 71.4126C92.1887 71.4727 91.372 71.5906 90.3703 71.6762C85.4852 72.0922 83.1737 73.3158 77.9342 78.254C76.347 79.7511 74.9816 80.9763 74.9053 80.9763C74.4854 80.9763 75.2205 78.6331 76.3855 76.2692C77.1098 74.7806 77.7493 73.483 77.7878 73.3859C77.834 73.2888 77.5412 73.2095 77.1329 73.2095C76.4702 73.2095 76.4086 73.1502 76.5473 72.6801C76.7785 71.8996 80.2689 68.4531 82.303 66.993C87.8353 63.0218 92.5894 61.7489 99.5849 62.3637C102.86 62.6511 104.932 63.2568 112.314 66.0699C118.956 68.6026 121.128 69.2182 125.474 69.8007C130.236 70.4379 131.33 70.2053 138.087 67.1494C144.814 64.1074 146.047 63.7954 151.602 63.7121C156.302 63.642 156.349 63.6197 156.295 61.3736C156.241 59.163 155.516 57.5234 153.729 55.5948C151.055 52.7077 148.089 51.1682 142.086 49.5524C139.212 48.7788 138.48 48.6794 134.32 48.4868C131.8 48.3697 128.518 48.1 127.023 47.8881C124.781 47.5683 120.404 47.3719 116.606 47.3564ZM149.853 67.3644C144.629 67.4799 141.37 68.7436 134.181 72.9945C130.151 75.3723 124.48 78.177 122.099 78.9691C118.986 80.0031 111.035 80.9115 107.444 80.6434C104.994 80.4608 103.368 79.9345 101.11 78.5908C99.4154 77.5883 99.4154 77.586 96.6646 77.4881C93.383 77.371 90.4936 77.7178 89.0373 78.3997C88.4594 78.6724 87.373 79.4283 86.6333 80.0778C82.1027 84.0429 81.1241 87.6566 83.3586 92.188C85.2387 96.0036 90.17 99.0024 95.8564 99.7937C98.3752 100.144 100.633 99.8276 107.136 98.2103L112.545 96.8635L117.73 96.8696C125.197 96.8774 128.125 97.5492 132.085 100.17C134.142 101.527 135.714 102.091 138.087 102.31C139.675 102.457 141.578 101.959 141.277 101.475C140.954 100.943 129.897 97.0338 123.933 95.3379C117.777 93.588 115.457 93.5911 106.073 95.3556C100.486 96.4073 96.3718 96.7417 94.3616 96.3095C93.6835 96.1639 92.3505 95.6777 91.4105 95.2292C86.2481 92.7798 84.8072 88.5381 87.9663 85.1054C89.6845 83.2454 92.6433 82.4518 96.8881 82.7084C101.735 83.0019 107.236 84.6231 116.552 88.5111C125.004 92.0393 127.331 92.8476 137.147 95.6792C149.568 99.2629 152.504 100.656 153.983 103.678L154.6 104.948L156.056 104.106C161.781 100.782 166.334 96.6439 169.617 91.7665C173.909 85.4013 172.915 81.2375 165.279 73.5285C162.359 70.5782 159.777 68.7636 157.42 67.9947C156.187 67.5948 155.093 67.4645 152.234 67.3798C151.387 67.3544 150.601 67.3482 149.853 67.3644ZM107.475 68.665C107.113 68.6889 106.743 68.8083 106.273 69.0125C104.185 69.9109 102.775 72.1978 103.137 74.111C103.445 75.7668 105.448 76.8286 108.97 77.2069C111.042 77.4296 113.97 77.2894 116.783 76.8301C118.871 76.4911 123.81 74.977 125.081 74.2867L125.728 73.933L124.904 73.9307C124.457 73.9284 123.448 74.1988 122.669 74.5309C118.84 76.1683 117.083 76.3871 115.126 75.4756C113.724 74.8214 112.807 73.8028 112.021 72.0329C111.32 70.448 110.935 70.0003 109.733 69.387C108.677 68.8484 108.084 68.6242 107.475 68.665ZM119.742 72.7009C119.418 72.7495 119.148 73.0076 118.925 73.4699C118.447 74.4916 118.786 74.6542 120.019 73.9923C120.982 73.4784 121.005 72.966 120.081 72.7233C119.957 72.6925 119.849 72.6848 119.742 72.7009ZM95.9095 85.1224C95.6252 85.117 95.3555 85.1193 95.0936 85.1286C93.8376 85.1725 92.7897 85.3836 91.9421 85.7604L90.4705 86.4184L92.2504 86.722C93.2366 86.8892 94.8393 87.0417 95.8255 87.061C96.8033 87.0795 98.0438 87.2113 98.5755 87.3538C99.4693 87.5942 99.4847 87.6358 98.7758 87.9155C98.3212 88.0912 99.4924 88.2291 101.565 88.2468L105.133 88.2769L103.946 89.2531L102.759 90.2286L108.307 89.9874C111.358 89.8557 113.909 89.7023 113.978 89.6461C114.209 89.4573 107.953 87.5094 103.229 86.3005C100.301 85.5516 97.8743 85.1594 95.9095 85.1224ZM89.0835 88.2738V89.4311C89.0835 90.986 90.9944 92.8537 93.3676 93.6173C96.1253 94.5042 100.61 94.1343 107.614 92.4423C110.935 91.6386 113.654 90.8943 113.654 90.7872C113.654 90.6793 112.006 90.6978 109.987 90.8273C107.976 90.9575 104.894 91.1563 103.152 91.2696L99.9855 91.4776L101.565 90.0552L103.152 88.6352L101.565 88.8301C100.694 88.938 98.7296 89.1283 97.204 89.2531C94.6235 89.465 94.5003 89.4404 95.4249 88.891C96.3487 88.3393 96.1792 88.3 92.7512 88.2869L89.0835 88.2738ZM130.043 114.447C129.766 114.485 129.165 114.632 128.51 114.832C126.067 115.564 100.24 123.061 92.7358 125.211C89.0912 126.259 85.8859 127.114 85.6162 127.114C84.4142 127.114 84.9459 126.42 90.6246 120.572C92.2966 118.854 93.6219 117.405 93.5756 117.351C93.4986 117.274 75.145 123.585 42.2779 134.981C27.5788 140.082 27.0772 140.259 27.4964 140.274C27.7098 140.282 30.0406 139.874 32.675 139.357C57.0579 134.603 68.0716 132.554 68.2512 132.731C68.5779 133.062 68.1294 133.686 66.3788 135.343C65.492 136.183 62.7605 138.81 60.3064 141.168C57.8523 143.534 55.9368 145.467 56.0509 145.467C56.1641 145.467 60.0267 144.404 64.6328 143.094C91.8343 135.389 103.784 132.053 104.185 132.053C104.431 132.053 104.709 132.168 104.794 132.315C105.002 132.646 103.245 135.173 99.7929 139.519C98.3058 141.391 97.1501 142.979 97.2271 143.048C97.3735 143.202 98.1209 142.94 120.551 134.865C141.94 127.168 158.86 121.011 158.999 120.873C159.246 120.618 157.666 120.85 140.468 123.562C121.591 126.544 119.495 126.829 119.495 126.467C119.495 126.182 121.367 124.078 126.368 118.746C128.533 116.435 130.267 114.501 130.205 114.447C130.197 114.431 130.136 114.431 130.043 114.447Z" fill="white"/>
<path d="M135.259 79.9627C135.043 79.2816 134.586 79.1714 131.567 79.0713L128.121 78.9572L129.706 78.424C131.92 77.6805 137.83 77.3253 137.83 77.9363C137.83 78.8193 136.62 80.7402 136.064 80.7402C135.757 80.7402 135.395 80.3904 135.259 79.9627Z" fill="black" stroke="black" stroke-width="1.25216"/>
</g>
<defs>
<clipPath id="clip0_154_2465">
<rect width="200" height="200" fill="white"/>
</clipPath>
</defs>
</svg>
