<svg width="200" height="200" viewBox="0 0 200 200" fill="none" xmlns="http://www.w3.org/2000/svg">
<g clip-path="url(#clip0_154_2413)">
<path d="M178.865 159.397L193.169 120.965C194.843 119.203 196.212 117.387 197.236 115.526C200.461 109.963 200.327 105.344 199.501 102.247C200.33 97.057 198.513 93.0612 196.969 90.7308C196.839 86.3222 195.15 82.265 192.141 79.1613C192.047 78.9785 191.947 78.7917 191.84 78.6062C190.48 71.4688 185.83 66.4972 179.209 65.0408C176.771 62.0952 173.634 60.0966 170.072 59.2332C168.265 58.7943 166.537 58.6128 164.666 58.746C164.092 58.3842 163.544 58.0275 163.024 57.6788L161.004 53.8149C160.917 53.6516 152.442 37.748 137.593 30.8732C137.025 29.708 136.497 28.7388 136.087 28.0282C137.108 24.1565 138.684 14.8494 131.919 10.1743C129.907 8.78447 127.583 8.08037 125.006 8.08037C120.315 8.08037 115.984 10.4473 113.939 11.7627C107.132 10.8105 102.404 10.702 100.625 10.702C100.452 10.702 100.288 10.7086 100.13 10.7204V10.7112C100.049 10.7073 94.7113 10.5519 86.0613 11.7615C84.0183 10.4474 79.6894 8.08037 74.9987 8.08037C72.4227 8.08037 70.0963 8.78447 68.086 10.1743C62.4534 14.067 62.2653 21.7072 63.9112 27.6193C63.4671 28.4239 62.8636 29.5722 62.2222 30.9581C47.489 37.8747 39.0833 53.6529 38.9958 53.8175L36.9763 57.6788C36.4564 58.0275 35.9091 58.3842 35.3343 58.746C33.4638 58.6141 31.7291 58.7956 29.9278 59.2332C26.3682 60.0966 23.2319 62.0939 20.7945 65.0408C14.177 66.4972 9.52674 71.4676 8.16301 78.6023C8.0559 78.7878 7.95531 78.9746 7.86126 79.1613C4.85166 82.265 3.16137 86.3222 3.03336 90.7308C1.48676 93.0612 -0.328935 97.057 0.500534 102.248C-0.319791 105.323 -0.460867 109.904 2.67806 115.368C3.78576 117.407 5.27227 119.38 7.11801 121.272L21.2804 159.397H41.7036V171.414C57.7 161.868 77.9861 156.147 100.076 156.147C122.163 156.147 142.448 161.868 158.443 171.414L158.442 159.397H178.865Z" fill="#818A8F"/>
<path d="M155.418 166.176L155.417 156.367H176.763L188.011 126.099H168.124L168.125 113.172C170.8 114.772 173.508 115.961 175.738 116.626C175.202 117.561 174.783 118.176 174.771 118.191C174.716 118.27 174.699 118.37 174.728 118.462C174.757 118.556 174.826 118.63 174.918 118.665C176.37 119.22 177.948 119.503 179.608 119.503C181.219 119.503 182.704 119.243 183.94 118.914L185.426 123.612C190.141 120.292 192.971 117.006 194.618 114.005C197.59 108.886 197.189 104.829 196.398 102.411C197.339 97.851 195.78 94.1073 193.946 91.6972C194.079 86.7034 191.913 83.1321 189.626 80.9272C189.444 80.504 189.22 80.0925 188.962 79.6941C187.72 72.0408 182.73 68.5818 177.528 67.8098C175.418 64.8969 172.633 62.9688 169.363 62.1773C168.15 61.8833 166.936 61.7344 165.753 61.7344C165.131 61.7344 164.536 61.788 163.95 61.8625C160.856 59.9723 157.051 57.3664 155.234 55.0112L158.539 55.6316L158.326 55.2215C158.225 55.0282 149.849 39.3401 135.342 33.1851C134.183 30.6614 133.093 28.8888 132.812 28.4499C133.214 27.2181 136.352 16.917 130.202 12.6651C128.706 11.6319 126.959 11.1081 125.01 11.1081C120.066 11.1081 115.392 14.4025 114.676 14.9289C107.438 13.8473 102.447 13.7297 100.629 13.7297C100.228 13.7297 100.011 13.7363 100.011 13.7363C99.9976 13.7363 99.7808 13.7297 99.3784 13.7297C97.5614 13.7297 92.5689 13.8473 85.331 14.9289C84.6165 14.4025 79.944 11.1081 75.0025 11.1081C73.0535 11.1081 71.3071 11.6319 69.8114 12.6651C63.6642 16.9144 66.7901 26.7884 67.1989 27.9875C66.9129 28.4591 65.7333 30.455 64.5185 33.2477C50.1027 39.4446 41.7845 55.0282 41.6839 55.2215L41.4697 55.6316L44.7758 55.0112C42.9588 57.3664 39.1524 59.9723 36.0566 61.8625C35.4727 61.788 34.8771 61.7344 34.254 61.7344C33.0718 61.7344 31.8557 61.882 30.6461 62.1773C27.3765 62.9688 24.5942 64.8969 22.4846 67.8098C17.2818 68.5818 12.2933 72.0381 11.0497 79.6889C10.7911 80.0899 10.5651 80.5027 10.3835 80.9272C8.09629 83.1321 5.92791 86.7034 6.06507 91.6972C4.22979 94.1073 2.66882 97.851 3.61324 102.414C2.82687 104.816 2.42846 108.844 5.34271 113.922C6.98467 116.944 9.82185 120.261 14.5818 123.612L16.0683 118.914C17.3067 119.243 18.7906 119.503 20.4025 119.503C22.0627 119.503 23.6407 119.22 25.0932 118.665C25.1847 118.63 25.2539 118.556 25.2826 118.462C25.3114 118.37 25.2957 118.27 25.2395 118.191C25.2291 118.176 24.8124 117.566 24.2768 116.632C26.5719 115.947 29.3869 114.703 32.1535 113.017L32.1522 126.099H12.1444L23.3899 156.367H44.7366V166.176C44.7366 166.176 67.6352 153.209 100.08 153.209C132.522 153.209 155.418 166.176 155.418 166.176Z" fill="black"/>
<path d="M87.5001 31.1406C87.3371 31.4102 87.2389 31.7237 87.2389 32.055C87.2389 32.8032 87.7018 33.4449 88.3601 33.7343C88.2609 33.5828 88.1888 33.4093 88.1888 33.216C88.1888 32.683 88.6193 32.2546 89.1533 32.2546C89.6852 32.2546 90.1147 32.683 90.1147 33.216C90.1147 33.3874 90.0583 33.542 89.9799 33.6821C90.5066 33.4219 90.9037 32.9495 91.0071 32.3633C89.843 32.0905 88.6444 31.6475 87.5001 31.1406ZM112.494 31.1814C111.352 31.6892 110.157 32.1313 108.997 32.404C109.125 33.1481 109.717 33.7145 110.468 33.8733C110.326 33.7061 110.231 33.4992 110.231 33.2609C110.231 32.728 110.663 32.2933 111.194 32.2933C111.723 32.2933 112.158 32.728 112.158 33.2609C112.158 33.3372 112.13 33.402 112.113 33.471C112.505 33.1334 112.758 32.6454 112.758 32.0978C112.758 31.7634 112.657 31.4499 112.494 31.1814ZM93.7565 51.6331C93.7565 51.6331 93.6301 54.7775 96.02 57.1026C96.02 57.1026 95.4986 54.7597 95.9615 53.2581L97.6126 54.9802L98.1163 53.6228L99.2856 55.1516L100 53.4765L100.716 55.1516L101.887 53.6228L102.392 54.9802L104.041 53.2581C104.5 54.7597 103.978 57.1026 103.978 57.1026C106.371 54.7775 106.245 51.6331 106.245 51.6331C106.245 51.6331 102.896 52.5642 100 52.5642C97.111 52.5642 93.7565 51.6331 93.7565 51.6331ZM95.8486 67.2078C95.8486 67.2078 94.8245 68.8547 95.5654 70.5915C95.5654 70.5915 96.6512 71.206 100 71.206C103.352 71.206 104.437 70.5915 104.437 70.5915C105.179 68.8547 104.156 67.2078 104.156 67.2078C104.156 67.2078 104.092 68.4472 103.115 69.6489L102.3 68.6279L101.544 69.5162L100.801 68.6593L100 69.5549L99.2041 68.6593L98.459 69.5162L97.7004 68.6279L96.8874 69.6489C95.9103 68.4472 95.8486 67.2078 95.8486 67.2078ZM32.95 74.1163C31.7974 74.1163 30.5256 75.2344 30.4211 78.3674C30.2382 83.8776 33.4924 87.0534 34.8728 88.1465C34.575 86.2404 33.9647 81.239 35.0776 77.7989C35.3943 76.8145 35.2699 75.8301 34.7338 75.0923C34.2897 74.482 33.623 74.1163 32.95 74.1163ZM167.055 74.1163C166.383 74.1163 165.717 74.482 165.271 75.0923C164.737 75.8301 164.611 76.8155 164.926 77.7968C166.042 81.238 165.429 86.2404 165.131 88.1465C166.511 87.0503 169.765 83.8756 169.586 78.3653C169.481 75.2334 168.209 74.1163 167.055 74.1163ZM23.7854 80.2787C23.1813 80.2787 22.6348 80.543 22.2471 81.0196C21.5553 81.8691 21.386 83.351 21.7696 85.1912C22.9107 90.6712 26.9298 92.9284 28.5433 93.6275C27.7992 91.8562 25.982 87.0806 26.261 83.3959C26.332 82.4836 26.0708 81.6591 25.5284 81.0729C25.0624 80.5702 24.427 80.2787 23.7854 80.2787ZM176.209 80.2807C175.57 80.2807 174.933 80.5681 174.466 81.0729C173.926 81.6591 173.664 82.4836 173.736 83.3959C174.017 87.0806 172.197 91.8541 171.452 93.6275C173.067 92.9273 177.086 90.6722 178.228 85.1912C178.611 83.352 178.44 81.8702 177.748 81.0196C177.362 80.543 176.814 80.2807 176.209 80.2807ZM100.13 84.6488C93.6635 84.6499 87.196 85.0585 80.8549 85.8736L80.0263 85.9791V125.413L81.1005 125.274C93.6238 123.668 106.638 123.664 119.164 125.264L120.235 125.401V108.709L119.404 108.603C115.002 108.041 110.524 107.669 106.089 107.497L105.099 107.458V113.953L104.069 113.928C101.443 113.863 98.8258 113.863 96.1956 113.936L95.1631 113.965V94.8899L96.1433 94.8648C98.806 94.7948 101.464 94.7927 104.121 94.8648L105.099 94.8919V102.43L106.018 102.464C110.351 102.631 114.775 102.998 119.164 103.556L120.235 103.694V85.9676L119.402 85.8621C113.063 85.0512 106.598 84.6457 100.131 84.6478L100.13 84.6488ZM124.745 86.6385V126.089L125.535 126.224C129.877 126.965 134.239 127.913 138.499 129.036L139.696 129.355V119.595L140.973 119.958C143.51 120.671 146.072 121.469 148.588 122.32L149.272 122.552V132.312L149.909 132.535C154.568 134.168 159.222 136.058 163.759 138.164L163.763 107.633L166.697 99.9278L165.904 99.5474C153.145 93.4676 139.675 89.1894 125.86 86.8193L124.752 86.6281L124.745 86.6385ZM75.516 86.649L74.4021 86.8402C69.9838 87.6031 65.5666 88.5634 61.2727 89.7004L60.5642 89.8874V119.137L59.8233 119.34C57.3811 120.007 54.8543 120.772 52.3128 121.612L50.994 122.05V92.803L49.7223 93.2471C44.5234 95.0727 39.3569 97.2056 34.3618 99.5871L33.5498 99.9727L36.5072 107.168L36.503 138.203C48.6783 132.531 61.5339 128.509 74.7271 126.239L75.5171 126.1L75.516 86.649ZM19.0818 89.739C18.4966 89.739 17.9919 89.9972 17.6617 90.4674C17.0984 91.2668 17.1005 92.5856 17.6721 94.1782C19.2626 98.6195 22.8668 100.061 24.3904 100.483C23.5074 98.9925 21.4498 95.2138 21.2617 92.0652C21.1718 90.5385 20.0955 89.739 19.0818 89.739ZM180.921 89.739C179.91 89.739 178.835 90.5374 178.743 92.0652C178.555 95.2128 176.498 98.9936 175.615 100.483C177.138 100.061 180.737 98.6205 182.33 94.1782C182.9 92.5856 182.907 91.2679 182.342 90.4674C182.011 89.9972 181.506 89.739 180.921 89.739ZM16.2081 98.0416C15.6364 98.0416 15.1317 98.3081 14.8245 98.772C14.303 99.5558 14.3668 100.814 15 102.318C16.7274 106.421 20.1822 107.596 21.6682 107.916C20.7392 106.531 18.6137 103.08 18.2782 100.121C18.1152 98.6947 17.0911 98.0416 16.2081 98.0416ZM183.805 98.0416C182.924 98.0416 181.899 98.6947 181.736 100.121C181.401 103.077 179.277 106.527 178.35 107.916C179.835 107.591 183.291 106.409 185.014 102.318C185.649 100.814 185.711 99.5558 185.192 98.772C184.885 98.3081 184.379 98.0416 183.805 98.0416ZM139.705 100.109L140.983 100.47C143.545 101.192 146.106 101.989 148.598 102.834L149.282 103.064V111.984L147.962 111.551C145.5 110.741 142.968 109.975 140.442 109.28L139.705 109.074V100.109ZM14.7127 107.279C14.1588 107.279 13.6833 107.539 13.4043 107.99C12.9424 108.737 13.0647 109.897 13.7471 111.264C15.5497 114.869 18.7391 115.749 20.1519 115.962C19.1978 114.715 17.0785 111.716 16.6031 109.045C16.3836 107.825 15.4964 107.279 14.7127 107.279ZM185.299 107.279C184.515 107.279 183.628 107.825 183.411 109.045C182.934 111.716 180.816 114.712 179.859 115.962C181.275 115.745 184.464 114.861 186.266 111.264C186.949 109.897 187.071 108.737 186.609 107.99C186.33 107.539 185.851 107.279 185.299 107.279Z" fill="white"/>
<path d="M75.9662 15.1167C75.0299 15.0885 74.1103 15.2557 73.2618 15.7155C68.7401 18.1681 69.621 26.0328 74.2462 28.8846C74.2462 28.8846 71.2293 23.5185 76.03 20.649C76.03 20.649 75.4218 20.2592 73.685 19.8934C73.685 19.8934 79.2496 17.7898 82.0774 21.9469C82.0774 21.9469 74.7237 25.8061 86.4163 29.1657C86.4163 29.1657 85.5019 27.2283 85.5019 25.8353C85.5019 25.8353 98.7598 35.4848 99.9992 26.4456C101.241 35.4848 114.501 25.8353 114.501 25.8353C114.501 27.2283 113.586 29.1657 113.586 29.1657C125.278 25.8061 117.924 21.9469 117.924 21.9469C120.754 17.7898 126.316 19.8934 126.316 19.8934C124.581 20.2592 123.972 20.649 123.972 20.649C128.774 23.5185 125.757 28.8846 125.757 28.8846C130.383 26.0328 131.264 18.1692 126.741 15.7155C122.215 13.265 115.617 19.0846 115.617 19.0846C115.617 19.0846 111.633 17.3969 99.9992 17.3969C88.3673 17.3969 84.3858 19.0846 84.3858 19.0846C84.3858 19.0846 80.0261 15.2432 75.9662 15.1167ZM70.3985 30.7437C67.973 35.5946 66.9771 41.549 67.9594 47.7469C69.7704 59.1458 77.6665 67.7357 86.8343 69.3491C85.0964 66.861 82.09 61.2149 81.6772 51.4556C81.2655 41.7235 86.2417 38.9699 89.2284 38.1893C89.5628 38.2865 89.9139 38.3774 90.2943 38.4568C90.2943 38.4568 83.2541 42.0778 88.849 55.1789C88.849 55.1789 88.9608 48.7877 95.1274 50.3646C99.4715 51.4734 99.2217 47.3237 99.2217 47.3237C99.2217 47.3237 98.9594 45.4907 96.8318 45.4907C94.701 45.4907 95.1065 47.4355 95.1065 47.4355C95.1065 47.4355 91.4939 47.2651 91.4939 44.7352C91.4939 42.2011 94.0584 40.5782 99.9992 40.5782C105.943 40.5782 108.504 42.2011 108.504 44.7352C108.504 47.2651 104.894 47.4355 104.894 47.4355C104.894 47.4355 105.303 45.4907 103.169 45.4907C101.039 45.4907 100.777 47.3237 100.777 47.3237C100.777 47.3237 100.531 51.4734 104.875 50.3646C111.044 48.7877 111.151 55.1789 111.151 55.1789C116.747 42.0767 109.708 38.4568 109.708 38.4568C116.239 37.091 115.614 32.9121 115.614 32.9121C115.196 34.1671 112.537 36.8099 107.792 33.9895C103.04 31.1648 99.9992 31.5546 99.9992 31.5546C99.9992 31.5546 96.9582 31.1648 92.2087 33.9895C87.4633 36.8099 84.8049 34.1671 84.3858 32.9121C84.3858 32.9121 84.1225 34.7533 85.8488 36.3919C83.67 36.788 81.0188 37.8675 78.4356 40.4632C78.4356 40.4632 76.6539 37.0022 77.3383 34.1075C77.3383 34.1075 73.2858 37.0429 73.382 41.9273C73.382 41.9273 69.9355 38.0075 70.3985 30.7437ZM130.266 32.2767C130.561 42.4843 127.52 46.0028 127.52 46.0028C126.829 39.018 122.714 34.7324 122.714 34.7324C122.811 38.7076 120.869 41.5312 120.869 41.5312C119.043 39.6972 117.131 38.7254 115.35 38.2551C117.107 41.1164 118.551 45.4458 118.297 51.4566C117.883 61.2149 114.878 66.8631 113.14 69.3502C122.309 67.7388 130.204 59.1458 132.014 47.7479C132.898 42.1854 132.174 36.8256 130.266 32.2767ZM62.2935 39.6774C55.5992 44.7456 52.0075 51.7639 52.0075 51.7639C53.6722 50.9624 55.6608 50.4399 55.6608 50.4399C50.2791 59.9494 42.4437 64.3676 42.4437 64.3676C44.2045 66.9958 44.1543 71.3367 44.0028 73.4602C43.1114 71.6628 39.2491 64.9727 31.7585 66.7879C28.6235 67.5476 26.567 69.7891 25.2231 72.3859C22.1915 72.2908 15.7136 73.2334 15.4879 83.0052C15.4879 83.0052 9.70378 85.7243 10.9787 93.3622C10.9787 93.3622 6.5646 96.9184 8.62325 102.779C8.62325 102.779 5.97835 106.437 10.0967 112.611C10.0967 112.611 8.42888 106.436 12.0582 104.767C12.0582 104.767 9.01721 97.4419 13.9204 95.1419C13.9204 95.1419 12.2504 86.5624 18.4264 86.1423C18.4264 86.1423 17.4211 79.9256 21.2699 77.5639C24.5041 75.5763 27.1522 77.4584 27.1522 77.4584C27.1522 77.4584 28.0352 70.8686 33.1317 70.553C38.2292 70.2384 40.9754 76.2044 39.2104 79.865C38.5688 81.1984 38.4956 82.906 38.667 84.5382C40.2042 85.0033 42.22 86.0357 43.915 88.3389C43.915 88.3389 44.0122 83.6291 42.0539 79.9705C42.0539 79.9705 43.962 80.6968 45.8399 82.4911C48.2079 84.9761 49.046 87.8425 49.046 87.8425C51.1046 87.0483 53.8133 86.8508 56.9305 81.2298C60.0404 75.6097 64.3333 75.0904 64.3333 75.0904C60.9945 79.0321 59.9777 85.6 59.9777 85.6C75.1198 81.096 92.8242 80.4711 92.8242 80.4711C88.1541 79.1586 87.2502 76.6109 87.2397 74.85L87.1948 74.8396C83.878 74.2774 80.9979 73.4006 80.9979 73.4006L81.627 75.2158C61.7929 70.3356 63.9195 48.0625 63.9195 48.0625L61.9152 49.6916C60.5399 45.9359 62.2924 39.6784 62.2924 39.6784L62.2935 39.6774ZM137.707 39.6774C137.707 39.6774 139.456 45.9359 138.081 49.6906L136.079 48.0625C136.079 48.0625 138.207 70.3356 118.373 75.2158L119.001 73.4006C119.001 73.4006 116.12 74.2774 112.806 74.8396L112.763 74.85C112.75 76.6109 111.845 79.1586 107.174 80.4711C107.174 80.4711 124.881 81.096 140.021 85.6C140.021 85.6 139.003 79.0321 135.665 75.0904C135.665 75.0904 139.958 75.6087 143.068 81.2298C146.184 86.8508 148.894 87.0483 150.952 87.8425C150.952 87.8425 151.793 84.9761 154.161 82.4911C156.037 80.6968 157.947 79.9705 157.947 79.9705C155.986 83.6291 156.085 88.3389 156.085 88.3389C157.779 86.0357 159.796 85.0033 161.332 84.5382C161.504 82.906 161.433 81.1984 160.79 79.865C159.026 76.2044 161.769 70.2384 166.866 70.553C171.962 70.8686 172.85 77.4584 172.85 77.4584C172.85 77.4584 175.495 75.5763 178.731 77.5639C182.577 79.9256 181.574 86.1423 181.574 86.1423C187.751 86.5624 186.08 95.1419 186.08 95.1419C190.984 97.4419 187.941 104.766 187.941 104.766C191.572 106.436 189.903 112.61 189.903 112.61C194.022 106.437 191.377 102.779 191.377 102.779C193.434 96.9173 189.02 93.3612 189.02 93.3612C190.297 85.7243 184.513 83.0052 184.513 83.0052C184.288 73.2334 177.808 72.2908 174.777 72.3859C173.431 69.7891 171.377 67.5476 168.242 66.7879C160.751 64.9716 156.887 71.6628 155.998 73.4602C155.845 71.3367 155.794 66.9948 157.555 64.3666C157.555 64.3666 149.719 59.9483 144.34 50.4388C144.34 50.4388 146.327 50.9624 147.991 51.7639C147.991 51.7639 144.401 44.7456 137.708 39.6774H137.707ZM100.132 87.2249C94.3572 87.227 88.5826 87.5593 82.8977 88.2208L82.602 88.2543V122.499L82.9761 122.456C94.305 121.174 105.979 121.17 117.29 122.448L117.663 122.491V110.985L117.367 110.95C114.279 110.593 111.135 110.329 108.027 110.164L107.674 110.146V116.643L105.992 116.573C102.047 116.419 98.068 116.422 94.2747 116.579L92.587 116.643V92.4175L94.1482 92.358C98.0827 92.2044 102.152 92.2023 106.119 92.3538L107.674 92.4175V99.9635L107.994 99.9792C111.045 100.134 114.171 100.39 117.289 100.739L117.663 100.78V88.2459L117.367 88.2114C111.703 87.5458 105.935 87.2176 100.156 87.2187L100.132 87.2249ZM127.319 89.7026V123.922L127.595 123.973C130.631 124.527 133.698 125.186 136.708 125.929L137.126 126.033V116.254L139.165 116.793C143.076 117.826 146.976 119.023 150.762 120.348L151.852 120.731V130.492L152.073 130.573C154.804 131.556 157.632 132.678 160.719 134.008L161.188 134.207L161.19 107.155L163.443 101.243L163.16 101.112C151.823 95.8765 139.897 92.0633 127.718 89.78L127.319 89.7026ZM72.9462 89.7214L72.548 89.7946C69.5176 90.3652 66.439 91.0434 63.397 91.8156L63.143 91.8783V121.12L61.935 121.445C58.1187 122.448 54.2982 123.618 50.579 124.924L48.4179 125.684V96.4565L47.9644 96.6258C44.3529 97.9655 40.7163 99.4786 37.1549 101.119L36.8613 101.254L39.0819 106.657L39.0777 134.235L39.5469 134.036C50.2435 129.434 61.3885 126.052 72.6703 123.988L72.9462 123.937V89.7214ZM137.126 96.7668L139.166 97.3061C143.034 98.327 146.935 99.5246 150.763 100.863L151.853 101.243V115.618L149.691 114.861C145.96 113.557 142.139 112.386 138.331 111.381L137.127 111.06V96.7668H137.126Z" fill="#4F2D7F"/>
<path d="M99.9355 36.832C94.047 36.832 92.3332 38.5113 92.3332 38.5113L93.978 38.8196C88.8251 41.4499 86.6912 46.9884 87.29 50.625C87.6327 51.996 88.1406 53.5123 88.8512 55.177C88.8512 55.177 88.9599 48.7889 95.1275 50.3637C99.4715 51.4746 99.2239 47.3228 99.2239 47.3228C99.2239 47.3228 98.9595 45.492 96.8319 45.492C94.7022 45.492 95.1087 47.4357 95.1087 47.4357C95.1087 47.4357 91.494 47.2643 91.494 44.7333C91.494 42.1992 94.0605 40.5773 100.001 40.5773C105.944 40.5773 108.506 42.1992 108.506 44.7333C108.506 47.2643 104.895 47.4357 104.895 47.4357C104.895 47.4357 105.304 45.492 103.171 45.492C101.041 45.492 100.777 47.3228 100.777 47.3228C100.777 47.3228 100.531 51.4746 104.877 50.3637C111.044 48.7889 111.154 55.177 111.154 55.177C111.506 54.3504 111.807 53.5667 112.066 52.8111C113.144 49.2686 112.18 42.0299 105.891 38.8196L107.537 38.5113C107.537 38.5113 105.822 36.832 99.9355 36.832ZM90.7447 57.0424C90.7447 57.0424 91.8514 62.8797 91.8514 73.4562C91.8514 73.4562 91.4418 76.2547 100.001 76.2547C108.565 76.2547 108.151 73.4562 108.151 73.4562C108.151 62.8797 109.257 57.0424 109.257 57.0424C109.257 57.0424 106.082 60.7197 105.781 72.7822C105.781 72.7822 103.648 73.4436 100.001 73.4436C96.3585 73.4436 94.2225 72.7822 94.2225 72.7822C93.9216 60.7187 90.7447 57.0424 90.7447 57.0424ZM100.077 128.407C82.2405 128.407 65.0053 131.475 49.4265 137.255V158.932C64.115 152.345 81.4745 148.516 100.077 148.516C118.678 148.516 136.032 152.345 150.72 158.932V137.255C135.141 131.475 117.91 128.407 100.077 128.407ZM18.8926 130.794L26.6507 151.676H44.7051V139.258C39.0893 141.683 32.2592 145.073 32.2592 145.073V130.794H18.8926ZM167.889 130.794V145.073C167.889 145.072 161.056 141.684 155.443 139.259V151.677H173.495L181.253 130.795L167.889 130.794Z" fill="#818A8F"/>
<path d="M99.2534 132.164C97.8478 132.174 96.4413 132.21 95.0347 132.268C94.0973 132.308 93.3303 132.614 92.7555 133.176C92.1766 133.744 91.884 134.426 91.884 135.2V145.293L92.2832 145.267C93.2101 145.208 94.137 145.16 95.066 145.122L95.4266 145.108V140.264C97.9596 140.167 100.528 140.144 103.075 140.199V145.046L103.442 145.055C104.37 145.079 105.298 145.108 106.226 145.153L106.617 145.171V135.084C106.617 134.4 106.277 133.742 105.606 133.131C104.942 132.529 104.218 132.215 103.461 132.202C102.062 132.167 100.659 132.153 99.2534 132.164ZM111.607 132.656V145.519L111.95 145.547C112.877 145.632 113.8 145.729 114.722 145.83L115.141 145.879V141.11C117.267 142.941 119.395 144.825 121.464 146.716L121.654 146.812C123.031 147.044 124.404 147.299 125.779 147.579L127.081 147.847L126.111 146.939C124.236 145.186 122.33 143.45 120.427 141.765C121.138 141.877 121.847 141.996 122.556 142.12C124.664 142.499 125.752 141.698 125.754 139.859V137.424C125.754 136.669 125.455 135.957 124.86 135.313C124.274 134.676 123.54 134.273 122.686 134.123C119.188 133.505 115.598 133.024 112.018 132.694L111.607 132.656ZM87.4229 132.804L87.0091 132.847C83.2795 133.236 79.5352 133.791 75.8777 134.496L75.5736 134.556V147.428L76.0209 147.338C79.6753 146.633 83.3975 146.084 87.0874 145.702L87.4239 145.664V142.497L87.0091 142.539C84.3809 142.811 81.7255 143.172 79.1068 143.609V141.935C81.7151 141.496 84.3987 141.133 87.0874 140.852L87.4239 140.817V137.651L87.0091 137.696C84.3799 137.968 81.7235 138.326 79.1068 138.762V137.09C81.7506 136.648 84.4342 136.283 87.0874 136.008L87.4239 135.974V132.804H87.4229ZM99.2523 135.329C100.528 135.318 101.803 135.327 103.074 135.356V137.037C100.529 136.983 97.968 137.005 95.4255 137.101V135.419C96.7004 135.37 97.9764 135.339 99.2523 135.329ZM68.5659 136.185C68.3589 136.204 68.1447 136.24 67.9211 136.299C64.2803 137.244 60.6301 138.368 57.0729 139.635L56.8242 139.725V152.627L57.3258 152.449C60.8548 151.193 64.482 150.076 68.1102 149.133C69.5701 148.753 70.5043 147.982 70.8847 146.845C71.078 146.307 71.1512 145.331 71.1188 143.864C71.1188 143.582 71.0927 143.35 71.0352 143.157C70.9338 142.804 70.7321 142.538 70.4479 142.367C70.8356 142.001 71.1188 141.423 71.1188 140.519V138.399C71.1188 137.582 70.8063 136.958 70.1846 136.542C69.7331 136.247 69.1866 136.128 68.5659 136.185ZM115.139 136.191C117.531 136.471 119.919 136.818 122.247 137.223V138.893C119.895 138.486 117.506 138.141 115.139 137.866V136.191ZM132.964 136.429C132.34 136.374 131.791 136.505 131.33 136.823C130.714 137.248 130.389 137.869 130.389 138.622V141.054C130.389 141.327 130.43 141.592 130.499 141.821C130.651 142.459 130.996 143.03 131.522 143.515C132.037 143.995 132.658 144.329 133.418 144.532C135.756 145.162 138.086 145.856 140.343 146.6V148.243C137.297 147.245 134.186 146.353 131.091 145.592L130.611 145.466V148.655L130.896 148.724C134.131 149.518 137.39 150.461 140.584 151.52C141.02 151.663 141.417 151.736 141.774 151.736C142.196 151.736 142.57 151.636 142.881 151.441C143.461 151.091 143.755 150.496 143.755 149.673V147.238C143.755 146.481 143.472 145.739 142.913 145.028C142.36 144.324 141.657 143.829 140.821 143.548C138.544 142.794 136.21 142.091 133.876 141.46V139.805C136.687 140.569 139.53 141.448 142.331 142.421L142.832 142.599V139.388L142.581 139.3C139.609 138.268 136.586 137.335 133.596 136.535C133.373 136.474 133.157 136.437 132.949 136.419L132.964 136.429ZM67.6389 139.564V141.22C65.1591 141.873 62.6856 142.6 60.2738 143.389V141.746C62.695 140.948 65.1675 140.216 67.6389 139.564ZM67.6389 144.408V146.067C65.1644 146.715 62.6909 147.444 60.2738 148.235V146.594C62.6856 145.797 65.1602 145.065 67.6389 144.408Z" fill="black"/>
</g>
<defs>
<clipPath id="clip0_154_2413">
<rect width="200" height="200" fill="white"/>
</clipPath>
</defs>
</svg>
