<svg width="200" height="200" viewBox="0 0 200 200" fill="none" xmlns="http://www.w3.org/2000/svg">
<g clip-path="url(#clip0_154_2467)">
<path d="M198.182 88.7412C196.86 81.6332 193.897 74.9316 189.53 69.1692C188.237 67.3716 184.768 63.4656 186.431 69.8244C190.37 84.3312 187.355 88.9512 187.355 88.9512C187.355 88.9512 189.228 77.9052 181.861 65.4312C174.494 52.9572 164.179 49.3368 164.179 49.3368L163.524 51.3528C157.459 48.3792 146.993 42.2472 123.599 43.2552C96.0972 44.8428 75.0888 60.0048 75.0888 60.0048C75.0888 60.0048 85.4124 61.3068 85.3368 61.374C49.7459 76.1076 12.5675 109.254 12.5675 109.254C33.6431 105.138 57.8267 101.526 57.8267 101.526C44.6219 107.767 29.9303 117.847 24.6215 121.442C19.3127 125.038 13.1387 129.842 12.5675 130.321C11.9963 130.8 4.62109 137.251 4.62109 137.251C20.2871 131.909 23.7563 130.901 40.5731 127.07C51.5758 124.645 62.7148 122.886 73.9296 121.804C53.7191 131.884 36.9695 147.146 36.9695 147.146C51.2843 143.194 65.8533 140.227 80.574 138.268C99.4908 135.882 110.604 135.664 110.604 135.664C110.461 135.806 108.588 137.344 108.084 137.755C107.843 137.977 107.578 138.172 107.294 138.335C104.754 139.908 101.937 140.986 98.9952 141.51C97.4925 141.806 95.9714 142 94.4424 142.09L87.8736 142.526C96.8952 147.726 102.742 148.952 102.742 148.952C102.17 149.314 99.5664 150.322 99.5664 150.322C98.4828 150.758 89.898 153.791 89.898 153.791C107.874 157.252 120.432 155.303 120.432 155.303L119.928 157.176L122.675 157.033C132.133 156.605 136.896 152.346 136.896 152.346C138.329 153.659 140.22 154.359 142.163 154.295H155.813C156.711 154.287 157.596 154.082 158.406 153.695C159.216 153.307 159.931 152.746 160.5 152.052C160.5 152.052 165.994 145.332 166.859 144.181C167.724 143.03 168.446 141.661 168.01 138.914C167.577 137.587 167.655 136.147 168.228 134.874C168.228 134.874 171.26 126.474 173.352 120.796C175.158 113.933 174.007 112.127 174.007 112.127C179.417 109.313 181.802 106.574 181.802 106.574C190.816 105.247 200.198 99.7872 198.182 88.7412ZM160.97 138.847L157.434 140.527L148.698 134.966L157.871 138.326L163.642 137.537L160.97 138.847ZM176.712 107.154C174.233 108.726 171.407 109.669 168.48 109.901H167.64C161.618 109.676 155.649 108.677 149.882 106.927C147.715 96.318 139.92 95.4528 139.92 95.4528C141.773 96.9604 143.253 98.8748 144.246 101.047L130.68 98.2332C130.68 98.2332 136.232 101.047 140.281 103.273C135.947 111.144 144.397 114.319 148.438 113.236C148.431 113.291 148.404 113.342 148.362 113.378C147.376 115.386 146.003 117.179 144.322 118.654C144.322 118.654 150.311 116.486 154.141 111.791C157.144 111.592 160.155 111.544 163.163 111.648C164.179 111.724 165.187 111.866 166.052 112.009C167.354 112.303 168.362 112.656 169.085 112.849C169.365 112.918 169.617 113.07 169.807 113.286C170.647 114.512 169.589 119.208 168.967 120.502C168.463 121.661 164.927 131.044 163.927 134.656L161.113 134.219L148.513 132.203C147.764 132.093 146.999 132.24 146.343 132.62C145.687 132.999 145.179 133.59 144.901 134.294L142.885 139.78C142.674 140.345 142.622 140.958 142.737 141.551C142.851 142.143 143.126 142.693 143.532 143.14L147.791 145.886C148.447 146.35 149.23 146.603 150.034 146.609L156.384 146.752L159.274 146.827C158.19 148.054 157.106 149.347 156.308 150.439H142.154C136.669 150.439 133.133 140.258 133.133 140.258C133.023 142.167 133.144 144.082 133.494 145.962C133.555 146.2 133.602 146.441 133.637 146.684L133.922 147.911C133.998 148.129 134.074 148.339 134.141 148.558C134.216 148.776 134.284 148.919 134.359 149.137C131.663 151.23 128.437 152.53 125.044 152.892L125.884 149.784L122.33 150.826C122.255 150.826 117.055 152.346 106.303 151.666C107.494 151.061 108.64 150.371 109.73 149.599L115.367 145.626C115.367 145.626 107.563 145.702 102.439 144.475C105.11 143.635 112.519 139.276 115.879 135.596C118.63 132.729 121.705 130.191 125.044 128.036C123.528 128.172 122.028 128.453 120.566 128.876C119.779 129.106 119.007 129.386 118.256 129.716L117.752 129.935C116.809 130.368 115.913 130.901 115.081 131.522C94.5465 132.089 74.1049 134.506 54.0047 138.746C54.8447 138.167 55.6847 137.587 56.6003 136.94C65.6745 130.655 75.3784 125.332 85.5552 121.056L96.5256 116.579L92.4096 116.797L84.69 117.158C60.3299 118.242 37.2551 123.442 24.0419 126.978L28.1579 124.088C39.4223 116.36 56.1719 105.894 72.6276 99.7284L88.806 93.6636L71.6952 95.7552C55.6679 97.704 37.3307 100.795 27.1751 102.618L31.5011 99.258C45.5795 88.506 71.3592 70.3872 94.3164 62.6592L102.834 59.7696L87.4536 57.8208C113.158 44.6076 145.145 44.1036 164.129 57.0984L165.574 58.3248L166.22 56.1576L166.439 55.368C174.167 59.568 183.046 71.034 182.97 86.5572C183.02 96.4608 181.072 103.97 176.737 107.146L176.712 107.154ZM149.084 110.287C145.405 112.169 139.987 108.7 144.464 103.147L145.12 103.29C145.764 105.227 146.151 107.241 146.27 109.279C147.194 109.607 148.133 109.887 149.084 110.119V110.287ZM195.15 91.446C195.007 98.376 189.665 101.123 184.465 102.425C185.097 100.959 185.581 99.434 185.91 97.872C186.271 96.2541 186.535 94.616 186.7 92.9664C193.991 92.244 190.06 76.4268 190.06 76.4268L191.219 78.5268C191.362 78.7452 191.429 79.0308 191.58 79.2492L192.084 80.2572C194.176 84.6588 195.041 88.2708 195.116 91.1772L195.15 91.446Z" fill="#003058"/>
<path d="M87.6445 116.822L92.4829 116.604L96.5233 116.461L87.6445 116.822Z" fill="#0C233F"/>
<path d="M145.186 103.326L144.539 103.184C140.062 108.736 145.48 112.13 149.159 110.324V110.181C148.319 109.962 147.353 109.677 146.345 109.391C146.178 107.334 145.79 105.3 145.186 103.326Z" fill="#BA1C21"/>
<path d="M117.828 81.8803C118.257 73.6482 125.388 68.667 130.168 66.2142C131.184 65.853 132.192 65.5674 133.133 65.2734C124.464 67.8774 114.216 72.6402 113.133 80.2171V80.3683C112.814 81.9662 112.864 83.6157 113.277 85.1918C113.69 86.7678 114.457 88.2293 115.518 89.4655C117.753 92.2039 121.146 94.0099 123.918 94.0099C125.649 94.0099 127.74 92.5651 129.403 90.7591C120.357 90.5407 117.61 85.2739 117.828 81.8803Z" fill="white"/>
<path d="M190.164 76.4612C190.382 76.8224 190.525 77.1163 190.668 77.402C190.484 77.097 190.316 76.783 190.164 76.4612C190.088 76.394 194.061 92.2784 186.804 93.0008C186.585 94.8068 186.3 96.3608 186.006 97.9064C190.088 96.6044 196.8 92.1356 190.164 76.4612Z" fill="white"/>
<path d="M177.46 83.9722C175.797 69.9693 165.045 65.7693 165.045 65.7693C165.045 65.7693 171.109 67.2897 173.705 68.2893C166.985 62.0145 160.063 57.3693 146.413 55.0089L154.502 54.7149C130.89 43.9629 101.507 55.2945 101.507 55.2945L114.653 57.8985C98.9807 63.4096 83.6877 69.9449 68.8728 77.4621L81.4728 76.1601C81.4728 76.1601 61.254 82.0402 31.5096 98.9746C30.5688 99.697 29.7036 100.344 28.914 100.999V101.049C40.6068 96.7906 62.9172 90.583 88.8312 93.3298L76.7772 94.8418L88.9068 93.3298L72.7704 99.4282C56.3904 105.636 39.5652 116.102 28.3008 123.83C42.277 118.021 56.7505 113.489 71.544 110.289L62.094 115.993C62.094 115.993 75.45 114.313 96.6684 116.287H96.6012L87.7224 116.648L96.6684 116.287L85.698 120.764C75.5223 125.036 65.8208 130.36 56.7516 136.649C67.8648 132.02 83.892 126.107 98.4744 123.36C98.4744 123.36 93.2832 127.694 90.7548 129.861C101.507 127.98 116.887 128.484 120.718 128.635C122.177 128.214 123.674 127.933 125.186 127.795C121.87 129.979 118.797 132.514 116.022 135.355C112.662 139.11 105.262 143.436 102.582 144.234C114.283 144.015 118.903 142.067 118.903 142.067C118.399 145.099 115.652 147.947 115.652 147.947C120.899 147.438 125.948 145.681 130.378 142.823L129.731 147.661C131.114 147.229 132.393 146.513 133.486 145.561V145.712C133.136 143.833 133.014 141.917 133.124 140.009C133.124 140.009 137.602 147.3 140.777 147.804C143.087 148.165 151.025 148.232 155.216 148.232C155.735 147.743 156.174 147.176 156.518 146.552L150.16 146.401C149.356 146.41 148.571 146.156 147.925 145.679L143.675 143.049C143.266 142.605 142.988 142.055 142.872 141.462C142.756 140.869 142.808 140.255 143.02 139.689L145.044 134.196C145.313 133.484 145.819 132.888 146.478 132.507C147.136 132.126 147.905 131.983 148.656 132.104L161.214 134.129C161.794 132.029 163.818 124.049 165.767 120.05C167.716 116.052 166.128 111.818 166.128 111.818C165.183 111.582 164.213 111.46 163.238 111.457C159.702 111.314 154.217 111.6 154.217 111.6C151.543 114.643 148.175 116.998 144.397 118.463C146.079 116.988 147.452 115.195 148.438 113.187C138.257 115.497 135.224 109.29 135.224 109.29C136.588 109.504 137.977 109.504 139.34 109.29C134.72 108.282 131.974 103.947 131.974 103.947L139.055 104.451C134.645 103.368 130.747 98.0254 130.747 98.0254L144.322 100.848C143.315 98.6932 141.826 96.7991 139.97 95.3122C139.97 95.3122 147.774 96.1522 149.933 106.787C155.983 108.604 162.249 109.602 168.564 109.752H167.724C169.018 108.855 170.205 107.812 171.261 106.644H166.061C166.061 106.644 170.538 105.342 172.991 104.552C175.948 100.512 178.611 93.8674 177.46 83.9722ZM143.095 62.6781C140.138 65.1309 129.739 71.1957 126.992 76.8993C128.716 76.2556 130.56 75.9972 132.394 76.1423C134.229 76.2874 136.009 76.8326 137.61 77.7393C134.428 77.7017 131.291 78.4981 128.513 80.0494C129.099 80.2286 129.706 80.3275 130.319 80.3433C133.2 80.4861 136.199 82.0738 136.09 85.8958C135.947 90.877 129.596 98.0254 123.893 98.0254C120.985 97.9317 118.17 96.9788 115.804 95.287C113.773 98.9135 112.405 102.873 111.763 106.98L117.534 102.284C116.697 106.728 116.722 111.291 117.61 115.724C117.61 115.724 121.44 111.751 122.591 110.382C119.995 118.395 119.92 120.638 119.231 126.191C112.88 116.732 113.527 110.163 113.527 110.163L108.546 113.994C107.913 107.759 108.988 101.47 111.654 95.7994L106.958 96.3034C107.372 94.8839 108.025 93.5457 108.89 92.347C109.456 91.5097 110.082 90.7151 110.764 89.9698C109.77 88.4241 109.098 86.6936 108.789 84.8821C108.481 83.0706 108.541 81.2155 108.966 79.4277C109.974 72.8589 115.392 67.2225 125.716 63.6861C131.596 61.6701 139.357 60.7965 142.247 61.0149C143.33 61.1577 143.742 62.1741 143.095 62.6781ZM154.939 105.249C154.939 105.249 153.259 100.125 148.219 93.1198C155.007 98.3866 156.67 102.797 156.67 102.797C159.041 104.206 161.528 105.412 164.104 106.4C160.971 107.366 154.939 105.249 154.939 105.249Z" fill="white"/>
<path d="M123.388 74.8052C125.068 71.9912 128.58 68.6648 134.073 64.91C132.771 65.2712 131.469 65.708 130.1 66.1364C125.337 68.5976 118.256 73.5788 117.752 81.8024C117.534 85.2716 120.272 90.4712 129.302 90.6896C130.747 89.102 131.822 87.2204 131.822 85.7756C131.822 85.2716 131.898 84.5492 129.949 84.482C127.784 84.4372 125.695 83.6749 124.01 82.3148C123.749 83.5234 123.628 84.7579 123.649 85.994C119.449 81.0884 123.363 74.8052 123.363 74.8052H123.388ZM164.103 106.423C161.528 105.434 159.041 104.229 156.669 102.819C156.669 102.819 155.09 98.4093 148.219 93.1424C153.343 100.072 154.939 105.272 154.939 105.272C154.939 105.272 160.97 107.364 164.103 106.423ZM130.68 98.1993C130.68 98.1993 134.502 103.542 138.979 104.617L131.906 104.113C131.906 104.113 134.644 108.523 139.264 109.455C137.907 109.713 136.514 109.713 135.157 109.455C135.157 109.455 138.189 115.596 148.362 113.353C148.371 113.298 148.398 113.248 148.437 113.21C144.397 114.294 136.022 111.194 140.281 103.248C136.232 101.047 130.68 98.1993 130.68 98.1993ZM88.8056 93.428C62.7656 90.6896 40.43 96.9644 28.7372 101.223C28.5188 101.442 28.2332 101.584 28.0148 101.803H27.9392C27.7208 102.021 27.4352 102.164 27.2168 102.382C37.3976 100.576 55.6676 97.4769 71.7368 95.528L88.8056 93.428ZM117.752 129.892C117.895 129.817 118.256 129.674 118.256 129.674C118.416 129.585 118.585 129.511 118.76 129.456C118.76 129.456 120.44 128.876 120.566 128.809C120.566 128.809 102.926 127.969 90.6116 130.035C93.1316 127.944 98.3312 123.534 98.3312 123.534C83.7488 126.28 67.7972 132.202 56.6 136.822C55.6676 137.469 54.794 138.049 54.0044 138.628C74.1032 134.381 94.5456 131.963 115.081 131.404C115.919 130.814 116.814 130.307 117.752 129.892ZM96.5252 116.452C75.374 114.487 62.018 116.167 62.018 116.167L71.4764 110.388C56.6813 113.545 42.2106 118.067 28.25 123.895C27.7376 124.256 27.3092 124.55 26.8724 124.836C26.8628 124.836 26.8533 124.838 26.8446 124.841C26.8358 124.845 26.828 124.851 26.8216 124.858C26.8153 124.865 26.8105 124.874 26.8077 124.883C26.8048 124.892 26.804 124.902 26.8052 124.911C26.8052 124.911 26.7296 124.911 26.7296 124.978C26.7296 125.046 26.6624 125.054 26.5868 125.054C26.4095 125.198 26.2147 125.32 26.0072 125.415C25.8694 125.486 25.7467 125.583 25.646 125.701C25.5788 125.776 25.5032 125.776 25.5032 125.844C25.3965 125.9 25.2999 125.974 25.2176 126.062C24.8564 126.28 24.5624 126.566 24.2012 126.784C37.4144 123.248 60.4472 118.048 84.8492 116.965L96.5252 116.452ZM134.14 148.507C134.073 148.288 133.998 148.078 133.922 147.86C133.922 147.784 133.855 147.717 133.855 147.642C133.779 147.423 133.712 147.138 133.636 146.919C133.636 146.844 133.561 146.701 133.561 146.634C133.494 146.415 133.494 146.197 133.418 145.911V145.76C132.328 146.716 131.048 147.432 129.663 147.86L130.318 143.022C125.887 145.881 120.835 147.638 115.585 148.146C115.585 148.146 118.256 145.256 118.836 142.224C118.836 142.224 114.216 144.172 102.523 144.391C107.647 145.693 115.442 145.55 115.442 145.55L109.814 149.515C108.709 150.296 107.55 150.998 106.345 151.615C117.105 152.262 122.305 150.775 122.372 150.775L125.908 149.691L125.119 152.791C128.518 152.449 131.749 151.147 134.434 149.036C134.294 148.897 134.192 148.723 134.14 148.532V148.507ZM166.489 55.166L166.271 55.964L165.624 58.1228L164.179 56.8964C145.186 43.8344 113.132 44.4056 87.5036 57.6188L102.884 59.5676L94.358 62.4572C71.4008 70.1852 45.554 88.304 31.5512 99.0645C61.2956 82.0964 81.5144 76.25 81.5144 76.25L68.9144 77.5436C83.7312 70.0305 99.0239 63.4954 114.694 57.98L101.548 55.3844C101.548 55.3844 130.965 44.0444 154.502 54.8468L146.413 55.1324C160.063 57.518 166.993 62.138 173.705 68.4212C171.109 67.4132 165.044 65.9012 165.044 65.9012C165.044 65.9012 175.796 70.1012 177.459 84.0956C178.619 93.9824 175.947 100.627 172.915 104.818C170.529 105.608 165.985 106.91 165.985 106.91H171.176C170.125 108.08 168.937 109.121 167.64 110.01H168.48C171.302 109.648 174.545 108.859 176.712 107.271C181.046 104.096 182.995 96.5865 182.995 86.4812C183.087 70.9076 174.209 59.4248 166.489 55.166ZM195.15 91.1936C195.15 88.304 194.31 84.692 192.117 80.2736C191.986 80.0001 191.84 79.7337 191.681 79.4756C191.681 79.4084 191.613 79.4084 191.613 79.3328C191.462 79.1144 191.395 78.8288 191.252 78.6104C191.177 78.5432 191.177 78.4676 191.109 78.4004C190.972 78.1684 190.852 77.927 190.748 77.678C190.673 77.6024 190.673 77.5268 190.597 77.4596C190.454 77.1656 190.236 76.88 190.093 76.5188C196.737 92.1848 190.026 96.6789 185.893 97.9641C185.555 99.5214 185.086 101.047 184.49 102.525C189.69 101.232 195.032 98.4849 195.175 91.5548V91.1936H195.15ZM169.521 113.034C169.446 113.034 169.37 112.958 169.303 112.958H169.227C169.16 112.958 169.085 112.891 169.009 112.891H168.942C167.969 112.488 166.951 112.206 165.909 112.051C165.909 112.051 167.497 116.377 165.548 120.283C163.599 124.189 161.575 132.194 160.995 134.361L163.818 134.79C164.901 131.178 168.362 121.795 168.858 120.644C169.437 119.342 170.538 114.646 169.656 113.42C169.661 113.355 169.651 113.29 169.628 113.229C169.605 113.168 169.568 113.113 169.521 113.067V113.034ZM148.656 134.874L157.392 140.434L160.928 138.754L163.524 137.528L157.753 138.368L148.656 134.874ZM155.149 148.381C150.949 148.381 143.019 148.305 140.709 147.944C137.534 147.44 133.057 140.149 133.057 140.149C133.057 140.149 136.526 150.33 142.087 150.33H156.308C157.098 149.246 158.181 147.944 159.265 146.718L156.375 146.642C156.093 147.321 155.675 147.935 155.149 148.448V148.381Z" fill="#C2C5C7"/>
<path d="M142.23 61.0915C139.34 60.8731 131.612 61.7383 125.699 63.7627C115.375 67.2991 109.957 72.9271 108.949 79.4959C108.166 83.1103 108.81 86.8872 110.747 90.038C110.075 90.7904 109.455 91.5874 108.89 92.4236C108.03 93.6337 107.372 94.9756 106.941 96.3968L111.637 95.8844C108.939 101.545 107.863 107.843 108.529 114.079L113.493 110.29C113.493 110.29 112.847 116.859 119.197 126.318C119.614 120.923 120.743 115.607 122.557 110.509C121.331 111.802 117.576 115.851 117.576 115.851C116.697 111.445 116.671 106.911 117.5 102.495L111.729 107.182C112.399 103.083 113.766 99.1281 115.77 95.4896C118.13 97.1945 120.948 98.1514 123.859 98.2364C129.563 98.2364 135.913 91.088 136.056 86.1068C136.199 82.2763 133.166 80.7643 130.285 80.5459C129.677 80.4909 129.073 80.3927 128.479 80.2519C131.256 78.6955 134.393 77.8987 137.576 77.9419C135.975 77.0352 134.195 76.49 132.361 76.3449C130.526 76.1998 128.682 76.4582 126.959 77.1019C129.705 71.3983 140.105 65.3419 143.061 62.8807C143.742 62.1751 143.33 61.1587 142.23 61.0915ZM123.389 74.8087C123.389 74.8087 119.483 81.0163 123.817 85.9976C123.802 84.7616 123.923 83.5277 124.178 82.3183C125.843 83.7017 127.935 84.4673 130.1 84.4855C131.973 84.6283 131.973 85.2752 131.973 85.7792C131.906 88.7444 127.211 93.9356 123.96 93.9356C121.221 93.9356 117.828 92.138 115.56 89.3912C114.266 87.8036 112.2 84.4855 113.183 80.2939V80.1511C114.359 72.2803 125.337 67.4503 134.141 64.9303C128.513 68.7439 125.043 71.9947 123.389 74.8087Z" fill="#003058"/>
<path d="M197.316 80.0484C195.481 75.531 193.027 71.2905 190.025 67.4484C188.001 64.9872 186.841 64.416 185.615 65.0628C185.256 65.2744 184.964 65.5829 184.772 65.9528C184.581 66.3227 184.497 66.7392 184.531 67.1544C182.179 62.3593 178.948 58.0483 175.006 54.4452C171.583 51.3445 167.619 48.8987 163.313 47.2296L162.733 49.1028C157.895 46.65 146.202 40.8036 125.983 41.6016C112.422 42.1796 99.1261 45.5452 86.9233 51.4884C81.9421 53.7312 70.6777 60.8712 70.6777 60.8712L79.8505 62.0304C70.6255 66.3612 61.7015 71.3059 53.1384 76.8312C46.494 80.8884 36.6492 87.8688 32.7012 90.9012C26.712 95.2356 18.774 101.821 18.774 101.821L7.14841 111.624L12.852 110.473C12.852 110.473 22.1676 108.734 26.1324 108.012C30.0972 107.29 49.098 104.114 49.098 104.114C44.2092 106.576 34.5828 112.708 30.6096 115.328C26.6364 117.949 17.3964 124.283 10.9704 129.558C7.03583 132.664 3.36638 136.092 0 139.806C3.9732 138.722 10.6848 136.446 15.0192 135.043C19.3536 133.64 24.402 132.078 37.254 129.054C50.106 126.03 66.4189 123.854 66.4189 123.854C60.5389 127.172 54.8688 131.003 52.6344 132.515C47.8632 135.766 42.9576 139.806 42.9576 139.806L30.9708 149.886C30.9708 149.886 44.8308 146.35 50.9712 144.846C57.1117 143.342 65.6293 141.814 70.6777 140.948C75.7261 140.083 81.2953 139.436 88.5109 138.563C95.7265 137.689 105.983 137.126 105.983 137.126C101.506 139.865 95.5921 140.226 95.5921 140.226L83.1013 141.024C83.1013 141.024 88.0069 144.124 89.6701 144.922C92.4981 146.468 95.4412 147.793 98.4733 148.886L84.6133 153.876L88.6537 154.716C93.2758 155.689 97.956 156.362 102.665 156.732C107.948 157.23 113.266 157.23 118.549 156.732L118.113 158.471C118.113 158.471 120.355 158.395 123.816 158.252C128.533 158.081 133.109 156.598 137.029 153.968C138.613 155.016 140.473 155.568 142.372 155.556H155.224C156.332 155.664 157.45 155.525 158.498 155.151C159.547 154.776 160.5 154.174 161.289 153.389C161.746 152.951 162.157 152.466 162.515 151.944L166.917 146.602C167.772 145.581 168.545 144.494 169.227 143.351C170.453 141.041 169.806 138.588 169.588 137.471C169.433 136.845 169.483 136.185 169.731 135.589C169.731 135.589 172.335 128.374 174.426 122.594C175.663 119.426 176.204 116.028 176.014 112.632C178.459 111.294 180.718 109.642 182.734 107.718C192.889 106.282 198.769 99.9984 199.769 94.8072C200.634 90.036 198.904 84.1224 197.316 80.0484ZM181.86 106.618C181.86 106.618 179.483 109.289 174.065 112.17C174.065 112.17 175.149 113.976 173.418 120.839C171.327 126.542 168.294 134.917 168.294 134.917C167.717 136.189 167.639 137.631 168.076 138.958C168.289 139.866 168.295 140.811 168.094 141.723C167.894 142.634 167.491 143.489 166.917 144.224C166.077 145.459 160.566 152.095 160.566 152.095C160.003 152.799 159.288 153.366 158.475 153.754C157.662 154.142 156.772 154.342 155.871 154.338H142.229C140.283 154.402 138.39 153.703 136.954 152.389C136.954 152.389 132.191 156.648 122.733 157.076L119.994 157.219L120.498 155.346C120.498 155.346 107.898 157.295 89.9557 153.834C89.9557 153.834 98.4733 150.802 99.6325 150.365C99.6325 150.365 102.152 149.357 102.808 148.996C102.808 148.996 96.9277 147.769 87.9397 142.57L94.5085 142.133C96.0383 142.085 97.5601 141.891 99.0529 141.553C101.998 141.029 104.817 139.952 107.36 138.378C107.36 138.378 107.646 138.16 108.15 137.798C108.654 137.437 110.536 135.85 110.67 135.707C110.67 135.707 99.6241 135.925 80.6317 138.311C65.9052 140.235 51.3338 143.202 37.0272 147.19C37.0272 147.19 53.7768 131.952 73.9873 121.847C62.7787 122.922 51.6453 124.672 40.6476 127.088C23.898 130.919 20.3616 131.927 4.6956 137.269C4.6956 137.269 12.054 130.776 12.6336 130.339C13.2132 129.902 19.4208 125.072 24.6876 121.46C29.9544 117.848 44.688 107.768 57.9013 101.519C57.9013 101.519 33.7848 105.131 12.6336 109.247C12.6336 109.247 49.812 76.176 85.4113 61.3668C85.4785 61.3668 75.1549 59.9976 75.1549 59.9976C75.1549 59.9976 96.2389 44.8776 123.673 43.248C146.992 42.1644 157.534 48.372 163.599 51.3288L164.245 49.3128C164.245 49.3128 174.569 52.9248 181.936 65.4072C189.303 77.8896 187.421 88.9272 187.421 88.9272C187.421 88.9272 190.453 84.3072 186.48 69.8004C184.8 63.4416 188.286 67.3476 189.588 69.1452C193.989 74.8885 196.958 81.5978 198.249 88.7172C200.197 99.7884 190.89 105.248 181.86 106.576V106.618Z" fill="#BA1C21"/>
</g>
<defs>
<clipPath id="clip0_154_2467">
<rect width="200" height="200" fill="white"/>
</clipPath>
</defs>
</svg>
