<svg width="200" height="200" viewBox="0 0 200 200" fill="none" xmlns="http://www.w3.org/2000/svg">
<g clip-path="url(#clip0_154_2466)">
<path d="M152.447 30.9805L49.5061 31.0138L57.5083 44.6117L9.97982 44.5462L22.286 67.4713L22.2567 126.914C18.0864 128.638 14.1491 130.533 10.5281 132.568L-0.429688 139.064L29.6782 168.45L35.7524 155.879C36.308 155.63 36.9253 155.359 37.4161 155.172C46.4063 151.28 66.6822 145.453 100.156 145.349C125.586 145.432 140.062 147.555 155.142 152.279V155.765C155.142 156.649 155.831 157.607 156.687 157.888L167.225 161.426L170.985 168.086L199.57 139.595L188.03 132.246C184.938 130.51 181.607 128.855 178.15 127.351L178.16 66.7512L187.716 44.4817C187.716 44.4817 156.823 44.389 145.472 44.3661L152.447 30.9805Z" fill="#B0B7BC"/>
<path d="M147.864 33.7578L54.3692 33.789L62.3745 47.3953L14.633 47.3277L25.0707 66.7792L25.0436 128.785C20.3385 130.646 15.9468 132.711 11.9259 134.975L4.10547 139.606L28.8525 163.758L33.6703 153.789C34.4389 153.414 35.5314 152.916 36.3774 152.603C45.7811 148.524 66.3798 142.676 100.156 142.582C132.668 142.676 156 148.93 166.088 153.04L171.676 163.477L195.153 140.074L186.589 134.621C183.09 132.655 179.341 130.842 175.363 129.185L175.373 66.184L183.497 47.2465C183.497 47.2465 141.305 47.1175 140.887 47.1372L147.864 33.7578ZM157.262 151.816V152.752L158.181 153.085V156.415L159.299 156.811V153.47L160.218 153.803V152.856L157.262 151.816ZM161.095 153.168L160.364 157.196L161.482 157.581L161.837 155.25H161.847L162.839 158.059L163.278 158.216L164.312 156.124H164.322L164.636 158.694L165.753 159.09L165.106 154.584L163.988 154.188L163.069 156.155L162.202 153.554L161.095 153.168Z" fill="#0033A1"/>
<path d="M100.005 122.441C63.9327 122.457 35.2682 128.756 15.129 140.074L13.9844 140.709L14.9724 141.572C18.4084 144.569 27.0258 153.436 27.0258 153.436L29.6629 149.107C43.1022 141.989 65.8335 136.681 100.005 136.567C134.181 136.681 156.906 141.989 170.347 149.107L172.979 153.436C172.979 153.436 181.596 144.569 185.032 141.572L186.024 140.709L184.885 140.074C164.739 128.756 136.082 122.457 100.005 122.441Z" fill="#DB1A21"/>
<path d="M67.1077 40.543L72.3171 48.8878L82.0018 116.484C86.9094 115.969 91.9131 115.701 96.9795 115.712L101.304 77.7019L107.047 115.842C112.927 115.908 116.823 116.271 121.899 116.742L131.027 48.6807L135.424 40.543H119.309L113.826 89.4476L107.413 40.543H95.3722L89.4254 89.3362L83.7345 40.543H67.1077ZM44.6897 54.5998L26.9297 54.6488L32.4493 64.9354L32.417 114.684C32.4128 120.231 37.3131 125.457 43.1335 124.076C59.4031 120.217 63.4878 119.555 66.1646 112.035C66.7432 110.411 66.9834 107.19 66.9834 105.48L67.1233 62.8323L71.5171 54.6488H55.0188L55.0135 103.106C55.0135 104.83 55.1305 105.933 54.3671 107.48C52.9258 110.402 48.6323 111.469 47.0072 111.469C44.2949 111.597 44.6312 107.632 44.626 106.065C44.5476 84.1185 44.6897 54.5998 44.6897 54.5998ZM143.205 54.5998C140.395 54.5998 138.515 55.1014 136.364 56.9142C134.045 58.8685 132.875 61.0487 132.875 63.8625V107.094C132.875 107.094 132.75 112.757 135.925 116.222C140.259 120.679 160.488 123.953 167.997 127.095L168.154 89.0719L148.624 85.5129L157.146 97.0588L157.157 112.626C157.157 112.626 152.039 111.072 149.271 109.539C148.03 108.848 146.62 108.272 145.534 106.836C143.904 104.673 144.238 102.724 144.238 100.018C144.238 100.018 144.228 72.378 144.228 67.9168C144.228 65.1467 145.116 64.2715 147.894 64.2715C150.337 64.2715 157.146 64.2486 157.146 64.2486V73.7704L167.997 83.0331V54.5998H143.205ZM88.1376 126.191L86.6734 126.244L86.8938 132.806L93.0755 132.58L93.0327 131.349L88.3152 131.519L88.1376 126.191ZM110.609 126.541L113.794 133.354L114.807 133.428L118.703 127.133L117.241 127.025L114.504 131.582L112.28 126.664L110.609 126.541ZM65.6288 128.359C65.422 128.342 65.1766 128.363 64.8841 128.411L60.3045 129.168C59.1358 129.36 58.8099 129.737 58.9948 130.956L59.5149 134.37C59.7008 135.587 60.1196 135.847 61.2893 135.65L65.869 134.89C67.0377 134.703 67.3646 134.328 67.1787 133.106L66.6586 129.69C66.5207 128.775 66.2481 128.406 65.6288 128.359ZM137.325 129.214L136.343 135.702L142.755 136.763L142.943 135.535L137.972 134.713L138.212 133.11L141.074 133.584L141.252 132.478L138.379 132.002L138.599 130.56L143.518 131.371L143.685 130.265L137.325 129.214ZM65.1557 129.552L65.7792 133.661L61.0084 134.453L60.3838 130.338L65.1557 129.552ZM39.8959 134.099L38.6541 134.526L38.5089 139.198L35.5804 135.566L34.606 135.889L34.3219 140.613L31.4968 136.95L30.0566 137.44L34.3115 142.892L35.2765 142.57L35.5992 137.679L38.5925 141.446L39.5324 141.123L39.8959 134.099ZM163.968 135.598C163.519 135.65 163.258 135.993 163.018 136.721L162.788 137.408C162.402 138.574 162.663 139 163.78 139.406L167.498 140.738L167.028 142.154L162.819 140.645L163.06 139.916L161.744 139.739L161.691 139.906C161.305 141.071 161.577 141.508 162.694 141.904L166.381 143.225C167.498 143.631 167.958 143.465 168.344 142.299L168.637 141.446C169.013 140.27 168.741 139.843 167.624 139.438L163.916 138.106L164.355 136.774L168.25 138.168L168.02 138.886L169.336 139.021L169.378 138.886C169.733 137.814 169.42 137.377 168.355 137.002L164.981 135.785C164.553 135.639 164.229 135.566 163.968 135.598Z" fill="white"/>
</g>
<defs>
<clipPath id="clip0_154_2466">
<rect width="200" height="200" fill="white"/>
</clipPath>
</defs>
</svg>
