<svg width="200" height="200" viewBox="0 0 200 200" fill="none" xmlns="http://www.w3.org/2000/svg">
<path d="M139.059 97.9914L153.336 84.9207V47.7218L136.244 29.6252H45.1562V58.9682H57.9431V140.835H45.1562V170.379H136.244L155.144 152.282V111.262L139.059 97.9914ZM119.978 141.177H89.7274V112.566H119.978V141.177ZM119.978 86.9833H89.7274V58.372H119.978V86.9833Z" fill="#4E3629"/>
<path d="M156.77 97.5364L164.959 90.0395V43.1022L141.254 18.003H33.2344V69.4008H46.2002V130.404H33.2344V182.004H140.91L166.768 157.247V105.784L156.77 97.5364ZM158.125 153.556L137.44 173.361H42.1759V138.452H54.8432V61.3531H42.1759V26.646H137.528L156.316 46.5382V86.2347L143.6 97.8756L158.125 109.859V153.556ZM92.7085 84.452H117.147V60.9071H92.7085V84.452ZM111.931 79.6831H97.9233V65.675H111.931V79.6831ZM92.7085 138.646H117.147V115.101H92.7085V138.646ZM111.931 133.877H97.9233V120.168H111.931V133.877Z" fill="#C00404"/>
</svg>
