<svg width="200" height="200" viewBox="0 0 200 200" fill="none" xmlns="http://www.w3.org/2000/svg">
<path d="M162.511 61.5031C162.511 61.5031 165.891 60.615 172.614 64.5163C172.614 64.5163 168.36 47.8574 159.323 42.3633C158.869 42.0932 163.22 42.011 169.604 32.2666C169.604 32.2666 162.655 29.3256 159.502 27.4861C154.363 24.4729 149.399 21.8131 146.564 21.6386C145.313 21.5619 139.948 20.277 136.997 23.2325C136.466 23.7638 132.983 21.8176 131.564 21.8176C131.564 21.8176 132.095 20.8517 137.944 19.4512C138.461 19.3256 128.077 13.1747 116.695 16.6214C116.695 16.6214 117.873 13.7871 121.658 13.078C121.658 13.078 109.87 8.95881 100.255 16.7092C90.5947 8.85322 78.3528 12.6 78.3528 12.6C82.1285 13.3103 83.3122 16.1446 83.3122 16.1446C71.9151 12.7212 61.5316 18.8532 62.0629 18.9833C67.9115 20.3982 68.4428 21.3407 68.4428 21.3407C67.0279 21.3407 63.5412 23.2714 63.0143 22.7601C60.0533 19.8002 54.6882 21.084 53.4367 21.1662C50.5979 21.3407 45.643 24.0005 40.5035 27.0093C37.3457 28.8588 30.3967 31.7942 30.3967 31.7942C36.78 41.543 41.1314 41.6209 40.6824 41.8954C31.6427 47.3906 27.3868 64.0495 27.3868 64.0495C34.1491 60.1482 37.4902 61.0318 37.4902 61.0318C20.2978 74.3196 24.746 107.347 24.9049 104.087C25.065 100.828 31.5405 96.9227 32.912 96.5259C32.2218 101.451 32.1451 107.869 33.7623 116.324C38.0171 138.539 53.1377 149.409 53.1377 149.409C51.3971 143.941 51.0525 138.128 52.1385 132.503C52.293 132.765 52.3919 133.056 52.4286 133.358C53.3077 143.015 56.3354 151.263 58.2772 153.914C63.8313 161.475 60.8992 159.467 72.3597 168.328L71.8762 156.628C72.3063 157.593 74.0202 162.311 74.5371 163.3C84.4671 182.354 104.605 188.293 104.605 188.293C102.891 177.072 106.658 177.226 111.574 173.233C115.031 170.53 117.989 167.244 120.316 163.523L120.368 163.422C121.335 161.997 122.271 160.524 123.599 158.878C122.705 164.19 121.904 167.57 118.069 170.466C117.441 170.949 145.805 156.773 144.515 133.609C144.399 131.48 147.509 144.599 146.843 149.91C146.843 149.91 161.964 139.041 166.219 116.829C167.836 108.384 167.759 101.977 167.064 97.0327C168.44 97.4284 174.892 101.408 175.075 104.599C175.269 107.83 179.697 74.792 162.504 61.5031H162.511Z" fill="#183863"/>
<path d="M90.4604 21.047C90.1325 21.0336 89.8057 21.0536 89.4767 21.1081C89.4767 21.1081 91.0117 22.4007 90.4804 26.4854C90.4804 26.4854 82.391 20.2667 75.5343 22.7575C75.5343 22.7575 79.2522 24.4103 80.4982 27.249C80.4982 27.249 72.5777 28.465 66.5979 30.768C63.3824 33.0421 56.8258 39.4742 52.6522 49.2853C53.4158 49.1508 54.1627 49.0452 54.8629 48.973C56.1667 48.8429 55.7532 61.5983 52.3721 66.5522C50.0202 72.7476 48.7942 74.4226 49.2766 80.0723C50.2236 91.1204 59.0354 99.102 64.106 106.035C69.1777 112.97 71.0572 125.905 72.9501 131.907C74.844 137.909 77.6828 145.798 89.051 148.324C97.0726 150.087 103.848 149.03 111.884 148.639C124.793 148.002 126.798 138.217 128.691 132.221C130.585 126.224 132.472 113.29 137.528 106.347C142.586 99.4032 149.83 89.4843 150.955 80.3913C151.327 77.2913 150.535 71.1493 147.198 65.992C143.72 58.7351 143.164 49.2564 145.144 49.4498C145.931 49.532 146.796 49.6676 147.661 49.8166C143.777 40.5657 137.712 34.2781 134.332 31.6072C128.28 29.0585 119.5 27.717 119.5 27.717C120.741 24.8827 124.46 23.2255 124.46 23.2255C117.607 20.7291 109.513 26.9489 109.513 26.9489C108.988 22.8731 110.524 21.5738 110.524 21.5738C105.273 20.7046 100.227 29.1975 100.227 29.1975L100.002 28.6717C100.002 28.6717 95.372 21.2537 90.4604 21.0503V21.047ZM55.2208 28.4172C54.774 28.4028 54.3016 28.4083 53.8014 28.4328H53.7926C48.8331 28.6695 45.9977 33.3922 41.3906 33.9179C41.3906 33.9179 44.4027 37.737 53.2891 37.9737L61.2384 30.4746C60.178 29.4865 58.3452 28.515 55.2208 28.4172ZM144.856 28.8863C141.881 28.9696 140.068 29.8388 138.969 30.768L147.077 38.4383C155.683 38.1093 158.604 34.3959 158.604 34.3959C153.997 33.8646 151.164 29.1374 146.205 28.9018C145.731 28.8785 145.282 28.874 144.856 28.8863Z" fill="#99CAEA"/>
<path d="M70.8601 34.7617C72.6618 39.4844 75.9018 42.9411 84.2524 45.1185L87.5024 51.3951L91.1336 55.9388L90.3855 43.2979C90.3855 43.2979 82.1217 40.1935 70.8601 34.7617ZM129.797 34.7617C118.534 40.1935 110.272 43.2979 110.272 43.2979L109.523 55.9388L113.155 51.3951L116.405 45.1185C124.759 42.9411 127.995 39.4844 129.797 34.7617ZM73.6888 49.6278C67.3378 49.7578 68.1203 49.8068 61.2869 51.4973C61.2869 51.4973 58.5171 53.4046 69.1151 54.944C68.9595 55.452 68.8506 55.9788 68.8506 56.5379C68.8506 59.3677 70.9902 61.1917 74.3035 61.1917C77.6168 61.1917 79.7542 59.3677 79.7542 56.5379C79.7542 55.223 79.2707 54.0337 78.4949 53.0923C80.5423 53.9081 82.1695 55.7843 81.8405 59.5656C83.83 61.9108 83.7533 63.1368 84.3958 64.4416C82.813 71.0783 78.2948 84.1438 83.0386 87.6594L83.4477 87.0514C83.481 87.2504 83.5166 87.4549 83.571 87.6839C84.4791 91.6185 94.1568 92.8256 96.2775 94.3417C96.2408 94.0993 96.1908 93.8593 96.1275 93.6225C96.3664 93.8381 96.5921 94.0682 96.8088 94.3105L95.7696 99.5423C93.5522 101.324 85.5762 101.826 81.138 100.214C80.7123 100.058 80.3333 99.8924 79.9898 99.7168C80.161 99.7257 80.3389 99.7234 80.5078 99.7357C82.3006 99.8713 81.0202 97.8517 81.0202 97.8517C63.2198 96.8669 49.0373 111.888 49.0417 111.893C56.462 105.229 66.572 100.763 75.3572 99.8513C75.8896 100.635 76.4776 101.527 76.7032 101.976C77.1189 102.802 78.7027 103.705 80.8324 104.154C79.8909 105.352 76.5687 111.208 79.6408 117.143C81.2725 120.3 83.63 123.419 83.0753 127.958C82.4184 133.347 81.3936 136.239 83.9623 139.112C85.9574 141.347 89.2752 141.107 93.9401 139.789C100.586 137.887 108.018 139.562 110.124 140.007C112.23 140.45 116.331 140.899 118.219 138.78C120.108 136.66 120.237 131.372 120.102 127.852C119.88 121.994 121.552 119.378 122.763 117.147C125.7 111.797 122.995 105.7 121.517 103.918C123.995 103.648 125.163 102.556 125.453 101.986C125.695 101.495 126.043 100.876 126.458 100.115C134.749 101.445 143.917 105.729 150.778 111.894C150.796 111.89 139.523 99.978 124.48 98.0718L124.125 97.9829C124.118 97.9962 124.108 98.0084 124.101 98.0218C122.377 97.8239 120.608 97.7528 118.799 97.8528C118.799 97.8528 117.52 99.8724 119.316 99.7368C120.232 99.6701 121.181 99.6668 122.147 99.6957C121.808 99.8713 121.436 100.045 121.025 100.215C117.388 101.716 107.281 101.331 105.088 99.5434L104.081 94.4684C104.445 94.0738 104.833 93.6903 105.262 93.3335C105.159 93.6637 105.082 94.0004 105.029 94.3428C107.15 92.8267 116.832 91.6196 117.736 87.685C117.742 87.6583 117.744 87.645 117.749 87.6194C122.211 84.0704 117.975 71.2239 116.431 64.5739C117.151 63.2179 117.007 61.9886 119.05 59.5722C118.722 55.7988 120.341 53.9215 122.38 53.1034C121.609 54.0437 121.127 55.2286 121.127 56.539C121.127 59.3688 123.268 61.1939 126.58 61.1939C129.898 61.1939 132.035 59.3688 132.035 56.539C132.035 55.8643 131.897 55.2252 131.673 54.6295C141.977 54.3049 139.594 51.4984 139.594 51.4984C133.542 49.241 133.543 49.7623 127.188 49.6267C112.428 49.3033 114.201 59.5367 110.566 61.0672L110.881 61.3862C110.733 61.5018 110.46 61.7074 110.46 61.7074C111.961 65.2886 114.939 83.1235 114.984 83.3858C112.059 83.5158 108.853 85.1986 105.334 85.841C103.499 86.1745 98.974 86.9959 95.9796 85.841C92.4585 84.4895 88.9462 83.1846 85.8618 83.3535C85.9229 82.9934 88.964 65.2786 90.5178 61.7074C90.5178 61.7074 90.2199 61.4907 90.0365 61.3517L90.3255 61.0605C86.6832 59.5345 89.1273 49.3033 73.6922 49.6267L73.6888 49.6278ZM69.1885 54.7062C69.1796 54.7328 69.1718 54.7595 69.1629 54.7862L69.1106 54.7195C69.1373 54.7206 69.1618 54.7073 69.1885 54.7062ZM100.508 54.784C96.6276 54.7995 94.199 57.3115 94.199 57.3115L96.3242 57.8472C100.401 55.4331 104.298 57.8472 104.298 57.8472L106.608 56.7791C104.337 55.2853 102.272 54.7773 100.508 54.784ZM72.8163 65.5198L60.4077 70.2992C59.7998 70.6615 51.7159 78.2729 54.2034 83.5892C56.1074 87.6683 59.9498 89.6412 63.8155 90.5626C51.0935 93.0012 41.5203 101.62 41.5059 101.623C51.0591 94.3561 64.2424 90.5459 73.8622 92.0431C75.6451 92.3232 74.5291 90.2047 74.5291 90.2047C74.2001 90.1591 73.8745 90.1314 73.5477 90.098C57.0577 78.6153 72.8163 65.5198 72.8163 65.5198ZM127.967 65.5198C127.967 65.5198 143.659 78.5353 127.409 89.998C126.702 90.0436 125.992 90.1058 125.277 90.2036C125.277 90.2036 124.167 92.3221 125.944 92.042C135.568 90.5459 148.743 94.355 158.3 101.622C158.297 101.619 148.987 93.2357 136.527 90.6638C140.538 89.7901 144.605 87.8239 146.58 83.5892C149.062 78.2774 140.981 70.6615 140.373 70.2992L127.97 65.5187L127.967 65.5198ZM75.3839 90.2959C75.3839 90.2959 76.0607 91.6196 75.4428 92.1365C75.2105 92.3443 76.5665 92.3032 76.5665 92.3032C76.5665 92.3032 76.9188 90.7682 76.4453 90.5315C76.1108 90.3814 75.7506 90.3014 75.3839 90.2959ZM124.432 90.2959C124.066 90.3014 123.703 90.3825 123.369 90.5315C122.901 90.7682 123.25 92.3032 123.25 92.3032C123.25 92.3032 124.606 92.3443 124.374 92.1365C123.751 91.6196 124.432 90.2959 124.432 90.2959ZM74.5891 93.7426C58.3659 93.647 45.1593 106.122 45.1415 106.122C54.5058 98.6286 67.5946 94.5195 77.2534 95.7888C79.0351 96.0211 77.8725 93.9349 77.8725 93.9349C76.7665 93.8093 75.6717 93.7481 74.5903 93.7415L74.5891 93.7426ZM125.203 93.7426C124.119 93.7492 123.023 93.8104 121.916 93.936C121.916 93.936 120.757 96.0211 122.54 95.7899C132.198 94.5195 145.279 98.6297 154.649 106.123C154.658 106.123 141.45 93.647 125.203 93.7426ZM78.7116 94.0182C78.7116 94.0182 79.3885 95.3375 78.7705 95.8633C78.5338 96.0611 79.8909 96.0222 79.8909 96.0222C79.8909 96.0222 80.2422 94.4873 79.7687 94.255C79.4363 94.106 79.0762 94.0249 78.7116 94.0182ZM121.109 94.0182C120.741 94.0238 120.379 94.1049 120.043 94.255C119.575 94.4873 119.93 96.0222 119.93 96.0222C119.93 96.0222 121.289 96.0611 121.052 95.8633C120.434 95.3375 121.109 94.0182 121.109 94.0182ZM81.8516 97.914C81.8516 97.914 82.5329 99.2277 81.9105 99.7635C81.6737 99.9613 83.0342 99.9224 83.0342 99.9224C83.0342 99.9224 83.3865 98.3875 82.913 98.1507C82.5785 98.0018 82.2184 97.9217 81.8516 97.914ZM117.955 97.914C117.588 97.9217 117.228 98.0018 116.893 98.1507C116.42 98.3875 116.778 99.9224 116.778 99.9224C116.778 99.9224 118.13 99.9613 117.898 99.7635C117.28 99.2277 117.955 97.914 117.955 97.914ZM100.193 103.554H100.619C100.841 105.114 103.907 105.867 106.384 106.007C111.31 106.282 110.73 106.619 116.342 105.567C116.8 106.036 117.442 106.562 118.057 107.238L117.884 114.432L119.585 114.163C119.414 115 119.152 115.919 118.767 116.944C117.209 121.096 116.482 124.408 116.394 126.482C115.585 127.974 114.654 129.247 114.654 129.247V135.131C114.618 135.16 114.591 135.198 114.556 135.224C113.228 136.229 111.456 135.451 110.012 135.34C109.699 135.315 108.873 135.252 107.921 135.19L110.513 125.278L105.462 129.7L107.726 135.175C104.216 134.955 97.688 134.735 93.1609 135.891C91.2225 136.396 89.722 136.574 88.6238 136.44C87.8814 134.461 86.96 131.205 87.7858 128.734C87.7858 128.734 86.6599 126.614 85.8151 124.455C85.694 122.278 85.3594 120.632 83.74 117.717C83.1242 116.604 82.6374 115.5 82.3329 114.417L84.3124 114.55L83.591 107.762C84.1779 107.059 84.9359 106.382 85.8996 105.734C88.7972 106.12 90.2455 106.516 94.4325 106.042C97.0889 105.743 99.9765 105.125 100.194 103.561L100.193 103.554ZM111.451 106.282L108.004 114.55L107.994 114.554L107.245 113.609L107.418 113.559L104.452 107.123L101.845 112.978L100.362 114.91L98.8273 112.465L99.1507 112.342L96.6521 107.459L93.3076 114.53L93.2876 114.554L92.9486 114.276L90.37 106.61L89.0996 111.102L89.0529 111.063L88.9551 111.621L88.5683 112.985L88.6983 113.06L88.1014 116.44C94.7326 115.808 98.2048 119.912 100.098 120.549C101.991 121.187 104.613 113.601 114.102 116.759L113.241 112.987L113.248 112.985L113.198 112.8L113.093 112.342L113.078 112.348L111.451 106.283V106.282ZM90.9413 124.644L93.7811 134.752L95.6784 130.328L90.9413 124.644Z" fill="#183863"/>
<path d="M74.3041 53.0781C72.3923 53.0803 70.844 54.6298 70.8418 56.5404C70.8418 59.0134 73.4927 59.2068 74.3041 59.2068C75.1155 59.2068 77.7663 59.0123 77.7663 56.5404C77.7641 54.6298 76.2158 53.0803 74.3041 53.0781ZM126.578 53.0781C124.666 53.0803 123.116 54.6298 123.114 56.5404C123.114 59.0134 125.767 59.2068 126.578 59.2068C127.39 59.2068 130.03 59.0268 130.03 56.5448C130.03 54.6364 128.488 53.0859 126.578 53.0781Z" fill="white"/>
<path d="M96.7693 19.2238C96.7693 19.2238 98.0197 29.7595 99.1201 43.5741L102.019 43.9276C102.019 43.9276 102.908 32.3037 104.356 19.2227L96.7693 19.2238ZM74.4918 52.546C73.2392 52.546 72.2144 53.5441 72.1844 54.7968C72.1544 56.0494 73.1281 57.0975 74.3785 57.1587C75.63 57.2198 76.7037 56.2717 76.7948 55.0224C76.8304 53.7075 75.8067 52.606 74.4918 52.546ZM126.832 52.546C125.581 52.5438 124.559 53.5386 124.526 54.7879C124.493 56.0372 125.463 57.0842 126.713 57.1476C127.961 57.2109 129.032 56.2684 129.126 55.0224C129.162 53.7109 128.142 52.6105 126.832 52.546ZM57.0949 61.5224L46.9004 65.028L51.4163 69.3594L57.0949 61.5224ZM143.2 62.2837L150.14 70.512L153.395 65.786L143.2 62.2837ZM100.552 101.926C98.4365 101.926 93.0836 103.803 90.8006 104.961C90.7473 104.865 90.6906 104.769 90.6072 104.695C89.9359 104.077 88.3965 104.148 86.5992 104.292C86.1702 104.327 85.8023 104.356 85.5511 104.356H85.3822L85.2577 104.472C85.0265 104.69 79.7714 109.87 86.9582 121.903L87.7474 121.667C87.7385 118.769 88.1497 115.886 88.97 113.106C89.2112 112.272 89.4591 111.439 89.6947 110.648C89.9804 109.702 90.2238 108.859 90.4372 108.068L93.2292 115.684L96.6748 108.423L100.465 115.573L104.429 108.079L108.036 115.627L111.315 107.865C111.539 108.713 111.818 109.655 112.129 110.691C112.351 111.482 112.6 112.296 112.832 113.106C113.649 115.885 114.062 118.766 114.054 121.662L114.851 121.904C122.032 109.871 116.778 104.69 116.551 104.459L116.425 104.341H116.258C116.011 104.341 115.639 104.314 115.209 104.28C113.413 104.136 111.871 104.062 111.2 104.68C110.984 104.875 110.864 105.154 110.867 105.444C110.867 105.497 110.884 105.576 110.887 105.633C109.03 104.77 102.788 101.926 100.552 101.926ZM90.4961 120.787C83.3148 132.823 88.5688 138.002 88.7955 138.214L88.9211 138.329H89.0912C89.3424 138.329 89.7092 138.358 90.1393 138.393C90.8251 138.45 91.4664 138.494 92.041 138.494C92.9825 138.494 93.7361 138.374 94.1506 137.997C94.3663 137.802 94.4896 137.523 94.4852 137.233C94.4852 136.922 94.4207 136.515 94.3307 136.065C95.0687 136.24 98.5443 136.997 100.193 136.997C101.973 136.997 107.155 135.632 107.606 135.512C107.442 136.205 107.326 136.816 107.326 137.248C107.315 137.534 107.425 137.81 107.63 138.01C108.045 138.373 108.8 138.494 109.743 138.494C110.336 138.494 110.982 138.45 111.672 138.407C112.102 138.374 112.469 138.345 112.72 138.345H112.89L113.016 138.227C113.248 138.015 118.498 132.834 111.316 120.801L110.519 121.042C110.527 123.942 110.115 126.828 109.292 129.608C109.056 130.439 108.809 131.266 108.572 132.053C108.309 132.934 108.088 133.71 107.882 134.46L105.133 127.383L100.566 132.728L96.1369 127.507L93.9206 134.421C93.7161 133.679 93.4993 132.916 93.2392 132.046C93.0025 131.25 92.7546 130.424 92.519 129.593C91.6965 126.812 91.2841 123.929 91.2919 121.029L90.495 120.786L90.4961 120.787Z" fill="#183863"/>
<path d="M100.532 102.805C98.2957 102.805 91.8957 105.219 90.5875 106.039L93.3273 113.466L96.6162 106.513L100.45 113.757L104.459 106.185L107.954 113.544L110.88 106.604C109.234 105.836 102.604 102.805 100.532 102.805ZM88.5646 105.039C87.9055 105.035 87.1708 105.095 86.6518 105.137C86.3239 105.18 86.0049 105.205 85.7492 105.214C85.0968 105.978 81.7757 110.583 86.923 120.104C87.0664 117.652 87.4787 115.223 88.1545 112.863C88.3912 112.022 88.6369 111.191 88.8836 110.389C89.5072 108.323 90.0907 106.369 90.0907 105.447C90.094 105.396 90.0718 105.348 90.0318 105.317C89.8073 105.109 89.2237 105.041 88.5646 105.039ZM113.302 105.054C112.626 105.054 112.016 105.118 111.785 105.33C111.745 105.361 111.725 105.41 111.728 105.46C111.728 106.387 112.323 108.359 112.951 110.464C113.187 111.246 113.433 112.057 113.66 112.878C114.334 115.24 114.747 117.667 114.891 120.119C120.063 110.56 116.726 105.988 116.069 105.23C115.814 105.23 115.495 105.197 115.142 105.168C114.65 105.114 113.944 105.054 113.302 105.054ZM90.4875 122.588C85.3247 132.114 88.6369 136.715 89.2938 137.477C89.5494 137.477 89.8606 137.511 90.2118 137.54C91.2311 137.622 93.1084 137.778 93.5919 137.362C93.6308 137.331 93.6541 137.282 93.6508 137.232C93.6508 136.315 93.0661 134.36 92.4437 132.293C92.2025 131.497 91.9602 130.664 91.7179 129.829C91.0432 127.467 90.6309 125.04 90.4875 122.588ZM111.326 122.592C111.181 125.044 110.768 127.473 110.091 129.834C109.854 130.67 109.607 131.497 109.365 132.293C108.742 134.365 108.158 136.324 108.158 137.241C108.156 137.292 108.176 137.34 108.215 137.371C108.664 137.786 110.559 137.633 111.597 137.552C111.949 137.522 112.264 137.499 112.524 137.489C113.176 136.716 116.507 132.109 111.35 122.592H111.326ZM104.846 129.043L100.571 134.061L96.494 129.23L94.5533 135.248C95.7226 135.499 98.8258 136.14 100.197 136.14C101.569 136.14 105.685 135.128 107.071 134.775L104.846 129.043Z" fill="white"/>
</svg>
