<svg width="200" height="200" viewBox="0 0 200 200" fill="none" xmlns="http://www.w3.org/2000/svg">
<path d="M63.9021 170.566H77.8229C77.661 170.405 77.661 170.405 77.661 170.405L77.8229 169.919C79.1178 170.404 81.0603 170.405 82.5171 170.405C82.679 168.786 83.3265 167.329 83.3265 167.329C79.1179 166.034 77.8229 163.282 77.8229 163.282L78.1466 162.797C80.0891 164.253 83.8121 164.092 83.8121 164.092C84.2977 161.016 86.5639 159.397 86.5639 159.397C81.7078 158.102 81.7078 155.674 81.7078 155.674L82.0315 155.189C85.5926 156.807 87.0495 156.646 87.0495 156.646C89.3157 145.962 125.575 152.761 125.575 152.761C131.402 151.789 136.905 148.714 136.905 148.714V150.333C153.902 143.049 146.78 125.89 146.78 125.89H122.337V140.135H121.366H81.7078H80.4128V104.038L80.0891 104.685C73.6143 100.477 71.9956 94.0019 72.3193 90.7645C72.643 87.5271 72.4812 85.099 72.4812 85.099L70.8625 85.5847C67.6251 71.8257 75.7186 62.4372 75.7186 62.4372C74.9092 61.9516 67.1395 54.6675 72.1574 45.1172C77.4991 35.0813 87.3732 37.9949 87.3732 37.9949H122.337V47.5452C123.47 48.3546 124.603 49.1639 124.603 49.1639C130.431 48.8402 134.154 52.0776 134.154 52.0776C134.963 50.6208 140.305 44.9553 147.265 48.0308C154.549 51.2682 154.226 58.8761 154.226 58.8761H160.862V34.9194L137.715 13.0669H65.5208L42.3734 34.7575V96.1062C60.3409 91.5739 62.1215 99.1817 62.1215 99.1817C65.3589 99.0199 67.787 97.563 67.787 97.563L68.1107 98.0486C67.1395 100.153 62.9309 101.934 62.9309 101.934C62.9309 102.581 62.6071 104.038 62.6071 104.038C63.4165 104.523 63.9021 105.818 63.9021 105.818C69.0819 105.333 70.5387 104.038 70.5387 104.038L70.8625 104.523C69.7294 107.275 64.8733 108.732 64.8733 108.732C65.0351 109.703 64.2258 111.646 64.2258 111.646C64.8733 112.293 65.197 113.75 65.197 113.75C68.7582 114.236 70.7006 113.75 70.7006 113.75L70.8625 114.236C69.4057 116.016 65.197 116.34 65.197 116.34C65.0352 118.444 63.5783 120.549 63.5783 120.549C66.492 121.358 69.2438 120.71 69.2438 120.71L69.4057 121.196C67.4632 122.977 63.5783 123.138 63.5783 123.138C63.2546 125.728 60.8265 127.671 60.8265 127.671C64.3877 128.48 66.6539 127.833 66.6539 127.833L66.8157 128.318C64.8733 130.261 60.3409 130.423 60.3409 130.423C56.6179 138.84 44.3158 137.707 39.9453 137.059V146.61L63.9021 170.566Z" fill="#B31B1B"/>
<path d="M84.6525 41.7969C78.9547 41.7969 74.2928 46.4587 74.2928 52.1566C74.2928 56.3004 76.7532 59.7968 80.1201 61.4803C81.6741 60.3148 83.228 59.7968 83.228 59.7968C82.5806 60.4443 81.9331 61.0918 81.4151 61.7393C80.5086 63.2932 77.1417 69.768 78.1777 75.8543L81.2856 74.0414C81.2856 74.0414 78.6957 85.696 84.005 93.2068C84.005 93.2068 85.1705 95.2787 87.1129 96.5737C85.818 93.8543 84.782 90.7463 84.264 87.5089C82.969 80.3867 84.005 73.5234 86.5949 67.9551L84.3935 68.732C89.8323 58.2429 100.969 59.2788 100.969 59.2788C100.192 60.4443 99.415 63.0342 99.415 63.0342C100.58 62.1277 103.818 61.8688 103.818 61.8688C96.0481 68.991 103.688 77.0198 103.688 77.0198C94.2352 71.5809 99.0266 65.3651 99.0266 65.3651C98.2496 65.3651 96.4366 66.2716 96.4366 66.2716C96.1776 64.4587 97.2136 62.3867 97.2136 62.3867C92.4223 62.7752 90.7388 65.1061 90.7388 65.1061C91.9043 65.1061 93.7172 65.3651 93.7172 65.3651C90.2208 70.4155 88.1489 77.0198 88.1489 84.1421C88.1489 91.0053 90.0913 97.2211 93.1992 102.142L94.1057 98.6456C94.1057 98.6456 96.4366 104.214 100.581 106.415C103.17 107.84 104.336 110.689 104.983 112.761C105.89 109.523 105.76 105.12 105.76 105.12C107.314 106.933 107.444 111.854 107.444 111.854C107.703 114.833 109.516 115.48 109.516 115.48C109.516 115.48 113.012 117.423 117.026 117.941C121.17 118.458 122.465 116.905 122.465 116.905C125.055 114.574 125.703 112.502 125.703 112.502C125.573 113.667 124.926 115.869 124.926 115.869C129.717 113.667 132.178 109.523 133.731 106.027C135.415 102.53 136.839 100.588 136.839 100.588L137.487 102.013C138.134 99.1636 142.667 92.9478 142.667 92.9478C144.091 91.2643 145.645 87.1205 145.127 85.0485C144.739 82.9766 146.034 79.0917 146.034 79.0917C146.552 77.2788 146.811 74.4299 145.904 73.0054C145.257 71.8399 144.35 69.3795 144.35 69.3795C144.091 68.3435 142.796 65.4946 142.796 65.4946C141.631 63.2932 140.336 61.6098 139.041 60.1853C134.379 55.0055 129.329 53.9695 127.257 53.7105C129.329 56.6889 129.07 59.5378 129.07 59.5378C122.595 46.7177 107.185 47.3652 107.185 47.3652L107.703 48.1422C99.0266 48.0127 95.0122 50.9911 95.0122 50.9911L94.8827 50.7321C94.2352 45.6818 89.8323 41.7969 84.6525 41.7969ZM104.983 112.761C104.983 112.89 104.983 112.89 104.983 113.02C104.983 112.89 104.983 112.761 104.983 112.761ZM83.746 44.3868C85.3 44.3868 86.9834 44.9048 88.4079 46.0702C92.2928 49.3076 91.6453 52.6745 91.6453 52.6745L92.4222 52.4155C89.7028 54.2285 84.782 57.9839 84.782 57.9839C84.9115 57.2069 85.9475 55.394 85.9475 55.394C82.7101 57.0774 80.6381 58.8903 80.6381 58.8903C80.6381 58.8903 77.9187 57.4659 77.6597 52.804C77.4007 48.1422 81.2856 46.0702 81.2856 46.0702C80.7676 45.5523 79.0842 45.1638 79.0842 45.1638C79.0842 45.1638 81.1561 44.2573 83.746 44.3868ZM117.026 55.394C122.206 56.0414 124.796 61.4803 126.35 64.4587C127.904 67.4371 128.811 67.5666 128.811 67.5666C132.437 67.9551 135.415 62.1277 135.415 62.1277C135.285 65.4946 133.472 67.8256 133.472 67.8256C139.429 63.1637 140.465 67.5666 140.465 67.5666C140.465 67.5666 138.652 65.4946 135.285 69.6385C131.271 74.5594 129.588 73.2644 129.588 73.2644C129.976 73.2644 130.494 72.4874 130.494 72.4874C124.149 72.7464 118.71 63.4227 118.71 63.4227C118.71 63.4227 116.12 59.6673 114.048 58.3724C111.976 57.0774 105.242 57.8544 105.242 57.8544C106.667 56.9479 109.904 56.3004 109.904 56.3004C116.897 55.0055 120.523 61.2213 120.523 61.2213L123.89 65.3651C120.264 56.4299 117.026 55.394 117.026 55.394ZM106.149 64.0702C106.149 64.0702 114.825 63.1637 116.638 72.4874C116.638 72.4874 115.861 71.4514 114.825 70.4155C114.178 71.8399 112.753 72.6169 111.199 72.4874C109.257 72.2284 107.832 70.545 107.962 68.6025C108.091 67.9551 108.35 67.3076 108.739 66.7896C107.314 66.0126 104.983 65.6241 104.983 65.6241C104.983 65.6241 106.408 65.2356 107.962 65.3651C107.314 64.8472 106.796 64.4587 106.149 64.0702ZM138.782 71.4515C140.336 71.5809 141.501 72.0989 141.501 72.0989C140.983 72.2284 140.595 72.3579 140.077 72.3579C141.113 72.7464 141.89 73.2644 141.89 73.2644C141.89 73.2644 141.631 73.2644 141.113 73.1349C141.372 73.3939 143.703 75.7248 142.667 78.1852C141.501 80.7752 138.523 80.9047 138.523 80.9047C141.76 77.5378 141.113 73.3939 141.113 73.1349C140.724 73.1349 140.077 73.0054 139.559 73.0054C139.818 73.5234 139.818 74.1709 139.688 74.8183C139.3 76.3723 137.746 77.2788 136.192 76.8903L136.321 77.2788L136.71 80.9047C138.782 82.3291 137.616 85.178 137.616 85.178C140.077 90.0989 135.803 94.2427 135.803 94.2427L132.566 97.3506C132.437 96.4442 133.861 94.5017 133.861 94.5017C137.357 89.8399 136.321 87.3795 136.321 87.3795C135.415 87.8974 134.508 87.7679 134.508 87.7679C133.472 87.6384 134.249 85.955 134.249 85.955C134.249 85.955 134.767 84.401 133.472 84.2715C132.178 84.1421 131.66 85.955 131.66 85.955C131.012 87.3795 132.178 88.6744 132.178 88.6744C131.012 88.9334 128.94 89.8399 128.94 89.8399C126.998 88.4154 126.221 87.25 126.221 87.25C128.293 86.732 128.811 85.696 128.811 85.696C129.847 84.401 129.199 83.4946 128.422 83.1061C127.645 82.8471 126.998 83.3651 126.739 83.6241C126.609 83.8831 126.221 84.1421 126.221 84.1421C124.019 85.955 122.854 84.66 122.854 84.66L122.595 84.2715C121.688 83.3651 121.688 82.7176 121.688 82.7176C121.947 81.1636 122.854 79.9982 122.854 79.9982C125.314 77.2788 128.034 78.1852 130.494 79.3507C132.825 80.5162 134.638 80.3867 134.638 80.3867L134.379 79.6097C133.602 77.9263 131.271 77.4083 131.271 77.4083C132.048 77.0198 133.472 77.2788 133.472 77.2788L133.213 76.5018C132.825 75.3363 131.271 75.3363 131.271 75.3363L133.472 73.6529C135.285 71.7104 137.228 71.322 138.782 71.4515ZM124.667 72.2284C125.314 72.2284 126.091 72.4874 126.739 72.8759L129.329 74.8183L128.811 75.0773C128.811 75.0773 126.609 73.6529 124.796 73.5234C122.983 73.3939 121.688 73.6529 121.041 73.7824L120.782 73.3939C120.782 73.3939 122.724 72.0989 124.667 72.2284ZM126.35 75.2068C127.127 75.2068 128.034 75.5953 128.94 76.5018L128.552 76.7608C128.552 76.7608 126.091 75.7248 124.408 76.2428L124.149 75.8543C124.149 75.8543 125.055 75.2068 126.35 75.2068ZM116.12 75.2068C116.12 75.2068 116.508 76.8903 111.976 80.5162C108.609 83.2356 107.703 84.66 107.703 84.66C108.091 84.401 110.293 83.7536 110.293 83.7536C105.89 88.4154 105.113 95.6672 104.983 96.9622C104.854 99.5521 105.242 101.365 105.242 101.365C100.451 95.5377 102.264 89.4514 102.264 89.4514L100.192 90.7463C100.063 83.1061 107.055 79.7392 107.055 79.7392L105.76 79.2212C107.573 78.9622 109.127 78.4442 110.293 77.9262C109.257 77.7967 109.127 77.5378 109.127 77.5378C113.919 76.2428 116.12 75.2068 116.12 75.2068ZM36.739 79.4802C36.739 79.4802 22.2354 88.9334 17.4441 98.2571L21.7175 97.2211C21.7175 97.2211 14.5952 106.933 17.7031 113.667C17.7031 113.667 19.1275 115.61 19.775 115.998C20.4225 116.387 22.3649 118.847 23.0124 120.401L22.8829 119.365C22.1059 117.423 21.9764 115.869 21.9764 115.869C26.8973 124.156 34.7965 124.415 34.7965 124.415L30.7822 125.322C30.7822 125.322 30.6527 125.322 30.3937 125.451C39.3289 130.761 46.9692 129.725 46.9692 129.725C49.3001 128.948 50.9835 128.43 50.7245 126.746C50.5951 126.099 50.2066 124.674 49.6886 124.156C52.2785 123.509 54.0914 121.825 53.8325 120.012C53.703 119.235 53.185 118.588 52.408 117.941C54.7389 117.164 56.1634 115.61 55.9044 113.926C55.6454 112.761 54.6094 111.725 53.0555 111.207C54.4799 110.3 55.2569 109.135 54.9979 107.84C54.7389 106.415 53.444 105.379 51.5015 104.861C52.7965 104.084 53.444 102.919 53.185 101.754C52.926 100.07 50.854 98.7751 48.3936 98.5161C43.9908 98.9046 37.775 100.329 28.5807 103.696C28.5807 103.696 33.8901 99.6816 36.8685 97.9981V95.9262C33.3721 97.8686 32.9836 98.5161 32.9836 98.5161C33.7606 97.4801 34.1491 96.3147 36.8685 94.3722V92.6888C32.4656 96.1852 28.7102 99.9406 28.7102 99.9406C31.0412 95.6672 33.8901 91.2643 36.8685 87.8974V86.0845C36.8685 86.0845 31.4297 89.8399 27.1563 93.8543C27.1563 93.8543 31.9476 86.6025 36.739 81.4226V79.4802ZM53.444 98.5161C53.9619 98.5161 54.3504 98.6456 54.7389 98.7751C54.3504 98.6456 53.8325 98.5161 53.444 98.5161ZM54.7389 98.7751C54.8684 98.7751 54.8684 98.7751 54.9979 98.7751C54.8684 98.7751 54.7389 98.7751 54.7389 98.7751ZM56.1634 99.1636C56.5519 99.2931 56.8109 99.4226 57.0699 99.6816C56.8109 99.4226 56.4224 99.2931 56.1634 99.1636ZM116.379 90.4874C116.379 90.4874 119.487 90.8758 120.911 91.1348C122.206 91.5233 126.868 92.3003 128.681 90.8758C128.681 90.8758 128.552 92.1708 130.494 93.5953C130.494 93.5953 132.178 94.8902 132.307 95.2787C132.307 95.2787 132.178 95.7967 130.106 98.7751C127.904 101.754 127.775 104.473 127.386 105.897C126.998 107.451 125.703 110.818 125.703 110.818C125.703 110.818 124.408 114.056 119.487 113.667C114.566 113.279 112.235 111.595 112.235 111.595C112.365 112.502 113.789 113.667 113.789 113.667C110.034 112.761 109.775 111.336 109.904 105.509C110.034 99.6816 108.48 94.5017 108.48 94.5017C107.703 94.8902 106.926 97.0917 106.926 97.0917C106.926 97.0917 104.854 90.0989 116.379 90.4874ZM164.293 100.07C164.293 100.07 164.422 100.2 164.552 100.329H164.811C164.552 100.2 164.422 100.07 164.293 100.07ZM164.552 100.2C165.846 101.365 171.674 106.933 174.393 115.739C174.393 115.739 167.4 106.286 156.523 103.307C156.523 103.307 169.731 110.3 168.825 125.322C168.825 125.322 165.846 119.106 162.609 116.775C162.609 116.775 169.731 131.02 158.595 142.545C158.595 142.545 163.645 127.912 155.746 117.293C155.746 117.293 158.077 124.933 154.321 131.538C154.321 131.538 155.616 121.048 149.789 115.092C149.789 115.092 149.271 115.869 148.365 116.775V116.905C163.516 149.279 134.12 155.624 134.12 155.624L134.379 154.07C133.213 154.717 125.962 156.789 125.962 156.789C125.962 156.789 120.652 154.329 108.35 153.811C104.465 153.681 101.487 153.681 99.156 153.94C99.2855 153.94 99.415 153.94 99.674 153.94C99.8035 153.94 100.063 154.07 100.192 154.07C99.0266 154.329 97.7316 154.976 97.2136 156.142C96.6956 157.178 96.9546 158.861 97.9906 159.509C96.5661 159.768 94.7532 160.545 94.2352 161.969C93.7172 163.264 94.4942 164.818 95.6597 165.336C94.4942 165.854 92.5518 167.019 92.9402 168.573C93.3287 170.127 95.2712 171.034 96.5661 171.422C95.6597 171.94 95.5302 172.976 95.6597 173.883C95.6597 174.53 96.1776 175.178 96.6956 175.566C98.1201 176.861 100.192 177.379 102.005 177.509C100.969 178.415 100.71 180.099 101.616 181.264C102.523 182.3 104.206 182.43 105.501 182.559C132.048 181.264 139.3 166.372 139.3 166.372C139.3 167.537 139.17 168.832 139.17 169.998C139.041 171.163 138.911 172.329 138.782 173.494C138.782 173.753 138.652 173.883 138.782 174.012C147.329 171.293 148.106 166.501 151.472 162.099L150.307 166.501C156.652 164.041 155.487 160.156 161.573 150.962C161.573 150.962 162.35 155.883 158.595 162.099C163.516 156.789 168.048 149.797 169.472 141.379C169.472 141.379 170.767 149.408 169.472 156.012C167.659 157.825 166.364 165.077 155.228 171.422C196.796 151.609 177.501 112.89 177.501 112.89C173.098 105.897 164.552 100.329 164.552 100.2ZM175.429 119.624C175.429 119.624 178.019 123.509 179.962 129.725C179.832 135.811 178.537 143.063 174.652 150.185C174.523 150.314 174.523 150.444 174.393 150.444L174.264 150.573C174.005 150.962 173.746 151.221 173.487 151.609C176.595 145.264 179.314 134.645 175.429 119.624ZM97.3431 154.199C96.9546 154.329 96.5661 154.329 96.0481 154.458C95.7892 154.458 95.6597 154.588 95.4007 154.588C96.0481 154.458 96.6956 154.329 97.3431 154.199ZM93.9762 155.106C93.7172 155.235 93.5877 155.235 93.3287 155.365C93.0697 155.494 92.8107 155.624 92.6812 155.753C93.0697 155.365 93.4582 155.235 93.9762 155.106ZM92.6812 155.624C92.5518 155.753 92.4223 155.753 92.2928 155.753C92.4223 155.753 92.5518 155.624 92.6812 155.624ZM92.2928 155.753C92.2928 155.883 92.2928 155.883 92.2928 155.753C92.1633 155.883 92.0338 155.883 92.0338 156.012C92.1633 155.883 92.1633 155.883 92.2928 155.753ZM92.0338 156.012C91.7748 156.142 91.5158 156.271 91.3863 156.401C91.5158 156.401 91.9043 156.142 92.0338 156.012ZM91.5158 156.401C91.2568 156.66 90.9978 156.919 90.9978 157.178C91.1273 156.919 91.3863 156.53 91.5158 156.401ZM87.6309 164.041C87.5014 164.3 87.5014 164.43 87.5014 164.43C87.5014 164.3 87.5014 164.171 87.6309 164.041ZM88.7964 167.926C88.9259 168.055 89.0554 168.055 89.0554 168.055C88.9259 168.055 88.7964 168.055 88.7964 167.926ZM86.4654 170.775C86.4654 170.904 86.4654 170.904 86.4654 170.904V170.775ZM90.0913 174.919C90.3503 175.048 90.4798 175.048 90.4798 175.048C90.3503 175.048 90.2208 174.919 90.0913 174.919ZM89.9618 175.825C89.8323 175.955 89.8323 176.214 89.8323 176.343C89.8323 176.214 89.8323 176.084 89.9618 175.825ZM89.7028 177.638C89.7028 177.768 89.7028 177.897 89.7028 177.897C89.7028 177.768 89.7028 177.638 89.7028 177.638ZM96.4366 181.912C96.8251 181.912 97.0841 181.912 97.0841 181.912C96.9546 181.912 96.6956 181.912 96.4366 181.912Z" fill="#89572E"/>
<path d="M104.983 112.761C104.336 110.689 103.17 107.84 100.581 106.415C96.4366 104.214 94.1057 98.6456 94.1057 98.6456L93.1992 102.142C90.0913 97.2211 88.1489 91.0053 88.1489 84.1421C88.1489 77.0198 90.2208 70.4155 93.7172 65.3651C93.7172 65.3651 91.9043 65.1061 90.7388 65.1061C90.7388 65.1061 92.4223 62.7752 97.2136 62.3867C97.2136 62.3867 96.1776 64.4587 96.4366 66.2716C96.4366 66.2716 98.2496 65.3651 99.0265 65.3651C99.0265 65.3651 94.2352 71.5809 103.688 77.0198C103.688 77.0198 96.0481 68.991 103.818 61.8688C103.818 61.8688 100.581 62.1277 99.415 63.0342C99.415 63.0342 100.192 60.4443 100.969 59.2788C100.969 59.2788 89.8323 58.2429 84.3935 68.732L86.5949 67.9551C84.005 73.5234 82.969 80.3867 84.264 87.509C84.782 90.7463 85.818 93.8543 87.1129 96.5737C85.1705 95.2787 84.005 93.2068 84.005 93.2068C78.6957 85.696 81.2856 74.0414 81.2856 74.0414L78.1777 75.8543C77.1417 69.768 80.5086 63.2932 81.4151 61.7393C81.9331 61.0918 82.5806 60.4443 83.228 59.7968C83.228 59.7968 81.6741 60.3148 80.1201 61.4803C76.7532 59.7968 74.2928 56.3004 74.2928 52.1566C74.2928 46.4587 78.9547 41.7969 84.6525 41.7969C89.8323 41.7969 94.2352 45.6818 94.8827 50.7321L95.0122 50.9911C95.0122 50.9911 99.0266 48.0127 107.703 48.1422L107.185 47.3652C107.185 47.3652 122.595 46.7177 129.07 59.5378C129.07 59.5378 129.329 56.6889 127.257 53.7105C129.329 53.9695 134.379 55.0055 139.041 60.1853C140.336 61.6098 141.631 63.2932 142.796 65.4946C142.796 65.4946 144.091 68.3435 144.35 69.3795C144.35 69.3795 145.257 71.8399 145.904 73.0054C146.811 74.4299 146.552 77.2788 146.034 79.0917C146.034 79.0917 144.739 82.9766 145.127 85.0485C145.645 87.1205 144.091 91.2643 142.667 92.9478C142.667 92.9478 138.134 99.1636 137.487 102.012L136.839 100.588C136.839 100.588 135.415 102.53 133.731 106.027C132.178 109.523 129.717 113.667 124.926 115.869C124.926 115.869 125.573 113.667 125.703 112.502C125.703 112.502 125.055 114.574 122.465 116.905C122.465 116.905 121.17 118.458 117.026 117.941C113.012 117.423 109.516 115.48 109.516 115.48C109.516 115.48 107.703 114.833 107.444 111.854C107.444 111.854 107.314 106.933 105.76 105.12C105.76 105.12 105.89 109.523 104.983 112.761ZM104.983 112.761C104.983 112.89 104.983 112.89 104.983 113.02C104.983 112.89 104.983 112.761 104.983 112.761ZM141.113 73.1349C141.631 73.2644 141.89 73.2644 141.89 73.2644C141.89 73.2644 141.113 72.7464 140.077 72.3579C140.595 72.3579 140.983 72.2284 141.501 72.0989C141.501 72.0989 140.336 71.5809 138.782 71.4515C137.228 71.322 135.285 71.7104 133.472 73.6529L131.271 75.3363C131.271 75.3363 132.825 75.3363 133.213 76.5018L133.472 77.2788C133.472 77.2788 132.048 77.0198 131.271 77.4083C131.271 77.4083 133.602 77.9263 134.379 79.6097L134.638 80.3867C134.638 80.3867 132.825 80.5162 130.494 79.3507C128.034 78.1852 125.314 77.2788 122.854 79.9982C122.854 79.9982 121.947 81.1636 121.688 82.7176C121.688 82.7176 121.688 83.3651 122.595 84.2716L122.854 84.66C122.854 84.66 124.019 85.955 126.221 84.1421C126.221 84.1421 126.609 83.8831 126.739 83.6241C126.998 83.3651 127.645 82.8471 128.422 83.1061C129.199 83.4946 129.847 84.401 128.811 85.696C128.811 85.696 128.293 86.732 126.221 87.25C126.221 87.25 126.998 88.4154 128.94 89.8399C128.94 89.8399 131.012 88.9334 132.178 88.6744C132.178 88.6744 131.012 87.3795 131.66 85.955C131.66 85.955 132.178 84.1421 133.472 84.2716C134.767 84.401 134.249 85.955 134.249 85.955C134.249 85.955 133.472 87.6384 134.508 87.7679C134.508 87.7679 135.415 87.8974 136.321 87.3795C136.321 87.3795 137.357 89.8399 133.861 94.5017C133.861 94.5017 132.437 96.4442 132.566 97.3506L135.803 94.2427C135.803 94.2427 140.077 90.0989 137.616 85.178C137.616 85.178 138.782 82.3291 136.71 80.9047L136.321 77.2788L136.192 76.8903C137.746 77.2788 139.3 76.3723 139.688 74.8183C139.818 74.1709 139.818 73.5234 139.559 73.0054C140.077 73.0054 140.724 73.1349 141.113 73.1349ZM141.113 73.1349C141.372 73.3939 143.703 75.7248 142.667 78.1852C141.501 80.7752 138.523 80.9047 138.523 80.9047C141.76 77.5378 141.113 73.3939 141.113 73.1349ZM48.5231 98.5161C50.3361 98.3866 51.89 98.3866 53.0555 98.5161C53.185 98.5161 53.3145 98.5161 53.444 98.5161M53.444 98.5161C53.9619 98.5161 54.3504 98.6456 54.7389 98.7751M53.444 98.5161C53.8325 98.5161 54.3504 98.6456 54.7389 98.7751M54.7389 98.7751C54.8684 98.7751 54.8684 98.7751 54.9979 98.7751M54.7389 98.7751C54.7389 98.7751 54.8684 98.7751 54.9979 98.7751M54.9979 98.7751C55.3864 98.9046 55.7749 99.0341 56.1634 99.1636M56.1634 99.1636C56.5519 99.2931 56.8109 99.4226 57.0699 99.6816M56.1634 99.1636C56.4224 99.2931 56.8109 99.4226 57.0699 99.6816M57.0699 99.6816C57.3288 99.8111 57.4583 99.9406 57.5878 100.2M57.7173 100.2C57.8468 100.329 57.8468 100.329 57.9763 100.459C58.1058 100.588 58.2353 100.847 58.2353 100.977M43.9908 133.61C44.1203 133.61 44.6382 133.61 45.2857 133.61M92.2928 155.753C92.4223 155.753 92.5517 155.753 92.6812 155.624C92.5517 155.624 92.4223 155.753 92.2928 155.753ZM92.2928 155.753C92.2928 155.883 92.2928 155.883 92.2928 155.753ZM92.2928 155.753C92.1633 155.883 92.0338 155.883 92.0338 156.012M92.2928 155.753C92.1633 155.883 92.1633 155.883 92.0338 156.012M92.0338 156.012C91.7748 156.142 91.5158 156.271 91.3863 156.401C91.5158 156.401 91.9043 156.142 92.0338 156.012ZM95.7892 184.113C95.7892 184.242 95.7892 184.242 95.7892 184.242M83.746 44.3868C85.3 44.3868 86.9834 44.9048 88.4079 46.0702C92.2928 49.3076 91.6453 52.6745 91.6453 52.6745L92.4223 52.4155C89.7028 54.2285 84.782 57.9839 84.782 57.9839C84.9115 57.2069 85.9475 55.394 85.9475 55.394C82.7101 57.0774 80.6381 58.8903 80.6381 58.8903C80.6381 58.8903 77.9187 57.4659 77.6597 52.804C77.4007 48.1422 81.2856 46.0702 81.2856 46.0702C80.7676 45.5523 79.0842 45.1638 79.0842 45.1638C79.0842 45.1638 81.1561 44.2573 83.746 44.3868ZM117.026 55.394C122.206 56.0414 124.796 61.4803 126.35 64.4587C127.904 67.4371 128.811 67.5666 128.811 67.5666C132.437 67.9551 135.415 62.1277 135.415 62.1277C135.285 65.4946 133.472 67.8256 133.472 67.8256C139.429 63.1637 140.465 67.5666 140.465 67.5666C140.465 67.5666 138.652 65.4946 135.285 69.6385C131.271 74.5594 129.588 73.2644 129.588 73.2644C129.976 73.2644 130.494 72.4874 130.494 72.4874C124.149 72.7464 118.71 63.4227 118.71 63.4227C118.71 63.4227 116.12 59.6673 114.048 58.3724C111.976 57.0774 105.242 57.8544 105.242 57.8544C106.667 56.9479 109.904 56.3004 109.904 56.3004C116.897 55.0055 120.523 61.2213 120.523 61.2213L123.89 65.3651C120.264 56.4299 117.026 55.394 117.026 55.394ZM106.149 64.0702C106.149 64.0702 114.825 63.1637 116.638 72.4874C116.638 72.4874 115.861 71.4514 114.825 70.4155C114.178 71.8399 112.753 72.6169 111.199 72.4874C109.257 72.2284 107.832 70.545 107.962 68.6025C108.091 67.9551 108.35 67.3076 108.739 66.7896C107.314 66.0126 104.983 65.6241 104.983 65.6241C104.983 65.6241 106.408 65.2356 107.962 65.3651C107.314 64.8472 106.796 64.4587 106.149 64.0702ZM124.667 72.2284C125.314 72.2284 126.091 72.4874 126.739 72.8759L129.329 74.8183L128.811 75.0773C128.811 75.0773 126.609 73.6529 124.796 73.5234C122.983 73.3939 121.688 73.6529 121.041 73.7824L120.782 73.3939C120.782 73.3939 122.724 72.0989 124.667 72.2284ZM126.35 75.2068C127.127 75.2068 128.034 75.5953 128.94 76.5018L128.552 76.7608C128.552 76.7608 126.091 75.7248 124.408 76.2428L124.149 75.8543C124.149 75.8543 125.055 75.2068 126.35 75.2068ZM116.12 75.2068C116.12 75.2068 116.508 76.8903 111.976 80.5162C108.609 83.2356 107.703 84.66 107.703 84.66C108.091 84.401 110.293 83.7536 110.293 83.7536C105.89 88.4154 105.113 95.6672 104.983 96.9622C104.854 99.5521 105.242 101.365 105.242 101.365C100.451 95.5377 102.264 89.4514 102.264 89.4514L100.192 90.7463C100.063 83.1061 107.055 79.7392 107.055 79.7392L105.76 79.2212C107.573 78.9622 109.127 78.4442 110.293 77.9262C109.257 77.7968 109.127 77.5378 109.127 77.5378C113.919 76.2428 116.12 75.2068 116.12 75.2068ZM36.739 79.4802C36.739 79.4802 22.2354 88.9334 17.4441 98.2571L21.7175 97.2211C21.7175 97.2211 14.5952 106.933 17.7031 113.667C17.7031 113.667 19.1275 115.61 19.775 115.998C20.4225 116.387 22.3649 118.847 23.0124 120.401L22.8829 119.365C22.1059 117.423 21.9764 115.869 21.9764 115.869C26.8973 124.156 34.7965 124.415 34.7965 124.415L30.7822 125.322C30.7822 125.322 30.6527 125.322 30.3937 125.451C39.3289 130.761 46.9692 129.725 46.9692 129.725C49.3001 128.948 50.9835 128.43 50.7245 126.746C50.5951 126.099 50.2066 124.674 49.6886 124.156C52.2785 123.509 54.0914 121.825 53.8325 120.012C53.703 119.235 53.185 118.588 52.408 117.941C54.7389 117.164 56.1634 115.61 55.9044 113.926C55.6454 112.761 54.6094 111.725 53.0555 111.207C54.4799 110.3 55.2569 109.135 54.9979 107.84C54.7389 106.415 53.444 105.379 51.5015 104.861C52.7965 104.084 53.444 102.919 53.185 101.754C52.926 100.07 50.854 98.7751 48.3936 98.5161C43.9908 98.9046 37.775 100.329 28.5807 103.696C28.5807 103.696 33.8901 99.6816 36.8685 97.9981V95.9262C33.3721 97.8686 32.9836 98.5161 32.9836 98.5161C33.7606 97.4801 34.1491 96.3147 36.8685 94.3722V92.6888C32.4656 96.1852 28.7102 99.9406 28.7102 99.9406C31.0412 95.6672 33.8901 91.2643 36.8685 87.8974V86.0845C36.8685 86.0845 31.4297 89.8399 27.1563 93.8543C27.1563 93.8543 31.9476 86.6025 36.739 81.4226V79.4802ZM116.379 90.4874C116.379 90.4874 119.487 90.8758 120.911 91.1348C122.206 91.5233 126.868 92.3003 128.681 90.8758C128.681 90.8758 128.552 92.1708 130.494 93.5953C130.494 93.5953 132.178 94.8902 132.307 95.2787C132.307 95.2787 132.178 95.7967 130.106 98.7751C127.904 101.754 127.775 104.473 127.386 105.897C126.998 107.451 125.703 110.818 125.703 110.818C125.703 110.818 124.408 114.056 119.487 113.667C114.566 113.279 112.235 111.595 112.235 111.595C112.365 112.502 113.789 113.667 113.789 113.667C110.034 112.761 109.775 111.336 109.904 105.509C110.034 99.6816 108.48 94.5017 108.48 94.5017C107.703 94.8902 106.926 97.0917 106.926 97.0917C106.926 97.0917 104.854 90.0989 116.379 90.4874ZM164.293 100.07C164.293 100.07 164.422 100.2 164.552 100.329H164.81C164.552 100.2 164.422 100.07 164.293 100.07ZM164.552 100.2C165.846 101.365 171.674 106.933 174.393 115.739C174.393 115.739 167.4 106.286 156.523 103.307C156.523 103.307 169.731 110.3 168.825 125.322C168.825 125.322 165.846 119.106 162.609 116.775C162.609 116.775 169.731 131.02 158.595 142.545C158.595 142.545 163.645 127.912 155.746 117.293C155.746 117.293 158.077 124.933 154.321 131.538C154.321 131.538 155.616 121.048 149.789 115.092C149.789 115.092 149.271 115.869 148.365 116.775V116.905C163.516 149.279 134.12 155.624 134.12 155.624L134.379 154.07C133.213 154.717 125.962 156.789 125.962 156.789C125.962 156.789 120.652 154.329 108.35 153.811C104.465 153.681 101.487 153.681 99.156 153.94C99.2855 153.94 99.415 153.94 99.674 153.94C99.8035 153.94 100.063 154.07 100.192 154.07C99.0265 154.329 97.7316 154.976 97.2136 156.142C96.6956 157.178 96.9546 158.861 97.9906 159.509C96.5661 159.768 94.7532 160.545 94.2352 161.969C93.7172 163.264 94.4942 164.818 95.6597 165.336C94.4942 165.854 92.5518 167.019 92.9402 168.573C93.3287 170.127 95.2712 171.034 96.5661 171.422C95.6597 171.94 95.5302 172.976 95.6597 173.883C95.6597 174.53 96.1776 175.178 96.6956 175.566C98.1201 176.861 100.192 177.379 102.005 177.509C100.969 178.415 100.71 180.099 101.616 181.264C102.523 182.3 104.206 182.43 105.501 182.559C132.048 181.264 139.3 166.372 139.3 166.372C139.3 167.537 139.17 168.832 139.17 169.998C139.041 171.163 138.911 172.329 138.782 173.494C138.782 173.753 138.652 173.883 138.782 174.012C147.329 171.293 148.106 166.501 151.472 162.099L150.307 166.501C156.652 164.041 155.487 160.156 161.573 150.962C161.573 150.962 162.35 155.883 158.595 162.099C163.516 156.789 168.048 149.797 169.472 141.379C169.472 141.379 170.767 149.408 169.472 156.012C167.659 157.825 166.364 165.077 155.228 171.422C196.796 151.609 177.501 112.89 177.501 112.89C173.098 105.897 164.552 100.329 164.552 100.2ZM175.429 119.624C175.429 119.624 178.019 123.509 179.962 129.725C179.832 135.811 178.537 143.063 174.652 150.185C174.523 150.315 174.523 150.444 174.393 150.444L174.264 150.573C174.005 150.962 173.746 151.221 173.487 151.609C176.595 145.264 179.314 134.645 175.429 119.624ZM97.3431 154.199C96.9546 154.329 96.5661 154.329 96.0481 154.458C95.7892 154.458 95.6597 154.588 95.4007 154.588C96.0481 154.458 96.6956 154.329 97.3431 154.199ZM93.9762 155.106C93.7172 155.235 93.5877 155.235 93.3287 155.365C93.0697 155.494 92.8107 155.624 92.6812 155.753C93.0697 155.365 93.4582 155.235 93.9762 155.106ZM91.5158 156.401C91.2568 156.66 90.9978 156.919 90.9978 157.178C91.1273 156.919 91.3863 156.53 91.5158 156.401ZM87.6309 164.041C87.5014 164.3 87.5014 164.43 87.5014 164.43C87.5014 164.3 87.5014 164.171 87.6309 164.041ZM88.7964 167.926C88.9259 168.055 89.0554 168.055 89.0554 168.055C88.9259 168.055 88.7964 168.055 88.7964 167.926ZM86.4654 170.775C86.4654 170.904 86.4654 170.904 86.4654 170.904C86.4654 170.904 86.4654 170.775 86.4654 170.775ZM90.0913 174.919C90.3503 175.048 90.4798 175.048 90.4798 175.048C90.3503 175.048 90.2208 174.919 90.0913 174.919ZM89.9618 175.825C89.8323 175.955 89.8323 176.214 89.8323 176.343C89.8323 176.214 89.8323 176.084 89.9618 175.825ZM89.7028 177.638C89.7028 177.768 89.7028 177.897 89.7028 177.897C89.7028 177.768 89.7028 177.638 89.7028 177.638ZM96.4366 181.912C96.8251 181.912 97.0841 181.912 97.0841 181.912C96.9546 181.912 96.6956 181.912 96.4366 181.912Z" stroke="#89572E" stroke-width="1.73637" stroke-miterlimit="8.1644"/>
<path d="M143.705 51.25C140.985 51.25 138.654 52.6745 137.359 54.7464L139.431 56.3003C139.431 56.3003 143.705 50.3435 149.273 56.4298H148.237C148.237 56.4298 150.05 60.3147 144.741 63.2931C144.741 63.2931 145.518 64.8471 145.906 65.883C148.885 64.9766 151.086 61.9982 151.086 58.7608C151.215 54.6169 147.849 51.25 143.705 51.25ZM117.029 55.3939C117.029 55.3939 120.266 56.4298 124.021 65.3651L120.654 61.2212C120.654 61.2212 117.029 54.8759 110.036 56.3003C110.036 56.3003 106.669 56.9478 105.374 57.8543C105.374 57.8543 111.978 57.0773 114.18 58.3723C116.252 59.6672 118.841 63.4226 118.841 63.4226C118.841 63.4226 124.151 72.7463 130.626 72.4873C130.626 72.4873 130.108 73.2643 129.719 73.2643C129.719 73.2643 131.403 74.4298 135.417 69.6384C138.784 65.4946 140.597 67.5665 140.597 67.5665C140.597 67.5665 139.69 63.1636 133.604 67.8255C133.604 67.8255 135.417 65.4946 135.546 62.1277C135.546 62.1277 132.568 67.955 128.942 67.5665C128.942 67.5665 128.036 67.5665 126.482 64.4586C124.798 61.4802 122.208 56.0414 117.029 55.3939ZM100.583 59.0198C98.3811 59.0198 89.1869 59.4082 84.5251 68.473L86.7265 67.696C84.1366 73.2643 83.2301 80.1276 84.3956 87.2499C84.9136 90.4873 85.9495 93.4657 87.2445 96.3146C85.4315 95.0196 84.1366 92.9477 84.1366 92.9477C78.8272 85.5664 81.2877 73.9118 81.2877 73.9118L78.1798 75.7247C77.1438 69.7679 80.5107 63.1636 81.4172 61.6097C81.5467 61.3507 81.5467 61.3507 81.5467 61.3507C71.964 71.8399 73.7769 80.3866 73.7769 80.3866C74.5539 79.7391 75.9783 78.7031 75.9783 78.7031C76.3668 80.1276 76.3668 82.1995 75.9783 89.0628C75.5898 96.0556 78.6977 98.775 78.6977 98.775C79.0862 97.7391 80.1222 96.0556 80.1222 96.0556C80.1222 96.0556 81.6762 100.458 83.7481 102.012C85.82 103.566 87.7625 106.286 87.7625 106.286C87.892 105.509 89.1869 103.696 89.1869 103.696C91.6473 107.322 96.0502 108.746 99.6761 109.523C103.302 110.3 104.856 112.761 104.856 112.761C104.856 112.631 104.856 112.631 104.856 112.502C104.208 110.43 103.043 107.581 100.453 106.156C96.1797 103.825 93.9783 98.3865 93.9783 98.3865L93.0718 101.883C89.9639 96.9621 88.0215 90.7463 88.0215 83.883C88.0215 76.6312 90.0934 70.0269 93.5898 65.1061C93.5898 65.1061 91.9063 64.8471 90.6114 64.8471C90.6114 64.8471 92.2948 62.5161 97.0862 62.1277C97.0862 62.1277 96.0502 64.1996 96.3092 66.0125C96.3092 66.0125 98.1221 64.9766 98.8991 65.1061C98.8991 65.1061 94.1078 71.3219 103.561 76.7607C103.561 76.7607 95.9207 68.732 103.69 61.6097C103.69 61.6097 100.453 61.7392 99.2876 62.7751C99.2876 62.7751 100.194 60.1852 100.842 59.0198C100.971 59.1493 100.842 59.0198 100.583 59.0198ZM141.244 73.2643C141.244 73.5233 141.892 77.6672 138.654 81.0341C138.654 81.0341 141.633 80.9046 142.798 78.3147C143.834 75.8542 141.503 73.5233 141.244 73.2643ZM110.165 77.9262C109 78.3147 107.316 78.8326 105.633 79.2211L106.928 79.7391C106.928 79.7391 100.065 83.106 100.065 90.7463L102.137 89.7103C102.137 89.7103 100.324 95.7966 105.115 101.624C105.115 101.624 104.726 99.811 104.856 97.2211C104.856 97.3506 104.856 97.4801 104.856 97.4801C102.913 93.7247 104.726 88.1564 104.726 88.1564C104.079 88.4153 102.913 89.3218 102.913 89.3218C102.913 85.8254 107.057 81.8111 109.129 80.3866C111.201 78.9621 111.719 78.3147 111.719 78.3147C111.59 78.3147 111.46 78.3147 111.201 78.3147C111.072 78.3147 110.942 78.3147 110.813 78.3147C110.683 78.3147 110.554 78.3147 110.554 78.3147C110.424 77.9262 110.295 77.9262 110.165 77.9262ZM151.215 81.6816C155.359 85.1779 159.244 90.4873 159.244 90.4873C156.136 87.7679 150.568 85.0484 150.568 85.0484C156.136 89.1923 161.575 96.9621 161.575 96.9621C155.618 91.7822 148.496 88.2858 148.496 88.2858C147.59 92.1707 145.129 95.2786 142.28 99.552C139.172 104.084 137.618 110.171 137.618 110.171L136.323 107.969C133.863 113.667 129.201 117.293 124.41 119.494C114.05 125.063 104.079 116.516 104.079 116.516V118.717C104.079 118.717 101.23 113.408 94.4963 112.502C90.8704 111.984 88.6689 109.782 88.151 109.394L87.7625 111.466C87.7625 111.466 86.2085 110.818 85.9495 110.171V134.775H116.899V132.055C111.978 131.538 108.611 128.948 108.611 128.948C114.827 129.207 117.288 128.041 117.676 127.912C117.029 127.782 107.834 125.581 102.784 120.919C120.654 128.689 134.252 117.94 134.252 117.94C133.863 119.235 132.568 122.214 132.568 122.214C140.467 120.53 143.187 116.775 143.187 116.775C143.057 118.717 141.374 121.437 141.374 121.437C144.482 120.271 146.813 118.458 148.108 117.034C149.014 115.998 149.532 115.351 149.532 115.351C155.359 121.307 154.064 131.796 154.064 131.796C157.82 125.192 155.489 117.552 155.489 117.552C163.518 128.171 158.338 142.804 158.338 142.804C169.604 131.279 162.352 117.034 162.352 117.034C165.59 119.494 168.568 125.581 168.568 125.581C169.345 110.559 156.266 103.566 156.266 103.566C167.014 106.545 174.136 115.998 174.136 115.998C171.546 107.192 165.59 101.494 164.424 100.458C164.295 100.329 164.165 100.199 164.165 100.199C164.295 100.329 164.424 100.329 164.683 100.458H164.424C164.554 100.458 173.1 106.027 177.503 113.667L178.021 113.797L181.647 114.833C178.928 109.005 172.841 100.847 172.841 100.847C161.834 86.2139 151.215 81.6816 151.215 81.6816ZM36.8706 88.0269C33.8921 91.3938 31.0432 95.7966 28.7123 100.07C28.7123 100.07 32.4677 96.3146 36.8706 92.8182V88.0269ZM36.8706 94.3722C34.0216 96.3146 33.7626 97.3506 32.9857 98.516C32.9857 98.516 33.5037 97.8686 36.8706 95.9261V94.3722ZM51.1151 98.3865C50.3381 98.3865 49.4317 98.3865 48.3957 98.516C50.8561 98.9045 52.9281 100.07 53.187 101.753C53.446 102.919 52.6691 104.084 51.5036 104.861C53.3165 105.379 54.741 106.545 55 107.84C55.259 109.135 54.3525 110.3 53.0575 111.207C54.6115 111.854 55.6475 112.761 55.9065 113.926C56.1655 115.61 54.741 117.163 52.4101 117.94C53.187 118.458 53.705 119.235 53.8345 120.012C54.0935 121.825 52.4101 123.509 49.6907 124.156C50.3381 124.674 50.5971 126.099 50.7266 126.746C50.9856 128.43 49.3022 128.948 46.9712 129.725C46.9712 129.725 39.331 130.761 30.3958 125.451C30.5252 125.451 30.7842 125.322 30.7842 125.322L34.7986 124.415C34.7986 124.415 26.8994 124.156 21.9785 115.868C21.9785 115.868 22.108 117.552 22.885 119.365L23.0145 120.401C23.0145 120.401 29.8778 132.444 43.9928 133.35C44.1223 133.35 44.7698 133.35 45.6763 133.35C48.2662 133.35 53.3165 132.962 55.259 130.243L53.187 129.595L55.9065 128.43C55.9065 128.43 55.9065 127.264 54.741 126.228C54.741 126.228 57.4604 125.451 58.4964 123.768L56.1655 122.991L58.8849 121.825C58.8849 121.696 58.7554 120.53 57.4604 119.624C57.4604 119.624 59.6618 119.106 60.6978 117.034L58.1079 115.998L60.8273 114.962C60.8273 114.962 60.6978 113.667 58.2374 112.372C58.2374 112.372 59.7913 111.466 60.1798 110.171L56.6834 109.135L59.9208 107.84C59.9208 107.84 59.4029 106.545 56.8129 105.638C56.8129 105.638 58.1079 104.602 58.3669 103.696L55.259 102.919L58.1079 101.365V101.235C57.9784 100.329 56.6834 98.3865 51.1151 98.3865ZM175.431 119.624C179.316 134.645 176.597 145.264 173.618 151.609C173.877 151.221 174.136 150.962 174.395 150.573L174.525 150.444C174.654 150.314 174.654 150.185 174.784 150.055C178.669 142.933 179.964 135.811 180.093 129.595C178.021 123.509 175.431 119.624 175.431 119.624ZM169.474 141.897C168.05 150.185 163.518 157.178 158.597 162.617C162.352 156.401 161.575 151.48 161.575 151.48C155.489 160.674 156.654 164.559 150.309 167.019L151.474 162.617C147.978 167.019 147.331 171.811 138.784 174.53C138.784 174.401 138.784 174.271 138.784 174.012C138.913 172.847 139.043 171.681 139.172 170.516C139.302 169.35 139.302 168.055 139.302 166.89C139.302 166.89 132.05 181.782 105.503 183.077C104.208 182.947 102.525 182.818 101.619 181.782C100.712 180.616 100.971 178.933 102.007 178.027C100.194 177.897 98.1221 177.25 96.6977 176.084C96.1797 175.696 95.6617 175.048 95.6617 174.401C95.6617 173.494 95.7912 172.458 96.5682 171.94C95.2732 171.422 93.3308 170.516 92.9423 169.091C92.5538 167.537 94.3668 166.372 95.6617 165.854C94.4963 165.206 93.7193 163.782 94.2373 162.487C94.7552 161.063 96.6977 160.286 97.9926 160.027C97.0862 159.379 96.8272 157.696 97.2157 156.66C97.7337 155.494 99.0286 154.847 100.194 154.588C100.065 154.588 99.8056 154.458 99.6761 154.458C99.5466 154.458 99.4171 154.329 99.1581 154.329C99.0286 154.329 98.7696 154.329 98.6401 154.329C97.7337 154.458 96.9567 154.588 96.1797 154.717C95.2732 154.847 94.3668 155.106 93.4603 155.494C93.0718 155.624 92.6833 155.883 92.2948 156.142C92.1653 156.271 91.6473 156.789 91.5179 156.789C91.5179 156.789 91.1294 157.307 90.9999 157.566C90.9999 157.696 90.8704 157.825 90.8704 157.825C91.1294 157.955 91.5178 158.084 91.7768 158.214C92.5538 158.473 93.3308 158.732 94.1078 159.12L90.4819 160.027C90.4819 160.156 90.4819 160.286 90.4819 160.415V160.545C90.4819 160.674 90.4819 160.674 90.4819 160.804C90.4819 160.933 90.6114 160.933 90.6114 161.063C90.6114 161.063 90.6114 161.192 90.7409 161.192C90.7409 161.192 90.7409 161.322 90.8704 161.322C90.8704 161.451 90.9999 161.581 91.1294 161.71C90.6114 161.84 89.9639 162.099 89.4459 162.487C89.3164 162.617 89.1869 162.617 89.0574 162.746C88.5394 163.135 88.0215 163.782 87.7625 164.429C87.7625 164.559 87.633 164.688 87.633 164.818L90.8704 166.113L88.151 167.278C88.151 167.408 88.2804 167.537 88.2804 167.667C88.2804 167.667 88.2804 167.796 88.4099 167.796C88.4099 167.926 88.5394 167.926 88.5394 167.926L88.6689 168.055C88.7984 168.185 88.7984 168.185 88.9279 168.314C88.9279 168.314 89.0574 168.314 89.0574 168.444C89.1869 168.573 89.3164 168.573 89.3164 168.573C88.4099 169.091 86.9855 169.998 86.7265 171.163V171.293L90.3524 172.458L87.7625 173.624L87.5035 173.753C87.633 173.883 87.7625 174.012 87.892 174.142C87.892 174.142 88.0215 174.142 88.0215 174.271C88.6689 174.789 89.4459 175.178 90.2229 175.437C90.3524 175.437 90.4819 175.566 90.6114 175.566C90.4819 175.696 90.4819 175.696 90.3524 175.825C90.0934 176.084 89.9639 176.473 89.8344 176.861C89.8344 176.991 89.8344 177.12 89.8344 177.12V177.25V177.379C89.8344 177.509 89.8344 177.638 89.8344 177.638C89.8344 177.768 89.8344 177.768 89.8344 177.897C89.8344 178.027 89.8344 178.156 89.8344 178.156L93.5898 178.933L91.1294 180.098C91.2589 180.228 91.5178 180.357 91.6473 180.487C91.7768 180.616 91.9063 180.616 91.9063 180.746C92.0358 180.746 92.0358 180.875 92.1653 180.875C93.4603 181.652 94.8847 182.041 96.3092 182.17C96.5682 182.17 96.6977 182.17 96.9567 182.17L96.8272 182.3C96.8272 182.3 96.8272 182.429 96.6977 182.429L96.5682 182.559C96.5682 182.559 96.5682 182.688 96.4387 182.688C95.9207 183.336 95.6617 183.854 95.6617 184.372V184.501L99.2876 184.631L97.0862 186.573C101.36 187.998 105.892 188.127 110.424 187.739C119.877 186.832 128.942 183.336 137.23 178.674L137.748 178.415C145.388 176.602 150.956 174.401 155.23 171.94C166.367 165.595 167.532 158.343 169.474 156.53C170.769 149.796 169.474 141.897 169.474 141.897Z" fill="#5E3920"/>
<path d="M164.424 100.458C165.59 101.494 171.546 107.192 174.136 115.998C174.136 115.998 167.014 106.545 156.266 103.566C156.266 103.566 169.345 110.559 168.568 125.581C168.568 125.581 165.59 119.494 162.352 117.034C162.352 117.034 169.604 131.279 158.338 142.804C158.338 142.804 163.518 128.171 155.489 117.552C155.489 117.552 157.82 125.192 154.064 131.796C154.064 131.796 155.359 121.307 149.532 115.351C149.532 115.351 149.014 115.998 148.108 117.034C146.813 118.458 144.482 120.271 141.374 121.437C141.374 121.437 143.057 118.717 143.187 116.775C143.187 116.775 140.467 120.53 132.568 122.214C132.568 122.214 133.863 119.235 134.252 117.94C134.252 117.94 120.654 128.689 102.784 120.919C107.834 125.581 117.029 127.782 117.676 127.912C117.288 128.041 114.827 129.207 108.611 128.948C108.611 128.948 111.978 131.538 116.899 132.055V134.775H85.9495V110.171C86.2085 110.818 87.7625 111.466 87.7625 111.466L88.151 109.394C88.6689 109.782 90.8704 111.984 94.4963 112.502C101.23 113.408 104.079 118.717 104.079 118.717V116.516C104.079 116.516 114.05 125.063 124.41 119.494C129.201 117.293 133.863 113.667 136.323 107.969L137.618 110.171C137.618 110.171 139.172 104.084 142.28 99.552C145.129 95.2786 147.59 92.1707 148.496 88.2858C148.496 88.2858 155.618 91.7822 161.575 96.9621C161.575 96.9621 156.136 89.1923 150.568 85.0484C150.568 85.0484 156.136 87.7679 159.244 90.4873C159.244 90.4873 155.359 85.1779 151.215 81.6816C151.215 81.6816 161.834 86.2139 172.841 100.847C172.841 100.847 178.928 109.005 181.647 114.833L178.021 113.797L177.503 113.667C173.1 106.027 164.554 100.458 164.424 100.458ZM164.424 100.458C164.295 100.329 164.165 100.199 164.165 100.199C164.295 100.329 164.424 100.329 164.683 100.458H164.424ZM143.705 51.25C140.985 51.25 138.654 52.6745 137.359 54.7464L139.431 56.3003C139.431 56.3003 143.705 50.3435 149.273 56.4298H148.237C148.237 56.4298 150.05 60.3147 144.741 63.2931C144.741 63.2931 145.518 64.8471 145.906 65.883C148.885 64.9766 151.086 61.9982 151.086 58.7608C151.215 54.6169 147.849 51.25 143.705 51.25ZM117.029 55.3939C117.029 55.3939 120.266 56.4298 124.021 65.3651L120.654 61.2212C120.654 61.2212 117.029 54.8759 110.036 56.3003C110.036 56.3003 106.669 56.9478 105.374 57.8543C105.374 57.8543 111.978 57.0773 114.18 58.3723C116.252 59.6672 118.842 63.4226 118.842 63.4226C118.842 63.4226 124.151 72.7463 130.626 72.4873C130.626 72.4873 130.108 73.2643 129.719 73.2643C129.719 73.2643 131.403 74.4298 135.417 69.6384C138.784 65.4946 140.597 67.5665 140.597 67.5665C140.597 67.5665 139.69 63.1636 133.604 67.8255C133.604 67.8255 135.417 65.4946 135.546 62.1277C135.546 62.1277 132.568 67.955 128.942 67.5665C128.942 67.5665 128.036 67.5665 126.482 64.4586C124.798 61.4802 122.208 56.0414 117.029 55.3939ZM100.583 59.0198C98.3811 59.0198 89.1869 59.4082 84.5251 68.473L86.7265 67.696C84.1366 73.2643 83.2301 80.1276 84.3956 87.2499C84.9136 90.4873 85.9495 93.4657 87.2445 96.3146C85.4315 95.0196 84.1366 92.9477 84.1366 92.9477C78.8272 85.5664 81.2877 73.9118 81.2877 73.9118L78.1798 75.7247C77.1438 69.7679 80.5107 63.1636 81.4172 61.6097C81.5467 61.3507 81.5467 61.3507 81.5467 61.3507C71.964 71.8399 73.7769 80.3866 73.7769 80.3866C74.5539 79.7391 75.9783 78.7031 75.9783 78.7031C76.3668 80.1276 76.3668 82.1995 75.9783 89.0628C75.5898 96.0556 78.6977 98.775 78.6977 98.775C79.0862 97.7391 80.1222 96.0556 80.1222 96.0556C80.1222 96.0556 81.6762 100.458 83.7481 102.012C85.82 103.566 87.7625 106.286 87.7625 106.286C87.892 105.509 89.1869 103.696 89.1869 103.696C91.6473 107.322 96.0502 108.746 99.6761 109.523C103.302 110.3 104.856 112.761 104.856 112.761C104.856 112.631 104.856 112.631 104.856 112.502C104.208 110.43 103.043 107.581 100.453 106.156C96.1797 103.825 93.9783 98.3865 93.9783 98.3865L93.0718 101.883C89.9639 96.9621 88.0215 90.7463 88.0215 83.883C88.0215 76.6312 90.0934 70.0269 93.5898 65.1061C93.5898 65.1061 91.9063 64.8471 90.6114 64.8471C90.6114 64.8471 92.2948 62.5161 97.0862 62.1277C97.0862 62.1277 96.0502 64.1996 96.3092 66.0125C96.3092 66.0125 98.1221 64.9766 98.8991 65.1061C98.8991 65.1061 94.1078 71.3219 103.561 76.7607C103.561 76.7607 95.9207 68.732 103.69 61.6097C103.69 61.6097 100.453 61.7392 99.2876 62.7751C99.2876 62.7751 100.194 60.1852 100.842 59.0198C100.971 59.1493 100.842 59.0198 100.583 59.0198ZM141.244 73.2643C141.244 73.5233 141.892 77.6672 138.654 81.0341C138.654 81.0341 141.633 80.9046 142.798 78.3147C143.834 75.8542 141.503 73.5233 141.244 73.2643ZM110.165 77.9262C109 78.3147 107.316 78.8326 105.633 79.2211L106.928 79.7391C106.928 79.7391 100.065 83.106 100.065 90.7463L102.137 89.7103C102.137 89.7103 100.324 95.7966 105.115 101.624C105.115 101.624 104.726 99.811 104.856 97.2211C104.856 97.3506 104.856 97.4801 104.856 97.4801C102.913 93.7247 104.726 88.1564 104.726 88.1564C104.079 88.4153 102.913 89.3218 102.913 89.3218C102.913 85.8254 107.057 81.8111 109.129 80.3866C111.201 78.9621 111.719 78.3147 111.719 78.3147C111.59 78.3147 111.46 78.3147 111.201 78.3147C111.072 78.3147 110.942 78.3147 110.813 78.3147C110.683 78.3147 110.554 78.3147 110.554 78.3147C110.424 77.9262 110.295 77.9262 110.165 77.9262ZM36.8706 88.0269C33.8921 91.3938 31.0432 95.7966 28.7123 100.07C28.7123 100.07 32.4677 96.3146 36.8706 92.8182V88.0269ZM36.8706 94.3722C34.0216 96.3146 33.7626 97.3506 32.9857 98.516C32.9857 98.516 33.5037 97.8686 36.8706 95.9261V94.3722ZM51.1151 98.3865C50.3381 98.3865 49.4317 98.3865 48.3957 98.516C50.8561 98.9045 52.9281 100.07 53.187 101.753C53.446 102.919 52.6691 104.084 51.5036 104.861C53.3165 105.379 54.741 106.545 55 107.84C55.259 109.135 54.3525 110.3 53.0575 111.207C54.6115 111.854 55.6475 112.761 55.9065 113.926C56.1655 115.61 54.741 117.163 52.4101 117.94C53.187 118.458 53.705 119.235 53.8345 120.012C54.0935 121.825 52.4101 123.509 49.6907 124.156C50.3381 124.674 50.5971 126.099 50.7266 126.746C50.9856 128.43 49.3022 128.948 46.9712 129.725C46.9712 129.725 39.331 130.761 30.3958 125.451C30.5252 125.451 30.7842 125.322 30.7842 125.322L34.7986 124.415C34.7986 124.415 26.8994 124.156 21.9785 115.868C21.9785 115.868 22.108 117.552 22.885 119.365L23.0145 120.401C23.0145 120.401 29.8778 132.444 43.9928 133.35C44.1223 133.35 44.7698 133.35 45.6763 133.35C48.2662 133.35 53.3165 132.962 55.259 130.243L53.187 129.595L55.9065 128.43C55.9065 128.43 55.9065 127.264 54.741 126.228C54.741 126.228 57.4604 125.451 58.4964 123.768L56.1655 122.991L58.8849 121.825C58.8849 121.696 58.7554 120.53 57.4604 119.624C57.4604 119.624 59.6618 119.106 60.6978 117.034L58.1079 115.998L60.8273 114.962C60.8273 114.962 60.6978 113.667 58.2374 112.372C58.2374 112.372 59.7913 111.466 60.1798 110.171L56.6834 109.135L59.9208 107.84C59.9208 107.84 59.4029 106.545 56.8129 105.638C56.8129 105.638 58.1079 104.602 58.3669 103.696L55.259 102.919L58.1079 101.365V101.235C57.9784 100.329 56.6834 98.3865 51.1151 98.3865ZM175.431 119.624C179.316 134.645 176.597 145.264 173.618 151.609C173.877 151.221 174.136 150.962 174.395 150.573L174.525 150.444C174.654 150.314 174.654 150.185 174.784 150.055C178.669 142.933 179.964 135.811 180.093 129.595C178.021 123.509 175.431 119.624 175.431 119.624ZM169.474 141.897C168.05 150.185 163.518 157.178 158.597 162.617C162.352 156.401 161.575 151.48 161.575 151.48C155.489 160.674 156.654 164.559 150.309 167.019L151.474 162.617C147.978 167.019 147.331 171.811 138.784 174.53C138.784 174.401 138.784 174.271 138.784 174.012C138.913 172.847 139.043 171.681 139.172 170.516C139.302 169.35 139.302 168.055 139.302 166.89C139.302 166.89 132.05 181.782 105.503 183.077C104.208 182.947 102.525 182.818 101.619 181.782C100.712 180.616 100.971 178.933 102.007 178.027C100.194 177.897 98.1221 177.25 96.6977 176.084C96.1797 175.696 95.6617 175.048 95.6617 174.401C95.6617 173.494 95.7912 172.458 96.5682 171.94C95.2732 171.422 93.3308 170.516 92.9423 169.091C92.5538 167.537 94.3668 166.372 95.6617 165.854C94.4963 165.206 93.7193 163.782 94.2373 162.487C94.7552 161.063 96.6977 160.286 97.9926 160.027C97.0862 159.379 96.8272 157.696 97.2157 156.66C97.7337 155.494 99.0286 154.847 100.194 154.588C100.065 154.588 99.8056 154.458 99.6761 154.458C99.5466 154.458 99.4171 154.329 99.1581 154.329C99.0286 154.329 98.7696 154.329 98.6401 154.329C97.7337 154.458 96.9567 154.588 96.1797 154.717C95.2732 154.847 94.3668 155.106 93.4603 155.494C93.0718 155.624 92.6833 155.883 92.2948 156.142C92.1653 156.271 91.6473 156.789 91.5179 156.789C91.5179 156.789 91.1294 157.307 90.9999 157.566C90.9999 157.696 90.8704 157.825 90.8704 157.825C91.1294 157.955 91.5178 158.084 91.7768 158.214C92.5538 158.473 93.3308 158.732 94.1078 159.12L90.4819 160.027C90.4819 160.156 90.4819 160.286 90.4819 160.415V160.545C90.4819 160.674 90.4819 160.674 90.4819 160.804C90.4819 160.933 90.6114 160.933 90.6114 161.063C90.6114 161.063 90.6114 161.192 90.7409 161.192C90.7409 161.192 90.7409 161.322 90.8704 161.322C90.8704 161.451 90.9999 161.581 91.1294 161.71C90.6114 161.84 89.9639 162.099 89.4459 162.487C89.3164 162.617 89.1869 162.617 89.0574 162.746C88.5394 163.135 88.0215 163.782 87.7625 164.429C87.7625 164.559 87.633 164.688 87.633 164.818L90.8704 166.113L88.151 167.278C88.151 167.408 88.2805 167.537 88.2805 167.667C88.2805 167.667 88.2804 167.796 88.4099 167.796C88.4099 167.926 88.5394 167.926 88.5394 167.926L88.6689 168.055C88.7984 168.185 88.7984 168.185 88.9279 168.314C88.9279 168.314 89.0574 168.314 89.0574 168.444C89.1869 168.573 89.3164 168.573 89.3164 168.573C88.4099 169.091 86.9855 169.998 86.7265 171.163V171.293L90.3524 172.458L87.7625 173.624L87.5035 173.753C87.633 173.883 87.7625 174.012 87.892 174.142C87.892 174.142 88.0215 174.142 88.0215 174.271C88.6689 174.789 89.4459 175.178 90.2229 175.437C90.3524 175.437 90.4819 175.566 90.6114 175.566C90.4819 175.696 90.4819 175.696 90.3524 175.825C90.0934 176.084 89.9639 176.473 89.8344 176.861C89.8344 176.991 89.8344 177.12 89.8344 177.12V177.25V177.379C89.8344 177.509 89.8344 177.638 89.8344 177.638C89.8344 177.768 89.8344 177.768 89.8344 177.897C89.8344 178.027 89.8344 178.156 89.8344 178.156L93.5898 178.933L91.1294 180.098C91.2589 180.228 91.5178 180.357 91.6473 180.487C91.7768 180.616 91.9063 180.616 91.9063 180.746C92.0358 180.746 92.0358 180.875 92.1653 180.875C93.4603 181.652 94.8847 182.041 96.3092 182.17C96.5682 182.17 96.6977 182.17 96.9567 182.17L96.8272 182.3C96.8272 182.3 96.8272 182.429 96.6977 182.429L96.5682 182.559C96.5682 182.559 96.5682 182.688 96.4387 182.688C95.9207 183.336 95.6617 183.854 95.6617 184.372V184.501L99.2876 184.631L97.0862 186.573C101.36 187.998 105.892 188.127 110.424 187.739C119.877 186.832 128.942 183.336 137.23 178.674L137.748 178.415C145.388 176.602 150.957 174.401 155.23 171.94C166.367 165.595 167.532 158.343 169.474 156.53C170.769 149.796 169.474 141.897 169.474 141.897Z" stroke="#5E3920" stroke-width="1.73637" stroke-miterlimit="8.1644"/>
<path d="M63.4164 8L36.9992 32.4747V75.2084C36.9992 75.2084 14.0784 87.899 11.877 103.18L14.4669 102.662C14.4669 102.662 11.1 109.784 14.4669 115.223C17.8338 120.532 17.3158 118.59 20.2942 124.028C23.9201 130.892 34.2798 135.813 34.2798 135.813V149.669L61.6034 176.604H85.0422C85.0422 176.604 84.9127 177.122 85.4307 178.546C83.8767 178.676 81.5458 178.676 80.1213 178.158L79.8623 178.676C79.8623 178.676 82.8407 181.007 87.8911 181.654C88.7976 182.69 90.222 183.726 92.1645 184.633C92.1645 184.633 92.294 184.892 92.4234 185.409C90.8695 185.539 88.6681 185.539 87.2436 184.891L86.9846 185.409C86.9846 185.409 89.963 187.87 94.2364 188.258C109.776 199.525 140.078 181.784 140.078 181.784C140.078 181.784 195.632 171.683 184.366 119.755L188.121 121.05C188.121 121.05 178.538 90.6184 150.179 77.5393C150.179 77.5393 151.603 73.784 148.495 69.1221C148.495 69.1221 152.251 67.4387 153.546 65.1077H166.366V32.7337L139.948 8H63.4164ZM65.0998 11.8849H138.395L162.481 34.4172V60.5754H154.193C154.323 60.1869 154.452 59.1509 154.452 59.1509C154.452 59.1509 154.711 51.5106 147.459 48.2732C140.596 45.1653 135.028 50.9927 134.38 52.4171C134.38 52.4171 130.754 49.1797 124.927 49.4387C124.927 49.4387 123.761 48.5322 122.726 47.8848C122.078 47.3668 121.172 46.9783 121.172 46.9783V39.597H90.0925C89.0566 38.6905 87.7616 38.1726 87.7616 38.1726H87.8911C87.8911 38.1726 78.0494 35.1942 72.7401 45.2948C67.6897 54.8775 75.4595 62.1293 76.2365 62.6473C76.2365 62.6473 68.2077 71.971 71.3156 85.8271L72.9991 85.3091C72.9991 85.3091 73.1285 87.7695 72.8696 91.0069C72.6106 94.2443 74.1645 100.719 80.6393 104.863L80.8983 104.216V103.439C80.8983 103.439 81.5458 104.086 82.0638 104.604C82.0638 104.604 82.0638 104.604 82.1933 104.733C82.3228 104.863 82.4523 104.992 82.4523 104.992V138.791H121.301V124.546H146.682C146.682 124.546 147.071 125.064 147.2 125.971C147.2 125.971 154.452 143.194 137.359 150.446V148.762C137.359 148.762 131.92 151.741 126.092 152.777C126.092 152.777 89.8335 145.913 87.5026 156.661C87.5026 156.661 86.0781 156.791 82.5818 155.237L81.9343 155.755C81.9343 155.755 81.9343 158.215 86.7256 159.51C86.7256 159.51 84.3947 161.194 84.0062 164.172C84.0062 164.172 80.3803 164.172 78.4379 162.877L78.0494 163.266C78.0494 163.266 79.3444 165.985 83.6177 167.28C83.6177 167.28 82.8407 168.705 82.7113 170.388C81.1573 170.517 79.2149 170.388 77.9199 169.87L77.6609 170.388C77.6609 170.388 77.6609 170.388 77.7904 170.517C78.1789 170.776 79.0854 171.424 80.3803 171.942H63.2869L38.1646 147.208V146.043V136.848C38.1646 136.848 39.0711 136.978 39.7186 136.978V137.107C44.1215 137.755 56.4236 138.92 60.179 130.503C60.179 130.503 64.5818 130.374 66.6538 128.431L66.3948 127.913C66.3948 127.913 64.0638 128.69 60.5674 127.784C60.5674 127.784 63.0279 125.841 63.2869 123.251C63.2869 123.251 67.1717 122.992 69.1142 121.309L68.9847 120.791C68.9847 120.791 66.1358 121.438 63.2869 120.661C63.2869 120.661 64.7113 118.59 64.8408 116.518C64.8408 116.518 68.9847 116 70.5386 114.316L70.4091 113.798C70.4091 113.798 68.4667 114.316 64.9703 113.928C64.9703 113.928 64.7113 112.374 64.0638 111.856C64.0638 111.856 64.8408 109.913 64.7113 108.877C64.7113 108.877 69.5027 107.453 70.7976 104.733L70.2796 104.216C70.2796 104.216 68.9847 105.51 63.6753 105.899C63.6753 105.899 63.1574 104.733 62.3804 104.216C62.3804 104.216 62.6394 102.791 62.6394 102.144C62.6394 102.144 66.9127 100.46 67.8192 98.2587L67.6897 97.8702C67.6897 97.8702 65.3588 99.4242 62.1214 99.5536C62.1214 99.5536 60.4379 91.9134 42.438 96.4458V96.3163C42.438 96.3163 41.402 96.5752 41.0135 96.5752V34.2877L65.0998 11.8849ZM84.6537 41.7984C89.8335 41.7984 94.2364 45.6833 94.8839 50.7337L95.2724 50.6042C95.2724 50.6042 99.2867 47.6258 107.963 47.7553L107.445 46.9783C107.445 46.9783 122.984 46.4603 129.33 59.1509C129.33 59.1509 129.589 56.4315 127.517 53.3236C129.589 53.5826 134.769 54.748 139.301 59.7984C140.596 61.2228 141.891 63.0358 143.056 65.1077C143.056 65.1077 144.351 67.9566 144.61 68.9926C144.61 68.9926 145.517 71.3235 146.164 72.6185C146.941 74.1724 146.812 76.8919 146.164 78.7048C146.164 78.7048 144.869 82.5897 145.258 84.6616C145.646 86.7336 144.222 90.8774 142.797 92.5609C142.797 92.5609 138.265 98.7767 137.618 101.626L136.97 100.201C136.97 100.201 135.546 102.273 133.862 105.64C132.179 109.136 129.848 113.28 125.056 115.482C125.056 115.482 125.704 113.28 125.833 112.115C125.833 112.115 125.186 114.187 122.596 116.518C122.596 116.518 121.172 118.072 117.157 117.554C113.013 117.036 109.646 115.093 109.646 115.093C109.646 115.093 107.833 114.446 107.574 111.467C107.574 111.467 107.315 106.546 105.891 104.733C105.891 104.733 106.021 109.395 105.114 112.633C105.114 112.633 103.431 110.172 99.9342 109.395C96.3083 108.618 91.9055 107.194 89.445 103.568C89.445 103.568 88.1501 105.381 88.0206 106.158C88.0206 106.158 86.2076 103.439 84.0062 101.885C81.9343 100.331 80.3803 95.9278 80.3803 95.9278C80.3803 95.9278 79.3444 97.4817 78.9559 98.6472C78.9559 98.6472 75.848 95.9278 76.2365 88.935C76.6249 82.0717 76.6249 79.9998 76.2365 78.5753C76.2365 78.5753 74.812 79.4818 74.035 80.2588C74.035 80.2588 72.2221 71.712 81.8048 61.2228C81.8048 61.2228 81.6753 61.3523 81.6753 61.4818C82.1933 60.8344 82.8408 60.1869 83.4882 59.5394C83.4882 59.5394 81.9343 60.0574 80.3803 61.2228C76.8839 59.5394 74.553 56.043 74.553 51.8991C74.294 46.4603 78.9559 41.7984 84.6537 41.7984ZM94.4954 43.3524H117.157V45.8128C110.941 43.6114 104.467 44.2589 104.467 44.2589L104.855 45.2948C102.265 45.1653 97.3443 46.0718 97.3443 46.0718C96.6968 44.6474 94.4954 43.3524 94.4954 43.3524ZM83.7472 44.3884C81.1573 44.2589 78.9559 45.1653 78.9559 45.1653C78.9559 45.1653 80.6393 45.5538 81.1573 46.0718C81.1573 46.0718 77.1429 48.1438 77.5314 52.8056C77.7904 57.4675 80.6393 58.8919 80.6393 58.8919C80.6393 58.8919 82.7113 57.079 85.9486 55.3955C85.9486 55.3955 84.9127 57.2085 84.7832 57.9854C84.7832 57.9854 89.704 54.2301 92.4234 52.4171L91.6465 52.6761C91.6465 52.6761 92.4234 49.3092 88.5386 46.0718C86.9846 44.9064 85.3012 44.3884 83.7472 44.3884ZM143.704 51.2517C147.848 51.2517 151.215 54.6185 151.215 58.7624C151.215 62.1293 149.013 64.9782 146.035 65.8847C145.646 64.8487 144.869 63.2948 144.869 63.2948C150.179 60.3164 148.366 56.4315 148.366 56.4315H149.402C143.833 50.3452 139.56 56.302 139.56 56.302L137.488 54.748C138.654 52.6761 141.114 51.2517 143.704 51.2517ZM106.15 64.0718C106.798 64.4602 107.315 64.8487 107.963 65.2372C106.409 65.1077 104.985 65.4962 104.985 65.4962C104.985 65.4962 107.445 65.8847 108.74 66.6617C108.351 67.1797 108.092 67.8271 107.963 68.4746C107.704 70.4171 109.258 72.23 111.2 72.3595C112.754 72.489 114.179 71.5825 114.826 70.2876C115.862 71.3235 116.639 72.3595 116.639 72.3595C114.826 63.2948 106.15 64.0718 106.15 64.0718ZM110.423 67.6976C110.682 67.8271 111.071 68.0861 111.459 68.3451C111.2 68.6041 111.071 68.8631 111.2 69.1221C111.33 69.6401 111.718 69.8991 112.236 69.7696C112.495 69.7696 112.754 69.5106 112.884 69.2516C113.143 69.5106 113.531 69.7696 113.79 70.0286C113.531 70.4171 113.013 70.8055 112.495 70.935C111.33 71.194 110.294 70.4171 110.035 69.3811C109.905 68.8631 110.035 68.2156 110.423 67.6976ZM138.783 71.453C137.229 71.3235 135.287 71.712 133.474 73.3955L131.272 75.2084C131.272 75.2084 132.697 75.3379 133.215 76.3739L133.474 77.1509C133.474 77.1509 132.049 76.8919 131.272 77.2803C131.272 77.2803 133.603 77.9278 134.38 79.4818L134.639 80.2588C134.639 80.2588 132.826 80.3883 130.495 79.2228C128.164 78.0573 125.445 77.1509 122.855 79.8703C122.855 79.8703 121.819 81.0357 121.69 82.5897C121.69 82.5897 121.56 83.2372 122.596 84.1436L123.114 84.5321C123.114 84.5321 124.279 85.8271 126.481 84.0141C126.481 84.0141 126.74 83.7551 126.999 83.4962C127.258 83.1077 127.905 82.5897 128.682 82.9782C129.459 83.2372 130.107 84.1436 129.071 85.5681C129.071 85.5681 128.553 86.6041 126.481 87.122C126.481 87.122 127.258 88.2875 129.2 89.712C129.2 89.712 131.272 88.8055 132.438 88.5465C132.438 88.5465 131.272 87.2515 131.92 85.8271C131.92 85.8271 132.438 84.0141 133.733 84.1436C135.028 84.2731 134.51 85.8271 134.51 85.8271C134.51 85.8271 133.733 87.5105 134.769 87.64C134.769 87.64 135.675 87.7695 136.582 87.2515C136.582 87.2515 137.488 89.712 134.121 94.3738C134.121 94.3738 132.697 96.3163 132.826 97.2227L136.064 94.1148C136.064 94.1148 140.337 89.971 137.877 85.0501C137.877 85.0501 139.042 82.2012 136.97 80.7767L136.582 77.1509L136.323 77.0214C137.877 77.4099 139.43 76.5034 139.819 74.9494C139.948 74.3019 139.948 73.6545 139.689 73.1365C140.207 73.1365 140.725 73.1365 141.243 73.266C141.632 73.266 142.02 73.3955 142.02 73.3955C142.02 73.3955 141.243 72.8775 140.207 72.489C140.725 72.3595 141.114 72.23 141.632 72.23C141.502 72.1005 140.337 71.5825 138.783 71.453ZM124.668 72.23C122.596 72.1005 120.783 73.3955 120.783 73.3955L121.042 73.784C121.56 73.6545 122.984 73.3955 124.797 73.525C126.61 73.6545 128.812 75.0789 128.812 75.0789L129.33 74.8199L126.74 72.8775C126.092 72.489 125.445 72.23 124.668 72.23ZM137.747 73.6545C137.877 74.0429 137.877 74.4314 137.618 74.8199C137.229 75.4674 136.323 75.5969 135.805 75.2084C135.546 75.0789 135.287 74.6904 135.287 74.4314C135.546 74.3019 135.805 74.3019 136.064 74.1724C136.064 74.3019 136.193 74.4314 136.323 74.5609C136.582 74.6904 136.97 74.6904 137.1 74.4314C137.229 74.3019 137.229 74.043 137.1 73.9135C137.229 73.6545 137.488 73.6545 137.747 73.6545ZM116.121 75.2084C116.121 75.2084 113.92 76.2444 109.128 77.5393C109.128 77.5393 109.258 77.7983 110.294 77.9278C110.423 77.9278 110.423 77.9278 110.553 77.9278C110.682 77.9278 110.812 77.9278 110.812 77.9278C110.941 77.9278 111.071 77.9278 111.2 77.9278C111.33 77.9278 111.459 77.9278 111.718 77.9278C111.718 77.9278 111.33 78.5753 109.128 79.9998C107.056 81.4242 102.913 85.3091 102.913 88.935C102.913 88.935 104.078 88.158 104.726 87.7695C104.726 87.7695 102.913 93.3379 104.855 97.0932C104.855 97.0932 104.855 96.9637 104.855 96.8342C104.985 95.4098 105.762 88.2875 110.164 83.6257C110.164 83.6257 108.092 84.1436 107.574 84.5321C107.574 84.5321 108.61 83.1077 111.848 80.3883C116.51 76.8919 116.121 75.2084 116.121 75.2084ZM126.351 75.2084C125.056 75.0789 124.15 75.8559 124.15 75.8559L124.409 76.2444C126.092 75.7264 128.553 76.7624 128.553 76.7624L129.071 76.5034C128.035 75.5969 127.128 75.2084 126.351 75.2084ZM36.7402 79.4818V81.4242C31.9488 86.6041 27.1575 93.8558 27.1575 93.8558C31.4308 89.8415 36.8697 86.0861 36.8697 86.0861V97.8702C33.8913 99.6832 28.5819 103.698 28.5819 103.698C53.9631 94.6328 57.7185 99.8127 58.2365 100.978C58.2365 101.108 58.2365 101.108 58.2365 101.108L55.3876 102.662L58.4955 103.439C58.2365 104.345 56.9416 105.381 56.9416 105.381C59.5315 106.158 60.0495 107.582 60.0495 107.582L56.8121 108.877L60.3085 109.913C59.92 111.208 58.366 112.115 58.366 112.115C60.9559 113.41 60.9559 114.705 60.9559 114.705L58.2365 115.741L60.8264 116.777C59.7905 118.849 57.589 119.367 57.589 119.367C58.884 120.273 59.0135 121.438 59.0135 121.568L56.2941 122.733L58.625 123.51C57.7185 125.323 54.8696 125.971 54.8696 125.971C56.0351 127.007 56.0351 128.172 56.0351 128.172L53.3157 129.338L55.3876 129.985C53.4452 132.705 48.3948 133.093 45.8049 133.093C44.8984 133.093 44.2509 133.093 44.1215 133.093C29.8769 132.187 23.1431 120.144 23.1431 120.144C22.4956 118.59 20.5532 116.129 19.9057 115.741C19.2582 115.352 17.8338 113.41 17.8338 113.41C14.7259 106.676 21.8481 96.9637 21.8481 96.9637L17.5748 97.9997C22.2366 88.935 36.7402 79.4818 36.7402 79.4818ZM127.258 79.8703C128.035 79.8703 128.941 80.1293 129.977 80.7767C132.438 82.2012 134.639 82.0717 134.639 82.0717C134.639 82.0717 136.323 81.9422 136.452 83.2372C136.452 83.2372 135.287 82.8487 133.085 82.8487C130.884 82.8487 129.2 81.5537 129.2 81.5537C129.2 81.5537 128.423 80.7767 125.315 80.5177C125.445 80.2588 126.092 79.7408 127.258 79.8703ZM151.215 81.6832C151.215 81.6832 161.833 86.2156 172.97 100.719C172.97 100.719 179.056 108.877 181.776 114.705L178.15 113.669L177.632 113.539C177.632 113.539 196.927 152.129 155.358 172.071C151.085 174.402 145.517 176.733 137.877 178.546L137.359 178.805C129.071 183.467 120.006 186.963 110.553 187.87C106.021 188.258 101.618 187.999 97.2148 186.704L99.4162 184.762L95.7904 184.633C95.7904 184.633 95.7904 184.633 95.7904 184.503C95.7904 183.985 96.1788 183.467 96.5673 182.82C96.5673 182.82 96.5673 182.69 96.6968 182.69L96.8263 182.561C96.8263 182.561 96.8263 182.431 96.9558 182.431L97.0853 182.302C97.0853 182.302 96.8263 182.302 96.4378 182.302C95.0134 182.172 93.4594 181.784 92.294 181.007C92.1645 181.007 92.1645 180.877 92.035 180.877C91.9055 180.877 91.776 180.748 91.776 180.618C91.6465 180.489 91.3875 180.359 91.258 180.23L93.7184 179.064L89.963 178.287C89.963 178.287 89.963 178.158 89.963 178.028C89.963 177.899 89.963 177.899 89.963 177.769C89.963 177.64 89.963 177.51 89.963 177.51V177.381V177.251C89.963 177.122 89.963 176.992 89.963 176.992C90.0925 176.604 90.222 176.345 90.3515 175.956C90.481 175.827 90.481 175.827 90.6105 175.697C90.6105 175.697 90.481 175.568 90.222 175.568C89.445 175.179 88.6681 174.791 88.0206 174.273C88.0206 174.273 87.8911 174.273 87.8911 174.143C87.7616 174.014 87.6321 173.884 87.5026 173.884L87.6321 173.755L90.222 172.589L86.5961 171.424C86.5961 171.424 86.5961 171.424 86.5961 171.294C86.8551 170.129 88.1501 169.222 89.1861 168.705C89.1861 168.705 89.0566 168.575 88.9271 168.446C88.9271 168.446 88.7976 168.446 88.7976 168.316C88.6681 168.316 88.6681 168.187 88.5386 168.057L88.4091 167.928L88.2796 167.798C88.2796 167.798 88.2796 167.669 88.1501 167.669C88.0206 167.539 88.0206 167.41 88.0206 167.28L90.74 166.115L87.5026 164.82C87.5026 164.82 87.5026 164.69 87.6321 164.431C87.8911 163.784 88.4091 163.266 88.9271 162.748C89.0566 162.618 89.1861 162.618 89.3156 162.489C89.8335 162.23 90.3515 161.971 90.999 161.712C90.999 161.712 90.8695 161.582 90.74 161.323C90.74 161.323 90.74 161.194 90.6105 161.194C90.6105 161.194 90.6105 161.064 90.481 161.064C90.481 160.935 90.3515 160.935 90.3515 160.805C90.3515 160.676 90.3515 160.676 90.3515 160.546V160.417C90.3515 160.287 90.3515 160.158 90.3515 160.028L93.9774 159.122C93.2004 158.863 92.4234 158.604 91.6465 158.215C91.3875 158.086 90.999 157.956 90.74 157.827C90.74 157.827 90.74 157.697 90.8695 157.568C90.999 157.438 91.1285 157.179 91.3875 156.791C92.1645 156.014 94.1069 154.978 98.5098 154.46C98.6393 154.46 98.8983 154.46 99.0277 154.46C101.359 154.201 104.337 154.201 108.222 154.33C120.395 154.848 125.833 157.309 125.833 157.309C125.833 157.309 133.215 155.237 134.251 154.589L133.992 156.143C133.992 156.143 163.387 149.798 148.107 117.683V117.554C146.682 118.978 144.481 120.92 141.373 121.956C141.373 121.956 143.056 119.237 143.186 117.295C143.186 117.295 140.466 121.05 132.567 122.733C132.567 122.733 133.862 119.755 134.251 118.46C134.251 118.46 120.654 129.079 102.783 121.438C107.704 126.1 117.028 128.302 117.675 128.431C117.287 128.561 114.956 129.726 108.61 129.467C108.61 129.467 111.977 132.057 116.898 132.575V134.777H86.0782V110.043C86.3371 110.69 87.8911 111.338 87.8911 111.338L88.2796 109.266C88.7976 109.654 90.999 111.856 94.6249 112.374C101.488 113.28 104.208 118.59 104.208 118.59V116.388C104.208 116.388 114.179 124.935 124.538 119.367C129.33 117.165 133.992 113.669 136.452 107.841L137.747 110.043C137.747 110.043 139.301 103.957 142.409 99.4242C145.258 95.2803 147.848 92.1724 148.625 88.158C148.625 88.158 155.617 91.6544 161.704 96.8342C161.704 96.8342 156.265 88.935 150.697 84.9206C150.697 84.9206 156.265 87.5105 159.373 90.3594C159.243 90.4889 155.358 85.1796 151.215 81.6832ZM116.38 90.4889C104.855 90.1004 106.927 97.3522 106.927 97.3522C106.927 97.3522 107.833 95.1508 108.481 94.7623C108.481 94.7623 110.035 100.072 109.905 105.769C109.776 111.597 110.035 113.021 113.79 113.928C113.79 113.928 112.366 112.762 112.236 111.856C112.236 111.856 114.438 113.539 119.488 113.928C124.409 114.316 125.704 111.079 125.704 111.079C125.704 111.079 126.999 107.582 127.387 106.158C127.776 104.604 127.905 102.014 130.107 99.0357C132.308 96.0573 132.308 95.5393 132.308 95.5393C132.049 95.1508 130.495 93.8558 130.495 93.8558C128.553 92.4314 128.682 91.1364 128.682 91.1364C126.869 92.5609 122.208 91.7839 120.913 91.3954C119.488 90.8774 116.38 90.4889 116.38 90.4889ZM116.51 92.0429C116.51 92.0429 124.668 93.8558 127.517 92.9494C127.517 92.9494 128.423 93.9853 129.33 94.5033C130.366 95.0213 130.754 95.7983 129.977 96.9637C129.977 96.9637 129.459 98.2587 128.164 99.1652C128.164 99.1652 127.646 99.8126 127.646 98.9062C127.646 98.9062 128.035 96.7047 128.164 96.0573C128.164 96.0573 128.294 95.5393 127.776 95.9278C127.776 95.9278 127.387 96.4457 126.999 96.3163L126.61 96.1868C126.61 96.1868 126.222 96.1868 126.222 95.5393C126.222 95.5393 126.351 95.1508 125.833 95.4098C125.833 95.4098 125.574 95.9278 125.056 95.7983L124.538 95.6688C124.538 95.6688 124.279 95.6688 124.15 95.0213C124.15 95.0213 124.15 94.6328 123.632 94.8918C123.632 94.8918 123.373 95.2803 122.984 95.2803L122.467 95.1508C122.467 95.1508 122.078 95.0213 122.078 94.5033C122.078 93.9853 121.69 94.2443 121.56 94.3738C121.56 94.3738 121.301 94.7623 120.913 94.7623L120.265 94.6328C120.265 94.6328 119.877 94.5033 119.877 93.9853L119.747 93.5968C119.747 93.5968 119.618 92.8199 118.97 93.7263C118.97 93.7263 117.934 95.0213 117.546 95.7983C117.546 95.7983 116.639 96.9637 116.51 95.9278C116.38 95.9278 115.992 94.1148 116.51 92.0429ZM113.272 103.698C113.531 103.698 113.661 104.216 113.661 104.216L113.92 105.381C114.049 106.417 114.438 107.453 114.438 107.453C114.697 107.971 115.085 107.582 115.085 107.582C115.344 107.194 115.733 107.194 115.733 107.194L116.51 107.323C116.898 107.453 116.898 107.841 116.898 107.841C116.898 108.359 117.287 107.971 117.287 107.971L117.416 107.841C117.675 107.582 117.934 107.712 117.934 107.712L118.711 107.841C119.1 107.971 118.97 108.359 118.97 108.359C119.1 108.748 119.359 108.489 119.359 108.489L119.488 108.359C119.747 108.1 120.006 108.23 120.006 108.23L120.524 108.359C120.783 108.489 120.783 108.877 120.783 108.877C120.913 109.266 121.172 108.877 121.172 108.877C121.431 108.618 121.69 108.748 121.69 108.748L122.078 108.877C122.467 109.007 122.337 109.266 122.337 109.266C122.337 109.654 122.726 109.395 122.726 109.395C123.373 108.748 124.797 106.805 124.797 106.805C125.574 105.899 125.315 106.935 125.315 106.935C124.797 109.525 123.502 110.949 123.502 110.949C122.984 111.726 122.337 111.467 122.337 111.467C121.819 111.338 121.819 110.69 121.819 110.69C121.301 111.079 120.913 110.949 120.913 110.949C120.395 110.82 120.395 110.172 120.395 110.172C120.006 110.69 119.359 110.561 119.359 110.561C118.582 110.302 118.452 109.654 118.452 109.654C117.934 110.302 117.287 110.172 117.287 110.172C116.38 109.913 116.51 109.136 116.51 109.136C115.733 109.913 115.085 109.654 115.085 109.654C114.438 109.525 114.308 108.877 114.308 108.877C113.92 109.525 113.013 109.525 113.013 109.525C112.236 109.525 111.848 108.748 111.848 108.748C111.2 105.899 112.884 103.827 112.884 103.827C113.143 103.827 113.272 103.827 113.272 103.698Z" fill="black"/>
<path d="M65.0992 11.8867L41.013 34.419V96.7066C41.4015 96.5771 42.4374 96.4476 42.4374 96.4476V35.0665L65.6172 13.4407H137.876L161.056 35.196V59.1527H154.451C154.451 59.1527 154.322 60.1887 154.192 60.5772H162.48V34.419L138.394 11.8867H65.0992ZM87.502 38.1744C87.502 38.1744 88.797 38.6924 89.833 39.5989H120.912V46.9801C120.912 46.9801 121.818 47.3686 122.466 47.8866V38.1744H121.43H87.502ZM110.423 67.6995C110.034 68.2175 109.905 68.8649 110.034 69.5124C110.293 70.6779 111.459 71.3254 112.495 71.0664C113.013 70.9369 113.531 70.6779 113.79 70.1599C113.401 69.9009 113.142 69.6419 112.883 69.3829C112.754 69.6419 112.495 69.7714 112.236 69.9009C111.718 70.0304 111.329 69.6419 111.2 69.2534C111.07 68.9944 111.2 68.6059 111.459 68.4765C111.07 68.088 110.682 67.829 110.423 67.6995ZM137.746 73.6563C137.487 73.6563 137.228 73.7858 136.969 73.7858C137.099 73.9153 137.099 74.1743 136.969 74.3038C136.84 74.5628 136.452 74.6923 136.193 74.4333C136.063 74.3038 135.934 74.1743 135.934 74.0448C135.675 74.1743 135.416 74.1743 135.157 74.3038C135.286 74.5628 135.416 74.9513 135.675 75.0807C136.322 75.4692 137.099 75.3397 137.487 74.6923C137.876 74.4333 137.876 74.0448 137.746 73.6563ZM127.257 79.8721C126.092 79.8721 125.315 80.2606 125.315 80.2606C128.423 80.5196 129.2 81.2966 129.2 81.2966C129.2 81.2966 131.013 82.721 133.085 82.5915C135.286 82.5915 136.452 82.98 136.452 82.98C136.193 81.685 134.639 81.8145 134.639 81.8145C134.639 81.8145 132.567 81.944 129.977 80.5196C128.941 80.1311 128.034 79.8721 127.257 79.8721ZM116.509 92.0447C115.991 94.1167 116.38 95.9296 116.38 95.9296C116.509 97.0951 117.416 95.8001 117.416 95.8001C117.934 95.0231 118.84 93.7282 118.84 93.7282C119.617 92.8217 119.617 93.5987 119.617 93.5987V93.9872C119.617 94.3756 120.006 94.6346 120.006 94.6346L120.524 94.7641C120.912 94.8936 121.171 94.3756 121.171 94.3756C121.43 94.2461 121.689 93.9872 121.689 94.5051C121.689 95.0231 122.077 95.1526 122.077 95.1526L122.595 95.2821C122.984 95.4116 123.243 94.8936 123.243 94.8936C123.761 94.6346 123.761 95.0231 123.761 95.0231C123.761 95.6706 124.149 95.6706 124.149 95.6706L124.667 95.8001C125.185 95.8001 125.444 95.4116 125.444 95.4116C125.962 95.0231 125.833 95.5411 125.833 95.5411C125.962 96.1886 126.221 96.1886 126.221 96.1886L126.61 96.3181C126.998 96.4476 127.387 95.9296 127.387 95.9296C127.905 95.5411 127.775 96.0591 127.775 96.0591C127.775 96.7066 127.257 98.908 127.257 98.908C127.257 99.685 127.775 99.167 127.775 99.167C129.07 98.2605 129.588 96.8361 129.588 96.8361C130.236 95.6706 129.847 94.7641 128.941 94.3756C127.905 93.8577 127.128 92.8217 127.128 92.8217C124.667 93.8577 116.509 92.0447 116.509 92.0447ZM80.6387 103.311V140.217H122.466V125.973H146.811C146.552 125.066 146.293 124.548 146.293 124.548H120.912V138.793H82.0632V104.994C81.9337 104.865 81.9337 104.865 81.8042 104.735C81.8042 104.735 81.8042 104.735 81.6747 104.606C81.2862 104.088 80.6387 103.311 80.6387 103.311ZM113.272 103.699C113.142 103.699 113.013 103.829 112.883 104.088C112.883 104.088 111.329 106.16 111.847 109.009C111.847 109.009 112.236 109.915 113.013 109.786C113.013 109.786 113.919 109.786 114.308 109.138C114.308 109.138 114.437 109.786 115.085 109.915C115.085 109.915 115.862 110.174 116.509 109.397C116.509 109.397 116.509 110.045 117.286 110.433C117.286 110.433 117.934 110.563 118.452 109.915C118.452 109.915 118.581 110.692 119.358 110.822C119.358 110.822 120.006 110.951 120.394 110.433C120.394 110.433 120.523 110.951 120.912 111.21C120.912 111.21 121.43 111.34 121.818 110.951C121.818 110.951 121.818 111.728 122.336 111.728C122.336 111.728 122.984 111.987 123.502 111.21C123.502 111.21 124.797 109.786 125.315 107.196C125.315 107.196 125.444 106.16 124.797 107.066C124.797 107.066 123.372 109.009 122.725 109.656C122.725 109.656 122.336 109.915 122.336 109.527C122.336 109.527 122.466 109.138 122.077 109.138L121.689 109.009C121.689 109.009 121.3 108.879 121.171 109.138C121.171 109.138 120.912 109.527 120.782 109.138C120.782 109.138 120.783 108.75 120.524 108.62L120.006 108.491C120.006 108.491 119.747 108.491 119.488 108.62L119.358 108.75C119.358 108.75 119.099 109.009 118.97 108.62C118.97 108.62 118.97 108.232 118.711 108.102L118.063 107.973C118.063 107.973 117.804 107.843 117.545 108.102L117.416 108.232C117.416 108.232 117.157 108.491 117.027 108.102C117.027 108.102 117.027 107.714 116.639 107.584L115.603 107.325C115.603 107.325 115.214 107.325 114.955 107.714C114.955 107.714 114.567 108.102 114.308 107.584C114.308 107.584 113.919 106.548 113.79 105.512L113.531 104.347C113.66 104.347 113.66 103.699 113.272 103.699ZM38.1641 136.85V147.081L63.4158 171.944H80.5092C79.2143 171.296 78.3078 170.778 77.9193 170.519H63.9338L39.718 146.692V137.239V137.109C39.2 136.98 38.1641 136.85 38.1641 136.85Z" fill="white"/>
</svg>
