<svg width="200" height="200" viewBox="0 0 200 200" fill="none" xmlns="http://www.w3.org/2000/svg">
<path d="M26.9297 10.1902V65.9663H34.0307V134.031H26.9297V189.807H140.63L168.067 165.198V34.7868L140.63 10.1875H26.9297V10.1902ZM91.756 65.9663H110.345V134.028H91.756V65.9663Z" fill="black"/>
<path d="M30.4863 13.7419V62.4049H37.5849V137.58H30.4863V186.243H139.274L164.515 163.603V36.3679L139.274 13.7383H30.4863V13.7419ZM113.899 137.584H88.1968V62.4067H113.899V137.584Z" fill="white"/>
<path d="M40.3027 23.5625V52.5942H47.4013V147.403H40.3027V176.435H135.519L154.701 159.229V40.7609L135.519 23.5625H40.3027ZM119.882 52.5942C120.822 53.434 122.905 55.3036 123.716 56.0315V144.055C122.336 145.269 119.918 147.395 119.916 147.4H78.3834V52.5906H119.882L119.882 52.5942Z" fill="black"/>
<path d="M134.154 27.1148H43.8613V49.0315H50.9599V150.952H43.8613V172.868H134.154L151.14 157.632V42.3391L134.154 27.1094V27.1148ZM74.8264 150.957V49.0369H121.245C122.182 49.8743 126.199 53.4821 127.275 54.4461V145.663C126.184 146.625 122.187 150.14 121.257 150.958H74.8269L74.8264 150.957Z" fill="#00693E"/>
</svg>
