<svg width="200" height="200" viewBox="0 0 200 200" fill="none" xmlns="http://www.w3.org/2000/svg">
<path d="M172.907 74.3974C172.907 149.617 102.238 185.303 101.524 185.654L100.287 186.265L99.65 186.578L99.0126 186.265L97.776 185.654C97.0624 185.303 26.3926 149.615 26.3926 74.3974V13.866H172.907V15.3063V74.3974Z" fill="white"/>
<path d="M171.467 74.3994C171.467 148.735 101.593 184.016 100.888 184.363L99.6514 184.973L98.4147 184.363C97.7095 184.016 27.8359 148.735 27.8359 74.3994V15.3084H171.467V74.3994Z" fill="black"/>
<path d="M30.6309 18.112V74.4052C30.6309 147.858 99.6485 181.859 99.6485 181.859C99.6485 181.859 168.666 147.858 168.666 74.4052V18.112H30.6309Z" fill="#A51C30"/>
<path d="M110.974 30.1622V48.1546H115.117V72.7939H84.1639V48.1546H88.2779V30.1622H62.0045V48.1546H66.1566V115.426H61.9863L62.0095 133.418H88.2779V115.426H84.1821V90.7863H115.098V115.426H110.974V133.418H137.303V115.426H133.163V48.1546H137.303V30.1622H110.974Z" fill="black"/>
<path d="M113.49 32.6945V45.6507H117.634V75.3261H81.644V45.6507H85.758V32.6945H64.5208V45.6507H68.6728V117.959H64.5059L64.5224 130.914H85.758V117.959H81.6638V88.2824H117.614V117.959H113.49V130.914H134.783V117.959H130.643V45.6507H134.783V32.6945H113.49Z" fill="white"/>
</svg>
