<svg width="200" height="200" viewBox="0 0 200 200" fill="none" xmlns="http://www.w3.org/2000/svg">
<path d="M160.007 20.6304H35.1406L35.1532 63.7151V90.8633C35.1532 127.75 77.1391 165.383 97.471 177.827L99.9928 179.367L102.54 177.827C122.874 165.387 164.86 127.755 164.86 90.8633L164.836 20.6304H160.007Z" fill="white"/>
<path d="M160.007 25.4591H39.9727L39.9834 63.7126V90.8625C39.9834 125.558 81.2182 162.216 99.9936 173.709V173.727C99.999 173.727 100.004 173.721 100.008 173.721C100.012 173.721 100.017 173.727 100.017 173.727V173.709C118.798 162.216 160.029 125.558 160.029 90.8625L160.007 25.4591Z" fill="#011F5B"/>
<path d="M115.009 92.3398C115.004 92.3344 115.004 92.3234 114.998 92.3143C115 92.3271 115.004 92.3344 115.009 92.3398Z" fill="#154281"/>
<path d="M98.3869 34.0391V37.3378C100.082 37.3378 101.354 37.8544 101.354 39.4882V50.5412C101.354 52.501 100.374 53.7104 98.1561 53.7104V56.8374H109.603C109.603 56.8374 109.64 55.0467 109.64 53.6147C107.289 53.6147 106.181 52.6649 106.181 50.5412C106.181 49.5648 106.214 46.0097 106.214 46.0097L114.239 56.8375H120.043C120.043 56.8375 120.012 43.1127 120.012 40.1441C120.012 37.4654 121.019 37.3378 123.175 37.3378V34.0391H111.565V37.3659C114.303 37.3659 114.988 38.542 114.988 40.4676V46.5978L105.953 34.0391H98.3869ZM126.21 34.0391V37.3378C127.907 37.3378 129.176 37.8544 129.176 39.4882V50.5412C129.176 52.501 128.195 53.7104 125.979 53.7104V56.8374H137.426C137.426 56.8374 137.463 55.0467 137.463 53.6147C135.112 53.6147 134.001 52.6649 134.001 50.5412C134.001 49.5648 134.035 46.0097 134.035 46.0097L142.059 56.8375H147.866C147.866 56.8375 147.835 43.1127 147.835 40.1441C147.835 37.4654 148.846 37.3378 150.998 37.3378V34.0391H139.385V37.3659C142.127 37.3659 142.811 38.542 142.811 40.4676V46.5978L133.776 34.0391H126.21ZM73.5932 34.0728C73.5932 34.0728 73.6269 35.6732 73.6269 37.4025C74.3132 37.4025 76.7258 37.7247 76.7258 39.4233L76.7596 51.0027C76.7596 53.0238 74.8038 53.6793 73.3033 53.6793V56.8739L93.5231 56.8373V50.6424H89.0254C88.9911 52.7284 87.7488 53.412 86.3148 53.412H83.2525V46.4683H84.7837C86.2824 46.4683 86.4471 48.0332 86.4471 48.0332H89.2195V41.8044H86.4471C86.4471 41.8044 86.4462 43.4002 84.8484 43.4002H83.2525V37.27H86.2501C89.0242 37.27 88.8931 39.6484 88.8931 39.6484H93.5231V34.0727L73.5932 34.0728ZM50.373 34.0756V37.3659C51.6123 37.3659 53.4068 37.8241 53.3762 39.4543V51.0027C53.342 52.6672 52.1638 53.6767 50.1084 53.6767C50.0778 53.6767 50.0465 56.8375 50.0465 56.8375H63.157V53.6767C60.6784 53.6767 59.8977 52.8265 59.8977 51.3603L59.9315 47.8083H62.3746C68.2775 47.8083 71.4752 44.7708 71.5417 40.5016C71.6066 35.9658 68.0866 34.0758 63.0951 34.0758L50.373 34.0756ZM59.8977 38.1484H61.9834C63.1272 38.1484 64.4617 38.8336 64.4293 40.9574C64.3987 43.1118 62.8953 43.6313 61.3641 43.6313H59.9315L59.8977 38.1484ZM45.9766 69.3622V90.8661C45.9766 119.571 79.5595 152.867 100.003 166.579C120.44 152.867 154.032 119.571 154.032 90.8661V69.3622C144.283 69.4109 55.7197 69.4109 45.9766 69.3622Z" fill="white"/>
<path d="M103.768 89.9802H109.344C110.192 89.9802 111.404 90.2414 112.536 90.9835L120.921 79.0442C117.772 77.6554 113.838 77.3112 109.529 77.3112H80.3203C80.3203 77.3112 80.3924 86.0568 80.3203 85.9847C83.5339 85.9847 88.448 87.442 88.448 92.2192V124.91L103.768 103.332V89.9802Z" fill="#990000"/>
<path d="M115.009 92.3251L125.004 80.1569C129.14 83.6533 130.432 89.0412 130.432 94.1949C130.432 106.676 123.043 112.918 108.27 112.918H103.732V125.67C103.732 129.997 106.124 133.021 112.337 133.021V141.363H80.3219C80.3219 141.363 80.2876 133.054 80.3219 133.021C85.5278 133.021 88.4441 129.485 88.4495 124.675L105.208 104.264H107.418C111.595 104.264 115.639 102.694 115.639 96.1602C115.637 95.0487 115.45 93.4689 115.009 92.3251Z" fill="#011F5B"/>
</svg>
