<svg width="200" height="200" viewBox="0 0 200 200" fill="none" xmlns="http://www.w3.org/2000/svg">
<path d="M33.4688 23.6602V58.1521H49.8889V141.865H33.4688V176.339H111.537V141.865H95.1172V117.981H112.074C127.511 117.981 141.429 113.303 151.256 104.801C161.11 96.2833 166.531 84.2137 166.531 70.8203C166.531 57.4291 161.11 45.3591 151.256 36.8424C141.43 28.3465 127.513 23.6639 112.075 23.6639H40.8853H33.4688L33.4688 23.6602ZM39.527 29.0375H40.8861H112.075C140.572 29.0375 160.474 46.2166 160.474 70.8212C160.474 95.4259 140.572 112.608 112.075 112.608H89.0569V147.244H105.48V170.97H39.5275V147.244H55.9536V52.7795H39.5275V29.039L39.527 29.0375ZM89.0565 52.778V88.9997H106.222C120.951 88.9997 130.471 81.8921 130.471 70.8919C130.471 59.8868 120.952 52.778 106.222 52.778H92.0918H89.0565ZM95.1178 58.1525H106.222C117.612 58.1525 124.409 62.9139 124.409 70.8916C124.409 78.8654 117.612 83.6276 106.222 83.6276H95.1178V58.1525Z" fill="white"/>
<path d="M36.4971 26.3478V42.0361C57.005 53.6914 76.515 69.3609 92.0906 83.4321V70.8897V66.707C77.1808 50.1125 61.21 36.4321 48.5876 26.348H40.8855L36.4971 26.3478ZM67.8631 26.3478C78.084 34.8473 88.885 44.7457 99.5838 55.4655H106.22C119.507 55.4655 127.436 61.516 127.436 70.8908C127.436 74.8869 125.989 78.2759 123.303 80.853C130.682 89.3032 137.735 97.9555 144.193 106.583C150.64 102.4 155.705 96.853 159.028 90.2579C138.128 61.6226 110.547 40.8877 85.101 26.3477L67.8631 26.3478ZM119.623 29.826C143.39 52.5491 155.314 71.999 161.241 84.9686C162.72 80.5926 163.501 75.8532 163.501 70.8206C163.501 69.6104 163.457 68.4156 163.369 67.2396C140.875 39.4429 119.623 29.826 119.623 29.826ZM58.2269 71.0312C70.7892 86.0627 82.579 101.033 93.2057 115.296H105.601C80.9274 90.3758 58.2269 71.0312 58.2269 71.0312ZM107.962 86.2715C107.392 86.295 106.813 86.3097 106.222 86.3097H95.2467C108.485 98.4933 118.508 109.136 123.308 114.399C123.78 114.322 124.25 114.241 124.714 114.153C120.024 104.324 114.289 95.0061 107.962 86.2715ZM52.9203 86.477V106.175C65.0932 117.384 77.4799 130.407 89.7807 145.498C89.7807 145.498 77.2077 116.194 52.9203 86.477ZM52.9203 128.196V136.521C65.8967 150.158 75.4029 162.231 82.827 173.661H103.395C85.5156 154.818 67.5505 139.502 52.9188 128.196L52.9203 128.196ZM36.4941 144.552V155.524C42.5574 161.14 48.5969 167.181 54.5374 173.66H60.6516C56.2257 165.69 49.9047 155.516 41.4196 144.55H36.4943L36.4941 144.552Z" fill="black"/>
<path d="M48.5891 26.3484C61.2121 36.4325 77.1838 50.113 92.0921 66.7075V55.4654H99.5857C88.887 44.7456 78.0875 34.8478 67.8681 26.3477L48.5891 26.3484ZM85.1068 26.3484C110.553 40.8891 138.13 61.6233 159.031 90.2571C159.885 88.5616 160.626 86.7959 161.244 84.9678C155.315 71.9997 143.391 52.5499 119.624 29.8253C119.624 29.8253 140.876 39.4423 163.37 67.2387C161.529 42.9827 140.952 26.3477 112.075 26.3477L85.1068 26.3484ZM36.4956 42.0382V55.4699H52.9188V65.8842V86.4777C77.2063 116.195 89.7822 145.499 89.7822 145.499C77.4799 130.408 65.0904 117.382 52.9173 106.173V115.433V128.196C67.5499 139.502 85.5156 154.817 103.395 173.66H108.508V144.551H92.091V115.295H93.2064C82.5813 101.033 70.7899 86.0634 58.2276 71.0319C58.2276 71.0319 80.9296 90.3766 105.602 115.295H112.074C115.98 115.295 119.732 114.986 123.307 114.4C118.507 109.139 108.483 98.4954 95.2446 86.3118H92.0892V83.4352C76.5152 69.364 57.0022 53.6938 36.4943 42.0392L36.4956 42.0382ZM123.308 80.8538C119.977 84.05 114.734 85.9899 107.962 86.2723C114.29 95.0066 120.021 104.325 124.711 114.155C132.072 112.778 138.645 110.187 144.196 106.585C137.738 97.9562 130.688 89.3049 123.309 80.8544L123.308 80.8538ZM52.9203 136.521V144.552H41.42C49.905 155.518 56.2263 165.691 60.652 173.661H82.8281C75.4025 162.231 65.8974 150.158 52.9203 136.521ZM36.4941 155.524V173.661H54.5374C48.5966 167.181 42.5584 161.141 36.4956 155.523L36.4941 155.524Z" fill="#FF6000"/>
</svg>
