<svg width="200" height="200" viewBox="0 0 200 200" fill="none" xmlns="http://www.w3.org/2000/svg">
<path d="M107.955 25.3898V58.6407H118.933L100.001 85.6785L81.0688 58.6407H92.0458V25.3898H18.625V58.6407H40.4769L81.3286 116.984V141.362H56.1802V174.613H143.82V141.362H118.672V116.984L159.525 58.6407H181.376V25.3898H107.955Z" fill="#0A2240"/>
<path d="M178.178 55.4415H157.86L115.473 115.976V144.561H140.622V171.414H59.3794V144.561H84.5278V115.976L42.1412 55.4415H21.8242V28.5885H88.8471V55.4415H74.9235L100.001 91.256L125.078 55.4415H111.154V28.5885H178.178V55.4415Z" fill="white"/>
<path d="M99.9997 96.8321L68.7778 52.2423H85.648V31.7871H25.0215V52.2423H43.8051L87.7251 114.967V147.758H62.5767V168.215H137.423V147.758H112.274V114.967L156.194 52.2423H174.978V31.7871H114.351V52.2423H131.222L99.9997 96.8321Z" fill="#0A2240"/>
</svg>
